<svg xmlns="http://www.w3.org/2000/svg" width="64" height="64" version="1">
    <path d="M51.708 4a20 20.514 0 0 1-6.458 11.977A23.927 23.927 0 0 0 32 12c-4.91 0-9.464 1.47-13.258 3.98a20 20.514 0 0 1-6.449-11.846A20 20.514 0 0 0 12 7.485a20 20.514 0 0 0 3.305 11.27A23.904 23.904 0 0 0 8 36c0 13.296 10.704 24 24 24s24-10.704 24-24c0-6.788-2.802-12.884-7.3-17.242A20 20.514 0 0 0 52 7.485 20 20.514 0 0 0 51.708 4z" fill="#CB241D"/>
    <g opacity=".2">
        <path d="M30 43c-2.368 3.825-7.612 5.135-11.712 2.925-4.1-2.208-5.505-7.1-3.138-10.926zM34 43c2.368 3.825 7.611 5.136 11.712 2.927 4.1-2.21 5.506-7.102 3.138-10.928z"/>
    </g>
    <path d="M30 42c-2.368 3.826-7.612 5.136-11.712 2.926-4.1-2.208-5.505-7.1-3.138-10.926z" fill="#F9F5D7"/>
    <path d="M22.109 37.75V38c-.432 2.205.419 4.84 2.611 7.742.025-.006.051-.01.076-.015-1.07-2.043-.895-4.32.147-6.452l-2.834-1.525z" fill="#282727"/>
    <path d="M34 42c2.368 3.826 7.612 5.136 11.712 2.926 4.1-2.208 5.506-7.1 3.138-10.926z" fill="#F9F5D7"/>
    <path d="M41.891 37.75V38c.432 2.205-.419 4.84-2.611 7.742-.025-.006-.051-.01-.076-.015 1.07-2.043.895-4.32-.147-6.452l2.834-1.525z" fill="#282727"/>
    <path d="M51.707 4a20 20.514 0 0 1-6.457 11.977A23.927 23.927 0 0 0 32 12c-4.91 0-9.464 1.469-13.258 3.98a20 20.514 0 0 1-6.449-11.847A20 20.514 0 0 0 12 7.484a20 20.514 0 0 0 .021.438 20 20.514 0 0 1 .272-2.79 20 20.514 0 0 0 6.449 11.848A23.935 23.935 0 0 1 32 13c4.908 0 9.456 1.468 13.25 3.977A20 20.514 0 0 0 51.707 5a20 20.514 0 0 1 .272 3.033A20 20.514 0 0 0 52 7.484 20 20.514 0 0 0 51.707 4zM14.938 19.127C10.654 23.457 8 29.399 8 36c0 .171.01.34.014.51a23.892 23.892 0 0 1 7.291-16.756 20 20.514 0 0 1-.367-.627zm34.124 0a20 20.514 0 0 1-.363.631 23.902 23.902 0 0 1 7.287 16.752c.004-.17.014-.339.014-.51 0-6.601-2.655-12.543-6.938-16.873z" opacity=".2" fill="#F9F5D7"/>
    <path d="M12.021 7.922a20 20.514 0 0 0-.021.562 20 20.514 0 0 0 2.938 10.643c.123-.124.242-.251.367-.373a20 20.514 0 0 1-3.284-10.832zm39.958.111a20 20.514 0 0 1-3.28 10.725c.124.12.242.247.363.37A20 20.514 0 0 0 52 8.483a20 20.514 0 0 0-.02-.45zM8.014 36.51c-.003.164-.014.325-.014.49 0 13.296 10.704 24 24 24s24-10.704 24-24c0-.165-.01-.326-.014-.49C55.716 49.567 45.126 60 32 60S8.284 49.567 8.014 36.51z" opacity=".2"/>
</svg>
