<svg xmlns="http://www.w3.org/2000/svg" width="64" height="64">
    <circle cx="32" cy="33" r="28" opacity=".2"/>
    <circle cx="32" cy="32" r="28" fill="#F9F5D7"/>
    <path d="M32 4A28 28 0 0 0 4 32a28 28 0 0 0 .018.492A28 28 0 0 1 32 5a28 28 0 0 1 27.975 27.492A28 28 0 0 0 60 32 28 28 0 0 0 32 4z" opacity=".2" fill="#F9F5D7"/>
    <path d="M38.523 15c-1.51 1.354-3.08 2.796-4.218 4.45-2.483 3.615-4.063 8.193-7.27 11.316-1.303 1.264-2.82 2.365-4.379 3.336.82.123 1.73.206 2.551.035-1.655 1.066-3.508 2.082-4.86 3.504-.668.697-1.367 1.404-2.015 2.129.524-.328 1.147-.7 1.781-.707 1.049-.014 3.055-1.203 3.055-1.203s-3.78 2.49-5.332 4.027c-.883.875-1.882 1.701-2.64 2.7-.683.901-.688.89-.688.89 1.276-.479 2.564-.98 3.902-1.274-.538.198-.803.296-1.347.48-1.186.48-2.541.84-3.555 1.442-1.827 1.087-3.641 3.873-4.91 5.711-.676.97-1.788 1.799-2.34 2.797-.317.574-.283 1.174-.207 1.324.559 1.046 3.352 1.93 4.883 2.313 1.841.45 3.771.655 5.668.73 1.124-.24 2.29-.71 3.117-1.516 1.124-1.093 2.746-2.155 3.394-3.57.373-.8.944-1.264.965-1.277a42.012 42.012 0 0 1-2.785 4.12c-.483.623-1.144 1.411-1.144 1.411 1.124-.41 2.295-1.081 3.398-1.266.683-.116 1.433-.437 1.957-.93.559-.526 1.41-.733 1.906-1.273.433-.472.999-1.313 1.598-2.246-.295.18-.592.355-.899.508-.104.055-.14.053-.074-.016.052-.054.104-.101.156-.156.388-.382.759-.804 1.012-1.234l.024-.04c.833-1.555 1.584-3.188 2.336-4.792.037-.062.052-.095.082-.156.074-.137.126-.286.164-.45.431-2.068.893-4.47.394-6.539-.447-1.836-.476-1.386-.476-1.386a15.16 15.16 0 0 1-.559 2.636c-.208.649-.589 1.213-.64 1.547-.142.88.247 1.781.269 1.836a3.109 3.109 0 0 1-.434-1.324c-.082-.84.471-1.745.672-2.516.328-1.249-.33-3.053-.039-3.96.752-2.396 3.7-6.094 4.899-9.41.625 1.774 1.11 3.703 1.78 5.355.06.15.084.2.024.133-.313-.662-1.148-1.993-1.148-1.993-.194.069.88 3.846 1.222 5.559.164.819.282 1.675.2 2.508 0 0-.095.257-.11.332a.895.895 0 0 0-.023.125v.004c-.008.04-.016.077-.024.125-.007.027-.008.047-.015.074-.008.048-.02.11-.028.164a.381.381 0 0 0-.015.09 38.91 38.91 0 0 1-.18.84l-.004.02a52.825 52.825 0 0 0 .606 7.913c.317 2.064.504 1.64.504 1.64.186-2.432-.064-5.394.722-7.608.531-1.497 1.38-3.114 1.656-4.727.283-1.654.276-3.418.235-5.113-.055-2.194-.194-4.407-.504-6.594.29 1.039.718 2.13.773 3.195.055 1.012.082 2.058.11 3.09.234-1.271.415-2.63.277-3.922-.131-1.189.096-2.405-.035-3.574-.173-1.53-.228-3.185-.738-4.64-.49-1.422-1.124-2.846-1.496-4.274-.152-.574-1.16-.723-1.16-.723z" opacity=".1"/>
    <path d="M41.917 23.637c.131 1.169-.096 2.385.035 3.574.138 1.292-.042 2.652-.276 3.923-.028-1.032-.055-2.077-.11-3.089-.056-1.066-.483-2.16-.773-3.198.31 2.187.449 4.4.504 6.595.041 1.695.048 3.458-.235 5.112-.276 1.613-1.124 3.233-1.655 4.73-.786 2.214-.538 5.173-.724 7.606 0 0-.186.424-.503-1.64-.428-2.789-.665-5.844-.61-8.68v-.068c0-.035-.007-.096-.007-.096s-.09.26-.103.335a.93.93 0 0 0-.021.123v.006a2.381 2.381 0 0 0-.02.123c-.008.028-.008.048-.015.076-.006.047-.02.109-.027.164a.402.402 0 0 0-.014.089c-.041.225-.097.505-.165.84-.338 1.606-2.384 2.331-2.611 3.95-.007.035-3.11.288-.014.097-.186 1.12-.287 1.506-.984 2.292-.738.834-.27-.51-1.27.079.955.246.04-.028 0 0-1.339.902 2.74-.817 1.34-.065-.097.054.7-.772-.07-.014 2.545-1.106-1.568 2.302-1.52 2.247.36-.382-.234.43 0 0 1.938-2.67-.006.014 0 0 .773-1.558-.447-.562.25-2.168 0 0-.194.287-.435.628-.304.424-.704.944-.87 1.142-1.31 1.572-2.233 3.854-3.606 5.351-.496.54-1.344.745-1.903 1.271-.524.492-1.276.814-1.958.93-1.104.184-2.276.854-3.4 1.264 0 0 .662-.786 1.145-1.408a42.02 42.02 0 0 0 2.786-4.12c-.021.013-.593.478-.966 1.277-.648 1.415-2.269 2.474-3.393 3.568-.827.806-1.992 1.278-3.117 1.517-1.896-.075-3.827-.28-5.668-.731-1.53-.383-4.324-1.265-4.882-2.31-.076-.15-.11-.752.207-1.326.551-.998 1.662-1.825 2.337-2.795 1.27-1.839 3.083-4.627 4.91-5.714 1.014-.601 2.372-.964 3.559-1.442.544-.184.806-.28 1.344-.478-1.338.294-2.627.792-3.903 1.27 0 0 .007.014.69-.888.758-.997 1.758-1.824 2.64-2.7 1.552-1.537 5.331-4.025 5.331-4.025s-2.006 1.19-3.054 1.203c-.635.007-1.256.376-1.78.704.649-.724 1.345-1.428 2.014-2.125 1.352-1.422 3.207-2.44 4.862-3.506-.821.17-1.731.088-2.552-.035 1.559-.97 3.076-2.07 4.379-3.335 3.207-3.123 4.786-7.702 7.268-11.317 1.138-1.654 2.71-3.096 4.22-4.45 0 0 1.007.15 1.16.725.372 1.428 1.006 2.85 1.496 4.271.51 1.456.565 3.11.737 4.64z" fill="#3A393A"/>
    <path d="M36.551 30.495c-.193.068.879 3.849 1.221 5.562.164.818.283 1.672.201 2.504 0 0-.097.26-.111.335a.856.856 0 0 0-.023.122v.007c-.007.04-.015.075-.022.123-.007.027-.007.048-.015.075-.007.048-.022.11-.03.164a.37.37 0 0 0-.014.088c-.045.226-.105.505-.18.84-.364 1.604-.625 3.228-.87 4.845-.008.034-.008.062-.015.096-.201 1.119-.58 1.597-1.333 2.382-.797.832-1.757 1.876-2.837 2.463-.03.02-.074.041-.119.068-1.444.901-2.784 2.041-4.296 2.792-.104.054-.141.054-.074-.014.052-.054.104-.102.156-.157.387-.382.76-.805 1.013-1.235l.022-.041c.834-1.556 1.586-3.187 2.338-4.79.037-.062.052-.096.082-.158.074-.136.126-.286.164-.45.431-2.068.893-4.47.394-6.538-.447-1.836-.476-1.386-.476-1.386-.112.888-.29 1.782-.559 2.635-.208.648-.588 1.215-.64 1.549-.142.88.246 1.781.268 1.836a3.118 3.118 0 0 1-.432-1.324c-.082-.84.47-1.747.67-2.519.328-1.248-.327-3.05-.037-3.958.752-2.395 3.7-6.094 4.9-9.41.625 1.774 1.109 3.705 1.779 5.356.06.15.082.198.022.13-.313-.662-1.147-1.993-1.147-1.993z" opacity=".1"/>
    <path d="M36.551 29.495c-.193.068.879 3.849 1.221 5.562.164.818.283 1.672.201 2.504 0 0-.097.26-.111.335a.856.856 0 0 0-.023.122v.007c-.007.04-.015.075-.022.123-.007.027-.007.048-.015.075-.007.048-.022.11-.03.164a.37.37 0 0 0-.014.088c-.045.226-.105.505-.18.84-.364 1.604-.625 3.228-.87 4.845-.008.034-.008.062-.015.096-.201 1.119-.58 1.597-1.333 2.382-.797.832-1.757 1.876-2.837 2.463-.03.02-.074.041-.119.068-1.444.901-2.784 2.041-4.296 2.792-.104.054-.141.054-.074-.014.052-.054.104-.102.156-.157.387-.382.76-.805 1.013-1.235l.022-.041c.834-1.556 1.586-3.187 2.338-4.79.037-.062.052-.096.082-.158.074-.136.126-.286.164-.45.431-2.068.893-4.47.394-6.538-.447-1.836-.476-1.386-.476-1.386-.112.888-.29 1.782-.559 2.635-.208.648-.588 1.215-.64 1.549-.142.88.246 1.781.268 1.836a3.118 3.118 0 0 1-.432-1.324c-.082-.84.47-1.747.67-2.518.328-1.25-.327-3.051-.037-3.959.752-2.395 3.7-6.094 4.9-9.41.625 1.774 1.109 3.705 1.779 5.357.06.15.082.197.022.13-.313-.663-1.147-1.994-1.147-1.994z" fill="#7CB668"/>
    <path d="M38.917 3c1.11 4.098 1.131 6.91.94 11.093-.212 4.55-1.929 9.326-3.412 13.622-1.562 4.53-4.063 8.359-6.416 12.464-2.162 3.766-5.589 6.344-8.96 9.022-2.938 2.332-6.189 4.112-9.686 5.398-1.088.396-2.303.537-3.455.573-.848.02-1.456-.029-1.484-.029 2.501-.522 5.038-1.278 7.257-2.557 6.154-3.554 11.947-7.815 15.558-14.018 2.296-3.936 4.465-7.8 5.977-12.125 1.392-3.999 2.911-8.189 3.328-12.414.318-3.229.304-5.136-.275-8.344.197-.67.282-1.01.43-1.681.085-.41.128-.608.198-1.004z" opacity=".2"/>
    <path d="M38.917 2c1.11 4.098 1.131 6.91.94 11.092-.212 4.55-1.929 9.327-3.412 13.623-1.562 4.529-4.063 8.358-6.416 12.463-2.162 3.766-5.589 6.345-8.96 9.023-2.938 2.332-6.189 4.112-9.686 5.398-1.088.396-2.303.537-3.455.572-.848.021-1.456-.028-1.484-.028 2.501-.523 5.038-1.279 7.257-2.558 6.154-3.554 11.947-7.814 15.558-14.018 2.296-3.935 4.465-7.8 5.977-12.124 1.392-4 2.911-8.189 3.328-12.414.318-3.23.304-5.136-.275-8.344.197-.671.282-1.01.43-1.682.085-.41.128-.607.198-1.003z" fill="#665C54"/>
</svg>
