<svg xmlns="http://www.w3.org/2000/svg" width="64" height="64">
    <g opacity=".2">
        <path class="cls-9" d="M60 10v29.356C53.2 41.938 41.627 48.888 38 54l-6-12.754 8.84-13.313S41.56 25.677 38 24c5.879-5.773 14.438-10.717 22-14zM4 10v29.356C10.8 41.938 22.373 48.888 26 54l6-12.754-8.84-13.313S22.44 25.677 26 24c-5.879-5.773-14.438-10.717-22-14z"/>
    </g>
    <path class="cls-1" d="M46 20.975A14 14.016 0 0 0 25.878 8.41a14.102 14.118 0 0 1 1.604-.102 13.924 13.94 0 0 1 6.453 1.593A14 14.016 0 1 0 46 23.778c0-.471 0-.943-.076-1.414-.077-.472.076-.918.076-1.39z" fill="#504945"/>
    <path d="M31.549 7.008a14 14.016 0 0 0-5.67 1.402 14.102 14.118 0 0 1 1.603-.101 13.924 13.94 0 0 1 1.309.066 14 14.016 0 0 1 17.176 12.957c.013-.119.033-.236.033-.357A14 14.016 0 0 0 31.549 7.008zM31.07 9.8A14 14.016 0 0 0 18.023 24.25a14 14.016 0 0 1 15.91-13.348 13.924 13.94 0 0 0-2.863-1.101zm14.873 12.77c-.034.262-.063.523-.02.792.043.259.059.517.067.776a14 14.016 0 0 0 .01-.362c0-.402-.01-.804-.057-1.207z" fill="#F9F5D7" opacity=".1"/>
    <circle class="cls-4" cx="32" cy="29" r="10" fill="#D79921"/>
    <path class="cls-9" d="M60 9v29.356C53.2 40.938 41.627 47.888 38 53l-6-12.754 8.84-13.313S41.56 24.677 38 23c5.879-5.773 14.438-10.717 22-14zM4 9v29.356C10.8 40.938 22.373 47.888 26 53l6-12.754-8.84-13.313S22.44 24.677 26 23C20.121 17.227 11.562 12.283 4 9z" fill="#066678"/>
    <path class="cls-9" d="M32 30.857c-6.939 0-10-4.286-10-4.286l3.754 28.069S26.69 58 31.756 58c5.067 0 6.003-3.348 6.003-3.348L42 26.572s-3.061 4.285-10 4.285z" opacity=".2"/>
    <path class="cls-9" d="M32 29.857c-6.939 0-10-4.286-10-4.286l3.754 28.069S26.69 57 31.756 57c5.067 0 6.003-3.348 6.003-3.348L42 25.572s-3.061 4.285-10 4.285z" fill="#066678"/>
    <path d="M14.426 10c-2.347-.101-4.368-.31-6.807 1.665 6.26 3.025 11.598 7.355 16.596 12.198C22.832 24.721 22 25.813 22 27c0 2.761 4.477 5 10 5s10-2.239 10-5c0-1.182-.839-2.261-2.21-3.117 4.942-4.779 10.076-9.048 16.252-12.053-2.344-1.923-4.139-1.836-6.401-1.83-6.86.018-13.126 7.056-17.473 14.793l-.184.32-.125.23-.332-.59C27.268 17.159 21.147 10.29 14.426 10z" opacity=".2"/>
    <path d="M14.426 9c-2.347-.101-4.368-.31-6.807 1.665 6.26 3.025 11.598 7.355 16.596 12.198C22.832 23.721 22 24.813 22 26c0 2.761 4.477 5 10 5s10-2.239 10-5c0-1.182-.839-2.261-2.21-3.117 4.942-4.779 10.076-9.048 16.252-12.053-2.344-1.923-4.139-1.836-6.401-1.83-6.86.018-13.126 7.056-17.473 14.793l-.184.32-.125.23-.332-.59C27.268 16.159 21.147 9.29 14.426 9z" fill="#F9F5D7"/>
    <path class="cls-14" d="M2 25.94C2 32.16 4.383 34 5.972 34c3.973 0 6.37-4.903-.794-5.253 6.303-.537 6.555-5.199 0-5.373 6.555-.497 5.297-5.374.794-5.374C4.145 17.973 2 19.72 2 25.94z" opacity=".2"/>
    <path class="cls-14" d="M2 24.94C2 31.16 4.383 33 5.972 33c3.973 0 6.37-4.903-.794-5.253 6.303-.537 6.555-5.199 0-5.373 6.555-.497 5.297-5.374.794-5.374C4.145 16.973 2 18.72 2 24.94z" fill="#D79921"/>
    <path class="cls-14" d="M62 25.94c0 6.22-2.383 8.06-3.972 8.06-3.973 0-6.37-4.903.794-5.253-6.303-.537-6.555-5.199 0-5.373-6.555-.497-5.297-5.374-.794-5.374C59.855 17.973 62 19.72 62 25.94z" opacity=".2"/>
    <path class="cls-14" d="M62 24.94c0 6.22-2.383 8.06-3.972 8.06-3.973 0-6.37-4.903.794-5.253-6.303-.537-6.555-5.199 0-5.373-6.555-.497-5.297-5.374-.794-5.374C59.855 16.973 62 18.72 62 24.94z" fill="#D79921"/>
    <path d="M5.973 17C4.145 16.973 2 18.72 2 24.94c0 .168.008.32.012.482.119-5.79 2.186-7.448 3.96-7.422 1.996 0 3.35.959 3.673 2.068C10.06 18.606 8.556 17 5.973 17zm1.853 5.79c-.682.286-1.546.5-2.648.583 2.816.075 4.367.98 4.73 2.03.351-1-.338-2.05-2.082-2.614zm-.074 5.398c-.702.268-1.55.473-2.574.56 2.868.14 4.186 1.011 4.502 2.004.29-.965-.209-1.99-1.928-2.564zM58.027 17c-2.583 0-4.088 1.606-3.672 3.068.324-1.11 1.677-2.068 3.672-2.068 1.775-.026 3.842 1.633 3.961 7.422.004-.162.012-.314.012-.483 0-6.22-2.145-7.966-3.973-7.939zm-1.853 5.79c-1.744.563-2.433 1.612-2.082 2.612.363-1.048 1.914-1.954 4.73-2.029-1.102-.084-1.966-.297-2.648-.584zm.074 5.398c-1.72.574-2.218 1.599-1.928 2.564.316-.993 1.634-1.864 4.502-2.004-1.025-.087-1.872-.292-2.574-.56z" fill="#F9F5D7" opacity=".2"/>
</svg>
