<svg xmlns="http://www.w3.org/2000/svg" width="64" height="64">
    <path d="M32 5A28 28 0 0 0 4 33a28 28 0 0 0 28 28 28 28 0 0 0 28-28A28 28 0 0 0 32 5z" opacity=".2"/>
    <path d="M32 4A28 28 0 0 0 4 32a28 28 0 0 0 28 28 28 28 0 0 0 28-28A28 28 0 0 0 32 4z" fill="#48B9C7"/>
    <path d="M47.02 31.16s3.772-5.044 1.444-9.902-13.625-1.385-22.31 4.68C19.902 30.307 16.89 38.005 17 43" fill="none" stroke="#3A393A" stroke-width="2" stroke-linecap="round"/>
    <path d="M25 45s1.43 5.818 7.771 6.07c6.342.252 9.03-10.485 8.119-21.04C40.234 22.432 37.382 15.403 33 13" fill="none" stroke="#3A393A" stroke-width="2" stroke-linecap="round"/>
    <path d="M27 19.2s-8.818-5.325-11.394.83c-2.576 6.156 5.965 17.413 16.19 20.186C38.931 42.152 46.938 39.84 49 39" fill="none" stroke="#3A393A" stroke-width="2" stroke-linecap="round"/>
    <ellipse cx="33" cy="31" rx="2.126" ry="2.126" fill="#3A393A" stroke="#3A393A" stroke-width="1.749"/>
    <path d="M32 4A28 28 0 0 0 4 32a28 28 0 0 0 .021.406A28 28 0 0 1 32 5a28 28 0 0 1 27.979 27.578A28 28 0 0 0 60 32 28 28 0 0 0 32 4z" opacity=".2" fill="#F9F5D7"/>
    <path d="M32.86 10.004a3 3 0 0 0-2.458 1.496 3 3 0 0 0 1.098 4.098 3 3 0 0 0 4.098-1.098 3 3 0 0 0-1.098-4.098 3 3 0 0 0-1.64-.398zM48.93 36a3 3 0 0 0-1.43.402 3 3 0 0 0-1.098 4.098 3 3 0 0 0 4.098 1.098 3 3 0 0 0 1.098-4.098A3 3 0 0 0 48.93 36zM17 40a3 3 0 0 0-3 3 3 3 0 0 0 3 3 3 3 0 0 0 3-3 3 3 0 0 0-3-3z" fill="#3A393A"/>
    <path d="M33 13a1 1 0 0 0-1 1 1 1 0 0 0 1 1 1 1 0 0 0 1-1 1 1 0 0 0-1-1zm16 26a1 1 0 0 0-1 1 1 1 0 0 0 1 1 1 1 0 0 0 1-1 1 1 0 0 0-1-1zm-32 4a1 1 0 0 0-1 1 1 1 0 0 0 1 1 1 1 0 0 0 1-1 1 1 0 0 0-1-1z" opacity=".2"/>
    <path d="M33 12a1 1 0 0 0-1 1 1 1 0 0 0 1 1 1 1 0 0 0 1-1 1 1 0 0 0-1-1zm16 26a1 1 0 0 0-1 1 1 1 0 0 0 1 1 1 1 0 0 0 1-1 1 1 0 0 0-1-1zm-32 4a1 1 0 0 0-1 1 1 1 0 0 0 1 1 1 1 0 0 0 1-1 1 1 0 0 0-1-1z" fill="#48B9C7"/>
</svg>
