<svg xmlns="http://www.w3.org/2000/svg" width="64" height="64">
    <g fill-rule="evenodd">
        <path d="M30.466 3s3.677 9.767 2.798 13.255c-1.115 4.423-4.037 8.105-7.629 8.842-.943.194-2.82-.621-4.207-1.503-2.23-1.298-2.799-3.817-3.406-6.197 0 0-.744 4.052-.402 7.189.343 3.137 2.067 7.733 1.958 10.142-.119 2.606-1.19 5.462-1.19 5.462s-1.693-3.042-2.766-5.073c-1.073-2.03-3.908-4.77-3.908-4.77s1.895 3.36 1.949 6.499c.054 3.14-5.428 9.779.33 18.41 5.82 8.725 14.533 7.708 14.533 7.708l2.12-.78-8.134-3.985 10.495-5.142-10.495-5.143 10.495-5.142 10.496 5.142 9.139-4.48-.254-1.45-8.885-4.354 7.737-3.789-.312-2.547-1.28-9.404s-1.471 3.13-3.101 4.23c-1.073.724-2.916.983-2.916.983s-1.447-7.717-2.97-11.733C37.94 8.201 30.466 3 30.466 3zm13.037 44.914l-10.496 5.143 9.635 4.72 3.805-1.398 4.26-4.933z" opacity=".2"/>
        <path d="M30.466 2s3.677 9.767 2.798 13.255c-1.115 4.423-4.037 8.105-7.629 8.842-.943.194-2.82-.621-4.207-1.503-2.23-1.298-2.799-3.817-3.406-6.197 0 0-.744 4.052-.402 7.189.343 3.137 2.067 7.733 1.958 10.142-.119 2.606-1.19 5.462-1.19 5.462s-1.693-3.042-2.766-5.073c-1.073-2.03-3.908-4.77-3.908-4.77s1.895 3.36 1.949 6.499c.054 3.14-5.428 9.779.33 18.41 5.82 8.725 14.533 7.708 14.533 7.708l2.12-.78-8.134-3.985 10.495-5.142-10.495-5.143 10.495-5.142 10.496 5.142 9.139-4.48-.254-1.45-8.885-4.354 7.737-3.789-.312-2.547-1.28-9.405s-1.471 3.132-3.101 4.231c-1.073.724-2.916.983-2.916.983s-1.447-7.717-2.97-11.733C37.94 7.201 30.466 2 30.466 2zm13.037 44.914l-10.496 5.143 9.635 4.72 3.805-1.398 4.26-4.933z" fill="#FD8019"/>
        <path d="M30.467 2s.224.616.486 1.371c1.24.91 7.26 5.55 9.707 12 1.523 4.015 2.97 11.733 2.97 11.733s1.844-.26 2.917-.983c1.63-1.1 3.101-4.232 3.101-4.232l1.28 9.406.197 1.603.115-.056-.312-2.547-1.28-9.406s-1.47 3.132-3.101 4.232c-1.073.724-2.916.983-2.916.983s-1.448-7.718-2.97-11.733C37.94 7.202 30.466 2 30.466 2zm2.912 12.43c-.02.3-.054.58-.115.824-1.115 4.424-4.038 8.106-7.63 8.844-.943.193-2.82-.623-4.206-1.504-2.23-1.298-2.8-3.817-3.407-6.198 0 0-.532 2.935-.482 5.743.065-2.463.482-4.743.482-4.743.608 2.38 1.178 4.9 3.407 6.198 1.386.881 3.263 1.697 4.207 1.504 3.591-.738 6.514-4.42 7.629-8.844.124-.494.15-1.123.115-1.824zM11.713 29.348s.43.786.883 1.91c.923.97 2.324 2.533 3.025 3.86a337.508 337.508 0 0 0 2.766 5.071s1.073-2.855 1.191-5.46c.01-.209-.011-.453-.027-.692-.183 2.518-1.164 5.152-1.164 5.152s-1.693-3.041-2.766-5.072c-1.073-2.03-3.908-4.77-3.908-4.77zm1.908 7.01c-.289 2.166-2.36 5.65-2.246 10.093.2-4.32 2.32-7.645 2.287-9.605-.003-.163-.029-.325-.04-.489zm30.904.77l-1.021.5 8.883 4.356.093.532.163-.08-.256-1.452-7.862-3.855zM23.533 47.415l-1.021.5 9.474 4.643 1.022-.5-9.475-4.643zm9.475 4.643l1.02.5 9.476-4.643-1.022-.5-9.474 4.643zm10.496-4.143l6.596 3.234.607-.703-6.184-3.03-1.02.5zM23.534 57.7l-1.022.5 6.968 3.412 1.166-.427-7.113-3.485z" fill="#F9F5D7" opacity=".2"/>
    </g>
</svg>
