<svg xmlns="http://www.w3.org/2000/svg" width="64" height="64" version="1">
    <path d="M6 27.8v2c0 .666.535 1.2 1.2 1.2h21.6c.666 0 1.2-.534 1.2-1.2v-2c0 .666-.534 1.2-1.2 1.2H7.2c-.666 0-1.2-.534-1.2-1.2zm28 0v2c0 .666.534 1.2 1.2 1.2h21.602c.664 0 1.198-.534 1.198-1.2v-2c0 .666-.534 1.2-1.2 1.2H35.2c-.666 0-1.2-.534-1.2-1.2zm-28 28v2c0 .666.535 1.2 1.2 1.2h21.6c.666 0 1.2-.534 1.2-1.2v-2c0 .666-.534 1.2-1.2 1.2H7.2c-.666 0-1.2-.534-1.2-1.2zm28 0v2c0 .666.534 1.2 1.2 1.2h21.602c.664 0 1.198-.534 1.198-1.2v-2c0 .666-.534 1.2-1.2 1.2H35.2c-.666 0-1.2-.534-1.2-1.2z" opacity=".2"/>
    <rect width="24" height="24" x="-30" y="-30" rx="1.2" ry="1.2" transform="matrix(0 -1 -1 0 0 0)" fill="#CB241D"/>
    <rect width="24" height="24" x="-58" y="-30" rx="1.2" ry="1.2" transform="matrix(0 -1 -1 0 0 0)" fill="#B7BB25"/>
    <rect width="24" height="24" x="-30" y="-58" rx="1.2" ry="1.2" transform="matrix(0 -1 -1 0 0 0)" fill="#CB241D"/>
    <g transform="matrix(1.99997 0 0 1.99997 0 1)" opacity=".2">
        <circle cx="23" cy="9" r="3"/>
        <circle cx="9" cy="23" r="3"/>
    </g>
    <circle cx="46" cy="18.001" r="6" fill="#F9F5D7"/>
    <rect width="24" height="24" x="-58" y="-58" rx="1.2" ry="1.2" transform="matrix(0 -1 -1 0 0 0)" fill="#CB241D"/>
    <circle cx="18.001" cy="46" r="6" fill="#F9F5D7"/>
    <path d="M7.2 6C6.533 6 6 6.535 6 7.2v1C6 7.535 6.534 7 7.2 7h21.599C29.465 7 30 7.535 30 8.2v-1c0-.665-.535-1.2-1.201-1.2h-21.6zm28 0c-.667 0-1.2.535-1.2 1.2v1c0-.665.533-1.2 1.2-1.2h21.599C57.465 7 58 7.535 58 8.2v-1c0-.665-.535-1.2-1.201-1.2h-21.6zm-28 28c-.666 0-1.2.534-1.2 1.2v1c0-.666.534-1.2 1.2-1.2h21.599c.666 0 1.201.534 1.201 1.2v-1c0-.666-.535-1.2-1.201-1.2h-21.6zm27.997 0A1.195 1.195 0 0 0 34 35.2v1c0-.666.532-1.199 1.197-1.2H56.8c.666 0 1.201.534 1.201 1.2v-1c0-.666-.535-1.2-1.201-1.2H35.197z" opacity=".2" fill="#F9F5D7"/>
</svg>
