<svg xmlns="http://www.w3.org/2000/svg" width="64" height="64" version="1">
    <path d="M4 56v2c0 1.662 1.338 3 3 3h50c1.662 0 3-1.338 3-3v-2c0 1.662-1.338 3-3 3H7c-1.662 0-3-1.338-3-3z" opacity=".2"/>
    <rect width="56" height="56" x="4" y="4" rx="3" ry="3" fill="#48B9C7"/>
    <g opacity=".2">
        <path d="M14 19v28h10V29h16v18h10V27.75c0-7.06-6.934-8.75-9.818-8.75z"/>
        <path d="M28 35v8h8v-8z"/>
    </g>
    <path d="M7 4C5.338 4 4 5.338 4 7v1c0-1.662 1.338-3 3-3h50c1.662 0 3 1.338 3 3V7c0-1.662-1.338-3-3-3H7z" opacity=".1" fill="#F9F5D7"/>
    <path d="M14 18v28h10V28h16v18h10V26.75c0-7.06-6.934-8.75-9.818-8.75z" fill="#F9F5D7"/>
    <path d="M28 34v8h8v-8z" fill="#F9F5D7"/>
</svg>
