<svg xmlns="http://www.w3.org/2000/svg" width="64" height="64" version="1">
    <path d="M52 25V8.375A2.382 2.382 0 0 0 49.6 6H6.4C5.07 6 4 7.06 4 8.375v33.25A2.382 2.382 0 0 0 6.4 44h26.4z" opacity=".2"/>
    <path d="M56 32.296V16.375A2.382 2.382 0 0 0 53.6 14H10.4C9.07 14 8 15.06 8 16.375v33.25A2.382 2.382 0 0 0 10.4 52h25.835z" opacity=".2"/>
    <path d="M60 40V24.375A2.382 2.382 0 0 0 57.6 22H14.4c-1.33 0-2.4 1.06-2.4 2.375v33.25A2.382 2.382 0 0 0 14.4 60H40z" opacity=".2"/>
    <path d="M52 24V7.375A2.382 2.382 0 0 0 49.6 5H6.4C5.07 5 4 6.06 4 7.375v33.25A2.382 2.382 0 0 0 6.4 43h26.4z" fill="#FD8019"/>
    <path d="M48 26.264V9H8v30h27.272z" opacity=".3"/>
    <path d="M56 31.296V15.375A2.382 2.382 0 0 0 53.6 13H10.4C9.07 13 8 14.06 8 15.375v33.25A2.382 2.382 0 0 0 10.4 51h25.835z" fill="#B7BB25"/>
    <path d="M52 34.264V17H12v30h27.272z" opacity=".3"/>
    <path d="M60 39V23.375A2.382 2.382 0 0 0 57.6 21H14.4c-1.33 0-2.4 1.06-2.4 2.375v33.25A2.382 2.382 0 0 0 14.4 59H40z" fill="#48B9C7"/>
    <path d="M56 42.264V25H16v30h27.272z" opacity=".3"/>
    <path d="M60 39H42.5a2.5 2.5 0 0 0-2.5 2.5V59z" fill="#48B9C7"/>
    <path d="M6.4 5C5.07 5 4 6.06 4 7.375v1A2.383 2.383 0 0 1 6.4 6h43.2C50.93 6 52 7.06 52 8.375v-1A2.383 2.383 0 0 0 49.6 5zM10.4 13C9.07 13 8 14.06 8 15.375v1A2.383 2.383 0 0 1 10.4 14h43.2c1.33 0 2.4 1.06 2.4 2.375v-1A2.383 2.383 0 0 0 53.6 13zM14.4 21c-1.33 0-2.4 1.06-2.4 2.375v1A2.383 2.383 0 0 1 14.4 22h43.2c1.33 0 2.4 1.06 2.4 2.375v-1A2.383 2.383 0 0 0 57.6 21zM42.5 39a2.5 2.5 0 0 0-2.5 2.5v1a2.5 2.5 0 0 1 2.5-2.5H59l1-1z" fill="#F9F5D7" opacity=".2"/>
</svg>
