<svg xmlns="http://www.w3.org/2000/svg" width="64" height="64">
    <path d="M32 8a3 3 0 0 0-2.598 1.498L4.574 52.502a3 3 0 0 0 .002 2.998h.002A3 3 0 0 0 7.174 57h49.652a3 3 0 0 0 2.596-1.5h.002a3 3 0 0 0 .002-2.998L34.598 9.5A3 3 0 0 0 32 8.002z" opacity=".2"/>
    <path d="M32 7a3 3 0 0 0-2.598 1.498L4.574 51.502a3 3 0 0 0 .002 2.998h.002A3 3 0 0 0 7.174 56h49.652a3 3 0 0 0 2.596-1.5h.002a3 3 0 0 0 .002-2.998L34.598 8.5A3 3 0 0 0 32 7.002z" fill="#FD8019"/>
    <path d="M32 7a3 3 0 0 0-2.598 1.498L4.574 51.502a3 3 0 0 0-.355 2.004 3 3 0 0 1 .355-1.004L29.402 9.498A3 3 0 0 1 32 8v.002A3 3 0 0 1 34.598 9.5l24.828 43.002a3 3 0 0 1 .355.99 3 3 0 0 0-.355-1.99L34.598 8.5A3 3 0 0 0 32 7.002V7z" fill="#F9F5D7" opacity=".2"/>
    <path d="M32 21l-16 9v8l23 8-7 4-9-5v-2l-7-2.5V49l16 9 16-9v-8l-23-8 7-4 9 5v2l7 2.5V30z" opacity=".2"/>
    <path d="M32 20l-16 9v8l23 8-7 4-9-5v-2l-7-2.5V48l16 9 16-9v-8l-23-8 7-4 9 5v2l7 2.5V29z" fill="#F9F5D7"/>
</svg>
