<svg xmlns="http://www.w3.org/2000/svg" width="64" height="64" version="1">
    <path d="M4 56.2v2C4 59.75 5.25 61 6.8 61h50.4c1.55 0 2.8-1.25 2.8-2.8v-2c0 1.55-1.25 2.8-2.8 2.8H6.8C5.25 59 4 57.75 4 56.2z" opacity=".2"/>
    <rect width="56" height="56" x="4" y="4" rx="2.8" ry="2.8" fill="#066678"/>
    <path d="M34.29 30.752c0 1.683.043 3.082-.77 4.573-.653 1.21-1.692 1.957-2.85 1.957-1.582 0-2.5-1.26-2.5-3.12 0-3.673 3.145-4.341 6.12-4.341v.933m4.154 10.5a.828.828 0 0 1-.97.105c-1.366-1.187-1.612-1.74-2.366-2.875-2.26 2.414-3.856 3.135-6.79 3.135-3.465 0-6.165-2.235-6.165-6.712 0-3.495 1.813-5.879 4.389-7.043 2.231-1.03 5.356-1.211 7.745-1.496v-.557c0-1.024.077-2.235-.495-3.12-.505-.794-1.466-1.12-2.312-1.12-1.572 0-2.972.842-3.312 2.587-.073.389-.341.77-.717.789l-3.995-.447c-.336-.081-.706-.365-.615-.903.923-5.057 5.298-6.587 9.21-6.587 2.006 0 4.626.557 6.204 2.144 2.005 1.957 1.813 4.567 1.813 7.409v6.711c0 2.02.797 2.903 1.553 3.995.265.385.322.856-.01 1.145-.842.74-2.336 2.096-3.158 2.86l-.015-.015M45.651 41.612c-1.12.016-2.442.274-3.442.995-.313.222-.26.53.087.486 1.125-.14 3.64-.448 4.086.14.452.585-.5 3.009-.918 4.09-.13.328.145.462.433.212 1.884-1.61 2.366-4.985 1.98-5.47-.19-.244-1.106-.469-2.226-.453zm-29.417.65c-.234.03-.337.32-.092.547C20.318 46.677 25.84 49 31.968 49c4.374 0 9.448-1.414 12.953-4.057l.003-.005c.582-.443.086-1.096-.51-.842-3.923 1.712-8.197 2.534-12.077 2.534-5.755 0-11.331-1.615-15.836-4.303a.417.417 0 0 0-.269-.065z" opacity=".2" fill-rule="evenodd"/>
    <path d="M34.29 29.748c0 1.683.043 3.082-.77 4.573-.653 1.21-1.692 1.957-2.85 1.957-1.582 0-2.5-1.26-2.5-3.12 0-3.673 3.145-4.341 6.12-4.341v.933m4.154 10.5a.828.828 0 0 1-.97.105c-1.366-1.187-1.612-1.74-2.366-2.875-2.26 2.414-3.856 3.135-6.79 3.135-3.465 0-6.165-2.235-6.165-6.711 0-3.496 1.813-5.88 4.389-7.044 2.231-1.03 5.356-1.211 7.745-1.496v-.557c0-1.024.077-2.235-.495-3.12-.505-.794-1.466-1.12-2.312-1.12-1.572 0-2.972.842-3.312 2.587-.073.39-.341.77-.717.789l-3.995-.447c-.336-.081-.706-.365-.615-.903.923-5.057 5.298-6.587 9.21-6.587 2.006 0 4.626.557 6.204 2.144 2.005 1.957 1.813 4.567 1.813 7.409v6.711c0 2.02.797 2.904 1.553 3.995.265.386.322.856-.01 1.145-.842.74-2.336 2.096-3.158 2.86l-.015-.015" fill="#F9F5D7" fill-rule="evenodd"/>
    <path d="M45.651 40.608c-1.12.017-2.442.274-3.442.995-.313.222-.26.53.087.486 1.125-.14 3.64-.448 4.086.14.452.585-.5 3.009-.918 4.09-.13.328.145.462.433.212 1.884-1.61 2.366-4.985 1.98-5.47-.19-.244-1.106-.469-2.226-.453zm-29.417.65c-.234.03-.337.32-.092.547 4.176 3.87 9.698 6.191 15.827 6.191 4.374 0 9.448-1.414 12.954-4.058l.002-.004c.582-.443.086-1.097-.51-.842-3.923 1.712-8.197 2.534-12.076 2.534-5.755 0-11.332-1.615-15.837-4.303a.417.417 0 0 0-.269-.065z" fill="#FD8019" fill-rule="evenodd"/>
    <path d="M6.8 4C5.25 4 4 5.25 4 6.8v1.003c0-1.551 1.25-2.801 2.8-2.801h50.4c1.55 0 2.8 1.25 2.8 2.8V6.802C60 5.25 58.75 4 57.2 4H6.8z" opacity=".1" fill="#F9F5D7"/>
</svg>
