<svg xmlns="http://www.w3.org/2000/svg" width="64" height="64">
    <path d="M36.992 11.005L20.996 27" fill="none" stroke="#7B6F64" stroke-width="11.997"/>
    <rect width="15.996" height="33.992" x="-25" y="23" ry="0" transform="scale(-1 1)" fill="#7B6F64"/>
    <path d="M24.995 52.995c2 0 2 2 2 2v3.999H6.999v-4c0-1.999 2-1.999 2-1.999z" fill="#928274"/>
    <path d="M28.994 54.995c2 0 2 2 2 2v3.999H3v-4c0-2 2-2 2-2z" fill="#504945"/>
    <path d="M36.992 11.005l7.999 7.998" fill="none" stroke="#7B6F64" stroke-width="7.998" stroke-linecap="square"/>
    <rect width="15.996" height="15.996" x="-44.99" y="4" ry="7.998" transform="scale(-1 1)" opacity=".2"/>
    <rect width="23.995" height="23.995" x="-28.99" y="20" ry="11.997" transform="scale(-1 1)" opacity=".2"/>
    <rect width="23.995" height="23.995" x="-28.99" y="19" ry="11.997" transform="scale(-1 1)" fill="#928274"/>
    <rect width="15.996" height="15.996" x="-25" y="23" ry="7.998" transform="scale(-1 1)" fill="#504945"/>
    <rect width="11.997" height="11.997" x="-23" y="25" ry="5.999" transform="scale(-1 1)" opacity=".1" fill="#F9F5D7"/>
    <rect width="15.996" height="15.996" x="-44.99" y="3.01" ry="7.998" transform="scale(-1 1)" fill="#928274"/>
    <path d="M48.99 33l-4-2v-7.998l4-4h7.998l2 4" fill="none" stroke="#504945" stroke-width="3.999" stroke-linecap="round"/>
    <rect width="7.998" height="7.998" x="-40.99" y="7.01" ry="3.999" transform="scale(-1 1)" fill="#504945"/>
    <path d="M16.996 19.002A11.97 11.97 0 0 0 5 31c0 .166.016.328.025.492a11.96 11.96 0 0 1 11.971-11.49A11.96 11.96 0 0 1 28.97 31.5c.01-.166.025-.331.025-.5a11.972 11.972 0 0 0-11.998-11.998zM36.992 3.006a7.98 7.98 0 0 0-7.998 7.998c0 .116.023.226.033.34a7.976 7.976 0 0 1 7.965-7.338c4.208 0 7.63 3.22 7.965 7.338.01-.114.033-.224.033-.34a7.98 7.98 0 0 0-7.998-7.998z" opacity=".2" fill="#F9F5D7"/>
    <path d="M5 54.994s-2 0-2 2V58c0-2 2-2 2-2h23.994c2 0 2 2 2 2v-1.006s0-2-2-2H5z" opacity=".1" fill="#F9F5D7"/>
</svg>
