<svg xmlns="http://www.w3.org/2000/svg" width="64" height="64">
    <path d="M32 5A28 28 0 0 0 4 33a28 28 0 0 0 28 28 28 28 0 0 0 28-28A28 28 0 0 0 32 5z" opacity=".2"/>
    <path d="M32 4A28 28 0 0 0 4 32a28 28 0 0 0 28 28 28 28 0 0 0 28-28A28 28 0 0 0 32 4z" fill="#D79921"/>
    <path d="M32.513 12.025c-.192.573-.371 1.077-.583 1.775-.7 2.313-1.366 5.156-1.359 6.766.008 1.538.675 4.268 1.37 6.487.179.569.27.79.422 1.233.205-.415.298-.64.563-1.15 1.13-2.159 2.542-4.65 4.121-6.244 1.63-1.646 4.197-3.137 6.426-4.33.284-.152.468-.232.737-.371a20 20 0 0 0-11.697-4.166zm-3.06.162a20 20 0 0 0-11.217 5.315c.267.535.496 1.01.837 1.646 1.137 2.122 2.667 4.601 3.84 5.784 1.163 1.175 3.73 2.796 5.937 4.01.337.186.57.296.876.458-.176-.511-.3-.819-.51-1.493-.73-2.326-1.491-5.086-1.502-7.33-.01-2.317.75-5.187 1.482-7.606.093-.308.165-.495.257-.784zm17.042 6.046c-.543.27-1.028.503-1.674.848-2.131 1.14-4.612 2.679-5.745 3.823-1.082 1.093-2.541 3.494-3.619 5.555-.275.527-.365.747-.572 1.167.425-.144.711-.255 1.208-.41 2.326-.73 5.086-1.491 7.33-1.502 2.317-.01 5.187.75 7.606 1.482.308.093.495.165.784.257a20 20 0 0 0-5.318-11.22zM16.191 19.79a20 20 0 0 0-4.166 11.694c.565.188 1.058.361 1.747.569 2.304.696 5.14 1.368 6.805 1.376 1.653.007 4.615-.663 7.034-1.365.259-.075.42-.134.659-.206-.282-.15-.488-.245-.793-.413-2.299-1.265-4.942-2.834-6.593-4.5-1.643-1.658-3.144-4.227-4.333-6.446-.147-.274-.225-.449-.36-.709zm27.243 10.781c-1.538.008-4.268.675-6.487 1.37-.52.163-.801.274-1.23.419.402.2.684.325 1.146.566 2.16 1.13 4.65 2.542 6.245 4.121 1.646 1.63 3.137 4.197 4.33 6.426.152.284.232.468.371.737a20 20 0 0 0 4.166-11.697c-.573-.192-1.077-.371-1.775-.583-2.313-.7-5.156-1.366-6.766-1.359zM29.263 34.54c-.305.094-.519.17-.854.268-2.52.731-5.497 1.49-7.843 1.479-2.334-.01-5.213-.768-7.623-1.496-.298-.09-.476-.16-.756-.248a20 20 0 0 0 5.315 11.222c.535-.267 1.01-.496 1.646-.837 2.122-1.137 4.601-2.667 5.784-3.84 1.175-1.163 2.796-3.73 4.01-5.937.13-.236.206-.395.32-.61zm5.36.466c.064.212.117.356.184.586.731 2.52 1.49 5.497 1.479 7.843-.01 2.334-.768 5.213-1.496 7.623-.09.298-.16.476-.248.756a20 20 0 0 0 11.225-5.318c-.27-.543-.503-1.028-.848-1.674-1.14-2.13-2.679-4.612-3.823-5.745-1.093-1.082-3.494-2.541-5.555-3.619-.38-.199-.586-.286-.918-.452zm-2.765.725c-.146.277-.245.488-.413.793-1.265 2.299-2.834 4.942-4.5 6.593-1.658 1.643-4.227 3.144-6.446 4.333-.274.147-.449.225-.709.36a20 20 0 0 0 11.694 4.166c.188-.565.361-1.058.569-1.747.696-2.304 1.368-5.14 1.376-6.805.007-1.653-.663-4.615-1.365-7.034-.075-.259-.135-.424-.206-.659z" fill="#3A393A"/>
    <circle cx="32" cy="33" r="8" opacity=".2"/>
    <circle cx="32" cy="32" r="8" fill="#F9F5D7"/>
    <path d="M32 4A28 28 0 0 0 4 32a28 28 0 0 0 .021.406A28 28 0 0 1 32 5a28 28 0 0 1 27.979 27.578A28 28 0 0 0 60 32 28 28 0 0 0 32 4z" opacity=".2" fill="#F9F5D7"/>
</svg>
