<svg xmlns="http://www.w3.org/2000/svg" width="64" height="64" version="1">
    <rect width="60" height="58" x="2" y="4" rx="2.857" ry="2.9" opacity=".2"/>
    <rect width="60" height="58" x="2" y="3" rx="2.857" ry="2.9" fill="#8F3F71"/>
    <rect width="48" height="46" x="8" y="10" rx="2.824" ry="2.875" opacity=".2"/>
    <rect width="48" height="46" x="8" y="9" rx="2.824" ry="2.875" fill="#578D57"/>
    <rect width="36" height="34" x="14" y="16" rx="2.769" ry="2.833" opacity=".2"/>
    <rect width="36" height="34" x="14" y="15" rx="2.769" ry="2.833" fill="#F15C22"/>
    <path d="M22 22c-1.108 0-2 .92-2 2.063v15.926c0 1.142.894 1.996 2 2.062h3.333L28 44h8l2.667-1.949H42c1.108 0 2-.92 2-2.062V24.063C44 22.92 43.108 22 42 22zm2 4h16v12.126h-4L33.333 40h-2.666l-3-1.875H24z" opacity=".2"/>
    <path d="M22 21c-1.108 0-2 .92-2 2.063v15.926c0 1.142.894 1.996 2 2.062h3.333L28 43h8l2.667-1.949H42c1.108 0 2-.92 2-2.062V23.063C44 21.92 43.108 21 42 21zm2 4h16v12.126h-4L33.333 39h-2.666l-3-1.875H24z" fill="#B7BB25"/>
    <path d="M4.855 3C3.273 3 2 4.292 2 5.898v1C2 5.292 3.273 4 4.855 4h54.29C60.727 4 62 5.292 62 6.898v-1C62 4.292 60.727 3 59.145 3H4.855zM10.824 9C9.26 9 8 10.282 8 11.875v1C8 11.282 9.26 10 10.824 10h42.352C54.74 10 56 11.282 56 12.875v-1C56 10.282 54.74 9 53.176 9H10.824zM16.77 15C15.235 15 14 16.262 14 17.832v1C14 17.262 15.235 16 16.77 16h30.46c1.535 0 2.77 1.262 2.77 2.832v-1C50 16.262 48.765 15 47.23 15H16.77z" opacity=".1" fill="#F9F5D7"/>
    <path d="M22 21c-1.108 0-2 .92-2 2.063v1C20 22.92 20.892 22 22 22h20c1.108 0 2 .92 2 2.063v-1C44 21.92 43.108 21 42 21H22zm2 16.125v1h3.666l3 1.875h2.668L36 38.125h4v-1h-4L33.334 39h-2.668l-3-1.875H24z" fill="#F9F5D7" opacity=".2"/>
</svg>
