<svg xmlns="http://www.w3.org/2000/svg" width="64" height="64" version="1">
    <path d="M48.93 22.622c-.4 4.808-4.482 9.164-6.47 13.828-.92 2.162-2.612 6.55-2.612 6.55H24.152s-1.692-4.388-2.612-6.55c-1.935-4.54-5.998-8.734-6.489-13.43-.02.338-.05.672-.05 1.016-.036 5.1 4.47 9.56 6.54 14.414.92 2.162 2.611 6.55 2.611 6.55h15.696s1.692-4.388 2.612-6.55c2.07-4.854 6.45-9.37 6.54-14.414 0-.478-.032-.948-.07-1.414zM24.152 45l2.618 11.398C27.074 57.806 27.934 59 29.382 59h5.236c1.448 0 2.29-1.198 2.612-2.602L39.848 45h-.462l-2.156 9.398C36.908 55.802 36.066 57 34.618 57h-5.236c-1.448 0-2.308-1.194-2.612-2.602L24.614 45h-.462z" opacity=".2"/>
    <path d="M32 6c-9.388 0-17 7.627-17 17.034-.034 5.102 4.47 9.56 6.538 14.414C22.46 39.612 24.154 44 24.154 44h15.692s1.694-4.388 2.616-6.552C44.53 32.594 48.91 28.08 49 23.034c0-9.407-7.612-17.033-17-17.033z" fill="#D79921"/>
    <path d="M39.846 44L37.23 55.4c-.322 1.404-1.166 2.6-2.614 2.6h-5.23c-1.45 0-2.312-1.192-2.616-2.6L24.154 44z" fill="#3A393A"/>
    <path d="M24.668 46l.446 2h13.772l.446-2H24.668zm.894 4l.446 2h11.984l.446-2H25.562zm.896 4l.312 1.398c.046.212.128.404.198.602h10.06c.072-.198.156-.39.202-.602L37.542 54H26.458zM32 6c-9.388 0-17 7.628-17 17.037-.001.166.017.33.025.494C15.294 14.358 22.782 7 32 7c9.15 0 16.594 7.252 16.965 16.332.015-.098.033-.195.035-.295C49 13.628 41.388 6 32 6z" opacity=".2" fill="#F9F5D7"/>
    <path d="M35 11L25 27h6v12l10-16h-6V11z" opacity=".2" fill-rule="evenodd"/>
    <path d="M35 10L25 26h6v12l10-16h-6V10z" fill="#F9F5D7" fill-rule="evenodd"/>
</svg>
