<svg xmlns="http://www.w3.org/2000/svg" width="64" height="64" version="1">
    <path d="M57.5 56.066L61 45.68V6.9C61 5.293 59.707 4 58.1 4H5.9A2.894 2.894 0 0 0 3 6.9v52.2C3 60.707 4.293 62 5.9 62h43.342l3.84-2.567c1.336-.893 3.904-1.844 4.417-3.367z" opacity=".2"/>
    <path d="M56.916 55.766L61 46.03V5.9C61 4.293 59.707 3 58.1 3H5.9A2.894 2.894 0 0 0 3 5.9v52.2C3 59.707 4.293 61 5.9 61h42.641l5.242-2.217c1.48-.626 2.512-1.535 3.133-3.017z" fill="#A04A73"/>
    <path d="M19 33c10.61 0 15.39 20 26 20" opacity=".2" fill="none" stroke="#151819" stroke-width="3"/>
    <path d="M19 32c10.61 0 15.39 20 26 20" fill="none" stroke="#448588" stroke-width="3"/>
    <path d="M19 13c10.61 0 15.39 20 26 20" opacity=".2" fill="none" stroke="#151819" stroke-width="3"/>
    <path d="M15.024 30l-.048.055L12 33l3.024 3H21v-6z" opacity=".2" fill-rule="evenodd"/>
    <path d="M15.024 29l-.048.055L12 32l3.024 3H21v-6z" fill="#8F3F71" fill-rule="evenodd"/>
    <path d="M43 50v6h6.034L52 53l-2.966-3h-.068z" opacity=".2" fill-rule="evenodd"/>
    <path d="M43 49v6h6.034L52 52l-2.966-3h-.068z" fill="#8F3F71" fill-rule="evenodd"/>
    <path d="M19 12c10.61 0 15.39 20 26 20" fill="none" stroke="#448588" stroke-width="3"/>
    <path d="M15.024 10l-.048.055L12 13l3.024 3H21v-6z" opacity=".2" fill-rule="evenodd"/>
    <path d="M15.024 9l-.048.055L12 12l3.024 3H21V9z" fill="#8F3F71" fill-rule="evenodd"/>
    <path d="M43 30v6h6.034L52 33l-2.966-3h-.068z" opacity=".2" fill-rule="evenodd"/>
    <path d="M43 29v6h6.034L52 32l-2.966-3h-.068z" fill="#8F3F71" fill-rule="evenodd"/>
    <path d="M5.898 3A2.891 2.891 0 0 0 3 5.898v1A2.891 2.891 0 0 1 5.898 4h52.204A2.891 2.891 0 0 1 61 6.898v-1A2.891 2.891 0 0 0 58.102 3H5.898z" opacity=".1" fill="#F9F5D7"/>
    <circle cx="48" cy="47" r="16" fill="#3A393A"/>
    <path d="M45.027 54.748c0-.416.06-.766.179-1.054.12-.286.284-.518.497-.694.211-.177.461-.305.748-.385a3.453 3.453 0 0 1 1.801 0c.278.08.523.208.735.385.212.176.379.408.503.694.124.288.185.638.185 1.054 0 .397-.061.738-.185 1.02a1.98 1.98 0 0 1-.503.703 1.99 1.99 0 0 1-.735.403 3.043 3.043 0 0 1-.881.126c-.327 0-.633-.042-.92-.126a1.967 1.967 0 0 1-.748-.403 1.898 1.898 0 0 1-.497-.703c-.118-.282-.178-.622-.178-1.02m.437-4.53v-.98c0-.45.046-.858.14-1.224.092-.367.233-.715.423-1.047.19-.33.435-.653.734-.967.301-.313.663-.638 1.087-.973.371-.291.684-.552.94-.782.257-.229.463-.457.623-.683.158-.224.274-.46.344-.707.07-.248.107-.535.107-.86 0-.504-.171-.92-.51-1.246-.34-.327-.86-.49-1.557-.49-.609 0-1.265.127-1.967.383-.701.257-1.428.57-2.179.94l-1.35-2.926a13.841 13.841 0 0 1 2.628-1.159c.482-.154.97-.276 1.464-.364.495-.089.98-.133 1.457-.133.9 0 1.713.109 2.436.325.725.216 1.339.531 1.842.946.504.415.89.92 1.159 1.511.27.592.404 1.267.404 2.026 0 .556-.063 1.053-.185 1.49a4.486 4.486 0 0 1-.549 1.219 6.054 6.054 0 0 1-.915 1.086 19.72 19.72 0 0 1-1.278 1.106c-.37.29-.674.545-.908.762a3.722 3.722 0 0 0-.549.615 1.81 1.81 0 0 0-.272.603 3.264 3.264 0 0 0-.073.734v.795h-3.496z" fill="#F9F5D7"/>
    <path d="M32.025 47.502A16 16 0 0 0 32 48a16 16 0 0 0 16 16 16 16 0 0 0 16-16 16 16 0 0 0-.018-.492A16 16 0 0 1 48 63a16 16 0 0 1-15.975-15.498z" opacity=".2"/>
</svg>
