<svg xmlns="http://www.w3.org/2000/svg" width="64" height="64">
    <path d="M57.954 39.8A14 14 0 0 1 44 53a14 14 0 0 1-13.953-12.918A14 14 0 0 0 30 41a14 14 0 0 0 14 14 14 14 0 0 0 14-14 14 14 0 0 0-.047-1.082z" opacity=".2"/>
    <path d="M33.954 45.8A14 14 0 0 1 20 59 14 14 0 0 1 6.047 46 14 14 0 0 0 6 47a14 14 0 0 0 14 14 14 14 0 0 0 14-14 14 14 0 0 0-.047-1.082z" opacity=".2"/>
    <path d="M43 39s-5.528-8.945-6-14c-.572-6.12 4-18 4-18" fill="none" stroke="#578D57" stroke-width="6" stroke-linecap="round" stroke-linejoin="round"/>
    <path d="M43.86 6.8a3 3 0 0 1-1.266 1.558s-3.016 1.892-6.457 4.528c-3.44 2.635-7.267 6.188-8.527 8.41-1.35 2.38-2.485 7.76-3.008 12.297-.524 4.6-.602 8.4-.602 8.4a3 3 0 0 1-5.941.52c-.018.4-.059 1.2-.059 1.2a3 3 0 1 0 6 .121s.079-3.748.602-8.285c.522-4.536 1.657-9.916 3.007-12.297 1.26-2.221 5.087-5.774 8.528-8.41 3.44-2.636 6.457-4.527 6.457-4.527a3 3 0 0 0 1.265-3.562z" opacity=".2" fill-rule="evenodd"/>
    <path d="M21 43s.323-15.517 4-22c3.496-6.164 16-14 16-14" fill="none" stroke="#578D57" stroke-width="6" stroke-linecap="round" stroke-linejoin="round"/>
    <path d="M41.025 3.95l-.002.05a3 3 0 0 0-1.617.48s-3.232 2.025-6.918 4.848c-3.685 2.823-7.861 6.272-10.097 10.215-2.327 4.102-3.192 9.724-3.75 14.566-.558 4.8-.639 8.801-.639 8.801a3 3 0 0 0 .025.408c.021-.77.12-3.955.614-8.209.558-4.842 1.423-10.464 3.75-14.566 2.236-3.943 6.412-7.392 10.097-10.215 3.686-2.823 6.918-4.848 6.918-4.848A3 3 0 0 1 41.023 5l.002-.05a3 3 0 0 1 2.965 2.495 3 3 0 0 0-2.965-3.496z" opacity=".1" fill="#F9F5D7" fill-rule="evenodd"/>
    <circle cx="44" cy="40" r="14" fill="#CB241D"/>
    <path d="M44 26a14 14 0 0 0-14 14 14 14 0 0 0 .02.451A14 14 0 0 1 44 27a14 14 0 0 1 13.975 13.496A14 14 0 0 0 58 40a14 14 0 0 0-14-14z" opacity=".2" fill="#F9F5D7"/>
    <circle cx="20" cy="46" r="14" fill="#FA4934"/>
    <path d="M20 32A14 14 0 0 0 6 46a14 14 0 0 0 .02.451A14 14 0 0 1 20 33a14 14 0 0 1 13.975 13.496A14 14 0 0 0 34 46a14 14 0 0 0-14-14z" opacity=".2" fill="#F9F5D7"/>
</svg>
