<svg xmlns="http://www.w3.org/2000/svg" width="64" height="64">
    <path d="M32 4l-2.667 3.2L26 6l-1.583 3.042c-6.142 1.264-10.482 4.232-14.078 8.924C4.048 26.173 4 40.333 4 48.333S18.667 59 32 59s28-2.667 28-10.667-.048-22.16-6.339-30.367c-3.596-4.692-7.936-7.66-14.078-8.924L38 6l-3.333 1.2z" opacity=".2"/>
    <path d="M32 3l-2.667 3.2L26 5l-1.583 3.042c-6.142 1.264-10.482 4.232-14.078 8.924C4.048 25.173 4 39.333 4 47.333S18.667 58 32 58s28-2.667 28-10.667-.048-22.16-6.339-30.367c-3.596-4.692-7.936-7.66-14.078-8.924L38 5l-3.333 1.2z" fill="#B7BB25"/>
    <path d="M25.389 46.177A7.647 7.647 0 0 0 32 50a7.638 7.638 0 0 0 6.611-3.823H32z" fill="#7F7061"/>
    <path d="M32 38a1.13 1.13 0 0 0-.819.357l-6.805 6.373c-.728.77-.345 3.047.685 3.048L32 49l6.939-1.222c1.03 0 1.413-2.278.685-3.048l-6.805-6.373A1.128 1.128 0 0 0 32 38z" opacity=".2"/>
    <path d="M32 37a1.13 1.13 0 0 0-.819.357l-6.805 6.373c-.728.77-.345 3.047.685 3.048L32 48l6.939-1.222c1.03 0 1.413-2.278.685-3.048l-6.805-6.373A1.128 1.128 0 0 0 32 37z" fill="#F9BD2E"/>
    <path d="M32 3l-2.666 3.2L26 5l-1.584 3.041c-6.142 1.264-10.482 4.234-14.078 8.926C4.048 25.174 4 39.334 4 47.334c0 .023.004.044.004.066.01-8.123.268-21.52 6.334-29.433 3.596-4.692 7.936-7.662 14.078-8.926L26 6l3.334 1.2L32 4l2.666 3.2L38 6l1.584 3.041c6.142 1.264 10.482 4.233 14.078 8.926 6.066 7.914 6.323 21.31 6.334 29.433 0-.022.004-.043.004-.066 0-8-.047-22.16-6.338-30.367-3.596-4.693-7.936-7.662-14.078-8.926L38 5l-3.334 1.2L32 3z" opacity=".2" fill="#F9F5D7"/>
    <path d="M32 37c-.306 0-.601.128-.818.357l-6.805 6.373c-.35.37-.44 1.087-.328 1.733.055-.292.16-.555.328-.733l6.805-6.373c.217-.229.512-.357.818-.357.306 0 .601.128.818.357l6.805 6.373c.168.178.273.44.328.733.112-.646.022-1.363-.328-1.733l-6.805-6.373A1.127 1.127 0 0 0 32 37z" opacity=".2" fill="#F9F5D7"/>
    <circle cx="46" cy="33" r="6" opacity=".2"/>
    <circle cx="46" cy="32" r="6" fill="#F9F5D7"/>
    <path d="M18 30a6 6 0 0 0-6 6 6 6 0 0 0 .197 1.506A6 6 0 0 1 18 33a6 6 0 0 1 5.803 4.494A6 6 0 0 0 24 36a6 6 0 0 0-6-6z" opacity=".2"/>
    <path d="M18 29a6 6 0 0 0-6 6 6 6 0 0 0 .197 1.506A6 6 0 0 1 18 32a6 6 0 0 1 5.803 4.494A6 6 0 0 0 24 35a6 6 0 0 0-6-6z" fill="#F9F5D7"/>
    <circle cx="46" cy="32" r="4" fill="#3A393A"/>
</svg>
