<svg xmlns="http://www.w3.org/2000/svg" width="64" height="64" version="1">
    <path d="M17.453 5.006c-5.246.233-11.186 6.695-12.942 15.7-.418 2.256-.5 4.066-.511 6.104.005.185.005.369.014.555.708 18.301 15.609 33.083 33.958 33.615.094.004.186.005.28.008 1.202.047 2.57-.06 3.669-.134 13.824-1.35 22.843-12.55 15.402-18.732-4.211-3.5-11.974-6.007-20.097-14.06-8.57-8.496-11.007-16.545-14.597-20.698-1.48-1.712-3.282-2.441-5.176-2.358z" opacity=".2"/>
    <path d="M17.453 4.006c-5.246.233-11.186 6.695-12.942 15.7-.418 2.256-.5 4.066-.511 6.104.005.185.005.369.014.555.708 18.301 15.609 33.084 33.958 33.615.094.004.186.005.28.008 1.202.048 2.57-.06 3.669-.134 13.824-1.35 22.843-12.55 15.402-18.732-4.211-3.5-11.974-6.007-20.097-14.06-8.57-8.496-11.007-16.545-14.597-20.698-1.48-1.712-3.282-2.441-5.176-2.358z" fill="#FD8019"/>
    <path d="M18.89 4.107C13.069 10.104 10.005 17.146 10 25c0 16.237 13.912 28.784 29 29 7.56-.01 14.076-2.736 20.871-8.83-.291-1.465-1.106-2.852-2.547-4.049-4.211-3.5-11.974-6.006-20.097-14.059-8.57-8.496-11.008-16.546-14.598-20.699-1.1-1.272-2.377-2-3.738-2.256z" fill="#FECE4F"/>
    <path d="M18.723 5.307A29 29 0 0 0 10 26a29 29 0 0 0 29 29 29 29 0 0 0 20.734-8.732 55.752 55.752 0 0 1-3.447-.89A26 26 0 0 1 39 52a26 26 0 0 1-26-26 26 26 0 0 1 6.652-17.328 55.752 55.752 0 0 1-.93-3.365z" opacity=".2"/>
    <path d="M18.723 4.307A29 29 0 0 0 10 25a29 29 0 0 0 29 29 29 29 0 0 0 20.734-8.732 55.752 55.752 0 0 1-3.447-.89A26 26 0 0 1 39 51a26 26 0 0 1-26-26 26 26 0 0 1 6.652-17.328 55.752 55.752 0 0 1-.93-3.365z" fill="#F9F5D7"/>
    <path d="M17.453 4.006c-5.247.232-11.185 6.694-12.941 15.7-.418 2.256-.5 4.066-.512 6.105l.01.408c.025-1.802.125-3.48.502-5.514 1.756-9.005 7.694-15.467 12.941-15.7 1.894-.083 3.696.646 5.176 2.358 3.59 4.153 6.029 12.203 14.598 20.7C45.35 36.114 53.113 38.62 57.324 42.12c1.68 1.396 2.513 3.05 2.649 4.787.152-2.098-.649-4.125-2.649-5.787-4.211-3.5-11.974-6.006-20.097-14.059-8.57-8.496-11.008-16.546-14.598-20.699-1.48-1.712-3.282-2.44-5.176-2.357z" fill="#F9F5D7" opacity=".2"/>
</svg>
