<svg xmlns="http://www.w3.org/2000/svg" width="64" height="64" version="1">
    <rect width="56" height="56" x="4" y="5" rx="2.8" ry="2.8" opacity=".2"/>
    <rect width="56" height="56" x="4" y="4" rx="2.8" ry="2.8" fill="#48B9C7"/>
    <path d="M6.8 4C5.25 4 4 5.25 4 6.8v1C4 6.25 5.25 5 6.8 5h50.4C58.75 5 60 6.25 60 7.8v-1C60 5.25 58.75 4 57.2 4H6.8z" opacity=".2" fill="#F9F5D7"/>
    <path d="M18 37l14 16 14-16-8 .002V31c0 2-2 2-2 2s-2 0-2-2-2-2-2-2-2 0-2 2-2 2-2 2-2 0-2-2.002V37z" opacity=".2"/>
    <path d="M18 36l14 16 14-16-8 .002V30c0 2-2 2-2 2s-2 0-2-2-2-2-2-2-2 0-2 2-2 2-2 2-2 0-2-2.002V36z" fill="#F9F5D7"/>
    <path d="M32 12s-2 0-2 2-2 2-2 2-2 .002-2-2v28h12V14c0 2-2 2-2 2s-2 0-2-2-2-2-2-2z" opacity=".2" fill="#F9F5D7"/>
    <path d="M28 20s-2-.002-2 2v12h12V22c0-2-2-2-2-2s-2 0-2 2-2 2-2 2-2 0-2-2-2-2-2-2z" opacity=".5" fill="#F9F5D7"/>
</svg>
