<svg xmlns="http://www.w3.org/2000/svg" width="64" height="64" version="1">
    <rect width="56" height="56" x="4" y="5" rx="16.8" ry="16.8" opacity=".2"/>
    <rect width="56" height="56" x="4" y="4" rx="16.8" ry="16.8" fill="#F9F5D7"/>
    <path d="M32 13c-11.046 0-20 8.954-20 20s8.954 20 20 20 20-8.954 20-20-8.954-20-20-20zm-1.871 3.988c.218-.022.491.013.71 0 .027.104-.153.478-.401 1.02-1.58 3.452-1.674 7.495-.208 9.656.266.392.508.764.508.813 0 .048-.285.101-.61.101-.759 0-1.48-.462-2.948-1.625-.653-.517-1.5-.95-1.828-1.016-.517-.103-.653-.058-1.32.61-.622.621-.813.959-.813 1.527 0 2.157 2.561 3.867 7.32 4.875 6.463 1.37 8.052 2.598 8.23 5.996.224 4.262-2.042 7.474-7.011 9.961-.593.297-.97.416-1.219.512-.11-.01-.199.01-.309 0-.042-.132-.101-.437-.101-1.016 0-2.263-.89-4.595-2.234-5.898-.361-.35-1.37-1.09-2.235-1.625-.865-.536-1.739-1.157-1.933-1.422-.323-.44-.346-.71-.098-1.523.451-1.487.987-2.32 2.031-3.258.548-.493 1.098-.9 1.219-.91.121-.01-.698-.26-1.93-.512a34.751 34.751 0 0 1-3.969-1.117c-1.703-.617-4.002-1.912-4.878-2.848-.037-.04-.07-.066-.102-.102 1.256-5.003 4.78-9.102 9.453-11.078.978-.413 1.987-.696 3.05-.914.53-.108 1.079-.151 1.626-.207zm15.25 7.625c.382.236 1.826 3.36 2.238 4.883.532 1.965.493 5.364 0 7.317-.188.743-.432 1.436-.512 1.523-.08.086-.373-.407-.714-1.012-.342-.605-1.426-1.891-2.332-2.847-2.616-2.76-3.03-4.2-1.934-6.403.553-1.11 2.958-3.643 3.254-3.46z" opacity=".1"/>
    <path d="M32 12c-11.046 0-20 8.954-20 20s8.954 20 20 20 20-8.954 20-20-8.954-20-20-20zm-1.871 3.988c.218-.022.491.013.71 0 .027.104-.153.478-.401 1.02-1.58 3.452-1.674 7.495-.208 9.656.266.392.508.764.508.813 0 .048-.285.101-.61.101-.759 0-1.48-.462-2.948-1.625-.653-.517-1.5-.95-1.828-1.016-.517-.103-.653-.058-1.32.61-.622.621-.813.959-.813 1.527 0 2.157 2.561 3.867 7.32 4.875 6.463 1.37 8.052 2.598 8.23 5.996.224 4.262-2.042 7.474-7.011 9.961-.593.297-.97.416-1.219.512-.11-.01-.199.01-.309 0-.042-.132-.101-.437-.101-1.016 0-2.263-.89-4.595-2.234-5.898-.361-.35-1.37-1.09-2.235-1.625-.865-.536-1.739-1.157-1.933-1.422-.323-.44-.346-.71-.098-1.523.451-1.487.987-2.32 2.031-3.258.548-.493 1.098-.9 1.219-.91.121-.01-.698-.26-1.93-.512a34.751 34.751 0 0 1-3.969-1.117c-1.703-.617-4.002-1.912-4.878-2.848-.037-.04-.07-.066-.102-.102 1.256-5.003 4.78-9.102 9.453-11.078.978-.413 1.987-.696 3.05-.914.53-.108 1.079-.151 1.626-.207zm15.25 7.625c.382.236 1.826 3.36 2.238 4.883.532 1.965.493 5.364 0 7.317-.188.743-.432 1.436-.512 1.523-.08.086-.373-.407-.714-1.012-.342-.605-1.426-1.891-2.332-2.847-2.616-2.76-3.03-4.2-1.934-6.403.553-1.11 2.958-3.643 3.254-3.46z" fill="#7B6F64"/>
    <path d="M20.8 4C11.495 4 4 11.494 4 20.8v1C4 12.495 11.494 5 20.8 5h22.4C52.505 5 60 12.494 60 21.8v-1C60 11.495 52.506 4 43.2 4H20.8z" opacity=".2" fill="#F9F5D7"/>
    <circle cx="48" cy="48" r="16" opacity=".2"/>
    <circle cx="48" cy="47" r="16" fill="#F15C22"/>
    <path d="M47.5 37a1.5 1.5 0 0 0-1.5 1.5V49h10.5a1.5 1.5 0 0 0 1.5-1.5 1.5 1.5 0 0 0-1.5-1.5H49v-7.5a1.5 1.5 0 0 0-1.5-1.5z" fill="#F9F5D7"/>
</svg>
