<svg xmlns="http://www.w3.org/2000/svg" width="64" height="64">
    <path d="M43.438 5.02a9.1 9.1 0 0 0-1.766.293 9.024 9.024 0 0 0-5.527 4.253c-1.829 3.186-1.516 7.034.48 9.852l-1.875 3.266-.004.007-9.492 16.532c-.828 1.442-10.571 17.9-3.895 21.777l7.508-13.078 12.328-21.48h.004l.004-.012 1.86-3.235a9.101 9.101 0 0 0 3.29-.266 9.025 9.025 0 0 0 5.526-4.253c2.497-4.35 1.004-9.936-3.324-12.45a8.984 8.984 0 0 0-5.117-1.206z" opacity=".2"/>
    <path d="M48.556 5.228a8.986 8.986 0 0 0-6.885-.916 9.023 9.023 0 0 0-5.525 4.256c-1.829 3.185-1.517 7.03.479 9.85l-1.88 3.275 6.453 3.747 1.864-3.247a8.944 8.944 0 0 0 3.29-.262 9.025 9.025 0 0 0 5.526-4.256c2.496-4.35 1.007-9.933-3.322-12.447z" fill="#97971A"/>
    <path d="M28.867 46.921l12.336-21.49-6.453-3.747-9.494 16.539c-.828 1.443-10.573 17.9-3.897 21.777z" fill="#A79984"/>
    <path d="M20.649 5.02a8.987 8.987 0 0 0-5.118 1.207c-4.328 2.513-5.817 8.099-3.32 12.449a9.017 9.017 0 0 0 5.523 4.254c.78.208 1.57.312 2.356.312.313 0 .627-.018.937-.05l1.86 3.238.008.011 12.328 21.481L42.73 61c6.676-3.877-3.07-20.335-3.899-21.777L29.344 22.69l-.004-.007-1.875-3.266c1.996-2.818 2.305-6.666.476-9.852a9.017 9.017 0 0 0-5.523-4.254 9.146 9.146 0 0 0-1.77-.292z" opacity=".2"/>
    <path d="M29.344 21.693l-1.88-3.276c1.996-2.818 2.307-6.664.479-9.849a9.024 9.024 0 0 0-5.525-4.256 8.99 8.99 0 0 0-6.886.916c-4.328 2.514-5.818 8.097-3.321 12.447a9.024 9.024 0 0 0 5.525 4.256 9.094 9.094 0 0 0 3.29.262l1.865 3.247z" fill="#B7BB25"/>
    <path d="M19.994 10c-.691 0-1.373.181-1.988.535a3.999 3.999 0 1 0 5.455 1.46 3.972 3.972 0 0 0-2.434-1.86A4.022 4.022 0 0 0 19.994 10zm24 0c-.691 0-1.373.181-1.988.535a3.999 3.999 0 1 0 5.455 1.46 3.972 3.972 0 0 0-2.434-1.86A4.022 4.022 0 0 0 43.994 10z" opacity=".2"/>
    <path d="M18.973 16.865a4 4 0 1 1 3.021-.399 3.978 3.978 0 0 1-3.02.399z" fill="#F9F5D7"/>
    <path d="M35.221 46.921l-12.336-21.49 6.453-3.747 9.495 16.54c.828 1.442 10.573 17.9 3.896 21.776z" fill="#F9F5D7"/>
    <ellipse cx="32" cy="33" rx="3" ry="3" fill="#7B6F64"/>
    <path opacity=".3" d="M32.953 31.5l-.953.955-.953-.955-.547.542.955.958-.955.957.547.543.953-.954.953.954.547-.543-.955-.957.955-.958z"/>
    <path d="M42.973 16.865a4 4 0 1 1 3.021-.399 3.978 3.978 0 0 1-3.02.399z" fill="#F9F5D7"/>
    <path d="M43.438 4.02a9.1 9.1 0 0 0-1.766.293 9.024 9.024 0 0 0-5.527 4.253 9.025 9.025 0 0 0-1.174 4.995 8.972 8.972 0 0 1 1.174-3.995 9.024 9.024 0 0 1 5.527-4.254 8.984 8.984 0 0 1 6.883.914c2.731 1.587 4.313 4.4 4.494 7.35.158-3.303-1.455-6.584-4.494-8.35a8.984 8.984 0 0 0-5.117-1.206zm-7.403 15.425l-1.289 2.246.43.25.86-1.496c.088.167.196.324.294.487l.295-.514a9.105 9.105 0 0 1-.59-.973z" opacity=".1" fill="#F9F5D7"/>
    <path d="M20.648 4.02a8.987 8.987 0 0 0-5.117 1.207c-3.042 1.766-4.657 5.052-4.496 8.357.18-2.953 1.762-5.77 4.496-7.357a8.987 8.987 0 0 1 6.887-.915 9.017 9.017 0 0 1 5.523 4.254 8.963 8.963 0 0 1 1.172 3.995 9.021 9.021 0 0 0-1.172-4.995 9.017 9.017 0 0 0-5.523-4.254 9.146 9.146 0 0 0-1.77-.292zm7.407 15.425c-.179.334-.37.662-.59.973l.295.514c.097-.163.205-.32.295-.487l.86 1.496.429-.25-1.29-2.246z" opacity=".2" fill="#F9F5D7"/>
</svg>
