<svg xmlns="http://www.w3.org/2000/svg" width="64" height="64" version="1">
    <rect width="56" height="56" x="4" y="5" rx="28" ry="28" opacity=".2"/>
    <rect width="56" height="56" x="4" y="4" rx="28" ry="28" fill="#8F3F71"/>
    <path d="M32 15a18 18 0 0 0-18 18 18 18 0 0 0 18 18 18 18 0 0 0 18-18 18 18 0 0 0-2.797-9.594c-.012-.082-.018-.096-.031-.187-.082-.549-.1-1.03-.086-2.223.01-.838.024-1.783.027-2.101.006-.515-.013-.613-.156-.887a2.06 2.06 0 0 0-.402-.524 1.194 1.194 0 0 0-.637-.382c-.725-.194-1.518-.034-2.172.03-1.021.098-2.08.184-2.879.227A18 18 0 0 0 32 15zm0 6a12 12 0 0 1 12 12 12 12 0 0 1-12 12 12 12 0 0 1-12-12 12 12 0 0 1 12-12z" opacity=".2"/>
    <path d="M32 14a18 18 0 0 0-18 18 18 18 0 0 0 18 18 18 18 0 0 0 18-18 18 18 0 0 0-18-18zm0 6a12 12 0 0 1 12 12 12 12 0 0 1-12 12 12 12 0 0 1-12-12 12 12 0 0 1 12-12z" fill="#F9F5D7"/>
    <path d="M37.14 15.438c2.389.946 3.357 4.714 5.271 6.499 2.605 2.428 5.855 3.175 6.561 6.6-.068-.362-.14-.772-.184-.954-.196-.831-.694-2.28-1.014-2.95-.306-.641-.38-.93-.6-2.413-.082-.549-.1-1.03-.087-2.223l.024-2.104c.006-.515-.01-.612-.154-.887a2.04 2.04 0 0 0-.4-.52 1.2 1.2 0 0 0-.639-.384c-.724-.193-1.518-.033-2.172.032-1.07.101-2.21.196-3.017.237h-1.176l-.514-.25c-.547-.264-1.36-.485-1.899-.683zM49.002 28.68c.08.426.145.856.194 1.287-.024-.276-.054-.52-.119-.892-.024-.142-.047-.244-.075-.395z" fill="#F9F5D7"/>
    <path d="M32 4C16.488 4 4 16.488 4 32c0 .113.011.224.018.336C4.369 17.134 16.71 5 32 5c15.29 0 27.63 12.134 27.982 27.336.007-.112.018-.223.018-.336C60 16.488 47.512 4 32 4z" opacity=".1" fill="#F9F5D7"/>
</svg>
