<svg xmlns="http://www.w3.org/2000/svg" width="64" height="64" version="1">
    <rect width="56" height="56" x="4" y="5" rx="2.8" ry="2.8" opacity=".2"/>
    <rect width="56" height="56" x="4" y="4" rx="2.8" ry="2.8" fill="#7F7061"/>
    <path d="M32 23v8M38 39l4.846 7.1M26 39l-4.846 7.1M13.8 46s1.259-12.756 4.1-18.339C19.845 23.838 26.4 18 26.4 18M50.2 46s-1.259-12.756-4.1-18.339C44.155 23.838 37.6 18 37.6 18" opacity=".6" fill="none" stroke="#F9F5D7" stroke-width="2"/>
    <path d="M32 9c-4.406 0-8 3.594-8 8 0 4.406 3.594 8 8 8 4.406 0 8-3.594 8-8 0-4.406-3.594-8-8-8z" opacity=".2"/>
    <path d="M32 8c-4.406 0-8 3.594-8 8 0 4.406 3.594 8 8 8 4.406 0 8-3.594 8-8 0-4.406-3.594-8-8-8z" fill="#F9F5D7"/>
    <path d="M23.14 30A1.14 1.125 0 0 0 22 31.125v8.75A1.14 1.125 0 0 0 23.14 41h17.72A1.14 1.125 0 0 0 42 39.875v-8.75A1.14 1.125 0 0 0 40.86 30z" opacity=".2"/>
    <path d="M23.14 29A1.14 1.125 0 0 0 22 30.125v8.75A1.14 1.125 0 0 0 23.14 40h17.72A1.14 1.125 0 0 0 42 38.875v-8.75A1.14 1.125 0 0 0 40.86 29z" fill="#F9F5D7"/>
    <path d="M9.14 46A1.14 1.125 0 0 0 8 47.125v8.75A1.14 1.125 0 0 0 9.14 57h17.72A1.14 1.125 0 0 0 28 55.875v-8.75A1.14 1.125 0 0 0 26.86 46z" opacity=".2"/>
    <path d="M9.14 45A1.14 1.125 0 0 0 8 46.125v8.75A1.14 1.125 0 0 0 9.14 56h17.72A1.14 1.125 0 0 0 28 54.875v-8.75A1.14 1.125 0 0 0 26.86 45z" fill="#F9F5D7"/>
    <path d="M37.14 46A1.14 1.125 0 0 0 36 47.125v8.75A1.14 1.125 0 0 0 37.14 57h17.72A1.14 1.125 0 0 0 56 55.875v-8.75A1.14 1.125 0 0 0 54.86 46z" opacity=".2"/>
    <path d="M37.14 45A1.14 1.125 0 0 0 36 46.125v8.75A1.14 1.125 0 0 0 37.14 56h17.72A1.14 1.125 0 0 0 56 54.875v-8.75A1.14 1.125 0 0 0 54.86 45z" fill="#F9F5D7"/>
    <path d="M6.8 4C5.25 4 4 5.25 4 6.8v1C4 6.25 5.25 5 6.8 5h50.4C58.75 5 60 6.25 60 7.8v-1C60 5.25 58.75 4 57.2 4H6.8z" fill="#F9F5D7" opacity=".1"/>
</svg>
