<svg xmlns="http://www.w3.org/2000/svg" width="64" height="64" version="1">
    <path d="M5 44v12.8C5 59.127 6.866 61 9.184 61h44.632c2.318 0 3.681-1.929 4.184-4.2V44z" opacity=".2"/>
    <path d="M9.184 4A4.183 4.183 0 0 0 5 8.2v35.14h53V8.2C58 5.873 56.134 4 53.816 4z" fill="#F9BD2E"/>
    <path d="M5 43v12.8C5 58.127 6.866 60 9.184 60h44.632c2.318 0 3.681-1.929 4.184-4.2V43z" fill="#F9F5D7"/>
    <rect width="18" height="3" x="8" y="53" rx="1.5" ry="1.5" opacity=".6" fill="#504945"/>
    <rect width="36" height="3" x="8" y="47" rx="1.5" ry="1.5" fill="#504945"/>
    <path d="M9.184 4A4.182 4.182 0 0 0 5 8.2v1C5 6.871 6.866 5 9.184 5h44.632A4.182 4.182 0 0 1 58 9.2v-1C58 5.871 56.134 4 53.816 4H9.184zM5 43v1h53v-1H5z" fill="#F9F5D7" opacity=".2"/>
    <path d="M5 42v1h53v-1H5z" opacity=".1"/>
</svg>
