<svg xmlns="http://www.w3.org/2000/svg" width="64" height="64">
    <path style="isolation:isolate" d="M3 42.5C3 33.393 15.994 26 32 26s29 7.393 29 16.5S48.006 59 32 59 3 51.607 3 42.5z" vector-effect="non-scaling-stroke" opacity=".2"/>
    <path style="isolation:isolate" d="M3 41.5C3 32.393 15.994 25 32 25s29 7.393 29 16.5S48.006 58 32 58 3 50.607 3 41.5z" vector-effect="non-scaling-stroke" fill="#7CB668"/>
    <path style="isolation:isolate" d="M58 39.644C58 48.119 46.35 55 32 55S6 48.12 6 39.644V23h52v16.644z" opacity=".2"/>
    <path style="isolation:isolate" d="M58.11 38.473c0 8.401-11.7 15.222-26.11 15.222S5.89 46.875 5.89 38.473V22.33h52.22v16.144z" fill="none"/>
    <path style="isolation:isolate" d="M58 38.644C58 47.119 46.35 54 32 54S6 47.12 6 38.644V22h52v16.644z" fill="#F9F5D7"/>
    <path style="isolation:isolate" d="M6 23C6 14.721 17.65 8 32 8s26 6.721 26 15-11.65 15-26 15S6 31.279 6 23z" vector-effect="non-scaling-stroke" opacity=".1"/>
    <path style="isolation:isolate" d="M6 22C6 13.721 17.65 7 32 7s26 6.721 26 15-11.65 15-26 15S6 30.279 6 22z" vector-effect="non-scaling-stroke" fill="#F9F5D7"/>
    <path style="isolation:isolate" fill="#7CB668" d="M17 16.998h30v6H17z"/>
    <path style="isolation:isolate" d="M17 23.219c0-3.743 6.721-6.78 15-6.78s15 3.037 15 6.78C47 26.962 40.279 30 32 30s-15-3.038-15-6.781z" vector-effect="non-scaling-stroke" fill="#7CB668"/>
    <path style="isolation:isolate" d="M17 18c0-3.311 6.721-6 15-6s15 2.689 15 6c0 3.312-6.721 6-15 6s-15-2.688-15-6z" vector-effect="non-scaling-stroke" opacity=".2"/>
    <path style="isolation:isolate" d="M17 17c0-3.311 6.721-6 15-6s15 2.689 15 6c0 3.312-6.721 6-15 6s-15-2.688-15-6z" vector-effect="non-scaling-stroke" fill="#7CB668"/>
    <path style="isolation:isolate" d="M17.25 18.046a2.748 2.748 0 0 1-.063-.581c0-3.474 6.636-6.295 14.81-6.295 8.173 0 14.81 2.821 14.81 6.295 0 .443-.108.876-.314 1.293" vector-effect="non-scaling-stroke" fill="none"/>
    <path style="isolation:isolate" d="M32 7C17.65 7 6 13.721 6 22c0 .168.012.334.021.5C6.481 14.453 17.941 8 32 8c14.06 0 25.52 6.453 25.979 14.5.009-.166.021-.332.021-.5 0-8.279-11.65-15-26-15z" fill="#F9F5D7" opacity=".2"/>
</svg>
