<svg xmlns="http://www.w3.org/2000/svg" width="64" height="64">
    <circle cx="32" cy="33" r="28" opacity=".2"/>
    <circle cx="32" cy="32" r="28" fill="#A79984"/>
    <path d="M32 10A23 23 0 0 0 9 33a23 23 0 0 0 23 23 23 23 0 0 0 16.488-7H37.5l-8-16 8-16h11.021A23 23 0 0 0 32 10zm11 16l-5 3.5-5 3.5 5 3.5 5 3.5v-7zm0 7l5 3.5 5 3.5V26l-5 3.5z" opacity=".1"/>
    <path d="M33 32l5-3.5 5-3.5v14l-5-3.5z" fill="#3A393A"/>
    <path d="M32 9A23 23 0 0 0 9 32a23 23 0 0 0 23 23 23 23 0 0 0 16.488-7H37.5l-8-16 8-16h11.021A23 23 0 0 0 32 9z" fill="#3A393A"/>
    <path d="M43 32l5-3.5 5-3.5v14l-5-3.5z" fill="#3A393A"/>
    <path d="M20.684 17a2.78 2.78 0 0 0-2.457 1.49L4.328 44.88c-.983 1.868.36 4.12 2.457 4.121h22.43c2.095 0 3.437-2.248 2.46-4.116L25.258 33l5.447-11.873c.988-1.87-.354-4.127-2.454-4.127z" opacity=".2"/>
    <path d="M20.684 16a2.78 2.78 0 0 0-2.457 1.49L4.328 43.88c-.983 1.868.36 4.12 2.457 4.121h22.43c2.095 0 3.437-2.248 2.46-4.116L25.258 32l5.447-11.873c.988-1.87-.354-4.127-2.454-4.127z" fill="#F9F5D7"/>
    <path d="M32 4A28 28 0 0 0 4 32a28 28 0 0 0 .021.586A28 28 0 0 1 32 5a28 28 0 0 1 27.979 27.414A28 28 0 0 0 60 32 28 28 0 0 0 32 4z" fill="#F9F5D7" opacity=".2"/>
</svg>
