<svg xmlns="http://www.w3.org/2000/svg" width="64" height="64" viewBox="0 0 16.93 16.93">
    <path d="M1.852 1.323a.792.792 0 0 0-.794.794v13.229c0 .44.354.794.794.794h8.731l5.292-5.292V2.117a.792.792 0 0 0-.794-.794z" opacity=".2"/>
    <path d="M2.117 1.058s-1.059 0-1.059 1.059v12.7c0 1.058 1.059 1.058 1.059 1.058h8.466l5.292-5.292V2.117c0-1.059-1.058-1.059-1.058-1.059z" fill="#D79921"/>
    <path d="M15.875 10.583h-4.498a.794.794 0 0 0-.794.794v4.498z" fill="#E6D3A3"/>
    <path d="M11.377 10.583a.794.794 0 0 0-.794.794v.265c0-.439.356-.794.794-.794h4.233l.265-.265h-4.498z" opacity=".2" fill="#F9F5D7"/>
    <path d="M5.82 3.704a2.646 2.646 0 0 0-2.423 1.588H5.821v2.116H3.399a2.646 2.646 0 0 0 2.422 1.588 2.646 2.646 0 0 0 2.421-1.588h4.987V5.292H8.244a2.646 2.646 0 0 0-2.423-1.588z" fill="#504945"/>
    <path d="M2.117 1.058s-1.059 0-1.059 1.059v.264c0-1.058 1.059-1.058 1.059-1.058h12.7s1.058 0 1.058 1.058v-.264c0-1.059-1.058-1.059-1.058-1.059h-12.7z" opacity=".2" fill="#F9F5D7"/>
</svg>
