<svg xmlns="http://www.w3.org/2000/svg" width="64" height="64" version="1">
    <path d="M56.433 14.462c-.346-.034-.714.036-1.106.238-3.146 1.6-6.326 9.035-7.164 14.136-.144.88-.136 2.02-.074 3.234.02-.418.016-.88.074-1.234.838-5.102 4.018-12.536 7.164-14.136 3.136-1.616 4.706 5.405 6.328 3.672.374-.402.42-1.275.22-2.395a1.144 1.144 0 0 1-.22.395c-1.42 1.516-2.798-3.673-5.222-3.91zM2.34 50.413c-.279.454-.422.938-.27 1.492 1.212 2.43 1.633 2.7 1.633 2.7s7.003 10.816 27.89 7.894c20.883-2.922 23.777-7.684 23.59-10.046-.02-.25-.109-.49-.213-.724-.966 2.54-5.77 6.306-23.377 8.77-20.888 2.922-27.89-7.894-27.89-7.894s-.383-.308-1.364-2.192z" opacity=".2"/>
    <path d="M37.445 2.381C31.722 3.18 25.572 6.188 20.57 15.09 9.129 35.432 9.942 42.512 8.119 44.8c-1.83 2.278-6.762 3.515-6.049 6.104 1.212 2.43 1.633 2.7 1.633 2.7s7.002 10.817 27.89 7.895c20.885-2.921 23.781-7.683 23.591-10.046-.189-2.366-4.597-4.09-4.597-4.09s-3.263-12.425-2.425-17.526c.838-5.102 4.02-12.539 7.165-14.139 3.137-1.615 4.706 5.405 6.328 3.672 1.616-1.736-2.686-11.956-7.94-15.002-4.204-2.857-8.838-2.582-16.27-1.975" fill="#8F3F71"/>
    <g opacity=".2">
        <path d="M29.194 24.051l5.884-.316 3.114-4.734 2.138 5.4L46 26.449l-4.37 3.526-.096 5.725-4.639-3.002-6.205 2.02 1.74-5.55m-3.237-5.119"/>
        <path d="M28.312 41.265l5.53-2.057 1.583-5.462 3.618 4.503 6.014.262-3.132 4.674 1.584 5.496-5.306-1.47L32.873 51l.035-5.82m-4.594-3.913"/>
        <path d="M14 34.028l5.874.445 3.678-4.306 1.444 5.628 5.365 2.765-4.776 2.933-.813 5.662-4.213-3.562-6.414 1.207 2.415-5.276M14 34.028"/>
    </g>
    <g fill="#FECE4F">
        <path d="M29.194 23.051l5.884-.316 3.114-4.734 2.138 5.4L46 25.448l-4.37 3.527-.096 5.725-4.639-3.003-6.205 2.021 1.74-5.55m-3.237-5.119"/>
        <path d="M28.312 40.265l5.53-2.057 1.583-5.462 3.618 4.503 6.014.262-3.132 4.674 1.584 5.496-5.306-1.47L32.873 50l.035-5.821m-4.594-3.912"/>
        <path d="M14 33.027l5.874.446 3.678-4.306 1.444 5.628 5.365 2.765-4.776 2.933-.813 5.662-4.213-3.563-6.414 1.208 2.415-5.276M14 33.028"/>
    </g>
    <path d="M44.75 1.998c-2.125-.013-4.518.167-7.305.395V2.38c-5.723.798-11.873 3.807-16.877 12.709C9.128 35.432 9.942 42.51 8.12 44.799c-1.83 2.278-6.762 3.515-6.049 6.105l.008.016c.57-1.959 4.46-3.152 6.041-5.121 1.823-2.288 1.01-9.367 12.45-29.71C25.571 7.189 31.721 4.18 37.444 3.382v.012c7.432-.607 12.066-.883 16.27 1.974 4.244 2.46 7.864 9.598 8.248 13.168.375-3-3.55-11.444-8.248-14.168-2.628-1.785-5.423-2.347-8.965-2.369zm3.29 30.42c-.138 5.7 2.548 15.945 2.548 15.945s4.056 1.593 4.545 3.815c.048-.258.068-.505.05-.725-.189-2.366-4.595-4.09-4.595-4.09s-2.393-9.125-2.549-14.945z" fill="#F9F5D7" opacity=".1"/>
</svg>
