<svg xmlns="http://www.w3.org/2000/svg" width="64" height="64">
    <path d="M32 5A28 28 0 0 0 4 33a28 28 0 0 0 28 28 28 28 0 0 0 28-28A28 28 0 0 0 32 5z" opacity=".2"/>
    <path d="M32 4A28 28 0 0 0 4 32a28 28 0 0 0 28 28 28 28 0 0 0 28-28A28 28 0 0 0 32 4z" fill="#504945"/>
    <path d="M32 11a22 22 0 0 0-12.92 4.219l4.941 4.941A15.125 15.125 0 0 1 32 17.875 15.125 15.125 0 0 1 47.125 33a15.125 15.125 0 0 1-2.293 7.97l4.943 4.944A22 22 0 0 0 54 33a22 22 0 0 0-22-22zm-17.775 9.086A22 22 0 0 0 10 33a22 22 0 0 0 22 22 22 22 0 0 0 12.92-4.219l-4.941-4.941A15.125 15.125 0 0 1 32 48.125 15.125 15.125 0 0 1 16.875 33a15.125 15.125 0 0 1 2.293-7.97zM32 25a8 8 0 0 0-8 8 8 8 0 0 0 8 8 8 8 0 0 0 8-8 8 8 0 0 0-8-8z" opacity=".2"/>
    <path d="M32 10a22 22 0 0 0-12.92 4.219l4.941 4.941A15.125 15.125 0 0 1 32 16.875 15.125 15.125 0 0 1 47.125 32a15.125 15.125 0 0 1-2.293 7.97l4.944 4.945A22 22 0 0 0 54 32a22 22 0 0 0-22-22z" fill="#8DC07B"/>
    <path d="M14.224 19.085A22 22 0 0 0 10 32a22 22 0 0 0 22 22 22 22 0 0 0 12.92-4.219L39.98 44.84A15.125 15.125 0 0 1 32 47.125 15.125 15.125 0 0 1 16.875 32a15.125 15.125 0 0 1 2.293-7.97z" fill="#4F8660"/>
    <circle cx="32" cy="32" r="8" fill="#8DC07B"/>
    <path d="M32 4A28 28 0 0 0 4 32a28 28 0 0 0 .021.414A28 28 0 0 1 32 5a28 28 0 0 1 27.979 27.586A28 28 0 0 0 60 32 28 28 0 0 0 32 4z" fill="#F9F5D7" opacity=".1"/>
    <path d="M32 10a22 22 0 0 0-12.92 4.219l.592.592A22 22 0 0 1 32 11a22 22 0 0 1 21.984 21.686A22 22 0 0 0 54 32a22 22 0 0 0-22-22zm-17.775 9.086A22 22 0 0 0 10 32a22 22 0 0 0 .016.314 22 22 0 0 1 4.209-12.228l4.574 4.574a15.125 15.125 0 0 1 .369-.63l-4.943-4.944zM32 24a8 8 0 0 0-8 8 8 8 0 0 0 .021.424A8 8 0 0 1 32 25a8 8 0 0 1 7.979 7.576A8 8 0 0 0 40 32a8 8 0 0 0-8-8zm15.104 8.395a15.125 15.125 0 0 1-2.272 7.576l.37.369A15.125 15.125 0 0 0 47.124 33a15.125 15.125 0 0 0-.021-.605zm-30.208.21a15.125 15.125 0 0 0-.021.395A15.125 15.125 0 0 0 32 48.125a15.125 15.125 0 0 0 7.979-2.285l4.35 4.35a22 22 0 0 0 .59-.409l-4.94-4.941A15.125 15.125 0 0 1 32 47.125a15.125 15.125 0 0 1-15.104-14.52z" opacity=".2" fill="#F9F5D7"/>
</svg>
