<svg xmlns="http://www.w3.org/2000/svg" width="64" height="64" version="1">
    <path d="M4 10h28.35L47.4 21.516v28.359H4z" fill="#3A393A"/>
    <path d="M4 11v14h33.6c4.805 0 8.4 3.28 8.4 8 0 4.72-3.595 7.939-8.4 8H18V29H4v26h33.6C49.971 55 60 45.15 60 33S49.971 11 37.6 11z" opacity=".2"/>
    <path d="M4 10v14h33.6c4.805 0 8.4 3.28 8.4 8 0 4.72-3.595 7.939-8.4 8H18V28H4v26h33.6C49.971 54 60 44.15 60 32S49.971 10 37.6 10z" fill="#CB241D"/>
    <path d="M4 10v1h33.6c12.2 0 22.115 9.581 22.386 21.5.004-.167.014-.332.014-.5 0-12.15-10.03-22-22.4-22H4zm0 18v1h14v-1H4zm41.977 4.5c-.247 4.443-3.746 7.44-8.377 7.5H18v1h19.6c4.804-.061 8.4-3.28 8.4-8 0-.17-.014-.334-.023-.5z" opacity=".1" fill="#F9F5D7"/>
</svg>
