<svg xmlns="http://www.w3.org/2000/svg" width="64" height="64">
    <rect width="56" height="56" x="4" y="5" rx="2.8" ry="2.8" opacity=".2"/>
    <rect width="56" height="56" x="4" y="4" rx="2.8" ry="2.8" fill="#B57514"/>
    <rect width="48" height="48" x="8" y="8" rx="2.4" ry="2.4" fill="#504945"/>
    <path d="M12 15v2h2v12h-2v2h10v-2h2V17h-2v-2zm16 0v2h-2v12h2v2h8v-2h2V17h-2v-2zm14 0v2h-2v4h2v2h4v2h2v4h-4v-4h-4v4h2v2h8v-2h2v-4h-2v-2h-2v-2h-4v-4h4v4h4v-4h-2v-2zm-24 2h2v12h-2zm12 0h4v12h-4zM12 35v2h2v12h-2v2h10v-2h2v-6h-2v-2h2v-4h-2v-2zm16 0v2h-2v12h2v2h8v-2h2V37h-2v-2zm10 0v2h2v4h2v4h-2v4h-2v2h4v-2h2v-2h2v2h2v2h4v-2h-2v-4h-2v-4h2v-4h2v-2h-4v2h-2v2h-2v-2h-2v-2zm-20 2h2v4h-2zm12 0h4v12h-4zm-12 6h2v6h-2z" opacity=".2"/>
    <path d="M12 14v2h2v12h-2v2h10v-2h2V16h-2v-2zm16 0v2h-2v12h2v2h8v-2h2V16h-2v-2zm14 0v2h-2v4h2v2h4v2h2v4h-4v-4h-4v4h2v2h8v-2h2v-4h-2v-2h-2v-2h-4v-4h4v4h4v-4h-2v-2zm-24 2h2v12h-2zm12 0h4v12h-4zM12 34v2h2v12h-2v2h10v-2h2v-6h-2v-2h2v-4h-2v-2zm16 0v2h-2v12h2v2h8v-2h2V36h-2v-2zm10 0v2h2v4h2v4h-2v4h-2v2h4v-2h2v-2h2v2h2v2h4v-2h-2v-4h-2v-4h2v-4h2v-2h-4v2h-2v2h-2v-2h-2v-2zm-20 2h2v4h-2zm12 0h4v12h-4zm-12 6h2v6h-2z" fill="#F9F5D7"/>
    <path d="M6.8 4C5.25 4 4 5.25 4 6.8v1C4 6.25 5.25 5 6.8 5H57.2a2.796 2.796 0 0 1 2.8 2.8v-1C60 5.25 58.75 4 57.2 4H6.8z" opacity=".2" fill="#F9F5D7"/>
</svg>
