<svg xmlns="http://www.w3.org/2000/svg" width="64" height="64" version="1">
    <rect width="56" height="56" x="4" y="5" rx="2.8" ry="2.8" opacity=".2"/>
    <rect width="56" height="56" x="4" y="4" rx="2.8" ry="2.8" fill="#FD8019"/>
    <path d="M19 43l13-22 13 22" fill="none" stroke="#3A393A" stroke-width="3"/>
    <path d="M26.666 15C25.189 15 24 16.25 24 17.8v8.4c0 1.55 1.189 2.8 2.666 2.8h10.668C38.811 29 40 27.75 40 26.2v-8.4c0-1.55-1.189-2.8-2.666-2.8zm-13 22C12.189 37 11 38.25 11 39.8v8.4c0 1.55 1.189 2.8 2.666 2.8h10.668C25.811 51 27 49.75 27 48.2v-8.4c0-1.55-1.189-2.8-2.666-2.8zm26 0C38.189 37 37 38.25 37 39.8v8.401C37 49.752 38.189 51 39.666 51h10.668C51.811 51 53 49.752 53 48.201v-8.4C53 38.25 51.811 37 50.334 37z" opacity=".2"/>
    <path d="M26.666 14C25.189 14 24 15.25 24 16.8v8.4c0 1.55 1.189 2.8 2.666 2.8h10.668C38.811 28 40 26.75 40 25.2v-8.4c0-1.55-1.189-2.8-2.666-2.8H26.666zm-13 22C12.189 36 11 37.25 11 38.8v8.4c0 1.55 1.189 2.8 2.666 2.8h10.668C25.811 50 27 48.75 27 47.2v-8.4c0-1.55-1.189-2.8-2.666-2.8H13.666zm26 0C38.189 36 37 37.25 37 38.8v8.401C37 48.752 38.189 50 39.666 50h10.668C51.811 50 53 48.752 53 47.201v-8.4C53 37.25 51.811 36 50.334 36H39.666z" fill="#F9F5D7"/>
    <path d="M6.8 4C5.25 4 4 5.25 4 6.8v1C4 6.25 5.25 5 6.8 5h50.4C58.75 5 60 6.25 60 7.8v-1C60 5.25 58.75 4 57.2 4H6.8z" fill="#F9F5D7" opacity=".2"/>
</svg>
