<svg xmlns="http://www.w3.org/2000/svg" width="64" height="64" version="1">
    <rect width="56" height="56" x="4" y="5" rx="2.8" ry="2.8" opacity=".2"/>
    <rect width="56" height="56" x="4" y="4" rx="2.8" ry="2.8" fill="#D79921"/>
    <circle cx="14" cy="47" r="6" opacity=".2"/>
    <circle cx="14" cy="46" r="6" fill="#3A393A"/>
    <circle cx="50" cy="47" r="6" opacity=".2"/>
    <circle cx="50" cy="46" r="6" fill="#3A393A"/>
    <path d="M40 47c0 3.866-3.582 7-8 7s-8-3.134-8-7z" opacity=".2"/>
    <path d="M40 46c0 3.866-3.582 7-8 7s-8-3.134-8-7z" fill="#3A393A"/>
    <path d="M6.8 4C5.25 4 4 5.25 4 6.8v1C4 6.25 5.25 5 6.8 5h50.4C58.75 5 60 6.25 60 7.8v-1C60 5.25 58.75 4 57.2 4H6.8z" opacity=".2" fill="#F9F5D7"/>
</svg>
