<svg xmlns="http://www.w3.org/2000/svg" width="64" height="64" version="1">
    <path d="M31.653 4.002a6.468 6.48 0 0 0-3.387.864L9.234 15.876A6.468 6.48 0 0 0 6 21.489v22.02a6.468 6.48 0 0 0 3.234 5.613l19.032 11.01a6.468 6.48 0 0 0 6.468 0l19.032-11.01A6.468 6.48 0 0 0 57 43.509v-22.02a6.468 6.48 0 0 0-3.234-5.614L34.734 4.865a6.468 6.48 0 0 0-3.081-.864z" opacity=".2"/>
    <path d="M31.653 3.002a6.468 6.48 0 0 0-3.387.864L9.234 14.876A6.468 6.48 0 0 0 6 20.489v22.02a6.468 6.48 0 0 0 3.234 5.613l19.032 11.01a6.468 6.48 0 0 0 6.468 0l19.032-11.01A6.468 6.48 0 0 0 57 42.509v-22.02a6.468 6.48 0 0 0-3.234-5.614L34.734 3.865a6.468 6.48 0 0 0-3.081-.864z" fill="#B7BB25"/>
    <path d="M12 41.44v1c0 .877.55 1.84 1.295 2.279l16.9 9.935a2.632 2.632 0 0 0 2.61 0l16.9-9.935C50.45 44.28 51 43.317 51 42.439v-1c0 .878-.55 1.842-1.295 2.28l-16.9 9.935a2.632 2.632 0 0 1-2.61 0l-16.9-9.935C12.55 43.28 12 42.317 12 41.439z" opacity=".2" fill="#F9F5D7"/>
    <path d="M31.561 9a2.573 2.573 0 0 0-1.368.355l-16.898 9.933c-.754.443-1.295 1.403-1.295 2.28V41.44c0 .878.55 1.84 1.295 2.278l16.9 9.936a2.633 2.633 0 0 0 2.61 0l16.9-9.936C50.45 43.28 51 42.318 51 41.44V21.566c0-.878-.55-1.84-1.295-2.278L32.807 9.355a1.887 1.93 0 0 0-.002 0A2.555 2.555 0 0 0 31.564 9a1.887 1.93 0 0 0-.003 0z" fill="#B7BB25"/>
    <path d="M31.56 9a2.569 2.569 0 0 0-1.367.355L13.295 19.29C12.54 19.732 12 20.691 12 21.57v1c0-.878.54-1.837 1.295-2.28l16.898-9.934c.42-.245.89-.367 1.368-.355a1.887 1.93 0 0 1 .003 0c.435.01.857.13 1.24.355a1.887 1.93 0 0 0 .003 0l16.898 9.932c.745.438 1.295 1.402 1.295 2.28v-1.001c0-.877-.55-1.84-1.295-2.279L32.807 9.355a1.887 1.93 0 0 0-.002 0A2.554 2.554 0 0 0 31.565 9a1.887 1.93 0 0 0-.004 0z" opacity=".1"/>
    <path d="M7.774 16.036a6.468 6.48 0 0 0-1.45 2.45l23.76 13.837V59.84a6.468 6.48 0 0 0 1.264.159 6.468 6.48 0 0 0 1.569-.164V32.323l23.762-13.84a6.468 6.48 0 0 0-1.455-2.447L31.5 29.852z" fill="#B7BB25"/>
    <path d="M31.652 3.002a6.468 6.48 0 0 0-3.386.865L9.234 14.875A6.468 6.48 0 0 0 6 20.488v1a6.468 6.48 0 0 1 3.234-5.613L28.266 4.867a6.468 6.48 0 0 1 3.386-.865h.002a6.468 6.48 0 0 1 3.08.863l19.032 11.01A6.468 6.48 0 0 1 57 21.488v-1a6.468 6.48 0 0 0-3.234-5.613L34.734 3.865a6.468 6.48 0 0 0-3.08-.863h-.002z" fill="#F9F5D7" opacity=".2"/>
    <path d="M51 21.79L32.916 32.323v1L51 22.791v-1.002zm-39 .001v1l18.084 10.533v-1L12 21.791z" opacity=".1"/>
</svg>
