<svg xmlns="http://www.w3.org/2000/svg" width="64" height="64">
    <path d="M53.21 40.79l-1.077 2.542-30.574-9.174q-.067.281-.238.833-.16.505-.227.786-1.224 5.113.542 8.358 1.801 3.255 6.58 4.69 4.124 1.236 9.066 1.01 4.978-.216 10.765-1.848L42.92 60.425q-5.318.817-10.319.473-4.976-.287-9.864-1.754-9.56-2.868-13.419-10.109-3.822-7.23-1.342-17.596 1.437-6.004 4.425-11.14 3.036-5.171 7.333-8.91 5.105-4.5 11.018-5.843 5.95-1.332 12.334.584 8.282 2.485 11.776 9.617 3.531 7.142 1.23 16.757-.449 1.877-1.173 3.922-.676 2.009-1.708 4.363zM42.72 29.396q.255-.577.437-1.176.23-.635.376-1.245.898-3.752-.326-6.482-1.223-2.73-4.215-3.628-3.83-1.149-7.182.761-3.303 1.875-5.983 6.701z" opacity=".2"/>
    <path d="M53.21 39.79l-1.077 2.542-30.574-9.174q-.067.281-.238.833-.16.505-.227.786-1.224 5.113.542 8.358 1.801 3.255 6.58 4.69 4.124 1.236 9.066 1.01 4.978-.216 10.765-1.848L42.92 59.425q-5.318.817-10.319.473-4.976-.287-9.864-1.754-9.56-2.868-13.419-10.109-3.822-7.23-1.342-17.596 1.437-6.004 4.425-11.14 3.036-5.171 7.333-8.91 5.105-4.5 11.018-5.843 5.95-1.332 12.334.584 8.282 2.485 11.776 9.617 3.531 7.142 1.23 16.757-.449 1.877-1.173 3.922-.676 2.009-1.708 4.363zM42.72 28.396q.255-.577.437-1.176.23-.635.376-1.245.898-3.752-.326-6.482-1.223-2.73-4.215-3.628-3.83-1.149-7.182.761-3.303 1.875-5.983 6.701z" fill="#8F3F71"/>
    <path d="M37.68 4.096L7.212 34.808c-.457 4.007-.103 7.61 1.06 10.812l21.07-21.238-3.513-1.053c1.786-3.218 3.78-5.452 5.981-6.702 1.951-1.112 4.025-1.447 6.22-1.003l8.892-8.964a22.513 22.513 0 0 0-3.835-1.53 26.443 26.443 0 0 0-5.407-1.034zm15.598 8.036l-9.456 9.532c.182 1.303.089 2.74-.288 4.312-.097.406-.223.82-.377 1.244-.121.4-.266.791-.437 1.176l-4.296-1.29-8.494 8.56 9.08 2.727 17.694-17.834a20.356 20.356 0 0 0-1.842-5.813c-.46-.938-1-1.797-1.584-2.614zm2.222 21.52l-7.408 7.467 4.041 1.211 1.077-2.54a53.229 53.229 0 0 0 1.71-4.364c.213-.604.402-1.193.58-1.775zm-33.52 10.03l-9.031 9.102c1.971 1.86 4.413 3.357 7.319 4.5l9.1-9.173c-.384-.094-.777-.174-1.152-.287-2.91-.873-4.982-2.258-6.237-4.143zm26.068 3.305a51.909 51.909 0 0 1-7.283 1.518l-11.03 11.117c.953.12 1.91.222 2.867.277 2.898.2 5.88.086 8.938-.298l2.238-2.254z" fill="#3A393A"/>
    <path d="M35.275 4.004c-1.528.028-3.036.21-4.523.543-3.942.895-7.615 2.841-11.018 5.842-2.864 2.492-5.31 5.462-7.334 8.91-1.992 3.424-3.466 7.138-4.423 11.14-.679 2.835-.984 5.484-.956 7.967.057-2.192.368-4.51.956-6.967.957-4.002 2.431-7.716 4.423-11.14 2.025-3.448 4.47-6.418 7.334-8.91 3.403-3 7.076-4.947 11.018-5.842 3.966-.888 8.077-.693 12.334.584 5.521 1.657 9.446 4.86 11.775 9.615 1.382 2.795 2.075 5.883 2.118 9.246.098-3.756-.6-7.175-2.118-10.246-2.33-4.754-6.254-7.958-11.775-9.615-2.66-.798-5.264-1.175-7.81-1.127zm8.623 19.451a13.325 13.325 0 0 1-.365 2.522 11.49 11.49 0 0 1-.375 1.244c-.121.399-.269.79-.44 1.175L26.327 23.48c-.167.278-.334.555-.498.85l16.89 5.067c.171-.384.319-.776.44-1.175.154-.423.278-.838.375-1.244.302-1.261.423-2.434.365-3.522zM20.611 39.111c-.078 1.937.257 3.615 1.024 5.024 1.201 2.17 3.396 3.733 6.582 4.69 2.748.824 5.77 1.16 9.064 1.009 3.185-.138 6.624-.721 10.305-1.729l.46-1.117c-3.857 1.088-7.446 1.703-10.765 1.846-3.294.15-6.316-.185-9.064-1.01-3.186-.956-5.381-2.52-6.582-4.69-.632-1.16-.966-2.504-1.024-4.023z" fill="#F9F5D7" opacity=".1"/>
</svg>
