<svg xmlns="http://www.w3.org/2000/svg" width="64" height="64" version="1">
    <path d="M4 56v2c0 2.474 1.366 3.572 2.965 3.886L6.8 62h50.398l-.191-.133C59.968 61.242 60 58 60 58v-2s-.032 3.242-2.992 3.867L57.2 60H6.802l.164-.114C5.366 59.571 4 58.473 4 56z" opacity=".2"/>
    <path d="M5.274 22.655c-.057.037-.11.081-.164.123l-.033.024v.004A2.783 2.783 0 0 0 4 25.002v24.397c0 4 3.154 4 4 4h47.998s4 0 4-4V25.002c0-.917-.444-1.721-1.12-2.231l.011-.016L32 3.003S5.11 22.78 5.275 22.657z" fill="#8F3F71"/>
    <rect width="32" height="26" x="144" y="243" rx="2" ry="2" transform="matrix(1.39995 0 0 1.39995 -191.993 -330.588)" opacity=".2"/>
    <rect width="43.999" height="35.999" x="10" y="9" rx="3" ry="2.998" fill="#F9F5D7"/>
    <path d="M13 9.003c-1.662 0-3 1.337-3 2.998v1a2.993 2.993 0 0 1 3-2.998h37.999c1.662 0 3 1.337 3 2.998v-1a2.993 2.993 0 0 0-3-2.998h-38z" opacity=".1" fill="#F9F5D7"/>
    <path d="M4 25L56 61H8c-2 0-4-.99-4-3.957z" fill="#8F3F71"/>
    <path d="M55.999 61c4 0 4-3.957 4-3.957V25L8 61z" fill="#B16286"/>
    <path d="M32 15a10 10 0 0 0-10 10 10 10 0 0 0 10 10h7c.553 0 1-.446 1-1s-.447-1-1-1h-7a8 8 0 0 1-8-8 8 8 0 0 1 8-8 8 8 0 0 1 8 8v3c0 .554-.447 1-1 1-.555 0-1-.446-1-1v-3a6 6 0 0 0-6-6 6 6 0 0 0-6 6 6 6 0 0 0 6 6 6 6 0 0 0 4.261-1.78A2.99 2.99 0 0 0 38.999 31c1.662 0 3-1.338 3-3v-3a10 10 0 0 0-10-10zm0 6a4 4 0 0 1 4 4 4 4 0 0 1-4 4 4 4 0 0 1-4-4 4 4 0 0 1 4-4z" fill="#928274"/>
</svg>
