<svg xmlns="http://www.w3.org/2000/svg" width="64" height="64" version="1">
    <rect width="56" height="56" x="4" y="5" rx="2.8" ry="2.8" opacity=".2"/>
    <rect width="56" height="56" x="4" y="4" rx="2.8" ry="2.8" fill="#F9F5D7"/>
    <path d="M34 14.459c0 .06-.008.153-.022.28-.015.127-.033.27-.054.426a4.54 4.54 0 0 1-.25.975c-.059.15-.124.27-.196.359-.073.09-.152.135-.24.135-.1 0-.227-.03-.38-.09-.152-.06-.33-.123-.533-.19a7.171 7.171 0 0 0-.717-.191c-.276-.06-.58-.09-.913-.09-.623 0-1.156.097-1.598.291a2.922 2.922 0 0 0-1.141.908c-.32.411-.587.93-.805 1.558a15.68 15.68 0 0 0-.565 2.22l-.37 2.017h4.646c.16 0 .286.056.38.168.095.112.142.295.142.55 0 .164-.015.336-.044.515-.03.18-.065.355-.109.527a3.574 3.574 0 0 1-.162.493c-.065.157-.138.153-.218.273-.08.12-.17.216-.272.291a.53.53 0 0 1-.304.112h-4.666L21.89 45.669c-.246 1.255-.58 2.343-1 3.262-.42.919-.935 1.681-1.543 2.287a5.77 5.77 0 0 1-2.109 1.345c-.797.291-1.696.437-2.696.437-.652 0-1.184-.053-1.598-.157-.413-.105-.67-.202-.771-.292a.822.822 0 0 1-.13-.246 1.21 1.21 0 0 1-.044-.359c0-.06.01-.16.032-.303.022-.142.048-.291.076-.448.03-.157.066-.322.109-.493.043-.173.095-.333.152-.482.058-.15.123-.27.196-.36a.326.326 0 0 1 .26-.134c.102 0 .2.011.294.034a7.427 7.427 0 0 0 .695.134c.153.023.345.034.576.034.609 0 1.135-.097 1.577-.292a2.847 2.847 0 0 0 1.13-.908c.311-.41.572-.93.783-1.558.21-.628.402-1.382.575-2.264l3.566-18.91h-2.783a.41.41 0 0 1-.337-.147c-.08-.097-.12-.137-.12-.406a5.376 5.376 0 0 1 .098-.964c.036-.18.084-.351.142-.516a2.1 2.1 0 0 1 .217-.448 1.53 1.53 0 0 1 .272-.326.527.527 0 0 1 .359-.123h2.74l.543-2.802c.231-1.226.565-2.298 1-3.217.434-.92.96-1.678 1.576-2.276a5.93 5.93 0 0 1 2.13-1.334c.804-.291 1.692-.437 2.663-.437a9.384 9.384 0 0 1 1.968.213c.297.067.557.146.782.236.225.09.38.179.468.269.087.075.152.179.195.314.044.135.066.278.066.427z" opacity=".1"/>
    <path d="M34 13.459c0 .06-.008.153-.022.28-.015.127-.033.27-.054.426a4.54 4.54 0 0 1-.25.975c-.059.15-.124.27-.196.359-.073.09-.152.135-.24.135-.1 0-.227-.03-.38-.09-.152-.06-.33-.123-.533-.19a7.171 7.171 0 0 0-.717-.191c-.276-.06-.58-.09-.913-.09-.623 0-1.156.097-1.598.291a2.922 2.922 0 0 0-1.141.908c-.32.411-.587.93-.805 1.558a15.68 15.68 0 0 0-.565 2.22l-.37 2.017h4.646c.16 0 .286.056.38.168.095.112.142.295.142.55 0 .164-.015.336-.044.515-.03.18-.065.355-.109.527a3.574 3.574 0 0 1-.162.493c-.065.157-.138.153-.218.273-.08.12-.17.216-.272.291a.53.53 0 0 1-.304.112h-4.666L21.89 44.669c-.246 1.255-.58 2.343-1 3.262-.42.919-.935 1.681-1.543 2.287a5.77 5.77 0 0 1-2.109 1.345c-.797.291-1.696.437-2.696.437-.652 0-1.184-.053-1.598-.157-.413-.105-.67-.202-.771-.292a.822.822 0 0 1-.13-.246 1.21 1.21 0 0 1-.044-.359c0-.06.01-.16.032-.303.022-.142.048-.291.076-.448.03-.157.066-.322.109-.493.043-.173.095-.333.152-.482.058-.15.123-.27.196-.36a.326.326 0 0 1 .26-.134c.102 0 .2.011.294.034a7.427 7.427 0 0 0 .695.134c.153.023.345.034.576.034.609 0 1.135-.097 1.577-.292a2.847 2.847 0 0 0 1.13-.908c.311-.41.572-.93.783-1.558.21-.628.402-1.382.575-2.264l3.566-18.91h-2.783a.41.41 0 0 1-.337-.147c-.08-.097-.12-.137-.12-.406a5.376 5.376 0 0 1 .098-.964c.036-.18.084-.351.142-.516a2.1 2.1 0 0 1 .217-.448 1.53 1.53 0 0 1 .272-.326.527.527 0 0 1 .359-.123h2.74l.543-2.802c.231-1.226.565-2.298 1-3.217.434-.92.96-1.678 1.576-2.276a5.93 5.93 0 0 1 2.13-1.334c.804-.291 1.692-.437 2.663-.437a9.384 9.384 0 0 1 1.968.213c.297.067.557.146.782.236.225.09.38.179.468.269.087.075.152.179.195.314.044.135.066.278.066.427z" fill="#D55C0D"/>
    <path d="M53 30.557c0 .907-.08 1.908-.241 3.003-.16 1.095-.42 1.616-.778 2.726a21.524 21.524 0 0 1-1.35 3.241 11.656 11.656 0 0 1-1.984 2.787 9.435 9.435 0 0 1-2.698 1.95c-1.017.49-2.16.736-3.432.736-1.316 0-2.443-.257-3.378-.77-.936-.514-1.77-1.254-2.5-2.221l-.395 2.14c-.03.256-.187.438-.472.543-.285.106-.72.159-1.305.159-.614 0-1.023-.06-1.228-.181-.205-.121-.278-.295-.22-.521l5.835-30.424a.883.883 0 0 1 .142-.317.719.719 0 0 1 .33-.227c.153-.06.35-.106.592-.136.24-.03.544-.045.91-.045.35 0 .636.015.855.045.22.03.395.076.526.136.132.06.212.136.242.227.029.09.036.196.022.317l-1.755 9.693a23.95 23.95 0 0 1-.263 1.224c-.103.423-.208.842-.318 1.258a40.403 40.403 0 0 1-.626 2.141c.234-.528.603-1.076 1.108-1.643a10.193 10.193 0 0 1 1.776-1.564c.68-.475 1.422-.872 2.226-1.19a6.583 6.583 0 0 1 2.435-.475c.877 0 1.63.12 2.259.362a5.02 5.02 0 0 1 1.601.964c.438.4.793.857 1.064 1.37.27.515.479 1.043.625 1.587.146.544.248 1.084.307 1.62.059.538.088 1.032.088 1.485zm-3.794.318c0-.408-.037-.876-.11-1.406a5.142 5.142 0 0 0-.427-1.473 3.065 3.065 0 0 0-.922-1.144c-.402-.31-.94-.465-1.612-.465-.79 0-1.594.235-2.413.703-.819.468-1.579 1.115-2.281 1.938-.702.823-1.327 1.79-1.875 2.9-.548 1.11-.947 1.741-1.195 3.056l-.724 3.762c.687 1.042 1.426 1.813 2.215 2.311.79.499 1.681.748 2.676.748.76 0 1.448-.18 2.062-.543a6.327 6.327 0 0 0 1.666-1.45 9.818 9.818 0 0 0 1.295-2.074c.365-.778.668-1.594.91-2.448.24-.854.424-1.129.548-1.99.125-.86.187-1.67.187-2.425z" opacity=".1"/>
    <path d="M53 29.557c0 .907-.08 1.908-.241 3.003-.16 1.095-.42 1.616-.778 2.726a21.524 21.524 0 0 1-1.35 3.241 11.656 11.656 0 0 1-1.984 2.787 9.435 9.435 0 0 1-2.698 1.95c-1.017.49-2.16.736-3.432.736-1.316 0-2.443-.257-3.378-.77-.936-.514-1.77-1.254-2.5-2.221l-.395 2.14c-.03.256-.187.438-.472.543-.285.106-.72.159-1.305.159-.614 0-1.023-.06-1.228-.181-.205-.121-.278-.295-.22-.521l5.835-30.424a.883.883 0 0 1 .142-.317.719.719 0 0 1 .33-.227c.153-.06.35-.106.592-.136.24-.03.544-.045.91-.045.35 0 .636.015.855.045.22.03.395.076.526.136.132.06.212.136.242.227.029.09.036.196.022.317l-1.755 9.693a23.95 23.95 0 0 1-.263 1.224c-.103.423-.208.842-.318 1.258a40.403 40.403 0 0 1-.626 2.141c.234-.528.603-1.076 1.108-1.643a10.193 10.193 0 0 1 1.776-1.564c.68-.475 1.422-.872 2.226-1.19a6.583 6.583 0 0 1 2.435-.475c.877 0 1.63.12 2.259.362a5.02 5.02 0 0 1 1.601.964c.438.4.793.857 1.064 1.37.27.515.479 1.043.625 1.587.146.544.248 1.084.307 1.62.059.538.088 1.032.088 1.485zm-3.794.318c0-.408-.037-.876-.11-1.406a5.142 5.142 0 0 0-.427-1.473 3.065 3.065 0 0 0-.922-1.144c-.402-.31-.94-.465-1.612-.465-.79 0-1.594.235-2.413.703-.819.468-1.579 1.115-2.281 1.938-.702.823-1.327 1.79-1.875 2.9-.548 1.11-.947 1.741-1.195 3.056l-.724 3.762c.687 1.042 1.426 1.813 2.215 2.311.79.499 1.681.748 2.676.748.76 0 1.448-.18 2.062-.543a6.327 6.327 0 0 0 1.666-1.45 9.818 9.818 0 0 0 1.295-2.074c.365-.778.668-1.594.91-2.448.24-.854.424-1.129.548-1.99.125-.86.187-1.67.187-2.425z" fill="#448588"/>
    <path d="M6.8 4C5.25 4 4 5.25 4 6.8v1C4 6.25 5.25 5 6.8 5h50.4C58.75 5 60 6.25 60 7.8v-1C60 5.25 58.75 4 57.2 4H6.8z" opacity=".2" fill="#F9F5D7"/>
</svg>
