<svg xmlns="http://www.w3.org/2000/svg" width="64" height="64" version="1">
    <path d="M4.05 31.998c-.011.334-.05.662-.05 1C4 48.511 16.486 61 31.998 61c15.511 0 27.998-12.489 27.998-28.002 0-.338-.038-.666-.05-1C59.418 47.04 47.171 59 31.998 59 16.824 59 4.578 47.04 4.05 31.998z" opacity=".2"/>
    <rect width="56.004" height="56" x="-60" y="-60" rx="28.002" ry="28" transform="matrix(0 -1 -1 0 0 0)" fill="#504945"/>
    <path d="M25.701 24.13c-2.442 3.208-3.703 5.798-3.703 7.599 0 1.193.106 1.383 1.139 2.07C24.902 35.399 24.585 36.89 25 39c-.569 0-1 1-1 2s.458 2 1 2l-.002 2.045c-4.486-2.588-7-7.42-7-12.992 0-5.965 3.455-10.63 8.473-13.052h-5.373v-.002c-3.737 3.294-6.1 7.655-6.1 13.052 0 7.29 3.798 13.527 10 16.363l.29.14c.866.378 1.778.669 2.71.909v3.056C18.381 50.41 12.02 41.9 11.996 32.053c.003-2.033.301-4.106.885-6.053H9.779a24.418 24.418 0 0 0-.783 6.053C9.001 44.723 18.353 55.208 30.998 56V45.996H31V46c.251-.006.623.013.996.023h.008c.373-.01.745-.029.996-.023v-.004h.002V56c12.645-.792 21.997-11.276 22.002-23.947A24.418 24.418 0 0 0 54.22 26h-3.102c.584 1.947.882 4.02.885 6.053C51.98 41.9 45.619 50.41 36.002 52.52v-3.057c.932-.24 1.844-.53 2.71-.908l.29-.14c6.202-2.837 10-9.075 10-16.364 0-5.397-2.363-9.758-6.1-13.052v.002H37.53c5.018 2.421 8.473 7.087 8.473 13.052 0 5.571-2.515 10.404-7 12.992L39 43c.542 0 1-1 1-2s-.431-2-1-2c.415-2.11.098-3.6 1.863-5.201 1.033-.687 1.139-.877 1.139-2.07 0-1.8-1.261-4.391-3.703-7.598C36.712 22.048 35 19 32 19c-3 0-4.95 3.426-6.299 5.13zM27.5 40a1.5 1.5 0 1 1 0 3 1.5 1.5 0 0 1 0-3zm9 0a1.5 1.5 0 1 1 0 3 1.5 1.5 0 0 1 0-3z" opacity=".2"/>
    <path d="M25.701 23.13c-2.442 3.208-3.703 5.798-3.703 7.599 0 1.193.106 1.383 1.139 2.07C24.902 34.399 24.585 35.89 25 38c-.569 0-1 1-1 2s.458 2 1 2l-.002 2.045c-4.486-2.588-7-7.42-7-12.992 0-5.965 3.455-10.63 8.473-13.052h-5.373v-.002c-3.737 3.294-6.1 7.655-6.1 13.052 0 7.29 3.798 13.527 10 16.363l.29.14c.866.378 1.778.669 2.71.909v3.056C18.381 49.41 12.02 40.9 11.996 31.053c.003-2.033.301-4.106.885-6.053H9.779a24.418 24.418 0 0 0-.783 6.053C9.001 43.723 18.353 54.208 30.998 55V44.996H31V45c.251-.006.623.013.996.023h.008c.373-.01.745-.029.996-.023v-.004h.002V55c12.645-.792 21.997-11.276 22.002-23.947A24.418 24.418 0 0 0 54.22 25h-3.102c.584 1.947.882 4.02.885 6.053C51.98 40.9 45.619 49.41 36.002 51.52v-3.057c.932-.24 1.844-.53 2.71-.908l.29-.14c6.202-2.837 10-9.075 10-16.364 0-5.397-2.363-9.758-6.1-13.052v.002H37.53c5.018 2.421 8.473 7.087 8.473 13.052 0 5.571-2.515 10.404-7 12.992L39 42c.542 0 1-1 1-2s-.431-2-1-2c.415-2.11.098-3.6 1.863-5.201 1.033-.687 1.139-.877 1.139-2.07 0-1.8-1.261-4.391-3.703-7.598C36.712 21.048 35 18 32 18c-3 0-4.95 3.426-6.299 5.13zM27.5 39a1.5 1.5 0 1 1 0 3 1.5 1.5 0 0 1 0-3zm9 0a1.5 1.5 0 1 1 0 3 1.5 1.5 0 0 1 0-3z" fill="#48B9C7"/>
    <path d="M31.998 3.996C16.486 3.996 4 16.485 4 31.998c0 .114.011.224.018.336C4.37 17.132 16.71 4.998 31.998 4.998c15.287 0 27.629 12.133 27.982 27.334.007-.111.016-.221.016-.334 0-15.513-12.487-28.002-27.998-28.002z" opacity=".1" fill="#F9F5D7"/>
</svg>
