<svg xmlns="http://www.w3.org/2000/svg" width="64" height="64" version="1">
    <rect width="56" height="56" x="4" y="5" rx="2.8" ry="2.8" opacity=".2"/>
    <rect width="56" height="56" x="4" y="4" rx="2.8" ry="2.8" fill="#F9F5D7"/>
    <path d="M29.142 52.92c-1.087-.136-3.161-.649-4.133-1.02-4-1.532-6.913-4.581-8.171-8.554-.705-2.225-.701-2.146-.8-16.621C15.984 18.691 16.003 13 16.003 13h12.07l-4.798 10H28v20h9V13h11v19.151c.001 17.696-.01 18.722-.223 18.833-.567.295-6.514 1.33-10.06 1.75-2.035.24-7.245.354-8.575.187z" opacity=".1"/>
    <path d="M29.142 51.92c-1.087-.136-3.161-.649-4.133-1.02-4-1.532-6.913-4.581-8.171-8.554-.705-2.225-.701-2.146-.8-16.621C15.984 17.691 16.003 12 16.003 12h12.07l-4.798 10H28v20h9V12h11v19.151c.001 17.696-.01 18.722-.223 18.833-.567.295-6.514 1.33-10.06 1.75-2.035.24-7.245.354-8.575.187z" fill="#F15C22"/>
    <path d="M6.8 4C5.25 4 4 5.25 4 6.8v1C4 6.25 5.25 5 6.8 5h50.4C58.75 5 60 6.25 60 7.8v-1C60 5.25 58.75 4 57.2 4H6.8z" opacity=".2" fill="#F9F5D7"/>
</svg>
