<svg xmlns="http://www.w3.org/2000/svg" width="64" height="64">
    <circle cx="32" cy="33" r="28" opacity=".2"/>
    <circle cx="32" cy="32" r="28" fill="#F9F5D7"/>
    <path d="M32.424 13C24.58 13 17.598 17.515 14.2 24.086l4.67 3.16-4.683-3.16C12.803 26.772 12 29.8 12 33c0 3.314.846 6.429 2.318 9.172l6.584-4.633A12 12 0 0 1 20 33a12 12 0 0 1 .852-4.412A12 12 0 0 1 32 21a12 12 0 0 1 8.248 3.303l5.586-5.946C42.364 15.043 37.672 13 32.424 13zM32 29v8h11.293a12 12 0 0 1-4.346 5.768 12 12 0 0 1-.015.01A12 12 0 0 1 32 45a12 12 0 0 1-11.094-7.453l-6.574 4.625C17.772 48.6 24.683 53 32.424 53c5.131 0 9.72-1.93 13.176-5.115C49.55 44.228 52 38.9 52 33c0-.96-.086-1.891-.213-2.81l.018-.114L51.619 29H32z" opacity=".1"/>
    <path d="M32 28v8h11.293a12 12 0 0 1-4.418 5.818l6.725 5.067C49.55 43.228 52 37.9 52 32c0-.96-.086-1.891-.213-2.81l.018-.114L51.619 28H43.3z" fill="#066678"/>
    <path d="M32.424 12C24.58 12 17.598 16.515 14.2 23.086l6.65 4.502A12 12 0 0 1 32 20a12 12 0 0 1 8.248 3.303l5.586-5.946C42.364 14.043 37.672 12 32.424 12z" fill="#CB241D"/>
    <path d="M14.188 23.086C12.803 25.772 12 28.8 12 32c0 3.314.846 6.429 2.318 9.172l6.584-4.633A12 12 0 0 1 20 32a12 12 0 0 1 .852-4.412l-1.881-1.274-4.784-3.228z" fill="#D79921"/>
    <path d="M20.906 36.547l-6.574 4.625C17.772 47.6 24.683 52 32.424 52c5.131 0 9.72-1.93 13.176-5.115l-6.653-5.117A12 12 0 0 1 32 44a12 12 0 0 1-11.094-7.453z" fill="#578D57"/>
    <path d="M32 4A28 28 0 0 0 4 32a28 28 0 0 0 .021.586A28 28 0 0 1 32 5a28 28 0 0 1 27.979 27.414A28 28 0 0 0 60 32 28 28 0 0 0 32 4z" fill="#F9F5D7" opacity=".2"/>
</svg>
