<svg xmlns="http://www.w3.org/2000/svg" width="64" height="64" version="1">
    <path d="M46 28.8l14 8.05v16.1L46 61l-14-8.05v-16.1zM18 28.8l14 8.05v16.1L18 61 4 52.95v-16.1z" opacity=".2"/>
    <path d="M46 27.8l14 8.05v16.1L46 60l-14-8.05v-16.1z" fill="#448588"/>
    <path d="M46 27.8l14 8.05v16.1L46 60z" opacity=".25"/>
    <path d="M46 27.8l-14 8.05 14 8.05 14-8.05z" fill="#83A498"/>
    <path d="M18 27.8l14 8.05v16.1L18 60 4 51.95v-16.1z" fill="#066678"/>
    <path d="M18 27.8l14 8.05v16.1L18 60z" opacity=".2"/>
    <path d="M18 27.8L4 35.85l14 8.05 14-8.05z" fill="#066678"/>
    <path d="M32 5l14 8.05v16.1L32 37.2l-14-8.05v-16.1z" opacity=".2"/>
    <path d="M32 4l14 8.05v16.1L32 36.2l-14-8.05v-16.1z" fill="#066678"/>
    <path d="M32 4l14 8.05v16.1L32 36.2z" opacity=".2"/>
    <path d="M32 4l-14 8.05 14 8.05 14-8.05z" fill="#066678"/>
    <path d="M32.87 36.35l-.87.5 14 8.05 14-8.05-.87-.5L46 43.9zM4.87 36.35l-.87.5 14 8.05 14-8.05-.87-.5L18 43.9zM18.87 12.55l-.87.5 14 8.05 14-8.05-.87-.5L32 20.1z" opacity=".1"/>
    <path d="M46 27.8v1l13.13 7.55.87-.5-14-8.05zM18 27.8L4 35.85l.87.5L18 28.8v-1z" opacity=".1" fill="#F9F5D7"/>
    <path d="M32 4l-14 8.05.87.5L32 5l13.13 7.55.87-.5L32 4z" opacity=".2" fill="#F9F5D7"/>
</svg>
