<svg xmlns="http://www.w3.org/2000/svg" width="64" height="64">
    <path d="M6 10c-2.216 0-4 1.882-4 4.219V50.78C2 53.118 3.784 55 6 55s4-1.882 4-4.219V48.98c.142.01.283.021.428.021H16v6h5v-6h3v6h5v-6h3v6h5v-6h19.572C59.58 49 62 46.547 62 43.5v-22c0-3.047-2.42-5.5-5.428-5.5H10.428c-.145 0-.286.01-.428.021V14.22C10 11.882 8.216 10 6 10z" opacity=".2"/>
    <rect width="57" height="33" x="5" y="15" rx="5.429" ry="5.5" fill="#504945"/>
    <circle cx="22.5" cy="32.5" r="10.5" opacity=".2"/>
    <circle cx="22.5" cy="31.5" r="10.5" fill="#F9F5D7"/>
    <circle cx="46.5" cy="32.5" r="8.5" opacity=".2"/>
    <circle cx="46.5" cy="31.5" r="8.5" fill="#F9F5D7"/>
    <path fill="#73C48F" d="M21 23h3v17h-3z"/>
    <path fill="#504945" d="M16 47h5v7h-5z"/>
    <path fill="#73C48F" d="M45 25h3v13h-3z"/>
    <rect width="8" height="45" x="2" y="9" rx="4" ry="4.219" fill="#504945"/>
    <path fill="#73C48F" d="M31 30v3H14v-3z"/>
    <path fill="#73C48F" d="M29.571 36.444l-2.121 2.122-12.02-12.021 2.12-2.122z"/>
    <path fill="#73C48F" d="M15.43 36.444l2.12 2.122 12.021-12.021-2.121-2.122z"/>
    <circle cx="22.5" cy="31.5" r="4.5" fill="#73C48F"/>
    <path fill="#73C48F" d="M53 30v3H40v-3z"/>
    <path fill="#73C48F" d="M52.156 35.03l-2.121 2.121-9.193-9.192 2.122-2.121z"/>
    <path fill="#73C48F" d="M40.842 35.03l2.122 2.121 9.192-9.192-2.121-2.121z"/>
    <path fill="#504945" d="M24 47h5v7h-5zM32 47h5v7h-5z"/>
    <path d="M6 9c-2.216 0-4 1.882-4 4.219v1C2 11.882 3.784 10 6 10s4 1.882 4 4.219v-1C10 10.882 8.216 9 6 9zm4.428 6c-.145 0-.286.01-.428.021v1a5.44 5.44 0 0 1 .428-.021h46.144C59.58 16 62 18.453 62 21.5v-1c0-3.047-2.42-5.5-5.428-5.5H10.428z" opacity=".1" fill="#F9F5D7"/>
</svg>
