<svg xmlns="http://www.w3.org/2000/svg" width="64" height="64" version="1">
    <path d="M4.05 32c-.011.334-.05.662-.05 1 0 15.512 12.488 28 28 28 15.511 0 28-12.488 28-28 0-.337-.04-.665-.052-1-.528 15.042-12.775 27-27.95 27C16.826 59 4.579 47.042 4.05 32z" opacity=".2"/>
    <path d="M32 4C16.488 4 4 16.49 4 32c0 15.512 12.488 28 28 28 15.511 0 28-12.488 28-28C60 16.49 47.51 4 32 4z" fill="#D79921"/>
    <circle cx="32" cy="33" r="22" opacity=".2"/>
    <circle cx="32" cy="32" r="22" fill="#F9F5D7"/>
    <path d="M18 32h4v14h20V32h4L32 17.998z" fill="#3A393A"/>
    <path fill="#3A393A" d="M38 20h4v14h-4z"/>
    <path d="M32 4C16.488 4 4 16.488 4 32c0 .114.011.224.018.336C4.369 17.134 16.71 5 32 5c15.29 0 27.63 12.134 27.982 27.336.007-.112.018-.222.018-.336C60 16.488 47.512 4 32 4z" opacity=".2" fill="#F9F5D7"/>
</svg>
