<svg xmlns="http://www.w3.org/2000/svg" width="64" height="64" version="1">
    <rect width="45.999" height="40" x="-51" y="-54" rx="2" ry="2.106" transform="matrix(0 -1 -1 0 0 0)" opacity=".2"/>
    <rect width="45.999" height="40" x="-49" y="-54" rx="2" ry="2.106" transform="matrix(0 -1 -1 0 0 0)" fill="#8F3F71"/>
    <path d="M6 54v2c0 1.108.94 2 2.106 2h35.788C45.06 58 46 57.108 46 56v-2c0 1.108-.94 2-2.106 2H8.106C6.939 56 6 55.108 6 54z" opacity=".2"/>
    <rect width="45.999" height="40" x="-57" y="-46" rx="2" ry="2.106" transform="matrix(0 -1 -1 0 0 0)" fill="#8F3F71"/>
    <path d="M26 22c-7.732 0-14 6.268-14 14s6.268 14 14 14 14-6.268 14-14-6.268-14-14-14zm-1.402 2.676c.163-.015.37.008.535 0 .023.078-.118.355-.304.762-1.186 2.59-1.253 5.625-.153 7.246.199.294.379.573.379.61 0 .037-.215.075-.458.075-.57 0-1.109-.347-2.21-1.22-.49-.387-1.125-.711-1.372-.76-.387-.078-.491-.046-.992.457-.466.465-.61.718-.61 1.144 0 1.618 1.92 2.9 5.489 3.656 4.847 1.028 6.042 1.951 6.176 4.5.168 3.196-1.535 5.607-5.262 7.473-.444.223-.727.307-.914.379-.082-.008-.144.007-.227 0-.03-.1-.078-.328-.078-.762 0-1.698-.667-3.445-1.675-4.422-.271-.262-1.031-.817-1.68-1.219-.649-.401-1.303-.867-1.45-1.066-.241-.33-.26-.535-.075-1.145.339-1.114.74-1.737 1.524-2.441.41-.369.823-.676.914-.683.09-.008-.522-.194-1.446-.383a26.031 26.031 0 0 1-2.976-.84c-1.278-.462-2.999-1.43-3.656-2.132l-.078-.078a12.258 12.258 0 0 1 7.09-8.309 12 12 0 0 1 2.289-.688c.397-.08.808-.11 1.218-.152zm11.437 5.719c.287.177 1.367 2.518 1.676 3.66.4 1.474.37 4.024 0 5.488-.14.557-.319 1.08-.379 1.145-.06.068-.278-.309-.535-.762-.256-.454-1.074-1.42-1.754-2.137-1.961-2.07-2.27-3.148-1.449-4.8.414-.834 2.22-2.731 2.442-2.594z" opacity=".2"/>
    <path d="M26 21c-7.732 0-14 6.268-14 14s6.268 14 14 14 14-6.268 14-14-6.268-14-14-14zm-1.402 2.676c.163-.015.37.008.535 0 .023.078-.118.356-.304.762-1.186 2.59-1.253 5.625-.153 7.246.199.294.379.573.379.61 0 .037-.215.075-.458.075-.57 0-1.109-.346-2.21-1.219-.49-.388-1.125-.713-1.372-.762-.387-.077-.491-.045-.992.458-.466.465-.61.718-.61 1.144 0 1.618 1.92 2.9 5.489 3.656 4.847 1.028 6.042 1.952 6.176 4.5.168 3.196-1.535 5.607-5.262 7.473-.444.223-.727.307-.914.379-.082-.008-.144.007-.227 0-.03-.1-.078-.328-.078-.762 0-1.698-.667-3.445-1.675-4.422-.271-.262-1.031-.817-1.68-1.219-.649-.401-1.303-.867-1.45-1.066-.241-.33-.26-.534-.075-1.145.339-1.114.74-1.737 1.524-2.44.41-.37.823-.677.914-.684.09-.008-.522-.194-1.446-.383a26.047 26.047 0 0 1-2.976-.84c-1.278-.461-2.999-1.43-3.656-2.132l-.078-.078a12.258 12.258 0 0 1 7.09-8.309c.733-.31 1.49-.524 2.289-.687.397-.081.808-.11 1.218-.153zm11.437 5.719c.287.177 1.367 2.518 1.676 3.66.4 1.474.37 4.024 0 5.488-.14.557-.319 1.08-.379 1.145-.06.068-.278-.308-.535-.762-.256-.453-1.074-1.42-1.754-2.137-1.961-2.07-2.27-3.148-1.449-4.8.414-.833 2.22-2.73 2.442-2.594z" fill="#F9F5D7"/>
    <path d="M8.105 11C6.94 11 6 11.892 6 13v1.002c0-1.108.94-2 2.105-2h35.788c1.168 0 2.107.892 2.107 2V13c0-1.108-.94-2-2.107-2H8.105z" opacity=".2" fill="#F9F5D7"/>
    <path d="M16.105 3C14.94 3 14 3.892 14 5v1.002c0-1.108.94-2 2.105-2h35.788c1.168 0 2.107.892 2.107 2V5c0-1.108-.94-2-2.107-2H16.105z" opacity=".1" fill="#F9F5D7"/>
    <path d="M57.958 44.848A16 16 0 0 1 42 60a16 16 0 0 1-15.958-14.848A16 16 0 0 0 26 46a16 16 0 0 0 16 16 16 16 0 0 0 16-16 16 16 0 0 0-.042-1.152z" opacity=".2" fill-rule="evenodd"/>
    <circle cx="42" cy="45" r="16" fill="#504945"/>
    <path d="M44 37v8h3l-5 6-5-6h3v-8zm-8 14h12v2H36z" fill="#F9F5D7"/>
</svg>
