<svg xmlns="http://www.w3.org/2000/svg" width="64" height="64" version="1">
    <path d="M8.055 35c-.015.334-.05.662-.05 1 0 12.188 9.811 22 21.999 22 12.188 0 22-9.812 22-22 0-.338-.036-.666-.05-1-.524 11.716-10.1 21-21.95 21S8.578 46.716 8.054 35z" opacity=".2"/>
    <rect width="43.999" height="43.999" x="-57" y="-52" rx="22" ry="22" transform="matrix(0 -1 -1 0 0 0)" fill="#8F3F71"/>
    <path d="M30.004 13c-12.188 0-22 9.812-22 22 0 .114.011.225.017.338A21.945 21.945 0 0 1 30.004 14a21.947 21.947 0 0 1 21.984 21.33c.006-.11.016-.218.016-.33 0-12.188-9.812-22-22-22z" opacity=".2" fill="#F9F5D7"/>
    <path d="M45.268 8.002c-.014 0-.03.009-.044.01a1.027 1.027 0 0 0-.316.078.951.951 0 0 0-.265.15c-.09.075-.173.182-.252.307-.02.033-.04.066-.06.102a2.246 2.246 0 0 0-.19.476l-.01.028c-.146-.707-1.674-.535-1.674-.535l.002.003h-.005s.128.087.252.208c.062.062.124.13.17.202v.002a.372.372 0 0 1 .07.212v.002c-.263.03-.52.073-.775.128-.055-.125-.049-.312-.036-.512.013-.199.032-.408-.003-.582l-.002.005v-.008a2.056 2.056 0 0 0-.242.578 4.208 4.208 0 0 0-.113.613c-.05.014-.099.035-.15.05-.197.058-.396.116-.586.19a4.403 4.403 0 0 0-.447-.621 3.337 3.337 0 0 0-.53-.504c-.034-.027-.068-.054-.103-.078a2.499 2.499 0 0 0-.602-.316c-.006-.003-.011-.009-.018-.01h-.005a2.275 2.275 0 0 0-.674-.11c-.023-.001-.043-.011-.067-.011-.037 0-.08.019-.118.02a2.64 2.64 0 0 0-.558.095c-.066.018-.13.034-.198.057-.252.089-.51.203-.777.371-.955.601-1.403 1.562-1.535 2.627-2.77.586-5.885 1.081-8.634 1.092l-.095.003c-2.962 0-5.364.87-7.133 2.475a9.143 9.143 0 0 0-1.358 1.549v.002c-.2.287-.387.587-.56.901-.089.16-.163.334-.245.502-.078.161-.164.317-.236.485v.003c-.146.341-.278.695-.396 1.063-.119.367-.224.748-.314 1.141-.07.302-.125.616-.178.932-.016.097-.039.19-.054.288v.002a17.94 17.94 0 0 0-.141 1.288v.005c-.033.44-.053.892-.057 1.355-.008.93.001 1.772.026 2.533v.006c.025.759.065 1.44.116 2.047v.003c.051.608.116 1.144.187 1.616v.003c.072.471.153.98.24 1.332v.003c.086.351.18.648.275.896v.002c.095.248.195.446.293.606v.003c.098.159.198.277.293.365a.852.852 0 0 0 .275.18c.564.209.394-.052.304-.172a.39.39 0 0 1-.056-.08l.25.154.252.16v-.317l.236.032.206.028.593-.389.062-.122h.568s.423-.14.553-.512c.014-.04.035-.063.046-.11v-.002c.038-.159.06-.354.044-.593-.048-.723.258-1.111.2-1.591a1.503 1.503 0 0 0-.2-.562c-.25-.442-.714-2.57-.797-4.711l-.005-.094c-.04-1.085-.032-2.168.048-3.032v-.003c.233-2.813 3.463-3.392 5.668-4.092.316-.097.626-.176.926-.232.9-.169 1.703-.365 2.649-.489a14.924 14.924 0 0 1 2.147-.122h.003l.062.002c1.23.019 2.752.17 4.804.549.005.369.035.207.093.744v.011c.159 1.469.485 2.32.936 3.097.45.777 1.024 1.477 1.677 2.64l.003.003c.198.359.406.681.625.966l.002.003c.22.285.45.534.69.747.239.212.49.388.748.53l.003.002c.258.141.525.248.802.319 1.113.288 2.373.02 3.755-.763 1.138-.676 1.98-.993 2.752-1.439.193-.11.38-.23.569-.365a6.07 6.07 0 0 0 .565-.46c.19-.174.383-.37.582-.598v-.002c.198-.228.407-.484.622-.781.057-.078.069-.117.12-.19.27-.382.51-.728.672-1.014.417-.314.835-.633 1.23-.893.958-.653 2.005-1.666 2.651-2.818v-.003c.323-.575.545-1.186.607-1.804v-.003c.016-.154.021-.307.016-.462v-.002a3.184 3.184 0 0 0-.373-1.388 3.915 3.915 0 0 0-.471-.7c-.054-.063-.112-.108-.168-.164a2.717 2.717 0 0 0-.362-.322c-.072-.05-.148-.091-.222-.133a2.208 2.208 0 0 0-1.06-.295c-.055-.001-.11-.007-.165-.005-.21.007-.424.036-.64.091l-.016.003h-.002a4.378 4.378 0 0 0-1.284.588l-.007-.01a6.87 6.87 0 0 0-.378-.487c-.033-.038-.06-.08-.093-.117v-.003c.06-.129.134-.3.19-.486.056-.185.095-.384.088-.564-.246.295-.319.991-.718.583a.433.433 0 0 1-.098-.139.163.163 0 0 1-.005-.11c.01-.03.049-.047.075-.07.139-.125.442-.167.442-.167l-.002-.003s-.476-.365-.852-.383a.46.46 0 0 0-.177.023.34.34 0 0 0-.144.1c.154-.587-.003-.9-.198-1.066-.196-.167-.43-.188-.43-.188v.002s.175.19.25.41c.007.024.023.044.028.068v.003a.407.407 0 0 1-.02.248v.002a.31.31 0 0 1-.119.131c-.018.011-.04.012-.06.02-.038.017-.076.035-.118.04-.104-.064-.212-.125-.318-.185-.04-.022-.076-.047-.116-.068a.653.653 0 0 1 0-.376v-.005a.546.546 0 0 0-.576.099 9.922 9.922 0 0 0-.328-.141l.088-.457.11-.57-.002.006v-.006l-.556.886a9.027 9.027 0 0 0-.248-.087c-.02-.27-.116-.572-.396-.752a.973.973 0 0 0-.348-.133c-.094.359-.282.52-.484.564-.072-.014-.146-.024-.218-.036-.072-.013-.144-.026-.216-.037a.7.7 0 0 1-.24-.214.427.427 0 0 1-.076-.277.545.545 0 0 1 .152-.316c.244-.262.69-.378.69-.378s-.078-.036-.201-.066a1.291 1.291 0 0 0-.342-.036zm-24.21 29.973v.705l-.504-.32v.386l-.569-.322.127.322-.507-.256.064.64-.504-.512.188.895-.504-.256.442 1.155-.633-.833.443 1.154-.378-.256.504 1.026-.443-.386.507.705-.442-.256s2.272 4.362 6.062 6.863c.947.625 2.001 1.342 3.181 2.05 1.18.707 2.488 1.404 3.94 1.99a20.716 20.716 0 0 0 7.59 1.53c.968.01 1.98-.047 3.038-.183a9.527 9.527 0 0 0 2.778-.773 7.94 7.94 0 0 0 2.055-1.36c.865-.791 1.503-1.723 1.97-2.675v-.002c1.401-2.857 1.28-5.9 1.28-5.9-2.36 5.42-4.483 7.143-8.065 6.163-.328-.089-.678-.218-1.031-.352a18.093 18.093 0 0 1-1.703-.744c-6.745-3.375-16.486-9.237-16.486-9.237l-.062.45-.947-.834v.256l-.442-.45-.064.387-.443-.642v.514l-.442-.642z" opacity=".2" fill-rule="evenodd"/>
    <path d="M45.268 7.001c-.014 0-.03.01-.044.01a1.027 1.027 0 0 0-.316.08.951.951 0 0 0-.265.148 1.667 1.667 0 0 0-.311.41 2.246 2.246 0 0 0-.19.475c-.004.012-.008.017-.011.029-.146-.707-1.674-.535-1.674-.535l.002.002h-.005s.128.087.252.21c.062.06.124.129.17.2v.003a.372.372 0 0 1 .07.211v.003c-.263.03-.52.073-.775.128-.055-.125-.049-.313-.036-.512.013-.2.032-.409-.003-.582l-.002.005v-.008a2.056 2.056 0 0 0-.242.577 4.208 4.208 0 0 0-.113.614c-.05.014-.099.035-.15.05-.197.058-.396.115-.586.19a4.403 4.403 0 0 0-.447-.621 3.337 3.337 0 0 0-.53-.504c-.034-.027-.068-.054-.103-.079a2.499 2.499 0 0 0-.602-.316c-.006-.002-.011-.008-.018-.01h-.005a2.275 2.275 0 0 0-.674-.11c-.023 0-.043-.01-.067-.01-.037 0-.08.019-.118.02a2.64 2.64 0 0 0-.558.095c-.066.018-.13.034-.198.057-.252.089-.51.203-.777.37-.955.602-1.403 1.563-1.535 2.628-2.77.585-5.885 1.081-8.634 1.092l-.095.002c-2.962 0-5.364.872-7.133 2.476a9.143 9.143 0 0 0-1.358 1.548v.003c-.2.287-.387.587-.56.901-.089.16-.163.334-.245.501-.078.162-.164.318-.236.486v.003c-.146.341-.278.695-.396 1.063-.119.367-.224.748-.314 1.14-.07.303-.125.617-.178.933-.016.097-.039.189-.054.287v.003a17.94 17.94 0 0 0-.141 1.287v.006c-.033.44-.053.892-.057 1.355-.008.93.001 1.771.026 2.533v.005c.025.76.065 1.44.116 2.048v.002c.051.608.116 1.144.187 1.617v.002c.072.472.153.98.24 1.333v.003c.086.351.18.647.275.895v.003c.095.247.195.446.293.606v.002c.098.16.198.278.293.366a.852.852 0 0 0 .275.18c.564.208.394-.052.304-.172a.39.39 0 0 1-.056-.08l.25.154.252.16v-.317l.236.031.206.03.593-.39.062-.123h.568s.423-.139.553-.511c.014-.04.035-.064.046-.11v-.003c.038-.158.06-.353.044-.593-.048-.722.258-1.11.2-1.59a1.503 1.503 0 0 0-.2-.562c-.25-.443-.714-2.57-.797-4.711l-.005-.094c-.04-1.086-.032-2.168.048-3.032v-.003c.233-2.813 3.463-3.392 5.668-4.092.316-.097.626-.177.926-.233.9-.168 1.703-.364 2.649-.488a14.924 14.924 0 0 1 2.147-.123h.003l.062.003c1.23.019 2.752.17 4.804.548.005.37.035.208.093.745v.011c.159 1.468.485 2.32.936 3.097.45.777 1.024 1.477 1.677 2.64l.003.003c.198.358.406.68.625.966l.002.002c.22.286.45.535.69.747.239.213.49.389.748.53l.003.003c.258.14.525.247.802.319 1.113.288 2.373.02 3.755-.763 1.138-.676 1.98-.993 2.752-1.439.193-.11.38-.23.569-.366a6.07 6.07 0 0 0 .565-.46c.19-.173.383-.37.582-.597v-.003c.198-.228.407-.483.622-.78.057-.079.069-.117.12-.191.27-.381.51-.727.672-1.013.417-.314.835-.633 1.23-.894.958-.653 2.005-1.665 2.651-2.817v-.003c.323-.576.545-1.186.607-1.804v-.003c.016-.154.021-.308.016-.462v-.003a3.184 3.184 0 0 0-.373-1.387 3.915 3.915 0 0 0-.471-.7c-.054-.063-.112-.109-.168-.165a2.717 2.717 0 0 0-.362-.32c-.072-.052-.148-.093-.222-.134a2.208 2.208 0 0 0-1.06-.295c-.055-.002-.11-.007-.165-.005-.21.006-.424.036-.64.091l-.016.003h-.002a4.378 4.378 0 0 0-1.284.587l-.007-.01a6.87 6.87 0 0 0-.378-.486c-.033-.038-.06-.08-.093-.117v-.003c.06-.129.134-.3.19-.486.056-.185.095-.384.088-.564-.246.294-.319.99-.718.582a.433.433 0 0 1-.098-.138.163.163 0 0 1-.005-.11c.01-.03.049-.047.075-.07.139-.125.442-.167.442-.167l-.002-.003s-.476-.366-.852-.384a.459.459 0 0 0-.177.024.34.34 0 0 0-.144.099c.154-.587-.003-.9-.198-1.066-.196-.166-.43-.188-.43-.188v.003s.175.19.25.41c.007.024.023.044.028.068v.003a.407.407 0 0 1-.02.248v.002a.31.31 0 0 1-.119.13c-.018.012-.04.013-.06.022-.038.016-.076.034-.118.039-.104-.064-.212-.125-.318-.186-.04-.022-.076-.046-.116-.067a.653.653 0 0 1 0-.376v-.006a.546.546 0 0 0-.576.1 9.925 9.925 0 0 0-.328-.142l.088-.457.11-.569-.002.005v-.005l-.556.885a9.027 9.027 0 0 0-.248-.086c-.02-.27-.116-.572-.396-.752a.973.973 0 0 0-.348-.133c-.094.358-.282.52-.484.564-.072-.014-.146-.025-.218-.036-.072-.013-.144-.026-.216-.037a.7.7 0 0 1-.24-.214.427.427 0 0 1-.076-.277.545.545 0 0 1 .152-.316c.244-.263.69-.379.69-.379s-.078-.035-.201-.065a1.291 1.291 0 0 0-.342-.037zm-24.21 29.974v.705l-.504-.321v.386l-.569-.32.127.32-.507-.256.064.64-.504-.512.188.896-.504-.256.442 1.154-.633-.833.443 1.155-.378-.256.504 1.026-.443-.386.507.705-.442-.256s2.272 4.361 6.062 6.863c.947.625 2.001 1.342 3.181 2.05 1.18.707 2.488 1.404 3.94 1.99a20.716 20.716 0 0 0 7.59 1.53c.968.009 1.98-.047 3.038-.183a9.527 9.527 0 0 0 2.778-.773 7.94 7.94 0 0 0 2.055-1.36c.865-.791 1.503-1.723 1.97-2.675v-.002c1.401-2.858 1.28-5.9 1.28-5.9-2.36 5.42-4.483 7.143-8.065 6.163-.328-.09-.678-.218-1.031-.352a18.093 18.093 0 0 1-1.703-.745c-6.745-3.374-16.486-9.236-16.486-9.236l-.062.449-.947-.833v.256l-.442-.45-.064.387-.443-.642v.514l-.442-.642z" fill="#48B9C7" fill-rule="evenodd"/>
    <path d="M42.91 20.013c-.818.051-1.009.171-.867.903.14.733.53 1.764 1.431 2.026.902.263 1.715-.419 2.174-.976.46-.557.582-.579-.335-1.253-.917-.674-1.586-.75-2.404-.7z" fill="#504945" fill-rule="evenodd"/>
    <path d="M45.266 7.002c-.014.001-.028.009-.041.01a1.027 1.027 0 0 0-.317.078.953.953 0 0 0-.265.148 1.657 1.657 0 0 0-.31.41 2.257 2.257 0 0 0-.192.477c-.004.011-.007.016-.01.027-.146-.706-1.674-.535-1.674-.535l.002.004h-.006s.128.087.252.21c.062.06.125.127.17.198v.004a.372.372 0 0 1 .07.211v.002c-.261.03-.518.074-.773.129-.056-.125-.05-.312-.037-.512.013-.199.033-.408-.002-.582l-.004.004v-.008a2.06 2.06 0 0 0-.24.578 4.203 4.203 0 0 0-.114.614c-.05.014-.1.036-.15.05-.198.059-.396.115-.586.19a4.398 4.398 0 0 0-.447-.621 3.333 3.333 0 0 0-.53-.504 2.499 2.499 0 0 0-.705-.395c-.006-.002-.01-.007-.017-.01h-.006a2.275 2.275 0 0 0-.674-.11c-.023-.001-.043-.01-.066-.01-.038 0-.081.019-.12.021-.18.01-.365.041-.556.094-.066.018-.132.033-.2.056a3.79 3.79 0 0 0-.777.372c-.955.6-1.402 1.561-1.535 2.627-2.769.585-5.883 1.08-8.633 1.091-.03 0-.065.004-.095.004-2.962 0-5.364.87-7.133 2.475a9.141 9.141 0 0 0-1.358 1.549v.002c-.2.286-.387.588-.56.902-.088.16-.163.333-.244.5-.079.162-.165.318-.237.486v.002c-.146.342-.278.695-.396 1.063-.118.367-.224.75-.314 1.142-.07.302-.125.616-.178.932-.016.097-.038.189-.053.287v.002c-.062.417-.11.848-.142 1.29v.003c-.034.44-.053.892-.057 1.355-.003.297.007.529.008.807.007-.394.02-.784.049-1.162v-.004c.033-.441.08-.87.142-1.287v-.004c.015-.098.037-.19.053-.287.053-.316.108-.63.178-.932.09-.393.196-.773.314-1.14.118-.368.25-.723.396-1.065v-.002c.072-.168.158-.324.237-.486.081-.167.156-.34.244-.5.173-.314.36-.616.56-.902v-.002c.4-.574.853-1.091 1.358-1.55 1.769-1.603 4.171-2.474 7.133-2.474.03 0 .065-.004.095-.004 2.75-.01 5.864-.506 8.633-1.091.133-1.066.58-2.026 1.535-2.627a3.79 3.79 0 0 1 .778-.372c.067-.023.133-.038.199-.056.191-.053.376-.084.557-.094.038-.002.08-.021.119-.021.023 0 .043.01.066.011.234.005.46.038.674.11h.006c.006.002.011.007.017.01.213.073.411.184.602.316a3.333 3.333 0 0 1 .633.582c.16.19.312.39.447.621.19-.075.388-.131.586-.19.05-.014.1-.036.15-.05.023-.192.057-.405.114-.614.056-.208.132-.409.24-.576v.008l.004-.006c.035.174.015.383.002.582-.013.2-.019.387.037.512a7.91 7.91 0 0 1 .773-.127v-.004a.372.372 0 0 0-.07-.21V9.03a1.194 1.194 0 0 0-.17-.2c-.124-.123-.252-.21-.252-.21h.006l-.002-.004s1.528-.171 1.674.535c.003-.011.006-.016.01-.027a2.257 2.257 0 0 1 .25-.578c.079-.125.161-.231.252-.307a.961.961 0 0 1 .265-.15c.042-.017.082-.018.123-.03a.418.418 0 0 1-.07-.261.547.547 0 0 1 .152-.317c.244-.262.69-.378.69-.378s-.078-.037-.201-.067a1.308 1.308 0 0 0-.334-.035h-.002zm.93.797c-.095.358-.283.519-.485.562-.072-.014-.145-.023-.217-.035l-.148-.025c-.084.05-.166.11-.233.181a.547.547 0 0 0-.152.317c-.01.095.02.19.076.275.058.086.142.16.24.215.072.01.145.025.217.037.072.012.145.021.217.035.202-.043.39-.204.484-.562.14.026.254.073.348.133.28.18.376.481.396.752.084.028.166.056.248.086l.5-.8-.14-.06.088-.457.111-.568-.004.004v-.004l-.554.885a9.03 9.03 0 0 0-.249-.086c-.02-.27-.116-.573-.396-.752a.971.971 0 0 0-.348-.133zm2.728.863v.002s.175.19.25.41c.008.024.022.044.027.069v.003a.406.406 0 0 1-.02.249v.001a.314.314 0 0 1-.118.131c-.019.011-.04.011-.06.02-.037.016-.076.034-.118.039-.104-.064-.21-.123-.317-.184-.04-.022-.077-.047-.117-.068a.656.656 0 0 1 0-.377v-.004a.546.546 0 0 0-.576.098l-.148-.065-.092.467-.088.457c.11.045.22.092.328.14a.546.546 0 0 1 .576-.097v.004a.656.656 0 0 0 0 .377c.04.021.077.046.117.068.106.06.213.122.317.186.042-.005.08-.023.119-.04.02-.008.04-.01.059-.02a.314.314 0 0 0 .119-.132v-.001a.406.406 0 0 0 .02-.249v-.003c-.006-.025-.02-.043-.028-.067-.075-.22-.25-.41-.25-.41v-.004s.234.023.43.19c.195.166.35.477.197 1.064a.343.343 0 0 1 .144-.1.46.46 0 0 1 .178-.023c.376.018.852.385.852.385l.002.002s-.303.043-.442.168c-.026.023-.064.04-.074.07a.16.16 0 0 0 .004.11.433.433 0 0 0 .097.138c.314.321.43-.037.583-.35-.017-.02-.032-.042-.05-.062-.032-.038-.058-.082-.091-.12v-.001c.06-.13.133-.301.19-.487.056-.185.095-.382.087-.562-.245.294-.32.99-.718.582a.433.433 0 0 1-.098-.139.16.16 0 0 1-.004-.109c.01-.03.048-.047.074-.07.139-.125.442-.168.442-.168l-.002-.002s-.476-.367-.852-.385a.46.46 0 0 0-.178.023.343.343 0 0 0-.144.1c.154-.587-.002-.9-.197-1.066-.196-.167-.43-.188-.43-.188zm4.25 2.406a2.95 2.95 0 0 0-.64.09l-.016.004h-.002c-.427.112-.86.31-1.286.588l-.007-.012c-.072-.102-.153-.197-.23-.295-.015.069-.03.139-.05.205a3.665 3.665 0 0 1-.19.485v.004c.034.037.06.079.093.117.133.157.26.317.377.484l.007.012a4.388 4.388 0 0 1 1.286-.588h.002c.005-.001.01 0 .015-.002.216-.055.43-.085.64-.092.056-.002.11.003.165.004a2.399 2.399 0 0 1 .683.123c.13.044.255.103.377.172.074.042.15.084.221.135.126.09.247.201.363.32.056.056.114.103.168.166.169.2.327.427.471.7.184.347.275.7.324 1.056.01-.067.027-.135.034-.203v-.002c.015-.154.02-.308.015-.463v-.002a3.182 3.182 0 0 0-.373-1.386 3.928 3.928 0 0 0-.47-.702c-.055-.063-.113-.108-.169-.164a2.718 2.718 0 0 0-.363-.32 2.46 2.46 0 0 0-.22-.135 2.215 2.215 0 0 0-1.061-.295c-.055-.001-.109-.006-.164-.004zM19.955 23.215c-.013.581-.01 1.19.012 1.814.001.032.004.062.006.094.083 2.141.547 4.268.797 4.711.049.088.079.164.109.24.06-.236.118-.448.09-.68a1.494 1.494 0 0 0-.2-.56c-.249-.443-.713-2.57-.796-4.711-.002-.032-.005-.062-.006-.094-.01-.276-.008-.542-.012-.814zm1.104 13.76v.705l-.504-.32v.386l-.569-.322.125.322-.506-.256.065.639-.506-.512.19.897-.504-.256.441 1.154-.633-.834.278.723.418.213-.19-.897.506.512-.065-.639.506.256-.125-.322.569.322v-.387l.504.32v-.704l.441.642v-.513l.443.642.065-.387.441.45v-.256l.947.832.061-.45s9.741 5.862 16.486 9.237c.606.303 1.165.542 1.703.746.354.134.704.262 1.032.352 3.555.972 5.674-.728 8.013-6.051.045-.635.053-1.114.053-1.114-2.36 5.42-4.484 7.144-8.066 6.165-.328-.09-.678-.22-1.032-.354a18.095 18.095 0 0 1-1.703-.744c-6.745-3.375-16.486-9.236-16.486-9.236l-.06.449-.948-.832v.256l-.441-.45-.065.387-.443-.642v.513l-.441-.642zm-2.336 2.502l.257.527.311.408-.285-.744-.283-.191zm.062.64l.172.24-.05-.134-.122-.106zm.108.475l.209.14-.01-.025-.2-.115z" fill="#F9F5D7" fill-rule="evenodd" opacity=".2"/>
    <circle cx="43.839" cy="3.265" r="1.5" transform="rotate(15)" fill="#504945"/>
    <circle cx="-51.118" cy="3.385" r="1.5" transform="scale(-1 1) rotate(-15)" fill="#504945"/>
</svg>
