<svg xmlns="http://www.w3.org/2000/svg" width="64" height="64" version="1">
    <g fill="#928274">
        <path d="M58 40v2H6v-2zM58 46v2H6v-2zM58 52v2H6v-2zM58 22v2H6v-2zM58 28v2H6v-2zM58 34v2H6v-2zM58 16v2H6v-2zM58 10v2H6v-2z"/>
    </g>
    <g fill="#928274">
        <path d="M24 58h-2V6h2zM18 58h-2V6h2zM12 58h-2V6h2zM42 58h-2V6h2zM36 58h-2V6h2zM30 58h-2V6h2zM48 58h-2V6h2zM54 58h-2V6h2z"/>
    </g>
    <path d="M8 52.602v2C8 55.932 9.338 57 11 57h42c1.662 0 3-1.068 3-2.398v-2C56 53.932 54.662 55 53 55H11c-1.662 0-3-1.068-3-2.398z" opacity=".2"/>
    <rect width="48" height="48" x="-56" y="-56" rx="2.4" ry="3" transform="matrix(0 -1 -1 0 0 0)" fill="#BDAD93"/>
    <path d="M11 8c-1.662 0-3 1.069-3 2.398v1C8 10.068 9.338 9 11 9h42c1.662 0 3 1.069 3 2.398v-1C56 9.068 54.662 8 53 8H11z" opacity=".2" fill="#F9F5D7"/>
    <rect width="36" height="36" x="14" y="14" rx="2" ry="2" fill="#CB241D"/>
</svg>
