<svg xmlns="http://www.w3.org/2000/svg" width="64" height="64">
    <path d="M32.15 5.002a6.341 6.367 0 0 0-3.321.85L10.171 16.667A6.341 6.367 0 0 0 7 22.182v21.634a6.341 6.367 0 0 0 3.17 5.514L28.83 60.147a6.341 6.367 0 0 0 6.34 0L53.829 49.33a6.341 6.367 0 0 0 3.17-5.514V22.182a6.341 6.367 0 0 0-3.17-5.515L35.17 5.851A6.341 6.367 0 0 0 32.149 5z" opacity=".2"/>
    <path d="M32.15 4.002a6.341 6.367 0 0 0-3.321.85L10.171 15.667A6.341 6.367 0 0 0 7 21.182v21.634a6.341 6.367 0 0 0 3.17 5.514L28.83 59.147a6.341 6.367 0 0 0 6.34 0L53.829 48.33a6.341 6.367 0 0 0 3.17-5.514V21.182a6.341 6.367 0 0 0-3.17-5.515L35.17 4.851A6.341 6.367 0 0 0 32.149 4z" fill="#504945"/>
    <path d="M10.711 16.75c-1.572.914-3.219 1.38-3.578 3.169l22.09 12.376v3.171L32 33.4l-1.389-3.65 1.39.85-2.25-3.959-.675-1.123-17.238-9.096-1.582-.049c-.288.06.877.256.455.377z" opacity=".3"/>
    <path d="M32.148 4.002a6.341 6.367 0 0 0-3.32.85L10.17 15.668A6.341 6.367 0 0 0 7 21.182v1a6.341 6.367 0 0 1 3.17-5.514L28.828 5.852a6.341 6.367 0 0 1 3.32-.85h.002a6.341 6.367 0 0 1 3.02.85l18.658 10.814a6.341 6.367 0 0 1 3.17 5.516v-1a6.341 6.367 0 0 0-3.17-5.516L35.17 4.852a6.341 6.367 0 0 0-3.02-.85h-.002z" fill="#F9F5D7" opacity=".1"/>
    <path d="M14.592 19.671a3.83 5.132-19.759 0 1-1.831 6.15 3.83 5.132-19.759 0 1-5.353-3.492 3.83 5.132-19.759 0 1 1.832-6.15 3.83 5.132-19.759 0 1 5.352 3.492zM31.592 28.671a3.83 5.132-19.759 0 1-1.832 6.15 3.83 5.132-19.759 0 1-5.352-3.492 3.83 5.132-19.759 0 1 1.832-6.15 3.83 5.132-19.759 0 1 5.352 3.492z" fill="#F9F5D7"/>
    <path d="M23.092 24.171a5.132 3.83 70.241 0 1-1.832 6.15 5.132 3.83 70.241 0 1-5.352-3.492 5.132 3.83 70.241 0 1 1.832-6.15 5.132 3.83 70.241 0 1 5.352 3.492z" fill="#F9F5D7"/>
    <path d="M7.64 18.399A6.341 6.367 0 0 0 7 21.182v21.634a6.341 6.367 0 0 0 3.172 5.513l18.657 10.817a6.341 6.367 0 0 0 3.171.85V32.05z" fill="#CB8819"/>
    <path d="M56.376 18.45L31.997 32.11 32 59.996a6.341 6.367 0 0 0 3.169-.85l18.66-10.817A6.341 6.367 0 0 0 57 42.816V21.182a6.341 6.367 0 0 0-.624-2.731z" fill="#B57514"/>
    <path d="M56.376 18.45L31.997 32.11v8.405l24.38-13.658A6.341 6.367 0 0 1 57 29.588v-8.406a6.341 6.367 0 0 0-.624-2.731z" opacity=".1" fill="#F9F5D7"/>
    <path d="M17.05 15.729l11.12-2.517 4.312-6.176v0M23.858 19.618l10.894-2.402 4.312-6.749M30.213 23.278l10.78-2.516 4.312-6.406" opacity=".2" fill="none" stroke="#F9F5D7" stroke-width="1.394"/>
    <path d="M56.377 26.855L31.998 40.514v1l24.379-13.659A6.341 6.367 0 0 1 57 30.588v-1a6.341 6.367 0 0 0-.623-2.733zM7.64 18.398A6.341 6.367 0 0 0 7 21.182v1a6.341 6.367 0 0 1 .64-2.784L32 33.048v-1L7.64 18.399z" opacity=".1"/>
    <path d="M56.377 18.451L31.998 32.11v1l24.379-13.658a6.341 6.367 0 0 1 .623 2.73v-1a6.341 6.367 0 0 0-.623-2.73z" fill="#F9F5D7" opacity=".1"/>
    <path d="M17 28.765v6.666l-9.967-5.764v6.666L17 42.098v6.667l7.68-.883L32.033 47l-7.353-9.118L17 28.765" opacity=".3" fill="#F9F5D7"/>
    <path d="M7.033 36.334v1L17 43.098v-1l-9.967-5.764zm24.264 10.754l-6.617.795-7.68.883v1l7.68-.883L32.033 48l-.736-.912z" opacity=".1"/>
    <path d="M17 28.766v1l7.68 9.117 6.617 8.205.736-.088-7.353-9.117L17 28.766zm-9.967.9v1L17 36.432v-1l-9.967-5.766z" opacity=".2" fill="#F9F5D7"/>
</svg>
