<svg xmlns="http://www.w3.org/2000/svg" width="64" height="64" version="1">
    <path d="M31.996 4c-1.653 0-3.26.621-4.527 1.932L4.926 29.212A6.876 6.876 0 0 0 3 33.87v.115c0 4.99 12.607.144 13.809 6.245.65 3.301-6.803 1.79-6.803 5.11 0 3.898 12.104.719 14.715 4.429 1.998 2.84-5.08 2.963-3.494 5.681 1.36 2.332 6.224.839 7.035 3.973.926 3.58 6.89 3.18 10.26.342 2.065-1.74-2.745-2.83-.868-4.772 1.877-1.941 10.816-1.577 10.317-5.79-.33-2.79-3.79-3.096-3.844-6.247-.187-2.668 3.296-1.89 12.908-4.545 3.844-1.806 3.98-2.765 3.965-4.428v-.113c-.022-1.677-.797-3.371-2.04-4.656L36.528 5.932A6.208 6.208 0 0 0 32 4zm26.422 40.004c-.445-.015-.894.024-1.211.121-.597.189-3.426.297-3.193 2.656 2.562 1.18 6.47 2.117 6.935-.242.35-1.769-1.195-2.48-2.531-2.535zm-45.445 7.018c-.25.032-.422.145-.666.251-1.952.85-3.259 2.636-1.436 3.416 1.823.78 3.042-.044 4.64-1.011 1.6-.968 1.556-1.144 1.44-1.518-.221.05-1.675-.985-3.205-1.138a3.51 3.51 0 0 0-.773 0z" opacity=".2" fill-rule="evenodd"/>
    <path d="M31.996 3c-1.653 0-3.26.621-4.527 1.932L4.926 28.212A6.876 6.876 0 0 0 3 32.87v.115c0 4.99 12.607.144 13.809 6.245.65 3.301-6.803 1.789-6.803 5.11 0 3.897 12.104.719 14.715 4.429 1.998 2.84-5.08 2.963-3.494 5.681 1.36 2.332 6.224.839 7.035 3.973.926 3.58 6.89 3.18 10.26.342 2.065-1.74-2.745-2.83-.868-4.772 1.877-1.942 10.816-1.577 10.317-5.79-.33-2.79-3.79-3.097-3.844-6.247-.187-2.668 3.296-1.89 12.908-4.545 3.844-1.806 3.98-2.765 3.965-4.428v-.113c-.022-1.677-.797-3.371-2.04-4.656L36.528 4.932A6.208 6.208 0 0 0 32 3h-.004zm26.422 40.004c-.445-.015-.894.024-1.211.121-.597.189-3.426.297-3.193 2.656 2.562 1.18 6.47 2.117 6.935-.242.35-1.769-1.195-2.481-2.531-2.535zM12.973 50.02c-.25.033-.422.146-.666.252-1.952.85-3.259 2.636-1.436 3.416 1.823.78 3.042-.044 4.64-1.011 1.6-.968 1.556-1.144 1.44-1.518-.221.05-1.675-.985-3.205-1.139a3.51 3.51 0 0 0-.773 0z" fill="#504945" fill-rule="evenodd"/>
    <path d="M32.104 11.005c1.7.015 6.361 5.782 10.52 10.102 1.17 1.57-.453 3.178-.453 3.178l-8.71-4.767-3.845 5.221-3.393-5.107-2.037 7.945-5.995-3.632 1.584-2.044 9.388-9.647c.72-.734 1.271-1.261 2.94-1.248z" opacity=".2" fill-rule="evenodd"/>
    <path d="M32.104 10.005c1.7.015 6.361 5.782 10.52 10.102 1.17 1.57-.453 3.178-.453 3.178l-8.71-4.767-3.845 5.221-3.393-5.107-2.037 7.945-5.995-3.632 1.584-2.044 9.388-9.647c.72-.734 1.271-1.261 2.94-1.248z" fill="#F9F5D7" fill-rule="evenodd"/>
    <path d="M31.996 3c-1.653 0-3.26.621-4.527 1.932L4.926 28.212A6.876 6.876 0 0 0 3 32.87v.115c0 .133.014.256.031.375a6.876 6.876 0 0 1 1.895-4.146L27.469 5.932A6.206 6.206 0 0 1 31.996 4H32c1.652 0 3.26.621 4.527 1.932l22.434 23.28c1.186 1.228 1.938 2.827 2.023 4.429.014-.21.018-.426.016-.659v-.113c-.022-1.677-.797-3.371-2.04-4.656L36.528 4.932A6.208 6.208 0 0 0 32 3h-.004zM16.762 40.057c-.71 2.212-6.756 1.286-6.756 4.283 0 .172.032.326.078.472.765-2.631 7.337-1.473 6.725-4.583-.012-.061-.033-.114-.047-.172zm27.402 2.322c-.034.174-.052.36-.037.576.052 3.08 3.352 3.449 3.809 6.07.053-.254.07-.526.035-.824-.315-2.657-3.462-3.067-3.807-5.822zm14.254.625c-.445-.015-.894.024-1.211.121-.597.189-3.426.297-3.193 2.656.033.016.071.03.105.045.509-1.434 2.586-1.542 3.088-1.701.317-.097.766-.136 1.211-.121 1.065.043 2.247.515 2.512 1.598.005-.023.015-.04.02-.063.349-1.769-1.196-2.481-2.532-2.535zM12.973 50.02c-.25.033-.422.146-.666.252-1.561.68-2.704 1.956-2.168 2.84.306-.684 1.139-1.392 2.168-1.84.244-.106.416-.219.666-.252a3.51 3.51 0 0 1 .773 0c1.122.113 2.194.696 2.777.981.521-.403.509-.582.428-.842-.221.05-1.675-.985-3.205-1.139a3.51 3.51 0 0 0-.773 0zm11.982.176c-.723 1.497-4.618 2.045-3.836 3.994.75-1.49 4.66-2.034 3.836-3.994zm12.39 5.227c-.58 1.137 1.026 1.99 1.544 2.918.65-1.056-1.05-1.897-1.543-2.918z" fill="#F9F5D7" fill-rule="evenodd" opacity=".1"/>
</svg>
