<svg xmlns="http://www.w3.org/2000/svg" width="64" height="64">
    <path d="M40.978 51.164l-3.666.194-5.052 2.727L47.12 61c-.185-4.5-3.815-6.74-6.142-9.836zM21.142 51.164l3.666.194 5.052 2.727L15 61c.186-4.5 3.815-6.74 6.142-9.836z" opacity=".2"/>
    <path d="M40.978 50.164l-3.666.194-5.052 2.727L47.12 60c-.185-4.5-3.815-6.74-6.142-9.836zM21.142 50.164l3.666.194 5.052 2.727L15 60c.186-4.5 3.815-6.74 6.142-9.836z" fill="#7CB668"/>
    <path d="M28.451 20.205c-.511-.31-3.348-9.25-3.44-11.529-.13-3.238.895-6.353 3.88-3.641 1.43 1.298 9.548 11.47 9.446 11.773-.331.977-9.161 3.837-9.886 3.397z" fill="#CB241D"/>
    <path d="M27.008 4.004c-1.542-.116-2.094 2.243-1.996 4.672.077-2.034.668-3.772 1.996-3.672.514.039 1.136.353 1.883 1.031 1.235 1.122 7.447 8.851 9.048 11.13.206-.135.364-.258.397-.356.103-.303-8.016-10.476-9.445-11.774-.747-.678-1.37-.992-1.883-1.031z" opacity=".1" fill="#F9F5D7"/>
    <path d="M28.08 17.037l-2.528-1.979 1.154-.918c1.696-1.35 8.94-5.825 12.775-7.108 1.855-.62 3.444-1.128 3.531-1.128.37 0 .107 1.908-.565 4.103-.66 2.158-2.869 10.59-5.657 12.12-2.311 1.27-6.753 3.303-7.988 2.012-1.262-1.32.694-5.994-.722-7.102z" fill="#CB241D"/>
    <path d="M43.012 5.902c-.087 0-1.676.509-3.532 1.13-3.834 1.281-11.076 5.758-12.773 7.109l-1.156.918.635.496.521-.414c1.697-1.351 8.94-5.828 12.773-7.11 1.856-.62 3.445-1.129 3.532-1.129.049 0 .083.043.11.11.082-.668.06-1.11-.11-1.11zM28.543 20.035c-.092.952-.208 1.932-.158 2.74.033-.56.102-1.157.158-1.74.028.165.037.35.047.533.03-.56.028-1.086-.047-1.533z" opacity=".1" fill="#F9F5D7"/>
    <path d="M47.683 13c-.723 0-17.976 4.61-18.545 5.274-.29.338.074 1.145 1.168 2.654-1.003 2.46-1.47 5.93-2.332 5.791-1.092-.175-3.152-7.124-2.344-1.076.64 4.788-3.086-.795-5.126 7.23-1.95 7.668-2.081 12.5-.44 16.149 1.733 3.851 2.21 6.995 6.796 7.792 2.737.475 11.225.006 14.04-1.024 4.74-1.734 10.005-7.018 10.096-12.613.192-11.717-7.401-13.879-3.313-30.177z" opacity=".2"/>
    <path d="M47.683 12c-.723 0-17.976 4.61-18.545 5.274-.29.338.074 1.145 1.168 2.654-1.003 2.46-1.47 5.93-2.332 5.791-1.092-.175-3.152-7.124-2.344-1.076.64 4.788-3.086-.795-5.126 7.23-1.95 7.668-2.081 12.5-.44 16.149 1.733 3.851 2.21 6.995 6.796 7.792 2.737.475 11.225.006 14.04-1.024 4.74-1.734 10.005-7.018 10.096-12.613.192-11.716-7.401-13.879-3.313-30.177z" fill="#FA4934"/>
    <path d="M47.684 12c-.723 0-17.978 4.609-18.547 5.273-.148.173-.101.489.105.94 1.233-.794 16.632-4.916 18.211-5.166.075-.346.138-.679.23-1.047zm-17.832 9.266c-.703 2.215-1.164 4.568-1.88 4.453-.977-.158-2.684-5.538-2.454-2.338.258-.747 1.625 3.204 2.455 3.338.715.115 1.176-2.238 1.879-4.453.066.1.144.21.212.31.078-.22.156-.442.24-.65-.18-.25-.311-.448-.452-.66zm16.648.382a25.839 25.839 0 0 0-.006 1.791c.003-.263-.005-.517.006-.79.306 7.97 4.355 11.43 4.484 19.703.004-.06.011-.118.012-.176.145-8.89-4.18-12.292-4.496-20.528zm-20.906 4.665c-.573 1.579-3.404-1.07-5.09 5.562-1.113 4.376-1.615 7.81-1.55 10.645.06-2.637.565-5.772 1.55-9.645 1.686-6.632 4.517-3.983 5.09-5.563.016.133.015.185.035.333.02.151.023.265.035.396.053-.325.049-.767-.035-1.396-.02-.148-.019-.2-.035-.332z" opacity=".1" fill="#F9F5D7"/>
    <path d="M24.676 56.815c-4.565-.794-8.82-3.928-10.546-7.765-1.634-3.636-1.503-8.45.437-16.09 2.03-7.997 2.643-13.603 2.006-18.375-.805-6.026-.821-5.687.266-5.512 1.498.241 8.382 4.17 12.49 7.128 12.64 9.1 17.932 19.644 14.782 29.453-1.71 5.323-4.526 8.413-9.242 10.14-2.802 1.027-7.47 1.494-10.193 1.02z" opacity=".2"/>
    <path d="M24.676 55.815c-4.565-.794-8.82-3.928-10.546-7.765-1.634-3.636-1.503-8.45.437-16.09 2.03-7.997 2.643-13.603 2.006-18.375-.805-6.026-.821-5.687.266-5.512 1.498.241 8.382 4.17 12.49 7.128 12.64 9.1 17.932 19.644 14.782 29.453-1.71 5.323-4.526 8.413-9.242 10.14-2.802 1.027-7.47 1.494-10.193 1.02z" fill="#FA4934"/>
    <path d="M16.227 8.012c-.218.059-.27.389-.19 1.302.035-.166.09-.275.19-.302.138-.038.341.018.613.062 1.498.242 8.38 4.168 12.488 7.125 9.952 7.165 15.324 15.226 15.629 23.117.13-8.208-5.256-16.649-15.629-24.117-4.108-2.957-10.99-6.883-12.488-7.125-.272-.044-.475-.1-.613-.062zm.554 10.363c-.11 3.741-.82 8.093-2.215 13.586-1.107 4.36-1.607 7.78-1.543 10.603.06-2.625.564-5.746 1.543-9.603 1.395-5.493 2.104-9.845 2.215-13.586.008.244.004.5.006.75.013-.597.012-1.182-.006-1.75z" opacity=".2" fill="#F9F5D7"/>
</svg>
