<svg xmlns="http://www.w3.org/2000/svg" width="64" height="64" version="1">
    <rect width="56" height="56" x="4" y="4" rx="3" ry="3" fill="#504945"/>
    <path d="M7 4C5.338 4 4 5.338 4 7v1c0-1.662 1.338-3 3-3h50c1.662 0 3 1.338 3 3V7c0-1.662-1.338-3-3-3H7z" opacity=".1" fill="#F9F5D7"/>
    <path d="M4 56v2c0 1.662 1.338 3 3 3h50c1.662 0 3-1.338 3-3v-2c0 1.662-1.338 3-3 3H7c-1.662 0-3-1.338-3-3zM31.709 13.002c-.954 0-2.424.087-3.414.264-.988.176-1.966.42-2.93.728-.96.31-1.885.663-2.78 1.06-.891.397-1.718.817-2.476 1.259l2.701 5.355c1.501-.742 2.955-1.37 4.356-1.883 1.405-.51 3.418-.765 4.635-.765 1.395 0 2.433.325 3.113.978.679.652 1.022 1.485 1.022 2.492 0 .652-.073 1.725-.215 2.22-.14.495-.37.967-.688 1.417a8.142 8.142 0 0 1-1.244 1.363c-.511.461-1.139.982-1.88 1.565-.848.67-1.772 1.32-2.374 1.947-.6.626-1.09 1.272-1.469 1.934a8.198 8.198 0 0 0-.847 2.093c-.187.733-.219 1.548-.219 2.45V40h6.932v-2.152c0-.565.05-1.056.146-1.47.098-.414.278-.816.543-1.206.263-.386.63-.798 1.098-1.23a30.68 30.68 0 0 1 1.816-1.524c.97-.776 1.524-1.515 2.256-2.213a12.103 12.103 0 0 0 1.83-2.17 8.977 8.977 0 0 0 1.098-2.437c.246-.875.37-1.868.37-2.98 0-1.52-.27-2.87-.81-4.054a8.332 8.332 0 0 0-2.316-3.021c-1.005-.83-1.934-1.46-3.383-1.893-1.447-.432-3.07-.648-4.871-.648zM30.539 44c-.633 0-1.227.08-1.781.238-.557.16-1.04.415-1.45.768-.41.353-.732.816-.962 1.389-.231.574-.346 1.274-.346 2.103v.002c0 .793.115 1.476.346 2.04.23.563.55 1.032.963 1.403.408.368.893.637 1.449.805a6.125 6.125 0 0 0 1.781.252c.598 0 1.167-.084 1.705-.252a3.825 3.825 0 0 0 1.424-.807c.41-.37.733-.84.973-1.402.24-.564.359-1.246.359-2.041 0-.83-.12-1.53-.36-2.103-.24-.573-.563-1.036-.972-1.39a3.824 3.824 0 0 0-1.424-.767A6.04 6.04 0 0 0 30.54 44z" opacity=".2"/>
    <path d="M31.709 12.002c-.954 0-2.424.087-3.414.264-.988.176-1.966.42-2.93.728-.96.31-1.885.663-2.78 1.06-.891.397-1.718.817-2.476 1.259l2.701 5.355c1.501-.742 2.955-1.37 4.356-1.883 1.405-.51 3.418-.765 4.635-.765 1.395 0 2.433.325 3.113.978.679.652 1.022 1.485 1.022 2.492 0 .652-.073 1.725-.215 2.22-.14.495-.37.967-.688 1.417a8.142 8.142 0 0 1-1.244 1.363c-.511.461-1.139.982-1.88 1.565-.848.67-1.772 1.32-2.374 1.947-.6.626-1.09 1.272-1.469 1.934a8.198 8.198 0 0 0-.847 2.093c-.187.733-.219 1.548-.219 2.45V39h6.932v-2.152c0-.565.05-1.056.146-1.47.098-.414.278-.816.543-1.206.263-.386.63-.798 1.098-1.23a30.68 30.68 0 0 1 1.816-1.524c.97-.776 1.524-1.515 2.256-2.213a12.103 12.103 0 0 0 1.83-2.17 8.977 8.977 0 0 0 1.098-2.437c.246-.875.37-1.868.37-2.98 0-1.52-.27-2.87-.81-4.054a8.332 8.332 0 0 0-2.316-3.021c-1.005-.83-1.934-1.46-3.383-1.893-1.447-.432-3.07-.648-4.871-.648zM30.539 43c-.633 0-1.227.08-1.781.238-.557.16-1.04.415-1.45.768-.41.353-.732.816-.962 1.389-.231.574-.346 1.274-.346 2.103v.002c0 .793.115 1.476.346 2.04.23.563.55 1.032.963 1.403.408.368.893.637 1.449.805a6.125 6.125 0 0 0 1.781.252c.598 0 1.167-.084 1.705-.252a3.825 3.825 0 0 0 1.424-.807c.41-.37.733-.84.973-1.402.24-.564.359-1.246.359-2.041 0-.83-.12-1.53-.36-2.103-.24-.573-.563-1.036-.972-1.39a3.824 3.824 0 0 0-1.424-.767A6.04 6.04 0 0 0 30.54 43z" fill="#BDAD93"/>
</svg>
