<svg xmlns="http://www.w3.org/2000/svg" width="64" height="64" version="1">
    <rect width="50" height="56" x="-58" y="-60" rx="2.778" ry="2.8" transform="matrix(0 -1 -1 0 0 0)" opacity=".2"/>
    <rect width="50" height="56" x="-57" y="-60" rx="2.778" ry="2.8" transform="matrix(0 -1 -1 0 0 0)" fill="#F9F5D7"/>
    <rect width="22" height="11" x="7" y="34" rx="1.375" ry="1.375" fill="#A79984"/>
    <rect width="22" height="11" x="35" y="34" rx="1.375" ry="1.375" fill="#A79984"/>
    <path d="M25.676 26.521l-7.711 8.996-1.438-1.234a1.094 1.008 34.165 0 0-1.726.512l-.494 2.963-.493 2.964a1.094 1.008 34.165 0 0 .424 1.03 1.094 1.008 34.165 0 0 1.012.205l2.932-.871 2.933-.87a1.094 1.008 34.165 0 0 .291-1.744l-1.394-1.197 7.713-8.996zm12.648 0l-2.049 1.758 7.627 8.899-1.507 1.294a1.008 1.094 55.835 0 0 .29 1.745l2.934.869 2.932.87a1.008 1.094 55.835 0 0 1.011-.204 1.008 1.094 55.835 0 0 .424-1.03l-.492-2.964L49 34.795a1.008 1.094 55.835 0 0-1.727-.512l-1.322 1.135z" opacity=".1"/>
    <path d="M26.7 26.4l-8.4 9.8v0M37.3 26.4l8.4 9.8" fill="none" stroke="#3A393A" stroke-width="2.7"/>
    <path d="M14.238 40.753a1.094 1.008 34.165 0 0 1.011.204l2.932-.87 2.934-.87a1.094 1.008 34.165 0 0 .29-1.743l-2.437-2.094-2.441-2.097a1.094 1.008 34.165 0 0-1.726.511l-.495 2.964-.492 2.966a1.094 1.008 34.165 0 0 .424 1.029z" fill="#504945"/>
    <rect width="22" height="11" x="21" y="18" rx="1.375" ry="1.375" opacity=".1"/>
    <rect width="22" height="11" x="21" y="17" rx="1.375" ry="1.375" fill="#A79984"/>
    <path d="M49.562 40.753a1.008 1.094 55.835 0 1-1.011.204l-2.932-.87-2.934-.87a1.008 1.094 55.835 0 1-.29-1.743l2.437-2.094 2.441-2.097a1.008 1.094 55.835 0 1 1.726.511l.495 2.964.492 2.966a1.008 1.094 55.835 0 1-.424 1.029z" fill="#504945"/>
    <path d="M6.8 7A2.783 2.783 0 0 0 4 9.777v1A2.783 2.783 0 0 1 6.8 8h50.4c1.55 0 2.8 1.238 2.8 2.777v-1A2.783 2.783 0 0 0 57.2 7H6.8z" fill="#F9F5D7" opacity=".2"/>
</svg>
