<svg xmlns="http://www.w3.org/2000/svg" width="64" height="64" version="1">
    <path d="M2 58v2c0 1.662 1.338 3 3 3h36c1.662 0 3-1.338 3-3v-2c0 1.662-1.338 3-3 3H5c-1.662 0-3-1.338-3-3z" opacity=".2"/>
    <path d="M5 20h36c1.662 0 3 1.338 3 3v36c0 1.662-1.338 3-3 3H5c-1.662 0-3-1.338-3-3V23c0-1.662 1.338-3 3-3z" fill="#FA4934"/>
    <path d="M26.624 51h-9.232l-1.457 4H10l8-24h8l8 24h-5.934l-1.442-4zm-7.76-5h6.272l-3.128-9.374z" opacity=".2"/>
    <path d="M26.624 50h-9.232l-1.457 4H10l8-23.999h8l8 24h-5.934L26.624 50zm-7.76-5h6.272l-3.128-9.373z" fill="#F9F5D7"/>
    <path d="M5 20c-1.662 0-3 1.338-3 3v1c0-1.662 1.338-3 3-3h36c1.662 0 3 1.338 3 3v-1c0-1.662-1.338-3-3-3H5z" opacity=".2" fill="#F9F5D7"/>
    <path d="M20 40v2c0 1.662 1.338 3 3 3h36c1.662 0 3-1.338 3-3v-2c0 1.662-1.338 3-3 3H23c-1.662 0-3-1.338-3-3z" opacity=".2"/>
    <path d="M23 2h36c1.662 0 3 1.338 3 3v36c0 1.662-1.338 3-3 3H23c-1.662 0-3-1.338-3-3V5c0-1.662 1.338-3 3-3z" fill="#066678"/>
    <path d="M32 13v24h10.398c3.233 0 5.643-.567 7.227-1.703C51.209 34.16 52 32.436 52 30.12c0-1.511-.368-2.787-1.105-3.826-.738-1.04-1.78-1.753-3.125-2.139 1.052-.396 1.854-1.002 2.408-1.816.553-.825.83-1.822.83-2.99 0-2.219-.759-3.83-2.278-4.838C47.222 13.504 44.78 13 41.406 13H32zm6 4h3.875c1.025 0 1.8.216 2.33.648.53.422.795 1.04.795 1.852 0 .823-.266 1.445-.795 1.867-.53.422-1.305.633-2.33.633H38v-5zm0 10h4.078c1.313 0 2.295.25 2.945.752.651.491.977 1.232.977 2.225 0 1.012-.33 1.77-.992 2.271-.651.501-1.628.752-2.93.752H38v-6z" opacity=".2"/>
    <path d="M32 12v24h10.398c3.233 0 5.643-.567 7.227-1.703C51.209 33.16 52 31.436 52 29.12c0-1.511-.368-2.787-1.105-3.826-.738-1.04-1.78-1.753-3.125-2.139 1.052-.396 1.854-1.002 2.408-1.816.553-.825.83-1.822.83-2.99 0-2.219-.759-3.83-2.278-4.838C47.222 12.504 44.78 12 41.406 12H32zm6 4h3.875c1.025 0 1.8.216 2.33.648.53.422.795 1.04.795 1.852 0 .823-.266 1.445-.795 1.867-.53.422-1.305.633-2.33.633H38v-5zm0 10h4.078c1.313 0 2.295.25 2.945.752.651.491.977 1.232.977 2.225 0 1.012-.33 1.77-.992 2.271-.651.501-1.628.752-2.93.752H38v-6z" fill="#F9F5D7"/>
    <path d="M23 2c-1.662 0-3 1.338-3 3v1c0-1.662 1.338-3 3-3h36c1.662 0 3 1.338 3 3V5c0-1.662-1.338-3-3-3H23z" opacity=".2" fill="#F9F5D7"/>
</svg>
