<svg xmlns="http://www.w3.org/2000/svg" width="64" height="64" version="1">
    <path d="M32 3.998c-4.432 0-8 3.568-8 8v9.34l-3.543-3.543a6.111 6.111 0 0 0-8.66 0 6.111 6.111 0 0 0 0 8.66L23.34 37.998 11.797 49.541a6.111 6.111 0 0 0 0 8.66 6.111 6.111 0 0 0 8.66 0l7.39-7.39c1.213.738 2.624 1.187 4.153 1.187 1.529 0 2.94-.45 4.152-1.187l7.391 7.39a6.111 6.111 0 0 0 8.66 0 6.111 6.111 0 0 0 0-8.66L40.66 37.998l11.543-11.543a6.111 6.111 0 0 0 0-8.66 6.111 6.111 0 0 0-8.66 0L40 21.338v-9.34c0-4.432-3.568-8-8-8z" opacity=".2"/>
    <path d="M32 3c-4.432 0-8 3.568-8 8v9.34l-3.543-3.543a6.111 6.111 0 0 0-8.66 0 6.111 6.111 0 0 0 0 8.66L23.34 37 11.797 48.543a6.111 6.111 0 0 0 0 8.66 6.111 6.111 0 0 0 8.66 0l7.39-7.39C29.06 50.55 30.472 51 32 51c1.529 0 2.94-.45 4.152-1.188l7.391 7.391a6.111 6.111 0 0 0 8.66 0 6.111 6.111 0 0 0 0-8.66L40.66 37l11.543-11.543a6.111 6.111 0 0 0 0-8.66 6.111 6.111 0 0 0-8.66 0L40 20.34V11c0-4.432-3.568-8-8-8z" fill="#7CB668"/>
    <path d="M32 3c-4.432 0-8 3.568-8 8v.998c0-4.432 3.568-8 8-8s8 3.568 8 8V11c0-4.432-3.568-8-8-8zM16.127 14.998c-1.566 0-3.131.6-4.33 1.799a6.102 6.102 0 0 0-1.776 4.828 6.101 6.101 0 0 1 1.776-3.83 6.111 6.111 0 0 1 8.66 0L24 21.338v-.998l-3.543-3.543a6.105 6.105 0 0 0-4.33-1.799zm31.746 0c-1.565 0-3.13.6-4.33 1.799L40 20.34v.998l3.543-3.543a6.111 6.111 0 0 1 8.66 0 6.101 6.101 0 0 1 1.776 3.83 6.102 6.102 0 0 0-1.776-4.828 6.105 6.105 0 0 0-4.33-1.799zM22.84 37.5L11.797 48.543a6.102 6.102 0 0 0-1.776 4.828 6.101 6.101 0 0 1 1.776-3.83L23.34 37.998l-.5-.498zm18.32 0l-.5.498 11.543 11.543a6.101 6.101 0 0 1 1.776 3.83 6.102 6.102 0 0 0-1.776-4.828L41.16 37.5z" opacity=".1" fill="#F9F5D7"/>
    <rect width="42" height="36" x="-58" y="-50" rx="21" ry="18" transform="matrix(0 -1 -1 0 0 0)" opacity=".2"/>
    <rect width="42" height="36" x="-57" y="-50" rx="21" ry="18" transform="matrix(0 -1 -1 0 0 0)" fill="#A79984"/>
</svg>
