<svg xmlns="http://www.w3.org/2000/svg" width="64" height="64">
    <path d="M4.05 32.005c-.01.333-.05.66-.05.996C4 48.512 16.488 61 32 61c14.951 0 27.09-11.605 27.949-26.335l.05-.046v-2l-.05.046C59.092 47.395 46.952 59 31.999 59 16.827 59 4.58 47.044 4.05 32.005z" opacity=".2"/>
    <circle cx="32" cy="32.005" r="27.999" fill="#7CB668"/>
    <circle cx="32" cy="33.005" r="20" opacity=".2"/>
    <circle cx="32" cy="32.005" r="20" fill="#F9F5D7"/>
    <path d="M32.055 17.996c-.164.017-.292.127-.332.322a1.15 1.15 0 0 0 .027.471c.04.138.072.307.072.375s.062.212.135.322c.125.186.125.208.03.342-.14.196-.382.333-.66.375-.227.035-.233.042-.233.293 0 .234-.026.275-.268.445a1.5 1.5 0 0 1-.521.229c-.197.03-.305.093-.461.275-.24.28-.762.527-1.002.475a.842.842 0 0 1-.332-.201c-.204-.2-.46-.223-.56-.05-.112.192-.015.425.29.7.156.14.281.3.281.354 0 .154-.244.4-.494.496-.476.183-.568.41-.336.83.067.12.153.33.194.469.1.345-.05.768-.352.99-.251.184-.286.404-.09.568.25.208.169.357-.304.559-.683.291-.863.66-.621 1.275.141.362.128.44-.108.606-.226.159-.35.365-.52.861-.145.426-.241.554-.546.732-.318.185-.758.792-.758 1.045 0 .18.5.941.893 1.358.215.229.294.599.181.855-.135.307-.454.634-.724.742-.25.1-.258.101-.545-.04-.16-.08-.441-.3-.623-.49-.418-.436-.568-.453-.797-.093a.949.949 0 0 0-.162.586c0 .386-.026.403-.698.473-.42.043-.62.128-1.047.44-.292.213-.35.215-.593.027-.105-.081-.472-.234-.815-.34-.555-.17-.641-.217-.795-.422a1.447 1.447 0 0 1-.209-.375c-.069-.27-1.009-1.536-1.234-1.664a9.928 9.928 0 0 0-.576-.252c-.446-.184-.507-.194-.975-.164-.6.039-.914.185-1.283.6-.292.328-.387.545-.475 1.1-.203 1.285-.155 1.457.418 1.501.405.03.529.119.786.549.09.151.207.296.26.322.1.05.706.277 1.232.463.36.127.531.264.85.67.125.16.337.403.47.54.133.135.24.293.24.35 0 .058-.142.24-.316.407-.357.339-.39.478-.225.984.076.233.147.32.365.45.15.088.395.264.545.39.272.228.274.23.176.404a.702.702 0 0 1-.17.215c-.039.022-.11.13-.16.239-.082.18-.077.22.041.433.103.185.12.293.088.52-.033.23-.016.319.084.45.068.092.173.287.234.43.172.406.198.423 1.248.834.192.075.248.142.36.43.073.188.164.45.2.58.108.378.46.61.927.61.265 0 .539.091.539.18 0 .11.43.613.67.78.126.09.326.176.455.176.193.015.301.087.68.453.247.24.543.556.658.702.114.146.3.309.412.363v.01c.213.098.33.096 1.728-.02.707-.059.833-.117.924-.43.111-.38.021-.576-.34-.74-.298-.136-.308-.137-.588-.039-.262.084-.31.084-.586 0a4.665 4.665 0 0 0-.537-.123c-.31-.044-.301-.126.032-.264.342-.142.437-.142.636.002.335.243.528.092.451-.351-.033-.19-.007-.23.35-.555.212-.192.507-.412.656-.486.237-.12.327-.13.715-.1.378.03.475.018.65-.082.229-.13.246-.216.13-.617-.069-.235-.062-.29.048-.479.165-.281.454-.542.602-.542.158 0 .568.226.738.408.122.13.192.14.635.16.274.02.528.018.562.02.035 0 .281-.016.547-.036.429-.034.53-.02.897.114.227.083.591.192.808.238.456.098.594.194.795.558.172.313.247.38.819.725.644.39 1.111.422 1.761.12.167-.079.36-.143.428-.143.2 0 .446-.24.535-.526.078-.243.093-.263.309-.263.128 0 .282-.044.351-.102a.563.563 0 0 1 .311-.102c.25 0 .342-.096.342-.357 0-.174.044-.25.224-.397.458-.37.492-.38.827-.244.46.188.666.156 1.496-.234.266-.126.556-.229.646-.229.098 0 .333.12.584.293.602.42.831.382 1.026-.171.127-.363.105-.411-.329-.715-.412-.289-.445-.355-.304-.617.143-.27.394-.405 1.021-.551.522-.122.674-.192 1.563-.711.437-.256.621-.33.812-.33.923 0 1.377-.882 1.479-2.873.015-.296.076-.508.254-.877.447-.927.54-1.232.634-2.106.06-.545.07-.914.034-1.064-.038-.152-.022-.61.046-1.344.178-1.9.141-2.27-.294-2.857a1.18 1.18 0 0 1-.223-.596c-.05-.421-.197-.794-.553-1.408-.291-.503-.442-.703-.92-1.217-.458-.492-.475-.538-.463-1.152.008-.389-.019-.606-.093-.768a1.224 1.224 0 0 1-.104-.422c0-.137-.038-.214-.129-.258-.181-.09-.987-.105-1.08-.021-.04.037-.09.192-.107.342-.026.212-.067.286-.18.334-.212.088-.684-.178-.852-.48-.07-.126-.232-.301-.359-.391-.394-.279-.453-.348-.498-.594-.037-.201-.014-.288.145-.547.223-.366.31-.957.167-1.143-.142-.186-.471-.3-.757-.256-.233.035-.267.066-.424.37a1.416 1.416 0 0 1-.414.494c-.133.09-.335.236-.45.326-.234.184-.494.21-.77.078-.16-.076-.185-.126-.224-.457-.034-.293-.089-.433-.261-.656-.121-.156-.238-.386-.26-.51-.029-.164-.098-.265-.256-.377a1.244 1.244 0 0 1-.312-.32c-.124-.22-.445-.396-.723-.397-.192 0-.278.053-.635.399-.227.22-.466.417-.531.44-.07.021-.284-.022-.52-.108-.449-.166-.624-.179-.85-.065-.13.072-.194.07-.411 0-.339-.11-.505-.066-.672.184-.27.402-.533.387-.627-.037-.052-.233-.245-.342-.61-.344-.142 0-.39-.063-.566-.145-.364-.17-.623-.182-1.06-.05-.302.086-.32.084-.403-.02-.076-.096-.072-.135.033-.293.168-.249.154-.386-.058-.596-.177-.173-.375-.25-.54-.234zm5.554 4.01c.42-.026.936.023 1.664.158.276.05.7.124.942.16l.72.11c.4.06.654.2.813.453.124.196.126.223.037.285-.132.09-.124.158.028.246a.273.273 0 0 1 .124.223c0 .223.113.375.278.375.225 0 .318.14.228.341a.539.539 0 0 0-.056.248c.012.06-.023.081-.106.061-.501-.09-.78.016-.646.248.055.096.036.14-.13.266-.226.174-.25.297-.062.297.079 0 .145.045.164.115.043.152.071.149.268-.028.146-.132.176-.138.29-.064.108.072.122.139.106.512-.022.578.097 1.441.229 1.656.204.334.261.775.19 1.465-.037.35-.084.848-.106 1.105-.031.371-.07.501-.188.633-.162.182-.175.308-.148 1.412.015.61.028.656.205.887.103.134.243.253.313.273.126.03.126.032-.006.188-.073.087-.133.207-.133.265 0 .093.034.1.187.073.16-.03.195-.015.248.117.079.198.236.205.327.021.058-.12.112-.14.373-.142.27-.002.31.015.343.137.046.172.183.224.352.14.173-.086.267.01.426.43.154.41.157.647.008.95-.187.376-.69.71-1.58 1.05-.405.154-.571.255-.76.46-.396.433-.506.6-.492 1.964.02 2.205.022 2.173-.118 2.427-.07.13-.113.282-.185.344l.002-.01c-.105.088-.257.115-.742.137-.337.012-.633.005-.659-.02-.066-.071-.945-.114-1.271-.072-.106.014-.125-.017-.125-.2 0-.218-.204-.5-.26-.36-.113.281-.396.313-.396.045 0-.207-.207-.18-.295.037-.095.239-.303.25-.246.02.115-.475.119-.542.023-.542-.167 0-.245-.144-.172-.324.095-.233.023-.482-.146-.504-.125-.016-.139-.056-.153-.457-.01-.24-.015-.547-.015-.681 0-.293-.164-.272-.469-.497-.137-.101-.22-.214-.22-.296a.466.466 0 0 0-.09-.245c-.088-.112-.093-.11-.249.026-.142.124-.193.133-.49.097-.424-.054-1.016-.089-1.96-.119-.69-.022-1.114-.078-1.266-.166-.033-.018-.382-.065-.776-.101-.393-.036-.811-.1-.927-.147a1.864 1.864 0 0 0-.532-.084 9.24 9.24 0 0 1-.906-.078c-.647-.085-.85-.504-.979-.873a.694.694 0 0 0-.257-.308c-.185-.113-.193-.133-.172-.467.013-.217.061-.387.125-.453.087-.09.092-.148.033-.383-.066-.262-.063-.283.082-.385.084-.06.152-.143.152-.187 0-.044.062-.11.135-.147.102-.051.124-.102.098-.227-.024-.112.01-.223.115-.367.147-.201.147-.208.033-.304-.113-.096-.111-.112.1-.477.199-.344.21-.392.142-.568-.124-.322.156-.764.881-1.393.523-.453.616-.56.742-.88.08-.202.201-.499.272-.659.07-.16.152-.37.18-.467.027-.096.15-.367.275-.601.182-.343.404-.601 1.137-1.315.501-.488 1.017-1.029 1.144-1.203.49-.666.577-.804.643-1.025.037-.126.186-.373.33-.553.263-.329.465-.64.637-.982.226-.451.943-.836 1.953-1.045.123-.026.252-.042.392-.051zm-1.025 7.082a.811.811 0 0 0-.197.1l-.387.251c-.62.398-1.127.963-1.129 1.26 0 .12-.253.602-.488.934-.088.124-.18.336-.207.47a5.28 5.28 0 0 1-.127.49c-.071.222-.07.86.04.975.156.163.588.347.962.405v.002c.16.024.883.05 1.61.05 1.554.009 1.81-.04 2.044-.392.234-.352.3-1.17.236-1.377-.067-.219-.23-.404-.359-.404-.19 0-.582-.257-.62-.405a4.035 4.035 0 0 0-.16-.441c-.194-.46-.28-.683-.368-.96-.083-.255-.54-.864-.721-.958-.032-.017-.075-.017-.129 0z" fill="#FA4934"/>
    <path d="M42.487 25.559c0-.044-.071-.124-.159-.176-.149-.09-.159-.09-.159.02 0 .124.117.247.235.247a.082.082 0 0 0 .083-.08zM38.026 46.362c-.075-.194.284-.524.461-.423.104.06.074.295-.052.4-.137.114-.369.128-.409.024zM41.44 45.954a1.5 1.5 0 0 1-.234-.184c-.063-.084.041-.232.23-.325.143-.07.193-.068.386.02.253.112.26.136.114.418-.123.238-.23.254-.496.076zM38.817 45.686c-.15-.106-.206-.388-.108-.534.057-.086.514-.036.653.07.165.126-.068.573-.297.57a.566.566 0 0 1-.248-.106z" fill="#FA4934"/>
    <path d="M32 3.977v.029A28 28 0 0 0 4 32.004a28 28 0 0 0 .018.492A28 28 0 0 1 32 5.006v-.027A28 28 0 0 1 59.975 32.46a28 28 0 0 0 .025-.484 28 28 0 0 0-28-28z" opacity=".2" fill="#F9F5D7"/>
</svg>
