<svg xmlns="http://www.w3.org/2000/svg" width="64" height="64">
    <path d="M59.957 31.8A28 28 0 0 1 32 59 28 28 0 0 1 4.044 32 28 28 0 0 0 4 33a28 28 0 0 0 28 28 28 28 0 0 0 27.999-28 28 28 0 0 0-.043-1.171z" opacity=".2"/>
    <circle cx="32" cy="32.001" r="28" fill="#73C48F"/>
    <path d="M32 11a22 22 0 0 0-22 22 22 22 0 0 0 22 22 22 22 0 0 0 22-22 22 22 0 0 0-22-22zm-4 4h8l-2 8-2 8-2-8-2-8zM22.1 17.447l4.242 7.07 4.243 7.07-7.07-4.242-7.071-4.242 2.828-2.828 2.828-2.828zm19.797 0l2.828 2.828 2.828 2.828-7.07 4.242-7.07 4.243 4.242-7.07 4.242-7.07zM14 29.046l8 2 8 2-8 2-8 2v-8zm36 0v8l-8-2-8-2 8-2 8-2zM30.586 34.46l-4.242 7.07-4.242 7.07-2.828-2.828-2.829-2.828 7.07-4.242 7.07-4.242zm2.828 0l7.07 4.242 7.07 4.242-2.828 2.828-2.828 2.828-4.242-7.07-4.242-7.07zm-1.414.6l2 8 2 8h-8l2-8 2-8z" opacity=".2"/>
    <path d="M32 10a22 22 0 0 0-22 22 22 22 0 0 0 22 22 22 22 0 0 0 22-22 22 22 0 0 0-22-22zm-4 4h8l-2 8-2 8-2-8-2-8zM22.1 16.447l4.242 7.07 4.243 7.07-7.07-4.242-7.071-4.242 2.828-2.828 2.828-2.828zm19.797 0l2.828 2.828 2.828 2.828-7.07 4.242-7.07 4.243 4.242-7.07 4.242-7.07zM14 28.046l8 2 8 2-8 2-8 2v-8zm36 0v8l-8-2-8-2 8-2 8-2zM30.586 33.46l-4.242 7.07-4.242 7.07-2.828-2.828-2.829-2.828 7.07-4.242 7.07-4.242zm2.828 0l7.07 4.242 7.07 4.242-2.828 2.828-2.828 2.828-4.242-7.07-4.242-7.07zm-1.414.6l2 8 2 8h-8l2-8 2-8z" fill="#B7BB25"/>
    <path d="M32 3.973v.029A28 28 0 0 0 4 32a28 28 0 0 0 .018.492A28 28 0 0 1 32 5v-.027a28 28 0 0 1 27.975 27.482 28 28 0 0 0 .025-.482 28 28 0 0 0-28-28z" opacity=".2" fill="#F9F5D7"/>
</svg>
