<svg xmlns="http://www.w3.org/2000/svg" width="64" height="64">
    <g transform="translate(0 -988.362)">
        <circle cx="32" cy="1021.362" r="28" opacity=".2"/>
        <circle cx="32" cy="1020.362" r="28" fill="#B57514"/>
        <path d="M46.523 1000.366c-1.678 0-3.288.441-4.832 1.328-1.51.853-2.938 2.098-4.28 3.735-1.31 1.603-2.501 3.58-3.575 5.933-1.074 2.319-1.994 4.946-2.766 7.88-.537 2.08-1.076 3.836-1.613 5.269-.537 1.432-1.09 2.623-1.66 3.578-1.242-.478-2.468-1.916-3.676-2.223a12.931 12.931 0 0 0-3.625-.512c-.973 0-1.862.154-2.668.461a8.166 8.166 0 0 0-2.012 1.125c-.57.444-1.023.918-1.359 1.43-.302.515-.457 2.045-.457 2.488 0 .716.337 1.312 1.008 1.79.671.477 1.68.714 3.023.714 3.558 0 6.562-.936 9.012-2.812a97.794 97.794 0 0 0 4.73 1.941c1.645.58 3.458.871 5.438.871 2.249 0 4.044-.474 5.387-1.43 1.342-.988 2.112-2.251 2.918-4.093.033-.206-.01-.343-.145-.41-.1-.102-.221-.102-.355 0-.571 1.16-.991 1.893-1.864 2.507-.872.614-2.15.922-3.828.922-2.014 0-3.857-.224-5.535-.668a59.56 59.56 0 0 1-4.734-1.586c2.08-2.49 3.712-6.02 4.886-10.59.705-2.864 1.392-5.25 2.063-7.16.671-1.91 1.392-3.425 2.164-4.55.772-1.16 1.613-1.815 2.52-2.258.94-.478 2.044-.711 3.32-.711.94 0 1.708.172 2.312.512.638.306 1.108.715 1.41 1.226.303.512.475.926.508 1.54.034.613-.052 1.823-.254 2.437-.033.172.015.291.149.359.168.07.323.054.457-.05.335-.58.65-1.914.953-2.8.302-.923.457-1.73.457-2.412 0-1.057-.323-1.94-.96-2.656-.639-.75-1.476-1.125-2.517-1.125zm-28.242 26.68c1.443 0 2.803.2 4.078.61 1.276.409 2.536 1.942 3.778 2.487a6.073 6.073 0 0 1-2.621 1.532c-.94.238-2.01.359-3.22.359-1.375 0-2.454-.22-3.226-.664-.738-.443-1.105-2.056-1.105-2.738 0-1.057.772-1.586 2.316-1.586zm4.719 8.316a3 3 0 0 0-3 3 3 3 0 0 0 3 3 3 3 0 0 0 3-3 3 3 0 0 0-3-3zm16 0a3 3 0 0 0-3 3 3 3 0 0 0 3 3 3 3 0 0 0 3-3 3 3 0 0 0-3-3zm-8 4a3 3 0 0 0-3 3 3 3 0 0 0 3 3 3 3 0 0 0 3-3 3 3 0 0 0-3-3z" opacity=".2"/>
        <path d="M46.523 999.366c-1.678 0-3.288.441-4.832 1.328-1.51.853-2.938 2.098-4.28 3.735-1.31 1.603-2.501 3.58-3.575 5.933-1.074 2.319-1.994 4.946-2.766 7.88-.537 2.08-1.076 3.836-1.613 5.269-.537 1.432-1.09 2.623-1.66 3.578-1.242-.478-2.468-1.916-3.676-2.223a12.931 12.931 0 0 0-3.625-.512c-.973 0-1.862.154-2.668.461a8.166 8.166 0 0 0-2.012 1.125c-.57.444-1.023.918-1.359 1.43-.302.515-.457 2.045-.457 2.488 0 .716.337 1.312 1.008 1.79.671.477 1.68.714 3.023.714 3.558 0 6.562-.936 9.012-2.812a97.794 97.794 0 0 0 4.73 1.941c1.645.58 3.458.871 5.438.871 2.249 0 4.044-.474 5.387-1.43 1.342-.988 2.112-2.251 2.918-4.093.033-.206-.01-.343-.145-.41-.1-.102-.221-.102-.355 0-.571 1.16-.991 1.893-1.864 2.507-.872.614-2.15.922-3.828.922-2.014 0-3.857-.224-5.535-.668a59.56 59.56 0 0 1-4.734-1.586c2.08-2.49 3.712-6.02 4.886-10.59.705-2.864 1.392-5.25 2.063-7.16.671-1.91 1.392-3.425 2.164-4.55.772-1.16 1.613-1.815 2.52-2.258.94-.478 2.044-.711 3.32-.711.94 0 1.708.172 2.312.512.638.306 1.108.715 1.41 1.226.303.512.475.926.508 1.54.034.613-.052 1.823-.254 2.437-.033.172.015.291.149.359.168.07.323.054.457-.05.335-.58.65-1.914.953-2.8.302-.923.457-1.73.457-2.412 0-1.057-.323-1.94-.96-2.656-.639-.75-1.476-1.125-2.517-1.125zm-28.242 26.68c1.443 0 2.803.2 4.078.61 1.276.409 2.536 1.942 3.778 2.487a6.073 6.073 0 0 1-2.621 1.532c-.94.238-2.01.359-3.22.359-1.375 0-2.454-.22-3.226-.664-.738-.443-1.105-2.056-1.105-2.738 0-1.057.772-1.586 2.316-1.586zm4.719 8.316a3 3 0 0 0-3 3 3 3 0 0 0 3 3 3 3 0 0 0 3-3 3 3 0 0 0-3-3zm16 0a3 3 0 0 0-3 3 3 3 0 0 0 3 3 3 3 0 0 0 3-3 3 3 0 0 0-3-3zm-8 4a3 3 0 0 0-3 3 3 3 0 0 0 3 3 3 3 0 0 0 3-3 3 3 0 0 0-3-3z" fill="#F9F5D7"/>
        <path d="M32 992.362a28 28 0 0 0-28 28 28 28 0 0 0 .018.492A28 28 0 0 1 32 993.362a28 28 0 0 1 27.975 27.492 28 28 0 0 0 .025-.492 28 28 0 0 0-28-28z" opacity=".2" fill="#F9F5D7"/>
    </g>
</svg>
