<svg xmlns="http://www.w3.org/2000/svg" width="64" height="64" version="1">
    <path d="M4 56v2c0 1.662 1.338 3 3 3h50c1.662 0 3-1.338 3-3v-2c0 1.662-1.338 3-3 3H7c-1.662 0-3-1.338-3-3z" opacity=".2"/>
    <rect width="56" height="56" x="4" y="4" rx="3" ry="3" fill="#CB8819"/>
    <path d="M7 4C5.338 4 4 5.338 4 7v1c0-1.662 1.338-3 3-3h50c1.662 0 3 1.338 3 3V7c0-1.662-1.338-3-3-3H7z" opacity=".1" fill="#F9F5D7"/>
    <path d="M18.8 17c-2.437 0-4.851 1.946-4.8 4.364V41h-4v8h44v-8h-4V21.363C50 18.945 47.636 17 45.2 17H18.8zm2.2 4h22c1.625 0 3 1.662 3 3.273v14.543c0 .534.11 2.464-1.204 2.184H19.204C17.89 40.926 18 39.35 18 38.816V24.274C18 22.662 19.375 21 21 21z" opacity=".2"/>
    <path d="M18.8 16c-2.437 0-4.851 1.946-4.8 4.364V40h-4v8h44v-8h-4V20.363C50 17.945 47.636 16 45.2 16H18.8zm2.2 4h22c1.625 0 3 1.662 3 3.273v14.543c0 .534.11 2.464-1.204 2.184H19.204C17.89 39.926 18 38.35 18 37.816V23.274C18 21.662 19.375 20 21 20z" fill="#F9F5D7"/>
</svg>
