<svg xmlns="http://www.w3.org/2000/svg" width="64" height="64" version="1">
    <path d="M59.684 37C57.749 50.598 46.149 61 32 61c-8.653 0-16.376-3.938-21.512-10.105l-3.61 3.609A1.688 1.688 0 0 1 5.665 55 1.688 1.688 0 0 1 4 53.312V38.688A1.688 1.688 0 0 1 5.688 37h14.625a1.688 1.688 0 0 1 1.195 2.879l-2.461 2.46c.117.163.229.328.351.485.217.278.446.546.68.809.077.086.148.177.227.262.196.21.406.41.613.609.222.214.45.42.684.621.203.175.401.352.613.516l.031.023a16.054 16.054 0 0 0 3.793 2.16c.405.163.817.312 1.238.442.198.061.394.125.594.18.548.146 1.11.267 1.68.355.175.027.354.045.531.066.63.076 1.267.133 1.918.133a16 16 0 0 0 15.48-12z" opacity=".2"/>
    <circle cx="32" cy="32" r="22" fill="#F9F5D7"/>
    <path d="M32 5c8.652 0 16.38 3.932 21.516 10.098l3.605-3.606A1.688 1.688 0 0 1 58.336 11 1.688 1.688 0 0 1 60 12.688v14.624A1.688 1.688 0 0 1 58.312 29H43.688a1.688 1.688 0 0 1-1.196-2.879l2.457-2.457c-.021-.03-.037-.064-.058-.094-.212-.289-.431-.57-.66-.843a16.049 16.049 0 0 0-.919-1c-.17-.172-.337-.349-.515-.512-.417-.382-.86-.738-1.317-1.074-.198-.147-.4-.292-.605-.43a15.948 15.948 0 0 0-2.113-1.191 15.87 15.87 0 0 0-1.672-.676c-.18-.061-.365-.11-.547-.164a15.853 15.853 0 0 0-1.938-.461c-.108-.018-.219-.024-.328-.04A16.059 16.059 0 0 0 32 17a16 16 0 0 0-15.48 12H4.316C6.251 15.402 17.851 5 32 5z" opacity=".1"/>
    <path d="M32 4c8.652 0 16.38 3.932 21.516 10.098l3.605-3.606A1.688 1.688 0 0 1 58.336 10 1.688 1.688 0 0 1 60 11.688v14.624A1.688 1.688 0 0 1 58.312 28H43.688a1.688 1.688 0 0 1-1.196-2.879l2.457-2.457c-.021-.03-.037-.064-.058-.094-.212-.289-.431-.57-.66-.843a16.049 16.049 0 0 0-.919-1c-.17-.172-.337-.349-.515-.512-.417-.382-.86-.738-1.317-1.074-.198-.147-.4-.292-.605-.43a15.948 15.948 0 0 0-2.113-1.191 15.87 15.87 0 0 0-1.672-.676c-.18-.061-.365-.11-.547-.164a15.853 15.853 0 0 0-1.938-.461c-.108-.018-.219-.024-.328-.04A16.059 16.059 0 0 0 32 16a16 16 0 0 0-15.48 12H4.316C6.251 14.402 17.851 4 32 4z" fill="#48B9C7"/>
    <path d="M59.684 36C57.749 49.598 46.149 60 32 60c-8.653 0-16.376-3.938-21.512-10.105l-3.61 3.609A1.688 1.688 0 0 1 5.665 54 1.688 1.688 0 0 1 4 52.312V37.688A1.688 1.688 0 0 1 5.688 36h14.625a1.688 1.688 0 0 1 1.195 2.879l-2.461 2.46c.117.163.229.328.351.485.217.278.446.546.68.809.077.086.148.177.227.262.196.21.406.41.613.609.222.214.45.42.684.621.203.175.401.352.613.516l.031.023a16.054 16.054 0 0 0 3.793 2.16c.405.163.817.312 1.238.442.198.061.394.125.594.18.548.146 1.11.267 1.68.355.175.027.354.045.531.066.63.076 1.267.133 1.918.133a16 16 0 0 0 15.48-12z" fill="#8F3F71"/>
    <path d="M32 4C17.85 4 6.25 14.402 4.316 28h.166C6.83 14.896 18.2 5 32 5c8.652 0 16.38 3.932 21.516 10.098l3.605-3.606A1.688 1.688 0 0 1 60 12.687v-1a1.688 1.688 0 0 0-2.879-1.195l-3.605 3.606C48.379 7.932 40.652 4 32 4z" opacity=".2" fill="#F9F5D7"/>
</svg>
