<svg xmlns="http://www.w3.org/2000/svg" width="64" height="64">
    <path d="M32 5A28 28 0 0 0 4 33a28 28 0 0 0 28 28 28 28 0 0 0 28-28A28 28 0 0 0 32 5z" opacity=".2"/>
    <path d="M32 4A28 28 0 0 0 4 32a28 28 0 0 0 28 28 28 28 0 0 0 28-28A28 28 0 0 0 32 4z" fill="#D55C0D"/>
    <path d="M22 24.957c-2.89 0-5.12 1.455-6.293 2.848-1.173 1.392-1.594 2.902-1.594 2.902a3 3 0 0 0-.113.809v14.441a3 3 0 1 0 6 0V32.145c.041-.1.058-.194.293-.473.327-.387.597-.715 1.707-.715 2.279 0 2.135.386 2.02.239a3 3 0 0 0-.02.32v14.441a3 3 0 0 0 .012.301 3 3 0 0 0 .11.586 3 3 0 0 0 .226.559 3 3 0 0 0 .152.257 3 3 0 0 0 .18.239 3 3 0 0 0 .199.222 3 3 0 0 0 .223.203 3 3 0 0 0 .773.457 3 3 0 0 0 .871.208 3 3 0 0 0 .895-.06 3 3 0 0 0 .57-.183 3 3 0 0 0 1.168-.918 3 3 0 0 0 .316-.507A3 3 0 0 0 30 45.957V32.145c.041-.1.058-.194.293-.473.327-.387.597-.715 1.707-.715s1.38.328 1.707.715c.235.28.252.372.293.473v13.812a3 3 0 1 0 6 0V31.516a3 3 0 0 0-.113-.809s-.42-1.51-1.594-2.902C37.12 26.412 34.89 24.957 32 24.957c-1.935 0-3.412.714-4.637 1.563-1.372-.903-3.075-1.563-5.363-1.563z" opacity=".2"/>
    <path d="M27 45V30.56S28 27 32 27s5 3.56 5 3.56V45m-20 0V30.56S18 27 22 27c6 0 5 3.56 5 3.56V45" fill="none" stroke="#E6D3A3" stroke-width="6" stroke-linecap="round" stroke-linejoin="round"/>
    <path d="M46 15c-1.108 0-2 .892-2 2v4h-4c-1.108 0-2 .892-2 2s.892 2 2 2h4v4c0 1.108.892 2 2 2s2-.892 2-2v-4h4c1.108 0 2-.892 2-2s-.892-2-2-2h-4v-4c0-1.108-.892-2-2-2z" opacity=".2"/>
    <rect width="4" height="16" x="20" y="-54" rx="2" ry="2" transform="rotate(90)" fill="#F9F5D7"/>
    <rect width="4" height="16" x="-48" y="-30" rx="2" ry="2" transform="scale(-1)" fill="#F9F5D7"/>
    <path d="M32 4A28 28 0 0 0 4 32a28 28 0 0 0 .021.406A28 28 0 0 1 32 5a28 28 0 0 1 27.979 27.578A28 28 0 0 0 60 32 28 28 0 0 0 32 4z" opacity=".2" fill="#F9F5D7"/>
    <path d="M22 23.957c-2.89 0-5.12 1.455-6.293 2.848-1.173 1.392-1.594 2.902-1.594 2.902a3 3 0 0 0-.113.809v1a3 3 0 0 1 .113-.809s.42-1.51 1.594-2.902c1.173-1.393 3.403-2.848 6.293-2.848 2.288 0 3.991.66 5.363 1.563 1.225-.85 2.702-1.563 4.637-1.563 2.89 0 5.12 1.455 6.293 2.848 1.173 1.392 1.594 2.902 1.594 2.902a3 3 0 0 1 .113.809v-1a3 3 0 0 0-.113-.809s-.42-1.51-1.594-2.902C37.12 25.412 34.89 23.957 32 23.957c-1.935 0-3.412.714-4.637 1.563-1.372-.903-3.075-1.563-5.363-1.563zm2 7.225v.312a3 3 0 0 1 .02-.299c.041.053.045.029-.02-.013z" opacity=".1" fill="#F9F5D7"/>
</svg>
