<svg xmlns="http://www.w3.org/2000/svg" width="64" height="64" version="1">
    <path d="M4 56v2c0 1.662 1.338 3 3 3h50c1.662 0 3-1.338 3-3v-2c0 1.662-1.338 3-3 3H7c-1.662 0-3-1.338-3-3z" opacity=".2"/>
    <rect width="56" height="56" x="4" y="4" rx="3" ry="3" fill="#CB8819"/>
    <path d="M7 4C5.338 4 4 5.338 4 7v1c0-1.662 1.338-3 3-3h50c1.662 0 3 1.338 3 3V7c0-1.662-1.338-3-3-3H7z" opacity=".1" fill="#F9F5D7"/>
    <path d="M40.042 15.077c-.655.51-2.585 4.08-4.514 8.338-.781 1.735-1.887 4.004-2.446 5.047-1.658 3.09-5.71 8.713-7.584 10.507l-1.75 1.688 1.305 1.39c.8.855 1.857 2.633 2.734 4.62C29.45 50.454 29.74 51 30.059 51c.15 0 1.003-.47 1.954-1.061 2.121-1.344 4.104-3.15 6.803-6.222 4.212-4.789 7.374-5.804 11.267-3.605 1.053.598 1.917.973 1.917.833 0-.147-.535-1.59-1.178-3.213a778.437 778.437 0 0 1-3.888-10.19c-1.063-1.747-4.537-13.684-6.892-12.453m-8.395 9.796c-.019 0-.042 0-.066.012-3.563 1.56-4.85 2.27-5.902 3.26-.69.662-1.255 1.366-1.255 1.572 0 .64 2.806 2.346 3.269 1.987.223-.176 1.1-1.43 1.948-2.796 1.497-2.433 2.272-3.999 2.007-4.035m-9.975 6.89c-.608 0-9.218 3.254-9.628 3.64-.12.112.007.318.284.47.276.158 1.85 1.209 3.521 2.34 1.665 1.132 3.112 2.052 3.215 2.058.102 0 .867-.399 1.683-.891 1.719-1.033 5.036-4.227 5.019-4.838-.012-.544-3.317-2.784-4.099-2.784m.007.006" opacity=".1"/>
    <path d="M40.042 14.077c-.655.51-2.585 4.08-4.514 8.337-.781 1.735-1.887 4.005-2.446 5.048-1.658 3.09-5.71 8.713-7.584 10.506l-1.75 1.689 1.305 1.39c.8.855 1.857 2.632 2.734 4.62C29.45 49.453 29.74 50 30.059 50c.15 0 1.003-.47 1.954-1.061 2.121-1.344 4.104-3.15 6.803-6.222 4.212-4.79 7.374-5.804 11.267-3.605 1.053.597 1.917.973 1.917.833 0-.147-.535-1.59-1.178-3.213a778.437 778.437 0 0 1-3.888-10.19c-1.063-1.747-4.537-13.684-6.892-12.453m-8.395 9.796c-.019 0-.042 0-.066.012-3.563 1.56-4.85 2.27-5.902 3.26-.69.662-1.255 1.366-1.255 1.572 0 .64 2.806 2.346 3.269 1.987.223-.176 1.1-1.43 1.948-2.796 1.497-2.433 2.272-3.999 2.007-4.035m-9.975 6.89c-.608 0-9.218 3.253-9.628 3.64-.12.112.007.317.284.47.276.158 1.85 1.209 3.521 2.34 1.665 1.132 3.112 2.052 3.215 2.058.102 0 .867-.4 1.683-.891 1.719-1.033 5.036-4.227 5.019-4.838-.012-.545-3.317-2.784-4.099-2.784m.007.006" fill="#504945"/>
</svg>
