<svg xmlns="http://www.w3.org/2000/svg" width="64" height="64" version="1">
    <path d="M4 52v2c0 1.662 1.338 3 3 3h50c1.662 0 3-1.338 3-3v-2c0 1.662-1.338 3-3 3H7c-1.662 0-3-1.338-3-3z" opacity=".2"/>
    <rect width="48" height="56" x="-56" y="-60" rx="3" ry="3" transform="matrix(0 -1 -1 0 0 0)" fill="#066678"/>
    <path d="M60 53V11c0-1.662-1.338-3-3-3H32v48h25c1.662 0 3-1.338 3-3z" opacity=".2" fill="#F9F5D7"/>
    <path d="M7 8c-1.662 0-3 1.338-3 3v1c0-1.662 1.338-3 3-3h50c1.662 0 3 1.338 3 3v-1c0-1.662-1.338-3-3-3H7z" opacity=".2" fill="#F9F5D7"/>
    <path d="M6 25h10v2H6z" opacity=".2"/>
    <path d="M6 24h10v2H6z" fill="#F9F5D7"/>
    <path d="M6 13h22v2H6z" opacity=".2"/>
    <path d="M6 12h22v2H6z" fill="#F9F5D7"/>
    <path d="M6 17h16v2H6z" opacity=".2"/>
    <path d="M6 16h16v2H6z" fill="#F9F5D7"/>
    <path d="M6 21h12v2H6z" opacity=".2"/>
    <path d="M6 20h12v2H6z" fill="#F9F5D7"/>
    <path d="M36 13h16v2H36z" opacity=".2"/>
    <path d="M36 12h16v2H36z" fill="#F9F5D7"/>
    <path d="M36 17h22v2H36z" opacity=".2"/>
    <path d="M36 16h22v2H36z" fill="#F9F5D7"/>
    <path d="M36 21h14v2H36z" opacity=".2"/>
    <path d="M36 20h14v2H36z" fill="#F9F5D7"/>
    <path d="M36 25h18v2H36z" opacity=".2"/>
    <path d="M36 24h18v2H36z" fill="#F9F5D7"/>
</svg>
