<svg xmlns="http://www.w3.org/2000/svg" width="64" height="64">
    <path d="M32 5A28 28 0 0 0 4 33a28 28 0 0 0 28 28 28 28 0 0 0 28-28A28 28 0 0 0 32 5z" opacity=".2"/>
    <path d="M32 4A28 28 0 0 0 4 32a28 28 0 0 0 28 28 28 28 0 0 0 28-28A28 28 0 0 0 32 4z" fill="#B7BB25"/>
    <rect width="16" height="21" x="24" y="15" rx="1.333" ry="1.313" opacity=".7" fill="#F9F5D7"/>
    <path d="M18.87 33a1.87 1.554 0 0 0-1.62 2.332l13.13 18.891a1.87 1.554 0 0 0 3.24 0l13.13-18.891A1.87 1.554 0 0 0 45.13 33z" opacity=".2"/>
    <path d="M18.87 32a1.87 1.554 0 0 0-1.62 2.332l13.13 18.891a1.87 1.554 0 0 0 3.24 0l13.13-18.891A1.87 1.554 0 0 0 45.13 32z" fill="#F9F5D7"/>
    <path d="M32 4A28 28 0 0 0 4 32a28 28 0 0 0 .021.414A28 28 0 0 1 32 5a28 28 0 0 1 27.979 27.586A28 28 0 0 0 60 32 28 28 0 0 0 32 4z" fill="#F9F5D7" opacity=".2"/>
</svg>
