<svg xmlns="http://www.w3.org/2000/svg" width="64" height="64" version="1">
    <path d="M4 56v2c0 1.662 1.338 3 3 3h50c1.662 0 3-1.338 3-3v-2c0 1.662-1.338 3-3 3H7c-1.662 0-3-1.338-3-3z" opacity=".2"/>
    <rect width="56" height="56" x="4" y="4" rx="3" ry="3" fill="#CB241D"/>
    <path d="M7 4C5.338 4 4 5.338 4 7v1c0-1.662 1.338-3 3-3h50c1.662 0 3 1.338 3 3V7c0-1.662-1.338-3-3-3H7z" opacity=".1" fill="#F9F5D7"/>
    <path d="M16 19v28h8V29h4v18h8V29h4v18h8V23.9c0-2.744-2.054-4.9-4.666-4.9" opacity=".2"/>
    <path d="M16 18v28h8V28h4v18h8V28h4v18h8V22.9c0-2.744-2.054-4.9-4.666-4.9" fill="#F9F5D7"/>
</svg>
