<svg xmlns="http://www.w3.org/2000/svg" width="64" height="64">
    <path d="M32 5A28 28 0 0 0 4 33a28 28 0 0 0 28 28 28 28 0 0 0 28-28A28 28 0 0 0 32 5z" opacity=".2"/>
    <path d="M32 4A28 28 0 0 0 4 32a28 28 0 0 0 28 28 28 28 0 0 0 28-28A28 28 0 0 0 32 4z" fill="#F15C22"/>
    <path d="M38 16a12 4 0 0 0-12 4 12 4 0 0 0 12 4 12 4 0 0 0 12-4 12 4 0 0 0-12-4zm11.605 6.996A12 4 0 0 1 38 26a12 4 0 0 1-11.605-2.996A12 4 0 0 0 26 24a12 4 0 0 0 12 4 12 4 0 0 0 12-4 12 4 0 0 0-.395-1.004zm0 4A12 4 0 0 1 38 30a12 4 0 0 1-11.605-2.996A12 4 0 0 0 26 28a12 4 0 0 0 1.73 2.059c3.636.176 6.72.886 8.532 1.894A12 4 0 0 0 38 32a12 4 0 0 0 12-4 12 4 0 0 0-.395-1.004zm0 4A12 4 0 0 1 38 34v2a12 4 0 0 0 12-4 12 4 0 0 0-.395-1.004zm0 4A12 4 0 0 1 38 38v2a12 4 0 0 0 12-4 12 4 0 0 0-.395-1.004zm0 4A12 4 0 0 1 38 42v2a12 4 0 0 0 12-4 12 4 0 0 0-.395-1.004zm0 4A12 4 0 0 1 38 46c0 .715-.609 1.376-1.594 1.957A12 4 0 0 0 38 48a12 4 0 0 0 12-4 12 4 0 0 0-.395-1.004z" opacity=".2"/>
    <path d="M26 30a12 4 0 0 0-12 4 12 4 0 0 0 12 4 12 4 0 0 0 12-4 12 4 0 0 0-12-4zm11.605 6.996A12 4 0 0 1 26 40a12 4 0 0 1-11.605-2.996A12 4 0 0 0 14 38a12 4 0 0 0 12 4 12 4 0 0 0 12-4 12 4 0 0 0-.395-1.004zm0 4A12 4 0 0 1 26 44a12 4 0 0 1-11.605-2.996A12 4 0 0 0 14 42a12 4 0 0 0 12 4 12 4 0 0 0 12-4 12 4 0 0 0-.395-1.004zm0 4A12 4 0 0 1 26 48a12 4 0 0 1-11.605-2.996A12 4 0 0 0 14 46a12 4 0 0 0 12 4 12 4 0 0 0 12-4 12 4 0 0 0-.395-1.004z" opacity=".2"/>
    <path d="M38 15a12 4 0 0 0-12 4 12 4 0 0 0 12 4 12 4 0 0 0 12-4 12 4 0 0 0-12-4zm11.605 6.996A12 4 0 0 1 38 25a12 4 0 0 1-11.605-2.996A12 4 0 0 0 26 23a12 4 0 0 0 12 4 12 4 0 0 0 12-4 12 4 0 0 0-.395-1.004zm0 4A12 4 0 0 1 38 29a12 4 0 0 1-11.605-2.996A12 4 0 0 0 26 27a12 4 0 0 0 1.73 2.059c3.636.176 6.72.886 8.532 1.894A12 4 0 0 0 38 31a12 4 0 0 0 12-4 12 4 0 0 0-.395-1.004zm0 4A12 4 0 0 1 38 33v2a12 4 0 0 0 12-4 12 4 0 0 0-.395-1.004zm0 4A12 4 0 0 1 38 37v2a12 4 0 0 0 12-4 12 4 0 0 0-.395-1.004zm0 4A12 4 0 0 1 38 41v2a12 4 0 0 0 12-4 12 4 0 0 0-.395-1.004zm0 4A12 4 0 0 1 38 45c0 .715-.609 1.376-1.594 1.957A12 4 0 0 0 38 47a12 4 0 0 0 12-4 12 4 0 0 0-.395-1.004z" fill="#EBDBB2"/>
    <path d="M26 29a12 4 0 0 0-12 4 12 4 0 0 0 12 4 12 4 0 0 0 12-4 12 4 0 0 0-12-4zm11.605 6.996A12 4 0 0 1 26 39a12 4 0 0 1-11.605-2.996A12 4 0 0 0 14 37a12 4 0 0 0 12 4 12 4 0 0 0 12-4 12 4 0 0 0-.395-1.004zm0 4A12 4 0 0 1 26 43a12 4 0 0 1-11.605-2.996A12 4 0 0 0 14 41a12 4 0 0 0 12 4 12 4 0 0 0 12-4 12 4 0 0 0-.395-1.004zm0 4A12 4 0 0 1 26 47a12 4 0 0 1-11.605-2.996A12 4 0 0 0 14 45a12 4 0 0 0 12 4 12 4 0 0 0 12-4 12 4 0 0 0-.395-1.004z" fill="#F9F5D7"/>
    <path d="M32 4A28 28 0 0 0 4 32a28 28 0 0 0 .021.406A28 28 0 0 1 32 5a28 28 0 0 1 27.979 27.578A28 28 0 0 0 60 32 28 28 0 0 0 32 4z" opacity=".2" fill="#F9F5D7"/>
</svg>
