<svg xmlns="http://www.w3.org/2000/svg" width="64" height="64" version="1">
    <path d="M6.8 61C5.25 61 4 59.75 4 58.2v-2C4 57.75 5.25 59 6.8 59h50.4c1.55 0 2.8-1.25 2.8-2.8v2c0 1.55-1.25 2.8-2.8 2.8H32z" opacity=".2"/>
    <path d="M32 4H6.8A2.794 2.794 0 0 0 4 6.8V32h28z" fill="#FECE4F"/>
    <path d="M32 4h25.2C58.751 4 60 5.249 60 6.8V32H32zM32 60H6.8A2.794 2.794 0 0 1 4 57.2V32h28z" fill="#73C48F"/>
    <path d="M32 60h25.2c1.551 0 2.8-1.249 2.8-2.8V32H32z" fill="#066678"/>
    <path d="M6.8 4C5.25 4 4 5.25 4 6.8v1C4 6.25 5.25 5 6.8 5h50.4C58.75 5 60 6.25 60 7.8v-1C60 5.25 58.75 4 57.2 4H6.8z" opacity=".2" fill="#F9F5D7"/>
    <path fill="#3A393A" d="M12 12h40v40H12z"/>
    <path d="M15.014 46h16" opacity=".2" fill="none" stroke="#151819" stroke-width="2" stroke-linecap="round"/>
    <path d="M15.014 45h16" fill="none" stroke="#F9F5D7" stroke-width="2" stroke-linecap="round"/>
    <path d="M25.008 33.986v-16m-10 0l4.992 8 5.008-8m-10 16v-16" opacity=".2" fill="none" stroke="#151819" stroke-width="2" stroke-linecap="round" stroke-linejoin="round"/>
    <path d="M25.008 32.986v-16m-10 0l4.992 8 5.008-8m-10 16v-16" fill="none" stroke="#F9F5D7" stroke-width="2" stroke-linecap="round" stroke-linejoin="round"/>
    <path d="M29.014 26.052s8 .929 8-4c0-4.93-8-4-8-4m0 16v-16" opacity=".2" fill="none" stroke="#151819" stroke-width="2" stroke-linecap="round" stroke-linejoin="bevel"/>
    <path d="M29.014 25.052s8 .929 8-4c0-4.93-8-4-8-4m0 16v-16" fill="none" stroke="#F9F5D7" stroke-width="2" stroke-linecap="round" stroke-linejoin="bevel"/>
    <path d="M41.006 31.999s1.01 2.002 4 2.001c2.992-.001 4-2.001 4-4.001 0-8.429-8 .422-7.976-7.981-.024-2.019.944-4.019 3.976-4.019 3.033 0 4 2 4 2" opacity=".2" fill="none" stroke="#151819" stroke-width="2" stroke-linecap="round" stroke-linejoin="round"/>
    <path d="M41.006 30.999s1.01 2.002 4 2.001c2.992-.001 4-2.001 4-4.001 0-8.429-8 .422-7.976-7.981-.024-2.019.944-4.019 3.976-4.019 3.033 0 4 2 4 2" fill="none" stroke="#F9F5D7" stroke-width="2" stroke-linecap="round" stroke-linejoin="round"/>
</svg>
