<svg xmlns="http://www.w3.org/2000/svg" width="64" height="64" version="1">
    <path d="M24 19v37.8c0 2.327 1.895 4.2 4.25 4.2h8.5c2.355 0 4.25-1.873 4.25-4.2V19zM7 19v37.8c0 2.327 1.896 4.2 4.25 4.2h8.5c2.355 0 4.25-1.873 4.25-4.2V19zM41 19v37.8c0 2.327 1.895 4.2 4.25 4.2h8.5c2.355 0 4.25-1.873 4.25-4.2V19z" opacity=".2"/>
    <path d="M24 18v37.8c0 2.327 1.895 4.2 4.25 4.2h8.5c2.355 0 4.25-1.873 4.25-4.2V18z" fill="#F9BD2E"/>
    <path d="M28.25 11L24 18h17l-4.25-7z" fill="#928274"/>
    <path d="M32.5 5l-4.25 7h8.5z" opacity=".2"/>
    <path d="M32.5 4l-4.25 7h8.5z" fill="#F9BD2E"/>
    <path opacity=".1" d="M30 18h5v42h-5z"/>
    <path d="M7 18v37.8c0 2.327 1.896 4.2 4.25 4.2h8.5c2.355 0 4.25-1.873 4.25-4.2V18z" fill="#CB241D"/>
    <path d="M11.25 11L7 18h17l-4.25-7z" fill="#928274"/>
    <path d="M15.5 5l-4.25 7h8.5z" opacity=".2"/>
    <path d="M15.5 4l-4.25 7h8.5z" fill="#CB241D"/>
    <path opacity=".1" d="M13 18h5v42h-5z"/>
    <path d="M41 18v37.8c0 2.327 1.895 4.2 4.25 4.2h8.5c2.355 0 4.25-1.873 4.25-4.2V18z" fill="#8F3F71"/>
    <path d="M45.25 11L41 18h17l-4.25-7z" fill="#928274"/>
    <path d="M49.5 5l-4.25 7h8.5z" opacity=".2"/>
    <path d="M49.5 4l-4.25 7h8.5z" fill="#8F3F71"/>
    <path opacity=".1" d="M47 18h5v42h-5z"/>
    <path d="M32.5 4l-4.25 7h.607L32.5 5l3.643 6h.607L32.5 4zM15.5 4l-4.25 7h.607L15.5 5l3.643 6h.607L15.5 4zM49.5 4l-4.25 7h.607L49.5 5l3.643 6h.607L49.5 4zM7 18h51v1H7z" fill="#F9F5D7" opacity=".2"/>
</svg>
