<svg xmlns="http://www.w3.org/2000/svg" width="64" height="64">
    <circle cx="32" cy="33" r="29" opacity=".2"/>
    <circle cx="32" cy="32" r="29" fill="#F9F5D7"/>
    <path d="M31.777 16C22.204 16 13 23.611 13 33s9.204 17 18.777 17A17.62 17.62 0 0 0 39 48.434V40h14.5l-5.8-6H39v5.926a10.212 10.212 0 0 1-7.223 2.992c-5.584 0-11.554-4.441-11.554-9.918 0-5.477 5.97-9.918 11.554-9.918 2.718.001 5.322 1.076 7.223 2.98V17.57A17.622 17.622 0 0 0 31.777 16zM39 26.063v6h8.7l5.8-6z" opacity=".1"/>
    <path d="M31.778 15C22.205 15 13 22.611 13 32s9.205 17 18.778 17A17.617 17.617 0 0 0 39 47.434v-8.508a10.21 10.21 0 0 1-7.222 2.99c-5.584 0-11.556-4.44-11.556-9.916 0-5.477 5.972-9.917 11.556-9.917A10.21 10.21 0 0 1 39 25.063V16.57A17.619 17.619 0 0 0 31.778 15zM39 25.063h14.5l-5.8 6H39z" fill="#8F3F71"/>
    <path d="M39 39h14.5l-5.8-6H39z" fill="#FA4934"/>
    <path d="M32 3A29 29 0 0 0 3 32a29 29 0 0 0 .018.488A29 29 0 0 1 32 4a29 29 0 0 1 28.975 28.494A29 29 0 0 0 61 32 29 29 0 0 0 32 3z" opacity=".2" fill="#F9F5D7"/>
</svg>
