<svg xmlns="http://www.w3.org/2000/svg" width="64" height="64" version="1">
    <path fill="#F9F5D7" d="M16.6 16.37h30.8v31.262H16.6z"/>
    <path d="M32.05 6.002c-.168-.007-.336.02-.495.078L4.887 15.857A1.38 1.38 0 0 0 4 17.16v11.613c0 .955.91 1.623 1.777 1.305L10 28.528v8.945l-4.223-1.55C4.91 35.602 4 36.272 4 37.226v11.612c0 .586.354 1.11.887 1.305l26.668 9.777a1.287 1.287 0 0 0 .89 0l26.668-9.777A1.38 1.38 0 0 0 60 48.839V37.227c0-.955-.91-1.623-1.777-1.305L54 37.472v-8.944l4.223 1.55c.868.32 1.778-.35 1.777-1.304V17.161a1.38 1.38 0 0 0-.887-1.304L32.445 6.08a1.3 1.3 0 0 0-.394-.078zM32 20.458l12 4.402v16.28l-12 4.403-12-4.402V24.86z" opacity=".2"/>
    <path fill="#8F3F71" d="M44 19h10v23.999H44z"/>
    <path d="M32.052 5.002c-.169-.007-.338.02-.497.078L4.888 14.858A1.38 1.38 0 0 0 4 16.16v11.613c0 .954.91 1.622 1.779 1.303L32 19.46l26.221 9.618c.869.319 1.78-.349 1.779-1.303V16.16a1.38 1.38 0 0 0-.888-1.303L32.445 5.08a1.292 1.292 0 0 0-.393-.078z" fill="#8F3F71"/>
    <path fill="#8F3F71" d="M10 19h10v23.999H10z"/>
    <path d="M32.052 58.997c-.169.007-.338-.02-.497-.078L4.888 49.142A1.38 1.38 0 0 1 4 47.838V36.225c0-.954.91-1.622 1.779-1.303L32 44.54l26.221-9.618c.869-.319 1.78.349 1.779 1.303v11.613a1.38 1.38 0 0 1-.888 1.304l-26.667 9.777c-.126.046-.259.073-.393.078z" fill="#8F3F71"/>
    <path d="M32.05 5.002c-.168-.007-.336.02-.495.078L4.887 14.855A1.38 1.38 0 0 0 4 16.16v1c0-.585.354-1.109.887-1.305L31.555 6.08a1.284 1.284 0 0 1 .89 0l26.668 9.775c.533.196.887.72.887 1.305v-1a1.38 1.38 0 0 0-.887-1.305L32.445 5.08a1.3 1.3 0 0 0-.394-.078zM5.452 34.846a1.245 1.245 0 0 0-.318.01C4.51 34.953 4 35.51 4 36.225v1c0-.715.51-1.272 1.133-1.37.207-.033.427-.014.644.066L10 37.472v-1l-4.223-1.55a1.33 1.33 0 0 0-.326-.076zm53.098 0c-.108.01-.218.036-.326.076L54 36.472v1l4.223-1.55c.217-.08.437-.1.644-.067.622.099 1.133.656 1.133 1.372v-1c0-.716-.51-1.273-1.133-1.372a1.245 1.245 0 0 0-.318-.01zM20 40.14v1l12 4.402 12-4.402v-1l-12 4.4-12-4.4z" opacity=".1" fill="#F9F5D7"/>
    <path d="M7 39.565v8.156l25 9.167v-8.35a3 3 0 0 1-1.031-.18z" opacity=".2"/>
    <path d="M7 38.566v8.155l25 9.168v-8.351a3 3 0 0 1-1.031-.18z" fill="#D3869B"/>
    <path d="M32 9.11v8.35a3 3 0 0 1 1.031.18L57 26.433v-8.156z" opacity=".2"/>
    <path d="M32 8.11v8.351a3 3 0 0 1 1.031.18L57 25.434v-8.156z" fill="#D3869B"/>
</svg>
