<svg xmlns="http://www.w3.org/2000/svg" width="64" height="64" version="1">
    <circle cx="32" cy="33" r="28" opacity=".2"/>
    <path d="M60 32c0 15.463-12.536 27.999-28 27.999-.667 0-.005-.557-.607-.604-9.832-.768-12.498-7.162-16.515-16.606-1.431-3.364-9.429-7.36-9.429-11.247 0-1.3-1.359-2.123-1.187-3.377C6.13 14.516 17.838 4 32 4c.255 0 .585 1.379.838 1.392 7.016.353 13.233 4.14 18.049 8.581C56.436 19.09 60 23.858 60 32z" fill="#F9F5D7" fill-rule="evenodd"/>
    <path d="M32 5v20c10.063 0 19.505 1.122 27.668 3.844A28 28 0 0 0 32.001 5.001z" opacity=".1" fill-rule="evenodd"/>
    <path d="M32 4v20c10.063 0 19.505 1.122 27.668 3.844A28 28 0 0 0 32.001 4z" fill="#504945" fill-rule="evenodd"/>
    <path d="M32 4A28 28 0 0 0 4.002 32a28 28 0 0 0 .018.492A28 28 0 0 1 32 5a28 28 0 0 1 27.975 27.492A28 28 0 0 0 60 32 28 28 0 0 0 32 4z" opacity=".1" fill="#F9F5D7" fill-rule="evenodd"/>
    <path d="M32 24c-9.973 0-19.524 1.108-27.643 3.777A28 28 0 0 0 4 32a28 28 0 0 0 22.437 27.44 28 28 0 0 0 2.762.418c.923.092 1.855.141 2.8.141v-36z" fill="#504945" fill-rule="evenodd"/>
</svg>
