<svg xmlns="http://www.w3.org/2000/svg" width="64" height="64" version="1">
    <rect width="56" height="56" x="4" y="5" rx="2.8" ry="2.8" opacity=".2"/>
    <rect width="56" height="56" x="4" y="4" rx="2.8" ry="2.8" fill="#7CB668"/>
    <path d="M14.857 17C13.274 17 12 18.297 12 19.91v26.18c0 1.613 1.274 2.91 2.857 2.91h3.144V37.18c0-1.204.959-2.18 2.142-2.18h23.714c1.183 0 2.142.976 2.142 2.18V49h3.144C50.726 49 52 47.703 52 46.09V22.91c0-1.612-1.278-3.015-2.857-2.91h-15L28.429 17zM22 39v10h20V39z" opacity=".2"/>
    <path d="M14.857 16C13.274 16 12 17.297 12 18.91v26.18c0 1.613 1.274 2.91 2.857 2.91h3.144V36.18c0-1.204.959-2.18 2.142-2.18h23.714c1.183 0 2.142.976 2.142 2.18V48h3.144C50.726 48 52 46.703 52 45.09V21.91c0-1.612-1.278-3.015-2.857-2.91h-15L28.429 16zM22 38v10h20V38z" fill="#F9F5D7"/>
    <path d="M6.8 4C5.25 4 4 5.25 4 6.8v1C4 6.25 5.25 5 6.8 5h50.4C58.75 5 60 6.25 60 7.8v-1C60 5.25 58.75 4 57.2 4H6.8z" opacity=".2" fill="#F9F5D7"/>
</svg>
