<svg xmlns="http://www.w3.org/2000/svg" width="64" height="64" version="1">
    <path d="M60 33a28 28 0 0 1-28 28A28 28 0 0 1 4 33 28 28 0 0 1 32 5a28 28 0 0 1 28 28z" opacity=".2"/>
    <path d="M60 32a28 28 0 0 1-28 28A28 28 0 0 1 4 32 28 28 0 0 1 32 4a28 28 0 0 1 28 28z" fill="#504945"/>
    <path d="M15.637 22l-4.95 7H21.45l-7.875 15h16.912l7.875-15h5.637l-7.875 15h5.639l11.533-21.969.017-.031H25.124z" opacity=".2"/>
    <path d="M36.399 21h5.637l-11.55 22H24.85zM47.674 21h5.637l-11.55 22h-5.637z" fill="#F9F5D7"/>
    <path d="M15.637 21l-4.95 7H21.45l3.674-7h-9.486zm20.761 0l-3.673 7h16.463l4.124-7H36.398z" fill="#F9F5D7"/>
    <path d="M30.761 21H36.4l-11.55 22H19.21z" fill="#066678"/>
    <path d="M25.124 21h5.637l-11.55 22h-5.637z" fill="#48B9C7"/>
    <path d="M32 4A28 28 0 0 0 4 32a28 28 0 0 0 .021.586A28 28 0 0 1 32 5a28 28 0 0 1 27.979 27.414A28 28 0 0 0 60 32 28 28 0 0 0 32 4z" fill="#F9F5D7" opacity=".1"/>
</svg>
