<svg xmlns="http://www.w3.org/2000/svg" width="64" height="64">
    <path d="M13 5c-1.662 0-3 1.338-3 3v50c0 1.662 1.338 3 3 3h34c3.878 0 7-3.122 7-7V12c0-3.878-3.122-7-7-7z" opacity=".2"/>
    <path d="M13 4c-1.662 0-3 1.338-3 3v50c0 1.662 1.338 3 3 3h34c3.878 0 7-3.122 7-7V11c0-3.878-3.122-7-7-7z" fill="#7B6F64"/>
    <path opacity=".2" d="M10 23h44v20H10z"/>
    <path fill="#7CB668" d="M10 22h44v20H10z"/>
    <path opacity=".2" fill="#F9F5D7" d="M10 22h44v1H10z"/>
    <path d="M45 4v56h2c.342 0 .67-.05 1-.098V4.098C47.67 4.05 47.342 4 47 4z" fill="#504945"/>
    <path d="M13 4c-1.662 0-3 1.338-3 3v1c0-1.662 1.338-3 3-3h34c3.878 0 7 3.122 7 7v-1c0-3.878-3.122-7-7-7H13z" opacity=".1" fill="#F9F5D7"/>
    <path d="M17 29v8h1v-7h3c.554 0 1 .446 1 1v6h1v-6c0-1.108-.892-2-2-2z" opacity=".2"/>
    <path d="M17 28v8h1v-7h3c.554 0 1 .446 1 1v6h1v-6c0-1.108-.892-2-2-2z" fill="#F9F5D7"/>
    <path d="M28 29c-1.108 0-2 .892-2 2v4c0 1.108.892 2 2 2h2v2h1V29zm0 1h2v6h-2c-.554 0-1-.446-1-1v-4c0-.554.446-1 1-1z" opacity=".2"/>
    <path d="M28 28c-1.108 0-2 .892-2 2v4c0 1.108.892 2 2 2h2v2h1V28zm0 1h2v6h-2c-.554 0-1-.446-1-1v-4c0-.554.446-1 1-1z" fill="#F9F5D7"/>
    <path d="M36 29c-1.108 0-2 .892-2 2v4c0 1.108.892 2 2 2h2v2h1V29zm0 1h2v6h-2c-.554 0-1-.446-1-1v-4c0-.554.446-1 1-1z" opacity=".2"/>
    <path d="M36 28c-1.108 0-2 .892-2 2v4c0 1.108.892 2 2 2h2v2h1V28zm0 1h2v6h-2c-.554 0-1-.446-1-1v-4c0-.554.446-1 1-1z" fill="#F9F5D7"/>
</svg>
