<svg xmlns="http://www.w3.org/2000/svg" width="64" height="64" version="1">
    <path d="M4.05 32c-.011.334-.05.662-.05 1 0 15.512 12.488 28 28 28 15.511 0 28-12.488 28-28 0-.338-.04-.666-.05-1C59.42 47.042 47.172 59 32 59 16.826 59 4.578 47.042 4.05 32z" opacity=".2"/>
    <path d="M32 4.001c-15.512 0-28 12.488-28 28 0 15.511 12.488 28 28 28 15.511 0 28-12.489 28-28C60 16.489 47.51 4 32 4z" fill="#F9F5D7"/>
    <path d="M32 10a22 22 0 0 0-22 22 22 22 0 0 0 22 22 22 22 0 0 0 22-22 22 22 0 0 0-22-22zm2.5 5A16.5 16.5 0 0 1 51 31.5 16.5 16.5 0 0 1 34.5 48 16.5 16.5 0 0 1 18 31.5 16.5 16.5 0 0 1 34.5 15z" fill="#066678"/>
    <path d="M40 17.399v2a1.6 1.6 0 0 0 1.601 1.602h4.797A1.6 1.6 0 0 0 48 19.399v-2a1.6 1.6 0 0 1-1.602 1.602h-4.797A1.6 1.6 0 0 1 40 17.4zM8 35.801v2c0 1.774 1.426 3.2 3.2 3.2h9.6c1.775 0 3.2-1.426 3.2-3.2v-2c0 1.774-1.425 3.2-3.2 3.2h-9.6a3.192 3.192 0 0 1-3.2-3.2zm36 7.2v2c0 1.108.891 2 2 2h6c1.107 0 2-.892 2-2v-2c0 1.108-.893 2-2 2h-6c-1.109 0-2-.892-2-2z" opacity=".2"/>
    <rect width="16" height="16" x="8" y="24" rx="3.2" ry="3.2" fill="#FD8019"/>
    <rect width="10" height="10" x="44" y="36" rx="2" ry="2" fill="#FD8019"/>
    <rect width="8" height="8" x="40" y="12" rx="1.6" ry="1.6" fill="#FD8019"/>
    <path d="M32 4A27.94 27.94 0 0 0 4 32c0 .114.011.224.018.336C4.369 17.135 16.71 5 32 5c15.29 0 27.63 12.135 27.982 27.336.007-.112.018-.222.018-.336A27.94 27.94 0 0 0 32 4z" opacity=".2" fill="#F9F5D7"/>
</svg>
