<svg xmlns="http://www.w3.org/2000/svg" width="64" height="64" version="1">
    <path d="M10 56v2c0 1.662 1.338 3 3 3h38c1.662 0 3-1.338 3-3v-2c0 1.662-1.338 3-3 3H13c-1.662 0-3-1.338-3-3z" opacity=".2"/>
    <path d="M54 57V7c0-1.662-1.338-3-3-3H13c-1.662 0-3 1.338-3 3v50c0 1.662 1.338 3 3 3h38c1.662 0 3-1.338 3-3z" fill="#504945"/>
    <path d="M13 4c-1.662 0-3 1.338-3 3v1c0-1.662 1.338-3 3-3h38c1.662 0 3 1.338 3 3V7c0-1.662-1.338-3-3-3H13z" opacity=".1" fill="#F9F5D7"/>
    <g fill="#F9F5D7" opacity=".5">
        <path d="M14.75 10a.75.667 0 0 0-.75.666v6.668a.75.667 0 0 0 .75.666h4.5a.75.667 0 0 0 .75-.666v-6.668a.75.667 0 0 0-.75-.666h-4.5zm.25 1h4v6h-4v-6z"/>
        <path d="M24.492 10a.5.665 0 0 0-.492.675v6.65a.5.665 0 1 0 1 0v-6.65a.5.665 0 0 0-.508-.675zM30.492 10a.5.665 0 0 0-.492.675v6.65a.5.665 0 1 0 1 0v-6.65a.5.665 0 0 0-.508-.675z" fill-rule="evenodd"/>
        <path d="M34.75 10a.75.667 0 0 0-.75.666v6.668a.75.667 0 0 0 .75.666h4.5a.75.667 0 0 0 .75-.666v-6.668a.75.667 0 0 0-.75-.666h-4.5zm.25 1h4v6h-4v-6zM44.75 10a.75.667 0 0 0-.75.666v6.668a.75.667 0 0 0 .75.666h4.5a.75.667 0 0 0 .75-.666v-6.668a.75.667 0 0 0-.75-.666h-4.5zm.25 1h4v6h-4v-6zM49.25 34a.75.667 0 0 1 .75.666v6.668a.75.667 0 0 1-.75.666h-4.5a.75.667 0 0 1-.75-.666v-6.668a.75.667 0 0 1 .75-.666h4.5zM49 35h-4v6h4v-6z"/>
        <path d="M39.508 34a.5.665 0 0 1 .492.675v6.65a.5.665 0 1 1-1 0v-6.65a.5.665 0 0 1 .508-.675zM33.508 34a.5.665 0 0 1 .492.675v6.65a.5.665 0 1 1-1 0v-6.65a.5.665 0 0 1 .508-.675z" fill-rule="evenodd"/>
        <path d="M29.25 34a.75.667 0 0 1 .75.666v6.668a.75.667 0 0 1-.75.666h-4.5a.75.667 0 0 1-.75-.666v-6.668a.75.667 0 0 1 .75-.666h4.5zM29 35h-4v6h4v-6zM19.25 34a.75.667 0 0 1 .75.666v6.668a.75.667 0 0 1-.75.666h-4.5a.75.667 0 0 1-.75-.666v-6.668a.75.667 0 0 1 .75-.666h4.5zM19 35h-4v6h4v-6zM27.25 22a.75.667 0 0 1 .75.666v6.668a.75.667 0 0 1-.75.666h-4.5a.75.667 0 0 1-.75-.666v-6.668a.75.667 0 0 1 .75-.666h4.5zM27 23h-4v6h4v-6z"/>
        <path d="M16.508 22a.5.665 0 0 1 .492.675v6.65a.5.665 0 1 1-1 0v-6.65a.5.665 0 0 1 .508-.675zM34.492 22a.5.665 0 0 0-.492.675v6.65a.5.665 0 1 0 1 0v-6.65a.5.665 0 0 0-.508-.675z" fill-rule="evenodd"/>
        <path d="M44.75 22a.75.667 0 0 0-.75.666v6.668a.75.667 0 0 0 .75.666h4.5a.75.667 0 0 0 .75-.666v-6.668a.75.667 0 0 0-.75-.666h-4.5zm.25 1h4v6h-4v-6z"/>
        <path d="M38.492 22a.5.665 0 0 0-.492.675v6.65a.5.665 0 1 0 1 0v-6.65a.5.665 0 0 0-.508-.675z" fill-rule="evenodd"/>
        <path d="M36.75 46a.75.667 0 0 0-.75.666v6.668a.75.667 0 0 0 .75.666h4.5a.75.667 0 0 0 .75-.666v-6.668a.75.667 0 0 0-.75-.666h-4.5zm.25 1h4v6h-4v-6z"/>
        <path d="M47.492 46a.5.665 0 0 0-.492.675v6.65a.5.665 0 1 0 1 0v-6.65a.5.665 0 0 0-.508-.675zM29.508 46a.5.665 0 0 1 .492.675v6.65a.5.665 0 1 1-1 0v-6.65a.5.665 0 0 1 .508-.675z" fill-rule="evenodd"/>
        <path d="M19.25 46a.75.667 0 0 1 .75.666v6.668a.75.667 0 0 1-.75.666h-4.5a.75.667 0 0 1-.75-.666v-6.668a.75.667 0 0 1 .75-.666h4.5zM19 47h-4v6h4v-6z"/>
        <path d="M25.508 46a.5.665 0 0 1 .492.675v6.65a.5.665 0 1 1-1 0v-6.65a.5.665 0 0 1 .508-.675z" fill-rule="evenodd"/>
    </g>
    <path d="M63.958 45.848A16 16 0 0 1 48 61a16 16 0 0 1-15.958-14.848A16 16 0 0 0 32 47a16 16 0 0 0 16 16 16 16 0 0 0 16-16 16 16 0 0 0-.043-1.152z" opacity=".2"/>
    <circle cx="48" cy="46" r="16" fill="#FA4934"/>
    <path d="M40 50.436V54h3.564l9-9-3.563-3.565zm15.717-8.578a.945.945 0 0 0 0-1.348l-2.227-2.227a.945.945 0 0 0-1.348 0l-1.862 1.874 3.564 3.564z" fill="#F9F5D7"/>
</svg>
