<svg xmlns="http://www.w3.org/2000/svg" width="64" height="64">
    <circle cx="31" cy="33" r="23" opacity=".2"/>
    <path d="M50.52 9.965c-.322.027-.631.09-.925.19h-.002l-.014-.026-.198.098a3.576 3.576 0 0 0-.478.235l-24.14 12.986 9.34 21.187c8.207-3.592 16.548-9.917 24.839-13.226a3.688 3.688 0 0 0 .51-.204c.065-.032.127-.07.19-.106.104-.056.205-.118.304-.185.152-.107.298-.224.436-.356a4.617 4.617 0 0 0 .6-.75c.058-.088.115-.178.169-.27a5.48 5.48 0 0 0 .211-.426c.036-.074.07-.15.103-.227.067-.164.123-.335.177-.51.027-.081.053-.164.077-.248.045-.165.081-.337.116-.51.024-.108.046-.217.066-.328.028-.173.048-.352.066-.531.014-.112.025-.226.035-.341.013-.182.017-.37.02-.558.005-.132.007-.266.006-.401-.002-.162-.013-.327-.021-.492-.006-.16-.015-.32-.027-.483-.004-.057-.012-.115-.018-.172a15.98 15.98 0 0 0-.301-1.89l-.019-.081a18.863 18.863 0 0 0-.57-2.003l-.008-.027-.014-.031c-.235-.67-.51-1.335-.819-1.988-.018-.038-.032-.077-.05-.116a19.7 19.7 0 0 0-2.019-3.348c-.03-.04-.057-.082-.087-.121a17.851 17.851 0 0 0-.957-1.163c-.045-.05-.092-.096-.137-.145a15.457 15.457 0 0 0-.88-.886c-.052-.048-.103-.098-.156-.145-.34-.306-.685-.587-1.033-.84-.027-.02-.055-.036-.082-.056a10.349 10.349 0 0 0-1.173-.724 7.973 7.973 0 0 0-.978-.441c-.03-.011-.061-.016-.092-.026a6.07 6.07 0 0 0-1.134-.27 4.676 4.676 0 0 0-.933-.045z" opacity=".2"/>
    <path d="M50.52 8.965c-.322.026-.631.09-.925.19h-.002l-.014-.027-.198.098a3.576 3.576 0 0 0-.478.235l-24.14 12.987 9.34 21.187c8.207-3.592 16.548-9.917 24.839-13.227a3.688 3.688 0 0 0 .51-.203c.065-.032.127-.07.19-.106.104-.057.205-.118.304-.185.152-.107.298-.225.436-.357.134-.134.261-.28.38-.439.078-.099.15-.204.22-.311.058-.087.115-.177.169-.27a5.48 5.48 0 0 0 .211-.425c.036-.075.07-.15.103-.228.067-.163.123-.335.177-.51.027-.081.053-.164.077-.248.045-.165.081-.337.116-.51.024-.107.046-.217.066-.328.028-.172.048-.351.066-.53.014-.113.025-.227.035-.342.013-.182.017-.37.02-.557.005-.133.007-.266.006-.402-.002-.161-.013-.326-.021-.491-.006-.16-.015-.321-.027-.484-.004-.056-.012-.115-.018-.172a15.98 15.98 0 0 0-.301-1.889l-.019-.082a18.863 18.863 0 0 0-.57-2.003l-.008-.026-.014-.032c-.235-.67-.51-1.335-.819-1.987-.018-.039-.032-.078-.05-.116a19.7 19.7 0 0 0-2.019-3.348c-.03-.04-.057-.082-.087-.122a17.851 17.851 0 0 0-.957-1.163c-.045-.05-.092-.095-.137-.145a15.457 15.457 0 0 0-.88-.885c-.052-.048-.103-.098-.156-.145-.34-.307-.685-.588-1.033-.84-.027-.02-.055-.037-.082-.056a10.347 10.347 0 0 0-1.173-.724 7.973 7.973 0 0 0-.978-.442c-.03-.01-.061-.015-.092-.026a6.07 6.07 0 0 0-1.134-.27 4.676 4.676 0 0 0-.933-.044z" fill="#CB8819"/>
    <path d="M50.52 8.965a3.81 3.81 0 0 0-.922.191h-.004l-.016-.027-.195.098a3.6 3.6 0 0 0-.48.234L24.761 22.449l.355.809L48.902 10.46a3.6 3.6 0 0 1 .48-.234l.196-.098.016.027h.004c.293-.1.599-.165.922-.191a4.68 4.68 0 0 1 .933.043 6.027 6.027 0 0 1 1.133.27c.03.01.063.016.094.027a9.13 9.13 0 0 1 1.254.594c.298.168.6.358.898.57l.082.058c.348.253.69.534 1.031.84.053.047.104.097.157.145.298.276.59.573.878.886.046.05.092.095.137.145.329.366.65.752.957 1.16l.09.125c.314.42.613.858.898 1.313.408.652.782 1.334 1.118 2.035.018.038.032.074.05.113.31.652.585 1.319.82 1.988l.013.032.007.027c.231.67.426 1.341.575 2.004.006.027.01.055.015.082.141.643.242 1.272.3 1.887.007.056.016.115.02.171.012.163.022.325.028.485.003.053.003.106.006.16.002-.089.008-.176.01-.266.003-.132.004-.267.003-.402-.002-.161-.01-.327-.02-.492-.005-.16-.015-.322-.027-.485-.004-.056-.013-.115-.02-.171-.058-.615-.159-1.244-.3-1.887-.006-.027-.01-.055-.015-.082a18.907 18.907 0 0 0-.575-2.004l-.008-.027-.011-.032a20.769 20.769 0 0 0-.82-1.988c-.019-.039-.033-.075-.051-.113-.336-.701-.71-1.383-1.117-2.035a19.652 19.652 0 0 0-.899-1.313l-.09-.125a17.803 17.803 0 0 0-.957-1.16c-.045-.05-.091-.095-.137-.145a15.48 15.48 0 0 0-.878-.886c-.053-.048-.104-.098-.157-.145-.34-.306-.683-.587-1.03-.84l-.083-.058a10.375 10.375 0 0 0-1.176-.723 7.961 7.961 0 0 0-.976-.441c-.031-.011-.063-.017-.094-.028a6.027 6.027 0 0 0-1.133-.27 4.68 4.68 0 0 0-.933-.042z" opacity=".1" fill="#F9F5D7"/>
    <circle cx="31" cy="32" r="23" fill="#FECE4F"/>
    <path d="M42.945 12.637l-16.25 8.02A13 6 0 0 0 31 21a13 6 0 0 0 13-6 13 6 0 0 0-1.055-2.363zm5.223 16.371a7.366 11.862 28.506 0 0-9.57 6.656 7.366 11.862 28.506 0 0-2.352 6.055l16.629-8.5a7.366 11.862 28.506 0 0-2.114-3.328 7.366 11.862 28.506 0 0-2.593-.883z" fill="#CB8819"/>
    <path d="M48.168 29.007a7.366 11.862 28.506 0 0-9.57 6.658 7.366 11.862 28.506 0 0-.157 14.447A7.366 11.862 28.506 0 0 46 49.336a23.65 23.378 0 0 0 6.51-9.245 7.366 11.862 28.506 0 0-1.75-10.2 7.366 11.862 28.506 0 0-2.592-.884zM31 9a23 23 0 0 0-11.063 2.863A13 6 0 0 0 18 15a13 6 0 0 0 13 6 13 6 0 0 0 13-6 13 6 0 0 0-2.01-3.201A23 23 0 0 0 31 9z" opacity=".3"/>
    <path d="M31 9A23 23 0 0 0 8 32a23 23 0 0 0 .018.484A23 23 0 0 1 31 10a23 23 0 0 1 22.975 22.496A23 23 0 0 0 54 32 23 23 0 0 0 31 9z" opacity=".2" fill="#F9F5D7"/>
    <path d="M13.683 28.76a11.588 6.3 64.81 0 0-1.42.2l-7.4 3.644a11.588 6.3 64.81 0 0-.617.304l-.06.029.002.003a11.588 6.3 64.81 0 0-.581.465 11.588 6.3 64.81 0 0 1.279 14.417 11.588 6.3 64.81 0 0 9.663 5.8l7.42-3.652-.005-.01a11.588 6.3 64.81 0 0 .827-.606 11.588 6.3 64.81 0 0-1.279-14.417 11.588 6.3 64.81 0 0-7.83-6.178z" opacity=".1"/>
    <path d="M13.683 27.759a11.588 6.3 64.81 0 0-1.42.2l-7.4 3.644a11.588 6.3 64.81 0 0-.617.304l-.06.03.002.002a11.588 6.3 64.81 0 0-.581.465 11.588 6.3 64.81 0 0 1.279 14.417 11.588 6.3 64.81 0 0 9.663 5.8l7.42-3.651-.005-.011a11.588 6.3 64.81 0 0 .827-.605 11.588 6.3 64.81 0 0-1.279-14.417 11.588 6.3 64.81 0 0-7.83-6.178z" fill="#CB8819"/>
    <ellipse cx="-14.123" cy="37.675" rx="6.569" ry="11.438" transform="matrix(.70813 -.70609 .51863 .855 0 0)" opacity=".2"/>
    <path d="M52.592 33.363l-16.084 8.223c-.102.38-.19.757-.262 1.133l16.629-8.5a7.61 7.61 0 0 0-.283-.856z" opacity=".1"/>
</svg>
