<svg xmlns="http://www.w3.org/2000/svg" width="64" height="64">
    <g transform="matrix(3.77953 0 0 3.77953 -225.763 -524.276)">
        <path d="M60.791 149.556v.265a5.022 5.022 0 0 0 5.034 5.033h4.75a5.022 5.022 0 0 0 5.033-5.033v-.265a5.022 5.022 0 0 1-5.033 5.034h-4.75a5.022 5.022 0 0 1-5.034-5.034z" opacity=".2"/>
        <rect width="14.817" height="14.817" x="60.79" y="139.77" ry="5.033" fill="#7CB668"/>
        <path d="M62.955 141.933l.381.286c-1.21.558 1.897 3.105 1.897 3.105s.605-.545 1.491-.602c.879-.9 4.536-.215 4.4.524-1.23.02-1.62-.138-1.62-.138s.061.07.086.31c-.09.074-1.361-.21-1.627-.19-.756.058-1.266.077-1.809.137.373.123 3.348.652 4.299 1.572-.254.098-.365.057-.45.089-.074.027-.15.179-.313.18-.117 0-.077-.104-.319-.218-1.505.06-1.993-.859-2.142-.971-.664-.159-1.783-.518-1.783-.518s.947.757 1.467 1.176c.043.035.756.168 1.661.61.487-.4 1.8.277 1.555.896-.217.552-1.674-.017-1.62-.767-.333-.103-.948-.4-1.34-.542.376.294 1.857 1.528 2.155 1.877 1.303-.16 3.271.165 4.492.947-.278.074-1.603.325-1.868.255-.494-.187-1.228-.791-1.307-.859-.283-.047-.919-.139-1.163-.167.248.252 1.066 1.197 1.323 1.594.106-.022.649.108.799.21.557-.568 1.46.43 2.015.91-.146.297-2.436-.159-2.13-.822-.164-.022-.492-.202-.612-.212.123.162.392.382.747.754.342-.097 1.629 1.296 1.663 1.6-.963-.234-1.438-.438-1.587-.612-.295-.344-.183-.838-.155-.928-.379-.338-.45-.439-.573-.506-.004.004 0 .105.006.153.622.46.321 1.728-.036 1.774-.156.02-.515-1.791-.067-1.859.01-.036.016-.143.017-.147-.236-.257-1.548-1.651-1.633-1.71.042.11.112.29.176.514.774.506.902 1.316.844 2.267-.186-.325-2.005-1.806-1.21-2.462.006-.102-.024-.332.043-.46-.252-.253-1.038-1.028-1.108-1.028.088.18.142.283.186.477.598.3.425 1.071.152 1.088-.288.017-.924-.87-.325-1.057-.049-.223-.137-.526-.172-.658-.26-.198-1.118-.884-1.316-1.044.244.405.482 1.036.6 1.398.718.812.52 2.07.447 3.367-.842-.625-1.364-2.758-.829-3.29a78.51 78.51 0 0 1-.449-1.66c-1.157-.898-1.798-1.571-1.798-1.571s.771 1 .86 1.536c.675.13 1.239 1.307.702 1.508-.785.294-1.628-.952-.958-1.416 0 0-.593-1.092-1.052-2.05-1.81-1.987-1.636-2.584-1.093-2.65z" opacity=".2"/>
        <path d="M62.955 141.669l.381.286c-1.21.558 1.897 3.104 1.897 3.104s.605-.544 1.491-.601c.879-.9 4.536-.215 4.4.524-1.23.019-1.62-.138-1.62-.138s.061.07.086.31c-.09.074-1.361-.21-1.627-.19-.756.057-1.266.076-1.809.136.373.123 3.348.653 4.299 1.572-.254.098-.365.058-.45.09-.074.027-.15.179-.313.18-.117 0-.077-.104-.319-.219-1.505.06-1.993-.858-2.142-.97-.664-.16-1.783-.518-1.783-.518s.947.756 1.467 1.176c.043.035.756.167 1.661.609.487-.398 1.8.278 1.555.897-.217.551-1.674-.017-1.62-.767-.333-.104-.948-.4-1.34-.543.376.294 1.857 1.528 2.155 1.877 1.303-.16 3.271.166 4.492.948-.278.073-1.603.325-1.868.254-.494-.186-1.228-.79-1.307-.858-.283-.048-.919-.14-1.163-.167.248.251 1.066 1.196 1.323 1.594.106-.023.649.108.799.21.557-.568 1.46.429 2.015.91-.146.297-2.436-.16-2.13-.823-.164-.021-.492-.201-.612-.21.123.16.392.38.747.753.342-.097 1.629 1.295 1.663 1.6-.963-.235-1.438-.439-1.587-.613-.295-.344-.183-.837-.155-.927-.379-.338-.45-.439-.573-.506-.004.004 0 .104.006.153.622.459.321 1.728-.036 1.773-.156.02-.515-1.79-.067-1.858.01-.036.016-.143.017-.147-.236-.258-1.548-1.652-1.633-1.71.042.11.112.29.176.514.774.506.902 1.316.844 2.267-.186-.325-2.005-1.806-1.21-2.463.006-.101-.024-.33.043-.46-.252-.252-1.038-1.028-1.108-1.027.088.18.142.282.186.477.598.299.425 1.07.152 1.087-.288.018-.924-.869-.325-1.056-.049-.223-.137-.527-.172-.658-.26-.199-1.118-.885-1.316-1.045.244.406.482 1.037.6 1.398.718.813.52 2.07.447 3.367-.842-.625-1.364-2.758-.829-3.288a78.51 78.51 0 0 1-.449-1.66c-1.157-.9-1.798-1.573-1.798-1.573s.771 1 .86 1.536c.675.131 1.239 1.308.702 1.509-.785.293-1.628-.952-.958-1.416 0 0-.593-1.092-1.052-2.05-1.81-1.987-1.636-2.584-1.093-2.65z" fill="#F9F5D7"/>
        <path d="M65.825 139.773a5.022 5.022 0 0 0-5.034 5.033v.265a5.022 5.022 0 0 1 5.034-5.033h4.75a5.022 5.022 0 0 1 5.033 5.033v-.265a5.022 5.022 0 0 0-5.033-5.033h-4.75z" fill="#F9F5D7" opacity=".2"/>
    </g>
</svg>
