<svg xmlns="http://www.w3.org/2000/svg" width="64" height="64">
    <circle cx="45.5" cy="10.5" r="5.5" opacity=".2"/>
    <path d="M40.512 18.178a2.799 2.799 0 0 0-2.34 1.525l-7.318 15.903-8.6 9.83L11.11 44.1c-3.71-.412-4.327 5.153-.617 5.564l12.594 1.5c.91.1 1.813-.25 2.416-.94l9.796-11.196c.152-.174.283-.367.388-.574l5.26-11.029 3.19 7.022a2.799 2.799 0 0 0 4.526.82l8.396-8.396c2.748-2.638-1.32-6.705-3.957-3.958l-5.54 5.54-4.347-8.637a2.799 2.799 0 0 0-2.703-1.637z" opacity=".2"/>
    <path d="M40.512 17.178a2.799 2.799 0 0 0-2.34 1.525l-7.318 15.903-8.6 9.83L11.11 43.1c-3.71-.412-4.327 5.153-.617 5.564l12.594 1.5c.91.1 1.813-.25 2.416-.94l9.796-11.196c.152-.174.283-.367.388-.574l5.26-11.029 3.19 7.022a2.799 2.799 0 0 0 4.526.82l8.396-8.396c2.748-2.638-1.32-6.705-3.957-3.958l-5.54 5.54-4.347-8.637a2.799 2.799 0 0 0-2.703-1.637z" fill="#578D57"/>
    <path d="M40.512 17.178a2.8 2.8 0 0 0-2.34 1.525l-7.318 15.902-8.6 9.833L11.11 43.1c-2.228-.248-3.331 1.659-3.06 3.312.217-1.327 1.278-2.51 3.06-2.312l11.143 1.337 8.6-9.832 7.318-15.902a2.8 2.8 0 0 1 5.043.111l4.347 8.637 5.54-5.539c1.862-1.94 4.427-.48 4.812 1.473.494-2.377-2.64-4.736-4.812-2.473l-5.54 5.54-4.347-8.638a2.799 2.799 0 0 0-2.703-1.636z" opacity=".1" fill="#F9F5D7"/>
    <circle cx="45.5" cy="9.5" r="5.5" fill="#7CB668"/>
    <path d="M34.732 16.095a2.803 2.803 0 0 0-.72.085l-10.895 2.799a2.799 2.799 0 0 0-2.12 2.714v12.594c-.054 3.785 5.057 3.785 5.003 0V23.979l6.089-1.451.186 3.307c-.696 2.064-1.355 4.119-1.859 6.144-1.523 5.317.149 8.515 3.378 9.306.126.134.264.256.413.363l8.03 5.765 5.288 11.9c1.516 3.41 6.633 1.137 5.117-2.274l-5.598-12.595a2.799 2.799 0 0 0-.926-1.136l-6.401-4.595c1.325-2.259 1.87-5.506 2.643-8.221.6-2.108 1.202-4.217 1.806-6.325.548-1.732.396-3.166.007-4.15-.866-2.064-2.061-2.273-4.02-2.727l-4.65-1.08a.182.182 0 0 1-.003.008 2.796 2.796 0 0 0-.768-.123z" opacity=".2"/>
    <path d="M34.732 15.095a2.803 2.803 0 0 0-.72.085l-10.895 2.799a2.799 2.799 0 0 0-2.12 2.714v12.594c-.054 3.785 5.057 3.785 5.003 0V22.979l6.089-1.451.186 3.307c-.696 2.064-1.355 4.119-1.859 6.144-1.523 5.317.149 8.515 3.378 9.306.126.134.264.256.413.363l8.03 5.765 5.288 11.9c1.516 3.41 6.633 1.137 5.117-2.274l-5.598-12.595a2.799 2.799 0 0 0-.926-1.136l-6.401-4.595c1.325-2.259 1.87-5.506 2.643-8.221.6-2.108 1.202-4.217 1.806-6.325.548-1.732.396-3.166.007-4.15-.866-2.064-2.061-2.273-4.02-2.727l-4.65-1.08a.182.182 0 0 1-.003.008 2.796 2.796 0 0 0-.768-.123z" fill="#7CB668"/>
    <path d="M45.5 4A5.5 5.5 0 0 0 40 9.5a5.5 5.5 0 0 0 .025.486A5.5 5.5 0 0 1 45.5 5a5.5 5.5 0 0 1 5.475 5.014A5.5 5.5 0 0 0 51 9.5 5.5 5.5 0 0 0 45.5 4zM34.732 15.096a2.802 2.802 0 0 0-.718.084l-10.897 2.799a2.8 2.8 0 0 0-2.12 2.714v1a2.8 2.8 0 0 1 2.12-2.714l10.897-2.8c.235-.059.476-.086.718-.083.26.005.52.046.768.123l.002-.008 4.65 1.078c1.96.455 3.155.663 4.022 2.729.159.402.26.898.308 1.441.07-.969-.058-1.807-.308-2.441-.867-2.066-2.063-2.274-4.022-2.729l-4.65-1.078-.002.008a2.794 2.794 0 0 0-.768-.123zm-2.505 9.886c-.678 2.014-1.32 4.02-1.811 5.997-.452 1.578-.617 2.966-.549 4.164.046-.955.217-2.006.549-3.164.504-2.025 1.164-4.08 1.86-6.145l-.05-.852zm7.869 13.002c-.12.25-.244.498-.38.729l6.401 4.594c.405.29.726.684.928 1.138l5.598 12.594c.114.257.179.504.222.746.11-.524.058-1.115-.222-1.746l-5.598-12.594a2.807 2.807 0 0 0-.928-1.138l-6.021-4.323z" opacity=".2" fill="#F9F5D7"/>
</svg>
