<svg xmlns="http://www.w3.org/2000/svg" width="64" height="64">
    <path d="M4 56v2c0 1.662 1.338 3 3 3h50c1.662 0 3-1.338 3-3v-2c0 1.662-1.338 3-3 3H7c-1.662 0-3-1.338-3-3z" opacity=".2"/>
    <rect width="56" height="56" x="4" y="4" rx="3" ry="3" fill="#066678"/>
    <path d="M7 4C5.338 4 4 5.338 4 7v1c0-1.662 1.338-3 3-3h50c1.662 0 3 1.338 3 3V7c0-1.662-1.338-3-3-3H7z" opacity=".1" fill="#F9F5D7"/>
    <circle cx="37" cy="29" r="6.5" fill="#F9F5D7" stroke="#066678" stroke-linecap="round" stroke-linejoin="round"/>
    <circle cx="52" cy="42" r="3.5" fill="#F9F5D7" stroke="#066678" stroke-linecap="round" stroke-linejoin="round"/>
    <circle cx="44" cy="38" r="7.5" fill="#F9F5D7" stroke="#066678" stroke-linecap="round" stroke-linejoin="round"/>
    <circle cx="15" cy="39" r="6.5" fill="#F9F5D7" stroke="#066678" stroke-linecap="round" stroke-linejoin="round"/>
    <circle cx="21" cy="26" r="3.5" fill="#F9F5D7" stroke="#066678" stroke-linecap="round" stroke-linejoin="round"/>
    <circle cx="22" cy="34" r="7.5" fill="#F9F5D7" stroke="#066678" stroke-linecap="round" stroke-linejoin="round"/>
    <circle cx="22" cy="42" r="3.5" fill="#F9F5D7" stroke="#066678" stroke-linecap="round" stroke-linejoin="round"/>
    <circle cx="29" cy="25" r="6.5" fill="#F9F5D7" stroke="#066678" stroke-linecap="round" stroke-linejoin="round"/>
    <circle cx="32" cy="36" r="9.5" fill="#F9F5D7" stroke="#066678" stroke-linecap="round" stroke-linejoin="round"/>
</svg>
