<svg xmlns="http://www.w3.org/2000/svg" width="64" height="64" version="1">
    <path d="M32 10C16.488 10 4 23.75 4 32s12.488 22 28 22 28-13.75 28-22-12.488-22-28-22z" fill="#504945"/>
    <path d="M32 10C16.488 10 4 23.75 4 32c0 .11.022.23.031.344C4.657 24.042 16.891 11 32 11c15.109 0 27.343 13.042 27.969 21.344.01-.115.031-.233.031-.344 0-8.25-12.488-22-28-22z" opacity=".1" fill="#F9F5D7"/>
    <path d="M4.09 33c-.037.336-.09.678-.09 1 0 .214.015.435.031.656.019-.218.034-.436.059-.656.92 8.312 13.002 21 27.91 21s26.99-12.688 27.91-21c.025.22.04.438.059.656.016-.221.031-.442.031-.656 0-.321-.053-.663-.09-1-.92 8.312-13.002 21-27.91 21S5.01 41.312 4.09 33z" opacity=".2"/>
    <path d="M35.015 19c-6.05 0-11.048 4.948-11.048 10.997 0 2.3.778 4.415 1.998 6.186L18.6 43.556a2.008 2.01 0 0 0 2.808 2.875l7.365-7.373a11.003 11.003 0 0 0 6.242 1.937c6.05 0 10.985-4.948 10.985-10.998C46 23.948 41.065 19 35.015 19zm0 3.999a6.96 6.96 0 0 1 6.99 6.998 6.96 6.96 0 0 1-6.99 6.999 6.96 6.96 0 0 1-6.99-6.999A6.96 6.96 0 0 1 35.014 23z" opacity=".2"/>
    <path d="M35.015 18c-6.05 0-11.048 4.948-11.048 10.997 0 2.3.778 4.415 1.998 6.186L18.6 42.557a2.008 2.01 0 0 0 2.808 2.874l7.365-7.373a11.003 11.003 0 0 0 6.242 1.937c6.05 0 10.985-4.948 10.985-10.998C46 22.948 41.065 18 35.015 18zm0 4a6.96 6.96 0 0 1 6.99 6.997 6.96 6.96 0 0 1-6.99 6.999 6.96 6.96 0 0 1-6.99-6.999A6.96 6.96 0 0 1 35.014 22z" fill="#7CB668"/>
</svg>
