<svg xmlns="http://www.w3.org/2000/svg" width="64" height="64" version="1">
    <path d="M24 23v3H4v32.2C4 59.75 5.25 61 6.8 61h50.4c1.55 0 2.8-1.25 2.8-2.8V26H30v-3h-6z" opacity=".2"/>
    <path d="M6.8 4A2.794 2.794 0 0 0 4 6.8v16.8h33.6V4H6.8z" fill="#F9BD2E"/>
    <path d="M37.6 4v19.6H60V6.8C60 5.249 58.751 4 57.2 4H37.6z" fill="#B7BB25"/>
    <path d="M26.4 25v35h30.8c1.551 0 2.8-1.249 2.8-2.8V25H26.4z" fill="#CB241D"/>
    <path d="M4 25v32.2C4 58.751 5.249 60 6.8 60H25V25H4z" fill="#48B9C7"/>
    <path fill="#F9F5D7" d="M30 22v38h-6V22z"/>
    <path opacity=".2" d="M4 21h56v6H4z"/>
    <path fill="#F9F5D7" d="M4 20h56v6H4z"/>
    <path fill="#F9F5D7" d="M40 4v22h-6V4z"/>
    <path d="M6.8 4C5.25 4 4 5.25 4 6.8v1C4 6.25 5.25 5 6.8 5H57.2C58.75 5 60 6.25 60 7.8v-1C60 5.25 58.75 4 57.2 4H6.8z" opacity=".2" fill="#F9F5D7"/>
</svg>
