<svg xmlns="http://www.w3.org/2000/svg" width="64" height="64">
    <circle cx="32" cy="33" r="28" opacity=".2"/>
    <circle cx="32" cy="32" r="28" fill="#3A393A"/>
    <path d="M34.943 18c-.812 0-1.683.012-2.619.035-7.1.175-10.118 1.08-13.787 3.649-2.624 1.837-4.339 4.42-3.156 5.172 1.002.638 3.882-.786 4.748-2.348 1.092-1.967 2.342-2.52 4.682-2.52 1.404 0 1.545.376 1.195 3.166-.762 6.066-2.484 12.957-4.682 18.395-.635 1.571-1.154 3.157-1.154 3.522 0 1.107.976 1.228 2.752.345 1.83-.91 2.578-1.936 4.033-5.547.725-1.798 1.316-3.37 1.316-3.49 0-.571 1.073-1.008 3.167-1.289 7.197-.967 13.388-4.696 15.666-9.437 1.572-3.275 1.07-5.914-1.456-7.621-2.172-1.469-5.015-2.036-10.705-2.032zm-1.13 4.006c.232.01.489.03.773.06 3.324.36 5.84 1.383 6.875 2.798.7.956.722 3.245.045 4.63-1.306 2.67-3.467 3.636-9.89 4.426-1.152.142-1.493.102-1.602-.187-.077-.202.2-2.093.617-4.207.416-2.114.836-4.516.931-5.338.176-1.501.51-2.082 1.625-2.174.186-.015.393-.017.625-.008z" opacity=".2"/>
    <path d="M34.943 17c-.812 0-1.683.012-2.619.035-7.1.175-10.118 1.08-13.787 3.649-2.624 1.836-4.339 4.42-3.156 5.172 1.002.638 3.882-.787 4.748-2.348 1.092-1.967 2.342-2.52 4.682-2.52 1.404 0 1.545.376 1.195 3.166-.762 6.066-2.484 12.957-4.682 18.395-.635 1.571-1.154 3.157-1.154 3.521 0 1.107.976 1.23 2.752.346 1.83-.91 2.578-1.936 4.033-5.547.725-1.799 1.316-3.37 1.316-3.49 0-.571 1.073-1.008 3.167-1.29 7.197-.966 13.388-4.695 15.666-9.437 1.572-3.274 1.07-5.913-1.456-7.62-2.172-1.47-5.015-2.036-10.705-2.032zm-1.13 4.006c.232.01.489.03.773.06 3.324.36 5.84 1.383 6.875 2.797.7.957.722 3.246.045 4.631-1.306 2.67-3.467 3.636-9.89 4.426-1.152.142-1.493.101-1.602-.188-.077-.201.2-2.093.617-4.207.416-2.113.836-4.516.931-5.337.176-1.502.51-2.082 1.625-2.174.186-.016.393-.017.625-.008z" fill="#F9F5D7"/>
    <path d="M32 4A28 28 0 0 0 4 32a28 28 0 0 0 .021.586A28 28 0 0 1 32 5a28 28 0 0 1 27.979 27.414A28 28 0 0 0 60 32 28 28 0 0 0 32 4z" fill="#F9F5D7" opacity=".1"/>
</svg>
