<svg xmlns="http://www.w3.org/2000/svg" width="64" height="64" version="1">
    <path d="M28.908 5a27.91 27.91 0 0 0-19.816 8.184L28.908 33 9.092 52.816A27.91 27.91 0 0 0 28.908 61c15.512 0 28-12.488 28-28s-12.488-28-28-28z" opacity=".2"/>
    <path d="M29 4a27.91 27.91 0 0 0-19.816 8.184L29 32 9.184 51.816A27.91 27.91 0 0 0 29 60c15.512 0 28-12.488 28-28S44.512 4 29 4z" fill="#B16286"/>
    <path d="M28.908 4c-7.756 0-14.755 3.123-19.816 8.184l.512.511A27.902 27.902 0 0 1 28.908 5c15.286 0 27.627 12.128 27.985 27.324.006-.108.015-.215.015-.324 0-15.512-12.488-28-28-28zm-1 29L9.092 51.816c.167.167.347.32.523.477L27.908 34l.5.5.5-.5-1-1z" opacity=".2" fill="#F9F5D7"/>
    <path d="M28.908 19a14 14 0 0 0-14 14 14 14 0 0 0 14 14v5.535l.125.125 9.536-9.535a14 14 0 0 0 .253-.254l.11-.11-.004-.003A14 14 0 0 0 42.908 33a14 14 0 0 0-14-14z" opacity=".2"/>
    <path d="M42.908 32a14 14 0 0 1-14 14 14 14 0 0 1-14-14 14 14 0 0 1 14-14 14 14 0 0 1 14 14z" fill="#F9F5D7"/>
    <path d="M29.031 31.863l-.123.123v19.551l.123.123 9.902-9.898z" fill="#F9F5D7"/>
</svg>
