<svg xmlns="http://www.w3.org/2000/svg" width="64" height="64" version="1">
    <path d="M60 32V13c0-1.662-1.338-3-3-3H7c-1.662 0-3 1.338-3 3v38c0 1.662 1.338 3 3 3h31z" fill="#066678"/>
    <path d="M56 34.322V14H8v36h32z" opacity=".2"/>
    <path d="M7 10c-1.662 0-3 1.338-3 3v1c0-1.662 1.338-3 3-3h50c1.662 0 3 1.338 3 3v-1c0-1.662-1.338-3-3-3H7z" opacity=".1" fill="#F9F5D7"/>
    <path d="M60 32H40.75A2.751 2.751 0 0 0 38 34.75V54z" fill="#448588"/>
    <path d="M40.75 32A2.751 2.751 0 0 0 38 34.75v1A2.751 2.751 0 0 1 40.75 33H59l1-1H40.75z" opacity=".1" fill="#F9F5D7"/>
    <path d="M60 32L38 54H7c-1.662 0-3-1.338-3-3v1c0 1.662 1.338 3 3 3h31l22-22v-1z" opacity=".2"/>
</svg>
