<svg xmlns="http://www.w3.org/2000/svg" width="64" height="64">
    <path d="M4 53.222v2C4 56.762 5.25 58 6.801 58h50.4C58.75 58 60 56.762 60 55.222v-2C60 54.762 58.75 56 57.2 56H6.801c-1.55 0-2.8-1.238-2.8-2.778z" opacity=".2"/>
    <path d="M6.801 7.001a2.783 2.783 0 0 0-2.8 2.777v44.445A2.783 2.783 0 0 0 6.8 57h50.397C58.75 57 60 55.762 60 54.223V9.782a2.784 2.784 0 0 0-2.8-2.777H6.8v-.004z" fill="#8F3F71"/>
    <path d="M6.801 7.001a2.783 2.783 0 0 0-2.8 2.777v44.445A2.783 2.783 0 0 0 6.8 57h11.2V7.005H6.8z" opacity=".2"/>
    <path d="M6.8 7.002A2.783 2.783 0 0 0 4 9.779v.998A2.783 2.783 0 0 1 6.8 8h50.4c1.55 0 2.8 1.238 2.8 2.777V9.78a2.784 2.784 0 0 0-2.8-2.777H6.8z" opacity=".1" fill="#F9F5D7"/>
    <rect width="6" height="6" x="8" y="36" rx=".75" ry=".75" opacity=".2"/>
    <rect width="6" height="6" x="8" y="12" rx=".75" ry=".75" opacity=".2"/>
    <rect width="6" height="6" x="8" y="11" rx=".75" ry=".75" fill="#F9F5D7"/>
    <rect width="6" height="6" x="8" y="20" rx=".75" ry=".75" opacity=".2"/>
    <rect width="6" height="6" x="8" y="19" rx=".75" ry=".75" fill="#F9F5D7"/>
    <rect width="6" height="6" x="8" y="28" rx=".75" ry=".75" opacity=".2"/>
    <rect width="6" height="6" x="8" y="27" rx=".75" ry=".75" fill="#F9F5D7"/>
    <rect width="6" height="6" x="8" y="35" rx=".75" ry=".75" fill="#F9F5D7"/>
</svg>
