<svg xmlns="http://www.w3.org/2000/svg" width="64" height="64" version="1">
    <rect width="56" height="48" x="4" y="9" rx="3" ry="3" opacity=".2"/>
    <rect width="56" height="48" x="4" y="8" rx="3" ry="3" fill="#48B9C7"/>
    <path d="M7 8c-1.662 0-3 1.338-3 3v1c0-1.662 1.338-3 3-3h50c1.66 0 3 1.338 3 3v-1c0-1.662-1.34-3-3-3z" opacity=".2" fill="#F9F5D7"/>
    <rect width="28" height="20" x="36" y="14" rx="1.2" ry="1.2" opacity=".2"/>
    <rect width="28" height="20" x="36" y="13" rx="1.2" ry="1.2" fill="#F9F5D7"/>
    <rect width="28" height="20" x="18" y="40" rx="1.2" ry="1.2" opacity=".2"/>
    <rect width="28" height="20" x="18" y="39" rx="1.2" ry="1.2" fill="#F9F5D7"/>
    <rect width="28" height="20" y="14" rx="1.2" ry="1.2" opacity=".2"/>
    <rect width="28" height="20" y="13" rx="1.2" ry="1.2" fill="#F9F5D7"/>
</svg>
