<svg xmlns="http://www.w3.org/2000/svg" width="64" height="64">
    <circle cx="31.5" cy="32.5" r="28.5" opacity=".2"/>
    <circle cx="31.5" cy="31.5" r="28.5" fill="#504945"/>
    <path d="M24.208 16.618A17.5 17.5 0 0 0 14 32.5 17.5 17.5 0 0 0 31.5 50 17.5 17.5 0 0 0 49 32.5a17.5 17.5 0 0 0-10.208-15.87v.341a14.583 14.583 0 0 1 7.291 12.612A14.583 14.583 0 0 1 31.5 44.167a14.583 14.583 0 0 1-14.583-14.584 14.583 14.583 0 0 1 7.291-12.606z" opacity=".2"/>
    <path d="M24.208 15.618A17.5 17.5 0 0 0 14 31.5 17.5 17.5 0 0 0 31.5 49 17.5 17.5 0 0 0 49 31.5a17.5 17.5 0 0 0-10.208-15.87v.341a14.583 14.583 0 0 1 7.291 12.612A14.583 14.583 0 0 1 31.5 43.167a14.583 14.583 0 0 1-14.583-14.584 14.583 14.583 0 0 1 7.291-12.606z" fill="#CB8819"/>
    <path d="M24.209 15.617A17.5 17.5 0 0 0 14 31.5a17.5 17.5 0 0 0 .016.309 17.5 17.5 0 0 1 6.873-13.18 14.583 14.583 0 0 1 3.32-2.652zm14.582.012v.342a14.583 14.583 0 0 1 3.432 2.746 17.5 17.5 0 0 1 6.756 13.385A17.5 17.5 0 0 0 49 31.5a17.5 17.5 0 0 0-10.209-15.871zm7.275 13.295A14.583 14.583 0 0 1 31.5 43.166a14.583 14.583 0 0 1-14.563-13.99 14.583 14.583 0 0 0-.021.408A14.583 14.583 0 0 0 31.5 44.166a14.583 14.583 0 0 0 14.584-14.582 14.583 14.583 0 0 0-.018-.66z" opacity=".2" fill="#F9F5D7"/>
    <path d="M25.8 34l3.2 2.85v18.525L31.5 64l2.5-8.625V36.85L37.2 34h-8.55z" opacity=".2"/>
    <path d="M25.8 33l3.2 2.85v18.525L31.5 63l2.5-8.625V35.85L37.2 33h-8.55z" fill="#CB8819"/>
    <path d="M31.5 3A28.5 28.5 0 0 0 3 31.5a28.5 28.5 0 0 0 .021.582A28.5 28.5 0 0 1 31.5 4a28.5 28.5 0 0 1 28.479 27.918A28.5 28.5 0 0 0 60 31.5 28.5 28.5 0 0 0 31.5 3z" fill="#F9F5D7" opacity=".1"/>
    <path d="M25.8 33l1.124 1H36.076l1.123-1H28.65z" opacity=".2" fill="#F9F5D7"/>
</svg>
