<svg xmlns="http://www.w3.org/2000/svg" width="64" height="64">
    <path opacity=".2" d="M46 48.2h8V58h-8zM10 48.2h8V58h-8z"/>
    <path fill="#3A393A" d="M46 47.2h8V57h-8zM10 47.2h8V57h-8z"/>
    <rect width="44" height="56" x="-52" y="-60" rx="4.125" ry="4.2" transform="matrix(0 -1 -1 0 0 0)" opacity=".2"/>
    <rect width="44" height="56" x="-51" y="-60" rx="4.125" ry="4.2" transform="matrix(0 -1 -1 0 0 0)" fill="#7F7061"/>
    <rect width="40" height="28" x="12" y="16" rx="2.857" ry="2.8" opacity=".2"/>
    <rect width="40" height="28" x="12" y="15" rx="2.857" ry="2.8" fill="#D5C3A0"/>
    <path d="M8.2 7C5.871 7 4 8.84 4 11.125v1C4 9.84 5.872 8 8.2 8h47.6c2.328 0 4.2 1.84 4.2 4.125v-1C60 8.84 58.128 7 55.8 7H8.2z" opacity=".1" fill="#F9F5D7"/>
    <path d="M14.855 15C13.273 15 12 16.25 12 17.8v1c0-1.55 1.273-2.8 2.855-2.8h34.29C50.727 16 52 17.25 52 18.8v-1c0-1.55-1.273-2.8-2.855-2.8h-34.29z" opacity=".2" fill="#F9F5D7"/>
</svg>
