<svg xmlns="http://www.w3.org/2000/svg" width="64" height="64" version="1">
    <rect width="56" height="44" x="-60" y="10" rx="2.8" ry="2.75" transform="scale(-1 1)" fill="#377375"/>
    <circle cx="22" cy="32" r="14" opacity=".2"/>
    <path d="M12.1 22.1a13.996 14 0 0 0-1.303 1.525l4.316 4.317a7.998 8 0 0 0 1.229 9.714 7.998 8 0 0 0 9.708 1.227l4.316 4.317a13.996 14 0 0 0 1.527-1.3 13.996 14 0 0 0 1.304-1.526l-4.317-4.316a7.998 8 0 0 0-1.23-9.714 7.998 8 0 0 0-9.708-1.228L13.626 20.8a13.996 14 0 0 0-1.527 1.302z" fill="#CB241D"/>
    <circle cx="22" cy="33" r="4" opacity=".2"/>
    <circle cx="22" cy="32" r="4" fill="#D5C3A0"/>
    <rect width="16" height="4" x="40" y="20" rx="2" ry="2" opacity=".2"/>
    <circle cx="53" cy="48" r="3" opacity=".2"/>
    <circle cx="53" cy="47" r="3" fill="#48B9C7"/>
    <circle cx="44.999" cy="48" r="3" opacity=".2"/>
    <circle cx="44.999" cy="47" r="3" fill="#48B9C7"/>
    <rect width="16" height="4" x="40" y="26" rx="2" ry="2" opacity=".2"/>
    <rect width="16" height="4" x="40" y="32" rx="2" ry="2" opacity=".2"/>
    <rect width="16" height="4" x="40" y="38" rx="2" ry="2" opacity=".2"/>
    <path d="M6.8 10C5.25 10 4 11.226 4 12.749v1.001c0-1.523 1.25-2.749 2.8-2.749h50.4c1.55 0 2.8 1.226 2.8 2.749v-1.001C60 11.226 58.75 10 57.2 10H6.8z" opacity=".1" fill="#F9F5D7"/>
    <path d="M4 51.25v1C4 53.774 5.25 55 6.8 55h50.4c1.55 0 2.8-1.226 2.8-2.75v-1c0 1.524-1.25 2.75-2.8 2.75H6.8C5.25 54 4 52.774 4 51.25z" opacity=".2"/>
</svg>
