<svg xmlns="http://www.w3.org/2000/svg" width="64" height="64">
    <path d="M4 23.492c1.774-4.006 5.977-1.826 7.496-4.28 1.437-2.322-3.339-5.932-6.287-5.771 1.046-.998 7.781.222 9.875.283 2.54.075-1.415-4.938-1.415-4.938.93-1.83 5.793-.655 7.722 1.895 2.192 2.898 5.506-4.848 3.52-6.172 4.126.194 4.731 6.283 6.855 6.485 3.483.33 4.185-1.376 4.817-3.515 2.457 2.43.507 5.596 1.766 5.774 4.119 2.301 7.14-3.976 9.406-1.904-3.371 2.29-6.419 8.913-1.488 8.934 2.406.146 3.003.514 5.817 2.849-6.405-2.21-6.518 3.16-3.578 2.548 6.129-1.277 7.638 3.79 6.961 3.925-1.813-.906-11.762-1.291-10.86.27 4.635 8.025-4.35 11.398-11.876 13.293l-15.664.11C14.2 41.55 4.42 36.507 4 29.165c-.058-1.015 3.449.229 4.186-.925 2.002-3.134-.265-4.792-4.186-4.75z" opacity=".2"/>
    <path d="M4 22.492c1.774-4.006 5.977-1.826 7.496-4.28 1.437-2.322-3.339-5.932-6.287-5.771 1.046-.998 7.781.222 9.875.283 2.54.075-1.415-4.938-1.415-4.938.93-1.83 5.793-.655 7.722 1.895 2.192 2.899 5.506-4.848 3.52-6.172 4.126.194 4.731 6.283 6.855 6.485 3.483.33 4.185-1.376 4.817-3.515 2.457 2.43.507 5.596 1.766 5.774 4.119 2.301 7.14-3.976 9.406-1.904-3.371 2.29-6.419 8.913-1.488 8.934 2.406.146 3.003.514 5.817 2.849-6.405-2.21-6.518 3.16-3.578 2.548 6.129-1.277 7.638 3.79 6.961 3.925-1.813-.906-11.762-1.291-10.86.27 4.635 8.025-4.35 11.398-11.876 13.293l-15.664.11C14.2 40.55 4.42 35.507 4 28.165c-.058-1.015 3.449.229 4.186-.925 2.002-3.134-.265-4.792-4.186-4.75z" fill="#FA4934"/>
    <path d="M24.91 3.508c.32.213.49.605.563 1.08 3.619.697 4.27 6.214 6.293 6.406 3.483.33 4.186-1.376 4.818-3.515 1.026 1.014 1.27 2.148 1.314 3.148.053-1.172.079-2.77-1.314-4.148-.632 2.139-1.335 3.846-4.818 3.515-2.124-.201-2.729-6.292-6.856-6.486zm.57 2.123c-.286 2.592-2.484 6.173-4.09 4.05-1.928-2.549-6.792-3.724-7.722-1.894 0 0 .22.293.404.543 1.488-1.114 5.585.058 7.319 2.35 1.828 2.417 4.426-2.558 4.09-5.05zM46.87 9.93c-2.154-.218-4.918 4.338-8.522 2.324-.295-.042-.411-.254-.452-.576-.04.869-.083 1.498.452 1.574 3.67 2.05 6.467-2.693 8.636-2.291.254-.224.51-.434.772-.611-.283-.26-.58-.39-.887-.42zM6.897 12.055c-.81.025-1.428.137-1.689.386.815-.044 1.767.205 2.691.63 2.453.083 5.81.613 7.184.654.867.025.969-.548.738-1.305-.12.195-.344.316-.738.305-1.57-.047-5.752-.745-8.186-.67zm36.83 5.424c-.213 1.571.428 2.795 2.54 2.804 1.782.108 2.574.341 4.007 1.403a9.95 9.95 0 0 1 1.809.447c-2.814-2.336-3.41-2.704-5.816-2.85-1.634-.007-2.379-.746-2.54-1.804zm-32.039.292a1.743 1.743 0 0 1-.193.442c-1.518 2.453-5.722.273-7.496 4.28.203-.003.382.018.576.025 1.982-2.643 5.547-1.086 6.92-3.305.275-.445.317-.938.193-1.442zm35.063 6.16c-.35.962.345 2.042 1.754 1.749 4.442-.926 6.45 1.475 6.965 2.922.664-.162-.852-5.196-6.965-3.922-.91.19-1.525-.194-1.754-.748zM8.869 25.667c-.096.474-.316.999-.683 1.574-.737 1.154-4.244-.09-4.186.926.015.261.044.518.082.773.507-.57 3.436.346 4.104-.699.65-1.017.844-1.875.683-2.574zm35.979 3.66c-.259.148-.37.326-.24.549.77 1.334 1.157 2.537 1.244 3.629.119-1.226-.182-2.612-1.004-4.178z" opacity=".2" fill="#F9F5D7"/>
    <circle cx="29.999" cy="31" r="18" opacity=".2"/>
    <circle cx="29.999" cy="30" r="18" fill="#F9F5D7"/>
    <circle cx="37.999" cy="39" r="22" opacity=".2"/>
    <circle cx="37.999" cy="38" r="22" fill="#504945"/>
    <path d="M38 16a22 22 0 0 0-22 22 22 22 0 0 0 .021.586A22 22 0 0 1 38 17a22 22 0 0 1 5.049.615 18 18 0 0 0-1.37-1.302A22 22 0 0 0 38 16z" opacity=".1"/>
</svg>
