<svg xmlns="http://www.w3.org/2000/svg" width="64" height="64" version="1">
    <rect width="56" height="56" x="4" y="4" rx="2.8" ry="2.8" fill="#066678"/>
    <g opacity=".2">
        <path d="M43 28.521c-3.476 8.856-26.338 10.214-27.512 6.65-2.034-6.852 2.474-13.895 10.07-15.73 7.598-1.836 15.406 2.23 17.442 9.08z"/>
        <path d="M43 31s-18.856 13.644-30.958 9.276c-2.104-1.655 1.888-4.415 1.882-5.045C9.294 37.071 7 39.463 7 42.345c1.97 6.414 19.848-.64 22.82-1.984C35.704 37.535 43 31 43 31z"/>
        <path d="M19 45s23.12-5.34 28.316-16.751c.245-2.563-3.786-1.599-4.245-2.01 6.477-2.97 10.242.085 9.908 2.01-.604 3.487-7.793 9.186-17.182 12.905C29.627 43.506 19 45 19 45z"/>
    </g>
    <g fill="#F9F5D7">
        <path d="M44 27.521c-3.476 8.856-26.338 10.214-27.512 6.65-2.034-6.852 2.474-13.895 10.07-15.73 7.598-1.836 15.406 2.23 17.442 9.08z"/>
        <path d="M44 30s-18.856 13.644-30.958 9.276c-2.104-1.655 1.888-4.415 1.882-5.045C10.294 36.071 8 38.463 8 41.345c1.97 6.414 19.848-.64 22.82-1.984C36.704 36.535 44 30 44 30z"/>
        <path d="M20 44s23.12-5.34 28.316-16.751c.245-2.563-3.786-1.599-4.245-2.01 6.477-2.97 10.242.085 9.908 2.01-.604 3.487-7.793 9.186-17.182 12.905C30.627 42.506 20 44 20 44z"/>
    </g>
    <path d="M6.8 4C5.25 4 4 5.25 4 6.8v1C4 6.25 5.25 5 6.8 5h50.4C58.75 5 60 6.25 60 7.8v-1C60 5.25 58.75 4 57.2 4H6.8z" opacity=".2" fill="#F9F5D7"/>
    <path d="M4 57.2v1C4 59.75 5.25 61 6.8 61h50.4c1.55 0 2.8-1.25 2.8-2.8v-1c0 1.55-1.25 2.8-2.8 2.8H6.8C5.25 60 4 58.75 4 57.2z" opacity=".2"/>
</svg>
