<svg xmlns="http://www.w3.org/2000/svg" width="64" height="64" version="1">
    <path d="M60 32C60 16.488 47.512 4 32 4S4 16.488 4 32s12.488 28 28 28 28-12.488 28-28z" fill="#48B9C7"/>
    <path d="M32 4C16.488 4 4 16.494 4 32.014c0 .113.011.224.018.336C4.369 17.14 16.71 5 32 5s27.63 12.14 27.982 27.35c.007-.112.018-.223.018-.336C60 16.494 47.512 4 32 4z" opacity=".1" fill="#F9F5D7"/>
    <path d="M59.982 32.65C59.631 47.86 47.29 60 32 60 16.712 60 4.371 47.86 4.018 32.654c-.007.11-.018.22-.018.332C4 48.506 16.488 61 32 61s28-12.494 28-28.014c0-.113-.011-.224-.018-.336z" opacity=".2"/>
    <path d="M32.688 13a1.869 1.869 0 0 0-1.302 3.207l-2.263 4.9a1.869 1.869 0 0 0-1.618.681l-5.286-1.885a1.869 1.869 0 0 0-.542-1.246 1.869 1.869 0 1 0-1.397 3.188l1.886 5.28c-.436.354-.69.886-.691 1.448h-1.246l-1.4.168-4.83.581v5.981l4.826.58a14.326 14.326 0 0 0 1.538 3.705l-3.003 3.825 4.227 4.227 3.825-3.003a14.328 14.328 0 0 0 3.706 1.533l.58 4.83h5.98v-.002l.58-4.826a14.328 14.328 0 0 0 3.706-1.535l3.825 3.003 3.827-4.229-3.003-3.826-.87-1.108-.957-.957a1.869 1.869 0 0 0 .706-1.645l5.398-2.263a1.869 1.869 0 1 0 .002-2.604l-5.4-2.26a1.869 1.869 0 0 0-.679-1.623l2.385-5.283a1.869 1.869 0 0 0 1.244-.542 1.869 1.869 0 1 0-3.188-1.397l-5.38 1.884a1.869 1.869 0 0 0-1.62-.68l-2.261-4.9A1.869 1.869 0 0 0 32.689 13zm.173 3.728l2.26 4.9c-.204.2-.36.446-.455.716H30.71a1.869 1.869 0 0 0-.458-.716l2.26-4.898a1.87 1.87 0 0 0 .349-.002zm-11.009 4.365l5.23 1.869v.005c0 .278.064.552.184.803l-3.12 3.119a1.869 1.869 0 0 0-.802-.185h-.005l-1.869-5.23a1.87 1.87 0 0 0 .207-.174c.063-.065.122-.134.175-.207zm21.772 0c.054.073.112.142.176.207.064.064.133.123.206.177l-2.368 5.227h-.005a1.869 1.869 0 0 0-.803.185l-2.72-3.12c.12-.25.184-.524.185-.802v-.005l5.33-1.869zM30.71 23.589h3.955a1.869 1.869 0 0 0 2.564 1.064l2.72 3.117c-.12.25-.184.525-.185.803 0 .792.5 1.498 1.246 1.762v3.954a1.869 1.869 0 0 0-1.246 1.759c.001.44.157.865.44 1.202-1.702 2.734-4.294 4.744-7.515 4.75C26 42 22.9 37.47 22.9 32.31a9.34 9.34 0 0 1 .198-1.88c1.306-.024 2.113-.902 2.114-1.857 0-.279-.064-.554-.185-.806l3.118-3.117c.251.121.526.185.805.185a1.869 1.869 0 0 0 1.76-1.245zm12.259 6.286l5.403 2.262a1.87 1.87 0 0 0-.01.173c0 .058.004.116.01.173l-5.4 2.26c-.201-.204-.446-.36-.716-.455v-3.956c.27-.096.513-.252.713-.457z" fill-rule="evenodd" opacity=".2"/>
    <path d="M32.688 12a1.869 1.869 0 0 0-1.302 3.207l-2.263 4.9a1.869 1.869 0 0 0-1.618.681l-5.286-1.885a1.869 1.869 0 0 0-.542-1.246 1.869 1.869 0 1 0-1.397 3.188l1.886 5.28c-.436.354-.69.886-.691 1.448h-1.246l-1.4.168-4.83.581v5.981l4.826.58a14.326 14.326 0 0 0 1.538 3.705l-3.003 3.825 4.227 4.227 3.825-3.003a14.328 14.328 0 0 0 3.706 1.533l.58 4.83h5.98v-.002l.58-4.825a14.328 14.328 0 0 0 3.706-1.536l3.825 3.003 3.827-4.229-3.003-3.826-.87-1.108-.957-.957a1.869 1.869 0 0 0 .706-1.645l5.398-2.263a1.869 1.869 0 1 0 .002-2.603l-5.4-2.261a1.869 1.869 0 0 0-.679-1.623l2.385-5.282a1.869 1.869 0 0 0 1.244-.543 1.869 1.869 0 1 0-3.188-1.397l-5.38 1.884a1.869 1.869 0 0 0-1.62-.679l-2.261-4.9A1.869 1.869 0 0 0 32.689 12zm.173 3.728l2.26 4.9c-.204.2-.36.446-.455.716H30.71a1.869 1.869 0 0 0-.458-.716l2.26-4.898a1.87 1.87 0 0 0 .349-.002zm-11.009 4.365l5.23 1.869v.005c0 .278.064.552.184.803l-3.12 3.12a1.869 1.869 0 0 0-.802-.186h-.005l-1.869-5.229a1.87 1.87 0 0 0 .207-.175c.063-.065.122-.134.175-.207zm21.772 0c.054.073.112.142.176.207.064.064.133.123.206.178l-2.368 5.226h-.005a1.869 1.869 0 0 0-.803.185l-2.72-3.12c.12-.25.184-.524.185-.802v-.005l5.33-1.869zM30.71 22.59h3.955a1.869 1.869 0 0 0 2.564 1.063l2.72 3.117c-.12.25-.184.525-.185.803 0 .792.5 1.498 1.246 1.762v3.954a1.869 1.869 0 0 0-1.246 1.759c.001.44.157.866.44 1.202-1.702 2.734-4.294 4.744-7.515 4.75C26 41 22.9 36.47 22.9 31.31a9.34 9.34 0 0 1 .198-1.88c1.306-.024 2.113-.902 2.114-1.857 0-.279-.064-.554-.185-.805l3.118-3.117c.251.12.526.184.805.184a1.869 1.869 0 0 0 1.76-1.245zm12.259 6.285l5.403 2.263a1.87 1.87 0 0 0-.01.172c0 .058.004.116.01.173l-5.4 2.26c-.201-.204-.446-.36-.716-.454v-3.957c.27-.096.513-.252.713-.457z" fill-rule="evenodd" fill="#F9F5D7"/>
</svg>
