<svg xmlns="http://www.w3.org/2000/svg" width="64" height="64">
    <circle cx="32" cy="32" r="28" fill="#48B9C7"/>
    <path d="M26.999 36H31.3c2.017.72 6.435 6.341 8.837 11h3.793c.961 0 1.681-.144 2.017-.336.72-.433 1.053-1.25 1.053-2.065 0-.769-.284-1.738-.86-2.17-.48-.336-1.009-.432-2.21-.432h-.624c-2.017-3.218-3.794-5.227-6.05-7.196C40.76 32.881 42 30.575 42 27.55 42.001 22.505 38.122 19 31.878 19H21.17c-1.249 0-1.585.048-2.017.336-.72.433-1.152 1.249-1.152 2.065 0 .769.384 1.689 1.008 2.169.433.336.97.576 2.161.432H22v17.994h-.83c-1.153 0-1.585.048-2.017.337-.72.432-1.153 1.45-1.153 2.266 0 .72.385 1.489 1.009 1.92.385.337 1.057.481 2.161.481h7.204c.96 0 1.18-.144 1.517-.336.72-.432 1.152-1.249 1.152-2.065 0-.769-.384-1.689-.96-2.17-.48-.335-.413-.431-1.71-.431h-1.372V36zm0-5v-7h5.07C35.142 24 37 25.235 37 27.3c0 2.401-2 3.7-6.66 3.7z" opacity=".2"/>
    <path d="M26.999 35H31.3c2.017.72 6.435 6.341 8.837 11h3.793c.961 0 1.681-.144 2.017-.336.72-.433 1.053-1.25 1.053-2.066 0-.768-.284-1.737-.86-2.169-.48-.336-1.009-.432-2.21-.432h-.624c-2.017-3.218-3.794-5.227-6.05-7.196C40.76 31.881 42 29.575 42 26.55c.001-5.044-3.878-8.55-10.122-8.55H21.17c-1.249 0-1.585.049-2.017.337-.72.433-1.152 1.249-1.152 2.065 0 .768.384 1.689 1.008 2.169.433.336.97.576 2.161.432H22v17.994h-.83c-1.153 0-1.585.048-2.017.336-.72.433-1.153 1.45-1.153 2.267 0 .72.385 1.489 1.009 1.92.385.337 1.057.48 2.161.48h7.204c.96 0 1.18-.143 1.517-.335.72-.433 1.152-1.249 1.152-2.065 0-.769-.384-1.69-.96-2.17-.48-.335-.413-.432-1.71-.432h-1.372V35zm0-5v-7h5.07C35.142 23 37 24.235 37 26.3c0 2.401-2 3.7-6.66 3.7z" fill="#F9F5D7"/>
    <path d="M32 4A28 28.008 0 0 0 4 32.008a28 28.008 0 0 0 .018.492A28 28.008 0 0 1 32 5a28 28.008 0 0 1 27.975 27.5 28 28.008 0 0 0 .025-.492A28 28.008 0 0 0 32 4z" opacity=".2" fill="#F9F5D7"/>
    <path d="M59.982 32.508A28 28 0 0 1 32 60 28 28 0 0 1 4.025 32.52 28 28 0 0 0 4 33a28 28 0 0 0 28 28 28 28 0 0 0 28-28 28 28 0 0 0-.018-.492z" opacity=".2"/>
</svg>
