<svg xmlns="http://www.w3.org/2000/svg" width="64" height="64">
    <circle cx="32" cy="33" r="28" opacity=".2"/>
    <circle cx="32" cy="32" r="28" fill="#9D0006"/>
    <path d="M31.402 15c-4.229 0-7.43 1.937-8.957 5.422-.51 1.165-.606 1.583-.675 2.922-.143 2.745.7 4.963 2.535 6.668 1.338 1.244 1.847 1.536 6.379 3.652 5.597 2.614 6.553 3.168 7.851 4.57 1.765 1.908 2.669 4.517 2.23 6.434-.562 2.461-2.124 4.942-4.007 5.922-2.825 1.471-6.594 1.43-9.188-.101-1.063-.628-2.916-1.86-3.558-3.032-.286-.52-.673-1.61-.86-2.421-.78-3.393.924-5.431 3.618-6.055 1.784-.414 4.277.266 5.343 1.816.58.842.585 2.024-.117 3.063A3 3 0 1 0 29 47c3.914-.074 4.888-3.793 4.934-6.27 0-3.64-8.148-5.358-11.801-1.198-2.088 2.404-2.858 5.128-1.336 9.078.271.703.453.647.508 1.43.054.775.154 1.226.222 1.347.098.173.464.182 1.723.031 1.494-.178 1.702.12 3.152.524 2.46 1.169 5.244 1.226 7.907.855 3.82-.574 7.256-2.84 8.629-5.695.84-1.747 1.077-2.905 1.062-5.176-.023-3.537-.873-6.011-2.777-8.078-1.302-1.412-2.578-2.163-6.703-3.953-4.979-2.16-6.58-3.089-8.118-4.711-1.195-1.262-1.461-3.732-.648-5.613.436-1.01 1.716-2.231 2.82-2.692 1.252-.522 3.317-.648 4.621-.281 2.196.618 4.291 2.282 5.125 4.066.504 1.078.666 3.67.352 5.297-.111.577-.158 1.095-.106 1.153.187.204 1.201-.13 1.852-.61.743-.548 1.311-1.381 1.598-2.343.27-.906-.159-2.887-.461-4.32-.14-.667-.241-1.671-.223-2.235.035-1.06-.153-1.42-.66-1.266-.132.04-.778.168-1.438.285-1.197.213-.8.07-2.238-.554C35.21 15.295 33.67 15 31.402 15z" opacity=".2"/>
    <path d="M31.402 14c-4.229-.001-7.43 1.937-8.957 5.422-.51 1.164-.606 1.583-.675 2.922-.143 2.745.7 4.963 2.535 6.668 1.338 1.244 1.847 1.536 6.379 3.652 5.597 2.614 6.553 3.168 7.851 4.57 1.765 1.908 2.669 4.516 2.23 6.434-.562 2.46-2.124 4.941-4.007 5.922-2.825 1.47-6.594 1.43-9.188-.102-1.063-.628-2.916-1.86-3.558-3.031-.286-.52-.673-1.61-.86-2.422-.78-3.392.924-5.43 3.618-6.055 1.784-.413 4.277.267 5.343 1.817.58.842.585 2.024-.117 3.062A3 3 0 1 0 29 46c3.914-.075 4.888-3.794 4.934-6.27 0-3.64-8.148-5.359-11.801-1.199-2.088 2.404-2.858 5.128-1.336 9.078.271.704.453.648.508 1.43.054.775.154 1.227.222 1.348.098.173.464.181 1.723.031 1.494-.178 1.702.119 3.152.523 2.46 1.17 5.244 1.226 7.907.856 3.82-.574 7.256-2.84 8.629-5.695.84-1.747 1.077-2.905 1.062-5.176-.023-3.538-.873-6.011-2.777-8.078-1.302-1.413-2.578-2.163-6.703-3.953-4.979-2.161-6.58-3.09-8.118-4.711-1.195-1.262-1.461-3.733-.648-5.614.436-1.009 1.716-2.23 2.82-2.691 1.252-.522 3.317-.649 4.621-.281 2.196.618 4.291 2.282 5.125 4.066.504 1.078.666 3.67.352 5.297-.111.576-.158 1.095-.106 1.152.187.205 1.201-.129 1.852-.61.743-.547 1.311-1.38 1.598-2.343.27-.906-.159-2.886-.461-4.32-.14-.666-.241-1.67-.223-2.235.035-1.06-.153-1.42-.66-1.265-.132.04-.778.168-1.438.285-1.197.213-.8.07-2.238-.555C35.21 14.294 33.67 14 31.402 14z" fill="#F9F5D7"/>
    <path d="M32 4A28 28 0 0 0 4 32a28 28 0 0 0 .018.492A28 28 0 0 1 32 5a28 28 0 0 1 27.975 27.492A28 28 0 0 0 60 32 28 28 0 0 0 32 4z" opacity=".1" fill="#F9F5D7"/>
</svg>
