<svg xmlns="http://www.w3.org/2000/svg" width="64" height="64" version="1">
    <rect width="56" height="56" x="4" y="5" rx="2.8" ry="2.8" opacity=".2"/>
    <rect width="56" height="56" x="4" y="4" rx="2.8" ry="2.8" fill="#066678"/>
    <path d="M30 11.092c-2.56.222-5.002.881-7.258 1.875l1.5 2.596A19.938 19.938 0 0 1 30 14.1zm4 0V14.1c2.03.2 3.962.71 5.758 1.463l1.5-2.596A22.895 22.895 0 0 0 34 11.092zm-14.764 3.803c-2.133 1.436-4.003 3.206-5.482 5.261l2.607 1.506a18.487 18.487 0 0 1 4.37-4.18zm25.528 0l-1.494 2.587a18.487 18.487 0 0 1 4.369 4.18l2.607-1.506c-1.479-2.055-3.349-3.825-5.482-5.261zm-33.018 8.72A19.472 19.472 0 0 0 10.02 31h3a16.52 16.52 0 0 1 1.35-5.87zm40.508 0l-2.623 1.516A16.52 16.52 0 0 1 50.98 31h3a19.472 19.472 0 0 0-1.727-7.386zM10.303 35c.431 2.385 1.334 4.647 2.593 6.719l2.547-1.469A16.787 16.787 0 0 1 13.352 35zm40.351 0a16.76 16.76 0 0 1-2.049 5.277l2.594 1.498c1.232-2.059 2.101-4.34 2.518-6.775zm-32.726 8.434l-2.623 1.515c.23.257.451.521.695.768v3.629a5 5 0 0 0 0 .002c0 1.622.772 3.04 1.918 4.043l1.531-2.653c-.274-.4-.449-.87-.449-1.392v-4.867a18.928 18.928 0 0 1-1.072-1.045zm28.209.037a18.862 18.862 0 0 1-3.969 3.14l1.49 2.58a21.947 21.947 0 0 0 5.147-4.18zm-7.62 4.816a19.987 19.987 0 0 1-4.517.998v3.008a22.936 22.936 0 0 0 6.04-1.371zm-10.68.553l-1.913 1.107-2.098 1.21-2.174 3.767a5.167 5.167 0 0 0 2.825-.68 5 5 0 0 0 .002 0l2.943-1.697a5 5 0 0 0 .004-.004l1.064-.615c.504.078 1.007.172 1.51.256v-2.952c-.725-.1-1.446-.24-2.162-.392z" opacity=".2"/>
    <path d="M30 10.092c-2.56.222-5.002.881-7.258 1.875l1.5 2.595A19.938 19.938 0 0 1 30 13.1v-3.008zm4 0V13.1c2.03.2 3.962.71 5.758 1.463l1.5-2.596A22.895 22.895 0 0 0 34 10.092zm-14.764 3.803c-2.133 1.436-4.003 3.206-5.482 5.261l2.607 1.506a18.487 18.487 0 0 1 4.37-4.18l-1.495-2.587zm25.528 0l-1.494 2.587a18.487 18.487 0 0 1 4.369 4.18l2.607-1.506c-1.479-2.055-3.349-3.825-5.482-5.261zm-33.018 8.72A19.472 19.472 0 0 0 10.02 30h3a16.52 16.52 0 0 1 1.35-5.87l-2.624-1.515zm40.508 0l-2.623 1.516A16.52 16.52 0 0 1 50.98 30h3a19.472 19.472 0 0 0-1.727-7.385zM10.303 34c.431 2.385 1.334 4.647 2.593 6.719l2.547-1.469A16.787 16.787 0 0 1 13.352 34h-3.05zm40.351 0a16.76 16.76 0 0 1-2.049 5.277l2.594 1.498c1.232-2.059 2.101-4.34 2.518-6.775h-3.063zm-32.726 8.434l-2.623 1.515c.23.257.451.521.695.768v3.629a5 5 0 0 0 0 .002c0 1.622.772 3.04 1.918 4.043l1.531-2.653c-.274-.4-.449-.87-.449-1.392v-4.867a18.928 18.928 0 0 1-1.072-1.045zm28.209.037a18.862 18.862 0 0 1-3.969 3.14l1.49 2.58a21.947 21.947 0 0 0 5.147-4.18l-2.668-1.54zm-7.62 4.816a19.987 19.987 0 0 1-4.517.998v3.008a22.936 22.936 0 0 0 6.04-1.371l-1.522-2.635zm-10.68.553l-1.913 1.107-2.098 1.21-2.174 3.767a5.167 5.167 0 0 0 2.825-.68 5 5 0 0 0 .002 0l2.943-1.697a5 5 0 0 0 .004-.004l1.064-.615c.504.078 1.007.172 1.51.256v-2.952c-.725-.1-1.446-.24-2.162-.392z" fill="#48B9C7"/>
    <path d="M32 16a17 15.692 0 0 0-17 15.69 17 15.692 0 0 0 6 11.962v5.693a.654.654 0 0 0 .98.567l2.944-1.698 2.476-1.431a17 15.692 0 0 0 4.6.601 17 15.692 0 0 0 17-15.693A17 15.692 0 0 0 32 16z" opacity=".2"/>
    <ellipse cx="32" cy="30.692" rx="17" ry="15.692" fill="#F9F5D7"/>
    <path d="M21.67 40.898a.654.654 0 0 0-.67.654V48.345a.654.654 0 0 0 .98.567l2.943-1.698 2.942-1.698a.654.654 0 0 0 0-1.132l-2.942-1.701-2.942-1.698a.654.654 0 0 0-.312-.087z" fill="#F9F5D7"/>
    <path d="M6.8 4C5.25 4 4 5.25 4 6.8v1C4 6.25 5.25 5 6.8 5h50.4C58.75 5 60 6.25 60 7.8v-1C60 5.25 58.75 4 57.2 4H6.8z" fill="#F9F5D7" opacity=".2"/>
</svg>
