<svg xmlns="http://www.w3.org/2000/svg" width="64" height="64" version="1">
    <path d="M32 19v14h14c7.732 0 14-6.268 14-14S53.732 5 46 5s-14 6.268-14 14zM32 19v14H18c-7.732 0-14-6.268-14-14S10.268 5 18 5s14 6.268 14 14zM32 47V33H18c-7.732 0-14 6.268-14 14s6.268 14 14 14 14-6.268 14-14zM32 47V33h14c7.732 0 14 6.268 14 14s-6.268 14-14 14-14-6.268-14-14z" opacity=".2"/>
    <path d="M32 18v14H18c-7.732 0-14-6.268-14-14S10.268 4 18 4s14 6.268 14 14z" fill="#CB241D"/>
    <path d="M32 18v14h14c7.732 0 14-6.268 14-14S53.732 4 46 4s-14 6.268-14 14z" fill="#B7BB25"/>
    <path d="M32 46V32h14c7.732 0 14 6.268 14 14s-6.268 14-14 14-14-6.268-14-14z" fill="#FECE4F"/>
    <path d="M32 32v1h14c7.563 0 13.708 6 13.975 13.498.01-.166.025-.33.025-.498 0-7.732-6.268-14-14-14H32z" opacity=".2" fill="#F9F5D7"/>
    <path d="M32 46V32H18c-7.732 0-14 6.268-14 14s6.268 14 14 14 14-6.268 14-14z" fill="#8F3F71"/>
    <path d="M18 32c-7.732 0-14 6.268-14 14 0 .168.016.332.025.498C4.292 39.001 10.437 33 18 33h14v-1H18z" opacity=".1" fill="#F9F5D7"/>
    <circle cx="32" cy="33" r="11" opacity=".2"/>
    <circle cx="32" cy="32" r="11" fill="#F9F5D7"/>
    <path d="M18 4C10.268 4 4 10.268 4 18c0 .168.016.332.025.498C4.292 11.001 10.437 5 18 5c7.732 0 14 6.268 14 14v-1c0-7.732-6.268-14-14-14z" opacity=".1" fill="#F9F5D7"/>
    <path d="M46 4c-7.732 0-14 6.268-14 14v1c0-7.732 6.268-14 14-14 7.563 0 13.708 6 13.975 13.498.01-.166.025-.33.025-.498 0-7.732-6.268-14-14-14z" opacity=".2" fill="#F9F5D7"/>
</svg>
