<svg xmlns="http://www.w3.org/2000/svg" width="64" height="64" version="1">
    <rect width="56" height="56" x="4" y="5" rx="2.8" ry="2.8" opacity=".2"/>
    <rect width="56" height="56" x="4" y="4" rx="2.8" ry="2.8" fill="#F9F5D7"/>
    <path d="M31.832 19.117L12 33l15.117 10.582 1.192-6.168L22 33l8.273-5.793zm5.422 3.563l-1.188 6.168L42 33l-7.785 5.45-1.559 8.09L52 33z" opacity=".1"/>
    <path d="M31.832 18.117L12 32l15.117 10.582 1.192-6.168L22 32l8.273-5.793z" fill="#8F3F71"/>
    <path d="M37.254 21.68l-1.188 6.168L42 32l-7.785 5.45-1.559 8.09L52 32z" fill="#066678"/>
    <path d="M6.8 4C5.25 4 4 5.25 4 6.8v1C4 6.25 5.25 5 6.8 5h50.4C58.75 5 60 6.25 60 7.8v-1C60 5.25 58.75 4 57.2 4H6.8z" opacity=".2" fill="#F9F5D7"/>
</svg>
