<svg xmlns="http://www.w3.org/2000/svg" width="64" height="64">
    <path d="M32 5c15.488 0 28 12.513 28 28 0 15.488-12.512 28-28 28C16.513 61 4 48.488 4 33 4 17.513 16.513 5 32 5z" opacity=".2"/>
    <path d="M32 4c15.488 0 28 12.513 28 28 0 15.488-12.512 28-28 28C16.513 60 4 47.488 4 32 4 16.513 16.513 4 32 4z" fill="#F9F5D7"/>
    <path d="M20 17v13l12-12 12 12V17H20zm24 13L32 42 20 30v11l12 12 12-12V30z" opacity=".1" fill-rule="evenodd"/>
    <path d="M20 17v12l12-12H20zm12 0l12 12V17H32zm12 12L32 41 20 29v11l12 12 12-12V29z" fill="#066678" fill-rule="evenodd"/>
    <path d="M32 4C16.512 4 4 16.512 4 32c0 .168.01.333.014.5C4.28 17.245 16.68 5 32 5s27.72 12.245 27.986 27.5c.003-.167.014-.332.014-.5C60 16.512 47.487 4 32 4z" fill="#F9F5D7" opacity=".2"/>
</svg>
