<svg xmlns="http://www.w3.org/2000/svg" width="64" height="64" version="1">
    <path d="M4.05 31c-.011.334-.05.662-.05 1 0 15.512 12.488 28 28 28s28-12.488 28-28c0-.338-.039-.665-.05-1C59.42 46.042 47.172 58 32 58 16.824 58 4.576 46.042 4.05 31z" opacity=".2"/>
    <rect width="56" height="56" x="-59" y="-60" rx="28" ry="28" transform="matrix(0 -1 -1 0 0 0)" fill="#7CB668"/>
    <path d="M32 3C16.488 3 4 15.488 4 31c0 .113.011.224.018.336C4.369 16.134 16.71 4 32 4h.002c15.29 0 27.63 12.134 27.982 27.336.007-.112.018-.223.018-.336 0-15.512-12.488-28-28-28H32z" opacity=".2" fill="#F9F5D7"/>
    <path d="M28.114 22c-3.392 0-6.672.347-9.469 1.042-1.436.356-1.543.398-1.942.734-.492.414-.703.868-.704 1.521 0 .809.386 1.433 1.115 1.792.596.293.983.283 2.286-.047 1.319-.334 3.187-.655 4.823-.828 1.664-.177 6.915-.147 8.594.046 4.552.526 7.796 1.391 10.938 2.917.804.39 1.6.743 1.77.781.9.206 1.97-.345 2.344-1.203.186-.427.17-1.213-.03-1.635-.249-.521-.755-.894-2.1-1.547-2.285-1.109-4.744-1.942-7.49-2.531C35.012 22.347 31.507 22 28.115 22zm-1.358 8.008c-.604.009-1.125.03-1.477.065-2.281.23-5.242.858-6.182 1.312-.99.479-1.339 2.017-.73 3.002.234.378.932.797 1.329.797.15 0 .868-.168 1.599-.37 2.131-.59 3.559-.784 6.161-.833 1.687-.032 3.169-.005 4.153.109 4.178.483 7.85 1.304 11.391 3.39.487.286.99.52 1.12.52 1.054-.002 1.972-1.305 1.792-2.356-.158-.917-.553-1.301-2.365-2.312-3-1.674-6.894-2.547-10.808-3.124-.67-.098-2.036-.165-3.406-.192a99.013 99.013 0 0 0-2.577-.008zm2.222 8c-.484.008-.9.03-1.182.065-1.825.23-4.196.858-4.948 1.312-.791.479-1.07 2.017-.583 3.002.187.377.745.797 1.062.797.12 0 .697-.168 1.281-.37 1.706-.59 2.846-.784 4.927-.833 1.35-.032 1.365-.005 2.152.109 3.342.482 5.197 1.304 8.03 3.39.39.286.798.52.902.52.844-.002 1.572-1.105 1.427-2.156-.126-.918-.436-1.302-1.885-2.313-2.401-1.674-4.437-2.746-7.568-3.323-.537-.098-1.627-.165-2.724-.193-.548-.014-.407-.016-.89-.008z" opacity=".2"/>
    <path d="M28.114 21c-3.392 0-6.672.347-9.469 1.042-1.436.356-1.543.398-1.942.734-.492.414-.703.868-.704 1.52 0 .81.386 1.434 1.115 1.793.596.293.983.283 2.286-.047 1.319-.334 3.187-.655 4.823-.828 1.664-.177 6.915-.147 8.594.046 4.552.526 7.796 1.391 10.938 2.917.804.39 1.6.743 1.77.781.9.206 1.97-.345 2.344-1.203.186-.427.17-1.214-.03-1.635-.249-.521-.755-.895-2.1-1.547-2.285-1.109-4.744-1.942-7.49-2.531C35.012 21.347 31.507 21 28.115 21zm-1.358 8.008c-.604.009-1.125.03-1.477.065-2.281.23-5.242.858-6.182 1.312-.99.479-1.339 2.017-.73 3.002.234.377.932.797 1.329.797.15 0 .868-.168 1.599-.37 2.131-.59 3.559-.784 6.161-.833 1.687-.032 3.169-.005 4.153.109 4.178.483 7.85 1.304 11.391 3.39.487.286.99.52 1.12.52 1.054-.002 1.972-1.305 1.792-2.356-.158-.918-.553-1.301-2.365-2.312-3-1.674-6.894-2.547-10.808-3.124-.67-.098-2.036-.165-3.406-.192a99.013 99.013 0 0 0-2.577-.008zm2.222 8c-.484.008-.9.03-1.182.065-1.825.23-4.196.858-4.948 1.312-.791.479-1.07 2.017-.583 3.002.187.377.745.797 1.062.797.12 0 .697-.168 1.281-.37 1.706-.59 2.846-.784 4.927-.834 1.35-.031 1.365-.004 2.152.11 3.342.482 5.197 1.304 8.03 3.39.39.286.798.52.902.52.844-.002 1.572-1.105 1.427-2.156-.126-.918-.436-1.302-1.885-2.313-2.401-1.674-4.437-2.746-7.568-3.323-.537-.098-1.627-.165-2.724-.193-.548-.014-.407-.016-.89-.008z" fill="#F9F5D7"/>
</svg>
