<svg xmlns="http://www.w3.org/2000/svg" width="64" height="64">
    <g transform="translate(0 -1058.52)">
        <circle cx="32" cy="1091.52" r="28" opacity=".2"/>
        <circle cx="32" cy="1090.52" r="28" fill="#928274"/>
        <path d="M32 1062.52a28 28 0 0 0-28 28 28 28 0 0 0 .021.586A28 28 0 0 1 32 1063.52a28 28 0 0 1 27.979 27.414 28 28 0 0 0 .021-.414 28 28 0 0 0-28-28z" opacity=".2" fill="#F9F5D7"/>
        <ellipse cx="32" cy="1105.02" rx="4" ry="3.5" opacity=".1"/>
        <ellipse cx="32" cy="1104.02" rx="4" ry="3.5" fill="#3A393A"/>
        <path d="M15.266 1071.473c-.234.01-.47.027-.71.066-1.142.188-2.078 1-2.58 1.918-.501.918-.714 1.951-.818 3.078-.207 2.253.072 4.924.504 7.558.865 5.268 2.402 10.358 2.402 10.358a1.5 1.5 0 1 0 2.872-.863s-1.49-4.97-2.313-9.98c-.411-2.506-.641-5.03-.478-6.798.081-.883.273-1.565.464-1.916.192-.35.24-.362.436-.394.773-.128 1.697.198 2.768 1.04 1.07.844 2.175 2.147 3.126 3.505 1.904 2.715 3.198 5.582 3.198 5.582a1.5 1.5 0 1 0 2.738-1.229s-1.373-3.073-3.479-6.076c-1.052-1.501-2.287-3.002-3.728-4.137-1.26-.993-2.764-1.75-4.402-1.713zm33.468 0c-1.638-.038-3.141.72-4.402 1.713-1.44 1.135-2.676 2.635-3.728 4.136-2.106 3.003-3.479 6.077-3.479 6.077a1.5 1.5 0 1 0 2.738 1.228s1.294-2.867 3.198-5.582c.951-1.357 2.056-2.66 3.126-3.504 1.07-.843 1.995-1.168 2.768-1.04.195.031.244.043.436.394.191.35.383 1.032.464 1.916.163 1.767-.067 4.291-.478 6.797-.823 5.01-2.313 9.98-2.313 9.98a1.5 1.5 0 1 0 2.872.863s1.537-5.09 2.402-10.357c.432-2.634.711-5.306.504-7.559-.104-1.126-.317-2.16-.819-3.078-.501-.918-1.437-1.73-2.58-1.918a5.07 5.07 0 0 0-.709-.066zm-23.433 17.047a4.5 5 0 0 0-4.5 5 4.5 5 0 0 0 4.5 5 4.5 5 0 0 0 4.5-5 4.5 5 0 0 0-4.5-5zm13.398 0a4.5 5 0 0 0-4.5 5 4.5 5 0 0 0 4.5 5 4.5 5 0 0 0 4.5-5 4.5 5 0 0 0-4.5-5zm-23.008 11.027c-5.81 0-13.562 2.02-13.562 2.02a1.5 1.5 0 1 0 .742 2.906s7.734-1.927 12.818-1.926c.114 0 .215.012.327.014-.626.042-1.265.11-1.922.223-5.27.905-10.354 3.943-10.354 3.943a1.5 1.5 0 1 0 1.52 2.588s4.885-2.81 9.342-3.576c1.516-.26 2.953-.256 4.246-.139-5.426.558-8.526 4.492-8.526 4.492a1.5 1.5 0 1 0 2.356 1.856s2.64-3.347 7.31-3.414c1.834-.027 3.832.924 3.832.924a1.5 1.5 0 0 0 1.422-2.64l.069-.034.54-.604.145-.841c0-.001-.04-.219-.068-.303a1.496 1.496 0 0 0-.088-.213c-.241-.468-.361-.463-.445-.527-.057-.043-.076-.044-.116-.07a1.5 1.5 0 0 0-.088-2.635s-3.935-2.042-9.5-2.043zm32.618 0c-5.565 0-9.5 2.043-9.5 2.043a1.5 1.5 0 0 0-.088 2.635c-.04.026-.06.027-.116.07-.084.064-.204.059-.445.527-.03.058-.06.128-.088.213a3.337 3.337 0 0 0-.068.303l.144.842.541.603.069.035a1.5 1.5 0 0 0 1.422 2.639s1.998-.95 3.832-.924c4.67.068 7.31 3.414 7.31 3.414a1.5 1.5 0 1 0 2.356-1.855s-3.1-3.934-8.526-4.493c1.293-.116 2.73-.122 4.246.14 4.457.765 9.342 3.575 9.342 3.575a1.5 1.5 0 0 0 1.52-2.588s-5.083-3.037-10.354-3.943a18.72 18.72 0 0 0-1.922-.223c.112 0 .213-.014.327-.014 5.084 0 12.818 1.926 12.818 1.926a1.5 1.5 0 1 0 .742-2.906s-7.753-2.02-13.562-2.02z" opacity=".1" fill-rule="evenodd"/>
        <path d="M15.5 1093.02s-6.053-20.117-.7-21c5.374-.887 10.706 10.992 10.706 10.992M24.5 1101.92s-3.604-1.872-8.81-1.873c-5.447 0-13.19 1.973-13.19 1.973M24.5 1104.52c.212-.053-4.512-2.229-10.152-1.26-4.864.836-9.848 3.76-9.848 3.76M24.5 1107.12s-2.204-1.12-4.533-1.087c-5.387.078-8.467 3.987-8.467 3.987" fill="none" stroke="#3A393A" stroke-width="3" stroke-linecap="round" stroke-linejoin="round"/>
        <ellipse cx="25.3" cy="1092.52" rx="4.5" ry="5" fill="#3A393A"/>
        <ellipse cx="26.5" cy="1093.52" rx="1.5" ry="2" opacity=".2"/>
        <ellipse cx="26.5" cy="1092.52" rx="1.5" ry="2" fill="#F9F5D7"/>
        <path d="M48.5 1093.02s6.053-20.117.7-21c-5.374-.887-10.706 10.992-10.706 10.992M39.5 1101.92s3.604-1.872 8.81-1.873c5.447 0 13.19 1.973 13.19 1.973M39.5 1104.52c-.212-.053 4.512-2.229 10.152-1.26 4.864.836 9.848 3.76 9.848 3.76M39.5 1107.12s2.204-1.12 4.533-1.087c5.387.078 8.467 3.987 8.467 3.987" fill="none" stroke="#3A393A" stroke-width="3" stroke-linecap="round" stroke-linejoin="round"/>
        <ellipse cx="38.7" cy="1092.52" rx="4.5" ry="5" fill="#3A393A"/>
        <ellipse cx="39.9" cy="1093.52" rx="1.5" ry="2" opacity=".2"/>
        <ellipse cx="39.9" cy="1092.52" rx="1.5" ry="2" fill="#F9F5D7"/>
    </g>
</svg>
