<svg xmlns="http://www.w3.org/2000/svg" width="64" height="64">
    <rect width="54" height="54" x="-60" y="-59" rx="4.05" ry="4.05" transform="matrix(0 -1 -1 0 0 0)" opacity=".2"/>
    <rect width="54" height="54" x="-59" y="-59" rx="4.05" ry="4.05" transform="matrix(0 -1 -1 0 0 0)" fill="#448588"/>
    <path fill="#F9F5D7" d="M27 27h10v10H27zM41 27h10v10H41zM13 27h10v10H13zM27 41h10v10H27zM13 41h10v10H13zM27 13h10v10H27zM41 13h10v10H41z"/>
    <path d="M9.05 5A4.042 4.042 0 0 0 5 9.05v1A4.042 4.042 0 0 1 9.05 6h45.9A4.042 4.042 0 0 1 59 10.05v-1A4.042 4.042 0 0 0 54.95 5H9.05z" opacity=".2" fill="#F9F5D7"/>
    <path d="M27 23v1h10v-1H27zm14 0v1h10v-1H41zM13 37v1h10v-1H13zm14 0v1h10v-1H27zm14 0v1h10v-1H41zM13 51v1h10v-1H13zm14 0v1h10v-1H27z" opacity=".2"/>
    <rect width="22" height="22" x="-64" y="-62" rx="1.65" ry="1.65" transform="matrix(0 -1 -1 0 0 0)" opacity=".2"/>
    <rect width="22" height="22" x="-63" y="-62" rx="1.65" ry="1.65" transform="matrix(0 -1 -1 0 0 0)" fill="#FA4934"/>
    <path d="M43.5 45.5h3v13M56.5 58.5V46l-5 8.5h7v0" fill="none" stroke="#F9F5D7" stroke-width="3" stroke-linecap="round" stroke-linejoin="round"/>
</svg>
