<svg xmlns="http://www.w3.org/2000/svg" width="64" height="64" viewBox="0 0 48 48">
    <path d="M10.5 3.75a7.484 7.484 0 0 0-7.5 7.5c0 4.155 3.345 7.5 7.5 7.5h8.895L5.204 32.938a7.486 7.486 0 0 0 0 10.608 7.486 7.486 0 0 0 10.608 0L30 29.356v8.894c0 4.155 3.345 7.5 7.5 7.5 4.155 0 7.5-3.345 7.5-7.5v-27c0-4.155-3.345-7.5-7.5-7.5z" opacity=".2"/>
    <path d="M10.5 3A7.484 7.484 0 0 0 3 10.5c0 4.155 3.345 7.5 7.5 7.5h8.895L5.204 32.188a7.486 7.486 0 0 0 0 10.608 7.486 7.486 0 0 0 10.608 0L30 28.606V37.5c0 4.155 3.345 7.5 7.5 7.5 4.155 0 7.5-3.345 7.5-7.5v-27C45 6.345 41.655 3 37.5 3z" fill="#F9BD2E"/>
    <path d="M10.5 3A7.484 7.484 0 0 0 3 10.5c0 .127.013.25.019.375A7.476 7.476 0 0 1 10.5 3.75h27c4.155 0 7.5 3.345 7.5 7.5v-.75C45 6.345 41.655 3 37.5 3h-27zm8.145 15.75L5.203 32.188a7.468 7.468 0 0 0-2.184 5.68c.09-1.791.81-3.556 2.184-4.93L19.395 18.75h-.75z" opacity=".2" fill="#F9F5D7"/>
</svg>
