<svg xmlns="http://www.w3.org/2000/svg" width="64" height="64">
    <circle cx="32" cy="33" r="28" opacity=".2"/>
    <path d="M32 4a28 28 0 0 1 28 28H32z" fill="#377375"/>
    <path d="M32 60A28 28 0 0 1 4 32h28z" fill="#B7BB25"/>
    <path d="M32 4A28 28 0 0 0 4 32h28z" fill="#066678"/>
    <path d="M32 60a28 28 0 0 0 28-28H32z" fill="#48B9C7"/>
    <path d="M4 32l5 4 5-4z" fill="#066678"/>
    <path d="M60 32l-5-4-5 4z" fill="#48B9C7"/>
    <path d="M32 60l4-5-4-5z" fill="#B7BB25"/>
    <path d="M32 4l-4 5 4 5z" fill="#377375"/>
    <circle cx="32" cy="33" r="18" opacity=".2"/>
    <circle cx="32" cy="32" r="18" fill="#F9F5D7"/>
    <path d="M32 4A28 28 0 0 0 4 32a28 28 0 0 0 .018.492A28 28 0 0 1 32 5a28 28 0 0 1 27.975 27.492A28 28 0 0 0 60 32 28 28 0 0 0 32 4z" opacity=".1" fill="#F9F5D7"/>
</svg>
