<svg xmlns="http://www.w3.org/2000/svg" width="64" height="64" viewBox="0 0 16.93 16.93">
    <path d="M8.487 1.323a.19.19 0 0 0-.136.052 29.71 29.71 0 0 0-1.508 1.583C5.682 4.298 4.8 5.675 4.16 7.15c-.596 1.374-.945 2.562-1.262 4.293-.07.38-.14.839-.188 1.209-.024.184-.043.347-.054.466a2.25 2.25 0 0 0-.009.15c0 .02 0 .036.002.057 0 .01.002.02.007.04.006.018.001.056.083.103.044.025.05.02.06.023l.029.005.058.007a8.455 8.455 0 0 1 1.69.256c.293.08.487.145.774.263a22.672 22.672 0 0 0 .228.092l.017.006h.002v.001l.008.004-.001-.002.002.001.01.004c.003 0 .004.001.007.003h-.007a24.58 24.58 0 0 1 .236.121c.703.365 1.229.742 2.068 1.486a16.46 16.46 0 0 0 .389.333l.035.027.02.014.023.01c.01.005.021.015.071.017.06.003.072-.01.085-.014.012-.005.018-.009.023-.012a.793.793 0 0 0 .06-.043 16.843 16.843 0 0 0 .424-.36c.695-.608 1.031-.866 1.515-1.162 1.055-.649 1.996-.936 3.44-1.05l.117-.008c.094-.007.167-.08.166-.168v-.063c0-.133-.034-.407-.08-.747s-.105-.726-.158-1.02c-.317-1.747-.677-2.977-1.28-4.368-.544-1.253-1.323-2.52-2.254-3.665l-.006-.008c-.626-.686-1.232-1.406-1.893-2.073a.188.188 0 0 0-.129-.055z" opacity=".2"/>
    <path d="M8.487 1.059a.19.19 0 0 0-.136.051 29.71 29.71 0 0 0-1.508 1.583C5.682 4.033 4.8 5.411 4.16 6.886c-.596 1.373-.945 2.562-1.262 4.293-.07.379-.14.838-.188 1.208-.024.185-.043.347-.054.467a2.25 2.25 0 0 0-.009.149c0 .02 0 .036.002.057 0 .01.002.021.007.04.006.019.001.057.083.103.044.026.05.02.06.023l.029.006.058.006a8.456 8.456 0 0 1 1.69.256c.293.08.487.146.774.264a22.672 22.672 0 0 0 .228.091l.017.007h.002l.008.004-.001-.001h.002l.01.004c.003 0 .004.002.007.003h-.007l.048.024.188.097c.703.366 1.229.742 2.068 1.486a16.464 16.464 0 0 0 .389.333l.035.027.02.014.023.011c.01.005.021.014.071.017.06.002.072-.01.085-.015l.023-.011a.793.793 0 0 0 .06-.043c.028-.022.064-.05.106-.086.085-.071.198-.167.319-.274.694-.609 1.03-.866 1.514-1.163 1.055-.648 1.996-.936 3.44-1.049l.117-.009c.094-.007.167-.08.166-.167v-.064c0-.133-.034-.407-.08-.747s-.105-.726-.158-1.02c-.317-1.746-.677-2.976-1.28-4.368-.544-1.253-1.323-2.519-2.254-3.665l-.006-.007C9.883 2.5 9.277 1.78 8.616 1.113a.188.188 0 0 0-.129-.054z" fill="#066678"/>
    <path d="M8.487 1.062a.19.19 0 0 0-.136.052c-.435.42-.87.882-1.28 1.335l1.4 8.112 1.386-8.099c-.404-.455-.81-.91-1.241-1.345a.189.189 0 0 0-.129-.055zm-.016 9.499l4.26-3.752a15.137 15.137 0 0 0-1.063-1.963zm0 0l5.27-.758A17.39 17.39 0 0 0 13.3 8.28zm0 0l5.635 2.67.015-.001c.094-.008.167-.08.166-.168v-.055a7.54 7.54 0 0 0-.08-.744c-.023-.17-.052-.336-.08-.512l-.102-.376zm0 0l2.065 3.716.111-.039a6.82 6.82 0 0 1 1.17-.566zm0 0l-.874 4.641c.106.09.205.172.322.275a16.362 16.362 0 0 0 .389.333l.034.027.022.014.005.002.102.018.289-.172c.081-.069.18-.152.29-.249.107-.093.165-.135.257-.214zm0 0l-3.314 3.127c.063.024.12.044.192.073l.173.07.054.022.019.007h.001l.008.004-.001-.001h.002l.01.004a.05.05 0 0 1 .007.003h-.007l.049.024.187.097c.187.097.362.196.533.302zm0 0l-5.59.734c-.063.358-.127.768-.172 1.107-.024.184-.043.345-.054.465a2.243 2.243 0 0 0-.009.145v.003c0 .016 0 .031.002.049.001.01.002.02.007.04.006.018.001.056.083.103.044.025.05.02.06.022l.029.006.058.007c.043.004.096.008.152.01.081.005.176.014.268.023zm0 0L3.637 8.279c-.16.467-.3.947-.426 1.46zm0 0L5.284 4.813A15.132 15.132 0 0 0 4.27 6.676z" fill="#48B9C7" fill-rule="evenodd"/>
    <path d="M8.487 1.058a.189.189 0 0 0-.136.052 29.716 29.716 0 0 0-1.506 1.581l-.002.001c-1.162 1.34-2.044 2.719-2.684 4.193-.596 1.374-.945 2.562-1.262 4.294-.07.379-.14.838-.188 1.208-.024.185-.043.347-.054.467l-.01.149c0 .02 0 .036.003.057 0 .01.002.021.007.04l.002.004c.01-.12.028-.274.052-.453.048-.37.119-.829.188-1.208.317-1.73.666-2.92 1.262-4.293.64-1.475 1.522-2.853 2.684-4.193l.002-.001c.471-.53.993-1.086 1.506-1.581a.189.189 0 0 1 .136-.052.187.187 0 0 1 .128.055c.661.667 1.268 1.387 1.894 2.073l.006.008c.93 1.146 1.71 2.412 2.253 3.665.604 1.391.964 2.621 1.28 4.368.054.293.113.68.159 1.02.034.253.057.448.069.597a.12.12 0 0 0 .011-.051v-.063a7.63 7.63 0 0 0-.08-.748c-.046-.34-.105-.726-.158-1.02-.317-1.747-.677-2.976-1.28-4.367-.545-1.254-1.323-2.52-2.254-3.665l-.006-.009C9.883 2.5 9.276 1.781 8.615 1.113a.187.187 0 0 0-.128-.055z" opacity=".2" fill="#F9F5D7"/>
</svg>
