<svg xmlns="http://www.w3.org/2000/svg" width="64" height="64">
    <circle cx="32" cy="33" r="28" opacity=".2"/>
    <circle cx="32" cy="32" r="28" fill="#066678"/>
    <path d="M11.48 14a28 28 0 0 0-4.257 6h13.146l-5.457 25h6.14l.655-3h16.629l-.615 5H7.79a28 28 0 0 0 4.65 6h39.147a28 28 0 0 0 4.63-6H43.767l2.826-23H25.637l.875-4h30.27a28 28 0 0 0-4.25-6zm12.848 16h15.48l-.736 6H23.018z" opacity=".2"/>
    <path d="M11.48 13a28 28 0 0 0-4.257 6h13.146l-5.457 25h6.14l.655-3h16.629l-.615 5H7.79a28 28 0 0 0 4.65 6h39.147a28 28 0 0 0 4.63-6H43.767l2.826-23H25.637l.875-4h30.27a28 28 0 0 0-4.25-6H11.48zm12.848 16h15.48l-.736 6H23.018l1.31-6z" fill="#F9F5D7"/>
    <path d="M32 4A28 28 0 0 0 4 32a28 28 0 0 0 .021.586A28 28 0 0 1 32 5a28 28 0 0 1 27.979 27.414A28 28 0 0 0 60 32 28 28 0 0 0 32 4z" fill="#F9F5D7" opacity=".1"/>
</svg>
