<svg xmlns="http://www.w3.org/2000/svg" width="64" height="64" version="1">
    <rect width="56" height="56" x="4" y="5" rx="16.8" ry="16.8" opacity=".2"/>
    <rect width="56" height="56" x="4" y="4" rx="16.8" ry="16.8" fill="#066678"/>
    <path d="M32 12c-11.598 0-21 9.402-21 21s9.402 21 21 21 21-9.402 21-21-9.402-21-21-21zm-8 13v4h16v-4l11 8-11 8v-4H24v4l-11-8z" opacity=".2"/>
    <path d="M32 11c-11.598 0-21 9.402-21 21s9.402 21 21 21 21-9.402 21-21-9.402-21-21-21zm-8 13v4h16v-4l11 8-11 8v-4H24v4l-11-8 11-8z" fill="#F9F5D7"/>
    <path d="M20.8 4C11.495 4 4 11.494 4 20.8v1C4 12.495 11.494 5 20.8 5h22.4C52.505 5 60 12.494 60 21.8v-1C60 11.495 52.506 4 43.2 4H20.8z" fill="#F9F5D7" opacity=".2"/>
</svg>
