<svg xmlns="http://www.w3.org/2000/svg" width="64" height="64" version="1">
    <path d="M60 58.2V7.8C60 6.249 58.751 5 57.2 5H6.8A2.794 2.794 0 0 0 4 7.8v50.4C4 59.751 5.249 61 6.8 61h50.4c1.551 0 2.8-1.249 2.8-2.8z" opacity=".2"/>
    <path d="M60 57.2V6.8C60 5.249 58.751 4 57.2 4H6.8A2.794 2.794 0 0 0 4 6.8v50.4C4 58.751 5.249 60 6.8 60h50.4c1.551 0 2.8-1.249 2.8-2.8z" fill="#504945"/>
    <path d="M9 10v6h6v-6zm12.889 0C20.289 10 19 11.25 19 12.8v8.4c0 1.55 1.288 2.8 2.889 2.8H42.11c1.6 0 2.889-1.25 2.889-2.8v-8.4c0-1.55-1.288-2.8-2.889-2.8zM49 10v6h6v-6zM9 20v6h6v-6zm40 0v6h6v-6zm-27.111 6C20.289 26 19 27.25 19 28.8v8.4c0 1.55 1.288 2.8 2.889 2.8H42.11c1.6 0 2.889-1.25 2.889-2.8v-8.4c0-1.55-1.288-2.8-2.889-2.8zM9 30v6h6v-6zm40 0v6h6v-6zM9 40v6h6v-6zm40 0v6h6v-6zm-27.111 2C20.289 42 19 43.25 19 44.8v8.4c0 1.55 1.288 2.8 2.889 2.8H42.11c1.6 0 2.889-1.25 2.889-2.8v-8.4c0-1.55-1.288-2.8-2.889-2.8zM9 50v6h6v-6zm40 0v6h6v-6z" opacity=".2"/>
    <path d="M9 9v6h6V9z" fill="#F9F5D7"/>
    <rect width="26" height="14" x="19" y="9" rx="2.889" ry="2.8" fill="#48B9C7"/>
    <path d="M9 19v6h6v-6zM9 29v6h6v-6zM9 39v6h6v-6zM9 49v6h6v-6zM49 9v6h6V9zM49 19v6h6v-6zM49 29v6h6v-6zM49 39v6h6v-6zM49 49v6h6v-6z" fill="#F9F5D7"/>
    <rect width="26" height="14" x="19" y="25" rx="2.889" ry="2.8" fill="#48B9C7"/>
    <rect width="26" height="14" x="19" y="41" rx="2.889" ry="2.8" fill="#48B9C7"/>
    <path d="M6.8 4C5.25 4 4 5.25 4 6.8v1C4 6.25 5.25 5 6.8 5h50.4C58.75 5 60 6.25 60 7.8v-1C60 5.25 58.75 4 57.2 4H6.8z" fill="#F9F5D7" opacity=".1"/>
</svg>
