<svg xmlns="http://www.w3.org/2000/svg" width="64" height="64" version="1">
    <path d="M4 56.2v2C4 59.75 5.25 61 6.8 61h50.4c1.55 0 2.8-1.25 2.8-2.8v-2c0 1.55-1.25 2.8-2.8 2.8H6.8C5.25 59 4 57.75 4 56.2z" opacity=".2"/>
    <rect width="56" height="56" x="4" y="4" rx="2.8" ry="2.8" fill="#CB241D"/>
    <path d="M6.8 4C5.25 4 4 5.25 4 6.8v1.003c0-1.551 1.25-2.801 2.8-2.801h50.4c1.55 0 2.8 1.25 2.8 2.8V6.802C60 5.25 58.75 4 57.2 4H6.8z" opacity=".2" fill="#F9F5D7"/>
    <path d="M39.871 10.98a3 3 0 0 0-1.335.402L14.88 24.628 4 19.506v6.632l9.722 4.576a3 3 0 0 0 2.743-.097l25-14a3 3 0 0 0-1.294-5.638 3 3 0 0 0-.3 0zm0 10a3 3 0 0 0-1.335.402L14.88 34.629 4 29.507v6.632l9.723 4.576a3 3 0 0 0 2.742-.097l25-14a3 3 0 0 0-1.294-5.637 3 3 0 0 0-.3 0zm0 9.999a3 3 0 0 0-1.335.402L14.88 44.63 4 39.507v6.632l9.723 4.576a3 3 0 0 0 2.742-.098l25-14a3 3 0 0 0-1.294-5.636 3 3 0 0 0-.3 0z" opacity=".2" fill-rule="evenodd"/>
    <path d="M39.871 9.981a3 3 0 0 0-1.335.403L14.88 23.629 4 18.509v6.632l9.722 4.573a3 3 0 0 0 2.743-.096l25-14a3 3 0 0 0-1.293-5.637 3 3 0 0 0-.3 0zm0 10a3 3 0 0 0-1.335.402L14.88 33.628 4 28.508v6.632l9.722 4.574a3 3 0 0 0 2.743-.096l25-14a3 3 0 0 0-1.293-5.637 3 3 0 0 0-.3 0zm0 10a3 3 0 0 0-1.335.401L14.88 43.628 4 38.508v6.632l9.722 4.574a3 3 0 0 0 2.743-.096l25-14a3 3 0 0 0-1.293-5.638 3 3 0 0 0-.3 0z" fill="#F9F5D7" fill-rule="evenodd"/>
</svg>
