<svg xmlns="http://www.w3.org/2000/svg" width="64" height="64" version="1">
    <rect width="39" height="39" x="-59" y="-51" rx="4.179" ry="4.179" transform="matrix(0 -1 -1 0 0 0)" opacity=".2"/>
    <rect width="39" height="39" x="-58" y="-51" rx="4.179" ry="4.179" transform="matrix(0 -1 -1 0 0 0)" fill="#BDAD93"/>
    <path d="M16.178 19A4.168 4.168 0 0 0 12 23.178v1A4.168 4.168 0 0 1 16.178 20h30.644A4.168 4.168 0 0 1 51 24.178v-1A4.168 4.168 0 0 0 46.822 19z" opacity=".2" fill="#F9F5D7"/>
    <path d="M31.5 24L20 32h6v12h-6l11.5 8L43 44h-6V32h6z" fill="#504945"/>
    <path fill="#7B6F64" d="M26 38h11V5H26z"/>
    <rect width="11" height="33" x="-14" y="-48" rx="5.5" ry="5.5" transform="matrix(0 -1 -1 0 0 0)" opacity=".2"/>
    <rect width="11" height="33" x="-13" y="-48" rx="5.5" ry="5.5" transform="matrix(0 -1 -1 0 0 0)" fill="#CB241D"/>
    <path d="M20.5 2a5.488 5.488 0 0 0-5.477 6c.252-2.81 2.599-5 5.477-5h22a5.486 5.486 0 0 1 5.477 5A5.488 5.488 0 0 0 42.5 2z" opacity=".2" fill="#F9F5D7"/>
    <path opacity=".1" d="M26 38h11v1H26zM21.438 31L20 32h6v-1zM37 31v1h6l-1.438-1zM20 44l11.5 8L43 44h-1.438L31.5 51l-10.063-7z"/>
    <path d="M63 58.5C63 43.5 52.5 33 37.5 33c-2.25 0-4.5 2.25-4.5 4.5v21c0 2.25 2.25 4.5 4.5 4.5h21c2.25 0 4.5-2.25 4.5-4.5z" opacity=".2"/>
    <path d="M63 57.5C63 42.5 52.5 32 37.5 32c-2.25 0-4.5 2.25-4.5 4.5v21c0 2.25 2.25 4.5 4.5 4.5h21c2.25 0 4.5-2.25 4.5-4.5z" fill="#8F3F71"/>
    <path d="M38 37v1.667c0 .917.756 1.666 1.667 1.666 8.284 0 15 6.716 15 15 0 .917.755 1.667 1.666 1.667H58v-1.667C58 45.208 49.792 37 39.667 37z" fill="#F9F5D7"/>
    <path d="M38 43.667v1.666c0 .917.756 1.667 1.667 1.667A8.333 8.333 0 0 1 48 55.333c0 .917.756 1.667 1.667 1.667h1.666v-1.667c0-6.443-5.223-11.666-11.666-11.666z" fill="#F9F5D7"/>
    <path d="M41.5 50a3.5 3.5 0 1 0 0 7 3.5 3.5 0 0 0 0-7z" fill="#F9F5D7"/>
</svg>
