<svg xmlns="http://www.w3.org/2000/svg" width="64" height="64" version="1">
    <path d="M10 55.942v2C10 59.636 11.308 61 12.933 61h38.132C52.691 61 54 59.636 54 57.942v-2C54 57.636 52.691 59 51.065 59H12.933C11.308 59 10 57.636 10 55.942z" opacity=".2"/>
    <path fill="#7CB668" d="M24 4h16v6H24z"/>
    <rect width="44" height="52" x="10" y="8" rx="2.934" ry="3.058" fill="#578D57"/>
    <path d="M6 14v2c0 1.662 1.29 3 2.89 3h46.22c1.6 0 2.89-1.338 2.89-3v-2c0 1.662-1.29 3-2.89 3H8.89C7.29 17 6 15.662 6 14z" opacity=".2"/>
    <rect width="52" height="12" x="6" y="6" rx="2.888" ry="3" fill="#7CB668"/>
    <rect width="8" height="28" x="28" y="26" rx="2" ry="1.4" opacity=".4"/>
    <rect width="8" height="28" x="16" y="26" rx="2" ry="1.4" opacity=".4"/>
    <rect width="8" height="28" x="40" y="26" rx="2" ry="1.4" opacity=".4"/>
    <path d="M8.89 6C7.29 6 6 7.338 6 9v1c0-1.662 1.29-3 2.89-3h46.22C56.71 7 58 8.338 58 10V9c0-1.662-1.29-3-2.89-3H8.89z" opacity=".2" fill="#F9F5D7"/>
    <path d="M24 4v1h16V4H24z" opacity=".1" fill="#F9F5D7"/>
</svg>
