<svg xmlns="http://www.w3.org/2000/svg" width="64" height="64" version="1">
    <rect width="56" height="56" x="-62" y="-60" rx="2.8" ry="2.8" transform="matrix(0 -1 -1 0 0 0)" opacity=".2"/>
    <rect width="56" height="56" x="4" y="4" rx="2.8" ry="2.8" fill="#F9F5D7"/>
    <ellipse cx="39" cy="43" rx="11.5" ry="7.5" fill="#B7BB25" stroke="red" stroke-width="3"/>
    <path d="M38.47 35.752L21.167 20.963" fill="none" stroke="red" stroke-width="3"/>
    <ellipse cx="17" cy="18.416" rx="5.5" ry="4.813" fill="#B7BB25" stroke="red" stroke-width="3"/>
    <path d="M17.5 23.247v10.874" fill="#FAEEBB" fill-rule="evenodd" stroke="red" stroke-width="3"/>
    <path d="M17.52 33.964L12 40.568M22.8 40.542l-5.407-6.643M23 29.495L12 29.5" fill="none" stroke="red" stroke-width="3"/>
    <path d="M6.8 4C5.25 4 4 5.25 4 6.8v2C4 7.25 5.25 6 6.8 6h50.4C58.75 6 60 7.25 60 8.8v-2C60 5.25 58.75 4 57.2 4z" opacity=".2" fill="#F9F5D7"/>
    <path d="M29.041 43.508A3.127 3.127 0 0 0 29 44c0 1.45.899 2.88 2.688 4.047C33.475 49.213 36.087 50 39 50c2.911 0 5.524-.787 7.313-1.953C48.1 46.88 49 45.45 49 44c0-.165-.015-.329-.041-.492-.186 1.273-1.067 2.509-2.647 3.539C44.524 48.213 41.912 49 39 49c-2.911 0-5.524-.787-7.313-1.953-1.58-1.03-2.46-2.266-2.646-3.54z" opacity=".2" fill-rule="evenodd"/>
    <path d="M13.053 18.904a4 3.3 0 0 0-.053.494 4 3.3 0 0 0 4 3.301 4 3.3 0 0 0 4-3.3 4 3.3 0 0 0-.05-.49A4 3.3 0 0 1 17 21.7a4 3.3 0 0 1-3.947-2.795z" opacity=".2"/>
</svg>
