<svg xmlns="http://www.w3.org/2000/svg" width="64" height="64" version="1">
    <path d="M12 6h40v20H12z" fill="#BDAD93"/>
    <rect width="56" height="34" x="4" y="24" rx="2.8" ry="2.834" fill="#504945"/>
    <g opacity=".4">
        <path d="M16 32h32v4H16zM20 40h24v4H20zM24 48h16v4H24z"/>
    </g>
    <path d="M4 55.168v1C4 57.738 5.25 59 6.8 59h50.4c1.55 0 2.8-1.262 2.8-2.832v-1C60 56.738 58.75 58 57.2 58H6.8C5.25 58 4 56.738 4 55.168z" opacity=".2"/>
    <path d="M12 6v1h40V6H12z" opacity=".2" fill="#F9F5D7"/>
    <circle cx="48" cy="47" r="16" opacity=".2"/>
    <circle cx="48" cy="46" r="16" fill="#7CB668"/>
    <path d="M41 48.143L48 56l7-8.143h-4V36h-6v12.143z" fill="#F9F5D7"/>
    <path opacity=".5" d="M16 10h10v6H16zM38 10h10v6H38z"/>
</svg>
