<svg xmlns="http://www.w3.org/2000/svg" width="64" height="64" version="1">
    <path d="M16 34l6-12h19.224L48 34z" fill="#3A393A"/>
    <rect width="36" height="18" x="14" y="12" rx="3" ry="3" opacity=".2"/>
    <rect width="48" height="18" x="8" y="33" rx="3" ry="3" opacity=".2"/>
    <rect width="48" height="18" x="8" y="32" rx="3" ry="3" fill="#928274"/>
    <path d="M11 32c-1.662 0-3 1.338-3 3v7h48v-7c0-1.662-1.338-3-3-3z" opacity=".1" fill="#F9F5D7"/>
    <rect width="14" height="22" x="46" y="35" rx="1.5" ry="1.5" opacity=".2"/>
    <rect width="14" height="22" x="4" y="35" rx="1.5" ry="1.5" opacity=".2"/>
    <path d="M11 32c-1.662 0-3 1.338-3 3v1c0-1.662 1.338-3 3-3h42c1.662 0 3 1.338 3 3v-1c0-1.662-1.338-3-3-3H11z" fill="#F9F5D7" opacity=".2"/>
    <rect width="14" height="22" x="4" y="34" rx="1.5" ry="1.5" fill="#504945"/>
    <rect width="36" height="18" x="14" y="11" rx="3" ry="3" fill="#928274"/>
    <rect width="14" height="22" x="46" y="34" rx="1.5" ry="1.5" fill="#504945"/>
    <g transform="matrix(2 0 0 2 0 1)" fill="#3A393A">
        <rect width="3" height="3" x="8" y="6" rx=".75" ry=".75"/>
        <rect width="3" height="3" x="12" y="6" rx=".75" ry=".75"/>
        <rect width="3" height="3" x="17" y="6" rx=".75" ry=".75"/>
        <rect width="3" height="3" x="21" y="6" rx=".75" ry=".75"/>
        <rect width="3" height="3" x="21" y="10" rx=".75" ry=".75"/>
        <rect width="3" height="3" x="17" y="10" rx=".75" ry=".75"/>
        <rect width="3" height="3" x="12" y="10" rx=".75" ry=".75"/>
        <rect width="3" height="3" x="8" y="10" rx=".75" ry=".75"/>
    </g>
    <path d="M17 11c-1.662 0-3 1.338-3 3v1c0-1.662 1.338-3 3-3h30c1.662 0 3 1.338 3 3v-1c0-1.662-1.338-3-3-3H17z" opacity=".2" fill="#F9F5D7"/>
    <path fill="#3A393A" d="M4 49h14v5H4zM4 39h14v5H4zM46 44h14v5H46zM47.5 34c-.831 0-1.5.669-1.5 1.5V39h14v-3.5c0-.831-.669-1.5-1.5-1.5h-11zM46 54v.5c0 .831.669 1.5 1.5 1.5h11c.831 0 1.5-.669 1.5-1.5V54H46z"/>
</svg>
