<svg xmlns="http://www.w3.org/2000/svg" width="64" height="64">
    <circle cx="32" cy="33" r="28" opacity=".2"/>
    <circle cx="32" cy="32" r="28" fill="#48B9C7"/>
    <path d="M30 13.809l-1.191.375L14 18.809v8.906l7.832 4.898L14 36.531v8.836l14.398 6.297 1.602.703v-8.73l-6.574-2.88L30 37.47V28.28l-6.5-4.062 6.5-2.032zm4 0v8.379l6.5 2.03-6.5 4.063v9.188l6.574 3.289L34 43.637v8.73l1.602-.703L50 45.367v-8.836l-7.832-3.918L50 27.715v-8.906l-14.809-4.625z" opacity=".2"/>
    <path d="M30 12.809l-1.191.375L14 17.809v8.906l7.832 4.898L14 35.531v8.836l14.398 6.297 1.602.703v-8.73l-6.574-2.88L30 36.47V27.28l-6.5-4.062 6.5-2.032zm4 0v8.379l6.5 2.03-6.5 4.063v9.188l6.574 3.289L34 42.637v8.73l1.602-.703L50 44.367v-8.836l-7.832-3.918L50 26.715v-8.906l-14.809-4.625z" fill="#F9F5D7"/>
    <path d="M32 4A28 28 0 0 0 4 32a28 28 0 0 0 .018.492A28 28 0 0 1 32 5a28 28 0 0 1 27.975 27.492A28 28 0 0 0 60 32 28 28 0 0 0 32 4z" opacity=".2" fill="#F9F5D7"/>
</svg>
