<svg xmlns="http://www.w3.org/2000/svg" width="64" height="64" version="1">
    <path d="M26.268 4.003a1.44 1.44 0 0 0-1.225 1.137l-1.181 5.993A22.534 22.534 0 0 0 18 14.503l-5.818-1.97c-.605-.208-1.338.062-1.663.613l-5.6 9.712c-.315.559-.18 1.332.306 1.75l4.638 4.068C9.7 29.767 9.6 30.865 9.6 32.001s.1 2.234.263 3.325l-4.638 4.069c-.486.418-.621 1.191-.306 1.75l5.6 9.712c.325.55 1.058.82 1.662.612L18 49.501a22.54 22.54 0 0 0 5.862 3.368l1.181 5.994c.12.627.718 1.129 1.356 1.137h11.2c.638-.008 1.236-.51 1.356-1.137l1.18-5.994a22.534 22.534 0 0 0 5.863-3.368l5.818 1.968c.605.209 1.338-.061 1.663-.612l5.6-9.712c.315-.559.18-1.332-.307-1.75l-4.637-4.069c.163-1.09.263-2.188.263-3.325 0-1.136-.1-2.234-.263-3.325l4.637-4.068c.487-.418.622-1.191.307-1.75l-5.6-9.712c-.324-.552-1.058-.822-1.662-.613L45.998 14.5a22.412 22.412 0 0 0-5.858-3.37l-1.182-5.994C38.838 4.51 38.24 4.01 37.602 4H26.403a2.813 2.813 0 0 0-.13 0z" fill="#504945"/>
    <path d="M26.27 4l-.002.002a1.44 1.44 0 0 0-1.225 1.139l-1.182 5.992A22.532 22.532 0 0 0 18 14.502l-5.818-1.969c-.605-.208-1.338.063-1.662.613l-5.6 9.711c-.202.358-.202.796-.06 1.18.022-.059.029-.122.06-.178l5.6-9.713c.324-.55 1.057-.821 1.662-.613L18 15.502a22.526 22.526 0 0 1 5.861-3.367l1.182-5.994a1.438 1.438 0 0 1 1.225-1.137l.002-.002H37.6c.638.009 1.235.51 1.355 1.137l1.182 5.994A22.532 22.532 0 0 1 46 15.502l5.818-1.969c.604-.208 1.338.062 1.662.613l5.6 9.713c.031.055.038.118.061.176.14-.383.14-.821-.061-1.178l-5.6-9.711c-.324-.551-1.058-.821-1.662-.613L46 14.502a22.538 22.538 0 0 0-5.863-3.371l-1.182-5.992c-.12-.628-.717-1.13-1.355-1.139H26.4a2.817 2.817 0 0 0-.13 0zM9.756 29.584a21.2 21.2 0 0 0-.156 2.418c0 .169.017.332.021.5.025-.958.103-1.896.242-2.824l-.107-.094zm44.486.002l-.105.092c.139.928.215 1.866.24 2.824.004-.168.021-.331.021-.5 0-.822-.065-1.622-.156-2.416zm0 5.832c-.034.303-.06.607-.105.908l4.636 4.07c.176.152.288.356.368.573.205-.537.071-1.197-.368-1.574l-4.531-3.977zm-44.486.002l-4.53 3.975c-.438.377-.571 1.035-.366 1.572.079-.216.191-.42.367-.571l4.636-4.07c-.045-.3-.072-.604-.107-.906z" opacity=".1" fill="#F9F5D7"/>
    <path d="M59.141 24.035c-.08.217-.191.423-.367.574l-4.637 4.069c.045.3.071.604.106.906l4.53-3.977c.44-.377.573-1.035.368-1.572zm-54.281.002c-.204.536-.07 1.194.367 1.57l4.531 3.975c.035-.302.061-.604.106-.904l-4.637-4.07a1.343 1.343 0 0 1-.368-.571zm4.762 8.465c-.005.167-.022.33-.022.5 0 .823.066 1.623.156 2.418l.108-.094a22.862 22.862 0 0 1-.243-2.824zm44.756 0a23.006 23.006 0 0 1-.24 2.824l.105.092c.09-.794.156-1.593.156-2.416 0-.17-.017-.333-.021-.5zm-49.52 8.463c-.14.384-.14.822.061 1.18l5.6 9.712c.325.551 1.057.82 1.662.612l5.818-1.97a22.544 22.544 0 0 0 5.863 3.37l1.18 5.994c.12.628.719 1.128 1.357 1.137h11.199c.639-.008 1.236-.51 1.355-1.137l1.182-5.994a22.533 22.533 0 0 0 5.864-3.369l5.818 1.969c.605.208 1.338-.06 1.663-.611l5.6-9.713c.2-.357.2-.795.06-1.178-.023.059-.03.122-.06.178l-5.6 9.713c-.325.55-1.058.821-1.663.613L46 49.5a22.535 22.535 0 0 1-5.863 3.368l-1.181 5.994c-.12.628-.717 1.13-1.356 1.139h-11.2c-.639-.009-1.238-.511-1.357-1.139l-1.18-5.994a22.537 22.537 0 0 1-5.863-3.367l-5.818 1.969c-.605.208-1.338-.063-1.663-.613l-5.6-9.713c-.031-.056-.038-.12-.06-.18z" opacity=".2"/>
    <circle cx="46" cy="46" r="16" fill="#48B9C7"/>
    <path d="M30.025 46.5a16 16.002 0 0 0-.025.498A16 16.002 0 0 0 46 63a16 16.002 0 0 0 16-16.002 16 16.002 0 0 0-.018-.492A16 16.002 0 0 1 46 62a16 16.002 0 0 1-15.975-15.5z" opacity=".2"/>
    <g fill="#F9F5D7">
        <path d="M38.5 38h6a.5.5 0 0 1 .5.5v6a.5.5 0 0 1-.5.5h-6a.5.5 0 0 1-.5-.5v-6c0-.277.223-.5.5-.5zM47.5 38h6a.5.5 0 0 1 .5.5v6a.5.5 0 0 1-.5.5h-6a.5.5 0 0 1-.5-.5v-6c0-.277.223-.5.5-.5zM38.5 47h6a.5.5 0 0 1 .5.5v6a.5.5 0 0 1-.5.5h-6a.5.5 0 0 1-.5-.5v-6c0-.277.223-.5.5-.5zM47.5 47h6a.5.5 0 0 1 .5.5v6a.5.5 0 0 1-.5.5h-6a.5.5 0 0 1-.5-.5v-6c0-.277.223-.5.5-.5z"/>
    </g>
</svg>
