<svg xmlns="http://www.w3.org/2000/svg" width="64" height="64" version="1">
    <rect width="56" height="56" x="4" y="4" rx="28" ry="28" fill="#F9F5D7"/>
    <path d="M32 4C16.488 4 4 16.49 4 32.004c0 .114.011.224.018.336C4.369 17.136 16.71 5 32 5c15.29 0 27.63 12.136 27.982 27.34.007-.112.018-.222.018-.336C60 16.49 47.512 4 32 4z" opacity=".2" fill="#F9F5D7"/>
    <path d="M4.018 32.664C4.01 32.776 4 32.886 4 33c0 15.512 12.488 28 28 28s28-12.488 28-28c0-.114-.011-.224-.018-.336C59.631 47.866 47.29 60 32 60 16.71 60 4.37 47.866 4.018 32.664z" opacity=".2"/>
    <path d="M18 18c-2.216 0-4 1.785-4 4l18 10 18-10c0-2.215-1.784-4-4-4H18zm0 2h28c.757 0 1.273.45 1.613 1.036L32 29.71l-15.613-8.674c.34-.586.856-1.036 1.613-1.036zm-4 4v18c0 2.216 1.784 4 4 4h28c2.216 0 4-1.784 4-4V24L32 34 14 24zm2 3.403l15.027 8.347a2 2 0 0 0 1.946 0l15.026-8.348V42c0 1.143-.858 2-2 2h-28c-1.143 0-2-.858-2-2V27.403z" fill="#FA4934"/>
</svg>
