<svg xmlns="http://www.w3.org/2000/svg" width="64" height="64" version="1">
    <rect width="52" height="52" x="-58" y="-58" rx="2.6" ry="2.6" transform="matrix(0 -1 -1 0 0 0)" fill="#48B9C7"/>
    <path d="M15.01 20.038l7.996 27.965L33 28.028l9.995 19.975 7.996-27.965" opacity=".2" fill="none" stroke="#151819" stroke-width="5.995" stroke-linecap="round" stroke-linejoin="round"/>
    <path d="M15.01 19.039l7.996 27.964L33 27.03l9.995 19.974 7.996-27.964" fill="none" stroke="#F9F5D7" stroke-width="5.995" stroke-linecap="round" stroke-linejoin="round"/>
    <path d="M8.602 6A2.596 2.596 0 0 0 6 8.6v1C6 8.16 7.161 7 8.602 7h46.796C56.838 7 58 8.16 58 9.6v-1C58 7.16 56.838 6 55.398 6H8.602z" opacity=".2" fill="#F9F5D7"/>
    <path d="M6 55.4v1C6 57.839 7.161 59 8.602 59h46.796A2.597 2.597 0 0 0 58 56.4v-1c0 1.44-1.162 2.6-2.602 2.6H8.602A2.597 2.597 0 0 1 6 55.4z" opacity=".2"/>
    <circle cx="48" cy="46" r="16" fill="#CB241D"/>
    <path d="M48 39.5c-1.938.02-3.89.462-5.578 1.42-.673.438-1.481 1.004-2.09 1.574-.958.938-1.778 2.032-2.332 3.258 1.518 3.35 4.857 5.805 8.53 6.168 2.41.272 4.93-.144 7.048-1.336.673-.438 1.481-1.004 2.09-1.575.958-.94 1.778-2.034 2.332-3.258-1.518-3.35-4.858-5.805-8.53-6.167-.488-.058-.98-.084-1.47-.084zm0 2.5c2.009-.044 3.788 1.753 3.75 3.751.064 2.209-2.136 4.114-4.311 3.702-2.197-.258-3.74-2.722-3.018-4.81.462-1.536 1.97-2.66 3.58-2.642zm0 2.501a1.25 1.25 0 0 0-1.25 1.252 1.25 1.25 0 0 0 1.25 1.25 1.25 1.25 0 0 0 1.25-1.25A1.25 1.25 0 0 0 48 44.507z" fill="#F9F5D7" fill-rule="evenodd"/>
    <path d="M32.025 46.5a16 16.002 0 0 0-.025.498A16 16.002 0 0 0 48 63a16 16.002 0 0 0 16-16.002 16 16.002 0 0 0-.018-.492A16 16.002 0 0 1 48 62a16 16.002 0 0 1-15.975-15.5z" opacity=".2" fill-rule="evenodd"/>
</svg>
