<svg width="40" height="40" viewBox="0 0 40 40" fill="none" xmlns="http://www.w3.org/2000/svg">
<path d="M16.011 20.226C16.084 19.294 16.516 18.446 17.227 17.839C17.406 17.686 17.6 17.551 17.805 17.438L17.32 16.563C17.058 16.708 16.808 16.882 16.578 17.078C15.664 17.859 15.109 18.949 15.014 20.147C14.92 21.345 15.298 22.509 16.078 23.423C16.426 23.829 16.845 24.17 17.323 24.434L17.806 23.559C17.433 23.352 17.107 23.088 16.838 22.773C16.232 22.062 15.938 21.157 16.011 20.226ZM14.558 24.722C12.23 21.996 12.554 17.885 15.28 15.558C15.487 15.38 15.705 15.224 15.927 15.078L15.376 14.243C15.119 14.412 14.869 14.593 14.63 14.797C13.106 16.098 12.181 17.915 12.024 19.912C11.867 21.909 12.497 23.848 13.797 25.372C14.248 25.9 14.779 26.367 15.375 26.76L15.925 25.925C15.408 25.583 14.948 25.178 14.558 24.722ZM25.203 15.629C24.752 15.101 24.222 14.634 23.625 14.241L23.074 15.076C23.592 15.418 24.052 15.822 24.442 16.279C25.57 17.599 26.116 19.28 25.979 21.01C25.843 22.741 25.041 24.315 23.72 25.443C23.513 25.621 23.295 25.777 23.073 25.924L23.623 26.759C23.88 26.59 24.13 26.408 24.37 26.204C25.893 24.903 26.819 23.086 26.976 21.089C27.134 19.091 26.504 17.152 25.203 15.629ZM22.922 17.577C22.574 17.171 22.155 16.83 21.677 16.566L21.194 17.441C21.567 17.648 21.893 17.912 22.162 18.227C22.77 18.938 23.063 19.843 22.99 20.775C22.917 21.707 22.485 22.555 21.773 23.162C21.595 23.314 21.401 23.45 21.196 23.563L21.681 24.438C21.944 24.292 22.194 24.118 22.423 23.923C23.337 23.142 23.892 22.052 23.987 20.854C24.08 19.655 23.702 18.491 22.922 17.577ZM19.5 19C18.672 19 18 19.671 18 20.5C18 21.152 18.419 21.702 19 21.908V28H20V21.908C20.581 21.702 21 21.152 21 20.5C21 19.671 20.329 19 19.5 19Z" fill="#B3B3B3"/>
</svg>
