<svg xmlns="http://www.w3.org/2000/svg" height="64" width="64">
    <g fill="none" stroke="#7B6F64" stroke-width=".768" stroke-linecap="round" stroke-linejoin="round">
        <path d="M10.454 2.638c-1.535 0-2.302.768-2.302 2.303v38.372c0 1.535.767 2.302 2.302 2.302H38.85c1.535 0 2.302-.767 2.302-2.302V14.918L29.64 2.638z" transform="matrix(1.30303 0 0 1.30302 .878 1.062)"/>
        <path d="M29.64 2.638l11.512 12.28h-9.21c-1.534 0-2.302-.768-2.302-2.303z" transform="matrix(1.30303 0 0 1.30302 .878 1.062)"/>
    </g>
    <g transform="scale(1.5 1.5) translate(11 12)" id="g2522">     <path d="M4.125 2.75v5.5H2.75v8.25h4.125v2.75h8.25V16.5h4.125V8.25h-1.375v-5.5zM5.5 4.125h11V8.25h-1.375V6.875h-8.25V8.25H5.5zm1.375 0V5.5h8.25V4.125zm-2.75 5.5h13.75v5.5H16.5V13.75h-11v1.375H4.125zM13.75 11v1.375h2.75V11zm-5.5 5.5h5.5v1.375h-5.5zm0 0" fill="#FA4934"/>
    </g>
</svg>
