<svg xmlns="http://www.w3.org/2000/svg" height="64" width="64">
    <g fill="none" stroke="#7B6F64" stroke-width=".768" stroke-linecap="round" stroke-linejoin="round">
        <path d="M10.454 2.638c-1.535 0-2.302.768-2.302 2.303v38.372c0 1.535.767 2.302 2.302 2.302H38.85c1.535 0 2.302-.767 2.302-2.302V14.918L29.64 2.638z" transform="matrix(1.30303 0 0 1.30302 .878 1.062)"/>
        <path d="M29.64 2.638l11.512 12.28h-9.21c-1.534 0-2.302-.768-2.302-2.303z" transform="matrix(1.30303 0 0 1.30302 .878 1.062)"/>
    </g>
    <g transform="scale(1.5 1.5) translate(11 12)" id="g2522">     <path d="M7.355 19.113c-.328-.086-.293-.18.247-.683.933-.875 1.09-1.742.824-4.606-.211-2.281-.258-2.453-.617-2.261-.77.414-1.735-.122-2.832-1.567-.54-.715-.59-.922-.5-2.035.058-.684.171-1.508.257-1.832.133-.496.09-.59-.27-.59a1.02 1.02 0 0 1-.698-.324c-.375-.453.293-1.176 1.082-1.176.32 0 .703-.144.851-.324.38-.453.957-.399 1.61.164.691.594.925 1.973.539 3.148-.438 1.332-.137 1.461.48.207.344-.703.828-1.316 1.227-1.554.363-.215.894-.762 1.18-1.211.288-.453.644-.903.796-1 .469-.301 1.754-.711 2.23-.715.653-.012 1.532.758 1.684 1.469.075.336.47 1.129.875 1.761.407.63.742 1.258.742 1.391 0 .137.29.613.641 1.055.531.668.645 1.004.637 1.906-.012 1.238-.68 2.82-.922 2.184-.078-.204-.047-.543.07-.762.242-.457.028-2.473-.234-2.211-.184.183-.305 2.156-.254 4.14.066 2.575-.059 5.004-.262 5.07-.52.165-.746-.26-.531-1.007.32-1.117.254-4.094-.102-4.566-.168-.215-.363-.77-.44-1.23-.08-.462-.227-.888-.33-.954-.339-.207-.847 1.145-.847 2.25 0 .863-.133 1.262-.644 1.973-.727 1.004-.781 1.297-.32 1.68.355.3.425.98.117 1.171-.11.07-.399-.086-.645-.347-.344-.368-.441-.399-.441-.137 0 .39-.793.656-1.23.41-.235-.129-.18-.246.25-.527.769-.504.695-.918-.333-1.856-.8-.734-.87-.879-.738-1.531.414-2.059.414-2.113-.066-2.113-.317 0-.454.136-.454.445 0 .242-.105.64-.238.883-.226.43-.297.773-.851 4.3-.278 1.758-.348 1.825-1.543 1.512m5.757-3.742c.278-.539.32-1 .2-2.273-.157-1.692-.274-1.75-.739-.375-.156.472-.468 1.09-.687 1.37-.512.653-.5.852.066 1.458.61.648.742.629 1.16-.18" fill="#48B9C7"/>
    </g>
</svg>
