<svg xmlns="http://www.w3.org/2000/svg" height="64" width="64">
    <g fill="none" stroke="#7B6F64" stroke-width=".768" stroke-linecap="round" stroke-linejoin="round">
        <path d="M10.454 2.638c-1.535 0-2.302.768-2.302 2.303v38.372c0 1.535.767 2.302 2.302 2.302H38.85c1.535 0 2.302-.767 2.302-2.302V14.918L29.64 2.638z" transform="matrix(1.30303 0 0 1.30302 .878 1.062)"/>
        <path d="M29.64 2.638l11.512 12.28h-9.21c-1.534 0-2.302-.768-2.302-2.303z" transform="matrix(1.30303 0 0 1.30302 .878 1.062)"/>
    </g>
    <g transform="scale(1.5 1.5) translate(11 12)" id="g2522">     <path d="M9.734 1.375c-.941 0-2.168.559-3.285 1.492-.676.301-1.148 1-1.148 1.813 0 .254.047.504.133.738-1.16.234-2.04 1.305-2.04 2.586 0 .27.036.531.114.785a2.693 2.693 0 0 0-.75 1.879c0 .555.164 1.07.445 1.492a2.693 2.693 0 0 0-.445 1.5c0 .957.5 1.84 1.293 2.305a2.67 2.67 0 0 0-.02.36c0 1.292.809 2.437 1.98 2.827.509.91 1.434 1.473 2.45 1.473 1.113 0 2.082-.672 2.547-1.648.465.976 1.43 1.648 2.543 1.648 1.015 0 1.945-.563 2.457-1.473 1.172-.39 1.98-1.535 1.98-2.828a3.62 3.62 0 0 0-.023-.36c.793-.464 1.293-1.347 1.293-2.304 0-.543-.153-1.058-.445-1.5.28-.426.445-.937.445-1.492a2.7 2.7 0 0 0-.75-1.879c.074-.254.113-.516.113-.785 0-1.281-.879-2.352-2.043-2.586.09-.234.137-.484.137-.738a1.98 1.98 0 0 0-1.149-1.813c-1.12-.933-2.347-1.492-3.289-1.492-.52 0-.984.27-1.27.684a1.548 1.548 0 0 0-1.273-.684m0 .621c.54 0 .973.461.973 1.024v4.03a1.529 1.529 0 0 0-.973-.35c-.164 0-.3.14-.3.312s.136.308.3.308c.54 0 .973.457.973 1.02v7.496c-.371-.5-.89-.875-1.508-1.047a.298.298 0 0 0-.367.219.314.314 0 0 0 .211.383c.98.273 1.664 1.203 1.664 2.261 0 1.297-1.008 2.352-2.246 2.352-.836 0-1.598-.484-1.988-1.258a.299.299 0 0 0-.188-.156c-.976-.274-1.66-1.207-1.66-2.266 0-.156.016-.316.043-.472a.315.315 0 0 0-.172-.348c-.695-.324-1.144-1.047-1.144-1.844 0-.36.09-.703.261-1.012a2.43 2.43 0 0 0 1.664.66c.168 0 .297-.14.297-.312a.3.3 0 0 0-.297-.309c-1.062 0-1.93-.906-1.93-2.019 0-.598.255-1.164.696-1.547a.318.318 0 0 0 .082-.355 2.1 2.1 0 0 1-.14-.758c0-1.113.867-2.016 1.93-2.016 1.062 0 1.929.903 1.929 2.016 0 .172.133.312.297.312.164 0 .3-.14.3-.312 0-1.399-1.046-2.543-2.363-2.633a1.433 1.433 0 0 1-.183-.695c0-.555.324-1.032.785-1.239a.094.094 0 0 1 .05-.023c.145-.059.297-.09.457-.09.5 0 .95.29 1.165.762.074.156.25.219.398.144a.32.32 0 0 0 .14-.414 1.926 1.926 0 0 0-1.265-1.062c.762-.485 1.512-.762 2.11-.762zm2.543 0c.598 0 1.352.277 2.11.762a1.93 1.93 0 0 0-1.262 1.062.319.319 0 0 0 .137.414c.148.079.324.016.398-.144a1.277 1.277 0 0 1 1.164-.762c.16 0 .313.031.457.086.016.016.035.02.055.023.457.208.781.684.781 1.243 0 .246-.066.48-.183.691-1.317.086-2.364 1.234-2.364 2.633 0 .172.137.316.301.316.164 0 .3-.144.3-.316 0-1.11.86-2.016 1.927-2.016 1.062 0 1.93.907 1.93 2.016 0 .262-.048.516-.141.762a.312.312 0 0 0 .082.351c.441.387.695.953.695 1.551 0 1.113-.867 2.016-1.93 2.016a.305.305 0 0 0-.297.312c0 .172.133.313.297.313a2.45 2.45 0 0 0 1.668-.66c.172.308.258.652.258 1.011 0 .797-.45 1.52-1.144 1.844a.315.315 0 0 0-.172.348c.031.152.047.312.047.472 0 1.059-.688 1.988-1.664 2.266a.305.305 0 0 0-.188.152c-.39.778-1.152 1.262-1.988 1.262-1.239 0-2.246-1.055-2.246-2.352 0-.09-.004-.172-.012-.261a.278.278 0 0 0 .012-.082V7.012c0-.563.437-1.024.972-1.024a.302.302 0 0 0 .301-.308.306.306 0 0 0-.3-.313c-.368 0-.704.133-.973.352v-2.7c0-.562.437-1.023.972-1.023m4.453 5.367a.305.305 0 0 0-.296.313c0 1.113-.864 2.015-1.926 2.015a1.862 1.862 0 0 1-1.375-.605.287.287 0 0 0-.422 0 .325.325 0 0 0-.008.441c.414.442.95.707 1.527.774.137.949.926 1.683 1.872 1.683.164 0 .296-.144.296-.316a.302.302 0 0 0-.296-.309h-.004c-.618 0-1.133-.457-1.262-1.062 1.238-.172 2.2-1.277 2.2-2.613 0-.172-.138-.317-.302-.317zm-10.812.324c-.164 0-.3.145-.3.317 0 1.336.96 2.45 2.198 2.617-.125.606-.644 1.063-1.261 1.063-.164 0-.301.14-.301.312s.137.313.3.313c.946 0 1.731-.73 1.868-1.68a2.472 2.472 0 0 0 1.527-.777.325.325 0 0 0-.008-.442.29.29 0 0 0-.418 0c-.367.39-.855.606-1.375.606-1.062 0-1.93-.903-1.93-2.016a.305.305 0 0 0-.296-.313zm6.36 4.665a.305.305 0 0 0-.298.312c0 .172.133.313.297.313 1.063 0 1.93.902 1.93 2.015 0 .074-.004.145-.012.215-.922.39-1.578 1.344-1.578 2.45 0 .171.133.312.297.312.168 0 .3-.14.3-.313 0-1.113.864-2.015 1.93-2.015.165 0 .297-.145.297-.317a.302.302 0 0 0-.296-.308c-.118 0-.23.015-.34.027v-.047c0-1.453-1.133-2.64-2.524-2.64zm-3.497.664c-1.394 0-2.523 1.183-2.523 2.64v.043c-.113-.011-.223-.023-.34-.023a.305.305 0 0 0-.297.312c0 .172.133.313.297.313 1.062 0 1.93.906 1.93 2.015 0 .172.132.317.297.317.164 0 .3-.145.3-.317 0-1.105-.656-2.054-1.582-2.449a1.909 1.909 0 0 1-.011-.21c0-1.114.867-2.016 1.93-2.016.163 0 .3-.141.3-.313a.309.309 0 0 0-.3-.312" fill="#7B6F64"/>
    </g>
</svg>
