<svg xmlns="http://www.w3.org/2000/svg" height="64" width="64">
    <g fill="none" stroke="#7B6F64" stroke-width=".768" stroke-linecap="round" stroke-linejoin="round">
        <path d="M10.454 2.638c-1.535 0-2.302.768-2.302 2.303v38.372c0 1.535.767 2.302 2.302 2.302H38.85c1.535 0 2.302-.767 2.302-2.302V14.918L29.64 2.638z" transform="matrix(1.30303 0 0 1.30302 .878 1.062)"/>
        <path d="M29.64 2.638l11.512 12.28h-9.21c-1.534 0-2.302-.768-2.302-2.303z" transform="matrix(1.30303 0 0 1.30302 .878 1.062)"/>
    </g>
    <g transform="scale(1.5 1.5) translate(11 12)" id="g2522">     <path d="M11 2.75A8.247 8.247 0 0 0 2.75 11 8.247 8.247 0 0 0 11 19.25 8.247 8.247 0 0 0 19.25 11 8.247 8.247 0 0 0 11 2.75m0 1.375a6.875 6.875 0 1 1 0 13.75 6.875 6.875 0 0 1 0-13.75M11 5.5c-3.04 0-5.5 2.46-5.5 5.5h2.75c0-1.52 1.23-2.75 2.75-2.75zm0 4.125c-.758 0-1.375.617-1.375 1.375s.617 1.375 1.375 1.375 1.375-.617 1.375-1.375S11.758 9.625 11 9.625M13.75 11c0 1.52-1.23 2.75-2.75 2.75v2.75c3.04 0 5.5-2.46 5.5-5.5zm0 0" fill="#7B6F64"/>
    </g>
</svg>
