<svg xmlns="http://www.w3.org/2000/svg" height="64" width="64">
    <g fill="none" stroke="#7B6F64" stroke-width=".768" stroke-linecap="round" stroke-linejoin="round">
        <path d="M10.454 2.638c-1.535 0-2.302.768-2.302 2.303v38.372c0 1.535.767 2.302 2.302 2.302H38.85c1.535 0 2.302-.767 2.302-2.302V14.918L29.64 2.638z" transform="matrix(1.30303 0 0 1.30302 .878 1.062)"/>
        <path d="M29.64 2.638l11.512 12.28h-9.21c-1.534 0-2.302-.768-2.302-2.303z" transform="matrix(1.30303 0 0 1.30302 .878 1.062)"/>
    </g>
    <g transform="scale(1.5 1.5) translate(11 12)" id="g2522">     <path d="M2.75 2.75v16.5h16.5V2.75zm1.375 1.375h5.5V5.5H11V4.125h6.875v13.75H4.125zM11 5.5v1.375h1.375V5.5zm0 1.375H9.625V8.25H11zm0 1.375v1.375h1.375V8.25zm0 1.375H9.625V11H11zM11 11v1.375h1.375V11zm0 1.375H9.625v2.75h2.75V13.75H11zm0 0" fill="#48B9C7"/>
    </g>
</svg>
