<svg xmlns="http://www.w3.org/2000/svg" height="64" width="64">
    <g fill="none" stroke="#7B6F64" stroke-width=".768" stroke-linecap="round" stroke-linejoin="round">
        <path d="M10.454 2.638c-1.535 0-2.302.768-2.302 2.303v38.372c0 1.535.767 2.302 2.302 2.302H38.85c1.535 0 2.302-.767 2.302-2.302V14.918L29.64 2.638z" transform="matrix(1.30303 0 0 1.30302 .878 1.062)"/>
        <path d="M29.64 2.638l11.512 12.28h-9.21c-1.534 0-2.302-.768-2.302-2.303z" transform="matrix(1.30303 0 0 1.30302 .878 1.062)"/>
    </g>
    <g transform="scale(1.5 1.5) translate(11 12)" id="g2522">     <path d="M10.148 2.688a.684.684 0 0 0-.476 1.171l4.41 4.407a4.798 4.798 0 0 0-.332-.012H3.437a.689.689 0 0 0 0 1.375h6.59l-7.074 7.078a.686.686 0 1 0 .973.969l4.347-4.348c-.011.14-.02.281-.023.426a5.5 5.5 0 0 0 11 0 5.495 5.495 0 0 0-1.32-3.57l.008-.012-.188-.188a4.644 4.644 0 0 0-.277-.277l-6.828-6.828a.694.694 0 0 0-.497-.203zm3.602 6.945c1.012 0 1.988.375 2.746 1.047l.313.312a4.126 4.126 0 1 1-3.059-1.36m0 2.75a1.375 1.375 0 1 0-.001 2.75 1.375 1.375 0 0 0 .001-2.75" fill="#FD8019"/>
    </g>
</svg>
