<svg xmlns="http://www.w3.org/2000/svg" height="64" width="64">
    <g fill="none" stroke="#7B6F64" stroke-width=".768" stroke-linecap="round" stroke-linejoin="round">
        <path d="M10.454 2.638c-1.535 0-2.302.768-2.302 2.303v38.372c0 1.535.767 2.302 2.302 2.302H38.85c1.535 0 2.302-.767 2.302-2.302V14.918L29.64 2.638z" transform="matrix(1.30303 0 0 1.30302 .878 1.062)"/>
        <path d="M29.64 2.638l11.512 12.28h-9.21c-1.534 0-2.302-.768-2.302-2.303z" transform="matrix(1.30303 0 0 1.30302 .878 1.062)"/>
    </g>
    <g transform="scale(1.5 1.5) translate(11 12)" id="g2522">     <g fill="#7B6F64">
        <path d="M12.285 8.168c.027-.2.043-.398.043-.605 0-.204-.02-.403-.043-.602l1.344-1.024a.308.308 0 0 0 .078-.398l-1.273-2.144a.319.319 0 0 0-.387-.133l-1.586.62a4.994 4.994 0 0 0-1.074-.609l-.239-1.636a.323.323 0 0 0-.316-.262H6.289a.32.32 0 0 0-.316.262l-.239 1.636c-.386.16-.746.364-1.074.61l-1.586-.621a.325.325 0 0 0-.386.133l-1.27 2.144a.304.304 0 0 0 .074.399l1.34 1.023a5.13 5.13 0 0 0-.043.601c0 .204.02.407.043.606l-1.34 1.023a.303.303 0 0 0-.074.399l1.27 2.14a.32.32 0 0 0 .386.133l1.586-.62a4.77 4.77 0 0 0 1.074.609l.239 1.64a.323.323 0 0 0 .316.262h2.543c.16 0 .29-.117.316-.262l.235-1.64c.39-.157.75-.36 1.078-.61l1.582.621c.145.055.309 0 .387-.133l1.273-2.14a.312.312 0 0 0-.074-.399zM7.562 9.73c-1.23 0-2.226-.968-2.226-2.168 0-1.195.996-2.164 2.226-2.164 1.231 0 2.227.97 2.227 2.165 0 1.199-.996 2.167-2.226 2.167"/>
        <path d="M17.75 17.105a3.77 3.77 0 0 0 .14-.437c.036-.152.055-.305.07-.457l1.157-.516a.236.236 0 0 0 .125-.277l-.547-1.816a.246.246 0 0 0-.258-.168l-1.253.175a3.736 3.736 0 0 0-.672-.64l.113-1.258a.236.236 0 0 0-.184-.246l-1.84-.457a.238.238 0 0 0-.273.137l-.46 1.171a3.238 3.238 0 0 0-.884.258l-1.039-.746a.238.238 0 0 0-.304.031l-1.297 1.356a.242.242 0 0 0-.012.308l.793.997a3.882 3.882 0 0 0-.14.44c-.036.15-.055.302-.07.454l-1.153.52a.232.232 0 0 0-.125.277l.547 1.812a.236.236 0 0 0 .254.168l1.257-.175c.192.242.418.457.672.644l-.117 1.254a.248.248 0 0 0 .184.25l1.84.457a.245.245 0 0 0 .277-.137l.457-1.168c.308-.046.605-.136.887-.261l1.035.746a.238.238 0 0 0 .304-.031l1.297-1.356a.233.233 0 0 0 .012-.309zm-3.695.31a1.671 1.671 0 0 1-1.23-2 1.635 1.635 0 0 1 1.991-1.204 1.668 1.668 0 0 1 1.23 2 1.633 1.633 0 0 1-1.991 1.203"/>
    </g>
    </g>
</svg>
