<svg xmlns="http://www.w3.org/2000/svg" height="64" width="64">
    <g fill="none" stroke="#7B6F64" stroke-width=".768" stroke-linecap="round" stroke-linejoin="round">
        <path d="M10.454 2.638c-1.535 0-2.302.768-2.302 2.303v38.372c0 1.535.767 2.302 2.302 2.302H38.85c1.535 0 2.302-.767 2.302-2.302V14.918L29.64 2.638z" transform="matrix(1.30303 0 0 1.30302 .878 1.062)"/>
        <path d="M29.64 2.638l11.512 12.28h-9.21c-1.534 0-2.302-.768-2.302-2.303z" transform="matrix(1.30303 0 0 1.30302 .878 1.062)"/>
    </g>
    <g transform="scale(1.5 1.5) translate(11 12)" id="g2522">     <path d="M4.27 3.398h13.46c.48 0 .872.391.872.872v13.46c0 .48-.391.872-.872.872H4.27a.872.872 0 0 1-.872-.872V4.27c0-.48.391-.872.872-.872zm0 0" fill="none" stroke-width="1.299" stroke-linecap="round" stroke-linejoin="round" stroke="#48B9C7"/>
    <path d="M9.762 4.414v2.473H8.449L11 9.777l2.55-2.89h-1.312V4.414zm.788 5.774c-.073 0-.116.12-.116.273v.937a2.6 2.6 0 0 0-.801.336l-.668-.668c-.106-.105-.223-.156-.274-.105l-.629.633c-.05.05-.003.164.102.27l.672.671c-.152.242-.27.512-.336.797h-.941c-.149 0-.27.047-.27.117v.903c0 .07.121.117.27.117H8.5c.066.285.184.558.336.797l-.672.671c-.105.106-.152.22-.101.27l.628.633c.051.05.168.004.274-.102l.668-.672a2.6 2.6 0 0 0 .8.336v.942c0 .148.044.27.118.27h.902c.07 0 .113-.122.113-.27v-.942a2.6 2.6 0 0 0 .801-.336l.668.672c.106.106.223.153.274.102l.629-.633c.05-.05.003-.164-.102-.27l-.672-.671c.152-.239.27-.512.336-.797h.941c.149 0 .27-.047.27-.117v-.903c0-.07-.121-.117-.27-.117H13.5a2.618 2.618 0 0 0-.336-.797l.672-.672c.105-.105.152-.218.101-.27l-.628-.632c-.051-.05-.168 0-.274.105l-.668.668a2.6 2.6 0 0 0-.8-.336v-.937c0-.152-.044-.274-.118-.274zm.45 2.566c.629 0 1.148.516 1.148 1.148 0 .63-.52 1.145-1.148 1.145a1.152 1.152 0 0 1-1.148-1.145c0-.632.52-1.148 1.148-1.148zm0 0" fill="#48B9C7"/>
    </g>
</svg>
