<svg xmlns="http://www.w3.org/2000/svg" height="64" width="64">
    <g fill="none" stroke="#7B6F64" stroke-width=".768" stroke-linecap="round" stroke-linejoin="round">
        <path d="M10.454 2.638c-1.535 0-2.302.768-2.302 2.303v38.372c0 1.535.767 2.302 2.302 2.302H38.85c1.535 0 2.302-.767 2.302-2.302V14.918L29.64 2.638z" transform="matrix(1.30303 0 0 1.30302 .878 1.062)"/>
        <path d="M29.64 2.638l11.512 12.28h-9.21c-1.534 0-2.302-.768-2.302-2.303z" transform="matrix(1.30303 0 0 1.30302 .878 1.062)"/>
    </g>
    <g transform="scale(1.5 1.5) translate(11 12)" id="g2522">     <path d="M2.75 4.125v13.75h8.113V16.5H4.125v-.086l5.371-4.598 1.031 1.032.336.363v-1.918L10.57 11H8.398l-4.273 3.652V6.445l3.2 3.2.476-1.418L5.07 5.5h3.64l.453-1.375zm8.25 0V5.5h5.93l-2.223 2.223-.945 2.836 4.113-4.114v8.207l-4.266-3.644-.457 1.367 4.723 4.043v.086h-6.098l-.457 1.375h7.93V4.129h-.945zm0 0" fill="#FA4934"/>
    </g>
</svg>
