<svg xmlns="http://www.w3.org/2000/svg" height="64" width="64">
    <g fill="none" stroke="#7B6F64" stroke-width=".768" stroke-linecap="round" stroke-linejoin="round">
        <path d="M10.454 2.638c-1.535 0-2.302.768-2.302 2.303v38.372c0 1.535.767 2.302 2.302 2.302H38.85c1.535 0 2.302-.767 2.302-2.302V14.918L29.64 2.638z" transform="matrix(1.30303 0 0 1.30302 .878 1.062)"/>
        <path d="M29.64 2.638l11.512 12.28h-9.21c-1.534 0-2.302-.768-2.302-2.303z" transform="matrix(1.30303 0 0 1.30302 .878 1.062)"/>
    </g>
    <g transform="scale(1.5 1.5) translate(11 12)" id="g2522">     <path d="M2.75 2.75v16.5h1.375v-4.813A3.428 3.428 0 0 1 7.563 11 3.428 3.428 0 0 1 11 14.438v4.812h1.375v-4.813a4.8 4.8 0 0 0-4.813-4.812 4.783 4.783 0 0 0-3.437 1.45V2.753zm8.25 0v1.375H9.625V5.5H11v1.375h1.375V5.5h1.375V4.125h-1.375V2.75zm5.5 0v1.375h-1.375V5.5H16.5v1.375h1.375V5.5h1.375V4.125h-1.375V2.75zm0 0" fill="#A04A73"/>
    </g>
</svg>
