<svg xmlns="http://www.w3.org/2000/svg" height="64" width="64">
    <g fill="none" stroke="#7B6F64" stroke-width=".768" stroke-linecap="round" stroke-linejoin="round">
        <path d="M10.454 2.638c-1.535 0-2.302.768-2.302 2.303v38.372c0 1.535.767 2.302 2.302 2.302H38.85c1.535 0 2.302-.767 2.302-2.302V14.918L29.64 2.638z" transform="matrix(1.30303 0 0 1.30302 .878 1.062)"/>
        <path d="M29.64 2.638l11.512 12.28h-9.21c-1.534 0-2.302-.768-2.302-2.303z" transform="matrix(1.30303 0 0 1.30302 .878 1.062)"/>
    </g>
    <g transform="scale(1.5 1.5) translate(11 12)" id="g2522">     <path d="M2.75 4.125v3.05c.73.005 2.02 0 2.75 0v7.638H2.75v3.039c2.902.015 5.332.015 8.25.015v-3.055H8.25v-2.34l3.422.028c.226 0 1.203.074 1.515 1.5.098.441.313 1.867.458 2.328.148.512.742 1.543 1.375 1.543 1.363-.012 2.957.004 4.226.004V14.23a1.354 1.354 0 0 1-.613.22c-.496.062-1.047-.24-1.117-.587-.29-1.883-.782-2.289-1.551-2.98.957-.695 1.953-1.723 1.953-3.094 0-1.48-.887-2.414-1.496-2.871-.852-.64-1.79-.785-2.043-.785-3.89.023-7.79 0-11.633 0zm5.5 3.05h4.125c.168 0 1.375.419 1.375 1.278 0 .715-.926 1.102-1.559 1.102L8.25 9.53zm0 0" fill="#066678"/>
    </g>
</svg>
