<svg xmlns="http://www.w3.org/2000/svg" height="64" width="64">
    <g fill="none" stroke="#7B6F64" stroke-width=".768" stroke-linecap="round" stroke-linejoin="round">
        <path d="M10.454 2.638c-1.535 0-2.302.768-2.302 2.303v38.372c0 1.535.767 2.302 2.302 2.302H38.85c1.535 0 2.302-.767 2.302-2.302V14.918L29.64 2.638z" transform="matrix(1.30303 0 0 1.30302 .878 1.062)"/>
        <path d="M29.64 2.638l11.512 12.28h-9.21c-1.534 0-2.302-.768-2.302-2.303z" transform="matrix(1.30303 0 0 1.30302 .878 1.062)"/>
    </g>
    <g transform="scale(1.5 1.5) translate(11 12)" id="g2522">     <defs>
        <linearGradient id="a" gradientUnits="userSpaceOnUse" x1="13.945" y1="13.942" x2="7.97" y2="1.991" gradientTransform="scale(1.375)">
            <stop offset="0" stop-color="#FA4934"/>
            <stop offset="1" stop-color="#FA4934"/>
        </linearGradient>
        <linearGradient id="b" gradientUnits="userSpaceOnUse" x1="7.97" y1="1.991" x2="1.994" y2="13.942" gradientTransform="scale(1.375)">
            <stop offset="0" stop-color="#066678"/>
            <stop offset="1" stop-color="#48B9C7"/>
        </linearGradient>
        <linearGradient id="c" gradientUnits="userSpaceOnUse" x1="13.945" y1="0" x2="1.994" y2="0" gradientTransform="scale(1.375)">
            <stop offset="0" stop-color="#B7BB25"/>
            <stop offset="1" stop-color="#B7BB25"/>
        </linearGradient>
    </defs>
    <g fill-rule="evenodd">
        <path d="M10.957 2.738l1.207 13.68 7.012 2.75zm0 0" fill="url(#a)"/>
        <path d="M10.957 2.738L2.742 19.172l8.953-8.082zm0 0" fill="url(#b)"/>
        <path d="M7.727 14.672l-4.985 4.496h16.434zm-4.97 4.469l-.03.027h.015zm0 0" fill="url(#c)"/>
    </g>
    </g>
</svg>
