<svg xmlns="http://www.w3.org/2000/svg" height="64" width="64">
    <g fill="none" stroke="#7B6F64" stroke-width=".768" stroke-linecap="round" stroke-linejoin="round">
        <path d="M10.454 2.638c-1.535 0-2.302.768-2.302 2.303v38.372c0 1.535.767 2.302 2.302 2.302H38.85c1.535 0 2.302-.767 2.302-2.302V14.918L29.64 2.638z" transform="matrix(1.30303 0 0 1.30302 .878 1.062)"/>
        <path d="M29.64 2.638l11.512 12.28h-9.21c-1.534 0-2.302-.768-2.302-2.303z" transform="matrix(1.30303 0 0 1.30302 .878 1.062)"/>
    </g>
    <g transform="scale(1.5 1.5) translate(11 12)" id="g2522">     <path d="M2.75 2.75v1.375h16.5V2.75zm.688 2.75a.684.684 0 0 0-.688.688c0 .382.305.687.688.687a.684.684 0 0 0 .687-.688.684.684 0 0 0-.688-.687m2.063 0v1.375h12.375V5.5zm0 2.75v1.375H11V8.25zm-2.063 4.125a.684.684 0 0 0-.687.688c0 .382.305.687.688.687a.684.684 0 0 0 .687-.688.684.684 0 0 0-.688-.687m2.063 0v1.375h12.375v-1.375zm0 2.75V16.5h11v-1.375zm-2.75 2.75v1.375h16.5v-1.375zm0 0" fill="#7B6F64"/>
    </g>
</svg>
