<svg xmlns="http://www.w3.org/2000/svg" height="64" width="64">
    <g fill="none" stroke="#7B6F64" stroke-width=".768" stroke-linecap="round" stroke-linejoin="round">
        <path d="M10.454 2.638c-1.535 0-2.302.768-2.302 2.303v38.372c0 1.535.767 2.302 2.302 2.302H38.85c1.535 0 2.302-.767 2.302-2.302V14.918L29.64 2.638z" transform="matrix(1.30303 0 0 1.30302 .878 1.062)"/>
        <path d="M29.64 2.638l11.512 12.28h-9.21c-1.534 0-2.302-.768-2.302-2.303z" transform="matrix(1.30303 0 0 1.30302 .878 1.062)"/>
    </g>
    <g transform="scale(1.5 1.5) translate(11 12)" id="g2522">     <path d="M2.75 2.75V5.5c7.594 0 13.75 6.156 13.75 13.75h2.75v-.086a16.4 16.4 0 0 0-.086-1.59c-.004-.027.004-.058 0-.086a16.805 16.805 0 0 0-.258-1.547c-.008-.027.004-.058 0-.086a16.07 16.07 0 0 0-1.636-4.468c-.004-.012.007-.035 0-.043A16.404 16.404 0 0 0 7.645 3.48a14.619 14.619 0 0 0-1.504-.386c-.028-.008-.059.004-.086 0a16.591 16.591 0 0 0-1.547-.262c-.028 0-.059.004-.086 0a17.82 17.82 0 0 0-1.59-.086h-.086m0 5.5v2.75a8.252 8.252 0 0 1 8.25 8.25h2.75c0-6.074-4.926-11-11-11m2.75 5.5a2.749 2.749 0 1 0 0 5.5 2.749 2.749 0 1 0 0-5.5" fill="#FD8019"/>
    </g>
</svg>
