<svg xmlns="http://www.w3.org/2000/svg" height="64" width="64">
    <g fill="none" stroke="#7B6F64" stroke-width=".768" stroke-linecap="round" stroke-linejoin="round">
        <path d="M10.454 2.638c-1.535 0-2.302.768-2.302 2.303v38.372c0 1.535.767 2.302 2.302 2.302H38.85c1.535 0 2.302-.767 2.302-2.302V14.918L29.64 2.638z" transform="matrix(1.30303 0 0 1.30302 .878 1.062)"/>
        <path d="M29.64 2.638l11.512 12.28h-9.21c-1.534 0-2.302-.768-2.302-2.303z" transform="matrix(1.30303 0 0 1.30302 .878 1.062)"/>
    </g>
    <g transform="scale(1.5 1.5) translate(11 12)" id="g2522">     <path d="M11 2.75a4.116 4.116 0 0 0-4.125 4.125h2.75V8.25h-2.75V11h2.75v1.375h-2.5A4.103 4.103 0 0 0 11 15.125c1.8 0 3.309-1.148 3.875-2.75h-2.5V11h2.75V8.25h-2.75V6.875h2.75A4.116 4.116 0 0 0 11 2.75m-6.738 9.625a6.852 6.852 0 0 0 5.363 5.352v.148L8.25 19.25h5.5l-1.375-1.375v-.148a6.847 6.847 0 0 0 5.363-5.352h-1.43A5.47 5.47 0 0 1 11 16.5a5.47 5.47 0 0 1-5.309-4.125zm0 0" fill="#8F3F71"/>
    </g>
</svg>
