<svg xmlns="http://www.w3.org/2000/svg" width="64" height="64" version="1">
    <path d="M63.958 45.848A16 16 0 0 1 48 61a16 16 0 0 1-15.958-14.848A16 16 0 0 0 32 47a16 16 0 0 0 16 16 16 16 0 0 0 16-16 16 16 0 0 0-.043-1.152z" opacity=".2"/>
    <path d="M4 56v2c0 1.662 1.338 3 3 3h50c1.662 0 3-1.338 3-3v-2c0 1.662-1.338 3-3 3H7c-1.662 0-3-1.338-3-3z" opacity=".2"/>
    <rect width="56" height="56" x="4" y="4" rx="3" ry="3" fill="#48B9C7"/>
    <path d="M7 4C5.338 4 4 5.338 4 7v1c0-1.662 1.338-3 3-3h50c1.662 0 3 1.338 3 3V7c0-1.662-1.338-3-3-3H7z" opacity=".1" fill="#F9F5D7"/>
    <path d="M15.143 34.762a11.79 11.79 0 0 1 2.286 2.095l-1.238 1.522c-.763-.952-1.557-1.746-2.382-2.38l1.333-1.238m0 6a20.453 20.453 0 0 1 2.19 1.905l-1.237 1.619a12.916 12.916 0 0 0-2.286-2.286l1.333-1.238m.381 6.571l1.524 1.048a31.667 31.667 0 0 1-3.333 7.522l-1.62-1.238a33.426 33.426 0 0 0 3.43-7.333m4.475-13.332l1.81.38a8.587 8.587 0 0 1-.572 1.81h7.429v1.714h-8.19l-.858 1.429c-.254.508-.667 1.048-1.238 1.619l-1.142-1.334c1.206-1.46 2.127-3.333 2.762-5.619m-.476 5.905h8.762c0 1.968-.032 3.81-.096 5.524h1.238v1.714h-1.333a86.993 86.993 0 0 0-.286 3.905h1.429v1.619h-1.619c-.254 2.222-1.144 3.334-2.668 3.334-.381 0-.92-.064-1.62-.19l-.285-1.62c.826.127 1.46.19 1.905.19.444 0 .73-.57.857-1.714H18.38c.254-1.714.476-3.555.666-5.523h-1.333v-1.715h1.524c.127-1.777.222-3.619.285-5.523m1.429 5.523h5.429c.063-1.333.095-2.634.095-3.904h-5.238a66.249 66.249 0 0 1-.286 3.904M23.335 42c.699.445 1.334.953 1.905 1.524l-1.143 1.429a12.117 12.117 0 0 0-1.9-1.714L23.34 42m2.667 9.047a87.08 87.08 0 0 0 .285-3.905h-5.428a59.893 59.893 0 0 1-.476 3.905h5.619m-2.953-3.428c.762.444 1.46.952 2.096 1.523l-1.239 1.43a13.218 13.218 0 0 0-2-1.81l1.143-1.143m-10-11.334v14.953H11.34v-1.62h-1.62v2.477H8.007v-15.81h5.047M9.72 48h1.619V37.904h-1.62V48" opacity=".3"/>
    <path d="M43.422 21.89l.54-2.025c.607-2.193 1.18-4.757 1.72-7.086h.136c.573 2.295 1.18 4.893 1.788 7.086l.506 2.025h-4.69M50.478 31h5.264L48.858 9h-5.972l-6.884 22h5.061l1.35-5.23h6.715l1.35 5.23" opacity=".2"/>
    <path d="M43.422 20.89l.54-2.025c.607-2.193 1.18-4.757 1.72-7.086h.136c.573 2.295 1.18 4.893 1.788 7.086l.506 2.025h-4.69M50.478 30h5.264L48.858 8h-5.972l-6.884 22h5.061l1.35-5.23h6.715l1.35 5.23" fill="#F9F5D7"/>
    <circle cx="48" cy="46" r="16" fill="#BE4C1D"/>
    <path d="M46 38l-.176 2.107a6.286 6.286 0 0 0-1.837 1.063l-1.916-.902-2 3.464 1.74 1.208a6.286 6.286 0 0 0-.097 1.06 6.286 6.286 0 0 0 .092 1.065l-1.735 1.203 2 3.464 1.91-.9a6.286 6.286 0 0 0 1.842 1.056L46 54h4l.176-2.107a6.286 6.286 0 0 0 1.837-1.063l1.915.902 2-3.464-1.738-1.208a6.286 6.286 0 0 0 .096-1.06 6.286 6.286 0 0 0-.092-1.065l1.735-1.203-2-3.464-1.91.9a6.286 6.286 0 0 0-1.842-1.056L50 38h-4zm2 5.714A2.286 2.286 0 0 1 50.286 46 2.286 2.286 0 0 1 48 48.286 2.286 2.286 0 0 1 45.714 46 2.286 2.286 0 0 1 48 43.715z" fill="#F9F5D7"/>
</svg>
