<svg xmlns="http://www.w3.org/2000/svg" width="64" height="64" version="1">
    <path d="M61.96 31.828A30 30 0 0 1 32 61 30 30 0 0 1 2.04 32.172 30 30 0 0 0 2 33a30 30 0 0 0 30 30 30 30 0 0 0 30-30 30 30 0 0 0-.04-1.172z" opacity=".2"/>
    <path d="M62 32a30 30 0 0 1-30 30A30 30 0 0 1 2 32 30 30 0 0 1 32 2a30 30 0 0 1 30 30z" fill="#504945"/>
    <path d="M33.322 19.005c-.427-.016-.862.009-1.312.03-2.671.126-7.397.023-9.24 2.39-1.126 1.448-.602 4.814 1.124 5.164 2.15.435 5.786-.644 8.116-.38 1.625.186 2.1 1.608.776 2.596-1.4 1.046-4.582.729-6.187 1.254-5.552 1.816-7.547 5.663-6.188 10.876.886 3.4 4.025 5.922 7.447 6.065 6.584-.016 5.356-3.632 8.544-1.75 1.05 1.318 3.164 1.741 4.26.815 1.761-1.49 4.418-2.287 2.544-5.335-.897-1.459 1.194-3.351.724-10.614-.418-6.443-4.205-10.864-10.608-11.11zm-.856 15.573c1.483 0 2.651 1.129 2.651 2.535 0 1.406-1.168 2.568-2.651 2.568-1.483 0-2.707-1.162-2.707-2.568 0-1.407 1.224-2.535 2.707-2.535z" opacity=".2"/>
    <path d="M33.322 18.005c-.427-.016-.862.01-1.312.03-2.671.127-7.397.023-9.24 2.391-1.126 1.447-.602 4.813 1.124 5.163 2.15.436 5.786-.644 8.116-.379 1.625.185 2.1 1.608.776 2.595-1.4 1.046-4.582.729-6.187 1.254-5.552 1.816-7.547 5.663-6.188 10.876.886 3.4 4.025 5.922 7.447 6.065 6.584-.016 5.356-3.632 8.544-1.75 1.05 1.318 3.164 1.741 4.26.815 1.761-1.489 4.418-2.286 2.544-5.334-.897-1.46 1.194-3.352.724-10.615-.418-6.443-4.205-10.863-10.608-11.11zm-.856 15.573c1.483 0 2.651 1.129 2.651 2.535 0 1.407-1.168 2.568-2.651 2.568-1.483 0-2.707-1.161-2.707-2.568 0-1.406 1.224-2.535 2.707-2.535z" fill="#F9F5D7"/>
    <path d="M31.998 2A30 30 0 0 0 2 32a30 30 0 0 0 .018.512A30 30 0 0 1 31.998 3H32a30 30 0 0 1 29.975 29.512 30 30 0 0 0 .023-.512A30 30 0 0 0 32 2h-.002z" opacity=".1" fill="#F9F5D7"/>
</svg>
