<svg xmlns="http://www.w3.org/2000/svg" width="64" height="64">
    <circle cx="32" cy="33" r="28" opacity=".2"/>
    <circle cx="32" cy="32" r="28" fill="#48B9C7"/>
    <path d="M23.48 17a11.337 11.337 0 0 0-8.117 3.425c-4.483 4.568-4.483 11.972 0 16.54l.53.539-.034.035 14.323 14.588c.923.94 2.418.94 3.341 0l.03-.032 5.687-5.793 7.21-7.343 2.238-2.28c4.416-4.498 4.416-11.792 0-16.29a11.162 11.162 0 0 0-15.993 0l-.566.576-.53-.54A11.341 11.341 0 0 0 23.48 17z" opacity=".2" fill-rule="evenodd"/>
    <path d="M48.688 19.389c4.416 4.499 4.416 11.793 0 16.292L33.524 51.128c-.923.94-2.42.94-3.343 0L15.859 36.539l16.836-17.15a11.163 11.163 0 0 1 15.993 0z" fill="#504945" fill-rule="evenodd"/>
    <path d="M31.599 19.425L46.45 34.554a2.44 2.44 0 0 1 0 3.406L33.557 51.094c-.923.94-2.42.94-3.343 0L15.363 35.965c-4.484-4.567-4.484-11.972 0-16.54a11.332 11.332 0 0 1 16.236 0z" fill="#F9F5D7" fill-rule="evenodd"/>
    <path fill="#665C54" d="M34.908 30.265l9.592 9.771-1.194 1.216-9.592-9.771z"/>
    <path transform="scale(.9907 1.00921) rotate(45)" fill="none" stroke="#504945" stroke-width="1.671" d="M46.96-2.87h12.023v1.193H46.96z"/>
    <path fill="#665C54" d="M31.349 33.918l9.592 9.772-1.193 1.216-9.593-9.772z"/>
    <path transform="scale(.9907 1.00921) rotate(45)" fill="none" stroke="#504945" stroke-width="1.671" d="M46.98 2.22h12.023v1.193H46.98z"/>
    <path d="M24.984 32.83a3.632 3.632 0 0 1 0 5.068l-3.84 3.911-4.975-5.069 3.84-3.91a3.473 3.473 0 0 1 4.975 0z" fill="#504945" fill-rule="evenodd"/>
    <path d="M28.657 36.6a3.459 3.459 0 0 1 0 4.826l-3.958 4.032-4.739-4.827 3.958-4.032a3.307 3.307 0 0 1 4.739 0z" fill="#504945" fill-rule="evenodd"/>
    <path d="M32.21 40.248a3.459 3.459 0 0 1 0 4.827l-3.957 4.032-4.739-4.827 3.958-4.032a3.307 3.307 0 0 1 4.739 0z" fill="#504945" fill-rule="evenodd"/>
    <path d="M35.883 44.018a3.632 3.632 0 0 1 0 5.068l-2.168 2.209c-.923.94-2.42.94-3.343 0l-3.304-3.366 3.84-3.911a3.473 3.473 0 0 1 4.975 0zM36.85 23.56l-4.605 4.69c-2.472 2.52-6.333 2.67-8.623.337l9.082-9.252" fill="#504945" fill-rule="evenodd"/>
    <path d="M32 4A28 28 0 0 0 4 32a28 28 0 0 0 .021.586A28 28 0 0 1 32 5a28 28 0 0 1 27.979 27.414A28 28 0 0 0 60 32 28 28 0 0 0 32 4z" fill="#F9F5D7" fill-rule="evenodd" opacity=".2"/>
</svg>
