<svg xmlns="http://www.w3.org/2000/svg" width="64" height="64" version="1">
    <rect width="56" height="56" x="4" y="5" rx="16.8" ry="16.8" opacity=".2"/>
    <rect width="56" height="56" x="4" y="4" rx="16.8" ry="16.8" fill="#CB241D"/>
    <path d="M20.8 4C11.495 4 4 11.494 4 20.8v1C4 12.495 11.494 5 20.8 5h22.4C52.505 5 60 12.494 60 21.8v-1C60 11.495 52.506 4 43.2 4H20.8z" opacity=".2" fill="#F9F5D7"/>
    <path d="M2 14.429v3.157s0 1.428 1.444 1.428h4.334C15.755 19.014 22 25.11 22 33c0 7.89-8 14.086-14.222 14.086H3.444C2 47.086 2 48.514 2 48.514v3.057S2 53 3.444 53h4.334C18.946 53 28 44.046 28 33S18.946 13 7.778 13H3.444C2 13 2 14.429 2 14.429z" opacity=".2"/>
    <path d="M2 13.429v3.157s0 1.428 1.444 1.428h4.334C15.755 18.014 22 24.11 22 32c0 7.89-8 14.086-14.222 14.086H3.444C2 46.086 2 47.514 2 47.514v3.057S2 52 3.444 52h4.334C18.946 52 28 43.046 28 32S18.946 12 7.778 12H3.444C2 12 2 13.429 2 13.429z" fill="#F9F5D7"/>
    <path d="M62 14.429v3.157s0 1.428-1.444 1.428h-4.334C48.245 19.014 42 25.11 42 33c0 7.89 8 14.086 14.222 14.086h4.334C62 47.086 62 48.514 62 48.514v3.057S62 53 60.556 53h-4.334C45.054 53 36 44.046 36 33s9.054-20 20.222-20h4.334C62 13 62 14.429 62 14.429z" opacity=".2"/>
    <path d="M62 13.429v3.157s0 1.428-1.444 1.428h-4.334C48.245 18.014 42 24.11 42 32c0 7.89 8 14.086 14.222 14.086h4.334C62 46.086 62 47.514 62 47.514v3.057S62 52 60.556 52h-4.334C45.054 52 36 43.046 36 32s9.054-20 20.222-20h4.334C62 12 62 13.429 62 13.429z" fill="#F9F5D7"/>
</svg>
