<svg xmlns="http://www.w3.org/2000/svg" width="64" height="64" version="1">
    <rect width="19" height="17" x="40" y="38" ry="1.417" opacity=".2"/>
    <path d="M8.75 5C7.226 5 6 6.249 6 7.8v50.4C6 59.751 7.226 61 8.75 61h38.5c1.523 0 2.75-1.249 2.75-2.8V7.8C50 6.249 48.773 5 47.25 5H14.22z" opacity=".2"/>
    <rect width="19" height="17" x="34" y="9" ry="1.417" fill="#7CB668"/>
    <path d="M35.416 9C34.631 9 34 9.631 34 10.416v1c0-.785.631-1.416 1.416-1.416h16.168c.785 0 1.416.631 1.416 1.416v-1C53 9.631 52.369 9 51.584 9z" opacity=".2" fill="#F9F5D7"/>
    <rect width="19" height="17" x="37" y="23" ry="1.417" fill="#F9BD2E"/>
    <path d="M38.416 23c-.785 0-1.416.631-1.416 1.416v1c0-.785.631-1.416 1.416-1.416h16.168c.785 0 1.416.631 1.416 1.416v-1c0-.785-.631-1.416-1.416-1.416z" opacity=".2" fill="#F9F5D7"/>
    <rect width="19" height="17" x="40" y="37" ry="1.417" fill="#FD8019"/>
    <path d="M41.416 37c-.785 0-1.416.631-1.416 1.416v1c0-.785.631-1.416 1.416-1.416h16.168c.785 0 1.416.631 1.416 1.416v-1c0-.785-.631-1.416-1.416-1.416z" opacity=".2" fill="#F9F5D7"/>
    <path d="M8.75 4C7.226 4 6 5.249 6 6.8v50.4C6 58.751 7.226 60 8.75 60h38.5c1.523 0 2.75-1.249 2.75-2.8V6.8C50 5.249 48.773 4 47.25 4H14.22z" fill="#066678"/>
    <path d="M28 17c-8.837 0-16 7.164-16 16 0 8.837 7.163 16 16 16h10s1.875 0 2-2c0-2-2-2-2-2H28c-6.628 0-12-5.372-12-12 0-6.627 5.372-12 12-12 6.627 0 12 5.373 12 12v2a2 2 0 0 1-4 0v-2a8 8 0 1 0-8 8c2.092 0 3.98-.822 5.406-2.136A6.006 6.006 0 0 0 38 40.999a6 6 0 0 0 6-6v-2c0-8.835-7.164-16-16-16zm0 12a4 4 0 1 1 0 8 4 4 0 0 1 0-8z" opacity=".2"/>
    <path d="M28 16c-8.837 0-16 7.164-16 16 0 8.837 7.163 16 16 16h10s1.875 0 2-2c0-2-2-2-2-2H28c-6.628 0-12-5.372-12-12 0-6.627 5.372-12 12-12 6.627 0 12 5.373 12 12v2a2 2 0 0 1-4 0v-2a8 8 0 1 0-8 8c2.092 0 3.98-.822 5.406-2.136A6.006 6.006 0 0 0 38 39.999a6 6 0 0 0 6-6v-2c0-8.835-7.164-16-16-16zm0 12a4 4 0 1 1 0 8 4 4 0 0 1 0-8z" fill="#F9F5D7"/>
    <path d="M8.75 4C7.226 4 6 5.25 6 6.8v1C6 6.25 7.226 5 8.75 5h38.5C48.773 5 50 6.25 50 7.8v-1C50 5.25 48.773 4 47.25 4H14.22z" opacity=".2" fill="#F9F5D7"/>
</svg>
