<svg xmlns="http://www.w3.org/2000/svg" width="64" height="64" version="1">
    <path d="M32 11c-8.284 0-15.338 5.072-18.375 12.25C5.914 24.397 0 30.97 0 39c0 8.837 7.163 16 16 16h34c7.732 0 14-6.269 14-14 0-7.186-5.404-13.075-12.375-13.875C49.807 17.952 41.708 11 32 11z" opacity=".2"/>
    <path d="M32 10c-8.284 0-15.338 5.072-18.375 12.25C5.914 23.397 0 29.97 0 38c0 8.837 7.163 16 16 16h34c7.732 0 14-6.269 14-14 0-7.186-5.404-13.075-12.375-13.875C49.807 16.952 41.708 10 32 10z" fill="#F9F5D7"/>
    <path d="M35.118 22.918s5.764 3.436 5.764 12.164C40.882 43.809 35 47 35 47M23 27s6 2.345 6 8.163S23 43 23 43" opacity=".5" fill="none" stroke="#151819" stroke-width="6" stroke-linecap="round" stroke-linejoin="round"/>
    <path d="M32 10c-8.284 0-15.338 5.072-18.375 12.25C5.914 23.397 0 29.97 0 38c0 .162.014.32.023.48.25-7.79 6.06-14.108 13.602-15.23C16.662 16.072 23.716 11 32 11c9.708 0 17.807 6.952 19.625 16.125 6.797.78 12.088 6.4 12.35 13.342.01-.156.025-.31.025-.467 0-7.187-5.403-13.074-12.375-13.875C49.807 16.952 41.708 10 32 10z" opacity=".2" fill="#F9F5D7"/>
</svg>
