<svg xmlns="http://www.w3.org/2000/svg" width="64" height="64" version="1">
    <circle cx="32" cy="33" r="28" opacity=".2"/>
    <circle cx="32" cy="32" r="28" fill="#CB241D"/>
    <path d="M32 21.001c-4.195 0-7.779 1.38-9.263 3.334a4.048 4.048 0 0 0-.33.502c-.089.163-.165.329-.226.498a10 5.333 0 0 0-.042.156c-.034.115-.071.23-.092.346a10 5.333 0 0 0-.048.498c.001.174.019.347.05.519a10 5.333 0 0 0 .137.5 10 5.333 0 0 0 .232.497 10 5.333 0 0 0 .318.484 10 5.333 0 0 0 9.263 3.334 10 5.333 0 0 0 9.264-3.334 10 5.333 0 0 0 .003-.005 10 5.333 0 0 0 .27-.411c.016-.027.036-.054.05-.081a10 5.333 0 0 0 .165-.354c.024-.056.053-.11.073-.167a10 5.333 0 0 0 .08-.297c.02-.078.041-.155.054-.234a10 5.333 0 0 0 .042-.45 10 5.333 0 0 0-.053-.532c-.092-.52-.33-1.012-.68-1.472-1.486-1.954-5.07-3.334-9.264-3.334zm-9.263 10a10 5.333 0 0 0-.736 2 10 5.333 0 0 0 10 5.334A10 5.333 0 0 0 42 33a10 5.333 0 0 0-.736-2A10 5.333 0 0 1 32 34.335 10 5.333 0 0 1 22.737 31zm0 6.667a10 5.333 0 0 0-.737 2 10 5.333 0 0 0 10 5.334 10 5.333 0 0 0 10-5.333 10 5.333 0 0 0-.737-2A10 5.333 0 0 1 32 41.003a10 5.333 0 0 1-9.264-3.334z" opacity=".2"/>
    <path d="M32 20.001c-4.195 0-7.779 1.38-9.263 3.334a4.048 4.048 0 0 0-.33.502c-.089.163-.165.329-.226.498a10 5.333 0 0 0-.042.156c-.034.115-.071.23-.092.346a10 5.333 0 0 0-.048.498c.001.174.019.347.05.519a10 5.333 0 0 0 .137.5 10 5.333 0 0 0 .232.497 10 5.333 0 0 0 .318.484 10 5.333 0 0 0 9.263 3.334 10 5.333 0 0 0 9.264-3.334 10 5.333 0 0 0 .003-.005 10 5.333 0 0 0 .27-.411c.016-.027.036-.054.05-.081a10 5.333 0 0 0 .165-.354c.024-.056.053-.11.073-.167a10 5.333 0 0 0 .08-.297c.02-.078.041-.155.054-.234a10 5.333 0 0 0 .042-.45 10 5.333 0 0 0-.053-.532c-.092-.52-.33-1.012-.68-1.472-1.486-1.954-5.07-3.334-9.264-3.334zm-9.263 10a10 5.333 0 0 0-.736 2 10 5.333 0 0 0 10 5.334A10 5.333 0 0 0 42 32a10 5.333 0 0 0-.736-2A10 5.333 0 0 1 32 33.335 10 5.333 0 0 1 22.737 30zm0 6.667a10 5.333 0 0 0-.737 2 10 5.333 0 0 0 10 5.334 10 5.333 0 0 0 10-5.333 10 5.333 0 0 0-.737-2A10 5.333 0 0 1 32 40.003a10 5.333 0 0 1-9.264-3.334z" fill="#F9F5D7"/>
    <path d="M32 4A28 28 0 0 0 4 32a28 28 0 0 0 .018.492A28 28 0 0 1 32 5a28 28 0 0 1 27.975 27.492A28 28 0 0 0 60 32 28 28 0 0 0 32 4z" opacity=".2" fill="#F9F5D7"/>
</svg>
