<svg xmlns="http://www.w3.org/2000/svg" width="64" height="64">
    <path d="M46.304 50.374a2.012 2.012 0 0 0-.219.264c.097.074.188.18.3.33.251.34.92.846 1.487 1.124 1.5.74 3.946 3.514 4.638 5.265l.528 1.332 1.11.217c1.476.286 1.958.575 2.455 1.473.515.93 2.122.617 3.104.327.29-.983.6-2.592-.327-3.107-.897-.498-1.187-.98-1.472-2.458l-.212-1.113-1.332-.528c-1.75-.693-4.522-3.141-5.26-4.644-.278-.567-.783-1.237-1.121-1.49a1.43 1.43 0 0 1-.342-.33l-3.338 3.338zM4 5l.533 11.054 27.52 27.56 5.257-5.258 5.257-5.256-27.52-27.56-11.04-.533z" opacity=".2"/>
    <path d="M4 4l.533 11.054 27.52 27.56 5.257-5.257 5.257-5.257-27.52-27.559-11.04-.534z" fill="#928274"/>
    <path d="M4 4s32.95 32.95 33.31 33.357l5.257-5.257-27.52-27.559-11.04-.534z" opacity=".3" fill="#F9F5D7"/>
    <path d="M46.304 49.374a2.012 2.012 0 0 0-.219.265c.097.074.188.18.3.33.251.34.92.845 1.487 1.124 1.5.739 3.946 3.513 4.638 5.265l.528 1.332 1.11.216c1.476.286 1.958.576 2.455 1.474.515.929 2.122.617 3.104.326.29-.983.6-2.592-.327-3.107-.897-.497-1.187-.979-1.472-2.457l-.212-1.114-1.332-.528c-1.75-.693-4.522-3.141-5.26-4.644-.278-.567-.783-1.237-1.121-1.489a1.43 1.43 0 0 1-.342-.33l-3.338 3.337z" fill="#B57514"/>
    <path d="M46.189 14.957c-.51-.066-.694.884-1.347 2.765-.886 2.552-1.005 4.146-.588 6.33.49 2.563.215 3.206-1.3 3.04-1.394-.151-1.681.027-.662.408.463.174.862.568 1.482 1.471.668.973.852 1.36.864 2.402.009.728-.09 1.531-.221 1.785-.298.575-1.158.481-1.84-.202l-.493-.492-1.017 1.23c-1.325 1.6-2.345 2.097-4.304 2.097-.86 0-2.661-.893-2.763-.791-.102.102.827 1.868.827 2.73 0 1.962-.497 2.983-2.094 4.31l-1.228 1.02.492.492c.682.683.777 1.542.203 1.84-.254.132-.498.233-1.225.224-1.041-.02-1.985-.198-2.956-.867-.902-.62-1.298-1.018-1.471-1.482-.381-1.02-.557-.734-.405.662.165 1.517-.478 1.79-3.038 1.3-2.18-.418-3.775-.297-6.323.59-1.342.467-2.208.645-2.57.992-.213.213-.255.391-.102.544.128.128 1.08.444 2.114.7 1.864.462 3.19.704 2.914.982-.08.078-.253.453-1.117.831-.864.378-1.674.794-1.802.921-.657.658 1.285 1.332 3.813 1.17.828-.053 1.562-.037 1.632.033.183.182-1.511 1.555-2.786 2.256-1.529.84-1.497 1.338.106 1.665 1.82.37 3.413.02 5.078-1.151 2.498-1.744 2.82-1.434 1.168 1.132-.9 1.396-1.098 1.918-1.083 2.876.01.645.098 1.173.194 1.173.46 0 4.884-3.591 5.791-4.7 1.268-1.55 1.62-1.328 1.078.684-.213.788-.326 2.053-.252 2.808l.134 1.37 1.078-1.078a13.673 13.673 0 0 0 3.067-4.692c.285-.734.625-1.31.755-1.28.13.03.434.555.676 1.163a10.75 10.75 0 0 0 1.159 2.067c.664.884.753.931 1.094.59.61-.61 1.016-1.87 1.323-4.096l.29-2.105 1.203.435c1.041.375 1.401.353 2.696-.162 1.046-.416 1.376-.52 1.652-.312.065-.092.136-.18.218-.263l3.336-3.338h.003c-.185-.272-.084-.607.32-1.627.514-1.297.537-1.66.161-2.702l-.434-1.203 2.102-.29c2.224-.307 3.481-.715 4.091-1.326.34-.34.291-.43-.59-1.094a10.684 10.684 0 0 0-2.062-1.162c-.608-.242-1.132-.545-1.162-.675-.03-.13.546-.472 1.28-.758a13.65 13.65 0 0 0 4.683-3.073l1.078-1.077-1.37-.134c-.754-.074-2.015.04-2.803.251-2.008.542-2.231.19-.684-1.08 1.108-.908 4.693-5.34 4.693-5.8 0-.095-.527-.181-1.17-.191-.957-.02-1.48.18-2.875 1.08-2.561 1.653-2.87 1.337-1.129-1.165 1.16-1.668 1.522-3.267 1.151-5.089-.326-1.605-.822-1.638-1.662-.106-.7 1.276-2.073 2.975-2.256 2.792-.07-.07-.083-.806-.03-1.635.16-2.532-.514-4.476-1.17-3.819-.128.128-.542.94-.92 1.805-.377.866-.749 1.038-.828 1.117-.277.277-.523-1.046-.984-2.913-.256-1.037-.57-1.989-.697-2.116a.299.299 0 0 0-.186-.09zm11.506 39.07l.213 1.116c.071.37.143.674.224.935a8.86 8.86 0 0 1-.221-.935zm-4.657 4.662l.933.178-.933-.18zm6.962.287c.002.59-.148 1.24-.293 1.731.145-.491.295-1.141.293-1.73z" opacity=".2"/>
    <path d="M4 4l.049 1.008 10.998.533L42.067 32.6l.5-.5L15.046 4.54l-11.04-.533L4 4z" fill="#F9F5D7" opacity=".2"/>
    <path d="M46.189 13.958c-.51-.066-.694.884-1.347 2.764-.886 2.552-1.005 4.146-.588 6.33.49 2.564.215 3.206-1.3 3.041-1.394-.152-1.681.026-.662.408.463.174.862.568 1.482 1.47.668.973.852 1.36.864 2.402.009.729-.09 1.532-.221 1.786-.298.575-1.158.48-1.84-.203l-.493-.492-1.017 1.23c-1.325 1.6-2.345 2.098-4.304 2.098-.86 0-2.661-.894-2.763-.792-.102.102.827 1.868.827 2.73 0 1.962-.497 2.983-2.094 4.31l-1.228 1.02.492.492c.682.683.777 1.542.203 1.84-.254.132-.498.233-1.225.224-1.041-.02-1.985-.198-2.956-.866-.902-.622-1.298-1.019-1.471-1.482-.381-1.021-.557-.735-.405.661.165 1.517-.478 1.79-3.038 1.3-2.18-.418-3.775-.297-6.323.59-1.342.467-2.208.645-2.57.992-.213.213-.255.391-.102.544.128.128 1.08.444 2.114.7 1.864.463 3.19.705 2.914.982-.08.078-.253.453-1.117.831-.864.378-1.674.794-1.802.922-.657.658 1.285 1.331 3.813 1.17.828-.054 1.562-.038 1.632.032.183.182-1.511 1.555-2.786 2.256-1.529.841-1.497 1.338.106 1.665 1.82.371 3.413.02 5.078-1.151 2.498-1.743 2.82-1.433 1.168 1.132-.9 1.397-1.098 1.919-1.083 2.877.01.644.098 1.173.194 1.173.46 0 4.884-3.592 5.791-4.7 1.268-1.55 1.62-1.328 1.078.683-.213.788-.326 2.053-.252 2.808l.134 1.37 1.078-1.077a13.673 13.673 0 0 0 3.067-4.692c.285-.735.625-1.311.755-1.28.13.03.434.554.676 1.162a10.75 10.75 0 0 0 1.159 2.067c.664.884.753.932 1.094.59.61-.61 1.016-1.869 1.323-4.095l.29-2.106 1.203.435c1.041.376 1.401.354 2.696-.162 1.046-.416 1.376-.519 1.652-.312.065-.092.136-.18.218-.262l3.336-3.339h.003c-.185-.272-.084-.606.32-1.627.514-1.297.537-1.659.161-2.701l-.434-1.204 2.102-.29c2.224-.307 3.481-.715 4.091-1.326.34-.34.291-.429-.59-1.093a10.684 10.684 0 0 0-2.062-1.162c-.608-.242-1.132-.545-1.162-.676-.03-.13.546-.472 1.28-.757a13.65 13.65 0 0 0 4.683-3.074l1.078-1.077-1.37-.134c-.754-.074-2.015.04-2.803.252-2.008.542-2.231.19-.684-1.08 1.108-.909 4.693-5.34 4.693-5.8 0-.096-.527-.182-1.17-.192-.957-.02-1.48.18-2.875 1.08-2.561 1.654-2.87 1.337-1.129-1.165 1.16-1.668 1.522-3.267 1.151-5.089-.326-1.605-.822-1.637-1.662-.106-.7 1.277-2.073 2.975-2.256 2.792-.07-.07-.083-.805-.03-1.635.16-2.531-.514-4.476-1.17-3.818-.128.128-.542.939-.92 1.804-.377.866-.749 1.038-.828 1.117-.277.278-.523-1.046-.984-2.913-.256-1.036-.57-1.988-.697-2.116a.299.299 0 0 0-.186-.09zm11.506 39.07l.213 1.115c.071.37.143.674.224.935a8.86 8.86 0 0 1-.221-.935zm-4.657 4.661l.933.178-.933-.18zm6.962.288c.002.589-.148 1.239-.293 1.73.145-.491.295-1.141.293-1.73z" fill="#CB8819"/>
    <path d="M46.19 13.953v.004c-.51-.066-.696.885-1.348 2.766-.647 1.863-.882 3.215-.801 4.66.055-1.102.304-2.23.8-3.66.653-1.88.84-2.832 1.348-2.766v-.004a.298.298 0 0 1 .186.09c.128.128.441 1.08.697 2.117.462 1.867.708 3.19.985 2.912.079-.079.45-.251.828-1.117.377-.866.79-1.675.918-1.803.544-.545 1.095.71 1.177 2.596.108-2.418-.54-4.234-1.177-3.596-.128.128-.54.94-.918 1.805-.378.866-.75 1.036-.828 1.115-.277.278-.523-1.045-.985-2.912-.256-1.036-.57-1.987-.697-2.115a.3.3 0 0 0-.186-.092zm8.093 3.736c-.27-.017-.603.358-1.023 1.123-.7 1.277-2.073 2.976-2.256 2.793-.022-.021-.027-.199-.037-.334-.03.685-.024 1.274.037 1.334.183.183 1.555-1.516 2.256-2.793.84-1.531 1.336-1.497 1.662.108.057.28.091.552.113.822.05-.59.015-1.191-.113-1.822-.163-.803-.369-1.213-.639-1.23zm3.49 6.405c-.956-.02-1.478.18-2.873 1.08-.907.586-1.518.91-1.869.992-.78 1.368-.21 1.348 1.87.006 1.394-.9 1.916-1.1 2.872-1.08.261.004.475.028.67.053.3-.428.502-.755.502-.86 0-.096-.528-.181-1.172-.191zm-13.337 1.18c-.121.716-.577.919-1.483.82-1.394-.152-1.68.025-.66.406.269.101.52.293.803.6 1.112.083 1.486-.36 1.34-1.827zm12.658 5.617c-.71.01-1.568.114-2.158.273a7.169 7.169 0 0 1-1.01.205c-1.153 1.027-.833 1.293 1.01.795.787-.212 2.049-.326 2.802-.252l.461.045.91-.91-1.37-.135a5.84 5.84 0 0 0-.645-.021zm-12.487.04c-.03.536-.094 1.04-.191 1.227-.298.575-1.158.482-1.84-.201l-.492-.492-1.018 1.23c-1.324 1.6-2.343 2.096-4.302 2.096-.862 0-2.662-.893-2.764-.791-.051.051.158.524.379 1.09.596.212 1.746.7 2.385.701 1.959 0 2.978-.498 4.302-2.098l1.018-1.23.492.492c.682.683 1.542.778 1.84.203.131-.254.231-1.056.223-1.785-.002-.17-.02-.301-.032-.441zm8.223 5.51c-.44.214-.783.42-.762.514.031.13.555.434 1.162.676.608.241 1.533.764 2.061 1.162.157.118.259.199.365.285.083-.062.16-.125.227-.191.34-.341.29-.43-.592-1.094a10.675 10.675 0 0 0-2.06-1.162c-.153-.06-.266-.125-.4-.19zm-18.033 1.022c-.124 1.503-.68 2.426-2.065 3.576l-1.226 1.022.492.492c.018.018.031.038.049.056l.685-.57c1.598-1.327 2.096-2.347 2.096-4.309 0-.08-.017-.174-.031-.267zm15.236 3.992l-.344.047.434 1.203c.085.236.142.43.186.615.113-.538.056-.943-.186-1.615l-.09-.25zm-23.82.205c-.122-.04-.152.369-.08 1.123.063-.208.202-.084.414.485.173.463.57.86 1.473 1.482.97.669 1.914.845 2.955.865.727.009.97-.09 1.224-.222.407-.211.473-.704.239-1.215a.67.67 0 0 1-.239.215c-.254.132-.497.233-1.224.224-1.041-.02-1.985-.198-2.955-.867-.902-.621-1.3-1.019-1.473-1.482-.143-.383-.255-.582-.334-.608zm-.088 2.012c-.158.84-.964.95-3.02.557-2.18-.418-3.775-.296-6.324.591-1.341.467-2.208.643-2.57.99-.213.213-.255.392-.102.545.048.049.24.127.48.215.461-.216 1.194-.404 2.192-.752 2.549-.887 4.144-1.007 6.324-.59 2.56.49 3.203.219 3.038-1.298-.012-.108-.01-.164-.018-.258zm-7.63 4.947a3.637 3.637 0 0 1-.474.25c-.864.378-1.675.792-1.802.92-.273.273-.08.546.4.764.34-.19.815-.429 1.402-.686.865-.378 1.037-.752 1.116-.83.137-.137-.122-.267-.643-.418zm2.638 3.31c-.09-.001-.228.01-.332.01a14.27 14.27 0 0 1-1.924 1.309c-1.209.665-1.425 1.113-.676 1.434.177-.135.39-.276.676-.434 1.275-.701 2.97-2.074 2.787-2.256-.035-.035-.235-.056-.531-.062zm36.562 1.098l.213 1.116a8.842 8.842 0 0 1 .002 0l-.215-1.116zm-31.588.643a.51.51 0 0 0-.168.017c-.17.329-.39.713-.709 1.208-.899 1.396-1.098 1.918-1.084 2.876.003.164.022.279.034.42.08-.646.35-1.207 1.05-2.296.93-1.444 1.233-2.173.877-2.225zm5.239.58c-.041.216-.059.388-.137.678-.209.775-.319 2.004-.252 2.763.035-.617.12-1.279.252-1.765.272-1.011.319-1.567.137-1.676zm21.693 3.438v.001l.932.178-.932-.18z" fill="#F9F5D7" opacity=".2"/>
    <path d="M34.133 34.293c.424.815.623 1.618 1.02 4.133.243 1.534.433 2.204.76 2.688.396.587 1.01.911 1.675.884.447-.02.781-.168 1.112-.497.545-.545.667-1.306.344-2.157-.093-.244-.14-.44-.104-.438.036 0 .176.056.312.118.59.271 1.325.282 1.824.024.338-.174.748-.68.855-1.058.298-1.051-.38-2.022-1.736-2.487-.533-.182-.94-.264-2.193-.438-1.753-.244-2.968-.55-3.711-.932-.153-.078-.284-.14-.29-.132-.007 0 .052.138.132.289z" fill="#FA4934"/>
</svg>
