<svg xmlns="http://www.w3.org/2000/svg" width="64" height="64">
    <defs>
        <linearGradient id="a" x1="2" x2="8" y1="1038.1" y2="1038.1" gradientTransform="matrix(2 0 0 2 0 -2040.641)" gradientUnits="userSpaceOnUse">
            <stop offset="0" stop-opacity="0"/>
            <stop offset="1"/>
        </linearGradient>
    </defs>
    <path d="M59.934 34.559C59.229 43.286 47.072 49 36.2 49 25 49 17.4 43.77 16 41c-1.4 2.77-10.055 4-10 4v2c-.055 0 8.6-1.23 10-4 1.4 2.77 9 8 20.2 8S60 44.946 60 35.77c0-.408-.024-.812-.066-1.211z" opacity=".2"/>
    <rect width="4" height="16" x="16" y="14" rx="1.875" ry="2.795" fill="#7CB668"/>
    <path d="M17.875 14C16.836 14 16 15.244 16 16.793v1.002c0-1.549.836-2.795 1.875-2.795h.25C19.164 15 20 16.246 20 17.795v-1.002C20 15.244 19.164 14 18.125 14h-.25z" opacity=".2" fill="#F9F5D7"/>
    <path d="M29.2 14c-1.551 0-3.2 1.235-3.2 2.77v3.233C20.805 21.645 17.4 26.23 16 29c-1.4-2.77-10-4-10-4v7H4v8h2v6c-.055 0 8.6-1.23 10-4 1.4 2.77 9 8 20.2 8S60 43.946 60 34.77c-.012-6.522-5.488-12.087-14-14.773V16.77C46 15.235 44.751 14 43.2 14z" fill="#F9BD2E"/>
    <circle cx="36" cy="35" r="4" opacity=".2"/>
    <circle cx="36" cy="34" r="4" fill="#F9F5D7"/>
    <circle cx="46" cy="35" r="4" opacity=".2"/>
    <circle cx="46" cy="34" r="4" fill="#F9F5D7"/>
    <circle cx="26" cy="35" r="4" opacity=".2"/>
    <circle cx="26" cy="34" r="4" fill="#F9F5D7"/>
    <path d="M16 29.159c-1.4-2.77-10-4-10-4v7H4v8h2v6c-.055 0 8.6-1.231 10-4z" opacity=".1" fill="url(#a)"/>
    <path d="M29.2 14c-1.552 0-3.2 1.235-3.2 2.77v1c0-1.535 1.648-2.77 3.2-2.77h14c1.55 0 2.8 1.235 2.8 2.77v-1c0-1.535-1.25-2.77-2.8-2.77h-14zM46 19.998v1c8.318 2.624 13.722 8 13.977 14.328.01-.185.023-.369.023-.556-.012-6.522-5.488-12.087-14-14.772zm-20 .004c-5.195 1.642-8.6 6.229-10 8.998-1.4-2.77-10-4-10-4v1s8.6 1.23 10 4c1.4-2.77 4.805-7.356 10-8.998v-1zM4 32v1h2v-1H4z" fill="#F9F5D7" opacity=".2"/>
</svg>
