<svg xmlns="http://www.w3.org/2000/svg" width="64" height="64" version="1">
    <path d="M10 56.2v2c0 1.55 1.226 2.8 2.75 2.8h38.5c1.524 0 2.75-1.25 2.75-2.8v-2c0 1.55-1.226 2.8-2.75 2.8h-38.5C11.226 59 10 57.75 10 56.2z" opacity=".2"/>
    <rect width="44" height="56" x="-54" y="4" rx="2.75" ry="2.8" transform="scale(-1 1)" fill="#504945"/>
    <path d="M16 13v40h32V13H16zm4 24h24v12H20V37z" opacity=".2"/>
    <path d="M16 12v40h32V12H16zm4 24h24v12H20V36z" fill="#F9F5D7"/>
    <path d="M12.75 4C11.226 4 10 5.25 10 6.8v1C10 6.25 11.226 5 12.75 5h38.5C52.774 5 54 6.25 54 7.8v-1C54 5.25 52.774 4 51.25 4h-38.5z" opacity=".1" fill="#F9F5D7"/>
</svg>
