<svg xmlns="http://www.w3.org/2000/svg" width="64" height="64" version="1">
    <rect width="56" height="56" x="4" y="5" rx="2.8" ry="2.8" opacity=".2"/>
    <rect width="56" height="56" x="4" y="4" rx="2.8" ry="2.8" fill="#066678"/>
    <path d="M16 18.857V25l14 8.267L16 41v6.143L22.405 51 48 36.806v-7.358L21.948 15z" opacity=".2"/>
    <path d="M16 17.857V24l14 8.267L16 40v6.143L22.405 50 48 35.806v-7.358L21.948 14z" fill="#48B9C7"/>
    <path d="M6.8 4C5.25 4 4 5.25 4 6.8v1C4 6.25 5.25 5 6.8 5h50.4C58.75 5 60 6.25 60 7.8v-1C60 5.25 58.75 4 57.2 4H6.8z" opacity=".1" fill="#F9F5D7"/>
    <path d="M21.947 14L16 17.857v1L21.947 15 48 29.447v-1L21.947 14zm7.178 18.75L16 40v1l14-7.732-.875-.518z" opacity=".2" fill="#F9F5D7"/>
</svg>
