<svg xmlns="http://www.w3.org/2000/svg" width="64" height="64" version="1">
    <path d="M10.045 5c2.002 2.769 3.024 5.707 0 10-.318 3.753.997 5.935 5.488 5.855 1.063-.072 2.75-.282 3.637-1.117 1.405-1.721.86-2.623.281-2.742-.602-.178-2.058.723-.66 1.39.295 1.204-3.064 1.08-3.684.067-2.332-4.176 3.873-7.178 10.938-4.454 1.448 11.397 3.09 25.919 1.316 39.485-1.16 2.694-2.404 4.311-5.316 5.515v2c4-2 14-2 20-2v-2c-2.587-.466-4.64-2.868-4.945-5.285-1.005-13.446-1.74-23.296.945-36.715h9.937c1.24.028 1.748 1.057 2.063 4h4c-1.395-3.333-2-6-2-10-14.939 2.31-25.844.258-42-4zm42.719 32.023c-2.765-.025-4.877.885-6.426 3.222-.268.541-.368.923-.399 1.543-.035.722.112 1.299.497 1.93.116.192.428.543.593.668.385.292.984.576 1.278.61.077.008.187.026.246.039.95-.035 1.445-.83 1.445-1.86 0-1.3 2.388-3.902 3.203-.394-.204 2.22-1.378 2.662-2.949 3.777-.173.105-.27.24-.27.383.51 1.062.996 2.05 1.368 3.164.128.312.204.394.359.394.068 0 .124-.039.234-.152.608-.836.993-1.986 1.614-.902.196.37.286.63.422 1.218.03.137.042.328.054.774.012.436 0 .592-.094 1.18-.92 2.435-2.4 3.607-5.44 2.914-.291-.155-.567-.424-.567-.551 0-.085.155-.12.476-.117.411.003.672-.068.852-.227.033-.029.1-.078.152-.113.094-.064.25-.248.328-.39.023-.042.047-.086.055-.095.066-.065.175-.385.203-.675.061-.636-.009-.61-.277-1.09-.305-.546-1.005-1.039-1.672-1.18a2.48 2.48 0 0 0-.692-.078c-1.359-.017-2.577 1.108-3.218 2.887-.152.868-.168.981-.114 1.586.048.534.147.938.352 1.43.078.185.233.505.293.605.015.025.084.141.152.262.123.215.317.492.41.586.027.026.047.06.047.074 0 .045.679.726.91.914.08.064.166.135.192.16.246.24 1.113.738 1.508.863.069.022.243.081.386.133.241.087.895.264 1.07.29.043.005.172.035.29.062.117.026.337.063.488.086.151.022.497.043.766.046.587.007 1.698-.045 1.847-.086.06-.015.15-.034.2-.042.094-.015.7-.136.78-.157.157-.039.289-.08.532-.152.151-.045.332-.094.399-.11a.658.658 0 0 0 .152-.05 1.36 1.36 0 0 1 .2-.078c.301-.1.909-.393 1.253-.606l.25-.152c.028-.017.132-.09.234-.16.103-.071.195-.13.203-.13.034 0 .352-.23.5-.362.047-.042.156-.134.239-.204.3-.254.736-.71.816-.851a1.69 1.69 0 0 1 .125-.16c.213-.25.383-.482.383-.516 0-.013.065-.121.14-.238.076-.117.137-.218.137-.227 0-.009.05-.122.11-.25l.152-.324c.152-.325.35-1.069.395-1.484.009-.084.028-.247.043-.364.029-.223.023-1.056-.008-1.21a7.441 7.441 0 0 1-.051-.395 7.58 7.58 0 0 0-.383-1.649c-.06-.158-.13-.347-.156-.421a1.074 1.074 0 0 0-.09-.2.23.23 0 0 1-.043-.101c0-.075-.39-.826-.574-1.11a6.09 6.09 0 0 1-.2-.32.963.963 0 0 0-.113-.18 1.066 1.066 0 0 1-.09-.129 1.233 1.233 0 0 0-.105-.152 1.466 1.466 0 0 1-.11-.14 1.47 1.47 0 0 0-.09-.122 26.862 26.862 0 0 0-.902-1c-.357-.38-.652-.387-.675-.492-.023-.104.055-.245.238-.433a3.67 3.67 0 0 0 .57-.801.552.552 0 0 1 .07-.106c.032-.033.376-.704.419-.816a9.218 9.218 0 0 1 .148-.453c.082-.235.185-.762.207-1.063.04-.542.01-1.418-.059-1.73a7.568 7.568 0 0 0-.351-1.008 11.79 11.79 0 0 1-.164-.332c-.152-.317-.303-.525-.672-.926-.186-.201-.768-.711-.945-.828a5.737 5.737 0 0 0-.723-.426c-.36-.165-.525-.236-.625-.273a.623.623 0 0 1-.137-.066.12.12 0 0 0-.07-.024.51.51 0 0 1-.14-.043c-.244-.107-.765-.264-1.391-.324z" opacity=".2"/>
    <path d="M10.045 4c2.002 2.77 3.024 5.707 0 10-.318 3.754.997 5.935 5.488 5.855 1.063-.072 2.75-.282 3.637-1.117 1.405-1.72.86-2.622.281-2.742-.602-.178-2.058.724-.66 1.39.295 1.205-3.064 1.08-3.684.067-2.332-4.176 3.873-7.177 10.938-4.453 1.448 11.397 3.09 25.918 1.316 39.484-1.16 2.694-2.404 4.312-5.316 5.516v2c4-2 14-2 20-2v-2c-2.587-.466-4.64-2.869-4.945-5.285-1.005-13.447-1.74-23.297.945-36.715h9.937c1.24.028 1.748 1.057 2.063 4h4c-1.395-3.333-2-6-2-10-14.939 2.31-25.844.257-42-4zm42.719 32.023c-2.765-.024-4.877.885-6.426 3.223-.268.54-.368.923-.399 1.543-.035.721.112 1.298.497 1.93.116.192.428.542.593.668.385.291.984.576 1.278.61.077.008.187.026.246.038.95-.035 1.445-.83 1.445-1.86 0-1.299 2.388-3.901 3.203-.394-.204 2.22-1.378 2.662-2.949 3.778-.173.105-.27.24-.27.382.51 1.062.996 2.051 1.368 3.164.128.313.204.395.359.395.068 0 .124-.04.234-.152.608-.837.993-1.986 1.614-.903.196.37.286.631.422 1.219.03.136.042.327.054.773.012.437 0 .593-.094 1.18-.92 2.435-2.4 3.608-5.44 2.914-.291-.155-.567-.423-.567-.55 0-.085.155-.12.476-.118.411.004.672-.068.852-.226.033-.03.1-.079.152-.114.094-.063.25-.248.328-.39.023-.042.047-.086.055-.094.066-.065.175-.386.203-.676.061-.635-.009-.609-.277-1.09-.305-.546-1.005-1.038-1.672-1.18a2.48 2.48 0 0 0-.692-.077c-1.359-.017-2.577 1.108-3.218 2.886-.152.869-.168.982-.114 1.586.048.535.147.939.352 1.43.078.186.233.505.293.605.015.025.084.142.152.262.123.216.317.492.41.586.027.026.047.06.047.074 0 .045.679.727.91.914.08.064.166.136.192.16.246.241 1.113.738 1.508.864.069.022.243.08.386.133.241.087.895.263 1.07.289.043.006.172.036.29.062.117.027.337.064.488.086.151.022.497.044.766.047.587.007 1.698-.046 1.847-.086.06-.016.15-.035.2-.043.094-.015.7-.136.78-.156.157-.04.289-.08.532-.153.151-.045.332-.093.399-.109a.658.658 0 0 0 .152-.05 1.36 1.36 0 0 1 .2-.079c.301-.1.909-.393 1.253-.605l.25-.153c.028-.016.132-.089.234-.16.103-.07.195-.129.203-.129.034 0 .352-.23.5-.363.047-.042.156-.133.239-.203.3-.254.736-.71.816-.852a1.69 1.69 0 0 1 .125-.16c.213-.25.383-.481.383-.515 0-.014.065-.122.14-.239.076-.117.137-.217.137-.226 0-.01.05-.122.11-.25l.152-.324c.152-.326.35-1.07.395-1.485.009-.083.028-.247.043-.363.029-.223.023-1.056-.008-1.211a7.441 7.441 0 0 1-.051-.395 7.58 7.58 0 0 0-.383-1.648c-.06-.158-.13-.347-.156-.422a1.074 1.074 0 0 0-.09-.2.23.23 0 0 1-.043-.1c0-.076-.39-.827-.574-1.11a6.09 6.09 0 0 1-.2-.32.963.963 0 0 0-.113-.18 1.066 1.066 0 0 1-.09-.129 1.233 1.233 0 0 0-.105-.152 1.466 1.466 0 0 1-.11-.14 1.47 1.47 0 0 0-.09-.122 26.862 26.862 0 0 0-.902-1c-.357-.38-.652-.387-.675-.492-.023-.105.055-.245.238-.434a3.67 3.67 0 0 0 .57-.8.552.552 0 0 1 .07-.106c.032-.033.376-.705.419-.816a9.218 9.218 0 0 1 .148-.453c.082-.235.185-.762.207-1.063.04-.542.01-1.418-.059-1.73a7.568 7.568 0 0 0-.351-1.008 11.79 11.79 0 0 1-.164-.332c-.152-.317-.303-.526-.672-.926-.186-.202-.768-.712-.945-.828a5.737 5.737 0 0 0-.723-.426c-.36-.166-.525-.237-.625-.273a.623.623 0 0 1-.137-.067.12.12 0 0 0-.07-.023.51.51 0 0 1-.14-.043c-.244-.108-.765-.265-1.391-.325z" fill="#8F3F71"/>
    <path d="M10.045 4c.285.394.543.794.78 1.2 15.715 4.112 26.53 6.07 41.22 3.8 0 3.591.492 6.111 1.601 9h.399c-1.395-3.333-2-6-2-10-14.94 2.31-25.845.257-42-4zm1.879 5.379c-.102 1.372-.655 2.884-1.88 4.621a10.57 10.57 0 0 0-.015 1.541c.008-.182 0-.35.016-.541 1.527-2.168 2.02-3.991 1.879-5.621zm7.27 6.598c-.606.057-1.433.698-.645 1.253.278-.196.657-.306.902-.234a.74.74 0 0 1 .5.404c.274-.85-.097-1.32-.5-1.404a.69.69 0 0 0-.258-.02zm-4.528.21c-.135.69-.012 1.455.441 2.266.62 1.014 3.979 1.138 3.684-.066a1.285 1.285 0 0 1-.436-.317c-.88.384-2.794.125-3.248-.617a3.793 3.793 0 0 1-.441-1.265zm21.533 16.807c-.046 5.938.388 11.863.9 18.72.305 2.417 2.36 4.82 4.946 5.286v-1c-2.587-.466-4.64-2.869-4.945-5.285-.484-6.475-.894-12.114-.9-17.72zm16.565 3.03c-2.765-.025-4.877.884-6.426 3.222-.268.54-.368.923-.399 1.543-.012.251.005.482.04.707.048-.447.14-.808.359-1.25 1.549-2.338 3.66-3.247 6.426-3.223.626.06 1.147.217 1.39.325a.51.51 0 0 0 .14.043.12.12 0 0 1 .071.023.623.623 0 0 0 .137.066c.1.037.265.108.625.274.183.084.4.213.723.426.177.116.759.626.945.828.37.4.52.609.672.926.052.108.124.257.164.332.077.146.305.798.351 1.007.03.132.046.393.059.659.034-.545.008-1.358-.059-1.659a7.568 7.568 0 0 0-.351-1.007 11.79 11.79 0 0 1-.164-.332c-.152-.317-.303-.526-.672-.926-.186-.202-.768-.712-.945-.828a5.737 5.737 0 0 0-.723-.426c-.36-.166-.525-.237-.625-.274a.623.623 0 0 1-.137-.066.12.12 0 0 0-.07-.023.51.51 0 0 1-.14-.043c-.244-.108-.765-.265-1.391-.325zM28.129 40.11c-.014 4.137-.235 8.298-.768 12.373-1.16 2.694-2.404 4.312-5.316 5.516v1c2.912-1.204 4.155-2.822 5.316-5.516.576-4.403.788-8.908.768-13.373zm24.969 2.313c-.362 1.67-1.443 2.138-2.846 3.135-.173.105-.27.24-.27.382.1.207.189.406.286.608 1.562-1.107 2.73-1.555 2.933-3.768-.03-.133-.068-.241-.103-.357zm3.748 3.55c-.073.095-.147.193-.219.268-.183.189-.261.33-.238.434.023.105.318.112.675.492a26.862 26.862 0 0 1 .903 1c.01.008.049.063.09.121.04.058.089.12.109.14.02.021.067.09.105.153.039.063.081.12.09.129.022.02.087.123.114.18.01.023.1.169.199.32.185.283.574 1.034.574 1.11 0 .023.02.068.043.1.023.034.064.125.09.2.026.075.096.264.156.422a7.58 7.58 0 0 1 .383 1.648c.018.167.04.345.05.395.007.033-.002.178.003.262.002-.018.003-.035.006-.051.029-.223.023-1.056-.008-1.211a7.44 7.44 0 0 1-.051-.395 7.58 7.58 0 0 0-.383-1.648c-.06-.158-.13-.347-.156-.422a1.074 1.074 0 0 0-.09-.2.23.23 0 0 1-.043-.1c0-.076-.39-.827-.574-1.11a6.09 6.09 0 0 1-.2-.32.963.963 0 0 0-.113-.18 1.066 1.066 0 0 1-.09-.129 1.233 1.233 0 0 0-.105-.152 1.466 1.466 0 0 1-.11-.14 1.47 1.47 0 0 0-.09-.122 1.639 1.639 0 0 0-1.121-1.193zm-9.489 4.042c-1.359-.017-2.577 1.108-3.218 2.886-.152.869-.168.982-.114 1.586.003.029.01.05.012.078.022-.178.045-.34.102-.664.641-1.778 1.86-2.903 3.218-2.886.315 0 .37.01.692.078.667.14 1.367.634 1.672 1.18.11.195.165.29.213.396.025-.1.054-.201.064-.307.061-.635-.009-.609-.277-1.09-.305-.545-1.005-1.038-1.672-1.18a2.48 2.48 0 0 0-.692-.077zm6.653 1.078a8.867 8.867 0 0 1-.07.523c-.842 2.226-2.165 3.379-4.708 3.033-.179.146-.43.217-.824.213-.321-.003-.476.033-.476.117 0 .128.276.396.566.551 3.042.694 4.521-.479 5.441-2.914.094-.587.106-.743.094-1.18-.005-.198-.016-.228-.023-.343z" fill="#F9F5D7" opacity=".2"/>
</svg>
