<svg xmlns="http://www.w3.org/2000/svg" width="64" height="64" version="1">
    <rect width="56" height="56" x="4" y="4" rx="2.8" ry="2.8" fill="#48B9C7"/>
    <path d="M40 15l-4 16-2-8-10 2-3 8-3-12-8 2 6 24.142 8 1.258 4-5.4 1.938 6.072L42 51l12-34z" opacity=".2"/>
    <path d="M40 14l-4 16-2-8-10 2-3 8-3-12-8 2 6 24.142 8 1.258 4-5.4 1.938 6.072L42 50l12-34z" fill="#F9F5D7"/>
    <path d="M6.8 4C5.25 4 4 5.25 4 6.8v1C4 6.25 5.25 5 6.8 5h50.4C58.75 5 60 6.25 60 7.8v-1C60 5.25 58.75 4 57.2 4H6.8z" opacity=".2" fill="#F9F5D7"/>
    <path d="M4 57.2v1C4 59.75 5.25 61 6.8 61h50.4c1.55 0 2.8-1.25 2.8-2.8v-1c0 1.55-1.25 2.8-2.8 2.8H6.8C5.25 60 4 58.75 4 57.2z" opacity=".2"/>
</svg>
