<svg xmlns="http://www.w3.org/2000/svg" width="64" height="64" version="1">
    <path d="M26.508 4.595a5.911 5.757 0 0 0-4.335 4.451l-2.514 12.285-11.813 4.95a5.911 5.757 0 0 0-.554 10.307l11.217 6.123 1.18 12.472a5.911 5.757 0 0 0 9.896 3.703l9.45-8.5 12.544 2.76a5.911 5.757 0 0 0 6.669-8.025l-5.38-11.376 6.575-10.766a5.911 5.757 0 0 0-5.772-8.656L40.894 15.79l-8.48-9.416a5.911 5.757 0 0 0-5.906-1.779z" fill="#066678"/>
    <path d="M27.676 4.424a5.911 5.757 0 0 0-1.172.172 5.911 5.757 0 0 0-4.332 4.45l-2.515 12.288-11.812 4.95a5.911 5.757 0 0 0-.554 10.307l11.218 6.12 1.18 12.473a5.911 5.757 0 0 0 9.893 3.702l9.454-8.5 12.54 2.762a5.911 5.757 0 0 0 6.668-8.026l-5.378-11.375 6.574-10.765a5.911 5.757 0 0 0-5.774-8.66L40.89 15.792l-8.48-9.418a5.911 5.757 0 0 0-4.735-1.949zm.282 5.969l.008.008s-.01.011-.008.011c.018.002.034.018 0-.02zm.05.054l8.426 9.36a6 6 0 0 0 5.143 1.945l12.457-1.434-6.29 10.3a6 6 0 0 0-.304 5.695L52.61 47.23l-12.287-2.702a6 6 0 0 0-5.303 1.397l-9.381 8.441-1.158-12.219a6 6 0 0 0-3.096-4.702l-10.711-5.848 11.3-4.734a6 6 0 0 0 3.563-4.327l2.471-12.09z" fill="#F9F5D7"/>
    <path d="M26.504 4.596A5.911 5.757 0 0 0 23.97 5.94a5.911 5.757 0 0 0-.028.021 5.911 5.757 0 0 0-.002 0 5.911 5.757 0 0 0-.002.003 5.911 5.757 0 0 0-.408.409 5.911 5.757 0 0 0-.003.003 5.911 5.757 0 0 0-.365.45 5.911 5.757 0 0 0-.003.002 5.911 5.757 0 0 0-.316.481 5.911 5.757 0 0 0-.27.515 5.911 5.757 0 0 0-.213.535 5.911 5.757 0 0 0-.002.002 5.911 5.757 0 0 0-.155.551 5.911 5.757 0 0 0-.002.003 5.911 5.757 0 0 0-.03.13 5.911 5.757 0 0 0 .001.003L19.658 21.33h-.001l-11.811 4.95a5.911 5.757 0 0 0-1.033.56 5.911 5.757 0 0 0-.467.35 5.911 5.757 0 0 0-.001.002 5.911 5.757 0 0 0-.429.392 5.911 5.757 0 0 0-.001.002 5.911 5.757 0 0 0-.386.433 5.911 5.757 0 0 0-.001.003 5.911 5.757 0 0 0-.34.467 5.911 5.757 0 0 0-.001.002 5.911 5.757 0 0 0-.29.5 5.911 5.757 0 0 0 0 .003 5.911 5.757 0 0 0-.236.524 5.911 5.757 0 0 0-.002.002 5.911 5.757 0 0 0-.181.544 5.911 5.757 0 0 0-.002.003 5.911 5.757 0 0 0-.06.268 5.911 5.757 0 0 0-.064.293 5.911 5.757 0 0 0 0 .002 5.911 5.757 0 0 0 .272 2.885 5.911 5.757 0 0 1-.083-1.185 5.911 5.757 0 0 1 .003-.162 5.911 5.757 0 0 0 0-.002 5.911 5.757 0 0 1 .067-.57 5.911 5.757 0 0 0 0-.002 5.911 5.757 0 0 1 .065-.293 5.911 5.757 0 0 1 .06-.268 5.911 5.757 0 0 0 0-.003 5.911 5.757 0 0 1 .182-.544 5.911 5.757 0 0 0 .002-.002 5.911 5.757 0 0 1 .235-.524 5.911 5.757 0 0 0 .002-.003 5.911 5.757 0 0 1 .289-.498 5.911 5.757 0 0 0 .001-.002 5.911 5.757 0 0 1 .34-.47 5.911 5.757 0 0 0 .001-.002 5.911 5.757 0 0 1 .385-.433 5.911 5.757 0 0 0 .002-.002 5.911 5.757 0 0 1 .429-.392 5.911 5.757 0 0 0 .001-.002 5.911 5.757 0 0 1 .466-.35 5.911 5.757 0 0 1 1.033-.56l11.811-4.95h.002l2.514-12.284a5.911 5.757 0 0 0 0-.002 5.911 5.757 0 0 1 .026-.119 5.911 5.757 0 0 1 .004-.01 5.911 5.757 0 0 1 0-.005 5.911 5.757 0 0 1 .05-.175 5.911 5.757 0 0 1 .106-.376 5.911 5.757 0 0 0 .001-.002 5.911 5.757 0 0 1 .213-.535 5.911 5.757 0 0 1 .27-.515 5.911 5.757 0 0 1 .316-.48 5.911 5.757 0 0 1 .004-.004 5.911 5.757 0 0 1 .365-.447 5.911 5.757 0 0 1 .003-.003 5.911 5.757 0 0 1 .408-.41 5.911 5.757 0 0 0 .001-.003 5.911 5.757 0 0 0 .002 0 5.911 5.757 0 0 1 .029-.023 5.911 5.757 0 0 1 2.534-1.342 5.911 5.757 0 0 1 .004 0 5.911 5.757 0 0 1 .58-.114 5.911 5.757 0 0 0 .002 0 5.911 5.757 0 0 1 .587-.059 5.911 5.757 0 0 1 .586.001 5.911 5.757 0 0 1 .005 0 5.911 5.757 0 0 1 .583.057 5.911 5.757 0 0 1 1.693.509 5.911 5.757 0 0 1 .515.274 5.911 5.757 0 0 1 1.355 1.111l8.48 9.415 12.773-1.467a5.911 5.757 0 0 1 6.269 3.818 5.911 5.757 0 0 0-6.528-4.786l-12.775 1.47-8.48-9.417a5.911 5.757 0 0 0-1.354-1.11 5.911 5.757 0 0 0-.515-.274 5.911 5.757 0 0 0-.004 0 5.911 5.757 0 0 0-.541-.224 5.911 5.757 0 0 0-1.148-.285 5.911 5.757 0 0 0-.144-.014 5.911 5.757 0 0 0-.444-.043 5.911 5.757 0 0 0-.586 0 5.911 5.757 0 0 0-1.17.171 5.911 5.757 0 0 0-.003.001zM18.59 43.582l1.099 11.601a5.911 5.757 0 0 0 .322 1.392 5.911 5.757 0 0 1-.063-.426l-1.18-12.47zm34.646-9.053l-.11.184 5.38 11.376a5.911 5.757 0 0 1 .195.482 5.911 5.757 0 0 0-.453-1.448z" opacity=".2" fill="#F9F5D7"/>
    <path d="M4.625 33.518a5.911 5.757 0 0 0 2.924 4.039l7.42 4.048 3.621 1.977-.081-.87-3.8-2.073L7.29 36.59a5.911 5.757 0 0 1-2.666-3.073zm55.57-14.411a5.911 5.757 0 0 1 .02 1.713 5.911 5.757 0 0 0 0 .002 5.911 5.757 0 0 1-.108.563 5.911 5.757 0 0 1-.064.211 5.911 5.757 0 0 1-.103.341 5.911 5.757 0 0 1-.223.535 5.911 5.757 0 0 1-.274.508l-6.576 10.766.37.783L59.7 23.947h.002a5.911 5.757 0 0 0 .274-.509 5.911 5.757 0 0 0 0-.002 5.911 5.757 0 0 0 .223-.53 5.911 5.757 0 0 0 0-.003 5.911 5.757 0 0 0 .103-.34 5.911 5.757 0 0 0 .064-.212 5.911 5.757 0 0 0 .108-.563 5.911 5.757 0 0 0 0-.002 5.911 5.757 0 0 0-.28-2.679zm-21.158 31.28l-9.45 8.5a5.911 5.757 0 0 1-5.062 1.432 5.911 5.757 0 0 0-.002 0 5.911 5.757 0 0 1-2.18-.845 5.911 5.757 0 0 1-1.32-1.146 5.911 5.757 0 0 1-.354-.46 5.911 5.757 0 0 0 0-.002 5.911 5.757 0 0 1-.304-.492 5.911 5.757 0 0 1-.252-.52 5.911 5.757 0 0 0 0-.001 5.911 5.757 0 0 1-.102-.278 5.911 5.757 0 0 0 .36 1.244 5.911 5.757 0 0 0 0 .002 5.911 5.757 0 0 0 .253.519 5.911 5.757 0 0 0 .304.492 5.911 5.757 0 0 0 .354.462 5.911 5.757 0 0 0 1.829 1.437 5.911 5.757 0 0 0 .537.238 5.911 5.757 0 0 0 .557.186 5.911 5.757 0 0 0 .002 0 5.911 5.757 0 0 0 .575.13 5.911 5.757 0 0 0 .002 0 5.911 5.757 0 0 0 5.061-1.433l9.45-8.501 12.54 2.762h.003a5.911 5.757 0 0 0 .58.1 5.911 5.757 0 0 0 .002-.001 5.911 5.757 0 0 0 .588.04 5.911 5.757 0 0 0 .001 0 5.911 5.757 0 0 0 1.176-.089 5.911 5.757 0 0 0 .002 0 5.911 5.757 0 0 0 .576-.13 5.911 5.757 0 0 0 .558-.186 5.911 5.757 0 0 0 1.047-.53 5.911 5.757 0 0 0 2.333-6.75 5.911 5.757 0 0 1-1.272 4.64 5.911 5.757 0 0 0-.002 0 5.911 5.757 0 0 1-1.826 1.434 5.911 5.757 0 0 1-.539.24 5.911 5.757 0 0 1-.558.186 5.911 5.757 0 0 1-.576.13 5.911 5.757 0 0 0-.002 0 5.911 5.757 0 0 1-.583.074 5.911 5.757 0 0 1-.004 0 5.911 5.757 0 0 1-1.178-.025 5.911 5.757 0 0 0-.001 0 5.911 5.757 0 0 1-.581-.1l-.002.001-4.283-.943z" opacity=".2"/>
</svg>
