<svg xmlns="http://www.w3.org/2000/svg" width="64" height="64" version="1">
    <path d="M4.05 31c-.011.335-.05.663-.05 1 0 15.512 12.488 28 28 28 15.51 0 27.998-12.488 27.998-28 0-.337-.039-.664-.05-1-.528 15.042-12.776 27-27.95 27S4.578 46.042 4.05 31z" opacity=".2"/>
    <rect width="56" height="56" x="-59" y="-60" rx="27.999" ry="27.999" transform="matrix(0 -1 -1 0 0 0)" fill="#F9F5D7"/>
    <path d="M32 3.002C16.488 3.002 4 15.488 4 31c0 .114.011.224.018.336C4.369 16.135 16.71 4 32 4s27.63 12.135 27.982 27.336c.007-.112.018-.223.018-.336A27.938 27.938 0 0 0 32 3.002z" opacity=".1" fill="#F9F5D7"/>
    <path d="M35.921 14.001c10.08 0 10.078 12 10.078 15.84-1.44-1.44-10-11.52-10-3.84 0 5.325.03 10.694 0 16v.363c-.001.043-.013.082-.016.125a8.001 8.001 0 0 1-.148 1.078 7.699 7.699 0 0 1-.129.574c-.012.043-.03.083-.043.125a7.997 7.997 0 0 1-.512 1.316 8.004 8.004 0 0 1-.773 1.23c-.23.308-.482.597-.754.868-.071.07-.145.136-.219.203-.31.288-.643.55-.996.785-.043.029-.088.054-.132.082a8 8 0 0 1-1.239.645c-.014.006-.028.01-.043.015A8 8 0 0 1 28 50a8.008 8.008 0 0 1-1.512-.152c-.071-.014-.14-.031-.21-.047a8 8 0 0 1-1.329-.414c-.026-.011-.052-.02-.078-.032A7.999 7.999 0 0 1 20 42a8 8 0 0 1 8-8c.675.003 1.347.09 2 .262V16.879C29.999 14 33.041 14 35.921 14z" opacity=".1"/>
    <path d="M35.921 13.001c10.08 0 10.078 12 10.078 15.84-1.44-1.44-10-11.52-10-3.84 0 5.325.03 10.694 0 16v.363c-.001.043-.013.082-.016.125a8.001 8.001 0 0 1-.148 1.078 7.699 7.699 0 0 1-.129.574c-.012.043-.03.083-.043.125a7.997 7.997 0 0 1-.512 1.316 8.004 8.004 0 0 1-.773 1.23c-.23.308-.482.597-.754.868-.071.07-.145.136-.219.203-.31.288-.643.55-.996.785-.043.029-.088.055-.132.082a8 8 0 0 1-1.239.645l-.043.016A8 8 0 0 1 28 49a8.008 8.008 0 0 1-1.512-.153c-.071-.014-.14-.031-.21-.047a8 8 0 0 1-1.329-.414l-.078-.031A7.999 7.999 0 0 1 20 41a8 8 0 0 1 8-8c.675.003 1.347.09 2 .262V15.879C29.999 13 33.041 13 35.921 13z" fill="#066678"/>
</svg>
