<svg xmlns="http://www.w3.org/2000/svg" width="64" height="64" version="1">
    <ellipse cx="32" cy="53.3" rx="25" ry="8.7" opacity=".2"/>
    <ellipse cx="32" cy="52.3" rx="25" ry="8.7" fill="#504945"/>
    <ellipse cx="32" cy="48" rx="17" ry="5" fill="#3A393A"/>
    <path d="M8.8 9.8h46.4L39 49H25z" opacity=".2"/>
    <path d="M8.8 8.8h46.4L39 48H25z" fill="#066678"/>
    <path d="M46 35.65C46 38.052 40.008 40 32 40s-14-1.948-14-4.35C18 33.248 23.992 31 32 31s14 2.248 14 4.65z" opacity=".2" fill="none" stroke="#151819" stroke-width="6" stroke-linecap="square" stroke-linejoin="bevel"/>
    <path d="M46 34.65C46 37.052 40.008 39 32 39s-14-1.948-14-4.35C18 32.248 23.992 30 32 30s14 2.248 14 4.65z" fill="none" stroke="#48B9C7" stroke-width="6" stroke-linecap="square" stroke-linejoin="bevel"/>
    <path d="M52 24.3c0 3.203-8.789 6.7-20 6.7s-20-3.497-20-6.7c0-3.203 8.789-5.3 20-5.3s20 2.097 20 5.3z" opacity=".2" fill="none" stroke="#151819" stroke-width="6" stroke-linecap="square" stroke-linejoin="bevel"/>
    <path d="M52 23.3c0 3.203-8.789 6.7-20 6.7s-20-3.497-20-6.7c0-3.203 8.789-5.3 20-5.3s20 2.097 20 5.3z" fill="none" stroke="#48B9C7" stroke-width="6" stroke-linecap="square" stroke-linejoin="bevel"/>
    <path d="M58.1 12.7c0 3.203-11.685 6.3-26.1 6.3-14.415 0-26.1-3.097-26.1-6.3S17.585 7 32 7c14.415 0 26.1 2.497 26.1 5.7z" opacity=".2" fill="none" stroke="#151819" stroke-width="6" stroke-linecap="square" stroke-linejoin="bevel"/>
    <path d="M58.1 11.7c0 3.203-11.685 6.3-26.1 6.3-14.415 0-26.1-3.097-26.1-6.3S17.585 6 32 6c14.415 0 26.1 2.497 26.1 5.7z" fill="none" stroke="#48B9C7" stroke-width="6" stroke-linecap="square" stroke-linejoin="bevel"/>
    <path d="M32 3c-7.38 0-14.056.624-19.092 1.717-2.518.546-4.616 1.186-6.338 2.078-.86.446-1.644.95-2.34 1.701-.696.75-1.33 1.89-1.33 3.203 0 .173.012.34.032.506.133-1.103.691-2.054 1.298-2.709.696-.75 1.48-1.255 2.34-1.701 1.722-.892 3.82-1.532 6.338-2.078C17.944 4.624 24.62 4 32 4c7.38 0 14.056.624 19.092 1.717 2.518.546 4.616 1.186 6.338 2.078.86.446 1.644.95 2.34 1.701.607.655 1.165 1.606 1.298 2.71.02-.166.032-.334.032-.507 0-1.312-.634-2.453-1.33-3.203-.696-.75-1.48-1.255-2.34-1.701-1.722-.892-3.82-1.532-6.338-2.078C46.056 3.624 39.38 3 32 3zm-20.328 9.3c-.442.16-.87.32-1.252.475.988.45 2.104.932 3.848 1.366C18.662 15.234 25.008 16 32 16c6.992 0 13.338-.766 17.732-1.86 1.744-.433 2.86-.915 3.848-1.365-.382-.155-.81-.315-1.252-.474-.716.286-1.517.571-2.596.84C45.338 14.234 38.992 15 32 15c-6.992 0-13.338-.766-17.732-1.86a19.168 19.168 0 0 1-2.596-.84z" opacity=".2" fill="#F9F5D7"/>
</svg>
