<svg xmlns="http://www.w3.org/2000/svg" width="64" height="64" version="1">
    <circle cx="32" cy="33" r="26" opacity=".2"/>
    <circle cx="32" cy="32" r="26" fill="#F9F5D7"/>
    <path d="M34.726 13.001a67.322 67.322 0 0 1 2.746 6.25c-2.21-.176-4.293-.276-6.16-.242-17.225.307-19.84 9.553-8 27.643a57.155 57.155 0 0 1-7.312.724c31.48 5.548 39.655-3.162 24.683-26.035 2.222-.372 4.65-.616 7.316-.716-3.1-.544-5.952-.944-8.602-1.214A135.385 135.385 0 0 0 34.725 13zm3.648 8.793c4.289 13.354.029 21.482-12.758 24.39-4.276-13.346-.028-21.48 12.758-24.39zm-13.5 24.562c-.5.103-1.005.204-1.531.292.526-.088 1.026-.192 1.531-.292zm-.285 2.218A135.22 135.22 0 0 0 29.272 55a67.37 67.37 0 0 1-2.742-6.238c-.626-.05-1.288-.12-1.941-.188z" opacity=".1"/>
    <path d="M34.728 12C57.313 41.099 51.07 52.559 16 46.377c23.545-.874 29.79-12.332 18.728-34.375" fill="#FD8019"/>
    <path d="M31.312 18.009c-17.225.307-19.84 9.553-8 27.643a41.194 41.194 0 0 0 2.312-.441C20.392 28.92 27.824 20.375 48 19.625c-6.576-1.158-12.138-1.697-16.688-1.616zm-6.723 29.565A135.22 135.22 0 0 0 29.273 54a67.364 67.364 0 0 1-2.743-6.238c-.626-.05-1.287-.121-1.94-.188z" fill="#066678"/>
    <path d="M32 6A26 26 0 0 0 6 32a26 26 0 0 0 .021.59A26 26 0 0 1 32 7a26 26 0 0 1 25.979 25.41A26 26 0 0 0 58 32 26 26 0 0 0 32 6z" opacity=".2" fill="#F9F5D7"/>
</svg>
