<svg xmlns="http://www.w3.org/2000/svg" width="64" height="64" version="1">
    <path d="M6 19v2c0 1.108.892 2 2 2h12c1.108 0 2-.892 2-2v-2c0 1.108-.892 2-2 2H8c-1.108 0-2-.892-2-2zm18 0v2c0 1.108.892 2 2 2h12c1.108 0 2-.892 2-2v-2c0 1.108-.892 2-2 2H26c-1.108 0-2-.892-2-2zm18 0v2c0 1.108.892 2 2 2h12c1.108 0 2-.892 2-2v-2c0 1.108-.892 2-2 2H44c-1.108 0-2-.892-2-2zM6 37v2c0 1.108.892 2 2 2h12c1.108 0 2-.892 2-2v-2c0 1.108-.892 2-2 2H8c-1.108 0-2-.892-2-2zm18 0v2c0 1.108.892 2 2 2h12c1.108 0 2-.892 2-2v-2c0 1.108-.892 2-2 2H26c-1.108 0-2-.892-2-2zm18 0v2c0 1.108.892 2 2 2h12c1.108 0 2-.892 2-2v-2c0 1.108-.892 2-2 2H44c-1.108 0-2-.892-2-2zM6 55v2c0 1.108.892 2 2 2h12c1.108 0 2-.892 2-2v-2c0 1.108-.892 2-2 2H8c-1.108 0-2-.892-2-2zm18 0v2c0 1.108.892 2 2 2h12c1.108 0 2-.892 2-2v-2c0 1.108-.892 2-2 2H26c-1.108 0-2-.892-2-2zm18 0v2c0 1.108.892 2 2 2h12c1.108 0 2-.892 2-2v-2c0 1.108-.892 2-2 2H44c-1.108 0-2-.892-2-2z" opacity=".2"/>
    <path d="M8 6c-1.108 0-2 .892-2 2v12c0 1.108.892 2 2 2h12c1.108 0 2-.892 2-2V8c0-1.108-.892-2-2-2H8zm36 0c-1.108 0-2 .892-2 2v12c0 1.108.892 2 2 2h12c1.108 0 2-.892 2-2V8c0-1.108-.892-2-2-2H44zM26 24c-1.108 0-2 .892-2 2v12c0 1.108.892 2 2 2h12c1.108 0 2-.892 2-2V26c0-1.108-.892-2-2-2H26zM8 42c-1.108 0-2 .892-2 2v12c0 1.108.892 2 2 2h12c1.108 0 2-.892 2-2V44c0-1.108-.892-2-2-2H8zm36 0c-1.108 0-2 .892-2 2v12c0 1.108.892 2 2 2h12c1.108 0 2-.892 2-2V44c0-1.108-.892-2-2-2H44z" fill="#F9F5D7"/>
    <rect width="16" height="16" x="24" y="6" rx="2" ry="2" fill="#A79984"/>
    <rect width="16" height="16" x="6" y="24" rx="2" ry="2" fill="#A79984"/>
    <rect width="16" height="16" x="42" y="24" rx="2" ry="2" fill="#A79984"/>
    <rect width="16" height="16" x="24" y="42" rx="2" ry="2" fill="#A79984"/>
    <path d="M8 6c-1.108 0-2 .892-2 2v1c0-1.108.892-2 2-2h12c1.108 0 2 .892 2 2V8c0-1.108-.892-2-2-2H8zm18 0c-1.108 0-2 .892-2 2v1c0-1.108.892-2 2-2h12c1.108 0 2 .892 2 2V8c0-1.108-.892-2-2-2H26zm18 0c-1.108 0-2 .892-2 2v1c0-1.108.892-2 2-2h12c1.108 0 2 .892 2 2V8c0-1.108-.892-2-2-2H44zM8 24c-1.108 0-2 .892-2 2v1c0-1.108.892-2 2-2h12c1.108 0 2 .892 2 2v-1c0-1.108-.892-2-2-2H8zm18 0c-1.108 0-2 .892-2 2v1c0-1.108.892-2 2-2h12c1.108 0 2 .892 2 2v-1c0-1.108-.892-2-2-2H26zm18 0c-1.108 0-2 .892-2 2v1c0-1.108.892-2 2-2h12c1.108 0 2 .892 2 2v-1c0-1.108-.892-2-2-2H44zM8 42c-1.108 0-2 .892-2 2v1c0-1.108.892-2 2-2h12c1.108 0 2 .892 2 2v-1c0-1.108-.892-2-2-2H8zm18 0c-1.108 0-2 .892-2 2v1c0-1.108.892-2 2-2h12c1.108 0 2 .892 2 2v-1c0-1.108-.892-2-2-2H26zm18 0c-1.108 0-2 .892-2 2v1c0-1.108.892-2 2-2h12c1.108 0 2 .892 2 2v-1c0-1.108-.892-2-2-2H44z" opacity=".2" fill="#F9F5D7"/>
</svg>
