<svg xmlns="http://www.w3.org/2000/svg" width="64" height="64" version="1">
    <path d="M4 56.2v2C4 59.75 5.25 61 6.8 61h50.4c1.55 0 2.8-1.25 2.8-2.8v-2c0 1.55-1.25 2.8-2.8 2.8H6.8C5.25 59 4 57.75 4 56.2z" opacity=".2"/>
    <rect width="56" height="56" x="4" y="4" rx="2.8" ry="2.8" fill="#CB8819"/>
    <path d="M60 57.2V6.8C60 5.25 58.75 4 57.2 4H32v56h25.2c1.55 0 2.8-1.249 2.8-2.8z" opacity=".2" fill="#F9F5D7"/>
    <path d="M6.8 4C5.25 4 4 5.25 4 6.8v1.003c0-1.551 1.25-2.801 2.8-2.801h50.4c1.55 0 2.8 1.25 2.8 2.8V6.802C60 5.25 58.75 4 57.2 4H6.8z" opacity=".2" fill="#F9F5D7"/>
    <g opacity=".2">
        <path d="M18 17A10 10 0 0 0 8 27a10 10 0 0 0 10 10 10 10 0 0 0 10-10 10 10 0 0 0-10-10zm0 6a4 4 0 0 1 4 4 4 4 0 0 1-4 4 4 4 0 0 1-4-4 4 4 0 0 1 4-4z"/>
        <path d="M16 51h4V31h-4zM20 47h4v-4h-4z"/>
    </g>
    <g fill="#FECE4F">
        <path d="M18 16A10 10 0 0 0 8 26a10 10 0 0 0 10 10 10 10 0 0 0 10-10 10 10 0 0 0-10-10zm0 6a4 4 0 0 1 4 4 4 4 0 0 1-4 4 4 4 0 0 1-4-4 4 4 0 0 1 4-4z"/>
        <path d="M16 50h4V30h-4zM20 46h4v-4h-4z"/>
    </g>
</svg>
