<svg xmlns="http://www.w3.org/2000/svg" width="64" height="64" version="1">
    <path d="M2.05 37.39c-.026.352-.05.704-.05 1.064C2 46.486 8.716 53 17 53h31.876C56.124 53 62 47.302 62 40.274a12.5 12.5 0 0 0-.05-1.028C61.434 45.818 55.784 51 48.876 51H17C9.042 51 2.551 44.986 2.05 37.39z" opacity=".2"/>
    <path d="M32 12c-7.766 0-14.38 4.61-17.227 11.136C7.544 24.178 2 30.154 2 37.454 2 45.488 8.716 52 17 52h31.876C56.124 52 62 46.302 62 39.272c0-6.532-5.066-11.886-11.602-12.612C48.694 18.32 41.1 12 32 12z" fill="#F9F5D7"/>
    <path d="M32 12c-7.766 0-14.38 4.612-17.227 11.137C7.544 24.179 2 30.153 2 37.453c0 .158.015.313.025.469.264-7.055 5.697-12.769 12.748-13.785C17.62 17.612 24.234 13 32 13c9.1 0 16.694 6.32 18.398 14.66 6.36.707 11.314 5.801 11.577 12.094.009-.16.025-.319.025-.48 0-6.533-5.066-11.888-11.602-12.614C48.694 18.32 41.1 12 32 12z" opacity=".2" fill="#F9F5D7"/>
    <path d="M32 18a14 14 0 0 0-14 14 14 14 0 0 0 14 14 14 14 0 0 0 14-14 14 14 0 0 0-14-14zm0 4a10 10 0 0 1 10 10 10 10 0 0 1-10 10 10 10 0 0 1-10-10 10 10 0 0 1 10-10z" opacity=".5"/>
    <circle cx="32" cy="32" r="6" opacity=".5"/>
</svg>
