<svg xmlns="http://www.w3.org/2000/svg" width="64" height="64" version="1">
    <path d="M21 4.996a17 25 0 0 0-17 25 17 25 0 0 0 7.135 20.336c-2.18.483-3.518.86-3.518.86a5 5 0 1 0 2.766 9.609S20.198 58 32 58c11.802 0 21.617 2.8 21.617 2.8a5 5 0 1 0 2.766-9.609s-1.341-.377-3.53-.861A17 25 0 0 0 60 29.996a17 25 0 0 0-17-25 17 25 0 0 0-10.988 5.961A17 25 0 0 0 21 4.997z" opacity=".2"/>
    <ellipse cx="21" cy="28.996" rx="17" ry="25" fill="#F9BD2E"/>
    <ellipse cx="43" cy="28.996" rx="17" ry="25" fill="#F9BD2E"/>
    <path d="M9 54.996S19.405 52 32 52s23 2.996 23 2.996" fill="none" stroke="#FD8019" stroke-width="10" stroke-linecap="round" stroke-linejoin="round"/>
    <path d="M20.87 11.996c-1.234 0-3.342.74-5.287 3.739-1.946 2.999-3.51 7.925-3.51 13.52 0 5.594 1.564 10.52 3.51 13.519 1.13 1.742 2.576 2.707 3.5 3.222A101.18 101.18 0 0 1 28 45.187V20.319c-.588-1.79-1.446-3.355-2.243-4.584-1.945-3-3.653-3.74-4.887-3.74zm22.391 0c-1.234 0-2.941.74-4.887 3.739-.797 1.229-1.786 2.794-2.374 4.584v24.868c3.21.15 6.438.448 9.049.809.923-.515 2.368-1.48 3.498-3.222 1.946-3 3.51-7.925 3.51-13.52 0-5.594-1.564-10.52-3.51-13.52-1.945-2.999-4.052-3.738-5.286-3.738z" opacity=".3"/>
    <path d="M21 3.996c-9.389 0-17 11.193-17 25 .004.138.008.276.014.414C4.23 15.84 11.77 5.003 21 4.996c4.035.002 7.939 2.115 11.012 5.961 3.067-3.838 6.96-5.95 10.988-5.96 9.291.007 16.857 10.983 16.988 24.646.006-.216.01-.431.012-.647 0-13.807-7.611-25-17-25-4.027.01-7.921 2.123-10.988 5.961C28.939 6.111 25.035 3.998 21 3.997z" opacity=".2" fill="#F9F5D7"/>
</svg>
