<svg xmlns="http://www.w3.org/2000/svg" width="64" height="64">
    <rect width="42.247" height="42.247" x="-67.08" y="-20.42" rx="2.112" ry="2.112" transform="scale(-1 1) rotate(-45)" opacity=".2"/>
    <rect width="42.247" height="42.247" x="-66.38" y="-21.12" rx="2.112" ry="2.112" transform="scale(-1 1) rotate(-45)" fill="#066678"/>
    <path d="M32 3c-.54 0-1.078.207-1.492.621L3.62 30.508a2.04 2.04 0 0 0-.533 1.947c.086-.345.259-.673.533-.947L30.508 4.62a2.103 2.103 0 0 1 2.984 0L60.38 31.508c.274.274.447.602.533.947a2.04 2.04 0 0 0-.533-1.947L33.492 3.62A2.103 2.103 0 0 0 32 3z" opacity=".1" fill="#F9F5D7"/>
    <path d="M30 3v14h3V3z" fill="#3A393A"/>
    <path d="M32 15.028c-3.28 0-6.188 2.309-6.844 5.523l-.14 1.381V32L19.77 49.645 30.506 60.38a2.107 2.107 0 0 0 2.988 0L44.23 49.645 39.005 32V21.932l-.146-1.38c-.656-3.213-3.58-5.521-6.859-5.524z" fill="#FA4934"/>
    <path d="M32 15.027c-3.28 0-6.188 2.31-6.844 5.524l-.14 1.383v1l.14-1.383c.656-3.215 3.563-5.523 6.844-5.524 3.279.003 6.204 2.311 6.86 5.524l.144 1.383v-1l-.145-1.383c-.655-3.213-3.58-5.52-6.859-5.524zM25.016 32L19.77 49.645l.228.228L25.016 33v-1zm13.988 0v1l4.998 16.873.228-.228L39.004 32z" opacity=".1" fill="#F9F5D7"/>
    <path d="M32 15.429c-2.762 0-2.762 5.523-2.762 5.523V32l-3.803 23.309 5.07 5.07a2.107 2.107 0 0 0 2.99 0l5.07-5.07L34.762 32V20.952s0-5.523-2.762-5.523z" fill="#F9BD2E"/>
    <rect width="18" height="3" x="23" y="23" rx="1.5" ry="1.5" opacity=".1"/>
    <rect width="18" height="3" x="23" y="22" rx="1.5" ry="1.5" fill="#3A393A"/>
    <path d="M32 27c-3 0-3 2.667-3 2.667V35h6v-5.334S35 27 32 27z" fill="#3A393A"/>
    <path d="M42 8.5l-4.5 2.25L33 13V4l4.5 2.25z" opacity=".2"/>
    <path d="M42 7.5l-4.5 2.25L33 12V3l4.5 2.25z" fill="#F9BD2E"/>
</svg>
