<svg xmlns="http://www.w3.org/2000/svg" width="64" height="64" version="1">
    <path d="M4 56.2v2C4 59.75 5.25 61 6.8 61h50.4c1.55 0 2.8-1.25 2.8-2.8v-2c0 1.55-1.25 2.8-2.8 2.8H6.8C5.25 59 4 57.75 4 56.2z" opacity=".2"/>
    <rect width="56" height="56" x="4" y="4" rx="2.8" ry="2.8" fill="#8F3F71"/>
    <path d="M32 19c-4.396.005-8.784 1.08-12.133 3.208-7.363 4.676-7.87 12.768-1.105 17.738.621.448 1.187.867 1.257.921l-1.871 3.328L21.999 47l10-16.64L42 47l3.852-2.804-1.872-3.328c.07-.054.636-.473 1.258-.921 6.764-4.97 6.257-13.063-1.106-17.738C40.783 20.08 36.395 19.004 32 19zm-1.012 2l-9 16c-10-8 1-16 9-16zM33 21c8 0 19 8 9 16l-9-16zm-1 14l-4 5.996L32 47l4-6.004L32 35z" opacity=".2"/>
    <path d="M32 18c-4.396.005-8.784 1.08-12.133 3.209-7.363 4.676-7.87 12.767-1.105 17.737a78.37 78.37 0 0 1 1.258.922l-1.872 3.328L22 46l10-16.64L42 46l3.851-2.804-1.872-3.328c.072-.056.636-.474 1.258-.922 6.764-4.97 6.258-13.063-1.106-17.737C40.783 19.08 36.396 18.005 32 18zm-1.012 2l-9 16c-10-8 1-16 9-16zM33 20c8 0 19 8 9 16l-9-16zm-1 14l-4 5.996L32 46l4-6.004L32 34z" fill="#A79984"/>
    <path d="M6.8 4C5.25 4 4 5.25 4 6.8v1.003c0-1.551 1.25-2.801 2.8-2.801h50.4c1.55 0 2.8 1.25 2.8 2.8V6.802C60 5.25 58.75 4 57.2 4H6.8z" opacity=".1" fill="#F9F5D7"/>
</svg>
