<svg xmlns="http://www.w3.org/2000/svg" width="64" height="64" version="1">
    <rect width="57" height="57" x="3" y="4" rx="2.85" ry="2.85" opacity=".2"/>
    <rect width="57" height="57" x="3" y="3" rx="2.85" ry="2.85" fill="#504945"/>
    <path d="M14.5 10a5.5 5.5 0 1 0 0 11 5.5 5.5 0 0 0 0-11zm17.9 0c-2.991 0-5.4 2.453-5.4 5.5s2.409 5.5 5.4 5.5h16.2c2.991 0 5.4-2.453 5.4-5.5S51.591 10 48.6 10zM14.5 27a5.5 5.5 0 1 0 0 11 5.5 5.5 0 0 0 0-11zm17.9 0c-2.991 0-5.4 2.453-5.4 5.5s2.409 5.5 5.4 5.5h16.2c2.991 0 5.4-2.453 5.4-5.5S51.591 27 48.6 27zM14.5 44a5.5 5.5 0 1 0 0 11 5.5 5.5 0 0 0 0-11zm17.9 0c-2.991 0-5.4 2.453-5.4 5.5s2.409 5.5 5.4 5.5h16.2c2.991 0 5.4-2.453 5.4-5.5S51.591 44 48.6 44z" opacity=".2"/>
    <path d="M14.5 9a5.5 5.5 0 1 0 0 11 5.5 5.5 0 0 0 0-11zm17.9 0C29.41 9 27 11.453 27 14.5s2.409 5.5 5.4 5.5h16.2c2.991 0 5.4-2.453 5.4-5.5S51.591 9 48.6 9zM14.5 26a5.5 5.5 0 1 0 0 11 5.5 5.5 0 0 0 0-11zm17.9 0c-2.991 0-5.4 2.453-5.4 5.5s2.409 5.5 5.4 5.5h16.2c2.991 0 5.4-2.453 5.4-5.5S51.591 26 48.6 26z" fill="#F9F5D7"/>
    <path d="M14.5 43a5.5 5.5 0 1 0 0 11 5.5 5.5 0 0 0 0-11zm17.9 0c-2.991 0-5.4 2.453-5.4 5.5s2.409 5.5 5.4 5.5h16.2c2.991 0 5.4-2.453 5.4-5.5S51.591 43 48.6 43z" fill="#FD8019"/>
    <path d="M5.85 3A2.843 2.843 0 0 0 3 5.85v1C3 5.27 4.27 4 5.85 4h51.3C58.73 4 60 5.27 60 6.85v-1C60 4.27 58.73 3 57.15 3z" opacity=".1" fill="#F9F5D7"/>
</svg>
