<svg xmlns="http://www.w3.org/2000/svg" width="64" height="64">
    <circle cx="32" cy="33" r="28" opacity=".2"/>
    <circle cx="32" cy="32" r="28" fill="#3A393A"/>
    <path d="M32 4A28 28 0 0 0 4 32a28 28 0 0 0 .018.492A28 28 0 0 1 32 5a28 28 0 0 1 27.975 27.492A28 28 0 0 0 60 32 28 28 0 0 0 32 4z" opacity=".1" fill="#F9F5D7"/>
    <circle cx="49" cy="16" r="15" opacity=".2"/>
    <circle cx="55" cy="48" r="7" opacity=".2"/>
    <circle cx="55" cy="47" r="7" fill="#504945"/>
    <circle cx="49" cy="15" r="15" fill="#B57514"/>
    <circle cx="49" cy="16" r="10" opacity=".2"/>
    <circle cx="49" cy="15" r="10" fill="#F9BD2E"/>
    <circle cx="49" cy="16" r="4" opacity=".2"/>
    <circle cx="49" cy="15" r="4" fill="#F9F5D7"/>
    <path d="M55 40a7 7 0 0 0-7 7 7 7 0 0 0 .025.445A7 7 0 0 1 55 41a7 7 0 0 1 6.975 6.477A7 7 0 0 0 62 47a7 7 0 0 0-7-7z" opacity=".1" fill="#F9F5D7"/>
    <path d="M49 0a15 15 0 0 0-15 15 15 15 0 0 0 .018.475A15 15 0 0 1 49 1a15 15 0 0 1 14.977 14.508A15 15 0 0 0 64 15 15 15 0 0 0 49 0z" opacity=".2" fill="#F9F5D7"/>
</svg>
