<svg xmlns="http://www.w3.org/2000/svg" width="64" height="64" version="1">
    <rect width="56" height="56" x="4" y="5" rx="2.8" ry="2.8" opacity=".2"/>
    <rect width="56" height="56" x="4" y="4" rx="2.8" ry="2.8" fill="#066678"/>
    <path d="M53.954 29.273L48.119 18.3l-.026-.036a.709.709 0 0 0-.873-.186.684.684 0 0 0-.31.324c-.01.012-.014.026-.02.04l-3.153 7.426-6.259 3.207c-.04.02-.082.043-.122.065l-2.128 1.09-1.855.951-.485-.911a1.082 1.082 0 0 0-1.448-.447c-.525.268-.73.905-.455 1.421l.485.912-1.791.918-1.547-2.91 2.776-1.422a1.419 1.419 0 0 0 .398-2.235l-.127-.12a1.48 1.48 0 0 0-1.62-.18l-8.2 4.2a1.42 1.42 0 0 0-.268 2.36 1.48 1.48 0 0 0 1.618.178l2.775-1.422 1.547 2.909-1.977 1.013-.485-.911a1.085 1.085 0 0 0-1.794-.167c-.254.317-.312.76-.11 1.142l.486.911-3.011 1.543-.124.062-7.172 3.673-2.447-.522-.018-.004a.33.33 0 0 0-.206.03.312.312 0 0 0-.152.391l2.684 5.045.02.027.004.004.04.036a.323.323 0 0 0 .493-.115l.008-.017.983-2.31 2.87-1.472c.011.8.207 1.61.61 2.367 1.377 2.589 4.632 3.592 7.27 2.24.042-.02.084-.042.123-.064l3.01-1.543.564 1.059c.273.515.925.715 1.448.446.525-.268.73-.906.455-1.421l-.563-1.057 1.977-1.014 1.642 3.087a1.507 1.507 0 0 0 2.518.203 1.443 1.443 0 0 0 .13-1.56l-1.64-3.087 1.79-.918.564 1.058c.273.515.923.716 1.448.446.526-.27.728-.907.455-1.421l-.563-1.059 4.154-2.129a5.4 5.4 0 0 0 .8-.515c1.993-1.544 2.65-4.307 1.434-6.595a5.321 5.321 0 0 0-1.628-1.846l1.958-1.003 8.057 1.713c.015.004.029.008.043.01a.7.7 0 0 0 .449-.065.676.676 0 0 0 .326-.85zm-30.27 15.515l-.056.03c-1.186.607-2.648.157-3.266-1.008a2.354 2.354 0 0 1 1.024-3.204l3.137-1.608 2.24 4.212zm4.98-2.553l-2.24-4.211.132-.066 1.847-.947 2.24 4.212-.421.216zm4.628-2.37l-2.24-4.212 1.791-.918 2.24 4.212zm7.43-3.813a.734.734 0 0 1-.08.045l-3.657 1.875-2.24-4.211 2.727-1.399.873-.446c.046-.024.094-.046.14-.067 1.158-.507 2.532-.046 3.126 1.072a2.344 2.344 0 0 1-.53 2.87 2.148 2.148 0 0 1-.359.261z" opacity=".2"/>
    <path d="M53.954 28.273L48.119 17.3l-.026-.036a.709.709 0 0 0-.873-.186.684.684 0 0 0-.31.324c-.01.012-.014.026-.02.04l-3.153 7.426-6.259 3.207-.122.065-2.128 1.09-1.855.951-.485-.911a1.082 1.082 0 0 0-1.448-.447c-.525.268-.73.905-.455 1.421l.485.912-1.791.918-1.547-2.909 2.776-1.423a1.419 1.419 0 0 0 .398-2.235l-.127-.12a1.48 1.48 0 0 0-1.62-.18l-8.2 4.2a1.42 1.42 0 0 0-.268 2.36 1.48 1.48 0 0 0 1.618.178l2.775-1.422 1.547 2.909-1.977 1.013-.485-.911a1.085 1.085 0 0 0-1.794-.167c-.254.317-.312.76-.11 1.142l.486.911-3.01 1.543-.125.062-7.172 3.673-2.446-.521c-.007-.003-.014-.003-.019-.004a.33.33 0 0 0-.206.03.312.312 0 0 0-.152.39l2.684 5.045.02.027.005.004.039.036a.323.323 0 0 0 .493-.115l.008-.016.983-2.312 2.87-1.471c.011.8.207 1.61.61 2.367 1.377 2.59 4.632 3.592 7.27 2.24.042-.02.084-.042.123-.064l3.01-1.543.564 1.059c.273.515.925.715 1.448.446.525-.268.73-.906.455-1.421l-.563-1.057 1.977-1.014 1.642 3.087a1.507 1.507 0 0 0 2.518.203 1.443 1.443 0 0 0 .13-1.56l-1.64-3.087 1.79-.918.564 1.058c.273.515.923.716 1.448.446.526-.27.728-.907.455-1.421l-.563-1.059 4.154-2.129a5.4 5.4 0 0 0 .8-.515c1.993-1.544 2.651-4.307 1.434-6.595a5.321 5.321 0 0 0-1.628-1.846l1.958-1.003 8.057 1.713c.015.004.029.008.043.01a.7.7 0 0 0 .449-.065.676.676 0 0 0 .326-.85zm-30.27 15.515l-.056.03c-1.186.607-2.647.157-3.266-1.008a2.354 2.354 0 0 1 1.024-3.204l3.137-1.607 2.24 4.211zm4.98-2.553l-2.24-4.211.132-.066 1.847-.946 2.24 4.211-.421.216zm4.628-2.37l-2.24-4.212 1.791-.918 2.24 4.212zm7.43-3.813a.734.734 0 0 1-.08.045l-3.657 1.875-2.24-4.211 2.727-1.399.873-.446c.046-.024.094-.046.141-.067 1.157-.507 2.53-.046 3.125 1.072a2.344 2.344 0 0 1-.53 2.87 2.148 2.148 0 0 1-.359.261z" fill="#F9F5D7"/>
    <path d="M6.8 4C5.25 4 4 5.25 4 6.8v1C4 6.25 5.25 5 6.8 5h50.4C58.75 5 60 6.25 60 7.8v-1C60 5.25 58.75 4 57.2 4H6.8z" opacity=".2" fill="#F9F5D7"/>
</svg>
