<svg xmlns="http://www.w3.org/2000/svg" width="64" height="64" version="1">
    <path d="M4.05 32c-.011.334-.05.662-.05 1 0 15.512 12.488 28 28 28 15.511 0 28-12.488 28-28 0-.337-.04-.665-.052-1-.528 15.042-12.775 27-27.95 27C16.826 59 4.579 47.042 4.05 32z" opacity=".2"/>
    <rect width="56" height="56" x="4" y="4" rx="28" fill="#504945"/>
    <path d="M30.01 51C42.26 47.844 60.7 35.566 42.07 19c8.28 10.506 10.052 14-8.04 14 17.594 3.535 2.041 10.585-6.03 12zM34.102 15.011c-12.252 3.156-30.692 15.435-12.062 32-8.28-10.506-10.051-14 8.04-14-17.593-3.534-2.04-10.585 6.03-12z" opacity=".2"/>
    <path d="M30.01 49.99c12.251-3.155 30.69-15.434 12.06-32 8.28 10.506 10.052 14-8.04 14 17.594 3.535 2.041 10.585-6.03 12z" fill="#BE4C1D"/>
    <path d="M34.102 14C21.85 17.157 3.41 29.435 22.04 46c-8.28-10.506-10.05-14 8.042-14-17.595-3.534-2.042-10.583 6.03-12z" fill="#7CB668"/>
    <path d="M32 4C16.488 4 4 16.488 4 32c0 .114.011.224.018.336C4.369 17.134 16.71 5 32 5c15.29 0 27.63 12.134 27.982 27.336.007-.112.018-.222.018-.336C60 16.488 47.512 4 32 4z" opacity=".1" fill="#F9F5D7"/>
</svg>
