<svg xmlns="http://www.w3.org/2000/svg" width="64" height="64">
    <path d="M59.27 32.735c0 1.786.563 3.8.243 5.493C57.064 51.193 45.677 61 32 61 16.536 61 4 48.464 4 33c0-6.314 2.09-12.14 5.616-16.824C14.726 9.389 22.85 5.73 32 5.73c15.464 0 27.27 11.54 27.27 27.005z" opacity=".2"/>
    <path d="M59.27 31.735c0 1.786.563 3.8.243 5.493C57.064 50.193 45.677 60 32 60 16.536 60 4 47.464 4 32c0-6.314 2.09-12.14 5.616-16.824C14.726 8.389 22.85 4.73 32 4.73c15.464 0 27.27 11.54 27.27 27.005z" fill="#066678"/>
    <path d="M32.096 5.005c-.177 0-.354.008-.53.011-.384.006-.767.02-1.15.041-.27.017-.54.04-.811.063a28 28 0 0 0-1.972.24c-.363.06-.725.13-1.088.203A28.947 28.947 0 0 0 21.5 7.061a28 28 0 0 0-9.122 5.975 28 28 0 0 0-4.047 5.067c1.259-1.373 2.907-2.264 3.448-.673 1.067.442 1.326-3.48 2.31-.96-.363.568-2.087 1.47-.787 1.857 1.569-2.152 3.765-3.965 4.868-6.19 1.792-1.691-.39-.809-1.789-.276-.974.37-1.64.606-.019-.463.435-1.27 4.3-3.227 3.634-1.107 4.041-.419-2.175.562-1.06 2.393 1.627-.457 4.31-1.54 5.216-3.55-1.883.22-1.963.051.033-.328 1.125.257.666 1.263 2.431 1.184-1.443.601-4.795 2.77-6.899 4.006-1.574 1.33-.723 2.83 1.058 1.381 3.173-.076 6.385-.723 8.348-3.49.321-1.396-1.216-1.553-1.047-2.826-.293-.166-4.77-.907-2.641-1.182 1.253-.28 2.99-1.283.76-1.003 4.405-.476 7.838-.928 11.683.3.543.268.855.63.616 1.206-2.277-.238 1.224.706 1.411 1.05.01 1.726-2.602.905-3.719 1.578 1.462-.528 3.445 2.19 1.564 2.778 1.603 2.717-2.021 1.666-1.419-.497-2.602 1.254 3.207 3.532-.511 3.565-.841 1.805-3.706-2.27-5.455.246-1.061 1.315-4.7 3.303-2.03 4.709-.974 1.593-3.881 3.652-3.08.36.896-3.57-2.745-.309-2.987.963.735.594 2.605-1.37 1.05.591-1.384 1.217 3.227.869.093 1.088-.648.846.349 3.715-1.706 2.232-3.603.49.057 4.71-3.358 5.55-2.718 1.43-4.322 4.09-4.364 7.156.213 3.463 3.655 6.486 7.131 5.835 2.091.479 4.466 1.655 3.582 4.105 3.443 1.309.42 5.326 2.765 7.235 1.664 3.936 7.585 3.12 9.5-.167 1.587-1.948 4.088-2.973 2.753-5.945 1.077-2.944 5.142-4.792 5.015-8.238-1.614-.282-3.637 2.007-4.635-.509-1.1-1.161-3.653-4.487-3.014-5.367 1.72 1.876 2.86 4.209 4.572 6.092 2.417-1.383 4.958-3.265 5.753-6.013-1.062-1.234-2.321-1.644-.008-1.999 3.385-1.72 5.506 2.32 6.904 4.32 3.055.86-.617-3.491.84-5.198-.17-2.377 1.809-3.84 2.753-2.647 1.468 2.225.868 4.583 1.234 6.976.045.391.052.78.027 1.165.02-.08.056-.122.107-.132.481-2.053.729-4.155.738-6.264-.003-15.425-12.48-27.942-27.904-27.995zM16.38 11.861c.046-.016.152-.07.348-.19.119-.132.113-.158.054-.133-.133.055-.538.369-.402.323zm11.49-4.468c-.707.08-2.496.634-.87.598 1.328-.523 1.294-.646.87-.598zm6.751 4.853a.466.466 0 0 0-.164.003c-.465.068-1.47.505-.325.46.517-.307.599-.435.49-.463zm-3.226.815c-.503-.057-1.069.228-.282 1.19l.18-.334c1.044-.402.604-.8.102-.856zm-7.498 3.33c-.855.108-1.884 1.682.703 1.102.038-.897-.314-1.15-.703-1.102zm6.984 3.273c.328.11.593 1.146-.397.908.025-.558.132-.815.254-.891a.163.163 0 0 1 .143-.017zm.328 1.797c.296-.046.32.294-.255 1.364-.44.558-1.323 1.044-1.974.493.486-.632 1.735-1.78 2.229-1.857zm-.588.377c-.11.05-.502.907-.027.304.069-.247.063-.32.027-.304zm9.84 5.22c.138.014.418.158.895.481.505.46 2.732 3.412.544 2.776.02-.916-2.032-3.314-1.438-3.257zm-5.44.615c.263.028.517.141.716.35 3.179-.094 2.191 2.284-.377 1.291-.529.192-1.127.578-1.677.23-.32-1.257.548-1.953 1.337-1.87zm-6.826.345c1.868.265 2.156 5.31 4.425 3.913-1.107-2.417.004-1.343.675.142.873.145 2.349.02 3.04.418.47.27.588.773-.12 1.786-2.13 1.262-5.125-.98-6.978.528-2.17-.346-2.215-2.722-3.076-3.558-1.322-.289-4.916.553-4.616-.492 2.151-.825 4.738-4.583 6.462-.9 2.144 1.431-2.045 1.307.232 2.073 2.368-1.31 1.034-2.144-.044-3.91zm8.14 4.473c-.12-.136-1.75.541-.543.465.455-.284.584-.42.544-.465zm-9.564-3.519c-.36-.024-1.33 1.794-.15 1.542.348-1.14.313-1.53.15-1.542zm16.012 5.606c.197-.005.565.11 1.173.399 2.24-.053.835 1.34.014 1.35-.8-.651-1.775-1.735-1.187-1.75zm14.424 10.308c-.166.32-.31.633-.473.95.165-.315.32-.632.473-.95zM43.51 52.622c-.26.033-.663.267-1.247.787-.766.338-2.786 3.748-.634 3.044 1.42-.364 3.006-3.977 1.881-3.831z" opacity=".2"/>
    <path d="M32.096 4.005c-.177 0-.354.008-.53.011-.384.006-.767.02-1.15.041-.27.017-.54.04-.811.063a28 28 0 0 0-1.972.24c-.363.06-.725.13-1.088.203A28.947 28.947 0 0 0 21.5 6.061a28 28 0 0 0-9.122 5.975 28 28 0 0 0-4.047 5.067c1.259-1.373 2.907-2.264 3.448-.673 1.067.442 1.326-3.48 2.31-.96-.363.568-2.087 1.47-.787 1.857 1.569-2.152 3.765-3.965 4.868-6.19 1.792-1.691-.39-.809-1.789-.276-.974.37-1.64.606-.019-.463.435-1.27 4.3-3.227 3.634-1.107 4.041-.419-2.175.562-1.06 2.393 1.627-.457 4.31-1.54 5.216-3.55-1.883.22-1.963.051.033-.328 1.125.257.666 1.263 2.431 1.184-1.443.601-4.795 2.77-6.899 4.006-1.574 1.33-.723 2.83 1.058 1.381 3.173-.076 6.385-.723 8.348-3.49.321-1.396-1.216-1.553-1.047-2.826-.293-.166-4.77-.907-2.641-1.182 1.253-.28 2.99-1.283.76-1.003 4.405-.476 7.838-.928 11.683.3.543.268.855.63.616 1.206-2.277-.238 1.224.706 1.411 1.05.01 1.726-2.602.905-3.719 1.578 1.462-.528 3.445 2.19 1.564 2.778 1.603 2.717-2.021 1.666-1.419-.497-2.602 1.254 3.207 3.532-.511 3.565-.841 1.805-3.706-2.27-5.455.246-1.061 1.315-4.7 3.303-2.03 4.709-.974 1.593-3.881 3.652-3.08.36.896-3.57-2.745-.309-2.987.963.735.594 2.605-1.37 1.05.591-1.384 1.217 3.227.869.093 1.088-.648.846.349 3.715-1.706 2.232-3.603.49.057 4.71-3.358 5.55-2.718 1.43-4.322 4.09-4.364 7.156.213 3.463 3.655 6.486 7.131 5.835 2.091.479 4.466 1.655 3.582 4.105 3.443 1.309.42 5.326 2.765 7.235 1.664 3.936 7.585 3.12 9.5-.167 1.587-1.948 4.088-2.973 2.753-5.945 1.077-2.944 5.142-4.792 5.015-8.238-1.614-.282-3.637 2.007-4.635-.509-1.1-1.161-3.653-4.487-3.014-5.367 1.72 1.876 2.86 4.209 4.572 6.092 2.417-1.383 4.958-3.265 5.753-6.013-1.062-1.234-2.321-1.644-.008-1.999 3.385-1.72 5.506 2.32 6.904 4.32 3.055.86-.617-3.491.84-5.198-.17-2.377 1.809-3.84 2.753-2.647 1.468 2.225.868 4.583 1.234 6.976.045.391.052.78.027 1.165.02-.08.056-.122.107-.132.481-2.053.729-4.155.738-6.264-.003-15.425-12.48-27.942-27.904-27.995zM16.38 10.861c.046-.016.152-.07.348-.19.119-.132.113-.158.054-.133-.133.055-.538.369-.402.323zm11.49-4.468c-.707.08-2.496.634-.87.598 1.328-.523 1.294-.646.87-.598zm6.751 4.853a.466.466 0 0 0-.164.003c-.465.068-1.47.505-.325.46.517-.307.599-.435.49-.463zm-3.226.815c-.503-.057-1.069.228-.282 1.19l.18-.334c1.044-.402.604-.8.102-.856zm-7.498 3.33c-.855.108-1.884 1.682.703 1.102.038-.897-.314-1.15-.703-1.102zm6.984 3.273c.328.11.593 1.146-.397.908.025-.558.132-.815.254-.891a.163.163 0 0 1 .143-.017zm.328 1.797c.296-.046.32.294-.255 1.364-.44.558-1.323 1.044-1.974.493.486-.632 1.735-1.78 2.229-1.857zm-.588.377c-.11.05-.502.907-.027.304.069-.247.063-.32.027-.304zm9.84 5.22c.138.014.418.158.895.481.505.46 2.732 3.412.544 2.776.02-.916-2.032-3.314-1.438-3.257zm-5.44.615c.263.028.517.141.716.35 3.179-.094 2.191 2.284-.377 1.291-.529.192-1.127.578-1.677.23-.32-1.257.548-1.953 1.337-1.87zm-6.826.345c1.868.265 2.156 5.31 4.425 3.913-1.107-2.417.004-1.343.675.142.873.145 2.349.02 3.04.418.47.27.588.773-.12 1.786-2.13 1.262-5.125-.98-6.978.528-2.17-.346-2.215-2.722-3.076-3.558-1.322-.289-4.916.553-4.616-.492 2.151-.825 4.738-4.583 6.462-.9 2.144 1.431-2.045 1.307.232 2.073 2.368-1.31 1.034-2.144-.044-3.91zm8.14 4.473c-.12-.136-1.75.541-.543.465.455-.284.584-.42.544-.465zm-9.564-3.519c-.36-.024-1.33 1.794-.15 1.542.348-1.14.313-1.53.15-1.542zm16.012 5.606c.197-.005.565.11 1.173.399 2.24-.053.835 1.34.014 1.35-.8-.651-1.775-1.735-1.187-1.75zm14.424 10.308c-.166.32-.31.633-.473.95.165-.315.32-.632.473-.95zM43.51 51.622c-.26.033-.663.267-1.247.787-.766.338-2.786 3.748-.634 3.044 1.42-.364 3.006-3.977 1.881-3.831z" fill="#A79984"/>
    <path d="M14 17.973l-6 2.994v.867l6 2.646v-1.447L9.87 21.34 14 19.42zm30 0v1.447l4.13 1.92L44 23.033v1.447l6-2.646v-.867zM19.63 18c-.377 0-.743.079-1.097.238-.346.16-.62.415-.82.768h-.098l-.24-.881H16V25h1.797v-3.234c0-.73.094-1.29.28-1.676.192-.395.536-.592 1.034-.592.66 0 .989.494.989 1.484V25h1.8v-3.451c0-.663.102-1.171.303-1.524.201-.352.535-.527 1.01-.527.66 0 .99.494.99 1.484V25H26v-4.482c0-.882-.194-1.52-.58-1.914-.378-.403-.94-.604-1.688-.604-.378 0-.747.079-1.109.238a1.79 1.79 0 0 0-.834.768h-.156a1.693 1.693 0 0 0-.783-.754c-.33-.168-.737-.252-1.22-.252zm11.571 0c-.476 0-.933.057-1.377.172a5.36 5.36 0 0 0-1.193.433l.601 1.247c.313-.14.624-.254.936-.344.312-.099.632-.149.96-.149.33 0 .584.082.765.246.188.165.285.424.285.778v.297l-1.172.035c-1.002.041-1.751.233-2.252.57-.501.338-.754.864-.754 1.58 0 .733.198 1.27.592 1.615.394.346.89.52 1.49.52.559 0 .998-.081 1.318-.246.32-.165.625-.427.913-.79h.048l.358.913H34v-4.494c0-.807-.242-1.402-.727-1.79-.476-.394-1.168-.593-2.072-.593zm8.375 0c-.463 0-.837.1-1.127.3-.29.202-.523.441-.695.718h-.084l-.246-.893H36V28h1.754v-2.766c0-.318-.033-.652-.096-1.004h.096c.172.227.397.433.672.618.274.176.642.261 1.105.261.722 0 1.315-.301 1.778-.904.462-.603.691-1.49.691-2.662 0-1.164-.22-2.044-.668-2.639-.447-.603-1.034-.904-1.756-.904zm-.564 1.496c.8 0 1.2.675 1.2 2.024 0 .67-.098 1.184-.294 1.544-.188.352-.483.528-.883.528-.486 0-.825-.176-1.014-.528-.18-.36-.267-.873-.267-1.535v-.2c.008-.612.103-1.069.29-1.37.19-.31.513-.463.968-.463zm-6.834 2.258v.557c0 .428-.135.759-.407.998-.27.23-.605.345-1 .345-.262 0-.476-.056-.64-.172-.164-.123-.246-.327-.246-.607 0-.321.117-.578.347-.775.23-.198.64-.304 1.23-.32z" opacity=".2"/>
    <path d="M14 16.973l-6 2.994v.867l6 2.646v-1.447L9.87 20.34 14 18.42v-1.447zm30 0v1.447l4.13 1.92L44 22.033v1.447l6-2.646v-.867l-6-2.994zM19.63 17c-.377 0-.743.079-1.097.238-.346.16-.62.415-.82.768h-.098l-.24-.881H16V24h1.797v-3.234c0-.73.094-1.29.28-1.676.192-.395.536-.592 1.034-.592.66 0 .989.494.989 1.484V24h1.8v-3.451c0-.663.102-1.171.303-1.524.201-.352.535-.527 1.01-.527.66 0 .99.494.99 1.484V24H26v-4.482c0-.882-.194-1.52-.58-1.914-.378-.403-.94-.604-1.688-.604-.378 0-.747.079-1.109.238a1.79 1.79 0 0 0-.834.768h-.156a1.693 1.693 0 0 0-.783-.754c-.33-.168-.737-.252-1.22-.252zm11.571 0c-.476 0-.933.057-1.377.172a5.36 5.36 0 0 0-1.193.433l.601 1.247c.313-.14.624-.254.936-.344.312-.099.632-.149.96-.149.33 0 .584.082.765.246.188.165.285.424.285.778v.297l-1.172.035c-1.002.041-1.751.233-2.252.57-.501.338-.754.864-.754 1.58 0 .733.198 1.27.592 1.615.394.346.89.52 1.49.52.559 0 .998-.081 1.318-.246.32-.165.625-.427.913-.79h.048l.358.913H34v-4.494c0-.807-.242-1.402-.727-1.79-.476-.394-1.168-.593-2.072-.593zm8.375 0c-.463 0-.837.1-1.127.3-.29.202-.523.441-.695.718h-.084l-.246-.893H36V27h1.754v-2.766c0-.318-.033-.652-.096-1.004h.096c.172.227.397.433.672.618.274.176.642.261 1.105.261.722 0 1.315-.301 1.778-.904.462-.603.691-1.49.691-2.662 0-1.164-.22-2.044-.668-2.639-.447-.603-1.034-.904-1.756-.904zm-.564 1.496c.8 0 1.2.675 1.2 2.024 0 .67-.098 1.184-.294 1.544-.188.352-.483.528-.883.528-.486 0-.825-.176-1.014-.528-.18-.36-.267-.873-.267-1.535v-.2c.008-.612.103-1.069.29-1.37.19-.31.513-.463.968-.463zm-6.834 2.258v.557c0 .428-.135.759-.407.998-.27.23-.605.345-1 .345-.262 0-.476-.056-.64-.172-.164-.123-.246-.327-.246-.607 0-.321.117-.578.347-.775.23-.198.64-.304 1.23-.32l.716-.026z" fill="#B7BB25"/>
    <path d="M30.957 29c-3.001 0-3.002 2-3.009 4-.02 1.237-.015 3.816.008 7.622.037 6.083.026 7.992-.047 8.254-2.074-.219-5.21-1.057-6.613-2.167-.917-.728-1.828-1.395-2.02-1.48-.806-.358-1.948-.133-2.603.515-.453.448-.621.848-.66 1.566-.031.55-.013.68.155 1.043.107.23.299.537.426.684.128.147 1.874 2.411 3.881 5.035 3.717 4.86 7.415 6.662 8.052 6.843.389.11 20.477.114 20.88.004.183-.05.448-.219.637-.406.265-.263.365-.455.57-1.09.59-1.819 1.178-4.585 1.345-6.121.072-1.786.034-1.854 0-3.301 0-.027-.007-.051-.008-.078.003-1.286.01-2.373 0-2.922.006-2 .01-4-2.986-4-2.703 0-2.954 1.638-2.985 3.426-.005.048-.02.096-.02.144.001-.483.006-1.275 0-1.57.006-2 .007-4-2.99-4-2.685 0-2.951 1.617-2.985 3.39l-.024.012-.004-.129c0-.36.005-1.034 0-1.273.006-2 .007-4-2.99-4-2.276 0-2.823 1.157-2.958 2.59l-.05.012c-.043.015-.008-2.43-.008-5.063 0-1.803.013-2.874 0-3.539.006-2 .007-4-2.994-4z" opacity=".2"/>
    <path d="M30.957 28c-3.001 0-3.002 2-3.009 4-.02 1.237-.015 3.816.008 7.622.037 6.083.026 7.992-.047 8.254-2.074-.219-5.21-1.057-6.613-2.167-.917-.728-1.828-1.395-2.02-1.48-.806-.358-1.948-.133-2.603.515-.453.448-.621.848-.66 1.566-.031.55-.013.68.155 1.043.107.23.299.537.426.684.128.147 1.874 2.411 3.881 5.035 3.717 4.86 7.415 6.662 8.052 6.843.389.11 20.477.114 20.88.004.183-.05.448-.219.637-.406.265-.263.365-.455.57-1.09.59-1.819 1.178-4.585 1.345-6.121.072-1.786.034-1.854 0-3.301 0-.027-.007-.051-.008-.078.003-1.286.01-2.373 0-2.922.006-2 .01-4-2.986-4-2.703 0-2.954 1.638-2.985 3.426-.005.048-.02.096-.02.144.001-.483.006-1.275 0-1.57.006-2 .007-4-2.99-4-2.685 0-2.951 1.617-2.985 3.39l-.024.012-.004-.129c0-.36.005-1.034 0-1.273.006-2 .007-4-2.99-4-2.276 0-2.823 1.157-2.958 2.59l-.05.012c-.043.015-.008-2.43-.008-5.063 0-1.803.013-2.874 0-3.539.006-2 .007-4-2.994-4z" fill="#F9F5D7"/>
    <path d="M32 4A28 28 0 0 0 4 32a28 28 0 0 0 .021.586A28 28 0 0 1 32 5a28 28 0 0 1 27.979 27.414A28 28 0 0 0 60 32 28 28 0 0 0 32 4z" opacity=".2" fill="#F9F5D7"/>
</svg>
