<svg xmlns="http://www.w3.org/2000/svg" width="64" height="64" version="1">
    <path d="M32 5C16.488 5 4 17.488 4 33s12.488 28 28 28 28-12.488 28-28S47.512 5 32 5z" opacity=".2"/>
    <path d="M32 4C16.488 4 4 16.488 4 32s12.488 28 28 28 28-12.488 28-28S47.512 4 32 4z" fill="#FECE4F"/>
    <path d="M32 9c13.37 0 24 10.63 24 24S45.37 57 32 57 8 46.37 8 33 18.63 9 32 9z" opacity=".2"/>
    <path d="M32 8c13.37 0 24 10.63 24 24S45.37 56 32 56 8 45.37 8 32 18.63 8 32 8z" fill="#B57514"/>
    <path d="M28 17c-1.662 0-3 1.19-3 2.667v26.664C25 47.81 26.338 49 28 49s3-1.19 3-2.668v-6.527l4.582 7.938c.739 1.279 2.494 1.643 3.934.812 1.439-.83 2.004-2.533 1.265-3.812l-6.77-11.727 6.77-11.723c.739-1.279.174-2.977-1.265-3.808a3.268 3.268 0 0 0-1.684-.446c-.93.016-1.788.455-2.25 1.254L31 26.23v-6.563C31 18.19 29.662 17 28 17z" opacity=".2"/>
    <path d="M28 16c-1.662 0-3 1.19-3 2.668v26.664C25 46.809 26.338 48 28 48s3-1.19 3-2.668v-6.527l4.582 7.937c.739 1.28 2.494 1.644 3.934.813 1.439-.831 2.004-2.533 1.265-3.813l-6.77-11.726 6.77-11.723c.739-1.28.174-2.978-1.265-3.809a3.268 3.268 0 0 0-1.684-.445c-.93.015-1.788.454-2.25 1.254L31 25.23v-6.562C31 17.191 29.662 16 28 16z" fill="#FECE4F"/>
    <path d="M32 4C16.488 4 4 16.488 4 32c0 .113.011.224.018.336C4.369 17.134 16.71 5 32 5s27.63 12.134 27.982 27.336c.007-.112.018-.223.018-.336C60 16.488 47.512 4 32 4z" opacity=".2" fill="#F9F5D7"/>
</svg>
