<svg xmlns="http://www.w3.org/2000/svg" width="64" height="64" version="1">
    <path d="M6.8 8A2.783 2.783 0 0 0 4 10.778v44.444A2.783 2.783 0 0 0 6.8 58h50.4c1.551 0 2.8-1.239 2.8-2.778V10.778A2.783 2.783 0 0 0 57.2 8H6.8z" opacity=".2"/>
    <path d="M6.8 7A2.783 2.783 0 0 0 4 9.778v44.444A2.783 2.783 0 0 0 6.8 57h50.4c1.551 0 2.8-1.239 2.8-2.778V9.778A2.783 2.783 0 0 0 57.2 7H6.8z" fill="#F9F5D7"/>
    <path fill="#504945" d="M8 11h48v42H8z"/>
    <path d="M8 31s4.235-5 9.882-5c5.647 0 10.057 4.1 15.53 4 5.473-.1 9.882-10 14.117-10C51.765 20 56 22.6 56 22.6V52H8z" opacity=".1"/>
    <path d="M8 32s4.235-5 9.882-5c5.647 0 10.057 4.1 15.53 4 5.473-.1 9.882-10 14.117-10C51.765 21 56 23.6 56 23.6V53H8z" fill="#8F3F71"/>
    <path d="M8 36.6s1.412 5.6 4.235 5.6c2.824 0 7.06-6.2 12.706-6.2 5.647 0 14.118 6.2 18.353 6.2C47.53 42.2 56 36.6 56 36.6V52H8z" opacity=".1"/>
    <path d="M8 37.6s1.412 5.6 4.235 5.6c2.824 0 7.06-6.2 12.706-6.2 5.647 0 14.118 6.2 18.353 6.2C47.53 43.2 56 37.6 56 37.6V53H8z" fill="#73C48F"/>
    <path d="M47.531 21c-4.235 0-8.648 9.9-14.12 10-5.474.1-9.881-4-15.528-4S8 32 8 32v1s4.236-5 9.883-5c5.647 0 10.054 4.1 15.527 4 5.473-.1 9.886-10 14.121-10C51.767 22 56 24.602 56 24.602v-1S51.767 21 47.531 21zM24.941 37c-5.647 0-9.883 6.2-12.707 6.2C9.411 43.2 8 37.601 8 37.601v1s1.41 5.597 4.234 5.597S19.294 38 24.941 38c5.647 0 14.117 6.2 18.352 6.2C47.528 44.2 56 38.601 56 38.601v-1s-8.472 5.597-12.707 5.597C39.058 43.2 30.588 37 24.941 37zM6.8 7A2.783 2.783 0 0 0 4 9.777v1A2.783 2.783 0 0 1 6.8 8h50.4c1.55 0 2.8 1.238 2.8 2.777v-1A2.783 2.783 0 0 0 57.2 7H6.8z" opacity=".1" fill="#F9F5D7"/>
</svg>
