<svg xmlns="http://www.w3.org/2000/svg" width="64" height="64" version="1">
    <path d="M25 5C14.05 5 5 14.05 5 25c0 9.04 6.28 16.467 14.594 18.895C21.07 53.444 29.072 61 39 61c10.95 0 19.998-9.047 20-19.996V41c0-.787-.142-1.564-.234-2.344.066-.544.232-1.075.234-1.625a8 8 0 0 0 0-.035c-.004-6.219-4.31-11.443-10.11-13.187-1.293-.744-2.598-1.478-4.015-1.914.02-.291.124-.572.125-.864a8 8 0 0 0 0-.035c-.004-6.219-4.309-11.443-10.11-13.187C31.872 6.072 28.508 5.004 25.009 5A8 8 0 0 0 25 5z" opacity=".2"/>
    <path d="M25 4C14.05 4 5 13.05 5 24c0 9.04 6.28 16.467 14.594 18.895C21.07 52.444 29.072 60 39 60c10.95 0 19.998-9.047 20-19.996V40c0-.787-.142-1.564-.234-2.344.066-.544.232-1.075.234-1.625a8 8 0 0 0 0-.035c-.004-6.219-4.31-11.443-10.11-13.187-1.293-.744-2.598-1.478-4.015-1.914.02-.291.124-.572.125-.864a8 8 0 0 0 0-.035c-.004-6.219-4.309-11.443-10.11-13.187C31.872 5.072 28.508 4.004 25.009 4A8 8 0 0 0 25 4z" fill="#A04A73"/>
    <path d="M25 13a12 12 0 0 0-12 12 12 12 0 0 0 12 12 12 12 0 0 0 12-12 12 12 0 0 0-12-12zm1 2a9 9 0 0 1 9 9 9 9 0 0 1-9 9 9 9 0 0 1-9-9 9 9 0 0 1 9-9z" opacity=".2"/>
    <path d="M39 29a12 12 0 0 0-12 12 12 12 0 0 0 12 12 12 12 0 0 0 12-12 12 12 0 0 0-12-12zm1 2a9 9 0 0 1 9 9 9 9 0 0 1-9 9 9 9 0 0 1-9-9 9 9 0 0 1 9-9z" opacity=".2"/>
    <path d="M39 28a12 12 0 0 0-12 12 12 12 0 0 0 12 12 12 12 0 0 0 12-12 12 12 0 0 0-12-12zm1 2a9 9 0 0 1 9 9 9 9 0 0 1-9 9 9 9 0 0 1-9-9 9 9 0 0 1 9-9z" fill="#CB8819"/>
    <circle cx="45" cy="37" r="6" opacity=".2"/>
    <circle cx="45" cy="36" r="6" fill="#E6D3A3"/>
    <path d="M25 12a12 12 0 0 0-12 12 12 12 0 0 0 12 12 12 12 0 0 0 12-12 12 12 0 0 0-12-12zm1 2a9 9 0 0 1 9 9 9 9 0 0 1-9 9 9 9 0 0 1-9-9 9 9 0 0 1 9-9z" fill="#CB8819"/>
    <circle cx="31" cy="21" r="6" opacity=".2"/>
    <circle cx="31" cy="20" r="6" fill="#E6D3A3"/>
    <path d="M25 4C14.05 4 5 13.05 5 24c0 .123.013.243.016.365C5.358 13.702 14.262 5 25 5a8 8 0 0 1 .008 0c3.499.004 6.863 1.072 9.883 2.809 5.573 1.676 9.755 6.568 10.078 12.464.012-.08.03-.16.031-.242a8 8 0 0 0 0-.035c-.004-6.219-4.309-11.443-10.11-13.187C31.872 5.072 28.508 4.004 25.009 4A8 8 0 0 0 25 4zm19.998 16.94l.002.056a8 8 0 0 1 0 .035c-.001.292-.106.573-.125.864 1.417.436 2.722 1.17 4.016 1.914 5.581 1.678 9.765 6.582 10.078 12.49.008-.09.03-.177.031-.268a8 8 0 0 0 0-.035c-.004-6.219-4.309-11.443-10.11-13.187-1.255-.722-2.523-1.429-3.892-1.87zM58.84 38.226c-.027.143-.057.285-.074.43.081.688.187 1.375.214 2.068.01-.24.02-.48.02-.721V40c0-.595-.08-1.184-.16-1.773z" opacity=".1" fill="#F9F5D7"/>
</svg>
