<svg xmlns="http://www.w3.org/2000/svg" width="64" height="64" version="1">
    <rect width="56" height="56" x="4" y="5" rx="2.8" ry="2.8" opacity=".2"/>
    <rect width="56" height="56" x="4" y="4" rx="2.8" ry="2.8" fill="#417B58"/>
    <path d="M16 4v12H4v3h12v11H4v3h12v27h3V33h12v27h3V33h11v27h3V33h12v-3H48V19h12v-3H48V4h-3v12H34V4h-3v12H19V4zm3 15h12v11H19zm15 0h11v11H34z" opacity=".4" fill="#F9F5D7"/>
    <path d="M48.1 11.28c-1.978 0-4.245 1.596-6.707 4.679-2.463 3.082-4.962 7.4-7.547 11.787-2.585 4.388-5.257 8.85-8.313 12.346-3.056 3.497-6.665 6.188-11.033 6.188-4.039 0-7.263-3.063-9.887-5.764-.222-.228-.402-.444-.613-.67V57.2C4 58.751 5.249 60 6.8 60h50.4c1.551 0 2.8-1.249 2.8-2.8V19.051a47.483 47.483 0 0 0-3.508-3.32c-2.767-2.354-6.345-4.451-8.392-4.451z" fill="#7CB668"/>
    <path d="M48 10c-4.122 0-7.397 2.667-10.098 6.068-2.7 3.401-5.03 7.718-7.398 11.955-2.368 4.237-4.773 8.39-7.356 11.35C20.566 42.333 17.994 44 15 44c-2.643 0-5.553-1.87-7.75-3.951-1.816-1.72-2.866-3.163-3.25-3.707v6.115c.166.165.325.329.5.494C7.053 45.37 10.643 48 15 48c4.506 0 8.184-2.583 11.164-5.998 2.98-3.415 5.45-7.762 7.832-12.025 2.382-4.263 4.677-8.446 7.04-11.42C43.395 15.583 45.621 14 48 14c2.643 0 6.173 1.946 8.893 4.074A39.37 39.37 0 0 1 60 20.794v-5.33c-.223-.181-.408-.355-.643-.538C56.327 12.554 52.357 10 48 10z" fill="#F9F5D7"/>
    <circle cx="15" cy="47" r="5" opacity=".2"/>
    <circle cx="15" cy="46" r="5" fill="#F9F5D7"/>
    <circle cx="48" cy="13" r="5" opacity=".2"/>
    <circle cx="48" cy="12" r="5" fill="#F9F5D7"/>
    <path d="M54 32H40.4l8 10.5-8 10.5H54" opacity=".2" fill="none" stroke="#151819" stroke-width="4" stroke-linejoin="bevel"/>
    <path d="M54 31H40.4l8 10.5-8 10.5H54" fill="none" stroke="#F9F5D7" stroke-width="4" stroke-linejoin="bevel"/>
    <path d="M6.8 4C5.25 4 4 5.25 4 6.8v1C4 6.25 5.25 5 6.8 5h50.4C58.75 5 60 6.25 60 7.8v-1C60 5.25 58.75 4 57.2 4H6.8z" fill="#F9F5D7" opacity=".1"/>
</svg>
