<svg xmlns="http://www.w3.org/2000/svg" width="64" height="64" version="1">
    <path d="M13.956 5s-2.742.19-4.2 1.649l-3.921 3.92C3.99 11.98 4 14.8 4 14.957v36.088c0 .156-.01 2.976 1.835 4.386l3.92 3.921c1.46 1.459 4.2 1.649 4.2 1.649h36.089s2.742-.19 4.2-1.649l3.921-3.92C60.01 54.02 60 51.2 60 51.043V14.956c0-.156.01-2.976-1.835-4.386l-3.92-3.921C52.784 5.19 50.044 5 50.044 5H32z" opacity=".2"/>
    <path d="M13.956 4s-2.742.19-4.2 1.649l-3.921 3.92C3.99 10.98 4 13.8 4 13.957v36.088c0 .156-.01 2.976 1.835 4.386l3.92 3.921c1.46 1.459 4.2 1.649 4.2 1.649h36.089s2.742-.19 4.2-1.649l3.921-3.92C60.01 53.02 60 50.2 60 50.043V13.956c0-.156.01-2.976-1.835-4.386l-3.92-3.921C52.784 4.19 50.044 4 50.044 4H32z" fill="#3A393A"/>
    <path d="M4 15.2V44h19v16H50.044s2.742-.19 4.2-1.649l.156-.156V50.2L36 49v-7l-1.2 1.2v-9.8L18 32.2V14z" fill="#CB241D"/>
    <path d="M10.613 5.012a4.242 4.242 0 0 0-.855.636L5.836 9.57C3.99 10.98 4 13.801 4 13.957v1.242L16 26v8h10.668L34 42v8h10.668l8.719 8.988c.308-.182.603-.384.855-.636l3.922-3.922C60.01 53.02 60 50.199 60 50.043v-1.242L52.668 42H42v-8l-7.332-8H24v-8z" fill="#F9F5D7"/>
    <path d="M42 34l-8 8v8l8-8z" fill="#BDAD93"/>
    <path d="M34.667 26l-8 8L34 42l8-8z" fill="#F9F5D7"/>
    <path d="M26.667 34l8-8H24l-8 8z" fill="#83A498"/>
    <path d="M10.612 5.012a4.247 4.247 0 0 0-.856.637l-3.921 3.92C3.99 10.98 4 13.8 4 13.957V15.2L16 26l8-8zM52.667 42l-8 8 8.721 8.988c.308-.182.604-.385.856-.637l3.921-3.92C60.01 53.02 60 50.2 60 50.043V48.8z" fill="#F9F5D7"/>
    <path d="M24 18l-8 8v8l8-8z" fill="#BDAD93"/>
    <path d="M44.667 50l8-8H42l-8 8z" fill="#83A498"/>
    <path opacity=".2" d="M4 44h19v1H4z"/>
    <path d="M13.957 4s-2.74.19-4.2 1.648L5.837 9.57C3.99 10.98 4 13.801 4 13.957v1c0-.156-.009-2.977 1.836-4.387l3.922-3.922C11.216 5.19 13.957 5 13.957 5h36.086s2.74.19 4.2 1.648l3.921 3.922C60.01 11.98 60 14.801 60 14.957v-1c0-.156.009-2.977-1.836-4.387l-3.922-3.922C52.784 4.19 50.043 4 50.043 4H13.957z" opacity=".1" fill="#F9F5D7"/>
    <path d="M4 15.2v1L16 27v-1L4 15.2zM16 34v1h10.666L34 43v-1l-7.334-8H16zm18 16v1h10.666l8.723 8.988c.308-.182.603-.384.855-.636l3.922-3.922C60.011 54.02 60 51.2 60 51.045v-1c0 .155.01 2.975-1.834 4.385l-3.922 3.922a4.243 4.243 0 0 1-.855.636L44.666 50H34z" opacity=".2"/>
    <path d="M10.611 5.012a4.242 4.242 0 0 0-.855.636L5.834 9.57C3.989 10.98 4 13.8 4 13.955v1c0-.155-.01-2.975 1.834-4.385l3.922-3.922c.252-.252.547-.454.855-.636L24 19v-1L10.611 5.012zM24 26v1h10.666L42 35v-1l-7.334-8H24zm18 16v1h10.666L60 49.8v-1L52.666 42H42z" opacity=".2" fill="#F9F5D7"/>
</svg>
