<svg xmlns="http://www.w3.org/2000/svg" width="64" height="64" version="1">
    <g fill="#928274">
        <path d="M58 40v2H6v-2zM58 46v2H6v-2zM58 52v2H6v-2zM58 22v2H6v-2zM58 28v2H6v-2zM58 34v2H6v-2zM58 16v2H6v-2zM58 10v2H6v-2z"/>
        <path d="M24 58h-2V6h2zM18 58h-2V6h2zM12 58h-2V6h2zM42 58h-2V6h2zM36 58h-2V6h2zM30 58h-2V6h2zM48 58h-2V6h2zM54 58h-2V6h2z"/>
    </g>
    <rect width="48" height="48" x="-57" y="-56" rx="2.5" ry="2.5" transform="matrix(0 -1 -1 0 0 0)" opacity=".2"/>
    <rect width="48" height="48" x="-56" y="-56" rx="2.5" ry="2.5" transform="matrix(0 -1 -1 0 0 0)" fill="#BDAD93"/>
    <path d="M10.5 8A2.495 2.495 0 0 0 8 10.5v1C8 10.115 9.115 9 10.5 9h43c1.385 0 2.5 1.115 2.5 2.5v-1C56 9.115 54.885 8 53.5 8h-43z" fill="#F9F5D7" opacity=".2"/>
    <path opacity=".5" d="M14 23h12v2H14zM28 23h6v2h-6zM36 23h14v2H36zM14 31h16v2H14zM32 31h16v2H32zM14 39h6v2h-6zM22 39h6v2h-6zM30 39h12v2H30z"/>
</svg>
