<svg xmlns="http://www.w3.org/2000/svg" width="64" height="64" version="1">
    <path d="M4 14v41.222A2.781 2.781 0 0 0 6.8 58h50.401A2.78 2.78 0 0 0 60 55.222V14z" opacity=".2"/>
    <rect width="44.8" height="5.6" x="9.6" y="42.1" rx="2.133" ry="2.322" opacity=".2"/>
    <path d="M4 13v41.222A2.781 2.781 0 0 0 6.8 57h50.401A2.78 2.78 0 0 0 60 54.222V13z" fill="#BDAD93"/>
    <path d="M6.8 7A2.782 2.782 0 0 0 4 9.777V13h56V9.777A2.781 2.781 0 0 0 57.2 7z" fill="#665C54"/>
    <rect width="44" height="6" x="10" y="42" rx="2.095" ry="2.488" opacity=".2"/>
    <rect width="44" height="6" x="10" y="41" rx="2.095" ry="2.488" fill="#F9F5D7"/>
    <path d="M48 45c0 3.864-3.136 7-7 7s-7-3.136-7-7 3.136-7 7-7 7 3.136 7 7z" opacity=".1" fill-rule="evenodd"/>
    <path d="M48 44c0 3.864-3.136 7-7 7s-7-3.136-7-7 3.136-7 7-7 7 3.136 7 7z" fill="#066678" fill-rule="evenodd"/>
    <circle cx="13" cy="23" r="3" opacity=".2"/>
    <circle cx="13" cy="22" r="3" fill="#F9F5D7"/>
    <rect width="6" height="6" x="22" y="30" rx=".944" ry="1.031" opacity=".1"/>
    <rect width="6" height="6" x="22" y="29" rx=".944" ry="1.031" fill="#066678"/>
    <circle cx="13" cy="33" r="3" opacity=".1"/>
    <circle cx="13" cy="32" r="3" fill="#066678"/>
    <rect width="6" height="6" x="22" y="20" rx=".944" ry="1.031" opacity=".2"/>
    <rect width="6" height="6" x="22" y="19" rx=".944" ry="1.031" fill="#F9F5D7"/>
    <path d="M6.8 7A2.782 2.782 0 0 0 4 9.777v1A2.782 2.782 0 0 1 6.8 8h50.4c1.552 0 2.8 1.238 2.8 2.777v-1A2.782 2.782 0 0 0 57.2 7H6.8z" opacity=".1" fill="#F9F5D7"/>
</svg>
