<svg xmlns="http://www.w3.org/2000/svg" width="64" height="64" version="1">
    <rect width="52" height="52" x="1" y="7" rx="6.118" ry="6.118" opacity=".2"/>
    <path d="M53 18.857L63 11v44l-10-7.857z" opacity=".2"/>
    <rect width="52" height="52" x="1" y="6" rx="6.118" ry="6.118" fill="#8F3F71"/>
    <path fill="none" d="M7.2 6.83h49.6v49.6H7.2z"/>
    <path d="M53 17.857L63 10v44l-10-7.857z" fill="#066678"/>
    <path d="M13 16v34h18.668C36.823 50 41 45.098 41 40c0-2.594-1.09-5.127-2.832-7C39.91 31.127 41 28.594 41 26c0-5.098-4.177-10-9.332-10zm6 6h12.668C33.46 22 35 24.228 35 26c0 1.772-1.54 4.022-3.332 4H19zm0 14h12.668C33.46 36 35 38.228 35 40c0 1.772-1.54 4.022-3.332 4H19z" opacity=".2"/>
    <path d="M13 29v20h18.667C36.82 49 41 44.098 41 39s-4.179-10-9.333-10zm6 6h12.667C33.459 35 35 37.228 35 39c0 1.772-1.542 4.022-3.333 4H19z" fill="#F9F5D7"/>
    <path d="M13 15v20h18.667C36.82 35 41 30.098 41 25s-4.179-10-9.333-10zm6 6h12.667C33.459 21 35 23.228 35 25c0 1.772-1.542 4.022-3.333 4H19z" fill="#F9F5D7"/>
    <path d="M7.117 6A6.103 6.103 0 0 0 1 12.117v1A6.103 6.103 0 0 1 7.117 7h39.766A6.103 6.103 0 0 1 53 13.117v-1A6.103 6.103 0 0 0 46.883 6H7.117zM63 10.002l-10 7.855v1l10-7.855v-1z" opacity=".1" fill="#F9F5D7"/>
</svg>
