<svg xmlns="http://www.w3.org/2000/svg" width="64" height="64" version="1">
    <path d="M4.05 32c-.011.334-.05.662-.05 1 0 15.512 12.488 28 28 28s28-12.488 28-28c0-.338-.039-.665-.05-1C59.42 47.042 47.172 59 32 59 16.824 59 4.576 47.042 4.05 32z" opacity=".2"/>
    <rect width="56" height="56" x="4" y="4" rx="28" ry="28" fill="#504945"/>
    <g transform="matrix(2 0 0 2 0 1)" opacity=".2">
        <path d="M10.016 13.09A6 6 0 0 0 5 19a6 6 0 0 0 6 6 6 6 0 0 0 4.773-2.371 8 8 0 0 1-2.808-1.369A3 3 0 0 1 11 22a3 3 0 0 1-3-3 3 3 0 0 1 1.91-2.795A8 8 0 0 1 9.8 14.9a8 8 0 0 1 .216-1.81zM16 5a6 6 0 0 0-6 6 6 6 0 0 0 .338 1.957 8 8 0 0 1 2.672-1.772A3 3 0 0 1 13 11a3 3 0 0 1 3-3 3 3 0 0 1 3 3 3 3 0 0 1-.01.187 8 8 0 0 1 2.674 1.768A6 6 0 0 0 22 11a6 6 0 0 0-6-6z"/>
        <circle cx="16" cy="11" r="2"/>
        <circle cx="11" cy="19" r="2"/>
    </g>
    <path d="M32 4C16.488 4 4 16.488 4 32c0 .114.011.224.018.336C4.369 17.134 16.71 5 32 5c15.288 0 27.63 12.132 27.984 27.332.007-.11.016-.22.016-.332C60 16.488 47.512 4 32 4z" opacity=".1" fill="#F9F5D7"/>
    <path d="M20.032 26.18A12 12 0 0 0 10 38a12 12 0 0 0 12 12 12 12 0 0 0 9.546-4.742 16 16 0 0 1-5.616-2.738A6 6 0 0 1 22 44a6 6 0 0 1-6-6 6 6 0 0 1 3.82-5.59 16 16 0 0 1-.218-2.61 16 16 0 0 1 .43-3.62z" fill="#C77089"/>
    <path d="M32 10a12 12 0 0 0-12 12 12 12 0 0 0 .676 3.914 16 16 0 0 1 5.344-3.542A6 6 0 0 1 26 22a6 6 0 0 1 6-6 6 6 0 0 1 6 6 6 6 0 0 1-.02.376 16 16 0 0 1 5.348 3.534A12 12 0 0 0 44 22a12 12 0 0 0-12-12z" fill="#7CB668"/>
    <circle cx="32" cy="22" r="4" fill="#8DC07B"/>
    <circle cx="22" cy="38" r="4" fill="#D3869B"/>
    <path d="M63.958 41.848A16 16 0 0 1 48 57a16 16 0 0 1-15.958-14.848A16 16 0 0 0 32 43a16 16 0 0 0 16 16 16 16 0 0 0 16-16 16 16 0 0 0-.043-1.152z" opacity=".2"/>
    <circle cx="48" cy="42" r="16" fill="#48B9C7"/>
    <circle cx="48" cy="38" r="8" fill="#F9F5D7"/>
    <path fill="#F9F5D7" d="M44 40h8v8h-8zM44 50h8v2h-8z"/>
</svg>
