<svg xmlns="http://www.w3.org/2000/svg" width="64" height="64" viewBox="0 0 16.93 16.93">
    <path d="M5.385 8.996c-.785 0-1.416.634-1.416 1.42v5.724h8.996v-5.723c0-.787-.632-1.421-1.417-1.421H5.385z" opacity=".2" fill-rule="evenodd"/>
    <path d="M6.615 5.744V1.058l3.704 1.456V5.82z" fill="#504945"/>
    <path fill="#A79984" d="M6.35 4.763h4.233v1.852H6.35z"/>
    <path fill="#A79984" d="M5.56 5.823h5.821v6.615H5.56z"/>
    <path d="M5.385 8.731c-.785 0-1.416.634-1.416 1.421v5.723h8.996v-5.723c0-.787-.632-1.42-1.417-1.42H5.385z" fill="#F9F5D7" fill-rule="evenodd"/>
    <path d="M6.615 1.058v.265l3.704 1.455v-.264L6.615 1.058z" fill="#F9F5D7" opacity=".1"/>
    <path d="M6.35 4.762v.265h4.233v-.265H6.35zM5.556 5.82v.265h5.821v-.264h-5.82z" fill="#F9F5D7" opacity=".2"/>
    <path d="M5.385 8.731c-.785 0-1.416.634-1.416 1.421v.265c0-.787.631-1.421 1.416-1.421h6.163c.785 0 1.417.634 1.417 1.42v-.264c0-.787-.632-1.42-1.417-1.42H5.385z" opacity=".2" fill="#F9F5D7" fill-rule="evenodd"/>
    <path d="M6.35 4.498v.265h4.233v-.265H6.35zM5.556 5.556v.265h5.821v-.265h-5.82z" opacity=".2"/>
</svg>
