<svg xmlns="http://www.w3.org/2000/svg" width="64" height="64">
    <g transform="translate(0 -988.362)">
        <rect width="56" height="50" x="4" y="996.36" rx="3.409" ry="3.303" opacity=".2"/>
        <rect width="56" height="50" x="4" y="995.36" rx="3.409" ry="3.303" fill="#48B9C7"/>
        <path d="M41.793 1007.564c-.358.02-.704.174-.975.447a1038.898 1038.898 0 0 1-9.054 9.058l7.483 7.46-8.946 9.083c-.002-.001-.016-.02-.018-.02v-.034c-3.658-3.472-7.27-7.018-10.925-10.532l-.034-.032-.039-.03c-1.81-1.51-2.856-3.962-2.48-6.235l.004-.022.005-.022c.393-3.003 3.396-5.637 6.422-5.573.587-.02 1.179.124 1.628.218 1.43.307 2.758 1.597 3.984 2.84h-.005l.67.664 1.742 1.734 3.513-3.513c.539-.54.837-1.572 0-2.4-.429-.429-.9-.562-1.33-.52-.43.042-.818.255-1.08.52l-1.633 1.632c-1.265-1.26-3.223-3.164-5.272-3.61a8.997 8.997 0 0 0-2.24-.285h-.033c-4.536-.09-8.47 3.476-9.066 7.9-.547 3.345.915 6.67 3.424 8.761l-.073-.062c3.667 3.525 7.615 7.322 11.322 10.84.522.454.947.53 1.497.53.423.02.905-.134 1.398-.612l8.276-8.295s5.543-5.525 8.279-8.242c.584-.584.625-1.402.042-1.985-.584-.584-1.419-.565-2.002.02l-5.914 5.914c-.155.032-.482-.308-.466-.5l8.736-8.74c.584-.584.628-1.418.042-2.002-.583-.583-1.362-.502-1.946.078l-6.919 6.922c-.18.03-.575-.31-.525-.541l8.19-8.193c.47-.502.75-1.395.148-2.024-.584-.584-1.48-.545-2.064.042l-8.449 8.452c-.202 0-.512-.284-.508-.494l6.185-6.178c.583-.583.689-1.398.053-2.002-.318-.302-.69-.432-1.047-.419z" opacity=".2"/>
        <path d="M41.793 1006.564c-.358.02-.704.174-.975.447a1038.898 1038.898 0 0 1-9.054 9.058l7.483 7.46-8.946 9.083c-.002-.001-.016-.02-.018-.02v-.034c-3.658-3.472-7.27-7.018-10.925-10.532l-.034-.032-.039-.03c-1.81-1.51-2.856-3.962-2.48-6.235l.004-.022.005-.022c.393-3.003 3.396-5.637 6.422-5.573.587-.02 1.179.124 1.628.218 1.43.307 2.758 1.597 3.984 2.84h-.005l.67.664 1.742 1.734 3.513-3.513c.539-.54.837-1.572 0-2.4-.429-.429-.9-.562-1.33-.52-.43.042-.818.255-1.08.52l-1.633 1.632c-1.265-1.26-3.223-3.164-5.272-3.61a8.997 8.997 0 0 0-2.24-.285h-.033c-4.536-.09-8.47 3.476-9.066 7.9-.547 3.345.915 6.67 3.424 8.761l-.073-.062c3.667 3.525 7.615 7.322 11.322 10.84.522.454.947.53 1.497.53.423.02.905-.134 1.398-.612l8.276-8.295s5.543-5.525 8.279-8.242c.584-.584.625-1.402.042-1.985-.584-.584-1.419-.565-2.002.02l-5.914 5.914c-.155.032-.482-.308-.466-.5l8.736-8.74c.584-.584.628-1.418.042-2.002-.583-.583-1.362-.502-1.946.078l-6.919 6.922c-.18.03-.575-.31-.525-.541l8.19-8.193c.47-.502.75-1.395.148-2.024-.584-.584-1.48-.545-2.064.042l-8.449 8.452c-.202 0-.512-.284-.508-.494l6.185-6.178c.583-.583.689-1.398.053-2.002-.318-.302-.69-.432-1.047-.419z" fill="#F9F5D7"/>
        <path d="M7.41 995.362c-1.888 0-3.41 1.475-3.41 3.305v1c0-1.83 1.522-3.305 3.41-3.305h49.18c1.888 0 3.41 1.475 3.41 3.305v-1c0-1.83-1.522-3.305-3.41-3.305H7.41z" opacity=".2" fill="#F9F5D7"/>
    </g>
</svg>
