<svg xmlns="http://www.w3.org/2000/svg" width="64" height="64" version="1">
    <path d="M4.05 32c-.011.334-.05.662-.05 1 0 15.512 12.488 28 28 28 15.511 0 28-12.488 28-28 0-.338-.04-.666-.05-1C59.42 47.042 47.172 59 32 59 16.825 59 4.578 47.042 4.05 32z" opacity=".2"/>
    <rect width="56" height="56" x="4" y="4" rx="28" ry="28" fill="#C77089"/>
    <path d="M32 4C16.488 4 4 16.488 4 32c0 .114.011.224.018.336C4.369 17.134 16.71 5 32 5c15.29 0 27.63 12.134 27.982 27.336.007-.112.018-.222.018-.336C60 16.488 47.512 4 32 4z" opacity=".2" fill="#F9F5D7"/>
    <path d="M18.015 49.282c.106-1.044.73-3.303 2.277-8.252 2.619-8.375 4.261-17.893 3.565-20.66-.173-.688-.192-1.04-.065-1.2.396-.494 1.987-1.03 3.296-1.113 2.704-.056 2.57.944 2.48 3.122-.079 1.952-.595 5.622-1.074 8.083-.149.764-.228 1.503-.177 1.643.079.21.805.253 4.26.25 2.292 0 4.258-.062 4.37-.136.35-.23.555-1.008 2.039-7.743.794-3.603 1.58-6.79 1.745-7.082.379-.667 1.31-1.193 2.112-1.193.82 0 2.263.455 2.758.87l.398.334-.38 1.129c-.872 2.586-3.29 14.12-4.24 20.216-.25 1.611-.605 3.704-.787 4.65-.395 2.052-.406 2.835-.05 3.784.562 1.5.535 1.647-.38 2.065-.452.208-1.49.494-2.305.636-2.758.481-3.6-.132-3.6-2.624-.002-1.677.154-2.572 1.211-6.975.466-1.938.846-3.68.846-3.872 0-.325-.082-.34-1.19-.228-.654.067-2.655.132-4.446.144-1.791.013-3.309.077-3.373.143-.064.066-.418 1.465-.787 3.107a189.328 189.328 0 0 1-1.473 6.006c-.442 1.66-.837 3.513-.878 4.118-.048.72-.17 1.19-.354 1.359-.417.383-2.477.99-3.775 1.112-1.583.167-2.14-.528-2.024-1.693z" opacity=".2"/>
    <path d="M18.015 48.282c.106-1.044.73-3.303 2.277-8.252 2.619-8.375 4.261-17.893 3.565-20.66-.173-.688-.192-1.04-.065-1.2.396-.494 1.987-1.03 3.296-1.113 2.704-.056 2.57.944 2.48 3.122-.079 1.952-.595 5.622-1.074 8.083-.149.764-.228 1.503-.177 1.643.079.21.805.253 4.26.25 2.292 0 4.258-.062 4.37-.136.35-.23.555-1.008 2.039-7.743.794-3.603 1.58-6.79 1.745-7.082.379-.667 1.31-1.193 2.112-1.193.82 0 2.263.455 2.758.87l.398.334-.38 1.13c-.872 2.585-3.29 14.119-4.24 20.215a168.68 168.68 0 0 1-.787 4.65c-.395 2.052-.406 2.835-.05 3.784.562 1.5.535 1.647-.38 2.065-.452.208-1.49.494-2.305.636-2.758.481-3.6-.132-3.6-2.624-.002-1.677.154-2.572 1.211-6.975.466-1.938.846-3.68.846-3.872 0-.325-.082-.34-1.19-.228-.654.067-2.655.132-4.446.144-1.791.013-3.309.077-3.373.143-.064.066-.418 1.465-.787 3.107a189.327 189.327 0 0 1-1.473 6.006c-.442 1.66-.837 3.513-.878 4.118-.048.72-.17 1.19-.354 1.359-.417.383-2.477.99-3.775 1.112-1.583.167-2.14-.528-2.024-1.692z" fill="#F9F5D7"/>
</svg>
