<svg xmlns="http://www.w3.org/2000/svg" width="64" height="64" version="1">
    <path d="M31.784 5l-.002.006C16.372 5.123 4 17.56 4 33c0 15.512 12.488 28 28 28 14.952 0 27.091-11.605 27.948-26.335l.052-.05V10.6C60 7.498 57.502 5 54.4 5H31.784z" opacity=".2"/>
    <path d="M31.784 4l-.002.006C16.372 4.123 4 16.56 4 32c0 15.512 12.488 28 28 28 14.952 0 27.091-11.605 27.948-26.335l.052-.05V9.6C60 6.498 57.502 4 54.4 4H31.784z" fill="#48B9C7"/>
    <path d="M36 17l-4.84 32h4.043l4.84-32zM29.156 17l-4.84 32h4.043l4.84-32z" opacity=".2"/>
    <path d="M36 16l-4.84 32h4.043l4.84-32zM29.156 16l-4.84 32h4.043l4.84-32z" fill="#F9F5D7"/>
    <path d="M23.332 25l-.602 4h19.614l.605-4z" opacity=".2"/>
    <path d="M23.332 24l-.602 4h19.614l.605-4z" fill="#F9F5D7"/>
    <path d="M21.82 35l-.605 4h19.617l.605-4z" opacity=".2"/>
    <path d="M21.82 34l-.605 4h19.617l.605-4z" fill="#F9F5D7"/>
    <path d="M31.785 4l-.004.004C16.371 4.12 4 16.56 4 32c0 .11.01.218.016.326C4.37 17.202 16.597 5.12 31.78 5.004L31.785 5h22.613A5.59 5.59 0 0 1 60 10.602v-1A5.59 5.59 0 0 0 54.398 4H31.785z" opacity=".2" fill="#F9F5D7"/>
</svg>
