<svg xmlns="http://www.w3.org/2000/svg" width="64" height="64" version="1">
    <rect width="56" height="48" x="4" y="9" rx="4" ry="4" opacity=".2"/>
    <rect width="56" height="48" x="4" y="8" rx="4" ry="4" fill="#7F7061"/>
    <path d="M24 21a6 6 0 1 0 0 12 6 6 0 0 0 0-12zm20 0a4 4 0 1 0 0 8 4 4 0 0 0 0-8zm0 10c-8 .005-8 6.4-8 6.4V39h16v-1.598s0-6.406-8-6.402zm-20 5c-12 .007-12 8.334-12 8.334V46h24v-1.666s0-8.34-12-8.334z" opacity=".2"/>
    <path d="M24 20a6 6 0 1 0 0 12 6 6 0 0 0 0-12zm20 0a4 4 0 1 0 0 8 4 4 0 0 0 0-8zm0 10c-8 .005-8 6.4-8 6.4V38h16v-1.598s0-6.406-8-6.402zm-20 5c-12 .007-12 8.334-12 8.334V45h24v-1.666s0-8.34-12-8.334z" fill="#F9F5D7"/>
    <path d="M8 8c-2.216 0-4 1.784-4 4v1c0-2.216 1.784-4 4-4h48c2.216 0 4 1.784 4 4v-1c0-2.216-1.784-4-4-4H8z" opacity=".2" fill="#F9F5D7"/>
</svg>
