<svg xmlns="http://www.w3.org/2000/svg" width="64" height="64" version="1">
    <path d="M32 7C17.556 7 6 18.556 6 33s11.556 26 26 26c2.311 0 4-2.022 4-4.333 0-1.156.044-2.023-.822-2.89-.578-.866-1.156-1.732-1.156-2.888 0-2.311 2.023-3.889 4.334-3.889h5.2c8.088 0 14.443-6.8 14.443-14.888C58 17.4 46.444 7 32 7z" opacity=".2"/>
    <path d="M32 6C17.556 6 6 17.556 6 32c0 14.445 11.556 26 26 26 2.311 0 4-2.022 4-4.333 0-1.156.044-2.023-.822-2.89-.578-.866-1.156-1.732-1.156-2.888 0-2.311 2.023-3.889 4.334-3.889h5.2c8.088 0 14.443-6.8 14.443-14.888C58 16.4 46.444 6 32 6z" fill="#F9BD2E"/>
    <path d="M14 32c-2.133 0-4-1.866-4-4s1.867-4 4-4c2.134 0 4 1.866 4 4s-1.866 4-4 4z" fill="#CB8819"/>
    <path d="M24 20c-2.133 0-4-1.866-4-4 0-2.133 1.867-4 4-4s4 1.867 4 4c0 2.134-1.867 4-4 4z" fill="#066678"/>
    <path d="M38 20c-2.133 0-4-1.866-4-4 0-2.133 1.867-4 4-4s4 1.867 4 4c0 2.134-1.867 4-4 4z" fill="#7CB668"/>
    <path d="M48 32c-2.134 0-4-1.866-4-4 0-2.133 1.867-4 4-4s4 1.867 4 4c0 2.134-1.867 4-4 4z" fill="#CB241D"/>
    <path d="M32 6C17.556 6 6 17.556 6 32c0 .11.012.217.018.326A25.882 25.882 0 0 1 32 7c14.2 0 25.602 10.052 25.982 22.47.006-.12.018-.239.018-.36C58 16.397 46.444 6 32 6zm2.172 42.855c-.09.334-.149.682-.149 1.036 0 .169.017.33.04.488a4.52 4.52 0 0 1 .109-.524c.206.704.604 1.314 1.008 1.922.731.732.72 1.476.801 2.383.023-.162.038-.326.038-.492 0-1.156.027-2.025-.84-2.89-.403-.609-.801-1.219-1.007-1.923z" opacity=".2" fill="#F9F5D7"/>
</svg>
