<svg xmlns="http://www.w3.org/2000/svg" width="64" height="64" version="1">
    <path d="M4 14.9v40.322A2.781 2.781 0 0 0 6.8 58h50.401A2.78 2.78 0 0 0 60 55.222V14.9z" opacity=".2"/>
    <path d="M4 13.9v40.322A2.781 2.781 0 0 0 6.8 57h50.401A2.78 2.78 0 0 0 60 54.222V13.9z" fill="#8F3F71"/>
    <path d="M32 13.944V57h25.203A2.78 2.78 0 0 0 60 54.222V13.944z" opacity=".2" fill="#F9F5D7"/>
    <path d="M6.8 7A2.782 2.782 0 0 0 4 9.777V14h56V9.777A2.781 2.781 0 0 0 57.2 7z" fill="#83A498"/>
    <path d="M25.186 23c.274.007.537.108.742.286l17.684 13.989c.734.637.368 1.82-.605 1.956l-6.858.963 3.214 5.537a2.569 2.569 0 0 1-.951 3.525l-.69.397a2.597 2.597 0 0 1-3.542-.947l-3.337-5.75-4.89 3.944c-.753.609-1.893.088-1.894-.866L24 24.13c-.002-.635.535-1.146 1.186-1.13z" opacity=".1"/>
    <path d="M25.186 22c.274.007.537.108.742.286l17.684 13.989c.734.637.368 1.82-.605 1.956l-6.858.963 3.214 5.537a2.569 2.569 0 0 1-.951 3.525l-.69.397a2.597 2.597 0 0 1-3.542-.947l-3.337-5.75-4.89 3.944c-.753.609-1.893.088-1.894-.866L24 23.13c-.002-.635.535-1.146 1.186-1.13z" fill="#3A393A"/>
    <path opacity=".2" d="M4 14h56v1H4z"/>
    <path d="M6.8 7A2.782 2.782 0 0 0 4 9.777v1A2.782 2.782 0 0 1 6.8 8h50.4c1.552 0 2.8 1.238 2.8 2.777v-1A2.782 2.782 0 0 0 57.2 7H6.8z" fill="#F9F5D7" opacity=".2"/>
</svg>
