<svg xmlns="http://www.w3.org/2000/svg" width="64" height="64" version="1">
    <rect width="58" height="58" x="-62" y="-61" rx="2.9" ry="2.9" transform="matrix(0 -1 -1 0 0 0)" opacity=".2"/>
    <rect width="58" height="58" x="-61" y="-61" rx="2.9" ry="2.9" transform="matrix(0 -1 -1 0 0 0)" fill="#F9F5D7"/>
    <path d="M5.89 3C4.29 3 3 4.29 3 5.89v20.22C3 27.71 4.29 29 5.89 29h20.22c1.6 0 2.89-1.29 2.89-2.89V5.89C29 4.29 27.71 3 26.11 3zm4.665 6h10.89A1.55 1.55 0 0 1 23 10.555v10.89A1.55 1.55 0 0 1 21.445 23h-10.89A1.55 1.55 0 0 1 9 21.445v-10.89A1.55 1.55 0 0 1 10.555 9zM37.89 3C36.29 3 35 4.29 35 5.89v20.22c0 1.6 1.29 2.89 2.89 2.89h20.22c1.6 0 2.89-1.29 2.89-2.89V5.89C61 4.29 59.71 3 58.11 3zm4.665 6h10.89A1.55 1.55 0 0 1 55 10.555v10.89A1.55 1.55 0 0 1 53.445 23h-10.89A1.55 1.55 0 0 1 41 21.445v-10.89A1.55 1.55 0 0 1 42.555 9zM5.89 35C4.29 35 3 36.29 3 37.89v20.22C3 59.71 4.29 61 5.89 61h20.22c1.6 0 2.89-1.29 2.89-2.89V37.89c0-1.6-1.29-2.89-2.89-2.89zm4.665 6h10.89A1.55 1.55 0 0 1 23 42.555v10.89A1.55 1.55 0 0 1 21.445 55h-10.89A1.55 1.55 0 0 1 9 53.445v-10.89A1.55 1.55 0 0 1 10.555 41zM37.89 35c-1.6 0-2.89 1.29-2.89 2.89v20.22c0 1.6 1.29 2.89 2.89 2.89h20.22c1.6 0 2.89-1.29 2.89-2.89V37.89c0-1.6-1.29-2.89-2.89-2.89zm4.665 6h10.89A1.55 1.55 0 0 1 55 42.555v10.89A1.55 1.55 0 0 1 53.445 55h-10.89A1.55 1.55 0 0 1 41 53.445v-10.89A1.55 1.55 0 0 1 42.555 41z" opacity=".3"/>
    <path d="M16.05 48.95l31.9-31.9" opacity=".1" fill="none" stroke="#151819" stroke-width="10" stroke-linecap="round"/>
    <path d="M16.05 47.95l31.9-31.9" fill="none" stroke="#CB241D" stroke-width="10" stroke-linecap="round"/>
    <path d="M47.95 48.95l-31.9-31.9" opacity=".1" fill="none" stroke="#151819" stroke-width="10" stroke-linecap="round"/>
    <path d="M47.95 47.95l-31.9-31.9" fill="none" stroke="#FA4934" stroke-width="10" stroke-linecap="round"/>
    <path d="M5.898 3A2.891 2.891 0 0 0 3 5.898v1A2.891 2.891 0 0 1 5.898 4h52.204A2.891 2.891 0 0 1 61 6.898v-1A2.891 2.891 0 0 0 58.102 3H5.898z" opacity=".2" fill="#F9F5D7"/>
    <path d="M15.996 11a5 5 0 0 0-4.957 5.502A5 5 0 0 1 15.996 12a5 5 0 0 1 3.59 1.516l31.898 31.898a5 5 0 0 1 1.51 3.111 5 5 0 0 0-1.51-4.11l-31.898-31.9A5 5 0 0 0 15.996 11z" opacity=".1" fill="#F9F5D7"/>
</svg>
