<svg xmlns="http://www.w3.org/2000/svg" width="64" height="64">
    <path d="M25.006 13.045a3.558 3.558 0 0 0-2.545.99l-6.1 5.834c-8.222 7.866-8.512 20.954-.646 29.176L18.54 52h8.674l-7.545-7.887a13.443 13.443 0 0 1-3.723-8.66c-.186-3.778.967-7.887 4.147-10.43l7.299-5.834c1.538-1.23 1.473-3.619.11-5.043a3.556 3.556 0 0 0-2.497-1.101zm28.76 44.318C53.25 58.898 51.91 60 50.32 60H26.22c.661.558 1.54.3 2.457.3h21.53c1.97 0 3.567-.896 3.567-2.866 0-.025-.007-.047-.007-.07zM30.06 36.007a1.85 1.85 0 0 1 .865-1.127l6.267-3.626a1.89 1.89 0 0 1 2.565.657l3.985 6.683a1.83 1.83 0 0 1-.667 2.526l-6.268 3.626a1.89 1.89 0 0 1-2.564-.657l-3.985-6.683a1.82 1.82 0 0 1-.198-1.4z" opacity=".2"/>
    <path d="M15.68 53h34.64c2.033 0 3.68 1.79 3.68 4s-1.647 4-3.68 4H15.68C13.647 61 12 59.21 12 57s1.647-4 3.68-4z" opacity=".2"/>
    <path fill="#F9F5D7" d="M48 49H35v5h13z"/>
    <path d="M28.675 59.3h21.531c1.97 0 3.567-.897 3.567-2.867a3.567 3.567 0 0 0-3.567-3.567H29l-9.33-9.752a13.445 13.445 0 0 1-3.722-8.661c-.186-3.779.966-7.887 4.146-10.43l7.298-5.834c1.539-1.23 1.474-3.62.112-5.043a3.567 3.567 0 0 0-5.044-.112l-6.099 5.835c-8.222 7.865-8.512 20.954-.646 29.176L26.098 58.9c.673.703 1.604.401 2.577.401z" fill="#3A393A"/>
    <path d="M30.06 35.007a1.85 1.85 0 0 1 .865-1.127l6.267-3.626a1.89 1.89 0 0 1 2.565.657l3.985 6.683a1.83 1.83 0 0 1-.667 2.526l-6.268 3.626a1.89 1.89 0 0 1-2.564-.657l-3.985-6.683a1.82 1.82 0 0 1-.198-1.4z" fill="#504945"/>
    <path d="M14.194 12.439c.4-1.587 1.375-2.917 2.746-3.748l4.7-2.846a5.814 5.814 0 0 1 3.913-.775c1.779.281 3.322 1.36 4.233 2.958L41.76 29.052c.234.41.3.9.184 1.361a1.79 1.79 0 0 1-.804 1.097l-11.96 7.242c-.359.218-.762.287-1.144.227a1.738 1.738 0 0 1-1.24-.866L14.822 17.09a6.261 6.261 0 0 1-.628-4.651z" opacity=".2"/>
    <path d="M14.194 11.439c.4-1.587 1.375-2.917 2.746-3.747l4.7-2.847a5.814 5.814 0 0 1 3.913-.775c1.779.281 3.322 1.36 4.233 2.958L41.76 28.052c.234.41.3.9.184 1.361a1.79 1.79 0 0 1-.804 1.097l-11.96 7.242c-.359.218-.762.287-1.144.227a1.738 1.738 0 0 1-1.24-.866L14.822 16.09a6.261 6.261 0 0 1-.628-4.651zM15.68 52h34.64c2.033 0 3.68 1.79 3.68 4s-1.647 4-3.68 4H15.68C13.647 60 12 58.21 12 56s1.647-4 3.68-4z" fill="#FD8019"/>
    <path d="M20 29c4.411 0 8-3.589 8-8s-3.589-8-8-8-8 3.589-8 8 3.589 8 8 8z" opacity=".2"/>
    <path d="M20 28c4.411 0 8-3.589 8-8s-3.589-8-8-8-8 3.589-8 8 3.589 8 8 8z" fill="#504945"/>
    <path d="M20 17c2.206 0 4 1.794 4 4s-1.794 4-4 4-4-1.794-4-4 1.794-4 4-4z" opacity=".2"/>
    <path d="M20 16c2.206 0 4 1.794 4 4s-1.794 4-4 4-4-1.794-4-4 1.794-4 4-4z" fill="#F9F5D7"/>
    <path d="M15.68 52C13.647 52 12 53.79 12 56c0 .186.015.367.041.545.21-1.992 1.75-3.545 3.639-3.545h34.64c1.89 0 3.429 1.553 3.639 3.545.026-.178.041-.359.041-.545 0-2.21-1.648-4-3.68-4H15.68zM24.54 4.002a5.836 5.836 0 0 0-2.9.844l-4.7 2.845c-1.371.83-2.347 2.162-2.747 3.748a6.309 6.309 0 0 0-.168 2.043c.029-.348.081-.697.168-1.043.4-1.586 1.376-2.918 2.746-3.748l4.702-2.845a5.815 5.815 0 0 1 3.912-.776c1.779.281 3.321 1.36 4.232 2.96L41.76 29.052c.074.13.126.269.166.412.005-.018.013-.033.017-.05.117-.462.05-.951-.183-1.362L29.785 7.029c-.91-1.599-2.453-2.678-4.232-2.959a5.733 5.733 0 0 0-1.014-.068z" opacity=".2" fill="#F9F5D7"/>
</svg>
