<svg xmlns="http://www.w3.org/2000/svg" width="64" height="64" version="1">
    <path d="M4 50v2c0 1.662 1.338 3 3 3h50c1.662 0 3-1.338 3-3v-2c0 1.662-1.338 3-3 3H7c-1.662 0-3-1.338-3-3z" opacity=".2"/>
    <rect width="44" height="56" x="-54" y="-60" rx="3" ry="3" transform="matrix(0 -1 -1 0 0 0)" fill="#B57514"/>
    <path d="M7 10c-1.662 0-3 1.338-3 3v1c0-1.662 1.338-3 3-3h50c1.662 0 3 1.338 3 3v-1c0-1.662-1.338-3-3-3H7z" opacity=".1" fill="#F9F5D7"/>
    <path d="M48 33c0-16.615-6.666-18-20-18-13.333 0-20 1.385-20 18 0 16.616 6.667 18 20 18 13.334 0 20-1.384 20-18z" opacity=".2"/>
    <path d="M48 32c0-16.615-6.666-18-20-18-13.333 0-20 1.385-20 18 0 16.616 6.667 18 20 18 13.334 0 20-1.384 20-18z" fill="#48B9C7"/>
    <path d="M50 40v2h8v-2zM50 43v2h8v-2zM50 46v2h8v-2z" fill="#322F2E"/>
    <g transform="matrix(2 0 0 2 0 -2)" opacity=".2">
        <circle cx="27" cy="11" r="2"/>
        <circle cx="27" cy="16" r="2"/>
    </g>
    <circle cx="54" cy="19" r="4" fill="#F9F5D7"/>
    <circle cx="54" cy="29" r="4" fill="#F9F5D7"/>
    <path d="M28 14C14.667 14 8 15.385 8 32c0 .177.012.327.014.5C8.154 16.38 14.808 15 28 15s19.846 1.38 19.986 17.5c.002-.173.014-.323.014-.5 0-16.615-6.666-18-20-18z" fill="#F9F5D7" opacity=".2"/>
</svg>
