<svg xmlns="http://www.w3.org/2000/svg" width="64" height="64" version="1">
    <path d="M35.824 5.003a6 6 0 0 0-4.433 2.156l-8.2 9.838H20a6 6 0 0 0-6 5.999v23.996a6 6 0 0 0 6 6h2v2c.003 5.609 7.017 8.147 10.61 3.838l8.199-9.838H44a6 6 0 0 0 6-5.999V18.997a6 6 0 0 0-6-6h-2v-2a6 6 0 0 0-6.176-5.994z" opacity=".2"/>
    <path d="M35.824 4.003a6 6 0 0 0-4.433 2.156l-8.2 9.838H20a6 6 0 0 0-6 5.999v23.996a6 6 0 0 0 6 6h2v2c.003 5.609 7.017 8.147 10.61 3.838l8.199-9.838H44a6 6 0 0 0 6-5.999V17.997a6 6 0 0 0-6-6h-2v-2a6 6 0 0 0-6.176-5.994z" fill="#504945"/>
    <path d="M36 10L26 22h-6v24h8v8l10-12h6V18h-8z" opacity=".3"/>
    <path d="M22 25v14h6v-6l8 8h6V27h-6v6l-8-8z" opacity=".2"/>
    <path d="M22 24v14h6v-6l8 8h6V26h-6v6l-8-8z" fill="#F9F5D7"/>
    <path d="M35.824 4.002a6.001 6.001 0 0 0-4.433 2.156l-8.2 9.838H20a6 6 0 0 0-6 6v1a6 6 0 0 1 6-6h3.191l8.2-9.838A6.001 6.001 0 0 1 42 10.998v-1a6 6 0 0 0-6.176-5.996zM42 11.998v1h2a6 6 0 0 1 6 5.998v-1a6 6 0 0 0-6-5.998h-2z" opacity=".1" fill="#F9F5D7"/>
</svg>
