<svg xmlns="http://www.w3.org/2000/svg" width="64" height="64">
    <path d="M47.714 14.379c2.5-1.891 4.893-4.33 7.735-5.114 1.648-.393 3.18-.463 4.302.593.687 1.09 1.786 2.24 2.137 3.86.3 1.385.038 3.345-1.305 3.322-1.009-.353-3.181-1.154-4.46-.87-3.372.744-4.256 3.23-4.256 3.23z" opacity=".2"/>
    <path d="M43.17 55.437c-11.951 8.059-31.54 7.306-38.83-1.895-6.26-7.904.692-30.217 13.106-40.314C29.86 3.132 41.831 6.621 50.305 17.485s6.13 29.009-7.134 37.952z" opacity=".2"/>
    <path d="M47.714 13.379c2.5-1.891 4.893-4.33 7.735-5.114 1.648-.393 3.18-.463 4.302.593.687 1.09 1.786 2.24 2.137 3.86.3 1.385.038 3.345-1.305 3.322-1.009-.353-3.181-1.154-4.46-.87-3.372.744-4.256 3.23-4.256 3.23z" fill="#7F7061"/>
    <path d="M57.238 8.002c-.57.014-1.17.116-1.789.264-2.842.783-5.235 3.222-7.734 5.113l.498.603c2.321-1.824 4.584-3.985 7.236-4.716 1.649-.393 3.18-.463 4.303.593.687 1.089 1.785 2.24 2.137 3.86.036.168.063.346.082.527a5.021 5.021 0 0 0-.082-1.527c-.352-1.62-1.45-2.771-2.137-3.86-.702-.66-1.564-.88-2.514-.857z" opacity=".1" fill="#F9F5D7"/>
    <path d="M43.17 54.437c-11.951 8.059-31.54 7.306-38.83-1.895-6.26-7.904.692-30.217 13.106-40.314C29.86 2.132 41.831 5.621 50.305 16.485s6.13 29.009-7.134 37.952z" fill="#FECE4F"/>
    <path d="M32.152 6.232c-4.692.034-9.664 1.895-14.707 5.997-9.403 7.647-15.666 22.3-15.433 32.394.18-10.042 6.336-23.996 15.433-31.394C29.86 3.132 41.831 6.62 50.305 17.484c3.177 4.074 4.835 9.172 4.965 14.424.067-5.602-1.586-11.092-4.965-15.424-5.032-6.45-11.295-10.301-18.153-10.252z" opacity=".2" fill="#F9F5D7"/>
    <path d="M30.84 5c-2.324-.009-4.583.3-6.69.922-3.201 1.261-5.83 2.425-2.837 4A56.04 56.04 0 0 1 36.96 22.007c7.362 8.124 11.931 17.86 14.027 27.463.593 3.32 3.475.382 4.657-.835 6.465-6.697 6.141-23.125-3.743-34.033-5.8-6.4-13.748-9.573-21.063-9.602z" opacity=".2"/>
    <path d="M30.84 4c-2.324-.009-4.583.3-6.69.922-3.201 1.261-5.83 2.425-2.837 4A56.04 56.04 0 0 1 36.96 21.007c7.362 8.124 11.931 17.86 14.027 27.463.593 3.32 3.475.382 4.657-.835 6.465-6.697 6.141-23.125-3.743-34.033-5.8-6.4-13.748-9.573-21.063-9.602z" fill="#B57514"/>
    <path d="M30.84 4c-2.323-.01-4.583.3-6.69.922-2.591 1.02-4.803 1.978-3.968 3.14.53-.743 2.156-1.426 3.968-2.14 2.107-.623 4.367-.931 6.69-.922 7.315.029 15.262 3.2 21.062 9.602 5.429 5.99 7.958 13.64 8.078 20.435.125-7.034-2.38-15.149-8.078-21.435C46.102 7.2 38.155 4.029 30.84 4z" opacity=".1" fill="#F9F5D7"/>
</svg>
