<svg xmlns="http://www.w3.org/2000/svg" width="64" height="64">
    <circle cx="32" cy="33" r="28" opacity=".2"/>
    <path d="M32 4A28 28 0 0 0 4.197 28.993 28 26.6 0 0 1 32 5.4a28 26.6 0 0 1 27.89 24.426A28 28 0 0 0 32 4zm27.89 25.826A28 28 0 0 1 60 32a28 26.6 0 0 0-.11-2.174zm-55.693-.833a28 26.6 0 0 0-.068.549 28 28 0 0 1 .068-.55zm-.068.549A28 28 0 0 0 4.001 32a28 26.6 0 0 1 .128-2.458z" opacity=".2" fill="#F9F5D7"/>
    <path d="M32 4C16.536 4 4 16.536 4 32c0 12.038 7.596 22.301 18.257 26.258 3.034 1.127 5.864-3.315 9.29-3.315 15.464 0 25.887-7.328 25.887-22.792 0-12.473-6.042-20.248-17.31-23.87-.424-.136-.398-3.205-.829-3.321A28.036 28.036 0 0 0 32 4z" fill="#066678"/>
    <path d="M39.102 5.934C34.58 8.489 23.066 15.83 24 22.297c1.293 8.948 19.449 7.434 20 14.437.653 8.291-11.829 16.639-19.98 21.09A28 28 0 0 0 32 59a28 28 0 0 0 27.953-27.078c-.479-12.266-8.896-22.854-20.851-25.988z" opacity=".2"/>
    <path d="M39.101 4.932C34.58 7.487 23.066 14.831 24 21.298c1.293 8.948 19.449 7.434 20 14.437.716 9.092-14.425 18.308-22.257 22.313A28 28 0 0 0 32 60c15.464 0 28-12.536 28-28A28 28 0 0 0 39.101 4.932z" fill="#F9F5D7"/>
    <path d="M7.781 19a28 28 0 0 0-2.855 7H12v14H4.91a28 28 0 0 0 2.881 7H56.219a28 28 0 0 0 1.04-2H55v-3h3v1.328A28 28 0 0 0 59.074 40H53V26h6.09A28 28 0 0 0 58 22.635V24h-3v-3h2.268a28 28 0 0 0-1.059-2H54zM7 21h3v3H7zm6 0h3v3h-3zm6 0h3v3h-3zm6 0h3v3h-3zm6 0h3v3h-3zm6 0h3v3h-3zm6 0h3v3h-3zm6 0h3v3h-3zm-32 5h13v14H17zm18 0h13v14H35zM7 42h3v3H7zm6 0h3v3h-3zm6 0h3v3h-3zm6 0h3v3h-3zm6 0h3v3h-3zm6 0h3v3h-3zm6 0h3v3h-3zm6 0h3v3h-3z" opacity=".2"/>
    <path d="M7.781 18a28 28 0 0 0-2.855 7H12v14H4.91a28 28 0 0 0 2.881 7H56.219a28 28 0 0 0 1.04-2H55v-3h3v1.328A28 28 0 0 0 59.074 39H53V25h6.09A28 28 0 0 0 58 21.635V23h-3v-3h2.268a28 28 0 0 0-1.059-2H54zM7 20h3v3H7zm6 0h3v3h-3zm6 0h3v3h-3zm6 0h3v3h-3zm6 0h3v3h-3zm6 0h3v3h-3zm6 0h3v3h-3zm6 0h3v3h-3zm-32 5h13v14H17zm18 0h13v14H35zM7 41h3v3H7zm6 0h3v3h-3zm6 0h3v3h-3zm6 0h3v3h-3zm6 0h3v3h-3zm6 0h3v3h-3zm6 0h3v3h-3zm6 0h3v3h-3z" fill="#3A393A"/>
    <path d="M32 4A28 28 0 0 0 4 32a28 28 0 0 0 .018.492A28 28 0 0 1 32 5a28 28 0 0 1 27.975 27.492A28 28 0 0 0 60 32 28 28 0 0 0 32 4z" opacity=".1" fill="#F9F5D7"/>
</svg>
