<svg xmlns="http://www.w3.org/2000/svg" width="64" height="64" version="1">
    <path d="M7 28v27.2C7 56.751 8.249 58 9.8 58h44.4c1.551 0 2.8-1.249 2.8-2.8V28z" opacity=".2"/>
    <path d="M7 27v27.2C7 55.751 8.249 57 9.8 57h44.4c1.551 0 2.8-1.249 2.8-2.8V27z" fill="#FAEEBB"/>
    <path d="M57 27V9.8C57 8.249 55.751 7 54.2 7H9.8A2.794 2.794 0 0 0 7 9.8V27z" fill="#8F3F71"/>
    <path opacity=".1" d="M17 28h10v10H17z"/>
    <path fill="#3A393A" d="M17 27h10v10H17z"/>
    <path opacity=".1" d="M37 28h10v10H37z"/>
    <path fill="#3A393A" d="M37 27h10v10H37z"/>
    <path d="M9.8 7C8.25 7 7 8.25 7 9.8v1C7 9.25 8.25 8 9.8 8h44.4c1.55 0 2.8 1.25 2.8 2.8v-1C57 8.25 55.75 7 54.2 7H9.8z" opacity=".1" fill="#F9F5D7"/>
</svg>
