<svg xmlns="http://www.w3.org/2000/svg" width="64" height="64" version="1">
    <rect width="56" height="56" x="4" y="4" rx="2.8" ry="2.8" fill="#504945"/>
    <path d="M4 57.2v1C4 59.75 5.25 61 6.8 61h50.4c1.55 0 2.8-1.25 2.8-2.8v-1c0 1.55-1.25 2.8-2.8 2.8H6.8C5.25 60 4 58.75 4 57.2z" opacity=".2"/>
    <path d="M6.8 4C5.25 4 4 5.25 4 6.8v1C4 6.25 5.25 5 6.8 5h50.4C58.75 5 60 6.25 60 7.8v-1C60 5.25 58.75 4 57.2 4H6.8z" opacity=".1" fill="#F9F5D7"/>
    <path d="M35.472 34.002l6.457-11.484L45 34.002l-3.07 11.48zm-3.148 2.832l6.459 10.514-11.246-2.968-8.127-7.546zm6.457-16.182l-6.457 12.382H19.41l8.126-9.413zM48.001 30l-3.94-15-14.704 4.045-2.176 3.941-4.418-.032-10.762 11.048 10.763 11.046 4.415-.033 2.18 3.94L44.061 53l3.94-15-2-3.998" opacity=".2"/>
    <path d="M35.472 33.002l6.457-11.484L45 33.002l-3.07 11.48zm-3.148 2.832l6.459 10.514-11.246-2.968-8.127-7.546zm6.457-16.181l-6.457 12.381H19.41l8.126-9.413zM48.001 29l-3.94-15-14.704 4.045-2.176 3.941-4.418-.032-10.762 11.048L22.764 44.05l4.415-.034 2.18 3.94L44.061 52l3.94-15-2-3.998" fill="#F9F5D7"/>
</svg>
