<svg xmlns="http://www.w3.org/2000/svg" width="64" height="64" version="1">
    <path d="M60 58.2V7.8C60 6.249 58.751 5 57.2 5H17.524l-5.575 5.64c-1.09 1.102-3.303.64-4.149 1.941L4 18.421V58.2C4 59.751 5.249 61 6.8 61h50.4c1.551 0 2.8-1.249 2.8-2.8z" opacity=".2"/>
    <path d="M60 57.2V6.8C60 5.249 58.751 4 57.2 4H17.524L11.95 9.64c-1.09 1.102-3.303.64-4.149 1.941L4 17.421V57.2C4 58.751 5.249 60 6.8 60h50.4c1.551 0 2.8-1.249 2.8-2.8z" fill="#BDAD93"/>
    <path d="M12.317 11.478c-.858 1.293-4.662-.539-5.375.839L4 18h56V6.8C60 5.249 58.751 4 57.2 4H17.28z" fill="#F9F5D7"/>
    <path d="M11.949 8.536c-1.241.93-3.6 1.468-4.394 2.8L4 17.299V57.2C4 58.751 5.249 60 6.8 60H18V4zM52 18v42h5.2c1.551 0 2.8-1.249 2.8-2.8V18z" fill="#F9F5D7"/>
    <path d="M6.8 4A2.794 2.794 0 0 0 4 6.8V18h14V4z" fill="#CB241D"/>
    <path fill="#F9BD2E" d="M18 49h22v11H18z"/>
    <path fill="#7CB668" d="M40 49h12v11H40z"/>
    <path fill="#066678" d="M52 18h8v8h-8z"/>
    <path opacity=".2" d="M18 49h33.6v1H18zM4 18h56v1H4z"/>
    <path opacity=".2" fill="#F9F5D7" d="M52 26h8v1h-8zM6.8 4C5.25 4 4 5.25 4 6.8v1C4 6.25 5.25 5 6.8 5H57.2C58.75 5 60 6.25 60 7.8v-1C60 5.25 58.75 4 57.2 4H6.8z"/>
</svg>
