<svg xmlns="http://www.w3.org/2000/svg" width="64" height="64" version="1">
    <path d="M4.05 32c-.011.335-.05.663-.05 1 0 15.512 12.488 28 28 28 15.51 0 27.998-12.488 27.998-28 0-.337-.039-.664-.05-1-.528 15.042-12.776 27-27.95 27S4.578 47.042 4.05 32z" opacity=".2"/>
    <rect width="56" height="56" x="4" y="4" rx="27.999" ry="27.999" fill="#48B9C7"/>
    <path d="M32 13a4 4 0 0 0-3.876 3.023c-1.997 1.099-3.678 2.997-4.945 5.278-.873 1.571-1.574 3.37-2.101 5.32-1.746 1.014-3.303 2.157-4.594 3.406-2.988 2.891-4.771 6.541-3.805 10.148.967 3.607 4.338 5.88 8.371 6.89a20.9 20.9 0 0 0 1.461.305c.212.456.432.903.668 1.328C25.201 52.334 28.267 55 32.001 55c3.734 0 6.8-2.666 8.82-6.3.873-1.572 1.574-3.37 2.101-5.32 1.746-1.015 3.303-2.158 4.594-3.407a15.89 15.89 0 0 0 2.422-2.976A4 4 0 0 0 50 37a4 4 0 0 0 4-4 4 4 0 0 0-2.926-3.848c-1.19-3.21-4.354-5.274-8.124-6.218-.474-.12-.964-.218-1.462-.306a21.098 21.098 0 0 0-.668-1.328c-1.266-2.28-2.948-4.178-4.944-5.276A4 4 0 0 0 32 13zm-2.653 6.988A4 4 0 0 0 31.999 21a4 4 0 0 0 2.632-.996c.724.54 1.439 1.273 2.105 2.277-2.498.042-5.146.406-7.844 1.13-.924.247-1.813.536-2.683.847.157-.334.295-.71.465-1.016.824-1.483 1.736-2.554 2.672-3.254zm7.101 6.3c.763-.023 1.473.023 2.184.067.834 2.49 1.366 5.442 1.366 8.646 0 2.015-.234 3.914-.59 5.687a28.786 28.786 0 0 1-5.34 2.04c-3.095.828-6.082 1.079-8.703.917-.836-2.488-1.368-5.44-1.368-8.644 0-2.015.234-3.914.59-5.687a28.786 28.786 0 0 1 5.34-2.039c2.255-.604 4.47-.92 6.52-.984zm6.61.844c2.147.722 3.478 1.818 4.093 3.063A4 4 0 0 0 45.997 33a4 4 0 0 0 .512 1.953c-.448.7-1.025 1.42-1.777 2.148-.25.242-.578.472-.858.71.074-.922.124-1.854.124-2.812 0-2.792-.334-5.444-.942-7.868zM31.997 29a6 6 0 0 0-6 6 6 6 0 0 0 6 6 6 6 0 0 0 6-6 6 6 0 0 0-6-6zm-11.875 3.188A34.982 34.982 0 0 0 20 35c0 2.792.335 5.444.942 7.867-2.528-.85-3.988-2.206-4.396-3.728-.462-1.728.352-3.95 2.72-6.242.25-.242.577-.472.858-.71zm17.664 13.554c-.158.334-.295.71-.465 1.016-1.6 2.88-3.536 4.241-5.324 4.241-1.575 0-3.265-1.061-4.738-3.28 2.498-.042 5.146-.407 7.843-1.13a34.678 34.678 0 0 0 2.684-.847z" opacity=".2"/>
    <path d="M32 12.001a4 4 0 0 0-3.876 3.024c-1.997 1.098-3.678 2.996-4.945 5.277-.873 1.572-1.574 3.37-2.101 5.32-1.746 1.014-3.303 2.157-4.594 3.406-2.988 2.892-4.771 6.542-3.805 10.148.967 3.607 4.338 5.881 8.371 6.89a20.9 20.9 0 0 0 1.461.306c.212.456.432.902.668 1.328C25.201 51.336 28.267 54 32.001 54c3.734 0 6.8-2.665 8.82-6.3.873-1.572 1.574-3.37 2.101-5.32 1.746-1.014 3.303-2.157 4.594-3.407a15.89 15.89 0 0 0 2.422-2.976 4 4 0 0 0 .062.004 4 4 0 0 0 4-4 4 4 0 0 0-2.926-3.848c-1.19-3.21-4.354-5.274-8.124-6.218-.474-.12-.964-.218-1.462-.306a21.098 21.098 0 0 0-.668-1.328c-1.266-2.28-2.948-4.177-4.944-5.276A4 4 0 0 0 32 12.003zm-2.653 6.988A4 4 0 0 0 32 20.001a4 4 0 0 0 2.632-.996c.725.54 1.439 1.273 2.105 2.278-2.497.04-5.146.406-7.843 1.128-.924.248-1.813.538-2.684.848.158-.334.295-.71.465-1.016.824-1.482 1.736-2.554 2.672-3.253zm7.102 6.301c.762-.024 1.472.023 2.183.066.834 2.49 1.366 5.442 1.366 8.646 0 2.015-.233 3.914-.59 5.688a28.786 28.786 0 0 1-5.34 2.039c-3.094.829-6.082 1.08-8.702.918-.836-2.488-1.368-5.44-1.368-8.644 0-2.015.233-3.914.59-5.688a28.786 28.786 0 0 1 5.34-2.039c2.255-.604 4.47-.92 6.519-.984zm6.609.844c2.148.721 3.478 1.817 4.094 3.062a4 4 0 0 0-1.154 2.806 4 4 0 0 0 .511 1.953c-.447.7-1.025 1.42-1.777 2.148-.25.242-.578.472-.858.71.074-.922.124-1.854.124-2.812 0-2.791-.334-5.443-.942-7.867zm-11.06 1.868a6 6 0 0 0-6 6 6 6 0 0 0 6 6 6 6 0 0 0 6-6 6 6 0 0 0-6-6zm-11.874 3.187A34.982 34.982 0 0 0 20 34.001c0 2.792.334 5.444.94 7.867-2.526-.85-3.986-2.206-4.394-3.728-.463-1.728.351-3.95 2.719-6.242.25-.242.577-.472.858-.71zm17.663 13.554c-.157.335-.295.71-.465 1.016-1.6 2.88-3.536 4.242-5.324 4.242-1.575 0-3.264-1.062-4.738-3.281 2.498-.041 5.146-.406 7.844-1.13a34.678 34.678 0 0 0 2.683-.847z" fill="#F9F5D7"/>
    <path d="M32 4.002C16.488 4.002 4 16.488 4 32c0 .114.011.224.018.336C4.369 17.135 16.71 5 32 5s27.63 12.135 27.982 27.336c.007-.112.018-.223.018-.336A27.938 27.938 0 0 0 32 4.002z" opacity=".1" fill="#F9F5D7"/>
    <path d="M32 12.001a4 4 0 0 0-4 4 4 4 0 0 0 4 4 4 4 0 0 0 4-4 4 4 0 0 0-4-4zm0 16a6 6 0 0 0-6 6 6 6 0 0 0 6 6 6 6 0 0 0 5.999-6 6 6 0 0 0-6-6zm17.999 0a4 4 0 0 0-4 4 4 4 0 0 0 4 4 4 4 0 0 0 4-4 4 4 0 0 0-4-4z" opacity=".7"/>
</svg>
