<svg xmlns="http://www.w3.org/2000/svg" width="64" height="64">
    <g transform="translate(0 -988.362)">
        <path d="M32 992.362l-2.667 3.2-3.333-1.2-1.583 3.042c-6.142 1.264-10.482 4.232-14.078 8.924C4.048 1014.535 4 1028.696 4 1036.696s14.667 10.666 28 10.666 28-2.667 28-10.666c0-8-.048-22.16-6.339-30.368-3.596-4.692-7.936-7.66-14.078-8.924L38 994.362l-3.333 1.2z" opacity=".2"/>
        <path d="M32 991.362l-2.667 3.2-3.333-1.2-1.583 3.042c-6.142 1.264-10.482 4.232-14.078 8.924C4.048 1013.535 4 1027.696 4 1035.696s14.667 10.666 28 10.666 28-2.667 28-10.666c0-8-.048-22.16-6.339-30.368-3.596-4.692-7.936-7.66-14.078-8.924L38 993.362l-3.333 1.2z" fill="#066678"/>
        <path d="M25.389 1034.539a7.647 7.647 0 0 0 6.611 3.823 7.638 7.638 0 0 0 6.611-3.823H32z" fill="#7F7061"/>
        <path d="M32 1026.362a1.13 1.13 0 0 0-.819.357l-6.805 6.373c-.728.77-.345 3.047.685 3.048l6.939 1.222 6.939-1.222c1.03 0 1.413-2.278.685-3.048l-6.805-6.373a1.128 1.128 0 0 0-.819-.357z" opacity=".2"/>
        <path d="M32 1025.362a1.13 1.13 0 0 0-.819.357l-6.805 6.373c-.728.77-.345 3.047.685 3.048l6.939 1.222 6.939-1.222c1.03 0 1.413-2.278.685-3.048l-6.805-6.373a1.128 1.128 0 0 0-.819-.357z" fill="#F9BD2E"/>
        <ellipse cx="143.801" cy="998.101" rx="6.109" ry="5.889" transform="matrix(-.97032 .2418 .15783 .98747 0 0)" opacity=".6"/>
        <ellipse cx="804.209" cy="529.168" rx="1.563" ry="2.357" transform="matrix(.52939 .84838 -.77241 .63512 0 0)" opacity=".764" fill="#F9F5D7"/>
        <ellipse cx="207.232" cy="982.568" rx="6.109" ry="5.889" transform="matrix(.97032 .2418 -.15783 .98747 0 0)" opacity=".6"/>
        <ellipse cx="822.144" cy="505.211" rx="1.563" ry="2.357" transform="matrix(.52939 .84838 -.77241 .63512 0 0)" opacity=".764" fill="#F9F5D7"/>
        <path d="M32 991.362l-2.666 3.2-3.334-1.2-1.584 3.041c-6.142 1.264-10.482 4.234-14.078 8.926-6.29 8.207-6.338 22.367-6.338 30.367 0 .023.004.044.004.067.01-8.124.268-21.52 6.334-29.434 3.596-4.692 7.936-7.662 14.078-8.926l1.584-3.04 3.334 1.198L32 992.362l2.666 3.2 3.334-1.2 1.584 3.041c6.142 1.264 10.482 4.234 14.078 8.926 6.066 7.914 6.323 21.31 6.334 29.434 0-.023.004-.044.004-.067 0-8-.047-22.16-6.338-30.367-3.596-4.692-7.936-7.662-14.078-8.926L38 993.363l-3.334 1.198L32 991.362z" opacity=".2" fill="#F9F5D7"/>
        <path d="M32 1025.362c-.306 0-.601.129-.818.358l-6.805 6.373c-.35.37-.44 1.086-.328 1.732.055-.292.16-.554.328-.732l6.805-6.373c.217-.23.512-.358.818-.358.306 0 .601.128.818.358l6.805 6.373c.168.178.273.44.328.732.112-.646.022-1.362-.328-1.732l-6.805-6.373a1.127 1.127 0 0 0-.818-.358z" opacity=".2" fill="#F9F5D7"/>
    </g>
</svg>
