<svg xmlns="http://www.w3.org/2000/svg" width="64" height="64" version="1.0">
    <path d="M7.143 10C4.848 10 3 12.017 3 14.522V50.91C3 53.175 4.848 55 7.143 55h49.714C59.152 55 61 53.175 61 50.91V14.521C61 12.017 59.152 10 56.857 10z" opacity=".2"/>
    <path d="M7.143 9C4.848 9 3 11.017 3 13.522V49.91C3 52.175 4.848 54 7.143 54h49.714C59.152 54 61 52.175 61 49.91V13.521C61 11.017 59.152 9 56.857 9z" fill="#F9F5D7"/>
    <path d="M9.003 14h2.994c1.106 0 1.886.897 1.996 2l.499 5c.11 1.103-.89 2-1.996 2H8.504c-1.106 0-2.106-.897-1.996-2l.5-5c.11-1.103.89-2 1.995-2z" fill="#3A393A"/>
    <path d="M14 15.667v1.666c0 .924-.892 1.667-2 1.667H9c-1.108 0-2-.743-2-1.667v-1.666C7 14.743 7.892 14 9 14h3c1.108 0 2 .743 2 1.667z" fill="#665C54"/>
    <path d="M22.111 37h19.778c1.153 0 1.967.897 2.082 2l.52 5c.115 1.103-.928 2-2.082 2H21.591c-1.154 0-2.197-.897-2.082-2l.52-5c.115-1.103.929-2 2.082-2z" fill="#7B6F64"/>
    <path d="M44 38.667v1.666c0 .924-.93 1.667-2.087 1.667H22.087C20.931 42 20 41.257 20 40.333v-1.666c0-.924.93-1.667 2.087-1.667h19.826c1.156 0 2.087.743 2.087 1.667z" fill="#A79984"/>
    <path d="M47.003 26h2.994c1.106 0 1.886.898 1.996 2l.499 5c.11 1.103-.89 2-1.996 2h-3.992c-1.106 0-2.106-.897-1.996-2l.5-5c.11-1.102.89-2 1.995-2z" fill="#D55C0D"/>
    <path d="M52 27.667v1.666c0 .924-.892 1.667-2 1.667h-3c-1.108 0-2-.743-2-1.667v-1.666c0-.924.892-1.667 2-1.667h3c1.108 0 2 .743 2 1.667z" fill="#FD8019"/>
    <path d="M12.003 37h2.994c1.106 0 1.886.897 1.996 2l.499 5c.11 1.103-.89 2-1.996 2h-3.992c-1.106 0-2.106-.897-1.996-2l.5-5c.11-1.103.89-2 1.995-2z" fill="#3A393A"/>
    <path d="M3 45.937v3.971C3 52.174 4.847 54 7.142 54h49.716C59.153 54 61 52.174 61 49.908v-3.971c0 2.267-1.847 4.092-4.142 4.092H7.142C4.847 50.03 3 48.204 3 45.937z" opacity=".2"/>
    <path d="M20.003 14h2.994c1.106 0 1.886.897 1.996 2l.499 5c.11 1.103-.89 2-1.996 2h-3.992c-1.106 0-2.106-.897-1.996-2l.5-5c.11-1.103.89-2 1.995-2z" fill="#3A393A"/>
    <path d="M25 15.667v1.666c0 .924-.892 1.667-2 1.667h-3c-1.108 0-2-.743-2-1.667v-1.666c0-.924.892-1.667 2-1.667h3c1.108 0 2 .743 2 1.667z" fill="#665C54"/>
    <path d="M31.003 14h2.994c1.106 0 1.886.897 1.996 2l.499 5c.11 1.103-.89 2-1.996 2h-3.992c-1.106 0-2.106-.897-1.996-2l.5-5c.11-1.103.89-2 1.995-2z" fill="#3A393A"/>
    <path d="M36 15.667v1.666c0 .924-.892 1.667-2 1.667h-3c-1.108 0-2-.743-2-1.667v-1.666c0-.924.892-1.667 2-1.667h3c1.108 0 2 .743 2 1.667z" fill="#665C54"/>
    <path d="M42.003 14h2.994c1.106 0 1.886.897 1.996 2l.499 5c.11 1.103-.89 2-1.996 2h-3.992c-1.106 0-2.106-.897-1.996-2l.5-5c.11-1.103.89-2 1.995-2z" fill="#3A393A"/>
    <path d="M47 15.667v1.666c0 .924-.892 1.667-2 1.667h-3c-1.108 0-2-.743-2-1.667v-1.666c0-.924.892-1.667 2-1.667h3c1.108 0 2 .743 2 1.667z" fill="#665C54"/>
    <path d="M53.003 14h2.994c1.106 0 1.886.897 1.996 2l.499 5c.11 1.103-.89 2-1.996 2h-3.992c-1.106 0-2.106-.897-1.996-2l.5-5c.11-1.103.89-2 1.995-2z" fill="#3A393A"/>
    <path d="M58 15.667v1.666c0 .924-.892 1.667-2 1.667h-3c-1.108 0-2-.743-2-1.667v-1.666c0-.924.892-1.667 2-1.667h3c1.108 0 2 .743 2 1.667z" fill="#665C54"/>
    <path d="M14.003 26h2.994c1.106 0 1.886.897 1.996 2l.499 5c.11 1.103-.89 2-1.996 2h-3.992c-1.106 0-2.106-.897-1.996-2l.5-5c.11-1.103.89-2 1.995-2z" fill="#3A393A"/>
    <path d="M19 27.667v1.666c0 .924-.892 1.667-2 1.667h-3c-1.108 0-2-.743-2-1.667v-1.666c0-.924.892-1.667 2-1.667h3c1.108 0 2 .743 2 1.667z" fill="#665C54"/>
    <path d="M25.003 26h2.994c1.106 0 1.886.897 1.996 2l.499 5c.11 1.103-.89 2-1.996 2h-3.992c-1.106 0-2.106-.897-1.996-2l.5-5c.11-1.103.89-2 1.995-2z" fill="#3A393A"/>
    <path d="M30 27.667v1.666c0 .924-.892 1.667-2 1.667h-3c-1.108 0-2-.743-2-1.667v-1.666c0-.924.892-1.667 2-1.667h3c1.108 0 2 .743 2 1.667z" fill="#665C54"/>
    <path d="M36.003 26h2.994c1.106 0 1.886.897 1.996 2l.499 5c.11 1.103-.89 2-1.996 2h-3.992c-1.106 0-2.106-.897-1.996-2l.5-5c.11-1.103.89-2 1.995-2z" fill="#3A393A"/>
    <path d="M41 27.667v1.666c0 .924-.892 1.667-2 1.667h-3c-1.108 0-2-.743-2-1.667v-1.666c0-.924.892-1.667 2-1.667h3c1.108 0 2 .743 2 1.667zM17 38.667v1.666c0 .924-.892 1.667-2 1.667h-3c-1.108 0-2-.743-2-1.667v-1.666c0-.924.892-1.667 2-1.667h3c1.108 0 2 .743 2 1.667z" fill="#665C54"/>
    <path d="M49.003 37h2.994c1.106 0 1.886.897 1.996 2l.499 5c.11 1.103-.89 2-1.996 2h-3.992c-1.106 0-2.106-.897-1.996-2l.5-5c.11-1.103.89-2 1.995-2z" fill="#3A393A"/>
    <path d="M54 38.667v1.666c0 .924-.892 1.667-2 1.667h-3c-1.108 0-2-.743-2-1.667v-1.666c0-.924.892-1.667 2-1.667h3c1.108 0 2 .743 2 1.667z" fill="#665C54"/>
    <path d="M7.143 9C4.847 9 3 11.017 3 13.521v1C3 12.017 4.847 10 7.143 10h49.714C59.153 10 61 12.017 61 14.521v-1C61 11.017 59.153 9 56.857 9H7.143z" opacity=".2" fill="#F9F5D7"/>
    <path d="M7 17.334v1C7 19.257 7.892 20 9 20h3c1.108 0 2-.743 2-1.666v-1c0 .923-.892 1.666-2 1.666H9c-1.108 0-2-.743-2-1.666zm11 0v1c0 .923.892 1.666 2 1.666h3c1.108 0 2-.743 2-1.666v-1c0 .923-.892 1.666-2 1.666h-3c-1.108 0-2-.743-2-1.666zm11 0v1c0 .923.892 1.666 2 1.666h3c1.108 0 2-.743 2-1.666v-1c0 .923-.892 1.666-2 1.666h-3c-1.108 0-2-.743-2-1.666zm11 0v1c0 .923.892 1.666 2 1.666h3c1.108 0 2-.743 2-1.666v-1c0 .923-.892 1.666-2 1.666h-3c-1.108 0-2-.743-2-1.666zm11 0v1c0 .923.892 1.666 2 1.666h3c1.108 0 2-.743 2-1.666v-1c0 .923-.892 1.666-2 1.666h-3c-1.108 0-2-.743-2-1.666zm-39 12v1c0 .923.892 1.666 2 1.666h3c1.108 0 2-.743 2-1.666v-1c0 .923-.892 1.666-2 1.666h-3c-1.108 0-2-.743-2-1.666zm11 0v1c0 .923.892 1.666 2 1.666h3c1.108 0 2-.743 2-1.666v-1c0 .923-.892 1.666-2 1.666h-3c-1.108 0-2-.743-2-1.666zm11 0v1c0 .923.892 1.666 2 1.666h3c1.108 0 2-.743 2-1.666v-1c0 .923-.892 1.666-2 1.666h-3c-1.108 0-2-.743-2-1.666zm11 0v1c0 .923.892 1.666 2 1.666h3c1.108 0 2-.743 2-1.666v-1c0 .923-.892 1.666-2 1.666h-3c-1.108 0-2-.743-2-1.666zm-35 11v1c0 .923.892 1.666 2 1.666h3c1.108 0 2-.743 2-1.666v-1c0 .923-.892 1.666-2 1.666h-3c-1.108 0-2-.743-2-1.666zm10 0v1c0 .923.932 1.666 2.088 1.666h19.824C43.068 43 44 42.257 44 41.334v-1c0 .923-.932 1.666-2.088 1.666H22.088C20.932 42 20 41.257 20 40.334zm27 0v1c0 .923.892 1.666 2 1.666h3c1.108 0 2-.743 2-1.666v-1c0 .923-.892 1.666-2 1.666h-3c-1.108 0-2-.743-2-1.666z" opacity=".1"/>
</svg>
