<svg xmlns="http://www.w3.org/2000/svg" width="64" height="64" version="1">
    <path d="M4 53.222v2C4 56.762 5.25 58 6.8 58h50.4c1.55 0 2.8-1.238 2.8-2.778v-2C60 54.762 58.75 56 57.2 56H6.8C5.25 56 4 54.762 4 53.222z" opacity=".2"/>
    <path d="M60 54.222V9.78A2.782 2.782 0 0 0 57.2 7H6.8A2.783 2.783 0 0 0 4 9.779v44.443A2.782 2.782 0 0 0 6.8 57h50.4c1.55 0 2.8-1.239 2.8-2.778z" fill="#066678"/>
    <g opacity=".2">
        <path d="M10 20v6h21.428c1.582 0 2.57.85 2.57 2.184v9.632c0 1.333-.988 2.161-2.572 2.183h-15.4V28.51H9.997V46h25.714c2.374 0 4.285-1.932 4.285-4.334V24.333c0-2.4-1.911-4.332-4.285-4.332H15.97zM46 20v6h6v-6h-.06zm0 8v18h6V28z"/>
    </g>
    <g fill="#F9F5D7">
        <path d="M10 19v6h21.428c1.582 0 2.57.85 2.57 2.184v9.632c0 1.334-.988 2.162-2.572 2.184h-15.4V27.509H9.997V45h25.714c2.374 0 4.285-1.932 4.285-4.334V23.333c0-2.4-1.911-4.332-4.285-4.332H15.97zM46 19v6h6v-6h-.06zm0 8v18h6V27z"/>
    </g>
    <path d="M6.8 7A2.783 2.783 0 0 0 4 9.777v1A2.783 2.783 0 0 1 6.8 8h50.4c1.55 0 2.8 1.238 2.8 2.777v-1A2.784 2.784 0 0 0 57.2 7H6.8z" opacity=".2" fill="#F9F5D7"/>
</svg>
