<svg xmlns="http://www.w3.org/2000/svg" width="64" height="64">
    <path d="M13.21 6a1.12 1.12 0 0 0-1.086.773L5.468 27l-3.356 9.875c-.153.46-.146.944 0 1.383.145.439.427.833.828 1.117L32 60l29.06-20.625c.4-.284.683-.678.828-1.117a2.188 2.188 0 0 0 0-1.383L58.532 27 51.876 6.773c-.342-1.03-1.83-1.03-2.172 0L43.047 27H20.953L14.296 6.773A1.12 1.12 0 0 0 13.21 6z" opacity=".2" fill-rule="evenodd"/>
    <path d="M61.888 35.875L58.53 26 52 16.368c-.342-1.029-1.833-1.029-2.175 0L43.048 26H20.953l-7.524-9.632c-.343-1.029-1.833-1.029-2.176 0L5.47 26l-3.357 9.875c-.306.921.03 1.93.831 2.499L32 59l29.057-20.626a2.206 2.206 0 0 0 .83-2.499" fill="#F15C22" fill-rule="evenodd"/>
    <path d="M13.21 5a1.12 1.12 0 0 0-1.085.773L5.469 26h15.484L14.297 5.773A1.12 1.12 0 0 0 13.21 5zm7.743 21L32 59l11.047-33zm22.094 0H58.53L51.875 5.773c-.342-1.03-1.83-1.03-2.172 0z" fill="#CB241D" fill-rule="evenodd"/>
    <path d="M5.469 26l-3.356 9.875c-.306.92.027 1.931.828 2.5L32 59zM32 59l29.059-20.625a2.207 2.207 0 0 0 .828-2.5L58.53 26z" fill="#D79921" fill-rule="evenodd"/>
    <path d="M13.21 5a1.12 1.12 0 0 0-1.085.773L5.469 26l-.38 1-2.978 8.875a2.17 2.17 0 0 0-.047 1.19c.015-.064.026-.127.047-.19L5.47 27h15.484l10.59 31.676L32 59 21.299 27H42.7L32 59l.457-.324L43.047 27H58.53l3.358 9.875c.02.063.032.126.047.19a2.171 2.171 0 0 0-.047-1.19L58.91 27l-.379-1-6.656-20.227c-.342-1.03-1.83-1.03-2.172 0L43.047 26H20.953L14.297 5.773A1.12 1.12 0 0 0 13.21 5zm0 1c.46 0 .916.259 1.087.773L20.639 26H5.783l6.342-19.227A1.12 1.12 0 0 1 13.211 6zm37.58.002c.456 0 .914.257 1.085.771L58.217 26H43.36l6.342-19.227c.171-.514.629-.771 1.086-.771z" opacity=".2" fill="#F9F5D7" fill-rule="evenodd"/>
    <path d="M5.469 26l-3.356 9.875c-.131.396-.14.807-.049 1.193.016-.064.028-.129.05-.193L5.468 27l24.515 30.57L32 59zM32 59l2.016-1.43L58.53 27l3.356 9.875c.021.064.033.129.049.193a2.183 2.183 0 0 0-.05-1.193L58.532 26z" opacity=".2" fill="#F9F5D7" fill-rule="evenodd"/>
</svg>
