<svg xmlns="http://www.w3.org/2000/svg" width="64" height="64">
    <circle cx="32" cy="33" r="28" opacity=".2"/>
    <circle cx="32" cy="32" r="28" fill="#578D57"/>
    <circle cx="32" cy="33" r="22" opacity=".1"/>
    <circle cx="32" cy="32" r="22" fill="#7CB668"/>
    <path d="M46.999 35.763c0 4.685-1.181 8.233-3.543 10.643C41.096 48.801 37.56 50 32.851 50c-3.313 0-6.174-.721-8.582-2.162-2.392-1.455-4.202-3.472-5.429-6.049C17.613 39.196 17 36.187 17 32.76c0-3.245.644-6.133 1.932-8.665s3.144-4.51 5.567-5.936C26.923 16.72 29.73 16 32.92 16c3.513 0 6.388.886 8.628 2.66A14.613 14.613 0 0 1 46.5 26h-6c-.567-1.395-1.714-2.723-3.048-3.633-1.335-.91-2.876-1.367-4.624-1.367-2.822 0-5.246 1.117-7.27 3.346-2.025 2.213-3.037 5.01-3.037 8.392 0 2.275.407 4.337 1.22 6.186.828 1.835 2.024 3.305 3.588 4.412C28.91 44.443 30.728 45 32.783 45c1.61 0 3.037-.2 4.28-.595 1.257-.41 2.284-1.061 3.082-1.956.813-.91 1.31-2.16 1.356-3.449H36v-5h11" opacity=".2" fill="#F9F5D7"/>
    <path d="M46.999 34.763c0 4.685-1.181 8.233-3.543 10.643C41.096 47.801 37.56 49 32.851 49c-3.313 0-6.174-.721-8.582-2.162-2.392-1.455-4.202-3.472-5.429-6.049C17.613 38.196 17 35.187 17 31.76c0-3.245.644-6.133 1.932-8.665s3.144-4.51 5.567-5.936C26.923 15.72 29.73 15 32.92 15c3.513 0 6.388.886 8.628 2.66A14.613 14.613 0 0 1 46.5 25h-6c-.567-1.395-1.714-2.723-3.048-3.633-1.335-.91-2.876-1.367-4.624-1.367-2.822 0-5.246 1.117-7.27 3.346-2.025 2.213-3.037 5.01-3.037 8.392 0 2.275.407 4.337 1.22 6.186.828 1.835 2.024 3.305 3.588 4.412C28.91 43.443 30.728 44 32.783 44c1.61 0 3.037-.2 4.28-.595 1.257-.41 2.284-1.061 3.082-1.956.813-.91 1.31-2.16 1.356-3.449H36v-5h11" fill="#578D57"/>
    <path d="M32 10a22 22 0 0 0-22 22 22 22 0 0 0 .021.586A22 22 0 0 1 32 11a22 22 0 0 1 21.979 21.414A22 22 0 0 0 54 32a22 22 0 0 0-22-22z" fill="#F9F5D7" opacity=".2"/>
    <path d="M32 4A28 28 0 0 0 4 32a28 28 0 0 0 .021.586A28 28 0 0 1 32 5a28 28 0 0 1 27.979 27.414A28 28 0 0 0 60 32 28 28 0 0 0 32 4z" fill="#F9F5D7" opacity=".1"/>
</svg>
