<svg xmlns="http://www.w3.org/2000/svg" width="64" height="64" version="1.0">
    <circle cx="31.5" cy="-32.5" r="28.5" transform="scale(1 -1)" opacity=".2"/>
    <circle cx="31.5" cy="-31.5" r="28.5" transform="scale(1 -1)" fill="#504945"/>
    <path d="M31.5 3A28.5 28.5 0 0 0 3 31.5a28.5 28.5 0 0 0 .021.418A28.5 28.5 0 0 1 31.5 4a28.5 28.5 0 0 1 28.479 28.082A28.5 28.5 0 0 0 60 31.5 28.5 28.5 0 0 0 31.5 3z" fill="#F9F5D7" opacity=".1"/>
    <path d="M30 10.052a22.5 22.5 0 0 0-13.295 5.532L30 28.879zm3 .024v18.803l13.3-13.301A22.5 22.5 0 0 0 33 10.076zm-18.422 7.623a22.5 22.5 0 0 0-5.502 13.3H27.88zm33.838.006L35.121 31h18.826a22.5 22.5 0 0 0-5.531-13.295zM9.053 34a22.5 22.5 0 0 0 5.531 13.295L27.879 34zm26.068 0l13.3 13.3A22.5 22.5 0 0 0 53.925 34zM30 36.12L16.7 49.423A22.5 22.5 0 0 0 30 54.924zm3 0v18.827a22.5 22.5 0 0 0 13.295-5.531z" opacity=".2"/>
    <path d="M30 9.053a22.5 22.5 0 0 0-13.295 5.531L30 27.879V9.053zm3 .023V27.88l13.3-13.3A22.5 22.5 0 0 0 33 9.075zM14.578 16.7A22.5 22.5 0 0 0 9.076 30H27.88l-13.3-13.3zm33.838.006L35.121 30h18.826a22.5 22.5 0 0 0-5.531-13.295zM9.053 33a22.5 22.5 0 0 0 5.531 13.295L27.879 33H9.053zm26.068 0l13.3 13.3A22.5 22.5 0 0 0 53.925 33H35.12zM30 35.121l-13.3 13.3A22.5 22.5 0 0 0 30 53.925V35.12zm3 0v18.826a22.5 22.5 0 0 0 13.295-5.531L33 35.121z" fill="#F9F5D7"/>
</svg>
