<svg xmlns="http://www.w3.org/2000/svg" width="64" height="64" version="1">
    <path d="M4 56v2c0 1.662 1.338 3 3 3h50c1.662 0 3-1.338 3-3v-2c0 1.662-1.338 3-3 3H7c-1.662 0-3-1.338-3-3z" opacity=".2"/>
    <rect width="56" height="56" x="4" y="4" rx="3" ry="3" fill="#F2E5BC"/>
    <path d="M10 18v2h44v-2H10zm0 6v2h44v-2H10zm0 6v2h44v-2H10zm0 6v2h44v-2H10zm0 6v2h44v-2H10z" opacity=".5" fill="#282727" fill-rule="evenodd"/>
    <path d="M7 4C5.338 4 4 5.338 4 7v1c0-1.662 1.338-3 3-3h50c1.662 0 3 1.338 3 3V7c0-1.662-1.338-3-3-3H7z" opacity=".1" fill="#F9F5D7"/>
    <path d="M28.391 30.775c-1.183-1.24-2.874-2.015-4.902-1.86-.17-.31-.845-3.411-.845-3.411s2.366-3.256 2.873-3.876c2.536-3.721 2.705-6.667 1.184-9.613C26.194 10.93 24.84 10 23.489 10c-1.015 0-1.86.775-2.367 1.705-1.69 2.636-1.69 7.597-.845 11.008 0 0-.846.775-1.69 1.706-1.691 1.705-3.551 3.565-4.227 6.046-.845 2.79-.17 5.426 1.69 7.442 2.029 2.325 5.072 3.41 8.791 3.1.676 2.946 1.184 4.807.17 6.512-.339.62-1.015 1.24-2.198 1.24-.339 0-.508 0-.846-.155 1.015-.465 1.86-1.395 1.86-2.48 0-1.55-1.353-2.79-3.043-2.79-2.874.154-3.043 2.79-3.043 2.79 0 .93.338 1.86 1.014 2.48.846.776 2.198 1.396 3.72 1.396 1.86 0 3.719-.62 4.395-3.101.676-2.015-.507-5.271-.676-6.357 1.86-.775 3.55-3.1 3.719-4.65.338-1.706-.338-3.722-1.522-5.117zm-5.41-17.21c.17-.31.508-.464.846-.464.169 0 .507.155.676.31.676.31.845.93.845 1.86-.169 2.326-2.366 5.117-3.55 6.047-.507-2.17-.169-6.202 1.184-7.752zM18.08 37.908c-1.183-1.085-1.69-2.636-1.521-4.186.338-2.48 2.197-4.496 3.719-6.047.338-.31.676-.62.845-.93.17.775.676 2.016.845 2.636-2.028.775-3.212 3.256-3.043 5.271 0 .93.338 1.55.846 2.17.169.156.338.31.507.31.169 0 .507-.154.507-.31a.443.443 0 0 0 0-.62c-.17-.155-.17-.31-.17-.62-.168-1.395.846-2.48 2.03-2.945.169.93 1.352 5.736 1.521 6.821-2.198.62-4.564 0-6.086-1.55zm7.608.93c-.339-1.085-.508-2.326-.846-3.72-.169-.931-.338-2.016-.676-2.947 2.198 0 2.874 1.706 3.043 2.326.507 1.705 0 3.41-1.521 4.341z" fill="#282727"/>
</svg>
