<svg xmlns="http://www.w3.org/2000/svg" width="64" height="64" version="1">
    <path d="M19 5v10H5v30h10v10h10v6h24V51h10V25H39V5z" opacity=".2"/>
    <path fill="#8F3F71" d="M9 4h10v10H9z"/>
    <path fill="#7B6F64" d="M39 4h10v10H39z"/>
    <path d="M19 4v10H5v20h10v10h10v16h14V50h10V40h10V24H39V4z" fill="#448588"/>
    <path fill="#B7BB25" d="M39 14h10v10H39z"/>
    <path fill="#FECE4F" d="M49 40h10v10H49z"/>
    <path fill="#7B6F64" d="M39 50h10v10H39z"/>
    <path fill="#B7BB25" d="M15 44h10v10H15z"/>
    <path fill="#CB241D" d="M5 34h10v10H5z"/>
    <path fill="#8F3F71" d="M49 14h10v10H49z"/>
    <path opacity=".1" fill="#F9F5D7" d="M9 4h40v1H9zM5 14h54v1H5z"/>
    <path opacity=".2" d="M39 24h20v1H39z"/>
    <path d="M20.157 9.465c4.493-.837 10.149-.55 14.87.904 3.054.777 5.167 2.39 7.074 4.562 3.069 3.79 4.917 8.677 4.838 13.098.395 5.863-1.15 11.948-4.31 15.62-1.439 1.633-4.543 4.168-7.349 6.762 0 0-.744.891-.704 1.422.06.794.523 1.295.99 1.81.264.293.685.559 1.077.813 1.076.575.984 1.957.61 2.588-.844.868-1.811 1.338-2.877 1.721-1.269.468-1.768.239-2.534-.704a11.229 11.229 0 0 1-1.703-2.647c-.938-1.712-1.1-3.286-.871-5.073.248-.808.734-1.505 1.483-2.524 1.142-1.433 2.266-2.589 3.336-4.393.736-1.165-.059-1.423-.563-1.881-2.524-2.268-5.196-3.574-6.82-6.151 2.006-2.213 2.284-4.87 2.867-7.45-2.433 4.845-3.928 8.13-8.735 6.645-2.061-.843-3.785-2.33-4.954-3.731-3.188-4.355-2.893-8.427-2.86-10.108.042-2.158.517-5.126 1.867-7.31 1.254-2.303 3.08-3.25 5.268-3.973z" opacity=".2"/>
    <path d="M20.157 8.465c4.493-.837 10.149-.55 14.87.904 3.054.777 5.167 2.39 7.074 4.562 3.069 3.79 4.917 8.677 4.838 13.098.395 5.863-1.15 11.948-4.31 15.62-1.439 1.633-4.543 4.168-7.349 6.762 0 0-.744.891-.704 1.422.06.794.523 1.295.99 1.81.264.293.685.559 1.077.813 1.076.575.984 1.957.61 2.588-.844.868-1.811 1.338-2.877 1.721-1.269.468-1.768.239-2.534-.704a11.229 11.229 0 0 1-1.703-2.647c-.938-1.712-1.1-3.286-.871-5.073.248-.808.734-1.505 1.483-2.524 1.142-1.433 2.266-2.589 3.336-4.393.736-1.165-.059-1.423-.563-1.881-2.524-2.268-5.196-3.574-6.82-6.151 2.006-2.213 2.284-4.87 2.867-7.45-2.433 4.845-3.928 8.13-8.735 6.645-2.061-.843-3.785-2.33-4.954-3.731-3.188-4.355-2.893-8.427-2.86-10.108.042-2.158.517-5.126 1.867-7.31 1.254-2.303 3.08-3.25 5.268-3.973z" fill="#48B9C7"/>
    <circle cx="39" cy="26" r="2" fill="#3A393A"/>
    <path d="M38.214 35.579l6.306 5.218c-.862-.025-1.991.29-3.244.18-2.723-.24-5.976-1-6.24-1.985-.15-1.365.14-2.431 1.474-3.513.822-.708.91-.595 1.704.1z" opacity=".2"/>
    <path d="M38.214 34.579l6.306 5.218c-.862-.025-1.991.29-3.244.18-2.723-.24-5.976-1-6.24-1.985-.15-1.365.14-2.431 1.474-3.513.822-.708.91-.595 1.704.1z" fill="#F9F5D7"/>
    <path opacity=".2" d="M49 40h10v1H49zM39 50h10v1H39zM15 44h10v1H15zM5 34h10v1H5z"/>
    <path d="M25.592 8c-1.902-.005-3.75.151-5.436.465-2.188.723-4.013 1.67-5.267 3.973-1.35 2.184-1.825 5.152-1.868 7.31-.008.446-.032 1.068-.007 1.81.005-.269.004-.607.007-.81.043-2.158.518-5.126 1.868-7.31 1.254-2.303 3.08-3.25 5.267-3.973 4.493-.836 10.15-.55 14.871.904 3.054.777 5.168 2.39 7.075 4.563 3.068 3.79 4.917 8.677 4.837 13.097.035.508.036 1.018.041 1.528.023-.843.016-1.686-.04-2.528.079-4.42-1.77-9.307-4.838-13.097-1.907-2.172-4.02-3.786-7.075-4.563-2.95-.908-6.266-1.361-9.435-1.369zm3.978 19.941l-.363.721c-.426 2.015-.942 4.008-2.504 5.73.117.187.251.352.379.526 1.65-2.113 1.946-4.578 2.488-6.977zm4.653 14.227c-.04.083-.076.162-.135.256-1.07 1.804-2.196 2.96-3.338 4.392-.748 1.02-1.234 1.717-1.482 2.524a9.746 9.746 0 0 0-.069 1.974c.013-.32.026-.64.069-.974.248-.807.734-1.505 1.482-2.524 1.142-1.432 2.268-2.588 3.338-4.392.394-.624.339-.982.135-1.256zm.463 9.19c-.072.168-.12.333-.11.474.06.794.524 1.297.99 1.813.265.292.685.556 1.077.81.464.248.702.649.802 1.072.161-.69.036-1.624-.802-2.072-.392-.254-.812-.518-1.077-.81-.354-.392-.705-.778-.88-1.288z" opacity=".2" fill="#F9F5D7"/>
</svg>
