<svg xmlns="http://www.w3.org/2000/svg" width="64" height="64" version="1">
    <path d="M32 6c-9.388 0-17 7.627-17 17.034-.034 5.102 4.47 9.56 6.538 14.414C22.46 39.612 24.154 44 24.154 44h15.692s1.694-4.388 2.616-6.552C44.53 32.594 48.91 28.08 49 23.034c0-9.407-7.612-17.033-17-17.033z" fill="#FA4934"/>
    <path d="M39.846 44L37.23 55.4c-.322 1.404-1.166 2.6-2.614 2.6h-5.23c-1.45 0-2.312-1.192-2.616-2.6L24.154 44z" fill="#504945"/>
    <path d="M24.668 46l.446 2h13.772l.446-2H24.668zm.894 4l.446 2h11.984l.446-2H25.562zm.896 4l.312 1.398c.046.212.128.404.198.602h10.06c.072-.198.156-.39.202-.602L37.542 54H26.458zM31.999 6C22.612 6 15 13.628 15 23.036c-.001.166.017.329.025.494C15.294 14.357 22.781 7 32 7c9.15 0 16.592 7.252 16.963 16.33.016-.097.034-.194.036-.294 0-9.408-7.612-17.036-17-17.036z" opacity=".2" fill="#F9F5D7"/>
    <path d="M48.97 23.45c-.311 4.877-4.496 9.279-6.51 14-.92 2.161-2.612 6.55-2.612 6.55H24.152s-1.691-4.389-2.611-6.55c-2-4.69-6.262-9.014-6.518-13.901-.01.162-.023.323-.023.488-.035 5.1 4.472 9.558 6.541 14.412.92 2.162 2.611 6.551 2.611 6.551h15.696s1.693-4.389 2.613-6.55C44.53 33.594 48.91 29.08 49 24.036c0-.199-.02-.392-.03-.588z" opacity=".2"/>
    <path d="M24.152 45l2.618 11.398C27.074 57.806 27.935 59 29.383 59h5.234c1.448 0 2.291-1.198 2.613-2.602L39.848 45h-.23L37.23 55.398C36.908 56.802 36.065 58 34.617 58h-5.234c-1.448 0-2.31-1.194-2.613-2.602L24.383 45h-.23z" opacity=".2"/>
</svg>
