<svg xmlns="http://www.w3.org/2000/svg" width="64" height="64" version="1">
    <path d="M39.37 5.492A14.208 14.208 0 0 0 21.93 15.561 14.207 14.207 0 0 0 4.493 25.629 14.208 14.208 0 0 0 14.56 43.07 14.208 14.208 0 0 0 24.63 60.508a14.208 14.208 0 0 0 17.439-10.069 14.208 14.208 0 0 0 17.439-10.068 14.208 14.208 0 0 0-10.069-17.44A14.208 14.208 0 0 0 39.371 5.494z" opacity=".2"/>
    <path d="M39.37 4.493A14.208 14.208 0 0 0 21.93 14.56 14.207 14.207 0 0 0 4.493 24.629 14.208 14.208 0 0 0 14.56 42.07 14.208 14.208 0 0 0 24.63 59.508a14.208 14.208 0 0 0 17.439-10.069 14.208 14.208 0 0 0 17.439-10.068 14.208 14.208 0 0 0-10.069-17.44A14.208 14.208 0 0 0 39.371 4.494z" fill="#A04A73"/>
    <path d="M35.107 4.01a14.21 14.21 0 0 0-13.175 10.55A14.208 14.208 0 0 0 4.492 24.63a14.296 14.296 0 0 0-.47 4.387c.026-1.12.167-2.255.47-3.387a14.208 14.208 0 0 1 17.44-10.068A14.207 14.207 0 0 1 39.369 5.492h.002a14.204 14.204 0 0 1 10.54 13.053A14.194 14.194 0 0 0 39.37 4.492h-.002a14.303 14.303 0 0 0-4.262-.482zm14.534 17.986c-.062.312-.118.624-.202.936a14.204 14.204 0 0 1 10.54 13.052A14.188 14.188 0 0 0 49.64 21.996zM14.359 43.004a14.258 14.258 0 0 0-.27 3.441 14.32 14.32 0 0 1 .472-3.377c-.07-.018-.133-.045-.202-.064z" fill="#F9F5D7" opacity=".1"/>
    <path d="M52.41 21.216a11.758 11.758 0 0 0-16.097-4.314 11.758 11.758 0 0 0-16.097-4.313 11.758 11.758 0 0 0-4.314 16.098 11.758 11.758 0 0 0-4.313 16.097 11.758 11.758 0 0 0 16.098 4.314 11.758 11.758 0 0 0 16.097 4.313 11.758 11.758 0 0 0 4.314-16.098 11.758 11.758 0 0 0 4.313-16.097z" opacity=".2"/>
    <path d="M52.41 20.216a11.758 11.758 0 0 0-16.097-4.314 11.758 11.758 0 0 0-16.097-4.313 11.758 11.758 0 0 0-4.314 16.098 11.758 11.758 0 0 0-4.313 16.097 11.758 11.758 0 0 0 16.098 4.314 11.758 11.758 0 0 0 16.097 4.313 11.758 11.758 0 0 0 4.314-16.098 11.758 11.758 0 0 0 4.313-16.097z" fill="#C77089"/>
    <path d="M34.095 25.182a5.396 5.396 0 0 0-5.57 1.8 5.396 5.396 0 0 0-4.343 3.923 5.396 5.396 0 0 0 1.8 5.57 5.396 5.396 0 0 0 3.923 4.343 5.396 5.396 0 0 0 5.57-1.8 5.396 5.396 0 0 0 4.343-3.923 5.396 5.396 0 0 0-1.8-5.57 5.396 5.396 0 0 0-3.923-4.343z" opacity=".2"/>
    <path d="M34.095 24.182a5.396 5.396 0 0 0-5.57 1.8 5.396 5.396 0 0 0-4.343 3.923 5.396 5.396 0 0 0 1.8 5.57 5.396 5.396 0 0 0 3.923 4.343 5.396 5.396 0 0 0 5.57-1.8 5.396 5.396 0 0 0 4.343-3.923 5.396 5.396 0 0 0-1.8-5.57 5.396 5.396 0 0 0-3.923-4.343z" fill="#D3869B"/>
    <path d="M25.797 10.004a11.774 11.774 0 0 0-5.582 1.586 11.749 11.749 0 0 0-5.881 10.73 11.742 11.742 0 0 1 5.88-9.73 11.758 11.758 0 0 1 16.098 4.312 11.758 11.758 0 0 1 16.098 4.313 11.765 11.765 0 0 1 1.569 5.357c.084-2.149-.41-4.35-1.569-6.357a11.758 11.758 0 0 0-16.098-4.313 11.757 11.757 0 0 0-10.515-5.898zm-10.28 17.932a11.74 11.74 0 0 0-5.496 10.492 11.742 11.742 0 0 1 5.881-9.74c-.142-.247-.262-.5-.384-.752zm32.965 9.128c-.13.082-.25.171-.384.249a11.764 11.764 0 0 1 1.568 5.367 11.72 11.72 0 0 0-1.184-5.616z" fill="#F9F5D7" opacity=".1"/>
    <path d="M32.492 24.004a5.396 5.396 0 0 0-3.967 1.978 5.396 5.396 0 0 0-4.343 3.922 5.396 5.396 0 0 0-.153 1.887 5.396 5.396 0 0 1 .153-.887 5.396 5.396 0 0 1 4.343-3.922 5.396 5.396 0 0 1 5.57-1.8 5.396 5.396 0 0 1 3.923 4.343 5.396 5.396 0 0 1 1.953 3.682 5.396 5.396 0 0 0-1.953-4.682 5.396 5.396 0 0 0-3.922-4.343 5.396 5.396 0 0 0-1.604-.178z" fill="#F9F5D7" opacity=".2"/>
</svg>
