<svg xmlns="http://www.w3.org/2000/svg" width="64" height="64">
    <path d="M32 33A28 14 0 0 0 4 47a28 14 0 0 0 28 14 28 14 0 0 0 28-14 28 14 0 0 0-28-14z" opacity=".2"/>
    <path d="M32 32A28 14 0 0 0 4 46a28 14 0 0 0 28 14 28 14 0 0 0 28-14 28 14 0 0 0-28-14z" fill="#665C54"/>
    <path d="M32 19A28 14 0 0 0 4 33a28 14 0 0 0 28 14 28 14 0 0 0 28-14 28 14 0 0 0-28-14z" opacity=".2"/>
    <path d="M32 18A28 14 0 0 0 4 32a28 14 0 0 0 28 14 28 14 0 0 0 28-14 28 14 0 0 0-28-14z" fill="#928274"/>
    <path d="M32 5A28 14 0 0 0 4 19a28 14 0 0 0 28 14 28 14 0 0 0 28-14A28 14 0 0 0 32 5z" opacity=".2"/>
    <path d="M32 4A28 14 0 0 0 4 18a28 14 0 0 0 28 14 28 14 0 0 0 28-14A28 14 0 0 0 32 4z" fill="#F9F5D7"/>
    <path d="M32 4A28 14 0 0 0 4 18a28 14 0 0 0 .041.41A28 14 0 0 1 32 5a28 14 0 0 1 27.953 13.537A28 14 0 0 0 60 18 28 14 0 0 0 32 4z" opacity=".2" fill="#F9F5D7"/>
</svg>
