<svg xmlns="http://www.w3.org/2000/svg" width="64" height="64" version="1">
    <path d="M6 44.352v2C6 47.876 7.242 49 8.781 49H26l6 6 6-6h17.222C56.76 49 58 47.876 58 46.352v-2C58 45.876 56.76 47 55.222 47H38l-6 6-6-6H8.782C7.243 47 6 45.876 6 44.352z" opacity=".2"/>
    <path d="M8.78 10C7.24 10 6 11.228 6 12.75v32.6c0 1.524 1.24 2.65 2.778 2.65H26l6 6 6-6h17.223c1.538 0 2.776-1.126 2.776-2.65v-32.6A2.757 2.757 0 0 0 55.22 10z" fill="#066678"/>
    <path d="M8.78 10a2.758 2.758 0 0 0-2.778 2.75v1.002a2.758 2.758 0 0 1 2.777-2.75h46.444A2.757 2.757 0 0 1 58 13.752V12.75A2.757 2.757 0 0 0 55.223 10H8.779z" opacity=".2" fill="#F9F5D7"/>
    <path d="M48 19.073a13.126 13.126 0 0 1-3.771 1.033 6.585 6.585 0 0 0 2.886-3.632 13.146 13.146 0 0 1-4.169 1.593 6.557 6.557 0 0 0-4.792-2.073 6.565 6.565 0 0 0-6.395 8.061 18.638 18.638 0 0 1-13.532-6.859 6.534 6.534 0 0 0-.889 3.3 6.562 6.562 0 0 0 2.92 5.465 6.538 6.538 0 0 1-2.973-.821v.082a6.569 6.569 0 0 0 5.266 6.438 6.575 6.575 0 0 1-2.965.112 6.572 6.572 0 0 0 6.133 4.56 13.172 13.172 0 0 1-8.153 2.81c-.53 0-1.053-.031-1.567-.092A18.583 18.583 0 0 0 26.065 42c12.076 0 18.68-10.004 18.68-18.679 0-.285-.007-.568-.02-.85a13.343 13.343 0 0 0 3.276-3.398" opacity=".6"/>
</svg>
