<svg xmlns="http://www.w3.org/2000/svg" width="64" height="64" version="1">
    <rect width="56" height="56" x="4" y="4" rx="2.8" ry="2.8" fill="#504945"/>
    <path d="M6.8 4C5.25 4 4 5.25 4 6.8v1C4 6.25 5.25 5 6.8 5h50.4C58.75 5 60 6.25 60 7.8v-1C60 5.25 58.75 4 57.2 4H6.8z" opacity=".1" fill="#F9F5D7"/>
    <path d="M4 57.2v1C4 59.75 5.25 61 6.8 61h50.4c1.55 0 2.8-1.25 2.8-2.8v-1c0 1.55-1.25 2.8-2.8 2.8H6.8C5.25 60 4 58.75 4 57.2zM9 25l6.45 16h4.6l6.35-16h-4.35L17.7 35.55 13.4 25H9z" opacity=".2"/>
    <path d="M9 24l6.45 16h4.6l6.35-16h-4.35L17.7 34.55 13.4 24H9z" fill="#A04A73"/>
    <path d="M30.65 25A793.776 793.776 0 0 1 24 41h4.6l4.3-10.5L37.15 41h4.6L46 30.2 50.4 41H55c-2.283-5.311-4.534-10.639-6.7-16h-4.6l-4.25 10.55L35.1 25h-4.45z" opacity=".2"/>
    <path d="M30.65 24A793.776 793.776 0 0 1 24 40h4.6l4.3-10.5L37.15 40h4.6L46 29.2 50.4 40H55c-2.283-5.311-4.534-10.639-6.7-16h-4.6l-4.25 10.55L35.1 24h-4.45z" fill="#83A498"/>
</svg>
