<svg xmlns="http://www.w3.org/2000/svg" width="64" height="64">
    <path d="M12.75 5C11.226 5 10 6.249 10 7.8v50.4c0 1.551 1.226 2.8 2.75 2.8h38.5c1.523 0 2.75-1.249 2.75-2.8V21l-13.75-2L38 5z" opacity=".2"/>
    <path d="M12.75 4C11.226 4 10 5.249 10 6.8v50.4c0 1.551 1.226 2.8 2.75 2.8h38.5c1.523 0 2.75-1.249 2.75-2.8V20l-13.75-2L38 4z" fill="#FA4934"/>
    <path d="M14 8v48h36V19.86l-9.692-1.978L38.368 8z" fill="#F9F5D7"/>
    <path d="M38 17.332v1A2.663 2.663 0 0 0 40.668 21H54v-1H40.668A2.663 2.663 0 0 1 38 17.332z" opacity=".1"/>
    <path d="M54 20L38 4v13.333A2.66 2.66 0 0 0 40.667 20z" fill="#BE4C1D"/>
    <g fill="#3A393A">
        <path d="M24.667 26.8L46 49.2 43.333 52 22 29.6z"/>
        <path d="M34 25.4L32.667 24c-2.336 1.812-3.896 2.49-7.098 1.733L20.667 31 18 33.8l4 4.2z"/>
    </g>
    <path d="M29.398 44.949L30.333 49l-3 3H24l3.333-3.333-1-3-3-1L20 48v-3.333l3-3 3.333.666 1.077.24 9.429-9.07L35.667 29l3-3H42l-3.333 3.333 1 3 3 1L46 30v3.333l-3 3-4.173-.813z" fill="#665C54"/>
    <path d="M12.75 4C11.226 4 10 5.25 10 6.8v1C10 6.25 11.226 5 12.75 5H38V4H12.75z" opacity=".2" fill="#F9F5D7"/>
    <path opacity=".2" d="M14 56h36v1H14z"/>
</svg>
