<svg xmlns="http://www.w3.org/2000/svg" width="64" height="64" version="1">
    <path d="M59.958 31.828A28 28 0 0 1 32 59 28 28 0 0 1 4.044 32.172 28 28 0 0 0 4 33a28 28 0 0 0 28 28 28 28 0 0 0 28-28 28 28 0 0 0-.042-1.172z" opacity=".2"/>
    <circle cx="32" cy="32" r="28" fill="#F15C22"/>
    <rect width="40" height="40" x="-53" y="-52" rx="20" ry="20" transform="matrix(0 -1 -1 0 0 0)" opacity=".2"/>
    <rect width="40" height="40" x="-52" y="-52" rx="20" ry="20" transform="matrix(0 -1 -1 0 0 0)" fill="#FD8019"/>
    <path d="M28 23v10.54a4 4 0 0 0-2-.54 4 4 0 1 0 4 4V27h8v6.539a4 4 0 0 0-2-.54 4 4 0 1 0 4 4V23h-1z" opacity=".2"/>
    <path d="M28 22v10.54a4 4 0 0 0-2-.54 4 4 0 1 0 4 4V26h8v6.539a4 4 0 0 0-2-.54 4 4 0 1 0 4 4V22h-1z" fill="#F9F5D7"/>
    <path d="M31.998 4A28 28 0 0 0 4 32a28 28 0 0 0 .018.492A28 28 0 0 1 31.998 5H32a28 28 0 0 1 27.973 27.5 28 28 0 0 0 .025-.5A28 28 0 0 0 32 4h-.002z" opacity=".2" fill="#F9F5D7"/>
    <path d="M32 12c-11.08 0-20 8.92-20 20 0 .168.008.333.012.5A19.952 19.952 0 0 1 32 13a19.952 19.952 0 0 1 19.988 19.5c.004-.167.012-.332.012-.5 0-11.08-8.92-20-20-20z" fill="#F9F5D7" opacity=".2"/>
</svg>
