<svg xmlns="http://www.w3.org/2000/svg" width="64" height="64" version="1">
    <path d="M60 33a28 28 0 0 1-28 28A28 28 0 0 1 4 33 28 28 0 0 1 32 5a28 28 0 0 1 28 28z" opacity=".2"/>
    <path d="M60 32a28 28 0 0 1-28 28A28 28 0 0 1 4 32 28 28 0 0 1 32 4a28 28 0 0 1 28 28z" fill="#504945"/>
    <path d="M32 16c-.816 0-1.633.037-2.152.111-6.27.897-9.973 3.93-10.715 8.776-.082.535-.106 1.485-.12 5.127L19 34.34l.18.287c.449.713 1.072 1.213 4.023 3.246 4.934 3.398 6.962 4.638 8.211 5.016.197.06.468.11.604.111.829.011 3.252-1.338 6.921-3.855 4.577-3.14 5.426-3.79 5.872-4.502L45 34.34V30.77c0-4.653-.033-5.477-.252-6.474-.39-1.779-1.102-3.184-2.236-4.408-1.82-1.965-4.667-3.25-8.362-3.778C33.631 16.037 32.816 16 32 16zm0 6c4 0 5.936 2.358 6.838 5.246.159.509.162.53.162 2.598 0 1.147-.018 2.106-.041 2.129-.023.023-3.14.032-6.959.023-3.818.009-6.936 0-6.959-.023-.023-.023-.041-.982-.041-2.13 0-2.068.003-2.088.162-2.597C26.064 24.358 28 22 32 22zm13 15.34l-.19.303c-.445.711-1.294 1.362-5.87 4.502-3.67 2.517-6.093 3.866-6.922 3.855a2.73 2.73 0 0 1-.604-.111c-1.249-.378-3.277-1.618-8.21-5.016-2.952-2.033-3.575-2.533-4.024-3.246l-.176-.281v.804c0 .018-.004.033-.004.051v6.602c0 .061.015.113.018.174l.013 3.88.196.36c.15.274.27.398.515.539l.319.185 5.18.032c2.848.016 8.182.029 11.85.027l6.673-.004.322-.135c.414-.174.536-.279.728-.632l.155-.29.006-3.87c.005-.092.025-.172.025-.266V38.2c0-.012-.004-.023-.004-.035L45 37.34z" opacity=".2"/>
    <path d="M32 15c-.816 0-1.633.037-2.152.111-6.27.897-9.973 3.93-10.715 8.776-.082.535-.106 1.485-.12 5.127L19 33.34l.18.287c.449.713 1.072 1.213 4.023 3.246 4.934 3.398 6.962 4.638 8.211 5.016.197.06.468.11.604.111.829.011 3.252-1.338 6.921-3.855 4.577-3.14 5.426-3.79 5.872-4.502L45 33.34V29.77c0-4.653-.033-5.477-.252-6.474-.39-1.779-1.102-3.184-2.236-4.408-1.82-1.965-4.667-3.25-8.362-3.778C33.631 15.037 32.816 15 32 15zm0 6c4 0 5.936 2.358 6.838 5.246.159.509.162.53.162 2.598 0 1.147-.018 2.106-.041 2.129-.023.023-3.14.032-6.959.023-3.818.009-6.936 0-6.959-.023-.023-.023-.041-.982-.041-2.13 0-2.068.003-2.088.162-2.597C26.064 23.358 28 21 32 21zm13 15.34l-.19.303c-.445.711-1.294 1.362-5.87 4.502-3.67 2.517-6.093 3.866-6.922 3.855a2.733 2.733 0 0 1-.604-.111c-1.249-.378-3.277-1.618-8.21-5.016-2.952-2.033-3.575-2.533-4.024-3.246l-.176-.281v.804c0 .018-.004.033-.004.051v6.602c0 .061.015.113.018.174l.013 3.88.196.36c.15.274.27.398.515.539l.319.185 5.18.032c2.848.016 8.182.029 11.85.027l6.673-.004.322-.135c.414-.174.536-.279.728-.632l.155-.29.006-3.87c.005-.092.025-.172.025-.266V37.2c0-.012-.004-.023-.004-.035L45 36.34z" fill="#F9F5D7"/>
    <path d="M32 4A28 28 0 0 0 4 32a28 28 0 0 0 .021.586A28 28 0 0 1 32 5a28 28 0 0 1 27.979 27.414A28 28 0 0 0 60 32 28 28 0 0 0 32 4z" fill="#F9F5D7" opacity=".1"/>
</svg>
