<svg xmlns="http://www.w3.org/2000/svg" width="64" height="64" version="1">
    <rect width="56" height="56" x="4" y="5" rx="28" ry="28" opacity=".2"/>
    <path d="M60 32c0-1.06-.058-2.105-.172-3.133-.686-6.216-6.658-8.62-10.715-12.917-5.098-5.402-8.983-11.133-17.031-11.133-.674 0-1.423-.793-2.084-.747C15.428 5.09 4 17.16 4 32c0 9.47 4.654 17.812 11.808 22.874 4.566 3.231 10.803 2.185 16.846 2.185 3.57 0 7.18-3.238 9.443-5.392C47 47 53.04 51.563 56.213 46.11A27.951 27.951 0 0 0 60 32z" fill="#504945"/>
    <path d="M32 4C16.488 4 4 16.488 4 32c0 .113.011.224.018.336C4.369 17.134 16.71 5 32 5c15.29 0 27.63 12.134 27.982 27.336.007-.112.018-.223.018-.336C60 16.488 47.512 4 32 4z" opacity=".1" fill="#F9F5D7"/>
    <path d="M31.393 5.014c-1.45.03-2.872.172-4.257.413-.04.033-.069.066-.069.103 0 .111.248.203.55.203 4.522.57 9.128 2.162 12.74 4.667 2.756 1.944 5.049 5.668 6.553 8.623.834 1.638.807.943-2.658-.292-2.672-.953-5.837-1.925-6.045-1.696-.085.095-.314 1.355-.506 1.944-.364 1.12-1.058 2.3-1.218 2.14-.05-.05.048-.76.221-1.578.378-1.78.399-3.517.093-4.94-.33-1.54-.528-1.635-2.302-1.107-.82.244-2.587.684-3.926.979-4.01.882-7.446 2.756-9.932 4.25-1.463.88-1.78.917-1.597.19.233-.93-.416-.63-2.094.965-1.583 1.503-2.068 1.778-2.068 1.178 0-.7-.42-.244-1.233 1.34a37.458 37.458 0 0 0-1.454 3.268c-.488 1.3-.923 1.966-2.286 3.489-2.647 2.956-2.748 3.582-.586 3.582 1.607 0 1.65.41.08.749l-1.056.227.02 1.299c.025 1.77.574 2.853 1.717 3.385.545.254 1.032.69 1.277 1.143.393.73 1.46 1.772 1.815 1.772.103 0 .13-.468.063-1.04-.137-1.155.333-2.46 1.017-2.827.315-.168.495-.07.949.525.56.734 1.566 1.525 1.73 1.36.049-.049-.15-.703-.445-1.453-.806-2.058-.735-2.37.375-3.336 1.259-1.097 2.595-1.67 3.492-1.501 1.378.258 3.348 2.476 3.647 3.67.18.717-.255 1.7-1.044 2.365-.818.688-1.506 1.591-2.037 1.591-.223 0-.86-.397-1.411-.883-.552-.486-1.056-.83-1.119-.768-.062.062-.007.482.118.935.126.453.229.946.23 1.094.002.472-1.2.287-2.464-.378-.672-.353-1.26-.642-1.307-.642-.393 0 1.063 5.003 1.744 5.908.506.673 1.018 1.036 1.665 1.078.86.057 1.959-.452 3.602-1.553 2.728-1.83 5.09-3.887 7.822-4.331 1.497-.244 2.268.057 3.358 1.318C34.654 44.175 38.35 52.883 38 53.795c-3.725 2.398-8.093 3.17-12.206 3.205-4.307.123-7.523-1.029-11.264-2.109A27.895 27.895 0 0 0 32 61c10.787 0 20.099-6.046 24.779-14.94-2.759-1.426-7.546-3.601-10.486-4.65-.975-.346-1.593-.676-1.482-.787.398-.398 8.246.956 11.886 2.051.271.082.906.287 1.397.454.193-.5.388-.996.552-1.51-.621-.325-1.341-.707-1.681-.89-2.91-1.573-7.286-3.16-11.465-4.162-3.724-.893-3.57-.842-3.159-1.072.762-.426 10.341.483 15.212 1.443.23.046 1.306.241 2.116.392.11-.72.188-1.453.243-2.19-1.022-.476-2.233-.954-3.56-1.434-3.99-1.443-9.703-2.252-14.828-2.545-2.187-.124-3.002-.562-2.464-.787C42.49 29.74 43.2 29 49.72 29c3.56.205 6.892.744 10.157 1.405-1.124-12.329-10.17-22.292-22.036-24.793-.105-.021-.26-.055-.361-.076-.231-.046-.464-.083-.698-.123-.233-.04-.458-.084-.716-.118-.103-.015-.208-.024-.312-.038-1.343-.16-2.912-.234-4.361-.243z" opacity=".2"/>
    <path d="M31.393 4.014c-1.45.03-2.872.172-4.257.413-.04.033-.069.066-.069.103 0 .111.248.203.55.203 4.522.57 9.128 2.162 12.74 4.667 2.756 1.944 5.049 5.668 6.553 8.623.834 1.638.807.943-2.658-.292-2.672-.953-5.837-1.925-6.045-1.696-.085.095-.314 1.355-.506 1.944-.364 1.12-1.058 2.3-1.218 2.14-.05-.05.048-.76.221-1.578.378-1.78.399-3.517.093-4.94-.33-1.54-.528-1.635-2.302-1.107-.82.244-2.587.684-3.926.979-4.01.882-7.446 2.756-9.932 4.25-1.463.88-1.78.917-1.597.19.233-.93-.416-.63-2.094.965-1.583 1.503-2.068 1.778-2.068 1.178 0-.7-.42-.244-1.233 1.34a37.458 37.458 0 0 0-1.454 3.268c-.488 1.3-.923 1.966-2.286 3.489-2.647 2.956-2.748 3.582-.586 3.582 1.607 0 1.65.41.08.749l-1.056.227.02 1.299c.025 1.77.574 2.853 1.717 3.385.545.254 1.032.69 1.277 1.143.393.73 1.46 1.772 1.815 1.772.103 0 .13-.468.063-1.04-.137-1.155.333-2.46 1.017-2.827.315-.168.495-.07.949.525.56.734 1.566 1.525 1.73 1.36.049-.049-.15-.703-.445-1.453-.806-2.058-.735-2.37.375-3.336 1.259-1.097 2.595-1.67 3.492-1.501 1.378.258 3.348 2.476 3.647 3.67.18.717-.255 1.7-1.044 2.365-.818.688-1.506 1.591-2.037 1.591-.223 0-.86-.397-1.411-.883-.552-.486-1.056-.83-1.119-.768-.062.062-.007.482.118.935.126.453.229.946.23 1.094.002.472-1.2.287-2.464-.378-.672-.353-1.26-.642-1.307-.642-.393 0 1.063 5.003 1.744 5.908.506.673 1.018 1.036 1.665 1.078.86.057 1.959-.452 3.602-1.553 2.728-1.83 5.09-3.887 7.822-4.331 1.497-.244 2.268.057 3.358 1.318C34.654 43.175 38.35 51.883 38 52.795c-3.725 2.398-8.093 3.17-12.206 3.205-4.307.123-7.523-1.029-11.264-2.109A27.895 27.895 0 0 0 32 60c10.787 0 20.099-6.046 24.779-14.94-2.759-1.426-7.546-3.601-10.486-4.65-.975-.346-1.593-.676-1.482-.787.398-.398 8.246.956 11.886 2.051.271.082.906.287 1.397.454.193-.5.388-.996.552-1.51-.621-.325-1.341-.707-1.681-.89-2.91-1.573-7.286-3.16-11.465-4.162-3.724-.893-3.57-.842-3.159-1.072.762-.426 10.341.483 15.212 1.443.23.046 1.306.241 2.116.392.11-.72.188-1.453.243-2.19-1.022-.476-2.233-.954-3.56-1.434-3.99-1.443-9.703-2.252-14.828-2.545-2.187-.124-3.002-.562-2.464-.787C42.49 28.74 43.2 28 49.72 28c3.56.205 6.892.744 10.157 1.405-1.124-12.329-10.17-22.292-22.036-24.793-.105-.021-.26-.055-.361-.076-.231-.046-.464-.083-.698-.123-.233-.04-.458-.084-.716-.118-.103-.015-.208-.024-.312-.038-1.343-.16-2.912-.234-4.361-.243z" fill="#48B9C7"/>
    <path d="M17.685 25.001c.102.005.182.03.228.078.461.478-1.012 2.37-2.087 2.68-1.867.54-2.295.175-1.317-1.116.565-.746 2.462-1.679 3.176-1.642z" opacity=".2"/>
    <path d="M17.685 24.001c.102.005.182.03.228.078.461.478-1.012 2.37-2.087 2.68-1.867.54-2.295.175-1.317-1.116.565-.746 2.462-1.679 3.176-1.642z" fill="#F9F5D7"/>
    <path d="M31.393 4.014c-1.45.03-2.872.17-4.258.412-.04.033-.069.068-.069.105 0 .11.25.201.551.201.742.094 1.485.225 2.227.373.514-.039 1.027-.08 1.549-.091 1.449.01 3.017.084 4.36.244.104.014.21.022.313.037.259.034.483.077.717.117.233.04.466.078.697.123.102.021.255.056.36.078 11.532 2.43 20.38 11.917 21.9 23.766l.137.025C58.753 17.076 49.706 7.114 37.84 4.614c-.105-.023-.258-.058-.36-.079-.23-.045-.464-.083-.697-.123-.234-.04-.458-.083-.717-.117-.103-.015-.209-.023-.312-.037-1.344-.16-2.912-.235-4.361-.244zm4.523 8.191c-.312-.02-.757.091-1.422.29-.82.243-2.586.683-3.926.978-4.008.882-7.445 2.757-9.931 4.252-1.463.879-1.779.915-1.596.187.233-.929-.417-.63-2.096.965-1.582 1.503-2.066 1.78-2.066 1.18 0-.701-.422-.244-1.234 1.34a37.433 37.433 0 0 0-1.454 3.267c-.487 1.301-.923 1.965-2.287 3.488-1.877 2.097-2.466 3.019-1.883 3.38.303-.542.92-1.303 1.883-2.38 1.364-1.523 1.8-2.187 2.287-3.488.331-.884.985-2.354 1.454-3.268.812-1.583 1.234-2.04 1.234-1.34 0 .6.484.324 2.066-1.179 1.679-1.595 2.33-1.894 2.096-.965-.183.728.133.692 1.596-.187 2.486-1.495 5.923-3.37 9.931-4.252 1.34-.295 3.106-.735 3.926-.979 1.774-.528 1.972-.433 2.303 1.108.111.518.164 1.087.187 1.675.042-.958-.014-1.87-.187-2.675-.207-.963-.36-1.363-.881-1.397zm2.502 3.799c-.112-.007-.185.002-.211.031-.085.094-.314 1.354-.506 1.944-.303.933-.832 1.9-1.094 2.105-.098.544-.163.997-.125 1.035.16.16.855-1.021 1.22-2.14.19-.59.42-1.85.505-1.944.208-.23 3.373.743 6.045 1.695 3.464 1.236 3.492 1.931 2.658.293-.042-.083-.099-.177-.142-.261-.46-.212-1.173-.553-2.516-1.032-2.338-.833-5.052-1.68-5.834-1.726zm2.094 14.05c-.457.107-.885.214-1.451.319-.538.225.276.662 2.462.787 5.126.293 10.838 1.102 14.829 2.545 1.284.465 2.453.929 3.455 1.389.033-.32.081-.634.105-.955-1.022-.475-2.234-.954-3.56-1.434-3.99-1.443-9.703-2.252-14.829-2.545-.4-.023-.703-.065-1.011-.105zM8.506 32.677l-.162.035.015.996 1.04-.223c1.569-.338 1.527-.75-.079-.75-.33 0-.59-.023-.814-.058zm34.508 2.719c-.345.014-.577.046-.672.1-.41.229-.566.178 3.158 1.071 4.18 1.003 8.554 2.588 11.465 4.16.278.15.85.455 1.375.731.104-.278.215-.553.306-.838-.621-.325-1.341-.709-1.681-.892-2.91-1.573-7.286-3.158-11.465-4.16-.297-.072-.25-.066-.5-.126-.805-.041-1.522-.065-1.986-.046zm-26.985.13c-.191.5-.031 1.103.457 2.35.057.144.087.246.135.379.148.08.265.12.31.074.049-.048-.15-.703-.445-1.453-.223-.57-.371-.997-.457-1.35zm7.914 1.036a3.085 3.085 0 0 1-.988 1.511c-.818.688-1.506 1.592-2.037 1.592-.223 0-.858-.397-1.41-.883-.552-.486-1.057-.83-1.12-.767-.062.062-.006.48.12.933.011.042.01.06.021.102.198.1.573.375.979.732.552.486 1.187.883 1.41.883.531 0 1.22-.904 2.037-1.592.79-.664 1.225-1.648 1.045-2.365-.011-.045-.04-.099-.057-.146zm-8.976 2.46c-.111 0-.055.441.07 1.036.099.029.6.273 1.236.607 1.264.665 2.466.85 2.463.377 0-.106-.087-.468-.164-.789-.364.154-1.308-.067-2.299-.588-.672-.354-1.26-.643-1.306-.643zm-1.727.375a3.718 3.718 0 0 0-.008.834c.044-.138.043-.464.008-.834zm32.047 1.157c-.26-.001-.427.02-.476.07-.111.111.508.44 1.482.787 2.803 1 7.239 3.008 10.041 4.43.148-.26.306-.516.445-.781-2.539-1.312-6.739-3.221-9.693-4.34-.748-.096-1.404-.165-1.799-.166zm-7.406 12.31c-3.7 2.34-8.018 3.102-12.088 3.137-4.306.123-7.523-1.03-11.264-2.11.774.618 1.592 1.181 2.43 1.715 2.79.813 5.485 1.491 8.834 1.395 4.113-.036 8.482-.807 12.207-3.205.053-.137-.01-.49-.12-.932z" fill="#F9F5D7" opacity=".2"/>
</svg>
