<svg xmlns="http://www.w3.org/2000/svg" width="64" height="64" version="1">
    <path d="M32 4C16.488 4 4 16.488 4 32s12.488 28 28 28 28-12.488 28-28S47.512 4 32 4z" fill="#F9BD2E"/>
    <path d="M32 4C16.488 4 4 16.492 4 32.009c0 .098.011.194.018.291C4.392 17.115 16.726 5 32 5s27.608 12.115 27.982 27.3c.007-.097.018-.193.018-.291C60 16.492 47.512 4 32 4z" opacity=".2" fill="#F9F5D7"/>
    <path d="M59.982 32.7C59.631 47.882 47.29 60.001 32 60.001c-15.288 0-27.629-12.117-27.982-27.297-.007.11-.018.22-.018.332C4 48.528 16.488 61 32 61s28-12.472 28-27.964c0-.114-.011-.224-.018-.336z" opacity=".2"/>
    <path d="M31.844 11c-6.53 0-10.427 4.074-10.427 4.074l5.993 11.387A8 8 0 0 1 32 25a8 8 0 0 1 4.368 1.308l5.919-11.234s-3.915-4.074-10.443-4.074zM32 29a4 4 0 1 0 0 8 4 4 0 0 0 0-8zm8.11 3.761a8.558 8.558 0 0 1-.258 1.758 8 8 0 0 1-.059.258c-.011.041-.019.083-.03.125a8 8 0 0 1-3.997 5.148l7.344 10.785s5.63-1.218 8.895-6.648c3.265-5.43 1.54-10.707 1.54-10.707v-.004l-13.435-.715zm-16.224.164l-13.434.719s-1.718 5.293 1.547 10.722C15.262 49.798 20.884 51 20.884 51l7.364-10.816a9.153 9.153 0 0 1-1.945-1.57 8 8 0 0 1-.3-.332c-.088-.101-.18-.195-.263-.3a8 8 0 0 1-.007-.009 8 8 0 0 1-.555-.808c-.018-.029-.041-.053-.059-.082-.034-.057-.056-.118-.09-.176a8 8 0 0 1-.261-.506 8.564 8.564 0 0 1-.885-3.476z" opacity=".2" fill="#F9F5D7"/>
    <path d="M31.844 10c-6.53 0-10.427 4.074-10.427 4.074L27.41 25.46A8 8 0 0 1 32 24a8 8 0 0 1 4.369 1.308l5.918-11.234S38.373 10 31.844 10zM32 28a4 4 0 1 0 0 8 4 4 0 0 0 0-8zm8.11 3.762a8.698 8.698 0 0 1-.257 1.758 8 8 0 0 1-.06.258c-.01.04-.018.082-.03.124a8 8 0 0 1-3.996 5.148l7.344 10.786s5.63-1.218 8.895-6.648c3.264-5.43 1.538-10.708 1.538-10.708v-.004l-13.433-.714zm-16.224.164l-13.434.718s-1.718 5.294 1.547 10.724C15.263 48.798 20.885 50 20.885 50l7.365-10.816a9.197 9.197 0 0 1-1.946-1.57 8 8 0 0 1-.3-.332c-.086-.102-.18-.196-.262-.302a8 8 0 0 1-.008-.008 8 8 0 0 1-.554-.808c-.018-.028-.042-.052-.058-.082-.036-.058-.058-.118-.09-.176a8 8 0 0 1-.262-.504 8.565 8.565 0 0 1-.884-3.476z" fill="#3A393A"/>
</svg>
