<svg xmlns="http://www.w3.org/2000/svg" width="64" height="64" version="1">
    <circle cx="18.5" cy="27.5" r="15.5" opacity=".2"/>
    <circle cx="18.5" cy="26.5" r="15.5" fill="#BDAD93"/>
    <path d="M18.5 11A15.5 15.5 0 0 0 3 26.5a15.5 15.5 0 0 0 .021.586A15.5 15.5 0 0 1 18.5 12a15.5 15.5 0 0 1 15.479 14.914A15.5 15.5 0 0 0 34 26.5 15.5 15.5 0 0 0 18.5 11z" opacity=".2" fill="#F9F5D7"/>
    <circle cx="18.5" cy="23.5" r="5.5" fill="#066678"/>
    <circle cx="18.5" cy="23.5" r="1.5" fill="#3A393A"/>
    <circle cx="41.833" cy="35.5" r="19.5" opacity=".2"/>
    <circle cx="41.833" cy="34.5" r="19.5" fill="#F9F5D7"/>
    <circle cx="44.5" cy="31.5" r="8.5" fill="#066678"/>
    <circle cx="44.5" cy="31.5" r="2.5" fill="#3A393A"/>
    <path d="M41.834 15a19.5 19.5 0 0 0-19.5 19.5 19.5 19.5 0 0 0 .021.586A19.5 19.5 0 0 1 41.834 16a19.5 19.5 0 0 1 19.478 18.914 19.5 19.5 0 0 0 .022-.414 19.5 19.5 0 0 0-19.5-19.5z" opacity=".2" fill="#F9F5D7"/>
</svg>
