<svg xmlns="http://www.w3.org/2000/svg" width="64" height="64">
    <path d="M32 5A28 28 0 0 0 4 33a28 28 0 0 0 3.265 13.081c15.214 2.386 35.027.019 52.456-9.357A28 28 0 0 0 60 33 28 28 0 0 0 32 5zm25.763 38.965c-15.403 7.184-31.93 9.54-46.058 8.307A28 28 0 0 0 32 61a28 28 0 0 0 25.763-17.035z" opacity=".2"/>
    <path d="M32 4A28 28 0 0 0 4 32a28 28 0 0 0 3.265 13.081c15.214 2.386 35.027.019 52.456-9.357A28 28 0 0 0 60 32 28 28 0 0 0 32 4zm25.763 38.965c-15.403 7.184-31.93 9.54-46.058 8.307A28 28 0 0 0 32 60a28 28 0 0 0 25.763-17.035z" fill="#504945"/>
    <path d="M37.6 25.9l7-4.2 7 4.2" opacity=".2" fill="none" stroke="#151819" stroke-width="3"/>
    <path d="M37.6 24.9l7-4.2 7 4.2" fill="none" stroke="#F9F5D7" stroke-width="3"/>
    <path opacity=".2" d="M26 36h12v3H26z"/>
    <path fill="#F9F5D7" d="M26 35h12v3H26z"/>
    <path d="M19 14v3h-1.5a4.49 4.49 0 0 0-4.5 4.5 4.49 4.49 0 0 0 4.5 4.5H19v3h-5.725a4.475 4.475 0 0 0 4.225 3H19v3h3v-3h1.5a4.49 4.49 0 0 0 4.5-4.5 4.49 4.49 0 0 0-4.5-4.5H22v-3h5.725a4.475 4.475 0 0 0-4.225-3H22v-3zm-1.5 6H19v3h-1.5c-.883 0-1.5-.617-1.5-1.5s.617-1.5 1.5-1.5zm4.5 6h1.5c.883 0 1.5.617 1.5 1.5s-.617 1.5-1.5 1.5H22z" opacity=".2"/>
    <path d="M19 13v3h-1.5a4.49 4.49 0 0 0-4.5 4.5 4.49 4.49 0 0 0 4.5 4.5H19v3h-5.725a4.475 4.475 0 0 0 4.225 3H19v3h3v-3h1.5a4.49 4.49 0 0 0 4.5-4.5 4.49 4.49 0 0 0-4.5-4.5H22v-3h5.725a4.475 4.475 0 0 0-4.225-3H22v-3h-3zm-1.5 6H19v3h-1.5c-.883 0-1.5-.617-1.5-1.5s.617-1.5 1.5-1.5zm4.5 6h1.5c.883 0 1.5.617 1.5 1.5s-.617 1.5-1.5 1.5H22v-3z" fill="#F9F5D7"/>
    <path d="M32 4A28 28 0 0 0 4 32a28 28 0 0 0 .021.406A28 28 0 0 1 32 5a28 28 0 0 1 27.982 27.668A28 28 0 0 0 60 32 28 28 0 0 0 32 4zm25.764 38.965c-15.404 7.184-31.931 9.54-46.059 8.306a28 28 0 0 0 1.133 1.08c13.694 1.002 29.509-1.34 44.336-8.124a28 28 0 0 0 .59-1.262z" opacity=".1" fill="#F9F5D7"/>
</svg>
