<svg xmlns="http://www.w3.org/2000/svg" width="64" height="64" version="1">
    <path d="M6.8 11C5.25 11 4 12.226 4 13.75v38.5C4 53.773 5.25 55 6.8 55H57.2c1.55 0 2.8-1.227 2.8-2.75v-38.5c0-1.524-1.25-2.75-2.8-2.75H6.8z" opacity=".2"/>
    <path d="M17.86 10v44H57.2c1.551 0 2.8-1.226 2.8-2.75v-38.5c0-1.524-1.249-2.75-2.8-2.75z" fill="#48B9C7"/>
    <path opacity=".1" d="M18 10h1v44h-1z"/>
    <path d="M6.8 10C5.249 10 4 11.226 4 12.75v38.5C4 52.773 5.249 54 6.8 54H18V10z" fill="#F9F5D7"/>
    <circle cx="39" cy="32" r="14" fill="#3A393A"/>
    <path d="M44.135 27l-6.657 6.449-2.613-2.53L32 33.693l4.045 3.918L37.478 39l1.432-1.388L47 29.776 44.135 27z" opacity=".2"/>
    <path d="M44.135 26l-6.657 6.449-2.613-2.53L32 32.693l4.045 3.918L37.478 38l1.432-1.388L47 28.776 44.135 26z" fill="#F9F5D7"/>
    <path d="M6.8 10C5.25 10 4 11.226 4 12.75v1C4 12.226 5.25 11 6.8 11H57.2c1.55 0 2.8 1.226 2.8 2.75v-1c0-1.524-1.25-2.75-2.8-2.75H6.8z" opacity=".2" fill="#F9F5D7"/>
</svg>
