<svg xmlns="http://www.w3.org/2000/svg" width="64" height="64" version="1">
    <path d="M4.05 31c-.011.335-.05.663-.05 1 0 15.512 12.488 28 28 28 15.51 0 27.998-12.488 27.998-28 0-.337-.039-.664-.05-1-.528 15.042-12.776 27-27.95 27S4.578 46.042 4.05 31z" opacity=".2"/>
    <rect width="56" height="56" x="-59" y="-60" rx="27.999" ry="27.999" transform="matrix(0 -1 -1 0 0 0)" fill="#066678"/>
    <path d="M32 3A27.94 27.94 0 0 0 4 31c0 .114.011.224.018.336C4.369 16.135 16.71 4 32 4s27.63 12.135 27.982 27.336c.007-.112.018-.223.018-.336A27.94 27.94 0 0 0 32 3z" opacity=".1" fill="#F9F5D7"/>
    <path d="M29.143 12c-.79 0-1.143.687-1.143 1.54V38h-6.001l10 14 10-14H36V13.54c0-.851-.357-1.538-1.146-1.538z" opacity=".2"/>
    <path d="M29.143 11c-.79 0-1.143.687-1.143 1.54V37h-6.001l10 14 10-14H36V12.54c0-.85-.357-1.538-1.146-1.538z" fill="#F9F5D7"/>
</svg>
