<svg xmlns="http://www.w3.org/2000/svg" width="64" height="64" version="1">
    <path d="M10 23v2c0 1.108.892 2 2 2h12c1.108 0 2-.892 2-2v-2c0 1.108-.892 2-2 2H12c-1.108 0-2-.892-2-2zm22 8v2h28v-2H32zm6 20v2c0 1.108.892 2 2 2h12c1.108 0 2-.892 2-2v-2c0 1.108-.892 2-2 2H40c-1.108 0-2-.892-2-2zM4 56v2c0 1.662 1.338 3 3 3h25v-2H7c-1.662 0-3-1.338-3-3z" opacity=".2"/>
    <path d="M32 4h25c1.662 0 3 1.338 3 3v25H32z" fill="#FECE4F"/>
    <path d="M32 60H7c-1.662 0-3-1.338-3-3V32h28z" fill="#D79921"/>
    <rect width="16" height="16" x="38" y="38" rx="2" ry="2" fill="#066678"/>
    <rect width="16" height="16" x="10" y="10" rx="2" ry="2" fill="#8F3F71"/>
    <path d="M32 4v1h25c1.662 0 3 1.338 3 3V7c0-1.662-1.338-3-3-3H32zm-20 6c-1.108 0-2 .892-2 2v1c0-1.108.892-2 2-2h12c1.108 0 2 .892 2 2v-1c0-1.108-.892-2-2-2H12zM4 32v1h28v-1H4zm36 6c-1.108 0-2 .892-2 2v1c0-1.108.892-2 2-2h12c1.108 0 2 .892 2 2v-1c0-1.108-.892-2-2-2H40z" opacity=".2" fill="#F9F5D7"/>
</svg>
