<svg xmlns="http://www.w3.org/2000/svg" width="64" height="64" version="1">
    <rect width="58" height="58" x="-62" y="-61" rx="29" ry="29" transform="matrix(0 -1 -1 0 0 0)" opacity=".2"/>
    <rect width="58" height="58" x="-61" y="-61" rx="29" ry="29" transform="matrix(0 -1 -1 0 0 0)" fill="#066678"/>
    <g opacity=".2">
        <path d="M32.164 26.004a7 7 30 0 0-6.227 3.496 7 7 30 0 0 2.563 9.562 7 7 30 0 0 9.563-2.562 7 7 30 0 0-2.563-9.563 7 7 30 0 0-3.336-.933zm-.305 4a3 3 30 0 1 1.641.398 3 3 30 0 1 1.098 4.098 3 3 30 0 1-4.098 1.098 3 3 30 0 1-1.098-4.098 3 3 30 0 1 2.457-1.496zM36.243 24.515l8.485-8.485 2.121 6.363-6.364 6.364z"/>
        <path d="M17.15 18.15a21 21 0 0 0 0 29.7 21 21 0 0 0 29.7 0 21 21 0 0 0 0-29.7 21 21 0 0 0-2.293-1.95L40.259 20.5a15 15 0 0 1 2.348 1.894 15 15 0 0 1 0 21.214 15 15 0 0 1-21.214 0 15 15 0 0 1 0-21.214 15 15 0 0 1 12.715-4.228l4.924-4.925a21 21 0 0 0-21.881 4.91z"/>
    </g>
    <path d="M32.164 25.004a7 7 30 0 0-6.227 3.496 7 7 30 0 0 2.563 9.563 7 7 30 0 0 9.563-2.563 7 7 30 0 0-2.563-9.563 7 7 30 0 0-3.336-.933zm-.305 4a3 3 30 0 1 1.641.398 3 3 30 0 1 1.098 4.098 3 3 30 0 1-4.098 1.098 3 3 30 0 1-1.098-4.098 3 3 30 0 1 2.457-1.496z" fill="#F9F5D7"/>
    <g fill="#48B9C7">
        <path d="M36.243 23.515l8.485-8.485 2.121 6.363-6.364 6.364z"/>
        <path d="M17.15 17.15a21 21 0 0 0 0 29.7 21 21 0 0 0 29.7 0 21 21 0 0 0 0-29.7 21 21 0 0 0-2.293-1.95L40.259 19.5a15 15 0 0 1 2.348 1.894 15 15 0 0 1 0 21.214 15 15 0 0 1-21.214 0 15 15 0 0 1 0-21.214 15 15 0 0 1 12.715-4.228l4.924-4.925a21 21 0 0 0-21.881 4.91z"/>
    </g>
    <path d="M32 3C15.934 3 3 15.934 3 32c0 .11.011.219.018.328C3.374 16.576 16.159 4 32 4c15.84 0 28.626 12.576 28.982 28.328.007-.11.018-.217.018-.328C61 15.934 48.066 3 32 3z" opacity=".2" fill="#F9F5D7"/>
</svg>
