<svg xmlns="http://www.w3.org/2000/svg" width="64" height="64">
    <path d="M59.958 31.828A28 28 0 0 1 32 59 28 28 0 0 1 4.044 32.172 28 28 0 0 0 4 33a28 28 0 0 0 28 28 28 28 0 0 0 28-28 28 28 0 0 0-.042-1.172z" opacity=".2"/>
    <circle cx="32" cy="32" r="28" fill="#504945"/>
    <circle cx="32" cy="33" r="22" opacity=".2"/>
    <circle cx="32" cy="32" r="22" fill="#CB241D"/>
    <path d="M30 15v12h4V15h-4zm4.078 4.168zm-4.668.082zm6.016.188zm-7.395.148zm8.828.293zm-9.945.094A14 14 0 0 0 18 33c0 7.732 6.268 14 14 14s14-6.268 14-14a14 14 0 0 0-8.492-12.856L36 23.841a10 10 0 0 1 6 9.16 10 10 0 0 1-10 10 10 10 0 0 1-10-10 10 10 0 0 1 6.129-9.21l-1.215-3.817z" opacity=".2"/>
    <path d="M30 14v12h4V14h-4zm4.078 4.168zm-4.668.082zm6.016.188zm-7.395.148zm8.828.293zm-9.945.094A13.998 13.998 0 0 0 18 32c0 7.732 6.268 14 14 14s14-6.268 14-14a14 14 0 0 0-8.492-12.856L36 22.84A10 10 0 0 1 42 32a10 10 0 0 1-10 10 10 10 0 0 1-10-10 10 10 0 0 1 6.128-9.21l-1.214-3.818z" fill="#F9F5D7"/>
    <path d="M31.998 4A28 28 0 0 0 4 32a28 28 0 0 0 .018.492A28 28 0 0 1 31.998 5H32a28 28 0 0 1 27.973 27.5 28 28 0 0 0 .025-.5A28 28 0 0 0 32 4h-.002z" opacity=".1" fill="#F9F5D7"/>
</svg>
