<svg xmlns="http://www.w3.org/2000/svg" width="64" height="64">
    <path d="M32 5A28 28 0 0 0 4 33a28 28 0 0 0 28 28 28 28 0 0 0 28-28A28 28 0 0 0 32 5z" opacity=".2"/>
    <path d="M32 4A28 28 0 0 0 4 32a28 28 0 0 0 28 28 28 28 0 0 0 28-28A28 28 0 0 0 32 4z" fill="#F9F5D7"/>
    <path d="M32 11a22 22 0 0 0-6.46.992A11 11 0 0 1 32 22a11 11 0 0 1-11 11 11 11 0 0 1-10.02-6.488A22 22 0 0 0 10 33a22 22 0 0 0 22 22 22 22 0 0 0 22-22 22 22 0 0 0-22-22z" opacity=".1"/>
    <path d="M32 10a22 22 0 0 0-6.46.992A11 11 0 0 1 32 21a11 11 0 0 1-11 11 11 11 0 0 1-10.02-6.488A22 22 0 0 0 10 32a22 22 0 0 0 22 22 22 22 0 0 0 22-22 22 22 0 0 0-22-22z" fill="#8F3F71"/>
    <path d="M32 4A28 28 0 0 0 4 32a28 28 0 0 0 .021.406A28 28 0 0 1 32 5a28 28 0 0 1 27.979 27.578A28 28 0 0 0 60 32 28 28 0 0 0 32 4z" opacity=".2" fill="#F9F5D7"/>
</svg>
