<svg xmlns="http://www.w3.org/2000/svg" width="64" height="64" version="1">
    <path d="M4.05 32c-.011.334-.05.662-.05 1 0 15.512 12.488 28 28 28 15.511 0 28-12.488 28-28 0-.337-.04-.665-.052-1-.528 15.042-12.775 27-27.95 27C16.826 59 4.579 47.042 4.05 32z" opacity=".2"/>
    <rect width="56" height="56" x="4" y="4" rx="28" ry="28" fill="#8F3F71"/>
    <path d="M32 16c-5.6 0-10.285 2.673-10 9.334v4.667h-1.667c-1.292 0-2.333.934-2.333 2.2v13.515C18 46.982 19.04 48 20.333 48h23.334c1.293 0 2.333-1.02 2.333-2.285V32.2c0-1.266-1.022-2.2-2.333-2.2H42v-4.667c0-6.651-4.41-9.326-10.01-9.326zm0 4c2.8 0 6 .962 6 5.334v4.667H26v-4.667c0-4.329 3.2-5.333 6-5.333z" opacity=".5"/>
    <path d="M32 4C16.488 4 4 16.488 4 32c0 .114.011.224.018.336C4.369 17.134 16.71 5 32 5c15.29 0 27.63 12.134 27.982 27.336.007-.112.018-.222.018-.336C60 16.488 47.512 4 32 4z" opacity=".2" fill="#F9F5D7"/>
</svg>
