<svg xmlns="http://www.w3.org/2000/svg" width="64" height="64" version="1">
    <path d="M47.887 44.438C55.25 44.438 61 35 61 33.874c-.066-.655-.002-1.304 0-1.886-.05-7.842-3.445-14.574-11.497-22.804C47.252 6.884 45.103 5 44.724 5c-.379 0-1.817 1.07-3.194 2.372l-2.505 2.369c2.794 3.704 5.07 7.296 6.567 11.624-6.479 1.022-8.586 7.736-8.592 14.302 0 7.372 3.523 8.771 10.887 8.771zM17.113 22.562C9.75 22.562 4 32 4 33.126c.066.655.002 1.304 0 1.886.05 7.842 3.445 14.574 11.497 22.804 2.251 2.3 4.4 4.184 4.779 4.184.379 0 1.817-1.07 3.194-2.372l2.505-2.369c-2.794-3.704-5.07-7.296-6.567-11.624 6.479-1.022 8.586-7.736 8.592-14.302 0-7.372-3.523-8.771-10.887-8.771z" opacity=".2"/>
    <path d="M17.113 21.562C9.75 21.562 4 31 4 32.126c.066.655.002 1.304 0 1.886.05 7.842 3.445 14.574 11.497 22.804 2.251 2.3 4.4 4.184 4.779 4.184.379 0 1.817-1.07 3.194-2.372l2.505-2.369c-2.794-3.704-5.07-7.296-6.567-11.624 6.479-1.022 8.586-7.736 8.592-14.302 0-7.372-3.523-8.771-10.887-8.771z" fill="#8F3F71"/>
    <circle cx="17.5" cy="33.5" r="13.5" opacity=".2"/>
    <circle cx="17.5" cy="32.5" r="13.5" fill="#8F3F71"/>
    <path d="M47.887 43.438C55.25 43.438 61 34 61 32.874c-.066-.655-.002-1.304 0-1.886-.05-7.842-3.445-14.574-11.497-22.804C47.252 5.884 45.103 4 44.724 4c-.379 0-1.817 1.07-3.194 2.372l-2.505 2.369c2.794 3.704 5.07 7.296 6.567 11.624-6.479 1.022-8.586 7.736-8.592 14.302 0 7.372 3.523 8.771 10.887 8.771z" fill="#8F3F71"/>
    <circle cx="-47.5" cy="-33.5" r="13.5" transform="scale(-1)" opacity=".2"/>
    <circle cx="-47.5" cy="-32.5" r="13.5" transform="scale(-1)" fill="#8F3F71"/>
    <path d="M17.5 19A13.5 13.5 0 0 0 4 32.5a13.5 13.5 0 0 0 .021.594A13.5 13.5 0 0 1 17.5 20a13.5 13.5 0 0 1 13.479 12.906A13.5 13.5 0 0 0 31 32.5 13.5 13.5 0 0 0 17.5 19zM47.5 19A13.5 13.5 0 0 0 34 32.5a13.5 13.5 0 0 0 .021.594A13.5 13.5 0 0 1 47.5 20a13.5 13.5 0 0 1 13.479 12.906A13.5 13.5 0 0 0 61 32.5 13.5 13.5 0 0 0 47.5 19z" fill="#F9F5D7" opacity=".1"/>
</svg>
