<svg xmlns="http://www.w3.org/2000/svg" width="64" height="64" version="1">
    <rect width="56" height="56" x="4" y="5" rx="2.8" ry="2.8" opacity=".2"/>
    <rect width="56" height="56" x="4" y="4" rx="2.8" ry="2.8" fill="#504945"/>
    <path d="M46 11c-16.554 0-26.383 14.16-26 26.746V54h15V37.7c0-3.01.987-5.968 2.826-8.126C39.666 27.417 42.311 26 46 26V11zm-3 3.184v3.076c-9.317 1.422-17 9.095-17 20.44V51h-3V37.654c-.31-10.2 7.02-21.893 20-23.47zm0 6.091v3.026c-3.104.625-5.645 2.2-7.457 4.326C33.176 30.403 32 34.042 32 37.699V51h-3V37.7c0-9.837 6.212-16.096 14-17.425z" opacity=".2"/>
    <path d="M46 10c-16.554 0-26.383 14.16-26 26.746V53h15V36.7c0-3.01.987-5.968 2.826-8.126C39.666 26.417 42.311 25 46 25zm-3 3.184v3.076c-9.317 1.422-17 9.095-17 20.44V50h-3V36.654c-.31-10.2 7.02-21.893 20-23.47zm0 6.091v3.026c-3.104.625-5.645 2.2-7.457 4.326C33.176 29.403 32 33.042 32 36.699V50h-3V36.7c0-9.837 6.212-16.096 14-17.425z" fill="#F9BD2E"/>
    <path d="M6.8 4C5.25 4 4 5.25 4 6.8v1C4 6.25 5.25 5 6.8 5h50.4C58.75 5 60 6.25 60 7.8v-1C60 5.25 58.75 4 57.2 4H6.8z" opacity=".1" fill="#F9F5D7"/>
</svg>
