<svg xmlns="http://www.w3.org/2000/svg" width="64" height="64" version="1">
    <rect width="42.056" height="42.056" x="-66.28" y="-21.03" rx="4.206" ry="4.206" transform="scale(-1 1) rotate(-45)" opacity=".2"/>
    <rect width="42.056" height="42.056" x="-65.58" y="-21.73" rx="4.206" ry="4.206" transform="scale(-1 1) rotate(-45)" fill="#7CB668"/>
    <path d="M32 3c-1.075 0-2.149.41-2.973 1.234L5.234 28.027a4.16 4.16 0 0 0-1.19 3.46 4.139 4.139 0 0 1 1.19-2.46L29.027 5.234A4.188 4.188 0 0 1 32 4c1.075 0 2.149.41 2.973 1.234l23.793 23.793a4.138 4.138 0 0 1 1.19 2.46 4.159 4.159 0 0 0-1.19-3.46L34.973 4.234A4.188 4.188 0 0 0 32 3z" opacity=".2" fill="#F9F5D7"/>
    <path d="M32 11c-5.13 0-9.25 1.19-12.217 3.5-.063.05-.117.107-.18.158l-1.716 1.717c-1.727 2.153-2.6 4.832-2.4 7.43C16.01 30.65 22.827 36 32 36c6.228 0 8.478 3.189 8.613 4.83.068.82-.089 1.476-1.218 2.352C38.265 44.057 35.927 45 32 45c-5.476 0-12.016-3.473-12.016-3.473a4 4 0 0 0-5.869 2.327l6.983 6.982C24.002 51.933 27.866 53 32 53c5.063 0 9.126-1.14 12.094-3.355l2.347-2.348c1.565-2.1 2.349-4.65 2.145-7.123C48.02 33.315 41.172 28 32 28c-6.228 0-8.41-3.151-8.537-4.805-.063-.826.11-1.504 1.236-2.38C25.825 19.937 28.13 19 32 19c5.476 0 12.016 3.473 12.016 3.473a4 4 0 0 0 5.869-2.327l-6.983-6.982C39.998 12.067 36.134 11 32 11z" opacity=".2" fill-rule="evenodd"/>
    <path d="M32 10c-5.13 0-9.25 1.19-12.217 3.5-.063.05-.117.107-.18.158l-1.716 1.717c-1.727 2.153-2.6 4.832-2.4 7.43C16.01 29.65 22.827 35 32 35c6.228 0 8.478 3.189 8.613 4.83.068.82-.089 1.476-1.218 2.352C38.265 43.057 35.927 44 32 44c-5.476 0-12.016-3.473-12.016-3.473a4 4 0 0 0-5.869 2.327l6.983 6.982C24.002 50.933 27.866 52 32 52c5.063 0 9.126-1.14 12.094-3.355l2.347-2.348c1.565-2.1 2.349-4.65 2.145-7.123C48.02 32.315 41.172 27 32 27c-6.228 0-8.41-3.151-8.537-4.805-.063-.826.11-1.504 1.236-2.38C25.825 18.937 28.13 18 32 18c5.476 0 12.016 3.473 12.016 3.473a4 4 0 0 0 5.869-2.327l-6.983-6.982C39.998 11.067 36.134 10 32 10z" fill="#F9F5D7" fill-rule="evenodd"/>
</svg>
