<svg xmlns="http://www.w3.org/2000/svg" width="64" height="64" version="1">
    <rect width="56" height="56" x="4" y="5" rx="2.8" ry="2.8" opacity=".2"/>
    <rect width="56" height="56" x="4" y="4" rx="2.8" ry="2.8" fill="#48B9C7"/>
    <path d="M14 16v16h3.93v-7H23v-2.875h-5.07V19H24v-3zm17.04 0l-5.257 16h3.5l.89-3h5.81l.89 3h3.488L35.12 16zm2.038 2.158l.084.416.166.676c.063.253.13.53.201.83l.237.865L35.246 26H30.91l1.48-5.055c.08-.284.154-.572.225-.865.08-.3.152-.577.215-.83s.115-.478.154-.676c.048-.197.078-.337.094-.416zM14 35v16h4.982c1.105 0 2.092-.174 2.96-.521a5.717 5.717 0 0 0 2.212-1.543c.6-.688 1.058-1.537 1.373-2.55.316-1.011.473-2.183.473-3.511 0-1.368-.17-2.545-.51-3.533-.331-.996-.823-1.815-1.478-2.455-.655-.64-1.464-1.116-2.426-1.424-.963-.308-2.068-.463-3.315-.463zm20.389 0c-1.107 0-2.06.172-2.862.518a4.985 4.985 0 0 0-1.992 1.53c-.519.668-.906 1.497-1.158 2.487-.252.982-.377 2.115-.377 3.397 0 1.174.125 2.256.377 3.246.26.982.653 1.829 1.18 2.543a5.612 5.612 0 0 0 1.982 1.681c.802.4 1.74.598 2.816.598.634 0 1.228-.077 1.786-.23a8.987 8.987 0 0 0 1.547-.577 9.02 9.02 0 0 0 1.292-.77c.39-.275.73-.537 1.02-.782v-6.557h-6V45h2.908v2.432c-.084.069-.203.154-.355.254-.145.092-.32.183-.526.275a5.15 5.15 0 0 1-.687.23 3.422 3.422 0 0 1-.813.092c-1.045 0-1.824-.464-2.336-1.392-.511-.929-.767-2.248-.767-3.96 0-.859.053-1.615.16-2.267.107-.66.279-1.209.516-1.646.236-.446.546-.78.927-1.002.382-.23.847-.346 1.397-.346.488 0 .913.188 1.271.564.36.369.64.936.846 1.704l3.139-.622a8.482 8.482 0 0 0-.711-1.761 4.964 4.964 0 0 0-1.076-1.358c-.42-.383-.92-.68-1.5-.886-.573-.208-1.241-.311-2.004-.311zM42 35v16h4V35zm-23.93 2.705h.143c.726 0 1.358.097 1.894.295.537.19.978.495 1.325.914.355.411.619.945.793 1.602.173.648.26 1.434.26 2.359 0 1.803-.31 3.159-.934 4.068-.623.902-1.576 1.352-2.854 1.352h-.627z" opacity=".2"/>
    <path d="M17.93 18v3.126H23V24h-5.07v7H14V15h10v3zM40.36 31h-3.486l-.892-3h-5.808l-.891 3h-3.499l5.254-16h4.08zm-7.282-13.841c-.016.079-.047.217-.095.415-.04.197-.09.423-.154.676-.063.253-.134.53-.213.83-.071.293-.147.581-.226.866L30.91 25h4.336l-1.48-5.054c-.079-.285-.158-.573-.237-.866-.071-.3-.138-.577-.202-.83a74.448 74.448 0 0 1-.166-.676l-.083-.415zM26 41.875c0 1.329-.158 2.5-.473 3.511-.316 1.012-.774 1.862-1.373 2.55a5.715 5.715 0 0 1-2.213 1.542c-.868.348-1.854.522-2.959.522H14V34h4.272c1.247 0 2.351.154 3.314.463.962.308 1.771.782 2.426 1.423.655.64 1.148 1.459 1.48 2.455.338.988.508 2.167.508 3.534zm-3.515 0c0-.925-.087-1.711-.26-2.36-.174-.656-.438-1.19-.793-1.601a2.97 2.97 0 0 0-1.325-.913c-.537-.198-1.168-.297-1.894-.297h-.143v10.592h.628c1.278 0 2.229-.45 2.852-1.352.624-.91.935-2.266.935-4.069zM40 47.64c-.29.246-.63.507-1.02.783a9.035 9.035 0 0 1-1.293.771c-.473.23-.989.422-1.546.576a6.702 6.702 0 0 1-1.786.23c-1.076 0-2.015-.2-2.817-.599a5.604 5.604 0 0 1-1.98-1.68c-.527-.714-.92-1.562-1.18-2.544-.252-.99-.378-2.072-.378-3.246 0-1.282.126-2.413.378-3.396.252-.99.637-1.818 1.156-2.486a4.985 4.985 0 0 1 1.993-1.531c.801-.345 1.755-.518 2.862-.518.764 0 1.432.104 2.004.31.58.208 1.08.503 1.5.887.428.376.786.829 1.076 1.358.29.53.527 1.117.71 1.762l-3.137.621c-.206-.767-.489-1.335-.847-1.703-.36-.376-.783-.564-1.271-.564-.55 0-1.016.115-1.397.345-.382.222-.691.556-.928 1.001-.236.438-.408.986-.515 1.646-.107.653-.16 1.408-.16 2.268 0 1.711.255 3.031.767 3.96.511.928 1.29 1.392 2.336 1.392.29 0 .56-.03.813-.092.26-.069.488-.145.687-.23.206-.092.381-.184.526-.276.153-.1.271-.184.355-.253V44H34v-2.917h6zM42 34h4v16h-4z" fill="#F9F5D7"/>
    <path d="M44 4v16h16V6.8C60 5.249 58.751 4 57.2 4h-2.8z" opacity=".3"/>
    <path opacity=".2" d="M44 10h10v10H44z"/>
    <path d="M6.8 4C5.25 4 4 5.25 4 6.8v1C4 6.25 5.25 5 6.8 5h50.4C58.75 5 60 6.25 60 7.8v-1C60 5.25 58.75 4 57.2 4H6.8z" opacity=".2" fill="#F9F5D7"/>
    <path opacity=".1" d="M44 19h16v1H44z"/>
    <path opacity=".1" fill="#F9F5D7" d="M44 20h16v1H44z"/>
</svg>
