<svg xmlns="http://www.w3.org/2000/svg" width="64" height="64" version="1">
    <path d="M27.945 5C14.815 5 4 15.83 4 28.977s10.815 23.976 23.945 23.976c2.503 0 4.958-.427 7.315-1.186l5.795 5.8c2.097 2.185 5.433 3.574 8.426 3.422 2.994-.153 5.45-1.462 7.25-3.263 1.798-1.801 3.105-4.26 3.258-7.258.152-2.998-1.235-6.338-3.418-8.438l.117.114-5.944-5.956c.735-2.32 1.143-4.739 1.146-7.2v-.011C51.89 15.83 41.075 5 27.945 5z" opacity=".2"/>
    <path d="M27.945 4C14.815 4 4 14.83 4 27.977s10.815 23.976 23.945 23.976c2.503 0 4.958-.427 7.315-1.186l5.795 5.8c2.097 2.185 5.433 3.574 8.426 3.422 2.994-.153 5.45-1.462 7.25-3.263 1.798-1.801 3.105-4.26 3.258-7.258.152-2.998-1.235-6.338-3.418-8.438l.117.114-5.944-5.956c.735-2.32 1.143-4.739 1.146-7.2v-.011C51.89 14.83 41.075 4 27.945 4z" fill="#BE4C1D"/>
    <path d="M34.684 39.852L46.91 52.078c2.827 2.945 7.187-1.415 4.242-4.243L38.74 35.424C34 37 36 37 34.684 39.852z" opacity=".2"/>
    <path d="M34.684 38.852L46.91 51.078c2.827 2.945 7.187-1.415 4.242-4.243L38.74 34.424C34 36 36 36 34.684 38.852z" fill="#504945"/>
    <path d="M28 13a16 16 0 0 0-16 16 16 16 0 0 0 16 16 16 16 0 0 0 16-16 16 16 0 0 0-16-16zm0 6a10 10 0 0 1 10 10 10 10 0 0 1-10 10 10 10 0 0 1-10-10 10 10 0 0 1 10-10z" opacity=".2"/>
    <path d="M28 12a16 16 0 0 0-16 16 16 16 0 0 0 16 16 16 16 0 0 0 16-16 16 16 0 0 0-16-16zm0 6a10 10 0 0 1 10 10 10 10 0 0 1-10 10 10 10 0 0 1-10-10 10 10 0 0 1 10-10z" fill="#F9F5D7"/>
    <path d="M27.945 4C14.815 4 4 14.83 4 27.977c0 .112.012.222.018.334C4.377 15.467 15.038 5 27.945 5c12.922 0 23.595 10.491 23.93 23.355.005-.122.015-.244.016-.367v-.011C51.89 14.829 41.075 4 27.945 4zM51.18 35.625c-.13.525-.27 1.047-.434 1.563l.217.216c.071-.26.152-.517.217-.779l5.508 5.52-.118-.114c1.97 1.893 3.278 4.795 3.407 7.545.003-.036.01-.07.011-.107.153-2.998-1.234-6.339-3.418-8.438l.117.114-5.507-5.52z" opacity=".1" fill="#F9F5D7"/>
</svg>
