<svg xmlns="http://www.w3.org/2000/svg" width="64" height="64" version="1">
    <path d="M32 3c-1.571 0-3.144.586-4.32 1.76L3.76 28.685C2.586 29.859 1.999 31.429 2 33c.002 1.57.59 3.14 1.763 4.314l23.92 23.923c2.35 2.349 6.287 2.352 8.636.002l23.918-23.923a5.963 5.963 0 0 0 1.322-2.009c.294-.735.441-1.521.441-2.307 0-1.571-.589-3.142-1.763-4.316L36.319 4.76C35.144 3.586 33.572 3 32 3z" opacity=".2"/>
    <path d="M32 2.714c-1.394 0-2.78.518-3.814 1.552L4.266 28.189C3.23 29.223 2.713 30.607 2.714 32c.002 1.392.521 2.775 1.554 3.809l18.304 18.306-.544.463 5.656 5.659c2.35 2.349 6.286 2.352 8.635.002l12.084-12.087-.482-.527 11.81-11.814a5.243 5.243 0 0 0 1.164-1.769c.26-.649.39-1.346.39-2.042 0-1.393-.52-2.777-1.553-3.811L35.814 4.266C34.781 3.232 33.394 2.714 32 2.714z" fill="#066678"/>
    <path d="M32 2c-1.571 0-3.144.586-4.32 1.76L15.72 15.723l8.138 8.14L40.14 7.58l-3.825-3.825C35.139 2.585 33.569 2 32 2z" fill="#F9BD2E"/>
    <path d="M40.138 7.582l8.14 8.14L15.72 48.276l-8.14-8.14z" fill="#73C48F"/>
    <path d="M48.278 15.722L32 32l8.142 8.136 16.275-16.275z" fill="#FD8019"/>
    <path d="M23.858 40.142l-8.136 8.136 8.14 8.139z" fill="#8F3F71"/>
    <path d="M56.417 23.861L48.277 32l8.14 8.139 3.82-3.823a5.963 5.963 0 0 0 1.322-2.009c.294-.735.441-1.521.441-2.307 0-1.571-.589-3.142-1.763-4.316z" fill="#CB241D"/>
    <path d="M15.72 32l-8.14 8.139 8.142 8.139 8.136-8.136z" fill="#8F3F71"/>
    <path d="M40.139 7.58L32 15.722l8.139 8.14 8.139-8.14z" opacity=".2" fill="#F9F5D7"/>
    <path d="M48.278 15.722V32l8.139 8.139 3.82-3.823a5.963 5.963 0 0 0 1.322-2.009c.294-.735.441-1.521.441-2.307 0-1.571-.589-3.142-1.763-4.316l-3.82-3.823z" fill="#CB241D"/>
    <path d="M15.72 15.722l8.138 8.14 8.14-8.14z" fill="#F9BD2E"/>
    <path d="M48.278 32l-8.142 8.142 8.14 8.136.002-.003z" fill="#CB8819"/>
    <path d="M48.278 32v16.275l8.139-8.136z" fill="#FA4934"/>
    <path d="M32 15.722l-8.142 8.14L32 32z" fill="#73C48F"/>
    <path d="M23.858 23.861L15.72 32H32z" fill="#066678"/>
    <path d="M15.72 32l8.138 8.142L32 32z" fill="#066678"/>
    <path d="M15.72 15.722L3.76 27.684C2.586 28.859 1.999 30.429 2 32c.002 1.57.59 3.14 1.763 4.314l3.82 3.822 16.275-16.275z" fill="#8F3F71"/>
    <path d="M32 32l-8.142 8.142.003 16.275 16.28-16.28z" fill="#48B9C7"/>
    <path d="M32 2c-1.571 0-3.146.587-4.32 1.762L3.762 27.684C2.586 28.859 1.998 30.429 2 32c0 .122.024.242.033.363a6.043 6.043 0 0 1 1.729-3.68L27.68 4.763C28.854 3.587 30.429 3 32 3c1.572 0 3.146.587 4.32 1.762l23.918 23.922a6.05 6.05 0 0 1 1.729 3.68c.01-.122.033-.242.033-.364 0-1.571-.587-3.142-1.762-4.316L36.32 3.762C35.146 2.587 33.572 2 32 2z" opacity=".1" fill="#F9F5D7"/>
</svg>
