<svg xmlns="http://www.w3.org/2000/svg" width="64" height="64" version="1">
    <path d="M4 56v2c0 1.662 1.338 3 3 3h50c1.662 0 3-1.338 3-3v-2c0 1.662-1.338 3-3 3H7c-1.662 0-3-1.338-3-3z" opacity=".2"/>
    <rect width="56" height="56" x="4" y="4" rx="3" ry="3" fill="#48B9C7"/>
    <path d="M7 4C5.338 4 4 5.338 4 7v1c0-1.662 1.338-3 3-3h50c1.662 0 3 1.338 3 3V7c0-1.662-1.338-3-3-3H7z" opacity=".1" fill="#F9F5D7"/>
    <circle cx="12" cy="30" r="6" fill="#066678"/>
    <circle cx="48" cy="30" r="6" fill="#066678"/>
    <path d="M41 37.182C41 39.843 36.299 42 30.5 42S20 39.843 20 37.182c0-2.66 4.701 0 10.5 0s10.5-2.66 10.5 0z" fill="#066678"/>
    <circle cx="14.5" cy="28.5" r="1.5" fill="#F9F5D7"/>
    <circle cx="50.5" cy="28.5" r="1.5" fill="#F9F5D7"/>
</svg>
