<svg xmlns="http://www.w3.org/2000/svg" width="64" height="64">
    <g transform="translate(0 -988.362)">
        <path d="M28.84 993.362s-2.7 3.964 1.585 5.964c7.197 3.357 6.93 5.036 6.93 5.036s2.134-4.912-1.36-7.778c-3.496-2.866-7.156-3.222-7.156-3.222z" opacity=".2" fill-rule="evenodd"/>
        <path d="M9.874 1034.752c-3.632-5.117-4.946-9.678-4.871-13.425.135-6.73 3.997-10.837 3.997-10.837s-.186 3.524 1.462 3.86c1.648.337 1.707-1.838 1.603-5.512-.105-3.674 1.9-5.482 1.9-5.482s-.207 6.928 5.125 4.493c5.332-2.435.984-8.487.984-8.487s5.242-.023 9.598 5.96c3.463 4.757 11.225 7.353 10.45 2.16-.774-5.192 3.928-5.12 3.928-5.12s-1.876 2.9 6.426 8.31c6.582 4.287 10.084 13.457 5.935 23.727l-1.52 3.763" opacity=".2" fill-rule="evenodd"/>
        <circle cx="21" cy="1028.362" r="14" opacity=".2"/>
        <path d="M9.874 1033.752c-3.632-5.117-4.946-9.678-4.871-13.425.135-6.73 3.997-10.837 3.997-10.837s-.186 3.525 1.462 3.86c1.648.337 1.707-1.838 1.603-5.512-.105-3.674 1.9-5.482 1.9-5.482s-.207 6.928 5.125 4.493c5.332-2.435.984-8.487.984-8.487s5.242-.023 9.598 5.96c3.463 4.758 11.225 7.353 10.45 2.16-.774-5.192 3.928-5.12 3.928-5.12s-1.876 2.9 6.426 8.31c6.582 4.287 10.084 13.457 5.935 23.727l-1.52 3.763" fill="#FD8019" fill-rule="evenodd"/>
        <circle cx="21" cy="1027.362" r="14" fill="#F9F5D7"/>
        <path d="M28.84 992.362s-2.7 3.964 1.585 5.964c7.197 3.358 6.93 5.036 6.93 5.036s2.134-4.912-1.36-7.778c-3.496-2.866-7.156-3.222-7.156-3.222z" fill="#FD8019" fill-rule="evenodd"/>
        <circle cx="43" cy="1032.362" r="17" opacity=".2"/>
        <circle cx="43" cy="1031.362" r="17" fill="#504945"/>
        <ellipse cx="-481.25" cy="933.236" rx="6.094" ry="7.356" transform="matrix(.8831 -.46917 .49558 .86856 0 0)" opacity=".2"/>
        <ellipse cx="-480.755" cy="932.353" rx="6.094" ry="7.356" transform="matrix(.8831 -.46917 .49558 .86856 0 0)" fill="#F9F5D7"/>
        <path d="M20.074 998.362s.292.416.631 1.059c1.486.187 5.487 1.12 8.967 5.9 3.417 4.694 11.001 7.27 10.46 2.352-.573 3.524-7.302.987-10.46-3.352-4.356-5.982-9.598-5.959-9.598-5.959zm23.977 3s-4.295-.053-3.987 4.492c.316-3.322 3.428-3.47 3.829-3.476-.04-.655.158-1.016.158-1.016zm-30.086.994s-2.005 1.809-1.9 5.483c.008.298.002.52.007.799-.023-3.532 1.893-5.282 1.893-5.282s-.207 6.928 5.125 4.493c2.289-1.046 2.79-2.756 2.62-4.37-.122 1.288-.802 2.54-2.62 3.37-5.332 2.435-5.125-4.493-5.125-4.493zm29.963.375c-.217.909-.11 3.601 6.549 7.94 4.461 2.907 7.5 8.062 7.707 14.277.103-6.66-3.01-12.216-7.707-15.277-4.989-3.25-6.295-5.586-6.55-6.94zM9 1009.49s-3.861 4.108-3.996 10.838c-.005.22.012.452.017.678.251-6.535 3.979-10.516 3.979-10.516s-.187 3.525 1.46 3.861c1.378.282 1.632-1.259 1.622-3.892-.064 2.035-.419 3.138-1.621 2.892-1.648-.336-1.461-3.86-1.461-3.86zM28.84 992.362s-1.046 1.535-.803 3.176c.154-1.213.803-2.176.803-2.176s3.66.357 7.154 3.223c1.412 1.158 1.898 2.647 1.985 4.014.107-1.596-.218-3.565-1.985-5.014-3.495-2.866-7.154-3.223-7.154-3.223z" fill="#F9F5D7" fill-rule="evenodd" opacity=".2"/>
    </g>
</svg>
