<svg xmlns="http://www.w3.org/2000/svg" width="64" height="64">
    <circle cx="29" cy="37" r="24" opacity=".2"/>
    <circle cx="29" cy="36" r="24" fill="#8F3F71"/>
    <path d="M14.066 17.206c-3.268 2.346-6.423 5.75-8.156 12.692l1.381-1.969c1.232.139 2.054.842 2.763 1.699l.527.747.593-.138.854.747-.066-.543.46.678.461.342.328-.137 1.316.747.854-1.153-.195-.204.854-.069.329-1.29-.789.68-.921-.068-.066-.474h-.262l-.394-.952-.331.135-.13.613-.33-.07.132-1.22-.789-.271-.265-.34.46-.272v-.27l-.46-.273.46-.748.067-1.152-.656.066.526-.949.064-1.359-.328-.135.066-.27.262-.204v-1.495c.46-1.268.92-1.247 1.381-1.696v-1.425zm13.156 10.657l-.067.678-.262 1.357-.92.816.198 1.018.855.069.063.27-.394.273v.813l-.262.34.132.611h-.987l-.066.475-2.302-.204c.325-.668 1.285-1.047-1.054-2.918l-1.643.067-.066-1.087-.593-.948-.196 1.83.593.544-.132.747c1.398.453 1.184.904 1.447 1.357l.394.069.196-.814-1.577-1.02.789.204 1.053.678.066 1.699-.593.27.395.882-.196.544h-.46l-.133.477.196.678.526-.07.527-.608.593.813-.46.543.394.678h.328l.132 1.018 1.842 1.086.394-.135v-.543l.527.069.789.678v-1.086l-.328-.069v-.813h.59l.526-1.561 2.369 1.765c.045.498.194 1.03-.262 1.356.584.626 1.14 1.25.524 1.699-.598.596-.775 1.144.198 1.56l1.776.204.987-.477 1.382-.204 3.683-5.156v-3.598c-.355-.207-.723-.466-1.251-1.56l-1.906-.274s.393-.34.657-.204c.263.136 1.447 0 1.447 0v-1.152l-.722-.544.196-1.221-.593-.612-9.34-1.357zm20.062 16.765l-.659.68-.132 1.018-.657 1.087.067.744-.425.386-.102.022.005.064-.005.005.01.055.056.554h-.328l-.662.681-.59.475-.317.094-.604.04-.02.18-.192.452c-.244.037-1.579.234-1.76.047-.04-.041-.163.027-.314.135h-.016l-.05.044c-.213.163-.48.405-.747.662l-.003.003-1.04.92-.066 1.156-.526.748c1.239.235 2.122.105 2.98-.053 2.776-.255 4.916-1.17 6.097-3.072l-.199-.408 1.186-.744.063-.951.397-.136.196-1.494.593-1.222-.199-1.9-1.381.205-.656-.477z" opacity=".4"/>
    <path d="M27.212 5C14.893 4.995 9.132 14.623 7 27.564c5.355-8.264 8.442-9.365 10.002-9.948 1.184-.408 2.22-.582 3.127-.552 5.634.186 6.39 7.385 7.751 15.107.838 3.222 2.91 10.007 6.696 13.15 1.034.858 2.285 2.113 3.497 1.612 1.087-.448 1.312-2.235.432-4.08-.678-2.238-2-4.197-2.734-6.595-1.51-4.932-2.396-6.37-.789-11.065.879-2.567 2.722-4.925 3.615-3.822l1.711 2.11c1.47 2.85 3.861 5.514 6.84 6.809 1.715.84 2.641 1.04 4.431.24 1.376-.953.459-4.358 1.968-7.401 1.142-2.304 2.235-3.587 2.15-5.977.404-.192.625-.526.793-1.05.087-.269.248-.648.69-1.061 1.26-1.092 2.058-2.159 1.756-4.065L51.093 13H48.19l-1.176-3.9c-.612-.808-.986-1.86-1.904-2.06l-1.318 3.784C39.46 8.936 35.138 5.153 27.212 5zM13.699 33.044c-.352 0-.727.102-1.13.336-1.732 1.259-1.565 3.071-1.462 5.332C12.786 51.705 23.852 60.85 36.846 61c6.789-.236 13.52-3.206 14.13-9.738.083-1.518.006-3.041-.344-4.512-2.092 4.657-6.405 9.23-12.518 8.2-13.479-2.272-16.151-8.594-21.711-19.784-.796-1.185-1.648-2.122-2.704-2.122z" opacity=".2"/>
    <path d="M27.212 4C14.893 3.995 9.132 13.623 7 26.564c5.355-8.264 8.442-9.365 10.002-9.948 1.184-.408 2.22-.582 3.127-.552 5.634.186 6.39 7.385 7.751 15.107.838 3.222 2.91 10.007 6.696 13.15 1.034.858 2.285 2.113 3.497 1.612 1.087-.448 1.312-2.235.432-4.08-.678-2.238-2-4.197-2.734-6.595-1.51-4.932-2.396-6.37-.789-11.065.879-2.567 2.722-4.925 3.615-3.822l1.711 2.11c1.47 2.85 3.861 5.514 6.84 6.809 1.715.84 2.641 1.04 4.431.24 1.376-.953.459-4.358 1.968-7.401 1.142-2.304 2.235-3.587 2.15-5.977.404-.192.625-.526.793-1.05.087-.269.248-.648.69-1.061 1.26-1.092 2.058-2.159 1.756-4.065L51.093 12H48.19l-1.176-3.9c-.612-.808-.986-1.86-1.904-2.06l-1.318 3.784C39.46 7.936 35.138 4.153 27.212 4zM13.699 32.044c-.352 0-.727.102-1.13.336-1.732 1.259-1.565 3.071-1.462 5.332C12.786 50.705 23.852 59.85 36.846 60c6.789-.236 13.52-3.206 14.13-9.738.083-1.518.006-3.041-.344-4.512-2.092 4.657-6.405 9.23-12.518 8.2-13.479-2.272-16.151-8.594-21.711-19.784-.796-1.185-1.648-2.122-2.704-2.122z" fill="#48B9C7"/>
    <path d="M45 22c3.113 2.609 2.942 2.993 2.925 3-.078-.513-.056-.924.075-1.75-1.167-.972-2.01-.869-3-1.25zM48.657 28.392l.933-.418 1.711.14c-.415.397-.83.668-1.244.696-.26.015-.495-.009-1.556-.233l.156-.185z" fill="#1D2021"/>
    <path d="M27.21 4C14.893 3.995 9.134 13.624 7 26.564c.09-.138.167-.238.256-.373C9.566 13.953 15.336 4.995 27.21 5c7.926.153 12.25 3.936 16.582 5.824l1.316-3.783c.918.2 1.292 1.251 1.905 2.059l1.175 3.9h2.905l7.842-2.023c.016.106.017.2.027.3.054-.39.049-.817-.027-1.3L51.094 12h-2.905l-1.175-3.9c-.613-.808-.987-1.859-1.905-2.059l-1.316 3.783C39.46 7.936 35.137 4.153 27.211 4zm6.952 24.967c-.122 2.217.592 3.966 1.61 7.29.733 2.398 2.054 4.358 2.732 6.597a5.47 5.47 0 0 1 .498 1.681c.116-.753-.033-1.706-.498-2.681-.678-2.239-1.999-4.199-2.733-6.596-.861-2.817-1.502-4.497-1.609-6.291zM13.7 32.043c-.352 0-.726.104-1.129.338-1.412 1.026-1.554 2.437-1.506 4.142.06-1.262.377-2.321 1.506-3.142.403-.234.777-.338 1.13-.338 1.055 0 1.907.938 2.702 2.123 5.56 11.19 8.234 17.511 21.713 19.783 6.113 1.03 10.426-3.542 12.518-8.199.23.965.33 1.952.357 2.945.037-1.33-.05-2.657-.357-3.945-2.092 4.657-6.405 9.23-12.518 8.2-13.479-2.273-16.153-8.594-21.713-19.784-.795-1.185-1.647-2.123-2.703-2.123z" fill="#F9F5D7" opacity=".2"/>
</svg>
