<svg xmlns="http://www.w3.org/2000/svg" width="64" height="64" version="1">
    <circle cx="32" cy="33" r="28" opacity=".2"/>
    <circle cx="32" cy="32" r="28" fill="#F9F5D7"/>
    <path d="M45.624 25.434a17.18 12.747 59 0 1-21.852 13.132 17.18 12.747 59 0 1 21.852-13.132z" fill="none" stroke="#504945" stroke-width="1.43"/>
    <path d="M34 24c-5.524 0-10 4.475-10 10s4.475 10 10 10 10-4.475 10-10-4.475-10-10-10zm-1.788 5.285c3.756 0 6.828 3.032 6.828 6.788 0 3.757-3.072 6.83-6.828 6.83-3.757 0-6.79-3.073-6.79-6.83a6.78 6.78 0 0 1 6.79-6.788z" fill="#8F3F71"/>
    <path d="M13.72 32.992s-4.016 3.836-3.703 6.232c.433 3.304 4.583 3.831 7.858 3.793 7.939-.09 36.218-9.368 36.126-20.5-.03-3.598-6.502-3.916-6.502-3.703 0 0 4.8 1.205 4.695 3.522-.39 8.64-24.01 18.339-34.5 18.604-2.201.056-5.266-.42-6.142-2.44-.785-1.81 2.168-5.508 2.168-5.508z" fill="#504945"/>
    <path d="M46 23a5 5 0 0 1-10 0 5 5 0 1 1 10 0z" fill="#CB241D"/>
    <path d="M32 39.002a3 3 0 0 1-6 0 3 3 0 1 1 6 0z" fill="#665C54"/>
    <circle cx="48" cy="47" r="16" opacity=".2"/>
    <circle cx="48" cy="46" r="16" fill="#578D57"/>
    <path fill="#F9F5D7" d="M45 45h6v12h-6zM45 36h6v6h-6z"/>
    <path d="M32 4A28 28 0 0 0 4 32a28 28 0 0 0 .021.586A28 28 0 0 1 32 5a28 28 0 0 1 27.979 27.414A28 28 0 0 0 60 32 28 28 0 0 0 32 4z" opacity=".1" fill="#F9F5D7"/>
</svg>
