<svg xmlns="http://www.w3.org/2000/svg" width="64" height="64" version="1">
    <path d="M4 56.2v2C4 59.75 5.25 61 6.8 61h50.4c1.55 0 2.8-1.25 2.8-2.8v-2c0 1.55-1.25 2.8-2.8 2.8H6.8C5.25 59 4 57.75 4 56.2z" opacity=".2"/>
    <rect width="56" height="56" x="4" y="4" rx="2.8" ry="2.8" fill="#CB241D"/>
    <g opacity=".2">
        <path d="M22 17v32h8V29h4v20h8V29h4v20h8V17M10 17h8v20h-8zM10 41h8v8h-8z"/>
    </g>
    <g fill="#F9F5D7">
        <path d="M22 16v32h8V28h4v20h8V28h4v20h8V16M10 16h8v20h-8zM10 40h8v8h-8z"/>
    </g>
    <path d="M6.8 4C5.25 4 4 5.25 4 6.8v1.003c0-1.551 1.25-2.801 2.8-2.801h50.4c1.55 0 2.8 1.25 2.8 2.8V6.802C60 5.25 58.75 4 57.2 4H6.8z" opacity=".2" fill="#F9F5D7"/>
</svg>
