<svg xmlns="http://www.w3.org/2000/svg" width="64" height="64" version="1">
    <rect width="56" height="56" x="4" y="4" rx="3" ry="3" fill="#066678"/>
    <path d="M7 4C5.338 4 4 5.338 4 7v1c0-1.662 1.338-3 3-3h50c1.662 0 3 1.338 3 3V7c0-1.662-1.338-3-3-3H7z" opacity=".1" fill="#F9F5D7"/>
    <path d="M4 57v1c0 1.662 1.338 3 3 3h50c1.662 0 3-1.338 3-3v-1c0 1.662-1.338 3-3 3H7c-1.662 0-3-1.338-3-3zM22.035 21c-2.47-.027-5.413 2.555-5.945 9.891-.568 7.826 1.656 8.598 4.07 8.598 2.01 0 3.624-1.006 5.394-3.074.267-.313.567-.476.684-.36.118.117.205.207.195.2-.01-.01-.14.3-.265.695-.348 1.088-.879 3.2-.344 4.683.14.389.432.334.55-.062.284-.944.83-2.57 1.422-3.387.241-.334.52-.144.508.27-.076 2.518.737 7.107 4.442 10.023 3.874 3.052 9.523 2.971 12.585 1.668.375-.16.96-.151 1.36-.078.246.045.559.072.949.05 1.134-.065-.76-1.027-.887-1.542-.125-.516.886-.617 1.09-2.258.205-1.644-1.086-.063-1.086-.063s-.95 1.114-4.734.871c-3.487-.221-7.644-2.018-7.504-8.34.01-.414.138-.785.262-.835.123-.05.467.136.68.488.525.869.997 2.278 1.253 3.133.12.395.41.454.55.066.466-1.291.124-3.059-.202-4.21-.112-.399.007-.9.27-1.15.26-.248.663-.207.929.106 1.78 2.088 3.402 3.11 5.422 3.11 2.412 0 4.637-.772 4.07-8.598-.569-7.826-3.884-10.242-6.438-9.855a6.288 6.288 0 0 0-3.386 1.672c-.297.282-.5.574-.5.605 0 .03-.236-.18-.551-.441-1.376-1.15-3.105-1.836-4.984-1.836-1.854 0-3.565.668-4.934 1.789-.316.259-.55.48-.55.465 0-.017-.205-.296-.5-.579-.602-.573-1.74-1.426-3.387-1.675a3.495 3.495 0 0 0-.488-.04zm6.964 6a1 1 0 1 1 0 2.001 1 1 0 0 1 0-2zm6 0a1 1 0 1 1 0 2.001 1 1 0 0 1 0-2z" opacity=".2"/>
    <path d="M22.036 20c-2.47-.027-5.413 2.555-5.946 9.89-.568 7.827 1.657 8.599 4.07 8.599 2.01 0 3.624-1.006 5.394-3.074.268-.312.568-.476.684-.36.118.118.206.208.196.2-.01-.008-.14.3-.266.696-.348 1.086-.878 3.198-.344 4.682.14.39.432.334.552-.062.282-.944.828-2.568 1.42-3.386.242-.334.522-.144.508.27-.076 2.518.736 7.106 4.442 10.022 3.876 3.052 9.524 2.972 12.586 1.668.374-.16.96-.15 1.36-.078.246.046.558.072.948.052 1.134-.066-.76-1.028-.886-1.544s.886-.616 1.09-2.258c.206-1.644-1.086-.062-1.086-.062s-.95 1.114-4.734.87c-3.488-.22-7.644-2.018-7.504-8.338.01-.416.138-.786.262-.836.122-.05.466.136.678.488.528.868.998 2.278 1.254 3.132.12.396.41.454.552.066.464-1.29.124-3.058-.204-4.21-.11-.398.008-.9.27-1.148.262-.25.664-.208.93.104 1.78 2.088 3.402 3.11 5.422 3.11 2.412 0 4.638-.772 4.07-8.598-.568-7.826-3.884-10.242-6.438-9.854a6.285 6.285 0 0 0-3.386 1.67c-.298.284-.5.574-.5.606 0 .032-.236-.178-.552-.44-1.376-1.15-3.104-1.836-4.984-1.836-1.854 0-3.564.668-4.934 1.788-.316.26-.548.48-.55.464 0-.016-.204-.294-.5-.578-.602-.572-1.74-1.426-3.386-1.674a3.3 3.3 0 0 0-.488-.04zM29 26a1 1 0 1 1 0 2.001 1 1 0 0 1 0-2zm6 0a1 1 0 1 1 0 2.001 1 1 0 0 1 0-2z" fill="#F9F5D7"/>
</svg>
