<svg xmlns="http://www.w3.org/2000/svg" width="64" height="64">
    <circle cx="31.5" cy="32.5" r="28.5" opacity=".2"/>
    <circle cx="31.5" cy="31.5" r="28.5" fill="#7CB668"/>
    <path d="M16.916 17C15.3 17 14 18.267 14 19.842v21.316C14 42.733 15.3 44 16.916 44H30v4h-5.584c-.785 0-1.416.669-1.416 1.5s.631 1.5 1.416 1.5h14.168c.785 0 1.416-.669 1.416-1.5s-.631-1.5-1.416-1.5H33v-4h13.084C47.7 44 49 42.733 49 41.158V19.842C49 18.267 47.7 17 46.084 17zM17 20h29v21H17zm12 2v4h5v-4zm-4 6v4h5v-4zm8 0v4h5v-4zm-12 6v4h5v-4zm8 0v4h5v-4zm8 0v4h5v-4z" opacity=".2"/>
    <path d="M16.916 16C15.3 16 14 17.267 14 18.842v21.316C14 41.733 15.3 43 16.916 43h29.168C47.7 43 49 41.733 49 40.158V18.842C49 17.267 47.7 16 46.084 16H16.916zM17 19h29v21H17V19z" fill="#F9F5D7"/>
    <path fill="#F9F5D7" d="M30 42h3v7h-3z"/>
    <rect width="3" height="17" x="47" y="-40" rx="1.5" ry="1.417" transform="rotate(90)" fill="#F9F5D7"/>
    <path fill="#F9F5D7" d="M29 21h5v4h-5zM25 27h5v4h-5zM33 27h5v4h-5zM29 33h5v4h-5zM21 33h5v4h-5zM37 33h5v4h-5z"/>
    <path d="M31.5 3A28.5 28.5 0 0 0 3 31.5a28.5 28.5 0 0 0 .021.582A28.5 28.5 0 0 1 31.5 4a28.5 28.5 0 0 1 28.479 27.918A28.5 28.5 0 0 0 60 31.5 28.5 28.5 0 0 0 31.5 3z" fill="#F9F5D7" opacity=".2"/>
</svg>
