<svg width="64" xmlns="http://www.w3.org/2000/svg" height="64" xmlns:xlink="http://www.w3.org/1999/xlink">
    <defs>
        <linearGradient id="c">
            <stop stop-color="#8DC07B"/>
            <stop offset="1" stop-color="#F9F5D7"/>
        </linearGradient>
        <linearGradient xlink:href="#a" id="f" y1="545.798" y2="517.798" x2="0" gradientUnits="userSpaceOnUse" gradientTransform="matrix(1.85714 0 0 1.85714 -343.347 -455.827)"/>
        <linearGradient id="b">
            <stop stop-color="#282727"/>
            <stop offset="1" stop-opacity="0"/>
        </linearGradient>
        <linearGradient xlink:href="#b" id="i" y1="9" x1="9" y2="23" x2="23" gradientUnits="userSpaceOnUse" gradientTransform="matrix(2 0 0 2 1 0)"/>
        <linearGradient xlink:href="#c" id="j" y1="538.798" y2="524.798" x2="0" gradientUnits="userSpaceOnUse" gradientTransform="matrix(2 0 0 2 -399.571 -531.798)"/>
        <linearGradient id="a">
            <stop stop-color="#3A393A"/>
            <stop offset="1" stop-color="#417B58"/>
        </linearGradient>
        <linearGradient id="e">
            <stop stop-color="#B7BB25"/>
            <stop offset="1" stop-color="#B7BB25" stop-opacity="0"/>
        </linearGradient>
        <linearGradient id="d">
            <stop stop-color="#4F8660"/>
            <stop offset="1" stop-color="#7CB668"/>
        </linearGradient>
        <linearGradient xlink:href="#d" id="g" y1="58" x1="32.436" y2="30" x2="32" gradientUnits="userSpaceOnUse"/>
        <linearGradient xlink:href="#e" id="h" x1="10" x2="54" gradientUnits="userSpaceOnUse"/>
    </defs>
    <g transform="translate(-368.571 -499.798)">
        <rect width="52" x="374.571" y="505.798" rx="26" height="52" fill="url(#f)"/>
        <path d="M20.438 37.586c-2.946-.015-7.834.402-11.06 7.264 4.242 7.475 12.078 12.622 21.194 13.11.485.025.962.04 1.428.04.551 0 1.098-.023 1.64-.057.125-.007.25-.018.374-.027a26.227 26.227 0 0 0 4.765-.807c.117-.03.232-.065.348-.097.42-.119.835-.248 1.246-.387.093-.031.185-.061.277-.094.498-.174.99-.359 1.473-.562l.016-.006c.474-.2.939-.418 1.398-.645.1-.049.197-.1.295-.15.39-.2.775-.409 1.154-.627.071-.04.143-.08.213-.121a25.952 25.952 0 0 0 2.647-1.783c.033-.026.066-.053.1-.078.398-.31.786-.63 1.165-.961.028-.025.057-.048.084-.073a26.034 26.034 0 0 0 2.297-2.293c.006-.006.014-.012.02-.02l.031-.038c.345-.394.678-.797 1-1.211l.025-.03.016-.019c.67-.867 1.286-1.78 1.844-2.73l.006-.008c-15.537 6.29-22.249-5.751-32.71-7.574-.364.001-.799-.014-1.287-.016z" transform="translate(368.571 499.798)" fill="url(#g)" fill-rule="evenodd"/>
        <path d="M20.438 37.586c-2.946-.015-7.834.402-11.06 7.264.09.155.189.303.28.457 3.223-6.324 7.916-6.736 10.78-6.721.487.002.922.018 1.287.016 10.272 1.79 16.936 13.423 31.884 7.884.285-.426.559-.86.819-1.302l.006-.008c-15.537 6.29-22.249-5.751-32.71-7.574-.364.001-.799-.014-1.287-.016z" transform="translate(368.571 499.798)" fill="url(#h)" fill-rule="evenodd"/>
        <path d="M33 18v12h.227v1.648L25 34l6 6v6l10.295 10.295a25.958 25.958 0 0 0 15-15L33 18z" transform="translate(368.571 499.798)" fill="url(#i)" opacity=".2" fill-rule="evenodd"/>
        <path d="M401.571 517.798l-8 16h6v12l8-16h-6v-12z" fill="url(#j)" fill-rule="evenodd"/>
        <path d="M374.583 531.298c-.003.167-.012.332-.012.5 0 14.404 11.596 26 26 26s26-11.596 26-26c0-.168-.008-.333-.011-.5-.266 14.17-11.752 25.5-25.989 25.5-14.236 0-25.722-11.33-25.988-25.5z" fill="#417B58"/>
    </g>
</svg>
