<svg height="64" width="64" xmlns="http://www.w3.org/2000/svg" xmlns:xlink="http://www.w3.org/1999/xlink">
    <linearGradient id="e" gradientUnits="userSpaceOnUse" x1="20" x2="20" y1="40" y2="16">
        <stop offset="0" stop-color="#3A393A"/>
        <stop offset="1" stop-color="#665C54"/>
    </linearGradient>
    <linearGradient id="d" gradientUnits="userSpaceOnUse" x1="16" x2="44" xlink:href="#a" y1="16" y2="44"/>
    <linearGradient id="b" gradientUnits="userSpaceOnUse" x1="386.571" x2="386.571" y1="549.798" y2="497.798">
        <stop offset="0" stop-color="#83A498"/>
        <stop offset="1" stop-color="#A79984"/>
    </linearGradient>
    <linearGradient id="c" gradientUnits="userSpaceOnUse" x1="12" x2="12" y1="48" y2="10">
        <stop offset="0" stop-color="#F9F5D7"/>
        <stop offset="1" stop-color="#F9F5D7"/>
    </linearGradient>
    <linearGradient id="a" gradientUnits="userSpaceOnUse" x1="400.571" x2="420.571" y1="511.798" y2="531.798">
        <stop offset="0" stop-color="#282727"/>
        <stop offset="1" stop-opacity="0"/>
    </linearGradient>
    <path d="M386.571 497.798h44v52h-44z" fill="url(#b)" transform="translate(-376.571 -491.798)"/>
    <path d="M47 52h7v6h-7zm-37 0h7v6h-7z" fill="#282727" opacity=".2"/>
    <path d="M10 52h7v6h-1zm37 0h7v6h-7z" fill="#282727" opacity=".2"/>
    <path d="M16 52h32v6H16z" fill="#282727"/>
    <path d="M20 54h14v2H20zm16 0h8v2h-8z" fill="#D79921"/>
    <path d="M390.571 533.798l16 16h24V511.07l-6.636-6.636z" fill="url(#a)" opacity=".2" transform="translate(-376.571 -491.798)"/>
    <path d="M23 10a9 9 0 0 0-9 9v8.535A6 6 0 0 1 16 32a6 6 0 0 1-2 4.463V42l6 6h24l6-6v-5.535A6 6 0 0 1 48 32a6 6 0 0 1 2-4.463V19a9 9 0 0 0-9-9z" fill="url(#c)"/>
    <path d="M10 57h44v1H10z" fill="#282727" opacity=".4"/>
    <path d="M36 16L20 40l12 12h12L32 40l12-2 6 6V30z" fill="url(#d)" opacity=".2"/>
    <path d="M32 40l12 12h6v-8l-6-6z" fill="url(#d)"/>
    <path d="M32 38h12v2H32zm0-22L20 40h4l12-24z" fill="url(#e)"/>
</svg>
