<svg width="64" xmlns="http://www.w3.org/2000/svg" height="64" xmlns:xlink="http://www.w3.org/1999/xlink">
    <defs>
        <linearGradient id="a">
            <stop stop-color="#1D2021"/>
            <stop offset="1" stop-color="#665C54"/>
        </linearGradient>
        <linearGradient id="d">
            <stop stop-color="#3A393A"/>
            <stop offset="1" stop-color="#665C54" stop-opacity=".463"/>
        </linearGradient>
        <linearGradient id="c">
            <stop stop-color="#3A393A"/>
            <stop offset="1" stop-color="#504945"/>
        </linearGradient>
        <linearGradient id="b">
            <stop stop-color="#8F3F71"/>
            <stop offset="1" stop-color="#48B9C7"/>
        </linearGradient>
        <linearGradient id="e" xlink:href="#a" y1="30" y2="3" gradientUnits="userSpaceOnUse" x2="0" gradientTransform="matrix(2 0 0 2 376.571 491.798)"/>
        <linearGradient id="i" xlink:href="#b" y1="14" y2="12" gradientUnits="userSpaceOnUse" x2="0" gradientTransform="matrix(2 0 0 2 376.571 491.798)"/>
        <linearGradient id="j" xlink:href="#b" y1="527.798" y2="525.798" gradientUnits="userSpaceOnUse" x2="0" gradientTransform="matrix(2 0 0 2 -392.571 -539.798)"/>
        <linearGradient id="h" xlink:href="#a" y1="18" y2="24" x1="11" gradientUnits="userSpaceOnUse" x2="9" gradientTransform="matrix(2 0 0 2 376.571 491.798)"/>
        <linearGradient id="f" xlink:href="#c" x1="7" gradientUnits="userSpaceOnUse" x2="9" gradientTransform="matrix(2 0 0 2 376.571 491.798)"/>
        <linearGradient id="g" xlink:href="#d" x1="24" gradientUnits="userSpaceOnUse" x2="25" gradientTransform="matrix(2 0 0 2 376.571 491.798)"/>
        <linearGradient id="k" xlink:href="#a" y1="524.798" y2="520.798" gradientUnits="userSpaceOnUse" x2="0" gradientTransform="matrix(2 0 0 2 -392.571 -539.798)"/>
        <linearGradient id="l" xlink:href="#b" y1="16" y2="7" x2="0" gradientUnits="userSpaceOnUse" gradientTransform="matrix(2 0 0 2 376.571 491.798)"/>
    </defs>
    <g transform="translate(-376.571 -491.798)">
        <path d="M406.571 495.798l-.062.125a4 5 0 0 1 .062.875 4 5 0 0 1-.804 3h2.219a6 7 0 0 0 .585-3 6 7 0 0 0-.07-1h-1.93z" fill="#1D2021"/>
        <path d="M408.571 497.798c-5.775 1.756-7.839 2.204-14 4-1.888 6.678-2.566 11.74-1.656 19.406-.093.37-.185.78-.281 1.16l-.063-.566v.824c-.21.838-.42 1.666-.609 2.547-.59 1.308-1.39 3.238-1.39 4.629 0 1.505.28 2.629 1.132 5.277.21.907.473 1.813.867 2.723.5 4.047 1.114 5.074 3.47 7.969 4.99 2.87 7.8 5.027 12.53 6.031 4.166-.724 8.354-3.348 10.918-6.043l1.082.043c2.09-2.236 3.477-5.29 4-8 2-8 2-6 2-8 0-1.063-.533-3.668-1.062-6.02-.31-2.046-.772-4.124-1.36-6.398l.024-3.582.332-.402c-.021-2.636-.24-4.043-.723-6.168l-.261-.856-.707-.394c-.242-1.907-.714-3.792-1.844-5.38-4.72.188-9.428-2.563-12.399-2.8z" fill="url(#e)" fill-rule="evenodd"/>
        <path d="M396.571 537.798l1.2-1.4.6-.7.3-.35c.41-.527.344-.8.344-1.25-.02-.718-.04-1.353-.065-1.93-.024-.579-.051-1.1-.084-1.59-.034-.49-.073-.95-.121-1.404-.135-1.529-.433-2.232-.873-2.441l-.7-.317-.7-.316-.7-.317c.482 3.876.734 7.89.8 12.015z" fill="#1B1B1B" opacity=".6" fill-rule="evenodd"/>
        <path d="M392.864 520.696c.017.17.03.332.051.508-.093.37-.185.78-.281 1.16l-.063-.566v.824c-.21.838-.42 1.666-.609 2.547-.59 1.308-1.39 3.238-1.39 4.629 0 1.505.28 2.629 1.132 5.277.21.907.473 1.813.867 2.723.067.54.149.936.227 1.36 3.106-8.476.779-16.39.066-18.462z" fill="url(#f)" fill-rule="evenodd"/>
        <path d="M424.396 518.415l-1.614 24.211c.856-1.58 1.485-3.254 1.79-4.828 2-8 2-6 2-8 0-1.063-.534-3.668-1.063-6.02-.26-1.724-.652-3.496-1.113-5.363z" fill="url(#g)" fill-rule="evenodd"/>
        <path d="M394.571 527.798l-.265.793c.158 3.101-.113 6.76-1.508 10.566-.078-.423-.16-.819-.227-1.359.454 3.67 1.068 4.914 2.922 7.262.98-5.3.687-16.18-.922-17.262z" fill="url(#h)" fill-rule="evenodd"/>
        <path d="M408.571 497.798c-.21.064-.298.084-.5.145v25.355a.499.499 0 1 0 1 0V497.88c-.165-.026-.344-.07-.5-.082z" fill="#1D2021" fill-opacity=".384"/>
        <path d="M406.171 516.798v2l2.4 1 2.4-1v-2l-2.4 1z" fill="url(#i)" fill-rule="evenodd"/>
        <path d="M406.171 514.798v-2l2.4-1 2.4 1v2l-2.4-1z" fill="url(#j)" fill-rule="evenodd"/>
        <rect width="4" x="406.571" y="501.997" rx=".5" height="8" fill="url(#k)"/>
        <path d="M422.767 505.7l-.196.098c.84 1.68 1.316 5.123 1.598 8.555l.004-.555.332-.402c-.021-2.636-.24-4.043-.723-6.168l-.261-.856-.707-.394c-.012-.093-.034-.185-.047-.278zm1.644 12.778c.125 2.902.16 5.32.16 5.32l.516-2.313a70.388 70.388 0 0 0-.676-3.007z" fill="url(#l)" fill-rule="evenodd"/>
        <path d="M406.571 537.798a.499.499 0 1 0 0 1 .499.499 0 1 0 0-1zm3.5 0l-1 1 1.5 1.5-.5.5-.5.5-.5.5 1 1 .5-.5.5-.5.5-.5 1-1zm-4.75 3a.748.748 0 0 0-.75.75c0 .415.335.75.75.75.416 0 .75-.335.75-.75a.748.748 0 0 0-.75-.75zm2.25 3c-.554 0-1 .446-1 1s.446 1 1 1 1-.446 1-1-.446-1-1-1z" fill="#928274"/>
    </g>
</svg>
