<svg width="64" xmlns="http://www.w3.org/2000/svg" height="64" xmlns:xlink="http://www.w3.org/1999/xlink">
    <defs>
        <linearGradient id="c" xlink:href="#a" x1="432.233" gradientUnits="userSpaceOnUse" x2="401.079" gradientTransform="matrix(0 1.02718 1 0 -499.798 -395.979)"/>
        <linearGradient id="a">
            <stop stop-color="#282727"/>
            <stop offset="1" stop-color="#3A393A"/>
        </linearGradient>
        <linearGradient xlink:href="#b" id="d" y1="32" x1="24" y2="56" x2="48" gradientUnits="userSpaceOnUse" gradientTransform="translate(362.571 479.798)"/>
        <linearGradient id="b">
            <stop stop-color="#282727"/>
            <stop offset="1" stop-opacity="0"/>
        </linearGradient>
    </defs>
    <path d="M6 16v25l7 7h45v-5.361A4 4 0 0 1 57 40a4 4 0 0 1 1-2.639V16H6z" fill="url(#c)"/>
    <path d="M12 47l1 1h45v-1H12z" fill="#1D2021"/>
    <path d="M391.278 511.09l-1.414 1.415 8.051 8.05-.224.243 17 17h.88v-8.88l-13.195-13.196-3.103 3.363-7.995-7.994zm-2.146 6.147l-2.121 2.122 5.5 5.5-1.354 1.353 11.586 11.586h6.95l-20.561-20.56z" fill="url(#d)" opacity=".2" transform="translate(-376.571 -491.798)"/>
    <path d="M14 19c-.554 0-1 .446-1 1s.446 1 1 1 1-.446 1-1-.446-1-1-1zM21 19l-2 2 3 3-3 3 2 2 3-3 2-2-5-5zM11.5 25c-.831 0-1.5.669-1.5 1.5s.669 1.5 1.5 1.5 1.5-.669 1.5-1.5-.669-1.5-1.5-1.5zM16 31c-1.108 0-2 .892-2 2s.892 2 2 2 2-.892 2-2-.892-2-2-2zM38 38v1h12v-1H38zm0 2v1h18v-1H38zm0 2v1h8v-1h-8zm0 2v1h5v-1h-5zM15 41v1h5v-1h-5zm0 2v1h2v-1h-2z" fill="#83A498"/>
    <path d="M56 20l-1 1-1-1z" fill="#F9F5D7" fill-rule="evenodd"/>
</svg>
