<svg width="64" xmlns="http://www.w3.org/2000/svg" height="64" xmlns:xlink="http://www.w3.org/1999/xlink">
    <defs>
        <linearGradient id="e" xlink:href="#a" y1="523.798" y2="537.798" x1="408.572" gradientUnits="userSpaceOnUse" x2="422.571" gradientTransform="matrix(1.29989 0 0 1.3 -499.097 -648.937)"/>
        <linearGradient id="a">
            <stop stop-color="#282727"/>
            <stop offset="1" stop-opacity="0"/>
        </linearGradient>
        <linearGradient id="d" xlink:href="#b" y1="540.798" y2="506.798" x2="0" gradientUnits="userSpaceOnUse" gradientTransform="matrix(1.52928 0 0 1.52941 -592.82 -769.103)"/>
        <linearGradient id="f" xlink:href="#c" y1="540.798" y2="506.798" x2="0" gradientUnits="userSpaceOnUse" gradientTransform="translate(-184.303 -245.305) scale(.52941)"/>
        <linearGradient id="h" xlink:href="#a" y1="522.916" y2="533.685" x1="407.557" gradientUnits="userSpaceOnUse" x2="418.327" gradientTransform="matrix(1.29989 0 0 1.3 -112.208 -177.993)"/>
        <linearGradient xlink:href="#c" id="g" y1="1023.069" y2="1005.069" x2="0" gradientUnits="userSpaceOnUse" gradientTransform="translate(381.533 -618.946) scale(1.11111)"/>
        <linearGradient xlink:href="#b" id="i" y1="1050.362" y2="1038.362" x2="0" gradientUnits="userSpaceOnUse"/>
        <linearGradient id="b">
            <stop stop-color="#73C48F"/>
            <stop offset="1" stop-color="#73C48F"/>
        </linearGradient>
        <linearGradient id="c">
            <stop stop-color="#417B58"/>
            <stop offset="1" stop-color="#417B58"/>
        </linearGradient>
    </defs>
    <g transform="translate(-376.571 -491.798)">
        <path d="M32 6A25.942 25.942 0 0 0 6.002 32c0 14.404 11.595 26 25.998 26a25.942 25.942 0 0 0 25.998-26C57.998 17.596 46.403 6 32 6zm0 23c1.662 0 3 1.338 3 3s-1.338 3-3 3-3-1.338-3-3 1.338-3 3-3z" transform="translate(376.571 491.798)" fill="url(#d)"/>
        <path d="M38.125 25.375l-.555.883A8 8 0 0 1 40 32a8 8 0 0 1-8 8 8 8 0 0 1-6.33-3.123l-.951.498 17.965 18.309a25.947 25.947 0 0 0 12.998-13L38.125 25.375zm-1.1 1.752l-2.289 3.65a2.993 2.993 0 0 1-4.455 3.678l-3.717 1.951A7 7 0 0 0 32 39a7 7 0 0 0 7-7 7 7 0 0 0-1.975-4.873z" transform="translate(376.571 491.798)" fill="url(#e)" opacity=".2" fill-rule="evenodd"/>
        <path d="M32 23a8.98 8.98 0 0 0-9 9c0 4.986 4.014 9 9 9s9-4.014 9-9-4.014-9-9-9zm0 1a8 8 0 0 1 8 8 8 8 0 0 1-8 8 8 8 0 0 1-8-8 8 8 0 0 1 8-8zm0 1a7 7 0 0 0-7 7 7 7 0 0 0 7 7 7 7 0 0 0 7-7 7 7 0 0 0-7-7zm0 4c1.662 0 3 1.338 3 3s-1.338 3-3 3-3-1.338-3-3 1.338-3 3-3z" transform="translate(376.571 491.798)" fill="url(#f)"/>
        <path d="M382.573 522.99c-.005.217 0 .435 0 .654 0 14.489 11.596 26.154 25.998 26.154 14.403 0 25.998-11.665 25.998-26.154 0-.22.005-.437 0-.655-.344 14.184-11.813 25.809-25.998 25.809-14.184 0-25.654-11.625-25.998-25.809z" fill="#322F2E" fill-opacity=".294"/>
        <path d="M408.571 515.798a8 8 0 0 0-8 8 8 8 0 0 0 8 8 8 8 0 0 0 8-8 8 8 0 0 0-8-8zm0 1a7 7 0 0 1 7 7 7 7 0 0 1-7 7 7 7 0 0 1-7-7 7 7 0 0 1 7-7z" fill="#322F2E" fill-opacity=".294"/>
        <ellipse cx="424.571" cy="507.798" rx="10" ry="10" fill="url(#g)"/>
        <path d="M430.571 504.798v6h-2l-1.437 1.312 7.437 7.688v3l-12-12-3.562 2.266 15.562 15.734v-23l-4-4z" fill="url(#h)" opacity=".2" fill-rule="evenodd"/>
        <path d="M5 2V10.281A1.995 1.995 0 0 0 4 10a2 2 0 1 0 2 2V5h7v4.281A1.995 1.995 0 0 0 12 9a2 2 0 1 0 2 2V2H5zm1 1h7v1H6V3z" transform="translate(416.571 499.798)" fill="url(#i)"/>
    </g>
</svg>
