<svg width="64" xmlns="http://www.w3.org/2000/svg" height="64" xmlns:xlink="http://www.w3.org/1999/xlink">
    <defs>
        <linearGradient id="e" xlink:href="#a" y1="545.798" y2="517.798" gradientUnits="userSpaceOnUse" x2="0" gradientTransform="matrix(1.66667 0 0 1.85714 -259.048 -463.826)"/>
        <linearGradient id="a">
            <stop stop-color="#282727"/>
            <stop offset="1" stop-color="#3A393A"/>
        </linearGradient>
        <linearGradient id="d">
            <stop stop-color="#F15C22"/>
            <stop offset="1" stop-color="#F9BD2E"/>
        </linearGradient>
        <linearGradient id="c">
            <stop stop-opacity="0"/>
            <stop offset="1" stop-opacity=".453"/>
        </linearGradient>
        <linearGradient id="b">
            <stop stop-color="#48B9C7"/>
            <stop offset="1" stop-color="#8F3F71"/>
        </linearGradient>
        <linearGradient xlink:href="#b" id="f" y1="535.798" y2="505.798" x2="0" gradientUnits="userSpaceOnUse" gradientTransform="matrix(1.18182 0 0 1.2 -50.286 -97.16)"/>
        <radialGradient cx="408.571" cy="520.798" xlink:href="#c" id="g" r="22" gradientUnits="userSpaceOnUse" gradientTransform="matrix(1.18182 0 0 .81818 -50.286 101.69)"/>
        <linearGradient xlink:href="#d" id="i" y1="21" x1="33" y2="12" x2="24" gradientUnits="userSpaceOnUse" gradientTransform="matrix(1.28571 0 0 1.28571 401.714 500.798)"/>
        <linearGradient xlink:href="#d" id="h" x1="419.41" x2="399.249" gradientUnits="userSpaceOnUse" gradientTransform="matrix(1.24 0 0 1 -74.497 9.5)"/>
    </defs>
    <path fill="url(#e)" d="M393.571 497.798h30v52h-30z" transform="translate(-376.571 -491.798)"/>
    <path fill="#1D2021" d="M17 57h30v1H17z"/>
    <path fill="#F9F5D7" d="M19 11h26v42H19z"/>
    <path fill="#1D2021" d="M28.5 54h7v2h-7zM28.5 8h7v2h-7z"/>
    <g transform="translate(-400.571 -495.798)">
        <path fill="url(#f)" d="M419.571 506.798h27v42h-27z"/>
        <path fill="url(#g)" opacity=".85" d="M419.571 506.798h27v42h-27z"/>
        <path opacity=".85" fill-opacity=".621" d="M419.571 540.798h27v5h-27zM419.571 506.798h27v8h-27z"/>
        <path d="M421.191 542.798c-.343 0-.62.223-.62.5s.277.5.62.5H439.571v-1z" fill="url(#h)"/>
        <path d="M432.571 518.798a8.98 8.98 0 0 0-9 9c0 4.986 4.014 9 9 9s9-4.014 9-9-4.014-9-9-9zm0 1a8 8 0 0 1 8 8 8 8 0 0 1-8 8 8 8 0 0 1-8-8 8 8 0 0 1 8-8z" fill="#F9F5D7" opacity=".85" fill-opacity=".453"/>
        <path d="M432.571 518.798v1a8 8 0 0 1 8 8h1c0-4.986-4.014-9-9-9z" fill="url(#i)" opacity=".85"/>
        <g transform="translate(24 4)">
            <rect width="5.909" x="405.617" y="520.798" rx="2.955" ry="3" height="6" opacity=".8"/>
            <path d="M410.344 523.798l-2.954-1.8v3.6z" fill="#F9F5D7" fill-rule="evenodd"/>
        </g>
        <path d="M440.571 542.798v1h4.385c.34 0 .615-.223.615-.5s-.274-.5-.615-.5z" fill="#928274"/>
        <rect width="3" x="438.571" y="541.798" rx="1.5" height="3" fill="#F9F5D7"/>
    </g>
</svg>
