<svg width="64" xmlns="http://www.w3.org/2000/svg" height="64" xmlns:xlink="http://www.w3.org/1999/xlink">
    <defs>
        <linearGradient id="a">
            <stop stop-color="#7CB668"/>
            <stop offset="1" stop-color="#8DC07B"/>
        </linearGradient>
        <linearGradient xlink:href="#a" id="e" y1="54" y2="12" x2="0" gradientUnits="userSpaceOnUse"/>
        <linearGradient xlink:href="#b" id="i" y1="1043.362" y2="1012.362" x2="0" gradientUnits="userSpaceOnUse" gradientTransform="matrix(.625 0 0 .5484 437.171 -33.375)"/>
        <linearGradient id="b">
            <stop stop-color="#282727"/>
            <stop offset="1" stop-color="#3A393A"/>
        </linearGradient>
        <linearGradient id="c">
            <stop stop-color="#48B9C7"/>
            <stop offset="1" stop-color="#48B9C7"/>
        </linearGradient>
        <linearGradient xlink:href="#c" id="j" y1="523.798" y2="516.798" gradientUnits="userSpaceOnUse" x2="0" gradientTransform="translate(-376.572 -485.798)"/>
        <linearGradient xlink:href="#c" id="k" y1="523.798" y2="516.798" gradientUnits="userSpaceOnUse" x2="0" gradientTransform="translate(-376.572 -479.798)"/>
        <linearGradient id="d">
            <stop stop-color="#282727"/>
            <stop offset="1" stop-opacity="0"/>
        </linearGradient>
        <linearGradient xlink:href="#d" id="h" y1="20" x1="20" y2="48" x2="48" gradientUnits="userSpaceOnUse"/>
        <linearGradient xlink:href="#d" id="g" y1="6" x1="-6" y2="36" gradientUnits="userSpaceOnUse" x2="24" gradientTransform="translate(0 12)"/>
        <linearGradient xlink:href="#d" id="f" y1="6" x1="-6" y2="36" gradientUnits="userSpaceOnUse" x2="24" gradientTransform="translate(0 18)"/>
    </defs>
    <path d="M6 12v42h4v-4h12v4h30v-4h6V24H10V12z" fill="url(#e)"/>
    <path d="M15 40l-5 4 6 6h6v4h7L15 40z" fill="url(#f)" opacity=".2" fill-rule="evenodd"/>
    <path d="M15 34l-5 4 12 12 4 4h9L15 34z" fill="url(#g)" opacity=".2" fill-rule="evenodd"/>
    <path d="M48 30L28 47l6 7h18v-4h6V40z" fill="url(#h)" opacity=".2" fill-rule="evenodd"/>
    <path fill="#B7BB25" d="M22 53h30v1H22z"/>
    <path d="M30 48v1h1v-1h-1zm1 1v1h1v-1h-1zm1 0h1v-1h-1v1zm1 0v1h1v-1h-1zm1 0h1v-1h-1v1zm1 0v1h1v-1h-1zm1 0h1v-1h-1v1zm1 0v1h1v-1h-1zm1 0h1v-1h-1v1zm1 0v1h1v-1h-1zm1 0h1v-1h-1v1zm1 0v1h1v-1h-1zm1 0h1v-1h-1v1zm1 0v1h1v-1h-1zm1 0h1v-1h-1v1zm1 0v1h1v-1h-1zM14 47v1h1v-1h-1zm1 1v1h1v-1h-1zm1 0h1v-1h-1v1zm1 0v1h1v-1h-1zm1 0h1v-1h-1v1zm-4 0h-1v1h1v-1z" color="#151819"/>
    <path fill="url(#i)" fill-rule="evenodd" d="M404.671 521.798h20v17h-20z" transform="translate(-376.571 -491.798)"/>
    <path fill="#83A498" d="M6 12h4v42H6z"/>
    <path fill="#83A498" d="M6 12h1v42H6z"/>
    <path d="M46 27v1h-1v-1h1zm-1 1v1h-1v-1h1zm-1 0h-1v-1h1v1zm-1 0v1h-1v-1h1zm-1 0h-1v-1h1v1zm-1 0v1h-1v-1h1zm-1 0h-1v-1h1v1zm-1 0v1h-1v-1h1zm-1 0h-1v-1h1v1zm-1 0v1h-1v-1h1zm-1 0h-1v-1h1v1zm-1 0v1h-1v-1h1zm-1 0h-1v-1h1v1zm-1 0v1h-1v-1h1zm-1 0h-1v-1h1v1zm-1 0v1h-1v-1h1z" color="#151819"/>
    <path d="M386.571 525.798v4h3.9c.036 0 .066-.016.1-.02v.02h1v-4h-1v.02c-.034-.005-.064-.02-.1-.02h-3.9z" fill="url(#j)" transform="translate(-376.571 -491.798)"/>
    <path d="M386.571 531.798v4h3.9c.036 0 .066-.016.1-.02v.02h1v-4h-1v.02c-.034-.005-.064-.02-.1-.02h-3.9z" fill="url(#k)" transform="translate(-376.571 -491.798)"/>
    <path opacity=".09" d="M10 43h5v1h-5zM10 37h5v1h-5z"/>
    <path fill="#83A498" d="M5 34h2v4H5zM5 40h2v4H5zM37.1 32.5v1h6v7h-6v3h-1c-.554 0-1-.446-1-1v-5h1v-4h-3v4h1v5c0 1.108.892 2 2 2h5v-1h-2v-1h5v-10h-7zm-3 3h1v1h-1v-1zm-2 3v4h1v-4h-1z"/>
</svg>
