<svg xmlns="http://www.w3.org/2000/svg" width="64" height="64" version="1">
    <path d="M4 50.25v2C4 53.774 5.25 55 6.8 55h50.4c1.55 0 2.8-1.226 2.8-2.75v-2c0 1.524-1.25 2.75-2.8 2.75H6.8C5.25 53 4 51.774 4 50.25z" opacity=".2"/>
    <path d="M6.8 10S4 10 4 12.75v38.5C4 52.774 5.249 54 6.8 54h50.4c1.551 0 2.8-1.226 2.8-2.75v-38.5C60 11.228 58.75 10 57.2 10H6.8z" fill="#48B9C7"/>
    <path d="M60 40c-3.69-.068-7.252 1.603-9.885 4.19A13.753 13.753 0 0 0 45.999 54h11.2c.198 0 .431-.045.658-.083 1.23-.29 2.142-1.366 2.142-2.666V40zM4 24c3.69.068 7.251-1.604 9.885-4.189A13.75 13.75 0 0 0 18 10.001H6.8c-.198 0-.432.045-.659.083C4.911 10.374 4 11.452 4 12.751V24z" opacity=".4" fill="#F9F5D7" fill-rule="evenodd"/>
    <path d="M6.8 10S4 10 4 12.75v1.002c0-2.75 2.8-2.75 2.8-2.75h50.4c1.55 0 2.8 1.226 2.8 2.75V12.75c0-1.524-1.25-2.75-2.8-2.75H6.8z" opacity=".1" fill="#F9F5D7"/>
</svg>
