<svg xmlns="http://www.w3.org/2000/svg" width="64" height="64" version="1">
    <path d="M32 60.999c-15.556 0-28-12.444-28-28C4 17.444 16.043 5 31.599 5c2.489 0 4.666 2.178 4.666 4.667 0 1.244-.31 2.177-1.244 3.11-.622.934-.843 2.267-.843 3.512 0 2.489 2.178 4.666 4.667 4.666h5.6c8.71 0 15.555 6.446 15.555 15.156C60 49.801 47.556 61 32 61z" opacity=".2"/>
    <path d="M32 59.999c-15.556 0-28-12.444-28-28C4 16.444 16.043 4 31.599 4c2.489 0 4.666 2.178 4.666 4.667 0 1.244-.31 2.177-1.244 3.11-.622.934-.843 2.267-.843 3.512 0 2.489 2.178 4.666 4.667 4.666h5.6c8.71 0 15.555 6.446 15.555 15.156C60 48.801 47.556 60 32 60z" fill="#F9F5D7"/>
    <path d="M31.598 4C16.042 4 4 16.445 4 32c0 .108.01.214.016.32C4.362 17.085 16.27 5 31.598 5c2.359 0 4.416 1.962 4.627 4.285.024-.197.04-.4.04-.617C36.266 6.179 34.088 4 31.599 4zm2.668 12.082a9.516 9.516 0 0 0-.086 1.207c0 .136.03.267.043.4.015-.202.017-.405.043-.607.401 2.14 2.359 3.875 4.578 3.875h5.601c8.53 0 15.254 6.184 15.53 14.621.011-.156.025-.31.025-.469 0-8.71-6.844-15.152-15.555-15.152h-5.601c-2.22 0-4.177-1.736-4.578-3.875z" opacity=".2" fill="#F9F5D7"/>
    <path d="M14 32c-2.133 0-4 1.867-4 4s1.867 4 4 4 4-1.867 4-4-1.867-4-4-4z" fill="#FD8019"/>
    <path d="M40 44c-2.133 0-4 1.867-4 4s1.867 4 4 4 4-1.867 4-4-1.867-4-4-4z" fill="#066678"/>
    <path d="M48 32c-2.133 0-4 1.867-4 4s1.867 4 4 4 4-1.867 4-4-1.867-4-4-4z" fill="#FA4934"/>
    <path d="M44.543 5a2.741 2.741 0 0 0-2.355 1.503L24.698 39.925a2.741 2.741 0 1 0 4.856 2.54L47.043 9.045A2.741 2.741 0 0 0 44.543 5z" opacity=".1"/>
    <path d="M27.126 40.195l17.49-33.42" fill="none" stroke="#79740D" stroke-width="5.482" stroke-linecap="round"/>
    <path d="M28.2 31.223c-2.506.235-5.967 2.607-7.257 6.199-2.275 6.336 1.68 14.562-5.517 14.333.461.236.922.424 1.385.59l.042.027c.093.033.187.055.28.086a11.207 11.207 0 0 0 .968.27c.133.03.265.06.397.085a10.758 10.758 0 0 0 1.49.17c.136.007.272.015.407.017.175.002.348-.005.52-.011h.012l.018.008c.036-.002.07-.01.105-.01.086-.005.172-.008.258-.015.197-.014.394-.037.59-.061.107-.013.215-.024.322-.04l.19-.032c.088-.015.174-.034.26-.05.437-.084.87-.184 1.297-.313l.056-.019.03-.01c.002-.002.005-.002.008-.003l.104-.035c.325-.105.643-.232.96-.36.169-.069.337-.134.503-.209.19-.085.371-.184.558-.278.022-.011.045-.02.067-.032.16-.08.32-.154.477-.24.148-.082.292-.17.438-.257.18-.107.357-.22.534-.333.175-.113.357-.217.528-.337.053-.037.103-.077.156-.115.074-.053.144-.111.217-.165.18-.133.359-.267.534-.406.177-.14.352-.279.524-.425.116-.1.226-.205.34-.307l.011-.01c.144-.13.29-.255.43-.388.039-.037.081-.072.12-.11v.006l.027-.03c.124-.12.239-.247.36-.37a20 20 0 0 0 .391-.41c.105-.112.213-.221.314-.336l.078-.088c.114-.13.215-.266.325-.398l.12-.147c.107-.13.215-.26.317-.392.07-.091.147-.179.215-.27.03-.04.053-.083.083-.123.101-.139.19-.28.287-.42.06-.085.12-.172.177-.258.08-.119.168-.234.244-.353.039-.06.073-.121.11-.182.04-.065.082-.129.121-.194.085-.14.157-.282.236-.422.118-.208.24-.415.346-.623.026-.05.047-.101.073-.152l.008-.019c.038-.077.08-.154.118-.232.054-.114.096-.227.147-.342.099-.22.195-.438.28-.657.035-.092.073-.185.107-.277.02-.057.042-.113.061-.169.03-.085.05-.166.078-.25.065-.2.12-.397.172-.594.002.007.008.013.01.019.027-.1.044-.195.068-.294.014-.058.03-.116.043-.173l.024-.11.016-.088c.016-.08.035-.16.048-.24.004-.024.005-.046.008-.07.044-.268.074-.53.092-.788.002-.036.008-.073.01-.11 0-.008.003-.017.003-.026.002-.03-.001-.06 0-.09.003-.067.002-.132.003-.198 0-.087.005-.176.003-.262a5.922 5.922 0 0 0-.06-.694c-.212-1.42-.706-2.55-1.36-3.443l-5.444-2.644-.378-.184-.035-.016-.011-.005-.003-.003z" opacity=".1" fill-rule="evenodd"/>
    <path d="M28.2 30.223c-2.506.235-5.967 2.607-7.257 6.199-2.275 6.336 1.68 14.562-5.517 14.333.461.236.922.424 1.385.59l.042.027c.093.033.187.055.28.085a11.207 11.207 0 0 0 .968.27c.133.03.265.06.397.086a10.758 10.758 0 0 0 1.49.17c.136.007.272.015.407.017.175.001.348-.005.52-.011h.012l.018.008c.036-.002.07-.01.105-.011.086-.004.172-.007.258-.014.197-.014.394-.037.59-.061.107-.013.215-.024.322-.04l.19-.032c.088-.015.174-.034.26-.05.437-.084.87-.184 1.297-.313l.056-.019.03-.01.008-.004c.035-.01.07-.023.104-.034.325-.105.643-.232.96-.36.169-.069.337-.134.503-.21.19-.084.371-.183.558-.277.022-.011.045-.02.067-.032.16-.08.32-.154.477-.24.148-.082.292-.17.438-.257.18-.107.357-.22.534-.333.175-.114.357-.217.528-.337.053-.037.103-.077.156-.115.074-.053.144-.111.217-.165.18-.133.359-.267.534-.406.177-.14.352-.279.524-.425.116-.1.226-.205.34-.307l.011-.01c.144-.13.29-.255.43-.388.039-.037.081-.072.12-.11v.006l.027-.03c.124-.12.239-.247.36-.37a20 20 0 0 0 .391-.41c.105-.112.213-.221.314-.336l.078-.088c.114-.13.215-.266.325-.398l.12-.147c.107-.131.215-.26.317-.393.07-.09.147-.178.215-.27.03-.04.053-.082.083-.122.101-.139.19-.28.287-.42.06-.086.12-.172.177-.258.08-.119.168-.234.244-.353.039-.06.073-.121.11-.182.04-.065.082-.13.121-.195.085-.14.157-.28.236-.421.118-.208.24-.415.346-.623.026-.05.047-.101.073-.152l.008-.019c.038-.077.08-.154.118-.232.054-.114.096-.228.147-.342.099-.22.195-.438.28-.657.035-.093.073-.185.107-.277.02-.057.042-.113.061-.169.03-.085.05-.166.078-.25.065-.2.12-.397.172-.594.002.007.008.013.01.019.027-.1.044-.196.068-.294.014-.058.03-.116.043-.173l.024-.11.016-.088c.016-.08.035-.16.048-.24.004-.024.005-.046.008-.07.044-.268.074-.53.092-.788.002-.036.008-.073.01-.11 0-.008.003-.017.003-.026.002-.03-.001-.06 0-.09.003-.067.002-.132.003-.198 0-.087.005-.176.003-.262a5.922 5.922 0 0 0-.06-.694c-.212-1.42-.706-2.55-1.36-3.443l-5.444-2.644-.378-.184-.035-.016-.011-.005-.003-.003z" fill="#504945" fill-rule="evenodd"/>
    <path d="M31.251 26.302a1.378 1.378 0 0 0-1.215.454l-2.3 2.601a1.366 1.366 0 0 0 .408 2.123l6.185 3.136a1.37 1.37 0 0 0 1.97-.946l.7-3.434a1.363 1.363 0 0 0-.727-1.49l-4.583-2.308a1.388 1.388 0 0 0-.438-.136z" opacity=".1" fill-rule="evenodd"/>
    <path d="M31.251 25.301a1.378 1.378 0 0 0-1.215.454l-2.3 2.602a1.366 1.366 0 0 0 .408 2.123l6.185 3.135a1.37 1.37 0 0 0 1.97-.945l.7-3.435a1.363 1.363 0 0 0-.727-1.49l-4.583-2.307a1.388 1.388 0 0 0-.438-.137z" fill="gray" fill-rule="evenodd"/>
</svg>
