<svg xmlns="http://www.w3.org/2000/svg" width="64" height="64" version="1">
    <path d="M6.8 61C5.25 61 4 59.75 4 58.2v-2C4 57.75 5.25 59 6.8 59h50.4c1.55 0 2.8-1.25 2.8-2.8v2c0 1.55-1.25 2.8-2.8 2.8H32z" opacity=".2"/>
    <path d="M32 4H6.8A2.794 2.794 0 0 0 4 6.8V32h28z" fill="#A04A73"/>
    <path d="M32 4h25.2C58.751 4 60 5.249 60 6.8V32H32zM32 60H6.8A2.794 2.794 0 0 1 4 57.2V32h28z" fill="#73C48F"/>
    <path d="M32 60h25.2c1.551 0 2.8-1.249 2.8-2.8V32H32z" fill="#8F3F71"/>
    <path d="M6.8 4C5.25 4 4 5.25 4 6.8v1C4 6.25 5.25 5 6.8 5h50.4C58.75 5 60 6.25 60 7.8v-1C60 5.25 58.75 4 57.2 4H6.8z" opacity=".2" fill="#F9F5D7"/>
    <path fill="#3A393A" d="M12 12h40v40H12z"/>
    <path d="M18 47h16" opacity=".2" fill="none" stroke="#151819" stroke-width="4" stroke-linecap="round"/>
    <path d="M18 46h16" fill="none" stroke="#F9F5D7" stroke-width="4" stroke-linecap="round"/>
    <path d="M18 35s8.088.7 8-8c-.087-8.701-8-8-8-8m-.028 15.987v-16" opacity=".2" fill="none" stroke="#151819" stroke-width="4" stroke-linecap="round" stroke-linejoin="bevel"/>
    <path d="M18 34s8.088.7 8-8c-.087-8.7-8-8-8-8m-.028 15.987v-16" fill="none" stroke="#F9F5D7" stroke-width="4" stroke-linecap="round" stroke-linejoin="bevel"/>
    <path d="M34 27s8 .928 8-4c0-4.93-8-4-8-4m0 16V19" opacity=".2" fill="none" stroke="#151819" stroke-width="4" stroke-linecap="round" stroke-linejoin="bevel"/>
    <path d="M34 26s8 .929 8-4c0-4.93-8-4-8-4m0 16V18" fill="none" stroke="#F9F5D7" stroke-width="4" stroke-linecap="round" stroke-linejoin="bevel"/>
</svg>
