<svg xmlns="http://www.w3.org/2000/svg" width="64" height="64">
    <path d="M32 5A28 28 0 0 0 4 33a28 28 0 0 0 28 28 28 28 0 0 0 28-28A28 28 0 0 0 32 5z" opacity=".2"/>
    <path d="M32 4A28 28 0 0 0 4 32a28 28 0 0 0 28 28 28 28 0 0 0 28-28A28 28 0 0 0 32 4z" fill="#7CB668"/>
    <path d="M32 4A28 28 0 0 0 4 32a28 28 0 0 0 .021.406A28 28 0 0 1 32 5a28 28 0 0 1 27.979 27.578A28 28 0 0 0 60 32 28 28 0 0 0 32 4z" opacity=".2" fill="#F9F5D7"/>
    <path d="M26 15l-1.777 8h-7.778l-1.336 6h7.78l-1.778 8h-7.779L12 43h7.777L18 51h6l1.777-8h8L32 51h6l1.777-8h7.825l1.332-6H41.11l1.778-8h7.822L52 23.207V23h-7.777L46 15h-6l-1.777 8h-8L32 15h-6zm2.889 14h8l-1.778 8h-8l1.778-8z" opacity=".2"/>
    <path d="M26 14h6l-8 36h-6zM40 14h6l-8 36h-6z" fill="#F9F5D7"/>
    <path d="M16.446 22l-1.336 6H50.71l1.29-5.793V22zm-3.114 14L12 42h35.602l1.332-6z" fill="#F9F5D7"/>
</svg>
