<svg xmlns="http://www.w3.org/2000/svg" width="64" height="64" version="1">
    <rect width="46" height="40" x="-51" y="-56" rx="2" ry="2.106" transform="matrix(0 -1 -1 0 0 0)" opacity=".2"/>
    <rect width="46" height="40" x="-49" y="-56" rx="2" ry="2.106" transform="matrix(0 -1 -1 0 0 0)" fill="#9D0006"/>
    <path d="M8 56v2c0 1.108.94 2 2.106 2h35.788C47.06 60 48 59.108 48 58v-2c0 1.108-.94 2-2.106 2H10.106C8.939 58 8 57.108 8 56z" opacity=".2"/>
    <rect width="46" height="40" x="-59" y="-48" rx="2" ry="2.106" transform="matrix(0 -1 -1 0 0 0)" fill="#CB241D"/>
    <path d="M26.537 25.234c-.554 0-1.071.272-1.197.72-.465 1.716.056 4.371.924 7.68l-.262.64c-.665 1.623-1.495 3.239-2.226 4.673-3.015 5.91-5.361 9.1-6.926 9.322l-.006-.065c-.034-.737 1.325-2.638 3.166-4.15.192-.155 1.011-.95 1.011-.95s-1.106.586-1.354.737c-2.307 1.379-3.455 2.761-3.643 3.678-.055.273-.02.608.22.746l.59.297c1.606.805 3.581-1.312 6.206-5.92 2.671-.879 6.004-1.705 9.039-2.153 2.716 1.555 5.832 2.295 7.03 1.975.227-.06.467-.239.59-.404.095-.152.23-.76.23-.76s-.226.308-.411.398c-.758.359-3.15-.24-5.605-1.442 2.123-.226 3.89-.235 4.836.067 1.2.384 1.201.777 1.185.858.016-.066.07-.33.063-.442-.027-.289-.116-.546-.333-.76-.444-.438-1.541-.659-3.036-.678-1.127-.012-2.478.086-3.944.296-.672-.386-1.381-.811-1.943-1.337-1.425-1.333-2.62-3.184-3.361-5.26.05-.198.099-.393.143-.589.206-.928.354-3.999.354-3.999s-.587 2.307-.68 2.655c-.058.22-.132.456-.217.701-.45-1.584-.678-3.119-.678-4.283 0-.33.028-.97.121-1.476.045-.361.176-.548.312-.639.268.065.568.477.882 1.166.269.596.252 1.286.252 1.713 0 0 .289-1.057.222-1.682-.041-.375-.397-1.34-1.155-1.33h-.062l-.338-.004zm.257 9.59c.784 1.579 1.866 3.079 3.284 4.282.317.267.653.522 1 .761-2.577.48-5.282 1.155-7.796 2.21.454-.809.946-1.69 1.45-2.64a36.652 36.652 0 0 0 2.062-4.613z" opacity=".2" fill="#F9F5D7" stroke="#151819" stroke-width="1.001"/>
    <path d="M10.105 13C8.94 13 8 13.891 8 14.999V16c0-1.107.94-1.999 2.105-1.999h35.788C47.06 14.001 48 14.893 48 16v-1.001C48 13.89 47.06 13 45.893 13H10.105zM18.105 3C16.94 3 16 3.891 16 4.999V6c0-1.107.94-1.999 2.105-1.999h35.788C55.06 4.001 56 4.893 56 6V4.999C56 3.89 55.06 3 53.893 3H18.105z" opacity=".2" fill="#F9F5D7"/>
    <path d="M26.536 24.308c-.553 0-1.07.233-1.196.68-.465 1.715.056 4.366.924 7.67l-.262.639c-.665 1.62-1.495 3.233-2.226 4.665-3.016 5.902-5.362 9.086-6.926 9.308l-.006-.065c-.034-.736 1.324-2.634 3.165-4.143.192-.155 1.012-.948 1.012-.948s-1.106.584-1.355.735c-2.307 1.377-3.455 2.757-3.642 3.673-.056.272-.02.607.22.744l.59.296c1.606.804 3.58-1.31 6.206-5.91 2.671-.877 6.004-1.703 9.04-2.15 2.716 1.553 5.832 2.292 7.029 1.973.228-.06.467-.24.59-.404.096-.152.23-.758.23-.758s-.225.306-.41.397c-.759.357-3.15-.24-5.606-1.44 2.123-.227 3.891-.235 4.836.067 1.2.383 1.202.776 1.185.856.016-.066.07-.33.064-.441-.028-.288-.116-.546-.334-.758-.444-.438-1.541-.659-3.036-.679-1.127-.012-2.478.087-3.944.297-.672-.386-1.381-.81-1.943-1.336-1.425-1.33-2.62-3.179-3.361-5.25.05-.2.099-.394.143-.59.206-.927.34-4.093.34-4.093s-.573 2.404-.665 2.751c-.06.22-.133.456-.218.7-.45-1.581-.678-3.114-.678-4.276 0-.329.028-.968.121-1.474.045-.36.176-.548.312-.638.268.065.568.477.882 1.165.269.595.251 1.284.251 1.71 0 0 .29-1.056.223-1.68-.041-.375-.397-1.304-1.155-1.293-.133 0-.24.002-.372 0zm.258 9.537c.784 1.577 1.866 3.075 3.284 4.276.317.267.653.521 1 .76-2.577.48-5.282 1.154-7.797 2.207.455-.808.947-1.688 1.45-2.636a36.568 36.568 0 0 0 2.063-4.607z" fill="#F9F5D7" stroke="#F9F5D7"/>
    <path d="M59.958 46.848A16 16 0 0 1 44 62a16 16 0 0 1-15.958-14.848A16 16 0 0 0 28 48a16 16 0 0 0 16 16 16 16 0 0 0 16-16 16 16 0 0 0-.042-1.152z" opacity=".2" fill-rule="evenodd"/>
    <circle cx="44" cy="47" r="16" fill="#48B9C7"/>
    <path d="M36 51.436V55h3.564l9-9-3.563-3.564zm15.717-8.578a.945.945 0 0 0 0-1.348l-2.227-2.227a.945.945 0 0 0-1.348 0l-1.862 1.874 3.564 3.564z" fill="#F9F5D7"/>
</svg>
