<svg xmlns="http://www.w3.org/2000/svg" width="64" height="64" version="1">
    <path d="M44.002 2a23.77 23.666 0 0 1-18.766 15.22 23.77 23.666 0 0 1 .316 3.759A23.77 23.666 0 0 1 2 44.632 31.611 31.611 0 0 0 30.306 62C47.864 62 62 47.926 62 30.447 62 17.862 54.656 7.075 44.002 2z" fill="#FECE4F"/>
    <path d="M44 2a23.77 23.666 0 0 1-18.766 15.219 23.77 23.666 0 0 1 .114.978A23.77 23.666 0 0 0 44 3c10.488 4.995 17.754 15.53 17.979 27.863.01-.138.021-.277.021-.418C62 17.86 54.654 7.074 44 2zM25.512 21.766A23.77 23.666 0 0 1 2 44.633c.17.336.362.657.543.986a23.77 23.666 0 0 0 22.969-22.853 23.77 23.666 0 0 1 .023.746 23.77 23.666 0 0 0 .016-.532 23.77 23.666 0 0 0-.04-1.214z" opacity=".2" fill="#F9F5D7"/>
    <path d="M25.348 18.2a23.77 23.666 0 0 1-.112.02 23.77 23.666 0 0 1 .278 2.546 23.77 23.666 0 0 0 .039-.786 23.77 23.666 0 0 0-.026-.488 23.77 23.666 0 0 1-.013.274 23.77 23.666 0 0 0-.166-1.567zM61.984 31.04C61.666 48.243 47.664 62 30.304 62 18.287 62 7.912 55.38 2.538 45.611a23.77 23.666 0 0 1-.537.022A31.61 31.61 0 0 0 30.305 63C47.865 63 62 48.925 62 31.445c0-.136-.01-.269-.016-.404z" opacity=".2"/>
</svg>
