<svg xmlns="http://www.w3.org/2000/svg" width="64" height="64">
    <path d="M10.182 9h48.96S62 9 62 11.824v36.705L53.818 57H4.858S2 57 2 54.176V17.471z" opacity=".2"/>
    <path d="M10.182 8h48.96S62 8 62 10.824v36.705L53.818 56H4.858S2 56 2 53.176V16.471z" fill="#7CB668"/>
    <path d="M40 20v6h-4v3h4v8.234C40 42.881 41.998 45 45.586 45H50v-4h-3.969C44.101 41 44 39.66 44 36.836V29h6v-3h-6v-6zm-15.95-.957C16.11 19.043 14 23.529 14 32c0 8.47 2.073 13.055 10.05 13.055h2.266l3.301 5.644 3.824-1.41-3.117-5.648C33.293 42.229 34 37.647 34 32c0-8.47-2.008-12.957-9.95-12.957zM24.017 23C28.86 23 30 26.514 30 32.309 30 38.103 28.896 41 24.016 41 19.135 41 18 38.103 18 32.309 18 26.514 19.172 23 24.016 23z" opacity=".2"/>
    <path d="M40 19v6h-4v3h4v8.234C40 41.881 41.998 44 45.586 44H50v-4h-3.969C44.101 40 44 38.66 44 35.836V28h6v-3h-6v-6zm-15.95-.957C16.11 18.043 14 22.529 14 31c0 8.47 2.073 13.055 10.05 13.055h2.266l3.301 5.644 3.824-1.41-3.117-5.648C33.293 41.229 34 36.647 34 31c0-8.47-2.008-12.957-9.95-12.957zM24.017 22C28.86 22 30 25.514 30 31.309 30 37.103 28.896 40 24.016 40 19.135 40 18 37.103 18 31.309 18 25.514 19.172 22 24.016 22z" fill="#F9F5D7"/>
    <path d="M10.184 8L2 16.469v1L10.184 9h48.96S62 9 62 11.824v-1C62 8.001 59.145 8 59.145 8H10.184z" fill="#F9F5D7" opacity=".2"/>
</svg>
