<svg xmlns="http://www.w3.org/2000/svg" width="64" height="64" version="1">
    <rect width="52" height="52" x="-59" y="-58" rx="2.5" ry="2.5" transform="matrix(0 -1 -1 0 0 0)" opacity=".2"/>
    <rect width="52" height="52" x="-58" y="-58" rx="2.5" ry="2.5" transform="matrix(0 -1 -1 0 0 0)" fill="#504945"/>
    <g transform="matrix(2 0 0 2 0 0)" opacity=".4">
        <rect width="11" height="6" x="4" y="22" rx="1.25" ry="1.25"/>
        <rect width="11" height="6" x="17" y="22" rx="1.25" ry="1.25"/>
        <path d="M24 7h4v1h-4zM24 9h4v1h-4zM24 11h4v1h-4zM24 13h4v1h-4zM24 15h4v1h-4zM24 17h4v1h-4z"/>
    </g>
    <path d="M8.5 6A2.495 2.495 0 0 0 6 8.5v1C6 8.115 7.115 7 8.5 7h47C56.885 7 58 8.115 58 9.5v-1C58 7.115 56.885 6 55.5 6h-47z" fill="#F9F5D7" opacity=".1"/>
</svg>
