<svg xmlns="http://www.w3.org/2000/svg" width="64" height="64" version="1">
    <rect width="57" height="57" x="-61" y="-60" rx="2.85" ry="2.85" transform="matrix(0 -1 -1 0 0 0)" opacity=".2"/>
    <rect width="57" height="57" x="-60" y="-60" rx="2.85" ry="2.85" transform="matrix(0 -1 -1 0 0 0)" fill="#CB241D"/>
    <rect width="7" height="37" x="40" y="16" rx="1.4" ry="1.423" opacity=".1"/>
    <rect width="7" height="37" x="16" y="16" rx="1.4" ry="1.423" opacity=".1"/>
    <rect width="7" height="37" x="16" y="15" rx="1.4" ry="1.423" fill="#3A393A"/>
    <rect width="7" height="37" x="40" y="15" rx="1.4" ry="1.423" fill="#3A393A"/>
    <rect width="21" height="23" x="21" y="25" rx="1.469" ry="1.425" opacity=".1"/>
    <rect width="21" height="23" x="21" y="24" rx="1.469" ry="1.425" fill="#504945"/>
    <rect width="5" height="21" x="29" y="12" rx="1.25" ry="1.4" fill="#665C54"/>
    <path d="M31.5 32a5.5 5.333 0 0 0-5.5 5.333 5.5 5.333 0 0 0 .008.222c0 .015-.008.028-.008.044v4.802c0 .886.613 1.599 1.375 1.599h8.25c.762 0 1.375-.713 1.375-1.599v-4.802c0-.021-.01-.039-.01-.06a5.5 5.333 0 0 0 .01-.206A5.5 5.333 0 0 0 31.5 32z" opacity=".1"/>
    <path d="M31.5 31a5.5 5.333 0 0 0-5.5 5.333 5.5 5.333 0 0 0 .008.222c0 .015-.008.028-.008.044v4.802c0 .886.613 1.599 1.375 1.599h8.25c.762 0 1.375-.713 1.375-1.599v-4.802c0-.021-.01-.039-.01-.06a5.5 5.333 0 0 0 .01-.206A5.5 5.333 0 0 0 31.5 31z" fill="#928274"/>
    <path d="M5.85 3A2.843 2.843 0 0 0 3 5.85v1C3 5.27 4.27 4 5.85 4h51.3C58.73 4 60 5.27 60 6.85v-1C60 4.27 58.73 3 57.15 3H5.85z" fill="#F9F5D7" opacity=".2"/>
</svg>
