<svg xmlns="http://www.w3.org/2000/svg" width="64" height="64">
    <path d="M12.491 33.002l-7.745 7.744a2.546 2.546 0 0 0-.746 1.8v15.908A2.546 2.546 0 0 0 6.545 61h15.91c.674 0 1.322-.267 1.8-.743L32 52.51l19.509-19.509 7.745-7.745A2.546 2.546 0 0 0 60 23.454V7.545A2.546 2.546 0 0 0 57.455 5h-15.91c-.675 0-1.322.268-1.8.746L32 13.49z" opacity=".2"/>
    <path d="M12.491 32.002l-7.745 7.744a2.546 2.546 0 0 0-.746 1.8v15.908A2.546 2.546 0 0 0 6.545 60h15.91c.674 0 1.322-.267 1.8-.743L32 51.51l19.509-19.509 7.745-7.745A2.546 2.546 0 0 0 60 22.454V6.545A2.546 2.546 0 0 0 57.455 4h-15.91c-.675 0-1.322.268-1.8.746L32 12.49z" fill="#8F3F71"/>
    <path d="M41.545 4c-.675 0-1.322.269-1.799.746L32 12.492l-19.508 19.51-7.746 7.744A2.544 2.544 0 0 0 4 41.545v1c0-.675.269-1.322.746-1.799l7.746-7.744L32 13.492l7.746-7.746A2.544 2.544 0 0 1 41.545 5h15.91A2.545 2.545 0 0 1 60 7.545v-1A2.545 2.545 0 0 0 57.455 4h-15.91z" opacity=".1" fill="#F9F5D7"/>
    <path d="M51.509 33.002l7.745 7.744c.478.477.746 1.124.746 1.8v15.908A2.546 2.546 0 0 1 57.455 61h-15.91a2.546 2.546 0 0 1-1.8-.743L32 52.51 12.491 33.002l-7.745-7.745A2.546 2.546 0 0 1 4 23.454V7.545A2.546 2.546 0 0 1 6.545 5h15.91c.675 0 1.322.268 1.8.746L32 13.49z" opacity=".2"/>
    <path d="M51.509 32.002l7.745 7.744c.478.477.746 1.124.746 1.8v15.908A2.546 2.546 0 0 1 57.455 60h-15.91a2.546 2.546 0 0 1-1.8-.743L32 51.51 12.491 32.002l-7.745-7.745A2.546 2.546 0 0 1 4 22.454V6.545A2.546 2.546 0 0 1 6.545 4h15.91c.675 0 1.322.268 1.8.746L32 12.49z" fill="#48B9C7"/>
    <path d="M44.205 12a.435.435 0 0 0-.295.127l-1.174 1.174a.435.435 0 0 0-.127.307v6.74h-6.74a.435.435 0 0 0-.307.127L31.22 24.82a.435.435 0 0 0 0 .613l7.205 7.208-1.055 1.054-4.701-4.7a3.982 3.982 0 0 0-5.623 0 3.983 3.983 0 0 0 0 5.622l4.701 4.702-1.853 1.853-3.57-.379c1.133-1.554 1.069-3.72-.333-5.12a3.982 3.982 0 0 0-5.623 0l-7.513 7.513a6.343 6.343 0 0 0 0 8.961 6.344 6.344 0 0 0 8.962 0c1.204-1.203 1.674-2.778 1.705-4.357l1.02 1.02a.435.435 0 0 0 .613 0l.836-.837a.435.435 0 0 0 0-.613l-4.174-4.174a.435.435 0 0 0-.615 0l-2.504 2.504a.435.435 0 0 0 0 .615l.834.834a.435.435 0 0 0 .615 0l1.016-1.015c.61 1.54.455 3.325-.795 4.574a4.282 4.282 0 0 1-6.064 0 4.28 4.28 0 0 1 0-6.063l7.513-7.514a1.92 1.92 0 0 1 2.725 0 1.92 1.92 0 0 1 0 2.725l-1.67 1.67a.435.435 0 0 0 0 .615l4.174 4.174a.435.435 0 0 0 .615 0l.834-.836a.435.435 0 0 0 0-.615l-1.978-1.977 3.935.409a.435.435 0 0 0 .352-.125l3.535-3.536a.435.435 0 0 0 0-.613l-3.031-3.033 2.724-2.723 3.032 3.031a.435.435 0 0 0 .615 0l3.338-3.34a.435.435 0 0 0 0-.615L37.984 29.3l2.198-2.198a.435.435 0 0 0 0-.615l-.836-.834a.435.435 0 0 0-.614 0l-2.197 2.197-2.724-2.724 2.734-2.735h6.064v7.913a.435.435 0 0 0 .743.308l1.173-1.174a.435.435 0 0 0 .127-.308V22.39h6.739a.435.435 0 0 0 .308-.127l1.174-1.174a.435.435 0 0 0-.309-.742h-7.912v-7.914a.435.435 0 0 0-.447-.434zM29.857 29.874c.493 0 .984.19 1.362.568l1.361 1.362-2.725 2.724-1.36-1.36a1.92 1.92 0 0 1 0-2.726 1.924 1.924 0 0 1 1.362-.568z" opacity=".2" fill-rule="evenodd"/>
    <path d="M44.205 11a.435.435 0 0 0-.295.127l-1.174 1.174a.435.435 0 0 0-.127.307v6.74h-6.74a.435.435 0 0 0-.307.127L31.22 23.82a.435.435 0 0 0 0 .613l7.205 7.208-1.055 1.054-4.701-4.7a3.982 3.982 0 0 0-5.623 0 3.983 3.983 0 0 0 0 5.622l4.701 4.702-1.853 1.853-3.57-.379c1.133-1.554 1.069-3.72-.333-5.12a3.982 3.982 0 0 0-5.623 0l-7.513 7.513a6.343 6.343 0 0 0 0 8.961 6.344 6.344 0 0 0 8.962 0c1.204-1.203 1.674-2.778 1.705-4.357l1.02 1.02a.435.435 0 0 0 .613 0l.836-.837a.435.435 0 0 0 0-.613l-4.174-4.174a.435.435 0 0 0-.615 0l-2.504 2.504a.435.435 0 0 0 0 .615l.834.834a.435.435 0 0 0 .615 0l1.016-1.015c.61 1.54.455 3.325-.795 4.574a4.282 4.282 0 0 1-6.064 0 4.28 4.28 0 0 1 0-6.063l7.513-7.514a1.92 1.92 0 0 1 2.725 0 1.92 1.92 0 0 1 0 2.725l-1.67 1.67a.435.435 0 0 0 0 .615l4.174 4.174a.435.435 0 0 0 .615 0l.834-.836a.435.435 0 0 0 0-.615l-1.978-1.977 3.935.409a.435.435 0 0 0 .352-.125l3.535-3.536a.435.435 0 0 0 0-.613l-3.031-3.033 2.724-2.723 3.032 3.031a.435.435 0 0 0 .615 0l3.338-3.34a.435.435 0 0 0 0-.615L37.984 28.3l2.198-2.198a.435.435 0 0 0 0-.615l-.836-.834a.435.435 0 0 0-.614 0l-2.197 2.197-2.724-2.724 2.734-2.735h6.064v7.913a.435.435 0 0 0 .743.308l1.173-1.174a.435.435 0 0 0 .127-.308V21.39h6.739a.435.435 0 0 0 .308-.127l1.174-1.174a.435.435 0 0 0-.309-.742h-7.912v-7.914a.435.435 0 0 0-.447-.434zM29.857 28.874c.493 0 .984.19 1.362.568l1.361 1.362-2.725 2.724-1.36-1.36a1.92 1.92 0 0 1 0-2.726 1.924 1.924 0 0 1 1.362-.568z" fill="#F9F5D7" fill-rule="evenodd"/>
    <path d="M41.594 37a5.58 5.58 0 0 0-3.96 1.633 5.613 5.613 0 0 0 0 7.92l.593.595 2.313-2.31-.595-.595a2.318 2.318 0 0 1 0-3.297 2.318 2.318 0 0 1 3.296 0c.38.38.589.845.65 1.334v10.53L46.08 55l.822-.822 2.015-2.015L54 47.08l-2.31-2.31-4.54 4.538c-.005-2.427.007-4.856 0-7.297v-.048l-.006-.048a5.582 5.582 0 0 0-1.59-3.281 5.58 5.58 0 0 0-3.96-1.634z" opacity=".2" fill-rule="evenodd"/>
    <path d="M41.594 36a5.58 5.58 0 0 0-3.96 1.633 5.613 5.613 0 0 0 0 7.92l.593.595 2.313-2.31-.595-.595a2.318 2.318 0 0 1 0-3.297 2.318 2.318 0 0 1 3.296 0c.38.38.589.845.65 1.334v10.53L46.08 54l.822-.822 2.015-2.015L54 46.08l-2.31-2.31-4.54 4.538c-.005-2.427.007-4.856 0-7.297v-.048l-.006-.048a5.582 5.582 0 0 0-1.59-3.281 5.58 5.58 0 0 0-3.96-1.634z" fill="#F9F5D7" fill-rule="evenodd"/>
    <path d="M6.545 4A2.545 2.545 0 0 0 4 6.545v1A2.545 2.545 0 0 1 6.545 5h15.91c.675 0 1.322.269 1.799.746L32 13.492l19.508 19.51 7.746 7.744c.477.477.746 1.124.746 1.799v-1c0-.675-.269-1.322-.746-1.799l-7.746-7.744L32 12.492l-7.746-7.746A2.544 2.544 0 0 0 22.455 4H6.545z" opacity=".2" fill="#F9F5D7"/>
</svg>
