<svg xmlns="http://www.w3.org/2000/svg" width="64" height="64">
    <path d="M42.684 41.418C38.2 49.39 34.762 50.196 32 48.56c-2.761-1.637-3.8-5.096.683-13.068s13.555-16.989 16.638-17.728c.917 3.11-2.154 15.682-6.638 23.654z" opacity=".2"/>
    <path d="M25.042 37.594C32.81 42.196 33.594 45.726 32 48.56s-4.964 3.902-12.73-.702C11.502 43.256 2.72 33.944 2 30.78c3.03-.942 15.276 2.21 23.042 6.814z" opacity=".2"/>
    <path d="M25.042 36.594C32.81 41.196 33.594 44.726 32 47.56s-4.964 3.902-12.73-.702C11.502 42.256 2.72 32.944 2 29.78c3.03-.942 15.276 2.21 23.042 6.814z" fill="#E6D3A3"/>
    <path d="M31.316 35.492C35.8 43.464 34.762 46.924 32 48.56s-6.2.83-10.684-7.142c-4.483-7.972-7.554-20.544-6.637-23.654 3.083.74 12.154 9.755 16.638 17.727z" opacity=".2"/>
    <path d="M31.316 34.492C35.8 42.464 34.762 45.924 32 47.56s-6.2.83-10.684-7.142c-4.483-7.972-7.554-20.544-6.637-23.654 3.083.74 12.153 9.756 16.637 17.728z" fill="#CB8819"/>
    <path d="M37.774 37.892c0 9.206-2.585 11.668-5.774 11.668-3.188 0-5.773-2.462-5.773-11.668S29.69 16.222 32 14c2.31 2.222 5.774 14.686 5.774 23.892z" opacity=".2"/>
    <path d="M37.774 35.892c0 9.206-2.585 11.668-5.774 11.668-3.188 0-5.773-2.462-5.773-11.668S29.69 14.222 32 12c2.31 2.222 5.774 14.686 5.774 23.892z" fill="#FD8019"/>
    <path d="M42.684 40.418C38.2 48.39 34.762 49.196 32 47.56s-3.8-5.096.684-13.068S46.238 17.503 49.32 16.764c.918 3.11-2.152 15.682-6.636 23.654z" fill="#FD8019"/>
    <path d="M44.73 47.858c-7.766 4.604-11.136 3.536-12.73.702s-.81-6.364 6.958-10.966C46.724 32.99 58.97 29.838 62 30.78c-.72 3.164-9.503 12.476-17.27 17.079z" opacity=".2"/>
    <path d="M42.684 39.418C38.2 47.39 34.762 48.196 32 46.56s-3.8-5.096.684-13.068S46.238 16.503 49.32 15.764c.918 3.11-2.152 15.682-6.636 23.654z" fill="#FD8019"/>
    <path d="M44.73 46.858c-7.766 4.604-11.136 3.536-12.73.702s-.81-6.364 6.958-10.966C46.724 31.99 58.97 28.838 62 29.78c-.72 3.164-9.503 12.476-17.27 17.079z" fill="#D55C0D"/>
    <path d="M33.003 54c-2 0-2.013-2.98-2-4" opacity=".2" stroke-linejoin="bevel" stroke="#151819" stroke-linecap="round" stroke-width="2" fill="none"/>
    <path d="M33.003 53c-2 0-2.013-2.98-2-4" stroke-linejoin="bevel" stroke="#7CB668" stroke-linecap="round" stroke-width="2" fill="none"/>
</svg>
