<svg xmlns="http://www.w3.org/2000/svg" width="64" height="64" version="1">
    <path d="M4.05 32c-.011.335-.05.663-.05 1 0 15.512 12.488 28 28 28 15.51 0 27.998-12.488 27.998-28 0-.337-.039-.664-.05-1-.528 15.042-12.776 27-27.95 27S4.578 47.042 4.05 32z" opacity=".2"/>
    <path d="M59.998 32C59.998 16.488 47.511 4 32 4 16.488 4 4 16.489 4 32s12.488 28 28 28c15.51 0 27.998-12.488 27.998-28z" fill="#48B9C7"/>
    <path d="M32 4A27.94 27.94 0 0 0 4 32c0 .114.011.224.018.336C4.369 17.135 16.71 5 32 5s27.63 12.135 27.982 27.336c.007-.112.018-.223.018-.336A27.94 27.94 0 0 0 32 4z" opacity=".1" fill="#F9F5D7"/>
    <g opacity=".2">
        <path d="M14 37l16 6v4l-16-6zM14 29l16 6v4l-16-6zM14 21l16 6v4l-16-6zM34 36l15.999 6v4l-16-6zM34 28l15.999 6v4l-16-6zM34 20l15.999 6v4l-16-6z"/>
    </g>
    <g fill="#F9F5D7">
        <path d="M14 36l16 6v4l-16-6zM14 28l16 6v4l-16-6zM14 20l16 6v4l-16-6zM34 35l15.999 6v4l-16-6zM34 27l15.999 6v4l-16-6zM34 19l15.999 6v4l-16-6z"/>
    </g>
</svg>
