<svg xmlns="http://www.w3.org/2000/svg" width="64" height="64" version="1">
    <path d="M25 7c-6.075 0-11 4.925-11 11 0 6.077 4.925 11 11 11a10.953 10.953 0 0 0 3-.43V53c0 4 4 4 8 4 14 0 14-16.665 14-22-2 2-14 16-14 5.333 0-7.564.048-15.194 0-22.726-.212-5.915-5.084-10.6-11-10.606z" fill="#504945"/>
    <path d="M25 16a3 3 0 0 1 3 3 3 3 0 0 1-3 3 3 3 0 0 1-3-3 3 3 0 0 1 3-3z" opacity=".2"/>
    <path d="M25 15a3 3 0 0 1 3 3 3 3 0 0 1-3 3 3 3 0 0 1-3-3 3 3 0 0 1 3-3z" fill="#F9F5D7"/>
    <path d="M25 7c-6.075 0-11 4.924-11 11 0 .168.016.332.025.498C14.29 12.658 19.095 8 25 8c5.916.006 10.788 4.691 11 10.605 0-.334.002-.668 0-1C35.788 11.691 30.916 7.006 25 7zm25 27.998c-2 2-14 16-14 5.332v1c0 10.657 11.971-3.3 13.988-5.32.004-.344.012-.74.012-1.012z" opacity=".1" fill="#F9F5D7"/>
    <path d="M14.025 18.502c-.009.166-.025.33-.025.498 0 6.076 4.925 11 11 11a10.953 10.953 0 0 0 3-.43v-1c-.976.282-1.984.426-3 .43-5.906 0-10.71-4.657-10.975-10.498zM50 36l-.012.012C49.954 42.102 49.285 57 36 57c-4 0-8 0-8-4v1c0 4 4 4 8 4 14 0 14-16.666 14-22z" opacity=".2"/>
</svg>
