<svg xmlns="http://www.w3.org/2000/svg" width="64" height="64" version="1">
    <rect width="56" height="56" x="4" y="5" rx="2.8" ry="2.8" opacity=".2"/>
    <rect width="56" height="56" x="4" y="4" rx="2.8" ry="2.8" fill="#504945"/>
    <path d="M53.318 11c-.081 0-.241.005-.413.015-.228.014-.43.025-.446.025-.018 0-.101.1-.186.22-.085.122-.174.231-.197.244-.024.012-.17.07-.326.127-.263.097-.292.103-.384.08-.126-.032-.312-.021-1.912.105l-.743.058-.369.349c-.202.192-.38.363-.396.382-.015.018-.13.066-.253.107-.449.147-.82.361-1.081.626-.185.186-.246.285-.395.641a4.624 4.624 0 0 1-.123.28 1.015 1.015 0 0 1-.206-.117c-.58-.375-1.145-.549-1.782-.549-.895 0-1.695.24-2.298.692-.585.438-1.064.984-1.336 1.525-.104.204-.212.629-.263 1.032-.054.42-.038 1.115.034 1.443.121.559.585 1.586 1.105 2.445.615 1.018 1.118 1.66 2.336 2.983.471.511.573.618 1.554 1.625.766.785 1.016 1.078 1.336 1.566.696 1.061 1.059 2.074.952 2.658-.056.303-.259.611-.543.824a3.76 3.76 0 0 1-.87.436c-.213.066-.476.119-.497.098a2.134 2.134 0 0 1 .073-.355c.153-.612.21-1.16.177-1.69-.058-.913-.421-1.829-.955-2.407-.42-.455-1.181-.963-1.738-1.16-.323-.115-.5-.14-.872-.127-.403.015-.62.064-.91.207-.37.182-.55.433-.549.763a.5.5 0 0 0 .07.301c.086.16.24.315.37.373.055.024.204.055.33.068.32.032.565.1.838.23.268.127.454.26.695.498.294.29.456.579.546.975.052.226.052.716 0 .925-.052.209-.17.51-.23.586l-.05.062-.447-.437a47.46 47.46 0 0 0-1.631-1.528c-.818-.683-1.654-1.164-2.325-1.338a1.001 1.001 0 0 1-.224-.076.687.687 0 0 1-.055-.21c-.129-.85-.505-1.828-.967-2.516-.273-.406-.508-.682-.981-1.153-.694-.69-1.347-1.176-2.033-1.51l-.351-.172-.067-.238a6.595 6.595 0 0 0-1.037-2.094 6.802 6.802 0 0 0-.935-.963c-.716-.569-1.5-.9-2.484-1.048a8.865 8.865 0 0 0-1.638-.044c-.824.08-1.52.322-2.031.705-1.027.77-1.955 2.088-2.371 3.37-.332 1.022-1.47 5.63-2.054 8.325-.075.346-.147.502-.374.819-.22.307-.414.509-.592.615-.118.072-.148.08-.298.078-.2-.001-.397-.08-.476-.19-.14-.197-.202-.56-.181-1.07.014-.353.042-.545.192-1.313.162-.829.016-1.435-.465-1.934a2.212 2.212 0 0 0-.949-.552c-.218-.06-.65-.055-.892.01a2.517 2.517 0 0 0-1.534 1.153 2.982 2.982 0 0 0-.165.313c-.089.215-.092.215-.245-.015a2.799 2.799 0 0 0-.3-.368c-.165-.162-.166-.163-.48-.264a4.508 4.508 0 0 1-.492-.19 1.953 1.953 0 0 0-.671-.208c-.111-.014-.45-.066-.752-.116-.525-.086-.561-.096-.798-.206-.275-.127-.249-.1-.531-.54-.178-.277-.31-.394-.496-.438-.355-.086-.793.247-.828.629-.012.125-.02.144-.08.175a.8.8 0 0 0-.314.323c-.15.32 0 .761.309.896.078.035.686.136.816.136.016 0 .133.077.259.17.225.167.233.176.427.493.109.178.252.388.319.466.066.078.142.184.169.235.082.16.321.458.457.57.072.058.175.167.23.241.281.38.613.542 1.25.612l.265.029.19.136c.263.189.61.356.889.427.315.081.657.07.998-.031.126-.038.232-.062.238-.054.005.009.02.14.035.292.093.993.504 1.803 1.24 2.44.646.561 1.144.79 2.016.929.31.049.919.055 1.19.01.497-.08 1.108-.356 1.598-.723.577-.433 1.126-1.184 1.704-2.33.606-1.203.927-2.17 1.353-4.074.214-.96.422-2.037.548-2.849.046-.289.115-.655.154-.814a5.92 5.92 0 0 1 1.083-2.244c.19-.242.577-.61.726-.69.34-.182.819-.175 1.242.018.162.073.961.661.954.702-.002.016-.136.082-.297.146-.69.276-1.266.645-1.713 1.099a4.742 4.742 0 0 0-1.107 1.77c-.119.354-.147.549-.146 1.023 0 .567.07.99.234 1.411.227.587.716 1.075 1.269 1.266.329.114.56.079.76-.115a.711.711 0 0 0 .227-.614 1.207 1.207 0 0 0-.135-.309c-.227-.392-.342-.748-.363-1.115-.02-.358.084-.884.238-1.202.095-.196.329-.46.569-.64.3-.224.757-.42 1.07-.456l.131-.015-.016.217c-.017.223-.029.295-.21 1.299-.058.325-.121.712-.14.858-.153 1.178-.081 2.334.187 3.03.007.016-.056.076-.147.14a6.686 6.686 0 0 0-2.084 2.436c-.537 1.09-.864 2.36-.864 3.356v.293l-.18.148a6.828 6.828 0 0 0-.833.843c-.86 1.064-1.286 2.283-1.242 3.553.02.579.094.964.302 1.578.383 1.126.957 1.99 1.685 2.537.217.163.927.51 1.315.642.817.278 1.66.406 2.48.376.382-.014.43-.022 3.15-.538l4.29-.813c.841-.16 1.634-.312 1.762-.34.579-.124 1.24.016 1.615.342.19.165.294.432.254.646-.032.172-.333.427-.7.595-.336.153-.654.243-1.309.37-.503.098-.594.126-.852.26-.51.265-.924.742-1.053 1.218-.064.238-.072.738-.015.949.174.64.645 1.167 1.302 1.454.36.157.865.25 1.193.218.088-.008.161-.006.169.007.007.011-.038.106-.1.21-.064.104-.15.27-.191.368-.09.212-.092.255-.05.97.028.493.067.721.167.977.025.066.058.212.072.325.045.358.085.552.146.7l.058.144-.028.368-.028.367-.19.3c-.206.325-.262.452-.262.596 0 .168.049.276.186.413.217.217.484.311.721.255.11-.026.125-.025.203.023a.958.958 0 0 0 .181.082c.18.055.338.042.518-.045.2-.096.326-.216.402-.381.084-.182.066-.374-.064-.713l-.099-.255.066-.43c.065-.423.067-.43.15-.522.127-.14.182-.226.255-.402a1.99 1.99 0 0 1 .217-.358c.175-.227.346-.553.417-.792a8.62 8.62 0 0 1 .178-.499l.13-.333-.013-.225a1.609 1.609 0 0 0-.1-.488l-.089-.263.04-.328c.045-.377.048-.551.014-.827a1.897 1.897 0 0 0-.43-1.032.993.993 0 0 1-.151-.22c0-.02.09-.085.21-.152a4.312 4.312 0 0 0 1.203-1.025c.462-.587.77-1.707.689-2.51-.07-.69-.276-1.315-.594-1.797-.35-.53-.9-1.002-1.545-1.323-.517-.257-1.03-.383-1.983-.486-.375-.04-1.83-.04-2.252 0-1.296.125-2.915.447-4.632.921-.295.082-.68.18-.855.219-.353.078-2.303.332-2.534.33a5.95 5.95 0 0 1-.88-.133c-.472-.118-.869-.3-1.042-.477-.126-.129-.304-.463-.356-.672a2.492 2.492 0 0 1-.05-.307c-.016-.167-.009-.21.12-.724.075-.3.145-.545.157-.545.011 0 .111.085.222.19.904.833 2.045 1.206 2.986 1.287 1.269.038 2.906-.536 3.445-1.525.342-.659.347-1.321.013-1.633-.133-.123-.288-.176-.515-.176-.269 0-.461.103-.599.321-.16.254-.206.315-.354.461-.26.257-.68.479-1.111.589-.274.07-.674.075-.898.011a3 3 0 0 1-.733-.347c-.241-.171-.62-.61-.63-.728-.003-.042.648-.245 1.511-.47.88-.23 1.454-.438 2.097-.757.616-.305.997-.565 1.397-.953.136-.132.258-.24.272-.24.014 0 .092.03.174.067.402.18 1.096.383 1.582.465.651.11 1.168.117 1.798.025 1.162-.168 2.135-.482 2.946-.949.113-.065.22-.118.239-.118.017 0 .187.051.377.114a5.988 5.988 0 0 0 1.792.32c.932.03 1.774-.144 2.55-.528.566-.28.916-.535 1.352-.982.784-.805 1.347-1.73 1.57-2.577a2.78 2.78 0 0 0 .096-1.062c-.104-1.369-.606-2.664-1.478-3.811-.744-.978-2.464-2.957-4.521-5.202-.741-.808-.723-.788-1.002-1.127-.36-.435-.497-.753-.563-1.296-.053-.432.09-.748.388-.864.345-.134 1.056.29 1.678 1.002.485.556.707.746 1.073.926.644.316 1.273.3 1.895-.05.275-.153.577-.461.703-.716.146-.294.216-.594.23-.986.021-.565-.092-1.005-.393-1.525-.042-.073-.071-.138-.064-.145.006-.007.221-.024.477-.038.448-.024.47-.028.605-.096.077-.039.198-.11.269-.16.07-.05.228-.156.35-.238.248-.167.454-.358.672-.624a.89.89 0 0 1 .29-.255c.187-.099.341-.252.427-.424l.069-.14.245-.085c.233-.081.26-.085.551-.087.467-.002.67-.057.84-.226.146-.145.184-.247.184-.495 0-.251-.04-.36-.196-.538a.348.348 0 0 1-.105-.24c-.027-.24-.188-.5-.33-.536a.314.314 0 0 0-.051-.002zM33.773 23.145c.02-.004.057.02.138.082.407.312.821.734 1.147 1.168.673.897 1.024 1.923.98 2.869-.023.473-.14.813-.376 1.08a.674.674 0 0 1-.71.232c-.544-.123-.941-.543-1.133-1.2-.185-.637-.237-1.958-.121-3.106a8.86 8.86 0 0 0 .037-.72c0-.198.01-.375.021-.393.005-.006.01-.01.016-.012zm4.224 6.374c.314.003.659.09 1.023.263.368.175 1.235.778 1.925 1.337.59.478 1.097.913 1.09.935-.018.052-.566.192-1.025.26-.23.034-1.154.063-1.36.042a7.578 7.578 0 0 1-.963-.174c-.607-.17-1.302-.603-1.604-1-.192-.252-.339-.615-.338-.838 0-.112.097-.293.224-.42a1.388 1.388 0 0 1 1.028-.405zm-4.263 1.094c.03 0 .059.001.088.003.335.027.603.122.733.26.127.136.173.484.1.764-.235.908-1.383 1.77-3.359 2.523-.341.13-.897.296-.99.296-.022 0-.026-.023-.014-.084.062-.328.27-.876.505-1.329.566-1.092 1.364-1.9 2.24-2.268.268-.113.491-.166.697-.165z" opacity=".2"/>
    <path d="M53.318 10c-.081 0-.241.005-.413.015-.228.014-.43.025-.446.025-.018 0-.101.1-.186.22-.085.122-.174.231-.197.244-.024.012-.17.07-.326.127-.263.098-.292.103-.384.08-.126-.031-.312-.021-1.912.105l-.743.058-.369.349c-.202.192-.38.364-.396.382-.015.018-.13.066-.253.107-.449.147-.82.362-1.081.626-.185.187-.246.286-.395.641a4.624 4.624 0 0 1-.123.28 1.015 1.015 0 0 1-.206-.116c-.58-.376-1.145-.55-1.782-.55-.895 0-1.695.241-2.298.693-.585.437-1.064.984-1.336 1.524-.104.205-.212.629-.263 1.032-.054.42-.038 1.115.034 1.444.121.558.585 1.585 1.105 2.444.615 1.018 1.118 1.66 2.336 2.983.471.512.573.618 1.554 1.625.766.785 1.016 1.078 1.336 1.566.696 1.061 1.059 2.074.952 2.658-.056.304-.259.611-.543.824a3.76 3.76 0 0 1-.87.436c-.213.067-.476.119-.497.099a2.134 2.134 0 0 1 .073-.356c.153-.612.21-1.16.177-1.69-.058-.912-.421-1.829-.955-2.407-.42-.455-1.181-.963-1.738-1.16-.323-.114-.5-.14-.872-.127-.403.015-.62.065-.91.207-.37.182-.55.433-.549.763a.5.5 0 0 0 .07.301c.086.161.24.316.37.373.055.024.204.055.33.068.32.032.565.1.838.23.268.127.454.26.695.498.294.29.456.579.546.975.052.226.052.717 0 .925-.052.21-.17.51-.23.586l-.05.062-.447-.437a47.46 47.46 0 0 0-1.631-1.528c-.818-.683-1.654-1.164-2.325-1.337a1.001 1.001 0 0 1-.224-.077.687.687 0 0 1-.055-.21c-.129-.85-.505-1.828-.967-2.516-.273-.406-.508-.682-.981-1.153-.694-.69-1.347-1.176-2.033-1.51l-.351-.172-.067-.238a6.595 6.595 0 0 0-1.037-2.093 6.802 6.802 0 0 0-.935-.964c-.716-.568-1.5-.9-2.484-1.048a8.865 8.865 0 0 0-1.638-.044c-.824.08-1.52.322-2.031.705-1.027.77-1.955 2.088-2.371 3.37-.332 1.023-1.47 5.63-2.054 8.325-.075.346-.147.502-.374.819-.22.307-.414.509-.592.616-.118.071-.148.079-.298.078-.2-.002-.397-.08-.476-.191-.14-.196-.202-.56-.181-1.07.014-.353.042-.545.192-1.313.162-.828.016-1.435-.465-1.934a2.212 2.212 0 0 0-.949-.552c-.218-.06-.65-.055-.892.01a2.517 2.517 0 0 0-1.534 1.153 2.982 2.982 0 0 0-.165.313c-.089.215-.092.215-.245-.015a2.799 2.799 0 0 0-.3-.368c-.165-.162-.166-.162-.48-.264a4.508 4.508 0 0 1-.492-.19 1.953 1.953 0 0 0-.671-.208c-.111-.014-.45-.066-.752-.116-.525-.086-.561-.095-.798-.206-.275-.127-.249-.1-.531-.54-.178-.277-.31-.393-.496-.438-.355-.086-.793.247-.828.629-.012.126-.02.144-.08.175a.8.8 0 0 0-.314.323c-.15.32 0 .761.309.897.078.034.686.136.816.136.016 0 .133.076.259.17.225.166.233.175.427.493.109.178.252.387.319.465.066.078.142.184.169.235.082.16.321.458.457.57.072.058.175.167.23.242.281.379.613.541 1.25.61l.265.03.19.136c.263.19.61.356.889.428.315.08.657.07.998-.032.126-.038.232-.062.238-.053.005.008.02.139.035.29.093.994.504 1.805 1.24 2.442.646.56 1.144.79 2.016.928.31.049.919.055 1.19.011.497-.08 1.108-.357 1.598-.724.577-.433 1.126-1.184 1.704-2.33.606-1.203.927-2.17 1.353-4.074.214-.96.422-2.037.548-2.848.046-.29.115-.656.154-.814a5.92 5.92 0 0 1 1.083-2.245c.19-.242.577-.61.726-.69.34-.182.819-.175 1.242.018.162.074.961.662.954.702-.002.016-.136.082-.297.146-.69.276-1.266.645-1.713 1.099a4.742 4.742 0 0 0-1.107 1.77c-.119.354-.147.549-.146 1.024 0 .566.07.989.234 1.41.227.588.716 1.075 1.269 1.266.329.114.56.079.76-.115a.711.711 0 0 0 .227-.614 1.207 1.207 0 0 0-.135-.309c-.227-.392-.342-.748-.363-1.115-.02-.357.084-.884.238-1.202.095-.196.329-.46.569-.64.3-.224.757-.419 1.07-.456l.131-.015-.016.217c-.017.223-.029.295-.21 1.299-.058.325-.121.712-.14.859-.153 1.177-.081 2.333.187 3.028.007.017-.056.077-.147.14a6.686 6.686 0 0 0-2.084 2.437c-.537 1.09-.864 2.36-.864 3.356v.293l-.18.149a6.828 6.828 0 0 0-.833.843c-.86 1.064-1.286 2.282-1.242 3.552.02.579.094.964.302 1.579.383 1.125.957 1.99 1.685 2.536.217.164.927.51 1.315.642.817.279 1.66.406 2.48.376.382-.014.43-.022 3.15-.538l4.29-.813c.841-.16 1.634-.312 1.762-.34.579-.124 1.24.016 1.615.342.19.165.294.432.254.646-.032.172-.333.427-.7.595-.336.153-.654.244-1.309.37-.503.099-.594.126-.852.26-.51.265-.924.743-1.053 1.218-.064.238-.072.738-.015.95.174.64.645 1.166 1.302 1.453.36.157.865.25 1.193.218.088-.008.161-.006.169.007.007.012-.038.106-.1.21-.064.104-.15.27-.191.369-.09.21-.092.254-.05.968.028.494.067.723.167.979.025.065.058.211.072.324.045.358.085.552.146.7l.058.144-.028.368-.028.367-.19.3c-.206.325-.262.452-.262.596 0 .168.049.276.186.413.217.217.484.312.721.255.11-.026.125-.024.203.023a.958.958 0 0 0 .181.082c.18.056.338.042.518-.045.2-.096.326-.215.402-.381.084-.182.066-.374-.064-.713l-.099-.255.066-.43c.065-.423.067-.43.15-.522.127-.14.182-.226.255-.402a1.99 1.99 0 0 1 .217-.357c.175-.228.346-.554.417-.793a8.62 8.62 0 0 1 .178-.499l.13-.333-.013-.224a1.609 1.609 0 0 0-.1-.488l-.089-.264.04-.328c.045-.376.048-.551.014-.827a1.897 1.897 0 0 0-.43-1.032.993.993 0 0 1-.151-.22c0-.02.09-.085.21-.151a4.312 4.312 0 0 0 1.203-1.026c.462-.587.77-1.707.689-2.51-.07-.69-.276-1.314-.594-1.797-.35-.53-.9-1.002-1.545-1.323-.517-.257-1.03-.382-1.983-.486-.375-.04-1.83-.04-2.252 0-1.296.125-2.915.447-4.632.922-.295.081-.68.18-.855.218-.353.078-2.303.332-2.534.33a5.95 5.95 0 0 1-.88-.133c-.472-.118-.869-.3-1.042-.477-.126-.128-.304-.463-.356-.671a2.492 2.492 0 0 1-.05-.308c-.016-.167-.009-.21.12-.723.075-.3.145-.546.157-.546.011 0 .111.085.222.19.904.833 2.045 1.206 2.986 1.287 1.269.038 2.906-.536 3.445-1.525.342-.659.347-1.321.013-1.632-.133-.124-.288-.177-.515-.177-.269 0-.461.103-.599.321-.16.254-.206.315-.354.461-.26.257-.68.479-1.111.589-.274.07-.674.075-.898.012a3 3 0 0 1-.733-.347c-.241-.172-.62-.61-.63-.73-.003-.041.648-.244 1.511-.47.88-.23 1.454-.437 2.097-.755.616-.306.997-.566 1.397-.954.136-.132.258-.24.272-.24.014 0 .092.03.174.067.402.18 1.096.384 1.582.465.651.11 1.168.117 1.798.026 1.162-.17 2.135-.483 2.946-.95.113-.065.22-.118.239-.118.017 0 .187.051.377.114a5.988 5.988 0 0 0 1.792.32c.932.03 1.774-.144 2.55-.528.566-.28.916-.535 1.352-.982.784-.805 1.347-1.729 1.57-2.577a2.78 2.78 0 0 0 .096-1.062c-.104-1.368-.606-2.664-1.478-3.811-.744-.978-2.464-2.957-4.521-5.201-.741-.809-.723-.789-1.002-1.128-.36-.435-.497-.753-.563-1.295-.053-.433.09-.749.388-.865.345-.134 1.056.29 1.678 1.002.485.556.707.747 1.073.926.644.316 1.273.3 1.895-.049.275-.154.577-.462.703-.717.146-.294.216-.594.23-.986.021-.565-.092-1.004-.393-1.525-.042-.073-.071-.138-.064-.145.006-.007.221-.024.477-.038.448-.024.47-.028.605-.096.077-.038.198-.11.269-.16.07-.049.228-.156.35-.238.248-.167.454-.358.672-.624a.89.89 0 0 1 .29-.254c.187-.1.341-.253.427-.425l.069-.14.245-.085c.233-.08.26-.085.551-.087.467-.002.67-.057.84-.226.146-.145.184-.247.184-.495 0-.251-.04-.36-.196-.537a.348.348 0 0 1-.105-.24c-.027-.24-.188-.501-.33-.536a.314.314 0 0 0-.051-.003zM33.773 22.145c.02-.004.057.02.138.082.407.312.821.734 1.147 1.168.673.897 1.024 1.924.98 2.869-.023.473-.14.813-.376 1.08a.674.674 0 0 1-.71.232c-.544-.122-.941-.542-1.133-1.2-.185-.637-.237-1.957-.121-3.106a8.86 8.86 0 0 0 .037-.72c0-.197.01-.374.021-.393.005-.006.01-.01.016-.012zm4.224 6.374c.314.003.659.09 1.023.263.368.176 1.235.778 1.925 1.337.59.478 1.097.914 1.09.935-.018.052-.566.192-1.025.26-.23.034-1.154.063-1.36.042a7.578 7.578 0 0 1-.963-.174c-.607-.17-1.302-.602-1.604-1-.192-.251-.339-.615-.338-.838 0-.112.097-.293.224-.42a1.388 1.388 0 0 1 1.028-.405zm-4.263 1.094c.03 0 .059.001.088.004.335.026.603.121.733.26.127.135.173.483.1.763-.235.908-1.383 1.77-3.359 2.523-.341.13-.897.296-.99.296-.022 0-.026-.023-.014-.084.062-.328.27-.876.505-1.329.566-1.092 1.364-1.9 2.24-2.268.268-.112.491-.166.697-.165z" fill="#B7BB25"/>
    <path d="M6.8 4C5.25 4 4 5.25 4 6.8v1C4 6.25 5.25 5 6.8 5h50.4C58.75 5 60 6.25 60 7.8v-1C60 5.25 58.75 4 57.2 4H6.8z" opacity=".1" fill="#F9F5D7"/>
</svg>
