<svg xmlns="http://www.w3.org/2000/svg" width="64" height="64">
    <circle cx="32" cy="33" r="28" opacity=".2"/>
    <path d="M57.748 32.564c0 15.468-10.141 25.605-25.615 25.605-4.428 0-8.73.804-12.453-1.024C10.393 52.585 4 43.035 4 31.992c0-11.648 7.113-21.635 17.233-25.858 3.32-1.385 6.849-.09 10.671-.09 15.474 0 25.844 11.051 25.844 26.52z" fill="#066678"/>
    <path d="M56.637 18.746c.223.415.429.838.633 1.262-.07-.16-.142-.319-.215-.477-.05-.102-.094-.207-.145-.308-.09-.16-.18-.319-.273-.477zm1.3 2.75c.073.18.15.358.22.54-.034-.09-.067-.177-.098-.266-.04-.092-.08-.183-.122-.274zm.801 2.293c.112.363.227.727.324 1.094a28.426 28.426 0 0 0-.042-.192l-.09-.332c-.062-.19-.126-.38-.192-.57zm.785 3.14c.026.143.059.284.082.426l-.046-.277a29.07 29.07 0 0 0-.036-.148zm.43 3.762L56 33.7 52 31c-5.791-.502-7.099.692-7.027 2.5l1.605-.828s-9.245 8.97-22.555 18.277l-4.015 2.489-.016 3.746s-.016.026.676.37c.119.052.236.104.355.153v.016l-.046-.02c.148.072.09.052.293.148l-.07-.07c.14.057.28.123.421.18.12.048.239.098.36.144-.225-.077-.446-.159-.669-.242.253.103.51.19.766.285a28 28 0 0 0 .961.352c.273.09.552.164.828.246-.354-.11-.707-.223-1.058-.344.608.215 1.225.41 1.847.582.106.03.214.05.32.078l.11.028c-.028-.007-.055-.016-.082-.024.782.202 1.57.371 2.367.504-.063-.01-.128-.017-.191-.027a27.99 27.99 0 0 0 1.426.227c.153.019.307.03.46.046-.239-.027-.48-.068-.718-.101.482.065.967.116 1.453.156.836.062 1.676.087 2.515.078v.04a28 28 0 0 0 2.434-.153v-.02a28.39 28.39 0 0 0 5.64-1.136l.286-.094c.55-.178 1.1-.364 1.64-.578.024-.007.047-.016.07-.024l.016-.007c.958-.453 1.92-.91 2.918-1.38a28 28 0 0 0 1.344-.769c.134-.082.271-.163.402-.25l.024-.016.336-.21a28 28 0 0 0 1.566-1.122c.116-.088.233-.175.348-.265.091-.069.179-.141.27-.211a28 28 0 0 0 1.632-1.434c.136-.125.27-.25.403-.379a28 28 0 0 0 1.609-1.73c.082-.093.161-.187.242-.281a28 28 0 0 0 1.512-1.989c.053-.075.108-.15.16-.226a28 28 0 0 0 1.312-2.137c.046-.08.093-.158.137-.238a28 28 0 0 0 1.14-2.375c.015-.034.033-.067.048-.102a28 28 0 0 0 1.605-5.176c.022-.102.038-.205.059-.308a28 28 0 0 0 .52-5.11 29.026 29.026 0 0 0-.036-1.578zm-30.152 29.18c-.152-.011-.305-.013-.457-.027.137.014.273.031.41.043.727.065 1.457.101 2.187.11.027 0 .052.003.079.003l.195-.008a28.04 28.04 0 0 1-2.414-.12zm-4.715-.781c.634.165 1.274.306 1.918.426-.148-.026-.294-.054-.442-.082a26.726 26.726 0 0 1-1.476-.344zm-.43-.106c-.265-.07-.526-.16-.789-.238.063.02.125.044.188.063.2.06.4.12.601.175z" fill="#FA4934"/>
    <path d="M32.055 4.004c-.358 0-.717.017-1.075.031a28 28 0 0 0-.777.027c-.21.015-.42.042-.629.063a28 28 0 0 0-9.734 2.68L24 9.585v5.602l4.941.543-1.457 2.415 14.485 8.644 6.351 8.074L51.633 31 56 33.7l3.953-3.048a28 28 0 0 0-.023-.632 28 28 0 0 0-.32-2.653l-.055-.3a28 28 0 0 0-.535-2.387l-.086-.309a28 28 0 0 0-.778-2.34c-.031-.084-.061-.17-.093-.254a28 28 0 0 0-.989-2.207c-.057-.114-.105-.233-.164-.347a28 28 0 0 0-1.347-2.352 28 28 0 0 0-1.512-2.113c-.178-.227-.37-.443-.555-.664a28 28 0 0 0-1.14-1.297c-.541-.52-1.094-1.055-1.649-1.59a28 28 0 0 0-5.281-3.781 28 28 0 0 0-2.524-1.215 28 28 0 0 0-2.59-.945l-.035-.012c-.038-.012-.078-.02-.117-.031a28 28 0 0 0-2.574-.657c-.008-.001-.015-.006-.023-.007a28 28 0 0 0-.106-.016 28 28 0 0 0-2.496-.379l-.328-.031a28 28 0 0 0-2.578-.13z" fill="#F9BD2E"/>
    <circle cx="32" cy="33" r="20" opacity=".2"/>
    <path d="M20.748 7.412c-.303.13-.61.25-.908.392L24 10.586v-1zm39.143 23.287l-3.891 3-4.367-2.898v1L56 34.699l3.953-3.047a27.6 27.6 0 0 0-.023-.633c-.01-.107-.028-.213-.04-.32z" opacity=".2"/>
    <circle cx="32" cy="32" r="20" fill="#F9F5D7"/>
    <path d="M52 31L24 51V13z" fill="#FD8019"/>
    <path d="M24 13v1l27.264 17.525L52 31 24 13z" opacity=".2"/>
    <path d="M32 4A28 28 0 0 0 4 32a28 28 0 0 0 .018.492A28 28 0 0 1 32 5a28 28 0 0 1 27.975 27.492A28 28 0 0 0 60 32 28 28 0 0 0 32 4z" opacity=".2" fill="#F9F5D7"/>
    <path d="M23.678 51.164l-3.67 2.273-.016 3.747.004.002.012-2.748 4.015-2.489c.191-.133.36-.263.55-.396a20 20 0 0 1-.895-.389z" opacity=".2"/>
</svg>
