<svg xmlns="http://www.w3.org/2000/svg" width="64" height="64">
    <rect width="56" height="56" x="4" y="5" rx="4.2" ry="4.2" opacity=".2"/>
    <rect width="56" height="56" x="4" y="4" rx="4.2" ry="4.2" fill="#504945"/>
    <path d="M41.348 12.003a2.588 2.588 0 0 0-2.12 1.292 2.588 2.588 0 0 0 .947 3.537 2.588 2.588 0 0 0 3.537-.947 2.588 2.588 0 0 0-.947-3.537 2.588 2.588 0 0 0-1.417-.345zm-16.66 4.047a1.633 1.633 0 0 0-1.635 1.635 1.633 1.633 0 0 0 1.634 1.63 1.633 1.633 0 0 0 1.631-1.63 1.633 1.633 0 0 0-1.63-1.635zm4.11.416a1.426 1.426 0 0 0-1.426 1.426 1.426 1.426 0 0 0 1.427 1.424 1.426 1.426 0 0 0 1.423-1.424 1.426 1.426 0 0 0-1.423-1.426zm-8.888.165a1.924 1.924 0 0 0-1.925 1.924 1.924 1.924 0 0 0 1.925 1.925 1.924 1.924 0 0 0 1.924-1.925 1.924 1.924 0 0 0-1.924-1.924zm12.273.999a1.239 1.239 0 0 0-1.24 1.237 1.239 1.239 0 0 0 1.24 1.24 1.239 1.239 0 0 0 1.238-1.24 1.239 1.239 0 0 0-1.238-1.237zm9.88 1.344a2.215 2.215 0 0 0-1.815 1.105 2.215 2.215 0 0 0 .812 3.025 2.215 2.215 0 0 0 3.025-.81 2.215 2.215 0 0 0-.81-3.027 2.215 2.215 0 0 0-1.213-.293zm-7.304.232a1.073 1.073 0 0 0-1.076 1.072 1.073 1.073 0 0 0 1.076 1.075 1.073 1.073 0 0 0 1.072-1.075 1.073 1.073 0 0 0-1.072-1.072zm12.933.562a2.215 2.215 0 0 0-1.811 1.106 2.215 2.215 0 0 0 .81 3.024 2.215 2.215 0 0 0 3.027-.81 2.215 2.215 0 0 0-.813-3.024 2.215 2.215 0 0 0-1.213-.296zm-22.26 1.017a1.633 1.633 0 0 0-1.63 1.634 1.633 1.633 0 0 0 1.63 1.632 1.633 1.633 0 0 0 1.635-1.632 1.633 1.633 0 0 0-1.634-1.634zm11.236.29a.907.907 0 0 0-.907.908.907.907 0 0 0 .907.907.907.907 0 0 0 .907-.907.907.907 0 0 0-.907-.908zm-7.124.126a1.426 1.426 0 0 0-1.423 1.426 1.426 1.426 0 0 0 1.423 1.424 1.426 1.426 0 0 0 1.427-1.424 1.426 1.426 0 0 0-1.427-1.426zm-8.886.165a1.924 1.924 0 0 0-1.924 1.924 1.924 1.924 0 0 0 1.924 1.924 1.924 1.924 0 0 0 1.925-1.924 1.924 1.924 0 0 0-1.925-1.924zm12.27.998a1.239 1.239 0 0 0-1.236 1.238 1.239 1.239 0 0 0 1.237 1.24 1.239 1.239 0 0 0 1.24-1.24 1.239 1.239 0 0 0-1.24-1.238zm-17.503.914a2.215 2.215 0 0 0-2.214 2.214 2.215 2.215 0 0 0 2.214 2.215 2.215 2.215 0 0 0 2.215-2.215 2.215 2.215 0 0 0-2.215-2.214zm20.079.663a1.073 1.073 0 0 0-1.072 1.072 1.073 1.073 0 0 0 1.072 1.072 1.073 1.073 0 0 0 1.072-1.072 1.073 1.073 0 0 0-1.072-1.072zm5.862.956a1.924 1.924 0 0 0-1.576.959 1.924 1.924 0 0 0 .705 2.63 1.924 1.924 0 0 0 2.627-.706 1.924 1.924 0 0 0-.702-2.627 1.924 1.924 0 0 0-1.054-.256zm5.63.794a1.924 1.924 0 0 0-1.573.96 1.924 1.924 0 0 0 .702 2.63 1.924 1.924 0 0 0 2.63-.706 1.924 1.924 0 0 0-.705-2.627 1.924 1.924 0 0 0-1.054-.257zm-19.434.37a1.633 1.633 0 0 0-1.635 1.63 1.633 1.633 0 0 0 1.635 1.635 1.633 1.633 0 0 0 1.634-1.634 1.633 1.633 0 0 0-1.634-1.631zm4.111.412a1.426 1.426 0 0 0-1.426 1.427 1.426 1.426 0 0 0 1.426 1.426 1.426 1.426 0 0 0 1.424-1.426 1.426 1.426 0 0 0-1.424-1.427zm-8.889.168a1.924 1.924 0 0 0-1.924 1.924 1.924 1.924 0 0 0 1.924 1.925 1.924 1.924 0 0 0 1.925-1.925 1.924 1.924 0 0 0-1.925-1.924zm28.687.77a1.924 1.924 0 0 0-1.576.959A1.924 1.924 0 0 0 50.6 31a1.924 1.924 0 0 0 2.627-.706 1.924 1.924 0 0 0-.702-2.627 1.924 1.924 0 0 0-1.054-.256zm-16.413.226a1.239 1.239 0 0 0-1.24 1.24 1.239 1.239 0 0 0 1.24 1.237 1.239 1.239 0 0 0 1.237-1.237 1.239 1.239 0 0 0-1.237-1.24zm-17.507.913a2.215 2.215 0 0 0-2.214 2.215 2.215 2.215 0 0 0 2.214 2.215 2.215 2.215 0 0 0 2.215-2.215 2.215 2.215 0 0 0-2.215-2.215zm22.196 1.21a1.633 1.633 0 0 0-1.338.815 1.633 1.633 0 0 0 .599 2.23 1.633 1.633 0 0 0 2.23-.598 1.633 1.633 0 0 0-.596-2.23 1.633 1.633 0 0 0-.895-.217zm5.63.794a1.633 1.633 0 0 0-1.335.816 1.633 1.633 0 0 0 .596 2.23 1.633 1.633 0 0 0 2.233-.6 1.633 1.633 0 0 0-.6-2.229 1.633 1.633 0 0 0-.894-.217zM27.769 31.85a1.239 1.239 0 0 0-.592.168 1.239 1.239 0 0 0-.452 1.693 1.239 1.239 0 0 0 1.692.452 1.239 1.239 0 0 0 .452-1.693 1.239 1.239 0 0 0-1.1-.62zm-15.582.23a2.588 2.588 0 0 0-2.587 2.59 2.588 2.588 0 0 0 2.587 2.587 2.588 2.588 0 0 0 2.59-2.587 2.588 2.588 0 0 0-2.59-2.59zm37.665.195a1.633 1.633 0 0 0-1.338.816 1.633 1.633 0 0 0 .599 2.23 1.633 1.633 0 0 0 2.23-.6 1.633 1.633 0 0 0-.596-2.23 1.633 1.633 0 0 0-.895-.216zM37.52 33.422a1.426 1.426 0 0 0-1.167.712 1.426 1.426 0 0 0 .523 1.95 1.426 1.426 0 0 0 1.948-.523 1.426 1.426 0 0 0-.522-1.95 1.426 1.426 0 0 0-.782-.189zm-13.315.138a1.073 1.073 0 0 0-.514.143 1.073 1.073 0 0 0-.39 1.467 1.073 1.073 0 0 0 1.466.39 1.073 1.073 0 0 0 .39-1.462 1.073 1.073 0 0 0-.952-.538zm18.948.66a1.426 1.426 0 0 0-1.167.708 1.426 1.426 0 0 0 .52 1.95 1.426 1.426 0 0 0 1.948-.523 1.426 1.426 0 0 0-.522-1.946 1.426 1.426 0 0 0-.78-.19zM21 34.235a.907.907 0 0 0-.43.122.907.907 0 0 0-.333 1.237.907.907 0 0 0 1.24.333.907.907 0 0 0 .33-1.24.907.907 0 0 0-.807-.452zm7.613.85a1.426 1.426 0 0 0-.682.189 1.426 1.426 0 0 0-.522 1.948 1.426 1.426 0 0 0 1.949.52 1.426 1.426 0 0 0 .522-1.946 1.426 1.426 0 0 0-1.267-.712zm19.012.854a1.426 1.426 0 0 0-1.167.71 1.426 1.426 0 0 0 .523 1.948 1.426 1.426 0 0 0 1.948-.522 1.426 1.426 0 0 0-.522-1.946 1.426 1.426 0 0 0-.782-.19zm-12.634.113a1.239 1.239 0 0 0-1.014.62 1.239 1.239 0 0 0 .455 1.693 1.239 1.239 0 0 0 1.692-.455 1.239 1.239 0 0 0-.455-1.693 1.239 1.239 0 0 0-.678-.165zm-10.725.278a1.239 1.239 0 0 0-.593.165 1.239 1.239 0 0 0-.452 1.693 1.239 1.239 0 0 0 1.692.452 1.239 1.239 0 0 0 .452-1.692 1.239 1.239 0 0 0-1.1-.618zm-3.788.245a1.073 1.073 0 0 0-.51.143 1.073 1.073 0 0 0-.394 1.467 1.073 1.073 0 0 0 1.466.39 1.073 1.073 0 0 0 .39-1.466 1.073 1.073 0 0 0-.952-.534zm20.146.272a1.239 1.239 0 0 0-1.015.62 1.239 1.239 0 0 0 .453 1.692 1.239 1.239 0 0 0 1.692-.455 1.239 1.239 0 0 0-.452-1.692 1.239 1.239 0 0 0-.678-.165zm-10.142 1.692a1.633 1.633 0 0 0-.779.22 1.633 1.633 0 0 0-.596 2.23 1.633 1.633 0 0 0 2.23.599 1.633 1.633 0 0 0 .599-2.233 1.633 1.633 0 0 0-1.454-.816zm7.64 0a1.073 1.073 0 0 0-.88.535 1.073 1.073 0 0 0 .394 1.466 1.073 1.073 0 0 0 1.463-.394 1.073 1.073 0 0 0-.39-1.466 1.073 1.073 0 0 0-.587-.141zm6.977.028a1.239 1.239 0 0 0-1.017.62 1.239 1.239 0 0 0 .455 1.692 1.239 1.239 0 0 0 1.692-.455 1.239 1.239 0 0 0-.455-1.693 1.239 1.239 0 0 0-.675-.164zm-24.56.778a1.239 1.239 0 0 0-.59.165 1.239 1.239 0 0 0-.455 1.693 1.239 1.239 0 0 0 1.693.452 1.239 1.239 0 0 0 .455-1.692 1.239 1.239 0 0 0-1.103-.618zm4.567.217a1.426 1.426 0 0 0-.678.19 1.426 1.426 0 0 0-.523 1.949 1.426 1.426 0 0 0 1.95.522 1.426 1.426 0 0 0 .521-1.949 1.426 1.426 0 0 0-1.27-.712zm17.488.697a1.073 1.073 0 0 0-.877.534 1.073 1.073 0 0 0 .391 1.467 1.073 1.073 0 0 0 1.466-.394 1.073 1.073 0 0 0-.39-1.467 1.073 1.073 0 0 0-.59-.14zm-2.422.968a.907.907 0 0 0-.743.452.907.907 0 0 0 .333 1.237.907.907 0 0 0 1.24-.33.907.907 0 0 0-.333-1.24.907.907 0 0 0-.497-.119zm-6.553.721a1.924 1.924 0 0 0-.916.26 1.924 1.924 0 0 0-.706 2.627 1.924 1.924 0 0 0 2.63.705 1.924 1.924 0 0 0 .703-2.63 1.924 1.924 0 0 0-1.71-.962zm-12.237.63a1.426 1.426 0 0 0-.681.189 1.426 1.426 0 0 0-.523 1.949 1.426 1.426 0 0 0 1.95.522 1.426 1.426 0 0 0 .522-1.949 1.426 1.426 0 0 0-1.268-.712zm5.596.442a1.633 1.633 0 0 0-.779.217 1.633 1.633 0 0 0-.595 2.233 1.633 1.633 0 0 0 2.23.596 1.633 1.633 0 0 0 .598-2.23 1.633 1.633 0 0 0-1.454-.816zm11.156 2.068a2.215 2.215 0 0 0-1.054.297 2.215 2.215 0 0 0-.812 3.027 2.215 2.215 0 0 0 3.027.81 2.215 2.215 0 0 0 .81-3.025 2.215 2.215 0 0 0-1.97-1.109zm-14.882.944a1.633 1.633 0 0 0-.78.22 1.633 1.633 0 0 0-.595 2.23 1.633 1.633 0 0 0 2.23.599 1.633 1.633 0 0 0 .599-2.23 1.633 1.633 0 0 0-1.454-.819zm6.863.397a1.924 1.924 0 0 0-.916.257 1.924 1.924 0 0 0-.706 2.627 1.924 1.924 0 0 0 2.63.706 1.924 1.924 0 0 0 .703-2.63 1.924 1.924 0 0 0-1.71-.96zm14.07.98a2.588 2.588 0 0 0-1.23.35 2.588 2.588 0 0 0-.948 3.533 2.588 2.588 0 0 0 3.535.947 2.588 2.588 0 0 0 .947-3.534 2.588 2.588 0 0 0-2.304-1.295zM26.39 49.445a1.924 1.924 0 0 0-.917.257 1.924 1.924 0 0 0-.705 2.627 1.924 1.924 0 0 0 2.63.706 1.924 1.924 0 0 0 .702-2.63 1.924 1.924 0 0 0-1.71-.96zm8.241.126a2.215 2.215 0 0 0-1.054.296 2.215 2.215 0 0 0-.812 3.024 2.215 2.215 0 0 0 3.027.813 2.215 2.215 0 0 0 .81-3.028 2.215 2.215 0 0 0-1.97-1.105z" opacity=".2" stroke="#151819" stroke-width="0" stroke-linecap="round" stroke-linejoin="round"/>
    <path d="M41.348 11.003a2.588 2.588 0 0 0-2.12 1.292 2.588 2.588 0 0 0 .947 3.537 2.588 2.588 0 0 0 3.537-.947 2.588 2.588 0 0 0-.947-3.537 2.588 2.588 0 0 0-1.417-.345zm-16.66 4.047a1.633 1.633 0 0 0-1.635 1.635 1.633 1.633 0 0 0 1.634 1.63 1.633 1.633 0 0 0 1.631-1.63 1.633 1.633 0 0 0-1.63-1.635zm4.11.416a1.426 1.426 0 0 0-1.426 1.426 1.426 1.426 0 0 0 1.427 1.424 1.426 1.426 0 0 0 1.423-1.424 1.426 1.426 0 0 0-1.423-1.426zm-8.888.165a1.924 1.924 0 0 0-1.925 1.924 1.924 1.924 0 0 0 1.925 1.925 1.924 1.924 0 0 0 1.924-1.925 1.924 1.924 0 0 0-1.924-1.924zm12.273.999a1.239 1.239 0 0 0-1.24 1.237 1.239 1.239 0 0 0 1.24 1.24 1.239 1.239 0 0 0 1.238-1.24 1.239 1.239 0 0 0-1.238-1.237zm9.88 1.344a2.215 2.215 0 0 0-1.815 1.105 2.215 2.215 0 0 0 .812 3.025 2.215 2.215 0 0 0 3.025-.81 2.215 2.215 0 0 0-.81-3.027 2.215 2.215 0 0 0-1.213-.293zm-7.304.232a1.073 1.073 0 0 0-1.076 1.072 1.073 1.073 0 0 0 1.076 1.075 1.073 1.073 0 0 0 1.072-1.075 1.073 1.073 0 0 0-1.072-1.072zm12.933.562a2.215 2.215 0 0 0-1.811 1.106 2.215 2.215 0 0 0 .81 3.024 2.215 2.215 0 0 0 3.027-.81 2.215 2.215 0 0 0-.813-3.024 2.215 2.215 0 0 0-1.213-.296zm-22.26 1.017a1.633 1.633 0 0 0-1.63 1.634 1.633 1.633 0 0 0 1.63 1.632 1.633 1.633 0 0 0 1.635-1.632 1.633 1.633 0 0 0-1.634-1.634zm11.236.29a.907.907 0 0 0-.907.908.907.907 0 0 0 .907.907.907.907 0 0 0 .907-.907.907.907 0 0 0-.907-.908zm-7.124.126a1.426 1.426 0 0 0-1.423 1.426 1.426 1.426 0 0 0 1.423 1.424 1.426 1.426 0 0 0 1.427-1.424 1.426 1.426 0 0 0-1.427-1.426zm-8.886.165a1.924 1.924 0 0 0-1.924 1.924 1.924 1.924 0 0 0 1.924 1.924 1.924 1.924 0 0 0 1.925-1.924 1.924 1.924 0 0 0-1.925-1.924zm12.27.998a1.239 1.239 0 0 0-1.236 1.238 1.239 1.239 0 0 0 1.237 1.24 1.239 1.239 0 0 0 1.24-1.24 1.239 1.239 0 0 0-1.24-1.238zm-17.503.914a2.215 2.215 0 0 0-2.214 2.214 2.215 2.215 0 0 0 2.214 2.215 2.215 2.215 0 0 0 2.215-2.215 2.215 2.215 0 0 0-2.215-2.214zm20.079.663a1.073 1.073 0 0 0-1.072 1.072 1.073 1.073 0 0 0 1.072 1.072 1.073 1.073 0 0 0 1.072-1.072 1.073 1.073 0 0 0-1.072-1.072zm5.862.956a1.924 1.924 0 0 0-1.576.959 1.924 1.924 0 0 0 .705 2.63 1.924 1.924 0 0 0 2.627-.706 1.924 1.924 0 0 0-.702-2.627 1.924 1.924 0 0 0-1.054-.256zm5.63.794a1.924 1.924 0 0 0-1.573.96 1.924 1.924 0 0 0 .702 2.63 1.924 1.924 0 0 0 2.63-.706 1.924 1.924 0 0 0-.705-2.627 1.924 1.924 0 0 0-1.054-.257zm-19.434.37a1.633 1.633 0 0 0-1.635 1.63 1.633 1.633 0 0 0 1.635 1.635 1.633 1.633 0 0 0 1.634-1.634 1.633 1.633 0 0 0-1.634-1.631zm4.111.412a1.426 1.426 0 0 0-1.426 1.427 1.426 1.426 0 0 0 1.426 1.426 1.426 1.426 0 0 0 1.424-1.426 1.426 1.426 0 0 0-1.424-1.427zm-8.889.168a1.924 1.924 0 0 0-1.924 1.924 1.924 1.924 0 0 0 1.924 1.925 1.924 1.924 0 0 0 1.925-1.925 1.924 1.924 0 0 0-1.925-1.924zm28.687.77a1.924 1.924 0 0 0-1.576.959A1.924 1.924 0 0 0 50.6 30a1.924 1.924 0 0 0 2.627-.706 1.924 1.924 0 0 0-.702-2.627 1.924 1.924 0 0 0-1.054-.256zm-16.413.226a1.239 1.239 0 0 0-1.24 1.24 1.239 1.239 0 0 0 1.24 1.237 1.239 1.239 0 0 0 1.237-1.237 1.239 1.239 0 0 0-1.237-1.24zm-17.507.913a2.215 2.215 0 0 0-2.214 2.215 2.215 2.215 0 0 0 2.214 2.215 2.215 2.215 0 0 0 2.215-2.215 2.215 2.215 0 0 0-2.215-2.215zm22.196 1.21a1.633 1.633 0 0 0-1.338.815 1.633 1.633 0 0 0 .599 2.23 1.633 1.633 0 0 0 2.23-.598 1.633 1.633 0 0 0-.596-2.23 1.633 1.633 0 0 0-.895-.217zm5.63.794a1.633 1.633 0 0 0-1.335.816 1.633 1.633 0 0 0 .596 2.23 1.633 1.633 0 0 0 2.233-.6 1.633 1.633 0 0 0-.6-2.229 1.633 1.633 0 0 0-.894-.217zM27.769 30.85a1.239 1.239 0 0 0-.592.168 1.239 1.239 0 0 0-.452 1.693 1.239 1.239 0 0 0 1.692.452 1.239 1.239 0 0 0 .452-1.693 1.239 1.239 0 0 0-1.1-.62zm-15.582.23a2.588 2.588 0 0 0-2.587 2.59 2.588 2.588 0 0 0 2.587 2.587 2.588 2.588 0 0 0 2.59-2.587 2.588 2.588 0 0 0-2.59-2.59zm37.665.195a1.633 1.633 0 0 0-1.338.816 1.633 1.633 0 0 0 .599 2.23 1.633 1.633 0 0 0 2.23-.6 1.633 1.633 0 0 0-.596-2.23 1.633 1.633 0 0 0-.895-.216zM37.52 32.422a1.426 1.426 0 0 0-1.167.712 1.426 1.426 0 0 0 .523 1.95 1.426 1.426 0 0 0 1.948-.523 1.426 1.426 0 0 0-.522-1.95 1.426 1.426 0 0 0-.782-.189zm-13.315.138a1.073 1.073 0 0 0-.514.143 1.073 1.073 0 0 0-.39 1.467 1.073 1.073 0 0 0 1.466.39 1.073 1.073 0 0 0 .39-1.462 1.073 1.073 0 0 0-.952-.538zm18.948.66a1.426 1.426 0 0 0-1.167.708 1.426 1.426 0 0 0 .52 1.95 1.426 1.426 0 0 0 1.948-.523 1.426 1.426 0 0 0-.522-1.946 1.426 1.426 0 0 0-.78-.19zM21 33.235a.907.907 0 0 0-.43.122.907.907 0 0 0-.333 1.237.907.907 0 0 0 1.24.333.907.907 0 0 0 .33-1.24.907.907 0 0 0-.807-.452zm7.613.85a1.426 1.426 0 0 0-.682.189 1.426 1.426 0 0 0-.522 1.948 1.426 1.426 0 0 0 1.949.52 1.426 1.426 0 0 0 .522-1.946 1.426 1.426 0 0 0-1.267-.712zm19.012.854a1.426 1.426 0 0 0-1.167.71 1.426 1.426 0 0 0 .523 1.948 1.426 1.426 0 0 0 1.948-.522 1.426 1.426 0 0 0-.522-1.946 1.426 1.426 0 0 0-.782-.19zm-12.634.113a1.239 1.239 0 0 0-1.014.62 1.239 1.239 0 0 0 .455 1.693 1.239 1.239 0 0 0 1.692-.455 1.239 1.239 0 0 0-.455-1.693 1.239 1.239 0 0 0-.678-.165zm-10.725.278a1.239 1.239 0 0 0-.593.165 1.239 1.239 0 0 0-.452 1.693 1.239 1.239 0 0 0 1.692.452 1.239 1.239 0 0 0 .452-1.692 1.239 1.239 0 0 0-1.1-.618zm-3.788.245a1.073 1.073 0 0 0-.51.143 1.073 1.073 0 0 0-.394 1.467 1.073 1.073 0 0 0 1.466.39 1.073 1.073 0 0 0 .39-1.466 1.073 1.073 0 0 0-.952-.534zm20.146.272a1.239 1.239 0 0 0-1.015.62 1.239 1.239 0 0 0 .453 1.692 1.239 1.239 0 0 0 1.692-.455 1.239 1.239 0 0 0-.452-1.692 1.239 1.239 0 0 0-.678-.165zm-10.142 1.692a1.633 1.633 0 0 0-.779.22 1.633 1.633 0 0 0-.596 2.23 1.633 1.633 0 0 0 2.23.599 1.633 1.633 0 0 0 .599-2.233 1.633 1.633 0 0 0-1.454-.816zm7.64 0a1.073 1.073 0 0 0-.88.535 1.073 1.073 0 0 0 .394 1.466 1.073 1.073 0 0 0 1.463-.394 1.073 1.073 0 0 0-.39-1.466 1.073 1.073 0 0 0-.587-.141zm6.977.028a1.239 1.239 0 0 0-1.017.62 1.239 1.239 0 0 0 .455 1.692 1.239 1.239 0 0 0 1.692-.455 1.239 1.239 0 0 0-.455-1.693 1.239 1.239 0 0 0-.675-.164zm-24.56.778a1.239 1.239 0 0 0-.59.165 1.239 1.239 0 0 0-.455 1.693 1.239 1.239 0 0 0 1.693.452 1.239 1.239 0 0 0 .455-1.692 1.239 1.239 0 0 0-1.103-.618zm4.567.217a1.426 1.426 0 0 0-.678.19 1.426 1.426 0 0 0-.523 1.949 1.426 1.426 0 0 0 1.95.522 1.426 1.426 0 0 0 .521-1.949 1.426 1.426 0 0 0-1.27-.712zm17.488.697a1.073 1.073 0 0 0-.877.534 1.073 1.073 0 0 0 .391 1.467 1.073 1.073 0 0 0 1.466-.394 1.073 1.073 0 0 0-.39-1.467 1.073 1.073 0 0 0-.59-.14zm-2.422.968a.907.907 0 0 0-.743.452.907.907 0 0 0 .333 1.237.907.907 0 0 0 1.24-.33.907.907 0 0 0-.333-1.24.907.907 0 0 0-.497-.119zm-6.553.721a1.924 1.924 0 0 0-.916.26 1.924 1.924 0 0 0-.706 2.627 1.924 1.924 0 0 0 2.63.705 1.924 1.924 0 0 0 .703-2.63 1.924 1.924 0 0 0-1.71-.962zm-12.237.63a1.426 1.426 0 0 0-.681.189 1.426 1.426 0 0 0-.523 1.949 1.426 1.426 0 0 0 1.95.522 1.426 1.426 0 0 0 .522-1.949 1.426 1.426 0 0 0-1.268-.712zm5.596.442a1.633 1.633 0 0 0-.779.217 1.633 1.633 0 0 0-.595 2.233 1.633 1.633 0 0 0 2.23.596 1.633 1.633 0 0 0 .598-2.23 1.633 1.633 0 0 0-1.454-.816zm11.156 2.068a2.215 2.215 0 0 0-1.054.297 2.215 2.215 0 0 0-.812 3.027 2.215 2.215 0 0 0 3.027.81 2.215 2.215 0 0 0 .81-3.025 2.215 2.215 0 0 0-1.97-1.109zm-14.882.944a1.633 1.633 0 0 0-.78.22 1.633 1.633 0 0 0-.595 2.23 1.633 1.633 0 0 0 2.23.599 1.633 1.633 0 0 0 .599-2.23 1.633 1.633 0 0 0-1.454-.819zm6.863.397a1.924 1.924 0 0 0-.916.257 1.924 1.924 0 0 0-.706 2.627 1.924 1.924 0 0 0 2.63.706 1.924 1.924 0 0 0 .703-2.63 1.924 1.924 0 0 0-1.71-.96zm14.07.98a2.588 2.588 0 0 0-1.23.35 2.588 2.588 0 0 0-.948 3.533 2.588 2.588 0 0 0 3.535.947 2.588 2.588 0 0 0 .947-3.534 2.588 2.588 0 0 0-2.304-1.295zM26.39 48.445a1.924 1.924 0 0 0-.917.257 1.924 1.924 0 0 0-.705 2.627 1.924 1.924 0 0 0 2.63.706 1.924 1.924 0 0 0 .702-2.63 1.924 1.924 0 0 0-1.71-.96zm8.241.126a2.215 2.215 0 0 0-1.054.296 2.215 2.215 0 0 0-.812 3.024 2.215 2.215 0 0 0 3.027.813 2.215 2.215 0 0 0 .81-3.028 2.215 2.215 0 0 0-1.97-1.105z" fill="#F9F5D7" stroke="#151819" stroke-width="0" stroke-linecap="round" stroke-linejoin="round"/>
    <path d="M8.2 4A4.19 4.19 0 0 0 4 8.2v1A4.19 4.19 0 0 1 8.2 5h47.6A4.19 4.19 0 0 1 60 9.2v-1A4.19 4.19 0 0 0 55.8 4H8.2z" fill="#F9F5D7" opacity=".1"/>
</svg>
