<svg xmlns="http://www.w3.org/2000/svg" width="64" height="64" version="1">
    <rect width="56" height="56" x="4" y="4" rx="3" ry="3" fill="#CB241D"/>
    <path d="M7 4C5.338 4 4 5.338 4 7v1c0-1.662 1.338-3 3-3h50c1.662 0 3 1.338 3 3V7c0-1.662-1.338-3-3-3H7z" opacity=".1" fill="#F9F5D7"/>
    <path d="M4 57v1c0 1.662 1.338 3 3 3h50c1.662 0 3-1.338 3-3v-1c0 1.662-1.338 3-3 3H7c-1.662 0-3-1.338-3-3z" opacity=".2"/>
    <g opacity=".2" fill="none" stroke="#151819" stroke-width="2" stroke-linecap="round" stroke-linejoin="round">
        <path d="M12.028 27H27L13 44.972h16M34 44.972v-24l9 14 9-14v23.972" stroke-width="4"/>
    </g>
    <g fill="none" stroke="#BE4C1D" stroke-width="2" stroke-linecap="round" stroke-linejoin="round">
        <path d="M12.028 26H27L13 43.972h16M34 43.972v-24l9 14 9-14v23.972" stroke-width="4"/>
    </g>
</svg>
