<svg xmlns="http://www.w3.org/2000/svg" width="64" height="64" version="1">
    <path d="M18.083 5C11.943 5 7 8.531 7 12.917V41h28.083C39.47 41 43 36.057 43 29.917V27.75C43 21.61 39.469 17 35.083 17H21v6h9.228C32.835 23 35 24.884 35 27.223v3.22C35 32.784 32.835 35 30.228 35H19V15h12v-2.083C31 8.531 26.299 5 20.158 5z" opacity=".2"/>
    <path d="M32.083 61C25.943 61 21 57.47 21 53.083V25h28.083C53.47 25 57 29.943 57 36.084v2.166C57 44.39 53.469 49 49.083 49H35v-6h9.228C46.835 43 49 41.116 49 38.777v-3.22C49 33.217 46.835 31 44.228 31H33v20h12v2.083C45 57.47 40.299 61 34.158 61z" opacity=".2"/>
    <path d="M18.083 4C11.943 4 7 7.53 7 11.917V40h28.083C39.47 40 43 35.057 43 28.916V26.75C43 20.61 39.469 16 35.083 16H21v6h9.228C32.835 22 35 23.884 35 26.223v3.22C35 31.783 32.835 34 30.228 34H19V14h12v-2.083C31 7.53 26.299 4 20.158 4z" fill="#066678"/>
    <path d="M18.084 4C11.944 4 7 7.53 7 11.916v1.002C7 8.532 11.943 5 18.084 5h2.074C26.3 5 31 8.532 31 12.918v-1.002C31 7.53 26.299 4 20.158 4h-2.074zM21 16v1h14.084C39.47 17 43 21.61 43 27.75v-1C43 20.61 39.47 16 35.084 16H21zm14 13.443C35 31.783 32.835 34 30.229 34H19v1h11.229C32.835 35 35 32.782 35 30.443v-1z" fill="#F9F5D7" opacity=".2"/>
    <path d="M24.5 8A1.5 1.5 0 0 0 23 9.5a1.5 1.5 0 0 0 1.5 1.5A1.5 1.5 0 0 0 26 9.5 1.5 1.5 0 0 0 24.5 8z" opacity=".2"/>
    <path d="M24.5 7A1.5 1.5 0 0 0 23 8.5a1.5 1.5 0 0 0 1.5 1.5A1.5 1.5 0 0 0 26 8.5 1.5 1.5 0 0 0 24.5 7z" fill="#F9F5D7"/>
    <path d="M32.083 60C25.943 60 21 56.469 21 52.083V24h28.083C53.47 24 57 28.943 57 35.083v2.167C57 43.39 53.469 48 49.083 48H35v-6h9.228C46.835 42 49 40.116 49 37.777v-3.22C49 32.216 46.835 30 44.228 30H33v20h12v2.083C45 56.469 40.299 60 34.158 60z" fill="#FECE4F"/>
    <path d="M21 24v1h28.084C53.47 25 57 29.943 57 36.084v-1C57 28.944 53.47 24 49.084 24H21zm28 13.777C49 40.117 46.835 42 44.229 42H35v1h9.229C46.835 43 49 41.116 49 38.777v-1zM33 50v1h12v-1H33z" fill="#F9F5D7" opacity=".2"/>
    <path d="M38.5 58a1.5 1.5 0 0 1-1.5-1.5 1.5 1.5 0 0 1 1.5-1.5 1.5 1.5 0 0 1 1.5 1.5 1.5 1.5 0 0 1-1.5 1.5z" opacity=".2"/>
    <path d="M38.5 57a1.5 1.5 0 0 1-1.5-1.5 1.5 1.5 0 0 1 1.5-1.5 1.5 1.5 0 0 1 1.5 1.5 1.5 1.5 0 0 1-1.5 1.5z" fill="#F9F5D7"/>
    <path d="M34.266 24c.457.646.734 1.403.734 2.223v3.22c0 .188-.036.372-.063.557h8.024c.024-.357.039-.718.039-1.084V26.75c0-.96-.095-1.876-.258-2.75z" fill="#066678"/>
</svg>
