<svg xmlns="http://www.w3.org/2000/svg" width="64" height="64" version="1">
    <circle cx="32" cy="32" r="27" fill="#FD8019"/>
    <circle cx="32" cy="33" r="28" opacity=".2"/>
    <path d="M32 32l27.075-7.249a28.028 28.01 0 0 0-19.83-19.773z" fill="#066678"/>
    <path d="M32 32l19.82 19.807a28.028 28.01 0 0 0 7.22-27.048z" fill="#7CB668"/>
    <path d="M32 32l-7.255 27.056a28.028 28.01 0 0 0 27.049-7.275z" fill="#F9BD2E"/>
    <path d="M32 32L4.925 39.249a28.028 28.01 0 0 0 19.83 19.773z" fill="#FD8019"/>
    <path d="M32 32L12.18 12.193A28.028 28.01 0 0 0 4.96 39.24z" fill="#CB241D"/>
    <path d="M32 32l7.255-27.056a28.028 28.01 0 0 0-27.049 7.275z" fill="#8F3F71"/>
    <path d="M32 17a16 16 0 1 0 16 16V21c0-2.216-1.784-4-4-4zm9 4a3 3 0 0 1 3 3 3 3 0 0 1-3 3 3 3 0 0 1-3-3 3 3 0 0 1 3-3z" opacity=".2"/>
    <path d="M32 16a16 16 0 1 0 16 16V20c0-2.216-1.784-4-4-4zm9 4a3 3 0 0 1 3 3 3 3 0 0 1-3 3 3 3 0 0 1-3-3 3 3 0 0 1 3-3z" fill="#F9F5D7"/>
    <path d="M32 4A28 28 0 0 0 4 32a28 28 0 0 0 .018.492A28 28 0 0 1 32 5a28 28 0 0 1 27.975 27.492A28 28 0 0 0 60 32 28 28 0 0 0 32 4z" opacity=".2" fill="#F9F5D7"/>
</svg>
