<svg xmlns="http://www.w3.org/2000/svg" width="64" height="64">
    <path d="M31.207 5.002c-3.59.075-7.196.648-10.33 1.662-3.208 1.038-6.157 2.535-8.973 4.555-1.151.826-2.04 1.81-2.484 2.751-.394.837-.978 4.464-1.23 7.641-.79 9.938.917 20.046 4.449 26.342.44.784 2.151 3.486 2.808 4.432 2.568 3.694 6.009 6.292 10.043 7.582 1.654.528 3.207.82 5.446 1.025.18.016.644.004 1.064-.004.776-.014 1.662-.047 2.154-.105 5.757-.686 10.142-3.07 13.559-7.377.628-.792 1.02-1.365 2.21-3.22 1.568-2.44 2.221-3.686 3.054-5.81 2.968-7.573 3.826-18.216 2.238-27.732-.396-2.37-.521-2.758-1.192-3.662-.673-.909-1.33-1.475-3.025-2.606-4.732-3.157-10.055-4.922-16.227-5.38A37.373 37.373 0 0 0 32 5.003c-.265 0-.528-.008-.793-.002z" opacity=".2"/>
    <path d="M31.206 4.002c-3.589.075-7.194.649-10.329 1.663-3.208 1.038-6.157 2.534-8.972 4.554-1.152.826-2.04 1.809-2.485 2.751-.394.836-.977 4.465-1.23 7.642-.79 9.938.916 20.045 4.448 26.342.44.784 2.153 3.485 2.81 4.43 2.567 3.694 6.008 6.292 10.042 7.582 1.654.529 3.207.82 5.446 1.026.18.016.645.004 1.064-.003V4.005c-.264 0-.528-.009-.794-.003zm.794.003zm0 55.984c.777-.014 1.662-.048 2.154-.107-.492.059-1.377.093-2.154.107zm22.437-47.287c.337.602.481 1.265.778 3.042-.297-1.777-.44-2.44-.778-3.042zm1.26 6.655zM45.688 54.688c-.716.68-1.457 1.316-2.25 1.863.794-.548 1.534-1.182 2.25-1.863z" fill="#F9F5D7"/>
    <path d="M18.143 29.003c-.986.025-1.763.193-2.255.565-.316.24-.54.65-.744 1.372-.25.883-.18 1.544.265 2.438.683 1.37 2.225 2.35 4.063 2.585.052.007.136.026.189.037h7.995c.19-.053.272-.135.322-.284.084-.252-.07-.719-.505-1.538a11.53 11.53 0 0 0-1.907-2.673c-1.308-1.392-2.35-1.979-3.928-2.213-1.318-.195-2.51-.313-3.495-.289z" opacity=".1"/>
    <path d="M32 4.005v55.984c.777-.014 1.662-.048 2.154-.107 5.757-.685 10.14-3.07 13.558-7.376.628-.792 1.021-1.365 2.212-3.22 1.566-2.44 2.22-3.685 3.052-5.809 2.968-7.573 3.827-18.217 2.239-27.733-.395-2.37-.52-2.758-1.191-3.663-.674-.908-1.33-1.473-3.025-2.603-4.732-3.158-10.056-4.924-16.227-5.383A37.367 37.367 0 0 0 32 4.005z" fill="#A79984"/>
    <path d="M31.356 53.927c-.873-.12-1.902-.507-2.814-1.061-.498-.303-.602-.45-.514-.73.05-.16.09-.181.339-.181.155 0 .884.081 1.62.18 2.747.37 3.905.22 6.99-.901.813-.296.954-.305 1.02-.063.07.25-1.242 1.467-2.227 2.07-1.02.622-2.826.903-4.414.686z" opacity=".1"/>
    <path d="M31.356 52.927c-.873-.119-1.902-.507-2.814-1.061-.498-.303-.602-.45-.514-.73.05-.16.09-.181.339-.181.155 0 .884.081 1.62.18 2.747.37 3.905.22 6.99-.901.813-.296.954-.305 1.02-.063.07.25-1.242 1.467-2.227 2.07-1.02.622-2.826.903-4.414.686z" fill="#3A393A"/>
    <path d="M30.836 41.008c-.055-.022-.091.003-.155.057-.472.403-1.557 2.348-1.656 2.97-.105.665.13 1.5.548 1.932.204.21 1.432.834 1.879.955.197.053.373.075.548.078.175-.003.351-.025.548-.078.447-.12 1.675-.744 1.879-.955.418-.432.653-1.267.548-1.931-.1-.623-1.184-2.568-1.656-2.97-.064-.055-.1-.08-.155-.058-.056.023-.131.092-.273.232-.291.286-.54.388-.891.37-.351.018-.6-.084-.891-.37-.142-.14-.217-.209-.273-.232z" opacity=".1"/>
    <path d="M30.836 40.008c-.055-.022-.091.003-.155.057-.472.403-1.557 2.348-1.656 2.97-.105.665.13 1.5.548 1.932.204.21 1.432.834 1.879.955.197.053.373.075.548.078.175-.003.351-.025.548-.078.447-.12 1.675-.744 1.879-.955.418-.432.653-1.267.548-1.931-.1-.623-1.184-2.568-1.656-2.97-.064-.055-.1-.08-.155-.058-.056.023-.131.092-.273.232-.291.286-.54.388-.891.37-.351.018-.6-.084-.891-.37-.142-.14-.217-.209-.273-.232zM18.143 28.003c-.986.025-1.763.193-2.255.565-.316.24-.54.65-.744 1.373-.25.882-.18 1.543.265 2.437.683 1.37 2.225 2.35 4.063 2.586.052.006.136.025.189.036h7.995c.19-.053.272-.135.322-.284.084-.252-.07-.719-.505-1.538a11.53 11.53 0 0 0-1.907-2.673c-1.308-1.392-2.35-1.979-3.928-2.213-1.318-.195-2.51-.313-3.495-.289z" fill="#3A393A"/>
    <path d="M37.6 27v9h1.412v-9zm2.824 0v9h1.411v-9zm2.823 0v9h1.412v-9zm2.824 0v9h1.411v-9z" opacity=".3"/>
    <rect width="13" height="7" x="36" y="29" rx="2.167" ry="2.1" opacity=".1"/>
    <rect width="13" height="7" x="36" y="28" rx="2.167" ry="2.1" fill="#3A393A"/>
    <g fill="#F9F5D7">
        <path d="M40.333 29.4v4.2h4.334v-4.2zm.723.7h2.888v2.8h-2.888zM37.88 29.68h1.444v.7H37.88zM38.89 30.38h1.011v.7H38.89zM37.88 32.48h1.444v.7H37.88z"/>
        <path d="M38.89 31.78h1.011v.7H38.89zM47.12 29.68h-1.444v.7h1.444zM46.11 30.38h-1.011v.7h1.011zM47.12 32.48h-1.444v.7h1.444z"/>
        <path d="M46.11 31.78h-1.011v.7h1.011zM41.49 30.45h2.022v.7H41.49zM41.49 31.85h2.022v.7H41.49z"/>
        <path d="M42.86 30.73v1.4h-.722v-1.4z"/>
    </g>
    <path d="M31.207 4.002c-3.59.075-7.196.648-10.33 1.662-3.208 1.038-6.157 2.535-8.973 4.555-1.151.826-2.04 1.81-2.484 2.752-.394.836-.978 4.464-1.23 7.64a60.975 60.975 0 0 0-.184 5.686c.003-1.556.06-3.122.183-4.686.253-3.176.837-6.804 1.23-7.64.445-.943 1.334-1.926 2.485-2.752 2.816-2.02 5.765-3.517 8.973-4.555 3.134-1.014 6.74-1.587 10.33-1.662.265-.006.528.002.793.002.93 0 1.857.024 2.771.092 6.172.458 11.495 2.223 16.227 5.38 1.694 1.131 2.352 1.698 3.025 2.606.67.904.796 1.293 1.192 3.662.485 2.907.739 5.919.777 8.916.012-3.326-.238-6.685-.777-9.916-.396-2.37-.521-2.758-1.192-3.662-.673-.908-1.33-1.475-3.025-2.605-4.732-3.158-10.055-4.923-16.227-5.381A37.373 37.373 0 0 0 32 4.004c-.265 0-.528-.008-.793-.002z" fill="#F9F5D7" opacity=".2"/>
</svg>
