<svg xmlns="http://www.w3.org/2000/svg" width="64" height="64" version="1">
    <path d="M9 55.2v2c0 1.55 1.25 2.8 2.8 2.8h38.4c1.55 0 2.8-1.25 2.8-2.8v-2c0 1.55-1.25 2.8-2.8 2.8H11.8C10.25 58 9 56.75 9 55.2z" opacity=".2"/>
    <path d="M11.8 3A2.794 2.794 0 0 0 9 5.8v50.4c0 1.552 1.249 2.8 2.8 2.8h5.57l4.2-28-4.2-28z" fill="#504945"/>
    <path d="M38.428 9H55.57c.792 0 1.43.595 1.43 1.334v13.333c0 .74-.638 1.334-1.428 1.334H38.43c-.792 0-1.43-.594-1.43-1.334V10.335C37 9.595 37.638 9 38.428 9z" fill="#7CB668"/>
    <path d="M38.428 23H55.57c.792 0 1.43.594 1.43 1.334v13.333c0 .738-.638 1.332-1.428 1.332H38.43c-.792 0-1.43-.594-1.43-1.334V24.332c0-.738.638-1.332 1.428-1.332z" fill="#066678"/>
    <path d="M38.428 37H55.57c.792 0 1.43.594 1.43 1.334v13.333c0 .738-.638 1.332-1.428 1.332H38.43c-.792 0-1.43-.594-1.43-1.334V38.332c0-.738.638-1.332 1.428-1.332z" fill="#F9BD2E"/>
    <g opacity=".2">
        <path d="M38.43 8C37.638 8 37 8.593 37 9.332v1C37 9.593 37.638 9 38.43 9h17.138C56.36 9 57 9.593 57 10.332v-1C57 8.593 56.36 8 55.568 8H38.43zM38.43 22c-.792 0-1.43.594-1.43 1.332v1c0-.738.638-1.332 1.43-1.332h17.14c.792 0 1.43.593 1.43 1.332v-1c0-.739-.638-1.332-1.43-1.332H38.43zM38.43 36c-.792 0-1.43.594-1.43 1.332v1c0-.738.638-1.332 1.43-1.332h17.14c.792 0 1.43.593 1.43 1.332v-1c0-.739-.638-1.332-1.43-1.332H38.43z"/>
    </g>
    <g opacity=".2" fill="#F9F5D7">
        <path d="M38.43 9c-.792 0-1.43.593-1.43 1.332v1c0-.739.638-1.332 1.43-1.332h17.138c.792 0 1.432.593 1.432 1.332v-1C57 9.593 56.36 9 55.568 9H38.43zM38.43 23c-.792 0-1.43.594-1.43 1.332v1c0-.738.638-1.332 1.43-1.332h17.14c.792 0 1.43.593 1.43 1.332v-1c0-.739-.638-1.332-1.43-1.332H38.43zM38.43 37c-.792 0-1.43.594-1.43 1.332v1c0-.738.638-1.332 1.43-1.332h17.14c.792 0 1.43.593 1.43 1.332v-1c0-.739-.638-1.332-1.43-1.332H38.43z"/>
    </g>
    <path d="M17 3v56h33.2c1.551 0 2.8-1.248 2.8-2.8V5.8C53 4.25 51.75 3 50.2 3H31.57z" fill="#FA4934"/>
    <path d="M25 20.004V44h7.111C44.555 44 45 36.446 45 32.002c0-4.444-.447-12.217-12.889-11.998H25zM31 25h1.111C37.445 25 39 26.4 39 32s-1.556 7-6.889 7H31V25z" opacity=".2"/>
    <path d="M25 19.004V43h7.111C44.555 43 45 35.446 45 31.002c0-4.444-.447-12.217-12.889-11.998H25zM31 24h1.111C37.445 24 39 25.4 39 31s-1.556 7-6.889 7H31V24z" fill="#F9F5D7"/>
    <path d="M11.8 3C10.25 3 9 4.25 9 5.8v1C9 5.25 10.25 4 11.8 4h38.4C51.75 4 53 5.25 53 6.8v-1C53 4.25 51.75 3 50.2 3H11.8z" opacity=".2" fill="#F9F5D7"/>
</svg>
