<svg xmlns="http://www.w3.org/2000/svg" width="64" height="64" version="1">
    <path d="M53.946 16.988a10.951 10.951 0 0 1-1.4 4.47c-3.014 5.272-9.73 7.103-15.004 4.088a10.98 10.98 0 0 1-5.488-8.535c-.372 4.15 1.634 8.333 5.488 10.534 5.274 3.016 11.99 1.184 15.004-4.087a10.935 10.935 0 0 0 1.4-6.47zm-43.864 2.937c-.424 3.134 1.035 6.354 3.95 8.02 3.834 2.192 8.72.858 10.914-2.978.882-1.544 1.166-3.256.972-4.898a7.98 7.98 0 0 1-.972 2.898c-2.194 3.836-7.08 5.17-10.915 2.978-2.29-1.31-3.661-3.586-3.949-6.02zM6.098 36.957c-.419 2.772.848 5.64 3.43 7.116a6.996 6.996 0 0 0 9.546-2.602c.8-1.398 1.036-2.952.828-4.432a6.97 6.97 0 0 1-.828 2.432 6.996 6.996 0 0 1-9.547 2.602c-1.957-1.118-3.14-3.046-3.43-5.116zm35.983.968c-.424 3.134 1.036 6.354 3.95 8.02 3.834 2.192 8.72.858 10.914-2.978.882-1.544 1.166-3.256.972-4.898a7.979 7.979 0 0 1-.972 2.898c-2.194 3.836-7.08 5.17-10.914 2.978-2.292-1.31-3.662-3.586-3.95-6.02zm3.824 13.02c-.102.742-.294 1.484-.648 2.19a7 7 0 0 1-9.394 3.122c-2.108-1.058-3.438-3.04-3.77-5.208-.396 2.886 1.02 5.83 3.77 7.208a7 7 0 0 0 9.394-3.122 6.932 6.932 0 0 0 .648-4.19zM14.114 51.97c-.422 2.42.655 4.946 2.91 6.236a6 6 0 0 0 8.184-2.232c.712-1.248.898-2.638.678-3.952a5.977 5.977 0 0 1-.678 1.952 6 6 0 0 1-8.184 2.232c-1.63-.932-2.625-2.518-2.91-4.236z" opacity=".2"/>
    <path d="M22.978 46.793a5.999 5.999 0 1 1-8.186 2.23 6 6 0 0 1 8.186-2.23z" fill="#FECE4F"/>
    <path d="M16.473 30.925a6.999 6.999 0 1 1-9.549 2.601 6.999 6.999 0 0 1 9.55-2.602z" fill="#B7BB25"/>
    <path d="M21.97 13.057a8 8 0 1 1-7.94 13.885 8 8 0 0 1 7.94-13.885z" fill="#48B9C7"/>
    <path d="M48.458 7.453c5.273 3.014 7.104 9.733 4.09 15.006-3.015 5.273-9.734 7.104-15.007 4.09-5.273-3.015-7.104-9.733-4.09-15.006 3.015-5.274 9.734-7.105 15.007-4.09z" fill="#FECE4F"/>
    <path d="M53.97 31.057a7.999 7.999 0 1 1-7.94 13.888 7.999 7.999 0 0 1 7.94-13.888z" fill="#B7BB25"/>
    <path d="M42.138 44.745a6.999 6.999 0 1 1-6.275 12.511 6.999 6.999 0 0 1 6.275-12.511z" fill="#48B9C7"/>
    <path d="M43.25 6.004a10.996 10.996 0 0 0-9.797 5.539 10.91 10.91 0 0 0-1.432 5.9A10.996 10.996 0 0 1 43.25 7.006c1.774.038 3.559.507 5.207 1.45 3.378 1.93 5.336 5.38 5.518 8.997.16-3.97-1.83-7.891-5.518-10a10.933 10.933 0 0 0-5.207-1.45zM18.566 12.02a7.967 7.967 0 0 0-1.156.003 7.995 7.995 0 0 0-6.355 4.008c-.79 1.38-1.077 2.892-.996 4.37a7.784 7.784 0 0 1 .996-3.368 7.995 7.995 0 0 1 6.355-4.008 7.948 7.948 0 0 1 4.557 1.031c2.42 1.384 3.818 3.841 3.986 6.428.178-2.94-1.254-5.868-3.986-7.43a7.948 7.948 0 0 0-3.4-1.034zm-5.07 17.998a6.832 6.832 0 0 0-1.012.003 6.99 6.99 0 0 0-5.558 3.508c-.707 1.237-.953 2.59-.862 3.912.07-.994.333-1.986.862-2.912a6.99 6.99 0 0 1 5.558-3.508 6.832 6.832 0 0 1 1.012-.003 6.977 6.977 0 0 1 2.977.91c2.101 1.201 3.311 3.326 3.47 5.57.186-2.596-1.057-5.193-3.47-6.572a6.974 6.974 0 0 0-2.977-.908zm37.068.003a7.668 7.668 0 0 0-1.154.004 7.995 7.995 0 0 0-6.357 4.008c-.789 1.38-1.076 2.89-.994 4.367a7.786 7.786 0 0 1 .994-3.367 7.995 7.995 0 0 1 6.357-4.008 7.943 7.943 0 0 1 4.557 1.03c2.42 1.384 3.818 3.842 3.986 6.43.178-2.942-1.254-5.868-3.986-7.43a7.943 7.943 0 0 0-3.403-1.034zM39.457 44.018a7.004 7.004 0 0 0-6.715 3.847c-.582 1.16-.782 2.4-.695 3.608a6.83 6.83 0 0 1 .695-2.608 7.004 7.004 0 0 1 9.393-3.123c2.281 1.144 3.627 3.368 3.799 5.74.19-2.732-1.199-5.436-3.8-6.74a6.964 6.964 0 0 0-2.677-.724zm-19.898 1.998a5.998 5.998 0 0 0-4.766 3.01c-.62 1.082-.824 2.27-.729 3.425.068-.829.288-1.654.729-2.426a5.995 5.995 0 0 1 8.182-2.232c1.772 1.014 2.804 2.793 2.966 4.682.18-2.243-.883-4.49-2.966-5.682a5.968 5.968 0 0 0-3.416-.777z" opacity=".2" fill="#F9F5D7"/>
</svg>
