<svg xmlns="http://www.w3.org/2000/svg" width="64" height="64" version="1">
    <rect width="58" height="58" x="-62" y="-61" rx="2.9" ry="2.9" transform="matrix(0 -1 -1 0 0 0)" opacity=".2"/>
    <rect width="58" height="58" x="-61" y="-61" rx="2.9" ry="2.9" transform="matrix(0 -1 -1 0 0 0)" fill="#F9BD2E"/>
    <path d="M7 8v4h4V8zm6 0v4h4V8zm6 0v4h4V8zm6 0v4h4V8zm6 0v4h4V8zm6 0v4h4V8zm10 0v4h4V8zm6 0v4h4V8zM7 14v4h4v-4zm6 0v4h4v-4zm6 0v4h4v-4zm6 0v4h4v-4zm6 0v4h4v-4zm6 0v4h4v-4zm10 0v4h4v-4zm6 0v4h4v-4zm-6 6v4h4v-4zm6 0v4h4v-4zM7 24v4h4v-4zm6 0v4h4v-4zm34 2v4h4v-4zm6 0v4h4v-4zM7 30v4h4v-4zm6 0v4h4v-4zm34 2v4h4v-4zm6 0v4h4v-4zM7 36v4h4v-4zm6 0v4h4v-4zm34 2v4h4v-4zm6 0v4h4v-4zM7 42v4h4v-4zm6 0v4h4v-4zm-6 6v4h4v-4zm6 0v4h4v-4zm10 0v4h4v-4zm6 0v4h4v-4zm6 0v4h4v-4zm6 0v4h4v-4zm6 0v4h4v-4zm6 0v4h4v-4zM7 54v4h4v-4zm6 0v4h4v-4zm10 0v4h4v-4zm6 0v4h4v-4zm6 0v4h4v-4zm6 0v4h4v-4zm6 0v4h4v-4zm6 0v4h4v-4z" opacity=".1"/>
    <path d="M7 7v4h4V7zm6 0v4h4V7zm6 0v4h4V7zm6 0v4h4V7zm6 0v4h4V7zm6 0v4h4V7zm10 0v4h4V7zm6 0v4h4V7zM7 13v4h4v-4zm6 0v4h4v-4zm6 0v4h4v-4zm6 0v4h4v-4zm6 0v4h4v-4zm6 0v4h4v-4zm10 0v4h4v-4zm6 0v4h4v-4zm-6 6v4h4v-4zm6 0v4h4v-4zM7 23v4h4v-4zm6 0v4h4v-4zm34 2v4h4v-4zm6 0v4h4v-4zM7 29v4h4v-4zm6 0v4h4v-4zm34 2v4h4v-4zm6 0v4h4v-4zM7 35v4h4v-4zm6 0v4h4v-4zm34 2v4h4v-4zm6 0v4h4v-4zM7 41v4h4v-4zm6 0v4h4v-4zm-6 6v4h4v-4zm6 0v4h4v-4zm10 0v4h4v-4zm6 0v4h4v-4zm6 0v4h4v-4zm6 0v4h4v-4zm6 0v4h4v-4zm6 0v4h4v-4zM7 53v4h4v-4zm6 0v4h4v-4zm10 0v4h4v-4zm6 0v4h4v-4zm6 0v4h4v-4zm6 0v4h4v-4zm6 0v4h4v-4zm6 0v4h4v-4z" fill="#8F3F71"/>
    <path d="M5.898 3A2.891 2.891 0 0 0 3 5.898v1A2.891 2.891 0 0 1 5.898 4h52.204A2.891 2.891 0 0 1 61 6.898v-1A2.891 2.891 0 0 0 58.102 3H5.898z" opacity=".2" fill="#F9F5D7"/>
</svg>
