<svg xmlns="http://www.w3.org/2000/svg" width="64" height="64" version="1">
    <path d="M32.078 9c-2.35-.019-4.592.316-6.673.86-8.161 2.103-13.855 8.421-16.155 15.851-4.792 1.823-6.932 7.774-3.724 12.066l6.015 8.032a.149.149 0 0 1 .004.004c.797 1.059 2.003 1.642 3.196 2.195.433 1.234.942 2.452 1.813 3.414.346.383.73.733 1.143 1.043 4.29 3.202 9.38 4.513 14.209 4.53-.056 0-.231 0 .012.005h.035c3.3 0 4.818-.535 6.49-.828.05-.01.102-.022.152-.035 8.16-2.104 13.855-8.421 16.155-15.852 4.792-1.822 6.932-7.773 3.724-12.066l-6.015-8.03-.004-.005c-.797-1.06-2.003-1.642-3.196-2.195-.433-1.236-.94-2.454-1.813-3.418a8.02 8.02 0 0 0-1.144-1.043c-4.294-3.206-9.387-4.51-14.212-4.527z" opacity=".2"/>
    <path d="M32.078 8c-2.35-.019-4.592.316-6.673.86-8.161 2.103-13.855 8.421-16.155 15.851-4.792 1.823-6.932 7.774-3.724 12.066l6.015 8.032a.149.149 0 0 1 .004.004c.797 1.059 2.003 1.642 3.196 2.195.433 1.234.942 2.452 1.813 3.414.346.383.73.733 1.143 1.043 4.29 3.202 9.38 4.513 14.209 4.53-.056 0-.231 0 .012.005h.035c3.3 0 4.818-.535 6.49-.828.05-.01.102-.022.152-.035 8.16-2.104 13.855-8.421 16.155-15.852 4.792-1.822 6.932-7.773 3.724-12.066l-6.015-8.03a.149.149 0 0 0-.004-.005c-.797-1.06-2.003-1.642-3.196-2.195-.433-1.236-.94-2.454-1.813-3.418a8.02 8.02 0 0 0-1.144-1.043c-4.294-3.206-9.387-4.51-14.212-4.527z" fill="#CB241D"/>
    <path d="M32.035 17c-1.558-.016-3.105.207-4.605.602-6.994 1.8-11.536 8.416-11.43 15.37h-4L18 41l6-8.027h-4c-.013-2.913.458-5.814 2.477-7.989 3.522-3.983 10.51-5.614 15.554-2.683 1.676 2.106 5.394-.208 3.442-2.367-2.778-2.077-5.931-2.927-9.438-2.934zM46 24.973L40 33h4c.013 2.913-.458 5.814-2.477 7.988-3.795 4.382-10.51 5.614-15.554 2.684-1.676-2.106-5.394.204-3.442 2.363 2.778 2.077 5.931 2.93 9.438 2.938l.004-.004a17.397 17.397 0 0 0 4.601-.598C43.564 46.57 48.106 39.954 48 33h4z" opacity=".2"/>
    <path d="M32.035 16c-1.558-.016-3.105.207-4.605.602-6.994 1.8-11.536 8.416-11.43 15.37h-4L18 40l6-8.027h-4c-.013-2.913.458-5.814 2.477-7.989 3.522-3.983 10.51-5.614 15.554-2.683 1.676 2.106 5.394-.208 3.442-2.367-2.778-2.077-5.931-2.927-9.438-2.934zM46 23.973L40 32h4c.013 2.913-.458 5.814-2.477 7.988-3.795 4.382-10.51 5.614-15.554 2.684-1.676-2.106-5.394.204-3.442 2.363 2.778 2.077 5.931 2.93 9.438 2.938l.004-.004a17.397 17.397 0 0 0 4.601-.598C43.564 45.57 48.106 38.954 48 32h4z" fill="#D5C3A0"/>
    <path d="M32.078 8c-2.35-.02-4.593.315-6.674.86-8.16 2.103-13.854 8.42-16.154 15.85C5.864 26 3.812 29.349 4.025 32.718c.207-3.013 2.176-5.846 5.225-7.006 2.3-7.43 7.994-13.748 16.154-15.852 2.081-.544 4.323-.878 6.674-.859h.012c4.825.017 9.918 1.322 14.213 4.527.414.31.796.66 1.142 1.043.873.964 1.382 2.183 1.815 3.418 1.192.553 2.398 1.136 3.195 2.196l.004.003 6.016 8.032a7.519 7.519 0 0 1 1.5 4.06 7.508 7.508 0 0 0-1.5-5.06l-6.016-8.032-.004-.003c-.797-1.06-2.003-1.643-3.195-2.196-.433-1.235-.942-2.454-1.815-3.418a8.013 8.013 0 0 0-1.142-1.043C42.008 9.322 36.915 8.017 32.09 8h-.012z" fill="#F9F5D7" opacity=".2"/>
</svg>
