<svg xmlns="http://www.w3.org/2000/svg" width="64" height="64">
    <g transform="translate(0 -988.362)">
        <circle cx="32" cy="1021.362" r="28" opacity=".2"/>
        <circle cx="32" cy="1020.362" r="28" fill="#8F3F71"/>
        <path d="M16.643 1007.362c-.99 0-1.643.625-1.643 1.4 0 .776.654 1.6 1.643 1.6h1.16s1.385.366 1.332 1.52c-.359 4.914-2.266 18.228-2.86 19.315-.75 1.028-1.236 1.165-2.49 1.165-.989 0-1.785.825-1.785 1.6 0 .776.796 1.4 1.786 1.4h9.421c.99 0 1.793-.624 1.793-1.4 0-.775-.804-1.6-1.793-1.6-2.15.272-2.717-.275-3.297-1.85-.296-1.533-.194-3.75.173-7.739.66-7.178 1.025-8.452 1.992-7.866.667.404 5.506 10.287 7.096 15.062.655 1.968 1.442 3.496 1.75 3.396.307-.1 1.263-2.065 2.125-4.367 1.95-5.204 5.806-12.785 6.443-13.484.846-.928 1.353.51 2.623 8.263 1.2 7.335 1.207 7.366.242 8.41-.348.335-1.083.175-1.561.175-.99 0-1.793.825-1.793 1.6 0 .776.804 1.4 1.793 1.4h9.421c.99 0 1.786-.624 1.786-1.4 0-.775-.796-1.6-1.786-1.6-1.58.18-1.505-.3-1.995-1.479-1.505-4.478-3.776-16.99-3.236-19.099.593-1.266.998-1.421 2.374-1.421.99 0 1.643-.825 1.643-1.6 0-.776-.654-1.4-1.643-1.4h-9.286c-.989 0-2.071.133-2.071 1.4 0 1.51 1.444 1.25 2.071 2 .931.89.262 1.241-.12 2.154-1.71 3.178-2.983 6.975-4.665 9.994-.505.895-1.057 1.586-1.518 1.566-.717-.073-3.103-6.303-4.66-9.33-.586-1.38-.973-1.808-1.329-2.656-.99-1.636-.032-2.038 1.224-2.303.58-.23 1.012-.692.997-1.426-.027-1.296-.982-1.4-1.971-1.4z" opacity=".2"/>
        <path d="M16.643 1006.362c-.99 0-1.643.625-1.643 1.4 0 .776.654 1.6 1.643 1.6h1.16s1.385.366 1.332 1.52c-.359 4.914-2.266 18.228-2.86 19.315-.75 1.028-1.236 1.165-2.49 1.165-.989 0-1.785.825-1.785 1.6 0 .776.796 1.4 1.786 1.4h9.421c.99 0 1.793-.624 1.793-1.4 0-.775-.804-1.6-1.793-1.6-2.15.272-2.717-.275-3.297-1.85-.296-1.533-.194-3.75.173-7.739.66-7.178 1.025-8.452 1.992-7.866.667.404 5.506 10.287 7.096 15.062.655 1.968 1.442 3.496 1.75 3.396.307-.1 1.263-2.065 2.125-4.367 1.95-5.204 5.806-12.785 6.443-13.484.846-.928 1.353.51 2.623 8.263 1.2 7.335 1.207 7.366.242 8.41-.348.335-1.083.175-1.561.175-.99 0-1.793.825-1.793 1.6 0 .776.804 1.4 1.793 1.4h9.421c.99 0 1.786-.624 1.786-1.4 0-.775-.796-1.6-1.786-1.6-1.58.18-1.505-.3-1.995-1.479-1.505-4.478-3.776-16.99-3.236-19.099.593-1.266.998-1.421 2.374-1.421.99 0 1.643-.825 1.643-1.6 0-.776-.654-1.4-1.643-1.4h-9.286c-.989 0-2.071.133-2.071 1.4 0 1.51 1.444 1.25 2.071 2 .931.89.262 1.241-.12 2.154-1.71 3.178-2.983 6.975-4.665 9.994-.505.895-1.057 1.586-1.518 1.566-.717-.073-3.103-6.303-4.66-9.33-.586-1.38-.973-1.808-1.329-2.656-.99-1.636-.032-2.038 1.224-2.303.58-.23 1.012-.692.997-1.426-.027-1.296-.982-1.4-1.971-1.4z" fill="#FA4934"/>
        <path d="M32 992.362a28 28 0 0 0-28 28 28 28 0 0 0 .021.586A28 28 0 0 1 32 993.362a28 28 0 0 1 27.979 27.414 28 28 0 0 0 .021-.414 28 28 0 0 0-28-28z" opacity=".1" fill="#F9F5D7"/>
        <path d="M16.643 1006.362c-.99 0-1.643.625-1.643 1.4 0 .173.037.345.098.512.213-.532.775-.912 1.545-.912h9.386c.845 0 1.66.082 1.897.912a1.53 1.53 0 0 0 .074-.511c-.027-1.296-.981-1.4-1.97-1.4h-9.387zm21.43 0c-.99 0-2.073.135-2.073 1.4 0 .203.028.369.074.514.252-.81 1.156-.914 1.998-.914h9.285c.77 0 1.332.38 1.545.912.061-.167.098-.34.098-.511 0-.776-.653-1.4-1.643-1.4h-9.285zm-12.577 4.567c-.2.336-.167.818.283 1.562.357.849.743 1.275 1.33 2.656 1.556 3.026 3.941 9.257 4.659 9.33.46.02 1.013-.671 1.517-1.566 1.683-3.018 2.955-6.816 4.666-9.994.328-.785.863-1.156.416-1.81-.124.233-.279.482-.416.81-1.71 3.178-2.983 6.976-4.666 9.994-.504.895-1.057 1.587-1.517 1.566-.718-.073-3.103-6.304-4.659-9.33-.587-1.38-.973-1.807-1.33-2.656a3.7 3.7 0 0 1-.283-.562zm-6.414.529c-.442 5.263-2.232 17.688-2.807 18.74-.749 1.028-1.236 1.164-2.49 1.164-.99 0-1.785.824-1.785 1.6 0 .172.045.336.117.488a1.849 1.849 0 0 1 1.668-1.088c1.254 0 1.741-.136 2.49-1.164.594-1.087 2.5-14.4 2.86-19.314a1.265 1.265 0 0 0-.053-.426zm25.838.79c-.22 3.045 1.878 14.411 3.299 18.636.49 1.178.416 1.658 1.996 1.478.77 0 1.416.501 1.668 1.088a1.14 1.14 0 0 0 .117-.488c0-.776-.796-1.6-1.785-1.6-1.58.18-1.507-.3-1.996-1.478-1.297-3.856-3.151-13.637-3.3-17.635zm-25.166 15.196c-.04 1.298.004 2.28.156 3.069.58 1.574 1.146 2.12 3.297 1.85.77 0 1.422.5 1.676 1.087.072-.152.117-.316.117-.488 0-.776-.804-1.6-1.793-1.6-2.15.272-2.716-.275-3.297-1.85-.108-.562-.148-1.267-.156-2.068zm23.264 2.557c-.077.545-.303.794-.664 1.185-.35.335-1.083.176-1.561.176-.99 0-1.793.824-1.793 1.6 0 .172.045.336.117.488a1.863 1.863 0 0 1 1.676-1.088c.478 0 1.212.16 1.56-.176.526-.568.751-.875.665-2.185z" fill="#F9F5D7" opacity=".2"/>
    </g>
</svg>
