<svg xmlns="http://www.w3.org/2000/svg" width="64" height="64" version="1">
    <path d="M5.133 23.486l-.214.371c-.316.559-.178 1.332.308 1.75l4.437 3.894c.046-.613.11-1.22.2-1.824l-4.637-4.07c-.039-.036-.059-.084-.094-.122zm53.734 0c-.035.038-.055.088-.094.121l-4.637 4.07c.09.605.154 1.212.2 1.825l4.437-3.895c.486-.418.624-1.19.308-1.75l-.214-.372zM9.645 32.002c-.016.332-.043.662-.043 1 0 .508.026 1.005.063 1.5l.2-.176c-.116-.766-.18-1.54-.22-2.324zm44.71 0a23.72 23.72 0 0 1-.22 2.324l.2.176c.037-.495.063-.992.063-1.5 0-.338-.027-.668-.043-1zM5.133 40.518c-.394.434-.504 1.114-.214 1.628l5.601 9.71c.325.552 1.056.823 1.66.614L18 50.5a22.549 22.549 0 0 0 5.863 3.371l1.18 5.992c.12.628.717 1.128 1.356 1.137h11.203c.638-.008 1.235-.51 1.355-1.137l1.18-5.992a22.58 22.58 0 0 0 5.86-3.372l5.82 1.969c.604.208 1.335-.062 1.66-.613l5.602-9.711c.29-.514.18-1.195-.215-1.629l-5.387 9.34c-.325.55-1.056.821-1.66.613l-5.822-1.97a22.542 22.542 0 0 1-5.863 3.367l-1.18 5.996c-.118.626-.716 1.128-1.354 1.136H26.395a1.443 1.443 0 0 1-1.355-1.137l-1.178-5.996a22.539 22.539 0 0 1-5.864-3.368l-5.82 1.968c-.605.21-1.336-.062-1.66-.612l-5.387-9.34z" opacity=".2"/>
    <path d="M26.268 4.002a1.44 1.44 0 0 0-1.225 1.137l-1.18 5.994A22.534 22.534 0 0 0 18 14.502l-5.818-1.97c-.605-.208-1.338.062-1.663.613l-5.6 9.713c-.315.558-.18 1.331.307 1.75l4.637 4.068a22.332 22.332 0 0 0-.262 3.325c0 1.136.099 2.234.262 3.325l-4.637 4.069c-.487.418-.622 1.191-.307 1.75l5.6 9.712c.325.55 1.058.82 1.663.612L18 49.501a22.54 22.54 0 0 0 5.863 3.368l1.18 5.994c.12.627.718 1.129 1.357 1.137h11.2c.638-.008 1.236-.51 1.356-1.137l1.181-5.994A22.535 22.535 0 0 0 46 49.501l5.819 1.968c.604.209 1.338-.061 1.662-.612l5.6-9.712c.316-.559.18-1.332-.306-1.75l-4.637-4.07a22.33 22.33 0 0 0 .262-3.324c0-1.136-.1-2.234-.262-3.325l4.637-4.068c.487-.419.622-1.192.306-1.75l-5.6-9.713c-.324-.55-1.058-.82-1.662-.612L45.999 14.5a22.54 22.54 0 0 0-5.861-3.37l-1.182-5.993A1.445 1.445 0 0 0 37.6 4.001H26.4a2.813 2.813 0 0 0-.13 0z" fill="#48B9C7"/>
    <path d="M32 21c-6.627 0-12 5.373-12 12v16.903c1.219.768 2.51 1.44 3.864 1.968l1.18 5.992c.093.493.484.895.956 1.055V43.379A11.926 11.926 0 0 0 32 45c6.627 0 12-5.372 12-12 0-6.627-5.373-12-12-12zm0 6a6 6 0 0 1 6 6 6 6 0 0 1-6 6 6 6 0 0 1-6-6 6 6 0 0 1 6-6z" opacity=".2"/>
    <path d="M32 20c-6.627 0-12 5.373-12 12v18.902c1.219.769 2.51 1.44 3.864 1.969l1.18 5.992c.093.493.484.895.956 1.055V42.379A11.926 11.926 0 0 0 32 44c6.627 0 12-5.372 12-12 0-6.627-5.373-12-12-12zm0 6a6 6 0 0 1 6 6 6 6 0 0 1-6 6 6 6 0 0 1-6-6 6 6 0 0 1 6-6z" fill="#F9F5D7"/>
    <path d="M26.27 4l-.002.002a1.439 1.439 0 0 0-1.225 1.137l-1.182 5.994A22.53 22.53 0 0 0 18 14.502l-5.818-1.969c-.605-.208-1.338.06-1.662.612l-5.6 9.712c-.202.358-.202.796-.06 1.18.022-.06.028-.124.06-.18l5.6-9.712c.324-.551 1.057-.82 1.662-.612L18 15.502a22.53 22.53 0 0 1 5.861-3.37l1.182-5.993a1.439 1.439 0 0 1 1.225-1.137L26.27 5H37.6c.638.009 1.237.511 1.357 1.139l1.18 5.992c2.12.83 4.113 1.97 5.863 3.371l5.818-1.969c.605-.208 1.338.06 1.662.612l5.6 9.712c.032.056.038.12.06.18.142-.384.142-.822-.06-1.18l-5.6-9.712c-.324-.551-1.057-.82-1.662-.612L46 14.502a22.552 22.552 0 0 0-5.863-3.371l-1.18-5.992c-.12-.628-.719-1.13-1.357-1.139H26.4a2.798 2.798 0 0 0-.13 0zM9.756 29.582a21.21 21.21 0 0 0-.156 2.42c0 .169.017.33.021.498.025-.958.103-1.896.242-2.824l-.107-.094zm44.488 0l-.107.094c.139.928.217 1.866.242 2.824.004-.167.02-.33.02-.498 0-.824-.064-1.625-.155-2.42zM9.756 35.42l-4.53 3.975c-.437.376-.57 1.034-.367 1.57.08-.216.192-.42.368-.57l4.636-4.069c-.045-.3-.073-.604-.107-.906zm44.488 0c-.034.302-.062.606-.107.906l4.636 4.069c.176.15.288.354.368.57.203-.536.07-1.194-.368-1.57l-4.529-3.975z" fill="#F9F5D7" opacity=".2"/>
</svg>
