<svg xmlns="http://www.w3.org/2000/svg" width="64" height="64">
    <rect width="56" height="56" x="4" y="5" rx="2.8" ry="2.8" opacity=".2"/>
    <rect width="56" height="56" x="4" y="4" rx="2.8" ry="2.8" fill="#8F3F71"/>
    <path d="M37.668 10.615l-2.979 4.512A13 13 0 0 0 33 15a13 13 0 0 0-4.982.996l-4.038-3.58 1.086 5.307a13 13 0 0 0-2.828 3.029A44 44 0 0 0 7 18a44 44 0 0 0-3 .15v2.075A43 43 0 0 1 8 20a43 43 0 0 1 42.861 40h.016a44 44 0 0 0-8.076-23.51 13 13 0 0 0 2.172-3.455l5.45-.328-4.552-3.006A13 13 0 0 0 46 28a13 13 0 0 0-.975-4.926l3.598-4.054-5.314 1.087a13 13 0 0 0-5.317-4.1l-.324-5.392zM33 17a11 11 0 0 1 11 11 11 11 0 0 1-2.45 6.893A44 44 0 0 0 24.114 21.54 11 11 0 0 1 33 17z" opacity=".2"/>
    <path d="M37.668 9.615l-2.979 4.512A13 13 0 0 0 33 14a13 13 0 0 0-4.982.996l-4.038-3.58 1.086 5.307a13 13 0 0 0-2.828 3.029A44 44 0 0 0 7 17a44 44 0 0 0-3 .15v2.075A43 43 0 0 1 8 19a43 43 0 0 1 42.92 41h.029a44 44 0 0 0-8.148-24.51 13 13 0 0 0 2.172-3.455l5.451-.328-4.553-3.006A13 13 0 0 0 46 27a13 13 0 0 0-.975-4.926l3.598-4.054-5.314 1.087a13 13 0 0 0-5.317-4.099zM33 16a11 11 0 0 1 11 11 11 11 0 0 1-2.449 6.893 44 44 0 0 0-17.438-13.352A11 11 0 0 1 33 16z" fill="#F9F5D7"/>
    <path d="M6.8 4C5.25 4 4 5.25 4 6.8v1C4 6.25 5.25 5 6.8 5H57.2A2.796 2.796 0 0 1 60 7.8v-1C60 5.25 58.75 4 57.199 4H6.801z" fill="#F9F5D7" opacity=".1"/>
</svg>
