<svg xmlns="http://www.w3.org/2000/svg" width="64" height="64">
    <path d="M32.156 5c-.98.01-1.924.067-2.768.192-3.116.524-6.195 1.715-8.85 3.06C12.593 12.343 3.84 22.585 4.001 30.304l.015-.013c.005.271.056.592.15.96.253.99.818 2.31 1.648 3.87 1.66 3.122 4.375 7.199 7.752 11.493 5.17 6.572 10.393 11.747 13.317 13.394l.004.001c2.053 1.35 3.835.993 4.461.798 2.07-.375 6.675-3.361 12.314-8.173 8.125-6.933 15.343-15.053 16.217-18.229l.031.053c1.355-12.83-13.196-23.472-15.06-24.842A19.69 19.69 0 0 0 32.155 5z" opacity=".2"/>
    <path d="M32.156 4c-.98.01-1.924.067-2.768.192-3.116.524-6.195 1.715-8.85 3.06-7.944 4.09-16.698 14.332-16.536 22.052l.015-.013c.005.27.056.592.15.96.253.99.818 2.31 1.648 3.87 1.66 3.122 4.375 7.199 7.752 11.493 5.17 6.572 10.393 11.747 13.317 13.394l.004.001c2.053 1.35 3.835.993 4.461.798 2.07-.375 6.675-3.361 12.314-8.173 8.125-6.933 15.343-15.053 16.217-18.229l.031.053c1.355-12.83-13.196-23.472-15.06-24.842A19.69 19.69 0 0 0 32.155 4z" fill="#8F3F71"/>
    <path d="M4.889 28.276a19.791 3.453 51.52 0 0 8.68 17.338 19.791 3.453 51.52 1 0 6.117-3.396A19.791 3.453 51.52 0 0 4.889 28.276z" opacity=".15" fill="#F9F5D7"/>
    <path d="M59.08 32.129a3.287 20.08 47.182 0 0-28.842 26.51A3.287 20.08 47.182 1 0 59.9 33.328a3.287 20.08 47.182 0 0-.82-1.2zM32.583 4.008A20 19.94 0 0 0 12 23.94a20 19.94 0 1 0 40 0A20 19.94 0 0 0 32.583 4.01z" opacity=".15" fill="#F9F5D7"/>
    <path d="M32.82 9L48 26.314l-3.565 3.296-5.461-6.228L24.247 37 20 32.156l14.727-13.618-5.472-6.241z" font-size="6.74" font-family="Monospace" letter-spacing="0" word-spacing="0" opacity=".2"/>
    <path d="M32.82 8L48 25.314l-3.565 3.296-5.461-6.228L24.247 36 20 31.156l14.727-13.618-5.472-6.241z" font-size="6.74" font-family="Monospace" letter-spacing="0" word-spacing="0" fill="#F9F5D7"/>
    <path d="M10.482 33.02l3.952 4.9-.447 5.22 6.94 8.603-.109 1.264L9.926 39.504z" font-size="2.854" font-family="Monospace" letter-spacing="0" word-spacing="0" fill="#F9F5D7"/>
    <path d="M52.624 41.292q-1.575 1.636-3.229 3.245-1.654 1.61-3.377 3.183-3.895 3.556-5.96 4.854-2.065 1.294-1.702-.046.366-1.355 2.895-4.25 2.528-2.893 6.559-6.573 1.556-1.42 2.947-2.613 1.403-1.2 2.61-2.148l-.313 1.16q-1.234.925-2.493 1.976-1.249 1.042-2.544 2.224-2.401 2.193-3.838 3.87-1.424 1.662-1.667 2.56-.24.889.881.229 1.123-.66 3.43-2.767.627-.572 1.167-1.085.55-.526.995-.977l.294-1.088-2.454 2.24.262-.968 6.266-5.721z" font-size="2.208" font-family="Monospace" letter-spacing="0" word-spacing="0" fill="#F9F5D7"/>
    <path d="M32.156 4c-.98.01-1.925.066-2.77.191-3.115.524-6.191 1.717-8.847 3.063-7.943 4.09-16.697 14.331-16.535 22.05l.012-.015c0 .025.01.061.013.09.506-7.593 8.88-17.196 16.51-21.125 2.656-1.346 5.732-2.54 8.848-3.063.844-.125 1.788-.18 2.77-.191 4.83 0 9.258 1.736 12.695 4.617 1.754 1.29 14.697 10.793 15.093 22.6.338-12.267-13.29-22.274-15.093-23.6A19.695 19.695 0 0 0 32.156 4z" opacity=".1" fill="#F9F5D7"/>
</svg>
