<svg xmlns="http://www.w3.org/2000/svg" width="64" height="64" version="1">
    <path d="M4 12.002L6 54h52l2-41.998-.102.125L58 52H6L4.102 12.127 4 12.003z" opacity=".2"/>
    <path d="M31.999 11.002l-12 20L4 11.001 6 53h51.997l2-41.998-15.999 20z" fill="#F9BD2E"/>
    <path fill="#FA4934" d="M47.994 39l3-4 3 4-3 4zM28.001 38.607l4-6 4.001 6-4 6zM10.008 39.008l3-4 3 4-3 4z"/>
    <path d="M4 11.002l.05 1.062L20 32.002l11.998-20 12 20 15.95-19.938.05-1.062-16 20-12-20-11.998 20-16-20z" fill="#F9F5D7" opacity=".2"/>
</svg>
