<svg xmlns="http://www.w3.org/2000/svg" width="64" height="64">
    <path d="M45.145 26.714c-1.213 5.892-3.832 11.17-7.503 15.165-8.89 8.358-18.26 10.788-27.78 12.316C5.205 54.955 2 55.625 2 57.23 2 59.77 12.8 61 32 61c24.274 0 24.335-14.244 24.286-27.084v-7.202H45.145z" opacity=".2"/>
    <path d="M45.145 25.714c-1.213 5.892-3.832 11.17-7.503 15.165-8.89 8.358-18.26 10.788-27.78 12.316C5.205 53.955 2 54.625 2 56.23 2 58.77 12.8 60 32 60c24.274 0 24.335-14.244 24.286-27.084v-7.202H45.145z" fill="#3A393A"/>
    <path d="M59 5a3 3 0 0 0-3 3v10.08A8 8 0 0 0 52 17a8 8 0 0 0-3 .588V13a3 3 0 0 0 3-3 3 3 0 0 0-3-3 3 3 0 0 0-3 3v9.719A8 8 0 0 0 44 25a8 8 0 0 0 8 8 8 8 0 0 0 8-8 8 8 0 0 0-1-3.854V11a3 3 0 0 0 3-3 3 3 0 0 0-3-3z" opacity=".2"/>
    <path d="M49 6a3 3 0 0 0-3 3v15h3V12a3 3 0 0 0 3-3 3 3 0 0 0-3-3zM59 4a3 3 0 0 0-3 3v15h3V10a3 3 0 0 0 3-3 3 3 0 0 0-3-3z" fill="#504945"/>
    <circle cx="22" cy="35" r="20" opacity=".2"/>
    <circle cx="22" cy="34" r="20" fill="#A04A73"/>
    <path d="M23.218 35c-.368-.638.678-.81 1.06-.612 1.035.54.835 1.997.164 2.732-1.199 1.316-3.298.946-4.404-.284-1.624-1.804-1.065-4.62.732-6.076 2.394-1.942 5.948-1.188 7.749 1.18 2.266 2.98 1.312 7.28-1.629 9.42-3.562 2.594-8.613 1.44-11.093-2.075-2.922-4.143-1.566-9.949 2.525-12.766 4.723-3.252 11.284-1.694 14.437 2.973 3.583 5.302 1.822 12.62-3.42 16.11-5.882 3.913-13.958 1.95-17.782-3.87-4.246-6.46-2.079-15.294 4.316-19.453" opacity=".2" fill="none" stroke="#151819" stroke-width="2.716"/>
    <path d="M23.218 34c-.368-.638.678-.81 1.06-.612 1.035.54.835 1.997.164 2.732-1.199 1.316-3.298.946-4.404-.284-1.624-1.804-1.065-4.62.732-6.076 2.394-1.942 5.948-1.188 7.749 1.18 2.266 2.98 1.312 7.28-1.629 9.42-3.562 2.594-8.613 1.44-11.093-2.075-2.922-4.143-1.566-9.949 2.525-12.766 4.723-3.252 11.284-1.694 14.437 2.973 3.583 5.302 1.822 12.62-3.42 16.11-5.882 3.913-13.958 1.95-17.782-3.87-4.246-6.46-2.079-15.294 4.316-19.453" fill="none" stroke="#F9F5D7" stroke-width="2.716"/>
    <circle cx="52" cy="24" r="8" fill="#504945"/>
    <path d="M49.5 21a2.5 2.5 0 0 0-2.5 2.5 2.5 2.5 0 0 0 .08.63 2.5 2.5 0 0 1 2.42-1.88 2.5 2.5 0 0 1 2.42 1.87 2.5 2.5 0 0 0 .08-.62 2.5 2.5 0 0 0-2.5-2.5z" opacity=".3"/>
    <path d="M22 14A20 20 0 0 0 2 34a20 20 0 0 0 .018.494A20 20 0 0 1 22 15a20 20 0 0 1 19.975 19.49A20 20 0 0 0 42 34a20 20 0 0 0-20-20z" opacity=".2" fill="#F9F5D7"/>
    <path d="M59 4a3 3 0 0 0-3 3v1a3 3 0 0 1 3-3 3 3 0 0 1 2.957 2.514A3 3 0 0 0 62 7a3 3 0 0 0-3-3zM49 6a3 3 0 0 0-3 3v1a3 3 0 0 1 3-3 3 3 0 0 1 2.957 2.514A3 3 0 0 0 52 9a3 3 0 0 0-3-3zm3 10a8 8 0 0 0-3 .588v1A8 8 0 0 1 52 17a8 8 0 0 1 4 1.08v-1A8 8 0 0 0 52 16zm-6 2.719A8 8 0 0 0 44 24a8 8 0 0 0 .025.514A8 8 0 0 1 46 19.719v-1zm13 1.427v1a8 8 0 0 1 .979 3.436A8 8 0 0 0 60 24a8 8 0 0 0-1-3.854z" opacity=".1" fill="#F9F5D7"/>
    <path d="M55.5 21a2.5 2.5 0 0 0-2.5 2.5 2.5 2.5 0 0 0 .08.63 2.5 2.5 0 0 1 2.42-1.88 2.5 2.5 0 0 1 2.42 1.87 2.5 2.5 0 0 0 .08-.62 2.5 2.5 0 0 0-2.5-2.5z" opacity=".3"/>
</svg>
