<svg xmlns="http://www.w3.org/2000/svg" width="64" height="64" version="1">
    <rect width="52" height="52" x="-58" y="-58" rx="26" ry="26" transform="matrix(0 -1 -1 0 0 0)" fill="#48B9C7"/>
    <path d="M32 6C17.596 6 6 17.596 6 32c0 .11.012.219.018.328C6.373 18.238 17.822 7 32 7c14.178 0 25.627 11.238 25.982 25.328.006-.11.018-.217.018-.328C58 17.596 46.404 6 32 6z" opacity=".2" fill="#F9F5D7"/>
    <path d="M6.018 32.672c-.006.11-.018.217-.018.328 0 14.404 11.596 26 26 26s26-11.596 26-26c0-.11-.012-.219-.018-.328C57.627 46.762 46.18 58 32 58 17.821 58 6.373 46.762 6.018 32.672z" opacity=".2"/>
    <path d="M32.002 15c-1.682-.018-3.353.23-4.975.675C19.474 17.7 13.946 25.177 14.061 33H10C12.07 36.045 16 42 16 42s6-9 6-9.002h-3.918c-.014-3.276 1.215-6.571 3.397-9.017C25.578 19.05 33 16.999 38.71 21.187c1.81 2.369 5.758-.32 3.72-2.662-3-2.337-6.641-3.518-10.429-3.526zM48 24s-6 8.998-6 9h3.918c.014 3.276-1.215 6.573-3.397 9.019-4.099 4.928-11.522 6.98-17.232 2.793-1.81-2.37-5.758.319-3.72 2.662 3 2.336 6.641 3.517 10.429 3.525 1.682.018 3.353-.231 4.975-.676 7.553-2.026 13.081-9.502 12.966-17.326H54C51.93 29.954 48 24 48 24z" opacity=".2"/>
    <path d="M32.002 14c-1.682-.017-3.353.232-4.975.676-7.553 2.026-13.081 9.502-12.966 17.326H10C12.07 35.046 16 41 16 41l6-9.002h-3.918c-.014-3.277 1.215-6.572 3.397-9.018C25.578 18.052 33 16 38.71 20.187c1.81 2.37 5.758-.319 3.72-2.662-3-2.336-6.641-3.517-10.429-3.525zM48 23l-6 9h3.918c.014 3.277-1.215 6.574-3.397 9.02C38.422 45.948 31 48 25.29 43.812c-1.81-2.369-5.758.32-3.72 2.663 3 2.336 6.641 3.517 10.429 3.525 1.682.017 3.353-.232 4.975-.676 7.553-2.026 13.081-9.502 12.966-17.326H54C51.93 28.954 48 23 48 23z" fill="#73C48F"/>
</svg>
