<svg xmlns="http://www.w3.org/2000/svg" width="64" height="64" version="1">
    <rect width="50" height="56" x="-57" y="5" rx="2.778" ry="2.8" transform="scale(-1 1)" opacity=".2"/>
    <rect width="50" height="56" x="-57" y="4" rx="2.778" ry="2.8" transform="scale(-1 1)" fill="#F9F5D7"/>
    <path d="M51 10H13v19h38z" fill="#066678"/>
    <ellipse cx="32" cy="29" rx="7" ry="7" fill="#FD8019"/>
    <path d="M32 22a7 7 0 0 0-7 7 7 7 0 0 0 .023.541A7 7 0 0 1 32 23a7 7 0 0 1 6.977 6.459A7 7 0 0 0 39 29a7 7 0 0 0-7-7z" opacity=".2" fill="#F9F5D7"/>
    <path d="M13 29v19h38V29H13z" fill="#448588"/>
    <path d="M25 30s.908 1.803 1 3.107c.082 1.168-1.026 1.976-1 3.149.034 1.496 2.883 2.037 3 3.525.09 1.15-2.044 2.435-2 3.59.06 1.565 2.392 2.07 3.148 3.225.199.303.48.887.715 1.404h5.662c.264-.336.491-.699.475-1.03-.084-1.725-.963-1.69-1-3.42-.022-1.039.824-.772 1-1.782.196-1.124-1.213-2.242-1-3.36.302-1.584 3.852-1.416 4-3.043.103-1.131-1.062-1.645-1-2.783.065-1.2 1-2.582 1-2.582H25z" opacity=".2"/>
    <path d="M25 29s.908 1.803 1 3.108c.082 1.167-1.026 1.976-1 3.148.034 1.497 2.883 2.037 3 3.526.09 1.149-2.044 2.435-2 3.59.06 1.564 2.392 2.068 3.148 3.223.404.618 1.156 2.405 1.156 2.405h4.24s1.498-1.164 1.456-2.029c-.084-1.725-.963-1.691-1-3.42-.022-1.04.824-.773 1-1.784.196-1.124-1.213-2.241-1-3.359.302-1.584 3.852-1.417 4-3.044.103-1.131-1.062-1.644-1-2.781.065-1.2 1-2.583 1-2.583z" fill="#FECE4F"/>
    <path d="M16.041 16.12s1.032-2.43 2.295-2.69c1.059-.216 3.08 1.189 3.08 1.189s1.89-1.972 3.246-1.563c.952.287 1.903 2.313 1.903 2.313s2.91.081 3.359 1.438c.434 1.31-1.082 2.975-2.295 3.314-1.191.332-2.855-.626-2.855-.626s-1.328 1.415-2.295 1.5c-1.093.098-3.191-1.562-3.191-1.562s-1.54 1.641-2.911 1.313c-1.237-.296-2.747-2.056-2.295-3.376.244-.714 1.959-1.25 1.959-1.25z" opacity=".2"/>
    <path d="M16.041 15.12s1.032-2.43 2.295-2.69c1.059-.216 3.08 1.189 3.08 1.189s1.89-1.972 3.246-1.563c.952.287 1.903 2.313 1.903 2.313s2.91.081 3.359 1.438c.434 1.31-1.082 2.975-2.295 3.314-1.191.332-2.855-.626-2.855-.626s-1.328 1.415-2.295 1.5c-1.093.098-3.191-1.562-3.191-1.562s-1.54 1.641-2.911 1.313c-1.237-.296-2.747-2.056-2.295-3.376.244-.714 1.959-1.25 1.959-1.25z" fill="#F9F5D7"/>
    <path d="M40.314 14.07c-.968.28-1.915 2.349-1.915 2.349s-2.532-.355-3.086.533c-.744 1.194-.086 3.432 1.17 4.058.886.441 2.767-1.067 2.767-1.067s2.047 2.34 3.299 2.028c1.08-.268 1.809-2.055 1.809-2.055s1.87 1.766 3.086 1.174c1.773-.864 2.069-4.377.691-5.793-.823-.846-3.032.374-3.032.374s-3.172-2.071-4.789-1.602z" opacity=".2"/>
    <path d="M40.314 13.07c-.968.28-1.915 2.349-1.915 2.349s-2.532-.355-3.086.533c-.744 1.194-.086 3.432 1.17 4.058.886.441 2.767-1.067 2.767-1.067s2.047 2.34 3.299 2.028c1.08-.268 1.809-2.055 1.809-2.055s1.87 1.766 3.086 1.174c1.773-.864 2.069-4.377.691-5.793-.823-.846-3.032.374-3.032.374s-3.172-2.071-4.789-1.602z" fill="#F9F5D7"/>
    <path d="M13 29v1h38v-1H13z" fill="#F9F5D7" opacity=".1"/>
    <path d="M9.777 4A2.783 2.783 0 0 0 7 6.8v1C7 6.25 8.238 5 9.777 5h44.446A2.783 2.783 0 0 1 57 7.8v-1C57 5.25 55.762 4 54.223 4H9.777z" fill="#F9F5D7" opacity=".2"/>
</svg>
