<svg xmlns="http://www.w3.org/2000/svg" width="64" height="64">
    <circle cx="32" cy="33" r="28" opacity=".2"/>
    <circle cx="32" cy="32" r="28" fill="#066678"/>
    <path d="M33.98 16.005c-2.253-.07-4.697.609-7.65 1.92 3.13 0 4.724-.3 7.5 2.519 1.416 1.439 1.239 3.597-.12 4.976l-.01.03-18.14 20.62c-.708.72-.765 1.919-.056 2.578l.826.841c.708.72 1.83.66 2.538-.06l18.2-20.685c.46.348.984.535 1.602.632 1.122.12 1.358-.179 2.184.66a.659.659 0 0 1 0 .9.585.585 0 0 0 0 .838l1.947 2.04a1.13 1.13 0 0 0 1.654 0l4.19-4.258a1.17 1.17 0 0 0 0-1.677l-2.065-2.1a.564.564 0 0 0-.826 0 .564.564 0 0 1-.825 0c-.768-.84-.474-1.08-.651-2.219a3.728 3.728 0 0 0-1.003-1.977l-2.125-2.158c-1.18-1.2-1.773-1.8-3.249-2.459a9.717 9.717 0 0 0-3.92-.961z" opacity=".2"/>
    <path d="M33.98 15.005c-2.253-.07-4.697.609-7.65 1.92 3.13 0 4.724-.3 7.5 2.519 1.416 1.439 1.239 3.597-.12 4.976l-.01.03-18.14 20.62c-.708.72-.765 1.919-.056 2.578l.826.841c.708.72 1.83.66 2.538-.06l18.2-20.685c.46.348.984.535 1.602.632 1.122.12 1.358-.179 2.184.66a.659.659 0 0 1 0 .9.585.585 0 0 0 0 .838l1.947 2.04a1.13 1.13 0 0 0 1.654 0l4.19-4.258a1.17 1.17 0 0 0 0-1.677l-2.065-2.1a.564.564 0 0 0-.826 0 .564.564 0 0 1-.825 0c-.768-.84-.474-1.08-.651-2.219a3.728 3.728 0 0 0-1.003-1.977l-2.125-2.158c-1.18-1.2-1.773-1.8-3.249-2.459a9.717 9.717 0 0 0-3.92-.961z" fill="#F9F5D7"/>
    <path d="M32 4A28 28 0 0 0 4 32a28 28 0 0 0 .018.492A28 28 0 0 1 32 5a28 28 0 0 1 27.975 27.492A28 28 0 0 0 60 32 28 28 0 0 0 32 4z" opacity=".1" fill="#F9F5D7"/>
</svg>
