<svg xmlns="http://www.w3.org/2000/svg" width="64" height="64" version="1">
    <path d="M60 55.222V10.778A2.783 2.783 0 0 0 57.2 8H6.8A2.783 2.783 0 0 0 4 10.778v44.444A2.783 2.783 0 0 0 6.8 58h50.4c1.551 0 2.8-1.239 2.8-2.778z" opacity=".2"/>
    <path d="M60 54.222V9.778A2.783 2.783 0 0 0 57.2 7H6.8A2.783 2.783 0 0 0 4 9.778v44.444A2.783 2.783 0 0 0 6.8 57h50.4c1.551 0 2.8-1.239 2.8-2.778z" fill="#066678"/>
    <path d="M20 20.5L46 28 32 46.5z" fill="none" stroke="#3A393A" stroke-width="3" stroke-opacity=".987"/>
    <path d="M12.857 13A2.84 2.84 0 0 0 10 15.834v11.332A2.84 2.84 0 0 0 12.857 30h14.286A2.84 2.84 0 0 0 30 27.166V15.834A2.84 2.84 0 0 0 27.143 13zm26.573 9C38.084 22 37 23.04 37 24.332v9.336C37 34.961 38.084 36 39.43 36h12.14c1.346 0 2.43-1.04 2.43-2.332v-9.336C54 23.039 52.916 22 51.57 22zM26.998 42C25.89 42 25 42.818 25 43.834v7.332c0 1.016.89 1.834 1.998 1.834h10.004C38.11 53 39 52.182 39 51.166v-7.332C39 42.818 38.11 42 37.002 42z" opacity=".2"/>
    <path d="M12.857 12A2.84 2.84 0 0 0 10 14.834v11.332A2.84 2.84 0 0 0 12.857 29h14.286A2.84 2.84 0 0 0 30 26.166V14.834A2.84 2.84 0 0 0 27.143 12H12.857zm26.573 9C38.084 21 37 22.04 37 23.332v9.336C37 33.961 38.084 35 39.43 35h12.14c1.346 0 2.43-1.04 2.43-2.332v-9.336C54 22.039 52.916 21 51.57 21H39.43zM26.998 41C25.89 41 25 41.818 25 42.834v7.332c0 1.016.89 1.834 1.998 1.834h10.004C38.11 52 39 51.182 39 50.166v-7.332C39 41.818 38.11 41 37.002 41H26.998z" fill="#F9F5D7"/>
    <path d="M6.8 7A2.783 2.783 0 0 0 4 9.777v1A2.783 2.783 0 0 1 6.8 8h50.4c1.55 0 2.8 1.238 2.8 2.777v-1A2.783 2.783 0 0 0 57.2 7H6.8z" fill="#F9F5D7" opacity=".1"/>
</svg>
