<svg xmlns="http://www.w3.org/2000/svg" width="64" height="64" version="1">
    <path d="M4.249 18.86A18.701 18.701 0 0 0 4 21.8v22.4C4 53.507 11.493 61 20.8 61h22.4C52.507 61 60 53.507 60 44.2V21.8c0-.957-.097-2.028-.249-2.94z" opacity=".2"/>
    <path d="M4.249 17.86A18.701 18.701 0 0 0 4 20.8v22.4C4 52.507 11.493 60 20.8 60h22.4C52.507 60 60 52.507 60 43.2V20.8c0-.957-.097-2.028-.249-2.94z" fill="#F9F5D7"/>
    <path d="M20.8 4C12.45 4 5.577 10.038 4.249 18H59.75c-1.328-7.962-8.2-14-16.551-14z" fill="#D55C0D"/>
    <path d="M17.903 25l.46 11.608c.03.849.17 1.542.416 2.08.246.537.69.936 1.336 1.19.646.255 2.39.382 3.634.382.492 0 .932-.044 1.316-.129.4-.085.777-.274 1.13-.571.369-.311.753-.792 1.153-1.443a6.553 6.553 0 0 0 2.029 1.781c.799.439 1.581.658 2.35.658.408 0 1.784-.092 2.142-.238l.36 9.03c.03.849.168 1.542.414 2.08.245.538.692.936 1.338 1.19.645.255 1.59.382 2.835.382h1.097c1.353 0 2.43-.1 3.23-.298.798-.212 1.398-.481 1.797-.806.4-.326.66-.671.784-1.04.123-.367.185-.706.185-1.018 0-1.089-.485-2.166-1.454-3.227-.952-1.075-2.327-2.285-4.125-3.63.492-.31 1.02-.614 1.59-.912a38.383 38.383 0 0 1 2.189-1.061c.85-.391 1.965-.894 3.277-1.479.179.176.39.32.643.433.492.198 1.16.298 2.006.298 1.23 0 2.198-.319 2.905-.955.707-.651 1.06-1.634 1.06-2.95 0-.424-.06-.92-.183-1.486a17.418 17.418 0 0 0-.462-1.698 24.51 24.51 0 0 0-.553-1.57l-1.868.637c.338.807.638 1.618.899 2.439.277.82.414 1.493.414 2.017 0 .736-.198 1.223-.597 1.463-.4.24-.931.362-1.592.362-.6 0-1.051-.05-1.359-.15-.292-.099-.492-.232-.6-.401a1.266 1.266 0 0 1-.138-.574c0-.24.022-.539.068-.892.046-.368.101-.734.163-1.102.077-.368.137-.68.183-.935l-1.752-.296a28.415 28.415 0 0 1-.473 2.39l-.542-1.088c-1.444.69-2.7 1.328-3.867 1.943 0-.007-.005-.012-.005-.02 0-.396.06-.842.183-1.337l.324-1.294-1.73-.445a33.397 33.397 0 0 1-.645 2.376c-.185.566-.385.982-.6 1.25-.2.256-.451.42-.759.491a6.894 6.894 0 0 1-1.2.084h-.003c-.4 0-.762-.057-1.084-.17-.308-.127-.607-.381-.9-.763-.276-.382-.59-.97-.943-1.762-.385-.848-.754-1.515-1.108-1.996-.338-.495-.705-.84-1.105-1.039a2.858 2.858 0 0 0-1.36-.318c-.37 0-.785.091-1.246.275-.446.184-.922.517-1.429.998-.492.482-.985 1.175-1.476 2.08-.37.68-.676 1.217-.922 1.613-.23.382-.477.657-.738.826-.246.17-.584.256-1.015.256-.876 0-2.32-.071-2.735-.213-.4-.141-.66-.395-.783-.763-.108-.382-.178-.92-.209-1.612L19.791 25zm29.111 1.486a1.18 1.18 0 0 0-.828.318 1.013 1.013 0 0 0 0 1.487c.23.198.505.295.828.295.308 0 .571-.097.786-.295.23-.213.344-.46.344-.743s-.113-.531-.344-.744a1.08 1.08 0 0 0-.786-.318zm-1.567 2.335a1.18 1.18 0 0 0-.828.319 1.008 1.008 0 0 0 0 1.484c.23.197.506.297.828.297.308 0 .569-.1.784-.298.23-.212.346-.457.346-.74s-.116-.531-.346-.743a1.074 1.074 0 0 0-.784-.319zm3.137 0c-.323 0-.601.107-.832.319a1.01 1.01 0 0 0-.32.743c0 .283.105.528.32.74.231.198.509.298.832.298.307 0 .568-.1.783-.298.23-.212.347-.457.347-.74s-.116-.531-.347-.743a1.074 1.074 0 0 0-.783-.319zm-34.305 4.137l-1.683.786c.415.694.736 1.272.967 1.74.23.466.392.885.485 1.253.092.368.138.749.138 1.145 0 .622-.16 1.28-.482 1.973-.308.68-.885 1.332-1.73 1.954-.83.623-2.021 1.16-3.574 1.613l.668 1.612a10.266 10.266 0 0 0 1.615-.551 10.813 10.813 0 0 0 1.82-.978 8.27 8.27 0 0 0 1.683-1.443 6.39 6.39 0 0 0 1.245-1.908c.323-.722.485-1.53.485-2.421 0-.623-.13-1.343-.392-2.164-.246-.82-.661-1.69-1.245-2.61zm16.388 1.211c.354 0 .66.133.922.402.261.255.49.588.69.998.2.41.393.827.578 1.251.152.351.214.655.203.92l-.268.662c-.248.284-.605.435-1.088.435-.507 0-1.084-.183-1.73-.551-.645-.382-1.227-.978-1.75-1.784.492-.892.936-1.5 1.336-1.825.4-.325.77-.494 1.107-.508zm15.396 2.694c-.136.45-.286.814-.455 1.041a1.183 1.183 0 0 1-.713.508c-.292.071-.669.107-1.13.107a5.45 5.45 0 0 1-.824-.061c.977-.508 1.896-.994 3.122-1.595zm-4.965 2.54a1.8 1.8 0 0 0 .362.346c.205.132.422.226.648.301l-.282.132c-1.306.608-2.265 1.216-2.88 1.824-.169.156-.292.374-.369.657a3.47 3.47 0 0 0-.115.913c0 .127.183.333.552.616.369.283.838.629 1.406 1.04.569.41 1.14.884 1.708 1.422.83.764 1.376 1.387 1.637 1.868.277.48.414.885.414 1.21 0 .184-.046.367-.138.551-.077.17-.246.332-.507.488-.246.141-.637.262-1.175.361-.538.085-1.253.127-2.145.127h-1.167c-.876 0-1.524-.071-1.939-.213-.4-.141-.66-.395-.783-.763-.108-.382-.175-.919-.206-1.612l-.44-8.502c.2.143.32.177.573.271l1.542.78c.902-.517 2.018-1.13 3.304-1.817zM25.96 42.898l-1.198 1.315.668.553c-1.091.934-1.86 1.825-2.305 2.674-.43.835-.645 1.534-.645 2.1 0 1.146.374 1.996 1.127 2.548.753.537 1.7.806 2.838.806.784 0 1.436-.121 1.958-.362.523-.254.931-.573 1.223-.955.292-.396.5-.8.623-1.21.123-.41.183-.777.183-1.102 0-.835-.208-1.629-.623-2.379a9.29 9.29 0 0 0-1.637-2.12 19.404 19.404 0 0 0-2.212-1.868zm.575 2.717c.646.51 1.131.976 1.454 1.4.323.41.538.792.645 1.145.108.354.161.693.161 1.019 0 .594-.198 1.075-.598 1.443-.4.354-.984.53-1.752.53-.615 0-1.13-.147-1.545-.444-.4-.297-.6-.743-.6-1.337 0-.51.191-1.105.575-1.784.4-.68.953-1.335 1.66-1.972z" opacity=".1"/>
    <path d="M17.903 24l.46 11.608c.03.849.17 1.542.416 2.08.246.537.69.936 1.336 1.19.646.255 2.39.382 3.634.382.492 0 .932-.044 1.316-.129.4-.085.777-.274 1.13-.571.369-.311.753-.792 1.153-1.443a6.553 6.553 0 0 0 2.029 1.781c.799.439 1.581.658 2.35.658.408 0 1.784-.092 2.142-.238l.36 9.03c.03.849.168 1.542.414 2.08.245.538.692.936 1.338 1.19.645.255 1.59.382 2.835.382h1.097c1.353 0 2.43-.1 3.23-.298.798-.212 1.398-.481 1.797-.806.4-.326.66-.671.784-1.04.123-.367.185-.706.185-1.018 0-1.089-.485-2.166-1.454-3.227-.952-1.075-2.327-2.285-4.125-3.63.492-.31 1.02-.614 1.59-.912a38.383 38.383 0 0 1 2.189-1.061c.85-.391 1.965-.894 3.277-1.479.179.176.39.32.643.433.492.198 1.16.298 2.006.298 1.23 0 2.198-.319 2.905-.955.707-.651 1.06-1.634 1.06-2.95 0-.424-.06-.92-.183-1.486a17.418 17.418 0 0 0-.462-1.698 24.51 24.51 0 0 0-.553-1.57l-1.868.637c.338.807.638 1.618.899 2.439.277.82.414 1.493.414 2.017 0 .736-.198 1.223-.597 1.463-.4.24-.931.362-1.592.362-.6 0-1.051-.05-1.359-.15-.292-.099-.492-.232-.6-.401a1.266 1.266 0 0 1-.138-.574c0-.24.022-.539.068-.892.046-.368.101-.734.163-1.102.077-.368.137-.68.183-.935l-1.752-.296a28.415 28.415 0 0 1-.473 2.39l-.542-1.088c-1.444.69-2.7 1.328-3.867 1.943 0-.007-.005-.012-.005-.02 0-.396.06-.842.183-1.337l.324-1.294-1.73-.445a33.397 33.397 0 0 1-.645 2.376c-.185.566-.385.982-.6 1.25-.2.256-.451.42-.759.491a6.894 6.894 0 0 1-1.2.084h-.003c-.4 0-.762-.057-1.084-.17-.308-.127-.607-.381-.9-.763-.276-.382-.59-.97-.943-1.762-.385-.848-.754-1.515-1.108-1.996-.338-.495-.705-.84-1.105-1.039a2.858 2.858 0 0 0-1.36-.318c-.37 0-.785.091-1.246.275-.446.184-.922.517-1.429.998-.492.482-.985 1.175-1.476 2.08-.37.68-.676 1.217-.922 1.613-.23.382-.477.657-.738.826-.246.17-.584.256-1.015.256-.876 0-2.32-.071-2.735-.213-.4-.141-.66-.395-.783-.763-.108-.382-.178-.92-.209-1.612L19.791 24zm29.111 1.486a1.18 1.18 0 0 0-.828.318 1.013 1.013 0 0 0 0 1.487c.23.198.505.295.828.295.308 0 .571-.097.786-.295.23-.213.344-.46.344-.743s-.113-.531-.344-.744a1.08 1.08 0 0 0-.786-.318zm-1.567 2.335a1.18 1.18 0 0 0-.828.319 1.008 1.008 0 0 0 0 1.484c.23.197.506.297.828.297.308 0 .569-.1.784-.298.23-.212.346-.457.346-.74s-.116-.531-.346-.743a1.074 1.074 0 0 0-.784-.319zm3.137 0c-.323 0-.601.107-.832.319a1.01 1.01 0 0 0-.32.743c0 .283.105.528.32.74.231.198.509.298.832.298.307 0 .568-.1.783-.298.23-.212.347-.457.347-.74s-.116-.531-.347-.743a1.074 1.074 0 0 0-.783-.319zm-34.305 4.137l-1.683.786c.415.694.736 1.272.967 1.74.23.466.392.885.485 1.253.092.368.138.749.138 1.145 0 .622-.16 1.28-.482 1.973-.308.68-.885 1.332-1.73 1.954-.83.623-2.021 1.16-3.574 1.613l.668 1.612a10.266 10.266 0 0 0 1.615-.551 10.813 10.813 0 0 0 1.82-.978 8.27 8.27 0 0 0 1.683-1.443 6.39 6.39 0 0 0 1.245-1.908c.323-.722.485-1.53.485-2.421 0-.623-.13-1.343-.392-2.164-.246-.82-.661-1.69-1.245-2.61zm16.388 1.211c.354 0 .66.133.922.402.261.255.49.588.69.998.2.41.393.827.578 1.251.152.351.214.655.203.92l-.268.662c-.248.284-.605.435-1.088.435-.507 0-1.084-.183-1.73-.551-.645-.382-1.227-.978-1.75-1.784.492-.892.936-1.5 1.336-1.825.4-.325.77-.494 1.107-.508zm15.396 2.694c-.136.45-.286.814-.455 1.041a1.183 1.183 0 0 1-.713.508c-.292.071-.669.107-1.13.107a5.45 5.45 0 0 1-.824-.061c.977-.508 1.896-.994 3.122-1.595zm-4.965 2.54a1.8 1.8 0 0 0 .362.346c.205.132.422.226.648.301l-.282.132c-1.306.608-2.265 1.216-2.88 1.824-.169.156-.292.374-.369.657a3.47 3.47 0 0 0-.115.913c0 .127.183.333.552.616.369.283.838.629 1.406 1.04.569.41 1.14.884 1.708 1.422.83.764 1.376 1.387 1.637 1.868.277.48.414.885.414 1.21 0 .184-.046.367-.138.551-.077.17-.246.332-.507.488-.246.141-.637.262-1.175.361-.538.085-1.253.127-2.145.127h-1.167c-.876 0-1.524-.071-1.939-.213-.4-.141-.66-.395-.783-.763-.108-.382-.175-.919-.206-1.612l-.44-8.502c.2.143.32.177.573.271l1.542.78c.902-.517 2.018-1.13 3.304-1.817zM25.96 41.898l-1.198 1.315.668.553c-1.091.934-1.86 1.825-2.305 2.674-.43.835-.645 1.534-.645 2.1 0 1.146.374 1.996 1.127 2.548.753.537 1.7.806 2.838.806.784 0 1.436-.121 1.958-.362.523-.254.931-.573 1.223-.955.292-.396.5-.8.623-1.21.123-.41.183-.777.183-1.102 0-.835-.208-1.629-.623-2.379a9.29 9.29 0 0 0-1.637-2.12 19.404 19.404 0 0 0-2.212-1.868zm.575 2.717c.646.51 1.131.976 1.454 1.4.323.41.538.792.645 1.145.108.354.161.693.161 1.019 0 .594-.198 1.075-.598 1.443-.4.354-.984.53-1.752.53-.615 0-1.13-.147-1.545-.444-.4-.297-.6-.743-.6-1.337 0-.51.191-1.105.575-1.784.4-.68.953-1.335 1.66-1.972z" fill="#504945"/>
    <path d="M4.457 18c-.08.33-.15.662-.207 1h55.5c-.056-.338-.127-.67-.207-1H4.457z" opacity=".1"/>
    <path d="M20.8 4C12.45 4 5.579 10.038 4.25 18h.213C6.179 10.54 12.806 5 20.8 5h22.398c7.995 0 14.622 5.54 16.338 13h.213c-1.328-7.962-8.2-14-16.55-14H20.8z" opacity=".2" fill="#F9F5D7"/>
</svg>
