<svg xmlns="http://www.w3.org/2000/svg" width="64" height="64" version="1">
    <path d="M4 56v2c0 1.662 1.338 3 3 3h50c1.662 0 3-1.338 3-3v-2c0 1.662-1.338 3-3 3H7c-1.662 0-3-1.338-3-3z" opacity=".2"/>
    <rect width="56" height="56" x="4" y="4" rx="3" ry="3" fill="#B57514"/>
    <path d="M7 4C5.338 4 4 5.338 4 7v1c0-1.662 1.338-3 3-3h50c1.662 0 3 1.338 3 3V7c0-1.662-1.338-3-3-3H7z" opacity=".1" fill="#F9F5D7"/>
    <path d="M26 12a14 14 0 0 0-14 14 14 14 0 0 0 12 13.844V52h28V24H39.84A14 14 0 0 0 26 12zm0 2a12 12 0 0 1 11.828 10H24v13.82A12 12 0 0 1 14 26a12 12 0 0 1 12-12zm0 12h12a12 12 0 0 1-12 12V26zm14 0h10v24H26V40a14 14 0 0 0 14-14z" fill="#504945"/>
</svg>
