<svg xmlns="http://www.w3.org/2000/svg" width="64" height="64" version="1">
    <circle cx="32" cy="33" r="28" opacity=".2"/>
    <circle cx="32" cy="32" r="28" fill="#CB241D"/>
    <path d="M28.892 17.139l-.522 1.077c-.746 1.542-.667 2.678.334 4.843.674 1.458.66 2.595.65 3.677-.32 2.544-1.718 5-3.774 5.302-1.81.265-3.992-1.985-4.79-3.513-.796-1.523-1.073-.237-.427 1.974.208.71.864 2.694 1.458 4.065 1.812 4.187.868 6.477-1.376 7.149-1.231.369-2.532.011-3.703-1.017-.46-.403-.913-.656-1.006-.563-.094.093-.222 1.246-.287 2.564-.55 4.33 2.87 5.984 6.224 7.854a21.676 21.676 0 0 0 5.766 2.167c1.203.267 2.612.348 5.105.29 3.095-.071 3.67-.156 5.699-.823a22.045 22.045 0 0 0 9.538-6.208c1.06-1.243 1.372-2.141 1.708-3.447.328-1.886.456-4.153.235-4.153-.122 0-.746.533-1.389 1.186-.834.847-1.355 1.187-1.815 1.187-.905 0-1.731-.64-1.098-2.04.85-1.878.743-3.608-.363-5.835-.498-1.001-1.11-2.007-1.362-2.234-.446-.404-.455-.378-.457 1.107-.002 2.919-.762 4.679-2.904 5.607-1.755.761-4.438.815-5.654.102-1.839-1.08-1.841-2.623-.002-7.095.442-1.077.753-1.862.968-2.484.7-1.916.47-3.814-.57-4.814-.617-.592-1.597-1.196-2.466-1.52-1.812-.678-2.98-1.46-3.394-3.106z" fill="#F9BD2E"/>
    <circle cx="32" cy="33" r="19" opacity=".2" fill="none" stroke="#151819" stroke-width="6" stroke-linecap="round" stroke-linejoin="round"/>
    <circle cx="32" cy="32" r="19" fill="none" stroke="#F9F5D7" stroke-width="6" stroke-linecap="round" stroke-linejoin="round"/>
    <path d="M32 4A28 28 0 0 0 4 32a28 28 0 0 0 .018.492A28 28 0 0 1 32 5a28 28 0 0 1 27.975 27.492A28 28 0 0 0 60 32 28 28 0 0 0 32 4z" opacity=".2" fill="#F9F5D7"/>
</svg>
