<svg xmlns="http://www.w3.org/2000/svg" width="64" height="64" version="1">
    <rect width="42" height="32" x="-56" y="-48" rx="2.5" ry="2.5" transform="matrix(0 -1 -1 0 0 0)" opacity=".2"/>
    <rect width="42" height="32" x="-55" y="-48" rx="2.5" ry="2.5" transform="matrix(0 -1 -1 0 0 0)" fill="#928274"/>
    <rect width="40" height="52" x="-50" y="-58" rx="2.5" ry="2.5" transform="matrix(0 -1 -1 0 0 0)" opacity=".2"/>
    <rect width="40" height="52" x="-49" y="-58" rx="2.5" ry="2.5" transform="matrix(0 -1 -1 0 0 0)" fill="#504945"/>
    <rect width="32" height="44" x="-45" y="-54" rx="0" ry="0" transform="matrix(0 -1 -1 0 0 0)" fill="#322F2E"/>
    <path d="M8.5 9A2.495 2.495 0 0 0 6 11.5v1C6 11.115 7.115 10 8.5 10h47c1.385 0 2.5 1.115 2.5 2.5v-1c0-1.385-1.115-2.5-2.5-2.5zM10 45h44v1H10z" opacity=".1" fill="#F9F5D7"/>
</svg>
