<svg xmlns="http://www.w3.org/2000/svg" width="64" height="64" version="1">
    <path d="M24.858 29h14.286C40.726 29 42 30.19 42 31.666v26.666C42 59.81 40.726 61 39.142 61H24.856C23.274 61 22 59.81 22 58.334V31.666C22 30.19 23.274 29 24.858 29z" opacity=".2"/>
    <path d="M28 12h8v18h-8z" fill="#BDAD93"/>
    <path d="M24.858 28h14.286C40.726 28 42 29.19 42 30.666v26.666C42 58.81 40.726 60 39.142 60H24.856C23.274 60 22 58.81 22 57.334V30.666C22 29.19 23.274 28 24.858 28z" fill="#504945"/>
    <path d="M32 4l4 2-1.528 6h-4.944L28 6z" fill="#BDAD93"/>
    <path fill="#504945" d="M28 23h8v1h-8zM28 19h8v1h-8z"/>
    <path d="M28 12v1h8v-1h-8zM32 4l-4 2 .227.887L32 5l3.773 1.887L36 6l-4-2z" opacity=".2" fill="#F9F5D7"/>
</svg>
