<svg height="16">
    <path d="M0 0h4.233v4.233H0z" fill="none"/>
    <g fill="#fbf1c7">
        <path d="M0 3.969v-.53l2.117-2.116 2.116 2.116v.53l-.529-.265-1.587-1.587L.529 3.704z"/>
        <path d="M3.88 1.89a.265.265 0 0 0-.254.188c-.178.55-.64.957-1.207 1.067a1.583 1.583 0 0 1-1.518-.537.265.265 0 1 0-.406.34 2.118 2.118 0 0 0 3.635-.705.265.265 0 0 0-.25-.352z"/>
        <path d="M2.117.265a1.058 1.058 0 0 0-1.059 1.058A1.058 1.058 0 0 0 2.117 2.38a1.058 1.058 0 0 0 1.058-1.058A1.058 1.058 0 0 0 2.117.265zm0 .529a.53.53 0 0 1 .529.529.53.53 0 0 1-.53.529.53.53 0 0 1-.528-.53.53.53 0 0 1 .529-.528z"/>
    </g>
</svg>
