<svg height="16">
    <path d="M0 0h4.233v4.233H0z" fill="none"/>
    <path d="M1.058 2.117a.794.794 0 0 0 0 1.587.792.792 0 0 0 .786-.72.533.533 0 0 1 .546 0 .792.792 0 0 0 1.579-.074.794.794 0 0 0-.794-.793.79.79 0 0 0-.76.595.775.775 0 0 0-.298-.066.775.775 0 0 0-.298.066.79.79 0 0 0-.76-.595zm0 .33a.463.463 0 1 1 0 .926.463.463 0 0 1 0-.926zm2.117 0a.463.463 0 1 1 0 .926.463.463 0 0 1 0-.926zM1.058.265l-.198.793h2.513L3.175.265 2.117.397zM.794 1.323L0 1.853h4.233l-.793-.53z" fill="#fbf1c7"/>
</svg>
