<?xml version="1.0" encoding="UTF-8" standalone="no"?>
<!DOCTYPE svg PUBLIC "-//W3C//DTD SVG 1.1//EN" "http://www.w3.org/Graphics/SVG/1.1/DTD/svg11.dtd">
<svg version="1.1" xmlns="http://www.w3.org/2000/svg" xmlns:xlink="http://www.w3.org/1999/xlink" preserveAspectRatio="xMidYMid meet" viewBox="0 0 640 640" width="640" height="640"><defs><path d="M94.29 190.74L543.88 190.74C543.88 374.27 543.88 488.98 543.88 534.86C543.88 544.07 536.41 551.54 527.2 551.54C440.62 551.54 197.55 551.54 110.97 551.54C101.76 551.54 94.29 544.07 94.29 534.86C94.29 488.98 94.29 374.27 94.29 190.74Z" id="b4xpgfS7R5"></path><path d="M94.29 208.05L226.36 208.05L543.88 208.05C543.88 364.43 543.88 462.16 543.88 501.26C543.88 521.83 527.21 538.5 506.64 538.5C424.17 538.5 212.19 538.5 129.27 538.5C109.95 538.5 94.29 522.84 94.29 503.52C94.29 464.12 94.29 365.64 94.29 208.05Z" id="bIxADI5b9"></path><path d="M310.58 406.18C308.29 401.71 305.57 397.82 302.41 394.53C291.55 383.18 275.6 378.82 254.55 381.43C213.81 386.49 213.94 371.79 206.08 341C198.22 310.2 158.35 335.37 157.94 299.4C157.66 275.42 147.3 261.93 126.86 258.94" id="a5Dbr4HLBb"></path><path d="M338.95 398.89L381.33 376.06L352.36 352.66L323.4 329.26L309.98 375.49C305.26 391.76 302.31 401.92 301.13 405.99C299.43 411.84 305.63 416.84 310.99 413.95C314.72 411.95 324.04 406.93 338.95 398.89Z" id="d6yHzJb5a"></path><path d="M517.47 114.31C532.05 114.31 543.88 126.14 543.88 140.73C543.88 144.25 543.88 153.05 543.88 167.14L94.29 167.14C94.29 153.05 94.29 144.25 94.29 140.73C94.29 126.14 106.12 114.31 120.71 114.31C205.34 114.31 432.83 114.31 517.47 114.31Z" id="bN2GOKSlQ"></path><path d="M94.29 173.88L543.88 173.88L543.88 190.74L94.29 190.74L94.29 173.88Z" id="cOfP1ccln"></path><path d="M94.29 167.14L543.88 167.14L543.88 173.88L94.29 173.88L94.29 167.14Z" id="d1FSTeJb"></path><path d="M526.91 42.77L598.64 95.93L383.81 385.79L312.08 332.63L526.91 42.77Z" id="b1PylxveWP"></path><path d="M303.99 401.49L303.99 400.93L303.99 400.93L303.99 400.93L303.99 401.49L303.99 402.05L303.99 401.49Z" id="atY6Ufeqd"></path><path d="M340.84 293.67L412.89 346.39L402.93 360L330.88 307.27L340.84 293.67Z" id="c1pusCOUM"></path><path d="M513.73 60.58L585.52 113.66L574.03 129.2L502.24 76.12L513.73 60.58Z" id="iHUQu498k"></path><path d="" id="h1mIjueuS1"></path><path d="" id="b2GABYVcCP"></path><path d="M400.95 213.04C405.22 218.91 407.58 224.32 408.01 229.29C408.8 238.31 404.81 246.72 400.88 251.9C396.98 257.04 390.34 262.49 381.8 263.85C376.99 264.61 371.18 263.74 364.38 261.23" id="aDfrylcDm"></path></defs><g><g><g><use xlink:href="#b4xpgfS7R5" opacity="1" fill="#4e4a4a" fill-opacity="1"></use></g><g><use xlink:href="#bIxADI5b9" opacity="1" fill="#dde1e1" fill-opacity="1"></use></g><g><g><use xlink:href="#a5Dbr4HLBb" opacity="1" fill-opacity="0" stroke="#dd4a5d" stroke-width="20" stroke-opacity="1"></use></g></g><g><use xlink:href="#d6yHzJb5a" opacity="1" fill="#e76172" fill-opacity="1"></use></g><g><use xlink:href="#bN2GOKSlQ" opacity="1" fill="#666363" fill-opacity="1"></use></g><g><use xlink:href="#cOfP1ccln" opacity="1" fill="#696464" fill-opacity="1"></use></g><g><use xlink:href="#d1FSTeJb" opacity="1" fill="#484545" fill-opacity="1"></use></g><g><use xlink:href="#b1PylxveWP" opacity="1" fill="#f56e6e" fill-opacity="1"></use></g><g><use xlink:href="#atY6Ufeqd" opacity="1" fill="#c62828" fill-opacity="1"></use></g><g><use xlink:href="#c1pusCOUM" opacity="1" fill="#605b5c" fill-opacity="1"></use></g><g><use xlink:href="#iHUQu498k" opacity="1" fill="#6c6465" fill-opacity="1"></use></g><g><g><use xlink:href="#h1mIjueuS1" opacity="1" fill-opacity="0" stroke="#b23131" stroke-width="2" stroke-opacity="0"></use></g></g><g><g><use xlink:href="#b2GABYVcCP" opacity="1" fill-opacity="0" stroke="#219e58" stroke-width="2" stroke-opacity="1"></use></g></g><g><use xlink:href="#aDfrylcDm" opacity="1" fill="#605b5c" fill-opacity="1"></use></g></g></g></svg>