<svg xmlns="http://www.w3.org/2000/svg" width="64" height="64">
    <circle cx="32" cy="33" r="28" opacity=".2"/>
    <circle cx="32" cy="32" r="28" fill="#73C48F"/>
    <path d="M51.6 50.2L25.745 36.992l11.597-9.847z" opacity=".3" fill="#F9F5D7" fill-rule="evenodd"/>
    <path d="M12.4 13.8l24.93 13.414-11.685 9.71z" opacity=".3" fill-rule="evenodd"/>
    <path d="M18.147 43c-.605-2.82-1.12-5.624-1.147-8.26-.026-5.862 5.587-11.945 11.833-12.624 7.831-.852 16.573 3.152 22.468 6.934.91.536.801 1.177.405 1.801-2.504 3.382-6.205 6.836-9.376 8.641-7.245 4.09-13.048 1.565-20.005 2.802-.705.125-3.475.499-4.178.706z" opacity=".2" fill-rule="evenodd"/>
    <path d="M18.147 42c-.605-2.82-1.12-5.624-1.147-8.26-.026-5.862 5.587-11.945 11.833-12.624 7.831-.852 16.573 3.152 22.468 6.934.91.536.801 1.177.405 1.801-2.504 3.382-6.205 6.836-9.376 8.641-7.245 4.09-13.048 1.565-20.005 2.802-.705.125-3.475.499-4.178.706z" fill="#F9F5D7" fill-rule="evenodd"/>
    <circle cx="28" cy="32" r="7" fill="#BE4C1D"/>
    <circle cx="28" cy="32" r="4" fill="#3A393A"/>
    <path d="M32 4A28 28 0 0 0 4 32a28 28 0 0 0 .021.586A28 28 0 0 1 32 5a28 28 0 0 1 27.979 27.414A28 28 0 0 0 60 32 28 28 0 0 0 32 4z" fill="#F9F5D7" opacity=".2"/>
</svg>
