<svg xmlns="http://www.w3.org/2000/svg" width="64" height="64">
    <path d="M58.768 6.954c-.104-.31-.095-.702-.29-.959-2.678.386-5.329 1.047-7.807 2.139-2.626 1.127-5.479 3.02-7.485 5.046 3.27 3.404 5.801 7.556 8.766 10.784 1.382 2.001 2.773 5.105 3.953 7.226.261-.474 1.84-2.5 2.06-2.996 1.726-3.556 2.09-7.582 1.999-11.477-.04-3.285-.528-6.548-1.196-9.763zM5.2 6.954c.105-.31.096-.702.292-.959 2.677.386 5.328 1.047 7.806 2.139 2.626 1.127 5.479 3.02 7.485 5.046-3.27 3.404-5.802 7.556-8.766 10.784-1.382 2.001-2.773 5.105-3.953 7.226-.261-.474-1.841-2.5-2.06-2.996-1.726-3.556-2.09-7.582-1.999-11.477.04-3.285.528-6.548 1.196-9.763z" opacity=".2"/>
    <path d="M22.274 10.19a27.48 27.48 0 0 0-1.58 1.127c-1.209.901-2.314 1.938-3.391 2.99-.41.418-.81.845-1.203 1.278-.18.196-.359.394-.535.594-.135.155-.27.31-.402.467l-.002.003-.008.01c-3.707 4.333-6.649 9.289-9.004 14.458a69.097 69.097 0 0 0-.713 1.676l-.152.364-.054.142a63.173 63.173 0 0 0-1.172 3.165.586.586 0 0 0-.05.283l.001.006c.014.2.108.4.17.59a30.615 30.615 0 0 0 1.682 3.855l.022.043a28.533 28.533 0 0 0 3.42 5.126 27.81 27.81 0 0 0 2.85 2.977l.277.247.092.082c.369.325.745.64 1.129.946a28.674 28.674 0 0 0 7.941 4.498 28.848 28.848 0 0 0 3.298 1.025c1.97.49 3.992.77 6.022.844l.025.001c.177.007.354.01.531.013l.18.004h.72c.06 0 .12-.003.18-.004.176-.003.353-.007.53-.013h.027a29.362 29.362 0 0 0 6.614-.998l.008-.003c.815-.22 1.62-.475 2.411-.765.095-.033.188-.068.282-.102l.004-.002c2.86-1.048 5.594-2.621 7.944-4.501a29.637 29.637 0 0 0 1.494-1.272 27.81 27.81 0 0 0 2.85-2.977 28.531 28.531 0 0 0 3.418-5.122l.027-.053c.088-.169.175-.338.26-.509 0-.003.002-.005.004-.008a30.614 30.614 0 0 0 1.415-3.333c.062-.19.156-.389.17-.59l.002-.005-.001-.004a.585.585 0 0 0-.05-.28 59.424 59.424 0 0 0-.423-1.202c-.24-.66-.49-1.316-.751-1.967-.017-.046-.035-.091-.051-.137l-.149-.355a69.087 69.087 0 0 0-.717-1.685c-2.355-5.17-5.297-10.125-9.003-14.458l-.005-.007-.004-.004-.002-.002a56.804 56.804 0 0 0-.401-.467c-.169-.19-.34-.38-.511-.568-.4-.442-.81-.877-1.228-1.305-1.076-1.05-2.18-2.087-3.39-2.988a27.483 27.483 0 0 0-1.58-1.128c-3.317-2.16-6.087-3.085-9.848-3.186-3.415.02-7.212 1.622-9.62 3.186z" opacity=".2"/>
    <path d="M58.768 4.954c-.104-.31-.095-.702-.29-.959-2.678.386-5.329 1.047-7.807 2.139-2.626 1.127-5.479 3.02-7.485 5.046 3.27 3.404 5.801 7.556 8.766 10.784 1.382 2.001 2.773 5.105 3.953 7.226.261-.474 1.84-2.5 2.06-2.996 1.726-3.556 2.09-7.582 1.999-11.477-.04-3.285-.528-6.548-1.196-9.763z" fill="#A04A73"/>
    <path d="M58.477 3.994c-2.678.386-5.329 1.047-7.807 2.139-2.626 1.127-5.478 3.021-7.484 5.047.167.174.324.357.488.535 1.966-1.847 4.573-3.542 6.996-4.582 2.478-1.092 5.129-1.75 7.807-2.137.195.257.186.648.29.96.669 3.214 1.156 6.475 1.196 9.76.005.23.004.46.006.69.008-.564.007-1.129-.006-1.69-.04-3.285-.527-6.546-1.195-9.76-.105-.312-.096-.705-.291-.962z" opacity=".1" fill="#F9F5D7"/>
    <path d="M5.2 4.954c.105-.31.096-.702.292-.959 2.677.386 5.328 1.047 7.806 2.139 2.626 1.127 5.479 3.02 7.485 5.046-3.27 3.404-5.802 7.556-8.766 10.784-1.382 2.001-2.773 5.105-3.953 7.226-.261-.474-1.841-2.5-2.06-2.996-1.726-3.556-2.09-7.582-1.999-11.477.04-3.285.528-6.548 1.196-9.763z" fill="#A04A73"/>
    <path d="M5.492 3.994c-.196.257-.187.65-.29.961-.669 3.215-1.157 6.476-1.196 9.762A44.02 44.02 0 0 0 4 16.407c.002-.23 0-.461.006-.69.04-3.286.527-6.547 1.195-9.762.104-.31.095-.702.291-.959 2.678.386 5.328 1.045 7.807 2.137 2.423 1.04 5.03 2.735 6.996 4.582.163-.178.321-.361.488-.535-2.006-2.026-4.859-3.92-7.484-5.047C10.82 5.04 8.169 4.38 5.492 3.994z" opacity=".1" fill="#F9F5D7"/>
    <path d="M22.274 9.19a27.48 27.48 0 0 0-1.58 1.127c-1.209.901-2.314 1.938-3.391 2.99-.41.418-.81.845-1.203 1.278-.18.196-.359.394-.535.594-.135.155-.27.31-.402.468l-.002.002-.008.01c-3.707 4.333-6.649 9.289-9.004 14.458a69.097 69.097 0 0 0-.713 1.676l-.152.364-.054.142a63.173 63.173 0 0 0-1.172 3.165.586.586 0 0 0-.05.283l.001.006c.014.2.108.4.17.59a30.615 30.615 0 0 0 1.682 3.855l.022.043a28.533 28.533 0 0 0 3.42 5.126 27.81 27.81 0 0 0 2.85 2.977l.277.247.092.082c.369.325.745.64 1.129.946a28.674 28.674 0 0 0 7.941 4.498 28.848 28.848 0 0 0 3.298 1.025c1.97.49 3.992.77 6.022.844l.025.001c.177.007.354.01.531.013l.18.004h.72c.06 0 .12-.003.18-.004.176-.003.353-.007.53-.013h.027a29.362 29.362 0 0 0 6.614-.998l.008-.003c.815-.22 1.62-.475 2.411-.765.095-.033.188-.068.282-.102l.004-.002c2.86-1.048 5.594-2.621 7.944-4.501a29.637 29.637 0 0 0 1.494-1.272 27.81 27.81 0 0 0 2.85-2.977 28.531 28.531 0 0 0 3.418-5.122l.027-.053c.088-.169.175-.338.26-.509l.004-.008a30.614 30.614 0 0 0 1.415-3.332c.062-.191.156-.39.17-.59l.002-.006-.001-.004a.585.585 0 0 0-.05-.28 59.424 59.424 0 0 0-.423-1.202c-.24-.66-.49-1.316-.751-1.967-.017-.046-.035-.091-.051-.137l-.149-.355a69.087 69.087 0 0 0-.717-1.685c-2.355-5.17-5.297-10.125-9.003-14.458l-.005-.007-.004-.004-.002-.002a56.788 56.788 0 0 0-.401-.467c-.169-.19-.34-.38-.511-.568-.4-.442-.81-.877-1.228-1.305-1.076-1.05-2.18-2.087-3.39-2.988a27.483 27.483 0 0 0-1.58-1.128c-3.317-2.16-6.087-3.085-9.848-3.186-3.415.02-7.213 1.622-9.62 3.186z" fill="#F9F5D7"/>
    <path d="M18.086 30.005c-1.28 0-2.562.18-3.785.552-.355 2.153-.534 4.415.197 6.515.572 1.853 2.023 3.428 3.856 4.16 2.233.924 4.779.958 7.116.426.301-1.347.552-2.718.517-4.102.058-1.7-.34-3.468-1.372-4.86-1.19-1.643-3.25-2.483-5.25-2.633a13.868 13.868 0 0 0-1.279-.058zm-.026 1.771a9.355 9.355 0 0 1 2.043.178c.293.121.735.055.942.297-.937.362-1.74 1.119-2 2.088-.317 1.015-.003 2.176.755 2.929 1.093 1.213 3.259 1.27 4.396.092-.03.932-.06 1.884-.289 2.784-.945.095-1.92.133-2.862-.016-1.724-.185-3.503-1.02-4.37-2.555-.986-1.681-.995-3.69-.752-5.555.278-.152.603-.119.907-.149.407-.053.818-.085 1.23-.093zM26.01 44.654c-.086.173.167.291.263.426 1.404 1.324 2.791 2.66 4.22 3.968.29.275.72.395 1.139.496.002.78.009 1.562-.003 2.343.163.16.461.136.673.053-.015-.79.016-1.58-.018-2.367.43-.136.892-.255 1.21-.543 1.432-1.365 2.888-2.718 4.317-4.086.053-.09.238-.17.164-.281-1.608-.4-3.283-.568-4.957-.642-2.362-.072-4.742.086-7.008.633zM31.894 6.004c-1.448.009-2.965.302-4.416.756 1.297 4.665 2.53 9.347 3.81 14.016.177-.019.355-.036.533-.054.349-4.888.861-9.77 1.193-14.66a22.687 22.687 0 0 0-1.12-.058zm-5.03.96a21.8 21.8 0 0 0-4.59 2.226c-.722.52-2.166 1.496-.857.615 2.56 4.06 5.152 8.104 7.722 12.16.162-.064.324-.128.486-.195-.372-1.84-.659-3.693-1.036-5.532-.314-1.533-.545-3.08-.858-4.611-.32-1.55-.564-3.112-.867-4.664z" fill="#3A393A"/>
    <path d="M18.41 50.514l-12.9 8.979" opacity=".2" fill="none" stroke="#151819" stroke-width="3" stroke-linecap="round" stroke-linejoin="round"/>
    <path d="M18.41 49.514l-12.9 8.979" fill="none" stroke="#A04A73" stroke-width="3" stroke-linecap="round" stroke-linejoin="round"/>
    <path d="M46.009 30.005c1.28 0 2.562.18 3.785.552.355 2.153.534 4.415-.197 6.515-.572 1.853-2.023 3.428-3.856 4.16-2.233.924-4.779.958-7.116.426-.301-1.347-.552-2.718-.517-4.102-.058-1.7.34-3.468 1.372-4.86 1.19-1.643 3.25-2.483 5.25-2.633.425-.039.852-.059 1.279-.058zm.026 1.771a9.355 9.355 0 0 0-2.043.178c-.293.121-.735.055-.942.297.937.362 1.74 1.119 2 2.088.317 1.015.003 2.176-.755 2.929-1.093 1.213-3.259 1.27-4.396.092.03.932.06 1.884.289 2.784.945.095 1.92.133 2.862-.016 1.724-.185 3.503-1.02 4.37-2.555.986-1.681.995-3.69.752-5.555-.278-.152-.603-.119-.907-.149a11.071 11.071 0 0 0-1.23-.093z" fill="#3A393A"/>
    <path d="M26.41 50.514l-12.9 8.979" opacity=".2" fill="none" stroke="#151819" stroke-width="3" stroke-linecap="round" stroke-linejoin="round"/>
    <path d="M26.41 49.514l-12.9 8.979" fill="none" stroke="#A04A73" stroke-width="3" stroke-linecap="round" stroke-linejoin="round"/>
    <path d="M45.51 50.514l12.9 8.979" opacity=".2" fill="none" stroke="#151819" stroke-width="3" stroke-linecap="round" stroke-linejoin="round"/>
    <path d="M45.51 49.514l12.9 8.979" fill="none" stroke="#A04A73" stroke-width="3" stroke-linecap="round" stroke-linejoin="round"/>
    <path d="M37.51 50.514l12.9 8.979" opacity=".2" fill="none" stroke="#151819" stroke-width="3" stroke-linecap="round" stroke-linejoin="round"/>
    <path d="M37.51 49.514l12.9 8.979" fill="none" stroke="#A04A73" stroke-width="3" stroke-linecap="round" stroke-linejoin="round"/>
</svg>
