<svg xmlns="http://www.w3.org/2000/svg" width="64" height="64" version="1">
    <path d="M21.6 17c-1.44 0-2.6 1.19-2.6 2.667 3.254 10.604-2.45 17.673-5.2 10.367-.933-2.434-2.228-4.043-5.2-4H7.3c-.72 0-1.3.595-1.3 1.334v2.366c0 .74.58 1.229 1.3 1.266H9v3.334C9 45 9 45 13.8 45.001c5.2 0 5.2 3.072 5.2 9.333C19 55.81 20.16 57 21.6 57h26c1.44 0 2.4-1.19 2.4-2.666V53h6.699c.72 0 1.3-.594 1.3-1.334V28.401c0-.738-.584-1.328-1.3-1.4H50v-7.334c0-1.477-.96-2.666-2.4-2.666zM50 31h4.1v18H50z" opacity=".2"/>
    <path d="M30.006 10.87c-6.028.65-9.703 2.744-9.706 5.13.005.115.02.228.044.342.366-.212.78-.341 1.228-.341h25.453c.454 0 .873.132 1.24.349A2.06 2.06 0 0 0 48.3 16c-.006-2.385-4.28-4.479-10.307-5.127C38 9 36 8 34 8.001c-2 0-4 .999-3.994 2.87z" fill="#F9BD2E"/>
    <path d="M21.572 15.002c-.412 0-.791.117-1.134.299A14 5.333 0 0 0 20.3 16a14 5.333 0 0 0 .043.342A2.44 2.44 0 0 1 21.572 16h25.453c.454 0 .872.133 1.24.35a14 5.333 0 0 0 .036-.35 14 5.333 0 0 0-.139-.695 2.397 2.397 0 0 0-1.137-.303H21.572z" opacity=".2"/>
    <path d="M21.6 16c-1.44 0-2.6 1.19-2.6 2.667 3.254 10.604-2.45 17.673-5.2 10.367-.933-2.434-2.228-4.043-5.2-4H7.3c-.72 0-1.3.595-1.3 1.334v2.366c0 .739.58 1.229 1.3 1.266H9v3.334C9 44 9 44 13.8 44.001 19 44 19 47.073 19 53.334 19 54.81 20.16 56 21.6 56h26c1.44 0 2.4-1.19 2.4-2.666V52h6.699c.72 0 1.3-.594 1.3-1.334V27.4c0-.738-.584-1.328-1.3-1.4H50v-7.333c0-1.477-.96-2.666-2.4-2.666zM50 30h4.1v18H50z" fill="#F9BD2E"/>
    <path fill="#FA4934" d="M21.996 34l3-4 3 4-3 4zM30.01 33.998l4-6.001 4 6-4 6.001zM39.996 34l3-4 3 4-3 4z"/>
    <path d="M21.6 16c-1.44 0-2.6 1.19-2.6 2.668.036.116.056.225.09.34C19.376 17.854 20.383 17 21.6 17h26c1.44 0 2.4 1.19 2.4 2.668v-1C50 17.191 49.04 16 47.6 16h-26zM7.3 25.035c-.72 0-1.3.594-1.3 1.332v1c0-.738.58-1.332 1.3-1.332h1.3c2.972-.043 4.267 1.566 5.2 4 2.248 5.968 6.459 2.34 6.155-4.967-.105 6.615-4.014 9.652-6.154 3.967-.934-2.434-2.23-4.043-5.201-4H7.3zM50 26v1h6.7c.715.072 1.298.662 1.298 1.4v-1c0-.738-.583-1.328-1.299-1.4H50zm0 22v1h4.1v-1H50z" fill="#F9F5D7" opacity=".2"/>
    <path d="M34 8c-2 0-4 1-3.994 2.871-6.028.649-9.702 2.743-9.705 5.129.005.114.019.228.043.342.022-.013.049-.019.072-.031.64-2.091 4.153-3.855 9.59-4.44C30 10.001 32 9.003 34 9.002c2 0 4 .998 3.992 2.871 5.431.584 9.429 2.344 10.172 4.432.033.017.07.026.102.045.021-.117.033-.234.035-.35-.006-2.385-4.283-4.479-10.309-5.127C38 9 36 7.999 34 8z" fill="#F9F5D7" opacity=".1"/>
</svg>
