<svg xmlns="http://www.w3.org/2000/svg" width="64" height="64" version="1">
    <path d="M4 57v1c0 1.662 1.338 3 3 3h50c1.662 0 3-1.338 3-3v-1c0 1.662-1.338 3-3 3H7c-1.662 0-3-1.338-3-3z" opacity=".2"/>
    <rect width="56" height="56" x="4" y="4" rx="3" ry="3" fill="#066678"/>
    <path d="M7 4C5.338 4 4 5.338 4 7v1c0-1.662 1.338-3 3-3h50c1.662 0 3 1.338 3 3V7c0-1.662-1.338-3-3-3H7z" opacity=".2" fill="#F9F5D7"/>
    <path d="M42.291 11c-4.582-.004-13.94 1.916-14.94 3.143-.3.37-.31.744-.039 1.54.61 1.785 1.003 4.776-.335 13.49-1.553 10.104-2.208 13.603-2.557 13.96-.144.147-.909-.031-1.7-.397-1.946-.9-4.965-.909-6.398-.018-4.27 2.654-2.388 8.127 3.498 10.083v.002c.447.149 1.71.23 2.809.184 1.545-.066 2.355-.306 3.576-1.065 2.326-1.445 3.433-3.905 4.688-10.418.543-2.82 1.015-5.41 1.107-5.504.092-.094.752.705 1.406 1.522C37.663 42.836 40.384 45 43.466 45c.957 0 1.573-.107 1.573-.335 0-.207-.755-1.035-1.678-1.961C40.727 39.96 39.57 35.932 37 33l1.264-.66c8.497-5.255 13.456-13.056 11.185-17.595-1.334-2.667-3.386-3.741-7.158-3.745zm-1.518 7c1.584-.004 3.01.152 3.641.508.68.384.764.497.272.371-.575-.147-.916.102-1.776 1.301-1.343 1.873-3.501 3.878-6.021 5.594-2.987 2.033-3.688 2.424-3.864 2.148-.223-.349 1.104-8.331 1.457-8.763.572-.7 3.652-1.151 6.291-1.159z" opacity=".2"/>
    <path d="M42.291 10c-4.582-.004-13.94 1.916-14.94 3.143-.3.369-.31.744-.039 1.539.61 1.785 1.003 4.776-.335 13.49-1.553 10.104-2.208 13.604-2.557 13.96-.144.147-.909-.03-1.7-.396-1.946-.901-4.965-.91-6.398-.018-4.27 2.654-2.388 8.127 3.498 10.083v.002c.447.148 1.71.23 2.809.183 1.545-.065 2.355-.305 3.576-1.064 2.326-1.446 3.433-3.905 4.688-10.418.543-2.82 1.015-5.41 1.107-5.504.092-.094.752.704 1.406 1.521C37.663 41.836 40.384 44 43.466 44c.957 0 1.573-.108 1.573-.336 0-.207-.755-1.034-1.678-1.96C40.727 38.96 39.57 34.93 37 32l1.264-.66c8.497-5.256 13.456-13.056 11.185-17.596-1.334-2.667-3.386-3.74-7.158-3.744zm-1.518 7c1.584-.004 3.01.152 3.641.508.68.383.764.497.272.37-.575-.146-.916.102-1.776 1.302-1.343 1.873-3.501 3.878-6.021 5.593-2.987 2.034-3.688 2.424-3.864 2.149-.223-.35 1.104-8.332 1.457-8.764.572-.7 3.652-1.15 6.291-1.158z" fill="#F9F5D7"/>
</svg>
