<svg xmlns="http://www.w3.org/2000/svg" width="64" height="64">
    <path d="M32 5v28h28A28 28 0 0 0 32 5zm0 28H4a28 28 0 0 0 28 28V33z" opacity=".2"/>
    <path d="M32 4v28h28A28 28 0 0 0 32 4zm0 28H4a28 28 0 0 0 28 28V32z" fill="#F9F5D7"/>
    <path d="M32 4v1a28 28 0 0 1 27.95 27H60A28 28 0 0 0 32 4zM4 32a28 28 0 0 0 .05 1H32v-1H4z" fill="#F9F5D7" opacity=".2"/>
    <circle cx="32" cy="33" r="22" opacity=".2"/>
    <circle cx="32" cy="32" r="22" fill="#F9F5D7"/>
    <circle cx="32" cy="32" r="17" fill="#48B9C7"/>
    <path d="M26 23h12v10H26v10h12" opacity=".2" fill="none" stroke="#151819" stroke-width="6" stroke-linecap="round" stroke-linejoin="round"/>
    <path d="M26 22h12v10H26v10h12" fill="none" stroke="#FECE4F" stroke-width="6" stroke-linecap="round" stroke-linejoin="round"/>
    <path d="M26 19a3 3 0 0 0-2.998 3.492A3 3 0 0 1 26 20h12a3 3 0 0 1 3 3v-1a3 3 0 0 0-3-3H26zm0 10a3 3 0 0 0-3 3v1a3 3 0 0 1 3-3h9v-1h-9zm3 10v1h9a3 3 0 0 1 2.998 2.506A3 3 0 0 0 38 39h-9z" opacity=".2" fill="#F9F5D7" fill-rule="evenodd"/>
</svg>
