<svg xmlns="http://www.w3.org/2000/svg" width="64" height="64" version="1">
    <rect width="56" height="56" x="4" y="5" rx="2.8" ry="2.8" opacity=".2"/>
    <rect width="56" height="56" x="4" y="4" rx="2.8" ry="2.8" fill="#F9BD2E"/>
    <path d="M7.04 36l-.032.925c-.024.663.008.945.111 1.01.079.049.475.09.881.091l.738.002-.049 5.234c-.026 2.328-.019 4.32.016 4.428.035.108.146.219.25.246.104.027.67.055 1.256.062.752.01 1.1-.03 1.184-.13.08-.096.105-.897.076-2.438-.025-1.262-.06-3.232-.078-4.377l-.034-3.08.793-.033c.501-.02.841-.085.92-.18.076-.09.112-.469.092-.955l-.033-.804h-3.045zm7.185 0l-.079.544c-.043.299-.094 3.741-.113 6.429L14 47.86l.879.03c.484.018.905.056.935.087.079.078.704-.064.872-.197.083-.067.136-.38.136-.788 0-.564-.04-.708-.248-.884l-.25-.211.274-.067.273-.062-.035-1.44c-.037-1.623-.05-1.594.846-1.707.417-.052.477-.033.521.176.24 1.137.262 1.408.17 2.106-.055.419-.089 1.282-.076 1.916l.021 1.15h2.659l-.006-.818-.004-.82-.77-.237c-.72-.222-.774-.261-.806-.58-.03-.283.004-.34.193-.34.18 0 .228.069.228.328 0 .378.161.43.334.11a.395.395 0 0 1 .641-.09c.072.071.168.093.215.047.047-.047.084-1.99.084-4.315v-5.228l-1.217-.012-1.219-.013.041 1.218c.023.67.005 2.523-.039 2.896l-.08.678-.957-.031-.957-.033-.054-2.863-.057-1.865h-1.162zm26.384 0c-.598.015-1.949.49-1.949.733 0 .06-.115.097-.252.082l-.25-.027-.027 3.017-.031 2.014.64.125c.132.026.116.036.215.058l1.807-.04c.154-.018.17-1.285.195-3.414.026-2.137.007-2.464-.143-2.522a.565.565 0 0 0-.205-.025zm3.518 0c-.16.005-.685.019-1.166.03-.694.017-.888.059-.943.205-.039.102-.011.724.062 1.383.153 1.38.156 2.65.035 3.484-.076.526-.06.63.117.762.037.027.098.024.149.046l6.053-.136c.008-.007.03-.013.037-.02.087-.107.103-1.821.052-3.427l-.074-2.278-.84.004c-1.447.003-1.336-.16-1.336 1.977 0 1.052-.046 2.874-.107 2.912-.146.092-.4-1.44-.656-2.385a11.316 11.316 0 0 0-.653-1.677c-.382-.774-.474-.885-.73-.88zm-19.113.003c-1.452-.008-2.888.023-2.961.095-.074.073-.07.922.012 2.53.067 1.33.119 3.861.119 4.402 0 1.033.087 1.246.498 1.246.126 0 .345.081.486.18.223.155.247.238.186.642-.078.513.01.641.525.764.537.127.206.287-.596.287-.854 0-1.007.122-.779.619.099.215.09.34-.041.592-.091.175-.168.37-.168.431s.363.128.805.149c1.517.072 4.827.08 5.002.013.139-.053.175-.244.175-.935v-.87l-1.8-.001c-1.687-.002-2.278-.081-1.977-.266.08-.049.123-.574.123-1.486v-1.41l.61-.07c.335-.04.806-.04 1.046-.003.24.038.565.038.723-.002.284-.07.288-.079.256-1.031l-.033-.961-1.157-.031c-.64-.018-1.224-.088-1.306-.156-.107-.089-.14-.36-.117-.96l.033-1.837 1.771-.066a61.446 61.446 0 0 0 1.8-.082c.015-.008.028-.362.028-.783 0-.634-.036-.786-.205-.875-.138-.074-1.606-.118-3.058-.125zm26.23 0c-.54.005-.918.023-.97.06-.11.077-.161.685-.21 2.395L50 41.727l5.158-.121a.262.262 0 0 0 .063-.153c.02-.14-.01-.3-.069-.359-.058-.058-.623-.133-1.256-.166-.68-.036-1.184-.114-1.232-.19-.045-.07-.08-.441-.082-.822 0-.38-.05-1.721-.111-1.759-.35-.218.061-.46 1.824-.277h1.94v-.77c0-.508-.05-.812-.15-.894-.142-.12-3.221-.23-4.84-.213zm-18.68.004c-.655.045-.56.417-.56 2.58v3.49l.455.072c.248.04.694.04.994 0 .225-.03.357-.027.442-.008l.83-.02c-.043-.268-.084-1.218-.094-2.482l-.024-3.613-1.107-.01c-.417-.003-.717-.025-.936-.01zm22.897 6.155l-5.096.016c-.074.096-.177.753-.234 1.469-.09 1.128-.08 1.38.082 1.838.165.462.172.645.058 1.453-.102.733-.1.946.01 1.023.136.095 5.93-.002 6.094-.101.046-.028.08-.374.08-.768 0-.69-.013-.726-.348-.9-.256-.134-.707-.19-1.73-.207-1.802-.032-1.795-.026-1.795-1.782V42.96l1.022-.03c.563-.015 1.213-.057 1.441-.093.386-.06.416-.09.416-.445zm-7.004.024l-5.598.021a.662.662 0 0 1-.214.057c-.304.035-.304.036-.288.88.01.466.019 1.66.024 2.653.01 1.816.042 2 .348 2.12.22.085 1.598.1 1.806.019.139-.054.154-.31.104-1.61-.063-1.625.04-3.746.185-3.746.118 0 1.338 3.603 1.338 3.951 0 .304.269.804.652 1.211.199.21.36.256.936.256 1.161 0 1.117.11 1.156-2.933.024-1.873-.001-2.66-.093-2.774-.04-.05-.163-.082-.356-.105zm-7.908.029c-.193.023-.35.018-.479.002l-.63.004c-.082.02-.213.038-.395.055l-.664.06v1.11l.474.052c.381.045.505.12.637.375.333.647.064 1.306-.355.873a1.325 1.325 0 0 0-.395-.283c-.16-.057-.195-.003-.195.303a2.4 2.4 0 0 1-.166.768c-.155.37-.247 2.288-.115 2.42.028.028.685.048 1.457.044 1.389-.006 1.402-.008 1.515-.283.143-.345.108-4.9-.04-5.29-.045-.118-.085-.178-.155-.21h-.475zm-5.815.023l-.82.004c-.09.051-.293.086-.678.086-.51 0-.802.05-.886.153-.089.107-.117.932-.096 2.763l.03 2.61 2.16.06c1.187.033 2.314.069 2.505.082.197.014.37-.036.399-.115.028-.077.023-.518-.014-.978l-.068-.834-.553-.012c-.606-.012-1.832-.136-2.27-.23-.265-.058-.261-.067.11-.192.318-.107.382-.179.36-.406a39.893 39.893 0 0 1-.054-1.56c-.015-.707-.07-1.316-.119-1.352-.002-.002-.003-.072-.005-.079z" fill="#3A393A"/>
    <path d="M9.648 17c-.199 0-.355.072-.472.219-.118.141-.176.333-.176.574v1.547a.87.87 0 0 0 .074.387c.05.094.145.163.285.21l3.727 1.305v.25h-2.172v-.613H9v1.328c0 .24.058.435.176.582a.58.58 0 0 0 .472.211h4.7c.199 0 .359-.07.476-.21.118-.148.176-.342.176-.583v-1.555a.807.807 0 0 0-.082-.386c-.05-.105-.145-.18-.285-.227l-3.719-1.289v-.242h2.172v.469H15V17.77c0-.241-.059-.43-.172-.567A.576.576 0 0 0 14.36 17zM17 17v6h1.914v-1.516h3.441a.57.57 0 0 0 .47-.214c.117-.147.175-.342.175-.582v-2.895c0-.24-.059-.433-.172-.574a.531.531 0 0 0-.457-.219zm8 0v6h6v-1.703h-4.047v-.535h3.043v-1.575h-3.043v-.484h3.992V17zm8.605 0a.527.527 0 0 0-.449.219c-.104.141-.156.333-.156.574v4.414c0 .24.052.435.156.582.108.141.259.211.45.211h4.777c.19 0 .337-.07.445-.21.113-.148.172-.342.172-.583v-1.738h-1.832v.906h-2.336v-2.75h2.336v.906H39v-1.738c0-.24-.055-.433-.168-.574a.527.527 0 0 0-.45-.219zm-14.69 1.625h2.17v1.29h-2.17zM33.604 25a.527.527 0 0 0-.449.219c-.104.141-.156.333-.156.574v4.414c0 .24.052.435.156.582.108.141.259.211.45.211h4.789c.19 0 .337-.07.44-.21.11-.148.165-.342.165-.583v-4.414c0-.24-.052-.433-.16-.574a.515.515 0 0 0-.445-.219zM41 25v6h1.914v-1.516h3.441a.57.57 0 0 0 .47-.214c.117-.147.175-.338.175-.579v-2.898c0-.24-.059-.433-.172-.574a.538.538 0 0 0-.46-.219zm8.648 0c-.199 0-.355.072-.472.219-.118.141-.176.333-.176.574v1.55c0 .158.024.284.074.384.05.094.149.163.29.21l3.726 1.305v.25h-2.176v-.613H49v1.328c0 .24.058.435.176.582a.58.58 0 0 0 .472.211h4.7c.199 0 .359-.07.476-.21.118-.148.176-.342.176-.583v-1.555a.807.807 0 0 0-.082-.386c-.05-.105-.145-.18-.285-.227l-3.719-1.285v-.246h2.172v.472H55v-1.207c0-.24-.059-.43-.172-.566A.579.579 0 0 0 54.36 25zm-14.816 1.625h2.336v2.75h-2.336zm8.082 0h2.172v1.29h-2.172z" opacity=".2"/>
    <path d="M9.648 16c-.199 0-.355.072-.472.219-.118.141-.176.333-.176.574v1.547a.87.87 0 0 0 .074.387c.05.094.145.163.285.21l3.727 1.305v.25h-2.172v-.613H9v1.328c0 .24.058.435.176.582a.58.58 0 0 0 .472.211h4.7c.199 0 .359-.07.476-.21.118-.148.176-.342.176-.583v-1.555a.807.807 0 0 0-.082-.386c-.05-.105-.145-.18-.285-.227l-3.719-1.289v-.242h2.172v.469H15V16.77c0-.241-.059-.43-.172-.567A.576.576 0 0 0 14.36 16zM17 16v6h1.914v-1.516h3.441a.57.57 0 0 0 .47-.214c.117-.147.175-.342.175-.582v-2.895c0-.24-.059-.433-.172-.574a.531.531 0 0 0-.457-.219zm8 0v6h6v-1.703h-4.047v-.535h3.043v-1.575h-3.043v-.484h3.992V16zm8.605 0a.527.527 0 0 0-.449.219c-.104.141-.156.333-.156.574v4.414c0 .24.052.435.156.582.108.141.259.211.45.211h4.777c.19 0 .337-.07.445-.21.113-.148.172-.342.172-.583v-1.738h-1.832v.906h-2.336v-2.75h2.336v.906H39v-1.738c0-.24-.055-.433-.168-.574a.527.527 0 0 0-.45-.219zm-14.69 1.625h2.17v1.29h-2.17zM33.604 24a.527.527 0 0 0-.449.219c-.104.141-.156.333-.156.574v4.414c0 .24.052.435.156.582.108.141.259.211.45.211h4.789c.19 0 .337-.07.44-.21.11-.148.165-.342.165-.583v-4.414c0-.24-.052-.433-.16-.574a.515.515 0 0 0-.445-.219zM41 24v6h1.914v-1.516h3.441a.57.57 0 0 0 .47-.214c.117-.147.175-.338.175-.579v-2.898c0-.24-.059-.433-.172-.574a.538.538 0 0 0-.46-.219zm8.648 0c-.199 0-.355.072-.472.219-.118.141-.176.333-.176.574v1.55c0 .158.024.284.074.384.05.094.149.163.29.21l3.726 1.305v.25h-2.176v-.613H49v1.328c0 .24.058.435.176.582a.58.58 0 0 0 .472.211h4.7c.199 0 .359-.07.476-.21.118-.148.176-.342.176-.583v-1.555a.807.807 0 0 0-.082-.386c-.05-.105-.145-.18-.285-.227l-3.719-1.285v-.246h2.172v.472H55v-1.207c0-.24-.059-.43-.172-.566A.579.579 0 0 0 54.36 24zm-14.816 1.625h2.336v2.75h-2.336zm8.082 0h2.172v1.29h-2.172z" fill="#F9F5D7"/>
    <path d="M6.8 4C5.25 4 4 5.25 4 6.8v1C4 6.25 5.25 5 6.8 5h50.4C58.75 5 60 6.25 60 7.8v-1C60 5.25 58.75 4 57.2 4H6.8z" opacity=".2" fill="#F9F5D7"/>
</svg>
