<svg xmlns="http://www.w3.org/2000/svg" width="64" height="64">
    <path d="M42.4 46H4s8.4 12 33.6 12C54.4 58 60 49.6 60 45.4c0-3.633 0-5.4-2.8-5.4h-12c-2.8 0-2.8 2.643-2.8 6zM38 16V8l10 4z" opacity=".2"/>
    <path d="M42.4 45H4s8.4 12 33.6 12C54.4 57 60 48.6 60 44.4c0-3.633 0-5.4-2.8-5.4h-12c-2.8 0-2.8 2.643-2.8 6z" fill="#7F7061"/>
    <path d="M38 16v30s-12-6.855-12-15 12-15 12-15z" opacity=".2"/>
    <path d="M38 15v30s-12-6.855-12-15 12-15 12-15z" fill="#F9F5D7"/>
    <path d="M38 15V7l10 4z" fill="#CB241D"/>
    <path d="M20 26v20s-8-4.57-8-10 8-10 8-10z" opacity=".2"/>
    <path d="M20 25v20s-8-4.57-8-10 8-10 8-10z" fill="#F9F5D7"/>
    <path d="M45 42.333S45 41 46.5 41s1.5 1.333 1.5 1.333V45h-3zM50 42.333S50 41 51.5 41s1.5 1.333 1.5 1.333V45h-3zM55 42.333S55 41 56.5 41s1.5 1.333 1.5 1.333V45h-3z" opacity=".4"/>
    <path d="M45.2 39c-2.8 0-2.8 2.643-2.8 6H4s.278.386.846 1H42.4c0-3.357 0-6 2.8-6h12c2.56 0 2.766 1.556 2.784 4.586.003-.06.016-.127.016-.186 0-3.633 0-5.4-2.8-5.4h-12zM38 15s-12 6.855-12 15c0 .168.013.334.023.5C26.497 22.577 38 16 38 16v-1zM38 7v1l8.75 3.5L48 11 38 7zM20 25s-8 4.57-8 10c0 .168.03.333.045.5C12.51 30.294 20 26 20 26v-1z" fill="#F9F5D7" opacity=".1"/>
</svg>
