<svg xmlns="http://www.w3.org/2000/svg" width="64" height="64">
    <path d="M4.012 23.872C4.01 24.428 4 25.07 4 25.586 4 50.72 18.56 61 32 61s28-10.28 28-35.414c0-.514-.01-1.16-.012-1.714C59.874 48.79 45.388 59 32 59 18.613 59 4.126 48.79 4.012 23.872z" opacity=".2" fill-rule="evenodd"/>
    <path d="M6.24 4.442C4 6.727 4 17.662 4 24.586 4 49.72 18.56 60 32 60s28-10.282 28-35.414c0-6.855 0-17.859-2.24-20.144C55.52 2.157 40.68 9.25 36.2 13.82h-8.4C23.32 9.249 8.48 2.157 6.24 4.442z" fill="#504945" fill-rule="evenodd"/>
    <g opacity=".2">
        <path d="M38 47.344C38 50.468 35.314 53 32 53s-6-2.532-6-5.656c0-3.125 12-3.125 12 0z"/>
        <path d="M20 19a10 12 0 0 0-10 12 10 12 0 0 0 10 12 10 12 0 0 0 10-12 10 12 0 0 0-10-12zm0 4a6 8 0 0 1 6 8 6 8 0 0 1-6 8 6 8 0 0 1-6-8 6 8 0 0 1 6-8zM44 19a10 12 0 0 0-10 12 10 12 0 0 0 10 12 10 12 0 0 0 10-12 10 12 0 0 0-10-12zm0 4a6 8 0 0 1 6 8 6 8 0 0 1-6 8 6 8 0 0 1-6-8 6 8 0 0 1 6-8z" fill-rule="evenodd"/>
    </g>
    <g fill="#F9F5D7">
        <path d="M38 46.344C38 49.468 35.314 52 32 52s-6-2.532-6-5.656c0-3.125 12-3.125 12 0z"/>
        <path d="M20 18a10 12 0 0 0-10 12 10 12 0 0 0 10 12 10 12 0 0 0 10-12 10 12 0 0 0-10-12zm0 4a6 8 0 0 1 6 8 6 8 0 0 1-6 8 6 8 0 0 1-6-8 6 8 0 0 1 6-8zM44 18a10 12 0 0 0-10 12 10 12 0 0 0 10 12 10 12 0 0 0 10-12 10 12 0 0 0-10-12zm0 4a6 8 0 0 1 6 8 6 8 0 0 1-6 8 6 8 0 0 1-6-8 6 8 0 0 1 6-8z" fill-rule="evenodd"/>
    </g>
    <path d="M7.625 3.998V4c-.629.016-1.107.156-1.387.441C3.998 6.726 4 17.664 4 24.586c0 .044.003.087.006.129.003-6.935.077-17.075 2.232-19.274.28-.285.758-.425 1.387-.441 4.404-.11 16.256 5.822 20.176 9.82h8.398c4.48-4.57 19.323-11.664 21.563-9.379 2.154 2.198 2.23 12.394 2.232 19.274.003-.043.006-.086.006-.131 0-6.855.002-17.858-2.238-20.143-2.24-2.285-17.083 4.81-21.563 9.38h-8.398c-3.92-4-15.772-9.934-20.176-9.823z" opacity=".1" fill="#F9F5D7" fill-rule="evenodd"/>
</svg>
