<svg xmlns="http://www.w3.org/2000/svg" width="64" height="64" version="1">
    <rect width="58" height="58" x="-62" y="-61" rx="2.9" ry="2.9" transform="matrix(0 -1 -1 0 0 0)" opacity=".2"/>
    <rect width="58" height="58" x="-61" y="-61" rx="2.9" ry="2.9" transform="matrix(0 -1 -1 0 0 0)" fill="#066678"/>
    <path d="M32 14c-15.398 0-15.79.01-16.191.25-.852.51-.809-.122-.809 11.785 0 12.083-.015 11.84.914 14.184 1.07 2.695 2.79 4.973 5.617 7.449 2.372 2.077 5.184 3.958 8.32 5.555 1.062.54 1.61.786 2.149.777.539.009 1.087-.237 2.148-.777 3.137-1.597 5.949-3.478 8.32-5.555 2.827-2.476 4.549-4.754 5.618-7.45.93-2.342.914-2.1.914-14.183 0-11.907.043-11.274-.809-11.785-.4-.24-.793-.25-16.191-.25zm0 6c6.189 0 8.695.01 10.957.027.017 1.602.043 2.338.043 6.008 0 6.044-.014 9.06-.098 10.36-.083 1.298.092.386-.394 1.613-.683 1.721-1.63 3.08-3.992 5.148-1.793 1.57-4.053 3.024-6.516 4.336V20z" opacity=".2"/>
    <path d="M32 13c-15.398 0-15.79.01-16.191.25-.852.51-.809-.122-.809 11.785 0 12.083-.015 11.84.914 14.184 1.07 2.695 2.79 4.973 5.617 7.449 2.372 2.077 5.184 3.958 8.32 5.555 1.062.54 1.61.786 2.149.777.539.009 1.087-.237 2.148-.777 3.137-1.597 5.949-3.478 8.32-5.555 2.827-2.476 4.549-4.754 5.618-7.45.93-2.342.914-2.1.914-14.183 0-11.907.043-11.274-.809-11.785-.4-.24-.793-.25-16.191-.25zm0 6c6.189 0 8.695.01 10.957.027.017 1.602.043 2.338.043 6.008 0 6.044-.014 9.06-.098 10.36-.083 1.298.092.386-.394 1.613-.683 1.721-1.63 3.08-3.992 5.148-1.793 1.57-4.053 3.024-6.516 4.336V19z" fill="#F9F5D7"/>
    <path d="M5.898 3A2.891 2.891 0 0 0 3 5.898v1A2.891 2.891 0 0 1 5.898 4h52.204A2.891 2.891 0 0 1 61 6.898v-1A2.891 2.891 0 0 0 58.102 3H5.898z" opacity=".2" fill="#F9F5D7"/>
</svg>
