<svg xmlns="http://www.w3.org/2000/svg" width="64" height="64">
    <circle cx="32" cy="33" r="28" opacity=".2"/>
    <circle cx="32" cy="32" r="28" fill="#066678"/>
    <path d="M33.4 19l-8.334 25h4.43l8.334-25zM24 25.797l-.857.387L11 31.454l.006 3.831 12.142 5.235.852.38v-4.6l-6.998-2.939L24 30.402zm15 0v4.605l6.998 2.96L39 36.3v4.6l.852-.381 12.142-5.235.006-3.832-12.143-5.27z" opacity=".2"/>
    <path d="M33.4 18l-8.334 25h4.43l8.334-25H33.4zM24 24.797l-.857.387L11 30.454l.006 3.831 12.142 5.235.852.38v-4.6l-6.998-2.939L24 29.402v-4.605zm15 0v4.605l6.998 2.96L39 35.3v4.6l.852-.381 12.142-5.235.006-3.832-12.143-5.27-.857-.386z" fill="#F9F5D7"/>
    <path d="M32 4A28 28 0 0 0 4 32a28 28 0 0 0 .021.586A28 28 0 0 1 32 5a28 28 0 0 1 27.979 27.414A28 28 0 0 0 60 32 28 28 0 0 0 32 4z" fill="#F9F5D7" opacity=".2"/>
</svg>
