<svg xmlns="http://www.w3.org/2000/svg" width="64" height="64">
    <path d="M32 4A29 29 0 0 0 3 33a29 29 0 0 0 29 29 29 29 0 0 0 29-29A29 29 0 0 0 32 4z" opacity=".2"/>
    <path d="M29.1 11.7v4.432c-2.612.158-4.947.599-7.006 1.722C19.3 19.378 17.5 22.575 17.5 26.2c0 3.867 2.495 6.872 5.316 8.165 2.82 1.292 5.924 1.6 8.824 1.962 2.9.363 5.596.78 7.126 1.481 1.53.702 1.934.959 1.934 2.892 0 1.358-.395 2.051-1.716 2.875-1.321.823-3.718 1.475-6.984 1.475-5.075 0-6.782-1.626-7.737-3.059-.955-1.432-.963-2.741-.963-2.741h-5.8s-.008 3.041 1.937 5.959c1.637 2.454 4.816 4.752 9.663 5.426V55.2h5.8v-4.486c2.753-.274 5.16-.975 7.154-2.217C44.72 46.835 46.5 43.902 46.5 40.7c0-3.867-2.495-6.872-5.316-8.165-2.82-1.292-5.924-1.6-8.824-1.962-2.9-.363-5.596-.78-7.126-1.481-1.53-.702-1.934-.959-1.934-2.892 0-2.175.375-2.603 1.569-3.254 1.194-.651 3.7-1.096 7.131-1.096 5.196 0 7.024 1.461 7.884 2.538.861 1.076.816 1.812.816 1.812h5.8s-.045-2.889-2.084-5.438c-1.71-2.136-4.798-3.982-9.516-4.53V11.7z" opacity=".2"/>
    <path d="M32 3A29 29 0 0 0 3 32a29 29 0 0 0 29 29 29 29 0 0 0 29-29A29 29 0 0 0 32 3z" fill="#7CB668"/>
    <path d="M29 11v5.057c-2.544.113-4.863.448-6.973 1.418C19.116 18.813 17 22.03 17 25.75c0 3.934 2.628 6.984 5.535 8.271 2.907 1.288 6.106 1.595 9.106 1.958 3 .362 5.8.78 7.394 1.486 1.593.706 1.965.92 1.965 2.785 0 1.238-.29 1.689-1.693 2.438C37.904 43.435 35.323 44 32 44c-5.197 0-7.17-1.433-8.104-2.488-.934-1.055-.902-1.684-.902-1.684l-5.988.344s.233 2.871 2.398 5.316c1.803 2.035 4.918 3.789 9.596 4.326V55h6v-5.121c2.686-.228 5.082-.803 7.13-1.897 2.786-1.486 4.87-4.41 4.87-7.732 0-3.934-2.628-6.984-5.535-8.271-2.907-1.288-6.106-1.595-9.106-1.958-3-.362-5.8-.78-7.394-1.486C23.372 27.83 23 27.615 23 25.75c0-2.081.26-2.238 1.535-2.824C25.811 22.339 28.506 22 32 22c5.197 0 7.17 1.433 8.104 2.488.934 1.055.902 1.684.902 1.684l5.988-.344s-.233-2.871-2.398-5.316c-1.803-2.035-4.918-3.789-9.596-4.326V11z" opacity=".2"/>
    <path d="M44 25s-.4-7-12-7c-7.25 0-12 .95-12 6.75 0 11.6 24 2.9 24 14.5C44 43.81 39.25 46 32 46c-11.6 0-12-7-12-7v0" fill="none" stroke="#F9F5D7" stroke-width="6" stroke-linejoin="round"/>
    <path fill="#F9F5D7" d="M29 10h6v6h-6zM29 48h6v6h-6z"/>
    <path d="M32 3A29 29 0 0 0 3 32a29 29 0 0 0 .021.408A29 29 0 0 1 32 4a29 29 0 0 1 28.979 28.574A29 29 0 0 0 61 32 29 29 0 0 0 32 3z" opacity=".1" fill="#F9F5D7"/>
</svg>
