<svg xmlns="http://www.w3.org/2000/svg" width="64" height="64" version="1">
    <rect width="56" height="56" x="4" y="5" rx="2.8" ry="2.8" opacity=".2"/>
    <rect width="56" height="56" x="4" y="4" rx="2.8" ry="2.8" fill="#066678"/>
    <path style="isolation:isolate" d="M29.637 23c-.835 4.432-1.803 9.546-2.637 13.975h2.79c.48-2.543.954-5.462 1.429-7.975.949 0 1.849-.033 2.746.008.882.04 1.217.482 1.068 1.377-.205 1.22-.444 2.837-.67 4.054-.155.84-.314 1.682-.478 2.561.913 0 1.788.002 2.662-.012.07-.001.184-.118.205-.2.078-.314.125-.637.184-.956.335-1.81.695-3.817 1.003-5.63.272-1.602-.367-2.62-1.884-2.952-.719-.158-1.47-.177-2.207-.211-.73-.034-1.461-.006-2.22-.006.223-1.19.576-2.853.796-4.033h-2.787zm-12.489 4.004c-.089 0-.179.013-.275.021C16.008 31.455 14.865 36.57 14 41h2.914c.22-1.113.722-2.592.922-3.676.038-.208.121-.259.318-.258.958.005 1.917.025 2.871-.017a9.375 9.375 0 0 0 1.793-.248c2.191-.533 4.409-3.16 4.162-6.453-.126-1.69-1.086-2.734-2.746-3.137a6.974 6.974 0 0 0-1.554-.2c-1.844-.022-3.688-.007-5.532-.007zm23 0c-.089 0-.179.013-.275.021C39.008 31.455 37.865 36.57 37 41h2.914c.22-1.113.722-2.592.922-3.676.038-.208.121-.259.318-.258.958.005 1.917.025 2.871-.017a9.375 9.375 0 0 0 1.793-.248c2.191-.533 4.409-3.16 4.162-6.453-.126-1.69-1.086-2.734-2.746-3.137a6.974 6.974 0 0 0-1.554-.2c-1.844-.022-3.688-.007-5.532-.007zm-20.75 2.033c1.102.065 2.188.066 3.254.211.934.128 1.331.665 1.291 1.604-.025.572-.13 1.45-.289 2-.352 1.223-1.223 1.903-2.474 2.03-.935.097-1.883.084-2.89.124.374-1.92.735-4.056 1.108-5.969zm23 0c1.102.065 2.188.066 3.254.211.934.128 1.331.665 1.291 1.604-.025.572-.13 1.45-.289 2-.352 1.223-1.223 1.903-2.474 2.03-.935.097-1.883.084-2.89.124.374-1.92.735-4.056 1.108-5.969z" opacity=".2" fill-rule="evenodd"/>
    <path style="isolation:isolate" d="M29.637 22c-.835 4.432-1.803 9.546-2.637 13.975h2.79c.48-2.543.954-5.462 1.429-7.975.949 0 1.849-.033 2.746.008.882.04 1.217.482 1.068 1.377-.205 1.22-.444 2.837-.67 4.054-.155.84-.314 1.682-.478 2.561.913 0 1.788.002 2.662-.012.07-.001.184-.118.205-.2.078-.314.125-.637.184-.956.335-1.81.695-3.817 1.003-5.63.272-1.602-.367-2.62-1.884-2.952-.719-.158-1.47-.177-2.207-.21-.73-.035-1.461-.007-2.22-.007.223-1.19.576-2.853.796-4.033h-2.787zm-12.489 4.004c-.089 0-.179.013-.275.021C16.008 30.455 14.865 35.57 14 40h2.914c.22-1.113.722-2.592.922-3.676.038-.208.121-.259.318-.258.958.005 1.917.025 2.871-.017a9.375 9.375 0 0 0 1.793-.248c2.191-.533 4.409-3.16 4.162-6.453-.126-1.69-1.086-2.734-2.746-3.137a6.974 6.974 0 0 0-1.554-.2c-1.844-.022-3.688-.007-5.532-.007zm23 0c-.089 0-.179.013-.275.021C39.008 30.455 37.865 35.57 37 40h2.914c.22-1.113.722-2.592.922-3.676.038-.208.121-.259.318-.258.958.005 1.917.025 2.871-.017a9.375 9.375 0 0 0 1.793-.248c2.191-.533 4.409-3.16 4.162-6.453-.126-1.69-1.086-2.734-2.746-3.137a6.974 6.974 0 0 0-1.554-.2c-1.844-.022-3.688-.007-5.532-.007zm-20.75 2.033c1.102.065 2.188.066 3.254.211.934.128 1.331.665 1.291 1.604-.025.572-.13 1.45-.289 2-.352 1.223-1.223 1.903-2.474 2.03-.935.097-1.883.084-2.89.124.374-1.92.735-4.056 1.108-5.969zm23 0c1.102.065 2.188.066 3.254.211.934.128 1.331.665 1.291 1.604-.025.572-.13 1.45-.289 2-.352 1.223-1.223 1.903-2.474 2.03-.935.097-1.883.084-2.89.124.374-1.92.735-4.056 1.108-5.969z" fill="#F9F5D7" fill-rule="evenodd"/>
    <path d="M6.8 4C5.25 4 4 5.25 4 6.8v1C4 6.25 5.25 5 6.8 5h50.4C58.75 5 60 6.25 60 7.8v-1C60 5.25 58.75 4 57.2 4H6.8z" opacity=".1" fill="#F9F5D7"/>
</svg>
