<svg xmlns="http://www.w3.org/2000/svg" width="64" height="64">
    <circle cx="32" cy="33" r="28" opacity=".2"/>
    <path d="M60 32.001c-1.4 1.4-15.281 3.751-30.745 3.751S5.4 33.402 4 32.002C4 16.536 16.536 4 32 4s28 12.537 28 28.001z" fill="#48B9C7"/>
    <path d="M28.694 25.985c-6.337.088-14.227 1.69-23.092 3.889-.843.21-1.243.306-1.514.358A28.003 28.003 0 0 0 4 32.002c.003 15.417 12.468 27.932 27.885 27.995.063 0 .098.003.161.003C47.491 59.974 60 47.447 60 32.001a28.013 28.013 0 0 0-.197-3.027c-2.715 1.287-5.165 2.046-7.895 2.026-7.235-.056-14.221-4.62-20.594-4.985a50.11 50.11 0 0 0-2.62-.03z" fill="#48B9C7"/>
    <path d="M20.5 32a1.5 1.5 0 0 0-1.5 1.5 1.5 1.5 0 0 0 1.5 1.5 1.5 1.5 0 0 0 1.5-1.5 1.5 1.5 0 0 0-1.5-1.5zM46 38a4 4 0 0 0-4 4 4 4 0 0 0 4 4 4 4 0 0 0 4-4 4 4 0 0 0-4-4zM30 54a2 2 0 0 0-2 2 2 2 0 0 0 2 2 2 2 0 0 0 2-2 2 2 0 0 0-2-2z" opacity=".2"/>
    <circle cx="20.5" cy="32.5" r="1.5" fill="#48B9C7"/>
    <circle cx="46" cy="41" r="4" fill="#48B9C7"/>
    <circle cx="30" cy="55" r="2" fill="#48B9C7"/>
    <path d="M28.693 25.984c-6.337.088-14.227 1.69-23.091 3.889-.844.21-1.242.307-1.514.36A28.013 28.013 0 0 0 4 32.001c0 .22.012.438.018.658.014-.476.031-.953.07-1.428.272-.052.67-.15 1.514-.359 8.864-2.2 16.754-3.801 23.091-3.889a50.14 50.14 0 0 1 2.621.032c6.374.364 13.359 4.928 20.594 4.984 2.73.02 5.18-.738 7.895-2.025.104.87.16 1.743.181 2.619.005-.198.016-.394.016-.592a28.018 28.018 0 0 0-.197-3.027c-2.715 1.287-5.165 2.045-7.895 2.025-7.235-.056-14.22-4.62-20.594-4.984a50.14 50.14 0 0 0-2.62-.032z" opacity=".1"/>
    <path d="M32 4C16.536 4 4 16.537 4 32.002c.006.006.019.013.025.02C4.542 17.011 16.865 5 32 5c15.135 0 27.457 12.01 27.975 27.02.006-.006.02-.013.025-.018C60 16.537 47.464 4 32 4z" fill="#F9F5D7" opacity=".2"/>
</svg>
