<svg xmlns="http://www.w3.org/2000/svg" width="64" height="64" version="1">
    <rect width="56" height="56" x="4" y="5" rx="2.8" ry="2.8" opacity=".2"/>
    <rect width="56" height="56" x="4" y="4" rx="2.8" ry="2.8" fill="#FA4934"/>
    <path d="M42.871 10a.882.882 0 0 0-.871.883V14H20.57l-.23.035s-2.026.292-4.055 1.586C14.257 16.915 12 19.664 12 23.5V42h6V23.5c0-1.764.64-2.264 1.512-2.82.828-.53 1.584-.665 1.664-.68h29.941a.882.882 0 0 0 .625-1.508l-8.234-8.234A.882.882 0 0 0 42.87 10zM46 24v18.5c0 1.764-.64 2.264-1.512 2.82-.828.529-1.584.665-1.664.68H12.883a.882.882 0 0 0-.625 1.508l8.234 8.234a.882.882 0 0 0 .637.258.882.882 0 0 0 .871-.883V52h21.43l.23-.035s2.026-.292 4.055-1.586C49.743 49.085 52 46.336 52 42.499V24h-6zm-19.332 4A2.663 2.663 0 0 0 24 30.668v2.664A2.663 2.663 0 0 0 26.668 36h.664A2.663 2.663 0 0 0 30 33.332v-2.664A2.663 2.663 0 0 0 27.332 28h-.664zm10 0A2.663 2.663 0 0 0 34 30.668v2.664A2.663 2.663 0 0 0 36.668 36h.664A2.663 2.663 0 0 0 40 33.332v-2.664A2.663 2.663 0 0 0 37.332 28h-.664z" opacity=".2" fill-rule="evenodd"/>
    <path d="M15 41V22.5c0-5.6 5.8-6.5 5.8-6.5h23.8" fill="none" stroke="#F9F5D7" stroke-width="6"/>
    <path d="M42.87 9a.882.882 0 0 0-.87.882v8.236a.882.882 0 0 0 .882.882h8.236a.882.882 0 0 0 .624-1.506l-8.236-8.236A.882.882 0 0 0 42.87 9z" fill="#F9F5D7"/>
    <rect width="6" height="8" x="24" y="27" ry="2.667" fill="#F9F5D7"/>
    <path d="M49 23v18.5c0 5.6-5.8 6.5-5.8 6.5H19.4" fill="none" stroke="#F9F5D7" stroke-width="6"/>
    <path d="M21.13 55a.882.882 0 0 0 .87-.882v-8.236a.882.882 0 0 0-.882-.882h-8.236a.882.882 0 0 0-.624 1.506l8.236 8.236a.882.882 0 0 0 .636.258z" fill="#F9F5D7"/>
    <rect width="6" height="8" x="34" y="27" ry="2.667" fill="#F9F5D7"/>
    <path d="M6.8 4C5.25 4 4 5.25 4 6.8v1C4 6.25 5.25 5 6.8 5h50.4C58.75 5 60 6.25 60 7.8v-1C60 5.25 58.75 4 57.2 4H6.8z" opacity=".2" fill="#F9F5D7"/>
</svg>
