<svg xmlns="http://www.w3.org/2000/svg" width="64" height="64">
    <path d="M6.042 9.552v45.764s-.413 2.472 1.355 2.991L24 63l16-5.158 15.54 4.44c2.63.935 2.444-1.868 2.444-1.868V14.286c.243-2.397-2.37-2.892-2.37-2.892L40 7l-16 5.158L8.303 7.665s-2.261-.64-2.261 1.887z" opacity=".2"/>
    <path d="M6.042 8.552v45.764s-.413 2.472 1.355 2.991L24 62l16-5.158 15.54 4.44c2.63.935 2.444-1.868 2.444-1.868V13.286c.243-2.397-2.37-2.892-2.37-2.892L40 6l-16 5.158L8.303 6.665s-2.261-.64-2.261 1.887z" fill="#F9BD2E"/>
    <path d="M38.781 6.395L31.93 8.602c-1.518 1.789-2.407 3.925-2.407 6.941 0 4.136 1.636 5.01 2.168 7 1.012 3.778 1.4 6.44 2.61 9.547 1.663 4.276.259 11.022 2.03 15.273 1.012 2.425 1.551 2.864 4.337 4.137.619.636 1.546 1.907 1.855 2.543.593 1.219.559 2.699.856 3.766l12.16 3.472c.986.351 1.577.176 1.93-.18.304-.306.405-.731.457-1.085.008-.056.042-.125.046-.176v-.004c.024-.248.012-.422.012-.422v-.71C56.704 46.723 48.693 44.865 45.355 42c-3.758-3.227-1.357-6.314-2.832-10.863-.35-1.082-1.236-4.774-1.855-5.41-2.786-1.91-4.333-3.819-5.262-7-1.827-6.26 3.483-10.059 3.375-12.332zM17.97 53.363a3.088 3.088 0 0 0-.825.047c-2.584.487-2.477 3.5-4.953 2.863-1.26-.323-2.982.15-4.086 1.235L24 62l8.879-2.86c-1.932-2.993-7.437-7.445-8.88-4.777-1.895.836-4.146-.852-6.03-1z" fill="#066678"/>
    <path d="M7.793 6.617a2.131 2.131 0 0 0-.488.035c-.065.013-.127.015-.192.036-.04.012-.08.034-.121.05a1.388 1.388 0 0 0-.477.336 1.53 1.53 0 0 0-.242.387c-.031.066-.068.123-.093.2-.08.242-.137.527-.137.89v14.336c.594-.282 1.395-.66 1.812-.66 1.344 0 2.169.318 3.54.136.845-.112 1.423-.934 2.21-1.136.744-.191 1.72-.134 2.434-.5.974-.5 2.342-2 3.094-5.227.217-.934-.266-1.956-.266-2.91 0-.58.594-1.709 1.133-2.578L8.316 6.668l-.011-.004H8.3s-.271-.028-.508-.047z" fill="#7CB668"/>
    <path d="M31.69 26.682l-.619-2.546L27.666 27l.62 2.545z" fill="#8DC07B"/>
    <path d="M14.666 48.636L24 48l3.357-2.545v-6.046L24 41.955l-9.334.954z" fill="#377375"/>
    <path d="M27.538 34.318l-.928-4.709L24 31.455l-4.381.954-1.548-7.954-6.5 1.59 2.476 13.523L24 37.182z" fill="#CB241D"/>
    <path d="M50.571 15.545v5.728l5.262 1.59v-5.727z" fill="#BE4C1D"/>
    <path d="M24 13.636l7.071-2.545v2.545l-1.857.637v.845L24 17.136l-1.595-.318v-3.5z" fill="#48B9C7"/>
    <path d="M46.547 34.955l5.262 3.5 1.857-2.546-5.261-3.5zM53.356 25.408L51.5 27.956l5.261 3.5 1.222-1.676v-1.295zM49.024 31.455l5.262 3.5 1.857-2.546-5.262-3.5z" fill="#97971A"/>
    <path d="M10.52 27.127l-.929.32 2.105 12.407-.29 10.35 1.054-.163.288-10.25zm1.94 22.914l-.022.76-1.053.063.02-.66-.144.024-5.219 3.753v.334s-.11.708.05 1.445l5.48-3.94.617-.193L24 50.864l4.906-3.5-.31-1.592-4.595 3.5-11.5.763z" fill="#665C54"/>
    <ellipse cx="11.912" cy="50.896" rx=".836" ry=".859" fill="#1D2021" stroke="#F9F5D7" stroke-width=".502" stroke-linecap="round" stroke-linejoin="round"/>
    <ellipse cx="28.904" cy="46.441" rx=".836" ry=".859" fill="#1D2021" stroke="#F9F5D7" stroke-width=".502" stroke-linecap="round" stroke-linejoin="round"/>
    <ellipse cx="10.024" cy="27.349" rx=".836" ry=".859" fill="#1D2021" stroke="#F9F5D7" stroke-width=".502" stroke-linecap="round" stroke-linejoin="round"/>
    <ellipse cx="12.191" cy="39.823" rx=".836" ry=".859" fill="#1D2021" stroke="#F9F5D7" stroke-width=".502" stroke-linecap="round" stroke-linejoin="round"/>
    <path d="M6.042 8.552v45.764s-.413 2.472 1.355 2.991L24 62V11.158L8.303 6.665s-2.261-.64-2.261 1.887zM40 56.842l15.54 4.44c2.63.935 2.444-1.868 2.444-1.868V13.286c.243-2.397-2.37-2.892-2.37-2.892L40 6z" opacity=".3" fill="#F9F5D7"/>
    <path d="M50.93 3c-2.376.074-4.486 2.3-5.293 3.75L29.625 36.059l-.457 8.023L29 47l2.285-1.676 6.285-4.613.203-.149L54.13 11.016c1.843-3.135.49-6.8-1.524-7.688A3.82 3.82 0 0 0 50.93 3z" opacity=".1"/>
    <path d="M29.626 35.057l-.46 8.027 2.12 1.24 6.285-4.612z" fill="#A79984"/>
    <path d="M40 6l-16 5.156L8.305 6.664s-2.262-.64-2.262 1.887v1c0-2.527 2.262-1.887 2.262-1.887L24 12.156 40 7l15.613 4.395s2.204.42 2.371 2.351v-.46c.244-2.398-2.37-2.891-2.37-2.891L40 6zm17.984 8.746v.54c.02-.194.015-.37 0-.54zM6.043 54.316s-.052.475-.002 1.028l.002-.028v-1z" opacity=".2" fill="#F9F5D7"/>
    <path d="M29.166 43.084L29 46l2.285-1.676z" fill="#504945"/>
    <path d="M50.929 2.002c-2.375.074-4.485 2.3-5.292 3.75l-16.01 29.305 7.944 4.655.203-.149 16.354-29.549c1.843-3.134.491-6.798-1.523-7.685a3.818 3.818 0 0 0-1.676-.327z" fill="#B57514"/>
</svg>
