<svg xmlns="http://www.w3.org/2000/svg" width="64" height="64">
    <path d="M4.307 57.535l-.183.667C3.71 59.695 5.368 61 6.914 61h50.232c1.546 0 3.203-1.305 2.79-2.798l-.184-.663c-.468.855-1.555 1.463-2.606 1.463H6.914c-1.053 0-2.14-.61-2.607-1.467z" opacity=".2"/>
    <path d="M59.935 57.2L45.967 6.8C45.553 5.305 44.721 4 43.174 4H20.826c-1.548 0-2.38 1.305-2.794 2.8L4.064 57.2C3.65 58.695 5.31 60 6.858 60h50.284c1.548 0 3.208-1.305 2.794-2.8z" fill="#48B9C7"/>
    <path d="M20.826 4c-1.547 0-2.38 1.306-2.795 2.8L4.064 57.2c-.09.326-.067.64.018.937L18.032 7.8C18.444 6.306 19.278 5 20.825 5h22.348c1.548 0 2.379 1.306 2.793 2.8l13.951 50.337c.085-.297.108-.611.018-.938L45.966 6.801C45.554 5.306 44.723 4 43.175 4H20.826z" fill="#F9F5D7" opacity=".2"/>
    <circle cx="32" cy="49" r="8" opacity=".2"/>
    <circle cx="32" cy="48" r="8" fill="#F9F5D7"/>
    <rect width="5.994" height="41.955" x="49.67" y="-11.63" rx="2.883" ry="3.258" transform="rotate(30)" opacity=".2"/>
    <rect width="5.994" height="41.955" x="48.67" y="-13.37" rx="2.883" ry="3.258" transform="rotate(30)" fill="#FA4934"/>
    <path d="M38 5l-6 10-6-10z" opacity=".2"/>
    <path d="M38 4l-6 10-6-10z" fill="#F9F5D7"/>
</svg>
