<svg xmlns="http://www.w3.org/2000/svg" width="64" height="64" version="1">
    <path d="M32 5C16.488 5 4 17.488 4 33s12.488 28 28 28 28-12.488 28-28S47.512 5 32 5z" opacity=".2"/>
    <path d="M32 4C16.488 4 4 16.488 4 32s12.488 28 28 28 28-12.488 28-28S47.512 4 32 4z" fill="#504945"/>
    <path d="M19 15v16.615c0 3.687 1.38 7.239 3.714 9.385L19 47c3.781 2.914 8.332 4 13 4 4.668 0 9.219-1.086 13-4l-3.714-6C43.62 38.854 45 35.302 45 31.615V15h-5v6.647c-1.045-.674-3.077-1.947-5-2.31V15h-6v4.338c-.927.197-3.955 1.635-5 2.31V15zm13 10c3.504 0 5.771 1.615 8 3v5c0 3.512-5.4 6.615-8 8-2.6-1.385-8-4.488-8-8v-5c2.229-1.385 4.496-3 8-3z" opacity=".2"/>
    <path d="M19 14v16.615c0 3.687 1.38 7.239 3.714 9.385L19 46c3.781 2.914 8.332 4 13 4 4.668 0 9.219-1.086 13-4l-3.714-6C43.62 37.854 45 34.302 45 30.615V14h-5v6.647c-1.045-.674-3.077-1.947-5-2.31V14h-6v4.338c-.927.197-3.955 1.635-5 2.31V14zm13 10c3.504 0 5.771 1.615 8 3v5c0 3.512-5.4 6.615-8 8-2.6-1.385-8-4.488-8-8v-5c2.229-1.385 4.496-3 8-3z" fill="#F9F5D7"/>
    <path d="M32 4C16.488 4 4 16.488 4 32c0 .113.011.224.018.336C4.369 17.134 16.71 5 32 5c15.29 0 27.63 12.134 27.982 27.336.007-.112.018-.223.018-.336C60 16.488 47.512 4 32 4z" opacity=".1" fill="#F9F5D7"/>
</svg>
