<svg xmlns="http://www.w3.org/2000/svg" width="64" height="64" version="1">
    <path d="M32 5A28 28 0 0 0 4 33a28 28 0 0 0 28 28c2.667 0 5.24-.397 7.684-1.094a28 28 0 0 0 .109-.027 27.637 27.637 0 0 0 1.703-.566c.31-.112.622-.218.926-.34.547-.22 1.08-.466 1.61-.72.306-.146.616-.283.917-.44.494-.259.97-.542 1.446-.829.324-.195.653-.382.968-.59.459-.301.897-.63 1.336-.956.289-.216.587-.423.867-.649.44-.354.854-.734 1.27-1.113.266-.243.544-.474.8-.727.652-.64 1.27-1.31 1.856-2.011.426-.51.818-1.05 1.207-1.59.144-.199.303-.388.442-.59A27.864 27.864 0 0 0 60 33c0-2.667-.397-5.24-1.094-7.684a28 28 0 0 0-.027-.109 27.637 27.637 0 0 0-.566-1.703c-.112-.31-.218-.622-.34-.926-.22-.547-.466-1.08-.72-1.61-.146-.306-.283-.616-.44-.917-.259-.494-.542-.97-.829-1.446-.195-.324-.382-.653-.59-.968-.301-.459-.63-.897-.957-1.336-.215-.289-.422-.587-.648-.867-.354-.44-.734-.854-1.113-1.27-.243-.266-.474-.544-.727-.8-.64-.652-1.31-1.27-2.012-1.856-.51-.426-1.05-.818-1.59-1.207-.198-.144-.387-.303-.59-.442A27.864 27.864 0 0 0 32 5zm27.578 23.168l.024.133a28 28 0 0 0-.024-.133zm.336 2.719l.02.277a28 28 0 0 0-.02-.277zM36.832 60.578l-.133.024a28 28 0 0 0 .133-.024zm-2.719.336a31.61 31.61 0 0 1-.277.02 28 28 0 0 0 .277-.02z" opacity=".2"/>
    <path d="M32 4A28 28 0 0 0 4 32a28 28 0 0 0 28 28V4zm15.758 4.859c.203.138.39.297.588.44a28 28 0 0 0-.588-.44zm2.18 1.649c.262.22.505.46.76.689a28 28 0 0 0-.76-.69zm2.01 1.856c.252.257.484.533.727.799a28 28 0 0 0-.728-.799zm1.842 2.07c.226.28.43.578.646.867a28 28 0 0 0-.646-.867zm1.605 2.202c.208.315.393.646.588.97a28 28 0 0 0-.588-.97zm1.417 2.414c.157.3.296.612.443.919a28 28 0 0 0-.443-.919zm1.162 2.527c.122.304.227.617.339.927a28 28 0 0 0-.34-.927zm.905 2.63c.096.332.176.67.26 1.006a28 28 0 0 0-.26-1.006zm.697 2.961l.025.134a28 28 0 0 0-.025-.134zm.336 2.718c.008.093.016.186.022.28a28 28 0 0 0-.021-.28zm-4.771 17.872c-.138.203-.297.39-.44.588a28 28 0 0 0 .44-.588zm-1.649 2.18c-.22.262-.46.505-.689.76a28 28 0 0 0 .69-.76zm-1.856 2.01c-.257.252-.533.484-.799.727a28 28 0 0 0 .799-.728zm-2.07 1.842c-.28.226-.578.43-.867.646a28 28 0 0 0 .867-.646zm-2.202 1.605c-.315.208-.646.393-.97.588a28 28 0 0 0 .97-.588zm-2.414 1.417c-.3.157-.612.296-.919.443a28 28 0 0 0 .919-.443zm-2.527 1.162c-.304.122-.617.227-.927.339a28 28 0 0 0 .927-.34zm-2.63.905c-.332.096-.67.176-1.006.26a28 28 0 0 0 1.006-.26zm-2.961.697l-.134.025a28 28 0 0 0 .134-.025zm-2.718.337c-.093.007-.186.015-.28.021a28 28 0 0 0 .28-.021z" fill="#E6D3A3"/>
    <circle cx="32" cy="32" r="22" opacity=".2"/>
    <circle cx="32" cy="32" r="16" opacity=".2"/>
    <circle cx="32" cy="32" r="10" opacity=".2"/>
    <path d="M60 32c0 15.464-12.536 28-28 28V4c15.464 0 28 12.536 28 28z" fill="#8F3F71"/>
    <path d="M32 4A28 28 0 0 0 4 32a28 28 0 0 0 .021.406A28 28 0 0 1 32 5a27.864 27.864 0 0 1 15.758 4.86c.202.138.391.297.59.44.54.39 1.08.782 1.59 1.208a28.115 28.115 0 0 1 2.011 1.855c.253.257.484.535.727.801.38.416.759.83 1.113 1.27.226.28.433.578.649.867.327.439.655.877.957 1.336.207.315.394.644.59.968.286.476.57.952.828 1.446.157.3.294.61.44.918.254.53.5 1.062.72 1.61.122.303.228.615.34.925.202.562.399 1.125.566 1.703a28 28 0 0 1 .027.11 28.085 28.085 0 0 1 1.074 7.163c.008-.16.02-.318.02-.48 0-2.667-.397-5.24-1.094-7.684a28 28 0 0 0-.027-.109 27.637 27.637 0 0 0-.566-1.703c-.112-.31-.218-.622-.34-.926-.22-.547-.466-1.08-.72-1.61-.146-.306-.283-.616-.44-.917-.259-.494-.542-.97-.829-1.446-.195-.324-.382-.653-.59-.968-.301-.459-.63-.897-.956-1.336-.216-.289-.423-.587-.649-.867-.354-.44-.734-.854-1.113-1.27-.243-.266-.474-.544-.727-.8-.64-.652-1.31-1.27-2.011-1.856-.51-.426-1.05-.818-1.59-1.207-.199-.144-.388-.303-.59-.442A27.864 27.864 0 0 0 32 4zm27.578 23.168l.024.133a28 28 0 0 0-.024-.133zm-22.746 34.41a28 28 0 0 1-.133.024l.133-.024zm0 1l-.133.024a28 28 0 0 0 .133-.024z" opacity=".1" fill="#F9F5D7"/>
</svg>
