<svg xmlns="http://www.w3.org/2000/svg" width="64" height="64" version="1">
    <path d="M37.02 3L28.21 15.41a24.68 24.49 0 0 0-7.13 3.898C12.31 17.223 3 24.216 3 24.216l9.031 18.518A24.68 24.49 0 0 0 36.32 63 24.68 24.49 0 0 0 61 38.51a24.68 24.49 0 0 0-9.894-19.57C49.604 8.708 37.021 3 37.021 3z" opacity=".2"/>
    <path d="M37.02 2L28.21 14.41a24.68 24.49 0 0 0-7.13 3.898C12.31 16.223 3 23.216 3 23.216l9.031 18.518A24.68 24.49 0 0 0 36.32 62 24.68 24.49 0 0 0 61 37.51a24.68 24.49 0 0 0-9.894-19.57C49.604 7.708 37.021 2 37.021 2z" fill="#48B9C7"/>
    <path d="M25.387 40.516a5 5.018 0 0 0-1.086 5.182 5 5.018 0 0 0 6.409 3 5 5.018 0 0 0 2.988-6.432A5 5.018 0 0 0 29.548 39l-.016.338-.248 5.43-3.668-4zM43.387 33.517a5 5.018 0 0 0-1.086 5.181 5 5.018 0 0 0 6.409 3 5 5.018 0 0 0 2.988-6.432A5 5.018 0 0 0 47.548 32l-.016.338-.248 5.43-3.668-4z" opacity=".2"/>
    <path d="M25.387 39.517a5 5.018 0 0 0-1.086 5.181 5 5.018 0 0 0 6.409 3 5 5.018 0 0 0 2.988-6.432A5 5.018 0 0 0 29.548 38l-.016.338-.248 5.43-3.668-4zM43.387 32.517a5 5.018 0 0 0-1.086 5.181 5 5.018 0 0 0 6.409 3 5 5.018 0 0 0 2.988-6.432A5 5.018 0 0 0 47.548 31l-.016.338-.248 5.43-3.668-4z" fill="#F9F5D7"/>
    <path d="M50.477 47.001a1.55 1.589 0 0 0-.153.004 1.55 1.589 0 0 0-1.046.54c-.639.725-1.92.887-3.289.695a10.63 10.63 0 0 1-2.366-.617 1.55 1.589 0 0 0-.727-.198 1.55 1.589 0 0 0-1.627 1.698 10.839 10.839 0 0 1-.69 2.214c-.559 1.296-1.375 2.331-2.313 2.51a1.552 1.59 0 0 0 .566 3.127c2.491-.473 3.841-2.626 4.585-4.355.24-.558.413-1.08.557-1.561.477.127.998.25 1.587.333 1.827.256 4.322.207 6.02-1.72a1.55 1.589 0 0 0-1.104-2.67z" opacity=".2"/>
    <path d="M50.477 46.001a1.55 1.589 0 0 0-.153.004 1.55 1.589 0 0 0-1.046.54c-.639.725-1.92.887-3.289.695a10.63 10.63 0 0 1-2.366-.617 1.55 1.589 0 0 0-.727-.198 1.55 1.589 0 0 0-1.627 1.698 10.837 10.837 0 0 1-.69 2.214c-.559 1.296-1.375 2.331-2.313 2.51a1.552 1.59 0 0 0 .566 3.127c2.491-.473 3.841-2.626 4.585-4.355.24-.558.413-1.08.557-1.561.477.127.998.25 1.587.333 1.827.256 4.322.207 6.02-1.72a1.55 1.589 0 0 0-1.104-2.67zM9.516 25c-.788.004-1.626.082-2.516.25 0 0 5.519.554 8.264 3.945C14.106 33.628 12.596 37 12.596 37L18 28.423S15.027 24.965 9.516 25zM37 7l-5 9 3.049-.88S36.586 11.366 37 7z" fill="#F9F5D7"/>
    <path d="M37.021 2L28.21 14.41a24.68 24.49 0 0 0-7.129 3.899C12.31 16.223 3 23.217 3 23.217l.361.742c1.694-1.182 9.897-6.51 17.72-4.65a24.68 24.49 0 0 1 7.128-3.899L37.021 3s12.584 5.707 14.086 15.94a24.68 24.49 0 0 1 9.872 19.167A24.68 24.49 0 0 0 61 37.51a24.68 24.49 0 0 0-9.893-19.57C49.605 7.706 37.021 2 37.021 2z" opacity=".2" fill="#F9F5D7"/>
</svg>
