<svg xmlns="http://www.w3.org/2000/svg" height="64" width="64">
    <g fill="none" stroke="#7B6F64" stroke-width=".768" stroke-linecap="round" stroke-linejoin="round">
        <path d="M10.454 2.638c-1.535 0-2.302.768-2.302 2.303v38.372c0 1.535.767 2.302 2.302 2.302H38.85c1.535 0 2.302-.767 2.302-2.302V14.918L29.64 2.638z" transform="matrix(1.30303 0 0 1.30302 .878 1.062)"/>
        <path d="M29.64 2.638l11.512 12.28h-9.21c-1.534 0-2.302-.768-2.302-2.303z" transform="matrix(1.30303 0 0 1.30302 .878 1.062)"/>
    </g>
    <g transform="scale(1.5 1.5) translate(11 12)" id="g2522">     <path d="M10.95 2.75C6.394 2.75 2.7 3.98 2.7 5.5v11c0 1.52 3.695 2.75 8.25 2.75 4.558 0 8.25-1.23 8.25-2.75v-11c0-1.52-3.692-2.75-8.25-2.75m0 1.375c3.796 0 6.874.617 6.874 1.375s-3.078 1.375-6.875 1.375S4.074 6.258 4.074 5.5s3.078-1.375 6.875-1.375m-6.875 2.89c1.528.77 4.11 1.235 6.875 1.235 2.77 0 5.348-.465 6.875-1.234V11c0 .758-3.078 1.375-6.875 1.375S4.074 11.758 4.074 11zm0 5.5c1.528.77 4.11 1.235 6.875 1.235 2.77 0 5.348-.465 6.875-1.234V16.5c0 .758-3.078 1.375-6.875 1.375s-6.875-.617-6.875-1.375zm0 0" fill="#FA4934"/>
    </g>
</svg>
