<svg xmlns="http://www.w3.org/2000/svg" height="64" width="64">
    <g fill="none" stroke="#7B6F64" stroke-width=".768" stroke-linecap="round" stroke-linejoin="round">
        <path d="M10.454 2.638c-1.535 0-2.302.768-2.302 2.303v38.372c0 1.535.767 2.302 2.302 2.302H38.85c1.535 0 2.302-.767 2.302-2.302V14.918L29.64 2.638z" transform="matrix(1.30303 0 0 1.30302 .878 1.062)"/>
        <path d="M29.64 2.638l11.512 12.28h-9.21c-1.534 0-2.302-.768-2.302-2.303z" transform="matrix(1.30303 0 0 1.30302 .878 1.062)"/>
    </g>
    <g transform="scale(1.5 1.5) translate(11 12)" id="g2522">     <path d="M16.5 5.902L11.402 11l5.098 5.098.488-.485L21.598 11zm0 0" fill="#FD8019"/>
    <path d="M5.5 2.75v16.5h4.813a.689.689 0 0 0 .687-.688v-11a.689.689 0 0 0-.688-.687H6.876V2.75zm1.375 5.5h2.75v9.625h-2.75zm-4.813-5.5a.689.689 0 0 0-.687.688v3.437H0V8.25h1.375v11H2.75v-11h1.375V6.875H2.75v-2.75h1.375V2.75zm0 0" fill="#7B6F64"/>
    </g>
</svg>
