<svg xmlns="http://www.w3.org/2000/svg" height="64" width="64">
    <g fill="none" stroke="#7B6F64" stroke-width=".768" stroke-linecap="round" stroke-linejoin="round">
        <path d="M10.454 2.638c-1.535 0-2.302.768-2.302 2.303v38.372c0 1.535.767 2.302 2.302 2.302H38.85c1.535 0 2.302-.767 2.302-2.302V14.918L29.64 2.638z" transform="matrix(1.30303 0 0 1.30302 .878 1.062)"/>
        <path d="M29.64 2.638l11.512 12.28h-9.21c-1.534 0-2.302-.768-2.302-2.303z" transform="matrix(1.30303 0 0 1.30302 .878 1.062)"/>
    </g>
    <g transform="scale(1.5 1.5) translate(11 12)" id="g2522">     <path d="M11 2.75A8.252 8.252 0 0 0 2.75 11 8.252 8.252 0 0 0 11 19.25 8.252 8.252 0 0 0 19.25 11 8.252 8.252 0 0 0 11 2.75m0 1.375a6.875 6.875 0 1 1 0 13.75 6.875 6.875 0 0 1 0-13.75M11 5.5a5.498 5.498 0 0 0-3.52 1.277l.883 1.055A4.112 4.112 0 0 1 11 6.875 4.126 4.126 0 0 1 15.125 11H16.5c0-3.04-2.46-5.5-5.5-5.5m1.375 2.75l-2.203 4.402a1.382 1.382 0 0 0-.547 1.098c0 .758.617 1.375 1.375 1.375s1.375-.617 1.375-1.375a1.36 1.36 0 0 0-.348-.906zm-6.145.023A5.524 5.524 0 0 0 5.5 11h1.375c0-.719.191-1.422.547-2.043zm0 0" fill="#FA4934"/>
    </g>
</svg>
