<svg xmlns="http://www.w3.org/2000/svg" height="64" width="64">
    <g fill="none" stroke="#7B6F64" stroke-width=".768" stroke-linecap="round" stroke-linejoin="round">
        <path d="M10.454 2.638c-1.535 0-2.302.768-2.302 2.303v38.372c0 1.535.767 2.302 2.302 2.302H38.85c1.535 0 2.302-.767 2.302-2.302V14.918L29.64 2.638z" transform="matrix(1.30303 0 0 1.30302 .878 1.062)"/>
        <path d="M29.64 2.638l11.512 12.28h-9.21c-1.534 0-2.302-.768-2.302-2.303z" transform="matrix(1.30303 0 0 1.30302 .878 1.062)"/>
    </g>
    <g transform="scale(1.5 1.5) translate(11 12)" id="g2522">     <g fill="#7B6F64">
        <path d="M2.75 2.75v16.5h16.5V2.75zm1.375 4.125h13.75v11c-4.883-.05-8.867-.105-13.75 0zm0 0"/>
        <path d="M11.465 14.012l-1.418-1.403.015-.015a9.785 9.785 0 0 0 2.07-3.649h1.638V7.828H9.863V6.711H8.746v1.117h-3.91v1.11h6.238a8.796 8.796 0 0 1-1.77 2.996 8.705 8.705 0 0 1-1.292-1.871H6.898a9.68 9.68 0 0 0 1.665 2.542L5.719 15.41l.793.793 2.793-2.793 1.738 1.738zm3.144-2.832h-1.117l-2.512 6.703h1.118l.625-1.676h2.652l.633 1.676h1.113zm-1.464 3.91l.906-2.422.906 2.422zm0 0"/>
    </g>
    </g>
</svg>
