<svg xmlns="http://www.w3.org/2000/svg" height="64" width="64">
    <g fill="none" stroke="#7B6F64" stroke-width=".768" stroke-linecap="round" stroke-linejoin="round">
        <path d="M10.454 2.638c-1.535 0-2.302.768-2.302 2.303v38.372c0 1.535.767 2.302 2.302 2.302H38.85c1.535 0 2.302-.767 2.302-2.302V14.918L29.64 2.638z" transform="matrix(1.30303 0 0 1.30302 .878 1.062)"/>
        <path d="M29.64 2.638l11.512 12.28h-9.21c-1.534 0-2.302-.768-2.302-2.303z" transform="matrix(1.30303 0 0 1.30302 .878 1.062)"/>
    </g>
    <g transform="scale(1.5 1.5) translate(11 12)" id="g2522">     <path d="M2.879 2.281c-.043 0-.074 0-.094.028-.66.656 8.34 8.918 8.34 8.918l3.375 3.21c-1.09 2.536 2.32 2.579 3.055 3.864.324.566-.07 1.332-.657 1.37 1.168.388 2.739-1.855 2.266-3.12-.562-1.512-1.137-2.164-2.207-2.625-.441-.192-1.57-.203-1.96.015l-3.13-3.453S4.157 2.391 2.88 2.281m1.42 8.024c-.297 0-.39.43-.39 1.023.058 1.168.796 4.578 4.468 7.063 3.094 2.093 8.754 1.336 8.66.148-1.246-1.547-3.328-.582-3.355-4.281-1.207.012-2.512-.18-2.465.328.203 2.137-3.18.598-4.492-1.578-1.317-1.996-2.043-2.703-2.426-2.703m4.824 2.633c-.203 0-.363.066-.441.199-.153.261.097.691.554.957.461.265.957.265 1.11.004.152-.266-.098-.696-.555-.961-.23-.13-.668.004-.668-.2" fill="#7B6F64"/>
    </g>
</svg>
