<svg xmlns="http://www.w3.org/2000/svg" height="64" width="64">
    <g fill="none" stroke="#7B6F64" stroke-width=".768" stroke-linecap="round" stroke-linejoin="round">
        <path d="M10.454 2.638c-1.535 0-2.302.768-2.302 2.303v38.372c0 1.535.767 2.302 2.302 2.302H38.85c1.535 0 2.302-.767 2.302-2.302V14.918L29.64 2.638z" transform="matrix(1.30303 0 0 1.30302 .878 1.062)"/>
        <path d="M29.64 2.638l11.512 12.28h-9.21c-1.534 0-2.302-.768-2.302-2.303z" transform="matrix(1.30303 0 0 1.30302 .878 1.062)"/>
    </g>
    <g transform="scale(1.5 1.5) translate(11 12)" id="g2522">     <path d="M9.625 2.75a2.744 2.744 0 0 0-2.75 2.75H11v1.375H5.5a2.744 2.744 0 0 0-2.75 2.75v2.75a2.744 2.744 0 0 0 2.75 2.75V13.75a4.09 4.09 0 0 1 1.375-3.059l.004-.004a4.34 4.34 0 0 1 .586-.44h.004a4.04 4.04 0 0 1 .648-.329c.04-.016.086-.027.125-.04a4.5 4.5 0 0 1 .594-.175c.258-.05.52-.078.789-.078h5.5V5.5a2.744 2.744 0 0 0-2.75-2.75zm0 .688c.383 0 .688.304.688.687a.684.684 0 0 1-.688.688.684.684 0 0 1-.688-.688c0-.383.305-.688.688-.688M16.5 6.876V8.25c0 1.223-.54 2.309-1.375 3.063a4.34 4.34 0 0 1-.586.44h-.004a4.04 4.04 0 0 1-.648.329 1.618 1.618 0 0 1-.13.04c-.19.07-.386.132-.593.175-.254.05-.516.078-.789.078h-5.5V16.5a2.744 2.744 0 0 0 2.75 2.75h2.75a2.744 2.744 0 0 0 2.75-2.75H11v-1.375h5.5a2.744 2.744 0 0 0 2.75-2.75v-2.75a2.744 2.744 0 0 0-2.75-2.75m-4.125 10.313c.383 0 .688.304.688.687a.684.684 0 0 1-.688.688.686.686 0 0 1-.688-.688c0-.383.31-.688.688-.688" fill="#FD8019"/>
    </g>
</svg>
