<svg xmlns="http://www.w3.org/2000/svg" height="64" width="64">
    <g fill="none" stroke="#7B6F64" stroke-width=".768" stroke-linecap="round" stroke-linejoin="round">
        <path d="M10.454 2.638c-1.535 0-2.302.768-2.302 2.303v38.372c0 1.535.767 2.302 2.302 2.302H38.85c1.535 0 2.302-.767 2.302-2.302V14.918L29.64 2.638z" transform="matrix(1.30303 0 0 1.30302 .878 1.062)"/>
        <path d="M29.64 2.638l11.512 12.28h-9.21c-1.534 0-2.302-.768-2.302-2.303z" transform="matrix(1.30303 0 0 1.30302 .878 1.062)"/>
    </g>
    <g transform="scale(1.5 1.5) translate(11 12)" id="g2522">     <path d="M7.563 2.75a2.06 2.06 0 0 0-.688 4.004v8.496A2.065 2.065 0 0 0 5.5 17.188a2.06 2.06 0 0 0 2.063 2.062 2.06 2.06 0 0 0 .687-4.004V6.754a2.06 2.06 0 0 0-.688-4.004m4.813 0l-2.75 1.926 2.75 2.199V5.5h1.375c.762 0 1.375.613 1.375 1.375v8.375a2.065 2.065 0 0 0-1.375 1.938 2.06 2.06 0 0 0 2.063 2.062 2.06 2.06 0 0 0 .687-4.004V6.875c0-1.523-1.223-2.676-2.75-2.75h-1.375zM7.562 4.125a.689.689 0 0 1 0 1.375.689.689 0 0 1 0-1.375m0 12.375a.689.689 0 0 1 0 1.375.689.689 0 0 1 0-1.375m8.25 0a.689.689 0 0 1 0 1.375.689.689 0 0 1 0-1.375" fill="#7B6F64"/>
    </g>
</svg>
