<svg xmlns="http://www.w3.org/2000/svg" height="64" width="64">
    <g fill="none" stroke="#7B6F64" stroke-width=".768" stroke-linecap="round" stroke-linejoin="round">
        <path d="M10.454 2.638c-1.535 0-2.302.768-2.302 2.303v38.372c0 1.535.767 2.302 2.302 2.302H38.85c1.535 0 2.302-.767 2.302-2.302V14.918L29.64 2.638z" transform="matrix(1.30303 0 0 1.30302 .878 1.062)"/>
        <path d="M29.64 2.638l11.512 12.28h-9.21c-1.534 0-2.302-.768-2.302-2.303z" transform="matrix(1.30303 0 0 1.30302 .878 1.062)"/>
    </g>
    <g transform="scale(1.5 1.5) translate(11 12)" id="g2522">     <path d="M8.938 2.75A3.428 3.428 0 0 0 5.5 6.188a3.428 3.428 0 0 0 3.438 3.437 3.428 3.428 0 0 0 3.437-3.438A3.428 3.428 0 0 0 8.937 2.75m0 1.375c1.145 0 2.063.918 2.063 2.063A2.056 2.056 0 0 1 8.937 8.25a2.056 2.056 0 0 1-2.062-2.063c0-1.144.918-2.062 2.063-2.062M16.5 5.5a2.744 2.744 0 0 0-2.75 2.75A2.744 2.744 0 0 0 16.5 11a2.744 2.744 0 0 0 2.75-2.75A2.744 2.744 0 0 0 16.5 5.5m0 1.375c.762 0 1.375.613 1.375 1.375s-.613 1.375-1.375 1.375a1.372 1.372 0 0 1-1.375-1.375c0-.762.613-1.375 1.375-1.375M8.937 11a6.177 6.177 0 0 0-6.187 6.188v2.062h12.375v-2.063A6.177 6.177 0 0 0 8.937 11m0 1.375a4.8 4.8 0 0 1 4.813 4.813v.687H4.125v-.688a4.8 4.8 0 0 1 4.813-4.812m7.562 0a4.08 4.08 0 0 0-2.078.578c.332.324.637.68.902 1.067a2.744 2.744 0 0 1 3.926 2.48h-2.89c.09.445.14.902.14 1.375h4.125V16.5a4.116 4.116 0 0 0-4.125-4.125" fill="#F9BD2E"/>
    </g>
</svg>
