<svg xmlns="http://www.w3.org/2000/svg" height="64" width="64">
    <g fill="none" stroke="#7B6F64" stroke-width=".768" stroke-linecap="round" stroke-linejoin="round">
        <path d="M10.454 2.638c-1.535 0-2.302.768-2.302 2.303v38.372c0 1.535.767 2.302 2.302 2.302H38.85c1.535 0 2.302-.767 2.302-2.302V14.918L29.64 2.638z" transform="matrix(1.30303 0 0 1.30302 .878 1.062)"/>
        <path d="M29.64 2.638l11.512 12.28h-9.21c-1.534 0-2.302-.768-2.302-2.303z" transform="matrix(1.30303 0 0 1.30302 .878 1.062)"/>
    </g>
    <g transform="scale(1.5 1.5) translate(11 12)" id="g2522">     <path d="M18.563 19.246l-5.063.004-3.445-4.957s-.555-.93-.899-1.2c-.285-.222-.406-.304-.687-.304h-.64l.003 6.453-4.394.004V2.75H13s3.879.695 3.957 4.43c.086 4.164-3.746 5.386-3.746 5.386.523.211 4.754 5.715 5.351 6.676M10.98 6.328l-3.105-.004-.004 2.805h3.11s1.437-.004 1.437-1.426c0-1.45-1.438-1.375-1.438-1.375" fill-rule="evenodd" fill="#48B9C7"/>
    </g>
</svg>
