<svg xmlns="http://www.w3.org/2000/svg" height="64" width="64">
    <g fill="none" stroke="#7B6F64" stroke-width=".768" stroke-linecap="round" stroke-linejoin="round">
        <path d="M10.454 2.638c-1.535 0-2.302.768-2.302 2.303v38.372c0 1.535.767 2.302 2.302 2.302H38.85c1.535 0 2.302-.767 2.302-2.302V14.918L29.64 2.638z" transform="matrix(1.30303 0 0 1.30302 .878 1.062)"/>
        <path d="M29.64 2.638l11.512 12.28h-9.21c-1.534 0-2.302-.768-2.302-2.303z" transform="matrix(1.30303 0 0 1.30302 .878 1.062)"/>
    </g>
    <g transform="scale(1.5 1.5) translate(11 12)" id="g2522">     <g fill="#066678">
        <path d="M11 2.75v1.375H9.625V5.5H11v1.375h1.375V5.5h1.375V4.125h-1.375V2.75zm5.5 0v1.375h-1.375V5.5H16.5v1.375h1.375V5.5h1.375V4.125h-1.375V2.75zm0 0"/>
        <path d="M8.25 8.25c-3.04 0-5.5 2.46-5.5 5.5a5.498 5.498 0 0 0 9.387 3.887l-.973-.973a4.122 4.122 0 0 1-2.914 1.211 4.126 4.126 0 0 1 0-8.25c1.094 0 2.14.438 2.914 1.21l.973-.972A5.5 5.5 0 0 0 8.25 8.25zm0 0" fill-rule="evenodd"/>
    </g>
    </g>
</svg>
