<svg xmlns="http://www.w3.org/2000/svg" height="64" width="64">
    <g fill="none" stroke="#7B6F64" stroke-width=".768" stroke-linecap="round" stroke-linejoin="round">
        <path d="M10.454 2.638c-1.535 0-2.302.768-2.302 2.303v38.372c0 1.535.767 2.302 2.302 2.302H38.85c1.535 0 2.302-.767 2.302-2.302V14.918L29.64 2.638z" transform="matrix(1.30303 0 0 1.30302 .878 1.062)"/>
        <path d="M29.64 2.638l11.512 12.28h-9.21c-1.534 0-2.302-.768-2.302-2.303z" transform="matrix(1.30303 0 0 1.30302 .878 1.062)"/>
    </g>
    <g transform="scale(1.5 1.5) translate(11 12)" id="g2522">     <path d="M9.625 2.75v16.5H11v-8.32a4.8 4.8 0 0 0 3.438 1.449 4.8 4.8 0 0 0 4.812-4.813 4.802 4.802 0 0 0-4.813-4.812A4.783 4.783 0 0 0 11 4.204v-1.45zm4.813 1.375a3.428 3.428 0 0 1 3.437 3.438A3.428 3.428 0 0 1 14.437 11 3.428 3.428 0 0 1 11 7.562a3.428 3.428 0 0 1 3.438-3.437m-10.313 5.5c-.758 0-1.375.617-1.375 1.375s.617 1.375 1.375 1.375S5.5 11.758 5.5 11s-.617-1.375-1.375-1.375" fill="#FA4934"/>
    </g>
</svg>
