<svg xmlns="http://www.w3.org/2000/svg" width="64" height="64" version="1">
    <path d="M4.05 32c-.011.335-.05.663-.05 1 0 15.512 12.488 28 28 28 15.51 0 27.998-12.488 27.998-28 0-.337-.039-.664-.05-1-.528 15.042-12.776 27-27.95 27S4.578 47.042 4.05 32z" opacity=".2"/>
    <rect width="56" height="56" x="4" y="4" rx="27.999" ry="27.999" fill="#7CB668"/>
    <path d="M24.84 15.002c-.456-.013-.885.028-1.17.123-1.4.474-2.28 1.493-2.766 3.195-.42 1.483-.409 4.154.03 6.479.077.403.155.77.173.83.024.083-.125.136-.787.285-3.235.729-5.596 1.814-7.015 3.226-.637.629-.99 1.18-1.196 1.873-.144.482-.144 1.435 0 1.91.397 1.306 1.515 2.534 3.282 3.62 1.226.747 1.593.829 1.99.437.186-.184.228-.27.228-.49 0-.427-.133-.6-.71-.926-3.619-2.01-4.255-4.027-1.838-5.818 1.226-.908 2.94-1.627 5.248-2.184 1.01-.243 1.238-.273 1.238-.142 0 .177.744 2.526 1.129 3.54l.398 1.063-.523.994c-2.092 3.986-3.434 8.05-3.596 11.022-.132 2.29.289 3.927 1.31 4.941 1.118 1.104 2.694 1.34 4.72.7.763-.244 2.278-1.003 3.161-1.596.638-.42.777-.546.862-.766.084-.22.084-.29 0-.521-.126-.345-.392-.536-.752-.536-.234 0-.395.071-.996.475-1.365.914-2.646 1.484-3.71 1.662-1.472.25-2.416-.392-2.849-1.91-.186-.659-.175-2.77.03-3.861.312-1.737.858-3.542 1.64-5.44.463-1.126 1.347-3.012 1.467-3.137.06-.065.14.042.338.493 1.01 2.24 2.556 4.975 4.064 7.187 3.602 5.275 7.544 8.71 10.58 9.201l-.033.006c1.334.213 2.46-.115 3.33-.974.71-.713 1.179-1.714 1.444-3.108.161-.871.161-3.31 0-4.502-.493-3.553-1.803-7.626-3.768-11.683-.306-.635-.48-.79-.877-.79-.445-.005-.807.332-.807.758 0 .15.152.552.405 1.08 2.422 5.095 3.72 10.023 3.588 13.588-.082 2.125-.62 3.401-1.635 3.893-.534.26-1.208.254-2.098-.031-4.083-1.364-9.613-8.185-13.178-16.252l-.355-.805.518-.873c.583-.99 2.055-3.201 2.734-4.11l.457-.603h1.203c7.305 0 14.536 1.63 18.371 4.127.782.51 1.725 1.443 2.008 1.988.205.38.225.48.225.985 0 .493-.02.612-.188.914-.47.89-1.708 1.813-3.3 2.472-.74.309-.938.512-.938.932 0 .355.236.652.59.758.229.065.307.054.716-.106 2.574-1.003 4.336-2.563 4.696-4.14.101-.427.094-1.228-.008-1.643-.192-.814-.876-1.856-1.664-2.556-3.51-3.109-10.958-5.113-19.795-5.32l-.63-.02.737-.819a39.762 39.762 0 0 1 1.592-1.7c2.513-2.521 4.847-4.17 6.885-4.858.65-.225.779-.25 1.453-.25.626 0 .776.02 1.047.156.368.172.781.592.992.99.414.813.554 2.236.356 3.754-.067.522-.122 1.126-.122 1.334 0 .35.013.405.217.576a.623.623 0 0 0 .5.196c.35 0 .673-.183.77-.432.288-.735.438-3.34.252-4.438-.29-1.685-1.023-2.823-2.19-3.375-2.062-.983-5.055-.023-8.549 2.74-1.826 1.448-4.231 3.903-5.89 6.003l-.162.19-.98.054c-.824.047-2.164.177-3.721.361l-.336.041-.145-.812c-.282-1.619-.307-1.862-.307-3.41 0-1.36.019-1.621.15-2.166.326-1.376.97-2.231 1.817-2.409 1.167-.243 2.615.333 4.647 1.82.65.482 1.439.072 1.342-.687-.042-.33-.35-.617-1.383-1.299-.867-.575-1.839-1.05-2.633-1.281a5.442 5.442 0 0 0-1.33-.193zm1.053 11.677c.296-.018.494-.022.494 0 0 .03-.276.452-.62.95-.343.492-.83 1.215-1.081 1.625-.247.397-.488.759-.536.812-.066.07-.163-.12-.457-1.045-.42-1.275-.6-1.962-.547-2.021.067-.067 1.856-.264 2.747-.32zM32 31a2 2 0 1 0 0 4 2 2 0 0 0 0-4z" opacity=".2"/>
    <path d="M24.84 14.002c-.456-.013-.885.028-1.17.123-1.4.474-2.28 1.493-2.766 3.195-.42 1.484-.409 4.154.03 6.479.077.404.155.77.173.83.024.083-.125.136-.787.285-3.235.729-5.596 1.815-7.015 3.227-.637.628-.991 1.179-1.196 1.873-.144.481-.144 1.435 0 1.91.397 1.306 1.515 2.533 3.282 3.619 1.226.747 1.593.83 1.99.437.186-.183.228-.27.228-.49 0-.426-.133-.6-.71-.926-3.619-2.01-4.255-4.026-1.838-5.818 1.226-.908 2.94-1.626 5.248-2.183 1.01-.243 1.238-.274 1.238-.143 0 .178.744 2.527 1.129 3.54l.398 1.063-.523.995c-2.092 3.985-3.434 8.05-3.596 11.021-.132 2.29.289 3.927 1.31 4.941 1.118 1.104 2.694 1.34 4.72.7.763-.243 2.278-1.002 3.161-1.596.638-.42.777-.545.862-.766.084-.22.084-.29 0-.521-.126-.345-.392-.535-.752-.535-.234 0-.395.07-.996.474-1.365.914-2.646 1.485-3.71 1.662-1.472.25-2.416-.391-2.849-1.91-.186-.659-.175-2.77.03-3.861.312-1.737.858-3.542 1.64-5.44.463-1.126 1.347-3.012 1.467-3.136.06-.065.14.041.338.492 1.01 2.241 2.556 4.975 4.064 7.187 3.602 5.275 7.544 8.71 10.58 9.202l-.033.005c1.334.213 2.46-.115 3.33-.974.71-.712 1.179-1.714 1.444-3.108.161-.871.161-3.31 0-4.501-.493-3.553-1.803-7.627-3.768-11.684-.306-.635-.48-.79-.877-.79-.445-.005-.807.332-.807.759 0 .148.152.551.405 1.08 2.422 5.094 3.72 10.022 3.588 13.588-.082 2.124-.62 3.4-1.635 3.892-.534.26-1.208.254-2.098-.031-4.083-1.364-9.613-8.185-13.178-16.252l-.355-.805.518-.873c.583-.99 2.055-3.201 2.734-4.11l.457-.603h1.203c7.305 0 14.536 1.63 18.371 4.127.782.51 1.725 1.444 2.008 1.989.205.38.225.48.225.984 0 .493-.02.612-.188.914-.47.89-1.708 1.814-3.3 2.473-.74.308-.938.51-.938.931 0 .356.236.652.59.758.229.065.307.054.716-.105 2.574-1.004 4.336-2.563 4.696-4.14.101-.428.093-1.229-.008-1.644-.192-.813-.876-1.856-1.664-2.556-3.51-3.108-10.958-5.112-19.795-5.32l-.63-.02.737-.818a39.762 39.762 0 0 1 1.592-1.702c2.513-2.52 4.847-4.17 6.885-4.857.65-.225.779-.25 1.453-.25.626 0 .776.02 1.047.156.368.172.781.593.992.99.414.813.554 2.236.356 3.754-.067.523-.122 1.126-.122 1.334 0 .351.013.405.217.577a.623.623 0 0 0 .5.195c.35 0 .673-.183.77-.432.288-.735.438-3.34.252-4.437-.29-1.686-1.023-2.824-2.19-3.375-2.062-.984-5.055-.023-8.549 2.74-1.826 1.447-4.231 3.902-5.89 6.002l-.162.19-.98.054c-.824.047-2.164.178-3.721.361l-.336.041-.145-.812c-.282-1.619-.307-1.861-.307-3.41 0-1.36.019-1.621.15-2.166.326-1.376.97-2.23 1.817-2.408 1.167-.243 2.615.332 4.647 1.82.65.481 1.439.072 1.342-.688-.042-.33-.35-.617-1.383-1.298-.867-.576-1.839-1.05-2.633-1.282a5.442 5.442 0 0 0-1.33-.193zm1.053 11.678c.296-.02.494-.023.494 0 0 .03-.276.45-.62.949-.343.492-.83 1.215-1.081 1.625-.247.398-.488.76-.536.812-.066.07-.163-.12-.457-1.045-.42-1.275-.6-1.962-.547-2.021.067-.067 1.856-.264 2.747-.32zM32 30a2 2 0 1 0 0 4 2 2 0 0 0 0-4z" fill="#F9F5D7"/>
    <path d="M32 4.002C16.488 4.002 4 16.488 4 32c0 .114.011.224.018.336C4.369 17.135 16.71 5 32 5s27.63 12.135 27.982 27.336c.007-.112.018-.223.018-.336A27.938 27.938 0 0 0 32 4.002z" opacity=".2" fill="#F9F5D7"/>
</svg>
