<svg xmlns="http://www.w3.org/2000/svg" width="64" height="64" version="1">
    <circle cx="32" cy="33" r="28" opacity=".2"/>
    <circle cx="32" cy="32" r="28" fill="#F9F5D7"/>
    <path d="M28.451 5.23c-.848.107-1.68.258-2.502.438-1.198 8.27.202 17.14 4.672 24.932-2.296 3.658-5.051 7.088-8.266 9.603-6.646-8.606-9.005-19.338-7.513-29.326a27.97 27.97 0 0 0-2.688 2.34c-.828 9.924 1.946 19.998 8.137 28.588-3.558 2.501-7.504 4.414-11.652 5.601a28 28 0 0 0 1.431 2.002c9.138-2.91 17.351-8.92 22.62-17.666 4.362 0 8.723.915 12.626 2.287-5 11.694-14.952 19.87-26.521 22.649a28 28 0 0 0 3.537 1.562c10.965-3.645 20.324-11.938 25.05-23.066a41.382 41.382 0 0 1 10.606 7.185 28 28 0 0 0 .918-2.699C51.9 33.488 42.83 29.677 32.69 29.457c-2.296-3.888-3.672-8.005-4.36-12.121a41.251 41.251 0 0 1 4.525-.26c10.05-.024 19.38 3.675 26.511 9.996-.3-1.399-.72-2.748-1.219-4.06-8.36-6.367-18.987-9.506-30.048-7.963-.214-3.2-.205-6.592.353-9.819z" opacity=".2"/>
    <path d="M28.45 4.23c-.847.106-1.679.257-2.501.437-1.198 8.27.203 17.14 4.673 24.932-2.296 3.66-5.052 7.088-8.266 9.603-6.646-8.605-9.006-19.338-7.514-29.326a27.983 27.983 0 0 0-2.688 2.34c-.828 9.925 1.946 20 8.137 28.589-3.713 2.61-7.847 4.59-12.195 5.761.427.701.882 1.381 1.367 2.04 9.382-2.834 17.841-8.924 23.226-17.864 4.363 0 8.724.914 12.627 2.286-5.18 12.115-15.668 20.472-27.77 22.944a27.797 27.797 0 0 0 3.333 1.737c11.59-3.374 21.57-11.918 26.505-23.535a41.343 41.343 0 0 1 10.893 7.451c.33-.905.614-1.829.85-2.775-7.036-6.286-16.193-10.172-26.438-10.394-2.296-3.887-3.672-8.005-4.361-12.121a41.251 41.251 0 0 1 4.525-.26c10.05-.024 19.382 3.676 26.513 9.997-.3-1.4-.721-2.749-1.22-4.06-8.36-6.368-18.987-9.506-30.048-7.963-.214-3.2-.205-6.592.353-9.82z" fill="#504945"/>
    <path d="M32 4A28 28 0 0 0 4 32a28 28 0 0 0 .018.492A28 28 0 0 1 32 5a28 28 0 0 1 27.975 27.492A28 28 0 0 0 60 32 28 28 0 0 0 32 4z" opacity=".2" fill="#F9F5D7"/>
</svg>
