<svg xmlns="http://www.w3.org/2000/svg" width="64" height="64" version="1">
    <path d="M4 56.2v2C4 59.75 5.25 61 6.8 61h50.4c1.55 0 2.8-1.25 2.8-2.8v-2c0 1.55-1.25 2.8-2.8 2.8H6.8C5.25 59 4 57.75 4 56.2z" opacity=".2"/>
    <rect width="56" height="56" x="4" y="4" rx="2.8" ry="2.8" fill="#F9BD2E"/>
    <path d="M46 48.232c-3.232 1.72-6.79 2.754-10.164 2.769-5.482 0-9.825-1.611-13.03-4.834C19.603 42.929 18 38.544 18 33.013c0-5.547 1.602-9.932 4.807-13.155 3.204-3.238 7.547-4.857 13.03-4.857 3.668.041 7.193 1.163 10.163 2.77v7.391c-2.912-1.757-6.338-2.842-9.48-2.86-3.028 0-6.089 1.022-7.823 3.067-1.735 2.045-2.602 4.049-2.602 7.643 0 3.58.867 5.576 2.602 7.62 1.734 2.046 4.795 3.069 7.823 3.069 3.378-.192 7.036-1.144 9.48-2.862z" opacity=".1"/>
    <path d="M46 47.232c-3.232 1.72-6.79 2.754-10.164 2.769-5.482 0-9.825-1.611-13.03-4.834C19.603 41.929 18 37.544 18 32.013c0-5.547 1.602-9.932 4.807-13.155 3.204-3.238 7.547-4.857 13.03-4.857 3.668.041 7.193 1.163 10.163 2.77v7.391c-2.912-1.757-6.338-2.842-9.48-2.86-3.028 0-6.089 1.022-7.823 3.067-1.735 2.045-2.602 4.049-2.602 7.644 0 3.579.867 5.575 2.602 7.62 1.734 2.045 4.795 3.068 7.823 3.068 3.378-.192 7.036-1.144 9.48-2.862z" fill="#3A393A"/>
    <path d="M6.8 4C5.25 4 4 5.25 4 6.8v1.003c0-1.551 1.25-2.801 2.8-2.801h50.4c1.55 0 2.8 1.25 2.8 2.8V6.802C60 5.25 58.75 4 57.2 4H6.8z" opacity=".2" fill="#F9F5D7"/>
</svg>
