<svg xmlns="http://www.w3.org/2000/svg" width="64" height="64" version="1">
    <path fill="#504945" d="M16 20h32v37H16z"/>
    <path d="M9.74 55C8.222 55 7 56.134 7 57.543V61h50v-3.457C57 56.134 55.778 55 54.26 55z" opacity=".2" fill-rule="evenodd"/>
    <path fill="#F9F5D7" d="M13 27h8v25h-8zM43 27h8v25h-8zM28 27h8v25h-8z"/>
    <rect width="44" height="8" x="10" y="22" rx="2.411" ry="2.286" opacity=".2"/>
    <rect width="44" height="8" x="10" y="49" rx="2.411" ry="2.286" fill="#928274"/>
    <rect width="44" height="8" x="10" y="21" rx="2.411" ry="2.286" fill="#928274"/>
    <path d="M29.884 5.912L19.5 11.72 9.15 17.507C6.87 18.7 7.178 18.16 7 20.449v4.193c0 .198.138.358.309.358H56.69c.171 0 .309-.16.309-.358v-4.1c-.005-2.413-.062-1.868-2.234-3.082L44.5 11.719 34.173 5.944c-1.912-1.398-2.375-1.102-4.289-.032z" opacity=".2" fill-rule="evenodd"/>
    <path d="M29.884 4.912L19.5 10.72 9.15 16.507C6.87 17.7 7.178 17.16 7 19.449v4.193c0 .198.138.358.309.358H56.69c.171 0 .309-.16.309-.358v-4.1c-.005-2.413-.062-1.868-2.234-3.082L44.5 10.719 34.173 4.944c-1.912-1.398-2.375-1.102-4.289-.032zM9.74 54C8.222 54 7 55.134 7 56.543V60h50v-3.457C57 55.134 55.778 54 54.26 54z" fill="#F9F5D7" fill-rule="evenodd"/>
    <path d="M32.03 4.002c-.595.033-1.188.375-2.145.91L19.5 10.72 9.15 16.508c-2.279 1.194-1.972.654-2.15 2.941v1c.178-2.287-.129-1.747 2.15-2.941l10.35-5.79 10.385-5.806c1.914-1.07 2.375-1.366 4.287.031L44.5 11.72l10.266 5.74c2.172 1.215 2.229.67 2.234 3.082v-1c-.005-2.413-.062-1.867-2.234-3.082L44.5 10.719 34.172 4.943c-.956-.698-1.549-.974-2.143-.941zM9.74 54C8.222 54 7 55.134 7 56.543v1C7 56.134 8.222 55 9.74 55h44.52c1.518 0 2.74 1.134 2.74 2.543v-1C57 55.134 55.778 54 54.26 54H9.74z" fill="#F9F5D7" fill-rule="evenodd" opacity=".2"/>
</svg>
