<svg xmlns="http://www.w3.org/2000/svg" width="64" height="64" preserveAspectRatio="xMidYMid">
    <path d="M4 48.532v2C4 52.462 5.6 54 7.5 54h49c1.95 0 3.5-1.538 3.5-3.468v-2C60 50.462 58.45 52 56.5 52h-49C5.6 52 4 50.462 4 48.532z" opacity=".2"/>
    <path d="M54.791 51.924L52.151 53H11.647l-1.93-.886c-1.728-.793-3.496-1.057-4.387-2.77L4 46.783v-29.24l1.14-2.634c.746-1.727 1.784-.699 2.487-2.518L8.165 11h47.594l.551 1.013c.908 1.669 1.368 2.23 2.424 3.846L60 17.797v29.304l-.95 2.432c-.702 1.8-2.453 1.655-4.259 2.391z" fill="#F9F5D7"/>
    <path d="M7.488 11.2a3.495 3.495 0 0 0-3.418 2.774v.004c-.06.461-.062.816-.062.816v34.71c0 1.92 1.544 3.518 3.484 3.496h4.516V14.794a2.71 2.71 0 0 0-.07-.637c-.232-.999-1.415-2.125-2.624-2.957z" fill="#8F3F71"/>
    <path d="M7.5 11c-1.95 0-1.573 1.914-1.573 3.796v1C5.927 13.914 5.55 12 7.5 12h49c1.9 0-.755 3.283-.755 5.214v-1c0-1.931.946-2.74.537-4.596L56.145 11h-.363z" opacity=".2" fill="#F9F5D7"/>
    <path d="M55.308 11.5c-1.674.478-3.346 1.424-3.308 2.996V53h4.43c2.018 0 3.57-1.56 3.57-3.446V14.968c0-1.93-1.6-3.468-3.5-3.468z" fill="#8F3F71"/>
    <path d="M56.057 12.015a3.993 3.993 0 0 0-2.489.832L32.01 29.017l-21.558-16.17a3.993 3.993 0 1 0-4.792 6.387l23.954 17.967a3.993 3.993 0 0 0 4.792 0L58.36 19.234a3.993 3.993 0 0 0-2.303-7.22z" opacity=".2" fill-rule="evenodd"/>
    <path d="M56.057 11.015a3.993 3.993 0 0 0-2.489.832L32.01 28.017l-21.558-16.17a3.993 3.993 0 1 0-4.792 6.387l23.954 17.967a3.993 3.993 0 0 0 4.792 0L58.36 18.234a3.993 3.993 0 0 0-2.303-7.22z" fill="#066678" fill-rule="evenodd"/>
</svg>
