<svg xmlns="http://www.w3.org/2000/svg" width="64" height="64" version="1">
    <path d="M4 56v2c0 1.662 1.338 3 3 3h50c1.662 0 3-1.338 3-3v-2c0 1.662-1.338 3-3 3H7c-1.662 0-3-1.338-3-3z" opacity=".2"/>
    <rect width="56" height="56" x="4" y="4" rx="3" ry="3" fill="#066678"/>
    <path d="M7 4C5.338 4 4 5.338 4 7v1c0-1.662 1.338-3 3-3h50c1.662 0 3 1.338 3 3V7c0-1.662-1.338-3-3-3H7z" opacity=".1" fill="#F9F5D7"/>
    <path d="M22.55 12.714l-8.531 11.512 2.41 4.785h25.57c-.242 6.13-.29 7.613-1.598 10.782-.77 1.869-1.744 3.042-3.703 3.957-1.959.915-5.093 1.47-9.855 1.164l-.387 5.984c5.37.346 9.506-.18 12.781-1.71 3.276-1.531 5.5-4.169 6.711-7.106 2.424-5.875 1.773-8.806 2.18-15.899l-.13-3.172H22.384l4.984-6.722z" opacity=".2" fill-rule="evenodd"/>
    <path d="M22.55 11.703l-8.531 11.512L16.429 28h25.57c-.242 6.13-.29 7.613-1.598 10.781-.77 1.87-1.744 3.042-3.703 3.957-1.959.916-5.093 1.471-9.855 1.164l-.387 5.985c5.37.346 9.506-.18 12.781-1.711 3.276-1.53 5.5-4.168 6.711-7.105 2.424-5.876 1.773-8.806 2.18-15.899l-.13-3.174H22.384l4.984-6.722z" fill="#F9F5D7" fill-rule="evenodd"/>
</svg>
