<svg xmlns="http://www.w3.org/2000/svg" width="64" height="64" version="1">
    <rect width="56" height="40" x="4" y="12" rx="2.8" ry="2.8" fill="#504945"/>
    <circle cx="11" cy="22" r="3" opacity=".2"/>
    <circle cx="21" cy="22" r="3" opacity=".2"/>
    <circle cx="31" cy="22" r="3" opacity=".2"/>
    <circle cx="41" cy="22" r="3" opacity=".2"/>
    <circle cx="51" cy="22" r="3" opacity=".2"/>
    <circle cx="17" cy="34" r="3" opacity=".2"/>
    <circle cx="27" cy="34" r="3" opacity=".2"/>
    <circle cx="37" cy="34" r="3" opacity=".2"/>
    <circle cx="47" cy="34" r="3" opacity=".2"/>
    <rect width="40" height="6" x="12" y="43" rx="1.5" ry="1.5" opacity=".2"/>
    <circle cx="11" cy="21" r="3" fill="#F9F5D7"/>
    <circle cx="21" cy="21" r="3" fill="#F9F5D7"/>
    <circle cx="31" cy="21" r="3" fill="#F9F5D7"/>
    <circle cx="41" cy="21" r="3" fill="#F9F5D7"/>
    <circle cx="51" cy="21" r="3" fill="#F9F5D7"/>
    <circle cx="17" cy="33" r="3" fill="#F9F5D7"/>
    <circle cx="27" cy="33" r="3" fill="#F9F5D7"/>
    <circle cx="37" cy="33" r="3" fill="#F9F5D7"/>
    <circle cx="47" cy="33" r="3" fill="#F9F5D7"/>
    <rect width="40" height="6" x="12" y="42" rx="1.5" ry="1.5" fill="#F9F5D7"/>
    <path d="M6.8 12C5.25 12 4 13.25 4 14.801v1A2.796 2.796 0 0 1 6.8 13H57.2a2.796 2.796 0 0 1 2.8 2.801v-1A2.796 2.796 0 0 0 57.2 12H6.8z" opacity=".1" fill="#F9F5D7"/>
    <path d="M4 49.199v1A2.796 2.796 0 0 0 6.8 53H57.2a2.796 2.796 0 0 0 2.8-2.801v-1A2.796 2.796 0 0 1 57.2 52H6.8A2.796 2.796 0 0 1 4 49.199z" opacity=".2"/>
    <circle cx="48" cy="46" r="16" fill="#FD8019"/>
    <path d="M48 40c-4 0-8 2-10 6 2 4 6 6 10 6s8-2 10-6c-2-4-6-6-10-6zm0 2c2.187 0 3.995 1.814 4 3.996V46c0 2.185-1.815 4-4 4-2.184 0-3.997-1.813-4-3.996V46c-.002-2.186 1.818-4 4-4zm0 2a2 2 0 1 0 0 4 2 2 0 0 0 0-4z" fill="#F9F5D7"/>
    <path d="M63.979 46.42A16 16 0 0 1 48 62a16 16 0 0 1-15.979-15.42A16 16 0 0 0 32 47a16 16 0 0 0 16 16 16 16 0 0 0 16-16 16 16 0 0 0-.021-.58z" opacity=".2"/>
</svg>
