<svg xmlns="http://www.w3.org/2000/svg" width="64" height="64" version="1">
    <path d="M4 56v2c0 1.662 1.338 3 3 3h50c1.662 0 3-1.338 3-3v-2c0 1.662-1.338 3-3 3H7c-1.662 0-3-1.338-3-3z" opacity=".2"/>
    <rect width="56" height="56" x="4" y="4" rx="3" ry="3" fill="#504945"/>
    <path d="M7 4C5.338 4 4 5.338 4 7v1c0-1.662 1.338-3 3-3h50c1.662 0 3 1.338 3 3V7c0-1.662-1.338-3-3-3H7z" opacity=".1" fill="#F9F5D7"/>
    <path d="M36 12h8v40l-7.842-1.053z" fill="#CB241D"/>
    <path d="M20 13v40l8-1V13z" opacity=".2"/>
    <path d="M20 12v40l8-1V12z" fill="#CB241D"/>
    <path d="M20 13l16.156 38.949L44 53v-1l-7.842-1.053L36.004 13H36l.082 20.203L28 13h-8z" opacity=".2"/>
    <path d="M20 12l16.158 38.948L44 52 28 12z" fill="#FA4934"/>
</svg>
