<svg xmlns="http://www.w3.org/2000/svg" width="64" height="64" version="1">
    <rect width="58" height="58" x="-62" y="-61" rx="2.9" ry="2.9" transform="matrix(0 -1 -1 0 0 0)" opacity=".2"/>
    <rect width="58" height="58" x="-61" y="-61" rx="2.9" ry="2.9" transform="matrix(0 -1 -1 0 0 0)" fill="#F9BD2E"/>
    <path opacity=".2" fill="#F9F5D7" d="M3 41h58v1H3z"/>
    <path fill="#D79921" d="M3 23h58v18H3z"/>
    <path opacity=".2" d="M3 23h58v1H3z"/>
    <circle cx="31.999" cy="32" r="10.15" fill="#7CB668"/>
    <path d="M23 23v6h6v-6zm6 6v6h6v-6zm6 0h6v-6h-6zm0 6v6h6v-6zm-6 0h-6v6h6z" opacity=".3"/>
    <path d="M32 18a15 15 0 0 0-15 15 15 15 0 0 0 15 15 15 15 0 0 0 8.227-2.473l7.66 7.601a3 3 0 1 0 4.226-4.257l-7.629-7.575A15 15 0 0 0 47 33a15 15 0 0 0-15-15zm0 6a9 9 0 0 1 9 9 9 9 0 0 1-9 9 9 9 0 0 1-9-9 9 9 0 0 1 9-9z" opacity=".2"/>
    <path d="M32 17a15 15 0 0 0-15 15 15 15 0 0 0 15 15 15 15 0 0 0 15-15 15 15 0 0 0-15-15zm0 6a9 9 0 0 1 9 9 9 9 0 0 1-9 9 9 9 0 0 1-9-9 9 9 0 0 1 9-9z" fill="#F9F5D7"/>
    <path d="M41.135 41.202L50 50" fill="none" stroke="#F9F5D7" stroke-width="6" stroke-linecap="round"/>
    <path d="M5.898 3A2.891 2.891 0 0 0 3 5.898v1A2.891 2.891 0 0 1 5.898 4h52.204A2.891 2.891 0 0 1 61 6.898v-1A2.891 2.891 0 0 0 58.102 3H5.898z" opacity=".2" fill="#F9F5D7"/>
</svg>
