<svg xmlns="http://www.w3.org/2000/svg" width="64" height="64" version="1">
    <path d="M4 53v1c0 1.662 1.338 3 3 3h50c1.662 0 3-1.338 3-3v-1c0 1.662-1.338 3-3 3H7c-1.662 0-3-1.338-3-3z" opacity=".2"/>
    <path d="M7 8c-1.662 0-3 1.338-3 3v33h56V11c0-1.662-1.338-3-3-3H7zm52.188 47a2.837 2.837 0 0 1-2 .812L7 56h50c.88 0 1.64-.4 2.188-1z" fill="#B16286"/>
    <path d="M7 8c-1.662 0-3 1.338-3 3v1c0-1.662 1.338-3 3-3h50c1.662 0 3 1.338 3 3v-1c0-1.662-1.338-3-3-3H7z" opacity=".2" fill="#F9F5D7"/>
    <path d="M44 19a8 8 0 1 1 0 16 8 8 0 0 1 0-16z" opacity=".2" fill-rule="evenodd"/>
    <path d="M44 18a8 8 0 1 1 0 16 8 8 0 0 1 0-16z" fill="#FAEEBB" fill-rule="evenodd"/>
    <path d="M4 44v9s0 3.012 3 3l50.2-.2A2.797 2.797 0 0 0 60 53v-9z" fill="#066678"/>
    <path d="M4 44v-1.598s4.039-2.664 5.174-2.897c1.135-.232 2.476-.043 3.854.217 1.378.259 3.435.61 4.078.631.642.022 1.804-.056 3.154-.137 1.35-.08 3.585-.154 4.282-.146.697 0 2.438.096 4.293.21 1.856.113 4.404.302 4.982.355.579.053 1.258.15 2.03.257.77.105 2.106.265 2.579.308.472.043 1.567.194 2.838.31 1.27.118 3.304.157 3.891.114.587-.043 1.818-.477 3.19-.878 1.372-.4 2.884-.766 4.035-.676 1.148.092 7.62 2.332 7.62 2.332V44H10.798z"/>
</svg>
