<svg xmlns="http://www.w3.org/2000/svg" width="64" height="64" version="1">
    <rect width="56" height="56" x="4" y="5" rx="28" ry="28" opacity=".2"/>
    <rect width="56" height="56" x="4" y="4" rx="28" ry="28" fill="#48B9C7"/>
    <path d="M48 33.027L37.003 36 22.667 47l6.308-11-8.974-1-4 4 2-6-2-6 4 4 9.024-1-6.357-11 14.33 11L48 33.028z" opacity=".2"/>
    <path d="M48 32.027L37.003 35 22.667 46l6.308-11-8.974-1-4 4 2-6-2-6 4 4 9.024-1-6.357-11 14.33 11L48 32.028z" fill="#F9F5D7"/>
    <path d="M32 4C16.488 4 4 16.488 4 32c0 .114.011.224.018.336C4.369 17.134 16.71 5 32 5c15.29 0 27.63 12.134 27.982 27.336.007-.112.018-.222.018-.336C60 16.488 47.512 4 32 4z" opacity=".2" fill="#F9F5D7"/>
</svg>
