<svg xmlns="http://www.w3.org/2000/svg" width="64" height="64" version="1">
    <circle cx="-45.962" cy="-10.606" r="23" transform="rotate(-135)" opacity=".2"/>
    <circle cx="-45.255" cy="-9.899" r="23" transform="rotate(-135)" fill="#73C48F"/>
    <path d="M10.36 56.712a23 23 0 0 0 7.593 4.179c.178-.343.568-.54 1.126-.5.378.026.818-.08.977-.24.488-.488.796-1.678.553-2.139-.323-.612.333-.954 1.21-.628.406.15 1.116.125 1.577-.056.463-.181.986-.292 1.164-.246.178.045.522-.114.763-.356.338-.337.346-.655.042-1.364-.217-.508-.545-1.048-.73-1.2-1.06-.878-.563-1.51 1.387-1.766 1.035-.136 1.398-.067 1.63.314.218.354.455.43.868.276.436-.163.762-.04 1.406.52.635.552 1.02.697 1.567.595.399-.074.825-.032.95.092.124.125.576.258 1.004.299.87.08 1.095.226 1.003.65-.12.562.527.865 1.911.895 1.224.026 1.46-.058 1.885-.672.757-1.092 1.076-2.414.79-3.273-.25-.75-.233-.786.39-.804.359-.01.855.091 1.104.224.718.383.618-.136-.24-1.244-.877-1.133-.825-1.81.141-1.837.54-.015.577-.082.42-.766-.306-1.337-1.275-1.674-1.044-.363.149.842-.34.637-.814-.342-.38-.78-.505-.884-1.145-.929-1.313-.094-1.176-1.76.147-1.796.842-.024 1.24-.67.783-1.273-.203-.266-.47-.97-.597-1.566-.127-.595-.328-1.181-.446-1.3-.12-.119-.216-.692-.216-1.274 0-1.18-.254-1.583-.836-1.334-.7.3-.876.638-.925 1.765-.04.897-.587 2.838-.886 3.136-.184.184-.736-.68-.862-1.348a8.178 8.178 0 0 0-.405-1.38c-.153-.365-.092-.962.144-1.444.373-.756.347-.88-.33-1.557l-.735-.735 1.21-1.433c1.456-1.723 1.65-2.173 1.236-2.85-.305-.498-.111-1.548.375-2.034.13-.13.735-.158 1.346-.063.757.118 1.217.035 1.454-.26.296-.37.423-.346.86.16.28.326.913.746 1.404.932.582.22 1.074.597 1.408 1.077.385.552.576.678.759.495.135-.135.551-.222.925-.196.923.066.946-.365.05-.988-.557-.387-.703-.609-.58-.893.258-.605 1.315-.784 1.62-.275.194.324.406.359.792.134.136-.08.279-.121.418-.138a23 23 0 0 0-1.814-3.334c-.074.236-.122.47-.096.624.123.715-.927 1.204-1.641.766-.73-.447-1.019.027-.453.74.497.623.526 1.787.048 1.89-.32.068-.827-.496-1.654-1.837-.374-.605-.941-.706-3.317-.6-1.375.063-2.179-.143-2.733-.697-.211-.211-1.16-.77-2.107-1.244-1.792-.892-2.3-1.433-1.76-1.874 1.122-.917.432-1.539-1.706-1.54-.89 0-1.62-.086-1.622-.19-.009-.4 1.313-.986 2.128-.942 1.034.054 1.37-.228 1.136-.952-.127-.397.034-.78.605-1.434l.78-.892-.68-.68a2.363 2.363 0 0 1-.501-.688A23 23 0 0 0 9.272 22.25c-.283.781-.622 1.084-1.215 1.215a23 23 0 0 0-.839.985c.141.155.286.313.467.48.854.785 1.233 1.81.821 2.222-.087.087-.154.736-.15 1.442.007.8-.137 1.358-.38 1.48-.22.11-.37.497-.341.888.027.381-.09.834-.261 1.004-.273.273-.134.48 1.15 1.703l1.46 1.392 1.382-1.43c2.42-2.505 2.693-3.511 1.15-4.23-.708-.329-1.838-1.744-1.912-2.393-.027-.235.16-.802.418-1.26.257-.458.503-1.45.544-2.203.087-1.527.345-1.898 1.705-2.431 1.186-.466 1.48.017.507.836l-.724.61.724.496c.401.274 1.073.448 1.509.39.62-.08.798-.005.84.358.03.253-.093.605-.269.78-.175.176-.196.545-.05.82.149.277.12.887-.066 1.357-.295.752-.46.907-1.363 1.277-.914.376-1.023.48-1.013.966.01.446.12.57.6.69.48.121.61.277.727.875.078.398.363.948.633 1.218.549.549.448.981-.435 1.864-.816.816-.626 1.598.639 2.65.877.729 1.002.96 1.15 2.107.093.709-.016 2.083-.242 3.057-.226.974-.45 2.004-.498 2.288-.071.409-.343.597-1.327.92l-1.239.403 1.003.763c1.783 1.36 2.304 1.474 1.991.435-.122-.404-.061-.488.377-.52.286-.019.592-.2.678-.401.085-.2.497-.466.912-.589.418-.123.918-.378 1.118-.567.621-.59 2.14-.035 3.233 1.185 1.655 1.849 1.825 1.963 3.024 2.008 1.5.055 1.936-.18 2.244-1.212.3-1.002-.064-1.884-1.196-2.908-1.012-.917-1.036-1.111-.178-1.528.73-.354 1.567.067 1.656.832.067.59 1.402 1.521 2.131 1.486.305-.014.941-.217 1.41-.45.81-.404.907-.382 1.906.441.997.82 1.056.938 1.107 2.194.058 1.401-.332 2.039-1.569 2.572-.548.236-.727.185-1.067-.308-.674-.975-1.286-1.014-2.167-.133-.426.426-.743.909-.701 1.07.04.162-.103.47-.32.688-.217.217-.393.6-.39.85.006.363-.116.432-.619.346-.344-.06-.772-.295-.95-.523-.179-.227-.827-.7-1.44-1.05-.885-.51-1.232-.572-1.693-.3-.875.517-1.87.64-2.236.273-.578-.578-1.95.77-3.366 3.31-.209.374-.166.788.137 1.291.246.408.379.987.294 1.286-.085.298-.045.65.087.783.133.132.234.55.223.927-.01.38.213.919.503 1.21.687.686.226 1.17-.705.739-.984-.456-1.758-1.922-1.46-2.762.405-1.139-.324-1.224-1.621-.19-1.604 1.281-2.517 1.198-4.085-.37l-1.128-1.129v.989c0 .308-.06.624-.157.897zm-5.335-6.358c.06.003.114.01.177.01.763-.009.995.114 1.49.786.862 1.173 1.14.632.509-.99-.342-.876-.428-1.573-.253-2.015.847-2.132 1.206-3.377 1.066-3.68-.284-.614-.883-.55-1.83.197-1.086.857-1.62.734-1.68-.387-.023-.436-.175-.925-.336-1.087-.505-.505-.676-1.08-.402-1.354.144-.145.32-.663.393-1.153.106-.723-.004-1.03-.58-1.606-.706-.707-1.007-1.273-1.403-2.647-.007-.02-.018-.037-.025-.058a23 23 0 0 0 2.874 13.984zM41.19 55.33a23 23 0 0 0 .073-.067 23 23 0 0 0 2.807-3.442c-.35-.829-.608-.897-1.217-.41-.315.252-.785.426-1.047.386-.404-.06-.45.07-.298.87.097.52.034 1.192-.142 1.492-.17.292-.218.749-.176 1.17zm.257-10.495c.136.167.4.27.8.277.841.019 1.603-.873 1.442-1.687-.183-.934-.508-1.04-1.27-.42-.939.765-1.27 1.461-.972 1.83zm-.301-5.22c.171.161.473.225.907.158.46-.071.854-.36 1.3-.954.547-.731.724-.828 1.23-.665.65.21 1.395-.352 1.38-1.04-.015-.685-.436-.93-1.015-.592-.825.483-1.859-.398-1.925-1.639-.029-.53-.13-.884-.226-.788-.095.096-.154.735-.128 1.418.038 1.047-.076 1.362-.725 2.011-.915.916-1.175 1.737-.798 2.092zm6.632 2.434a23 23 0 0 0 .099-.852c-.061.283-.099.574-.099.852zm-2.984-7.977c.11.053.249-.015.43-.196.184-.184.494-.26.689-.169.26.12.524-.056.977-.655.085-.112.16-.195.237-.282a23 23 0 0 0-.33-1.024c-.27.293-.652.572-1.214.84-.953.454-1.139.622-1.06.949.076.306.16.482.27.537z" opacity=".2"/>
    <path d="M25.336 16.002a23 23 0 0 0-16.6 6.734 23 23 0 0 0-6.71 16.573 23 23 0 0 1 6.71-15.573 23 23 0 0 1 32.528 0 23 23 0 0 1 6.71 15.955 23 23 0 0 0-6.71-16.955 23 23 0 0 0-15.928-6.734z" fill="#F9F5D7" opacity=".1"/>
    <path d="M55.82 3.004a12.019 12.019 0 0 0-1.078.023c-6.235.415-15.085 6.686-22.789 14.051.517.164 1.029.342 1.535.543 3.679-3.104 7.645-6.359 10.953-7.797 1.603-.696 4.895-1.975 7.313-2.125 3.09-.19 5.126 1.094 4.402 3.793-.927 3.356-3.884 8.638-8.68 13.95-4.795 5.31-11.326 10.918-16.199 13.495l2.899 5.29c5.701-3.619 11.968-9.168 17.351-15.13 10.425-11.546 13.59-23 7.067-25.581-.801-.318-1.733-.487-2.774-.512z" opacity=".2"/>
    <path d="M55.82 2.003a12.02 12.02 0 0 0-1.077.024c-6.455.429-15.724 7.121-23.61 14.82.508.14 1.009.309 1.508.485 3.904-3.303 8.24-6.96 11.8-8.508 1.603-.697 4.895-1.976 7.313-2.125 3.09-.191 5.126 1.093 4.403 3.793-.927 3.355-3.884 8.638-8.68 13.949-4.796 5.311-11.327 10.92-16.2 13.496l2.9 5.29c5.7-3.619 11.968-9.168 17.35-15.13 10.426-11.546 13.59-23 7.067-25.582-.8-.318-1.732-.487-2.773-.512z" fill="#9D0006"/>
    <circle cx="32" cy="41" r="12" opacity=".2"/>
    <path d="M55.82 2.004a12.019 12.019 0 0 0-1.078.023c-6.455.43-15.723 7.121-23.61 14.82.268.074.53.17.794.257 7.71-7.377 16.573-13.662 22.816-14.077.372-.024.731-.031 1.078-.023 1.041.025 1.973.194 2.774.512 2.171.859 3.264 2.703 3.379 5.205.156-3.011-.927-5.235-3.38-6.205-.8-.318-1.732-.487-2.773-.512zm.44 7.998a4.55 4.55 0 0 1-.104.49c-.927 3.356-3.884 8.638-8.68 13.95-4.795 5.31-11.326 10.918-16.199 13.495l.416.758c4.825-2.665 11.12-8.088 15.784-13.254 4.795-5.31 7.752-10.593 8.68-13.949.149-.558.174-1.053.103-1.49z" opacity=".1" fill="#F9F5D7"/>
    <circle cx="32" cy="40" r="12" fill="#CB241D"/>
    <circle cx="32" cy="41" r="8" opacity=".2"/>
    <circle cx="32" cy="40" r="8" fill="#D79921"/>
    <circle cx="32" cy="41" r="4" opacity=".2"/>
    <circle cx="32" cy="40" r="4" fill="#F9F5D7"/>
    <path d="M32 32a8 8 0 0 0-8 8 8 8 0 0 0 .023.4A8 8 0 0 1 32 33a8 8 0 0 1 7.975 7.477A8 8 0 0 0 40 40a8 8 0 0 0-8-8z" opacity=".2" fill="#F9F5D7"/>
</svg>
