<svg xmlns="http://www.w3.org/2000/svg" width="64" height="64" version="1">
    <path d="M4.043 31.828A28 28 0 0 0 4 33a28 28 0 0 0 28 28 28 28 0 0 0 28-28 28 28 0 0 0-.042-.828A28 28 0 0 1 32 59 28 28 0 0 1 4.044 31.828z" opacity=".2"/>
    <path d="M32 4A28 28 0 0 0 4 32a28 28 0 0 0 28 28 28 28 0 0 0 28-28A28 28 0 0 0 32 4z" fill="#FA4934"/>
    <path d="M32 13a20 20 0 0 1 20 20 20 20 0 0 1-6 14.278V23.832C46 22.262 44.574 21 42.8 21h-1.6c-1.774 0-3.2 1.262-3.2 2.832v6.25l-7.292-4.09-8.576-4.808a1.423 1.381 0 0 0-.678-.184A1.423 1.381 0 0 0 20 22.378v19.24a1.423 1.381 0 0 0 2.132 1.198l8.576-4.812L38 33.918v18.136A20 20 0 0 1 32 53a20 20 0 0 1-20-20 20 20 0 0 1 20-20z" opacity=".2"/>
    <path d="M32 12a20 20 0 0 1 20 20 20 20 0 0 1-6 14.278V22.832C46 21.262 44.574 20 42.8 20h-1.6c-1.774 0-3.2 1.262-3.2 2.832v6.25l-7.292-4.09-8.576-4.808a1.423 1.381 0 0 0-.678-.184A1.423 1.381 0 0 0 20 21.378v19.24a1.423 1.381 0 0 0 2.132 1.198l8.576-4.812L38 32.918v18.136A20 20 0 0 1 32 52a20 20 0 0 1-20-20 20 20 0 0 1 20-20z" fill="#F9F5D7"/>
    <path d="M31.998 4A28 28 0 0 0 4 32a28 28 0 0 0 .021.406A28 28 0 0 1 31.998 5H32a28 28 0 0 1 27.977 27.586 28 28 0 0 0 .021-.586A28 28 0 0 0 32 4h-.002z" opacity=".2" fill="#F9F5D7"/>
</svg>
