<?xml version="1.0" encoding="UTF-8" standalone="no"?>
<svg
   xmlns:dc="http://purl.org/dc/elements/1.1/"
   xmlns:cc="http://creativecommons.org/ns#"
   xmlns:rdf="http://www.w3.org/1999/02/22-rdf-syntax-ns#"
   xmlns:svg="http://www.w3.org/2000/svg"
   xmlns="http://www.w3.org/2000/svg"
   xmlns:xlink="http://www.w3.org/1999/xlink"
   xmlns:sodipodi="http://sodipodi.sourceforge.net/DTD/sodipodi-0.dtd"
   xmlns:inkscape="http://www.inkscape.org/namespaces/inkscape"
   height="48"
   width="48"
   version="1.1"
   id="svg43"
   sodipodi:docname="folder48.svg"
   inkscape:version="0.92.4 5da689c313, 2019-01-14">
  <metadata
     id="metadata47">
    <rdf:RDF>
      <cc:Work
         rdf:about="">
        <dc:format>image/svg+xml</dc:format>
        <dc:type
           rdf:resource="http://purl.org/dc/dcmitype/StillImage" />
      </cc:Work>
    </rdf:RDF>
  </metadata>
  <sodipodi:namedview
     pagecolor="#ffffff"
     bordercolor="#666666"
     borderopacity="1"
     objecttolerance="10"
     gridtolerance="10"
     guidetolerance="10"
     inkscape:pageopacity="0"
     inkscape:pageshadow="2"
     inkscape:window-width="1366"
     inkscape:window-height="692"
     id="namedview45"
     showgrid="true"
     inkscape:zoom="9.8333333"
     inkscape:cx="33.362312"
     inkscape:cy="18.501284"
     inkscape:window-x="0"
     inkscape:window-y="24"
     inkscape:window-maximized="1"
     inkscape:current-layer="g40">
    <inkscape:grid
       type="xygrid"
       id="grid842" />
  </sodipodi:namedview>
  <defs
     id="defs28">
    <linearGradient
       inkscape:collect="always"
       id="linearGradient842">
      <stop
         style="stop-color:#689d6a;stop-opacity:0.2"
         offset="0"
         id="stop838" />
      <stop
         style="stop-color:#8ec07c;stop-opacity:0.2"
         offset="1"
         id="stop840" />
    </linearGradient>
    <linearGradient
       id="d">
      <stop
         offset="0"
         stop-color="#8ec07c"
         id="stop2" />
      <stop
         offset="1"
         stop-color="#689d6a"
         id="stop4" />
    </linearGradient>
    <radialGradient
       gradientTransform="matrix(-0.02812,0,0,0.01093,23.443,38.937)"
       gradientUnits="userSpaceOnUse"
       xlink:href="#a"
       id="g"
       fy="486.648"
       fx="605.714"
       r="117.143"
       cy="486.648"
       cx="605.714" />
    <linearGradient
       id="a">
      <stop
         offset="0"
         id="stop8" />
      <stop
         offset="1"
         stop-opacity="0"
         id="stop10" />
    </linearGradient>
    <radialGradient
       gradientTransform="matrix(0.02812,0,0,0.01093,24.557,38.937)"
       gradientUnits="userSpaceOnUse"
       xlink:href="#b"
       id="f"
       fy="486.648"
       fx="605.714"
       r="117.143"
       cy="486.648"
       cx="605.714" />
    <linearGradient
       id="b">
      <stop
         offset="0"
         id="stop14" />
      <stop
         offset="1"
         stop-opacity="0"
         id="stop16" />
    </linearGradient>
    <linearGradient
       gradientTransform="matrix(0.07248,0,0,0.01093,-2.197,38.937)"
       gradientUnits="userSpaceOnUse"
       xlink:href="#c"
       id="e"
       y2="609.505"
       x2="302.857"
       y1="366.648"
       x1="302.857" />
    <linearGradient
       id="c">
      <stop
         offset="0"
         stop-opacity="0"
         id="stop20" />
      <stop
         offset=".5"
         id="stop22" />
      <stop
         offset="1"
         stop-opacity="0"
         id="stop24" />
    </linearGradient>
    <linearGradient
       xlink:href="#d"
       id="h"
       x1="11.643"
       y1="10.687"
       x2="45"
       y2="40.745"
       gradientUnits="userSpaceOnUse" />
    <linearGradient
       inkscape:collect="always"
       xlink:href="#d"
       id="linearGradient854"
       gradientUnits="userSpaceOnUse"
       x1="11.643"
       y1="10.687"
       x2="45"
       y2="40.745" />
    <linearGradient
       inkscape:collect="always"
       xlink:href="#d"
       id="linearGradient856"
       gradientUnits="userSpaceOnUse"
       x1="11.643"
       y1="10.687"
       x2="45"
       y2="40.745" />
    <linearGradient
       inkscape:collect="always"
       xlink:href="#linearGradient842"
       id="linearGradient844"
       x1="42.999996"
       y1="42"
       x2="3.9999974"
       y2="18"
       gradientUnits="userSpaceOnUse" />
  </defs>
  <g
     id="g40"
     style="fill:none;stroke:url(#h);stroke-width:1.29999995;stroke-miterlimit:4;stroke-dasharray:none"
     transform="translate(2.6135032e-6,-2)">
    <path
       overflow="visible"
       style="color:#000000;overflow:visible;stroke:url(#linearGradient854);stroke-width:1.29999995;stroke-linecap:square;stroke-miterlimit:4;stroke-dasharray:none;marker:none"
       d="m 45.5,15.5 v -3 c 0,-0.554 -0.446,-1 -1,-1 h -23 v -2 c 0,-0.554 -0.446,-1 -1,-1 h -15 c -0.554,0 -1,0.446 -1,1 v 2 h -1 c -0.554,0 -1,0.446 -1,1 v 3"
       id="path36"
       inkscape:connector-curvature="0" />
    <path
       style="stroke:url(#linearGradient856);stroke-width:1.3;stroke-miterlimit:4;stroke-dasharray:none;marker:none;fill-opacity:1;fill:url(#linearGradient844)"
       d="m 2.5,15.5 -1,1 v 26 l 2,2 h 41 l 2,-2 L 46.495,16.084 46.022,15.5 C 31.403,15.58 17.118,15.369 2.5,15.5 Z"
       id="path38"
       inkscape:connector-curvature="0" />
  </g>
  <g
      transform="scale(5.1 5.1) translate(2.6 3.4)"
     id="g8765">
              <g fill="#f2e5bc" fill-opacity=".557">
        <path d="M0 0h4.232v4.233H0z" fill="none"/>
        <path d="M.53 0A.528.528 0 0 0 0 .53v3.174a.528.528 0 1 0 1.059 0V2.646h2.116v1.058a.528.528 0 1 0 1.058 0V.53A.528.528 0 0 0 3.704 0zm.397.53h.264c.074 0 .133.058.133.131v.397h.396c.074 0 .133.06.133.133v.264a.132.132 0 0 1-.133.132h-.396v.397a.132.132 0 0 1-.133.133H.927a.132.132 0 0 1-.132-.133v-.397H.398a.132.132 0 0 1-.133-.132v-.264c0-.074.06-.133.133-.133h.397V.661A.13.13 0 0 1 .927.53zm2.116 0h.264c.074 0 .133.058.133.131v.265a.132.132 0 0 1-.133.132h-.264a.132.132 0 0 1-.132-.132V.661c0-.073.059-.132.132-.132zm-.53.528h.265c.074 0 .133.06.133.133v.264a.132.132 0 0 1-.133.132h-.264a.132.132 0 0 1-.132-.132v-.264c0-.074.059-.133.132-.133zm1.059 0h.265c.073 0 .132.06.132.133v.264a.132.132 0 0 1-.132.132h-.265a.132.132 0 0 1-.132-.132v-.264c0-.074.059-.133.132-.133zm-.529.53h.264c.074 0 .133.059.133.132v.264a.132.132 0 0 1-.133.133h-.264a.132.132 0 0 1-.132-.133V1.72c0-.073.059-.133.132-.133z" fill-opacity="1"/>
    </g>

      </g>
</svg>
