<svg xmlns="http://www.w3.org/2000/svg" width="32" height="32">
    <g fill="none" stroke="#7B6F64" stroke-width="1.535" stroke-linecap="round" stroke-linejoin="round">
        <path d="M6.5 2.5l-1 1v26l1 1h20l.999-1v-19l-8-8z" stroke-width="1.00006785"/>
        <path d="M19.5 2.5l8 8H20.5l-1-1z" stroke-width="1.00006785"/>
    </g>
    <g transform="scale(1 1) translate(5.5 8)" id="g2522">     <path d="M10.945 2.723a4.942 4.942 0 0 0-4.953 4.953c0 1.601.754 3.015 1.926 3.918v7.636l3.027-2.199 3.028 2.2v-7.637a4.93 4.93 0 0 0 1.925-3.918 4.942 4.942 0 0 0-4.953-4.953" fill="#FA4934"/>
    </g>
</svg>
