<svg xmlns="http://www.w3.org/2000/svg" width="32" height="32">
    <g fill="none" stroke="#7B6F64" stroke-width="1.535" stroke-linecap="round" stroke-linejoin="round">
        <path d="M6.5 2.5l-1 1v26l1 1h20l.999-1v-19l-8-8z" stroke-width="1.00006785"/>
        <path d="M19.5 2.5l8 8H20.5l-1-1z" stroke-width="1.00006785"/>
    </g>
    <g transform="scale(1 1) translate(5.5 8)" id="g2522">     <path d="M8.25 2.75A4.098 4.098 0 0 0 5.5 6.621v.524a2.727 2.727 0 0 1-1.375 2.367v2.98A2.721 2.721 0 0 1 5.5 14.855v.524c0 1.8 1.148 3.305 2.75 3.871v-1.5a2.734 2.734 0 0 1-1.375-2.371v-.524A4.09 4.09 0 0 0 4.152 11c1.586-.574 2.723-2.07 2.723-3.86v-.523c0-1.015.555-1.894 1.375-2.367zm5.5 0v1.5a2.734 2.734 0 0 1 1.375 2.371v.524A4.094 4.094 0 0 0 17.848 11c-1.586.574-2.723 2.07-2.723 3.86v.523a2.727 2.727 0 0 1-1.375 2.367v1.504a4.102 4.102 0 0 0 2.75-3.871v-.524c0-1.015.555-1.89 1.375-2.367V9.516A2.734 2.734 0 0 1 16.5 7.145V6.62a4.093 4.093 0 0 0-2.75-3.867" fill="#FD8019"/>
    </g>
</svg>
