<svg xmlns="http://www.w3.org/2000/svg" width="32" height="32">
    <g fill="none" stroke="#7B6F64" stroke-width="1.535" stroke-linecap="round" stroke-linejoin="round">
        <path d="M6.5 2.5l-1 1v26l1 1h20l.999-1v-19l-8-8z" stroke-width="1.00006785"/>
        <path d="M19.5 2.5l8 8H20.5l-1-1z" stroke-width="1.00006785"/>
    </g>
    <g transform="scale(1 1) translate(5.5 8)" id="g2522">     <path d="M16.91 6.133l-4.113.676c.062 2.558-2.664 4.336-5.223-.485l-4.84.68c.754 2.605 3.457 2.926 5.262 4.293-.902 1.289-5 .512-4.89 4.523l4.113-.675c-.059-2.56 4.687-4.711 7.246.105l4.836-.676c-.754-2.613-3.625-2.863-5.43-4.242.895-1.867 3.852-.187 3.04-4.203" fill="#FA4934"/>
    </g>
</svg>
