<svg xmlns="http://www.w3.org/2000/svg" width="32" height="32">
    <g fill="none" stroke="#7B6F64" stroke-width="1.535" stroke-linecap="round" stroke-linejoin="round">
        <path d="M6.5 2.5l-1 1v26l1 1h20l.999-1v-19l-8-8z" stroke-width="1.00006785"/>
        <path d="M19.5 2.5l8 8H20.5l-1-1z" stroke-width="1.00006785"/>
    </g>
    <g transform="scale(1 1) translate(5.5 8)" id="g2522">     <g fill="#7B6F64">
        <path d="M15.957 2.879c-.039.023-.2.219-.36.43l-.292.386-.106-.074c-.144-.098-.285-.117-.418-.058-.09.039-.308.312-1.719 2.171a133.15 133.15 0 0 0-1.617 2.153c.004.015.36.297.793.625l.793.601 1.055-1.386c.578-.766 1.062-1.383 1.074-1.372.035.028.102.63.086.82a2.047 2.047 0 0 1-.09.423c-.074.222-.082.238-1.386 1.965-.723.953-1.325 1.761-1.336 1.796-.032.086.004.254.07.348.11.164.387.215.547.102.11-.082 2.695-3.524 2.777-3.704.242-.511.297-1.171.149-1.82a4.284 4.284 0 0 0-.211-.68c-.024-.05.015-.109.257-.433.227-.305.282-.39.286-.473.007-.168-.043-.265-.207-.394l-.157-.121.313-.414c.254-.34.308-.43.312-.508.02-.34-.336-.563-.613-.383"/>
        <path d="M8.836 11.3c-1.86 2.45-2.125 2.813-2.297 3.126-.34.62-.715 1.57-.96 2.437-.165.555-.169.504.05.387a14.37 14.37 0 0 0 2.098-1.39c.507-.43.593-.54 2.753-3.383l2.075-2.735-.797-.605a31.467 31.467 0 0 0-.809-.606c-.008 0-.96 1.25-2.113 2.77m2.074 3.578c-.32.066-.68.344-.851.664a3.218 3.218 0 0 0-.168.414 3.364 3.364 0 0 1-.086.27c-.024.03-.64.18-1 .242-.852.148-1.082.203-1.164.281-.164.152-.04.305.191.234.063-.02.324-.07.578-.113.254-.043.64-.125.86-.172.222-.054.406-.086.414-.078.011.016-.028.188-.086.39l-.106.372-.23.101a2.824 2.824 0 0 0-.407.22c-.289.19-.343.429-.14.585.11.082.418.082.613 0 .168-.078.266-.187.399-.465.07-.148.125-.222.168-.234.035-.012.34-.07.68-.14.34-.071.648-.134.69-.141.063-.016.07-.016.051.046-.011.04-.066.149-.125.243a.665.665 0 0 0-.105.254c0 .097.078.191.144.168a.15.15 0 0 1 .075-.02c.015 0 .086-.05.152-.11.125-.117.434-.675.434-.792 0-.059.046-.075.074-.028.008.016.082.043.156.063.11.027.14.05.14.097 0 .098.157.235.298.266.109.016.246 0 .394-.066.055-.024.055-.016.04.066a2.08 2.08 0 0 1-.2.352c-.203.3-.45.785-.516.996-.05.183-.03.316.067.383.086.054.226.03.3-.047.067-.075.418-.817.547-1.157.094-.238.137-.3.348-.523.172-.184.227-.227.191-.156-.062.133-.058.234.008.297.145.132.356 0 .54-.328.109-.2.187-.258.59-.446l.21-.097-.023.113a2.31 2.31 0 0 1-.157.39c-.148.305-.175.5-.09.668.063.114.122.114.407.016.394-.133.91-.437 1.043-.613.183-.246.238-.485.125-.567-.113-.082-.176-.047-.324.164-.196.293-.434.516-.664.633-.11.055-.204.094-.215.082-.012-.011.234-.676.367-.988a.641.641 0 0 0 .05-.18c0-.086-.109-.183-.202-.183-.043 0-.247.082-.45.187-.425.211-.394.227-.289-.168.067-.242.043-.308-.101-.324-.145-.016-.2.031-.328.262-.086.16-.196.289-.407.488-.28.258-.293.266-.36.223-.1-.075-.155-.063-.398.058-.234.117-.312.133-.37.063-.047-.059.027-.09.46-.176.414-.078.47-.102.47-.188 0-.136-.118-.273-.321-.359-.352-.16-.39-.168-.547-.129-.164.043-.414.281-.45.43-.03.152-.136.11-.136-.063 0-.07-.086-.25-.137-.28-.105-.071-.273.081-.402.366l-.106.22-.226.05a98.81 98.81 0 0 1-1.274.258c-.074.015-.085.015-.07-.035.012-.032.047-.168.086-.305.098-.383.125-.434.262-.485a12.7 12.7 0 0 0 .875-.37c.066-.036.207-.141.308-.235.313-.29.364-.559.141-.758a.96.96 0 0 0-.18-.12 1.332 1.332 0 0 0-.53-.032zm.395.426c.062.062.062.062.008.183a.681.681 0 0 1-.231.235c-.187.129-.777.367-.797.324-.027-.07.16-.496.281-.629.164-.184.211-.203.465-.188.164.016.23.024.274.075m-2.012 2.57c-.04.078-.145.133-.203.113-.07-.031-.05-.066.058-.12.141-.075.184-.071.145.01zm0 0"/>
    </g>
    </g>
</svg>
