<svg xmlns="http://www.w3.org/2000/svg" width="32" height="32">
    <g fill="none" stroke="#7B6F64" stroke-width="1.535" stroke-linecap="round" stroke-linejoin="round">
        <path d="M6.5 2.5l-1 1v26l1 1h20l.999-1v-19l-8-8z" stroke-width="1.00006785"/>
        <path d="M19.5 2.5l8 8H20.5l-1-1z" stroke-width="1.00006785"/>
    </g>
    <g transform="scale(1 1) translate(5.5 8)" id="g2522">     <path d="M2.75 2.75v12.363l-1.375 1.375v.012H2.75v2.75h16.5v-4.121h1.375v-.016l-1.375-1.375V2.75zm1.375 1.375h13.75v8.238l-5.492-5.488h-.008v.004h-.008l-3.433 3.426-.68-.68h-.008l-4.121 4.117zM6.875 5.5c-.762 0-1.375.613-1.375 1.375S6.113 8.25 6.875 8.25 8.25 7.637 8.25 6.875 7.637 5.5 6.875 5.5m5.5 3.313l5.5 5.5v.812h-4.113L9.91 11.277zm-4.125 2.75l3.563 3.562H4.686zM4.125 16.5h9.063v.004h1.937V16.5h2.75v1.375H4.125zm0 0" fill="#48B9C7"/>
    </g>
</svg>
