<svg xmlns="http://www.w3.org/2000/svg" width="32" height="32">
    <g fill="none" stroke="#7B6F64" stroke-width="1.535" stroke-linecap="round" stroke-linejoin="round">
        <path d="M6.5 2.5l-1 1v26l1 1h20l.999-1v-19l-8-8z" stroke-width="1.00006785"/>
        <path d="M19.5 2.5l8 8H20.5l-1-1z" stroke-width="1.00006785"/>
    </g>
    <g transform="scale(1 1) translate(5.5 8)" id="g2522">     <path d="M6.875 2.75A4.116 4.116 0 0 0 2.75 6.875V8.25l6.875 11V11h5.5a4.116 4.116 0 0 0 4.125-4.125 4.116 4.116 0 0 0-4.125-4.125zm8.25 1.375a2.749 2.749 0 1 1 0 5.5 2.749 2.749 0 1 1 0-5.5" fill="#066678"/>
    </g>
</svg>
