<svg xmlns="http://www.w3.org/2000/svg" width="32" height="32">
    <g fill="none" stroke="#7B6F64" stroke-width="1.535" stroke-linecap="round" stroke-linejoin="round">
        <path d="M6.5 2.5l-1 1v26l1 1h20l.999-1v-19l-8-8z" stroke-width="1.00006785"/>
        <path d="M19.5 2.5l8 8H20.5l-1-1z" stroke-width="1.00006785"/>
    </g>
    <g transform="scale(1 1) translate(5.5 8)" id="g2522">     <path d="M11 2.75c-4.555 0-8.25 1.23-8.25 2.75v11c0 1.52 3.695 2.75 8.25 2.75s8.25-1.23 8.25-2.75v-11c0-1.52-3.695-2.75-8.25-2.75m0 1.375c3.797 0 6.875.617 6.875 1.375S14.797 6.875 11 6.875 4.125 6.258 4.125 5.5 7.203 4.125 11 4.125m-6.875 2.89C5.648 7.786 8.23 8.25 11 8.25c2.766 0 5.348-.465 6.875-1.234V11c0 .758-3.078 1.375-6.875 1.375S4.125 11.758 4.125 11zm0 5.5c1.523.77 4.105 1.235 6.875 1.235 2.766 0 5.348-.465 6.875-1.234V16.5c0 .758-3.078 1.375-6.875 1.375s-6.875-.617-6.875-1.375zm0 0" fill="#8F3F71"/>
    </g>
</svg>
