<svg xmlns="http://www.w3.org/2000/svg" width="32" height="32">
    <g fill="none" stroke="#7B6F64" stroke-width="1.535" stroke-linecap="round" stroke-linejoin="round">
        <path d="M6.5 2.5l-1 1v26l1 1h20l.999-1v-19l-8-8z" stroke-width="1.00006785"/>
        <path d="M19.5 2.5l8 8H20.5l-1-1z" stroke-width="1.00006785"/>
    </g>
    <g transform="scale(1 1) translate(5.5 8)" id="g2522">     <path d="M4.125 2.75v4.125h-2.75v10.313c0 1.144.918 2.062 2.063 2.062h17.187V2.75zM5.5 4.125h13.75v13.75H5.5zM6.875 5.5v1.375h11V5.5zM2.75 8.25h1.375v9.625h-.688a.684.684 0 0 1-.687-.688zm4.125 0v5.5h5.5v-5.5zm6.875 0v1.375h4.125V8.25zm0 4.125v1.375h4.125v-1.375zm-6.875 2.75V16.5h11v-1.375zm0 0" fill="#7B6F64"/>
    </g>
</svg>
