<svg xmlns="http://www.w3.org/2000/svg" width="32" height="32">
    <g fill="none" stroke="#7B6F64" stroke-width="1.535" stroke-linecap="round" stroke-linejoin="round">
        <path d="M6.5 2.5l-1 1v26l1 1h20l.999-1v-19l-8-8z" stroke-width="1.00006785"/>
        <path d="M19.5 2.5l8 8H20.5l-1-1z" stroke-width="1.00006785"/>
    </g>
    <g transform="scale(1 1) translate(5.5 8)" id="g2522">     <path d="M6.875 2.754a4.126 4.126 0 0 0 0 8.25 4.126 4.126 0 0 0 0-8.25M11 6.879a4.126 4.126 0 0 0 8.25 0 4.126 4.126 0 0 0-8.25 0m-4.125-2.75a2.749 2.749 0 1 1-1.887 4.746 2.063 2.063 0 1 0-.004-3.992 2.75 2.75 0 0 1 1.891-.754m8.25 0a2.749 2.749 0 1 1-1.887 4.746 2.063 2.063 0 1 0-.004-3.992 2.75 2.75 0 0 1 1.891-.754m1.484 8.457c-1.285.73-3.379 1.168-5.609 1.168-1.918 0-3.746-.32-5.047-.887l-.863 1.008c.527.273 1.14.488 1.785.676v1.953c0 1.516 1.23 2.75 2.75 2.75a2.76 2.76 0 0 0 2.063-.938 2.76 2.76 0 0 0 2.062.938c1.52 0 2.75-1.234 2.75-2.75v-2.442a7.363 7.363 0 0 0 1.035-.546zm-1.484 1.96v1.958a1.375 1.375 0 1 1-2.75 0V15.05c.98-.086 1.898-.254 2.75-.504m-6.875.328c.879.156 1.8.254 2.75.254v1.375a1.375 1.375 0 1 1-2.75 0zm0 0" fill="#7B6F64"/>
    </g>
</svg>
