<svg xmlns="http://www.w3.org/2000/svg" width="32" height="32">
    <g fill="none" stroke="#7B6F64" stroke-width="1.535" stroke-linecap="round" stroke-linejoin="round">
        <path d="M6.5 2.5l-1 1v26l1 1h20l.999-1v-19l-8-8z" stroke-width="1.00006785"/>
        <path d="M19.5 2.5l8 8H20.5l-1-1z" stroke-width="1.00006785"/>
    </g>
    <g transform="scale(1 1) translate(5.5 8)" id="g2522">     <path d="M2.75 2.75v16.5h16.5V2.75zm1.375 4.125h13.75v11H4.125zM8.25 8.25v4.125H6.875v.023l4.102 4.102h.043l4.105-4.102v-.023H13.75V8.25zm1.375 1.375h2.75v2.75h.824L11 14.578l-2.2-2.203h.825zm0 0" fill="#7B6F64"/>
    </g>
</svg>
