<svg xmlns="http://www.w3.org/2000/svg" width="32" height="32">
    <g fill="none" stroke="#7B6F64" stroke-width="1.535" stroke-linecap="round" stroke-linejoin="round">
        <path d="M6.5 2.5l-1 1v26l1 1h20l.999-1v-19l-8-8z" stroke-width="1.00006785"/>
        <path d="M19.5 2.5l8 8H20.5l-1-1z" stroke-width="1.00006785"/>
    </g>
    <g transform="scale(1 1) translate(5.5 8)" id="g2522">     <path d="M4.125 4.125c-.762 0-1.375.613-1.375 1.375v11c0 .762.613 1.375 1.375 1.375h13.75c.762 0 1.375-.613 1.375-1.375v-11c0-.762-.613-1.375-1.375-1.375zM11.688 5.5c.382 0 .687.305.687.688a.684.684 0 0 1-.688.687.684.684 0 0 1-.687-.688c0-.382.305-.687.688-.687m2.75 0c.382 0 .687.305.687.688a.684.684 0 0 1-.688.687.684.684 0 0 1-.687-.688c0-.382.305-.687.688-.687m2.75 0c.382 0 .687.305.687.688a.684.684 0 0 1-.688.687.684.684 0 0 1-.687-.688c0-.382.305-.687.688-.687M4.124 8.25h13.75v8.25H4.125zm0 0" fill="#7CB668"/>
    </g>
</svg>
