<svg xmlns="http://www.w3.org/2000/svg" width="64" height="64" version="1">
    <path d="M4 56.2v2C4 59.75 5.25 61 6.8 61h50.4c1.55 0 2.8-1.25 2.8-2.8v-2c0 1.55-1.25 2.8-2.8 2.8H6.8C5.25 59 4 57.75 4 56.2z" opacity=".2"/>
    <rect width="56" height="56" x="4" y="4" rx="2.8" ry="2.8" fill="#7CB668"/>
    <path d="M60 15V7.8C60 6.25 58.75 5 57.2 5H6.8A2.794 2.794 0 0 0 4 7.8V15z" opacity=".2"/>
    <path d="M34.796 38.636c0 1.914.052 3.506-.938 5.202-.797 1.378-2.063 2.227-3.475 2.227-1.928 0-3.047-1.433-3.047-3.55 0-4.179 3.833-4.94 7.461-4.94v1.062m5.064 11.947c-.329.29-.809.312-1.184.12-1.666-1.35-1.966-1.98-2.886-3.27C33.037 50.18 31.091 51 27.515 51 23.291 51 20 48.456 20 43.364c0-3.977 2.21-6.69 5.35-8.014 2.72-1.17 6.53-1.378 9.442-1.701v-.635c0-1.165.095-2.543-.603-3.55-.615-.903-1.787-1.274-2.82-1.274-1.915 0-3.621.958-4.037 2.944-.088.442-.415.875-.873.897l-4.872-.51c-.408-.092-.86-.416-.75-1.028C21.962 24.74 27.296 23 32.066 23c2.444 0 5.638.634 7.562 2.439 2.444 2.226 2.21 5.197 2.21 8.43v7.636c0 2.298.972 3.303 1.893 4.546.323.438.393.973-.012 1.302a237.26 237.26 0 0 0-3.85 3.254l-.018-.017" opacity=".2" fill-rule="evenodd"/>
    <path d="M34.796 37.636c0 1.915.052 3.507-.938 5.203-.797 1.378-2.063 2.226-3.475 2.226-1.928 0-3.047-1.432-3.047-3.55 0-4.178 3.833-4.938 7.461-4.938v1.061m5.064 11.946c-.329.29-.809.313-1.184.12-1.666-1.35-1.966-1.98-2.886-3.27-2.754 2.747-4.7 3.567-8.276 3.567C23.291 50 20 47.457 20 42.365c0-3.977 2.21-6.69 5.35-8.014 2.72-1.171 6.53-1.378 9.442-1.702v-.634c0-1.165.095-2.543-.603-3.55-.615-.903-1.787-1.274-2.82-1.274-1.915 0-3.621.958-4.037 2.943-.088.443-.415.876-.873.898l-4.872-.51c-.408-.092-.86-.416-.75-1.028C21.962 23.741 27.296 22 32.066 22c2.444 0 5.638.635 7.562 2.44 2.444 2.226 2.21 5.196 2.21 8.43v7.636c0 2.298.972 3.303 1.893 4.545.323.439.393.973-.012 1.303a237.266 237.266 0 0 0-3.85 3.254l-.018-.017" fill="#F9F5D7" fill-rule="evenodd"/>
    <path d="M60 14V6.8C60 5.25 58.75 4 57.2 4H6.8A2.794 2.794 0 0 0 4 6.8V14z" fill="#7CB668"/>
    <path d="M6.8 4C5.25 4 4 5.25 4 6.8v1.003c0-1.551 1.25-2.801 2.8-2.801h50.4c1.55 0 2.8 1.25 2.8 2.8V6.802C60 5.25 58.75 4 57.2 4H6.8z" opacity=".2" fill="#F9F5D7"/>
</svg>
