<svg xmlns="http://www.w3.org/2000/svg" width="64" height="64" version="1">
    <rect width="48" height="34" x="8" y="3" rx="2.5" ry="2.5" fill="#066678"/>
    <rect width="48" height="34" x="8" y="8" rx="2.5" ry="2.5" opacity=".1"/>
    <rect width="48" height="34" x="8" y="9" rx="2.5" ry="2.5" fill="#7CB668"/>
    <rect width="48" height="34" x="8" y="14" rx="2.5" ry="2.5" opacity=".1"/>
    <rect width="48" height="34" x="8" y="15" rx="2.5" ry="2.5" fill="#FECE4F"/>
    <rect width="56" height="40" x="4" y="22" rx="3" ry="3" opacity=".2"/>
    <rect width="56" height="40" x="4" y="21" rx="3" ry="3" fill="#928274"/>
    <rect width="20" height="6" x="22" y="38" rx="2" ry="2" opacity=".2"/>
    <rect width="20" height="6" x="22" y="37" rx="2" ry="2" fill="#F9F5D7"/>
    <path d="M10.5 3A2.495 2.495 0 0 0 8 5.5v1C8 5.115 9.115 4 10.5 4h43C54.885 4 56 5.115 56 6.5v-1C56 4.115 54.885 3 53.5 3h-43zM10.5 9A2.495 2.495 0 0 0 8 11.5v1c0-1.385 1.115-2.5 2.5-2.5h43c1.385 0 2.5 1.115 2.5 2.5v-1c0-1.385-1.115-2.5-2.5-2.5zM10.5 15A2.495 2.495 0 0 0 8 17.5v1c0-1.385 1.115-2.5 2.5-2.5h43c1.385 0 2.5 1.115 2.5 2.5v-1c0-1.385-1.115-2.5-2.5-2.5z" fill="#F9F5D7" opacity=".1"/>
    <g>
        <circle cx="48" cy="47" r="16" opacity=".2"/>
        <circle cx="48" cy="46" r="16" fill="#7CB668"/>
        <path d="M46 38l-.176 2.107a6.286 6.286 0 0 0-1.837 1.063l-1.916-.902-2 3.464 1.74 1.208a6.286 6.286 0 0 0-.097 1.06 6.286 6.286 0 0 0 .092 1.065l-1.735 1.203 2 3.464 1.91-.9a6.286 6.286 0 0 0 1.842 1.056L46 54h4l.176-2.107a6.286 6.286 0 0 0 1.837-1.063l1.915.902 2-3.464-1.738-1.208a6.286 6.286 0 0 0 .096-1.06 6.286 6.286 0 0 0-.092-1.065l1.735-1.203-2-3.464-1.911.9a6.286 6.286 0 0 0-1.842-1.057L50 38h-4zm2 5.714A2.286 2.286 0 0 1 50.286 46 2.286 2.286 0 0 1 48 48.286 2.286 2.286 0 0 1 45.714 46 2.286 2.286 0 0 1 48 43.714z" fill="#F9F5D7"/>
    </g>
</svg>
