<svg xmlns="http://www.w3.org/2000/svg" width="64" height="64">
    <path d="M46 9.052c-.676-.02-2.606-.102-3 0 0 0 .077 3.052 0 4.899-.277 6.538-.863 9.628-3.299 14.56-1.29 2.61-2.038 5.039-2.455 7.963-.183 1.286-.246 4.38-.246 12.093 0 9.582.024 10.403.322 10.92.419.724 1.014 1 2.696 1.248.928.136 3.808.232 5.982.265 2.174-.034 5.054-.126 5.982-.265 1.682-.248 2.277-.524 2.696-1.248.298-.517.322-1.338.322-10.92 0-7.712-.063-10.807-.246-12.093-.417-2.924-1.166-5.354-2.455-7.963-2.436-4.932-3.022-8.022-3.299-14.56.146-2.751 0-4.903 0-4.903-.394-.098-2.324-.02-3 0zM18 9.052c-.676-.02-2.606-.102-3 0 0 0 .077 3.052 0 4.899-.277 6.538-.863 9.628-3.299 14.56-1.289 2.61-2.038 5.039-2.455 7.963C9.063 37.76 9 40.854 9 48.567c0 9.582.024 10.403.322 10.92.419.724 1.014 1 2.696 1.248.928.136 3.808.232 5.982.265 2.174-.034 5.054-.126 5.982-.265 1.682-.248 2.277-.524 2.696-1.248.298-.517.322-1.338.322-10.92 0-7.712-.063-10.807-.246-12.093-.417-2.924-1.166-5.354-2.455-7.963-2.436-4.932-3.022-8.022-3.299-14.56.146-2.751 0-4.903 0-4.903-.394-.098-2.324-.02-3 0z" opacity=".2"/>
    <path d="M18 8.052c-.676-.02-2.606-.102-3 0 0 0 .077 3.052 0 4.899-.277 6.538-.863 9.628-3.299 14.56-1.289 2.61-2.038 5.039-2.455 7.963C9.063 36.76 9 39.854 9 47.567c0 9.582.024 10.403.322 10.92.419.724 1.014 1 2.696 1.248.928.136 3.808.232 5.982.265 2.174-.034 5.054-.126 5.982-.265 1.682-.248 2.277-.524 2.696-1.248.298-.517.322-1.338.322-10.92 0-7.712-.063-10.807-.246-12.093-.417-2.924-1.166-5.354-2.455-7.963-2.436-4.932-3.022-8.022-3.299-14.56.146-2.751 0-4.903 0-4.903-.394-.098-2.324-.02-3 0z" fill="#504945"/>
    <path d="M19.605 8.004c-.616.01-1.267.035-1.605.045v.004c-.676-.02-2.606-.102-3 0l.018.998c.415-.098 2.312-.018 2.982.002v-.004c.676-.02 2.606-.098 3 0 0 0 .05.857.059 2.11.026-1.834-.059-3.11-.059-3.11-.197-.05-.778-.055-1.395-.045zm-4.582 2.445c.004.849.008 1.767-.023 2.502-.277 6.538-.863 9.627-3.299 14.559-1.289 2.61-2.038 5.04-2.455 7.965C9.063 36.76 9 39.855 9 47.566l.002.825c.001-7.538.063-10.644.244-11.916.417-2.925 1.166-5.356 2.455-7.965 2.436-4.932 3.022-8.02 3.299-14.559.046-1.112.038-2.445.023-3.502zm5.997 2.883c-.009.212-.008.398-.02.62.277 6.537.863 9.626 3.299 14.558 1.289 2.61 2.038 5.04 2.455 7.965.181 1.272.243 4.378.244 11.916l.002-.825c0-7.712-.063-10.806-.246-12.091-.417-2.925-1.166-5.356-2.455-7.965-2.386-4.83-2.995-7.913-3.28-14.178z" fill="#F9F5D7" opacity=".1"/>
    <path d="M15.999 7A.997.997 0 0 0 15 8v2h6V8c0-.554-.445-1-.999-1z" opacity=".2"/>
    <path d="M15.999 6A.997.997 0 0 0 15 7v2h6V7c0-.554-.445-1-.999-1z" fill="#D79921"/>
    <path d="M46 8.052c-.676-.02-2.606-.102-3 0 0 0 .077 3.052 0 4.899-.277 6.538-.863 9.628-3.299 14.56-1.29 2.61-2.038 5.039-2.455 7.963-.183 1.286-.246 4.38-.246 12.093 0 9.582.024 10.403.322 10.92.419.724 1.014 1 2.696 1.248.928.136 3.808.232 5.982.265 2.174-.034 5.054-.126 5.982-.265 1.682-.248 2.277-.524 2.696-1.248.298-.517.322-1.338.322-10.92 0-7.712-.063-10.807-.246-12.093-.417-2.924-1.166-5.354-2.455-7.963-2.436-4.932-3.022-8.022-3.299-14.56.146-2.751 0-4.903 0-4.903-.394-.098-2.324-.02-3 0z" fill="#504945"/>
    <path d="M47.605 8.004c-.616.01-1.267.035-1.605.045v.004c-.676-.02-2.606-.102-3 0l.018.998c.415-.098 2.312-.018 2.982.002v-.004c.676-.02 2.606-.098 3 0 0 0 .05.857.059 2.11.026-1.834-.059-3.11-.059-3.11-.197-.05-.778-.055-1.395-.045zm-4.582 2.445c.004.849.008 1.767-.023 2.502-.277 6.538-.863 9.627-3.299 14.559-1.29 2.61-2.038 5.04-2.455 7.965-.183 1.285-.246 4.38-.246 12.091l.002.825c.001-7.538.063-10.644.244-11.916.417-2.925 1.166-5.356 2.455-7.965 2.436-4.932 3.022-8.02 3.299-14.559.046-1.112.038-2.445.023-3.502zm5.997 2.883c-.009.212-.008.398-.02.62.277 6.537.863 9.626 3.299 14.558 1.289 2.61 2.038 5.04 2.455 7.965.181 1.272.243 4.378.244 11.916l.002-.825c0-7.712-.063-10.806-.246-12.091-.417-2.925-1.166-5.356-2.455-7.965-2.386-4.83-2.995-7.913-3.28-14.178z" fill="#F9F5D7" opacity=".1"/>
    <path d="M43.999 7A.997.997 0 0 0 43 8v2h6V8c0-.554-.445-1-.999-1z" opacity=".2"/>
    <path d="M43.999 6A.997.997 0 0 0 43 7v2h6V7c0-.554-.445-1-.999-1z" fill="#D79921"/>
    <path d="M32 7.052c-.676-.02-2.606-.102-3 0 0 0 .077 5.052 0 6.899-.277 6.538-.863 9.628-3.299 14.56-1.289 2.61-2.038 5.039-2.455 7.963-.183 1.286-.246 4.38-.246 12.093 0 9.582.024 10.403.322 10.92.419.724 1.014 1 2.696 1.248.928.136 3.808.232 5.982.265 2.174-.034 5.054-.126 5.982-.265 1.682-.248 2.277-.524 2.696-1.248.298-.517.322-1.338.322-10.92 0-7.712-.063-10.807-.246-12.093-.417-2.924-1.166-5.354-2.455-7.963-2.436-4.932-3.022-8.022-3.299-14.56.146-2.751 0-6.902 0-6.902-.394-.098-2.324-.02-3 0z" opacity=".2"/>
    <path d="M32 6.052c-.676-.02-2.606-.102-3 0 0 0 .077 5.052 0 6.899-.277 6.538-.863 9.628-3.299 14.56-1.289 2.61-2.038 5.039-2.455 7.963-.183 1.286-.246 4.38-.246 12.093 0 9.582.024 10.403.322 10.92.419.724 1.014 1 2.696 1.248.928.136 3.808.232 5.982.265 2.174-.034 5.054-.126 5.982-.265 1.682-.248 2.277-.524 2.696-1.248.298-.517.322-1.338.322-10.92 0-7.712-.063-10.807-.246-12.093-.417-2.924-1.166-5.354-2.455-7.963-2.436-4.932-3.022-8.022-3.299-14.56.146-2.751 0-6.902 0-6.902-.394-.098-2.324-.02-3 0z" fill="#A04A73"/>
    <path d="M33.605 6.004c-.616.01-1.267.035-1.605.045v.004c-.676-.02-2.606-.102-3 0 0 0 .006.716.01 1 .406-.1 2.317-.02 2.99 0v-.004c.676-.02 2.606-.098 3 0 0 0 .056 1.787.059 3.773C35.083 8.457 35 6.05 35 6.05c-.197-.05-.778-.055-1.395-.045zm-4.58 3.404c.006 1.316.008 2.753-.025 3.543-.277 6.538-.863 9.627-3.299 14.559-1.289 2.61-2.038 5.04-2.455 7.965-.183 1.285-.246 4.38-.246 12.091l.002.825c.001-7.538.063-10.644.244-11.916.417-2.925 1.166-5.356 2.455-7.965 2.436-4.932 3.022-8.02 3.299-14.559.044-1.057.039-2.934.025-4.543zm5.993 3.889c-.008.213-.007.453-.018.654.277 6.538.863 9.627 3.299 14.559 1.289 2.61 2.038 5.04 2.455 7.965.181 1.272.243 4.378.244 11.916l.002-.825c0-7.712-.063-10.806-.246-12.091-.417-2.925-1.166-5.356-2.455-7.965-2.39-4.84-2.998-7.923-3.281-14.213z" fill="#F9F5D7" opacity=".1"/>
    <path d="M29.999 5A.997.997 0 0 0 29 6v2h6V6c0-.554-.445-1-.999-1z" opacity=".2"/>
    <path d="M29.999 4A.997.997 0 0 0 29 5v2h6V5c0-.554-.445-1-.999-1z" fill="#FECE4F"/>
    <path d="M15.998 6A.996.996 0 0 0 15 7v1c0-.554.444-1 .998-1H20c.554 0 1 .446 1 1V7c0-.554-.446-1-1-1h-4.002zM43.998 6A.996.996 0 0 0 43 7v1c0-.554.444-1 .998-1H48c.554 0 1 .446 1 1V7c0-.554-.446-1-1-1h-4.002z" opacity=".1" fill="#F9F5D7"/>
    <path d="M29.998 4A.996.996 0 0 0 29 5v1c0-.554.444-1 .998-1H34c.554 0 1 .446 1 1V5c0-.554-.446-1-1-1h-4.002z" opacity=".2" fill="#F9F5D7"/>
</svg>
