<svg xmlns="http://www.w3.org/2000/svg" width="64" height="64">
    <circle cx="32" cy="33" r="28" opacity=".2"/>
    <circle cx="32" cy="32" r="28" fill="#FECE4F"/>
    <path d="M32 9A24 24 0 0 0 8 33a24 24 0 0 0 24 24 24 24 0 0 0 16.96-7.04l-2.993-2.993A19.765 19.765 0 0 1 32 52.766 19.765 19.765 0 0 1 12.234 33 19.765 19.765 0 0 1 32 13.234a19.765 19.765 0 0 1 13.967 5.8l2.994-2.995A24 24 0 0 0 32 9zm0 7a17 17 0 0 0-17 17 17 17 0 0 0 17 17 17 17 0 0 0 12.014-4.986L41.01 42.01A12.75 12.75 0 0 1 32 45.75 12.75 12.75 0 0 1 19.25 33 12.75 12.75 0 0 1 32 20.25a12.75 12.75 0 0 1 9.01 3.74l3.004-3.004A17 17 0 0 0 32 16zm0 7a10 10 0 0 0-10 10 10 10 0 0 0 10 10 10 10 0 0 0 7.068-2.932l-3.03-3.03A5.714 5.714 0 0 1 32 38.714 5.714 5.714 0 0 1 26.285 33 5.714 5.714 0 0 1 32 27.285a5.714 5.714 0 0 1 4.037 1.678l3.031-3.031A10 10 0 0 0 32 23z" opacity=".1"/>
    <path d="M32 8A24 24 0 0 0 8 32a24 24 0 0 0 24 24 24 24 0 0 0 16.96-7.04l-2.993-2.993A19.765 19.765 0 0 1 32 51.766 19.765 19.765 0 0 1 12.234 32 19.765 19.765 0 0 1 32 12.234a19.765 19.765 0 0 1 13.967 5.8l2.994-2.995A24 24 0 0 0 32 8zm0 7a17 17 0 0 0-17 17 17 17 0 0 0 17 17 17 17 0 0 0 12.014-4.986L41.01 41.01A12.75 12.75 0 0 1 32 44.75 12.75 12.75 0 0 1 19.25 32 12.75 12.75 0 0 1 32 19.25a12.75 12.75 0 0 1 9.01 3.74l3.004-3.004A17 17 0 0 0 32 15zm0 7a10 10 0 0 0-10 10 10 10 0 0 0 10 10 10 10 0 0 0 7.068-2.932l-3.03-3.03A5.714 5.714 0 0 1 32 37.714 5.714 5.714 0 0 1 26.285 32 5.714 5.714 0 0 1 32 26.285a5.714 5.714 0 0 1 4.037 1.678l3.031-3.031A10 10 0 0 0 32 22z" fill="#3A393A"/>
    <path d="M32 4A28 28 0 0 0 4 32a28 28 0 0 0 .021.586A28 28 0 0 1 32 5a28 28 0 0 1 27.979 27.414A28 28 0 0 0 60 32 28 28 0 0 0 32 4z" fill="#F9F5D7" opacity=".2"/>
</svg>
