<svg xmlns="http://www.w3.org/2000/svg" width="64" height="64" version="1">
    <path d="M14.454 9a6.001 6 0 0 0-4.508 9.957c6.6 7.517 7.253 14.727 6.918 19.633-.1 1.459-.488 1.995-.738 2.312-.25.318-1.15.575.273.004a6.001 6 0 0 0-.004.004c-.189.076-.341.845-3.156-.96A6.001 6 0 0 0 4 45c0 6.667 6.482 12 13.606 12 7.686 0 13.498-5.5 15.161-12.262 1.224 1.387 2.361 2.835 3.81 4.047 4.512 3.777 10.136 6.793 16.172 8.082a6.001 6 0 0 0 5.793-9.789c-2.342-2.711-5.942-6.49-8.383-9.695-.744-.978-.981-1.49-1.39-2.184 2.309-2.047 4.216-4.282 4.953-7.199 1.029-4.075-.793-8.361-3.258-10.875-4.93-5.027-12.017-6.971-19.607-8.062a6.001 6 0 0 0-5.324 1.941c-1.66-.637-5.562-2.003-11.08-2.004zM46.323 37.31c-.024.02-.019.063-.043.082l-.316.23c.14-.095.221-.216.359-.312z" fill-rule="evenodd" opacity=".2"/>
    <path d="M14.454 8a6.001 6 0 0 0-4.508 9.957c6.6 7.517 7.253 14.727 6.918 19.633-.1 1.459-.488 1.995-.738 2.312-.25.318-1.15.575.273.004a6.001 6 0 0 0-.004.004c-.189.076-.341.845-3.156-.96A6.001 6 0 0 0 4 44c0 6.667 6.482 12 13.606 12 7.686 0 13.498-5.5 15.161-12.262 1.224 1.387 2.361 2.835 3.81 4.047 4.512 3.777 10.136 6.793 16.172 8.082a6.001 6 0 0 0 5.793-9.789c-2.342-2.712-5.942-6.49-8.383-9.695-.744-.978-.981-1.49-1.39-2.184 2.309-2.047 4.216-4.282 4.953-7.199 1.029-4.075-.793-8.361-3.258-10.875-4.93-5.027-12.017-6.971-19.607-8.062a6.001 6 0 0 0-5.324 1.941C23.873 9.366 19.97 8.001 14.453 8zM46.323 36.31c-.024.02-.019.063-.043.082l-.316.23c.14-.095.221-.216.359-.312z" fill="#066678"/>
    <path d="M14.453 15c7.777 8.858 8.805 18 8.395 24-.36 5.26-3.597 7.229-4.215 7.477-1.289.518-4.317 1.291-8.633-1.477 0 3.23 2.776 6 7.606 6s8.783-3.878 9.585-8.246c2.788-22.55-2.515-25.719-2.515-25.719S19.82 15.001 14.453 15zM30 15c1.412 5.984 12 8.34 12 11.184 0 2.846-8.116 3.335-8 7.945C34.118 40.505 44.352 48.94 54 51c-4.236-4.904-14.94-15.596-11.41-18.344C55.296 24.024 43.647 16.962 30 15z" fill-rule="evenodd" opacity=".2"/>
    <path d="M14.453 14c7.777 8.858 8.805 18 8.395 24-.36 5.26-3.597 7.229-4.215 7.477-1.289.518-4.317 1.291-8.633-1.477 0 3.23 2.776 6 7.606 6s8.783-3.878 9.585-8.246c2.788-22.55-2.515-25.719-2.515-25.719S19.82 14.001 14.453 14zM30 14c1.412 5.984 12 8.34 12 11.184 0 2.846-8.116 3.335-8 7.945C34.118 39.505 44.352 47.94 54 50c-4.236-4.904-14.94-15.596-11.41-18.344C55.296 23.024 43.647 15.962 30 14z" fill="#F9F5D7" fill-rule="evenodd"/>
    <path d="M14.453 8a6.001 6 0 0 0-5.97 6.477A6.001 6 0 0 1 14.452 9c5.518.001 9.42 1.366 11.08 2.004a6.001 6 0 0 1 5.324-1.941c7.59 1.09 14.676 3.035 19.606 8.062 1.873 1.91 3.373 4.845 3.535 7.932.153-3.445-1.46-6.816-3.535-8.932-4.93-5.027-12.016-6.972-19.606-8.063a6.001 6 0 0 0-5.324 1.942C23.873 9.366 19.971 8 14.453 8zm34.693 26.852c-.126.115-.25.233-.378.347.41.693.646 1.206 1.39 2.184 2.441 3.204 6.043 6.984 8.385 9.695a6.001 6 0 0 1 1.432 3.453 6.001 6 0 0 0-1.432-4.453c-2.342-2.711-5.944-6.49-8.385-9.695-.497-.654-.764-1.1-1.012-1.531zm-32.23 1.304c-.01.49-.022.981-.053 1.434-.1 1.459-.488 1.995-.738 2.312-.07.09-.184.168-.291.23-.406-.01-1.145-.252-2.596-1.183A6.001 6 0 0 0 4 44c0 .165.021.326.03.49a6.001 6 0 0 1 9.208-4.54c1.451.93 2.19 1.173 2.596 1.183.107-.063.22-.141.291-.23.25-.318.638-.854.738-2.313a29.51 29.51 0 0 0 .053-2.434zm29.406 1.153c-.138.096-.219.217-.36.312l.317-.23c.024-.02.02-.062.043-.082zm-29.924 2.597a6.001 6 0 0 0-.003.004c-.087.035-.176.207-.506.219.068-.035.034-.032.51-.223zm0 1c-.475.191-.441.188-.51.223.33-.012.42-.184.507-.219a6.001 6 0 0 1 .003-.004z" fill="#F9F5D7" fill-rule="evenodd" opacity=".2"/>
</svg>
