<svg xmlns="http://www.w3.org/2000/svg" width="64" height="64" version="1">
    <path d="M4 33v25.2C4 59.751 5.249 61 6.8 61h50.4c1.551 0 2.8-1.249 2.8-2.8V33z" opacity=".2"/>
    <path d="M6.8 4A2.794 2.794 0 0 0 4 6.8v25.34h56V6.8C60 5.249 58.751 4 57.2 4z" fill="#73C48F"/>
    <path d="M4 32v25.2C4 58.751 5.249 60 6.8 60h50.4c1.551 0 2.8-1.249 2.8-2.8V32z" fill="#417B58"/>
    <path fill="#7CB668" d="M10 38h44v16H10z"/>
    <path d="M13.984 13c-.956 0-1.727.24-2.312.719-.585.468-1.013 1.148-1.283 2.04-.26.893-.389 1.97-.389 3.233 0 1.883.322 3.357.963 4.424.652 1.056 1.66 1.584 3.021 1.584.957 0 1.728-.24 2.313-.719.596-.479 1.027-1.164 1.297-2.056.27-.893.406-1.97.406-3.233 0-1.894-.334-3.363-.998-4.408C16.338 13.528 15.335 13 13.984 13zm18 0c-.956 0-1.727.24-2.312.719-.585.468-1.015 1.148-1.285 2.04-.26.893-.387 1.97-.387 3.233 0 1.883.322 3.357.963 4.424.652 1.056 1.66 1.584 3.021 1.584.957 0 1.728-.24 2.313-.719.596-.479 1.027-1.164 1.297-2.056.27-.893.406-1.97.406-3.233 0-1.894-.334-3.363-.998-4.408C34.338 13.528 33.335 13 31.984 13zm9 0c-.956 0-1.727.24-2.312.719-.585.468-1.013 1.148-1.283 2.04-.26.893-.389 1.97-.389 3.233 0 1.883.323 3.357.965 4.424.652 1.056 1.658 1.584 3.02 1.584.956 0 1.727-.24 2.312-.719.596-.479 1.027-1.164 1.297-2.056.27-.893.406-1.97.406-3.233 0-1.894-.332-3.363-.996-4.408-.664-1.056-1.67-1.584-3.02-1.584zm9 0c-.956 0-1.727.24-2.312.719-.585.468-1.013 1.148-1.283 2.04-.26.893-.389 1.97-.389 3.233 0 1.883.322 3.357.963 4.424.652 1.056 1.66 1.584 3.021 1.584.957 0 1.728-.24 2.313-.719.596-.479 1.027-1.164 1.297-2.056.27-.893.406-1.97.406-3.233 0-1.894-.332-3.363-.996-4.408-.664-1.056-1.67-1.584-3.02-1.584zm-36 1.225c.9 0 1.54.398 1.922 1.193.394.795.592 1.985.592 3.574 0 1.611-.198 2.815-.592 3.61-.382.783-1.021 1.173-1.922 1.173-.911 0-1.557-.398-1.94-1.193-.37-.795-.56-1.99-.56-3.59 0-1.589.19-2.78.56-3.574.383-.795 1.029-1.193 1.94-1.193zm18 0c.9 0 1.54.398 1.922 1.193.394.795.59 1.985.59 3.574 0 1.611-.196 2.815-.59 3.61-.382.783-1.021 1.173-1.922 1.173-.911 0-1.558-.398-1.941-1.193-.371-.795-.559-1.99-.559-3.59 0-1.589.188-2.78.559-3.574.383-.795 1.03-1.193 1.941-1.193zm9 0c.9 0 1.54.398 1.922 1.193.394.795.592 1.985.592 3.574 0 1.611-.198 2.815-.592 3.61-.382.783-1.021 1.173-1.922 1.173-.911 0-1.557-.398-1.94-1.193-.37-.795-.56-1.99-.56-3.59 0-1.589.19-2.78.56-3.574.383-.795 1.029-1.193 1.94-1.193zm9 0c.9 0 1.54.398 1.922 1.193.394.795.592 1.985.592 3.574 0 1.611-.198 2.815-.592 3.61-.382.783-1.021 1.173-1.922 1.173-.911 0-1.557-.398-1.94-1.193-.37-.795-.56-1.99-.56-3.59 0-1.589.19-2.78.56-3.574.383-.795 1.029-1.193 1.94-1.193zM19.146 16l3 4.4L19 25h1.605l2.405-3.596L25.379 25H27l-3.166-4.6 3.004-4.4H25.23l-2.22 3.393L20.77 16z" opacity=".2"/>
    <path d="M13.984 12c-.956 0-1.727.24-2.312.719-.585.468-1.013 1.148-1.283 2.04-.26.893-.389 1.97-.389 3.233 0 1.883.322 3.357.963 4.424.652 1.056 1.66 1.584 3.021 1.584.957 0 1.728-.24 2.313-.719.596-.479 1.027-1.164 1.297-2.056.27-.893.406-1.97.406-3.233 0-1.894-.334-3.363-.998-4.408C16.338 12.528 15.335 12 13.984 12zm18 0c-.956 0-1.727.24-2.312.719-.585.468-1.015 1.148-1.285 2.04-.26.893-.387 1.97-.387 3.233 0 1.883.322 3.357.963 4.424.652 1.056 1.66 1.584 3.021 1.584.957 0 1.728-.24 2.313-.719.596-.479 1.027-1.164 1.297-2.056.27-.893.406-1.97.406-3.233 0-1.894-.334-3.363-.998-4.408C34.338 12.528 33.335 12 31.984 12zm9 0c-.956 0-1.727.24-2.312.719-.585.468-1.013 1.148-1.283 2.04-.26.893-.389 1.97-.389 3.233 0 1.883.323 3.357.965 4.424.652 1.056 1.658 1.584 3.02 1.584.956 0 1.727-.24 2.312-.719.596-.479 1.027-1.164 1.297-2.056.27-.893.406-1.97.406-3.233 0-1.894-.332-3.363-.996-4.408-.664-1.056-1.67-1.584-3.02-1.584zm9 0c-.956 0-1.727.24-2.312.719-.585.468-1.013 1.148-1.283 2.04-.26.893-.389 1.97-.389 3.233 0 1.883.322 3.357.963 4.424.652 1.056 1.66 1.584 3.021 1.584.957 0 1.728-.24 2.313-.719.596-.479 1.027-1.164 1.297-2.056.27-.893.406-1.97.406-3.233 0-1.894-.332-3.363-.996-4.408-.664-1.056-1.67-1.584-3.02-1.584zm-36 1.225c.9 0 1.54.398 1.922 1.193.394.795.592 1.985.592 3.574 0 1.611-.198 2.815-.592 3.61-.382.783-1.021 1.173-1.922 1.173-.911 0-1.557-.398-1.94-1.193-.37-.795-.56-1.99-.56-3.59 0-1.589.19-2.78.56-3.574.383-.795 1.029-1.193 1.94-1.193zm18 0c.9 0 1.54.398 1.922 1.193.394.795.59 1.985.59 3.574 0 1.611-.196 2.815-.59 3.61-.382.783-1.021 1.173-1.922 1.173-.911 0-1.558-.398-1.941-1.193-.371-.795-.559-1.99-.559-3.59 0-1.589.188-2.78.559-3.574.383-.795 1.03-1.193 1.941-1.193zm9 0c.9 0 1.54.398 1.922 1.193.394.795.592 1.985.592 3.574 0 1.611-.198 2.815-.592 3.61-.382.783-1.021 1.173-1.922 1.173-.911 0-1.557-.398-1.94-1.193-.37-.795-.56-1.99-.56-3.59 0-1.589.19-2.78.56-3.574.383-.795 1.029-1.193 1.94-1.193zm9 0c.9 0 1.54.398 1.922 1.193.394.795.592 1.985.592 3.574 0 1.611-.198 2.815-.592 3.61-.382.783-1.021 1.173-1.922 1.173-.911 0-1.557-.398-1.94-1.193-.37-.795-.56-1.99-.56-3.59 0-1.589.19-2.78.56-3.574.383-.795 1.029-1.193 1.94-1.193zM19.146 15l3 4.4L19 24h1.605l2.405-3.596L25.379 24H27l-3.166-4.6 3.004-4.4H25.23l-2.22 3.393L20.77 15h-1.624z" fill="#F9F5D7"/>
    <path d="M6.8 4C5.25 4 4 5.25 4 6.8V7.8A2.794 2.794 0 0 1 6.8 5h50.4C58.75 5 60 6.248 60 7.799V6.8C60 5.25 58.75 4 57.2 4H6.8z" fill="#F9F5D7" opacity=".2"/>
    <path opacity=".2" d="M4 32h56v1H4zM10 54h44v1H10z"/>
    <path opacity=".2" fill="#F9F5D7" d="M10 38h44v1H10z"/>
</svg>
