<svg xmlns="http://www.w3.org/2000/svg" width="64" height="64" version="1">
    <path d="M6 54.398v2A2.598 2.598 0 0 0 8.602 59h46.796A2.598 2.598 0 0 0 58 56.398v-2A2.598 2.598 0 0 1 55.398 57H8.602A2.598 2.598 0 0 1 6 54.398z" opacity=".2"/>
    <rect width="52" height="52" x="-58" y="-58" rx="2.6" ry="2.6" transform="matrix(0 -1 -1 0 0 0)" fill="#504945"/>
    <path d="M20.368 7A2.64 2.64 0 0 0 20 8.332v16A2.662 2.662 0 0 0 22.668 27h26.664A2.662 2.662 0 0 0 52 24.332v-16c0-.49-.14-.939-.368-1.332H20.368zm19.063 4h7.14c.792 0 1.43.593 1.43 1.332v9.336c0 .738-.638 1.332-1.43 1.332h-7.14c-.792 0-1.43-.594-1.43-1.332v-9.336c0-.739.638-1.332 1.43-1.332z" opacity=".2"/>
    <path d="M20.368 6A2.64 2.64 0 0 0 20 7.332v16A2.662 2.662 0 0 0 22.668 26h26.664A2.662 2.662 0 0 0 52 23.332v-16c0-.49-.14-.939-.368-1.332H20.368zm19.063 4h7.14c.792 0 1.43.593 1.43 1.332v9.336c0 .738-.638 1.332-1.43 1.332h-7.14c-.792 0-1.43-.594-1.43-1.332v-9.336c0-.739.638-1.332 1.43-1.332z" fill="#BDAD93"/>
    <path d="M14.5 30c-1.385 0-2.5 1.19-2.5 2.668V48h40V32.668C52 31.19 50.884 30 49.5 30h-35zm-1.77 23.218zm38.54 0z" fill="#F9F5D7"/>
    <path d="M52 49v3.333C52 53.81 50.884 55 49.5 55h-35c-1.385 0-2.5-1.19-2.5-2.666V49z" opacity=".2"/>
    <path d="M52 48v3.333C52 52.81 50.884 54 49.5 54h-35c-1.385 0-2.5-1.19-2.5-2.666V48z" fill="#D79921"/>
    <path d="M8.602 6A2.597 2.597 0 0 0 6 8.602v1A2.597 2.597 0 0 1 8.602 7h46.796A2.597 2.597 0 0 1 58 9.602v-1A2.597 2.597 0 0 0 55.398 6H8.602z" opacity=".1" fill="#F9F5D7"/>
</svg>
