<svg xmlns="http://www.w3.org/2000/svg" width="64" height="64" version="1">
    <path d="M12 54.398v2C12 57.838 13.19 59 14.668 59h34.664C50.81 59 52 57.838 52 56.398v-2C52 55.838 50.81 57 49.332 57H14.668C13.191 57 12 55.838 12 54.398z" opacity=".2"/>
    <rect width="52" height="40" x="-58" y="-52" rx="2.6" ry="2.666" transform="matrix(0 -1 -1 0 0 0)" fill="#F9F5D7"/>
    <path d="M27.402 24C24.428 24 22 26.234 22 29c0 1.44.651 2.753 1.696 3.667L31.866 40l8.438-7.334C41.35 31.755 42 30.44 42 29c0-2.766-2.428-5-5.402-5-1.958 0-3.656.962-4.598 2.416C31.058 24.963 29.36 24 27.402 24zM16.16 20c-1.189 0-2.16.838-2.16 1.876 0 .538.26 1.032.679 1.374L17.946 26l3.376-2.75c.418-.342.678-.836.678-1.374C22 20.838 21.028 20 19.84 20c-.784 0-1.463.36-1.84.906-.377-.546-1.056-.906-1.84-.906zM19.5 17h-3l-.5 1h-2l2.963-8H19l3.086 8H20zm-2.403-2h1.891L18 12l-.903 3zM47.84 44c1.188 0 2.16-.838 2.16-1.876 0-.538-.26-1.032-.678-1.374L46.054 38l-3.376 2.75c-.418.342-.678.836-.678 1.374 0 1.038.972 1.876 2.16 1.876.784 0 1.464-.36 1.84-.906.376.546 1.056.906 1.84.906zM47.5 47h-3l-.5-1h-2l2.963 8H47l3.086-8H48zm-2.403 2h1.891L46 52l-.903-3z" fill="#FA4934"/>
    <path d="M14.668 6C13.191 6 12 7.161 12 8.602v1C12 8.162 13.19 7 14.668 7h34.664C50.81 7 52 8.161 52 9.602v-1C52 7.162 50.81 6 49.332 6H14.668z" opacity=".2" fill="#F9F5D7"/>
</svg>
