<svg xmlns="http://www.w3.org/2000/svg" width="64" height="64">
    <path d="M23.668 5C14.435 5 7 12.707 7 22.281V31.72c0 .302.028.596.043.894.15 6.672 1.035 17.968 5.285 22.809C16.611 60.299 26.602 61 30.637 61 37.807 61 41 58.191 41 58.191v-4.613S36.674 55.091 31.566 55c-3.507-.062-6.51-.981-8.02-3.254-.543-.82-.504-1.628-.671-2.789.264.013.525.043.793.043h16.664C49.565 49 57 41.293 57 31.719V22.28C57 12.707 49.565 5 40.332 5z" opacity=".2"/>
    <rect width="50" height="44" x="7" y="4" rx="16.667" ry="17.281" fill="#066678"/>
    <path d="M7.046 26.4H21.84s-.646 13.28.962 21c.325 1.56.108 2.383.746 3.345 1.508 2.272 4.513 3.192 8.02 3.254C36.675 54.09 41 52.58 41 52.58v4.613S37.806 60 30.635 60c-4.035 0-14.023-.702-18.305-5.58C6.143 47.374 7.046 26.4 7.046 26.4z" fill="#066678"/>
    <circle cx="22" cy="22" r="3" opacity=".2"/>
    <circle cx="22" cy="21" r="3" fill="#F9F5D7"/>
    <path d="M23.668 4C14.435 4 7 11.707 7 21.281v1C7 12.707 14.435 5 23.668 5h16.664C49.565 5 57 12.707 57 22.281v-1C57 11.707 49.565 4 40.332 4zm-.793 45.957c.055.383.09.686.129 1.006.064.002.128.005.191.01.08.263.183.519.352.773 1.508 2.273 4.512 3.192 8.02 3.254 5.107.09 9.433-1.422 9.433-1.422v-1S36.674 54.091 31.566 54c-3.507-.062-6.51-.981-8.02-3.254a2.868 2.868 0 0 1-.35-.773c-.107-.008-.214-.01-.321-.016z" opacity=".2" fill="#F9F5D7"/>
</svg>
