<svg xmlns="http://www.w3.org/2000/svg" width="64" height="64" version="1">
    <rect width="50" height="56" x="-58" y="-60" rx="2.778" ry="2.8" transform="matrix(0 -1 -1 0 0 0)" opacity=".2"/>
    <rect width="50" height="56" x="-57" y="-60" rx="2.778" ry="2.8" transform="matrix(0 -1 -1 0 0 0)" fill="#066678"/>
    <path opacity=".2" d="M4 22h56v30H4z"/>
    <path fill="#F9F5D7" d="M4 21h56v30H4z"/>
    <path opacity=".2" d="M16 51h3v6h-3zM45 51h3v6h-3z"/>
    <path d="M6.8 7A2.783 2.783 0 0 0 4 9.777v1A2.783 2.783 0 0 1 6.8 8h50.4c1.55 0 2.8 1.238 2.8 2.777v-1A2.783 2.783 0 0 0 57.2 7H6.8zM4 21v2h.11v-1.11H60V21H4z" opacity=".2" fill="#F9F5D7"/>
</svg>
