<svg xmlns="http://www.w3.org/2000/svg" width="64" height="64" version="1">
    <rect width="56" height="56" x="4" y="4" rx="3" ry="3" fill="#F9F5D7"/>
    <path d="M32 12c-2.816 0-5.602 1.102-7.75 3.25-1.896 1.896-2.964 4.274-3.188 6.75H12v26h18v3h2v-8h-2v3H14V24h7.062c.224 2.476 1.292 4.854 3.188 6.75a10.932 10.932 0 0 0 15.5 0c1.896-1.896 2.964-4.274 3.188-6.75H50v22H36v-6h-2v14h2v-6h16V22h-9.062c-.224-2.476-1.292-4.854-3.188-6.75C37.602 13.102 34.816 12 32 12zm0 2.062c1.966 0 3.926.632 5.562 1.938L32 21.562 26.438 16A8.868 8.868 0 0 1 32 14.062zm-7 3.376L30.562 23 25 28.562a8.883 8.883 0 0 1 0-11.126zm14 0a8.883 8.883 0 0 1 0 11.126l-5.562-5.562L39 17.44zm-7 7L37.562 30a8.883 8.883 0 0 1-11.126 0l5.562-5.562z" fill="#504945"/>
    <path d="M7 4C5.338 4 4 5.338 4 7v1c0-1.662 1.338-3 3-3h50c1.662 0 3 1.338 3 3V7c0-1.662-1.338-3-3-3H7z" opacity=".1" fill="#F9F5D7"/>
    <path d="M4 57v1c0 1.662 1.338 3 3 3h50c1.662 0 3-1.338 3-3v-1c0 1.662-1.338 3-3 3H7c-1.662 0-3-1.338-3-3z" opacity=".2"/>
</svg>
