<svg xmlns="http://www.w3.org/2000/svg" width="64" height="64" version="1">
    <rect width="56" height="56" x="4" y="5" rx="28" ry="28" opacity=".2"/>
    <rect width="56" height="56" x="4" y="4" rx="28" ry="28" fill="#73C48F"/>
    <path d="M50.924 31.105C41.573 14.8 34.178 13.46 28.781 16.003c-2.637 1.245-1.534 2.389-5.291 1.566-3.344-.73-5.46-.978-8.4.39-2.94 1.37-4.134 2.738-4.134 3.523 0 .785.786-1.176 2.94-1.378 2.154-.202 5.657 0 8.009 1.764 2.352 1.764 2.545 3.313 2.545 4.098 0 .785-2.549-.35-5.553.39-2.654.653-4.703 1.426-4.9 2.212-.198.785 4.721.302 7.022.297 1.094.037 1.894-.307 2.656 1.176.79 1.562.978 2.756 1.961 3.133.983.376 1.176-.781 2.352 1.57 1.176 2.352 1.566 3.2.193 6.728C26.808 45 25.812 47.692 26.4 47.1c.46-.46 1.94-.893 2.468-1.577-.147 1.259 0 3.573 1.677 6.155 2.94 4.506 7.238 4.134 13.32 5.69 9.466 2.384 13.618 2.243 15.602 5.476.39.639.638 1.199.22-.33-1.947-7.124-3.026-21.41-8.763-31.409z" opacity=".1"/>
    <path d="M50.924 30.105C41.573 13.8 34.178 12.46 28.781 15.003c-2.637 1.245-1.534 2.389-5.291 1.566-3.344-.73-5.46-.978-8.4.39-2.94 1.37-4.134 2.738-4.134 3.523 0 .785.786-1.176 2.94-1.378 2.154-.202 5.657 0 8.009 1.764 2.352 1.764 2.545 3.313 2.545 4.098 0 .785-2.549-.35-5.553.39-2.654.653-4.703 1.426-4.9 2.212-.198.785 4.721.302 7.022.297 1.094.037 1.894-.307 2.656 1.176.79 1.562.978 2.756 1.961 3.133.983.376 1.176-.781 2.352 1.57 1.176 2.352 1.566 3.2.193 6.728C26.808 44 25.812 46.692 26.4 46.1c.46-.46 1.94-.893 2.468-1.577-.147 1.259 0 3.573 1.677 6.155 2.94 4.506 7.238 4.134 13.32 5.69 9.466 2.384 13.618 2.243 15.602 5.476.39.639.638 1.199.22-.33-1.947-7.124-3.026-21.41-8.763-31.409z" fill="#3A393A"/>
    <circle cx="30.5" cy="19.5" r="1.5" opacity=".2"/>
    <circle cx="30.5" cy="18.5" r="1.5" fill="#F9F5D7"/>
    <path d="M32 4C16.488 4 4 16.488 4 32c0 .168.01.333.014.5C4.28 17.221 16.656 5 32 5c15.344 0 27.72 12.221 27.986 27.5.003-.167.014-.332.014-.5C60 16.488 47.512 4 32 4z" fill="#F9F5D7" opacity=".2"/>
</svg>
