<svg xmlns="http://www.w3.org/2000/svg" width="64" height="64" version="1">
    <path d="M10.058 15.172c-.017.063-.059.117-.059.184 0 7.709 2.009 16.62 5.512 24.448 2.841 6.351 7.952 14.821 16.156 19.114a.721.721 0 0 0 .664 0c8.205-4.292 13.315-12.763 16.156-19.114C51.99 31.975 54 23.064 54 15.356c0-.067-.041-.12-.059-.184-.284 7.273-2.222 15.409-5.454 22.635-2.841 6.35-7.952 14.82-16.156 19.113a.715.715 0 0 1-.664 0c-8.204-4.294-13.314-12.764-16.156-19.114-3.232-7.224-5.17-15.362-5.453-22.632z" opacity=".2"/>
    <path d="M53.515 13.66L32.241 6.041a.715.715 0 0 0-.483 0l-21.274 7.617a.737.737 0 0 0-.485.696c0 7.709 2.01 16.62 5.513 24.448 2.84 6.35 7.95 14.822 16.156 19.114a.717.717 0 0 0 .665 0c8.204-4.292 13.314-12.764 16.156-19.114C51.992 30.973 54 22.062 54 14.355a.737.737 0 0 0-.485-.696z" fill="#D79921"/>
    <path d="M43.735 23.126l-11.604-4.101a.395.395 0 0 0-.263 0l-11.604 4.101a.397.397 0 0 0-.264.375c0 4.15 1.096 8.949 3.006 13.164 1.55 3.42 4.337 7.981 8.813 10.292a.395.395 0 0 0 .363 0c4.475-2.31 7.262-6.873 8.812-10.292 1.91-4.215 3.007-9.014 3.007-13.164a.397.397 0 0 0-.265-.375z" opacity=".2"/>
    <path d="M43.735 22.124l-11.604-4.101a.395.395 0 0 0-.263 0l-11.604 4.101A.397.397 0 0 0 20 22.5c0 4.15 1.095 8.949 3.006 13.164 1.55 3.42 4.337 7.982 8.813 10.292a.395.395 0 0 0 .362 0c4.476-2.31 7.263-6.872 8.813-10.292C42.904 31.448 44 26.65 44 22.5a.397.397 0 0 0-.264-.375z" fill="#F9F5D7"/>
    <path d="M32 6a.719.719 0 0 0-.242.043L10.482 13.66a.735.735 0 0 0-.482.695c0 .27.017.547.027.82a.726.726 0 0 1 .455-.515l21.276-7.617a.72.72 0 0 1 .484 0l21.274 7.617c.235.084.4.285.457.524.01-.277.027-.557.027-.829a.737.737 0 0 0-.484-.695L32.242 6.043A.719.719 0 0 0 32 6z" opacity=".2" fill="#F9F5D7"/>
</svg>
