<svg xmlns="http://www.w3.org/2000/svg" width="64" height="64" version="1">
    <path d="M10.02 5c2.002 2.77 3.024 5.707 0 10-.317 3.754.997 5.935 5.488 5.855 1.063-.07 2.75-.282 3.637-1.117 1.405-1.72.86-2.622.281-2.742-.602-.178-2.058.724-.66 1.39.295 1.205-3.064 1.08-3.684.067C12.75 14.277 18.955 11.276 26.02 14c1.448 11.397 3.09 25.918 1.316 39.484-1.16 2.694-2.404 4.312-5.316 5.516v2c4-2 14-2 20-2v-2c-2.587-.466-4.64-2.869-4.945-5.285-1.005-13.447-1.74-23.297.945-36.715h9.937c1.24.028 1.748 1.057 2.063 4h4c-1.395-3.333-2-6-2-10-14.939 2.31-25.844.257-42-4zm41.277 32c-.753.003-1.501.076-2.23.207-1.41.253-3.193 1.032-3.55 2.418-.329 1.268-.408 3.012 1.765 3.512L48.02 43v-2c1.21-2.47 3.999-2.625 5.668-.777 2.068 3.753-.596 8.124-2.523 10.93-1.892 3.121-4.549 3.679-7.145 5.847v2s8.882.55 12 2c.439-1.813 4.768-5.324 3.887-7.063C58.727 52.428 56.02 53 56.02 55l1.75-.04c.32-.674.149-.803.57-.394.248 1.213-1.034 1.829-1.87 2.211-2.45.224-6.451.225-6.466.118 5.41-5.397 12.46-12.004 7.692-17.551-1.846-1.72-4.138-2.354-6.399-2.344z" opacity=".2"/>
    <path d="M10.02 4c2.002 2.77 3.024 5.707 0 10-.317 3.754.997 5.935 5.488 5.855 1.063-.07 2.75-.282 3.637-1.117 1.405-1.72.86-2.622.281-2.742-.602-.178-2.058.724-.66 1.39.295 1.205-3.064 1.08-3.684.067C12.75 13.277 18.955 10.276 26.02 13c1.448 11.397 3.09 25.918 1.316 39.484-1.16 2.694-2.404 4.312-5.316 5.516v2c4-2 14-2 20-2v-2c-2.587-.466-4.64-2.869-4.945-5.285-1.005-13.447-1.74-23.297.945-36.715h9.937c1.24.028 1.748 1.057 2.063 4h4c-1.395-3.333-2-6-2-10-14.939 2.31-25.844.257-42-4zm41.277 32c-.753.003-1.501.076-2.23.207-1.41.253-3.193 1.032-3.55 2.418-.329 1.268-.408 3.012 1.765 3.512L48.02 42v-2c1.21-2.47 3.999-2.625 5.668-.777 2.068 3.753-.596 8.124-2.523 10.93-1.892 3.121-4.549 3.679-7.145 5.847v2s8.882.55 12 2c.439-1.813 4.768-5.324 3.887-7.063C58.727 51.428 56.02 52 56.02 54l1.75-.04c.32-.674.149-.803.57-.394.248 1.213-1.034 1.829-1.87 2.211-2.45.224-6.451.225-6.466.118 5.41-5.397 12.46-12.004 7.692-17.551-1.846-1.72-4.138-2.354-6.399-2.344z" fill="#F9BD2E"/>
    <path d="M10.02 4c.285.394.542.794.779 1.2C26.514 9.311 37.33 11.27 52.019 9c0 3.591.493 6.111 1.602 9h.399c-1.396-3.333-2-6-2-10-14.94 2.31-25.845.257-42-4zm1.878 5.379c-.101 1.372-.655 2.884-1.878 4.621a10.57 10.57 0 0 0-.016 1.541c.007-.182 0-.35.016-.541 1.527-2.168 2.02-3.991 1.878-5.621zm7.27 6.598c-.606.056-1.431.698-.643 1.253.278-.195.656-.306.9-.234a.74.74 0 0 1 .5.404c.275-.85-.097-1.32-.5-1.404a.689.689 0 0 0-.257-.02zm-4.525.21c-.136.69-.014 1.455.439 2.266.62 1.014 3.978 1.138 3.684-.066a1.263 1.263 0 0 1-.436-.319c-.881.384-2.794.127-3.248-.615a3.787 3.787 0 0 1-.44-1.265zm21.53 16.81c-.045 5.937.389 11.86.901 18.718.305 2.416 2.359 4.819 4.946 5.285v-1c-2.587-.466-4.641-2.869-4.946-5.285-.484-6.474-.893-12.112-.9-17.719zM51.298 36c-.754.003-1.501.076-2.23.207-1.41.253-3.193 1.032-3.551 2.418-.135.52-.217 1.118-.13 1.68a5.87 5.87 0 0 1 .13-.68c.358-1.386 2.14-2.165 3.55-2.418.73-.13 1.477-.204 2.23-.207 2.261-.01 4.554.625 6.4 2.344.967 1.126 1.441 2.296 1.548 3.49.118-1.541-.312-3.052-1.549-4.49-1.845-1.72-4.138-2.354-6.398-2.344zm-23.193 4.111c-.015 4.137-.235 8.298-.768 12.373-1.161 2.694-2.405 4.312-5.316 5.516v1c2.911-1.204 4.155-2.822 5.316-5.516.576-4.404.788-8.907.768-13.373zm26.308 2.633c-.208 2.737-1.905 5.453-3.248 7.408-1.892 3.122-4.548 3.68-7.144 5.848v1c2.596-2.168 5.252-2.726 7.144-5.848 1.507-2.193 3.455-5.343 3.248-8.408zm3.746 9.34c-1.08-.025-2.138.666-2.138 1.916l.283-.006c.723-1.137 2.655-1.27 3.603-.056.012.022.014.048.024.072.12-.4.132-.765-.024-1.072-.442-.567-1.1-.839-1.748-.854zm.063 2.37c-.33.649-1.151 1.049-1.752 1.323-1.737.159-4.201.2-5.524.176l-.941.942c.014.107 4.016.106 6.465-.118.837-.382 2.118-.998 1.87-2.21-.056-.056-.08-.078-.118-.114z" fill="#F9F5D7" opacity=".2"/>
</svg>
