<svg xmlns="http://www.w3.org/2000/svg" width="64" height="64">
    <path d="M23.357 8.008a4.282 4.282 0 0 0-.842.136 4.16 4.16 0 0 0-2.97 5.109l1.633 6.053a28.564 28.564 0 0 0-3.951 2.836l-4.651-4.818c-1.61-1.668-4.296-1.633-5.942 0-1.645 1.633-1.61 4.228 0 5.896l4.698 4.864c-2.077 2.31-3.981 4.473-5.87 5.89-1.95 1.42-1.95 4.973 0 6.393C13.8 45.517 19.4 58.037 31.996 58h.006C44.6 58.036 50.2 45.518 58.539 40.367c1.948-1.42 1.948-4.972 0-6.393-1.889-1.416-3.793-3.578-5.868-5.887l4.7-4.867c1.61-1.668 1.645-4.263 0-5.896s-4.329-1.668-5.939 0l-4.656 4.824a28.6 28.6 0 0 0-3.924-2.826l1.638-6.07a4.16 4.16 0 0 0-2.97-5.108 4.195 4.195 0 0 0-5.142 2.95l-1.46 5.212c-.935-.127-1.905-.2-2.918-.2h-.003c-1 0-1.955.073-2.879.198l-1.46-5.21a4.187 4.187 0 0 0-4.3-3.086z" opacity=".2"/>
    <path d="M23.357 7.008a4.282 4.282 0 0 0-.842.136 4.16 4.16 0 0 0-2.97 5.109l1.633 6.053a28.564 28.564 0 0 0-3.951 2.836l-4.651-4.818c-1.61-1.668-4.296-1.633-5.942 0-1.645 1.633-1.61 4.228 0 5.896l4.698 4.864c-2.077 2.31-3.981 4.473-5.87 5.89-1.95 1.42-1.95 4.973 0 6.393C13.8 44.517 19.4 57.037 31.996 57h.006C44.6 57.036 50.2 44.518 58.539 39.367c1.948-1.42 1.948-4.972 0-6.393-1.889-1.416-3.793-3.578-5.868-5.887l4.7-4.867c1.61-1.668 1.645-4.263 0-5.896s-4.329-1.668-5.939 0l-4.656 4.824a28.6 28.6 0 0 0-3.924-2.826l1.638-6.07a4.16 4.16 0 0 0-2.97-5.108 4.195 4.195 0 0 0-5.142 2.95l-1.46 5.212c-.935-.127-1.905-.2-2.918-.2h-.003c-1 0-1.955.073-2.879.198l-1.46-5.21a4.187 4.187 0 0 0-4.3-3.086z" fill="#D79921"/>
    <circle cx="32" cy="37" r="16" opacity=".2"/>
    <circle cx="32" cy="36" r="16" fill="#F9F5D7"/>
    <circle cx="32" cy="36" r="10" fill="#F15C22"/>
    <path d="M23.357 7.008a4.28 4.28 0 0 0-.841.137 4.15 4.15 0 0 0-3.077 4.46 4.171 4.171 0 0 1 3.077-3.46 4.187 4.187 0 0 1 5.143 2.95l1.458 5.208c.924-.125 1.88-.197 2.881-.198H32c1.013 0 1.984.074 2.918.202l1.459-5.213c.602-2.231 2.897-3.547 5.144-2.95a4.169 4.169 0 0 1 3.075 3.461 4.149 4.149 0 0 0-3.075-4.46c-2.247-.598-4.542.718-5.144 2.949l-1.459 5.213A21.56 21.56 0 0 0 32 15.105h-.002c-1 0-1.957.073-2.88.198l-1.46-5.21a4.187 4.187 0 0 0-4.3-3.085zM9.62 15.086a4.26 4.26 0 0 0-2.984 1.238A4.077 4.077 0 0 0 5.46 19.74a4.068 4.068 0 0 1 1.174-2.416c1.645-1.633 4.331-1.668 5.941 0l4.65 4.819a28.562 28.562 0 0 1 3.952-2.836l-.23-.856a28.777 28.777 0 0 0-3.721 2.692l-4.65-4.819a4.062 4.062 0 0 0-2.958-1.238zm44.77 0a4.063 4.063 0 0 0-2.957 1.238l-4.657 4.824a28.856 28.856 0 0 0-3.693-2.681l-.23.855a28.604 28.604 0 0 1 3.923 2.826l4.657-4.824c1.61-1.668 4.294-1.633 5.94 0a4.066 4.066 0 0 1 1.171 2.41c.145-1.215-.226-2.47-1.172-3.41a4.257 4.257 0 0 0-2.982-1.238zM10.865 27.602c-1.894 2.11-3.66 4.064-5.404 5.373-1.106.806-1.562 2.295-1.412 3.695.114-1.067.57-2.081 1.412-2.695 1.89-1.418 3.795-3.58 5.871-5.891l-.467-.482zm42.272.002l-.467.482c2.075 2.31 3.98 4.472 5.87 5.889.842.614 1.297 1.628 1.411 2.695.15-1.4-.306-2.89-1.412-3.695-1.744-1.309-3.509-3.263-5.402-5.371z" opacity=".2" fill="#F9F5D7"/>
</svg>
