<svg xmlns="http://www.w3.org/2000/svg" width="64" height="64" version="1">
    <path d="M43 19.737V7.947H20v11.79L5.245 56.579C4.36 58.789 5.98 61 8.337 61h46.38c2.356 0 3.829-2.358 3.092-4.421z" opacity=".2"/>
    <path d="M43 18.737V6.947H20v11.79L5.245 55.579C4.36 57.789 5.98 60 8.337 60h46.38c2.356 0 3.829-2.358 3.092-4.421z" fill="#7CB668"/>
    <path d="M43.9 11H19.1C17.395 11 16 9.65 16 8s1.395-3 3.1-3h24.8C45.605 5 47 6.35 47 8s-1.395 3-3.1 3z" opacity=".1"/>
    <path d="M43.9 10H19.1C17.395 10 16 8.65 16 7s1.395-3 3.1-3h24.8C45.605 4 47 5.35 47 7s-1.395 3-3.1 3z" fill="#7CB668"/>
    <path d="M30.868 39.434C23.938 38.284 19 31.21 19 31.21s6.402-5.193 13.332-4.044C39.262 28.316 44 35.09 44 35.09s-6.202 5.493-13.132 4.344z" opacity=".1"/>
    <path d="M30.868 38.434C23.938 37.284 19 30.21 19 30.21s6.402-5.193 13.332-4.044C39.262 27.316 44 34.09 44 34.09s-6.202 5.493-13.132 4.344z" fill="#578D57"/>
    <path d="M34.76 55.972c-8.631-.486-16.76-7.1-16.76-7.1s5.566-5.983 14.04-5.437c8.474.547 16.76 7.1 16.76 7.1s-5.408 5.922-14.04 5.437z" opacity=".1"/>
    <path d="M34.76 54.972c-8.631-.486-16.76-7.1-16.76-7.1s5.566-5.983 14.04-5.437c8.474.547 16.76 7.1 16.76 7.1s-5.408 5.922-14.04 5.437z" fill="#578D57"/>
    <path d="M25.076 38.254C17.812 42.16 18 48.956 18 48.956s11.873.667 18.924-3.204C43.976 41.88 44 35.049 44 35.049s-11.66-.703-18.924 3.205z" opacity=".1"/>
    <path d="M25.076 37.254C17.812 41.16 18 47.956 18 47.956s11.873.667 18.924-3.204C43.976 40.88 44 34.049 44 34.049s-11.66-.703-18.924 3.205z" fill="#7CB668"/>
    <path d="M19.1 4C17.395 4 16 5.35 16 7c0 .17.024.337.053.5C16.3 6.087 17.57 5 19.1 5h24.8c1.529 0 2.799 1.087 3.047 2.5.029-.163.053-.33.053-.5 0-1.65-1.395-3-3.1-3H19.1z" fill="#F9F5D7" opacity=".2"/>
</svg>
