<svg xmlns="http://www.w3.org/2000/svg" width="64" height="64" version="1">
    <path d="M12 54.332v2A2.663 2.663 0 0 0 14.668 59h34.664A2.662 2.662 0 0 0 52 56.332v-2A2.662 2.662 0 0 1 49.332 57H14.668A2.663 2.663 0 0 1 12 54.332z" opacity=".2"/>
    <rect width="8" height="22" x="18" y="6" rx="2.666" ry="2.75" fill="#928274"/>
    <rect width="8" height="22" x="38" y="6" rx="2.666" ry="2.75" fill="#928274"/>
    <rect width="40" height="32" x="12" y="26" rx="2.666" ry="2.666" fill="#9D0006"/>
    <path d="M20.668 6C19.191 6 18 7.226 18 8.75v1C18 8.226 19.19 7 20.668 7h2.664C24.81 7 26 8.226 26 9.75v-1C26 7.226 24.81 6 23.332 6h-2.664zM40.668 6C39.19 6 38 7.226 38 8.75v1C38 8.226 39.19 7 40.668 7h2.664C44.81 7 46 8.226 46 9.75v-1C46 7.226 44.81 6 43.332 6h-2.664z" opacity=".2" fill="#F9F5D7"/>
</svg>
