<svg xmlns="http://www.w3.org/2000/svg" width="64" height="64" version="1">
    <path d="M3.594 33.356c-.03.05-.065.094-.094.144C3.5 49.24 16.26 62 32 62s28.5-12.76 28.5-28.5c-.03-.012-.07-.023-.102-.035C59.384 48.285 47.076 60 32 60 16.887 60 4.554 48.227 3.594 33.357z" opacity=".2"/>
    <path d="M57.5 33A25.5 25.5 0 0 1 32 58.5 25.5 25.5 0 0 1 6.5 33 25.5 25.5 0 0 1 32 7.5 25.5 25.5 0 0 1 57.5 33z" fill="#F9F5D7"/>
    <path d="M32 7.5A25.5 25.5 0 0 0 6.5 33a25.5 25.5 0 0 0 .018.498A25.5 25.5 0 0 1 32 8.5a25.5 25.5 0 0 1 25.475 25.002A25.5 25.5 0 0 0 57.5 33 25.5 25.5 0 0 0 32 7.5z" opacity=".2" fill="#F9F5D7"/>
    <path d="M47.754 56.176c-13.63 7.872-31.06 3.2-38.932-10.43C.953 32.114 5.623 14.684 19.255 6.814c16.061-.074 26.26 34.632 28.5 49.362z" fill="#48B9C7"/>
    <path d="M60.5 32.5C60.5 48.24 47.74 61 32 61S3.5 48.24 3.5 32.5c7.967-13.947 43.124-5.426 57 0z" fill="#066678"/>
</svg>
