<svg xmlns="http://www.w3.org/2000/svg" width="64" height="64" version="1">
    <path d="M52.158 13.001a7.982 7.982 0 0 0-4.98 1.625c-1.973 1.502-4.599 3.403-6.924 5.222-.394-.52-.5-.98-.976-1.5-2.17-2.373-5.655-4.645-9.7-5.175-6.73-.88-13.004 2.062-16.905 5.89-3.902 3.828-6.216 8.315-8.032 12.338l-.004.004c-.139.309-1.022 2.167-1.688 4.44-.667 2.275-1.587 5.193-.309 9.41.723 2.381 2.55 4.71 4.529 5.948 1.979 1.237 3.856 1.599 5.387 1.73 3.06.262 5.224-.304 6.841-.7 4.259-1.039 7.784-2.498 11.171-4.295 1.928 2.18 4.369 4.167 8.89 4.85.215.033.43.056.647.07 4.955.34 9.401-1.514 12.556-3.717 3.155-2.204 5.396-4.718 7.255-6.761a8.007 8.007 0 0 0-.257-11.045 7.985 7.985 0 0 0-4.474-2.246c.848-.896 1.795-1.7 2.676-2.648 4.694-5.066 1.198-13.307-5.703-13.44z" opacity=".2"/>
    <path d="M52.158 12.001a7.982 7.982 0 0 0-4.98 1.625c-1.973 1.502-4.599 3.403-6.924 5.222-.394-.52-.5-.98-.976-1.5-2.17-2.373-5.655-4.645-9.7-5.175-6.73-.88-13.004 2.062-16.905 5.89-3.902 3.828-6.216 8.315-8.032 12.338l-.004.004c-.139.309-1.022 2.167-1.688 4.44-.667 2.275-1.587 5.193-.309 9.41.723 2.381 2.55 4.71 4.529 5.948 1.979 1.237 3.856 1.599 5.387 1.73 3.06.262 5.224-.304 6.841-.7 4.259-1.039 7.784-2.498 11.171-4.295 1.928 2.18 4.369 4.167 8.89 4.85.215.033.43.056.647.07 4.955.34 9.401-1.514 12.556-3.717 3.155-2.204 5.396-4.718 7.255-6.761a8.007 8.007 0 0 0-.257-11.045 7.985 7.985 0 0 0-4.474-2.246c.848-.896 1.795-1.7 2.676-2.648 4.694-5.066 1.198-13.307-5.703-13.44z" fill="#504945"/>
    <path d="M54 37.001c-3.647 4-7.702 8.276-13.382 7.888-2.345-.354-4.916-2.983-6.801-5.586-2.385-3.294-4.395-7.151-6.55-10.723-1.806-2.712-4.074-5.362-8.46-2.108-1.498 1.054-2.96 2.95-4.094 4.98C12.903 34.69 16.057 39.028 19 39c12.142-.12 25.624-12.39 33-18-6.672 7.168-10.257 11.28-23.914 19.26-3.363 1.93-6.32 3.158-10.643 4.212-2.587.632-6.397 1.217-7.232-1.53-.869-2.864 1.205-7.279 1.637-8.236C15.11 27.49 19.98 19.998 28.495 21.11 36.617 22.172 37 34.85 43.062 38.18c2.984 1.639 5.21 1.817 10.936-1.181z" opacity=".2"/>
    <path d="M54 36.001c-3.647 4-7.702 8.276-13.382 7.888-2.345-.354-4.916-2.983-6.801-5.586-2.385-3.294-4.395-7.151-6.55-10.723-1.806-2.712-4.074-5.362-8.46-2.108-1.498 1.054-2.96 2.95-4.094 4.98C12.903 33.69 16.057 38.028 19 38c12.142-.12 25.624-12.39 33-18-6.672 7.168-10.257 11.28-23.914 19.26-3.363 1.93-6.32 3.158-10.643 4.212-2.587.632-6.397 1.217-7.232-1.53-.869-2.864 1.205-7.279 1.637-8.236C15.11 26.49 19.98 18.998 28.495 20.11 36.617 21.172 37 33.85 43.062 37.18c2.984 1.639 5.21 1.817 10.936-1.181z" fill="#B7BB25"/>
    <path d="M52.158 12.002a7.98 7.98 0 0 0-4.98 1.625c-1.973 1.502-4.599 3.402-6.924 5.22-.394-.519-.5-.98-.975-1.5-2.17-2.372-5.655-4.644-9.7-5.173-6.73-.88-13.006 2.06-16.907 5.889C8.77 21.89 6.456 26.377 4.64 30.4l-.004.004c-.14.31-1.021 2.168-1.688 4.442-.452 1.543-1.006 3.396-.926 5.738.08-1.877.54-3.421.926-4.738.667-2.274 1.548-4.133 1.688-4.442l.004-.004c1.815-4.022 4.13-8.51 8.03-12.337 3.902-3.829 10.177-6.77 16.907-5.89 4.046.53 7.531 2.802 9.701 5.175.476.52.58.98.975 1.5 2.325-1.819 4.951-3.719 6.924-5.221a7.98 7.98 0 0 1 4.98-1.625c4.526.087 7.568 3.664 7.815 7.543.266-4.243-2.901-8.448-7.815-8.543zm3.865 16.262c-.283.272-.57.542-.837.826a7.98 7.98 0 0 1 4.472 2.244 7.974 7.974 0 0 1 2.322 5.217 7.992 7.992 0 0 0-2.322-6.217 7.978 7.978 0 0 0-3.635-2.07z" opacity=".1" fill="#F9F5D7"/>
</svg>
