<svg xmlns="http://www.w3.org/2000/svg" width="64" height="64">
    <path d="M43.026 52.267c-12.84 7.48-28.176 5.809-37.828-2.999a1.85 1.85 0 0 1-.564-.985C1.902 35.46 8.12 21.22 20.974 13.733c12.84-7.48 28.176-5.809 37.828 2.999.287.261.483.604.564.985 2.732 12.823-3.486 27.063-16.34 34.55z" opacity=".2"/>
    <path d="M43.026 51.267c-12.84 7.48-28.176 5.809-37.828-2.999a1.85 1.85 0 0 1-.564-.985C1.902 34.46 8.12 20.22 20.974 12.733c12.84-7.48 28.176-5.809 37.828 2.999.287.261.483.604.564.985 2.732 12.823-3.486 27.063-16.34 34.55z" fill="#665C54"/>
    <circle cx="11.213" cy="44.579" r="17" transform="rotate(-30)" opacity=".2"/>
    <circle cx="11.713" cy="43.713" r="17" transform="rotate(-30)" fill="#B7BB25"/>
    <circle cx="11.713" cy="43.713" r="8" transform="rotate(-30)" opacity=".957" fill="#3A393A"/>
    <path d="M38.574 8c-5.888-.062-11.984 1.462-17.601 4.734-10.86 6.326-16.96 17.471-16.952 28.51.35-10.707 6.42-21.376 16.952-27.51C26.59 10.462 32.686 8.938 38.574 9c7.57.08 14.797 2.776 20.227 7.73.287.262.485.607.566.989.406 1.904.59 3.84.604 5.779l.002.037a29.16 29.16 0 0 0-.606-6.816 1.862 1.862 0 0 0-.566-.989C53.37 10.776 46.145 8.08 38.574 8z" opacity=".1" fill="#F9F5D7"/>
    <path d="M31.6 15.004a17 17 0 0 0-8.1 2.273 17 17 0 0 0-8.477 15.387A17 17 0 0 1 23.5 18.277 17 17 0 0 1 46.723 24.5a17 17 0 0 1 2.254 7.836 17 17 0 0 0-2.254-8.836A17 17 0 0 0 31.6 15.004z" opacity=".2" fill="#F9F5D7"/>
</svg>
