<svg xmlns="http://www.w3.org/2000/svg" width="64" height="64">
    <path d="M43.026 52.267c-12.84 7.48-28.176 5.809-37.828-2.999a1.85 1.85 0 0 1-.564-.985C1.902 35.46 8.12 21.22 20.974 13.733c12.84-7.48 28.176-5.809 37.828 2.999.287.261.483.604.564.985 2.732 12.823-3.486 27.063-16.34 34.55z" opacity=".2"/>
    <path d="M43.026 51.267c-12.84 7.48-28.176 5.809-37.828-2.999a1.85 1.85 0 0 1-.564-.985 29.454 29.454 0 0 1-.475-9.15c1.025-9.98 14.947-9.006 24.786-14.737 12.84-7.48 16.996-13.056 26.648-4.248.287.261 3.692-2.812 3.773-2.431 2.732 12.823-3.486 27.063-16.34 34.55z" fill="#FA4934"/>
    <path d="M38.574 9.002c-5.888-.062-11.982 1.458-17.6 4.73C10.906 19.597 4.933 29.608 4.12 39.834c.103 1.157.27 2.309.514 3.45.081.38.277.722.564.984 9.653 8.807 24.988 10.479 37.828 3 10.07-5.866 16.043-15.876 16.856-26.102a28.803 28.803 0 0 0-.514-3.45 1.848 1.848 0 0 0-.564-.984c-5.43-4.954-12.658-7.65-20.229-7.73z" opacity=".2"/>
    <path d="M38.574 8.002c-5.888-.062-11.982 1.458-17.6 4.73C10.906 18.597 4.933 28.608 4.12 38.834c.103 1.157.27 2.309.514 3.45.081.38.277.722.564.984 9.653 8.807 24.988 10.479 37.828 3 10.07-5.866 16.043-15.876 16.856-26.102a28.803 28.803 0 0 0-.514-3.45 1.848 1.848 0 0 0-.564-.984c-5.43-4.954-12.658-7.65-20.229-7.73z" fill="#F9F5D7"/>
    <circle cx="11.213" cy="44.579" r="17" transform="rotate(-30)" opacity=".1"/>
    <circle cx="11.713" cy="43.713" r="17" transform="rotate(-30)" fill="#066678"/>
    <circle cx="11.713" cy="43.713" r="8" transform="rotate(-30)" opacity=".957" fill="#3A393A"/>
    <path d="M38.574 8c-5.888-.062-11.984 1.462-17.601 4.734-10.86 6.326-16.96 17.471-16.952 28.51.35-10.707 6.42-21.376 16.952-27.51C26.59 10.462 32.686 8.938 38.574 9c7.57.08 14.797 2.776 20.227 7.73.287.262.485.607.566.989.406 1.904.59 3.84.604 5.779l.002.037a29.16 29.16 0 0 0-.606-6.816 1.862 1.862 0 0 0-.566-.989C53.37 10.776 46.145 8.08 38.574 8z" opacity=".2" fill="#F9F5D7"/>
</svg>
