<svg xmlns="http://www.w3.org/2000/svg" width="64" height="64" version="1">
    <path d="M4.05 32c-.011.335-.05.663-.05 1 0 15.512 12.488 28 28 28 15.51 0 27.998-12.488 27.998-28 0-.337-.039-.664-.05-1-.528 15.042-12.776 27-27.95 27S4.578 47.042 4.05 32z" opacity=".2"/>
    <rect width="56" height="56" x="4" y="4" rx="27.999" ry="27.999" fill="#066678"/>
    <path d="M28.846 17a.805.805 0 0 0-.674.65l-.65 3.426A12.292 12.292 0 0 0 24.294 23l-3.203-1.123a.782.782 0 0 0-.916.35l-3.082 5.548c-.174.32-.1.761.168 1l2.552 2.327c-.09.623-.144 1.249-.144 1.898 0 .65.055 1.277.144 1.9l-2.552 2.325a.848.848 0 0 0-.168 1l3.082 5.55a.783.783 0 0 0 .916.35L24.295 43a12.3 12.3 0 0 0 3.226 1.926l.65 3.424c.067.358.395.645.747.65h6.164c.352-.005.68-.292.746-.65l.65-3.424A12.3 12.3 0 0 0 39.706 43l3.203 1.125a.783.783 0 0 0 .916-.35l3.082-5.55a.848.848 0 0 0-.168-1L44.186 34.9c.09-.623.144-1.25.144-1.9 0-.65-.055-1.275-.144-1.898l2.552-2.327a.848.848 0 0 0 .168-1l-3.082-5.548a.783.783 0 0 0-.916-.35l-3.203 1.125a12.32 12.32 0 0 0-3.226-1.924l-.65-3.426c-.067-.358-.397-.645-.749-.65h-6.236l.002-.002zM32 27a6 6 0 1 1 0 12 6 6 0 0 1 0-12z" opacity=".2"/>
    <path d="M32 4.002C16.488 4.002 4 16.488 4 32c0 .114.011.224.018.336C4.369 17.135 16.71 5 32 5s27.63 12.135 27.982 27.336c.007-.112.018-.223.018-.336A27.938 27.938 0 0 0 32 4.002z" opacity=".1" fill="#F9F5D7"/>
    <path d="M28.846 16a.805.805 0 0 0-.674.65l-.65 3.426A12.292 12.292 0 0 0 24.294 22l-3.203-1.123a.782.782 0 0 0-.916.35l-3.082 5.548c-.174.32-.1.761.168 1l2.552 2.327c-.09.623-.144 1.249-.144 1.898 0 .65.055 1.277.144 1.9l-2.552 2.325a.848.848 0 0 0-.168 1l3.082 5.55a.783.783 0 0 0 .916.35L24.295 42a12.3 12.3 0 0 0 3.226 1.926l.65 3.424c.067.358.395.645.747.65h6.164c.352-.005.68-.292.746-.65l.65-3.424A12.3 12.3 0 0 0 39.706 42l3.203 1.125a.783.783 0 0 0 .916-.35l3.082-5.55a.848.848 0 0 0-.168-1L44.186 33.9c.09-.623.144-1.25.144-1.9 0-.65-.055-1.275-.144-1.898l2.552-2.327a.848.848 0 0 0 .168-1l-3.082-5.548a.783.783 0 0 0-.916-.35l-3.203 1.125a12.32 12.32 0 0 0-3.226-1.924l-.65-3.426c-.067-.358-.397-.645-.749-.65h-6.236l.002-.002zM32 26a6 6 0 1 1 0 12 6 6 0 0 1 0-12z" fill="#F9F5D7"/>
</svg>
