<svg xmlns="http://www.w3.org/2000/svg" width="64" height="64" version="1">
    <path d="M10.948 13C6.558 13 3 16.582 3 21v24c0 4.418 3.559 8 7.948 8h5.962a7.905 7.905 0 0 0 1.77-.211c.4.03.777.21 1.18.211h.03c4.235 0 8.034-1.755 11.019-4.406C34.26 51.184 38.24 53 42.742 53h.012c7.076-.01 13.643-3.832 17.181-10a8.038 8.038 0 0 0-1.638-9.996A8.038 8.038 0 0 0 59.94 23c-3.54-6.17-10.11-9.992-17.19-10h-.007c-6.326 0-11.755 3.252-15.408 7.965-.817-.418-1.662-.673-2.546-.953-.495-4.002-3.872-7.007-7.878-7.012z" opacity=".2"/>
    <path d="M10.948 12C6.558 12 3 15.582 3 20v24c0 4.418 3.559 8 7.948 8h5.962a7.905 7.905 0 0 0 1.77-.21c.4.03.777.208 1.18.21h.03c4.235 0 8.034-1.755 11.019-4.406C34.26 50.184 38.24 52 42.742 52h.012c7.076-.01 13.643-3.832 17.181-10a8.038 8.038 0 0 0-1.638-9.996A8.038 8.038 0 0 0 59.94 22c-3.54-6.17-10.11-9.992-17.19-10h-.007c-6.326 0-11.755 3.252-15.408 7.965-.817-.418-1.662-.673-2.546-.953-.495-4.002-3.872-7.007-7.878-7.012z" fill="#504945"/>
    <path d="M11 21v24h6v-.527A9 9 0 0 0 20 45a9 9 0 0 0 9-9 9 9 0 0 0-9-9 9 9 0 0 0-3 .527V21zm32 0a12 12 0 0 0-12 12 12 12 0 0 0 12 12 12 12 0 0 0 10.375-6H43a6 6 0 0 1-6-6 6 6 0 0 1 6-6h10.379A12 12 0 0 0 43 21zM20 33a3 3 0 0 1 3 3 3 3 0 0 1-3 3 3 3 0 0 1-3-3 3 3 0 0 1 3-3z" opacity=".2"/>
    <path d="M11 20v24h6v-.527A9 9 0 0 0 20 44a9 9 0 0 0 9-9 9 9 0 0 0-9-9 9 9 0 0 0-3 .527V20zm32 0a12 12 0 0 0-12 12 12 12 0 0 0 12 12 12 12 0 0 0 10.375-6H43a6 6 0 0 1-6-6 6 6 0 0 1 6-6h10.379A12 12 0 0 0 43 20zM20 32a3 3 0 0 1 3 3 3 3 0 0 1-3 3 3 3 0 0 1-3-3 3 3 0 0 1 3-3z" fill="#48B9C7"/>
    <path d="M10.95 12C6.56 12 3 15.582 3 20v1c0-4.418 3.56-8 7.95-8h5.96c4.007.005 7.384 3.01 7.88 7.012.883.28 1.727.535 2.544.953C30.987 16.252 36.417 13 42.742 13h.008c7.079.008 13.65 3.83 17.19 10 .63 1.101.966 2.3 1.039 3.504A8.019 8.019 0 0 0 59.939 22C56.4 15.83 49.83 12.008 42.75 12h-.008c-6.325 0-11.755 3.252-15.408 7.965-.817-.418-1.661-.673-2.545-.953-.495-4.002-3.872-7.007-7.879-7.012h-5.96zm47.862 20.504c-.163.173-.334.34-.515.5a8.008 8.008 0 0 1 2.676 5.496 8.027 8.027 0 0 0-2.16-5.996z" opacity=".1" fill="#F9F5D7"/>
</svg>
