<svg xmlns="http://www.w3.org/2000/svg" width="64" height="64" version="1">
    <path d="M60 58.2V7.8C60 6.249 58.751 5 57.2 5H6.8A2.794 2.794 0 0 0 4 7.8v50.4C4 59.751 5.249 61 6.8 61h50.4c1.551 0 2.8-1.249 2.8-2.8z" opacity=".2"/>
    <path d="M60 57.2V6.8C60 5.249 58.751 4 57.2 4H6.8A2.794 2.794 0 0 0 4 6.8v50.4C4 58.751 5.249 60 6.8 60h50.4c1.551 0 2.8-1.249 2.8-2.8z" fill="#7CB668"/>
    <path d="M27 19a3 3 0 0 0-2.531 1.39L13.996 33.724A8 8 0 0 0 12 39a8 8 0 0 0 8 8 8 8 0 0 0 7.938-7.055c.017.014.038.024.056.037A5 5 0 0 0 32 42a5 5 0 0 0 4.006-2.018c.018-.013.039-.023.056-.037A8 8 0 0 0 44 47a8 8 0 0 0 8-8 8 8 0 0 0-1.996-5.277L39.53 20.39a3 3 0 1 0-4.304 4.027l-.094.105a4 4 0 0 0-1.235-1.039 4.003 4.003 0 0 0-1.586-.468A3.96 3.96 0 0 0 32 23a4.01 4.01 0 0 0-.547.043 3.966 3.966 0 0 0-.297.05 4 4 0 0 0-1.054.391l-.059.032a3.996 3.996 0 0 0-1.176 1.007l-.094-.105A3 3 0 0 0 27 19zm-7 15a5 5 0 1 1 0 10 5 5 0 0 1 0-10zm12 0a3 3 0 0 1 3 3 3 3 0 0 1-3 3 3 3 0 0 1-3-3 3 3 0 0 1 3-3zm12 0a5 5 0 1 1 0 10 5 5 0 0 1 0-10z" opacity=".2"/>
    <path d="M27 18a3 3 0 0 0-2.531 1.39L13.996 32.724A8 8 0 0 0 12 38a8 8 0 0 0 8 8 8 8 0 0 0 7.938-7.055c.017.014.038.024.056.037A5 5 0 0 0 32 41a5 5 0 0 0 4.006-2.018c.018-.013.039-.023.056-.037A8 8 0 0 0 44 46a8 8 0 0 0 8-8 8 8 0 0 0-1.996-5.277L39.53 19.39a3 3 0 1 0-4.304 4.027l-.094.105a4 4 0 0 0-1.235-1.039 4.003 4.003 0 0 0-1.586-.468A3.96 3.96 0 0 0 32 22a4.01 4.01 0 0 0-.547.043 3.966 3.966 0 0 0-.297.05 4 4 0 0 0-1.054.391l-.059.032a3.996 3.996 0 0 0-1.176 1.007l-.094-.105A3 3 0 0 0 27 18zm-7 15a5 5 0 1 1 0 10 5 5 0 0 1 0-10zm12 0a3 3 0 0 1 3 3 3 3 0 0 1-3 3 3 3 0 0 1-3-3 3 3 0 0 1 3-3zm12 0a5 5 0 1 1 0 10 5 5 0 0 1 0-10z" fill="#F9F5D7"/>
    <path d="M6.8 4C5.25 4 4 5.25 4 6.8v1C4 6.25 5.25 5 6.8 5h50.4C58.75 5 60 6.25 60 7.8v-1C60 5.25 58.75 4 57.2 4H6.8z" opacity=".2" fill="#F9F5D7"/>
</svg>
