<svg xmlns="http://www.w3.org/2000/svg" width="64" height="64" version="1">
    <path d="M4.05 32c-.011.334-.05.662-.05 1 0 15.512 12.488 28 28 28 15.511 0 28-12.488 28-28 0-.337-.04-.665-.052-1-.528 15.042-12.775 27-27.95 27C16.826 59 4.579 47.042 4.05 32z" opacity=".2"/>
    <rect width="56" height="56" x="4" y="4" rx="28" ry="28" fill="#504945"/>
    <g transform="translate(0 1) scale(1.99997)" opacity=".2">
        <path d="M21.953 13.08l-.053.088a8 8 0 0 1 .2 1.732 8 8 0 0 1-.11 1.272A3 3 0 0 1 24 19a3 3 0 0 1-3 3 3 3 0 0 1-2.008-.778 8 8 0 0 1-2.757 1.39l-.008.01A6 6 0 0 0 21 25a6 6 0 0 0 6-6 6 6 0 0 0-5.047-5.92zM10.016 13.09A6 6 0 0 0 5 19a6 6 0 0 0 6 6 6 6 0 0 0 4.773-2.371 8 8 0 0 1-2.808-1.369A3 3 0 0 1 11 22a3 3 0 0 1-3-3 3 3 0 0 1 1.91-2.795A8 8 0 0 1 9.8 14.9a8 8 0 0 1 .216-1.81zM16 5a6 6 0 0 0-6 6 6 6 0 0 0 .338 1.957 8 8 0 0 1 2.672-1.772A3 3 0 0 1 13 11a3 3 0 0 1 3-3 3 3 0 0 1 3 3 3 3 0 0 1-.01.187 8 8 0 0 1 2.674 1.768A6 6 0 0 0 22 11a6 6 0 0 0-6-6z"/>
        <circle cx="16" cy="11" r="2"/>
        <circle cx="11" cy="19" r="2"/>
        <circle cx="21" cy="19" r="2"/>
    </g>
    <path d="M32 4C16.488 4 4 16.488 4 32c0 .114.011.224.018.336C4.369 17.134 16.71 5 32 5c15.29 0 27.63 12.134 27.982 27.336.007-.112.018-.222.018-.336C60 16.488 47.512 4 32 4z" opacity=".1" fill="#F9F5D7"/>
    <path d="M43.905 26.16l-.106.177a16 16 0 0 1 .4 3.463 16 16 0 0 1-.22 2.544A6 6 0 0 1 48 38a6 6 0 0 1-6 6 6 6 0 0 1-4.015-1.554 16 16 0 0 1-5.516 2.776l-.014.024A12 12 0 0 0 41.999 50a12 12 0 0 0 12-12 12 12 0 0 0-10.094-11.84zM20.032 26.18A12 12 0 0 0 10 38a12 12 0 0 0 12 12 12 12 0 0 0 9.546-4.742 16 16 0 0 1-5.616-2.738A6 6 0 0 1 22 44a6 6 0 0 1-6-6 6 6 0 0 1 3.82-5.59 16 16 0 0 1-.219-2.61 16 16 0 0 1 .43-3.62zM32 10a12 12 0 0 0-12 12 12 12 0 0 0 .676 3.915 16 16 0 0 1 5.344-3.542A6 6 0 0 1 26 22a6 6 0 0 1 6-6 6 6 0 0 1 6 6 6 6 0 0 1-.02.376 16 16 0 0 1 5.347 3.534A12 12 0 0 0 44 22a12 12 0 0 0-12-12z" fill="#A79984"/>
    <circle cx="32" cy="22.001" r="4" fill="#8DC07B"/>
    <circle cx="22" cy="38" r="4" fill="#D3869B"/>
    <circle cx="41.999" cy="38" r="4" fill="#48B9C7"/>
</svg>
