<svg xmlns="http://www.w3.org/2000/svg" width="64" height="64">
    <circle cx="32" cy="33" r="28" opacity=".2"/>
    <circle cx="32" cy="32" r="28" fill="#D79921"/>
    <path d="M32 4A28 28 0 0 0 4 32a28 28 0 0 0 .021.586A28 28 0 0 1 32 5a28 28 0 0 1 27.979 27.414A28 28 0 0 0 60 32 28 28 0 0 0 32 4z" opacity=".2" fill="#F9F5D7"/>
    <circle cx="32" cy="33" r="20" opacity=".2"/>
    <circle cx="32" cy="32" r="20" fill="#F9F5D7"/>
    <rect width="8" height="26" x="28" y="19" rx="3" ry="3" opacity=".6"/>
</svg>
