<svg xmlns="http://www.w3.org/2000/svg" width="64" height="64" version="1">
    <path d="M4.05 32c-.011.334-.05.662-.05 1 0 15.512 12.488 28 28 28 15.511 0 28-12.488 28-28 0-.338-.04-.666-.05-1C59.42 47.042 47.172 59 32 59 16.825 59 4.578 47.042 4.05 32z" opacity=".2"/>
    <rect width="53" height="53" x="-58.5" y="-58.5" rx="26.5" ry="26.5" transform="matrix(0 -1 -1 0 0 0)" fill="#F9F5D7"/>
    <path d="M32 5.03a27.93 27.93 0 0 0-19.797 8.199 27.847 27.847 0 0 0-6.152 9.264c-1.231 3.038-1.882 6.234-2 9.508a27.886 27.886 0 0 0 15.566 24.13c-.225-.12-.454-.229-.676-.357l10.595 1.886c.08.052.162.102.25.146.906.462 1.838.852 2.788 1.194 14.916-.3 26.868-12.138 27.376-27-.12-3.273-.77-6.469-2-9.507a27.871 27.871 0 0 0-6.15-9.264 27.797 27.797 0 0 0-9.264-6.149A27.93 27.93 0 0 0 32 5.03zm-8.34 3.14c-.02.03-.04.06-.058.094.032.024.048.045.066.05 1.886.652 3.602 1.612 5.218 2.75l-3.164 9.531-.046.016c-.648.268-1.308.506-1.946.796-2.626 1.194-5.188 2.516-7.6 4.102l-6.247-3.694c.009-.196.043-.39.11-.568.419-1.116.833-2.24 1.308-3.335.365-.843.78-1.66 1.234-2.457.297-.328.605-.651.922-.969A26.071 26.071 0 0 1 23.66 8.17zm18.262.582a26.091 26.091 0 0 1 8.62 5.734 26.072 26.072 0 0 1 5.368 7.773 26.687 26.687 0 0 0-5-2.688c-.274-.112-.554-.21-.84-.308l-8.25-9.3c.058-.401.09-.805.102-1.21zM38.54 10.83c.568-.006 1.142.007 1.718.047l8.378 9.444c-.288.912-.57 1.828-.906 2.72-.592 1.566-1.224 3.116-1.854 4.668l-12.172 1.25a10.313 10.313 0 0 0-.454-.562c-1.436-1.628-2.884-3.246-4.328-4.868l.038-.042-1.746-1.748 3.388-10.198c.234-.062.47-.115.706-.14 1.842-.188 3.686-.397 5.532-.504.566-.032 1.13-.06 1.7-.067zM8.872 23.28l6.32 3.737v.16a48.686 48.686 0 0 0 1.016 10.098c.002.016.005.022.008.036l-4.903 7.681a4.066 4.066 0 0 1-.312-.174c-1.349-.848-2.595-1.825-3.695-2.973a26.382 26.382 0 0 1-.852-14.706 23.617 23.617 0 0 1 1.797-2.978c.208-.292.398-.598.621-.882zm37.156 6.199c1.53 2.244 2.978 4.534 4.238 6.944.232.444.464.894.694 1.348l-6.05 11.281a55.086 55.086 0 0 1-9.992.972l-6.036-10.437a658.47 658.47 0 0 0 2.794-5.246 432.262 432.262 0 0 0 1.86-3.582l12.492-1.28zm12.104 5.542a26.076 26.076 0 0 1-7.59 16.55 25.935 25.935 0 0 1-3.156 2.695 23.88 23.88 0 0 0-.944-4.304l6.262-11.683c1.724-.786 3.384-1.674 4.928-2.778.202-.142.37-.304.5-.48zm-40.75 3.766c.108.026.226.058.363.094 3.062.82 6.182 1.402 9.32 1.858.184.026.338.05.47.064l5.866 10.143a214.518 214.518 0 0 1-3.102 4.266c-.174.234-.36.46-.554.684l-12.5-2.232a39.013 39.013 0 0 1-3.906-5.66c-.288-.51-.612-1.01-.855-1.542l4.898-7.675z" opacity=".2"/>
    <path d="M21.464 6.05a27.834 27.834 0 0 0-9.263 6.15A27.915 27.915 0 0 0 4 32a27.9 27.9 0 0 0 2.05 10.536 27.827 27.827 0 0 0 6.151 9.263 27.803 27.803 0 0 0 9.263 6.15A27.88 27.88 0 0 0 32.001 60 27.921 27.921 0 0 0 51.8 51.8a27.788 27.788 0 0 0 6.15-9.263A27.899 27.899 0 0 0 60 32c0-3.637-.69-7.183-2.05-10.538A27.834 27.834 0 0 0 51.8 12.2 27.92 27.92 0 0 0 32.001 4c-3.637 0-7.181.69-10.537 2.05zM10.998 43.787c-1.349-.847-2.591-1.822-3.692-2.97a26.397 26.397 0 0 1-.852-14.71 23.516 23.516 0 0 1 1.794-2.975c.208-.293.4-.599.624-.884l6.319 3.74v.158a48.674 48.674 0 0 0 1.016 10.097l.007.038-4.9 7.684a3.864 3.864 0 0 1-.316-.178zm18.788 12.99a24.059 24.059 0 0 0 3.363 1.408 26.259 26.259 0 0 1-14.206-3.441l10.592 1.887c.081.052.164.101.25.145zm-.039-1.913l-12.5-2.227a39.033 39.033 0 0 1-3.908-5.663c-.288-.51-.61-1.007-.853-1.54l4.896-7.676c.108.027.229.056.366.092 3.063.82 6.18 1.402 9.318 1.859.183.026.336.048.467.062l5.869 10.147a224.922 224.922 0 0 1-3.1 4.263c-.176.235-.361.46-.555.683zm20.796-4.322a26.046 26.046 0 0 1-3.157 2.694 23.996 23.996 0 0 0-.946-4.305l6.262-11.681c1.724-.785 3.388-1.676 4.932-2.78.202-.143.37-.304.5-.479a26.092 26.092 0 0 1-7.59 16.551zm-.277-15.15c.233.445.462.894.693 1.349L44.91 48.024c-.035.007-.068.015-.103.02-3.27.61-6.565.935-9.888.95L28.884 38.56c.94-1.745 1.87-3.496 2.794-5.247a401.444 401.444 0 0 0 1.858-3.58l12.49-1.284c1.53 2.244 2.98 4.536 4.24 6.946zM47.73 22.013c-.592 1.565-1.227 3.114-1.857 4.667l-12.169 1.25a9.925 9.925 0 0 0-.455-.562c-1.437-1.627-2.883-3.244-4.327-4.866.013-.016.026-.029.04-.043-.583-.582-1.167-1.164-1.75-1.748L30.6 10.511c.233-.062.468-.114.706-.14 1.842-.186 3.686-.398 5.532-.505 1.13-.064 2.267-.1 3.417-.019l8.382 9.447c-.29.912-.57 1.826-.907 2.718zm2.812-8.555a26.109 26.109 0 0 1 5.369 7.774 26.618 26.618 0 0 0-5.001-2.687 15.025 15.025 0 0 0-.84-.311l-8.25-9.299c.057-.402.087-.804.1-1.21a26.1 26.1 0 0 1 8.622 5.733zm-26.94-6.22c.033.023.048.044.067.049 1.885.651 3.6 1.611 5.218 2.75l-3.165 9.53a.34.34 0 0 0-.047.016c-.648.268-1.308.508-1.945.798-2.627 1.194-5.188 2.516-7.601 4.102l-6.245-3.695c.009-.195.042-.393.109-.57.42-1.117.832-2.24 1.306-3.335.365-.844.781-1.659 1.236-2.455a26.069 26.069 0 0 1 11.126-7.286c-.02.03-.04.062-.059.095z" fill="#578D57"/>
    <path d="M32 4C16.488 4 4 16.488 4 32c0 .114.011.224.018.336C4.369 17.134 16.71 5 32 5c15.29 0 27.63 12.134 27.982 27.336.007-.112.018-.222.018-.336C60 16.488 47.512 4 32 4z" opacity=".2" fill="#F9F5D7"/>
</svg>
