<svg xmlns="http://www.w3.org/2000/svg" width="64" height="64">
    <circle cx="32" cy="33" r="28" opacity=".2"/>
    <circle cx="32" cy="32" r="28" fill="#D55C0D"/>
    <path d="M32 4A28 28 0 0 0 4 32a28 28 0 0 0 .018.492A28 28 0 0 1 32 5a28 28 0 0 1 27.975 27.492A28 28 0 0 0 60 32 28 28 0 0 0 32 4z" opacity=".1" fill="#F9F5D7"/>
    <path d="M11.257 21c-.68.011-1.257.572-1.257 1.26V27H3.244C2.557 27 2 27.565 2 28.26v9.48c0 .695.557 1.26 1.244 1.26H10v4.739c0 1.122 1.372 1.684 2.156.89l9.48-10.739a1.271 1.271 0 0 0 0-1.781l-9.48-10.74a1.237 1.237 0 0 0-.9-.368z" opacity=".1" fill-rule="evenodd"/>
    <path d="M11.257 20c-.68.011-1.257.572-1.257 1.26V26H3.244C2.557 26 2 26.565 2 27.26v9.48c0 .695.557 1.26 1.244 1.26H10v4.739c0 1.122 1.372 1.684 2.156.89l9.48-10.739a1.271 1.271 0 0 0 0-1.781l-9.48-10.74a1.237 1.237 0 0 0-.9-.368z" fill="#504945" fill-rule="evenodd"/>
    <path d="M35.062 10.962a3 3 0 0 0-2.789 1.789L22.06 35h10.535l-4.192 8.316-4.355-2.196.902 15.719 1.235-.809 11.933-7.82-4.355-2.195L42.336 29H31.414l6.312-13.75a3 3 0 0 0-2.664-4.29z" fill-rule="evenodd" opacity=".1"/>
    <path d="M35.062 9.962a3 3 0 0 0-2.789 1.789L22.06 34h10.535l-4.192 8.316-4.355-2.196.902 15.719 1.235-.809 11.933-7.82-4.355-2.195L42.336 28H31.414l6.312-13.75a3 3 0 0 0-2.664-4.288z" fill="#CB241D" fill-rule="evenodd"/>
    <path d="M52.743 21c.68.011 1.257.572 1.257 1.26V27h6.756c.687 0 1.244.565 1.244 1.26v9.48c0 .695-.557 1.26-1.244 1.26H54v4.739c0 1.122-1.372 1.684-2.156.89l-9.48-10.739a1.271 1.271 0 0 1 0-1.781l9.48-10.74c.238-.24.563-.374.9-.368z" opacity=".1" fill-rule="evenodd"/>
    <path d="M52.743 20c.68.011 1.257.572 1.257 1.26V26h6.756c.687 0 1.244.565 1.244 1.26v9.48c0 .695-.557 1.26-1.244 1.26H54v4.739c0 1.122-1.372 1.684-2.156.89l-9.48-10.739a1.271 1.271 0 0 1 0-1.781l9.48-10.74c.238-.24.563-.374.9-.368z" fill="#F9F5D7" fill-rule="evenodd"/>
</svg>
