<svg xmlns="http://www.w3.org/2000/svg" width="64" height="64" version="1">
    <path d="M29.248 30.132l-3.413 3.943-2.632 2.595-2.93 1.99-3.524 1.88-4.082 1.536-2.556.604-.11.336.148.902.593 1.504 1.26 2.48 1.224 1.838 2.374 2.518 1.074 1.088.964.342 4.375-.041-2.594 1.802-.038.454 1.558 1.239 2.114 1.238c2.732 1.543 5.193-1.506 5.193-1.506s-1.324 2.311-1.243 3.125H29.6l1.372-.224 1.558-.79-.521.825 2.823.036c2.978-.071 4.947-1.814 6.71-3.68l1.854-2.218 1.447-2.215 1.074-2.029 1.708-4.02 1.298-3.267.63-1.73h-.614l-4.69-.55c-3.765-1.08-5.794-3.896-9.283-6.049l-2.893-1.805-2.299-1.389-.333-.49-.067-.19-.126-.083z" fill="#FECE4F"/>
    <path d="M50.3 5.465l-2.727 5.208-2.358 5.311-2.885 5.794-1.994 4.766-2.216-.944-3.19-1.393h-.781l-.666.189-1.074 1.429-3.115 4.167.146.414.333.49 2.3 1.389 2.893 1.803c3.49 2.153 5.517 4.968 9.283 6.048l4.688.552h.789l.051-.209.682-4.251.559-3.437.055-.735-.408-.77-2.747-1.277-1.593-.695-.975-.634-.111-.049.13-.212L47 24.327l1.466-3.613 1.835-4.886 1.42-3.457 1.204-3.08.99-2.984c.592-2.229-2.012-3.435-3.614-.842z" fill="#CB241D"/>
    <path d="M29.248 30.131v.002l-3.414 3.941-2.631 2.596-2.93 1.99-3.523 1.88-4.082 1.536-2.557.604-.11.336.109.668.002-.004 2.556-.603 4.082-1.537 3.524-1.88 2.93-1.99 2.63-2.595 3.414-3.941v-.002l.127.082.067.191.334.49 2.299 1.389 2.892 1.805c3.49 2.153 5.518 4.968 9.283 6.048l4.69.55h.25l.365-1h-.616l-4.689-.55c-3.765-1.08-5.794-3.896-9.283-6.049l-2.893-1.805-2.299-1.388-.334-.49-.066-.192zm-7.234 24.516l-1.46.014-1.134.789-.04.453.386.306zm6.232 3.227s-.34.423-.908.873c-.201.49-.363.967-.334 1.253h.228c.359-.967 1.014-2.127 1.014-2.127zm24.057-53.87c-.661.05-1.403.488-2.004 1.46h.002l-2.728 5.207-2.358 5.313-2.885 5.793-1.994 4.766-2.214-.944-3.192-1.392h-.781l-.666.19-1.074 1.427-3.116 4.168.149.414.137.203 2.83-3.785 1.074-1.43.666-.187h.781l3.192 1.392 2.214.944 1.994-4.766 2.885-5.793 2.358-5.313L50.3 6.464H50.3c1.302-2.107 3.267-1.706 3.64-.286.283-1.324-.568-2.257-1.635-2.176zm-6.705 24.838l-.229.576-.13.213.11.048.975.635 1.594.694 2.746 1.277.334.63.02-.124.055-.735-.409-.771-2.746-1.277-1.594-.694z" opacity=".2" fill="#F9F5D7"/>
    <path d="M49.189 41.686l-.268.73-1.296 3.268-1.707 4.02-1.075 2.029-1.447 2.215-1.853 2.218c-1.764 1.867-3.733 3.61-6.711 3.68l-2.823-.035.52-.826-1.557.79L29.6 60h-2.367c-.147.396-.252.764-.228 1H29.6l1.373-.224 1.557-.791-.52.826 2.822.035c2.979-.07 4.947-1.813 6.711-3.68l1.854-2.218 1.447-2.215 1.074-2.03 1.707-4.019 1.297-3.267.633-1.731zm-39.08 1.998l-.109.332.148.902.594 1.504 1.26 2.48 1.225 1.839 2.373 2.517 1.074 1.088.965.342 2.916-.027 1.459-1.014-4.375.04-.965-.34-1.074-1.089-2.373-2.517-1.225-1.838-1.26-2.48-.594-1.505zm9.656 12.525l-.346.24-.039.453 1.559 1.239 2.113 1.24c1.717.97 3.326.126 4.286-.635.369-.905.908-1.873.908-1.873s-2.461 3.05-5.194 1.508l-2.113-1.24zM53.938 6.18c-.009.043-.012.083-.023.127l-.99 2.984-1.206 3.08-1.418 3.457-1.835 4.885-1.467 3.615-1.63 4.09-.13.213.111.049.248.162 1.4-3.514 1.468-3.613 1.835-4.887 1.418-3.457 1.206-3.08.99-2.984a2.2 2.2 0 0 0 .023-1.127zM29.58 30.61l-.285.383.148.414.333.49 2.298 1.389 2.893 1.802c3.49 2.154 5.518 4.97 9.283 6.05l4.69.55h.786l.053-.208.682-4.252.558-3.437.055-.735-.074-.14-.54 3.31-.681 4.252-.053.21h-.787l-4.69-.552c-3.765-1.08-5.793-3.895-9.283-6.048l-2.892-1.803-2.3-1.389z" opacity=".2"/>
</svg>
