<svg xmlns="http://www.w3.org/2000/svg" width="64" height="64">
    <circle cx="32" cy="33" r="28" opacity=".2"/>
    <circle cx="32" cy="32" r="28" fill="#FA4934"/>
    <path d="M32 4A28 28 0 0 0 4 32a28 28 0 0 0 .021.586A28 28 0 0 1 32 5a28 28 0 0 1 27.979 27.414A28 28 0 0 0 60 32 28 28 0 0 0 32 4z" fill="#F9F5D7" opacity=".2"/>
    <path d="M4.389 36.594a28 28 0 0 0 .02.166 28 28 0 0 0 .478 2.138c.812-.352 1.728-.699 2.11-1.003 2.297-1.843 6.319-4.846 6.728-4.846.41 0 1.112-.171 1.406.847.294 1.019-.383 2.233-.383 2.233s-.89 1.518-.859 2.353c.42 3.011 2.843 6.027 5.308 6.44 1.775.243 4.401.082 4.401.082l.054-.445c-.057-.676-1.447-.965-1.447-.965-.011.007-1.762.339-2.529-.014-1.295-.593-2.811-2.924-2.811-3.221 0-.295.434-1.625.434-1.625s1.428.198 1.902.198 1.695.056 1.695.056l.918 1.42c.289.557.649.276 1.127.406l2.043.022 1.411-.029v-.719c0 .72 0-.683-.915-.703-.793-.038-1.826-.142-1.914-.428-.144-.469.059-1.689.059-1.689s1.02-.495 3.172-.069 4.601 2.207 4.601 2.207c-.615 1.137-1.178 1.381-1.289 2.545-.111 1.055-.111 1.055.582 1.055h3.307s0-1.399-.949-1.328c-.666-.023-1.035-.061-1.035-.117 0-.266 1.269-1.379 1.269-1.379l.899-.651s1.256.845 2.871 1.256c1.616.41 3.631.211 3.631.211.63.38.751.696 1.064 1.234.249.976.25.777.795.797 1.192.031 2.198-.022 3.363-.105 0 0 .094-1.317-1.844-1.317 0 0-.708-.447-.835-1.113-.128-.667-.051-2.412-.051-2.412l.957-.08 1.262 1.076.785.074 1.09 1.756s2.172.16 2.9-.117c.728-.276 2.046-1.013 2.809-1.838.761-.824 1.269-2.775 1.011-3.875-.257-1.099-1.679-2.414-1.679-2.414-3.012-2.858-7.712-7.636-10.623-7.662-.466 0-1.623 1.091-2.292.609-4.168-2.874-8.73-6.401-13.728-6.605v-.004s-.556-.006-.797.023c-5.475-.03-8.54 5.955-11.236 9.303-1.191 1.483-2.147 2.666-2.147 2.666-2.029 2.098-4.794 4.261-7.1 5.6zM47 31a1.5 1.5 0 1 1 .001 2.999A1.5 1.5 0 0 1 47 31z" opacity=".2"/>
    <path d="M4.275 35.672a28 28 0 0 0 .018.133c.091.67.208 1.334.348 1.996a28 28 0 0 0 .043.193c.869-.388 1.894-.765 2.312-1.099 2.298-1.843 6.32-4.846 6.729-4.846.41 0 1.112-.171 1.406.847.294 1.019-.383 2.233-.383 2.233s-.89 1.518-.859 2.353c.42 3.011 2.843 6.027 5.308 6.44 1.775.243 4.401.082 4.401.082l.054-.445c-.057-.676-1.447-.965-1.447-.965-.011.007-1.762.339-2.529-.014-1.295-.593-2.811-2.924-2.811-3.221 0-.295.434-1.625.434-1.625s1.428.198 1.902.198 1.695.056 1.695.056l.918 1.42c.289.557.649.276 1.127.406l2.043.022 1.411-.029v-.719c0 .72 0-.683-.915-.703-.793-.038-1.826-.142-1.914-.428-.144-.469.059-1.689.059-1.689s1.02-.495 3.172-.069 4.601 2.207 4.601 2.207c-.615 1.137-1.178 1.381-1.289 2.545-.111 1.055-.111 1.055.582 1.055h3.307s0-1.399-.949-1.328c-.666-.023-1.035-.061-1.035-.117 0-.266 1.269-1.379 1.269-1.379l.899-.651s1.256.845 2.871 1.256c1.616.41 3.631.211 3.631.211.63.38.751.696 1.064 1.234.249.976.25.777.795.797 1.192.031 2.198-.022 3.363-.105 0 0 .094-1.317-1.844-1.317 0 0-.708-.447-.835-1.113-.128-.667-.051-2.412-.051-2.412l.957-.08 1.262 1.076.785.074 1.09 1.756s2.172.16 2.9-.117c.728-.276 2.046-1.013 2.809-1.838.761-.824 1.269-2.775 1.011-3.875-.257-1.099-1.679-2.414-1.679-2.414-3.012-2.858-7.711-7.636-10.623-7.662-.465 0-1.623 1.091-2.292.609-4.168-2.874-8.73-6.401-13.728-6.605v-.004s-.556-.006-.797.023c-5.475-.03-8.54 5.955-11.236 9.303-1.191 1.483-2.147 2.666-2.147 2.666-2.06 2.131-4.887 4.345-7.213 5.678zM47 30a1.5 1.5 0 1 1 .001 2.999A1.5 1.5 0 0 1 47 30z" fill="#F9F5D7"/>
</svg>
