<svg xmlns="http://www.w3.org/2000/svg" width="64" height="64">
    <path d="M14 27.002s-3-.162-3 2.873v12.363c2.676 10.77 9.133 13.38 14.16 16.464C26.957 59.807 29.462 61.01 32 61c2.537.02 5.041-1.193 6.84-2.298 5.027-3.084 11.484-5.695 14.16-16.464V29.875c0-3.036-3-2.873-3-2.873H32z" opacity=".2" fill-rule="evenodd"/>
    <path d="M31.8 5C22.522 5 15 12.522 15 21.8v16.8h33.6V21.8C48.6 12.522 41.078 5 31.8 5zm0 6C37.986 11 43 15.614 43 21.8V33H20.6l.4-11.2c.22-6.182 4.614-10.8 10.8-10.8z" opacity=".2"/>
    <path d="M31.8 4C22.522 4 15 11.522 15 20.8v16.8h33.6V20.8C48.6 11.522 41.078 4 31.8 4zm0 6C37.986 10 43 14.614 43 20.8V32H20.6l.4-11.2c.22-6.182 4.614-10.8 10.8-10.8z" fill="#F9F5D7"/>
    <path d="M31.8 4C22.523 4 15 11.522 15 20.8v1C15 12.523 22.522 5 31.8 5c9.28 0 16.802 7.522 16.802 16.8v-1C48.602 11.523 41.079 4 31.8 4zM20.673 32l-.07 2h.035l.035-1H43v-1H20.672z" opacity=".1" fill="#F9F5D7"/>
    <path d="M14 26.002s-3-.162-3 2.873v12.363c2.676 10.77 9.133 13.38 14.16 16.464C26.957 58.807 29.462 60.01 32 60c2.537.02 5.041-1.193 6.84-2.298 5.027-3.084 11.484-5.695 14.16-16.464V28.875c0-3.036-3-2.873-3-2.873H32z" fill="#3A393A" fill-rule="evenodd"/>
    <path d="M16 42l-4.273 2.668c1.644 4.81 4.146 7.696 6.836 9.804L25 47l-2-2-4 2zm32 0l-3 5-4-2-2 2 6.438 7.472c2.689-2.108 5.191-4.995 6.835-9.804zm-20 7l-4.89 8.48c.687.403 1.399.823 2.05 1.223 1.084.665 2.435 1.335 3.883 1.785L31 51zm8 0l-3 2 1.957 9.488c1.448-.45 2.8-1.12 3.883-1.785.651-.4 1.363-.82 2.05-1.223z" opacity=".2" fill-rule="evenodd"/>
    <path d="M16 41l-4.273 2.668c1.644 4.81 4.146 7.696 6.836 9.805L25 46l-2-2-4 1zM28 48l-4.89 8.48c.687.403 1.399.824 2.05 1.223 1.084.665 2.435 1.335 3.883 1.785L31 50l-3-2z" fill="#B7BB25" fill-rule="evenodd"/>
    <path d="M15 31v6h8v-4z" opacity=".2" fill-rule="evenodd"/>
    <path d="M15 30v6h8v-4z" fill="#B7BB25" fill-rule="evenodd"/>
    <path d="M32 31a4 4 0 0 0-4 4 4 4 0 0 0 2.625 3.75L28 44l4 2 4-2-2.623-5.248A4 4 0 0 0 36 35a4 4 0 0 0-4-4z" opacity=".3"/>
    <path d="M48 41l4.273 2.668c-1.644 4.81-4.146 7.696-6.836 9.805L39 46l2-2 4 1zM36 48l4.89 8.48c-.687.403-1.4.823-2.05 1.223-1.084.665-2.435 1.335-3.883 1.785L33 50l3-2z" fill="#B7BB25" fill-rule="evenodd"/>
    <path d="M49 31v6h-8v-4z" opacity=".2" fill-rule="evenodd"/>
    <path d="M49 30v6h-8v-4z" fill="#B7BB25" fill-rule="evenodd"/>
    <path d="M14 26s-3-.16-3 2.875v1C11 26.84 14 27 14 27h36s3-.16 3 2.875v-1C53 25.84 50 26 50 26H14z" opacity=".1" fill="#F9F5D7" fill-rule="evenodd"/>
</svg>
