<svg xmlns="http://www.w3.org/2000/svg" width="64" height="64">
    <path d="M4 52.222v2C4 55.762 5.25 57 6.8 57h50.4c1.55 0 2.8-1.238 2.8-2.778v-2C60 53.762 58.75 55 57.2 55H6.8C5.25 55 4 53.762 4 52.222z" opacity=".2"/>
    <path d="M6.8 6A2.783 2.783 0 0 0 4 8.778V50h56V8.78a2.783 2.783 0 0 0-2.8-2.778H6.8z" fill="#48B9C7"/>
    <path d="M6.8 56A2.782 2.782 0 0 1 4 53.222V50h56v3.222A2.782 2.782 0 0 1 57.2 56z" fill="#3A393A"/>
    <path d="M6.8 6A2.783 2.783 0 0 0 4 8.777v1A2.783 2.783 0 0 1 6.8 7h50.4C58.75 7 60 8.238 60 9.777v-1A2.784 2.784 0 0 0 57.2 6H6.8z" opacity=".1" fill="#F9F5D7"/>
</svg>
