<svg xmlns="http://www.w3.org/2000/svg" width="64" height="64" version="1">
    <path d="M6.8 5C5.25 5 4 6.25 4 7.8V54c0 .008.004.015.004.023L4 58.316A2.686 2.686 0 0 0 6.7 61h50.6c1.492 0 2.7-1.193 2.7-2.684V7.8C60 6.25 58.75 5 57.2 5H6.8z" opacity=".2"/>
    <path d="M60 53V6.8C60 5.249 58.751 4 57.2 4H6.8A2.794 2.794 0 0 0 4 6.8V53c0 1.551 1.249 2.8 2.8 2.8h50.4c1.551 0 2.8-1.249 2.8-2.8z" fill="#48B9C7"/>
    <path d="M4 57.318A2.685 2.685 0 0 0 6.699 60H57.3A2.685 2.685 0 0 0 60 57.318L59.995 40c-1.169.585-3.023 2.624-3.563 2.932-1.514.863-3.121.34-4.009 2.365-.328.749-.022 2.303-.751 2.427-1.272.216-5.672.076-6.282.496-2.771 1.58-6.172 2.487-9.228 3.358-.585.167-1.518 2.03-2.12 2.258C31.199 54.916 27.365 52 24.429 52c-3.843 0-10.629 3.8-14.482 1.144-1.683-2.342-3.39-2.9-5.942-3.144z" fill="#504945"/>
    <path d="M24.782 52.211c-1.236-.611-1.48-1.62-.941-1.953.656-.405.28-2.763-.863-5.414-1.124-2.607-1.139-2.687-.622-3.264 1.206-1.345 1.143-1.42-1.005-1.213-5.964.577-6.171 1.563-8.23 2.418-2.71 1.126-5.152 1.516-5.152 1.201 0-.133.359-.343.797-.466l.796-.223-.844-.17c-.842-.17-.84-.174.869-1.301 5.028-5.107 9.623-11.24 16.203-14.696.824-.417 1.767-1.04 1.968-1.482.191-.419.348-2.577.348-4.062 0-3.146.507-4.823 2.41-5.392 1.484-.194 1.236-.282 2.56.54.88.548 2.007 2.197 2.97 2.316 3.841.476 7.424 1.942 8.026 2.916.109.175-.181.123-.644-.116-2.506-1.296-7.775-2.18-9.633-1.298-1.52.72-.619 1.377-.081 4.432.73 4.144.216 7.451-1.508 9.711-.414.543-1.54 1.568-2.504 2.277-.963.709-2.94 1.616-3.148 2.016-.207.4-.628 1.046-.936 1.437-.48.611-.563 1.223-.589 4.373-.02 2.308.089 3.806.292 4.05.177.214.241.711.142 1.105-.201.804.996 2 2.194 2 .378 0 .94.19 1.25.424.518.393.45.426-.886.435-.905.008-2.47-.22-3.24-.6zm-.68-8.253c-.016-.518.066-1.495.183-2.172.237-1.383-.127-1.64-.73-.516-.453.848-.46 2.2-.014 3.032.448.836.593.747.56-.344z" fill="#504945"/>
    <path d="M6.8 4C5.25 4 4 5.25 4 6.8v1C4 6.25 5.25 5 6.8 5h50.4C58.75 5 60 6.25 60 7.8v-1C60 5.25 58.75 4 57.2 4H6.8z" opacity=".1" fill="#F9F5D7"/>
</svg>
