<svg xmlns="http://www.w3.org/2000/svg" width="64" height="64" version="1">
    <path d="M56 32a24 24 0 0 1-24 24A24 24 0 0 1 8 32 24 24 0 0 1 32 8a24 24 0 0 1 24 24z" fill="#322F2E"/>
    <path d="M33.876 7.024c-.256-.011-.508.015-.762.011l-7.986 21.116L13.73 15.058c-.305.316-.63.607-.921.941l12.319 14.152 8.748-23.128zm20.78 12.773l-22.832 3.789-.758 2.124 24.687-4.096c-.332-.628-.718-1.221-1.098-1.817zm-15.27 8.493l-1.448.268 15.94 19.032c2.863-4.432 4.255-9.636 4.063-14.882-.192 4.556-1.566 9.016-4.064 12.882l-14.491-17.3zM6.058 31.292c-.135 3.206.297 6.458 1.414 9.594l18.59-3.444-1.449-1.732-17.141 3.176c-.885-2.484-1.32-5.044-1.414-7.594zm26.876 8.998l-.758.124-5.512 15.472a26.249 26.249 0 0 1-17.32-11.682l-1.098.182c3.657 6.924 10.392 12.012 18.418 13.5l6.27-17.596zm17.335 8.652c-5.104 5.286-12.165 8.124-19.383 8.022l-.762 2.011c7.912.34 15.745-2.867 21.067-8.975l-.922-1.058z" opacity=".2"/>
    <path d="M37.336 7.114l-6.27 17.597 24.687-4.096C52.097 13.69 45.36 8.603 37.336 7.114z" fill="#D55C0D"/>
    <path d="M56.527 24.113l-18.59 3.445L53.878 46.59c4.254-6.584 5.354-14.88 2.65-22.478z" fill="#F9BD2E"/>
    <path d="M51.191 48.998l-12.32-14.15-8.748 23.127c7.91.34 15.747-2.869 21.068-8.977z" fill="#7CB668"/>
    <path d="M26.664 56.886l6.27-17.596-24.688 4.096c3.657 6.924 10.393 12.012 18.419 13.501z" fill="#066678"/>
    <path d="M7.473 39.888l18.59-3.446-15.941-19.031c-4.254 6.584-5.354 14.88-2.65 22.478z" fill="#8F3F71"/>
    <path d="M12.808 15.002l12.322 14.15 8.746-23.127c-7.91-.34-15.748 2.869-21.068 8.977z" fill="#CB241D"/>
    <path d="M37.336 7.113l-6.27 17.598.38-.063 5.89-16.533a26.265 26.265 0 0 1 17.9 12.586l.518-.086C52.098 13.692 45.36 8.602 37.336 7.113zM56.527 24.113l-18.59 3.444.727.867 17.863-3.31a25.38 25.38 0 0 1 1.46 8.085 25.38 25.38 0 0 0-1.46-9.086zM38.871 34.848l-8.748 23.127c.126.005.251.002.377.005l8.371-22.132 11.871 13.634c.149-.162.304-.317.45-.484l-12.32-14.15zM32.934 39.291L8.246 43.387c.164.31.342.611.518.914l23.79-3.947.38-1.063zM10.121 17.41a25.724 25.724 0 0 0-4.107 14.393 25.733 25.733 0 0 1 4.107-13.39L25.34 36.577l.724-.135L10.121 17.41zM32.395 6.002c-7.399.095-14.598 3.274-19.586 9h-.002l.449.516c5.22-5.693 12.676-8.715 20.242-8.498l.377-.995c-.494-.02-.987-.03-1.48-.023z" fill="#F9F5D7" opacity=".2"/>
</svg>
