<svg xmlns="http://www.w3.org/2000/svg" width="64" height="64">
    <path d="M26.815 60.552C14.115 58.263 4.85 47.89 4.054 35.065 3.01 18.232 17.229 4.005 34.049 5.055c6.589.41 12.638 2.992 17.303 7.383 5.653 5.322 8.632 12.1 8.648 19.676.007 3.633-.476 5.886-2.158 10.053-.69 1.712-1.44 3.787-1.666 4.612-.868 3.168-.336 6.435 1.705 10.462.66 1.303 1.133 2.435 1.052 2.516-.081.08-1.405-.33-2.942-.912-5.74-2.177-7.958-2.193-13.112-.091-5.308 2.163-10.693 2.766-16.064 1.798z" opacity=".2"/>
    <path d="M26.815 59.552C14.115 57.263 4.85 46.89 4.054 34.065 3.01 17.232 17.229 3.005 34.049 4.055c6.589.41 12.638 2.992 17.303 7.383 5.653 5.322 8.632 12.1 8.648 19.676.007 3.633-.476 5.886-2.158 10.053-.69 1.712-1.44 3.787-1.666 4.612-.868 3.168-.336 6.435 1.705 10.462.66 1.303 1.133 2.435 1.052 2.516-.081.08-1.405-.33-2.942-.912-5.74-2.177-7.958-2.193-13.112-.091-5.308 2.163-10.693 2.766-16.064 1.798z" fill="#066678"/>
    <path d="M31.979 13.001c-1.7.014-3.592.146-4.631.408-3.481.878-5.265 2.53-5.213 4.82.045 1.991 1.017 3.284 5.549 6.628 2.245 1.656 4.031 3.555 3.974 3.724-.057.17-1.082.554-2.28.854-4.729 1.186-8.658 3.975-10.331 7.33-1.409 3.322-1.377 6.838-.01 9.597 2.23 4.474 7.146 6.981 12.934 6.6 1.205-.08 3.042-.402 4.08-.719 2.31-.704 4.654-2.192 6.478-4 3.418-3.325 4.37-9.224 2.6-13.049-1.438-2.922-4.333-5.461-9.947-8.722-7.92-4.6-8.923-5.734-9.893-6.824-.51-.575-.928-1.357-.928-1.737 0-2.616 5.65-4.082 9.184-2.44.826.385 2.38 1.401 3.455 2.26 3.156 2.525 4.66 2.862 6.238 1.409 1.796-1.655.168-4.136-3.47-5.299-1.757-.561-4.957-.864-7.79-.84zM33.45 31c.643.002.987.317 2.313 1.559 3.061 2.867 4.533 6.331 4.185 9.86-.475 4.003-3.19 7.477-7.785 7.581-4.779.041-8.137-4.824-8.164-8.943-.017-3.528.55-5.165 2.44-7.037 1.448-1.436 3.946-2.615 6.222-2.94.328-.047.575-.08.79-.08z" opacity=".2"/>
    <path d="M31.979 12.002c-1.7.014-3.592.146-4.631.408-3.481.878-5.265 2.53-5.213 4.82.045 1.99 1.017 3.284 5.549 6.627 2.245 1.657 4.031 3.556 3.974 3.725-.057.17-1.082.553-2.28.854-4.729 1.185-8.658 3.975-10.331 7.33-1.409 3.322-1.377 6.838-.01 9.597 2.23 4.474 7.146 6.98 12.934 6.6 1.205-.08 3.042-.402 4.08-.719 2.31-.704 4.654-2.192 6.478-4 3.418-3.326 4.37-9.224 2.6-13.049-1.438-2.922-4.332-5.461-9.947-8.722-7.92-4.6-8.923-5.734-9.893-6.825-.51-.574-.928-1.356-.928-1.736 0-2.616 5.65-4.083 9.184-2.44.826.385 2.38 1.401 3.455 2.26 3.156 2.525 4.66 2.862 6.238 1.409 1.796-1.655.168-4.136-3.47-5.3-1.757-.56-4.957-.863-7.79-.839zM33.45 30c.643.002.987.317 2.313 1.559 3.061 2.867 4.533 6.331 4.185 9.859-.475 4.004-3.19 7.478-7.785 7.582-4.779.041-8.137-4.825-8.164-8.943-.017-3.528.55-5.165 2.44-7.037 1.448-1.436 3.946-2.616 6.222-2.94.328-.047.575-.08.79-.08z" fill="#F9F5D7"/>
    <path d="M32.48 4.002c-.519-.003-1.036.008-1.55.033-15.01.74-27.153 13.554-26.883 28.793.002-.04.007-.078.01-.117C4.383 17.969 16.289 5.757 30.93 5.035a27.921 27.921 0 0 1 3.117.02c6.59.41 12.64 2.992 17.305 7.383 5.506 5.184 8.467 11.75 8.632 19.087.006-.136.016-.263.016-.412-.016-7.576-2.995-14.353-8.648-19.675-4.665-4.391-10.716-6.972-17.305-7.383a27.742 27.742 0 0 0-1.567-.053zm23.356 45.756a11.48 11.48 0 0 0-.022 1.5c.008-.167.007-.335.022-.5.174 1.987.836 4.102 2.043 6.484.281.555.5 1.038.685 1.463.2.05.347.076.37.053.08-.081-.395-1.213-1.055-2.516-1.207-2.382-1.87-4.497-2.043-6.484z" opacity=".1" fill="#F9F5D7"/>
</svg>
