<svg xmlns="http://www.w3.org/2000/svg" width="64" height="64" version="1">
    <path d="M30.114 60.959c-1.712-.084-4.214-.442-5.862-.838-4.691-1.132-9.199-3.568-11.974-6.468l-.332-.347-.31.165c-.85.454-2.062.53-2.896.184-.538-.224-1.165-.854-1.472-1.48-.654-1.334-.96-3.816-.96-7.776v-1.928l-.208-.048c-.564-.136-1.445-.936-1.76-1.6-.677-1.42-.35-3.396 1.044-6.342.418-.882 1.31-2.508 1.897-3.456l.31-.502-.172-.342c-.57-1.118.015-3.156 1.368-4.766l.542-.646-.724-.086c-1.282-.154-2.195-.754-2.504-1.644-.2-.576-.129-1.368.173-1.906.325-.578 1.9-2.07 2.803-2.653 1.556-1.005 3.502-1.832 5.806-2.467l1.308-.36.024-2.682c.026-2.859.11-3.822.5-5.737.497-2.452 1.623-5.232 2.35-5.808.568-.45 1.483-.56 2.117-.254.537.258.83.625 1.269 1.592.46 1.015 2.845 5.543 3.98 7.56l.711 1.263 1.365.332c.75.182 2.099.537 2.996.789.897.251 1.646.457 1.666.457s.035-.19.035-.421c0-.829.472-1.604 1.218-1.999.882-.413 1.846-.207 2.484.101.37.18 1.008.568 1.417.863.409.294.757.536.773.536.116 0 5.724-6.17 6.97-7.668.44-.527.92-1.102 1.07-1.276.88-1.026 2.617-.83 3.256.367.2.374.527 1.955.632 3.056.33 3.455-.333 7.626-1.919 12.077a67.04 67.04 0 0 1-.52 1.427c-.042.097.13.232.773.605a40.488 40.488 0 0 1 3.236 2.135c.89.666 2.544 2.291 3.007 2.953 1.108 1.582 1.492 3.255.98 4.262l-.173.34.311.503c.587.949 1.479 2.574 1.896 3.455 1.395 2.947 1.721 4.924 1.046 6.343-.316.664-1.197 1.464-1.76 1.6l-.208.049-.002 2.004c-.003 3.926-.306 6.365-.96 7.699-.306.626-.934 1.257-1.47 1.48-.878.364-2.263.245-3.028-.262l-.28-.186-1.045.972c-1.847 1.72-3.606 2.898-6.022 4.034a27.198 27.198 0 0 1-6.704 2.186c-2.598.5-5.37.691-8.069.56z" fill="#FA4934"/>
    <path d="M32 54.239c0 1.614-1.578 3.76-3.338 3.76S26 55.775 26 54.161c0-1.614 1.654-.711 3.414-.711S32 52.625 32 54.238z" opacity=".2"/>
    <ellipse cx="32" cy="33.999" rx="14" ry="12" opacity=".2"/>
    <ellipse cx="32" cy="32.999" rx="14" ry="12" fill="#F9F5D7"/>
    <path d="M32 26.999a4 5 0 0 0-1.38.31 2.667 2.5 0 0 1 1.38 2.19 2.667 2.5 0 0 1-2.666 2.5 2.667 2.5 0 0 1-1.322-.33 4 5 0 0 0-.012.33 4 5 0 0 0 4 5 4 5 0 0 0 4-5 4 5 0 0 0-4-5z" fill="#282727"/>
    <path d="M32 53.239c0 1.614-1.578 3.76-3.338 3.76S26 54.775 26 53.161c0-1.614 1.654-.711 3.414-.711S32 51.625 32 53.238z" fill="#F9F5D7"/>
    <path d="M27.642 51.823c-3.408-.008-6.746-.804-9.642-2.302 3.062 2.246 6.902 3.476 10.866 3.478 9.462 0 17.134-3.554 17.134-12-2.328 8.342-9.646 10.599-18.358 10.823z" fill="#9D0006"/>
    <path d="M18 17.294l.017-2.067c.019-2.204.08-2.946.36-4.423.361-1.89 1.174-4.033 1.701-4.476.41-.347 1.072-.432 1.53-.197.388.2.6.482.917 1.227.333.783 2.057 4.274 2.877 5.829l.512.973c1.008 3.223-7.24 4.875-7.914 3.134z" opacity=".2"/>
    <path d="M18 16.294l.017-2.067c.019-2.204.08-2.946.36-4.423.361-1.89 1.174-4.033 1.701-4.476.41-.347 1.072-.432 1.53-.197.388.2.6.482.917 1.227.333.783 2.057 4.274 2.877 5.829l.512.973c1.008 3.223-7.24 4.876-7.914 3.134z" fill="#F9F5D7"/>
    <path d="M46.156 19.591l.618-2.012c.66-2.144.836-2.877 1.046-4.367.272-1.906.23-4.147-.084-4.681a1.123 1.123 0 0 0-1.254-.49c-.392.118-.662.352-1.162 1.014-.526.695-3.074 3.75-4.254 5.1l-.739.846c-1.85 2.935 4.717 6.15 5.83 4.59z" opacity=".2"/>
    <path d="M46.156 18.591l.618-2.012c.66-2.144.836-2.878 1.046-4.367.272-1.907.23-4.148-.084-4.681a1.123 1.123 0 0 0-1.254-.49c-.392.118-.662.351-1.162 1.013-.526.696-3.074 3.75-4.254 5.101l-.739.845c-1.85 2.936 4.717 6.151 5.83 4.59z" fill="#F9F5D7"/>
    <path d="M20.1 1.016c-.379.045-.75.185-1.034.41-.727.575-1.853 3.355-2.351 5.806-.39 1.916-.475 2.88-.5 5.739l-.024 2.681-1.308.362c-2.304.634-4.249 1.461-5.805 2.466-.902.584-2.48 2.075-2.805 2.653-.263.469-.337 1.124-.222 1.668a2.26 2.26 0 0 1 .222-.668c.325-.578 1.903-2.069 2.805-2.653 1.556-1.005 3.501-1.832 5.805-2.466l1.308-.362.024-2.681c.025-2.859.11-3.823.5-5.739.498-2.451 1.624-5.23 2.351-5.806.568-.45 1.482-.559 2.116-.254.536.258.83.625 1.269 1.592.461 1.015 2.845 5.543 3.981 7.56l.711 1.262 1.365.332c.751.182 2.097.538 2.994.789.897.252 1.647.457 1.666.457s.035-.188.035-.42c0-.829.473-1.603 1.219-1.998.881-.414 1.846-.209 2.484.1.371.179 1.007.568 1.416.863s.757.535.774.535c.115 0 5.724-6.169 6.97-7.668.439-.527.921-1.1 1.071-1.275.88-1.026 2.616-.83 3.256.367.199.373.525 1.954.63 3.055.037.38.056.773.069 1.17a19.243 19.243 0 0 0-.069-2.17c-.105-1.1-.431-2.682-.63-3.055-.64-1.198-2.376-1.393-3.256-.367-.15.174-.632.748-1.071 1.275-1.246 1.5-6.855 7.668-6.97 7.668-.017 0-.365-.24-.774-.535s-1.045-.684-1.416-.863c-.638-.309-1.603-.516-2.484-.102a2.281 2.281 0 0 0-1.219 2c0 .232-.016.42-.035.42s-.769-.205-1.666-.457c-.897-.251-2.243-.607-2.994-.789l-1.365-.332-.711-1.262c-1.136-2.017-3.52-6.545-3.981-7.56-.439-.967-.733-1.334-1.269-1.592a1.982 1.982 0 0 0-1.082-.156zM48.848 20.51c-.096.26-.247.684-.262.719-.043.096.129.23.771.603a40.628 40.628 0 0 1 3.237 2.135c.889.666 2.544 2.29 3.008 2.953.64.915 1.031 1.858 1.154 2.687.175-1.005-.236-2.375-1.154-3.687-.464-.662-2.119-2.287-3.008-2.953a40.628 40.628 0 0 0-3.237-2.135 6.753 6.753 0 0 1-.509-.322zm-40.26 5.17c-1.007 1.309-1.519 2.832-1.342 3.918.153-1.01.698-2.18 1.541-3.182l.543-.646-.724-.086c-.007-.001-.012-.004-.018-.004zm-1.252 5.258l-.055.087c-.587.948-1.479 2.573-1.896 3.455-1.065 2.25-1.503 3.932-1.352 5.235.101-1.14.54-2.518 1.352-4.233.417-.882 1.31-2.51 1.896-3.457l.31-.502-.171-.341c-.038-.075-.056-.163-.084-.244zm49.332.007c-.028.08-.049.163-.086.237l-.174.34.311.503c.587.949 1.479 2.574 1.896 3.455.812 1.716 1.251 3.095 1.352 4.235.151-1.303-.287-2.985-1.352-5.235-.417-.881-1.309-2.506-1.896-3.455l-.051-.08z" opacity=".2" fill="#F9F5D7"/>
    <path d="M51.092 8.89c-.052 2.978-.718 6.352-1.986 9.91-.256.718-.49 1.36-.52 1.428-.026.058.075.151.262.282.094-.259.13-.353.258-.71 1.412-3.96 2.086-7.699 1.986-10.91zM6.051 22.801c-.082.421-.077.872.05 1.239.309.885 1.214 1.483 2.487 1.64.067-.087.128-.178.2-.263l.542-.647-.724-.086c-1.283-.154-2.195-.754-2.504-1.644-.026-.074-.034-.159-.051-.239zm1.195 6.797c-.076.504-.04.957.09 1.34l.256-.415-.172-.342a1.981 1.981 0 0 1-.174-.584zm49.51.01a2.034 2.034 0 0 1-.174.574l-.173.342.26.422c.133-.384.162-.838.087-1.338zM4.033 39.713c-.072.818.024 1.518.307 2.111.316.664 1.196 1.464 1.76 1.6l.207.047.002 1.928c0 3.96.307 6.443.96 7.777.307.626.934 1.256 1.471 1.48.835.346 2.045.269 2.895-.185l.31-.164.332.345c2.776 2.9 7.284 5.337 11.975 6.47 1.648.395 4.15.753 5.862.837 2.699.131 5.47-.06 8.068-.558 2.4-.461 4.474-1.137 6.705-2.186 2.416-1.136 4.174-2.315 6.022-4.035l1.043-.973.281.188c.765.506 2.15.624 3.027.26.538-.224 1.164-.853 1.471-1.479.654-1.334.958-3.774.96-7.7v-1c-.002 3.926-.306 6.366-.96 7.7-.307.626-.933 1.257-1.47 1.48-.878.365-2.263.245-3.028-.261l-.281-.186-1.043.97c-1.848 1.72-3.606 2.9-6.022 4.036a27.2 27.2 0 0 1-6.705 2.186c-2.598.498-5.37.69-8.068.558-1.712-.084-4.214-.442-5.862-.838-4.69-1.132-9.199-3.566-11.975-6.466l-.332-.348-.31.164c-.85.454-2.06.531-2.895.185-.537-.224-1.164-.854-1.47-1.48-.654-1.334-.96-3.815-.961-7.775l-.002-1.93-.207-.047c-.564-.136-1.444-.936-1.76-1.6a3.5 3.5 0 0 1-.306-1.111zm55.934.002a3.5 3.5 0 0 1-.306 1.11c-.316.663-1.196 1.462-1.76 1.597l-.207.051v1l.207-.05c.564-.136 1.444-.935 1.76-1.598.282-.594.379-1.292.306-2.11z" opacity=".2"/>
</svg>
