<svg xmlns="http://www.w3.org/2000/svg" width="64" height="64">
    <path d="M5.535 5C4.131 5 3.078 6.117 3 7.5v45C3 53.885 4.131 55 5.535 55H25.66a25.454 25.454 0 0 0 15.142-4.953c.568-.418-.53-2.204-.095-2.698 2.666-3.026 4.701-6.026 6.138-10.155C47.732 34.647 51 32.844 51 30 51 16.193 39.655 5 25.66 5zM19 21h6.734C31.002 21 35 24.84 35 30s-3.998 9-9.266 9H19v-9z" opacity=".2"/>
    <path d="M5.535 4C4.131 4 3.078 5.117 3 6.5v45C3 52.885 4.131 54 5.535 54H25.66a25.454 25.454 0 0 0 15.142-4.953c.568-.418-.53-2.204-.095-2.698 2.666-3.026 4.701-6.026 6.138-10.155C47.732 33.647 51 31.844 51 29 51 15.193 39.655 4 25.66 4zM19 20h6.734C31.002 20 35 23.84 35 29s-3.998 9-9.266 9H19v-9z" fill="#F9F5D7"/>
    <path d="M5.535 4C4.131 4 3.078 5.117 3 6.5v1C3.078 6.117 4.131 5 5.535 5H25.66C39.368 5 50.527 15.74 50.98 29.156c.006-.052.021-.102.021-.156C51 15.193 39.655 4 25.66 4H5.535zm29.367 26c-.488 4.64-4.252 8-9.168 8H19v1h6.734c4.916 0 8.68-3.36 9.168-8 .021.196.047.39.069.586.011-.195.029-.387.029-.586 0-.345-.063-.667-.098-1zm5.985 18.129c-.063.072-.116.146-.18.219-.138.157-.108.456-.039.789.043-.032.09-.058.133-.09.212-.156.171-.52.086-.918z" opacity=".2" fill="#F9F5D7"/>
    <path d="M49.683 27.049L33 47v8h16v6h8v-6h4v-8h-4V27.048zM49 39.78V47h-5.696z" opacity=".2"/>
    <path d="M49.683 26.049L33 46v8h16v6h8v-6h4v-8h-4V26.048zM49 38.78V46h-5.696z" fill="#F15C22"/>
    <path d="M49.684 26.049L33 46v1l16.684-19.951H57v-1h-7.316zM44.094 46l-.79 1H49v-1h-4.906zM57 46v1h4v-1h-4z" opacity=".1" fill="#F9F5D7"/>
</svg>
