<svg xmlns="http://www.w3.org/2000/svg" width="64" height="64" version="1">
    <rect width="46" height="56" x="-56" y="-60" rx="2.875" ry="2.8" transform="matrix(0 -1 -1 0 0 0)" opacity=".2"/>
    <rect width="46" height="56" x="-55" y="-60" rx="2.875" ry="2.8" transform="matrix(0 -1 -1 0 0 0)" fill="#CB241D"/>
    <circle cx="51" cy="21" r="3" opacity=".2"/>
    <path d="M4 35v17.125C4 53.718 5.249 55 6.8 55h50.4c1.551 0 2.8-1.282 2.8-2.875v-7.567C42.82 38.321 17.948 35.104 4 35zM48.008 28c0 4.418-3.647 8-8.145 8a8.244 8.244 0 0 1-3.265-.669c-2.874-1.236-1.333-3.438-1.333-6.716 0-1.535-3.108-3.584-2.344-4.802A8.173 8.173 0 0 1 39.863 20c4.498 0 8.145 3.582 8.145 8z" opacity=".2"/>
    <path d="M48.008 27c0 4.418-3.647 8-8.145 8a8.244 8.244 0 0 1-3.265-.669c-2.874-1.236-1.333-3.438-1.333-6.716 0-1.535-3.108-3.584-2.344-4.802A8.173 8.173 0 0 1 39.863 19c4.498 0 8.145 3.582 8.145 8z" fill="#F15C22"/>
    <circle cx="51" cy="20" r="3" fill="#F9BD2E"/>
    <path d="M11.364 18A1.36 1.36 0 0 0 10 19.364v27.272A1.36 1.36 0 0 0 11.364 48h14.025c.03 0 .056-.02.085-.024C33.564 47.72 39.991 41.093 40 33c-.005-8.107-6.451-14.744-14.555-14.984-.02-.002-.036-.016-.056-.016H13.702zM17 25h7.6c5.4 0 8.4 2.728 8.4 8s-3 8-8.4 8H17z" opacity=".2"/>
    <path d="M11.364 17A1.36 1.36 0 0 0 10 18.364v27.272A1.36 1.36 0 0 0 11.364 47h14.025c.03 0 .056-.02.085-.024C33.564 46.72 39.991 40.093 40 32c-.005-8.107-6.451-14.744-14.555-14.984-.02-.002-.036-.016-.056-.016H13.702zM17 24h7.6c5.4 0 8.4 2.728 8.4 8s-3 8-8.4 8H17z" fill="#F9F5D7"/>
    <path d="M6.8 9C5.25 9 4 10.282 4 11.875v1C4 11.282 5.25 10 6.8 10h50.4c1.55 0 2.8 1.282 2.8 2.875v-1C60 10.282 58.75 9 57.2 9H6.8z" opacity=".2" fill="#F9F5D7"/>
</svg>
