<svg xmlns="http://www.w3.org/2000/svg" width="64" height="64">
    <rect width="56" height="11" x="4" y="47" rx="2.8" ry="2.75" opacity=".2"/>
    <path d="M6.8 7A2.794 2.794 0 0 0 4 9.8v43.4C4 54.751 5.249 56 6.8 56h50.4c1.551 0 2.8-1.249 2.8-2.8V9.8C60 8.249 58.751 7 57.2 7z" fill="#48B9C7"/>
    <rect width="56" height="11" x="4" y="45" rx="2.8" ry="2.75" opacity=".1"/>
    <path d="M15 17.75v19.125A2.12 2.12 0 0 0 17.125 39h29.75A2.12 2.12 0 0 0 49 36.875V17.75z" opacity=".2"/>
    <rect width="56" height="11" x="4" y="46" rx="2.8" ry="2.75" fill="#504945"/>
    <rect width="14" height="11" x="25" y="46" rx="2.8" ry="2.75" opacity=".2" fill="#F9F5D7"/>
    <rect width="14" height="11" x="8" y="46" rx="2.8" ry="2.75" opacity=".1" fill="#F9F5D7"/>
    <rect width="14" height="11" x="42" y="46" rx="2.8" ry="2.75" opacity=".1" fill="#F9F5D7"/>
    <path d="M32 50a7 7 0 0 0-6.776 5.3c.426 1 1.416 1.7 2.576 1.7h8.4c1.16 0 2.15-.7 2.576-1.7A7 7 0 0 0 32 50z" opacity=".2" fill="#F9F5D7"/>
    <path d="M32 54a3 3 0 0 0-3 3h6a3 3 0 0 0-3-3z" opacity=".2" fill="#F9F5D7"/>
    <path d="M15 16.75v19.125A2.12 2.12 0 0 0 17.125 38h29.75A2.12 2.12 0 0 0 49 35.875V16.75z" fill="#F9F5D7"/>
    <path d="M17.125 12h29.75A2.12 2.12 0 0 1 49 14.125V17H15v-2.875A2.12 2.12 0 0 1 17.125 12z" fill="#504945"/>
    <path d="M6.8 7C5.25 7 4 8.25 4 9.8v1C4 9.25 5.25 8 6.8 8h50.4c1.55 0 2.8 1.25 2.8 2.8v-1C60 8.25 58.75 7 57.2 7H6.8zM32 50a7 7 0 0 0-6.775 5.299 2.8 2.8 0 0 0 .195.375A7 7 0 0 1 32 51a7 7 0 0 1 6.584 4.668c.072-.117.137-.241.191-.37A7 7 0 0 0 32 50z" fill="#F9F5D7" opacity=".2"/>
    <path d="M32 54a3 3 0 0 0-3 3h.174A3 3 0 0 1 32 55a3 3 0 0 1 2.824 2H35a3 3 0 0 0-3-3z" opacity=".2" fill="#F9F5D7"/>
</svg>
