<svg xmlns="http://www.w3.org/2000/svg" width="64" height="64">
    <path d="M32 5A28 28 0 0 0 4 33a28 28 0 0 0 28 28 28 28 0 0 0 28-28A28 28 0 0 0 32 5z" opacity=".2"/>
    <path d="M32 4A28 28 0 0 0 4 32a28 28 0 0 0 28 28 28 28 0 0 0 28-28A28 28 0 0 0 32 4z" fill="#8F3F71"/>
    <path d="M22.49 29.696c14.512-5.658 29.063.637 28.03 11.834-.369 4.007-6.22 6.45-10.387 5.94-7.09-.868-13.47-8.743-16.138-13.71-3.139-5.845-1.763-19.842 7.092-20.268 6.229.433 8.235 6.704 9.026 10.46 3.14 14.918-13.538 31.229-22.9 23.63-6.121-4.966-.94-15.322 5.278-17.886z" opacity=".2" fill="none" stroke="#151819" stroke-width="3"/>
    <path d="M22.49 28.696c14.512-5.658 29.063.637 28.03 11.834-.369 4.007-6.22 6.45-10.387 5.94-7.09-.868-13.47-8.743-16.138-13.71-3.139-5.845-1.763-19.842 7.092-20.268 6.229.433 8.235 6.704 9.026 10.46 3.14 14.918-13.538 31.229-22.9 23.63-6.121-4.966-.94-15.322 5.278-17.886z" fill="none" stroke="#7CB668" stroke-width="3"/>
    <path d="M32 4A28 28 0 0 0 4 32a28 28 0 0 0 .021.406A28 28 0 0 1 32 5a28 28 0 0 1 27.979 27.578A28 28 0 0 0 60 32 28 28 0 0 0 32 4z" opacity=".1" fill="#F9F5D7"/>
</svg>
