<svg xmlns="http://www.w3.org/2000/svg" width="64" height="64" version="1">
    <path d="M4.05 32c-.011.335-.05.663-.05 1 0 15.512 12.488 28 28 28 15.51 0 27.998-12.488 27.998-28 0-.337-.039-.664-.05-1-.528 15.042-12.776 27-27.95 27S4.578 47.042 4.05 32z" opacity=".2"/>
    <rect width="56" height="56" x="4" y="4" rx="27.999" ry="27.999" fill="#A04A73"/>
    <path d="M37.999 17.001a6 6 0 0 0-6 6c0 .463.089.88.188 1.313l-6.438 4a5.838 5.838 0 0 0-3.74-1.32 6 6 0 0 0 0 12c1.418 0 2.723-.49 3.75-1.313l6.438 4c-.12.44-.2.86-.2 1.32a6 6 0 1 0 6-6c-1.419 0-2.723.49-3.75 1.312l-6.438-4c.1-.432.188-.85.188-1.312 0-.463-.089-.88-.188-1.313l6.438-4c1.04.82 2.34 1.3 3.76 1.3a6 6 0 0 0 0-12z" opacity=".2"/>
    <path d="M37.999 16.001a6 6 0 0 0-6 6c0 .463.089.88.188 1.313l-6.438 4A5.978 5.978 0 0 0 22 26a6 6 0 0 0 0 12c1.418 0 2.723-.49 3.75-1.313l6.438 4c-.1.433-.188.85-.188 1.313a6 6 0 1 0 6-6c-1.418 0-2.723.49-3.75 1.312l-6.437-4c.099-.432.187-.85.187-1.312 0-.463-.088-.88-.187-1.313l6.437-4A5.978 5.978 0 0 0 38 28.002a6 6 0 0 0 0-12z" fill="#F9F5D7"/>
    <path d="M32 4.002C16.488 4.002 4 16.488 4 32c0 .113.011.224.018.336C4.369 17.135 16.71 5 32 5s27.63 12.135 27.982 27.336c.007-.112.018-.223.018-.336A27.938 27.938 0 0 0 32 4.002z" opacity=".1" fill="#F9F5D7"/>
</svg>
