<svg xmlns="http://www.w3.org/2000/svg" width="64" height="64">
    <path d="M30.113 5a1.954 1.954 0 0 0-1.354.572L14.805 19.526a1.954 1.954 0 0 0 0 2.763l.478.478L4.572 33.478a1.954 1.954 0 0 0 0 2.763l13.954 13.954a1.954 1.954 0 0 0 2.763 0l.478-.478 10.711 10.711a1.954 1.954 0 0 0 2.763 0l13.954-13.954a1.954 1.954 0 0 0 0-2.763l-.478-.478 10.711-10.711a1.954 1.954 0 0 0 0-2.763L45.474 15.805a1.954 1.954 0 0 0-2.763 0l-.478.478L31.522 5.572A1.954 1.954 0 0 0 30.112 5z" opacity=".2"/>
    <path d="M30.113 4a1.954 1.954 0 0 0-1.354.572L14.805 18.527a1.954 1.954 0 0 0 0 2.762l.478.478L4.572 32.478a1.954 1.954 0 0 0 0 2.763l13.954 13.954a1.954 1.954 0 0 0 2.763 0l.478-.478 10.711 10.711a1.954 1.954 0 0 0 2.763 0l13.954-13.954a1.954 1.954 0 0 0 0-2.762l-.478-.479 10.711-10.71a1.954 1.954 0 0 0 0-2.763L45.474 14.805a1.954 1.954 0 0 0-2.763 0l-.478.478-10.711-10.71A1.954 1.954 0 0 0 30.112 4z" fill="#7CB668"/>
    <path d="M44 33L25 44V22z" opacity=".2"/>
    <path d="M44 32L25 43V21z" fill="#F9F5D7"/>
    <path d="M30.113 4a1.954 1.954 0 0 0-1.353.572L14.805 18.527a1.954 1.954 0 0 0-.504 1.881 1.954 1.954 0 0 1 .504-.883L28.76 5.572A1.954 1.954 0 0 1 30.113 5a1.954 1.954 0 0 1 1.408.572l10.711 10.711.479-.478a1.954 1.954 0 0 1 2.764 0L59.428 29.76a1.954 1.954 0 0 1 .506.883 1.954 1.954 0 0 0-.506-1.883L45.475 14.805a1.954 1.954 0 0 0-2.764 0l-.479.478-10.71-10.71A1.954 1.954 0 0 0 30.112 4zm-15.33 18.268l-10.21 10.21a1.954 1.954 0 0 0-.507 1.88 1.954 1.954 0 0 1 .506-.88l10.711-10.71-.478-.479a1.954 1.954 0 0 1-.022-.021zm34.434 20.464l-.5.5.478.479a1.954 1.954 0 0 1 .504.88 1.954 1.954 0 0 0-.482-1.859z" opacity=".2" fill="#F9F5D7"/>
</svg>
