<svg xmlns="http://www.w3.org/2000/svg" width="64" height="64">
    <path d="M26.556 4.003a6.21 6.21 0 0 0-1.136.084c-2.652.427-4.412 2.116-5.985 5.742-2.965 6.728-5.81 13.517-7.826 18.275-2.222 4.389-4.522 9.126-5.11 10.528-1.622 3.869-1.775 7.562-.175 4.25.777-1.61 3.197-3.786 5.46-4.913 2.074-1.033 2.923-1.22 2.767-.612-.174.675-.53 2.03-.53 2.27.846-.724 2.335-1.17 2.781-.209.265.583.188 1.24-.414 3.587-.673 2.618-.813 5.395-.493 5.395.454-.951 1.508-2.247 2.545-1.714.702.376.796.718 1.032 3.7.2 2.55 2.047 6.08 2.529 6.25-.222-1.483.115-2.288 1.932-1.398.34.175 1.777 1.45 3.193 2.832 1.417 1.383 3.873 3.074 4.09 3.074 0 0-.598-.847-.445-1.198.382-.872 1.322-.937 3.096-.216.823.335 2.56.91 3.861 1.278 2.145.633 3.656 1.093 4.098.973-2.56-1.46.509-2.135 2.882-2.912 1.806-.617 4.186-1.455 6.161-3.56-1.317.286-.986-1.017-.787-1.694.5-1.673.402-4.627-.206-6.18-.427-1.8-1.944-3.05-3.26-4.185a3.885 3.885 0 0 1 .289.9v.002l.002.006c.03.154.053.313.069.477.016.174.025.353.025.54 0 .63-.164 1.205-.455 1.678.373 2.273 1.03 3.393-.227 6.258-.989 1.682-2.856 2.963-4.334 3.41-1.978.557-3.091.56-5.11.016-4.902-1.321-9.076-5.212-10.062-10.495-.526-2.82-1.154-4.444.518-2.747.232-.22.103-1.729.31-1.97 4.005-4.659 3.41-12.941 7.418-13.798.376 0 .69.003 1 .007 1.704.132 2.55.686 3.694 1.352.016-.852-1.271-1.851-1.504-2.434-.539-1.346 2.36-.354 3.574-.095-.182-.342-2.843-1.888-3.024-1.992-.16-.092-.295-.237 2.295-.202 0 0-1.615-.904-2.991-.828-.853.048-1.549-.04-1.585-.198-.184-.796 3.277-2.851 6.164-3.191 2.28-.269 3.558.038 3.987 1.077.608 1.472 1.625 2.442 3.058 2.92.75.249 1.63.738 1.956 1.085 2.051 1.573 2.141 4.65 1.47 4.718 0 0 .956.255 2.183 0 2.986-.622 4.606-3.216 3.2-5.124-.472-.638-.649-1.388-.777-3.297-.177-2.641-.451-3.402-1.987-5.518-.539-.742-1.139-1.953-1.334-2.691-.61-2.302-2.12-4.312-3.84-6.036-1.048-1.05-1.71-1.612-1.998-1.633 0 0 1.678 3.16 1.724 5.327 0 2.02-1.27 2.225-2.368.875-.982-1.414-1.052-3.144-3.165-3.422 0 0 .663 1.42.472 1.606-1.807 1.752-3.963.94-5.275-.861-.553-.758-1.473-.957-1.473-.957.265.74-.436 2.047-2.097 1.951-.761 0-2.163-1.014-4.972-3.6-1.929-1.775-3.308-2.526-4.89-2.563z" opacity=".2"/>
    <path d="M26.556 3.003c-.365-.009-.74.02-1.136.085-2.652.426-4.412 2.115-5.985 5.741-2.965 6.728-5.81 13.517-7.826 18.275-2.222 4.389-4.522 9.126-5.11 10.528-1.622 3.869-1.775 7.562-.175 4.25.777-1.61 3.197-3.786 5.46-4.913 2.074-1.033 2.923-1.22 2.767-.611-.174.674-.53 2.029-.53 2.269.846-.724 2.335-1.17 2.781-.209.265.583.188 1.241-.414 3.587-.673 2.618-.813 5.395-.493 5.395.454-.951 1.508-2.247 2.545-1.714.702.376.796.719 1.032 3.7.2 2.55 2.047 6.08 2.529 6.25-.222-1.483.115-2.288 1.932-1.398.34.175 1.777 1.45 3.193 2.832 1.417 1.383 3.873 3.074 4.09 3.074 0 0-.598-.847-.445-1.198.382-.872 1.322-.937 3.096-.216.823.335 2.56.91 3.861 1.278 2.145.634 3.656 1.093 4.098.973-2.56-1.46.509-2.135 2.882-2.912 1.806-.616 4.186-1.455 6.161-3.56-1.317.286-.986-1.017-.787-1.694.5-1.673.402-4.627-.206-6.18-.427-1.8-1.944-3.05-3.26-4.185a3.885 3.885 0 0 1 .289.9v.002l.002.006c.03.154.053.313.069.477.016.174.025.354.025.54 0 .63-.164 1.205-.455 1.678.373 2.273 1.03 3.393-.227 6.258-.989 1.682-2.856 2.963-4.334 3.41-1.978.557-3.091.56-5.11.016-4.902-1.321-9.076-5.211-10.062-10.494-.526-2.821-1.154-4.445.518-2.748.232-.22.103-1.729.31-1.97 4.005-4.659 3.41-12.941 7.418-13.798.376 0 .69.004 1 .007 1.704.132 2.55.686 3.694 1.352.016-.852-1.271-1.851-1.504-2.434-.539-1.346 2.36-.354 3.574-.095-.182-.342-2.843-1.888-3.024-1.992-.16-.092-.295-.236 2.295-.202 0 0-1.615-.904-2.991-.828-.853.048-1.549-.04-1.585-.198-.184-.796 3.277-2.851 6.164-3.191 2.28-.269 3.558.038 3.987 1.077.608 1.472 1.625 2.442 3.058 2.92.75.249 1.63.738 1.956 1.085 2.051 1.573 2.141 4.65 1.47 4.718 0 0 .956.255 2.183 0 2.986-.621 4.606-3.216 3.2-5.124-.472-.638-.649-1.388-.777-3.297-.178-2.641-.451-3.402-1.987-5.518-.539-.742-1.139-1.953-1.334-2.69-.61-2.303-2.12-4.313-3.84-6.037-1.048-1.05-1.71-1.612-1.998-1.633 0 0 1.678 3.16 1.724 5.327 0 2.02-1.27 2.225-2.368.875-.982-1.414-1.052-3.144-3.165-3.422 0 0 .663 1.42.472 1.606-1.807 1.752-3.963.94-5.275-.86-.553-.76-1.473-.957-1.473-.957.265.74-.436 2.046-2.097 1.95-.761 0-2.163-1.014-4.972-3.6-1.929-1.775-3.308-2.526-4.89-2.563z" fill="#504945"/>
    <path d="M26.557 3.002a6.219 6.219 0 0 0-1.137.086c-2.652.427-4.412 2.115-5.984 5.742-2.965 6.728-5.81 13.516-7.827 18.274C9.387 31.492 7.09 36.23 6.5 37.633c-1.02 2.433-1.459 4.794-1.246 5.388.12-1.052.531-2.684 1.246-4.388.588-1.402 2.887-6.14 5.11-10.53 2.016-4.757 4.86-11.545 7.826-18.273 1.572-3.627 3.332-5.315 5.984-5.742a6.219 6.219 0 0 1 1.137-.086c1.582.037 2.96.79 4.888 2.564 2.81 2.586 4.212 3.6 4.973 3.6 1.66.096 2.363-1.211 2.098-1.951 0 0 .92.199 1.472.957 1.313 1.801 3.469 2.613 5.276.861.094-.092-.023-.485-.162-.86-1.773 1.556-3.84.747-5.114-1.001-.552-.758-1.472-.957-1.472-.957.265.74-.437 2.047-2.098 1.951-.761 0-2.164-1.014-4.973-3.6-1.928-1.775-3.306-2.527-4.888-2.564zM48.6 4.646s.299.598.634 1.374c.344.273.79.685 1.364 1.26 1.72 1.723 3.23 3.734 3.84 6.036.195.739.795 1.948 1.333 2.69 1.536 2.116 1.811 2.878 1.989 5.52.128 1.908.304 2.658.775 3.296.24.325.385.669.457 1.02a2.499 2.499 0 0 0-.457-2.02c-.47-.638-.647-1.388-.775-3.297-.178-2.641-.453-3.401-1.989-5.517-.538-.742-1.138-1.953-1.334-2.692-.609-2.302-2.12-4.313-3.84-6.037-1.048-1.05-1.71-1.61-1.997-1.633zM44.79 7.428s.285.625.424 1.101c1.683.45 1.834 2.014 2.742 3.32 1.097 1.35 2.367 1.145 2.367-.874-.003-.143-.03-.3-.047-.45-.22 1.481-1.335 1.536-2.32.325-.982-1.414-1.053-3.144-3.166-3.422zm-7.746 15.086c-.37.324-.575.615-.527.822.036.159.733.247 1.586.2.237-.014.48.009.722.044l-.027-.016c-.16-.092-.295-.236 2.295-.2 0 0-1.614-.906-2.99-.829a6.4 6.4 0 0 1-1.06-.021zm3.09 1.851c-1.487.015-1.47.122-1.336.2.048.027.5.302.81.486.769.132 1.66.388 2.213.506-.101-.191-.903-.71-1.687-1.192zm-1.643 1.655c-.265.08-.392.262-.244.632.105.263.428.616.746.996.247.139.495.284.76.438.013-.698-.821-1.481-1.262-2.066zm14.985 2.435c-.06.285-.168.475-.325.49 0 0 .221.03.364.055a3.895 3.895 0 0 0-.04-.545zm-39.098 8.576c-.172.671-.358 1.418-.358 1.596.079-.067.167-.128.254-.19.097-.387.204-.799.276-1.08.05-.192-.014-.294-.172-.326zm2.51 2.698c-.074.52-.228 1.208-.502 2.275-.535 2.079-.726 4.235-.625 5.045.049-1.053.239-2.544.625-4.045.504-1.963.626-2.731.502-3.275zm29.726 2.72a3.883 3.883 0 0 1 .29.9l.001.003v.005c.026.13.044.263.059.399 1.225 1.057 2.522 2.235 2.912 3.879.299.763.472 1.866.514 2.988.05-1.436-.126-2.997-.514-3.988-.428-1.8-1.945-3.052-3.262-4.186zm-20.281.389c-.259.203.13 1.538.479 3.404.985 5.283 5.16 9.173 10.062 10.494 2.019.545 3.13.541 5.11-.015 1.477-.447 3.344-1.728 4.333-3.41.667-1.52.79-2.548.707-3.518-.061.707-.26 1.5-.707 2.518-.989 1.682-2.856 2.963-4.334 3.41-1.978.556-3.09.56-5.109.015-4.901-1.32-9.077-5.21-10.063-10.494-.183-.98-.371-1.802-.478-2.404zm20.639 1.969c-.058.46-.205.883-.428 1.246.044.27.094.486.142.728.2-.416.315-.89.315-1.406 0-.186-.009-.367-.025-.541l-.004-.027zm3.004 9.433c-.089.39-.133.811.044 1.072.289-.246.573-.509.848-.802-.518.112-.776-.025-.892-.27zm-27.989 1.272c-.006.032-.016.06-.021.093.01.006.026.029.035.032-.007-.045-.008-.082-.014-.125zm8.946 4.158a1.328 1.328 0 0 0-.145.246c.198.12.384.229.428.229 0 0-.152-.217-.283-.475zm10.195.81c-.14.125-.226.256-.252.397.434.094.786.148.95.103-.314-.178-.542-.343-.698-.5z" fill="#F9F5D7" opacity=".1"/>
    <path d="M26.183 14.152c-.943.002-2.072.015-3.417.037-7.98.129-7.563.148-6.363 1.816.66.918.668 1.023.668 8.282 0 7.252-.01 6.535-.687 7.708-1.17 2.026-1.54 2.063 6.236 2.063h4.362c1.104.122 1.49.031 2.22-.694.386-.382.7-.876.7-1.097 0-.221.18-.549.397-.728.565-.465.996 12.026.474 13.725-.191.622-.369 1.45-.395 1.839-.043.649.07.887 1.38 1.017 2.845-.04 6.78.085 9.805 0 1.192-.033 2.366-.081 3.5-.298 1.31-.286 2.186-1.447 2.186-2.896 0-1.544-.566-2.666-1.825-3.618-1.014-.767-1.974-1.133-2.957-1.117a4.1 4.1 0 0 0-.994.143c-1.515.404-1.603.914-.389 2.247 1.213 1.864.767 3.174-1.071 2.899-.727-.148-1.44-.406-2.118-.905-.63-.394-.74-.705-.742-1.426l-.02-6.12c-.02-6.644.011-8.36.57-9.26.989-1.596.872-1.508-3.096-1.733h-4.33l-1.233 1.45c-1.797 2.112-2.226 4.31-4.08 4.31-2.12 0-2.385-.892-2.385-4.54 0-2.389.103-1.778.642-2.838.53-1.043.798-1.276 1.541-1.348 1.03-.1 1.845.743 1.604 1.657-.201.762.548.965 1.59.431 1.216-.623 1.755-1.947 1.755-3.328 0-1.553-1.444-3.21-2.797-3.21-1.203 0-2.336.465-3.257 1.336-.686.648-.798.677-.962.253-.342-.883.061-3.449.646-4.028 1.251-1.24 3.528-.447 5.503 1.048 1.409 1.065 1.994 1.21 2.248.553.238-.617-.26-2.97-.715-3.37-.216-.19-1.364-.27-4.194-.26z" opacity=".2"/>
    <path d="M26.183 13.152c-.943.003-2.072.015-3.417.037-7.98.129-7.563.149-6.363 1.817.66.917.668 1.022.668 8.282 0 7.252-.01 6.534-.687 7.707-1.17 2.027-1.54 2.063 6.236 2.063h4.362c1.104.122 1.49.031 2.22-.694.386-.382.7-.875.7-1.097 0-.221.18-.549.397-.728.565-.465.996 12.026.474 13.726-.191.622-.369 1.449-.395 1.838-.043.65.07.887 1.38 1.017 2.845-.04 6.78.085 9.805 0 1.192-.033 2.366-.081 3.5-.298 1.31-.286 2.186-1.447 2.186-2.896 0-1.544-.566-2.666-1.825-3.618-1.014-.766-1.974-1.132-2.957-1.116a4.1 4.1 0 0 0-.994.142c-1.515.405-1.603.914-.389 2.247 1.213 1.864.767 3.174-1.071 2.899-.727-.147-1.44-.405-2.118-.905-.63-.394-.74-.705-.742-1.426l-.02-6.12c-.02-6.644.011-8.359.57-9.26.989-1.595.872-1.508-3.096-1.733h-4.33l-1.233 1.45c-1.797 2.113-2.226 4.31-4.08 4.31-2.12 0-2.385-.892-2.385-4.539 0-2.39.103-1.779.642-2.838.53-1.043.798-1.277 1.541-1.349 1.03-.099 1.845.743 1.604 1.657-.201.762.548.966 1.59.431 1.216-.623 1.755-1.947 1.755-3.328 0-1.553-1.444-3.21-2.797-3.21-1.203 0-2.336.465-3.257 1.336-.686.648-.798.678-.962.253-.342-.882.061-3.448.646-4.028 1.251-1.24 3.528-.447 5.503 1.048 1.409 1.066 1.994 1.21 2.248.554.238-.617-.26-2.97-.715-3.37-.216-.19-1.364-.27-4.194-.261z" fill="#D79921"/>
    <path d="M40.632 40.997c-1.752.495-3.363 2.33-4.492 3.656-1.176 1.517-1.472 3.445-.754 5.168.88 2.11 2.42 3.18 4.566 3.18 2.265-.002 4.094-1.607 3.602-3.16-.158-.5-.24-.48-1.117.292-1.278 1.124-1.925 1.287-2.977.742-1.146-.594-1.959-2.014-1.605-3.25.369-1.29.83-1.912 2.515-2.66.135-.06.24-.12.356-.18.194-.146.492-.394.785-.68.413-.495.304-1.4-.426-2.522-.207-.228-.322-.403-.453-.586z" fill="#504945"/>
    <path d="M26.184 13.152c-.943.003-2.074.016-3.418.037-7.155.116-7.551.153-6.694 1.36.682-.254 2.55-.293 6.694-.36 1.344-.021 2.475-.034 3.418-.037 2.829-.008 3.976.072 4.193.262.306.27.616 1.413.723 2.328.21-.662-.277-2.937-.723-3.33-.217-.19-1.364-.268-4.193-.26zm.73 4.47c-1.203 0-2.337.462-3.258 1.333-.685.648-.796.679-.96.254a1.768 1.768 0 0 1-.089-.373c-.035.552-.03 1.07.088 1.373.165.425.276.396.961-.252.921-.87 2.055-1.336 3.258-1.336 1.243 0 2.55 1.397 2.756 2.828.025-.204.04-.41.04-.619 0-1.553-1.443-3.209-2.796-3.209zm-9.846 6.112c0 6.639-.024 6.121-.683 7.262-.531.919-.89 1.426-.406 1.71.11-.206.248-.437.406-.71.677-1.173.685-.455.685-7.707l-.002-.555zm9.276.293a.507.507 0 0 0 .029.127c-.009-.043-.016-.085-.03-.127zm3.933 1.01l-1.234 1.45c-1.796 2.111-2.224 4.308-4.078 4.308-1.99 0-2.343-.815-2.38-3.93 0 .148-.007.213-.007.393 0 3.647.267 4.539 2.387 4.539 1.854 0 2.282-2.199 4.078-4.31l1.234-1.45h4.33c1.901.108 2.901.146 3.336.33.68-1.167.25-1.127-3.336-1.33h-4.33zm6.856 11.121v.871l.02 6.121c.002.721.11 1.03.742 1.424.678.5 1.39.76 2.117.906 1.383.207 1.978-.484 1.672-1.632-.196.514-.763.768-1.672.632-.727-.147-1.44-.406-2.117-.906-.631-.393-.74-.705-.743-1.426l-.02-5.99zm5.334 3.033a4.106 4.106 0 0 0-.994.143c-1.167.311-1.478.69-1.01 1.453.196-.177.52-.322 1.01-.453.335-.09.666-.137.994-.143.983-.016 1.943.35 2.957 1.118 1.092.825 1.66 1.78 1.793 3.027a3.43 3.43 0 0 0 .031-.41c0-1.545-.565-2.665-1.824-3.617-1.014-.767-1.974-1.134-2.957-1.118zM31 39.986c.003 2.008-.057 3.727-.227 4.278-.19.622-.368 1.45-.394 1.84-.016.242-.011.426.07.57.07-.425.183-.947.324-1.408.198-.643.258-2.833.227-5.28z" fill="#F9F5D7" opacity=".2"/>
</svg>
