<svg xmlns="http://www.w3.org/2000/svg" width="64" height="64" version="1">
    <rect width="58" height="58" x="3" y="4" rx="2.9" ry="2.9" opacity=".2"/>
    <rect width="58" height="58" x="3" y="3" rx="2.9" ry="2.9" fill="#3A393A"/>
    <path d="M28.587 12.002c-1.248-.017-1.514.033-1.872.34-.267.228-.485.682-.566 1.18-.036.225-.055 1.8-.055 4.281 0 3.135-.015 3.923-.07 3.923-.039 0-2.039-1.97-4.445-4.38s-4.48-4.452-4.609-4.541c-.348-.243-.97-.524-1.462-.66-.405-.11-.584-.12-2.42-.14-1.09-.012-1.983-.001-1.983.023 0 .025 4.166 4.21 9.258 9.302 4.73 4.73 8.08 8.063 8.637 8.6V12.007zm6.826 0l-.413.006v17.921c.556-.536 3.907-3.87 8.637-8.599 5.092-5.091 9.258-9.277 9.258-9.302 0-.024-.893-.035-1.983-.023-1.836.02-2.015.03-2.42.14-.493.136-1.114.417-1.462.66-.128.089-2.203 2.132-4.609 4.541-2.406 2.41-4.406 4.38-4.444 4.38-.056 0-.07-.788-.07-3.923 0-2.481-.02-4.056-.056-4.28-.081-.499-.3-.953-.566-1.181-.358-.307-.624-.357-1.872-.34zM11.058 19.65c-.06 0-.067.337-.05 1.872.021 1.81.025 1.891.162 2.393.172.633.402 1.15.738 1.665.187.285 1.176 1.311 3.759 3.902l3.504 3.516-3.504 3.512c-2.583 2.591-3.572 3.617-3.76 3.903a5.625 5.625 0 0 0-.737 1.664c-.137.502-.14.584-.162 2.394-.017 1.534-.01 1.872.05 1.872.101 0 13.34-13.244 13.34-13.345 0-.102-13.239-13.348-13.34-13.348zm41.884 0c-.101 0-13.34 13.246-13.34 13.348 0 .1 13.239 13.345 13.34 13.345.06 0 .067-.338.05-1.872-.021-1.81-.025-1.892-.162-2.394a5.625 5.625 0 0 0-.738-1.664c-.187-.286-1.176-1.312-3.759-3.903l-3.504-3.512 3.504-3.516c2.583-2.59 3.572-3.617 3.76-3.902a5.625 5.625 0 0 0 .737-1.665c.137-.502.14-.584.162-2.393.017-1.535.01-1.872-.05-1.872zM29 36.064c-1.278 1.228-17.895 17.844-17.895 17.898 0 .025.893.038 1.983.026 1.836-.02 2.015-.032 2.42-.143.493-.136 1.114-.414 1.462-.657.128-.089 2.203-2.134 4.609-4.544 2.406-2.409 4.406-4.38 4.444-4.38.056 0 .07.788.07 3.923 0 2.482.02 4.056.056 4.28.125.771.5 1.285 1.058 1.451.2.06.559.082 1.348.082.237 0 .262-.01.445-.015zm6 0v17.921c.183.005.208.015.445.015.79 0 1.148-.023 1.348-.082.557-.166.933-.68 1.058-1.45.036-.225.055-1.8.055-4.28 0-3.136.015-3.924.07-3.924.039 0 2.039 1.97 4.445 4.38s4.48 4.455 4.609 4.544c.348.243.97.521 1.462.657.405.111.584.123 2.42.143 1.09.012 1.983-.001 1.983-.026 0-.055-16.617-16.67-17.895-17.898z" opacity=".2"/>
    <path d="M28.587 11.002c-1.248-.017-1.514.033-1.872.34-.267.228-.485.682-.566 1.18-.036.225-.055 1.8-.055 4.281 0 3.135-.015 3.923-.07 3.923-.039 0-2.039-1.97-4.445-4.38s-4.48-4.452-4.609-4.541c-.348-.243-.97-.524-1.462-.66-.405-.11-.584-.12-2.42-.14-1.09-.012-1.983-.001-1.983.023 0 .025 4.166 4.21 9.258 9.302 4.73 4.73 8.08 8.063 8.637 8.6V11.007zm6.826 0l-.413.006v17.921c.556-.536 3.907-3.87 8.637-8.599 5.092-5.091 9.258-9.277 9.258-9.302 0-.024-.893-.035-1.983-.023-1.836.02-2.015.03-2.42.14-.493.136-1.114.417-1.462.66-.128.089-2.203 2.132-4.609 4.541-2.406 2.41-4.406 4.38-4.444 4.38-.056 0-.07-.788-.07-3.923 0-2.481-.02-4.056-.056-4.28-.081-.499-.3-.953-.566-1.181-.358-.307-.624-.357-1.872-.34zM11.058 18.65c-.06 0-.067.337-.05 1.872.021 1.81.025 1.891.162 2.393.172.633.402 1.15.738 1.665.187.285 1.176 1.311 3.759 3.902l3.504 3.516-3.504 3.512c-2.583 2.591-3.572 3.617-3.76 3.903a5.625 5.625 0 0 0-.737 1.664c-.137.502-.14.584-.162 2.394-.017 1.534-.01 1.872.05 1.872.101 0 13.34-13.244 13.34-13.345 0-.102-13.239-13.348-13.34-13.348zm41.884 0c-.101 0-13.34 13.246-13.34 13.348 0 .1 13.239 13.345 13.34 13.345.06 0 .067-.338.05-1.872-.021-1.81-.025-1.892-.162-2.394a5.625 5.625 0 0 0-.738-1.664c-.187-.286-1.176-1.312-3.759-3.903l-3.504-3.512 3.504-3.516c2.583-2.59 3.572-3.617 3.76-3.902a5.625 5.625 0 0 0 .737-1.665c.137-.502.14-.584.162-2.393.017-1.535.01-1.872-.05-1.872zM29 35.064c-1.278 1.228-17.895 17.844-17.895 17.898 0 .025.893.038 1.983.026 1.836-.02 2.015-.032 2.42-.143.493-.136 1.114-.414 1.462-.657.128-.089 2.203-2.134 4.609-4.544 2.406-2.409 4.406-4.38 4.444-4.38.056 0 .07.788.07 3.923 0 2.482.02 4.056.056 4.28.125.771.5 1.285 1.058 1.451.2.06.559.082 1.348.082.237 0 .262-.01.445-.015zm6 0v17.921c.183.005.208.015.445.015.79 0 1.148-.023 1.348-.082.557-.166.933-.68 1.058-1.45.036-.225.055-1.8.055-4.28 0-3.136.015-3.924.07-3.924.039 0 2.039 1.97 4.445 4.38s4.48 4.455 4.609 4.544c.348.243.97.521 1.462.657.405.111.584.123 2.42.143 1.09.012 1.983-.001 1.983-.026 0-.055-16.617-16.67-17.895-17.898z" fill="#48B9C7"/>
    <path d="M5.898 3A2.891 2.891 0 0 0 3 5.898v1A2.891 2.891 0 0 1 5.898 4h52.204A2.891 2.891 0 0 1 61 6.898v-1A2.891 2.891 0 0 0 58.102 3H5.898z" opacity=".1" fill="#F9F5D7"/>
    <path d="M28.586 11.002c-1.248-.017-1.512.033-1.871.34-.267.228-.486.683-.567 1.181-.036.225-.054 1.798-.054 4.28 0 3.135-.015 3.924-.07 3.924-.039 0-2.04-1.972-4.446-4.381-2.406-2.41-4.48-4.452-4.607-4.541-.349-.243-.971-.523-1.463-.659-.405-.11-.585-.12-2.42-.14-1.09-.012-1.983-.002-1.983.023 0 .003.895.896.985.989.36-.005.449-.018.998-.012 1.835.02 2.015.03 2.42.14.492.136 1.114.416 1.463.659.128.089 2.2 2.131 4.607 4.54 2.406 2.41 4.407 4.382 4.445 4.382.056 0 .07-.79.07-3.924.001-2.482.02-4.055.055-4.28.081-.498.3-.953.567-1.181.359-.307.623-.357 1.87-.34l.415.006v-1l-.414-.006zm6.828 0l-.414.006v1l.414-.006c1.248-.017 1.512.033 1.871.34.267.228.486.683.567 1.181.036.225.054 1.798.054 4.28 0 3.135.015 3.924.07 3.924.039 0 2.04-1.972 4.446-4.381 2.406-2.41 4.48-4.452 4.607-4.541.349-.243.971-.523 1.463-.659.405-.11.585-.12 2.42-.14.55-.006.638.007.998.012.09-.093.985-.986.985-.989 0-.025-.892-.035-1.983-.023-1.835.02-2.015.03-2.42.14-.492.136-1.114.416-1.463.659-.128.089-2.2 2.131-4.607 4.54-2.406 2.41-4.407 4.382-4.445 4.382-.056 0-.07-.79-.07-3.924-.001-2.482-.019-4.055-.055-4.28-.081-.498-.3-.953-.567-1.181-.359-.307-.623-.357-1.87-.34zM11.06 18.648c-.05 0-.06.401-.053 1.325.008-.236.025-.325.053-.325.095 0 11.472 11.384 12.851 12.848.086-.091.486-.494.486-.5 0-.101-13.236-13.348-13.337-13.348zm41.882 0c-.1 0-13.337 13.247-13.337 13.348 0 .006.4.409.486.5 1.379-1.464 12.756-12.848 12.851-12.848.028 0 .045.09.053.325.006-.924-.004-1.325-.053-1.325zm-34.27 13.848l-3.005 3.014c-2.583 2.59-3.571 3.616-3.758 3.902a5.625 5.625 0 0 0-.738 1.664c-.137.502-.141.583-.162 2.393-.01.817-.011 1.28-.002 1.549.001-.205-.001-.27.002-.55.02-1.809.025-1.89.162-2.392.172-.633.402-1.15.738-1.664.187-.286 1.175-1.312 3.758-3.902l3.504-3.514-.498-.5zm26.657 0l-.498.5 3.504 3.514c2.583 2.59 3.571 3.616 3.758 3.902.336.514.566 1.031.738 1.664.137.502.141.583.162 2.393.003.278 0 .344.002.549.01-.269.008-.732-.002-1.55-.02-1.809-.025-1.89-.162-2.392a5.625 5.625 0 0 0-.738-1.664c-.187-.286-1.175-1.312-3.758-3.902l-3.006-3.014zM29 35.064c-1.278 1.228-17.895 17.843-17.895 17.897 0 .012.629.009.983.014C13.802 51.215 27.796 37.22 29 36.065v-1zm6 0v1c1.204 1.157 15.198 15.151 16.912 16.91.354-.004.983 0 .983-.013 0-.054-16.617-16.669-17.895-17.897z" fill="#F9F5D7" opacity=".2"/>
</svg>
