<svg xmlns="http://www.w3.org/2000/svg" width="64" height="64">
    <path d="M32 5c15.488 0 28 12.513 28 28 0 15.488-12.512 28-28 28C16.513 61 4 48.488 4 33 4 17.513 16.513 5 32 5z" opacity=".2"/>
    <path d="M32 4c15.488 0 28 12.513 28 28 0 15.488-12.512 28-28 28C16.513 60 4 47.488 4 32 4 16.513 16.513 4 32 4z" fill="#8F3F71"/>
    <path d="M34.85 29.321C51.366 26.155 52 19 52 19s-1.3 22.173-13.37 23.346C23.333 43.833 20.747 51 20.747 51s-.313-2.3.652-5.303c1.93-6.01 6.974-15.134 13.45-16.376z" opacity=".2"/>
    <path d="M34.85 28.321C51.366 25.155 52 18 52 18s-1.3 22.173-13.37 23.346C23.333 42.833 20.747 50 20.747 50s-.313-2.3.652-5.303c1.93-6.01 6.974-15.134 13.45-16.376z" fill="#A04A73"/>
    <path d="M52 18s-.634 7.154-17.15 10.32C28.374 29.562 23.33 38.688 21.4 44.697c-.692 2.156-.721 3.914-.685 4.754.044-.949.207-2.264.685-3.754 1.931-6.01 6.974-15.135 13.45-16.377 13.747-2.635 16.456-7.979 16.99-9.715.1-.927.16-1.605.16-1.605z" fill="#F9F5D7" opacity=".2"/>
    <path d="M23.83 28.5C37.763 22.61 36.487 13 36.487 13s7.692 19.604-3.84 24.174C19.765 42.279 20.738 51 20.738 51s-5.09-19.04 3.092-22.5z" opacity=".2"/>
    <path d="M23.83 27.5C37.763 21.61 36.487 12 36.487 12s7.692 19.604-3.84 24.174C19.765 41.279 20.738 50 20.738 50s-5.09-19.04 3.092-22.5z" fill="#FD8019"/>
    <path d="M36.486 12s.024.423.004 1.014c.017.042 2.385 6.107 2.5 12.273C39.142 18.774 36.486 12 36.486 12zm.004 1.05c-.095 2.585-1.402 9.69-12.66 14.45-3.754 1.587-4.703 6.453-4.642 11.256.084-4.462 1.15-8.78 4.642-10.256 13.724-5.802 12.694-15.168 12.66-15.45z" fill="#F9F5D7" opacity=".2"/>
    <path d="M16.265 33.502C24.149 23.215 22.375 16 22.375 16s10.103 12.533 3.229 20.296c-7.68 8.671-4.8 14.704-4.8 14.704s-9.062-11.598-4.54-17.498z" opacity=".2"/>
    <path d="M16.265 32.502C24.149 22.215 22.375 15 22.375 15s10.103 12.533 3.229 20.296c-7.68 8.671-4.8 14.704-4.8 14.704s-9.062-11.598-4.54-17.498z" fill="#FECE4F"/>
    <path d="M32 4C16.512 4 4 16.512 4 32c0 .168.01.333.014.5C4.28 17.245 16.68 5 32 5s27.72 12.245 27.986 27.5c.003-.167.014-.332.014-.5C60 16.512 47.487 4 32 4z" fill="#F9F5D7" opacity=".1"/>
    <path d="M22.375 15s.098.433.145 1.19c.557.712 5.197 6.81 5.464 13.013C28.251 22.296 22.375 15 22.375 15zm.15 2.236c-.042 2.878-.956 8.344-6.261 15.266-1.01 1.317-1.339 2.919-1.246 4.611.07-1.319.438-2.557 1.246-3.611 5.966-7.783 6.402-13.794 6.261-16.266zm-2.232 30.252c-.031.768.014 1.425.096 1.953.254.352.414.559.414.559s-.425-.907-.51-2.512z" fill="#F9F5D7" opacity=".2"/>
</svg>
