<svg xmlns="http://www.w3.org/2000/svg" width="64" height="64" version="1">
    <rect width="56" height="56" x="4" y="5" rx="2.8" ry="2.8" opacity=".2"/>
    <rect width="56" height="56" x="4" y="4" rx="2.8" ry="2.8" fill="#3C3836"/>
    <path d="M21 9a4 4 0 1 0 0 8 4 4 0 0 0 0-8zm11 0a4 4 0 1 0 0 8 4 4 0 0 0 0-8zm11 0a4 4 0 1 0 0 8 4 4 0 0 0 0-8zM10.75 20A2.744 2.744 0 0 0 8 22.75v27.5A2.744 2.744 0 0 0 10.75 53h16.5A2.744 2.744 0 0 0 30 50.25v-27.5A2.744 2.744 0 0 0 27.25 20zm26 0A2.744 2.744 0 0 0 34 22.75v27.5A2.744 2.744 0 0 0 36.75 53h16.5A2.744 2.744 0 0 0 56 50.25v-27.5A2.744 2.744 0 0 0 53.25 20zM14.1 24h9.8c1.164 0 2.1.892 2.1 2s-.936 2-2.1 2h-9.8c-1.164 0-2.1-.892-2.1-2s.936-2 2.1-2zm0 7h9.8c1.164 0 2.1.892 2.1 2s-.936 2-2.1 2h-9.8c-1.164 0-2.1-.892-2.1-2s.936-2 2.1-2zm0 7h9.8c1.164 0 2.1.892 2.1 2s-.936 2-2.1 2h-9.8c-1.164 0-2.1-.892-2.1-2s.936-2 2.1-2zm0 7h9.8c1.164 0 2.1.892 2.1 2s-.936 2-2.1 2h-9.8c-1.164 0-2.1-.892-2.1-2s.936-2 2.1-2z" opacity=".2"/>
    <circle cx="21" cy="12" r="4" fill="#CB241D"/>
    <circle cx="32" cy="12" r="4" fill="#FD8019"/>
    <circle cx="43" cy="12" r="4" fill="#7CB668"/>
    <path d="M10.75 19A2.744 2.744 0 0 0 8 21.75v27.5A2.744 2.744 0 0 0 10.75 52h16.5A2.744 2.744 0 0 0 30 49.25v-27.5A2.744 2.744 0 0 0 27.25 19zm3.35 4h9.8c1.164 0 2.1.892 2.1 2s-.936 2-2.1 2h-9.8c-1.164 0-2.1-.892-2.1-2s.936-2 2.1-2zm0 7h9.8c1.164 0 2.1.892 2.1 2s-.936 2-2.1 2h-9.8c-1.164 0-2.1-.892-2.1-2s.936-2 2.1-2zm0 7h9.8c1.164 0 2.1.892 2.1 2s-.936 2-2.1 2h-9.8c-1.164 0-2.1-.892-2.1-2s.936-2 2.1-2zm0 7h9.8c1.164 0 2.1.892 2.1 2s-.936 2-2.1 2h-9.8c-1.164 0-2.1-.892-2.1-2s.936-2 2.1-2z" fill="#F9F5D7"/>
    <path d="M36.75 19A2.744 2.744 0 0 0 34 21.75v27.5A2.744 2.744 0 0 0 36.75 52h16.5A2.744 2.744 0 0 0 56 49.25v-27.5A2.744 2.744 0 0 0 53.25 19z" fill="#F9F5D7"/>
    <path d="M6.8 4C5.25 4 4 5.25 4 6.8v1C4 6.25 5.25 5 6.8 5h50.4C58.75 5 60 6.25 60 7.8v-1C60 5.25 58.75 4 57.2 4H6.8z" fill="#F9F5D7" opacity=".1"/>
</svg>
