<svg xmlns="http://www.w3.org/2000/svg" width="64" height="64">
    <path d="M32 61c-1.352 0-2.826-1.516-4.161-1.727-1.335-.212-3.206.774-4.491.357-1.286-.418-2.22-2.316-3.424-2.93-1.204-.613-3.288-.253-4.382-1.048-1.093-.794-1.395-2.887-2.351-3.843s-3.049-1.258-3.843-2.351c-.795-1.094-.435-3.178-1.049-4.382-.613-1.204-2.51-2.138-2.929-3.424-.417-1.285.569-3.156.357-4.49C5.516 35.825 4 34.351 4 33c0-1.352 1.516-2.826 1.727-4.161.212-1.335-.774-3.206-.357-4.491.418-1.286 2.316-2.22 2.93-3.424.613-1.204.253-3.288 1.048-4.382.794-1.093 2.887-1.395 3.843-2.351s1.258-3.049 2.351-3.843c1.094-.795 3.178-.435 4.382-1.049 1.204-.613 2.138-2.51 3.424-2.929 1.285-.417 3.156.569 4.49.357C29.175 6.516 30.649 5 32 5c1.352 0 2.826 1.516 4.161 1.727 1.335.212 3.206-.774 4.491-.357 1.286.418 2.22 2.316 3.424 2.93 1.204.613 3.288.253 4.382 1.048 1.093.794 1.395 2.887 2.351 3.843s3.049 1.258 3.843 2.351c.795 1.094.435 3.178 1.049 4.382.613 1.204 2.51 2.138 2.929 3.424.417 1.285-.569 3.156-.357 4.49C58.484 30.175 60 31.649 60 33c0 1.352-1.516 2.826-1.727 4.161-.212 1.335.774 3.206.357 4.491-.418 1.286-2.316 2.22-2.93 3.424-.613 1.204-.253 3.288-1.048 4.382-.794 1.093-2.887 1.395-3.843 2.351s-1.258 3.049-2.351 3.843c-1.094.795-3.178.435-4.382 1.049-1.204.613-2.138 2.51-3.424 2.929-1.285.417-3.156-.569-4.49-.357C34.825 59.484 33.351 61 32 61z" opacity=".2" fill-rule="evenodd"/>
    <path d="M32 60c-1.352 0-2.826-1.516-4.161-1.727-1.335-.212-3.206.774-4.491.357-1.286-.418-2.22-2.316-3.424-2.93-1.204-.613-3.288-.253-4.382-1.048-1.093-.794-1.395-2.887-2.351-3.843s-3.049-1.258-3.843-2.351c-.795-1.094-.435-3.178-1.049-4.382-.613-1.204-2.51-2.138-2.929-3.424-.417-1.285.569-3.156.357-4.49C5.516 34.825 4 33.351 4 32c0-1.352 1.516-2.826 1.727-4.161.212-1.335-.774-3.206-.357-4.491.418-1.286 2.316-2.22 2.93-3.424.613-1.204.253-3.288 1.048-4.382.794-1.093 2.887-1.395 3.843-2.351s1.258-3.049 2.351-3.843c1.094-.795 3.178-.435 4.382-1.049 1.204-.613 2.138-2.51 3.424-2.929 1.285-.417 3.156.569 4.49.357C29.175 5.516 30.649 4 32 4c1.352 0 2.826 1.516 4.161 1.727 1.335.212 3.206-.774 4.491-.357 1.286.418 2.22 2.316 3.424 2.93 1.204.613 3.288.253 4.382 1.048 1.093.794 1.395 2.887 2.351 3.843s3.049 1.258 3.843 2.351c.795 1.094.435 3.178 1.049 4.382.613 1.204 2.51 2.138 2.929 3.424.417 1.285-.569 3.156-.357 4.49C58.484 29.175 60 30.649 60 32c0 1.352-1.516 2.826-1.727 4.161-.212 1.335.774 3.206.357 4.491-.418 1.286-2.316 2.22-2.93 3.424-.613 1.204-.253 3.288-1.048 4.382-.794 1.093-2.887 1.395-3.843 2.351s-1.258 3.049-2.351 3.843c-1.094.795-3.178.435-4.382 1.049-1.204.613-2.138 2.51-3.424 2.929-1.285.417-3.156-.569-4.49-.357C34.825 58.484 33.351 60 32 60z" fill="#FD8019" fill-rule="evenodd"/>
    <path d="M32 4c-1.352 0-2.827 1.515-4.162 1.727-1.335.211-3.205-.774-4.49-.356-1.286.418-2.22 2.314-3.424 2.928-1.204.613-3.288.254-4.381 1.049-1.094.794-1.396 2.888-2.352 3.843-.955.956-3.049 1.258-3.843 2.352-.795 1.093-.436 3.177-1.05 4.38-.613 1.205-2.51 2.14-2.927 3.425-.125.384-.111.827-.055 1.287.017-.097.026-.196.055-.287.418-1.286 2.314-2.22 2.928-3.424.613-1.204.254-3.288 1.049-4.381.794-1.094 2.888-1.396 3.843-2.352.956-.955 1.258-3.049 2.352-3.843 1.093-.795 3.177-.436 4.38-1.05 1.205-.613 2.14-2.51 3.425-2.927 1.285-.418 3.155.567 4.49.356C29.173 6.515 30.648 5 32 5c1.352 0 2.827 1.515 4.162 1.727 1.335.211 3.205-.774 4.49-.356 1.286.418 2.22 2.314 3.424 2.928 1.204.613 3.288.254 4.381 1.049 1.094.794 1.396 2.888 2.352 3.843.955.956 3.049 1.258 3.843 2.352.795 1.093.436 3.177 1.05 4.38.613 1.205 2.51 2.14 2.927 3.425.03.09.038.19.055.287.056-.46.07-.903-.055-1.287-.418-1.286-2.314-2.22-2.928-3.424-.613-1.204-.254-3.288-1.049-4.381-.794-1.094-2.888-1.396-3.843-2.352-.956-.955-1.258-3.049-2.352-3.843-1.093-.795-3.177-.436-4.38-1.05-1.205-.613-2.14-2.51-3.425-2.927-1.285-.418-3.155.567-4.49.356C34.827 5.515 33.352 4 32 4zM5.715 27.88C5.479 29.206 4 30.664 4 32c0 .165.024.332.064.5.289-1.21 1.477-2.49 1.663-3.662.046-.296.03-.62-.012-.957zm52.57 0c-.042.337-.058.662-.012.958.186 1.172 1.374 2.453 1.663 3.662A2.16 2.16 0 0 0 60 32c0-1.337-1.479-2.795-1.715-4.12zm-52.57 9.24c-.136 1.073-.563 2.281-.399 3.245.133-1.076.559-2.267.41-3.203-.002-.014-.009-.029-.011-.043zm52.57 0c-.002.013-.01.028-.012.042-.148.936.278 2.127.41 3.203.165-.964-.262-2.172-.398-3.246z" fill="#F9F5D7" fill-rule="evenodd" opacity=".2"/>
    <path d="M32 55c-1.062 0-2.22-1.191-3.27-1.357-1.048-.166-2.518.608-3.528.28-1.01-.328-1.744-1.819-2.69-2.301-.947-.482-2.584-.2-3.443-.824-.86-.624-1.097-2.269-1.848-3.02-.75-.75-2.395-.988-3.02-1.847-.624-.859-.34-2.496-.823-3.443-.482-.946-1.973-1.68-2.301-2.69-.328-1.01.446-2.48.28-3.529C11.191 35.221 10 34.062 10 33c0-1.062 1.191-2.22 1.357-3.27.166-1.048-.608-2.518-.28-3.528.328-1.01 1.819-1.744 2.301-2.69.482-.947.2-2.584.824-3.443.624-.86 2.269-1.097 3.02-1.848.75-.75.988-2.395 1.847-3.02.859-.624 2.496-.34 3.443-.823.946-.482 1.68-1.973 2.69-2.301 1.01-.328 2.48.446 3.529.28C29.779 12.191 30.938 11 32 11c1.062 0 2.22 1.191 3.27 1.357 1.048.166 2.518-.608 3.528-.28 1.01.328 1.744 1.819 2.69 2.301.947.482 2.584.2 3.443.824.86.624 1.097 2.269 1.848 3.02.75.75 2.395.988 3.02 1.847.624.859.34 2.496.823 3.443.482.946 1.973 1.68 2.301 2.69.328 1.01-.446 2.48-.28 3.529C52.809 30.779 54 31.938 54 33c0 1.062-1.191 2.22-1.357 3.27-.166 1.048.608 2.518.28 3.528-.328 1.01-1.819 1.744-2.301 2.69-.482.947-.2 2.584-.824 3.443-.624.86-2.269 1.097-3.02 1.848-.75.75-.988 2.395-1.847 3.02-.859.624-2.496.34-3.443.823-.946.482-1.68 1.973-2.69 2.301-1.01.328-2.48-.446-3.529-.28C34.221 53.809 33.062 55 32 55z" opacity=".2" fill-rule="evenodd"/>
    <path d="M53.791 5c4.886 4.76 4.886 19.04-4.886 23.8l-9.772-9.52c9.772 0 14.658-9.52 14.658-14.28z" opacity=".2"/>
    <path d="M53.791 4c4.886 4.76 4.886 19.04-4.886 23.8l-9.772-9.52c9.772 0 14.658-9.52 14.658-14.28z" fill="#FA4934"/>
    <path d="M10.21 5c-4.887 4.76-4.887 19.04 4.885 23.8l9.772-9.52C15.095 19.28 10.21 9.76 10.21 5z" opacity=".2"/>
    <path d="M10.21 4c-4.887 4.76-4.887 19.04 4.885 23.8l9.772-9.52C15.095 18.28 10.21 8.76 10.21 4z" fill="#FA4934"/>
    <path d="M32 54c-1.062 0-2.22-1.191-3.27-1.357-1.048-.166-2.518.608-3.528.28-1.01-.328-1.744-1.819-2.69-2.301-.947-.482-2.584-.2-3.443-.824-.86-.624-1.097-2.269-1.848-3.02-.75-.75-2.395-.988-3.02-1.847-.624-.859-.34-2.496-.823-3.443-.482-.946-1.973-1.68-2.301-2.69-.328-1.01.446-2.48.28-3.529C11.191 34.221 10 33.062 10 32c0-1.062 1.191-2.22 1.357-3.27.166-1.048-.608-2.518-.28-3.528.328-1.01 1.819-1.744 2.301-2.69.482-.947.2-2.584.824-3.443.624-.86 2.269-1.097 3.02-1.848.75-.75.988-2.395 1.847-3.02.859-.624 2.496-.34 3.443-.823.946-.482 1.68-1.973 2.69-2.301 1.01-.328 2.48.446 3.529.28C29.779 11.191 30.938 10 32 10c1.062 0 2.22 1.191 3.27 1.357 1.048.166 2.518-.608 3.528-.28 1.01.328 1.744 1.819 2.69 2.301.947.482 2.584.2 3.443.824.86.624 1.097 2.269 1.848 3.02.75.75 2.395.988 3.02 1.847.624.859.34 2.496.823 3.443.482.946 1.973 1.68 2.301 2.69.328 1.01-.446 2.48-.28 3.529C52.809 29.779 54 30.938 54 32c0 1.062-1.191 2.22-1.357 3.27-.166 1.048.608 2.518.28 3.528-.328 1.01-1.819 1.744-2.301 2.69-.482.947-.2 2.584-.824 3.443-.624.86-2.269 1.097-3.02 1.848-.75.75-.988 2.395-1.847 3.02-.859.624-2.496.34-3.443.823-.946.482-1.68 1.973-2.69 2.301-1.01.328-2.48-.446-3.529-.28C34.221 52.809 33.062 54 32 54z" fill="#FECE4F" fill-rule="evenodd"/>
    <path d="M32 28s-1.73-2.631-2.201-3.83c-.471-1.199-.983-2.42-.734-3.283.249-.864.648-1.314 1.468-1.642.82-.327 2.114-.327 2.934 0 .82.328 1.22.778 1.468 1.642.249.864-.263 2.084-.734 3.283C33.731 25.369 32 28 32 28zM32 36s-1.73 2.631-2.201 3.83c-.471 1.199-.983 2.42-.734 3.283.249.864.648 1.314 1.468 1.642.82.327 2.114.327 2.934 0 .82-.328 1.22-.778 1.468-1.642.249-.864-.263-2.084-.734-3.283C33.731 38.631 32 36 32 36zM36 32s2.631-1.73 3.83-2.201c1.199-.471 2.42-.983 3.283-.734.864.249 1.314.648 1.642 1.468.327.82.327 2.114 0 2.934-.328.82-.778 1.22-1.642 1.468-.864.249-2.084-.263-3.283-.734C38.631 33.731 36 32 36 32zM28 32s-2.631-1.73-3.83-2.201c-1.199-.471-2.42-.983-3.283-.734-.864.249-1.314.648-1.642 1.468-.327.82-.327 2.114 0 2.934.328.82.778 1.22 1.642 1.468.864.249 2.084-.263 3.283-.734C25.369 33.731 28 32 28 32zM34.828 34.828s3.084.638 4.265 1.152c1.181.515 2.405 1.016 2.84 1.803.435.786.472 1.387.123 2.198-.348.811-1.264 1.727-2.075 2.075-.811.349-1.412.312-2.198-.123-.787-.435-1.288-1.659-1.803-2.84-.514-1.18-1.152-4.265-1.152-4.265zM29.172 29.172s-.638-3.084-1.152-4.265c-.515-1.181-1.016-2.405-1.803-2.84-.786-.435-1.387-.472-2.198-.123-.811.348-1.727 1.264-2.075 2.075-.349.811-.312 1.412.123 2.198.435.787 1.659 1.288 2.84 1.803 1.18.514 4.265 1.152 4.265 1.152zM29.172 34.828s-3.084.638-4.265 1.152c-1.181.515-2.405 1.016-2.84 1.803-.435.786-.472 1.387-.123 2.198.348.811 1.264 1.727 2.075 2.075.811.349 1.412.312 2.198-.123.787-.435 1.288-1.659 1.803-2.84.514-1.18 1.152-4.265 1.152-4.265zM34.828 29.172s.638-3.084 1.152-4.265c.515-1.181 1.016-2.405 1.803-2.84.786-.435 1.387-.472 2.198-.123.811.348 1.727 1.264 2.075 2.075.349.811.312 1.412-.123 2.198-.435.787-1.659 1.288-2.84 1.803-1.18.514-4.265 1.152-4.265 1.152z" opacity=".4"/>
    <path d="M32 10c-1.062 0-2.22 1.191-3.27 1.357-1.048.167-2.519-.609-3.529-.28-1.01.327-1.743 1.82-2.69 2.302-.946.482-2.583.198-3.443.822-.859.624-1.096 2.269-1.847 3.02-.751.75-2.396.988-3.02 1.847-.624.86-.34 2.497-.822 3.444-.482.946-1.975 1.68-2.303 2.69-.108.332-.081.72-.023 1.12.01-.04.01-.082.023-.12.328-1.01 1.82-1.744 2.303-2.69.482-.947.198-2.584.822-3.444.624-.859 2.269-1.096 3.02-1.847.75-.751.988-2.396 1.847-3.02.86-.624 2.497-.34 3.444-.822.946-.482 1.68-1.975 2.69-2.303 1.01-.328 2.48.448 3.528.281C29.78 12.191 30.938 11 32 11c1.062 0 2.22 1.191 3.27 1.357 1.048.167 2.519-.609 3.529-.28 1.01.327 1.743 1.82 2.69 2.302.946.482 2.583.198 3.443.822.859.624 1.096 2.269 1.847 3.02.751.75 2.396.988 3.02 1.847.624.86.34 2.497.822 3.444.482.946 1.975 1.68 2.303 2.69.012.038.014.08.023.12.058-.4.085-.788-.023-1.12-.328-1.01-1.82-1.744-2.303-2.69-.482-.947-.198-2.584-.822-3.444-.624-.859-2.269-1.096-3.02-1.847-.75-.751-.988-2.396-1.847-3.02-.86-.624-2.497-.34-3.444-.822-.946-.482-1.68-1.975-2.69-2.303-1.01-.328-2.48.448-3.528.281C34.22 11.191 33.062 10 32 10zM11.33 28.836C11.106 29.857 10 30.973 10 32c0 .165.035.332.084.5.267-.919 1.133-1.883 1.273-2.77.044-.274.022-.578-.027-.894zm41.34 0c-.049.316-.07.62-.027.894.14.887 1.006 1.851 1.273 2.77.049-.168.084-.335.084-.5 0-1.027-1.106-2.143-1.33-3.164zm-41.34 7.328c-.13.847-.45 1.783-.277 2.514.118-.817.416-1.705.304-2.408-.005-.035-.02-.071-.027-.106zm41.34 0c-.008.035-.022.07-.027.106-.112.703.186 1.591.304 2.408.173-.731-.147-1.667-.277-2.514z" fill="#F9F5D7" fill-rule="evenodd" opacity=".2"/>
</svg>
