<svg xmlns="http://www.w3.org/2000/svg" width="64" height="64">
    <path d="M22.77 7.001c-.085.001-.17.006-.254.012l.012.02a4.587 4.587 0 0 0-3.746 2.312L2.63 37.707a4.83 4.83 0 0 0 .144 5.008l9.234 14.18c.34.52.776.97 1.286 1.316a4.539 4.539 0 0 0 2.554.789h32.308c1.543 0 2.984-.79 3.84-2.105l9.23-14.18c.207-.32.375-.665.5-1.027l.008-.02a4.835 4.835 0 0 0-.36-3.96L45.22 9.344a4.577 4.577 0 0 0-3.63-2.297l.028-.047H22.77zM31.992 24.4l9.414 17.27H22.442l9.55-17.27z" opacity=".2"/>
    <path d="M7.504 40.02l5.74 8.243-1.092 6.555c-.102.614.632 2.046 1.141 2.393a4.539 4.539 0 0 0 2.555.789h32.308c1.543 0 2.983-.79 3.84-2.105l9.23-14.18c.206-.32.375-.665.5-1.027l.008-.02c.073-.211.105-.431.148-.648l-.813-.861-40.695.86z" fill="#8F3F71"/>
    <path d="M31.994 23.398L13.293 57.211c.135.092.277.166.42.242l18.555-33.55zM12.008 55.895c-8.005 5.403-4.003 2.701 0 0z" opacity=".2"/>
    <path d="M22.77 6.001c-1.641 0-3.16.893-3.987 2.344L2.63 36.71a4.825 4.825 0 0 0 .147 5.005l9.231 14.181c.34.522.777.969 1.287 1.315L41.616 6.001z" fill="#7CB668"/>
    <path d="M22.77 6.002c-1.642 0-3.16.892-3.987 2.344L2.63 36.709a4.807 4.807 0 0 0-.596 2.84 4.798 4.798 0 0 1 .596-1.84L18.783 9.346c.828-1.452 2.345-2.344 3.987-2.344h18.293l.552-1H22.77z" opacity=".2" fill="#F9F5D7"/>
    <path d="M22.77 7.001c-.085.002-.17.006-.254.012L41.055 41.02h19.972l.199-.305c.206-.32.375-.665.5-1.027l.008-.02c.064-.185.088-.38.129-.57-.006-.026-.003-.052-.008-.078h-20.8L23.598 7.001h-.828z" opacity=".2"/>
    <path d="M22.77 6.001c-.085.002-.17.006-.254.012L41.055 40.02h20.827c.223-1.127.064-2.305-.508-3.312L45.218 8.345C44.391 6.893 42.876 6 41.234 6H22.77zM2.622 41.446z" fill="#F9BD2E"/>
    <path d="M32.115 21.003a2.667 2.5 0 0 0-2.42 1.238l-4.666 7.5-4.666 7.5A2.667 2.5 0 0 0 22.668 41h18.664a2.667 2.5 0 0 0 2.305-3.76l-4.666-7.5-4.667-7.5a2.667 2.5 0 0 0-2.19-1.237z" opacity=".2" fill-rule="evenodd"/>
    <path d="M32.115 20.003a2.667 2.5 0 0 0-2.42 1.238l-4.666 7.5-4.666 7.5A2.667 2.5 0 0 0 22.668 40h18.664a2.667 2.5 0 0 0 2.305-3.76l-4.666-7.5-4.667-7.5a2.667 2.5 0 0 0-2.19-1.238z" fill="#F9F5D7"/>
    <path d="M22.77 6.002a4.55 4.55 0 0 0-.254.012l.539.988h18.18c1.64 0 3.156.89 3.984 2.342l16.156 28.363c.32.563.496 1.181.563 1.813.093-.97-.075-1.954-.563-2.813L45.219 8.346c-.828-1.452-2.343-2.344-3.985-2.344H22.77zM2.62 41.445zm0 1z" opacity=".2" fill="#F9F5D7"/>
</svg>
