<svg xmlns="http://www.w3.org/2000/svg" width="64" height="64" version="1">
    <path d="M14.5 8a2.495 2.495 0 0 0-2.5 2.5v45c0 1.385 1.115 2.5 2.5 2.5h35c1.385 0 2.5-1.115 2.5-2.5V23l-13.75-1.25L37 8z" opacity=".2"/>
    <path fill="#066678" d="M14.5 7A2.495 2.495 0 0 0 12 9.5v45c0 1.385 1.115 2.5 2.5 2.5h35c1.385 0 2.5-1.115 2.5-2.5V22l-13.75-1.25L37 7z"/>
    <path d="M14.5 7A2.495 2.495 0 0 0 12 9.5v1C12 9.115 13.115 8 14.5 8H37l1.25 13.75L52 22l-13.75-1.25L37 7z" opacity=".2" fill="#F9F5D7"/>
    <path fill="#48B9C7" d="M37 7v12.5a2.5 2.5 0 0 0 2.5 2.5H52L37 7z"/>
    <path fill="#F9F5D7" d="M21 29v3h22v-3H21zm0 6v3h22v-3H21zm0 6v3h22v-3H21zm0 6v3h16v-3H21z"/>
</svg>
