<svg xmlns="http://www.w3.org/2000/svg" width="64" height="64" version="1">
    <path d="M4 56v2c0 1.662 1.338 3 3 3h50c1.662 0 3-1.338 3-3v-2c0 1.662-1.338 3-3 3H7c-1.662 0-3-1.338-3-3z" opacity=".2"/>
    <rect width="56" height="56" x="4" y="4" rx="3" ry="3" fill="#FD8019"/>
    <path d="M7 4C5.338 4 4 5.338 4 7v1c0-1.662 1.338-3 3-3h50c1.662 0 3 1.338 3 3V7c0-1.662-1.338-3-3-3H7z" opacity=".2" fill="#F9F5D7"/>
    <path d="M63.954 47.918A14 14 0 0 1 50 61a14 14 0 0 1-13.954-12.918A14 14 0 0 0 36 49a14 14 0 0 0 14 14 14 14 0 0 0 14-14 14 14 0 0 0-.046-1.082z" opacity=".2" fill-rule="evenodd"/>
    <path d="M32.002 15c-1.682-.018-3.353.23-4.975.675C19.474 17.7 13.946 25.177 14.061 33H10C12.07 36.045 16 42 16 42s6-9 6-9.002h-3.918c-.014-3.276 1.215-6.571 3.397-9.017C25.578 19.05 33 16.999 38.71 21.187c1.81 2.369 5.758-.32 3.72-2.662-3-2.337-6.641-3.518-10.429-3.526zM48 24s-6 8.998-6 9h3.918c.014 3.276-1.215 6.573-3.397 9.019-4.099 4.928-11.522 6.98-17.232 2.793-1.81-2.37-5.758.319-3.72 2.662 3 2.336 6.641 3.517 10.429 3.525 1.682.018 3.353-.231 4.975-.676 7.553-2.026 13.081-9.502 12.966-17.326H54C51.93 29.954 48 24 48 24z" opacity=".2"/>
    <path d="M32.002 14c-1.682-.017-3.353.232-4.975.676-7.553 2.026-13.081 9.502-12.966 17.326H10C12.07 35.046 16 41 16 41l6-9.002h-3.918c-.014-3.277 1.215-6.572 3.397-9.018C25.578 18.052 33 16 38.71 20.187c1.81 2.37 5.758-.319 3.72-2.662-3-2.336-6.641-3.517-10.429-3.525zM48 23l-6 9h3.918c.014 3.277-1.215 6.574-3.397 9.02C38.422 45.948 31 48 25.29 43.812c-1.81-2.369-5.758.32-3.72 2.663 3 2.336 6.641 3.517 10.429 3.525 1.682.017 3.353-.232 4.975-.676 7.553-2.026 13.081-9.502 12.966-17.326H54C51.93 28.954 48 23 48 23z" fill="#F9F5D7"/>
    <circle cx="50" cy="48" r="14" fill="#48B9C7"/>
    <path d="M48 40l-.176 2.107a6.286 6.286 0 0 0-1.837 1.063l-1.916-.902-2 3.464 1.74 1.208a6.286 6.286 0 0 0-.097 1.06 6.286 6.286 0 0 0 .092 1.065l-1.735 1.203 2 3.464 1.91-.9a6.286 6.286 0 0 0 1.842 1.056L48 56h4l.176-2.107a6.286 6.286 0 0 0 1.837-1.063l1.915.902 2-3.464-1.738-1.208a6.286 6.286 0 0 0 .096-1.06 6.286 6.286 0 0 0-.092-1.065l1.735-1.203-2-3.464-1.911.9a6.286 6.286 0 0 0-1.842-1.057L52 40h-4zm2 5.714A2.286 2.286 0 0 1 52.286 48 2.286 2.286 0 0 1 50 50.286 2.286 2.286 0 0 1 47.714 48 2.286 2.286 0 0 1 50 45.714z" fill="#F9F5D7"/>
</svg>
