<svg xmlns="http://www.w3.org/2000/svg" width="64" height="64" version="1">
    <path d="M31.235 4.93c-.58.01-1.167.048-1.756.113-9.23 1.02-15.953 8.634-15.32 17.135L12 22.42l1.237 11.18 7.205-.796-1.237-11.184-2.668.296c-.495-7.285 5.28-13.789 13.195-14.664 7.912-.874 15 4.199 16.117 11.408l-2.35.26 1.237 11.18 6.956-.768-1.236-11.18-2.234.245C47.043 10.518 39.729 4.792 31.235 4.93z" opacity=".2"/>
    <path d="M30.173 11.002c-.98.038-1.84.558-2.516 1.33-.675.77-1.209 1.797-1.658 3.002-.9 2.41-1.452 7.554-1.758 10.806-.306 3.251-.359 4.604-.219 7.407.14 2.803.413 4.984.99 6.202.504 1.066 1.09 2.283 1.343 3.383.253 1.1.2 1.976-.448 2.684-.647.71-2.076 1.347-4.822 1.494-2.747.147-6.76-.985-12.45-2.044-.917-.17-1.681-.185-2.346.035-.666.22-1.186.71-1.503 1.329-.633 1.238-.69 5.74-.784 8.092-.03.76.25 1.485.74 2.08.49.594 1.177 1.08 2.028 1.506 1.703.852 4.088 1.466 7.05 1.902 5.922.873 14.146 1.011 23.487.47l.008-.003h.01c3.439-.283 8.877-.481 13.568-1.674 2.345-.596 4.513-1.435 6.169-2.719 1.655-1.283 2.789-3.065 2.9-5.337.104-2.113-.005-5.329-.43-6.346-.424-1.016-1.333-1.559-2.267-1.578-1.87-.04-4.071.984-6.93 1.655-3.28.77-5.594 1.441-7.169 1.322-1.574-.12-2.362-.987-2.848-1.614-.487-.626-.706-1.552-.808-2.73-.101-1.177-.09-2.571-.244-4.04-.298-2.814-.86-7.404-2.13-13.29-.634-2.942-1.44-7.711-2.522-9.794-.542-1.04-1.15-1.917-1.88-2.55-.73-.632-1.61-1.015-2.562-.978z" opacity=".2"/>
    <path d="M31.235 3.93c-.58.01-1.167.048-1.756.113-9.23 1.02-15.953 8.634-15.32 17.135L12 21.42l1.237 11.18 7.205-.796-1.237-11.184-2.668.296c-.495-7.285 5.28-13.789 13.195-14.664 7.912-.874 15 4.199 16.117 11.408l-2.35.26 1.237 11.18 6.956-.768-1.236-11.18-2.234.245C47.043 9.518 39.729 3.792 31.235 3.93z" fill="#504945"/>
    <path d="M30.173 10.002c-.98.038-1.84.559-2.516 1.33-.675.77-1.209 1.797-1.658 3.002-.9 2.41-1.452 7.554-1.758 10.806-.306 3.251-.359 4.604-.219 7.407.14 2.803.413 4.984.99 6.202.504 1.066 1.09 3.283 1.343 4.382.253 1.1.2 1.976-.448 2.685-.647.709-2.076 1.346-4.822 1.494-2.747.147-6.76-.985-12.45-2.044-.917-.17-1.681-.186-2.346.034-.666.22-1.186.71-1.503 1.33-.633 1.237-.69 4.74-.784 7.092-.03.76.25 1.485.74 2.08.49.594 1.177 1.08 2.028 1.506 1.703.852 4.088 1.466 7.05 1.902 5.922.873 14.146 1.011 23.487.47l.008-.003h.01c3.439-.283 8.877-.481 13.568-1.674 2.345-.596 4.513-1.435 6.169-2.719 1.655-1.283 2.789-3.065 2.9-5.337.104-2.113-.005-4.33-.43-5.346-.424-1.017-1.333-1.559-2.267-1.578-1.87-.04-4.071.984-6.93 1.655-3.28.77-5.594 1.441-7.169 1.322-1.574-.12-2.362-.988-2.848-1.614-.487-.626-.706-1.552-.808-2.73-.101-1.177-.09-3.571-.244-5.04-.298-2.814-.86-7.404-2.13-13.29-.634-2.942-1.44-7.711-2.522-9.794-.542-1.04-1.15-1.917-1.88-2.55-.73-.632-1.61-1.015-2.562-.978z" fill="#8F3F71"/>
    <path d="M30.174 10.002c-.98.038-1.84.559-2.516 1.33-.675.771-1.21 1.797-1.66 3.002-.899 2.41-1.452 7.555-1.758 10.807-.235 2.5-.316 3.888-.28 5.666.01-1.355.09-2.65.28-4.666.306-3.252.86-8.397 1.758-10.807.45-1.205.985-2.231 1.66-3.002.676-.771 1.536-1.292 2.516-1.33l-.002.002c.952-.037 1.832.346 2.562.978.73.633 1.337 1.51 1.88 2.551 1.081 2.083 1.887 6.85 2.52 9.793a123.643 123.643 0 0 1 2.132 13.291c.155 1.469.142 3.862.244 5.04.102 1.177.322 2.104.808 2.73.487.626 1.273 1.494 2.848 1.613 1.575.12 3.89-.553 7.17-1.322 2.858-.671 5.059-1.694 6.928-1.655.934.02 1.845.562 2.27 1.579.29.696.423 1.97.45 3.375.031-1.79-.092-3.515-.45-4.375-.425-1.017-1.336-1.559-2.27-1.579-1.87-.039-4.07.984-6.928 1.655-3.28.77-5.595 1.441-7.17 1.322-1.575-.12-2.36-.987-2.848-1.613-.486-.626-.706-1.553-.808-2.73-.102-1.178-.09-3.571-.244-5.04-.298-2.814-.861-7.405-2.131-13.29-.634-2.943-1.44-7.711-2.522-9.794-.542-1.041-1.149-1.918-1.879-2.55-.73-.633-1.61-1.016-2.562-.98l.002-.001zm-3.727 34.693a2.152 2.152 0 0 1-.539 1.121c-.647.71-2.077 1.347-4.824 1.495-2.746.147-6.76-.986-12.45-2.045-.916-.17-1.68-.185-2.345.035-.665.22-1.187.71-1.504 1.328-.633 1.238-.69 4.741-.783 7.094-.005.13.01.258.023.386.085-2.313.177-5.34.76-6.48.317-.619.839-1.108 1.504-1.328.665-.22 1.43-.206 2.346-.035 5.69 1.059 9.703 2.192 12.449 2.045 2.747-.148 4.177-.786 4.824-1.495.531-.58.648-1.284.54-2.12z" opacity=".2" fill="#F9F5D7"/>
    <path d="M27.973 27.3a5.982 12.001 2.522 1 1-11.949-.602 5.982 12.001 2.522 1 1 11.949.602z" opacity=".2"/>
    <path d="M27.973 26.3a5.982 12.001 2.522 1 1-11.949-.602 5.982 12.001 2.522 1 1 11.949.602z" fill="#F9F5D7"/>
    <path d="M25.985 28.096a2.983 4.016 6.89 0 1-5.973-.192 2.983 4.016 6.89 1 1 5.973.192z" fill="#504945"/>
    <path d="M45.873 26.366a12.052 6.901 83.212 0 1-13.748 1.267 12.052 6.901 83.212 1 1 13.748-1.267z" opacity=".2"/>
    <path d="M45.873 25.366a12.052 6.901 83.212 0 1-13.748 1.267 12.052 6.901 83.212 1 1 13.748-1.267z" fill="#F9F5D7"/>
    <path d="M41.893 28.274a2.878 4.089 16.98 0 1-5.79-.542 2.878 4.089 16.98 1 1 5.79.542z" fill="#504945"/>
    <path d="M31.234 3.93c-.58.009-1.167.048-1.755.113-8.943.989-15.51 8.169-15.336 16.346.356-7.756 6.76-14.398 15.336-15.346a18.762 18.762 0 0 1 1.755-.113c8.494-.137 15.809 5.588 16.987 13.466l2.234-.246 1.127 10.194.11-.012-1.237-11.182-2.234.246C47.043 9.518 39.728 3.793 31.234 3.93zm14.409 13.754l-2.145.236.11.988 2.24-.248c-.052-.332-.13-.654-.205-.976zm-29.116 2.74c-.024.493-.026.99.008 1.492l2.67-.297 1.127 10.197.11-.011-1.237-11.184-2.67.295c-.011-.165-.003-.328-.008-.492zm-2.388.756L12 21.42l.11.988 2.05-.23c-.025-.335-.019-.666-.021-.998z" opacity=".1" fill="#F9F5D7"/>
</svg>
