<svg xmlns="http://www.w3.org/2000/svg" width="64" height="64" version="1">
    <rect width="56" height="56" x="4" y="5" rx="28" ry="28" opacity=".2"/>
    <rect width="56" height="56" x="4" y="4" rx="28" ry="28" fill="#066678"/>
    <path d="M32.145 6.399l-3.243.371-4.004 1.098-.757.738 2.484 1.71v.981l-1.625.98 1.953 2.571.867-.488 1.082-1.715a37.225 37.225 0 0 0 4.758-1.836L34.8 7.5 32.146 6.4zm-7.676.246l-1.399.2-.664.655-1.082.16-.969.454-.472.226-.285.387 1.406.242.539-.488 1.082-.242c.741-.36 1.487-.605 2.273-.86l-.43-.734zm-6.387 2.937l-.215.489.106 1.226-.864.735-.543 1.347h1.082l.543-1.222c.467-.33.931-.663 1.407-.98l1.082.366 2.164 1.47 1.082-.981-1.192-.489-.543-1.101-2.054-.246-.11-.614-.972.247-.43.855-.543-1.102zm27.711.98l-2.05.493-1.306.856v.734l-2.05 1.348.43 1.957 1.195-.856.754.856.863.492.543-1.469-.324-.86.324-.613 1.187-1.5h.543l-.543 1.625v1.102c.497-.135 1.011-.179 1.52-.242l-1.41.976-.106.614-1.62 1.343-1.63-.363v-.98l-.758.488.329 1.137h-1.192l-.648.82-.813.918-1.457.309.864.851.218.86h-1.082l-1.375.734v2.207h.617l.594.672 1.352-.672.539-1.348.976-.613.215-.488 1.621-.368.867.977.973.492-.539 1.102.867-.246.43-1.098-1.082-1.227h.434l1.085.856.215 1.223.969 1.105.219-1.598.543-.242c.535.555.955 1.387 1.406 2.012l1.621.125.977.434-.434.613-.977.89h-1.402l-1.844-.644-.972.121-.7.797-2.003-2.02-1.41-.367-2.055.242-1.84.493c-1.032 1.17-2.91 2.332-3.887 3.546l-1.191 2.82.543.61-.973 1.469 1.082 2.574c.92 1.04 2.699 2.076 3.617 3.117l1.356-1.16.594.676 1.457-.918.488.644h2.465l.836.852-.52 1.684L44.36 42.7l-.054 2.02.758 1.472-.81 1.222c-.053.901-.054 1.795-.054 2.696.444 1.22 1.183 2.438 1.602 3.668l.297 1.41a27.941 27.941 0 0 0 5.25-3.941l-.743-.833 1.25-1.039 1.047-.738.543-.61-.324-1.35V43.25l1.113-2.082 1.188-1.347 1.3-3.18v-.86c-.64.081-1.264.147-1.89.192l1.293-1.293 1.785-1.226.977-1.098v-1.227l-.653-1.222-.863.976-.648-.73-.977-.739v-1.59l1.14 1.286 1.243-.184c.567.515 1.124 1.004 1.621 1.59l.125-.137c-.598-6.497-3.411-12.326-7.664-16.761-.235-.241-.48-.498-.672-.688-.323-.315-.666-.611-1.004-.91l-.305.504-1.082 1.223L47.742 12h1.406l.649-.457-2.598-.488-1.406-.492zm-30.586.04c-.158.119-.317.233-.473.355l.211.954s-.99.109-1.562.183A27.867 27.867 0 0 0 4.05 32.028c.013.376.03.752.058 1.125.16.26.34.547.34.547l2.274 1.347 2.273.614.969 1.226 1.515 1.098.868-.121.648.293v.199l-.863 2.324-.653.98.22.489-.7 1.836 2.102 3.55 1.39 1.712.863 1.222-.105 2.574.82.996a27.843 27.843 0 0 0 5.137 2.813l1.094-.383 1.3-2.691-.542-.735.753-1.523 1.426-.367.961-1.54-.312-2.445 1.976-1.836.219-1.835c-1.776-.881-4.018-1.79-5.781-2.696l-.867-1.715-1.622-.168-.863-2.023-2.164.246-1.84-2.14-1.949 2.003v.274c-.59-.17-1.311-.193-1.836-.516l-.437-1.223v-1.351l-1.297.125c.108-.857.219-1.713.328-2.57h-.758l-.758.98-.758.363-1.082-.609-.109-1.348.215-1.468 1.625-1.223h1.297l.215-.738 1.625.367 1.046 1.472.22-2.449 2.198-1.715.758-2.347L17 22.973l.867-.707 1.945-.371.973-1.465h-2.918l1.84-1.43h1.297l1.84-.601.215-.735-.653-.609-.754-.246.22-.734-.544-1.102-1.3.484.218-.976-1.516-.856-1.187 2.079.105.738-1.191.488-.758 1.59-.32-1.465-2.059-.86-.324-1.1L15.7 13.5l1.192-1.101.109-1.344-.648-.371-1.145-.082zm21.16.875l-1.566.488-.707-.12h-.004l-.11.734 1.04.488 1.996-.86-.649-.73zm-15.582.922l-.863.613 1.082.735h.867v-.86l-1.086-.488zm17.094 2.816v.735l.433.492v1.101l-.218 1.47 1.191-.247.867-.855-.757-.735a21.96 21.96 0 0 0-.864-1.96h-.652zm-.43 1.469l-.762.246.22 1.344.972-.485-.43-1.105zm-14.93 2.207l.325 1.707.648-.973-.972-.734zm28.25 9.547l1.247 1.406 1.46 3.121.864.98-.434 1.102.82.93c-.377.026-.751.055-1.14.055-.689-1.448-1.206-2.9-1.73-4.414l-1.204-1.04-.484-1.777.602-.363z" opacity=".2"/>
    <path d="M32.145 5.4l-3.243.37-4.003 1.098-.758.736 2.486 1.714v.98L25 11.275l1.955 2.573.864-.49 1.083-1.714a37.233 37.233 0 0 0 4.758-1.837l1.14-3.306zm-7.678.246l-1.397.2-.662.656-1.086.159-.968.453-.47.227-.287.386 1.405.243.542-.49 1.083-.242c.74-.36 1.485-.605 2.272-.86zm-6.385 2.937l-.216.49.107 1.224-.864.736-.542 1.345h1.083l.541-1.222c.467-.33.93-.664 1.406-.982l1.083.37 2.163 1.468 1.082-.98-1.192-.489-.541-1.102-2.056-.246-.107-.612-.974.246-.432.856zm27.71.979l-2.05.492-1.305.856v.735l-2.05 1.346.429 1.96 1.195-.858.754.858.864.49.542-1.469-.323-.858.323-.613L45.36 11h.54l-.54 1.624v1.102c.496-.135 1.008-.18 1.517-.243l-1.408.979-.107.612-1.622 1.346-1.627-.367v-.979l-.757.49.328 1.135h-1.192l-.648.822-.815.917-1.457.308.864.854.218.855h-1.082l-1.373.736v2.207h.615l.594.672 1.353-.672.539-1.348.976-.613.216-.49 1.621-.363.867.976.974.49-.542 1.102.867-.247.432-1.096-1.083-1.225h.435l1.083.853.216 1.225.97 1.102.217-1.594.544-.243c.535.555.955 1.387 1.405 2.011l1.622.124.976.435-.435.612-.973.891h-1.406l-1.84-.645-.973.12-.7.8-2.005-2.021-1.408-.367-2.056.243-1.84.49c-1.032 1.17-2.911 2.334-3.888 3.55l-1.19 2.818.542.61-.974 1.468 1.083 2.573c.92 1.04 2.699 2.08 3.617 3.12l1.356-1.162.594.676 1.457-.92.49.647h2.462l.837.852-.517 1.685 1.03 1.162-.054 2.02.758 1.472-.81 1.222a45 45 0 0 0-.054 2.696c.443 1.22 1.181 2.437 1.6 3.667l.414 1.96v.982h.178l.592-.736h1.026c.382-.266.75-.552 1.118-.836l1.37-1.55-.268-.796 1.408-1.228-1.03-1.16 1.246-1.039 1.05-.738.542-.607-.326-1.353V42.25l1.113-2.083 1.19-1.346 1.298-3.183v-.858c-.64.08-1.263.146-1.889.191l1.293-1.293 1.786-1.225.976-1.1V30.13l-.65-1.225-.867.979-.649-.733-.973-.736v-1.591l1.138 1.285 1.244-.183c.566.514 1.124 1.006 1.621 1.591l.123-.14c-.598-6.496-3.409-12.323-7.662-16.758-.234-.24-.482-.5-.675-.69-.323-.314-.662-.611-1-.91l-.307.503-1.083 1.225L47.742 11h1.405l.651-.457-2.598-.49zm-30.584.04c-.158.12-.32.234-.476.356l.214.952s-.99.108-1.562.183C7.64 16.209 4.007 23.643 4 31.975c.225.371.448.725.448.725l2.273 1.345 2.275.616.97 1.225 1.515 1.099.867-.12.648.292v.197l-.864 2.324-.65.982.215.49L11 42.983l2.103 3.552 1.39 1.712.863 1.222-.106 2.573 1.208 1.468-.358 1.553c1.248.86 2.58 1.605 3.964 2.256l.506-.503.323-.856 1.408-.492 1.299-2.693-.541-.733.754-1.523 1.424-.369.962-1.537-.311-2.444 1.977-1.838.218-1.837c-1.776-.881-4.019-1.787-5.782-2.694l-.867-1.714-1.621-.167-.864-2.024-2.163.244-1.84-2.14-1.95 2.006v.27c-.59-.17-1.313-.19-1.837-.513l-.435-1.225v-1.349l-1.299.124c.108-.858.219-1.714.328-2.57h-.757l-.758.978-.757.367-1.083-.61-.11-1.348.217-1.469 1.624-1.225h1.296l.216-.735 1.624.366 1.05 1.471.218-2.45 2.197-1.711.757-2.35L17 21.973l.867-.707 1.947-.372.973-1.466h-2.92L19.706 18h1.296l1.84-.602.217-.732-.651-.613-.758-.246.22-.733-.542-1.102-1.3.487.217-.979-1.515-.856-1.187 2.081.107.736-1.192.49-.758 1.59-.322-1.468-2.057-.858-.325-1.102L15.7 12.5l1.193-1.102.106-1.345-.648-.37zm21.16.874l-1.567.49-.709-.123h-.003l-.109.735 1.04.49 1.996-.859-.648-.733zm-15.582.923l-.864.613 1.08.735h.867v-.858zm17.093 2.817v.735l.435.49v1.102l-.22 1.468 1.193-.243.864-.859-.757-.733a21.959 21.959 0 0 0-.864-1.96zm-.43 1.468l-.76.246.22 1.345.97-.486zm-14.93 2.207l.324 1.709.648-.977zm28.25 9.545l1.247 1.409 1.46 3.12.864.981-.435 1.1.823.932c-.378.025-.754.052-1.143.052-.689-1.448-1.206-2.897-1.73-4.41l-1.202-1.04-.486-1.777z" fill="#B7BB25"/>
    <path d="M32 4C16.488 4 4 16.488 4 32c0 .113.011.224.018.336C4.369 17.134 16.71 5 32 5c15.29 0 27.63 12.134 27.982 27.336.007-.112.018-.223.018-.336C60 16.488 47.512 4 32 4z" opacity=".2" fill="#F9F5D7"/>
</svg>
