<svg xmlns="http://www.w3.org/2000/svg" width="64" height="64" version="1">
    <path d="M59.958 31.828A28 28 0 0 1 32 59 28 28 0 0 1 4.044 32.172 28 28 0 0 0 4 33a28 28 0 0 0 28 28 28 28 0 0 0 28-28 28 28 0 0 0-.042-1.172z" opacity=".2"/>
    <circle cx="32" cy="32" r="28" fill="#48B9C7"/>
    <path d="M19.939 6.759a28 28 0 0 0-2.19 1.176h.287l.144.467-.412.386 1.763.05.271.636-1.985-.074-.099-.489-1.156-.252a28 28 0 0 0-1.184.848h.692v.462l-.304.405h-1.45v-.06A28 28 0 0 0 5.584 22.81l.153.074v2.338l1.173 2.01.958.147.123-.689-1.13-1.742-.219-1.695h.66l.278 1.744 1.63 2.382-.418.768 1.036 1.59 2.573.64v-.42l1.028.148-.095.736.806.148 1.25.341 1.764 2.016 2.255.17.22 1.842-1.543 1.08-.071 1.646-.222 1.006 2.232 2.8.17.958s.808.221.907.221c.098 0 1.813 1.302 1.813 1.302v5.058l.612.172-.415 2.333 1.028 1.375-.189 2.313 1.36 2.396 1.733 1.515a28 28 0 0 0 .093.016l1.676.03.17-.566-1.288-1.088.073-.542.23-.661.05-.676-.873-.027-.44-.552.724-.7.099-.525-.81-.233.05-.49 1.15-.174 1.754-.845.587-1.08 1.838-2.357-.416-1.843.564-.982 1.69.052 1.137-.905.37-3.557 1.26-1.605.221-1.034-1.151-.37-.76-1.246-2.598-.027-2.059-.788-.096-1.471-.689-1.203-1.862-.027-1.074-1.693-.957-.468-.05.514-1.739.104-.637-.888-1.813-.37-1.495 1.731-2.348-.396-.173-2.658-1.717-.292.69-1.304-.198-.75L13.97 29.1l-1.419-.172-.506-1.114.31-1.144.782-1.443 1.801-.914 3.479-.002-.009 1.063 1.25.583-.098-1.816.9-.91 1.818-1.195.125-.843 1.813-1.892 1.928-1.069-.17-.142 1.305-1.23.478.125.222.276.495-.552.12-.052-.541-.076-.553-.186v-.53l.293-.239h.642l.296.129.254.517.314-.047v-.046l.088.03.905-.137.129-.443.514.128v.482l-.476.328.07.525 1.636.506s.003.008.005.022l.378-.033.024-.711-1.298-.594-.074-.339 1.077-.369.047-1.033-1.124-.687-.074-1.741-1.545.76h-.563l.147-1.326-2.1-.498-.87.659v2.007l-1.563.498-.626 1.31-.681.109v-1.677l-1.47-.202-.734-.479-.296-1.085 2.628-1.543 1.284-.39.131.864.716-.036.055-.435.75-.11.013-.15-.323-.133-.073-.463.921-.076.555-.583.03-.04.009.002.17-.175 1.935-.246.856.73-2.245 1.198 2.857.675.37-.957h1.249l.44-.834-.88-.221V8.209l-2.77-1.23-1.91.221-1.078.566.074 1.375-1.13-.172-.172-.76 1.08-.984-1.96-.096-.564.17-.243.661.733.126-.145.735-1.25.074-.194.49-1.813.052s-.05-1.031-.123-1.031 1.42-.025 1.42-.025l1.08-1.058-.589-.295-.784.763-1.298-.074-.695-.955zm30.354 4.06l-.892.35-.571.624.131.727.703.099.42 1.06 1.212-.489.2 1.417h-.364l-.995-.148-1.102.186-1.067 1.51-1.525.24-.222 1.31.645.15-.186.842-1.514-.303-1.39.303-.295.774.24 1.627.816.383 1.367-.008.924-.082.282-.739 1.444-1.878.951.194.935-.848.175.662 2.303 1.559-.282.377-1.039-.055.4.566.639.14.746-.312-.016-.902.334-.167-.268-.284-1.537-.859-.402-1.14h1.277l.407.404 1.1.952.046 1.148 1.14 1.214.424-1.665.788-.432.147 1.362.771.848.359-.006a28 28 0 0 0-4.158-7.09l-1.857-.016-.126-.422 1.105-.563a28 28 0 0 0-2.625-2.62zm-34.248.29c.055 0 0 .643 0 .643l-1.452.093-.277-.331 1.029-.295s.644-.11.7-.11zm1.766 3.131l.697.167-.24.938-.755.24-.476-.978.774-.367zm1.911 2.226h1.157v.353h.254v.607H19.37l-.66-.183.164-.424.848-.353zm1.726.26l.607.552-.607.148v-.7zm1.334.847l.449.282-.361.298-.356-.298.268-.282zm-3.39.093h.973l-1.248 1.748-.514-.276.109-.736.68-.736zm1.564 0h.99v.588l-.44.285-.55.104v-.977zm1.23.646h.074l1.12.33v.572h-.937l-.257-.372v-.53zm-.462.53v.574l-.421.424h-.938l.148-.642.443-.039.09-.221.678-.096zm29.148 2.434l-3.309.257-1.025.552h-1.313l-.645-.065-1.594.888v1.67l-3.262 2.358.27 1.006h.662l-.172.957-.465.172-.027 2.505 2.819 3.216h1.225l.076-.194h2.204l.635-.591h1.252l.684.689 1.865.194-.246 2.483 2.067 3.658-1.089 2.087.074.982.856.858v2.363l1.127 1.517v1.034A28 28 0 0 0 60 32a28 28 0 0 0-1.19-7.998h-1.392l-1.433-1.07-1.507.148v.922h-.478l-.514-.37-2.614-.664v-1.692z" fill="#7CB668"/>
    <path d="M31.998 4A28 28 0 0 0 4 32a28 28 0 0 0 .018.492A28 28 0 0 1 31.998 5H32a28 28 0 0 1 27.973 27.5 28 28 0 0 0 .025-.5A28 28 0 0 0 32 4h-.002z" opacity=".2" fill="#F9F5D7"/>
    <path d="M63.958 45.848A16 16 0 0 1 48 61a16 16 0 0 1-15.958-14.848A16 16 0 0 0 32 47a16 16 0 0 0 16 16 16 16 0 0 0 16-16 16 16 0 0 0-.042-1.152z" opacity=".2"/>
    <circle cx="48" cy="46" r="16" fill="#F9BD2E"/>
    <path d="M47.966 54L42 46h4v-8h4v8h4z" fill="#322F2E"/>
</svg>
