<svg xmlns="http://www.w3.org/2000/svg" width="64" height="64" version="1">
    <path d="M14.667 15.001c-1.478 0-2.667 1.235-2.667 2.769v30.46c0 1.534 1.189 2.77 2.667 2.77H20v-6h12v6h25.334C58.81 51 60 49.764 60 48.23V17.77c0-1.535-1.19-2.77-2.666-2.77z" opacity=".2"/>
    <path d="M14.667 14.001c-1.478 0-2.667 1.235-2.667 2.769v30.46c0 1.534 1.189 2.77 2.667 2.77H20v-6h12v6h25.334C58.81 50 60 48.764 60 47.23V16.77c0-1.535-1.19-2.77-2.666-2.77z" fill="#7CB668"/>
    <rect width="12" height="12" x="30" y="24" rx="2.4" ry="2.4" fill="#504945"/>
    <path d="M6.023 11.024h3.982v41.981" fill="none" stroke="#151819" stroke-width="4" stroke-linecap="round" stroke-linejoin="round" opacity=".2"/>
    <path d="M6.023 10.024h3.982v41.981" fill="none" stroke="#BDAD93" stroke-width="4" stroke-linecap="round" stroke-linejoin="round"/>
    <g opacity=".2">
        <path d="M34 45h4v8h-4zM40 45h4v8h-4zM46 45h4v8h-4zM52 45h4v8h-4z"/>
    </g>
    <g fill="#FECE4F">
        <path d="M34 44h4v8h-4zM40 44h4v8h-4zM46 44h4v8h-4zM52 44h4v8h-4z"/>
    </g>
    <g fill="#BDAD93">
        <path d="M32 21h2v4h-2zM38 21h2v4h-2zM32 35h2v4h-2zM38 35h2v4h-2zM45 26v2h-4v-2zM45 32v2h-4v-2zM31 26v2h-4v-2zM31 32v2h-4v-2z"/>
    </g>
    <path d="M6.023 8.023a2 2 0 0 0-1.978 2.487 2 2 0 0 1 1.978-1.487h3.983a2 2 0 0 1 2 2v-1a2 2 0 0 0-2-2H6.023zM57.334 14l-42.666.002C13.19 14.002 12 15.236 12 16.77v1c0-1.534 1.19-2.768 2.668-2.768L57.334 15C58.81 15 60 16.235 60 17.77v-1c0-1.535-1.19-2.77-2.666-2.77z" opacity=".2" fill="#F9F5D7"/>
</svg>
