<svg xmlns="http://www.w3.org/2000/svg" width="64" height="64" version="1">
    <path d="M4 56.2v2C4 59.75 5.25 61 6.8 61h50.4c1.55 0 2.8-1.25 2.8-2.8v-2c0 1.55-1.25 2.8-2.8 2.8H6.8C5.25 59 4 57.75 4 56.2z" opacity=".2"/>
    <rect width="56" height="56" x="4" y="4" rx="2.8" ry="2.8" fill="#D79921"/>
    <path d="M31.066 7.962a3 3 0 0 0-2.984 2.344s-1.182 2.516-1.814 6.238c-.006-.002-.016-.005-.02-.008.004.012.016.03.016.035a.094.094 0 0 0-.004.024c-.036-.004-.114-.045-.282-.149.054.033.198.058.27.09-.05-.114-.354-.461-.516-.89a11.787 11.787 0 0 1-.406-1.313c-.305-1.427-.992-2.427-2.45-2.371a3 3 0 0 0-2.802 3.703s.22.983.644 2.106c.426 1.122.728 2.56 2.704 3.78.82.508 1.078.866 1.954 1.134-.228 1.936-.328 3.976-.446 6.074-.014.244.004.496-.008.742-1.584.266-2.662.56-4.118 1.09-3.651 1.33-6.737 3.606-8.342 7.18-.772 1.718-.571 3.632.047 5.09.617 1.456 1.585 2.62 2.687 3.616 2.205 1.994 4.7 3.44 7.726 3.52 2.014.054 3.838-.584 5.582-1.45 1.246 2.196 2.86 3.702 5.258 4.788 4.282 1.942 8.88.188 12.5-2.316 1.81-1.252 3.408-2.39 4.528-4.252 1.118-1.864 1.776-4.226 1.092-6.598-1.066-3.698-3.958-6.324-7.32-8.078.356-.556 1.004-1.536 1.004-1.536 2.274-3.47-3.114-6.729-5.132-3.104 0 0-1.406 1.852-1.794 2.448a33.485 33.485 0 0 0-5.906-.866c-.44-.026-1.47.048-1.912.038.112-1.992.302-3.938.524-5.788 1.048-.05 2.68-.146 3.662-.246a54.89 54.89 0 0 0 6.702-1.122c4.022-.863 2.548-6.912-1.42-5.828 0 0-2.692.654-5.892.98-.51.053-1.236.06-1.758.079.568-3.286 1.278-5.45 1.278-5.45a3 3 0 0 0-2.852-3.734zm1.328 27.06c.776.044 1.502.228 2.262.336-.314.386-.242.394-.574.78-.734.858-2.174 1.476-2.968 2.282-.13-1.114-.29-2.166-.336-3.368.344.008 1.274-.05 1.616-.03zm-7.622.624c.106 2.508.976 4.972 1.51 7.29-1.242.65-2.388 1.088-3.2 1.066-.744-.02-2.824-.852-4.062-1.972-.62-.562-1.04-1.162-1.188-1.512-.148-.35-.094-.288-.094-.29.721-1.604 2.454-3.028 5.122-4 .746-.272 1.06-.396 1.912-.582zm16.162 1.398c.222.102.512.156.722.262 2.492 1.266 3.978 2.85 4.462 4.528.11.384.07.942-.47 1.84-.54.898-1.564 1.662-2.8 2.516-2.472 1.71-5.67 2.204-6.61 1.778-1.146-.52-2.044-1.412-2.812-2.934 1.842-1.584 3.692-3.214 5.214-4.992.936-1.092 1.506-1.964 2.294-2.998z" fill-rule="evenodd" opacity=".4"/>
    <path d="M6.8 4C5.25 4 4 5.25 4 6.8v1.003c0-1.551 1.25-2.801 2.8-2.801h50.4c1.55 0 2.8 1.25 2.8 2.8V6.802C60 5.25 58.75 4 57.2 4H6.8z" opacity=".2" fill="#F9F5D7"/>
</svg>
