<svg xmlns="http://www.w3.org/2000/svg" width="64" height="64" version="1">
    <path d="M6 54.398v2A2.598 2.598 0 0 0 8.602 59h46.796A2.598 2.598 0 0 0 58 56.398v-2A2.598 2.598 0 0 1 55.398 57H8.602A2.598 2.598 0 0 1 6 54.398z" opacity=".2"/>
    <path d="M58 55.4V8.6C58 7.16 56.84 6 55.4 6H8.6C7.16 6 6 7.16 6 8.6v46.8C6 56.84 7.16 58 8.6 58h46.8c1.44 0 2.6-1.16 2.6-2.6z" fill="#578D57"/>
    <g transform="matrix(1.99998 0 0 1.99998 0 1)" opacity=".2">
        <path d="M10 25h12v3H10z"/>
        <circle cx="18" cy="21" r="2"/>
        <path d="M14 6h4v4h-4zM19 6h4v4h-4zM24 6h4v4h-4zM4 11h4v4H4zM14 11h4v4h-4zM19 11h4v4h-4z"/>
    </g>
    <path fill="#3A393A" d="M20 50h24v6H20z"/>
    <circle cx="36" cy="42" r="4" fill="#F9F5D7"/>
    <path fill="#F9BD2E" d="M28 12h8v8h-8zM38 12h8v8h-8zM48 12h8v8h-8zM8 22h8v8H8zM28 22h8v8h-8zM38 22h8v8h-8z"/>
    <path d="M8.602 6A2.597 2.597 0 0 0 6 8.602v1A2.597 2.597 0 0 1 8.602 7h46.796A2.597 2.597 0 0 1 58 9.602v-1A2.597 2.597 0 0 0 55.398 6H8.602z" opacity=".1" fill="#F9F5D7"/>
</svg>
