<svg xmlns="http://www.w3.org/2000/svg" width="64" height="64" version="1">
    <path d="M4 56.2v2C4 59.75 5.25 61 6.8 61h50.4c1.55 0 2.8-1.25 2.8-2.8v-2c0 1.55-1.25 2.8-2.8 2.8H6.8C5.25 59 4 57.75 4 56.2z" opacity=".2"/>
    <rect width="56" height="56" x="4" y="4" rx="2.8" ry="2.8" fill="#F9BD2E"/>
    <path d="M6.8 4C5.25 4 4 5.25 4 6.8v1.003c0-1.551 1.25-2.801 2.8-2.801h50.4c1.55 0 2.8 1.25 2.8 2.8V6.802C60 5.25 58.75 4 57.2 4H6.8z" opacity=".2" fill="#F9F5D7"/>
    <path d="M32 13c-7.732 0-14 6.269-14 14 0 3.923 1.623 7.458 4.222 10H22v14h4v2h12v-2h4V37h-.23C44.372 34.458 46 30.926 46 27c0-7.731-6.268-14-14-14zm0 4c5.522 0 10 4.478 10 10a9.98 9.98 0 0 1-3.496 7.598A9.96 9.96 0 0 1 32 37a9.962 9.962 0 0 1-6.394-2.312A9.976 9.976 0 0 1 22 27c0-5.522 4.478-10 10-10zm-6 24h12v2H26v-2zm0 6h12v2H26v-2z" opacity=".2"/>
    <path d="M32 12c-7.732 0-14 6.269-14 14 0 3.923 1.623 7.458 4.222 10H22v14h4v2h12v-2h4V36h-.23C44.372 33.458 46 29.926 46 26c0-7.731-6.268-14-14-14zm0 4c5.522 0 10 4.478 10 10a9.98 9.98 0 0 1-3.496 7.598A9.96 9.96 0 0 1 32 36a9.962 9.962 0 0 1-6.394-2.312A9.976 9.976 0 0 1 22 26c0-5.522 4.478-10 10-10zm-6 24h12v2H26v-2zm0 6h12v2H26v-2z" fill="#F9F5D7"/>
</svg>
