<svg xmlns="http://www.w3.org/2000/svg" width="64" height="64" version="1">
    <rect width="56" height="56" x="4" y="5" rx="16.8" ry="16.8" opacity=".2"/>
    <rect width="56" height="56" x="4" y="4" rx="16.8" ry="16.8" fill="#48B9C7"/>
    <path d="M37.684 18.992c-.133-.002-.23.008-.23.008H29.41c-1.609 0-1.585.076-2.402.976L22 25.492v-5.094c0-.775-.593-1.398-1.332-1.398h-5.336c-.739 0-1.332.623-1.332 1.398v25.203c0 .776.593 1.399 1.332 1.399h5.336C21.407 47 22 46.377 22 45.6v-7.617l3.406-3.75 3.516 11.367c.307 1.388.402 1.399 1.734 1.399h5.746c1.652.08 1.57.093 1.106-1.41L31.77 27.008l6.246-7.114c.768-.78.066-.895-.332-.902zm3.918.008c-.776 0-1.904.806-1.403 1.398l5.602 6.61L40.199 45.6c0 .776.627 1.399 1.403 1.399h7C49.377 47 50 46.377 50 45.6V20.398c0-.775-.623-1.398-1.398-1.398z" opacity=".2"/>
    <path d="M27.007 18.976L16.03 31.068 14.3 34.237l1.075 2.62 3.697 3.354 6.335-6.978 3.514 11.37c.307 1.388.402 1.397 1.734 1.397h5.748c1.651.08 1.57.092 1.105-1.412l-5.74-18.579 6.248-7.116c1.025-1.04-.564-.893-.564-.893H29.41c-1.609 0-1.584.075-2.402.976zM41.6 18h7c.776 0 1.4.624 1.4 1.4v25.2c0 .776-.624 1.4-1.4 1.4h-7c-.775 0-1.4-.624-1.4-1.4l5.6-18.59-5.6-6.61c-.501-.592.625-1.4 1.4-1.4z" fill="#F9F5D7"/>
    <rect width="8" height="28" x="14" y="18" rx="1.333" ry="1.4" fill="#F9F5D7"/>
    <path d="M20.8 4C11.495 4 4 11.494 4 20.8v1C4 12.495 11.494 5 20.8 5h22.4C52.505 5 60 12.494 60 21.8v-1C60 11.495 52.506 4 43.2 4H20.8z" opacity=".2" fill="#F9F5D7"/>
</svg>
