<svg xmlns="http://www.w3.org/2000/svg" width="64" height="64" version="1">
    <path d="M4.05 32c-.011.335-.05.663-.05 1 0 15.512 12.488 28 28 28 15.51 0 27.998-12.488 27.998-28 0-.337-.04-.665-.05-1C59.42 47.043 47.173 59 32 59 16.825 59 4.578 47.042 4.05 32z" opacity=".2"/>
    <rect width="56" height="56" x="4" y="4" rx="27.999" ry="27.999" fill="#665C54"/>
    <path d="M32 4.002C16.488 4.002 4 16.488 4 32c0 .113.011.224.018.336C4.369 17.135 16.71 5 32 5s27.63 12.135 27.982 27.336c.007-.112.018-.223.018-.336A27.938 27.938 0 0 0 32 4.002z" opacity=".1" fill="#F9F5D7"/>
    <circle cx="-32.001" cy="-31.999" r="19.999" transform="matrix(0 -1 -1 0 0 0)" fill="#504945"/>
    <circle cx="-32.001" cy="-31.999" r="16" transform="matrix(0 -1 -1 0 0 0)" fill="#F9BD2E"/>
    <circle cx="-32.001" cy="-31.999" r="8" transform="matrix(0 -1 -1 0 0 0)" fill="#504945"/>
</svg>
