<svg xmlns="http://www.w3.org/2000/svg" width="64" height="64" version="1">
    <path d="M4 53.222v2C4 56.762 5.25 58 6.8 58h50.4c1.55 0 2.8-1.238 2.8-2.778v-2C60 54.762 58.75 56 57.2 56H6.8C5.25 56 4 54.762 4 53.222z" opacity=".2"/>
    <path d="M60 54.222V9.78A2.782 2.782 0 0 0 57.2 7H6.8A2.783 2.783 0 0 0 4 9.779v44.443A2.782 2.782 0 0 0 6.8 57h50.4c1.55 0 2.8-1.239 2.8-2.778z" fill="#066678"/>
    <path d="M15.003 39.001l4-20 2 30 2-28 2 26 2-22 2 14 4-18v24l4-26 4 30 2-22 4 10" opacity=".2" fill="none" stroke="#151819" stroke-width="2" stroke-linecap="round" stroke-linejoin="round"/>
    <path d="M15.003 38l4-20 2 30 2-28 2 26 2-22 2 14 4-18v24l4-26 4 30 2-22 4 10" fill="none" stroke="#F9F5D7" stroke-width="2" stroke-linecap="round" stroke-linejoin="round"/>
    <path d="M6.8 7A2.783 2.783 0 0 0 4 9.777v1A2.783 2.783 0 0 1 6.8 8h50.4C58.75 8 60 9.238 60 10.777v-1A2.782 2.782 0 0 0 57.2 7H6.8z" opacity=".2" fill="#F9F5D7"/>
</svg>
