<svg xmlns="http://www.w3.org/2000/svg" width="64" height="64" version="1">
    <path d="M32 4A29 29 0 0 0 3 33a29 29 0 0 0 29 29h26.1c1.607 0 2.9-1.293 2.9-2.9V6.9C61 5.293 59.707 4 58.1 4z" opacity=".2"/>
    <path d="M32 3A29 29 0 0 0 3 32a29 29 0 0 0 29 29h26.1c1.607 0 2.9-1.293 2.9-2.9V5.9C61 4.293 59.707 3 58.1 3z" fill="#F9F5D7"/>
    <path d="M32.714 15c-.94 0-1.714.678-1.714 1.5v5c0 .822.774 1.5 1.714 1.5h20.572c.94 0 1.714-.678 1.714-1.5v-5c0-.822-.774-1.5-1.714-1.5zM36.773 29C35.8 29 35 29.678 35 30.5v3c0 .822.8 1.5 1.773 1.5h22.454C60.2 35 61 34.322 61 33.5v-3c0-.822-.8-1.5-1.773-1.5z" fill="#A79984" fill-rule="evenodd"/>
    <g fill="#066678">
        <path d="M30.255 32l-10.91 2.727v-5.454z"/>
        <g fill-rule="evenodd">
            <path d="M10.221 27.142c1.821-2.323 5.837-13.683 19.07-8.983 0 0-12.081-1.605-13.486 8.723M9.8 36.472c1.82 2.323 6.258 14.102 19.49 9.401 0 0-12.431.454-13.555-8.478"/>
        </g>
    </g>
    <path d="M14 26c-3.858 0-7 3.142-7 7s3.142 7 7 7 7-3.142 7-7-3.142-7-7-7z" opacity=".2" fill-rule="evenodd"/>
    <path d="M14 25c-3.858 0-7 3.142-7 7s3.142 7 7 7 7-3.142 7-7-3.142-7-7-7z" fill="#066678" fill-rule="evenodd"/>
    <path d="M32.714 41c-.94 0-1.714.678-1.714 1.5v5c0 .822.774 1.5 1.714 1.5h20.572c.94 0 1.714-.678 1.714-1.5v-5c0-.822-.774-1.5-1.714-1.5z" fill="#A79984" fill-rule="evenodd"/>
    <path d="M32 3A29 29 0 0 0 3 32a29 29 0 0 0 .021.408A29 29 0 0 1 32 4h26.102A2.891 2.891 0 0 1 61 6.898v-1A2.891 2.891 0 0 0 58.102 3H32z" opacity=".2" fill="#F9F5D7"/>
    <path d="M32.715 15c-.94 0-1.715.678-1.715 1.5v1c0-.822.775-1.5 1.715-1.5h20.57c.94 0 1.715.678 1.715 1.5v-1c0-.822-.775-1.5-1.715-1.5h-20.57zm4.058 14c-.971 0-1.773.678-1.773 1.5v1c0-.822.802-1.5 1.773-1.5h22.454c.971 0 1.773.678 1.773 1.5v-1c0-.822-.802-1.5-1.773-1.5H36.773zm-4.058 12c-.94 0-1.715.678-1.715 1.5v1c0-.822.775-1.5 1.715-1.5h20.57c.94 0 1.715.678 1.715 1.5v-1c0-.822-.775-1.5-1.715-1.5h-20.57z" opacity=".2" fill-rule="evenodd"/>
    <path d="M31 21.5v1c0 .822.775 1.5 1.715 1.5h20.57c.94 0 1.715-.678 1.715-1.5v-1c0 .822-.775 1.5-1.715 1.5h-20.57c-.94 0-1.715-.678-1.715-1.5zm4 12v1c0 .822.802 1.5 1.773 1.5h22.454c.971 0 1.773-.678 1.773-1.5v-1c0 .822-.802 1.5-1.773 1.5H36.773C35.802 35 35 34.322 35 33.5zm-4 14v1c0 .822.775 1.5 1.715 1.5h20.57c.94 0 1.715-.678 1.715-1.5v-1c0 .822-.775 1.5-1.715 1.5h-20.57c-.94 0-1.715-.678-1.715-1.5z" opacity=".2" fill="#F9F5D7" fill-rule="evenodd"/>
</svg>
