<svg xmlns="http://www.w3.org/2000/svg" width="64" height="64" version="1">
    <path d="M6.8 11S4 11 4 13.75v38.5C4 53.775 5.249 55 6.8 55h50.4c1.551 0 2.8-1.226 2.8-2.75v-38.5c0-1.523-1.249-2.75-2.8-2.75z" opacity=".2"/>
    <path d="M6.8 10S4 10 4 12.75v38.5C4 52.773 5.249 54 6.8 54h50.4c1.551 0 2.8-1.227 2.8-2.75v-38.5c0-1.524-1.249-2.75-2.8-2.75z" fill="#48B9C7"/>
    <circle cx="35" cy="28" r="9" opacity=".2"/>
    <circle cx="35" cy="28" r="6" opacity=".2" fill="#151819"/>
    <path d="M34.957 27c-3.001 0-3.002 2-3.009 4-.02 1.237-.015 3.816.008 7.622.037 6.083.026 7.992-.047 8.254-2.074-.219-5.21-1.057-6.613-2.167-.917-.728-1.828-1.395-2.02-1.48-.806-.358-1.948-.133-2.603.515-.453.448-.621.848-.66 1.566-.031.55-.013.68.155 1.043.107.23.299.537.426.684.128.147 1.874 2.411 3.881 5.035 3.717 4.86 7.415 6.662 8.052 6.843.389.11 20.477.114 20.88.004.183-.05.448-.219.637-.406.265-.263.365-.455.57-1.09.59-1.819 1.178-4.585 1.345-6.121.072-1.786.034-1.854 0-3.301 0-.027-.007-.051-.008-.078.003-1.286.01-2.373 0-2.922.006-2 .01-4-2.986-4-2.703 0-2.954 1.638-2.985 3.426-.005.048-.02.096-.02.144.001-.483.006-1.275 0-1.57.006-2 .007-4-2.99-4-2.685 0-2.951 1.617-2.985 3.39l-.024.012-.004-.129c0-.36.005-1.034 0-1.273.006-2 .007-4-2.99-4-2.276 0-2.823 1.157-2.958 2.59l-.05.012c-.043.015-.008-2.43-.008-5.063 0-1.803.013-2.874 0-3.539.006-2 .007-4-2.994-4z" opacity=".2"/>
    <path d="M34.957 26c-3.001 0-3.002 2-3.009 4-.02 1.236-.015 3.816.008 7.621.037 6.083.026 7.992-.047 8.254-2.074-.219-5.21-1.056-6.613-2.167-.917-.728-1.828-1.395-2.02-1.48-.806-.358-1.948-.133-2.603.515-.453.448-.621.848-.66 1.567-.031.549-.013.679.155 1.043.107.229.299.537.426.683.128.147 1.874 2.412 3.881 5.035 3.717 4.86 7.415 6.662 8.052 6.843.389.111 20.477.115 20.88.004.183-.05.448-.219.637-.406.265-.263.365-.455.57-1.09.59-1.819 1.178-4.584 1.345-6.121.072-1.786.034-1.854 0-3.3 0-.028-.007-.052-.008-.079.003-1.286.01-2.373 0-2.922.006-2 .01-4-2.986-4-2.703 0-2.954 1.638-2.985 3.426-.005.048-.02.096-.02.144.001-.483.006-1.275 0-1.57.006-2 .007-4-2.99-4-2.685 0-2.951 1.617-2.985 3.39l-.024.013-.004-.13c0-.359.005-1.034 0-1.273.006-2 .007-4-2.99-4-2.276 0-2.823 1.158-2.958 2.59l-.05.012c-.043.015-.008-2.43-.008-5.063 0-1.803.013-2.874 0-3.539.006-2 .007-4-2.994-4z" fill="#F9F5D7"/>
    <path d="M6.8 10S4 10 4 12.75v1C4 11 6.8 11 6.8 11h50.4c1.55 0 2.8 1.226 2.8 2.75v-1c0-1.523-1.25-2.75-2.8-2.75z" opacity=".1" fill="#F9F5D7"/>
</svg>
