<svg xmlns="http://www.w3.org/2000/svg" width="64" height="64" version="1">
    <path d="M10 56v2c0 1.662 1.338 3 3 3h38c1.662 0 3-1.338 3-3v-2c0 1.662-1.338 3-3 3H13c-1.662 0-3-1.338-3-3z" opacity=".2"/>
    <path d="M54 57V7c0-1.662-1.338-3-3-3H13c-1.662 0-3 1.338-3 3v50c0 1.662 1.338 3 3 3h38c1.662 0 3-1.338 3-3z" fill="#665C54"/>
    <path d="M14 9v48h36V25.828L33.172 9H14zm24.828 0L50 20.172V9H38.828z" opacity=".1"/>
    <path d="M14 8v48h36V24.828L33.172 8H14zm24.828 0L50 19.172V8H38.828z" fill="#F9F5D7"/>
    <path d="M13 4c-1.662 0-3 1.338-3 3v1c0-1.662 1.338-3 3-3h38c1.662 0 3 1.338 3 3V7c0-1.662-1.338-3-3-3H13z" opacity=".1" fill="#F9F5D7"/>
    <path d="M31.951 29.994l-4.379 15.117-3.252-8.107H18v2.994h4.48l4.38 10.996h1.94l5.21-17.998H43v-3.002zM33.445 38l4.762 6.1L33 51h2.6l3.9-5.232L43.4 51H46l-5.102-6.777L45.748 38H43.15l-3.552 4.555L36.04 38z" opacity=".5"/>
</svg>
