<svg xmlns="http://www.w3.org/2000/svg" width="64" height="64" version="1">
    <path d="M32.024 17.14l-8 4.614L16 26.34v2l8.023-4.586 8-4.613 8 4.613L48 28.34v-2l-7.976-4.586-8-4.613zm-24.02 6.586L8 23.73l.023 8.574v-1.332l-.02-7.246zm0 25.664l-.004 2L16 56l8-4.61v-2L16 54l-7.996-4.61zm47.996 0L48 54l-7.996-4.606L40 51.39 48 56l8-4.61v-2z" opacity=".2"/>
    <path d="M8 50.389l.023-18.417L8 22.728l8.023-4.587L32.024 9l16 9.142L56 22.728V50.39L48 55l-8-4.61.024-9.197L48 36.56v-9.22l-7.976-4.588-8-4.61-8 4.61L16 27.34v9.22l8 4.61v9.221l-8 4.608z" fill="#7CB668"/>
    <path d="M32.023 9l-16 9.14L8 22.73l.002.998 8.021-4.586 16-9.141 16 9.143L56 23.729v-1l-7.977-4.586-16-9.143zm-24 23.637L8 50.389h.002l.021-17.418v-.334zM16 36.56v1l8 4.609v-1l-8-4.61zm32 0l-7.977 4.632L40 50.391l.002.002.021-8.2L48 37.561v-1z" fill="#F9F5D7" opacity=".2"/>
</svg>
