<svg xmlns="http://www.w3.org/2000/svg" width="64" height="64" version="1">
    <path d="M57.958 31.84A26 26 0 0 1 32 57 26 26 0 0 1 6.044 32.16 26 26 0 0 0 6 33a26 26 0 0 0 26 26 26 26 0 0 0 26-26 26 26 0 0 0-.042-1.16z" opacity=".2"/>
    <circle cx="32" cy="32" r="26" fill="#FA4934"/>
    <path d="M29.562 6.1a26.021 26.025 0 0 0-9.418 2.732c.131.417-.021.886-.5 1.301-.324.281-.59.718-.59.974 0 .78.706 1.978 1.268 2.152.749.232.497 1.03-.465 1.472-.444.204-.992.792-1.216 1.306-.225.515-.556 1.023-.735 1.129-.178.105-.325.508-.325.894 0 .54.247.802 1.057 1.126.58.233 1.275.402 1.545.376 1.55-.145 1.658.757.303 2.522-.72.936-1.066 1.172-1.555 1.054-.458-.11-.708.02-.915.473-.22.48-.579.642-1.543.709-.947.066-1.372.258-1.728.778-.259.378-.634.686-.833.686-.2 0-.668.254-1.042.564-.76.632-1.057.695-1.324.282-.352-.546-1.112-.27-2.244.813-1 .959-1.121 1.215-.97 2.046.268 1.48 1.07 2.793 1.987 3.25.8.4.815.443.33.956-.279.295-.757.611-1.062.704-.881.268-.385.603 1.186.803 1.609.204 2.109.788 1.357 1.583-.419.444-.395.526.277.948 1.315.827 2.36.32 1.126-.542-.793-.555-.238-.78.925-.378.927.32 1.11.302 1.66-.173 1.124-.975 2.347.467 1.318 1.555-.654.693-.456 1.529.392 1.644.374.051 1.152.4 1.73.776.578.375 1.208.683 1.398.683.19 0 .726.381 1.192.847.944.944 1.469 1.064 1.735.399.32-.8.192-1.212-.67-2.153-.687-.75-1.802-2.74-1.802-3.218 0-.294 1.134-.044 1.768.39a9.34 9.34 0 0 0 1.428.78c.415.169.844.695 1.04 1.27.307.902.428.981 1.51.981h1.176l.178 2.115c.214 2.543.418 3.058 1.29 3.268.644.155 1.33 1.15 1.33 1.929 0 .207-.463.714-1.027 1.126-.7.511-1.002.946-.956 1.372.059.532-.062.615-.815.56-.486-.037-1.328.134-1.87.378a3.393 3.393 0 0 1-1.988.264c-.75-.134-1.003-.082-1.003.211 0 .216-.262.62-.582.897-.792.687-.465 1.05.75.831.754-.135 1.048-.075 1.178.25.277.691-.425 1.68-1.077 1.517-.413-.104-.611.037-.74.526-.045.173-.126.32-.223.445a26.021 26.025 0 0 0 4.116 1.217c-.13-.25-.277-.475-.421-.577-.671-.474-.222-1.704.7-1.926.94-.226.793-.837-.23-.953-.896-.103-1.85-1.01-1.55-1.474.2-.312 1.058-.267 2.792.144.783.186 1.32-.186 3.133-2.172 1.05-1.15 1.858-1.63 2.745-1.63.337 0 1.543-.31 2.68-.69 2.148-.72 2.987-.693 2.908.09-.165 1.632.886 1.578 2.597-.131.713-.713 1.364-1.228 1.448-1.147.327.314-.261 1.84-.948 2.458-.87.783-.913 1.277-.147 1.67.42.215.598.651.663 1.631l.09 1.337h1.087c.381 0 .697.052.953.15A26.021 26.025 0 0 0 58 32.802c-.398-.851-.37-1.365 0-1.945a26.021 26.025 0 0 0-.117-1.458 8.342 8.342 0 0 0-.757-.01c-1.311.054-2.435-.463-2.435-1.121 0-.14-.465-.712-1.034-1.274-.645-.635-.976-1.197-.879-1.489.088-.265-.102-.693-.437-.983-.326-.283-.595-.739-.595-1.012 0-.436-.277-.49-2.282-.442l-2.281.056.038 2.249c.067 3.94.654 4.963 2.465 4.303.828-.303 2.864-.074 3.443.386.21.166.512.77.673 1.342.161.572.757 1.561 1.327 2.198 1.153 1.29 1.243 1.794.582 3.309-.577 1.322-1.198 1.17-1.075-.264l.091-1.068-.976.183c-.54.102-1.216.501-1.52.895-.431.56-.634.643-.957.386-.226-.18-.41-.558-.41-.839 0-.28-.278-.593-.617-.696-.339-.103-.803-.615-1.032-1.139-.365-.838-.356-1.094.069-2.112.431-1.032.436-1.202.038-1.583-.364-.349-.552-.36-1.032-.074-.481.289-.708.267-1.28-.116-.383-.257-1.05-.468-1.482-.468-.878 0-1.143-.427-1.143-1.84 0-1.305-.779-1.78-2.63-1.609-1.286.118-1.57.034-2.607-.765-.64-.493-1.653-1.68-2.252-2.64a75.523 75.523 0 0 0-1.43-2.23c-.272-.383-.206-.75.325-1.796l.668-1.314-1.413.19c-2.514.34-3.022.666-1.941 1.246.42.225.44.341.114.716-.213.246-.313.635-.221.865.092.23-.024.77-.26 1.202-.234.431-.43 1.036-.439 1.347-.024.97-1.685 1.74-3.534 1.639-2.803-.155-3.03-.11-4.025.813-1.244 1.155-1.405 1.693-.826 2.765.561 1.04 1.557 1.456 3.283 1.37 1.543-.077 1.718.06 1.364 1.08-.3.866-1.307 1.2-1.99.658-.525-.417-2.338-.095-2.894.516-.233.256-.579.927-.767 1.49-.325.97-.42 1.03-1.878 1.171-1.454.141-1.594.095-2.64-.869-1.168-1.076-1.366-1.897-.803-3.314.249-.627.435-.73 1.1-.608 1.32.242 1.84-.217 1.84-1.626 0-.683-.133-1.322-.295-1.418-.162-.096-.295-.458-.295-.806 0-.347-.166-.794-.368-.991-.295-.287-.253-.44.218-.773.324-.228.855-.382 1.18-.343.324.04 1.22-.101 1.992-.31 1.115-.301 1.442-.53 1.593-1.116.286-1.113.985-2.007 1.57-2.007.926 0 .945-2.176.046-5.34-.134-.467-.498-.765-1.145-.925-.522-.13-1.09-.487-1.263-.793-.17-.307-.484-.557-.696-.557-.212 0-.627-.254-.92-.564-.295-.312-.906-.564-1.37-.564-1.1 0-1.117-.757-.028-1.157 1.152-.422 2.944.132 3.377 1.042.588 1.235 1.24.72 1.449-1.146.26-2.308 1.055-2.97 3.565-2.97h1.804l-.79-.791a3.146 3.146 0 0 1-.593-.844zm9.354.818c-.05.046-.1.084-.15.135-.604.616-.887.704-1.82.562-1.629-.249-1.42.407.384 1.2.975.428 1.601.916 1.814 1.41 1.028 2.383 1.736 3.666 2.092 3.797.718.264 1.146-.266 1.306-1.622.183-1.554.71-1.884 1.654-1.034.367.33.879.6 1.138.6.807 0 1.406.324 1.406.762 0 .231.272.787.607 1.238.492.662.827.82 1.748.82 1.13 0 1.824.212 3.24.995.022.012.044.016.066.028a26.021 26.025 0 0 0-13.483-8.89zM6.005 31.872a26.021 26.025 0 0 0-.005.112 26.021 26.025 0 0 0 .508 4.999c.943.384 1.203.232 1.301-.646.05-.453.288-.968.529-1.146.372-.274.305-.414-.458-.935-.493-.336-.98-.925-1.08-1.307-.097-.368-.424-.773-.795-1.077zm8.19 8.603c-.243-.026-.536.105-.861.417-.689.659-.585 1.983.195 2.506.893.599 1.24.424 1.352-.681.14-1.365-.152-2.186-.686-2.242zm4.416 3.934c-.265.009-.558.2-.85.6-.312.425-.397.972-.278 1.804.147 1.023.083 1.241-.452 1.515-.687.352-.834 1.398-.272 1.937.56.536 1.093.396 1.286-.338.274-1.046 1.804-1.17 2.85-.23.446.401.811.604.811.45 0-.153-.464-.71-1.031-1.237-.869-.806-1.03-1.15-1.03-2.188 0-1.466-.449-2.331-1.034-2.313zm-7.252 3.36a26.021 26.025 0 0 0 .602.76 4.724 4.724 0 0 0-.602-.759zm8.77 3.995c-.133.045-.188.21-.188.5 0 .294-.188.603-.417.687-.304.112-.375.464-.257 1.306.022.158.028.284.036.415a26.021 26.025 0 0 0 1.082.556c-.018-.45.065-.98.3-1.644.4-1.127.414-1.41.089-1.606-.305-.186-.513-.26-.645-.214z" opacity=".2"/>
    <path d="M31.999 6A26.001 26 0 0 0 6.043 31.16a26.001 26 0 0 1-.025-.674A26.001 26 0 0 0 6 31a26.001 26 0 0 0 .043 1.16A26.001 26 0 0 1 31.999 7a26.001 26 0 0 1 25.96 24.84A26.001 26 0 0 0 58 31a26.001 26 0 0 0-.025-.496 26.001 26 0 0 1-.016.336A26.001 26 0 0 0 31.999 6z" opacity=".2" fill="#F9F5D7"/>
</svg>
