<svg xmlns="http://www.w3.org/2000/svg" width="64" height="64" version="1">
    <circle cx="32" cy="33" r="29" opacity=".2"/>
    <circle cx="32" cy="32" r="29" fill="#CB241D"/>
    <path d="M32 14c-6.409 0-11.9 5.591-11.9 12h5.8c0-3.19 2.91-6.2 6.1-6.2 3.19 0 6.1 2.612 6.1 5.802a5.663 5.663 0 0 1-1.71 4.086l-3.598 3.656c-2.088 2.117-3.69 5.017-3.69 8.207V42H29v1h6v-1h-.059c.195-3.615 1.736-5.265 3.652-7.207l2.61-2.668a9.226 9.226 0 0 0 2.699-6.523C43.902 19.192 38.409 14 32 14zm-3 34v6h6v-6z" opacity=".2"/>
    <path d="M32 13c-6.409 0-11.9 5.591-11.9 12h5.8c0-3.19 2.91-6.2 6.1-6.2 3.19 0 6.1 2.612 6.1 5.802a5.663 5.663 0 0 1-1.71 4.086l-3.598 3.656c-2.088 2.117-3.69 5.017-3.69 8.207V42H35v-1h-.059c.195-3.615 1.736-5.265 3.652-7.207l2.61-2.668a9.226 9.226 0 0 0 2.699-6.523C43.902 18.192 38.409 13 32 13zm-3 34v6h6v-6z" fill="#F9F5D7"/>
    <path d="M32 3A29 29 0 0 0 3 32a29 29 0 0 0 .018.488A29 29 0 0 1 32 4a29 29 0 0 1 28.975 28.494A29 29 0 0 0 61 32 29 29 0 0 0 32 3z" opacity=".2" fill="#F9F5D7"/>
</svg>
