<svg xmlns="http://www.w3.org/2000/svg" width="64" height="64" version="1">
    <path d="M18 21v39.143C18 61.726 19.249 63 20.8 63h22.4c1.551 0 2.8-1.274 2.8-2.857V21H20.8z" opacity=".2"/>
    <rect width="12" height="12" x="26" y="2" rx="3.021" ry="3.578" fill="#B7BB25"/>
    <path d="M46 20.029c0 7.89-6.268 18.571-14 18.571S18 27.918 18 20.029c0-5.715 6.268-10 14-10s14 4.285 14 10z" fill="#F9F5D7"/>
    <path d="M32 10.027c-7.732 0-14 4.286-14 10 0 .19.019.386.03.58.3-5.5 6.43-9.58 13.97-9.58 7.54 0 13.67 4.08 13.97 9.58.011-.194.03-.39.03-.58 0-5.714-6.268-10-14-10z" opacity=".2" fill="#F9F5D7"/>
    <path d="M18 20v39.143C18 60.726 19.249 62 20.8 62h22.4c1.551 0 2.8-1.274 2.8-2.857V20H20.8z" fill="#B7BB25"/>
    <path d="M24 38.763h16" fill="#3A393A" fill-rule="evenodd" stroke="#3A393A" stroke-width="1.475"/>
    <path d="M23.915 47.25l16.17-16.503M40.085 47.25l-16.17-16.5" fill="#3A393A" fill-rule="evenodd" stroke="#3A393A" stroke-width="1.485"/>
    <ellipse cx="32" cy="34.5" rx="3" ry="4.5" fill="#3A393A"/>
    <ellipse cx="32" cy="42.75" rx="4" ry="5.25" fill="#3A393A"/>
    <path opacity=".4" d="M26 5h3v3h-3z"/>
    <path opacity=".2" d="M18 20h28v1H18z"/>
    <path d="M29.021 2C27.348 2 26 3.596 26 5.578v1C26 4.596 27.348 3 29.021 3h5.958C36.652 3 38 4.596 38 6.578v-1C38 3.596 36.652 2 34.979 2H29.02z" opacity=".1" fill="#F9F5D7"/>
</svg>
