<svg xmlns="http://www.w3.org/2000/svg" width="64" height="64">
    <path d="M31.5 4C15.778 4 3 16.778 3 32.5S15.778 61 31.5 61 60 48.222 60 32.5 47.222 4 31.5 4z" opacity=".2"/>
    <path d="M31.5 3C15.778 3 3 15.778 3 31.5S15.778 60 31.5 60 60 47.222 60 31.5 47.222 3 31.5 3z" fill="#CB241D"/>
    <circle cx="31.5" cy="32.5" r="24.5" opacity=".2"/>
    <path d="M56 31.5c0 3.2-.614 6.257-1.73 9.06-3.602 9.046-12.358 7.515-22.688 7.515-10.413 0-19.39 1.429-22.937-7.731A24.44 24.44 0 0 1 7 31.5C7 17.969 17.969 7 31.5 7S56 17.969 56 31.5z" fill="#3A393A"/>
    <path d="M29.421 11.007l-.86.062.218 3.267.391-.028-.09-1.35.62-.045.842 1.295.458-.034-.951-1.4c.102-.044.199-.105.287-.182a.81.81 0 0 0 .215-.296.948.948 0 0 0 .064-.443c-.021-.311-.128-.534-.324-.673-.193-.142-.484-.201-.87-.173zm.003.361c.255-.019.446.011.574.093.128.08.198.227.212.441.014.204-.033.365-.142.48-.109.112-.291.177-.544.196l-.466.034-.081-1.213zm-2.844.039l-1.685.461.781 3.17 1.688-.46-.086-.35-1.306.355-.282-1.133 1.231-.335-.084-.344-1.23.335-.246-.991 1.306-.355zm-3.554 1.142l-1.585.764 1.297 2.978 1.585-.765-.142-.326-1.228.588-.463-1.063 1.155-.556-.142-.324-1.155.554-.408-.929 1.228-.591zm-3.519 1.898l-.295.224 1.035 1.495c.056.081.119.169.187.261.068.088.129.17.187.247l.133.17-.014.012-2.862-1.165-.369.281 1.836 2.648.293-.225-1.026-1.477a9.13 9.13 0 0 0-.285-.389l-.243-.31.014-.011 2.874 1.168.371-.284zm-3.543 3.596a1.16 1.16 0 0 0-.363.06c-.24.077-.46.238-.664.486-.213.259-.34.518-.379.781-.038.261 0 .518.114.767.112.247.287.478.527.696a2.1 2.1 0 0 0 .742.457c.252.083.499.088.74.012.242-.08.469-.249.681-.506.203-.248.322-.501.36-.761a1.373 1.373 0 0 0-.104-.77 2.095 2.095 0 0 0-.533-.713 1.97 1.97 0 0 0-.747-.449 1.27 1.27 0 0 0-.374-.06zm-.009.398c.274.022.562.17.86.44.297.27.475.548.538.835.063.284-.02.567-.251.847-.23.28-.483.409-.762.386-.28-.024-.57-.17-.867-.44-.298-.27-.475-.549-.533-.832-.061-.286.024-.57.256-.853.231-.279.483-.408.759-.383zm-2.887 2.866l-.575 1.02.195.119.262-.284 2.146 1.335-.114.375.195.123.572-1.017-.195-.123-.257.287-2.146-1.335.112-.378zm-.863 2.807a.721.721 0 0 0-.346.094c-.217.119-.404.377-.555.775l-.304.804L13.896 27l.145-.383-1.127-.472.134-.349c.115-.304.162-.564.142-.776a.908.908 0 0 0-.192-.52 1.045 1.045 0 0 0-.408-.301.954.954 0 0 0-.385-.085zm-.011.432a.619.619 0 0 1 .262.054c.214.089.339.224.374.403.036.179-.001.415-.111.704l-.117.307-1.144-.48.147-.386c.102-.267.221-.445.36-.531a.44.44 0 0 1 .229-.071zM40.5 12l-1.104 5.396L34 18.5l5.396 1.104L40.5 25l1.104-5.396L47 18.5l-5.396-1.104zm5.5 9l-.34 1.66L44 23l1.66.34L46 25l.34-1.66L48 23l-1.66-.34zm-1.5 6l-.254 1.246L43 28.5l1.246.254L44.5 30l.254-1.246L46 28.5l-1.246-.254z" opacity=".2"/>
    <path d="M31.5 31.9a36.029 36.029 0 0 0-22.904 8.264A24.5 24.5 0 0 0 31.5 56a24.5 24.5 0 0 0 22.896-15.865A36.029 36.029 0 0 0 31.5 31.9z" fill="#FECE4F"/>
    <path d="M31.5 31.9a36.029 36.029 0 0 0-22.904 8.264 24.5 24.5 0 0 0 .328.752A36.029 36.029 0 0 1 31.5 32.9a36.029 36.029 0 0 1 22.572 7.993 24.5 24.5 0 0 0 .324-.758A36.029 36.029 0 0 0 31.5 31.9z" opacity=".2" fill="#F9F5D7"/>
    <path d="M23 44v10.447A24.5 24.5 0 0 0 31.5 56a24.5 24.5 0 0 0 8.5-1.541V44z" fill="#CB8819"/>
    <path d="M26 44v11.35a24.5 24.5 0 0 0 5.5.65 24.5 24.5 0 0 0 5.5-.656V44z" fill="#BE4C1D"/>
    <path d="M47 17.5l-5.397 1.103L40.5 24l-1.103-5.397L34 17.5l5.397-1.103L40.5 11l1.103 5.397z" fill="#FECE4F"/>
    <path d="M42.763 17.5l-1.879.384-.384 1.879-.384-1.879-1.879-.384 1.879-.384.384-1.879.384 1.879zM48 22l-1.661.339L46 24l-.339-1.661L44 22l1.661-.339L46 20l.339 1.661zM46 27.5l-1.245.255L44.5 29l-.255-1.245L43 27.5l1.245-.255L44.5 26l.255 1.245z" fill="#F9F5D7"/>
    <path d="M27.255 46.035c-.099.423-.055 1.566 0 1.993.24 1.857 1.393 5.642 1.393 5.642s1.003-3.709 1.197-5.517c.049-.463.169-1.651 0-2.1-.135-.357-.929-.959-.929-.959h-.964s-.62.614-.697.941z" fill="#8F3F71"/>
    <path d="M27.87 46.618c-.052.224-.029.83 0 1.056.127.985.739 2.991.739 2.991s.531-1.966.634-2.924c.026-.246.089-.876 0-1.113-.072-.189-.493-.509-.493-.509h-.511s-.328.326-.369.499z" fill="#F9F5D7"/>
    <path d="M33.054 46.035c-.099.423-.055 1.566 0 1.993.24 1.857 1.393 5.642 1.393 5.642s1.003-3.709 1.196-5.517c.05-.463.169-1.651 0-2.1-.134-.357-.929-.959-.929-.959h-.964s-.62.614-.696.941z" fill="#8F3F71"/>
    <path d="M33.669 46.618c-.052.224-.029.83 0 1.056.127.985.738 2.991.738 2.991s.532-1.966.634-2.924c.027-.246.09-.876 0-1.113-.071-.189-.492-.509-.492-.509h-.511s-.328.326-.369.499z" fill="#F9F5D7"/>
    <path d="M30.367 24l-.01.004-.836.361s-1.095 1.54-2.416 3.49c-1.32 1.951-2.863 4.312-3.755 5.959v.002c-.529.977-1.058 1.965-1.522 2.975v.002a22.682 22.682 0 0 0-.642 1.533 16.37 16.37 0 0 0-.506 1.574c-.576 2.187-.68 6.729-.68 6.729l2.879 1.336s2.901.259 5.049 1.681C30.54 51.377 31.467 54 31.467 54s.926-2.623 3.539-4.354c2.147-1.422 5.049-1.681 5.049-1.681l1.07-.496.004.029L43 46.629s-.104-4.542-.68-6.729c-.561-2.13-1.611-4.129-2.67-6.084-1.784-3.295-6.171-9.451-6.171-9.451l-.836-.361.021.039-.1-.043h-1.097z" opacity=".2"/>
    <path d="M35.006 48.646c2.148-1.422 5.049-1.682 5.049-1.682l2.878-1.335s-.105-4.542-.681-6.729c-.561-2.13-1.61-4.13-2.668-6.085-1.784-3.295-6.174-9.449-6.174-9.449L32.565 23h-2.197l-.845.366s-4.389 6.154-6.174 9.449c-1.058 1.955-2.107 3.955-2.668 6.085-.576 2.187-.68 6.729-.68 6.729l2.877 1.335s2.901.26 5.049 1.682c2.612 1.731 3.54 4.354 3.54 4.354s.927-2.623 3.539-4.354z" fill="#7B6F64"/>
    <path d="M30.358 23.005l-.836.361s-4.389 6.155-6.173 9.45c-1.059 1.954-2.108 3.953-2.669 6.084-.576 2.186-.68 6.729-.68 6.729l1.87.868 1.216-7.973 1.998-6.158zM32.642 23.005l.836.361s4.389 6.155 6.173 9.45c1.059 1.954 2.108 3.953 2.669 6.084.576 2.186.68 6.729.68 6.729l-1.87.868-1.216-7.973-1.998-6.158z" fill="#7B6F64"/>
    <path d="M31.012 23s-.062 3.352-.582 6.098c-.374 1.97-1.409 3.221-2.873 5.537-.894 1.413-1.557 1.876-1.557 3.33v4.31c0 1.323 1.936 3.212 2.738 4.555.73 1.068 1.353 2.348 1.848 3.404.495 1.056.912 2.766.912 2.766s.417-1.71.912-2.766c.495-1.056 1.12-2.336 1.85-3.404.802-1.343 2.74-3.232 2.74-4.555v-4.31c0-1.454-.663-1.917-1.557-3.33-1.464-2.316-2.499-3.567-2.873-5.537-.52-2.746-.582-6.098-.582-6.098h-.49zm.488 11c2.087.772 2.598 2.342 3.436 3.895 0 .783.064 1.567.064 2.351s-.064 1.566-.064 2.35C33.559 44.257 32.313 45.988 31.5 48c-.813-2.012-2.059-3.743-3.436-5.404 0-.784-.064-1.566-.064-2.35s.064-1.568.064-2.351c.838-1.553 1.349-3.123 3.436-3.895z" fill="#8F3F71"/>
    <path d="M29.421 10.007l-.86.062.218 3.267.391-.028-.09-1.35.62-.045.842 1.295.458-.034-.951-1.4c.102-.044.199-.105.287-.182a.81.81 0 0 0 .215-.296.948.948 0 0 0 .064-.443c-.021-.311-.128-.534-.324-.673-.193-.142-.484-.201-.87-.173zm.003.361c.255-.019.446.011.574.093.128.08.198.227.212.441.014.204-.033.365-.142.48-.109.112-.291.177-.544.196l-.466.034-.081-1.213zm-2.844.039l-1.685.461.781 3.17 1.688-.46-.086-.35-1.306.355-.282-1.133 1.231-.335-.084-.344-1.23.335-.246-.991 1.306-.355zm-3.554 1.142l-1.585.764 1.297 2.978 1.585-.765-.142-.326-1.228.588-.463-1.063 1.155-.556-.142-.324-1.155.554-.408-.929 1.228-.591zm-3.519 1.898l-.295.224 1.035 1.495c.056.081.119.169.187.261.068.088.129.17.187.247l.133.17-.014.012-2.862-1.165-.369.281 1.836 2.648.293-.225-1.026-1.477a9.13 9.13 0 0 0-.285-.389l-.243-.31.014-.011 2.874 1.168.371-.284zm-3.543 3.596a1.16 1.16 0 0 0-.363.06c-.24.077-.46.238-.664.486-.213.259-.34.518-.379.781-.038.261 0 .518.114.767.112.247.287.478.527.696a2.1 2.1 0 0 0 .742.457c.252.083.499.088.74.012.242-.08.469-.249.681-.506.203-.248.322-.501.36-.761a1.373 1.373 0 0 0-.104-.77 2.095 2.095 0 0 0-.533-.713 1.97 1.97 0 0 0-.747-.449 1.27 1.27 0 0 0-.374-.06zm-.009.398c.274.022.562.17.86.44.297.27.475.548.538.835.063.284-.02.567-.251.847-.23.28-.483.409-.762.386-.28-.024-.57-.17-.867-.44-.298-.27-.475-.549-.533-.832-.061-.286.024-.57.256-.853.231-.279.483-.408.759-.383zm-2.887 2.866l-.575 1.02.195.119.262-.284 2.146 1.335-.114.375.195.123.572-1.017-.195-.123-.257.287-2.146-1.335.112-.378zm-.863 2.807a.721.721 0 0 0-.346.094c-.217.119-.404.377-.555.775l-.304.804L13.896 26l.145-.383-1.127-.472.134-.349c.115-.304.162-.564.142-.776a.908.908 0 0 0-.192-.52 1.045 1.045 0 0 0-.408-.301.954.954 0 0 0-.385-.085zm-.011.432a.619.619 0 0 1 .262.054c.214.089.339.224.374.403.036.179-.001.415-.111.704l-.117.307-1.144-.48.147-.386c.102-.267.221-.445.36-.531a.44.44 0 0 1 .229-.071z" fill="#F9F5D7"/>
    <path d="M31.5 3C15.778 3 3 15.778 3 31.5c0 .168.009.333.012.5C3.28 16.509 15.945 4 31.5 4s28.22 12.509 28.488 28c.003-.167.012-.332.012-.5C60 15.778 47.222 3 31.5 3z" opacity=".1" fill="#F9F5D7"/>
    <path d="M31.5 7A24.5 24.5 0 0 0 7 31.5a24.5 24.5 0 0 0 .021.59A24.5 24.5 0 0 1 31.5 8a24.5 24.5 0 0 1 24.479 23.91A24.5 24.5 0 0 0 56 31.5 24.5 24.5 0 0 0 31.5 7z" opacity=".1" fill="#F9F5D7"/>
</svg>
