<svg xmlns="http://www.w3.org/2000/svg" width="64" height="64" version="1">
    <path d="M4 56.2v2C4 59.75 5.25 61 6.8 61h50.4c1.55 0 2.8-1.25 2.8-2.8v-2c0 1.55-1.25 2.8-2.8 2.8H6.8C5.25 59 4 57.75 4 56.2z" opacity=".2"/>
    <rect width="56" height="56" x="4" y="4" rx="2.8" ry="2.8" fill="#F9BD2E"/>
    <path d="M10 15v36h8V23.07c1.378.056 2.48.145 3.11.305 1.146.291.993.124 1.476 1.227C23.55 26.808 24 35 24 50.999h8c0-3.03.014-5.515.023-8h7.976v8h8v-8h8v-8h-8v-8h-8v8h-8v.84c-.1-6.53-.526-10.875-2.086-14.441-1.268-2.897-4.044-5.064-6.836-5.773-1.63-.414-3.309-.538-5.078-.586v-.04h-8z" opacity=".2"/>
    <path fill="#F9F5D7" d="M10 14h8v35.999h-8z"/>
    <path d="M14 18c14 0 14 0 14 32" fill="none" stroke="#F9F5D7" stroke-width="8"/>
    <path d="M6.8 4C5.25 4 4 5.25 4 6.8v1.003c0-1.551 1.25-2.801 2.8-2.801h50.4c1.55 0 2.8 1.25 2.8 2.8V6.802C60 5.25 58.75 4 57.2 4H6.8z" opacity=".2" fill="#F9F5D7"/>
    <path d="M40 26v8h-8v8h8v8h8v-8h8v-8h-8v-8h-8z" fill="#F9F5D7"/>
</svg>
