<svg xmlns="http://www.w3.org/2000/svg" width="64" height="64" version="1">
    <circle cx="17" cy="18" r="12" opacity=".2"/>
    <circle cx="33" cy="34" r="26" opacity=".2"/>
    <circle cx="17" cy="17" r="12" fill="#7F7061"/>
    <path d="M15.867 5.064a12 12 0 0 0-4.343 1.26c.06.192-.01.409-.231.6-.15.13-.272.331-.272.45 0 .359.325.911.585.992.345.106.23.475-.215.678-.205.094-.458.365-.56.602-.105.238-.257.472-.34.52-.082.05-.15.235-.15.413 0 .25.114.37.488.52.268.107.588.185.712.173.715-.067.765.349.14 1.163-.332.432-.491.54-.718.486-.21-.05-.325.009-.421.217-.101.222-.267.297-.711.327-.438.031-.633.12-.797.36-.12.174-.293.315-.385.315-.092 0-.308.118-.48.26-.35.292-.488.321-.61.131-.163-.252-.514-.125-1.036.375-.46.442-.517.56-.447.943.124.682.494 1.288.916 1.499.369.184.376.204.153.44-.13.137-.35.282-.49.325-.407.124-.178.278.547.37.742.095.972.364.626.73-.194.205-.183.243.127.438.606.38 1.088.147.52-.251-.366-.256-.11-.36.426-.175.428.149.513.14.765-.08.52-.449 1.083.216.609.718-.302.32-.211.705.18.758.173.023.532.184.798.358.267.172.557.315.645.315.087 0 .334.175.55.39.435.435.677.49.8.184.147-.369.088-.559-.31-.993-.316-.345-.83-1.263-.83-1.483 0-.136.522-.02.815.179.183.125.48.287.659.36.19.078.389.32.48.586.14.416.196.452.695.452h.543l.082.975c.098 1.173.192 1.41.595 1.507.296.072.613.53.613.89 0 .095-.213.329-.474.519-.323.236-.462.436-.44.632.027.246-.029.284-.376.258-.224-.016-.613.062-.863.175a1.566 1.566 0 0 1-.916.122c-.346-.062-.463-.038-.463.097 0 .1-.121.286-.269.414-.365.316-.214.484.346.383.348-.063.484-.035.544.115.128.319-.196.775-.497.7-.19-.048-.282.017-.341.242a.556.556 0 0 1-.103.205 12 12 0 0 0 1.899.561c-.06-.114-.129-.219-.195-.266-.31-.218-.102-.786.323-.888.434-.104.365-.385-.106-.44-.414-.046-.853-.465-.715-.68.093-.143.488-.122 1.288.068.361.085.608-.086 1.445-1.002.484-.53.856-.751 1.265-.751.156 0 .712-.144 1.237-.319.99-.332 1.377-.32 1.34.042-.076.753.409.727 1.198-.061.328-.328.629-.566.668-.529.15.145-.12.849-.437 1.134-.402.361-.422.589-.068.77.193.1.275.3.306.752l.04.617h.502c.176 0 .322.024.44.069a12 12 0 0 0 5.813-9.904c-.183-.392-.17-.63 0-.896a12 12 0 0 0-.054-.673 3.67 3.67 0 0 0-.349-.005c-.605.026-1.122-.213-1.122-.516 0-.064-.215-.329-.477-.588-.298-.292-.45-.552-.406-.686.04-.122-.047-.32-.202-.454-.15-.13-.274-.34-.274-.466 0-.201-.128-.227-1.052-.204l-1.053.025.018 1.038c.032 1.817.302 2.288 1.137 1.984.382-.14 1.321-.034 1.588.178.097.076.236.355.31.619.075.263.35.72.612 1.013.532.595.573.828.268 1.526-.265.61-.552.54-.495-.122l.042-.492-.45.084c-.25.048-.561.231-.701.413-.2.259-.292.296-.442.178a.562.562 0 0 1-.189-.387c0-.13-.128-.273-.284-.32-.157-.048-.37-.284-.476-.526-.168-.386-.164-.504.032-.974.199-.475.2-.554.017-.73-.168-.16-.255-.166-.475-.033-.222.132-.327.123-.591-.054a1.45 1.45 0 0 0-.683-.216c-.405 0-.528-.197-.528-.849 0-.602-.358-.82-1.213-.741-.593.054-.723.015-1.202-.353-.295-.228-.762-.775-1.038-1.218a33.462 33.462 0 0 0-.66-1.027c-.125-.177-.094-.347.15-.829l.308-.606-.651.088c-1.16.157-1.394.307-.896.574.195.104.203.158.053.331-.098.113-.144.292-.102.398.043.106-.011.356-.12.554-.108.2-.198.478-.202.622-.011.447-.777.803-1.63.755-1.293-.071-1.398-.05-1.857.375-.573.533-.647.78-.38 1.275.259.48.718.672 1.514.632.711-.035.792.028.63.498-.14.4-.604.553-.919.304-.242-.193-1.078-.044-1.334.238-.108.117-.267.427-.354.686-.15.448-.194.475-.866.54-.67.066-.736.044-1.218-.4-.538-.496-.63-.875-.37-1.528.115-.29.2-.337.507-.28.609.11.849-.1.849-.75 0-.315-.061-.61-.136-.654-.075-.045-.136-.212-.136-.372s-.077-.366-.17-.457c-.136-.132-.116-.203.101-.356.149-.105.394-.176.544-.158.149.018.562-.047.918-.144.514-.138.666-.243.735-.514.132-.513.454-.926.724-.926.427 0 .436-1.003.021-2.462-.06-.215-.23-.352-.527-.426-.241-.06-.503-.224-.583-.366-.078-.141-.223-.257-.32-.257-.098 0-.29-.117-.425-.26a.986.986 0 0 0-.632-.26c-.507 0-.515-.349-.012-.533.53-.195 1.358.06 1.557.48.271.57.572.332.668-.528.12-1.064.487-1.37 1.644-1.37h.832l-.364-.364a1.45 1.45 0 0 1-.273-.39zm4.314.378c-.024.02-.047.038-.07.062-.278.284-.409.325-.839.259-.751-.115-.654.188.177.553.45.198.739.423.837.65.474 1.1.8 1.691.964 1.751.332.122.529-.123.603-.747.084-.717.327-.87.762-.477.17.152.406.276.525.276.373 0 .648.15.648.352 0 .106.126.363.28.57.228.306.382.379.807.379.521 0 .841.098 1.494.458.01.006.02.007.03.013a12 12 0 0 0-6.218-4.1zM5.002 16.949A12 12 0 0 0 5 17a12 12 0 0 0 .234 2.305c.435.177.555.107.6-.297.024-.21.133-.447.244-.529.172-.126.14-.191-.21-.431-.228-.156-.453-.427-.499-.603-.044-.17-.195-.356-.367-.496zm3.777 3.966c-.112-.011-.247.049-.397.193-.317.303-.27.914.09 1.155.412.276.571.196.624-.314.064-.629-.07-1.008-.317-1.034zm2.037 1.815c-.123.004-.258.091-.393.276-.143.196-.182.448-.127.832.067.471.038.572-.209.699-.317.162-.385.644-.125.893.258.247.504.182.593-.156.126-.483.832-.54 1.314-.106.206.185.374.278.374.208 0-.071-.214-.329-.476-.571-.4-.372-.474-.53-.474-1.01 0-.675-.207-1.074-.477-1.065zm-3.344 1.549a12 12 0 0 0 .277.35 2.14 2.14 0 0 0-.277-.35zm4.043 1.842c-.06.02-.086.097-.086.23 0 .136-.086.279-.192.317-.14.052-.173.214-.119.602.01.073.013.131.017.192a12 12 0 0 0 .5.256c-.01-.208.029-.452.137-.758.184-.52.191-.65.041-.74-.14-.086-.236-.12-.298-.1z" opacity=".2"/>
    <path d="M17 5A12 12 0 0 0 5 17a12 12 0 0 0 .021.404A12 12 0 0 1 17 6a12 12 0 0 1 11.975 11.5A12 12 0 0 0 29 17 12 12 0 0 0 17 5z" opacity=".1" fill="#F9F5D7"/>
    <circle cx="33" cy="33" r="26" fill="#BE4C1D"/>
    <path d="M30.544 7.14a26 26 0 0 0-9.41 2.73c.132.415-.021.885-.5 1.3-.323.28-.589.717-.589.972 0 .78.705 1.976 1.268 2.15.747.232.497 1.03-.465 1.47-.445.204-.992.792-1.216 1.305-.225.515-.555 1.022-.734 1.127-.179.107-.325.509-.325.895 0 .54.247.8 1.056 1.124.58.233 1.274.402 1.544.376 1.548-.146 1.656.757.302 2.52-.718.935-1.064 1.17-1.554 1.052-.457-.109-.706.02-.914.472-.219.48-.577.642-1.54.709-.948.066-1.372.258-1.727.777-.26.378-.635.685-.833.685-.2 0-.668.255-1.041.564-.76.63-1.057.695-1.323.283-.352-.547-1.112-.27-2.242.812-1 .957-1.12 1.213-.97 2.044.268 1.478 1.07 2.79 1.985 3.247.8.4.815.442.33.954-.278.295-.756.611-1.06.703-.881.268-.386.604 1.185.804 1.607.204 2.107.786 1.356 1.58-.419.444-.395.527.277.948 1.313.825 2.357.32 1.124-.543-.792-.555-.238-.781.925-.378.926.32 1.11.303 1.657-.173 1.125-.974 2.347.467 1.318 1.553-.654.693-.456 1.528.392 1.643.374.051 1.151.4 1.729.775.577.375 1.206.683 1.396.683.19 0 .725.38 1.19.846.944.943 1.468 1.062 1.735.398.32-.798.19-1.21-.671-2.15-.685-.75-1.8-2.738-1.8-3.215 0-.294 1.133-.044 1.767.388a9.245 9.245 0 0 0 1.428.78c.413.17.842.695 1.039 1.27.305.901.426.98 1.508.98h1.175l.178 2.112c.213 2.541.417 3.056 1.29 3.266.642.154 1.327 1.149 1.327 1.926 0 .207-.462.714-1.026 1.126-.7.51-1 .945-.954 1.37.058.532-.063.615-.815.56-.485-.037-1.328.133-1.868.377-.641.29-1.335.381-1.987.264-.749-.134-1.002-.082-1.002.211 0 .216-.263.619-.582.897-.79.685-.465 1.048.75.83.754-.136 1.047-.076 1.177.249.277.69-.425 1.678-1.076 1.516-.413-.104-.61.037-.74.525-.044.173-.126.32-.223.445a26 26 0 0 0 4.114 1.215c-.13-.248-.278-.474-.422-.576-.67-.473-.221-1.703.7-1.924.94-.226.792-.836-.23-.953-.895-.101-1.848-1.009-1.55-1.473.202-.31 1.059-.265 2.792.146.782.185 1.317-.187 3.13-2.171 1.05-1.15 1.857-1.628 2.742-1.628.338 0 1.543-.31 2.68-.69 2.144-.719 2.983-.693 2.903.091-.163 1.63.886 1.576 2.595-.133.713-.71 1.364-1.225 1.448-1.145.327.313-.26 1.838-.947 2.456-.87.782-.913 1.276-.147 1.668.418.216.597.651.663 1.63l.088 1.336h1.087c.381 0 .697.052.952.15A26 26 0 0 0 58.96 33.815c-.398-.85-.37-1.364 0-1.942a26 26 0 0 0-.117-1.457 7.92 7.92 0 0 0-.757-.01c-1.31.054-2.432-.462-2.432-1.12 0-.14-.466-.713-1.034-1.273-.645-.634-.975-1.196-.879-1.487.089-.265-.1-.693-.436-.983-.327-.283-.594-.738-.594-1.011 0-.436-.277-.49-2.28-.442l-2.28.056.038 2.247c.068 3.937.654 4.959 2.462 4.3.828-.303 2.863-.075 3.441.384.21.167.513.77.673 1.342.16.57.756 1.56 1.326 2.196 1.151 1.29 1.241 1.792.58 3.305-.575 1.321-1.197 1.17-1.073-.263l.09-1.066-.974.182c-.54.102-1.216.5-1.519.894-.431.56-.633.642-.956.386-.227-.18-.41-.558-.41-.838 0-.281-.278-.593-.616-.696-.34-.103-.803-.614-1.03-1.137-.366-.838-.357-1.094.068-2.11.43-1.031.434-1.202.038-1.582-.364-.349-.553-.36-1.031-.073-.481.287-.709.266-1.28-.117-.382-.256-1.049-.468-1.48-.468-.878 0-1.143-.427-1.143-1.838 0-1.304-.777-1.778-2.628-1.607-1.285.118-1.568.034-2.604-.765-.641-.492-1.653-1.678-2.25-2.637-.599-.96-1.242-1.962-1.43-2.227-.271-.384-.205-.752.324-1.796l.669-1.313-1.412.192c-2.512.339-3.02.664-1.94 1.244.421.225.44.34.115.716-.214.244-.314.633-.221.863.092.229-.025.77-.26 1.2-.234.432-.43 1.036-.439 1.347-.024.968-1.683 1.74-3.532 1.637-2.8-.155-3.027-.11-4.022.812-1.243 1.154-1.403 1.691-.824 2.763.56 1.04 1.556 1.454 3.28 1.368 1.542-.076 1.716.06 1.364 1.08-.3.865-1.307 1.198-1.99.657-.525-.417-2.336-.095-2.89.516-.233.255-.58.926-.768 1.488-.325.97-.42 1.03-1.876 1.17-1.453.141-1.593.094-2.639-.869-1.166-1.074-1.363-1.895-.802-3.31.25-.626.435-.729 1.1-.607 1.318.24 1.838-.217 1.838-1.625 0-.682-.132-1.32-.295-1.417-.16-.096-.294-.457-.294-.804 0-.348-.166-.795-.367-.991-.296-.286-.253-.44.218-.772.322-.228.853-.381 1.178-.342.323.039 1.22-.102 1.99-.31 1.114-.301 1.442-.529 1.593-1.115.286-1.113.984-2.006 1.569-2.006.924 0 .943-2.173.045-5.335-.132-.467-.498-.763-1.143-.923-.522-.13-1.09-.486-1.262-.793-.17-.306-.483-.556-.695-.556-.212 0-.627-.254-.92-.564-.295-.312-.904-.563-1.368-.563-1.099 0-1.117-.757-.028-1.155 1.15-.422 2.942.13 3.375 1.04.586 1.234 1.238.72 1.447-1.145.259-2.305 1.054-2.968 3.562-2.968h1.803l-.79-.79a3.144 3.144 0 0 1-.592-.842zm9.347.817c-.05.046-.1.083-.15.135-.602.615-.886.703-1.818.561-1.628-.248-1.418.407.384 1.198.973.428 1.6.916 1.813 1.41 1.027 2.38 1.734 3.663 2.09 3.793.717.263 1.144-.266 1.304-1.62.184-1.553.709-1.883 1.653-1.033.366.33.878.599 1.137.599.807 0 1.404.324 1.404.762 0 .23.273.786.607 1.236.493.661.827.82 1.747.82 1.13 0 1.823.212 3.237.993.023.012.045.016.067.027a26 26 0 0 0-13.475-8.88zM7.005 32.89A26 26 0 0 0 7 33a26 26 0 0 0 .508 4.995c.942.383 1.202.231 1.3-.645.05-.454.287-.967.528-1.145.372-.274.305-.415-.457-.935-.493-.337-.98-.924-1.08-1.305-.096-.37-.423-.772-.794-1.076zm8.184 8.594c-.243-.025-.536.105-.861.417-.688.658-.584 1.98.195 2.503.893.599 1.238.425 1.35-.68.14-1.363-.151-2.184-.684-2.24zm4.412 3.931c-.265.01-.558.199-.85.6-.31.423-.395.97-.277 1.801.147 1.022.083 1.24-.451 1.515-.688.35-.835 1.396-.272 1.934.56.536 1.092.395 1.285-.338.273-1.045 1.803-1.167 2.848-.229.446.4.81.603.81.45 0-.153-.464-.711-1.031-1.236-.867-.806-1.028-1.15-1.028-2.187 0-1.464-.449-2.328-1.034-2.31zm-7.246 3.357a26 26 0 0 0 .602.759 4.636 4.636 0 0 0-.602-.76zm8.762 3.99c-.131.046-.187.211-.187.501 0 .294-.188.602-.416.685-.305.112-.375.464-.258 1.305.022.158.029.284.037.415a26 26 0 0 0 1.081.555c-.018-.45.064-.979.3-1.642.398-1.125.413-1.408.088-1.605-.305-.185-.513-.259-.645-.213z" opacity=".2"/>
    <circle cx="46" cy="39" r="9" opacity=".2"/>
    <circle cx="46" cy="38" r="9" fill="#D5C3A0"/>
    <path d="M45.15 29.048a9 9 0 0 0-3.257.945c.045.144-.008.307-.173.45-.112.097-.204.249-.204.337 0 .27.244.684.438.744.26.08.172.356-.16.509-.155.07-.344.274-.421.452-.078.178-.193.354-.255.39-.061.037-.112.176-.112.31 0 .186.085.277.366.389.2.08.44.139.534.13.536-.05.573.262.105.872-.25.324-.369.405-.538.364-.158-.037-.245.007-.317.164-.075.166-.2.222-.533.245-.328.023-.475.09-.598.27-.09.13-.22.236-.288.236-.07 0-.231.088-.36.196-.263.218-.366.24-.458.097-.122-.189-.385-.093-.776.281-.346.332-.388.42-.336.708.093.512.37.966.687 1.124.277.138.282.153.114.33a1.028 1.028 0 0 1-.367.244c-.305.092-.133.209.41.278.557.07.73.272.47.547-.145.154-.137.182.096.328.454.285.816.11.389-.188-.274-.192-.082-.27.32-.131.32.111.384.105.574-.06.389-.337.812.162.456.538-.226.24-.158.529.135.569.13.017.4.138.599.268.2.13.418.236.483.236.066 0 .251.132.412.293.327.326.508.368.6.138.111-.276.067-.42-.231-.744-.238-.26-.623-.948-.623-1.113 0-.102.392-.016.611.134a3.2 3.2 0 0 0 .494.27c.143.059.292.24.36.44.106.312.148.339.522.339h.407l.061.731c.074.88.145 1.058.447 1.13.222.054.46.398.46.667 0 .072-.16.247-.356.39-.242.177-.346.327-.33.474.02.184-.022.213-.282.194a1.601 1.601 0 0 0-.647.13c-.222.1-.462.133-.688.092-.259-.046-.347-.028-.347.073 0 .075-.09.214-.201.31-.274.238-.16.363.26.288.26-.047.362-.027.407.086.096.239-.147.58-.372.525-.143-.036-.212.013-.256.181a.415.415 0 0 1-.078.154 9 9 0 0 0 1.424.421.597.597 0 0 0-.146-.2c-.232-.163-.076-.589.243-.665.325-.079.274-.29-.08-.33-.31-.035-.64-.35-.536-.51.07-.107.366-.092.966.05.27.064.456-.064 1.083-.751.364-.398.643-.563.95-.563.116 0 .534-.108.927-.24.742-.248 1.033-.24 1.005.032-.056.564.307.546.898-.046.247-.246.472-.424.502-.396.113.108-.09.636-.328.85-.301.27-.316.442-.051.577.145.075.206.226.23.564l.03.463h.376c.132 0 .241.018.33.052a9 9 0 0 0 4.36-7.428c-.138-.294-.128-.472 0-.672a9 9 0 0 0-.04-.505 2.72 2.72 0 0 0-.262-.003c-.454.019-.842-.16-.842-.388 0-.048-.161-.246-.358-.44-.223-.22-.338-.414-.304-.515.03-.092-.035-.24-.151-.34-.113-.098-.206-.256-.206-.35 0-.151-.096-.17-.79-.153l-.789.019.014.778c.023 1.363.226 1.716.852 1.488.287-.105.99-.025 1.191.133.073.058.177.267.233.465.056.197.262.54.459.76.399.446.43.62.201 1.144-.2.457-.414.405-.372-.091l.032-.37-.338.064a.99.99 0 0 0-.525.31c-.15.193-.22.222-.332.133a.422.422 0 0 1-.141-.29c0-.097-.097-.205-.214-.24-.117-.036-.278-.213-.356-.395-.127-.29-.124-.378.023-.73.15-.357.15-.416.013-.548-.126-.12-.19-.124-.356-.025-.167.1-.246.092-.444-.04a1.087 1.087 0 0 0-.512-.162c-.304 0-.395-.148-.395-.637 0-.45-.27-.615-.91-.556-.445.041-.543.012-.902-.264-.221-.17-.572-.581-.779-.913-.207-.333-.43-.68-.495-.771-.093-.133-.07-.26.113-.622l.231-.454-.488.066c-.87.117-1.046.23-.672.43.146.078.152.118.04.249-.074.084-.109.219-.077.298.032.08-.008.267-.09.416-.08.15-.149.358-.151.466-.009.335-.583.602-1.223.566-.97-.053-1.048-.038-1.392.282-.43.4-.486.585-.286.956.194.36.539.503 1.136.474.533-.027.594.02.472.373-.104.3-.452.415-.689.228-.182-.144-.808-.033-1 .179-.081.088-.2.32-.266.514-.113.336-.145.357-.65.405-.502.05-.551.033-.913-.3-.404-.372-.472-.656-.278-1.146.087-.217.15-.252.381-.21.456.083.636-.075.636-.563 0-.236-.045-.457-.102-.49-.055-.033-.101-.158-.101-.279a.548.548 0 0 0-.128-.342c-.102-.1-.087-.153.076-.268a.692.692 0 0 1 .408-.118c.112.013.422-.035.688-.108.386-.104.5-.182.552-.385.099-.386.34-.695.543-.695.32 0 .327-.752.015-1.846-.045-.162-.172-.265-.395-.32-.181-.045-.378-.168-.437-.274-.059-.106-.167-.193-.24-.193-.074 0-.218-.088-.319-.195a.74.74 0 0 0-.474-.195c-.38 0-.386-.262-.01-.4.4-.146 1.02.045 1.169.36.203.427.428.25.5-.396.09-.798.366-1.027 1.234-1.027h.624l-.274-.274a1.088 1.088 0 0 1-.204-.292zm3.235.283l-.051.047c-.21.213-.307.243-.63.194-.563-.086-.49.141.133.415.337.148.554.317.628.488.355.824.6 1.268.723 1.313.248.091.396-.092.452-.56.063-.539.245-.653.572-.359.126.115.304.208.393.208.28 0 .486.112.486.264 0 .08.095.272.21.427.171.23.287.284.605.284.391 0 .631.074 1.12.344l.024.01a9 9 0 0 0-4.665-3.075zm-11.383 8.63a9 9 0 0 0-.002.04 9 9 0 0 0 .176 1.728c.326.133.416.08.45-.223.017-.157.1-.335.183-.397.128-.095.105-.143-.159-.323-.17-.117-.339-.32-.373-.452-.034-.128-.147-.267-.275-.373zm2.833 2.975c-.085-.008-.186.037-.298.145-.238.228-.202.685.067.866.31.208.429.147.468-.235.048-.472-.053-.756-.237-.776zm1.527 1.361c-.092.003-.193.069-.294.208-.108.146-.137.336-.096.623.05.354.029.43-.156.525-.238.121-.29.483-.094.67.193.185.378.136.444-.118.095-.362.624-.404.986-.079.154.139.28.209.28.156 0-.053-.16-.246-.356-.428-.3-.28-.356-.398-.356-.757 0-.507-.156-.806-.358-.8zm-2.508 1.162a9 9 0 0 0 .208.263 1.605 1.605 0 0 0-.208-.263zm3.033 1.382c-.046.015-.065.072-.065.173 0 .102-.065.208-.144.237-.106.039-.13.16-.09.452.008.054.01.098.013.143a9 9 0 0 0 .375.192 1.514 1.514 0 0 1 .103-.568c.138-.39.143-.487.03-.556-.105-.064-.176-.09-.222-.073z" opacity=".2"/>
    <path d="M33 7A26 26 0 0 0 7 33a26 26 0 0 0 .018.486A26 26 0 0 1 33 8a26 26 0 0 1 25.975 25.496A26 26 0 0 0 59 33 26 26 0 0 0 33 7z" opacity=".2" fill="#F9F5D7"/>
    <path d="M46 29a9 9 0 0 0-9 9 9 9 0 0 0 .023.363A9 9 0 0 1 46 30a9 9 0 0 1 8.973 8.469A9 9 0 0 0 55 38a9 9 0 0 0-9-9z" opacity=".2" fill="#F9F5D7"/>
</svg>
