<svg xmlns="http://www.w3.org/2000/svg" xmlns:xlink="http://www.w3.org/1999/xlink" width="64" height="64">
    <path opacity=".2" fill-rule="evenodd" d="M32.005 39l9.992 19.987H22.012z"/>
    <g transform="matrix(-1.98324 0 0 1.94844 52.492 44.605)" fill="none">
        <use width="100%" height="100%" xlink:href="#path-2"/>
        <use width="100%" height="100%" xlink:href="#path-2" fill="#F9F5D7"/>
    </g>
    <path d="M22 61l10-22 10 22h5.104c5.52 0 5.52-17.875 6.896-22H10c1.375 4.125 1.313 21.993 6.869 22z" opacity=".2" fill-rule="evenodd"/>
    <path fill="#066678" fill-rule="evenodd" d="M41.997 57.987H22.012L32.005 38z"/>
    <path d="M22 60l10-22 10 22h5.104c5.52 0 5.52-17.875 6.896-22H10c1.375 4.125 1.313 21.993 6.869 22z" fill="#066678" fill-rule="evenodd"/>
    <path d="M7.128 33a1.13 1.156 0 0 0-1.095 1.433l.66 2.763.223.923A1.13 1.156 0 0 0 8.011 39h.945a1.13 1.156 0 0 0 .003 0l14.287-.022a1.13 1.156 0 0 0 .05 0H25a1.13 1.156 0 0 0 .158.022H38.841a1.13 1.156 0 0 0 .158-.022h1.704a1.13 1.156 0 0 0 .051 0L55.041 39a1.13 1.156 0 0 1 .003 0h.945a1.13 1.156 0 0 0 1.095-.881l.223-.923.66-2.763A1.13 1.156 0 0 0 56.872 33H7.128z" opacity=".1" fill-rule="evenodd"/>
    <path d="M21.846 61l-5.793-9.195a.348.348 0 0 1 .073-.452l8.126-6.324L32 39 21.846 61z" opacity=".2" fill-rule="evenodd"/>
    <path d="M21.846 60l-5.793-9.195a.348.348 0 0 1 .073-.452l8.126-6.324L32 38 21.846 60z" fill="#F9F5D7" fill-rule="evenodd"/>
    <path d="M31.95 4.001a8.177 8.177 0 0 1-.283.52c-.071.136-.169.294-.243.432-.51.842-2.06 3.31-5.162 5.23-3.698 2.127-8.896 3.874-13.048 3.819 0 0-6.818 18.357-7.09 18.954-.04.026-.083.058-.124.086h.093c-.002 0-.092.253-.093.252l.017.06h.017c.147-.096.3-.212.449-.313h51.282c.077.048.158.108.235.156v-.028l-.048-.128H58c-.02-.02-.042-.028-.062-.04L50.803 14c-3.944.074-8.468-1.386-11.397-2.928-3.385-1.82-5.613-4.302-6.517-5.744-.021-.04-.05-.088-.07-.13a73.158 73.158 0 0 0-.551-1.088c-.117-.03-.219-.078-.319-.108z" fill="#066678" fill-rule="evenodd"/>
    <path d="M31.95 4.001a8.177 8.177 0 0 1-.283.52c-.071.136-.169.294-.243.432-.51.842-2.06 3.31-5.162 5.23-3.698 2.127-8.896 3.874-13.048 3.819 0 0-6.818 18.357-7.09 18.954-.04.026-.083.058-.124.086h.093c-.002 0-.092.253-.093.252l.017.06h.017c.147-.096.3-.212.449-.313h51.282c.077.048.158.108.235.156v-.028l-.048-.128H58c-.02-.02-.042-.028-.062-.04L50.803 14c-3.944.074-8.468-1.386-11.397-2.928-3.385-1.82-5.613-4.302-6.517-5.744-.021-.04-.05-.088-.07-.13a73.158 73.158 0 0 0-.551-1.088c-.117-.03-.219-.078-.319-.108z" opacity=".3" fill-rule="evenodd"/>
    <path d="M31.95 4.002c-.084.168-.182.35-.282.52-.071.135-.17.294-.244.431a15.62 15.62 0 0 1-5.162 5.229c-3.698 2.127-8.895 3.875-13.047 3.82 0 0-6.819 18.358-7.09 18.955-.04.026-.084.058-.125.086h.094c-.003 0-.094.253-.094.252l.018.059h.017c.141-.093.287-.203.43-.301.813-2.073 6.75-18.051 6.75-18.051 4.152.055 9.35-1.693 13.047-3.82a15.62 15.62 0 0 0 5.162-5.229c.073-.137.173-.296.244-.432.1-.168.198-.351.281-.519.1.03.202.077.319.107.183.353.367.72.55 1.088.021.042.05.09.07.13.905 1.441 3.134 3.924 6.518 5.743 2.93 1.542 7.453 3.004 11.397 2.93l6.773 18.041h.19c.076.048.158.108.234.156v-.027l-.049-.129H58c-.02-.02-.042-.027-.063-.039L50.803 14c-3.944.074-8.468-1.388-11.397-2.93-3.384-1.82-5.613-4.302-6.517-5.744-.021-.04-.05-.087-.07-.129a73.204 73.204 0 0 0-.551-1.088c-.117-.03-.219-.077-.319-.107z" opacity=".1" fill="#F9F5D7" fill-rule="evenodd"/>
    <path d="M58 33.042c-4.103-2.562-8.94-6.936-13.942-12.152a66.71 66.71 0 0 1-11.24-15.693 72.488 72.488 0 0 0-.551-1.089c-.117-.03-.217-.076-.317-.108a8.178 8.178 0 0 1-.284.522c-2.368 4.494-6.003 10.185-11.523 16-5.02 5.292-9.957 9.82-14.143 12.52" fill="#066678" fill-rule="evenodd"/>
    <path d="M31.95 4a8.17 8.17 0 0 1-.284.521c-2.368 4.495-6.003 10.186-11.523 16-5.02 5.293-9.957 9.82-14.143 12.52h1.463c3.852-2.75 8.232-6.83 12.68-11.52 5.52-5.814 9.155-11.505 11.523-16 .1-.168.2-.353.283-.521.1.032.202.077.319.107.183.353.365.722.548 1.09a66.71 66.71 0 0 0 11.24 15.694c4.405 4.592 8.68 8.527 12.44 11.152H58c-4.103-2.562-8.94-6.937-13.943-12.152a66.71 66.71 0 0 1-11.24-15.694c-.184-.368-.366-.737-.55-1.09-.116-.03-.218-.075-.318-.107z" opacity=".1" fill="#F9F5D7" fill-rule="evenodd"/>
    <path d="M7.128 32a1.13 1.156 0 0 0-1.095 1.433l.66 2.763.223.923A1.13 1.156 0 0 0 8.011 38h.945a1.13 1.156 0 0 0 .003 0l14.287-.022a1.13 1.156 0 0 0 .05 0H25a1.13 1.156 0 0 0 .158.022H38.841a1.13 1.156 0 0 0 .158-.022h1.704a1.13 1.156 0 0 0 .051 0L55.041 38a1.13 1.156 0 0 1 .003 0h.945a1.13 1.156 0 0 0 1.095-.881l.223-.923.66-2.763A1.13 1.156 0 0 0 56.872 32H7.128z" fill="#066678" fill-rule="evenodd"/>
    <path d="M42.154 61l5.793-9.195a.348.348 0 0 0-.073-.452l-8.126-6.324L32 39l10.154 22z" opacity=".2" fill-rule="evenodd"/>
    <path d="M42.154 60l5.793-9.195a.348.348 0 0 0-.073-.452l-8.126-6.324L32 38l10.154 22z" fill="#F9F5D7" fill-rule="evenodd"/>
</svg>
