<svg xmlns="http://www.w3.org/2000/svg" width="64" height="64" version="1">
    <path d="M40.393 18.948a5.5 5.5 0 0 0-3.782 1.664l-31 31a5.5 5.5 0 1 0 7.778 7.777l31-31a5.5 5.5 0 0 0-3.996-9.441z" opacity=".2"/>
    <path d="M40.5 23.5l-31 31v0" fill="none" stroke="#8F3F71" stroke-width="11" stroke-linecap="round" stroke-linejoin="round"/>
    <path d="M40.393 17.947a5.5 5.5 0 0 0-3.782 1.664l-31 31a5.5 5.5 0 0 0-1.666 4.487 5.5 5.5 0 0 1 1.666-3.487l31-31a5.5 5.5 0 0 1 3.782-1.664 5.5 5.5 0 0 1 5.636 4.994 5.5 5.5 0 0 0-5.636-5.994z" opacity=".1" fill="#F9F5D7"/>
    <rect width="26.573" height="16.783" x="-15.16" y="37.57" rx="2.797" ry="2.797" transform="rotate(-45)" opacity=".2"/>
    <rect width="26.573" height="16.783" x="-14.46" y="36.86" rx="2.797" ry="2.797" transform="rotate(-45)" fill="#504945"/>
    <circle cx="40.5" cy="24.5" r="19.5" opacity=".2"/>
    <circle cx="40.5" cy="23.5" r="19.5" fill="#7B6F64"/>
    <circle cx="40.5" cy="24.5" r="13.5" opacity=".2"/>
    <circle cx="40.5" cy="23.5" r="13.5" fill="#F9F5D7"/>
    <path d="M41.283 16.002c-2.455.116-6.245 5.279-6.245 5.279l1.366 1.849s8.232-2.883 6.303-6.277c-.361-.636-.857-.878-1.424-.851zm-6.619 5.595s-2.61.954-1.293 2.732c1.4 1.89 2.705-.815 2.705-.815zM44.806 24.019c-2.793.304-7.164 4.22-7.164 4.22l1.127 2.202s9.52-1.321 8.083-5.245c-.36-.981-1.115-1.279-2.046-1.177zm-7.629 4.473s-3.028.46-1.942 2.578c1.155 2.252 3.105-.294 3.105-.294z" fill="#3A393A"/>
    <path d="M40.5 4A19.5 19.5 0 0 0 21 23.5a19.5 19.5 0 0 0 .021.586A19.5 19.5 0 0 1 40.5 5a19.5 19.5 0 0 1 19.479 18.914A19.5 19.5 0 0 0 60 23.5 19.5 19.5 0 0 0 40.5 4z" opacity=".1" fill="#F9F5D7"/>
</svg>
