<svg xmlns="http://www.w3.org/2000/svg" width="64" height="64" version="1">
    <path d="M56.926 20.688c-.357 4.512-2.558 5.878-5.07 7.683L32 41h1.572l18.283-11.629c2.513-1.805 4.714-3.171 5.07-7.683.041.287.045.389.054.501.011-.257.021-.516.021-.793 0 0-.017-.302-.074-.708zM28.602 21C26.282 21 25 22.68 25 25H7v1h18c0-2.32 1.282-4 3.602-4 2.016 0 3.04 1.271 3.273 3.127L32.07 25h-.14c0-2.32-1.009-4-3.328-4zM7 53v1h18v-1H7zm32 0v1h18v-1H39zm0 4l-14 2v1l14-2v-1z" opacity=".2"/>
    <path d="M39 5L25 7v4h-6.8C7 11 7 18 7 18v7h18c0-2.32 1.28-4 3.6-4 2.32 0 3.33 1.68 3.33 4h.14L7.253 41H7v12h18v6l13.999-2v-4h18V41h-25l19.854-12.628C54.597 26.4 57 25 57 19.4c0 0 .4-8.4-15-8.4h-3z" fill="#066678"/>
    <path d="M39 5L25 7v1l14-2V5zm-20.8 6C7 11 7 18 7 18v1s0-7 11.2-7H25v-1h-6.8zM39 11v1h3c12.764 0 14.646 5.712 14.926 7.688.032-.417.074-.818.074-1.29 0 0-.004-.184-.031-.46-.015.249-.025.507-.043.75C56.646 16.712 54.764 11 42 11h-3zm-7.129 14.129L7.254 41H7v1h.254L32.07 26h-.14a6.53 6.53 0 0 0-.059-.871zM33.571 41L32 42h25v-1H33.57z" opacity=".2" fill="#F9F5D7"/>
</svg>
