<svg xmlns="http://www.w3.org/2000/svg" width="64" height="64">
    <g transform="translate(0 -988.362)">
        <circle cx="31.5" cy="1020.862" r="28.5" opacity=".2"/>
        <circle cx="31.5" cy="1019.862" r="28.5" fill="#F9F5D7"/>
        <path d="M32.442 1025.466c3.303 1.087 4.564-.027 4.564-.027-1.86-1.805-2.288-2.284-1.853-3.668.868-2.77.923-3.97.588-5.392-.8-3.403-2.3-3.966-2.3-3.966-.657 2.512-.775 3.072-2.234 3.437-2.802.723-3.83 1.203-4.904 2.173-2.585 2.338-2.26 4.01-2.26 4.01 2.478-.734 3.083-.84 4.064.208 1.431 1.55 2.963 2.773 4.335 3.225z" fill="#FD8019"/>
        <path d="M31.517 997.362a22.21 22.21 0 0 0-11.674 3.297c-.06.037-.116.074-.176.114 15.669 4.251 20.184 11.532 20.738 18.477.32 4.022-2.071 6.049-2.071 6.049 7.418-.673 15.412-8.016 15.412-8.016-1.38-11.144-10.417-19.92-22.23-19.92zm-13.437 4.623c-8.905 6.774-11.938 19.035-6.032 29.326a22.354 22.354 0 0 0 8.671 8.522c.062.034.126.063.187.097-4.174-15.776-.166-23.352 5.535-27.306 3.303-2.291 6.246-1.219 6.246-1.219-4.288-6.126-14.607-9.42-14.607-9.42zm35.905 17.096c-11.495 11.524-20.017 11.819-26.273 8.829-3.623-1.732-4.172-4.83-4.172-4.83-3.13 6.799-.805 17.435-.805 17.435 10.283 4.372 22.355.884 28.261-9.409a22.525 22.525 0 0 0 2.997-11.815c-.001-.07-.007-.14-.008-.21z" fill="#578D57"/>
        <path d="M30.324 1019.93a1.5 1.5 0 1 1 2.351 1.863 1.5 1.5 0 0 1-2.35-1.863" opacity=".2"/>
        <path d="M30.324 1018.93a1.5 1.5 0 1 1 2.351 1.863 1.5 1.5 0 0 1-2.35-1.863" fill="#F9F5D7"/>
        <path d="M31.516 997.362a22.205 22.205 0 0 0-11.672 3.297c-.06.037-.116.074-.176.113.397.108.756.227 1.139.338a22.192 22.192 0 0 1 10.709-2.748c11.499 0 20.347 8.325 22.082 19.045l.148-.125c-1.379-11.143-10.418-19.92-22.23-19.92zm-13.436 4.623c-5.806 4.416-9.093 11.167-9.057 18.182.267-6.653 3.527-12.976 9.057-17.182 0 0 8.973 2.868 13.66 8.225.584.073.948.195.948.195-4.288-6.126-14.608-9.42-14.608-9.42zm35.904 17.096c-11.494 11.524-20.016 11.818-26.271 8.828-3.624-1.731-4.172-4.83-4.172-4.83-1.308 2.84-1.658 6.346-1.629 9.47.053-2.855.46-5.93 1.629-8.47 0 0 .548 3.099 4.172 4.83 6.255 2.99 14.777 2.696 26.271-8.828l.002.037c.003-.276.013-.55.006-.826 0-.07-.006-.142-.008-.211zm-13.57 1.42c-.19 3.188-2.08 4.799-2.08 4.799.304-.028.609-.084.914-.133.613-.952 1.28-2.497 1.166-4.666zm-21.215 7.79c-.101 3.215.334 7.02 1.43 11.49.03.016.06.035.09.052.061.034.126.062.187.096-1.197-4.525-1.703-8.354-1.707-11.637z" opacity=".2"/>
        <path d="M31.5 991.362a28.5 28.5 0 0 0-28.5 28.5 28.5 28.5 0 0 0 .021.582A28.5 28.5 0 0 1 31.5 992.362a28.5 28.5 0 0 1 28.479 27.918 28.5 28.5 0 0 0 .021-.418 28.5 28.5 0 0 0-28.5-28.5z" fill="#F9F5D7" opacity=".2"/>
    </g>
</svg>
