<svg xmlns="http://www.w3.org/2000/svg" width="64" height="64" version="1">
    <rect width="56" height="56" x="4" y="5" rx="2.8" ry="2.8" opacity=".2"/>
    <rect width="56" height="56" x="4" y="4" rx="2.8" ry="2.8" fill="#504945"/>
    <path d="M56 9h-6v6h6zm0 42h-6v6h6zM42 9h-6v6h6zm0 42h-6v6h6zM28 9h-6v6h6zm0 42h-6v6h6zM14 9H8v6h6zm0 42H8v6h6z" opacity=".2"/>
    <path d="M56 8h-6v6h6zm0 42h-6v6h6zM42 8h-6v6h6zm0 42h-6v6h6zM28 8h-6v6h6zm0 42h-6v6h6zM14 8H8v6h6zm0 42H8v6h6z" fill="#F9F5D7"/>
    <path d="M6.8 4C5.25 4 4 5.25 4 6.8v1C4 6.25 5.25 5 6.8 5h50.4C58.75 5 60 6.25 60 7.8v-1C60 5.25 58.75 4 57.2 4H6.8z" opacity=".1" fill="#F9F5D7"/>
    <path d="M30 35c-2.368 3.826-7.612 5.136-11.712 2.926-4.1-2.208-5.505-7.1-3.138-10.926z" opacity=".2"/>
    <path d="M30 34c-2.368 3.826-7.612 5.136-11.712 2.926-4.1-2.208-5.505-7.1-3.138-10.926z" fill="#B7BB25"/>
    <path d="M22.11 29.75V30c-.432 2.205.418 4.84 2.61 7.742l.077-.015c-1.07-2.043-.895-4.32.146-6.452z" fill="#282727"/>
    <path d="M34 35c2.368 3.826 7.612 5.136 11.712 2.926 4.1-2.208 5.505-7.1 3.138-10.926z" opacity=".2"/>
    <path d="M34 34c2.368 3.826 7.612 5.136 11.712 2.926 4.1-2.208 5.505-7.1 3.138-10.926z" fill="#B7BB25"/>
    <path d="M41.89 29.75V30c.432 2.205-.418 4.84-2.61 7.742l-.077-.016c1.07-2.042.895-4.32-.146-6.45z" fill="#282727"/>
</svg>
