<svg xmlns="http://www.w3.org/2000/svg" width="64" height="64" version="1">
    <path d="M60 54.222V9.778A2.782 2.782 0 0 0 57.2 7H6.8A2.783 2.783 0 0 0 4 9.778v44.444A2.782 2.782 0 0 0 6.8 57h50.4c1.551 0 2.8-1.24 2.8-2.778z" fill="#F9BD2E"/>
    <path d="M16 15v32h32V15h-2v2h-2v-2H20v2h-2v-2h-2zm8 4h16v10H24zm-6 2h2v4h-2zm25.999 0h2v4h-2zm-26 8h2v4h-2zm26 0h2v4h-2zm-20 4h16v10H24zm-6 4h2v4h-2zm26 0h2v4h-2zm-26 8h2v2h-2zm26 0h2v2h-2z" fill="#504945"/>
    <path d="M4 54.223v1C4 56.763 5.25 58 6.8 58h50.4c1.55 0 2.8-1.237 2.8-2.777v-1C60 55.763 58.75 57 57.2 57H6.8C5.25 57 4 55.763 4 54.223z" opacity=".2"/>
    <path d="M6.8 7A2.783 2.783 0 0 0 4 9.777v1A2.783 2.783 0 0 1 6.8 8h50.4C58.75 8 60 9.238 60 10.777v-1A2.782 2.782 0 0 0 57.2 7H6.8z" opacity=".2" fill="#F9F5D7"/>
</svg>
