<svg xmlns="http://www.w3.org/2000/svg" width="64" height="64" version="1">
    <rect width="56" height="56" x="4" y="4" rx="28" ry="28" fill="#7CB668"/>
    <path d="M32 4C16.488 4 4 16.488 4 32c0 .114.011.224.018.336C4.369 17.134 16.71 5 32 5s27.63 12.134 27.982 27.336c.007-.112.018-.223.018-.336C60 16.488 47.512 4 32 4z" opacity=".1" fill="#F9F5D7"/>
    <path d="M47.999 17.001s-4.799-.134-9.595 2.266a15.472 15.472 0 0 0-4.397 3.065c-2.155 2.154-5.502 6.121-8.138 9.328h-5.854l-2.665 3.997 4.52 1.222c.013.161.056.39.181.697l-.702 1.545s-.267.533 1.732 2.665c2.132 2.133 2.798 1.865 2.798 1.865l1.657-.751c.248.077.432.104.551.104l1.257 4.645 3.998-2.665V38.95c3.229-2.61 7.19-5.89 9.328-7.959 1.332-1.333 2.398-2.932 3.196-4.397C48.13 21.799 48 17 48 17zM38.67 28.994a2.672 2.672 0 0 1-2.665-2.665 2.671 2.671 0 0 1 2.665-2.665 2.672 2.672 0 0 1 2.665 2.665c0 1.466-1.2 2.665-2.665 2.665zM24.679 44.985c.266.135.4.267.666.4-.266.266-.533.666-.8.933-3.067 3.065-8.528 2.665-8.528 2.665s-.4-5.465 2.665-8.527c.267-.268.667-.532.933-.801.133.266.265.4.4.666-1.999 2.53-1.733 6.397-1.733 6.397s3.864.266 6.397-1.733z" opacity=".2"/>
    <path d="M47.999 16.001s-4.799-.134-9.595 2.266a15.472 15.472 0 0 0-4.397 3.065c-2.155 2.154-5.502 6.121-8.138 9.327h-5.854l-2.665 3.998 4.52 1.222c.013.161.056.39.181.697l-.702 1.544s-.267.534 1.732 2.666c2.132 2.133 2.798 1.865 2.798 1.865l1.657-.751c.248.077.432.104.551.104l1.257 4.645 3.998-2.665V37.95c3.229-2.61 7.19-5.891 9.328-7.96 1.332-1.332 2.398-2.93 3.196-4.397C48.13 20.8 48 16.001 48 16.001zM38.67 27.994a2.672 2.672 0 0 1-2.665-2.665 2.671 2.671 0 0 1 2.665-2.665 2.672 2.672 0 0 1 2.665 2.665c0 1.466-1.2 2.665-2.665 2.665zM24.679 43.985c.266.135.4.267.666.4-.266.266-.533.666-.8.933-3.067 3.065-8.528 2.665-8.528 2.665s-.4-5.465 2.665-8.527c.267-.268.667-.532.933-.801.133.266.265.4.4.666-1.999 2.53-1.733 6.396-1.733 6.396s3.864.267 6.397-1.732z" fill="#F9F5D7"/>
    <path d="M59.982 32.664C59.631 47.866 47.29 60 32 60 16.712 60 4.371 47.868 4.018 32.668c-.007.11-.018.22-.018.332 0 15.512 12.488 28 28 28s28-12.488 28-28c0-.113-.011-.224-.018-.336z" opacity=".2"/>
</svg>
