<svg xmlns="http://www.w3.org/2000/svg" width="64" height="64" version="1">
    <path d="M19 4c-.296 0-.574.058-.844.137C18.43 4.07 18.7 4 19 4zm-3 6.9V39c0 1.662 1.338 3 3 3h38c1.662 0 3-1.338 3-3V10.9z" fill="#F9F5D7"/>
    <path d="M16 39v1c0 1.662 1.338 3 3 3h38c1.662 0 3-1.338 3-3v-1c0 1.662-1.338 3-3 3H19c-1.662 0-3-1.338-3-3z" opacity=".2"/>
    <path d="M4 28.9V57c0 1.662 1.338 3 3 3h38c1.662 0 3-1.338 3-3V28.9z" fill="#F9F5D7"/>
    <path d="M7 22c-1.662 0-3 1.338-3 3v4h44v-4c0-1.662-1.338-3-3-3z" fill="#665C54"/>
    <path d="M19 4c-1.662 0-3 1-3 3v4h44V7c0-1.662-1.338-3-3-3z" fill="#665C54"/>
    <path d="M19 4c-1.662 0-3 1.338-3 3v1c0-1.662 1.338-3 3-3h38c1.662 0 3 1.338 3 3V7c0-1.662-1.338-3-3-3H19z" opacity=".1" fill="#F9F5D7"/>
    <path d="M4 57v1c0 1.662 1.338 3 3 3h38c1.662 0 3-1.338 3-3v-1c0 1.662-1.338 3-3 3H7c-1.662 0-3-1.338-3-3z" opacity=".2"/>
</svg>
