<svg xmlns="http://www.w3.org/2000/svg" width="64" height="64" version="1">
    <rect width="52" height="52" x="-58" y="-58" rx="15.6" ry="15.6" transform="matrix(0 -1 -1 0 0 0)" fill="#3A393A"/>
    <path d="M20.8 5C11.495 5 4 12.494 4 21.8v22.4C4 53.505 11.494 61 20.8 61h22.4C52.505 61 60 53.506 60 44.2V21.8C60 12.495 52.506 5 43.2 5zm0 8h22.4c5.012 0 8.8 3.788 8.8 8.8v22.4c0 5.012-3.788 8.8-8.8 8.8H20.8c-5.012 0-8.8-3.788-8.8-8.8V21.8c0-5.012 3.788-8.8 8.8-8.8z" opacity=".2"/>
    <path d="M20.8 4C11.493 4 4 11.493 4 20.8v1.4c0-9.307 7.493-16.8 16.8-16.8h22.4c9.307 0 16.8 7.493 16.8 16.8v-1.4C60 11.493 52.507 4 43.2 4z" opacity=".1" fill="#F9F5D7"/>
    <circle class="st6" cx="15.7" cy="48.3" r="6.3" fill="#F9BD2E"/>
    <circle class="st9" cx="44" cy="29" r="6" opacity=".2"/>
    <circle class="st9" cx="44" cy="28" r="6" fill="#F9BD2E"/>
    <path d="M20.267 44.872l7.322-5.412M35.395 33.87l6.088-4.06" fill="none" stroke="#7B6F64" stroke-width="4.2" stroke-linecap="round"/>
    <circle class="st13" cx="32" cy="37" r="8" opacity=".2"/>
    <circle class="st13" cx="32" cy="36" r="8" fill="#48B9C7"/>
    <path d="M23 15l5.414 13.536" fill="none" stroke="#7B6F64" stroke-width="4.2" stroke-linecap="round"/>
    <path d="M20.8 4C11.495 4 4 11.494 4 20.8v22.4C4 52.505 11.494 60 20.8 60h22.4C52.505 60 60 52.506 60 43.2V20.8C60 11.495 52.506 4 43.2 4zm0 8h22.4c5.012 0 8.8 3.788 8.8 8.8v22.4c0 5.012-3.788 8.8-8.8 8.8H20.8c-5.012 0-8.8-3.788-8.8-8.8V20.8c0-5.012 3.788-8.8 8.8-8.8z" fill="#066678"/>
    <path d="M20.8 4C11.495 4 4 11.494 4 20.8v1C4 12.495 11.494 5 20.8 5h22.4C52.505 5 60 12.494 60 21.8v-1C60 11.495 52.506 4 43.2 4H20.8zM12 43.2v1c0 5.012 3.788 8.8 8.8 8.8h22.4c5.012 0 8.8-3.788 8.8-8.8v-1c0 5.012-3.788 8.8-8.8 8.8H20.8c-5.012 0-8.8-3.788-8.8-8.8z" opacity=".1" fill="#F9F5D7"/>
    <circle class="st19" cx="23" cy="16" r="7" opacity=".2"/>
    <circle class="st19" cx="23" cy="15" r="7" fill="#F9BD2E"/>
    <circle class="st17" cx="47.001" cy="50" r="7" opacity=".2"/>
    <circle class="st17" cx="47.001" cy="49" r="7" fill="#F9BD2E"/>
    <path d="M23 8a7 7 0 0 0-7 7 7 7 0 0 0 .025.438A7 7 0 0 1 23 9a7 7 0 0 1 6.975 6.492A7 7 0 0 0 30 15a7 7 0 0 0-7-7zm21 14a6 6 0 0 0-6 6 6 6 0 0 0 .027.484A6 6 0 0 1 44 23a6 6 0 0 1 5.977 5.514A6 6 0 0 0 50 28a6 6 0 0 0-6-6zm3 20a7 7 0 0 0-7 7 7 7 0 0 0 .025.438A7 7 0 0 1 47 43a7 7 0 0 1 6.975 6.492A7 7 0 0 0 54 49a7 7 0 0 0-7-7z" opacity=".2" fill="#F9F5D7"/>
    <path d="M37.053 40.86l4.917 4.024" fill="none" stroke="#7B6F64" stroke-width="4.2" stroke-linecap="round"/>
</svg>
