<svg xmlns="http://www.w3.org/2000/svg" width="64" height="64" version="1">
    <rect width="56" height="56" x="4" y="5" rx="3" ry="3" opacity=".2"/>
    <rect width="56" height="56" x="4" y="4" rx="3" ry="3" fill="#C77089"/>
    <path d="M7 4C5.338 4 4 5.338 4 7v1c0-1.662 1.338-3 3-3h50c1.662 0 3 1.338 3 3V7c0-1.662-1.338-3-3-3H7z" opacity=".2" fill="#F9F5D7"/>
    <path d="M40 13v30h6V13zm0 34v6h6v-6z" opacity=".2"/>
    <path d="M40 12v30h6V12zm0 34v6h6v-6z" fill="#F9F5D7"/>
    <path d="M31 13a17 15 0 0 0-17 15 17 15 0 0 0 17 15 17 15 0 0 0 5-.668v-4.535A11 11 0 0 1 31 39a11 11 0 0 1-11-11 11 11 0 0 1 11-11 11 11 0 0 1 5 1.215V13.68a17 15 0 0 0-5-.68z" opacity=".2"/>
    <path d="M31 12a17 15 0 0 0-17 15 17 15 0 0 0 17 15 17 15 0 0 0 5-.668v-4.535A11 11 0 0 1 31 38a11 11 0 0 1-11-11 11 11 0 0 1 11-11 11 11 0 0 1 5 1.215V12.68a17 15 0 0 0-5-.68z" fill="#F9F5D7"/>
</svg>
