<svg xmlns="http://www.w3.org/2000/svg" width="64" height="64" version="1">
    <path d="M56 5s4 0 4 4v48c0 4-4 4-4 4H24L4 41V9c0-4 4-4 4-4z" opacity=".2"/>
    <path d="M56 4s4 0 4 4v48c0 4-4 4-4 4H24L4 40V8c0-4 4-4 4-4z" fill="#8F3F71"/>
    <path d="M4 40h17c1.656 0 3 1.344 3 3v17z" fill="#8F3F71"/>
    <path d="M4 40l1 1h16c1.656 0 3 1.344 3 3v-1c0-1.656-1.344-3-3-3z" opacity=".1" fill="#F9F5D7"/>
    <path d="M32 16a10 10 0 0 0-.875.043 9.333 9.333 0 0 0-.195.023A10 10 0 0 0 22 26a10 10 0 0 0 .004.074A7 7 0 0 0 16 33a7 7 0 0 0 .004.172 6.667 6.667 0 0 0-.004.16A6.667 6.667 0 0 0 22.668 40H40a8 8 0 0 0 8-8 8 8 0 0 0-6.16-7.766 10 10 0 0 0-8.481-8.129 9.333 9.333 0 0 0-.129-.019 10 10 0 0 0-.609-.055A9.333 9.333 0 0 0 32 16zm-.02 3.002c.131.003.261.009.391.019a3 3 0 0 0 .074.004c.138.008.274.021.41.037l.016.002.018.004a3 3 0 0 0 .062.01 6.976 6.976 0 0 1 5.936 5.69 3 3 0 0 0 2.263 2.386 4.974 4.974 0 0 1 3.85 4.85A4.955 4.955 0 0 1 40 37H22.668c-2.06 0-3.666-1.605-3.668-3.664v-.004l.002-.051a3 3 0 0 0 0-.215L19 33.002v-.004a3.97 3.97 0 0 1 3.432-3.955A3 3 0 0 0 25 26.002v-.004a6.962 6.962 0 0 1 6.25-6.949 3 3 0 0 0 .068-.008l.11-.014c.183-.016.368-.023.552-.025z" opacity=".2"/>
    <path d="M32 15a10 10 0 0 0-.875.043 9.333 9.333 0 0 0-.195.023A10 10 0 0 0 22 25a10 10 0 0 0 .004.074A7 7 0 0 0 16 32a7 7 0 0 0 .004.172 6.667 6.667 0 0 0-.004.16A6.667 6.667 0 0 0 22.668 39H40a8 8 0 0 0 8-8 8 8 0 0 0-6.16-7.766 10 10 0 0 0-8.481-8.129 9.333 9.333 0 0 0-.129-.019 10 10 0 0 0-.609-.055A9.333 9.333 0 0 0 32 15zm-.02 3.002c.131.003.261.009.391.019a3 3 0 0 0 .074.004c.138.008.274.021.41.037l.016.002.018.004a3 3 0 0 0 .062.01 6.976 6.976 0 0 1 5.936 5.69 3 3 0 0 0 2.263 2.386 4.974 4.974 0 0 1 3.85 4.85A4.955 4.955 0 0 1 40 36H22.668c-2.06 0-3.666-1.605-3.668-3.664v-.004l.002-.051a3 3 0 0 0 0-.215L19 32.002v-.004a3.97 3.97 0 0 1 3.432-3.955A3 3 0 0 0 25 25.002v-.004a6.962 6.962 0 0 1 6.25-6.949 3 3 0 0 0 .068-.008l.11-.014c.183-.016.368-.023.552-.025z" fill="#066678"/>
    <path d="M8 4S4 4 4 8v1c0-4 4-4 4-4h48s4 0 4 4V8c0-4-4-4-4-4z" opacity=".1" fill="#F9F5D7"/>
</svg>
