<svg xmlns="http://www.w3.org/2000/svg" width="64" height="64" viewBox="-1250 -1050 320 320">
    <path d="M-1090-1025c-21.357 0-39.797 8.747-51.902 22.547-12.105 13.8-18.098 32.028-18.098 50.953V-835h30v-116.5c0-12.575 4.007-23.597 10.652-31.172 6.645-7.575 15.705-12.328 29.348-12.328s22.703 4.753 29.348 12.328c6.645 7.575 10.652 18.597 10.652 31.172V-835h30v-116.5c0-18.925-5.993-37.153-18.098-50.953-12.105-13.8-30.545-22.547-51.902-22.547z" opacity=".2"/>
    <path d="M-1090-745l-92.735-95.916A58.949 60.971 0 1 1-1090-914.515a58.949 60.971 0 1 1 92.734 73.6z" opacity=".2"/>
    <path d="M-1145-840v-116.5c0-31.5 20-58.5 55-58.5s55 27 55 58.5V-840" stroke="#928274" stroke-width="30" fill="none"/>
    <path d="M-1090-750l-92.735-95.916A58.949 60.971 0 1 1-1090-919.515a58.949 60.971 0 1 1 92.734 73.6z" fill="#066678"/>
    <circle cx="-1090" cy="870" r="20" transform="scale(1 -1)" fill="#282727"/>
    <path d="M-1090.667-869.5L-1110-810h40l-20-59.5z" fill="#282727"/>
    <path d="M-1090-1030c-21.357 0-39.79 8.74-51.895 22.54C-1154-993.662-1160-975.43-1160-956.505v5c0-18.925 6-37.157 18.105-50.957 12.105-13.8 30.538-22.539 51.895-22.539s39.79 8.74 51.895 22.54C-1026-988.662-1020-970.43-1020-951.505v-5c0-18.925-6-37.157-18.105-50.957-12.105-13.8-30.538-22.539-51.895-22.539z" fill="#F9F5D7" opacity=".1"/>
    <path d="M-1138.467-949.941a58.949 60.971 0 0 0-61.416 63.271A58.949 60.971 0 0 1-1090-914.512a58.949 60.971 0 0 1 109.883 27.803A58.949 60.971 0 0 0-1090-919.512a58.949 60.971 0 0 0-48.467-30.43z" opacity=".1" fill="#F9F5D7"/>
</svg>
