<svg xmlns="http://www.w3.org/2000/svg" width="64" height="64">
    <circle cx="32" cy="33" r="29" opacity=".2"/>
    <circle cx="32" cy="32" r="29" fill="#504945"/>
    <path d="M32.002 10.424L29 34.037l3.002 23.613L35 34.037zm-14.465 12.25l-2.68.732c-2.198.601-3.92 1.276-5.31 2.23-1.39.953-2.747 2.595-2.522 4.65.224 2.053 1.66 3.267 3.138 4.131 1.479.864 3.312 1.514 5.61 2.078 2.233.548 4.743.944 7.374 1.226L27 57.65V32.548c-9.697-.462-15.829-2.452-15.833-4.761.008-1.364 2.47-2.664 6.788-3.584zm29.22.053l-.437 1.536c4.152.916 6.508 2.19 6.517 3.524-.01 2.308-6.144 4.297-15.837 4.758V57.65l3.857-19.926c2.512-.272 4.917-.647 7.075-1.158 2.33-.553 4.195-1.192 5.702-2.032 1.508-.84 2.943-1.948 3.304-3.964.362-2.015-.93-3.813-2.292-4.802-1.362-.988-3.053-1.67-5.217-2.284z" opacity=".2"/>
    <path d="M32.002 9.424L29 33.037l3.002 23.613L35 33.037z" fill="#8F3F71"/>
    <path d="M17.537 21.673l-2.68.733c-2.198.601-3.92 1.276-5.31 2.23-1.39.953-2.747 2.595-2.522 4.65.224 2.053 1.66 3.267 3.138 4.131 1.479.864 3.312 1.514 5.61 2.078 2.233.548 4.743.944 7.374 1.226L27 56.65V31.548c-9.697-.462-15.829-2.452-15.833-4.761.008-1.364 2.47-2.664 6.788-3.584z" fill="#066678"/>
    <path d="M46.757 21.727l-.437 1.536c4.152.916 6.508 2.19 6.517 3.524-.01 2.308-6.144 4.297-15.837 4.758V56.65l3.857-19.926c2.512-.272 4.917-.647 7.075-1.158 2.33-.553 4.195-1.192 5.702-2.032 1.508-.84 2.943-1.948 3.304-3.964.362-2.015-.93-3.813-2.292-4.802-1.362-.988-3.053-1.67-5.217-2.284z" fill="#BE4C1D"/>
    <path d="M32 3A29 29 0 0 0 3 32a29 29 0 0 0 .018.488A29 29 0 0 1 32 4a29 29 0 0 1 28.975 28.494A29 29 0 0 0 61 32 29 29 0 0 0 32 3z" opacity=".1" fill="#F9F5D7"/>
    <path d="M32.002 9.424L29 33.037l.064.5 2.938-23.113 2.934 23.113.064-.5zm-14.465 12.25l-2.68.732c-2.197.602-3.92 1.275-5.31 2.229-1.39.954-2.746 2.596-2.522 4.65.003.028.013.051.016.078.194-1.621 1.332-2.922 2.506-3.728 1.39-.954 3.113-1.627 5.31-2.229l2.68-.732.162.59c.089-.02.166-.042.256-.06zm29.22.053l-.437 1.537c.094.02.174.043.266.064l.172-.601 2.672.757c2.164.614 3.854 1.295 5.216 2.284 1.088.788 2.114 2.098 2.307 3.617.252-1.94-.987-3.66-2.307-4.617-1.362-.989-3.052-1.67-5.216-2.284zm5.968 5.564c-.835 2.088-6.748 3.826-15.725 4.254v1c9.693-.462 15.826-2.45 15.836-4.758a1.226 1.226 0 0 0-.111-.496zm-41.448.002a1.228 1.228 0 0 0-.109.494c.004 2.31 6.135 4.3 15.832 4.762v-1c-8.979-.428-14.89-2.168-15.723-4.256z" opacity=".1" fill="#F9F5D7"/>
</svg>
