<svg xmlns="http://www.w3.org/2000/svg" width="64" height="64" version="1">
    <rect width="56" height="56" x="4" y="4" rx="28" ry="28" fill="#48B9C7"/>
    <path d="M32 4C16.488 4 4 16.488 4 32c0 .114.011.224.018.336C4.369 17.134 16.71 5 32 5s27.63 12.134 27.982 27.336c.007-.112.018-.223.018-.336C60 16.488 47.512 4 32 4z" opacity=".1" fill="#F9F5D7"/>
    <path d="M59.982 32.664C59.631 47.866 47.29 60 32 60 16.712 60 4.371 47.868 4.018 32.668c-.007.11-.018.22-.018.332 0 15.512 12.488 28 28 28s28-12.488 28-28c0-.113-.011-.224-.018-.336z" opacity=".2"/>
    <path d="M35.001 12c-1.108 0-2 .892-2 2v14.371l-2.125 2.125A10 10 0 0 0 21 22a10 10 0 0 0-10 10 10 10 0 0 0 10 10 10 10 0 0 0 6-2.016V50c0 1.108.892 2 2 2s2-.892 2-2V36.028l2.18-2.18A10 10 0 0 0 43 42a10 10 0 0 0 10-10 10 10 0 0 0-10-10 10 10 0 0 0-6 2.016V14c0-1.108-.892-2-2-2zm-14 14a6 6 0 0 1 6 6 6 6 0 0 1-6 6 6 6 0 0 1-6-6 6 6 0 0 1 6-6zm22 0a6 6 0 0 1 6 6 6 6 0 0 1-6 6 6 6 0 0 1-6-6 6 6 0 0 1 6-6z" opacity=".5"/>
</svg>
