<svg xmlns="http://www.w3.org/2000/svg" width="64" height="64" version="1">
    <path d="M32 3C16.488 3 4 15.488 4 31s12.488 28 28 28 28-12.488 28-28S47.512 3 32 3z" fill="#BDAD93"/>
    <path d="M32 3C16.488 3 4 15.488 4 31c0 .113.011.224.018.336C4.369 16.134 16.71 4 32 4h.002c15.29 0 27.63 12.134 27.982 27.336.007-.112.018-.223.018-.336 0-15.512-12.488-28-28-28H32z" opacity=".2" fill="#F9F5D7"/>
    <path d="M17.362 32.334a14.667 14.558 0 0 1-.029-.776A14.667 14.558 0 0 1 32 17a14.667 14.558 0 0 1 14.666 14.558 14.667 14.558 0 0 1-.028.548A14.667 14.558 0 0 0 32 18.323a14.667 14.558 0 0 0-14.638 14.011z" opacity=".2"/>
    <circle cx="32" cy="31" r="18" fill="#3A393A"/>
    <circle cx="32" cy="-32" r="14" transform="scale(1 -1)" opacity=".2"/>
    <circle cx="32" cy="-31" r="14" transform="scale(1 -1)" fill="#A04A73"/>
    <path d="M59.982 31.664C59.631 46.866 47.29 59 32 59 16.712 59 4.371 46.868 4.018 31.668c-.007.11-.018.22-.018.332 0 15.512 12.488 28 28 28s28-12.488 28-28c0-.113-.011-.224-.018-.336z" opacity=".2"/>
    <circle cx="32" cy="32" r="8" opacity=".2"/>
    <circle cx="32" cy="31" r="8" fill="#C77089"/>
    <circle cx="48" cy="45" r="16" fill="#73C48F"/>
    <path d="M45.982 37l-.178 2.107a6.342 6.285 0 0 0-1.854 1.062l-1.932-.901L40 42.732l1.755 1.207a6.342 6.285 0 0 0-.097 1.06 6.342 6.285 0 0 0 .092 1.065L40 47.268l2.018 3.464 1.928-.9a6.342 6.285 0 0 0 1.858 1.056L45.982 53h4.036l.178-2.107a6.342 6.285 0 0 0 1.853-1.062l1.933.901L56 47.268l-1.755-1.207a6.342 6.285 0 0 0 .097-1.06 6.342 6.285 0 0 0-.092-1.065L56 42.733l-2.018-3.464-1.928.9a6.342 6.285 0 0 0-1.858-1.056L50.018 37h-4.036zM48 42.714a2.306 2.286 0 0 1 2.306 2.285A2.306 2.286 0 0 1 48 47.285 2.306 2.286 0 0 1 45.694 45 2.306 2.286 0 0 1 48 42.714z" fill="#F9F5D7"/>
    <path d="M32.025 45.502A16 16 0 0 0 32 46a16 16 0 0 0 16 16 16 16 0 0 0 16-16 16 16 0 0 0-.018-.492A16 16 0 0 1 48 61a16 16 0 0 1-15.975-15.498z" opacity=".2"/>
</svg>
