<svg xmlns="http://www.w3.org/2000/svg" width="64" height="64" version="1">
    <rect width="24" height="56" x="20" y="4" rx="3" ry="2.8" fill="#F9F5D7"/>
    <rect width="24" height="56" x="20" y="-60" rx="3" ry="2.8" transform="rotate(90)" fill="#F9F5D7"/>
    <rect width="4" height="22" x="31" y="-54" rx="2" ry="2.75" transform="rotate(90)" opacity=".2"/>
    <rect width="4" height="22" x="30" y="10" rx="2" ry="2.75" fill="#3A393A"/>
    <rect width="4" height="22" x="30" y="-54" rx="2" ry="2.75" transform="rotate(90)" fill="#3A393A"/>
    <circle cx="32" cy="33" r="8" opacity=".2"/>
    <circle cx="32" cy="32" r="8" fill="#BE4C1D"/>
    <path d="M4 41v1c0 1.662 1.25 3 2.8 3H20v-1H6.8C5.25 44 4 42.662 4 41zm56 0c0 1.662-1.25 3-2.8 3H44v1h13.2c1.55 0 2.8-1.338 2.8-3v-1zM20 57.2v1c0 1.55 1.338 2.8 3 2.8h18c1.662 0 3-1.25 3-2.8v-1c0 1.55-1.338 2.8-3 2.8H23c-1.662 0-3-1.25-3-2.8z" opacity=".2"/>
    <path d="M23 4c-1.662 0-3 1.25-3 2.8v1C20 6.25 21.338 5 23 5h18c1.662 0 3 1.25 3 2.8v-1C44 5.25 42.662 4 41 4H23zM6.8 20C5.25 20 4 21.338 4 23v1c0-1.662 1.25-3 2.8-3H20v-1H6.8zM44 20v1h13.2c1.55 0 2.8 1.338 2.8 3v-1c0-1.662-1.25-3-2.8-3H44z" opacity=".2" fill="#F9F5D7"/>
</svg>
