<svg xmlns="http://www.w3.org/2000/svg" width="64" height="64" version="1">
    <rect width="44" height="56" x="-54" y="5" rx="2.75" ry="2.8" transform="scale(-1 1)" opacity=".2"/>
    <rect width="44" height="56" x="-54" y="4" rx="2.75" ry="2.8" transform="scale(-1 1)" fill="#F9F5D7"/>
    <circle cx="-38" cy="32" r="18" transform="rotate(-90)" fill="#3A393A"/>
    <circle cx="-39" cy="-32" r="14" transform="matrix(0 -1 -1 0 0 0)" opacity=".2"/>
    <circle cx="-38" cy="-32" r="14" transform="matrix(0 -1 -1 0 0 0)" fill="#F9BD2E"/>
    <circle cx="-38" cy="-32" r="6" transform="matrix(0 -1 -1 0 0 0)" fill="#3A393A"/>
    <circle cx="13" cy="-18" r="3" transform="rotate(90)" fill="#3A393A"/>
    <circle cx="13" cy="-46" r="3" transform="rotate(90)" fill="#3A393A"/>
    <path d="M12.75 4C11.226 4 10 5.25 10 6.8v1C10 6.25 11.226 5 12.75 5h38.5C52.773 5 54 6.25 54 7.8v-1C54 5.25 52.773 4 51.25 4h-38.5z" opacity=".1" fill="#F9F5D7"/>
</svg>
