<svg xmlns="http://www.w3.org/2000/svg" width="64" height="64" version="1">
    <path d="M32.31 5c-2.937.002-5.883.173-8.643.547-4.086.553-7.883 1.508-11.324 2.988-3.933 1.627-6.77 3.939-7.74 6.422-.555 1.456-.41 1.467-.445 1.7-.036.232-.05.364-.063.488-.143 1.085-.09 2.155-.063 3.183 1.925 10.345 6.193 22.375 11.96 29.586 1.73 2.082 3.056 3.463 5.385 5.29 2.283 1.79 4.532 3.172 7.342 4.526.303.147.58.279.824.391.122.056.227.105.371.168.072.032.144.063.309.129.082.033.179.073.41.152.116.04.257.088.547.164.145.039.613.137.614.137l1.43.129c.002 0 1.46-.126 1.781-.2.323-.073.507-.131.657-.179.3-.095.44-.152.559-.2.237-.093.35-.148.46-.198.222-.1.389-.179.575-.27.373-.182.79-.39 1.23-.617 2.99-1.297 5.644-3.593 8.058-5.39.632-.56 1.101-1.042 1.8-1.755l.013-.011c8.396-8.592 12.093-19.8 13.574-31.852.26-2.076-.278-4.284-.571-5.37-.844-2.612-2.71-3.708-4.755-4.946a31.405 31.405 0 0 0-2.985-1.477c-3.442-1.48-7.238-2.435-11.324-2.988-2.995-.406-6.212-.573-9.393-.543C32.707 5.002 32.51 5 32.31 5z" opacity=".2"/>
    <path d="M32.31 4c-2.937.002-5.883.173-8.643.547-4.086.553-7.883 1.508-11.324 2.988-3.933 1.627-6.77 3.939-7.74 6.422-.555 1.456-.41 1.467-.445 1.7-.036.232-.05.364-.063.488-.143 1.085-.09 2.155-.063 3.183 1.925 10.345 6.193 22.375 11.96 29.586 1.73 2.082 3.056 3.463 5.385 5.29 2.283 1.79 4.532 3.172 7.342 4.526.303.147.58.279.824.391.122.056.227.105.371.168.072.032.144.063.309.129.082.033.179.073.41.152.116.04.257.088.547.164.145.039.613.137.614.137l1.43.129c.002 0 1.46-.126 1.781-.2.323-.073.507-.131.657-.179.3-.095.44-.152.559-.2.237-.093.35-.148.46-.198.222-.1.389-.179.575-.27.373-.182.79-.39 1.23-.617 2.99-1.297 5.644-3.593 8.058-5.39.632-.56 1.101-1.042 1.8-1.755l.013-.011c8.396-8.592 12.093-19.8 13.574-31.852.26-2.076-.278-4.284-.571-5.371-.844-2.61-2.71-3.707-4.755-4.945a31.405 31.405 0 0 0-2.985-1.477c-3.442-1.48-7.238-2.435-11.324-2.988-2.995-.406-6.212-.573-9.393-.543C32.707 4.002 32.51 4 32.31 4z" fill="#F9F5D7"/>
    <path d="M32.335 13c-2.616.002-5.261.16-7.573.474-3.499.474-6.647 1.295-9.235 2.408-1.463.63-3.328 1.678-3.422 1.923-.03.082-.078.779-.105 1.548.198 1.61.435 3.18.715 4.709.131.947.516 2.855.893 4.337.532 2.087.876 2.812 1.748 3.677.529.524.931.803 1.727 1.197 1.15.568 2.5.942 4.945 1.368 1.51.264 2.944.607 4.138.99 7.58 2.437 14.254 7.917 14.585 11.98.022.275.054.543.07.595.043.138.52-.283 1.828-1.616C49.46 39.62 52.64 30.44 54 19.353c-.027-.77-.074-1.466-.105-1.548-.094-.245-1.96-1.294-3.422-1.923-2.588-1.113-5.736-1.934-9.235-2.408-2.509-.34-5.409-.498-8.24-.47a63.774 63.774 0 0 0-.663-.004zM19.6 37.226c-.463-.004-.822.022-1.022.08-.173.051-.422.2-.555.334-.37.368-.312.694.305 1.721a45.595 45.595 0 0 0 3.845 5.445c.821.99 3.271 3.405 4.164 4.105 1.978 1.552 3.347 2.394 5.876 3.614.542.261 1.004.475 1.028.475.113 0 2.953-1.458 3.67-1.885 1.256-.746 2.22-1.406 2.467-1.687a3.2 3.2 0 0 0 .404-.645c.35-.762.202-1.78-.409-2.812-2.111-3.562-8.851-7.122-15.78-8.334-1.448-.254-2.973-.403-3.993-.411z" opacity=".2"/>
    <path d="M32.309 4c-2.937.002-5.881.173-8.641.547-4.085.553-7.883 1.508-11.324 2.988-3.934 1.627-6.772 3.939-7.742 6.422-.555 1.456-.41 1.467-.446 1.7-.035.232-.05.364-.062.488-.096.726-.096 1.44-.082 2.144.01-.38.031-.76.082-1.144.013-.124.027-.256.062-.489.036-.232-.11-.243.446-1.699.97-2.483 3.808-4.795 7.742-6.422 3.44-1.48 7.239-2.435 11.324-2.988 2.76-.374 5.704-.545 8.64-.547.2 0 .398.002.594.004 3.18-.03 6.4.137 9.395.543 4.085.553 7.883 1.508 11.324 2.988 1.08.464 2.066.96 2.984 1.477 2.045 1.238 3.91 2.334 4.754 4.945.212.785.545 2.158.616 3.643.08-1.847-.356-3.683-.616-4.643-.843-2.61-2.709-3.707-4.754-4.945a31.388 31.388 0 0 0-2.984-1.477C50.18 6.055 46.382 5.1 42.297 4.547c-2.995-.406-6.214-.573-9.395-.543-.196-.002-.394-.004-.593-.004z" opacity=".2" fill="#F9F5D7"/>
    <path d="M32.335 12c-2.616.002-5.261.16-7.573.474-3.499.474-6.647 1.294-9.235 2.408-1.463.63-3.328 1.678-3.422 1.923-.03.082-.078.779-.105 1.548.198 1.61.435 3.18.715 4.709.131.947.516 2.855.893 4.337.532 2.087.876 2.812 1.748 3.677.529.524.931.803 1.727 1.197 1.15.568 2.5.942 4.945 1.368 1.51.264 2.944.607 4.138.99 7.58 2.437 14.254 7.917 14.585 11.98.022.275.054.543.07.595.043.138.52-.283 1.828-1.616C49.46 38.62 52.64 29.44 54 18.353c-.027-.77-.074-1.466-.105-1.548-.094-.245-1.96-1.294-3.422-1.923-2.588-1.114-5.736-1.934-9.235-2.408-2.509-.34-5.409-.498-8.24-.47a63.774 63.774 0 0 0-.663-.004zM19.6 36.226c-.463-.004-.822.022-1.022.08-.173.051-.422.2-.555.334-.37.368-.312.694.305 1.721a45.595 45.595 0 0 0 3.845 5.445c.821.99 3.271 3.405 4.164 4.105 1.978 1.552 3.347 2.394 5.876 3.614.542.261 1.004.475 1.028.475.113 0 2.953-1.458 3.67-1.885 1.256-.747 2.22-1.406 2.467-1.687a3.2 3.2 0 0 0 .404-.645c.35-.762.202-1.78-.409-2.812-2.111-3.562-8.851-7.122-15.78-8.334-1.448-.254-2.973-.403-3.993-.411z" fill="#066678"/>
    <circle cx="12" cy="15" r="10" opacity=".2"/>
    <circle cx="12" cy="14" r="10" fill="#F9F5D7"/>
    <circle cx="12" cy="15" r="6" opacity=".2"/>
    <circle cx="12" cy="14" r="6" fill="#504945"/>
    <path d="M12 4A10 10 0 0 0 2 14a10 10 0 0 0 .021.586A10 10 0 0 1 12 5a10 10 0 0 1 9.979 9.414A10 10 0 0 0 22 14 10 10 0 0 0 12 4z" opacity=".2" fill="#F9F5D7"/>
</svg>
