<svg xmlns="http://www.w3.org/2000/svg" width="64" height="64" version="1">
    <path d="M41.049 7a1.948 1.948 0 0 0-1.43.592L32.832 15h-3.238c-2.406 0-5.726-.012-8.83.914l-9.62-7.475C9.869 7.513 8 8.41 8 9.971v14.902c-3.337 4.81-5.22 11.051-4.984 16.295v.021c.298 5.253 4.048 9.746 9.431 12.854C17.83 57.151 24.974 59 32.811 59c.874 0 1.738-.019 2.587-.055.29-.012.567-.036.846-.058-.4.02-.811.047-1.197.06l-.049.002h-.008C23.488 58.055 14 50.997 14 45.016c0-.15.019-.29.027-.436v-.008a5.855 5.855 0 0 1-.027-.556c0-5.146 4.87-7.508 13.81-9.28 2.175-.43 9.719 5.768 12.122 5.264 2.1-.44 1.771-6.075 3.738-6.254 2.691-.244.74-2.248 3.258-2.24.879-.248 1.875-.35 2.955-.324 1.423.034 3 .309 4.644.744-1.106-4.87-4.245-8.947-8.56-11.9L42.889 8.421A1.927 1.927 0 0 0 41.049 7zm-4.381 51.857l-.178.014c.059-.005.12-.008.178-.014z" opacity=".2"/>
    <path d="M41.048 6a1.95 1.95 0 0 0-1.43.592L32.831 14h-3.237c-2.406 0-5.726-.013-8.83.913l-9.62-7.473C9.869 6.513 8 7.41 8 8.97v14.903c-3.337 4.809-5.22 11.05-4.984 16.294v.022c.298 5.253 4.048 9.747 9.43 12.854C17.83 56.151 24.976 58 32.812 58c.874 0 1.737-.018 2.587-.054 6.7-.282 10.436-3.227 14.947-5.64 5.083-2.72 3.816-3.927 3.816-9.14 0-4.252 4.261-9.027.568-11.215-.877-5.324-4.147-9.768-8.761-12.926l-3.08-11.603A1.928 1.928 0 0 0 41.049 6z" fill="#FD8019"/>
    <path d="M41.049 6a1.948 1.948 0 0 0-1.43.592L32.832 14h-3.238c-2.406 0-5.726-.012-8.83.914l-9.62-7.475C9.869 6.513 8 7.41 8 8.971v1c0-1.561 1.868-2.458 3.145-1.532l9.619 7.475c3.104-.926 6.424-.914 8.83-.914h3.238l6.787-7.408c.372-.385.89-.6 1.43-.592.868.014 1.62.595 1.84 1.422l3.078 11.603c4.614 3.159 7.885 7.603 8.762 12.926.926.55 1.352 1.262 1.47 2.088.124-1.253-.188-2.328-1.47-3.088-.877-5.323-4.148-9.767-8.762-12.926L42.889 7.422A1.927 1.927 0 0 0 41.049 6zM8 23.873c-3.337 4.81-5.22 11.051-4.984 16.295v.021c0 .016.003.032.004.047.007-5.04 1.836-10.833 4.98-15.363v-1zm46.178 19.99c-.005.101-.018.203-.018.303 0 1.492.094 2.635.123 3.6.059-1-.07-2.252-.105-3.903z" opacity=".2" fill="#F9F5D7"/>
    <path d="M39.603 36.006a19.434 19.434 0 0 0-2.13.108c-2.502.254-3.266.058-3.403 1.419 2.295 1.298 4.371 4.219 5.733 3.955 1.235-.24 2.038-3.56 2.553-5.141-.75-.207-1.657-.331-2.753-.34z" fill="#504945"/>
    <path d="M49.882 32.182c-1.08-.026-2.075.075-2.953.324-2.518-.008-.567 1.995-3.259 2.24-1.967.178-1.638 5.814-3.738 6.254-2.403.504-9.948-5.694-12.122-5.263C18.87 37.509 14 39.87 14 45.017c0 5.98 9.489 13.038 20.99 13.932h.008l.049-.002c.417-.015.862-.044 1.292-.065 6.287-.372 11.836-1.727 16.122-4.02 5.083-2.719 8.493-6.993 8.493-12.206 0-4.24-2.563-7.494-6.238-9.683-1.713-.464-3.356-.755-4.834-.79z" opacity=".2"/>
    <path d="M49.882 31.182c-1.08-.026-2.075.075-2.953.324-2.518-.008-.567 1.995-3.259 2.24-1.967.178-1.638 5.814-3.738 6.254-2.403.504-9.948-5.694-12.122-5.263C18.87 36.509 14 38.87 14 44.017c0 5.98 9.489 13.038 20.99 13.932h.008l.049-.002c.417-.015.862-.044 1.292-.065 6.287-.372 11.836-1.727 16.122-4.02 5.083-2.719 8.493-6.993 8.493-12.206 0-4.24-2.563-7.494-6.238-9.683-1.713-.464-3.356-.755-4.834-.79z" fill="#E6D3A3"/>
    <path d="M49.883 31.182c-1.08-.027-2.076.076-2.955.324-2.517-.008-.567 1.996-3.258 2.24-1.967.179-1.638 5.814-3.738 6.254-2.403.504-9.947-5.695-12.121-5.264C18.869 36.508 14 38.87 14 44.016c0 .184.01.37.027.556.28-4.833 5.108-7.116 13.784-8.836 2.174-.43 9.718 5.768 12.12 5.264 2.101-.44 1.772-6.075 3.739-6.254 2.691-.244.74-2.248 3.258-2.24.879-.248 1.875-.35 2.955-.324 1.478.035 3.12.326 4.832.79 3.524 2.1 6.019 5.181 6.219 9.169.006-.162.021-.322.021-.485 0-4.24-2.565-7.495-6.24-9.683-1.713-.465-3.354-.756-4.832-.791z" opacity=".2" fill="#F9F5D7"/>
    <path d="M47 48.369c-.042 3.623-8.25 6.903-11.7 6.613-6.662-.56-12.473-4.932-9.503-11.982z" opacity=".2"/>
    <ellipse cx="27.053" cy="44.435" rx="6.612" ry="7.844" transform="matrix(.93245 -.3613 .4225 .90636 0 0)" opacity=".2"/>
    <path d="M47 47.369c-.042 3.623-8.25 6.903-11.7 6.613-6.662-.56-12.473-4.932-9.503-11.982z" fill="#F9F5D7"/>
    <ellipse cx="6.646" cy="37.404" rx="6.612" ry="7.844" transform="matrix(.93245 -.3613 .4225 .90636 0 0)" opacity=".2"/>
    <ellipse cx="7.069" cy="36.469" rx="6.612" ry="7.844" transform="matrix(.93245 -.3613 .4225 .90636 0 0)" fill="#F9F5D7"/>
    <circle cx="24" cy="33" r="2" fill="#3A393A"/>
    <ellipse cx="27.477" cy="43.501" rx="6.612" ry="7.844" transform="matrix(.93245 -.3613 .4225 .90636 0 0)" fill="#F9F5D7"/>
    <circle cx="46" cy="32" r="2" fill="#3A393A"/>
</svg>
