<svg xmlns="http://www.w3.org/2000/svg" width="64" height="64" version="1">
    <rect width="56" height="56" x="4" y="5" rx="16.8" ry="16.8" opacity=".2"/>
    <rect width="56" height="56" x="4" y="4" rx="16.8" ry="16.8" fill="#F9BD2E"/>
    <path d="M32 15a18 18 0 0 0-16.926 12H10l4 6 4 6 4-6 4-6h-4.367A12 12 0 0 1 32 21a12 12 0 0 1 11.312 8.036L46 25l3.844 5.766A18 18 0 0 0 32 15.001zm14 12l-4 6-4 6h4.367a12 12 0 0 1-10.368 6 12 12 0 0 1-11.312-8.036L17.999 41l-3.844-5.766A18 18 0 0 0 32 51a18 18 0 0 0 16.926-12h5.073l-4-6-4-6z" opacity=".1"/>
    <path d="M32 14a18 18 0 0 0-16.926 12H10l4 6 4 6 4-6 4-6h-4.367A12 12 0 0 1 32 20a12 12 0 0 1 11.312 8.036L46 24.001l3.844 5.765A18 18 0 0 0 32 14.001zm14 12l-4 6-4 6h4.367a12 12 0 0 1-10.368 6 12 12 0 0 1-11.312-8.036L17.999 40l-3.844-5.766A18 18 0 0 0 32 50a18 18 0 0 0 16.926-12h5.073l-4-6-4-6z" fill="#3A393A"/>
    <path d="M20.8 4C11.494 4 4 11.493 4 20.8v1C4 12.494 11.493 5 20.8 5h22.4C52.506 5 60 12.493 60 21.8v-1C60 11.494 52.507 4 43.2 4H20.8z" fill="#F9F5D7" opacity=".2"/>
</svg>
