<svg xmlns="http://www.w3.org/2000/svg" width="64" height="64" version="1">
    <path d="M54 58.2V7.8A2.8 2.8 0 0 0 51.187 5H11.813A2.8 2.8 0 0 0 9 7.8v50.4a2.8 2.8 0 0 0 2.813 2.8h39.374A2.8 2.8 0 0 0 54 58.2z" opacity=".2"/>
    <path d="M54 57.2V6.8A2.8 2.8 0 0 0 51.187 4H11.813A2.8 2.8 0 0 0 9 6.8v50.4a2.8 2.8 0 0 0 2.813 2.8h39.374A2.8 2.8 0 0 0 54 57.2z" fill="#066678"/>
    <path d="M40.5 10.5c0 4.2-12.375 29-21 29-4.313 0-6-3.7-6-6.5s1.688-6.5 6-6.5c8.68-.03 21 24.8 21 29" opacity=".2" fill="none" stroke="#151819" stroke-width="3" stroke-linecap="round" stroke-linejoin="round"/>
    <path d="M40.5 9.5c0 4.2-12.375 29-21 29-4.313 0-6-3.7-6-6.5s1.688-6.5 6-6.5c8.68-.03 21 24.8 21 29" fill="none" stroke="#F9F5D7" stroke-width="3" stroke-linecap="round" stroke-linejoin="round"/>
    <path d="M46.5 14.5c0 4.052-10 18.5-10 18.5s10.039 14.826 10 18.5" opacity=".2" fill="none" stroke="#151819" stroke-width="3" stroke-linecap="round" stroke-linejoin="round"/>
    <path d="M46.5 13.5c0 4.053-10 18.5-10 18.5s10.039 14.826 10 18.5" fill="none" stroke="#F9F5D7" stroke-width="3" stroke-linecap="round" stroke-linejoin="round"/>
    <path d="M49.5 22.479c-.5 2.5-6 10.5-6 10.5s5.5 8 6 10.5" opacity=".2" fill="none" stroke="#151819" stroke-width="3" stroke-linecap="round" stroke-linejoin="round"/>
    <path d="M49.5 21.5c-.5 2.5-6 10.5-6 10.5s5.5 8 6 10.5" fill="none" stroke="#F9F5D7" stroke-width="3" stroke-linecap="round" stroke-linejoin="round"/>
    <path d="M11.813 4A2.8 2.8 0 0 0 9 6.8v1A2.8 2.8 0 0 1 11.813 5h39.374A2.8 2.8 0 0 1 54 7.8v-1A2.8 2.8 0 0 0 51.187 4H11.813z" fill="#F9F5D7" opacity=".2"/>
</svg>
