<svg xmlns="http://www.w3.org/2000/svg" width="64" height="64" version="1">
    <path d="M4.05 32c-.011.334-.05.662-.05 1 0 15.512 12.488 28 28 28 15.511 0 28-12.488 28-28 0-.338-.04-.666-.05-1C59.42 47.042 47.172 59 32 59 16.825 59 4.578 47.042 4.05 32z" opacity=".2"/>
    <rect width="56" height="56" x="4" y="4" rx="28" ry="28" fill="#8F3F71"/>
    <g opacity=".2">
        <path d="M16 39l16 6 16-6v4l-16 6-16-6z"/>
        <path d="M16 31l16 6 16-6v4l-16 6-16-6z"/>
        <path d="M32 17l-16 6v4l16 6 16-6v-4z"/>
    </g>
    <path d="M32 4C16.488 4 4 16.488 4 32c0 .114.011.224.018.336C4.369 17.134 16.71 5 32 5c15.29 0 27.63 12.134 27.982 27.336.007-.112.018-.222.018-.336C60 16.488 47.512 4 32 4z" opacity=".2" fill="#F9F5D7"/>
    <path d="M16 38l16 6 16-6v4l-16 6-16-6z" fill="#B16286"/>
    <path d="M16 30l16 6 16-6v4l-16 6-16-6z" fill="#B16286"/>
    <path d="M32 16l-16 6v4l16 6 16-6v-4z" fill="#B16286"/>
</svg>
