<svg xmlns="http://www.w3.org/2000/svg" width="64" height="64">
    <path d="M32 5c-8.365.23-17.721 1.517-24.94 3.365C5.09 8.877 4.352 9.16 4 9.7v48.645C4 60.095 14.5 60.97 16.195 61 18 60.97 26 60.095 26 58.346V53h12v5.346c0 1.749 8 2.624 9.805 2.654C49.5 60.97 60 60.095 60 58.346V9.7c-.353-.54-1.09-.824-3.06-1.336C49.722 6.517 40.366 5.23 32 5z" opacity=".2" fill="#151819"/>
    <path d="M32 4c-8.365.23-17.721 1.517-24.94 3.365C5.09 7.877 4.352 8.16 4 8.7v48.645C4 59.095 14.5 59.97 16.195 60 18 59.97 26 59.095 26 57.346V52h12v5.346c0 1.749 8 2.624 9.805 2.654C49.5 59.97 60 59.095 60 57.346V8.7c-.353-.54-1.09-.824-3.06-1.336C49.722 5.517 40.366 4.23 32 4z" fill="#CB241D"/>
    <path d="M16 31.642c10.63-.675 21.281-1.02 32 0-1.765 11.018-8.23 11.138-14.667 11.313-7.24.48-16.053-2.85-17.333-11.313m0 0" opacity=".2"/>
    <path d="M16.05 27c2.43-.242 2.42-.268 6.735-.628.468-1.363.892-2.179-.811-4.718-1.876-2.828-4.887-1.61-6.109.527-1.045 2.398-.764 3.907.186 4.819m0 0" fill="#322F2E"/>
    <path d="M19 22.8c0 .547-.447 1-1 1-.553 0-1-.453-1-1 0-.549.447-1 1-1 .553 0 1 .451 1 1m0 0" fill="#F9F5D7"/>
    <path d="M40.63 26.982c2.455.045 6.037-.009 6.349-.009 1.002-.708 1.707-3.473-.065-6.195-1.944-3.04-5.08-1.73-6.35.566-1.085 2.578-.342 4.283.065 5.621" opacity=".2"/>
    <path d="M40.63 25.982c2.455.045 6.037-.009 6.349-.009 1.002-.708 1.707-3.473-.065-6.195-1.944-3.04-5.08-1.73-6.35.566-1.085 2.578-.342 4.283.065 5.621" fill="#322F2E"/>
    <path d="M44 21c0 .557-.449 1-1.003 1A.997.997 0 0 1 42 21c0-.548.449-1 .997-1 .554 0 1.003.452 1.003 1m0 0" fill="#F9F5D7"/>
    <path d="M16 30.642c10.63-.675 21.281-1.02 32 0-1.765 11.018-8.23 11.138-14.667 11.313-7.24.48-16.053-2.85-17.333-11.313m0 0" fill="#322F2E"/>
    <path d="M18 34.2c.13.613-.216 1.253.366 1.642 3.601 2.4 10.36 4.067 14.946 4.157 6.07.031 10.855-1.075 12.484-3.164.355-.46.133-2 .16-2.683l-3.418-.08 3.418-.31v-1.635H29.01L28.99 34h-2.974l-.032-2h-7.977l.006 1.926 2.625.086" fill="#F9F5D7"/>
    <path d="M14.023 27.736v.077a.47.47 0 0 0 0 .292.8.8 0 0 0 .186.307c.296.326.751.53 1.216.576.471.048 1.952-.052 2.37-.255.367-.175.683-.42 1.048-.599a3.082 3.082 0 0 1 1.143-.278c.582-.024 1.163.109 1.757.052.29-.024.577-.1.815-.255.116-.076.222-.17.297-.274a.73.73 0 0 0 .142-.379.837.837 0 0 0-.106-.462 1.355 1.355 0 0 0-.317-.379c-.258-.222-.571-.382-.868-.562-.158-.099-.322-.208-.519-.26-.227-.061-.48-.019-.724-.047-.259-.024-.492-.118-.736-.179a3.692 3.692 0 0 0-1.54-.056c-.508.08-.988.27-1.429.52-.418.235-1.804.547-1.994.948-.037.08-.064.166-.106.245-.147.354-.37.68-.635.968" opacity=".2"/>
    <path d="M14.023 26.736v.077a.47.47 0 0 0 0 .292.8.8 0 0 0 .186.307c.296.326.751.53 1.216.576.471.048 1.952-.052 2.37-.255.367-.175.683-.42 1.048-.599a3.082 3.082 0 0 1 1.143-.278c.582-.024 1.163.109 1.757.052.29-.024.577-.1.815-.255.116-.076.222-.17.297-.274a.73.73 0 0 0 .142-.379.837.837 0 0 0-.106-.462 1.355 1.355 0 0 0-.317-.379c-.258-.222-.571-.382-.868-.562-.158-.099-.322-.208-.519-.26-.227-.061-.48-.019-.724-.047-.259-.024-.492-.118-.736-.179a3.692 3.692 0 0 0-1.54-.056c-.508.08-.988.27-1.429.52-.418.235-1.804.547-1.994.948-.037.08-.064.166-.106.245-.147.354-.37.68-.635.968" fill="#C77089"/>
    <path d="M19.591 8.74l2.344-1.595c.421-.288 1.008-.126 1.276.304l1.288 2.563 4.046 6.015c.283.42-.597 1.298-1.026 1.576l-1.942 1.257c-.43.277-1.009.126-1.276-.304l-2.44-4.577-2.896-4.002c-.298-.411.202-.949.624-1.237z" opacity=".2"/>
    <path d="M19.591 7.74l2.344-1.595c.421-.288 1.008-.126 1.276.304l1.288 2.563 4.046 6.015c.283.42-.597 1.298-1.026 1.576l-1.942 1.257c-.43.277-1.009.126-1.276-.304l-2.44-4.577-2.896-4.002c-.298-.411.202-.949.624-1.237z" fill="#F9F5D7"/>
    <path d="M27.99 7.661l1.82 2.153c.328.389.213.974-.203 1.27l-2.504 1.47-5.786 4.448c-.405.31-1.371-.473-1.69-.87l-1.441-1.789c-.319-.396-.213-.974.203-1.27l4.455-2.76 3.833-3.158c.394-.325.983.118 1.311.506z" opacity=".2"/>
    <path d="M27.99 6.661l1.82 2.153c.328.389.213.974-.203 1.27l-2.504 1.47-5.786 4.448c-.405.31-1.371-.473-1.69-.87l-1.441-1.789c-.319-.396-.213-.974.203-1.27l4.455-2.76 3.833-3.158c.394-.325.983.118 1.311.506z" fill="#F9F5D7"/>
    <path d="M32 4c-8.365.23-17.722 1.515-24.941 3.363C5.089 7.875 4.353 8.16 4 8.7v1c.353-.54 1.09-.824 3.059-1.336C14.279 6.515 23.635 5.23 32 5c8.365.23 17.722 1.515 24.941 3.363 1.97.512 2.706.797 3.059 1.336v-1c-.353-.54-1.09-.824-3.059-1.336C49.721 5.515 40.365 4.23 32 4z" opacity=".2" fill="#F9F5D7"/>
</svg>
