<svg xmlns="http://www.w3.org/2000/svg" width="64" height="64" version="1">
    <path d="M32.156 4.004a6.595 6.594 0 0 0-3.453.88L9.298 16.085A6.595 6.594 0 0 0 6 21.796v22.407a6.595 6.594 0 0 0 3.297 5.71l19.405 11.204a6.595 6.594 0 0 0 6.595 0l19.405-11.203A6.595 6.594 0 0 0 58 44.202V21.796a6.595 6.594 0 0 0-3.298-5.711L35.297 4.883a6.595 6.594 0 0 0-3.141-.88z" opacity=".2"/>
    <path d="M32.156 3.002a6.595 6.594 0 0 0-3.453.883L9.297 15.087A6.595 6.594 0 0 0 6 20.798v22.406a6.595 6.594 0 0 0 1.54 4.226L32 27.65l24.457 19.78A6.595 6.594 0 0 0 58 43.204V20.798a6.595 6.594 0 0 0-3.297-5.715L35.297 3.885a6.595 6.594 0 0 0-3.14-.883zM7.54 47.43a6.595 6.594 0 0 0 .445.485 6.595 6.594 0 0 1-.445-.485zm.445.485a6.595 6.594 0 0 0 .395.351 6.595 6.594 0 0 1-.395-.351zm48.465-.473a6.595 6.594 0 0 1-1.191 1.113 6.595 6.594 0 0 0 1.191-1.113zM31.187 60.949a6.595 6.594 0 0 0 1.317.032 6.595 6.594 0 0 1-1.317-.032z" fill="#066678"/>
    <path d="M32.156 3.002a6.595 6.594 0 0 0-3.453.883L9.297 15.088A6.595 6.594 0 0 0 6 20.798v1a6.595 6.594 0 0 1 3.297-5.71L28.703 4.885a6.595 6.594 0 0 1 3.453-.883 6.595 6.594 0 0 1 3.14.883l19.407 11.199A6.595 6.594 0 0 1 58 21.799v-1a6.595 6.594 0 0 0-3.297-5.715l-19.406-11.2a6.595 6.594 0 0 0-3.14-.882z" opacity=".1" fill="#F9F5D7"/>
    <path d="M32 3.006a6.595 6.594 0 0 0-3.297.875L9.297 15.087A6.595 6.594 0 0 0 6 20.798v22.406a6.595 6.594 0 0 0 1.54 4.226L32 27.65zM7.54 47.43a6.595 6.594 0 0 0 .444.485 6.595 6.594 0 0 1-.445-.485zm.444.485a6.595 6.594 0 0 0 .395.351 6.595 6.594 0 0 1-.395-.351z" opacity=".3"/>
    <path d="M32 27.65L7.538 47.433a6.595 6.594 0 0 0 1.76 1.481l19.404 11.203a6.595 6.594 0 0 0 6.596 0l19.405-11.203a6.595 6.594 0 0 0 1.755-1.484z" fill="#CB8819"/>
    <path d="M32 14.98l15.6 8.802V41.39L32 50.192 16.4 41.39V23.782z" opacity=".1"/>
    <path d="M32 27.65L7.54 47.43a6.595 6.594 0 0 0 .538.564L32 28.648l23.918 19.346a6.595 6.594 0 0 0 .539-.564L32 27.65z" opacity=".2" fill="#F9F5D7"/>
    <path d="M32 13.98l15.6 8.803V40.39L32 49.193 16.4 40.39V22.783z" fill="#FA4934"/>
    <path d="M47.6 22.783L32 31.587v17.606l15.6-8.803z" opacity=".3"/>
    <path d="M16.4 22.783V40.39L32 49.193V31.587z" opacity=".1"/>
    <path d="M32 13.982l-15.602 8.801.885.498L32 14.982l14.717 8.3.885-.499L32 13.983z" opacity=".2" fill="#F9F5D7"/>
    <path d="M16.398 22.783v1L32 32.586l15.602-8.803v-1L32 31.588z" opacity=".1"/>
</svg>
