<svg xmlns="http://www.w3.org/2000/svg" width="64" height="64" version="1">
    <path d="M4 56v2c0 1.662 1.338 3 3 3h50c1.662 0 3-1.338 3-3v-2c0 1.662-1.338 3-3 3H7c-1.662 0-3-1.338-3-3z" opacity=".2"/>
    <path d="M32 4H7C5.338 4 4 5.338 4 7v25h28z" fill="#D79921"/>
    <path d="M32 4h25c1.662 0 3 1.338 3 3v25H32zM32 60H7c-1.662 0-3-1.338-3-3V32h28z" fill="#066678"/>
    <path d="M32 60h25c1.662 0 3-1.338 3-3V32H32z" fill="#7CB668"/>
    <path d="M7 4C5.338 4 4 5.338 4 7v1c0-1.662 1.338-3 3-3h50c1.662 0 3 1.338 3 3V7c0-1.662-1.338-3-3-3H7z" opacity=".1" fill="#F9F5D7"/>
    <path d="M18 8l3.09 6.584L28 15.64l-5 5.124L24.18 28 18 24.584 11.82 28 13 20.764 8 15.64l6.91-1.056z" fill="#3A393A"/>
    <circle cx="46" cy="18" r="10" fill="#3A393A"/>
    <path fill="#3A393A" d="M36 36h20v20H36z"/>
    <circle cx="18" cy="46" r="10" fill="#3A393A"/>
</svg>
