<svg xmlns="http://www.w3.org/2000/svg" width="64" height="64" version="1">
    <path d="M4.05 32c-.011.335-.05.663-.05 1 0 15.512 12.488 28 28 28 15.51 0 27.998-12.488 27.998-28 0-.337-.039-.664-.05-1-.528 15.042-12.776 27-27.95 27S4.578 47.042 4.05 32z" opacity=".2"/>
    <path d="M59.998 32C59.998 16.49 47.511 4.003 32 4.003 16.488 4.002 4 16.489 4 32c0 15.511 12.488 28 28 28 15.51 0 27.998-12.489 27.998-28z" fill="#48B9C7"/>
    <path d="M32 4.002C16.488 4.002 4 16.488 4 32c0 .113.011.224.018.336C4.369 17.135 16.71 5 32 5s27.63 12.135 27.982 27.336c.007-.112.018-.223.018-.336A27.938 27.938 0 0 0 32 4.002z" opacity=".1" fill="#F9F5D7"/>
    <path d="M33.393 46.771c-.724-.438-1.186-1.2-3.198-5.266-1.112-2.252-2.172-4.251-2.354-4.443-.204-.216-1.882-1.108-4.388-2.332-4.95-2.416-5.453-2.8-5.453-4.17 0-.638.311-1.25.8-1.568.168-.11 5.345-1.962 11.504-4.116 10.822-3.785 11.224-3.915 11.964-3.87.64.039.825.104 1.132.397.46.44.668 1.049.578 1.7-.096.7-7.866 22.647-8.155 23.035-.616.829-1.661 1.102-2.43.635z" opacity=".2"/>
    <path d="M33.393 45.772c-.724-.438-1.186-1.2-3.198-5.265-1.112-2.252-2.172-4.252-2.354-4.444-.204-.216-1.882-1.108-4.388-2.332-4.95-2.416-5.453-2.8-5.453-4.17 0-.638.311-1.25.8-1.568.168-.11 5.345-1.962 11.504-4.116 10.822-3.785 11.224-3.915 11.964-3.87.64.04.825.104 1.132.397.46.44.668 1.049.578 1.7-.096.7-7.866 22.648-8.155 23.035-.616.829-1.661 1.102-2.43.635z" fill="#F9F5D7"/>
</svg>
