<svg xmlns="http://www.w3.org/2000/svg" width="64" height="64">
    <g transform="translate(0 -988.362)">
        <path d="M31.959 993.362c-5.37 0-10 4.995-10 11.2 0 14-8 15.4-8 25.2 0 10.824 8.059 19.6 18 19.6s18-8.776 18-19.6c0-9.8-8-11.2-8-25.2 0-6.205-4.63-11.2-10-11.2z" opacity=".2"/>
        <path d="M31.959 992.362c-5.37 0-10 4.995-10 11.2 0 14-8 15.4-8 25.2 0 10.825 8.059 19.6 18 19.6s18-8.775 18-19.6c0-9.8-8-11.2-8-25.2 0-6.205-4.63-11.2-10-11.2z" fill="#066678"/>
        <path d="M31.959 1009.362c-3.58 0-6 3.033-6 6.8 0 8.5-6 9.35-6 15.3 0 6.572 5.373 11.9 12 11.9s12-5.328 12-11.9c0-5.95-6-6.8-6-15.3 0-3.767-2.42-6.8-6-6.8z" opacity=".1"/>
        <path d="M31.959 1008.362c-3.58 0-5.959 3.033-5.959 6.8 0 8.5-6.04 9.35-6.04 15.3 0 6.572 5.372 11.9 11.999 11.9 6.627 0 12-5.328 12-11.9 0-5.95-5.959-6.8-5.959-15.3 0-3.767-2.461-6.8-6.041-6.8z" fill="#F9F5D7"/>
        <path d="M22.996 1049.32c-.603-.095-1.136-.275-2.303-.779-1.739-.75-2.55-.993-5.731-1.72-1.587-.362-2.179-.523-3.556-.968a60.206 60.206 0 0 0-1.484-.46c-.856-.246-1.083-.342-1.396-.588-.428-.337-.627-.857-.55-1.435.048-.371.178-.727.535-1.475.477-1 1.663-1.359 1.736-2.342.042-.579.007-1.23-.14-2.584-.087-.802-.106-1.098-.108-1.608-.001-.553.006-.168.063-.38.214-.792.377-1.25 1.135-1.447.22-.058-.24-.066.79-.086.64-.02 1.012-.036 1.094-.056.444-.102.767-.268 1.068-.555.287-.273.484-1.752.858-2.419.584-1.028 1.734-1.018 2.673-1.056.267.056.355.092.647.26.293.169.376.237.632.509.642.684.949 1.106 2.39 3.289 1.141 1.73 1.49 2.283 1.95 3.095.502.885 1.406 2.303 1.741 2.732.057.074.405.514.773.98.368.468.705.905.748.972.691.964 1.177 2.073 1.35 3.18.057.386.06.452.027.893-.041.561-.077.801-.138.924a4.15 4.15 0 0 0-.119.297c-.529 1.473-1.846 2.578-3.373 2.829a5.336 5.336 0 0 1-1.312 0z" opacity=".2"/>
        <path d="M22.996 1048.321c-.603-.096-1.136-.275-2.303-.78-1.739-.75-2.55-.993-5.731-1.72-1.587-.361-2.179-.522-3.556-.968a60.206 60.206 0 0 0-1.484-.46c-.856-.245-1.083-.341-1.396-.588-.428-.337-.627-.856-.55-1.435.048-.37.178-.727.535-1.474.477-1 1.663-1.36 1.736-2.342.042-.58.007-1.23-.14-2.585-.087-.801-.106-1.097-.108-1.607-.024-.751.48-1.803 1.198-1.827.22-.058 0 0 .79-.086.64-.02 1.012-.036 1.094-.056.444-.102.767-.268 1.068-.555.287-.274.484-1.753.858-2.419.584-1.028 1.734-1.018 2.673-1.056.267.056.355.092.647.26.293.168.376.237.632.509.642.684.949 1.106 2.39 3.288 1.141 1.73 1.49 2.284 1.95 3.096.502.884 1.406 2.303 1.741 2.732.057.074.405.514.773.98.368.468.705.905.748.972.691.964 1.177 2.073 1.35 3.18.057.386.06.451.027.893-.041.56-.077.8-.138.923a4.15 4.15 0 0 0-.119.298c-.529 1.472-1.846 2.577-3.373 2.828a5.336 5.336 0 0 1-1.312 0z" fill="#F9BD2E"/>
        <path d="M46.382 1048.654c.46-.323.828-.686 1.587-1.57 1.13-1.314 1.102-1.842 3.44-3.725 1.165-.94 1.59-1.31 2.547-2.233a55.99 55.99 0 0 1 1.04-.976c.608-.548.756-.718.914-1.045.215-.447.164-.949-.139-1.386-.194-.28-.45-.516-1.056-.976-.81-.615-1.043-1.143-1.511-1.91-.276-.451.084-1.592-.356-2.75-.261-.684-.367-.93-.578-1.345-.228-.448-.275-.526-.41-.673-.507-.555-1.069-.742-1.78-.594-.205.044-.326.094-1.188.497-.538.25-1.02.463-1.096.481-.41.1-.748.094-1.117-.02-.351-.104-.63.628-1.217.24-.402-.263-.833-.591-1.142-.676-.428-.118-.427-.118-.827-.074-.386.048-.67.158-.984.403-.197.154-.255.22-.428.474-.173.257-.214.345-.313.669-.249.816-.328 1.282-.618 3.636-.229 1.866-.289 2.456-.333 3.3-.05.921-.21 2.438-.31 2.921l-.234 1.11c-.112.528-.21 1.018-.218 1.09-.173 1.063-.116 2.158.2 3.125.113.336.138.39.348.734.267.438.396.617.498.692.04.03.14.116.222.192a4.135 4.135 0 0 0 3.971.917 5.047 5.047 0 0 0 1.089-.535z" opacity=".2"/>
        <path d="M46.382 1047.654c.46-.323.828-.685 1.587-1.569 1.13-1.315 1.102-1.842 3.44-3.726 1.165-.94 1.59-1.31 2.547-2.232a55.99 55.99 0 0 1 1.04-.976c.608-.548.756-.718.914-1.046.215-.447.164-.948-.139-1.386-.194-.28-.45-.516-1.056-.975-.81-.615-1.142-1.144-1.61-1.91-.276-.452.083-1.593-.357-2.75-.26-.684-.267-.931-.478-1.345-.228-.449-.275-.526-.41-.673-.507-.555-1.069-.743-1.78-.594-.205.044-.326.094-1.188.497-.538.249-1.02.463-1.096.48-.41.1-.748.095-1.117-.02-.351-.103-.63.628-1.217.241-.402-.263-.833-.591-1.142-.677-.428-.118-.427-.118-.827-.074-.386.048-.67.158-.984.403-.197.154-.255.22-.428.475-.173.257-.214.345-.313.669-.249.815-.328 1.282-.618 3.636-.229 1.866-.289 2.456-.333 3.3-.05.92-.21 2.438-.31 2.921l-.234 1.11c-.112.527-.21 1.018-.218 1.09-.173 1.063-.116 2.158.2 3.125.113.336.138.39.348.734.267.438.396.617.498.691.04.03.14.116.222.192a4.135 4.135 0 0 0 3.971.918 5.047 5.047 0 0 0 1.089-.535z" fill="#F9BD2E"/>
        <circle cx="27.959" cy="1003.362" r="4" opacity=".1"/>
        <circle cx="27.959" cy="1002.362" r="4" fill="#F9F5D7"/>
        <circle cx="27.959" cy="1002.362" r="2" fill="#322F2E"/>
        <path d="M37.959 1008.362c0 3.866-2.686 7-6 7s-6-3.134-6-7z" opacity=".1"/>
        <path d="M37.959 1007.562c0 3.866-2.686 6.8-6 6.8s-6-2.934-6-6.8z" fill="#FD8019"/>
        <circle cx="35.959" cy="1003.362" r="4" opacity=".1"/>
        <circle cx="35.959" cy="1002.362" r="4" fill="#F9F5D7"/>
        <circle cx="35.959" cy="1002.362" r="2" fill="#322F2E"/>
        <path d="M37.959 1007.696c0 .666-2.686 4.666-6 4.666s-6-4-6-4.666c0-1.841 2.686-3.334 6-3.334s6 1.493 6 3.334z" fill="#F9BD2E"/>
        <path d="M50.588 1028.425c-.16-.006-.33.01-.508.047-.206.044-.327.093-1.19.496-.537.25-1.02.464-1.095.482-.41.1-.746.095-1.115-.02-.352-.103-.632.628-1.22.24-.4-.262-.831-.592-1.14-.677-.428-.118-.427-.118-.828-.074-.385.048-.669.16-.982.404-.198.154-.256.22-.428.475-.173.257-.215.344-.314.668-.25.815-.328 1.283-.618 3.636-.229 1.867-.289 2.456-.334 3.301-.049.92-.21 2.437-.31 2.92-.017.082-.12.582-.233 1.11-.111.528-.21 1.017-.218 1.09a7.206 7.206 0 0 0-.073 1.677 7.4 7.4 0 0 1 .073-.678c.008-.072.107-.561.218-1.09.112-.527.216-1.027.233-1.109.1-.483.261-2.002.31-2.922.045-.845.105-1.434.334-3.3.29-2.354.369-2.82.618-3.635.099-.324.14-.413.314-.67.172-.255.23-.32.428-.475.313-.245.597-.354.982-.402.4-.044.4-.044.828.074.309.085.74.413 1.14.676.588.387.868-.344 1.22-.24a1.97 1.97 0 0 0 1.115.021c.076-.018.558-.233 1.096-.482.862-.403.983-.452 1.19-.496.71-.149 1.272.038 1.778.593.135.148.182.225.41.674.211.414.218.66.479 1.344.44 1.157.08 2.299.356 2.75.468.767.8 1.295 1.61 1.91.607.46.863.696 1.057.977.07.1.122.203.165.308.175-.427.122-.895-.165-1.308-.194-.28-.45-.517-1.056-.977-.81-.615-1.143-1.143-1.611-1.91-.276-.451.084-1.591-.356-2.748-.26-.685-.268-.932-.478-1.346-.23-.449-.276-.526-.41-.674-.38-.416-.79-.624-1.272-.64z" fill="#F9F5D7" opacity=".2"/>
        <path d="M46.861 1034.46c-2.303 0-2.32-1.914-2.78-4.171-.512-2.511-.839-3.963 3.17-4.17 3.648-1.71 4.009 8.207-.39 8.34z" fill="#066678"/>
        <path d="M17.68 1028.362c-.94.038-2.09.028-2.672 1.057-.375.666-.57 2.146-.858 2.42-.3.287-.626.452-1.07.554-.082.02-.453.035-1.094.055-.79.086-.57.028-.789.086-.718.025-1.221 1.077-1.197 1.828 0 .208.033.47.043.656.103-.693.539-1.463 1.154-1.484.22-.058 0 0 .79-.086.64-.02 1.01-.037 1.093-.057.444-.102.77-.267 1.07-.554.287-.274.483-1.752.858-2.418.583-1.029 1.732-1.019 2.672-1.057.266.056.354.091.646.26.294.168.378.238.633.51.642.684.948 1.104 2.389 3.287 1.142 1.73 1.49 2.284 1.95 3.096.502.884 1.408 2.303 1.743 2.732.057.074.403.514.771.98.369.468.705.904.749.971.69.965 1.177 2.074 1.35 3.182.005.036.004.049.009.08.006-.07.011-.104.017-.188.033-.441.031-.506-.027-.892-.172-1.108-.658-2.216-1.35-3.18-.043-.067-.38-.505-.747-.973-.369-.466-.715-.906-.772-.98-.335-.429-1.24-1.846-1.742-2.73-.46-.812-.81-1.366-1.951-3.096-1.441-2.183-1.747-2.605-2.389-3.29-.255-.271-.34-.34-.633-.507-.292-.169-.38-.206-.646-.262zm-7.434 10.168v.024c-.073.983-1.257 1.342-1.734 2.341-.358.748-.488 1.104-.537 1.475-.035.262-.006.508.068.734.072-.298.191-.628.469-1.209.477-.999 1.661-1.358 1.734-2.341a7.81 7.81 0 0 0 0-1.024z" fill="#F9F5D7" opacity=".2"/>
        <path d="M31.959 992.362c-5.37 0-10 4.995-10 11.2 0 14-8 15.4-8 25.2 0 .177.021.348.025.524.264-9.357 7.975-10.964 7.975-24.725 0-6.204 4.63-11.199 10-11.199s10 4.995 10 11.2c0 13.76 7.71 15.367 7.975 24.724.004-.176.025-.347.025-.523 0-9.8-8-11.202-8-25.202 0-6.204-4.63-11.199-10-11.199z" opacity=".1" fill="#F9F5D7"/>
    </g>
</svg>
