<svg xmlns="http://www.w3.org/2000/svg" width="64" height="64">
    <path d="M57 5l-13.996 5.98v2.465c-.003 0-.005-.002-.008-.003v1.304c0 .019.004.036.004.055V38c0 3.169-1.194 6.01-3.281 8.042-.008.007-.012.016-.02.023-.056.055-.118.104-.176.157a9.938 9.938 0 0 1-.593.511C37.03 48.22 34.63 49 32 49c-6.156 0-11-4.795-11-11V21.36L7 27.582v8.531c0 3.665.488 7.023 1.461 10.059.965 3.036 2.463 5.65 4.492 7.844 1.719 1.862 3.84 3.371 6.348 4.543l.48.148c.28.154.558.311.887.441C23.786 60.381 27.492 61 31.778 61l-.008-.016c4.357 0 8.116-.593 11.292-1.8 3.178-1.2 5.789-2.895 7.852-5.09 2.054-2.187 3.584-4.821 4.582-7.883.998-3.062 1.5-6.43 1.5-10.102v-.648c0-.006.004-.01.004-.016V5z" opacity=".2"/>
    <path d="M57 4L43.003 9.98v23.5C43.018 38.54 57 38.114 57 34.444zM21 20.36L7 26.583v8.532c0 3.664.487 7.02 1.46 10.057.965 3.036 2.463 5.648 4.492 7.842 1.718 1.862 3.839 3.373 6.347 4.544l3.55 1.093c11.41-1.191 15.47-10.485 16.765-13.004h.006l.333-.818C37.938 46.91 35.126 48 32 48c-6.156 0-11-4.794-11-11v-3.453z" fill="#066678"/>
    <path d="M42.997 12.441v1.304c0 .019.003.037.003.055V37c0 3.182-1.201 6.034-3.301 8.067.083-.08.174-.154.255-.238l-.334.818h-.006c-1.294 2.519-7.258 10.677-18.668 11.867l-1.478.039c.363.216.754.42 1.199.596C23.785 59.38 27.492 60 31.777 60l-.008-.016c4.358 0 8.117-.592 11.293-1.8 3.178-1.198 5.788-2.896 7.85-5.091 2.055-2.187 3.587-4.819 4.585-7.88.998-3.062 1.497-6.433 1.497-10.104v-4.375c-.92-8.352-8.349-16.04-13.997-18.293zM39.61 45.152z" fill="#73C48F"/>
    <path d="M57 4L43.002 9.98v1L57 5V4zM21 20.36L7 26.583v1l14-6.225v-1zM21 37v1c0 6.205 4.844 11 11 11 2.728 0 5.216-.832 7.145-2.426.174-.344.348-.69.47-.928h.004l.334-.816C37.938 46.91 35.126 48 32 48c-6.156 0-11-4.795-11-11z" fill="#F9F5D7" opacity=".1"/>
    <path d="M42.998 12.441v1c5.648 2.253 13.076 9.941 13.996 18.293v-1c-.92-8.352-8.348-16.04-13.996-18.293zM43 37c0 3.18-1.2 6.033-3.3 8.066.083-.08.172-.152.253-.236l-.334.816h-.004c-.14.273-.36.639-.611 1.028-2.064 3.203-7.884 9.778-18.059 10.84l-1.478.039c.363.216.754.42 1.199.595.26.103.532.195.8.29 11.063-1.385 16.875-9.312 18.15-11.792h.003l.334-.816c-.08.084-.17.155-.254.236C41.8 44.033 43 41.181 43 38v-1zm-3.39 8.152z" fill="#F9F5D7" opacity=".1"/>
</svg>
