<svg xmlns="http://www.w3.org/2000/svg" width="64" height="64" version="1">
    <rect width="56" height="56" x="4" y="4" rx="3" ry="3" fill="#066678"/>
    <path d="M7 4C5.338 4 4 5.338 4 7v1c0-1.662 1.338-3 3-3h50c1.662 0 3 1.338 3 3V7c0-1.662-1.338-3-3-3H7z" opacity=".1" fill="#F9F5D7"/>
    <path d="M14.857 13A2.851 2.851 0 0 0 12 15.857v12.358C12 29.798 13.417 31 15 31s3-1.202 3-2.785v-5.483l4 4.286V31h5.715v-.857c0-.792.636-1.428 1.428-1.428H30V23h-3.982l-4.286-4h5.483C28.798 19 30 17.583 30 16s-1.202-3-2.785-3H14.857zm21.928 0C35.202 13 34 14.417 34 16s1.202 3 2.785 3h5.483l-4.286 4H34v5.715h.857c.792 0 1.428.636 1.428 1.428V31H42v-3.982l4-4.286v5.483C46 29.798 47.417 31 49 31s3-1.202 3-2.785V15.857A2.851 2.851 0 0 0 49.143 13H36.785zM22 35v5.143A2.85 2.85 0 0 0 24.857 43H30v-5.715h-.857a1.424 1.424 0 0 1-1.428-1.428V35H22zm14.285 0v.857c0 .792-.636 1.428-1.428 1.428H34V43h3.982l4.286 4h-5.483C35.202 47 34 48.417 34 50s1.202 3 2.785 3h12.358A2.851 2.851 0 0 0 52 50.143V37.785C52 36.202 50.583 35 49 35s-3 1.202-3 2.785v5.483l-4-4.286V35h-5.715z" opacity=".2"/>
    <path d="M14.857 12A2.851 2.851 0 0 0 12 14.857v12.358C12 28.798 13.417 30 15 30s3-1.202 3-2.785v-5.483l4 4.286V30h5.715v-.857c0-.792.636-1.428 1.428-1.428H30V22h-3.982l-4.286-4h5.483C28.798 18 30 16.583 30 15s-1.202-3-2.785-3H14.857zm21.928 0C35.202 12 34 13.417 34 15s1.202 3 2.785 3h5.483l-4.286 4H34v5.715h.857c.792 0 1.428.636 1.428 1.428V30H42v-3.982l4-4.286v5.483C46 28.798 47.417 30 49 30s3-1.202 3-2.785V14.857A2.851 2.851 0 0 0 49.143 12H36.785zM22 34v5.143A2.85 2.85 0 0 0 24.857 42H30v-5.715h-.857a1.424 1.424 0 0 1-1.428-1.428V34H22zm14.285 0v.857c0 .792-.636 1.428-1.428 1.428H34V42h3.982l4.286 4h-5.483C35.202 46 34 47.417 34 49s1.202 3 2.785 3h12.358A2.851 2.851 0 0 0 52 49.143V36.785C52 35.202 50.583 34 49 34s-3 1.202-3 2.785v5.483l-4-4.286V34h-5.715z" fill="#FECE4F"/>
    <path d="M4 57v1c0 1.662 1.338 3 3 3h50c1.662 0 3-1.338 3-3v-1c0 1.662-1.338 3-3 3H7c-1.662 0-3-1.338-3-3z" opacity=".2"/>
</svg>
