<svg xmlns="http://www.w3.org/2000/svg" width="64" height="64">
    <path d="M6.8 9A2.783 2.783 0 0 0 4 11.778v42.444A2.783 2.783 0 0 0 6.8 57h50.4c1.551 0 2.8-1.239 2.8-2.778V11.778A2.782 2.782 0 0 0 57.2 9z" fill="#48B9C7"/>
    <path d="M6.8 7A2.783 2.783 0 0 0 4 9.778V13h56V9.778A2.782 2.782 0 0 0 57.2 7z" fill="#504945"/>
    <path d="M6.8 7A2.783 2.783 0 0 0 4 9.777v1A2.783 2.783 0 0 1 6.8 8h50.4c1.55 0 2.8 1.238 2.8 2.777v-1A2.784 2.784 0 0 0 57.2 7H6.8z" opacity=".1" fill="#F9F5D7"/>
    <path d="M4 54.223v1C4 56.763 5.25 58 6.8 58h50.4c1.55 0 2.8-1.237 2.8-2.777v-1C60 55.763 58.75 57 57.2 57H6.8A2.782 2.782 0 0 1 4 54.223z" opacity=".2"/>
</svg>
