<svg xmlns="http://www.w3.org/2000/svg" width="64" height="64" version="1">
    <rect width="56" height="56" x="4" y="4" rx="28" ry="28" fill="#504945"/>
    <path d="M42.353 21.061c-.97.05-2.047.275-3.255.63l-1.046-.641-20.005 12.003c3.051-1.17 5.602-1.724 7.166-1.852l-5.165 5.853 4.013-2.198c-1.645 4.579-3.58 8.874-8.014 10.834-.025.058-.026.125-.047.184 3.377 3.781 7.952 6.46 13.159 7.185L32.009 57l.11-.031 2.821-3.911c5.49-.766 10.291-3.687 13.71-7.799a2.467 2.467 0 0 0-.598-.063c-6.317.054-11.393-.973-12.002-7.872-.165-.874-.304-6.496 9.002-9.272-.94-.604-4.06-.646-6.283-.653-.097-.822.103-3.95 7.283-4.348-1.127-1.085-2.083-2.073-3.7-1.989zm-5.998 2.43c.46.187.52.468.602.77-.802.155-1.932.517-2.247.106-.143-.142.839-.665 1.653-.864z" opacity=".2"/>
    <path d="M42.353 20.061c-.97.05-2.046.275-3.255.63l-1.046-.641-20.005 12.003c3.051-1.17 5.602-1.724 7.166-1.852l-5.165 5.853 4.013-2.2c-1.645 4.581-3.58 8.876-8.014 10.835-.025.057-.026.124-.047.183 3.377 3.782 7.952 6.46 13.16 7.186L32.011 56l.109-.031 2.819-3.911c5.49-.765 10.291-3.687 13.71-7.799a2.461 2.461 0 0 0-.596-.064c-6.318.054-11.393-.972-12.003-7.872-.164-.874-.304-6.496 9.002-9.272-.938-.604-4.06-.646-6.283-.652-.096-.823.104-3.951 7.283-4.35-1.126-1.084-2.082-2.072-3.7-1.988zm-5.997 2.43c.46.186.519.467.601.77-.802.155-1.932.517-2.246.106-.144-.142.838-.665 1.653-.864z" fill="#CB241D"/>
    <path d="M21.062 11.007C12.169 15 6 23.708 6 33.827 6 47.727 17.641 59 32.002 59 46.36 59 58 47.726 58 33.826c0-9.993-6.02-18.616-14.734-22.661l-.272.26C49.874 15.166 54 22.28 54 30.463 54 41.452 45.798 51.48 34.888 53l-2.886 4-2.89-4C18.203 51.48 10 41.452 10 30.462c0-8.269 4.228-15.441 11.223-19.146-.047-.099-.114-.21-.163-.316" opacity=".2"/>
    <path d="M21.062 10.007C12.169 14.001 6 22.71 6 32.827 6 46.729 17.641 58 32.002 58 46.36 58 58 46.727 58 32.827c0-9.994-6.02-18.617-14.734-22.662l-.272.261C49.874 14.166 54 21.28 54 29.463 54 40.453 45.798 50.48 34.888 52l-2.886 4-2.89-4C18.203 50.48 10 40.453 10 29.463c0-8.27 4.228-15.442 11.223-19.146-.047-.1-.114-.21-.163-.316" fill="#48B9C7"/>
    <path d="M32 4C16.488 4 4 16.494 4 32.014c0 .114.011.224.018.336C4.369 17.14 16.71 5 32 5c15.29 0 27.63 12.14 27.982 27.35.007-.112.018-.222.018-.336C60 16.494 47.512 4 32 4z" opacity=".1" fill="#F9F5D7"/>
    <path d="M59.982 32.664C59.631 47.866 47.29 60 32 60 16.712 60 4.371 47.868 4.018 32.668c-.007.11-.018.22-.018.332 0 15.512 12.488 28 28 28s28-12.488 28-28c0-.113-.011-.224-.018-.336z" opacity=".2"/>
</svg>
