<svg xmlns="http://www.w3.org/2000/svg" width="64" height="64" version="1">
    <path d="M54 58.212V17.788C54 16.243 52.773 15 51.25 15h-38.5C11.226 15 10 16.243 10 17.788v40.424C10 59.757 11.226 61 12.75 61h38.5c1.523 0 2.75-1.243 2.75-2.788z" opacity=".2"/>
    <path d="M54 57.212V16.788C54 15.243 52.773 14 51.25 14h-38.5C11.226 14 10 15.243 10 16.788v40.424C10 58.757 11.226 60 12.75 60h38.5c1.523 0 2.75-1.243 2.75-2.788z" fill="#F9F5D7"/>
    <path d="M54 16v-5.333C54 9.189 52.773 8 51.25 8h-38.5C11.226 8 10 9.19 10 10.667V16z" fill="#504945"/>
    <path d="M14.172 5C13.522 5 13 5.544 13 6.219v5.562c0 .675.523 1.219 1.172 1.219h2.656c.65 0 1.172-.544 1.172-1.219V6.22C18 5.544 17.477 5 16.828 5h-2.656zm11 0C24.522 5 24 5.544 24 6.219v5.562c0 .675.523 1.219 1.172 1.219h2.656c.65 0 1.172-.544 1.172-1.219V6.22C29 5.544 28.477 5 27.828 5h-2.656zm11 0C35.522 5 35 5.544 35 6.219v5.562c0 .675.523 1.219 1.172 1.219h2.656c.65 0 1.172-.544 1.172-1.219V6.22C40 5.544 39.477 5 38.828 5h-2.656zm11 0C46.522 5 46 5.544 46 6.219v5.562c0 .675.523 1.219 1.172 1.219h2.656c.65 0 1.172-.544 1.172-1.219V6.22C51 5.544 50.477 5 49.828 5h-2.656z" opacity=".2"/>
    <path d="M14.172 4C13.522 4 13 4.544 13 5.219v5.562c0 .675.523 1.219 1.172 1.219h2.656c.65 0 1.172-.544 1.172-1.219V5.22C18 4.544 17.477 4 16.828 4h-2.656zm11 0C24.522 4 24 4.544 24 5.219v5.562c0 .675.523 1.219 1.172 1.219h2.656c.65 0 1.172-.544 1.172-1.219V5.22C29 4.544 28.477 4 27.828 4h-2.656zm11 0C35.522 4 35 4.544 35 5.219v5.562c0 .675.523 1.219 1.172 1.219h2.656c.65 0 1.172-.544 1.172-1.219V5.22C40 4.544 39.477 4 38.828 4h-2.656zm11 0C46.522 4 46 4.544 46 5.219v5.562c0 .675.523 1.219 1.172 1.219h2.656c.65 0 1.172-.544 1.172-1.219V5.22C51 4.544 50.477 4 49.828 4h-2.656z" fill="#F9BD2E"/>
    <path d="M14.172 4C13.522 4 13 4.544 13 5.219v1C13 5.544 13.523 5 14.172 5h2.656C17.478 5 18 5.544 18 6.219v-1C18 4.544 17.477 4 16.828 4h-2.656zm11 0C24.522 4 24 4.544 24 5.219v1C24 5.544 24.523 5 25.172 5h2.656C28.478 5 29 5.544 29 6.219v-1C29 4.544 28.477 4 27.828 4h-2.656zm11 0C35.522 4 35 4.544 35 5.219v1C35 5.544 35.523 5 36.172 5h2.656C39.478 5 40 5.544 40 6.219v-1C40 4.544 39.477 4 38.828 4h-2.656zm11 0C46.522 4 46 4.544 46 5.219v1C46 5.544 46.523 5 47.172 5h2.656C50.478 5 51 5.544 51 6.219v-1C51 4.544 50.477 4 49.828 4h-2.656z" opacity=".2" fill="#F9F5D7"/>
    <path d="M22.999 28.857a2 2 0 0 0-1.393 3.434l7.63 7.63-7.63 7.627a2 2 0 1 0 2.828 2.828l7.627-7.63 7.63 7.63a2 2 0 1 0 2.828-2.828l-7.627-7.627 7.627-7.63a2 2 0 1 0-2.828-2.828l-7.63 7.627-7.627-7.627A2 2 0 0 0 23 28.857z" opacity=".2"/>
    <path d="M22.999 27.857a2 2 0 0 0-1.393 3.434l7.63 7.63-7.63 7.627a2 2 0 0 0 2.828 2.828l7.627-7.63 7.63 7.63a2 2 0 1 0 2.828-2.828l-7.627-7.627 7.627-7.63a2 2 0 0 0-2.828-2.828l-7.63 7.627-7.627-7.627A2 2 0 0 0 23 27.857z" fill="#504945"/>
</svg>
