<svg xmlns="http://www.w3.org/2000/svg" width="64" height="64">
    <circle cx="32" cy="33" r="28" opacity=".2"/>
    <circle cx="32" cy="32" r="28" fill="#F9F5D7"/>
    <circle cx="32" cy="33" r="22" opacity=".1"/>
    <circle cx="32" cy="32" r="22" fill="#CB241D"/>
    <path d="M25.034 20A2.963 3.004 0 0 0 22 23.002v9.996l.002 9.996a2.963 3.004 0 0 0 4.443 2.605l8.536-5.001 8.536-4.997a2.963 3.004 0 0 0 .002-5.204L34.981 25.4l-8.536-5a2.963 3.004 0 0 0-.825-.326 2.963 3.004 0 0 0-.586-.074z" opacity=".2" fill-rule="evenodd"/>
    <path d="M25.034 19A2.963 3.004 0 0 0 22 22.002v9.996l.002 9.996a2.963 3.004 0 0 0 4.443 2.605l8.536-5.001 8.536-4.997a2.963 3.004 0 0 0 .002-5.204L34.981 24.4l-8.536-5a2.963 3.004 0 0 0-.825-.326 2.963 3.004 0 0 0-.586-.074z" fill="#F9F5D7" fill-rule="evenodd"/>
    <path d="M32 4A28 28 0 0 0 4 32a28 28 0 0 0 .021.586A28 28 0 0 1 32 5a28 28 0 0 1 27.979 27.414A28 28 0 0 0 60 32 28 28 0 0 0 32 4z" fill="#F9F5D7" opacity=".2"/>
</svg>
