<svg xmlns="http://www.w3.org/2000/svg" width="64" height="64">
    <g transform="translate(0 -988.362)">
        <rect width="56" height="56" x="-1049.36" y="-60" rx="28" ry="28" transform="matrix(0 -1 -1 0 0 0)" opacity=".2"/>
        <rect width="56" height="56" x="-1048.36" y="-60" rx="28" ry="28" transform="matrix(0 -1 -1 0 0 0)" fill="#8F3F71"/>
        <path d="M32.145 993.762l-3.243.37-4.003 1.099-.758.735 2.486 1.715v.978l-1.627.98 1.955 2.572.864-.489 1.083-1.714a37.232 37.232 0 0 0 4.758-1.838l1.14-3.306zm-7.678.246l-1.397.2-.662.656-1.086.159-.968.454-.47.227-.287.385 1.405.244.542-.49 1.083-.243c.74-.36 1.485-.605 2.272-.859zm-6.385 2.937l-.216.49.107 1.224-.864.736-.542 1.345h1.083l.541-1.222c.467-.33.93-.664 1.406-.982l1.083.37c.72.49 1.441.979 2.163 1.468l1.082-.979-1.192-.49-.541-1.101-2.056-.246-.107-.613-.974.246-.432.856zm27.71.979l-2.05.492-1.305.856v.736l-2.05 1.345.429 1.96 1.195-.858.754.858.864.49.542-1.468-.323-.86.323-.612 1.19-1.5h.54l-.54 1.623v1.102c.496-.135 1.008-.18 1.517-.243l-1.408.979-.107.612-1.622 1.346-1.627-.367v-.979l-.757.49.328 1.136h-1.192l-.648.822-.815.916-1.457.309.864.853.218.856h-1.082l-1.373.735v2.207h.615l.594.673 1.353-.673.539-1.348.976-.613.216-.49 1.621-.363.867.976.974.49-.542 1.102.867-.246.432-1.097-1.083-1.225h.435l1.083.853.216 1.225.97 1.102.217-1.594.544-.243c.535.555.955 1.387 1.405 2.012l1.622.123.976.435-.435.613-.973.89h-1.406l-1.84-.644-.973.12-.7.798-2.005-2.02-1.408-.367-2.056.244-1.84.49c-1.032 1.169-2.911 2.334-3.888 3.548l-1.19 2.82.542.61-.974 1.468 1.083 2.573c.92 1.04 2.699 2.079 3.617 3.12l1.356-1.163.594.676 1.457-.919.49.646h2.462l.837.852-.517 1.685 1.03 1.162-.054 2.02.758 1.472-.81 1.222c-.054.9-.054 1.795-.054 2.696.443 1.22 1.181 2.438 1.6 3.667l.414 1.96v.982h.178l.592-.735h1.026c.382-.267.75-.553 1.118-.837l1.37-1.55-.268-.796 1.408-1.228-1.03-1.16 1.246-1.038 1.05-.739.542-.607-.326-1.353v-3.424l1.113-2.083 1.19-1.345 1.298-3.183v-.859c-.64.081-1.263.146-1.889.192l1.293-1.294 1.786-1.225.976-1.1v-1.224l-.65-1.225-.867.979-.649-.733-.973-.736v-1.591l1.138 1.285 1.244-.183c.566.514 1.124 1.006 1.621 1.591l.123-.14c-.598-6.496-3.409-12.323-7.661-16.758-.235-.24-.483-.5-.676-.69-.323-.314-.662-.61-1-.91l-.307.503-1.083 1.226-1.405-1.748h1.405l.651-.456-2.598-.49zm-30.584.04c-.158.12-.32.234-.476.356l.214.952s-.99.109-1.562.183c-5.745 5.116-9.377 12.55-9.384 20.883.225.37.448.724.448.724l2.273 1.346 2.275.615.97 1.225 1.515 1.099.867-.12.648.292v.197l-.864 2.324-.65.982.215.49-.697 1.834 2.103 3.552 1.39 1.712.863 1.222-.106 2.573 1.208 1.468-.358 1.554c1.248.86 2.58 1.604 3.964 2.256l.506-.504.323-.855 1.408-.493 1.299-2.693-.541-.733.754-1.522 1.424-.37.962-1.537-.311-2.444 1.977-1.838.218-1.837c-1.776-.88-4.019-1.787-5.782-2.694l-.867-1.714-1.621-.167-.864-2.023-2.163.243-1.84-2.14-1.95 2.006v.27c-.59-.17-1.313-.19-1.837-.513l-.435-1.225v-1.348l-1.299.123c.108-.858.219-1.713.328-2.57h-.757l-.758.978-.757.367-1.083-.61-.11-1.348.217-1.468 1.624-1.225h1.296l.216-.736 1.624.366 1.05 1.472.218-2.45 2.197-1.712.757-2.35 1.512-.053.867-.707 1.947-.372.973-1.466h-2.92l1.84-1.429h1.296l1.84-.602.217-.732-.651-.613-.758-.246.22-.733-.542-1.102-1.3.487.217-.979-1.515-.856-1.187 2.081.107.736-1.192.49-.758 1.59-.322-1.468-2.057-.858-.325-1.102 2.704-1.592 1.193-1.102.106-1.345-.648-.37zm21.16.874l-1.567.49-.709-.123h-.003l-.109.735 1.04.49 1.996-.859-.648-.733zm-15.582.923l-.864.613 1.08.736h.867v-.86zm17.093 2.817v.735l.435.49v1.102l-.22 1.468 1.193-.243.864-.859-.757-.733a21.957 21.957 0 0 0-.864-1.96zm-.43 1.468l-.76.246.22 1.346.97-.487zm-14.93 2.207l.324 1.709.648-.976zm28.25 9.545l1.247 1.409 1.46 3.12.864.981-.435 1.1.823.932c-.378.026-.754.052-1.143.052-.689-1.447-1.206-2.897-1.73-4.41l-1.202-1.04-.486-1.777z" opacity=".3"/>
        <path d="M32 992.362c-15.512 0-28 12.488-28 28 0 .114.011.224.018.336.351-15.202 12.693-27.336 27.982-27.336 15.29 0 27.63 12.134 27.982 27.336.007-.112.018-.222.018-.336 0-15.512-12.488-28-28-28z" opacity=".1" fill="#F9F5D7"/>
        <path d="M55.43 997.077c-1.678.656-3.678 1.622-5.64 2.634a176.94 176.94 0 0 0-5.388 2.915c-1.502.843-2.631 1.492-2.838 1.599-.666.343-4 2.27-7.773 4.722-3.772 2.452-7.883 5.354-9.95 7.684-1.962 2.211-3.152 3.572-3.935 5.057-.782 1.484-1.11 3.035-1.379 5.492l-.027.246.15.199c1.355 1.793 3.634 4.785 5.846 6.57l.166.131.212.014c5.08.159 6.419-.488 11.468-3.655 2.657-1.666 6.182-5.224 9.202-8.517 3.02-3.293 5.44-6.236 5.884-6.833.15-.2.934-1.18 1.968-2.501a192.3 192.3 0 0 0 3.616-4.762c1.275-1.743 2.518-3.528 3.435-5.052.458-.762.836-1.457 1.097-2.064s.441-1.102.369-1.648a2.94 2.94 0 0 0-.848-1.716l.007-.014s-.043-.03-.044-.032a3.082 3.082 0 0 0-1.044-.814c-1.616-.78-3.125-.16-4.554.345z" opacity=".2" fill-rule="evenodd"/>
        <path d="M13.533 1025.367c-1.92-.069-3.482.58-4.613 1.628-1.13 1.048-1.842 2.466-2.22 3.944-.623 2.427-.664 5.916-1.14 8.496-.238 1.281-1.314 3.275-3.331 5.858-.515.866 0 .978 0 .978.289.206.813.016 1.077-.115 2.972-1.508 4.782-2.8 6.094-2.86 2.604-.119 6.042.315 8.515.028 1.607-.186 3.2-.754 4.419-1.87 1.22-1.116 2.023-2.165 2.05-4.346.002-.18.067-.483.083-.847.016-.365-.064-.907-.487-1.255-.46-.378-.993-1.325-1.517-2.402-.523-1.078-1.065-2.279-1.827-3.22l-.443-.547-.295.271a21.266 21.266 0 0 0-1.9-1.474c-.743-.507-1.332-.964-1.66-1.507-.772-.804-1.815-.689-2.805-.76z" opacity=".2" fill-rule="evenodd"/>
        <path d="M13.533 1024.367c-1.92-.069-3.482.58-4.613 1.628-1.13 1.048-1.842 2.466-2.22 3.944-.623 2.427-.664 5.916-1.14 8.496-.238 1.28-1.314 3.275-3.331 5.858-.515.866 0 .978 0 .978.289.206.813.016 1.077-.115 2.972-1.508 4.782-2.8 6.094-2.86 2.604-.119 6.042.315 8.515.028 1.607-.186 3.2-.754 4.419-1.87 1.22-1.116 2.023-2.165 2.05-4.346.002-.18.067-.483.083-.847.016-.365-.064-.907-.487-1.255-.46-.378-.993-1.325-1.517-2.403-.523-1.077-1.065-2.278-1.827-3.218l-.443-.548-.295.27a21.266 21.266 0 0 0-1.9-1.473c-.743-.507-1.332-.964-1.66-1.507-.772-.804-1.815-.689-2.805-.76z" fill="#79740D" fill-rule="evenodd"/>
        <path d="M13.533 1024.366c-1.92-.069-3.482.579-4.613 1.627-1.131 1.048-1.842 2.465-2.22 3.943-.624 2.427-.665 5.917-1.141 8.496-.237 1.281-1.314 3.276-3.33 5.86-.516.866 0 .977 0 .977h.013c2.007-2.574 3.08-4.563 3.317-5.84.476-2.58.517-6.07 1.14-8.497.38-1.478 1.09-2.895 2.22-3.943 1.132-1.048 2.694-1.696 4.614-1.627.99.072 2.034-.044 2.805.76.328.543.917 1 1.66 1.508.584.399 1.256.914 1.9 1.474l.295-.271.444.549c.761.94 1.302 2.14 1.826 3.219.524 1.077 1.058 2.024 1.517 2.402.257.21.379.49.438.762.02-.161.04-.29.049-.508.016-.365-.063-.906-.487-1.254-.459-.378-.993-1.325-1.517-2.402-.524-1.078-1.065-2.28-1.826-3.221l-.444-.547-.295.271a21.292 21.292 0 0 0-1.9-1.474c-.743-.507-1.332-.965-1.66-1.508-.77-.804-1.815-.688-2.805-.76z" opacity=".1" fill="#F9F5D7" fill-rule="evenodd"/>
        <path d="M55.43 996.077c-1.678.656-3.678 1.622-5.64 2.634a176.869 176.869 0 0 0-5.388 2.915c-1.502.843-2.631 1.492-2.838 1.599-.666.343-4 2.27-7.773 4.722-3.772 2.452-7.883 5.354-9.95 7.684-1.962 2.211-3.152 3.572-3.935 5.057-.782 1.484-1.11 3.035-1.379 5.492l-.027.246.15.199c1.355 1.793 3.634 4.785 5.846 6.57l.166.131.212.014c5.08.159 6.419-.488 11.468-3.655 2.657-1.666 6.182-5.224 9.202-8.517 3.02-3.293 5.44-6.236 5.884-6.833.15-.2.934-1.18 1.968-2.501a192.3 192.3 0 0 0 3.616-4.762c1.275-1.743 2.518-3.528 3.435-5.052.458-.762.836-1.457 1.097-2.064s.441-1.102.369-1.648a2.94 2.94 0 0 0-.848-1.716l.007-.014-.044-.032a3.082 3.082 0 0 0-1.044-.814c-1.616-.78-3.125-.16-4.554.345z" fill="#7CB668" fill-rule="evenodd"/>
        <path d="M58.209 995.366c-.962.036-1.886.395-2.78.711-1.677.656-3.677 1.623-5.64 2.635a176.788 176.788 0 0 0-5.387 2.914c-1.502.843-2.631 1.491-2.838 1.598-.665.343-4 2.27-7.773 4.722-3.773 2.452-7.882 5.354-9.95 7.684-1.961 2.211-3.152 3.574-3.935 5.058-.782 1.485-1.11 3.036-1.379 5.493l-.027.246.107.14c.258-2.09.588-3.53 1.3-4.879.782-1.484 1.973-2.847 3.935-5.058 2.067-2.33 6.176-5.232 9.949-7.684 3.773-2.452 7.108-4.377 7.773-4.72.207-.107 1.336-.757 2.838-1.6a176.766 176.766 0 0 1 5.387-2.914c1.963-1.012 3.963-1.979 5.64-2.635 1.43-.505 2.94-1.124 4.555-.344.371.183.724.428 1.043.813l.045.033-.008.014c.244.25.63.727.793 1.488.064-.258.09-.51.055-.773a2.94 2.94 0 0 0-.848-1.717l.008-.012-.045-.033a3.083 3.083 0 0 0-1.043-.815 3.682 3.682 0 0 0-1.775-.365z" opacity=".1" fill="#F9F5D7" fill-rule="evenodd"/>
        <rect width="16.087" height="5.362" x="833.76" y="591.83" rx="2.681" ry="2.681" transform="rotate(53.609)" opacity=".2"/>
        <rect width="16.087" height="5.362" x="832.96" y="591.24" rx="2.681" ry="2.681" transform="rotate(53.609)" fill="#F9BD2E"/>
        <path d="M17.572 1022.364a2.676 2.676 0 0 0-1.478.524 2.668 2.668 0 0 0-1.037 2.652 2.674 2.674 0 0 1 4.785-1.084l6.363 8.633c.248.336.396.71.469 1.094a2.663 2.663 0 0 0-.469-2.094l-6.363-8.633a2.675 2.675 0 0 0-2.27-1.092z" opacity=".2" fill="#F9F5D7"/>
    </g>
</svg>
