<?xml version="1.0" encoding="UTF-8" standalone="no"?>
<!-- Created with Inkscape (http://www.inkscape.org/) -->

<svg
   xmlns:dc="http://purl.org/dc/elements/1.1/"
   xmlns:cc="http://creativecommons.org/ns#"
   xmlns:rdf="http://www.w3.org/1999/02/22-rdf-syntax-ns#"
   xmlns:svg="http://www.w3.org/2000/svg"
   xmlns="http://www.w3.org/2000/svg"
   xmlns:sodipodi="http://sodipodi.sourceforge.net/DTD/sodipodi-0.dtd"
   xmlns:inkscape="http://www.inkscape.org/namespaces/inkscape"
   width="48"
   height="48"
   viewBox="0 0 12.7 12.7"
   version="1.1"
   id="svg1339"
   inkscape:version="0.92.4 5da689c313, 2019-01-14"
   sodipodi:docname="drawing2.svg">
  <defs
     id="defs1333" />
  <sodipodi:namedview
     id="base"
     pagecolor="#ffffff"
     bordercolor="#666666"
     borderopacity="1.0"
     inkscape:pageopacity="0.0"
     inkscape:pageshadow="2"
     inkscape:zoom="5.6"
     inkscape:cx="7.0399015"
     inkscape:cy="32.337199"
     inkscape:document-units="px"
     inkscape:current-layer="layer1"
     showgrid="false"
     units="px"
     inkscape:window-width="1312"
     inkscape:window-height="714"
     inkscape:window-x="54"
     inkscape:window-y="24"
     inkscape:window-maximized="1" />
  <metadata
     id="metadata1336">
    <rdf:RDF>
      <cc:Work
         rdf:about="">
        <dc:format>image/svg+xml</dc:format>
        <dc:type
           rdf:resource="http://purl.org/dc/dcmitype/StillImage" />
        <dc:title></dc:title>
      </cc:Work>
    </rdf:RDF>
  </metadata>
  <g
     inkscape:label="Layer 1"
     inkscape:groupmode="layer"
     id="layer1"
     transform="translate(0,-284.29999)">
    <path
       style="display:inline;vector-effect:none;fill:#898989;fill-opacity:1;stroke-width:0.26458332;stroke-linecap:square;stroke-opacity:0.5;enable-background:new"
       d="M 2.9126732,285.29218 H 9.79184 c 0.439738,0 0.829289,0.35545 0.79375,0.79375 l -0.79375,9.78958 c -2.1166667,0.79375 -4.7625,0.79375 -6.8791668,0 l -0.79375,-9.78958 c -0.035539,-0.4383 0.3540125,-0.79375 0.79375,-0.79375 z"
       id="path1160"
       inkscape:connector-curvature="0"
       sodipodi:nodetypes="sssccss" />
    <path
       style="display:inline;vector-effect:none;fill:#000000;fill-opacity:0.5;stroke-width:0.26458332;stroke-linecap:square;stroke-opacity:0.5;enable-background:new"
       d="m 2.9126732,285.29218 c -0.4397375,0 -0.8292888,0.35545 -0.79375,0.79375 l 0.79375,9.78958 c 2.1166668,0.79375 4.7625001,0.79375 6.8791668,0 l 0.79375,-9.78958 c 0.03554,-0.4383 -0.354012,-0.79375 -0.79375,-0.79375 z m 0,0.26458 H 3.1772566 9.5272567 9.79184 c 0.293158,0 0.529167,0.23601 0.529167,0.52917 v 0.26458 l -0.7937503,8.73125 c -2.1166667,0.79375 -4.2333334,0.79375 -6.3500001,0 l -0.7937501,-8.73125 v -0.26458 c 0,-0.29316 0.2360084,-0.52917 0.5291667,-0.52917 z"
       id="path1162"
       inkscape:connector-curvature="0" />
    <g
       id="g1698"
       style="display:inline;stroke-width:1.33333337;stroke-miterlimit:4;stroke-dasharray:none;enable-background:new"
       transform="matrix(0.1984375,0,0,0.1984375,-44.712326,299.38124)">
      <path
         inkscape:connector-curvature="0"
         id="path1688"
         d="m 247.5,-52.5 -5,-4 5,-7 3,3 7,-6 10,4 4,7 -8,4 1,8 -7,3 -3,-5 -9,2 -3,-5 z"
         style="fill:#ededed;fill-opacity:1;stroke:none;stroke-width:1.33333337;stroke-linecap:butt;stroke-linejoin:miter;stroke-miterlimit:4;stroke-dasharray:none;stroke-opacity:1" />
      <path
         inkscape:connector-curvature="0"
         id="path1690"
         d="m 247.5,-52.5 5,-4"
         style="opacity:1;fill:none;fill-opacity:1;stroke:#898989;stroke-width:1.33333337;stroke-linecap:butt;stroke-linejoin:miter;stroke-miterlimit:4;stroke-dasharray:none;stroke-opacity:1" />
      <path
         inkscape:connector-curvature="0"
         id="path1692"
         d="m 250.5,-60.5 5.5,5.5 3.5,5.5"
         style="opacity:1;fill:none;fill-opacity:1;stroke:#898989;stroke-width:1.33333337;stroke-linecap:butt;stroke-linejoin:miter;stroke-miterlimit:4;stroke-dasharray:none;stroke-opacity:1" />
      <path
         inkscape:connector-curvature="0"
         id="path1694"
         d="m 263.5,-51.5 -2,-10"
         style="opacity:1;fill:none;fill-opacity:1;stroke:#898989;stroke-width:1.33333337;stroke-linecap:butt;stroke-linejoin:miter;stroke-miterlimit:4;stroke-dasharray:none;stroke-opacity:1" />
      <path
         inkscape:connector-curvature="0"
         id="path1696"
         d="m 254.5,-45.5 -3,-5"
         style="opacity:1;fill:none;fill-opacity:1;stroke:#898989;stroke-width:1.33333337;stroke-linecap:butt;stroke-linejoin:miter;stroke-miterlimit:4;stroke-dasharray:none;stroke-opacity:1" />
    </g>
    <g
       id="g1710"
       transform="matrix(0.03034927,0.19610294,-0.19610294,0.03034927,-12.104375,243.46272)"
       style="display:inline;stroke-width:1.33333337;stroke-miterlimit:4;stroke-dasharray:none;enable-background:new">
      <path
         style="fill:#ededed;fill-opacity:1;stroke:none;stroke-width:1.33333337;stroke-linecap:butt;stroke-linejoin:miter;stroke-miterlimit:4;stroke-dasharray:none;stroke-opacity:1"
         d="m 247.5,-52.5 -5,-4 5,-7 3,3 7,-6 10,4 4,7 -8,4 1,8 -7,3 -3,-5 -9,2 -3,-5 z"
         id="path1700"
         inkscape:connector-curvature="0" />
      <path
         style="opacity:1;fill:none;fill-opacity:1;stroke:#898989;stroke-width:1.33333337;stroke-linecap:butt;stroke-linejoin:miter;stroke-miterlimit:4;stroke-dasharray:none;stroke-opacity:1"
         d="m 247.5,-52.5 5,-4"
         id="path1702"
         inkscape:connector-curvature="0" />
      <path
         style="opacity:1;fill:none;fill-opacity:1;stroke:#898989;stroke-width:1.33333337;stroke-linecap:butt;stroke-linejoin:miter;stroke-miterlimit:4;stroke-dasharray:none;stroke-opacity:1"
         d="m 250.5,-60.5 5.5,5.5 3.5,5.5"
         id="path1704"
         inkscape:connector-curvature="0" />
      <path
         style="opacity:1;fill:none;fill-opacity:1;stroke:#898989;stroke-width:1.33333337;stroke-linecap:butt;stroke-linejoin:miter;stroke-miterlimit:4;stroke-dasharray:none;stroke-opacity:1"
         d="m 263.5,-51.5 -2,-10"
         id="path1706"
         inkscape:connector-curvature="0" />
      <path
         style="opacity:1;fill:none;fill-opacity:1;stroke:#898989;stroke-width:1.33333337;stroke-linecap:butt;stroke-linejoin:miter;stroke-miterlimit:4;stroke-dasharray:none;stroke-opacity:1"
         d="m 254.5,-45.5 -3,-5"
         id="path1708"
         inkscape:connector-curvature="0" />
    </g>
  </g>
</svg>
