<svg xmlns="http://www.w3.org/2000/svg" width="32" height="32">
    <g fill="none" stroke="#7B6F64" stroke-width="1.535" stroke-linecap="round" stroke-linejoin="round">
        <path d="M6.5 2.5l-1 1v26l1 1h20l.999-1v-19l-8-8z" stroke-width="1.00006785"/>
        <path d="M19.5 2.5l8 8H20.5l-1-1z" stroke-width="1.00006785"/>
    </g>
    <g transform="scale(1 1) translate(5.5 8)" id="g2522">     <g fill="#FD8019">
        <path d="M2.75 2.75v16.5h16.5V2.75H16.5V5.5h-2.75V2.75h-5.5V5.5H5.5V2.75zm1.375 4.125h13.75v11H4.125zm0 0"/>
        <path d="M9.625 12.375V16.5H11v-1.375h4.125V16.5H16.5v-4.125h-1.375v1.375H11v-1.375zM5.5 8.25v4.125h1.375V11h5.5v1.375h1.375V8.25h-1.375v1.375h-5.5V8.25zm0 0"/>
    </g>
    </g>
</svg>
