<svg xmlns="http://www.w3.org/2000/svg" width="32" height="32">
    <g fill="none" stroke="#7B6F64" stroke-width="1.535" stroke-linecap="round" stroke-linejoin="round">
        <path d="M6.5 2.5l-1 1v26l1 1h20l.999-1v-19l-8-8z" stroke-width="1.00006785"/>
        <path d="M19.5 2.5l8 8H20.5l-1-1z" stroke-width="1.00006785"/>
    </g>
    <g transform="scale(1 1) translate(5.5 8)" id="g2522">     <path d="M11 2.75C9.527 8 5.5 11.102 5.5 14c0 2.898 2.46 5.25 5.5 5.25s5.5-2.352 5.5-5.25S12.473 8 11 2.75m3.781 8.57c.606.774.93 1.715.934 2.68 0 2.484-2.11 4.5-4.715 4.5a4.849 4.849 0 0 1-2.8-.887c.402.09.816.137 1.23.137 3.035 0 5.5-2.352 5.5-5.25a5.218 5.218 0 0 0-.149-1.18" fill="#48B9C7"/>
    </g>
</svg>
