<svg xmlns="http://www.w3.org/2000/svg" width="32" height="32">
    <g fill="none" stroke="#7B6F64" stroke-width="1.535" stroke-linecap="round" stroke-linejoin="round">
        <path d="M6.5 2.5l-1 1v26l1 1h20l.999-1v-19l-8-8z" stroke-width="1.00006785"/>
        <path d="M19.5 2.5l8 8H20.5l-1-1z" stroke-width="1.00006785"/>
    </g>
    <g transform="scale(1 1) translate(5.5 8)" id="g2522">     <path d="M9.594 2.75v1.547c-1.215.105-2.172.398-2.88.945-.78.594-1.167 1.477-1.167 2.621 0 1.602 1.004 2.64 3.058 3.137l.989.258v5.07c-1.278-.105-2.473-.375-3.598-.902L5.5 16.672c.46.27 1.082.523 1.844.73.672.18 1.426.258 2.25.301v1.547h1.441v-1.547c1.223-.094 2.207-.45 2.922-1.074.77-.664 1.168-1.625 1.168-2.879 0-1.012-.285-1.77-.852-2.316-.566-.555-1.421-.954-2.52-1.204l-.718-.171v-4.47c.555.04 1.133.114 1.664.259.61.156 1.067.359 1.438.558l.449-1.246c-.918-.55-2.102-.879-3.55-.945V2.75zm-.317 2.879c.098-.016.215.012.317 0V9.71l-.406-.086C8.511 9.469 8 9.235 7.66 8.937c-.336-.3-.496-.707-.496-1.203 0-1.175.695-1.879 2.113-2.105m1.754 5.93l.27.086c.832.199 1.398.468 1.71.82.317.344.45.812.45 1.375 0 1.555-.809 2.383-2.43 2.535zm0 0"/>
    </g>
</svg>
