<svg xmlns="http://www.w3.org/2000/svg" width="32" height="32">
    <g fill="none" stroke="#7B6F64" stroke-width="1.535" stroke-linecap="round" stroke-linejoin="round">
        <path d="M6.5 2.5l-1 1v26l1 1h20l.999-1v-19l-8-8z" stroke-width="1.00006785"/>
        <path d="M19.5 2.5l8 8H20.5l-1-1z" stroke-width="1.00006785"/>
    </g>
    <g transform="scale(1 1) translate(5.5 8)" id="g2522">     <path d="M2.75 2.75v16.5h16.5V2.75zm1.375 1.375h13.75v11H4.125zM5.5 5.5v4.125h4.125v-2.75H8.25L7.012 5.5zm-1.375 11H5.5v1.375H4.125zm2.75 0h5.5v1.375h-5.5zm6.875 0h1.375v1.375H13.75zm2.75 0h1.375v1.375H16.5zm0 0" fill="#7B6F64"/>
    </g>
</svg>
