<svg xmlns="http://www.w3.org/2000/svg" width="32" height="32">
    <g fill="none" stroke="#7B6F64" stroke-width="1.535" stroke-linecap="round" stroke-linejoin="round">
        <path d="M6.5 2.5l-1 1v26l1 1h20l.999-1v-19l-8-8z" stroke-width="1.00006785"/>
        <path d="M19.5 2.5l8 8H20.5l-1-1z" stroke-width="1.00006785"/>
    </g>
    <g transform="scale(1 1) translate(5.5 8)" id="g2522">     <path d="M11 2.75c-4.555 0-8.25 1.23-8.25 2.75V11c.004 1.34 2.906 2.484 6.875 2.71v2.79h-2.75v-1.375H2.75v4.125h4.125v-1.375h8.25v1.375h4.125v-4.125h-4.125V16.5h-2.75v-2.79c3.969-.222 6.871-1.37 6.875-2.71h-1.375c0 .758-3.078 1.375-6.875 1.375S4.125 11.758 4.125 11V7.016C5.648 7.786 8.23 8.25 11 8.25V6.875c-3.797 0-6.875-.617-6.875-1.375S7.203 4.125 11 4.125zm1.375 0v4.125h1.375V5.5h.688c1.144 0 2.062.918 2.062 2.063a2.056 2.056 0 0 1-2.063 2.062h-2.062V11h2.063a3.428 3.428 0 0 0 3.437-3.438 3.428 3.428 0 0 0-3.438-3.437H16.5V2.75zM4.125 16.5H5.5v1.375H4.125zm12.375 0h1.375v1.375H16.5zm0 0" fill="#8F3F71"/>
    </g>
</svg>
