<svg xmlns="http://www.w3.org/2000/svg" width="32" height="32">
    <g fill="none" stroke="#7B6F64" stroke-width="1.535" stroke-linecap="round" stroke-linejoin="round">
        <path d="M6.5 2.5l-1 1v26l1 1h20l.999-1v-19l-8-8z" stroke-width="1.00006785"/>
        <path d="M19.5 2.5l8 8H20.5l-1-1z" stroke-width="1.00006785"/>
    </g>
    <g transform="scale(1 1) translate(5.5 8)" id="g2522">     <path d="M8.25 2.75V5.5h1.375V2.75zm4.125 0V5.5h1.375V2.75zm5.332 1.367l-1.23 2.07 1.203.688 1.23-2.113zm-13.426.094l-1.16.687 1.274 2.07 1.16-.687zM5.5 6.875l-2.75 2.75L11 19.25l8.25-9.625-2.75-2.75zm.602 1.375h4.21v1.375H4.728zm5.585 0h4.215l1.375 1.375h-5.59zM5.715 11h4.598v5.344zm5.973 0h4.597l-4.598 5.344zm0 0" fill="#7B6F64"/>
    </g>
</svg>
