<svg xmlns="http://www.w3.org/2000/svg" width="32" height="32">
    <g fill="none" stroke="#7B6F64" stroke-width="1.535" stroke-linecap="round" stroke-linejoin="round">
        <path d="M6.5 2.5l-1 1v26l1 1h20l.999-1v-19l-8-8z" stroke-width="1.00006785"/>
        <path d="M19.5 2.5l8 8H20.5l-1-1z" stroke-width="1.00006785"/>
    </g>
    <g transform="scale(1 1) translate(5.5 8)" id="g2522">     <path d="M13.188 8.305c.023-.16.039-.325.039-.492 0-.168-.016-.333-.04-.497l1.07-.836a.252.252 0 0 0 .063-.324l-1.011-1.75a.25.25 0 0 0-.309-.11l-1.262.509a3.71 3.71 0 0 0-.855-.496l-.188-1.34a.263.263 0 0 0-.254-.215H8.418a.259.259 0 0 0-.25.215l-.188 1.34a3.88 3.88 0 0 0-.855.496l-1.262-.508a.254.254 0 0 0-.308.11l-1.012 1.75a.253.253 0 0 0 .062.323l1.067.836c-.02.164-.035.329-.035.497 0 .164.015.332.035.492l-1.067.836a.253.253 0 0 0-.062.324l1.012 1.754c.066.105.195.152.308.105l1.262-.508c.258.2.543.371.855.5l.188 1.34a.26.26 0 0 0 .25.211h2.023c.125 0 .23-.094.25-.21l.192-1.34c.308-.13.594-.297.855-.5l1.258.507c.113.043.246 0 .309-.105l1.011-1.754a.258.258 0 0 0-.058-.324zM9.434 9.582a1.769 1.769 0 1 1 0-3.539 1.769 1.769 0 1 1 0 3.539m6.648 7.66c.07-.097.14-.195.195-.305.059-.105.106-.218.153-.328l.98-.16a.19.19 0 0 0 .152-.187l-.035-1.48a.188.188 0 0 0-.16-.18l-.988-.118a2.864 2.864 0 0 0-.375-.617l.348-.93a.192.192 0 0 0-.086-.226l-1.301-.707a.18.18 0 0 0-.235.047l-.59.797a2.657 2.657 0 0 0-.726.02l-.629-.77a.19.19 0 0 0-.238-.04l-1.262.774a.181.181 0 0 0-.074.23l.39.91a2.7 2.7 0 0 0-.195.305c-.058.11-.105.22-.152.328l-.977.165a.182.182 0 0 0-.152.187l.035 1.48c0 .094.07.168.16.18l.985.113c.097.223.222.43.375.622l-.348.93a.19.19 0 0 0 .086.222l1.3.71a.19.19 0 0 0 .235-.046l.594-.797c.242.027.484.02.723-.02l.628.77c.059.067.16.086.239.035l1.265-.77a.19.19 0 0 0 .075-.23zm-2.863-.496a1.297 1.297 0 1 1 1.247-2.275 1.297 1.297 0 0 1-1.247 2.275" fill="#7B6F64"/>
    </g>
</svg>
