<svg xmlns="http://www.w3.org/2000/svg" width="32" height="32">
    <g fill="none" stroke="#7B6F64" stroke-width="1.535" stroke-linecap="round" stroke-linejoin="round">
        <path d="M6.5 2.5l-1 1v26l1 1h20l.999-1v-19l-8-8z" stroke-width="1.00006785"/>
        <path d="M19.5 2.5l8 8H20.5l-1-1z" stroke-width="1.00006785"/>
    </g>
    <g transform="scale(1 1) translate(5.5 8)" id="g2522">     <path d="M2.75 2.75v16.5h16.5V2.75zm1.375 1.375h2.629c.078.219.121.453.121.688a2.066 2.066 0 0 1-2.063 2.062c-.234 0-.468-.043-.687-.121zm4.05 0h9.696v13.75H4.121v-1.078l1.824-1.785 1.934-1.93.777.574 1.516 1.469 3.574-3.297 5.5 5.352-1.375-3.43-4.125-4.125-3.574 3.578L7.972 11l-3.85 3.852V8.18a3.438 3.438 0 0 0 4.125-3.367 3.703 3.703 0 0 0-.075-.688" fill="#F9BD2E"/>
    </g>
</svg>
