<svg xmlns="http://www.w3.org/2000/svg" width="32" height="32">
    <g fill="none" stroke="#7B6F64" stroke-width="1.535" stroke-linecap="round" stroke-linejoin="round">
        <path d="M6.5 2.5l-1 1v26l1 1h20l.999-1v-19l-8-8z" stroke-width="1.00006785"/>
        <path d="M19.5 2.5l8 8H20.5l-1-1z" stroke-width="1.00006785"/>
    </g>
    <g transform="scale(1 1) translate(5.5 8)" id="g2522">     <path d="M11 2.75A8.247 8.247 0 0 0 2.75 11 8.247 8.247 0 0 0 11 19.25 8.247 8.247 0 0 0 19.25 11 8.247 8.247 0 0 0 11 2.75m0 1.375c.238 0 .457.02.688.043h.171c.075.012.145.031.215.043.2.031.367.082.559.129.351.086.703.203 1.031.344.18.078.34.168.516.257v.043c.039.02.062.094.129.13.023.015.02.03.043.042.039.024.093.047.085.086-.011.055-.09.043-.128.086.004.078-.067.074-.086.129.011.035.082.043.086.086-.008.043-.102.039-.086.082.074.059.144.016.214 0 .153-.02.29-.012.387-.082-.015-.074.137-.066.13-.133.038.031.089.059.128.086-.016.016-.027.035-.043.043-.031.016-.059.027-.086.043-.039.023-.086.059-.129.086-.035.023-.097.129-.133.129-.039 0-.097-.05-.129-.043-.039.016-.039.07-.085.086-.09.031-.27-.05-.301.086.039.078.191.043.258.086a.393.393 0 0 1 .129.172.714.714 0 0 1 0 .257c-.043.11-.172.086-.301.086h-.086c-.211-.015-.418-.113-.516.043.008.114.027.2 0 .301-.02.074-.133.149-.129.215 0 .031.078.082.086.129.008.023-.012.058 0 .082.035.07.11-.012.172 0 .063.016.129.105.129.172a.34.34 0 0 1-.043.172c-.059.093-.172.082-.258.132-.07.04-.086.141-.129.211-.043.079-.105.106-.086.215a.51.51 0 0 1-.257.262c-.04.016-.098.016-.13.039-.027.02-.046.086-.085.133-.051.05-.106.086-.133.129-.02.031-.02.082-.04.129-.03.054-.093.07-.132.129-.016.027-.023.093-.04.128-.046.079-.097.145-.089.215.008.067.082.067.09.13.004.03-.047.05-.043.085 0 .05.035.086.043.129.008.102-.07.145-.09.215-.008.031.008.058 0 .086-.016.05-.082.11-.086.172 0 .039.082.066.086.129.004.039-.05.09-.043.129.016.074.16.156.215.214.078.078.18.13.215.215.031.067.035.203.086.258.043.04.12.043.172.086.05.035.078.043.132.082.082.066.207.227.344.215.067-.012.133-.07.211-.086.082-.012.176-.047.262-.04.062.013.148.044.215.04.066-.012.133-.012.21-.04.137-.062.364-.16.56-.132.152.023.152.191.26.262.118.011.204-.024.302 0 .07.015.164.113.172.172.004.058-.079.132-.09.171-.02.079.015.16 0 .215-.008.04-.043.086-.04.13 0 .034.048.124.087.171.043.055.117.11.171.172.098.113.145.23.215.387.016.035-.02.078 0 .129-.03.23-.109.386-.261.644-.07.082-.172.152-.172.258-.004.246.14.406.133.644-.028.32.023.344 0 .516.105.055.03.23 0 .344-.047.137-.106.168-.133.258.074.03.18.02.261 0-.043.043-.09.086-.128.129a7.207 7.207 0 0 1-1.032.859c-.71.48-1.5.844-2.367 1.031-.473.106-.957.13-1.46.13-.263 0-.52-.013-.774-.044-.203-.023-.406-.043-.602-.082-.39-.082-.754-.246-1.117-.387-.012-.023-.047-.058-.043-.086.07-.03.207.102.258 0 .027-.046-.035-.168 0-.214.023-.036.164-.036.215-.043.074-.016.172-.024.215-.043.043-.028.093-.13.085-.215-.003-.04-.054-.047-.085-.086-.028-.027.015-.055 0-.082-.036-.05-.118-.063-.13-.133.098-.016.243.086.387.043.067-.02.18-.148.215-.215.008-.015-.012-.058 0-.082l.04-.086c.011-.039-.009-.02 0-.043.027-.07.09-.12.132-.172.031-.039.098-.09.129-.129.031-.043.02-.046.043-.085.02-.126-.074-.235-.043-.344.031-.125.223-.203.344-.258.039-.02.093-.031.129-.043.082-.031.18-.059.257-.086.13-.047.153-.14.215-.258a.83.83 0 0 0 .086-.172c.004-.035-.008-.043 0-.086.008-.039-.011-.082 0-.129.016-.058.043-.19.043-.257 0-.055-.043-.082-.043-.13-.008-.179.063-.16.13-.257.034-.05.062-.14.085-.172.113-.168.316-.223.3-.476-.003-.082-.066-.274-.128-.301-.035-.016-.078-.024-.129-.043-.16-.059-.305-.242-.473-.258h-.086c-.066 0-.14-.031-.214-.043-.047-.012-.145.016-.172 0-.043-.02-.051-.105-.086-.129-.028-.02-.086-.027-.13-.043-.07-.023-.093-.078-.171-.082-.027 0-.059.012-.086 0-.043-.016-.09-.02-.133-.043-.047-.031-.105-.043-.129-.086.047-.148-.097-.172-.129-.258-.011-.043.016-.136 0-.171-.015-.051-.07-.09-.128-.13a.52.52 0 0 0-.301-.132c-.063-.012-.137.015-.215 0a.464.464 0 0 1-.258-.13c-.059-.066-.078-.14-.129-.171-.047-.027-.097-.055-.129-.082-.015-.016-.031-.016-.043-.043-.023-.05-.074-.07-.043-.129-.054-.031-.027.05-.086.04-.054-.075-.093-.15-.214-.13-.055.016-.11.13-.172.13-.055 0-.102-.118-.172-.13-.055-.011-.137.051-.172.043-.059-.011-.074-.047-.129-.086-.039-.023-.11-.086-.129-.082-.07 0-.121.133-.215.082-.047-.058.098-.074.043-.129-.043-.039-.054.024-.086.043-.039.028-.09.028-.133.043-.093.035-.183.047-.257.086a.259.259 0 0 0-.13.13c-.03.058-.081.167-.128.171-.059 0-.078-.062-.129-.086-.156-.066-.254.04-.387.043-.12 0-.304-.187-.3-.3.003-.071.035-.173.042-.259.008-.07.086-.152.086-.214 0-.086-.16-.121-.214-.13-.13-.023-.282.06-.43 0-.027-.046.027-.081.043-.128.008-.028-.012-.059 0-.086.015-.043.11-.082.129-.129.015-.035-.016-.086 0-.129.02-.05.082-.094.086-.129.007-.047-.047-.101-.086-.129-.114.012-.192.012-.258.043-.149.067-.11.254-.258.301a2.21 2.21 0 0 1-.172.043c-.027.012-.058 0-.086 0 0-.016-.004-.031 0-.043.004-.031.035-.055.04-.086.097-.45.25-.879.433-1.289h.043c.05.012.082.082.129.082.125.016.152-.113.258-.172.105.016.16-.012.257 0 .067.016.16.082.215.086.043 0 .043-.047.086-.043.043.016.121.082.13.129.007.063-.06.148-.044.215.067.066.211.094.3.129.063-.051.013-.14 0-.211 0-.035.005-.102 0-.133-.003-.047-.042-.086-.042-.129 0-.195.172-.265.3-.344.06-.03.126-.101.173-.129.07-.03.117-.011.171-.043.106-.058.18-.148.262-.214.035-.086-.004-.211 0-.301.035-.024.09 0 .13 0 .062-.012.093-.094.128-.129.02-.02.059-.02.086-.043.062-.047.074-.105.129-.129a.584.584 0 0 1 .086-.043c.043-.012.105-.016.172-.043.043-.012.156-.023.172-.039.023-.023-.004-.098 0-.133.035-.152.25-.16.386-.21.098-.04.196-.15.301-.133-.02.074-.101.085-.086.171.024.13.172-.023.215-.039.082-.039.234-.09.344-.132.097-.032.261-.06.172-.172-.075-.012-.106.062-.172.086-.047.015-.047-.04-.086-.043-.04 0-.047.05-.086.043-.04-.012-.082-.082-.09-.13-.012-.113.086-.128.133-.214-.035-.102-.172-.043-.262-.086a.167.167 0 0 1 .129-.129.552.552 0 0 1 .262.043c.02.02-.032.059 0 .086.035.031.082.016.129 0 .015-.078-.102-.035-.086-.086.093-.059.27-.027.383-.043a.842.842 0 0 0 .214-.082c.055-.035.075-.098.13-.043.019.055-.009.098-.04.129a2.22 2.22 0 0 0-.305.3c.055.051.133.032.215.044.036.011.098 0 .13 0 .042.011.097-.016.132 0 .055.011.07.129.129.129.094 0 .05-.11 0-.172.016-.067.066-.13.043-.172-.043-.086-.207.023-.215-.086-.008-.07.059-.078.086-.129-.012-.133.098-.14.086-.258-.008-.05-.05-.039-.086-.086-.02-.023-.023-.11-.043-.129-.07-.062-.207-.015-.215-.129-.004-.07.008-.144 0-.214s-.07-.29-.129-.301c-.078-.016-.12.129-.215.172a.528.528 0 0 1-.214.043c-.032-.016-.082-.024-.086-.086-.004-.059.062-.086.086-.13.007-.015-.004-.027 0-.042.101-.028.199-.063.3-.086.059-.016.114-.031.172-.043.043-.012.09.016.13 0a6.696 6.696 0 0 1 1.246-.129zm-2.793.645c-.043.25-.277.351-.559.343-.062.063-.007.176-.043.258-.027.07-.144.137-.214.129-.051 0-.13-.078-.13-.129 0-.059.094-.062.044-.129.004-.012.03-.027.043-.043.027-.015.058-.023.086-.043.25-.152.503-.265.773-.386m5.762.257c-.028.016-.024.032-.043.043-.055.032-.09.07-.13.086-.058.02-.12.035-.128.086-.008.043.043.047.039.086-.02.05-.031.067-.039.129.066.113.21-.027.3-.043.036-.016.063-.016.087-.043.023-.039.023-.078.043-.129.02-.058.093-.078.086-.129-.008-.05-.13-.093-.215-.086zm-7.52.86c.063.054.156.168.04.215a.579.579 0 0 1-.212.043c-.015 0-.035-.032-.043-.043.07-.067.141-.149.215-.215m.258.258c.031 0 .047.085.086.085.035 0 .062-.046.086-.043.059.016.098.13.043.172-.047.016-.055-.046-.086-.043-.094.02-.145.223-.215.215-.066-.011-.11-.164-.043-.215 0-.039-.004-.039 0-.082.02-.027.074-.09.129-.086zm-.344.043c.02 0 .035-.012.043 0-.011.074-.031.097-.09.128-.097.063-.18.133-.21.262-.012.035-.13.137-.172.129-.11-.023.058-.227.086-.258.027-.035.054-.047.085-.086.032-.039.055-.11.086-.129a.33.33 0 0 1 .172-.043zm9.324.214c.106-.011.165.106.215.172a.78.78 0 0 0 .211.172c.04.024.09.07.133.086.086.04.25.168.258.258 0 .047-.05.09-.043.129.066.015.129-.102.129-.172.125.18.234.371.344.558.05.09.125.168.171.258-.062.02-.074.028-.085.086-.016.078.027.203-.086.215-.075.016-.16-.062-.262-.086-.04-.012-.094.016-.129 0-.074-.023-.063-.125-.129-.172a.666.666 0 0 0-.215-.082c-.035 0-.047.012-.086 0-.047-.015-.133.016-.172 0-.035-.023-.12-.097-.129-.133-.015-.05.126-.082.13-.128.003-.032-.036-.079-.044-.13-.003-.027.008-.062 0-.085-.007-.035-.07-.04-.128-.04h-.517c-.12.012-.206-.015-.3 0-.07 0-.195.055-.262.083-.03.015-.043.023-.086.043-.02.015-.058.03-.085.043-.04.02-.09.074-.13.085-.054.016-.117-.015-.214 0-.07 0-.172-.046-.172-.128 0-.13.223-.063.344-.086.047-.012.074-.051.129-.086.027-.016.02-.024.043-.043.043-.028.12-.094.128-.13.008-.027-.003-.062 0-.085.008-.027.051-.047.086-.082.059-.059.102-.137.172-.172.051-.027.11-.047.13-.086.007-.043 0-.043 0-.086a.172.172 0 0 1 .089-.043c.074-.015.125 0 .215 0 .035 0 .086.02.129 0 .031-.023.05-.07.086-.086a.359.359 0 0 1 .129-.043zm.774.817h-.172c-.062 0-.137-.032-.172 0 .051.082.145.11.258.129.043-.028.066-.075.086-.13m-9.41-.773h.129c.035 0 .074-.011.086 0-.02.09-.227.078-.301.043.004-.035.043-.035.086-.043m-.301.172c-.059.043-.117.102-.215.13-.05.015-.117.015-.129-.044-.008-.07.082-.035.13-.043.062-.012.144-.039.214-.039zm8.938 0c-.043.016-.067.117 0 .13.03-.02.05-.071.042-.13-.015-.02-.027-.012-.043 0m-.085.215c0 .078.015.148 0 .215.043.086.152.016.171-.043.028-.145-.02-.188-.085-.172-.024.016-.063-.016-.086 0M4.215 10.055c.078.07.12.168.215.215a.996.996 0 0 0 .129.043c.035.011.05-.016.086 0 .074.023.156.058.214.082.086.039.18.171.258.214.004.047-.012.098 0 .13.035.05.07.097.13.132.07.035.105.098.171.129.023.012.05-.016.086 0 .094.027.137.152.215.129.05-.016.035-.082.043-.129.035-.04.078-.086.129-.086.086 0 .097.133.129.215.02.047.074.078.09.129.019.086.015.336 0 .387-.024.062-.122.058-.173.128-.027.032-.023.106-.042.13-.036.038-.063.046-.09.085-.012.02-.028.059-.04.086-.042.086-.12.153-.09.258.016.043.09.078.09.129 0 .059-.12.105-.132.172-.004.047.031.105.043.172.011.047.101.097.129.129.05.054.086.148.133.214.085.133.128.297.21.43.047.067.145.102.172.172.016.035-.011.098 0 .129.051.113.278.246.387.3.055.028.125.016.172.044.074.043.223.152.262.214.03.06.023.211.039.301.023.121-.004.215 0 .344.008.07.043.102.043.172 0 .023.004.101 0 .129 0 .086.007.172 0 .258-.004.046 0 .09 0 .129.004.043.043.05.043.085.004.04-.047.098-.043.13.011.09.07.136.09.214.011.063.05.227.039.301-.004.043-.036.086-.04.129-.003.039.004.055 0 .086-.003.031.008.058 0 .086-.046-.028-.085-.055-.132-.086a7.207 7.207 0 0 1-1.032-.86c-.039-.043-.085-.085-.128-.128a7.363 7.363 0 0 1-.688-.86c-.02-.027-.023-.058-.043-.086a6.961 6.961 0 0 1-.601-1.117c-.012-.027-.032-.055-.043-.086a7.123 7.123 0 0 1-.344-1.117c-.016-.07-.028-.14-.043-.215-.031-.184-.067-.367-.086-.559A6.628 6.628 0 0 1 4.129 11c0-.328.043-.633.09-.945m2.664.73c.066-.031.05.074 0 .086-.051.012-.051-.062 0-.086" fill="#7B6F64"/>
    </g>
</svg>
