<svg xmlns="http://www.w3.org/2000/svg" width="32" height="32">
    <g fill="none" stroke="#7B6F64" stroke-width="1.535" stroke-linecap="round" stroke-linejoin="round">
        <path d="M6.5 2.5l-1 1v26l1 1h20l.999-1v-19l-8-8z" stroke-width="1.00006785"/>
        <path d="M19.5 2.5l8 8H20.5l-1-1z" stroke-width="1.00006785"/>
    </g>
    <g transform="scale(1 1) translate(5.5 8)" id="g2522">     <g fill="#066678">
        <path d="M11 2.75v1.375H9.625V5.5H11v1.375h1.375V5.5h1.375V4.125h-1.375V2.75zm5.5 0v1.375h-1.375V5.5H16.5v1.375h1.375V5.5h1.375V4.125h-1.375V2.75zm0 0"/>
        <path d="M8.25 8.25c-3.04 0-5.5 2.46-5.5 5.5a5.498 5.498 0 0 0 9.387 3.887l-.973-.973a4.122 4.122 0 0 1-2.914 1.211 4.126 4.126 0 0 1 0-8.25c1.094 0 2.14.438 2.914 1.21l.973-.972A5.5 5.5 0 0 0 8.25 8.25zm0 0" fill-rule="evenodd"/>
    </g>
    </g>
</svg>
