<svg xmlns="http://www.w3.org/2000/svg" width="32" height="32">
    <g fill="none" stroke="#7B6F64" stroke-width="1.535" stroke-linecap="round" stroke-linejoin="round">
        <path d="M6.5 2.5l-1 1v26l1 1h20l.999-1v-19l-8-8z" stroke-width="1.00006785"/>
        <path d="M19.5 2.5l8 8H20.5l-1-1z" stroke-width="1.00006785"/>
    </g>
    <g transform="scale(1 1) translate(5.5 8)" id="g2522">     <path d="M2.75 2.75v1.375H11V2.75zm0 4.125V8.25h16.5V6.875zm0 4.125v1.375h6.875V11zm9.625 0v4.125H11v.023l4.102 4.102h.043l4.105-4.102v-.023h-1.375V11zm1.375 1.375h2.75v2.75h.824l-2.199 2.203-2.2-2.203h.825zm-11 1.375v1.375h4.125V13.75zm0 4.125v1.375h6.875v-1.375zm0 0" fill="#FA4934"/>
    </g>
</svg>
