<svg width="64" xmlns="http://www.w3.org/2000/svg" height="64" xmlns:xlink="http://www.w3.org/1999/xlink">
    <defs>
        <linearGradient id="a">
            <stop stop-color="#7CB668"/>
            <stop offset="1" stop-color="#8DC07B"/>
        </linearGradient>
        <linearGradient xlink:href="#a" id="h" y1="54" y2="12" x2="0" gradientUnits="userSpaceOnUse" gradientTransform="translate(376.571 490.798)"/>
        <linearGradient xlink:href="#b" id="n" y1="1043.362" y2="1012.362" x2="0" gradientUnits="userSpaceOnUse" gradientTransform="matrix(.625 0 0 .64516 437.171 -135.339)"/>
        <linearGradient id="b">
            <stop stop-color="#282727"/>
            <stop offset="1" stop-color="#3A393A"/>
        </linearGradient>
        <linearGradient id="f">
            <stop stop-color="#73C48F"/>
            <stop offset="1" stop-color="#73C48F"/>
        </linearGradient>
        <linearGradient id="e">
            <stop stop-color="#48B9C7"/>
            <stop offset="1" stop-color="#48B9C7"/>
        </linearGradient>
        <linearGradient id="d">
            <stop stop-color="#F9BD2E"/>
            <stop offset="1" stop-color="#F9BD2E"/>
        </linearGradient>
        <linearGradient id="c">
            <stop stop-color="#CB241D"/>
            <stop offset="1" stop-color="#CB241D"/>
        </linearGradient>
        <linearGradient xlink:href="#c" id="o" y1="523.798" y2="516.798" x2="0" gradientUnits="userSpaceOnUse" gradientTransform="translate(-376.572 -498.798)"/>
        <linearGradient xlink:href="#d" id="p" y1="523.798" y2="516.798" gradientUnits="userSpaceOnUse" x2="0" gradientTransform="translate(-376.572 -492.798)"/>
        <linearGradient xlink:href="#e" id="q" y1="523.798" y2="516.798" gradientUnits="userSpaceOnUse" x2="0" gradientTransform="translate(-376.572 -486.798)"/>
        <linearGradient xlink:href="#f" id="r" y1="523.798" y2="516.798" gradientUnits="userSpaceOnUse" x2="0" gradientTransform="translate(-376.572 -480.798)"/>
        <linearGradient id="g">
            <stop stop-color="#282727"/>
            <stop offset="1" stop-opacity="0"/>
        </linearGradient>
        <linearGradient xlink:href="#g" id="m" y1="20" x1="20" y2="48" x2="48" gradientUnits="userSpaceOnUse" gradientTransform="translate(376.571 490.798)"/>
        <linearGradient xlink:href="#g" id="l" y1="6" x1="-6" y2="36" x2="24" gradientUnits="userSpaceOnUse" gradientTransform="translate(376.571 490.798)"/>
        <linearGradient xlink:href="#g" id="k" y1="6" x1="-6" y2="36" gradientUnits="userSpaceOnUse" x2="24" gradientTransform="translate(376.571 496.798)"/>
        <linearGradient xlink:href="#g" id="j" y1="6" x1="-6" y2="36" gradientUnits="userSpaceOnUse" x2="24" gradientTransform="translate(376.571 502.798)"/>
        <linearGradient xlink:href="#g" id="i" y1="6" x1="-6" y2="36" gradientUnits="userSpaceOnUse" x2="24" gradientTransform="translate(376.571 508.798)"/>
    </defs>
    <path d="M382.571 502.798v42h4v-4h12v4h30v-4h8v-30h-50v-8z" fill="url(#h)" transform="translate(-376.571 -491.798)"/>
    <path d="M391.571 530.798l-5 4 6 6h6v4h7l-14-14z" fill="url(#i)" opacity=".2" fill-rule="evenodd" transform="translate(-376.571 -491.798)"/>
    <path d="M391.571 524.798l-5 4 12 12 4 4h9l-20-20z" fill="url(#j)" opacity=".2" fill-rule="evenodd" transform="translate(-376.571 -491.798)"/>
    <path d="M391.571 518.798l-5 4 22 22h9l-26-26z" fill="url(#k)" opacity=".2" fill-rule="evenodd" transform="translate(-376.571 -491.798)"/>
    <path d="M391.571 512.798l-5 4 28 28h9l-32-32z" fill="url(#l)" opacity=".2" fill-rule="evenodd" transform="translate(-376.571 -491.798)"/>
    <path d="M424.571 517.798l-20 20 6 7h18v-4h6v-13l-10-10z" fill="url(#m)" opacity=".2" fill-rule="evenodd" transform="translate(-376.571 -491.798)"/>
    <path fill="#B7BB25" d="M22 52h30v1H22z"/>
    <path d="M30 47v1h1v-1h-1zm1 1v1h1v-1h-1zm1 0h1v-1h-1v1zm1 0v1h1v-1h-1zm1 0h1v-1h-1v1zm1 0v1h1v-1h-1zm1 0h1v-1h-1v1zm1 0v1h1v-1h-1zm1 0h1v-1h-1v1zm1 0v1h1v-1h-1zm1 0h1v-1h-1v1zm1 0v1h1v-1h-1zm1 0h1v-1h-1v1zm1 0v1h1v-1h-1zm1 0h1v-1h-1v1zm1 0v1h1v-1h-1zM14 46v1h1v-1h-1zm1 1v1h1v-1h-1zm1 0h1v-1h-1v1zm1 0v1h1v-1h-1zm1 0h1v-1h-1v1zm-4 0h-1v1h1v-1z" color="#151819"/>
    <path fill="url(#n)" fill-rule="evenodd" d="M404.671 517.798h20v20h-20z" transform="translate(-376.571 -491.798)"/>
    <path fill="#83A498" d="M6 11h4v42H6z"/>
    <path fill="#83A498" d="M6 11h1v42H6z"/>
    <path d="M46 23v1h-1v-1h1zm-1 1v1h-1v-1h1zm-1 0h-1v-1h1v1zm-1 0v1h-1v-1h1zm-1 0h-1v-1h1v1zm-1 0v1h-1v-1h1zm-1 0h-1v-1h1v1zm-1 0v1h-1v-1h1zm-1 0h-1v-1h1v1zm-1 0v1h-1v-1h1zm-1 0h-1v-1h1v1zm-1 0v1h-1v-1h1zm-1 0h-1v-1h1v1zm-1 0v1h-1v-1h1zm-1 0h-1v-1h1v1zm-1 0v1h-1v-1h1z" color="#151819"/>
    <path d="M6 21c-.554 0-1 .446-1 1v2c0 .554.446 1 1 1h1v-4z" fill="#83A498"/>
    <path d="M386.571 512.798v4h3.9c.036 0 .066-.016.1-.02v.02h1v-4h-1v.02c-.034-.005-.064-.02-.1-.02h-3.9z" fill="url(#o)" transform="translate(-376.571 -491.798)"/>
    <path d="M6 27c-.554 0-1 .446-1 1v2c0 .554.446 1 1 1h1v-4z" fill="#83A498"/>
    <path d="M386.571 518.798v4h3.9c.036 0 .066-.016.1-.02v.02h1v-4h-1v.02c-.034-.005-.064-.02-.1-.02h-3.9z" fill="url(#p)" transform="translate(-376.571 -491.798)"/>
    <path d="M6 33c-.554 0-1 .446-1 1v2c0 .554.446 1 1 1h1v-4z" fill="#83A498"/>
    <path d="M386.571 524.798v4h3.9c.036 0 .066-.016.1-.02v.02h1v-4h-1v.02c-.034-.005-.064-.02-.1-.02h-3.9z" fill="url(#q)" transform="translate(-376.571 -491.798)"/>
    <path d="M6 39c-.554 0-1 .446-1 1v2c0 .554.446 1 1 1h1v-4z" fill="#83A498"/>
    <path d="M386.571 530.798v4h3.9c.036 0 .066-.016.1-.02v.02h1v-4h-1v.02c-.034-.005-.064-.02-.1-.02h-3.9z" fill="url(#r)" transform="translate(-376.571 -491.798)"/>
    <path opacity=".09" d="M10 42h5v1h-5zM10 36h5v1h-5zM10 30h5v1h-5zM10 24h5v1h-5z"/>
    <path d="M33.1 31.5v2h-1v2h-1v1h1v2h1v1h1v-2h1v-1h2v1h1v1h1v1h1v2h1v-1h1v-2h1v-1h1v-1h1v-1h-1v-1h-1v-1h-1v-2h-1v-1h-1v2h-1v1h-1v1h-1v1h-2v-1h-1v-3z" fill="#83A498"/>
</svg>
