<svg width="64" xmlns="http://www.w3.org/2000/svg" height="64" xmlns:xlink="http://www.w3.org/1999/xlink">
    <defs>
        <linearGradient id="a">
            <stop stop-color="#282727"/>
            <stop offset="1" stop-color="#3A393A"/>
        </linearGradient>
        <linearGradient xlink:href="#a" id="g" y1="58" y2="36" x2="0" gradientUnits="userSpaceOnUse"/>
        <linearGradient xlink:href="#a" id="f" y1="58" y2="36" gradientUnits="userSpaceOnUse" x2="0" gradientTransform="matrix(-1 0 0 1 439.571 491.798)"/>
        <linearGradient xlink:href="#a" id="d" y1="16" y2="6" x2="0" gradientUnits="userSpaceOnUse"/>
        <linearGradient xlink:href="#b" id="e" y1="28" y2="6" x2="0" gradientUnits="userSpaceOnUse" gradientTransform="translate(376.571 491.798)"/>
        <linearGradient id="b">
            <stop stop-color="#8F3F71"/>
            <stop offset="1" stop-color="#48B9C7"/>
        </linearGradient>
        <linearGradient xlink:href="#c" id="h" y1="37" x1="49" y2="44" x2="56" gradientUnits="userSpaceOnUse" gradientTransform="translate(376.571 491.798)"/>
        <linearGradient id="c">
            <stop stop-color="#282727"/>
            <stop offset="1" stop-opacity="0"/>
        </linearGradient>
        <linearGradient xlink:href="#c" id="i" y1="37" x1="56" y2="44" gradientUnits="userSpaceOnUse" x2="49" gradientTransform="matrix(-1 0 0 1 439.571 491.798)"/>
    </defs>
    <g transform="translate(-376.571 -491.798)">
        <path d="M30.908 10A20.862 20.862 0 0 0 10 30.908v1c0-7.314 3.723-13.72 9.379-17.455.305.202.683.285 1 .47.313.185.665.298.988.466.325-.167.627-.37.961-.52l-.02-.008a20.861 20.861 0 0 1 8.6-1.861h2.184c3.074 0 5.976.68 8.6 1.861l-.02.008c.334.15.636.353.96.52.324-.168.676-.281.99-.465.316-.186.694-.27 1-.47A20.849 20.849 0 0 1 54 31.907v-1A20.862 20.862 0 0 0 33.092 10h-2.184z" transform="translate(376.571 491.798)" fill="url(#d)"/>
        <path d="M408.571 497.798c-13.296 0-24 10.704-24 24v7c0 .554.446 1 1 1h2c.554 0 1-.446 1-1v-9c0-11.08 8.92-20 20-20s20 8.92 20 20v9c0 .554.446 1 1 1h2c.554 0 1-.446 1-1v-7c0-13.296-10.704-24-24-24z" fill="url(#e)"/>
        <path d="M408.571 498.798c-11.08 0-20 8.92-20 20v1c0-11.08 8.92-20 20-20s20 8.92 20 20v-1c0-11.08-8.92-20-20-20zm-24 29v1c0 .554.446 1 1 1h2c.554 0 1-.446 1-1v-1c0 .554-.446 1-1 1h-2c-.554 0-1-.446-1-1zm44 0v1c0 .554.446 1 1 1h2c.554 0 1-.446 1-1v-1c0 .554-.446 1-1 1h-2c-.554 0-1-.446-1-1z" fill="#066678"/>
        <path d="M423.571 527.798s3 0 3 2c0 0 2 5 5 5 .554 0 1 .446 1 1v6c0 .554-.446 1-1 1-3 0-5 5-5 5 0 2-3 2-3 2h-1s-3 0-3-2v-18c0-2 3-2 3-2h1z" fill="url(#f)"/>
        <path d="M432.571 540.798v1c0 .554-.446 1-1 1-3 0-5 5-5 5 0 2-3 2-3 2h-1s-3 0-3-2v-1c0 2 3 2 3 2h1s3 0 3-2c0 0 2-5 5-5 .554 0 1-.446 1-1z" fill="#1D2021"/>
        <rect width="2" x="385.571" y="529.798" rx="0" height="4" fill="#83A498"/>
        <path d="M16 36s-3 0-3 2c0 0-2 5-5 5-.554 0-1 .446-1 1v6c0 .554.446 1 1 1 3 0 5 5 5 5 0 2 3 2 3 2h1s3 0 3-2V38c0-2-3-2-3-2h-1z" transform="translate(376.571 491.798)" fill="url(#g)"/>
        <path d="M383.571 540.798v1c0 .554.446 1 1 1 3 0 5 5 5 5 0 2 3 2 3 2h1s3 0 3-2v-1c0 2-3 2-3 2h-1s-3 0-3-2c0 0-2-5-5-5-.554 0-1-.446-1-1z" fill="#1D2021"/>
        <rect width="2" x="385.571" y="532.798" rx="1" height="13" fill="#83A498"/>
        <circle cx="386.571" cy="538.798" r="1" fill="#282727"/>
        <rect width="2" x="-431.571" y="529.798" rx="0" height="4" transform="scale(-1 1)" fill="#83A498"/>
        <rect width="2" x="-431.571" y="532.798" rx="1" height="13" transform="scale(-1 1)" fill="#83A498"/>
        <circle cx="-430.571" cy="538.798" r="1" transform="scale(-1 1)" fill="#282727"/>
        <path d="M390.566 528.267c-.548.29-.995.76-.995 1.531v18c0 .77.447 1.24.995 1.531 0-.01.005-.02.005-.031v-21c0-.011-.005-.02-.005-.031zM425.577 528.267c.548.29.994.76.994 1.531v18c0 .77-.446 1.24-.994 1.531 0-.01-.006-.02-.006-.031v-21c0-.011.005-.02.006-.031z" fill="#83A498"/>
        <path d="M408.571 502.798l-1 2h2l-1-2zm1 2h.092c1.218 0 2.408.11 3.565.312l-.657-1.312-1 1-1-1-1 1zm-2 0l-1-1-1 1-1-1-.656 1.312a20.688 20.688 0 0 1 3.565-.312h.091z" fill="#1D2021" fill-rule="evenodd"/>
        <path d="M425.571 528.265v21.066c.55-.29 1-.76 1-1.533 0 0 2-5 5-5 .554 0 1-.446 1-1v-6c0-.554-.446-1-1-1-3 0-5-5-5-5 0-.773-.45-1.242-1-1.533z" fill="url(#h)" fill-rule="evenodd"/>
        <path d="M390.571 528.265v21.066c-.55-.29-1-.76-1-1.533 0 0-2-5-5-5-.554 0-1-.446-1-1v-6c0-.554.446-1 1-1 3 0 5-5 5-5 0-.773.45-1.242 1-1.533z" fill="url(#i)" fill-rule="evenodd"/>
    </g>
</svg>
