<svg width="64" xmlns="http://www.w3.org/2000/svg" height="64" xmlns:xlink="http://www.w3.org/1999/xlink">
    <defs>
        <linearGradient id="f">
            <stop stop-color="#83A498"/>
            <stop offset="1" stop-color="#83A498"/>
        </linearGradient>
        <linearGradient id="b">
            <stop stop-color="#BDAD93"/>
            <stop offset="1" stop-color="#F9F5D7"/>
        </linearGradient>
        <linearGradient id="g">
            <stop/>
            <stop offset="1" stop-opacity="0"/>
        </linearGradient>
        <linearGradient id="a">
            <stop stop-color="#066678"/>
            <stop offset="1" stop-color="#066678"/>
        </linearGradient>
        <linearGradient id="j" xlink:href="#a" y1="512.798" y2="527.798" x1="400.571" x2="415.571" gradientUnits="userSpaceOnUse" gradientTransform="matrix(1.18182 0 0 1.18182 -74.286 -95.732)"/>
        <linearGradient id="d">
            <stop stop-color="#3A393A"/>
            <stop offset="1" stop-color="#504945"/>
        </linearGradient>
        <linearGradient id="e">
            <stop stop-color="#1D2021"/>
            <stop offset="1" stop-color="#665C54"/>
        </linearGradient>
        <linearGradient id="k" xlink:href="#b" y1="531.798" y2="501.699" gradientUnits="userSpaceOnUse" x2="0" gradientTransform="matrix(1.08333 0 0 1.33561 -34.047 -170.451)"/>
        <linearGradient id="l" xlink:href="#c" y1="530.798" y2="528.798" gradientUnits="userSpaceOnUse" x2="0" gradientTransform="matrix(1.5 0 0 1.5 -182.286 -282.395)"/>
        <linearGradient id="c">
            <stop stop-color="#C77089"/>
            <stop offset="1" stop-color="#CB241D"/>
        </linearGradient>
        <linearGradient id="r" xlink:href="#a" y1="514.632" y2="527.798" x1="402.405" gradientUnits="userSpaceOnUse" x2="415.571" gradientTransform="translate(-7 4.027)"/>
        <linearGradient id="m" xlink:href="#a" y1="512.798" y2="527.798" x1="400.571" x2="415.571" gradientUnits="userSpaceOnUse" gradientTransform="translate(79 3.656)"/>
        <linearGradient id="s" xlink:href="#a" y1="509.704" y2="527.798" x1="397.478" x2="415.571" gradientUnits="userSpaceOnUse" gradientTransform="matrix(.8 0 0 .8 74.715 107.988)"/>
        <linearGradient id="t" xlink:href="#a" y1="498.288" y2="527.798" x1="386.061" x2="415.571" gradientUnits="userSpaceOnUse" gradientTransform="matrix(.6 0 0 .6 156.429 211.947)"/>
        <linearGradient id="p" xlink:href="#d" y1="508.798" y2="528.798" x1="398.572" gradientUnits="userSpaceOnUse" x2="418.571" gradientTransform="rotate(180 405.071 521.812)"/>
        <linearGradient id="q" xlink:href="#e" y1="509.531" y2="530.998" x1="398.305" gradientUnits="userSpaceOnUse" x2="419.771" gradientTransform="matrix(.78571 0 0 .78571 80.55 115.412)"/>
        <linearGradient id="o" xlink:href="#f" y1="530.798" y2="507.798" x1="421.571" gradientUnits="userSpaceOnUse" x2="398.571" gradientTransform="translate(-7 4.027)"/>
        <linearGradient id="n" xlink:href="#g" y1="519.798" y2="541.011" gradientUnits="userSpaceOnUse" x2="0" gradientTransform="rotate(-45 409.933 530.261)"/>
        <linearGradient xlink:href="#a" id="u" y1="512.798" x1="400.571" y2="527.798" gradientUnits="userSpaceOnUse" x2="415.571" gradientTransform="matrix(1.18182 0 0 1.18182 6.714 -89.236)"/>
        <linearGradient xlink:href="#d" id="v" y1="41" y2="23" x2="0" gradientUnits="userSpaceOnUse"/>
        <linearGradient xlink:href="#a" id="x" y1="512.798" x1="400.571" y2="527.798" gradientUnits="userSpaceOnUse" x2="415.571" gradientTransform="matrix(1.18182 0 0 1.18182 3.714 -96.236)"/>
        <linearGradient id="h">
            <stop stop-color="#1D2021"/>
            <stop offset="1" stop-color="#3A393A"/>
        </linearGradient>
        <linearGradient xlink:href="#h" id="w" y1="541.798" y2="543.798" x2="0" gradientUnits="userSpaceOnUse" gradientTransform="matrix(1.625 0 0 1.00002 -255.357 -36.01)"/>
        <linearGradient xlink:href="#h" id="y" y1="541.798" y2="543.798" x2="0" gradientUnits="userSpaceOnUse" gradientTransform="matrix(1.625 0 0 1.00002 -255.357 -2.01)"/>
        <linearGradient xlink:href="#h" id="i" y1="504.798" y2="499.798" x2="0" gradientUnits="userSpaceOnUse" gradientTransform="translate(0 2)"/>
    </defs>
    <g transform="translate(-376.571 -491.798)">
        <path fill="url(#i)" d="M424.571 503.798h6v3h-6z"/>
        <rect width="52" x="382.571" y="507.771" rx="0" height="32.055" fill="url(#k)"/>
        <path d="M426.071 510.802a1.5 1.5 0 0 0-1.5 1.5 1.5 1.5 0 0 0 1.5 1.5 1.5 1.5 0 0 0 1.5-1.5 1.5 1.5 0 0 0-1.5-1.5z" fill="url(#l)"/>
        <path d="M412.886 512.51l-22.629 22.63.686.685h32.628v-10.629z" fill="url(#n)" opacity=".2"/>
        <circle cx="401.571" cy="523.825" r="16" fill="url(#o)"/>
        <path d="M387.571 523.825a14 14 0 0 1 14-14 14 14 0 0 1 14 14 14 14 0 0 1-14 14 14 14 0 0 1-14-14z" fill="url(#p)"/>
        <circle cx="401.571" cy="523.825" r="11" fill="url(#q)"/>
        <circle cx="401.571" cy="523.825" r="10" fill="url(#r)"/>
        <circle cx="401.571" cy="523.825" r="8" fill="url(#s)"/>
        <circle cx="401.571" cy="523.825" r="6" fill="url(#t)"/>
        <circle cx="401.571" cy="523.825" r="4" fill="#3A393A"/>
        <circle cx="398.571" cy="520.825" r="1" fill="#48B9C7"/>
        <ellipse cx="396.571" cy="518.825" rx="1.5" ry="1.5" fill="#48B9C7"/>
        <path d="M55 23c-1.108 0-2 .892-2 2v14c0 1.108.892 2 2 2h3V23h-3z" transform="translate(376.571 491.798)" fill="url(#v)"/>
        <path fill="url(#w)" d="M382.571 505.798h52v2h-52z"/>
        <path fill="url(#y)" d="M382.571 539.798h52v2h-52z"/>
    </g>
</svg>
