<svg width="64" xmlns="http://www.w3.org/2000/svg" height="64" xmlns:xlink="http://www.w3.org/1999/xlink">
    <defs>
        <linearGradient id="a">
            <stop stop-color="#7CB668"/>
            <stop offset="1" stop-color="#8DC07B"/>
        </linearGradient>
        <linearGradient id="b">
            <stop stop-color="#282727"/>
            <stop offset="1" stop-color="#3A393A"/>
        </linearGradient>
        <linearGradient xlink:href="#a" id="e" y1="549.798" y2="497.798" x2="0" gradientUnits="userSpaceOnUse" gradientTransform="translate(0 -29)"/>
        <linearGradient xlink:href="#b" id="i" y1="527.798" y2="518.798" x2="0" gradientUnits="userSpaceOnUse" gradientTransform="matrix(.85714 0 0 .88889 60.653 46.644)"/>
        <linearGradient xlink:href="#b" id="k" y1="527.798" y2="518.798" gradientUnits="userSpaceOnUse" x2="0" gradientTransform="matrix(.85714 0 0 .88889 52.653 46.644)"/>
        <linearGradient xlink:href="#b" id="l" y1="527.798" y2="518.798" gradientUnits="userSpaceOnUse" x2="0" gradientTransform="matrix(.85714 0 0 .88889 44.653 46.644)"/>
        <linearGradient id="c">
            <stop stop-color="#F9F5D7"/>
            <stop offset="1" stop-color="#F9F5D7"/>
        </linearGradient>
        <linearGradient xlink:href="#c" id="j" y1="526.798" y2="519.798" x2="0" gradientUnits="userSpaceOnUse" gradientTransform="translate(0 -11)"/>
        <linearGradient xlink:href="#d" id="h" y1="518.798" x1="408.571" y2="527.798" x2="417.571" gradientUnits="userSpaceOnUse" gradientTransform="translate(0 -11)"/>
        <linearGradient id="d">
            <stop stop-color="#282727"/>
            <stop offset="1" stop-opacity="0"/>
        </linearGradient>
        <linearGradient xlink:href="#d" id="f" y1="518.798" x1="408.571" y2="527.798" gradientUnits="userSpaceOnUse" x2="417.571" gradientTransform="translate(8 -11)"/>
        <linearGradient xlink:href="#d" id="g" y1="518.798" x1="408.571" y2="527.798" gradientUnits="userSpaceOnUse" x2="417.571" gradientTransform="translate(16 -11)"/>
        <linearGradient xlink:href="#a" id="m" y1="549.798" y2="497.798" gradientUnits="userSpaceOnUse" x2="0" gradientTransform="translate(0 -7)"/>
        <linearGradient xlink:href="#d" id="n" y1="518.798" x1="408.571" y2="527.798" gradientUnits="userSpaceOnUse" x2="417.571" gradientTransform="translate(8 11)"/>
        <linearGradient xlink:href="#d" id="o" y1="518.798" x1="408.571" y2="527.798" gradientUnits="userSpaceOnUse" x2="417.571" gradientTransform="translate(16 11)"/>
        <linearGradient xlink:href="#d" id="p" y1="518.798" x1="408.571" y2="527.798" gradientUnits="userSpaceOnUse" x2="417.571" gradientTransform="translate(0 11)"/>
        <linearGradient xlink:href="#b" id="q" y1="527.798" y2="518.798" gradientUnits="userSpaceOnUse" x2="0" gradientTransform="matrix(.85714 0 0 .88889 60.653 68.644)"/>
        <linearGradient xlink:href="#c" id="r" y1="526.798" y2="519.798" gradientUnits="userSpaceOnUse" x2="0" gradientTransform="translate(0 11)"/>
        <linearGradient xlink:href="#b" id="s" y1="527.798" y2="518.798" gradientUnits="userSpaceOnUse" x2="0" gradientTransform="matrix(.85714 0 0 .88889 52.653 68.644)"/>
        <linearGradient xlink:href="#b" id="t" y1="527.798" y2="518.798" gradientUnits="userSpaceOnUse" x2="0" gradientTransform="matrix(.85714 0 0 .88889 44.653 68.644)"/>
    </defs>
    <path d="M382.571 504.798v16h52v-16z" fill="url(#e)" transform="translate(-376.571 -491.798)"/>
    <path d="M422.571 507.798l-6 8 5 5h13v-1l-12-12z" fill="url(#f)" opacity=".2" fill-rule="evenodd" transform="translate(-376.571 -491.798)"/>
    <path d="M430.571 507.798l-6 8 5 5h5v-9l-4-4z" fill="url(#g)" opacity=".2" fill-rule="evenodd" transform="translate(-376.571 -491.798)"/>
    <path d="M408.571 515.798l6-8 13 13h-15 1z" fill="url(#h)" opacity=".2" fill-rule="evenodd" transform="translate(-376.571 -491.798)"/>
    <path fill="#B7BB25" d="M6 28h52v1H6z"/>
    <path fill="url(#i)" d="M424.571 507.798h6v8h-6z" transform="translate(-376.571 -491.798)"/>
    <path d="M55 16v1h1v-1h-1zm1 1v1h1v-1h-1zm0 1h-1v1h1v-1zm0 1v1h1v-1h-1zm0 1h-1v1h1v-1zm0 1v1h1v-1h-1zm0 1h-1v1h1v-1zm0 1v1h1v-1h-1zm0 1h-1v1h1v-1zm0 1v1h1v-1h-1zm-1 0h-1v1h1v-1zm-1 1h-1v1h1v-1zm-1 0v-1h-1v1h1zm-1 0h-1v1h1v-1zm-1 0v-1h-1v1h1z" fill="#B7BB25" opacity=".6"/>
    <path fill="url(#j)" d="M385.571 508.798h19v7h-19z" transform="translate(-376.571 -491.798)"/>
    <path fill="url(#k)" d="M416.571 507.798h6v8h-6z" transform="translate(-376.571 -491.798)"/>
    <path fill="url(#l)" d="M408.571 507.798h6v8h-6z" transform="translate(-376.571 -491.798)"/>
    <path fill="#FA4934" d="M10 18h8v1h-8z"/>
    <path fill="#3A393A" d="M10 20h3v1h-3zM14 20h4v1h-4zM14 22v1h-1v1h10v-1h-1v-1h-1v1h-2v-1h-1v1h-1v-1h-1v1h-1v-1h-1z"/>
    <path d="M382.571 526.798v16h52v-16z" fill="url(#m)" transform="translate(-376.571 -491.798)"/>
    <path d="M422.571 529.798l-6 8 5 5h13v-1l-12-12z" fill="url(#n)" opacity=".2" fill-rule="evenodd" transform="translate(-376.571 -491.798)"/>
    <path d="M430.571 529.798l-6 8 5 5h5v-9l-4-4z" fill="url(#o)" opacity=".2" fill-rule="evenodd" transform="translate(-376.571 -491.798)"/>
    <path d="M408.571 537.798l6-8 13 13h-15 1z" fill="url(#p)" opacity=".2" fill-rule="evenodd" transform="translate(-376.571 -491.798)"/>
    <path fill="#B7BB25" d="M6 50h52v1H6z"/>
    <path fill="url(#q)" d="M424.571 529.798h6v8h-6z" transform="translate(-376.571 -491.798)"/>
    <path d="M55 38v1h1v-1h-1zm1 1v1h1v-1h-1zm0 1h-1v1h1v-1zm0 1v1h1v-1h-1zm0 1h-1v1h1v-1zm0 1v1h1v-1h-1zm0 1h-1v1h1v-1zm0 1v1h1v-1h-1zm0 1h-1v1h1v-1zm0 1v1h1v-1h-1zm-1 0h-1v1h1v-1zm-1 1h-1v1h1v-1zm-1 0v-1h-1v1h1zm-1 0h-1v1h1v-1zm-1 0v-1h-1v1h1z" fill="#B7BB25" opacity=".6"/>
    <path fill="url(#r)" d="M385.571 530.798h19v7h-19z" transform="translate(-376.571 -491.798)"/>
    <path fill="url(#s)" d="M416.571 529.798h6v8h-6z" transform="translate(-376.571 -491.798)"/>
    <path fill="url(#t)" d="M408.571 529.798h6v8h-6z" transform="translate(-376.571 -491.798)"/>
    <path fill="#FA4934" d="M10 40h8v1h-8z"/>
    <path fill="#3A393A" d="M10 42h3v1h-3zM14 42h4v1h-4zM14 44v1h-1v1h10v-1h-1v-1h-1v1h-2v-1h-1v1h-1v-1h-1v1h-1v-1h-1z"/>
</svg>
