<svg xmlns="http://www.w3.org/2000/svg" width="64" height="64">
    <path d="M4.043 31.828A28 28 0 0 0 4 33a28 28 0 0 0 28 28 28 28 0 0 0 28-28 28 28 0 0 0-.042-.828A28 28 0 0 1 32 59 28 28 0 0 1 4.044 31.828z" opacity=".2"/>
    <path d="M32 4A28 28 0 0 0 4 32a28 28 0 0 0 28 28 28 28 0 0 0 28-28A28 28 0 0 0 32 4z" fill="#79740D"/>
    <path d="M31.998 4A28 28 0 0 0 4 32a28 28 0 0 0 .021.406A28 28 0 0 1 31.998 5H32a28 28 0 0 1 27.977 27.586 28 28 0 0 0 .021-.586A28 28 0 0 0 32 4h-.002z" opacity=".2" fill="#F9F5D7"/>
    <path d="M34 11.101V31h19.89A22 22 0 0 0 34 11.1zm-4 .008A22 22 0 0 0 10.102 31H30V11.11zM10.11 35.001A22 22 0 0 0 30 54.899V35.001H10.11zm23.89 0v19.89a22 22 0 0 0 19.898-19.89H33.999z" opacity=".2"/>
    <path d="M34 10.102V30h19.89A22 22 0 0 0 34 10.102zm-4 .007A22 22 0 0 0 10.102 30H30V10.11zM10.11 34A22 22 0 0 0 30 53.897V34H10.11zM34 34v19.89A22 22 0 0 0 53.896 34H34z" fill="#F9F5D7"/>
</svg>
