<svg xmlns="http://www.w3.org/2000/svg" width="64" height="64">
    <circle cx="32" cy="33" r="28" opacity=".2"/>
    <circle cx="32" cy="32" r="28" fill="#066678"/>
    <path d="M32.092 6.008c-1.747.108-3.499 1.446-4.701 2.69-5.497 5.664-8.845 13.058-12.125 20.197-2.74 6.05-4.796 12.386-6.424 18.835a28 28 0 0 0 4.736 5.31c-.493-1.437.351-3.859.707-5.194 2.528-8.392 6.447-16.249 10.174-24.127 1.476-2.489 2.523-5.919 5.498-6.877 2.89-.33 4.788 2.543 6.285 4.638 5.99 9.43 11.648 19.1 16.639 29.124a28 28 0 0 0 1.404-1.692C50.9 36.97 46.517 25.3 40.287 14.61c-1.8-2.72-3.438-5.673-5.867-7.863a3.319 3.319 0 0 0-2.328-.738zm12.199 36.728c-9.251 4.7-18.772 9.11-28.881 11.46a2.885 2.885 0 0 1-.514-.048 28 28 0 0 0 5.36 3.233c4.605-1.74 9.033-4.007 13.289-6.483 3.846-2.321 7.546-4.957 10.746-8.162z" opacity=".2"/>
    <path d="M44.291 41.736c-9.252 4.7-18.773 9.111-28.882 11.462-3.258-.016-1.65-4.376-1.124-6.352 2.527-8.392 6.446-16.249 10.174-24.127 1.475-2.489 2.522-5.92 5.497-6.877 2.89-.33 4.79 2.542 6.286 4.638 6.121 9.634 11.902 19.521 16.971 29.781A600.794 600.794 0 0 1 57 58.316c-3.701-15.527-8.682-30.927-16.713-44.707-1.8-2.721-3.44-5.674-5.868-7.864-2.367-1.868-5.278.143-7.028 1.952-5.496 5.665-8.844 13.058-12.125 20.196C11.44 36.34 8.93 45.345 7.086 54.44c-.645 3.063 2.42 5.287 5.145 4.336 7.547-1.613 14.64-4.997 21.313-8.88 3.847-2.32 7.546-4.957 10.746-8.162z" fill="#F9F5D7"/>
    <path d="M32 4A28 28 0 0 0 4 32a28 28 0 0 0 .021.586A28 28 0 0 1 32 5a28 28 0 0 1 27.979 27.414 28 28 0 0 0 .02-.414A28 28 0 0 0 32 4z" opacity=".2" fill="#F9F5D7"/>
</svg>
