<svg xmlns="http://www.w3.org/2000/svg" width="64" height="64">
    <path d="M18 5A14 14 0 0 0 4 19a14 14 0 0 0 4.289 10.062c-.18.416-.289.876-.289 1.376V39a2 2 0 0 0-2 2 2 2 0 0 0 2 2v9.36c0 1.682 1.15 3.038 2.578 3.038h9.055l-3.32 3.48A2.339 1.415 0 0 0 18.34 61h21.324A2.339 1.415 0 0 0 42 59.542a2.339 1.415 0 0 0-.312-.664l-3.32-3.48h9.054c1.428 0 2.578-1.356 2.578-3.038v-6.786l2.292 1.516 5.586 3.696A1.415 1.62 0 0 0 60 49.378v-14.76A1.415 1.62 0 0 0 58.542 33a1.415 1.62 0 0 0-.664.218l-5.586 3.688L50 38.422v-7.984c0-.494-.108-.952-.286-1.364A14 14 0 0 0 54 19 14 14 0 0 0 40 5a14 14 0 0 0-10.992 5.355A14 14 0 0 0 18 5z" opacity=".2"/>
    <path d="M18 4.001a14 14 0 0 0-14 14 14 14 0 0 0 4.289 10.062C8.109 28.48 8 28.94 8 29.44v8.562a2 2 0 0 0-2 2 2 2 0 0 0 2 2v9.36c0 1.682 1.15 3.038 2.578 3.038h9.055l-3.32 3.48a2.339 1.415 0 0 0 2.027 2.122h21.324A2.339 1.415 0 0 0 42 58.543a2.339 1.415 0 0 0-.312-.664l-3.32-3.48h9.054C48.85 54.4 50 53.043 50 51.361v-6.786l2.292 1.516 5.586 3.696A1.415 1.62 0 0 0 60 48.38V33.62a1.415 1.62 0 0 0-1.458-1.618 1.415 1.62 0 0 0-.664.218l-5.586 3.688L50 37.423V29.44c0-.494-.108-.952-.286-1.364A14 14 0 0 0 54 18.001a14 14 0 0 0-14-14 14 14 0 0 0-10.992 5.356A14 14 0 0 0 18 4z" fill="#73C48F"/>
    <path d="M17 11c-3.854 0-7 3.146-7 7s3.146 7 7 7 7-3.146 7-7-3.146-7-7-7zm24 0c-3.854 0-7 3.146-7 7s3.146 7 7 7 7-3.146 7-7-3.146-7-7-7zm-24 2c2.774 0 5 2.227 5 5 0 2.774-2.226 5-5 5-2.773 0-5-2.226-5-5 0-2.773 2.227-5 5-5zm24 0c2.774 0 5 2.227 5 5 0 2.774-2.226 5-5 5s-5-2.226-5-5c0-2.773 2.226-5 5-5z" opacity=".2"/>
    <path d="M17 10.001c-3.854 0-7 3.146-7 7s3.146 7 7 7 7-3.146 7-7-3.146-7-7-7zm24 0c-3.854 0-7 3.146-7 7s3.146 7 7 7 7-3.146 7-7-3.146-7-7-7zm-24 2c2.774 0 5 2.227 5 5 0 2.774-2.226 5-5 5-2.773 0-5-2.226-5-5 0-2.773 2.227-5 5-5zm24 0c2.774 0 5 2.227 5 5 0 2.774-2.226 5-5 5s-5-2.226-5-5c0-2.773 2.226-5 5-5z" fill="#F9F5D7"/>
    <path d="M18 4.002a14 14 0 0 0-14 14 14 14 0 0 0 .021.406A14 14 0 0 1 18 5a14 14 0 0 1 11.008 5.355A14 14 0 0 1 40 5a14 14 0 0 1 13.975 13.506 14 14 0 0 0 .025-.504 14 14 0 0 0-14-14 14 14 0 0 0-10.992 5.355A14 14 0 0 0 18 4.002zM8.066 28.828c-.036.197-.066.4-.066.611v.998c0-.5.11-.959.29-1.375a14 14 0 0 1-.224-.234zm41.87.01a14 14 0 0 1-.223.236c.178.412.287.87.287 1.363v-.998c0-.208-.029-.406-.064-.601zm8.605 3.164a1.415 1.62 0 0 0-.664.217l-5.586 3.687L50 37.424v.998l2.291-1.516 5.586-3.687a1.415 1.62 0 0 1 .664-.219A1.415 1.62 0 0 1 60 34.617v-.998a1.415 1.62 0 0 0-1.459-1.617zM8 38.002a2 2 0 0 0-2 2 2 2 0 0 0 .064.496A2 2 0 0 1 8 39v-.998zm10.68 17.396l-2.367 2.48a2.339 1.415 0 0 0-.163 1.21 2.339 1.415 0 0 1 .163-.21l3.32-3.48h-.953zm19.687 0l3.32 3.48a2.339 1.415 0 0 1 .16.208 2.339 1.415 0 0 0 .153-.543 2.339 1.415 0 0 0-.313-.664l-2.367-2.48h-.953z" fill="#F9F5D7" opacity=".2"/>
</svg>
