<svg xmlns="http://www.w3.org/2000/svg" width="64" height="64" version="1">
    <path d="M57.113 5.6a4.481 4.481 0 0 1-.394.91c-.647 1.14-5.683 10.834-5.129 11.784.069.118.191.215.352.297 1.089-3.07 4.27-9.186 4.777-10.082.46-.81.706-1.817.394-2.91zm4.79 15.835c-.171.42-.638.793-1.88 1.039-2.4.475-9.262 5.038-11.663 8.84-2.402 3.801-3.05 18.152-3.235 19.862-.283 2.695.28 7.766-1.25 8.207-3.856 1.112-14.075 3.742-23.749-1.719C10.803 52.402 7.941 47.832 7.247 45.4c-.129.267-.215.529-.218.777-.024 1.803 1.906 7.171 13.097 13.488 9.674 5.461 19.893 2.831 23.75 1.719 1.53-.441.966-5.512 1.25-8.207.184-1.71.832-16.061 3.234-19.863 2.4-3.8 9.262-8.364 11.663-8.84 2.402-.474 1.942-1.425 1.942-2.28 0-.205-.022-.47-.063-.758zM2.807 32.555c-.159.082-.65.305-.73.355-.793.49 4.714 6.412 7 8.21.755-.77 1.35-1.373.843-1.46-.825-.141-5.27-4.598-7.113-7.105z" opacity=".2"/>
    <path d="M35.524 20.046s-3.659-.564-5.77 1.553c-2.111 2.116-3.941 6.773-3.8 8.184.14 1.411 4.363-4.798 6.192-5.22 1.83-.424 3.8-3.53 3.378-4.517z"/>
    <path d="M53.948 0c-1.524 0-4.48 3.613-5.588 4.183-1.11.57-9.884 7.032-10.714 8.173-.832 1.14-1.94 1.615-3.14 1.52-1.202-.094-4.996-.134-6.29.627-1.292.76-7.194 6.977-8.672 7.737-1.478.76-3.406 1.15-4.33 1.245-.923.095-3.982 3.602-4.813 4.267-.832.666-7.4 3.59-8.323 4.16-.924.57 6.738 8.557 7.846 8.747 1.108.19-2.872 2.71-2.896 4.517-.024 1.803 1.906 7.17 13.096 13.488 9.675 5.46 19.894 2.83 23.752 1.719 1.53-.442.967-5.512 1.25-8.206.185-1.71.831-16.061 3.233-19.863 2.401-3.801 9.264-8.365 11.665-8.84 2.402-.475 1.94-1.425 1.94-2.28 0-.856-.37-2.757-1.016-3.042-.646-.285-3.169 1.427-4 1.617-.831.19-4.803.476-5.357-.475-.554-.95 4.48-10.643 5.126-11.784.646-1.14.924-2.661-.278-4.276-1.2-1.616-2.03-3.232-2.492-3.232z" fill="#066678"/>
    <path d="M33.952 21.055s-3.038-.45-4.79 1.24c-1.753 1.691-3.273 5.412-3.155 6.539.116 1.127 3.622-3.833 5.14-4.171 1.52-.339 3.156-2.819 2.805-3.608z" opacity=".2"/>
    <path d="M33.952 20.054s-3.038-.45-4.79 1.24c-1.753 1.692-3.273 5.412-3.155 6.54.116 1.127 3.622-3.834 5.14-4.172 1.52-.338 3.156-2.819 2.805-3.608z" fill="#F9F5D7"/>
    <path d="M53.947 0c-1.524 0-4.48 3.613-5.588 4.184-1.11.57-9.883 7.03-10.713 8.171-.831 1.14-1.94 1.617-3.14 1.522-1.202-.095-4.995-.135-6.29.625-1.291.76-7.194 6.978-8.673 7.738-1.478.76-3.405 1.15-4.328 1.244-.924.095-3.983 3.603-4.815 4.268-.83.665-7.398 3.59-8.322 4.16-.159.098-.05.426.223.887 1.263-.705 7.298-3.405 8.1-4.047.83-.665 3.89-4.173 4.814-4.268.923-.095 2.85-.484 4.328-1.244 1.479-.76 7.382-6.976 8.674-7.736 1.294-.76 5.087-.722 6.289-.627 1.2.095 2.309-.381 3.14-1.522.83-1.14 9.603-7.601 10.713-8.171 1.108-.57 4.064-4.182 5.588-4.182.462 0 1.292 1.616 2.492 3.232.472.635.709 1.252.791 1.84.132-.864-.042-1.833-.79-2.84-1.2-1.616-2.03-3.232-2.493-3.232V0zm6.678 18.133c-.927.14-2.95 1.47-3.678 1.637-.799.182-4.489.45-5.267-.374-.115.43-.166.766-.088.899.554.95 4.524.665 5.355.475.831-.19 3.354-1.903 4-1.618.647.285 1.018 2.186 1.018 3.041l.002.034c.064-.336-.002-.692-.002-1.034 0-.855-.371-2.756-1.018-3.04a.597.597 0 0 0-.322-.02zm-50.984 23.4c-.855.938-2.598 2.441-2.614 3.643-.002.171.021.385.06.619.489-1.76 3.87-3.96 2.837-4.137a.935.935 0 0 1-.283-.125z" fill="#F9F5D7" opacity=".2"/>
</svg>
