<svg xmlns="http://www.w3.org/2000/svg" width="64" height="64">
    <rect width="56" height="56" x="4" y="5" rx="2.8" ry="2.8" opacity=".2"/>
    <rect width="56" height="56" x="4" y="4" rx="2.8" ry="2.8" fill="#066678"/>
    <path d="M33.752 17.002a4.56 4.56 0 0 0-.46.041c-1.827.247-2.33.694-3.447 3.069-.754 1.601-1.131 1.797-2.103 2.008-4.542-3.348-4.542 1.763-5.436 3.18-1.225-1.089-2.817-3.442-4.391-4.757-1.407-1.176-2.8-1.889-3.905-1.147-.875.622-1.619 1.954-1.89 5.012-.369 4.176.005 6.528 2.626 9.987 2.964 3.912 7.38 7.825 14.372 12.737C32.146 49.259 34.684 51 34.758 51c.42 0-4.053-5.88-6.762-8.888-4.048-4.496-4.795-6.095-4.882-8.114-.08-1.824.692-3.032 1.727-3.032.376 0 2.078 1.292 3.954 3.446 1.564 1.71 2.592 4.114 3.84 5.874 2.644 3.341 5.71 3.767 6.85.952 1.103-2.74.383-7.55-2.14-10.902-.284-1.226.253-1.413 1.493-1.412 1.569.002 4.548 1.08 6.339 2.649 2.212 1.939 2.585 1.93 5.047 6.872 1.454 2.918 2.896 5.639 3.205 6.046.55.725.562.721.571-.185-.464-7.552-3.054-14.74-8.654-19.897-.947-.838-3.727-2.882-6.177-4.54-3.57-2.418-4.395-2.901-5.417-2.867z" opacity=".2"/>
    <path d="M33.752 16.002a4.56 4.56 0 0 0-.46.041c-1.827.247-2.33.694-3.447 3.069-.754 1.601-1.131 1.797-2.103 2.008-4.542-3.348-4.542 1.763-5.436 3.18-1.225-1.089-2.817-3.442-4.391-4.757-1.407-1.176-2.8-1.889-3.905-1.147-.875.622-1.619 1.954-1.89 5.012-.369 4.176.005 6.528 2.626 9.987 2.964 3.912 7.38 7.825 14.372 12.737C32.146 48.259 34.684 50 34.758 50c.42 0-4.053-5.88-6.762-8.888-4.048-4.496-4.795-6.095-4.882-8.114-.08-1.824.692-3.032 1.727-3.032.376 0 2.078 1.292 3.954 3.446 1.564 1.71 2.592 4.114 3.84 5.874 2.644 3.341 5.71 3.767 6.85.952 1.103-2.74.383-7.55-2.14-10.902-.284-1.226.253-1.413 1.493-1.412 1.569.002 4.548 1.08 6.339 2.649 2.212 1.939 2.585 1.93 5.047 6.872 1.454 2.918 2.896 5.639 3.205 6.046.55.725.562.721.571-.185-.464-7.552-3.054-14.74-8.654-19.897-.947-.838-3.727-2.882-6.177-4.54-3.57-2.418-4.395-2.901-5.417-2.867z" fill="#928274"/>
    <ellipse cx="2.803" cy="50.538" rx="2.838" ry="4.117" transform="matrix(.41803 -.90843 .66936 .74294 0 0)" opacity=".2"/>
    <ellipse cx="3.532" cy="50.083" rx="2.838" ry="4.117" transform="matrix(.41803 -.90843 .66936 .74294 0 0)" fill="#F9F5D7"/>
    <path d="M6.8 4C5.25 4 4 5.25 4 6.8v1C4 6.25 5.25 5 6.8 5h50.4C58.75 5 60 6.25 60 7.8v-1C60 5.25 58.75 4 57.2 4H6.8zM33.752 16.002c-.146.005-.296.02-.459.041-1.828.246-2.33.694-3.447 3.068-.754 1.602-1.132 1.799-2.104 2.01-4.542-3.348-4.541 1.761-5.435 3.178-1.226-1.088-2.819-3.44-4.393-4.756-1.407-1.176-2.8-1.889-3.904-1.147-.876.622-1.618 1.955-1.889 5.012-.097 1.095-.138 2.06-.105 2.957.012-.614.043-1.253.105-1.957.27-3.057 1.013-4.39 1.889-5.012 1.104-.742 2.497-.03 3.904 1.147 1.574 1.315 3.167 3.668 4.393 4.756.894-1.417.893-6.526 5.435-3.178.972-.211 1.35-.408 2.104-2.01 1.118-2.374 1.619-2.822 3.447-3.068.163-.022.313-.036.459-.041 1.022-.034 1.848.45 5.418 2.867 2.45 1.66 5.229 3.701 6.176 4.54 5.492 5.058 8.085 12.07 8.62 19.462.022-.111.031-.277.034-.566-.465-7.552-3.055-14.739-8.654-19.897-.947-.838-3.726-2.88-6.176-4.539-3.57-2.417-4.396-2.901-5.418-2.867zm3.61 13.357c-.114.213-.121.523-.016.977 1.678 2.23 2.54 5.096 2.617 7.578.163-2.669-.705-6.022-2.602-8.555zm-14.225 3.889a5.37 5.37 0 0 0-.024.75c.088 2.02.835 3.62 4.883 8.115 1.828 2.03 4.361 5.26 5.75 7.215.401.269.99.672 1.012.672.42 0-4.053-5.878-6.762-8.887-3.878-4.307-4.718-5.959-4.86-7.865z" opacity=".1" fill="#F9F5D7"/>
</svg>
