<svg xmlns="http://www.w3.org/2000/svg" width="64" height="64" version="1">
    <path d="M32 5c15.488 0 28 12.513 28 28 0 15.488-12.512 28-28 28C16.513 61 4 48.488 4 33 4 17.513 16.513 5 32 5z" opacity=".2"/>
    <path d="M32 4c15.488 0 28 12.513 28 28 0 15.488-12.512 28-28 28C16.513 60 4 47.488 4 32 4 16.513 16.513 4 32 4z" fill="#665C54"/>
    <path d="M42.902 13.004c-7.08.18-13.826 6.079-18.699 10.066-1.747 1.43-4.321 4.309-4.2 4.43.123.121 2.71-1.998 3.985-3.027 5.812-4.693 12.486-7.34 17.016-7.332 1.69.003 4.174.996 5.223 2.187 1.198 1.361 1.588 2.41 1.617 5.504.016 1.734-.771 4.29-.567 4.164.502-.307 2.443-6.034 2.676-8.246.352-3.345-1.348-6.79-3.996-7.45a12.432 12.432 0 0 0-3.055-.296zM18.352 15c-1.368-.015-2.461.207-3.332.691-8.572 5.577 3.34 21.16 8.16 25.97C24.403 42.86 26.924 45 27.074 45c.15 0-2.443-2.903-4.05-5.035-4.552-6.037-7.076-11.712-6.97-15.953.061-2.418.91-4.37 2.59-5.657 1.001-.766 2.182-1.673 4.641-1.375L28 18.008c-2.876-1.794-6.014-2.923-9.648-3.008zm18.574 6c-.15 0 2.443 2.903 4.05 5.035 4.552 6.037 7.076 11.712 6.97 15.953-.061 2.418-.91 4.37-2.59 5.657-1.001.766-2.182 1.673-4.641 1.375L36 47.992c2.876 1.794 6.014 2.923 9.648 3.008 1.368.015 2.461-.207 3.332-.691 8.572-5.577-3.34-21.16-8.16-25.97C39.597 23.14 37.076 21 36.926 21zM32 29a4 4 0 0 0-4 4 4 4 0 0 0 4 4 4 4 0 0 0 4-4 4 4 0 0 0-4-4zm-15.277 8.004c-.502.307-2.443 6.034-2.676 8.246-.352 3.345 1.348 6.79 3.996 7.45 1.02.23 2.043.322 3.055.296 7.08-.18 13.826-6.079 18.699-10.066 1.747-1.43 4.321-4.309 4.2-4.43-.123-.121-2.71 1.998-3.985 3.027-5.812 4.693-12.486 7.34-17.016 7.332-1.69-.003-4.174-.996-5.223-2.187-1.198-1.361-1.588-2.41-1.617-5.504-.016-1.734.771-4.29.567-4.164z" opacity=".2"/>
    <path d="M42.902 12.004c-7.08.18-13.826 6.079-18.699 10.066-1.747 1.43-4.321 4.309-4.2 4.43.123.121 2.71-1.998 3.985-3.027 5.812-4.693 12.486-7.34 17.016-7.332 1.69.003 4.174.996 5.223 2.187 1.198 1.361 1.588 2.41 1.617 5.504.016 1.734-.771 4.29-.567 4.164.502-.307 2.443-6.034 2.676-8.246.352-3.345-1.348-6.79-3.996-7.45a12.432 12.432 0 0 0-3.055-.296zM18.352 14c-1.368-.015-2.461.207-3.332.691-8.572 5.577 3.34 21.16 8.16 25.97C24.403 41.86 26.924 44 27.074 44c.15 0-2.443-2.903-4.05-5.035-4.552-6.037-7.076-11.712-6.97-15.953.061-2.418.91-4.37 2.59-5.657 1.001-.766 2.182-1.673 4.641-1.375L28 17.008c-2.876-1.794-6.014-2.923-9.648-3.008zm18.574 6c-.15 0 2.443 2.903 4.05 5.035 4.552 6.037 7.076 11.712 6.97 15.953-.061 2.418-.91 4.37-2.59 5.657-1.001.766-2.182 1.673-4.641 1.375L36 46.992c2.876 1.794 6.014 2.923 9.648 3.008 1.368.015 2.461-.207 3.332-.691 8.572-5.577-3.34-21.16-8.16-25.97C39.597 22.14 37.076 20 36.926 20zM32 28a4 4 0 0 0-4 4 4 4 0 0 0 4 4 4 4 0 0 0 4-4 4 4 0 0 0-4-4zm-15.277 8.004c-.502.307-2.443 6.034-2.676 8.246-.352 3.345 1.348 6.79 3.996 7.45 1.02.23 2.043.322 3.055.296 7.08-.18 13.826-6.079 18.699-10.066 1.747-1.43 4.321-4.309 4.2-4.43-.123-.121-2.71 1.998-3.985 3.027-5.812 4.693-12.486 7.34-17.016 7.332-1.69-.003-4.174-.996-5.223-2.187-1.198-1.361-1.588-2.41-1.617-5.504-.016-1.734.771-4.29.567-4.164z" fill="#F9F5D7"/>
    <path d="M32 4C16.512 4 4 16.512 4 32c0 .113.011.224.018.336C4.37 17.157 16.735 5 32 5c15.265 0 27.63 12.157 27.982 27.336.007-.112.018-.223.018-.336C60 16.512 47.487 4 32 4z" opacity=".1" fill="#F9F5D7"/>
</svg>
