<svg xmlns="http://www.w3.org/2000/svg" width="64" height="64" version="1">
    <path d="M4.05 32c-.011.335-.05.663-.05 1 0 15.512 12.488 28 28 28 15.51 0 27.998-12.488 27.998-28 0-.337-.039-.664-.05-1-.528 15.042-12.776 27-27.95 27S4.578 47.042 4.05 32z" opacity=".2"/>
    <rect width="56" height="56" x="4" y="4" rx="27.999" ry="27.999" fill="#CB241D"/>
    <path d="M32 4.002C16.487 4.002 4 16.489 4 32c0 .338.039.665.05 1C4.58 17.96 16.827 6 32 6s27.421 11.959 27.95 27c.011-.335.05-.662.05-1C60 16.489 47.512 4 32 4z" opacity=".1" fill="#F9F5D7"/>
    <g opacity=".2">
        <path d="M29.617 27.116l6.661 6.662a2.465 2.465 0 0 0 3.488-3.488l-6.662-6.662c-4.766-4.767-12.47-4.844-17.338-.24a2.14 2.14 0 0 0-.131.118l-.06.063-.063.059c-.043.043-.08.086-.118.13-4.604 4.87-4.526 12.573.241 17.34l6.662 6.66a2.465 2.465 0 1 0 3.487-3.486l-6.662-6.662c-2.906-2.906-2.926-7.622-.06-10.555 2.932-2.865 7.649-2.845 10.555.061z"/>
        <path d="M38.217 18.247a2.465 2.465 0 0 0 .001 3.486l6.661 6.661c2.907 2.908 2.925 7.623.06 10.556-2.933 2.865-7.648 2.846-10.555-.06l-6.66-6.662a2.467 2.467 0 0 0-3.489 3.488l6.661 6.662c4.767 4.767 12.47 4.844 17.338.241.045-.038.09-.076.132-.119.02-.021.039-.042.06-.062.02-.021.043-.04.064-.06.041-.043.078-.087.117-.132 4.604-4.867 4.526-12.57-.24-17.338l-6.661-6.66a2.467 2.467 0 0 0-3.489-.001z"/>
    </g>
    <g fill="#B16286">
        <path d="M29.617 26.116l6.661 6.662a2.465 2.465 0 0 0 3.488-3.487l-6.662-6.663c-4.766-4.767-12.47-4.844-17.338-.24a2.14 2.14 0 0 0-.131.118l-.06.063-.063.06c-.043.042-.08.086-.118.13-4.604 4.869-4.526 12.572.241 17.339l6.662 6.66a2.465 2.465 0 1 0 3.487-3.486l-6.662-6.662c-2.906-2.906-2.926-7.622-.06-10.555 2.932-2.865 7.649-2.845 10.555.061z"/>
        <path d="M38.217 17.247a2.465 2.465 0 0 0 .001 3.486l6.661 6.661c2.907 2.908 2.925 7.623.06 10.556-2.933 2.865-7.648 2.846-10.555-.06l-6.66-6.662a2.467 2.467 0 0 0-3.489 3.488l6.661 6.662c4.767 4.767 12.47 4.844 17.338.241.045-.038.09-.076.132-.119l.06-.062.064-.06c.041-.043.078-.087.117-.132 4.604-4.867 4.526-12.57-.24-17.338l-6.661-6.66a2.467 2.467 0 0 0-3.489-.001z"/>
    </g>
</svg>
