<svg xmlns="http://www.w3.org/2000/svg" width="64" height="64" version="1">
    <path d="M11.05 39c-.015.334-.05.662-.05 1 0 11.634 9.366 21 21 21 11.633 0 21-9.366 21-21 0-.338-.037-.666-.05-1-.525 11.162-9.655 20-20.95 20-11.296 0-20.426-8.838-20.95-20z" opacity=".2"/>
    <path d="M32 18c-11.634 0-21 9.367-21 21 0 11.634 9.366 21 21 21 11.633 0 21-9.366 21-21 0-11.633-9.367-21-21-21z" fill="#F9F5D7"/>
    <path d="M32 18c-11.634 0-21 9.366-21 21 0 .112.012.221.018.332A20.947 20.947 0 0 1 32 19c11.41 0 20.631 9.01 20.982 20.332.006-.11.018-.22.018-.332 0-11.634-9.366-21-21-21z" opacity=".2" fill="#F9F5D7"/>
    <path d="M21.64 12.156c-2.461-.336-7.489 5.524-8.605 6.649A61.323 61.323 0 0 0 13 20.84C14.44 19.4 23 9.32 23 17v-2c0-1.92-.533-2.731-1.36-2.844z" opacity=".2"/>
    <path d="M23.078 4.001c-10.08 0-10.078 12-10.078 15.84C14.44 18.4 23 8.32 23 16c0 5.326-.03 10.694 0 16v.364c.002.042.014.082.016.124a8 8 0 0 0 .148 1.078c.038.194.076.386.128.574.012.044.032.084.044.126a8 8 0 0 0 .266.766c.076.186.154.37.246.55a8 8 0 0 0 .516.871c.082.122.168.24.258.358a8 8 0 0 0 .754.868c.07.07.144.136.218.202a8 8 0 0 0 .996.786l.132.082a8 8 0 0 0 1.238.644l.044.016a8 8 0 0 0 1.438.434A8 8 0 0 0 31 40a8 8 0 0 0 1.512-.152c.072-.014.14-.032.21-.048a8 8 0 0 0 1.328-.414l.078-.03a8 8 0 0 0 4.871-7.355 8 8 0 0 0-8-8 8 8 0 0 0-2 .262V6.88c0-2.88-3.041-2.879-5.921-2.879zm7.922 24a4 4 0 0 1 4 4 4 4 0 0 1-4 4 4 4 0 0 1-4-4 4 4 0 0 1 4-4z" fill="#066678"/>
    <path d="M23.078 4.002C12.998 4.002 13 16 13 19.84l.012-.012C13.059 15.28 13.713 5 23.078 5 25.958 5 29 4.999 29 7.879V6.88c0-2.88-3.042-2.879-5.922-2.879z" opacity=".2" fill="#F9F5D7"/>
</svg>
