<svg xmlns="http://www.w3.org/2000/svg" width="64" height="64" version="1">
    <path d="M23.584 5C14.951 5 8 11.869 8 20.4V45.6c0 6.281 3.774 11.65 9.207 14.05.097.043.188.096.285.137.141.06.29.103.434.158.333.13.667.26 1.012.366h.002l.046.011c1.437.438 2.96.678 4.543.678h16.942C49.074 61 56 54.05 56 45.416v-2.832c0-8.115-6.12-14.741-14-15.508V20.4C42 11.87 35.05 5 26.416 5z" opacity=".2"/>
    <rect width="34" height="48" x="26" y="-56" rx="15.583" ry="15.529" transform="rotate(90)" fill="#48B9C7"/>
    <rect width="34" height="56" x="8" y="4" rx="15.583" ry="15.4" fill="#48B9C7"/>
    <path d="M25 11c-6.075 0-11 4.772-11 10.658 0 5.886 4.925 5.328 11 5.328s11 .558 11-5.328S31.075 11 25 11zm0 25a4 4 0 0 0-4 4 4 4 0 0 0 1 2.639V47a3 3 0 0 0 3 3 3 3 0 0 0 3-3v-4.361A4 4 0 0 0 29 40a4 4 0 0 0-4-4z" opacity=".2"/>
    <path d="M36 20.657c0 5.886-4.925 5.329-11 5.329s-11 .557-11-5.329S18.925 10 25 10s11 4.771 11 10.657z" fill="#F9F5D7"/>
    <circle cx="25" cy="46" r="3" fill="#F9F5D7"/>
    <circle cx="25" cy="39" r="4" fill="#F9F5D7"/>
    <path fill="#F9F5D7" d="M22 39h6v7h-6z"/>
    <path d="M23.584 4C14.951 4 8 10.869 8 19.4v1C8 11.87 14.95 5 23.584 5h2.832C35.049 5 42 11.869 42 20.4v-1C42 10.87 35.05 4 26.416 4h-2.832zM42 26.076v1c7.88.767 14 7.393 14 15.508v-1c0-8.115-6.12-14.741-14-15.508z" opacity=".2" fill="#F9F5D7"/>
</svg>
