<svg xmlns="http://www.w3.org/2000/svg" width="64" height="64">
    <path d="M59.958 31.828A28 28 0 0 1 32 59 28 28 0 0 1 4.044 32.172 28 28 0 0 0 4 33a28 28 0 0 0 28 28 28 28 0 0 0 28-28 28 28 0 0 0-.042-1.172z" opacity=".2"/>
    <path d="M60 32a28 28 0 0 1-28 28A28 28 0 0 1 4 32 28 28 0 0 1 32 4a28 28 0 0 1 28 28z" fill="#F15C22"/>
    <path d="M47.86 31a16 16 0 0 0-5.79-10.398c-.65.242-1.34.398-2.07.398-2.516 0-4.68-1.588-5.566-3.805A16 16 0 0 0 32 17a16 16 0 0 0-6.208 1.254l3.043 5.273A10 10 0 0 1 31.999 23a10 10 0 0 1 9.789 8h6.07zm-.004 4h-6.059a10 10 0 0 1-9.796 8 10 10 0 0 1-3.164-.523L25.8 47.734A16 16 0 0 0 32 49a16 16 0 0 0 2.442-.21C35.33 46.582 37.49 45 40 45c.733 0 1.427.154 2.079.399A16 16 0 0 0 47.856 35zM44 15a4 4 0 0 0-4-4 4 4 0 0 0-4 4 4 4 0 0 0 4 4 4 4 0 0 0 4-4zm0 36a4 4 0 0 0-4-4 4 4 0 0 0-4 4 4 4 0 0 0 4 4 4 4 0 0 0 4-4zM25.376 25.528L22.34 20.27a16 16 0 0 0-5.836 8.824C17.422 30.149 18 31.507 18 33c0 1.492-.576 2.848-1.492 3.903a16 16 0 0 0 5.828 8.836l3.04-5.262A10 10 0 0 1 22 33a10 10 0 0 1 3.376-7.472zM16 33a4 4 0 0 0-4-4 4 4 0 0 0-4 4 4 4 0 0 0 4 4 4 4 0 0 0 4-4z" opacity=".2"/>
    <path d="M47.86 30a16 16 0 0 0-5.79-10.398A5.88 5.88 0 0 1 40 20c-2.516 0-4.68-1.589-5.566-3.805A16 16 0 0 0 32 16a16 16 0 0 0-6.208 1.254l3.043 5.273A10 10 0 0 1 31.999 22a10 10 0 0 1 9.789 8h6.07zm-.004 4h-6.059a10 10 0 0 1-9.796 8 10 10 0 0 1-3.164-.523L25.8 46.734A16 16 0 0 0 32 48a16 16 0 0 0 2.442-.21C35.33 45.582 37.49 44 40 44c.733 0 1.427.154 2.079.399A16 16 0 0 0 47.856 34zM44 14a4 4 0 0 0-4-4 4 4 0 0 0-4 4 4 4 0 0 0 4 4 4 4 0 0 0 4-4zm0 36a4 4 0 0 0-4-4 4 4 0 0 0-4 4 4 4 0 0 0 4 4 4 4 0 0 0 4-4zM25.376 24.528L22.34 19.27a16 16 0 0 0-5.836 8.824C17.422 29.149 18 30.507 18 32c0 1.492-.576 2.848-1.492 3.903a16 16 0 0 0 5.828 8.836l3.04-5.262A10 10 0 0 1 22 32a10 10 0 0 1 3.376-7.472zM16 32a4 4 0 0 0-4-4 4 4 0 0 0-4 4 4 4 0 0 0 4 4 4 4 0 0 0 4-4z" fill="#F9F5D7"/>
    <path d="M63.954 47.918A14 14 0 0 1 50 61a14 14 0 0 1-13.954-12.918A14 14 0 0 0 36 49a14 14 0 0 0 14 14 14 14 0 0 0 14-14 14 14 0 0 0-.046-1.082z" opacity=".2" fill-rule="evenodd"/>
    <circle cx="50" cy="48" r="14" fill="#8F3F71"/>
    <path d="M47.928 40l-.176 2.107a6.286 6.286 0 0 0-1.837 1.063l-1.916-.902-2 3.464 1.74 1.208a6.286 6.286 0 0 0-.097 1.06 6.286 6.286 0 0 0 .092 1.065L42 50.269l2 3.464 1.91-.9a6.286 6.286 0 0 0 1.842 1.056l.176 2.112h4l.177-2.107a6.286 6.286 0 0 0 1.837-1.063l1.915.902 2-3.464-1.739-1.208a6.286 6.286 0 0 0 .096-1.06 6.286 6.286 0 0 0-.091-1.065l1.734-1.203-2-3.464-1.91.9a6.286 6.286 0 0 0-1.842-1.057l-.177-2.111h-4zm2 5.714A2.286 2.286 0 0 1 52.214 48a2.286 2.286 0 0 1-2.286 2.286A2.286 2.286 0 0 1 47.642 48a2.286 2.286 0 0 1 2.286-2.286z" fill="#F9F5D7"/>
    <path d="M31.998 4A28 28 0 0 0 4 32a28 28 0 0 0 .018.492A28 28 0 0 1 31.998 5H32a28 28 0 0 1 27.973 27.5 28 28 0 0 0 .025-.5A28 28 0 0 0 32 4h-.002z" opacity=".2" fill="#F9F5D7"/>
</svg>
