<svg xmlns="http://www.w3.org/2000/svg" width="64" height="64">
    <path d="M34.084 5c-.315.157-.675.274-.958.49-.545.418-1.077.865-1.565 1.347-.537.53-1.093.83-1.876.99-1.883.382-2.995.804-4.754 1.542-3.913 1.647-6.503 4.75-8.349 8.48-1.637 3.317-1.667 6.912-1.532 10.524.277 7.452 4.717 12.893 7.091 18.627h.615c-.927 0-1.756.623-1.756 1.397v2.806c0 .774.83 1.796 1.756 1.796h-1.32C20.225 53 19 53.935 19 55.097v3.806C19 60.065 20.225 61 21.436 61h19.312C41.959 61 43 60.065 43 58.903v-3.806c0-1.162-1.04-2.098-2.252-2.098h-1.32C40.355 53 41 51.977 41 51.203v-2.806c0-.774-.645-1.397-1.572-1.397h.258c.6-.557.574-1.555 1.11-2.125 2.427-2.568 2.86-6.212 1.156-9.333-.833-1.523-2.005-2.76-3.356-3.816-1.522-1.19-3.094-2.311-4.628-3.483-.44-.336-.384-.717-.968-1.243 1.446.305 2.158.683 3.322.742 2.01.098 3.744.966 5.354 2.136a8.034 8.034 0 0 0 2.072 1.067c.946.324 1.417.092 1.98-.763.15-.227.239-.486.38-.783 1.12.028 1.737-.831 2.045-1.867.104-.355.283-.682.412-1.027.871-2.307.423-4.35-1.245-6.13-.373-.408-.816-.746-1.206-1.137-1.3-1.3-2.608-2.592-3.876-3.922-.92-.967-1.75-2.02-2.679-2.98-.46-.473-.848-.946-1.062-1.58a3.84 3.84 0 0 0-1.812-2.177c-.313-.176-1.411-.38-1.638-.525-.364-1.06.499-2.387-.963-3.054z" opacity=".2"/>
    <path d="M34.084 4c-.315.157-.675.274-.958.49-.545.418-1.077.865-1.565 1.347-.537.53-1.093.83-1.876.99-1.883.382-2.995.804-4.754 1.542-3.913 1.647-6.503 4.75-8.349 8.48-1.637 3.317-1.667 6.912-1.532 10.524.277 7.452 4.717 12.893 7.091 18.627h.615c-.927 0-1.756.623-1.756 1.397v2.806c0 .774.83 1.796 1.756 1.796h-1.32C20.225 52 19 52.935 19 54.097v3.806C19 59.065 20.225 60 21.436 60h19.312C41.959 60 43 59.065 43 57.903v-3.806c0-1.162-1.04-2.098-2.252-2.098h-1.32C40.355 52 41 50.977 41 50.203v-2.806c0-.774-.645-1.397-1.572-1.397h.258c.6-.557.574-1.555 1.11-2.125 2.427-2.568 2.86-6.212 1.156-9.333-.833-1.523-2.005-2.76-3.356-3.816-1.522-1.19-3.094-2.311-4.628-3.483-.44-.336-.384-.717-.968-1.243 1.446.305 2.158.683 3.322.742 2.01.098 3.744.966 5.354 2.136a8.034 8.034 0 0 0 2.072 1.067c.946.324 1.417.092 1.98-.763.15-.227.239-.486.38-.783 1.12.028 1.737-.831 2.045-1.867.104-.355.283-.682.412-1.027.871-2.307.423-4.35-1.245-6.13-.373-.408-.816-.746-1.206-1.137-1.3-1.3-2.608-2.592-3.876-3.922-.92-.967-1.75-2.02-2.679-2.98-.46-.473-.848-.946-1.062-1.58a3.84 3.84 0 0 0-1.812-2.177c-.313-.176-1.411-.38-1.638-.525-.364-1.06.499-2.387-.963-3.054z" fill="#504945"/>
    <path d="M34.084 4c-.315.157-.674.275-.957.49-.545.419-1.078.866-1.566 1.348-.537.529-1.092.83-1.875.99-1.883.382-2.995.803-4.754 1.541-3.913 1.647-6.504 4.75-8.35 8.48-1.325 2.684-1.584 5.552-1.568 8.462.053-2.566.395-5.086 1.568-7.461 1.846-3.731 4.437-6.834 8.35-8.48 1.76-.739 2.87-1.16 4.754-1.542.783-.16 1.338-.461 1.875-.99a16.733 16.733 0 0 1 1.566-1.348c.283-.215.642-.333.957-.49.62.283.813.688.867 1.139.03-.825.193-1.656-.867-2.139zm.883 2.676c-.018.462-.07.942.08 1.379.227.145 1.325.349 1.639.525a3.836 3.836 0 0 1 1.81 2.176c.214.634.602 1.107 1.063 1.58.929.96 1.758 2.013 2.68 2.98 1.267 1.33 2.574 2.623 3.874 3.922.39.39.835.73 1.207 1.137.994 1.06 1.543 2.215 1.65 3.46.168-1.635-.395-3.121-1.65-4.46-.372-.407-.817-.746-1.207-1.137-1.3-1.299-2.607-2.592-3.875-3.922-.92-.967-1.75-2.02-2.68-2.98-.46-.473-.848-.946-1.062-1.58a3.836 3.836 0 0 0-1.81-2.176c-.314-.176-1.412-.38-1.64-.525a1.786 1.786 0 0 1-.08-.38zM33 27c.584.526.528.906.967 1.242 1.534 1.172 3.107 2.295 4.629 3.485 1.351 1.057 2.522 2.293 3.355 3.816a8.239 8.239 0 0 1 .992 3.383 8.109 8.109 0 0 0-.992-4.383c-.833-1.523-2.004-2.76-3.355-3.816-1.522-1.19-3.095-2.313-4.63-3.485l-.007-.008c-.287-.078-.6-.158-.959-.234zm7.178 19.164c-.116.31-.25.612-.492.836h-.258c.926 0 1.572.622 1.572 1.396v-1c0-.54-.318-.999-.822-1.232zm-18.385.074c-.47.25-.793.675-.793 1.158v1c0-.774.83-1.396 1.756-1.396h-.615c-.106-.255-.235-.508-.348-.762zm19.002 5.766c-.259.535-.747.996-1.367.996h1.32c1.211 0 2.252.934 2.252 2.096v-1c0-1.147-1.014-2.068-2.205-2.092zm-19.537.012c-1.15.086-2.258.975-2.258 2.08v1C19 53.934 20.224 53 21.436 53h1.32c-.616 0-1.183-.454-1.498-.984z" fill="#F9F5D7" opacity=".1"/>
</svg>
