<svg xmlns="http://www.w3.org/2000/svg" width="64" height="64">
    <g transform="translate(0 16)">
        <ellipse cx="10.607" cy="65.761" rx="6.529" ry="5.419" transform="rotate(-45)" opacity=".2"/>
        <ellipse cx="11.314" cy="65.054" rx="6.529" ry="5.419" transform="rotate(-45)" fill="#504945"/>
        <path d="M32-11C16.55-11 4 1.55 4 17s12.55 28 28 28 28-12.55 28-28-12.55-28-28-28z" opacity=".2"/>
        <path d="M32-12C16.55-12 4 .55 4 16s12.55 28 28 28 28-12.55 28-28-12.55-28-28-28z" fill="#7B6F64"/>
        <path d="M32-12C16.55-12 4 .55 4 16c0 .113.011.224.018.336C4.372 1.194 16.773-11 32-11c15.227 0 27.628 12.194 27.982 27.336.007-.112.018-.223.018-.336C60 .55 47.45-12 32-12z" opacity=".1" fill="#F9F5D7"/>
        <path d="M32-7C18.758-7 8 3.758 8 17s10.758 24 24 24 24-10.758 24-24S45.242-7 32-7z" opacity=".2"/>
        <path d="M32-8C18.758-8 8 2.758 8 16s10.758 24 24 24 24-10.758 24-24S45.242-8 32-8z" fill="#F9F5D7"/>
        <path d="M32 11c-3.31 0-6 2.69-6 6s2.69 6 6 6 6-2.69 6-6-2.69-6-6-6z" opacity=".2"/>
        <path d="M59.178-10.16a2.792 2.792 0 0 1 0 3.957l-25.36 25.36-.913-.3c-1.473-.482-.695 3.089-1.791 1.993-1.096-1.096-1.877-1.707-1.386-3.177L30.9 14.16l24.32-24.32a2.792 2.792 0 0 1 3.957 0z" opacity=".1"/>
        <path d="M59.178-11.16a2.792 2.792 0 0 1 0 3.957l-25.36 25.36-.913-.3c-1.473-.482-.695 3.089-1.791 1.993-1.096-1.096-1.877-1.707-1.386-3.177L30.9 13.16l24.32-24.32a2.792 2.792 0 0 1 3.957 0z" fill="#7CB668"/>
        <path d="M14.377 7.474a2.792 2.792 0 0 0 1.024 3.822L33.075 21.5l.636-1.59c.575-1.438 1.227.665 2.002-.677.775-1.342-1.014.095-.59-1.396l.393-1.389L18.2 6.45a2.792 2.792 0 0 0-3.822 1.024z" opacity=".1"/>
        <path d="M14.377 6.474a2.792 2.792 0 0 0 1.024 3.822L33.075 20.5l.636-1.59c.575-1.439 1.227.665 2.002-.677.775-1.342-1.014.095-.59-1.397l.393-1.388L18.2 5.45a2.792 2.792 0 0 0-3.822 1.024z" fill="#7CB668"/>
        <path d="M32 10c-3.31 0-6 2.69-6 6s2.69 6 6 6 6-2.69 6-6-2.69-6-6-6z" fill="#7B6F64"/>
    </g>
</svg>
