<svg xmlns="http://www.w3.org/2000/svg" width="64" height="64" version="1">
    <rect width="56" height="56" x="4" y="5" rx="2.8" ry="2.8" opacity=".2"/>
    <rect width="56" height="56" x="4" y="4" rx="2.8" ry="2.8" fill="#504945"/>
    <path d="M47 20l-8.621 14.348-9.102-14.332h-6.22L25 23.078v19.65L22.033 45H29.951L28 42.729V28.076l7.268 11.488 1.607 2.696L47 25.393v17.336L44.861 45H56.22L53 42.729v-20.44l3.22-2.273H53zm-27.14 8.006a4.403 4.403 0 0 0-.497.004c-1.946.128-3.455 1.336-4.363 2.878V28.02l-5 2.427-2.24 1.028L10 33.432v9.29L7.916 45h10.359L15 42.723V32.489c1.775-.428 3.08-.806 5.096.477l1.353-4.614a5.085 5.085 0 0 0-1.59-.346z" opacity=".2"/>
    <path d="M47 19l-8.621 14.348-9.102-14.332h-6.22L25 22.078v19.65L22.033 44H29.951L28 41.729V27.076l7.268 11.488 1.607 2.696L47 24.393v17.336L44.861 44H56.22L53 41.729v-20.44l3.22-2.273H53zm-27.14 8.006a4.403 4.403 0 0 0-.497.004c-1.946.128-3.455 1.536-4.363 3.078V27.02l-5 2.427-2.24 1.028L10 32.432v9.29L7.916 44h10.359L15 41.723V31.489c1.775-.428 3.08-.806 5.096.477l1.353-4.614a5.085 5.085 0 0 0-1.59-.346z" fill="#F9F5D7"/>
    <path d="M6.8 4C5.25 4 4 5.25 4 6.8v1C4 6.25 5.25 5 6.8 5h50.4C58.75 5 60 6.25 60 7.8v-1C60 5.25 58.75 4 57.2 4H6.8z" fill="#F9F5D7" opacity=".1"/>
</svg>
