<svg xmlns="http://www.w3.org/2000/svg" width="64" height="64" version="1">
    <path d="M32.022 4C18.227 4 7.044 14.297 7.044 27v4.944c-.73 13.865 7.735 25.52 20.244 29.128 3.687 1.233 5.586.871 6.557.899 7.54.207 14.499-7.275 9.241-14.367C51.602 43.73 56.994 35.744 57 27 57 14.297 45.817 4 32.022 4z" opacity=".2"/>
    <path d="M32.022 3C18.227 3 7.044 13.297 7.044 26v4.944c-.73 13.865 7.735 25.52 20.244 29.128 3.687 1.233 5.586.871 6.557.899 7.54.207 14.499-7.275 9.241-14.367C51.602 42.73 56.994 34.744 57 26 57 13.297 45.817 3 32.022 3z" fill="#F9F5D7"/>
    <path d="M28.85 35.049c-.239-.261-.377-.575-.535-.889.15.55.459 1.022.744 1.503l-.21-.614m.001.002c-.237-.262-.376-.576-.534-.888.15.55.458 1.022.744 1.503l-.21-.616m14.664-4.786c.037 1.026-.294 1.524-.594 2.405l-.54.273c-.44.872.045.553-.271 1.246-.689.623-2.088 1.948-2.535 2.07-.328-.008.221-.394.293-.544-.921.643-.74.966-2.149 1.357l-.04-.093c-3.474 1.663-8.3-1.633-8.237-6.13-.036.285-.105.214-.182.328-.18-2.313 1.05-4.637 3.123-5.587 2.028-1.02 4.406-.602 5.857.776-.797-1.063-2.385-2.19-4.267-2.086-1.843.03-3.569 1.222-4.144 2.517-.944.605-1.054 2.333-1.465 2.65-.554 4.141 1.041 5.93 3.74 8.036.424.29.12.336.176.557a7.335 7.335 0 0 1-2.392-1.862c.358.534.745 1.052 1.245 1.46-.846-.291-1.976-2.085-2.305-2.158 1.458 2.655 5.913 4.657 8.247 3.664-1.08.04-2.452.022-3.664-.434-.511-.267-1.203-.819-1.08-.922 3.185 1.21 6.474.916 9.228-1.332.702-.556 1.467-1.5 1.689-1.513-.333.51.057.245-.199.695.697-1.146-.304-.467.721-1.98l.38.531c-.143-.952 1.16-2.107 1.028-3.612.299-.46.333.495.016 1.554.44-1.174.116-1.363.229-2.333.121.326.283.672.365 1.016-.287-1.135.293-1.91.437-2.57-.142-.065-.442.5-.511-.84.01-.582.16-.305.217-.448-.112-.066-.407-.512-.586-1.368.129-.202.347.521.524.55-.114-.68-.31-1.199-.318-1.721-.517-1.1-.183.146-.602-.472-.55-1.746.456-.406.525-1.198.833 1.228 1.308 3.134 1.527 3.923a16.284 16.284 0 0 0-.765-2.797c.254.11-.408-1.979.33-.596-.79-2.947-3.371-5.701-5.746-6.994.29.27.658.61.526.664-1.182-.715-.974-.772-1.144-1.074-.962-.398-1.025.033-1.662.001-1.814-.98-2.163-.876-3.832-1.489l.076.362c-1.201-.407-1.4.154-2.698 0-.079-.061.416-.227.824-.286-1.162.156-1.108-.234-2.244.042.28-.2.576-.332.875-.502-.947.059-2.262.561-1.856.104-1.545.702-4.29 1.687-5.83 3.156l-.048-.33c-.706.863-3.077 2.575-3.266 3.693l-.19.045c-.366.632-.604 1.35-.895 2-.48.833-.704.32-.636.451-.944 1.95-1.414 3.587-1.819 4.93.289.44.007 2.645.116 4.41-.474 8.72 6.013 17.184 13.103 19.138 1.039.38 2.584.366 3.898.403-1.55-.452-1.75-.239-3.262-.775-1.09-.523-1.328-1.12-2.1-1.801l.306.55c-1.514-.546-.88-.675-2.113-1.072l.327-.433c-.488-.038-1.297-.841-1.52-1.288l-.537.022c-.644-.809-.988-1.393-.963-1.846l-.173.315c-.197-.344-2.374-3.038-1.244-2.41-.21-.195-.49-.318-.791-.878l.23-.266c-.543-.712-1-1.624-.966-1.928.29.398.491.473.69.541-1.372-3.465-1.449-.19-2.488-3.527l.22-.018c-.168-.259-.271-.539-.407-.814l.096-.97c-.987-1.163-.275-4.943-.132-7.016.097-.843.824-1.741 1.375-3.149l-.336-.058c.643-1.141 3.67-4.584 5.073-4.407.68-.868-.135-.003-.268-.222 1.492-1.571 1.962-1.11 2.969-1.393 1.085-.656-.932.256-.418-.25 1.878-.488 1.33-1.11 3.78-1.357.258.15-.6.231-.815.425 1.564-.78 4.95-.601 7.15.432 2.55 1.214 5.419 4.802 5.532 8.177l.13.036c-.066 1.342.201 2.894-.262 4.319l.313-.675" opacity=".2"/>
    <path d="M28.85 34.049c-.239-.261-.377-.575-.535-.889.15.55.459 1.022.744 1.503l-.21-.614m.001.002c-.237-.262-.376-.576-.534-.888.15.55.458 1.022.744 1.503l-.21-.615m14.664-4.787c.037 1.026-.294 1.524-.594 2.405l-.54.273c-.44.872.045.553-.271 1.247-.689.622-2.088 1.947-2.535 2.068-.328-.007.221-.393.293-.543-.921.643-.74.966-2.149 1.357l-.04-.093c-3.474 1.663-8.3-1.633-8.237-6.13-.036.285-.105.214-.182.329-.18-2.314 1.05-4.638 3.123-5.588 2.028-1.02 4.406-.602 5.857.776-.797-1.063-2.385-2.19-4.267-2.086-1.843.03-3.569 1.222-4.144 2.517-.944.605-1.054 2.333-1.465 2.65-.554 4.141 1.041 5.93 3.74 8.036.424.291.12.336.176.557a7.335 7.335 0 0 1-2.392-1.862c.358.534.745 1.052 1.245 1.46-.846-.291-1.976-2.085-2.305-2.158 1.458 2.655 5.913 4.657 8.247 3.664-1.08.04-2.452.022-3.664-.434-.511-.267-1.203-.819-1.08-.922 3.185 1.21 6.474.916 9.228-1.331.702-.556 1.467-1.502 1.689-1.514-.333.51.057.245-.199.695.697-1.146-.304-.467.721-1.98l.38.531c-.143-.952 1.16-2.107 1.028-3.612.299-.46.333.495.016 1.554.44-1.174.116-1.363.229-2.333.121.326.283.672.365 1.016-.287-1.135.293-1.91.437-2.57-.142-.065-.442.5-.511-.84.01-.582.16-.305.217-.448-.112-.066-.407-.512-.586-1.368.129-.202.347.521.524.55-.114-.68-.31-1.199-.318-1.721-.517-1.1-.183.147-.602-.472-.55-1.746.456-.406.525-1.198.833 1.228 1.308 3.134 1.527 3.923a16.284 16.284 0 0 0-.765-2.797c.254.11-.408-1.979.33-.596-.79-2.947-3.371-5.701-5.746-6.994.29.27.658.61.526.664-1.182-.715-.974-.772-1.144-1.074-.962-.398-1.025.033-1.662.001-1.814-.98-2.163-.876-3.832-1.489l.076.362c-1.201-.407-1.4.154-2.698.001-.079-.062.416-.228.824-.287-1.162.156-1.108-.234-2.244.043.28-.2.576-.333.875-.503-.947.059-2.262.561-1.856.104-1.545.702-4.29 1.687-5.83 3.156l-.048-.33c-.706.863-3.077 2.575-3.266 3.693l-.19.045c-.366.632-.604 1.35-.895 2-.48.833-.704.32-.636.451-.944 1.95-1.414 3.587-1.819 4.93.289.44.007 2.645.116 4.41-.474 8.72 6.013 17.184 13.103 19.138 1.039.38 2.584.366 3.898.403-1.55-.452-1.75-.239-3.262-.775-1.09-.523-1.328-1.12-2.1-1.801l.306.55c-1.514-.546-.88-.675-2.113-1.072l.327-.433c-.488-.038-1.297-.841-1.52-1.288l-.537.022c-.644-.809-.988-1.393-.963-1.846l-.173.315c-.197-.344-2.374-3.038-1.244-2.41-.21-.195-.49-.318-.791-.877l.23-.267c-.543-.712-1-1.624-.966-1.928.29.398.491.473.69.541-1.372-3.465-1.449-.19-2.488-3.527l.22-.018c-.168-.259-.271-.539-.407-.814l.096-.97c-.987-1.163-.275-4.943-.132-7.016.097-.843.824-1.741 1.375-3.149l-.336-.058c.643-1.141 3.67-4.584 5.073-4.407.68-.868-.135-.003-.268-.222 1.492-1.571 1.962-1.11 2.969-1.393 1.085-.656-.932.256-.418-.25 1.878-.487 1.33-1.11 3.78-1.357.258.15-.6.231-.815.425 1.564-.779 4.95-.601 7.15.432 2.55 1.214 5.419 4.802 5.532 8.177l.13.036c-.066 1.342.201 2.894-.262 4.319l.313-.675" fill="#C77089"/>
    <path d="M32.023 3C18.228 3 7.043 13.298 7.043 26v1c0-12.702 11.185-23 24.98-23 13.581 0 24.622 9.982 24.961 22.412.005-.137.016-.274.016-.412C57 13.298 45.818 3 32.023 3zM7.043 30.945a29.546 29.546 0 0 0-.027 2.024c.005-.34.009-.68.027-1.024v-1zm36.98 17.196c-.31.157-.617.319-.937.464.186.251.34.503.496.754.146-.074.295-.144.441-.218a8 8 0 0 1 .842 3.068c.087-1.31-.148-2.683-.842-4.068z" opacity=".1" fill="#F9F5D7"/>
</svg>
