<svg xmlns="http://www.w3.org/2000/svg" width="64" height="64">
    <path d="M45.999 8.002a14 14 0 0 1 10.09 4.317c.066.064.13.118.195.184 1.461 1.46 2.308 2.86 2.676 4.23a14 14 0 0 1 1.038 5.2 14 14 0 0 1-14 14 14 14 0 0 1-5.578-1.18c-.144-.058-.29-.128-.437-.196a14 14 0 0 1-.54-.266c-.075-.04-.146-.066-.222-.11C25.027 53.381 4 55.981 4 55.981l28.785-29.379a6.417 6.417 0 0 1-.54-2.062 14 14 0 0 1-.246-2.6 14 14 0 0 1 14-14z" fill="#7CB668"/>
    <path d="M59.975 22.414a14 14 0 0 1-13.977 13.519 14 14 0 0 1-5.578-1.18c-.144-.058-.29-.13-.438-.197a14 14 0 0 1-.539-.266c-.075-.04-.146-.065-.222-.11C26.996 50.72 9.733 54.933 5.173 55.786L4 56.98s21.027-2.6 35.22-21.8c.077.045.148.07.223.11a14 14 0 0 0 .54.266c.146.068.293.139.437.197a14 14 0 0 0 5.578 1.178 14 14 0 0 0 14-13.998 14 14 0 0 0-.023-.52zm-27.951.055a14 14 0 0 0-.024.47 14 14 0 0 0 .246 2.6c.035.421.139.866.281 1.323l.258-.261a6.417 6.417 0 0 1-.539-2.063 14 14 0 0 1-.223-2.07z" opacity=".2"/>
    <path d="M45.998 7.94A14 14 0 0 0 32 21.94a14 14 0 0 0 .023.528 14 14 0 0 1 13.975-13.53l.002.063a14 14 0 0 1 10.09 4.317c.066.063.129.117.195.183 1.461 1.461 2.308 2.86 2.676 4.23a14 14 0 0 1 1.014 4.682 14 14 0 0 0 .023-.48 14 14 0 0 0-1.037-5.202c-.368-1.37-1.215-2.769-2.676-4.23-.066-.066-.129-.12-.195-.184A14 14 0 0 0 46 8.001l-.002-.062zM32.527 26.862L4 55.98s.438-.057 1.172-.194l27.613-28.184c-.112-.255-.182-.496-.258-.739z" opacity=".2" fill="#F9F5D7"/>
    <path d="M18 8.002A14 14 0 0 0 7.911 12.32c-.066.064-.129.118-.195.184-1.461 1.461-2.308 2.86-2.676 4.23a14 14 0 0 0-1.04 5.2 14 14 0 0 0 14 14 14 14 0 0 0 5.578-1.18c.143-.058.29-.128.437-.196a14 14 0 0 0 .54-.265c.074-.04.146-.066.222-.11 14.194 19.2 35.22 21.799 35.22 21.799L31.214 26.603a6.381 6.381 0 0 0 .539-2.063 14 14 0 0 0 .246-2.6 14 14 0 0 0-14-14z" fill="#73C48F"/>
    <circle cx="18" cy="23.002" r="6" opacity=".2"/>
    <circle cx="32" cy="35.002" r="2" opacity=".2"/>
    <circle cx="45.999" cy="23.002" r="6" opacity=".2"/>
    <circle cx="18" cy="22.002" r="6" fill="#F9F5D7"/>
    <circle cx="32" cy="34.002" r="2" fill="#F9F5D7"/>
    <circle cx="45.999" cy="22.002" r="6" fill="#F9F5D7"/>
    <path d="M17.998 7.94l.002.062a14 14 0 0 0-10.09 4.316c-.066.064-.129.118-.195.184-1.461 1.461-2.308 2.86-2.676 4.23A14 14 0 0 0 4 21.934a14 14 0 0 0 .025.488 14 14 0 0 1 1.014-4.69c.368-1.37 1.215-2.769 2.676-4.23.066-.066.13-.12.195-.184A14 14 0 0 1 18 9.002l-.002-.063a14 14 0 0 1 13.977 13.538 14 14 0 0 0 .023-.539 14 14 0 0 0-14-14zm13.473 18.925c-.076.243-.147.482-.258.737l27.613 28.183c.734.138 1.172.196 1.172.196L31.471 26.864z" opacity=".2" fill="#F9F5D7"/>
    <path d="M4.025 22.421a14 14 0 0 0-.025.512 14 14 0 0 0 14 13.998 14 14 0 0 0 5.578-1.178c.144-.058.29-.13.438-.197a14 14 0 0 0 .539-.266c.075-.04.146-.065.222-.11 14.193 19.2 35.22 21.8 35.22 21.8l-1.172-1.196c-4.56-.852-21.823-5.065-34.049-21.604-.076.044-.147.07-.222.11a14 14 0 0 1-.54.265c-.146.068-.293.14-.437.198A14 14 0 0 1 18 35.933 14 14 0 0 1 4.024 22.42zm27.95.055a14 14 0 0 1-.223 2.062 6.382 6.382 0 0 1-.54 2.063l.258.261c.143-.457.247-.901.282-1.324a14 14 0 0 0 .246-2.6 14 14 0 0 0-.024-.462z" opacity=".2"/>
</svg>
