<svg xmlns="http://www.w3.org/2000/svg" width="64" height="64" version="1">
    <path d="M49.92 15.953c.322 4.992-.3 10.188-2.453 14.077-1.036 1.851-2.222 3.658-3.204 5.503-2.835 5.326.806 3.275-5.221 3.275H24.586c-6.027 0-1.007 11.315-4.604-.99C18.927 34.21 14.01 26.488 14 15.562c-.004-3.99 3.623-6.582 7.354-8.193 4.164-2.051 8.433-2.337 12.825-2.343 7.886-.39 15.522 3.653 15.742 10.927z" opacity=".2"/>
    <path d="M15.193 33h33.548c6.201 0 11.193 4.91 11.193 11.008C61.454 60.653 36.1 61.037 33.2 60.998 30.3 60.96 4 60.153 4 44.008 4 37.909 8.992 33 15.193 33z" opacity=".2"/>
    <path d="M49.92 14.953c.322 4.992-.3 10.188-2.453 14.077-1.036 1.851-2.222 3.658-3.204 5.503-2.835 5.326.806 3.275-5.221 3.275H24.586c-6.027 0-1.007 11.315-4.604-.99C18.927 33.21 14.01 25.488 14 14.562c-.004-3.99 3.623-6.582 7.354-8.193 4.164-2.051 8.433-2.337 12.825-2.343 7.886-.39 15.522 3.653 15.742 10.927z" fill="#928274"/>
    <ellipse cx="26.6" cy="28.4" rx="5.6" ry="8.4" fill="#F9F5D7"/>
    <ellipse cx="37.4" cy="28.4" rx="5.6" ry="8.4" fill="#F9F5D7"/>
    <ellipse cx="36.2" cy="30.3" rx="2.8" ry="4.2" fill="#3A393A"/>
    <ellipse cx="27.8" cy="30.3" rx="2.8" ry="4.2" fill="#3A393A"/>
    <path d="M15.193 32h33.548c6.201 0 11.193 4.91 11.193 11.008C61.454 59.653 36.1 60.037 33.2 59.998 30.3 59.96 4 59.153 4 43.008 4 36.909 8.992 32 15.193 32z" fill="#BDAD93"/>
    <path d="M35.652 4.004c-.489-.01-.98-.001-1.472.023-4.392.006-8.66.289-12.825 2.34-3.73 1.61-7.359 4.204-7.355 8.195 0 .223.013.436.02.655.201-3.794 3.714-6.287 7.335-7.85 4.164-2.051 8.433-2.334 12.825-2.34.493-.024.983-.033 1.472-.023 7.338.149 14.064 4.13 14.27 10.95.036.563.049 1.129.058 1.694.01-.899 0-1.8-.058-2.695-.206-6.82-6.932-10.8-14.27-10.95z" opacity=".1" fill="#F9F5D7"/>
    <path d="M15.191 32C8.991 32 4 36.91 4 43.008c0 .172.016.334.025.5C4.291 37.645 9.162 33 15.191 33h33.551c6.201 0 11.192 4.91 11.192 11.008.024.27.028.525.037.785.02-.575.02-1.162-.037-1.785 0-6.099-4.99-11.008-11.192-11.008h-33.55z" opacity=".2" fill="#F9F5D7"/>
</svg>
