<svg xmlns="http://www.w3.org/2000/svg" width="64" height="64" version="1">
    <path d="M4.05 32c-.011.334-.05.662-.05 1 0 15.512 12.488 28 28 28s28-12.488 28-28c0-.338-.039-.665-.05-1C59.42 47.042 47.172 59 32 59 16.824 59 4.576 47.042 4.05 32z" opacity=".2"/>
    <rect width="56" height="56" x="4" y="4" rx="28" ry="28" fill="#504945"/>
    <path d="M35.141 18.993c-6.057 0-11.062 4.95-11.062 11 0 2.3.778 4.416 2 6.188l-7.375 7.375a2.011 2.011 0 0 0 2.812 2.875l7.375-7.375a11.027 11.027 0 0 0 6.25 1.937c6.058 0 11-4.95 11-11s-4.942-11-11-11zm0 4c3.895 0 7 3.11 7 7s-3.105 7-7 7-7-3.11-7-7 3.105-7 7-7z" opacity=".2"/>
    <path d="M32 4C16.488 4 4 16.488 4 32c0 .114.011.224.018.336C4.369 17.134 16.71 5 32 5h.002c15.29 0 27.63 12.134 27.982 27.336.007-.112.018-.223.018-.336 0-15.512-12.488-28-28-28H32z" opacity=".1" fill="#F9F5D7"/>
    <path d="M35.141 17.989c-6.057 0-11.062 4.95-11.062 11 0 2.3.778 4.416 2 6.188l-7.375 7.375a2.011 2.011 0 0 0 2.812 2.875l7.375-7.375a11.027 11.027 0 0 0 6.25 1.937c6.058 0 11-4.95 11-11s-4.942-11-11-11zm0 4c3.895 0 7 3.11 7 7s-3.105 7-7 7-7-3.11-7-7 3.105-7 7-7z" fill="#F9F5D7"/>
</svg>
