<svg xmlns="http://www.w3.org/2000/svg" width="64" height="64">
    <path d="M6.98 21.522a3.22 2.781 75 0 0-1.852 3.83l8.89 33.175a3.22 2.781 75 0 0 3.519 2.39C26.9 58.41 32.176 47.505 29.27 36.663c-2.905-10.843-12.927-17.65-22.29-15.14z" opacity=".2"/>
    <path d="M30.318 5.004A3.429 3.652 0 0 0 27 8.654v48.694A3.429 3.652 0 0 0 30.429 61h25.143a3.429 3.652 0 0 0 3.004-5.412L33.434 6.894a3.429 3.652 0 0 0-3.116-1.89z" opacity=".2"/>
    <path d="M6.98 20.522a3.22 2.781 75 0 0-1.852 3.83l8.89 33.175a3.22 2.781 75 0 0 3.519 2.39C26.9 57.41 32.176 46.505 29.27 35.663 26.366 24.82 16.344 18.013 6.98 20.522z" fill="#7CB668"/>
    <path d="M10.51 20.01a15.247 15.247 0 0 0-3.528.511 3.22 2.781 75 0 0-1.945 3.375 3.22 2.781 75 0 1 1.945-2.375 15.247 15.247 0 0 1 3.528-.511c8.23-.23 16.218 6.165 18.76 15.652.464 1.735.705 3.468.761 5.17a22.932 22.932 0 0 0-.761-6.172c-2.542-9.487-10.53-15.88-18.76-15.65z" opacity=".2" fill="#F9F5D7"/>
    <path d="M30.318 4.004A3.429 3.652 0 0 0 27 7.654v48.694A3.429 3.652 0 0 0 30.429 60h25.143a3.429 3.652 0 0 0 3.004-5.411L33.434 5.894a3.429 3.652 0 0 0-3.116-1.89z" fill="#48B9C7"/>
    <path d="M43 36s-9 .2-9 3 8 9.4 8 12.2c0 2.8-9 2.8-9 2.8" opacity=".2" fill="none" stroke="#151819" stroke-width="6" stroke-linejoin="round"/>
    <path d="M43 35s-9 .2-9 3 8 9.4 8 12.2c0 2.8-9 2.8-9 2.8" fill="none" stroke="#F9F5D7" stroke-width="6" stroke-linejoin="round"/>
    <path d="M12.412 27.228c-.186.02-.374.046-.563.028l7.039 26.264c3.986-2.847 6.354-8.704 4.586-15.304-1.631-6.087-6.008-10.037-10.504-10.984a1.74 1.74 0 0 0-.558-.004z" opacity=".2"/>
    <path d="M12.412 26.228c-.186.02-.374.045-.563.027l7.039 26.265c3.986-2.847 6.354-8.704 4.586-15.304-1.631-6.088-6.008-10.037-10.504-10.984a1.74 1.74 0 0 0-.558-.004z" fill="#F9F5D7"/>
    <path d="M30.316 4.002A3.429 3.652 0 0 0 27 7.654v1a3.429 3.652 0 0 1 3.316-3.652 3.429 3.652 0 0 1 3.118 1.89l25.14 48.698a3.429 3.652 0 0 1 .389 1.256 3.429 3.652 0 0 0-.389-2.256L33.434 5.893a3.429 3.652 0 0 0-3.118-1.891z" opacity=".2" fill="#F9F5D7"/>
</svg>
