<svg xmlns="http://www.w3.org/2000/svg" width="64" height="64" version="1">
    <path d="M46.29 5c-3.753 0-6.858 1.505-9.212 3.65-1.327-.947-2.862-1.645-4.4-1.65a9.266 9.266 0 0 0-1.269.084h-.002c-1.683.226-3.216 1.047-4.531 2.086l-3.203-.16h-.002a8.388 8.388 0 0 0-1.233.031 9.198 9.198 0 0 0-2.378.566c-2.73 1.038-5.065 3.7-5.745 6.282-.05.187-.005.338-.043.521-.618.189-1.227.407-1.761.701v.002c-2.364 1.303-4.423 4.367-4.506 7.118-.084 2.75.986 4.664 2.089 6.13.858 1.14 1.874 2.016 3.014 2.782-.27.72-.608 1.393-.775 2.177-1.37 6.45 1.23 12.464 5.09 17.168C21.282 57.192 26.89 61 33.709 61c4.188 0 7.659-1.88 10.427-4.426 2.198-2.022 4.103-4.588 5.166-7.629 1.043-2.416.51-5.125.126-7.477-.998-6.096-2.51-12.77 4.48-20.97 1.337-2.32 2.71-4.941 1.795-8.84-.457-1.95-1.917-4.083-3.778-5.22C50.064 5.3 48.129 5 46.289 5z" opacity=".2"/>
    <path d="M46.29 4c-3.753 0-6.858 1.505-9.212 3.65-1.327-.947-2.862-1.645-4.4-1.65a9.266 9.266 0 0 0-1.269.084h-.002c-1.683.226-3.216 1.047-4.531 2.086l-3.203-.16h-.002a8.388 8.388 0 0 0-1.233.031 9.198 9.198 0 0 0-2.378.566c-2.73 1.038-5.065 3.7-5.745 6.282-.05.187-.005.338-.043.521-.618.189-1.227.407-1.761.701v.002c-2.364 1.303-4.423 4.367-4.506 7.118-.084 2.75.986 4.664 2.089 6.13.858 1.14 1.874 2.016 3.014 2.782-.27.72-.608 1.393-.775 2.177-1.37 6.45 1.23 12.464 5.09 17.168C21.282 56.192 26.89 60 33.709 60c4.188 0 7.659-1.88 10.427-4.426 2.198-2.022 4.103-4.588 5.166-7.629 1.043-2.416.51-5.125.126-7.477-.998-6.096-2.51-12.77 4.48-20.97 1.337-2.32 2.71-4.941 1.795-8.84-.457-1.95-1.917-4.083-3.778-5.22C50.064 4.3 48.129 4 46.289 4z" fill="#7CB668"/>
    <path d="M46.336 11c-8.886 0-10.551 13-5.553 13s14.44-13 5.553-13zm-13.65 2c-.144 0-.295.01-.453.031-5.082.68-3.296 9.797-.59 9.967 2.62.165 5.488-9.982 1.043-9.998zm-9.295 2.002a2.377 2.377 0 0 0-.352.01c-.26.025-.538.092-.836.205-4.757 1.806-.722 9.26 1.944 8.76 2.422-.455 2.765-8.8-.756-8.975zM16.783 22c-.424-.011-.886.1-1.375.37-3.91 2.151 1.319 7.352 3.62 6.546 2.012-.706.728-6.836-2.245-6.916zm18.579 4c-6.743-.12-15.638 3.435-17.155 10.568C16.564 44.288 24.97 55 33.74 55c4.315 0 9.292-4.391 10.223-9.574.34-1.89-1.768-2.575-4.025-2.426-2.465.162-5.108 1.307-4.938 2.672.267 2.136-.504 3.293-2.04 3.328-2.099-.255-3.684-1.218-3.96-3.055-.376-4.823 15.115-8.26 13.916-15.74-.438-2.735-3.509-4.133-7.554-4.205z" opacity=".2"/>
    <path d="M46.336 10c-8.886 0-10.551 13-5.553 13s14.44-13 5.553-13zm-13.65 2c-.144 0-.295.01-.453.031-5.082.68-3.296 9.797-.59 9.967 2.62.165 5.488-9.982 1.043-9.998zm-9.295 2.002a2.377 2.377 0 0 0-.352.01c-.26.025-.538.092-.836.205-4.757 1.806-.722 9.26 1.944 8.76 2.422-.455 2.765-8.8-.756-8.975zM16.783 21c-.424-.011-.886.1-1.375.37-3.91 2.151 1.319 7.352 3.62 6.546 2.012-.706.728-6.836-2.245-6.916zm18.579 4c-6.743-.12-15.638 3.435-17.155 10.568C16.564 43.288 24.97 54 33.74 54c4.315 0 9.292-4.391 10.223-9.574.34-1.89-1.768-2.575-4.025-2.426-2.465.162-5.108 1.307-4.938 2.672.267 2.136-.504 3.293-2.04 3.328-2.099-.255-3.684-1.218-3.96-3.055-.376-4.823 15.115-8.26 13.916-15.74-.438-2.735-3.509-4.133-7.554-4.205z" fill="#F9F5D7"/>
    <path d="M46.29 4c-3.753 0-6.858 1.505-9.212 3.65-1.327-.947-2.861-1.645-4.4-1.65a9.26 9.26 0 0 0-1.268.084h-.002c-1.683.226-3.218 1.047-4.533 2.086l-3.203-.16h-.002a8.382 8.382 0 0 0-1.233.031 9.19 9.19 0 0 0-2.376.566c-2.73 1.038-5.067 3.7-5.747 6.282-.049.187-.005.338-.043.521-.618.189-1.225.407-1.76.701v.002c-2.363 1.303-4.423 4.367-4.507 7.117-.009.293.002.57.017.844.155-2.71 2.171-5.682 4.49-6.96v-.003c.535-.294 1.142-.512 1.76-.7.038-.184-.006-.335.043-.522.68-2.583 3.017-5.244 5.747-6.282a9.19 9.19 0 0 1 2.377-.566c.372-.036.789-.053 1.232-.031h.002l3.203.16c1.315-1.04 2.85-1.86 4.533-2.086h.002A9.26 9.26 0 0 1 32.678 7c1.539.005 3.073.703 4.4 1.65C39.432 6.505 42.537 5 46.29 5c1.84 0 3.775.3 5.637 1.438 1.861 1.137 3.32 3.27 3.777 5.22.169.718.238 1.379.266 2.016.055-.921-.007-1.913-.266-3.016-.457-1.95-1.916-4.083-3.777-5.22C50.064 4.3 48.129 4 46.289 4zM12.796 32.92c-.183.449-.357.902-.463 1.4a16.83 16.83 0 0 0-.354 4.026c.03-.996.137-2.004.354-3.026.167-.784.504-1.458.773-2.177-.106-.072-.206-.15-.31-.223zm35.775.6c-.051 2.792.442 5.42.856 7.947.19 1.172.42 2.432.472 3.701.07-1.6-.231-3.222-.472-4.701-.365-2.224-.792-4.524-.856-6.947z" opacity=".2" fill="#F9F5D7"/>
</svg>
