<svg xmlns="http://www.w3.org/2000/svg" width="64" height="64" version="1">
    <path d="M32 4C16.537 4 4 16.536 4 32s12.537 28 28 28c15.461 0 28-12.536 28-28S47.46 4 32 4z" fill="#7CB668"/>
    <path d="M32.175 11.403c-8.59 0-13.5 3.517-16.703 7.48a96.074 96.074 0 0 1 4.723 1.417l.066-3.715.048-.106.125-.038c.755.109 16.86 2.49 23.644 6.444.84.494 1.252 1.01 1.772 1.541 1.875 1.938 4.365 10.007 4.629 11.675l-.107.173c-.097.035-.334.2-.642.41-1.583 1.108-5.283 3.698-10.027 3.276-4.267-.38-9.833-2.827-16.548-7.249.296.697 1.692 4.011 1.925 4.568l.097.114c.972.503 10.301 5.259 14.93 5.162 3.735-.074 7.722-1.897 9.318-2.854l.508-.096c.141.111.12.328.076.528-.098.457-.318 1.296-.47 1.686l-.124.325c-.182.482-.36.948-.699 1.226-.94.856-2.447 1.534-4.799 2.565-3.636 1.589-9.529 2.589-15.006 2.557-1.958-.048-3.857-.264-5.523-.454-3.476-.395-6.3-.714-7.988.596C19.504 53.271 25.5 56.2 32.178 56.2c12.37 0 22.41-10.028 22.41-22.4 0-12.37-10.039-22.4-22.41-22.4h-.003zm5.92 11.855a6.799 6.799 0 0 0-4.587 1.849 6.83 6.83 0 0 0-2.192 4.799c-.123 3.792 2.862 6.993 6.655 7.135a6.842 6.842 0 0 0 4.942-1.86 6.854 6.854 0 0 0 2.183-4.788c.13-3.797-2.855-6.998-6.655-7.135-.115-.004-.23-.002-.345 0zm-.182 2.032c.158-.01.31-.006.47 0a4.815 4.815 0 0 1 3.123 8.323 4.806 4.806 0 0 1-3.448 1.282 4.825 4.825 0 0 1-4.637-4.98 4.778 4.778 0 0 1 1.524-3.343 4.748 4.748 0 0 1 2.968-1.282zm1.263 2.404c-1.181 0-2.136.64-2.136 1.427 0 .782.955 1.427 2.136 1.427 1.177 0 2.125-.644 2.125-1.427 0-.787-.948-1.427-2.125-1.427z" opacity=".2"/>
    <path d="M32.174 10.402c-8.59 0-13.5 3.517-16.702 7.48a96.073 96.073 0 0 1 4.723 1.417l.066-3.715.048-.106.124-.038c.756.109 16.861 2.49 23.644 6.444.84.494 1.253 1.01 1.773 1.541 1.874 1.938 4.364 10.007 4.628 11.675l-.106.173c-.097.035-.334.2-.643.411-1.582 1.107-5.283 3.697-10.027 3.275-4.266-.38-9.832-2.827-16.547-7.249.296.697 1.691 4.012 1.925 4.568l.096.114c.973.503 10.302 5.26 14.93 5.162 3.735-.074 7.723-1.897 9.318-2.854l.508-.096c.142.111.12.328.076.528-.098.457-.317 1.296-.47 1.686l-.124.325c-.181.483-.359.948-.698 1.226-.941.857-2.448 1.534-4.799 2.565-3.637 1.59-9.53 2.589-15.006 2.557-1.958-.048-3.857-.263-5.523-.454-3.476-.395-6.3-.714-7.988.597C19.503 52.27 25.498 55.2 32.178 55.2c12.371 0 22.41-10.028 22.41-22.4 0-12.37-10.038-22.4-22.41-22.4h-.002zm5.921 11.855a6.799 6.799 0 0 0-4.588 1.849 6.83 6.83 0 0 0-2.191 4.799c-.123 3.792 2.862 6.993 6.655 7.135a6.842 6.842 0 0 0 4.941-1.859 6.854 6.854 0 0 0 2.184-4.789c.13-3.797-2.855-6.998-6.655-7.135-.115-.003-.231-.001-.346 0zm-.183 2.032c.159-.01.31-.006.47 0a4.815 4.815 0 0 1 3.123 8.323 4.806 4.806 0 0 1-3.448 1.282 4.825 4.825 0 0 1-4.636-4.979 4.778 4.778 0 0 1 1.523-3.344 4.748 4.748 0 0 1 2.968-1.282zm1.263 2.404c-1.18 0-2.135.64-2.135 1.427 0 .782.954 1.427 2.135 1.427 1.177 0 2.125-.644 2.125-1.427 0-.787-.948-1.427-2.125-1.427z" fill="#F9F5D7"/>
    <path d="M4.021 32.422A28 28 0 0 0 4 33a28 28 0 0 0 28 28 28 28 0 0 0 28-28 28 28 0 0 0-.021-.406A28 28 0 0 1 32 60 28 28 0 0 1 4.021 32.422z" opacity=".2"/>
    <path d="M32 4A28 28 0 0 0 4 32a28 28 0 0 0 .021.406A28 28 0 0 1 32 5a28 28 0 0 1 27.979 27.578A28 28 0 0 0 60 32 28 28 0 0 0 32 4z" opacity=".2" fill="#F9F5D7"/>
</svg>
