<svg xmlns="http://www.w3.org/2000/svg" width="64" height="64">
    <circle cx="32" cy="33" r="28" opacity=".2"/>
    <circle cx="32" cy="32" r="28" fill="#F9F5D7"/>
    <ellipse cx="32" cy="32" rx="25" ry="15" fill="none" stroke="#066678" stroke-width="2.062"/>
    <ellipse cx="43.713" cy="-11.713" rx="25" ry="15" transform="rotate(60)" fill="none" stroke="#066678" stroke-width="2.062"/>
    <ellipse cx="11.713" cy="43.713" rx="25" ry="15" transform="scale(-1 1) rotate(60)" fill="none" stroke="#066678" stroke-width="2.062"/>
    <path d="M32 4A28 28 0 0 0 4 32a28 28 0 0 0 .018.492A28 28 0 0 1 32 5a28 28 0 0 1 27.975 27.492A28 28 0 0 0 60 32 28 28 0 0 0 32 4z" opacity=".2" fill="#F9F5D7"/>
    <path d="M28 20v4c-.492.02-1.396 0-1.867 0H24v2s.719-.03.691 0c.92-.014 1.214.652 1.309 1.098V37c-.035.282-.005.98-.648 1 .03.026-1.352 0-1.352 0v2h2.254c.55-.02 1.214 0 1.746 0v4l2-.035V40h1.969l.062 4h2l-.062-4c3.815-.277 6.031-.733 6.031-5 0-3-2.002-3.998-4.368-4C37.133 30.886 38 30 38 27.5c-.54-3.046-1.286-3.5-4-3.5v-4h-2v4c-.597 0-1.394-.022-2 0v-4zm2 6c2.82 0 4 0 4 2s-1.461 2-4 2zm0 6c4 0 6 0 6 3s-2 3-6 3z" fill="#066678"/>
</svg>
