<svg xmlns="http://www.w3.org/2000/svg" width="64" height="64">
    <g transform="translate(0 -1058.52)">
        <path d="M3 1108.627v1c0 2.709 2.018 4.893 4.525 4.893h48.95c2.507 0 4.525-2.184 4.525-4.893v-1c0 2.709-2.018 4.893-4.525 4.893H7.525c-2.507 0-4.525-2.184-4.525-4.893z" opacity=".2"/>
        <path d="M7.526 1066.52c-2.507 0-4.526 2.183-4.526 4.892v37.215c0 2.71 2.019 4.893 4.526 4.893h48.948c2.507 0 4.526-2.184 4.526-4.893v-37.215c0-2.71-2.019-4.892-4.526-4.892zm12.045 17.279a6.214 6.22 0 0 1 6.215 6.22 6.214 6.22 0 0 1-6.215 6.221 6.214 6.22 0 0 1-6.214-6.22 6.214 6.22 0 0 1 6.214-6.221zm24.858 0a6.214 6.22 0 0 1 6.214 6.22 6.214 6.22 0 0 1-6.214 6.221 6.214 6.22 0 0 1-6.215-6.22 6.214 6.22 0 0 1 6.215-6.221z" fill="#3A393A"/>
        <path d="M9 1113.52l5.412-10h35.176l5.412 10z" fill="#504945"/>
        <path d="M11.307 1072.52c-1.279 0-2.307 1.207-2.307 2.708v8.292h46v-8.292c0-1.501-1.028-2.708-2.307-2.708z" fill="#F9F5D7"/>
        <path d="M9 1083.52v14.45c0 1.414 1.028 2.55 2.307 2.55h41.386c1.28 0 2.307-1.136 2.307-2.55v-14.45H9zm11 1.5a4.5 4.5 0 0 1 4.5 4.5 4.5 4.5 0 0 1-4.5 4.5 4.5 4.5 0 0 1-4.5-4.5 4.5 4.5 0 0 1 4.5-4.5zm24 0a4.5 4.5 0 0 1 4.5 4.5 4.5 4.5 0 0 1-4.5 4.5 4.5 4.5 0 0 1-4.5-4.5 4.5 4.5 0 0 1 4.5-4.5z" fill="#7CB668"/>
        <circle cx="19.5" cy="1108.02" r="2.5" opacity=".4"/>
        <path d="M20 1083.52a6 6 0 0 0-6 6 6 6 0 0 0 6 6h24a6 6 0 0 0 6-6 6 6 0 0 0-6-6H20zm0 2a4 4 0 0 1 4 4 4 4 0 0 1-4 4 4 4 0 0 1-4-4 4 4 0 0 1 4-4zm24 0a4 4 0 0 1 4 4 4 4 0 0 1-4 4 4 4 0 0 1-4-4 4 4 0 0 1 4-4z" fill="#3A393A"/>
        <path fill="#BDAD93" d="M24.995 1086.518h14v6h-14z"/>
        <path d="M25 1086.52v6h5.51a9.58 9.58 0 0 0 .49-3 9.58 9.58 0 0 0-.49-3z" fill="#7F7061"/>
        <circle cx="44.5" cy="1108.02" r="2.5" opacity=".4"/>
        <path d="M7.525 1066.52c-2.507 0-4.525 2.183-4.525 4.892v1c0-2.709 2.018-4.892 4.525-4.892h48.95c2.507 0 4.525 2.183 4.525 4.892v-1c0-2.709-2.018-4.892-4.525-4.892H7.525z" opacity=".1" fill="#F9F5D7"/>
        <path d="M9 1097.97v1c0 1.414 1.028 2.55 2.307 2.55h41.386c1.28 0 2.307-1.136 2.307-2.55v-1c0 1.414-1.028 2.55-2.307 2.55H11.307c-1.28 0-2.307-1.136-2.307-2.55zM25 1086.52h14v1H25zM20 1085.52a4 4 0 0 0-4 4 4 4 0 0 0 .035.506A4 4 0 0 1 20 1086.52a4 4 0 0 1 3.965 3.494 4 4 0 0 0 .035-.494 4 4 0 0 0-4-4zm24 0a4 4 0 0 0-4 4 4 4 0 0 0 .035.506A4 4 0 0 1 44 1086.52a4 4 0 0 1 3.965 3.494 4 4 0 0 0 .035-.494 4 4 0 0 0-4-4z" opacity=".2"/>
        <path d="M14.412 1103.52l-5.412 10h.541l4.871-9h35.176l4.871 9H55l-5.412-10H14.412z" fill="#F9F5D7" opacity=".1"/>
    </g>
</svg>
