<svg xmlns="http://www.w3.org/2000/svg" width="64" height="64">
    <path d="M32 5A28 28 0 0 0 4 33a28 28 0 0 0 28 28 28 28 0 0 0 28-28A28 28 0 0 0 32 5z" opacity=".2"/>
    <path d="M32 4A28 28 0 0 0 4 32a28 28 0 0 0 28 28 28 28 0 0 0 28-28A28 28 0 0 0 32 4z" fill="#066678"/>
    <path d="M32 12l14 22-14 8-14-8z" opacity=".2"/>
    <path d="M32 54l14-18-14 8-14-8z" opacity=".2"/>
    <path d="M32 11l14 22-14 8-14-8z" fill="#F9F5D7"/>
    <path d="M32 53l14-18-14 8-14-8z" fill="#F9F5D7"/>
    <path d="M32 4A28 28 0 0 0 4 32a28 28 0 0 0 .021.406A28 28 0 0 1 32 5a28 28 0 0 1 27.979 27.578A28 28 0 0 0 60 32 28 28 0 0 0 32 4z" opacity=".2" fill="#F9F5D7"/>
</svg>
