<svg xmlns="http://www.w3.org/2000/svg" width="64" height="64">
    <circle cx="32" cy="33" r="28" opacity=".2"/>
    <path d="M60 32c0 15.464-12.536 28-28 28S4 47.464 4 32 16.536 4 32 4c.314 0 .892 2.325 1.203 2.336 7.01.23 10.185 4.098 14.974 8.564 5.298 4.942 9.538 8.467 9.757 16.23.007.267 2.066.601 2.066.87z" fill="#928274"/>
    <path d="M60 32H32V4c15.464 0 28 12.536 28 28z" fill="#FD8019"/>
    <path d="M32 13a20 20 0 0 0-20 20 20 20 0 0 0 20 20 20 20 0 0 0 20-20 20 20 0 0 0-20-20zm0 3a17 17 0 0 1 17 17 17 17 0 0 1-17 17 17 17 0 0 1-17-17 17 17 0 0 1 17-17z" opacity=".2"/>
    <path d="M32 12a20 20 0 0 0-20 20 20 20 0 0 0 20 20 20 20 0 0 0 20-20 20 20 0 0 0-20-20zm0 3a17 17 0 0 1 17 17 17 17 0 0 1-17 17 17 17 0 0 1-17-17 17 17 0 0 1 17-17z" fill="#F9F5D7"/>
    <circle cx="32" cy="33" r="11" opacity=".2"/>
    <circle cx="32" cy="32" r="11" fill="#F9F5D7"/>
    <circle cx="32" cy="32" r="8" fill="#3A393A"/>
    <path d="M32 4A28 28 0 0 0 4 32a28 28 0 0 0 .018.492A28 28 0 0 1 32 5a28 28 0 0 1 27.975 27.492A28 28 0 0 0 60 32 28 28 0 0 0 32 4z" opacity=".2" fill="#F9F5D7" fill-rule="evenodd"/>
</svg>
