<svg xmlns="http://www.w3.org/2000/svg" width="64" height="64" version="1">
    <path d="M59.957 31.828A28 28 0 0 1 32 59 28 28 0 0 1 4.044 32.172 28 28 0 0 0 4 33a28 28 0 0 0 28 28 28 28 0 0 0 28-28 28 28 0 0 0-.043-1.172z" opacity=".2"/>
    <path d="M31.998 4A28 28 0 0 0 4 32a28 28 0 0 0 1.191 8h53.627a28 28 0 0 0 1.18-8A28 28 0 0 0 32 4h-.002zm25.986 38.373a28 28 0 0 1-.806 1.803 28 28 0 0 0 .806-1.803z" fill="#FECE4F"/>
    <path d="M5.191 40A28 28 0 0 0 32 60a28 28 0 0 0 26.82-20H5.19z" fill="#066678"/>
    <circle cx="41.999" cy="23.001" r="8" opacity=".2"/>
    <circle cx="41.999" cy="22.001" r="8" fill="#FD8019"/>
    <path d="M32 4C16.488 4 4 16.488 4 32c0 .114.011.225.018.338C4.368 17.135 16.71 5 32 5s27.632 12.135 27.982 27.338c.007-.113.018-.224.018-.338C60 16.488 47.512 4 32 4zM4.559 39.61c.029.143.074.287.105.431-.031-.144-.076-.288-.105-.432zm.648.55c.087.288.197.568.293.852-.096-.284-.206-.564-.293-.852zm-.648.45c.029.143.074.287.105.431-.031-.144-.076-.288-.105-.432zm.648.55c.087.288.197.568.293.852-.096-.284-.206-.564-.293-.852zm0 1c.087.288.197.568.293.852-.096-.284-.206-.564-.293-.852zm0 1c.087.288.197.568.293.852-.096-.284-.206-.564-.293-.852zm.875 1.453c.127.31.27.618.406.924-.137-.306-.279-.614-.406-.924zm0 1c.127.31.269.618.406.924-.137-.306-.28-.614-.406-.924zm1.078 1.32zm0 1zM8.47 49.18c.183.284.365.57.558.847-.193-.278-.375-.563-.558-.847zm0 1c.183.284.365.57.558.847-.193-.278-.375-.563-.558-.847zm1.508 1.111c.197.25.387.508.593.752-.206-.244-.396-.502-.593-.752zm0 1c.197.25.387.508.593.752-.206-.244-.396-.502-.593-.752zm1.812 1.092c.163.17.317.35.484.515-.167-.166-.32-.345-.484-.515zm0 1c.163.17.317.35.484.515-.167-.166-.32-.345-.484-.515zm4.39.742c.251.172.514.32.77.484-.256-.164-.519-.312-.77-.484zm0 1c.251.172.514.32.77.484-.256-.164-.519-.312-.77-.484zm0 1c.251.172.514.32.77.484-.256-.164-.519-.312-.77-.484zm2.169.334c.294.162.598.313.898.467-.3-.154-.604-.303-.898-.467zm-2.168.666c.25.172.513.32.77.484-.257-.164-.52-.312-.77-.484zm9.425 1.121c.412.096.819.196 1.239.274-.418-.078-.827-.178-1.239-.274zm-7.257.213c.294.164.597.313.898.467-.3-.154-.604-.305-.898-.467zm7.257.787c.412.096.82.196 1.239.274-.42-.078-.827-.178-1.239-.274zm-2.515.293zm4.127.047zm-6.541.027c.31.136.621.261.937.387-.316-.126-.63-.25-.937-.387zm4.93.633c.411.096.82.196 1.238.274-.42-.078-.827-.178-1.239-.274zm-2.516.293zm2.515.707c.412.096.819.196 1.239.274-.418-.078-.827-.178-1.239-.274zm1.612.34z" opacity=".2" fill="#F9F5D7"/>
</svg>
