<svg xmlns="http://www.w3.org/2000/svg" width="64" height="64" version="1">
    <path d="M62 37.572a30 21.425 0 1 1-60 0 30 21.425 0 1 1 60 0z" opacity=".2"/>
    <path d="M62 36.571a30 21.425 0 1 1-60 0 30 21.425 0 1 1 60 0z" fill="#417B58"/>
    <path d="M32.871 15.152A30 21.425 0 0 0 2 36.57a30 21.425 0 0 0 .03.576A30 21.425 0 0 1 32.87 16.152a30 21.425 0 0 1 29.094 20.924A30 21.425 0 0 0 62 36.57a30 21.425 0 0 0-29.129-21.418z" opacity=".1" fill="#F9F5D7"/>
    <path d="M47.507 48.589c-1.6 2.36-14.713-6.192-17.448-6.478-3.204-.337-17.872 4.229-19.775 1.684C8 40.741 20.246 30.486 19.95 27.688c-.325-3.072-3.286-15.793-1.531-18.383 1.6-2.36 18.944 9.772 21.866 9.487 3.205-.313 12.67-4.28 15.373-2.6 2.463 1.53-9.203 12.541-8.907 15.34.324 3.071 2.511 14.467.756 17.057z" opacity=".2" fill-rule="evenodd"/>
    <path d="M47.507 47.589c-1.6 2.36-14.713-6.192-17.448-6.479-3.204-.336-17.872 4.23-19.775 1.685C8 39.74 20.246 29.486 19.95 26.687c-.325-3.07-3.286-15.792-1.531-18.382 1.6-2.36 18.944 9.772 21.866 9.487 3.205-.313 12.67-4.28 15.373-2.601 2.463 1.53-9.203 12.542-8.907 15.34.324 3.072 2.511 14.467.756 17.058z" fill="#C77089" fill-rule="evenodd"/>
    <path d="M19.26 8c-.402-.011-.692.083-.842.305-.452.667-.587 2.012-.54 3.685.03-1.199.183-2.158.54-2.685 1.6-2.36 18.946 9.771 21.867 9.486 3.206-.313 12.67-4.28 15.373-2.6.104.065.173.15.229.247.163-.576.132-1.022-.229-1.247-2.702-1.68-12.167 2.287-15.373 2.6C37.638 18.05 23.145 8.109 19.26 8zm.62 19.227c-.913 3.216-10.691 11.766-9.816 15.085.844-4.055 10.144-12.18 9.885-14.624-.012-.113-.05-.323-.068-.461zm26.933 3.757c-.054.205-.08.39-.063.547.223 2.112 1.326 8.158 1.424 12.573.074-4.26-1.052-10.579-1.361-13.12z" fill="#F9F5D7" fill-rule="evenodd" opacity=".2"/>
    <path d="M26.61 48.986c-2.024-.387-2.94-8.85-4.099-10.556C21.354 36.723 7.267 23.877 8.03 20.925c.516-1.999 15.915-.141 17.62-1.3 1.705-1.16 6.985-13.003 9.01-12.615 2.024.387 4.068 12.365 5.226 14.072 1.158 1.707 14.493 8.817 14.106 10.844-.387 2.026-11.973 7.357-13.679 8.516-1.705 1.159-11.678 8.932-13.702 8.544z" opacity=".2" fill-rule="evenodd"/>
    <path d="M26.61 47.986c-2.024-.388-2.94-8.85-4.099-10.556C21.354 35.722 7.267 22.876 8.03 19.924c.516-1.998 15.915-.14 17.62-1.3 1.705-1.158 6.985-13.002 9.01-12.615 2.024.388 4.068 12.365 5.226 14.072 1.158 1.708 14.493 8.818 14.106 10.844-.387 2.027-11.973 7.357-13.679 8.516-1.705 1.16-11.678 8.933-13.702 8.545z" fill="#C77089" fill-rule="evenodd"/>
    <path d="M34.46 6.008c-2.151.343-7.158 11.494-8.81 12.617-1.705 1.16-17.104-.7-17.62 1.299-.059.225-.02.513.081.844 1.285-1.74 15.882-.016 17.54-1.143 1.705-1.16 6.985-13.003 9.01-12.615 2.024.387 4.066 12.365 5.224 14.072 1.064 1.569 12.38 7.687 13.916 10.244.1-.144.168-.278.191-.4.387-2.027-12.95-9.137-14.107-10.844-1.158-1.707-3.2-13.685-5.225-14.072a.573.573 0 0 0-.2-.002z" fill="#F9F5D7" fill-rule="evenodd" opacity=".2"/>
    <path d="M38.286 44.88c-2.202.892-7.761-3.413-9.953-4.33-2.191-.916-18.005-5.834-18.33-9.164-.229-2.353 10.502-4.297 11.424-6.476.922-2.18-.44-12.965 1.762-13.858 2.202-.893 9.48 10.063 11.672 10.98 2.192.917 14.184-3.667 15.081-1.478.898 2.19-8.972 10.759-9.894 12.938-.922 2.18.44 10.494-1.762 11.387z" opacity=".2" fill-rule="evenodd"/>
    <path d="M38.286 43.879c-2.202.893-7.761-3.412-9.953-4.329-2.191-.916-18.005-5.834-18.33-9.164-.229-2.353 10.502-4.297 11.424-6.477.922-2.179-.44-12.965 1.762-13.857 2.202-.893 9.48 10.063 11.672 10.98 2.192.916 14.184-3.668 15.081-1.478.898 2.189-8.972 10.758-9.894 12.938-.922 2.179.44 10.494-1.762 11.387z" fill="#D3869B" fill-rule="evenodd"/>
    <path d="M23.41 10.002a.713.713 0 0 0-.22.049c-2.202.893-.842 11.68-1.764 13.86-.922 2.178-11.651 4.122-11.422 6.476.015.152.071.308.148.467 1.224-2.12 10.422-3.931 11.274-5.944.922-2.18-.438-12.966 1.763-13.86 2.202-.892 9.48 10.064 11.672 10.981 2.15.9 13.731-3.494 15.012-1.59.117-.35.162-.66.068-.888-.897-2.19-12.888 2.395-15.08 1.478-2.123-.888-9.02-11.197-11.45-11.029z" fill="#F9F5D7" fill-rule="evenodd" opacity=".2"/>
    <path d="M43.924 32.265c-.763 1.678-8.444 1.053-10.163 1.696-1.72.644-4.345 5.729-6.013 4.96-1.668-.768-4.645-4.546-5.284-6.276-.64-1.73-7.165-9.638-6.402-11.316.763-1.678 10.243-1.711 11.963-2.355 1.719-.643 10.232-8.69 11.9-7.922 1.668.768-1.734 13.434-1.094 15.163.64 1.73 5.856 4.372 5.093 6.05z" opacity=".2" fill-rule="evenodd"/>
    <path d="M43.924 31.265c-.763 1.678-8.444 1.053-10.163 1.696-1.72.644-4.345 5.728-6.013 4.96-1.668-.768-4.645-4.546-5.284-6.276-.64-1.73-7.165-9.638-6.402-11.316.763-1.678 10.243-1.711 11.963-2.355 1.719-.644 10.232-8.69 11.9-7.922 1.668.768-1.734 13.433-1.094 15.163.64 1.73 5.856 4.371 5.093 6.05z" fill="#D3869B" fill-rule="evenodd"/>
    <path d="M37.216 27.126c-.103.801.39 2.337-.191 2.945-.804.842-2.992 1.075-4.09 1.538-.793.334-1.983 1.53-2.826 1.378-1.167-.212-2.433-1.859-3.39-2.505-.69-.467-2.373-.806-2.635-1.567-.363-1.052.559-2.933.7-4.041.103-.801-.39-2.337.191-2.945.804-.842 2.992-1.075 4.09-1.538.793-.334 1.983-1.53 2.826-1.378 1.167.212 2.433 1.859 3.39 2.505.69.467 2.373.806 2.635 1.567.363 1.052-.559 2.933-.7 4.041z" fill="#FD8019" fill-rule="evenodd"/>
    <path d="M39.75 10.006c-2.017-.226-10.06 7.345-11.725 7.969-1.719.643-11.2.675-11.962 2.353-.1.217-.073.544.044.943.957-1.62 10.22-1.66 11.918-2.296 1.72-.644 10.233-8.692 11.9-7.924.281.129.409.616.446 1.308.058-1.241-.045-2.124-.445-2.308a.568.568 0 0 0-.176-.045zm-.969 14.914c-.04.588-.038 1.058.05 1.295.533 1.444 4.248 3.522 5.019 5.146.021-.033.058-.06.074-.095.763-1.679-4.454-4.321-5.094-6.051-.026-.071-.035-.188-.049-.295z" fill="#F9F5D7" fill-rule="evenodd" opacity=".2"/>
</svg>
