<svg xmlns="http://www.w3.org/2000/svg" width="64" height="64" version="1">
    <path d="M39.06 9.018a21.05 21.05 0 0 0-4.458.283c-1.7.297-4.128.944-6.37 2.746C25.598 14.164 24 17.323 24 21.009v.022c-2.157.002-4.533.991-5.963 2.588C16.583 25.24 16 27.167 16 29.007c0 1.84.583 3.766 2.037 5.389.56.625 1.347 1.063 2.128 1.484C18.885 37.994 18 40.374 18 43.003 18 50.663 24.338 57 31.997 57c7.658 0 13.995-6.337 13.995-13.997 0-2.631-.884-5.014-2.167-7.129.777-.42 1.562-.855 2.12-1.478 1.454-1.623 2.035-3.55 2.035-5.389 0-1.84-.581-3.766-2.035-5.388-.18-.201-.476-.295-.683-.477a7.98 7.98 0 0 0 2.656-4.92c.255-1.826-.058-3.82-1.281-5.632-1.217-1.802-3.481-3.13-5.646-3.402-.124-.018-.866-.13-1.931-.17z" opacity=".2"/>
    <path d="M39.06 8.018a21.05 21.05 0 0 0-4.458.283c-1.7.297-4.128.944-6.37 2.746C25.598 13.164 24 16.323 24 20.009v.022c-2.157.002-4.533.991-5.963 2.588C16.583 24.24 16 26.167 16 28.007c0 1.84.583 3.766 2.037 5.389.56.625 1.347 1.063 2.128 1.484C18.885 36.994 18 39.374 18 42.003 18 49.663 24.338 56 31.997 56c7.658 0 13.995-6.337 13.995-13.997 0-2.631-.884-5.014-2.167-7.129.777-.42 1.562-.855 2.12-1.478 1.454-1.623 2.035-3.55 2.035-5.389 0-1.84-.581-3.766-2.035-5.388-.18-.201-.476-.295-.683-.477a7.98 7.98 0 0 0 2.656-4.92c.255-1.826-.058-3.82-1.281-5.632-1.217-1.802-3.481-3.13-5.646-3.402-.124-.018-.866-.13-1.931-.17z" fill="#CB241D"/>
    <path d="M38.837 15.012a15.536 15.536 0 0 0-3.2.197c-1.195.21-2.5.595-3.643 1.514-1.144.919-1.993 2.5-1.993 4.286v5.998h-5.98a1.993 2 0 1 0 0 3.999h5.98v4.26c-3.449.889-6.001 4.01-6.001 7.736A7.999 7.999 0 0 0 32 51c4.417 0 7.999-3.58 7.999-7.998 0-3.729-2.558-6.852-6.011-7.738v-4.258h5.978a1.993 2 0 1 0 0-4h-5.978V21.01c0-.723.146-.882.498-1.164.35-.282 1.038-.558 1.835-.697 1.595-.279 3.37-.059 3.37-.059a1.993 2 0 1 0 .552-3.96s-.554-.084-1.406-.117zm-6.838 25.99a2 2 0 1 1 0 4 2 2 0 0 1 0-4z" opacity=".2"/>
    <path d="M38.837 14.012a15.536 15.536 0 0 0-3.2.197c-1.195.21-2.5.595-3.643 1.514-1.144.919-1.993 2.5-1.993 4.286v5.998h-5.98a1.993 2 0 1 0 0 3.999h5.98v4.26c-3.449.889-6.001 4.01-6.001 7.736A7.999 7.999 0 0 0 32 50c4.417 0 7.999-3.58 7.999-7.998 0-3.729-2.558-6.852-6.011-7.738v-4.258h5.978a1.993 2 0 1 0 0-4h-5.978V20.01c0-.723.146-.882.498-1.164.35-.282 1.038-.558 1.835-.697 1.595-.279 3.37-.059 3.37-.059a1.993 2 0 1 0 .552-3.96s-.554-.084-1.406-.117zm-6.838 25.99a2 2 0 1 1 0 4 2 2 0 0 1 0-4z" fill="#F9F5D7"/>
    <path d="M38.125 8a20.538 20.538 0 0 0-3.523.3c-1.7.298-4.128.945-6.37 2.747C25.598 13.164 24 16.323 24 20.01v.021c-2.158.002-4.533.991-5.963 2.588C16.584 24.242 16 26.168 16 28.008c0 .166.01.333.02.5.097-1.685.695-3.413 2.017-4.889 1.43-1.597 3.805-2.586 5.963-2.588v-.021c0-3.687 1.598-6.846 4.232-8.963 2.242-1.802 4.67-2.45 6.37-2.746a21.058 21.058 0 0 1 4.459-.283c1.065.04 1.807.152 1.931.17 2.165.272 4.429 1.6 5.645 3.402a7.848 7.848 0 0 1 1.343 3.996 7.9 7.9 0 0 0-1.343-4.996c-1.216-1.802-3.48-3.13-5.645-3.402-.124-.018-.866-.13-1.931-.17A24.015 24.015 0 0 0 38.125 8zm7.732 14.555c-.186.2-.382.4-.595.588.207.181.503.275.683.476 1.323 1.476 1.918 3.204 2.016 4.889.01-.167.02-.334.02-.5 0-1.84-.582-3.766-2.036-5.389-.023-.026-.06-.041-.088-.064zm-1.603 13.068c-.145.081-.284.171-.43.25 1.193 1.967 2.032 4.168 2.145 6.582.005-.152.023-.3.023-.453 0-2.325-.692-4.455-1.738-6.379zm-24.518.008C18.692 37.553 18 39.679 18 42.002c0 .153.018.301.023.453.114-2.411.952-4.61 2.143-6.576-.146-.079-.285-.167-.43-.248z" opacity=".2" fill="#F9F5D7"/>
</svg>
