<svg xmlns="http://www.w3.org/2000/svg" width="64" height="64" version="1">
    <path d="M28.217 5.99c-5.265-.01-11.052.972-16.66 2.59C9.96 9.04 7.51 9.86 7.39 9.973c-.062.06.037.1.375.155.872.14 2.154.536 3.116.962 3.503 1.552 6.78 4.757 8.996 9.129.408.804.72 1.498.72 1.597 0 .03-.254.088-.67.156-4.235.69-8.253 2.555-11.934 6.552-1.542 1.675-3.178 3.88-4.458 6.011-.866 1.44-1.644 2.946-1.522 2.946.008 0 .418-.098.911-.218 5.262-1.282 10.068-1.525 13.445-.68 1.423.355 2.633.596 3.487 1.232.367.272.742.617.742.68-3.39 2.89-5.414 6.357-6.838 10.179-1.255 3.664-1.797 7.348-1.76 11.126 2.165-1.661 5.587-5.08 8.209-6.043 3.089-1.1 5.84-1.461 9.649-1.658 1.059-.055 5-.04 5.04.055 10.829-.08 15.805-3.695 20.52-8.907 3.268-3.223 4.976-7.802 6.063-12.157.34-1.402.485-2.374.514-3.456.034-1.281-.094-2.004-.498-2.826-.193-.39-.273-.507-.53-.762-.2-.199-.401-.353-.591-.452-.312-.163-.814-.309-1.062-.309-.143 0-.16-.013-.241-.178l-.087-.18.146-.311c.728-1.562.616-3.717.83-6.203.06-.685.098-1.848.067-2.014-.033-.172-.012-.166-.834-.25-1.96-.201-3.736-.151-6.232.144l-.727.086-.376-.332c-1.994-1.763-4.428-3.123-6.925-4.33-3.636-1.756-7.552-2.983-12.05-3.478a43.535 43.535 0 0 0-4.668-.25z" opacity=".2"/>
    <path d="M28.217 4.99c-5.265-.01-11.052.972-16.66 2.59C9.96 8.04 7.51 8.86 7.39 8.973c-.062.06.037.1.375.155.872.14 2.154.536 3.116.962 3.503 1.552 6.78 4.757 8.996 9.129.408.804.72 1.498.72 1.597 0 .03-.254.088-.67.156-4.235.69-8.253 2.555-11.934 6.552-1.542 1.675-3.178 3.88-4.458 6.011-.866 1.44-1.644 2.946-1.522 2.946.008 0 .418-.098.911-.218 5.262-1.282 10.068-1.525 13.445-.68 1.423.355 2.633.596 3.487 1.232.367.272.742.617.742.68-3.39 2.89-5.414 6.357-6.838 10.179-1.255 3.664-1.797 7.348-1.76 11.126 2.165-1.661 5.587-5.08 8.209-6.043 3.089-1.1 5.84-1.461 9.649-1.658 1.059-.055 5-.04 5.04.055 10.829-.08 15.805-3.695 20.52-8.907 3.268-3.223 4.976-7.802 6.063-12.157.34-1.402.485-2.374.514-3.456.034-1.281-.094-2.004-.498-2.826-.193-.39-.273-.507-.53-.762-.2-.199-.401-.353-.591-.452-.312-.163-.814-.309-1.062-.309-.143 0-.16-.013-.241-.178l-.087-.18.146-.311c.728-1.562.616-3.717.83-6.203.06-.685.098-1.848.067-2.014-.033-.172-.012-.166-.834-.25-1.96-.201-3.736-.151-6.232.144l-.727.086-.376-.332c-1.994-1.763-4.428-3.123-6.925-4.33-3.636-1.756-7.552-2.983-12.05-3.478a43.535 43.535 0 0 0-4.668-.25z" fill="#8F3F71"/>
    <path d="M41.927 21.038a4.025 4.025 0 0 0-.737.02c-4.065.486-6.136 3.441-6.98 7.799-.332 2.864-.028 6.28.778 8.658.075.222.107.372.083.396-.023.023-.164.015-.37-.02-.127-.02-.444-.022-.701-.03v3.197h22.857l1.736-2.363.209-1.259c1.364-4.233 1.28-10.5.128-12.06a.992.992 0 0 0-.284-.252c-.732-.373-1.757.53-3.061 2.696-2.453 5.04-3.068 6.781-4.317 8.749-.302.328-.47.37-.761.187-.77-.488-1.215-2.2-1.457-6.237-.08-1.325-.155-1.302-.301-2.03-.374-1.867-1.04-3.354-2.073-4.63-1.253-1.546-3.02-2.71-4.75-2.82z" fill="#F9F5D7"/>
    <path d="M28.59 14l-.062.195a15.547 15.547 0 0 0-.378 1.639c-.111.71-.15 1.238-.15 2.036 0 1.381.138 2.305.525 3.526.156.491.206.604.266.604.02 0 .203-.135.405-.3 1.958-1.6 4.402-2.996 6.624-3.781.091-.032.172-.076.18-.098.022-.064-.638-.81-1.072-1.213-.785-.727-1.51-1.205-2.527-1.668a13.037 13.037 0 0 0-1.043-.425c-.771-.25-1.703-.44-2.406-.49z" opacity=".2"/>
    <path d="M28.59 13l-.062.195a15.547 15.547 0 0 0-.378 1.639c-.111.71-.15 1.238-.15 2.036 0 1.381.138 2.305.525 3.526.156.491.206.604.266.604.02 0 .203-.135.405-.3 1.958-1.6 4.402-2.996 6.624-3.781.091-.032.172-.076.18-.098.022-.064-.638-.81-1.072-1.213-.785-.727-1.51-1.205-2.527-1.668a13.037 13.037 0 0 0-1.043-.425c-.771-.25-1.703-.44-2.406-.49z" fill="#D5C3A0"/>
    <path d="M57.526 41.088c-.564.004-1.225.265-1.653.662-.28.26-.41.484-.416.716-.012.499.583.684 1.457.454.602-.159 1.181-.563 1.381-.965.251-.503.005-.827-.657-.864a1.86 1.86 0 0 0-.112-.003z" fill="#D5C3A0"/>
    <path d="M57.577 41.11c.663.006.94.34.699.84-.172.354-.777.778-1.36.952-.258.077-.77.114-.942.069-.32-.085-.501-.27-.501-.512 0-.34.441-.808 1.011-1.075.446-.208.718-.276 1.093-.273zM34.046 42.386c.572.003.844.181 1.29.846.732 1.09 1.49 1.814 2.479 2.373a5.892 5.892 0 0 0 2.567.75c.294.015.587.055.757.104.24.07.31.114.527.33.212.212.263.292.334.522.046.15.084.341.084.425 0 .083-.038.274-.084.424-.071.23-.123.31-.333.521-.21.211-.29.262-.521.334-.26.08-.702.103-1.086.057-.948-.112-1.288-.183-2.005-.417-1.359-.444-2.552-1.182-3.612-2.234-.712-.707-1.53-1.807-1.682-2.26a1.345 1.345 0 0 1 .696-1.645c.236-.117.305-.132.589-.13zM34.627 51.497l.061.004c.191.018.424.035.585.043a14.7 14.7 0 0 1-.374-.03 9.797 9.797 0 0 0-.272-.017z" fill="#D5C3A0"/>
    <path d="M30.896 38.315c-1.534.588-2.497 1.754-2.808 3.397-.097.515-.118 1.582-.04 2.104.437 2.955 2.432 5.776 5.366 7.652 1.466 1.006 2.356 1.277 3.994 1.835 1.611.47 3.323.696 5.23.697 1.869.001 3.344-.185 4.973-.627 3.604-.978 6.634-3.149 8.395-6.013 1.273-2.562 2.674-4.35 1.628-5.921-1.688-2.539-6.3-.944-8.087-.17-1.612.702-2.197.611-3.043.731-1.902.27-2.934-.13-6.503-1.923-2.778-1.353-6.14-2.829-9.105-1.762z" opacity=".2"/>
    <path d="M30.896 37.315c-1.534.588-2.497 1.754-2.808 3.397-.097.515-.118 1.582-.04 2.104.437 2.955 2.432 5.776 5.366 7.652 1.466 1.006 2.356 1.277 3.994 1.835 1.611.47 3.323.696 5.23.697 1.869.001 3.344-.185 4.973-.627 3.604-.978 6.634-3.149 8.395-6.013 1.273-2.562 2.674-4.35 1.628-5.921-1.688-2.539-6.3-.944-8.087-.17-1.612.702-2.197.611-3.043.731-1.902.27-2.934-.13-6.503-1.923-2.778-1.353-6.14-2.829-9.105-1.762z" fill="#D5C3A0"/>
    <path d="M59.775 31.373c-.075 2.039-.385 4.236-.974 6.064l-.207 1.258-1.13 1.535c-1.803-2.223-6.185-.712-7.917.04-1.612.7-2.198.61-3.043.73-.42.059-.79.072-1.16.058h-.196c-1.247-.091-2.498-.65-5.148-1.98-1.574-.767-3.335-1.558-5.105-1.918-.45-1.462-.71-3.245-.772-5.043-.015 2.126.238 4.31.772 6.043 1.77.36 3.53 1.15 5.105 1.918 2.65 1.33 3.9 1.889 5.148 1.98h.196c.37.014.74.001 1.16-.058.845-.12 1.43-.03 3.043-.73 1.732-.752 6.114-2.263 7.918-.04l1.129-1.535.207-1.258c.689-2.138.978-4.76.974-7.064z" opacity=".1"/>
    <path d="M55.52 45.922c-.614-.189-.929-.428-1.218-.926-.68-1.17-.186-3.06 1.23-4.704a6.782 6.782 0 0 1 1.69-1.446c1.533-.944 3.068-1.111 3.987-.435.353.259.527.511.674.972.12.375.128.441.11.893-.035.891-.3 1.634-.924 2.594-.767 1.181-1.964 2.228-3.111 2.724-.862.372-1.86.506-2.439.328z" opacity=".2"/>
    <path d="M55.52 44.922c-.614-.189-.929-.428-1.218-.926-.68-1.17-.186-3.06 1.23-4.704a6.782 6.782 0 0 1 1.69-1.446c1.533-.944 3.068-1.111 3.987-.435.353.259.527.511.674.972.12.375.128.441.11.893-.035.891-.3 1.634-.924 2.594-.767 1.181-1.964 2.228-3.111 2.724-.862.372-1.86.506-2.439.328z" fill="#504945"/>
    <ellipse cx="45.275" cy="30.865" rx="2.953" ry="4.035" transform="matrix(.99857 .05352 -.13641 .99065 0 0)" fill="#3A393A"/>
    <path d="M33.5 43.5c1.986 2.857 3.714 4 8 4" opacity=".5" fill="none" stroke="#151819" stroke-width="3" stroke-linecap="round"/>
    <path d="M54.797 29.488c-1.658 3.499-2.466 5.41-3.524 7.078a2.932 4.05 13.175 0 0 1.176.43 2.932 4.05 13.175 0 0 3.5-3.84 2.932 4.05 13.175 0 0-1.152-3.668z" fill="#3A393A"/>
    <path d="M28.217 4.99c-5.265-.01-11.053.973-16.66 2.59-1.599.461-4.047 1.28-4.166 1.393-.062.059.037.1.375.154.339.055.745.157 1.166.275.824-.275 1.83-.593 2.625-.822 5.607-1.617 11.395-2.6 16.66-2.59 1.611.003 3.174.086 4.668.25 4.499.495 8.415 1.72 12.05 3.477 2.498 1.206 4.93 2.567 6.924 4.33l.377.332.727-.086c2.497-.296 4.272-.346 6.232-.145.762.079.8.084.826.221.019-.465.026-.877.008-.97-.032-.173-.012-.166-.834-.25-1.96-.202-3.735-.152-6.232.144l-.727.086-.377-.332c-1.994-1.763-4.426-3.124-6.923-4.33C41.3 6.96 37.384 5.735 32.885 5.24a43.538 43.538 0 0 0-4.668-.25zm-8.008 15.916c-.111.024-.107.038-.283.067-4.235.69-8.253 2.553-11.934 6.55-1.542 1.675-3.176 3.88-4.457 6.012-.865 1.44-1.645 2.945-1.523 2.945l.498-.119c.28-.533.633-1.173 1.025-1.826 1.28-2.131 2.915-4.337 4.457-6.012 3.681-3.997 7.7-5.86 11.934-6.55.417-.068.672-.128.672-.157 0-.067-.17-.448-.389-.91zm39.055 1.37c-.043.113-.08.231-.131.34l-.147.312.086.18c.08.165.1.177.242.177.248 0 .749.146 1.061.309.19.1.392.252.592.45.256.256.337.374.53.765.301.613.45 1.173.491 1.95.002-.041.005-.082.006-.124.034-1.281-.093-2.005-.498-2.826-.192-.391-.273-.509-.53-.764a2.515 2.515 0 0 0-.591-.451c-.312-.163-.813-.309-1.06-.309-.026 0-.033-.008-.051-.01zm-39.2 15.71c-3.062 2.79-4.959 6.077-6.304 9.688-1.255 3.664-1.797 7.348-1.76 11.127l.01-.008c.06-3.427.607-6.782 1.75-10.12 1.424-3.82 3.447-7.288 6.838-10.177 0-.05-.252-.281-.534-.51zM28.59 13l-.06.195a15.546 15.546 0 0 0-.38 1.639c-.11.71-.15 1.237-.15 2.035 0 .19.01.354.016.527.014-.542.049-1.012.134-1.562.065-.415.267-1.286.38-1.639l.06-.195.363.025c.702.05 1.633.24 2.404.49.207.068.676.258 1.043.424 1.017.463 1.743.942 2.528 1.668.143.133.307.314.467.485.14-.054.286-.125.425-.174.091-.032.172-.076.18-.098.023-.063-.638-.81-1.072-1.213-.785-.726-1.51-1.205-2.528-1.668a12.937 12.937 0 0 0-1.043-.423c-.77-.25-1.702-.44-2.404-.49L28.59 13z" fill="#F9F5D7" opacity=".1"/>
</svg>
