<svg xmlns="http://www.w3.org/2000/svg" width="64" height="64" version="1">
    <rect width="42" height="32" x="-56" y="-48" rx="2.5" ry="2.5" transform="matrix(0 -1 -1 0 0 0)" opacity=".2"/>
    <rect width="42" height="32" x="-55" y="-48" rx="2.5" ry="2.5" transform="matrix(0 -1 -1 0 0 0)" fill="#928274"/>
    <rect width="40" height="52" x="-50" y="-58" rx="2.5" ry="2.5" transform="matrix(0 -1 -1 0 0 0)" opacity=".2"/>
    <rect width="40" height="52" x="-49" y="-58" rx="2.5" ry="2.5" transform="matrix(0 -1 -1 0 0 0)" fill="#504945"/>
    <rect width="32" height="44" x="-45" y="-54" rx="0" ry="0" transform="matrix(0 -1 -1 0 0 0)" fill="#322F2E"/>
    <path d="M8.5 9A2.495 2.495 0 0 0 6 11.5v1C6 11.115 7.115 10 8.5 10h47c1.385 0 2.5 1.115 2.5 2.5v-1c0-1.385-1.115-2.5-2.5-2.5zM10 45h44v1H10z" opacity=".1" fill="#F9F5D7"/>
    <path d="M32 20c-3.324 0-6 2.676-6 6v2h-1.5c-.831 0-1.5.669-1.5 1.5v9c0 .831.669 1.5 1.5 1.5h15c.831 0 1.5-.669 1.5-1.5v-9c0-.831-.669-1.5-1.5-1.5H38v-2c0-3.324-2.676-6-6-6zm0 3c1.662 0 3 1.338 3 3v2h-6v-2c0-1.662 1.338-3 3-3z" opacity=".2"/>
    <path d="M32 19c-3.324 0-6 2.676-6 6v2h-1.5c-.831 0-1.5.669-1.5 1.5v9c0 .831.669 1.5 1.5 1.5h15c.831 0 1.5-.669 1.5-1.5v-9c0-.831-.669-1.5-1.5-1.5H38v-2c0-3.324-2.676-6-6-6zm0 3c1.662 0 3 1.338 3 3v2h-6v-2c0-1.662 1.338-3 3-3z" fill="#BDAD93"/>
</svg>
