<svg xmlns="http://www.w3.org/2000/svg" width="64" height="64">
    <circle cx="32" cy="33" r="28" opacity=".2"/>
    <circle cx="32" cy="32" r="28" fill="#48B9C7"/>
    <path d="M21.826 15L14 22.826l6.942 6.942 11.047-4.608zm18.482 9.692L18.154 33.93l9.987 2.84 2.758 10.076zm-.509 8.281l-4.665 10.988L42.171 51 50 43.171z" opacity=".2"/>
    <path d="M21.826 14L14 21.826l6.942 6.942 11.047-4.608zm18.482 9.692L18.154 32.93l9.987 2.84 2.758 10.076zm-.509 8.281l-4.665 10.988L42.171 50 50 42.171z" fill="#F9F5D7"/>
    <path d="M32 4A28 28 0 0 0 4 32a28 28 0 0 0 .018.492A28 28 0 0 1 32 5a28 28 0 0 1 27.975 27.492A28 28 0 0 0 60 32 28 28 0 0 0 32 4z" opacity=".2" fill="#F9F5D7"/>
</svg>
