<svg xmlns="http://www.w3.org/2000/svg" width="64" height="64" version="1">
    <rect width="52" height="32" x="6" y="17" rx="3.25" ry="2.857" opacity=".2"/>
    <rect width="52" height="32" x="6" y="16" rx="3.25" ry="2.857" fill="#928274"/>
    <path d="M15.666 24h31.668c1.462 0 2.88 1.077 2.64 2.375l-2.64 14.25C47.094 41.923 46.157 43 44.695 43h-26.39c-1.462 0-2.399-1.077-2.64-2.375l-2.638-14.25C12.787 25.077 14.204 24 15.666 24z" opacity=".2"/>
    <path d="M15.666 23h31.668c1.462 0 2.88 1.077 2.64 2.375l-2.64 14.25C47.094 40.923 46.157 42 44.695 42h-26.39c-1.462 0-2.399-1.077-2.64-2.375l-2.638-14.25C12.787 24.077 14.204 23 15.666 23z" fill="#7CB668"/>
    <rect width="10" height="10" x="2" y="28" rx="2.273" ry="2.145" opacity=".2"/>
    <rect width="10" height="10" x="2" y="27" rx="2.273" ry="2.145" fill="#BDAD93"/>
    <circle cx="7" cy="32" r="3" opacity=".5"/>
    <rect width="10" height="10" x="51" y="28" rx="2.273" ry="2.145" opacity=".2"/>
    <rect width="10" height="10" x="51" y="27" rx="2.273" ry="2.145" fill="#BDAD93"/>
    <circle cx="56" cy="32" r="3" opacity=".5"/>
    <path d="M4.273 27C3.014 27 2 27.956 2 29.145v1C2 28.956 3.014 28 4.273 28h5.454c1.259 0 2.273.956 2.273 2.145v-1C12 27.956 10.986 27 9.727 27H4.273zM53.273 27C52.014 27 51 27.956 51 29.145v1C51 28.956 52.014 28 53.273 28h5.454c1.259 0 2.273.956 2.273 2.145v-1C61 27.956 59.986 27 58.727 27h-5.454z" opacity=".1" fill="#F9F5D7"/>
    <path d="M20.5 28a2.5 2.5 0 0 0-2.5 2.5 2.5 2.5 0 0 0 2.5 2.5 2.5 2.5 0 0 0 2.5-2.5 2.5 2.5 0 0 0-2.5-2.5zm7 0a2.5 2.5 0 0 0-2.5 2.5 2.5 2.5 0 0 0 2.5 2.5 2.5 2.5 0 0 0 2.5-2.5 2.5 2.5 0 0 0-2.5-2.5zm7 0a2.5 2.5 0 0 0-2.5 2.5 2.5 2.5 0 0 0 2.5 2.5 2.5 2.5 0 0 0 2.5-2.5 2.5 2.5 0 0 0-2.5-2.5zm7 0a2.5 2.5 0 0 0-2.5 2.5 2.5 2.5 0 0 0 2.5 2.5 2.5 2.5 0 0 0 2.5-2.5 2.5 2.5 0 0 0-2.5-2.5zm-17 6a2.5 2.5 0 0 0-2.5 2.5 2.5 2.5 0 0 0 2.5 2.5 2.5 2.5 0 0 0 2.5-2.5 2.5 2.5 0 0 0-2.5-2.5zm7 0a2.5 2.5 0 0 0-2.5 2.5 2.5 2.5 0 0 0 2.5 2.5 2.5 2.5 0 0 0 2.5-2.5 2.5 2.5 0 0 0-2.5-2.5zm7 0a2.5 2.5 0 0 0-2.5 2.5 2.5 2.5 0 0 0 2.5 2.5 2.5 2.5 0 0 0 2.5-2.5 2.5 2.5 0 0 0-2.5-2.5z" opacity=".2"/>
    <path d="M20.5 27a2.5 2.5 0 0 0-2.5 2.5 2.5 2.5 0 0 0 2.5 2.5 2.5 2.5 0 0 0 2.5-2.5 2.5 2.5 0 0 0-2.5-2.5zm7 0a2.5 2.5 0 0 0-2.5 2.5 2.5 2.5 0 0 0 2.5 2.5 2.5 2.5 0 0 0 2.5-2.5 2.5 2.5 0 0 0-2.5-2.5zm7 0a2.5 2.5 0 0 0-2.5 2.5 2.5 2.5 0 0 0 2.5 2.5 2.5 2.5 0 0 0 2.5-2.5 2.5 2.5 0 0 0-2.5-2.5zm7 0a2.5 2.5 0 0 0-2.5 2.5 2.5 2.5 0 0 0 2.5 2.5 2.5 2.5 0 0 0 2.5-2.5 2.5 2.5 0 0 0-2.5-2.5zm-17 6a2.5 2.5 0 0 0-2.5 2.5 2.5 2.5 0 0 0 2.5 2.5 2.5 2.5 0 0 0 2.5-2.5 2.5 2.5 0 0 0-2.5-2.5zm7 0a2.5 2.5 0 0 0-2.5 2.5 2.5 2.5 0 0 0 2.5 2.5 2.5 2.5 0 0 0 2.5-2.5 2.5 2.5 0 0 0-2.5-2.5zm7 0a2.5 2.5 0 0 0-2.5 2.5 2.5 2.5 0 0 0 2.5 2.5 2.5 2.5 0 0 0 2.5-2.5 2.5 2.5 0 0 0-2.5-2.5z" fill="#F9F5D7"/>
    <path d="M15.666 23c-1.462 0-2.879 1.077-2.639 2.375l.051.28c.276-.951 1.41-1.655 2.588-1.655h31.668c1.178 0 2.312.704 2.588 1.654l.05-.279C50.214 24.077 48.797 23 47.335 23H15.666zM9.25 16C7.45 16 6 17.275 6 18.857v1C6 18.275 7.45 17 9.25 17h45.5c1.8 0 3.25 1.275 3.25 2.857v-1C58 17.275 56.55 16 54.75 16H9.25z" opacity=".1" fill="#F9F5D7"/>
</svg>
