<svg xmlns="http://www.w3.org/2000/svg" width="64" height="64">
    <circle cx="32" cy="33" r="28" opacity=".2"/>
    <path d="M60.005 32.003c0 9.132-4.37 17.243-11.135 22.354-4.691 3.546-9.146-3.423-15.48-3.423-14.548 0-27.855-2.477-29.256-16.252A26.47 26.47 0 0 1 4 32.002C4 16.538 16.537 4 32.003 4c15.465 0 28.002 12.537 28.002 28.003z" fill="#48B9C7"/>
    <path d="M32 4A28 28 0 0 0 4 32a28 28 0 0 0 .018.492A28 28 0 0 1 32 5a28 28 0 0 1 27.975 27.492A28 28 0 0 0 60 32 28 28 0 0 0 32 4z" opacity=".2" fill="#F9F5D7"/>
    <path d="M30.532 13.031c-.904.01-1.848.079-2.84.224-7.179 1.053-11.777 4.989-17.67 12.1C7.63 28.242 5.514 31.724 4 34.398c.053.987.157 1.97.311 2.946 4.135-5.722 15.646-14.042 18.238-10.312 2.967 4.27-5.58 9.765-4.433 11.378 1.23 1.729 6.614-.714 11.612-1.073 5.579-.4 8.543 1.325 12.27 4.19-.94-1.771-1.555-3.065-1.912-4.335-.742-2.64 1.239-5.654 1.98-7.099 1.177-2.295 2.168-5.493 3.918-7.219 3.062-3.021 8.409-4.585 13.133-6.152 1.478-.49 2.788-.387 4.33-.725-1.43-.798-3.217-1.094-4.676-1.116-7.777-.115-12.516 1.063-15.655.722-3.98-.434-7.702-2.627-12.584-2.573z" opacity=".1" fill-rule="evenodd"/>
    <path d="M21.305 23.673c-4.586-.39-13.136 5.917-17.029 12.005A28.003 28.003 0 0 0 31.871 60a37.853 37.853 0 0 0 2.112-.066 28.003 28.003 0 0 0 .016-.002 28.003 28.003 0 0 0 15.166-5.82c-.613-4.005-2.692-8.435-7.167-13.583-5.637-6.586-14.3-15.79-20.693-16.856z" fill="#F9F5D7" fill-rule="evenodd"/>
    <path d="M30.532 12.032c-.904.01-1.848.078-2.84.224-7.179 1.053-11.777 4.988-17.67 12.1C7.63 27.243 5.514 30.725 4 33.398c.053.987.157 1.97.311 2.947 4.135-5.722 15.646-14.042 18.238-10.312 2.967 4.27-5.58 9.765-4.433 11.378 1.23 1.729 6.614-.714 11.612-1.073 5.579-.401 8.543 1.325 12.27 4.19-.94-1.771-1.555-3.065-1.912-4.335-.742-2.64 1.239-5.654 1.98-7.099 1.177-2.295 2.168-5.493 3.918-7.219 3.062-3.021 8.409-4.585 13.133-6.152 1.478-.49 2.788-.387 4.33-.725-1.43-.799-3.217-1.094-4.676-1.116-7.777-.115-12.516 1.063-15.655.721-3.98-.433-7.702-2.626-12.584-2.572z" fill="#3A393A" fill-rule="evenodd"/>
    <ellipse cx="35.1" cy="12.258" rx="2.001" ry="1.999" transform="matrix(.98003 .19883 -.19571 .98066 0 0)" opacity=".4" fill="#F9F5D7"/>
    <path d="M11.352 40.063c-1.19-.022-3.807 1.115-5.512 1.89a28 28 0 0 0 2.719 5.344c1.113-3.57 3.913-6.065 3.332-7.024-.086-.14-.274-.206-.54-.21z" fill="#3A393A" fill-rule="evenodd"/>
    <path d="M47.106 18.093c3.346-.932 9.12-3.21 13.331-3.741-.775-.145-2.178.093-2.954.176-4.158.823-8.216 2.481-10.377 3.565z" opacity=".1" fill-rule="evenodd"/>
    <path d="M39.058 21.123c1.649-.855 2.446-1.566 6.296-2.528 3.738-.933 8.388-3.19 12.13-4.067-6.401.771-14.123 2.386-18.426 6.595z" fill="#F9BD2E" fill-rule="evenodd"/>
    <path d="M30.066 19.494a2.003 1.997 45 0 0-.027.108 2.003 1.997 45 0 0 1.57 2.36 2.003 1.997 45 0 0 2.352-1.563 2.003 1.997 45 0 0-.027-.889 2.003 1.997 45 0 1-2.325 1.451 2.003 1.997 45 0 1-1.543-1.467z" opacity=".1"/>
</svg>
