<svg xmlns="http://www.w3.org/2000/svg" width="64" height="64" version="1">
    <path d="M58 7l-4 4v2l6-6h-2zM20 36v2c0 1.662 1.338 3 3 3h28c1.662 0 3-1.338 3-3v-2c0 1.662-1.338 3-3 3H23c-1.662 0-3-1.338-3-3zM4 25l6 6v-2l-4-4H4zm6 29v2c0 1.662 1.338 3 3 3h28c1.662 0 3-1.338 3-3v-2c0 1.662-1.338 3-3 3H13c-1.662 0-3-1.338-3-3z" opacity=".2"/>
    <path d="M23 6c-1.662 0-3 1.338-3 3v28c0 1.662 1.338 3 3 3h28c1.662 0 3-1.338 3-3V12l6-6H23z" fill="#066678"/>
    <path d="M23 6c-1.662 0-3 1.338-3 3v1c0-1.662 1.338-3 3-3h36l1-1H23z" opacity=".1" fill="#F9F5D7"/>
    <path d="M4 24l6 6v25c0 1.662 1.338 3 3 3h28c1.662 0 3-1.338 3-3V27c0-1.662-1.338-3-3-3H4z" fill="#48B9C7"/>
    <path d="M16 35v2h22v-2zm0 6v2h22v-2zm0 6v2h16.8v-2z" opacity=".2"/>
    <path d="M16 34v2h22v-2zm0 6v2h22v-2zm0 6v2h16.8v-2z" fill="#48B9C7"/>
    <path d="M4 24l1 1h36c1.662 0 3 1.338 3 3v-1c0-1.662-1.338-3-3-3H4z" opacity=".1" fill="#F9F5D7"/>
</svg>
