<svg xmlns="http://www.w3.org/2000/svg" width="64" height="64">
    <path d="M36.001 7.001a25.999 26 0 0 0-.992.035c-.467-.01-.932-.036-1.402-.023a28.17 28.17 0 0 0-4.692.523l-.004.004a27.894 27.894 0 0 0-4.566 1.316 6 6 0 0 0-1.433.797c-.862-.175-1.619-.629-2.524-.636a13.721 13.721 0 0 0-2.34.18c-6.857 1.118-11.192 7.052-12.143 13.476-.293.16-.605.274-.895.441a6 6 0 0 0-2.968 5.894c.244 2.109.719 4.641 1.62 7.407a37.17 37.17 0 0 0 1.743 4.378l.004.008a36.024 36.024 0 0 0 3.03 5.23C14.7 54.962 24.003 59 35.022 58.958l-.258.02.406-.02a25.999 26 0 0 0 .832.043A25.999 26 0 0 0 62 33 25.999 26 0 0 0 36.001 7.002z" opacity=".2"/>
    <path d="M36 6a25.999 26 0 0 0-.992.036c-.467-.01-.932-.037-1.402-.024a28.17 28.17 0 0 0-4.691.524l-.004.004a27.894 27.894 0 0 0-4.566 1.316 6 6 0 0 0-1.434.797c-.862-.175-1.619-.63-2.523-.637a13.721 13.721 0 0 0-2.34.18C11.19 9.314 6.856 15.248 5.904 21.672c-.293.16-.605.275-.894.441a6 6 0 0 0-2.97 5.895c.246 2.108.72 4.64 1.622 7.406a37.17 37.17 0 0 0 1.742 4.379l.004.008a36.024 36.024 0 0 0 3.031 5.23c6.26 8.93 15.562 12.968 26.581 12.926l-.258.019.406-.02A25.999 26 0 0 0 36 58 25.999 26 0 0 0 62 32 25.999 26 0 0 0 36 6z" fill="#F9F5D7"/>
    <path d="M35.937 27.104c-.007-.155-.022-.314-.032-.466a33.981 33.981 0 0 0-.39-3.134c-.031-.146-.054-.291-.08-.43-.011-.062-.024-.12-.035-.184-.015-.057-.026-.12-.038-.176a39.45 39.45 0 0 0-7.995-.71c-1.953.025-3.91.195-5.86.515-.203.029-.41.066-.613.102-.078.015-.155.025-.229.044a38.193 38.193 0 0 0-3.977.95c-.283.078-.562.162-.843.255-.16.048-.323.1-.478.15-.918.304-1.81.638-2.7 1.001A40.267 40.267 0 0 0 8 27.316a32.094 32.094 0 0 0 1.363 6.238 31.154 31.154 0 0 0 1.462 3.674l.008.013a30.02 30.02 0 0 0 2.528 4.362c.335.483.674.943 1.026 1.391A29.993 29.993 0 0 0 25.971 52c.025-.025.053-.046.077-.07.058-.057.12-.114.178-.17a31.063 31.063 0 0 0 2.905-3.128c.073-.095.15-.187.223-.283.061-.072.116-.149.176-.22.13-.176.27-.354.406-.536a31.335 31.335 0 0 0 3.283-5.6c.492-1.08.94-2.238 1.33-3.474l.134-.42c.006-.027.012-.053.024-.079v-.003c.358-1.205.626-2.392.823-3.534.013-.066.024-.136.037-.197.027-.158.05-.31.072-.466.18-1.164.285-2.28.333-3.356.006-.162.011-.319.01-.48a28.27 28.27 0 0 0-.045-2.88" fill="#066678"/>
    <path d="M23 31a3 3 0 0 0-.984 5.833v3.156l-.015.023L26 40l-1.035-3.738A3 3 0 0 0 26 34.001a3 3 0 0 0-3-3z" opacity=".2"/>
    <path d="M23 30a3 3 0 0 0-.984 5.833v3.155l-.015.024L26 39l-1.035-3.738A3 3 0 0 0 26 33.001a3 3 0 0 0-3-3z" fill="#F9F5D7"/>
    <path d="M33.774 12.009a21.945 21.945 0 0 0-7.277 1.45c1.083.71 2.086 2.184 2.965 3.198.43-.118.862-.217 1.304-.3 4.956-.984 9.564-.44 13.465 2.117l3.703-1.653.101-.047a21.906 21.906 0 0 0-14.261-4.765zm15.738 6.058l-.047.024c-.327.156-.641.314-.969.468-.335.145-.667.293-1.007.446-.424.188-.854.367-1.301.539-.267.105-.544.215-.817.328-.363.144-.743.268-1.113.406-.377.121-.753.268-1.14.387-1.54.506-3.147.936-4.793 1.32-.34.075-.687.137-1.032.203l.02.094c.028.127.037.157.016.078l.027.094.02.098.03.183c.03.154.052.277.067.348l.008.043.004.039c.11.651.19 2.223.273 2.968.486-.16.974-.314 1.45-.485 1.68-.625 3.297-1.295 4.816-2.035.381-.171.755-.384 1.125-.558.368-.201.733-.37 1.09-.567.477-.27.945-.527 1.402-.789.225-.128.44-.258.656-.387.327-.2.65-.4.969-.59.314-.194.619-.408.922-.601.106-.07.211-.138.312-.207l-.988-1.847zm6.617 11.059l-.367.191a55.31 55.31 0 0 0-.95.504c-.307.164-.61.321-.921.46l-1.918.888-3.844 1.777-.957.441c-.31.145-.652.264-.972.39-2.543 1.07-5.934 1.866-9.055 2.567-.12 1.05-.422 1.797-.687 2.774-.106.334-.227.649-.34.972 3.407.13 9.658-.064 15.437-4.925.227 1.444-2.301 4.932-3.227 6.042-3.403 4.1-9.35 4.919-14.937 4.754a33.713 33.713 0 0 1-1.844 2.817l-.004.004-.004.004c-.153.206-.292.383-.402.53l-.039.052-.039.046c.003-.003-.068.08-.113.137l-.059.078c-.006.007-.002.005-.008.012l-.168.215-.011.02-.016.02a33.363 33.363 0 0 1-1.367 1.57c.55.12 1.112.195 1.664.288.573.126 1.16.143 1.754.18.59.027 1.171.099 1.765.047l1.79-.078 1.71-.25.426-.059c.085-.017.116-.013.238-.043l.215-.05.856-.212c.281-.073.571-.132.855-.222l.832-.282.828-.285.81-.355.804-.352c.262-.132.512-.27.773-.41l.777-.414c.253-.14.49-.317.739-.469.49-.311.982-.626 1.43-1 .464-.354.933-.7 1.351-1.113.436-.391.876-.778 1.246-1.203l.586-.621.144-.164.157-.172.273-.34c.345-.457.728-.898 1.031-1.383l.485-.719c.153-.246.293-.5.437-.75.31-.5.555-1.01.801-1.515.257-.491.489-1.077.68-1.59l.297-.809c.087-.269.16-.547.246-.824l.234-.828.176-.832c.127-.542.2-1.138.277-1.699.083-.573.091-1.116.14-1.707.021-.557-.006-1.144-.015-1.703z" fill="#3A393A"/>
    <path d="M46.727 25.288c-2.337 1.189-5.858 2.766-8.785 3.626.044.844.073 1.709.039 2.64-.002.175-.007.337-.012.473v.027c-.012.27-.04.552-.058.828 3.853-.85 8.323-2.347 11.152-3.402a6.304 6.304 0 0 1-2.336-4.192zM55.335 27.213a4.008 4.008 0 0 1-5.545 1.12 3.99 3.99 0 0 1-1.753-3.87 3.947 3.947 0 0 1 .628-1.677 4.006 4.006 0 0 1 5.548-1.12 4.007 4.007 0 0 1 1.122 5.547" fill="#066678"/>
    <path d="M20.337 14.017a7.73 7.73 0 0 0-1.32.101c-4.113.67-7.018 4.523-7.395 9.18.093-.04.184-.087.277-.125h.012a44.648 44.648 0 0 1 2.66-.989c.619-2.785 2.429-4.948 4.89-5.351a5.363 5.363 0 0 1 2.496.21c.969.319 1.87.894 2.65 1.684.147.149.285.3.417.465.232.272.442.577.637.895.561-.03 1.123-.08 1.683-.086.465-.006.936.025 1.403.035-.344-.748-.729-1.463-1.203-2.09a10.262 10.262 0 0 0-3.434-2.965c-1.176-.61-2.46-.953-3.773-.964z" fill="#3A393A"/>
    <path d="M36 6a25.999 26 0 0 0-.992.035c-.467-.01-.932-.036-1.403-.023-1.548.043-3.119.211-4.69.523l-.005.004a27.898 27.898 0 0 0-4.566 1.316 5.988 5.988 0 0 0-1.432.797c-.862-.175-1.619-.629-2.523-.636a13.722 13.722 0 0 0-2.34.18C11.19 9.313 6.856 15.247 5.904 21.671c-.292.16-.604.275-.894.441a5.994 5.994 0 0 0-2.977 5.723 5.993 5.993 0 0 1 2.977-4.723c.29-.166.602-.281.894-.441.952-6.424 5.287-12.356 12.145-13.475a13.722 13.722 0 0 1 2.34-.18c.904.008 1.661.462 2.523.637.44-.33.92-.598 1.432-.797a27.898 27.898 0 0 1 4.566-1.316l.004-.006a28.168 28.168 0 0 1 4.691-.521c.47-.013.936.013 1.403.023A25.999 26 0 0 1 36 7.002a25.999 26 0 0 1 25.979 25.58A25.999 26 0 0 0 62 32 25.999 26 0 0 0 36 6z" opacity=".2" fill="#F9F5D7"/>
</svg>
