<svg xmlns="http://www.w3.org/2000/svg" width="64" height="64" version="1">
    <path d="M27 5v7.998h3.64c1.608 0 2.725.25 3.041.566.42.42.319 6.068.319 19.135 0 21.878.813 21.315-6.04 21.301-5.858-.012-7.023-1.519-4.162-4.688 2.967-3.284 2.929-6.65-.109-9.502-1.744-1.638-3.896-2.664-6.15-2.81-2.86-.185-6.443.963-9.002 3.154-1.99 1.704-3.3 3.823-3.505 6.11-.278 3.089 1.278 6.486 4.204 9.585 4.964 5.433 9.046 4.957 18.887 5.14 7.596.135 16.93-.809 20.996-9.648 1.006-2.18.754-2.86.886-19.232.154-19.173.226-19.11 4.214-19.11.966 0 1.47.03 2 0H58V5H42.473z" opacity=".2"/>
    <path d="M27 4v7.998h3.64c1.608 0 2.725.25 3.041.566.42.42.319 6.068.319 19.135 0 21.878.813 21.315-6.04 21.301-5.858-.012-7.023-1.519-4.162-4.688 2.967-3.284 2.929-6.65-.109-9.502-1.744-1.638-3.896-2.664-6.15-2.81-2.86-.185-6.443.963-9.002 3.154-1.99 1.704-3.3 3.823-3.505 6.11-.278 3.089 1.278 6.486 4.204 9.585 4.964 5.433 9.046 4.957 18.887 5.14 7.596.135 16.93-.809 20.996-9.648 1.006-2.18.754-2.86.886-19.232.154-19.173.226-19.11 4.214-19.11.966 0 1.47.03 2 0H58V4H42.473z" fill="#7B6F64"/>
    <path d="M27 4v1h31V4H27zM16.436 35.992c-2.637.126-5.66 1.245-7.899 3.162-1.99 1.704-3.3 3.822-3.506 6.11a8.165 8.165 0 0 0-.004 1.289c.005-.096-.004-.194.004-.29.206-2.287 1.517-4.405 3.506-6.109 2.56-2.191 6.142-3.34 9.002-3.154 2.254.146 4.406 1.173 6.15 2.81 1.392 1.307 2.146 2.721 2.278 4.186.187-1.82-.571-3.583-2.278-5.185-1.744-1.638-3.896-2.665-6.15-2.811a9.851 9.851 0 0 0-1.103-.008zM34.02 44.26c-.093 9.07-.921 8.75-6.061 8.74-3.353-.007-5.162-.506-5.564-1.523-.506 1.693 1.255 2.514 5.564 2.523 5.3.01 6.009.224 6.06-9.74z" fill="#F9F5D7" opacity=".1"/>
</svg>
