<svg xmlns="http://www.w3.org/2000/svg" width="64" height="64" version="1">
    <path d="M4.05 32c-.011.334-.05.662-.05 1 0 15.512 12.488 28 28 28 15.511 0 28-12.488 28-28 0-.337-.04-.665-.052-1-.528 15.042-12.775 27-27.95 27C16.826 59 4.579 47.042 4.05 32z" opacity=".2"/>
    <rect width="56" height="56" x="4" y="4" rx="28" ry="28" fill="#BDAD93"/>
    <path d="M32 22c-5.523 0-10 4.478-10 10h20c0-5.522-4.478-10-10-10z" opacity=".5" fill="#F9F5D7"/>
    <path d="M32 52c11.08 0 20-8.92 20-20s-8.92-20-20-20v6a14 14 0 0 1 14 14 14 14 0 0 1-14 14v6z" opacity=".5" fill="#F9F5D7"/>
    <path d="M32 53c-11.08 0-20-8.92-20-20s8.92-20 20-20v6a14 14 0 0 0-14 14 14 14 0 0 0 14 14v6z" opacity=".2"/>
    <path d="M32 52c-11.08 0-20-8.92-20-20s8.92-20 20-20v6a14 14 0 0 0-14 14 14 14 0 0 0 14 14v6z" fill="#F9F5D7"/>
    <path d="M32 43c-5.523 0-10-4.477-10-10h20c0 5.523-4.478 10-10 10z" opacity=".2"/>
    <path d="M32 42c-5.523 0-10-4.477-10-10h20c0 5.523-4.478 10-10 10z" fill="#F9F5D7"/>
    <path d="M32 4C16.488 4 4 16.488 4 32c0 .114.011.224.018.336C4.369 17.134 16.71 5 32 5c15.29 0 27.63 12.134 27.982 27.336.007-.112.018-.222.018-.336C60 16.488 47.512 4 32 4z" opacity=".2" fill="#F9F5D7"/>
</svg>
