<svg xmlns="http://www.w3.org/2000/svg" width="64" height="64" version="1">
    <path d="M4 50.25v2C4 53.774 5.25 55 6.8 55h50.4c1.55 0 2.8-1.226 2.8-2.75v-2c0 1.524-1.25 2.75-2.8 2.75H6.8C5.25 53 4 51.774 4 50.25z" opacity=".2"/>
    <rect width="56" height="43.999" x="-60" y="10" rx="2.8" ry="2.75" transform="scale(-1 1)" fill="#7F7061"/>
    <g opacity=".8" fill="#F9F5D7">
        <path d="M14 22h5v7.301l7.868-7.3h6.118l-9.842 9.47L34 42.001h-6.598L19 34.125v7.876h-5v-20z"/>
        <path d="M52 40.192a20.326 20.326 0 0 1-4.189 1.356c-1.446.302-2.94.452-4.482.452-3.482 0-6.24-.895-8.275-2.686C33.018 37.516 32 35.08 32 32.006c0-3.106 1.036-5.55 3.11-7.334C37.182 22.892 40.02 22 43.623 22c1.392 0 2.722.121 3.992.362 1.28.241 2.255.598 3.385 1.072v3.99c-1.167-.612-2.101-.769-3.259-1.07a13.582 13.582 0 0 0-3.46-.452c-2.147 0-4.304.555-5.472 1.666-1.157 1.102-1.736 2.382-1.736 4.439 0 2.04.56 3.215 1.68 4.325 1.12 1.11 3.213 1.666 5.277 1.666.56 0 1.078-.03 1.554-.09.486-.07 1.033-.173 1.416-.31V34h-3v-3h7.999v9.192z"/>
    </g>
    <path d="M6.8 10C5.25 10 4 11.226 4 12.75v1.002c0-1.524 1.25-2.75 2.8-2.75h50.4c1.55 0 2.8 1.226 2.8 2.75V12.75c0-1.524-1.25-2.75-2.8-2.75H6.8z" opacity=".1" fill="#F9F5D7"/>
</svg>
