<svg xmlns="http://www.w3.org/2000/svg" width="64" height="64" version="1">
    <path d="M32 9C17.042 9 5 20.992 5 35.888 5 44.495 9.055 52.086 15.336 57h33.328C54.944 52.086 59 44.495 59 35.888 59 20.992 46.958 9 32 9z" opacity=".2"/>
    <path d="M32 8C17.042 8 5 19.992 5 34.888 5 43.495 9.055 51.086 15.336 56h33.328C54.944 51.086 59 43.495 59 34.888 59 19.992 46.958 8 32 8z" fill="#066678"/>
    <path d="M32 22a21 21 0 0 0-21 21 21 21 0 0 0 4.566 13h32.871A21 21 0 0 0 53 43a21 21 0 0 0-21-21z" fill="#EBDBB2"/>
    <path d="M32 23c-7.464 0-14.013 3.9-17.738 9.767-.543.71-1.022 1.452-1.37 2.245a20.905 20.905 0 0 0-1.26 3.932 20.83 20.83 0 0 0-.481 2.53c-.01.076.014.093.052.082-.04.332-.09.647-.12.995-.099 1.116-.108 1.572-.033 1.572L23 30l-2.104 11.802c.018.018.414-.144.88-.358 2.865-1.32 5.446-1.906 8.603-2.283 1.088-.13 4.864-.146 5.999-.027 2.299.24 4.397.769 6.978 1.479 1.144.314 1.705.39 2.641.355.938-.034 1.49-.16 2.182-.492 1.728-.831 2.634-3.536 2.382-5.483-.024-.183-.072-.358-.11-.536.075-.183.003-.492-.29-1.003-.287-.765-.71-1.53-1.35-2.396-4.329-4.756-9.983-8.15-16.81-8.058z" opacity=".2"/>
    <path d="M32 22c-7.464 0-14.013 3.9-17.738 9.767-.543.71-1.022 1.452-1.37 2.245a20.905 20.905 0 0 0-1.26 3.932 20.83 20.83 0 0 0-.481 2.53c-.01.076.014.093.052.082-.04.332-.09.647-.12.995-.099 1.116-.108 1.572-.033 1.572L23 29l-2.104 11.802c.018.018.414-.144.88-.358 2.865-1.32 5.446-1.906 8.603-2.283 1.088-.13 4.864-.146 5.999-.027 2.299.24 4.397.769 6.978 1.479 1.144.314 1.705.39 2.641.355.938-.034 1.49-.16 2.182-.492 1.728-.831 2.634-3.536 2.382-5.483-.024-.183-.072-.358-.11-.536.075-.183.003-.492-.29-1.003-.287-.765-.71-1.53-1.35-2.396-4.329-4.756-9.983-8.15-16.81-8.058z" fill="#FD8019"/>
    <circle cx="23" cy="45" r="3" fill="#282727"/>
    <circle cx="42" cy="45" r="3" fill="#282727"/>
    <path d="M27.675 11c-.092 0-.695 1.02-1.269 2.145-.84 1.647-1.24 2.914-1.377 4.377a6.677 6.677 0 0 0-.005 1.065 5.87 5.87 0 0 0-.024.473c0 3.28 2.686 5.94 6 5.94s6-2.66 6-5.94c0-.151-.006-.302-.018-.453.006-.15.02-.301.012-.45-.106-2.034-1.293-3.429-3.088-4.346-.95-.486-2.403-.714-3.351-.716-1.183-.003-2.082-1.021-2.66-1.853-.093-.134-.193-.241-.22-.241z" opacity=".2"/>
    <path d="M27.675 10c-.092 0-.695 1.019-1.269 2.144-.84 1.647-1.24 2.914-1.377 4.377a6.677 6.677 0 0 0-.005 1.065 5.87 5.87 0 0 0-.024.473C25 21.34 27.686 24 31 24s6-2.66 6-5.941c0-.151-.006-.302-.018-.453.006-.15.02-.301.012-.45-.106-2.034-1.293-3.428-3.088-4.346-.95-.486-2.403-.714-3.351-.716-1.183-.002-2.082-1.021-2.66-1.853-.093-.133-.193-.241-.22-.241z" fill="#FD8019"/>
    <path d="M32 8C17.042 8 5 19.99 5 34.887c0 .101.011.2.018.3C5.388 20.617 17.278 9 32 9c14.723 0 26.612 11.618 26.982 26.188.007-.1.018-.2.018-.301C59 19.99 46.958 8 32 8z" opacity=".2" fill="#F9F5D7"/>
</svg>
