<svg xmlns="http://www.w3.org/2000/svg" width="64" height="64" version="1">
    <path d="M6 54.398v2A2.598 2.598 0 0 0 8.602 59h46.796A2.598 2.598 0 0 0 58 56.398v-2A2.598 2.598 0 0 1 55.398 57H8.602A2.598 2.598 0 0 1 6 54.398z" opacity=".2"/>
    <rect width="52" height="52" x="-58" y="-58" rx="2.6" ry="2.6" transform="matrix(0 -1 -1 0 0 0)" fill="#066678"/>
    <path fill="#F9F5D7" d="M12 34h8v2h-8z"/>
    <path d="M43 10l.667 1.734 1.739-.546-.906 1.617L46 13.86l-1.797.281.132 1.86L43 14.734 41.665 16l.132-1.86L40 13.86l1.5-1.054-.906-1.617 1.738.546z" fill="#FECE4F"/>
    <path fill="#A04A73" d="M46 44h-8v-2h8z"/>
    <path fill="#9D0006" d="M38 44h-8v-2h8z"/>
    <path fill="#A04A73" d="M30 44h-8v-2h8z"/>
    <path fill="#9D0006" d="M22 44h-8v-2h8z"/>
    <path fill="#A04A73" d="M14 44H6v-2h8zM58 44h-4v-2h4z"/>
    <path fill="#9D0006" d="M42 46h-8v-2h8z"/>
    <path fill="#A04A73" d="M34 46h-8v-2h8z"/>
    <path fill="#9D0006" d="M26 46h-8v-2h8z"/>
    <path fill="#A04A73" d="M18 46h-8v-2h8z"/>
    <path d="M10 46H6v-2h4zM54 44h-8v-2h8zM58 46h-8v-2h8z" fill="#9D0006"/>
    <path fill="#A04A73" d="M50 46h-8v-2h8zM22 20h4v2h-4z"/>
    <path d="M26 20h8v2h-8z" fill="#9D0006"/>
    <path d="M34 20h8v2h-8z" fill="#A04A73"/>
    <path d="M42 20h8v2h-8z" fill="#9D0006"/>
    <path d="M50 20h8v2h-8zM6 20h4v2H6z" fill="#A04A73"/>
    <path d="M22 18h8v2h-8z" fill="#9D0006"/>
    <path d="M30 18h8v2h-8z" fill="#A04A73"/>
    <path d="M38 18h8v2h-8z" fill="#9D0006"/>
    <path d="M46 18h8v2h-8z" fill="#A04A73"/>
    <path d="M54 18h4v2h-4zM6 18h4v2H6z" fill="#9D0006"/>
    <path fill="#F9F5D7" d="M12 16h2v24h-2zM18 16h2v24h-2z"/>
    <path fill="#F9F5D7" d="M12 26h8v2h-8zM12 18h8v2h-8z"/>
    <path d="M8.602 6A2.597 2.597 0 0 0 6 8.602v1A2.597 2.597 0 0 1 8.602 7h46.796A2.597 2.597 0 0 1 58 9.602v-1A2.597 2.597 0 0 0 55.398 6H8.602z" opacity=".2" fill="#F9F5D7"/>
</svg>
