<svg xmlns="http://www.w3.org/2000/svg" width="64" height="64" version="1">
    <path d="M4 56.2v2C4 59.75 5.25 61 6.8 61h50.4c1.55 0 2.8-1.25 2.8-2.8v-2c0 1.55-1.25 2.8-2.8 2.8H6.8C5.25 59 4 57.75 4 56.2z" opacity=".2"/>
    <path d="M6.8 4A2.794 2.794 0 0 0 4 6.8v50.4C4 58.751 5.249 60 6.8 60h50.4c1.551 0 2.8-1.249 2.8-2.8V18A14 14 0 0 0 46 4z" fill="#8F3F71"/>
    <g transform="translate(0 1) scale(1.99997)" opacity=".2">
        <path d="M5 6v21h4v-5l4 5h5l-7-10.5L18 6h-5l-4 5V6zM22 13h4v14h-4z"/>
        <circle cx="24" cy="9" r="3"/>
    </g>
    <path d="M10 12v42h8V44l8 10h10L22 33l14-21H26l-8 10V12zM44 26h8v28h-8z" fill="#FECE4F"/>
    <circle cx="47.999" cy="18.001" r="6" fill="#FD8019"/>
    <path d="M6.8 4C5.25 4 4 5.25 4 6.8v1C4 6.25 5.25 5 6.8 5H46a14 14 0 0 1 14 14v-1A14 14 0 0 0 46 4H6.8z" fill="#F9F5D7" opacity=".1"/>
</svg>
