<svg xmlns="http://www.w3.org/2000/svg" width="64" height="64" version="1">
    <path d="M4 56v2c0 1.662 1.338 3 3 3h50c1.662 0 3-1.338 3-3v-2c0 1.662-1.338 3-3 3H7c-1.662 0-3-1.338-3-3z" opacity=".2"/>
    <rect width="56" height="56" x="4" y="4" rx="3" ry="3" fill="#CB241D"/>
    <path d="M7 4C5.338 4 4 5.338 4 7v1c0-1.662 1.338-3 3-3h50c1.662 0 3 1.338 3 3V7c0-1.662-1.338-3-3-3H7z" opacity=".1" fill="#F9F5D7"/>
    <path d="M26.518 11.36c-.328.29-.41.725-.41 1.231 0 .94.328 2.099.492 2.533 0 0 .646 4.866.728 5.445-.738.072-1.651.144-2.143.289h-.657c-1.394.072-2.707.145-3.282.651l-.246.217.246.29c.41.434.575 1.664.739 2.967.41 2.678.902 6.207 3.364 7.51l.492.217v-.507s.082-.217.082-.507c0-.217-.082-.579-.164-1.085.657.072 1.651.217 2.144.217.081.579 2.615 24.172 2.615 24.172h.82s1.203-23.302 1.203-24.026c.574 0 2.818.072 3.556.145-.164.434-.82 2.243-.82 2.243l1.148-.94c.329-.218 7.467-6.135 6.482-9.898-.328-1.23-1.477-2.099-3.364-2.533h-.164c-1.067 0-4.049.072-6.51.217.082-1.881.082-2.695.082-3.201v-.651c0-.362.11-.869.438-1.23.329-.435.739-.797.739-1.231 0-.145-.082-.29-.164-.434-.492-.652-4.903-2.316-6.462-2.46-.492.072-.82.144-.984.361zM27 23.03h.41c0 .65.246 5.41.328 6.061-.656-.072-1.815-.217-2.307-.217-.246-.94-.328-1.954-.41-2.967-.082-.869-.164-1.937-.328-2.733.738 0 2.307-.145 2.307-.145zm5.705 2.443s.082-1.937.082-2.516c1.067.144 2.162.217 3.474.217h1.477c0 .29-.082.651-.082.651-.164 1.592-.41 3.674-1.149 5.555-.492 0-3.228-.144-3.884-.217 0-.506.082-3.69.082-3.69z" opacity=".2"/>
    <path d="M26.518 10.362c-.328.29-.41.723-.41 1.23 0 .94.328 2.099.492 2.533 0 0 .646 4.866.728 5.445-.738.072-1.651.144-2.143.289h-.657c-1.394.072-2.707.145-3.282.651l-.246.217.246.29c.41.434.575 1.664.739 2.967.41 2.678.902 6.207 3.364 7.51l.492.217v-.507s.082-.217.082-.507c0-.217-.082-.579-.164-1.085.657.072 1.651.217 2.144.217.081.579 2.615 24.172 2.615 24.172h.82s1.203-23.302 1.203-24.026c.574 0 2.818.072 3.556.145-.164.434-.82 2.243-.82 2.243l1.148-.94c.329-.218 7.467-6.135 6.482-9.898-.328-1.23-1.477-2.099-3.364-2.533h-.164c-1.067 0-4.049.072-6.51.217.082-1.882.082-2.695.082-3.201v-.652c0-.361.11-.868.438-1.23.329-.434.739-.796.739-1.23 0-.145-.082-.29-.164-.434-.492-.652-4.903-2.316-6.462-2.46-.492.072-.82.144-.984.361zM27 22.03h.41c0 .651.246 5.41.328 6.062-.656-.072-1.815-.217-2.307-.217-.246-.94-.328-1.954-.41-2.967-.082-.869-.164-1.937-.328-2.733.738 0 2.307-.145 2.307-.145zm5.705 2.444s.082-1.937.082-2.516c1.067.144 2.162.217 3.474.217h1.477c0 .29-.082.651-.082.651-.164 1.592-.41 3.674-1.149 5.555-.492 0-3.228-.144-3.884-.217 0-.506.082-3.69.082-3.69z" fill="#F9F5D7"/>
</svg>
