<svg xmlns="http://www.w3.org/2000/svg" width="64" height="64" version="1">
    <path d="M4 56v2c0 1.662 1.338 3 3 3h49.998c1.662 0 3-1.338 3-3v-2c0 1.662-1.338 3-3 3H7c-1.662 0-3-1.338-3-3z" opacity=".2"/>
    <rect width="56" height="56" x="4" y="4" rx="3" ry="3" fill="#F2E5BC"/>
    <path d="M7 4.002c-1.662 0-3 1.338-3 3V57c0 1.662 1.338 3 3 3h49.998c1.662 0 3-1.338 3-3V7.002c0-1.662-1.338-3-3-3H7zm-1 2h4v4H6v-4zm6 0h4v4h-4v-4zm6 0h4v4h-4v-4zm6 0h4v4h-4v-4zm6 0h3.999v4h-4v-4zm5.999 0h4v4h-4v-4zm6 0h4v4h-4v-4zm6 0h4v4h-4v-4zm6 0h4v4h-4v-4zm-48 6h4v4H6v-4zm6 0h4v4h-4v-4zm6 0h4v4h-4v-4zm6 0h4v4h-4v-4zm6 0h4v4h-4v-4zm6 0h4v4h-4v-4zm6 0h4v4h-4v-4zm6 0h4v4h-4v-4zm6 0h4v4h-4v-4zm-48 6h4v4H6v-4zm6 0h4v4h-4v-4zm6 0h4v4h-4v-4zm6 0h4v4h-4v-4zm6 0h4v4h-4v-4zm6 0h4v4h-4v-4zm6 0h4v4h-4v-4zm6 0h4v4h-4v-4zm6 0h4v4h-4v-4zm-48 6h4v4H6v-4zm6 0h4v4h-4v-4zm6 0h4v4h-4v-4zm6 0h4v4h-4v-4zm6 0h4v4h-4v-4zm6 0h4v4h-4v-4zm6 0h4v4h-4v-4zm6 0h4v4h-4v-4zm6 0h4v4h-4v-4zm-48 6h4V34H6v-4zm6 0h4V34h-4v-4zm6 0h4V34h-4v-4zm6 0h4V34h-4v-4zm6 0h4V34h-4v-4zm6 0h4V34h-4v-4zm6 0h4V34h-4v-4zm6 0h4V34h-4v-4zm6 0h4V34h-4v-4zM5.998 36h4v4H6v-4zm6 0h4v4h-4v-4zm6 0h4v4h-4v-4zm6 0h4v4h-4v-4zm6 0h4v4h-4v-4zm6 0h4v4h-4v-4zm6 0h4v4h-4v-4zm6 0h4v4h-4v-4zm6 0h4v4h-4v-4zm-48 6h4v4H6v-4zm6 0h4v4h-4v-4zm6 0h4v4h-4v-4zm6 0h4v4h-4v-4zm6 0h4v4h-4v-4zm6 0h4v4h-4v-4zm6 0h4v4h-4v-4zm6 0h4v4h-4v-4zm6 0h4v4h-4v-4zm-48 6h4v4H6v-4zm6 0h4v4h-4v-4zm6 0h4v4h-4v-4zm6 0h4v4h-4v-4zm6 0h4v4h-4v-4zm6 0h4v4h-4v-4zm6 0h4v4h-4v-4zm6 0h4v4h-4v-4zm6 0h4v4h-4v-4zm-48 6h4v4H6v-4zm6 0h4v4h-4v-4zm6 0h4v4h-4v-4zm6 0h4v4h-4v-4zm6 0h4v4h-4v-4zm6 0h4v4h-4v-4zm6 0h4v4h-4v-4zm6 0h4v4h-4v-4zm6 0h4v4h-4v-4z" opacity=".1" fill="#8F3F71"/>
    <path d="M7 4.002c-1.662 0-3 1.338-3 3v1c0-1.662 1.338-3 3-3h49.998c1.662 0 3 1.338 3 3v-1c0-1.662-1.338-3-3-3H7z" opacity=".1" fill="#F9F5D7"/>
    <g fill="#FA4934">
        <path d="M4.002 31.995h8v2h-8zM16.002 31.995h8v2h-8zM28.001 31.995h8v2h-8zM40 31.995h8v2h-8zM52 31.995h8v2h-8z"/>
    </g>
    <path d="M11 41s14.415 8.003 19.999 4c10.816-7.75-10.615-27.764 2-31.998 8.328-2.795 18 16 18 16" fill="none" stroke="#322F2E" stroke-width="2" stroke-linecap="round" stroke-linejoin="round"/>
</svg>
