<svg xmlns="http://www.w3.org/2000/svg" width="64" height="64" version="1">
    <rect width="20" height="24" x="22" y="34" rx="2.858" ry="2.666" fill="#7B6F64"/>
    <path d="M27.95 15.996A12 12 0 0 1 16 27 12 12 0 0 1 4.05 16.004 12 12 0 0 0 4 17a12 12 0 0 0 12 12 12 12 0 0 0 12-12 12 12 0 0 0-.05-1.004zm32 0A12 12 0 0 1 48 27a12 12 0 0 1-11.95-10.996A12 12 0 0 0 36 17a12 12 0 0 0 12 12 12 12 0 0 0 12-12 12 12 0 0 0-.05-1.004zm-45.848 29.16a6.426 6.426 0 0 0 .098 2.684c.95 3.722 4.57 5.915 8.117 4.918 1.924-.541 1.908-1.424 1.375-2.68-.266.266-.707.492-1.375.68-3.548.997-7.167-1.196-8.117-4.918-.059-.229-.066-.456-.098-.684zm35.828 0c-.032.228-.04.455-.098.684-.95 3.722-4.573 5.915-8.12 4.918-.682-.192-1.121-.423-1.387-.696-.532 1.263-.544 2.153 1.386 2.696 3.548.997 7.17-1.196 8.121-4.918.231-.904.247-1.812.098-2.684zM18.368 59a5.952 5.952 0 0 0-.367 2h12a5.95 5.95 0 0 0-.367-2H18.368zm16 0A5.932 5.932 0 0 0 34 61h12a5.95 5.95 0 0 0-.367-2H34.367z" opacity=".2"/>
    <circle cx="16" cy="16" r="12" fill="#7B6F64"/>
    <circle cx="48" cy="16" r="12" fill="#7B6F64"/>
    <path d="M22 45v-7s-1.769.08-2.626.32c-3.547.998-6.126 4.797-5.175 8.52.95 3.723 4.572 5.917 8.119 4.92 3.548-.999.632-3.039-.318-6.76zM42 45v-7s1.799.08 2.656.32c3.547.998 6.126 4.797 5.175 8.52-.95 3.723-4.572 5.917-8.119 4.92-3.548-.999-.662-3.039.288-6.76zM46 60H34a6 6 0 1 1 12 0zM30 60H18a6 6 0 1 1 12 0z" fill="#83A498"/>
    <path d="M16 4A12 12 0 0 0 4 16a12 12 0 0 0 .02.406A12 12 0 0 1 16 5a12 12 0 0 1 11.975 11.498A12 12 0 0 0 28 16 12 12 0 0 0 16 4zm32 0a12 12 0 0 0-12 12 12 12 0 0 0 .02.406A12 12 0 0 1 48 5a12 12 0 0 1 11.975 11.498A12 12 0 0 0 60 16 12 12 0 0 0 48 4zM22 38s-1.768.08-2.625.32c-3.193.898-5.56 4.068-5.313 7.407.236-2.953 2.441-5.6 5.313-6.407C20.232 39.08 22 39 22 39v-1zm20 0v1s1.8.08 2.656.32c2.872.808 5.076 3.454 5.313 6.407.246-3.339-2.12-6.51-5.313-7.407C43.8 38.08 42 38 42 38zm-20 7v1c.524 2.052 1.625 3.581 1.932 4.717.504-1.172-1.236-2.99-1.932-5.717zm20 0c-.694 2.718-2.41 4.535-1.908 5.707.3-1.135 1.385-2.66 1.908-4.707v-1zm-18 9a6 6 0 0 0-6 6h.09A5.997 5.997 0 0 1 24 55a5.997 5.997 0 0 1 5.91 5H30a6 6 0 0 0-6-6zm16 0a6 6 0 0 0-6 6h.09A5.997 5.997 0 0 1 40 55a5.997 5.997 0 0 1 5.91 5H46a6 6 0 0 0-6-6z" opacity=".2" fill="#F9F5D7"/>
    <path d="M12.039 22.848c-.012.222-.039.442-.039.668C12 35.128 17.456 39 26.546 39h10.906C46.544 39 52 35.128 52 23.516c0-.226-.026-.446-.04-.668C51.546 33.412 46.182 37 37.454 37H26.548c-8.73 0-14.094-3.588-14.509-14.152z" opacity=".2"/>
    <path d="M26.546 38h10.909c9.09 0 14.544-3.87 14.544-15.484 0-7.742-7.272-14.456-20-14.516-12.727-.01-20 6.774-20 14.516C11.999 34.13 17.454 38 26.545 38z" fill="#83A498"/>
    <circle cx="19" cy="24" r="5" opacity=".2"/>
    <circle cx="19" cy="23" r="5" fill="#48B9C7"/>
    <circle cx="19" cy="23" r="3" fill="#504945"/>
    <path d="M26.812 32A6 2.667 0 0 0 26 33.334 6 2.667 0 0 0 32 36a6 2.667 0 0 0 6-2.666A6 2.667 0 0 0 37.188 32 6 2.667 0 0 1 32 33.334 6 2.667 0 0 1 26.812 32zM26 23c.038 8 3.715 8 6.001 8 2.286 0 5.964 0 6-8 .006-6.398-3.857-12-6-12-2.145 0-6.007 5.602-6 12.002z" fill="#504945"/>
    <path d="M28 28.333a2 1.333 0 0 0-.987.177c.62 1.218 1.456 1.825 2.336 2.141a2 1.333 0 0 0 .651-.985 2 1.333 0 0 0-2-1.333zm8.001 0a2 1.333 0 0 0-2 1.334 2 1.333 0 0 0 .652.984c.88-.316 1.717-.923 2.336-2.14a2 1.333 0 0 0-.988-.178z" fill="#322F2E"/>
    <circle cx="45" cy="24" r="5" opacity=".2"/>
    <circle cx="45" cy="23" r="5" fill="#48B9C7"/>
    <circle cx="45" cy="23" r="3" fill="#504945"/>
    <path d="M32 8c-12.727-.01-20 6.773-20 14.516 0 .23.012.445.02.666C12.227 15.58 19.457 8.99 32 9c12.543.06 19.773 6.582 19.98 14.182.008-.22.02-.435.02-.666C52 14.773 44.728 8.06 32 8z" opacity=".2" fill="#F9F5D7"/>
</svg>
