<svg xmlns="http://www.w3.org/2000/svg" width="64" height="64" version="1">
    <path d="M32 3c-1.572 0-3.145.586-4.32 1.76L3.76 28.684c-2.349 2.35-2.346 6.281.004 8.63l23.92 23.923c2.35 2.35 6.284 2.353 8.634.004l23.92-23.923c2.35-2.35 2.35-6.284 0-8.634L36.318 4.761C35.143 3.586 33.57 3 31.999 3z" opacity=".2"/>
    <path d="M32 2c-1.572 0-3.145.586-4.32 1.76L3.76 27.683c-2.349 2.35-2.346 6.281.004 8.63l23.92 23.923c2.35 2.35 6.284 2.353 8.634.004l23.92-23.923c2.35-2.35 2.35-6.284 0-8.634L36.318 3.76C35.143 2.586 33.57 2 31.999 2z" fill="#48B9C7"/>
    <path d="M18 14.44l-6 6.005v25.101l6 6.004v-.031l14.063-14.067 14.019 14.02 4.246-4.246-14.02-14.016L50.54 18.984l-4.242-4.243L18 43.034V14.441z" opacity=".2"/>
    <path d="M18 13.441l-6 6.004v25.102l6 6.004v-.031l14.063-14.067 14.019 14.02 4.246-4.246-14.02-14.016L50.54 17.984l-4.242-4.242L18 42.035V13.441z" fill="#F9F5D7"/>
    <path d="M32 2c-1.571 0-3.146.585-4.32 1.76L3.76 27.684c-1.3 1.3-1.876 3.082-1.737 4.814.111-1.4.687-2.765 1.737-3.814L27.68 4.76C28.854 3.585 30.429 3 32 3c1.572 0 3.144.585 4.318 1.76l23.92 23.924a6.054 6.054 0 0 1 1.739 3.816c.138-1.733-.44-3.517-1.739-4.816L36.318 3.76C35.144 2.585 33.572 2 32 2z" fill="#F9F5D7" opacity=".2"/>
</svg>
