<svg xmlns="http://www.w3.org/2000/svg" width="64" height="64" version="1">
    <path d="M4 50.002v2c0 1.662 1.338 3 3 3h50c1.662 0 3-1.338 3-3v-2c0 1.662-1.338 3-3 3H7c-1.662 0-3-1.338-3-3z" opacity=".2"/>
    <rect width="44" height="56" x="-54" y="-60" rx="3" ry="3" transform="matrix(0 -1 -1 0 0 0)" fill="#066678"/>
    <rect width="36" height="48" x="-50" y="-56" rx="0" ry="0" transform="matrix(0 -1 -1 0 0 0)" opacity=".2"/>
    <path d="M7 10.002c-1.662 0-3 1.338-3 3V14c0-1.662 1.338-3 3-3h50c1.662 0 3 1.338 3 3v-.998c0-1.662-1.338-3-3-3H7z" opacity=".1" fill="#F9F5D7"/>
    <path d="M63.958 45.852A16 16 0 0 1 48 61.004a16 16 0 0 1-15.958-14.848A16 16 0 0 0 32 47a16 16 0 0 0 16 16 16 16 0 0 0 16-16 16 16 0 0 0-.043-1.148z" opacity=".2"/>
    <circle cx="48" cy="46.002" r="16" fill="#7CB668"/>
    <path d="M40 38.004h1.344c8.1 0 14.66 6.556 14.66 14.656v1.344H54.36c-.728 0-1.312-.61-1.312-1.344 0-6.627-5.073-11.7-11.7-11.7-.72 0-1.34-.578-1.34-1.312v-1.644z" fill="#F9F5D7"/>
    <path d="M40 43.004h1.387A9.598 9.598 0 0 1 51 52.617v1.387h-1.554c-.744 0-1.384-.63-1.384-1.387 0-3.801-2.877-6.671-6.675-6.671-.744 0-1.384-.63-1.384-1.388v-1.554z" fill="#F9F5D7"/>
    <path d="M42.484 48.997A2.53 2.53 0 0 1 45 51.513C45 52.891 43.858 54 42.49 54A2.48 2.48 0 0 1 40 51.513c0-1.379 1.108-2.516 2.487-2.516z" fill="#F9F5D7"/>
</svg>
