<svg xmlns="http://www.w3.org/2000/svg" width="64" height="64">
    <path d="M24.851 5.708a25.12 25.12 0 0 0-3.699 1.14c-2.609 2.551-4.24 6.158-4.24 10.162 0 .28.033.553.054.828.358-4.462 2.737-8.33 6.194-10.619.514-.554 1.08-1.06 1.691-1.511zm-4.793 10.876c-.024.34-.05.677-.05 1.028 0 7.728 6.565 12.097 12.853 13.997 5.925 1.79 13.631 7.254 14.183 14.566.032-.386.056-.775.056-1.171 0-7.73-8.092-13.537-14.239-15.395-6.016-1.817-12.273-5.904-12.803-13.025zm-16 15.41c-.01.339-.046.67-.046 1.012C4.012 48.465 15.855 61 30.46 61c3.313 0 6.347-.958 8.7-2.695-1.374.314-2.777.541-4.221.621a13.186 13.186 0 0 0 5.913-2.133c1.965-2.124 3.15-4.977 3.15-8.392 0-.332-.025-.652-.05-.972C43.436 54.555 37.6 59 30.46 59 16.17 59 4.554 46.993 4.058 31.995zm55.896.025c-.392 11.543-7.372 21.279-17.094 25.146-2.114 2.065-4.865 3.441-7.92 3.761C48.897 60.158 60 47.971 60 33.006c0-.334-.036-.657-.046-.987z" opacity=".2"/>
    <path d="M33.545 60c14.605 0 26.446-12.535 26.446-27.993 0-15.46-11.841-27.994-26.446-27.994C26.063 4.013 20 8.881 20 16.61c0 7.73 6.566 12.098 12.854 13.997 6.148 1.857 14.237 7.667 14.237 15.397S41.027 60 33.545 60z" fill="#FA4934"/>
    <circle cx="-34.005" cy="-19.008" r="5.999" transform="scale(-1)" opacity=".2"/>
    <circle cx="-34.005" cy="-18.01" r="5.999" transform="scale(-1)" fill="#F9F5D7"/>
    <path d="M30.446 4.013C15.842 4.013 4 16.548 4 32.007 4 47.467 15.841 60 30.446 60c7.481 0 13.545-4.867 13.545-12.597 0-7.73-6.566-12.097-12.854-13.996-6.147-1.858-14.235-7.667-14.235-15.397S22.966 4.013 30.447 4.013z" fill="#8F3F71"/>
    <circle cx="30.006" cy="47.001" r="5.999" opacity=".2"/>
    <circle cx="30.006" cy="46.004" r="5.999" fill="#F9F5D7"/>
    <path d="M33.545 4.014C26.063 4.014 20 8.882 20 16.61c0 .164.02.318.025.479.27-7.423 6.21-12.076 13.52-12.076 14.447 0 26.181 12.265 26.434 27.494.002-.167.011-.332.011-.5 0-15.46-11.84-27.994-26.445-27.994zm13.517 42.564C46.77 54.04 40.84 60 33.546 60c2.389 0 4.701-.34 6.902-.969 3.973-2.44 6.643-6.905 6.643-12.027 0-.144-.022-.283-.028-.426z" fill="#F9F5D7" opacity=".2"/>
    <path d="M30.445 4.014C15.841 4.014 4 16.549 4 32.008c0 .168.009.333.012.5.21-12.711 8.421-23.353 19.533-26.526a13.137 13.137 0 0 1 6.9-1.968zM16.93 18.444c-.008.189-.028.375-.028.566 0 7.73 8.088 13.539 14.235 15.396 6.154 1.86 12.56 6.091 12.83 13.518.006-.175.025-.342.025-.52 0-7.73-6.568-12.098-12.855-13.998-6.03-1.822-13.91-7.452-14.207-14.963z" fill="#F9F5D7" opacity=".2"/>
</svg>
