<svg xmlns="http://www.w3.org/2000/svg" width="64" height="64" version="1">
    <path d="M5.5 11c-.831 0-1.5.593-1.5 1.332v5.336C4 18.407 4.669 19 5.5 19h9c.831 0 1.5-.593 1.5-1.332v-5.336c0-.739-.669-1.332-1.5-1.332zm44 0c-.831 0-1.5.593-1.5 1.332v5.336c0 .739.669 1.332 1.5 1.332h9c.831 0 1.5-.593 1.5-1.332v-5.336c0-.739-.669-1.332-1.5-1.332zm-44 18c-.831 0-1.5.593-1.5 1.332v5.336C4 36.407 4.669 37 5.5 37h9c.831 0 1.5-.593 1.5-1.332v-5.336c0-.739-.669-1.332-1.5-1.332zm44 0c-.831 0-1.5.593-1.5 1.332v5.336c0 .739.669 1.332 1.5 1.332h9c.831 0 1.5-.593 1.5-1.332v-5.336c0-.739-.669-1.332-1.5-1.332zm0 18c-.831 0-1.5.593-1.5 1.332v5.336c0 .739.669 1.332 1.5 1.332h9c.831 0 1.5-.593 1.5-1.332v-5.336c0-.739-.669-1.332-1.5-1.332z" opacity=".2"/>
    <rect width="56" height="40" x="-61" y="-52" rx="3.111" ry="2.857" transform="matrix(0 -1 -1 0 0 0)" opacity=".2"/>
    <rect width="12" height="8" x="4" y="28" rx="1.5" ry="1.333" fill="#F9BD2E"/>
    <rect width="12" height="8" x="4" y="10" rx="1.5" ry="1.333" fill="#F9BD2E"/>
    <rect width="12" height="8" x="48" y="28" rx="1.5" ry="1.333" fill="#F9BD2E"/>
    <rect width="12" height="8" x="48" y="46" rx="1.5" ry="1.333" fill="#F9BD2E"/>
    <rect width="12" height="8" x="48" y="10" rx="1.5" ry="1.333" fill="#F9BD2E"/>
    <path d="M5.5 10c-.831 0-1.5.593-1.5 1.332v1C4 11.593 4.669 11 5.5 11h9c.831 0 1.5.593 1.5 1.332v-1c0-.739-.669-1.332-1.5-1.332h-9zm44 0c-.831 0-1.5.593-1.5 1.332v1c0-.739.669-1.332 1.5-1.332h9c.831 0 1.5.593 1.5 1.332v-1c0-.739-.669-1.332-1.5-1.332h-9zm-44 18c-.831 0-1.5.593-1.5 1.332v1C4 29.593 4.669 29 5.5 29h9c.831 0 1.5.593 1.5 1.332v-1c0-.739-.669-1.332-1.5-1.332h-9zm44 0c-.831 0-1.5.593-1.5 1.332v1c0-.739.669-1.332 1.5-1.332h9c.831 0 1.5.593 1.5 1.332v-1c0-.739-.669-1.332-1.5-1.332h-9zm0 18c-.831 0-1.5.593-1.5 1.332v1c0-.739.669-1.332 1.5-1.332h9c.831 0 1.5.593 1.5 1.332v-1c0-.739-.669-1.332-1.5-1.332h-9z" opacity=".2" fill="#F9F5D7"/>
    <rect width="56" height="40" x="-60" y="-52" rx="3.111" ry="2.857" transform="matrix(0 -1 -1 0 0 0)" fill="#7B6F64"/>
    <path fill="#7CB668" d="M20 26h12v12H20z"/>
    <path fill="#FECE4F" d="M32 26h12v12H32z"/>
    <path fill="#FD8019" d="M20 14h12v12H20z"/>
    <path fill="#8F3F71" d="M32 14h12v12H32z"/>
    <path fill="#B16286" d="M32 38h12v12H32z"/>
    <path opacity=".2" d="M20 26h24v1H20zM20 38h24v1H20zM32 50h12v1H32z"/>
    <path d="M14.855 4C13.273 4 12 5.386 12 7.11v1C12 6.385 13.273 5 14.855 5h34.29C50.727 5 52 6.386 52 8.11v-1C52 5.385 50.727 4 49.145 4h-34.29z" opacity=".1" fill="#F9F5D7"/>
</svg>
