<svg xmlns="http://www.w3.org/2000/svg" width="64" height="64" version="1">
    <rect width="58" height="58" x="-62" y="-61" rx="2.9" ry="2.9" transform="matrix(0 -1 -1 0 0 0)" opacity=".2"/>
    <rect width="58" height="58" x="-61" y="-61" rx="2.9" ry="2.9" transform="matrix(0 -1 -1 0 0 0)" fill="#8F3F71"/>
    <g transform="matrix(2 0 0 2 1 1)" opacity=".2">
        <rect width="3" height="22" x="14" y="5" rx="1.5" ry="1.375"/>
        <rect width="3" height="14" x="9" y="9" rx="1.5" ry="1.4"/>
        <rect width="3" height="20" x="19" y="6" rx="1.5" ry="1.429"/>
        <rect width="3" height="16" x="4" y="8" rx="1.5" ry="1.333"/>
        <rect width="3" height="16" x="24" y="8" rx="1.5" ry="1.333"/>
    </g>
    <g transform="matrix(2 0 0 2 1 0)" fill="#48B9C7">
        <rect width="3" height="22" x="14" y="5" rx="1.5" ry="1.375"/>
        <rect width="3" height="14" x="9" y="9" rx="1.5" ry="1.4"/>
        <rect width="3" height="20" x="19" y="6" rx="1.5" ry="1.429"/>
        <rect width="3" height="16" x="4" y="8" rx="1.5" ry="1.333"/>
        <rect width="3" height="16" x="24" y="8" rx="1.5" ry="1.333"/>
    </g>
    <path d="M5.898 3A2.891 2.891 0 0 0 3 5.898v1A2.891 2.891 0 0 1 5.898 4h52.204A2.891 2.891 0 0 1 61 6.898v-1A2.891 2.891 0 0 0 58.102 3H5.898z" opacity=".2" fill="#F9F5D7"/>
</svg>
