<svg xmlns="http://www.w3.org/2000/svg" width="64" height="64" version="1">
    <path d="M32.996 12c-4.028.003-7.766 1.563-10.77 4.059-.074-.002-.136-.059-.21-.059H22c-7.214 0-13.103 5.735-13.754 12.8C5.662 31.535 4.002 35.093 4 38.997V39c0 8.19 6.81 15 15 15 2.087 0 4.043-.66 5.906-1.473A17.966 17.966 0 0 0 31.996 54h.024c1.896-.004 3.756-.339 5.539-.922 1.74.59 3.565.919 5.426.922H43c9.294 0 17-7.706 17-17 0-7.557-5.182-13.824-12.082-15.992-2.897-5.348-8.54-9-14.91-9.008h-.004z" opacity=".2"/>
    <path d="M32.996 11c-4.028.003-7.766 1.563-10.77 4.059-.074-.002-.136-.059-.21-.059H22c-7.214 0-13.103 5.735-13.754 12.8C5.662 30.535 4.002 34.093 4 37.997V38c0 8.19 6.81 15 15 15 2.087 0 4.043-.66 5.906-1.473A17.966 17.966 0 0 0 31.996 53h.024c1.896-.004 3.756-.339 5.539-.922 1.74.59 3.565.919 5.426.922H43c9.294 0 17-7.706 17-17 0-7.557-5.182-13.824-12.082-15.992-2.897-5.348-8.54-9-14.91-9.008h-.004z" fill="#48B9C7"/>
    <circle cx="19" cy="39" r="7" opacity=".2"/>
    <circle cx="19" cy="38" r="7" fill="#FECE4F"/>
    <circle cx="22" cy="30" r="6" opacity=".2"/>
    <circle cx="22" cy="29" r="6" fill="#FECE4F"/>
    <circle cx="33" cy="30" r="9" opacity=".2"/>
    <circle cx="33" cy="28" r="9" fill="#F9BD2E"/>
    <circle cx="43" cy="37" r="9" opacity=".2"/>
    <circle cx="43" cy="36" r="9" fill="#FD8019"/>
    <circle cx="32" cy="36" r="10" opacity=".2"/>
    <circle cx="32" cy="35" r="10" fill="#FD8019"/>
    <path d="M32.996 11c-4.028.003-7.766 1.563-10.77 4.059-.074-.002-.136-.059-.21-.059H22c-7.214 0-13.103 5.735-13.754 12.8C5.662 30.535 4.002 34.093 4 37.997V38c0 .17.02.335.025.504.136-3.71 1.747-7.086 4.221-9.703C8.897 21.735 14.786 16 22 16h.016c.074 0 .136.057.21.059 3.004-2.496 6.742-4.056 10.77-4.059h.012c6.37.008 12.013 3.66 14.91 9.008 6.734 2.116 11.816 8.139 12.059 15.451.004-.154.023-.304.023-.459 0-7.557-5.182-13.824-12.082-15.992-2.897-5.348-8.54-9-14.91-9.008h-.012z" opacity=".2" fill="#F9F5D7"/>
</svg>
