<svg xmlns="http://www.w3.org/2000/svg" width="64" height="64" version="1">
    <rect width="56" height="56" x="4" y="5" rx="3" ry="3" opacity=".2"/>
    <rect width="56" height="56" x="4" y="4" rx="3" ry="3" fill="#066678"/>
    <path d="M7 4C5.338 4 4 5.338 4 7v1c0-1.662 1.338-3 3-3h50c1.662 0 3 1.338 3 3V7c0-1.662-1.338-3-3-3H7z" opacity=".1" fill="#F9F5D7"/>
    <path d="M18.713 48.943c0-.198 6.678-8.235 6.821-8.203.079.022 3.067 1.288 6.629 2.819 6.092 2.617 6.099 2.773 6.261 2.554.25-.339 1.109-2.032 1.562-3.167l.385-.965-.645-.355c-.921-.5-1.871-1.621-2.714-2.585-.771-.881-2.161-3.002-2.161-3.3 0-.098.442.35.984.996 1.515 1.803 4.61 4.639 4.828 4.237.26-.479.432-1.887.421-3.524-.01-1.995-.27-3.449-.958-5.591L39.741 31c-1.32-.789-2.37-1.215-3.824-1.673-.822-.261-.306-.246.891.026 1.437.323 3.201.589 4.102.703.802.099.973-.057 1.057-.938.109-1.131-.614-4.057-1.354-5.606-.292-.62-.427-.76-1.016-1.027-1.953-.912-8.379-1.746-10.978-1.474-1.125.115-2.276.391-2.64.62-.098.079.625.255 1.869.485 1.12.208 1.937.39 1.817.421-.136.021-1.885-.072-3.92-.332-3.562-.459-3.993-.234-4.252-.005-.522.47-1.26 1.011-1.418 1.698-.145.662-.135.74.194 1.413.562 1.151 1.914 1.99 4.293 3.195 1.125.584 2.021 1.063 1.989 1.099-.036.031-1-.328-2.135-.803l-2.079-.86-3.046.855c-1.671.464-3.098.85-3.166.85-.084 0-.125-2.023-.125-5.452 0-5.248.011-5.467.271-6.003.155-.329.463-.678.739-.845l.479-.297 13.945-.042c7.665-.021 14.262 0 14.633.042.855.104 1.625.729 1.828 1.484.088.329.12 5.296.098 14.743l-.036 14.233-.297.473c-.172.282-.521.589-.844.746-.546.266-.656.271-14.314.271-7.572 0-13.773-.047-13.773-.099" opacity=".2"/>
    <path d="M18.713 47.943c0-.197 6.678-8.234 6.821-8.202.079.02 3.067 1.287 6.63 2.819 6.091 2.616 6.098 2.772 6.26 2.553.25-.339 1.109-2.031 1.562-3.167l.385-.964-.645-.355c-.921-.5-1.87-1.621-2.714-2.586-.77-.88-2.161-3.002-2.161-3.3 0-.098.442.35.984.996 1.515 1.804 4.61 4.639 4.828 4.237.26-.479.432-1.886.421-3.523-.01-1.996-.27-3.45-.958-5.592L39.74 30c-1.32-.789-2.37-1.215-3.824-1.673-.822-.26-.306-.246.89.027 1.438.322 3.202.588 4.103.703.802.098.973-.058 1.057-.938.11-1.132-.614-4.057-1.354-5.606-.292-.62-.427-.76-1.016-1.028-1.953-.912-8.379-1.746-10.978-1.474-1.125.115-2.276.391-2.64.62-.098.08.625.255 1.87.485 1.119.208 1.936.39 1.816.422-.136.02-1.885-.072-3.92-.332-3.562-.46-3.993-.235-4.252-.006-.522.47-1.26 1.011-1.418 1.698-.145.662-.135.74.194 1.413.562 1.151 1.914 1.99 4.293 3.195 1.125.585 2.021 1.064 1.99 1.1-.037.03-1-.329-2.136-.803l-2.079-.861-3.046.855c-1.671.464-3.098.85-3.166.85-.084 0-.125-2.023-.125-5.451 0-5.249.01-5.468.27-6.004.156-.328.464-.678.74-.845l.479-.297 13.945-.041c7.665-.022 14.262 0 14.633.04.855.105 1.625.73 1.828 1.486.088.328.12 5.295.098 14.742l-.036 14.233-.297.474c-.172.281-.521.588-.844.746-.546.265-.656.27-14.314.27-7.572 0-13.773-.046-13.773-.098" fill="#F9F5D7"/>
</svg>
