<svg xmlns="http://www.w3.org/2000/svg" width="64" height="64">
    <rect width="33" height="44" x="27" y="11" rx="4.125" ry="4.125" opacity=".2"/>
    <path d="M34.25 5.002a3.643 3.819 0 0 0-.7.092L6.837 11.457A3.643 3.819 0 0 0 4 15.181v35.637a3.643 3.819 0 0 0 2.836 3.724l26.715 6.363A3.643 3.819 0 0 0 38 57.182V8.817a3.643 3.819 0 0 0-3.75-3.815z" opacity=".2"/>
    <rect width="33" height="44" x="27" y="10" rx="4.125" ry="4.125" fill="#F9F5D7"/>
    <path d="M33 19v3h7v5h-7v3h7v5h-7v3h7v5h-7v3h21V19H33zm10 3h8v5h-8v-5zm0 8h8v5h-8v-5zm0 8h8v5h-8v-5z" opacity=".2"/>
    <path d="M33 18v3h7v5h-7v3h7v5h-7v3h7v5h-7v3h21V18H33zm10 3h8v5h-8v-5zm0 8h8v5h-8v-5zm0 8h8v5h-8v-5z" fill="#504945"/>
    <path d="M31.125 10A4.116 4.116 0 0 0 27 14.125v1A4.116 4.116 0 0 1 31.125 11h24.75A4.116 4.116 0 0 1 60 15.125v-1A4.116 4.116 0 0 0 55.875 10h-24.75z" opacity=".1" fill="#F9F5D7"/>
    <path d="M34.25 4.002a3.643 3.819 0 0 0-.7.092L6.837 10.457A3.643 3.819 0 0 0 4 14.181v35.637a3.643 3.819 0 0 0 2.836 3.724l26.715 6.363A3.643 3.819 0 0 0 38 56.182V7.817a3.643 3.819 0 0 0-3.75-3.815z" fill="#578D57"/>
    <path d="M27 26L13 40m0-14l14 14h0" opacity=".2" fill="none" stroke="#151819" stroke-width="6" stroke-linecap="round" stroke-linejoin="round"/>
    <path d="M27 25L13 39m0-14l14 14h0" fill="none" stroke="#F9F5D7" stroke-width="6" stroke-linecap="round" stroke-linejoin="round"/>
    <path d="M34.25 4.002a3.643 3.819 0 0 0-.7.092L6.837 10.457A3.643 3.819 0 0 0 4 14.182v1a3.643 3.819 0 0 1 2.836-3.725L33.55 5.094a3.643 3.819 0 0 1 .699-.092A3.643 3.819 0 0 1 38 8.816v-1a3.643 3.819 0 0 0-3.75-3.814z" opacity=".1" fill="#F9F5D7"/>
</svg>
