<svg xmlns="http://www.w3.org/2000/svg" width="64" height="64" version="1">
    <path d="M4.05 32c-.011.334-.05.662-.05 1 0 15.512 12.488 28 28 28s28-12.488 28-28c0-.338-.04-.666-.05-1C59.422 47.042 47.174 59 32 59S4.578 47.042 4.05 32z" opacity=".2"/>
    <rect width="56" height="56" x="4" y="4" rx="28" ry="28" fill="#48B9C7"/>
    <path d="M40 19L24 38l8 7 6-6v8h8V19z" opacity=".2"/>
    <path d="M40 18L24 37l8 7 6-6v8h8V18z" fill="#48B9C7"/>
    <path d="M34 33l-8 7-8 7V19l8 7z" opacity=".2"/>
    <path d="M34 32l-8 7-8 7V18l8 7z" fill="#F9F5D7"/>
    <path d="M32 4C16.49 4 4.004 16.488 4.004 32c0 .113.011.224.017.336C4.373 17.134 16.712 5 32 5h.002C47.289 5 59.629 17.134 59.98 32.336c.007-.112.018-.223.018-.336 0-15.512-12.486-28-27.996-28H32z" opacity=".2" fill="#F9F5D7"/>
</svg>
