<svg xmlns="http://www.w3.org/2000/svg" width="64" height="64" version="1">
    <path d="M4.05 32c-.011.335-.05.663-.05 1 0 15.512 12.488 28 28 28 15.51 0 27.998-12.488 27.998-28 0-.337-.039-.664-.05-1-.528 15.042-12.776 27-27.95 27S4.578 47.042 4.05 32z" opacity=".2"/>
    <path d="M32 4.002C16.487 4.002 4 16.489 4 32c0 15.511 12.488 28 28 28 15.51 0 27.998-12.489 27.998-28C59.998 16.489 47.511 4 32 4z" fill="#EBDBB2"/>
    <path d="M32 4.002C16.488 4.002 4 16.488 4 32c0 .114.011.224.018.336C4.369 17.135 16.71 5 32 5s27.63 12.135 27.982 27.336c.007-.112.018-.223.018-.336A27.938 27.938 0 0 0 32 4.002z" opacity=".2" fill="#F9F5D7"/>
    <path d="M42.999 18.001c-3.49 0-5.456 1.813-6.286 3.574C35.885 23.337 36 25.06 36 25.06l2-.116s-.06-1.278.524-2.516c.582-1.24 1.616-2.426 4.476-2.426s3.894 1.186 4.476 2.426c.584 1.238.524 2.516.524 2.516l2 .116s.114-1.722-.714-3.484c-.83-1.76-2.796-3.574-6.286-3.574zm0 6a1 1 0 0 0-1 1 1 1 0 0 0 1 1 1 1 0 0 0 1-1 1 1 0 0 0-1-1zm-23.995 2c-3.49 0-5.456 1.814-6.285 3.574-.83 1.762-.715 3.484-.715 3.484V46h2V32.943s-.06-1.278.523-2.516C15.11 29.187 16.144 28 19.004 28c2.857 0 3.891 1.186 4.475 2.426.584 1.238.524 2.516.524 2.516V46h2V32.943s-.06-1.278.524-2.516C27.11 29.187 28.143 28 31.003 28c2.858 0 3.892 1.186 4.476 2.426.584 1.238.524 2.516.524 2.516v.026L36 37v1.942s-.114 1.722.714 3.484C37.543 44.187 39.51 46 43 46c3.49 0 5.456-1.813 6.286-3.573.828-1.762.714-3.484.714-3.484V26h-2v13.058s.06 1.278-.524 2.516C46.893 42.815 45.859 44 42.999 44s-3.894-1.186-4.476-2.426c-.584-1.238-.524-2.516-.524-2.516V37l.004-3.942s.114-1.722-.714-3.484c-.83-1.76-2.796-3.574-6.286-3.574-3.146 0-5.048 1.474-6 3.054-.952-1.58-2.854-3.054-6-3.054z" fill="#066678" fill-rule="evenodd"/>
</svg>
