<svg xmlns="http://www.w3.org/2000/svg" width="64" height="64" version="1">
    <path d="M4.05 32c-.011.335-.05.663-.05 1 0 15.512 12.488 28 28 28 15.51 0 27.998-12.488 27.998-28 0-.337-.039-.664-.05-1-.528 15.042-12.776 27-27.95 27S4.578 47.042 4.05 32z" opacity=".2"/>
    <rect width="56" height="56" x="4" y="4" rx="27.999" ry="27.999" fill="#066678"/>
    <path d="M32 17.001c-8.837 0-16 7.163-16 16 0 8.836 7.163 16 16 16h9.999s1.875 0 2-2c0-2-2-2-2-2h-10c-6.627 0-12-5.373-12-12s5.373-12 12-12 12 5.373 12 12v2a2 2 0 0 1-4 0v-2a8 8 0 1 0-8 8c2.093 0 3.98-.822 5.406-2.137A6.006 6.006 0 0 0 42 41a6 6 0 0 0 6-6v-2c0-8.836-7.164-16-16-16zm0 12a4 4 0 1 1 0 8 4 4 0 0 1 0-8z" opacity=".2"/>
    <path d="M32 4.002C16.488 4.002 4 16.488 4 32c0 .113.011.224.018.336C4.369 17.135 16.71 5 32 5s27.63 12.135 27.982 27.336c.007-.112.018-.223.018-.336A27.938 27.938 0 0 0 32 4.002z" opacity=".1" fill="#F9F5D7"/>
    <path d="M32 16.001c-8.837 0-16 7.163-16 16 0 8.836 7.163 16 16 16h9.999s1.875 0 2-2c0-2-2-2-2-2h-10c-6.627 0-12-5.373-12-12s5.373-12 12-12 12 5.373 12 12v2a2 2 0 0 1-4 0v-2a8 8 0 1 0-8 8c2.093 0 3.98-.822 5.406-2.137A6.006 6.006 0 0 0 42 40a6 6 0 0 0 6-6v-2c0-8.836-7.164-16-16-16zm0 12a4 4 0 1 1 0 8 4 4 0 0 1 0-8z" fill="#F9F5D7"/>
</svg>
