<svg xmlns="http://www.w3.org/2000/svg" width="64" height="64" version="1">
    <path d="M59.999 44.5v2c0 1.724-1.387 3.434-3.11 3.5H31l-7 8-7-8H7.11C5.388 50 4 48.224 4 46.5v-2C4 46.224 5.388 48 7.11 48H17l7 8 7-8h25.89c1.723-.066 3.11-1.776 3.11-3.5z" opacity=".2"/>
    <path d="M56.888 7c1.723 0 3.11 1.776 3.11 3.5v35c0 1.724-1.388 3.434-3.11 3.5H39.097l-6.995-3.634-6.89 1.502-6.78-1.723-7.686.771c-1.715.172-2.26-1.335-2.23-3.06l.44-25.968c.03-1.724 2.981-2.772 4.544-3.5L27.203 7z" fill="#066678"/>
    <path d="M7.113 7C5.39 7 4 8.776 4 10.5v35C4 47.224 5.39 49 7.113 49H17l7 8 7-8h8.781a62.678 62.678 0 0 0 5.14-3.84c7.718-6.711 10.067-19.097 2.911-27.101-4.894-5.475-13.646-7.118-19.347-1.88-3.793 3.487-4.92 9.8-1.16 13.747 2.424 2.546 6.57 3.288 9.23.66 1.654-1.634 2.124-4.93.336-6.656-1.065-1.028-2.931-1.316-4.008-.14-.613.664-.775 2.218-.031 2.855.394.336 1.068.423 1.421-.024.174-.22.222-.593-.035-.773-.115-.08-.303-.098-.386.035-.024.051-.029.138.035.172.023.013.07.015.07-.012v-.024c-.033-.01 0-.018 0-.02.023-.01.055.013.055.036.013.066-.05.127-.11.14-.157.036-.267-.114-.3-.25-.052-.306.239-.536.52-.57.565-.066.983.47 1.023.988.075.976-.854 1.676-1.754 1.715-1.594.07-2.705-1.45-2.739-2.93-.042-2.484 2.342-4.2 4.668-4.187 3.741.021 6.29 3.616 6.2 7.129-.137 5.447-5.398 9.145-10.547 8.93-7.738-.323-13.387-7.835-12.973-15.164C18.378 15.135 22.783 9.848 28.527 7z" fill="#48B9C7"/>
    <path d="M7.111 7C5.387 7 4 8.776 4 10.5v1C4 9.776 5.387 8 7.111 8H56.89c1.723 0 3.109 1.776 3.109 3.5v-1c0-1.724-1.386-3.5-3.11-3.5H7.112z" opacity=".1" fill="#F9F5D7"/>
    <path d="M26.74 8c-4.848 2.999-8.403 7.85-8.74 13.836-.027.477-.025.955-.002 1.432.004-.144-.006-.288.002-.432.378-6.701 4.783-11.988 10.527-14.836zm8.58 12.941c-2.326-.013-4.71 1.703-4.668 4.188.003.132.026.263.045.394.318-2.152 2.492-3.594 4.623-3.582 3.48.02 5.926 3.133 6.178 6.395.005-.09.02-.175.022-.266.09-3.513-2.459-7.108-6.2-7.129zM25 24.502c-.117 2.305.4 4.613 2.125 6.424 2.424 2.546 6.77 3.288 9.43.66 1.036-1.024 1.606-2.7 1.449-4.232-.113 1.223-.636 2.428-1.45 3.232-2.66 2.628-7.005 1.886-9.429-.66-1.475-1.549-2.02-3.461-2.125-5.424zm9.121.853c-.28.034-.571.264-.52.57.034.137.144.286.301.25.06-.013.123-.073.11-.14 0-.023-.032-.046-.055-.035 0 .001-.033.01 0 .02v.023c0 .027-.047.025-.07.012-.064-.034-.059-.12-.035-.172.083-.133.27-.115.386-.035.175.123.202.335.15.527.298.069.534.301.659.586a1.37 1.37 0 0 0 .098-.617c-.04-.518-.458-1.055-1.024-.989zm-1.71.454c-.135.675-.026 1.436.44 1.836.395.336 1.069.423 1.422-.024.174-.22.222-.593-.035-.773a.357.357 0 0 0-.168-.051c-.066.041-.14.061-.215.082 0 .002-.002.002-.003.004-.024.051-.029.138.035.172.023.013.07.015.07-.012v-.023c-.033-.01 0-.019 0-.02.023-.011.055.012.055.035.013.067-.05.127-.11.14-.157.036-.267-.113-.3-.25v-.003a1.193 1.193 0 0 1-.75-.277c-.238-.204-.374-.505-.442-.836zm19.693 4.548c-.241 5.537-2.872 11.055-7.182 14.803a62.678 62.678 0 0 1-5.14 3.84h1.413a62.182 62.182 0 0 0 3.727-2.84c4.57-3.974 7.235-9.937 7.182-15.803z" opacity=".2"/>
</svg>
