<svg xmlns="http://www.w3.org/2000/svg" width="64" height="64">
    <rect width="56" height="56" x="4" y="5" rx="4.2" ry="4.2" opacity=".2"/>
    <rect width="56" height="56" x="4" y="4" rx="4.2" ry="4.2" fill="#F9F5D7"/>
    <path d="M24.566 15.367l.5 2.383c-8.427 4.246-9.308 7.965-10.468 11.703l4.55.805c1.074-4.54 3.912-6.857 7.243-8.281l.84 2.578 5.878-6.477zM42.996 17c-2.107 0-3.8.594-5.082 1.785C36.638 19.97 36 21.536 36 23.477c0 1.35.348 2.519 1.043 3.507.695.983 1.717 2.092 3.066 2.657H37.4v-1.442h-1.313V31h6.27v-1.441c-.877-.197-1.547-1.1-2.008-2.04-.462-.945-.692-2.221-.692-3.824 0-1.823.28-3.206.844-4.152.57-.952 1.403-1.43 2.496-1.43s1.923.478 2.492 1.43c.57.946.856 2.321.856 4.133 0 1.633-.228 2.918-.684 3.851-.455.934-1.127 1.835-2.015 2.032V31h6.261v-2.8h-1.304v1.44h-2.72c1.356-.564 2.38-1.673 3.075-2.656.695-.988 1.043-2.157 1.043-3.507 0-1.94-.64-3.507-1.922-4.692C46.797 17.594 45.103 17 42.996 17zm.856 18.156c-1.074 4.54-3.908 6.857-7.239 8.282l-.843-2.575-5.88 6.473 8.544 2.71-.5-2.382c8.427-4.246 9.308-7.965 10.468-11.703zM17.355 37L12 51h3.164l1.012-3.2h5.648l.992 3.2H26l-5.21-14zm1.657 3.305L20.773 45h-3.527z" opacity=".1"/>
    <path d="M21.823 46.8h-5.646L15.164 50H12l5.356-14h3.433L26 50h-3.185zM20.774 44l-1.764-4.697L17.246 44z" font-weight="700" font-size="15.235" font-family="FreeSans" text-anchor="middle" fill="#665C54"/>
    <path d="M45.883 28.641H48.6V27.2h1.306V30h-6.261v-1.441c.888-.197 1.56-1.098 2.016-2.031.455-.934.683-2.217.683-3.85 0-1.812-.285-3.19-.854-4.136-.57-.952-1.4-1.428-2.494-1.428-1.094 0-1.925.476-2.494 1.428-.564.946-.846 2.33-.846 4.154 0 1.603.23 2.877.692 3.822.461.94 1.13 1.844 2.007 2.04V30h-6.27v-2.8H37.4v1.441h2.709c-1.35-.564-2.372-1.674-3.067-2.657-.695-.988-1.042-2.158-1.042-3.509 0-1.94.638-3.503 1.913-4.688C39.195 16.596 40.89 16 42.996 16s3.8.596 5.082 1.787C49.36 18.972 50 20.535 50 22.475c0 1.35-.347 2.52-1.042 3.51-.695.982-1.72 2.092-3.075 2.656z" font-weight="700" font-size="19.297" font-family="FreeSans" text-anchor="middle" fill="#665C54"/>
    <path d="M26.39 20.977l.842 2.577 5.878-6.475-8.543-2.712.5 2.384c-8.428 4.247-9.308 7.965-10.468 11.703l4.551.805c1.074-4.54 3.908-6.857 7.24-8.282zM36.612 42.438l-.843-2.576-5.877 6.475 8.542 2.711-.499-2.384c8.427-4.246 9.307-7.964 10.467-11.702l-4.55-.805c-1.075 4.54-3.909 6.857-7.24 8.281z" fill="#7CB668"/>
    <path d="M8.2 4A4.19 4.19 0 0 0 4 8.2v1A4.19 4.19 0 0 1 8.2 5h47.6A4.19 4.19 0 0 1 60 9.2v-1A4.19 4.19 0 0 0 55.8 4H8.2z" opacity=".2" fill="#F9F5D7"/>
</svg>
