<svg xmlns="http://www.w3.org/2000/svg" width="64" height="64">
    <path d="M8.857 13C6.721 13 5 14.794 5 17.021V48.98C5 51.206 6.72 53 8.857 53h46.286C57.279 53 59 51.206 59 48.979V17.02c0-2.227-1.72-4.023-3.857-4.021H32z" opacity=".2"/>
    <path d="M8.858 12C6.72 12 5 13.793 5 16.02v31.96C5 50.206 6.72 52 8.858 52h23.277V12z" fill="#F9F5D7"/>
    <path d="M8.857 12C6.721 12 5 13.794 5 16.021v1C5 14.794 6.72 13 8.857 13h23.278v-1H8.857z" opacity=".2" fill="#F9F5D7"/>
    <path d="M32 12v40h23.143C57.28 52 59 50.206 59 47.978V16.022c0-2.228-1.72-4.024-3.857-4.022z" fill="#504945"/>
    <circle cx="48" cy="33" r="13" opacity=".2"/>
    <circle cx="48" cy="32" r="13" fill="#F9F5D7"/>
    <circle cx="48" cy="32" r="9" fill="#48B9C7"/>
    <path d="M48 23a9 9 0 0 0-9 9 9 9 0 0 0 .021.576A9 9 0 0 1 48 24a9 9 0 0 1 8.979 8.424A9 9 0 0 0 57 32a9 9 0 0 0-9-9z" opacity=".2"/>
    <path d="M32 12v1h23.143C57.279 12.998 59 14.794 59 17.021v-1c0-2.227-1.72-4.023-3.857-4.021H32z" opacity=".1" fill="#F9F5D7"/>
</svg>
