<svg xmlns="http://www.w3.org/2000/svg" width="64" height="64">
    <path d="M13.371 13a2.138 2.413 0 0 0-2.064 1.78L3.074 48.952A2.138 2.413 0 0 0 5.14 52h9.492a2.138 2.413 0 0 0 2.062-1.781l8.233-34.174A2.138 2.413 0 0 0 22.863 13zm18 0a2.138 2.413 0 0 0-2.064 1.78l-8.233 34.173A2.138 2.413 0 0 0 23.14 52h9.492a2.138 2.413 0 0 0 2.062-1.781l8.233-34.174A2.138 2.413 0 0 0 40.863 13zm18 0a2.138 2.413 0 0 0-2.064 1.78l-8.233 34.173A2.138 2.413 0 0 0 41.14 52h9.492a2.138 2.413 0 0 0 2.062-1.781l8.233-34.174A2.138 2.413 0 0 0 58.863 13z" opacity=".2"/>
    <path d="M13.372 12a2.138 2.413 0 0 0-2.065 1.779L3.075 47.954A2.138 2.413 0 0 0 5.138 51h9.493a2.138 2.413 0 0 0 2.063-1.781l8.232-34.175A2.138 2.413 0 0 0 22.862 12z" fill="#CB241D"/>
    <path d="M49.372 12a2.138 2.413 0 0 0-2.065 1.779l-8.232 34.175A2.138 2.413 0 0 0 41.138 51h9.493a2.138 2.413 0 0 0 2.063-1.781l8.232-34.175A2.138 2.413 0 0 0 58.862 12z" fill="#066678"/>
    <path d="M31.372 12a2.138 2.413 0 0 0-2.065 1.779l-8.232 34.175A2.138 2.413 0 0 0 23.138 51h9.493a2.138 2.413 0 0 0 2.063-1.781l8.232-34.175A2.138 2.413 0 0 0 40.862 12z" fill="#7CB668"/>
    <path d="M13.371 12a2.138 2.413 0 0 0-2.064 1.78L3.074 47.952a2.138 2.413 0 0 0-.027 1.139 2.138 2.413 0 0 1 .027-.139l8.233-34.174A2.138 2.413 0 0 1 13.37 13h9.492a2.138 2.413 0 0 1 2.088 1.91A2.138 2.413 0 0 0 22.863 12h-9.492zm18 0a2.138 2.413 0 0 0-2.064 1.78l-8.233 34.173a2.138 2.413 0 0 0-.027 1.139 2.138 2.413 0 0 1 .027-.139l8.233-34.174A2.138 2.413 0 0 1 31.37 13h9.492a2.138 2.413 0 0 1 2.088 1.91A2.138 2.413 0 0 0 40.863 12h-9.492zm18 0a2.138 2.413 0 0 0-2.064 1.78l-8.233 34.173a2.138 2.413 0 0 0-.027 1.139 2.138 2.413 0 0 1 .027-.139l8.233-34.174A2.138 2.413 0 0 1 49.37 13h9.492a2.138 2.413 0 0 1 2.088 1.91A2.138 2.413 0 0 0 58.863 12h-9.492z" opacity=".2" fill="#F9F5D7"/>
</svg>
