<svg xmlns="http://www.w3.org/2000/svg" width="64" height="64" version="1">
    <path d="M32 4c-1.52 0-3.04.566-4.176 1.702L4.702 28.827c-2.271 2.271-2.268 6.072.003 8.343l23.123 23.125c2.27 2.271 6.075 2.274 8.346.003l23.123-23.125c2.27-2.27 2.27-6.075 0-8.346L36.174 5.702C35.038 4.566 33.518 4 31.999 4z" opacity=".2"/>
    <path d="M32 3c-1.52 0-3.04.566-4.176 1.702L4.702 27.827c-2.271 2.271-2.268 6.072.003 8.343l23.123 23.125c2.27 2.271 6.075 2.274 8.346.003l23.123-23.125c2.27-2.27 2.27-6.075 0-8.346L36.174 4.702C35.038 3.566 33.518 3 31.999 3z" fill="#F9F5D7"/>
    <path d="M31.86 7.687a2 2 0 0 0-1.376.606l-8.789 8.789a2 2 0 0 0 0 2.828l5.86 5.86a2 2 0 0 0 2.828 0l7.375-7.376 3.03 3.031-3.956 3.956a2 2 0 1 0 2.828 2.828l5.371-5.37a2 2 0 0 0 0-2.828l-5.86-5.859a2 2 0 0 0-2.827 0l-7.375 7.373-3.03-3.03 7.373-7.374a2 2 0 0 0-1.453-3.434zm-14.15 14.18a2 2 0 0 0-1.384.584L7.537 31.24a2 2 0 1 0 2.828 2.828l7.375-7.373 3.03 3.03-7.374 7.374a2 2 0 0 0 0 2.828l5.86 5.86a2 2 0 1 0 2.828-2.828l-4.445-4.446 7.375-7.375a2 2 0 0 0 0-2.828l-5.86-5.86a2 2 0 0 0-1.443-.583zm29.868 1.732a2.63 2.63 0 0 0-2.008.756l-4.883 4.881L50.94 39.49c.17.17.304.36.42.557l4.952-4.952c1.081-1.082.994-2.91-.196-4.1l-6.445-6.447a3.188 3.188 0 0 0-2.092-.949zm-13.246 5.082a2 2 0 0 0-1.385.584l-8.789 8.79a2 2 0 1 0 2.828 2.827l7.375-7.373 3.03 3.03-7.373 7.375a2 2 0 0 0-.006 2.822l5.838 5.88a2 2 0 0 0 2.834.005l8.789-8.787a2 2 0 1 0-2.83-2.828l-7.37 7.369-3.02-3.041 7.382-7.381a2 2 0 0 0 0-2.828l-5.86-5.86a2 2 0 0 0-1.443-.584zm-9.27 16.18l-1.95 1.953c-1.083 1.082-.997 2.91.193 4.1l6.447 6.445c1.19 1.19 3.018 1.277 4.1.195l2.021-2.021a2.757 2.757 0 0 1-.557-.42z" opacity=".1"/>
    <path d="M8.951 31.655l8.789-8.789 5.859 5.86-8.789 8.787 5.86 5.86" fill="none" stroke="#066678" stroke-width="4" stroke-linecap="round" stroke-linejoin="round"/>
    <path d="M31.899 8.707l-8.789 8.789 5.86 5.859 8.788-8.789 5.858 5.86-5.37 5.37" fill="none" stroke="#8F3F71" stroke-width="4" stroke-linecap="round" stroke-linejoin="round"/>
    <path d="M25.572 38.47l8.789-8.79 5.859 5.86-8.789 8.788 5.838 5.88 8.789-8.789" fill="none" stroke="#8F3F71" stroke-width="4" stroke-linecap="round" stroke-linejoin="round"/>
    <path d="M23.11 45.814c-1.082 1.082-.995 2.91.195 4.1l6.446 6.446c1.19 1.19 3.019 1.277 4.1.195l2.022-2.022a2.756 2.756 0 0 1-.557-.42L25.063 43.862zm17.577-17.577L50.94 38.49c.17.17.303.36.42.557l4.95-4.951c1.083-1.082.996-2.91-.194-4.1l-6.446-6.447c-1.19-1.19-3.019-1.276-4.1-.194z" fill="#8F3F71"/>
    <path d="M32 3c-1.52 0-3.04.566-4.176 1.701L4.701 27.826c-1.256 1.256-1.812 2.98-1.678 4.654a5.847 5.847 0 0 1 1.678-3.654L27.824 5.701C28.96 4.566 30.481 4 32 4c1.52 0 3.038.566 4.174 1.701l23.123 23.125a5.855 5.855 0 0 1 1.68 3.674c.138-1.68-.42-3.413-1.68-4.674L36.174 4.701C35.038 3.566 33.519 3 32 3z" fill="#F9F5D7" opacity=".2"/>
</svg>
