<svg xmlns="http://www.w3.org/2000/svg" width="64" height="64">
    <circle cx="32" cy="33" r="28" opacity=".2"/>
    <circle cx="32" cy="32" r="28" fill="#504945"/>
    <path d="M21 30a11 10.64 0 0 0-10.603 7.85c-.25.562-.397 1.217-.397 2.003 0 .12.019.237.021.357a11 10.64 0 0 0-.021.43 11 10.64 0 0 0 .765 3.897C13.273 52.285 21.817 58 32 58c10.241 0 18.823-5.781 21.275-13.597A11 10.64 0 0 0 54 40.641a11 10.64 0 0 0-.019-.496c.002-.098.019-.193.019-.292 0-.762-.14-1.4-.376-1.95A11 10.64 0 0 0 43 30a11 10.64 0 0 0-10.876 9.131l-.124.05-.124-.05A11 10.64 0 0 0 21 30z" opacity=".2"/>
    <path d="M21 29a11 10.64 0 0 0-10.603 7.85c-.25.562-.397 1.217-.397 2.003 0 .12.019.237.021.357a11 10.64 0 0 0-.021.43 11 10.64 0 0 0 .765 3.897C13.273 51.285 21.817 57 32 57c10.241 0 18.823-5.781 21.275-13.597A11 10.64 0 0 0 54 39.641a11 10.64 0 0 0-.019-.496c.002-.098.019-.193.019-.292 0-.762-.14-1.4-.376-1.95A11 10.64 0 0 0 43 29a11 10.64 0 0 0-10.876 9.131l-.124.05-.124-.05A11 10.64 0 0 0 21 29z" fill="#F9F5D7"/>
    <circle cx="24" cy="41" r="3" fill="#3A393A"/>
    <circle cx="40" cy="41" r="3" fill="#3A393A"/>
    <path d="M26 45h12l-3 4.5-3 4.5-3-4.5z" opacity=".767" fill="#FA4934"/>
    <path d="M32 4A28 28 0 0 0 4 32a28 28 0 0 0 .018.492A28 28 0 0 1 32 5a28 28 0 0 1 27.975 27.492A28 28 0 0 0 60 32 28 28 0 0 0 32 4z" opacity=".1" fill="#F9F5D7"/>
</svg>
