<svg xmlns="http://www.w3.org/2000/svg" width="64" height="64">
    <path d="M16 37c-2.216 0-4 1.888-4 4.234V58c0 1.662 1.115 3 2.5 3h35c1.385 0 2.5-1.338 2.5-3V41.234C52 38.888 50.216 37 48 37s-4 1.888-4 4.234V44.2C44 41.872 42.216 40 40 40s-4 1.872-4 4.2v1.085C36 42.911 34.216 41 32 41s-4 1.91-4 4.285V44.2C28 41.872 26.216 40 24 40s-4 1.872-4 4.2v-2.966C20 38.888 18.216 37 16 37z" opacity=".2"/>
    <path d="M38 5a16 16 0 0 0-14.797 9.93A8 8 0 0 0 18 13a8 8 0 0 0-8 8 8 8 0 0 0 1.652 4.86A7 7 0 0 0 8 32a7 7 0 0 0 7 7 7 7 0 0 0 1-.078V41c0 3.324 2.676 6 6 6h20c3.324 0 6-2.676 6-6v-.082A7 7 0 0 0 49 41a7 7 0 0 0 7-7 7 7 0 0 0-3.582-6.105A16 16 0 0 0 54 21 16 16 0 0 0 38 5z" opacity=".2"/>
    <path d="M38 4a16 16 0 0 0-14.797 9.93A8 8 0 0 0 18 12a8 8 0 0 0-8 8 8 8 0 0 0 1.652 4.86A7 7 0 0 0 8 31a7 7 0 0 0 7 7 7 7 0 0 0 1-.078V40c0 3.324 2.676 6 6 6h20c3.324 0 6-2.676 6-6v-.082A7 7 0 0 0 49 40a7 7 0 0 0 7-7 7 7 0 0 0-3.582-6.105A16 16 0 0 0 54 20 16 16 0 0 0 38 4z" fill="#E6D3A3"/>
    <path d="M38 30a6 6 0 0 1-12 0z" fill="#9D0006"/>
    <circle cx="21" cy="26" r="4" fill="#3A393A"/>
    <circle cx="22.5" cy="24.5" r="1.5" fill="#F9F5D7"/>
    <path d="M48 36c-2.216 0-4 1.889-4 4.235V60h5.5c1.385 0 2.5-1.338 2.5-3V40.235C52 37.89 50.216 36 48 36zM32 40c-2.216 0-4 1.911-4 4.286V60h8V44.286C36 41.91 34.216 40 32 40z" fill="#CB241D"/>
    <path d="M40 39c-2.216 0-4 1.873-4 4.2V60h8V43.2c0-2.327-1.784-4.2-4-4.2z" fill="#F9F5D7"/>
    <path d="M16 36c2.216 0 4 1.889 4 4.235V60h-5.5c-1.385 0-2.5-1.338-2.5-3V40.235C12 37.89 13.784 36 16 36z" fill="#CB241D"/>
    <path d="M24 39c2.216 0 4 1.873 4 4.2V60h-8V43.2c0-2.327 1.784-4.2 4-4.2z" fill="#F9F5D7"/>
    <circle cx="43" cy="26" r="4" fill="#3A393A"/>
    <circle cx="44.5" cy="24.5" r="1.5" fill="#F9F5D7"/>
    <path d="M38 4a16 16 0 0 0-14.797 9.93A8 8 0 0 0 18 12a8 8 0 0 0-8 8 8 8 0 0 0 .021.418A8 8 0 0 1 18 13a8 8 0 0 1 5.203 1.93A16 16 0 0 1 38 5a16 16 0 0 1 15.982 15.652A16 16 0 0 0 54 20 16 16 0 0 0 38 4zM11.178 25.148A7 7 0 0 0 8 31a7 7 0 0 0 .023.457 7 7 0 0 1 3.63-5.598 8 8 0 0 1-.475-.71zm41.576 1.948a16 16 0 0 1-.336.799 7 7 0 0 1 3.559 5.646A7 7 0 0 0 56 33a7 7 0 0 0-3.246-5.904z" opacity=".2" fill="#F9F5D7"/>
</svg>
