<svg xmlns="http://www.w3.org/2000/svg" width="64" height="64" version="1">
    <circle cx="32" cy="32" r="28" fill="#48B9C7"/>
    <path d="M32.015 5c1.012 0 2.005.062 2.985.168A28.053 27.999 0 0 0 32.015 5zm-1.868.066a28.053 27.999 0 0 0-.559.059c.189-.017.37-.045.56-.059zm5.915.262c.65.096 1.299.197 1.932.336a28.053 27.999 0 0 0-1.932-.336zm-8.22.008a28.053 27.999 0 0 0-1.133.191 28.28 28.28 0 0 1 1.134-.191zm-2.398.476c-.224.055-.454.098-.677.157l.03.031a28.053 27.999 0 0 1 .647-.188zM24.797 6a28.053 27.999 0 0 0-2.182.648l12.812 12.79a14.026 14 0 0 0-3.412-.439H7.747a28.053 27.999 0 0 0-1.042 2h18.116a14.026 14 0 0 0-2.719 2.106l-.004-.004-16.692 16.66a28.053 27.999 0 0 0 .767 2.062l12.254-12.23A14.026 14 0 0 0 17.988 33V55.22a28.053 27.999 0 0 0 2.004 1.04V40.18a14.026 14 0 0 0 2.11 2.714l-.004.004L37.631 58.4a28.053 27.999 0 0 0 2.28-.55L28.603 46.56a14.026 14 0 0 0 3.413.438h23.007a28.053 27.999 0 0 0 1.26-2H39.208a14.026 14 0 0 0 2.72-2.105l.003.004 17.134-17.102a28.053 27.999 0 0 0-.649-2.178L45.602 36.405a14.026 14 0 0 0 .439-3.406V8.778a28.053 27.999 0 0 0-2.004-1.04V25.82a14.026 14 0 0 0-2.11-2.714l.004-.004L24.797 6zm34.268 19.795a28.053 27.999 0 0 1 .189.646c-.054-.224-.098-.454-.156-.676l-.033.03zM38.954 5.906c.659.17 1.312.348 1.953.563a28.053 27.999 0 0 0-1.953-.563zm-16.575.82a28.053 27.999 0 0 0-1.431.579c.473-.203.946-.402 1.43-.578zm19.388.06a28.52 28.52 0 0 1 1.922.784 28.053 27.999 0 0 0-1.922-.785zm-21.911 1.01a28.053 27.999 0 0 0-1.186.606c.39-.21.785-.413 1.186-.605zm-2.368 1.282a28.053 27.999 0 0 0-1.084.684c.355-.238.718-.463 1.084-.684zm29.724.418c.248.16.507.308.751.476a28.053 27.999 0 0 0-.751-.476zm-31.928 1.066a28.053 27.999 0 0 0-1.006.766c.327-.266.668-.515 1.006-.766zm-2.121 1.742a28.053 27.999 0 0 0-.83.758c.267-.262.552-.506.83-.758zm38.827 1.051c.262.267.507.551.76.828a28.053 27.999 0 0 0-.76-.828zm1.737 1.941c.267.326.515.667.767 1.004a28.053 27.999 0 0 0-.767-1.004zM8.959 17.062a28.053 27.999 0 0 0-.528.828c.177-.275.342-.56.528-.828zm46.337.356c.238.354.463.716.685 1.081a28.053 27.999 0 0 0-.685-1.081zm1.37 2.273c.205.376.403.756.592 1.144a28.053 27.999 0 0 0-.591-1.144zm-50.13 1.656a28.053 27.999 0 0 0-.786 1.918c.242-.65.5-1.292.787-1.918zm51.235.632c.196.462.392.924.567 1.398a28.053 27.999 0 0 0-.567-1.398zM5.432 24.123a28.053 27.999 0 0 0-.563 1.95c.17-.658.348-1.31.563-1.95zm-.806 2.908a28.053 27.999 0 0 0-.336 1.928c.096-.648.197-1.296.336-1.928zm54.911.664c.078.396.138.796.2 1.198a28.053 27.999 0 0 0-.2-1.198zM4.13 30.02A28.053 27.999 0 0 0 4 32.14a28.053 27.999 0 0 0 .004.086c.023-.74.047-1.482.125-2.206zm55.805.484c.018.212.05.42.066.632a28.053 27.999 0 0 0-.066-.632z" opacity=".2"/>
    <path d="M32.001 4c1.01 0 2.002.062 2.98.168A28 28 0 0 0 32.001 4zm-1.864.066a28 28 0 0 0-.558.059c.188-.017.37-.045.558-.059zm5.904.262c.648.096 1.296.197 1.928.336a28 28 0 0 0-1.928-.336zm-8.204.008a28 28 0 0 0-1.132.191c.374-.073.752-.132 1.132-.191zm-2.394.476a28 28 0 0 0-2.824.836l12.788 12.79A14 14 0 0 0 32.001 18H7.78a28 28 0 0 0-1.04 2h18.082a14 14 0 0 0-2.714 2.106l-.004-.004L4.97 39.234c-.059-.222-.102-.452-.156-.676a28 28 0 0 0 .836 2.824l12.789-12.788A14 14 0 0 0 18 32v24.222a28 28 0 0 0 2 1.04V39.18a14 14 0 0 0 2.106 2.714l-.004.004 17.132 17.134c-.21.056-.428.096-.64.148a28 28 0 0 0 2.788-.828l-12.788-12.79a14 14 0 0 0 3.406.438h24.222a28 28 0 0 0 1.04-2H39.181a14 14 0 0 0 2.714-2.106l.004.004 17.134-17.132c.058.222.102.452.156.676a28 28 0 0 0-.836-2.824l-12.79 12.788A14 14 0 0 0 46.001 32V7.778a28 28 0 0 0-2-1.04V24.82a14 14 0 0 0-2.106-2.714l.004-.004L24.767 4.969c.222-.06.452-.102.676-.157zm13.484.094c.658.17 1.31.348 1.95.563a28 28 0 0 0-1.95-.563zm-16.544.82a28 28 0 0 0-1.428.579c.472-.203.944-.402 1.428-.578zm19.352.06c.65.241 1.292.498 1.918.784a28 28 0 0 0-1.918-.785zm-21.87 1.01a28 28 0 0 0-1.183.606c.389-.21.783-.413 1.183-.605zm-2.363 1.282a28 28 0 0 0-1.082.684c.354-.238.716-.463 1.082-.684zm29.668.418c.248.16.506.309.75.477a28 28 0 0 0-.75-.477zM15.302 9.562a28 28 0 0 0-1.004.766c.326-.266.666-.514 1.004-.766zm-2.117 1.743a28 28 0 0 0-.828.757c.266-.262.55-.506.828-.757zm38.754 1.05c.262.267.506.552.758.829a28 28 0 0 0-.758-.829zm1.734 1.942c.266.326.514.666.766 1.004a28 28 0 0 0-.766-1.004zM8.989 16.062a28 28 0 0 0-.527.829c.176-.276.34-.56.527-.829zm46.25.356c.238.354.462.716.684 1.082a28 28 0 0 0-.684-1.082zm1.368 2.273c.204.378.402.757.59 1.145a28 28 0 0 0-.59-1.145zM6.57 20.348a28 28 0 0 0-.785 1.918c.242-.65.498-1.292.785-1.918zm51.138.632c.196.462.392.924.566 1.398a28 28 0 0 0-.566-1.398zm-52.24 2.144a28 28 0 0 0-.563 1.95c.17-.658.348-1.31.563-1.95zm-.805 2.908a28 28 0 0 0-.336 1.928c.096-.648.197-1.296.336-1.928zm54.808.664c.078.396.138.796.2 1.198a28 28 0 0 0-.2-1.198zM4.168 29.02A28 28 0 0 0 4 32c0-1.01.062-2.002.168-2.98zm55.7.484c.018.212.05.42.066.632a28 28 0 0 0-.066-.632zM60 32c0 1.022-.068 2.028-.176 3.02A28 28 0 0 0 60 32zM4.066 33.918a28 28 0 0 0 .035.336c-.01-.112-.027-.224-.035-.336zm55.626 1.984c-.1.698-.206 1.392-.356 2.07a28 28 0 0 0 .356-2.07zm-55.356.262a28 28 0 0 0 .191 1.132 28.179 28.179 0 0 1-.191-1.132zm54.766 2.734a28.37 28.37 0 0 1-.59 2.024 28 28 0 0 0 .59-2.024zM5.726 41.614a28 28 0 0 0 .61 1.5 28.521 28.521 0 0 1-.61-1.5zm52.516.05c-.25.676-.518 1.344-.816 1.996a28 28 0 0 0 .816-1.996zM6.77 44.078a28 28 0 0 0 .668 1.308 27.513 27.513 0 0 1-.668-1.308zm1.27 2.36a28 28 0 0 0 .757 1.19 27.98 27.98 0 0 1-.758-1.19zm47.463.73c-.16.248-.308.506-.476.75a28 28 0 0 0 .476-.75zm-45.98 1.48a28 28 0 0 0 .809 1.062c-.281-.344-.544-.704-.809-1.062zm1.782 2.168a28 28 0 0 0 .757.828c-.262-.266-.506-.55-.757-.828zm40.34 1.122c-.248.244-.514.47-.772.706a28 28 0 0 0 .772-.706zm-1.964 1.758c-.298.242-.61.468-.918.698a28 28 0 0 0 .918-.698zm-33.618 1.316a28 28 0 0 0 .828.528c-.276-.178-.56-.342-.828-.528zm31.496.242a29.69 29.69 0 0 1-1.046.66 28 28 0 0 0 1.046-.66zm-2.25 1.352c-.376.204-.756.402-1.144.59a28 28 0 0 0 1.144-.59zm-24.96.824a28 28 0 0 0 1.918.784 28.741 28.741 0 0 1-1.918-.784zm22.672.278c-.462.196-.924.392-1.398.566a28 28 0 0 0 1.398-.566zm-19.896.824a28 28 0 0 0 1.95.562c-.658-.17-1.31-.348-1.95-.562zm2.904.804a28 28 0 0 0 2.07.356c-.698-.1-1.392-.206-2.07-.356zm11.258.14c-.37.072-.744.13-1.118.188a28 28 0 0 0 1.118-.188zm-8.306.348A28 28 0 0 0 32 60c-1.022 0-2.028-.068-3.02-.176zm5.442.052c-.188.016-.37.044-.558.058a28 28 0 0 0 .558-.058z" fill="#F9F5D7"/>
    <path d="M32 4A28 28 0 0 0 4 32a28 28 0 0 0 .018.492A28 28 0 0 1 32 5a28 28 0 0 1 27.975 27.492A28 28 0 0 0 60 32 28 28 0 0 0 32 4z" opacity=".2" fill="#F9F5D7"/>
    <path d="M59.957 32.828A28 28 0 0 1 32 60 28 28 0 0 1 4.045 33.172 28 28 0 0 0 4 34a28 28 0 0 0 .025.52 28 28 0 0 1 .02-.348A28 28 0 0 0 32 61a28 28 0 0 0 27.957-27.172 28 28 0 0 1 .025.68A28 28 0 0 0 60 34a28 28 0 0 0-.043-1.172z" opacity=".2"/>
</svg>
