<svg xmlns="http://www.w3.org/2000/svg" width="64" height="64">
    <path d="M10.74 32.484C10.74 43.732-3.431 52 9.325 52h45.352c12.756 0-1.416-8.268-1.416-19.516C53.26 19.939 47.59 6 32 6 16.41 6 10.74 19.94 10.74 32.484z" fill="#D79921"/>
    <path d="M22 52c1.477 3.475 5.373 6 10 6s8.523-2.525 10-6H22z" fill="#CB8819"/>
    <path d="M32 6C16.4 6 10.728 19.94 10.728 32.485c0 6.928-5.366 12.718-6.517 16.148a1.523 1.523 0 0 1-.156-.393c-.1.535-.073 1.007.156 1.393 1.151-3.43 6.517-9.22 6.517-16.148C10.728 20.939 16.399 7 32 7 47.6 7 53.272 20.94 53.272 33.485c0 6.928 5.366 12.718 6.517 16.148.229-.386.256-.858.156-1.393-.036.138-.084.27-.156.393-1.151-3.43-6.517-9.22-6.517-16.148C53.272 19.939 47.601 6 32 6z" opacity=".1" fill="#F9F5D7"/>
    <path d="M59.948 50.24c-.295 1.133-1.756 1.76-5.252 1.76H9.301c-3.49 0-4.952-.625-5.25-1.756C3.725 52 4.892 53 9.302 53h45.395c4.414 0 5.582-1.002 5.252-2.76zM22 53c1.478 3.476 5.374 6 10 6s8.522-2.524 10-6h-.514c-1.748 2.948-5.318 5-9.486 5-4.168 0-7.738-2.052-9.486-5H22z" opacity=".2"/>
</svg>
