<svg xmlns="http://www.w3.org/2000/svg" width="64" height="64" version="1">
    <path d="M16 51.376v2C16 54.83 17.19 56 18.668 56h26.664C46.81 56 48 54.83 48 53.376v-2C48 52.83 46.81 54 45.332 54H18.668C17.191 54 16 52.83 16 51.376z" opacity=".2"/>
    <rect width="42" height="32" x="-55" y="-48" rx="2.626" ry="2.666" transform="matrix(0 -1 -1 0 0 0)" fill="#928274"/>
    <path d="M6 45.5v2C6 48.884 7.162 50 8.602 50h46.796C56.838 50 58 48.884 58 47.5v-2c0 1.384-1.162 2.5-2.602 2.5H8.602C7.162 48 6 46.884 6 45.5z" opacity=".2"/>
    <rect width="40" height="52" x="-49" y="-58" rx="2.5" ry="2.6" transform="matrix(0 -1 -1 0 0 0)" fill="#504945"/>
    <rect width="32" height="44" x="-45" y="-54" rx="0" ry="0" transform="matrix(0 -1 -1 0 0 0)" fill="#066678"/>
    <path d="M8.602 9C7.162 9 6 10.115 6 11.5v1C6 11.115 7.161 10 8.602 10h46.796C56.838 10 58 11.115 58 12.5v-1c0-1.385-1.162-2.5-2.602-2.5H8.602z" opacity=".1" fill="#F9F5D7"/>
    <path d="M20.3 18c-.72 0-1.3.595-1.3 1.333v18.35c0 .738.58 1.3 1.3 1.3H26v1.665c0 .738.596 1.482 1.3 1.333h9.4c.72 0 1.3-.595 1.3-1.333v-1.665h5.7c.72 0 1.3-.562 1.3-1.3v-18.35c0-.738-.58-1.333-1.3-1.333H32zm2.7 2.998h18c.554 0 1 .446 1 1v12.988c0 .554-.446 1-1 1H23c-.554 0-1-.446-1-1V21.997c0-.553.45-.938 1-.999z" opacity=".2"/>
    <path d="M20.3 17c-.72 0-1.3.596-1.3 1.334v18.35c0 .738.58 1.3 1.3 1.3H26v1.664c0 .738.596 1.483 1.3 1.333h9.4c.72 0 1.3-.595 1.3-1.333v-1.665h5.7c.72 0 1.3-.561 1.3-1.3v-18.35c0-.737-.583-1.27-1.3-1.332H32zm2.7 2.998h18c.554 0 1 .446 1 1v12.988c0 .554-.446 1-1 1H23c-.554 0-1-.446-1-1V20.998c0-.554.45-.938 1-1z" fill="#F9F5D7"/>
</svg>
