<svg xmlns="http://www.w3.org/2000/svg" width="64" height="64" version="1">
    <rect width="56" height="56" x="4" y="4" rx="28" ry="28" fill="#066678"/>
    <rect width="44" height="44" x="-55" y="-54" rx="22" ry="22" transform="matrix(0 -1 -1 0 0 0)" opacity=".2"/>
    <rect width="44" height="44" x="-54" y="-54" rx="22" ry="22" transform="matrix(0 -1 -1 0 0 0)" fill="#448588"/>
    <path d="M32 16.5l-4.453 5.344A12.001 12.001 0 0 0 20 33c0 6.627 5.372 12 12 12 6.627 0 12-5.373 12-12a12 12 0 0 0-7.547-11.156L32 16.5z" opacity=".2"/>
    <path d="M32 15.5l-4.453 5.344A12.001 12.001 0 0 0 20 32c0 6.627 5.372 12 12 12 6.627 0 12-5.373 12-12a12 12 0 0 0-7.547-11.156L32 15.5z" fill="#F9F5D7"/>
    <path d="M32 4C16.488 4 4 16.488 4 32c0 .114.011.224.018.336C4.369 17.134 16.71 5 32 5s27.63 12.134 27.982 27.336c.007-.112.018-.223.018-.336C60 16.488 47.512 4 32 4z" opacity=".1" fill="#F9F5D7"/>
    <path d="M32 10c-12.188 0-22 9.812-22 22 0 .114.012.225.018.338A21.945 21.945 0 0 1 32 11a21.945 21.945 0 0 1 21.982 21.338c.007-.113.018-.224.018-.338 0-12.188-9.812-22-22-22z" opacity=".1" fill="#F9F5D7"/>
    <path d="M59.982 32.664C59.631 47.866 47.29 60 32 60 16.712 60 4.371 47.868 4.018 32.668c-.007.11-.018.22-.018.332 0 15.512 12.488 28 28 28s28-12.488 28-28c0-.113-.011-.224-.018-.336z" opacity=".2"/>
</svg>
