<svg xmlns="http://www.w3.org/2000/svg" width="64" height="64" version="1">
    <rect width="52" height="52" x="-59" y="-58" rx="16.8" ry="16.8" transform="matrix(0 -1 -1 0 0 0)" opacity=".2"/>
    <rect width="52" height="52" x="-58" y="-58" rx="16.8" ry="16.8" transform="matrix(0 -1 -1 0 0 0)" fill="#7CB668"/>
    <path d="M32.034 17c3.507.008 7.062 1.057 9.84 3.134 1.952 2.16-1.768 4.473-3.444 2.367-5.044-2.93-12.158-1.899-15.953 2.482-2.019 2.174-3.156 5.076-3.143 7.988h3.333l-5.334 7.68L12 32.971h3.333c-.106-6.954 5.103-13.569 12.097-15.37 1.5-.395 3.046-.616 4.604-.6zm14.634 8.322L52 33.004h-3.333c.094 7.037-5.248 13.726-12.364 15.432-4.802 1.288-10.231.348-14.177-2.597-2.014-2.196 1.758-4.486 3.45-2.361 4.886 2.847 11.73 1.944 15.588-2.123 2.234-2.21 3.52-5.271 3.502-8.351h-3.333l5.334-7.681z" opacity=".2"/>
    <path d="M32.034 16c3.507.008 7.062 1.057 9.84 3.134 1.952 2.16-1.768 4.473-3.444 2.367-5.044-2.93-12.158-1.899-15.953 2.482-2.019 2.174-3.156 5.076-3.143 7.988h3.333l-5.334 7.68L12 31.971h3.333c-.106-6.954 5.103-13.569 12.097-15.37 1.5-.395 3.046-.616 4.604-.6zm14.634 8.322L52 32.004h-3.333c.094 7.037-5.248 13.726-12.364 15.432-4.802 1.288-10.231.348-14.177-2.597-2.014-2.196 1.758-4.486 3.45-2.361 4.886 2.847 11.73 1.944 15.588-2.123 2.234-2.21 3.52-5.271 3.502-8.351h-3.333l5.334-7.681z" fill="#F9F5D7"/>
    <circle cx="48" cy="46" r="16" fill="#FA4934"/>
    <path d="M40.877 40.001h12.248c.875 0 .875.857.875.857v10.286c-.002.856-.878.856-.878.856H40.876S40 52 40 51.142V40.856c0 .002 0-.856.876-.856zM60 41v9l-6-4.696z" fill="#F9F5D7"/>
    <path d="M32.025 46.5a16 16.002 0 0 0-.025.498A16 16.002 0 0 0 48 63a16 16.002 0 0 0 16-16.002 16 16.002 0 0 0-.018-.492A16 16.002 0 0 1 48 62a16 16.002 0 0 1-15.975-15.5z" opacity=".2"/>
    <path d="M22.8 6C13.495 6 6 13.494 6 22.8v1C6 14.495 13.494 7 22.8 7h18.4C50.505 7 58 14.494 58 23.8v-1C58 13.495 50.506 6 41.2 6H22.8z" fill="#F9F5D7" opacity=".2"/>
</svg>
