<svg xmlns="http://www.w3.org/2000/svg" width="64" height="64">
    <circle cx="32" cy="33" r="28" opacity=".2"/>
    <path d="M32 4a28 28 0 0 0-9.472 1.679C38.554 16.1 47.008 31.87 53.82 49.505A28 28 0 0 0 60 32 28 28 0 0 0 32 4z" fill="#8F3F71"/>
    <path d="M13.996 10.592A28 28 0 0 0 4 32a28 28 0 0 0 7.004 18.49l.443-1.062 7.01 2.924c.157 1.595.143 2.94.022 4.13A28 28 0 0 0 32 60a28 28 0 0 0 13.773-3.662c-2.417-16.518-14.23-36.176-31.777-45.746z" fill="#CB241D"/>
    <path d="M22.85 6.572a28 28 0 0 0-9.217 5.34c5.1 2.482 10.051 6.312 14.356 10.949-6.074 6.103-13.292 17.131-17.115 28.462a28 28 0 0 0 7.894 6.341c2.223-10.495 8.358-21.964 14.38-28.454 5.627 7.895 10.089 17.7 12.406 28.254a28 28 0 0 0 8.501-7.268C48.8 32.264 34.107 12.675 22.851 6.572z" opacity=".2"/>
    <path d="M22.85 5.572a28 28 0 0 0-9.217 5.34c5.1 2.482 10.051 6.312 14.356 10.949-6.074 6.103-13.292 17.131-17.115 28.462a28 28 0 0 0 7.894 6.341c2.223-10.495 8.358-21.963 14.38-28.454 5.627 7.895 10.089 17.7 12.406 28.254a28 28 0 0 0 8.501-7.268C48.8 31.264 34.107 11.675 22.851 5.572z" fill="#F9F5D7"/>
    <path d="M32 4A28 28 0 0 0 4 32a28 28 0 0 0 .018.492A28 28 0 0 1 32 5a28 28 0 0 1 27.975 27.492A28 28 0 0 0 60 32 28 28 0 0 0 32 4z" opacity=".1" fill="#F9F5D7"/>
</svg>
