<svg xmlns="http://www.w3.org/2000/svg" width="64" height="64" version="1">
    <path d="M54 5l6 6v32c0 1.108-.892 2-2 2H30c-1.108 0-2-.892-2-2V7c0-1.108.892-2 2-2z" opacity=".2"/>
    <path d="M54 4l6 6v32c0 1.108-.892 2-2 2H30c-1.108 0-2-.892-2-2V6c0-1.108.892-2 2-2z" fill="#CB241D"/>
    <rect width="24" height="16" x="-56" y="-39" rx="2" ry="2" transform="scale(-1)" opacity=".4"/>
    <g opacity=".2">
        <path d="M45 8h-2v6h2zM42 8h-2v6h2zM39 8h-2v6h2zM36 8h-2v6h2zM33 8h-2v6h2zM57 11h-2v3h2zM51 8h-2v6h2zM48 8h-2v6h2zM54 8h-2v6h2z"/>
    </g>
    <g fill="#FECE4F">
        <path d="M45 7h-2v6h2zM42 7h-2v6h2zM39 7h-2v6h2zM36 7h-2v6h2zM33 7h-2v6h2zM57 10h-2v3h2zM51 7h-2v6h2zM48 7h-2v6h2zM54 7h-2v6h2z"/>
    </g>
    <path d="M54 4l6 6v1l-6-6H30c-1.108 0-2 .892-2 2V6c0-1.108.892-2 2-2z" opacity=".1" fill="#F9F5D7"/>
    <path d="M30 21l6 6v32c0 1.108-.892 2-2 2H6c-1.108 0-2-.892-2-2V23c0-1.108.892-2 2-2z" opacity=".2"/>
    <path d="M30 20l6 6v32c0 1.108-.892 2-2 2H6c-1.108 0-2-.892-2-2V22c0-1.108.892-2 2-2z" fill="#066678"/>
    <rect width="24" height="16" x="-32" y="-55" rx="2" ry="2" transform="scale(-1)" opacity=".4"/>
    <g opacity=".2">
        <path d="M21 24h-2v6h2zM18 24h-2v6h2zM15 24h-2v6h2zM12 24h-2v6h2zM9 24H7v6h2zM33 27h-2v3h2zM27 24h-2v6h2zM24 24h-2v6h2zM30 24h-2v6h2z"/>
    </g>
    <g fill="#FECE4F">
        <path d="M21 23h-2v6h2zM18 23h-2v6h2zM15 23h-2v6h2zM12 23h-2v6h2zM9 23H7v6h2zM33 26h-2v3h2zM27 23h-2v6h2zM24 23h-2v6h2zM30 23h-2v6h2z"/>
    </g>
    <path d="M30 20l6 6v1l-6-6H6c-1.108 0-2 .892-2 2v-1c0-1.108.892-2 2-2z" opacity=".1" fill="#F9F5D7"/>
</svg>
