<svg xmlns="http://www.w3.org/2000/svg" width="64" height="64">
    <path d="M12.75 6C11.226 6 10 7.249 10 8.8v50.4c0 1.551 1.226 2.8 2.75 2.8h38.5c1.524 0 2.75-1.248 2.75-2.8V8.8C54 7.249 52.774 6 51.25 6h-38.5z" fill="#448588"/>
    <path d="M12.75 6C11.226 6 10 7.249 10 8.8v50.4c0 1.551 1.226 2.8 2.75 2.8H18V6z" opacity=".2"/>
    <path d="M36.039 21c-5.906 0-10.953 3.675-12.99 8.843-.109.262-.204.532-.297.802-.018.056-.039.11-.056.167A13.7 13.7 0 0 0 22 35.1C22 42.767 28.261 49 35.962 49c5.85 0 10.862-3.6 12.938-8.69l.002-.004c.15-.35.275-.712.395-1.076.45-1.364.703-2.818.703-4.33C50 27.235 43.738 21 36.038 21zm-1.005 2.17v4.68a25.393 25.393 0 0 1-3.786-.41c.177-.413.362-.81.564-1.173.933-1.671 2.06-2.714 3.222-3.096zm1.994.078c.105.017.211.03.315.049 1.05.457 2.06 1.45 2.908 2.97.199.356.38.745.555 1.15a25.262 25.262 0 0 1-3.778.428v-4.597zm-6.25.958c-.25.348-.491.708-.709 1.097-.29.52-.548 1.081-.786 1.668a15.948 15.948 0 0 1-1.629-.572c.91-.89 1.966-1.628 3.124-2.193zm10.723.299c.545.217.962.42 1.381.624.532.37 1.032.779 1.496 1.227-.498.211-1.034.407-1.613.58a15.07 15.07 0 0 0-.771-1.633 12.27 12.27 0 0 0-.493-.799zm4.18 3.35a11.804 11.804 0 0 1 2.275 6.06H44.2a22.02 22.02 0 0 0-.789-5.094 17.254 17.254 0 0 0 2.228-.84c.019-.043.029-.085.04-.126zm-19.382.132c.716.331 1.504.619 2.343.868a22.04 22.04 0 0 0-.78 5.06h-3.74c.18-2.204.96-4.23 2.177-5.928zm15.177 1.324c.397 1.39.654 2.947.728 4.603h-5.177v-4.083a26.913 26.913 0 0 0 4.449-.52zm-10.897.03c1.387.278 2.887.444 4.454.494v4.08h-5.175c.074-1.646.329-3.192.72-4.575zM24.12 35.9h3.74c.076 1.851.358 3.602.815 5.188-.82.243-1.588.523-2.292.844A11.807 11.807 0 0 1 24.12 35.9zm5.737 0h5.175v4.219a27.064 27.064 0 0 0-4.42.486 20.123 20.123 0 0 1-.755-4.705zm7.17 0h5.176c-.077 1.707-.346 3.311-.764 4.734a26.94 26.94 0 0 0-4.413-.512V35.9zm7.172 0h3.755a11.805 11.805 0 0 1-2.308 6.092c-.004-.006-.004-.014-.008-.02a17.298 17.298 0 0 0-2.263-.85c.463-1.594.748-3.357.824-5.223zm-9.167 6.204v4.537c-1.162-.383-2.29-1.421-3.221-3.092a12.471 12.471 0 0 1-.51-1.045 25.435 25.435 0 0 1 3.73-.4zm1.994.004c1.312.052 2.567.195 3.726.417-.16.359-.325.704-.503 1.024-.933 1.671-2.06 2.71-3.223 3.092v-4.533zm-7.693.86c.225.54.465 1.062.734 1.544.212.38.444.733.686 1.073a11.942 11.942 0 0 1-2.982-2.073 16.176 16.176 0 0 1 1.562-.545zm13.38.034c.554.164 1.063.352 1.545.55a11.94 11.94 0 0 1-2.955 2.04c.243-.343.477-.698.69-1.08.263-.472.5-.982.72-1.51z" opacity=".2" fill-rule="evenodd"/>
    <path d="M36.039 20c-5.906 0-10.953 3.674-12.99 8.841-.109.263-.204.532-.297.803-.018.056-.039.11-.056.167A13.746 13.746 0 0 0 22 34.1C22 41.767 28.261 48 35.962 48c5.85 0 10.862-3.6 12.938-8.69l.002-.005c.15-.35.275-.711.395-1.076.45-1.364.703-2.817.703-4.33C50 26.236 43.738 20 36.038 20zm-1.005 2.17v4.678a25.393 25.393 0 0 1-3.786-.409c.177-.413.362-.81.564-1.173.933-1.671 2.06-2.714 3.222-3.096zm1.994.077c.105.017.211.03.315.049 1.05.457 2.06 1.45 2.908 2.97.199.356.38.746.555 1.15a25.262 25.262 0 0 1-3.778.428v-4.597zm-6.25.958c-.25.348-.491.708-.709 1.097-.29.52-.548 1.081-.786 1.668a15.948 15.948 0 0 1-1.629-.572c.91-.89 1.966-1.628 3.124-2.193zm10.723.299c.545.217.962.42 1.381.624.532.37 1.032.779 1.496 1.227-.498.211-1.034.407-1.613.58a15.07 15.07 0 0 0-.771-1.633 12.27 12.27 0 0 0-.493-.798zm4.18 3.35a11.804 11.804 0 0 1 2.275 6.06H44.2a22.02 22.02 0 0 0-.789-5.094 17.254 17.254 0 0 0 2.228-.84c.019-.043.029-.084.04-.126zm-19.382.132c.716.331 1.504.619 2.343.868a22.04 22.04 0 0 0-.78 5.06h-3.74c.18-2.204.96-4.23 2.177-5.928zm15.177 1.324c.397 1.39.654 2.947.728 4.603h-5.177V28.83a26.913 26.913 0 0 0 4.449-.52zm-10.897.03c1.387.278 2.887.444 4.454.494v4.08h-5.175c.074-1.646.329-3.192.72-4.575zm-6.458 6.559h3.74c.076 1.851.358 3.602.815 5.188-.82.243-1.588.523-2.292.844a11.807 11.807 0 0 1-2.264-6.032zm5.737 0h5.175v4.219a27.064 27.064 0 0 0-4.42.487 20.123 20.123 0 0 1-.755-4.706zm7.17 0h5.176c-.077 1.707-.346 3.311-.764 4.734a26.94 26.94 0 0 0-4.413-.511v-4.223zm7.172 0h3.755a11.805 11.805 0 0 1-2.308 6.092c-.004-.006-.004-.014-.008-.02a17.298 17.298 0 0 0-2.263-.849c.463-1.595.748-3.358.824-5.224zm-9.167 6.204v4.537c-1.162-.383-2.29-1.421-3.221-3.092a12.471 12.471 0 0 1-.51-1.045 25.435 25.435 0 0 1 3.73-.4zm1.994.004c1.312.052 2.567.195 3.726.417-.16.359-.325.704-.503 1.024-.933 1.672-2.06 2.71-3.223 3.093v-4.534zm-7.693.86c.225.54.465 1.062.734 1.544.212.38.444.733.686 1.073a11.942 11.942 0 0 1-2.982-2.073 16.176 16.176 0 0 1 1.562-.545zm13.38.034c.554.164 1.063.352 1.545.55a11.94 11.94 0 0 1-2.955 2.04c.243-.342.477-.698.69-1.08.263-.471.5-.982.72-1.51z" fill="#F9F5D7" fill-rule="evenodd"/>
    <path d="M12.75 6C11.226 6 10 7.25 10 8.8v1C10 8.25 11.226 7 12.75 7h38.5C52.774 7 54 8.25 54 9.8v-1C54 7.25 52.774 6 51.25 6h-38.5z" opacity=".2" fill="#F9F5D7"/>
    <path d="M10 59.2v1c0 1.55 1.226 2.8 2.75 2.8h38.5c1.524 0 2.75-1.25 2.75-2.8v-1c0 1.55-1.226 2.8-2.75 2.8h-38.5C11.226 62 10 60.75 10 59.2z" opacity=".2"/>
</svg>
