<svg xmlns="http://www.w3.org/2000/svg" style="isolation:isolate" width="64" height="64">
    <path d="M22.589 5.01h.008c-2.069.056-4.274.264-6.548.921a7.441 7.441 0 0 0-.242.074c-2.758.924-5.583 2.943-6.805 5.638-1.222 2.7-.98 4.733-.98 6.16v31.561c0 1.427-.195 2.865.574 5.173.77 2.308 3.402 4.7 5.548 5.454l.047.02c1.158.395 2.289.618 3.479.781 2.436.333 4.654.267 7-.207a14.407 14.407 0 0 0 2.288-.672c1.211-.43 2.523-1.527 3.557-2.818.278.363.379.761.746 1.097 2.097 1.921 4.16 2.197 5.813 2.487 1.263.22 1.775.186 2.663.222.888.036 1.81.058 2.522.066h.004c1.875.022 3.221.14 5.47-.324 2.073-.416 4.206-.849 6.255-3.506h.004c.835-1.083 1.884-2.84 1.995-5.2.16-3.41-1.156-5.602-2.441-7.738a15.781 15.781 0 0 0-2.303-2.924c-.651-.649-1.006-.959-1.566-1.593-.65-.737-.443-.534-.722-.929.164-.156.122-.144.316-.316 2.176-1.94 4.748-3.87 6.114-7.812.596-1.718.627-3.044.606-4.389-.046-2.815-.587-5.642-1.777-8.425-1.099-2.57-3.047-5.005-5.474-6.71-2.427-1.707-5.195-2.847-8.589-3.948a35.922 35.922 0 0 0-5.045-1.269c-2.311-.405-5.138-.62-7.913-.76h-.016a66.274 66.274 0 0 0-2.425-.107 32.454 32.454 0 0 0-2.116 0c-.015.001-.031 0-.047 0V5.01z" opacity=".2"/>
    <path d="M22.589 4.01h.008c-2.069.056-4.274.264-6.548.921a7.441 7.441 0 0 0-.242.074c-2.758.924-5.583 2.943-6.805 5.638-1.222 2.699-.98 4.733-.98 6.16v31.561c0 1.427-.195 2.865.574 5.173.77 2.308 3.402 4.7 5.548 5.454l.047.02c1.158.395 2.289.618 3.479.781 2.436.333 4.654.267 7-.207a14.407 14.407 0 0 0 2.288-.672c1.211-.43 2.523-1.527 3.557-2.818.278.363.379.761.746 1.097 2.097 1.921 4.16 2.197 5.813 2.487 1.263.22 1.775.186 2.663.222.888.036 1.81.058 2.522.066h.004c1.875.022 3.221.14 5.47-.324 2.073-.416 4.206-.849 6.255-3.506h.004c.835-1.083 1.884-2.84 1.995-5.2.16-3.41-1.156-5.602-2.441-7.738a15.781 15.781 0 0 0-2.303-2.924c-.651-.649-1.006-.959-1.566-1.593-.65-.737-.443-.534-.722-.929.164-.156.122-.144.316-.316 2.176-1.94 4.748-3.87 6.114-7.812.596-1.718.627-3.044.606-4.389-.046-2.815-.587-5.642-1.777-8.425-1.099-2.57-3.047-5.005-5.474-6.711-2.427-1.706-5.195-2.846-8.589-3.947a35.922 35.922 0 0 0-5.045-1.269c-2.311-.405-5.138-.62-7.913-.761h-.016a66.274 66.274 0 0 0-2.425-.106 32.454 32.454 0 0 0-2.116 0c-.015.001-.031 0-.047 0V4.01z" fill="#504945"/>
    <path d="M22.777 11.01c-1.754.046-3.486.235-5.082.695C13.952 12.959 14 14.892 14 17.815v31.579c0 2.854.001 4.227 2.113 4.969.641.219 1.425.389 2.352.516 1.514.207 3.617.136 5.001-.144a8.663 8.663 0 0 0 1.477-.43c1.276-.433 1.268-1.214 1.218-2.234-.087-2.103-.33-4.586 1.688-6.239.931-.762 2.074-.8 3.168-.289.934.437 1.978 1.466 2.461 2.43.46.917.572 1.536.82 3.246.376 2.585 1.039 3.095 3.801 3.578.675.118 2.923.184 4.229.2 1.679.02 3.447-.044 4.199-.2 1.309-.262 2.269-.723 2.711-1.296.407-.529.726-1.133.758-1.825.056-1.182-.538-2.617-1.59-4.367-.95-1.581-1.711-1.92-3.23-3.641-1.849-2.095-2.735-3.451-3.076-4.641-.43-1.499.918-3.04 3.178-5.055 2.11-1.881 3.81-3.481 4.441-5.301.204-.589.288-1.401.273-2.328-.031-1.919-.501-4.316-1.293-6.168-1.441-3.37-4.189-5.299-10.406-7.317-1.56-.506-2.711-.8-4.231-1.066-1.765-.31-4.563-.546-7.203-.68a58.897 58.897 0 0 0-2.324-.102c-.586-.02-1.173-.02-1.758 0zm7.121 11.989c1.829.026 3.432 1.411 3.957 3.476.19.747.193 2.354.004 3.258-.489 2.362-2.182 3.55-4.558 3.196-.815-.122-1.371-.419-1.934-1.035-.873-.956-1.364-2.449-1.367-4.145-.004-2.753 1.332-4.55 3.527-4.738.124-.02.25-.02.371-.02v.008z" opacity=".2"/>
    <path d="M22.777 10.01c-1.754.046-3.486.235-5.082.695C13.952 11.959 14 13.892 14 16.815v31.579c0 2.854.001 4.227 2.113 4.969.641.219 1.425.389 2.352.516 1.514.207 3.617.136 5.001-.144a8.663 8.663 0 0 0 1.477-.43c1.276-.433 1.268-1.214 1.218-2.234-.087-2.103-.33-4.586 1.688-6.239.931-.762 2.074-.8 3.168-.289.934.437 1.978 1.466 2.461 2.43.46.917.572 1.536.82 3.246.376 2.585 1.039 3.095 3.801 3.578.675.118 2.923.184 4.229.2 1.679.02 3.447-.044 4.199-.2 1.309-.262 2.269-.723 2.711-1.296.407-.529.726-1.133.758-1.825.056-1.182-.538-2.617-1.59-4.367-.95-1.581-1.711-1.92-3.23-3.641-1.849-2.095-2.735-3.451-3.076-4.641-.43-1.499.918-3.04 3.178-5.055 2.11-1.881 3.81-3.481 4.441-5.301.204-.589.288-1.401.273-2.328-.031-1.919-.501-4.316-1.293-6.168-1.441-3.37-4.189-5.299-10.406-7.317-1.56-.506-2.711-.8-4.231-1.066-1.765-.31-4.563-.546-7.203-.68a58.897 58.897 0 0 0-2.324-.102c-.586-.02-1.173-.02-1.758 0zm7.121 11.989c1.829.026 3.432 1.411 3.957 3.476.19.747.193 2.354.004 3.258-.489 2.362-2.182 3.55-4.558 3.196-.815-.122-1.371-.419-1.934-1.035-.873-.956-1.364-2.449-1.367-4.145-.004-2.753 1.332-4.55 3.527-4.738.124-.02.25-.02.371-.02v.008z" fill="#D79921"/>
    <path d="M22.777 10.01c-1.754.046-3.486.234-5.082.695C13.952 11.958 14 13.891 14 16.814v1c0-2.923-.048-4.856 3.695-6.109 1.596-.461 3.328-.649 5.082-.695.585-.02 1.172-.02 1.758 0 .781.018 1.558.053 2.324.101 2.64.134 5.438.37 7.204.68 1.519.266 2.67.56 4.23 1.066 6.217 2.018 8.965 3.947 10.406 7.317.742 1.736 1.187 3.936 1.268 5.787.008-.207.029-.395.025-.617-.031-1.919-.501-4.316-1.293-6.168-1.441-3.37-4.189-5.299-10.406-7.317-1.56-.506-2.711-.8-4.23-1.066-1.766-.31-4.564-.548-7.204-.682a58.906 58.906 0 0 0-2.324-.101c-.586-.02-1.173-.02-1.758 0zm3.256 17.189c-.012.182-.033.358-.033.549.003 1.696.494 3.189 1.367 4.145.563.616 1.119.913 1.934 1.035 2.376.354 4.069-.834 4.558-3.196.12-.576.155-1.423.121-2.166a7.656 7.656 0 0 1-.121 1.168c-.489 2.362-2.182 3.55-4.558 3.196-.815-.122-1.371-.419-1.934-1.035-.793-.869-1.251-2.191-1.334-3.696zm16.055 10.752c-.085.364-.09.723.012 1.076.341 1.19 1.226 2.546 3.076 4.641 1.519 1.72 2.28 2.06 3.23 3.641.854 1.419 1.399 2.627 1.547 3.666.017-.099.038-.197.043-.299.056-1.182-.538-2.617-1.59-4.367-.95-1.581-1.711-1.921-3.23-3.641-1.85-2.095-2.735-3.451-3.076-4.641-.008-.025-.006-.05-.012-.076zM26.119 49.859c-.026.698.008 1.395.037 2.061a5.69 5.69 0 0 0 .006-.85c-.016-.391-.031-.801-.043-1.211z" fill="#F9F5D7" opacity=".2"/>
    <path d="M55.985 50.961l.002-.024c.16-3.41-1.156-5.602-2.441-7.738a15.781 15.781 0 0 0-2.303-2.924c-.651-.649-1.006-.959-1.566-1.593a8.389 8.389 0 0 1-.295-.343l-.111.098c-.194.172-.152.16-.316.316.279.395.072.192.722.929.56.634.915.944 1.566 1.593.65.648 1.562 1.691 2.303 2.924 1.157 1.924 2.34 3.893 2.439 6.762zM8.022 48.364c0 .466-.021.933-.01 1.443.008-.148.01-.296.01-.443v-1zm-.011-31.99c-.021-1.385-.116-3.285.991-5.731 1.222-2.695 4.047-4.714 6.805-5.638.081-.026.161-.051.242-.074 2.274-.657 4.479-.865 6.548-.921h-.008v.007c.016 0 .032.001.047 0 .706-.022 1.41-.024 2.116 0 .826.02 1.637.058 2.425.106h.016c2.775.141 5.602.356 7.913.761 1.752.307 3.31.707 5.045 1.269 3.394 1.101 6.162 2.241 8.589 3.947 2.427 1.706 4.375 4.141 5.474 6.711 1.19 2.783 1.731 5.61 1.777 8.425.005.366.007.73 0 1.099v-.099c-.046-2.815-.587-5.642-1.777-8.425-1.099-2.57-3.047-5.005-5.474-6.711-2.427-1.706-5.195-2.846-8.589-3.947a35.922 35.922 0 0 0-5.045-1.269c-2.311-.405-5.138-.62-7.913-.761h-.016a66.274 66.274 0 0 0-2.425-.106 32.454 32.454 0 0 0-2.116 0c-.015.001-.031 0-.047 0V5.01h.008c-2.069.056-4.274.264-6.548.921a7.441 7.441 0 0 0-.242.074c-2.758.924-5.583 2.943-6.805 5.638-.859 1.896-.994 3.465-.991 4.731z" fill="#F9F5D7" opacity=".1"/>
</svg>
