<svg xmlns="http://www.w3.org/2000/svg" width="64" height="64">
    <path d="M32.856 61h-1.66a.665.665 0 0 0-.232-.035 30.174 30.174 0 0 1-2.638-.232 27.255 27.255 0 0 1-4.798-1.069 28.137 28.137 0 0 1-7.491-3.692 27.803 27.803 0 0 1-5.698-5.274c-1.95-2.377-3.468-5-4.545-7.884a27.446 27.446 0 0 1-1.717-7.946c0-.148-.028-.296-.077-.443v-2.89c.049-.128.07-.261.077-.395a27.622 27.622 0 0 1 2.969-10.845 27.934 27.934 0 0 1 3.587-5.394 28.083 28.083 0 0 1 4.685-4.402 27.77 27.77 0 0 1 9.313-4.536 27.794 27.794 0 0 1 5.03-.886c.302-.028.62 0 .921-.077h2.842c.218.063.443.028.661.049 1.126.098 2.244.24 3.355.457a27.67 27.67 0 0 1 9.736 3.93 27.966 27.966 0 0 1 6.177 5.409 27.505 27.505 0 0 1 3.664 5.506 27.414 27.414 0 0 1 2.505 7.377c.253 1.364.444 2.742.45 4.135 0 .092.021.19.028.28v1.66c-.028.106-.028.218-.035.331 0 .267 0 .535-.021.802a29.24 29.24 0 0 1-.816 5.042 27.742 27.742 0 0 1-3.92 8.671 27.968 27.968 0 0 1-4.712 5.352 28.007 28.007 0 0 1-5.889 3.98 27.825 27.825 0 0 1-10.89 2.932c-.277.032-.573.025-.861.087z" opacity=".2"/>
    <path d="M32.856 60h-1.66a.665.665 0 0 0-.232-.035 30.174 30.174 0 0 1-2.638-.232 27.255 27.255 0 0 1-4.798-1.069 28.137 28.137 0 0 1-7.491-3.692 27.803 27.803 0 0 1-5.698-5.274c-1.95-2.377-3.468-5-4.545-7.884a27.446 27.446 0 0 1-1.717-7.946c0-.148-.028-.296-.077-.443v-2.89c.049-.128.07-.261.077-.395a27.622 27.622 0 0 1 2.969-10.845 27.934 27.934 0 0 1 3.587-5.394A28.083 28.083 0 0 1 15.318 9.5a27.77 27.77 0 0 1 9.313-4.536 27.794 27.794 0 0 1 5.03-.886c.302-.028.62 0 .921-.077h2.842c.218.063.443.028.661.049 1.126.098 2.244.24 3.355.457a27.67 27.67 0 0 1 9.736 3.93 27.966 27.966 0 0 1 6.177 5.409 27.505 27.505 0 0 1 3.664 5.506 27.414 27.414 0 0 1 2.505 7.377c.253 1.364.444 2.742.45 4.135 0 .092.021.19.028.28v1.66c-.028.106-.028.218-.035.331 0 .267 0 .535-.021.802a29.24 29.24 0 0 1-.816 5.042 27.742 27.742 0 0 1-3.92 8.671 27.968 27.968 0 0 1-4.712 5.352 28.007 28.007 0 0 1-5.889 3.98 27.825 27.825 0 0 1-10.89 2.932c-.277.032-.573.025-.861.087z" fill="#504945"/>
    <path d="M42.895 46.998a6.07 6.07 0 0 1-1.412-.144c-1.446-.317-2.673-.974-3.616-2.139a13.273 13.273 0 0 1-1.472-2.29 24.124 24.124 0 0 1-1.253-2.954 32.12 32.12 0 0 1-1.09-3.718c-.157-.704.02-1.145.8-1.388a36.22 36.22 0 0 1 3.001-.81c1.683-.368 3.378-.605 5.108-.546.488.02.976.072 1.458.157a6.29 6.29 0 0 1 3.556 1.909c1.657 1.737 2.316 3.81 1.907 6.172-.587 3.376-3.583 5.778-6.987 5.751zM21.105 46.998a6.07 6.07 0 0 0 1.412-.144c1.446-.317 2.673-.974 3.616-2.139.574-.71 1.056-1.48 1.472-2.29.489-.954.897-1.948 1.253-2.954a32.12 32.12 0 0 0 1.09-3.718c.157-.704-.02-1.145-.8-1.388a36.22 36.22 0 0 0-3.001-.81c-1.683-.368-3.378-.605-5.108-.546-.488.02-.976.072-1.458.157a6.29 6.29 0 0 0-3.556 1.909c-1.657 1.737-2.316 3.81-1.907 6.172.587 3.376 3.583 5.778 6.987 5.751z" opacity=".2"/>
    <path d="M21.105 45.998a6.07 6.07 0 0 0 1.412-.144c1.446-.317 2.673-.974 3.616-2.139.574-.71 1.056-1.48 1.472-2.29.489-.954.897-1.948 1.253-2.954a32.12 32.12 0 0 0 1.09-3.718c.157-.704-.02-1.145-.8-1.388a36.22 36.22 0 0 0-3.001-.81c-1.683-.368-3.378-.605-5.108-.546-.488.02-.976.072-1.458.157a6.29 6.29 0 0 0-3.556 1.909c-1.657 1.737-2.316 3.81-1.907 6.172.587 3.376 3.583 5.778 6.987 5.751z" fill="#B7BB25"/>
    <path d="M25.003 21.382c-.02.515.071 1.077.223 1.64.289 1.07.767 2.05 1.332 2.977 1.285 2.107 2.906 3.91 4.664 5.585.144.138.316.254.5.343a.616.616 0 0 0 .557.013c.183-.082.347-.198.485-.35.61-.63 1.214-1.263 1.791-1.915a31.034 31.034 0 0 0 2.29-2.901c.637-.927 1.207-1.901 1.627-2.958.42-1.05.623-2.133.485-3.272-.23-1.88-.997-3.472-2.368-4.72-1.622-1.474-3.51-2.064-5.636-1.736-3.457.536-5.964 3.72-5.95 7.294z" opacity=".2"/>
    <path d="M25.003 20.382c-.02.515.071 1.077.223 1.64.289 1.07.767 2.05 1.332 2.977 1.285 2.107 2.906 3.91 4.664 5.585.144.138.316.254.5.343a.616.616 0 0 0 .557.013c.183-.082.347-.198.485-.35.61-.63 1.214-1.263 1.791-1.915a31.034 31.034 0 0 0 2.29-2.901c.637-.927 1.207-1.901 1.627-2.958.42-1.05.623-2.133.485-3.272-.23-1.88-.997-3.472-2.368-4.72-1.622-1.474-3.51-2.064-5.636-1.736-3.457.536-5.964 3.72-5.95 7.294z" fill="#48B9C7"/>
    <path d="M42.895 45.998a6.07 6.07 0 0 1-1.412-.144c-1.446-.317-2.673-.974-3.616-2.139a13.273 13.273 0 0 1-1.472-2.29 24.124 24.124 0 0 1-1.253-2.954 32.12 32.12 0 0 1-1.09-3.718c-.157-.704.02-1.145.8-1.388a36.22 36.22 0 0 1 3.001-.81c1.683-.368 3.378-.605 5.108-.546.488.02.976.072 1.458.157a6.29 6.29 0 0 1 3.556 1.909c1.657 1.737 2.316 3.81 1.907 6.172-.587 3.376-3.583 5.778-6.987 5.751z" fill="#FA4934"/>
    <path d="M30.582 4c-.302.077-.62.048-.922.076a27.795 27.795 0 0 0-5.03.887 27.762 27.762 0 0 0-9.312 4.535 28.089 28.089 0 0 0-8.271 9.797 27.628 27.628 0 0 0-2.97 10.846 1.278 1.278 0 0 1-.077.394v1c.049-.127.07-.261.076-.394a27.628 27.628 0 0 1 2.97-10.846 28.089 28.089 0 0 1 8.271-9.797 27.762 27.762 0 0 1 9.314-4.535 27.795 27.795 0 0 1 5.03-.887c.301-.028.619.001.921-.076h2.842c.218.063.444.028.662.049 1.126.098 2.243.24 3.353.457 3.497.69 6.74 1.999 9.737 3.931a27.957 27.957 0 0 1 6.176 5.407 27.522 27.522 0 0 1 3.666 5.508 27.412 27.412 0 0 1 2.503 7.377c.253 1.364.445 2.742.452 4.134 0 .093.02.19.027.282v-1c-.007-.091-.027-.19-.027-.282-.007-1.392-.199-2.77-.452-4.134a27.412 27.412 0 0 0-2.503-7.377c-1-1.983-2.224-3.82-3.666-5.508a27.957 27.957 0 0 0-6.176-5.406 27.674 27.674 0 0 0-9.737-3.932 31.662 31.662 0 0 0-3.353-.457c-.218-.021-.444.014-.662-.049h-2.842zM21.04 32.008c-.49.02-.978.072-1.46.158a6.287 6.287 0 0 0-3.555 1.908c-1.463 1.535-2.146 3.334-2.004 5.362.112-1.623.786-3.084 2.004-4.362a6.287 6.287 0 0 1 3.555-1.908c.482-.086.97-.139 1.46-.158 1.729-.058 3.424.178 5.106.547 1.017.224 2.013.501 3.002.81.404.126.64.308.758.55.013-.055.03-.107.041-.161.158-.704-.02-1.146-.799-1.389-.989-.309-1.985-.586-3.002-.81-1.682-.369-3.377-.605-5.107-.547z" fill="#F9F5D7" opacity=".1"/>
    <path d="M31.738 13.008c-.258.012-.52.039-.785.08-3.457.536-5.964 3.72-5.951 7.295-.005.13.017.268.025.402.25-3.326 2.663-6.191 5.926-6.697 2.126-.329 4.015.262 5.637 1.736 1.371 1.249 2.137 2.842 2.367 4.72.008.066.004.13.01.194.032-.392.04-.788-.01-1.193-.23-1.88-.996-3.472-2.367-4.72-1.419-1.29-3.044-1.904-4.852-1.817zM42.96 32.008c-1.729-.058-3.424.178-5.106.547a36.218 36.218 0 0 0-3.002.81c-.78.243-.957.685-.8 1.389.013.054.03.106.042.16.118-.241.354-.423.758-.549.989-.309 1.985-.586 3.002-.81 1.682-.369 3.377-.605 5.107-.547.489.02.977.072 1.459.158a6.287 6.287 0 0 1 3.555 1.908c1.218 1.278 1.892 2.739 2.004 4.362.142-2.028-.54-3.827-2.004-5.362a6.287 6.287 0 0 0-3.555-1.908c-.482-.086-.97-.139-1.46-.158z" fill="#F9F5D7" opacity=".1"/>
</svg>
