<svg xmlns="http://www.w3.org/2000/svg" width="64" height="64">
    <path d="M2 5c2.361 3.305 4.063 9.66 4.988 16.977A30 20 0 0 0 2 33a30 20 0 0 0 5.27 11.281C6.492 51.49 4.8 57.733 2 61c8.138 0 15.443-3.492 20.559-9.035A30 20 0 0 0 32 53a30 20 0 0 0 30-20 30 20 0 0 0-30-20 30 20 0 0 0-9.434 1.043C17.45 8.495 10.142 5 2 5z" opacity=".2"/>
    <path d="M30 32c0 15.464-12.536 28-28 28 8.4-9.8 7-46.2 0-56 15.464 0 28 12.536 28 28z" fill="#CB241D"/>
    <ellipse cx="32" cy="32" rx="30" ry="20" fill="#CB241D"/>
    <path d="M32 17c-7.564 0-14.348 2.088-18.996 5.187C8.358 25.284 6 29.095 6 32.995c.01 2.818 1.253 5.697 4.05 8.414a4 4 0 0 1 1.192 3.301c-.432 4.005-1.079 7.744-2.14 11.086 4.056-1.272 7.69-3.48 10.515-6.543a4 4 0 0 1 3.813-1.191c2.748.613 5.653.932 8.578.937 7.56-.001 14.342-2.09 18.988-5.187C55.644 40.713 58 36.9 58 32.999c0-3.901-2.356-7.714-7.004-10.812-4.648-3.099-11.432-5.188-18.996-5.188z" opacity=".2"/>
    <path d="M32 16c-7.564 0-14.348 2.09-18.996 5.188C8.358 24.285 6 28.096 6 31.995c.01 2.818 1.253 5.696 4.05 8.414a4 4 0 0 1 1.192 3.3c-.432 4.006-1.079 7.745-2.14 11.087 4.056-1.272 7.69-3.48 10.515-6.543a4 4 0 0 1 3.813-1.191c2.748.613 5.653.931 8.578.937 7.56-.002 14.342-2.09 18.988-5.188C55.644 39.715 58 35.903 58 32c0-3.902-2.356-7.714-7.004-10.813C46.348 18.09 39.564 16 32 16z" fill="#F9F5D7"/>
    <path d="M20 29a4 4 0 0 0-4 4 4 4 0 0 0 4 4 4 4 0 0 0 4-4 4 4 0 0 0-4-4zm12 0a4 4 0 0 0-4 4 4 4 0 0 0 4 4 4 4 0 0 0 4-4 4 4 0 0 0-4-4zm12 0a4 4 0 0 0-4 4 4 4 0 0 0 4 4 4 4 0 0 0 4-4 4 4 0 0 0-4-4z" opacity=".2"/>
    <path d="M20 28a4 4 0 0 0-4 4 4 4 0 0 0 4 4 4 4 0 0 0 4-4 4 4 0 0 0-4-4zm12 0a4 4 0 0 0-4 4 4 4 0 0 0 4 4 4 4 0 0 0 4-4 4 4 0 0 0-4-4zm12 0a4 4 0 0 0-4 4 4 4 0 0 0 4 4 4 4 0 0 0 4-4 4 4 0 0 0-4-4z" fill="#CB241D"/>
    <path d="M2 4c.218.305.422.663.629 1.018a27.917 27.917 0 0 1 19.965 9.017A30 20 0 0 1 32 13a30 20 0 0 1 29.969 19.59A30 20 0 0 0 62 32a30 20 0 0 0-30-20 30 20 0 0 0-9.406 1.035C17.477 7.482 10.146 4 2 4zm4.867 17.115A30 20 0 0 0 2 32a30 20 0 0 0 .035.455A30 20 0 0 1 6.99 21.98c-.037-.293-.083-.574-.123-.864zm.305 23.065C6.352 51.006 4.684 56.87 2 60c.257 0 .512-.015.768-.021 2.345-3.45 3.812-9.16 4.515-15.68a30 20 0 0 1-.111-.12z" opacity=".2" fill="#F9F5D7"/>
</svg>
