<svg xmlns="http://www.w3.org/2000/svg" width="64" height="64">
    <path d="M32 4C15.934 4 3 16.934 3 33c0 16.066 12.934 29 29 29 16.066 0 29-12.934 29-29C61 16.934 48.066 4 32 4z" opacity=".2"/>
    <path d="M32 3C15.934 3 3 15.934 3 32c0 16.066 12.934 29 29 29 16.066 0 29-12.934 29-29C61 15.934 48.066 3 32 3z" fill="#F9F5D7"/>
    <circle cx="45.961" cy=".707" r="21" transform="rotate(45)" opacity=".1"/>
    <circle cx="45.254" r="21" transform="rotate(45)" fill="#504945"/>
    <path d="M44.728 20.272a18.022 18.022 0 0 0-5.602-3.8l-7.833 17.235 17.236-7.833a18.022 18.022 0 0 0-3.801-5.602z" opacity=".2"/>
    <path d="M44.728 19.272a18.022 18.022 0 0 0-5.602-3.8l-7.833 17.235 17.236-7.833a18.022 18.022 0 0 0-3.801-5.602z" fill="#48B9C7"/>
    <circle cx="32" cy="17" r="3" opacity=".2"/>
    <circle cx="32" cy="16" r="3" fill="#B7BB25"/>
    <circle cx="32" cy="49" r="3" opacity=".2"/>
    <circle cx="32" cy="48" r="3" fill="#B7BB25"/>
    <circle cx="33" cy="-48" r="3" transform="rotate(90)" opacity=".2"/>
    <circle cx="32" cy="-48" r="3" transform="rotate(90)" fill="#B7BB25"/>
    <circle cx="33" cy="-16" r="3" transform="rotate(90)" opacity=".2"/>
    <circle cx="32" cy="-16" r="3" transform="rotate(90)" fill="#B7BB25"/>
    <path d="M32 3C15.934 3 3 15.934 3 32c0 .11.011.219.018.328C3.374 16.576 16.159 4 32 4c15.84 0 28.626 12.576 28.982 28.328.007-.11.018-.217.018-.328C61 15.934 48.066 3 32 3z" opacity=".2" fill="#F9F5D7"/>
</svg>
