<svg xmlns="http://www.w3.org/2000/svg" width="64" height="64" version="1">
    <path d="M27.91 8A20.454 20 0 0 0 7.454 28a20.454 20 0 0 0 .685 5.088C4.502 34.834 2 38.514 2 42.802v2.396C2 51.182 6.861 56 12.898 56h38.204C57.138 56 62 51.182 62 45.198v-2.396c0-4.534-2.794-8.394-6.773-10a12.273 12 0 0 0 2.682-7.468 12.273 12 0 0 0-12.274-12 12.273 12 0 0 0-3.352.46 20.454 20 0 0 0-14.374-5.793z" fill="#48B9C7"/>
    <path d="M32 19a16 16 0 0 0-16 16 16 16 0 0 0 16 16 16 16 0 0 0 16-16 16 16 0 0 0-16-16zm0 4a12 12 0 0 1 12 12 12 12 0 0 1-12 12 12 12 0 0 1-12-12 12 12 0 0 1 12-12z" opacity=".2"/>
    <path d="M32 18a16 16 0 0 0-16 16 16 16 0 0 0 16 16 16 16 0 0 0 16-16 16 16 0 0 0-16-16zm0 4a12 12 0 0 1 12 12 12 12 0 0 1-12 12 12 12 0 0 1-12-12 12 12 0 0 1 12-12z" fill="#48B9C7"/>
    <path d="M32 27a8 8 0 0 0-8 8 8 8 0 0 0 8 8 8 8 0 0 0 8-8 8 8 0 0 0-8-8z" opacity=".2"/>
    <path d="M32 26a8 8 0 0 0-8 8 8 8 0 0 0 8 8 8 8 0 0 0 8-8 8 8 0 0 0-8-8z" fill="#F9F5D7"/>
    <circle cx="19" cy="18" r="3" opacity=".2"/>
    <circle cx="19" cy="17" r="3" fill="#F9F5D7"/>
    <path d="M27.91 8A20.454 20 0 0 0 7.453 28a20.454 20 0 0 0 .022.408A20.454 20 0 0 1 27.91 9a20.454 20 0 0 1 14.373 5.795 12.273 12 0 0 1 3.352-.461 12.273 12 0 0 1 12.252 11.568 12.273 12 0 0 0 .02-.568 12.273 12 0 0 0-12.272-12 12.273 12 0 0 0-3.352.461A20.454 20 0 0 0 27.91 8zm27.871 25.049a12.273 12 0 0 1-.554.754c3.979 1.606 6.773 5.465 6.773 10v-1c0-4.32-2.538-8.024-6.219-9.754zm-47.855.15C4.406 34.985 2 38.6 2 42.803v1c0-4.288 2.502-7.969 6.139-9.715a20.454 20 0 0 1-.213-.889z" opacity=".2" fill="#F9F5D7"/>
    <path d="M57.887 25.902a12.273 12 0 0 1-2.66 6.9c.188.076.372.16.554.246a12.273 12 0 0 0 2.127-6.714 12.273 12 0 0 0-.021-.432zM7.475 28.408a20.454 20 0 0 0-.021.592 20.454 20 0 0 0 .472 4.199c.072-.036.14-.077.213-.111a20.454 20 0 0 1-.664-4.68zM2 45.197v1C2 52.181 6.862 57 12.898 57h38.204C57.138 57 62 52.181 62 46.197v-1C62 51.181 57.138 56 51.102 56H12.898C6.862 56 2 51.181 2 45.197z" opacity=".2"/>
</svg>
