<svg xmlns="http://www.w3.org/2000/svg" width="64" height="64" version="1">
    <rect width="56" height="56" x="-60" y="4" rx="28" ry="28" transform="rotate(-90)" fill="#B57514"/>
    <path d="M28.985 19c6.05 0 11.048 4.948 11.048 10.997 0 2.3-.778 4.415-1.998 6.186l7.365 7.374a2.008 2.01 0 0 1-2.808 2.874l-7.365-7.373a11.003 11.003 0 0 1-6.242 1.937C22.935 40.995 18 36.047 18 29.997 18 23.948 22.936 19 28.985 19zm0 3.999a6.96 6.96 0 0 0-6.99 6.998 6.96 6.96 0 0 0 6.99 6.999 6.96 6.96 0 0 0 6.99-6.999A6.96 6.96 0 0 0 28.986 23z" opacity=".2"/>
    <path d="M32 4c15.512 0 28 12.488 28 28 0 .114-.011.224-.018.336C59.631 17.134 47.29 5 32 5S4.37 17.134 4.018 32.336C4.01 32.224 4 32.113 4 32 4 16.488 16.488 4 32 4z" opacity=".2" fill="#F9F5D7"/>
    <path d="M28.985 18c6.05 0 11.048 4.948 11.048 10.997 0 2.3-.778 4.415-1.998 6.186l7.365 7.374a2.008 2.01 0 0 1-2.808 2.874l-7.365-7.373a11.003 11.003 0 0 1-6.242 1.937C22.935 39.995 18 35.047 18 28.997 18 22.948 22.936 18 28.985 18zm0 4a6.96 6.96 0 0 0-6.99 6.997 6.96 6.96 0 0 0 6.99 6.999 6.96 6.96 0 0 0 6.99-6.999A6.96 6.96 0 0 0 28.986 22z" fill="#FECE4F"/>
    <path d="M4.018 32.664C4.369 47.866 16.71 60 32 60c15.288 0 27.629-12.132 27.982-27.332.007.11.018.22.018.332 0 15.512-12.488 28-28 28S4 48.512 4 33c0-.113.011-.224.018-.336z" opacity=".2"/>
</svg>
