<svg xmlns="http://www.w3.org/2000/svg" width="64" height="64">
    <path d="M50.003 5.005c-7.825.091-19.898 2.284-23.672 6.816h-.011c-3.011 4.413-3.392 21.681-2.61 20.617 6.409-8.766 21.768-19.594 30.942-23.945 4.953-2.36 1.437-3.56-4.649-3.488zm-29.23 9.863c-1.977.339-9.913 5.853-8.086 15.762l.004.004c1.735 5.062 12.845 11.794 12.46 10.527-3.155-10.449-4.296-17.211-3.944-26.12.006-.166-.152-.221-.434-.173zm21.672 4.438c-5.296.384-14.61 9.474-13.301 9.421 10.833-.376 17.599.247 26.05 2.895 1.254.392-1.353-11.426-12.75-12.316zm-5.73 9.46c-.276.016-.395.092-.302.227 6.19 8.964 9.34 15.032 11.723 23.625.354 1.275 8.786-7.347 3.34-17.477-2.792-3.743-12.795-6.475-14.758-6.374h-.004zM8.03 30.475c-1.019-.136-3.409 11.08 6.11 16.78 4.92 2.023 17.263-1.96 16.065-2.511-9.878-4.488-15.67-8.083-22.085-14.223a.153.153 0 0 0-.09-.046zm31.91 5.476c-.061-.016-.105.014-.125.094-2.743 10.57-5.274 16.93-10.203 24.34-.737 1.093 11.243 1.962 15.343-8.797l.004.004c1.078-4.903-4.101-15.399-5.02-15.64zm-3.012 6.754c-.025-.006-.053-.002-.09.016-9.78 4.714-16.233 6.874-25.039 7.847-1.3.15 5.768 9.94 16.57 6.16l.012-.004c4.555-2.411 9.327-13.822 8.551-14.02h-.004z" opacity=".2"/>
    <path d="M50.001 4.003c-7.825.091-19.897 2.284-23.671 6.816h-.008c-3.012 4.413-3.395 21.682-2.613 20.618 6.409-8.767 21.769-19.594 30.943-23.945 4.953-2.36 1.436-3.56-4.65-3.489zm-7.555 14.3c-5.297.385-14.612 9.475-13.304 9.423 10.833-.377 17.6.248 26.051 2.896 1.254.392-1.351-11.428-12.747-12.318zm-5.73 9.464c-.28.015-.395.089-.3.224 6.19 8.964 9.335 15.035 11.718 23.628.354 1.274 8.789-7.348 3.342-17.478-2.793-3.745-12.803-6.477-14.76-6.374zm3.223 7.183c-.061-.016-.105.013-.125.093-2.742 10.57-5.274 16.933-10.202 24.341-.737 1.094 11.246 1.961 15.346-8.799l.003.006c1.077-4.903-4.103-15.4-5.021-15.642zm-3.008 6.754c-.026-.006-.056-.001-.093.016-9.78 4.715-16.232 6.874-25.038 7.848-1.3.15 5.768 9.937 16.57 6.157l.01-.002c4.556-2.412 9.328-13.823 8.551-14.02z" fill="#48B9C7"/>
    <path d="M20.771 13.868c-1.977.339-9.911 5.853-8.084 15.761l.003.006c1.735 5.062 12.847 11.791 12.463 10.524-3.156-10.449-4.297-17.208-3.945-26.118.007-.165-.154-.22-.436-.172zM8.03 29.473c-1.02-.136-3.407 11.082 6.111 16.782 4.922 2.022 17.262-1.962 16.065-2.512-9.88-4.489-15.669-8.082-22.084-14.221a.163.163 0 0 0-.092-.05z" fill="#504945"/>
    <path d="M50.002 4.002c-7.825.091-19.898 2.286-23.672 6.818h-.008c-2.305 3.378-3.067 14.262-2.949 18.717-.001-4.893.794-14.56 2.95-17.719h.007c3.774-4.532 15.847-6.725 23.672-6.816 3.41-.04 6.01.32 6.77 1.059 1.073-1.408-2.074-2.112-6.77-2.057v-.002zm-7.557 14.3c-5.296.385-14.61 9.477-13.302 9.425.157-.006.295-.007.45-.012 1.966-2.361 8.66-8.108 12.852-8.412 9.003.703 12.507 8.208 12.97 11.144.517-1.38-2.537-11.33-12.97-12.144zm-5.58 10.354l.086.131c2.318.048 11.808 2.71 14.526 6.354 1.196 2.225 1.72 4.378 1.81 6.369.062-2.263-.41-4.764-1.81-7.37-1.65-2.21-5.8-4.047-9.338-5.177a75.93 75.93 0 0 0-5.274-.307zm3.074 6.293c-.06-.016-.104.014-.125.094-2.742 10.57-5.274 16.933-10.203 24.342-.1.15.055.292.38.404 4.67-7.156 7.156-13.463 9.823-23.746.02-.08.064-.11.125-.094.804.212 4.87 8.274 5.153 13.57.26-5.209-4.297-14.344-5.153-14.57zm-3.01 6.754c-.024-.006-.054 0-.091.018-9.781 4.714-16.231 6.874-25.037 7.847-.248.03-.189.411.14.98 8.732-.98 15.17-3.139 24.897-7.827.008-.004.012-.002.02-.004.165-.596.207-.98.074-1.014h-.002z" fill="#F9F5D7" opacity=".2"/>
    <path d="M20.771 13.87c-1.792.306-8.46 4.881-8.328 13.118.39-7.611 6.609-11.826 8.328-12.12v.001c.236-.04.38-.004.42.104.01-.314.005-.613.018-.932.007-.165-.155-.22-.438-.172zm.387 3.833c-.035 7.41 1.102 13.689 3.742 22.584.184.03.292.002.252-.129-2.71-8.97-3.925-15.227-3.994-22.455zM8.03 29.473c-.429-.057-1.093 1.91-1.015 4.62.085-2.18.64-3.67 1.015-3.62.033.004.063.02.092.048 6.25 5.981 11.935 9.55 21.356 13.88.659-.305.965-.55.728-.659a144.192 144.192 0 0 1-5.103-2.443c-.34.132-2.146-.82-4.27-2.266-4.79-2.73-8.629-5.605-12.71-9.512a.161.161 0 0 0-.093-.048z" fill="#F9F5D7" opacity=".1"/>
</svg>
