<svg xmlns="http://www.w3.org/2000/svg" width="64" height="64" version="1">
    <rect width="56" height="56" x="4" y="5" rx="2.8" ry="2.8" opacity=".2"/>
    <rect width="56" height="56" x="4" y="4" rx="2.8" ry="2.8" fill="#066678"/>
    <path d="M6.8 4C5.25 4 4 5.25 4 6.8v1C4 6.25 5.25 5 6.8 5h50.4C58.75 5 60 6.25 60 7.8v-1C60 5.25 58.75 4 57.2 4H6.8z" opacity=".2" fill="#F9F5D7"/>
    <path d="M32 15c-5.64 0-10 4.587-10 10.285V30h-2.219c-.986 0-1.781.945-1.781 1.941V49.2c0 .996.795 1.801 1.781 1.801H44.22c.986 0 1.781-.805 1.781-1.8V31.94c0-.996-.797-2.005-1.781-1.941H42v-4.713C42 19.59 37.64 15 32 15zm0 4c3.525 0 6 2.724 6 6.285V30H26v-4.715C26 21.723 28.474 19 32 19zm0 14a5 5 0 0 1 5 5 5 5 0 0 1-3 4.576V46c0 1.108-.892 2-2 2s-2-.892-2-2v-3.42A5 5 0 0 1 27 38a5 5 0 0 1 5-5z" opacity=".2"/>
    <path d="M32 14c-5.64 0-10 4.587-10 10.285V29h-2.219c-.986 0-1.781.945-1.781 1.941V48.2c0 .996.795 1.801 1.781 1.801H44.22c.986 0 1.781-.805 1.781-1.8V30.94c0-.996-.797-2.005-1.781-1.941H42v-4.713C42 18.59 37.64 14 32 14zm0 4c3.525 0 6 2.724 6 6.285V29H26v-4.715C26 20.723 28.474 18 32 18zm0 14a5 5 0 0 1 5 5 5 5 0 0 1-3 4.576V45c0 1.108-.892 2-2 2s-2-.892-2-2v-3.42A5 5 0 0 1 27 37a5 5 0 0 1 5-5z" fill="#F9F5D7"/>
</svg>
