<svg xmlns="http://www.w3.org/2000/svg" width="64" height="64" version="1">
    <path d="M4 56.2v2C4 59.75 5.25 61 6.8 61h50.4c1.55 0 2.8-1.25 2.8-2.8v-2c0 1.55-1.25 2.8-2.8 2.8H6.8C5.25 59 4 57.75 4 56.2z" opacity=".2"/>
    <rect width="56" height="56" x="4" y="4" rx="2.8" ry="2.8" fill="#D55C0D"/>
    <path d="M34.07 21c-4.192.006-8.02 2.296-9.88 5.91a5.682 5.682 0 0 0-2.534-.6c-3.047 0-5.52 2.376-5.52 5.308.002.185.013.37.035.554-2.437.944-4.171 3.342-4.171 6.192C12 42.04 14.87 45 18.437 45h25.746a6.25 6.25 0 0 0 1.652-.246c3.575-.656 6.162-3.662 6.164-7.164-.003-3.817-3.063-6.987-7.02-7.273l.024-.024C44.31 24.987 39.627 21.006 34.07 21zM32 27l4 4 4 4h-6v8h-4v-8h-6l4-4 4-4z" opacity=".2"/>
    <path d="M34.07 20c-4.192.006-8.02 2.296-9.878 5.91a5.7 5.7 0 0 0-2.536-.602c-3.047 0-5.52 2.378-5.52 5.31.002.184.014.37.036.554-2.438.944-4.172 3.342-4.172 6.192C12 41.04 14.87 44 18.437 44h25.746c.574 0 1.122-.102 1.652-.246 3.574-.656 6.162-3.662 6.164-7.164-.002-3.818-3.064-6.988-7.02-7.274l.024-.024c-.694-5.304-5.376-9.286-10.934-9.292zM32 26l4 4 4 4h-6v8h-4v-8h-6l4-4 4-4z" fill="#F9F5D7"/>
    <path d="M6.8 4C5.25 4 4 5.25 4 6.8v1C4 6.25 5.25 5 6.8 5h50.4C58.75 5 60 6.25 60 7.8v-1C60 5.25 58.75 4 57.2 4H6.8z" opacity=".2" fill="#F9F5D7"/>
</svg>
