<svg xmlns="http://www.w3.org/2000/svg" width="64" height="64" version="1">
    <rect width="56" height="56" x="4" y="5" rx="2.8" ry="2.8" opacity=".2"/>
    <rect width="56" height="56" x="4" y="4" rx="2.8" ry="2.8" fill="#066678"/>
    <path d="M42.078 11.998a4.124 4.124 0 0 0-2.797 1.055c-1.348 1.232-1.674 3.324-.773 4.94.506.91 1.799 1.795 2.86 1.958 2.416.37 4.632-1.522 4.632-3.957 0-1.513-1.001-3.06-2.375-3.668a3.897 3.897 0 0 0-1.547-.328zm7.899 7.976a2 2 0 0 0-1.512.743l-3.598 4.32-4.453-4.453A2 2 0 0 0 39 19.998h-9.8a2 2 0 0 0-1.512.691l-5.2 6c-1.851 2.023 1.287 4.74 3.024 2.617l4.601-5.308h2.203l-6.554 8.113-3.496 3.887H13c-4.057-.058-4.057 6.057 0 6h10.602a3 3 0 0 0 2.226-.992l3.567-3.961 4.347 3.258-2.703 10.203c-.657 3.948 5.266 4.933 5.922.984l3-12a3 3 0 0 0-1.16-2.89l-4.25-3.188 5.824-7.211 3.21 3.21a2 2 0 0 0 2.95-.132l5-6c1.13-1.312.172-3.342-1.558-3.305z" opacity=".2"/>
    <path d="M42.077 10.98a4.117 4.117 0 0 0-2.795 1.052c-1.348 1.233-1.677 3.327-.776 4.944.507.909 1.801 1.794 2.862 1.956 2.417.37 4.632-1.522 4.632-3.957 0-1.513-1-3.058-2.374-3.667a3.907 3.907 0 0 0-1.549-.329z" fill="#F9F5D7"/>
    <path d="M24 26.979l5.2-6H39l6 6 5-6" stroke-linejoin="round" stroke="#F9F5D7" stroke-linecap="round" stroke-width="4" fill="none"/>
    <path d="M13 37.979h10.6l5.4-6 8 6-3 12" stroke-linejoin="round" stroke="#F9F5D7" stroke-linecap="round" stroke-width="6" fill="none"/>
    <path fill="#F9F5D7" d="M25.395 31.543l10.01-12.39 6.101 4.627-10.01 12.39z"/>
    <path d="M6.8 4C5.25 4 4 5.25 4 6.8v1C4 6.25 5.25 5 6.8 5h50.4C58.75 5 60 6.25 60 7.8v-1C60 5.25 58.75 4 57.2 4H6.8z" opacity=".2" fill="#F9F5D7"/>
</svg>
