<svg xmlns="http://www.w3.org/2000/svg" width="64" height="64" version="1">
    <path d="M2.05 36.39c-.026.352-.05.704-.05 1.064C2 45.486 8.716 52 17 52h31.876C56.124 52 62 46.302 62 39.274a12.5 12.5 0 0 0-.05-1.028C61.434 44.818 55.784 50 48.876 50H17C9.042 50 2.551 43.986 2.05 36.39z" opacity=".2"/>
    <path d="M32 11c-7.766 0-14.38 4.61-17.227 11.136C7.544 23.178 2 29.154 2 36.454 2 44.488 8.716 51 17 51h31.876C56.124 51 62 45.302 62 38.272c0-6.532-5.066-11.886-11.602-12.612C48.694 17.32 41.1 11 32 11z" fill="#48B9C7"/>
    <path d="M32 11c-7.766 0-14.38 4.612-17.227 11.137C7.544 23.179 2 29.153 2 36.453c0 .158.015.313.025.469.264-7.055 5.697-12.769 12.748-13.785C17.62 16.612 24.234 12 32 12c9.1 0 16.692 6.32 18.396 14.66 6.36.707 11.316 5.801 11.579 12.094.009-.16.025-.319.025-.48 0-6.533-5.068-11.888-11.604-12.614C48.692 17.32 41.1 11 32 11z" opacity=".2" fill="#F9F5D7"/>
    <g opacity=".2">
        <path d="M26 24h12v10H26zM32 44l-5-5-5-5h19.999l-5 5z"/>
    </g>
    <path fill="#F9F5D7" d="M26 23h12v10H26zM32 43l-5-5-5-5h19.999l-5 5z"/>
</svg>
