<svg xmlns="http://www.w3.org/2000/svg" width="64" height="64" version="1">
    <path fill="#73C48F" d="M7.28 11.82h48.45v44.175H7.28z"/>
    <path fill="#F9F5D7" d="M30 8.05h3v28h-3zM19 8.05h3v28h-3zM41 8.05h3v28h-3z"/>
    <path d="M5.85 7C4.271 7 3 8.321 3 9.9V56h5.996V13h45.003v43H60V9.9C60 8.321 58.729 7 57.15 7z" fill="#504945"/>
    <circle cx="31.5" cy="38.5" r="5.5" opacity=".1"/>
    <circle cx="31.5" cy="37.5" r="5.5" fill="#3A393A"/>
    <path opacity=".2" d="M3 56h57v1H3zM9 13h45v1H9z"/>
    <circle cx="20.5" cy="38.5" r="5.5" opacity=".1"/>
    <circle cx="20.5" cy="37.5" r="5.5" fill="#3A393A"/>
    <circle cx="42.5" cy="38.5" r="5.5" opacity=".1"/>
    <circle cx="42.5" cy="37.5" r="5.5" fill="#3A393A"/>
    <path d="M5.855 7c-1.578 0-2.85 1.321-2.85 2.9v1c0-1.579 1.272-2.9 2.85-2.9H57.15C58.73 8 60 9.321 60 10.9v-1C60 8.321 58.73 7 57.15 7H5.855z" fill="#F9F5D7" opacity=".1"/>
</svg>
