<svg xmlns="http://www.w3.org/2000/svg" width="64" height="64">
    <rect width="57" height="57" x="-61" y="-61" rx="28.5" ry="28.5" transform="matrix(0 -1 -1 0 0 0)" opacity=".2"/>
    <rect width="57" height="57" x="-60" y="-61" rx="28.5" ry="28.5" transform="matrix(0 -1 -1 0 0 0)" fill="#73C48F"/>
    <path d="M31 14v4.08A14.5 14.5 0 0 0 18.22 30h3.064A11.5 11.5 0 0 1 32.5 21a11.5 11.5 0 0 1 11.21 9h3.058A14.5 14.5 0 0 0 34 18.084V14h-3zm1.5 10a8.5 8.5 0 0 0-8.5 8.5 8.5 8.5 0 0 0 .14 1.5h13.645a5.5 5.5 0 0 1-5.285 4 5.5 5.5 0 0 1-4.236-2h-3.5a8.5 8.5 0 0 0 7.736 5 8.5 8.5 0 0 0 8.5-8.5 8.5 8.5 0 0 0-.14-1.5H27.215a5.5 5.5 0 0 1 5.285-4 5.5 5.5 0 0 1 4.237 2h3.5a8.5 8.5 0 0 0-7.737-5zM18.233 35A14.5 14.5 0 0 0 31 46.916V51h3v-4.08A14.5 14.5 0 0 0 46.782 35h-3.065A11.5 11.5 0 0 1 32.5 44a11.5 11.5 0 0 1-11.209-9h-3.058z" opacity=".2"/>
    <path d="M31 13v4.08A14.5 14.5 0 0 0 18.22 29h3.064A11.5 11.5 0 0 1 32.5 20a11.5 11.5 0 0 1 11.21 9h3.058A14.5 14.5 0 0 0 34 17.084V13h-3zm1.5 10a8.5 8.5 0 0 0-8.5 8.5 8.5 8.5 0 0 0 .14 1.5h13.645a5.5 5.5 0 0 1-5.285 4 5.5 5.5 0 0 1-4.236-2h-3.5a8.5 8.5 0 0 0 7.736 5 8.5 8.5 0 0 0 8.5-8.5 8.5 8.5 0 0 0-.14-1.5H27.215a5.5 5.5 0 0 1 5.285-4 5.5 5.5 0 0 1 4.237 2h3.5a8.5 8.5 0 0 0-7.737-5zM18.233 34A14.5 14.5 0 0 0 31 45.916V50h3v-4.08A14.5 14.5 0 0 0 46.782 34h-3.065A11.5 11.5 0 0 1 32.5 43a11.5 11.5 0 0 1-11.209-9h-3.058z" fill="#F9F5D7"/>
    <path d="M32.5 3A28.438 28.438 0 0 0 4 31.5c0 .168.009.333.012.5C4.278 16.445 16.879 4 32.5 4c15.621 0 28.222 12.445 28.488 28 .003-.167.012-.332.012-.5A28.438 28.438 0 0 0 32.5 3z" fill="#F9F5D7" opacity=".2"/>
</svg>
