<svg xmlns="http://www.w3.org/2000/svg" width="64" height="64" version="1">
    <rect width="48" height="34" x="8" y="3" rx="2.5" ry="2.5" fill="#066678"/>
    <rect width="48" height="34" x="8" y="8" rx="2.5" ry="2.5" opacity=".1"/>
    <rect width="48" height="34" x="8" y="9" rx="2.5" ry="2.5" fill="#7CB668"/>
    <rect width="48" height="34" x="8" y="14" rx="2.5" ry="2.5" opacity=".1"/>
    <rect width="48" height="34" x="8" y="15" rx="2.5" ry="2.5" fill="#FECE4F"/>
    <rect width="56" height="40" x="4" y="22" rx="3" ry="3" opacity=".2"/>
    <rect width="56" height="40" x="4" y="21" rx="3" ry="3" fill="#928274"/>
    <rect width="20" height="6" x="22" y="38" rx="2" ry="2" opacity=".2"/>
    <rect width="20" height="6" x="22" y="37" rx="2" ry="2" fill="#F9F5D7"/>
    <path d="M10.5 3A2.495 2.495 0 0 0 8 5.5v1C8 5.115 9.115 4 10.5 4h43C54.885 4 56 5.115 56 6.5v-1C56 4.115 54.885 3 53.5 3h-43zM10.5 9A2.495 2.495 0 0 0 8 11.5v1c0-1.385 1.115-2.5 2.5-2.5h43c1.385 0 2.5 1.115 2.5 2.5v-1c0-1.385-1.115-2.5-2.5-2.5zM10.5 15A2.495 2.495 0 0 0 8 17.5v1c0-1.385 1.115-2.5 2.5-2.5h43c1.385 0 2.5 1.115 2.5 2.5v-1c0-1.385-1.115-2.5-2.5-2.5z" fill="#F9F5D7" opacity=".1"/>
</svg>
