<svg xmlns="http://www.w3.org/2000/svg" width="64" height="64">
    <path d="M32 5A28 28 0 0 0 4 33a28 28 0 0 0 28 28 28 28 0 0 0 28-28A28 28 0 0 0 32 5z" opacity=".2"/>
    <path d="M32 4A28 28 0 0 0 4 32a28 28 0 0 0 28 28 28 28 0 0 0 28-28A28 28 0 0 0 32 4z" fill="#48B9C7"/>
    <path d="M23.094 19a1.996 1.485 0 0 0-.2.004 1.996 1.485 0 0 0-1.62.738L14.27 28.77A1.996 1.485 0 0 0 15.996 31H20v13.11c0 1.6 1.29 2.89 2.89 2.89h.22c1.6 0 2.89-1.29 2.89-2.89V31h4.004a1.996 1.485 0 0 0 1.726-2.23l-7.003-9.028A1.996 1.485 0 0 0 23.094 19zm17.797 0C39.29 19 38 20.29 38 21.89V35h-4.004a1.996 1.485 0 0 0-1.726 2.23l7.003 9.028a1.996 1.485 0 0 0 1.622.738 1.996 1.485 0 0 0 1.832-.738l7.003-9.028A1.996 1.485 0 0 0 48.004 35H44V21.89c0-1.6-1.29-2.89-2.89-2.89z" opacity=".2"/>
    <g transform="scale(2)" fill="#F9F5D7">
        <rect width="3" height="13" x="10" y="10" ry="1.444"/>
        <path d="M11.446 9.001a.998.743 0 0 0-.81.37l-3.502 4.515A.998.743 0 0 0 7.998 15h7.004a.998.743 0 0 0 .864-1.114L12.364 9.37a.998.743 0 0 0-.918-.37z"/>
    </g>
    <g transform="matrix(2 0 0 -2 18 64)" fill="#F9F5D7">
        <rect width="3" height="13" x="10" y="10" ry="1.444"/>
        <path d="M11.446 9.001a.998.743 0 0 0-.81.37l-3.502 4.515A.998.743 0 0 0 7.998 15h7.004a.998.743 0 0 0 .864-1.114L12.364 9.37a.998.743 0 0 0-.918-.37z"/>
    </g>
    <path d="M32 4A28 28 0 0 0 4 32a28 28 0 0 0 .021.406A28 28 0 0 1 32 5a28 28 0 0 1 27.979 27.578A28 28 0 0 0 60 32 28 28 0 0 0 32 4z" opacity=".2" fill="#F9F5D7"/>
</svg>
