<svg xmlns="http://www.w3.org/2000/svg" width="64" height="64" version="1">
    <path d="M59.958 31.828A28 28 0 0 1 32 59 28 28 0 0 1 4.044 32.172 28 28 0 0 0 4 33a28 28 0 0 0 28 28 28 28 0 0 0 28-28 28 28 0 0 0-.042-1.172z" opacity=".2"/>
    <circle cx="32" cy="32" r="28" fill="#48B9C7"/>
    <path d="M50 33a18 18 0 0 0-18-18 18 18 0 0 0-18 18 18 18 0 0 0 18 18 18 18 0 0 0 18-18zm-4 0a14 14 0 0 1-14 14 14 14 0 0 1-14-14 14 14 0 0 1 14-14 14 14 0 0 1 14 14zm-6 0c0-1.108-.892-2-2-2H26c-1.108 0-2 .892-2 2s.892 2 2 2h12c1.108 0 2-.892 2-2z" opacity=".2"/>
    <path d="M50 32a18 18 0 0 0-18-18 18 18 0 0 0-18 18 18 18 0 0 0 18 18 18 18 0 0 0 18-18zm-4 0a14 14 0 0 1-14 14 14 14 0 0 1-14-14 14 14 0 0 1 14-14 14 14 0 0 1 14 14zm-6 0c0-1.108-.892-2-2-2H26c-1.108 0-2 .892-2 2s.892 2 2 2h12c1.108 0 2-.892 2-2z" fill="#F9F5D7"/>
    <path d="M31.998 4A28 28 0 0 0 4 32a28 28 0 0 0 .018.492A28 28 0 0 1 31.998 5H32a28 28 0 0 1 27.973 27.5 28 28 0 0 0 .025-.5A28 28 0 0 0 32 4h-.002z" opacity=".2" fill="#F9F5D7"/>
</svg>
