<svg xmlns="http://www.w3.org/2000/svg" width="64" height="64" version="1">
    <path d="M57.938 26.124C57.26 39.26 42.548 59 29.652 59 17.345 59 6.689 41.024 6.039 27.204 5.664 41.218 16.739 61 29.652 61 42.854 61 58 40.292 58 27.184c0-.362-.044-.704-.062-1.058z" opacity=".2"/>
    <path d="M58 26.183c0 13.11-15.146 33.816-28.348 33.816S5.14 39.307 6.052 25.257c.618-9.546 12.192-21.48 18.944-21.254 2.266.226-1.811 2.553.907 1.795a24.078 24.078 0 0 1 6.477-.882C45.582 4.916 58 13.075 58 26.184z" fill="#3A393A"/>
    <path d="M52.07 27.964c0 9.888-2.688 22.318-12.588 28.706-3.224 2.08-6.586 3.33-9.83 3.33-2.656 0-5.236-.838-7.654-2.29-9.604-5.768-9.955-20.986-9.227-32.21 2.123-11.462 7.667-10.813 14.079-12.666 2.06-.574 7.712-.72 9.956-.72 13.202 0 15.265 2.74 15.265 15.85z" fill="#322F2E"/>
    <path d="M46.18 36.758c0 5.153-4.628 9.8-7.085 14.308-2.947 5.407-2.29 6.554-8.253 6.554-10.935 0-14.547-10.113-14.547-21.446 0-5.907.287-13.186 4.142-16.93 3.54-3.439 9.513-4.31 14.748-4.31 5.802 0 8.654 4.297 10.353 6.977 1.503 2.371.642 9.527.642 14.846z" fill="#D5C3A0"/>
    <g fill="#3A393A">
        <path d="M37.069 13.99a5.427 11.654 67.367 0 1-8.764 9.49 5.427 11.654 67.367 0 1-12.78-.596 5.427 11.654 67.367 0 1 8.764-9.49 5.427 11.654 67.367 0 1 12.78.596z"/>
        <path d="M37.078 14.911c2.143-2.066 7.919-3.36 12.333 1.386s3.402 17.482 1.259 19.548c-2.143 2.067-1.662-9.193-6.076-13.94s-9.659-4.928-7.516-6.994zM16.596 21.588c2.805 1.506 3.224 6.552.938 11.272-2.286 4.72.58 12.383-2.225 10.877-2.805-1.505-5.919-9.566-3.632-14.285 2.287-4.72 2.114-9.369 4.92-7.864z"/>
    </g>
    <path d="M35.176 14.169c.821 1.763-1.607 3.568-6.502 5.7-4.48 1.946-9.292 2.705-11.666 1.838.067.151.161.292.282.42 1.606 1.653 7.274 1.094 12.658-1.248 5.383-2.34 8.444-5.577 6.84-7.23-.24-.24-1.192.67-1.613.52z" opacity=".1" fill="#F9F5D7"/>
    <path d="M50.074 33.146c1.22-.424.332-3.604-1.046-6.684-.772-1.724-1.91-3.672-3.27-5.188-1.134-1.264-2.55-2.257-3.984-3.15-1.488-.929-2.838-1.6-4.736-2.265.16-.06 1.177-1.135 1.373-1.143 1.859-.047-1.864-1.547.517.775.916.893 6.504 2.937 8.702 5.634 1.872 2.297 2.55 5.424 3.282 8.319.325 1.286 2.281 3.91.475 3.957-.379.006-.82-.08-1.313-.255z" opacity=".1" fill="#F9F5D7"/>
    <path d="M56.062 23.575c.795 5.214-1.25 12.627-3.746 17.251-3.707 6.867-8.396 11.275-13.486 15.752 0 0 7.267-13.002 9.443-20.086 1.046-3.404 2.08-7.021 1.673-10.564-.306-2.658-1.168-4.802-3.118-6.594-1.63-1.5-4.045-2.397-6.215-2.746a26.066 26.066 0 0 0-7.158-.164c-3.591.425-7.385.902-10.5 2.77-1.692 1.015-3.267 2.518-4.058 4.347-1.99 4.6-1.822 10.08-1.036 15.04 1.023 6.457 7.02 19.898 7.02 19.898l-.339-.14s-3.42-1.611-6.162-4.385c-2.679-2.707-4.662-6.55-6.033-9.12-2.778-5.207-3.204-10.891-2.219-16.731.616-5.626 3.016-10.276 6.821-13.335 7.567-5.438 16.493-6.71 24.792-4.808 7.29 1.484 13.117 6.473 14.318 13.617z" stroke-linejoin="round" stroke="#3A393A" stroke-width=".968" stroke-linecap="round" fill="#448588"/>
    <rect width="8.044" height="1.5" x="20.94" y="39.18" rx=".992" ry="1.012" transform="matrix(.90028 -.43531 .41651 .90913 0 0)" fill="#322F2E"/>
    <rect width="7.158" height="1.44" x="27.72" y="18.02" rx=".884" ry=".972" transform="matrix(.93556 .35317 -.34569 .93835 0 0)" fill="#322F2E"/>
    <ellipse cx="23.256" cy="33.558" rx="1.868" ry="4.834" fill="#322F2E"/>
    <ellipse cx="36.388" cy="32.844" rx="1.984" ry="5.088" transform="matrix(.99995 -.00976 .06573 .99784 0 0)" fill="#322F2E"/>
    <path d="M34.534 38.132c.797.967 2.92 1.473 3.392 2.883.417 1.25-.09 2.796-.866 3.86-.45.614-1.212 1.105-1.97 1.148-1.152.065-2.827-.292-3.168-1.398-.091-.294.19-.697.485-.785.723-.218 1.329 1.157 2.057.955 1.293-.36 2.48-2.013 2.264-3.343-.2-1.239-2.418-1.162-2.982-2.282-.428-.85-.981-2.68-.048-2.858.237.526.483 1.378.836 1.82z" fill="#322F2E"/>
    <rect width="10.504" height="1.226" x="42.44" y="49.3" rx="1.296" ry=".828" transform="matrix(.99425 .10712 -.33376 .94266 0 0)" fill="#322F2E"/>
    <path d="M24.996 4.004C18.245 3.778 6.669 15.71 6.051 25.258c-.044.669-.05 1.358-.04 2.054.008-.354.017-.708.04-1.054.618-9.547 12.194-21.48 18.945-21.254.176.017.303.05.408.09.346-.476.6-.99-.408-1.09zm7.383.912c-2.245 0-4.417.306-6.477.88-.159.045-.224.047-.34.071-.401.67-1.36 1.404.34.93 2.06-.575 4.232-.881 6.477-.881 13.021 0 25.273 7.941 25.605 20.738.005-.156.016-.316.016-.47 0-13.11-12.42-21.268-25.621-21.268z" opacity=".1" fill="#F9F5D7"/>
</svg>
