<svg xmlns="http://www.w3.org/2000/svg" width="64" height="64">
    <rect width="56" height="56" x="4" y="5" rx="2.8" ry="2.8" opacity=".2"/>
    <rect width="56" height="56" x="4" y="4" rx="2.8" ry="2.8" fill="#3A393A"/>
    <path d="M21.883 4l8.588 22.933a8.4 8.4 0 0 0-2.534 1.499L4.399 5.375C4.151 5.794 4 6.276 4 6.8v8.597l21.883 15.679A8.4 8.4 0 0 0 25 34.8a8.4 8.4 0 0 0 .071 1L4 39.999v9.778l22.23-10.612a8.4 8.4 0 0 0 1.2 1.54L7.326 60h13.491l9.787-17.29a8.4 8.4 0 0 0 2.797.49 8.4 8.4 0 0 0 .547-.02L35.773 60h9.308l-7.84-17.732a8.4 8.4 0 0 0 1.475-.968L55.806 60H57.2c1.551 0 2.8-1.249 2.8-2.8v-8.791L41.138 38.065a8.4 8.4 0 0 0 .632-2.663L60 33.909V24.33l-18.793 7.377a8.4 8.4 0 0 0-1.313-2.225L60 8.129V6.8C60 5.249 58.751 4 57.2 4H43.93l-7.867 22.84a8.4 8.4 0 0 0-1.036-.279L37.548 4z" fill="#066678"/>
    <path d="M35.49 5l-.023.56c-.022.635-.493 12.094-.87 21.156-.137 3.31-.235 6.034-.218 6.052.017.017.042.02.055.008.014-.013 1.564-4.485 3.448-9.94C42.776 8.661 43.81 5.67 43.944 5.314l.12-.314zm-9.227 11.687s-5.977 4.986-6.026 5.116c-.02.052.976 1.074 2.92 2.994l6.264 6.19c1.823 1.801 3.335 3.274 3.358 3.274.024 0 .044-.022.044-.047h-.003c0-.025-1.228-3.347-2.731-7.383a7512.829 7512.829 0 0 1-3.246-8.728 23.335 23.335 0 0 0-.58-1.416zm23.18 3.672c-.065-.021-13.518 14.252-13.544 14.37-.014.062.016.065.14.021.085-.03 4.047-1.577 8.804-3.437 4.758-1.86 8.664-3.407 8.674-3.437.022-.07-4-7.492-4.074-7.517zm-27.106 9.212c-.06-.022-.094.007-.115.096-.046.199-.963 7.512-.963 7.678 0 .11.03.148.11.148.059 0 2.136-.42 4.615-.933 2.48-.513 4.53-.958 4.559-.987.028-.029.04-.06.027-.071-.146-.126-8.17-5.907-8.233-5.93zm28.53 6.06c-.057-.053-13.586 1.165-13.644 1.227-.024.026-.02.058.013.071.03.013 2.754 1.512 6.054 3.33 3.3 1.82 6.05 3.303 6.109 3.298.098-.008.166-.338.812-3.948h-.003c.388-2.166.684-3.956.66-3.979zm-19.26 1.965c-.07.027-4.479 2.127-9.798 4.665-5.32 2.539-10.788 5.145-12.152 5.794-1.363.65-2.48 1.214-2.48 1.253 0 .038.965 1.458 2.144 3.155 2.792 4.017 2.735 3.935 2.784 3.935.022 0 4.44-4.215 9.816-9.368v-.003c5.377-5.152 9.784-9.394 9.795-9.425.014-.037-.026-.038-.11-.006zm3.674 1.001c-.026-.01-.049.006-.049.036s.516 1.222 1.146 2.65l4.856 11.005c2.04 4.626 3.717 8.484 3.754 8.562l.071.15h.112c.068-.038.194-.105.197-.11.016-.02 1.49-.956 3.276-2.08 1.786-1.125 3.246-2.062 3.246-2.084 0-.049-16.541-18.104-16.609-18.129zm-1.95.386c-.017-.018-.037-.01-.06.016-.11.125-6.587 11.7-6.587 11.772 0 .059.185.1.755.175l3.957.52c1.763.23 3.24.406 3.278.393.05-.017.06-.09.038-.249-.028-.208-.991-9.396-1.214-11.583-.072-.71-.112-.992-.166-1.044z" opacity=".2"/>
    <path d="M35.49 4l-.023.56c-.022.635-.493 12.094-.87 21.156-.137 3.31-.235 6.034-.218 6.052.017.017.042.02.055.008.014-.013 1.564-4.485 3.448-9.94C42.776 7.661 43.81 4.67 43.944 4.314l.12-.314zm-9.227 11.687s-5.977 4.986-6.026 5.116c-.02.052.976 1.074 2.92 2.994l6.264 6.19c1.823 1.801 3.335 3.274 3.358 3.274.024 0 .044-.022.044-.047h-.003c0-.025-1.228-3.347-2.731-7.383a7512.829 7512.829 0 0 1-3.246-8.728 23.335 23.335 0 0 0-.58-1.416zm23.18 3.672c-.065-.021-13.518 14.252-13.544 14.37-.014.062.016.065.14.021.085-.03 4.047-1.577 8.804-3.437 4.758-1.86 8.664-3.407 8.674-3.437.022-.07-4-7.492-4.074-7.517zm-27.106 9.212c-.06-.022-.094.007-.115.096-.046.199-.963 7.512-.963 7.678 0 .11.03.148.11.148.059 0 2.136-.42 4.615-.933 2.48-.513 4.53-.958 4.559-.987.028-.029.04-.06.027-.071-.146-.126-8.17-5.907-8.233-5.93zm28.53 6.06c-.057-.053-13.586 1.165-13.644 1.227-.024.026-.02.058.013.071.03.013 2.754 1.512 6.054 3.33 3.3 1.82 6.05 3.303 6.109 3.298.098-.008.166-.338.812-3.948h-.003c.388-2.166.684-3.956.66-3.979zm-19.26 1.965c-.07.027-4.479 2.127-9.798 4.665-5.32 2.539-10.788 5.145-12.152 5.794-1.363.65-2.48 1.214-2.48 1.253 0 .038.965 1.458 2.144 3.155 2.792 4.017 2.735 3.935 2.784 3.935.022 0 4.44-4.215 9.816-9.368v-.003c5.377-5.152 9.784-9.394 9.795-9.425.014-.037-.026-.038-.11-.006zm3.674 1.001c-.026-.01-.049.006-.049.036s.516 1.222 1.146 2.65l4.856 11.005c2.04 4.626 3.717 8.484 3.754 8.562l.071.15h.112c.068-.038.194-.105.197-.11.016-.02 1.49-.956 3.276-2.08 1.786-1.125 3.246-2.062 3.246-2.084 0-.049-16.541-18.104-16.609-18.129zm-1.95.386c-.017-.018-.037-.01-.06.016-.11.125-6.587 11.7-6.587 11.772 0 .059.185.1.755.175l3.957.52c1.763.23 3.24.406 3.278.393.05-.017.06-.09.038-.249-.028-.208-.991-9.396-1.214-11.583-.072-.71-.112-.992-.166-1.044z" fill="#48B9C7"/>
    <path d="M6.8 4C5.25 4 4 5.25 4 6.8v1C4 6.25 5.25 5 6.8 5h50.4C58.75 5 60 6.25 60 7.8v-1C60 5.25 58.75 4 57.2 4H6.8z" opacity=".1" fill="#F9F5D7"/>
    <path d="M35.488 4l-.021.56c-.023.635-.493 12.094-.87 21.157-.137 3.31-.235 6.033-.218 6.05.01.012.023.007.035.006.016-.71.069-2.29.184-5.056.376-9.063.846-20.522.869-21.156L35.488 5h8.219l.236-.686.121-.314h-8.576zm-9.224 11.688s-5.978 4.985-6.028 5.115c-.007.018.269.305.51.56.882-.803 5.518-4.675 5.518-4.675s.297.651.58 1.416c.282.764 1.74 4.692 3.244 8.728 1.211 3.254 1.848 4.979 2.203 5.951.063.06.485.477.488.477.024 0 .043-.02.043-.045h-.002c0-.025-1.23-3.347-2.732-7.383a6418.56 6418.56 0 0 1-3.244-8.728 23.105 23.105 0 0 0-.58-1.416zm23.18 3.671c-.065-.021-13.52 14.252-13.546 14.37-.014.062.018.065.141.021l1.217-.475c2.206-2.405 12.13-12.935 12.187-12.916.067.022 2.954 5.352 3.637 6.69.02-.01.437-.172.438-.174.022-.07-4-7.49-4.075-7.516zM22.335 28.57c-.059-.022-.092.008-.113.096-.047.199-.963 7.514-.963 7.68 0 .108.03.145.107.146.162-1.403.815-6.65.856-6.826.02-.088.054-.118.113-.096.055.021 5.634 4.045 7.236 5.213.174-.04.965-.205.971-.21.028-.03.04-.06.027-.071-.145-.126-8.171-5.908-8.234-5.932zm28.531 6.06c-.057-.051-13.586 1.165-13.644 1.227-.024.026-.02.06.013.073l1.434.789c2.304-.247 11.69-1.093 12.03-1.074.03-.213.174-1.008.167-1.014zm-19.17 1.942a.265.265 0 0 0-.092.024c-.07.027-4.477 2.128-9.796 4.666-5.32 2.538-10.787 5.143-12.15 5.793-1.364.65-2.481 1.215-2.481 1.254 0 .009.402.585.496.728a60.679 60.679 0 0 1 1.984-.982c1.364-.65 6.831-3.255 12.15-5.793 4.327-2.065 6.692-3.19 7.97-3.795.32-.31 1.935-1.86 1.937-1.865.007-.019 0-.029-.018-.03zm3.584 1.026c-.026-.01-.049.005-.049.035 0 .019.419.976.745 1.724 1.283 1.36 14.314 15.582 15.337 16.74.086-.057.577-.367.577-.37 0-.05-16.542-18.104-16.61-18.13zm-1.949.384c-.018-.017-.038-.008-.06.018-.111.125-6.588 11.7-6.588 11.771 0 .046.172.084.482.131.823-1.528 6.003-10.786 6.105-10.902.023-.026.043-.035.061-.018.054.052.094.334.166 1.045.208 2.045 1.001 9.604 1.135 10.828l.04.004c.05-.017.062-.091.04-.25-.028-.207-.993-9.395-1.215-11.582-.072-.71-.112-.993-.166-1.045z" fill="#F9F5D7" opacity=".2"/>
</svg>
