<svg xmlns="http://www.w3.org/2000/svg" width="64" height="64" version="1">
    <path d="M4 56v2c0 1.662 1.338 3 3 3h50c1.662 0 3-1.338 3-3v-2c0 1.662-1.338 3-3 3H7c-1.662 0-3-1.338-3-3z" opacity=".2"/>
    <rect width="56" height="56" x="4" y="4" rx="3" ry="3" fill="#504945"/>
    <path d="M28.364 5L4.292 57.278A2.99 2.99 0 0 0 7 59h.906L32 6.672 56.094 59H57a2.99 2.99 0 0 0 2.708-1.722L35.636 5h-7.272z" opacity=".2"/>
    <path d="M28.364 4L4 56.918V57a2.994 2.994 0 0 0 2.984 3L32 5.672 57.016 60A2.994 2.994 0 0 0 60 57v-.082L35.636 4h-7.272z" fill="#CB241D"/>
    <path d="M6.844 5.032A2.978 2.978 0 0 0 4.016 7.86L29.17 33.016l-24.66 24.66v.004A2.99 2.99 0 0 0 7 59h1.843L32 35.844 55.155 59h1.844a2.99 2.99 0 0 0 2.488-1.32v-.004l-24.66-24.66L59.983 7.86a2.978 2.978 0 0 0-2.828-2.828L31.999 30.187 6.843 5.032z" opacity=".2"/>
    <path d="M6.844 4.016a2.978 2.978 0 0 0-2.828 2.828L29.17 32 4.016 57.156a2.978 2.978 0 0 0 2.828 2.828L32 34.828l25.155 25.156a2.978 2.978 0 0 0 2.829-2.828L34.828 32 59.984 6.844a2.978 2.978 0 0 0-2.828-2.828L32 29.172 6.844 4.016z" fill="#7CB668"/>
    <path d="M7 5C5.338 5 4 6.338 4 8v1h26v50h4V9h26V8c0-1.662-1.338-3-3-3z" opacity=".2"/>
    <path d="M7 4C5.338 4 4 5.338 4 7v1h26v52h4V8h26V7c0-1.662-1.338-3-3-3H7z" fill="#066678"/>
    <path d="M7 4C5.338 4 4 5.338 4 7v1c0-1.662 1.338-3 3-3h50c1.662 0 3 1.338 3 3V7c0-1.662-1.338-3-3-3H7z" opacity=".1" fill="#F9F5D7"/>
</svg>
