<svg xmlns="http://www.w3.org/2000/svg" width="64" height="64">
    <g transform="translate(0 -988.362)">
        <path d="M10.005 1024.856c-.078-5.793.912-11.304 2.94-16.359 2.54-6.412 6.245-12.952 12.803-14.718 1.511-.387 6.058-.561 6.345-.274.073.072-.478.8-1.225 1.618-1.605 1.759-3.892 4.124-4.465 6.363-.524 2.05-.518 2.633.06 3.01 1.255.82 11.664 1.41 12.969.696a8.712 8.712 0 0 0 1.92-1.427c1.824-1.823 5.098-3.83 7.515-4.203 1.737-.267 4.995-.046 5.13.365.043.13-.53.672-1.273 1.203-1.496 1.067-3.223 2.516-3.716 3.555-.3.63-.285.82.198 2.673.763 2.926 1.057 6.983.75 10.556-.333 3.893-1.42 11.156-2.267 15.16-2.14 10.11-6.055 14.96-11.734 16.152-1.374.289-5.164.028-5.164.028-13.595-.753-20.53-12.39-20.786-24.398z" opacity=".2"/>
        <path d="M10.005 1023.856c-.078-5.793.912-11.304 2.94-16.359 2.54-6.412 6.245-12.952 12.803-14.718 1.511-.387 6.058-.561 6.345-.274.073.072-.478.8-1.225 1.618-1.605 1.759-3.892 4.124-4.465 6.363-.524 2.05-.518 2.633.06 3.01 1.255.82 11.664 1.41 12.969.696a8.712 8.712 0 0 0 1.92-1.427c1.824-1.823 5.098-3.83 7.515-4.203 1.737-.267 4.995-.046 5.13.365.043.13-.53.672-1.273 1.203-1.496 1.067-3.223 2.516-3.716 3.555-.3.63-.285.82.198 2.673.763 2.926 1.057 6.983.75 10.556-.333 3.893-1.42 11.156-2.267 15.16-2.14 10.11-6.055 14.96-11.734 16.152-1.374.289-5.164.028-5.164.028-13.595-.753-20.53-12.39-20.786-24.398z" fill="#504945"/>
        <circle cx="27.001" cy="1034.362" r="3" opacity=".2"/>
        <circle cx="27.001" cy="1033.362" r="3" fill="#F9F5D7"/>
        <circle cx="43.001" cy="1036.362" r="3" opacity=".2"/>
        <circle cx="43.001" cy="1035.362" r="3" fill="#F9F5D7"/>
        <path d="M31.193 992.372c-1.47-.054-4.311.116-5.445.406-6.557 1.766-10.262 8.307-12.803 14.719-2.027 5.055-3.017 10.566-2.94 16.36h-.001c.001.056.008.111.01.167.023-5.487 1.001-10.715 2.931-15.527 2.54-6.412 6.246-12.953 12.803-14.719 1.224-.313 4.406-.482 5.736-.385.378-.461.658-.84.61-.888-.072-.072-.41-.115-.9-.133zm19.19 6.076c-.552.01-1.082.047-1.516.113-2.417.373-5.692 2.38-7.515 4.204a8.73 8.73 0 0 1-1.92 1.427c-1.306.715-11.713.125-12.97-.695a.88.88 0 0 1-.378-.486c-.122.84-.013 1.23.379 1.486 1.256.82 11.663 1.41 12.969.695a8.73 8.73 0 0 0 1.92-1.427c1.823-1.824 5.098-3.831 7.515-4.204 1.282-.197 3.38-.125 4.451.09.402-.337.71-.636.68-.724-.102-.309-1.96-.51-3.615-.479zm-1.494 6.55c-.145.44-.076.85.318 2.36.53 2.035.827 4.616.86 7.201.042-2.91-.26-5.903-.86-8.2a20.389 20.389 0 0 1-.318-1.36z" opacity=".1" fill="#F9F5D7"/>
    </g>
</svg>
