<svg xmlns="http://www.w3.org/2000/svg" width="64" height="64" version="1">
    <path d="M31.433 5c-.133 0-.473.176-.755.391-.676.516-2.913 2.546-4.038 3.158l-.89.484-.833-.167c-.459-.091-.909-.166-.997-.166-.089 0-.501.275-.917.615-.882.72-1.807 1.439-2.265 1.438-.176 0-.471-.092-.655-.205-.183-.113-.44-.205-.57-.205-.316 0-3.277 1.79-4.285 2.455-.775.512-1.553 1.132-2.764 2.196-.675.594-.95.904-1.279 2.18-.41 1.594-.17 3.049.693 3.68.491.36 1.25 1.194 1.582 1.74.268.44.33.465 1.16.467h.738l1.306-1.16c1.273-1.251 2.215-.949 3.9-.861 2.105.11 2.3.422 2.45 1.89-.074.901-.279 1.424-.799 2.034-.328.385-.344.388-1.506.533-.645.08-3.864.518-6.479.973-2.615.455-4.847.426-4.957.426-.138 0-.377-.27-.773-.87-.631-.956-.901-1.126-1.34-.837-.653.432-1.58 2.093-1.954 3.506-.296 1.117-.268 4.529.051 6.036.42 1.988 1.218 4.288 2.258 6.51.469 1.002.689 1.242.868.95.037-.06.108-1.065.157-2.235.123-2.895.361-4.958.655-5.67.429-1.043.427-1.138-.079-2.188C8.587 31 8.47 30.6 8.66 30.534c.072-.026 1.436-.093 3.034-.15 3.435-.124 4.716-.237 6.396-.575 1.478-.297 1.693-.305 1.92-.077.18.18.178.304-.01 2.292-.089.932.16 1.646 1.065 3.065.905 1.419 1.446 2.586 1.904 4.107.405 1.346.424 1.59.146 1.87-.665.67-1.877-.176-4.384-3.5-1.946-2.58-2.495-3.18-2.915-3.18-.687 0-1.742 1.01-2.848 2.724-.67 1.04-.958 1.622-1.917 3.872-1.027 2.408-1.23 3.06-1.677 5.427-.344 1.826-.374 2.155-.367 3.7.008 1.73.148 3.223.654 6.84.185 1.321.336 2.077.425 2.136.26.172.874-.712 1.755-2.522 1.676-3.444 2.458-5.665 2.672-7.534.26-2.277.774-4.107 1.533-5.474.358-.646.908-1.36 1.05-1.36.04 0 .296.358.57.796.625 1.001 1.66 1.954 2.185 2.193.287.132.54.167.884.126l.481-.057.128.42c.11.37.092.55-.122 1.428-.328 1.345-.326 2.923 0 5.036.268 1.734.34 1.971.62 1.971.397 0 1.47-1.327 2.125-2.63.116-.23.51-1.439.879-2.685.754-2.554 1.555-4.545 1.695-4.689.058-.059.513.104 1.19.427 1.084.517 1.167.526 3.061.757 1.468.18 1.94.271 2.004.394.047.088.23.9.409 1.805 1.128 5.713 2.458 10.245 3.172 11.255.338.478.554.386.946-.4.461-.923 1.817-3.537 3.264-7.133.649-1.61 1.239-3.324 1.312-3.465.113-.219.232-.267.792-.331 2.092-.24 2.501-.307 2.956-.481.688-.264 1.227-.719 1.847-1.559.289-.391.558-.71.6-.71.092 0 .776 1.551 1.223 2.774.522 1.43.91 2.953 1.073 4.211.085.651.226 1.413.317 1.696.537 1.665 2.033 3.932 4.357 6.603.503.58.973 1.053 1.043 1.053.145 0 .263-.388.855-2.775.38-1.537.497-1.84 1.23-3.257L59 53.404v-1.985c0-4.083-.518-8.012-1.433-10.875-.63-1.967-1.883-3.511-3.056-4.83-.875-.982-1.338-1.079-1.828-.385-.263.372-.582 1.24-.68 1.851-.037.237-.132.456-.213.487-.088.034-.356.133-.673-.179-1.08-1.063-2.028-1.435-2.353-.924-.08.127-.287.6-.46 1.053-.403 1.055-.861 1.032-1.187 1.246-.383.253-1.018.138-1.91-.276-.666-.31-.75-.384-1.07-.962-.517-.93-.601-1.671-.463-3.165.063-.69.126-1.506.138-2.156l.019-1.181-.433-.785c-.24-.432-.848-1.38-1.352-2.105-.504-.726-.917-1.161-.917-1.211 0-.052.498-.062 1.15-.022.637.038 1.254.024 1.64-.033l.696-.101 1.252-1.316c2.443-2.571 3.1-3.657 3.193-4.498.043-.377.006-.534-.202-.847-.408-.615-.963-1.133-1.293-1.206-.478-.106-4.359 1.107-5.541 1.706-1.093.553-2.122.35-3.256-.645-.829-.727-2.875-2.35-5.521-4.26-2.03-1.464-2.589-1.983-2.423-2.25.066-.106.51-.288 1.117-.459 1.957-.55 1.978-.915 2.182-1.138.24-.262.939-2.697.939-3.275 0-.316-.086-.49-.43-.88C33.11 6.07 31.887 5 31.432 5z" opacity=".2"/>
    <path d="M31.433 4c-.133 0-.473.176-.755.391-.676.516-2.913 2.546-4.038 3.158l-.89.484-.833-.167c-.459-.091-.909-.166-.997-.166-.089 0-.501.275-.917.615-.882.72-1.807 1.439-2.265 1.438-.176 0-.471-.092-.655-.205-.183-.113-.44-.205-.57-.205-.316 0-3.277 1.79-4.285 2.455-.775.512-1.553 1.132-2.764 2.196-.675.594-.95.904-1.279 2.18-.41 1.594-.17 3.049.693 3.68.491.36 1.25 1.194 1.582 1.74.268.44.33.465 1.16.467h.738l1.306-1.16c1.273-1.251 2.215-.949 3.9-.861 2.105.11 2.3.422 2.45 1.89-.074.901-.279 1.424-.799 2.034-.328.385-.344.388-1.506.533-.645.08-3.864.518-6.479.973-2.615.455-4.847.426-4.957.426-.138 0-.377-.27-.773-.87-.631-.956-.901-1.126-1.34-.837-.653.432-1.58 2.093-1.954 3.506-.296 1.117-.268 4.529.051 6.036.42 1.988 1.218 4.288 2.258 6.51.469 1.002.689 1.242.868.95.037-.06.108-1.065.157-2.235.123-2.895.361-4.958.655-5.67.429-1.043.427-1.138-.079-2.188C8.587 30 8.47 29.6 8.66 29.534c.072-.026 1.436-.093 3.034-.15 3.435-.124 4.716-.237 6.396-.575 1.478-.297 1.693-.305 1.92-.077.18.18.178.304-.01 2.292-.089.932.16 1.646 1.065 3.065.905 1.419 1.446 2.586 1.904 4.107.405 1.346.424 1.59.146 1.87-.665.67-1.877-.176-4.384-3.5-1.946-2.58-2.495-3.18-2.915-3.18-.687 0-1.742 1.01-2.848 2.724-.67 1.04-.958 1.622-1.917 3.872-1.027 2.408-1.23 3.06-1.677 5.427-.344 1.826-.374 2.155-.367 3.7.008 1.73.148 3.223.654 6.84.185 1.321.336 2.077.425 2.136.26.172.874-.712 1.755-2.522 1.676-3.444 2.458-5.665 2.672-7.534.26-2.277.774-4.107 1.533-5.474.358-.646.908-1.36 1.05-1.36.04 0 .296.358.57.796.625 1.001 1.66 1.954 2.185 2.193.287.132.54.167.884.126l.481-.057.128.42c.11.37.092.55-.122 1.428-.328 1.345-.326 2.923 0 5.036.268 1.734.34 1.971.62 1.971.397 0 1.47-1.327 2.125-2.63.116-.23.51-1.439.879-2.685.754-2.554 1.555-4.545 1.695-4.689.058-.059.513.104 1.19.427 1.084.517 1.167.526 3.061.757 1.468.18 1.94.271 2.004.394.047.088.23.9.409 1.805 1.128 5.713 2.458 10.245 3.172 11.255.338.478.554.386.946-.4.461-.923 1.817-3.537 3.264-7.133.649-1.61 1.239-3.324 1.312-3.465.113-.219.232-.267.792-.331 2.092-.24 2.501-.307 2.956-.481.688-.264 1.227-.719 1.847-1.559.289-.391.558-.71.6-.71.092 0 .776 1.551 1.223 2.774.522 1.43.91 2.953 1.073 4.211.085.651.226 1.413.317 1.696.537 1.665 2.033 3.932 4.357 6.603.503.58.973 1.053 1.043 1.053.145 0 .263-.388.855-2.775.38-1.537.497-1.84 1.23-3.257L59 52.404v-1.985c0-4.083-.518-8.012-1.433-10.875-.63-1.967-1.883-3.511-3.056-4.83-.875-.982-1.338-1.079-1.828-.385-.263.372-.582 1.24-.68 1.851-.037.237-.132.456-.213.487-.088.034-.356.133-.673-.179-1.08-1.063-2.028-1.435-2.353-.924-.08.127-.287.6-.46 1.053-.403 1.055-.861 1.032-1.187 1.246-.383.253-1.018.138-1.91-.276-.666-.31-.75-.384-1.07-.962-.517-.93-.601-1.671-.463-3.165.063-.69.126-1.506.138-2.156l.019-1.181-.433-.785c-.24-.432-.848-1.38-1.352-2.105-.504-.726-.917-1.161-.917-1.211 0-.052.498-.062 1.15-.022.637.038 1.254.024 1.64-.033l.696-.101 1.252-1.316c2.443-2.571 3.1-3.657 3.193-4.498.043-.377.006-.534-.202-.847-.408-.615-.963-1.133-1.293-1.206-.478-.106-4.359 1.107-5.541 1.706-1.093.553-2.122.35-3.256-.645-.829-.727-2.875-2.35-5.521-4.26-2.03-1.464-2.589-1.983-2.423-2.25.066-.106.51-.288 1.117-.459 1.957-.55 1.978-.915 2.182-1.138.24-.262.939-2.697.939-3.275 0-.316-.086-.49-.43-.88C33.11 5.07 31.887 4 31.432 4z" fill="#504945"/>
    <path d="M12.906 16c2.523 1.184 1.49 2.994-1.203 4.648.063.064.104.155.176.207.491.36 1.25 1.193 1.582 1.739.03.05.052.077.078.117 1.099-.99 3.1-2.185 3.434-3.75.396-1.86.305-3.015-4.067-2.961z" opacity=".2"/>
    <path d="M12.906 15c2.523 1.184 1.49 2.994-1.203 4.648.063.064.104.155.176.207.491.36 1.25 1.193 1.582 1.739.03.05.052.077.078.117 1.099-.99 3.1-2.185 3.434-3.75.396-1.86.305-3.015-4.067-2.961z" fill="#F9F5D7"/>
    <path d="M31.434 4c-.133 0-.475.176-.756.39-.676.516-2.913 2.546-4.037 3.159l-.891.484-.832-.166c-.46-.092-.91-.168-.998-.168-.089 0-.502.276-.918.615-.882.72-1.806 1.44-2.264 1.44-.175 0-.47-.092-.654-.205-.184-.113-.441-.205-.572-.205-.316 0-3.276 1.79-4.283 2.455-.776.512-1.554 1.13-2.764 2.195-.676.594-.95.904-1.28 2.182a5.422 5.422 0 0 0-.162 1.937c.03-.304.08-.616.163-.937.329-1.278.603-1.588 1.279-2.182 1.21-1.064 1.988-1.683 2.764-2.195 1.007-.666 3.967-2.455 4.283-2.455.13 0 .388.092.572.205.184.113.479.205.654.205.458 0 1.382-.72 2.264-1.44.416-.339.83-.615.918-.615.088 0 .539.076.998.168l.832.166.89-.484c1.125-.613 3.362-2.643 4.038-3.158.281-.215.623-.391.756-.391.454 0 1.677 1.07 3.199 2.797.169.192.273.33.338.46.047-.234.092-.463.092-.58 0-.315-.086-.49-.43-.88C33.11 5.069 31.888 4 31.433 4zm-.131 9.303c-.251.096-.44.186-.479.248-.165.266.392.785 2.422 2.25 2.646 1.909 4.693 3.533 5.522 4.26 1.134.994 2.163 1.198 3.255.644 1.183-.599 5.064-1.813 5.541-1.707.33.073.886.592 1.293 1.207.062.094.084.163.118.238.041-.137.072-.267.086-.39.042-.377.004-.534-.204-.848-.407-.615-.962-1.134-1.293-1.207-.477-.106-4.358 1.108-5.54 1.707-1.093.554-2.122.35-3.256-.644-.83-.727-2.876-2.351-5.522-4.26-.955-.69-1.562-1.156-1.943-1.498zm-8.366 9.176c-.11.585-.319 1.011-.722 1.484-.329.385-.344.389-1.506.533-.645.08-3.863.52-6.479.975-2.615.455-4.847.425-4.957.425-.137 0-.377-.27-.773-.87-.631-.956-.902-1.126-1.34-.837-.653.432-1.581 2.094-1.955 3.506-.164.622-.22 1.945-.19 3.264.015-.938.07-1.807.19-2.264.374-1.412 1.302-3.074 1.955-3.506.438-.289.709-.12 1.34.836.396.6.636.871.773.871.11 0 2.342.03 4.957-.425a174.95 174.95 0 0 1 6.479-.975c1.162-.144 1.177-.148 1.506-.533.52-.61.725-1.131.799-2.033-.019-.185-.053-.302-.076-.451zm18.522 4.498c-.206.004-.33.019-.33.044 0 .05.412.486.916 1.211.504.726 1.114 1.674 1.353 2.106l.418.76.014-.975-.432-.785c-.239-.432-.85-1.38-1.353-2.106-.072-.103-.117-.153-.184-.244-.135-.003-.3-.013-.402-.011zm-21.37 2.878c-.021.318-.03.531-.091 1.168-.025.26-.015.505.02.75.119-1.273.15-1.746.072-1.918zm-11.218.668c-.017.003-.208.008-.213.01-.189.067-.071.467.457 1.565.127.262.223.465.287.638.187-.564.11-.816-.287-1.638-.13-.27-.162-.384-.244-.575zm6.943 2.864c-.686 0-1.742 1.01-2.847 2.722-.67 1.04-.957 1.624-1.916 3.873-1.027 2.409-1.232 3.06-1.678 5.428-.344 1.826-.374 2.154-.367 3.7 0 .06.005.12.006.181.016-.91.09-1.439.361-2.88.446-2.368.65-3.02 1.678-5.429.96-2.249 1.245-2.833 1.916-3.873 1.105-1.713 2.16-2.722 2.847-2.722.42 0 .97.598 2.916 3.18 2.507 3.323 3.719 4.17 4.383 3.5.214-.216.249-.419.073-1.104-.025.034-.04.07-.073.103-.664.67-1.876-.176-4.383-3.5-1.946-2.58-2.495-3.18-2.916-3.18zm37.432.5c-.2.033-.379.18-.562.441-.263.372-.583 1.24-.68 1.852-.038.237-.132.455-.213.486-.088.034-.357.134-.674-.178-1.08-1.062-2.029-1.435-2.353-.924-.081.128-.287.601-.46 1.053-.402 1.056-.862 1.031-1.187 1.246-.383.253-1.018.14-1.91-.275-.666-.31-.75-.385-1.07-.963a3.827 3.827 0 0 1-.492-1.658c-.068 1.15.042 1.847.492 2.658.32.578.404.654 1.07.963.892.414 1.527.528 1.91.275.325-.215.785-.19 1.188-1.246.172-.452.378-.925.459-1.053.324-.51 1.272-.138 2.353.924.317.312.586.212.674.178.08-.031.175-.25.213-.486.097-.612.417-1.48.68-1.852.49-.694.953-.596 1.828.387 1.173 1.318 2.425 2.863 3.054 4.83.916 2.863 1.434 6.79 1.434 10.873v-1c0-4.083-.518-8.01-1.434-10.873-.629-1.967-1.881-3.512-3.054-4.83-.547-.615-.934-.883-1.266-.828zM21.32 45.604c-.03.154-.04.256-.1.498-.196.807-.26 1.717-.22 2.757.026-.63.09-1.22.22-1.757.215-.879.231-1.06.122-1.428l-.022-.07z" fill="#F9F5D7" opacity=".1"/>
</svg>
