<svg xmlns="http://www.w3.org/2000/svg" width="64" height="64" version="1">
    <path d="M10.022 5c2.002 2.77 3.025 5.707 0 10-.317 3.754.997 5.935 5.489 5.855 1.063-.07 2.75-.282 3.636-1.117 1.406-1.72.861-2.622.282-2.742-.602-.178-2.058.724-.66 1.39.294 1.205-3.064 1.08-3.684.067-2.332-4.176 3.872-7.177 10.937-4.453 1.449 11.397 3.091 25.918 1.317 39.484-1.161 2.694-2.405 4.312-5.317 5.516v2c4-2 14-2 20-2v-2c-2.586-.466-4.64-2.869-4.945-5.285-1.005-13.447-1.74-23.297.945-36.715h9.938c1.24.028 1.748 1.057 2.062 4h4c-1.395-3.333-2-6-2-10-14.939 2.31-25.844.257-42-4z" opacity=".2"/>
    <path d="M10.022 4c2.002 2.77 3.025 5.707 0 10-.317 3.754.997 5.935 5.489 5.855 1.063-.07 2.75-.282 3.636-1.117 1.406-1.72.861-2.622.282-2.742-.602-.178-2.058.724-.66 1.39.294 1.205-3.064 1.08-3.684.067-2.332-4.176 3.872-7.177 10.937-4.453 1.449 11.397 3.091 25.918 1.317 39.484-1.161 2.694-2.405 4.312-5.317 5.516v2c4-2 14-2 20-2v-2c-2.586-.466-4.64-2.869-4.945-5.285-1.005-13.447-1.74-23.297.945-36.715h9.938c1.24.028 1.748 1.057 2.062 4h4c-1.395-3.333-2-6-2-10-14.939 2.31-25.844.257-42-4z" fill="#F9BD2E"/>
    <path d="M10.023 4c.285.394.541.793.778 1.197C26.518 9.311 37.333 11.271 52.023 9c0 3.591.493 6.111 1.602 9h.398c-1.395-3.333-2-6-2-10-14.939 2.31-25.844.257-42-4zm1.88 5.375c-.102 1.373-.655 2.886-1.88 4.625a10.572 10.572 0 0 0-.017 1.547c.007-.184.001-.354.017-.547 1.53-2.17 2.022-3.994 1.88-5.625zm7.267 6.602c-.605.056-1.43.698-.643 1.253.278-.195.658-.306.903-.234.197.04.384.18.498.404.274-.85-.096-1.32-.498-1.404a.7.7 0 0 0-.26-.02zm-4.525.21c-.136.69-.012 1.455.44 2.266.62 1.014 3.98 1.138 3.685-.066a1.282 1.282 0 0 1-.438-.317c-.881.384-2.792.125-3.246-.617a3.793 3.793 0 0 1-.441-1.265zM36.175 33c-.045 5.936.39 11.858.903 18.715.305 2.416 2.359 4.819 4.945 5.285v-1c-2.586-.466-4.64-2.869-4.945-5.285-.484-6.473-.895-12.11-.902-17.715zm-8.07 7.13c-.014 4.132-.233 8.285-.765 12.354-1.161 2.694-2.405 4.312-5.317 5.516v1c2.912-1.204 4.156-2.822 5.317-5.516.575-4.397.785-8.894.765-13.353z" fill="#F9F5D7" opacity=".2"/>
</svg>
