<svg xmlns="http://www.w3.org/2000/svg" width="64" height="64" version="1">
    <path d="M20.571 11.172C13.905 13.518 12 13 12 15.172v28.685A17.105 17.105 0 0 0 29.143 61h5.714A17.105 17.105 0 0 0 52 43.857V15.172c0-2.172-.476-1.654-7.143-4l-4.857 4v31.542C40 51.448 36.734 55 32 55s-7.764-3.558-8-8.286V15.172z" opacity=".2"/>
    <path d="M20.571 10.172C13.905 12.518 12 12 12 14.172v28.685A17.105 17.105 0 0 0 29.143 60h5.714A17.105 17.105 0 0 0 52 42.857V14.172c0-2.172-.476-1.654-7.143-4l-4.857 4v31.542C40 50.448 36.734 54 32 54s-7.764-3.558-8-8.286V14.172z" fill="#FD8019"/>
    <path d="M18.071 5a1.496 1.013 0 0 0-.15.003 1.496 1.013 0 0 0-1.217.504L8.201 15.48A1.496 1.013 0 0 0 9.496 17h17.008a1.496 1.013 0 0 0 1.295-1.52l-8.503-9.973A1.496 1.013 0 0 0 18.07 5z" opacity=".2"/>
    <path d="M18.071 4a1.496 1.013 0 0 0-.15.003 1.496 1.013 0 0 0-1.217.504L8.201 14.48A1.496 1.013 0 0 0 9.496 16h17.008a1.496 1.013 0 0 0 1.295-1.52l-8.503-9.973A1.496 1.013 0 0 0 18.07 4z" fill="#FECE4F"/>
    <path d="M46.071 5a1.496 1.013 0 0 0-.15.003 1.496 1.013 0 0 0-1.217.504l-8.503 9.974A1.496 1.013 0 0 0 37.496 17h17.008a1.496 1.013 0 0 0 1.295-1.52l-8.503-9.973A1.496 1.013 0 0 0 46.07 5z" opacity=".2"/>
    <path d="M46.071 4a1.496 1.013 0 0 0-.15.003 1.496 1.013 0 0 0-1.217.504l-8.503 9.974A1.496 1.013 0 0 0 37.496 16h17.008a1.496 1.013 0 0 0 1.295-1.52l-8.503-9.973A1.496 1.013 0 0 0 46.07 4z" fill="#FECE4F"/>
    <path d="M24 45.715v1C24.236 51.443 27.266 55 32 55s8-3.551 8-8.285v-1C40 50.449 36.734 54 32 54s-7.764-3.557-8-8.285zM18.07 4a1.496 1.013 0 0 0-.148.004 1.496 1.013 0 0 0-1.219.504L8.2 14.48a1.496 1.013 0 0 0-.002 1.004 1.496 1.013 0 0 1 .002-.004l8.504-9.972a1.496 1.013 0 0 1 1.219-.504A1.496 1.013 0 0 1 18.07 5a1.496 1.013 0 0 1 1.227.508L27.8 15.48a1.496 1.013 0 0 1 .002.004 1.496 1.013 0 0 0-.002-1.004l-8.504-9.972A1.496 1.013 0 0 0 18.07 4zM46.07 4a1.496 1.013 0 0 0-.148.004 1.496 1.013 0 0 0-1.219.504L36.2 14.48a1.496 1.013 0 0 0-.002 1.004 1.496 1.013 0 0 1 .002-.004l8.504-9.972a1.496 1.013 0 0 1 1.219-.504A1.496 1.013 0 0 1 46.07 5a1.496 1.013 0 0 1 1.227.508L55.8 15.48a1.496 1.013 0 0 1 .002.004 1.496 1.013 0 0 0-.002-1.004l-8.504-9.972A1.496 1.013 0 0 0 46.07 4z" opacity=".2" fill="#F9F5D7"/>
</svg>
