<svg xmlns="http://www.w3.org/2000/svg" width="64" height="64" version="1">
    <rect width="56" height="56" x="4" y="5" rx="28" ry="28" opacity=".2"/>
    <rect width="56" height="56" x="4" y="4" rx="28" ry="28" fill="#7CB668"/>
    <path d="M19 15c-1.995 0-3 .971-3 3 0 2.112.898 3 3 3 14.912 0 25 10.088 25 25 0 1.866 1.018 3 3 3 2.04 0 3-1.192 3-3 0-18.226-12.774-31-31-31zm23 0l8 8v-4c0-2.216-1.784-4-4-4h-4zM19 27c-1.937 0-3 .856-3 3 0 2.054.84 3 3 3 8.284 0 13 4.716 13 13 0 1.766 1.014 3 3 3 1.938 0 3-1.076 3-3 0-11.598-7.402-19-19-19zm1 12a6 6 0 1 0 0 12 6 6 0 0 0 0-12z" opacity=".2"/>
    <path d="M19 14c-1.995 0-3 .971-3 3 0 2.112.898 3 3 3 14.912 0 25 10.088 25 25 0 1.866 1.018 3 3 3 2.04 0 3-1.192 3-3 0-18.226-12.774-31-31-31zm23 0l8 8v-4c0-2.216-1.784-4-4-4h-4zM19 26c-1.937 0-3 .856-3 3 0 2.054.84 3 3 3 8.284 0 13 4.716 13 13 0 1.766 1.014 3 3 3 1.938 0 3-1.076 3-3 0-11.598-7.402-19-19-19zm1 12a6 6 0 1 0 0 12 6 6 0 0 0 0-12z" fill="#F9F5D7"/>
    <path d="M32 4C16.488 4 4 16.488 4 32c0 .114.011.224.018.336C4.369 17.134 16.71 5 32 5c15.29 0 27.63 12.134 27.982 27.336.007-.112.018-.222.018-.336C60 16.488 47.512 4 32 4z" opacity=".2" fill="#F9F5D7"/>
</svg>
