<svg xmlns="http://www.w3.org/2000/svg" width="64" height="64" version="1">
    <path d="M30.6 5a5.588 5.588 0 0 0-5.6 5.6v2.625a21 21 0 0 0-6.623 3.825l-2.275-1.312a5.59 5.59 0 0 0-7.65 2.05l-1.4 2.423a5.59 5.59 0 0 0 2.05 7.651l2.264 1.307A21 21 0 0 0 11 33a21 21 0 0 0 .366 3.83l-2.264 1.308a5.59 5.59 0 0 0-2.05 7.65l1.4 2.423a5.59 5.59 0 0 0 7.65 2.051l2.259-1.304A21 21 0 0 0 32 54a21 21 0 0 0 13.623-5.05l2.275 1.312a5.59 5.59 0 0 0 7.65-2.05l1.4-2.423a5.59 5.59 0 0 0-2.05-7.651l-2.264-1.307A21 21 0 0 0 53 33a21 21 0 0 0-.366-3.83l2.264-1.308a5.59 5.59 0 0 0 2.05-7.65l-1.4-2.423a5.59 5.59 0 0 0-7.65-2.051l-2.259 1.304A21 21 0 0 0 39 13.228V10.6C39 7.498 36.502 5 33.4 5z" opacity=".2"/>
    <rect width="14" height="22.4" x="25" y="38.6" rx="5.6" ry="5.6" opacity=".2"/>
    <path d="M30.6 4A5.588 5.588 0 0 0 25 9.6v2.625a21 21 0 0 0-6.623 3.825l-2.275-1.312a5.59 5.59 0 0 0-7.65 2.05l-1.4 2.423a5.59 5.59 0 0 0 2.05 7.651l2.264 1.307A21 21 0 0 0 11 32a21 21 0 0 0 .366 3.83l-2.264 1.308a5.59 5.59 0 0 0-2.05 7.65l1.4 2.423a5.59 5.59 0 0 0 7.65 2.051l2.259-1.304A21 21 0 0 0 32 53a21 21 0 0 0 13.623-5.05l2.275 1.312a5.59 5.59 0 0 0 7.65-2.05l1.4-2.423a5.59 5.59 0 0 0-2.05-7.651l-2.264-1.307A21 21 0 0 0 53 32a21 21 0 0 0-.366-3.83l2.264-1.308a5.59 5.59 0 0 0 2.05-7.65l-1.4-2.423a5.59 5.59 0 0 0-7.65-2.051l-2.259 1.304A21 21 0 0 0 39 12.228V9.6C39 6.498 36.502 4 33.4 4z" fill="#417B58"/>
    <rect width="14" height="22.4" x="25" y="37.6" rx="5.6" ry="5.6" fill="#F9F5D7"/>
    <rect width="6" height="16.8" x="29" y="40.2" rx="3" ry="2.8" opacity=".4"/>
    <path d="M38 20.367V30l-6 4-6-4v-9.62A13.992 13.992 0 0 0 18 33c0 7.732 6.268 14 14 14s14-6.268 14-14a13.995 13.995 0 0 0-8-12.633z" opacity=".2"/>
    <path d="M38 19.367V29l-6 4-6-4v-9.62A13.992 13.992 0 0 0 18 32c0 7.732 6.268 14 14 14s14-6.268 14-14a13.995 13.995 0 0 0-8-12.633z" fill="#F9F5D7"/>
    <path d="M30.6 4A5.587 5.587 0 0 0 25 9.6v1C25 7.497 27.497 5 30.6 5h2.8c3.103 0 5.6 2.497 5.6 5.6v-1C39 6.497 36.503 4 33.4 4h-2.8zM25 12.225a21 21 0 0 0-6.623 3.826l-2.275-1.313a5.589 5.589 0 0 0-7.65 2.051L7.05 19.211a5.58 5.58 0 0 0-.727 3.312 5.59 5.59 0 0 1 .727-2.312l1.4-2.422a5.589 5.589 0 0 1 7.65-2.05l2.276 1.312A21 21 0 0 1 25 13.225v-1zm14 .004v1a21 21 0 0 1 6.639 3.814l2.26-1.305a5.589 5.589 0 0 1 7.65 2.051l1.4 2.422a5.59 5.59 0 0 1 .727 2.312 5.58 5.58 0 0 0-.727-3.312l-1.4-2.422a5.589 5.589 0 0 0-7.65-2.05l-2.26 1.304A21 21 0 0 0 39 12.229zm13.768 16.863l-.135.078a21 21 0 0 1 .342 3.371A21 21 0 0 0 53 32a21 21 0 0 0-.232-2.908zm-41.53.004A21 21 0 0 0 11 32a21 21 0 0 0 .025.459 21 21 0 0 1 .342-3.29l-.129-.073zm41.524 6.808a21 21 0 0 1-.13.926l2.266 1.309a5.58 5.58 0 0 1 2.778 4.338 5.583 5.583 0 0 0-2.778-5.338l-2.136-1.235zm-41.53.004l-2.13 1.23a5.583 5.583 0 0 0-2.778 5.339 5.58 5.58 0 0 1 2.778-4.338l2.265-1.309a21 21 0 0 1-.135-.922z" fill="#F9F5D7" opacity=".1"/>
</svg>
