<svg xmlns="http://www.w3.org/2000/svg" width="64" height="64">
    <path d="M43.729 57c1.218 0 2.207-.966 2.207-2.158 0-9.794 1.848-16.925 3.746-19.786 1.075-1.62 1.896-2.478 3.19-3.086 1.293-.607 3.58-.984 6.921-.984 1.219 0 2.207-.966 2.207-2.158v-17.67C62 9.966 61.012 9 59.793 9c-12.035 0-22.957 5.212-28.944 14.239-5.879 8.864-7.42 19.617-7.42 31.603 0 1.192.988 2.158 2.207 2.158z" opacity=".2" fill-rule="evenodd"/>
    <path d="M43.785 57a2.216 2.218 0 0 0 1.993-3.186L24.675 10.25A2.216 2.218 0 0 0 22.679 9H4.214a2.216 2.218 0 0 0-1.993 3.184L23.324 55.75A2.216 2.218 0 0 0 25.317 57h18.468z" opacity=".2"/>
    <path d="M43.729 56c1.218 0 2.207-.966 2.207-2.158 0-9.794 1.848-16.925 3.746-19.786 1.075-1.62 1.896-2.478 3.19-3.086 1.293-.607 3.58-.984 6.921-.984 1.219 0 2.207-.966 2.207-2.158v-17.67C62 8.966 61.012 8 59.793 8c-12.035 0-22.957 5.212-28.944 14.239-5.879 8.864-7.42 19.617-7.42 31.603 0 1.192.988 2.158 2.207 2.158z" fill="#8F3F71" fill-rule="evenodd"/>
    <path d="M59.793 8C47.758 8 36.836 13.212 30.85 22.238c-5.88 8.864-7.422 19.618-7.422 31.604 0 .05.012.097.015.146.074-11.639 1.669-22.099 7.407-30.75C36.836 14.212 47.758 9 59.793 9 61.012 9 62 9.966 62 11.158v-1C62 8.966 61.012 8 59.793 8z" fill="#F9F5D7" fill-rule="evenodd" opacity=".1"/>
    <path d="M43.785 56a2.216 2.218 0 0 0 1.993-3.186L24.675 9.25A2.216 2.218 0 0 0 22.679 8H4.214a2.216 2.218 0 0 0-1.993 3.184L23.324 54.75A2.216 2.218 0 0 0 25.317 56h18.468z" fill="#066678"/>
    <path d="M4.215 8a2.216 2.218 0 0 0-2.156 2.723A2.216 2.218 0 0 1 4.215 9H22.68a2.216 2.218 0 0 1 1.994 1.25l21.103 43.564a2.216 2.218 0 0 1 .164.463 2.216 2.218 0 0 0-.164-1.463L24.674 9.25A2.216 2.218 0 0 0 22.68 8H4.215z" fill="#F9F5D7" opacity=".2"/>
</svg>
