<svg xmlns="http://www.w3.org/2000/svg" width="64" height="64" version="1">
    <path d="M4 14.9v40.322A2.781 2.781 0 0 0 6.8 58h50.401A2.78 2.78 0 0 0 60 55.222V14.9z" opacity=".2"/>
    <path d="M4 13.9v40.322A2.781 2.781 0 0 0 6.8 57h50.401A2.78 2.78 0 0 0 60 54.222V13.9z" fill="#3A393A"/>
    <path d="M32 13.944V57h25.203A2.78 2.78 0 0 0 60 54.222V13.944z" fill="#504945"/>
    <path d="M6.8 7A2.782 2.782 0 0 0 4 9.777V14h56V9.777A2.781 2.781 0 0 0 57.2 7z" fill="#BDAD93"/>
    <path opacity=".2" d="M4 14h56v1H4z"/>
    <path d="M6.8 7A2.782 2.782 0 0 0 4 9.777v1A2.782 2.782 0 0 1 6.8 8h50.4c1.552 0 2.8 1.238 2.8 2.777v-1A2.782 2.782 0 0 0 57.2 7H6.8z" fill="#F9F5D7" opacity=".2"/>
    <path d="M35.326 24l-6.234 13.766L23.322 26h-6.681l9.865 20.121 5.428-.084L41.914 24zM42 28v4h4v-4zm0 7v11h4V35z" opacity=".2"/>
    <path d="M35.326 23l-6.234 13.766L23.322 25h-6.681l9.865 20.121 5.428-.084L41.914 23h-6.588zM42 27v4h4v-4h-4zm0 7v11h4V34h-4z" fill="#8F3F71"/>
</svg>
