<svg xmlns="http://www.w3.org/2000/svg" width="64" height="64">
    <path d="M32.15 5.003a6.341 6.367 0 0 0-3.32.85L10.17 16.668A6.341 6.367 0 0 0 7 22.183v21.634a6.341 6.367 0 0 0 3.17 5.514l18.66 10.817a6.341 6.367 0 0 0 6.34 0l18.66-10.817A6.341 6.367 0 0 0 57 43.817V22.183a6.341 6.367 0 0 0-3.17-5.515L35.17 5.852a6.341 6.367 0 0 0-3.02-.85z" opacity=".2"/>
    <path d="M32.15 4.003a6.341 6.367 0 0 0-3.32.85L10.17 15.668A6.341 6.367 0 0 0 7 21.183v21.634a6.341 6.367 0 0 0 3.17 5.514l18.66 10.817a6.341 6.367 0 0 0 6.34 0l18.66-10.817A6.341 6.367 0 0 0 57 42.817V21.183a6.341 6.367 0 0 0-3.17-5.515L35.17 4.852a6.341 6.367 0 0 0-3.02-.85z" fill="#504945"/>
    <path d="M32.113 11v.004a4.82 5.003 0 0 0-.015 0 4.82 5.003 0 0 0-2.508.664l-14.18 8.5a4.82 5.003 0 0 0-1.82 1.95A4.82 5.003 0 0 0 13 24.5v17a4.82 5.003 0 0 0 .543 2.297 4.82 5.003 0 0 0 1.867 2.035l14.18 8.5a4.82 5.003 0 0 0 2.312.668 4.82 5.003 0 0 0 2.508-.668l14.18-8.5a4.82 5.003 0 0 0 1.82-1.95A4.82 5.003 0 0 0 51 41.5v-17a4.82 5.003 0 0 0-.543-2.297 4.82 5.003 0 0 0-1.867-2.035l-14.18-8.5A4.82 5.003 0 0 0 32.113 11z" opacity=".2"/>
    <path d="M50.457 21.206L31.902 32.058l18.507 10.826A4.82 5.003 0 0 0 51 40.5V23.502a4.82 5.003 0 0 0-.543-2.296z" fill="#FA4934"/>
    <path d="M31.902 32.058l-18.359 10.74a4.82 5.003 0 0 0 1.866 2.036l14.182 8.497A4.82 5.003 0 0 0 31.9 54V32.058z" fill="#48B9C7"/>
    <path d="M31.902 32.058V54a4.82 5.003 0 0 0 2.507-.669l14.182-8.497a4.82 5.003 0 0 0 1.818-1.95L31.902 32.058z" fill="#8F3F71"/>
    <path d="M13.588 21.12A4.82 5.003 0 0 0 13 23.502v16.997a4.82 5.003 0 0 0 .543 2.3l18.555-10.854-18.51-10.825z" fill="#7CB668"/>
    <path d="M32.114 10.001v.003a4.82 5.003 0 0 0-.016 0v21.942l18.359-10.74a4.82 5.003 0 0 0-1.866-2.039L34.409 10.67A4.82 5.003 0 0 0 32.114 10z" fill="#8F3F71"/>
    <path d="M32.098 10.004a4.82 5.003 0 0 0-2.507.666l-14.182 8.5a4.82 5.003 0 0 0-1.82 1.95l18.51 10.825V10.004z" fill="#F9BD2E"/>
    <path d="M21 25.001l5.571 18 5.429-18 5.429 18 5.571-18h0" fill="none" stroke="#3A393A" stroke-width="6" stroke-linecap="round" stroke-linejoin="round"/>
    <path d="M32.148 4.002a6.341 6.367 0 0 0-3.32.852L10.172 15.67A6.341 6.367 0 0 0 7 21.186v1a6.341 6.367 0 0 1 3.172-5.516L28.828 5.854a6.341 6.367 0 0 1 3.32-.852h.004a6.341 6.367 0 0 1 3.02.852L53.828 16.67A6.341 6.367 0 0 1 57 22.182v-1a6.341 6.367 0 0 0-3.172-5.512L35.172 4.854a6.341 6.367 0 0 0-3.02-.852h-.004z" opacity=".1" fill="#F9F5D7"/>
    <path d="M32.113 10.002v.004a4.82 5.003 0 0 0-.015 0 4.82 5.003 0 0 0-2.508.664l-14.18 8.5a4.82 5.003 0 0 0-1.82 1.95 4.82 5.003 0 0 0-.59 2.382v1a4.82 5.003 0 0 1 .59-2.383 4.82 5.003 0 0 1 1.82-1.95l14.18-8.5a4.82 5.003 0 0 1 2.508-.663 4.82 5.003 0 0 1 .015 0v-.004a4.82 5.003 0 0 1 2.297.668l14.18 8.5a4.82 5.003 0 0 1 1.867 2.035A4.82 5.003 0 0 1 51 24.502v-1a4.82 5.003 0 0 0-.543-2.297 4.82 5.003 0 0 0-1.867-2.035l-14.18-8.5a4.82 5.003 0 0 0-2.297-.668z" opacity=".2" fill="#F9F5D7"/>
</svg>
