<svg xmlns="http://www.w3.org/2000/svg" width="64" height="64">
    <path d="M4.043 31.828A28 28 0 0 0 4 33a28 28 0 0 0 28 28 28 28 0 0 0 28-28 28 28 0 0 0-.042-.828A28 28 0 0 1 32 59 28 28 0 0 1 4.044 31.828z" opacity=".2"/>
    <path d="M32 4A28 28 0 0 0 4 32a28 28 0 0 0 28 28 28 28 0 0 0 28-28A28 28 0 0 0 32 4z" fill="#066678"/>
    <path d="M31.998 4A28 28 0 0 0 4 32a28 28 0 0 0 .021.406A28 28 0 0 1 31.998 5H32a28 28 0 0 1 27.977 27.586 28 28 0 0 0 .021-.586A28 28 0 0 0 32 4h-.002z" opacity=".2" fill="#F9F5D7"/>
    <path d="M32 9C18.766 9 8 19.767 8 33c0 13.234 10.766 24 24 24 13.233 0 24-10.766 24-24C56 19.767 45.233 9 32 9zm0 1.847c5.768 0 11.22 2.603 15.162 6.214-.095-.005-.19-.018-.288-.018-2.176 0-4.92 2.095-4.92 4.131C42 27 46.869 28.602 46.957 31.881c0 1.896-.728 4.098-1.686 7.162l-2.21 7.384-8.007-23.414c1.333-.07 2.136-.212 2.136-.212 1.194-.141 1.055-1.896-.14-1.826 0 0-3.19.281-5.507.281-2.177 0-6.635-.281-6.635-.281-1.194-.07-1.334 1.756-.14 1.826 0 0 1.93.142 3.124.212l3.452 9.055-4.85 14.54-8.067-23.596c1.335-.07 2.736-.21 2.736-.21 1.193-.141 1.052-1.897-.142-1.826 0 0-3.789.281-6.106.281-.416 0-1.105-.01-1.625-.025C17.251 15.217 24.26 10.847 32 10.847zm19.44 11.522A22.04 22.04 0 0 1 54.153 33c0 8.173-4.43 15.307-11.015 19.148l6.768-19.564c1.265-3.16 1.684-5.687 1.684-7.935 0-.815-.055-1.575-.15-2.28zm-39.675 1.614l10.568 28.954C14.943 49.346 9.847 41.769 9.847 33c0-3.212.689-6.262 1.918-9.017zM32.39 34.935l6.81 18.656c.044.11.098.213.158.308A22.134 22.134 0 0 1 32 55.153c-2.175 0-4.272-.318-6.257-.902z" opacity=".2"/>
    <path d="M32 8C18.766 8 8 18.767 8 32c0 13.234 10.766 24 24 24 13.233 0 24-10.766 24-24C56 18.767 45.233 8 32 8zm0 1.847c5.768 0 11.22 2.603 15.162 6.214-.095-.005-.19-.018-.288-.018-2.176 0-4.92 2.095-4.92 4.131C42 26 46.869 27.602 46.957 30.881c0 1.896-.728 4.098-1.686 7.162l-2.21 7.384-8.007-23.414c1.333-.07 2.136-.212 2.136-.212 1.194-.141 1.055-1.896-.14-1.826 0 0-3.19.281-5.507.281-2.177 0-6.635-.281-6.635-.281-1.194-.07-1.334 1.756-.14 1.826 0 0 1.93.142 3.124.212l3.452 9.055-4.85 14.54-8.067-23.596c1.335-.07 2.736-.21 2.736-.21 1.193-.141 1.052-1.897-.142-1.826 0 0-3.789.281-6.106.281-.416 0-1.105-.01-1.625-.025C17.251 14.217 24.26 9.847 32 9.847zm19.44 11.522A22.04 22.04 0 0 1 54.153 32c0 8.173-4.43 15.307-11.015 19.148l6.768-19.564c1.265-3.16 1.684-5.687 1.684-7.935 0-.815-.055-1.575-.15-2.28zm-39.675 1.614l10.568 28.954C14.943 48.346 9.847 40.769 9.847 32c0-3.212.689-6.262 1.918-9.017zM32.39 33.935l6.81 18.656c.044.11.098.213.158.308A22.134 22.134 0 0 1 32 54.153c-2.175 0-4.272-.318-6.257-.902z" fill="#F9F5D7"/>
</svg>
