<svg xmlns="http://www.w3.org/2000/svg" width="64" height="64" version="1">
    <path d="M23.261 14.013c-5.58.206-11.489 3.175-16.574 11.264C5.713 26.828 3.989 29.625 4 32.09c.01 2.412 1.712 5.086 2.687 6.638 12.517 19.912 30.021 8.786 35.361 1.849 1.107-1.438 3.09-2.039 4.53-1.223l11.765 6.648c1.44.813 2.059-.008 1.384-1.835L54.438 32.09l5.289-12.252c.675-1.828.056-2.65-1.384-1.836l-11.764 6.649c-1.44.815-3.424.214-4.531-1.224-3.171-4.119-10.631-9.717-18.787-9.415z" fill="#066678"/>
    <circle cx="15" cy="26" r="3" opacity=".2"/>
    <circle cx="15" cy="25" r="3" fill="#F9F5D7"/>
    <path d="M54.654 32.586l-.217.504 5.29 12.076c.091.248.155.474.2.683.126-.367.076-.935-.2-1.683zM23.26 14.014c-5.581.206-11.488 3.174-16.572 11.263C5.714 26.828 3.989 29.624 4 32.09c0 .157.027.316.041.475.205-2.33 1.74-4.845 2.647-6.287 5.084-8.09 10.99-11.06 16.572-11.266v.002c8.156-.302 15.616 5.295 18.787 9.414 1.106 1.438 3.09 2.038 4.53 1.222l11.765-6.646c.85-.48 1.405-.38 1.586.15.286-1.332-.342-1.853-1.586-1.15L46.578 24.65c-1.44.816-3.425.216-4.531-1.222-3.171-4.118-10.631-9.715-18.787-9.413z" opacity=".1" fill="#F9F5D7"/>
    <path d="M4.041 32.565c-.015.175-.042.353-.041.525.01 2.411 1.713 5.087 2.688 6.639 12.517 19.912 30.02 8.784 35.358 1.847 1.107-1.438 3.091-2.038 4.532-1.222l11.764 6.648c1.244.703 1.872.18 1.586-1.152-.18.53-.736.633-1.586.152l-11.763-6.648c-1.44-.815-3.425-.215-4.531 1.223-5.34 6.936-22.843 18.062-35.36-1.85-.911-1.451-2.44-3.881-2.646-6.162zm55.887-13.41c-.045.21-.11.435-.201.684l-5.29 12.25.217.497 5.073-11.748c.276-.749.326-1.316.201-1.684z" opacity=".2"/>
</svg>
