<svg xmlns="http://www.w3.org/2000/svg" width="64" height="64" version="1">
    <path d="M10 56v2c0 1.662 1.338 3 3 3h38c1.662 0 3-1.338 3-3v-2c0 1.662-1.338 3-3 3H13c-1.662 0-3-1.338-3-3z" opacity=".2"/>
    <path d="M13 4c-1.662 0-3 1.338-3 3v50c0 1.662 1.338 3 3 3h38c1.662 0 3-1.338 3-3V7c0-1.662-1.338-3-3-3H13z" fill="#448588"/>
    <path d="M13 4c-1.662 0-3 1.338-3 3v50c0 1.662 1.338 3 3 3h5V4zM38 5v28l4-4 4 4V5h-8z" opacity=".2"/>
    <path d="M38 4v28l4-4 4 4V4h-8z" fill="#F9F5D7"/>
    <path d="M13 4c-1.662 0-3 1.338-3 3v1c0-1.662 1.338-3 3-3h38c1.662 0 3 1.338 3 3V7c0-1.662-1.338-3-3-3H13z" opacity=".2" fill="#F9F5D7"/>
    <path d="M63.958 45.848A16 16 0 0 1 48 61a16 16 0 0 1-15.958-14.848A16 16 0 0 0 32 47a16 16 0 0 0 16 16 16 16 0 0 0 16-16 16 16 0 0 0-.042-1.152z" opacity=".2" fill-rule="evenodd"/>
    <circle cx="48" cy="46" r="16" fill="#8F3F71"/>
    <path d="M45.928 38l-.176 2.107a6.286 6.286 0 0 0-1.837 1.063l-1.916-.902-2 3.464 1.74 1.208a6.286 6.286 0 0 0-.097 1.06 6.286 6.286 0 0 0 .092 1.065L40 48.269l2 3.464 1.91-.9a6.286 6.286 0 0 0 1.842 1.056l.176 2.112h4l.177-2.107a6.286 6.286 0 0 0 1.837-1.063l1.915.902 2-3.464-1.739-1.208a6.286 6.286 0 0 0 .096-1.06 6.286 6.286 0 0 0-.091-1.065l1.734-1.203-2-3.464-1.91.9a6.286 6.286 0 0 0-1.842-1.057l-.177-2.111h-4zm2 5.714A2.286 2.286 0 0 1 50.214 46a2.286 2.286 0 0 1-2.286 2.286A2.286 2.286 0 0 1 45.642 46a2.286 2.286 0 0 1 2.286-2.286z" fill="#F9F5D7"/>
</svg>
