<svg xmlns="http://www.w3.org/2000/svg" width="64" height="64">
    <path d="M60 58.2V31H4v27.2C4 59.751 5.249 61 6.8 61h50.4c1.551 0 2.8-1.249 2.8-2.8z" opacity=".2"/>
    <rect width="56" height="56" x="4" y="4" rx="2.8" ry="2.8" fill="#8F3F71"/>
    <path d="M60 57.2V31H4v26.2C4 58.751 5.249 60 6.8 60h50.4c1.551 0 2.8-1.249 2.8-2.8z" fill="#8F3F71"/>
    <path d="M16 8h32v19H16m0-19M20 37h24v18H20m0-18" fill="#3A393A"/>
    <path d="M10 41v4H6v4h4v4h4v-4h4v-4h-4v-4zm42 0a2 2 0 0 0-2 2 2 2 0 0 0 2 2 2 2 0 0 0 2-2 2 2 0 0 0-2-2zm-4 4a2 2 0 0 0-2 2 2 2 0 0 0 2 2 2 2 0 0 0 2-2 2 2 0 0 0-2-2zm8 0a2 2 0 0 0-2 2 2 2 0 0 0 2 2 2 2 0 0 0 2-2 2 2 0 0 0-2-2zm-4 4a2 2 0 0 0-2 2 2 2 0 0 0 2 2 2 2 0 0 0 2-2 2 2 0 0 0-2-2z" opacity=".2"/>
    <g transform="matrix(1.33333 0 0 1.33333 -7.36 22.76)" fill="#F9F5D7">
        <rect width="3" height="9" x="13.02" y="12.93" ry="0"/>
        <rect width="3" height="9" x="15.93" y="-19.02" ry="0" transform="rotate(90)"/>
    </g>
    <g transform="matrix(1.33333 0 0 1.33333 13.381 1.043)" fill="#F9F5D7">
        <circle cx="31.964" cy="33.718" r="1.5"/>
        <g transform="translate(-4.556 16.288)">
            <circle cx="30.52" cy="17.43" r="1.5"/>
            <circle cx="14.43" cy="-33.52" r="1.5" transform="rotate(90)"/>
        </g>
        <circle cx="36.718" cy="-28.964" r="1.5" transform="rotate(90)"/>
    </g>
    <path opacity=".2" d="M4 31h56v2H4zM6 25h8v2H6zM6 21h8v2H6zM6 17h8v2H6zM50 25h8v2h-8zM50 21h8v2h-8zM50 17h8v2h-8z"/>
    <path d="M6.8 4C5.25 4 4 5.25 4 6.8v1C4 6.25 5.25 5 6.8 5h50.4C58.75 5 60 6.25 60 7.8v-1C60 5.25 58.75 4 57.2 4H6.8z" opacity=".2" fill="#F9F5D7"/>
</svg>
