<svg xmlns="http://www.w3.org/2000/svg" width="64" height="64" version="1">
    <rect width="60" height="60" x="-63" y="-62" rx="3" ry="3" transform="matrix(0 -1 -1 0 0 0)" opacity=".2"/>
    <rect width="60" height="60" x="-62" y="-62" rx="3" ry="3" transform="matrix(0 -1 -1 0 0 0)" fill="#8F3F71"/>
    <path d="M32 13c-6.41 0-11.901 5.591-11.901 12h5.8c0-3.19 2.91-6.2 6.1-6.2 3.19 0 6.101 2.612 6.101 5.802a5.663 5.663 0 0 1-1.71 4.086l-3.598 3.656C30.704 34.46 29.1 37.36 29.1 40.55V42h5.898v-1h-.058c.194-3.615 1.736-5.265 3.651-7.207l2.61-2.668a9.226 9.226 0 0 0 2.699-6.523c0-6.41-5.493-11.602-11.902-11.602zm-3 34v6h6v-6z" opacity=".2"/>
    <path d="M32 12c-6.41 0-11.901 5.591-11.901 12h5.8c0-3.19 2.91-6.2 6.1-6.2 3.19 0 6.101 2.612 6.101 5.802a5.663 5.663 0 0 1-1.71 4.086l-3.598 3.656C30.704 33.46 29.1 36.36 29.1 39.55V41h5.898v-1h-.058c.194-3.615 1.736-5.265 3.651-7.207l2.61-2.668a9.226 9.226 0 0 0 2.699-6.523c0-6.41-5.493-11.602-11.902-11.602zm-3 34v6h6v-6z" fill="#F9F5D7"/>
    <path d="M5 2C3.338 2 2 3.338 2 5v1c0-1.662 1.338-3 3-3h54c1.662 0 3 1.338 3 3V5c0-1.662-1.338-3-3-3H5z" fill="#F9F5D7" opacity=".1"/>
</svg>
