<svg xmlns="http://www.w3.org/2000/svg" width="64" height="64" version="1">
    <path d="M57.958 31.84A26 26 0 0 1 32 57 26 26 0 0 1 6.044 32.16 26 26 0 0 0 6 33a26 26 0 0 0 26 26 26 26 0 0 0 26-26 26 26 0 0 0-.042-1.16z" opacity=".2"/>
    <circle cx="32" cy="32" r="26" fill="#CB8819"/>
    <path d="M29.544 6.14a26 26 0 0 0-9.41 2.729c.131.416-.022.885-.5 1.3-.324.28-.59.717-.59.972 0 .78.706 1.977 1.268 2.151.748.232.496 1.03-.465 1.47-.444.205-.99.791-1.215 1.305-.224.515-.555 1.022-.734 1.128-.178.105-.325.507-.325.894 0 .539.246.8 1.056 1.124.58.232 1.274.402 1.544.376 1.548-.146 1.656.756.302 2.519-.719.936-1.064 1.171-1.554 1.054-.456-.11-.706.019-.914.472-.22.479-.578.642-1.54.708-.948.066-1.372.258-1.727.777-.26.379-.634.686-.833.686-.2 0-.668.254-1.041.563-.76.631-1.057.695-1.323.282-.352-.546-1.112-.27-2.242.812-1 .958-1.121 1.214-.97 2.044.268 1.479 1.07 2.79 1.985 3.248.8.399.815.442.33.954-.278.295-.756.611-1.06.704-.881.267-.386.603 1.185.802 1.607.204 2.107.787 1.356 1.582-.42.443-.395.525.276.947 1.314.826 2.358.32 1.125-.542-.792-.554-.238-.78.925-.378.926.32 1.11.302 1.658-.173 1.124-.974 2.345.467 1.317 1.554-.654.692-.455 1.528.391 1.643.375.051 1.152.4 1.73.774.577.376 1.206.683 1.396.683.19 0 .726.381 1.19.846.945.943 1.469 1.063 1.735.399.32-.8.191-1.211-.67-2.151-.686-.748-1.8-2.738-1.8-3.214 0-.295 1.133-.045 1.767.388.397.271 1.039.62 1.427.78.414.169.842.694 1.038 1.27.307.9.428.98 1.508.98h1.176l.178 2.112c.214 2.54.417 3.055 1.29 3.265.642.154 1.327 1.149 1.327 1.927 0 .207-.462.713-1.025 1.125-.7.51-1.002.945-.955 1.37.058.532-.062.615-.815.56-.486-.037-1.327.134-1.869.378a3.39 3.39 0 0 1-1.985.264c-.75-.135-1.003-.082-1.003.21 0 .216-.262.62-.582.897-.79.685-.464 1.048.75.83.753-.135 1.048-.075 1.177.249.277.69-.424 1.679-1.076 1.516-.413-.103-.611.037-.739.525-.045.173-.126.32-.223.445a26 26 0 0 0 4.113 1.216c-.13-.25-.278-.475-.422-.576-.67-.474-.222-1.703.701-1.925.94-.226.791-.835-.231-.952-.895-.102-1.849-1.009-1.549-1.473.201-.311 1.058-.266 2.79.145.783.185 1.318-.187 3.131-2.171 1.05-1.149 1.856-1.627 2.742-1.627.338 0 1.543-.31 2.68-.691 2.145-.718 2.983-.692 2.904.091-.165 1.63.885 1.576 2.595-.132.712-.712 1.363-1.226 1.447-1.145.327.313-.261 1.838-.947 2.455-.87.782-.913 1.276-.147 1.668.419.215.597.652.662 1.63l.09 1.336h1.086c.381 0 .697.052.952.15A26 26 0 0 0 57.96 32.816c-.397-.85-.369-1.364 0-1.942a26 26 0 0 0-.117-1.458 8.336 8.336 0 0 0-.756-.01c-1.31.054-2.433-.462-2.433-1.12 0-.138-.464-.711-1.033-1.272-.644-.635-.975-1.196-.878-1.488.087-.265-.102-.692-.437-.982-.326-.283-.594-.738-.594-1.01 0-.437-.278-.491-2.28-.443l-2.28.056.038 2.247c.067 3.937.654 4.958 2.463 4.299.828-.302 2.862-.074 3.44.386.21.166.512.769.673 1.34.16.572.756 1.56 1.325 2.196 1.153 1.29 1.242 1.793.582 3.306-.577 1.32-1.197 1.169-1.074-.264l.091-1.066-.975.183c-.54.101-1.216.5-1.518.893-.432.56-.634.643-.958.386-.225-.179-.408-.557-.408-.838 0-.28-.279-.592-.617-.695-.339-.103-.803-.614-1.031-1.138-.366-.837-.356-1.093.068-2.11.431-1.031.436-1.201.038-1.582-.364-.348-.552-.36-1.03-.073-.482.288-.708.266-1.28-.117-.382-.256-1.048-.467-1.48-.467-.878 0-1.143-.427-1.143-1.838 0-1.304-.778-1.778-2.628-1.608-1.285.119-1.568.034-2.605-.764-.64-.492-1.651-1.679-2.25-2.638a75.452 75.452 0 0 0-1.43-2.227c-.27-.383-.204-.75.326-1.795l.668-1.313-1.412.19c-2.512.34-3.02.666-1.94 1.245.42.225.44.341.114.716-.212.245-.313.633-.22.863.092.23-.025.77-.26 1.201-.234.431-.43 1.036-.439 1.346-.024.97-1.684 1.74-3.532 1.637-2.8-.154-3.027-.11-4.021.813-1.243 1.154-1.404 1.691-.826 2.762.562 1.04 1.557 1.454 3.28 1.369 1.543-.077 1.717.06 1.364 1.079-.3.865-1.306 1.199-1.988.658-.525-.418-2.336-.095-2.892.515-.233.256-.578.926-.767 1.488-.325.97-.42 1.029-1.876 1.17-1.453.142-1.593.095-2.638-.868-1.167-1.075-1.364-1.895-.802-3.31.249-.628.434-.73 1.1-.608 1.317.242 1.837-.217 1.837-1.625 0-.682-.132-1.32-.294-1.417-.162-.095-.295-.457-.295-.804 0-.348-.165-.794-.368-.99-.295-.287-.252-.44.219-.773.323-.228.853-.381 1.178-.342.324.039 1.22-.101 1.99-.31 1.115-.301 1.442-.529 1.592-1.115.286-1.113.984-2.006 1.57-2.006.924 0 .943-2.173.045-5.334-.134-.467-.498-.765-1.144-.925-.522-.13-1.09-.486-1.262-.792-.17-.306-.484-.556-.696-.556-.212 0-.626-.254-.919-.564-.295-.312-.905-.563-1.369-.563-1.098 0-1.116-.757-.027-1.156 1.15-.421 2.94.131 3.374 1.041.587 1.234 1.238.72 1.447-1.145.26-2.305 1.054-2.968 3.563-2.968h1.802l-.79-.79a3.143 3.143 0 0 1-.591-.842zm9.346.817c-.05.046-.1.083-.15.135-.602.615-.885.703-1.818.56-1.627-.247-1.418.408.384 1.2.974.427 1.6.915 1.813 1.409 1.027 2.38 1.734 3.662 2.09 3.793.717.264 1.145-.266 1.304-1.62.183-1.553.71-1.883 1.653-1.033.367.33.878.599 1.138.599.806 0 1.404.324 1.404.762 0 .23.272.786.607 1.236.492.662.826.82 1.747.82 1.129 0 1.822.211 3.237.993.022.012.044.016.066.028a26 26 0 0 0-13.472-8.882zM6.006 31.887a26 26 0 0 0-.005.112 26 26 0 0 0 .508 4.994c.942.384 1.202.232 1.3-.645.05-.453.287-.967.528-1.145.372-.274.305-.414-.457-.934-.493-.336-.98-.924-1.08-1.306-.096-.368-.423-.772-.794-1.076zm8.184 8.595c-.243-.026-.536.105-.861.416-.688.659-.584 1.981.195 2.504.893.599 1.238.424 1.351-.68.14-1.363-.152-2.184-.685-2.24zm4.412 3.93c-.265.01-.558.2-.85.6-.31.424-.396.971-.277 1.802.146 1.022.083 1.24-.452 1.514-.687.351-.833 1.396-.272 1.934.56.536 1.093.396 1.285-.337.274-1.045 1.803-1.168 2.849-.229.445.4.81.603.81.45 0-.154-.464-.711-1.03-1.237-.869-.805-1.03-1.149-1.03-2.186 0-1.465-.448-2.33-1.033-2.31zm-7.246 3.357a26 26 0 0 0 .602.76 4.72 4.72 0 0 0-.602-.759zm8.762 3.991c-.132.046-.187.21-.187.5 0 .294-.188.602-.417.686-.304.112-.374.464-.256 1.305.022.158.028.284.035.414a26 26 0 0 0 1.082.556c-.018-.45.064-.98.3-1.643.398-1.125.413-1.407.088-1.604-.305-.186-.512-.259-.645-.214z" opacity=".2"/>
    <path d="M31.998 6A26 26 0 0 0 6 32a26 26 0 0 0 .018.486A26 26 0 0 1 31.998 7H32a26 26 0 0 1 25.973 25.504 26 26 0 0 0 .025-.504A26 26 0 0 0 32 6h-.002z" opacity=".2" fill="#F9F5D7"/>
</svg>
