<svg xmlns="http://www.w3.org/2000/svg" width="64" height="64" version="1">
    <path d="M10 56v2c0 1.662 1.338 3 3 3h38c1.662 0 3-1.338 3-3v-2c0 1.662-1.338 3-3 3H13c-1.662 0-3-1.338-3-3z" opacity=".2"/>
    <path d="M54 57V7c0-1.662-1.338-3-3-3H13c-1.662 0-3 1.338-3 3v50c0 1.662 1.338 3 3 3h38c1.662 0 3-1.338 3-3z" fill="#F9BD2E"/>
    <path d="M14 9v48h36V25.828L33.172 9H14zm24.828 0L50 20.172V9H38.828z" opacity=".1"/>
    <path d="M14 8v48h36V24.828L33.172 8H14zm24.828 0L50 19.172V8H38.828z" fill="#F9F5D7"/>
    <path d="M13 4c-1.662 0-3 1.338-3 3v1c0-1.662 1.338-3 3-3h38c1.662 0 3 1.338 3 3V7c0-1.662-1.338-3-3-3H13z" opacity=".2" fill="#F9F5D7"/>
    <path d="M19.43 36.458l2.155.047c4.24.093 7.486.59 8.988 2.922 3.505 5.44-2.657 6.904-5.447 3.062-2.606-4.218-1.705-12.98 2.05-13.997 6.796-1.55 8.121 9.837 12.305 7.732 3.232-1.627-2.243-8.98.919-10.738 1.355-.754 4.189 1.682 4.189 1.682" fill="none" stroke="#151819" stroke-width="2.8" stroke-linecap="square" opacity=".5"/>
</svg>
