<svg xmlns="http://www.w3.org/2000/svg" width="64" height="64" version="1">
    <path d="M4.05 32c-.011.334-.05.662-.05 1 0 15.512 12.488 28 28 28 15.511 0 28-12.488 28-28 0-.338-.04-.666-.05-1C59.42 47.042 47.172 59 32 59 16.825 59 4.578 47.042 4.05 32z" opacity=".2"/>
    <rect width="56" height="56" x="4" y="4" rx="28" ry="28" fill="#F9F5D7"/>
    <circle cx="30" cy="-41" r="10" transform="scale(1 -1)" opacity=".2"/>
    <circle cx="30" cy="-40" r="10" transform="scale(1 -1)" fill="#CB8819"/>
    <circle cx="26" cy="-25" r="10" transform="scale(1 -1)" opacity=".2"/>
    <circle cx="26" cy="-24.001" r="10" transform="scale(1 -1)" fill="#CB8819"/>
    <circle cx="41.999" cy="-33" r="10" transform="scale(1 -1)" opacity=".2"/>
    <circle cx="41.999" cy="-32" r="10" transform="scale(1 -1)" fill="#504945"/>
    <path d="M32 4C16.488 4 4 16.488 4 32c0 .114.011.224.018.336C4.369 17.134 16.71 5 32 5c15.29 0 27.63 12.134 27.982 27.336.007-.112.018-.222.018-.336C60 16.488 47.512 4 32 4z" opacity=".2" fill="#F9F5D7"/>
</svg>
