<svg xmlns="http://www.w3.org/2000/svg" width="64" height="64" version="1">
    <path d="M60 33a28 28 0 0 1-28 28A28 28 0 0 1 4 33 28 28 0 0 1 32 5a28 28 0 0 1 28 28z" opacity=".2"/>
    <path d="M60 32a28 28 0 0 1-28 28A28 28 0 0 1 4 32 28 28 0 0 1 32 4a28 28 0 0 1 28 28z" fill="#FA4934"/>
    <path d="M48 34.464V24.1l4.2.7-4.783-4.87-7.274 1.206-3.327 7.155L18.6 19l5.6 9.8L13 26s14.506 13.365 14.878 13.594l-.922 1.074.4 1.413-8.6 4.919h11.18z" opacity=".2"/>
    <path d="M48 33.464V23.1l4.2.7-4.783-4.87-7.274 1.206-3.327 7.155L18.6 18l5.6 9.8L13 25s14.506 13.365 14.878 13.594l-.922 1.074.4 1.413-8.6 4.919h11.18z" fill="#F9F5D7"/>
    <path d="M32 4A28 28 0 0 0 4 32a28 28 0 0 0 .018.492A28 28 0 0 1 32 5a28 28 0 0 1 27.975 27.492A28 28 0 0 0 60 32 28 28 0 0 0 32 4z" opacity=".2" fill="#F9F5D7"/>
</svg>
