<svg xmlns="http://www.w3.org/2000/svg" width="64" height="64" version="1">
    <path d="M8 56.999v2c0 3.324 3.397 3.965 6 4 2.403.033 6-.676 6-4 0 3.324 3.596 4 6 4s5.92-1.215 6-4c0 3.324 3.597 4 6 4 2.404 0 5.92-1.215 6-4 0 3.324 3.597 4 6 4 2.404 0 6-.676 6-4v-2c0 3.324-3.596 4-6 4-2.403 0-6-.676-6-4-.08 2.785-3.596 4-6 4-2.403 0-6-.676-6-4-.08 2.785-3.596 4-6 4s-6-.676-6-4c0 3.324-3.597 4.033-6 4-2.603-.035-6-.676-6-4z" opacity=".2"/>
    <path d="M28.47 2C17.177 2 8.084 11.621 8.008 23.6H8V58c0 3.325 3.396 3.965 6 4 2.403.033 6-.675 6-4 0 3.325 3.596 4 6 4 2.403 0 5.92-1.214 6-4 0 3.325 3.596 4 6 4s5.92-1.214 6-4c0 3.325 3.597 4 6 4 2.404 0 6-.675 6-4V23.6h-.008C55.916 11.621 46.822 2 35.53 2z" fill="#73C48F"/>
    <g transform="translate(0 1) scale(2.00003)" opacity=".2">
        <rect width="6" height="6" x="9" y="9" ry="3"/>
        <rect width="2" height="2" x="13" y="11" ry="1"/>
    </g>
    <g transform="scale(2.00003)">
        <rect width="6" height="6" x="9" y="9" ry="3" fill="#F9F5D7"/>
        <rect width="2" height="2" x="13" y="11" ry="1" fill="#504945"/>
    </g>
    <g transform="translate(22 1) scale(2.00003)" opacity=".2">
        <rect width="6" height="6" x="9" y="9" ry="3"/>
        <rect width="2" height="2" x="13" y="11" ry="1"/>
    </g>
    <g transform="translate(22) scale(2.00003)">
        <rect width="6" height="6" x="9" y="9" ry="3" fill="#F9F5D7"/>
        <rect width="2" height="2" x="13" y="11" ry="1" fill="#504945"/>
    </g>
    <path d="M28.469 2C17.176 2 8.084 11.622 8.008 23.602H8v1h.008C8.084 12.622 17.176 3 28.468 3h7.063c11.292 0 20.385 9.622 20.461 21.602H56v-1h-.008C55.916 11.622 46.823 2 35.532 2h-7.063z" opacity=".2" fill="#F9F5D7"/>
</svg>
