<svg xmlns="http://www.w3.org/2000/svg" width="64" height="64" version="1">
    <path d="M5.9 7A2.888 2.888 0 0 0 3 9.889V56.11C3 57.711 4.293 59 5.9 59h52.2c1.607 0 2.9-1.288 2.9-2.889V9.89C61 8.289 59.707 7 58.1 7z" opacity=".2"/>
    <path d="M5.9 6A2.888 2.888 0 0 0 3 8.889V55.11C3 56.711 4.293 58 5.9 58h52.2c1.607 0 2.9-1.288 2.9-2.889V8.89C61 7.289 59.707 6 58.1 6z" fill="#8F3F71"/>
    <g transform="matrix(2 0 0 2 1 1)" fill="#F9F5D7">
        <circle cx="-15.5" cy="8.5" r="1.5" transform="scale(-1 1)" opacity=".6"/>
        <circle cx="-15.5" cy="22.5" r="1.5" transform="scale(-1 1)"/>
        <circle cx="-15.5" cy="-22.5" r="1.5" transform="matrix(0 -1 -1 0 0 0)" opacity=".4"/>
        <circle cx="-15.5" cy="-8.5" r="1.5" transform="matrix(0 -1 -1 0 0 0)" opacity=".8"/>
        <circle cy="-28.92" r="1.5" transform="scale(1 -1) rotate(45)" opacity=".3"/>
        <circle cy="-14.92" r="1.5" transform="scale(1 -1) rotate(45)" opacity=".7"/>
        <circle cx="-21.92" cy="-7" r="1.5" transform="rotate(-135)" opacity=".9"/>
        <circle cx="-21.92" cy="7" r="1.5" transform="rotate(-135)" opacity=".5"/>
    </g>
    <path d="M5.898 6A2.888 2.888 0 0 0 3 8.89v1C3 8.29 4.292 7 5.898 7h52.204A2.888 2.888 0 0 1 61 9.89v-1C61 7.29 59.708 6 58.102 6H5.898z" opacity=".1" fill="#F9F5D7"/>
    <path d="M29.043 18.486A3 3 0 0 0 29 19a3 3 0 0 0 3 3 3 3 0 0 0 3-3 3 3 0 0 0-.043-.486A3 3 0 0 1 32 21a3 3 0 0 1-2.957-2.514zm-9.898 4.108a3 3 0 0 0 .834 2.629 3 3 0 0 0 4.244 0 3 3 0 0 0 .834-2.616 3 3 0 0 1-.834 1.616 3 3 0 0 1-4.244 0 3 3 0 0 1-.834-1.63zm19.798 0a3 3 0 0 0 .834 2.629 3 3 0 0 0 4.244 0 3 3 0 0 0 .834-2.616 3 3 0 0 1-.834 1.616 3 3 0 0 1-4.244 0 3 3 0 0 1-.834-1.63zm-23.9 9.892A3 3 0 0 0 15 33a3 3 0 0 0 3 3 3 3 0 0 0 3-3 3 3 0 0 0-.043-.486A3 3 0 0 1 18 35a3 3 0 0 1-2.957-2.514zm28 0A3 3 0 0 0 43 33a3 3 0 0 0 3 3 3 3 0 0 0 3-3 3 3 0 0 0-.043-.486A3 3 0 0 1 46 35a3 3 0 0 1-2.957-2.514zm-23.898 9.907a3 3 0 0 0 .834 2.628 3 3 0 0 0 4.244 0 3 3 0 0 0 .834-2.615 3 3 0 0 1-.834 1.615 3 3 0 0 1-4.244 0 3 3 0 0 1-.834-1.628zm19.798 0a3 3 0 0 0 .834 2.628 3 3 0 0 0 4.244 0 3 3 0 0 0 .834-2.615 3 3 0 0 1-.834 1.615 3 3 0 0 1-4.244 0 3 3 0 0 1-.834-1.628zm-9.9 4.093A3 3 0 0 0 29 47a3 3 0 0 0 3 3 3 3 0 0 0 3-3 3 3 0 0 0-.043-.486A3 3 0 0 1 32 49a3 3 0 0 1-2.957-2.514z" opacity=".2"/>
</svg>
