<svg xmlns="http://www.w3.org/2000/svg" width="64" height="64">
    <path d="M32 33A28 14 0 0 0 4 47a28 14 0 0 0 28 14 28 14 0 0 0 28-14 28 14 0 0 0-28-14z" opacity=".2"/>
    <path d="M32 32A28 14 0 0 0 4 46a28 14 0 0 0 28 14 28 14 0 0 0 28-14 28 14 0 0 0-28-14z" fill="#665C54"/>
    <path d="M32 19A28 14 0 0 0 4 33a28 14 0 0 0 28 14 28 14 0 0 0 28-14 28 14 0 0 0-28-14z" opacity=".2"/>
    <path d="M32 18A28 14 0 0 0 4 32a28 14 0 0 0 28 14 28 14 0 0 0 28-14 28 14 0 0 0-28-14z" fill="#928274"/>
    <path d="M32 5A28 14 0 0 0 4 19a28 14 0 0 0 28 14 28 14 0 0 0 28-14A28 14 0 0 0 32 5z" opacity=".2"/>
    <path d="M32 4A28 14 0 0 0 4 18a28 14 0 0 0 28 14 28 14 0 0 0 28-14A28 14 0 0 0 32 4z" fill="#F9F5D7"/>
    <path d="M32 4A28 14 0 0 0 4 18a28 14 0 0 0 .041.41A28 14 0 0 1 32 5a28 14 0 0 1 27.953 13.537A28 14 0 0 0 60 18 28 14 0 0 0 32 4z" opacity=".2" fill="#F9F5D7"/>
    <path d="M63.958 45.848A16 16 0 0 1 48 61a16 16 0 0 1-15.958-14.848A16 16 0 0 0 32 47a16 16 0 0 0 16 16 16 16 0 0 0 16-16 16 16 0 0 0-.043-1.152z" opacity=".2" fill-rule="evenodd"/>
    <circle cx="21" cy="23" r="8" fill="#73C48F" transform="matrix(2 0 0 2 6 0)"/>
    <path d="M57 46l-7 4-7 4V38l7 4z" fill="#F9F5D7"/>
</svg>
