<svg xmlns="http://www.w3.org/2000/svg" width="64" height="64" version="1">
    <path d="M10 54.2v2c0 1.55 1.25 2.8 2.8 2.8h38.4c1.55 0 2.8-1.25 2.8-2.8v-2c0 1.55-1.25 2.8-2.8 2.8H12.8c-1.55 0-2.8-1.25-2.8-2.8z" opacity=".2"/>
    <path d="M54 55.2V6.8C54 5.249 52.752 4 51.2 4H12.8A2.794 2.794 0 0 0 10 6.8v48.4c0 1.552 1.249 2.8 2.8 2.8h38.4c1.551 0 2.8-1.249 2.8-2.8z" fill="#504945"/>
    <path opacity=".2" d="M20 8h24v20H20z"/>
    <g opacity=".2">
        <path d="M12 9h6v6h-6zM12 19h6v6h-6zM12 29h6v6h-6zM12 39h6v6h-6zM12 49h6v6h-6zM46 9h6v6h-6zM46 19h6v6h-6zM46 29h6v6h-6zM46 39h6v6h-6zM46 49h6v6h-6z"/>
    </g>
    <g fill="#F9F5D7">
        <path d="M12 8h6v6h-6zM12 18h6v6h-6zM12 28h6v6h-6zM12 38h6v6h-6zM12 48h6v6h-6zM46 8h6v6h-6zM46 18h6v6h-6zM46 28h6v6h-6zM46 38h6v6h-6zM46 48h6v6h-6z"/>
    </g>
    <path opacity=".2" d="M20 34h24v20H20z"/>
    <path d="M12.8 4C11.25 4 10 5.25 10 6.8v1C10 6.25 11.25 5 12.8 5h38.401C52.751 5 54 6.25 54 7.8v-1C54 5.25 52.751 4 51.201 4h-38.4z" opacity=".1" fill="#F9F5D7"/>
    <path d="M63.958 45.848A16 16 0 0 1 48 61a16 16 0 0 1-15.958-14.848A16 16 0 0 0 32 47a16 16 0 0 0 16 16 16 16 0 0 0 16-16 16 16 0 0 0-.043-1.152z" opacity=".2" fill-rule="evenodd"/>
    <circle cx="48" cy="46" r="16" fill="#8F3F71"/>
    <path d="M48 37a9 9 0 0 0-9 9 9 9 0 0 0 9 9 9 9 0 0 0 8.475-6h-3.286A6 6 0 0 1 48 52a6 6 0 0 1-6-6 6 6 0 0 1 6-6 6 6 0 0 1 4.71 2.29L50 45h7v-7l-2.16 2.16A9 9 0 0 0 48 37z" fill="#F9F5D7"/>
</svg>
