<svg xmlns="http://www.w3.org/2000/svg" width="64" height="64">
    <path d="M42.684 42.418C38.2 50.39 34.762 51.196 32 49.56c-2.761-1.637-3.8-5.096.683-13.068 4.484-7.973 13.555-16.989 16.638-17.728.917 3.11-2.154 15.682-6.638 23.654z" opacity=".2"/>
    <path d="M25.042 38.594C32.81 43.196 33.594 46.726 32 49.56c-1.594 2.834-4.964 3.902-12.73-.702C11.502 44.256 2.72 34.944 2 31.78c3.03-.942 15.276 2.21 23.042 6.814z" opacity=".2"/>
    <path d="M25.042 37.594C32.81 42.196 33.594 45.726 32 48.56c-1.594 2.834-4.964 3.902-12.73-.702C11.502 43.256 2.72 33.944 2 30.78c3.03-.942 15.276 2.21 23.042 6.814z" fill="#73C48F"/>
    <path d="M31.316 36.492C35.8 44.464 34.762 47.924 32 49.56c-2.762 1.636-6.2.83-10.684-7.142-4.483-7.972-7.554-20.544-6.637-23.654 3.083.74 12.154 9.755 16.638 17.727z" opacity=".2"/>
    <path d="M31.316 35.492C35.8 43.464 34.762 46.924 32 48.56c-2.762 1.636-6.2.83-10.684-7.142-4.483-7.972-7.554-20.544-6.637-23.654 3.083.74 12.153 9.756 16.637 17.728z" fill="#7CB668"/>
    <path d="M37.774 38.892c0 9.206-2.585 11.668-5.774 11.668-3.188 0-5.773-2.462-5.773-11.668S29.69 17.222 32 15c2.31 2.222 5.774 14.686 5.774 23.892z" opacity=".2"/>
    <path d="M37.774 36.892c0 9.206-2.585 11.668-5.774 11.668-3.188 0-5.773-2.462-5.773-11.668S29.69 15.222 32 13c2.31 2.222 5.774 14.686 5.774 23.892z" fill="#7CB668"/>
    <path d="M42.684 41.418C38.2 49.39 34.762 50.196 32 48.56c-2.762-1.636-3.8-5.096.684-13.068 4.484-7.972 13.554-16.989 16.636-17.728.918 3.11-2.152 15.682-6.636 23.654z" fill="#7CB668"/>
    <path d="M44.73 48.858c-7.766 4.604-11.136 3.536-12.73.702-1.594-2.834-.81-6.364 6.958-10.966C46.724 33.99 58.97 30.838 62 31.78c-.72 3.164-9.503 12.476-17.27 17.079z" opacity=".2"/>
    <path d="M42.684 40.418C38.2 48.39 34.762 49.196 32 47.56c-2.762-1.636-3.8-5.096.684-13.068 4.484-7.972 13.554-16.989 16.636-17.728.918 3.11-2.152 15.682-6.636 23.654z" fill="#7CB668"/>
    <path d="M44.73 47.858c-7.766 4.604-11.136 3.536-12.73.702-1.594-2.834-.81-6.364 6.958-10.966C46.724 32.99 58.97 29.838 62 30.78c-.72 3.164-9.503 12.476-17.27 17.079z" fill="#578D57"/>
</svg>
