<svg xmlns="http://www.w3.org/2000/svg" width="64" height="64" version="1">
    <path d="M6 49.2v2c0 3.9 3.9 7.8 7.8 7.8h36.4c3.9 0 7.8-3.9 7.8-7.8 0-.568-.022-1.126-.04-1.684C57.758 53.306 53.994 57 50.2 57H13.8C9.903 57 6 53.1 6 49.2z" opacity=".2"/>
    <path d="M58 50.2C58 24.2 39.8 6 13.8 6 9.9 6 6 9.9 6 13.8v36.4c0 3.9 3.9 7.8 7.8 7.8h36.4c3.9 0 7.8-3.9 7.8-7.8z" fill="#CB8819"/>
    <path d="M12 20c0 2.113.898 3 3 3 14.912 0 27 12.088 27 27 0 1.866 1.017 3 3 3 2.04 0 3-1.192 3-3 0-18.226-14.774-33-33-33-1.995 0-3 .972-3 3zm0 12c0 2.055.84 3 3 3 8.284 0 15 6.716 15 15 0 1.766 1.013 3 3 3 1.938 0 3-1.076 3-3 0-11.598-9.402-21-21-21-1.937 0-3 .856-3 3zm6 9a6 6 0 1 0 0 12 6 6 0 0 0 0-12z" opacity=".2"/>
    <path d="M12 19c0 2.113.898 3 3 3 14.912 0 27 12.088 27 27 0 1.866 1.017 3 3 3 2.04 0 3-1.192 3-3 0-18.226-14.774-33-33-33-1.995 0-3 .972-3 3zm0 12c0 2.055.84 3 3 3 8.284 0 15 6.716 15 15 0 1.766 1.013 3 3 3 1.938 0 3-1.076 3-3 0-11.598-9.402-21-21-21-1.937 0-3 .856-3 3zm6 9a6 6 0 1 0 0 12 6 6 0 0 0 0-12z" fill="#F9F5D7"/>
    <path d="M13.8 6C9.9 6 6 9.9 6 13.8v1C6 10.9 9.9 7 13.8 7c25.714 0 43.786 17.807 44.18 43.35.01-.05.02-.1.02-.15C58 24.2 39.8 6 13.8 6z" opacity=".1" fill="#F9F5D7"/>
</svg>
