<svg xmlns="http://www.w3.org/2000/svg" width="64" height="64" version="1">
    <path d="M26 43v2h2v-2h-2zm6 4v2h2v-2h-2zm-12 4v2h2v-2h-2zm18 0v2h2v-2h-2zm-24 4v2h2v-2h-2zm30 0v2h2v-2h-2zm6 2v2h2v-2h-2zm2 2v2h8l-1-2h-7zm-2 0h-4v2h4v-2zM5 59l-1 2h10v-2H5zm11 0v2h4v-2h-4zm6 0v2h4v-2h-4zm6 0v2h4v-2h-4zm6 0v2h4v-2h-4zm6 0v2h4v-2h-4z" opacity=".2"/>
    <path d="M32 4L18 32 4 60h10v-4h2v4h4v-8h2v8h4V44h2v16h4V48h2v12h4v-8h2v8h4v-4h2v4h4v-2h2v2h8L46 32 32 4z" fill="#CB241D"/>
    <path d="M32 4L18 32 4 60h.5L18 33 32 5l14 28 13.5 27h.5L46 32 32 4z" opacity=".2" fill="#F9F5D7"/>
</svg>
