<svg xmlns="http://www.w3.org/2000/svg" width="64" height="64" version="1">
    <path d="M16 51.376v2C16 54.83 17.19 56 18.668 56h26.664C46.81 56 48 54.83 48 53.376v-2C48 52.83 46.81 54 45.332 54H18.668C17.191 54 16 52.83 16 51.376z" opacity=".2"/>
    <rect width="42" height="32" x="-55" y="-48" rx="2.626" ry="2.666" transform="matrix(0 -1 -1 0 0 0)" fill="#928274"/>
    <path d="M6 45.5v2C6 48.884 7.162 50 8.602 50h46.796C56.838 50 58 48.884 58 47.5v-2c0 1.384-1.162 2.5-2.602 2.5H8.602C7.162 48 6 46.884 6 45.5z" opacity=".2"/>
    <rect width="40" height="52" x="-49" y="-58" rx="2.5" ry="2.6" transform="matrix(0 -1 -1 0 0 0)" fill="#3A393A"/>
    <path d="M8.602 9C7.162 9 6 10.115 6 11.5v1C6 11.115 7.161 10 8.602 10h46.796C56.838 10 58 11.115 58 12.5v-1c0-1.385-1.162-2.5-2.602-2.5H8.602z" opacity=".1" fill="#F9F5D7"/>
    <rect width="32" height="44" x="-46" y="-54" rx="0" ry="0" transform="matrix(0 -1 -1 0 0 0)" opacity=".2"/>
    <rect width="32" height="44" x="-45" y="-54" rx="0" ry="0" transform="matrix(0 -1 -1 0 0 0)" fill="#066678"/>
    <rect width="16" height="24" x="14" y="18" rx="2.667" ry="2.4" opacity=".2"/>
    <rect width="16" height="24" x="14" y="17" rx="2.667" ry="2.4" fill="#48B9C7"/>
    <rect width="16" height="10" x="34" y="18" rx="2.667" ry="2.5" opacity=".2"/>
    <rect width="16" height="10" x="34" y="17" rx="2.667" ry="2.5" fill="#48B9C7"/>
    <rect width="16" height="10" x="34" y="32" rx="2.667" ry="2.5" opacity=".2"/>
    <rect width="16" height="10" x="34" y="31" rx="2.667" ry="2.5" fill="#48B9C7"/>
    <path d="M16.668 17C15.191 17 14 18.069 14 19.398v1C14 19.068 15.19 18 16.668 18h10.664C28.809 18 30 19.069 30 20.398v-1C30 18.068 28.81 17 27.332 17H16.668zM36.668 17C35.191 17 34 18.115 34 19.5v1c0-1.385 1.19-2.5 2.668-2.5h10.664C48.809 18 50 19.115 50 20.5v-1c0-1.385-1.19-2.5-2.668-2.5H36.668zM36.668 31C35.191 31 34 32.115 34 33.5v1c0-1.385 1.19-2.5 2.668-2.5h10.664C48.809 32 50 33.115 50 34.5v-1c0-1.385-1.19-2.5-2.668-2.5H36.668z" opacity=".1" fill="#F9F5D7"/>
</svg>
