<svg xmlns="http://www.w3.org/2000/svg" width="64" height="64" version="1">
    <rect width="56" height="56" x="4" y="5" rx="28.001" ry="28" opacity=".2"/>
    <circle cx="32" cy="32" r="28" fill="#066678"/>
    <path d="M32 5.051a27.95 27.95 0 0 0-3.549.26l1.238 3.38-.127.128-1.029-.514-.644.772 1.416 1.03.771-.517-.129-.771a42.153 42.153 0 0 0 5.022 1.931l1.156 1.93 1.031.514 1.414-2.83-1.029-1.159V8.05l2.522-1.8A27.95 27.95 0 0 0 32 5.05zm9.615 1.742l-.86.096-.513 1.287-1.416.516 1.287 1.156c.8-.554 1.517-1.117 2.317-1.672l1.287-.387c.526.36 1.025.785 1.54 1.159l.13.257.384 1.032h1.288l-.418-1.004a27.95 27.95 0 0 0-5.026-2.44zm3.772 2.412l-1.03-.646-1.158.518v1.027h1.031zm-26.963-.6a27.95 27.95 0 0 0-2.752 1.753h.506l-1.416 1.545-.455-.516a27.95 27.95 0 0 0-9.91 17.457c.395-.383.81-.725 1.232-1.115l1.285.127 1.158-1.285v1.54l-1.029.774-.643.9-.9-1.158c-.222.424-.424.988-.645 1.414v1.16l1.032 1.157 1.8 1.287 1.286 1.416c-.648-.047-1.268-.175-1.93-.26v.902l1.416 3.344 1.158 1.29 1.03 2.187v3.603l-.387 1.412.513.647 1.29.771 1.285 1.028-1.159 1.158 1.545 1.287-.26.9L15 55.143a27.95 27.95 0 0 0 .834.633h1.115l1.287.771h.772v-1.029l.258-2.059c.426-1.278.964-2.461 1.416-3.73 0-.937-.074-1.894-.13-2.83l-.642-1.29.9-1.54-.128-2.059 1.027-1.16-.514-1.8.903-1.028h1.414l.513-.516 1.545.9.514-.642L27.5 38.92c.936-1.082 1.893-2.133 2.83-3.215l1.158-2.7-1.031-1.546.518-.513-1.159-2.961a106.612 106.612 0 0 0-3.087-3.729l-1.93-.517-2.059-.258-1.416.387-2.058 2.058-.772-.771-.9-.13-1.93.643h-1.416l-1.027-.898-.389-.643.902-.644 1.801-.13c.459-.649.87-1.354 1.414-1.93l.516.261.258 1.668.9-1.154.256-1.29 1.031-.898h.514l-1.158 1.285.515 1.158.9.258-.642-1.16 1.027-.514.903-1.027 1.67.385.129.514 1.03.642.514 1.416 1.417.643.642-.643h.643v-2.314L26.6 19.88H25.44l.258-.902.903-.9-1.545-.256-.772-.903-.646-1.156h-1.284l.385-.902-.773-.514v1.03l-1.672.386-1.672-1.416-.129-.643-1.416-1.03c.518.065 1.039.116 1.545.257v-1.156l-.514-1.29h.514l1.287 1.16.256.643-.256.899.514 1.545.9-.514.774-.9 1.156.9.514-2.058-2.188-1.416v-.772l-1.283-.898zM47.44 9.724l.13 1.41 1.16 1.156 2.7 1.545-.386 1.159-2.059.771-.256 1.545-.775-1.674-1.156-.514.129-.644-1.158-2.188-1.543.903.257 1.027-1.289-.514-.642 1.159.258.771-.772.129-.644.643.255.644-.898.643.771 1.156.26-1.67 1.67.643h1.287l1.803.771h-2.832l.9 1.545 1.932.385.898 1.16 1.545.64.643 1.932 2.059 1.672.257 2.445 1.159-1.416 1.542-.386.26.771h1.285l1.672 1.16.13 1.543-.13 1.285-1.029.643-.772-.385-.771-1.027h-.773c.107.865.277 1.836.384 2.701l-1.283-.129v1.287l-.387 1.285c-.518.326-1.218.342-1.8.514v-.256L49.5 34.164l-1.93 1.413-2.058-.256-.9 2.314-1.544.387-.9 1.8c-1.743.915-3.393 1.814-5.148 2.702l.128 1.803 1.288 1.8-.13 2.573.772 1.931 1.674.385.643 1.158-.258.643 1.031 2.83 1.414.387.256.902.902.898-.027.057a27.95 27.95 0 0 0 3.697-2.307l-.453-1.994.645-1.416-.13-2.701.901-1.16 1.93-1.799 1.93-3.475-.514-1.93.129-.513-.645-.902-.771-2.446v-.127l.642-.386.774.258 1.54-1.157.903-1.289 2.316-.642 2.188-1.287.133-.247A27.95 27.95 0 0 0 47.44 9.723zm-21.228 2.053a23.98 23.98 0 0 0-.9 2.185l-.899.9 1.027.903 1.288.258-.256-1.674v-1.16l.513-.643v-.77zm1.93 1.672l-.514 1.156 1.158.642.129-1.54zM13.09 27.213l.389.256-.518 1.932-.898 1.027c-.535 1.574-1.102 3.126-1.803 4.631-.387 0-.78.025-1.156 0l.9-1.027-.516-1.16.9-1.028 1.546-3.217z" opacity=".2"/>
    <path d="M32 4.05a27.95 27.95 0 0 0-3.549.26l1.238 3.381-.127.127-1.029-.513-.644.771 1.416 1.031.771-.517-.129-.772A42.153 42.153 0 0 0 34.97 9.75l1.156 1.93 1.031.513 1.414-2.83-1.029-1.158V7.05l2.522-1.801A27.95 27.95 0 0 0 32 4.051zm9.615 1.743l-.86.096-.513 1.287-1.416.515 1.287 1.157c.8-.554 1.517-1.118 2.317-1.672l1.287-.387c.526.36 1.025.785 1.54 1.158l.13.258.384 1.031h1.288l-.418-1.004a27.95 27.95 0 0 0-5.026-2.439zm3.772 2.412l-1.03-.646-1.158.517v1.028h1.031l1.157-.899zm-26.963-.6a27.95 27.95 0 0 0-2.752 1.752h.506l-1.416 1.545-.455-.515a27.95 27.95 0 0 0-9.91 17.457c.395-.383.81-.725 1.232-1.115l1.285.126 1.158-1.285v1.541l-1.029.774-.643.9-.9-1.158c-.222.424-.424.988-.645 1.414v1.16l1.032 1.156 1.8 1.288 1.286 1.416c-.648-.047-1.268-.175-1.93-.26v.902l1.416 3.344 1.158 1.289 1.03 2.187v3.604l-.387 1.412.513.647 1.29.771 1.285 1.027-1.159 1.159 1.545 1.287-.26.9L15 54.143a27.95 27.95 0 0 0 .834.632h1.115l1.287.772h.772v-1.03l.258-2.058c.426-1.278.964-2.462 1.416-3.73 0-.937-.074-1.894-.13-2.83l-.642-1.29.9-1.54-.128-2.06 1.027-1.16-.514-1.8.903-1.028h1.414l.513-.515 1.545.9.514-.642L27.5 37.92c.936-1.082 1.893-2.133 2.83-3.215l1.158-2.701-1.031-1.545.518-.514-1.159-2.96a106.612 106.612 0 0 0-3.087-3.73l-1.93-.517-2.059-.258-1.416.387-2.058 2.059-.772-.772-.9-.129-1.93.643h-1.416l-1.027-.898-.389-.643.902-.645 1.801-.128c.459-.65.87-1.355 1.414-1.932l.516.262.258 1.668.9-1.155.256-1.289 1.031-.898h.514l-1.158 1.285.515 1.158.9.258-.642-1.16 1.027-.514.903-1.027 1.67.385.129.513 1.03.643.515 1.416 1.416.642.642-.642h.643v-2.315l-1.414-.771H25.44l.258-.902.903-.9-1.545-.257-.772-.902-.646-1.156h-1.284l.385-.903-.773-.513v1.029l-1.672.387-1.672-1.416-.129-.643-1.416-1.031c.518.066 1.039.117 1.545.258v-1.157l-.514-1.289h.514l1.287 1.16.256.643-.256.899.514 1.544.9-.513.774-.9 1.156.9.514-2.059-2.188-1.416v-.771l-1.283-.899-1.873-.469zM47.44 8.723l.13 1.41 1.16 1.156 2.7 1.545-.386 1.158-2.059.772-.256 1.545-.775-1.674-1.156-.514.129-.644-1.158-2.188-1.543.902.257 1.028-1.289-.514-.642 1.158.258.772-.772.129-.644.642.255.645-.898.642.771 1.157.26-1.67 1.67.642h1.287l1.803.772h-2.832l.9 1.545 1.932.384.898 1.16 1.545.641.643 1.932 2.059 1.672.257 2.445 1.159-1.416 1.542-.387.26.772h1.285l1.672 1.16.13 1.543-.13 1.285-1.029.643-.772-.385-.771-1.027h-.773c.107.864.277 1.836.384 2.7l-1.283-.128v1.287l-.387 1.285c-.518.325-1.218.342-1.8.514v-.256L49.5 33.164l-1.93 1.412-2.058-.256-.9 2.315-1.544.386-.9 1.801c-1.743.915-3.393 1.813-5.148 2.701l.128 1.803 1.288 1.801-.13 2.572.772 1.932 1.674.385.643 1.158-.258.642 1.031 2.83 1.414.387.256.903.902.898-.027.057a27.95 27.95 0 0 0 3.697-2.307l-.453-1.994.645-1.416-.13-2.701.901-1.16 1.93-1.8 1.93-3.474-.514-1.93.129-.513-.645-.903-.771-2.445v-.127l.642-.387.774.258 1.54-1.156.903-1.29 2.316-.642 2.188-1.287.133-.246A27.95 27.95 0 0 0 47.44 8.723zm-21.228 2.052a23.98 23.98 0 0 0-.9 2.186l-.899.9 1.027.903 1.288.257-.256-1.673v-1.16l.513-.643v-.77h-.773zm1.93 1.672l-.514 1.157 1.158.642.129-1.54-.773-.259zM13.09 26.213l.389.256-.518 1.931-.899 1.028c-.534 1.574-1.1 3.126-1.802 4.63-.387 0-.78.025-1.156 0l.9-1.027-.516-1.16.9-1.027 1.546-3.217 1.156-1.414z" fill="#48B9C7"/>
    <path d="M32 4.006c-15.511 0-28 12.488-28 27.998 0 .113.011.223.018.334C4.368 17.138 16.71 5.004 32 5.004c15.29 0 27.632 12.133 27.982 27.334.007-.111.018-.221.018-.334 0-15.51-12.489-27.998-28-27.998z" opacity=".2" fill="#F9F5D7"/>
</svg>
