<svg xmlns="http://www.w3.org/2000/svg" width="64" height="64" version="1">
    <path d="M4.05 32c-.011.335-.05.663-.05 1 0 15.512 12.488 28 28 28 15.511 0 27.999-12.488 27.999-28 0-.337-.04-.665-.051-1-.528 15.042-12.776 27-27.95 27C16.826 59 4.579 47.042 4.05 32z" opacity=".2"/>
    <path d="M32 4.001c-15.512 0-28 12.488-28 28C4 47.512 16.488 60 32 60c15.511 0 28-12.488 28-28C60 16.49 47.51 4.002 32 4.002z" fill="#D79921"/>
    <path d="M32 4.002C16.488 4.002 4 16.488 4 32c0 .098.011.194.018.291C4.392 17.111 16.726 5 32 5s27.608 12.11 27.982 27.291c.007-.097.018-.193.018-.291A27.938 27.938 0 0 0 32 4.002z" opacity=".2" fill="#F9F5D7"/>
    <path d="M26.084 21.014c-.796.04-1.578.192-2.04.441-1.549.836-2.692 1.934-3.015 3.719-.085.468-.206.907-.27.972-.062.066-.372.046-.687-.045-.73-.21-1.777.034-2.67.624-.707.467-1.364 2.06-1.533 3.048-.095.558-.129.186-.683.186-.45 0-.653.092-.893.41-.408.54-.391.822.059 1.29.364.378.395.382 3.109.38 1.009 0 1.77-.028 2.295-.063.3-.637.69-1.244 1.213-1.787 2.224-2.314 5.654-2.66 8.35-1.173.672-1.179 1.507-2.192 2.501-2.96-.004-.123-.134-.642-.297-1.18-.527-1.737-1.67-2.985-3.33-3.636-.506-.198-1.313-.267-2.109-.226zm11.861 4.998c-1.588-.03-3.229.44-4.677 1.441-1.385.956-2.367 2.04-2.893 3.775-.14.465-.32.846-.396.846-.078 0-.37-.51-.65-.767-1.997-1.823-5.02-1.705-6.919.27-1.412 1.468-1.672 4.036-.953 5.985.076.206-.6.368-1.299.735-1.045.549-1.723 1.33-1.98 2.285-.463 1.718.868 3.545 2.683 4.219.76.282 2.227.261 3.102-.043.648-.226 1.284-.82 5.174-4.83 5.124-5.285 5.316-5.926 7.412-5.934 1.06-.004 1.82.058 2.703.51 1.202.615 2.083 2.09 2.512 3.283.4 1.109.402 2.458.01 3.129-.345.587-1.593 1.137-2.264 1.137-.667 0-1.787-.584-2.059-1.18-.439-1.019-.503-1.98.549-2.873-2.087.054-2.336.83-3 3.217 0 1.65.836 3.235 2.213 3.658.336.103 2.213.145 5.105.113 4.358-.047 4.6-.066 5.172-.388.838-.473 1.801-1.551 2.178-2.44.375-.883.441-2.574.148-3.504-.553-1.625-3.106-3.377-4.722-2.277-.283.32-.554.04-.604-.012-.05-.052.222-.297.36-.789.183-.658.234-1.313.191-2.473-.054-1.475-.098-1.665-.684-2.92-1.256-2.689-3.764-4.125-6.412-4.173z" opacity=".2"/>
    <path d="M26.084 20.014c-.796.04-1.578.192-2.04.441-1.549.836-2.692 1.934-3.015 3.719-.085.469-.206.907-.27.972-.062.066-.372.046-.687-.044-.73-.21-1.777.033-2.67.623-.707.467-1.364 2.06-1.533 3.048-.095.558-.129.186-.683.186-.45 0-.653.092-.893.41-.408.54-.391.822.059 1.29.364.378.395.382 3.109.38 1.009 0 1.77-.028 2.295-.062.3-.638.69-1.244 1.213-1.788 2.224-2.314 5.654-2.66 8.35-1.173.672-1.178 1.507-2.192 2.501-2.96-.004-.122-.134-.642-.297-1.179-.527-1.738-1.67-2.986-3.33-3.637-.506-.198-1.313-.267-2.109-.226zm11.861 4.998c-1.588-.03-3.229.44-4.677 1.441-1.385.956-2.367 2.04-2.893 3.776-.14.464-.32.845-.396.845-.078 0-.37-.51-.65-.767-1.997-1.823-5.02-1.705-6.919.27-1.412 1.469-1.672 4.036-.953 5.985.076.206-.6.368-1.299.735-1.045.549-1.723 1.33-1.98 2.285-.463 1.718.868 3.545 2.683 4.219.76.282 2.227.261 3.102-.043.648-.226 1.284-.82 5.174-4.83 5.124-5.285 5.316-5.926 7.412-5.934 1.06-.004 1.82.058 2.703.51 1.202.615 2.083 2.09 2.512 3.283.4 1.11.402 2.458.01 3.129-.345.587-1.593 1.137-2.264 1.137-.667 0-1.787-.584-2.059-1.18-.439-1.019-.503-1.98.549-2.873-2.087.054-2.336.83-3 3.217 0 1.65.836 3.235 2.213 3.658.336.103 2.213.145 5.105.113 4.358-.047 4.6-.066 5.172-.388.838-.473 1.801-1.551 2.178-2.44.375-.883.441-2.573.148-3.504-.553-1.625-3.106-3.377-4.722-2.277-.283.32-.554.04-.604-.012-.05-.052.222-.297.36-.789.183-.657.234-1.312.191-2.473-.054-1.475-.098-1.665-.684-2.92-1.256-2.689-3.764-4.125-6.412-4.173z" fill="#F9F5D7"/>
</svg>
