<svg xmlns="http://www.w3.org/2000/svg" width="64" height="64" version="1">
    <path d="M43.406 21.594L12.582 52.418A22 22 0 0 0 30 61a22 22 0 0 0 22-22 22 22 0 0 0-8.594-17.406z" opacity=".2"/>
    <path d="M43.406 20.594L12.582 51.418A22 22 0 0 0 30 60a22 22 0 0 0 22-22 22 22 0 0 0-8.594-17.406z" fill="#97971A"/>
    <path d="M34 5a22 22 0 0 0-22 22 22 22 0 0 0 8.594 17.406l30.824-30.824A22 22 0 0 0 34 5z" opacity=".2"/>
    <path d="M34 4a22 22 0 0 0-22 22 22 22 0 0 0 8.594 17.406l30.824-30.824A22 22 0 0 0 34 4z" fill="#B7BB25"/>
    <path d="M34 4a22 22 0 0 0-22 22 22 22 0 0 0 .021.398A22 22 0 0 1 34 5a22 22 0 0 1 16.957 8.043l.461-.461A22 22 0 0 0 34 4z" opacity=".2" fill="#F9F5D7"/>
</svg>
