<svg xmlns="http://www.w3.org/2000/svg" width="64" height="64" version="1">
    <rect width="52" height="52" x="-58" y="-58" rx="2.6" ry="2.6" transform="matrix(0 -1 -1 0 0 0)" fill="#8F3F71"/>
    <path d="M15.012 20l8 28 10-20 10 20 8-28" opacity=".2" fill="none" stroke="#151819" stroke-width="6" stroke-linecap="round" stroke-linejoin="round"/>
    <path d="M15.012 19l8 28 10-20 10 20 8-28" fill="none" stroke="#F9F5D7" stroke-width="6" stroke-linecap="round" stroke-linejoin="round"/>
    <path d="M8.602 6A2.596 2.596 0 0 0 6 8.6v1C6 8.16 7.161 7 8.602 7h46.796C56.838 7 58 8.16 58 9.6v-1C58 7.16 56.838 6 55.398 6H8.602z" opacity=".2" fill="#F9F5D7"/>
    <path d="M6 55.4v1C6 57.839 7.161 59 8.602 59h46.796A2.597 2.597 0 0 0 58 56.4v-1c0 1.44-1.162 2.6-2.602 2.6H8.602A2.597 2.597 0 0 1 6 55.4z" opacity=".2"/>
</svg>
