<svg xmlns="http://www.w3.org/2000/svg" width="64" height="64" version="1">
    <path d="M17.68 6.884a6.594 6.844 2.593 0 0-2.556 2.587L3.89 29.627a6.594 6.844 2.593 0 0-.01 6.844l11.17 20.117A6.594 6.844 2.593 0 0 20.754 60l22.406-.039a6.594 6.844 2.593 0 0 5.716-3.431l11.235-20.156a6.594 6.844 2.593 0 0 .01-6.844L48.952 9.412A6.594 6.844 2.593 0 0 43.245 6l-22.405.04a6.594 6.844 2.593 0 0-3.161.844z" opacity=".2"/>
    <path d="M17.68 5.884a6.594 6.844 2.593 0 0-2.556 2.587L3.89 28.627a6.594 6.844 2.593 0 0-.01 6.844l11.17 20.117A6.594 6.844 2.593 0 0 20.754 59l22.406-.039a6.594 6.844 2.593 0 0 5.716-3.431l11.235-20.156a6.594 6.844 2.593 0 0 .01-6.844L48.952 8.412A6.594 6.844 2.593 0 0 43.245 5l-22.405.04a6.594 6.844 2.593 0 0-3.161.844z" fill="#FA4934"/>
    <path d="M18.684 5.427a6.594 6.844 2.593 0 0-1.006.458 6.594 6.844 2.593 0 0-2.554 2.587L3.89 28.628a6.594 6.844 2.593 0 0-.01 6.841l11.168 20.12A6.594 6.844 2.593 0 0 20.753 59l22.405-.039a6.594 6.844 2.593 0 0 4.515-1.868L18.684 5.427z" opacity=".2"/>
    <path d="M45.748 5.519L16.81 57.093l-.227.358A6.594 6.844 2.593 0 0 20.753 59l22.405-.039a6.594 6.844 2.593 0 0 5.718-3.43L60.11 35.375a6.594 6.844 2.593 0 0 .01-6.844L48.953 8.41a6.594 6.844 2.593 0 0-3.204-2.892z" opacity=".2"/>
    <path d="M3.074 33a6.594 6.844 2.593 0 0 .805 2.469l11.168 20.12A6.594 6.844 2.593 0 0 20.754 59l22.406-.04a6.594 6.844 2.593 0 0 5.715-3.429l11.234-20.156A6.594 6.844 2.593 0 0 60.91 33H3.074z" opacity=".2"/>
    <path d="M32 20c-12.375 0-22 10.111-22 13.237C10 37.333 19.625 46 32 46s22-10.111 22-12.763C54 30.111 44.375 20 32 20z" opacity=".2"/>
    <path d="M32 19c-12.375 0-22 10.111-22 13.237C10 36.333 19.625 45 32 45s22-10.111 22-12.763C54 29.111 44.375 19 32 19z" fill="#F9F5D7"/>
    <circle cx="32" cy="32" r="11" fill="#066678"/>
    <circle cx="32" cy="32" r="6" fill="#3A393A"/>
    <path d="M43.246 5l-22.406.04a6.594 6.844 2.593 0 0-3.162.845 6.594 6.844 2.593 0 0-2.553 2.586L3.889 28.627a6.594 6.844 2.593 0 0-.868 3.982 6.594 6.844 2.593 0 1 .868-2.982L15.125 9.471a6.594 6.844 2.593 0 1 2.553-2.586 6.594 6.844 2.593 0 1 3.162-.846L43.246 6a6.594 6.844 2.593 0 1 5.705 3.412l11.17 20.117a6.594 6.844 2.593 0 1 .858 2.862 6.594 6.844 2.593 0 0-.858-3.862L48.951 8.412A6.594 6.844 2.593 0 0 43.246 5z" fill="#F9F5D7" opacity=".2"/>
</svg>
