<svg xmlns="http://www.w3.org/2000/svg" width="64" height="64" version="1">
    <rect width="56" height="56" x="4" y="5" rx="2.8" ry="2.8" opacity=".2"/>
    <rect width="56" height="56" x="4" y="4" rx="2.8" ry="2.8" fill="#7CB668"/>
    <path d="M16.986 22L12 39h2.06L19 22h-2.014zM19 22l4.94 17H26l-4.986-17H19zm18.986 0L33 39h2.06L40 22h-2.014zm10.973 4c-.032.054-.064.61-.096 1.182s-.049.975-.049 1.207h-.025c-.366-.75-.886-1.327-1.562-1.729-.67-.41-1.462-.613-2.377-.613-1.633 0-2.85.53-3.655 1.59C40.4 28.688 40 30.92 40 33.14c0 2.188.37 3.377 1.111 4.398.749 1.02 1.916 1.53 3.5 1.53.948 0 1.776-.2 2.485-.602.708-.41 1.264-1.016 1.67-1.82h.023v2.017c0 2.436-1.069 3.346-3.21 3.346-.797 0-1.443-.156-1.936-.473-.486-.31-.8-.756-.944-1.336l-2.162.303c.239.99.777 2.152 1.613 2.685.836.542 1.96.811 3.37.811 3.606 0 5.48-1.857 5.48-5.383V26h-2.041zm-4.078 2c.603 0 1.14.179 1.613.537.48.351.852.865 1.113 1.54.262.667.393 1.99.393 2.917 0 .907-.13 1.312-.393 1.973-.261.653-.633 1.154-1.113 1.506a2.715 2.715 0 0 1-1.646.527c-1.04 0-1.774-.34-2.203-1.021-.43-.682-.645-1.425-.645-2.985 0-1.574.23-3.237.688-3.94.458-.702 1.19-1.054 2.193-1.054zM28 36v3h3v-3h-3z" opacity=".2"/>
    <path d="M16.985 21L12 38h2.061L19 21h-2.015z" fill="#3A393A"/>
    <path d="M28 38v-3h3v3h-3z" fill="#F9F5D7"/>
    <path d="M37.985 21L33 38h2.061L40 21h-2.015zM48.959 25c-.032.054-.064.61-.096 1.182s-.049.975-.049 1.207h-.025c-.366-.75-.886-1.327-1.562-1.729-.67-.41-1.462-.613-2.377-.613-1.633 0-2.85.53-3.655 1.59C40.4 27.688 40 29.92 40 32.14c0 2.188.37 3.377 1.111 4.398.749 1.02 1.916 1.53 3.5 1.53.948 0 1.776-.2 2.485-.602.708-.41 1.264-1.016 1.67-1.82h.023v2.017c0 2.436-1.069 3.346-3.21 3.346-.797 0-1.443-.155-1.936-.472-.486-.31-.8-.756-.944-1.336l-2.162.303c.239.99.777 2.15 1.613 2.684.836.542 1.96.811 3.37.811 3.606 0 5.48-1.857 5.48-5.383V25zm-4.078 2c.603 0 1.14.179 1.613.537.48.351.852.865 1.113 1.54.262.667.393 1.99.393 2.917 0 .907-.13 1.312-.393 1.973-.261.653-.633 1.154-1.113 1.506a2.715 2.715 0 0 1-1.646.527c-1.04 0-1.774-.34-2.203-1.021-.43-.682-.645-1.425-.645-2.985 0-1.574.23-3.237.688-3.94.458-.702 1.19-1.054 2.193-1.054z" fill="#3A393A"/>
    <path d="M21.015 21L26 38h-2.061L19 21h2.015z" fill="#F9F5D7"/>
    <path d="M6.8 4C5.25 4 4 5.25 4 6.8v1C4 6.25 5.25 5 6.8 5h50.4C58.75 5 60 6.25 60 7.8v-1C60 5.25 58.75 4 57.2 4H6.8z" fill="#F9F5D7" opacity=".2"/>
</svg>
