<svg xmlns="http://www.w3.org/2000/svg" width="64" height="64">
    <rect width="53" height="53" x="5" y="5" rx="1.71" ry="1.606" fill="#3A393A"/>
    <path d="M4.416 4C3.631 4 3 4.631 3 5.416v14.168C3 20.369 3.631 21 4.416 21h14.168c.785 0 1.416-.631 1.416-1.416V5.416C20 4.631 19.369 4 18.584 4zm20 0C23.631 4 23 4.631 23 5.416v14.168c0 .785.631 1.416 1.416 1.416h14.168c.785 0 1.416-.631 1.416-1.416V5.416C40 4.631 39.369 4 38.584 4zm20 0C43.631 4 43 4.631 43 5.416v14.168c0 .785.631 1.416 1.416 1.416h14.168c.785 0 1.416-.631 1.416-1.416V5.416C60 4.631 59.369 4 58.584 4zm-40 20C3.631 24 3 24.631 3 25.416v14.168C3 40.369 3.631 41 4.416 41h14.168c.785 0 1.416-.631 1.416-1.416V25.416c0-.785-.631-1.416-1.416-1.416zm20 0c-.785 0-1.416.631-1.416 1.416v14.168c0 .785.631 1.416 1.416 1.416h14.168c.785 0 1.416-.631 1.416-1.416V25.416c0-.785-.631-1.416-1.416-1.416zm20 0c-.785 0-1.416.631-1.416 1.416v14.168c0 .785.631 1.416 1.416 1.416h14.168c.785 0 1.416-.631 1.416-1.416V25.416c0-.785-.631-1.416-1.416-1.416zm-40 20C3.631 44 3 44.631 3 45.416v14.168C3 60.369 3.631 61 4.416 61h14.168c.785 0 1.416-.631 1.416-1.416V45.416c0-.785-.631-1.416-1.416-1.416zm20 0c-.785 0-1.416.631-1.416 1.416v14.168c0 .785.631 1.416 1.416 1.416h14.168c.785 0 1.416-.631 1.416-1.416V45.416c0-.785-.631-1.416-1.416-1.416zm20 0c-.785 0-1.416.631-1.416 1.416v14.168c0 .785.631 1.416 1.416 1.416h14.168c.785 0 1.416-.631 1.416-1.416V45.416c0-.785-.631-1.416-1.416-1.416z" opacity=".2"/>
    <path d="M4.417 3C3.632 3 3 3.632 3 4.417v14.166C3 19.368 3.632 20 4.417 20h14.166c.785 0 1.417-.632 1.417-1.417V4.417C20 3.632 19.368 3 18.583 3z" fill="#F9F5D7"/>
    <path d="M24.417 3C23.632 3 23 3.632 23 4.417v14.166c0 .785.632 1.417 1.417 1.417h14.166c.785 0 1.417-.632 1.417-1.417V4.417C40 3.632 39.368 3 38.583 3z" fill="#FD8019"/>
    <path d="M44.417 3C43.632 3 43 3.632 43 4.417v14.166c0 .785.632 1.417 1.417 1.417h14.166c.785 0 1.417-.632 1.417-1.417V4.417C60 3.632 59.368 3 58.583 3zM4.417 23C3.632 23 3 23.632 3 24.417v14.166C3 39.368 3.632 40 4.417 40h14.166c.785 0 1.417-.632 1.417-1.417V24.417c0-.785-.632-1.417-1.417-1.417z" fill="#8F3F71"/>
    <path d="M24.417 23c-.785 0-1.417.632-1.417 1.417v14.166c0 .785.632 1.417 1.417 1.417h14.166c.785 0 1.417-.632 1.417-1.417V24.417c0-.785-.632-1.417-1.417-1.417zM44.417 23c-.785 0-1.417.632-1.417 1.417v14.166c0 .785.632 1.417 1.417 1.417h14.166c.785 0 1.417-.632 1.417-1.417V24.417c0-.785-.632-1.417-1.417-1.417z" fill="#F9F5D7"/>
    <path d="M4.417 43C3.632 43 3 43.632 3 44.417v14.166C3 59.368 3.632 60 4.417 60h14.166c.785 0 1.417-.632 1.417-1.417V44.417c0-.785-.632-1.417-1.417-1.417z" fill="#7CB668"/>
    <path d="M24.417 43c-.785 0-1.417.632-1.417 1.417v14.166c0 .785.632 1.417 1.417 1.417h14.166c.785 0 1.417-.632 1.417-1.417V44.417c0-.785-.632-1.417-1.417-1.417z" fill="#FD8019"/>
    <path d="M44.417 43c-.785 0-1.417.632-1.417 1.417v14.166c0 .785.632 1.417 1.417 1.417h14.166c.785 0 1.417-.632 1.417-1.417V44.417c0-.785-.632-1.417-1.417-1.417z" fill="#7CB668"/>
    <path d="M4.416 3C3.631 3 3 3.631 3 4.416v1C3 4.631 3.631 4 4.416 4h14.168C19.369 4 20 4.631 20 5.416v-1C20 3.631 19.369 3 18.584 3H4.416zm20 0C23.631 3 23 3.631 23 4.416v1C23 4.631 23.631 4 24.416 4h14.168C39.369 4 40 4.631 40 5.416v-1C40 3.631 39.369 3 38.584 3H24.416zm20 0C43.631 3 43 3.631 43 4.416v1C43 4.631 43.631 4 44.416 4h14.168C59.369 4 60 4.631 60 5.416v-1C60 3.631 59.369 3 58.584 3H44.416zm-40 20C3.631 23 3 23.631 3 24.416v1C3 24.631 3.631 24 4.416 24h14.168c.785 0 1.416.631 1.416 1.416v-1c0-.785-.631-1.416-1.416-1.416H4.416zm20 0c-.785 0-1.416.631-1.416 1.416v1c0-.785.631-1.416 1.416-1.416h14.168c.785 0 1.416.631 1.416 1.416v-1c0-.785-.631-1.416-1.416-1.416H24.416zm20 0c-.785 0-1.416.631-1.416 1.416v1c0-.785.631-1.416 1.416-1.416h14.168c.785 0 1.416.631 1.416 1.416v-1c0-.785-.631-1.416-1.416-1.416H44.416zm-40 20C3.631 43 3 43.631 3 44.416v1C3 44.631 3.631 44 4.416 44h14.168c.785 0 1.416.631 1.416 1.416v-1c0-.785-.631-1.416-1.416-1.416H4.416zm20 0c-.785 0-1.416.631-1.416 1.416v1c0-.785.631-1.416 1.416-1.416h14.168c.785 0 1.416.631 1.416 1.416v-1c0-.785-.631-1.416-1.416-1.416H24.416zm20 0c-.785 0-1.416.631-1.416 1.416v1c0-.785.631-1.416 1.416-1.416h14.168c.785 0 1.416.631 1.416 1.416v-1c0-.785-.631-1.416-1.416-1.416H44.416z" opacity=".2" fill="#F9F5D7"/>
</svg>
