<svg xmlns="http://www.w3.org/2000/svg" width="64" height="64" version="1">
    <rect width="56" height="56" x="4" y="5" rx="2.8" ry="2.8" opacity=".2"/>
    <rect width="56" height="56" x="4" y="4" rx="2.8" ry="2.8" fill="#504945"/>
    <path d="M19.398 11c-.775 0-1.398.623-1.398 1.398v25.204c0 .775.623 1.398 1.398 1.398H32a14 14 0 0 0 14-14 14 14 0 0 0-14-14H19.398zm7.204 8H32a6 6 0 0 1 6 6 6 6 0 0 1-6 6h-5.398a.601.601 0 0 1-.602-.602V19.602c0-.333.27-.602.602-.602z" opacity=".2"/>
    <path d="M19.398 10c-.775 0-1.398.623-1.398 1.398v25.204c0 .775.623 1.398 1.398 1.398H32a14 14 0 0 0 14-14 14 14 0 0 0-14-14H19.398zm7.204 8H32a6 6 0 0 1 6 6 6 6 0 0 1-6 6h-5.398a.601.601 0 0 1-.602-.602V18.602c0-.333.27-.602.602-.602z" fill="#F9F5D7"/>
    <path d="M6.8 4C5.25 4 4 5.25 4 6.8v1C4 6.25 5.25 5 6.8 5h50.4C58.75 5 60 6.25 60 7.8v-1C60 5.25 58.75 4 57.2 4H6.8z" opacity=".1" fill="#F9F5D7"/>
    <g opacity=".2" stroke="#151819" fill="none" stroke-width="3" stroke-linecap="round">
        <path d="M14.49 56.478l-2.984-4.477M8.52 50.51s5.97.693 5.97-2.985-5.97-2.984-5.97-2.984m0 11.939v-11.94"/>
        <path d="M19.521 51.5h5.97m-5.97 4.979v-8.954m5.97 8.954v-8.954m-5.97 0s0-2.985 2.985-2.985 2.985 2.985 2.985 2.985" stroke-linejoin="bevel"/>
        <path d="M30.5 44.56V56.5h5.97M41.5 44.56V56.5h5.97" stroke-linejoin="round"/>
        <path d="M52.49 56.479v-5.97m4.477-5.97l-4.477 5.97m-4.477-5.97l4.477 5.97"/>
    </g>
    <g fill="none" stroke="#FD8019" stroke-width="3" stroke-linecap="round">
        <path d="M14.49 55.478l-2.984-4.477M8.52 49.51s5.97.693 5.97-2.985-5.97-2.984-5.97-2.984m0 11.939v-11.94"/>
        <path d="M19.521 50.5h5.97m-5.97 4.979v-8.954m5.97 8.954v-8.954m-5.97 0s0-2.985 2.985-2.985 2.985 2.985 2.985 2.985" stroke-linejoin="bevel"/>
        <path d="M30.5 43.56V55.5h5.97M41.5 43.56V55.5h5.97" stroke-linejoin="round"/>
        <path d="M52.49 55.479v-5.97m4.477-5.97l-4.477 5.97m-4.477-5.97l4.477 5.97"/>
    </g>
</svg>
