<svg xmlns="http://www.w3.org/2000/svg" width="64" height="64">
    <path d="M61 33a29 29 0 0 1-28.977 29A29 29 0 0 1 3 33.046 29 29 0 0 1 31.93 4 29 29 0 0 1 61 32.908" opacity=".2"/>
    <path d="M61 32a29 29 0 0 1-28.977 29A29 29 0 0 1 3 32.046 29 29 0 0 1 31.93 3 29 29 0 0 1 61 31.908" fill="#FD8019"/>
    <g fill="#AF3A03" fill-rule="evenodd">
        <path d="M43.31 35.077c-5.378 21.984-14.446 17.558-14.446 17.558-1.484-1.212-.941-8.662.494-10.56 1.907.084 3.505 1.09 6.543-8.226 3.002-9.204.854-10.479-1.234-11.541-.122-3.887 2.8-8.307 4.938-9.332 0 0 9.053.234 3.704 22.101zM36.047 11.513c-2.323 2.604-3.809 5.998-4.815 9.577 0 0-4.05-2.856-1.907-7.24 2.192-4.482 6.722-2.337 6.722-2.337zM26.177 41.366c-1.666 3.107-1.886 6.67-.658 10.687 0 0-4.269.382-4.511-5.7-.242-6.079 5.17-4.987 5.17-4.987z"/>
    </g>
    <path d="M10.674 35.275c.558-2.397.32-9.168 2.02-8.357 1.7.811 2.965 11.21 4.57 12.262 1.607 1.052.81-5.817 1.855-8.333 1.044-2.516 1 .478 2.323-1.44s1.506-8.602 2.97-6.231c1.463 2.371 1.292 12.36 2.883 15.324 1.59 2.964 1.837-3.665 3.48-3.776 1.641-.111 2.14 4.262 3.09 3.45.949-.81.095-3.148.706-6.588.61-3.44.074-8.157 1.735-6.522 1.662 1.635 2.962 10.79 4.912 12.863 1.95 2.073.688-4.477 2.889-5.045 2.201-.568 4.437 2.205 5.916 2.974" opacity=".2" fill="none" stroke="#151819" stroke-width="1.5" stroke-linecap="round" stroke-linejoin="round"/>
    <path d="M10.674 34.275c.558-2.397.32-9.168 2.02-8.357 1.7.811 2.965 11.21 4.57 12.262 1.607 1.052.81-5.817 1.855-8.333 1.044-2.516 1 .478 2.323-1.44 1.323-1.917 1.506-8.602 2.97-6.23 1.463 2.37 1.292 12.36 2.883 15.323 1.59 2.964 1.837-3.665 3.48-3.776 1.641-.111 2.14 4.262 3.09 3.451.949-.811.095-3.149.706-6.589.61-3.44.074-8.157 1.735-6.522 1.662 1.635 2.962 10.79 4.912 12.863 1.95 2.073.688-4.477 2.889-5.045 2.201-.568 4.437 2.205 5.916 2.974" fill="none" stroke="#FAEEBB" stroke-width="1.5" stroke-linecap="round" stroke-linejoin="round"/>
    <path d="M52 35a3 3 0 0 1-2.997 3A3 3 0 0 1 46 35.005 3 3 0 0 1 48.993 32 3 3 0 0 1 52 34.99" opacity=".2"/>
    <path d="M52 34a3 3 0 0 1-2.997 3A3 3 0 0 1 46 34.005 3 3 0 0 1 48.993 31 3 3 0 0 1 52 33.99" fill="#F9F5D7"/>
    <path d="M31.93 3A29 29 0 0 0 3 32.047a29 29 0 0 0 .018.473A29 29 0 0 1 31.93 4a29 29 0 0 1 29.047 28.46A29 29 0 0 0 61 32v-.094A29 29 0 0 0 31.93 3z" opacity=".2" fill="#F9F5D7"/>
</svg>
