<svg xmlns="http://www.w3.org/2000/svg" width="64" height="64" version="1">
    <path d="M32 61A27.999 27.999 0 0 1 4 33.001a27.999 27.999 0 0 1 .044-1.172A27.999 27.999 0 0 0 31.999 59a27.999 27.999 0 0 0 27.955-26.827 27.999 27.999 0 0 1 .044.828A27.999 27.999 0 0 1 31.999 61z" opacity=".2"/>
    <rect width="56" height="56" x="4" y="4" rx="27.999" ry="27.999" fill="#7CB668"/>
    <path d="M51.78 12.22L12.218 51.78a27.91 27.91 0 0 0 39.56 0 27.913 27.913 0 0 0 0-39.561z" opacity=".1"/>
    <path d="M12.22 51.78l17.308-22.253 2.342 2.342 2.603 2.603z" fill="#F9F5D7"/>
    <path d="M51.78 12.22L29.525 29.53l4.945 4.945z" fill="#FA4934"/>
    <path d="M51.78 12.22L12.218 51.78a27.913 27.913 0 0 1 0-39.561 27.913 27.913 0 0 1 39.56 0z" opacity=".2" fill="#F9F5D7"/>
    <path d="M32 4.002a27.999 27.999 0 0 0-28 28 27.999 27.999 0 0 0 .018.492A27.999 27.999 0 0 1 32 5.002a27.999 27.999 0 0 1 27.975 27.49A27.999 27.999 0 0 0 60 32 27.999 27.999 0 0 0 32 4.002z" opacity=".2" fill="#F9F5D7"/>
</svg>
