<svg xmlns="http://www.w3.org/2000/svg" width="64" height="64" version="1">
    <path d="M27 4c-3.324 0-6 2.676-6 6v6H7c-2.216 0-4 1.784-4 4v12h6c3.324 0 6 2.676 6 6s-2.676 6-6 6H3v14c0 2.216 1.784 4 4 4h14v-4c0-3.324 2.676-6 6-6s6 2.676 6 6v4h12c2.216 0 4-1.784 4-4V44h6c3.324 0 6-2.676 6-6s-2.676-6-6-6h-6V20c0-2.216-1.784-4-4-4H33v-6c0-3.324-2.676-6-6-6z" opacity=".2"/>
    <path d="M27 3c-3.324 0-6 2.676-6 6v6H7c-2.216 0-4 1.784-4 4v12h6c3.324 0 6 2.676 6 6s-2.676 6-6 6H3v14c0 2.216 1.784 4 4 4h14v-4c0-3.324 2.676-6 6-6s6 2.676 6 6v4h12c2.216 0 4-1.784 4-4V43h6c3.324 0 6-2.676 6-6s-2.676-6-6-6h-6V19c0-2.216-1.784-4-4-4H33V9c0-3.324-2.676-6-6-6z" fill="#066678"/>
    <path d="M27 3c-3.324 0-6 2.676-6 6v1c0-3.324 2.676-6 6-6s6 2.676 6 6V9c0-3.324-2.676-6-6-6zM7 15c-2.216 0-4 1.784-4 4v1c0-2.216 1.784-4 4-4h14v-1H7zm26 0v1h12c2.216 0 4 1.784 4 4v-1c0-2.216-1.784-4-4-4H33zm16 16v1h6a5.983 5.983 0 0 1 5.973 5.467c.016-.154.027-.308.027-.467 0-3.324-2.676-6-6-6h-6zm-34.102 7A5.975 5.975 0 0 1 9 43H3v1h6c2.98 0 5.422-2.16 5.898-5 .03.182.056.364.075.549A6.11 6.11 0 0 0 15 39a6.01 6.01 0 0 0-.102-1z" opacity=".1" fill="#F9F5D7"/>
</svg>
