<svg xmlns="http://www.w3.org/2000/svg" width="64" height="64" version="1">
    <rect width="56" height="56" x="4" y="4" rx="3" ry="3" fill="#F9F5D7"/>
    <path d="M7 4C5.338 4 4 5.338 4 7v1c0-1.662 1.338-3 3-3h50c1.662 0 3 1.338 3 3V7c0-1.662-1.338-3-3-3H7z" opacity=".1" fill="#F9F5D7"/>
    <path d="M4 57v1c0 1.662 1.338 3 3 3h50c1.662 0 3-1.338 3-3v-1c0 1.662-1.338 3-3 3H7c-1.662 0-3-1.338-3-3z" opacity=".2"/>
    <path d="M38.228 20c-1.422-.001-3.105.005-4.14.012l-.103.07v.745c0 .091.038.155.114.21a.394.394 0 0 0 .238.093l.329.035c.846.036 1.245.265 1.361.408.202.253.297.535-.193 1.63l-2.926 5.988-2.644-5.556c-.868-1.776-1.08-2.33.227-2.435l.522-.07c.251 0 .374-.09.374-.268v-.78l-.192-.07-7.136.012-.102.07v.78c0 .175.18.222.522.268 1.224.165 1.194.296 2.405 2.76.181.37.715 1.48.715 1.48l2.756 5.568.806 1.828-4.005 8.2-.227-.058s-6.22-13.468-8.02-17.973c-.188-.466-.273-.811-.273-1.025 0-.457.398-.7 1.203-.733l.941-.047c.249 0 .375-.099.375-.303v-.734l-.091-.081s-7.446-.01-8.985 0l-.079.084v.768c0 .14.163.229.51.268.946.052 1.573.208 1.872.466.298.26.614.918 1.033 1.945 2.26 5.576 7.065 15.532 9.404 21.199.674 1.547 1.513 1.788 2.541-.047 1.109-2.11 3.047-6.187 4.617-9.516.023-.323.023.299.307.104 1.466 3.316 3.236 7.307 4.22 9.389.762 1.614 1.625 1.77 2.507.046 2.303-5.257 9.041-21.07 9.041-21.07.292-.777.693-1.372 1.214-1.806.52-.43 1.322-.673 2.405-.722.22 0 .33-.102.33-.303v-.745l-.08-.082h-8.27l-.102.082v.745c0 .088.038.154.113.21a.394.394 0 0 0 .238.093l.692.035c.848.036 1.079.208 1.407.5.327.3.367.808.113 1.527l-7.317 17.833-.283-.082-4.651-9.75.113-.232 3.8-7.303c.443-.771.873-1.462 1.09-1.783.396-.585.618-.693 1.701-.745.22 0 .329-.099.329-.303v-.734l-.08-.081s-1.164-.01-2.586-.012z" fill="#504945"/>
</svg>
