<svg xmlns="http://www.w3.org/2000/svg" width="64" height="64">
    <path d="M7.143 11C4.848 11 3 12.9 3 15.258V50.742C3 53.1 4.848 55 7.143 55h49.714C59.152 55 61 53.1 61 50.742V15.258C61 12.9 59.152 11 56.857 11z" opacity=".2"/>
    <path d="M7.143 10C4.848 10 3 11.9 3 14.258V49.742C3 52.1 4.848 54 7.143 54h49.714C59.152 54 61 52.1 61 49.742V14.258C61 11.9 59.152 10 56.857 10z" fill="#FA4934"/>
    <path d="M19.25 44c-.868 0-1.65.552-1.973 1.395l-2.125 5.357a2.291 2.291 0 0 0-.063.19H15V54h34v-3.058h-.091a2.314 2.314 0 0 0-.061-.19l-2.125-5.357C46.4 44.552 45.618 44 44.75 44z" fill="#928274"/>
    <path d="M11.167 15h41.666L57 18.9V44H7V18.9z" fill="#F9F5D7"/>
    <path fill="#3A393A" d="M7 24h50v14H7z"/>
    <circle cx="18" cy="32" r="3" opacity=".2"/>
    <circle cx="18" cy="31" r="3" fill="#F9F5D7"/>
    <path fill="#928274" d="M25 28h14v6H25z"/>
    <path d="M25 28v6h6.715c.188-.987.284-1.992.284-3a16.032 16.032 0 0 0-.298-3z" opacity=".5" fill="#3A393A"/>
    <path opacity=".3" d="M15 51h34v3H15z"/>
    <circle cx="46" cy="32" r="3" opacity=".2"/>
    <circle cx="46" cy="31" r="3" fill="#F9F5D7"/>
    <path opacity=".2" d="M7 44h50v1H7z"/>
    <path d="M7.145 10C4.849 10 3 11.899 3 14.258v1C3 12.898 4.85 11 7.145 11h49.71C59.151 11 61 12.899 61 15.258v-1C61 11.898 59.15 10 56.855 10H7.145z" opacity=".2" fill="#F9F5D7"/>
    <path opacity=".2" d="M25 28h14v1H25z"/>
</svg>
