<svg xmlns="http://www.w3.org/2000/svg" width="64" height="64" version="1">
    <path d="M32 11c-1.363 0-2.726.508-3.744 1.526L7.526 33.259c-2.036 2.036-2.034 5.443.003 7.48l20.73 20.732c2.036 2.037 5.447 2.04 7.483.003l20.73-20.733c2.037-2.036 2.037-5.446 0-7.482l-20.73-20.733C34.724 11.508 33.362 11 32 11z" opacity=".2"/>
    <path d="M32 10c-1.363 0-2.726.508-3.744 1.526L7.526 32.259c-2.036 2.036-2.034 5.443.003 7.48l20.73 20.732c2.036 2.037 5.447 2.04 7.483.003l20.73-20.733c2.037-2.036 2.037-5.446 0-7.482l-20.73-20.733C34.724 10.508 33.362 10 32 10z" fill="#9D0006"/>
    <path d="M32 3c-1.363 0-2.726.508-3.744 1.526L7.526 25.259c-2.036 2.036-2.034 5.443.003 7.48l20.73 20.732c2.036 2.037 5.447 2.04 7.483.003l20.73-20.733c2.037-2.036 2.037-5.446 0-7.482L35.743 4.526C34.724 3.508 33.362 3 32 3z" opacity=".2"/>
    <path d="M32 2c-1.363 0-2.726.508-3.744 1.526L7.526 24.259c-2.036 2.036-2.034 5.443.003 7.48l20.73 20.732c2.036 2.037 5.447 2.04 7.483.003l20.73-20.733c2.037-2.036 2.037-5.446 0-7.482L35.743 3.526C34.724 2.508 33.362 2 32 2z" fill="#CB241D"/>
    <path d="M32 17L22 27l8.754 8.754L32 37l10.11 10.11 4.242-4.243-10.11-10.11L42 27z" opacity=".2"/>
    <path d="M32 16L22 26l8.754 8.754L32 36l10.11 10.11 4.242-4.243-10.11-10.11L42 26z" fill="#F9F5D7"/>
    <path d="M32 2c-1.362 0-2.726.507-3.744 1.525L7.526 24.258c-1.144 1.143-1.62 2.717-1.48 4.24.11-1.189.587-2.347 1.48-3.24l20.73-20.733C29.274 3.507 30.638 3 32 3s2.724.507 3.742 1.525l20.73 20.733c.893.893 1.371 2.052 1.481 3.242.14-1.523-.337-3.099-1.48-4.242L35.743 3.525C34.723 2.507 33.361 2 32 2z" fill="#F9F5D7" opacity=".2"/>
</svg>
