<?xml version="1.0" encoding="UTF-8"?>
<svg id="svg8" version="1.1" viewBox="0 0 18 18" xmlns="http://www.w3.org/2000/svg">
    <path id="path2" class="warning" d="M 16.5,9 A 7.5,7.5 0 0 1 9,16.5 7.5,7.5 0 0 1 1.5,9 7.5,7.5 0 0 1 9,1.5 7.5,7.5 0 0 1 16.5,9 Z" fill="#f57900"/>
    <path id="path4" class="error" d="m9 1a8 8 0 0 0-8 8 8 8 0 0 0 8 8 8 8 0 0 0 8-8 8 8 0 0 0-8-8zm0 1a7 7 0 0 1 7 7 7 7 0 0 1-7 7 7 7 0 0 1-7-7 7 7 0 0 1 7-7z" fill="#ff0404"/>
    <path id="path6" class="error" d="m9 4c-2.7614 0-5 2.2386-5 5 0 2.7614 2.2386 5 5 5 2.7614 0 5-2.2386 5-5 0-2.7614-2.2386-5-5-5z" color="#000000" color-rendering="auto" dominant-baseline="auto" fill="#ff0404" image-rendering="auto" shape-rendering="auto" solid-color="#000000" stroke-width="3.9903" style="font-feature-settings:normal;font-variant-alternates:normal;font-variant-caps:normal;font-variant-ligatures:normal;font-variant-numeric:normal;font-variant-position:normal;isolation:auto;mix-blend-mode:normal;shape-padding:0;text-decoration-color:#000000;text-decoration-line:none;text-decoration-style:solid;text-indent:0;text-orientation:mixed;text-transform:none;white-space:normal"/>
</svg>
