<svg xmlns="http://www.w3.org/2000/svg" width="64" height="64" version="1">
    <rect width="56" height="56" x="4" y="5" rx="2.8" ry="2.8" opacity=".2"/>
    <rect width="56" height="56" x="4" y="4" rx="2.8" ry="2.8" fill="#504945"/>
    <path d="M20.463 10c-2.507 0-4.592 1.699-5.234 4H49v-4zM15 17v4h34v-4zm0 7v4h11v-4zm0 7v4h11v-4zm0 7v4h11v-4zm0 7v4h34v-4H25.88zm.229 7c.642 2.301 2.727 4 5.234 4H49v-4z" opacity=".2"/>
    <path d="M20.463 9c-2.507 0-4.592 1.699-5.234 4H49V9z" fill="#B7BB25"/>
    <path d="M15 16v4h34v-4z" fill="#7CB668"/>
    <path d="M15 23v4h11v-4z" fill="#7CB668"/>
    <path d="M15 30v4h11v-4z" fill="#73C48F"/>
    <path d="M15 37v4h11v-4z" fill="#48B9C7"/>
    <path d="M15 44v4h34v-4H25.88z" fill="#48B9C7"/>
    <path d="M15.229 51c.642 2.301 2.727 4 5.234 4H49v-4z" fill="#48B9C7"/>
    <path d="M6.8 4C5.25 4 4 5.25 4 6.8v1C4 6.25 5.25 5 6.8 5h50.4C58.75 5 60 6.25 60 7.8v-1C60 5.25 58.75 4 57.2 4H6.8z" fill="#F9F5D7" opacity=".1"/>
</svg>
