<svg xmlns="http://www.w3.org/2000/svg" width="64" height="64" fill="none">
    <path d="M32.5 14C16.123 14 3.764 28.544 3.002 45.952A1.967 1.962 0 0 0 4.966 48h55.068a1.967 1.962 0 0 0 1.964-2.048C61.236 28.544 48.877 14 32.5 14z" opacity=".2"/>
    <path d="M32.5 13C16.123 13 3.764 27.544 3.002 44.952A1.967 1.962 0 0 0 4.966 47h55.068a1.967 1.962 0 0 0 1.964-2.048C61.236 27.544 48.877 13 32.5 13z" fill="#377375"/>
    <g opacity=".2" stroke="#151819" stroke-width="3" stroke-linecap="round">
        <path d="M11.5 43.5h-4M57.5 43.5h-4M32.5 22.5v-4M43 25.313l2-3.464M50.687 33l3.464-2M22 25.313l-2-3.464M14.313 33l-3.464-2"/>
    </g>
    <path d="M33.566 49.732l-3.329-3.783L45 36z" opacity=".2"/>
    <path d="M33.566 48.732l-3.329-3.783L45 35z" fill="#CB8819"/>
    <path d="M45 35l-14.764 9.95.553.626 12.315-8.297L45 35z" fill="#F9F5D7" opacity=".1"/>
    <circle cx="32.5" cy="47.5" r="4.5" opacity=".2"/>
    <circle cx="32.5" cy="46.5" r="4.5" fill="#CB241D"/>
    <g stroke="#F9F5D7" stroke-width="3" stroke-linecap="round">
        <path d="M11.5 42.5h-4M57.5 42.5h-4M32.5 21.5v-4M43 24.313l2-3.464M50.687 32l3.464-2M22 24.313l-2-3.464M14.313 32l-3.464-2"/>
    </g>
    <path d="M32.5 13C16.123 13 3.764 27.543 3.002 44.951a1.967 1.962 0 0 0 .035.455C4.032 28.242 16.295 14 32.5 14c16.205 0 28.468 14.242 29.463 31.406a1.967 1.962 0 0 0 .035-.455C61.235 27.543 48.877 13 32.5 13z" opacity=".1" fill="#F9F5D7"/>
    <path d="M32.5 42a4.5 4.5 0 0 0-4.5 4.5 4.5 4.5 0 0 0 .033.488A4.5 4.5 0 0 1 32.5 43a4.5 4.5 0 0 1 4.467 4.012A4.5 4.5 0 0 0 37 46.5a4.5 4.5 0 0 0-4.5-4.5z" fill="#F9F5D7" opacity=".2"/>
</svg>
