<svg xmlns="http://www.w3.org/2000/svg" width="64" height="64">
    <g transform="translate(0 -988.362)">
        <circle cx="32" cy="1021.362" r="28" opacity=".2"/>
        <circle cx="32" cy="1020.362" r="28" fill="#F9F5D7"/>
        <path d="M59.22 1013.94l-53.063 17.135a28 28 0 0 0 .575 1.286l52.795-17.05a28 28 0 0 0-.306-1.372z" fill="#3A393A"/>
        <path d="M42.64 1010.562l-26.796 8.72.14.428 2.55 7.838 26.796-8.717-2.69-8.269z" fill="#3A393A"/>
        <path d="M32 992.362a28 28 0 0 0-28 28 28 28 0 0 0 .018.492A28 28 0 0 1 32 993.362a28 28 0 0 1 27.975 27.492 28 28 0 0 0 .025-.492 28 28 0 0 0-28-28z" opacity=".2" fill="#F9F5D7"/>
    </g>
</svg>
