<svg xmlns="http://www.w3.org/2000/svg" width="64" height="64" version="1">
    <path d="M12 28.8v29.343A2.85 2.85 0 0 0 14.857 61h34.286A2.85 2.85 0 0 0 52 58.143V28.8z" opacity=".2"/>
    <path d="M12 27.8v29.343A2.85 2.85 0 0 0 14.857 60h34.286A2.85 2.85 0 0 0 52 57.143V27.8z" fill="#7CB668"/>
    <path d="M6.8 4A2.794 2.794 0 0 0 4 6.8V29h56V6.8C60 5.249 58.751 4 57.2 4z" fill="#7CB668"/>
    <path opacity=".2" d="M4 29h56v1H4z"/>
    <path d="M6.8 4C5.25 4 4 5.25 4 6.8v1C4 6.25 5.25 5 6.8 5h50.4C58.75 5 60 6.25 60 7.8v-1C60 5.25 58.75 4 57.2 4H6.8z" opacity=".2" fill="#F9F5D7"/>
</svg>
