<svg xmlns="http://www.w3.org/2000/svg" width="64" height="64" version="1">
    <rect width="56" height="56" x="4" y="5" rx="2.8" ry="2.8" opacity=".2"/>
    <rect width="56" height="56" x="4" y="4" rx="2.8" ry="2.8" fill="#7CB668"/>
    <path d="M40 15a10 10 0 0 0-10 10 10 10 0 0 0 1.027 4.402L14 46.43V51h4.57l2-2H26v-5.43L28.57 41H34v-5.43l1.602-1.601A10 10 0 0 0 40 35a10 10 0 0 0 10-10 10 10 0 0 0-10-10zm2 4a4 4 0 0 1 4 4 4 4 0 0 1-4 4 4 4 0 0 1-4-4 4 4 0 0 1 4-4z" opacity=".2"/>
    <path d="M40 14a10 10 0 0 0-10 10 10 10 0 0 0 1.027 4.402L14 45.43V50h4.57l2-2H26v-5.43L28.57 40H34v-5.43l1.602-1.601A10 10 0 0 0 40 34a10 10 0 0 0 10-10 10 10 0 0 0-10-10zm2 4a4 4 0 0 1 4 4 4 4 0 0 1-4 4 4 4 0 0 1-4-4 4 4 0 0 1 4-4z" fill="#F9F5D7"/>
    <path d="M14 23.571V19h4.571L46 46.429V51h-4.571z" opacity=".2"/>
    <path d="M14 22.571V18h4.571L46 45.429V50h-4.571z" fill="#504945"/>
    <path d="M6.8 4C5.25 4 4 5.25 4 6.8v1C4 6.25 5.25 5 6.8 5h50.4C58.75 5 60 6.25 60 7.8v-1C60 5.25 58.75 4 57.2 4H6.8z" opacity=".1" fill="#F9F5D7"/>
</svg>
