<svg xmlns="http://www.w3.org/2000/svg" width="64" height="64">
    <path d="M12.75 5C11.226 5 10 6.249 10 7.8v50.4c0 1.551 1.226 2.8 2.75 2.8h38.5c1.523 0 2.75-1.249 2.75-2.8V7.8C54 6.249 52.773 5 51.25 5z" opacity=".2"/>
    <path d="M12.75 4C11.226 4 10 5.249 10 6.8v50.4c0 1.551 1.226 2.8 2.75 2.8h38.5c1.523 0 2.75-1.249 2.75-2.8V6.8C54 5.249 52.773 4 51.25 4z" fill="#8F3F71"/>
    <path d="M12.75 4C11.226 4 10 5.249 10 6.8v50.4c0 1.551 1.226 2.8 2.75 2.8H18V4h-5.25z" opacity=".3"/>
    <path d="M43 17v30h6V17zm-20 8v22h6V25zm10 8v14h6V33z" opacity=".2"/>
    <path d="M43 16v30h6V16zm-20 8v22h6V24zm10 8v14h6V32z" fill="#F9F5D7"/>
    <path d="M12.75 4C11.226 4 10 5.25 10 6.8v1C10 6.25 11.226 5 12.75 5h38.5C52.773 5 54 6.25 54 7.8v-1C54 5.25 52.773 4 51.25 4h-38.5z" opacity=".1" fill="#F9F5D7"/>
</svg>
