<svg xmlns="http://www.w3.org/2000/svg" width="64" height="64" version="1">
    <path d="M5.399 4C4.625 4 4.002 4.623 4 5.397V5.4l.008 11.238c.022.757.63 1.362 1.39 1.362-.759 0-1.366.602-1.39 1.356l.008 11.323C4.06 31.416 4.652 32 5.4 32c-.747 0-1.34.585-1.383 1.322l-.008 11.323A1.392 1.392 0 0 0 5.398 46c-.76 0-1.368.605-1.39 1.362C4 47.4 59.94 47.4 59.94 47.4c0-.776-.623-1.4-1.398-1.4.775 0 1.398-.624 1.398-1.4V33.399c0-.775-.623-1.399-1.398-1.399.775 0 1.398-.624 1.398-1.4V19.4c0-.776-.623-1.4-1.398-1.4H47.353c-.775 0-1.398.624-1.398 1.4v11.2c0 .776.623 1.4 1.398 1.4-.775 0-1.398.624-1.398 1.4 0-.776-.624-1.4-1.399-1.4H33.368c-.775 0-1.398.624-1.398 1.4 0-.776-.624-1.4-1.399-1.4.775 0 1.399-.624 1.399-1.4V19.4c0-.776-.624-1.4-1.399-1.4H19.383c-.774 0-1.398.624-1.398 1.4 0-.776-.624-1.4-1.399-1.4.775 0 1.399-.624 1.399-1.4V5.4c0-.776-.624-1.4-1.399-1.4H11.01zm12.586 26.6c0 .776.624 1.4 1.398 1.4-.774 0-1.398.624-1.398 1.4 0-.776-.624-1.4-1.399-1.4.775 0 1.399-.624 1.399-1.4zm0 14c0 .776.624 1.4 1.398 1.4-.774 0-1.398.624-1.398 1.4 0-.776-.624-1.4-1.399-1.4.775 0 1.399-.624 1.399-1.4zm13.985 0c0 .776.623 1.4 1.398 1.4-.775 0-1.398.624-1.398 1.4 0-.776-.624-1.4-1.399-1.4.775 0 1.399-.624 1.399-1.4zm13.985 0c0 .776.623 1.4 1.398 1.4-.775 0-1.398.624-1.398 1.4 0-.776-.624-1.4-1.399-1.4.775 0 1.399-.624 1.399-1.4z" fill="#066678"/>
    <path d="M17.985 16.6V5.4c0-.776-.624-1.4-1.399-1.4H5.4C4.624 4 4 4.624 4 5.4v11.2c0 .776.624 1.4 1.399 1.4h11.187c.775 0 1.399-.624 1.399-1.4zM32 30.6V19.4c0-.776-.624-1.4-1.4-1.4H19.4c-.776 0-1.4.624-1.4 1.4v11.2c0 .776.624 1.4 1.4 1.4h11.2c.776 0 1.4-.624 1.4-1.4z" opacity=".3" fill="#F9F5D7"/>
    <path d="M4.262 30.023c-.073.037-.115.52-.153 1.121v.003c.212.503.708.853 1.29.853-.687 0-1.23.5-1.35 1.151C4.012 35.186 4 38.345 4 44.6v.005A1.396 1.396 0 0 0 5.399 46C4.624 46 4 46.624 4 47.4v5.1l1.4 4.59c.222.728-.15 1.487.604 1.51h10.582c.755-.023 1.399.761 1.399 0 0 .761.644-.023 1.398 0h9.79c.754-.023 2.797.761 2.797 0 0 .761 1.464-.023 2.219 0l9.547-2.8c.754-.023 2.219 2.161 2.219 1.4 0 .761 2.042 1.377 2.797 1.4h5.594c.754-.023 2.81-1.532 2.901-2.287l.816-6.732c.043-.353-.915-.754.478-2.181-.015-.762.765-1.4 0-1.4.734 0-.06-.681 0-1.4-.007-1.55 1.358-2.827 1.344-4.014-.033-2.655-.086-4.28-.164-4.329-.12-.074-.219-.232-.219-.352 0-.12.099-.16.219-.085s.218-.083.218-.356c0-.461-.018-.466-.289-.095-.27.37-.332.372-.972.04-.376-.194-.787-.355-.913-.355-.347 0-.275.654.088.793.174.067.43.465.568.883.218.663.199.8-.153 1.067-.596.452-.732.392-.732-.323 0-.769-.375-1.097-.475-.415-.04.263-.182.516-.317.56-.371.122-.55-.567-.279-1.075.354-.661-.217-1.204-.85-.809-.633.396-1.055-.02-1.234-1.217-.174-1.164-.552-1.514-1.478-1.378-.526.077-.805-.013-1.109-.358-.223-.253-.448-.364-.502-.243-.345.763-.484.844-.844.484-.243-.244-.5-.302-.82-.184-.256.095-.696.13-.977.077-.397-.076-.511-.242-.511-.733 0-.348-.091-.805-.202-1.014a5.441 5.441 0 0 1-.328-.777c-.088-.283-.297-.377-.724-.328-.51.059-.62.197-.735.913-.017.105-.015.174-.022.266.234.445.685.757 1.224.757-.775 0-1.398.624-1.398 1.4 0-.582-.35-1.079-.853-1.29-.13-.01-.257-.007-.385-.03-1.057-.194-1.653.066-1.47.642.162.504.161 1.893 0 2.053-.052.053-.325-.048-.606-.224-.28-.176-1.022-.375-1.65-.443l-1.141-.123-.224.81c-.304 1.095-.281 1.571.104 2.31.474.91.428 1.438-.112 1.296a1.005 1.005 0 0 0-.795.18c-.309.257-.405.223-.708-.248-.192-.3-.788-.956-1.327-1.46-1.07-1-1.392-.97-1.617.155-.17.85-.45.822-1.355-.139-.859-.912-1.41-.872-1.41.101 0 .35-.135.75-.302.889-.167.138-.371.793-.454 1.455-.106.853-.308 1.36-.69 1.744-.665.665-.815.67-1.227.05-.297-.448-.376-.464-.888-.19-.308.166-.707.245-.888.176-.414-.16-.58.27-.308.798.114.222.146.64.073.93-.106.426-.272.525-.868.525-.437 0-.787-.127-.858-.312-.066-.172-.394-.344-.732-.383-.486-.056-.628-.196-.683-.672-.038-.331-.164-.602-.278-.602-.115 0-.322-.246-.46-.547-.312-.688-.568-.692-.824-.016-.172.454-1.002.972-1.2.749-.036-.041-.413-.829-.835-1.75-.444-.968-1-1.827-1.32-2.037-.5-.329-.615-.332-1.198-.03-.738.382-1.003.26-.653-.301.132-.212.178-.546.1-.747-.118-.31-.351-.341-1.575-.216l-1.437.145.134-.533c.094-.375.007-.648-.298-.924-.324-.293-.403-.572-.317-1.107.1-.615.044-.735-.398-.854a5.307 5.307 0 0 0-1.115-.139c-.36-.002-.71-.18-.874-.443-.304-.487-.844-.558-1.513-.2-.36.193-.524.152-.869-.218-.233-.251-.567-.457-.743-.457-.175 0-.688-.33-1.139-.736-.725-.651-.945-.732-1.912-.689-.719.032-1.223-.064-1.475-.281-.045-.04-.084-.062-.12-.044zm38.166 8.386c.223-.067.449.16.325.482-.067.176-.261.32-.428.32-.348 0-.381-.196-.107-.63a.386.386 0 0 1 .21-.172zm-1.966.246c.06.015.136.05.224.104.188.117.21.23.063.32a.272.272 0 0 1-.372-.098c-.15-.244-.099-.37.085-.326zM17.985 44.6c0 .776.624 1.4 1.398 1.4-.774 0-1.398.624-1.398 1.4 0-.776-.624-1.4-1.399-1.4.775 0 1.399-.624 1.399-1.4zm13.985 0c0 .776.623 1.4 1.398 1.4-.775 0-1.398.624-1.398 1.4 0-.776-.624-1.4-1.399-1.4.775 0 1.399-.624 1.399-1.4zm13.985 0c0 .776.623 1.4 1.398 1.4-.775 0-1.398.624-1.398 1.4 0-.776-.624-1.4-1.399-1.4.775 0 1.399-.624 1.399-1.4z" fill="#7CB668"/>
    <path d="M45.665 33.085c-.047 0-.141.148-.21.329-.07.18-.032.328.084.328.117 0 .214-.148.214-.328 0-.18-.04-.329-.088-.329zm-41.395.572c-.1-.062-.183.03-.183.205s.083.317.183.317c.1 0 .183-.092.183-.205a.419.419 0 0 0-.183-.317zm39.928.522c-.229 0-.258.303-.049.512.266.265.5.15.372-.184-.07-.18-.215-.328-.323-.328zm-38.368.066c-.261.06-.493.328-.5.645-.006.287.589.177.869-.161.22-.265.2-.35-.104-.468a.454.454 0 0 0-.265-.016zm4.433.508c-.057-.033-.138-.032-.237.006-.18.07-.328.212-.328.32 0 .107.147.194.328.194.18 0 .327-.143.327-.32 0-.098-.033-.166-.09-.2zm31.663.11a7.512 7.512 0 0 0-.612.016c-1.08.063-1.137.098-1.207.72-.072.63-.061.64.344.273.23-.209.588-.38.795-.38.473 0 1.471 1.06 1.428 1.517a2.81 2.81 0 0 0-.008.506c.044.29.411.178.544-.167.09-.233.293-.294.68-.197.451.114.551.061.551-.298 0-.594.501-.745 1.096-.328.433.304.51.306.672.017.1-.18.631-.497 1.177-.706.545-.208.934-.47.866-.58-.195-.316-.79-.235-1.238.17-.301.273-.863.384-2.136.416-1.615.04-1.751.007-2.078-.492-.232-.354-.388-.474-.874-.487zm-32.86.462c-.102-.012-.2.042-.34.159-.472.392-.423.621.152.716.708.117.98-.2.547-.634-.15-.15-.255-.23-.358-.241zm-2.277.84c-.1.013-.23.065-.388.163-.24.15-.518.222-.62.16-.29-.18-.695.441-.544.836.145.378.965.503.965.147 0-.115.213-.412.475-.656.42-.391.41-.691.112-.65zm3.72.073c-.053-.039-.149.02-.32.15-.21.162-.416.316-.458.342-.043.026-.014.151.065.28.283.458.776.243.776-.34 0-.256-.01-.393-.063-.432zm30.865.129c-.116 0-.21.147-.21.328 0 .18.037.328.084.328.048 0 .144-.148.213-.328.07-.18.03-.328-.087-.328zm-33.042.11c-.076-.01-.133.06-.213.201-.1.18-.12.578-.044.88l.137.553.399-.49c.365-.449.367-.52.043-.88-.152-.17-.246-.256-.322-.265zm44.143.798a1.1 1.1 0 0 0-.27.183c-.184.152-.334.568-.334.924 0 .882.492.683.688-.279.135-.659.121-.906-.084-.828zm-35.979.185c-.12 0-.278.099-.352.22-.074.12-.038.218.082.218s.28-.098.355-.219c.074-.12.035-.219-.085-.219zm43.282.137c-.082-.05-.165.143-.183.432-.017.29.036.525.118.525.199 0 .256-.839.065-.957zm-50.334.14c-.135.019-.285.136-.353.339-.047.143.07.26.26.26s.347-.155.347-.345c0-.193-.12-.274-.254-.254zm31.752.205c-.075-.017-.144-.006-.188.038-.089.089-.018.248.156.356.408.252.592.068.262-.263a.485.485 0 0 0-.23-.131zm-25.817.175c-.511 0-.516.024-.18.763.185.407.303.486.431.284.33-.52.204-1.047-.25-1.047zm-11.316.065c-.03.03-.043.127-.044.298-.002.327.116.458.38.419.21-.031.358-.121.328-.2-.03-.079-.118-.136-.194-.126-.077.01-.224-.112-.325-.273-.067-.106-.115-.146-.145-.118zm45.705.071a.265.265 0 0 0-.156.069c-.28.28.358 1.25.942 1.435.244.078.443.331.443.564 0 .232.1.42.224.42.348 0 .517-.654.24-.932-.136-.136-.246-.418-.246-.626 0-.408-.996-.993-1.447-.93zm-16.26.104c-.009-.043-.11-.03-.31.009-.494.094-1.314 1.381-1.1 1.728.233.377.646.114.727-.462a2.11 2.11 0 0 1 .437-.938c.17-.192.254-.293.246-.337zm21.204.197a.22.22 0 0 0 0 .438.22.22 0 0 0 0-.438zm5.156.219c-.047 0-.14.148-.21.328-.069.18-.032.328.085.328.116 0 .196-.147.196-.328 0-.18-.023-.328-.07-.328zm-3.61.263c-.13-.044-.235.083-.235.284 0 .2.105.33.235.287.129-.043.234-.173.234-.287 0-.114-.105-.241-.234-.284zm-12.144.393c-.166 0-.363.099-.437.219-.077.125.11.219.437.219.325 0 .514-.094.437-.219-.075-.12-.271-.219-.437-.219zm-7.921.132c-.817.065-.93.114-.93.399 0 .336-1.164.794-1.826.719a.733.733 0 0 0-.634.303c-.173.267-.116.464.246.826.397.398.496.421.603.142.166-.432 1.257-.431 1.615 0 .225.272.203.411-.118.766-.215.238-.561.432-.77.432-.334 0-.646.407-.645.84 0 .08.345.169.765.199.42.03.765-.018.765-.11 0-.32.906-.728 1.325-.595.595.189.526.731-.123.978-.3.115-.547.358-.547.542 0 .36-.339.454-.53.145-.064-.105-.39-.247-.723-.315a7.618 7.618 0 0 1-1.008-.279c-.312-.12-.387-.068-.328.23.043.215.415.497.839.635.7.226.763.318.773 1.12.013 1.115-.238 1.492-.795 1.193-.228-.122-.417-.39-.42-.596-.006-.263-.303-.708-.651-1.078-.629.138-1.106.671-1.106 1.343 0-.776-.624-1.4-1.399-1.4.775 0 1.399-.624 1.399-1.4 0 .158.042.304.09.446.062-.131.2-.276.464-.449.297-.194.49-.484.43-.642-.145-.377-1.38-.215-1.91.251-.506.444-1.015.16-1.45-.806-.395-.878-1.015-.845-.951.052.04.545-.016.6-.48.483-.289-.072-.775-.017-1.082.124-.459.209-.558.405-.558 1.093 0 .713-.07.84-.467.84-.257 0-.597.172-.754.383-.386.52-1.104.098-1.002-.591.055-.37-.023-.468-.328-.41-.248.047-.427.302-.47.675-.045.393-.197.599-.442.599-.206 0-.596.158-.866.347-.4.281-.68.302-1.519.123-.566-.12-1.065-.186-1.106-.145-.041.042.075.307.257.588.289.446.293.565.019.935-.477.646-.38.845.341.7.498-.1.656-.049.656.203 0 .182.198.6.44.927.36.487.413.788.295 1.651-.159 1.157-.59 1.518-1.052.886-.199-.272-.232-.564-.104-.902.166-.435.122-.5-.336-.5-.334 0-.575.159-.663.437-.077.24-.288.437-.47.437-.258 0-.296-.155-.178-.71.084-.391.251-.834.375-.988.123-.153.184-.321.133-.371-.144-.145-1.5.777-1.5 1.02 0 .12-.2.498-.442.839-.496.698-.29.99.55.78.586-.148.943.217.573.587a.995.995 0 0 0-.243.613c0 .22-.222.41-.55.473-.43.082-.607-.017-.821-.465-.15-.315-.473-.602-.716-.637-.243-.035-.558-.247-.7-.473-.206-.332-.178-.51.143-.922.219-.28.471-.742.56-1.025.105-.338.233-.44.374-.298.248.248 1.054.093 1.054-.203 0-.109-.248-.292-.551-.407-.718-.273-.904-.791-.46-1.282.195-.216.356-.557.356-.758 0-.516-.674-.457-.812.071-.124.478-.705.605-.745.164l-.055-.601c-.023-.253-.264-.31-1.065-.252-.857.062-1.038.009-1.038-.295 0-.203-.204-.422-.45-.487-.316-.083-.404-.221-.296-.47.085-.195.172-.68.194-1.078.033-.594-.071-.781-.579-1.044-.362-.188-.617-.502-.617-.755 0-.315-.15-.432-.552-.432h-.549l.708.632c.62.555.667.677.401.998-.275.332-.387.274-1.262-.64l-.961-1.003.505-.416c.808-.66.295-.88-1.35-.577-1.636.302-1.927.775-1.01 1.638l.535.506.246-.46c.356-.665.597-.564.762.318.101.537.304.837.661.973.284.108.55.365.59.571.04.207.41.49.822.63 1.006.338 1.311.838.834 1.367-.207.228-.314.594-.249.844.17.652-.55 1.396-1.5 1.548-.702.113-.9.045-1.365-.457-.3-.322-.544-.647-.544-.721 0-.075-.164-.316-.363-.536-.338-.375-.335-.402.055-.408.386-.006.39-.023.035-.23-.21-.122-.443-.607-.519-1.08-.09-.57-.274-.903-.546-.99-.278-.088-.41-.335-.41-.77 0-.587-.065-.643-.757-.643-.559 0-.826.13-1.018.49-.253.473-.265.474-.43.054-.084-.216-.13-.044-.158.325.083.38.307.691.629.886.007-.24.065-.443.194-.443.348 0 1.322.498 1.322.676 0 .092.252.468.56.834l.557.664-.557.14c-.66.166-.756.749-.123.749.242 0 .437.146.437.328 0 .182.194.328.437.328.559 0 .569.445.013.59-.714.188-.261.703 1.23 1.4.972.456 1.49.843 1.668 1.25.143.325.443.865.67 1.2.337.5.369.71.169 1.15-.135.295-.34.535-.456.535-.274 0-.904-.897-.776-1.104.054-.088-.146-.32-.445-.517-.373-.245-.544-.557-.544-.99 0-.701-.345-.933-.934-.629-.49.252-.814.057-.814-.49 0-.233-.1-.426-.224-.426-.123 0-.318-.242-.431-.541l-.205-.545-.568.566c-.64.642-.57 1.294.12 1.113.555-.145.745.152.322.503a1.01 1.01 0 0 0-.325.681c0 .622-.382.497-1.196-.393l-.735-.804-.027 4.194v.003H4v2.8c0 .014.008.026.008.04.023.742.61 1.33 1.35 1.352.014 0 .026.008.04.008h11.188c.047 0 .086-.023.132-.027.352-.035.664-.186.89-.432.028-.03.045-.07.071-.102.077-.1.154-.2.202-.32.066-.16.104-.333.104-.52 0 .184.037.355.101.512.04.102.108.185.17.274.03.041.052.087.087.125a1.364 1.364 0 0 0 .825.446c.073.012.139.044.215.044h11.188c.03 0 .054-.015.082-.017h.006c.006 0 .012-.004.019-.005a1.38 1.38 0 0 0 .904-.418c.04-.042.063-.098.098-.145.067-.091.14-.176.183-.282.068-.163.107-.343.107-.533 0 .18.039.346.1.5.038.097.098.175.154.26.032.047.057.097.095.14.095.11.206.196.33.273.002 0 .002.002.004.003.137.083.285.137.448.17.09.017.172.054.267.054h11.188a1.4 1.4 0 0 0 .533-.107h.005l.003-.002h.005c.011-.005.017-.015.028-.02.139-.062.261-.149.371-.251.033-.031.06-.065.09-.099.08-.09.148-.189.202-.298.023-.044.046-.084.063-.13.058-.155.099-.318.099-.493 0 .175.04.337.098.49.022.058.053.107.082.16.047.087.1.167.164.241.048.058.096.11.153.159.056.048.119.084.183.123.08.049.154.099.243.131.15.054.307.096.475.096h11.188c.018 0 .032-.01.05-.011.374-.014.71-.167.952-.418l.003-.003c.023-.024.034-.057.055-.082.09-.109.178-.22.232-.353a1.39 1.39 0 0 0 .106-.533v-8.674c-.004-1.32-.02-1.654-.027-2.668-.074-.705-.647-1.258-1.371-1.258.679 0 1.27-.489 1.398-1.13 0 0 .137-4.656 0-4.47-.142.194-.743.131-.977.09-.333-.058-.412.032-.358.416.094.675-.29.619-1.049-.159-.374-.383-.697-.559-.778-.426-.094.15-.241.139-.451-.036-.173-.143-.336-.222-.363-.175-.453.787-.528 1.044-.377 1.288.209.339.045.875-.265.875-.12 0-.505-.205-.858-.457-.354-.252-.797-.399-.989-.325-.191.073-.47.034-.62-.09-.39-.324-.941.348-.582.708.37.37.317.503-.306.787-.318.146-.494.36-.41.498.164.265-1.5.067-2.075-.246-.173-.094-.55-.065-.836.066-.407.185-.564.17-.713-.071-.105-.17-.22-.262-.257-.206-.585.907-.591 1.05-.057 1.4.8.525.672.939-.344 1.11-.436.074-.647.15-.732.263.231.17.501.29.811.29a1.37 1.37 0 0 0-.85.314c-.03.159-.086.321-.18.449-.117.16-.205.243-.295.27-.032.12-.073.237-.073.367 0-.132-.04-.251-.074-.372a.642.642 0 0 1-.18-.112c-.175-.145-.38-.2-.457-.123-.077.077.03.268.238.424.35.26.326.332-.306.916l-.685.631.112-.894a2.785 2.785 0 0 1 .74-1.558c.007-.008.012-.02.019-.028a1.366 1.366 0 0 0-.806-.284c.775 0 1.399-.624 1.399-1.4 0 .1.037.19.057.284.045-.277.146-.595.292-.804.31-.441.295-.545-.207-1.342-.3-.475-.648-.93-.773-1.006-.125-.078-.227-.38-.227-.673 0-.294-.088-.536-.194-.536-.313 0-.729.621-.579.864.076.124.074.57-.005.993-.103.547-.26.768-.544.768-.22 0-.461-.098-.535-.219-.075-.12-.376-.219-.67-.219-.532 0-.703-.384-.344-.776.105-.114.256-.479.334-.81.187-.795-.355-.814-.896-.032a6.911 6.911 0 0 1-.773.924c-.21.196-.383.48-.383.634 0 .154-.098.28-.218.28l-.353.002c-.072 0-.159-.449-.194-1-.045-.726-.191-1.096-.524-1.33-.253-.177-.459-.452-.459-.612 0-.16-.29-.334-.642-.386-.5-.073-.698.017-.91.413-.352.66-.902.67-.81.014.04-.292-.043-.483-.205-.47zm-23.004.418c-.123.075-.165.23-.096.342.187.303.32.247.32-.137 0-.188-.102-.28-.224-.205zm4.277.183c-.358.078-.776.46-.776.807 0 .48.26.541.888.205.451-.242.56-.758.208-.976a.43.43 0 0 0-.32-.036zm32.318.465a.35.35 0 0 0-.098.115c-.117.18-.214.494-.216.694-.002.2-.108.398-.235.44-.131.044-.163.255-.074.487.152.396.168.396.451.008.161-.22.288-.75.287-1.178-.002-.437-.033-.61-.115-.566zm-45.35.26c-.128-.04-.186.098-.243.484-.083.57-.05.609.303.388.475-.297.492-.445.093-.777a.49.49 0 0 0-.153-.095zm31.472.292c.113 0 .267.099.341.219.074.12-.02.219-.207.219-.188 0-.34-.099-.34-.219s.093-.219.206-.219zm-21.824.233c-.19-.024-.451.324-.451.727 0 .423.093.484.634.405.505-.075.665.004.786.388.166.522.414.38.637-.358.12-.399.03-.489-.615-.61-.415-.078-.792-.253-.838-.391-.034-.102-.09-.153-.153-.161zm2.717.861c-.508 0-.734.397-.41.722.18.18.957-.234.957-.509 0-.116-.246-.213-.547-.213zm21.306 0c.12 0 .218.148.218.328 0 .18-.098.328-.218.328s-.219-.147-.219-.328c0-.18.098-.328.219-.328zm2.832.478c.148-.049.415.058.595.238.206.206.246.38.107.465-.122.076-.392-.031-.598-.238-.269-.268-.297-.4-.104-.465zm-35.708.178c-.053 0-.155.099-.23.219-.074.12-.03.219.096.219.128 0 .233-.099.233-.219s-.046-.219-.099-.219zm14.799.203c-.087-.01-.198.101-.246.246-.048.144.03.223.175.175.282-.094.332-.394.071-.421zm20.324.973c.04-.017.096-.01.156.027.12.075.219.18.219.233 0 .053-.099.095-.219.095a.224.224 0 0 1-.218-.23c0-.063.023-.108.062-.125zm-19.133.077c-.43-.054-1.47.433-1.47.752 0 .133.28.159.71.068.878-.185 1.203-.461.902-.763a.238.238 0 0 0-.142-.057zm8.83.295c.109.043.189.19.189.421 0 .24-.094.437-.208.437-.293 0-.498-.398-.338-.656.114-.185.25-.245.358-.202zm-5.28.533c-.121.076-.164.23-.095.342.187.303.32.247.32-.137 0-.187-.102-.28-.224-.205zm7.518.44c.167.214.381.375.644.462-.198-.188-.4-.351-.573-.418-.033-.013-.043-.03-.071-.044zm6.845.61a.58.58 0 0 1 .234.027c.509.162.785.965.465 1.351-.14.168-.15.538-.028.998.2.754.455.838 1.51.506.349-.11.624-.005 1.003.375.605.605 1.632.66 1.942.104.328-.586.565-.427.675.454.085.677-.073 1.388-.393 1.769-.034.04-.507-.176-1.05-.479-.83-.464-1.023-.503-1.236-.246-.295.355-.114.76.341.76.173 0 .317.099.317.219 0 .33-.495.265-1.076-.142-.483-.338-.537-.338-.784 0-.146.2-.457.36-.691.36-.235 0-.646.296-.913.657-.266.36-.608.656-.762.656-.493 0-1.034-.535-.991-.984.086-.904-.028-1.229-.41-1.17-.675.102-1.584-.247-1.584-.607 0-.258.134-.314.522-.217.361.091.565.026.655-.21.087-.227.28-.295.571-.202.28.089.646-.023 1.013-.312.42-.33.477-.454.216-.454-.251 0-.355-.195-.355-.656 0-.761-.219-.84-.606-.219-.15.24-.468.437-.708.437-.46 0-.584-.318-.216-.546.12-.075.219-.325.219-.558 0-.239.148-.427.339-.427.187 0 .618-.305.958-.678.337-.37.586-.544.823-.566zm-34.405.134a1.39 1.39 0 0 0-.284.194c-.007.105-.08.265-.224.41-.168.168-.072.202.341.123.41-.078.51-.178.344-.344-.084-.084-.14-.227-.177-.383zm43.866.235a.22.22 0 0 1 0 .438.22.22 0 0 1 0-.438zm-43.074.438c-.12 0-.157.098-.082.218.074.12.232.22.352.22.12 0 .16-.1.085-.22-.074-.12-.235-.218-.355-.218zm20.687 0c.053 0 .099.098.099.218s-.105.22-.232.22c-.128 0-.17-.1-.096-.22.074-.12.176-.218.23-.218zm-16.508.218a.22.22 0 0 0 0 .438.22.22 0 0 0 0-.438zm38.076.003c.177.029.41.22.56.547.137.3.352.547.478.547.125 0 .322-.246.437-.547.348-.916 1.402-.567 1.816.602.156.439.939.518 1.084.11.054-.151.177-.203.274-.113.096.09-.333.66-.954 1.266-.842.822-1.045 1.134-.8 1.228.18.069.477.068.661-.003.22-.085.478.109.76.571.59.972.199 1.314-.612.536-.741-.71-.968-.742-.877-.123.093.635-1.05.809-1.246.189-.17-.54-.732-.645-1.477-.279-.334.164-.776.27-.984.235-.279-.046-.359.063-.308.427.099.714-.534.63-.779-.104-.152-.458-.101-.765.221-1.313.447-.758.967-.93 1.175-.388.168.44 1.172.435 1.172-.005 0-.185-.172-.39-.383-.457-.808-.259-1.365-.605-1.365-.848 0-.139.234-.473.521-.743.33-.31.48-.647.41-.914-.083-.316.039-.45.216-.42zm-43.662.252c-.107.037-.107.245-.027.738.074.458.26.914.415 1.012.434.276 1.091.215.994-.09-.048-.15-.295-.368-.552-.484-.273-.124-.449-.386-.423-.632.024-.232-.096-.468-.265-.528-.06-.021-.106-.029-.142-.016zm22.422.402c.128 0 .173.098.099.218-.075.12-.18.22-.233.22-.053 0-.095-.1-.095-.22s.102-.218.23-.218zm-13.572.26c.164-.055.246.027.191.19a.684.684 0 0 1-.382.384c-.164.054-.246-.028-.192-.192a.684.684 0 0 1 .383-.383zm27.7.038c.039.015.065.054.065.115 0 .12-.099.278-.219.352-.12.075-.218.039-.218-.082 0-.12.098-.28.218-.355.06-.037.114-.045.153-.03zm-7.867.221c.062.006.122.051.174.137a.407.407 0 0 1-.06.476c-.145.146-.27.133-.377-.039a.403.403 0 0 1 .06-.473c.073-.072.14-.107.203-.1zm1.04.15c.196-.06.653.267 1.18.881.405.471.7.845.656.831a21.821 21.821 0 0 0-.516-.134c-.471-.119-1.42-1.044-1.42-1.383 0-.11.035-.174.1-.194zm-2.395.173c.114 0 .24.106.284.235.043.13-.084.235-.284.235-.2 0-.33-.106-.287-.235.043-.13.173-.235.287-.235zm-21.966.052a.56.56 0 0 0-.202.085.276.276 0 0 0-.099.374c.091.147.204.123.32-.065.162-.264.14-.418-.02-.394zm-5.43.746l-.014.566c-.008.311.057.637.145.725.26.26.306-.191.08-.76zm27.767.547c.097 0 .175.125.175.276 0 .152.197.4.437.55a.907.907 0 0 1 .055 1.496c-.792.601-1.366.176-1.366-1.01 0-.74.305-1.312.7-1.312zm-17.524.438a.22.22 0 0 1 0 .437.22.22 0 0 1 0-.437zm24.798.779c-.228.061-.543.347-.543.56 0 .106.085.192.19.192.286 0 .7-.563.536-.727-.04-.041-.107-.045-.183-.025zm-11.761.137c.155-.012.408.094.726.352.415.337.439.43.167.657-.253.21-.39.182-.678-.137-.456-.505-.474-.852-.215-.872zm-.555.631c.11.039.191.182.191.41 0 .234-.1.486-.22.561-.268.165-.532-.436-.334-.757.116-.188.254-.252.363-.214zm-12.485.009c.081-.002.163.048.265.15.354.355-.043.752-.48.481-.26-.16-.272-.254-.056-.47.106-.106.19-.16.27-.161zm20.5.194c.38 0 .974.604.827.842-.172.277-.63.335-.858.107-.206-.207-.182-.95.03-.95zm-4.202.218c.19 0 .307.117.26.26-.135.406-.604.474-.604.088 0-.19.154-.348.344-.348zm-22.564.266c.045.005.11.047.188.125.143.143.21.31.148.372-.146.146-.404-.112-.404-.404 0-.069.023-.1.068-.093zm26.189.39c.24 0 .401.158.401.394 0 .217.118.512.263.657.17.17.186.338.049.475-.138.138-.419-.044-.798-.52-.61-.764-.59-1.005.085-1.005zm-14.886.269c.096-.02.2-.015.303.024.188.073.344.284.344.468 0 .382-.774.459-.997.098-.155-.25.06-.532.35-.59zm27.177.207c.092.005.204.028.333.069.252.08.4.235.33.347-.169.275-.696.257-.873-.03-.16-.258-.065-.4.21-.386zm-18.685.072l.448.516c.455.526.551 1.035.314 1.655-.073.19-.272.344-.443.344-.418 0-.65-.657-.306-.87.182-.112.224-.416.129-.907zm9.112.109c.167 0 .305.138.305.303 0 .407-.578.876-.745.605-.194-.314.092-.908.44-.908zm-4.406.219c.384 0 .462.555.109.774-.152.094-.11.326.126.686.196.3.305.684.24.853-.164.427.61.79 1.308.615.44-.11.557-.072.481.159-.055.167-.319.338-.587.377-.268.04-.544.212-.61.383-.123.323-.762.423-1.024.161-.082-.082-.57-.13-1.084-.104-.872.046-.975-.01-1.513-.834-.318-.485-.548-.883-.514-.883.035 0 .352.146.705.323.93.464 2.158.529 2.158.115 0-.21-.177-.307-.492-.274-.641.068-.642-.448-.003-1.088.27-.27.46-.663.424-.875-.04-.232.07-.388.276-.388zm-11.78.218c.176 0 .321.148.321.329 0 .18-.089.328-.196.328-.107 0-.25-.148-.32-.328-.076-.2-.001-.329.194-.329zm-7.515.993c.17-.047.407.051.407.224 0 .053-.154.096-.341.096-.188 0-.28-.1-.205-.222a.232.232 0 0 1 .139-.098zm13.903 1.192a.306.306 0 0 1 .17.003c.061.023.101.074.103.164.002.09.061.386.134.656.105.394.043.492-.317.492-.558 0-.765-.306-.584-.875a.709.709 0 0 1 .494-.44zm3.324 1.865c.122-.076.224.018.224.205 0 .384-.132.44-.32.137-.069-.112-.026-.266.096-.342z" fill="#377375"/>
    <path d="M45.955 44.6V33.4c0-.776-.624-1.4-1.399-1.4H33.368c-.775 0-1.398.624-1.398 1.4v11.2c0 .776.623 1.4 1.398 1.4h11.188c.775 0 1.399-.624 1.399-1.4z" opacity=".3" fill="#F9F5D7"/>
    <path d="M17.985 58.6V47.4c0-.776-.624-1.4-1.399-1.4H5.4C4.624 46 4 46.624 4 47.4v11.2c0 .776.624 1.4 1.399 1.4h11.187c.775 0 1.399-.624 1.399-1.4zM45.955 58.6V47.4c0-.776-.624-1.4-1.399-1.4H33.368c-.775 0-1.398.624-1.398 1.4v11.2c0 .776.623 1.4 1.398 1.4h11.188c.775 0 1.399-.624 1.399-1.4z" opacity=".3"/>
    <path d="M5.398 4C4.623 4 4 4.623 4 5.398v1C4 5.623 4.623 5 5.398 5h11.204C17.377 5 18 5.623 18 6.398v-1C18 4.623 17.377 4 16.602 4H5.398zm14 14c-.775 0-1.398.623-1.398 1.398v1c0-.775.623-1.398 1.398-1.398h11.204c.775 0 1.398.623 1.398 1.398v-1c0-.775-.623-1.398-1.398-1.398H19.398zm28 0c-.775 0-1.398.623-1.398 1.398v1c0-.775.623-1.398 1.398-1.398h11.204c.775 0 1.398.623 1.398 1.398v-1c0-.775-.623-1.398-1.398-1.398H47.398zm-14 14c-.775 0-1.398.623-1.398 1.398v1c0-.775.623-1.398 1.398-1.398h11.204c.775 0 1.398.623 1.398 1.398v-1c0-.775-.623-1.398-1.398-1.398H33.398z" opacity=".2" fill="#F9F5D7"/>
    <path d="M17.666 32.498A1.39 1.39 0 0 1 16.6 33H5.4a1.39 1.39 0 0 1-1.058-.492 1.393 1.393 0 0 0-.326.892v11.2c0 .775.623 1.4 1.398 1.4h11.188c.774 0 1.398-.625 1.398-1.4V33.4c0-.345-.128-.658-.334-.902z" opacity=".3" fill="#F9F5D7"/>
    <path d="M4 16.6v1c0 .775.625 1.4 1.4 1.4h11.2c.775 0 1.4-.625 1.4-1.4v-1c0 .775-.625 1.4-1.4 1.4H5.4c-.775 0-1.4-.625-1.4-1.4zm0 14v1c0 .775.625 1.4 1.4 1.4h11.2c.775 0 1.4-.625 1.4-1.4 0 .775.625 1.4 1.4 1.4h11.2c.775 0 1.4-.625 1.4-1.4v-1c0 .775-.625 1.4-1.4 1.4H19.4c-.775 0-1.4-.625-1.4-1.4 0 .775-.625 1.4-1.4 1.4H5.4c-.775 0-1.4-.625-1.4-1.4zm42 0v1c0 .775.625 1.4 1.4 1.4h11.2c.775 0 1.4-.625 1.4-1.4v-1c0 .775-.625 1.4-1.4 1.4H47.4c-.775 0-1.4-.625-1.4-1.4zm-42 14v1c0 .775.625 1.4 1.4 1.4h11.2c.775 0 1.4-.625 1.4-1.4 0 .775.625 1.4 1.4 1.4h11.2c.775 0 1.4-.625 1.4-1.4 0 .775.625 1.4 1.4 1.4h11.2c.775 0 1.4-.625 1.4-1.4 0 .775.625 1.4 1.4 1.4h11.2c.775 0 1.4-.625 1.4-1.4v-1c0 .775-.625 1.4-1.4 1.4H47.4c-.775 0-1.4-.625-1.4-1.4 0 .775-.625 1.4-1.4 1.4H33.4c-.775 0-1.4-.625-1.4-1.4 0 .775-.625 1.4-1.4 1.4H19.4c-.775 0-1.4-.625-1.4-1.4 0 .775-.625 1.4-1.4 1.4H5.4c-.775 0-1.4-.625-1.4-1.4zm0 14v1c0 .775.625 1.4 1.4 1.4h11.2c.775 0 1.4-.625 1.4-1.4 0 .775.625 1.4 1.4 1.4h11.2c.775 0 1.4-.625 1.4-1.4 0 .775.625 1.4 1.4 1.4h11.2c.775 0 1.4-.625 1.4-1.4 0 .775.625 1.4 1.4 1.4h11.2c.775 0 1.4-.625 1.4-1.4v-1c0 .775-.625 1.4-1.4 1.4H47.4c-.775 0-1.4-.625-1.4-1.4 0 .775-.625 1.4-1.4 1.4H33.4c-.775 0-1.4-.625-1.4-1.4 0 .775-.625 1.4-1.4 1.4H19.4c-.775 0-1.4-.625-1.4-1.4 0 .775-.625 1.4-1.4 1.4H5.4c-.775 0-1.4-.625-1.4-1.4z" opacity=".2"/>
</svg>
