<svg width="64" xmlns="http://www.w3.org/2000/svg" height="64" xmlns:xlink="http://www.w3.org/1999/xlink">
    <defs>
        <linearGradient id="b">
            <stop stop-color="#BDAD93"/>
            <stop offset="1" stop-color="#F9F5D7"/>
        </linearGradient>
        <linearGradient id="a">
            <stop stop-color="#066678"/>
            <stop offset="1" stop-color="#066678"/>
        </linearGradient>
        <linearGradient id="h" xlink:href="#a" y1="512.798" y2="527.798" x1="400.571" x2="415.571" gradientUnits="userSpaceOnUse" gradientTransform="matrix(1.18182 0 0 1.18182 -74.286 -95.732)"/>
        <linearGradient id="i" xlink:href="#a" y1="512.798" y2="527.798" x1="400.571" x2="415.571" gradientUnits="userSpaceOnUse" gradientTransform="translate(79 3.656)"/>
        <linearGradient xlink:href="#a" id="j" y1="512.798" x1="400.571" y2="527.798" gradientUnits="userSpaceOnUse" x2="415.571" gradientTransform="matrix(1.18182 0 0 1.18182 6.714 -89.236)"/>
        <linearGradient xlink:href="#a" id="k" y1="512.798" x1="400.571" y2="527.798" gradientUnits="userSpaceOnUse" x2="415.571" gradientTransform="matrix(1.18182 0 0 1.18182 3.714 -96.236)"/>
        <linearGradient id="e">
            <stop stop-color="#066678"/>
            <stop offset=".7" stop-color="#48B9C7"/>
            <stop offset="1" stop-color="#066678"/>
        </linearGradient>
        <linearGradient id="d">
            <stop stop-color="#282727"/>
            <stop offset=".7" stop-color="#504945"/>
            <stop offset="1" stop-color="#282727"/>
        </linearGradient>
        <linearGradient id="c">
            <stop stop-color="#448588"/>
            <stop offset=".7" stop-color="#F9F5D7"/>
            <stop offset="1" stop-color="#F9F5D7"/>
        </linearGradient>
        <linearGradient id="g">
            <stop stop-color="#F9F5D7"/>
            <stop offset="1" stop-color="#F9F5D7"/>
        </linearGradient>
        <linearGradient id="l" xlink:href="#b" y1="541.986" y2="502.655" x1="409.495" x2="409.571" gradientUnits="userSpaceOnUse" gradientTransform="matrix(1.08333 0 0 1.1059 -34.048 -55.586)"/>
        <linearGradient id="p" xlink:href="#c" x1="407.348" gradientUnits="userSpaceOnUse" x2="408.571" gradientTransform="translate(-246.399 -346.46) scale(1.63489)"/>
        <linearGradient id="o" xlink:href="#d" x1="407.348" gradientUnits="userSpaceOnUse" x2="408.571" gradientTransform="translate(-246.399 -346.46) scale(1.63489)"/>
        <linearGradient id="q" xlink:href="#e" x1="407.348" gradientUnits="userSpaceOnUse" x2="408.571" gradientTransform="translate(-246.399 -346.46) scale(1.63489)"/>
        <linearGradient id="r" xlink:href="#d" x1="22.777" gradientUnits="userSpaceOnUse" x2="24" gradientTransform="translate(382.334 496.814) scale(1.63489)"/>
        <linearGradient id="n" xlink:href="#f" y1="525.798" y2="539.798" x1="400.571" gradientUnits="userSpaceOnUse" x2="414.571" gradientTransform="translate(-242.357 -341.12) scale(1.625)"/>
        <linearGradient id="f">
            <stop stop-color="#282727"/>
            <stop offset="1" stop-opacity="0"/>
        </linearGradient>
        <linearGradient xlink:href="#g" id="m" x1="386.571" x2="429.571" gradientUnits="userSpaceOnUse"/>
    </defs>
    <path d="M382.571 506.798h52v37.004h-52z" fill="url(#l)" transform="translate(-376.571 -491.798)"/>
    <path d="M386.571 511.798h44v27h-44z" fill="url(#m)" fill-rule="evenodd" transform="translate(-376.571 -491.798)"/>
    <path d="M421.571 513.798l-1 23 8 8h6v-18z" fill="url(#n)" opacity=".2" fill-rule="evenodd" transform="translate(-376.571 -491.798)"/>
    <path d="M6 8.995h52V16H6z" fill="#282727"/>
    <path d="M419.571 513.798h2v12h-2z" fill="url(#o)" transform="translate(-376.571 -491.798)"/>
    <path d="M419.571 525.798h2v8.619h-2z" fill="url(#p)" transform="translate(-376.571 -491.798)"/>
    <path d="M419.571 532.798h2v1.619h-2z" fill="url(#q)" transform="translate(-376.571 -491.798)"/>
    <path d="M419.571 534.417v.381l1 2 1-2v-.381z" fill="url(#r)" fill-rule="evenodd" transform="translate(-376.571 -491.798)"/>
    <path d="M6 51h52v2H6z" fill="#282727"/>
    <path fill="#F9F5D7" fill-rule="evenodd" d="M9 12h5v1H9z"/>
    <path fill="#066678" fill-rule="evenodd" d="M50 12h5v1h-5z"/>
    <path d="M10 19h44v2H10z" fill="#F9F5D7" fill-rule="evenodd"/>
</svg>
