<svg width="64" xmlns="http://www.w3.org/2000/svg" height="64" xmlns:xlink="http://www.w3.org/1999/xlink">
    <defs>
        <linearGradient id="f" xlink:href="#a" y1="523.798" y2="537.798" x1="408.572" gradientUnits="userSpaceOnUse" x2="422.571" gradientTransform="matrix(1.29989 0 0 1.3 -499.097 -648.937)"/>
        <linearGradient id="a">
            <stop stop-color="#282727"/>
            <stop offset="1" stop-opacity="0"/>
        </linearGradient>
        <linearGradient id="d" xlink:href="#b" y1="540.798" y2="506.798" x2="0" gradientUnits="userSpaceOnUse" gradientTransform="matrix(1.52928 0 0 1.52941 -592.82 -769.103)"/>
        <linearGradient id="g" xlink:href="#c" y1="540.798" y2="506.798" x2="0" gradientUnits="userSpaceOnUse" gradientTransform="translate(-184.303 -245.305) scale(.52941)"/>
        <linearGradient id="h" xlink:href="#a" y1="522.916" y2="533.685" x1="407.557" gradientUnits="userSpaceOnUse" x2="418.327" gradientTransform="matrix(1.29989 0 0 1.3 -112.208 -177.993)"/>
        <linearGradient id="c">
            <stop stop-color="#E6D3A3"/>
            <stop offset="1" stop-color="#E6D3A3"/>
        </linearGradient>
        <linearGradient id="b">
            <stop stop-color="#F9BD2E"/>
            <stop offset="1" stop-color="#F9BD2E"/>
        </linearGradient>
        <linearGradient xlink:href="#c" id="e" y1="517.798" y2="497.798" x2="0" gradientUnits="userSpaceOnUse" gradientTransform="translate(-376.571 -491.798)"/>
    </defs>
    <path d="M32 6A25.942 25.942 0 0 0 6.002 32c0 14.404 11.595 26 25.998 26a25.942 25.942 0 0 0 25.998-26C57.998 17.596 46.403 6 32 6zm0 23c1.662 0 3 1.338 3 3s-1.338 3-3 3-3-1.338-3-3 1.338-3 3-3z" fill="url(#d)"/>
    <path d="M48 6a10 10 0 0 0-10 10 10 10 0 0 0 10 10 10 10 0 0 0 10-10A10 10 0 0 0 48 6z" fill="url(#e)" color="#151819"/>
    <path d="M38.125 25.375l-.555.883A8 8 0 0 1 40 32a8 8 0 0 1-8 8 8 8 0 0 1-6.33-3.123l-.951.498 17.965 18.309a25.947 25.947 0 0 0 12.998-13L38.125 25.375zm-1.1 1.752l-2.289 3.65a2.993 2.993 0 0 1-4.455 3.678l-3.717 1.951A7 7 0 0 0 32 39a7 7 0 0 0 7-7 7 7 0 0 0-1.975-4.873z" fill="url(#f)" opacity=".2" fill-rule="evenodd"/>
    <path d="M32 23a8.98 8.98 0 0 0-9 9c0 4.986 4.014 9 9 9s9-4.014 9-9-4.014-9-9-9zm0 1a8 8 0 0 1 8 8 8 8 0 0 1-8 8 8 8 0 0 1-8-8 8 8 0 0 1 8-8zm0 1a7 7 0 0 0-7 7 7 7 0 0 0 7 7 7 7 0 0 0 7-7 7 7 0 0 0-7-7zm0 4c1.662 0 3 1.338 3 3s-1.338 3-3 3-3-1.338-3-3 1.338-3 3-3z" fill="url(#g)"/>
    <path d="M6.002 31.191c-.005.218 0 .436 0 .655C6.002 46.335 17.597 58 32 58s25.998-11.665 25.998-26.154c0-.22.005-.437 0-.655C57.654 45.375 46.185 57 32 57S6.346 45.375 6.002 31.191z" fill="#322F2E" fill-opacity=".294"/>
    <path d="M32 24a8 8 0 0 0-8 8 8 8 0 0 0 8 8 8 8 0 0 0 8-8 8 8 0 0 0-8-8zm0 1a7 7 0 0 1 7 7 7 7 0 0 1-7 7 7 7 0 0 1-7-7 7 7 0 0 1 7-7z" fill="#322F2E" fill-opacity=".294"/>
    <path d="M422.571 512.798l-1 1h-3l16 16v-21l-4-4z" fill="url(#h)" opacity=".2" fill-rule="evenodd" transform="translate(-376.571 -491.798)"/>
    <path d="M50.985 9.991l-9.093 9.146.01.01-.012 2.844H44.896L45 22l9-9-3-3-.025-.01zm-1.313 2.734l1.414 1.425-5.462 5.503.019-.688h-1.5l-.002-.668zm-6.278 6.324l-.002.671h1.5l.003.668-.841.847-.663-.001-.748-.758v-.669z" fill="#F9BD2E"/>
</svg>
