<svg width="64" xmlns="http://www.w3.org/2000/svg" height="64" xmlns:xlink="http://www.w3.org/1999/xlink">
    <defs>
        <linearGradient id="n">
            <stop stop-color="#F9F5D7"/>
            <stop offset="1" stop-color="#F9F5D7"/>
        </linearGradient>
        <linearGradient id="j">
            <stop stop-color="#BDAD93"/>
            <stop offset="1" stop-color="#F9F5D7"/>
        </linearGradient>
        <linearGradient id="b">
            <stop stop-color="#282727"/>
            <stop offset="1" stop-color="#3A393A"/>
        </linearGradient>
        <linearGradient id="m">
            <stop stop-color="#FA4934"/>
            <stop offset=".25" stop-color="#D79921"/>
            <stop offset=".5" stop-color="#7CB668"/>
            <stop offset=".75" stop-color="#066678"/>
            <stop offset="1" stop-color="#8F3F71"/>
        </linearGradient>
        <linearGradient id="l">
            <stop/>
            <stop offset="1" stop-opacity="0"/>
        </linearGradient>
        <linearGradient id="i">
            <stop stop-color="#066678"/>
            <stop offset="1" stop-color="#066678"/>
        </linearGradient>
        <linearGradient id="f">
            <stop stop-color="#B7BB25"/>
            <stop offset=".312" stop-color="#B7BB25"/>
            <stop offset=".562" stop-color="#7CB668"/>
            <stop offset=".75" stop-color="#4F8660"/>
            <stop offset="1" stop-color="#066678"/>
        </linearGradient>
        <linearGradient id="g">
            <stop stop-color="#B7BB25"/>
            <stop offset=".312" stop-color="#B7BB25"/>
            <stop offset=".562" stop-color="#F9BD2E"/>
            <stop offset=".75" stop-color="#FD8019"/>
            <stop offset="1" stop-color="#F15C22"/>
        </linearGradient>
        <linearGradient id="e">
            <stop stop-color="#CB241D"/>
            <stop offset=".312" stop-color="#A04A73"/>
            <stop offset=".562" stop-color="#CB241D"/>
            <stop offset=".75" stop-color="#FA4934"/>
            <stop offset="1" stop-color="#FA4934"/>
        </linearGradient>
        <linearGradient id="d">
            <stop stop-color="#A04A73"/>
            <stop offset=".312" stop-color="#A04A73"/>
            <stop offset=".562" stop-color="#8F3F71"/>
            <stop offset=".75" stop-color="#066678"/>
            <stop offset="1" stop-color="#066678"/>
        </linearGradient>
        <linearGradient id="a" xlink:href="#b" y1="543.798" y2="503.798" x2="0" gradientUnits="userSpaceOnUse" gradientTransform="matrix(.8 0 0 .8 -302.857 -395.038)"/>
        <linearGradient id="c" xlink:href="#b" y1="543.798" y2="503.798" x2="0" gradientUnits="userSpaceOnUse" gradientTransform="matrix(.8 0 0 .8 81.714 104.76)"/>
        <linearGradient id="h">
            <stop stop-color="#928274"/>
            <stop offset="1" stop-color="#F9F5D7"/>
        </linearGradient>
        <linearGradient id="q" xlink:href="#i" y1="512.798" y2="527.798" x1="400.571" x2="415.571" gradientUnits="userSpaceOnUse"/>
        <linearGradient id="k">
            <stop stop-color="#1D2021"/>
            <stop offset="1" stop-color="#665C54"/>
        </linearGradient>
        <linearGradient id="p" xlink:href="#j" y1="531.798" y2="501.699" gradientUnits="userSpaceOnUse" x2="0" gradientTransform="matrix(1.08333 0 0 1.16667 -34.047 -84.633)"/>
        <linearGradient id="r" xlink:href="#k" y1="533.798" y2="537.798" gradientUnits="userSpaceOnUse" x2="0" gradientTransform="matrix(1.11111 0 0 1 -45.396 0)"/>
        <linearGradient id="s" xlink:href="#k" y1="514.798" y2="511.798" gradientUnits="userSpaceOnUse" x2="0" gradientTransform="matrix(1 0 0 2.28572 0 -664.885)"/>
        <linearGradient id="v" xlink:href="#l" y1="533.798" y2="546.798" x1="391.571" gradientUnits="userSpaceOnUse" x2="404.571" gradientTransform="translate(-2)"/>
        <linearGradient id="B" xlink:href="#l" y1="533.798" y2="546.798" x1="391.571" gradientUnits="userSpaceOnUse" x2="404.571" gradientTransform="translate(0 -22)"/>
        <linearGradient id="u" xlink:href="#m" x1="394.571" gradientUnits="userSpaceOnUse" x2="422.571" gradientTransform="matrix(1.14286 0 0 1 -58.367 0)"/>
        <linearGradient id="t" xlink:href="#n" y1="505.798" y2="503.798" gradientUnits="userSpaceOnUse" x2="0" gradientTransform="translate(0 -12)"/>
        <linearGradient id="x" xlink:href="#n" y1="519.798" y2="507.798" gradientUnits="userSpaceOnUse" x2="0" gradientTransform="matrix(1 0 0 1.33333 0 -181.266)"/>
        <linearGradient id="w" xlink:href="#n" y1="507.798" y2="505.798" gradientUnits="userSpaceOnUse" x2="0" gradientTransform="translate(0 -12)"/>
        <linearGradient id="o">
            <stop stop-color="#3A393A"/>
            <stop offset="1" stop-color="#504945"/>
        </linearGradient>
        <linearGradient id="y" xlink:href="#o" y1="28" y2="12" gradientUnits="userSpaceOnUse" x2="0" gradientTransform="translate(382.571 501.798)"/>
        <linearGradient id="z" xlink:href="#o" y1="28" y2="12" gradientUnits="userSpaceOnUse" x2="0" gradientTransform="matrix(-1 0 0 1 434.571 501.798)"/>
        <linearGradient xlink:href="#o" id="A" y1="524.798" x1="425.571" y2="511.798" x2="390.571" gradientUnits="userSpaceOnUse"/>
    </defs>
    <g transform="translate(-376.571 -485.798)">
        <rect width="52" x="382.571" y="507.798" rx="0" height="28" fill="url(#p)"/>
        <path fill="#7B6F64" d="M382.571 535.798h52v2h-52z"/>
        <path fill="url(#r)" d="M388.571 533.798h40v7h-40z"/>
        <path fill="#F9F5D7" d="M390.571 533.798h36v10h-36z"/>
        <path fill="url(#s)" d="M390.571 495.798h36v16h-36z"/>
        <path fill="url(#t)" d="M392.571 491.798h32v16h-32z"/>
        <path fill="url(#u)" d="M392.571 533.798h32v8h-32z"/>
        <path d="M388.571 533.798l10 10h24v-3h2v-7z" fill="url(#v)" opacity=".2" fill-rule="evenodd"/>
        <path fill="url(#w)" d="M392.571 493.798h32v12h-32z"/>
        <path fill="url(#x)" d="M392.571 495.798h32v16h-32z"/>
        <path d="M382.571 509.798v22h2c1.108 0 2-.892 2-2v-18c0-1.108-1-2-2-2z" fill="url(#y)"/>
        <path d="M434.571 509.798v22h-2c-1.108 0-2-.892-2-2v-18c0-1.108 1-2 2-2z" fill="url(#z)"/>
        <circle cx="432.571" cy="529.798" r="1" fill="#7CB668"/>
        <path fill="#83A498" d="M386.571 527.798h44v1h-44z"/>
        <path d="M390.571 511.798v10c0 1.108.892 2 2 2h32c1.108 0 2-.892 2-2v-10h-36z" fill="url(#A)"/>
        <path d="M390.571 511.798l14 14h22v-14z" fill="url(#B)" opacity=".2" fill-rule="evenodd"/>
        <path d="M407.571 515.798a.25.25 0 1 0 0 .5.25.25 0 1 0 0-.5zm1.75 0l-.5.5.75.75-.25.25-.25.25-.25.25.5.5.25-.25.25-.25.25-.25.5-.5zm-2.375 1.5a.374.374 0 1 0 0 .75.374.374 0 1 0 0-.75zm1.125 1.5a.499.499 0 1 0 0 1 .499.499 0 1 0 0-1z" fill="#F9F5D7"/>
    </g>
</svg>
