<svg width="64" xmlns="http://www.w3.org/2000/svg" height="64" xmlns:xlink="http://www.w3.org/1999/xlink">
    <defs>
        <linearGradient id="e">
            <stop stop-color="#48B9C7"/>
            <stop offset="1" stop-color="#48B9C7" stop-opacity="0"/>
        </linearGradient>
        <linearGradient id="b">
            <stop/>
            <stop offset="1" stop-opacity="0"/>
        </linearGradient>
        <linearGradient xlink:href="#a" id="g" y1="543.798" y2="503.798" x2="0" gradientUnits="userSpaceOnUse" gradientTransform="matrix(1.43788 0 0 1.125 -178.898 -63.975)"/>
        <linearGradient id="a">
            <stop stop-color="#BDAD93"/>
            <stop offset="1" stop-color="#F9F5D7"/>
        </linearGradient>
        <linearGradient id="n" xlink:href="#b" y1="507.674" y2="535.798" x1="390.571" gradientUnits="userSpaceOnUse" x2="418.571" gradientTransform="matrix(1.2888 0 0 1.2938 -117.794 -153.988)"/>
        <linearGradient id="d">
            <stop stop-color="#066678"/>
            <stop offset="1" stop-color="#066678"/>
        </linearGradient>
        <linearGradient id="c">
            <stop stop-color="#3A393A"/>
            <stop offset="1" stop-color="#504945"/>
        </linearGradient>
        <linearGradient id="f">
            <stop stop-color="#1D2021"/>
            <stop offset="1" stop-color="#665C54"/>
        </linearGradient>
        <linearGradient id="k" xlink:href="#c" y1="507.798" y2="503.798" gradientUnits="userSpaceOnUse" x2="0" gradientTransform="matrix(1.3 0 0 1.25 -122.571 -131.952)"/>
        <linearGradient id="i" xlink:href="#a" y1="46" y2="37" x1="43" gradientUnits="userSpaceOnUse" x2="8" gradientTransform="matrix(1.28889 0 0 1.3 377.838 492.598)"/>
        <linearGradient id="j" xlink:href="#d" y1="509.798" y2="537.798" gradientUnits="userSpaceOnUse" x2="0" gradientTransform="matrix(1.3125 0 0 1.35714 -127.679 -187.071)"/>
        <linearGradient xlink:href="#c" id="o" x1="3" x2="-1" gradientUnits="userSpaceOnUse" gradientTransform="matrix(0 1.3125 -1.28571 0 426.571 544.798)"/>
        <linearGradient id="m" xlink:href="#e" y1="-521.798" y2="-518.798" gradientUnits="userSpaceOnUse" x2="0" gradientTransform="matrix(1.25 0 0 1.33334 -102.143 174.936)"/>
        <linearGradient id="l" xlink:href="#e" y1="-521.798" y2="-518.798" gradientUnits="userSpaceOnUse" x2="0" gradientTransform="matrix(1.25 0 0 1.33334 -102.143 1218.532)"/>
        <linearGradient id="p" xlink:href="#f" y1="505.798" y2="509.798" gradientUnits="userSpaceOnUse" x2="0" gradientTransform="matrix(1.3 0 0 1.3 -122.571 -157.14)"/>
        <linearGradient id="h" xlink:href="#a" y1="509.798" y2="537.798" gradientUnits="userSpaceOnUse" x2="0" gradientTransform="matrix(1.37812 0 0 1.41049 -154.438 -215.265)"/>
    </defs>
    <g transform="translate(-376.571 -491.798)">
        <rect width="46.012" x="385.571" y="502.798" rx="0" height="45" fill="url(#g)"/>
        <path fill="url(#h)" d="M386.571 503.798h44v40h-44z"/>
        <path d="M385.571 544.531v3.267c0 1.476.916 2 2.38 2h41.62c1 0 2-1 2-2v-3z" fill="url(#i)"/>
        <path fill="url(#j)" d="M387.571 504.798h42v38h-42z"/>
        <path d="M385.571 502.798v-3c0-1 1-2 2.045-2h41.955c1 0 2 1 2 2v3z" fill="url(#k)"/>
        <path fill="#48B9C7" d="M388.571 520.798h40v2h-40z"/>
        <path fill="url(#l)" opacity=".2" d="M388.571 522.798h40v4h-40z"/>
        <path transform="scale(1 -1)" fill="url(#m)" opacity=".2" d="M388.571-520.798h40v4h-40z"/>
        <path fill="#F9F5D7" d="M389.571 514.798h22v27h-22z"/>
        <path d="M385.571 502.836l41 41.962h5v-42z" fill="url(#n)" opacity=".2" fill-rule="evenodd"/>
        <path d="M426.571 544.798h-36v2c0 1 1 2 2 2h32c1 0 2-1 2-2z" fill="url(#o)"/>
        <circle cx="-546.798" cy="-423.571" r="1" transform="matrix(0 -1 -1 0 0 0)" fill="#7CB668"/>
        <path fill="url(#p)" d="M385.571 499.798h46v3h-46z"/>
    </g>
</svg>
