<svg xmlns="http://www.w3.org/2000/svg" height="16">
    <g transform="translate(-12.7 -105.304) scale(.26458)" filter="url(#filter7554)">
        <path style="marker:none" overflow="visible" d="M48 398h16v16H48z" color="#bebebe" opacity=".515" fill="none"/>
        <path d="M50 402c-.5 0-1 .5-1 1v4c0 .5.5 1 1 1h1v-2h10v2h1c.5 0 1-.5 1-1v-4c0-.5-.5-1-1-1zm2 1.006c.554 0 1 .446 1 1s-.446 1-1 1-1-.446-1-1 .446-1 1-1zM52 399v2h8v-2z" fill="#fbf1c7"/>
        <path d="M52 407v5h8v-5z" fill="#fbf1c7"/>
    </g>
</svg>
