<svg height="16">
    <g fill="#fbf1c7">
        <path d="M0 3.175a.28.28 0 0 1 .08-.186l.573-.56c.061-.065.208-.078.267-.042.022 0 .3.167.341.23.163.25-.09.483-.31.408L.858 2.97l-.424.416c-.168.14-.447.025-.433-.21zM3.074.031a.938.938 0 0 1 .31-.021l-.36.61a.258.258 0 0 0 .094.357l.231.134a.262.262 0 0 0 .36-.093l.359-.61A.922.922 0 0 1 4.2.685a.918.918 0 0 1-.66 1.12.938.938 0 0 1-.31.022l-.213.295-.902-.006s.402-.682.43-.687a.922.922 0 0 1-.132-.279.918.918 0 0 1 .66-1.12zM.952.19A.954.954 0 0 0 .78.248C.774.413.802.63.738.686S.463.696.3.678a.96.96 0 0 0-.083.198c.127.105.302.222.306.306.004.085-.166.213-.28.331.026.068.065.13.106.19.161-.033.361-.099.43-.05.07.05.07.267.09.43.067.02.136.028.207.034.074-.147.15-.35.231-.372.084-.024.255.12.396.206a.953.953 0 0 0 .157-.14c-.067-.152-.19-.342-.157-.422.034-.08.258-.124.413-.182.001-.02.009-.038.009-.058 0-.05-.01-.1-.017-.149-.16-.042-.388-.063-.43-.14-.04-.076.065-.28.116-.438a.974.974 0 0 0-.173-.124c-.132.099-.287.263-.372.248C1.166.53 1.074.329.985.19.975.192.963.188.952.19zm.165.496a.446.446 0 1 1 0 .893.446.446 0 0 1 0-.893z"/>
        <path d="M.793 2.381h2.642l.002 1.604c0 .13-.125.248-.263.248H1.059a.264.264 0 0 1-.264-.264z"/>
        <path d="M4.223 3.169a.28.28 0 0 0-.08-.186l-.572-.56c-.062-.065-.208-.078-.268-.042-.021 0-.3.167-.34.23-.164.25.09.483.31.408l.092-.056.424.416c.169.14.448.025.434-.21z"/>
    </g>
    <path d="M0 0h4.233v4.233H0z" fill="none"/>
</svg>
