<svg height="16">
    <path d="M4.233 4.233H0V0h4.233z" fill="none"/>
    <g fill="#fbf1c7">
        <path d="M1.058.263a.798.798 0 0 0-.793.795v2.116c0 .435.358.794.793.794h2.117c.436 0 .793-.36.793-.794V1.058a.798.798 0 0 0-.793-.795zm0 .53h2.117c.152 0 .264.114.264.265v2.116a.259.259 0 0 1-.264.265H1.058a.259.259 0 0 1-.263-.265V1.058c0-.15.112-.265.263-.265z"/>
        <path d="M1.587 1.058v1.211l1.192.688.264-.46-.926-.534v-.905zM1.323-.001H2.91v.265H1.323zm0 3.969H2.91v.265H1.323z"/>
    </g>
</svg>
