<svg height="16">
    <path d="M0 0h4.233v4.233H0z" fill="none"/>
    <g fill="#fbf1c7">
        <path d="M1.058.53a.797.797 0 0 0-.793.793v1.588c0 .436.357.793.793.793h2.117a.797.797 0 0 0 .793-.793V1.323a.797.797 0 0 0-.793-.792zm0 .53h2.117c.151 0 .265.112.265.263v1.588a.259.259 0 0 1-.265.264H1.058a.257.257 0 0 1-.264-.264V1.323c0-.15.112-.263.264-.263z"/>
        <path d="M1.058 1.324v1.058l.397-.397.397.397.661-.661.662.661V1.324z" opacity=".5"/>
        <path d="M2.117 1.853l1.058 1.058H1.058z"/>
    </g>
</svg>
