<svg height="16">
    <filter id="a" color-interpolation-filters="sRGB">
        <feBlend in2="BackgroundImage" mode="darken"/>
    </filter>
    <g filter="url(#a)" transform="translate(-144.072 104.726) scale(.26458)">
        <path d="M545-395.003h16v16h-16z" fill="none"/>
        <path d="M552.526-392.815c-2.071 0-3.835 1.268-4.594 3.063a3.981 3.981 0 0 0-3.406 3.937 4 4 0 0 0 4 4h1a352.04 352.04 0 0 1 6.166 0h1.334a3.5 3.5 0 0 0 3.5-3.5 3.49 3.49 0 0 0-3.094-3.469 5.011 5.011 0 0 0-4.906-4.031z" fill="#fbf1c7"/>
    </g>
</svg>
