<svg height="16">
    <path d="M0 0h4.233v4.233H0z" fill="none"/>
    <g fill="#fbf1c7">
        <path d="M.53 1.058a.528.528 0 0 0-.53.53v2.116c0 .293.236.53.53.53h1.322v-.265h.265v-.265h-.265V3.44h.265v-.265h-.265V2.91h.265L.529 2.117v-.53l1.588.794 1.587-.794v.53l-1.587.793v.265h.264v.265h-.264v.264h.264v.265h-.264v.264h1.587c.293 0 .53-.236.53-.529V1.587a.528.528 0 0 0-.53-.529zm.528 1.587l.331.169-.86.89v-.53zm2.117 0l.53.529v.53l-.86-.89z"/>
        <path d="M.53.53a.528.528 0 0 0-.53.528v.265c0-.293.236-.53.53-.53h3.174a.53.53 0 0 1 .53.53v-.265a.528.528 0 0 0-.53-.529z" opacity=".5"/>
        <path d="M.53 0A.528.528 0 0 0 0 .53v.264C0 .5.236.264.53.264h3.174a.53.53 0 0 1 .53.53V.529A.528.528 0 0 0 3.703 0z" opacity=".5"/>
    </g>
</svg>
