<svg height="16">
    <path d="M0 0h4.233v4.233H0z" fill="none"/>
    <g fill="#fbf1c7">
        <path d="M1.72.264a.4.4 0 0 0-.398.397v.529c0 .217.18.398.398.398h.793a.4.4 0 0 0 .397-.398V.66a.398.398 0 0 0-.397-.396zm0 .266h.793c.076 0 .133.055.133.13v.53a.13.13 0 0 1-.133.133H1.72a.13.13 0 0 1-.132-.133V.66c0-.075.057-.13.132-.13zM.662 2.645a.4.4 0 0 0-.397.398v.53a.4.4 0 0 0 .397.396h.793a.398.398 0 0 0 .396-.396v-.53a.4.4 0 0 0-.396-.398zm0 .266h.793a.13.13 0 0 1 .133.132v.53c0 .075-.058.13-.133.13H.662a.128.128 0 0 1-.133-.13v-.53a.13.13 0 0 1 .133-.132zm2.117-.266a.402.402 0 0 0-.398.398v.53a.4.4 0 0 0 .398.396h.793a.398.398 0 0 0 .396-.396v-.53a.4.4 0 0 0-.396-.398zm0 .266h.793a.13.13 0 0 1 .133.132v.53c0 .075-.057.13-.133.13h-.793a.128.128 0 0 1-.133-.13v-.53a.13.13 0 0 1 .133-.132zM.265 1.852v.53h3.703v-.53z"/>
        <path d="M1.851 1.455v.663h.53v-.663zm-1.056.663v.66h.527v-.66zm2.115 0v.66h.53v-.66z"/>
    </g>
</svg>
