<svg xmlns="http://www.w3.org/2000/svg" width="16" height="16" version="1.1" id="svg7"><defs id="defs3"><style id="current-color-scheme" type="text/css"/></defs><path d="M8 .5c-.677.01-1.159.405-1.385 1.062l.007-.03-1.062 3.67H1.952a1.472 1.472 0 0 0-1.087.529 1.452 1.452 0 0 0 .284 2.182l2.818 2.005-1.093 3.737-.004.011a1.377 1.377 0 0 0 .41 1.462l.011.008a1.482 1.482 0 0 0 1.785.13l.033-.02L8 13.213l2.891 2.033.033.02c.57.362 1.28.307 1.785-.13.003-.003.008-.005.01-.008.421-.376.578-.927.411-1.462l-.004-.01-1.093-3.738 2.818-2.005c.746-.49.872-1.525.284-2.182a1.472 1.472 0 0 0-1.11-.529H10.44l-1.062-3.67.007.03C9.16.905 8.677.509 8 .5z" id="path5" color="#444" opacity="1" fill="#ffce51" stroke="#d1a023" stroke-width="1" stroke-miterlimit="4" stroke-dasharray="none" stroke-opacity="1" fill-opacity="1"/></svg>