<?xml version="1.0" encoding="UTF-8" standalone="no"?>
<svg
   xmlns:dc="http://purl.org/dc/elements/1.1/"
   xmlns:cc="http://creativecommons.org/ns#"
   xmlns:rdf="http://www.w3.org/1999/02/22-rdf-syntax-ns#"
   xmlns:svg="http://www.w3.org/2000/svg"
   xmlns="http://www.w3.org/2000/svg"
   xmlns:sodipodi="http://sodipodi.sourceforge.net/DTD/sodipodi-0.dtd"
   xmlns:inkscape="http://www.inkscape.org/namespaces/inkscape"
   height="16"
   id="svg744"
   version="1.0"
   width="16"
   sodipodi:docname="trash23.svg"
   inkscape:version="0.92.4 5da689c313, 2019-01-14">
  <sodipodi:namedview
     pagecolor="#ffffff"
     bordercolor="#666666"
     borderopacity="1"
     objecttolerance="10"
     gridtolerance="10"
     guidetolerance="10"
     inkscape:pageopacity="0"
     inkscape:pageshadow="2"
     inkscape:window-width="1366"
     inkscape:window-height="712"
     id="namedview8"
     showgrid="true"
     inkscape:zoom="16"
     inkscape:cx="3.2960171"
     inkscape:cy="10.612699"
     inkscape:window-x="0"
     inkscape:window-y="26"
     inkscape:window-maximized="1"
     inkscape:current-layer="svg744">
    <inkscape:grid
       type="xygrid"
       id="grid4544" />
  </sodipodi:namedview>
  <metadata
     id="metadata750">
    <rdf:RDF>
      <cc:Work
         rdf:about="">
        <dc:format>image/svg+xml</dc:format>
        <dc:type
           rdf:resource="http://purl.org/dc/dcmitype/StillImage" />
      </cc:Work>
    </rdf:RDF>
  </metadata>
  <defs
     id="defs748" />
  <path
     sodipodi:nodetypes="sssccss"
     inkscape:connector-curvature="0"
     id="path4848"
     d="m 3.5041606,0 h 9.0000004 c 0.831,0 1.566268,0.67165 1.5,1.5 l -1,12.5 c -2.5,2 -7.5000004,2 -10.0000004,0 l -1,-12.5 c -0.06627,-0.82835 0.669,-1.5 1.5,-1.5 z"
     style="display:inline;vector-effect:none;fill:#898989;fill-opacity:1;stroke-linecap:square;stroke-opacity:0.5;enable-background:new" />
  <path
     id="path4850"
     d="m 3.5041606,0 c -0.831,0 -1.56627,0.67165 -1.5,1.5 l 1,12.5 c 2.5,2 7.5000004,2 10.0000004,0 l 1,-12.5 c 0.06627,-0.82835 -0.669,-1.5 -1.5,-1.5 z m 0,1 h 9.0000004 c 0.277,0 0.524,0.22404 0.5,0.5 l -1,11.5 c -2.5000004,2 -5.5000004,2 -8.0000004,0 l -1,-11.5 c -0.024,-0.27596 0.223,-0.5 0.5,-0.5 z"
     style="display:inline;vector-effect:none;fill:#000000;fill-opacity:0.5;stroke-linecap:square;stroke-opacity:0.5;enable-background:new"
     inkscape:connector-curvature="0" />
  <path
     style="display:inline;fill:#ededed;fill-opacity:1;stroke:none;stroke-width:0.86602652;stroke-linecap:butt;stroke-linejoin:miter;stroke-miterlimit:4;stroke-dasharray:none;stroke-opacity:1;enable-background:new"
     d="M 6.6359596,10.221905 4.8892876,10.8066 4.1732226,7.725253 5.3555566,7.510618 5.2038296,4.059212 7.8016326,1.98195 10.049735,2.376674 9.5834656,5.672656 l 1.9613074,1.517233 -0.519928,2.7705 -1.6301054,-0.239301 -1.084266,3.140559 -1.630104,-0.2393 z"
     id="path1770"
     inkscape:connector-curvature="0" />
  <path
     style="display:inline;opacity:1;fill:none;fill-opacity:1;stroke:#898989;stroke-width:0.86602652;stroke-linecap:butt;stroke-linejoin:miter;stroke-miterlimit:4;stroke-dasharray:none;stroke-opacity:1;enable-background:new"
     d="M 6.6359596,10.221905 6.5915496,7.821464"
     id="path1772"
     inkscape:connector-curvature="0" />
  <path
     style="display:inline;opacity:1;fill:none;fill-opacity:1;stroke:#898989;stroke-width:0.86602652;stroke-linecap:butt;stroke-linejoin:miter;stroke-miterlimit:4;stroke-dasharray:none;stroke-opacity:1;enable-background:new"
     d="m 5.3555566,7.510618 2.167613,-0.393499 1.827161,0.203528"
     id="path1774"
     inkscape:connector-curvature="0" />
  <path
     style="display:inline;opacity:1;fill:none;fill-opacity:1;stroke:#898989;stroke-width:0.86602652;stroke-linecap:butt;stroke-linejoin:miter;stroke-miterlimit:4;stroke-dasharray:none;stroke-opacity:1;enable-background:new"
     d="M 9.5834656,5.672656 7.0041606,4"
     id="path1776"
     inkscape:connector-curvature="0" />
  <path
     style="display:inline;opacity:1;fill:none;fill-opacity:1;stroke:#898989;stroke-width:0.86602652;stroke-linecap:butt;stroke-linejoin:miter;stroke-miterlimit:4;stroke-dasharray:none;stroke-opacity:1;enable-background:new"
     d="M 9.3947396,9.721088 7.7646356,9.481787"
     id="path1778"
     inkscape:connector-curvature="0" />
</svg>
