<svg height="48" width="48" xmlns="http://www.w3.org/2000/svg"><circle cx="23.940615" cy="31.534513" fill="#f57e7f" opacity=".99" r="13.232998" transform="matrix(1.75830584759 0 0 1.75830608345 -18.15909274367 -30.97874795549)"/><g transform="translate(.227888 -1.278586)"><path d="m23.345703 12.191406c-3.413733.0914-6.506679 1.451593-8.84375 3.617188l5.160156 8.9375 5.972657-10.341797 1.080078-1.869141c-.787746-.178495-1.597931-.300536-2.433594-.335937-.311666-.01336-.623701-.01598-.935547-.0078zm4.365235.613282-1.210938 2.099609-3.949219 6.839844h14.09961c-1.313126-4.243507-4.654383-7.616082-8.939453-8.939453zm-13.939454 3.736328c-2.113144 2.279785-3.462511 5.279368-3.609375 8.607422-.0549 1.241133.07381 2.445705.335938 3.601562h10.320312zm12.826172 6.203125 7.052735 12.214843c2.097032-2.2615 3.442934-5.243188 3.601562-8.564453l.0039-.09766c.04972-1.224462-.07917-2.412078-.33789-3.552734zm1.15625 4.005859-7.048828 12.208984c.770667.174405 1.562065.296321 2.378906.333985 3.777603.173948 7.262119-1.217882 9.833985-3.59961zm-16.988281 3c1.312348 4.241986 4.65249 7.613333 8.939453 8.9375l5.160156-8.9375z" fill="#fff" fill-opacity=".48951"/><path d="m23.345703 12.191406a13.559683 13.559683 0 0 0 -13.183594 12.957032 13.559683 13.559683 0 0 0 12.921875 14.144531 13.559683 13.559683 0 0 0 14.167969-12.898438l.0039-.09766a13.559683 13.559683 0 0 0 -12.974603-14.097652 13.559683 13.559683 0 0 0 -.935547-.0078zm.07031 2.642578a10.916825 10.916825 0 0 1 .753906.0059 10.916825 10.916825 0 0 1 10.445312 11.349609l-.0039.08008a10.916825 10.916825 0 0 1 -11.406253 10.382771 10.916825 10.916825 0 0 1 -10.404297-11.386719 10.916825 10.916825 0 0 1 10.615235-10.431641z" fill="#fcf5f5"/></g></svg>