<svg xmlns="http://www.w3.org/2000/svg" width="32" height="32" viewBox="0 0 32 32">
  <rect width="32" height="32" fill="#171717"/>
  <rect width="32" height="1" fill="#d5c4a1" fill-opacity=".1"/>
  <g fill="#d5c4a1">
    <circle cx="16" cy="16" r="12" opacity="0"/>
    <path d="m16 10a6 6 0 0 0 -6 6 6 6 0 0 0 6 6 6 6 0 0 0 6 -6 6 6 0 0 0 -6 -6zm0 2a4 4 0 0 1 4 4 4 4 0 0 1 -4 4 4 4 0 0 1 -4 -4 4 4 0 0 1 4 -4zm0 2a2 2 0 0 0 -2 2 2 2 0 0 0 2 2 2 2 0 0 0 2 -2 2 2 0 0 0 -2 -2z" opacity=".6"/>
  </g>
</svg>
