<svg xmlns="http://www.w3.org/2000/svg" width="64" height="64">
    <circle cx="32" cy="33" r="28" opacity=".2"/>
    <circle cx="32" cy="32" r="28" fill="#FD8019"/>
    <circle cx="32" cy="33" r="20" opacity=".2"/>
    <circle cx="32" cy="32" r="20" fill="#F9F5D7"/>
    <path d="M32 4A28 28 0 0 0 4 32a28 28 0 0 0 .018.492A28 28 0 0 1 32 5a28 28 0 0 1 27.975 27.492A28 28 0 0 0 60 32 28 28 0 0 0 32 4z" opacity=".2" fill="#F9F5D7"/>
    <path d="M27.443 16.443L23.2 20.686 34.514 32 23.199 43.314l4.244 4.243 11.313-11.315L42.998 32l-4.242-4.242-11.313-11.315z" fill="#3A393A"/>
</svg>
