<svg xmlns="http://www.w3.org/2000/svg" width="64" height="64" version="1">
    <path d="M10 37v20.2c0 1.551 1.226 2.8 2.75 2.8h38.5c1.523 0 2.75-1.249 2.75-2.8V37z" opacity=".2"/>
    <rect width="24" height="56" x="-45" y="-60" rx="2.824" ry="2.8" transform="matrix(0 -1 -1 0 0 0)" opacity=".2"/>
    <path d="M12.75 4C11.226 4 10 5.274 10 6.857V24h44V6.857C54 5.274 52.773 4 51.25 4h-38.5z" fill="#F9F5D7"/>
    <rect width="24" height="56" x="-44" y="-60" rx="2.824" ry="2.8" transform="matrix(0 -1 -1 0 0 0)" fill="#504945"/>
    <path opacity=".2" d="M7 33h50v6H7z"/>
    <rect width="5" height="5" x="7" y="24" rx="1.875" ry="1.875" opacity=".2"/>
    <rect width="5" height="5" x="7" y="23" rx="1.875" ry="1.875" fill="#B7BB25"/>
    <path d="M10 36v20.2c0 1.551 1.226 2.8 2.75 2.8h38.5c1.523 0 2.75-1.249 2.75-2.8V36z" fill="#F9F5D7"/>
    <path opacity=".5" d="M15 52h29v3H15zM15 46h24v3H15zM15 40h34v3H15z"/>
    <path d="M12.75 4C11.226 4 10 5.275 10 6.857v1C10 6.275 11.226 5 12.75 5h38.5C52.773 5 54 6.275 54 7.857v-1C54 5.275 52.773 4 51.25 4h-38.5z" fill="#F9F5D7" opacity=".2"/>
    <path d="M6.8 20C5.25 20 4 21.26 4 22.824v1A2.807 2.807 0 0 1 6.8 21h50.4c1.55 0 2.8 1.26 2.8 2.824v-1A2.807 2.807 0 0 0 57.2 20H6.8z" fill="#F9F5D7" opacity=".1"/>
    <path d="M8.875 23A1.87 1.87 0 0 0 7 24.875v1A1.87 1.87 0 0 1 8.875 24h1.25A1.87 1.87 0 0 1 12 25.875v-1A1.87 1.87 0 0 0 10.125 23h-1.25z" fill="#F9F5D7" opacity=".2"/>
    <path d="M61.958 44.848A16 16 0 0 1 46 60a16 16 0 0 1-15.958-14.848A16 16 0 0 0 30 46a16 16 0 0 0 16 16 16 16 0 0 0 16-16 16 16 0 0 0-.043-1.152z" opacity=".2" fill-rule="evenodd"/>
    <circle cx="46" cy="45" r="16" fill="#CB241D"/>
    <path d="M46 39v.002c-1.939.018-3.89.443-5.578 1.361-.673.421-1.481.964-2.09 1.512-.958.9-1.778 1.95-2.332 3.127 1.519 3.216 4.856 5.574 8.53 5.922 2.408.262 4.93-.139 7.048-1.283.673-.421 1.481-.964 2.09-1.512.958-.902 1.778-1.952 2.332-3.127-1.518-3.216-4.857-5.572-8.53-5.92-.487-.056-.98-.082-1.47-.082zm.004 2c2.14-.047 4.034 1.868 3.994 3.996.069 2.353-2.275 4.383-4.592 3.943-2.34-.274-3.984-2.9-3.215-5.125.493-1.636 2.1-2.831 3.815-2.812L46.004 41zM46 43a2 1.999 0 0 0-2 2.002A2 1.999 0 0 0 46 47a2 1.999 0 0 0 2-1.998 2 1.999 0 0 0-2-1.992V43z" fill="#F9F5D7" fill-rule="evenodd"/>
</svg>
