<svg xmlns="http://www.w3.org/2000/svg" width="64" height="64" version="1">
    <path d="M4 52v2c0 1.662 1.338 3 3 3h50c1.662 0 3-1.338 3-3v-2c0 1.662-1.338 3-3 3H7c-1.662 0-3-1.338-3-3z" opacity=".2"/>
    <rect width="56" height="48" x="4" y="8" rx="3" ry="3" fill="#7CB668"/>
    <path d="M7 8c-1.662 0-3 1.338-3 3v1c0-1.662 1.338-3 3-3h50c1.662 0 3 1.338 3 3v-1c0-1.662-1.338-3-3-3H7z" opacity=".2" fill="#F9F5D7"/>
    <path d="M12 15v2h-1c-1.662 0-3 1.338-3 3s1.338 3 3 3h1v2H8.184A2.984 2.984 0 0 0 11 27h1v2h2v-2h1c1.662 0 3-1.338 3-3s-1.338-3-3-3h-1v-2h3.816A2.984 2.984 0 0 0 15 17h-1v-2h-2zm-1 4h1v2h-1c-.554 0-1-.446-1-1s.446-1 1-1zm3 4h1c.554 0 1 .446 1 1s-.447 1.026-1 1h-1zm8 4v2h12v-2z" opacity=".2"/>
    <path d="M12 14v2h-1c-1.662 0-3 1.338-3 3s1.338 3 3 3h1v2H8.184A2.984 2.984 0 0 0 11 26h1v2h2v-2h1c1.662 0 3-1.338 3-3s-1.338-3-3-3h-1v-2h3.816A2.984 2.984 0 0 0 15 16h-1v-2h-2zm-1 4h1v2h-1c-.554 0-1-.446-1-1s.446-1 1-1zm3 4h1c.554 0 1 .446 1 1s-.447 1.026-1 1h-1zm8 4v2h12v-2z" fill="#F9F5D7"/>
    <path d="M63.958 45.848A16 16 0 0 1 48 61a16 16 0 0 1-15.958-14.848A16 16 0 0 0 32 47a16 16 0 0 0 16 16 16 16 0 0 0 16-16 16 16 0 0 0-.042-1.152z" opacity=".2"/>
    <circle cx="48" cy="46" r="16" fill="#8F3F71"/>
    <path d="M46 38l-.176 2.107a6.286 6.286 0 0 0-1.837 1.063l-1.916-.902-2 3.464 1.74 1.208a6.286 6.286 0 0 0-.097 1.06 6.286 6.286 0 0 0 .092 1.065l-1.735 1.203 2 3.464 1.91-.9a6.286 6.286 0 0 0 1.842 1.056L46 54h4l.176-2.107a6.286 6.286 0 0 0 1.837-1.063l1.915.902 2-3.464-1.738-1.208a6.286 6.286 0 0 0 .096-1.06 6.286 6.286 0 0 0-.092-1.065l1.735-1.203-2-3.464-1.911.9a6.286 6.286 0 0 0-1.842-1.057L50 38h-4zm2 5.714A2.286 2.286 0 0 1 50.286 46 2.286 2.286 0 0 1 48 48.286 2.286 2.286 0 0 1 45.714 46 2.286 2.286 0 0 1 48 43.714z" fill="#F9F5D7"/>
</svg>
