<svg xmlns="http://www.w3.org/2000/svg" width="64" height="64" version="1">
    <path d="M31.784 5l-.002.006C16.372 5.123 4 17.56 4 33c0 15.512 12.488 28 28 28 14.952 0 27.091-11.605 27.948-26.335l.052-.05V10.6C60 7.498 57.502 5 54.4 5H31.784z" opacity=".2"/>
    <path d="M31.784 4l-.002.006C16.372 4.123 4 16.56 4 32c0 15.512 12.488 28 28 28 14.952 0 27.091-11.605 27.948-26.335l.052-.05V9.6C60 6.498 57.502 4 54.4 4H31.784z" fill="#928274"/>
    <circle cx="32" cy="33" r="22" opacity=".1"/>
    <circle cx="32" cy="32" r="22" fill="#665C54"/>
    <path d="M31.654 11.014a22 22 0 0 0-3.304.295l3.082-.16.222-.135zm-3.304.295a22 22 0 0 0-6.397 2.125l-.002.546.408 1.036.727-.164-.19-.717.155-.563 2.652-.209.795-.029 1.613-1.18.239-.845zm9.209.433c-1.1.166-2.461.317-3.123.055l-2.543 1.267-.245.979.631.574.467-.281.566.947-1.039-.049-.017 1.375-.291.05-.319.196s-.146-.067-.224.043c-.078.11-.34-.197-.34-.197l-.436.393-.085.328-.452-.078-.507.308.056.4.36-.157-.1.584.21.15c-.401.31-1.273.375-1.273.375a.823.924 0 0 0-.484.29c-.251.276-.33 1.095-.33 1.095l-.207.867.809.252.359-.219.562-.127.19.162.914-.619.432-1.154.664-.615.902-.118s.725-.656.666-.494c-.06.162.86.647.86.647l.775.699.572.332.342.535.217-.197.832-.38-.485-.331-.636-.072-.829-.807-.55-.498.27-.354.552.407.57.336.971-.036.277.573.35.217.894-.143.475-.783.02-.473-.47-.256.706-.426.902.348 1.19-.045.209.61.883.298-.112.418-1.443.137-1.252-.012-1.662 1.16.447.811 1.465.115 1.426-.164 1.236.055.293.834.037.96-.75-.071-1.92-.688-.252.22-1.488-.284-.469.285.158.73-.338.145-.246-.4-2.65-.426.168-.801.477-.543-.598-.336-.322.193-1.102-.129-.639.664-1.416-.31-.59.416-.75.336-.875.125-.843.637-.574 1.302-.813.707-.273.569-.432.478-.086.572-.824.44-.46 1.437.173.594.215.955-.37 1.518.116.527.357.738.8.748.884.696 1.847 1.332.512.039.725-.371 1.267.238 1.608-.816.44.261.312-.254.978.428.483-.422.8 1.211-.101.893-.25.77.824 1.199 1.168 2.033a4.203 4.722 0 0 1 .137.935c-.06.16-.489 1.032-.489 1.032l.57 3.695 1.048 1.402.482 1.498-.172 1.18.35.838.101.615.67-.152.457-.684.893-.545 1.547-.318.705-1.17.861-1.629.695-.549-.502-1.328.135-.695.787-.635.346-.947.508-.309.94-2.947a5.275 5.926 0 0 0-.243-.902 11.066 12.43 0 0 1-.334-1.217l.133-1.594.678-.47.58-.844.873-2.073.05-1.547.016-.619-.615.096-.094.451-.974-.207.062.238-.58-.968s.11-.418-.357-.463c-.468-.046-1.059-.717-1.059-.717l-.596-.59-.648-1.12-.133-.505-.434-.79-.74-1.651.623-.192.647 1.795.693.594.62 1.291.511.832.88.916 1.358.658.211-.531.572-.35.754-3.449-.226-.756-.666-.361-.977-.488-.17.101-.232.537-.442-.677-.568-.399s-.197.333-.414-.215a7.301 8.202 0 0 1-.309-.921l.293-.528.776.762.55.623.743.164.845.229 1.264.404.82.902.711.97.559-.09.66 1.468A22 22 0 0 0 37.56 11.742zm-7.92 2.776l-.448.1.54.927-.217 1.039.056.62 1.518-1.024-.53-.588-.433-.389-.486-.685zm-10.076.365a22 22 0 0 0-7.987 9.994l.223-.197 1.18-.438.101-.437-.049-.424.053-.408.139-.541.285-.248.26-.157.127-.252a4.71 5.291 0 0 1 .632-.87l2.037-1.481.19-.94s.99-.606 1.094-.392c.103.214.402.075.44.535.037.46.378-1.205.378-1.205l-.008-1.555.9-.644.005-.34zm-9.377 18.424l-.133.177a22 22 0 0 0 7.58 15.16l.043-.302.724-.166.088-.512-.004-4.55.834-.776.143-.711-.299-.45-1.133-.872-1.097-.065-.645-1.34-1.512.006-.793-1.781-.01-.725-.497-.328-.91-.002-.54-.672-.533-1.43-1.306-.661zm39.503 7.279l-.535 1.406-1.011.717-.34.834.076.68-.318 1.002.013-.01c.071.148-.4.446-.459.482.03.02.075.051.197.157l-.144.714.3.623 1.177-.898.556-2.58.299-1.367.416-.352.254-.957-.48-.451zm-2.574 5.111c-.033-.02-.04-.027-.06-.07l.039.084.021-.014z" opacity=".1"/>
    <path d="M31.654 10.013a22 22 0 0 0-3.304.296l3.08-.161zm-3.304.296a22 22 0 0 0-6.397 2.124l-.002.548.408 1.034.728-.164-.191-.717.156-.561 2.65-.21.795-.03 1.614-1.178zm9.21.432c-1.1.166-2.462.319-3.124.057l-2.543 1.267-.245.978.631.574.468-.282.566.948-1.04-.048-.018 1.375-.29.048-.32.196s-.145-.067-.222.043c-.078.11-.341-.196-.341-.196l-.436.393-.085.327-.452-.078-.507.31.056.4.36-.16-.1.586.21.15c-.402.311-1.273.374-1.273.374a.823.924 0 0 0-.483.293c-.251.275-.33 1.093-.33 1.093l-.207.867.808.253.36-.22.561-.127.19.161.914-.617.432-1.155.664-.615.902-.118s.725-.656.666-.495c-.06.162.86.648.86.648l.775.698.572.333.342.534.217-.196.833-.378-.486-.333-.637-.073-.827-.806-.55-.499.268-.352.553.406.57.335.972-.035.276.572.35.218.894-.142.475-.784.019-.473-.467-.255.703-.427.902.349 1.19-.046.21.61.883.298-.113.419-1.442.137-1.251-.014-1.663 1.16.446.812 1.467.115 1.426-.164 1.235.054.293.835.037.962-.749-.073-1.92-.687-.253.22-1.487-.285-.47.285.158.73-.338.145-.245-.4-2.65-.427.166-.8.478-.543-.599-.335-.322.193-1.101-.129-.64.663-1.414-.311-.591.416-.75.336-.875.126-.843.637-.575 1.302-.811.706-.274.57-.432.478-.086.572-.825.44-.459 1.437.172.593.215.956-.368 1.518.115.526.357.739.8.749.884.696 1.848 1.332.51.037.725-.37 1.268.239 1.609-.817.437.26.315-.252.977.427.483-.421.8 1.21-.101.892-.25.771.824 1.198 1.169 2.033a4.203 4.722 0 0 1 .137.937 31.73 31.73 0 0 1-.49 1.031l.57 3.696 1.048 1.402.483 1.498-.172 1.179.35.838.101.615.669-.153.456-.682.895-.545 1.547-.32.703-1.168.862-1.63.696-.548-.502-1.33.134-.695.787-.634.346-.948.508-.309.94-2.946a5.275 5.926 0 0 0-.242-.902 11.066 12.43 0 0 1-.336-1.217l.135-1.595.676-.47.58-.843.873-2.073.051-1.547.016-.618-.615.094-.094.451-.974-.207.061.24-.58-.97s.11-.417-.357-.462c-.467-.045-1.058-.717-1.058-.717l-.596-.59-.647-1.12-.135-.506-.432-.79-.741-1.65.623-.191.647 1.794.693.593.62 1.292.51.832.881.916 1.36.658.209-.532.572-.349.754-3.448-.225-.757-.666-.36-.978-.489-.169.102-.234.537-.44-.68-.57-.397s-.196.333-.413-.215a7.301 8.202 0 0 1-.309-.92l.293-.53.776.763.55.623.742.164.846.228 1.265.406.819.902.711.97.559-.092.66 1.469A22 22 0 0 0 37.56 10.741zm-7.92 2.777l-.45.1.54.926-.217 1.04.057.62 1.517-1.024-.53-.588-.432-.39zm-10.077.365a22 22 0 0 0-7.987 9.993l.223-.196 1.18-.438.101-.437-.048-.425.051-.408.14-.54.284-.25.26-.155.127-.253a4.71 5.291 0 0 1 .634-.87l2.035-1.48.191-.94s.99-.606 1.093-.391c.103.214.403.074.44.534.038.46.38-1.206.38-1.206l-.009-1.555.9-.644zm-9.378 18.423l-.166.22a22 22 0 0 0 7.49 16.004l.166-1.187.725-.167.089-.513-.005-4.55.835-.775.142-.712-.298-.449-1.133-.872-1.099-.065-.644-1.34-1.512.006-.792-1.781-.011-.725-.497-.328-.91-.003-.54-.67-.532-1.43zm39.505 7.28l-.535 1.405-1.012.717-.341.835.078.68-.32 1.002.014-.011c.07.148-.4.447-.46.483.03.019.077.05.2.156l-.146.714.3.623 1.177-.897.556-2.58.298-1.367.416-.352.256-.956zm-2.576 5.111c-.033-.02-.038-.027-.059-.07l.038.084.021-.014z" fill="#7CB668"/>
    <circle cx="32" cy="33" r="10" opacity=".2"/>
    <circle cx="32" cy="32" r="10" fill="#F9F5D7"/>
    <path d="M31.785 4l-.004.004C16.371 4.12 4 16.56 4 32c0 .11.01.218.016.326C4.37 17.202 16.597 5.12 31.78 5.004L31.785 5h22.613A5.59 5.59 0 0 1 60 10.602v-1A5.59 5.59 0 0 0 54.398 4H31.785z" opacity=".2" fill="#F9F5D7"/>
    <path d="M31.654 10.014a22 22 0 0 0-3.304.295l3.082-.16.222-.135zm-3.304.295a22 22 0 0 0-6.397 2.125l-.002.546.149.377a22 22 0 0 1 .837-.369l.114-.416 1.002-.078a22 22 0 0 1 3.654-1.045l.404-.295.239-.845zm9.209.431v.002c-1.1.166-2.461.317-3.123.055l-2.543 1.267-.245.979.204.186.04-.165 2.544-1.267c.662.262 2.024.11 3.123-.055a22 22 0 0 1 14.921 13.32l.145-.023.66 1.469A22 22 0 0 0 37.56 10.74zm-7.92 2.778l-.448.1.54.925-.018.08.412.58.398.358.565-.381-.53-.588-.433-.389-.486-.685zm-6.608.127l-.064.234.119-.027-.055-.207zm-3.468.238a22 22 0 0 0-7.987 9.994l.223-.197.38-.14a22 22 0 0 1 .958-1.77l.086-.338.213-.186a22 22 0 0 1 5.226-5.676l-.004-.705.9-.644.005-.338zm13.183.453l-.467.281-.01-.01-.013 1.002-.291.05-.319.196s-.146-.067-.224.043c-.078.11-.34-.197-.34-.197l-.234.211.24.268-1.072.722-.094.555.187-.113.452.078.085-.328.436-.393s.262.308.34.197c.078-.11.224-.043.224-.043l.319-.197.29-.049.018-1.375 1.04.05-.567-.948zm-3.17.945l-.062.303.056.62.028-.018.132-.641-.154-.264zm-10.912.582l-.006.004.002.576.006-.021-.002-.559zM38.79 17.47l-.45.271.216.117.234-.388zm-9.158.385c-.38.113-.776.15-.776.15a.823.924 0 0 0-.484.29c-.251.276-.33 1.095-.33 1.095l-.207.867.217.068c.01-.103.087-.774.32-1.03a.823.924 0 0 1 .484-.29s.872-.064 1.274-.375l-.211-.15.1-.584-.36.158-.027-.2zm5.068.044l-.24.315.508.457.572.332.342.535.217-.197.832-.38-.485-.331-.072-.008-.55.02-.571-.336-.553-.407zm6.576.125l-.601.057-1.252-.014-.674.471-.434.715-.498.08.342.62 1.264-.884 1.252.012 1.443-.137.112-.418-.883-.298-.07-.204zm-6.52 1.647l-.321.193-1.102-.129-.639.664-1.416-.31-.513.363-.096.254-.914.62-.19-.163-.562.127-.36.219-.212-.067-.211.16-.574 1.303-.813.707-.273.569-.432.478-.086.572-.824.44-.46 1.437.153.526.307-.963.824-.44.086-.572.432-.478.273-.569.813-.707.574-1.302.843-.637.875-.125.75-.336.59-.416 1.416.31.639-.664 1.102.13.322-.194.086.049.035-.17.477-.543-.598-.336zm3.46 1.37l-.43.26.158.731-.338.145-.246-.4-2.35-.378-.132.15-.168.802 2.65.425.246.4.338-.144-.158-.73.469-.285 1.488.285.252-.22 1.92.687.75.072-.037-.961-.016-.045-.697-.066-1.842-.66-.127.015-.203.178-1.248-.238-.28-.024zm8.056 1.19l-.207.374a7.301 8.202 0 0 0 .309.921c.217.548.414.215.414.215l.568.399.442.677.232-.537.17-.101.977.488.666.361.1.334.126-.578-.224-.746-.573-.183-.845-.229-.498-.11-.131.301-.442-.68-.568-.396s-.197.333-.414-.215a7.301 8.202 0 0 1-.102-.295zm-2.677 1.868l-.395.12.74 1.651.434.791.133.504.648 1.121.596.59s.591.671 1.059.717c.467.045.357.463.357.463l.58.968-.062-.238.974.207.094-.451.588-.092.012-.385.015-.619-.539.084-.084.053-.086.41-.072-.015-.055.136-.543-.263-.304-.065.062.238-.246-.41-.326-.158-.881-.916-.211-.344c-.186-.161-.332-.32-.332-.32l-.596-.592-.648-1.119-.133-.504-.434-.79-.345-.772zm-18.567 5.039l-.252 1.037.116.527.254-1.045-.118-.52zm-14.841 3.17l-.166.218a22 22 0 0 0 .068.913l.098-.131 1.306.662.533 1.43.54.671.91.002.498.328.01.725.792 1.781 1.512-.006.645 1.34 1.097.065 1.133.873.125.19.031-.03.143-.713-.299-.447-1.133-.873-1.097-.065-.645-1.34-1.512.006-.793-1.781-.01-.725-.497-.328-.91-.002-.54-.672-.533-1.43-1.306-.661zm25.62 3.076l-.003.039-.25.77.22.32.03-.09.101-.893-.097-.146zM47.1 36.83l-.063.762a11.066 12.43 0 0 0 .334 1.217 5.275 5.926 0 0 1 .106.33l.136-.428a5.275 5.926 0 0 0-.242-.902 11.066 12.43 0 0 1-.271-.979zm2.59 2.756l-.536 1.404-1.011.719-.34.834.076.68-.318 1.002.013-.012c.071.148-.4.448-.459.484.03.02.075.051.197.157l-.144.712.033.069c.139-.092.433-.295.373-.42l-.013.01.318-1.002-.076-.68.34-.834 1.011-.717.535-1.406.268.252.213-.8-.48-.452zm-2.575 5.111c-.033-.02-.04-.027-.06-.07l.039.084.021-.014zm-9.539-4.115c-.143.308-.383.809-.383.809l.118.754c.12-.249.325-.664.37-.786a4.203 4.722 0 0 0-.105-.777zm7.451 4.002l-.129.66.211.559.291-.23-.373-.989zm2.276 1.262l.008.015.002-.007-.01-.008zm-8.11 2.83l-.072.49.108.26.064-.44-.1-.31z" fill="#F9F5D7" opacity=".2"/>
</svg>
