<svg xmlns="http://www.w3.org/2000/svg" width="64" height="64" version="1">
    <path d="M4.05 32c-.011.335-.05.663-.05 1 0 15.512 12.488 28 28 28 15.51 0 27.998-12.488 27.998-28 0-.337-.039-.664-.05-1-.528 15.042-12.776 27-27.95 27S4.578 47.042 4.05 32z" opacity=".2"/>
    <rect width="56" height="56" x="4" y="4" rx="27.999" ry="27.999" fill="#48B9C7"/>
    <path d="M32 4.002C16.488 4.002 4 16.488 4 32c0 .113.011.224.018.336C4.369 17.135 16.71 5 32 5s27.63 12.135 27.982 27.336c.007-.112.018-.223.018-.336A27.938 27.938 0 0 0 32 4.002z" opacity=".1" fill="#F9F5D7"/>
    <path d="M14 19v28h6v-8.398L28 47h6L24 33l10-14h-6L20 27.4V19zm22 6v10h15.999V25h-4v6h-2v-6h-4v6h-2v-6zm0 12v4h15.999v-4zm0 6v4h3.999v-4zm5.999 0v4h10v-4z" opacity=".2"/>
    <path d="M14 18.001v28h6v-8.398L28 46h6L24 32l10-13.999h-6L20 26.4v-8.398zm22 6v10h15.999v-10h-4v6h-2v-6h-4v6h-2v-6zm0 12v4h15.999v-4zm0 6v4h3.999v-4zm5.999 0v4h10v-4z" fill="#F9F5D7"/>
</svg>
