<svg xmlns="http://www.w3.org/2000/svg" width="64" height="64">
    <path d="M4 56v2c0 1.662 1.338 3 3 3h50c1.662 0 3-1.338 3-3v-2c0 1.662-1.338 3-3 3H7c-1.662 0-3-1.338-3-3z" opacity=".2"/>
    <rect width="56" height="56" x="4" y="4" rx="3" ry="3" fill="#F9F5D7"/>
    <path d="M7 4C5.338 4 4 5.338 4 7v1c0-1.662 1.338-3 3-3h50c1.662 0 3 1.338 3 3V7c0-1.662-1.338-3-3-3H7z" opacity=".1" fill="#F9F5D7"/>
    <path d="M6.8 60L32 34.8 57.2 60z" fill="#066678" fill-rule="evenodd"/>
    <path d="M60 57.2L34.8 32 60 6.8z" fill="#73C48F" fill-rule="evenodd"/>
    <path d="M34.476 29.4l-4.953 4.953L55.05 59.877H57c1.662 0 3-1.338 3-3v-1.949L34.476 29.4z" fill="#FECE4F" fill-rule="evenodd"/>
    <path d="M55.05 4L4 55v1.95c0 1.661 1.338 3 3 3h1.95L60 8.75V6.8c0-1.662-1.339-3-3-3h-1.95z" fill="#F9F5D7" fill-rule="evenodd"/>
    <path d="M48 1c-8.836 0-16 7.033-16 15.71 0 .542.045 1.043.1 1.571.044.526.114 1.056.2 1.571C34.132 30.895 41.6 38.715 48 45c6.4-6.284 13.868-14.105 15.7-25.148.086-.515.156-1.045.2-1.571.055-.528.1-1.029.1-1.571C64 8.034 56.836 1 48 1z" opacity=".2"/>
    <path d="M48 0c-8.836 0-16 7.033-16 15.71 0 .542.045 1.043.1 1.571.044.526.114 1.056.2 1.571C34.132 29.895 41.6 37.715 48 44c6.4-6.284 13.868-14.105 15.7-25.148.086-.515.156-1.045.2-1.571.055-.528.1-1.029.1-1.571C64 7.034 56.836 0 48 0z" fill="#FA4934"/>
    <path d="M48 9a6 6 0 1 1 0 12 6 6 0 0 1 0-12z" opacity=".2"/>
    <path d="M48 8a6 6 0 1 1 0 12 6 6 0 0 1 0-12z" fill="#F9F5D7"/>
</svg>
