<svg xmlns="http://www.w3.org/2000/svg" width="64" height="64" version="1">
    <rect width="56" height="56" x="4" y="5" rx="16.8" ry="16.8" opacity=".2"/>
    <rect width="56" height="56" x="4" y="4" rx="16.8" ry="16.8" fill="#504945"/>
    <path d="M32 13c-11.03 0-20 8.97-20 20s8.97 20 20 20 20-8.97 20-20-8.97-20-20-20zm0 3c9.403 0 17 7.597 17 17 0 9.403-7.597 17-17 17-9.403 0-17-7.597-17-17 0-9.403 7.597-17 17-17zm-9 9v7h3v-7zm15 0v7h3v-7zM25.371 36.633l-2.121 2.12 1.06 1.061a10.877 10.877 0 0 0 15.38 0l1.06-1.06-2.121-2.121-1.06 1.06a7.873 7.873 0 0 1-11.137 0z" opacity=".2" fill-rule="evenodd"/>
    <path d="M32 12c-11.03 0-20 8.97-20 20s8.97 20 20 20 20-8.97 20-20-8.97-20-20-20zm0 3c9.403 0 17 7.597 17 17 0 9.403-7.597 17-17 17-9.403 0-17-7.597-17-17 0-9.403 7.597-17 17-17z" fill="#F9F5D7" fill-rule="evenodd"/>
    <path d="M38.63 37.754A9.375 9.375 0 0 1 32 40.5a9.375 9.375 0 0 1-6.63-2.746" fill="none" stroke="#F9F5D7" stroke-width="3" stroke-linecap="square"/>
    <path fill="#F9F5D7" d="M23 24h3v7h-3zM38 24h3v7h-3z"/>
    <path d="M32 12c-11.03 0-20 8.97-20 20 0 .168.008.333.012.5C12.279 21.7 21.137 13 32 13s19.721 8.7 19.988 19.5c.004-.167.012-.332.012-.5 0-11.03-8.97-20-20-20zm-9 12v1h3v-1h-3zm15 0v1h3v-1h-3zm-22.975 8.5c-.004.168-.025.331-.025.5 0 9.403 7.597 17 17 17 9.403 0 17-7.597 17-17 0-.169-.02-.332-.025-.5C48.709 41.669 41.235 49 32 49c-9.234 0-16.709-7.331-16.975-16.5zm10.346 3.133l-2.121 2.12.5.5 1.621-1.62 1.06 1.06a7.873 7.873 0 0 0 11.137 0l1.06-1.06 1.622 1.62.5-.5-2.121-2.12-1.06 1.06a7.873 7.873 0 0 1-11.137 0l-1.06-1.06z" opacity=".2" fill="#F9F5D7" fill-rule="evenodd"/>
    <path d="M20.8 4C11.495 4 4 11.494 4 20.8v1C4 12.495 11.494 5 20.8 5h22.4C52.505 5 60 12.494 60 21.8v-1C60 11.495 52.506 4 43.2 4H20.8z" fill="#F9F5D7" opacity=".1"/>
</svg>
