<svg xmlns="http://www.w3.org/2000/svg" width="64" height="64">
    <path d="M48.534 14.26c-2.42 4.666-5.103 8.889-7.722 13.135L32 41l25.44-.005c1.765-.247 2.742-1.834 3.018-3.6 1.945-12.341-1.628-18.552-6.252-23.62-2.153-2.344-4.048-2.547-5.672.485zM31.051 6.001c-8.436-.08-17.013 4.577-21.28 10.082C6.266 20.605 3.584 25.166 3 30.65h.003c.146 3.116 1.765 5.193 5.428 5.35h25.736l1.586-11.488c.593-4.3 1.404-8.628 1.22-12.998-.147-3.497-3.287-5.438-5.922-5.512z" opacity=".2"/>
    <path d="M32.681 25.05c-5.272-.283-11.292.597-15.263 3.834-3.968 3.234-6.636 7.46-7.296 12.365-.86 8.233 2.902 13.12 9.343 16.716 14.292 5.448 28.353-.744 36.125-10.275 2.67-3.346 1.013-7.19-.58-9.415-4.804-6.707-10.965-12.615-22.33-13.225z" opacity=".2"/>
    <path d="M31.051 5.001c-8.436-.08-17.013 4.577-21.28 10.082C6.266 19.605 3.584 24.166 3 29.65h.003c.146 3.116 1.765 5.193 5.428 5.35h25.736l1.586-11.488c.593-4.3 1.404-8.628 1.22-12.998-.147-3.497-3.287-5.438-5.922-5.512zM48.534 13.26c-2.42 4.666-5.103 8.889-7.722 13.135L32 40l25.44-.005c1.765-.247 2.742-1.834 3.018-3.6 1.945-12.341-1.628-18.552-6.252-23.62-2.153-2.344-4.048-2.547-5.672.485z" fill="#066678"/>
    <path d="M51.172 11.002c-.946.035-1.825.742-2.637 2.258h-.002c-2.42 4.666-5.101 8.889-7.72 13.135L32 40h.648l8.164-12.605c2.62-4.246 5.301-8.47 7.721-13.135h.002c1.624-3.032 3.518-2.83 5.67-.487 3.67 4.024 6.67 8.78 6.781 16.739.137-8.568-2.959-13.549-6.78-17.739-1.077-1.171-2.088-1.806-3.034-1.771z" fill="#F9F5D7" opacity=".1"/>
    <path d="M32.681 24.05c-5.272-.283-11.292.597-15.263 3.834-3.968 3.234-6.636 7.46-7.296 12.365-.86 8.233 2.902 13.12 9.343 16.716 14.292 5.448 28.353-.744 36.125-10.275 2.67-3.346 1.013-7.19-.58-9.415-4.804-6.707-10.965-12.615-22.33-13.225z" fill="#48B9C7"/>
    <path d="M31.05 5.002c-8.436-.08-17.013 4.576-21.28 10.082C6.266 19.606 3.585 24.167 3 29.65h.004c.008.184.04.35.058.526.686-5.272 3.306-9.702 6.708-14.092 4.267-5.506 12.844-10.162 21.28-10.082 2.635.075 5.777 2.015 5.925 5.512.013.312.01.623.013.935.013-.644.014-1.29-.013-1.935-.148-3.497-3.29-5.437-5.924-5.512z" fill="#F9F5D7" opacity=".1"/>
    <path d="M30.674 24c-4.739.023-9.781 1.053-13.256 3.885-3.968 3.234-6.636 7.459-7.297 12.363a21.007 21.007 0 0 0-.107 2.953c.01-.631.037-1.277.107-1.953.661-4.904 3.329-9.129 7.297-12.363 3.971-3.237 9.991-4.12 15.264-3.836v.002c11.364.61 17.524 6.517 22.328 13.224.896 1.252 1.812 3.015 1.967 4.914.155-2.27-.916-4.445-1.967-5.914-4.804-6.707-10.964-12.614-22.328-13.224v-.002c-.66-.036-1.331-.052-2.008-.049z" fill="#F9F5D7" opacity=".2"/>
</svg>
