<svg xmlns="http://www.w3.org/2000/svg" width="64" height="64">
    <circle cx="31.5" cy="32.5" r="28.5" opacity=".2"/>
    <circle cx="31.5" cy="31.5" r="28.5" fill="#504945"/>
    <circle cx="31.5" cy="32.5" r="24.5" opacity=".2"/>
    <circle cx="31.5" cy="31.5" r="24.5" fill="#B7BB25"/>
    <circle cx="31.5" cy="31.5" r="21.5" fill="#504945"/>
    <path d="M32.934 37.781c4.015-3.159 4.167-3.159 8.067 0C46.956 42.603 48 41.815 48 32.5s-1.044-10.103-6.999-5.281c-3.9 3.159-4.052 3.159-8.067 0C30.683 25.449 27.032 24 24.82 24 20.78 24 14 29.327 14 32.5S20.781 41 24.82 41c2.212 0 5.863-1.449 8.114-3.219z" opacity=".2"/>
    <path d="M32.934 36.781c4.015-3.159 4.167-3.159 8.067 0C46.956 41.603 48 40.815 48 31.5s-1.044-10.103-6.999-5.281c-3.9 3.159-4.052 3.159-8.067 0C30.683 24.449 27.032 23 24.82 23 20.78 23 14 28.327 14 31.5S20.781 40 24.82 40c2.212 0 5.863-1.449 8.114-3.219z" fill="#B7BB25"/>
    <path d="M18.958 33.75c-2.644-2.94.502-6.75 5.576-6.75 1.954 0 4.972 1.012 6.707 2.25 3.123 2.227 3.123 2.273 0 4.5-1.735 1.238-4.753 2.25-6.707 2.25-1.954 0-4.464-1.012-5.576-2.25z" fill="#504945"/>
    <path d="M24 30.093c0-1.049-.675-1.406-1.5-.794-.825.612-1.5 1.47-1.5 1.907 0 .437.675.794 1.5.794s1.5-.858 1.5-1.907z" opacity=".2"/>
    <path d="M24 29.093c0-1.049-.675-1.406-1.5-.794-.825.612-1.5 1.47-1.5 1.907 0 .437.675.794 1.5.794s1.5-.858 1.5-1.907z" fill="#B7BB25"/>
    <path d="M42.057 33.743c-1.533-2.055-1.438-2.951.544-5.157C44.839 26.096 45 26.263 45 31.073c0 5.85-.341 6.16-2.943 2.67z" fill="#504945"/>
    <path d="M31.5 3A28.5 28.5 0 0 0 3 31.5a28.5 28.5 0 0 0 .021.582A28.5 28.5 0 0 1 31.5 4a28.5 28.5 0 0 1 28.479 27.918A28.5 28.5 0 0 0 60 31.5 28.5 28.5 0 0 0 31.5 3z" fill="#F9F5D7" fill-rule="evenodd" opacity=".1"/>
</svg>
