<svg xmlns="http://www.w3.org/2000/svg" width="64" height="64" version="1">
    <path d="M36.872 5L26.579 46.172c-2.094-.61-3.448-1.345-4.207-2.008-1.013-.884-1.325-1.554-1.387-3.14-.086-2.222 1.528-6.991 3.102-13.083.1-.39.66-1.538 1.054-3.195.198-.828.426-1.908-.005-3.379-.435-1.47-1.933-2.968-3.33-3.476a14.01 14.01 0 0 0-4.144-.836c-3.908-.186-7.029 1.291-8.63 1.843l2.61 7.563c2.127-.734 3.493-1.176 4.945-1.258-.105.328-.146.353-.246.738-1.436 5.556-3.548 10.222-3.348 15.391.127 3.287 1.528 6.599 4.117 8.86 2.004 1.748 4.518 2.913 7.528 3.742L22.872 61h8.242l1.52-6.078c4.492-.266 8.523-1.944 11.699-4.18 4.323-3.044 7.27-6.902 8.535-10.808 2.479-6.309 2.07-12.13 2.07-18.934h-8c0 7.134.255 11.668-1.531 16.125a4 4 0 0 0-.105.29c-.476 1.511-2.585 4.682-5.575 6.788-1.508 1.063-3.183 1.902-5.007 2.371L45.114 5z" opacity=".2"/>
    <path d="M10.338 21.68c2.687-.927 5.707-2.627 10.1-1.03 1.947.708.29 3.308-.223 5.292-1.505 5.823-3.368 10.54-3.225 14.236.189 4.873 3.424 7.97 11.172 9.482 10.757 2.1 19.238-6.584 20.956-12.046C51.288 32.198 50.938 27 50.938 20" fill="none" stroke-linejoin="round" stroke-width="8" stroke="#8F3F71"/>
    <path d="M36.872 4l-14 56h8.242l14-56z" fill="#8F3F71"/>
    <path d="M36.871 4L26.578 45.172c-2.093-.61-3.448-1.345-4.207-2.008-.933-.815-1.26-1.48-1.355-2.814-.018.236-.04.476-.032.673.062 1.587.374 2.257 1.387 3.141.76.663 2.114 1.397 4.207 2.008L36.871 5h7.992l.25-1h-8.242zM17.662 16.055c-3.908-.186-7.028 1.291-8.629 1.843l.307.887c1.665-.608 4.618-1.906 8.322-1.73 1.303.062 2.694.308 4.145.836 1.397.508 2.893 2.006 3.328 3.476.122.417.183.794.215 1.15a5.624 5.624 0 0 0-.215-2.15c-.435-1.47-1.931-2.968-3.328-3.476a14.008 14.008 0 0 0-4.145-.836zM46.938 20l.001 1h7.998c0 1.469.017 2.874.022 4.266.004-1.705-.022-3.449-.022-5.266h-8zm.01 5.072c-.017 4.407-.22 7.754-1.542 11.053a4 4 0 0 0-.105.29c-.476 1.511-2.584 4.682-5.574 6.788-1.433 1.009-3.02 1.807-4.737 2.287l-.271 1.084c1.824-.469 3.499-1.308 5.008-2.37 2.99-2.107 5.098-5.278 5.574-6.79a4 4 0 0 1 .105-.289c1.416-3.532 1.547-7.17 1.541-12.053zm-30.36.131c-.11.006-.22.029-.328.04-1.417 5.363-3.417 9.918-3.27 14.927.122-4.716 2.025-9.093 3.352-14.229.1-.385.14-.41.246-.738zm7.816 28.656L22.871 60h.25l1.516-6.066c-.081-.023-.153-.052-.233-.075z" fill="#F9F5D7" opacity=".1"/>
    <path d="M61.958 45.848A16 16 0 0 1 46 61a16 16 0 0 1-15.958-14.848A16 16 0 0 0 30 47a16 16 0 0 0 16 16 16 16 0 0 0 16-16 16 16 0 0 0-.043-1.152z" fill-rule="evenodd" opacity=".2"/>
    <circle cx="46" cy="46" r="16" fill="#BE4C1D"/>
    <path fill="#F9F5D7" d="M44 36h4v20h-4z"/>
    <path fill="#F9F5D7" d="M56 44v4H36v-4z"/>
</svg>
