<svg xmlns="http://www.w3.org/2000/svg" width="64" height="64" version="1">
    <path d="M33.793 11.009c-.469.008-.894.28-1.098.702l-2.436 4.932-4.505-1.543c-.861-.352-1.79.33-1.712 1.257l.644 5.686-3.09-1.001a1.245 1.245 0 0 0-1.576 1.436l.13 4.737-2.788-.24a1.245 1.245 0 0 0-1.284 1.718l1.98 4.867-1.772 2.27-2.46-4.23c-.598-.927-2.018-.677-2.262.4l-.955 4.058-1.932-2.576c-.67-.896-2.09-.522-2.232.588l-.933 6.529a1.245 1.245 0 0 0 1.235 1.405l1.281.266-.056 4.579c-.012 1.089 1.252 1.667 2.055.93l5.431-5.157 36.624-.618a1.245 1.245 0 0 0 1.148-1.697l-2.854-7.33 3.435-5.852a1.245 1.245 0 0 0-.822-1.757l-4.421-.943 1.373-5.94a1.245 1.245 0 0 0-1.397-1.45l-4.205.486-1.002-4.486a1.245 1.245 0 0 0-1.954-.926l-3.579 3.763-2.953-4.311a1.245 1.245 0 0 0-1.058-.552z" opacity=".2"/>
    <path d="M24.07 44.281l-.754 6.117s1.32.602 3.985.602 3.781-.441 3.781-.441l.883-6.278zm17.504 2.055l-.312 5.969s1.3.616 3.828.687c2.803.08 3.844-.648 3.844-.648l.75-6.008z" opacity=".2"/>
    <path d="M24.07 43.281l-.754 6.117s1.32.602 3.985.602 3.781-.441 3.781-.441l.883-6.278zm17.504 2.055l-.312 5.969s1.3.616 3.828.687c2.803.08 3.844-.648 3.844-.648l.75-6.008z" fill="#AF3A03"/>
    <path d="M33.793 10.009c-.469.008-.894.28-1.098.702l-2.436 4.932-4.505-1.543c-.861-.352-1.79.33-1.712 1.257l.644 5.686-3.09-1.001a1.245 1.245 0 0 0-1.576 1.436l.13 4.737-2.788-.24a1.245 1.245 0 0 0-1.284 1.718l1.98 4.867-1.772 2.27-2.46-4.23c-.598-.927-2.018-.677-2.262.4l-.955 4.058-1.932-2.576c-.67-.896-2.09-.522-2.232.588l-.933 6.529a1.245 1.245 0 0 0 1.235 1.405l1.281.266-.056 4.579c-.012 1.089 1.252 1.667 2.055.93l5.431-5.157 36.624-.618a1.245 1.245 0 0 0 1.148-1.697l-2.854-7.33 3.435-5.852a1.245 1.245 0 0 0-.822-1.757l-4.421-.943 1.373-5.94a1.245 1.245 0 0 0-1.397-1.45l-4.205.486-1.002-4.486a1.245 1.245 0 0 0-1.954-.926l-3.579 3.763-2.953-4.311a1.245 1.245 0 0 0-1.058-.552z" fill="#FD8019"/>
    <path d="M33.793 10.008c-.47.008-.893.28-1.098.703l-2.435 4.932-4.506-1.543a1.245 1.245 0 0 0-1.711 1.257l.06.528c.207-.664.947-1.073 1.65-.785l4.507 1.543 2.435-4.932a1.244 1.244 0 0 1 2.157-.15l2.953 4.31 3.578-3.762a1.245 1.245 0 0 1 1.955.926l1 4.486 4.205-.486a1.24 1.24 0 0 1 1.324.774l.074-.323a1.245 1.245 0 0 0-1.398-1.45l-4.205.485-1-4.486a1.245 1.245 0 0 0-1.955-.926l-3.578 3.762-2.953-4.31a1.248 1.248 0 0 0-1.059-.553zm-12.531 9.98a1.247 1.247 0 0 0-1.242 1.49l.013.493a1.24 1.24 0 0 1 1.563-.93l3.09 1.002-.118-1.037-2.972-.965a1.268 1.268 0 0 0-.334-.053zm27.527 3.483l-.22.953 4.42.943c.395.097.69.37.84.707a1.242 1.242 0 0 0-.84-1.707l-4.2-.896zm-31.428 2.504a1.245 1.245 0 0 0-1.283 1.718l.01.022a1.238 1.238 0 0 1 1.273-.74l2.79.24-.028-1.002-2.762-.238zm-4.449 4.06a1.24 1.24 0 0 0-1.348.965l-.955 4.059-1.933-2.577c-.67-.896-2.09-.522-2.23.588l-.934 6.53c-.026.2 0 .391.062.568l.871-6.098c.142-1.11 1.56-1.484 2.23-.588l1.934 2.577.955-4.059c.244-1.076 1.663-1.328 2.26-.4l2.463 4.23 1.772-2.271-.268-.657-1.504 1.928-2.463-4.228a1.217 1.217 0 0 0-.912-.567zm37.7 2.543l-.235.399 2.832 7.273a1.23 1.23 0 0 0 .021-.943l-2.619-6.729zm-42.596 9.69l-.043 3.58c0 .029.01.053.011.082l.043-3.66-.011-.002z" opacity=".2" fill="#F9F5D7"/>
    <path d="M2.015 40.398s7.79-.716 14.56-5.138c3.77-2.462 5.393-7.93 8.709-11.54.71-.773 1.48-1.584 2.302-2.303 1.99-1.649 4.91-2.377 7.72-2.417 2.426-.035 4.77.43 6.36 1.426 3.468 2.356 6.307 6.622 8.043 10.452 1.694 3.735 3.527 4.44 3.527 4.44l6.027 3.047c2.637 1.333 2.475 4.734 2.737 6.439l-2.808.262-.627 2.128c-.106-.03-7.82-.982-10.45 1.177-1.3.017-2.848-.111-5.652-.11l-.762 6.082s-1.043.73-3.846.651c-2.527-.071-3.825-.69-3.825-.69l.412-7.829-9.61-1.627-.984 7.812s-1.112.34-3.777.34-3.984-.5-3.984-.5l.908-8.232s-7.861-.764-8.32-.854c-7.318-1.442-6.66-3.016-6.66-3.016z" opacity=".2"/>
    <path d="M2.015 39.398s7.79-.716 14.56-5.138c3.77-2.462 5.393-7.93 8.709-11.54.71-.773 1.48-1.584 2.302-2.303 1.99-1.649 4.91-2.377 7.72-2.417 2.426-.035 4.77.43 6.36 1.426 3.468 2.356 6.307 6.622 8.043 10.452 1.694 3.735 3.527 4.44 3.527 4.44l6.027 3.047c2.637 1.333 2.475 4.734 2.737 6.439l-2.808.262-.627 2.128c-.106-.03-7.82-.982-10.45 1.177-1.3.017-2.848-.111-5.652-.11l-.762 6.082s-1.043.73-3.846.651c-2.527-.071-3.825-.69-3.825-.69l.412-7.829-9.61-1.627-.984 7.812s-1.112.34-3.777.34-3.984-.5-3.984-.5l.908-8.232s-7.861-.764-8.32-.854c-7.318-1.442-6.66-3.016-6.66-3.016z" fill="#F15C22"/>
    <circle cx="51" cy="40" r="3" opacity=".2"/>
    <circle cx="51" cy="39" r="3" fill="#F9F5D7"/>
    <circle cx="51" cy="39" r="2" fill="#3A393A"/>
    <path d="M58.226 44.056c-4.344 0-8.267 1.386-9.958 3.21 2.755-2.015 10.192-1.103 10.296-1.073l.622-2.113c-.32-.014-.64-.022-.96-.024z" opacity=".2"/>
</svg>
