<svg xmlns="http://www.w3.org/2000/svg" width="64" height="64">
    <path d="M42 8C29.85 8 18 19.85 18 32c0-3.137 4.475 7.369 6.918 5.703C27.636 35.85 28.51 22 32 22c.4 0 .8.019 1.2.059.004 0 .01.003.015.004C44.797 22.696 52 30.26 52 42c0 3.496-.838 6.791-2.29 9.727.092-.05.184-.101.274-.153.317.383.617.723.914 1.047A28 28 0 0 0 60 32c0-.784-.048-1.564-.113-2.34a28 28 0 0 0-.176-1.445c-.06-.441-.114-.884-.195-1.32a28 28 0 0 0-.297-1.329c-.108-.453-.21-.908-.34-1.355a28 28 0 0 0-.402-1.219c-.161-.472-.315-.947-.5-1.41a28 28 0 0 0-.465-1.035c-.221-.492-.435-.986-.684-1.465a28 28 0 0 0-.527-.926c-.276-.484-.546-.973-.852-1.441a28 28 0 0 0-.574-.8c-.342-.488-.676-.98-1.05-1.446a28 28 0 0 0-.368-.418 27.935 27.935 0 0 0-1.477-1.656C48.89 10.82 45.47 8 42 8z" fill="#F9BD2E"/>
    <path d="M33.203 20.063C39.034 20.677 42 25.787 42 32c0 .4-.019.8-.059 1.2 0 .004-.003.01-.004.015C41.304 44.797 33.74 52 22 52c-3.496 0-6.791-.838-9.727-2.29.05.092.101.184.153.274-.577.153-.98.314-1.434.473a28 28 0 0 0 15.074 8.89c1.515.243 2.993.467 4.164.563A28 28 0 0 0 32 60c.784 0 1.564-.048 2.34-.113a28 28 0 0 0 1.445-.176c.441-.06.884-.114 1.32-.195a28 28 0 0 0 1.329-.297c.453-.108.908-.21 1.355-.34a28 28 0 0 0 1.219-.402c.472-.161.947-.315 1.41-.5a28 28 0 0 0 1.035-.465c.492-.221.986-.435 1.465-.684a28 28 0 0 0 .926-.527c.484-.276.973-.546 1.441-.852a28 28 0 0 0 .8-.574c.488-.342.98-.676 1.446-1.05a28 28 0 0 0 .418-.368 27.935 27.935 0 0 0 1.656-1.477A22 22 0 0 0 54 42c0-11.744-9.21-21.31-20.797-21.938z" fill="#FD8019"/>
    <path d="M14.648 10.027a27.995 27.995 0 0 0-9.398 13.7l-.008.023C4.517 27.282 4.002 30.427 4 32c0 .784.048 1.564.113 2.34a28 28 0 0 0 .176 1.445c.06.441.114.884.195 1.32.089.446.188.888.297 1.329.108.453.21.908.34 1.355.125.41.259.816.402 1.219.161.472.315.947.5 1.41.148.348.303.693.465 1.035.221.492.435.986.684 1.465.17.312.346.62.527.926.276.484.546.973.852 1.441a28 28 0 0 0 .574.8c.342.488.676.98 1.05 1.446.122.14.244.28.368.418.474.566.956 1.126 1.477 1.656A22 22 0 0 0 22 54c11.744 0 21.31-9.21 21.938-20.797C43.322 39.034 38.212 42 32 42c-.4 0-.8-.019-1.2-.059-.004 0-.01-.003-.015-.004C19.203 41.304 12 33.74 12 22c0-3.496.29-9.727.29-9.727s3.584.638 2.417-1.328c-.012-.362-.043-.582-.059-.918z" fill="#FA4934"/>
    <path d="M32 44c-2.335 0 7.103-1.743 5.324-2.896C34.054 38.983 20.4 36.293 20.4 32c0-.4-.381-.8-.341-1.2 0-.004.003-.01.004-.015C20.697 19.203 30.26 10 42 10c3.496 0 6.791.838 9.727 2.29-.05-.092-.101-.184-.153-.274A28 28 0 0 0 32 4a28 28 0 0 0-19.605 8.02A22 22 0 0 0 10 22c0 12.15 9.85 22 22 22z" fill="#B7BB25"/>
    <path d="M32 4A28 28 0 0 0 4 32a28 28 0 0 0 .018.492A28 28 0 0 1 32 5a28 28 0 0 1 27.975 27.492A28 28 0 0 0 60 32 28 28 0 0 0 32 4z" opacity=".2" fill="#F9F5D7"/>
    <path d="M42 10c-11.74 0-21.304 9.203-21.938 20.785 0 .005-.003.01-.003.016a.821.821 0 0 0 .054.344C21.06 19.867 30.478 11 42 11c3.496 0 6.791.838 9.727 2.29-.05-.092-.101-.184-.153-.274-.55-.54-1.124-1.05-1.713-1.54A21.76 21.76 0 0 0 42 10zm-8.797 10.063c1.782.187 3.293.8 4.537 1.73 9.194 2.476 16.003 10.742 16.246 20.66.003-.15.014-.302.014-.453 0-11.744-9.21-21.31-20.797-21.938zm-23.19 2.474c-.003.154-.013.308-.013.463 0 12.15 9.85 22 22 22a12 12 0 0 0 11.508-8.627C41.478 46.421 32.648 54 22 54a22 22 0 0 1-9.95-2.379 28 28 0 0 1-1.962-2.21c-.059-.076-.111-.155-.168-.231a28 28 0 0 1-1.445-2.024c-.068-.106-.127-.216-.192-.324a28 28 0 0 1-1.176-2.055c-.095-.19-.182-.384-.271-.578a28 28 0 0 1-.877-1.965c-.066-.171-.123-.346-.184-.52a28 28 0 0 1-.699-2.103c-.05-.18-.092-.364-.137-.547a28 28 0 0 1-.486-2.175c-.03-.183-.057-.367-.082-.551a28 28 0 0 1-.271-2.25c-.02-.266-.034-.534-.047-.8a28 28 0 0 1-.032-.702A28 28 0 0 0 4 33c0 .784.048 1.564.113 2.34l.008.062a28 28 0 0 0 .164 1.346l.004.037c.06.441.114.884.195 1.32l.016.073a28 28 0 0 0 .32 1.412c.095.401.186.804.301 1.2l.022.065a28 28 0 0 0 .566 1.674c.101.298.197.597.314.889.017.04.036.078.053.117a28 28 0 0 0 .764 1.674c.109.237.211.477.332.709.024.045.051.088.076.133a28 28 0 0 0 .828 1.43c.156.27.304.543.475.804.04.058.082.114.123.172a28 28 0 0 0 1.008 1.395c.163.227.318.46.494.68.054.063.11.124.166.187a28 28 0 0 0 .681.793c.322.372.65.74.997 1.093l.044.022A28 28 0 0 0 32 61a28 28 0 0 0 28-28 28 28 0 0 0-.021-.586A28 28 0 0 1 32 60a28 28 0 0 1-17.854-6.455A21.998 21.998 0 0 0 22 55c11.744 0 21.31-9.21 21.938-20.797-.012.11-.034.212-.05.318A12 12 0 0 0 44 33a12 12 0 0 0-.021-.404 12 12 0 0 1-6.604 10.113c.21-.21.241-.416-.05-.605-.077-.05-.185-.1-.272-.15C35.407 42.958 30.195 44 32 44a12 12 0 0 1-11.975-11.5A12 12 0 0 0 20 33a12 12 0 0 0 5.332 9.967c-8.724-2.774-15.088-10.84-15.318-20.43z" opacity=".2"/>
    <path d="M44 32a12 12 0 0 1-12 12 12 12 0 0 1-12-12 12 12 0 0 1 12-12 12 12 0 0 1 12 12z" fill="#504945"/>
</svg>
