<svg xmlns="http://www.w3.org/2000/svg" width="64" height="64" version="1">
    <path d="M20.156 5C11.234 5 4 13.233 4 23.387c0 2.728.422 5.352 1.164 7.86 0 0 .674 2.262 1.27 3.507C13.244 50.676 32 61 32 61s18.757-10.324 25.566-26.246c.596-1.245 1.27-3.508 1.27-3.508.742-2.507 1.164-5.131 1.164-7.86C60 13.234 52.766 5 43.844 5 39.164 5 34.95 7.382 32 11c-2.951-3.618-7.164-6-11.844-6z" opacity=".2"/>
    <path d="M20.156 4C11.234 4 4 12.233 4 22.387c0 2.728.422 5.352 1.164 7.86 0 0 .674 2.262 1.27 3.507C13.244 49.676 32 60 32 60s18.757-10.324 25.566-26.246c.596-1.245 1.27-3.508 1.27-3.508.742-2.507 1.164-5.131 1.164-7.86C60 12.234 52.766 4 43.844 4 39.164 4 34.95 6.382 32 10c-2.951-3.618-7.164-6-11.844-6z" fill="#CB241D"/>
    <path d="M20.156 4C11.234 4 4 12.233 4 22.387c0 .178.016.353.02.531C4.24 12.983 11.373 5 20.156 5 24.836 5 29.05 7.382 32 11c2.951-3.618 7.164-6 11.844-6 8.783 0 15.916 7.983 16.136 17.918.004-.178.02-.353.02-.531C60 12.233 52.766 4 43.844 4 39.164 4 34.95 6.382 32 10c-2.951-3.618-7.164-6-11.844-6z" opacity=".2" fill="#F9F5D7"/>
</svg>
