<svg xmlns="http://www.w3.org/2000/svg" width="64" height="64" version="1">
    <path d="M26.088 60.905c-.083-.082-.667-.248-1.766-.367-2.204-.239-2.958-.698-3.242-1.972-.251-1.133.286-2.52 1.572-4.058.608-.727.828-1.278.828-1.395 0-.401-.862-.202-1.566.342-.386.299-1.11.546-1.606.55-1.16.007-1.61-.762-1.387-2.371.14-1.011.351-1.383-.182-1.744-.343-.233-2.43-.857-3.002-1.388-.975-.906-1.022-1.025-.765-1.945.307-1.098.664-3.56-.405-6.393-.587-1.56-.671-1.644-2.118-2.143-.828-.285-1.935-.842-2.46-1.238-.904-.68-.954-.809-.953-2.44l.002-1.723 1.832-.936c2.108-1.077 3.135-2.497 2.456-2.873-.231-.128-1.286-.09-2.361.086-2.09.342-3.19.077-3.815-.917-.41-.653.058-1.834 1.004-2.53l.759-.558 1.585.6c2.326.878 3.643.803 4.855-.923 1.15-1.637.872-2.222.196-3.514-.242-.464-.464-1.353-.492-1.976-.046-1.035.056-1.216 1.18-2.071.677-.515 1.784-1.083 2.46-1.262 1.373-.363 2.502-.987 1.683-2.015-.675-.848-1.69-1.159-1.133-2.737.745-2.109 1.42-2.35 4.171-1.207.93.387 1.213.83 1.36.74.148-.09.27-.71.27-1.379 0-1.042.123-1.302.874-1.83.482-.34 1.247-.88 1.457-1.376l.38-.9 1.907.683c1.05.376 2.169.924 2.488 1.22.775.715.94.132 3.094-.996 2.33-1.222 3.396-1.255 4.479-.14.81.837 2.168 2.094 2.53 1.515.34-.545 1.987-.302 2.646.39.349.368 1.052.546 1.562.64.51.095 1.447-.155 2.082.3 1.406 1.006 3.076.022 3.922-.868 1.107-1.164 2.53-.785 2.53.675 0 .387-.28 1.371-.622 2.187-.567 1.352-2.74 2.35-2.362 3.017.276.486.42.853 1.243 1.088.683.196 1.343.513 1.467.706.42.655.217 2.291-.41 3.298-.57.915-.608 1.221-.434 3.472.37 4.79 2.18 8.746 2.485 9.54.17.442.299 1.314.286 1.939-.012.624.062 1.484.166 1.912.138.57.058.871-.3 1.13-.462.333-.655.419-.095 1.504.748 1.447.771 3.318.056 4.19-.455.554-.747.641-1.898.566-3.715-.244-3.613-1.061-3.557-.239.028.413.792.944 1.189 1.522.807 1.173.905 1.972.344 3.298-.688 1.625-1.046 1.744-3.5 1.162-1.192-.282-2.367-.677-2.61-.877-.644-.526-1.157 1.021-1.94 2.248-.666 1.04-.795 1.111-2.043 1.112-1.607.002-2.844 1.26-3.682 2.6-.413.66-.887 1.023-1.497 1.143-1.264.25-2.814-.079-4.425-.749l-1.377-.573-1.997.677-2.798-.324.036 1.111c.02.611.13 1.819.247 2.684.117.865.134 1.882.038 2.261-.17.666-.61 1.146-.92.84z" opacity=".2"/>
    <path d="M26.088 59.905c-.083-.082-.667-.247-1.766-.367-2.204-.239-2.958-.698-3.242-1.972-.251-1.133.286-2.52 1.572-4.058.608-.726.828-1.278.828-1.395 0-.401-.862-.202-1.566.342-.386.299-1.11.546-1.606.55-1.16.007-1.61-.762-1.387-2.371.14-1.01.351-1.383-.182-1.744-.343-.233-2.43-.857-3.002-1.388-.975-.906-1.022-1.025-.765-1.945.307-1.098.664-3.56-.405-6.393-.587-1.56-.671-1.644-2.118-2.143-.828-.285-1.935-.842-2.46-1.238-.904-.68-.954-.809-.953-2.44l.002-1.723 1.832-.936c2.108-1.077 3.135-2.497 2.456-2.873-.231-.128-1.286-.09-2.361.086-2.09.342-3.19.077-3.815-.917-.41-.653.058-1.834 1.004-2.53l.759-.558 1.585.6c2.326.878 3.643.803 4.855-.923 1.15-1.637.872-2.222.196-3.514-.242-.464-.464-1.353-.492-1.976-.046-1.035.056-1.215 1.18-2.071.677-.515 1.784-1.083 2.46-1.262 1.373-.363 2.502-.987 1.683-2.015-.675-.848-1.69-1.159-1.133-2.737.745-2.109 1.42-2.35 4.171-1.207.93.387 1.213.83 1.36.74.148-.09.27-.71.27-1.379 0-1.042.123-1.302.874-1.83.482-.34 1.247-.88 1.457-1.376l.38-.9 1.907.683c1.05.376 2.169.924 2.488 1.22.775.715.94.132 3.094-.996 2.33-1.222 3.396-1.255 4.479-.14.81.837 2.168 2.094 2.53 1.515.34-.545 1.987-.302 2.646.39.349.368 1.052.546 1.562.64.51.095 1.447-.155 2.082.3 1.406 1.006 3.076.022 3.922-.868 1.107-1.164 2.53-.785 2.53.675 0 .387-.28 1.371-.622 2.187-.567 1.352-2.74 2.35-2.362 3.017.276.486.42.853 1.243 1.088.683.196 1.343.513 1.467.706.42.655.217 2.291-.41 3.298-.57.915-.608 1.222-.434 3.472.37 4.79 2.18 8.746 2.485 9.54.17.442.299 1.314.286 1.939-.012.624.062 1.484.166 1.912.138.57.058.871-.3 1.13-.462.333-.655.419-.095 1.504.748 1.448.771 3.318.056 4.19-.455.555-.747.641-1.898.566-3.715-.244-3.613-1.061-3.557-.239.028.413.792.944 1.189 1.522.807 1.173.905 1.972.344 3.298-.688 1.625-1.046 1.744-3.5 1.162-1.192-.282-2.367-.677-2.61-.877-.644-.526-1.157 1.022-1.94 2.248-.666 1.04-.795 1.111-2.043 1.112-1.607.002-2.844 1.26-3.682 2.6-.413.66-.887 1.023-1.497 1.143-1.264.25-2.814-.079-4.425-.749l-1.377-.573-1.997.677-2.798-.324.036 1.111c.02.611.13 1.819.247 2.684.117.865.134 1.882.038 2.261-.17.666-.61 1.146-.92.84z" fill="#CB241D"/>
    <path d="M33.064 12.426l-13.772 9.93v.01l1.894 16.638 15.666 6.713 13.772-9.93L48.73 19.15v-.01z" fill="#F9F5D7"/>
    <path d="M49.066 18.87L35.002 29.011 36.936 46 51 35.86z" fill="#BDAD93"/>
    <path d="M33.065 12.001l-14.064 10.14.001.011 16 6.86 14.064-10.143-.001-.01z" fill="#F9F5D7"/>
    <path d="M19.002 22.152l1.934 16.991 16 6.857-1.934-16.988z" fill="#F9F5D7"/>
    <path d="M48.205 19.49l-13.203 9.522-15.14-6.492-.862.62.002.012 16 6.86 14.064-10.143-.002-.012-.859-.367z" opacity=".1"/>
    <path d="M19.104 23.066l-.104.075v.011l1.938 16.993L36.934 47 51 36.86l-.105-.924L36.934 46l-15.996-6.855-1.834-16.079z" opacity=".2"/>
    <path d="M37.955 4.002c-.693.021-1.541.336-2.707.947-2.153 1.129-2.319 1.71-3.094.994-.319-.295-1.44-.843-2.488-1.218l-1.906-.682-.381.9c-.21.495-.976 1.037-1.457 1.375-.751.529-.875.788-.875 1.83 0 .669-.12 1.29-.268 1.38-.147.09-.431-.354-1.361-.74-2.75-1.145-3.425-.903-4.17 1.206-.2.566-.193.966-.076 1.29.024-.096.038-.183.076-.29.745-2.109 1.42-2.35 4.17-1.207.93.387 1.214.83 1.361.74.148-.09.268-.71.268-1.379 0-1.042.124-1.301.875-1.83.481-.338 1.248-.88 1.457-1.375l.38-.9 1.907.682c1.049.375 2.17.923 2.488 1.218.775.716.941.135 3.094-.994 2.331-1.222 3.396-1.255 4.479-.138.81.836 2.169 2.092 2.53 1.513.342-.545 1.987-.302 2.645.39.35.368 1.053.547 1.563.641.51.095 1.446-.156 2.082.3 1.406 1.006 3.076.02 3.922-.87.961-1.011 2.158-.854 2.457.16.042-.197.074-.37.074-.484 0-1.46-1.424-1.84-2.531-.676-.846.89-2.516 1.876-3.922.87-.636-.456-1.572-.205-2.082-.3-.51-.094-1.213-.273-1.563-.64-.658-.693-2.303-.936-2.644-.39-.362.578-1.72-.678-2.531-1.514-.542-.559-1.079-.83-1.772-.809zm14.266 9.018c-.205.24-.312.458-.205.646.276.486.418.852 1.242 1.088.683.195 1.343.512 1.467.705.09.14.146.333.181.549.082-.629.032-1.216-.181-1.549-.124-.193-.784-.51-1.467-.705-.61-.174-.844-.422-1.037-.734zm-31.762.841c-.317.392-.993.682-1.762.885-.676.179-1.784.746-2.46 1.262-1.124.855-1.227 1.035-1.18 2.07.003.08.017.173.027.26.086-.46.368-.733 1.152-1.33.677-.516 1.785-1.083 2.461-1.262 1.312-.346 2.381-.936 1.762-1.885zm33.355 6.32c-.035.457-.01 1.044.067 2.048.37 4.79 2.179 8.746 2.484 9.54.17.442.3 1.314.287 1.938a9.495 9.495 0 0 0 .139 1.723c.102-.203.115-.45.027-.81-.103-.428-.178-1.289-.166-1.913.013-.624-.117-1.496-.287-1.937-.305-.795-2.114-4.752-2.484-9.541-.034-.433-.051-.74-.067-1.047zm-37.755 2.03c-.103.38-.318.806-.705 1.357-1.213 1.726-2.53 1.802-4.856.922l-1.586-.597-.758.556c-.895.66-1.353 1.75-1.05 2.418a2.95 2.95 0 0 1 1.05-1.418l.758-.556 1.586.597c2.326.88 3.643.804 4.856-.922.753-1.071.887-1.693.705-2.357zm-2.791 6.588c-.393.575-1.216 1.281-2.397 1.885l-1.834.937v1l1.834-.937c2.107-1.077 3.134-2.498 2.455-2.873-.01-.006-.044-.007-.058-.012zm43.013 8.133c-.263.226-.303.459.143 1.322.305.59.482 1.25.545 1.885.107-.893-.074-1.973-.545-2.885-.07-.135-.095-.216-.143-.322zm-5.136 5.49c-.17-.036-.143.041-.122.35.029.412.793.944 1.19 1.521.345.502.553.935.642 1.371.165-.83-.041-1.497-.642-2.371-.185-.269-.447-.526-.68-.768a5.998 5.998 0 0 0-.388-.103zm-35.88 1.172a9.271 9.271 0 0 1-.292 1.963c-.144.513-.17.782-.016 1.072.008-.028.007-.043.016-.072.172-.615.349-1.667.293-2.963zM19 50.158c-.025.147-.052.291-.078.477-.065.467-.067.854-.018 1.181.007-.062.009-.118.018-.183.107-.77.249-1.169.078-1.475zm4.334 2.762c-.062-.02-.16-.004-.25.006a6.113 6.113 0 0 1-.432.582c-1.26 1.508-1.798 2.87-1.582 3.99.148-.898.675-1.905 1.582-2.99.608-.727.828-1.277.828-1.395 0-.1-.054-.164-.146-.193zm3.354 1.09l.037 1.111c.02.611.129 1.819.246 2.684.043.323.059.657.074.982.046-.477.022-1.271-.074-1.982a32.77 32.77 0 0 1-.246-2.684l-.004-.107-.034-.004z" fill="#F9F5D7" opacity=".2"/>
</svg>
