<svg xmlns="http://www.w3.org/2000/svg" width="64" height="64" version="1">
    <path d="M18.56 22.226a1.129 1.15 0 0 0-1.113.945l-4.063 22.984a1.129 1.15 0 1 0 2.22.406l2.438-13.786 1.647 25.15a1.129 1.15 0 0 0 2.25.007l1.173-16.726 1.091 14.432a1.129 1.15 0 0 0 2.248.016l1.383-15.49.892 6.357a1.129 1.15 0 0 0 2.218.085l2.284-10.461v17.107a1.129 1.15 0 0 0 2.244.175l3.32-21.971L42.266 58a1.129 1.15 0 0 0 2.242-.05l1.777-19.89 2.125 6.368a1.13 1.15 0 1 0 2.138-.74l-3.838-11.49a1.129 1.15 0 0 0-2.193.264l-1.345 15.063-3.183-24.303a1.129 1.15 0 0 0-2.235-.023l-2.27 15.025V25.674a1.129 1.15 0 0 0-2.229-.252l-3.172 14.536-1.382-9.851a1.129 1.15 0 0 0-2.24.058l-1.04 11.649-1.226-16.23a1.129 1.15 0 0 0-2.25.007l-1.091 15.57-1.17-17.862a1.129 1.15 0 0 0-1.125-1.073z" opacity=".2"/>
    <path d="M32.099 6.142c-6.549 0-13.084 2.082-17.49 5.578-4.405 3.495-7.267 8.497-7.267 14.061v2.011C2.968 30.05.5 35.966.5 42.904c0 8.88 4.962 16.089 11.357 16.089V25.78c0-4.166 2.118-8.002 5.755-10.888 3.637-2.886 8.774-4.165 14.49-4.165 5.714 0 10.85 1.28 14.488 4.165 3.637 2.886 5.756 6.722 5.756 10.888v33.212c6.394 0 11.354-7.208 11.354-16.089 0-6.938-2.355-12.855-6.73-15.112v-2.01c0-5.565-2.86-10.567-7.265-14.062C45.3 8.224 38.65 6.142 32.101 6.142zM12.915 26.816v32.177c.903 0 1.805-.512 2.257-1.533V27.837c-.451-.51-1.354-1.021-2.257-1.021zm38.372 0c-.902 0-1.805.51-2.257 1.021V57.46c.452 1.021 1.355 1.533 2.257 1.533V26.818z" opacity=".2"/>
    <path d="M14.494 46.353l4.063-22.982 2.257 34.474 2.257-32.176 2.258 29.877 2.257-25.28 2.257 16.087 4.514-20.684v27.58l4.514-29.878 4.515 34.474 2.257-25.281 3.837 11.491" opacity=".04" fill="none" stroke="#151819" stroke-width="2.278" stroke-linecap="round" stroke-linejoin="round"/>
    <path d="M18.56 21.072a1.129 1.15 0 0 0-1.113.945l-4.063 22.984a1.129 1.15 0 1 0 2.22.406l2.438-13.786 1.647 25.15a1.129 1.15 0 0 0 2.25.007l1.173-16.726 1.091 14.432a1.129 1.15 0 0 0 2.248.016l1.383-15.49.892 6.357a1.129 1.15 0 0 0 2.218.085l2.284-10.461v17.107a1.129 1.15 0 0 0 2.244.175l3.32-21.971 3.475 26.545a1.129 1.15 0 0 0 2.242-.05l1.777-19.89 2.125 6.368a1.13 1.15 0 1 0 2.138-.74l-3.838-11.49a1.129 1.15 0 0 0-2.193.265l-1.345 15.062L39.99 22.07a1.129 1.15 0 0 0-2.235-.022l-2.27 15.024V24.52a1.129 1.15 0 0 0-2.229-.251l-3.172 14.535-1.382-9.851a1.129 1.15 0 0 0-2.24.058l-1.04 11.649-1.226-16.23a1.129 1.15 0 0 0-2.25.007l-1.091 15.57-1.17-17.862a1.129 1.15 0 0 0-1.125-1.073z" fill="#F9BD2E"/>
    <path d="M38.807 21.068a1.129 1.15 0 0 0-1.05.979l-2.272 15.022v1.126l2.272-15.024a1.129 1.15 0 0 1 1.162-.979 1.129 1.15 0 0 1 1.071 1.004L43.173 47.5l1.345-15.065a1.129 1.15 0 0 1 2.193-.265l3.772 11.292a1.129 1.15 0 0 0 .066-.927l-3.838-11.49a1.129 1.15 0 0 0-2.193.263l-1.345 15.065L39.99 22.07a1.129 1.15 0 0 0-1.07-1.001 1.129 1.15 0 0 0-.113 0zm-20.245.004a1.129 1.15 0 0 0-1.115.945l-4.065 22.984a1.129 1.15 0 0 0 .077.689l3.988-22.546a1.129 1.15 0 0 1 1.115-.947 1.129 1.15 0 0 1 1.12 1.073l1.173 17.893 1.093-15.6a1.129 1.15 0 0 1 2.248-.008l1.226 16.23 1.04-11.647a1.129 1.15 0 0 1 2.238-.058l1.38 9.848 3.176-14.533a1.129 1.15 0 0 1 2.229.25V24.52a1.129 1.15 0 0 0-2.229-.251L30.08 38.802l-1.38-9.847a1.129 1.15 0 0 0-2.238.056l-1.04 11.649-1.226-16.23a1.129 1.15 0 0 0-2.248.009l-1.093 15.597-1.173-17.89a1.129 1.15 0 0 0-1.12-1.074z" opacity=".2" fill="#F9F5D7" fill-rule="evenodd"/>
    <path d="M32.099 4.993c-6.549 0-13.084 2.082-17.49 5.578-4.405 3.495-7.267 8.497-7.267 14.061v2.011C2.968 28.9.5 34.817.5 41.755c0 8.88 4.962 16.089 11.357 16.089V24.632c0-4.167 2.118-8.002 5.755-10.888 3.637-2.886 8.774-4.166 14.49-4.166 5.714 0 10.85 1.28 14.488 4.166 3.637 2.886 5.756 6.721 5.756 10.888v33.212c6.394 0 11.354-7.208 11.354-16.089 0-6.938-2.355-12.855-6.73-15.112v-2.01c0-5.565-2.86-10.567-7.265-14.062C45.3 7.075 38.65 4.993 32.101 4.993zM12.915 25.667v32.177c.903 0 1.805-.512 2.257-1.533V26.688c-.451-.51-1.354-1.021-2.257-1.021zm38.372 0c-.902 0-1.805.51-2.257 1.021v29.623c.452 1.021 1.355 1.533 2.257 1.533V25.669z" fill="#48B9C7"/>
    <path d="M32.099 4.993c-6.549 0-13.084 2.082-17.49 5.578-4.405 3.495-7.267 8.497-7.267 14.061v1.15c0-5.565 2.862-10.567 7.268-14.062 4.405-3.496 10.94-5.578 17.489-5.578h.002c6.548 0 13.198 2.082 17.604 5.578 4.405 3.495 7.265 8.497 7.265 14.061v-1.149c0-5.564-2.86-10.566-7.265-14.061C45.299 7.075 38.649 4.993 32.1 4.993H32.1zM12.915 25.667v1.149c.903 0 1.806.51 2.257 1.021v-1.149c-.451-.51-1.354-1.021-2.257-1.021zm38.372 0c-.902 0-1.805.51-2.257 1.021v1.15c.452-.511 1.355-1.022 2.257-1.022v-1.149zm-43.945.976C2.968 28.9.5 34.817.5 41.755c0 .152.013.299.015.45.162-6.633 2.602-12.233 6.827-14.413v-1.149zm49.628 0v1.15c4.265 2.2 6.593 7.887 6.708 14.6.006-.213.022-.423.022-.638 0-6.938-2.355-12.855-6.73-15.112z" opacity=".2" fill="#F9F5D7"/>
</svg>
