<svg xmlns="http://www.w3.org/2000/svg" width="64" height="64" version="1">
    <circle cx="32" cy="33" r="28" opacity=".2"/>
    <path d="M60 32C60 16.488 47.512 4 32 4c-2.776 0-4.107 3.22-6.635 3.965-9.467 2.792-18.164 7.613-20.545 17.253A28.252 28.252 0 0 0 4 32c0 15.512 12.488 28 28 28 1.425 0 3.07-2.557 4.436-2.76 10.285-1.532 18.463-6.163 21.9-15.672A28.096 28.096 0 0 0 60 32z" fill="#504945"/>
    <path d="M32 4A28 28 0 0 0 4 32a28 28 0 0 0 .018.492A28 28 0 0 1 32 5a28 28 0 0 1 27.975 27.492A28 28 0 0 0 60 32 28 28 0 0 0 32 4z" opacity=".1" fill="#F9F5D7"/>
    <circle cx="32" cy="33" r="16" opacity=".2"/>
    <circle cx="32" cy="32" r="16" fill="#EBDBB2"/>
    <path d="M32 5c-8.652 0-16.38 3.932-21.516 10.098L6.88 11.492A1.688 1.688 0 0 0 5.664 11 1.688 1.688 0 0 0 4 12.688v14.624A1.688 1.688 0 0 0 5.688 29h14.625a1.688 1.688 0 0 0 1.195-2.879l-2.457-2.457C21.957 19.64 26.657 17 32 17z" opacity=".2"/>
    <path d="M5.663 10A1.688 1.688 0 0 0 4 11.687v14.625A1.688 1.688 0 0 0 5.688 28h14.625a1.688 1.688 0 0 0 1.193-2.88L6.881 10.493A1.688 1.688 0 0 0 5.663 10z" fill="#FA4934"/>
    <path d="M58.337 54A1.688 1.688 0 0 0 60 52.312V37.687a1.688 1.688 0 0 0-1.688-1.688H43.687a1.688 1.688 0 0 0-1.193 2.881l14.625 14.625a1.688 1.688 0 0 0 1.218.495z" fill="#8F3F71"/>
    <circle cx="32" cy="33" r="6" opacity=".2"/>
    <circle cx="32" cy="32" r="6" fill="#F9F5D7"/>
    <path d="M58.33 41.545C54.429 52.31 44.113 60 32 60V48c6.037 0 11.294-3.344 14.018-8.28z" fill="#8F3F71"/>
    <path d="M43.688 36a1.688 1.688 0 0 0-1.606 2.19A1.688 1.688 0 0 1 43.687 37h14.626A1.688 1.688 0 0 1 60 38.688v-1A1.688 1.688 0 0 0 58.312 36H43.688z" opacity=".2" fill="#F9F5D7"/>
    <path d="M32 4C21.083 4 11.626 10.247 7.008 19.362l10.062 6.874C19.383 20.248 25.196 16 32 16z" fill="#FA4934"/>
    <path d="M32 4c-8.652 0-16.378 3.934-21.514 10.1l-3.605-3.606A1.688 1.688 0 0 0 4 11.688v1a1.688 1.688 0 0 1 2.88-1.194l3.606 3.606C15.622 8.934 23.348 5 32 5z" opacity=".2" fill="#F9F5D7"/>
</svg>
