<svg xmlns="http://www.w3.org/2000/svg" width="64" height="64" version="1">
    <path d="M12.4 10.997c-1.439.525 3.465 9.6 2.282 10.263C12.62 22.083 10 22.998 10 22.998v14s9.125 1.185 16.002 2C27.38 39.164 4 53 4 53c6.93.002 77.436-18.593 49.473-31.762-4.803-2.557-11.855-4.231-19.713-4.231-3.948 0-7.577.466-10.793 1.196-1.548.35-9.22-7.697-10.566-7.206z" opacity=".2"/>
    <path d="M12.4 9.997c-1.439.525 3.465 9.6 2.282 10.263C12.62 21.083 10 21.998 10 21.998v14s9.125 1.184 16.002 2C27.38 38.164 4 52 4 52c6.93.002 77.436-18.593 49.473-31.763-4.803-2.557-11.855-4.23-19.713-4.23-3.948 0-7.577.466-10.793 1.195-1.548.352-9.22-7.696-10.566-7.205z" fill="#48B9C7"/>
    <path d="M10 22.998v-2H4v18h6v-2c12.015-2.022 18.143-4.557 18.002-7.086-.138-2.471-6.266-4.937-18.002-6.914z" opacity=".2"/>
    <path d="M10 21.998v-2H4v18h6v-2c12.015-2.022 18.143-4.557 18.002-7.087-.138-2.47-6.266-4.936-18.002-6.913z" fill="#3A393A"/>
    <path d="M46.085 18.497c-.04.319-.08.65-.082.899.003 4.58 6.084 7.177 13.857 7.59-.514-1.978-2.496-3.917-6.388-5.75a26.777 26.777 0 0 0-3.043-1.364l-.46-.18a36.64 36.64 0 0 0-1.84-.62 42.465 42.465 0 0 0-2.044-.575z" opacity=".2"/>
    <path d="M46.085 17.497c-.04.319-.08.65-.082.899.003 4.58 6.084 7.177 13.857 7.59-.514-1.978-2.496-3.918-6.387-5.75a26.777 26.777 0 0 0-3.044-1.364c-.154-.06-.304-.121-.46-.18a36.642 36.642 0 0 0-1.84-.62 42.464 42.464 0 0 0-2.044-.575z" fill="#3A393A"/>
    <path d="M12.4 9.996c-.285.104-.315.552-.199 1.195a.35.35 0 0 1 .2-.195c1.345-.49 9.018 7.558 10.566 7.207a48.821 48.821 0 0 1 10.793-1.195c7.858 0 14.91 1.673 19.713 4.23 4.264 2.009 6.23 4.143 6.488 6.319.29-2.52-1.572-5.003-6.488-7.319-4.804-2.557-11.855-4.232-19.713-4.232-3.949 0-7.577.467-10.793 1.197-1.548.351-9.221-7.698-10.567-7.207zm2.391 10.143a.297.297 0 0 1-.11.12c-2.06.823-4.681 1.739-4.681 1.739v1s2.62-.916 4.682-1.738c.218-.122.227-.534.109-1.121zm10.316 18.75C21.047 41.907 4 52 4 52c.439 0 1.138-.076 2.045-.219 4.837-2.879 21.141-12.642 19.957-12.783-.29-.034-.597-.074-.895-.11z" fill="#F9F5D7" opacity=".1"/>
    <path d="M4 19.998v1h6v-1H4zm6 2v1c11.061 1.864 17.136 4.162 17.914 6.488.061-.191.099-.382.088-.574-.138-2.47-6.266-4.936-18.002-6.914z" fill="#F9F5D7" opacity=".1"/>
</svg>
