<svg xmlns="http://www.w3.org/2000/svg" width="64" height="64" version="1">
    <path d="M10 56v2c0 1.662 1.338 3 3 3h38c1.662 0 3-1.338 3-3v-2c0 1.662-1.338 3-3 3H13c-1.662 0-3-1.338-3-3z" opacity=".2"/>
    <path d="M13 4c-1.662 0-3 1.338-3 3v50c0 1.662 1.338 3 3 3h38c1.662 0 3-1.338 3-3V7c0-1.662-1.338-3-3-3H13z" fill="#448588"/>
    <path d="M13 4c-1.662 0-3 1.338-3 3v50c0 1.662 1.338 3 3 3h5V4zM38 5v28l4-4 4 4V5h-8z" opacity=".2"/>
    <path d="M38 4v28l4-4 4 4V4h-8z" fill="#F9F5D7"/>
    <path d="M13 4c-1.662 0-3 1.338-3 3v1c0-1.662 1.338-3 3-3h38c1.662 0 3 1.338 3 3V7c0-1.662-1.338-3-3-3H13z" opacity=".2" fill="#F9F5D7"/>
    <path d="M63.958 45.848A16 16 0 0 1 48 61a16 16 0 0 1-15.958-14.848A16 16 0 0 0 32 47a16 16 0 0 0 16 16 16 16 0 0 0 16-16 16 16 0 0 0-.042-1.152z" opacity=".2" fill-rule="evenodd"/>
    <circle cx="48" cy="46" r="16" fill="#CB241D"/>
    <path d="M48 39c-1.939.021-3.89.518-5.578 1.59-.673.49-1.481 1.125-2.09 1.764-.958 1.05-1.778 2.275-2.332 3.648 1.519 3.752 4.856 6.502 8.53 6.908 2.408.306 4.93-.16 7.048-1.496.673-.49 1.481-1.125 2.09-1.764.958-1.052 1.778-2.277 2.332-3.648-1.518-3.752-4.857-6.503-8.53-6.908-.487-.065-.98-.094-1.47-.094zm.004 3c2.14-.047 4.034 1.868 3.994 3.996.069 2.353-2.275 4.383-4.592 3.943-2.34-.274-3.984-2.9-3.215-5.125.493-1.636 2.1-2.831 3.815-2.812L48.004 42zM48 44a2 1.999 0 0 0-2 2.002A2 1.999 0 0 0 48 48a2 1.999 0 0 0 2-1.998 2 1.999 0 0 0-2-1.998V44z" fill="#F9F5D7" fill-rule="evenodd"/>
</svg>
