<svg xmlns="http://www.w3.org/2000/svg" width="64" height="64" version="1">
    <path d="M3.002 40.593a2.865 2.52 0 0 0 .383 1.186l5.567 8.48 5.566 8.48a2.865 2.52 0 0 0 4.963 0l5.566-8.48 5.57-8.48A2.865 2.52 0 0 0 28.136 38H5.866a2.865 2.52 0 0 0-2.864 2.593z" opacity=".2"/>
    <rect width="30" height="16" x="17" y="35" rx="2.857" ry="2.667" transform="matrix(0 1 1 0 0 0)" fill="#7CB668"/>
    <rect width="30" height="16" x="-45" y="9" rx="2.857" ry="2.667" transform="rotate(-90)" fill="#AF3A03"/>
    <path d="M29.002 23.407a2.865 2.52 0 0 1 .383-1.186l5.567-8.48 5.566-8.48a2.865 2.52 0 0 1 4.963 0l5.566 8.48 5.57 8.48A2.865 2.52 0 0 1 54.136 26h-22.27a2.865 2.52 0 0 1-2.864-2.593z" opacity=".2"/>
    <path d="M29.002 22.407a2.865 2.52 0 0 1 .383-1.186l5.567-8.48 5.566-8.48a2.865 2.52 0 0 1 4.963 0l5.566 8.48 5.57 8.48A2.865 2.52 0 0 1 54.136 25h-22.27a2.865 2.52 0 0 1-2.864-2.593z" fill="#B7BB25"/>
    <path d="M3.002 39.593a2.865 2.52 0 0 0 .383 1.186l5.567 8.48 5.566 8.48a2.865 2.52 0 0 0 4.963 0l5.566-8.48 5.57-8.48A2.865 2.52 0 0 0 28.136 37H5.866a2.865 2.52 0 0 0-2.864 2.593z" fill="#FA4934"/>
    <path d="M11.67 15C10.191 15 9 16.273 9 17.855v1c0-1.582 1.19-2.855 2.668-2.855h10.664c1.478 0 2.668 1.273 2.668 2.855v-1c0-1.582-1.19-2.855-2.668-2.855z" opacity=".1" fill="#F9F5D7"/>
    <path d="M42.865 3.004a2.865 2.52 0 0 0-2.344 1.258l-5.57 8.48-5.567 8.48a2.865 2.52 0 0 0-.383 1.184 2.865 2.52 0 0 0 .059.573 2.865 2.52 0 0 1 .324-.756l5.566-8.48 5.57-8.481a2.865 2.52 0 0 1 2.345-1.258 2.865 2.52 0 0 1 2.617 1.258l5.566 8.48 5.57 8.48a2.865 2.52 0 0 1 .323.758 2.865 2.52 0 0 0-.323-1.757l-5.57-8.48-5.566-8.481a2.865 2.52 0 0 0-2.617-1.258zM5.868 37a2.865 2.52 0 0 0-2.867 2.594 2.865 2.52 0 0 0 .06.422A2.865 2.52 0 0 1 5.869 38h22.27a2.865 2.52 0 0 1 2.8 2.02 2.865 2.52 0 0 0-2.8-3.02z" opacity=".2" fill="#F9F5D7"/>
    <rect width="32" height="32" x="-63" y="-63" rx="16" ry="16" transform="matrix(0 -1 -1 0 0 0)" opacity=".2"/>
    <rect width="32" height="32" x="-62" y="-63" rx="16" ry="16" transform="matrix(0 -1 -1 0 0 0)" fill="#8F3F71"/>
    <path d="M47 36c-.68 0-1.344.07-1.986.2a9.92 9.92 0 0 0-2.807 1.025h-.002a10 10 0 0 0-.021.013c-.28.155-.554.32-.817.5a10 10 0 0 0-.16.12c-.211.15-.419.304-.617.47a10 10 0 0 0-.28.254c-.143.13-.288.257-.423.395a10 10 0 0 0-.315.345c-.116.13-.236.257-.345.393a10 10 0 0 0-.237.314c-.124.167-.247.334-.361.508a10 10 0 0 0-.162.27 9.969 9.969 0 0 0-.33.572 10 10 0 0 0-.147.305c-.096.2-.19.401-.273.609a10 10 0 0 0-.104.285 9.878 9.878 0 0 0-.217.649 10 10 0 0 0-.085.336 9.91 9.91 0 0 0-.135.6 10 10 0 0 0-.069.442 9.978 9.978 0 0 0-.064.55A10 10 0 0 0 37 46c0 .68.07 1.344.2 1.986a9.92 9.92 0 0 0 1.025 2.807 10 10 0 0 0 .013.023c.155.28.32.554.5.817a10 10 0 0 0 .12.16c.15.211.304.419.47.617a10 10 0 0 0 .254.28c.13.143.257.288.395.423a10 10 0 0 0 .345.315c.13.116.257.236.393.345a10 10 0 0 0 .314.237c.167.124.334.247.508.361a10 10 0 0 0 .27.162c.187.115.376.228.572.33a10 10 0 0 0 .305.147c.2.096.401.19.609.273a10 10 0 0 0 .285.104c.214.078.428.153.649.217a10 10 0 0 0 .336.085c.198.05.397.098.6.135a10 10 0 0 0 .442.069c.182.025.364.048.55.064A10 10 0 0 0 47 56c.68 0 1.344-.07 1.986-.2a9.92 9.92 0 0 0 2.807-1.025h.002a10 10 0 0 0 .021-.013c.28-.155.554-.32.817-.5a10 10 0 0 0 .16-.12c.211-.15.419-.304.617-.47a10 10 0 0 0 .28-.254c.143-.13.288-.257.423-.395a10 10 0 0 0 .315-.345c.116-.13.236-.257.345-.393a10 10 0 0 0 .237-.314c.124-.167.247-.334.361-.508a10 10 0 0 0 .162-.27c.115-.187.228-.376.33-.572a10 10 0 0 0 .147-.305c.096-.2.19-.401.273-.609a10 10 0 0 0 .104-.285c.078-.214.153-.428.217-.649a10 10 0 0 0 .085-.336 9.91 9.91 0 0 0 .135-.6 10 10 0 0 0 .069-.442c.025-.182.048-.364.064-.55A10 10 0 0 0 57 46c0-.68-.07-1.344-.2-1.986a9.92 9.92 0 0 0-1.025-2.807v-.002a10 10 0 0 0-.013-.021c-.155-.28-.32-.554-.5-.817a10 10 0 0 0-.12-.16 10.04 10.04 0 0 0-.47-.617 10 10 0 0 0-.254-.28c-.13-.143-.257-.288-.395-.423a10 10 0 0 0-.345-.315c-.13-.116-.257-.236-.393-.345a10 10 0 0 0-.314-.237 10.006 10.006 0 0 0-.508-.361 10 10 0 0 0-.27-.162 9.969 9.969 0 0 0-.572-.33 10 10 0 0 0-.305-.147c-.2-.096-.401-.19-.609-.273a10 10 0 0 0-.285-.104 9.878 9.878 0 0 0-.649-.217 10 10 0 0 0-.336-.085 9.91 9.91 0 0 0-.6-.135 10 10 0 0 0-.442-.069 9.978 9.978 0 0 0-.55-.064A10 10 0 0 0 47 36zm-.654 2.031a6.091 6.091 0 0 1-.184.424c-.847 1.85-.893 4.018-.107 5.176.142.21.27.41.27.435 0 .026-.154.053-.327.053-.407 0-.791-.248-1.578-.871-.35-.277-.804-.508-.98-.543-.277-.055-.352-.032-.71.326-.332.333-.435.514-.435.819 0 1.155 1.372 2.07 3.922 2.61 3.462.735 4.314 1.393 4.41 3.214.086 1.644-.532 2.995-1.873 4.12A8 8 0 0 1 47 54a8 8 0 0 1-1.08-.082c-.158-.927-.562-1.798-1.12-2.338-.193-.187-.735-.584-1.198-.871-.464-.287-.931-.62-1.036-.762-.172-.236-.185-.38-.052-.816.241-.796.528-1.241 1.088-1.744.293-.264.587-.483.652-.489.065-.005-.372-.138-1.031-.273a18.62 18.62 0 0 1-2.127-.6 9.774 9.774 0 0 1-2.022-1.05 8 8 0 0 1 7.272-6.944zm7.623 4.059A8 8 0 0 1 55 46a8 8 0 0 1-.441 2.596 12.746 12.746 0 0 0-1.1-1.319c-1.401-1.478-1.622-2.247-1.035-3.427.24-.485 1.133-1.463 1.545-1.76z" fill="#F9F5D7"/>
</svg>
