<svg xmlns="http://www.w3.org/2000/svg" width="64" height="64">
    <path d="M32 5A28 28 0 0 0 4 33a28 28 0 0 0 28 28 28 28 0 0 0 28-28A28 28 0 0 0 32 5z" opacity=".2"/>
    <path d="M32 4A28 28 0 0 0 4 32a28 28 0 0 0 28 28 28 28 0 0 0 28-28A28 28 0 0 0 32 4z" fill="#CB241D"/>
    <path d="M30 34v25.815A20 30.588 0 0 0 32 60a20 30.588 0 0 0 2-.152V34z" fill="#F9BD2E"/>
    <circle cx="32" cy="33" r="5" opacity=".2"/>
    <circle cx="32" cy="32" r="5" fill="#F9BD2E"/>
    <path d="M41.941 15.117l-1.793 3.586A16 16 0 0 1 49 33a16 16 0 0 1-8.848 14.305l1.782 3.562A20 20 0 0 0 53 33a20 20 0 0 0-11.059-17.883zm-19.875.016A20 20 0 0 0 11 33a20 20 0 0 0 11.059 17.883l1.793-3.586A16 16 0 0 1 15 33a16 16 0 0 1 8.848-14.305zm16.297 7.137l-1.789 3.582A8 8 0 0 1 41 33a8 8 0 0 1-4.422 7.153l1.781 3.566A12 12 0 0 0 45 33a12 12 0 0 0-6.637-10.73zm-12.722.011A12 12 0 0 0 19 33.001a12 12 0 0 0 6.637 10.73l1.789-3.582A8 8 0 0 1 23 33a8 8 0 0 1 4.422-7.152z" opacity=".2"/>
    <path d="M41.941 14.117l-1.793 3.586A16 16 0 0 1 49 32a16 16 0 0 1-8.848 14.305l1.782 3.562A20 20 0 0 0 53 32a20 20 0 0 0-11.059-17.883zm-19.875.016A20 20 0 0 0 11 32a20 20 0 0 0 11.059 17.883l1.793-3.586A16 16 0 0 1 15 32a16 16 0 0 1 8.848-14.305l-1.782-3.562zm16.297 7.137l-1.789 3.582A8 8 0 0 1 41 32a8 8 0 0 1-4.422 7.152l1.781 3.567A12 12 0 0 0 45 32a12 12 0 0 0-6.637-10.73zm-12.722.011A12 12 0 0 0 19 32a12 12 0 0 0 6.637 10.73l1.789-3.582A8 8 0 0 1 23 32a8 8 0 0 1 4.422-7.152L25.64 21.28z" fill="#F9BD2E"/>
    <path d="M32 4A28 28 0 0 0 4 32a28 28 0 0 0 .021.406A28 28 0 0 1 32 5a28 28 0 0 1 27.979 27.578A28 28 0 0 0 60 32 28 28 0 0 0 32 4z" opacity=".2" fill="#F9F5D7"/>
</svg>
