<svg xmlns="http://www.w3.org/2000/svg" width="64" height="64">
    <g transform="translate(0 -1058.52)">
        <path d="M32.002 1067.167l-23 11.5v25.707l20 10v.144h.289l2.71 1.356 2.712-1.356h.289v-.144l20-10v-25.707zm-3 8.207v11.848l-10.774-6.461zm6 0l10.77 5.387-10.77 6.46zm-20 10.445l10.77 6.461-10.77 5.387zm34 0v11.848l-10.77-5.387zm-20 11.555v10.293l-10.293-5.148zm6 0l10.293 5.145-10.293 5.148z" opacity=".2"/>
        <path d="M32.001 1069.52v22M12.002 1101.52l20-10 20 10" fill="none" stroke="#3A393A" stroke-width="6"/>
        <path d="M12.002 1079.52l20 12 20-12M32.001 1113.52v-22" fill="none" stroke="#83A498" stroke-width="6"/>
        <path d="M12.002 1079.52l20-10 20 10v22l-20 10-20-10z" fill="none" stroke="#665C54" stroke-width="6"/>
        <path d="M32.002 1063.52a7 7 0 1 0 0 14 7 7 0 0 0 0-14zm19.836 10.004a7 7 0 1 0 3.664 13.059 7 7 0 0 0-3.664-13.06zm-40.168 0a7 7 0 0 0-5.73 3.496 7 7 0 1 0 12.125 7 7 7 0 0 0-6.395-10.492zm20.332 11.996a7 7 0 1 0 0 14 7 7 0 0 0 0-14zm-20.164 10.004a7 7 0 1 0 3.664 13.059 7 7 0 0 0-3.664-13.06zm39.832 0a7 7 0 1 0 6.395 10.492 7 7 0 0 0-6.395-10.492zm-19.668 9.996a7 7 0 1 0 0 14 7 7 0 0 0 0-14z" opacity=".2"/>
        <circle cx="32.001" cy="1069.52" r="7" fill="#B7BB25"/>
        <circle cx="32.001" cy="1111.52" r="7" fill="#B7BB25"/>
        <circle cx="960.893" cy="494.725" r="7" transform="rotate(60)" fill="#B7BB25"/>
        <circle cx="959.945" cy="540.366" r="7" transform="rotate(60)" fill="#B7BB25"/>
        <circle cx="927.944" cy="-595.795" r="7" transform="rotate(120)" fill="#B7BB25"/>
        <circle cx="928.891" cy="-550.154" r="7" transform="rotate(120)" fill="#B7BB25"/>
        <circle cx="32.001" cy="1091.52" r="7" fill="#B7BB25"/>
        <path d="M32.002 1062.52a7 7 0 0 0-7 7c.001.128.023.255.031.383a6.998 6.998 0 0 1 6.969-6.383 6.997 6.997 0 0 1 6.969 6.402c.008-.134.03-.268.031-.402a7 7 0 0 0-7-7zm-19.836 9.998v.002c-.165 0-.33-.001-.496.01a7 7 0 0 0-5.73 3.492c-.694 1.205-.985 2.585-.891 3.964a6.982 6.982 0 0 1 .89-2.964 7 7 0 0 1 5.73-3.493c.166-.01.332-.01.497-.01v-.001a7 7 0 0 1 3.336.937 6.985 6.985 0 0 1 3.457 5.551 6.985 6.985 0 0 0-3.457-6.55 7 7 0 0 0-3.336-.938zm39.672.002a7.002 7.002 0 0 0-3.336.933 6.986 6.986 0 0 0-3.457 6.547 6.986 6.986 0 0 1 3.457-5.547 7.002 7.002 0 0 1 3.336-.933 7 7 0 0 1 6.226 3.496c.529.915.819 1.935.897 2.976a6.98 6.98 0 0 0-.897-3.976 7 7 0 0 0-6.226-3.496zm-19.836 11.996a7 7 0 0 0-7 7c.001.128.023.255.031.383a6.998 6.998 0 0 1 6.969-6.383 6.997 6.997 0 0 1 6.969 6.402c.008-.134.03-.268.031-.402a7 7 0 0 0-7-7zm-20.164 10a7.003 7.003 0 0 0-3.336.933 6.986 6.986 0 0 0-3.457 6.547 6.986 6.986 0 0 1 3.457-5.547 7.003 7.003 0 0 1 3.336-.933 7 7 0 0 1 6.226 3.496c.529.916.819 1.935.897 2.976a6.98 6.98 0 0 0-.897-3.976 7 7 0 0 0-6.226-3.496zm40.328 0c-.165 0-.33-.001-.496.01a7 7 0 0 0-5.73 3.492 6.983 6.983 0 0 0-.891 3.967 6.986 6.986 0 0 1 .89-2.967 7 7 0 0 1 5.73-3.492c.166-.011.332-.01.497-.01v.002a7 7 0 0 1 3.336.937 6.986 6.986 0 0 1 3.457 5.551 6.985 6.985 0 0 0-3.457-6.55 7 7 0 0 0-3.336-.938v-.002zm-20.164 9.996a7 7 0 0 0-7 7c.001.128.023.255.031.383a6.998 6.998 0 0 1 6.969-6.383 6.997 6.997 0 0 1 6.969 6.402c.008-.134.03-.267.031-.402a7 7 0 0 0-7-7z" opacity=".2" fill="#F9F5D7"/>
    </g>
</svg>
