<svg xmlns="http://www.w3.org/2000/svg" width="64" height="64">
    <path d="M23.982 55.42c-.194-2.307 2.025-4.489 5.126-4.608a7.993 7.993 0 0 1 1.738.217c.724.162 1.735.19 2.343.24.213-.14.203-.274-.077-.978-.831-2.092-2.541-4.425-4.715-5.07-.46-.136-1.154-.218-1.827-.233-4.503.115-7.785 4.433-9.837 7.658-.656 1.025-1.424 2.18-1.708 2.567-1.446 1.969-3.134 3.094-4.83 3.587-.64.186-2.179.263-2.818.14-3.397-.652-5.667-3.894-5.347-7.366.027-.293.07-.531.095-.529.025.002.16.157.3.345.584.777 1.856 1.25 2.853 1.487a5.293 5.293 0 0 0 2.16.081c1.88-.332 3.08-1.123 5.042-3.783 2.97-4.029 5.089-7.72 9.259-16.813 2.751-5.999 4.256-9.002 5.903-11.781 2.123-3.583 4.361-6.466 6.46-8.322 3.21-2.837 7.012-4.553 11.381-5.137 1.317-.176 3.594-.16 4.838.035 4.464.696 7.897 2.939 10.01 6.539.682 1.16 1.268 2.808 1.54 4.321.172.965.172 3.117 0 4.087-.142.796-.502 2.098-.746 2.698l-.167.412-.008-.742c-.033-3.128-2.067-6.538-5.111-7.39-.597-.166-.783-.186-1.727-.183-.926.002-1.144.026-1.74.188-3.414.927-6.695 5.348-7.815 9.834-.822 3.292-.693 6.92.385 10.813 1.013 3.656 5.864 8.616 6.857 9.353 3.524 2.613 5.901 3.5 8.596 5.373.93.643 1.19.966 1.273 1.586.103.764-.362 1.478-1.536 2.36-.325.243-.938.72-1.362 1.061-1.41 1.13-1.58 1.433-2.528 1.438-.538.002-.663-.021-1.004-.191-1.09-.543-1.54-1.302-1.012-2.39.49-1.008 1.6-1.472 2.651-1.108.238.082.499.254.76.5.426.4.238-.063.361-.296.133-.252.158-1.134.047-1.71-.388-2.027-2.17-2.856-4.172-2.746-1.167.065-2.277.598-3.203 1.538-1.96 2.852-4.67 6.428-7.668 6.388-.517.058-1.025.012-1.425-.145a2.556 2.556 0 0 1-.87-.6c-.746-.746-.664-1.543-.593-2.502.08-1.088.753-1.908 1.396-2.518.934-.768 1.883-1.083 2.913-1.19 1.292-.124 2.492-.228 3.664.083.65.212.866.216.94.018.11-.293-.502-2.71-1.01-3.42-.84-1.178-1.676-1.657-3.07-2.068-.64-.188-2.149-.258-2.91-.135-4.253.804-5.673 3.971-7.358 6.95-1.948 3.41-3.733 4.71-5.563 5.344-.267.093-.63.16-1.002.194-2.454.232-3.951-1.32-4.132-3.48z" opacity=".2"/>
    <path d="M23.982 54.42c-.194-2.307 2.025-4.489 5.126-4.608a7.993 7.993 0 0 1 1.738.217c.724.162 1.735.19 2.343.24.213-.14.203-.274-.077-.978-.831-2.092-2.541-4.425-4.715-5.07-.46-.136-1.154-.218-1.827-.233-4.503.115-7.785 4.433-9.837 7.658-.656 1.025-1.424 2.18-1.708 2.567-1.446 1.969-3.134 3.094-4.83 3.587-.64.186-2.179.263-2.818.14-3.397-.652-5.667-3.894-5.347-7.366.027-.293.07-.531.095-.529.025.002.16.157.3.345.584.777 1.856 1.25 2.853 1.487a5.293 5.293 0 0 0 2.16.081c1.88-.332 3.08-1.123 5.042-3.783 2.97-4.029 5.089-7.72 9.259-16.813 2.751-5.999 4.256-9.002 5.903-11.781 2.123-3.583 4.361-6.466 6.46-8.322 3.21-2.837 7.012-4.553 11.381-5.137 1.317-.176 3.594-.16 4.838.035 4.464.696 7.897 2.939 10.01 6.539.682 1.16 1.268 2.808 1.54 4.321.172.965.172 3.117 0 4.087-.142.796-.502 2.098-.746 2.698l-.167.412-.008-.742c-.033-3.128-2.067-6.538-5.111-7.39-.597-.166-.783-.186-1.727-.183-.926.002-1.144.026-1.74.188-3.414.927-6.695 5.348-7.815 9.834-.822 3.292-.693 6.92.385 10.813 1.013 3.656 5.864 8.616 6.857 9.353 3.524 2.613 5.901 3.5 8.596 5.373.93.643 1.19.966 1.273 1.586.103.764-.362 1.478-1.536 2.36-.325.243-.938.72-1.362 1.061-1.41 1.13-1.58 1.433-2.528 1.438-.538.002-.663-.021-1.004-.191-1.09-.543-1.54-1.302-1.012-2.39.49-1.008 1.6-1.472 2.651-1.108.238.082.499.254.76.5.426.4.238-.063.361-.296.133-.252.158-1.134.047-1.71-.388-2.027-2.17-2.856-4.172-2.746-1.167.065-2.277.598-3.203 1.538-1.96 2.852-4.67 6.428-7.668 6.388-.517.058-1.025.012-1.425-.145a2.556 2.556 0 0 1-.87-.6c-.746-.746-.664-1.543-.593-2.502.08-1.088.753-1.908 1.396-2.518.934-.768 1.883-1.083 2.913-1.19 1.292-.124 2.492-.228 3.664.083.65.212.866.216.94.018.11-.293-.502-2.71-1.01-3.42-.84-1.178-1.676-1.657-3.07-2.068-.64-.188-2.149-.258-2.91-.135-4.253.804-5.673 3.971-7.358 6.95-1.948 3.41-3.733 4.71-5.563 5.344-.267.093-.63.16-1.002.194-2.454.232-3.951-1.32-4.132-3.48z" fill="#8F3F71"/>
    <path d="M47.93 6c-.89-.006-1.79.035-2.448.123-4.369.584-8.169 2.3-11.378 5.137-2.1 1.855-4.338 4.737-6.461 8.32-1.648 2.78-3.153 5.783-5.905 11.781-4.17 9.093-6.286 12.786-9.258 16.815-1.96 2.66-3.162 3.45-5.04 3.783a5.298 5.298 0 0 1-2.163-.082c-.996-.238-2.268-.71-2.851-1.486-.14-.188-.276-.344-.301-.346-.025-.002-.069.236-.096.53a7.072 7.072 0 0 0-.006 1.144c.004-.049.002-.096.006-.145.027-.293.071-.531.096-.53.025.003.16.16.3.347.584.777 1.856 1.248 2.852 1.486a5.298 5.298 0 0 0 2.162.082c1.879-.332 3.08-1.123 5.041-3.783 2.972-4.03 5.088-7.722 9.258-16.815 2.752-5.998 4.257-9.001 5.905-11.78 2.123-3.584 4.361-6.466 6.46-8.321 3.21-2.837 7.01-4.553 11.38-5.137 1.316-.176 3.593-.161 4.837.033 4.464.697 7.898 2.94 10.01 6.54.682 1.16 1.27 2.808 1.541 4.322.067.376.098.944.113 1.54.024-.934-.007-1.951-.113-2.54-.271-1.514-.86-3.161-1.54-4.323-2.114-3.6-5.547-5.842-10.01-6.539-.623-.097-1.502-.15-2.391-.156zm-3.895 24.719c-.073 2.221.228 4.567.906 7.015 1.013 3.657 5.865 8.615 6.858 9.352 3.523 2.613 5.9 3.501 8.596 5.375.76.525 1.062.844 1.197 1.28a1.5 1.5 0 0 0 .076-.696c-.084-.62-.344-.942-1.273-1.584-2.695-1.874-5.073-2.762-8.596-5.375-.993-.737-5.845-5.695-6.858-9.352-.577-2.085-.873-4.093-.906-6.015zM29.107 49.812c-3.1.12-5.318 2.3-5.125 4.608.006.067.024.128.032.193.312-1.986 2.358-3.696 5.093-3.8.543-.002 1.125.08 1.739.216.724.163 1.736.19 2.343.24.214-.141.202-.274-.078-.978l-.011-.027c-.614-.048-1.56-.079-2.254-.235-.614-.137-1.196-.218-1.739-.217zm17.194 1.002c-.608.003-1.231.06-1.877.122-1.03.106-1.98.42-2.914 1.189-.644.61-1.316 1.43-1.397 2.518-.033.445-.06.853-.013 1.24.005-.081.007-.157.013-.24.08-1.088.753-1.909 1.397-2.518.933-.768 1.884-1.083 2.914-1.19 1.291-.124 2.49-.23 3.662.083.65.21.867.217.941.02.037-.098-.024-.46-.117-.886-.129.056-.365.015-.824-.134-.586-.156-1.177-.206-1.785-.204zm11.785 3.223c-.02.165-.048.307-.088.383-.123.233.064.697-.361.297-.262-.246-.523-.418-.76-.5-1.052-.365-2.161.098-2.65 1.107-.248.511-.274.947-.125 1.324a2.43 2.43 0 0 1 .125-.324c.489-1.009 1.598-1.472 2.65-1.107.237.082.498.254.76.5.425.4.238-.064.361-.297.11-.209.142-.842.088-1.383z" fill="#F9F5D7" opacity=".1"/>
</svg>
