<svg xmlns="http://www.w3.org/2000/svg" width="64" height="64">
    <path d="M49.018 3.55a2.1 2.1 0 0 0-.703.114L24.496 9.117a2.1 2.1 0 0 0-1.424 1.077L9.66 28.87a2.1 2.1 0 0 0-.523 2.102 2.1 2.1 0 0 0 .29.61l12.39 26.43.002.009a1.323 1.323 0 0 0 .017.055 2.1 2.1 0 0 0 .183.415l.055.085a2.044 2.044 0 0 0 .15.208l.02.024a2.105 2.105 0 0 0 .158.165 2 2 0 0 0 .189.155l.005.003.006.006c.053.038.108.073.164.106l.006.006.016.008c.05.03.103.057.156.082l.02.011.062.025.082.036a2.1 2.1 0 0 0 1.094.11l28.115.03c1.57.19 2.78-1.359 2.215-2.837l-3.334-13.333a2.1 2.1 0 0 0-2.827-1.824l-.02.006-14.14 3.918-5.66-10.136 4.052-12.656 18.567-1.493 1.906-2.387-1.988-13.154a2.1 2.1 0 0 0-2.07-2.105z" fill="#377375" fill-rule="evenodd"/>
    <path d="M10.6 31.345l21.315-8.974L49.605 6.15m3.797 52.836l-19.244-10.73m-10.614 10.7l26.32-15.186m-26.32 15.186l10.614-10.7m-10.614 10.7l3.452-22.262M10.6 31.344l16.396 5.35m4.919-14.323l-4.919 14.323 7.162 11.563 15.706-4.487 3.538 15.216-29.858-.03L10.6 31.345l14.066-19.587zm-7.249-10.613L49.605 6.15l2.07 14.582-19.76 1.64" opacity=".2" fill="none" stroke="#151819" stroke-width="4" stroke-linecap="round" stroke-linejoin="bevel"/>
    <path d="M10.6 30.345l21.315-8.974L49.605 5.15m3.797 52.836l-19.244-10.73m-10.614 10.7l26.32-15.186m-26.32 15.186l10.614-10.7m-10.614 10.7l3.452-22.262M10.6 30.344l16.396 5.35m4.919-14.323l-4.919 14.323 7.162 11.563 15.706-4.487 3.538 15.216-29.858-.03L10.6 30.345l14.066-19.587zm-7.249-10.613L49.605 5.15l2.07 14.582-19.76 1.64" fill="none" stroke="#48B9C7" stroke-width="4" stroke-linecap="round" stroke-linejoin="bevel"/>
    <path d="M49.652 3.13a2 2 0 0 0-.687.114L24.227 8.807a2 2 0 0 0-1.35 1.013L9.162 28.92a2 2 0 0 0-.58 1.264 2 2 0 0 0-.006.173 2 2 0 0 0 .006.143 2 2 0 0 0 .004.043 2 2 0 0 0 .055.305 2 2 0 0 1 .521-.928l13.715-19.1a2 2 0 0 1 1.35-1.013l24.738-5.563a2 2 0 0 1 .687-.113 2 2 0 0 1 1.971 2.014l1.912 13.457.121-.15-2.033-14.307a2 2 0 0 0-1.97-2.014zm-6.931 6.618l-1.446.324-9.011 8.264-3.694-5.406-.591.133 4.285 6.273L42.72 9.748zm6.535 8.178l-10.483.869-1.199 1.1 11.822-.98-.14-.99zm-20.904 2.773l-10.957 4.615-1.03 1.434 12.518-5.271-.531-.778zm.218 5.25l-.4.17-2.426 7.063-8.086-2.637-1.338.562 9.424 3.075 2.826-8.233zm-14.197 8.73l8.2 17.493 2.187-14.104-.149-.048-2.039 13.152-7.646-16.313-.553-.18zm15.043 1.126l-.22.642 5.866 9.471 14.106-4.03h.002a2 2 0 0 1 2.71 1.721l3.411 14.674a2 2 0 0 1 .066.217 2 2 0 0 0-.066-1.217l-3.41-14.674a2 2 0 0 0-2.711-1.72h-.002l-14.105 4.029-5.647-9.113zm1.83 11.549l-4.598 4.632-.183 1.186 5.162-5.203-.38-.615zm11.879 2.613l-.88.508 8.185 4.564-.268-1.148-7.037-3.924zm-10.396 5.998l-1.731.998 14.695.016-1.797-1.002-11.167-.012z" opacity=".2" fill="#F9F5D7" fill-rule="evenodd"/>
    <path d="M49 3a4 4 0 0 0-4 4 4 4 0 0 0 4 4 4 4 0 0 0 4-4 4 4 0 0 0-4-4zM25 7a4 4 0 0 0-4 4 4 4 0 0 0 4 4 4 4 0 0 0 4-4 4 4 0 0 0-4-4zm26 10a4 4 0 0 0-4 4 4 4 0 0 0 4 4 4 4 0 0 0 4-4 4 4 0 0 0-4-4zm-18 2a4 4 0 0 0-4 4 4 4 0 0 0 4 4 4 4 0 0 0 4-4 4 4 0 0 0-4-4zm-22 8a4 4 0 0 0-4 4 4 4 0 0 0 4 4 4 4 0 0 0 4-4 4 4 0 0 0-4-4zm16 6a4 4 0 0 0-4 4 4 4 0 0 0 4 4 4 4 0 0 0 4-4 4 4 0 0 0-4-4zm22 8a4 4 0 0 0-4 4 4 4 0 0 0 4 4 4 4 0 0 0 4-4 4 4 0 0 0-4-4zm-12 4a4 4 0 0 0-4 4 4 4 0 0 0 4 4 4 4 0 0 0 4-4 4 4 0 0 0-4-4zM23 55a4 4 0 0 0-4 4 4 4 0 0 0 4 4 4 4 0 0 0 4-4 4 4 0 0 0-4-4zm30 0a4 4 0 0 0-4 4 4 4 0 0 0 4 4 4 4 0 0 0 4-4 4 4 0 0 0-4-4z" opacity=".1"/>
    <path d="M49 2a4 4 0 0 0-4 4 4 4 0 0 0 4 4 4 4 0 0 0 4-4 4 4 0 0 0-4-4zM25 6a4 4 0 0 0-4 4 4 4 0 0 0 4 4 4 4 0 0 0 4-4 4 4 0 0 0-4-4zm26 10a4 4 0 0 0-4 4 4 4 0 0 0 4 4 4 4 0 0 0 4-4 4 4 0 0 0-4-4zm-18 2a4 4 0 0 0-4 4 4 4 0 0 0 4 4 4 4 0 0 0 4-4 4 4 0 0 0-4-4zm-22 8a4 4 0 0 0-4 4 4 4 0 0 0 4 4 4 4 0 0 0 4-4 4 4 0 0 0-4-4zm16 6a4 4 0 0 0-4 4 4 4 0 0 0 4 4 4 4 0 0 0 4-4 4 4 0 0 0-4-4zm22 8a4 4 0 0 0-4 4 4 4 0 0 0 4 4 4 4 0 0 0 4-4 4 4 0 0 0-4-4zm-12 4a4 4 0 0 0-4 4 4 4 0 0 0 4 4 4 4 0 0 0 4-4 4 4 0 0 0-4-4zM23 54a4 4 0 0 0-4 4 4 4 0 0 0 4 4 4 4 0 0 0 4-4 4 4 0 0 0-4-4zm30 0a4 4 0 0 0-4 4 4 4 0 0 0 4 4 4 4 0 0 0 4-4 4 4 0 0 0-4-4z" fill="#FA4934"/>
</svg>
