<svg xmlns="http://www.w3.org/2000/svg" width="64" height="64" version="1">
    <rect width="56" height="56" x="4" y="5" rx="28" ry="28" opacity=".2"/>
    <rect width="56" height="56" x="4" y="4" rx="28" ry="28" fill="#48B9C7"/>
    <path d="M37.092 49.716c-6.26-1.337-12.403-6.606-14.44-12.734-.525-1.58-.709-4.167-.395-5.565 1.131-5.05 6.874-6.868 14.16-4.48 2.705.886 6.67 3.001 6.67 3.558 0 .283-.5.548-1.984 1.05l-1.074.365-1.488-.73c-5.755-2.822-10.911-2.085-12.066 1.727-.504 1.663-.218 3.456.911 5.717 2.287 4.58 7.755 7.857 12.368 7.64 1.305-.06 1.593-.137 2.906-.772 1.856-.898 3.696-2.628 4.488-4.218 2.069-4.158.88-8.723-3.426-13.157-5.007-5.158-12.562-8.572-18.943-8.56-3.067.004-4.839.603-6.441 2.175-1.573 1.542-2.181 3.44-2.008 6.26.378 6.163 3.985 12.627 9.954 17.839 1.127.983 2.049 1.891 2.049 2.017 0 .428-.607.231-2.082-.674-5.088-3.12-9.124-7.461-11.791-12.68-2.109-4.127-2.896-8.126-2.229-11.328.509-2.443 1.73-4.302 3.645-5.555 4.188-2.598 11.093-1.523 14.826-.445 7.971 2.363 15.087 7.217 18.827 12.75 3.868 5.422 2.876 12.548-.77 16.304-1.822 1.785-3.022 2.575-4.883 3.212-1.851.634-4.606.75-6.784.284z" opacity=".1"/>
    <path d="M37.092 48.716c-6.26-1.337-12.403-6.606-14.44-12.734-.525-1.58-.709-4.167-.395-5.565 1.131-5.05 6.874-6.868 14.16-4.48 2.705.886 6.67 3.001 6.67 3.558 0 .283-.5.548-1.984 1.05l-1.074.365-1.488-.73c-5.755-2.822-10.911-2.085-12.066 1.727-.504 1.663-.218 3.456.911 5.717 2.287 4.58 7.755 7.857 12.368 7.64 1.305-.06 1.593-.137 2.906-.772 1.856-.898 3.696-2.628 4.488-4.218 2.069-4.158.88-8.723-3.426-13.157-5.007-5.158-12.562-8.572-18.943-8.56-3.067.004-4.839.603-6.441 2.175-1.573 1.542-2.181 3.44-2.008 6.26.378 6.163 3.985 12.627 9.954 17.839 1.127.983 2.049 1.891 2.049 2.017 0 .428-.607.231-2.082-.674-5.088-3.12-9.124-7.461-11.791-12.68-2.109-4.127-2.896-8.126-2.229-11.328.509-2.443 1.73-4.302 3.645-5.555 4.188-2.598 11.093-1.523 14.826-.445 7.971 2.363 15.087 7.217 18.827 12.75 3.868 5.422 2.876 12.548-.77 16.304-1.822 1.785-3.022 2.575-4.883 3.212-1.851.634-4.606.75-6.784.284z" fill="#3A393A"/>
    <path d="M32 4C16.488 4 4 16.488 4 32c0 .113.011.224.018.336C4.369 17.134 16.71 5 32 5c15.29 0 27.63 12.134 27.982 27.336.007-.112.018-.223.018-.336C60 16.488 47.512 4 32 4z" opacity=".2" fill="#F9F5D7"/>
</svg>
