<svg xmlns="http://www.w3.org/2000/svg" width="64" height="64" version="1">
    <path d="M11 33v23.364C11 57.824 12.17 59 13.625 59h36.75A2.625 2.625 0 0 0 53 56.364V33z" opacity=".2"/>
    <path d="M24.75 6.072a13.84 13.84 0 0 0-13.842 13.842 13.84 13.84 0 0 0 .006.184A11.205 11.205 0 0 0 3 30.795a11.205 11.205 0 0 0 10.545 11.172V42h36.91v-.023A11.205 11.205 0 0 0 61 30.795a11.205 11.205 0 0 0-8.49-10.856 13.84 13.84 0 0 0-13.26-9.912 13.84 13.84 0 0 0-4.197.668A13.84 13.84 0 0 0 24.75 6.072z" opacity=".2"/>
    <circle cx="14.205" cy="29.795" r="11.205" fill="#F9F5D7"/>
    <circle cx="24.75" cy="18.914" r="13.841" fill="#F9F5D7"/>
    <circle cx="39.25" cy="22.868" r="13.841" fill="#F9F5D7"/>
    <circle cx="49.795" cy="29.795" r="11.205" fill="#F9F5D7"/>
    <path fill="#F9F5D7" d="M13.54 25.18h36.909v15.818H13.54z"/>
    <path fill="#066678" d="M8 29h48v5H8z"/>
    <rect width="5" height="5" x="8" y="22" rx="1.875" ry="1.875" fill="#7CB668"/>
    <path d="M11 32v23.364C11 56.824 12.17 58 13.625 58h36.75A2.625 2.625 0 0 0 53 55.364V32z" fill="#066678"/>
    <path opacity=".5" fill="#F9F5D7" d="M16 50h28v3H16zM16 43h23v3H16zM16 36h32v3H16z"/>
    <path d="M24.75 5.072a13.84 13.84 0 0 0-13.842 13.842 13.84 13.84 0 0 0 .006.184A11.205 11.205 0 0 0 3 29.795a11.205 11.205 0 0 0 .021.42 11.205 11.205 0 0 1 7.893-10.117 13.84 13.84 0 0 1-.006-.184A13.84 13.84 0 0 1 24.75 6.072a13.84 13.84 0 0 1 10.303 4.623 13.84 13.84 0 0 1 4.197-.668 13.84 13.84 0 0 1 13.26 9.912 11.205 11.205 0 0 1 8.469 10.452 11.205 11.205 0 0 0 .021-.596 11.205 11.205 0 0 0-8.49-10.856 13.84 13.84 0 0 0-13.26-9.912 13.84 13.84 0 0 0-4.197.668A13.84 13.84 0 0 0 24.75 5.072z" opacity=".2" fill="#F9F5D7"/>
</svg>
