<svg xmlns="http://www.w3.org/2000/svg" width="64" height="64">
    <circle cx="32" cy="33" r="28" opacity=".2"/>
    <circle cx="32" cy="32" r="28" fill="#066678"/>
    <path d="M38.738 11.942c-.82-.04-5.398 1.32-6.758 3.02-3.796.262-18.267 10.014-27.968 16.812A28 28 0 0 0 4 32a28 28 0 0 0 .14 2.562c3.841-1.424 7.796-2.72 9.559-2.702.4 0 .701.058.821.218.8.92-2.56 5.424-6.02 10.524-.486.708-.955 1.418-1.434 2.132a28 28 0 0 0 .97 1.696c4.494-5.606 9.556-11.79 11.066-12.008.1-.02.178 0 .238.02.276.332-4.407 7.868-8.969 15.312a28 28 0 0 0 1.805 2c2.052-2.826 4.179-5.778 6.285-8.676 5.199-7.18 9.799-13.916 12.059-13.976.06 0 .118.02.198.02 6.534.036 12.894 15.436 16.582 26.32a28 28 0 0 0 1.802-1.29c-1.856-12.246-5.836-30.308-13.724-35.574.9-.6.982-3.656.982-3.656z" fill="#F9F5D7"/>
    <path d="M32 4A28 28 0 0 0 4 32a28 28 0 0 0 .021.586A28 28 0 0 1 32 5a28 28 0 0 1 27.979 27.414A28 28 0 0 0 60 32 28 28 0 0 0 32 4z" opacity=".1" fill="#F9F5D7"/>
</svg>
