<svg xmlns="http://www.w3.org/2000/svg" width="64" height="64">
    <g transform="translate(0 -988.362)">
        <path d="M47.501 1026.316c1.422 9.935-5.68 23.669-8.032 22.98-.8.936-15.524-8.094-17.238-17.855-.16-.91-4.25-7.288-2.375-5.296 2.665 2.832-2.754-5.598-1.548-8.193 1.78-3.826 11.658-4.387 16.284-4.387 4.222 0 9.171-1.918 11.291.495 1.778 2.024 1.003 7.956 1.618 12.256z" opacity=".2"/>
        <path d="M47.501 1025.316c1.422 9.935-5.68 23.669-8.032 22.98-.8.936-15.524-8.094-17.238-17.855-.16-.91-4.25-7.288-2.375-5.296 2.665 2.832-2.754-5.598-1.548-8.193 1.78-3.826 11.658-4.387 16.284-4.387 4.222 0 9.171-1.918 11.291.495 1.778 2.024 1.003 7.956 1.618 12.256z" fill="#E6D3A3"/>
        <path d="M35 1040.094c0-.277.6-.623 2.472-1.418.862-.366 1.158-.401 1.357-.16.14.168.208.365.15.434-.097.116-3.651 1.412-3.877 1.412-.056 0-.102-.12-.102-.268zM35.929 1036.739c-1.017-.435-1.3-1.087-.337-.776 1.546.5 1.598.417 1.481-2.39-.072-1.752.003-2.562.224-2.387.183.148.39 1.549.459 3.118.138 3.132.057 3.24-1.827 2.435z" fill="#504945"/>
        <path d="M14.618 1028.043c-.954-.652-1.734-1.236-1.732-1.3.002-.064.497-.518 1.1-1.012 1.044-.854 1.184-1.605 1.182-2.197-.002-.32-3.873-5.665-6.29-8.685-.934-1.169-1.766-2.31-1.847-2.537-.092-.257.025-.639.31-1.01.954-1.246 2.57-3.233 3.462-4.94.885-1.694 1.947-3.086 2.13-2.79.263.428.53.16 2.631-2.651 2.112-2.826 3.843-5.466 4.266-5.466.478 0 .28.475-.628 1.508-1.622 1.731-2.127 4.122-2.13 5.685-.143 2.949 2.256 5.073 4.869 6.274 3.343.788 6.457.435 7.044-2.358.488-2.322-1.154-3.747-3.055-4.318-.465.211-1.81 1.634-2.24 2.99-.149.474-.579.298-.579-.236 0-1.111 1.254-3.945 1.919-5.154.933-1.697 1.952-1.78 2.788-1.612.467.094.822-.198 1.246-.534l.593-.467c2.066 1.52 4.38 2.635 6.585 3.919 2.474 1.758 4.856 2.751 4.882 3.002.016.148.006.156-.022 1.235-.049 1.872-.029 1.962.428 1.962.928 0 1.861-.519 3.1-2.013 2.167-2.616 2.447-2.64 2.447-4.837.156-1.68-2.06-5.282-3.448-3.932-.582.583-1.257 2.636-1.047 3.185.142.37 1.032.624 1.523.435.515-.198.432.211-.15.741-.764.694-1.597.814-2.21.317-.757-.614-.96-3.055-.386-4.622.546-1.487 2.496-3.067 2.906-3.224.46-.178.978.192 2.821 2.614 2.97 4.467 6.21 8.467 9.106 12.734.36.528.71 1.301.778 1.718.112.695-.023.925-1.608 2.741-2.61 2.99-4.367 5.415-4.367 6.028 0 .661 1.351 1.196 2.535 1.379.858.132 1.424.425 1.424.737-1.408 1.92-6.965 9.767-7.634 9.233-.065-.106-.175-1.368-.243-2.804-.513-3.89-.698-9.185-1.152-12.98-.136-.74-.157-.753-1.06-.628-2.218.309-4.948.48-7.128.844-1.761.293-3.302 1.523-4.02 1.138-.734-.394-4.606-1.092-6.905-1.38-6.783-.85-5.67-.706-5.67.128l1.486 15.229s.713 3.23.118 3.23c-3.236-1.234-5.61-3.585-8.128-5.322z" opacity=".2"/>
        <path d="M14.618 1027.043c-.954-.652-1.734-1.236-1.732-1.3.002-.064.497-.518 1.1-1.012 1.044-.854 1.184-1.605 1.182-2.197-.002-.32-3.873-5.665-6.29-8.685-.934-1.169-1.766-2.31-1.847-2.537-.092-.257.025-.639.31-1.01.954-1.246 2.57-3.233 3.462-4.94.885-1.694 1.947-3.086 2.13-2.79.263.428.53.16 2.631-2.651 2.112-2.826 3.843-5.466 4.266-5.466.478 0 .28.475-.628 1.508-1.622 1.731-2.127 4.122-2.13 5.685-.143 2.949 2.256 5.073 4.869 6.274 3.343.788 6.457.435 7.044-2.358.488-2.322-1.154-3.747-3.055-4.318-.465.211-1.81 1.634-2.24 2.99-.149.474-.579.298-.579-.236 0-1.111 1.254-3.945 1.919-5.154.933-1.697 1.952-1.78 2.788-1.612.467.094.822-.198 1.246-.534l.593-.467c2.066 1.52 4.38 2.635 6.585 3.919 2.474 1.758 4.856 2.751 4.882 3.002.016.148.006.156-.022 1.235-.049 1.872-.029 1.962.428 1.962.928 0 1.861-.519 3.1-2.013 2.167-2.616 2.447-2.64 2.447-4.837.156-1.68-2.06-5.282-3.448-3.932-.582.583-1.257 2.636-1.047 3.185.142.37 1.032.624 1.523.435.515-.198.432.211-.15.741-.764.694-1.597.814-2.21.317-.757-.614-.96-3.055-.386-4.622.546-1.487 2.496-3.067 2.906-3.224.46-.178.978.192 2.821 2.614 2.97 4.467 6.21 8.467 9.106 12.734.36.528.71 1.301.778 1.718.112.695-.023.925-1.608 2.741-2.61 2.99-4.367 5.415-4.367 6.028 0 .661 1.351 1.196 2.535 1.379.858.132 1.424.425 1.424.737-1.408 1.92-6.965 9.767-7.634 9.233-.065-.106-.175-1.368-.243-2.804-.513-3.89-.698-5.986-1.152-9.781-.136-.74-.157-.753-1.06-.627-2.218.308-4.948.48-7.128.843-1.761.293-3.302 1.523-4.02 1.138-.734-.394-4.606-1.092-6.905-1.38-6.783-.85-5.67-.705-5.67.128l1.486 12.03s.713 3.23.118 3.23c-3.236-1.234-5.61-3.585-8.128-5.322z" fill="#504945"/>
        <circle cx="31" cy="1030.362" r="2" fill="#504945"/>
        <path d="M25.55 1026.364a.777.777 0 0 0-.266.034c-.11.07-.217.482-.24.916l-.044.789 2.758.134c1.554.132 3.28.168 4.739.068.513 0 .571-.04.449-.302-.328-.699-.847-1.103-1.468-1.14-.34-.02-1.828-.162-3.306-.315-1.27-.132-2.19-.196-2.622-.186zM37.48 1024.362c-.196 0-.316.02-.345.042-.106.098-.16.575-.123 1.058.062.798.117.875.61.841 1.373.07 2.759.058 4.157.058 1.096-.044 2.448-.74 3.221-1.117 0-.112-.103-.203-.231-.203-.129 0-1.856-.184-3.837-.408-1.587-.18-2.865-.277-3.452-.27z" fill="#504945"/>
        <circle cx="39" cy="1028.362" r="2" fill="#504945"/>
        <path d="M44.443 992.362a.553.553 0 0 0-.18.04c-.409.156-2.358 1.736-2.904 3.224-.282.77-.375 1.75-.308 2.621.035-.57.13-1.138.308-1.621.546-1.488 2.495-3.068 2.905-3.225.46-.178.978.19 2.822 2.614 2.969 4.466 6.209 8.467 9.105 12.734.3.437.582 1.033.711 1.465.112-.261.114-.468.069-.746-.068-.417-.42-1.191-.78-1.72-2.896-4.266-6.136-8.266-9.105-12.733-1.613-2.12-2.21-2.668-2.643-2.653zm-24.613 2.092c-.423 0-2.153 2.641-4.266 5.467-2.101 2.811-2.368 3.078-2.632 2.65-.183-.296-1.245 1.097-2.13 2.791-.891 1.708-2.507 3.693-3.462 4.94-.284.37-.4.753-.309 1.01.01.028.12.174.153.23.045-.08.095-.16.156-.24.955-1.247 2.57-3.232 3.463-4.94.884-1.694 1.946-3.087 2.129-2.79.264.427.531.16 2.632-2.651 1.07-1.43 2.036-2.806 2.79-3.822.243-.397.516-.782.847-1.135.908-1.033 1.107-1.51.63-1.51zm9.826 1.78l-.592.466c-.424.336-.779.63-1.246.535-.836-.167-1.856-.085-2.789 1.612-.665 1.209-1.918 4.042-1.918 5.154 0 .154.04.266.094.353.293-1.323 1.263-3.487 1.824-4.507.933-1.697 1.953-1.78 2.79-1.612.466.094.821-.199 1.245-.535l.592-.467c2.066 1.52 4.382 2.635 6.586 3.918 2.425 1.724 4.747 2.71 4.863 2.985.017-.548.032-.863.02-.98-.026-.252-2.41-1.246-4.883-3.005-2.204-1.283-4.52-2.398-6.586-3.918zm12.985 2.609c-.083.387-.126.734-.059.91.095.248.527.431.95.476.14-.088.284-.172.423-.298.583-.53.666-.94.15-.743-.45.173-1.226-.027-1.464-.345zm4.42 1.398c-.085 1.504-.54 1.813-2.432 4.098-1.238 1.494-2.172 2.011-3.1 2.011-.307 0-.407-.087-.431-.685-.036 1.55.003 1.685.431 1.685.928 0 1.862-.517 3.1-2.011 2.167-2.617 2.447-2.642 2.447-4.838.007-.077-.013-.175-.015-.26zm-29.975 2.059c-.005.117-.014.238-.014.347-.143 2.95 2.257 5.073 4.87 6.274 3.343.788 6.455.435 7.042-2.358.1-.47.092-.894.032-1.29-.014.098-.01.188-.032.29-.587 2.793-3.7 3.146-7.043 2.358-2.414-1.11-4.645-3.01-4.855-5.621zm4.102 15.164c-.201.096-.045.312-.045.638l1.486 12.03s.222 1.03.312 1.927c.154-.784-.312-2.927-.312-2.927l-1.442-11.668zm30.013 1.209c-.123.242-.207.446-.207.564 0 .661 1.353 1.195 2.537 1.377.422.065.77.17 1.018.295l.404-.557c0-.312-.564-.606-1.422-.738-.908-.14-1.91-.489-2.33-.941zm-36.156 4.615c-.135.435-.415.917-1.059 1.443-.603.494-1.097.948-1.1 1.012 0 .033.217.211.552.461.169-.15.335-.298.548-.473 1.044-.854 1.185-1.605 1.182-2.197 0-.029-.064-.141-.123-.246z" opacity=".1" fill="#F9F5D7"/>
    </g>
</svg>
