<svg xmlns="http://www.w3.org/2000/svg" width="64" height="64" version="1">
    <path d="M36.413 4.002l-9.613.164-1.95 1.468.161.164-6.35.165.489-.653-14.495-.328-.165.98-.164 1.469.98 1.797-.488 3.758-.816 3.265.488 3.106.164 2.448.977 3.266-.324 1.634.16 1.796 1.14 1.308.325 2.122-2.113.816.324 6.536 1.305.98-.817 5.714-.652.328L4.49 57.25l.575-.078 1.383.286s1.674.58 2.019.695c.346.116.86-.52.86-.52h1.382l1.153-.23.636.289.574-.059 1.442-.113.683-.293.293.696.23-.174.637-.292 1.32-.114.286.406s1.611.171 2.187.171c.576 0 .465-.464.465-.464s.17-.055.457.234c.288.289.695-.117.695-.117l.575-.29.406.407.402.289 1.094-.23h1.781l.41-.118L28.103 60l.11-1.207h2.706c.23 0 .122.805.122.805l1.78-.578.923.922 1.902-1.211 1.035-.176 2.016-.11h2.878l3.282.227.867-.344.629-.578 1.73.977 1.266-.52s1.382.529 1.613.586c.23.058 2.363-.238 2.363-.238l1.32-.348-.86-.632.575-.23 2.418.112L60 58.27l-.054-21.077V35.86l-.805.12-1.039.173v-.637l.574-.523.465-.688.11-2.484-.172-1.793-.75-2.195-.684-.922-.117-.867.172-.575.054-.171.75-.293.118-.293-.575-.977.52-.297.812-.492.325-2.937.164-1.961v-6.86l-.49-1.966.326-2.121.164-.82-1.466-.653-5.538-.98-.818 1.144-.324-1.309-10.585-.164-.328 1.801-2.604.324-.326-1.14-2.28-.328.816-.98z" fill="#CB241D"/>
    <path d="M43.999 13.001l-8 4 12 8v-8l-4-4zm-28 2l-6 2L44 51h6l3.999-10-38-25.999zM12 37l-2 10 4 4h3.999l6-2L12 37z" opacity=".2"/>
    <path d="M43.999 12.001l-8 4 12 8v-8l-4-4zm-27.999 2l-6 2L44 50h5.999l4-10-38-25.999zM12 36l-2 10 4 4h4l6-2-12-12z" fill="#F9F5D7"/>
    <path d="M36.41 4.002l-9.609.164-1.949 1.469.16.164-6.35.164.488-.653-14.496-.328-.164.98-.164 1.47.092.17.072-.64.164-.98 14.496.328-.488.653 6.35-.164-.16-.164 1.95-1.469 9.028-.154-.232-.034.812-.976zm4.725.32l-.326 1.801-2.606.324-.326-1.14-1.537-.221-.742.892 2.279.329.326 1.14 2.606-.324.326-1.8 10.586.163.324 1.309.818-1.145 5.537.98 1.288.573.015-.1.164-.82-1.467-.652-5.537-.98-.818 1.144-.324-1.309-10.586-.164zm18.338 5.283l-.096.62.49 1.964v-1l-.394-1.583zm-54.272.432l-.383 2.949-.816 3.266.096.613.72-2.879.488-3.757-.105-.192zm53.285 14.445l-.439.252.215.366.242-.096.117-.293-.135-.229zm-52.974 1.19l-.205 1.033.062.69.262-1.325-.119-.398zm52.109 1.06l-.094.311.118.867.683.922.75 2.195.143 1.479.029-.686-.172-1.793-.75-2.195-.683-.922-.024-.178zM6.787 31.986l-1.969.76.05.981 2.063-.795-.144-.946zm53.158 3.873l-.804.121-.553.092-.486.444v.636l1.039-.172.804-.121v-1zm0 1.332v1l.053 20.079H60l-.055-21.079zM6.318 41.166l-.688 4.811-.652.328L4.49 57.25l.045-.006.443-9.939.652-.328.817-5.713-.129-.098z" opacity=".2" fill="#F9F5D7"/>
    <path d="M36.41 5.002l-.58.01.51.074zm23.278 2.201l-.311 2.022.096.38.23-1.502.164-.82zm-55.27.399l-.092.83.875 1.605.106-.808zm-.32 9.263l-.096.387.488 3.105.164 2.448.858 2.867.119-.602-.977-3.265-.164-2.448zm55.77 1.184l-.164 1.959-.325 2.94-.812.49-.52.296.44.748.08-.045.812-.492.325-2.937.164-1.961zm-1.606 7.05l-.508.198-.054.172-.172.574.094.69.078-.264.054-.172.75-.293.118-.293zM5.367 27.394l-.06.31.16 1.795 1.14 1.309.18 1.178.145-.055-.325-2.123-1.14-1.307zm53.854 5.112l-.08 1.799-.465.687-.574.523v.637l.486-.08.088-.08.465-.687.11-2.485zm-54.354 1.22l-.049.02.325 6.537 1.175.883.13-.902-1.305-.981zm.197 23.446l-.529.072-.045 1.006.574-.078 1.383.287s1.674.58 2.02.695c.345.116.86-.52.86-.52h1.382l1.152-.23.637.29.574-.06 1.442-.113.683-.293.293.696.231-.174.636-.293 1.321-.113.285.406s1.612.171 2.188.171c.576 0 .465-.464.465-.464s.169-.055.457.234c.287.289.695-.117.695-.117l.574-.29.406.407.403.29 1.093-.231h1.78l.41-.117L28.102 61l.109-1.207h2.707c.23 0 .12.804.12.804l1.782-.578.922.922 1.902-1.21 1.035-.177 2.016-.109h2.879l3.281.227.867-.344.63-.578 1.73.976 1.265-.52s1.383.529 1.614.587c.23.057 2.363-.239 2.363-.239l1.32-.347-.86-.633.575-.23 2.418.113 3.223.812-.002-1-3.22-.812-2.419-.114-.574.23.86.634-1.321.347s-2.133.296-2.363.239c-.23-.058-1.614-.586-1.614-.586l-1.265.519-1.73-.977-.629.578-.867.344-3.281-.227h-2.879l-2.015.11-1.036.175-1.902 1.211-.922-.922-1.781.578s.11-.804-.121-.804H28.21L28.1 60l-1.667-2.367-.411.117h-1.78l-1.093.23-.403-.289-.406-.406-.574.289s-.407.406-.695.117c-.288-.289-.457-.234-.457-.234s.11.464-.465.464c-.576 0-2.188-.171-2.188-.171l-.284-.406-1.32.113-.637.293-.23.173-.293-.695-.684.293-1.441.113-.574.059-.637-.29-1.152.231H9.327s-.514.635-.86.52c-.345-.116-2.02-.696-2.02-.696z" opacity=".2"/>
</svg>
