<svg xmlns="http://www.w3.org/2000/svg" width="64" height="64" version="1">
    <rect width="56" height="56" x="4" y="5" rx="2.8" ry="2.8" opacity=".2"/>
    <rect width="56" height="56" x="4" y="4" rx="2.8" ry="2.8" fill="#8F3F71"/>
    <path d="M24 16.398l-8 8.403V50h23.8l8.4-8H28.964l19.027-19.031-5.656-5.657L24 35.653v-.554z" opacity=".2"/>
    <path d="M24 15.398l-8 8.403V49h23.8l8.4-8H28.964l19.027-19.031-5.656-5.657L24 34.653v-.554z" fill="#F9F5D7"/>
    <path d="M6.8 4C5.25 4 4 5.25 4 6.8v1C4 6.25 5.25 5 6.8 5h50.4C58.75 5 60 6.25 60 7.8v-1C60 5.25 58.75 4 57.2 4H6.8z" opacity=".1" fill="#F9F5D7"/>
</svg>
