<svg xmlns="http://www.w3.org/2000/svg" width="64" height="64" version="1">
    <path d="M26.89 29C23.168 29 20 32.102 20 35.855v14.29C20 53.898 23.167 57 26.89 57h20.22c3.723 0 6.89-3.102 6.89-6.855v-14.29C54 32.102 50.833 29 47.11 29z" opacity=".2"/>
    <rect width="26" height="20" x="24" y="32" rx="2.889" ry="2.857" fill="none" stroke="#F9F5D7" stroke-width="8" stroke-linejoin="round"/>
    <rect width="26" height="20" x="24" y="32" rx="2.889" ry="2.857" fill="#48B9C7"/>
    <path d="M8.89 33C5.168 33 2 36.102 2 39.855v14.29C2 57.898 5.167 61 8.89 61h20.22c3.723 0 6.89-3.102 6.89-6.855v-14.29C36 36.102 32.833 33 29.11 33z" opacity=".2"/>
    <rect width="26" height="20" x="6" y="36" rx="2.889" ry="2.857" fill="none" stroke="#F9F5D7" stroke-width="8" stroke-linejoin="round"/>
    <rect width="26" height="20" x="6" y="36" rx="2.889" ry="2.857" fill="#066678"/>
    <path d="M24.383 5C19.817 5 16 8.789 16 13.363v23.274C16 41.21 19.817 45 24.383 45h29.234C58.183 45 62 41.211 62 36.637V13.363C62 8.79 58.183 5 53.617 5z" opacity=".2"/>
    <rect width="38" height="32" x="20" y="8" rx="4.385" ry="4.364" fill="none" stroke="#F9F5D7" stroke-width="8" stroke-linejoin="round"/>
    <rect width="38" height="32" x="20" y="8" rx="4.385" ry="4.364" fill="#066678"/>
    <path d="M24.383 4C19.817 4 16 7.789 16 12.363v1C16 8.79 19.817 5 24.383 5h29.234C58.183 5 62 8.789 62 13.363v-1C62 7.79 58.183 4 53.617 4H24.383zM8.89 32C5.167 32 2 35.102 2 38.855v1C2 36.102 5.167 33 8.89 33H16v-1H8.89z" opacity=".2" fill="#F9F5D7"/>
</svg>
