<svg xmlns="http://www.w3.org/2000/svg" width="64" height="64" version="1">
    <rect width="56" height="56" x="-61" y="-57" rx="28" ry="28" transform="matrix(0 -1 -1 0 0 0)" opacity=".2"/>
    <rect width="56" height="56" x="-60" y="-57" rx="28" ry="28" transform="matrix(0 -1 -1 0 0 0)" fill="#FD8019"/>
    <path d="M29 4C13.488 4 1 16.488 1 32c0 .113.011.224.018.336C1.369 17.134 13.71 5 29 5c15.29 0 27.63 12.134 27.982 27.336.007-.112.018-.223.018-.336C57 16.488 44.512 4 29 4z" opacity=".1" fill="#F9F5D7"/>
    <rect width="56" height="56" x="-61" y="-63" rx="28" ry="28" transform="matrix(0 -1 -1 0 0 0)" opacity=".2"/>
    <rect width="56" height="56" x="-60" y="-63" rx="28" ry="28" transform="matrix(0 -1 -1 0 0 0)" fill="#8F3F71"/>
    <path d="M16.957 41A19.6 19.6 0 0 0 35 53a19.6 19.6 0 0 0 18.035-12z" opacity=".2"/>
    <path d="M16.957 40A19.6 19.6 0 0 0 35 52a19.6 19.6 0 0 0 18.035-12z" fill="#8F3F71"/>
    <path d="M8.475 24a27.876 27.876 0 0 0-1.024 4H62.55a27.876 27.876 0 0 0-1.024-4zm-1.397 7A28.589 28.589 0 0 0 7 33c0 .673.032 1.339.078 2h55.844c.046-.661.078-1.327.078-2s-.032-1.339-.078-2zm.373 7a27.876 27.876 0 0 0 1.024 4h53.05a27.876 27.876 0 0 0 1.024-4z" opacity=".2"/>
    <path d="M8.475 23a27.876 27.876 0 0 0-1.024 4H62.55a27.876 27.876 0 0 0-1.024-4H8.475zm-1.397 7A28.589 28.589 0 0 0 7 32c0 .673.032 1.339.078 2h55.844c.046-.661.078-1.327.078-2s-.032-1.339-.078-2H7.078zm.373 7a27.876 27.876 0 0 0 1.024 4h53.05a27.876 27.876 0 0 0 1.024-4H7.45z" fill="#F9F5D7"/>
    <path d="M35 4C19.488 4 7 16.488 7 32c0 .113.011.224.018.336C7.369 17.134 19.71 5 35 5c15.29 0 27.63 12.134 27.982 27.336.007-.112.018-.223.018-.336C63 16.488 50.512 4 35 4z" opacity=".1" fill="#F9F5D7"/>
</svg>
