<svg xmlns="http://www.w3.org/2000/svg" width="64" height="64" version="1">
    <path d="M49.945 45.527C49.148 54.039 41.688 61 31.503 61 21.317 61 13.93 54.033 13.06 45.527 12.185 36.98 21.037 5.127 31.503 5c10.535-.128 19.272 31.668 18.442 40.527z" opacity=".2"/>
    <path d="M49.945 44.527C49.148 53.039 41.688 60 31.503 60 21.317 60 13.93 53.033 13.06 44.527 12.185 35.98 21.037 4.127 31.503 4c10.535-.128 19.272 31.668 18.442 40.527z" fill="#D79921"/>
    <path d="M23.84 46.01a3.53 3.53 0 0 0-3.08 1.34c-.498.634-.893 1.962-.717 2.407.138.35.3.301.666-.197.177-.242.67-.633 1.094-.87a3.587 3.587 0 0 1 4.248.59c.267.267.484.537.484.602 0 .065.101.117.225.117.38 0 .291-1.334-.147-2.172-.578-1.107-1.65-1.724-2.773-1.816zm15.32 0c-1.122.093-2.195.71-2.773 1.817-.438.838-.528 2.172-.147 2.172.124 0 .225-.052.225-.117s.217-.335.484-.602a3.587 3.587 0 0 1 4.248-.59c.425.237.917.628 1.094.87.366.498.528.546.666.197.176-.445-.219-1.773-.717-2.406a3.53 3.53 0 0 0-3.08-1.34zm-4.82 5.661c-.312-.042-.565.19-.88.754-.462.833-1.076 1.213-1.96 1.213-.844 0-1.477-.375-1.94-1.149-.462-.773-.787-.954-1.238-.685-.376.224-.42.61-.142 1.217.415.903 1.44 1.655 2.61 1.912 1.493.328 3.42-.583 4.026-1.904.283-.617.24-1-.14-1.227a.905.905 0 0 0-.336-.13z" opacity=".1"/>
    <path d="M36.484 8.211c-.06.008.047.303.548 1.765 1.297 3.784 2.425 8.076 3.05 11.598.466 2.633.672 5.408.751 10.157.042 2.515.123 4.573.18 4.573.122 0 .3-.809.57-2.578 1.012-6.628.216-13.404-2.362-20.13-.624-1.627-2.378-5.184-2.629-5.33-.049-.028-.088-.058-.108-.055zM27.409 9.6c-.082-.017-.252.417-.509 1.302-.558 1.924-.787 3.592-.873 6.358-.094 2.998.037 4.61.72 8.91 1.021 6.423 1.59 10.92 1.59 12.564 0 .457.043 1.019.094 1.248l.094.418.112-.371c.062-.204.185-1.68.273-3.28.243-4.404.05-6.98-1.281-17.076-.314-2.378-.419-6.79-.213-8.972.067-.719.065-1.085-.007-1.1zM20.498 21.244c-.155-.038-1.954 3.906-2.362 5.178-.087.27-.24 1.375-.342 2.455a57.37 57.37 0 0 1-.522 3.867c-.259 1.457-.316 2.262-.243 3.437.09 1.428.18 1.892.613 3.107.12.34.243.457.445.428.236-.034.285-.22.314-1.204.052-1.74.283-2.859 1.495-7.24L21 27.281l-.022-2.394c-.023-2.446-.17-3.567-.48-3.644zM45.279 21.685c.104.384.192.757.261 1.116.266 1.376.467 3.47.467 4.88 0 1.77.286 1.445.459-.522.066-.757.12-1.203.177-1.42a89.495 89.495 0 0 0-1.364-4.054zM36.119 28.939c-.072 0-.097.124-.057.277.326 1.223.534 3.583.53 6.018-.003 1.475.044 2.593.103 2.493.344-.578.489-4.133.241-5.894-.171-1.218-.645-2.894-.817-2.894zM48.359 40.213c-.018-.002-.038.008-.06.029-.03.028-.179.753-.332 1.611-.898 5.018-2.901 10.073-5.488 13.845-.805 1.175-1.229 1.734-1.716 2.114a17.685 17.685 0 0 0 5.193-4.062c.07-.168.154-.355.252-.556 1.515-3.088 2.307-6.7 2.312-10.54.002-1.798-.034-2.426-.161-2.441zM19.016 46.235c-.06.016-.13.176-.203.494-.176.777.038 3.94.327 4.807.103.31.367.793.586 1.074.22.28.452.51.518.51.146 0 .148.026-.02-.491-.581-1.804-1.033-4.128-1.036-5.33-.001-.716-.072-1.09-.172-1.064z" fill="#B57514"/>
    <path d="M30.79 53.933c-1.17-.257-2.196-1.009-2.61-1.912-.28-.607-.234-.992.142-1.216.45-.269.775-.09 1.238.684.462.774 1.096 1.149 1.94 1.149.884 0 1.498-.38 1.961-1.213.418-.752.73-.911 1.215-.621.38.226.424.609.141 1.225-.606 1.32-2.533 2.232-4.027 1.904zM20.043 48.757c-.177-.445.22-1.772.717-2.406 1.568-1.993 4.695-1.737 5.853.478.438.838.528 2.171.147 2.171-.123 0-.224-.053-.224-.117 0-.065-.219-.336-.486-.602a3.586 3.586 0 0 0-4.248-.59c-.424.237-.916.628-1.094.87-.366.498-.527.546-.665.196zM42.957 48.757c.177-.445-.22-1.772-.717-2.406-1.568-1.993-4.695-1.737-5.853.478-.438.838-.528 2.171-.147 2.171.123 0 .224-.053.224-.117 0-.065.219-.336.486-.602a3.586 3.586 0 0 1 4.248-.59c.424.237.916.628 1.094.87.366.498.527.546.665.196z" fill="#3C3836"/>
    <path d="M31.502 4c-10.15.124-18.782 30.088-18.494 39.69C13.284 33.168 21.682 5.12 31.502 5c9.913-.12 18.23 28.017 18.488 38.723C50.281 33.904 41.742 3.875 31.502 4z" opacity=".2" fill="#F9F5D7"/>
</svg>
