<svg xmlns="http://www.w3.org/2000/svg" width="64" height="64">
    <path d="M4 46.2v2C4 49.696 5.304 51 6.8 51h50.4c1.496 0 2.8-1.304 2.8-2.8v-2c0 1.496-1.304 2.8-2.8 2.8H6.8C5.306 49 4 47.696 4 46.2z" opacity=".2"/>
    <path d="M6.8 14h50.4c1.495 0 2.8 1.304 2.8 2.8v30.4c0 1.496-1.305 2.8-2.8 2.8H6.8C5.303 50 4 48.696 4 47.2V16.8C4 15.305 5.303 14 6.8 14z" fill="#F9F5D7"/>
    <path d="M49.813 20c4.571.002 4.172 4.89 4.172 4.89v4.278C53.985 30.742 52 34 52 34v3l3.998 1.856V42h-16v-3.144L43.993 37v-3s-1.99-3.256-1.979-4.833V24.89S41.614 20 46.186 20" opacity=".2"/>
    <path d="M10 36l-4-4 4-4z" fill="#7CB668"/>
    <path d="M13.75 26h10.5c.888 0 1.75.984 1.75 2v8c0 1.015-.862 2-1.75 2h-10.5c-.888 0-1.75-.984-1.75-2v-8c0-1.015.862-2 1.75-2z" fill="#FECE4F"/>
    <circle cx="-32" cy="28" r="12" transform="rotate(-90)" fill="#504945"/>
    <rect width="6" height="16" x="-5.85" y="49.45" rx="3" ry="2.908" transform="rotate(-45)" fill="#504945"/>
    <path d="M23.766 28.766a5.96 5.96 0 0 0 0 8.468 5.96 5.96 0 0 0 8.468 0 5.96 5.96 0 0 0 0-8.468 5.96 5.96 0 0 0-8.468 0z" opacity=".2"/>
    <path d="M23.766 27.766a5.96 5.96 0 0 0 0 8.468 5.96 5.96 0 0 0 8.468 0 5.96 5.96 0 0 0 0-8.468 5.96 5.96 0 0 0-8.468 0z" fill="#066678"/>
    <path d="M6.8 14C5.305 14 4 15.304 4 16.8v1C4 16.305 5.304 15 6.8 15h50.4c1.495 0 2.8 1.304 2.8 2.8v-1c0-1.496-1.305-2.8-2.8-2.8H6.8z" opacity=".2" fill="#F9F5D7"/>
</svg>
