<svg xmlns="http://www.w3.org/2000/svg" width="64" height="64" version="1">
    <path d="M18.286 6a3.429 3.6 0 0 0-2.501 1.137l-12.858 14.4a3.429 3.6 0 0 0-.097 4.812l26.572 32.4a3.429 3.6 0 0 0 5.196 0l26.572-32.4a3.429 3.6 0 0 0-.097-4.812l-12.858-14.4A3.429 3.6 0 0 0 45.715 6H18.285z" opacity=".2"/>
    <path d="M18.286 5a3.429 3.6 0 0 0-2.501 1.137l-12.858 14.4a3.429 3.6 0 0 0-.097 4.812l26.572 32.4a3.429 3.6 0 0 0 5.196 0l26.572-32.4a3.429 3.6 0 0 0-.097-4.812l-12.858-14.4A3.429 3.6 0 0 0 45.715 5H18.285z" fill="#B7BB25"/>
    <path d="M18.285 5c-.23 0-.457.023-.68.07a3.429 3.6 0 0 0-.02.004l-.019.008a3.318 3.318 0 0 0-.617.203 3.429 3.6 0 0 0-.015.008l-.04.02c-.2.093-.39.203-.57.335l-.027.02a3.48 3.48 0 0 0-.512.469L2.925 20.539A3.429 3.6 0 0 0 2.005 23H62a3.429 3.6 0 0 0-.926-2.46L48.214 6.136a3.481 3.481 0 0 0-.515-.473 3.429 3.6 0 0 0-.035-.023 3.36 3.36 0 0 0-.582-.34 3.429 3.6 0 0 0-.016-.008 3.319 3.319 0 0 0-.613-.207 3.429 3.6 0 0 0-.008 0 3.429 3.6 0 0 0-.086-.02A3.259 3.259 0 0 0 45.715 5h-27.43z" opacity=".2"/>
    <path d="M32 5l14 18H18z" fill="#B7BB25"/>
    <path d="M32 59l14-36H18z" opacity=".2"/>
    <path d="M18.285 5a3.429 3.6 0 0 0-2.5 1.137l-12.857 14.4a3.429 3.6 0 0 0-.893 2.97 3.429 3.6 0 0 1 .893-1.97l12.857-14.4A3.429 3.6 0 0 1 18.285 6h27.43a3.429 3.6 0 0 1 2.5 1.137l12.857 14.4a3.429 3.6 0 0 1 .89 1.963 3.429 3.6 0 0 0-.89-2.963l-12.857-14.4A3.429 3.6 0 0 0 45.715 5h-27.43z" opacity=".2" fill="#F9F5D7"/>
</svg>
