<svg xmlns="http://www.w3.org/2000/svg" width="64" height="64" version="1">
    <path d="M60 33a28 28 0 0 1-28 28A28 28 0 0 1 4 33 28 28 0 0 1 32 5a28 28 0 0 1 28 28z" opacity=".2"/>
    <path d="M49.076 24.935l-5.408 3.172-2.54 1.49a2.8 2.8 0 0 1-3.468-.508c-1.993-2.144-6.571-4.09-11.96-4.09-3.985 0-7.555 1.016-9.929 2.46C13.398 28.904 12.4 30.535 12.4 32c0 1.462.998 3.094 3.371 4.538 2.374 1.445 5.944 2.461 9.929 2.461 5.389 0 9.967-1.946 11.96-4.09a2.8 2.8 0 0 1 3.467-.509l2.54 1.49 5.41 3.172c-.053-.139-.055-.113-.107-.257-.744-2.033-1.57-4.382-1.57-6.806 0-2.423.826-4.773 1.57-6.806.052-.143.054-.118.106-.257z" fill="#48B9C7"/>
    <path d="M60 32a28 28 0 0 1-28 28A28 28 0 0 1 4 32 28 28 0 0 1 32 4a28 28 0 0 1 28 28z" fill="#BE4C1D"/>
    <path d="M50.697 22c-.308.01-.608.099-.875.256l-7.758 4.551-2.494 1.464C36.855 25.35 31.716 23 25.81 23 17.08 23 10 27.684 10 33c0 5.315 7.079 10 15.81 10 5.906 0 11.045-2.352 13.76-5.272l2.494 1.464 7.758 4.551c1.244.73 3.178-.181 3.178-1.64 0 0-3-5.934-3-9.103 0-3.17 3-9.1 3-9.1 0-1.07-1.25-1.931-2.303-1.9z" opacity=".2"/>
    <path d="M50.697 21c-.308.01-.608.099-.875.256l-7.758 4.55-2.494 1.465C36.855 24.351 31.716 22 25.81 22 17.08 22 10 26.685 10 32s7.079 10 15.81 10c5.906 0 11.045-2.352 13.76-5.271l2.494 1.462 7.758 4.553c1.244.73 3.178-.183 3.178-1.642 0 0-3-5.933-3-9.102 0-3.17 3-9.102 3-9.102 0-1.07-1.25-1.93-2.303-1.898z" fill="#1D2021"/>
    <path d="M25.81 26c-3.65 0-6.916 1.024-9.019 2.373C14.688 29.723 14 31.118 14 32c0 .882.688 2.278 2.791 3.627C18.894 36.976 22.16 38 25.811 38c4.843 0 9.1-2.135 10.83-3.996a4 4 0 0 1 4.953-.727l2.494 1.463a4 4 0 0 0 .002.002l2.633 1.545C46.315 34.983 46 33.587 46 32c0-1.588.315-2.984.723-4.29l-2.633 1.546-2.494 1.465a4 4 0 0 1-4.955-.725C34.91 28.136 30.654 26 25.81 26z" fill="#48B9C7"/>
    <path d="M32 4A28 28 0 0 0 4 32a28 28 0 0 0 .021.586A28 28 0 0 1 32 5a28 28 0 0 1 27.979 27.414A28 28 0 0 0 60 32 28 28 0 0 0 32 4z" fill="#F9F5D7" opacity=".2"/>
</svg>
