<svg xmlns="http://www.w3.org/2000/svg" width="64" height="64">
    <path d="M10 56v2c0 1.662 1.338 3 3 3h38c1.662 0 3-1.338 3-3v-2c0 1.662-1.338 3-3 3H13c-1.662 0-3-1.338-3-3z" opacity=".2"/>
    <path d="M13 4c-1.662 0-3 1.338-3 3v50c0 1.662 1.338 3 3 3h38c1.662 0 3-1.338 3-3V7c0-1.662-1.338-3-3-3z" fill="#066678"/>
    <path d="M13 4c-1.662 0-3 1.338-3 3v1c0-1.662 1.338-3 3-3h38c1.662 0 3 1.338 3 3V7c0-1.662-1.338-3-3-3z" opacity=".1" fill="#F9F5D7"/>
    <path class="st0" d="M32 8c4 0 9.485 3 9 11-.383 7-4.722 11-4.722 11h11.35c1.72 0-3.007 4.404-4.628 6-2.837-2.115-7.654-2-8.667-2C34 34 33 46 36 49c1.14 1.14 2.03 1.956 2.056 2.631.019.51-.21.956-.656 1.369L32 58l-5.3-5c-.414-.39-.643-.804-.656-1.272-.02-.694.76-1.532 1.956-2.728 3-3 2-15 1.711-15-1.013 0-5.874-.075-8.711 2-1.621-1.596-6.428-6-4.584-6h11.319S23.464 26 23 19c-.46-8 5-11 9-11zm-5 11c0 4 2.244 8 5 8s5-4 5-8c0-4.829-3-7-5-7s-5 2.171-5 7z" opacity=".2"/>
    <path class="st0" d="M32 7c4 0 9.485 3 9 11-.383 7-4.722 11-4.722 11h11.35c1.72 0-3.007 4.404-4.628 6-2.837-2.115-7.654-2-8.667-2C34 33 33 45 36 48c1.14 1.14 2.03 1.956 2.056 2.631.019.51-.21.956-.656 1.369L32 57l-5.3-5c-.414-.39-.643-.804-.656-1.272-.02-.694.76-1.532 1.956-2.728 3-3 2-15 1.711-15-1.013 0-5.874-.075-8.711 2-1.621-1.596-6.428-6-4.584-6h11.319S23.464 25 23 18c-.46-8 5-11 9-11zm-5 11c0 4 2.244 8 5 8s5-4 5-8c0-4.829-3-7-5-7s-5 2.171-5 7z" fill="#F9F5D7"/>
</svg>
