<svg xmlns="http://www.w3.org/2000/svg" width="64" height="64" version="1">
    <path d="M4 52v2c0 1.662 1.25 3 2.8 3h50.4c1.55 0 2.8-1.338 2.8-3v-2c0 1.662-1.25 3-2.8 3H6.8C5.25 55 4 53.662 4 52z" opacity=".2"/>
    <rect width="56" height="47.999" x="-60" y="8" rx="2.8" ry="3" transform="scale(-1 1)" fill="#7F7061"/>
    <path opacity=".2" d="M8 13h47.999v28H8z"/>
    <path fill="#F9F5D7" d="M8 12h47.999v28H8z"/>
    <g fill="#FA4934">
        <path d="M28 24v4H16v-4zM28 16v4H16v-4z"/>
        <path d="M16 16h4v20h-4z"/>
    </g>
    <circle cx="52.999" cy="49" r="3" fill="#B7BB25"/>
    <path opacity=".4" d="M8 42h28v2H8z"/>
    <path d="M6.8 8C5.25 8 4 9.338 4 11v1c0-1.662 1.25-3 2.8-3h50.4c1.55 0 2.8 1.338 2.8 3v-1c0-1.662-1.25-3-2.8-3H6.8z" opacity=".2" fill="#F9F5D7"/>
    <g fill="#FA4934">
        <path d="M34 36h-4V24h4zM42 36h-4V24h4zM50 36h-4V24h4z"/>
        <path d="M50 24v4H30v-4z"/>
    </g>
    <path opacity=".4" d="M8 46h28v2H8zM8 50h28v2H8z"/>
</svg>
