<svg xmlns="http://www.w3.org/2000/svg" width="64" height="64" version="1">
    <path d="M4 56v2c0 1.662 1.338 3 3 3h50c1.662 0 3-1.338 3-3v-2c0 1.662-1.338 3-3 3H7c-1.662 0-3-1.338-3-3z" opacity=".2"/>
    <rect width="56" height="56" x="4" y="4" rx="3" ry="3" fill="#066678"/>
    <path d="M7 4C5.338 4 4 5.338 4 7v1c0-1.662 1.338-3 3-3h50c1.662 0 3 1.338 3 3V7c0-1.662-1.338-3-3-3H7z" opacity=".1" fill="#F9F5D7"/>
    <path d="M12.2 11c-1.22 0-2.2.981-2.2 2.2v39.6c0 1.22.98 2.2 2.2 2.2h39.6c1.22 0 2.2-.98 2.2-2.2V13.2c0-1.22-.98-2.2-2.2-2.2H12.2zM22 21l10 6 10 6-10 6-10 6V21z" opacity=".2"/>
    <path d="M12.2 10c-1.22 0-2.2.98-2.2 2.2v39.6c0 1.22.98 2.2 2.2 2.2h39.6c1.22 0 2.2-.98 2.2-2.2V12.2c0-1.22-.98-2.2-2.2-2.2H12.2z" fill="#F9F5D7"/>
    <path d="M22 20l10 6 10 6-10 6-10 6V20z" fill="#066678"/>
</svg>
