<svg xmlns="http://www.w3.org/2000/svg" width="64" height="64" version="1">
    <path d="M4 56.2v2C4 59.75 5.25 61 6.8 61h50.4c1.55 0 2.8-1.25 2.8-2.8v-2c0 1.55-1.25 2.8-2.8 2.8H6.8C5.25 59 4 57.75 4 56.2z" opacity=".2"/>
    <rect width="56" height="56" x="4" y="4" rx="2.8" ry="2.8" fill="#504945"/>
    <path d="M22.004 5c-1.98.003-3.96.015-5.943.04C-.897 24.01 16.253 36.033 30 39c-14.55-9.452-2.209-26.781 10-33.977-6.01.03-11.997-.032-17.996-.023zM34 27c13.943 9.057 3.189 25.325-8.477 33h23.23C64.288 41.586 47.514 29.915 34 27zm-4.803.002a7.265 4.384 45 0 0-.222.004 7.265 4.384 45 0 0-2.114.86 7.265 4.384 45 0 0 10.274 10.273 7.265 4.384 45 0 0-7.938-11.137z" fill-rule="evenodd" opacity=".2"/>
    <path d="M22.004 4c-1.98.003-3.96.015-5.943.04C-.897 23.01 16.253 35.033 30 38c-14.55-9.452-2.209-26.781 10-33.977-6.01.03-11.997-.032-17.996-.023zM34 26c14.55 9.452 2.209 26.781-10 33.977 7.993-.039 15.944.08 23.94-.016C64.896 40.989 47.746 28.966 34 26zm-5.025.006a7.265 4.384 45 0 0-2.114.86 7.265 4.384 45 0 0 10.274 10.273 7.265 4.384 45 0 0-8.16-11.133z" fill="#FA4934" fill-rule="evenodd"/>
    <path d="M6.8 4C5.25 4 4 5.25 4 6.8v1.003c0-1.551 1.25-2.801 2.8-2.801h50.4c1.55 0 2.8 1.25 2.8 2.8V6.802C60 5.25 58.75 4 57.2 4H6.8z" opacity=".1" fill="#F9F5D7"/>
</svg>
