<svg xmlns="http://www.w3.org/2000/svg" width="64" height="64" version="1">
    <path d="M4.05 32c-.011.334-.05.662-.05 1 0 15.512 12.488 28 28 28 15.511 0 28-12.488 28-28 0-.337-.04-.665-.052-1-.528 15.042-12.775 27-27.95 27C16.826 59 4.579 47.042 4.05 32z" opacity=".2"/>
    <rect width="56" height="56" x="4" y="4" rx="28" ry="28" fill="#066678"/>
    <path d="M32 13a20 20 0 0 0-20 20 20 20 0 0 0 20 20 20 20 0 0 0 20-20 20 20 0 0 0-20-20zm-9.555 14a6.053 4.935 76.77 0 1 5.316 4.692 6.053 4.935 76.77 0 1-3.23 7.164 6.053 4.935 76.77 0 1-6.294-4.548 6.053 4.935 76.77 0 1 3.23-7.164 6.053 4.935 76.77 0 1 .978-.144zm19.11 0a4.935 6.053 13.23 0 1 .976.145 4.935 6.053 13.23 0 1 3.23 7.164 4.935 6.053 13.23 0 1-6.293 4.547 4.935 6.053 13.23 0 1-3.232-7.164A4.935 6.053 13.23 0 1 41.552 27z" opacity=".2"/>
    <path d="M32 12a20 20 0 0 0-20 20 20 20 0 0 0 20 20 20 20 0 0 0 20-20 20 20 0 0 0-20-20zm-9.554 14a6.053 4.935 76.77 0 1 5.316 4.692 6.053 4.935 76.77 0 1-3.23 7.164 6.053 4.935 76.77 0 1-6.294-4.548 6.053 4.935 76.77 0 1 3.23-7.163 6.053 4.935 76.77 0 1 .978-.144zm19.107 0a4.935 6.053 13.23 0 1 .978.145 4.935 6.053 13.23 0 1 3.23 7.163 4.935 6.053 13.23 0 1-6.294 4.548 4.935 6.053 13.23 0 1-3.23-7.164 4.935 6.053 13.23 0 1 5.316-4.691z" fill="#FECE4F"/>
    <path d="M32 4C16.488 4 4 16.488 4 32c0 .114.011.224.018.336C4.369 17.134 16.71 5 32 5c15.29 0 27.63 12.134 27.982 27.336.007-.112.018-.222.018-.336C60 16.488 47.512 4 32 4z" opacity=".2" fill="#F9F5D7"/>
</svg>
