<svg xmlns="http://www.w3.org/2000/svg" width="64" height="64">
    <circle cx="32" cy="33" r="28" opacity=".2"/>
    <circle cx="32" cy="32" r="28" fill="#3A393A"/>
    <path d="M32 4A28 28 0 0 0 4 32a28 28 0 0 0 .018.492A28 28 0 0 1 32 5a28 28 0 0 1 27.975 27.492A28 28 0 0 0 60 32 28 28 0 0 0 32 4z" opacity=".1" fill="#F9F5D7"/>
    <path d="M33.4 32l-7.41 8.053-.557 3.994L22 48" fill="none" stroke="#B57514" stroke-width="1.6"/>
    <path d="M30.6 28.8l-8.697 6.3h-4.366L14 38" fill="none" stroke="#BDAD93" stroke-width="1.6"/>
    <path d="M32 30.6L14 46" fill="none" stroke="#BE4C1D" stroke-width="1.6"/>
    <circle cx="14" cy="46" r="2" fill="#BE4C1D"/>
    <circle cx="14" cy="38" r="2" fill="#BDAD93"/>
    <circle cx="22" cy="48" r="2" fill="#B57514"/>
    <path d="M57.535 7a2.487 2.445 0 0 0-.933.17L15.573 23.058a2.487 2.445 0 0 0 .651 4.705c4.285.445 9.498 3.685 13.47 7.952 3.972 4.267 6.602 9.55 6.683 12.897a2.487 2.445 0 0 0 4.738.981l18.65-39.11A2.487 2.445 0 0 0 57.534 7z" opacity=".2"/>
    <path d="M57.535 6a2.487 2.445 0 0 0-.933.17L15.573 22.058a2.487 2.445 0 0 0 .651 4.705c4.285.445 9.498 3.685 13.47 7.952 3.972 4.267 6.602 9.55 6.683 12.897a2.487 2.445 0 0 0 4.738.981l18.65-39.11A2.487 2.445 0 0 0 57.534 6z" fill="#48B9C7"/>
    <path d="M57.535 6a2.487 2.445 0 0 0-.933.168l-41.028 15.89a2.487 2.445 0 0 0-1.521 2.774 2.487 2.445 0 0 1 1.521-1.773L56.602 7.168A2.487 2.445 0 0 1 57.535 7a2.487 2.445 0 0 1 2.41 1.95A2.487 2.445 0 0 0 57.535 6z" opacity=".2" fill="#F9F5D7"/>
</svg>
