<svg xmlns="http://www.w3.org/2000/svg" width="64" height="64" version="1">
    <path d="M4.05 32c-.011.335-.05.663-.05 1 0 15.512 12.488 28 28 28 15.51 0 27.998-12.488 27.998-28 0-.337-.04-.665-.05-1C59.42 47.043 47.173 59 32 59 16.825 59 4.578 47.042 4.05 32z" opacity=".2"/>
    <path d="M59.998 32C59.998 16.49 47.511 4.003 32 4.003 16.488 4.002 4 16.489 4 32c0 15.511 12.488 28 28 28 15.51 0 27.998-12.489 27.998-28z" fill="#504945"/>
    <path d="M32 4.002C16.488 4.002 4 16.488 4 32c0 .114.011.224.018.336C4.369 17.135 16.71 5 32 5s27.63 12.135 27.982 27.336c.007-.112.018-.223.018-.336A27.938 27.938 0 0 0 32 4.002z" opacity=".1" fill="#F9F5D7"/>
    <path d="M46.82 19.006c-.852-.04-3.253.245-7.006 2.855-2.099-.633-4.495-.867-6.994-.861-2.285.006-4.655.193-6.959.861-3.754-2.61-5.672-2.893-6.525-2.853-.284.013-.422.056-.422.056-1.427 3.703-.524 6.441-.254 7.122C16.984 28.065 16 30.464 16 33.4c0 10.308 6.679 12.617 12.498 13.295-.748.672-1.219 2.062-1.457 3.8-1.493.688-5.498 2.373-7.836-1.737 0 0-1.383-2.584-4.014-2.774 0 0-2.557-.033-.177 1.635 0 0 1.718.828 2.91 3.936 0 0 1.77 4.73 9.06 3.105.006 1.048.01 3.007.016 4.89a28.156 28.156 0 0 0 12.998-.707c.007-2.521.014-5.312.014-7.187 0-2.508-1.037-4.15-1.977-4.98C43.872 46.01 50 43.734 50 33.4c0-2.936-.816-5.337-2.496-7.216.269-.68 1.17-3.417-.26-7.12 0 0-.138-.045-.422-.058h-.002z" opacity=".2"/>
    <path d="M46.82 18.006c-.852-.04-3.253.245-7.006 2.855-2.099-.633-4.495-.867-6.994-.861-2.285.006-4.655.193-6.959.861-3.754-2.61-5.672-2.893-6.525-2.853-.284.013-.422.056-.422.056-1.427 3.703-.524 6.441-.254 7.122C16.984 27.065 16 29.464 16 32.4c0 10.308 6.679 12.617 12.498 13.295-.748.672-1.219 2.062-1.457 3.8-1.493.688-5.498 2.373-7.836-1.737 0 0-1.383-2.584-4.014-2.774 0 0-2.557-.033-.177 1.635 0 0 1.718.828 2.91 3.936 0 0 1.77 4.73 9.06 3.105.008 1.262.014 3.615.02 5.89a28.155 28.155 0 0 0 12.992-.707c.008-2.774.016-6.051.016-8.187 0-2.508-1.037-4.15-1.977-4.98C43.872 45.01 50 42.734 50 32.4c0-2.936-.816-5.337-2.496-7.216.269-.68 1.17-3.417-.26-7.12 0 0-.138-.045-.422-.058h-.002z" fill="#F9F5D7"/>
</svg>
