<svg xmlns="http://www.w3.org/2000/svg" width="64" height="64" version="1">
    <path d="M26 14a10.001 10.001 0 0 0-10 10v6h-2A10.001 10.001 0 0 0 4 40v2a10.001 10.001 0 0 0 10 10h36a10.001 10.001 0 0 0 10-10V30a10.001 10.001 0 0 0-10-10h-.84A10.001 10.001 0 0 0 40 14z" opacity=".2"/>
    <path d="M26 13a10.001 10.001 0 0 0-10 10v6h-2A10.001 10.001 0 0 0 4 39v2a10.001 10.001 0 0 0 10 10h36a10.001 10.001 0 0 0 10-10V29a10.001 10.001 0 0 0-10-10h-.84A10.001 10.001 0 0 0 40 13z" fill="#F9F5D7"/>
    <path d="M25 22v10h22v6H13v4h38V28H29v-2h12v-4z" fill="#FD8019"/>
    <path d="M26 13a10.001 10.001 0 0 0-10 10v1a10.001 10.001 0 0 1 10-10h14a10.001 10.001 0 0 1 9.16 6H50a10.001 10.001 0 0 1 10 10v-1a10.001 10.001 0 0 0-10-10h-.84A10.001 10.001 0 0 0 40 13H26zM14 29A10.001 10.001 0 0 0 4 39v1a10.001 10.001 0 0 1 10-10h2v-1h-2z" opacity=".2" fill="#F9F5D7"/>
</svg>
