<svg xmlns="http://www.w3.org/2000/svg" width="64" height="64" version="1">
    <path d="M50.004 21.942a3 3 0 0 0-2.992 3.32s.28 2.81-1.399 6.492C43.933 35.434 40.868 39 32 39c-8.868 0-11.934-3.565-13.613-7.246-1.68-3.681-1.399-6.492-1.399-6.492a3 3 0 1 0-5.976-.523s-.509 4.188 1.918 9.507c2.188 4.797 7.246 9.677 16.07 10.59V53H18a3 3 0 1 0 0 6h28a3 3 0 0 0 0-6H35v-8.164c8.824-.913 13.882-5.793 16.07-10.59 2.427-5.319 1.918-9.507 1.918-9.507a3 3 0 0 0-2.984-2.797z" opacity=".2" fill-rule="evenodd"/>
    <rect width="30" height="26" x="-37" y="-45" rx="12.501" ry="13" transform="matrix(0 -1 -1 0 0 0)" opacity=".2"/>
    <path d="M50.004 20.942a3 3 0 0 0-2.992 3.32s.28 2.81-1.399 6.492C43.933 34.434 40.868 38 32 38c-8.868 0-11.934-3.565-13.613-7.246-1.68-3.681-1.399-6.492-1.399-6.492a3 3 0 1 0-5.976-.523s-.509 4.188 1.918 9.507c2.188 4.797 7.246 9.677 16.07 10.59V52H18a3 3 0 1 0 0 6h28a3 3 0 0 0 0-6H35v-8.164c8.824-.913 13.882-5.793 16.07-10.59 2.427-5.319 1.918-9.507 1.918-9.507a3 3 0 0 0-2.984-2.797z" fill="#504945" fill-rule="evenodd"/>
    <rect width="30" height="26" x="-36" y="-45" rx="12.501" ry="13" transform="matrix(0 -1 -1 0 0 0)" fill="#928274"/>
    <path d="M32 6c-7.202 0-13 5.575-13 12.5v1C19 12.575 24.798 7 32 7s13 5.575 13 12.5v-1C45 11.575 39.202 6 32 6z" opacity=".1" fill="#F9F5D7"/>
    <path d="M50.004 20.941a3 3 0 0 0-2.992 3.32s.004.18.01.302a3 3 0 0 1 5.966.175s.02.28.033.6c.038-1.013-.033-1.6-.033-1.6a3 3 0 0 0-2.984-2.797zm-36.082.016a3 3 0 0 0-2.91 2.781s-.071.587-.033 1.6c.013-.32.033-.6.033-.6a3 3 0 0 1 2.91-2.781 3 3 0 0 1 3.055 2.613l.011-.308a3 3 0 0 0-3.066-3.305zm3.064 4.053c-.001.084.011.166.002.252 0 0-.28 2.81 1.399 6.492C20.067 35.434 23.132 39 32 39c8.868 0 11.934-3.565 13.613-7.246 1.68-3.681 1.399-6.492 1.399-6.492-.009-.078.002-.152 0-.229-.023 1.058-.223 3.144-1.399 5.72C43.933 34.436 40.868 38 32 38c-8.868 0-11.934-3.565-13.613-7.246-1.183-2.593-1.38-4.693-1.4-5.744zM18 52a3 3 0 0 0-3 3c0 .171.023.337.05.5A2.993 2.993 0 0 1 18 53h11v-1H18zm17 0v1h11a2.993 2.993 0 0 1 2.95 2.5c.027-.163.05-.329.05-.5a3 3 0 0 0-3-3H35z" opacity=".1" fill="#F9F5D7" fill-rule="evenodd"/>
</svg>
