<svg xmlns="http://www.w3.org/2000/svg" width="64" height="64" version="1">
    <path d="M17.964 17.286L8.467 28.684c-1.958 2.349-1.955 6.28.003 8.63l19.932 23.923c1.958 2.349 5.236 2.352 7.194.002l19.936-23.923c1.957-2.35 1.957-6.283 0-8.632l-9.497-11.398z" opacity=".2"/>
    <path d="M17.964 16.286L8.467 27.684c-1.958 2.349-1.955 6.28.003 8.63l19.932 23.923c1.958 2.349 5.236 2.352 7.194.002l19.936-23.923c1.957-2.35 1.957-6.283 0-8.632l-9.497-11.398z" fill="#504945"/>
    <path d="M32 3c-1.415 0-2.83.527-3.888 1.584L6.584 26.114c-2.114 2.115-2.111 5.654.003 7.768l21.528 21.53c2.115 2.115 5.657 2.118 7.771.004l21.528-21.53c2.115-2.115 2.115-5.657 0-7.771L35.886 4.585C34.83 3.526 33.414 3 32 3z" opacity=".2"/>
    <path d="M32 2c-1.415 0-2.83.527-3.888 1.584L6.584 25.114c-2.114 2.115-2.111 5.654.003 7.768l21.528 21.53c2.115 2.115 5.657 2.118 7.771.004l21.528-21.53c2.115-2.115 2.115-5.657 0-7.771L35.886 3.585C34.83 2.526 33.414 2 32 2z" fill="#F9F5D7"/>
    <path d="M31.695 5.98l-.285.188-.12.363-.056.39-.187.618-.133-.207.063.754-.04.168v.285l.11.223.098.304.187.247.078.105.059.285-.235.176.098.254-.23.285.043.223.058.226.188.223.164.207.23.195.04.168-.083.246-.187.164-.086.14.027.352.29.184.163.176.102.355-.309.36-.047.254.13.285.183.226v.227l.14.176.13.144.097.168-.059.285.184.262.168.04.062.128-.062.227.16.32.168.129.125.262-.125.453.188.41.175.078.09.187.035.528-.097.226-.09.262.27 1.332.468.305L34 26.324l-.55 6.242-.329 3.61-.531 4.387-.207.527-1.75-2.985-.602-4.003-.777-6.504-.926-6.028.07 5.504.325 4.551.558 4.336-3.906-6.16-5.613-8.371-1.29-1.778h-.105l.371 1.067.703 1.73 1.024 2.313 1.789 3.816 1.082 1.918 1.34 2.313 2.765 4.355 2.5 3.957.387 3.543 1.192 8.098-.004-.004L30.14 48.5l-2.915-7.137-2.324-4.797-3.082-4.98-1.562-2.047-1.25-1.242-2.04-1.883.848 1.039 1.368 1.39.808.903.531.918.637 1.02 1.047 1.78.906 1.653.922 2.047 1.133 2.734 2.215 5.696 2.324 6.011 1.394 4.25.016.059c.63.1 1.271.106 1.899-.008l-.563-3.613.07-.969.41-1.45.438-1.331.469-1.047 1.539 2.563 1.492 2.714.117.54 2.508-2.508.852-6.364 2.214-10.675 1.43-7.243 2.895-5.707.43-1.183.16-.7.058-1.124-.176-.899-.418-.816-.754-.754.04.207.37.383.344.804.043.645-.472 1.293-.61 1.387-1.312 2.343.73-5.406.2-2.773-.079-.082-.18-.032-1.468 9.711-.274.489-2.414 4.515-3.078 6.07-2.59 5.266L34 43.832l-.817-1.39.508-1.048 2.817-5.375 2.855-4.738 1.192-2.308.984-1.922.266-.653.058-.64-.117-.489h-.121l-.086.43-.492 1.125-1.192 2-3.406 5.207-1.937 2.86-1.328 2.34.816-8.06.305-3.433.129-7.265h-.024l.063-.243.187-.453.145-.41.18-.305v-.597l-.06-.754.266-.488-.12-.715v-.54l.1-.304.208-.676.144-.36-.273-.452.234-.45-.375-.265-.226-.672.324-.531-.453-.145-.195-.355v-.301l-.204-.344-.21-.187.023-.285v-.313l-.102-.851L34 8.988l-.309-.226-.144-.266-.348-.164-.203-.371.035-.422-.035-.43-.23-.37-.391-.083-.367-.125-.184-.265zM42.406 29.56l-.394 1.636-1.782 7.086-.867 4.024-.906 4.867-1.004 3.172-.351-.82-2.286-4.211.766-1.774 2.5-5.207 1.34-2.8 1.793-3.762zm2.215 5.277l-.328 1.879-.926 3.12-.922 2.313-1.023 3.008-.543 2.953-.254 1.567 1.73-1.73.149-1.188.492-2.348 1.074-4.2.489-3.112zM17.61 36.852l.079.078-.024-.04zm.079.078l1.167 2.21 1.075 2.481 1.617 3.652.707 1.614.828 2.492 4.273 4.273L27 52.324l-.75-1.414-1.633-3.101-2.304-4.133-1.625-2.653-1.504-2.289-.817-1.129zm13.683 6.472l.746 1.243-.156 2.898-.121.086zm1.262 2.086l.43.715-.333.781-.25.176z" fill="#7CB668"/>
    <path d="M32 2c-1.414 0-2.83.529-3.887 1.586L6.586 25.113c-1.18 1.181-1.689 2.808-1.549 4.381.109-1.24.618-2.45 1.549-3.38L28.113 4.585A5.482 5.482 0 0 1 32 3c1.414 0 2.83.529 3.887 1.586l21.527 21.527c.932.932 1.443 2.142 1.553 3.383.14-1.575-.371-3.201-1.553-4.383L35.887 3.586A5.482 5.482 0 0 0 32 2z" opacity=".2" fill="#F9F5D7"/>
</svg>
