<svg xmlns="http://www.w3.org/2000/svg" width="64" height="64" version="1">
    <path d="M5.134 23.487l-.215.37c-.316.56-.178 1.333.309 1.75l4.437 3.895c.045-.614.109-1.22.199-1.824l-4.636-4.07c-.04-.036-.06-.084-.094-.122zm53.732 0c-.034.038-.054.087-.093.12l-4.637 4.071c.09.604.154 1.211.2 1.824l4.437-3.894c.486-.418.624-1.191.308-1.75l-.214-.372zm-49.22 8.516c-.017.332-.043.661-.043 1 0 .507.026 1.005.062 1.5l.2-.176c-.115-.766-.18-1.54-.22-2.324zm44.708 0a23.72 23.72 0 0 1-.218 2.324l.199.175c.036-.494.062-.992.062-1.5 0-.338-.026-.667-.043-1zm-49.22 8.515c-.395.434-.505 1.114-.215 1.628l5.601 9.711c.325.55 1.056.822 1.66.613L18 50.5a22.548 22.548 0 0 0 5.864 3.371l1.18 5.992c.12.628.716 1.128 1.355 1.137h11.203c.638-.008 1.235-.51 1.355-1.137l1.18-5.992a22.58 22.58 0 0 0 5.86-3.372l5.82 1.97c.604.208 1.335-.063 1.66-.614l5.601-9.71c.29-.515.18-1.196-.214-1.63l-5.387 9.34c-.325.55-1.056.821-1.66.613l-5.822-1.97a22.542 22.542 0 0 1-5.863 3.367l-1.18 5.996c-.118.626-.716 1.128-1.354 1.136H26.395a1.443 1.443 0 0 1-1.355-1.137l-1.178-5.996a22.538 22.538 0 0 1-5.864-3.367l-5.82 1.968c-.605.21-1.335-.062-1.66-.612l-5.387-9.34z" opacity=".2"/>
    <path d="M26.268 4.003a1.44 1.44 0 0 0-1.225 1.137l-1.18 5.993A22.534 22.534 0 0 0 18 14.503l-5.818-1.97c-.605-.208-1.338.062-1.663.613l-5.6 9.712c-.315.559-.18 1.332.307 1.75l4.637 4.069A22.331 22.331 0 0 0 9.601 32c0 1.137.099 2.234.262 3.325l-4.637 4.07c-.487.417-.622 1.19-.306 1.749l5.6 9.712c.324.55 1.057.821 1.662.613L18 49.5a22.54 22.54 0 0 0 5.863 3.37l1.18 5.993c.12.627.718 1.129 1.357 1.138h11.2c.638-.008 1.236-.51 1.356-1.138l1.18-5.993A22.534 22.534 0 0 0 46 49.5l5.818 1.97c.605.208 1.338-.062 1.663-.613l5.6-9.712c.315-.559.18-1.332-.306-1.75l-4.638-4.069a22.33 22.33 0 0 0 .263-3.325c0-1.136-.1-2.233-.263-3.324l4.638-4.069c.486-.418.621-1.191.306-1.75l-5.6-9.712c-.324-.552-1.058-.822-1.662-.613L46 14.5a22.54 22.54 0 0 0-5.862-3.37l-1.182-5.993c-.12-.627-.718-1.129-1.356-1.137H26.4a2.813 2.813 0 0 0-.13 0z" fill="#7CB668"/>
    <path d="M32 21c6.627 0 12 5.373 12 12 0 6.628-5.373 12-12 12s-12-5.372-12-12c0-6.627 5.373-12 12-12z" opacity=".2"/>
    <path d="M32 20.001c6.627 0 12 5.373 12 12s-5.373 12-12 12-12-5.373-12-12 5.373-12 12-12z" fill="#F9F5D7"/>
    <path d="M32 14.001c-9.928 0-18 8.071-18 18 0 9.928 8.072 18 18 18 9.929 0 18-8.072 18-18 0-9.929-8.071-18-18-18zm0 2.118c8.784 0 15.882 7.098 15.882 15.882 0 8.784-7.098 15.882-15.882 15.882-8.784 0-15.882-7.098-15.882-15.882 0-8.784 7.098-15.882 15.882-15.882z" opacity=".2"/>
    <path d="M30.152 14.096c-9.062.928-16.15 8.6-16.15 17.904 0 9.929 8.07 18 17.999 18 1.49 0 2.929-.202 4.314-.544.128-.296.354-.8.256-1.195-.09-.366-.389-.677-.724-.867a15.923 15.923 0 0 1-3.845.488c-8.784 0-15.882-7.098-15.882-15.882 0-8.375 6.457-15.2 14.67-15.819.317-.344.438-.713.379-1.198-.062-.498-.445-.769-1.016-.887z" fill="#FECE4F"/>
    <path d="M26.27 4l-.002.002a1.44 1.44 0 0 0-1.225 1.139l-1.182 5.992A22.53 22.53 0 0 0 18 14.502l-5.818-1.969c-.605-.208-1.338.063-1.662.613l-5.6 9.711c-.202.358-.202.796-.06 1.18.022-.06.029-.124.06-.18l5.6-9.712c.324-.551 1.057-.82 1.662-.612L18 15.502a22.53 22.53 0 0 1 5.861-3.37l1.182-5.993a1.439 1.439 0 0 1 1.225-1.137L26.27 5H37.6c.638.009 1.235.51 1.355 1.137l1.182 5.994c2.12.83 4.113 1.968 5.863 3.369l5.818-1.969c.604-.208 1.338.062 1.662.614l5.6 9.712c.031.055.038.12.06.178.14-.383.141-.821-.06-1.178l-5.6-9.71c-.324-.552-1.058-.822-1.662-.614L46 14.502a22.552 22.552 0 0 0-5.863-3.371l-1.182-5.992c-.12-.628-.717-1.13-1.355-1.139H26.4a2.798 2.798 0 0 0-.13 0zM9.756 29.582a21.21 21.21 0 0 0-.156 2.42c0 .17.017.332.021.5.025-.959.103-1.897.242-2.826l-.107-.094zm44.486.002l-.105.092c.139.929.215 1.867.24 2.826.004-.168.021-.33.021-.5 0-.823-.065-1.624-.156-2.418zm0 5.834c-.034.303-.06.607-.105.908l4.636 4.069c.176.15.288.355.368.572.204-.537.07-1.196-.368-1.572l-4.53-3.977zm-44.486.002l-4.53 3.975c-.437.376-.57 1.034-.367 1.57.08-.216.192-.42.368-.57l4.636-4.069c-.045-.3-.073-.604-.107-.906z" fill="#F9F5D7" opacity=".2"/>
</svg>
