<svg xmlns="http://www.w3.org/2000/svg" width="64" height="64">
    <path d="M59.693 57.535l.183.667C60.29 59.695 58.632 61 57.086 61H6.854c-1.546 0-3.203-1.305-2.79-2.798l.184-.663c.468.855 1.555 1.463 2.606 1.463h50.232c1.053 0 2.14-.61 2.607-1.467z" opacity=".2"/>
    <path d="M4.065 57.2L18.033 6.8c.414-1.495 1.246-2.8 2.793-2.8h22.348c1.548 0 2.38 1.305 2.794 2.8l13.968 50.4c.414 1.495-1.246 2.8-2.794 2.8H6.858c-1.548 0-3.208-1.305-2.794-2.8z" fill="#504945"/>
    <path d="M43.174 4c1.547 0 2.38 1.306 2.795 2.8l13.967 50.4c.09.326.067.64-.018.937L45.968 7.8C45.556 6.306 44.722 5 43.175 5H20.826c-1.548 0-2.379 1.306-2.793 2.8L4.082 58.138a1.701 1.701 0 0 1-.018-.938l13.97-50.398C18.446 5.306 19.277 4 20.825 4z" opacity=".1" fill="#F9F5D7"/>
    <circle cx="-32" cy="49" r="8" transform="scale(-1 1)" opacity=".2"/>
    <circle cx="-32" cy="48" r="8" transform="scale(-1 1)" fill="#7B6F64"/>
    <rect width="5.994" height="41.955" x="-5.76" y="20.37" rx="2.883" ry="3.258" transform="scale(-1 1) rotate(30)" opacity=".2"/>
    <rect width="5.994" height="41.955" x="-6.76" y="18.63" rx="2.883" ry="3.258" transform="scale(-1 1) rotate(30)" fill="#F9F5D7"/>
    <path d="M26 5l6 10 6-10z" opacity=".2"/>
    <path d="M26 4l6 10 6-10z" fill="#F9F5D7"/>
</svg>
