<svg xmlns="http://www.w3.org/2000/svg" width="64" height="64" version="1">
    <path d="M22.098 49c-.048.33-.098.658-.098 1 0 3.878 3.122 7 7 7s7-3.122 7-7c0-.342-.05-.67-.098-1-.486 3.396-3.366 6-6.902 6s-6.416-2.604-6.902-6zM40.098 47c-.048.33-.098.658-.098 1 0 3.878 3.122 7 7 7s7-3.122 7-7c0-.342-.05-.67-.098-1-.486 3.396-3.366 6-6.902 6s-6.416-2.604-6.902-6z" opacity=".2"/>
    <rect width="14" height="14" x="-54" y="-54" rx="7" ry="7" transform="matrix(0 -1 -1 0 0 0)" fill="#B16286"/>
    <path d="M22.156 36.148l-12.781.77L8 39l15.274-.918-1.118-1.934z" opacity=".2"/>
    <path d="M8 38l8.43-12.768 6.842 11.851z" fill="#48B9C7"/>
    <path d="M16.43 25.234L8 38l.688-.041 7.742-11.725 6.285 10.881.558-.033-6.843-11.848z" opacity=".1" fill="#F9F5D7"/>
    <path d="M8 27l-2 1 14 7v-2L8 27z" opacity=".2"/>
    <path d="M6 27l14-7v14z" fill="#066678"/>
    <path d="M20 20L6 27l1 .5L20 21v-1z" opacity=".1" fill="#F9F5D7"/>
    <path d="M22.988 15.781l-.566.117L19.445 27l-9.613-8.527L8 18.848 19.445 29l3.543-13.219z" opacity=".2"/>
    <path d="M8 17.85l14.988-3.068L19.447 28z" fill="#066678"/>
    <path d="M22.988 14.781L8 17.848l.916.812 13.79-2.82.282-1.059z" opacity=".1" fill="#F9F5D7"/>
    <path d="M14 10.234L22.43 23c8.533-13.637 7.18-14.789 0-2l-7.055-10.684z" opacity=".2"/>
    <path d="M14 9.232l15.272.917L22.43 22z" fill="#066678"/>
    <path d="M14 9.234l.688 1.041 14.027.84.558-.967L14 9.234z" opacity=".1" fill="#F9F5D7"/>
    <path d="M18.05 28c-.016.334-.05.662-.05 1 0 11.08 8.92 20 20 20s20-8.92 20-20c0-.338-.034-.666-.05-1-.522 10.608-9.208 19-19.95 19-10.742 0-19.428-8.392-19.95-19z" opacity=".2"/>
    <rect width="40" height="40" x="-48" y="-58" rx="20" ry="20" transform="matrix(0 -1 -1 0 0 0)" fill="#8F3F71"/>
    <g transform="matrix(1.33334 0 0 1.27272 8.667 -1.363)" opacity=".2">
        <ellipse cx="26" cy="22" rx="4" ry="5"/>
        <ellipse cx="30" cy="21" rx="4" ry="5"/>
    </g>
    <rect width="14" height="14" x="-56" y="-36" rx="7" ry="7" transform="matrix(0 -1 -1 0 0 0)" fill="#B16286"/>
    <g transform="matrix(1.33334 0 0 1.27272 8.667 -2.364)" fill="#F9F5D7">
        <ellipse cx="26" cy="22" rx="4" ry="5"/>
        <ellipse cx="30" cy="21" rx="4" ry="5"/>
    </g>
    <ellipse cx="45.5" cy="26" rx="1.5" ry="2" fill="#1B1B1B"/>
    <path d="M50.598 36c-2.185.525-3.53 2.285-5.685 2.763-1.551.302-3.593-.98-5.046-.264-.814.4-2.923 1.458-1.221 2.14 0 0 1.003.405 2.267.767 1.265.361 2.73.773 4.28.511 1.75-.296 3.16-1.31 4.355-2.202 1.195-.892 2.08-1.73 2.08-1.73.824-.758.192-1.976-1.03-1.986z" opacity=".6" fill-rule="evenodd"/>
    <ellipse cx="51.5" cy="24" rx="1.5" ry="2" fill="#1B1B1B"/>
    <path d="M38 8c-11.08 0-20 8.92-20 20 0 .11.01.218.016.326A19.952 19.952 0 0 1 38 9a19.952 19.952 0 0 1 19.984 19.326c.006-.108.016-.216.016-.326 0-11.08-8.92-20-20-20zM29 42c-3.878 0-7 3.122-7 7 0 .342.05.67.098 1 .486-3.396 3.366-6 6.902-6s6.416 2.604 6.902 6c.048-.33.098-.658.098-1 0-3.878-3.122-7-7-7z" opacity=".1" fill="#F9F5D7"/>
</svg>
