<svg xmlns="http://www.w3.org/2000/svg" width="64" height="64" version="1">
    <path d="M54.512 32.229c0 15.464-5.066 26.551-20.53 26.551C24.248 58.78 14 53 8.675 47.495a27.86 27.86 0 0 1-3.78-8.443C4.312 36.799 5 34.436 5 32 5 16.536 16.993 7.811 32.457 7.811s22.055 8.954 22.055 24.418z" fill="#F9F5D7"/>
    <path d="M31.1 19.1C18.342 19.1 8 29.44 8 42.2c.008 1.74.225 3.471.621 5.163l.006.028a28 28 0 0 0 13.95 10.94c.354.004.722.042 1.126.165 2.26-.04 4.553-.19 6.697-.195-1.114-3.436-5.497-9.429-5.6-15.4 1.625-10.078 6.913-18.682 16.02-21.628A23.1 23.1 0 0 0 31.1 19.1z" fill="#066678"/>
    <path d="M33.935 27.658C28.518 31.604 24.51 37.898 24.5 44.6c.007 5.436-1.5 13.4 7.249 14.535.403.052 1.958-.407 2.251-.135 5.018-.196 8.297-.747 12.29-3.23-9.028-.328-16.18-7.736-16.19-16.77.008-4.202.99-8.25 3.835-11.342z" fill="#928274"/>
    <path d="M36.1 21C23.342 21 13 31.342 13 44.1c.009 3.678.9 7.29 2.582 10.546a28 28 0 0 0 14.91 5.278c-.227-.63-.545-1.334-.918-2.1A20.999 20.999 0 0 1 25 44.801c.01-5.95 4.208-12.968 8.635-16.944 4.796-4.438 10.754-5.293 10.754-5.293A23.107 23.107 0 0 0 36.099 21z" fill="#8F3F71"/>
    <path d="M32 5A28 28 0 0 0 4 33a28 28 0 0 0 1.072 7.65A21 21 0 0 1 5 39a21 21 0 0 1 21-21 21 21 0 0 1 21 21 21 21 0 0 1-21 21 21 21 0 0 1-1.613-.082A28 28 0 0 0 32 61a28 28 0 0 0 28-28A28 28 0 0 0 32 5z" opacity=".2"/>
    <path d="M32 4A28 28 0 0 0 4 32a28 28 0 0 0 1.072 7.65A21 21 0 0 1 5 38a21 21 0 0 1 21-21 21 21 0 0 1 21 21 21 21 0 0 1-21 21 21 21 0 0 1-1.613-.082A28 28 0 0 0 32 60a28 28 0 0 0 28-28A28 28 0 0 0 32 4z" fill="#CB241D"/>
    <path d="M32 4A28 28 0 0 0 4 32a28 28 0 0 0 .021.41A28 28 0 0 1 32 5a28 28 0 0 1 27.979 27.586A28 28 0 0 0 60 32 28 28 0 0 0 32 4zm14.979 34.414A21 21 0 0 1 26 59a21 21 0 0 1-1.613-.082 28 28 0 0 0 4.482.861A21 21 0 0 0 47 39a21 21 0 0 0-.021-.586zm-41.956.121A21 21 0 0 0 5 39a21 21 0 0 0 .02.432 28 28 0 0 0 .052.218 21 21 0 0 1-.049-1.115z" opacity=".2" fill="#F9F5D7"/>
</svg>
