<svg xmlns="http://www.w3.org/2000/svg" width="64" height="64" version="1">
    <circle cx="32" cy="33" r="28" opacity=".2"/>
    <circle cx="32" cy="32" r="28" fill="#48B9C7"/>
    <g opacity=".2">
        <path d="M42.103 25.789c-.821.192-1.591.584-2.267 1.069-1.108 1.508-2.645 2.726-4.688 3.206-.776-.564-1.721-1.217-2.366-1.96-2.958.337-7.03.99-7.731 3.826-.73 2.944 1.208 6.789 2.785 7.012 1.497.207 6.309-1.124 8.635-1.747-1.948-1.514-4.191-2.178-5.414-2.256-1.442-.114-2.684.143-3.977.475 1.889-1.213 3.599-2.118 5.289-2.455 1.268-.239 3.237-.247 5.603.633 2.933 1.093 3.633 2.653 5.692 3.355 1.362-.213.671-1.717.389-2.762-.189-.569-.339-1-.399-1.188-.104-.317-1.575-4.063-1.789-5.028-.144-.659-.021-1.514.239-2.183M34.999 19.894c-2.053.862-2.123 2.489-2.238 4.255.861-.776 3.565-1.346 4.296-1.975 2.157-1.861 2.993-5.705 2.54-5.137-1.466 1.846-3.844 2.44-4.598 2.856M23.694 45.729s-2.038-1.346-1.998-1.776c1.338-7.219-3.276-2.084-3.624 1.148-.368 3.102.78 6.68.949 6.898.274-2.534.517-3.939 4.673-6.275m0 .005"/>
        <path d="M45.981 29.821c-.105-2.687-1.8-4.543-2.953-4.107-.492.183-.816 1.435-.646 2.212.566 2.761 2.897 5.952 2.321 8.684-.433 1.306-4.261 2.118-4.261 2.118s-.075 1.118-.219 1.88c-.174.924-.527 1.658-.527 1.658s.91.812.944.812c.04 0 5.728-2.939 5.339-13.257"/>
        <path d="M43.451 37.219c-.945-.381-1.273-.545-2.506-1.454-6.816-5.068-13.09-.678-12.967-.722 1.129-.356 2.407-.678 4.062-.574 1.337.088 3.116.929 5.314 2.746 1.477 1.292 3.714 1.454 6.09.005m.005 0M37.053 22.739c-2.52.807-3.883 1.5-4.291 1.822-.834 2.118.851 3.712 2.387 4.83 2.018-.475 3.698-1.964 4.449-3.602-.393.054-.811-.021-1.273-.278-.899-.504-1.447-1.716-1.272-2.772"/>
        <path d="M40.721 22.339c-.165-.643-.691-1.469-.835-1.469-.13 0-1.531 1.038-1.894 1.396-.821.817-.423 2.305.487 2.811 1.542.861 2.679-1.03 2.243-2.737M39.523 20.161c.616-.589 1.437-1.554 1.651-3.023.124-1.317-.199-2.129-.597-3.138-.194 1.97-.483 4.161-1.83 6.487-.423.732-.194.599.775-.327M22.232 40.559c.214.535.199 1.55-.119 3.287-.006.015 0 .025 0 .039.224.311.685.688 1.147 1.03 1.591-.738 3.59-2.118 3.461-2.139-.85-.143-3.48-.781-4.489-2.217"/>
        <path d="M36.774 37.466c-.07 0-.125 0-.279.039-1.979.55-7.034 1.836-7.824 2.692-.308.654-.611 3.261-5.052 4.914-.124.044 3.729 2.524 3.938 2.534 12.578.524 12.563-8.458 12.399-8.868-1.223.02-2.262-.405-3.062-1.188-.04-.039-.075-.08-.12-.119"/>
    </g>
    <g fill="#B7BB25">
        <path d="M42.103 24.789c-.821.192-1.591.584-2.267 1.069-1.108 1.508-2.645 2.726-4.688 3.206-.776-.564-1.721-1.217-2.366-1.96-2.958.337-7.03.99-7.731 3.826-.73 2.944 1.208 6.789 2.785 7.012 1.497.207 6.309-1.124 8.635-1.747-1.948-1.514-4.191-2.178-5.414-2.256-1.442-.114-2.684.143-3.977.475 1.889-1.213 3.599-2.118 5.289-2.455 1.268-.239 3.237-.247 5.603.633 2.933 1.093 3.633 2.653 5.692 3.355 1.362-.213.671-1.717.389-2.762-.189-.569-.339-1-.399-1.188-.104-.317-1.575-4.063-1.789-5.028-.144-.659-.021-1.514.239-2.183M34.999 18.894c-2.053.862-2.123 2.489-2.238 4.255.861-.776 3.565-1.346 4.296-1.975 2.157-1.861 2.993-5.705 2.54-5.137-1.466 1.846-3.844 2.44-4.598 2.856M23.694 44.729s-2.038-1.346-1.998-1.776c1.338-7.219-3.276-2.084-3.624 1.148-.368 3.102.78 6.68.949 6.898.274-2.534.517-3.939 4.673-6.275m0 .005"/>
        <path d="M45.981 28.821c-.105-2.687-1.8-4.543-2.953-4.107-.492.183-.816 1.435-.646 2.212.566 2.761 2.897 5.952 2.321 8.684-.433 1.306-4.261 2.118-4.261 2.118s-.075 1.118-.219 1.88c-.174.924-.527 1.658-.527 1.658s.91.812.944.812c.04 0 5.728-2.939 5.339-13.257"/>
        <path d="M43.451 36.219c-.945-.381-1.273-.545-2.506-1.454-6.816-5.068-13.09-.678-12.967-.722 1.129-.356 2.407-.678 4.062-.574 1.337.088 3.116.929 5.314 2.746 1.477 1.292 3.714 1.454 6.09.005m.005 0M37.053 21.739c-2.52.807-3.883 1.5-4.291 1.822-.834 2.118.851 3.712 2.387 4.83 2.018-.475 3.698-1.964 4.449-3.602-.393.054-.811-.021-1.273-.278-.899-.504-1.447-1.716-1.272-2.772"/>
        <path d="M40.721 21.339c-.165-.643-.691-1.469-.835-1.469-.13 0-1.531 1.038-1.894 1.396-.821.817-.423 2.305.487 2.811 1.542.861 2.679-1.03 2.243-2.737M39.523 19.161c.616-.589 1.437-1.554 1.651-3.023.124-1.317-.199-2.129-.597-3.138-.194 1.97-.483 4.161-1.83 6.487-.423.732-.194.599.775-.327M22.232 39.559c.214.535.199 1.55-.119 3.287-.006.015 0 .025 0 .039.224.311.685.688 1.147 1.03 1.591-.738 3.59-2.118 3.461-2.139-.85-.143-3.48-.781-4.489-2.217"/>
        <path d="M36.774 36.466c-.07 0-.125 0-.279.039-1.979.55-7.034 1.836-7.824 2.692-.308.654-.611 3.261-5.052 4.914-.124.044 3.729 2.524 3.938 2.534 12.578.524 12.563-8.458 12.399-8.868-1.223.02-2.262-.405-3.062-1.188-.04-.039-.075-.08-.12-.119"/>
    </g>
    <path d="M32 4A28 28 0 0 0 4 32a28 28 0 0 0 .021.586A28 28 0 0 1 32 5a28 28 0 0 1 27.979 27.414A28 28 0 0 0 60 32 28 28 0 0 0 32 4z" opacity=".2" fill="#F9F5D7"/>
</svg>
