<svg xmlns="http://www.w3.org/2000/svg" width="64" height="64" version="1">
    <path d="M60 56.222V11.778A2.783 2.783 0 0 0 57.2 9H6.8A2.783 2.783 0 0 0 4 11.778v44.444A2.783 2.783 0 0 0 6.8 59h50.4c1.551 0 2.8-1.239 2.8-2.778z" opacity=".2"/>
    <path d="M60 55.222V10.778A2.783 2.783 0 0 0 57.2 8H6.8A2.783 2.783 0 0 0 4 10.778v44.444A2.783 2.783 0 0 0 6.8 58h50.4c1.551 0 2.8-1.239 2.8-2.778z" fill="#504945"/>
    <path d="M6.8 8A2.783 2.783 0 0 0 4 10.777v1A2.783 2.783 0 0 1 6.8 9h50.4c1.55 0 2.8 1.238 2.8 2.777v-1A2.783 2.783 0 0 0 57.2 8H6.8z" opacity=".1" fill="#F9F5D7"/>
    <path d="M30 8l.078 50H34V8z" fill="#CB241D"/>
    <path d="M22 17v3h4v-3zm-4 6v3h8v-3zm-8 6v3h16v-3zm-4 6v3h20v-3zm4 6v3h16v-3zm8 6v3h8v-3z" opacity=".2" fill-rule="evenodd"/>
    <path d="M22 16v3h4v-3zm-4 6v3h8v-3zm-8 6v3h16v-3zm-4 6v3h20v-3zm4 6v3h16v-3zm8 6v3h8v-3z" fill="#48B9C7" fill-rule="evenodd"/>
    <path d="M40 7H24l4 6 4 6 4-6z" opacity=".2"/>
    <path d="M40 6H24l4 6 4 6 4-6z" fill="#FA4934"/>
    <path d="M39.555 22.402c-.736.04-1.53.687-1.527 1.405L38 44.994c0 .956 1.408 1.789 2.214 1.22l15.179-10.63c.81-.56.809-1.877 0-2.441l-15.15-10.557a1.082 1.082 0 0 0-.687-.184z" opacity=".2"/>
    <path d="M39.555 21.402c-.736.04-1.53.687-1.527 1.405L38 43.994c0 .956 1.408 1.789 2.214 1.22l15.179-10.63c.81-.56.809-1.877 0-2.441l-15.15-10.557a1.082 1.082 0 0 0-.687-.184z" fill="#066678"/>
    <path d="M39.555 21.402c-.737.04-1.53.687-1.528 1.405L38 43.994l.002.008.025-20.195c-.002-.718.791-1.365 1.528-1.405h.002a1.08 1.08 0 0 1 .685.184l15.15 10.557c.259.18.425.44.518.724.202-.607.035-1.34-.517-1.724l-15.15-10.557a1.08 1.08 0 0 0-.686-.184h-.002z" opacity=".1" fill="#F9F5D7"/>
    <path d="M22 16v1h4v-1h-4zm-4 6v1h8v-1h-8zm-8 6v1h16v-1H10zm-4 6v1h20v-1H6zm4 6v1h16v-1H10zm8 6v1h8v-1h-8z" opacity=".1" fill="#F9F5D7" fill-rule="evenodd"/>
</svg>
