<svg xmlns="http://www.w3.org/2000/svg" width="64" height="64" version="1">
    <rect width="56" height="56" x="4" y="5" rx="2.8" ry="2.8" opacity=".2"/>
    <rect width="56" height="56" x="4" y="4" rx="2.8" ry="2.8" fill="#066678"/>
    <path d="M14 32h28M27.8 32L34 18M28 32l6 14h14" stroke-linejoin="round" stroke="#504945" stroke-width="2" fill="none"/>
    <g transform="matrix(2 0 0 2 0 1)" opacity=".2">
        <circle cx="7" cy="16" r="2"/>
        <circle cx="14" cy="16" r="2"/>
        <circle cx="21" cy="16" r="2"/>
        <circle cx="17" cy="23" r="2"/>
        <circle cx="24" cy="23" r="2"/>
        <circle cx="17" cy="9" r="2"/>
    </g>
    <g transform="scale(2)" fill="#F9F5D7">
        <circle cx="7" cy="16" r="2"/>
        <circle cx="14" cy="16" r="2"/>
        <circle cx="21" cy="16" r="2"/>
        <circle cx="17" cy="23" r="2"/>
        <circle cx="24" cy="23" r="2"/>
        <circle cx="17" cy="9" r="2"/>
    </g>
    <path d="M6.8 4C5.25 4 4 5.25 4 6.8v1C4 6.25 5.25 5 6.8 5h50.4C58.75 5 60 6.25 60 7.8v-1C60 5.25 58.75 4 57.2 4H6.8z" opacity=".2" fill="#F9F5D7"/>
</svg>
