<svg xmlns="http://www.w3.org/2000/svg" width="64" height="64" version="1">
    <path d="M6 53.168v2C6 56.738 7.29 58 8.89 58h46.22c1.6 0 2.89-1.262 2.89-2.832v-2C58 54.738 56.71 56 55.11 56H8.89C7.29 56 6 54.738 6 53.168z" opacity=".2"/>
    <rect width="34" height="51.999" x="-57" y="-58" rx="2.834" ry="2.888" transform="matrix(0 -1 -1 0 0 0)" fill="#448588"/>
    <path d="M56 43a3 3 0 0 1-3 3 3 3 0 0 1-3-3 3 3 0 0 1 3-3 3 3 0 0 1 3 3z" opacity=".2"/>
    <path d="M8.89 23C7.29 23 6 24.262 6 25.832v1C6 25.262 7.29 24 8.89 24h46.22c1.6 0 2.89 1.262 2.89 2.832v-1C58 24.262 56.71 23 55.11 23H8.89z" opacity=".2" fill="#F9F5D7"/>
    <path d="M50 35a3 3 0 0 1-3 3 3 3 0 0 1-3-3 3 3 0 0 1 3-3 3 3 0 0 1 3 3z" opacity=".2"/>
    <path d="M50 34a3 3 0 0 1-3 3 3 3 0 0 1-3-3 3 3 0 0 1 3-3 3 3 0 0 1 3 3z" fill="#F9F5D7"/>
    <path d="M20 35a3 3 0 0 1-3 3 3 3 0 0 1-3-3 3 3 0 0 1 3-3 3 3 0 0 1 3 3zM22.666 8h18.666C42.81 8 44 9.241 44 10.783v19.478c0 4.174-9.334 6.958-12 9.74-2.666-2.782-12-5.566-12-9.74V10.784C20 9.242 21.19 8 22.666 8z" opacity=".2"/>
    <path d="M22.666 7h18.666C42.81 7 44 8.243 44 9.784v19.478c0 4.174-9.334 6.958-12 9.74-2.666-2.782-12-5.566-12-9.74V9.784c0-1.542 1.19-2.783 2.666-2.783z" fill="#73C48F"/>
    <path d="M20 34a3 3 0 0 1-3 3 3 3 0 0 1-3-3 3 3 0 0 1 3-3 3 3 0 0 1 3 3z" fill="#F9F5D7"/>
    <path d="M16 43a3 3 0 0 1-3 3 3 3 0 0 1-3-3 3 3 0 0 1 3-3 3 3 0 0 1 3 3z" opacity=".2"/>
    <path d="M16 42a3 3 0 0 1-3 3 3 3 0 0 1-3-3 3 3 0 0 1 3-3 3 3 0 0 1 3 3z" fill="#F9F5D7"/>
    <path d="M26 43a3 3 0 0 1-3 3 3 3 0 0 1-3-3 3 3 0 0 1 3-3 3 3 0 0 1 3 3z" opacity=".2"/>
    <path d="M26 42a3 3 0 0 1-3 3 3 3 0 0 1-3-3 3 3 0 0 1 3-3 3 3 0 0 1 3 3z" fill="#F9F5D7"/>
    <path d="M36 43a3 3 0 0 1-3 3 3 3 0 0 1-3-3 3 3 0 0 1 3-3 3 3 0 0 1 3 3z" opacity=".2"/>
    <path d="M36 42a3 3 0 0 1-3 3 3 3 0 0 1-3-3 3 3 0 0 1 3-3 3 3 0 0 1 3 3z" fill="#F9F5D7"/>
    <path d="M46 43a3 3 0 0 1-3 3 3 3 0 0 1-3-3 3 3 0 0 1 3-3 3 3 0 0 1 3 3z" opacity=".2"/>
    <path d="M46 42a3 3 0 0 1-3 3 3 3 0 0 1-3-3 3 3 0 0 1 3-3 3 3 0 0 1 3 3zM56 42a3 3 0 0 1-3 3 3 3 0 0 1-3-3 3 3 0 0 1 3-3 3 3 0 0 1 3 3z" fill="#F9F5D7"/>
    <rect width="43.999" height="6" x="10" y="47" rx="1.466" ry="1.5" opacity=".2"/>
    <path d="M35.095 30l-3.943-6.8-2.15 1.734V30H26V14h3v6.845L34.924 14h3.962l-5.389 6.6 5.621 9.4h-4.023z" opacity=".2"/>
    <path d="M35.095 29l-3.943-6.799-2.15 1.733V29H26V13h3v6.845L34.924 13h3.962l-5.389 6.6 5.621 9.4h-4.023z" fill="#F9F5D7"/>
</svg>
