<svg xmlns="http://www.w3.org/2000/svg" width="64" height="64">
    <path d="M6.8 5C5.25 5 4 6.25 4 7.8v50.4C4 59.75 5.25 61 6.8 61h50.4c1.55 0 2.8-1.25 2.8-2.8V7.8C60 6.25 58.75 5 57.2 5H32z" opacity=".2"/>
    <rect width="53.2" height="53.2" x="-58.6" y="-58.6" rx="2.66" ry="2.66" transform="matrix(0 -1 -1 0 0 0)" fill="#665C54"/>
    <path d="M32 32v28h25.2c1.551 0 2.8-1.249 2.8-2.8V32z" fill="#578D57"/>
    <path d="M32 4v28h28V6.8C60 5.249 58.751 4 57.2 4z" fill="#066678"/>
    <path d="M6.8 4A2.794 2.794 0 0 0 4 6.8V32h28V4z" fill="#CB241D"/>
    <path d="M4 32v25.2C4 58.751 5.249 60 6.8 60H32V32z" fill="#FD8019"/>
    <path d="M6.8 4C5.25 4 4 5.25 4 6.8v1C4 6.25 5.25 5 6.8 5h50.4C58.75 5 60 6.25 60 7.8v-1C60 5.25 58.75 4 57.2 4H6.8zM4 32h56v1H4z" opacity=".1" fill="#F9F5D7"/>
</svg>
