<svg xmlns="http://www.w3.org/2000/svg" width="64" height="64" version="1">
    <path d="M4.05 32.001c-.011.334-.05.662-.05 1A27.938 27.938 0 0 0 31.999 61a27.938 27.938 0 0 0 27.999-27.999c0-.338-.039-.665-.05-1C59.418 47.043 47.17 59 31.997 59 16.824 59 4.578 47.042 4.05 32.001z" opacity=".2"/>
    <rect width="56" height="56" x="4" y="4" rx="27.999" ry="27.999" fill="#FA4934"/>
    <path d="M32 4.002C16.488 4.002 4 16.488 4 32c0 .114.011.224.018.336C4.369 17.135 16.71 5 32 5s27.63 12.135 27.982 27.336c.007-.112.018-.223.018-.336A27.937 27.937 0 0 0 32 4.002z" opacity=".2" fill="#F9F5D7"/>
    <path d="M16.555 40.001c3.188 6.183 9.076 9.994 15.451 10 6.37-.012 12.252-3.822 15.438-10 2.86-5.546-5.792-6-15.445-6s-18.305.45-15.445 6z" fill="#3A393A"/>
    <ellipse cx="21.999" cy="21.001" rx="4" ry="5" fill="#3A393A"/>
    <ellipse cx="41.999" cy="21.001" rx="4" ry="5" fill="#3A393A"/>
</svg>
