<svg xmlns="http://www.w3.org/2000/svg" width="64" height="64" version="1">
    <path d="M4.05 32c-.011.335-.05.663-.05 1 0 15.512 12.488 28 28 28 15.51 0 27.998-12.488 27.998-28 0-.337-.039-.664-.05-1-.528 15.042-12.776 27-27.95 27S4.578 47.042 4.05 32z" opacity=".2"/>
    <rect width="56" height="56" x="4" y="4" rx="27.999" ry="27.999" fill="#F9F5D7"/>
    <path d="M38.82 5.348a4 4 0 0 0 .27 2.043 4 4 0 0 0 5.228 2.158 4 4 0 0 0 1.635-1.27 27.31 27.31 0 0 0-7.133-2.931zm-14.568.26a27.323 27.323 0 0 0-5.523 2.283 4 4 0 0 0 3.287.105 4 4 0 0 0 2.236-2.389zm9.207.087a4 4 0 0 0-1.443.307 4 4 0 0 0-2.157 5.228 4 4 0 0 0 5.229 2.159 4 4 0 0 0 2.156-5.23 4 4 0 0 0-3.785-2.464zm-9.234 3.842a4 4 0 0 0-1.442.305 4 4 0 0 0-2.158 5.228 4 4 0 0 0 5.23 2.159 4 4 0 0 0 2.157-5.231 4 4 0 0 0-3.787-2.46zm22.304 1.55a4 4 0 0 0-1.443.308 4 4 0 0 0-2.156 5.228 4 4 0 0 0 5.228 2.156 4 4 0 0 0 2.158-5.228 4 4 0 0 0-3.787-2.463zm-31.537 2.29a4 4 0 0 0-1.443.305 4 4 0 0 0-2.156 5.23 4 4 0 0 0 5.228 2.156 4 4 0 0 0 2.158-5.228 4 4 0 0 0-3.787-2.463zm22.305 1.55a4 4 0 0 0-1.442.307 4 4 0 0 0-2.158 5.229 4 4 0 0 0 5.23 2.158 4 4 0 0 0 2.157-5.23 4 4 0 0 0-3.787-2.463zM8.28 18.05a27.317 27.317 0 0 0-2.931 7.129 4 4 0 0 0 2.037-.27 4 4 0 0 0 2.156-5.228 4 4 0 0 0-1.262-1.631zm47.826.672A4 4 0 0 0 56 22.016a4 4 0 0 0 2.396 2.24 27.324 27.324 0 0 0-2.289-5.535zm-28.043.049a4 4 0 0 0-1.441.304 4 4 0 0 0-2.158 5.229 4 4 0 0 0 5.228 2.158 4 4 0 0 0 2.159-5.23 4 4 0 0 0-3.788-2.461zm22.307 1.55a4 4 0 0 0-1.443.307 4 4 0 0 0-2.157 5.228A4 4 0 0 0 52 28.014a4 4 0 0 0 2.158-5.23 4 4 0 0 0-3.787-2.464zm-31.539 2.29a4 4 0 0 0-1.443.304 4 4 0 0 0-2.157 5.23 4 4 0 0 0 5.229 2.157 4 4 0 0 0 2.156-5.229 4 4 0 0 0-3.785-2.463zm22.307 1.55a4 4 0 0 0-1.444.307 4 4 0 0 0-2.156 5.228 4 4 0 0 0 5.229 2.159 4 4 0 0 0 2.156-5.231 4 4 0 0 0-3.785-2.463zM9.598 26.45a4 4 0 0 0-1.442.304 4 4 0 0 0-2.158 5.23 4 4 0 0 0 5.23 2.157 4 4 0 0 0 2.157-5.229 4 4 0 0 0-3.787-2.463zm22.306 1.554a4 4 0 0 0-1.443.305 4 4 0 0 0-2.156 5.228 4 4 0 0 0 5.228 2.158 4 4 0 0 0 2.158-5.23 4 4 0 0 0-3.787-2.461zm22.303 1.549a4 4 0 0 0-1.443.306 4 4 0 0 0-2.157 5.229 4 4 0 0 0 5.229 2.158 4 4 0 0 0 2.158-5.23 4 4 0 0 0-3.787-2.463zm-31.535 2.29a4 4 0 0 0-1.443.305 4 4 0 0 0-2.157 5.23 4 4 0 0 0 5.229 2.157 4 4 0 0 0 2.156-5.228 4 4 0 0 0-3.785-2.463zm22.303 1.552a4 4 0 0 0-1.444.304 4 4 0 0 0-2.158 5.229 4 4 0 0 0 5.23 2.158 4 4 0 0 0 2.157-5.23 4 4 0 0 0-3.785-2.461zm-31.538 2.289a4 4 0 0 0-1.44.304 4 4 0 0 0-2.16 5.23 4 4 0 0 0 5.231 2.157 4 4 0 0 0 2.157-5.229 4 4 0 0 0-3.788-2.462zm22.303 1.55a4 4 0 0 0-1.441.305 4 4 0 0 0-2.158 5.23 4 4 0 0 0 5.23 2.157 4 4 0 0 0 2.156-5.229 4 4 0 0 0-3.787-2.463zm22.184 1.555a4 4 0 0 0-1.324.3 4 4 0 0 0-2.157 5.23 4 4 0 0 0 1.276 1.638 27.311 27.311 0 0 0 2.935-7.135 4 4 0 0 0-.73-.033zm-52.317.959a27.32 27.32 0 0 0 2.282 5.523 4 4 0 0 0 .103-3.287 4 4 0 0 0-2.385-2.236zm20.9 1.326a4 4 0 0 0-1.443.305 4 4 0 0 0-2.156 5.23 4 4 0 0 0 5.229 2.157 4 4 0 0 0 2.158-5.229 4 4 0 0 0-3.787-2.463zm22.304 1.549a4 4 0 0 0-1.444.307 4 4 0 0 0-2.156 5.228 4 4 0 0 0 5.228 2.158 4 4 0 0 0 2.159-5.23 4 4 0 0 0-3.787-2.463zm-31.534 2.291a4 4 0 0 0-1.443.305 4 4 0 0 0-2.158 5.23 4 4 0 0 0 5.23 2.158 4 4 0 0 0 2.157-5.23 4 4 0 0 0-3.786-2.463zm22.301 1.55a4 4 0 0 0-1.443.306 4 4 0 0 0-2.156 5.228 4 4 0 0 0 5.228 2.158 4 4 0 0 0 2.156-5.228 4 4 0 0 0-3.785-2.463zm-9.234 3.84a4 4 0 0 0-1.442.305 4 4 0 0 0-2.158 5.23 4 4 0 0 0 5.23 2.157 4 4 0 0 0 2.157-5.228 4 4 0 0 0-3.787-2.463zm-9.233 3.84a4 4 0 0 0-1.443.307 4 4 0 0 0-1.63 1.264 27.322 27.322 0 0 0 7.128 2.935 4 4 0 0 0-.268-2.043 4 4 0 0 0-3.787-2.462zm22.354 1.551a4 4 0 0 0-1.492.305 4 4 0 0 0-2.243 2.402 27.32 27.32 0 0 0 5.545-2.29 4 4 0 0 0-1.81-.417z" fill="#F9F5D7"/>
    <path d="M32 4.002C16.488 4.002 4 16.488 4 32c0 .114.011.224.018.336C4.369 17.135 16.71 5 32 5s27.63 12.135 27.982 27.336c.007-.112.018-.223.018-.336A27.938 27.938 0 0 0 32 4.002z" opacity=".2" fill="#F9F5D7"/>
</svg>
