<svg xmlns="http://www.w3.org/2000/svg" width="64" height="64">
    <path d="M32 5A28 28 0 0 0 4 33a28 28 0 0 0 28 28 28 28 0 0 0 28-28A28 28 0 0 0 32 5z" opacity=".2"/>
    <path d="M32 4A28 28 0 0 0 4 32a28 28 0 0 0 28 28 28 28 0 0 0 28-28A28 28 0 0 0 32 4z" fill="#48B9C7"/>
    <path d="M32.362 15c-.216 0-.175.84.05 1.031.255.215.629.966.739 1.485l.086.406-.7.148c-1.666.353-1.989 1.502-.914 3.242.378.612.379.629.305 1.954-.055.993-.025 1.496.113 1.972.216.739.817 1.418 1.446 1.633.695.238 2.583.126 3.285-.195.768-.351 1.768-1.394 2.047-2.137.328-.875.203-2.082-.32-3.137-.504-1.013-1.815-2.392-2.727-2.863-.482-.249-.71-.46-.871-.816-.23-.508-2.296-2.723-2.54-2.723zm-11.95 4a.094.094 0 0 0-.078.031c-.25.25-.452 1.566-.43 2.793.022 1.162-.008 1.402-.238 1.79-.763 1.286-.893 3.642-.273 4.98.548 1.182 1.456 1.904 2.84 2.25.966.24 1.618.207 2.527-.125 2.504-.916 2.938-2.702 1.14-4.715-.728-.817-1.066-1.482-1.066-2.086 0-.735-.27-1.454-.722-1.938-.408-.435-.431-.44-1.211-.37-.438.038-.953.108-1.145.156-.318.08-.368.036-.597-.473a3.382 3.382 0 0 1-.254-1.148c-.003-.504-.291-1.127-.492-1.145zm25.415 2.004c-.316-.063-.413.669-.16 1.2.116.244.193.659.171.921l-.039.477-.672.011c-.52.01-.772.094-1.136.371-.427.325-1.08 1.426-1.082 1.829-.001.089-.398.954-.883 1.921-.485.968-.922 1.954-.973 2.188-.274 1.257.486 2.196 2.305 2.851.768.277 1.57.299 2.441.067 1.415-.377 2.325-1.09 2.875-2.258.29-.616.33-.865.324-1.984-.007-1.45-.281-2.366-1.023-3.41-.231-.326-.515-.962-.629-1.41-.234-.92-1.218-2.714-1.52-2.774zm-32.668 10c-.033-.008-.057-.004-.075.015-.26.281.132 3.004.528 3.653.097.16.234.704.308 1.207.339 2.282 1.931 4.415 3.739 5.008.617.202 1.957.127 2.824-.157.716-.234.956-.396 1.496-1.004 1.121-1.261 1.326-2.509.574-3.519-.199-.268-.808-.766-1.351-1.11a61.594 61.594 0 0 1-2.102-1.406c-1.79-1.26-1.98-1.376-2.473-1.523-.626-.187-1.264.012-1.785.555l-.41.421-.254-.449c-.141-.249-.257-.578-.258-.73 0-.273-.534-.908-.761-.961zM36.006 33c-.786.004-1.694.13-2.742.383-2.96.714-4.36 1.565-4.996 3.035-.276.636-.298.856-.223 2.074.077 1.239.056 1.417-.234 2.035-.295.628-.636.983-2.2 2.297-.496.418-.541.515-.597 1.281-.052.714 0 .948.36 1.711.767 1.63 2.152 2.723 3.886 3.063.821.16 1.364.16 2.774.004 5.48-.61 11.778-2.586 13.578-4.258.94-.874 1.316-1.68 1.379-2.96.12-2.445-.981-3.91-2.946-3.919-1.538-.006-3.084-.9-3.718-2.148-.47-.925-1.422-1.847-2.313-2.239-.556-.244-1.221-.363-2.008-.359z" opacity=".2"/>
    <path d="M32.362 14c-.216 0-.175.84.05 1.031.255.215.629.966.739 1.485l.086.406-.7.148c-1.666.353-1.989 1.502-.914 3.242.378.612.379.629.305 1.954-.055.993-.025 1.496.113 1.972.216.74.817 1.418 1.446 1.633.695.238 2.583.126 3.285-.195.768-.351 1.768-1.394 2.047-2.137.328-.875.203-2.082-.32-3.137-.504-1.013-1.815-2.392-2.727-2.863-.482-.249-.71-.46-.871-.816-.23-.508-2.296-2.723-2.54-2.723zm-11.95 4a.094.094 0 0 0-.078.031c-.25.25-.452 1.566-.43 2.793.022 1.162-.008 1.402-.238 1.79-.763 1.286-.893 3.642-.273 4.98.548 1.182 1.456 1.904 2.84 2.25.966.241 1.618.207 2.527-.125 2.504-.916 2.938-2.702 1.14-4.715-.728-.816-1.066-1.482-1.066-2.086 0-.735-.27-1.454-.722-1.938-.408-.435-.431-.44-1.211-.37-.438.038-.953.108-1.145.156-.318.08-.368.036-.597-.473a3.382 3.382 0 0 1-.254-1.148c-.003-.504-.291-1.127-.492-1.145zm25.415 2.004c-.316-.062-.413.669-.16 1.2.116.244.193.659.171.921l-.039.477-.672.011c-.52.01-.772.094-1.136.371-.427.325-1.08 1.426-1.082 1.829-.001.089-.398.954-.883 1.921-.485.968-.922 1.954-.973 2.188-.274 1.257.486 2.197 2.305 2.852.768.276 1.57.298 2.441.066 1.415-.377 2.325-1.09 2.875-2.258.29-.616.33-.865.324-1.984-.007-1.45-.281-2.366-1.023-3.41-.231-.326-.515-.962-.629-1.41-.234-.92-1.218-2.714-1.52-2.774zm-32.668 10c-.033-.008-.057-.003-.075.016-.26.28.132 3.003.528 3.652.097.16.234.704.308 1.207.339 2.283 1.931 4.415 3.739 5.008.617.202 1.957.127 2.824-.157.716-.234.956-.396 1.496-1.003 1.121-1.262 1.326-2.51.574-3.52-.199-.267-.808-.766-1.351-1.11a61.594 61.594 0 0 1-2.102-1.406c-1.79-1.26-1.98-1.376-2.473-1.523-.626-.187-1.264.012-1.785.555l-.41.422-.254-.45c-.141-.249-.257-.578-.258-.73 0-.273-.534-.908-.761-.961zM36.006 32c-.786.004-1.694.13-2.742.383-2.96.714-4.36 1.565-4.996 3.035-.276.636-.298.856-.223 2.074.077 1.239.056 1.417-.234 2.035-.295.629-.636.983-2.2 2.297-.496.418-.541.515-.597 1.281-.052.714 0 .948.36 1.711.767 1.63 2.152 2.723 3.886 3.063.821.16 1.364.16 2.774.004 5.48-.61 11.778-2.585 13.578-4.258.94-.874 1.316-1.68 1.379-2.96.12-2.445-.981-3.91-2.946-3.919-1.538-.006-3.084-.9-3.718-2.148-.47-.925-1.422-1.847-2.313-2.239-.556-.244-1.221-.363-2.008-.359z" fill="#322F2E"/>
    <path d="M32 4A28 28 0 0 0 4 32a28 28 0 0 0 .021.406A28 28 0 0 1 32 5a28 28 0 0 1 27.979 27.578A28 28 0 0 0 60 32 28 28 0 0 0 32 4z" opacity=".2" fill="#F9F5D7"/>
</svg>
