<svg xmlns="http://www.w3.org/2000/svg" width="64" height="64" version="1">
    <circle cx="32" cy="33" r="28" opacity=".2"/>
    <circle cx="32" cy="32" r="28" fill="#504945"/>
    <path d="M32 14a3 3 0 0 0-3 3 3 3 0 0 0 3 3 3 3 0 0 0 3-3 3 3 0 0 0-3-3zm-19.6 4L25 26.5l6 30.3V33h2v23.8l6-30.3L51.6 18 33 23.354V29h-2v-5.646z" opacity=".2"/>
    <path d="M32 13a3 3 0 0 0-3 3 3 3 0 0 0 3 3 3 3 0 0 0 3-3 3 3 0 0 0-3-3zm-19.6 4L25 25.5l6 30.3V32h2v23.8l6-30.3L51.6 17 33 22.354V28h-2v-5.646L12.4 17z" fill="#FD8019"/>
    <path d="M32 4A28 28 0 0 0 4 32a28 28 0 0 0 .021.586A28 28 0 0 1 32 5a28 28 0 0 1 27.979 27.414A28 28 0 0 0 60 32 28 28 0 0 0 32 4z" fill="#F9F5D7" opacity=".1"/>
    <path d="M32 13a3 3 0 0 0-3 3 3 3 0 0 0 .043.486A3 3 0 0 1 32 14a3 3 0 0 1 2.957 2.514A3 3 0 0 0 35 16a3 3 0 0 0-3-3zm-19.6 4l2.586 1.744L31 23.354v-1L12.4 17zm39.2 0L33 22.354v1l16.014-4.61L51.6 17zM31 28v1h2v-1h-2z" opacity=".2" fill="#F9F5D7"/>
</svg>
