<svg xmlns="http://www.w3.org/2000/svg" width="64" height="64" viewBox="-2.01 0 64 64">
    <path d="M20.99 5.002a17 17 0 0 0-17 17A17 17 0 0 0 8.04 32.99a17 17 0 0 0-4.05 11.012 17 17 0 0 0 17 17 17 17 0 0 0 16.309-12.246 16 16 0 0 0 2.691.246 16 16 0 0 0 16-16 16 16 0 0 0-16-16 16 16 0 0 0-2.695.23A17 17 0 0 0 20.99 5.002z" opacity=".2"/>
    <circle cx="39.99" cy="32.002" r="16" fill="#066678"/>
    <circle cx="20.99" cy="21.002" r="17" fill="#066678"/>
    <path d="M20.99 4.002a17 17 0 0 0-17 17 17 17 0 0 0 .021.42A17 17 0 0 1 20.99 5.002a17 17 0 0 1 16.307 12.229 16 16 0 0 1 2.693-.229 16 16 0 0 1 15.979 15.58 16 16 0 0 0 .021-.58 16 16 0 0 0-16-16 16 16 0 0 0-2.693.229A17 17 0 0 0 20.99 4.002z" opacity=".2" fill="#F9F5D7"/>
    <circle cx="20.99" cy="43.002" r="17" fill="#066678"/>
    <path d="M31.99 13.002a10 10 0 0 0-10 10 10 10 0 0 0 10 10 10 10 0 0 0 10-10 10 10 0 0 0-10-10zm0 20a10 10 0 0 0-10 10 10 10 0 0 0 10 10 10 10 0 0 0 10-10 10 10 0 0 0-10-10zm-18-10a10 10 0 0 0-10 10 10 10 0 0 0 10 10 10 10 0 0 0 10-10 10 10 0 0 0-10-10z" opacity=".2"/>
    <circle cx="13.99" cy="32.002" r="10" fill="#F9F5D7"/>
    <circle cx="31.99" cy="42.002" r="10" fill="#F9F5D7"/>
    <circle cx="31.99" cy="22.002" r="10" fill="#F9F5D7"/>
    <path d="M14.643 13.114c.687-.34 1.348.202 1.348.202l15.778 9.198 15.255 8.902s.966.464.966 1.575c0 1.113-.974 1.476-.974 1.476l-15.282 8.902L15.6 52.766s-.47.412-1.077.148c-.693-.304-.513-1.076-.513-1.076V14.35c.001 0-.076-.887.632-1.236z" opacity=".2"/>
    <path d="M14.643 12.114c.687-.34 1.348.202 1.348.202l15.778 9.198 15.255 8.902s.966.464.966 1.575c0 1.113-.974 1.476-.974 1.476l-15.282 8.902L15.6 51.766s-.47.412-1.077.148c-.693-.304-.513-1.076-.513-1.076V13.35c.001 0-.076-.887.632-1.236z" fill="#F9BD2E"/>
</svg>
