<svg xmlns="http://www.w3.org/2000/svg" width="64" height="64">
    <path d="M31.867 27.002c-.929.021-1.792.158-2.808.726L6.207 40.492c-1.017.568-2.082 1.642-2.199 3.253-.117 1.612 1.075 3.135 2.188 3.757L29.07 60.278c1.113.622 2.134.74 3.063.72.929-.021 1.791-.158 2.808-.726l22.851-12.764c1.017-.568 2.083-1.64 2.2-3.253.117-1.613-1.076-3.136-2.188-3.757L34.93 27.722c-1.112-.622-2.132-.74-3.06-.72z" opacity=".2"/>
    <path d="M31.867 26.002c-.929.021-1.792.158-2.808.726L6.207 39.492c-1.017.568-2.082 1.642-2.199 3.253-.117 1.612 1.075 3.135 2.188 3.757L29.07 59.278c1.113.622 2.134.741 3.063.72.929-.021 1.791-.158 2.808-.726l22.851-12.764c1.017-.568 2.083-1.64 2.2-3.253.117-1.613-1.076-3.136-2.188-3.757L34.93 26.722c-1.112-.622-2.132-.74-3.06-.72z" fill="#578D57"/>
    <path d="M31.867 26.004c-.928.02-1.791.155-2.808.723L6.207 39.492c-1.018.569-2.082 1.642-2.2 3.254-.017.243.004.48.044.715.216-1.45 1.2-2.435 2.156-2.969l22.852-12.765c1.017-.568 1.88-.702 2.808-.723h.004c.928-.02 1.946.097 3.059.719L57.805 40.5c.94.525 1.927 1.693 2.142 3.016.018-.086.038-.17.045-.262.117-1.613-1.075-3.133-2.187-3.754L34.93 26.723c-1.113-.622-2.131-.74-3.059-.72h-.004z" opacity=".1" fill="#F9F5D7"/>
    <path d="M20 31h8v11l-4 3-4-3z" opacity=".2"/>
    <path d="M20 30h8v11l-4 3-4-3z" fill="#B57514"/>
    <path d="M24.084 5.001a3.551 3.41 0 0 0-1.86.455l-10.448 5.795A3.551 3.41 0 0 0 10 14.205v11.59a3.551 3.41 0 0 0 1.776 2.953l10.448 5.795a3.551 3.41 0 0 0 3.551 0l10.45-5.795A3.551 3.41 0 0 0 38 25.794v-11.59a3.551 3.41 0 0 0-1.776-2.954L25.775 5.456A3.551 3.41 0 0 0 24.084 5z" opacity=".2"/>
    <path d="M24.084 4.001a3.551 3.41 0 0 0-1.86.455l-10.448 5.795A3.551 3.41 0 0 0 10 13.205v11.59a3.551 3.41 0 0 0 1.776 2.953l10.448 5.795a3.551 3.41 0 0 0 3.551 0l10.45-5.795A3.551 3.41 0 0 0 38 24.794v-11.59a3.551 3.41 0 0 0-1.776-2.954L25.775 4.456A3.551 3.41 0 0 0 24.084 4z" fill="#B7BB25"/>
    <path d="M24.083 4a3.551 3.41 0 0 0-1.86.457L11.775 10.25a3.551 3.41 0 0 0-1.773 2.953v1a3.551 3.41 0 0 1 1.773-2.953l10.45-5.793A3.551 3.41 0 0 1 24.084 5a3.551 3.41 0 0 1 1.69.457l10.45 5.793A3.551 3.41 0 0 1 38 14.203v-1a3.551 3.41 0 0 0-1.777-2.953l-10.45-5.793A3.551 3.41 0 0 0 24.084 4z" opacity=".2" fill="#F9F5D7"/>
</svg>
