<svg xmlns="http://www.w3.org/2000/svg" width="64" height="64">
    <rect width="56" height="56" x="4" y="5" rx="4.2" ry="4.2" opacity=".2"/>
    <rect width="56" height="56" x="4" y="4" rx="4.2" ry="4.2" fill="#8F3F71"/>
    <path d="M13.11 50.728c-.26-.485-.042-1.861.462-2.929.538-1.14 1.688-2.286 3.494-3.479 2.498-1.65 8.215-7.075 12.083-11.465.733-.83.855-1.053.78-1.423-.078-.396.139-.672 2.264-2.887 1.293-1.348 2.325-2.528 2.293-2.623-.032-.096-.227-.16-.433-.142-.206.018-1.807.147-3.557.287-3.167.253-3.187.257-4.078.796-.492.297-1.016.518-1.164.49-.479-.092-.392-.645.19-1.21.536-.52.55-.564.55-1.737 0-1.114.03-1.227.409-1.526.607-.479.921-.405 1.323.312.38.677.473.695 1.48.284.408-.166.564-.165.878.003.345.185.817.06 4.937-1.314 2.506-.835 4.808-1.644 5.115-1.798.69-.347 1.217-.965 2.314-2.712.671-1.07 1.065-1.511 1.844-2.07.942-.674 1.001-.695 1.203-.418.138.189.213.726.213 1.52v1.227l.945.91c1.05 1.011 1.047.986.344 2.388-.258.514-.444 1.285-.581 2.412l-.202 1.657.991 4.202c.546 2.311 1.17 4.972 1.386 5.914.217.941.46 1.87.54 2.066l.144.354.638-.326c1.11-.568 1.486.021.569.89-.74.7-3.218 2.539-3.807 2.823-.453.219-.533.22-.743.009-.21-.21-.184-.3.236-.83.26-.327.471-.643.471-.702 0-.184-5.065-8.746-5.617-9.494-.428-.582-.617-.712-1.088-.752-.775-.065-1.41.288-3.972 2.206-2.482 1.858-2.602 1.931-3.177 1.929-.527-.002-1.036.383-3.427 2.6-4.681 4.336-8.073 8.053-9.188 10.066-1.578 2.849-3.434 4.253-6.237 4.717-.563.093-.671.063-.825-.225z" opacity=".1"/>
    <path d="M13.11 49.728c-.26-.485-.042-1.861.462-2.93.538-1.14 1.688-2.285 3.494-3.478 2.498-1.65 8.215-7.075 12.083-11.465.733-.831.855-1.053.78-1.423-.078-.396.139-.672 2.264-2.888 1.293-1.347 2.325-2.527 2.293-2.623-.032-.095-.227-.159-.433-.141-.206.018-1.807.147-3.557.287-3.167.253-3.187.257-4.078.796-.492.297-1.016.518-1.164.49-.479-.092-.392-.645.19-1.21.536-.52.55-.564.55-1.737 0-1.114.03-1.227.409-1.526.607-.479.921-.405 1.323.312.38.677.473.695 1.48.284.408-.166.564-.166.878.003.345.185.817.06 4.937-1.314 2.506-.835 4.808-1.644 5.115-1.798.69-.347 1.217-.965 2.314-2.712.671-1.07 1.065-1.511 1.844-2.07.942-.674 1.001-.695 1.203-.418.138.189.213.726.213 1.52v1.227l.945.91c1.05 1.011 1.047.986.344 2.388-.258.514-.444 1.284-.581 2.412l-.202 1.657.991 4.202c.546 2.311 1.17 4.972 1.386 5.914.217.941.46 1.87.54 2.066l.144.354.638-.326c1.11-.568 1.486.021.569.89-.74.7-3.218 2.539-3.807 2.823-.453.218-.533.22-.743.009-.21-.21-.184-.3.236-.83.26-.327.471-.643.471-.702 0-.184-5.065-8.746-5.617-9.495-.428-.581-.617-.711-1.088-.75-.775-.066-1.41.287-3.972 2.205-2.482 1.858-2.602 1.931-3.177 1.929-.527-.002-1.036.383-3.427 2.6-4.681 4.336-8.073 8.053-9.188 10.066-1.578 2.849-3.434 4.253-6.237 4.717-.563.093-.671.063-.825-.225z" fill="#3A393A"/>
    <path d="M29.925 30.402l.005.03c.074.37-.048.592-.78 1.423-1.81 2.053-4.021 4.328-6.12 6.342.443.496 1.014 1.131 1.522 1.677a112.9 112.9 0 0 1 4.808-4.705c1.803-1.67 2.536-2.3 3.013-2.509a67.816 67.816 0 0 0-2.448-2.258zM46.283 24.565c-1.155.91-2.392 2.164-3.24 3.014l.48 1.13c.582 1.373.587 1.511.072 2.05l-.407.427.57 1.022c.313.562.639 1.021.723 1.021.084 0 .329-.115.544-.256.467-.307.525-.258 1.125.954l.46.931-.303.596c-.298.586-.298.606-.01 1.092.255.433.365.49.861.45.516-.04.593.006.831.506.294.617.537.686.953.268.206-.206.375-.303.235-1.2l-.044-.107c-.08-.195-.323-1.125-.54-2.066-.216-.942-.84-3.603-1.386-5.914zM38.734 19.892c-.965.343-2.28.796-3.713 1.273-3.155 1.051-4.17 1.37-4.627 1.38l-1.47.475-2.169 1.424 1.087-.121-.304.436 1.458-.07.64-.675c.576-.114.924-.155 1.459-.198.194-.016-.597.753-.406.745.536-.025 1.106-.057 1.695-.091.313-.019 1.083-1.024 1.393-1.11.491-.137.998-.13 1.512-.048 1.16-.339 3.302-3.226 3.445-3.42z" fill="#FA4934"/>
    <path d="M8.2 4A4.19 4.19 0 0 0 4 8.2v1A4.19 4.19 0 0 1 8.2 5h47.6A4.19 4.19 0 0 1 60 9.2v-1A4.19 4.19 0 0 0 55.8 4H8.2z" opacity=".1" fill="#F9F5D7"/>
</svg>
