<svg xmlns="http://www.w3.org/2000/svg" width="64" height="64" version="1">
    <path d="M19.154 61c-1.71 0-3.81-1.227-4.664-2.726L1.64 35.726c-.854-1.5-.854-3.953 0-5.452L14.49 7.726C15.345 6.226 17.443 5 19.154 5h25.692c1.71 0 3.81 1.227 4.663 2.726l12.85 22.548c.855 1.5.855 3.953 0 5.452L49.51 58.274c-.854 1.5-2.952 2.726-4.663 2.726z" opacity=".2"/>
    <path d="M19.154 60c-1.71 0-3.81-1.227-4.664-2.726L1.64 34.726c-.854-1.5-.854-3.953 0-5.452L14.49 6.726C15.345 5.226 17.443 4 19.154 4h25.692c1.71 0 3.81 1.227 4.663 2.726l12.85 22.548c.855 1.5.855 3.953 0 5.452L49.51 57.274c-.854 1.5-2.952 2.726-4.663 2.726z" fill="#504945"/>
    <path d="M43.04 16.602A16.954 16.954 0 0 0 42.005 15c-.006 0-.01.832-.01 1.85v14.177c0 1.018-.301 1.13-.806.25L32.918 16.6c-.505-.88-1.742-1.6-2.748-1.6h-6.608c-1.007 0-2.242.721-2.744 1.602l-8.441 14.796c-.503.88-.503 2.323 0 3.204l8.584 14.796c.502.881 1.029 1.602 1.034 1.602.005 0 .01-.832.01-1.85V34.727c0-1.017.298-1.127.797-.244l8.29 14.912c.5.884 1.732 1.606 2.738 1.606h6.608c1.007 0 2.242-.721 2.745-1.602l8.44-14.796c.503-.881.503-2.323 0-3.204z" opacity=".2"/>
    <path d="M43.04 15.602A16.954 16.954 0 0 0 42.005 14c-.006 0-.01.832-.01 1.85v14.177c0 1.018-.301 1.13-.806.25L32.918 15.6c-.505-.88-1.742-1.6-2.748-1.6h-6.608c-1.007 0-2.242.721-2.744 1.602l-8.441 14.796c-.503.88-.503 2.323 0 3.204l8.584 14.796c.502.881 1.029 1.602 1.034 1.602.005 0 .01-.832.01-1.85V33.727c0-1.017.298-1.127.797-.244l8.29 14.912c.5.884 1.732 1.606 2.738 1.606h6.608c1.007 0 2.242-.721 2.745-1.602l8.44-14.796c.503-.881.503-2.323 0-3.204z" fill="#F9F5D7"/>
    <path d="M19.154 4c-1.71 0-3.81 1.227-4.664 2.727L1.64 29.273c-.499.877-.697 2.08-.613 3.227.06-.815.259-1.604.614-2.227L14.49 7.727C15.344 6.227 17.443 5 19.153 5h25.692c1.71 0 3.81 1.227 4.664 2.727l12.85 22.546c.354.623.553 1.412.613 2.227.084-1.147-.114-2.35-.614-3.227L49.51 6.727C48.657 5.227 46.557 4 44.847 4H19.154z" fill="#F9F5D7" opacity=".1"/>
</svg>
