<svg xmlns="http://www.w3.org/2000/svg" xmlns:xlink="http://www.w3.org/1999/xlink" width="64" height="64" version="1">
    <defs>
        <linearGradient id="a">
            <stop offset="0"/>
            <stop offset="1" stop-opacity="0"/>
        </linearGradient>
        <linearGradient id="c" x1="23.968" x2="23.968" y1="32.02" y2="34.144" gradientTransform="matrix(1.4 0 0 1 -1.6 6)" gradientUnits="userSpaceOnUse" xlink:href="#a"/>
        <linearGradient id="b" x1="16.034" x2="16.062" y1="16.945" y2="12.055" gradientTransform="scale(2)" gradientUnits="userSpaceOnUse" xlink:href="#a"/>
    </defs>
    <path d="M4 56v2c0 1.662 1.338 3 3 3h50c1.662 0 3-1.338 3-3v-2c0 1.662-1.338 3-3 3H7c-1.662 0-3-1.338-3-3z" opacity=".2"/>
    <rect width="56" height="56" x="4" y="4" rx="3" ry="3" fill="#066678"/>
    <path d="M7 4C5.338 4 4 5.338 4 7v1c0-1.662 1.338-3 3-3h50c1.662 0 3 1.338 3 3V7c0-1.662-1.338-3-3-3H7z" opacity=".1" fill="#F9F5D7"/>
    <path d="M32 24l10 10-10.073 1.918L22 34z" fill="#F9F5D7"/>
    <path d="M12 25l20 10 20-10-6 16H18z" opacity=".2"/>
    <path d="M32 24l10 10-10.073 1.918L22 34z" opacity=".15" fill="url(#b)"/>
    <path d="M12 24l20 10 20-10-6 16H18z" fill="#F9F5D7"/>
    <path d="M32 38l14 2H18z" opacity=".15" fill="url(#c)"/>
</svg>
