<svg xmlns="http://www.w3.org/2000/svg" width="64" height="64" version="1">
    <path d="M32 15.001a12 16 0 0 0-12 16 12 16 0 0 0 .032 1.133 12 16 0 0 1 11.967-15.132 12 16 0 0 1 11.968 14.864 12 16 0 0 0 .032-.864 12 16 0 0 0-12-16zm-27.95 17c-.011.334-.05.662-.05 1C4 48.512 16.488 61 32 61c15.51 0 27.998-12.488 27.998-28 0-.337-.039-.664-.05-1-.528 15.042-12.776 27-27.95 27S4.578 47.042 4.05 32z" opacity=".2"/>
    <path d="M32 4.002C16.488 4.002 4 16.489 4 32c0 15.511 12.488 28 28 28s28-12.489 28-28C60 16.489 47.511 4 32 4zm0 12A12 16 0 0 1 44 32a12 16 0 0 1-12 16 12 16 0 0 1-12-16 12 16 0 0 1 12-16z" fill="#FA4934"/>
    <path d="M32 4.002C16.488 4.002 4 16.488 4 32c0 .114.011.224.018.336C4.369 17.135 16.71 5.002 32 5.002s27.63 12.133 27.982 27.334c.007-.112.018-.222.018-.336A27.938 27.938 0 0 0 32 4.002zm11.967 28.867A12 16 0 0 1 32 48a12 16 0 0 1-11.967-14.863A12 16 0 0 0 20 34a12 16 0 0 0 .02.504 12 16 0 0 1 .013-.367A12 16 0 0 0 32 49a12 16 0 0 0 11.967-15.13 12 16 0 0 1 .02.646A12 16 0 0 0 44 34a12 16 0 0 0-.033-1.13z" opacity=".2" fill="#F9F5D7"/>
</svg>
