<svg xmlns="http://www.w3.org/2000/svg" width="64" height="64" version="1">
    <path d="M27 4c-3.324 0-6 2.676-6 6v6H7c-2.216 0-4 1.784-4 4v12h6c3.324 0 6 2.676 6 6s-2.676 6-6 6H3v14c0 2.216 1.784 4 4 4h14v-4c0-3.324 2.676-6 6-6s6 2.676 6 6v4h12c2.216 0 4-1.784 4-4V44h6c3.324 0 6-2.676 6-6s-2.676-6-6-6h-6V20c0-2.216-1.784-4-4-4H33v-6c0-3.324-2.676-6-6-6z" opacity=".2"/>
    <path d="M27 3c-3.324 0-6 2.676-6 6v6H7c-2.216 0-4 1.784-4 4v12h6c3.324 0 6 2.676 6 6s-2.676 6-6 6H3v14c0 2.216 1.784 4 4 4h14v-4c0-3.324 2.676-6 6-6s6 2.676 6 6v4h12c2.216 0 4-1.784 4-4V43h6c3.324 0 6-2.676 6-6s-2.676-6-6-6h-6V19c0-2.216-1.784-4-4-4H33V9c0-3.324-2.676-6-6-6z" fill="#7CB668"/>
    <path d="M27 3c-3.324 0-6 2.676-6 6v1c0-3.324 2.676-6 6-6s6 2.676 6 6V9c0-3.324-2.676-6-6-6zM7 15c-2.216 0-4 1.784-4 4v1c0-2.216 1.784-4 4-4h14v-1H7zm26 0v1h12c2.216 0 4 1.784 4 4v-1c0-2.216-1.784-4-4-4H33zm16 16v1h6a5.973 5.973 0 0 1 5.898 5c.056-.328.102-.656.102-1 0-.18-.012-.357-.027-.533-.02.179-.044.356-.075.533A5.973 5.973 0 0 0 55 31h-6zm-34.027 6.549A5.984 5.984 0 0 1 9 43H3v1h6c3.324 0 6-2.676 6-6 0-.153-.012-.303-.027-.451z" opacity=".1" fill="#F9F5D7"/>
</svg>
