<svg xmlns="http://www.w3.org/2000/svg" width="64" height="64" version="1">
    <rect width="56" height="56" x="4" y="5" rx="2.8" ry="2.8" opacity=".2"/>
    <rect width="56" height="56" x="4" y="4" rx="2.8" ry="2.8" fill="#8F3F71"/>
    <path d="M37.3 19l-1.75 1.275-4.454 1.754-.986 1.02-.764.575-.16 1.34.32.7.299 1.305 1.081 2.104 1.178 1.5-1.846 3.029-1.099 4.528-1.273 2.041-1.788 2.583-.095 1.18-1.362 1.02 1.654 1.5-.273 1.786.159 4.483.624 4.96L27.4 61h5.897l-.446-.128.573-.51-.096-1.435.605-1.244-.51.064.784-1.595v-1.995l.604-.829v-1.084l1.241-2.25.096-1.436-.255-1.18.433-1.339.668-1.084v-.67l.764-.096.668-.67.605-1.69 1.336-1.498 1.591-.606.986.86 2.45.734 1.941 1.82.923 1.18 1.591.16 5.027 2.2 2.578.924 2.1 1.595.445-.128v-.606l-1.114-.86L60 47.89V45.5h-.19l-.987-.415-.668-.35.986-.83.254-.606-.159-.414-.922.16-1.941 1.02-.255.51-.668-.16-2.418-1.37-.096-.926-1.431-.733-2.419-1.276-.604.415.095-.574-1.336-1.276-.478-1.118-1.082-1.276-.35-.414 1.082.765-.159-.86.86.446-.255-1.276 1.177 1.084-.51-.733 1.178.478-1.018-1.403.764.255-.35-1.371.604.51-.859-1.244.86.256-.765-1.021 1.019-.096-1.114-.67.668-.318-.732-.096.987-.925-.923.096.095-.606.096-1.658-.51 1.148-.604-1.659.096 1.34-.35.096h-.828l-1.622-1.372h-.923l-1.081-.925-.51.51-1.272.441h-1.234l-.35.83.35 1.345-.191.988-.827-.478-.669-1.276-1.852-.319-.573-.605-1.272-.575-.873-1.4.096-1.083 3.532-2.711 1.654.765.255 1.175v.702l.445.574.828.255.572-.51.096-.574-.255-.51-.509-.256-.318-1.015.732-.351-.16-.83v-.51l-.508-.51-.255-.765-.986-.223-.86-.192z" opacity=".1" fill-rule="evenodd"/>
    <path d="M37.3 18l-1.75 1.275-4.454 1.754-.986 1.02-.764.575-.16 1.34.32.7.299 1.305 1.081 2.104 1.178 1.5-1.846 3.029-1.099 4.528-1.273 2.041-1.788 2.583-.095 1.18-1.362 1.02 1.654 1.5-.273 1.786.159 4.483.624 4.96L27.4 60h5.897l-.446-.128.573-.51-.096-1.435.605-1.244-.51.064.784-1.595v-1.995l.604-.829v-1.084l1.241-2.25.096-1.436-.255-1.18.433-1.339.668-1.084v-.67l.764-.096.668-.67.605-1.69 1.336-1.498 1.591-.606.986.86 2.45.734 1.941 1.82.923 1.18 1.591.16 5.027 2.2 2.578.924 2.1 1.595.445-.128v-.606l-1.114-.86L60 46.89V44.5h-.19l-.987-.415-.668-.35.986-.83.254-.606-.159-.414-.922.16-1.941 1.02-.255.51-.668-.16-2.418-1.37-.096-.926-1.431-.733-2.419-1.276-.604.415.095-.574-1.336-1.276-.478-1.118-1.082-1.276-.35-.414 1.082.765-.159-.86.86.446-.255-1.276 1.177 1.084-.51-.733 1.178.478-1.018-1.403.764.255-.35-1.371.604.51-.859-1.244.86.256-.765-1.021 1.019-.096-1.114-.67.668-.318-.732-.096.987-.925-.923.096.095-.606.096-1.658-.51 1.148-.604-1.659.096 1.34-.35.096h-.828l-1.622-1.372h-.923l-1.081-.925-.51.51-1.272.441h-1.234l-.35.83.35 1.345-.191.988-.827-.478-.669-1.276-1.852-.319-.573-.605-1.272-.575-.873-1.4.096-1.083 3.532-2.711 1.654.765.255 1.175v.702l.445.574.828.255.572-.51.096-.574-.255-.51-.509-.256-.318-1.015.732-.351-.16-.83v-.51l-.508-.51-.255-.765-.986-.223-.86-.192z" fill="#3A393A" fill-rule="evenodd"/>
    <path d="M6.8 4C5.25 4 4 5.25 4 6.8v1C4 6.25 5.25 5 6.8 5h50.4C58.75 5 60 6.25 60 7.8v-1C60 5.25 58.75 4 57.2 4H6.8z" opacity=".1" fill="#F9F5D7"/>
</svg>
