<svg xmlns="http://www.w3.org/2000/svg" width="64" height="64" version="1">
    <path d="M6.8 8A2.783 2.783 0 0 0 4 10.777v44.446A2.783 2.783 0 0 0 6.8 58H57.2C58.75 58 60 56.762 60 55.223V10.777A2.783 2.783 0 0 0 57.2 8H6.8z" opacity=".2" fill-rule="evenodd"/>
    <path d="M34.8 7l-7 23.611L60 40.333V9.778A2.783 2.783 0 0 0 57.2 7z" fill="#B7BB25" fill-rule="evenodd"/>
    <path d="M27.8 30.611L19.4 57h37.8c1.551 0 2.8-1.239 2.8-2.778V40.333z" fill="#417B58" fill-rule="evenodd"/>
    <path d="M6.8 7A2.783 2.783 0 0 0 4 9.778v44.444A2.783 2.783 0 0 0 6.8 57h13.94L34.8 7z" fill="#066678" fill-rule="evenodd"/>
    <path d="M31.472 13.18C20.28 26.391 4 25.055 4 25.055v5.555s5.397 6.952 20.084 5.978z" fill="#BE4C1D"/>
    <path d="M23.566 23.071c-1.066.006-2.651 1.778-1.459 2.64 1.307.946.957 1.969.303 2.235-.654.267-1.65.029-1.735-1.564-.08-1.515-1.728-2.423-3.28-.158-.097.24-.168.483-.202.725-.307 2.189 1.85 4.33 4.055 4.635 2.206.304 4.81-1.605 5.116-3.793.267-1.902-1.011-4.002-2.798-4.72zm-5.667 2.245c-.058.081-.097.167-.149.25l.149-.25z" fill="#3C3836"/>
    <path d="M31.472 13.18c-7.206 7.504-15.08 10.097-21.153 11.51.678.792 1.83 1.754 3.481 1.754 2.8 0 4.2-1.388 4.2-1.388s3.659.882 8.4-2.778c1.633-1.26 2.778-2.794 3.612-4.27z" fill="#F9F5D7"/>
    <path d="M26.345 30.128c-1.034.412-2.295.954-4.145 1.872-3.124 1.55-5.71 2.45-7.476 3.9 2.886 1.105 5.923 1.363 9.36.689z" fill="#BE4C1D"/>
    <path d="M45.47 35.34c-.622.857-1.28 1.99-1.947 3.42-1.896 4.062-3.033 8.424-4.474 8.274-1.44-.15-2.53-1.549-3.328-2.455-.798-.907-1.795-2.696-2.78-3.223-.986-.526-1.212-.376-1.742-.301-.531.075-.799-.095-1.064.602-.266.697 1.114 2.245 1.493 3.524.296 1 1.003 3.442 1.263 4.831L35.152 57h15.212c.746-2.107 2.486-4.897 4.684-6.868.406-.365 3.11-2.486 3.32-2.917.297-.612-.014-1.65-.82-1.554-.27.032-.62.182-1.075.502-.824.578-3.245 1.775-4.296 2.504 1.098-1.6 3.274-4.104 3.855-4.943.61-.878 1.732-2.671 1.917-3.784l-1.832-.673c-.624.408-1.355 1.164-2.283 2.276-1.82 2.181-4.017 5.416-4.624 4.964-.606-.45 1.895-3.835 3.033-6.016.404-.775.795-1.527 1.12-2.241l-2.993-1.101a17.565 17.565 0 0 0-1.463 2.362c-.759 1.505-2.73 5.868-3.413 5.643-.682-.226.454-3.987 1.592-6.093.469-.868.929-1.795 1.268-2.658z" fill="#FECE4F"/>
    <path d="M56.351 8.978c-3.649 0-10.351 0-16.179 2.596-2.48 1.105-4.865 3.871-3.648 5.078 1.216 1.207 3.67-.597 7.297-1.866C50.2 12.556 57.328 11.442 60 11.128V9.53c-.766-.284-1.93-.552-3.649-.552z" fill="#665C54"/>
    <path d="M46.924 16C42.658 16 38 21.952 38 26.287c0 2.438 5.475 3.123 9.6 3.657 4.233.547 8.4-2.98 8.4-7.314 0-.317-.032-.62-.081-.915v-.003l-.008-.041-.003-.003c-.601-3.405-4.351-5.31-8.01-5.602-.004 0-.008-.003-.011-.003-.322-.025-.645-.063-.963-.063z" opacity=".2"/>
    <path d="M46.924 15C42.658 15 38 20.952 38 25.287c0 2.438 5.475 3.123 9.6 3.657 4.233.547 8.4-2.98 8.4-7.314 0-.317-.032-.62-.081-.915v-.003l-.008-.041-.003-.003c-.601-3.405-4.351-5.31-8.01-5.602-.004 0-.008-.003-.011-.003-.322-.025-.645-.063-.963-.063z" fill="#F9F5D7"/>
    <path d="M48.02 15.082A4.285 4.285 0 0 0 46 18.73c0 2.358 1.79 4.27 4 4.27s4-1.912 4-4.27c-.001-.31-.057-.949-.121-1.402-1.533-1.293-3.7-2.053-5.86-2.246z" fill="#8F3F71"/>
    <path d="M10.86 7c.272 2.778 1.154 6.274 2.035 7.787 1.74 2.99 4.092 2.811 7.105 1.086 3.013-1.726 5.304-4.885 3.564-7.875a10.339 10.339 0 0 0-.7-.998z" fill="#73C48F"/>
    <path d="M32.451 7L18.946 57h2.899L35.35 7H32.45z" fill="#F9F5D7"/>
    <path d="M27.8 29.222l-.725 2.683L60 40.656v-2.875l-32.2-8.559z" fill="#F9F5D7"/>
    <path d="M6.8 7A2.783 2.783 0 0 0 4 9.777v1A2.783 2.783 0 0 1 6.8 8h50.4c1.55 0 2.8 1.238 2.8 2.777v-1A2.783 2.783 0 0 0 57.2 7H6.8z" opacity=".2" fill="#F9F5D7" fill-rule="evenodd"/>
    <path d="M31.324 8L17.926 58h4.144L35.465 8h-4.141z" opacity=".2"/>
    <path d="M28.043 29.473l-1.035 3.863L60 42.176v-4.141l-31.957-8.562z" opacity=".2"/>
    <path d="M31.324 7L17.926 57h4.144L35.465 7h-4.141z" fill="#F9F5D7"/>
    <path d="M28.043 28.473l-1.035 3.863L60 41.176v-4.141l-31.957-8.562z" fill="#F9F5D7"/>
</svg>
