<svg xmlns="http://www.w3.org/2000/svg" width="64" height="64" version="1">
    <path d="M32 10C16.488 10 4 23.75 4 32s12.488 22 28 22 28-13.75 28-22-12.488-22-28-22z" fill="#504945"/>
    <path d="M32 10C16.488 10 4 23.75 4 32c0 .11.022.23.031.344C4.657 24.042 16.891 11 32 11c15.109 0 27.343 13.042 27.969 21.344.01-.115.031-.233.031-.344 0-8.25-12.488-22-28-22z" opacity=".1" fill="#F9F5D7"/>
    <path d="M29.77 13c-.982 0-1.77 1.097-1.77 2.458v2.062a16 16 0 0 0-4.114 1.71l-1.464-1.464c-.962-.962-2.294-1.177-2.988-.484l-3.153 3.153c-.693.693-.478 2.025.485 2.988l1.464 1.465a16 16 0 0 0-1.699 4.114h-2.074c-1.361 0-2.457.789-2.457 1.77v4.46c0 .98 1.096 1.768 2.457 1.768h2.062a16 16 0 0 0 1.711 4.114l-1.464 1.464c-.963.963-1.178 2.295-.485 2.989l3.153 3.152c.693.694 2.025.478 2.988-.484l1.465-1.465A16 16 0 0 0 28 48.468v2.074c0 1.362.788 2.458 1.77 2.458h4.46c.98 0 1.769-1.096 1.769-2.458V48.48a16 16 0 0 0 4.113-1.711l1.465 1.464c.962.963 2.294 1.178 2.988.485l3.152-3.153c.694-.693.478-2.025-.484-2.988l-1.464-1.464A16 16 0 0 0 47.468 37h2.074C50.904 37 52 36.211 52 35.23v-4.46c0-.98-1.096-1.769-2.458-1.769H47.48a16 16 0 0 0-1.711-4.113l1.465-1.465c.962-.962 1.177-2.295.484-2.988l-3.152-3.153c-.694-.693-2.026-.478-2.988.485l-1.464 1.464A16 16 0 0 0 36 17.531v-2.074C36 14.096 35.212 13 34.23 13h-4.461zM32 25a8 8 0 0 1 8 8 8 8 0 0 1-8 8 8 8 0 0 1-8-8 8 8 0 0 1 8-8z" opacity=".2"/>
    <path d="M29.77 12.001c-.982 0-1.77 1.096-1.77 2.457v2.063a16 16 0 0 0-4.114 1.71l-1.464-1.464c-.962-.963-2.294-1.178-2.988-.485l-3.153 3.153c-.693.693-.478 2.025.485 2.988l1.464 1.465a16 16 0 0 0-1.699 4.114h-2.074c-1.361 0-2.457.789-2.457 1.77v4.46c0 .98 1.096 1.768 2.457 1.768h2.062a16 16 0 0 0 1.711 4.114l-1.464 1.464c-.963.963-1.178 2.295-.485 2.989l3.153 3.152c.693.694 2.025.478 2.988-.484l1.465-1.465A16 16 0 0 0 28 47.468v2.074c0 1.362.788 2.458 1.77 2.458h4.46c.98 0 1.769-1.096 1.769-2.458V47.48a16 16 0 0 0 4.113-1.711l1.465 1.464c.962.963 2.294 1.178 2.988.485l3.152-3.153c.694-.693.478-2.025-.484-2.988l-1.464-1.464A16 16 0 0 0 47.468 36h2.074C50.904 36 52 35.211 52 34.23v-4.46c0-.98-1.096-1.769-2.458-1.769H47.48a16 16 0 0 0-1.711-4.113l1.465-1.465c.962-.962 1.177-2.295.484-2.988l-3.152-3.153c-.694-.693-2.026-.478-2.988.485l-1.464 1.465A16 16 0 0 0 36 16.53v-2.074C36 13.096 35.212 12 34.23 12h-4.461zm2.23 12a8 8 0 0 1 8 8 8 8 0 0 1-8 8 8 8 0 0 1-8-8 8 8 0 0 1 8-8z" fill="#7CB668"/>
    <path d="M4.09 33c-.037.336-.09.678-.09 1 0 .214.015.435.031.656.019-.218.034-.436.059-.656.92 8.312 13.002 21 27.91 21s26.99-12.688 27.91-21c.025.22.04.438.059.656.016-.221.031-.442.031-.656 0-.321-.053-.663-.09-1-.92 8.312-13.002 21-27.91 21S5.01 41.312 4.09 33z" opacity=".2"/>
</svg>
