<svg xmlns="http://www.w3.org/2000/svg" width="64" height="64" version="1">
    <path d="M31.969 2.876C29.017 5.788 26.193 9.103 23.207 12H11.969v11.238C9.07 26.224 5.756 29.049 2.844 32c2.912 2.952 6.227 5.888 9.125 8.883V52h11.238c2.986 2.898 5.81 6.212 8.762 9.125 2.951-2.912 5.888-6.228 8.883-9.125h11.117V40.88c2.897-2.995 6.213-5.929 9.125-8.88-2.912-2.95-6.228-5.775-9.125-8.761V12H40.852c-2.994-2.899-5.93-6.214-8.882-9.126zm0 17.125c-6.627 0-12 5.372-12 12 0 6.627 5.373 12 12 12z" fill="#066678"/>
    <path d="M31.906 16.125a16 16 0 0 0-16 16 16 16 0 0 0 16 16v-32z" opacity=".2"/>
    <path d="M31.906 15.125a16 16 0 0 0-16 16 16 16 0 0 0 16 16v-32z" fill="#F9F5D7"/>
    <path d="M32.031 2.875C29.081 5.787 26.255 9.103 23.27 12H12.03v1H23.27c2.985-2.897 5.81-6.213 8.761-9.125 2.952 2.912 5.89 6.227 8.883 9.125h11.117v-1H40.914c-2.994-2.898-5.93-6.213-8.883-9.125zm-20 20.363C9.133 26.224 5.82 29.048 2.906 32c.165.167.341.333.516.5 2.787-2.77 5.877-5.445 8.61-8.26v-1.002zm40 0v1.002c2.732 2.816 5.825 5.49 8.612 8.26.174-.166.349-.334.513-.5-2.912-2.951-6.227-5.776-9.125-8.762z" opacity=".1" fill="#F9F5D7"/>
    <path d="M60.64 32.508c-2.785 2.78-5.877 5.548-8.609 8.37v1c2.898-2.993 6.213-5.927 9.125-8.878-.164-.166-.34-.329-.515-.492zm-57.218.002c-.174.163-.352.325-.516.492 2.912 2.95 6.228 5.885 9.125 8.88v-1C9.3 38.06 6.208 35.29 3.421 32.51zM40.914 52c-2.995 2.897-5.932 6.213-8.883 9.125-2.952-2.912-5.775-6.227-8.761-9.123H12.03v1H23.27c2.986 2.896 5.81 6.211 8.761 9.123 2.951-2.912 5.888-6.228 8.883-9.125h11.117v-1H40.914z" opacity=".2"/>
</svg>
