<svg xmlns="http://www.w3.org/2000/svg" width="64" height="64" version="1">
    <rect width="56" height="56" x="4" y="4" rx="28" ry="28" fill="#73C48F"/>
    <path d="M32 17c-8.837 0-16 7.164-16 16 0 8.837 7.163 16 16 16h10s1.874 0 2-2c0-2-2-2-2-2H32c-6.628 0-12-5.372-12-12 0-6.627 5.372-12 12-12 6.627 0 12 5.373 12 12v2a2 2 0 0 1-4 0v-2a8 8 0 1 0-8 8c2.092 0 3.98-.822 5.406-2.137A6.006 6.006 0 0 0 42 41a6 6 0 0 0 6-6v-2c0-8.835-7.164-16-16-16zm0 12a4 4 0 1 1 0 8 4 4 0 0 1 0-8z" opacity=".2"/>
    <path d="M32 16c-8.837 0-16 7.164-16 16 0 8.837 7.163 16 16 16h10s1.874 0 2-2c0-2-2-2-2-2H32c-6.628 0-12-5.372-12-12 0-6.627 5.372-12 12-12 6.627 0 12 5.373 12 12v2a2 2 0 0 1-4 0v-2a8 8 0 1 0-8 8c2.092 0 3.98-.821 5.406-2.136A6.006 6.006 0 0 0 42 40a6 6 0 0 0 6-6v-2c0-8.836-7.164-16-16-16zm0 12a4 4 0 1 1 0 8 4 4 0 0 1 0-8z" fill="#F9F5D7"/>
    <path d="M59.982 32.664C59.631 47.866 47.29 60 32 60 16.712 60 4.371 47.868 4.018 32.668c-.007.11-.018.22-.018.332 0 15.512 12.488 28 28 28s28-12.488 28-28c0-.113-.011-.224-.018-.336z" opacity=".2"/>
    <path d="M32 4C16.488 4 4 16.488 4 32c0 .114.011.224.018.336C4.369 17.134 16.71 5 32 5c15.29 0 27.63 12.134 27.982 27.336.007-.112.018-.222.018-.336C60 16.488 47.512 4 32 4z" opacity=".2" fill="#F9F5D7"/>
</svg>
