<svg xmlns="http://www.w3.org/2000/svg" width="64" height="64">
    <path d="M32 5l2.731 14.269 7.984-12.138-2.937 14.228 12.021-8.158-8.158 12.021 14.228-2.937-12.138 7.984L60 33l-14.269 2.731 12.138 7.984-14.228-2.937 8.158 12.021-12.021-8.158 2.937 14.228-7.984-12.138L32 61l-2.731-14.269-7.984 12.138 2.937-14.228-12.021 8.158 8.158-12.021-14.228 2.937 12.138-7.984L4 33l14.269-2.731-12.138-7.984 14.228 2.937-8.158-12.021 12.021 8.158-2.937-14.228 7.984 12.138z" opacity=".2"/>
    <path d="M32 4l2.731 14.269 7.984-12.138-2.937 14.228 12.021-8.158-8.158 12.021 14.228-2.937-12.138 7.984L60 32l-14.269 2.731 12.138 7.984-14.228-2.937 8.158 12.021-12.021-8.158 2.937 14.228-7.984-12.138L32 60l-2.731-14.269-7.984 12.138 2.937-14.228-12.021 8.158 8.158-12.021-14.228 2.937 12.138-7.984L4 32l14.269-2.731-12.138-7.984 14.228 2.937-8.158-12.021 12.021 8.158-2.937-14.228 7.984 12.138z" fill="#8F3F71"/>
    <path d="M22.223 5.001a4.195 4.194 0 0 0-4.037 3.01L4.2 55.526a4.195 4.194 0 1 0 8.047 2.365l9.816-33.35 5.892 21.5a4.195 4.194 0 0 0 8.09 0l5.892-21.5 9.816 33.35a4.195 4.194 0 1 0 8.047-2.365L45.814 8.011a4.195 4.194 0 0 0-8.07.074L32 29.054 26.257 8.085a4.195 4.194 0 0 0-4.034-3.084z" opacity=".2"/>
    <path d="M8.214 55.746l13.992-47.55L32 43.96l9.794-35.764 13.992 47.55" fill="none" stroke="#066678" stroke-width="8.393" stroke-linecap="round" stroke-linejoin="round"/>
    <path d="M22.213 4a4.2 4.201 0 0 0-4.041 3.016l-14 47.595a4.2 4.201 0 0 0-.139 1.698 4.2 4.201 0 0 1 .139-.698l14-47.595A4.2 4.201 0 0 1 22.212 5a4.2 4.201 0 0 1 4.038 3.092L32 29.096l5.75-21.004a4.2 4.201 0 0 1 8.078-.076L59.83 55.61a4.2 4.201 0 0 1 .137.68 4.2 4.201 0 0 0-.137-1.68L45.828 7.016a4.2 4.201 0 0 0-8.078.076L32 28.096 26.25 7.092A4.2 4.201 0 0 0 22.213 4z" opacity=".1" fill="#F9F5D7"/>
</svg>
