<svg xmlns="http://www.w3.org/2000/svg" width="64" height="64">
    <g transform="translate(0 -988.362)">
        <circle cx="32" cy="1021.362" r="28" opacity=".2"/>
        <path d="M56.377 1020.502c0 7.16.936 13.552-3.486 18.503-5.127 5.742-12.587 9.357-20.891 9.357-15.464 0-28-12.536-28-28s12.536-28 28-28c.509 0 1.665.293 2.167.32 7 .373 11.089 5.873 15.797 10.462 5.217 5.086 6.413 9.496 6.413 17.358z" fill="#578D57"/>
        <path d="M32.223 993.366c-.161.062-.314.11-.45.121 3.078.038-2.017.432-3.125.54-1.035.559-3.286 1.26-.937-.11-1.213-.08-1.484.241-1.684.633-.02.02-.022.021-.015.03a32.31 32.31 0 0 1-.114.227c-.843.05-3.121 1.827-.894 1-.691.514-2.782 1.601-.734.915.442-.022.86-.153 1.285-.266 2.016-1.291 4.966-.835 6.465-1.035.097-.026.218-.024.335-.028.031.02.061.02.09 0 1.25.028 3.342 1.077 3.524 1.207-2.313.384 2.427 1.454 3.117 1.512 1.612-.515-.51.143.957.426-.783.72 1.53-.312 1.29.11 3.412.991-3.356-.416-.688.788 1.57-.43.719.792 1.73 1.508-.87.164 1.55 1.542-.172 1.153 1.79.324 1.766 3.02.488 1.503.894-1.692-2.024-.296-2.183.114-.611 1.153 1.339 3.062.953 3.953-.076 1.2.28 1.018 1.273 2.047.102-2.018 1.116.145 2.094-.06.097-2.015-2.756-2.704-2.433-4.515.847.886 1.956 2.67 2.644.852-.265.769.132 1.266.465 1.781-.45.535 1.38 1.476-.05 2.176-.19.747-.66.71-1.102.457.002-.144-.097-.384-.22-.149-.26-.198-.5-.43-.616-.62.112 1.17 1.544 1.365.433 2.562.814 1.712-2.653 3.15.203 3.468 1.478 2.024-3.126 1.577-1.074 3.832.425 2.587 4.173.214 2.746-1.785.127-1.817 1.191-3.32 3.215-2.441 1.236.711 1.37.691.895-.512-1.364.5-3.522-1.822-1-.894 1.425-.04 2.507 1.583 2.992 1.191-.106-.232-.256-.47-.403-.707.079.02.165.026.352-.02-.137-.223-.33-.19-.43-.117-.302-.518-.488-1.03.18-1.477-.63-1.023-2.29-3.675-.527-2.988-.15-.223-.916-2.59.03-.875 1.107-.445 2.557.994.93 1.727-1.035 1.53.246 4.993 1.614 2.199.164-1.62 2.072 2.273.816 2.812-.764 1.195-2.556 1.131-1.789 2.98-1.44.093-3.192 1.109-3.386-.952-1.83.927-3.041 2.924-4.672 3.714-.314 2.376-1.243 4.184-2.168 6.504-.591 1.466.78 2.915.125 4.43.55.655 2.04 2.226 3.691 2.523 1.934-.154 3.554-1.972 5.086-2.945.93.61 2.323-1.436 1.941.996-.574 1.377 1.972 2.31.418 3.946-.033.067-.1.262-.14.355a28 28 0 0 0 6.355-16.797c-.526-14.924-12.7-26.882-27.726-26.999zm-4.817.442l-.07.019.07-.02zm-.136.03l-.188.036.188-.035zm-.204.044l-.074.02.074-.02zm-2.113.707l-.082.02.082-.02zm-.348.097l-.187.04.187-.04zm-1.707.497l-.175.066.175-.066zm-.28.078l-.079.039.078-.04zm9.331.375c-.046-.02-.158 0-.37.062.062.312.51 0 .37-.062zm-10.39.07l-.051.031.05-.031zm5.93.055c-.028 0-.094-.002-.223.07.026.188.303-.046.222-.07zm4.378.082l.094.05-.094-.05zm-1.62.047c-.401-.026.392.369.855.203-.455-.138-.722-.193-.856-.203zm-9.2.046l-.027.02.027-.02zm10.828.043c-.675.002.061.636.488.16l-.105-.113a2.206 2.206 0 0 0-.383-.047zm.617.168l.004.094-.004-.094zm-11.98.114s-.028-.003-.106.043c-.147.114.104-.031.106-.043zm-.172.082l-.094.074.094-.074zm15.129.05c-.098-.02-.217.174.074.098-.011-.066-.042-.093-.074-.097zm-15.32.051l.015.036-.016-.036zm6.07.133c-.651.184.152.432 0 0zm-6.383.113l-.113.11.113-.11zm-.191.133l-.18.125.18-.125zm1.296.602c-.076-.034-.254 0-.304.187.354-.056.38-.153.304-.187zm14.371.039c-.127.032-.14.154-.062.219-.217.054.215.722.465.214a1.635 1.635 0 0 0-.297-.183.676.676 0 0 0 .297-.149c-.186-.104-.32-.121-.403-.101zm-12.703.02c-.28 0-1.552 1.152-1.53.136-1.07.382-2.343 1.52-2.673.86-.274 1.152 1.769.909.297 1.398.805.553-1.877 2.4-1.144 2.437-.039.03-.061.052-.098.082-.172-.02-.686.104-.484.282.207-.068.234-.1.32-.141-1.29 1.06-1.664 1.758-2.82 2.703.112.682-1.89 2.957-.961 1.305-1.676 1.407-3.922 3.025-4.215 5.625-.515 2.022-1.777 4.717-1.34 6.308.273-1.274.584-4.094 1.14-4.07-.589 2.722-1.042 5.644-.671 8.348.844 2.717 3.362 4.494 3.914 7.281.64 1.25 1.423 2.096 2.488 2.21 1.313 1.806-1.05 2.418-.93 3.665-.105 2.041 1.587 4.097 2.957 5.648 1.109.407 1.688 1.477 2.16 2.59a28 28 0 0 0 9.06 2.903c.356-.234.729-.458 1.179-.598 2.044.324 3.179-1.24 3.62-2.86 2.682-1.17 1.048-3.126-1.175-3.156-1.794.253-2.53-.987-4.058-.808.237-.266-.679-.705-1.196-.32.826-3.207-6.54-5.404-8.351-6.954-1.268 1.711.508-1.502-1.559-.465-1.005.372-1.263 1.044-1.934-.273-2.94-.356.083-4.087-2.75-4.762 1.11-1.007 1.311-3.307-.722-1.754-2.077-.927-.98-5.42 1.015-5.187.719.102 1.419 2.066 1.446.758 2.122.377 1.332 2.91 2.074 3.84.176-1.933.797-3.756 2.95-3.856.15-.486.528-2.644.472-.684.216-.833.797-1.01 1.387-1.144.137 0 .233-.021.242-.055.548-.124 1.061-.283 1.242-.977 1.05-.35 3.073-.454 1.203.422 1.027-.076 1.849-.185 1.281-.726.609-.186-.717-.651-.363-.278-.044-.03-.07-.056-.121-.086-.202-1.248-.241-.461.3-1.132-.856-.787-2.9.833-.824-.485 1.833.275 4.97-.46 3.372-1.472-.084-.488-.737-1.693-.547-2.668-.075-.768-1.712 1.04-1.43-.829 1.223-.365-1.276-2.604-1.277-.554-.593 1.01-1.124 1.823-2.024 2.469-.33 2.117-1.51-.104-.383-.903-1.285-1.383-1.512-4.244 1.09-4.12-.603-1.183 1.316.758 1.055-.747 1.225 1.174 3.161-1.862.926-.383-.3-.697 1.356-3.028-.285-1.265-1.142 1.48-.805-1.874-2.145-.578.112-1.321 1.217-2.791.191-3.801 1.172-.868 3.176-3.922.493-2.66.212-.386.23-.517.136-.52zm-3.73.019l-.016.137.016-.137zm-.094.137c-.012-.02-.037.017-.078.117.045.334.115-.073.078-.117zm17.485 0h.109-.11zm-15.567.02c-.025.02-.038.058-.027.132.262-.042.103-.187.027-.133zm3.266.323l.035.043-.035-.043zm-5.227.032c.007-.02-.033 0-.164.117-.302.359.143-.066.164-.117zm16.367.023c-.212.064.09.549.403.125-.203-.122-.332-.147-.403-.125zm.551.105l-.047.125.047-.125zm2.406.125l-.14.02.14-.02zm1.16.059l-.074.055.075-.055zm.196.102l.125.097-.125-.097zm-21.078.125l-.117.066.117-.066zm-.215.136l.062.02-.062-.02zm21.273.028l.063.066-.063-.066zm.02.316c.005.048.404.231.164.019-.125-.034-.166-.031-.164-.019zm-21.098.336c-.018-.03-.082-.018-.222.078-.076.46.278.018.222-.078zm.102.09l-.074.07.074-.07zm20.011.03c-.182-.041-.059.132.645.68.628.429 1.265.278.547-.054-.521-.324-1.01-.583-1.192-.625zm-2.292.044l.265.09-.265-.09zm-18.137.047l.023.047-.023-.047zm18.398.09c-.117-.02-.033.203.188.105-.087-.072-.149-.101-.188-.105zm-.168.019l.082.082-.082-.082zm.399.121c-.027 0-.045.033-.028.117.288.11.108-.129.028-.117zm-.188.07l-.058.133.058-.133zm-.289.027l.098.074-.098-.074zm-17.512.21c-.025 0-.035 0 .004.052.32.1.074-.043-.004-.051zm18.016 0l.113.032-.113-.031zm4.68.052c-.11.06.032.392.203.066-.102-.074-.166-.086-.203-.066zm-4.883.023c-.052.02-.005.12.305.27-.1-.21-.253-.285-.305-.27zm-17.715.055l-.02.074.02-.074zm18.152.02l-.027.066.027-.066zm-.355.098l.012.172-.012-.172zm4.027.039c-.443.024-.798.338.14.45l.493-.075c-.07-.299-.367-.39-.633-.375zm-22.183.215l.054.035-.054-.035zm7.152.539c-.283.02.118.574.55.328l-.015-.11c-.27-.17-.44-.226-.535-.222zm11.02 0l.023.105-.023-.105zm-12.747.12c-.235.02-.505.176-.757.59l.113.083.312.019c1.426.493 1.04-.74.332-.688zm18.153.063c-.158-.032-.211.376.18.219-.063-.146-.128-.208-.18-.22zm-15.54.113l-.144.074.145-.074zm-1.23.023c-.028 0-.021.034.059.09.415.036.026-.112-.059-.09zm1.176.051c-.155 0-.318.469.129.219-.027-.154-.077-.216-.129-.219zm-.55.094l.085.035-.086-.035zm-.325.047c-.138-.022-.38.06-.508.2-.22.9 1.624.272.39.234.29-.285.256-.41.118-.434zm1.66.117c-.112.04-.227.218-.18.602.552-.36.368-.67.18-.602zm2.285 0c-.961 0 .008.8-.695.844-.686.106-2.149 1.273-.883.856.721-.146 3.718-1.065 2.117-1.641a3.705 3.705 0 0 0-.539-.059zm-1.593.066l-.125.118.125-.118zm-1.262.165c-.032.02-.39.346-.113.128.097-.1.123-.132.113-.128zm10.34.065c-.045 0-.074.053-.067.102-.51-.28-1.347.1-.293.453-.233-.752.332.391.618.18.018-.3-.103-.49-.266-.602.024 0 .036.02.082 0-.02-.086-.047-.119-.074-.125v-.01zm.094.02c-.057.09.632.508.367.062-.249-.086-.349-.092-.367-.062zm-4.684.07v.02c-.12-.022-.271.048-.508.304-.064 0-.13.031-.195.04-.011-.063-.045-.124-.16-.106.018.076.039.089.058.125-1.384.203-2.83.953-2.562 1.89 1.59.376.392 2.217 1.195 2.547-.323.182.156 1.12-.5 1.207 1.279-.253-.94.391.164.524-.411.707-.171 1.565.465 2.57.69-.156.246.034.562.516.886-1.151.984-2.625 2.426-3.368-.014-.478 2.51-1.236.801-1.386.39-.07.117-.448-.082-.023-.042 0-.052 0-.098-.02-.348-.906 1.966.237.25-.792-.684-.543.352-.505.395-.79.083-.02.049-.068-.027-.098-.038-.074-.114-.157-.282-.273.105-.805-.808-1.247-.402-2.555-1.09.648-1.143-.266-1.5-.332zm-5.555.02l.043.101-.043-.102zm5.13 0l.089.082-.09-.082zm-8.165.039c-.097 0-.21 0-.34.019-.632 1.535-.664-.473-1.015.96.733 2.66 2.809-.847 1.355-.98zm8.11.019l.07.07-.07-.07zm-4.528.02c-.049-.018-.103-.022-.144 0-.055.034-.087.116-.051.277.443-.03.342-.226.195-.281zm-1.125.086l-.117.105.117-.105zm-9.219.019l-.14.059.14-.06zm8.961.113l.157.035-.157-.035zm-.047.03l.051.067-.05-.066zm10.262.052c-.019 0 .019.022.164.074.443.092-.107-.074-.164-.074zm-19.383.019l-.047.027.047-.027zm10.285 0c-.072.024.028.36.137.113-.068-.094-.112-.121-.137-.113zm-1.41.043l-.136.098.136-.098zm-8.906.101c-.095.034-.572.336-.082.086.103-.08.114-.098.082-.086zm.055.024c-.573.19.015.409 0 0zm7.86.106c-.05.028-.085.11-.075.273.488.026.221-.357.074-.273zm-8.25.074c-.05.034-.179.172-.438.484.006.24.585-.586.437-.484zm.296.027l-.09.117.09-.117zm-.152.066l-.063.09.063-.09zm-.055.105l-.125.113.125-.113zm9.672 0c-.051.02-.125.055-.219.121-.024.732.575-.223.219-.12zm.312 0l-.086.07.086-.07zm-10.406.074c-.002 0-.048.027-.168.125-.196.236.174-.105.168-.125zm9.266.137l.136.09-.136-.09zm-9.043.035c-.262 0-.225.32 0 0zm-.184.03l-.097.075.097-.074zm8.832 0c-.37-.02-.84.2-.293.696.937-.426.664-.678.293-.695zm-8.867.079l-.117.05.117-.05zm24.246.02l-.098.035.098-.035zm-25.027.265c-.246.184-.549.413-.168.141.604-.462.414-.324.168-.14zm10.238.027c-.142.036-.352.151-.625.395.877.1 1.052-.5.625-.395zm14.691 0l-.023.172.023-.172zm-6.015.11l.023.098-.023-.098zm-18.652.019l-.02.09.02-.09zm-.036.098l-.109.098.11-.098zm-.093.019l-.043.082.043-.082zm8.515.03l-.062.099.062-.098zm-1.238.153l.035.074-.035-.074zm17.543.125l-.047.113.047-.113zm-5.965.031l.195.254-.195-.254zm-19.2.078l-.12.117.12-.117zm8.18.09l-.097.106.098-.106zm-8.19.074l-.083.082.082-.082zm25.25.047l-.04.133.04-.133zm-5.743.192c-.024.02-.02.062.035.168.33.048.037-.213-.035-.168zm5.617.027l.05.148-.05-.148zm-25.41.019l-.082.02.082-.02zm19.629.152l.094.105-.094-.105zm-20.192.187c-.049 0-.204.22-.527.856-.111 1.17.675-.848.527-.856zm10.766.133l.066.106-.066-.106zm15.383.02l.02.114-.02-.114zm-26.121.106l.02.09-.02-.09zm19.89.3c-.187 0-.213.234.23.086a.357.357 0 0 0-.23-.086zm.286.114c-.044 0-.1.02-.168.07.298.142.3-.06.168-.07zm-.141.082c-.047 0-.058.032.027.164.608.303.115-.144-.027-.164zm-9.809.019c.001-.02-.03 0-.125.101-.179.288.123-.066.125-.101zm1.18 0c-.022 0-.013.034.063.094.349.024.004-.12-.063-.094zm11.125.027l-.059.156.06-.156zm-22.781.066l-.067.152.067-.152zm12.023.082l-.164.03.164-.03zm-.176.113l-.203.055.203-.055zm.23.058l-.07.121.07-.12zm-12.32.16l-.038.094.039-.094zm-.019.023l-.078.082.078-.082zm12.418.23l-.059.141.06-.14zm18.18.048l.023.156-.023-.156zm-18.68.059c-.194.104-.057.767.309.148-.141-.158-.244-.184-.309-.148zm-1.617.078c-.02 0-.032.047-.024.195.199.285.08-.191.024-.195zm-.074.03l-.102.153.102-.152zm2.054.02c-.032.032.205.396.145.117-.092-.1-.134-.127-.145-.117zm-2.324.125c-.45-.04-1.138.712.09 1.16.364-.828.18-1.137-.09-1.16zm20.25.105l.172.074-.172-.074zm-2.64.149l-.055.101.054-.101zm2.414 0l.101.035-.101-.035zm.988.785c-.064-.024-.048.09.234.406-.027-.221-.17-.383-.234-.406zm-21.418.144c-1.118.216.666.194 0 0zm13.355.188c-.784-.072-2.083.506-.734 1.14.344.034.711.212.91-.175.581-.645.295-.922-.176-.965zm-12.175.02l-.008.133.008-.133zm-.309.02c-.022.02-.018.062.043.152.316-.02.022-.205-.043-.152zm20.57.187c-.035-.058-.046-.059.008.062.44.772.1.11-.008-.062zm-21.066.082c-.042.024-.106.095-.188.243.26.032.315-.315.188-.243zm18.074.215l.074.09-.074-.09zm-17.031.113l.105.066-.105-.066zm7.84.106l-.145.051.145-.051zm-7.133.129l.086.144-.086-.144zm13.648.047l.125.086-.125-.086zm-.02.035l.145.082-.144-.082zm1.563.09l.031.101-.03-.101zm-.043.055l.164.258-.164-.258zm4.438.082l.133.074-.133-.074zm-5.77.023l.117.07-.117-.07zm5.207.024c-.127-.078-.087.79.184.472-.076-.316-.141-.446-.184-.472zm-.363.289l.078.078-.078-.078zm1.016.066c-.065 0-.099.323.07.125-.022-.098-.049-.127-.07-.125zm-.368.03l-.039.099.04-.098zm-18.355.145c-.088-.022-.186 0-.031.121.196-.038.119-.099.03-.12zm14.285.168l.09.094-.09-.094zm-15.156.082l-.012.141.012-.14zm15.031.188c-.238 1.704 1.793 1.27 1.543 2.922.812-.358-.5 1.702.797.156l.25-.195.238-.082c.005-1.486-2.117-1.649-2.828-2.801zm-14.348.113l.086.09-.086-.09zm13.883.164c-.018.02-.018.078.012.254.234.218.044-.284-.012-.254zm-17.91.2l-.164.077.164-.078zm18.067.09c-.047.02.34.42.226.16-.146-.122-.21-.165-.226-.16zm-18.083.054a.673.673 0 0 0-.222.051c.374.1.39-.045.222-.05zm.172.023l-.117.066.117-.066zm8.22 0l-.126.062.125-.062zm9.6.02l-.097.062.098-.062zm-9.378.262l-.067.09.067-.09zm13.136.047l-.062.09.062-.09zm-3.28.04c-.235.36.356-.02 0 0zm-9.606.02l.133.073-.133-.074zm-9.293.113l.156.03-.156-.03zm19.066.023l-.035.098.035-.098zm-31.594.125l.004.113-.004-.113zm31.543 0l-.035.14.035-.14zm-20 .316c.131.66.5-.094 0 0zm20.75.176l-.015.172.015-.172zm-32.347.039l-.02.136.02-.136zm31.804.074c-.426.038-1.012 1.078 0 1.57l.215-.223c.24-1.034.041-1.37-.215-1.347zm12.832.242c-.085.032-.072.233.254.715.305-.355-.111-.769-.254-.715zm-11.957.051l-.125.078.125-.078zm9.715.266l-.043.082.043-.082zm-.043.175l-.011.149.011-.149zm-8.351.336l-.117.074.117-.074zm5.097.02c.04.02.392.13.098.02-.094-.024-.11-.025-.098-.02zm3.754.062l.106.149-.106-.149zm-3.832.02l.098.051-.098-.05zm1.008.176l-.074.066.074-.066zm3.117.047l-.012.148.012-.148zm-.343.281h.101-.101zm.5.102l-.012.098.012-.098zm.472.11l.035.132-.035-.133zm-2.34.171l.153.078-.153-.078zm4.34.055l-.023.082.023-.082zm-3.906.1l.043.149-.043-.149zm1.977.176c-.08-.042-.924.781-.258.406.227-.283.284-.392.258-.406zm-1.954.02c-.015.02.001.06.079.14.285-.03-.033-.194-.079-.14zm.329.187l-.114.02.114-.02zm-3.543.027l-.059.094.059-.094zm-39.602.023l-.074.07.074-.07zm.445.023l-.062.305.062-.305zm43.399 0l.07.082-.07-.082zm-4.508.172c-.135.02-.182.238.27.602.087-.44-.135-.621-.27-.602zm-20.477.078c-.068.025-.222.18-.558.555-1.873.942 1.104.983.355 1.43l.137.055c.855.078.68.055.613-.855-.954-.108-.343-1.253-.547-1.184zm-2.312.102c-.205-.036-.276.26.383.508-.09-.347-.26-.487-.383-.508zm-16.082.117c-.25.42.238-.08 0 0zm35.453 0l.086.062-.086-.062zm6.055.477c-.403-.068-1.17 1.217.187.64.038-.443-.053-.617-.187-.64zm-2.164.078c-.26-.02-.437.263.25.882.353-.56.01-.868-.25-.882zm-20.559.027l-.125.023.125-.023zm-2.371.546l-.195.098.195-.098zm25.3.426l.09.02-.09-.02zm-25.222.203c-.288.02-.589.595.242.23-.05-.175-.146-.234-.242-.23zm21.832.027l-.098.035.098-.035zm-39.191.027l-.004.157.004-.157zm38.992.18c-.103-.064-.508.344-.043.258.076-.162.077-.236.043-.258zm-38.399.094l.024.09-.024-.09zm-.324.344l-.023.125.023-.125zm38.352.191l-.074.113.074-.113zm-25.727.438l.16.027-.16-.027zm-1.32.855l-.11.11.11-.11zm-7.285.29l-.098.02.098-.02zm.863.741l.04.094-.04-.094zm5.86.051l-.165.235.164-.235zm-.395.293l-.129.074.129-.074zm-7.828.078l-.094.137.094-.137zm5.343 2.926l-.035.098.035-.098zm.77.324l.094.066-.094-.066zm.105.094c-.06-.038-.118.036-.082.387.297.054.185-.323.082-.387zm-3.964.414l.097.02-.097-.02zm3.488.246c-.104-.04-.218.043-.027.368.224-.164.13-.328.027-.368zm.613.02c-.027-.034.12.742.098.375-.061-.262-.089-.364-.098-.375zm-2.597.047c-.049.02-.052.08 0 .2 1.474.474 1.133 2.295 2.566 2.574.217-.778-2.228-2.894-2.566-2.774zm-1.415.22l-.101.02.101-.02zm3.458.171c-.06-.028-.138.222.042.145-.006-.094-.022-.137-.042-.145zm-2.11.02c-.031 0-.05.065-.035.211.329.2.13-.231.035-.211zm2.863.129l.102.3-.102-.3zm-1.3.43l.125.113-.125-.113zm.117.132l.078.098-.078-.098zm-3.715.188l-.082.082.082-.082zm5.207.305l.113.101-.113-.101zm.156.128c-.06.03-.404.356-.066.102.079-.088.087-.112.066-.102zm-3.066.114l.11.082-.11-.082zm3.371.156l.098.078-.098-.078zm-.148.477c-.095-.043-.487.142-.047.132.077-.08.078-.118.047-.132zm-2.262.503c-.006.034.115.14.472.356.7.06-.455-.458-.472-.356zm2.195.066l.129.086-.129-.086zm.074.184c-.264-.046-.458.039-.43.371-.528-.116 1.013 1.025.895.64 1.792.465.33-.871-.465-1.011zm-4.226 3.48l.035.125-.035-.125zm13.113 7.207l.164.024-.164-.024zm.785.052l-.191.02.191-.02zm-.785.022l-.066.082.066-.082zm2.598.543l-.04.09.04-.09z" opacity=".2"/>
        <path d="M32.221 992.368a1.72 1.72 0 0 1-.448.12c3.077.038-2.015.43-3.123.538-1.035.56-3.286 1.26-.938-.11-1.213-.08-1.484.243-1.684.635-.02.02-.023.02-.016.03l-.115.226c-.844.05-3.119 1.825-.892.999-.69.513-2.782 1.602-.735.916.443-.022.861-.152 1.285-.266 2.016-1.291 4.965-.836 6.464-1.036.098-.026.219-.024.336-.028.031.02.062.02.09 0 1.25.028 3.341 1.078 3.523 1.209-2.313.384 2.43 1.451 3.12 1.51 1.612-.516-.51.143.957.426-.784.72 1.528-.31 1.287.112 3.413.991-3.354-.417-.686.787 1.571-.43.72.793 1.73 1.51-.87.164 1.55 1.54-.171 1.15 1.79.325 1.764 3.021.486 1.505.894-1.692-2.022-.296-2.182.114-.61 1.153 1.338 3.06.952 3.95-.076 1.201.278 1.02 1.271 2.049.102-2.018 1.117.144 2.095-.06.096-2.016-2.753-2.704-2.43-4.515.847.886 1.955 2.67 2.643.85-.265.77.13 1.269.462 1.784-.45.534 1.382 1.476-.049 2.176-.19.747-.66.71-1.102.457.003-.144-.096-.386-.219-.15-.26-.198-.498-.431-.615-.621.112 1.171 1.543 1.365.432 2.562.814 1.713-2.653 3.152.203 3.47 1.478 2.023-3.127 1.576-1.075 3.831.425 2.586 4.172.216 2.745-1.783.127-1.817 1.195-3.32 3.219-2.442 1.235.712 1.366.689.891-.514-1.364.5-3.52-1.822-.998-.894 1.425-.04 2.506 1.584 2.991 1.192-.105-.231-.255-.468-.402-.705.079.02.163.024.35-.022-.137-.223-.326-.19-.426-.118-.303-.518-.49-1.03.178-1.477-.63-1.023-2.29-3.673-.528-2.986-.15-.223-.914-2.592.033-.877 1.106-.446 2.556.995.93 1.728-1.036 1.53.242 4.995 1.61 2.2.164-1.62 2.073 2.272.818 2.812-.765 1.195-2.556 1.13-1.789 2.98-1.44.092-3.194 1.107-3.388-.954-1.83.927-3.039 2.925-4.67 3.716-.314 2.376-1.243 4.182-2.168 6.502-.591 1.466.777 2.918.123 4.433.55.654 2.042 2.226 3.694 2.524 1.934-.154 3.551-1.975 5.083-2.948.93.61 2.326-1.437 1.944.995-.574 1.377 1.97 2.312.416 3.949-.355.712-1.14 3.088-1.469 3.841 4.783-5.023 7.736-11.804 7.736-19.288 0-15.39-12.417-27.875-27.779-27.994zm-4.815.44l-.07.02.07-.02zm-.136.03l-.186.036.186-.036zm-.203.044l-.076.02.076-.02zm-2.113.705l-.083.022.083-.022zm-.35.098l-.186.04.186-.04zm-1.704.498l-.178.064.178-.064zm-.282.076l-.079.04.08-.04zm9.33.377c-.046-.02-.16 0-.372.062.063.312.511 0 .372-.062zm-10.39.068l-.05.032.05-.032zm5.93.054c-.027 0-.092 0-.221.072.026.188.302-.048.221-.072zm4.378.082l.093.052-.093-.052zm.645.02l.09.052-.09-.052zm-2.266.03c-.4-.026.393.366.855.2-.454-.138-.722-.19-.855-.2zm-9.199.046l-.027.02.027-.02zm10.828.044c-.675.002.063.633.49.158l-.107-.114a2.154 2.154 0 0 0-.383-.044zm.618.166l.006.096-.006-.096zm-11.982.112s-.026 0-.104.046c-.147.114.102-.034.104-.046zm-.172.084l-.093.076.093-.076zm15.13.05c-.098-.02-.218.174.073.098-.011-.066-.041-.094-.074-.098zm-15.319.052l.014.036-.014-.036zm6.068.132c-.651.184.152.432 0 0zm-6.382.112l-.112.112.112-.112zm-.192.134l-.18.124.18-.124zm1.296.602c-.076-.034-.253 0-.303.186.355-.056.38-.152.303-.186zm14.375.04c-.127.032-.14.154-.063.219-.217.054.215.724.465.216a1.676 1.676 0 0 0-.298-.186.67.67 0 0 0 .295-.148c-.186-.104-.316-.122-.399-.102zm-12.704.02c-.28 0-1.555 1.152-1.534.136-1.07.382-2.338 1.52-2.669.859-.274 1.152 1.768.908.296 1.397.805.553-1.878 2.402-1.146 2.439-.039.03-.059.052-.096.082-.172-.02-.688.104-.486.282.207-.068.237-.098.322-.14-1.29 1.059-1.663 1.756-2.819 2.701.113.682-1.89 2.956-.962 1.304-1.676 1.408-3.92 3.028-4.214 5.628-.515 2.022-1.78 4.716-1.343 6.308.273-1.275.584-4.095 1.14-4.072-.589 2.723-1.04 5.645-.67 8.349.845 2.717 3.365 4.494 3.916 7.281.64 1.251 1.42 2.095 2.486 2.21 1.313 1.804-1.047 2.42-.927 3.666-.106 2.042 1.586 4.095 2.956 5.647 2.116.775 2.312 3.988 3.497 5.25.92.422 1.862.802 2.833 1.124.183.024.15-.064.612.024.82.086 2.255.176.985-.4 2.205 1.006 2.87-.604 4.47-1.104 2.045.324 3.181-1.238 3.623-2.858 2.681-1.17 1.048-3.128-1.175-3.158-1.794.253-2.532-.988-4.06-.81.236-.265-.679-.701-1.196-.316.826-3.207-6.542-5.404-8.353-6.954-1.268 1.71.51-1.502-1.556-.465-1.005.372-1.263 1.04-1.933-.276-2.94-.356.08-4.086-2.751-4.76 1.11-1.008 1.311-3.307-.722-1.753-2.077-.928-.98-5.423 1.014-5.19.719.102 1.417 2.065 1.444.757 2.122.378 1.334 2.913 2.076 3.842.175-1.932.795-3.755 2.947-3.855.15-.487.53-2.644.473-.684.217-.833.8-1.01 1.39-1.143.136 0 .232-.024.24-.058.548-.124 1.063-.283 1.244-.976 1.05-.35 3.073-.452 1.203.424 1.027-.076 1.848-.186 1.28-.728.608-.186-.718-.652-.364-.279-.044-.03-.07-.054-.12-.084-.202-1.248-.241-.463.3-1.134-.856-.787-2.9.833-.822-.484 1.832.275 4.967-.46 3.368-1.472-.083-.488-.734-1.693-.544-2.668-.075-.768-1.711 1.04-1.43-.829 1.223-.366-1.275-2.602-1.277-.552-.592 1.01-1.123 1.823-2.023 2.469-.33 2.117-1.514-.106-.386-.905-1.285-1.384-1.511-4.244 1.091-4.12-.603-1.183 1.314.76 1.053-.745 1.225 1.174 3.163-1.861.927-.382-.299-.698 1.357-3.029-.284-1.266-1.142 1.48-.805-1.875-2.144-.58.112-1.32 1.217-2.79.191-3.8 1.172-.868 3.176-3.923.492-2.661.213-.386.23-.517.137-.52zm-3.732.02l-.017.134.017-.134zm-.093.134c-.013-.02-.036.02-.077.12.045.335.114-.076.077-.12zm17.483 0h.112-.112zm-15.564.02c-.025.02-.04.06-.03.134.262-.042.106-.188.03-.134zm3.265.325l.033.044-.033-.044zm-5.225.03c.007-.02-.033 0-.164.116-.302.36.143-.064.164-.116zm16.365.024c-.212.064.089.55.402.126-.203-.122-.331-.148-.402-.126zm.552.106l-.046.124.046-.124zm2.407.126l-.143.02.143-.02zm1.159.058l-.074.054.074-.054zm.194.102l.126.098-.126-.098zm-21.08.124l-.114.068.115-.068zm-.212.136l.062.02-.062-.02zm21.273.028l.063.066-.063-.066zm.02.315c.004.048.404.231.163.02-.124-.034-.166-.032-.164-.02zm-21.1.339c-.018-.03-.08-.02-.22.076-.076.46.276.02.22-.076zm.102.088l-.074.072.074-.072zm.06 0c-.018-.02-.06 0-.14.09.026.262.193-.054.14-.09zm19.953.03c-.182-.042-.059.132.645.68.628.429 1.265.28.547-.053-.521-.324-1.01-.584-1.192-.626zm-2.292.046l.266.088-.266-.088zm-18.137.046l.022.046-.022-.046zm18.4.09c-.118-.02-.034.201.186.104-.086-.072-.147-.1-.186-.104zm-.17.02l.082.08-.082-.08zm.397.12c-.027 0-.042.034-.025.118.288.11.105-.13.025-.118zm-.186.07l-.06.134.06-.134zm-.29.028l.098.072-.098-.072zm.503.21l.115.03-.115-.03zm-18.014 0c-.026 0-.034 0 .006.053.32.1.072-.044-.006-.052zm22.695.05c-.11.06.035.393.205.067-.101-.074-.168-.086-.205-.066zm-4.883.025c-.052.02-.003.118.306.268-.1-.21-.254-.283-.306-.268zm-17.713.054l-.02.074.02-.074zm18.153.02l-.027.066.027-.066zm-.358.098l.014.172-.014-.172zm4.028.038c-.444.024-.8.337.14.448l.494-.074c-.07-.299-.368-.389-.634-.374zm-22.184.216l.057.036-.057-.036zm7.153.541c-.284.02.117.577.55.331l-.014-.11c-.27-.17-.442-.225-.536-.222zm11.02 0l.024.106-.025-.106zm-12.746.122c-.235.02-.508.176-.76.59l.115.083.312.02c1.425.493 1.04-.738.333-.687zm18.151.064c-.157-.032-.21.374.18.216-.062-.146-.127-.205-.18-.216zm-15.54.112l-.142.074.143-.074zm-1.227.024c-.028 0-.023.034.057.09.415.036.028-.112-.057-.09zm1.37.02c.198.448.507-.146 0 0zm-.197.032c-.155 0-.316.466.131.216-.027-.154-.08-.213-.131-.216zm10.125 0c-1.176.276.738.744 0 0zm.55.05l-.027.104.027-.104zm-11.225.042l.085.036-.085-.036zm-.325.046c-.138-.022-.379.06-.506.2-.22.9 1.622.273.388.235.289-.284.256-.412.118-.435zm3.946.12c-.962 0 .008.799-.695.842-.686.106-2.15 1.273-.883.856.72-.146 3.72-1.064 2.12-1.64a3.705 3.705 0 0 0-.542-.059zm-2.286 0c-.113.04-.226.218-.178.602.552-.36.365-.67.178-.602zm.694.066l-.126.116.126-.116zm.375.096a1.43 1.43 0 0 0-.402.216c-.014.124.385.618-.15.208.049 1.259 1.212-.6.552-.424zm-1.638.068c-.032.02-.389.346-.112.128.098-.1.122-.132.112-.128zm10.339.066c-.045 0-.073.054-.066.102-.51-.28-1.347.098-.293.451-.233-.752.33.391.616.18.018-.3-.102-.489-.266-.601.025 0 .04.02.085 0-.019-.086-.049-.12-.076-.126zm.093.02c-.057.09.634.506.369.06-.248-.086-.35-.09-.37-.06zm-4.682.088c-.119-.022-.271.05-.508.306-.065 0-.13.03-.194.038-.011-.062-.046-.122-.162-.104.019.076.038.088.058.124-1.384.203-2.826.952-2.56 1.89 1.59.375.39 2.218 1.193 2.548-.323.182.158 1.12-.498 1.206 1.279-.253-.942.392.161.525-.411.708-.168 1.565.468 2.57.69-.156.244.032.56.514.886-1.15.983-2.626 2.426-3.368-.014-.479 2.51-1.236.8-1.387.39-.07.12-.444-.078-.02-.042 0-.056 0-.102-.02-.347-.906 1.968.237.252-.793-.684-.542.354-.505.396-.79.084-.02.047-.068-.03-.098-.037-.074-.11-.158-.278-.273.104-.805-.81-1.247-.405-2.554-1.09.647-1.141-.265-1.499-.331zm-.426 0l.09.084-.09-.084zm-5.13 0l.044.102-.044-.102zm-3.035.038c-.097 0-.21 0-.34.022-.631 1.536-.665-.474-1.016.96.733 2.658 2.81-.85 1.356-.982zm8.11.02l.071.072-.07-.072zm-4.67.024c-.055.034-.088.118-.052.279.59-.038.216-.381.052-.279zm-.982.082l-.117.106.117-.106zm-9.22.022l-.14.058.14-.058zm8.963.112l.156.036-.156-.036zm-.05.032l.053.064-.052-.064zm10.266.05c-.019 0 .016.02.161.072.443.092-.105-.072-.161-.072zm-19.384.02l-.05.028.05-.028zm10.284 0c-.073.024.027.358.137.112-.07-.094-.113-.12-.137-.112zm-1.408.044l-.137.096.137-.096zm.503.02c-.142-.03-.336.05-.432.386.757.022.668-.335.432-.386zm-9.412.08c-.095.034-.572.334-.082.084.103-.08.114-.096.082-.084zm.057.024c-.573.19.015.409 0 0zm7.859.106c-.049.028-.086.108-.077.27.489.027.224-.354.077-.27zm2.625.05c-.072.052-.07.358.093.062-.038-.07-.069-.08-.093-.062zm-10.875.022c-.049.034-.18.172-.44.484.006.24.588-.585.44-.484zm.296.03l-.09.114.09-.114zm-.15.066l-.066.09.065-.09zm.005.106l-.115.114.115-.114zm9.923 0l-.085.068.085-.068zm-9.986 0l-.126.11.126-.11zm9.671 0c-.05.02-.121.052-.216.118-.024.732.572-.22.216-.118zm.941.022l-.123.098.123-.098zm-.424.022c-.148-.032-.295.06-.407.369 1.732 2.288 1.047-.228.407-.369zm-10.61.03c-.001 0-.046.026-.166.124-.197.236.173-.104.167-.124zm9.265.136l.14.09-.14-.09zm-9.04.036c-.261 0-.225.32 0 0zm8.646.03c-.37-.02-.839.198-.292.695.936-.427.663-.677.292-.695zm-8.83 0l-.1.074.1-.074zm-.037.076l-.115.052.115-.052zm24.248.02l-.098.038.098-.038zm-25.028.265c-.246.184-.55.414-.17.142.605-.462.417-.325.17-.142zm10.238.028c-.143.036-.351.15-.624.394.877.1 1.051-.5.624-.394zm3.311 0l.099.06-.099-.06zm11.38 0l-.024.172.025-.172zm.08.02l.074.128-.074-.128zm-6.095.09l.022.096-.022-.096zm-18.651.02l-.022.09.022-.09zm12.22 0l-.077.076.077-.076zm12.63.036l-.077.044.077-.044zm-24.886.06l-.11.098.11-.098zm-.093.02l-.043.084.043-.084zm8.512.032l-.06.096.06-.096zm-1.236.154l.033.074-.033-.074zm17.544.124l-.049.112.05-.112zm-5.966.03l.197.255-.197-.255zm-19.201.08l-.12.118.12-.118zm-.033.068l.058.024-.058-.024zm8.214.02l-.095.106.095-.106zm-8.192.076l-.082.082.082-.082zm25.25.044l-.036.134.035-.134zm-5.74.192c-.024.02-.023.064.033.17.33.048.039-.214-.033-.17zm5.616.028l.052.15-.052-.15zm-25.41.02l-.082.02.082-.02zm25.618.154c-.06.038-.1.158.057.24.08-.235.002-.278-.057-.24zm-5.991 0l.096.104-.096-.104zm5.865 0c-.073-.022-.106.246.08.142-.027-.096-.055-.136-.08-.142zm-26.056.186c-.049 0-.201.22-.525.856-.111 1.17.672-.848.525-.856zm26.215.022l-.008.134.01-.134h-.002zm-15.447.11l.066.106-.066-.106zm15.381.02l.02.112-.02-.112zm-26.119.106l.017.088-.017-.088zm19.89.301c-.187 0-.214.231.23.084a.352.352 0 0 0-.23-.084zm.285.112a.303.303 0 0 0-.17.07c.299.142.302-.06.17-.07zm-.142.082c-.048 0-.056.034.03.166.607.303.111-.146-.03-.166zm-8.627.02c-.023 0-.013.036.062.096.35.024.004-.122-.062-.096zm-1.182 0c.001-.02-.03 0-.125.104-.18.287.123-.068.125-.104zm12.305.028l-.057.158.057-.158zm-22.78.068l-.068.15.068-.15zm26.947.06l.038.096-.038-.096zm-14.924.02l-.164.03.164-.03zm-.175.114l-.202.054.202-.054zm.23.058l-.069.12.069-.12zm-12.319.162l-.04.092.04-.092zm-.022.02l-.076.084.076-.084zm12.42.232l-.06.142.06-.142zm18.178.046l.025.156-.025-.156zm-18.678.058c-.194.104-.06.77.306.15-.141-.158-.242-.186-.306-.15zm-1.62.08c-.018 0-.03.048-.021.196.198.285.079-.192.022-.196zm-.073.03l-.101.154.101-.154zm2.056.02c-.032.032.203.395.142.116-.091-.1-.13-.126-.142-.116zm-2.324.126c-.45-.04-1.138.712.09 1.16.364-.828.18-1.136-.09-1.16zm20.248.104l.172.076-.172-.076zm.965.028c-.01-.02-.05-.02-.142.038-.07.254.171.02.142-.038zm-1.192.12l.101.036-.1-.036zm-2.412 0l-.057.104.057-.104zm.058.038l-.058.134.058-.134zm3.344.75c-.064-.024-.05.088.232.404-.027-.221-.168-.38-.232-.404zm-21.418.144c-1.118.215.666.194 0 0zm13.354.186c-.784-.072-2.082.508-.733 1.143.344.034.71.209.908-.178.582-.645.296-.922-.175-.966zm-12.176.02l-.008.134.008-.134zm-.306.02c-.022.02-.017.064.044.154.315-.02.02-.207-.044-.154zm20.568.188c-.036-.058-.046-.06.008.062.44.771.099.11-.008-.062zm-21.066.08c-.042.024-.104.096-.186.243.26.032.313-.316.186-.243zm18.074.216l.077.09-.077-.09zm-17.032.114l.107.066-.107-.066zm7.842.106l-.145.052.145-.052zm-7.134.128l.088.144-.088-.144zm13.65.046l.123.088-.123-.088zm-.019.038l.142.08-.142-.08zm1.561.09l.03.098-.03-.098zm-.043.052l.164.26-.164-.26zm4.438.084l.133.074-.133-.074zm-5.77.022l.118.072-.118-.072zm5.209.024c-.127-.078-.09.79.18.473-.076-.316-.138-.447-.18-.473zm-.366.29l.079.076-.08-.076zm1.017.066c-.065 0-.1.324.068.126-.022-.098-.047-.128-.068-.126zm-.367.03l-.04.098.04-.098zm-18.356.144c-.087-.022-.187 0-.032.124.196-.038.12-.102.032-.124zm18.075.088l.049.132-.05-.132zm-3.79.082l.09.092-.09-.092zm-15.157.08l-.01.14.01-.14zm15.034.188c-.238 1.704 1.789 1.27 1.54 2.923.81-.358-.498 1.702.798.156l.248-.196.241-.082c.005-1.486-2.116-1.648-2.827-2.8zm-14.35.112l.087.09-.087-.09zm13.885.166c-.019.02-.022.078.008.254.234.218.048-.285-.008-.254zm-17.913.2l-.161.076.161-.076zm18.069.09c-.047.02.34.418.227.158-.146-.122-.212-.162-.227-.158zm-18.085.052a.685.685 0 0 0-.222.054c.374.1.39-.048.222-.054zm.175.024l-.12.066.12-.066zm8.216 0l-.125.064.125-.064zm9.604.022l-.099.06.099-.06zm-9.38.26l-.065.09.066-.09zm13.137.045l-.063.09.063-.09zm-3.282.042c-.234.36.357-.02 0 0zm-9.606.02l.134.074-.134-.074zm-9.294.112l.159.03-.159-.03zm19.067.024l-.033.096.033-.096zm-31.593.124l.006.112-.006-.112zm31.544 0l-.036.142.036-.142zm.238.066l.104.03-.104-.03zm-20.24.249c.13.66.499-.094 0 0zm20.751.178l-.016.172.016-.172zm-32.348.038l-.019.136.02-.136zm31.807.074c-.426.038-1.013 1.08 0 1.572l.213-.224c.24-1.035.042-1.37-.213-1.348zm12.83.243c-.086.032-.073.232.254.714.304-.355-.112-.767-.255-.714zm-11.958.052l-.123.076.123-.076zm9.718.263l-.044.084.044-.084zm-.044.178l-.014.148.014-.148zm-8.35.333l-.12.074.12-.074zm5.094.02c.039.02.395.132.1.022-.093-.024-.113-.028-.1-.022zm3.757.062l.104.148-.104-.148zm-3.834.02l.098.05-.098-.05zm4.214.072l-.071.09.07-.09zm-3.208.106l-.07.066.07-.066zm3.117.046l-.01.148.01-.148zm.741.044c-.038-.088-.27.176-.049.227.054-.128.062-.198.05-.227zm-.371.03l-.02.128.02-.128zm-.711.205h.1-.1zm.5.104l-.014.096.014-.096zm.473.11l.033.132-.033-.132zm-2.34.172l.15.076-.15-.076zm4.339.054l-.022.082.022-.082zm-3.907.088l.043.148-.043-.148zm1.98.176c-.08-.042-.926.783-.26.408.227-.283.286-.394.26-.408zm-1.956.02c-.015.02 0 .062.077.142.285-.03-.031-.196-.077-.142zm.328.188l-.112.02.112-.02zm-3.544.028l-.057.094.057-.094zm-39.599.024l-.076.068.076-.068zm.443.022l-.06.304.06-.304zm43.4 0l.071.082-.07-.082zm-4.509.174c-.135.02-.18.238.271.602.088-.44-.136-.62-.27-.602zm-20.475.074c-.068.024-.223.182-.56.558-1.873.942 1.107.981.358 1.428l.134.058c.855.078.682.052.615-.859-.954-.108-.343-1.253-.547-1.184zm-2.313.102c-.205-.036-.276.261.383.509-.089-.347-.26-.487-.383-.509zm-16.084.12c-.25.42.238-.08 0 0zm35.454 0l.085.062-.085-.062zm6.054.476c-.402-.068-1.167 1.217.189.64.038-.443-.055-.617-.189-.64zm-2.163.076c-.26-.02-.435.267.252.886.354-.56.008-.871-.252-.886zm-20.56.03l-.123.022.124-.022zm-2.37.544l-.194.098.194-.098zm25.301.427l.09.02-.09-.02zm-25.222.205c-.288.02-.59.593.24.23-.05-.176-.144-.235-.24-.23zm21.831.028l-.095.032.095-.032zm-39.191.024l-.003.158.003-.158zm38.992.18c-.103-.064-.507.346-.041.26.076-.162.075-.238.04-.26zm-38.4.096l.026.09-.025-.09zm-.322.342l-.024.128.024-.128zm38.35.194l-.074.112.074-.112zm-25.725.435l.158.03-.158-.03zm-1.32.855l-.11.112.11-.112zm-7.285.29l-.099.02.099-.02zm.864.741l.038.096-.038-.096zm5.857.052l-.164.236.164-.236zm-.394.293l-.128.076.128-.076zm-7.826.08l-.095.136.095-.136zm3.755.038l.052.028-.052-.028zm1.588 2.885l-.035.098.035-.098zm.769.325l.093.066-.093-.066zm.106.094c-.061-.038-.118.038-.082.388.297.054.185-.324.082-.388zm-3.964.416l.098.02-.098-.02zm3.486.246c-.104-.04-.215.042-.025.366.225-.164.129-.326.025-.366zm.615.02c-.027-.034.122.741.098.374-.06-.262-.089-.363-.098-.374zm-2.598.044c-.048.02-.051.08 0 .2 1.475.474 1.133 2.297 2.565 2.576.217-.778-2.226-2.896-2.565-2.776zm-1.413.219l-.104.02.104-.02zm3.456.174c-.06-.028-.137.221.044.144-.006-.094-.024-.136-.044-.144zm-2.108.02c-.032 0-.053.064-.038.21.328.2.132-.23.038-.21zm2.86.126l.101.303-.101-.303zm-1.299.432l.126.112-.126-.112zm.115.132l.08.098-.08-.098zm-3.713.188l-.082.08.082-.08zm5.206.303l.115.102-.115-.102zm.159.128c-.062.03-.407.356-.069.102.08-.088.089-.112.069-.102zm-3.068.114l.109.084-.11-.084zm3.371.156l.096.08-.096-.08zm-.148.476c-.094-.042-.486.144-.046.134.077-.08.078-.12.046-.134zm-2.264.506c-.006.034.116.14.473.355.7.06-.455-.458-.473-.355zm2.199.068l.128.084-.128-.084zm.074.18c-.265-.046-.458.04-.43.372-.528-.116 1.01 1.026.892.642 1.791.465.332-.875-.462-1.014zm-4.228 3.483l.036.124-.036-.124zm39.48 6.311v.046-.046zm-26.368.895l.166.022-.166-.022zm.787.052l-.191.02.191-.02zm-.787.022l-.066.082.066-.082zm2.597.544l-.038.088.038-.088zm-.897 7.342l-.057.062.057-.062z" fill="#F9BD2E"/>
        <path d="M32 992.362a28 28 0 0 0-28 28 28 28 0 0 0 .018.492A28 28 0 0 1 32 993.362a28 28 0 0 1 27.975 27.492 28 28 0 0 0 .025-.492 28 28 0 0 0-28-28z" opacity=".2" fill="#F9F5D7"/>
    </g>
</svg>
