<svg xmlns="http://www.w3.org/2000/svg" width="64" height="64">
    <circle cx="32" cy="33" r="28" opacity=".2"/>
    <circle cx="32" cy="32" r="28" fill="#504945"/>
    <path d="M32 4A28 28 0 0 0 4 32a28 28 0 0 0 .018.492A28 28 0 0 1 32 5a28 28 0 0 1 27.975 27.492A28 28 0 0 0 60 32 28 28 0 0 0 32 4z" opacity=".1" fill="#F9F5D7"/>
    <path d="M32 9a4 4 0 0 0-4 4 4 4 0 0 0 4 4 4 4 0 0 0 4-4 4 4 0 0 0-4-4zm-10.094 2.68a4 4 0 0 0-1.906.535 4 4 0 0 0-1.465 5.465A4 4 0 0 0 24 19.145a4 4 0 0 0 1.465-5.465 4 4 0 0 0-3.559-2zm19.907.004a4 4 0 0 0-3.278 1.996A4 4 0 0 0 40 19.145a4 4 0 0 0 5.465-1.465A4 4 0 0 0 44 12.215a4 4 0 0 0-2.188-.531zM49.227 19a4 4 0 0 0-1.907.535A4 4 0 0 0 45.855 25a4 4 0 0 0 5.465 1.465A4 4 0 0 0 52.785 21a4 4 0 0 0-3.558-2zm-34.735.004A4 4 0 0 0 11.215 21a4 4 0 0 0 1.465 5.465A4 4 0 0 0 18.145 25a4 4 0 0 0-1.465-5.465 4 4 0 0 0-2.188-.531zM12 29a4 4 0 0 0-4 4 4 4 0 0 0 4 4 4 4 0 0 0 4-4 4 4 0 0 0-4-4zm40 0a4 4 0 0 0-4 4 4 4 0 0 0 4 4 4 4 0 0 0 4-4 4 4 0 0 0-4-4zM14.586 39a4 4 0 0 0-1.906.535A4 4 0 0 0 11.215 45a4 4 0 0 0 5.465 1.465A4 4 0 0 0 18.145 41a4 4 0 0 0-3.56-2zm34.547.004A4 4 0 0 0 45.855 41a4 4 0 0 0 1.465 5.465A4 4 0 0 0 52.785 45a4 4 0 0 0-1.465-5.465 4 4 0 0 0-2.187-.531zm-7.227 7.316a4 4 0 0 0-1.906.535 4 4 0 0 0-1.465 5.465A4 4 0 0 0 44 53.785a4 4 0 0 0 1.465-5.465 4 4 0 0 0-3.559-2zm-20.093.004a4 4 0 0 0-3.278 1.996A4 4 0 0 0 20 53.785a4 4 0 0 0 5.465-1.465A4 4 0 0 0 24 46.855a4 4 0 0 0-2.188-.53zM32 49a4 4 0 0 0-4 4 4 4 0 0 0 4 4 4 4 0 0 0 4-4 4 4 0 0 0-4-4z" opacity=".2"/>
    <path d="M32 8a4 4 0 0 0-4 4 4 4 0 0 0 4 4 4 4 0 0 0 4-4 4 4 0 0 0-4-4zm-10.094 2.68a4 4 0 0 0-1.906.535 4 4 0 0 0-1.465 5.465A4 4 0 0 0 24 18.145a4 4 0 0 0 1.465-5.465 4 4 0 0 0-3.559-2zm19.907.004a4 4 0 0 0-3.278 1.996A4 4 0 0 0 40 18.145a4 4 0 0 0 5.465-1.465A4 4 0 0 0 44 11.215a4 4 0 0 0-2.188-.531zM49.227 18a4 4 0 0 0-1.907.535A4 4 0 0 0 45.855 24a4 4 0 0 0 5.465 1.465A4 4 0 0 0 52.785 20a4 4 0 0 0-3.558-2zm-34.735.004A4 4 0 0 0 11.215 20a4 4 0 0 0 1.465 5.465A4 4 0 0 0 18.145 24a4 4 0 0 0-1.465-5.465 4 4 0 0 0-2.188-.531zM12 28a4 4 0 0 0-4 4 4 4 0 0 0 4 4 4 4 0 0 0 4-4 4 4 0 0 0-4-4zm40 0a4 4 0 0 0-4 4 4 4 0 0 0 4 4 4 4 0 0 0 4-4 4 4 0 0 0-4-4zM14.586 38a4 4 0 0 0-1.906.535A4 4 0 0 0 11.215 44a4 4 0 0 0 5.465 1.465A4 4 0 0 0 18.145 40a4 4 0 0 0-3.56-2zm34.547.004A4 4 0 0 0 45.855 40a4 4 0 0 0 1.465 5.465A4 4 0 0 0 52.785 44a4 4 0 0 0-1.465-5.465 4 4 0 0 0-2.187-.531zm-7.227 7.316a4 4 0 0 0-1.906.535 4 4 0 0 0-1.465 5.465A4 4 0 0 0 44 52.785a4 4 0 0 0 1.465-5.465 4 4 0 0 0-3.559-2zm-20.093.004a4 4 0 0 0-3.278 1.996A4 4 0 0 0 20 52.785a4 4 0 0 0 5.465-1.465A4 4 0 0 0 24 45.855a4 4 0 0 0-2.188-.53zM32 48a4 4 0 0 0-4 4 4 4 0 0 0 4 4 4 4 0 0 0 4-4 4 4 0 0 0-4-4z" fill="#F9F5D7"/>
    <circle cx="32" cy="32" r="10" opacity=".3"/>
    <path d="M26 16a11 11 0 0 1-11 11A11 11 0 0 1 4 16 11 11 0 0 1 15 5a11 11 0 0 1 11 11z" opacity=".2"/>
    <path d="M26 15a11 11 0 0 1-11 11A11 11 0 0 1 4 15 11 11 0 0 1 15 4a11 11 0 0 1 11 11z" fill="#D79921"/>
    <path d="M43.105 37.001c-.693-.022-.785.344-.99 1.313-1.03 6.38 4.972 9.92 12.856 12.677 2.304.199 2.78-3.048 3.521-4.811.96-2.285 2.496-4.334.623-5.276l-15.093-3.758c-.392-.085-.686-.138-.917-.145z" opacity=".2"/>
    <path d="M43.105 36.001c-.693-.022-.785.344-.99 1.313-1.03 6.38 4.972 9.92 12.856 12.677 2.304.199 2.78-3.048 3.521-4.811.96-2.285 2.496-4.334.623-5.276l-15.093-3.758c-.392-.085-.686-.138-.917-.145z" fill="#928274"/>
    <path d="M15 4A11 11 0 0 0 4 15a11 11 0 0 0 .021.402A11 11 0 0 1 15 5a11 11 0 0 1 10.975 10.502A11 11 0 0 0 26 15 11 11 0 0 0 15 4zM43.105 36c-.692-.022-.785.345-.99 1.314a8.355 8.355 0 0 0-.082 1.864c.018-.284.034-.567.082-.864.205-.969.298-1.336.99-1.314.231.007.525.061.916.146l15.094 3.758c.445.224.693.511.807.848.166-.781.027-1.429-.807-1.848l-15.094-3.758c-.391-.085-.685-.139-.916-.146z" opacity=".2" fill="#F9F5D7"/>
</svg>
