<svg xmlns="http://www.w3.org/2000/svg" width="64" height="64">
    <path d="M32 5A28 28 0 0 0 4 33a28 28 0 0 0 28 28 28 28 0 0 0 28-28A28 28 0 0 0 32 5z" opacity=".2"/>
    <path d="M32 4A28 28 0 0 0 4 32a28 28 0 0 0 28 28 28 28 0 0 0 28-28A28 28 0 0 0 32 4z" fill="#066678"/>
    <path d="M24 13c0 .885.39 1.672 1 2.22v5.796c-1.083.009-1.957.032-2.973.265-1.067.246-2.027.454-2.027 1.787l1.398.932s.733-.818 1.403-.932c.388-.065.8.013 1.199.162V32l-3 3 3 3v11.592L27 53l3-3.408V23.246c.413-.15.831-.24 1.2-.178.67.114 1.402.932 1.402.932L34 23.068c0-1.333-.96-1.541-2.027-1.787-1.018-.234-1.892-.256-2.973-.265V15.22c.61-.55 1-1.336 1-2.221zm11.32 8c.401.607.68 1.349.68 2.066 0 .544-.42 1.065-.813 1.442C36.831 25.653 38 27.724 38 29.766c0 3.784-2.11 4.117-6 5.234 2.335 5.707 6.988 10.757 11.59 13.371C47.516 50.745 51.114 52.415 56 53c-5.396-6.586-13.799-9.486-18-16 2.808-1.472 6-2.744 6-7.61 0-3.946-3.6-8.39-6.277-8.39z" opacity=".2"/>
    <path d="M24 22h6v26.59L27 52l-3-3.41z" fill="#F9F5D7"/>
    <path d="M25.102 20v.012c-1.135.008-2.025.028-3.075.27-1.067.245-2.027.453-2.027 1.786l1.398.932s.733-.818 1.403-.932c.767-.13 1.625.305 2.3.73v.602H28s1.92-1.55 3.2-1.332c.67.114 1.402.932 1.402.932L34 22.068c0-1.333-.96-1.541-2.027-1.787-1.33-.305-2.255-.262-3.973-.281h-2z" fill="#F9F5D7"/>
    <path fill="#F9F5D7" d="M29 13.2v8h-4v-8zM24 31l3 3-3 3-3.001-3zM35.32 20c.401.607.68 1.349.68 2.066 0 .544-.421 1.065-.813 1.442C36.83 24.653 38 26.724 38 28.766c0 3.784-2.11 4.117-6 5.234 2.335 5.707 6.988 10.757 11.59 13.371C47.516 49.745 51.114 51.415 56 52c-5.396-6.586-13.799-9.486-18-16 2.808-1.472 6-2.744 6-7.61 0-3.946-3.6-8.39-6.277-8.39z"/>
    <path d="M32 4A28 28 0 0 0 4 32a28 28 0 0 0 .021.406A28 28 0 0 1 32 5a28 28 0 0 1 27.979 27.578A28 28 0 0 0 60 32 28 28 0 0 0 32 4z" opacity=".1" fill="#F9F5D7"/>
    <path d="M30 12a3 3 0 0 1-6 0z" fill="#F9F5D7"/>
</svg>
