<svg xmlns="http://www.w3.org/2000/svg" width="64" height="64">
    <path d="M32 10a23.533 23.533 0 0 0-4.363.437c-.019.004-.037.005-.056.008-.676.128-1.344.277-2.001.442-9.276 2.318-16.543 8.244-15.476 17.475.079.66.195 1.332.357 2.02.012.051.028.097.04.148 1.29 5.3 4.3 8.755 5.522 12.16.016.044.037.089.052.133 3.183 9.22 2.844 13.957 8.947 16.003 2.455.817 4.438 1.207 6.978 1.172 2.54.035 4.523-.355 6.978-1.172 6.103-2.046 5.764-6.784 8.947-16.003.015-.044.029-.094.044-.137l.008.004c1.222-3.405 4.232-6.86 5.522-12.16.012-.05.028-.096.04-.148.162-.688.278-1.36.357-2.02 1.142-9.885-7.273-15.984-17.477-17.917A23.545 23.545 0 0 0 32 10z" opacity=".2"/>
    <path d="M32 9a23.53 23.53 0 0 0-4.363.437c-.019.004-.037.005-.056.008-.676.128-1.344.277-2.001.442-9.276 2.318-15.698 8.244-14.631 17.475.078.66.194 1.332.357 2.02.012.051.028.097.04.148 1.058 4.35 3.275 7.175 4.712 10.031.314.625-.254 1.518-.035 2.129.016.044.037.089.052.133 3.183 9.22 2.844 13.957 8.947 16.003 2.455.817 4.438 1.207 6.978 1.172 2.54.035 4.523-.355 6.978-1.172 6.103-2.046 5.764-6.784 8.947-16.003.015-.044.029-.094.044-.137l.008.004c.167-.465-.008-1.683.217-2.155 1.42-2.98 3.065-5.43 4.179-10.005.012-.05.028-.096.04-.148.162-.688.278-1.36.357-2.02 1.142-9.885-6.147-15.984-16.35-17.917A23.545 23.545 0 0 0 32 9z" fill="#D5C3A0"/>
    <path d="M30.531 45C29.133 45 28 46.015 28 47.268 28 48.533 30.606 51 32 51c1.394 0 4-2.467 4-3.732C36 46.015 34.867 45 33.469 45H30.53z" fill="#3A393A"/>
    <path d="M28.09 9.371c-.151.026-.301.037-.453.066-.02.004-.036.005-.055.008-.675.128-1.346.277-2.004.442-9.276 2.318-16.54 8.245-15.473 17.476.079.66.194 1.332.356 2.02.012.051.027.097.039.148 1.19 4.89 3.828 8.206 5.191 11.364C23.351 38.285 30 31.106 30 21.175c.015-3.726-.359-8.342-1.91-11.804z" fill="#B57514"/>
    <circle cx="20" cy="32" r="4" opacity=".2"/>
    <circle cx="20" cy="31" r="4" fill="#3A393A"/>
    <circle cx="19.5" cy="30.5" r="1.5" fill="#F9F5D7"/>
    <path d="M35 56.143C35 57.72 33.657 59 32 59s-3-1.28-3-2.857c0-.34.062-.666.177-.969.416-1.101 1.462-.487 2.762-.487 1.298 0 2.465-.616 2.883.484.115.303.178.63.178.972z" fill="#C77089"/>
    <path d="M25 54s1.77.985 3.429 1.426c1.029.273 3.571-1.429 3.571-1.429s2.542 1.702 3.571 1.429C37.231 54.986 39 54 39 54" fill="none" stroke="#BE4C1D" stroke-width="2" stroke-linecap="round" stroke-linejoin="round"/>
    <path d="M35.91 9.371c.151.026.301.037.453.066.02.004.036.005.055.008.675.128 1.346.277 2.004.442 9.276 2.318 16.54 8.245 15.473 17.476-.079.66-.194 1.332-.356 2.02-.012.051-.027.097-.039.148-1.19 4.89-3.828 8.206-5.191 11.364C40.649 38.285 34 31.106 34 21.175c-.015-3.726.359-8.342 1.91-11.804z" fill="#B57514"/>
    <path d="M32 9a23.531 23.531 0 0 0-4.363.438l-.055.007c-.675.128-1.346.277-2.004.442-1.16.29-2.287.637-3.371 1.039-.541.2-1.076.416-1.594.644-3.11 1.373-5.772 3.243-7.652 5.598v.004c-1.566 1.962-2.592 4.259-2.879 6.883v.004c-.065.6-.07 1.227-.049 1.865.01-.291.018-.584.049-.865v-.004c.287-2.624 1.313-4.92 2.879-6.883v-.004c1.88-2.355 4.541-4.225 7.652-5.598a28.617 28.617 0 0 1 1.594-.644 32.094 32.094 0 0 1 3.371-1.04 35.612 35.612 0 0 1 2.004-.44c.019-.004.036-.005.055-.008 1.456-.28 2.88-.43 4.363-.438 1.328.007 2.61.145 3.91.371.151.026.301.037.453.066.019.004.037.005.055.008.677.129 1.345.277 2.004.442 1.158.29 2.284.637 3.367 1.039h.008c.406.15.799.318 1.191.484.146.062.298.116.442.18.323.143.632.299.945.453.22.108.442.215.656.328.272.144.534.297.797.45.22.127.442.256.656.39.238.149.467.305.696.46.252.172.501.344.742.524.193.145.38.295.566.446.22.177.436.357.645.543.204.181.4.369.594.558a15.542 15.542 0 0 1 1.082 1.168c.164.197.32.398.472.602.149.197.296.394.434.597.164.244.317.494.465.746.111.191.222.382.324.579.134.257.254.522.371.789.094.214.19.428.273.648.096.253.175.513.254.774.075.243.155.484.215.734.069.284.114.582.164.875.04.228.09.45.117.683.044.371.057.755.07 1.14.012-.157.028-.316.028-.468 0-.18-.02-.35-.027-.527-.014-.386-.026-.772-.07-1.145-.028-.233-.079-.455-.118-.683-.05-.293-.095-.59-.164-.875-.06-.25-.14-.49-.215-.734-.08-.261-.158-.521-.254-.774-.083-.22-.179-.434-.273-.648a13.118 13.118 0 0 0-.371-.79 13.402 13.402 0 0 0-.324-.578 13.81 13.81 0 0 0-.465-.746c-.138-.203-.285-.4-.434-.597a14.857 14.857 0 0 0-1.008-1.211c-.176-.19-.36-.376-.546-.559-.194-.19-.39-.377-.594-.558a18.19 18.19 0 0 0-.645-.543c-.186-.151-.373-.3-.566-.446-.24-.18-.49-.352-.742-.523-.23-.156-.458-.312-.696-.461a22.72 22.72 0 0 0-.656-.39c-.263-.153-.525-.306-.797-.45-.214-.113-.436-.22-.656-.328-.313-.154-.622-.31-.945-.453-.144-.064-.296-.118-.442-.18-.392-.166-.785-.334-1.191-.484h-.008a32.053 32.053 0 0 0-3.367-1.04 35.453 35.453 0 0 0-2.004-.44c-.018-.004-.036-.005-.055-.008-.152-.03-.302-.04-.453-.067A23.374 23.374 0 0 0 32 9z" opacity=".2" fill="#F9F5D7"/>
    <path d="M23.152 14.312s5.422-5.79 1.304-7.439c-4.613-1.846-16.94-.68-21.24 2.687-1.64 1.25-1.259 2.335-.917 3.817 1.18 5.126 5.092 18.2 5.692 18.612.747.514 15.161-17.677 15.161-17.677z" opacity=".2"/>
    <path d="M23.152 13.312s5.422-5.79 1.304-7.439c-4.613-1.846-16.94-.68-21.24 2.687-1.64 1.25-1.259 2.335-.917 3.817 1.18 5.126 5.092 18.2 5.692 18.612.747.514 15.161-17.677 15.161-17.677z" fill="#7F7061"/>
    <circle cx="-44" cy="32" r="4" transform="scale(-1 1)" opacity=".2"/>
    <circle cx="-44" cy="31" r="4" transform="scale(-1 1)" fill="#3A393A"/>
    <circle cx="-43.5" cy="30.5" r="1.5" transform="scale(-1 1)" fill="#F9F5D7"/>
    <path d="M40.848 14.312s-5.422-5.79-1.304-7.439c4.613-1.846 16.94-.68 21.24 2.687 1.64 1.25 1.259 2.335.917 3.817-1.18 5.126-5.092 18.2-5.692 18.612-.747.514-15.161-17.677-15.161-17.677z" opacity=".2"/>
    <path d="M40.848 13.312s-5.422-5.79-1.304-7.439c4.613-1.846 16.94-.68 21.24 2.687 1.64 1.25 1.259 2.335.917 3.817-1.18 5.126-5.092 18.2-5.692 18.612-.747.514-15.161-17.677-15.161-17.677z" fill="#7F7061"/>
    <path d="M19.084 5.012a34.648 34.648 0 0 0-2.24.011C11.728 5.21 5.906 6.455 3.219 8.56c-1.153.878-1.29 1.693-1.16 2.607.113-.537.44-1.059 1.16-1.607 2.687-2.104 8.51-3.349 13.625-3.536 3.069-.112 5.883.16 7.613.852.921.369 1.35.946 1.48 1.617.182-1.085-.125-2.075-1.48-2.617-1.297-.52-3.206-.802-5.373-.863zM44.916 5.012c-2.167.061-4.076.344-5.373.863-1.355.542-1.662 1.532-1.48 2.617.13-.67.559-1.248 1.48-1.617 1.73-.692 4.544-.964 7.613-.852 5.116.187 10.938 1.432 13.625 3.536.72.548 1.047 1.07 1.16 1.607.13-.914-.007-1.73-1.16-2.607-2.687-2.104-8.51-3.349-13.625-3.536a34.648 34.648 0 0 0-2.24-.011z" opacity=".1" fill="#F9F5D7"/>
</svg>
