<svg xmlns="http://www.w3.org/2000/svg" width="64" height="64">
    <path d="M4.08 31.828A28 28 0 0 0 4.037 33a28 28 0 0 0 28 28 28 28 0 0 0 28-28 28 28 0 0 0-.042-.828A28 28 0 0 1 32.037 59 28 28 0 0 1 4.081 31.828z" opacity=".2"/>
    <path d="M32.133 22.504C16.67 22.504 4.037 16.536 4.037 32s12.536 28 28 28 28-12.536 28-28-12.44-9.496-27.904-9.496z" fill="#066678"/>
    <path d="M32.037 4a28 28 0 0 0-2.714.137c-.296.029-.583.087-.875.125a28 28 0 0 0-1.786.27c-.389.076-.768.18-1.152.273a28 28 0 0 0-1.402.36c-.443.13-.875.284-1.309.437a28 28 0 0 0-1.18.433c-.474.191-.937.401-1.398.617a28 28 0 0 0-.895.43c-.536.275-1.062.567-1.578.875a28 28 0 0 0-.59.363c-.542.343-1.076.7-1.593 1.078a28 28 0 0 0-.469.356c-.546.417-1.084.84-1.598 1.297a28 28 0 0 0-.18.168 27.988 27.988 0 0 0-7.093 10.004 27.853 27.853 0 0 0-.871 2.39c-.003.008-.002.016-.004.024a27.945 27.945 0 0 0-1.086 5.101c2.818-1.289 5.43-1.86 7.89-1.875h.004c2.298-.014 4.474.42 6.602 1.059 7.168.431 13.508 3.474 21.04 3.86 5.006-.222 15.138-.02 20.167-1.153a28 28 0 0 0-.305-2.988c-.224-.327-.326-.576-.097-.637V27a28.159 28.159 0 0 0-.489-2.137 28 28 0 0 0-.109-.437 27.854 27.854 0 0 0-.594-1.832 28 28 0 0 0-.25-.684 27.921 27.921 0 0 0-.691-1.633 28 28 0 0 0-.348-.718c-.27-.544-.549-1.08-.851-1.602a28 28 0 0 0-.336-.543c-.33-.54-.666-1.079-1.031-1.594a28 28 0 0 0-.266-.347 28.038 28.038 0 0 0-4.27-4.63 28 28 0 0 0-.46-.402c-.437-.361-.89-.7-1.348-1.035a28 28 0 0 0-.754-.539 28.06 28.06 0 0 0-1.277-.816 28 28 0 0 0-1.036-.594c-.389-.213-.78-.422-1.18-.617a28 28 0 0 0-1.257-.563c-.37-.158-.736-.326-1.113-.468a28 28 0 0 0-1.528-.508c-.323-.102-.64-.219-.969-.309a28 28 0 0 0-.015-.004 28 28 0 0 0-2.48-.554c-.285-.05-.577-.076-.864-.118a28 28 0 0 0-1.781-.214c-.738-.06-1.48-.101-2.23-.102z" fill="#066678"/>
    <path d="M59.565 27.804c-3.977 1.065-12.92 3.675-19.766 3.977-12.18-.623-21.235-8.613-35.738-.829-.01.216-.018.832-.024 1.048a28 28 0 0 0 .278 3.71c1.303-.401 3.641-.595 7.843.411 7.968 1.907 19.24.834 25.641-1.14 6.402-1.975 12.907-2.742 16.652-2.946 2.384-.13 4.353 1.003 5.52 1.863.044-.631.066-1.265.066-1.898-.007-1.676-.165-2.548-.472-4.196z" fill="#8F3F71"/>
    <path d="M4.092 30.469A28 28 0 0 0 4.037 32c.012 1.45.136 2.497.371 3.928 1.456-.126 4.03.334 8.551 1.416 7.778 1.861 15.161-1.115 21.41-3.043.383-.118.765-.214 1.141-.293h-.02c-10.712-2.664-14.763-3.144-31.398-3.54zm31.418 3.539c1.354.031 2.873-.046 4.457-.172-1.419-.17-2.909-.155-4.457.172zm4.457-.172c3.866.46 7.188 2.285 9.633 2.875 5.21 1.256 8.154 1.502 9.785 1.337.422-1.92.64-4.081.652-6.048a27.72 27.72 0 0 0-.047-.945c-6.295.848-13.828 2.29-20.023 2.78z" fill="#8F3F71"/>
    <path d="M12.155 27c-2.461.016-5.073 1.45-7.891 2.739a28 28 0 0 0-.227 3.262c.012.592.042 1.183.09 1.773 1.188-.841 3.064-1.897 5.332-1.773 3.746.204 13.618 7.322 20.02 9.297 6.401 1.975 14.305-4.66 22.273-6.567 4.131-.988 6.725-.438 8.086.309a28 28 0 0 0 .2-3.04 28 28 0 0 0-.102-2.027c-1.021-.043-2.613-.009-4.164.508-2.86.954-12.122 3.242-19.07 3.051-8.916-.58-15.883-7.586-24.544-7.531z" opacity=".2"/>
    <path d="M12.155 26c-2.461.015-5.073 1.45-7.891 2.738A28 28 0 0 0 4.037 32c.012.592.042 1.183.09 1.773 1.188-.84 3.064-1.897 5.332-1.773 3.746.204 13.618 7.322 20.02 9.297 6.401 1.975 14.305-4.66 22.273-6.567 4.131-.988 6.725-.437 8.086.31a28 28 0 0 0 .2-3.04 28 28 0 0 0-.102-2.027c-1.021-.044-2.613-.01-4.164.507-2.86.954-12.122 3.242-19.07 3.051-8.916-.58-15.883-7.586-24.544-7.531z" fill="#8F3F71"/>
    <path d="M44.27 12c-2.972-.147-5.88 1.556-7.611 3.94l-.003.001c-2.064 2.882-3.153 6.872-4.055 10.173v.002c-1.248 4.622-3.356 8.997-6.009 12.994-5.498 8.243-12.645 15.417-21.936 19.039a.504.504 0 0 0-.16.102l-.373.348a.504.504 0 0 0 .401.867c6.515-.765 10.708-5.615 15.513-9.465 3.864-.379 8.304-.622 12.038-1.619l.006-.002c5.249-1.475 10.942-3.803 14.524-8.226 3.57-4.379 4.17-10.472 2.865-15.751-.443-2.11-2.263-4.272-4.568-4.728l-.183-.653c.5-.548 2.115-1.137 2.61-1.855.552-.797.938-2.384.656-3.478a.504.504 0 0 0-.075-.16c-.608-.878-2.64-1.526-3.642-1.528z" opacity=".2"/>
    <path d="M44.27 11c-2.972-.147-5.88 1.555-7.611 3.938l-.003.003c-2.064 2.881-3.153 6.87-4.055 10.172v.002c-1.248 4.622-3.356 8.997-6.009 12.994-5.498 8.244-12.645 15.418-21.936 19.04a.504.504 0 0 0-.16.101l-.373.348a.504.504 0 0 0 .401.868C11.04 57.7 15.232 52.85 20.037 49c3.864-.378 8.304-.621 12.038-1.618l.006-.003c5.249-1.475 10.942-3.803 14.524-8.226 3.57-4.379 4.17-10.472 2.865-15.751-.443-2.11-2.263-4.272-4.568-4.728l-.183-.653c.5-.548 2.115-1.137 2.61-1.854.552-.798.938-2.385.656-3.478a.504.504 0 0 0-.075-.161c-.608-.877-2.64-1.526-3.642-1.528z" fill="#48B9C7"/>
    <path d="M32.037 4a28 28 0 0 0-28 28 28 28 0 0 0 .022.406A28 28 0 0 1 32.037 5a28 28 0 0 1 27.979 27.578 28 28 0 0 0 .021-.578 28 28 0 0 0-28-28z" opacity=".1" fill="#F9F5D7"/>
</svg>
