<svg xmlns="http://www.w3.org/2000/svg" width="64" height="64">
    <circle cx="32" cy="33" r="28" opacity=".2"/>
    <circle cx="32" cy="32" r="28" fill="#7CB668"/>
    <path d="M46 17L12 35.188l10.705 3.519L38.53 25.33 26.807 40.104l6.103 2.015 6.45 2.081zM26.022 42.792L26 49.8l3.713-5.748-1.19-.434z" opacity=".2"/>
    <path d="M46 16L12 34.188l10.705 3.519L38.53 24.33 26.807 39.104l6.103 2.015 6.45 2.081zM26.022 41.792L26 48.8l3.713-5.748-1.19-.434z" fill="#F9F5D7"/>
    <path d="M32 4A28 28 0 0 0 4 32a28 28 0 0 0 .018.492A28 28 0 0 1 32 5a28 28 0 0 1 27.975 27.492A28 28 0 0 0 60 32 28 28 0 0 0 32 4z" opacity=".2" fill="#F9F5D7"/>
</svg>
