<svg xmlns="http://www.w3.org/2000/svg" width="64" height="64" version="1">
    <rect width="56" height="56" x="4" y="5" rx="2.8" ry="2.8" opacity=".2"/>
    <rect width="56" height="56" x="4" y="4" rx="2.8" ry="2.8" fill="#066678"/>
    <path d="M6.8 4A2.794 2.794 0 0 0 4 6.8v50.4C4 58.751 5.249 60 6.8 60h16.8V4z" opacity=".3"/>
    <path d="M6.8 4C5.25 4 4 5.25 4 6.8v1C4 6.25 5.25 5 6.8 5h50.4C58.75 5 60 6.25 60 7.8v-1C60 5.25 58.75 4 57.2 4H6.8z" fill="#F9F5D7" opacity=".1"/>
    <rect width="5" height="62" x="21" y="2" rx="1.25" ry="1.409" opacity=".2"/>
    <rect width="5" height="62" x="21" y="1" rx="1.25" ry="1.409" fill="#F9F5D7"/>
    <path d="M22.25 1C21.558 1 21 1.628 21 2.408v1C21 2.628 21.558 2 22.25 2h2.5c.692 0 1.25.628 1.25 1.408v-1C26 1.628 25.442 1 24.75 1h-2.5z" opacity=".2" fill="#F9F5D7"/>
</svg>
