<svg xmlns="http://www.w3.org/2000/svg" width="64" height="64" version="1">
    <path d="M4.05 32c-.011.335-.05.663-.05 1 0 15.512 12.488 28 28 28 15.51 0 27.998-12.488 27.998-28 0-.337-.039-.664-.05-1-.528 15.042-12.776 27-27.95 27S4.578 47.042 4.05 32z" opacity=".2"/>
    <rect width="56" height="56" x="4" y="4" rx="27.999" ry="27.999" fill="#F9F5D7"/>
    <path d="M32 4.002C16.488 4.002 4 16.488 4 32c0 .114.011.224.018.336C4.369 17.135 16.71 5 32 5s27.63 12.135 27.982 27.336c.007-.112.018-.223.018-.336A27.938 27.938 0 0 0 32 4.002z" opacity=".1" fill="#F9F5D7"/>
    <g opacity=".2">
        <path d="M22.316 15.105C15.886 18.726 12.01 25.264 12 32.575c.014 10.07 7.605 18.876 17.684 20.38.723.076.942.042 1.474 0 4.883 0 8.842-3.91 8.842-8.734-.004-3.311-1.892-6.268-4.766-7.741 0 0-3.175-1.438-4.58-2.182a72.803 72.803 0 0 1-5.807-3.182c-1.066-.644-2.143-1.395-3.111-2.556-.968-1.161-1.767-2.9-1.767-4.72 0-3.53.691-6.22 2.347-8.735z"/>
        <path d="M41.684 50.895C48.114 47.274 51.99 40.737 52 33.425c-.014-10.07-7.604-18.875-17.684-20.38-.723-.076-.942-.042-1.474 0-4.883 0-8.842 3.91-8.842 8.734.004 3.311 1.892 6.268 4.766 7.741 0 0 3.175 1.438 4.58 2.182 2.035 1.005 3.774 1.895 5.907 3.182 1.066.644 2.143 1.395 3.111 2.556.968 1.161 1.767 2.9 1.767 4.72 0 3.53-.791 6.22-2.447 8.735z"/>
    </g>
    <g fill="#066678">
        <path d="M22.316 14.105C15.886 17.726 12.01 24.264 12 31.575c.014 10.07 7.605 18.876 17.684 20.38.723.076.942.042 1.474 0 4.883 0 8.842-3.91 8.842-8.734-.004-3.311-1.892-6.268-4.766-7.741 0 0-3.175-1.438-4.58-2.182a72.803 72.803 0 0 1-5.807-3.182c-1.066-.644-2.143-1.395-3.111-2.556-.968-1.161-1.767-2.9-1.767-4.72 0-3.53.691-6.22 2.347-8.735z"/>
        <path d="M41.684 49.895C48.114 46.274 51.99 39.737 52 32.425c-.014-10.07-7.604-18.875-17.684-20.38-.723-.076-.942-.042-1.474 0-4.883 0-8.842 3.91-8.842 8.734.004 3.311 1.892 6.268 4.766 7.741 0 0 3.175 1.438 4.58 2.182 2.035 1.005 3.774 1.895 5.907 3.182 1.066.644 2.143 1.395 3.111 2.556.968 1.161 1.767 2.9 1.767 4.72 0 3.53-.791 6.22-2.447 8.735z"/>
    </g>
</svg>
