<svg xmlns="http://www.w3.org/2000/svg" width="64" height="64" version="1">
    <rect width="56" height="56" x="4" y="5" rx="2.8" ry="2.8" opacity=".2"/>
    <rect width="56" height="56" x="4" y="4" rx="2.8" ry="2.8" fill="#F15C22"/>
    <path d="M6.8 4A2.794 2.794 0 0 0 4 6.8V32h56V6.8C60 5.249 58.751 4 57.2 4z" opacity=".3" fill="#F9F5D7"/>
    <path d="M8 32.001h7.295l3.55-11 2.368 22 6.026-30 4.09 39 5.595-36 4.305 30 4.196-24 2.798 12H56" opacity=".1" fill="none" stroke="#151819" stroke-width="4" stroke-linejoin="round"/>
    <path d="M8 31h7.295l3.55-11 2.368 22 6.026-30 4.09 39 5.595-36 4.305 30 4.196-24 2.798 12H56" fill="none" stroke="#3A393A" stroke-width="4" stroke-linejoin="round"/>
    <path d="M6.8 4C5.25 4 4 5.25 4 6.8v1C4 6.25 5.25 5 6.8 5h50.4C58.75 5 60 6.25 60 7.8v-1C60 5.25 58.75 4 57.2 4H6.8z" opacity=".2" fill="#F9F5D7"/>
</svg>
