<svg xmlns="http://www.w3.org/2000/svg" width="64" height="64" version="1">
    <path d="M4.05 32c-.012.334-.05.662-.05 1 0 15.512 12.487 28 28 28 15.511 0 27.999-12.488 27.999-28 0-.337-.04-.665-.05-1-.529 15.042-12.777 27-27.95 27-15.175 0-27.422-11.958-27.95-27z" opacity=".2"/>
    <rect width="56" height="56" x="4" y="4" rx="28" ry="28" fill="#CB241D"/>
    <path d="M32 17c-3.325 0-6 2.676-6 6v10c0 3.324 2.675 6 6 6 3.323 0 6-2.676 6-6V23c0-3.324-2.677-6-6-6zM20 31v2c0 5.94 4.324 10.865 10 11.813V49h4v-4.187c5.674-.949 10-5.874 10-11.813v-2h-4v2c0 4.467-3.534 8-8 8-4.468 0-8-3.533-8-8v-2z" opacity=".2"/>
    <path d="M32 16c-3.325 0-6 2.676-6 6v10c0 3.324 2.675 6 6 6 3.323 0 6-2.676 6-6V22c0-3.324-2.677-6-6-6zM20 30v2c0 5.94 4.324 10.865 10 11.813V48h4v-4.187c5.674-.949 10-5.874 10-11.813v-2h-4v2c0 4.467-3.534 8-8 8-4.468 0-8-3.533-8-8v-2z" fill="#F9F5D7"/>
    <path d="M32 4C16.488 4 4 16.488 4 32c0 .11.01.216.016.324C4.373 17.128 16.715 5 32 5c15.285 0 27.627 12.128 27.984 27.324.006-.108.016-.215.016-.324C60 16.488 47.512 4 32 4z" opacity=".2" fill="#F9F5D7"/>
</svg>
