<svg xmlns="http://www.w3.org/2000/svg" width="64" height="64" version="1">
    <rect width="44" height="56" x="10" y="4" rx="2.8" ry="2.8" opacity=".2"/>
    <rect width="44" height="56" x="10" y="3" rx="2.8" ry="2.8" fill="#8F3F71"/>
    <path d="M10 46v10.199A2.796 2.796 0 0 0 12.801 59h38.398A2.796 2.796 0 0 0 54 56.199V46H10z" fill="#282727"/>
    <path opacity=".2" d="M16 11h28v2H16z"/>
    <path fill="#F9F5D7" d="M16 10h28v2H16z"/>
    <path opacity=".2" d="M20 15h24v2H20z"/>
    <path fill="#066678" d="M20 14h24v2H20z"/>
    <path opacity=".2" d="M16 23h28v2H16z"/>
    <path fill="#F9F5D7" d="M16 22h28v2H16z"/>
    <path opacity=".2" d="M20 27h24v2H20z"/>
    <path fill="#066678" d="M20 26h24v2H20z"/>
    <path opacity=".2" d="M16 35h28v2H16z"/>
    <path fill="#F9F5D7" d="M16 34h28v2H16z"/>
    <path opacity=".2" d="M20 39h24v2H20z"/>
    <path fill="#066678" d="M20 38h24v2H20z"/>
    <circle cx="48" cy="47" r="16" opacity=".2"/>
    <circle cx="48" cy="46" r="16" fill="#CB8819"/>
    <path d="M42 42v2h12v-2zm0 6v2h12v-2z" fill="#F9F5D7"/>
    <path d="M12.801 3A2.796 2.796 0 0 0 10 5.8v1C10 5.25 11.25 4 12.801 4h38.398A2.796 2.796 0 0 1 54 6.8v-1C54 4.25 52.75 3 51.199 3H12.801z" opacity=".1" fill="#F9F5D7"/>
</svg>
