<svg xmlns="http://www.w3.org/2000/svg" width="64" height="64" version="1">
    <path d="M50.164 11c-5.143 0-9.558 3.307-10.85 7.67-.053.178.008.38-.031.563-2.104-.787-4.524-1.197-7.19-1.197C23.72 18.013 15.392 18 7.002 18A4 4 0 0 0 3 22.002c.092 3.486-.001 6.614.008 10.008a4 4 0 0 0 4 3.99h3.912L7.265 47.656a3.998 3.998 0 0 0-.047.16c-.495 1.842.177 4.149 1.574 5.448C10.19 54.563 11.94 55 13.641 55h10.094c11.07 0 18.454-6.604 20.889-14.48l.002-.012L46.005 36h.793c5.284.024 9.72-3.386 11.035-7.845.577-1.952.169-4.173-.789-5.842 1.207-.533 2.29-1.26 3.069-2.272 1.208-1.567 1.007-3.77.428-4.943-.58-1.173-1.364-1.862-2.217-2.428-1.707-1.131-3.85-1.69-6.449-1.67h-1.711z" opacity=".2"/>
    <path d="M50.164 10c-5.143 0-9.558 3.307-10.85 7.67-.053.178.008.38-.031.563-2.104-.787-4.524-1.197-7.19-1.197C23.72 17.013 15.392 17 7.002 17A4 4 0 0 0 3 21.002c.092 3.486-.001 6.614.008 10.008a4 4 0 0 0 4 3.99h3.912L7.265 46.656a3.998 3.998 0 0 0-.047.16c-.495 1.842.177 4.149 1.574 5.448C10.19 53.563 11.94 54 13.641 54h10.094c11.07 0 18.454-6.604 20.889-14.48l.002-.012L46.005 35h.793c5.284.024 9.72-3.386 11.035-7.845.577-1.952.169-4.173-.789-5.842 1.207-.533 2.29-1.26 3.069-2.272 1.208-1.567 1.007-3.77.428-4.943-.58-1.173-1.364-1.862-2.217-2.428-1.707-1.131-3.85-1.69-6.449-1.67h-1.711z" fill="#504945"/>
    <path d="M50.154 15c-3.763 0-6.174 1.952-7.015 4.81-1.6 5.357 6.83 4.084 5.84 7.407-.382 1.287-1.439 1.844-2.999 1.87h-1.974L43.754 32h3.053c3.763.017 6.338-2.12 7.18-4.979 1.643-5.562-7.156-4.069-6.169-7.34.287-1.032 1.336-1.752 2.405-1.767.98-.016 1.75.188 2.062.434 1.6 1.254 3.545.684 4.649-.748.583-.758-1.124-2.632-5.036-2.6h-1.744zM7 22l.002 5H28.29c4.201.302 5.962 2.897 4.717 7.012l-1.858 5.416C29.895 43.545 26.758 46 21.936 46h-.569l3.813-12h-9.444L11.08 48.854C10.79 49.939 11.678 51 13.64 51H23.73c9.645 0 15.05-5.147 17.063-11.662l1.545-5.053c2.086-6.787-.605-12.25-10.25-12.25h-3.242C21.57 22.012 14.317 22 7 22zm0 7.006L7.008 32h20.85c.49-1.551-.367-3.112-1.38-2.994H7z" opacity=".2"/>
    <path d="M26.478 28.006H7L7.008 31h20.85c.49-1.551-.367-3.112-1.38-2.994zM43.755 31h3.051c3.763.016 6.34-2.12 7.181-4.978 1.644-5.563-7.156-4.07-6.169-7.34.287-1.033 1.336-1.752 2.405-1.767.98-.017 1.75.187 2.062.433 1.601 1.254 3.545.685 4.649-.748.583-.757-1.124-2.632-5.036-2.6h-1.744c-3.763 0-6.174 1.953-7.016 4.811-1.6 5.357 6.831 4.084 5.84 7.406-.382 1.288-1.437 1.844-2.997 1.87h-1.976" fill="#F9F5D7"/>
    <path d="M7 21l.002 5H28.29c4.2.302 5.962 2.898 4.717 7.012l-1.857 5.415C29.896 42.545 26.757 45 21.935 45h-.568l3.812-12h-9.444L11.08 47.854C10.789 48.94 11.678 50 13.639 50H23.73c9.645 0 15.048-5.147 17.062-11.662l1.545-5.053c2.086-6.787-.605-12.25-10.25-12.25h-3.242C21.57 21.01 14.317 21 7 21z" fill="#FA4934"/>
    <path d="M50.154 14c-3.763 0-6.174 1.952-7.015 4.81-.207.693-.24 1.271-.155 1.766.032-.242.072-.49.155-.765C43.98 16.95 46.39 15 50.154 15h1.744c2.758-.023 4.396.9 4.932 1.713.033-.04.072-.072.104-.113.583-.758-1.124-2.632-5.036-2.6h-1.744zm-2.316 5.63c-.005.018-.015.034-.02.052-.861 2.854 5.73 2.08 6.328 5.535.507-4.05-5.488-3.639-6.308-5.586zM7 21v1c7.317 0 14.57.012 21.846.035h3.242c7.399 0 10.693 3.22 10.89 7.781.262-5.085-2.96-8.78-10.89-8.78h-3.242C21.57 21.011 14.317 21 7 21zm41.967 5.248c-.39 1.264-1.44 1.813-2.987 1.84h-1.974L43.754 31h.086l.166-1.912h1.974c1.56-.027 2.617-.584 2.999-1.871.113-.38.091-.693-.012-.969zM7 28.006l.002 1h19.476c.693-.08 1.302.63 1.467 1.58.236-1.402-.545-2.688-1.466-2.58H7zm26.373 3.103a8.839 8.839 0 0 1-.365 1.903l-1.858 5.416C29.895 42.545 26.758 45 21.936 45h-.25l-.319 1h.569c4.822 0 7.96-2.455 9.214-6.572l1.858-5.416c.326-1.077.441-2.048.365-2.903zM15.736 33L11.08 47.854c-.081.302-.06.599.04.875L15.735 34h9.125l.319-1h-9.444z" fill="#F9F5D7" opacity=".2"/>
    <path d="M50.164 10c-5.143 0-9.558 3.306-10.85 7.67-.052.178.008.379-.03.562-2.105-.787-4.525-1.197-7.19-1.197A9324.3 9324.3 0 0 0 7 17a4 4 0 0 0-4 4.002c.008.296.008.576.014.867A3.993 3.993 0 0 1 7 18c8.39 0 16.719.013 25.094.035 2.665 0 5.085.41 7.19 1.197.038-.183-.022-.384.03-.562 1.292-4.364 5.707-7.67 10.85-7.67h1.711c2.6-.021 4.743.538 6.45 1.67.852.566 1.637 1.254 2.216 2.428.21.426.368.99.43 1.607.084-.996-.11-1.96-.43-2.607-.58-1.174-1.364-1.862-2.217-2.428-1.706-1.132-3.85-1.691-6.449-1.67h-1.711zm7.273 12.117c-.13.065-.257.136-.392.195a8.104 8.104 0 0 1 1.031 3.444c.087-1.249-.16-2.522-.639-3.639zm-54.4 2.348c0 2.183-.035 4.309-.03 6.545 0 .017.006.033.007.05.005-2.222.036-4.372.023-6.595zM10.605 36L7.264 46.656a3.998 3.998 0 0 0-.047.16c-.147.547-.178 1.133-.131 1.723a4.683 4.683 0 0 1 .178-.883L10.92 36h-.315z" opacity=".1" fill="#F9F5D7"/>
</svg>
