<svg xmlns="http://www.w3.org/2000/svg" width="64" height="64" version="1">
    <path d="M31 7c-2.43 0-4.772.355-7 .973C34.978 11.017 43 21.025 43 33c0 11.974-8.022 21.983-19 25.03 2.228.617 4.57.97 7 .97 14.404 0 26-11.596 26-26S45.404 7 31 7zM21 17l-2 3h-4l3 3-1 4 4-2 4 2-1-4 3-3h-4l-2-3zm7 8l-2.781 5L19 31.111l4.5 4.1L22 41l6-2.732L34 41l-1.5-5.79 4.5-4.099L30.781 30 28 25zM18 37l-3.398 7L7 45l5.5 4.764L11 57l7-3.416L25 57l-1.5-7.236L29 45l-7.6-1-3.4-7z" opacity=".2"/>
    <path d="M31 6c-2.43 0-4.772.355-7 .973C34.978 10.017 43 20.026 43 32c0 11.974-8.022 21.982-19 25.028 2.228.618 4.57.972 7 .972 14.404 0 26-11.596 26-26S45.404 6 31 6z" fill="#FECE4F"/>
    <path d="M18 36l3.4 7 7.6 1-5.5 4.764L25 56l-7-3.416L11 56l1.5-7.236L7 44l7.6-1z" fill="#8F3F71"/>
    <path d="M28 24l2.78 5L37 30.112l-4.5 4.1L34 40l-6-2.733L22 40l1.5-5.788-4.5-4.1L25.219 29z" fill="#48B9C7"/>
    <path d="M21 16l2 3h4l-3 3 1 4-4-2-4 2 1-4-3-3h4z" fill="#48B9C7"/>
    <path d="M31 6c-2.43 0-4.772.355-7 .973.603.167 1.195.363 1.78.572A25.71 25.71 0 0 1 31 7c14.236 0 25.723 11.33 25.988 25.5.003-.167.012-.332.012-.5C57 17.596 45.404 6 31 6zM21 16l-2 3h-4l1 1h3l2-3 2 3h3l1-1h-4l-2-3zm-3.2 6.8L17 26l.285-.143L18 23l-.2-.2zm6.4 0l-.2.2.715 2.857L25 26l-.8-3.2zM28 24l-2.781 5L19 30.111l.918.836 5.3-.947L28 25l2.781 5 5.301.947.918-.836L30.781 29 28 24zm14.979 8.5c-.216 11.403-7.701 20.926-18.036 24.225L25 57l-.361-.176c-.214.066-.423.145-.639.205a27.43 27.43 0 0 0 1.777.428C35.832 53.87 43 44.317 43 33c0-.169-.018-.332-.021-.5zM23.29 35.02L22 40l.293-.133 1.207-4.656-.209-.191zm9.418 0l-.209.19 1.207 4.657L34 40l-1.291-4.98zM18 36l-3.398 7L7 44l1.002.867 6.6-.867L18 37l3.4 7 6.598.867L29 44l-7.6-1-3.4-7zm-5.676 13.611L11 56l.23-.113 1.27-6.123-.176-.153zm11.352 0l-.176.153 1.27 6.123L25 56l-1.324-6.389z" fill="#F9F5D7" opacity=".2"/>
</svg>
