<svg xmlns="http://www.w3.org/2000/svg" width="64" height="64" version="1">
    <path d="M32 4c-1.52 0-3.04.565-4.176 1.701L4.701 28.828C3.565 29.964 3 31.481 3 33c.001 1.517.57 3.035 1.705 4.17l23.123 23.125c2.271 2.27 6.077 2.275 8.348.004l23.119-23.127A5.884 5.884 0 0 0 61 33c0-1.519-.57-3.036-1.705-4.172L36.175 5.701C35.04 4.565 33.52 4 32 4z" opacity=".2"/>
    <path d="M32 3c-1.52 0-3.04.566-4.175 1.702L4.702 27.827C3.566 28.964 2.999 30.481 3 32h58a5.885 5.885 0 0 0-1.705-4.173L36.175 4.702C35.04 3.566 33.52 3 32 3zm29 29zm-.426 2.23z" fill="#8F3F71"/>
    <path d="M3 32c.001 1.517.57 3.035 1.705 4.17l23.122 23.125c2.272 2.271 6.077 2.274 8.348.003l23.12-23.125A5.885 5.885 0 0 0 61 32z" fill="#066678"/>
    <path d="M3 32c0 .335.032.67.088 1h57.824c.055-.33.088-.665.088-1H3z" opacity=".2"/>
    <path d="M42 33L27 44V22z" opacity=".2"/>
    <path d="M42 32L27 43V21z" fill="#F9F5D7"/>
    <path d="M32 3c-1.52 0-3.04.566-4.176 1.701L4.701 27.828C3.565 28.964 3 30.481 3 32h.086A5.81 5.81 0 0 1 4.7 28.828L27.824 5.703C28.96 4.568 30.481 4 32 4c1.52 0 3.04.568 4.176 1.703l23.119 23.125A5.823 5.823 0 0 1 60.912 32H61c0-1.519-.57-3.036-1.705-4.172L36.175 4.701C35.04 3.566 33.52 3 32 3z" fill="#F9F5D7" opacity=".1"/>
</svg>
