<svg xmlns="http://www.w3.org/2000/svg" width="64" height="64" version="1">
    <path d="M4.001 44.5v2c0 1.724 1.387 3.434 3.11 3.5H33l7 8 7-8h9.89c1.723 0 3.11-1.776 3.11-3.5v-2c0 1.724-1.387 3.5-3.11 3.5H47l-7 8-7-8H7.11C5.388 47.934 4 46.224 4 44.5z" opacity=".2"/>
    <path d="M7.112 7.001c-1.723 0-3.11 1.776-3.11 3.5v35c0 1.723 1.388 3.433 3.11 3.5H33L40 57l7-8h9.888C58.612 49 60 47.224 60 45.5V10.501c0-1.724-1.388-3.5-3.112-3.5z" fill="#504945"/>
    <path d="M20 18v2h24v-2H20zm0 6v2h24v-2H20zm0 6v2h24v-2H20zm0 6v2h16v-2H20z" opacity=".2"/>
    <path d="M20 17v2h24v-2H20zm0 6v2h24v-2H20zm0 6v2h24v-2H20zm0 6v2h16v-2H20z" fill="#FECE4F"/>
    <path d="M7.111 7.002c-1.723 0-3.109 1.776-3.109 3.5v1c0-1.724 1.386-3.5 3.11-3.5h49.777c1.724 0 3.111 1.776 3.111 3.5v-1c0-1.724-1.387-3.5-3.111-3.5H7.11z" opacity=".1" fill="#F9F5D7"/>
</svg>
