<svg xmlns="http://www.w3.org/2000/svg" width="64" height="64" version="1">
    <path d="M4 56.332v2C4 59.808 5.208 61 6.707 61h2.586C10.792 61 12 59.808 12 58.332v-2C12 57.808 10.792 59 9.293 59H6.707C5.208 59 4 57.808 4 56.332zm48 0v2C52 59.808 53.204 61 54.704 61h2.59C58.792 61 60 59.808 60 58.332v-2C60 57.808 58.792 59 57.292 59h-2.59C53.204 59 52 57.808 52 56.332z" opacity=".2"/>
    <path d="M6.707 44C5.208 44 4 45.192 4 46.668v10.664C4 58.808 5.208 60 6.707 60h2.586C10.792 60 12 58.808 12 57.332V46.668C12 45.192 10.792 44 9.293 44H6.707zm47.996 0c-1.5 0-2.704 1.192-2.704 2.668v10.664c0 1.476 1.204 2.668 2.704 2.668h2.59c1.498 0 2.706-1.192 2.706-2.668V46.668c0-1.476-1.208-2.668-2.708-2.668H54.7z" fill="#322F2E"/>
    <path d="M32.003 4c-10.338 0-18.72 8.166-18.72 18.243 0 1.773.27 3.482.755 5.102 0 0-2.866 10.201-1.942 15.236.27 1.467.822 2.879 1.553 4.208 2.848-3.837 10.164-6.385 18.35-6.39 8.182.002 15.5 2.545 18.356 6.379.73-1.327 1.282-2.735 1.55-4.197.926-5.035-1.94-15.237-1.94-15.237.487-1.62.754-3.329.754-5.102C50.72 12.167 42.343 4 32.003 4z" fill="#504945"/>
    <circle cx="22" cy="19" r="4" opacity=".2"/>
    <circle cx="22" cy="18" r="4" fill="#F9F5D7"/>
    <circle cx="42" cy="19" r="4" opacity=".2"/>
    <circle cx="42" cy="18" r="4" fill="#F9F5D7"/>
    <ellipse cx="32" cy="39" rx="14" ry="15.4" fill="#F9F5D7"/>
    <circle cx="22" cy="18" r="2" fill="#322F2E"/>
    <circle cx="42" cy="18" r="2" fill="#322F2E"/>
    <path d="M28 22h8c-.641 6.163-4 12-4 12s-4-6.927-4-12z" opacity=".2"/>
    <path d="M28 20h8c-.641 6.163-4 12-4 12s-4-6.927-4-12z" fill="#BE4C1D"/>
    <path d="M32 32a8 8 0 0 0-8 8 8 8 0 0 0 8 8 8 8 0 0 0 8-8 8 8 0 0 0-8-8zm0 3.2a4.8 4.8 0 0 1 3.119 1.153L32 38.153l-3.116-1.798A4.8 4.8 0 0 1 32 35.2zm4.719 3.922A4.8 4.8 0 0 1 36.8 40a4.8 4.8 0 0 1-3.2 4.522v-3.6l3.119-1.8zm-9.435.003l3.116 1.797v3.597A4.8 4.8 0 0 1 27.2 40a4.8 4.8 0 0 1 .084-.876z" fill="#322F2E"/>
    <path d="M12.191 49.704A5.043 5.043 0 0 0 12 51h1.23s-.695-.59-1.039-1.297zm39.622.008c-.344.702-1.04 1.288-1.04 1.288h1.226c0-.438-.076-.867-.188-1.29zM5.999 57v2h12.309c3.657 1.828 8.571 1.996 13.691 2 5.127-.001 10.049-.17 13.711-2h12.288v-2h-12.29c-3.66 1.83-8.584 2-13.71 2-5.12-.004-10.034-.172-13.691-2H5.998z" opacity=".2"/>
    <path d="M32 40c-10.825 0-20 4.477-20 10 .005.968 1.231 2 1.231 2H6v6h12.309c3.657 1.828 8.571 1.996 13.691 2 5.127 0 10.048-.17 13.71-2H58v-6h-7.226s1.223-1.032 1.226-2c0-5.523-9.175-10-20-10z" fill="#FA4934"/>
    <ellipse cx="-17.46" cy="39.618" rx="4.97" ry="8.788" transform="matrix(.70175 -.71242 .86961 .49374 0 0)" fill="#504945"/>
    <ellipse cx="-50.172" cy="-7.582" rx="4.97" ry="8.788" transform="matrix(-.70175 -.71242 -.86961 .49374 0 0)" fill="#504945"/>
    <ellipse cx="21" cy="50.2" rx="3" ry="2.8" opacity=".2"/>
    <ellipse cx="21" cy="49.2" rx="3" ry="2.8" fill="#F9F5D7"/>
    <ellipse cx="43" cy="50.2" rx="3" ry="2.8" opacity=".2"/>
    <ellipse cx="43" cy="49.2" rx="3" ry="2.8" fill="#F9F5D7"/>
    <path d="M31.334 46c-.37 0-.667.892-.667 2v4c0 1.108.298 2 .667 2 .368 0 .666-.892.666-2v-4c0-1.108-.297-2-.667-2zm-2.667 1.333c-.37 0-.668.594-.668 1.332v2.667c0 .739.298 1.333.667 1.333.37 0 .667-.594.667-1.333v-2.667c0-.738-.298-1.333-.667-1.333z" opacity=".5"/>
    <path d="M32.666 46c.37 0 .667.892.667 2v4c0 1.108-.298 2-.667 2-.368 0-.666-.892-.666-2v-4c0-1.108.297-2 .667-2zm2.667 1.333c.37 0 .668.594.668 1.332v2.667c0 .739-.298 1.333-.667 1.333-.37 0-.667-.594-.667-1.333v-2.667c0-.738.298-1.333.667-1.333z" opacity=".5"/>
    <path d="M32 40c-10.825 0-20 4.477-20 10 0 .112.021.224.05.336C12.753 45.123 21.614 41 32 41s19.25 4.123 19.95 9.336c.03-.112.05-.224.05-.336 0-5.523-9.175-10-20-10zM6 52v1h7.23s-.488-.44-.851-1zM51.625 52c-.362.56-.85 1-.85 1H58v-1z" opacity=".2" fill="#F9F5D7"/>
    <path d="M54.701 44C53.202 44.001 52 45.193 52 46.668v1c0-1.475 1.202-2.667 2.701-2.668h2.59c1.5 0 2.707 1.192 2.707 2.668v-1c0-1.476-1.207-2.668-2.707-2.668h-2.588zM6.707 44C5.208 44 4 45.192 4 46.668v1C4 46.192 5.208 45 6.707 45h2.586C10.792 45 12 46.192 12 47.668v-1C12 45.192 10.792 44 9.293 44zM32.004 4c-10.338 0-18.721 8.167-18.721 18.244 0 .194.015.384.022.576C13.538 12.94 21.813 5 32.004 5c10.195 0 18.463 7.943 18.693 17.822.007-.193.022-.385.022-.58C50.72 12.167 42.344 4 32.004 4zm18.092 23.848c-.045.165-.082.334-.131.498 0 0 1.989 7.101 2.111 12.379.134-4.878-1.661-11.701-1.98-12.877zm-36.188.002c-.321 1.18-2.119 8.012-1.982 12.888.119-5.279 2.113-12.392 2.113-12.392-.049-.163-.086-.332-.131-.496z" opacity=".1" fill="#F9F5D7"/>
</svg>
