<svg xmlns="http://www.w3.org/2000/svg" width="64" height="64" version="1">
    <rect width="58" height="58" x="-62" y="-61" rx="2.9" ry="2.9" transform="matrix(0 -1 -1 0 0 0)" opacity=".2"/>
    <rect width="58" height="58" x="-61" y="-61" rx="2.9" ry="2.9" transform="matrix(0 -1 -1 0 0 0)" fill="#B57514"/>
    <rect width="46" height="46" x="-56" y="-55" rx="2.3" ry="2.3" transform="matrix(0 -1 -1 0 0 0)" opacity=".2"/>
    <rect width="46" height="46" x="-55" y="-55" rx="2.3" ry="2.3" transform="matrix(0 -1 -1 0 0 0)" fill="#B57514"/>
    <rect width="34" height="34" x="-50" y="-49" rx="1.7" ry="1.7" transform="matrix(0 -1 -1 0 0 0)" opacity=".2"/>
    <rect width="34" height="34" x="-49" y="-49" rx="1.7" ry="1.7" transform="matrix(0 -1 -1 0 0 0)" fill="#E6D3A3"/>
    <rect width="22" height="22" x="-44" y="-43" rx="1.1" ry="1.1" transform="matrix(0 -1 -1 0 0 0)" opacity=".2"/>
    <rect width="22" height="22" x="-43" y="-43" rx="1.1" ry="1.1" transform="matrix(0 -1 -1 0 0 0)" fill="#E6D3A3"/>
    <rect width="10" height="10" x="-38" y="-37" rx=".5" ry=".5" transform="matrix(0 -1 -1 0 0 0)" opacity=".2"/>
    <rect width="10" height="10" x="-37" y="-37" rx=".5" ry=".5" transform="matrix(0 -1 -1 0 0 0)" fill="#F9F5D7"/>
    <path d="M5.898 3A2.891 2.891 0 0 0 3 5.898v1A2.891 2.891 0 0 1 5.898 4h52.204A2.891 2.891 0 0 1 61 6.898v-1A2.891 2.891 0 0 0 58.102 3H5.898z" opacity=".1" fill="#F9F5D7"/>
    <path d="M11.3 9A2.296 2.296 0 0 0 9 11.3v1c0-1.273 1.027-2.3 2.3-2.3h41.4c1.273 0 2.3 1.027 2.3 2.3v-1c0-1.273-1.027-2.3-2.3-2.3H11.3zM16.7 15c-.943 0-1.7.757-1.7 1.7v1c0-.943.757-1.7 1.7-1.7h30.6c.943 0 1.7.757 1.7 1.7v-1c0-.943-.757-1.7-1.7-1.7H16.7zM22.102 21A1.1 1.1 0 0 0 21 22.102v1A1.1 1.1 0 0 1 22.102 22h19.796A1.1 1.1 0 0 1 43 23.102v-1A1.1 1.1 0 0 0 41.898 21H22.102z" opacity=".2" fill="#F9F5D7"/>
</svg>
