<svg xmlns="http://www.w3.org/2000/svg" width="64" height="64" version="1">
    <circle cx="32" cy="33" r="28" opacity=".2"/>
    <circle cx="32" cy="32" r="28" fill="#48B9C7"/>
    <path d="M32 13c-11.046 0-20 8.955-20 20 0 11.046 8.954 20 20 20 11.045 0 20-8.954 20-20a19.982 19.982 0 0 0-1.231-6.827l.042-.032-.104-.148A20 20 0 0 0 32 13zm0 2a17.999 17.999 0 0 1 15.975 9.723L35.496 33.64l-21.292 1.934A17.888 17.888 0 0 1 14 33c0-9.941 8.059-18 18-18zm17.077 12.379c.604 1.813.916 3.71.923 5.621a18 18 0 0 1-5.215 12.652l-6.867-10.3zm-13.781 9.089l7.347 11.02A17.993 17.993 0 0 1 32 51a18 18 0 0 1-17.172-12.668z" opacity=".2"/>
    <path d="M32 12c-11.046 0-20 8.955-20 20 0 11.046 8.954 20 20 20 11.045 0 20-8.954 20-20a19.982 19.982 0 0 0-1.231-6.827l.042-.032-.104-.148A20 20 0 0 0 32 12zm0 2a17.999 17.999 0 0 1 15.975 9.723L35.496 32.64l-21.292 1.934A17.888 17.888 0 0 1 14 32c0-9.941 8.059-18 18-18zm17.077 12.379c.604 1.813.916 3.71.923 5.621a18 18 0 0 1-5.215 12.652l-6.867-10.3zm-13.781 9.089l7.347 11.02A17.993 17.993 0 0 1 32 50a18 18 0 0 1-17.172-12.668l20.468-1.864z" fill="#F9F5D7"/>
    <circle cx="14" cy="37" r="4" opacity=".2"/>
    <circle cx="14" cy="36" r="4" fill="#F9F5D7"/>
    <circle cx="44" cy="47" r="4" opacity=".2"/>
    <circle cx="44" cy="46" r="4" fill="#F9F5D7"/>
    <circle cx="50" cy="25" r="4" opacity=".2"/>
    <circle cx="50" cy="24" r="4" fill="#F9F5D7"/>
    <circle cx="36" cy="35" r="4" opacity=".2"/>
    <circle cx="36" cy="34" r="4" fill="#F9F5D7"/>
    <path d="M32 4A28 28 0 0 0 4 32a28 28 0 0 0 .021.586A28 28 0 0 1 32 5a28 28 0 0 1 27.979 27.414A28 28 0 0 0 60 32 28 28 0 0 0 32 4z" opacity=".2" fill="#F9F5D7"/>
</svg>
