<svg xmlns="http://www.w3.org/2000/svg" width="64" height="64" version="1">
    <rect width="57" height="57" x="-61" y="-60" rx="28.5" ry="28.5" transform="matrix(0 -1 -1 0 0 0)" opacity=".2"/>
    <rect width="57" height="57" x="-60" y="-60" rx="28.5" ry="28.5" transform="matrix(0 -1 -1 0 0 0)" fill="#377375"/>
    <path d="M36 20v1.5c0 1.305.003 2.332.004 3.5H33v3h3.01c.023 6.705.109 10.965.431 13.691.209 1.763.47 2.962 1.168 3.938S39.557 47 40.5 47H42v-3h-1.5c-.482 0-.32.067-.451-.117-.132-.185-.444-.978-.63-2.543-.285-2.42-.38-6.641-.407-13.34H42v-3h-2.994c-.002-1.169-.006-2.196-.006-3.5V20z" opacity=".2"/>
    <path d="M33.387 9.143c10.291-1.356 14.036 4.932 18.062 8.555-7.176-1.208-7.825-9.937-21.043-4.332-10.55 4.474-8.88 13.687-11.735 19.859l-5.099-2.755c2.576-9.604 10.772-20.136 19.815-21.327z" opacity=".3" fill="#F9F5D7"/>
    <path d="M11.99 31c-1.396.075-2.553.156-2.842.887-.823 2.565 2.054 2.185 2.054 2.185l-.9-.968c-.476-2.075 8.626 1.92 11.074 4.876 6.814 8.23 7.348 18.822 21.998 16.759 2.26-.318 4.493-.557 6.626-2.489-2.92.754-5.538.802-7.86 1.06-8.159.848-10.561-2.168-13.387-8.34-1.725-3.85-4.342-7.89-7.789-10.63l.197-3.195-1.436 2.292C17.461 31.935 14.88 31 11.99 31z" opacity=".2"/>
    <path d="M11.99 30c-1.396.075-2.553.156-2.842.887-.823 2.565 2.054 2.185 2.054 2.185l-.9-.968c-.476-2.075 8.626 1.92 11.074 4.876 6.814 8.23 7.348 18.822 21.998 16.759 2.26-.318 4.493-.557 6.626-2.489-2.92.754-5.538.802-7.86 1.06-8.159.848-10.561-2.168-13.387-8.34-1.725-3.85-4.342-7.89-7.789-10.63l.197-3.195-1.436 2.292C17.461 30.935 14.88 30 11.99 30z" fill="#F9F5D7"/>
    <path d="M37.5 20.5c0 21.375.15 24 3 24" fill="none" stroke="#F9F5D7" stroke-width="3" stroke-linecap="square" stroke-linejoin="round"/>
    <path fill="#F9F5D7" d="M33 24h9v3h-9z"/>
    <path d="M31.5 3A28.438 28.438 0 0 0 3 31.5c0 .168.009.333.012.5C3.278 16.445 15.879 4 31.5 4c15.621 0 28.222 12.445 28.488 28 .003-.167.012-.332.012-.5A28.438 28.438 0 0 0 31.5 3z" fill="#F9F5D7" opacity=".1"/>
</svg>
