<svg xmlns="http://www.w3.org/2000/svg" width="64" height="64" version="1">
    <rect width="56" height="56" x="4" y="5" rx="28" ry="28" opacity=".2"/>
    <rect width="56" height="56" x="4" y="4" rx="28" ry="28" fill="#8F3F71"/>
    <path d="M32 16a17 17 0 0 0-17 17 17 17 0 0 0 7 13.722v6.426a.72.85 0 0 0 1.08.738l3.531-2.41 2.524-1.723a17 17 0 0 0 2.865.246 17 17 0 0 0 17-17 17 17 0 0 0-17-17zm-9 17h18a9 9 0 0 1-18 0z" opacity=".2"/>
    <path d="M32 15a17 17 0 0 0-17 17 17 17 0 0 0 17 17 17 17 0 0 0 17-17 17 17 0 0 0-17-17zm-9 17h18a9 9 0 0 1-18 0z" fill="#F9F5D7"/>
    <path d="M22.737 41.667a.72.85 0 0 0-.737.85v9.632a.72.85 0 0 0 1.08.737l3.53-2.41 3.531-2.408a.72.85 0 0 0 0-1.47l-3.53-2.408-3.532-2.41a.72.85 0 0 0-.342-.113z" fill="#F9F5D7"/>
    <path d="M32 4C16.488 4 4 16.488 4 32c0 .168.01.333.014.5C4.28 17.221 16.656 5 32 5c15.344 0 27.72 12.221 27.986 27.5.003-.167.014-.332.014-.5C60 16.488 47.512 4 32 4z" fill="#F9F5D7" opacity=".1"/>
</svg>
