<svg xmlns="http://www.w3.org/2000/svg" width="64" height="64" version="1">
    <path d="M56.129 54.905L60 47.278V7.8C60 6.249 58.751 5 57.2 5H6.8A2.794 2.794 0 0 0 4 7.8v50.4C4 59.751 5.249 61 6.8 61h43.118l3.41-3.295c1.116-1.078 2.098-1.417 2.8-2.8z" opacity=".2"/>
    <path d="M57.694 55.635L60 45.466V6.8C60 5.249 58.751 4 57.2 4H6.8A2.794 2.794 0 0 0 4 6.8v50.4C4 58.751 5.249 60 6.8 60h42.541l6.047-1.236c1.52-.31 1.962-1.616 2.306-3.13z" fill="#F9F5D7"/>
    <path d="M15 13v10h2.205c.16-.446.35-.929.6-1.487.422-.959.909-1.861 1.459-2.707a14.657 14.657 0 0 1 1.787-2.254c.284-.29.562-.372.836-.552H29v34h-7v3h20v-3h-7V16h7.113c.274.18.552.261.836.552a14.657 14.657 0 0 1 1.787 2.254c.55.846 1.037 1.748 1.458 2.707.25.558.44 1.041.6 1.487H49V13H16.417z" font-size="40" letter-spacing="0" word-spacing="0" opacity=".1"/>
    <path d="M15 12v10h2.205c.16-.446.35-.929.6-1.487.422-.959.909-1.861 1.459-2.707a14.657 14.657 0 0 1 1.787-2.254c.284-.29.562-.372.836-.552H29v34h-7v3h20v-3h-7V15h7.113c.274.18.552.261.836.552a14.657 14.657 0 0 1 1.787 2.254c.55.846 1.037 1.748 1.458 2.707.25.558.44 1.041.6 1.487H49V12H16.417z" font-size="40" letter-spacing="0" word-spacing="0" fill="#8F3F71"/>
    <path d="M6.8 4C5.25 4 4 5.25 4 6.8v1C4 6.25 5.25 5 6.8 5h50.4C58.75 5 60 6.25 60 7.8v-1C60 5.25 58.75 4 57.2 4H6.8z" fill="#F9F5D7" opacity=".2"/>
    <circle cx="48" cy="48" r="16" opacity=".2"/>
    <circle cx="48" cy="47" r="16" fill="#504945"/>
    <path d="M40 50.436V54h3.564l9-9-3.563-3.565zm15.717-8.578a.945.945 0 0 0 0-1.348l-2.227-2.227a.945.945 0 0 0-1.348 0l-1.862 1.874 3.564 3.564z" fill="#F9BD2E"/>
</svg>
