<svg xmlns="http://www.w3.org/2000/svg" width="64" height="64" version="1">
    <rect width="56" height="56" x="4" y="5" rx="2.8" ry="2.8" opacity=".2"/>
    <rect width="56" height="56" x="4" y="4" rx="2.8" ry="2.8" fill="#E6D3A3"/>
    <path d="M32 12a22 21 0 0 0-22 21 22 21 0 0 0 22 21 22 21 0 0 0 22-21 22 21 0 0 0-22-21zm0 4a15 17 0 0 1 15 17 15 17 0 0 1-15 17 15 17 0 0 1-15-17 15 17 0 0 1 15-17zm-8 11v12h1.5c0-3-.046-3 7.227-3 5.818 0 5.773 0 5.773 3H40V27h-1.5c0 3 .045 3-5.773 3-7.273 0-7.227 0-7.227-3H24z" opacity=".2" fill-rule="evenodd"/>
    <path d="M32 11a22 21 0 0 0-22 21 22 21 0 0 0 22 21 22 21 0 0 0 22-21 22 21 0 0 0-22-21zm0 4a15 17 0 0 1 15 17 15 17 0 0 1-15 17 15 17 0 0 1-15-17 15 17 0 0 1 15-17zm-8 11v12h1.5c0-3-.046-3 7.227-3 5.818 0 5.773 0 5.773 3H40V26h-1.5c0 3 .045 3-5.773 3-7.273 0-7.227 0-7.227-3H24z" fill="#3A393A" fill-rule="evenodd"/>
    <path d="M6.8 4C5.25 4 4 5.25 4 6.8v1C4 6.25 5.25 5 6.8 5h50.4C58.75 5 60 6.25 60 7.8v-1C60 5.25 58.75 4 57.2 4H6.8z" fill="#F9F5D7" opacity=".2"/>
</svg>
