<svg xmlns="http://www.w3.org/2000/svg" width="64" height="64">
    <path d="M25.99 5c-4.383.117-6.976 4.27-8.82 7.857-.341.181-.684.355-1.024.543-3.48 2.34-6.33 5.578-8.53 9.123-1.937 3.418-3.111 7.22-3.548 11.115-.259 3.95.193 7.975 1.68 11.67 2.816 6.347 9.786 13.75 16.244 13.67-1.399-.809-4.901-3.98-5.998-9.996 1.164 2.28 6.42 5.302 7.998 5.996-.783-.732-3.792-5.119-3.998-7.695l-10.049-3.09c-.886-2.804-1.415-5.705-1.738-8.67-.041-.663-.123-1.38.115-1.203.893 1.415 2.124 1.862 3.674 2.666-1.47-2.313-2.14-4.964-1.898-7.713.242-2.758 1.798-5.432 3.507-7.414.203-.232.43-.452.641-.68.091.71.209 1.42.291 2.106-.024.53.302 1.647.047 1.76-.514 1.553-1.005 3.556.225 4.912.389-1.756 2.304-2.602 3.814-3.34 1.706-.741 3.088-2.362 4.777-3.14 2.227-1.278 4.377.523 7.237.523 2.734 0 5.624-1 8.33-2.217.63.651 1.755 1.71 2.248 2.482h-.006c1.41 2.256 2.388 4.878 2.709 7.451.4 3.367.064 6.72-1.926 9.268l-.015.002h.013c.041.005 3.611.26 5.992-2-1.698 13.135-9.752 20.156-13.994 21.99 5.471.368 9.642-3.659 9.9-3.914-.612.771-2.447 3.044-3.904 3.914 3.69-1.033 6.16-1.408 8.489-3.107-.001 0 1.891-1.03 3.865-3.281.262-.3.714-.714.984-1.055.168-.212.324-.43.488-.643.03-.035.063-.07.09-.105 4.154-5.082 6.176-11.4 6.026-17.125.029-6.94-2.788-12.967-7.52-17.947-3.422-3.603-7.308-6.005-10.808-7.198-4.535-1.302-10.13-1.857-14.133-1.1-.38.127.057-2.083.525-2.415-.957.09-1.98 1.906-2.826 2.783-.095.02-.179.044-.268.066.525-1.063.272-1.779 1.094-2.85-2.398.448-2.869 2.014-3.7 3.58-.317.107-.62.238-.93.356.787-2.61 2.22-3.942 4.63-5.935z" opacity=".2"/>
    <path d="M40.404-22.312a20.426 20.426 0 1 1 40.153-7.522 20.426 20.426 0 1 1-40.153 7.522z" fill="none"/>
    <path d="M12.849 49.816c2.429 3.494 5.564 7.61 9.144 8.162-1.4-.81-4.901-3.98-5.998-9.996 1.164 2.28 6.42 5.303 7.997 5.997-.784-.731-3.792-5.12-3.999-7.696l-10.084-3.1c.063.095.286 2.9 2.94 6.633z" fill="#066678"/>
    <path d="M48.757 25.978l-18.182-6.376L11.089 20.9l-4.973 6.206c.885 5.737.335 11.948 3.417 16.96l34.45 10.912 4.745-13.243z" opacity=".2"/>
    <path d="M48.757 24.98l-18.182-6.377-19.486 1.299-4.973 6.206c.885 5.737.335 11.947 3.417 16.959l34.45 10.912 4.745-13.243z" fill="#F9F5D7"/>
    <path d="M11.556 19.529l3.282.469.902-4.394-1.803.879z" fill="#066678" fill-rule="evenodd"/>
    <path d="M47.278 29.476l-2.698-8.861-32.994-.331-.188.23-.309.388L24 39z" opacity=".2"/>
    <path d="M47.278 28.476l-2.698-8.861-32.994-.331-.188.23-.309.388L24 38z" fill="#F9F5D7"/>
    <path d="M30.504 8.335c-.004.001-4.149.02-5.958.601-3.015.696-5.72 1.979-8.4 3.464-3.48 2.34-6.33 5.579-8.531 9.124-1.937 3.418-3.11 7.22-3.546 11.115-.26 3.95.193 7.975 1.68 11.67 2.816 6.347 9.786 13.748 16.244 13.669-.82-.127-1.445-.958-2.216-1.408-2.592-1.515-5.056-4.061-6.928-6.754-2.654-3.732-2.877-6.537-2.94-6.632l.036.01c-.887-2.804-1.414-5.704-1.737-8.67-.042-.663-.124-1.381.114-1.205.893 1.416 2.124 1.864 3.675 2.668-1.47-2.313-2.141-4.964-1.9-7.713.243-2.758 1.8-5.432 3.508-7.414 4.478-5.126 11.012-9.273 16.899-12.525z" fill="#066678"/>
    <path d="M30.504 8.336c-.003 0-4.15.019-5.96.6-3.014.695-5.717 1.979-8.398 3.464-3.48 2.34-6.33 5.579-8.53 9.123-1.937 3.418-3.111 7.22-3.548 11.116a31.649 31.649 0 0 0-.058 2.373c.01-.458.028-.917.058-1.373.437-3.896 1.611-7.698 3.547-11.116 2.201-3.544 5.052-6.783 8.531-9.123 2.68-1.485 5.384-2.769 8.399-3.464 1.067-.343 2.707-.47 4.07-.534.634-.364 1.266-.722 1.889-1.066z" opacity=".1" fill="#F9F5D7"/>
    <path d="M25.99 4c-4.736.126-7.397 4.978-9.264 8.722-.672 1.19-1.37 2.603-1.957 3.727-1.124 1.771-.464 3.899-.231 5.837-.025.53.3 1.646.046 1.758-.514 1.553-1.004 3.557.225 4.913.39-1.755 2.305-2.6 3.815-3.34 1.706-.74 3.087-2.362 4.777-3.141 2.227-1.277 4.376.524 7.237.524 2.734 0 5.623-1 8.329-2.216.63.651 1.756 1.71 2.248 2.482h-.007c1.41 2.256 2.388 4.878 2.71 7.451.4 3.366.064 6.718-1.926 9.266l-.016.004h.014c.041.005 3.61.259 5.992-2.001-1.699 13.135-9.753 20.157-13.994 21.99 5.646.38 9.995-3.998 9.995-3.998.822-1.169-1.984 2.796-3.998 3.999 3.69-1.033 6.16-1.409 8.488-3.107-.001 0 1.891-1.03 3.865-3.282.263-.3.714-.715.984-1.056.168-.212.324-.43.488-.642.029-.035.062-.069.09-.104 4.154-5.082 6.177-11.4 6.027-17.126.029-6.94-2.788-12.965-7.52-17.946-3.422-3.602-7.309-6.006-10.81-7.199-4.534-1.302-10.13-1.857-14.131-1.1-.38.127.056-2.083.524-2.416-1.122.105-2.338 2.593-3.248 3.146.747-1.236.351-1.977 1.249-3.146-3.337.623-2.927 3.407-4.979 5.352.676-3.614 2.167-5.025 4.979-7.351z" fill="#066678"/>
    <path d="M16.615 23.992c6.665-.192 2.48-4.323 11.375-11.995-7.246 3.752-14.144 3.746-11.366 11.995h-.008z" fill="#066678"/>
    <path d="M20.61 20.64c-.638 1.167-2.13 1.637-2.954 1.198-.843-.44-.839-1.909-.186-3.076.63-1.167 3.413-.643 3.426-.643.013 0 .354 1.358-.285 2.52z" fill="#F9F5D7"/>
    <path d="M17.815 25.96s.36-.347.172-.98c-2.237.74-3.336-1.402-3.328-1.402.008 0-1.676 4.412.334 6.411.174-1.646 2.74-3.944 2.747-3.944" fill="#665C54"/>
    <circle cx="19" cy="20" r="1" fill="#665C54"/>
    <path d="M25.99 4c-4.737.126-7.396 4.978-9.263 8.723-.673 1.19-1.37 2.602-1.957 3.726-.584.92-.68 1.934-.612 2.969.051-.684.218-1.349.612-1.969.587-1.124 1.284-2.536 1.957-3.726 1.677-3.365 4-7.614 7.892-8.534.43-.384.855-.762 1.371-1.189zm0 2c-3.126.584-2.988 3.057-4.642 4.967a13.46 13.46 0 0 0-.336 1.385c1.927-1.828 1.684-4.397 4.416-5.217.101-.353.239-.714.562-1.135zm2 0c-.912.085-1.882 1.73-2.703 2.646-.098.456-.196.921-.545 1.499.767-.467 1.752-2.295 2.715-2.924.126-.53.321-1.07.533-1.221zm2.735 2.084c-1.159.034-2.26.143-3.26.332a.072.072 0 0 1-.059-.004c-.113.563-.127 1.066.059 1.004 4.002-.757 9.598-.203 14.133 1.1 3.5 1.192 7.386 3.595 10.808 7.197 4.732 4.98 7.549 11.006 7.52 17.947v.154c.01-.386.01-.772 0-1.154.029-6.94-2.788-12.966-7.52-17.947-3.422-3.602-7.308-6.005-10.808-7.197-3.402-.977-7.399-1.534-10.873-1.432z" opacity=".1" fill="#F9F5D7"/>
</svg>
