<svg xmlns="http://www.w3.org/2000/svg" width="64" height="64" version="1">
    <circle cx="32" cy="33" r="28" opacity=".2"/>
    <circle cx="32" cy="32" r="28" fill="#8F3F71"/>
    <path d="M20 35.8S20 47 29 47h15V19h-6v21h-7.5C26 40 26 34.4 26 34.4V19h-6z" opacity=".2"/>
    <path d="M20 34.8S20 46 29 46h15V18h-6v21h-7.5C26 39 26 33.4 26 33.4V18h-6z" fill="#F9F5D7"/>
    <path d="M32 4A28 28 0 0 0 4 32a28 28 0 0 0 .021.586A28 28 0 0 1 32 5a28 28 0 0 1 27.979 27.414A28 28 0 0 0 60 32 28 28 0 0 0 32 4z" opacity=".1" fill="#F9F5D7"/>
    <circle cx="48" cy="47" r="16" opacity=".2"/>
    <circle cx="48" cy="46" r="16" fill="#48B9C7"/>
    <path d="M45.929 38l-.177 2.107a6.286 6.286 0 0 0-1.837 1.063L42 40.268l-2 3.464 1.739 1.207a6.286 6.286 0 0 0-.096 1.06 6.286 6.286 0 0 0 .091 1.065L40 48.268l2 3.464 1.91-.9a6.286 6.286 0 0 0 1.842 1.056L45.93 54h4l.176-2.107a6.286 6.286 0 0 0 1.837-1.063l1.915.902 2-3.464-1.738-1.207a6.286 6.286 0 0 0 .096-1.06 6.286 6.286 0 0 0-.092-1.065l1.735-1.203-2-3.464-1.911.9a6.286 6.286 0 0 0-1.842-1.057L49.929 38h-4zm2 5.714A2.286 2.286 0 0 1 50.215 46a2.286 2.286 0 0 1-2.286 2.286A2.286 2.286 0 0 1 45.643 46a2.286 2.286 0 0 1 2.286-2.286z" fill="#F9F5D7"/>
</svg>
