<svg xmlns="http://www.w3.org/2000/svg" width="64" height="64">
    <rect width="56" height="56" x="4" y="5" rx="4.2" ry="4.2" opacity=".2"/>
    <rect width="56" height="56" x="4" y="4" rx="4.2" ry="4.2" fill="#7CB668"/>
    <path d="M12 21v14.8a3 3 0 0 0 .098.759s.446 1.707 1.773 3.277S17.693 43 21 43c3.307 0 5.802-1.594 7.129-3.164s1.773-3.277 1.773-3.277A3 3 0 0 0 30 35.8v-5.5c.781.89.722.931 1.61 1.876.57.608 1.218 1.117 1.816 1.719-.012.057-.032.11-.043.168C32.032 40.845 32 49.529 32 51h6c0-.988.429-5.97.941-10.387 1.658 1.244 3.31 2.296 5.54 2.383 3.442.135 6.485-1.17 8.492-3.273C54.98 37.619 56 34.828 56 32c0-6.01-4.99-11-11-11-7.142.086-7.707 4.967-9.586 6.403C32.9 24.65 30.864 22.057 30 21h-6v14.203c-.036.108-.084.326-.453.762C23.099 36.495 22.593 37 21 37c-1.593 0-2.099-.505-2.547-1.035-.369-.436-.417-.654-.453-.762V21zm33 6c2.39 0 5 2.61 5 5 0 1.372-.51 2.683-1.367 3.582-.858.899-2.015 1.496-3.914 1.422.094.004-1.549-.583-3.258-1.941-.36-.286-.774-.764-1.152-1.094.497-1.642.908-3.512 1.562-4.594C42.961 27.57 43.785 27 45 27z" opacity=".2" fill-rule="evenodd"/>
    <path d="M12 20v14.8a3 3 0 0 0 .098.759s.446 1.707 1.773 3.277S17.693 42 21 42c3.307 0 5.802-1.594 7.129-3.164s1.773-3.277 1.773-3.277A3 3 0 0 0 30 34.8v-5.5c.781.89.722.931 1.61 1.876.57.608 1.218 1.117 1.816 1.719-.012.057-.032.11-.043.168C32.032 39.845 32 48.529 32 50h6c0-.988.429-5.97.941-10.387 1.658 1.244 3.31 2.296 5.54 2.383 3.442.135 6.485-1.17 8.492-3.273C54.98 36.619 56 33.828 56 31c0-6.01-4.99-11-11-11-7.142.086-7.707 4.967-9.586 6.403C32.9 23.65 30.864 21.057 30 20h-6v14.203c-.036.108-.084.326-.453.762C23.099 35.495 22.593 36 21 36c-1.593 0-2.099-.505-2.547-1.035-.369-.436-.417-.654-.453-.762V20zm33 6c2.39 0 5 2.61 5 5 0 1.372-.51 2.683-1.367 3.582-.858.899-2.015 1.496-3.914 1.422.094.004-1.549-.583-3.258-1.941-.36-.286-.774-.764-1.152-1.094.497-1.642.908-3.512 1.562-4.594C42.961 26.57 43.785 26 45 26z" fill="#F9F5D7" fill-rule="evenodd"/>
    <path d="M8.2 4A4.19 4.19 0 0 0 4 8.2v1A4.19 4.19 0 0 1 8.2 5h47.6A4.19 4.19 0 0 1 60 9.2v-1A4.19 4.19 0 0 0 55.8 4H8.2z" opacity=".2" fill="#F9F5D7"/>
</svg>
