<svg xmlns="http://www.w3.org/2000/svg" width="64" height="64" version="1">
    <path d="M32 6c-7.5 0-12.5 5.2-12.5 12.81v7.982h-5.254S12 26.8 12 29.4v26c0 2.6 2.246 2.6 2.246 2.6h35.508S52 58 52 55.4v-26c0-2.6-2.246-2.608-2.246-2.608l-5.247.016-.014-8.082C44.5 11.199 39.5 6 32 6z" fill="#504945"/>
    <path d="M32 13c4.418 0 8 3.511 8 7.93 0 5.334-5.666 12-7 12.07 0 0 .563-4.07-1-4.07a8 8 0 0 1-8-8.001c0-4.418 3.582-7.93 8-7.93z" opacity=".2"/>
    <path d="M32 12c4.418 0 8 3.511 8 7.93 0 5.334-5.666 12-7 12.07 0 0 .563-4.07-1-4.07a8 8 0 0 1-8-8C24 15.51 27.582 12 32 12z" fill="#F9F5D7"/>
    <path d="M32 37a4.5 4.5 0 0 1 4.5 4.5 4.49 4.49 0 0 1-3.405 4.35h.404c1.5 0 2.418 1.37 3.317 2.582.84 1.132 1.184 2.704 1.184 3.276v1.034c-.003.031 0 .064 0 .097A2.167 2.167 0 0 1 35.826 55h-7.65A2.171 2.171 0 0 1 26 52.835c0-.032.005-.062.006-.094-.003 0-.005-.518-.006-1.034 0-.572.264-2.171 1.066-3.328.85-1.225 1.934-2.529 3.434-2.529h.405A4.49 4.49 0 0 1 27.5 41.5 4.5 4.5 0 0 1 32 37z" opacity=".2"/>
    <path d="M32 36a4.5 4.5 0 0 1 4.5 4.5 4.49 4.49 0 0 1-3.405 4.35h.404c1.5 0 2.418 1.37 3.317 2.582.84 1.132 1.184 2.704 1.184 3.276v1.034c-.003.031 0 .064 0 .097A2.167 2.167 0 0 1 35.826 54h-7.65A2.171 2.171 0 0 1 26 51.835c0-.032.005-.062.006-.094-.003 0-.005-.518-.006-1.034 0-.572.264-2.171 1.066-3.328.85-1.225 1.934-2.529 3.434-2.529h.405A4.49 4.49 0 0 1 27.5 40.5 4.5 4.5 0 0 1 32 36z" fill="#F9F5D7"/>
    <path d="M32 6c-7.5 0-12.5 5.2-12.5 12.81v1C19.5 12.2 24.5 7 32 7s12.5 5.201 12.492 12.729l.016 8.082 5.246-.018S52 27.8 52 30.4v-1c0-2.6-2.246-2.607-2.246-2.607l-5.246.018-.016-8.082C44.5 11.2 39.5 6 32 6zM14.246 26.793S12 26.8 12 29.4v1c0-2.6 2.246-2.607 2.246-2.607H19.5v-1h-5.254z" opacity=".1" fill="#F9F5D7"/>
    <path d="M12 55.4v1c0 2.598 2.246 2.6 2.246 2.6h35.508S52 58.998 52 56.4v-1c0 2.599-2.246 2.6-2.246 2.6H14.246S12 58 12 55.4z" opacity=".2"/>
</svg>
