<svg xmlns="http://www.w3.org/2000/svg" width="64" height="64" version="1">
    <path d="M20 47h15L20 61z" opacity=".2"/>
    <path d="M20 46h15L20 60z" fill="#8F3F71"/>
    <rect width="48" height="46" x="8" y="5" rx="16.973" ry="17.765" opacity=".2"/>
    <rect width="48" height="46" x="8" y="4" rx="16.973" ry="17.765" fill="#8F3F71"/>
    <path d="M24.477 14.33l-.01-.01-.012-.013-.023-.016-.067-.035.112.074zM19.013 16.03c-.005.007-.007.03-.013.045-.005.006-.005.01-.01.016l.013-.045c0 .002.017-.027.01-.016z" fill="#F9F5D7"/>
    <path d="M35.244 11l.004.004c-.676 0-1.24.54-1.246 1.195-.004.658.557 1.208 1.238 1.211 2.94.022 5.357.954 7.305 2.786 1.926 1.815 2.932 4.328 2.958 7.61v.003c.006.653.568 1.192 1.246 1.192l.011-.004c.68-.006 1.244-.554 1.239-1.211-.016-1.915-.326-3.676-.934-5.223a11.289 11.289 0 0 0-2.773-4.098c-2.412-2.267-5.49-3.44-9.036-3.465zm-13.829 4.028c-.473-.08-.984.011-1.496.257h-.043l-.054.032c-.951.54-1.845 1.263-2.68 2.172l-.067.074v.062c-.577.72-.959 1.446-1.047 2.172-.028.123-.027.237-.027.356 0 .33.05.663.152.992l.028.094.054.035c.33 1.131 1.082 2.89 2.72 5.871 1.09 1.977 2.205 3.63 3.312 5.02a26.811 26.811 0 0 0 2.008 2.258c.009.01.043.043.078.074.012.012.029.036.07.078l.079.079h.004l.05.05.012.016.016.015c.766.759 1.522 1.421 2.262 2a35.829 35.829 0 0 0 5.015 3.325c2.986 1.647 4.766 2.39 5.891 2.715l.04.05.07.024c.319.106.648.154.976.149.134.007.251-.002.364-.028.77-.09 1.538-.452 2.293-1.086l.007-.012.008-.004c.012-.011.006-.007.012-.015.007-.006.009-.014.016-.02.894-.815 1.613-1.702 2.156-2.652l.035-.059v-.058c.499-1.038.302-2.098-.508-2.774-.02-.017-.408-.341-.89-.734a43.186 43.186 0 0 0-1.477-1.164 28.147 28.147 0 0 0-2.563-1.637c-1.265-.709-2.59-.297-3.172.457l-1.02 1.277c-.41.518-1.235.47-1.257.469-6.92-1.78-8.78-8.74-8.793-8.79-.002-.021-.05-.843.468-1.261l1.27-1.016c.755-.578 1.181-1.903.469-3.172-.372-.656-1.092-1.82-1.637-2.562a48.773 48.773 0 0 0-1.168-1.477c-.2-.247-.387-.475-.52-.637-.067-.08-.118-.146-.156-.191-.02-.023-.036-.038-.047-.05-.006-.008-.01-.011-.016-.017a2.153 2.153 0 0 0-1.293-.757zm13.903 1.578c-.667-.047-1.263.45-1.312 1.094-.049.644.47 1.218 1.137 1.265 1.647.117 2.758.601 3.594 1.485v.004c.852.9 1.243 1.927 1.21 3.332v.008c-.014.646.526 1.193 1.196 1.207h.031c.66 0 1.208-.522 1.223-1.16.045-1.931-.58-3.653-1.848-4.989-1.276-1.342-3.08-2.093-5.23-2.246z" opacity=".2"/>
    <path d="M35.244 10l.004.004c-.676 0-1.24.54-1.246 1.195-.004.658.557 1.208 1.238 1.211 2.94.022 5.357.954 7.305 2.786 1.926 1.815 2.932 4.328 2.958 7.61v.003c.006.653.568 1.192 1.246 1.192l.011-.004c.68-.006 1.244-.554 1.239-1.211-.016-1.915-.326-3.676-.934-5.223a11.289 11.289 0 0 0-2.773-4.098c-2.412-2.267-5.49-3.44-9.036-3.465zm-13.829 4.028c-.473-.08-.984.011-1.496.257h-.043l-.054.032c-.951.54-1.845 1.263-2.68 2.172l-.067.074v.062c-.577.72-.959 1.446-1.047 2.172-.028.123-.027.237-.027.356 0 .33.05.663.152.992l.028.094.054.035c.33 1.131 1.082 2.89 2.72 5.871 1.09 1.977 2.205 3.63 3.312 5.02a26.811 26.811 0 0 0 2.008 2.258c.009.01.043.043.078.074.012.012.029.036.07.078l.079.079h.004l.05.05.012.016.016.015c.766.759 1.522 1.421 2.262 2a35.829 35.829 0 0 0 5.015 3.325c2.986 1.647 4.766 2.39 5.891 2.715l.04.05.07.024c.319.106.648.154.976.149.134.007.251-.002.364-.028.77-.09 1.538-.452 2.293-1.086l.007-.012.008-.004c.012-.011.006-.007.012-.015.007-.006.009-.014.016-.02.894-.815 1.613-1.702 2.156-2.652l.035-.059v-.058c.499-1.038.302-2.098-.508-2.774-.02-.017-.408-.341-.89-.734a43.186 43.186 0 0 0-1.477-1.164 28.147 28.147 0 0 0-2.563-1.637c-1.265-.709-2.59-.297-3.172.457l-1.02 1.277c-.41.518-1.235.47-1.257.469-6.92-1.78-8.78-8.74-8.793-8.79-.002-.021-.05-.843.468-1.261l1.27-1.016c.755-.578 1.181-1.903.469-3.172-.372-.656-1.092-1.82-1.637-2.562a48.773 48.773 0 0 0-1.168-1.477c-.2-.247-.387-.475-.52-.637-.067-.08-.118-.146-.156-.191-.02-.023-.036-.038-.047-.05-.006-.008-.01-.011-.016-.017a2.153 2.153 0 0 0-1.293-.757zm13.903 1.578c-.667-.047-1.263.45-1.312 1.094-.049.644.47 1.218 1.137 1.265 1.647.117 2.758.601 3.594 1.485v.004c.852.9 1.243 1.927 1.21 3.332v.008c-.014.646.526 1.193 1.196 1.207h.031c.66 0 1.208-.522 1.223-1.16.045-1.931-.58-3.653-1.848-4.989-1.276-1.342-3.08-2.093-5.23-2.246z" fill="#F9F5D7"/>
    <path d="M24.973 4C15.57 4 8 11.924 8 21.766v1C8 12.924 15.57 5 24.973 5h14.054C48.43 5 56 12.924 56 22.766v-1C56 11.924 48.43 4 39.027 4H24.973z" fill="#F9F5D7" opacity=".1"/>
</svg>
