<svg xmlns="http://www.w3.org/2000/svg" width="64" height="64">
    <rect width="56" height="56" x="4" y="4" rx="28" ry="28" fill="#3A393A"/>
    <path d="M32 13.003a20 20.004 0 0 0-20 20.005A20 20.004 0 0 0 24.968 51.71c-.01-.285-.01-.65-.03-.863-.058-.663.102-3.625.247-4.526.05-.311.23-.925.402-1.362.341-.866.725-2.165.863-2.93.048-.267.17-.778.273-1.136.158-.547.176-.785.123-1.512-.048-.665-.029-.96.079-1.292.182-.567.174-.763-.04-1.271-.11-.264-.177-.644-.18-1.007l-.006-.583-.171.222c-.094.122-.235.473-.312.779-.343 1.341-.869 2.121-2.392 3.561-.551.52-1.036 1.04-1.079 1.154-.594 1.582-.65 1.809-.604 2.417.026.335.075.701.108.814.083.277-.192.392-.414.174-.093-.088-.228-.128-.313-.096-.12.052-.14.158-.105.547.052.582.08.622.46.61.247 0 .311.034.393.27.055.159.064.283.018.283-.045 0-.084.126-.084.292 0 .28-.014.291-.396.291-.345 0-.405.028-.43.216-.019.138-.1.231-.228.25-.266.041-.995-.744-1.278-1.374-.284-.635-.23-1.613.15-2.834.151-.481.322-1.138.382-1.458.144-.758.314-1.1.58-1.172.165-.042.319-.288.661-1.046.246-.543.541-1.272.655-1.62.247-.752.517-1.2 1.238-2.059.296-.352.587-.806.65-1.012.061-.21.299-.813.525-1.347l.412-.97.057-1.75c.032-.962.103-1.905.16-2.095.055-.188.324-.635.597-.991.294-.384.496-.745.496-.881 0-.274.42-.93.742-1.157.126-.088.346-.19.487-.226.506-.122.574-.16.667-.345.075-.154.035-.314-.19-.79-.155-.331-.337-.69-.405-.794-.109-.168-.103-.207.054-.325.098-.076.43-.194.74-.258.524-.118.563-.138.588-.406.024-.257-.029-.32-.54-.643-1.18-.746-1.605-1.231-1.6-1.821.007-.665.361-1.042 1.377-1.467.516-.216.652-.315.676-.496.017-.122.066-.268.111-.319.045-.054.084-.275.084-.495 0-.665.192-1.538.394-1.78.374-.449.67-.545 1.631-.54.756 0 .963.037 1.29.22.44.246.526.422.826 1.664.11.454.272.897.363.983.091.086.19.264.22.394.041.176.189.291.595.466 1.05.45 1.612 1.244 1.418 2.001-.168.658-1.028 1.404-1.617 1.404-.095 0-.17.068-.17.146 0 .078.055.144.122.144.087 0 .138.206.178.718.03.396.103.835.162.974.102.242.135.25.88.249.66 0 .877.042 1.49.31.397.172.754.367.794.439.04.074.263.234.496.363.589.326 1.432 1.297 2.076 2.387.3.507.63 1.026.73 1.15.1.123.18.292.18.373 0 .082.094.285.205.454.111.17.208.469.216.67.019.475.373 1.275 1.268 2.862.556.986.739 1.4.787 1.782.035.274.089 1.65.12 3.056.056 2.46.068 2.567.26 2.786.198.23.197.229.116 2.61-.044 1.309-.12 2.496-.171 2.638a.904.904 0 0 1-.36.409c-.148.082-.29.229-.32.327-.028.098-.297.305-.597.46-.3.157-.566.315-.589.355-.023.04.13.434.337.878.213.458.469.833.796 1.235a20 20.004 0 0 0 8.647-16.445A20 20.004 0 0 0 32 13zm5.393 18.974c-.036 0-.057.228-.045.508.018.413-.022.574-.204.844-.124.185-.412.73-.64 1.215l-.415.88 1.713 3.643c1.89 4.014 2.075 4.37 2.265 4.37.072 0 .288-.25.481-.556h.003c.194-.307.494-.746.67-.974.22-.283.357-.59.433-.971.061-.307.139-.602.174-.655.223-.335.18-.733-.195-1.764-.43-1.183-.606-2.082-.613-3.108l-.006-.697-.637-.274c-.507-.22-.798-.438-1.43-1.076-.437-.44-.857-.802-.935-.802-.077 0-.187-.098-.246-.216-.108-.222-.252-.36-.373-.363zm-.246 9.209c-.127-.104-.109.28-.093 1.033.017.854.3 2.213.474 2.276.061.022.213.154.34.291l.231.25.117 3.78c.05 1.62.106 2.504.154 3.13a20 20.004 0 0 0 4.05-1.885c-1.098-.632-2.093-1.893-2.828-3.673-.24-.582-.91-2.065-1.484-3.294-.565-1.207-.834-1.803-.961-1.908zm4.224 2.617c-.06-.026-.115-.022-.189.028-.407.236-.396.488.063 1.542.286.657.456.943.505.86.04-.072.071-.526.072-1.016.001-.817-.015-.914-.228-1.187-.097-.124-.163-.196-.223-.226zm-10.396 4.881c-.09 0-.13.11-.13.364 0 .359-.28 2.058-.456 2.768-.027.108-.12.69-.19 1.106a20 20.004 0 0 0 1.543.078c-.004-.656-.202-1.828-.4-2.335-.101-.26-.14-.593-.123-1.058.026-.714-.029-.923-.243-.923z" opacity=".2"/>
    <path d="M32 12.003a20 20.004 0 0 0-20 20.005A20 20.004 0 0 0 24.968 50.71c-.01-.285-.01-.65-.03-.863-.058-.663.102-3.625.247-4.526.05-.311.23-.925.402-1.362.341-.866.725-2.165.863-2.93.048-.267.17-.778.273-1.136.158-.547.176-.785.123-1.512-.048-.665-.029-.96.079-1.292.182-.567.174-.763-.04-1.271-.11-.264-.177-.644-.18-1.007l-.006-.583-.171.222c-.094.122-.235.473-.312.779-.343 1.341-.869 2.121-2.392 3.561-.551.52-1.036 1.04-1.079 1.154-.594 1.582-.65 1.809-.604 2.417.026.335.075.701.108.814.083.277-.192.392-.414.174-.093-.088-.228-.128-.313-.096-.12.052-.14.158-.105.547.052.582.08.622.46.61.247 0 .311.034.393.27.055.159.064.283.018.283-.045 0-.084.126-.084.292 0 .28-.014.291-.396.291-.345 0-.405.028-.43.216-.019.138-.1.231-.228.25-.266.041-.995-.744-1.278-1.374-.284-.635-.23-1.613.15-2.834.151-.481.322-1.138.382-1.458.144-.758.314-1.1.58-1.172.165-.042.319-.288.661-1.046.246-.543.541-1.272.655-1.62.247-.752.517-1.2 1.238-2.059.296-.352.587-.806.65-1.012.061-.21.299-.813.525-1.347l.412-.97.057-1.75c.032-.962.103-1.905.16-2.095.055-.188.324-.635.597-.991.294-.384.496-.745.496-.881 0-.274.42-.93.742-1.157.126-.088.346-.19.487-.226.506-.122.574-.16.667-.345.075-.154.035-.314-.19-.79-.155-.331-.337-.69-.405-.794-.109-.168-.103-.207.054-.325.098-.076.43-.194.74-.258.524-.118.563-.138.588-.406.024-.257-.029-.32-.54-.643-1.18-.746-1.605-1.231-1.6-1.821.007-.665.361-1.042 1.377-1.467.516-.216.652-.315.676-.496.017-.122.066-.268.111-.319.045-.054.084-.275.084-.495 0-.665.192-1.538.394-1.78.374-.449.67-.545 1.631-.54.756 0 .963.037 1.29.22.44.246.526.422.826 1.664.11.454.272.897.363.983.091.086.19.264.22.394.041.176.189.291.595.466 1.05.45 1.612 1.244 1.418 2.001-.168.658-1.028 1.404-1.617 1.404-.095 0-.17.068-.17.146 0 .078.055.144.122.144.087 0 .138.206.178.718.03.396.103.835.162.974.102.242.135.25.88.249.66 0 .877.042 1.49.31.397.172.754.367.794.439.04.074.263.234.496.363.589.326 1.432 1.297 2.076 2.387.3.507.63 1.026.73 1.15.1.123.18.292.18.373 0 .082.094.285.205.454.111.17.208.469.216.67.019.475.373 1.275 1.268 2.862.556.986.739 1.4.787 1.782.035.274.089 1.65.12 3.056.056 2.46.068 2.567.26 2.786.198.23.197.229.116 2.61-.044 1.309-.12 2.496-.171 2.638a.904.904 0 0 1-.36.409c-.148.082-.29.229-.32.327-.028.098-.297.305-.597.46-.3.157-.566.315-.589.355-.023.04.13.434.337.878.213.458.469.833.796 1.235a20 20.004 0 0 0 8.647-16.445A20 20.004 0 0 0 32 12zm5.393 18.974c-.036 0-.057.228-.045.508.018.413-.022.574-.204.844-.124.185-.412.73-.64 1.215l-.415.88 1.713 3.643c1.89 4.014 2.075 4.37 2.265 4.37.072 0 .288-.25.481-.556h.003c.194-.307.494-.746.67-.974.22-.283.357-.59.433-.971.061-.307.139-.602.174-.655.223-.335.18-.733-.195-1.764-.43-1.183-.606-2.082-.613-3.108l-.006-.697-.637-.274c-.507-.22-.798-.438-1.43-1.076-.437-.44-.857-.802-.935-.802-.077 0-.187-.098-.246-.216-.108-.222-.252-.36-.373-.363zm-.246 9.209c-.127-.104-.109.28-.093 1.033.017.854.3 2.213.474 2.276.061.022.213.154.34.291l.231.25.117 3.78c.05 1.62.106 2.504.154 3.13a20 20.004 0 0 0 4.05-1.885c-1.098-.632-2.093-1.893-2.828-3.673-.24-.582-.91-2.065-1.484-3.294-.565-1.207-.834-1.803-.961-1.908zm4.224 2.617c-.06-.026-.115-.022-.189.028-.407.236-.396.488.063 1.542.286.657.456.943.505.86.04-.072.071-.526.072-1.016.001-.817-.015-.914-.228-1.187-.097-.124-.163-.196-.223-.226zm-10.396 4.881c-.09 0-.13.11-.13.364 0 .359-.28 2.058-.456 2.768-.027.108-.12.69-.19 1.106a20 20.004 0 0 0 1.542.078c-.004-.656-.202-1.828-.4-2.335-.102-.26-.14-.594-.124-1.058.028-.714-.028-.924-.242-.924z" fill="#F9F5D7"/>
    <path d="M32 4C16.488 4 4 16.494 4 32.014c0 .114.011.224.018.336C4.369 17.14 16.71 5 32 5c15.29 0 27.63 12.14 27.982 27.35.007-.112.018-.222.018-.336C60 16.494 47.512 4 32 4z" opacity=".1" fill="#F9F5D7"/>
    <path d="M4.018 32.664C4.01 32.776 4 32.886 4 33c0 15.512 12.488 28 28 28s28-12.488 28-28c0-.114-.011-.224-.018-.336C59.631 47.866 47.29 60 32 60 16.71 60 4.37 47.866 4.018 32.664z" opacity=".2"/>
</svg>
