<svg xmlns="http://www.w3.org/2000/svg" width="64" height="64" version="1">
    <path d="M13.801 38a2.8 2.8 0 0 0-2.583 1.72l-7 16.407C3.45 57.97 4.804 60 6.802 60h50.396c1.998 0 3.352-2.03 2.584-3.873l-7-16.406A2.8 2.8 0 0 0 50.198 38z" fill="#FD8019" fill-rule="evenodd"/>
    <path d="M13.797 38c-1.13 0-2.147.68-2.582 1.72l-7 16.398a2.75 2.75 0 0 0-.168 1.572c.035-.19.089-.383.168-.572l7-16.397A2.798 2.798 0 0 1 13.797 39h36.404c1.13 0 2.147.68 2.582 1.72l7 16.398c.081.193.134.388.169.582a2.75 2.75 0 0 0-.168-1.582l-7-16.397A2.799 2.799 0 0 0 50.2 38H13.797z" opacity=".2" fill="#F9F5D7" fill-rule="evenodd"/>
    <path d="M32.002 4.001a9.958 9.958 0 0 0-3.85.716 2.8 2.8 0 0 0-1.64 1.805l-2.576 8.707c4.074 8.76 12.263 2.87 16.12 0l-2.575-8.707a2.8 2.8 0 0 0-1.774-1.854 11.791 11.791 0 0 0-3.705-.667zM20.624 26.429L17.517 36.93c1.006 8.913 16.66 7.051 28.856-.357L43.372 26.43c-7.7 3.063-10.822-5.87-22.748 0z" fill="#FD8019" fill-rule="evenodd"/>
    <path d="M4.044 57.72c-.3 1.659.948 3.28 2.734 3.28h50.444c1.786 0 3.033-1.62 2.733-3.28-.236 1.254-1.313 2.282-2.733 2.282H6.778c-1.42 0-2.497-1.028-2.734-2.282z" opacity=".2" fill-rule="evenodd"/>
    <path d="M23.937 15.4l-6.42 21.58 3.108-10.442c8.575 3.83 15.049 3.046 22.75 0l3 10.088c-12.186 7.342-25.841 2.112-28.857.354l-2.203 7.4a2.778 2.778 0 0 0 1.083 3.073c4.315 2.993 9.92 4.198 15.498 4.145 5.578-.053 11.174-1.372 15.569-4.055a2.778 2.778 0 0 0 1.22-3.163L40.06 15.4c-3.86 2.785-12.262 2.785-16.123 0z" fill="#F9F5D7" fill-rule="evenodd"/>
    <path d="M31.768 4c-2.972 0-4.948.903-4.948 2.096 0 .16.052.325.145.488C27.45 5.656 29.242 5 31.768 5c2.508 0 4.773.82 5.425 1.793.129-.16.207-.311.207-.451C37.4 5.149 34.74 4 31.768 4z" opacity=".2" fill="#F9F5D7"/>
</svg>
