<svg xmlns="http://www.w3.org/2000/svg" width="64" height="64" version="1">
    <path d="M32.156 4.002a6.595 6.367 0 0 0-3.454.85L9.297 15.667A6.595 6.367 0 0 0 6 21.182v21.633a6.595 6.367 0 0 0 3.297 5.514l19.405 10.817a6.595 6.367 0 0 0 6.595 0L54.702 48.33A6.595 6.367 0 0 0 58 42.813V21.18a6.595 6.367 0 0 0-3.298-5.514L35.298 4.849A6.595 6.367 0 0 0 32.156 4z" fill="#504945"/>
    <path d="M39.579 17c-3.004 0-5.71 1.531-7.604 3.857-1.894-2.326-4.6-3.857-7.603-3.857C18.643 17 14 22.292 14 28.82c0 1.753.272 3.44.748 5.053 0 0 .432 1.454.814 2.254C19.934 46.363 31.975 53 31.975 53s12.04-6.637 16.412-16.873c4.371-10.235.564-1.363.814-2.254.455-1.62.748-3.3.748-5.054C49.95 22.292 45.306 17 39.578 17z" opacity=".2"/>
    <path d="M39.579 16c-3.004 0-5.71 1.53-7.604 3.857C30.081 17.53 27.375 16 24.372 16 18.643 16 14 21.29 14 27.819c0 1.754.272 3.441.748 5.053 0 0 .432 1.454.814 2.255C19.934 45.362 31.975 52 31.975 52s12.04-6.638 16.412-16.873c4.371-10.235.564-1.364.814-2.255.455-1.62.748-3.3.748-5.053 0-6.528-4.643-11.82-10.371-11.82z" fill="#C77089"/>
    <path d="M32.156 4.002a6.595 6.372 0 0 0-3.453.852L9.297 15.678A6.595 6.372 0 0 0 6 21.198v1.001a6.595 6.372 0 0 1 3.297-5.521L28.703 5.854a6.595 6.372 0 0 1 3.453-.852 6.595 6.372 0 0 1 3.14.852l19.407 10.824A6.595 6.372 0 0 1 58 22.199v-1.002a6.595 6.372 0 0 0-3.297-5.52L35.297 4.855a6.595 6.372 0 0 0-3.14-.852z" opacity=".1" fill="#F9F5D7"/>
    <path d="M6 41.8a6.595 6.372 0 0 0 .002.075v-.074H6zm.002 1v1a6.595 6.372 0 0 0 3.297 5.518l19.406 10.829a6.595 6.372 0 0 0 6.594 0l19.404-10.829A6.595 6.372 0 0 0 58 43.801v-1a6.595 6.372 0 0 1-3.297 5.517L35.3 59.147a6.595 6.372 0 0 1-6.594 0L9.3 48.318a6.595 6.372 0 0 1-3.297-5.517z" opacity=".2"/>
</svg>
