<svg xmlns="http://www.w3.org/2000/svg" width="64" height="64">
    <rect width="56" height="56" x="4" y="5" rx="2.8" ry="2.8" opacity=".2"/>
    <rect width="56" height="56" x="4" y="4" rx="2.8" ry="2.8" fill="#F9F5D7"/>
    <path d="M21 52l16-16" fill="none" opacity=".2" stroke-linecap="round" stroke-width="6" stroke="#151819"/>
    <path d="M21 51l16-16" fill="none" stroke-linecap="round" stroke-width="6" stroke="#3A393A"/>
    <path d="M51 36L35 52" fill="none" opacity=".2" stroke-linecap="round" stroke-width="6" stroke="#151819"/>
    <path d="M51 35L35 51" fill="none" stroke-linecap="round" stroke-width="6" stroke="#3A393A"/>
    <path d="M6.8 4C5.25 4 4 5.25 4 6.8v1C4 6.25 5.25 5 6.8 5h50.4C58.75 5 60 6.25 60 7.8v-1C60 5.25 58.75 4 57.2 4H6.8z" fill="#F9F5D7" opacity=".2"/>
</svg>
