<svg xmlns="http://www.w3.org/2000/svg" width="64" height="64" version="1">
    <rect width="56" height="56" x="4" y="4" rx="3" ry="3" fill="#504945"/>
    <path d="M11.43 35h17.142c.79 0 1.428.638 1.428 1.428V53.57c0 .792-.638 1.43-1.428 1.43H11.429A1.426 1.426 0 0 1 10 53.572V36.43c0-.79.637-1.428 1.429-1.428z" opacity=".2"/>
    <g opacity=".2">
        <path d="M11.43 11H28.57c.79 0 1.428.638 1.428 1.43v17.142c0 .79-.638 1.428-1.428 1.428H11.43A1.426 1.426 0 0 1 10 29.572V12.429c0-.792.637-1.429 1.429-1.429zM35.428 11H52.57c.792 0 1.43.638 1.43 1.43v17.142c0 .79-.638 1.428-1.428 1.428H35.43c-.792 0-1.43-.638-1.43-1.428V12.429c0-.791.637-1.428 1.428-1.428z"/>
    </g>
    <path d="M7 4C5.338 4 4 5.338 4 7v1c0-1.662 1.338-3 3-3h50c1.662 0 3 1.338 3 3V7c0-1.662-1.338-3-3-3H7z" opacity=".1" fill="#F9F5D7"/>
    <g fill="#48B9C7">
        <path d="M11.43 10H28.57c.79 0 1.428.638 1.428 1.43v17.142c0 .79-.638 1.428-1.428 1.428H11.43A1.426 1.426 0 0 1 10 28.572V11.429c0-.792.637-1.429 1.429-1.429zM35.428 10H52.57c.792 0 1.43.638 1.43 1.43v17.142c0 .79-.638 1.428-1.428 1.428H35.43c-.792 0-1.43-.638-1.43-1.428V11.429c0-.791.637-1.428 1.428-1.428z"/>
    </g>
    <path d="M11.43 34h17.142c.79 0 1.428.638 1.428 1.428V52.57c0 .792-.638 1.43-1.428 1.43H11.429A1.426 1.426 0 0 1 10 52.572V35.43c0-.79.637-1.428 1.429-1.428z" fill="#48B9C7"/>
    <path d="M4 57v1c0 1.662 1.338 3 3 3h50c1.662 0 3-1.338 3-3v-1c0 1.662-1.338 3-3 3H7c-1.662 0-3-1.338-3-3z" opacity=".2"/>
    <circle cx="46" cy="46" r="16" fill="#FA4934"/>
    <path d="M43.027 53.748c0-.416.06-.766.179-1.054.12-.286.284-.518.497-.694.211-.177.461-.305.748-.385a3.453 3.453 0 0 1 1.801 0c.278.08.523.208.735.385.212.176.379.408.503.694.124.288.185.638.185 1.054 0 .397-.061.738-.185 1.02a1.98 1.98 0 0 1-.503.703 1.99 1.99 0 0 1-.735.403 3.043 3.043 0 0 1-.881.126c-.327 0-.633-.042-.92-.126a1.967 1.967 0 0 1-.748-.403 1.898 1.898 0 0 1-.497-.703c-.118-.282-.178-.622-.178-1.02m.437-4.53v-.98c0-.45.046-.858.14-1.224.092-.367.233-.715.423-1.047.19-.33.435-.653.734-.967.301-.313.663-.638 1.087-.973.371-.291.684-.552.94-.782.257-.229.463-.457.623-.683.158-.224.274-.46.344-.707.07-.248.107-.535.107-.86 0-.504-.171-.92-.51-1.246-.34-.327-.86-.49-1.557-.49-.609 0-1.265.127-1.967.383-.701.257-1.428.57-2.179.94l-1.35-2.926a13.841 13.841 0 0 1 2.628-1.159c.482-.154.97-.276 1.464-.364.495-.089.98-.133 1.457-.133.9 0 1.713.109 2.436.325.725.216 1.339.531 1.842.946.504.415.89.92 1.159 1.511.27.592.404 1.267.404 2.026 0 .556-.063 1.053-.185 1.49a4.486 4.486 0 0 1-.549 1.219 6.054 6.054 0 0 1-.915 1.086 19.72 19.72 0 0 1-1.278 1.106c-.37.29-.674.545-.908.762a3.722 3.722 0 0 0-.549.615 1.81 1.81 0 0 0-.272.603 3.264 3.264 0 0 0-.073.734v.795h-3.496z" fill="#F9F5D7"/>
    <path d="M30.025 46.502A16 16 0 0 0 30 47a16 16 0 0 0 16 16 16 16 0 0 0 16-16 16 16 0 0 0-.018-.492A16 16 0 0 1 46 62a16 16 0 0 1-15.975-15.498z" opacity=".2"/>
</svg>
