<svg xmlns="http://www.w3.org/2000/svg" width="64" height="64" version="1">
    <rect width="58" height="58" x="-62" y="-61" rx="2.9" ry="2.9" transform="matrix(0 -1 -1 0 0 0)" opacity=".2"/>
    <rect width="58" height="58" x="-61" y="-61" rx="2.9" ry="2.9" transform="matrix(0 -1 -1 0 0 0)" fill="#066678"/>
    <rect width="19.5" height="6" x="29.5" y="29" rx="3" ry="3" opacity=".4" fill="#F9F5D7"/>
    <rect width="33" height="6" x="16" y="41" rx="3" ry="3" opacity=".4" fill="#F9F5D7"/>
    <rect width="33" height="6" x="16" y="17" rx="3" ry="3" opacity=".4" fill="#F9F5D7"/>
    <circle cx="21" cy="21" r="6" opacity=".2"/>
    <circle cx="21" cy="20" r="6" fill="#F9F5D7"/>
    <circle cx="21" cy="45" r="6" opacity=".2"/>
    <circle cx="21" cy="44" r="6" fill="#F9F5D7"/>
    <circle cx="30" cy="33" r="6" opacity=".2"/>
    <circle cx="30" cy="32" r="6" fill="#F9F5D7"/>
    <path d="M5.898 3A2.891 2.891 0 0 0 3 5.898v1A2.891 2.891 0 0 1 5.898 4h52.204A2.891 2.891 0 0 1 61 6.898v-1A2.891 2.891 0 0 0 58.102 3H5.898z" opacity=".1" fill="#F9F5D7"/>
</svg>
