<svg xmlns="http://www.w3.org/2000/svg" width="64" height="64">
    <path d="M7.103 12a4.999 4.997 0 0 0 4.99 6.003h27.935s2.163.07 4.064.862c1.66.692 2.643 1.037 2.867 3.102a9.56 9.56 0 0 0 .046-1.009c0-2.989-1.012-3.327-2.913-4.118-1.9-.792-4.064-.863-4.064-.863H12.092A4.999 4.997 0 0 1 7.102 12zm49.85 9.967c-.453 6.423-5.13 10.71-9.015 12.326-4.086 1.703-7.91 1.633-7.91 1.633H17.09v2.024h22.938s3.825.07 7.91-1.63C52.023 34.618 57 29.968 57 22.982c0-.344-.024-.682-.046-1.016zM7.096 50.877v2.026a4.999 4.997 0 1 0 9.995 0v-2.026a4.999 4.997 0 1 1-9.995 0z" opacity=".2" fill-rule="evenodd"/>
    <path d="M12.072 51.929V31.965h27.95S52 31.965 52 21.983 40.022 12 40.022 12h-27.95" fill="none" stroke="#D55C0D" stroke-width="10" stroke-linecap="round" stroke-linejoin="round"/>
    <path d="M12.09 7a4.999 5.008 0 0 0-5.065 5.504A4.999 5.008 0 0 1 12.089 8h27.937s3.825-.07 7.911 1.635c3.982 1.663 8.8 6.145 9.04 12.854.008-.16.023-.318.023-.482 0-7-4.979-11.665-9.063-13.37C43.851 6.93 40.027 7 40.027 7H12.088zm34.868 16.012c-.22 2.081-1.204 2.424-2.867 3.119-1.901.793-4.065.862-4.065.862H12.09a4.999 5.008 0 0 0-4.998 5.008V33a4.999 5.008 0 0 1 4.998-5.007h27.937s2.164-.07 4.065-.863c1.663-.695 2.648-1.037 2.867-3.118.014.143.016.32.024.48.008-.17.023-.318.023-.508 0-.362-.019-.681-.047-.972z" opacity=".2" fill="#F9F5D7" fill-rule="evenodd"/>
</svg>
