<svg xmlns="http://www.w3.org/2000/svg" width="64" height="64" version="1">
    <ellipse cx="20.378" cy="42.541" rx="30.63" ry="12.561" transform="matrix(.97235 -.23352 .28643 .9581 0 0)" opacity=".2"/>
    <path d="M30 13c-14 0-10.744 12.342-17.912 16.194C4.816 33.32 8.823 37.014 10 41c1.986 6.647 7.55 1.95 24-2s19.986-3.353 18-10c-1.191-3.942 2.718-7.596-5.782-7.944C39.308 21.435 40 13 30 13z" fill="#504945"/>
    <ellipse cx="20.665" cy="41.567" rx="30.63" ry="12.561" transform="matrix(.97235 -.23352 .28643 .9581 0 0)" fill="#8F3F71"/>
    <ellipse cx="23.53" cy="51.677" rx="14.326" ry="6.305" transform="matrix(.97263 -.23237 .21506 .9766 0 0)" opacity=".2"/>
    <ellipse cx="23.745" cy="50.704" rx="14.326" ry="6.305" transform="matrix(.97263 -.23237 .21506 .9766 0 0)" fill="#F9F5D7"/>
    <path d="M43.121 21.008a12.539 30.64 77.129 0 0-14.719 1.957A12.539 30.64 77.129 0 0 2.076 41.004a12.539 30.64 77.129 0 1 26.326-17.04 12.539 30.64 77.129 0 1 14.72-1.956 12.539 30.64 77.129 0 1 18.663 6.84 12.539 30.64 77.129 0 1 .156.955 12.539 30.64 77.129 0 0-.156-1.955 12.539 30.64 77.129 0 0-18.664-6.84z" opacity=".1" fill="#F9F5D7"/>
    <path d="M30 13c-14 0-10.744 12.34-17.912 16.193-3.615 2.051-4.441 3.996-4.215 5.922.157-1.6 1.224-3.225 4.215-4.922C19.256 26.341 16 14 30 14c10 0 9.308 8.435 16.217 8.057 4.548.186 5.535 1.322 5.66 2.94.135-2.138-.224-3.718-5.66-3.94C39.307 21.435 40 13 30 13zm21.764 14.604c-.037.768-.012 1.575.236 2.396.245.821.404 1.53.467 2.152.09-.834-.078-1.851-.467-3.152a5.983 5.983 0 0 1-.236-1.396z" opacity=".1" fill="#F9F5D7"/>
</svg>
