<svg xmlns="http://www.w3.org/2000/svg" width="64" height="64" version="1">
    <rect width="56" height="56" x="4" y="5" rx="2.8" ry="2.8" opacity=".2"/>
    <rect width="56" height="56" x="4" y="4" rx="2.8" ry="2.8" fill="#48B9C7"/>
    <path d="M8 16v4h20L8.113 48H36v-4H16l19.887-28zm40.035 12c-3.018 0-5.538.877-7.347 2.672C38.882 32.462 38 34.985 38 38.008c0 3.015.88 5.53 2.684 7.328l.004.004c1.81 1.787 4.33 2.66 7.347 2.66 1.378 0 2.69-.175 3.926-.527h.008c1.207-.353 2.51-.862 3.593-1.598l.438-.297V36h-8v4h3.992v3.5c-.327.14-.638.297-1.031.383-.482.099-1.906.187-2.719.187-2.036 0-3.977-.625-4.765-1.46-.902-.965-1.477-2.444-1.477-4.602.14-4.254 2.707-5.937 6.242-6.078C50 32 56 32 56 32v-4z" fill="#322F2E"/>
    <path d="M6.8 4C5.25 4 4 5.25 4 6.8v1C4 6.25 5.25 5 6.8 5h50.4C58.75 5 60 6.25 60 7.8v-1C60 5.25 58.75 4 57.2 4H6.8z" opacity=".2" fill="#F9F5D7"/>
</svg>
