<svg xmlns="http://www.w3.org/2000/svg" width="32" height="32">
    <g fill="none" stroke="#7B6F64" stroke-width="1.535" stroke-linecap="round" stroke-linejoin="round">
        <path d="M6.5 2.5l-1 1v26l1 1h20l.999-1v-19l-8-8z" stroke-width="1.00006785"/>
        <path d="M19.5 2.5l8 8H20.5l-1-1z" stroke-width="1.00006785"/>
    </g>
    <g transform="scale(1 1) translate(5.5 8)" id="g2522">     <path d="M2.75 2.75v11h4.125V4.125H11v2.75h4.125V2.75zm1.375 1.375H5.5V5.5H4.125zm8.25 0h1.375V5.5h-1.375zm-8.25 2.75H5.5v2.75H4.125zM8.25 8.25v8.25L11 19.25V16.5h8.25V8.25zm1.375 1.375h8.25v5.5h-8.25zM4.125 11H5.5v1.375H4.125zm0 0" fill="#7B6F64"/>
    </g>
</svg>
