<svg xmlns="http://www.w3.org/2000/svg" width="32" height="32">
    <g fill="none" stroke="#7B6F64" stroke-width="1.535" stroke-linecap="round" stroke-linejoin="round">
        <path d="M6.5 2.5l-1 1v26l1 1h20l.999-1v-19l-8-8z" stroke-width="1.00006785"/>
        <path d="M19.5 2.5l8 8H20.5l-1-1z" stroke-width="1.00006785"/>
    </g>
    <g transform="scale(1 1) translate(5.5 8)" id="g2522">     <path d="M2.75 2.75v1.375h16.5V2.75zM8.617 5.5l.028.668 4.714 6.207-5.109 6.113v.762h11v-3.816h-.785c0 .761.207 1.234-.465 1.691-.734.504-1.703.598-2.555.598h-4.05l3.93-5.348-3.93-6.113h2.308c1.64 0 3.969-.145 4.617 1.77.114.323.117.945.145 1.288h.785V5.5zM2.75 6.875V8.25h5.5V6.875zm0 2.75V11h6.875V9.625zm0 4.125v1.375h6.875V13.75zm0 2.75v1.375h5.5V16.5zm0 0" fill="#48B9C7"/>
    </g>
</svg>
