<svg xmlns="http://www.w3.org/2000/svg" width="32" height="32">
    <g fill="none" stroke="#7B6F64" stroke-width="1.535" stroke-linecap="round" stroke-linejoin="round">
        <path d="M6.5 2.5l-1 1v26l1 1h20l.999-1v-19l-8-8z" stroke-width="1.00006785"/>
        <path d="M19.5 2.5l8 8H20.5l-1-1z" stroke-width="1.00006785"/>
    </g>
    <g transform="scale(1 1) translate(5.5 8)" id="g2522">     <path d="M8.25 2.75c-.762 0-1.375.613-1.375 1.375V5.5h-2.75c-.762 0-1.375.613-1.375 1.375v11c0 .762.613 1.375 1.375 1.375h11c.762 0 1.375-.613 1.375-1.375V16.5h1.375c.762 0 1.375-.613 1.375-1.375v-11c0-.762-.613-1.375-1.375-1.375zm0 1.375h9.625v11H16.5v-8.25c0-.762-.613-1.375-1.375-1.375H9.66c-.848-.363-1.445-.79-1.41-1.375m-4.125 2.75h11v11h-11zM5.5 8.25V11h8.25V8.25zm0 4.125v1.375h8.25v-1.375zm0 2.75V16.5h8.25v-1.375zm0 0" fill="#7CB668"/>
    </g>
</svg>
