<svg xmlns="http://www.w3.org/2000/svg" width="32" height="32">
    <g fill="none" stroke="#7B6F64" stroke-width="1.535" stroke-linecap="round" stroke-linejoin="round">
        <path d="M6.5 2.5l-1 1v26l1 1h20l.999-1v-19l-8-8z" stroke-width="1.00006785"/>
        <path d="M19.5 2.5l8 8H20.5l-1-1z" stroke-width="1.00006785"/>
    </g>
    <g transform="scale(1 1) translate(5.5 8)" id="g2522">     <path d="M6.875 2.75v11.387A2.756 2.756 0 0 0 5.5 13.75a2.749 2.749 0 1 0 0 5.5c1.52 0 2.75-1.23 2.75-2.75V6.875h9.625v5.887a2.756 2.756 0 0 0-1.375-.387 2.749 2.749 0 1 0 0 5.5c1.52 0 2.75-1.23 2.75-2.75V2.75zM8.25 4.125h9.625V5.5H8.25zm0 0" fill="#F9BD2E"/>
    </g>
</svg>
