<svg xmlns="http://www.w3.org/2000/svg" width="32" height="32">
    <g fill="none" stroke="#7B6F64" stroke-width="1.535" stroke-linecap="round" stroke-linejoin="round">
        <path d="M6.5 2.5l-1 1v26l1 1h20l.999-1v-19l-8-8z" stroke-width="1.00006785"/>
        <path d="M19.5 2.5l8 8H20.5l-1-1z" stroke-width="1.00006785"/>
    </g>
    <g transform="scale(1 1) translate(5.5 8)" id="g2522">     <path d="M5.5 2.75v4.125h1.375v2.27a2.055 2.055 0 0 0-1.375 1.94c0 .872.55 1.65 1.375 1.942v2.098H5.5v4.125h4.125v-2.488c1.809 1.586 4.285 2.484 6.875 2.488v-1.375c-3.688-.004-6.926-2.04-7.934-4.992a2.063 2.063 0 0 0 1.059-1.797 2.06 2.06 0 0 0-1.098-1.82c.946-3.024 4.223-5.137 7.973-5.141V2.75c-2.586 0-5.066.89-6.875 2.477v-2.48zm1.375 1.375H8.25V5.5H6.875zm0 12.375H8.25v1.375H6.875zm0 0" fill="#7CB668"/>
    </g>
</svg>
