<svg xmlns="http://www.w3.org/2000/svg" width="32" height="32">
    <g fill="none" stroke="#7B6F64" stroke-width="1.535" stroke-linecap="round" stroke-linejoin="round">
        <path d="M6.5 2.5l-1 1v26l1 1h20l.999-1v-19l-8-8z" stroke-width="1.00006785"/>
        <path d="M19.5 2.5l8 8H20.5l-1-1z" stroke-width="1.00006785"/>
    </g>
    <g transform="scale(1 1) translate(5.5 8)" id="g2522">     <path d="M17.188 2.75a2.06 2.06 0 0 0-2.063 2.063 2.06 2.06 0 0 0 2.063 2.062 2.06 2.06 0 0 0 2.062-2.063 2.06 2.06 0 0 0-2.063-2.062m-6.875 1.375a7.564 7.564 0 0 0 0 15.125 7.564 7.564 0 0 0 7.563-7.563 7.542 7.542 0 0 0-1.766-4.843A2.744 2.744 0 0 1 13.75 11a2.749 2.749 0 1 1 1.45-5.082 7.569 7.569 0 0 0-4.887-1.793" fill="#066678"/>
    </g>
</svg>
