<svg xmlns="http://www.w3.org/2000/svg" width="32" height="32">
    <g fill="none" stroke="#7B6F64" stroke-width="1.535" stroke-linecap="round" stroke-linejoin="round">
        <path d="M6.5 2.5l-1 1v26l1 1h20l.999-1v-19l-8-8z" stroke-width="1.00006785"/>
        <path d="M19.5 2.5l8 8H20.5l-1-1z" stroke-width="1.00006785"/>
    </g>
    <g transform="scale(1 1) translate(5.5 8)" id="g2522">     <path d="M2.75 2.75v16.5h9.625v-1.375H8.25V13.75h4.125v-1.375H8.25V8.25h5.5V11h1.375V8.25h2.75V11h1.375V2.75zm1.375 1.375h13.75v2.75H4.125zm0 4.125h2.75v4.125h-2.75zm11.688 4.125c-1.145 0-2.063.879-2.063 1.965 0 1.05.855 1.894 1.941 1.953.079.36.121.727.121 1.094a5.16 5.16 0 0 1-.355 1.863c1.512-1.008 2.414-2.656 2.418-4.418v-.492c0-1.086-.918-1.965-2.063-1.965M4.126 13.75h2.75v4.125h-2.75zm0 0" fill="#7B6F64"/>
    </g>
</svg>
