<svg xmlns="http://www.w3.org/2000/svg" width="32" height="32">
    <g fill="none" stroke="#7B6F64" stroke-width="1.535" stroke-linecap="round" stroke-linejoin="round">
        <path d="M6.5 2.5l-1 1v26l1 1h20l.999-1v-19l-8-8z" stroke-width="1.00006785"/>
        <path d="M19.5 2.5l8 8H20.5l-1-1z" stroke-width="1.00006785"/>
    </g>
    <g transform="scale(1 1) translate(5.5 8)" id="g2522">     <path d="M8.938 2.75A3.428 3.428 0 0 0 5.5 6.188a3.428 3.428 0 0 0 3.438 3.437 3.428 3.428 0 0 0 3.437-3.438A3.428 3.428 0 0 0 8.937 2.75m0 1.375c1.145 0 2.063.918 2.063 2.063A2.056 2.056 0 0 1 8.937 8.25a2.056 2.056 0 0 1-2.062-2.063c0-1.144.918-2.062 2.063-2.062M16.5 5.5a2.744 2.744 0 0 0-2.75 2.75A2.744 2.744 0 0 0 16.5 11a2.744 2.744 0 0 0 2.75-2.75A2.744 2.744 0 0 0 16.5 5.5m0 1.375c.762 0 1.375.613 1.375 1.375s-.613 1.375-1.375 1.375a1.372 1.372 0 0 1-1.375-1.375c0-.762.613-1.375 1.375-1.375M8.937 11a6.177 6.177 0 0 0-6.187 6.188v2.062h12.375v-2.063A6.177 6.177 0 0 0 8.937 11m0 1.375a4.8 4.8 0 0 1 4.813 4.813v.687H4.125v-.688a4.8 4.8 0 0 1 4.813-4.812m7.562 0a4.08 4.08 0 0 0-2.078.578c.332.324.637.68.902 1.067a2.744 2.744 0 0 1 3.926 2.48h-2.89c.09.445.14.902.14 1.375h4.125V16.5a4.116 4.116 0 0 0-4.125-4.125" fill="#F9BD2E"/>
    </g>
</svg>
