<svg xmlns="http://www.w3.org/2000/svg" width="32" height="32">
    <g fill="none" stroke="#7B6F64" stroke-width="1.535" stroke-linecap="round" stroke-linejoin="round">
        <path d="M6.5 2.5l-1 1v26l1 1h20l.999-1v-19l-8-8z" stroke-width="1.00006785"/>
        <path d="M19.5 2.5l8 8H20.5l-1-1z" stroke-width="1.00006785"/>
    </g>
    <g transform="scale(1 1) translate(5.5 8)" id="g2522">     <path d="M11 2.75A8.247 8.247 0 0 0 2.75 11 8.247 8.247 0 0 0 11 19.25 8.247 8.247 0 0 0 19.25 11 8.247 8.247 0 0 0 11 2.75m0 1.375a6.875 6.875 0 1 1 0 13.75 6.875 6.875 0 0 1 0-13.75m0 2.75a4.126 4.126 0 0 0 0 8.25 4.126 4.126 0 0 0 3.297-1.652l-1.102-.825A2.744 2.744 0 0 1 11 13.75a2.749 2.749 0 1 1 0-5.5c.867 0 1.68.406 2.2 1.102l1.097-.825A4.126 4.126 0 0 0 11 6.875" fill="#7B6F64"/>
    </g>
</svg>
