<svg xmlns="http://www.w3.org/2000/svg" width="32" height="32">
    <g fill="none" stroke="#7B6F64" stroke-width="1.535" stroke-linecap="round" stroke-linejoin="round">
        <path d="M6.5 2.5l-1 1v26l1 1h20l.999-1v-19l-8-8z" stroke-width="1.00006785"/>
        <path d="M19.5 2.5l8 8H20.5l-1-1z" stroke-width="1.00006785"/>
    </g>
    <g transform="scale(1 1) translate(5.5 8)" id="g2522">     <path d="M2.75 2.75v16.5h16.5V2.75H16.5v1.375h-2.75V2.75h-5.5v1.375H5.5V2.75zm1.375 4.125h13.75v11H4.125zM5.5 8.25V11h2.75V8.25zm4.125 0V11h2.75V8.25zm4.125 0V11h2.75V8.25zm-4.125 4.125v2.75h2.75v-2.75zm4.125 0v2.75h2.75v-2.75zm0 0" fill="#7B6F64"/>
    </g>
</svg>
