<svg xmlns="http://www.w3.org/2000/svg" width="32" height="32">
    <g fill="none" stroke="#7B6F64" stroke-width="1.535" stroke-linecap="round" stroke-linejoin="round">
        <path d="M6.5 2.5l-1 1v26l1 1h20l.999-1v-19l-8-8z" stroke-width="1.00006785"/>
        <path d="M19.5 2.5l8 8H20.5l-1-1z" stroke-width="1.00006785"/>
    </g>
    <g transform="scale(1 1) translate(5.5 8)" id="g2522">     <path d="M11 2.75A8.247 8.247 0 0 0 2.75 11 8.247 8.247 0 0 0 11 19.25 8.247 8.247 0 0 0 19.25 11 8.247 8.247 0 0 0 11 2.75m0 1.375a6.875 6.875 0 1 1 0 13.75 6.875 6.875 0 0 1 0-13.75M11 5.5c-3.04 0-5.5 2.46-5.5 5.5h2.75c0-1.52 1.23-2.75 2.75-2.75zm0 4.125c-.758 0-1.375.617-1.375 1.375s.617 1.375 1.375 1.375 1.375-.617 1.375-1.375S11.758 9.625 11 9.625M13.75 11c0 1.52-1.23 2.75-2.75 2.75v2.75c3.04 0 5.5-2.46 5.5-5.5zm0 0" fill="#7CB668"/>
    </g>
</svg>
