<svg xmlns="http://www.w3.org/2000/svg" width="32" height="32">
    <g fill="none" stroke="#7B6F64" stroke-width="1.535" stroke-linecap="round" stroke-linejoin="round">
        <path d="M6.5 2.5l-1 1v26l1 1h20l.999-1v-19l-8-8z" stroke-width="1.00006785"/>
        <path d="M19.5 2.5l8 8H20.5l-1-1z" stroke-width="1.00006785"/>
    </g>
    <g transform="scale(1 1) translate(5.5 8)" id="g2522">     <path d="M2.75 2.75V5.5c7.594 0 13.75 6.156 13.75 13.75h2.75v-.086a16.4 16.4 0 0 0-.086-1.59c-.004-.027.004-.058 0-.086a16.805 16.805 0 0 0-.258-1.547c-.008-.027.004-.058 0-.086a16.07 16.07 0 0 0-1.636-4.468c-.004-.012.007-.035 0-.043A16.404 16.404 0 0 0 7.645 3.48a14.619 14.619 0 0 0-1.504-.386c-.028-.008-.059.004-.086 0a16.591 16.591 0 0 0-1.547-.262c-.028 0-.059.004-.086 0a17.82 17.82 0 0 0-1.59-.086h-.086m0 5.5v2.75a8.252 8.252 0 0 1 8.25 8.25h2.75c0-6.074-4.926-11-11-11m2.75 5.5a2.749 2.749 0 1 0 0 5.5 2.749 2.749 0 1 0 0-5.5" fill="#FD8019"/>
    </g>
</svg>
