<svg xmlns="http://www.w3.org/2000/svg" width="64" height="64" version="1">
    <path d="M22 37v2c0 1.662 1.338 3 3 3h32c1.662 0 3-1.338 3-3v-2c0 1.662-1.338 3-3 3H25c-1.662 0-3-1.338-3-3zM4 55v2c0 1.662 1.338 3 3 3h32c1.662 0 3-1.338 3-3v-2c0 1.662-1.338 3-3 3H7c-1.662 0-3-1.338-3-3z" opacity=".2"/>
    <rect width="38" height="38" x="4" y="-60" rx="3" ry="3" transform="rotate(90)" fill="#504945"/>
    <path d="M40 17v3h3v-3h-3zm6 0v3h3v-3h-3zm-1.252 5.078c-2.38 0-4.274.765-5.682 2.295-1.397 1.52-2.097 3.78-2.097 6.377 0 2.512.737 4.604 2.21 6.078 1.484 1.473 3.49 2.21 6.022 2.21 1.01 0 2.008-.104 2.99-.312.983-.208 1.874-.51 2.809-.906v-2.266c-.926.492-1.794.86-2.738 1.106-.935.245-1.903.369-2.905.369-1.728 0-3.08-.467-4.052-1.402-.964-.945-1.502-2.833-1.616-4.627h11.987V29.94c0-2.361-.625-4.425-1.871-5.795-1.238-1.379-2.922-2.068-5.057-2.068zm.027 2.209c1.285 0 2.316.425 3.09 1.275.784.85 1.184 2.004 1.203 3.43l-9.295.015c.133-1.492.633-2.666 1.502-3.488.879-.822 2.046-1.232 3.5-1.232z" opacity=".2"/>
    <path d="M40 16v3h3v-3h-3zm6 0v3h3v-3h-3zm-1.252 5.078c-2.38 0-4.274.765-5.682 2.295-1.397 1.52-2.097 3.78-2.097 6.377 0 2.513.737 4.605 2.21 6.078 1.484 1.474 3.49 2.211 6.022 2.211 1.01 0 2.008-.105 2.99-.312.983-.208 1.874-.51 2.809-.907v-2.265c-.926.49-1.794.86-2.738 1.105-.935.246-1.903.37-2.905.37-1.728 0-3.08-.468-4.052-1.403-.964-.945-1.502-2.832-1.616-4.627h11.987v-1.059c0-2.361-.625-4.425-1.871-5.795-1.238-1.379-2.922-2.068-5.057-2.068zm.027 2.21c1.285 0 2.316.424 3.09 1.275.784.85 1.184 2.003 1.203 3.43l-9.295.015c.133-1.493.633-2.667 1.502-3.488.879-.822 2.046-1.233 3.5-1.233z" fill="#F9F5D7"/>
    <rect width="38" height="38" x="21" y="-42" rx="3" ry="3" transform="rotate(90)" fill="#F9F5D7"/>
    <path d="M25 4c-1.662 0-3 1.338-3 3v1c0-1.662 1.338-3 3-3h32c1.662 0 3 1.338 3 3V7c0-1.662-1.338-3-3-3H25zM7 21c-1.662 0-3 1.338-3 3v1c0-1.662 1.338-3 3-3h32c1.662 0 3 1.338 3 3v-1c0-1.662-1.338-3-3-3H7z" opacity=".1" fill="#F9F5D7"/>
    <path d="M28.568 47.176c-2.2 0-3.724.245-4.573.734-.849.49-1.273 1.624-1.273 2.805 0 .94.316 1.69.947 2.246.642.547 1.51.82 2.605.82 1.51 0 2.718-.518 3.626-1.554.917-1.046 1.176-2.733 1.176-4.46v-.59h-2.508M34 46.081V56h-3v-2.866c-.62.98-1.12 1.704-2.045 2.174-.928.462-2.062.692-3.404.692-1.698 0-3.048-.46-4.056-1.382C20.499 53.686 20 52.444 20 50.89c0-1.814.622-3.481 1.865-4.403 1.253-.921 3.118-1.447 5.594-1.382h3.618v-.259c0-1.219-.415-1.86-1.244-2.522-2.542-1.5-6.347-1.186-8.834.017v-2.148c.996-.374 2.178-.653 3.115-.835.937-.192 1.85-.288 2.738-.288 2.397 0 4.188.605 5.372 1.814 1.184 1.21 1.776 2.743 1.776 5.2M24.827 32L29 37h-2.264L21.912 32h2.915" opacity=".2"/>
    <path d="M28.568 46.176c-2.2 0-3.724.245-4.573.735-.849.49-1.273 1.624-1.273 2.804 0 .941.316 1.69.947 2.246.642.548 1.51.821 2.605.821 1.51 0 2.718-.518 3.626-1.555.917-1.046 1.176-2.733 1.176-4.46v-.59h-2.508M34 45.083V55h-3v-2.866c-.62.98-1.12 1.704-2.045 2.174-.928.462-2.062.692-3.404.692-1.698 0-3.048-.46-4.056-1.382C20.499 52.686 20 51.444 20 49.89c0-1.814.621-3.481 1.865-4.402 1.253-.922 3.118-1.447 5.594-1.383h3.618v-.259c0-1.219-.415-1.86-1.244-2.522-2.542-1.5-6.347-1.186-8.834.017v-2.148c.996-.374 2.178-.652 3.115-.835.937-.192 1.85-.288 2.738-.288 2.397 0 4.188.605 5.372 1.814 1.184 1.21 1.776 2.743 1.776 5.2M24.827 31L29 36h-2.264l-4.824-5h2.915" fill="#3A393A"/>
</svg>
