<svg xmlns="http://www.w3.org/2000/svg" width="64" height="64" version="1">
    <circle cx="32" cy="33" r="28" opacity=".2"/>
    <circle cx="32" cy="32" r="28" fill="#73C48F"/>
    <path d="M32 4A28 28 0 0 0 4 32a28 28 0 0 0 .018.492A28 28 0 0 1 32 5a28 28 0 0 1 27.975 27.492A28 28 0 0 0 60 32 28 28 0 0 0 32 4z" opacity=".2" fill="#F9F5D7"/>
    <path d="M44 22l-30 9.602 11.105 4.617L29 37l.836 3.996L34.398 52zM23.863 40.027c0-.052-.35-.022-.648.055-1.138.297-2.79 1.518-3.676 2.719-1.005 1.362-1.541 2.96-1.539 4.586 0 .455.022.532.156.59.152.065 1.44-.015 1.961-.122 1.505-.307 2.784-1.008 3.93-2.156.72-.721 1.145-1.317 1.562-2.187.274-.57.463-1.264.368-1.36-.02-.018-.172.07-.336.2-1.242.795-2.234 1.372-3.641 1.648.365-1.384.754-2.44 1.48-3.434.21-.283.383-.525.383-.539z" opacity=".2"/>
    <path d="M44 20l-30 9.6 11.105 4.619L29 35l.836 3.994L34.4 50 44 20zM23.65 38.006c-.125.01-.286.037-.435.076-1.138.297-2.792 1.52-3.678 2.72-1.005 1.363-1.54 2.958-1.537 4.585 0 .455.02.532.154.59.152.065 1.44-.014 1.961-.12 1.505-.307 2.786-1.012 3.932-2.16.72-.721 1.147-1.316 1.564-2.187.274-.57.459-1.262.364-1.358-.02-.018-.17.07-.334.2-1.242.795-2.234 1.372-3.641 1.648.365-1.384.754-2.438 1.48-3.432.21-.283.383-.527.383-.54 0-.027-.088-.033-.213-.022z" fill="#F9F5D7"/>
    <path d="M14 29.6l11.105 4.618L29 35l15-15z" fill="#F9F5D7"/>
</svg>
