<svg xmlns="http://www.w3.org/2000/svg" width="64" height="64" version="1">
    <path d="M32.27 19.002c-4.674 0-11.57.286-13.637.353-2.247.2-3.076.316-4.302 1.361C12.444 22.374 12 25.631 12 30.62v4.745c0 5.687.757 8.58 2.02 9.636 1.442 1.234 2.397 1.33 3.352 1.477.372.054 3.016.522 14.724.522 7.299 0 13.57-.347 14.22-.425 1.046-.134 2.53-.322 3.677-1.574C51.67 43.105 52 39.958 52 35.394v-5.523c0-2.952-.161-7.12-2.007-8.87-1.4-1.18-1.91-1.508-4.8-1.654-.816-.036-7.941-.347-12.922-.347M28 27l10 5.999-10 6" opacity=".2"/>
    <rect width="56" height="56" x="4" y="4" rx="3" ry="3" fill="#CB241D"/>
    <path d="M7 4C5.338 4 4 5.338 4 7v1c0-1.662 1.338-3 3-3h50c1.662 0 3 1.338 3 3V7c0-1.662-1.338-3-3-3H7z" opacity=".1" fill="#F9F5D7"/>
    <path d="M4 57v1c0 1.662 1.338 3 3 3h50c1.662 0 3-1.338 3-3v-1c0 1.662-1.338 3-3 3H7c-1.662 0-3-1.338-3-3z" opacity=".2"/>
    <path d="M32.27 18.002c-4.674 0-11.57.286-13.637.353-2.247.2-3.076.316-4.302 1.361C12.444 21.374 12 24.631 12 29.62v4.745c0 5.687.757 8.58 2.02 9.636 1.442 1.234 2.397 1.33 3.352 1.477.372.054 3.016.522 14.724.522 7.299 0 13.57-.347 14.22-.424 1.046-.134 2.53-.322 3.677-1.575C51.67 42.105 52 38.96 52 34.395v-5.523c0-2.953-.161-7.121-2.007-8.871-1.4-1.18-1.91-1.507-4.8-1.654-.816-.035-7.941-.347-12.922-.347M28 26l10 6-10 6" fill="#F9F5D7"/>
    <path d="M63.958 45.894A15 15 0 0 1 49 60a15 15 0 0 1-14.958-13.894A15 15 0 0 0 34 47a15 15 0 0 0 15 15 15 15 0 0 0 15-15 15 15 0 0 0-.042-1.106z" opacity=".2"/>
    <circle cx="49" cy="46" r="15" fill="#48B9C7"/>
    <path d="M53 38l5 5h-2l-4.5 4.5c2.5 2.5 0 4 0 4l-3-3L43 54h-1v-1l5.5-5.5-3-3s1.5-2.5 4 0L53 40z" fill="#F9F5D7"/>
</svg>
