<svg xmlns="http://www.w3.org/2000/svg" width="64" height="64" version="1">
    <path d="M56 56.483V25.565l-3.91-3.939c-.96-.966-6.896-6.233-8.203-6.486L32.363 6.57l-13.007 8.968c-1.11.766-6.77 5.487-7.698 6.486L8 25.963v30.52C8 57.877 9.07 59 10.4 59h43.2c1.33 0 2.4-1.123 2.4-2.517z" opacity=".2"/>
    <path d="M56 55.483V24.565l-3.91-3.939c-.96-.966-6.896-6.233-8.203-6.486L32.363 5.57l-13.007 8.968c-1.11.766-6.77 5.487-7.698 6.486L8 24.963v30.52C8 56.877 9.07 58 10.4 58h43.2c1.33 0 2.4-1.123 2.4-2.517z" fill="#F9F5D7"/>
    <path opacity=".15" d="M8 24h48v3H8z"/>
    <rect width="8" height="14" x="10" y="6" rx="1.425" ry="1.531" fill="#504945"/>
    <rect width="14" height="22" x="13" y="32" rx="2.1" ry="2.062" fill="#7F7061"/>
    <path d="M37.542 32C35.604 32 34 33.604 34 35.542v9.916C34 47.396 35.604 49 37.542 49h9.916C49.396 49 51 47.396 51 45.458v-9.916C51 33.604 49.396 32 47.458 32h-9.916z" fill="#7F7061"/>
    <path d="M37.688 35c-.405 0-.688.283-.688.688v9.625c0 .404.283.687.688.687h9.624c.405 0 .688-.283.688-.687v-9.625c0-.405-.283-.688-.688-.688h-9.624z" fill="#48B9C7"/>
    <circle cx="23.5" cy="43.5" r="1.5" opacity=".2"/>
    <circle cx="23.5" cy="42.5" r="1.5" fill="#F9F5D7"/>
    <path d="M12.422 20.333c-.817.68-1.488 1.255-1.756 1.53L6.83 25.8v-1.363h5.593z" opacity=".05"/>
    <path d="M17 15.474c-1.388.952-4.05 2.91-6 4.421v4.106h6z" opacity=".15"/>
    <path d="M23 11.737l-5.224 3.201c-.14.086-.523.362-.776.536V24h6z" opacity=".05"/>
    <path d="M29 8.058l-6 3.68V24h6z" opacity=".15"/>
    <path d="M32.407 5.969L29 8.059V24h6V7.684z" opacity=".05"/>
    <path d="M35 7.684v16.317h6V11.65z" opacity=".15"/>
    <path d="M41 11.65V24h6v-8.644c-.707-.437-1.305-.758-1.627-.814z" opacity=".05"/>
    <path d="M47 15.356v8.645h6v-4.286c-1.702-1.35-4.24-3.27-6-4.359z" opacity=".15"/>
    <path d="M51.578 20.153v4.285h5.593v.967l-4.102-3.941a43.508 43.508 0 0 0-1.491-1.311z" opacity=".05"/>
    <path d="M32 5L7 25M32 5l25 20" fill="none" stroke="#665C54" stroke-width="6" stroke-linecap="round" stroke-linejoin="round"/>
    <path d="M11.426 6C10.636 6 10 6.683 10 7.531v1C10 7.683 10.636 7 11.426 7h5.148C17.364 7 18 7.683 18 8.531v-1C18 6.683 17.364 6 16.574 6h-5.148z" opacity=".1" fill="#F9F5D7"/>
    <path d="M31.934 1.975a3 3 0 0 0-2.19.988L5.127 22.658a3 3 0 0 0-1.11 2.867 3 3 0 0 1 1.11-1.867L29.744 3.963a3 3 0 0 1 2.19-.988 3 3 0 0 1 .027.002 3 3 0 0 1 .016-.002 3 3 0 0 1 2.28.988l24.616 19.695a3 3 0 0 1 1.11 1.87 3 3 0 0 0-1.11-2.87L34.258 2.963a3 3 0 0 0-2.281-.988 3 3 0 0 0-.016.002 3 3 0 0 0-.027-.002z" opacity=".1" fill="#F9F5D7" fill-rule="evenodd"/>
</svg>
