<svg xmlns="http://www.w3.org/2000/svg" width="64" height="64" version="1">
    <path d="M4 56v2c0 1.662 1.338 3 3 3h50c1.662 0 3-1.338 3-3v-2c0 1.662-1.338 3-3 3H7c-1.662 0-3-1.338-3-3z" opacity=".2"/>
    <rect width="56" height="56" x="4" y="4" rx="3" ry="3" fill="#066678"/>
    <path d="M7 4C5.338 4 4 5.338 4 7v1c0-1.662 1.338-3 3-3h50c1.662 0 3 1.338 3 3V7c0-1.662-1.338-3-3-3H7z" opacity=".1" fill="#F9F5D7"/>
    <path d="M31 15c-4.894 0-11 5.572-11 13.066C20 35.878 24.708 43 31.234 43c3.222 0 4.618-1.214 6.766-4-1.052 3.654-2.818 5.978-5.648 6.656-2.232.536-4.74-.692-6.352-2.656h-6c1.86 5.07 6.527 8 12.145 8 4.13 0 7.395-1.598 9.543-4.613 1.61-2.33 2.312-5.438 2.312-10.28V15.595h-6v3.199s-2.106-3.793-7-3.793zm.887 6C35.519 21 38 24.284 38 29.094 38 33.856 35.593 37 31.96 37 28.33 37 26 33.904 26 29.094 26 24.236 28.333 21 31.887 21z" opacity=".2"/>
    <path d="M31 14c-4.894 0-11 5.573-11 13.066C20 34.878 24.708 42 31.234 42c3.222 0 4.618-1.214 6.766-4-1.052 3.654-2.818 5.978-5.648 6.656-2.232.536-4.74-.692-6.352-2.656h-6c1.86 5.07 6.527 8 12.145 8 4.13 0 7.395-1.598 9.543-4.613 1.61-2.33 2.312-5.438 2.312-10.28V15h-6v2.794s-2.106-3.793-7-3.793zm.887 6C35.519 20 38 23.284 38 28.094 38 32.856 35.593 36 31.96 36 28.33 36 26 32.904 26 28.094 26 23.236 28.333 20 31.887 20z" fill="#F9F5D7"/>
</svg>
