<svg xmlns="http://www.w3.org/2000/svg" width="64" height="64" version="1">
    <path d="M26.4 4.999l-.23.134L19.4 8l1.4 7-6.445 2.948L11 15l-7 7 4 4.334v14.511-1.118 4.668S12 57 32 57s24-12.605 24-12.605v-4.668 1.118-14.511L60 22l-7-7-3.355 2.948L43.2 15l1.4-7-7-3.001L35.205 9H28.79z" opacity=".2"/>
    <path d="M26.4 3.999l-.23.134L19.4 7l1.4 7-6.445 2.948L11 14l-7 7 4 4.334v14.511-1.118 4.668S12 56 32 56s24-12.605 24-12.605v-4.668 1.118-14.511L60 21l-7-7-3.355 2.948L43.2 14l1.4-7-7-3.001L35.205 8H28.79z" fill="#066678"/>
    <path d="M18 25c3.314 0 6 2.686 6 6s-2.686 6-6 6-6-2.686-6-6 2.686-6 6-6z" opacity=".2"/>
    <path d="M18 24c3.314 0 6 2.686 6 6s-2.686 6-6 6-6-2.686-6-6 2.686-6 6-6z" fill="#F9F5D7"/>
    <path d="M21 30a3 3 0 1 1-6 0 3 3 0 1 1 6 0z" fill="#3A393A"/>
    <path d="M32 29c1.108 0 2 .892 2 2v4c0 1.108-.892 2-2 2s-2-.892-2-2v-4c0-1.108.892-2 2-2z" opacity=".2"/>
    <path d="M32 28c1.108 0 2 .892 2 2v4c0 1.108-.892 2-2 2s-2-.892-2-2v-4c0-1.108.892-2 2-2z" fill="#F9F5D7"/>
    <path d="M46 25c3.314 0 6 2.686 6 6s-2.686 6-6 6-6-2.686-6-6 2.686-6 6-6z" opacity=".2"/>
    <path d="M46 24c3.314 0 6 2.686 6 6s-2.686 6-6 6-6-2.686-6-6 2.686-6 6-6z" fill="#F9F5D7"/>
    <path d="M49 30a3 3 0 1 1-6 0 3 3 0 1 1 6 0z" fill="#3A393A"/>
    <path d="M56 42h-9v4H37v-4h-5M8 42h9v4h10v-4h5" opacity=".2" fill="none" stroke="#151819" stroke-width="2" stroke-linejoin="round"/>
    <path d="M56 41h-9v4H37v-4h-5M8 41h9v4h10v-4h5" fill="none" stroke="#F9F5D7" stroke-width="2" stroke-linejoin="round"/>
    <path d="M26.4 3.998l-.23.135L19.4 7l.184.922 6.586-2.79.23-.134L28.79 9h6.415L37.6 4.998l6.816 2.924L44.6 7l-7-3.002L35.205 8H28.79L26.4 3.998zM11 14l-7 7 .48.52L11 15l3.355 2.947L20.801 15l-.184-.916-6.262 2.863L11 14zm42 0l-3.355 2.947-6.262-2.863-.184.916 6.446 2.947L53 15l6.52 6.52L60 21l-7-7z" fill="#F9F5D7" opacity=".2"/>
</svg>
