<svg xmlns="http://www.w3.org/2000/svg" width="64" height="64">
    <path d="M21 8a5 5 0 0 0-5 5 5 5 0 0 0 5 5 5 5 0 0 0 5-5 5 5 0 0 0-5-5zm22 0a5 5 0 0 0-5 5 5 5 0 0 0 5 5 5 5 0 0 0 5-5 5 5 0 0 0-5-5zM9.5 25A6.5 9 0 0 0 3 34a6.5 9 0 0 0 6.5 9 6.5 9 0 0 0 6.5-9 6.5 9 0 0 0-6.5-9zm45 0a6.5 9 0 0 0-6.5 9 6.5 9 0 0 0 6.5 9 6.5 9 0 0 0 6.5-9 6.5 9 0 0 0-6.5-9z" opacity=".2"/>
    <path d="M21 7a5 5 0 0 0-5 5 5 5 0 0 0 5 5 5 5 0 0 0 5-5 5 5 0 0 0-5-5zm22 0a5 5 0 0 0-5 5 5 5 0 0 0 5 5 5 5 0 0 0 5-5 5 5 0 0 0-5-5zM9.5 24A6.5 9 0 0 0 3 33a6.5 9 0 0 0 6.5 9 6.5 9 0 0 0 6.5-9 6.5 9 0 0 0-6.5-9zm45 0a6.5 9 0 0 0-6.5 9 6.5 9 0 0 0 6.5 9 6.5 9 0 0 0 6.5-9 6.5 9 0 0 0-6.5-9z" fill="#928274"/>
    <path d="M21 7a5 5 0 0 0-5 5 5 5 0 0 0 .027.516A5 5 0 0 1 21 8a5 5 0 0 1 4.973 4.484A5 5 0 0 0 26 12a5 5 0 0 0-5-5zm22 0a5 5 0 0 0-5 5 5 5 0 0 0 .027.516A5 5 0 0 1 43 8a5 5 0 0 1 4.973 4.484A5 5 0 0 0 48 12a5 5 0 0 0-5-5zM9.5 24A6.5 9 0 0 0 3 33a6.5 9 0 0 0 .016.398A6.5 9 0 0 1 9.5 25a6.5 9 0 0 1 6.484 8.602A6.5 9 0 0 0 16 33a6.5 9 0 0 0-6.5-9zm45 0a6.5 9 0 0 0-6.5 9 6.5 9 0 0 0 .016.398A6.5 9 0 0 1 54.5 25a6.5 9 0 0 1 6.484 8.602A6.5 9 0 0 0 61 33a6.5 9 0 0 0-6.5-9z" opacity=".1" fill="#F9F5D7"/>
    <rect width="32" height="5" x="16" y="54" rx="2.5" ry="2.5" opacity=".2"/>
    <circle cx="32" cy="33" r="25" opacity=".2"/>
    <circle cx="32" cy="32" r="25" fill="#F9F5D7"/>
    <path d="M53 32.143C53 43.82 43.598 48 32 48s-21-4.18-21-15.857S20.402 11 32 11s21 9.466 21 21.143z" fill="#3A393A"/>
    <path d="M28.21 15.236c-3.015.084-4.337.672-7.517 4.032l-.285 8.591.115 2.371.055 9.038c.377 2.941.518 5.34.889 7.22C24.566 47.528 28.157 48 32 48c3.986 0 7.7-.509 10.875-1.63.712-3.667.069-8.898.607-13.218l.223-5.761-.398-6.46c-1.017-4.197-6.95-5.914-11.385-5.695-1.514 0-2.706-.028-3.711 0z" fill="#B7BB25"/>
    <path d="M20.03 21.534l.407 8.497C21.67 25.654 18.535 18.68 24.59 18c3.1-.348 3.463 3.153 5.582 3 1.982-.143 2.012-4.836 7.144-3.9 5.748 1.048 5.34 7.52 6.364 12.93l.316-8.036c.086-3.465-1.292-4.587-3.202-6.035C38.439 14.45 35.676 14 32 14c-3.714-.243-7.814.696-10.449 3.18-1.567 1.417-1.62 2.333-1.522 4.354z" fill="#322F2E"/>
    <circle cx="23" cy="36" r="4" opacity=".2"/>
    <circle cx="23" cy="35" r="4" fill="#F9F5D7"/>
    <circle cx="-41" cy="36" r="4" transform="scale(-1 1)" opacity=".2"/>
    <circle cx="21.5" cy="35.5" r="1.5" fill="#3A393A"/>
    <path d="M24.5 43.5s1.843 1 7.308 1 7.692-1 7.692-1" opacity=".5" fill="none" stroke="#151819" stroke-width="3" stroke-linecap="round" stroke-linejoin="round"/>
    <rect width="32" height="5" x="16" y="53" rx="2.5" ry="2.5" fill="#928274"/>
    <path d="M11.012 31.639c-.004.168-.012.335-.012.504C11 43.819 20.402 48 32 48s21-4.18 21-15.857c0-.17-.008-.336-.012-.504C52.722 42.934 43.43 47 32 47s-20.722-4.066-20.988-15.361z" opacity=".2"/>
    <circle cx="-41" cy="35" r="4" transform="scale(-1 1)" fill="#F9F5D7"/>
    <circle cx="-42.5" cy="35.5" r="1.5" transform="scale(-1 1)" fill="#3A393A"/>
    <path d="M32 7A25 25 0 0 0 7 32a25 25 0 0 0 .021.586A25 25 0 0 1 32 8a25 25 0 0 1 24.979 24.414A25 25 0 0 0 57 32 25 25 0 0 0 32 7z" opacity=".2" fill="#F9F5D7"/>
</svg>
