<svg xmlns="http://www.w3.org/2000/svg" width="64" height="64" version="1">
    <path d="M22.886 5.002c-1.2 0-2.734 1.267-2.886 2.824V29H8l24 24 24-24H44V7.826c0-1.564-1.686-2.824-2.886-2.824H22.886zM6.802 55C5.25 55 4 56.338 4 58s1.25 3 2.8 3h50.4C58.75 61 60 59.662 60 58s-1.25-3-2.8-3H6.802z" opacity=".2"/>
    <path d="M22.886 4.002c-1.2 0-2.734 1.267-2.886 2.824V28H8l24 24 24-24H44V6.826c0-1.564-1.686-2.824-2.886-2.824H22.886zM6.802 54C5.25 54 4 55.338 4 57s1.25 3 2.8 3h50.4C58.75 60 60 58.662 60 57s-1.25-3-2.8-3H6.802z" fill="#066678"/>
    <path d="M22.887 4.002c-1.2 0-2.735 1.267-2.887 2.824v1c.152-1.557 1.687-2.824 2.887-2.824h18.226c1.2 0 2.887 1.26 2.887 2.824v-1c0-1.564-1.687-2.824-2.887-2.824H22.887zM8 28l1 1h11v-1H8zm36 0v1h11l1-1H44zM6.8 54C5.25 54 4 55.338 4 57c0 .174.018.344.047.508C4.267 56.083 5.407 55 6.8 55H57.2c1.392 0 2.534 1.083 2.753 2.508.03-.164.047-.334.047-.508 0-1.662-1.25-3-2.8-3H6.8z" opacity=".2" fill="#F9F5D7"/>
</svg>
