<svg xmlns="http://www.w3.org/2000/svg" width="64" height="64" version="1">
    <rect width="40" height="50" x="-52" y="-57" rx="3" ry="3" transform="matrix(0 -1 -1 0 0 0)" fill="#C77089"/>
    <path d="M14 23v20h3v-9h8v-3h-8v-5h8v-3h-8zm13 0v3h4v17h3V26h4v-3zm13 0v20h3v-9h8V23h-8zm3 3h5v5h-5z" opacity=".2"/>
    <path d="M14 22v20h3v-9h8v-3h-8v-5h8v-3H14zm13 0v3h4v17h3V25h4v-3H27zm13 0v20h3v-9h8V22H40zm3 3h5v5h-5v-5z" fill="#F9F5D7"/>
    <path d="M47.193 8A2.143 2.058 0 0 0 45 10.057v2.941H9.777C8.238 13 7 14.337 7 16s1.238 3 2.777 3H45v2.942a2.143 2.058 0 0 0 3.215 1.783l5.355-2.97 5.358-2.971a2.143 2.058 0 0 0 0-3.567l-5.358-2.97-5.355-2.971a2.143 2.058 0 0 0-1.022-.276zM16.807 42a2.143 2.058 0 0 0-1.022.275l-5.355 2.97-5.358 2.971a2.143 2.058 0 0 0 0 3.567l5.358 2.97 5.355 2.971A2.143 2.058 0 0 0 19 55.941v-2.942h35.223C55.762 53 57 51.661 57 50s-1.238-3-2.777-3H19v-2.941a2.143 2.058 0 0 0-2.193-2.059z" opacity=".2"/>
    <rect width="50" height="6" x="7" y="12" rx="2.778" ry="3" fill="#066678"/>
    <path d="M47.193 7A2.143 2.058 0 0 0 45 9.06v11.883a2.143 2.058 0 0 0 3.214 1.782l5.357-2.97 5.357-2.971a2.143 2.058 0 0 0 0-3.566l-5.357-2.97-5.357-2.971A2.143 2.058 0 0 0 47.193 7z" fill="#066678"/>
    <rect width="50" height="6" x="-57" y="46" rx="2.778" ry="3" transform="scale(-1 1)" fill="#066678"/>
    <path d="M16.807 41A2.143 2.058 0 0 1 19 43.06v11.883a2.143 2.058 0 0 1-3.214 1.782l-5.357-2.97-5.357-2.971a2.143 2.058 0 0 1 0-3.566l5.357-2.97 5.357-2.971A2.143 2.058 0 0 1 16.807 41z" fill="#066678"/>
    <path d="M47.193 7A2.143 2.058 0 0 0 45 9.059v1A2.143 2.058 0 0 1 47.193 8a2.143 2.058 0 0 1 1.022.275l5.355 2.971 5.358 2.97a2.143 2.058 0 0 1 1.008 1.288 2.143 2.058 0 0 0-1.008-2.287l-5.358-2.97-5.355-2.972A2.143 2.058 0 0 0 47.193 7zM9.777 12C8.238 12 7 13.338 7 15c0 .172.022.336.047.5.22-1.422 1.35-2.5 2.73-2.5H45v-1H9.777zm7.03 29a2.143 2.058 0 0 0-1.022.275l-5.355 2.971-5.358 2.97a2.143 2.058 0 0 0-1.008 2.278 2.143 2.058 0 0 1 1.008-1.277l5.358-2.97 5.355-2.972A2.143 2.058 0 0 1 16.807 42 2.143 2.058 0 0 1 19 44.059v-1A2.143 2.058 0 0 0 16.807 41zM19 46v1h35.223c1.38 0 2.51 1.078 2.73 2.5.025-.164.047-.328.047-.5 0-1.662-1.238-3-2.777-3H19z" fill="#F9F5D7" opacity=".2"/>
</svg>
