<svg xmlns="http://www.w3.org/2000/svg" width="64" height="64">
    <circle cx="42" cy="33" r="18" opacity=".2"/>
    <circle cx="42" cy="32" r="18" fill="#066678"/>
    <path d="M42 14a18 18 0 0 0-18 18 18 18 0 0 0 .021.586A18 18 0 0 1 42 15a18 18 0 0 1 17.979 17.414A18 18 0 0 0 60 32a18 18 0 0 0-18-18z" opacity=".1" fill="#F9F5D7"/>
    <circle cx="42" cy="32" r="14" fill="#066678"/>
    <circle cx="32" cy="43" r="18" opacity=".2"/>
    <circle cx="22" cy="33" r="18" opacity=".2"/>
    <circle cx="32" cy="22" r="18" fill="#066678"/>
    <path d="M32 4a18 18 0 0 0-18 18 18 18 0 0 0 .021.586A18 18 0 0 1 32 5a18 18 0 0 1 17.979 17.414A18 18 0 0 0 50 22 18 18 0 0 0 32 4z" opacity=".1" fill="#F9F5D7"/>
    <circle cx="32" cy="22" r="14" fill="#066678"/>
    <circle cx="22" cy="32" r="18" fill="#066678"/>
    <path d="M22 14A18 18 0 0 0 4 32a18 18 0 0 0 .021.586A18 18 0 0 1 22 15a18 18 0 0 1 17.979 17.414A18 18 0 0 0 40 32a18 18 0 0 0-18-18z" opacity=".1" fill="#F9F5D7"/>
    <circle cx="22" cy="32" r="14" fill="#066678"/>
    <circle cx="32" cy="42" r="18" fill="#066678"/>
    <circle cx="32" cy="42" r="14" fill="#066678"/>
    <path d="M32 24a18 18 0 0 0-18 18 18 18 0 0 0 .043 1.152A18 18 0 0 1 32 26a18 18 0 0 1 17.957 16.848A18 18 0 0 0 50 42a18 18 0 0 0-18-18z" opacity=".1" fill="#F9F5D7"/>
    <circle cx="32" cy="33" r="18" opacity=".2"/>
    <circle cx="32" cy="32" r="18" fill="#066678"/>
    <circle cx="32" cy="32" r="14" fill="#066678"/>
    <path d="M32 14a18 18 0 0 0-18 18 18 18 0 0 0 .021.586A18 18 0 0 1 32 15a18 18 0 0 1 17.979 17.414A18 18 0 0 0 50 32a18 18 0 0 0-18-18z" opacity=".1" fill="#F9F5D7"/>
</svg>
