<svg xmlns="http://www.w3.org/2000/svg" width="64" height="64" version="1">
    <path d="M4 56.2v2C4 59.75 5.25 61 6.8 61h50.4c1.55 0 2.8-1.25 2.8-2.8v-2c0 1.55-1.25 2.8-2.8 2.8H6.8C5.25 59 4 57.75 4 56.2z" opacity=".2"/>
    <rect width="56" height="56" x="4" y="4" rx="2.8" ry="2.8" fill="#066678"/>
    <path d="M19.89 4l-1.715 1.004.396 1.465.996.648 1.988.274v2.261l.918-.148.845-1.766 2.114-.67v-2.71L25.906 4h-6.017zm8.96 0l.602.142-.2 1.791h.763l2.089-1.028.101 2.352 1.52.93-.063 1.394-1.457.495.098.462 1.756.798-.036.96-.508.044c-.002-.016-.006-.025-.006-.025l-2.214-.684-.092-.71.644-.446v-.648l-.697-.175-.172.596-1.222.191-.123-.04v.06l-.422.065-.347-.697-.396-.175h-.873l-.393.325v.722l.743.246.736.104-.167.074-.67.744-.295-.372-.648-.17-1.766 1.66.23.189-2.61 1.446-2.452 2.551-.17 1.135-2.458 1.619-1.22 1.225.137 2.453-1.692-.788.013-1.435-4.705.002-2.437 1.234-1.058 1.95-.418 1.547.683 1.501 1.92.233 3.051-2.04.268 1.011-.932 1.759 2.321.396.233 3.588 3.183.541 2.02-2.338 2.456.498.861 1.2 2.354-.139.066-.695 1.293.627 1.458 2.286 2.518.035.93 1.627.131 1.985 2.786 1.061 3.511.036 1.029 1.687 1.558.5-.298 1.395-1.706 2.168-.498 4.802-1.542 1.217-2.286-.066-.76 1.323.566 2.491-2.491 3.18-.796 1.458-1.162.558h28.178c1.552 0 2.8-1.248 2.8-2.8v-8.852l-.254-.254-.102-1.326.356-.678v-4.12l-1.676-2.962.328-3.35-2.519-.262-.927-.927h-1.692l-.861.796h-2.984l-.1.265h-1.66l-3.81-4.342.033-3.38.63-.232.234-1.294h-.897l-.363-1.356 4.405-3.183v-2.253l2.157-1.197.875.084h1.772l1.389-.743 4.476-.35v2.288l1.19.303V16.74l-.2-.282.2.011v-1.52l-1.526-1.028-.238-.895-1.266 1.143-1.28-.262-1.952 2.537-.385.993-1.247.112-1.849.014-1.104-.517-.326-2.193.397-1.047 1.881-.41 2.048.41.252-1.135-.87-.205.295-1.766 2.065-.323 1.444-2.037 1.49-.252 1.342.2h.495l-.274-1.914-1.632.659-.576-1.43-.95-.132-.176-.981.448-.49H28.848zm23.986 1.42l.328 1.59.697 1.127.465.533.842.328-.795.947-1.542.147h-1.157l.128-1.375.966-.2-.082-.645-.897-.563-.63-.43.004-.631.363-.564 1.31-.265zm-1.958 1.787l.763.331-.068.862-1.64 1.162h-.928v-.829h.006l.795-1.277 1.072-.249zM29.954 12.05l.518.11-.222.459-.566.049-.115.547-.437.273-.7.06c-.024-.164-.038-.29-.038-.29h-.274v-.59h1.143l.238-.61.454-.008zm29.712.413l.334.943v-.943h-.333zm-32.742.205l.498.391-.084.58-.828.07.044-.579.37-.462zM4 28.88V57.2C4 58.752 5.25 60 6.8 60h15.458l-.99-1.32.563-3.148-.826-.23v-6.83s-2.322-1.758-2.455-1.758c-.134 0-1.228-.298-1.228-.298l-.231-1.292-3.016-3.778.298-1.358.1-2.222 2.087-1.46-.298-2.488-3.048-.226-2.385-2.722-1.692-.466-1.091-.204.13-.993-1.391-.197v.564l-2.784-.694z" opacity=".3" fill="#F9F5D7"/>
    <path d="M23.818 14.009c-10.117.374-11.34 5.307-8.47 12.018.869 2.034 3.642 1.862 2.086-.204-6.532-20.344 36.88-1.746 28.16 10.332-2.462 2.728-6.356 3.459-9.484 2.077-1.424-.628-4.018.189-1.925 1.367 4.25 2.392 14.323 1.023 15.53-4.67 3.004-14.177-18.597-21.19-25.897-20.921m13.739 10.36c-5.984 6.538-11.85 20.094-15.053 23.296-1.734 1.732-4.146-1.435-4.87-.448-1.325 1.802 1.37 2.752 4.093 2.784 6.419.117 18.375-27.9 15.83-25.632z" fill="#322F2E"/>
    <path d="M6.8 4.2C5.25 4.2 4 5.45 4 7v1c0-1.55 1.25-2.8 2.8-2.8h50.4C58.75 5.2 60 6.45 60 8V7c0-1.55-1.25-2.8-2.8-2.8H6.8z" opacity=".2" fill="#F9F5D7"/>
</svg>
