<svg xmlns="http://www.w3.org/2000/svg" width="64" height="64" version="1">
    <rect width="56" height="56" x="4" y="5" rx="2.8" ry="2.8" opacity=".2"/>
    <rect width="56" height="56" x="4" y="4" rx="2.8" ry="2.8" fill="#CB8819"/>
    <rect width="44" height="44" x="-55" y="-54" rx="2.667" ry="2.75" transform="matrix(0 -1 -1 0 0 0)" opacity=".2"/>
    <rect width="44" height="44" x="-54" y="-54" rx="2.667" ry="2.75" transform="matrix(0 -1 -1 0 0 0)" fill="#F9F5D7"/>
    <path d="M24.058 11.999C21.947 13.295 16.497 14.956 13 15.97l.11.309c1.663-.166 4.039-.402 5.706-.684v2.453h-5.793l.141 2.07h4.848c-.833 3.425-2.76 4.865-4.953 7.509l.332.309c2.056-1.49 4.118-2.814 5.421-4.778V30h.532c1.415 0 2.732-.546 2.757-.715v-6.97c1.056.952 1.258 2.063 1.453 3.247.36.302.75.445 1.11.445.748 0 1.386-.542 1.386-1.297 0-1.022-.368-1.966-3.949-2.77v-1.82h4.688c.75 0 2.111-1.719 2.305-2.024L24.058 16l-.898 2.046H22.1V15.03c1.252-.285 2.42-.567 3.364-.852.548.014 3.594-.18 3.594-.18zM30 14.061V30c2.61 0 2.91-.958 2.946-.992v-.93h5.042v1.473c2.198 0 2.973-.638 2.973-.684v-12.54c.582-.116 1.03-.304 1.195-.52l-2.21-1.73-2.231 1.922h-4.629zm2.946 4.008h5.042v8.01h-5.042z" fill="#665C54"/>
    <path d="M6.8 4C5.25 4 4 5.25 4 6.8v1C4 6.25 5.25 5 6.8 5h50.4C58.75 5 60 6.25 60 7.8v-1C60 5.25 58.75 4 57.2 4H6.8z" opacity=".2" fill="#F9F5D7"/>
    <path d="M30 36v15h3v-6h3.152a7.5 7.5 0 0 0 7.348 6 7.5 7.5 0 0 0 7.5-7.5 7.5 7.5 0 0 0-7.5-7.5 7.5 7.5 0 0 0-7.34 6H33v-6h-3zm13.5 3a4.5 4.5 0 0 1 4.5 4.5 4.5 4.5 0 0 1-4.5 4.5 4.5 4.5 0 0 1-4.5-4.5 4.5 4.5 0 0 1 4.5-4.5z" fill="#665C54"/>
</svg>
