<svg xmlns="http://www.w3.org/2000/svg" width="64" height="64">
    <path d="M22.006 10c-7.61 0-13.994 6.385-13.994 13.996 0 3 1.016 5.788 2.683 8.09L5.44 40.832c-3.998 6.661.795 15.138 8.563 15.145L49.987 56c7.43.003 12.267-7.816 8.947-14.465l-7.996-16.008c-2.837-5.663-10.158-7.294-15.13-3.37C34.874 15.392 28.988 10 22.006 10z" opacity=".2"/>
    <path d="M22.006 9c-7.61 0-13.994 6.385-13.994 13.996 0 3 1.016 5.788 2.683 8.09L5.44 39.832c-3.998 6.661.795 15.138 8.563 15.145L49.987 55c7.43.003 12.267-7.816 8.947-14.465l-7.996-16.008c-2.837-5.663-10.158-7.294-15.13-3.37C34.874 14.392 28.988 9 22.006 9z" fill="#9D0006"/>
    <path class="ColorScheme-Text" d="M22 19.988a4 4 0 0 0-4 4 4 4 0 0 0 4 4 4 4 0 0 0 4-4 4 4 0 0 0-4-4zm20 10l-6 9-6-5-6 8-4-6-6 9.989L50 46z" opacity=".2" fill="currentColor"/>
    <path d="M22 19a4 4 0 0 0-4 4 4 4 0 0 0 4 4 4 4 0 0 0 4-4 4 4 0 0 0-4-4zm20 10l-6 9-6-5-6 8-4-6-6 9.988 36 .024z" fill="#F9F5D7"/>
    <path d="M22.006 9c-7.61 0-13.994 6.384-13.994 13.996 0 .187.015.37.023.555C8.28 16.139 14.545 10 22.005 10c6.983 0 12.87 5.39 13.804 12.156 4.972-3.924 12.291-2.292 15.129 3.371l7.996 16.008a9.947 9.947 0 0 1 1.045 4.088 9.911 9.911 0 0 0-1.045-5.088l-7.996-16.008c-2.838-5.663-10.157-7.295-15.13-3.37C34.875 14.39 28.989 9 22.007 9zM10.379 31.613L5.44 39.832a9.857 9.857 0 0 0-1.408 5.645 9.901 9.901 0 0 1 1.408-4.645l5.254-8.746c-.11-.154-.21-.315-.316-.473z" opacity=".1" fill="#F9F5D7"/>
</svg>
