<svg xmlns="http://www.w3.org/2000/svg" width="64" height="64" version="1">
    <rect width="56" height="56" x="4" y="5" rx="16.8" ry="16.8" opacity=".2"/>
    <rect width="56" height="56" x="4" y="4" rx="16.8" ry="16.8" fill="#F9F5D7"/>
    <path d="M29.129 19a.722.722 0 0 0-.613.57l-.59 2.996a11.297 11.297 0 0 0-2.938 1.684l-2.914-.984a.722.722 0 0 0-.832.304l-2.808 4.86a.722.722 0 0 0 .156.875l2.32 2.03A11.166 11.166 0 0 0 20.781 33c0 .568.047 1.119.13 1.664l-2.321 2.031a.722.722 0 0 0-.156.875l2.808 4.86c.163.275.53.409.832.304l2.914-.984c.876.7 1.875 1.269 2.938 1.684l.59 2.996c.06.313.36.566.68.57h5.609a.725.725 0 0 0 .68-.57l.59-2.996a11.298 11.298 0 0 0 2.937-1.684l2.914.984c.303.105.67-.029.832-.304l2.808-4.86a.722.722 0 0 0-.156-.875l-2.32-2.03c.082-.546.129-1.097.129-1.665 0-.568-.047-1.119-.13-1.664l2.321-2.031a.722.722 0 0 0 .156-.875l-2.808-4.86a.723.723 0 0 0-.832-.304l-2.914.984a11.297 11.297 0 0 0-2.938-1.684l-.59-2.996a.725.725 0 0 0-.68-.57H29.13zM32 27a6 6 0 1 1 0 12 6 6 0 0 1 0-12z" opacity=".1"/>
    <path d="M29.129 18a.722.722 0 0 0-.613.57l-.59 2.996a11.297 11.297 0 0 0-2.938 1.684l-2.914-.984a.722.722 0 0 0-.832.304l-2.808 4.86a.722.722 0 0 0 .156.875l2.32 2.03A11.166 11.166 0 0 0 20.781 32c0 .568.047 1.119.13 1.664l-2.321 2.031a.722.722 0 0 0-.156.875l2.808 4.86c.163.275.53.409.832.304l2.914-.984c.876.7 1.875 1.269 2.938 1.684l.59 2.996c.06.313.36.566.68.57h5.609a.725.725 0 0 0 .68-.57l.59-2.996a11.298 11.298 0 0 0 2.937-1.684l2.914.984c.303.105.67-.029.832-.304l2.808-4.86a.722.722 0 0 0-.156-.875l-2.32-2.03c.082-.546.129-1.097.129-1.665 0-.568-.047-1.119-.13-1.664l2.321-2.031a.722.722 0 0 0 .156-.875l-2.808-4.86a.723.723 0 0 0-.832-.304l-2.914.984a11.297 11.297 0 0 0-2.938-1.684l-.59-2.996a.725.725 0 0 0-.68-.57H29.13zM32 26a6 6 0 1 1 0 12 6 6 0 0 1 0-12z" fill="#7B6F64"/>
    <path d="M20.8 4C11.495 4 4 11.494 4 20.8v1C4 12.495 11.494 5 20.8 5h22.4C52.505 5 60 12.494 60 21.8v-1C60 11.495 52.506 4 43.2 4H20.8z" opacity=".2" fill="#F9F5D7"/>
</svg>
