<svg xmlns="http://www.w3.org/2000/svg" width="64" height="64" version="1">
    <path d="M10 41v9.778c0 1.23.981 2.222 2.2 2.222h39.6c1.219 0 2.2-.991 2.2-2.222V41z" opacity=".2"/>
    <path d="M54 49.778V14.223A2.206 2.206 0 0 0 51.8 12H12.2c-1.219 0-2.2.992-2.2 2.223v35.555c0 1.23.981 2.222 2.2 2.222h39.6c1.219 0 2.2-.991 2.2-2.222z" fill="#FA4934"/>
    <path d="M12.2 12c-1.22 0-2.2.992-2.2 2.223v1c0-1.23.98-2.222 2.2-2.222h39.6c1.22 0 2.2.991 2.2 2.222v-1c0-1.23-.98-2.222-2.2-2.222z" opacity=".2" fill="#F9F5D7"/>
    <path d="M42 21a6 6 0 1 1 0 12 6 6 0 0 1 0-12z" opacity=".2" fill-rule="evenodd"/>
    <path d="M42 20a6 6 0 1 1 0 12 6 6 0 0 1 0-12z" fill="#F9F5D7" fill-rule="evenodd"/>
    <path d="M10 40v9.778c0 1.23.981 2.222 2.2 2.222h39.6c1.219 0 2.2-.991 2.2-2.222V40z" fill="#A04A73"/>
    <path d="M10 40v-1.09s3.173-2.481 4.065-2.698c.892-.216 1.946-.04 3.028.202 1.083.241 2.7 1.79 3.204 1.81.504.02 1.417-.052 2.478-.128 1.06-.075 2.817-.143 3.365-.136.547 0 1.915.09 3.373.195 1.458.106 3.46.282 3.914.332.454.049.988.14 1.594.239.606.098 1.655.246 2.027.287.37.04 1.231.18 2.23.29.998.108 2.595.145 3.057.105.461-.04 1.428-.444 2.506-.817 1.078-.373 2.266-.715 3.17-.63.904.084 5.989.95 5.989.95V40H15.344z" fill="#3A393A"/>
    <path d="M6.969 6.971A3 3 0 0 0 4 10.38V21a3 3 0 1 0 6 0v-3.757l8.879 8.879a3 3 0 1 0 4.242-4.243L14.242 13H18a3 3 0 1 0 0-6H7.371a3 3 0 0 0-.402-.029zm36 32a3 3 0 0 0-2.09 5.15l8.879 8.88H46a3 3 0 1 0 0 6h10.629A3 3 0 0 0 60 55.62v-10.62a3 3 0 1 0-6 0v3.757l-8.879-8.879a3 3 0 0 0-2.152-.908z" opacity=".2"/>
    <path d="M7 9l14 14M7 20V9h11v0M57 55L43 41m14 3v11H46v0" fill="none" stroke="#F9F5D7" stroke-width="6" stroke-linecap="round" stroke-linejoin="round"/>
    <path opacity=".1" fill="#F9F5D7" d="M10 40h44v1H10z"/>
    <path d="M6.969 5.97A3 3 0 0 0 4 9.38v.21a3 3 0 0 1 2.969-2.618A3 3 0 0 1 7.37 7H18a3 3 0 0 1 2.996 2.508A3 3 0 0 0 18 6H7.371a3 3 0 0 0-.402-.03zM14.242 13l8.88 8.879a3 3 0 0 1 .876 1.672 3 3 0 0 0-.877-2.672L15.242 13h-1zM42.97 37.97a3 3 0 0 0-2.953 3.49 3 3 0 0 1 2.953-2.49 3 3 0 0 1 2.152.909L54 48.758v-1l-8.879-8.88a3 3 0 0 0-2.152-.907zm13.984 2.99A3 3 0 0 0 54 44v1a3 3 0 1 1 6 0v-1a3 3 0 0 0-3.047-3.04zM46 52a3 3 0 0 0-2.996 3.492A3 3 0 0 1 46 53h3.758l-1-1H46zm14 2.621v.791a3 3 0 0 0 0-.79z" opacity=".2" fill="#F9F5D7"/>
</svg>
