<svg xmlns="http://www.w3.org/2000/svg" width="64" height="64" version="1">
    <path d="M20.157 5C11.235 5 4 13.232 4 23.386c0 2.728.423 5.354 1.165 7.861 0 0 .673 2.26 1.269 3.506C13.244 50.675 32 61 32 61s18.756-10.325 25.566-26.247c.596-1.246 1.27-3.506 1.27-3.506.74-2.507 1.164-5.133 1.164-7.861C60 13.232 52.765 5 43.843 5 39.163 5 34.95 6.982 32 10.6 29.049 6.982 24.837 5 20.157 5z" opacity=".2"/>
    <path d="M20.157 4C11.235 4 4 12.232 4 22.386c0 2.728.423 5.354 1.165 7.861 0 0 .673 2.26 1.269 3.506C13.244 49.675 32 60 32 60s18.756-10.325 25.566-26.247c.596-1.246 1.27-3.506 1.27-3.506.74-2.507 1.164-5.133 1.164-7.861C60 12.232 52.765 4 43.843 4 39.163 4 34.95 5.982 32 9.6 29.049 5.982 24.837 4 20.157 4z" fill="#F9BD2E"/>
    <path d="M52.745 25.004c.434-.024.815.062 1.2.237 1.879.878 2.337 3.59 1.904 5.176-.894 3.008-3.468 8.02-6.915 11.562-1.52 1.505-3.51 3.396-5.665 2.956-1.7-.525-2.65-.931-3.12-1.921-.75-2.57 1.506-3.616 2.816-4.96 2.87-2.985 5.87-7.509 7.316-10.536.798-1.544.945-2.143 2.464-2.514z" opacity=".1"/>
    <path d="M52.745 24.004c.434-.024.815.062 1.2.237 1.879.878 2.337 3.59 1.904 5.176-.894 3.008-3.468 8.02-6.915 11.562-1.52 1.505-3.51 3.396-5.665 2.956-1.7-.525-2.65-.931-3.12-1.921-.75-2.57 1.506-3.616 2.816-4.96 2.87-2.985 5.87-7.509 7.316-10.536.798-1.544.945-2.143 2.464-2.514z" fill="#BE4C1D"/>
    <path d="M43.387 26.04c-.785.101-1.55.546-2.188 1.491a8.219 8.219 0 0 0-1.02 2.137c-.32 1.362-.298 1.913.817 3.133.502.492.997.973 1.488 1.445a223.297 223.297 0 0 0 10.028 9.047 42.919 42.919 0 0 0 4.027-6.418c-1.496-1.257-3.333-2.85-4.746-4.172-1.657-1.555-3.198-3.341-4.797-5.066-.937-.99-2.302-1.769-3.61-1.598z" opacity=".1"/>
    <path d="M43.387 25.04c-.785.101-1.55.546-2.188 1.491a8.219 8.219 0 0 0-1.02 2.137c-.32 1.362-.298 1.913.817 3.133.502.492.997.973 1.488 1.445a223.297 223.297 0 0 0 10.028 9.047 42.919 42.919 0 0 0 4.027-6.418c-1.496-1.257-3.333-2.85-4.746-4.172-1.657-1.555-3.198-3.341-4.797-5.066-.937-.99-2.302-1.769-3.61-1.598z" fill="#BE4C1D"/>
    <path d="M20.156 4C11.233 4 4 12.233 4 22.387c0 .184.011.366.02.549C4.232 12.992 11.367 5 20.156 5 24.836 5 29.05 6.984 32 10.602 34.951 6.984 39.164 5 43.844 5c8.789 0 15.924 7.992 16.136 17.936.009-.183.02-.365.02-.55C60 12.234 52.767 4 43.844 4 39.164 4 34.95 5.984 32 9.602 29.049 5.984 24.836 4 20.156 4z" opacity=".2" fill="#F9F5D7"/>
</svg>
