<svg xmlns="http://www.w3.org/2000/svg" width="64" height="64">
    <rect width="18" height="56" x="-60" y="4" rx="2.5" ry="2.5" transform="rotate(-90)" opacity=".2"/>
    <rect width="18" height="56" x="-59" y="4" rx="2.5" ry="2.5" transform="rotate(-90)" fill="#928274"/>
    <path d="M40 47l4 6M46 47l4 6M52 47l4 6M34 47l4 6" opacity=".5" fill="none" stroke="#151819" stroke-width="3" stroke-linecap="round"/>
    <circle cx="-23.5" cy="47.5" r="2.5" transform="scale(-1 1)" opacity=".2"/>
    <circle cx="-16.5" cy="47.5" r="2.5" transform="scale(-1 1)" opacity=".2"/>
    <circle cx="-9.5" cy="47.5" r="2.5" transform="scale(-1 1)" opacity=".2"/>
    <circle cx="-23.5" cy="46.5" r="2.5" transform="scale(-1 1)" fill="#B7BB25"/>
    <circle cx="-16.5" cy="46.5" r="2.5" transform="scale(-1 1)" fill="#B7BB25"/>
    <circle cx="-9.5" cy="46.5" r="2.5" transform="scale(-1 1)" fill="#FECE4F"/>
    <rect width="18" height="56" x="-42" y="4" rx="2.5" ry="2.5" transform="rotate(-90)" opacity=".2"/>
    <rect width="18" height="56" x="-41" y="4" rx="2.5" ry="2.5" transform="rotate(-90)" fill="#928274"/>
    <path d="M40 29l4 6M46 29l4 6M52 29l4 6M34 29l4 6" opacity=".5" fill="none" stroke="#151819" stroke-width="3" stroke-linecap="round"/>
    <circle cx="-16.5" cy="29.5" r="2.5" transform="scale(-1 1)" opacity=".2"/>
    <circle cx="-9.5" cy="29.5" r="2.5" transform="scale(-1 1)" opacity=".2"/>
    <circle cx="-16.5" cy="28.5" r="2.5" transform="scale(-1 1)" fill="#B7BB25"/>
    <circle cx="-9.5" cy="28.5" r="2.5" transform="scale(-1 1)" fill="#FECE4F"/>
    <rect width="18" height="56" x="-24" y="4" rx="2.5" ry="2.5" transform="rotate(-90)" opacity=".2"/>
    <rect width="18" height="56" x="-23" y="4" rx="2.5" ry="2.5" transform="rotate(-90)" fill="#928274"/>
    <path d="M40 11l4 6M46 11l4 6M52 11l4 6M34 11l4 6" opacity=".5" fill="none" stroke="#151819" stroke-width="3" stroke-linecap="round"/>
    <circle cx="-9.5" cy="11.5" r="2.5" transform="scale(-1 1)" opacity=".2"/>
    <circle cx="-9.5" cy="10.5" r="2.5" transform="scale(-1 1)" fill="#FECE4F"/>
    <path d="M57.5 5C58.885 5 60 6.115 60 7.5v1C60 7.115 58.885 6 57.5 6h-51A2.495 2.495 0 0 0 4 8.5v-1C4 6.115 5.115 5 6.5 5z" opacity=".2" fill="#F9F5D7"/>
</svg>
