<svg xmlns="http://www.w3.org/2000/svg" width="64" height="64" version="1">
    <path d="M9 56.2v2c0 1.55 1.226 2.8 2.75 2.8h38.5c1.524 0 2.75-1.25 2.75-2.8v-2c0 1.55-1.226 2.8-2.75 2.8h-38.5C10.226 59 9 57.75 9 56.2z" opacity=".2"/>
    <path d="M53 57.2V6.8C53 5.249 51.773 4 50.25 4h-38.5C10.226 4 9 5.249 9 6.8v50.4c0 1.552 1.226 2.8 2.75 2.8h38.5c1.524 0 2.75-1.248 2.75-2.8z" fill="#48B9C7"/>
    <path d="M14.685 6v1.406h4.068V6h-4.068zm5.424 0v1.406h4.069V6h-4.069zm5.425 0v1.406h3.767V6h-3.767zm5.123 0v1.406h3.39V6h-3.39zm4.747 0v1.406h4.068V6h-4.068zm5.424 0v1.406h4.069V6h-4.069zm5.425 0v1.406h1.314l.453.044.384.126.344.195.3.252.246.31.042.055.27-.23.88-.494-.03-.058-.03-.06-.043-.053-.331-.417-.04-.052-.05-.041-.403-.343-.05-.044-.059-.033-.46-.258-.059-.033-.063-.02-.512-.164-.063-.02-.07-.007-.545-.058L47.644 6h-1.39zm-32.988.041l-.172.02-.069.008-.063.019-.512.165-.063.019-.059.033-.46.258-.059.033-.05.044-.403.343-.05.041-.04.052-.262.33h2.395l-.133-1.365zm37.716 3.21l-1.35.14.015.167v3.977h1.356V9.478L51 9.442l-.019-.192zm-1.335 5.69v4.216h1.356V14.94h-1.356zm0 5.621v4.216h1.356v-4.216h-1.356zm0 5.622V30.4h1.356v-4.216h-1.356zm0 5.621v4.216h1.356v-4.216h-1.356zm0 5.622v4.216h1.356v-4.216h-1.356zm0 5.621v4.217h1.356v-4.217h-1.356zm0 5.622v4.216h1.356V48.67h-1.356zm0 5.622v.15l-.042.47-.122.398-.188.357-.244.31-.3.253-.343.194-.382.124-.106.01.135 1.4.172-.018.07-.009.063-.019.511-.164.064-.02.058-.033.46-.258.06-.033.05-.043.402-.344.05-.04.04-.053.331-.417.043-.052.031-.06.25-.478.031-.06.019-.067.159-.53.018-.065.008-.072.056-.565.002-.036v-.23h-1.356zm-38.644 2.303l.262.329.04.052.05.041.403.343.05.044.059.033.46.258.059.033.063.02.512.164.063.02.07.008.545.057.034.003h1.39v-1.405h-4.06zm5.417 0V58h4.069v-1.405h-4.069zm5.425 0V58h4.068v-1.405h-4.068zm5.425 0V58h3.39v-1.405h-3.39zm4.746 0V58h3.767v-1.405h-3.767zm5.123 0V58h4.069v-1.405h-4.069zm5.425 0V58h4.068v-1.405h-4.068z" fill="#F9F5D7"/>
    <path d="M43.8 24H55v16H43.8c-1.552 0-2.8-1.19-2.8-2.666V26.667C41 25.19 42.248 24 43.8 24z" fill="#504945"/>
    <path d="M44.612 25v.333l-.036-.33-.132.013.074.661.094-.011h1.412v-.667h-1.412zm2.118 0v.667h1.411V25H46.73zm2.117 0v.667h1.412V25h-1.412zm2.118 0v.667h1.412V25h-1.412zm2.117 0v.667h.919V25h-.919zm-9.394.172l-.063.018-.036.011-.03.016-.384.205-.03.015-.028.02-.333.271-.025.02-.022.026-.276.328-.019.027-.017.028-.008.015.403.198.195.146.26-.307.273-.224.325-.172.03-.012-.003-.004.006-.002-.014-.02-.204-.604zm-1.574 1.672l-.053.169-.01.029-.003.033-.045.448-.002.015v.724h.706v-.709l.04-.388.042-.133-.675-.19zM42 28.929v1.334h.706v-1.334H42zm0 2v1.334h.706v-1.334H42zm0 2v1.333h.706V32.93H42zm0 2v1.333h.706V34.93H42zm.747 1.901l-.676.19.119.386.011.03.017.027.206.377.017.03.02.025.275.328.022.026.025.02.069.055.46-.505-.038-.031-.238-.282-.179-.325-.11-.352zm1.084 1.333l-.345.581.072.04.03.014.036.012.422.13.036.011.035.002.458.045.02.002h.44v-.667h-.424l-.389-.042-.356-.11-.035-.017zm1.91.17v.666h1.412v-.666h-1.412zm2.118 0v.666h1.412v-.666H47.86zm2.118 0v.666h1.411v-.666h-1.411zm2.117 0v.666h1.412v-.666h-1.412z" fill="#F9F5D7"/>
    <path d="M49 32a2 2 0 0 1-2 2 2 2 0 0 1-2-2 2 2 0 0 1 2-2 2 2 0 0 1 2 2z" fill="#BDAD93"/>
    <path d="M48.5 31.25A1.5 1.25 0 0 1 47 32.5a1.5 1.25 0 0 1-1.5-1.25A1.5 1.25 0 0 1 47 30a1.5 1.25 0 0 1 1.5 1.25z" fill="#F9F5D7"/>
    <path d="M11.75 4C10.226 4 9 5.25 9 6.8v1C9 6.25 10.226 5 11.75 5h38.5C51.774 5 53 6.25 53 7.8v-1C53 5.25 51.774 4 50.25 4h-38.5z" opacity=".2" fill="#F9F5D7"/>
</svg>
