<svg xmlns="http://www.w3.org/2000/svg" width="64" height="64">
    <path d="M32 57.05c16.017 0 29-10.738 29-25.926C61 15.938 48.017 5.001 32 5 15.983 5 3 15.938 3 31.124c0 8.317 3.893 15.159 10.045 19.828.368.28-.467 5.952-2.852 7.76-.587.446-.209 1.36.525 1.283 2.805-.292 6.924-1.54 9.78-4.97C24.025 56.338 27.914 57.05 32 57.05z" opacity=".2" fill-rule="evenodd"/>
    <path d="M32 56.05c16.017 0 29-10.738 29-25.926C61 14.938 48.017 4.001 32 4 15.983 4 3 14.938 3 30.124c0 8.317 3.893 15.159 10.045 19.828.368.28-.467 5.952-2.852 7.76-.587.446-.209 1.36.525 1.283 2.805-.292 6.924-1.54 9.78-4.97C24.025 55.338 27.914 56.05 32 56.05z" fill="#7CB668" fill-rule="evenodd"/>
    <rect width="30" height="3" x="17" y="21" rx="1.364" opacity=".2"/>
    <rect width="30" height="3" x="17" y="20" rx="1.364" fill="#F9F5D7"/>
    <rect width="30" height="3" x="17" y="29" rx="1.364" opacity=".2"/>
    <rect width="30" height="3" x="17" y="28" rx="1.364" fill="#F9F5D7"/>
    <rect width="30" height="3" x="17" y="37" rx="1.364" opacity=".2"/>
    <rect width="30" height="3" x="17" y="36" rx="1.364" fill="#F9F5D7"/>
    <path d="M32 4C15.983 4 3 14.938 3 30.125c0 .16.01.316.014.475C3.31 15.688 16.17 5 32 5c15.84.001 28.703 10.7 28.986 25.625.004-.167.014-.332.014-.5C61 14.938 48.017 4.001 32 4zM13.088 51.043c-.194 1.802-1.11 5.316-2.895 6.67-.389.295-.349.79-.068 1.072.024-.024.04-.05.068-.072 2.267-1.72 3.13-6.919 2.895-7.67z" fill="#F9F5D7" fill-rule="evenodd" opacity=".2"/>
</svg>
