<svg xmlns="http://www.w3.org/2000/svg" width="64" height="64">
    <path d="M59.917 50.865c-.553-2.773-1.571-4.686-3.917-5.754C55.98 33.654 52.649 20.935 42 15c.85-.369 3.603-.94 4.452-1.097.634-.116 1.163-.51 1.416-1.055a1.66 1.66 0 0 0-.153-1.666c-.33-.473-2.7-1.615-6.003-2.016C38 9 36 9 31.153 9.975c-2.569.878-3.817 1-5.262 1.14-1.228.12-2.62.257-4.833.824-6.372 1.635-9.37 4.228-11.07 5.93C8.66 19.198 7.926 21.901 8 23c-.316.16-.284.186-.633.37-2.335 1.232-3.144 1.808-3.33 2.79-.138.723.115 1.199.711 1.848.964.902 1.511.992 3.024.992 2.389-.373 4.366-1.15 6.8-1.9 1.444-.14 2.69.111 4.869.54 2.822.654 5.842 1.389 8.348 1.36.485.915 1.29 2.626 2.59 4.185 3.387 4.065 7.341 3.812 7.747 3.815.732.01 1.314.032 1.652-.57a1.655 1.655 0 0 0-.156-1.868c-.352-.448-1.628-1.154-1.975-2.992-.1-.524-.055-.966-.047-1.384 4.51 1.322 11.47 5.35 12.385 9.739l.03 3.152c-.013 0 .013 0 0 0-.207-.009-.65-.01-.965-.01-.82 0-1.709.082-2.715.243-3.267.521-5.567 2.447-5.789 2.688 0 0-.635.506-.266 1.15.365.64 1.087 1.018 1.872.957h.036c4.995.696 11.734 3.84 13.787 7.85.32.64 1.018 1.045 1.778 1.045.049 0 .098-.001.147-.006.816-.056 1.507-.57 1.733-1.29.058-.186.561-2.48.284-4.839z" opacity=".2"/>
    <path d="M59.917 49.855c-.553-2.778-1.571-4.695-3.917-5.765-.02-11.476-3.351-24.218-14-30.163.85-.37 3.603-.942 4.452-1.099.634-.116 1.163-.511 1.416-1.057a1.666 1.666 0 0 0-.153-1.669c-.33-.473-2.7-1.618-6.003-2.02C38 7.918 36 7.918 31.153 8.894c-2.569.88-3.817 1.002-5.262 1.143-1.228.12-2.62.257-4.833.825-6.372 1.638-9.37 4.235-11.07 5.94-1.328 1.331-2.062 4.04-1.988 5.14-.316.16-.284.186-.633.371-2.335 1.234-3.144 1.81-3.33 2.794-.138.725.115 1.201.711 1.851.964.905 1.511.994 3.024.994 2.389-.373 4.366-1.152 6.8-1.903 1.444-.14 2.69.112 4.869.542 2.822.654 5.842 1.39 8.348 1.361.485.917 1.29 2.631 2.59 4.192 3.387 4.073 7.341 3.82 7.747 3.822.732.01 1.314.032 1.652-.57a1.66 1.66 0 0 0-.156-1.871c-.352-.45-1.628-1.157-1.975-2.998-.1-.525-.055-.968-.047-1.387 4.51 1.325 11.47 5.36 12.385 9.756l.03 3.158c-.013 0 .013 0 0 0-.207-.009-.65-.01-.965-.01-.82 0-1.709.082-2.715.243-3.267.522-5.567 2.452-5.789 2.693 0 0-.635.507-.266 1.153.365.64 1.087 1.02 1.872.957h.036c4.995.698 11.734 3.846 13.787 7.865.32.64 1.018 1.046 1.778 1.046.049 0 .098-.001.147-.006.816-.056 1.507-.571 1.733-1.292.058-.186.561-2.484.284-4.848z" fill="#066678"/>
    <circle cx="14" cy="21" r="2" opacity=".2"/>
    <circle cx="14" cy="20" r="2" fill="#F9F5D7"/>
    <path d="M39.178 8.002c-2.356-.024-4.39.158-8.026.89-2.569.88-3.817 1.004-5.261 1.145-1.229.12-2.62.256-4.832.824-6.372 1.638-9.37 4.235-11.07 5.94C8.66 18.13 7.925 20.84 8 21.94c-.316.16-.284.187-.633.372-2.335 1.234-3.143 1.81-3.33 2.792-.059.312-.032.575.049.829.25-.88 1.089-1.463 3.281-2.622.35-.184.317-.21.633-.37-.074-1.101.66-3.81 1.988-5.141 1.7-1.705 4.699-4.302 11.07-5.94 2.213-.568 3.604-.704 4.833-.824 1.444-.141 2.692-.265 5.261-1.144 4.847-.977 6.849-.977 10.56-.811 3.304.402 5.672 1.546 6.003 2.02.1.142.169.296.22.455a1.66 1.66 0 0 0-.22-1.455c-.33-.474-2.7-1.618-6.002-2.02a74.119 74.119 0 0 0-2.535-.08zm3.916 6.58c-.454.122-.855.242-1.094.346 10.649 5.945 13.98 18.686 14 30.162 2.345 1.07 3.365 2.987 3.918 5.764v.001c.035.303.056.606.068.903.018-.604.01-1.244-.068-1.903v-.001c-.553-2.777-1.573-4.694-3.918-5.764-.02-11.073-3.124-23.32-12.906-29.508zM37.6 30.139c-.008.418-.053.862.046 1.386.348 1.842 1.625 2.55 1.977 2.998.133.168.217.354.28.545a1.647 1.647 0 0 0-.28-1.545c-.352-.449-1.63-1.156-1.977-2.998-.025-.136-.023-.254-.033-.38l-.013-.006zm11.449 11.904c-.82 0-1.707.081-2.713.242-3.267.522-5.567 2.452-5.79 2.694 0 0-.635.506-.267 1.152.019.032.047.055.067.086.098-.14.2-.238.2-.238.223-.242 2.523-2.172 5.79-2.694 1.006-.16 1.892-.242 2.713-.242.315 0 .76.001.967.01l-.01-1c-.21-.008-.645-.01-.957-.01z" fill="#F9F5D7" opacity=".2"/>
</svg>
