<svg xmlns="http://www.w3.org/2000/svg" width="64" height="64" version="1">
    <path d="M41.585 21.56c-2.188-1.503-3.342-4.778-4.946-6.18-.902-.789-.887-1.388.289-1.317 1.142.068 2.703.396 4.575 1.374 0 0-.688-6.873-3.668-10.366-.782-.917-.663-1.258.46-.885 2.45.812 5.898 3.154 7.787 6.495 0 0 4.529-6.835 10.826-6.678 1.178.029 1.25.757.277 1.45-2.304 1.64-6.108 5.142-6.167 10.065 0 0 1.45-1.617 4.214-1.442 1.79.114 3.96 1.481 6.249 3.486.9.789.583 1.495-.594 1.548-2.68.12-7.142.56-8.919 2.984 0 0 2.628-.359 3.05.648.411.982.011 2.798-1.59 3.116-4.021.801-8.42-1.945-11.843-4.297z" opacity=".2"/>
    <path d="M57.117 44.766a16.175 20.704 14.613 0 1-20.942 15.795 16.175 20.704 14.613 0 1-10.292-24.219 16.175 20.704 14.613 0 1 20.944-15.795 16.175 20.704 14.613 0 1 10.29 24.22z" opacity=".2"/>
    <path d="M35.572 15L3.2 15.092l14.837 26.07v16.841H13V61h13v-2.997h-5V41.28z" opacity=".2"/>
    <path d="M35.572 14L3.2 14.092l14.837 26.07v16.841H13V60h13v-2.997h-5V40.28z" fill="#F9F5D7"/>
    <path d="M8.168 17.043c.729 1.473 6.654 11.831 8.053 14.056.81 1.29 1.711 2.34 2.299 2.683.516.301 1.108.325 1.62.06.56-.288 1.668-1.564 2.471-2.846 1.317-2.101 7.29-12.535 7.998-13.953z" fill="#9D0006"/>
    <path d="M41.585 20.56c-2.188-1.503-3.342-4.778-4.946-6.18-.902-.789-.887-1.388.289-1.317 1.142.068 2.703.396 4.575 1.374 0 0-.688-6.873-3.668-10.366-.782-.917-.663-1.258.46-.885 2.45.812 5.898 3.154 7.787 6.495 0 0 4.529-6.835 10.826-6.678 1.178.029 1.25.757.277 1.45-2.304 1.64-6.108 5.142-6.167 10.065 0 0 1.45-1.617 4.214-1.442 1.79.114 3.96 1.481 6.249 3.486.9.789.583 1.495-.594 1.548-2.68.12-7.142.56-8.919 2.984 0 0 2.628-.359 3.05.648.411.982.011 2.798-1.59 3.116-4.021.801-8.42-1.945-11.843-4.297z" fill="#B7BB25"/>
    <path d="M57.117 43.766a16.175 20.704 14.613 0 1-20.942 15.795 16.175 20.704 14.613 0 1-10.292-24.219 16.175 20.704 14.613 0 1 20.944-15.795 16.175 20.704 14.613 0 1 10.29 24.22z" fill="#B57514"/>
    <path d="M47.795 19.743a1.48 1.48 0 0 0-.06 1.554l1.467 2.57a1.458 1.458 0 0 0 2.008.54l1.904-1.11a16.175 20.776 14.618 0 0-5.32-3.554zm-3.368-.713a16.175 20.776 14.618 0 0-5.944.936l.681 1.193a1.458 1.458 0 0 0 2.008.541l2.547-1.486c.441-.258.675-.71.708-1.184zm1.141 2.32a1.453 1.453 0 0 0-1.115.15l-2.548 1.485a1.49 1.49 0 0 0-.54 2.028l1.468 2.573a1.458 1.458 0 0 0 2.007.541l2.548-1.49a1.49 1.49 0 0 0 .54-2.027l-1.467-2.57a1.465 1.465 0 0 0-.892-.69zm8.515 3.095l-2.14 1.248a1.49 1.49 0 0 0-.54 2.028l1.468 2.572a1.458 1.458 0 0 0 2.007.541l1.957-1.141a16.175 20.776 14.618 0 0-2.753-5.249zM37.12 20.552a16.175 20.776 14.618 0 0-4.816 3.466l.49.859a1.458 1.458 0 0 0 2.008.541l2.548-1.489a1.49 1.49 0 0 0 .54-2.028l-.77-1.348zm2.08 4.512a1.453 1.453 0 0 0-1.115.15l-2.548 1.488a1.49 1.49 0 0 0-.54 2.028l1.468 2.57a1.458 1.458 0 0 0 2.007.541l2.548-1.486a1.49 1.49 0 0 0 .54-2.028l-1.468-2.572a1.462 1.462 0 0 0-.892-.691zm10.038 2.707a1.453 1.453 0 0 0-1.115.15l-2.548 1.489a1.49 1.49 0 0 0-.54 2.028l1.468 2.569a1.458 1.458 0 0 0 2.007.542l2.548-1.487a1.49 1.49 0 0 0 .54-2.028l-1.468-2.572a1.462 1.462 0 0 0-.892-.69zm8.028 3.381l-1.653.965a1.49 1.49 0 0 0-.54 2.028l1.47 2.57c.303.53.874.796 1.438.73a16.175 20.776 14.618 0 0-.715-6.293zm-26.022-6.019a16.175 20.776 14.618 0 0-2.848 4.011c.011-.006.025-.004.036-.01l2.55-1.487a1.49 1.49 0 0 0 .54-2.028l-.278-.483zm1.588 3.647a1.456 1.456 0 0 0-1.116.152l-2.55 1.486a1.49 1.49 0 0 0-.54 2.028l1.47 2.57a1.458 1.458 0 0 0 2.008.541l2.547-1.486a1.49 1.49 0 0 0 .54-2.028l-1.468-2.568a1.467 1.467 0 0 0-.891-.694zm10.038 2.707a1.456 1.456 0 0 0-1.116.152l-2.548 1.487a1.49 1.49 0 0 0-.54 2.028l1.468 2.57a1.458 1.458 0 0 0 2.008.54l2.547-1.486a1.49 1.49 0 0 0 .54-2.028l-1.468-2.567a1.464 1.464 0 0 0-.89-.694zm10.038 2.708a1.456 1.456 0 0 0-1.116.152l-2.548 1.486a1.49 1.49 0 0 0-.54 2.028l1.468 2.57a1.458 1.458 0 0 0 2.008.541l2.55-1.486a1.49 1.49 0 0 0 .54-2.027l-1.47-2.57a1.465 1.465 0 0 0-.892-.693zm-16.406 1.009a1.456 1.456 0 0 0-1.116.152l-2.548 1.486a1.49 1.49 0 0 0-.54 2.028l1.468 2.57a1.458 1.458 0 0 0 2.008.541l2.548-1.486a1.49 1.49 0 0 0 .54-2.028l-1.468-2.57a1.465 1.465 0 0 0-.892-.693zM46.54 37.91a1.456 1.456 0 0 0-1.116.152l-2.548 1.487a1.49 1.49 0 0 0-.54 2.027l1.468 2.57a1.458 1.458 0 0 0 2.008.541l2.548-1.486a1.49 1.49 0 0 0 .54-2.028l-1.468-2.57a1.465 1.465 0 0 0-.892-.693zm10.041 2.708a1.456 1.456 0 0 0-1.116.152l-2.55 1.486a1.49 1.49 0 0 0-.54 2.028l1.47 2.57c.402.704 1.28.942 1.982.55a16.175 20.776 14.618 0 0 1.29-3.695 16.175 20.776 14.618 0 0 .468-2.2l-.112-.196a1.465 1.465 0 0 0-.89-.694zm-29.825-7.978a16.175 20.776 14.618 0 0-.873 2.645 16.175 20.776 14.618 0 0-.743 4.173c.203-.02.405-.075.593-.185l2.55-1.485a1.49 1.49 0 0 0 .54-2.028l-1.469-2.57c-.144-.253-.36-.422-.598-.549zm3.377 6.281a1.453 1.453 0 0 0-1.115.15l-2.55 1.485a1.49 1.49 0 0 0-.54 2.028l1.47 2.57a1.458 1.458 0 0 0 2.008.542l2.547-1.486a1.49 1.49 0 0 0 .54-2.028l-1.467-2.568a1.463 1.463 0 0 0-.892-.69zm10.038 2.708a1.453 1.453 0 0 0-1.115.15l-2.548 1.486a1.49 1.49 0 0 0-.54 2.027l1.468 2.57a1.458 1.458 0 0 0 2.008.541l2.547-1.486a1.49 1.49 0 0 0 .54-2.028l-1.467-2.567a1.46 1.46 0 0 0-.892-.691zm10.038 2.707a1.453 1.453 0 0 0-1.115.15l-2.548 1.486a1.49 1.49 0 0 0-.54 2.028l1.468 2.57a1.458 1.458 0 0 0 2.008.54l2.55-1.485a1.49 1.49 0 0 0 .54-2.028l-1.47-2.568a1.46 1.46 0 0 0-.892-.691zm-16.405 1.01a1.453 1.453 0 0 0-1.115.15l-2.548 1.486a1.49 1.49 0 0 0-.54 2.028l1.467 2.572a1.458 1.458 0 0 0 2.008.542l2.548-1.49a1.49 1.49 0 0 0 .54-2.027l-1.468-2.57a1.463 1.463 0 0 0-.891-.69zm10.038 2.708a1.453 1.453 0 0 0-1.115.15l-2.548 1.486a1.49 1.49 0 0 0-.54 2.028l1.467 2.572a1.458 1.458 0 0 0 2.008.541l2.548-1.489a1.49 1.49 0 0 0 .54-2.028l-1.467-2.57a1.46 1.46 0 0 0-.892-.69zm10.041 2.708a1.453 1.453 0 0 0-1.115.15l-2.55 1.485a1.49 1.49 0 0 0-.54 2.028l.567.994a16.175 20.776 14.618 0 0 3.775-4.59c-.048-.018-.088-.054-.137-.067zm-28.776-6.648a16.175 20.776 14.618 0 0 .62 3.689c.58-.447.774-1.248.4-1.904l-1.02-1.785zm2.33 4.948a1.453 1.453 0 0 0-1.116.15l-.155.09a16.175 20.776 14.618 0 0 2.752 5.248l.337-.197a1.49 1.49 0 0 0 .54-2.028l-1.467-2.575a1.47 1.47 0 0 0-.892-.69zm10.037 2.708a1.453 1.453 0 0 0-1.115.15l-2.549 1.488a1.49 1.49 0 0 0-.54 2.028l1.468 2.57a1.458 1.458 0 0 0 2.008.541l2.547-1.486a1.49 1.49 0 0 0 .54-2.028l-1.466-2.574a1.467 1.467 0 0 0-.892-.69zm10.038 2.707a1.453 1.453 0 0 0-1.115.15l-2.549 1.489a1.49 1.49 0 0 0-.54 2.028l.635 1.11a16.175 20.776 14.618 0 0 5.156-2.869l-.695-1.217a1.462 1.462 0 0 0-.892-.69zm-16.406 1.01a1.456 1.456 0 0 0-1.116.151l-.102.06a16.175 20.776 14.618 0 0 3.368 2.685l-1.259-2.203a1.465 1.465 0 0 0-.89-.694zm10.038 2.706a1.456 1.456 0 0 0-1.116.153l-2.548 1.486c-.005.003-.007.009-.012.012a16.175 20.776 14.618 0 0 5.007-.187l-.44-.77a1.465 1.465 0 0 0-.89-.694z" opacity=".3"/>
    <path d="M35.572 14L3.2 14.092l.569.998 31.25-.088.554-1.002zM13 57.004v1h5.037v-1H13zm8 0v1h5v-1h-5zM56.908 3.002C50.611 2.845 46.082 9.68 46.082 9.68c-1.889-3.341-5.337-5.682-7.787-6.494-1.122-.373-1.241-.032-.46.884.005.005.007.01.01.014.135.023.258.038.45.102 2.45.812 5.898 3.153 7.787 6.494 0 0 4.529-6.835 10.826-6.678.277.007.487.056.643.13.548-.58.353-1.105-.643-1.13zm-19.98 10.06c-1.036-.061-1.169.395-.57 1.043.145-.038.327-.057.57-.043 1.142.069 2.704.397 4.576 1.376 0 0-.049-.435-.147-1.067-1.805-.918-3.318-1.242-4.43-1.309zm18.304.014c-2.558-.162-3.936 1.163-4.134 1.367a9.551 9.551 0 0 0-.08 1.075s1.451-1.617 4.214-1.442c1.791.113 3.96 1.482 6.248 3.486.113.1.206.195.282.29.369-.284.316-.766-.282-1.29-2.288-2.004-4.457-3.373-6.248-3.486zm-1.896 7.965c-.101-.005-.174.005-.272.004-.424.301-.8.645-1.095 1.049 0 0 2.627-.359 3.049.648.043.104.072.22.097.34.096-.482.057-.97-.097-1.34-.211-.503-.972-.665-1.682-.701z" fill="#F9F5D7" opacity=".2"/>
</svg>
