<svg xmlns="http://www.w3.org/2000/svg" width="64" height="64" version="1">
    <path d="M14.245 45C9.973 45 3 47.449 3 53.239v1.182A5.567 5.567 0 0 0 8.579 60H50.42A5.567 5.567 0 0 0 56 54.421v-2.79S56 57 46.237 57c-11.455 0-20.922-12-31.992-12z" opacity=".2"/>
    <path d="M55.26 53.99l.74-2.203V11.579A5.567 5.567 0 0 0 50.421 6H8.58A5.567 5.567 0 0 0 3 11.579V51.73l.672 1.691c1.14 2.872 2.557 4.553 5.648 4.553h40.076c3.09 0 4.879-1.054 5.863-3.983z" fill="#7B6F64"/>
    <path d="M29.5 14C19.835 14 12 21.835 12 31.5v.5h35v-.5C47 21.835 39.165 14 29.5 14z" opacity=".2"/>
    <path d="M29.5 13C19.835 13 12 20.835 12 30.5v.5h35v-.5C47 20.835 39.165 13 29.5 13z" fill="#F9BD2E"/>
    <path d="M23 22h.692L32 31h-6.923z" fill="#C77089"/>
    <path d="M48.007 35c-3.47 0-7.883 1.187-8.007 6.66.044 4.552 2.11 6.851 4.464 6.194 2.778-1.519 2.712 1.078 2.817 1.974.545 1.81 1.604 2.283 3.24 2.151h.098v.009h1.434v-.006l.426-.003c1.636.132 2.698-.341 3.243-2.15.105-.897.036-3.494 2.814-1.975 2.354.657 4.42-1.642 4.464-6.193-.124-5.474-4.536-6.66-8.007-6.66H50.62z" opacity=".2"/>
    <path d="M48.007 34c-3.47 0-7.883 1.187-8.007 6.66.044 4.552 2.11 6.851 4.464 6.194 2.778-1.519 2.712 1.078 2.817 1.974.545 1.81 1.604 2.283 3.24 2.151h.098v.009h1.434v-.006l.426-.003c1.636.132 2.698-.341 3.243-2.15.105-.897.036-3.494 2.814-1.975 2.354.657 4.42-1.642 4.464-6.193-.124-5.474-4.536-6.66-8.007-6.66H50.62z" fill="#C77089"/>
    <path d="M14.245 44C9.973 44 3 46.449 3 52.239v1.182A5.567 5.567 0 0 0 8.579 59H50.42A5.567 5.567 0 0 0 56 53.421v-2.79S56 56 46.237 56c-11.455 0-20.922-12-31.992-12z" fill="#F9F5D7"/>
    <path d="M17 44.246V59h3V45.012c-.99-.327-1.99-.594-3-.766zm-8 .766c-1.072.408-2.101.948-3 1.625v11.732c.771.401 1.646.631 2.578.631H9V45.012zm19 3.799V59h3v-8.49c-1-.577-2.002-1.132-3-1.7zm11 5.709V59h3v-3.523c-1.013-.243-2.01-.581-3-.957zm14 .136c-.777.414-1.767.763-3 1.004V59h.422c.932 0 1.807-.23 2.578-.63v-3.714z" fill="#3A393A"/>
    <path d="M14.244 44C9.972 44 3 46.448 3 52.238v1C3 47.448 9.972 45 14.244 45c11.07 0 20.537 12 31.992 12C56 57 56 51.63 56 51.63v-1S56 56 46.236 56c-11.455 0-20.922-12-31.992-12z" opacity=".2"/>
    <path d="M8.578 6A5.565 5.565 0 0 0 3 11.578v1A5.565 5.565 0 0 1 8.578 7h41.844A5.565 5.565 0 0 1 56 12.578v-1A5.565 5.565 0 0 0 50.422 6H8.578z" fill="#F9F5D7" opacity=".1"/>
    <path d="M29.5 13C19.835 13 12 20.835 12 30.5v.5h.025c.268-9.432 7.979-17 17.475-17 9.496 0 17.207 7.568 17.475 17H47v-.5C47 20.835 39.165 13 29.5 13zM48.006 34c-3.47 0-7.882 1.187-8.006 6.66.002.186.027.345.035.524.369-5.056 4.606-6.184 7.97-6.184h6.989c3.365 0 7.602 1.128 7.97 6.184.01-.179.034-.338.036-.524-.124-5.473-4.535-6.66-8.006-6.66H48.006z" fill="#F9F5D7" opacity=".2"/>
</svg>
