<svg xmlns="http://www.w3.org/2000/svg" width="64" height="64" version="1">
    <path d="M10 54.2v2c0 1.55 1.25 2.8 2.8 2.8h38.4c1.55 0 2.8-1.25 2.8-2.8v-2c0 1.55-1.25 2.8-2.8 2.8H12.8c-1.55 0-2.8-1.25-2.8-2.8z" opacity=".2"/>
    <path d="M54 55.2V6.8C54 5.249 52.752 4 51.2 4H12.8A2.794 2.794 0 0 0 10 6.8v48.4c0 1.552 1.249 2.8 2.8 2.8h38.4c1.551 0 2.8-1.249 2.8-2.8z" fill="#504945"/>
    <path d="M29 9v10h6V9zm0 18v10h6V27zm0 18v10h6V45z" opacity=".2"/>
    <path d="M29 8v10h6V8zm0 18v10h6V26zm0 18v10h6V44z" fill="#F9F5D7"/>
    <path d="M12.8 4C11.25 4 10 5.25 10 6.8v1C10 6.25 11.25 5 12.8 5h38.401C52.751 5 54 6.25 54 7.8v-1C54 5.25 52.751 4 51.201 4h-38.4z" opacity=".1" fill="#F9F5D7"/>
    <path d="M63.958 45.848A16 16 0 0 1 48 61a16 16 0 0 1-15.958-14.848A16 16 0 0 0 32 47a16 16 0 0 0 16 16 16 16 0 0 0 16-16 16 16 0 0 0-.043-1.152z" opacity=".2" fill-rule="evenodd"/>
    <circle cx="48" cy="46" r="16" fill="#066678"/>
    <path d="M46 32v4.203A10 10 0 0 0 38.21 44H34v4h4.203A10 10 0 0 0 46 55.79V60h4v-4.203A10 10 0 0 0 57.79 48H62v-4h-4.203A10 10 0 0 0 50 36.21V32h-4zm2 9a5 5 0 0 1 5 5 5 5 0 0 1-5 5 5 5 0 0 1-5-5 5 5 0 0 1 5-5z" fill="#F9F5D7"/>
</svg>
