<svg xmlns="http://www.w3.org/2000/svg" width="64" height="64" version="1">
    <rect width="56" height="56" x="4" y="5" rx="28" ry="28" opacity=".2"/>
    <rect width="56" height="56" x="4" y="4" rx="28" ry="28" fill="#CB241D"/>
    <path d="M32 4c-2.063 0-4.066.237-6 .656v12.86l-9.094-9.098a27.96 27.96 0 0 0-8.488 8.488L17.516 26H4.656C4.236 27.934 4 29.937 4 32s.237 4.066.656 6h12.86l-9.098 9.094a27.96 27.96 0 0 0 8.488 8.488L26 46.484v12.86c1.934.42 3.937.656 6 .656s4.066-.237 6-.656v-12.86l9.094 9.098a27.96 27.96 0 0 0 8.488-8.488L46.484 38h12.86c.42-1.934.656-3.937.656-6s-.237-4.066-.656-6h-12.86l9.098-9.094a27.96 27.96 0 0 0-8.488-8.488L38 17.516V4.656A28.245 28.245 0 0 0 32 4z" fill="#F9F5D7"/>
    <rect width="48" height="48" x="-56" y="-56" rx="24" ry="24" transform="matrix(0 -1 -1 0 0 0)" fill="#F9BD2E"/>
    <rect width="40" height="40" x="-52" y="-52" rx="20" ry="20" transform="matrix(0 -1 -1 0 0 0)" fill="#CB241D"/>
    <path d="M19 23v4h4v16h4V27h4v-4zm14 0v20h4v-8h4v8h4V23h-4v8h-4v-8z" opacity=".2"/>
    <g fill="#F9F5D7">
        <path d="M23 22h4v20h-4z"/>
        <path d="M31 22v4H19v-4zM33 22h4v20h-4z"/>
        <path d="M45 30v4H33v-4z"/>
        <path d="M41 22h4v20h-4z"/>
    </g>
    <path d="M32 4C16.488 4 4 16.488 4 32c0 .113.011.224.018.336C4.369 17.134 16.71 5 32 5s27.63 12.134 27.982 27.336c.007-.112.018-.223.018-.336C60 16.488 47.512 4 32 4z" opacity=".1" fill="#F9F5D7"/>
</svg>
