<svg xmlns="http://www.w3.org/2000/svg" width="64" height="64">
    <g transform="translate(0 -988.4)">
        <circle cx="32" cy="1020.4" r="28" fill="#F9F5D7"/>
        <path d="M32 998.4a24 17 0 0 0-24 17 24 17 0 0 0 24 17 24 17 0 0 0 24-17 24 17 0 0 0-24-17zm4 6a18 11 0 0 1 18 11 18 11 0 0 1-18 11 18 11 0 0 1-18-11 18 11 0 0 1 18-11z" opacity=".2"/>
        <path d="M46.2 1023.35s.774-.221 1.546.173c.268.136.732.41 1.066.77.328.35.488.707.488.707l4.7 9.4H44s-2.235-6.532-4.326-9.328c-.417-.34-.764-.705-1.174-.672H36v9.995h-8V1006.4h15.157c1.643 0 8.6 1 8.843 8-.243 7-5.8 9-5.8 9zM36 1012.35v6.002h6s2 .072 2-3c0-3.227-2-2.999-2-2.999z" fill="#066678" fill-rule="evenodd"/>
        <path d="M32 992.4v.03a28 28 0 0 0-28 28 28 28 0 0 0 .018.49A28 28 0 0 1 32 993.427v-.027a28 28 0 0 1 27.975 27.484 28 28 0 0 0 .025-.484 28 28 0 0 0-28-28z" opacity=".2" fill="#F9F5D7"/>
        <path d="M4.023 1020.873a28 28 0 0 0-.023.527 28 28 0 0 0 28 28 28 28 0 0 0 28-28 28 28 0 0 0-.018-.492A28 28 0 0 1 32 1048.4a28 28 0 0 1-27.977-27.527z" opacity=".2"/>
    </g>
</svg>
