<svg xmlns="http://www.w3.org/2000/svg" width="64" height="64" version="1">
    <path d="M26.839 5c-1.52 0-2.83 1.249-2.83 2.8v27.937l-9.371-7.839c-1.178-.984-2.804-1.096-3.878 0l-1.938 1.98c-1.074 1.097-1.117 2.906 0 3.96l15.738 14.85C26.322 56.25 32.936 60.992 40.55 61 49.635 61 56 53.478 56 44.2V7.8C56 6.25 54.979 5 53.46 5h-2.742c-1.52 0-2.716 1.249-2.716 2.8v15.796c0-.996-1.25-2.596-2.768-2.596H43.29c-1.52 0-3.286 1.6-3.286 2.596v.011c0-1.002-.68-2.607-2.198-2.607h-2.742c-1.52 0-3.058 1.605-3.058 2.607V7.8c0-1.551-.907-2.8-2.426-2.8h-2.742z" opacity=".2"/>
    <path d="M26.839 4c-1.52 0-2.83 1.249-2.83 2.8v27.937L14.639 26.9c-1.178-.985-2.804-1.097-3.878 0l-1.938 1.98c-1.074 1.096-1.117 2.905 0 3.959l15.738 14.85C26.322 55.251 32.936 59.992 40.55 60 49.635 60 56 52.478 56 43.2V6.8C56 5.25 54.979 4 53.46 4h-2.742c-1.52 0-2.716 1.249-2.716 2.8v15.796c0-.996-1.25-2.596-2.768-2.596H43.29c-1.52 0-3.286 1.6-3.286 2.596v.011c0-1.002-.68-2.607-2.198-2.607h-2.742c-1.52 0-3.058 1.606-3.058 2.607V6.8c0-1.551-.907-2.8-2.426-2.8h-2.742z" fill="#E6D3A3"/>
    <path d="M26.838 4c-1.518.001-2.828 1.25-2.828 2.8v1c0-1.55 1.31-2.799 2.828-2.8h2.742c1.52 0 2.428 1.25 2.428 2.8v-1c0-1.55-.909-2.8-2.428-2.8h-2.742zm23.879 0c-1.52 0-2.715 1.25-2.715 2.8v1c0-1.55 1.196-2.8 2.715-2.8h2.742C54.978 5 56 6.25 56 7.8v-1C56 5.25 54.978 4 53.459 4h-2.742zM35.064 20c-1.519 0-3.056 1.606-3.056 2.607v1c0-1.001 1.537-2.607 3.056-2.607h2.743c1.513 0 2.194 1.593 2.199 2.596 0-.996 1.766-2.596 3.285-2.596h1.943c1.52 0 2.768 1.6 2.768 2.596v-1c0-.996-1.249-2.596-2.768-2.596h-1.943c-1.519 0-3.285 1.6-3.285 2.596C40 21.593 39.32 20 37.806 20h-2.742zM12.66 26.117a2.543 2.543 0 0 0-1.9.781l-1.938 1.98a2.882 2.882 0 0 0-.775 2.532c.096-.56.354-1.1.775-1.531l1.938-1.98c1.074-1.097 2.7-.985 3.877 0l9.373 7.837v-1l-9.373-7.838c-.59-.492-1.289-.767-1.977-.78z" fill="#F9F5D7" opacity=".2"/>
</svg>
