<svg xmlns="http://www.w3.org/2000/svg" width="64" height="64" version="1">
    <rect width="56" height="56" x="4" y="5" rx="2.8" ry="2.8" opacity=".2"/>
    <rect width="56" height="56" x="4" y="4" rx="2.8" ry="2.8" fill="#066678"/>
    <path d="M20.262 10.8c-.13-.08-1.216.64-2.086 1.383-1.21 1.033-2.453 2.781-3.098 4.344-.99 2.403-1.155 5.362-.437 7.871.446 1.56 1.867 4.13 2.273 4.113.091-.004.397-.286.68-.628.283-.344.52-.667.52-.72 0-.052-.2-.42-.442-.812-.56-.908-.975-1.91-1.246-3.004-.297-1.194-.303-3.153-.008-4.347.585-2.375 1.924-4.358 3.922-5.809.448-.325.816-.604.816-.617 0-.108-.815-1.725-.894-1.774zm14.468.2c-2.621-.056-5.343.903-7.32 2.187-.964.637-.864.827.149.281 1.684-.907 3.331-1.267 5.812-1.27 3.174-.002 4.944.493 6.774 1.895l.773.594.988.008c.543.005 1.207.048 1.477.09.713.11.817.112.879.012.13-.233-2.121-1.887-3.43-2.516C38.843 11.27 36.73 11.049 34.73 11zm-12.363 3.058c-.233 0-1.254.42-1.984 1.192-1.176 1.243-1.924 2.72-2.25 4.445-.33 1.743-.041 3.988.703 5.477.381.762.762 1.343.879 1.343.057 0 .299-.232.539-.515.786-.928.752-.773.355-1.621-.523-1.12-.694-1.872-.695-3.067 0-2.19 1.051-4.322 2.73-5.543.298-.216.541-.47.544-.566.006-.272-.67-1.145-.82-1.145zM27 17a5 5 0 1 0 0 10 5 5 0 0 0 0-10zm14 0a5 5 0 1 0 0 10 5 5 0 0 0 0-10zm-14.002 2A3.002 3.002 0 0 1 30 21.998 3.005 3.005 0 0 1 26.998 25 3.002 3.002 0 0 1 24 21.998 2.998 2.998 0 0 1 26.998 19zm14 0A3.002 3.002 0 0 1 44 21.998 3.005 3.005 0 0 1 40.998 25 3.002 3.002 0 0 1 38 21.998 2.998 2.998 0 0 1 40.998 19zm-14.232 1.136c-.249.015-.469.047-.508.086-.028.028-.01.205.043.391.18.64-.187 1.037-.785.855-.16-.048-.303-.056-.344-.015-.039.038-.06.334-.043.656.024.476.073.648.25.914.242.365.713.709 1.105.809.386.098 1.029.025 1.375-.153.942-.482 1.295-1.657.782-2.597-.25-.457-.755-.85-1.203-.934-.15-.028-.424-.027-.672-.012zm14 0c-.249.015-.469.047-.508.086-.028.028-.01.205.043.391.18.64-.187 1.037-.785.855-.16-.048-.303-.056-.344-.015-.039.038-.06.334-.043.656.024.476.073.648.25.914.242.365.713.709 1.105.809.386.098 1.029.025 1.375-.153.942-.482 1.295-1.657.782-2.597-.25-.457-.755-.85-1.203-.934-.15-.028-.424-.027-.672-.012zM34 23c-.669 0-1.061.294-1.371 1.033-.264.63-.107 2.138.338 3.201.253.606.947 1.766 1.054 1.766.037 0 .203-.184.364-.41.642-.903 1.097-2.448 1.113-3.766.009-.689-.009-.767-.238-1.113-.336-.508-.694-.711-1.26-.711zm14.066 1.511c-.074.018-.773.651-1.554 1.407l-1.418 1.375-.067 1.48c-.29 6.74-2.572 12.211-6.879 16.477-3.254 3.223-8.16 5.882-13.187 7.105-1.536.374-5.384.929-5.516.797-.062-.062.03-.282.258-.625.848-1.277 1.513-2.947 1.828-4.598.31-1.623.344-2.74.156-5.082-.207-2.582-.154-4.328.133-5.668.411-1.912 1.235-3.422 2.305-4.226 1.308-.983 2.523-1.418 3.969-1.418 3.28 0 6.596 2.297 7.26 5.402.203.951.125 3.057-.157 4.453-.653 3.245-2.742 5.581-5.185 7.653-.468.396-1.007.866-1.2 1.043l-.347.32.293-.11c.162-.058.737-.369 1.277-.69 4.065-2.427 6.744-4.886 7.611-8.997.266-1.257.375-3.546.208-4.512-.275-1.579-1.223-3.235-2.59-4.523-2.825-2.66-7.18-3.278-10.737-1.613-1.827.854-3.408 2.288-4.183 3.793-1.276 2.476-1.492 4.856-.676 9.093.275 1.427.402 2.545.402 3.532 0 3.15-1.104 6.13-3.082 8.308-.301.333-.55.628-.55.66 0 .099.239.067 1.414-.187.623-.135 2.073-.38 3.222-.543 4.405-.628 7.553-1.577 11.219-3.387 4.532-2.237 8.079-5.233 10.781-9.035 2.763-3.887 4.5-8.865 4.922-14.117.2-2.491.22-3.602.07-3.567z" opacity=".2"/>
    <path d="M20.262 9.8c-.13-.08-1.216.64-2.086 1.384-1.21 1.033-2.453 2.78-3.098 4.343-.99 2.403-1.155 5.363-.437 7.871.446 1.56 1.867 4.13 2.273 4.114.091-.004.397-.287.68-.63.283-.343.52-.665.52-.718 0-.053-.2-.42-.442-.812-.56-.91-.975-1.911-1.246-3.004-.297-1.194-.303-3.154-.008-4.348.585-2.375 1.924-4.358 3.922-5.809.447-.325.816-.604.816-.617 0-.108-.815-1.724-.894-1.773zm14.468.2c-2.621-.056-5.343.904-7.32 2.188-.964.637-.864.826.149.28 1.684-.907 3.331-1.267 5.812-1.269 3.174-.002 4.944.492 6.774 1.895l.773.594.988.007c.543.006 1.207.048 1.477.09.713.111.817.112.879.012.13-.233-2.121-1.886-3.43-2.516C38.843 10.27 36.73 10.05 34.73 10zm-12.363 3.059c-.233 0-1.254.42-1.984 1.191-1.176 1.243-1.924 2.72-2.25 4.445-.33 1.744-.041 3.988.703 5.477.381.762.762 1.343.879 1.344.057 0 .299-.233.539-.516.786-.928.752-.772.355-1.621-.523-1.12-.694-1.872-.695-3.067 0-2.189 1.051-4.322 2.73-5.542.298-.216.541-.471.544-.567.006-.272-.67-1.144-.82-1.144zM27 16a5 5 0 1 0 0 10 5 5 0 0 0 0-10zm14 0a5 5 0 1 0 0 10 5 5 0 0 0 0-10zm-14.002 2A3.002 3.002 0 0 1 30 20.998 3.005 3.005 0 0 1 26.998 24 3.002 3.002 0 0 1 24 20.998 2.998 2.998 0 0 1 26.998 18zm14 0A3.002 3.002 0 0 1 44 20.998 3.005 3.005 0 0 1 40.998 24 3.002 3.002 0 0 1 38 20.998 2.998 2.998 0 0 1 40.998 18zm-14.232 1.137c-.249.015-.469.046-.508.086-.028.027-.01.204.043.39.18.64-.187 1.037-.785.856-.16-.049-.303-.057-.344-.016-.039.039-.06.334-.043.656.024.477.073.648.25.914.242.365.713.71 1.105.809.386.098 1.029.025 1.375-.152.942-.483 1.295-1.658.782-2.598-.25-.456-.755-.85-1.203-.934-.15-.028-.424-.026-.672-.011zm14 0c-.249.015-.469.046-.508.086-.028.027-.01.204.043.39.18.64-.187 1.037-.785.856-.16-.049-.303-.057-.344-.016-.039.039-.06.334-.043.656.024.477.073.648.25.914.242.365.713.71 1.105.809.386.098 1.029.025 1.375-.152.942-.483 1.295-1.658.782-2.598-.25-.456-.755-.85-1.203-.934-.15-.028-.424-.026-.672-.011zM34 22c-.669 0-1.061.294-1.371 1.033-.264.63-.107 2.138.338 3.201.253.606.947 1.766 1.054 1.766.037 0 .203-.184.364-.41.642-.903 1.097-2.447 1.113-3.766.009-.688-.009-.766-.238-1.113-.336-.508-.694-.71-1.26-.711zm14.066 1.512c-.074.017-.773.65-1.554 1.406l-1.418 1.375-.067 1.48c-.29 6.741-2.572 12.211-6.879 16.477-3.254 3.224-8.16 5.882-13.187 7.105-1.536.374-5.384.93-5.516.797-.062-.062.03-.282.258-.625.848-1.277 1.513-2.947 1.828-4.597.31-1.624.344-2.74.157-5.082-.208-2.583-.155-4.33.132-5.668.411-1.912 1.235-3.423 2.305-4.227 1.308-.983 2.523-1.418 3.969-1.418 3.28 0 6.596 2.297 7.26 5.402.203.952.125 3.057-.157 4.454-.653 3.244-2.742 5.58-5.185 7.652-.468.397-1.007.867-1.2 1.043l-.347.32.293-.11c.162-.058.737-.368 1.277-.69 4.065-2.427 6.744-4.886 7.611-8.997.266-1.257.375-3.545.208-4.511-.275-1.58-1.223-3.236-2.59-4.524-2.825-2.66-7.18-3.277-10.737-1.613-1.827.855-3.408 2.289-4.183 3.793-1.276 2.476-1.492 4.856-.676 9.094.275 1.427.402 2.544.402 3.53 0 3.152-1.104 6.131-3.082 8.31-.301.332-.55.628-.55.66 0 .098.239.066 1.414-.188.623-.135 2.073-.38 3.222-.543 4.405-.628 7.553-1.576 11.219-3.387 4.532-2.237 8.079-5.233 10.781-9.035 2.763-3.886 4.5-8.864 4.922-14.117.2-2.491.22-3.602.07-3.566z" fill="#F9F5D7"/>
    <path d="M6.8 4C5.25 4 4 5.25 4 6.8v1C4 6.25 5.25 5 6.8 5h50.4C58.75 5 60 6.25 60 7.8v-1C60 5.25 58.75 4 57.2 4H6.8z" opacity=".2" fill="#F9F5D7"/>
</svg>
