<svg xmlns="http://www.w3.org/2000/svg" width="64" height="64" version="1">
    <path d="M32 4.998c-4.432 0-8 3.568-8 8v9.34l-3.543-3.543a6.111 6.111 0 0 0-8.66 0 6.111 6.111 0 0 0 0 8.66L23.34 38.998 11.797 50.541a6.111 6.111 0 0 0 0 8.66 6.111 6.111 0 0 0 8.66 0l7.39-7.39c1.213.738 2.624 1.187 4.153 1.187 1.529 0 2.94-.45 4.152-1.187l7.391 7.39a6.111 6.111 0 0 0 8.66 0 6.111 6.111 0 0 0 0-8.66L40.66 38.998l11.543-11.543a6.111 6.111 0 0 0 0-8.66 6.111 6.111 0 0 0-8.66 0L40 22.338v-9.34c0-4.432-3.568-8-8-8z" opacity=".2"/>
    <path d="M32 4c-4.432 0-8 3.568-8 8v9.34l-3.543-3.543a6.111 6.111 0 0 0-8.66 0 6.111 6.111 0 0 0 0 8.66L23.34 38 11.797 49.543a6.111 6.111 0 0 0 0 8.66 6.111 6.111 0 0 0 8.66 0l7.39-7.39C29.06 51.55 30.472 52 32 52c1.529 0 2.94-.45 4.152-1.188l7.391 7.391a6.111 6.111 0 0 0 8.66 0 6.111 6.111 0 0 0 0-8.66L40.66 38l11.543-11.543a6.111 6.111 0 0 0 0-8.66 6.111 6.111 0 0 0-8.66 0L40 21.34V12c0-4.432-3.568-8-8-8z" fill="#417B58"/>
    <path d="M32 4c-4.432 0-8 3.568-8 8v1c0-4.432 3.568-8 8-8s8 3.568 8 8v-1c0-4.432-3.568-8-8-8zM16.125 16a6.098 6.098 0 0 0-4.328 1.797 6.079 6.079 0 0 0-1.76 4.8 6.064 6.064 0 0 1 1.76-3.8A6.098 6.098 0 0 1 16.125 17c1.565 0 3.133.598 4.332 1.797L24 22.34v-1l-3.543-3.543A6.107 6.107 0 0 0 16.125 16zm31.746 0a6.098 6.098 0 0 0-4.328 1.797L40 21.34v1l3.543-3.543A6.098 6.098 0 0 1 47.871 17c1.566 0 3.133.598 4.332 1.797a6.064 6.064 0 0 1 1.76 3.8 6.079 6.079 0 0 0-1.76-4.8A6.107 6.107 0 0 0 47.871 16zM22.34 39L11.797 49.543a6.079 6.079 0 0 0-1.76 4.8 6.064 6.064 0 0 1 1.76-3.8L22.34 40l.5.5.5-.5-1-1zm19.32 0l-1 1 .5.5.5-.5 10.543 10.543a6.064 6.064 0 0 1 1.76 3.8 6.079 6.079 0 0 0-1.76-4.8L41.66 39z" opacity=".1" fill="#F9F5D7"/>
    <rect width="42" height="40" x="-59" y="-52" rx="21" ry="20" transform="matrix(0 -1 -1 0 0 0)" opacity=".2"/>
    <rect width="42" height="40" x="-58" y="-52" rx="21" ry="20" transform="matrix(0 -1 -1 0 0 0)" fill="#7B6F64"/>
    <path d="M21.058 26.942a2 2 0 0 0-2.027 2.031h-.004v7.688a2 2 0 0 0-.004.02 2 2 0 0 0-.008.07 2 2 0 0 0-.011.163 2 2 0 0 0 .003.18 2 2 0 0 0 .008.094 2 2 0 0 0 .012.101v7.684a2 2 0 0 0 .027.34 2 2 0 0 0 .043.195 2 2 0 0 0 .059.188 2 2 0 0 0 0 .008 2 2 0 0 0 .074.171 2 2 0 0 0 .004.012 2 2 0 0 0 .098.168 2 2 0 0 0 .113.164 2 2 0 0 0 .129.153 2 2 0 0 0 .133.132 2 2 0 0 0 .011.008 2 2 0 0 0 .004.004 2 2 0 0 0 .153.117 2 2 0 0 0 .164.106 2 2 0 0 0 .011.008 2 2 0 0 0 .121.058 2 2 0 0 0 .075.035 2 2 0 0 0 .164.063 2 2 0 0 0 .344.078 2 2 0 0 0 .097.012 2 2 0 0 0 .031 0 2 2 0 0 0 .149.008 2 2 0 0 0 .144-.008 2 2 0 0 0 .024 0 2 2 0 0 0 .008 0 2 2 0 0 0 .097-.012 2 2 0 0 0 .344-.078 2 2 0 0 0 .18-.07 2 2 0 0 0 .004 0 2 2 0 0 0 .012-.004 2 2 0 0 0 .164-.086 2 2 0 0 0 .004 0 2 2 0 0 0 .007-.004 2 2 0 0 0 .317-.223 2 2 0 0 0 .015-.012 2 2 0 0 0 .133-.133 2 2 0 0 0 .13-.152 2 2 0 0 0 .112-.164 2 2 0 0 0 .098-.168 2 2 0 0 0 .004-.012 2 2 0 0 0 .074-.172 2 2 0 0 0 0-.007 2 2 0 0 0 .059-.188 2 2 0 0 0 .043-.195 2 2 0 0 0 .027-.34v-6h3.996v6a2 2 0 0 0 .028.34 2 2 0 0 0 .043.195 2 2 0 0 0 .058.188 2 2 0 0 0 0 .007 2 2 0 0 0 .074.172 2 2 0 0 0 .004.012 2 2 0 0 0 .098.168 2 2 0 0 0 .113.164 2 2 0 0 0 .13.152 2 2 0 0 0 .132.133 2 2 0 0 0 .012.008 2 2 0 0 0 .004.004 2 2 0 0 0 .152.117 2 2 0 0 0 .164.106 2 2 0 0 0 .008.004 2 2 0 0 0 .004.004 2 2 0 0 0 .121.058 2 2 0 0 0 .05.028 2 2 0 0 0 .024.007 2 2 0 0 0 .164.063 2 2 0 0 0 .344.078 2 2 0 0 0 .098.012 2 2 0 0 0 .031 0 2 2 0 0 0 .149.008 2 2 0 0 0 .144-.008 2 2 0 0 0 .024 0 2 2 0 0 0 .007 0 2 2 0 0 0 .098-.012 2 2 0 0 0 .344-.078 2 2 0 0 0 .18-.07 2 2 0 0 0 .003 0 2 2 0 0 0 .012-.004 2 2 0 0 0 .164-.086 2 2 0 0 0 .004 0 2 2 0 0 0 .008-.004 2 2 0 0 0 .316-.223 2 2 0 0 0 .004-.004 2 2 0 0 0 .012-.008 2 2 0 0 0 .133-.133 2 2 0 0 0 .129-.152 2 2 0 0 0 .113-.164 2 2 0 0 0 .098-.168 2 2 0 0 0 0-.004 2 2 0 0 0 .004-.008 2 2 0 0 0 .074-.172 2 2 0 0 0 0-.004 2 2 0 0 0 0-.004 2 2 0 0 0 .059-.187 2 2 0 0 0 .043-.196 2 2 0 0 0 .027-.34V37.29a2 2 0 0 0 .012-.102 2 2 0 0 0 .008-.093 2 2 0 0 0 .004-.11 2 2 0 0 0-.004-.117 2 2 0 0 0 0-.008 2 2 0 0 0 0-.02 2 2 0 0 0-.02-.163 2 2 0 0 0 0-.016v-7.687h-.004A2 2 0 0 0 29 26.942a2 2 0 0 0-1.348.554 2 2 0 0 0-.14.145 2 2 0 0 0-.098.125 2 2 0 0 0-.067.09 2 2 0 0 0-.023.035 2 2 0 0 0-.297 1.39v5.692h-3.996v-5.691a2 2 0 0 0-.297-1.391 2 2 0 0 0-.004-.008 2 2 0 0 0-.059-.086 2 2 0 0 0-.027-.031 2 2 0 0 0-.098-.125 2 2 0 0 0-.14-.145 2 2 0 0 0-1.348-.554zM39 31a6 6 0 0 0-6 6 6 6 0 0 0 6 6 6 6 0 0 0 1.484-.195c-.044.167-.072.364-.125.516-.287.824-.648 1.316-1.004 1.554-.356.24-.82.406-1.941.168a2 2 0 1 0-.828 3.914c1.878.399 3.665.134 4.996-.757 1.33-.892 2.095-2.232 2.558-3.567C45.067 41.965 45 39 45 37a2 2 0 0 0-.012-.23A6 6 0 0 0 39 31zm0 4a2 2 0 0 1 2 2 2 2 0 0 1-2 2 2 2 0 0 1-2-2 2 2 0 0 1 2-2z" opacity=".2"/>
    <path d="M21.058 25.941a2 2 0 0 0-2.027 2.032h-.004v7.687a2 2 0 0 0-.004.02 2 2 0 0 0-.008.07 2 2 0 0 0-.011.164 2 2 0 0 0 .003.18 2 2 0 0 0 .008.094 2 2 0 0 0 .012.101v7.684a2 2 0 0 0 .027.34 2 2 0 0 0 .043.195 2 2 0 0 0 .059.187 2 2 0 0 0 0 .008 2 2 0 0 0 .074.172 2 2 0 0 0 .004.012 2 2 0 0 0 .098.168 2 2 0 0 0 .113.164 2 2 0 0 0 .129.152 2 2 0 0 0 .133.133 2 2 0 0 0 .011.008 2 2 0 0 0 .004.004 2 2 0 0 0 .153.117 2 2 0 0 0 .164.105 2 2 0 0 0 .011.008 2 2 0 0 0 .121.059 2 2 0 0 0 .075.035 2 2 0 0 0 .164.063 2 2 0 0 0 .344.078 2 2 0 0 0 .097.011 2 2 0 0 0 .031 0 2 2 0 0 0 .149.008 2 2 0 0 0 .144-.008 2 2 0 0 0 .024 0 2 2 0 0 0 .008 0 2 2 0 0 0 .097-.011 2 2 0 0 0 .344-.078 2 2 0 0 0 .18-.07 2 2 0 0 0 .004 0 2 2 0 0 0 .012-.005 2 2 0 0 0 .164-.086 2 2 0 0 0 .004 0 2 2 0 0 0 .007-.004 2 2 0 0 0 .317-.222 2 2 0 0 0 .015-.012 2 2 0 0 0 .133-.133 2 2 0 0 0 .13-.152 2 2 0 0 0 .112-.164 2 2 0 0 0 .098-.168 2 2 0 0 0 .004-.012 2 2 0 0 0 .074-.172 2 2 0 0 0 0-.008 2 2 0 0 0 .059-.187 2 2 0 0 0 .043-.196 2 2 0 0 0 .027-.34v-6h3.996v6a2 2 0 0 0 .028.34 2 2 0 0 0 .043.196 2 2 0 0 0 .058.187 2 2 0 0 0 0 .008 2 2 0 0 0 .074.172 2 2 0 0 0 .004.012 2 2 0 0 0 .098.168 2 2 0 0 0 .113.164 2 2 0 0 0 .13.152 2 2 0 0 0 .132.133 2 2 0 0 0 .012.008 2 2 0 0 0 .004.004 2 2 0 0 0 .152.117 2 2 0 0 0 .164.105 2 2 0 0 0 .008.004 2 2 0 0 0 .004.004 2 2 0 0 0 .121.059 2 2 0 0 0 .05.027 2 2 0 0 0 .024.008 2 2 0 0 0 .164.062 2 2 0 0 0 .344.079 2 2 0 0 0 .098.011 2 2 0 0 0 .031 0 2 2 0 0 0 .149.008 2 2 0 0 0 .144-.008 2 2 0 0 0 .024 0 2 2 0 0 0 .007 0 2 2 0 0 0 .098-.011 2 2 0 0 0 .344-.079 2 2 0 0 0 .18-.07 2 2 0 0 0 .003 0 2 2 0 0 0 .012-.004 2 2 0 0 0 .164-.086 2 2 0 0 0 .004 0 2 2 0 0 0 .008-.004 2 2 0 0 0 .316-.222 2 2 0 0 0 .004-.004 2 2 0 0 0 .012-.008 2 2 0 0 0 .133-.133 2 2 0 0 0 .129-.152 2 2 0 0 0 .113-.164 2 2 0 0 0 .098-.168 2 2 0 0 0 0-.004 2 2 0 0 0 .004-.008 2 2 0 0 0 .074-.172 2 2 0 0 0 0-.004 2 2 0 0 0 0-.004 2 2 0 0 0 .059-.188 2 2 0 0 0 .043-.195 2 2 0 0 0 .027-.34V36.29a2 2 0 0 0 .012-.102 2 2 0 0 0 .008-.094 2 2 0 0 0 .004-.109 2 2 0 0 0-.004-.117 2 2 0 0 0 0-.008 2 2 0 0 0 0-.02 2 2 0 0 0-.02-.164 2 2 0 0 0 0-.015v-7.688h-.004A2 2 0 0 0 29 25.942a2 2 0 0 0-1.348.554 2 2 0 0 0-.14.145 2 2 0 0 0-.098.125 2 2 0 0 0-.067.09 2 2 0 0 0-.023.035 2 2 0 0 0-.297 1.39v5.692h-3.996V28.28a2 2 0 0 0-.297-1.39 2 2 0 0 0-.004-.008 2 2 0 0 0-.059-.086 2 2 0 0 0-.027-.031 2 2 0 0 0-.098-.125 2 2 0 0 0-.14-.145 2 2 0 0 0-1.348-.555zM39 30a6 6 0 0 0-6 6 6 6 0 0 0 6 6 6 6 0 0 0 1.484-.195c-.044.167-.072.364-.125.515-.287.825-.648 1.316-1.004 1.555-.356.239-.82.406-1.941.168a2 2 0 1 0-.828 3.914c1.878.399 3.665.134 4.996-.758 1.33-.892 2.095-2.232 2.558-3.566C45.067 40.964 45 38 45 36a2 2 0 0 0-.012-.23A6 6 0 0 0 39 30zm0 4a2 2 0 0 1 2 2 2 2 0 0 1-2 2 2 2 0 0 1-2-2 2 2 0 0 1 2-2z" fill="#BDAD93"/>
</svg>
