<svg xmlns="http://www.w3.org/2000/svg" width="64" height="64" version="1">
    <path d="M30.046 21.918A14 14 0 0 0 30 23a14 14 0 0 0 14 14 14 14 0 0 0 14-14 14 14 0 0 0-.046-.918A14 14 0 0 1 44 35a14 14 0 0 1-13.954-13.082zm-24 20A14 14 0 0 0 6 43a14 14 0 0 0 14 14 14 14 0 0 0 14-14 14 14 0 0 0-.046-.918A14 14 0 0 1 19.998 55 14 14 0 0 1 6.045 41.918z" opacity=".2"/>
    <path d="M44 8a14 14 0 0 0-14 14 14 14 0 0 0 14 14 14 14 0 0 0 14-14A14 14 0 0 0 44 8zM20 28A14 14 0 0 0 6 42a14 14 0 0 0 14 14 14 14 0 0 0 14-14 14 14 0 0 0-14-14z" fill="#504945"/>
    <path d="M44 8a14 14 0 0 0-14 14 14 14 0 0 0 .021.41A14 14 0 0 1 44 9a14 14 0 0 1 13.977 13.547A14 14 0 0 0 58 22 14 14 0 0 0 44 8zM20 28A14 14 0 0 0 6 42a14 14 0 0 0 .021.41A14 14 0 0 1 20 29a14 14 0 0 1 13.977 13.547A14 14 0 0 0 34 42a14 14 0 0 0-14-14z" opacity=".1" fill="#F9F5D7"/>
</svg>
