<svg xmlns="http://www.w3.org/2000/svg" width="64" height="64">
    <path d="M18.033 8c-4.574-.001-8.64 3.087-10.165 6.842-1.526 3.757-.763 8.81 2.52 12l6.126 6.125-6.087 6.094c-2.182 2.095-3.568 5.43-3.416 8.423.153 2.993 1.459 5.449 3.256 7.247 1.798 1.799 4.252 3.105 7.244 3.257 2.991.154 6.325-1.234 8.42-3.416l6.09-6.09 6.189 6.195c2.112 2.122 5.408 3.439 8.357 3.269 2.95-.17 5.382-1.466 7.166-3.25 1.784-1.783 3.079-4.21 3.252-7.161.172-2.947-1.137-6.246-3.252-8.361h-.008l-6.196-6.2 6.118-6.12c3.327-3.23 4.062-8.374 2.465-12.149-1.596-3.774-5.8-6.833-10.433-6.693a10.98 10.98 0 0 0-7.54 3.327l-6.118 6.121-6.122-6.125a10.974 10.974 0 0 0-7.859-3.327z" opacity=".2"/>
    <path d="M18.033 7C13.459 7 9.393 10.087 7.868 13.842c-1.526 3.757-.763 8.81 2.52 12l6.126 6.125-6.087 6.094c-2.182 2.095-3.568 5.43-3.416 8.423.153 2.993 1.459 5.449 3.256 7.247 1.798 1.799 4.252 3.105 7.244 3.257 2.991.154 6.325-1.234 8.42-3.416l6.09-6.09 6.189 6.195c2.112 2.122 5.408 3.439 8.357 3.269 2.95-.17 5.382-1.466 7.166-3.25 1.784-1.783 3.079-4.21 3.252-7.161.172-2.947-1.137-6.245-3.252-8.361h-.008l-6.196-6.2 6.118-6.12c3.327-3.23 4.062-8.374 2.465-12.148-1.596-3.775-5.8-6.834-10.433-6.694a10.98 10.98 0 0 0-7.54 3.327l-6.118 6.121-6.122-6.125a10.974 10.974 0 0 0-7.859-3.327z" fill="#504945"/>
    <g fill="none" stroke="#151819" stroke-width="3" stroke-linecap="round" stroke-linejoin="round">
        <path d="M18.03 19.043l28 28M46.03 19.043l-28 28" opacity=".2" stroke-width="6"/>
    </g>
    <path d="M18 14.813a3 3 0 0 0-2.094 5.152L27.79 31.844 15.91 43.723a3 3 0 1 0 4.242 4.242l11.88-11.879 11.874 11.879a3.001 3.001 0 1 0 4.246-4.242l-11.879-11.88 11.88-11.878a3 3 0 0 0-2.18-5.152 3 3 0 0 0-2.063.91L32.031 27.602l-11.879-11.88a3 3 0 0 0-2.152-.91z" fill="#F9F5D7"/>
    <path d="M18.033 7C13.46 7 9.394 10.087 7.87 13.842c-.566 1.394-.816 2.967-.74 4.557.048-1.244.293-2.456.74-3.557C9.394 11.087 13.46 7.999 18.033 8l.008.008a10.976 10.976 0 0 1 7.86 3.328l6.12 6.125 6.118-6.121a10.984 10.984 0 0 1 7.54-3.328c4.634-.14 8.838 2.918 10.434 6.693.479 1.132.743 2.388.795 3.678.075-1.636-.193-3.255-.795-4.678-1.596-3.775-5.8-6.833-10.433-6.693a10.984 10.984 0 0 0-7.541 3.328L32.02 16.46l-6.12-6.125a10.976 10.976 0 0 0-7.86-3.328L18.033 7zm-2.02 25.467l-5.585 5.594c-2.182 2.095-3.569 5.43-3.416 8.423.002.037.01.071.011.108.13-2.746 1.437-5.642 3.405-7.531l6.086-6.094-.5-.5zm32.016.008l-.5.5 6.196 6.199h.007c1.887 1.887 3.124 4.712 3.248 7.393.001-.011.004-.021.004-.032.173-2.947-1.136-6.245-3.252-8.361h-.007l-5.696-5.7z" fill="#F9F5D7" opacity=".2"/>
</svg>
