<svg xmlns="http://www.w3.org/2000/svg" width="64" height="64">
    <path d="M4 6v44c0 4 4 4 4 4h52zm10 21.742L32.965 44H14z" opacity=".2"/>
    <path d="M4 5v44c0 4 4 4 4 4h52zm10 21.742L32.965 43H14z" fill="#448588"/>
    <path d="M4 5v1l54.834 47H60L4 5zm10 38v1h18.965l-1.166-1H14z" opacity=".2" fill="#F9F5D7"/>
    <path d="M28.111 26a3 3 0 0 1 2.514 1.541l15 27L46 62l-5.625-4.541L28 35.182v-9.17c.038 0 .073-.012.111-.012z" opacity=".2" fill-rule="evenodd"/>
    <path d="M28.111 24a3 3 0 0 1 2.514 1.541l15 27L46 60l-5.625-4.541L28 33.182v-9.17c.038 0 .073-.012.111-.012z" fill="#A79984" fill-rule="evenodd"/>
    <path d="M27.889 25a3 3 0 0 0-2.514 1.541l-15 27L10 61l5.625-4.541 2.11-3.791A24 24 0 0 0 28 55a24 24 0 0 0 24-24h-6a18 18 0 0 1-18 18 18 18 0 0 1-7.342-1.6L28 34.182v-9.17c-.038 0-.073-.012-.111-.012z" opacity=".2"/>
    <path d="M27.889 24a3 3 0 0 0-2.514 1.541l-15 27L10 60l5.625-4.541 2.11-3.791A24 24 0 0 0 28 54a24 24 0 0 0 24-24h-6a18 18 0 0 1-18 18 18 18 0 0 1-7.342-1.6L28 33.182v-9.17c-.038 0-.073-.012-.111-.012z" fill="#F9F5D7"/>
    <path d="M24 13v6h-2c-4 0-4 4-4 4v10l7 7c1.798 1.4 4.784 1.512 6.33-.33L38 33V23s0-4-4-4h-2v-6z" opacity=".2"/>
    <path d="M27.889 24a3 3 0 0 0-2.514 1.541l-15 27L10 60l.053-.043.322-6.416 15-27A3 3 0 0 1 27.889 25c.038 0 .073.012.111.012v-1c-.038 0-.073-.012-.111-.012zM46 30a18 18 0 0 1-18 18 18 18 0 0 1-6.893-1.41l-.449.81A18 18 0 0 0 28 49a18 18 0 0 0 18-18h5.965A24 24 0 0 0 52 30z" opacity=".2" fill="#F9F5D7"/>
    <path d="M24 12v6h-2c-4 0-4 4-4 4v10l7 7c1.798 1.4 4.784 1.512 6.33-.33L38 32V22s0-4-4-4h-2v-6z" fill="#504945"/>
    <circle cx="28" cy="27" r="4" opacity=".2"/>
    <circle cx="28" cy="26" r="4" fill="#F9F5D7"/>
    <path d="M24 12v1h8v-1zm-2 6c-4 0-4 4-4 4v1s0-4 4-4h2v-1zm10 0v1h2c4 0 4 4 4 4v-1s0-4-4-4z" opacity=".1" fill="#F9F5D7"/>
</svg>
