<svg xmlns="http://www.w3.org/2000/svg" width="64" height="64" version="1">
    <path d="M36.837 9c-3.352.219-6.797 1.118-9.848 2.544-6.488 3.477-9.033 8.95-11.11 14.802-1.238 3.116-2.855 4.607-6.588 6.31-2.072.945-4.334 1.984-6.203 3.527-1.806 1.053-1.146 2.764.393 2.818h13.23c.195.819.396 1.927.614 2.806.387 1.621.808 3.045.775 4.363-.052 2.096-.925 3.928-2.449 5.868-1.091 1.39-.938 4.54.771 4.896 0 0 6.693.233 9.932-.178 12.287-1.697 34.142-10.29 34.142-10.29 1.333-.519 1.903-2.129 1.202-3.398-3.938-5.78-8.017-12.009-12.397-16.964-2.266-2.583-4.844-7.675-1.681-8.79l2.373-.207c2.338-.205 2.434-1.865 1.574-3.482-1.313-1.967-4.2-2.533-6.14-3.114-2.695-.803-5.748-1.485-8.59-1.51z" opacity=".2"/>
    <path d="M36.838 9c-3.352.218-5.891 1.023-8.943 2.449-6.488 3.477-9.939 8.044-12.015 13.896-1.24 3.116-2.856 4.608-6.589 6.311-2.072.945-4.334 1.983-6.203 3.527-1.806 1.052-1.146 2.764.393 2.817h13.23c.195.82 1.138 1.844 1.355 2.724.388 1.621 1.302 2.798 1.27 4.116-.052 2.096-.76 4.504-2.284 6.444-1.092 1.39-1.022 3.552.688 3.908 0 0 5.622.233 8.861-.178C38.888 53.317 59.919 44.97 59.919 44.97c1.334-.518 1.41-1.716.708-2.985-3.938-5.78-7.852-11.35-12.232-16.306-.782-.891-.696-2.659-1.303-3.882-1.153-2.319-1.543-4.753.528-5.483l2.373-.208c2.338-.205 2.434-1.865 1.574-3.482-.978-1.465-2.829-2.153-4.512-2.648-.576-.17-1.627.095-2.122-.054-2.695-.803-5.253-.897-8.095-.922z" fill="#504945"/>
    <path d="M36.838 9c-3.352.218-6.798 1.117-9.85 2.543-3.991 2.14-6.485 4.887-8.3 8.045 0 0 5.56 2.117 8.625 2.117 3.998 0 8.657-1.03 10.007-1.348.49-.752 1.06-1.454 1.746-2.087 3.192-2.505 3.607-2.388 7.297-4.149.558-.266 1.366-2.098 1.102-2.967-.699-.24-1.394-.45-2.035-.642-2.696-.803-5.75-1.487-8.592-1.512zm10.02 13.412c-3.125 5.436-5.673 10.553-9.284 14.738-.197 2.212-.467 4.309-.873 5.977-.872 3.59-3.887 9.338-5.144 11.65 12.393-2.807 28.94-9.312 28.94-9.312.774-.301 1.279-.974 1.439-1.73a2.395 2.395 0 0 0-.239-.669c-3.937-5.779-8.016-12.007-12.396-16.962-.894-1.02-1.824-2.365-2.444-3.692z" opacity=".1"/>
    <path d="M36.838 8c-3.352.218-6.798 1.117-9.85 2.542-3.991 2.14-6.484 4.888-8.3 8.046 0 0 5.56 2.412 8.624 2.412 3.999 0 8.659-1.325 10.009-1.643.49-.752 1.06-1.453 1.746-2.087 3.192-2.504 3.606-2.39 7.296-4.15.559-.266 1.367-2.098 1.103-2.967-.7-.24-1.396-.45-2.037-.642C42.733 8.708 39.68 8.025 36.838 8zm10.697 2.178c-.07-.025 0 0 0 0zm-.678 11.234c-3.124 5.435-5.672 10.552-9.283 14.737-.196 2.212-.467 4.31-.873 5.978-1.102 4.537-5.767 12.786-5.767 12.786 12.454-2.724 29.562-9.45 29.562-9.45 1.334-.517 1.904-2.127 1.202-3.396-3.938-5.78-8.016-12.008-12.396-16.963-.895-1.02-1.825-2.366-2.445-3.692z" fill="#066678"/>
    <path d="M18.66 19.635c-1.122 1.961-1.987 4.079-2.78 6.312-.184.466-.385.883-.593 1.282-.25 2.967-.078 7.348.955 10.771h.469c.195.82.396 1.927.613 2.807.54 2.261.716 4.134.39 5.879-.008.14-.004.286-.019.425a9.17 9.17 0 0 1-.625 2.522 9.975 9.975 0 0 1-1.418 2.404 2.888 2.888 0 0 0-.388.707c-.03.073-.05.154-.075.23a4.218 4.218 0 0 0-.193.909c-.001.01 0 .02-.002.031.124.988.585 1.844 1.428 2.02 0 0 6.693.233 9.932-.178 1.594-.22 3.355-.56 5.203-.979 1.257-2.312 4.272-8.06 5.144-11.65.406-1.668.676-3.765.873-5.977-2.47 2.863-5.63 6.094-9.633 7.877a1.422 1.422 0 0 1-1.855-1.346c-.08-.651.935-1.277 1.855-2.161 6.458-6.479 5.784-15.648 9.38-21.163-1.35.318-6.01.643-10.008.643-2.356 0-6.727-.703-8.653-1.365z" opacity=".1"/>
    <path d="M18.66 18.635c-2.289 3.717-3.7 7.803-3.66 11.928.023 2.37.711 4.751 1.512 7.084.555 2.375 1.34 4.865 1.488 7.133v.003c-.216 2.798-1.625 4.863-2.736 6.962-.029.073-.05.152-.075.229a4.22 4.22 0 0 0-.192.91c-.02.2-.028.401-.023.6.003.092 0 .184.009.274.025.29.072.575.156.835v.003c.066.203.154.385.257.554.028.048.063.088.094.133a1.76 1.76 0 0 0 .416.416c.155.106.322.194.516.234 0 0 6.692.235 9.93-.176a51.433 51.433 0 0 0 2.297-.378c.004 0 .007-.002.011-.003a76.862 76.862 0 0 0 2.274-.463s4.665-8.248 5.767-12.786c.406-1.668.677-3.765.874-5.977-2.47 2.863-5.632 6.094-9.633 7.877a1.42 1.42 0 0 1-1.855-1.346c-.08-.652.934-1.278 1.855-2.162 6.457-6.478 5.784-15.647 9.379-21.162C35.97 19.675 31.31 21 27.312 21c-2.356 0-6.698-1.75-8.624-2.412z" fill="#F9F5D7"/>
    <circle cx="27" cy="27" r="3" fill="#3A393A"/>
</svg>
