<svg xmlns="http://www.w3.org/2000/svg" width="64" height="64" version="1">
    <path d="M10 9a6 6 0 0 0-6 6v36a6 6 0 0 0 6 6h2a6 6 0 0 0 5.656-4.012A6 6 0 0 0 18 53h28c.115-.003.23-.01.344-.02A6 6 0 0 0 52 57h2a6 6 0 0 0 6-6V15a6 6 0 0 0-6-6h-2a6 6 0 0 0-5.656 4.012A6 6 0 0 0 46 13H18c-.115.003-.23.01-.344.02A6 6 0 0 0 12 9z" opacity=".2"/>
    <path d="M10 8a6 6 0 0 0-6 6v36a6 6 0 0 0 6 6h2a6 6 0 0 0 5.656-4.012A6 6 0 0 0 18 52h28c.115-.003.23-.01.344-.02A6 6 0 0 0 52 56h2a6 6 0 0 0 6-6V14a6 6 0 0 0-6-6h-2a6 6 0 0 0-5.656 4.012A6 6 0 0 0 46 12H18c-.115.003-.23.01-.344.02A6 6 0 0 0 12 8z" fill="#48B9C7"/>
    <path d="M10 15v36h2V15zm42 0v36h2V15zm-38 4v28h2V19zm4 0v28h28V19zm30 0v28h2V19zm-28 2h24v24H20z" opacity=".2"/>
    <path d="M10 14v36h2V14zm42 0v36h2V14zm-38 4v28h2V18zm4 0v28h28V18zm30 0v28h2V18zm-28 2h24v24H20z" fill="#F9F5D7"/>
    <path d="M10 8a6 6 0 0 0-6 6v1a6 6 0 0 1 6-6h2a6 6 0 0 1 5.656 4.02c.115-.01.23-.017.344-.02h28a6 6 0 0 1 .344.012A6 6 0 0 1 52 9h2a6 6 0 0 1 6 6v-1a6 6 0 0 0-6-6h-2a6 6 0 0 0-5.656 4.012A6 6 0 0 0 46 12H18c-.115.003-.23.01-.344.02A6 6 0 0 0 12 8h-2z" opacity=".2" fill="#F9F5D7"/>
</svg>
