<svg xmlns="http://www.w3.org/2000/svg" width="64" height="64" version="1">
    <circle cx="32" cy="33" r="28" opacity=".2"/>
    <circle cx="32" cy="32" r="28" fill="#066678"/>
    <path d="M32 4A28 28 0 0 0 4 32a28 28 0 0 0 .021.586A28 28 0 0 1 32 5a28 28 0 0 1 27.979 27.414A28 28 0 0 0 60 32 28 28 0 0 0 32 4z" opacity=".1" fill="#F9F5D7"/>
    <path d="M5 20l11 5" fill="none" stroke="#3A393A" stroke-width="3"/>
    <rect width="8.037" height="8.037" x="-50.53" y="-32.59" rx="1.339" ry="1.339" transform="scale(-1 1) rotate(-60)" opacity=".2"/>
    <path d="M59 20l-11 5" fill="none" stroke="#3A393A" stroke-width="3"/>
    <rect width="8.037" height="8.037" x="-49.67" y="-33.09" rx="1.339" ry="1.339" transform="scale(-1 1) rotate(-60)" fill="#D79921"/>
    <path d="M49.074 20.004a1.335 1.335 0 0 0-.763.176l-4.641 2.68a1.331 1.331 0 0 0-.566 1.658c.108-.267.296-.503.566-.659l4.64-2.68a1.337 1.337 0 0 1 1.83.49l2.68 4.642c.032.055.053.114.076.171.15-.368.14-.798-.076-1.171l-2.68-4.641a1.335 1.335 0 0 0-1.066-.666z" opacity=".1" fill="#F9F5D7"/>
    <rect width="8" height="8" x="28" y="12" rx="1.333" ry="1.333" fill="#D79921"/>
    <rect width="8.037" height="8.037" x="-18.54" y="22.84" rx="1.339" ry="1.339" transform="rotate(-60)" opacity=".2"/>
    <rect width="8.037" height="8.037" x="-17.67" y="22.34" rx="1.339" ry="1.339" transform="rotate(-60)" fill="#D79921"/>
    <path d="M14.926 20.004c-.429.03-.835.264-1.067.666l-2.68 4.64a1.331 1.331 0 0 0-.075 1.172c.023-.057.044-.116.076-.171l2.68-4.641a1.337 1.337 0 0 1 1.83-.49l4.64 2.68c.27.155.458.39.566.658.247-.61.021-1.32-.566-1.659l-4.64-2.68a1.335 1.335 0 0 0-.764-.175z" opacity=".1" fill="#F9F5D7"/>
    <circle cx="5" cy="21" r="4" opacity=".2"/>
    <circle cx="5" cy="20" r="4" fill="#504945"/>
    <circle cx="59" cy="21" r="4" opacity=".2"/>
    <circle cx="59" cy="20" r="4" fill="#504945"/>
    <path d="M32 16c-11.046 0-20 8.832-20 19.727v5.637C12 44.486 14.549 47 17.714 47h28.572C49.45 47 52 44.486 52 41.364v-5.637C52 24.832 43.046 16 32 16z" opacity=".2"/>
    <path d="M32 15c-11.046 0-20 8.832-20 19.727v5.637C12 43.486 14.549 46 17.714 46h28.572C49.45 46 52 43.486 52 40.364v-5.637C52 23.832 43.046 15 32 15z" fill="#F9BD2E"/>
    <path d="M31.936 39.001a1.765 1.616 0 0 0-.724.168l-8.235 3.77A1.765 1.616 0 0 0 22 44.384v2.692a1.765 1.616 0 0 0 .89 1.403l8.235 4.308a1.765 1.616 0 0 0 1.75 0l8.236-4.308A1.765 1.616 0 0 0 42 47.076v-2.692a1.765 1.616 0 0 0-.977-1.445l-8.235-3.77a1.765 1.616 0 0 0-.852-.168z" opacity=".2"/>
    <path d="M31.936 38.001a1.765 1.616 0 0 0-.724.168l-8.235 3.77A1.765 1.616 0 0 0 22 43.384v2.692a1.765 1.616 0 0 0 .89 1.403l8.235 4.308a1.765 1.616 0 0 0 1.75 0l8.236-4.308A1.765 1.616 0 0 0 42 46.076v-2.692a1.765 1.616 0 0 0-.977-1.445l-8.235-3.77a1.765 1.616 0 0 0-.852-.168z" fill="#FD8019"/>
    <rect width="8" height="11" x="18" y="27" rx="4" ry="4.125" fill="#3A393A"/>
    <circle cx="21" cy="32" r="2" opacity=".2"/>
    <circle cx="21" cy="31" r="2" fill="#F9F5D7"/>
    <rect width="8" height="11" x="38" y="27" rx="4" ry="4.125" fill="#3A393A"/>
    <circle cx="41" cy="32" r="2" opacity=".2"/>
    <circle cx="41" cy="31" r="2" fill="#F9F5D7"/>
    <path d="M32 38.002v13.996a1.765 1.616 0 0 0 .875-.21l8.236-4.31A1.765 1.616 0 0 0 42 46.077v-2.691a1.765 1.616 0 0 0-.977-1.446l-8.234-3.77a1.765 1.616 0 0 0-.789-.167z" opacity=".2" fill="#F9F5D7"/>
    <path d="M29.334 12c-.739 0-1.334.595-1.334 1.334v1c0-.739.595-1.334 1.334-1.334h5.332c.739 0 1.334.595 1.334 1.334v-1c0-.739-.595-1.334-1.334-1.334h-5.332zM5 16a4 4 0 0 0-4 4 4 4 0 0 0 .035.494A4 4 0 0 1 5 17a4 4 0 0 1 3.965 3.506A4 4 0 0 0 9 20a4 4 0 0 0-4-4zM59 16a4 4 0 0 0-4 4 4 4 0 0 0 .035.494A4 4 0 0 1 59 17a4 4 0 0 1 3.965 3.506A4 4 0 0 0 63 20a4 4 0 0 0-4-4z" opacity=".1" fill="#F9F5D7"/>
    <path d="M32 15c-11.046 0-20 8.831-20 19.727v1C12 24.83 20.954 16 32 16s20 8.831 20 19.727v-1C52 23.83 43.046 15 32 15z" opacity=".2" fill="#F9F5D7"/>
</svg>
