<svg xmlns="http://www.w3.org/2000/svg" width="64" height="64" version="1">
    <rect width="56" height="56" x="4" y="5" rx="2.8" ry="2.8" opacity=".2"/>
    <rect width="56" height="56" x="4" y="4" rx="2.8" ry="2.8" fill="#BE4C1D"/>
    <path d="M19.44 56.858c.031-.08.12-.63.199-1.223.47-3.56.436-5.842 1.362-7.363.17-.28.656-.9 1.078-1.377.423-.477.768-.776.768-.834 0-.074-.122-.087-.395-.043-1.306.21-2.093-.028-2.452-.64-.186-.318.025.09 0-7.74-.029-8.998.067-8.136.892-8.55.597-.3 1.34-.765 1.998-.87 1.12-.18 1.88.651 2.436 1.734.152.297.325.521.387.5.176-.058.209-8.16.032-8.16-.07 0-.203.195-.295.433-.233.605-.78 1.998-1.433 2.29-.683.303-2.858 1.072-3.312 1.072-.184 0-.644-.05-.705-.111-.085-.084-.001-1.505 0-5.84 0-3.15-.04-5.38 0-5.44.35-.547 5.834-.773 7.73-.35a8.233 8.233 0 0 1 1.444.51c1.064.507 1.732 1.446 2.46 2.82.041.077.132.14.204.14.108 0 .133-.239.155-3.24.014-1.98.002-5.298-.027-5.417 0 0-1.03 1.362-1.165 1.631l-.291.243-1.785-.031c-.982-.017-5.278 0-8.815-.004-3.537-.003-7.703.055-7.79.088-.313.12.002.318.8.751 1.375.748 2.663 2.347 2.998 3.594.196.73.189 10.082-.008 10.911-.191.803-.832 1.39-1.434 2.034-.283.304-.515.589-.515.635 0 .045.233.31.518.588.57.557 1.319 1.23 1.461 1.797.135.538.24 16.241.114 17.107-.125.863-.68 1.233-1.395 1.992-.67.71-.67.708.354 1.095.836.316 2.405 1.029 2.724 1.505.33.496.763 1.422 1.116 2.708.16.584.311 1.093.334 1.13.07.116.194.079.253-.075z" opacity=".2"/>
    <path d="M19.44 55.858c.031-.08.12-.63.199-1.223.47-3.56.436-5.842 1.362-7.363.17-.28.656-.9 1.078-1.377.423-.477.768-.776.768-.834 0-.074-.122-.087-.395-.043-1.306.209-2.093-.028-2.452-.64-.186-.318.025.09 0-7.74-.029-8.999.067-8.136.892-8.55.597-.3 1.34-.765 1.998-.87 1.12-.18 1.88.651 2.436 1.734.152.297.325.52.387.5.176-.058.209-8.16.032-8.16-.07 0-.203.194-.295.433-.233.605-.78 1.998-1.433 2.289-.683.304-2.858 1.073-3.312 1.073-.184 0-.644-.05-.705-.111-.085-.084-.001-1.506 0-5.84 0-3.151-.04-5.38 0-5.441.35-.546 5.834-.772 7.73-.35a8.233 8.233 0 0 1 1.444.51c1.064.508 1.732 1.447 2.46 2.822.041.076.132.138.204.138.108 0 .133-.238.155-3.24.014-1.98.002-5.297-.027-5.416 0 0-1.03 1.361-1.165 1.631l-.291.243-1.785-.031c-.982-.018-5.278 0-8.815-.004s-7.703.055-7.79.088c-.313.12.002.318.8.751 1.375.748 2.663 2.347 2.998 3.594.196.73.189 10.082-.008 10.911-.191.803-.832 1.39-1.434 2.034-.283.303-.515.589-.515.634 0 .046.233.31.518.588.57.557 1.319 1.232 1.461 1.798.135.537.24 16.24.114 17.107-.125.862-.68 1.233-1.395 1.991-.67.71-.67.709.354 1.096.836.315 2.405 1.029 2.724 1.505.33.496.763 1.422 1.116 2.707.16.584.311 1.093.334 1.131.07.116.194.079.253-.075z" fill="#D79921"/>
    <path d="M36.105 13c-.098.06-.118 1.864-.097 4.453.03 3.765-.098 2.549.676 1.562 1.075-1.37 2.508-1.011 3.113-1.078 1.546-.038 1.92-.02 2.066.125.15.149.291.883.164 4.333v4.64s-1.066.847-1.648 1.418c-.198.218-.36.452-.36.52s.144.284.317.48c.44.784 1.64 1.457 1.64 1.457l.032 8.012c.027 8.751.022 8.213-.18 8.387 0 0-1.437 1.498-1.828 1.691 2.055.676 2.877 1.22 3.742 3.098.142.46.178.902.258.902.08 0 .116-.441.258-.902C45.123 50.22 45.945 49.676 48 49c-.391-.193-1.828-1.691-1.828-1.691-.202-.174-.207.364-.18-8.387l.031-8.012s1.201-.673 1.641-1.457c.173-.196.316-.412.316-.48s-.16-.302-.359-.52c-.582-.571-1.648-1.418-1.648-1.418v-4.64c-.127-3.45.014-4.184.164-4.333.146-.145.52-.163 2.066-.125.605.067 2.038-.293 3.113 1.078.774.987.646 2.203.676-1.562.02-2.59.001-4.392-.097-4.453-.357.552-1.145 1.969-1.145 1.969-.151.076-2.925.03-6.75.031-3.825 0-6.599.045-6.75-.031 0 0-.788-1.417-1.145-1.969z" opacity=".2"/>
    <path d="M36.105 12c-.098.06-.118 1.863-.097 4.453.03 3.765-.098 2.548.676 1.562 1.075-1.371 2.508-1.011 3.113-1.078 1.546-.038 1.92-.02 2.066.125.15.149.291.882.164 4.333v4.64s-1.066.847-1.648 1.418c-.198.218-.36.452-.36.52s.144.284.317.48c.44.783 1.64 1.457 1.64 1.457l.032 8.012c.027 8.751.022 8.213-.18 8.387 0 0-1.437 1.498-1.828 1.691 2.055.675 2.877 1.22 3.742 3.098.142.46.178.902.258.902.08 0 .116-.441.258-.902C45.123 49.22 45.945 48.675 48 48c-.391-.193-1.828-1.691-1.828-1.691-.202-.174-.207.364-.18-8.387l.031-8.012s1.201-.674 1.641-1.457c.173-.196.316-.412.316-.48s-.16-.302-.359-.52c-.582-.571-1.648-1.418-1.648-1.418v-4.64c-.127-3.45.014-4.184.164-4.333.146-.145.52-.163 2.066-.125.605.067 2.038-.293 3.113 1.078.774.986.646 2.203.676-1.562.02-2.59.001-4.393-.097-4.453-.357.552-1.145 1.969-1.145 1.969-.151.076-2.925.03-6.75.031-3.825-.001-6.599.045-6.75-.031 0 0-.788-1.417-1.145-1.969z" fill="#D79921"/>
    <path d="M6.8 4C5.25 4 4 5.25 4 6.8v1C4 6.25 5.25 5 6.8 5h50.4C58.75 5 60 6.25 60 7.8v-1C60 5.25 58.75 4 57.2 4H6.8z" opacity=".1" fill="#F9F5D7"/>
</svg>
