<svg xmlns="http://www.w3.org/2000/svg" width="64" height="64" version="1">
    <circle cx="32" cy="33" r="28" opacity=".2"/>
    <path d="M31.988 59.97A27.924 27.924 0 0 1 4.003 31.984c0-.235-.006-.466 0-.7.37 15.177 12.716 27.286 27.985 27.286 15.27 0 27.616-12.108 27.986-27.285.006.233 0 .464 0 .7A27.924 27.924 0 0 1 31.988 59.97z" opacity=".1"/>
    <path d="M8.7 16.504c-.482.732-.928 1.517-1.38 2.293A28 28 0 0 0 4 32a28 28 0 0 0 28 28 28 28 0 0 0 .43-.016l13.258-22.046c-1.062 1.73-5.487 3.945-7.375 5.035-6.042 3.488-13.715 1.233-17.203-4.809L8.7 16.504z" fill="#578D57"/>
    <path d="M32.032 18c-.031 0 4.444 1.996 6.332 3.086 4.824 2.786 5.328 12.735 5.34 16.762l.808.469-.824 1.425v.067l-.313.472L32 59.984c.075.002.149.008.223.008a28 28 0 0 0 1.16-.043c.224-.01.448-.012.672-.027a28 28 0 0 0 2.633-.32l.172-.032A28 28 0 0 0 60 32a28 28 0 0 0-3.793-14H32.032z" fill="#FECE4F"/>
    <path d="M31.989 4a28 28 0 0 0-.485.016 28 28 0 0 0-1.484.055 28 28 0 0 0-.082.012 28 28 0 0 0-2.531.304c-.086.014-.173.025-.258.04l-.016.003a28 28 0 0 0-2.62.59A28 28 0 0 0 19.3 7.047a28 28 0 0 0-.62.356A28 28 0 0 0 7.765 18.02l11.379 19.71.238.477.059.035.535.93 4.91 3.945 1.363-.582 1.563.985c-.185-.341-.37-.85-.55-1.418l9.183-3.926-9.504-16.465c.87-2.005 2.39-3.412 5.058-3.71h24.207a28 28 0 0 0-1.52-2.352 28 28 0 0 0-1.71-2.14 28 28 0 0 0-.075-.087 28 28 0 0 0-1.816-1.863 28 28 0 0 0-.191-.176 28 28 0 0 0-1.918-1.605 28 28 0 0 0-.27-.203 28 28 0 0 0-1.98-1.348 28 28 0 0 0-.383-.234 28 28 0 0 0-1.992-1.086 28 28 0 0 0-.567-.27 28 28 0 0 0-1.914-.8 28 28 0 0 0-.738-.274A28 28 0 0 0 39.289 5a28 28 0 0 0-.925-.238 28 28 0 0 0-1.723-.344 28 28 0 0 0-1.098-.164 28 28 0 0 0-1.57-.156A28 28 0 0 0 32 4.001a28 28 0 0 0-.011 0z" fill="#CB241D"/>
    <path d="M32 4A28 28 0 0 0 4 32a28 28 0 0 0 .018.492A28 28 0 0 1 32 5a28 28 0 0 1 27.973 27.5 28 28 0 0 0 .025-.5A28 28 0 0 0 32 4z" opacity=".2" fill="#F9F5D7"/>
    <rect width="28" height="28" x="-47" y="-46" rx="14" ry="14" transform="matrix(0 -1 -1 0 0 0)" opacity=".2"/>
    <rect width="28" height="28" x="-46" y="-46" rx="14" ry="14" transform="matrix(0 -1 -1 0 0 0)" fill="#F9F5D7"/>
    <rect width="22" height="22" x="-43" y="-43" rx="11" ry="11" transform="matrix(0 -1 -1 0 0 0)" fill="#066678"/>
</svg>
