<svg xmlns="http://www.w3.org/2000/svg" width="64" height="64" version="1">
    <path d="M4.05 32c-.011.334-.05.662-.05 1 0 15.512 12.488 28 28 28 15.511 0 28-12.488 28-28 0-.337-.04-.665-.052-1-.528 15.042-12.775 27-27.95 27C16.826 59 4.579 47.042 4.05 32z" opacity=".2"/>
    <rect width="56" height="56" x="4" y="4" rx="28" ry="28" fill="#F9BD2E"/>
    <circle cx="32" cy="32" r="24" fill="#7CB668"/>
    <path d="M12 23v20h4V32h2v7h4V23h-4v5h-2v-5h-4zm20 0a8 8 0 0 0-8 8 8 8 0 0 0 8 8 8 8 0 0 0 8-8 8 8 0 0 0-8-8zm10 0v16h4v-8.592l2 3.465V43h4V23h-4v3.379L46 23h-4zm-10 4a4 4 0 0 1 4 4 4 4 0 0 1-4 4 4 4 0 0 1-4-4 4 4 0 0 1 4-4zm-8 14v4h16v-4H24z" opacity=".2"/>
    <path d="M12 22v20h4V31h2v7h4V22h-4v5h-2v-5h-4zm20 0a8 8 0 0 0-8 8 8 8 0 0 0 8 8 8 8 0 0 0 8-8 8 8 0 0 0-8-8zm10 0v16h4v-8.592l2 3.465V42h4V22h-4v3.379L46 22h-4zm-10 4a4 4 0 0 1 4 4 4 4 0 0 1-4 4 4 4 0 0 1-4-4 4 4 0 0 1 4-4zm-8 14v4h16v-4H24z" fill="#F9F5D7"/>
    <path d="M32 4C16.488 4 4 16.488 4 32c0 .114.011.224.018.336C4.369 17.134 16.71 5 32 5c15.29 0 27.63 12.134 27.982 27.336.007-.112.018-.222.018-.336C60 16.488 47.512 4 32 4z" opacity=".1" fill="#F9F5D7"/>
</svg>
