<svg xmlns="http://www.w3.org/2000/svg" width="64" height="64" version="1">
    <circle cx="32" cy="31" r="29" opacity=".2"/>
    <circle cx="32" cy="30" r="29" fill="#8F3F71"/>
    <path d="M32 3v21.75C17.5 32 19.857 50 32 50s14.5-18 0-25.25" opacity=".2" fill="none" stroke="#151819" stroke-width="6"/>
    <path d="M32 1v22.75C17.5 31 19.857 49 32 49s14.5-18 0-25.25" fill="none" stroke="#F9F5D7" stroke-width="6"/>
    <rect width="12" height="6" x="26" y="17" rx="3" ry="3" opacity=".2"/>
    <rect width="12" height="6" x="26" y="16" rx="3" ry="3" fill="#F9F5D7"/>
    <rect width="12" height="6" x="26" y="11" rx="3" ry="3" opacity=".2"/>
    <path d="M32 1A29 29 0 0 0 3 30a29 29 0 0 0 .018.488A29 29 0 0 1 32 2a29 29 0 0 1 28.975 28.494A29 29 0 0 0 61 30 29 29 0 0 0 32 1z" opacity=".1" fill="#F9F5D7"/>
    <rect width="12" height="6" x="26" y="10" rx="3" ry="3" fill="#F9F5D7"/>
    <rect width="12" height="6" x="26" y="5" rx="3" ry="3" opacity=".2"/>
    <rect width="12" height="6" x="26" y="4" rx="3" ry="3" fill="#F9F5D7"/>
</svg>
