<svg xmlns="http://www.w3.org/2000/svg" width="64" height="64" version="1">
    <path d="M31.68 9a7.983 7.983 0 0 0-3.524.986L6.168 21.983A8.03 8.03 0 0 0 2 28.998a6 6.003 0 0 0 0 .008v10.005a8.037 8.037 0 0 0 4.688 7.285l22 10.004a6 6.003 0 0 0 .004 0c1.053.48 2.182.7 3.308.7s2.256-.22 3.309-.7a6 6.003 0 0 1 .004 0l22-10.004A8.038 8.038 0 0 0 62 39.01V29.006a6 6.003 0 0 0 0-.008 8.03 8.03 0 0 0-4.168-7.015L35.844 9.986A7.983 7.983 0 0 0 32.32 9a6 6.003 0 0 0-.03 0c-.098-.004-.193.007-.29.007-.097 0-.192-.01-.29-.007a6 6.003 0 0 0-.03 0z" opacity=".2"/>
    <path d="M31.68 8a7.983 7.983 0 0 0-3.524.986L6.168 20.983A8.03 8.03 0 0 0 2 27.998a6 6.003 0 0 0 0 .008v10.005a8.037 8.037 0 0 0 4.688 7.285l22 10.004a6 6.003 0 0 0 .004 0c1.053.48 2.182.7 3.308.7s2.256-.22 3.309-.7a6 6.003 0 0 1 .004 0l22-10.004A8.038 8.038 0 0 0 62 38.01V28.006a6 6.003 0 0 0 0-.008 8.03 8.03 0 0 0-4.168-7.015L35.844 8.986A7.983 7.983 0 0 0 32.32 8a6 6.003 0 0 0-.03 0c-.098-.004-.193.007-.29.008-.097 0-.192-.012-.29-.008a6 6.003 0 0 0-.03 0z" fill="#F9F5D7"/>
    <path d="M31.926 15a2 2 0 0 0-.883.246l-22 12A2 2 0 0 0 8 29v10a2 2 0 0 0 1.172 1.82l22 10a2 2 0 0 0 1.906-.136l17.883-11.446 1.375 1.907 1.832-4.075L56 33l-4.441.45-4.442.448 1.504 2.09L31.836 46.73 12 37.71v-7.522l20.04-10.93 15.991 7.996-16.21 10.86-14.981-6.93-1.68 3.632 16 7.399a2 2 0 0 0 1.953-.152l20-13.403a2 2 0 0 0-.218-3.45l-20-10a2 2 0 0 0-.97-.21z" opacity=".1"/>
    <path d="M31.926 14a2 2 0 0 0-.883.246l-22 12A2 2 0 0 0 8 28v10a2 2 0 0 0 1.172 1.82l22 10a2 2 0 0 0 1.906-.136l17.883-11.446 1.375 1.907 1.832-4.075L56 32l-4.441.45-4.442.448 1.504 2.09L31.836 45.73 12 36.71v-7.522l20.04-10.93 15.991 7.996-16.21 10.86-14.981-6.93-1.68 3.632 16 7.399a2 2 0 0 0 1.953-.152l20-13.403a2 2 0 0 0-.218-3.45l-20-10a2 2 0 0 0-.97-.21z" fill="#3A393A"/>
    <path d="M31.68 8a7.983 7.983 0 0 0-3.524.984l-21.988 12A8.031 8.031 0 0 0 2 28a6 6.003 0 0 0 0 .008V29a8.031 8.031 0 0 1 4.168-7.016l21.988-12A7.983 7.983 0 0 1 31.68 9a6 6.003 0 0 1 .03 0c.098-.003.193.008.29.008.097 0 .192-.011.29-.008a6 6.003 0 0 1 .03 0c1.236.05 2.44.388 3.524.984l21.988 12A8.031 8.031 0 0 1 62 29v-.992A6 6.003 0 0 0 62 28a8.031 8.031 0 0 0-4.168-7.016l-21.988-12A7.983 7.983 0 0 0 32.32 8a6 6.003 0 0 0-.03 0c-.098-.003-.193.008-.29.008-.097 0-.192-.011-.29-.008a6 6.003 0 0 0-.03 0z" opacity=".2" fill="#F9F5D7"/>
</svg>
