<svg xmlns="http://www.w3.org/2000/svg" width="64" height="64">
    <path d="M31.5 4A28.5 28.5 0 0 0 3 32.5 28.5 28.5 0 0 0 31.5 61 28.5 28.5 0 0 0 60 32.5 28.5 28.5 0 0 0 31.5 4z" opacity=".2"/>
    <path d="M31.5 3A28.5 28.5 0 0 0 3 31.5 28.5 28.5 0 0 0 31.5 60 28.5 28.5 0 0 0 60 31.5 28.5 28.5 0 0 0 31.5 3z" fill="#504945"/>
    <path d="M32 28c-2.195 0-4 1.805-4 4 0 2.195 1.805 4 4 4 2.195 0 4-1.805 4-4 0-2.195-1.805-4-4-4z" opacity=".2"/>
    <path d="M24.5 45.5s1.33 6.744 7.785 7c6.455.256 9.081-11.262 8.154-22.005C39.772 22.761 35.459 16.445 31 14" opacity=".2" fill="none" stroke="#151819" stroke-width="3" stroke-linecap="round"/>
    <circle cx="32" cy="31" r="2.834" fill="#48B9C7" stroke="#48B9C7" stroke-width="2.332"/>
    <path d="M24.5 44.5s1.33 6.744 7.785 7c6.455.256 9.081-11.262 8.154-22.005C39.772 21.761 35.459 15.445 31 13" fill="none" stroke="#48B9C7" stroke-width="3" stroke-linecap="round"/>
    <path d="M30.812 10.005A4 4 0 0 0 27.536 12 4 4 0 0 0 29 17.464 4 4 0 0 0 34.464 16 4 4 0 0 0 33 10.536a4 4 0 0 0-2.188-.531z" opacity=".2"/>
    <path d="M30.812 9.005A4 4 0 0 0 27.536 11 4 4 0 0 0 29 16.464 4 4 0 0 0 34.464 15 4 4 0 0 0 33 9.536a4 4 0 0 0-2.188-.531z" fill="#48B9C7"/>
    <path d="M31 11a2 2 0 0 0-2 2 2 2 0 0 0 2 2 2 2 0 0 0 2-2 2 2 0 0 0-2-2z" fill="#504945"/>
    <path d="M45.53 32.88s5.176-4.524 2.17-10.243c-3.006-5.718-14.294-2.233-23.134 3.941C18.202 31.023 14.888 37.915 15 43" opacity=".2" fill="none" stroke="#151819" stroke-width="3" stroke-linecap="round"/>
    <path d="M45.53 31.879s5.176-4.523 2.17-10.242c-3.006-5.718-14.294-2.233-23.134 3.94C18.202 30.024 14.888 36.916 15 42" fill="none" stroke="#48B9C7" stroke-width="3" stroke-linecap="round"/>
    <path d="M11.634 45.16A4 4 0 0 0 15 47a4 4 0 0 0 4-4 4 4 0 0 0-4-4 4 4 0 0 0-4 4 4 4 0 0 0 .634 2.16z" opacity=".2"/>
    <path d="M11.634 44.16A4 4 0 0 0 15 46a4 4 0 0 0 4-4 4 4 0 0 0-4-4 4 4 0 0 0-4 4 4 4 0 0 0 .634 2.16z" fill="#48B9C7"/>
    <path d="M25.914 19.621s-6.505-2.22-9.954 3.242c-3.45 5.462 5.212 13.495 14.98 18.064 7.03 3.29 14.656 2.713 19.004.073" opacity=".2" fill="none" stroke="#151819" stroke-width="3" stroke-linecap="round"/>
    <path d="M13.268 43a2 2 0 0 0 2.732.732A2 2 0 0 0 16.732 41 2 2 0 0 0 14 40.268 2 2 0 0 0 13.268 43z" fill="#504945"/>
    <path d="M25.914 18.62s-6.505-2.22-9.954 3.243c-3.45 5.462 5.212 13.495 14.98 18.064 7.03 3.289 14.656 2.712 19.004.073" fill="none" stroke="#48B9C7" stroke-width="3" stroke-linecap="round"/>
    <path d="M53.498 42.835a4 4 0 0 0-.09-3.835 4 4 0 0 0-5.464-1.464A4 4 0 0 0 46.479 43a4 4 0 0 0 5.465 1.464 4 4 0 0 0 1.554-1.629z" opacity=".2"/>
    <path d="M53.498 41.835a4 4 0 0 0-.09-3.835 4 4 0 0 0-5.464-1.464A4 4 0 0 0 46.479 42a4 4 0 0 0 5.465 1.464 4 4 0 0 0 1.554-1.629z" fill="#48B9C7"/>
    <path d="M51.676 41a2 2 0 0 0-.732-2.732 2 2 0 0 0-2.732.732 2 2 0 0 0 .732 2.732A2 2 0 0 0 51.676 41z" fill="#504945"/>
    <path d="M31.5 3A28.5 28.5 0 0 0 3 31.5a28.5 28.5 0 0 0 .021.418A28.5 28.5 0 0 1 31.5 4a28.5 28.5 0 0 1 28.479 28.082A28.5 28.5 0 0 0 60 31.5 28.5 28.5 0 0 0 31.5 3z" fill="#F9F5D7" opacity=".1"/>
</svg>
