<svg xmlns="http://www.w3.org/2000/svg" width="64" height="64" version="1">
    <path d="M4.055 32.006c-.012.335-.051.662-.051 1A27.933 27.933 0 0 0 31.998 61a27.933 27.933 0 0 0 27.994-27.994c0-.338-.039-.665-.05-1C59.414 47.045 47.168 59 31.997 59 16.826 59 4.581 47.045 4.053 32.006z" opacity=".2"/>
    <rect width="56" height="56" x="-60" y="-59.99" rx="27.994" ry="27.994" transform="matrix(0 -1 -1 0 0 0)" fill="#48B9C7"/>
    <path d="M31.123 4.055a28.29 28.29 0 0 0-4.17.43l1.16-.15.972.837-2.558 1.367 3.258.773.418-1.094h1.423l.5-.953-1.003-.253v-.957zm-5.303.656C15.38 7.048 7.2 15.175 4.77 25.577l.09.134-.24.44c-.042.205-.074.413-.112.621l1.058 1.632 2.93.73v-.476l1.17.168-.109.84.918.168 1.422.39 2.011 2.305 2.57.19.246 2.11-1.754 1.23-.082 1.883-.253 1.148 2.542 3.203.191 1.088s.923.254 1.035.254c.112 0 2.066 1.49 2.066 1.49v5.778l.7.196-.472 2.664 1.167 1.57-.216 2.643.024.044a27.774 27.774 0 0 0 4.528 1.378l.058-.168.057-.77-.995-.03-.504-.63.828-.8.114-.602-.922-.266.054-.557 1.314-.198 1.995-.966.668-1.234 2.092-2.691-.472-2.108.64-1.122 1.921.062 1.298-1.034.422-4.067 1.435-1.835.25-1.178-1.311-.422-.862-1.426-2.958-.032-2.347-.898-.108-1.68-.782-1.373-2.125-.032-1.222-1.938-1.09-.53-.058.586-1.98.12-.727-1.015-2.062-.422-1.703 1.977-2.679-.454-.195-3.037-1.957-.336.785-1.49-.222-.857-2.57 1.73-1.617-.2-.578-1.269.352-1.31.894-1.647 2.054-1.046h3.96l-.011 1.214 1.421.664-.113-2.074 1.027-1.041 2.07-1.364.145-.961 2.066-2.164 2.194-1.222-.19-.16 1.484-1.41.542.144.254.32.561-.632.138-.063-.618-.086-.627-.21v-.606l.336-.273h.73l.335.148.288.59.36-.055v-.05l.098.03 1.036-.155.144-.504.586.148v.547l-.544.375.082.601 1.86.578s.004.008.008.024l.43-.035.025-.813-1.475-.68-.086-.386 1.226-.422.056-1.18-1.282-.784-.086-1.992-1.758.867h-.64l.164-1.515-2.39-.567-.987.754v2.293l-1.782.566-.716 1.496-.771.129v-1.918l-1.676-.23-.836-.547-.336-1.242 2.992-1.761 1.463-.446.15.988.816-.039.062-.5.856-.125.012-.171-.364-.153-.086-.527 1.05-.086.634-.668.032-.047.01.004.106-.109zM14.658 10.7l.793.192-.274 1.07-.859.277-.543-1.12.883-.418zm35.947.395l-.392.067-1.21 1.726-1.738.277-.254 1.496.734.172-.212.96-1.725-.347-1.578.348-.34.882.274 1.86.93.437 1.558-.008 1.05-.094.321-.843 1.644-2.149 1.086.223 1.062-.969.2.754 2.619 1.781-.32.434-1.18-.063.454.645.726.16.856-.356-.024-1.03.384-.192-.31-.324-1.75-.98-.452-1.301h.96a27.96 27.96 0 0 0-3.373-3.566zm-33.771 2.148h1.316v.403h.293v.695H16.43l-.75-.211.188-.484.965-.403zm1.968.297l.687.629-.687.172v-.801zm1.519.969l.508.324-.41.34-.406-.34.308-.324zm-3.862.105h1.109l-1.426 2-.586-.317.125-.84.778-.843zm1.78 0h1.13v.672l-.505.324-.624.121v-1.117zm1.399.738h.086l1.277.379v.652h-1.07l-.293-.425v-.606zm-.524.606v.656l-.48.484h-1.066l.168-.734.504-.043.101-.25.773-.113zm33.192 2.78l-3.766.297-1.167.629h-1.496l-.734-.074-1.816 1.015v1.91l-3.713 2.691.308 1.148h.75l-.192 1.094-.534.194-.028 2.863 3.21 3.676h1.395l.09-.222h2.506l.724-.676h1.425l.78.788 2.126.224-.282 2.833 2.351 4.18-1.238 2.383.082 1.123.976.98v2.7l.274.368c3.535-4.687 5.655-10.508 5.655-16.857 0-4.037-.86-7.86-2.385-11.322l-1.192.116v1.052h-.544l-.586-.422-2.98-.754V18.74z" opacity=".3" fill="#F9F5D7"/>
    <path d="M51.776 12.23L12.222 51.78a27.908 27.908 0 0 0 39.554 0 27.908 27.908 0 0 0 0-39.554z" opacity=".1"/>
    <path d="M12.223 51.782l17.304-22.25 2.342 2.342 2.603 2.603z" fill="#F9F5D7"/>
    <path d="M51.776 12.23l-22.25 17.304 4.945 4.944z" fill="#FA4934"/>
    <path d="M32 4.012A27.933 27.933 0 0 0 4.006 32.006c0 .147-.012.293 0 .437C4.305 17.198 16.68 5.011 32 5.011s27.695 12.187 27.995 27.432c.012-.144 0-.29 0-.437A27.933 27.933 0 0 0 32 4.012z" opacity=".4" fill="#F9F5D7"/>
    <path d="M51.776 12.23L12.222 51.78a27.908 27.908 0 0 1 0-39.554 27.908 27.908 0 0 1 39.554 0z" opacity=".2" fill="#F9F5D7"/>
</svg>
