<svg xmlns="http://www.w3.org/2000/svg" width="64" height="64" version="1">
    <path d="M32 3c-1.572 0-3.145.586-4.32 1.76L3.76 28.684c-2.349 2.35-2.346 6.281.004 8.63l23.92 23.923c2.35 2.35 6.285 2.353 8.634.004l23.92-23.923c2.35-2.35 2.35-6.284 0-8.634L36.318 4.761C35.143 3.586 33.57 3 31.999 3z" opacity=".2"/>
    <path d="M32 2c-1.572 0-3.145.586-4.32 1.76L3.76 27.683c-2.349 2.35-2.346 6.281.004 8.63l23.92 23.923c2.35 2.35 6.285 2.353 8.634.004l23.92-23.923c2.35-2.35 2.35-6.284 0-8.634L36.318 3.76C35.143 2.586 33.57 2 31.999 2z" fill="#7CB668"/>
    <path d="M32 2c-1.571 0-3.146.585-4.32 1.76L3.76 27.684c-1.3 1.3-1.876 3.082-1.737 4.814.111-1.4.687-2.765 1.737-3.814L27.68 4.76C28.854 3.585 30.429 3 32 3c1.572 0 3.144.585 4.318 1.76l23.92 23.924a6.054 6.054 0 0 1 1.739 3.816c.138-1.733-.44-3.517-1.739-4.816L36.318 3.76C35.144 2.585 33.572 2 32 2z" fill="#F9F5D7" opacity=".2"/>
    <path d="M9 11.001c-1.662 0-3 1.338-3 3s1.338 3 3 3h1v34a6 6 0 0 0 10.193 4.291L59.418 16.96A2.985 2.985 0 0 0 62 14.001c0-1.662-1.338-3-3-3H45a2.993 2.993 0 0 0-2 5.225L22 36.749V17.001h1c1.662 0 3-1.338 3-3s-1.338-3-3-3H9z" opacity=".2"/>
    <path d="M9 10.001c-1.662 0-3 1.338-3 3s1.338 3 3 3h1v34a6 6 0 0 0 10.193 4.291L59.418 15.96A2.985 2.985 0 0 0 62 13.001c0-1.662-1.338-3-3-3H45a2.993 2.993 0 0 0-2 5.225L22 35.749V16.001h1c1.662 0 3-1.338 3-3s-1.338-3-3-3H9z" fill="#F9F5D7"/>
    <path d="M9 10.002c-1.662 0-3 1.338-3 3 0 .172.023.336.05.5a2.985 2.985 0 0 1 2.95-2.5h14a2.985 2.985 0 0 1 2.95 2.5c.027-.164.05-.328.05-.5 0-1.662-1.338-3-3-3H9zm36 0c-1.662 0-3 1.338-3 3 0 .164.027.32.053.477A2.986 2.986 0 0 1 45 11.002h14a2.985 2.985 0 0 1 2.953 2.521A2.993 2.993 0 0 0 59 10.002H45zm-2.467 5.682L22 35.75v1l21-20.523a3.071 3.071 0 0 1-.467-.543z" opacity=".2" fill="#F9F5D7"/>
</svg>
