<svg xmlns="http://www.w3.org/2000/svg" width="64" height="64">
    <path d="M32 6a3 3 0 0 0-3 3v2H12c-2.216 0-4 1.784-4 4v17H6a3 3 0 0 0-3 3 3 3 0 0 0 3 3h2v17c0 2.216 1.784 4 4 4h40c2.216 0 4-1.784 4-4V38h2a3 3 0 0 0 3-3 3 3 0 0 0-3-3h-2V15c0-2.216-1.784-4-4-4H35V9a3 3 0 0 0-3-3z" opacity=".2"/>
    <path d="M32 5a3 3 0 0 0-3 3v2H12c-2.216 0-4 1.784-4 4v17H6a3 3 0 0 0-3 3 3 3 0 0 0 3 3h2v17c0 2.216 1.784 4 4 4h40c2.216 0 4-1.784 4-4V37h2a3 3 0 0 0 3-3 3 3 0 0 0-3-3h-2V14c0-2.216-1.784-4-4-4H35V8a3 3 0 0 0-3-3z" fill="#FA4934"/>
    <path d="M32 17l-16 9v8l23 8-7 4-9-5v-2l-7-2.449V45l16 9 16-9v-8l-23-8 7-4 9 5v2l7 2.502V26z" opacity=".2"/>
    <path d="M32 16l-16 9v8l23 8-7 4-9-5v-2l-7-2.449V44l16 9 16-9v-8l-23-8 7-4 9 5v2l7 2.502V25z" fill="#F9F5D7"/>
    <path d="M32 5a3 3 0 0 0-3 3v1a3 3 0 0 1 3-3 3 3 0 0 1 3 3V8a3 3 0 0 0-3-3zm-20 5c-2.216 0-4 1.784-4 4v1c0-2.216 1.784-4 4-4h17v-1H12zm23 0v1h17c2.216 0 4 1.784 4 4v-1c0-2.216-1.784-4-4-4H35zM6 31a3 3 0 0 0-3 3 3 3 0 0 0 .043.486A3 3 0 0 1 6 32h2v-1H6zm50 0v1h2a3 3 0 0 1 2.957 2.514A3 3 0 0 0 61 34a3 3 0 0 0-3-3h-2z" fill="#F9F5D7" opacity=".2"/>
</svg>
