<svg xmlns="http://www.w3.org/2000/svg" xmlns:xlink="http://www.w3.org/1999/xlink" width="64" height="64">
    <defs>
        <path id="a" d="M490.72 139.23c4.1 0 7.42 3.32 7.42 7.42v60.83c0 4.1-3.32 7.42-7.42 7.42H361.65c-4.1 0-7.43-3.32-7.43-7.42v-60.83c0-4.1 3.33-7.42 7.43-7.42h129.07z"/>
        <path id="b" d="M297.34 214.9c5.52 0 10 4.48 10 10v55.68c0 5.52-4.48 10-10 10H123.42c-5.52 0-10-4.48-10-10V224.9c0-5.52 4.48-10 10-10h173.92z"/>
        <path id="c" d="M490.72 290.58c4.1 0 7.42 3.32 7.42 7.42v60.83c0 4.1-3.32 7.43-7.42 7.43H361.65c-4.1 0-7.43-3.33-7.43-7.43V298c0-4.1 3.33-7.42 7.43-7.42h129.07z"/>
    </defs>
    <path d="M26 5a14 14 0 0 0-13.535 10.494A13 13 0 0 0 3 28a13 13 0 0 0 13 13 13 13 0 0 0 1.814-.143A14 14 0 0 0 30 48a14 14 0 0 0 10.813-5.117A10.5 10.5 0 0 0 45.5 44 10.5 10.5 0 0 0 56 33.5a10.5 10.5 0 0 0-.002-.063A10.5 10.5 0 0 0 61 24.5a10.5 10.5 0 0 0-9.748-10.463A8.5 8.5 0 0 0 43.5 9a8.5 8.5 0 0 0-5.813 2.305A14 14 0 0 0 26 5zm14 43a5 5 0 0 0-5 5 5 5 0 0 0 5 5 5 5 0 0 0 5-5 5 5 0 0 0-5-5zm-15 5a4 4 0 0 0-4 4 4 4 0 0 0 4 4 4 4 0 0 0 4-4 4 4 0 0 0-4-4z" opacity=".2"/>
    <ellipse cx="36.614" cy="21.114" rx="7.25" ry="7.25" fill="#F9F5D7"/>
    <circle cx="26" cy="18" r="14" fill="#F9F5D7"/>
    <circle cx="43.5" cy="16.5" r="8.5" fill="#F9F5D7"/>
    <circle cx="16" cy="27" r="13" fill="#F9F5D7"/>
    <circle cx="50.5" cy="23.5" r="10.5" fill="#F9F5D7"/>
    <circle cx="45.5" cy="32.5" r="10.5" fill="#F9F5D7"/>
    <circle cx="30" cy="33" r="14" fill="#F9F5D7"/>
    <use width="100%" height="100%" transform="matrix(.09033 0 0 .10572 3.004 1.28)" xlink:href="#a" opacity=".1"/>
    <path d="M26.727 25.464l9.228-7.646" fill="none" stroke="#3A393A" stroke-width="2.636"/>
    <use width="100%" height="100%" transform="matrix(.09033 0 0 .10572 3.004 .28)" xlink:href="#a" fill="#B7BB25"/>
    <path d="M26.727 28.535l9.228 7.645" fill="none" stroke="#3A393A" stroke-width="2.636"/>
    <use width="100%" height="100%" transform="matrix(.09798 0 0 .1057 -.113 1.283)" xlink:href="#b" opacity=".1"/>
    <use width="100%" height="100%" transform="matrix(.09798 0 0 .1057 -.113 .283)" xlink:href="#b" fill="#CB241D"/>
    <use width="100%" height="100%" transform="matrix(.09033 0 0 .1057 3.004 1.283)" xlink:href="#c" opacity=".1"/>
    <use width="100%" height="100%" transform="matrix(.09033 0 0 .1057 3.004 .283)" xlink:href="#c" fill="#066678"/>
    <circle cx="40" cy="52" r="5" fill="#F9F5D7"/>
    <circle cx="25" cy="56" r="4" fill="#F9F5D7"/>
    <path d="M26 4a14 14 0 0 0-13.535 10.494A13 13 0 0 0 3 27a13 13 0 0 0 .023.488 13 13 0 0 1 9.442-11.994A14 14 0 0 1 26 5a14 14 0 0 1 11.688 6.305A8.5 8.5 0 0 1 43.5 9a8.5 8.5 0 0 1 7.752 5.037 10.5 10.5 0 0 1 9.725 9.983A10.5 10.5 0 0 0 61 23.5a10.5 10.5 0 0 0-9.748-10.463A8.5 8.5 0 0 0 43.5 8a8.5 8.5 0 0 0-5.813 2.305A14 14 0 0 0 26 4zm14 43a5 5 0 0 0-5 5 5 5 0 0 0 .027.516A5 5 0 0 1 40 48a5 5 0 0 1 4.973 4.484A5 5 0 0 0 45 52a5 5 0 0 0-5-5zm-15 5a4 4 0 0 0-4 4 4 4 0 0 0 .035.506A4 4 0 0 1 25 53a4 4 0 0 1 3.965 3.494A4 4 0 0 0 29 56a4 4 0 0 0-4-4z" opacity=".2" fill="#F9F5D7"/>
</svg>
