<svg xmlns="http://www.w3.org/2000/svg" width="64" height="64">
    <path d="M12.951 5.045c-2.341.194-5.853 1.87-7.476 4.44-2.011 3.189-1.544 4.81-1.445 6.34.1 1.53.402 2.902.883 4.324.73 2.154 1.933 3.862 2.98 5.741-1.107 2.917-1.883 5.947-1.89 9.093v.02C6.003 49.266 17.737 61 32 61s25.997-11.734 25.997-25.997v-.012c-.005-3.15-.782-6.184-1.89-9.105 1.047-1.877 2.25-3.582 2.98-5.737.482-1.422.783-2.794.883-4.324.1-1.53.566-3.152-1.445-6.34-1.08-1.71-3.052-3.248-4.894-3.897-1.838-.648-3.4-.644-4.68-.528-.794.07-1.576.21-2.355.403-3.53.853-6.63 2.5-9.76 4.476-1.612-.314-3.164-.93-4.812-.934h-.028c-1.657.001-3.22.616-4.84.93-3.127-1.975-6.224-3.62-9.752-4.472a15.352 15.352 0 0 0-2.363-.403 12.01 12.01 0 0 0-2.09-.015z" opacity=".2"/>
    <path d="M12.951 4.045c-2.341.194-5.853 1.87-7.476 4.44-2.011 3.189-1.544 4.81-1.445 6.34.1 1.53.402 2.903.883 4.324.73 2.155 1.933 3.863 2.98 5.742-1.107 2.916-1.883 5.946-1.89 9.092v.02C6.003 48.266 17.737 60 32 60s25.997-11.734 25.997-25.997v-.012c-.005-3.15-.782-6.183-1.89-9.104 1.047-1.878 2.25-3.583 2.98-5.738.482-1.421.783-2.793.883-4.324.1-1.53.566-3.152-1.445-6.34-1.08-1.71-3.052-3.248-4.894-3.897-1.838-.648-3.4-.644-4.68-.527-.794.07-1.576.208-2.355.402-3.53.853-6.63 2.5-9.76 4.476-1.612-.314-3.164-.929-4.812-.933h-.028c-1.657 0-3.22.615-4.84.93-3.127-1.975-6.224-3.62-9.752-4.473a15.352 15.352 0 0 0-2.363-.402 12.01 12.01 0 0 0-2.09-.016z" fill="#FA4934"/>
    <path d="M13.611 13.017c-.648.053-1.093.298-1.37.738-.396.626-.292 2.23.25 3.828.537 1.587 1.821 4.095 3.023 6.132a20.13 20.13 0 0 1 7.897-6.742c-2.834-1.79-5.882-3.256-7.897-3.742a7.455 7.455 0 0 0-1.184-.207 4.142 4.142 0 0 0-.719-.007zm36.778 0a4.144 4.144 0 0 0-.719.007c-.35.03-.744.096-1.183.207-2.235.539-5.752 2.258-8.824 4.316C38.1 18.595 38 18.732 38 19.793c0 .759.062 1.01.445 1.805 1.06 2.198 3.429 4.444 5.456 5.171.9.323 2.05.312 2.477-.023 1.07-.84 4.214-6.453 5.132-9.164.54-1.597.645-3.2.25-3.827-.278-.44-.722-.685-1.371-.738zM32 17.004a17.998 17.998 0 0 0-17.998 17.999A17.998 17.998 0 0 0 32 53a17.998 17.998 0 0 0 17.998-17.998 17.998 17.998 0 0 0-1.632-7.441 4.607 4.607 0 0 1-.75.754c-.894.703-1.584.681-2.281.687a6.01 6.01 0 0 1-2.11-.351c-2.793-1.002-5.246-3.419-6.58-6.187-.42-.868-.645-1.806-.645-2.672 0-.56.087-1.447.562-2.18A17.998 17.998 0 0 0 32 17.005z" opacity=".2"/>
    <path d="M13.611 12.017c-.648.054-1.093.299-1.37.738-.396.626-.292 2.23.25 3.828.537 1.587 1.821 4.095 3.023 6.132a20.13 20.13 0 0 1 7.897-6.742c-2.834-1.789-5.882-3.256-7.897-3.741a7.455 7.455 0 0 0-1.184-.207 4.142 4.142 0 0 0-.719-.008zm36.778 0a4.144 4.144 0 0 0-.719.008c-.35.03-.744.096-1.183.207-2.235.538-5.752 2.257-8.824 4.316C38.1 17.595 38 17.732 38 18.793c0 .76.062 1.01.445 1.805 1.06 2.198 3.429 4.444 5.456 5.171.9.323 2.05.312 2.477-.023 1.07-.84 4.214-6.453 5.132-9.163.54-1.598.645-3.202.25-3.828-.278-.44-.722-.684-1.371-.738zM32 16.005a17.998 17.998 0 0 0-17.998 17.998A17.998 17.998 0 0 0 32 52a17.998 17.998 0 0 0 17.998-17.998 17.998 17.998 0 0 0-1.632-7.44 4.607 4.607 0 0 1-.75.753c-.894.703-1.584.681-2.281.687a6.01 6.01 0 0 1-2.11-.351c-2.793-1.002-5.246-3.419-6.58-6.187-.42-.868-.645-1.806-.645-2.672 0-.56.087-1.447.562-2.179a17.998 17.998 0 0 0-4.562-.61z" fill="#F9F5D7"/>
    <path d="M49.965 4.002a15.36 15.36 0 0 0-3.37.46c-3.53.854-6.629 2.5-9.76 4.477-1.61-.313-3.163-.929-4.812-.933h-.027c-1.657 0-3.22.616-4.84.93-3.127-1.975-6.224-3.62-9.752-4.473a15.355 15.355 0 0 0-2.363-.402 12.012 12.012 0 0 0-2.09-.016c-2.341.194-5.854 1.871-7.476 4.441-1.525 2.416-1.623 3.93-1.54 5.188.064-1.072.393-2.37 1.54-4.188 1.622-2.57 5.135-4.247 7.476-4.441a12.012 12.012 0 0 1 2.09.016c.797.07 1.582.208 2.363.402 3.528.853 6.625 2.498 9.752 4.473 1.62-.314 3.183-.93 4.84-.93h.027c1.65.004 3.202.62 4.813.933 3.13-1.976 6.23-3.623 9.76-4.476a15.36 15.36 0 0 1 2.355-.402c1.28-.117 2.842-.12 4.68.527 1.842.649 3.815 2.188 4.894 3.898 1.146 1.817 1.476 3.116 1.54 4.188.083-1.259-.016-2.772-1.54-5.188-1.08-1.71-3.052-3.249-4.894-3.898a10.238 10.238 0 0 0-3.666-.586zm6.36 21.514c-.072.124-.147.245-.218.37 1.056 2.782 1.803 5.666 1.877 8.655.004-.18.014-.357.014-.537v-.014c-.005-2.926-.69-5.746-1.674-8.474zm-48.65.002c-.982 2.724-1.666 5.542-1.673 8.464v.022c0 .183.01.363.014.545.074-2.99.82-5.876 1.877-8.658-.071-.127-.145-.248-.217-.373z" opacity=".2" fill="#F9F5D7"/>
</svg>
