<svg xmlns="http://www.w3.org/2000/svg" width="64" height="64">
    <rect width="56" height="56" x="4" y="5" rx="3" ry="3" opacity=".2"/>
    <rect width="56" height="56" x="4" y="4" rx="3" ry="3" fill="#7CB668"/>
    <path d="M22 20v20c0 4 3 6 6 6h14c3.324 0 5-1.676 5-5V28c0-2.499-2.568-4-5-4-1.473 0-2.577.657-3.531 1.635C37.516 24.657 36.473 24 35 24c-2.636 0-5 1.537-5 4v10h3v-9c0-1.243.757-2 2-2 1.243 0 2 .757 2 2v9h3v-9c0-1.243.757-2 2-2 1.243 0 2 .757 2 2v12c0 1.662-.338 2-2 2H28c-2 0-3-2-3-4V20z" opacity=".2"/>
    <path d="M22 19v20c0 4 3 6 6 6h14c3.324 0 5-1.676 5-5V27c0-2.499-2.568-4-5-4-1.473 0-2.577.657-3.531 1.635C37.516 23.657 36.473 23 35 23c-2.636 0-5 1.537-5 4v10h3v-9c0-1.243.757-2 2-2 1.243 0 2 .757 2 2v9h3v-9c0-1.243.757-2 2-2 1.243 0 2 .757 2 2v12c0 1.662-.338 2-2 2H28c-2 0-3-2-3-4V19z" fill="#F9F5D7"/>
    <path d="M9 14v12h6v12c0 8 5 15 13 15h26V28c0-8.226-6.774-13.96-15-14zm3 3h27c6.615 0 12 4.385 12 11v22H28c-6 0-10-6-10-12V27c0-2.965-1.152-4-4-4h-2z" opacity=".2"/>
    <path d="M9 13v12h6v12c0 8 5 15 13 15h26V27c0-8.226-6.774-13.96-15-14zm3 3h27c6.615 0 12 4.385 12 11v22H28c-6 0-10-6-10-12V26c0-2.965-1.152-4-4-4h-2z" fill="#F9F5D7"/>
    <path d="M7 4C5.338 4 4 5.338 4 7v1c0-1.662 1.338-3 3-3h50c1.662 0 3 1.338 3 3V7c0-1.662-1.338-3-3-3H7z" fill="#F9F5D7" opacity=".2"/>
</svg>
