<svg xmlns="http://www.w3.org/2000/svg" width="64" height="64" version="1">
    <path d="M6.05 32c-.012.334-.05.662-.05 1 0 14.404 11.596 26 26 26 14.403 0 26-11.596 26-26 0-.338-.039-.666-.05-1C57.42 45.932 46.064 57 32 57 17.934 57 6.578 45.932 6.05 32z" opacity=".2"/>
    <rect width="51.999" height="51.999" x="-58" y="-58" rx="26" ry="26" transform="matrix(0 -1 -1 0 0 0)" fill="#97971A"/>
    <path d="M32 6C17.596 6 6 17.596 6 32c0 .11.012.219.018.328C6.373 18.238 17.822 7 32 7c14.178 0 25.627 11.238 25.982 25.328.006-.11.018-.217.018-.328C58 17.596 46.404 6 32 6z" opacity=".2" fill="#F9F5D7"/>
    <path d="M44 33c0 1.911-19.095 12.897-20.756 11.941-1.66-.955-1.66-22.927 0-23.881 1.66-.956 20.755 10.03 20.755 11.94z" opacity=".2"/>
    <path d="M43.999 32c0 1.91-19.094 12.897-20.755 11.941-1.66-.955-1.66-22.927 0-23.881 1.66-.955 20.755 10.03 20.755 11.941z" fill="#F9F5D7"/>
</svg>
