<svg xmlns="http://www.w3.org/2000/svg" width="64" height="64">
    <path d="M7.09 12.883c-.067.29-.104.595-.078.942l2.171 29.218c.083 1.109.615 2.116 1.442 2.734L30.19 60.386a2.97 2.97 0 0 0 3.618 0l19.566-14.61c.827-.617 1.359-1.624 1.441-2.733l2.172-29.218a3.08 3.08 0 0 0-.078-.942l-2.094 28.16c-.082 1.11-.614 2.116-1.441 2.735L33.808 58.387a2.97 2.97 0 0 1-3.617 0l-19.567-14.6c-.827-.619-1.359-1.625-1.441-2.735l-2.094-28.16z" opacity=".2"/>
    <path d="M9.777 4c-1.625.364-2.905 1.376-2.767 3.225l2.174 34.818c.083 1.11.613 2.116 1.44 2.735L30.19 59.386a2.974 2.974 0 0 0 3.62 0l19.566-14.608c.827-.619 1.357-1.625 1.44-2.735L56.99 7.225c.138-1.85-1.142-2.861-2.767-3.226z" fill="#448588"/>
    <path d="M33.388 19.8L29.221 24h4.167l1.389 1.4 2.778-4.2-1.389-1.4zm5.556 1.4l-2.778 4.2 1.389 4.2 4.167-4.2v1.4L37.555 31l1.389 2.8 5.556-5.6v1.4l-5.556 5.6H44.5l2.5-2.8v-2.8l-1.111-1.4v-2.8L43.11 24l-1.39-2.8zm-12.5 4.2l-1.39 1.4 2.778 9.8-10.726 12.017 8.515 6.357 10.545-14.175h2.778l1.389-1.4L43.11 38l1.389-1.4h-6.945l-1.389-4.2h-1.389l-1.389 4.2H30.61L32 32.4l-2.779-2.8 1.389-1.4 2.778 2.8h2.778v-1.4l-2.778-4.2zm-2.779 2.8l1.39 7v1.4l-10.857 9.846.762.568c2.157-1.967 7.636-6.966 11.483-10.415l-2.778-8.4zm9.723 12.6h1.389l-6.945 8.399 5.556-8.4z" opacity=".2" fill-rule="evenodd"/>
    <path d="M33.388 19l-4.167 4.6h4.167l1.389 1.4 2.778-4.2-1.389-1.8zm5.556 2l-2.778 4 1.389 4.199 4.167-4.2v1.4l-4.167 4.2 1.389 2.8 5.556-5.6v1.4l-5.556 5.6H44.5l2.5-2.8v-2.8l-1-1.4v-2.8l-2.89-1.4L41.723 21zm-12.5 4l-1.39 1.399 2.778 9.8-11.478 12.857 8.597 6.417L36.166 40.4h2.778l1.389-1.4 2.778-1.4L44.5 36h-6.945l-1.389-4.001h-1.389L33.388 36H30.61L32 31.999l-2.779-2.8 1.389-1.4 2.778 2.8h2.778v-1.4l-2.778-4.2zm-2.779 2.799l1.39 7v1.4L13.35 46.814l.762.568c1.688-1.539 8.2-7.48 12.33-11.183l-2.778-8.4zm9.723 12.6h1.389l-6.945 8.4 5.556-8.4z" fill="#F9F5D7" fill-rule="evenodd"/>
    <path d="M9.777 4c-1.624.365-2.903 1.377-2.765 3.227l.02.308c.19-1.414 1.336-2.22 2.745-2.537h44.448c1.411.317 2.558 1.124 2.746 2.543l.02-.314c.137-1.85-1.142-2.862-2.766-3.227H9.777z" opacity=".2" fill="#F9F5D7"/>
</svg>
