<svg xmlns="http://www.w3.org/2000/svg" width="64" height="64" version="1">
    <rect width="56" height="56" x="4" y="5" rx="3" ry="3" opacity=".2"/>
    <rect width="56" height="56" x="4" y="4" rx="3" ry="3" fill="#504945"/>
    <path d="M7 4C5.338 4 4 5.338 4 7v1c0-1.662 1.338-3 3-3h50c1.662 0 3 1.338 3 3V7c0-1.662-1.338-3-3-3H7z" fill="#F9F5D7" opacity=".1"/>
    <path d="M15 16c-1.662 0-3 1.338-3 3v30c0 1.662 1.338 3 3 3s3-1.338 3-3V19c0-1.662-1.338-3-3-3z" opacity=".3"/>
    <path d="M15 28c-1.662 0-3 1.338-3 3v18c0 1.662 1.338 3 3 3s3-1.338 3-3V31c0-1.662-1.338-3-3-3z" fill="#7CB668"/>
    <path d="M21 27a6 6 0 0 1-6 6 6 6 0 0 1-6-6 6 6 0 0 1 6-6 6 6 0 0 1 6 6z" opacity=".2"/>
    <path d="M21 26a6 6 0 0 1-6 6 6 6 0 0 1-6-6 6 6 0 0 1 6-6 6 6 0 0 1 6 6z" fill="#928274"/>
    <path d="M47 16c-1.662 0-3 1.338-3 3v30c0 1.662 1.338 3 3 3s3-1.338 3-3V19c0-1.662-1.338-3-3-3z" opacity=".3"/>
    <path d="M47 34.196c-1.662 0-3 1.338-3 3V49c0 1.662 1.338 3 3 3s3-1.338 3-3V37.196c0-1.662-1.338-3-3-3z" fill="#7CB668"/>
    <path d="M53 33a6 6 0 0 1-6 6 6 6 0 0 1-6-6 6 6 0 0 1 6-6 6 6 0 0 1 6 6z" opacity=".2"/>
    <path d="M53 32a6 6 0 0 1-6 6 6 6 0 0 1-6-6 6 6 0 0 1 6-6 6 6 0 0 1 6 6z" fill="#928274"/>
    <path d="M31 16c-1.662 0-3 1.338-3 3v30c0 1.662 1.338 3 3 3s3-1.338 3-3V19c0-1.662-1.338-3-3-3z" opacity=".3"/>
    <path d="M31 42c-1.662 0-3 1.338-3 3v4c0 1.662 1.338 3 3 3s3-1.338 3-3v-4c0-1.662-1.338-3-3-3z" fill="#7CB668"/>
    <path d="M37 41a6 6 0 0 1-6 6 6 6 0 0 1-6-6 6 6 0 0 1 6-6 6 6 0 0 1 6 6z" opacity=".2"/>
    <path d="M37 40a6 6 0 0 1-6 6 6 6 0 0 1-6-6 6 6 0 0 1 6-6 6 6 0 0 1 6 6z" fill="#928274"/>
</svg>
