<svg xmlns="http://www.w3.org/2000/svg" width="64" height="64" version="1">
    <rect width="56" height="56" x="4" y="4" rx="2.8" ry="2.8" fill="#066678"/>
    <path opacity=".2" d="M12 48h40v6H12z"/>
    <path d="M29 40v7H12v6h40v-6H35v-7h-6z" fill="#3A393A"/>
    <path d="M19.34 9C17.49 9 16 10.49 16 12.34v25.32c0 1.85 1.49 3.34 3.34 3.34h25.32c1.85 0 3.34-1.49 3.34-3.34V12.34C48 10.49 46.51 9 44.66 9H19.34zM24 17h16v16H24V17z" opacity=".2"/>
    <path d="M6.8 4C5.25 4 4 5.25 4 6.8v1C4 6.25 5.25 5 6.8 5h50.4C58.75 5 60 6.25 60 7.8v-1C60 5.25 58.75 4 57.2 4H6.8z" opacity=".2" fill="#F9F5D7"/>
    <path d="M4 57.2v1C4 59.75 5.25 61 6.8 61h50.4c1.55 0 2.8-1.25 2.8-2.8v-1c0 1.55-1.25 2.8-2.8 2.8H6.8C5.25 60 4 58.75 4 57.2z" opacity=".2"/>
    <path d="M19.34 8C17.49 8 16 9.49 16 11.34v25.32c0 1.85 1.49 3.34 3.34 3.34h25.32c1.85 0 3.34-1.49 3.34-3.34V11.34C48 9.49 46.51 8 44.66 8H19.34zM24 16h16v16H24V16z" fill="#FECE4F"/>
    <circle cx="14" cy="51" r="6" opacity=".2"/>
    <circle cx="14" cy="50" r="6" fill="#FD8019"/>
    <circle cx="32" cy="51" r="6" opacity=".2"/>
    <circle cx="32" cy="50" r="6" fill="#FD8019"/>
    <circle cx="49.999" cy="51" r="6" opacity=".2"/>
    <circle cx="49.999" cy="50" r="6" fill="#FD8019"/>
</svg>
