<svg xmlns="http://www.w3.org/2000/svg" width="64" height="64" version="1">
    <rect width="44" height="56" x="-54" y="-60" rx="3" ry="3" transform="matrix(0 -1 -1 0 0 0)" fill="#48B9C7"/>
    <path d="M4 51v1c0 1.662 1.338 3 3 3h50c1.662 0 3-1.338 3-3v-1c0 1.662-1.338 3-3 3H7c-1.662 0-3-1.338-3-3z" opacity=".2"/>
    <path d="M7 10c-1.662 0-3 1.338-3 3v1c0-1.662 1.338-3 3-3h50c1.662 0 3 1.338 3 3v-1c0-1.662-1.338-3-3-3H7z" opacity=".1" fill="#F9F5D7"/>
    <rect width="24" height="30" x="-56" y="-62" rx="1" ry="1" transform="matrix(0 -1 -1 0 0 0)" fill="#F9F5D7"/>
    <path d="M32 55v1c0 .554.446 1 1 1h28c.554 0 1-.446 1-1v-1c0 .554-.446 1-1 1H33c-.554 0-1-.446-1-1z" opacity=".1"/>
</svg>
