<svg xmlns="http://www.w3.org/2000/svg" width="64" height="64">
    <path d="M32 5A28 28 0 0 0 4 33a28 28 0 0 0 28 28 28 28 0 0 0 28-28A28 28 0 0 0 32 5z" opacity=".2"/>
    <path d="M32 4A28 28 0 0 0 4 32a28 28 0 0 0 28 28 28 28 0 0 0 28-28A28 28 0 0 0 32 4z" fill="#F9F5D7"/>
    <path d="M46.4 39.9L32 48.1l-14.5-8.2V24.1L32 15.9l14.4 8.2" fill="none" stroke="#504945" stroke-width="5"/>
    <path d="M40 36.5L32 41l-8.5-4.8v-8.4L32 23l8 4.5" fill="none" stroke="#8F3F71" stroke-width="3"/>
    <path d="M32 4A28 28 0 0 0 4 32a28 28 0 0 0 .021.406A28 28 0 0 1 32 5a28 28 0 0 1 27.979 27.578A28 28 0 0 0 60 32 28 28 0 0 0 32 4z" opacity=".1" fill="#F9F5D7"/>
</svg>
