<svg xmlns="http://www.w3.org/2000/svg" width="64" height="64" version="1">
    <path d="M32 5C16.488 5 4 17.488 4 33s12.488 28 28 28 28-12.488 28-28S47.512 5 32 5z" opacity=".2"/>
    <path d="M32 4C16.488 4 4 16.488 4 32s12.488 28 28 28 28-12.488 28-28S47.512 4 32 4z" fill="#F9F5D7"/>
    <path d="M24 12a28 28 0 0 0-15.434 4.66A27.91 27.91 0 0 0 4 32c0 1.463.145 2.888.36 4.29A20 20 0 0 1 24 20a20 20 0 0 1 20 20 20 20 0 0 1-16.29 19.64c1.402.215 2.827.36 4.29.36a27.91 27.91 0 0 0 15.348-4.57A28 28 0 0 0 52 40a28 28 0 0 0-28-28z" fill="#066678"/>
    <path d="M32.418 5.031A28 28 0 0 0 24 25.011a28 28 0 0 0 25.5 27.86 27.966 27.966 0 0 0 7.086-8.43 20 20 0 0 1-4.586.57 20 20 0 0 1-20-20A20 20 0 0 1 42.906 7.204c-3.227-1.359-6.769-2.117-10.488-2.172z" opacity=".2"/>
    <path d="M32.418 4.02A28 28 0 0 0 24 24a28 28 0 0 0 27.629 27.988 27.922 27.922 0 0 0 6.062-8.832A20 20 0 0 1 52 44a20 20 0 0 1-20-20A20 20 0 0 1 42.906 6.191C39.68 4.833 36.137 4.074 32.418 4.02z" fill="#7CB668"/>
    <path d="M32 4C16.488 4 4 16.488 4 32c0 .113.011.224.018.336C4.369 17.134 16.71 5 32 5c15.29 0 27.63 12.134 27.982 27.336.007-.112.018-.223.018-.336C60 16.488 47.512 4 32 4z" opacity=".1" fill="#F9F5D7"/>
</svg>
