<svg xmlns="http://www.w3.org/2000/svg" width="64" height="64" version="1">
    <rect width="56" height="56" x="4" y="5" rx="2.8" ry="2.8" opacity=".2"/>
    <rect width="56" height="56" x="4" y="4" rx="2.8" ry="2.8" fill="#504945"/>
    <path d="M8 9v6h6V9H8zm42 0v6h6V9h-6zM8 23v6h6v-6H8zm42 0v6h6v-6h-6zM8 37v6h6v-6H8zm42 0v6h6v-6h-6zM8 51v6h6v-6H8zm42 0v6h6v-6h-6zM32 13h14s-8.975 1.914-10 5.238c-.772 2.507 4.537 4.573 4 7.143-.644 3.081-7.361 3.108-8 6.19-.605 2.918 6.502 5.158 6 8.096-.53 3.096-7.943 3.524-8 6.666C29.945 49.365 38 53 38 53H18z" opacity=".2"/>
    <path d="M32 12h14s-8.975 1.914-10 5.238c-.772 2.507 4.537 4.573 4 7.143-.644 3.081-7.361 3.108-8 6.19-.605 2.918 6.502 5.158 6 8.096-.53 3.096-7.943 3.524-8 6.666C29.945 48.365 38 52 38 52H18z" fill="#F9F5D7"/>
    <path d="M8 8v6h6V8H8zm42 0v6h6V8h-6zM8 22v6h6v-6H8zm42 0v6h6v-6h-6zM8 36v6h6v-6H8zm42 0v6h6v-6h-6zM8 50v6h6v-6H8zm42 0v6h6v-6h-6z" fill="#928274"/>
    <path d="M6.8 4C5.25 4 4 5.25 4 6.8v1C4 6.25 5.25 5 6.8 5h50.4C58.75 5 60 6.25 60 7.8v-1C60 5.25 58.75 4 57.2 4H6.8z" opacity=".1" fill="#F9F5D7"/>
</svg>
