<svg xmlns="http://www.w3.org/2000/svg" width="64" height="64" version="1">
    <path d="M29.602 5A5.59 5.59 0 0 0 24 10.602v16.796c0 .367.039.724.105 1.07a9.481 7.738 0 0 0-.316.4l-7.258 10.265L9.27 49.395A9.481 7.738 0 0 0 17.48 61h29.04a9.481 7.738 0 0 0 8.21-11.605L47.47 39.133 40.21 28.867a9.481 7.738 0 0 0-.316-.398c.066-.347.105-.704.105-1.07V10.601A5.59 5.59 0 0 0 34.398 5h-4.796z" opacity=".2"/>
    <rect width="16" height="28" x="24" y="4" ry="5.6" fill="#F9F5D7"/>
    <path d="M32.446 24.009a9.481 7.738 0 0 0-8.655 3.86L16.53 38.13 9.269 48.395A9.481 7.738 0 0 0 17.48 60h29.04a9.481 7.738 0 0 0 8.211-11.605l-7.26-10.264-7.26-10.263a9.481 7.738 0 0 0-7.765-3.86z" fill="#F9F5D7"/>
    <path d="M33 12a3 3 0 0 0-3 3 3 3 0 0 0 3 3 3 3 0 0 0 3-3 3 3 0 0 0-3-3zM29 20a3 3 0 0 0-3 3 3 3 0 0 0 3 3 3 3 0 0 0 3-3 3 3 0 0 0-3-3zM35 26a3 3 0 0 0-3 3 3 3 0 0 0 3 3 3 3 0 0 0 3-3 3 3 0 0 0-3-3zM29 34a3 3 0 0 0-3 3 3 3 0 0 0 3 3 3 3 0 0 0 3-3 3 3 0 0 0-3-3zM21.387 44l-2.639 3.98c-2.126 3.21.533 6.02 4.788 6.02h16.928c4.255 0 6.914-2.81 4.788-6.02L42.613 44z" fill="#8F3F71"/>
    <path d="M29.602 4A5.59 5.59 0 0 0 24 9.602v1A5.59 5.59 0 0 1 29.602 5h4.796A5.59 5.59 0 0 1 40 10.602v-1A5.59 5.59 0 0 0 34.398 4h-4.796zM24.01 27.59a9.481 7.738 0 0 0-.22.277L16.53 38.133 9.27 48.395a9.481 7.738 0 0 0-1.243 4.431 9.481 7.738 0 0 1 1.243-3.431l7.261-10.262 7.258-10.266a9.481 7.738 0 0 1 .316-.398 5.795 5.795 0 0 1-.095-.88zm15.98 0c-.01.299-.04.593-.095.879a9.481 7.738 0 0 1 .316.398l7.258 10.266 7.261 10.262a9.481 7.738 0 0 1 1.245 3.425 9.481 7.738 0 0 0-1.245-4.425L47.47 38.133 40.21 27.867a9.481 7.738 0 0 0-.22-.277z" opacity=".2" fill="#F9F5D7"/>
</svg>
