<svg xmlns="http://www.w3.org/2000/svg" width="64" height="64" version="1">
    <circle cx="32" cy="33" r="28" opacity=".2"/>
    <circle cx="32" cy="32" r="28" fill="#8F3F71"/>
    <path d="M27.39 6.89l-7.643 29.38c-2.201-12.204-4.099-18.687-6.685-23.857a28 28 0 0 0-5.712 7.325c1.825 4.69 3.583 10.996 5.941 20.948C15.83 51.52 19.94 55.43 29.337 57.284l6.732 1.602 7.64-29.383c2.27 12.589 4.222 19.091 6.937 24.341a28 28 0 0 0 5.728-7.101c-1.923-4.75-3.737-11.217-6.21-21.654-2.538-10.833-6.648-14.744-16.045-16.597zm6.426 7.82c4.764 1.272 6.58 3.592 8.05 8.337h-3.23l-8.993 28.019c-4.764-1.272-6.581-3.592-8.05-8.337h3.23z" opacity=".2"/>
    <path d="M27.39 5.89l-7.643 29.38c-2.201-12.204-4.099-18.687-6.685-23.857a28 28 0 0 0-5.712 7.325c1.825 4.69 3.583 10.996 5.941 20.948C15.83 50.52 19.94 54.43 29.337 56.284l6.732 1.602 7.64-29.383c2.27 12.589 4.222 19.091 6.937 24.341a28 28 0 0 0 5.728-7.101c-1.923-4.75-3.737-11.217-6.21-21.654C47.626 13.256 43.516 9.345 34.12 7.492zm6.426 7.82c4.764 1.272 6.58 3.592 8.05 8.337h-3.23l-8.993 28.019c-4.764-1.272-6.581-3.592-8.05-8.337h3.23z" fill="#F9F5D7"/>
    <path d="M32 4A28 28 0 0 0 4 32a28 28 0 0 0 .018.492A28 28 0 0 1 32 5a28 28 0 0 1 27.975 27.492A28 28 0 0 0 60 32 28 28 0 0 0 32 4z" opacity=".1" fill="#F9F5D7"/>
</svg>
