<svg xmlns="http://www.w3.org/2000/svg" width="64" height="64">
    <path d="M32.156 4.002a6.78 6.78 0 0 0-3.454.85L9.297 15.667C7.257 16.805 6 18.907 6 21.182v21.633c0 2.275 1.257 4.377 3.297 5.514l19.405 10.817c1.05.586 2.226.87 3.398.852 1.105-.016.87-1.226 1.86-1.778l19.302-10.61c2.04-1.138 3.71-2.213 3.709-4.488v-21.53c0-.774.883-1.94.611-2.642a6.43 6.43 0 0 0-2.88-3.284L35.298 4.849A6.774 6.774 0 0 0 32.156 4z" fill="#FA4934"/>
    <path d="M6.523 18.715A6.595 6.367 0 0 0 6 21.182v21.632a6.595 6.367 0 0 0 3.297 5.516l19.406 10.816a6.595 6.367 0 0 0 3.297.848V32.25z" fill="#FD8019"/>
    <path d="M57.482 18.71L32 32.25v27.744a6.595 6.367 0 0 0 3.297-.848L54.7 48.33A6.595 6.367 0 0 0 58 42.813V21.18a6.595 6.367 0 0 0-.518-2.47z" fill="#3A393A"/>
    <path d="M32.156 4.002a6.595 6.372 0 0 0-3.453.852L9.297 15.678A6.595 6.372 0 0 0 6 21.198v1.001a6.595 6.372 0 0 1 3.297-5.521L28.703 5.854a6.595 6.372 0 0 1 3.453-.852 6.595 6.372 0 0 1 3.14.852l19.407 10.824A6.595 6.372 0 0 1 58 22.199v-1.002a6.595 6.372 0 0 0-3.297-5.52L35.297 4.855a6.595 6.372 0 0 0-3.14-.852z" fill="#F9F5D7" opacity=".2"/>
    <path d="M6 41.8a6.595 6.372 0 0 0 .002.075v-.074zm.002 1v1a6.595 6.372 0 0 0 3.297 5.518l19.406 10.829a6.595 6.372 0 0 0 6.594 0l19.404-10.829A6.595 6.372 0 0 0 58 43.801v-1a6.595 6.372 0 0 1-3.297 5.517L35.3 59.147a6.595 6.372 0 0 1-6.594 0L9.3 48.318a6.595 6.372 0 0 1-3.297-5.517z" opacity=".2"/>
    <path d="M6.523 18.715A6.595 6.367 0 0 0 6 21.182v1a6.595 6.367 0 0 1 .523-2.467L32 33.25v-1z" fill="#F9F5D7" opacity=".2"/>
    <path d="M57.482 18.71L32 32.25v1l25.482-13.54A6.595 6.367 0 0 1 58 22.18v-1a6.595 6.367 0 0 0-.518-2.47zM46 46.062l-10 5.323v2.434l10-5.417z" opacity=".2"/>
    <path d="M46 45.062l-10 5.323v2.434l10-5.417z" fill="#F9F5D7"/>
</svg>
