<svg xmlns="http://www.w3.org/2000/svg" width="64" height="64">
    <path d="M59.957 31.8A28 28 0 0 1 32 59 28 28 0 0 1 4.044 32 28 28 0 0 0 4 33a28 28 0 0 0 28 28 28 28 0 0 0 27.999-28 28 28 0 0 0-.043-1.171z" opacity=".2"/>
    <circle cx="32" cy="32.001" r="28" fill="#C77089"/>
    <path d="M26.68 5.4a28 28 0 0 0-2.137.485c-.898.25-1.787.541-2.656.88a27.935 27.935 0 0 0-4.973 2.53 27.99 27.99 0 0 0-4.37 3.469c-.087.09-.174.182-.259.274.534 3.66 3.167 8.06 6.016 11.574a16 16 0 0 0-2.301 8.4 16 16 0 0 0 .035.992C11.846 31.717 7.58 28.14 5.609 23.918c-.103.27-.206.54-.3.812-.276.89-.503 1.794-.688 2.707a27.935 27.935 0 0 0-.418 2.762c-.09.898-.134 1.797-.137 2.7a28 28 0 0 0 1.582 7.495c3.41 1.134 8.176 1.046 12.383.38a16 16 0 0 0 6.883 6.561c-3.537 2.158-7.95 3.879-12.09 4.032a28 28 0 0 0 13.527 7.062c2.21-2.45 4.102-6.01 5.414-9.43a16 16 0 0 0 .235.02 16 16 0 0 0 8.886-2.71c.097 3.915-.549 8.306-2.254 11.874a28 28 0 0 0 12.77-6.992c-.937-3.3-3.221-6.972-5.672-9.992a16 16 0 0 0 2.268-8 16 16 0 0 0-.035-1.058c3.942 2.143 7.935 5.443 10.05 9.34a28 28 0 0 0 1.93-9.211c-.01-.357-.01-.714-.035-1.07a27.931 27.931 0 0 0-.336-2.774 27.957 27.957 0 0 0-.555-2.457c-4.155-1.48-9.1-1.222-13.074-.574a16 16 0 0 0-6.87-6.527c4.08-2.502 9.339-4.433 14.003-4.028-.324-.39-.66-.769-1.004-1.14a27.899 27.899 0 0 0-2.039-1.906 27.93 27.93 0 0 0-2.226-1.688 28.014 28.014 0 0 0-2.383-1.465 27.971 27.971 0 0 0-5.145-2.172 28.405 28.405 0 0 0-1.003-.257c-2.904 2.295-5.4 6.776-7.016 11a16 16 0 0 0-.26-.2 16 16 0 0 0-8.847 2.68c-.12-4.781.845-10.292 3.527-14.122z" opacity=".2"/>
    <path d="M26.68 4.401a28 28 0 0 0-2.137.484c-.898.25-1.787.542-2.656.88a27.88 27.88 0 0 0-4.973 2.53 27.99 27.99 0 0 0-4.37 3.47c-.087.09-.174.181-.259.273.534 3.66 3.167 8.06 6.016 11.574a16 16 0 0 0-2.301 8.4 16 16 0 0 0 .035.992C11.846 30.717 7.58 27.14 5.609 22.918c-.103.27-.206.54-.3.812-.276.89-.503 1.794-.688 2.707a27.935 27.935 0 0 0-.152 10.305c.146.823.33 1.638.55 2.445 3.433 1.368 8.547 1.294 13.012.586a16 16 0 0 0 6.883 6.562c-4.074 2.486-9.31 4.396-13.953 3.993.324.39.66.769 1.004 1.14a28.013 28.013 0 0 0 11.792 7.234c.337.092.676.174 1.016.254C27.664 56.67 30.149 52.21 31.765 48a16 16 0 0 0 .234.02 16 16 0 0 0 8.887-2.71c.118 4.777-.844 10.282-3.523 14.109a27.978 27.978 0 0 0 2.136-.48 28.043 28.043 0 0 0 12-6.883c.086-.09.173-.182.258-.274-.534-3.664-3.175-8.067-6.027-11.582a16 16 0 0 0 2.268-8.2 16 16 0 0 0-.035-1.058c4.202 2.285 8.49 5.875 10.468 10.113.103-.27.202-.54.297-.813a27.96 27.96 0 0 0 1.11-5.472c.092-.928.136-1.86.136-2.793 0-.66-.02-1.318-.066-1.977a27.931 27.931 0 0 0-.336-2.773 27.957 27.957 0 0 0-.555-2.457c-4.155-1.48-9.101-1.222-13.074-.574a16 16 0 0 0-6.871-6.527c4.08-2.502 9.34-4.433 14.004-4.028-.324-.39-.66-.769-1.004-1.14a27.898 27.898 0 0 0-2.04-1.906 27.93 27.93 0 0 0-2.226-1.688 28.014 28.014 0 0 0-2.382-1.465 27.971 27.971 0 0 0-5.145-2.172 28.405 28.405 0 0 0-1.004-.257c-2.903 2.295-5.399 6.776-7.015 11a16 16 0 0 0-.26 0 16 16 0 0 0-8.848 2.679c-.12-4.78.846-10.29 3.528-14.12z" fill="#F9F5D7"/>
    <path d="M26.888 24a.865.865 0 0 0-.888.873v14.252a.868.868 0 0 0 1.301.756l6.132-3.563 6.133-3.563a.876.876 0 0 0 0-1.512l-6.133-3.563-6.132-3.563a.862.862 0 0 0-.413-.118z" fill="#C77089"/>
    <path d="M32 3.973v.029A28 28 0 0 0 4 32a28 28 0 0 0 .018.492A28 28 0 0 1 32 5v-.027a28 28 0 0 1 27.975 27.482 28 28 0 0 0 .025-.482 28 28 0 0 0-28-28z" opacity=".2" fill="#F9F5D7"/>
</svg>
