<svg xmlns="http://www.w3.org/2000/svg" width="64" height="64" version="1">
    <path opacity=".2" d="M12 54h40v6H12z"/>
    <path d="M26 35h12l6 24H20z" fill="#504945"/>
    <path d="M42.446 18.5l-2.588 3.918-2.587 3.918-2.1-3.637-2.1-3.637 4.687-.282z" fill="#A79984"/>
    <path d="M46.94 39.412c-9.227 5.327-21.025 2.166-26.352-7.06C15.26 23.124 18.422 11.326 27.648 6z" opacity=".2"/>
    <path d="M46.94 38.412c-9.227 5.327-21.025 2.166-26.352-7.06C15.26 22.124 18.422 10.326 27.648 5z" fill="#665C54"/>
    <circle cx="37.954" cy="-27.739" r="3" transform="rotate(60)" opacity=".2"/>
    <circle cx="37.088" cy="-28.239" r="3" transform="rotate(60)" fill="#F9F5D7"/>
    <path fill="#504945" d="M12 53h40v6H12z"/>
    <path d="M27.648 5c-6.415 3.704-9.889 10.537-9.625 17.459.091-6.573 3.52-12.934 9.625-16.459L46.5 38.65c.146-.08.294-.154.44-.238L27.647 5z" opacity=".1" fill="#F9F5D7"/>
</svg>
