<svg xmlns="http://www.w3.org/2000/svg" width="64" height="64">
    <path d="M32 5A28 28 0 0 0 4 33a28 28 0 0 0 28 28 28 28 0 0 0 28-28A28 28 0 0 0 32 5z" opacity=".2"/>
    <path d="M32 4A28 28 0 0 0 4 32a28 28 0 0 0 28 28 28 28 0 0 0 28-28A28 28 0 0 0 32 4z" fill="#7CB668"/>
    <path d="M26.752 46.261c2.648-1.23 5.008-2.236 5.244-2.233.236.002 2.577 1.01 5.202 2.238C39.823 47.495 42.543 49 42.753 49c.29 0 .346-.236.232-.988-.494-3.671-1.51-6.528-1.985-10.334l2.897-2.778c4.1-3.933 5.241-5.651 5.092-5.799-.074-.073-2.574-.6-5.556-1.17-4.312-.826-5.512-1.148-5.864-1.572-.243-.293-1.37-2.221-2.506-4.285-2.417-4.392-3.028-5.32-3.309-5.024-.113.12-1.361 2.292-2.774 4.827-1.412 2.534-2.655 4.695-2.762 4.801-.108.106-2.406.612-5.108 1.124C14.803 28.996 15 28.948 15 29.28c0 .155 1.74 2.115 3.867 4.356 3.614 3.808 4.257 4.127 4.124 4.913-.26 1.535-2.005 9.256-2.005 9.858 0 .326.123.593.274.593.152 0 2.843-1.508 5.492-2.739z" opacity=".2"/>
    <path d="M26.752 45.261c2.648-1.23 5.008-2.236 5.244-2.233.236.002 2.577 1.01 5.202 2.238C39.823 46.495 42.543 48 42.753 48c.29 0 .346-.236.232-.988-.494-3.671-1.51-6.528-1.985-10.334l2.897-2.778c4.1-3.933 5.241-5.651 5.092-5.799-.074-.073-2.574-.6-5.556-1.17-4.312-.826-5.512-1.148-5.864-1.572-.243-.293-1.37-2.221-2.506-4.285-2.417-4.392-3.028-5.32-3.309-5.024-.113.12-1.361 2.292-2.774 4.827-1.412 2.534-2.655 4.695-2.762 4.801-.108.106-2.406.612-5.108 1.124C14.803 27.996 15 27.948 15 28.28c0 .155 1.74 2.115 3.867 4.356 3.614 3.808 4.257 4.127 4.124 4.913-.26 1.535-2.005 9.256-2.005 9.858 0 .326.123.593.274.593.152 0 2.843-1.508 5.492-2.739z" fill="#F9F5D7"/>
    <path d="M32 4A28 28 0 0 0 4 32a28 28 0 0 0 .021.406A28 28 0 0 1 32 5a28 28 0 0 1 27.979 27.578A28 28 0 0 0 60 32 28 28 0 0 0 32 4z" opacity=".2" fill="#F9F5D7"/>
</svg>
