<svg xmlns="http://www.w3.org/2000/svg" width="64" height="64" version="1">
    <path d="M4.05 32c-.011.335-.05.663-.05 1 0 15.512 12.488 28 28 28 15.51 0 27.998-12.488 27.998-28 0-.337-.039-.664-.05-1-.528 15.042-12.776 27-27.95 27S4.578 47.042 4.05 32z" opacity=".2"/>
    <path d="M32 4.002C16.487 4.002 4 16.489 4 32c0 15.511 12.488 28 28 28 15.51 0 27.998-12.489 27.998-28C59.998 16.489 47.511 4 32 4z" fill="#504945"/>
    <path d="M32 4.002C16.488 4.002 4 16.488 4 32c0 .114.011.224.018.336C4.369 17.135 16.71 5 32 5s27.63 12.135 27.982 27.336c.007-.112.018-.223.018-.336A27.938 27.938 0 0 0 32 4.002z" opacity=".1" fill="#F9F5D7"/>
    <path d="M17.362 33.335a14.666 14.557 0 0 1-.029-.776A14.666 14.557 0 0 1 31.999 18 14.666 14.557 0 0 1 46.665 32.56a14.666 14.557 0 0 1-.028.548 14.666 14.557 0 0 0-14.638-13.782 14.666 14.557 0 0 0-14.637 14.01z" opacity=".2"/>
    <circle cx="31.999" cy="32.001" r="17.999" opacity=".4"/>
    <circle cx="31.999" cy="-33.001" r="14" transform="scale(1 -1)" opacity=".2"/>
    <circle cx="31.999" cy="-32.001" r="14" transform="scale(1 -1)" fill="#A04A73"/>
    <circle cx="31.999" cy="33.001" r="8" opacity=".2"/>
    <circle cx="31.999" cy="32.001" r="8" fill="#C77089"/>
</svg>
