<svg xmlns="http://www.w3.org/2000/svg" width="64" height="64" version="1">
    <path d="M10 37v20.2c0 1.551 1.226 2.8 2.75 2.8h38.5c1.523 0 2.75-1.249 2.75-2.8V37z" opacity=".2"/>
    <rect width="24" height="56" x="-45" y="-60" rx="2.824" ry="2.8" transform="matrix(0 -1 -1 0 0 0)" opacity=".2"/>
    <path d="M12.75 4C11.226 4 10 5.274 10 6.857V24h44V6.857C54 5.274 52.773 4 51.25 4h-38.5z" fill="#F9F5D7"/>
    <rect width="24" height="56" x="-44" y="-60" rx="2.824" ry="2.8" transform="matrix(0 -1 -1 0 0 0)" fill="#504945"/>
    <path opacity=".2" d="M7 33h50v6H7z"/>
    <rect width="5" height="5" x="7" y="24" rx="1.875" ry="1.875" opacity=".2"/>
    <rect width="5" height="5" x="7" y="23" rx="1.875" ry="1.875" fill="#B7BB25"/>
    <path d="M10 36v20.2c0 1.551 1.226 2.8 2.75 2.8h38.5c1.523 0 2.75-1.249 2.75-2.8V36z" fill="#F9F5D7"/>
    <path opacity=".5" d="M15 52h29v3H15zM15 46h24v3H15zM15 40h34v3H15z"/>
    <path d="M12.75 4C11.226 4 10 5.275 10 6.857v1C10 6.275 11.226 5 12.75 5h38.5C52.773 5 54 6.275 54 7.857v-1C54 5.275 52.773 4 51.25 4h-38.5z" fill="#F9F5D7" opacity=".2"/>
    <path d="M6.8 20C5.25 20 4 21.26 4 22.824v1A2.807 2.807 0 0 1 6.8 21h50.4c1.55 0 2.8 1.26 2.8 2.824v-1A2.807 2.807 0 0 0 57.2 20H6.8z" fill="#F9F5D7" opacity=".1"/>
    <path d="M8.875 23A1.87 1.87 0 0 0 7 24.875v1A1.87 1.87 0 0 1 8.875 24h1.25A1.87 1.87 0 0 1 12 25.875v-1A1.87 1.87 0 0 0 10.125 23h-1.25z" fill="#F9F5D7" opacity=".2"/>
    <path d="M61.958 44.848A16 16 0 0 1 46 60a16 16 0 0 1-15.958-14.848A16 16 0 0 0 30 46a16 16 0 0 0 16 16 16 16 0 0 0 16-16 16 16 0 0 0-.043-1.152z" opacity=".2" fill-rule="evenodd"/>
    <circle cx="46" cy="45" r="16" fill="#CB241D"/>
    <g fill="#F9F5D7">
        <path d="M51 47l7-5.5-7-5.5c.006 0 0 1.111 0 2h-5v7h5zM41 54l-7-5.5 7-5.5c-.006 0 0 1.111 0 2h5v7h-5z"/>
    </g>
</svg>
