<svg xmlns="http://www.w3.org/2000/svg" width="64" height="64" version="1">
    <path d="M4.05 32c-.011.334-.05.662-.05 1 0 15.512 12.488 28 28 28 15.511 0 28-12.488 28-28 0-.338-.04-.666-.05-1C59.42 47.042 47.172 59 32 59 16.825 59 4.578 47.042 4.05 32z" opacity=".2"/>
    <rect width="56" height="56" x="4" y="4" rx="28" ry="28" fill="#066678"/>
    <path d="M31.963 4a27.91 27.91 0 0 0-16.961 5.725C15.068 25.18 27.729 38 43.199 38c6.322 0 12.123-2.5 16.799-6.008 0-1.936-.195-3.825-.566-5.648l-.002-.006a27.851 27.851 0 0 0-1.125-3.984l-.002-.004A27.976 27.976 0 0 0 42.918 6.196h-.002a27.775 27.775 0 0 0-1.27-.5h-.001A28.091 28.091 0 0 0 32 4.003c-.012 0-.025-.004-.037-.004z" opacity=".2" fill="#F9F5D7"/>
    <path d="M29.14 13.002c-.79 0-1.13.687-1.14 1.539V39h-6L32 53l10-14h-6V14.54c0-.853-.354-1.54-1.144-1.54H29.14z" opacity=".2"/>
    <path d="M29.14 12c-.79 0-1.13.688-1.14 1.54V38h-6l10 14 10-14h-6V13.54c0-.853-.354-1.54-1.144-1.54H29.14z" fill="#F9F5D7"/>
    <path d="M32 4C16.488 4 4 16.488 4 32c0 .114.011.224.018.336C4.369 17.134 16.71 5 32 5c15.29 0 27.63 12.134 27.982 27.336.007-.112.018-.222.018-.336C60 16.488 47.512 4 32 4z" opacity=".2" fill="#F9F5D7"/>
</svg>
