<svg xmlns="http://www.w3.org/2000/svg" width="64" height="64" version="1">
    <path d="M54.01 7.24l-29.95 6.905C19.84 14.677 20 19 20 19v18.43a11 11 0 0 0-3-.43c-6.075 0-11 4.925-11 11s4.925 11 11 11a11 11 0 0 0 10.95-10H28V21.316l22-5.232V31.43a11 11 0 0 0-3-.43c-6.075 0-11 4.925-11 11s4.925 11 11 11a11 11 0 0 0 10.95-10H58V11s.052-4.61-3.99-3.76z" opacity=".2"/>
    <path d="M54.01 6.24l-29.95 6.905C19.84 13.677 20 18 20 18v18.43a11 11 0 0 0-3-.43c-6.075 0-11 4.925-11 11s4.925 11 11 11a11 11 0 0 0 10.95-10H28V20.316l22-5.232V30.43a11 11 0 0 0-3-.43c-6.075 0-11 4.925-11 11s4.925 11 11 11a11 11 0 0 0 10.95-10H58V10s.052-4.61-3.99-3.76z" fill="#504945"/>
    <path d="M54.72 6.143a4.795 4.795 0 0 0-.708.097L24.06 13.145C19.839 13.677 20 18 20 18v1s-.161-4.323 4.06-4.855L54.013 7.24C58.053 6.39 58 11 58 11v-1s.045-4.052-3.28-3.857zM47 30c-6.075 0-11 4.925-11 11 0 .169.018.333.025.5C36.29 35.659 41.094 31 47 31a11 11 0 0 1 3 .43v-1a11 11 0 0 0-3-.43zm-30 6c-6.075 0-11 4.925-11 11 0 .169.018.333.025.5C6.29 41.659 11.094 37 17 37a11 11 0 0 1 3 .43v-1a11 11 0 0 0-3-.43z" opacity=".1" fill="#F9F5D7"/>
</svg>
