<svg xmlns="http://www.w3.org/2000/svg" width="64" height="64" version="1">
    <rect width="56" height="56" x="4" y="5" rx="16.8" ry="16.8" opacity=".2"/>
    <rect width="56" height="56" x="4" y="4" rx="16.8" ry="16.8" fill="#8F3F71"/>
    <circle cx="-32" cy="33" r="19" transform="scale(-1 1)" opacity=".2"/>
    <circle cx="-32" cy="32" r="19" transform="scale(-1 1)" fill="#FAEEBB"/>
    <path d="M33.795 13.102a19 19 0 0 1 6.876 1.995c-.096.304.016.647.365.95.237.205.43.524.43.71 0 .57-.514 1.445-.926 1.572-.546.169-.362.752.34 1.074.325.15.725.579.889.954.164.376.405.747.537.823.13.078.237.372.237.654 0 .394-.18.585-.772.822-.424.17-.931.293-1.128.274-1.131-.106-1.21.553-.221 1.841.525.684.778.856 1.136.77.333-.08.516.014.668.345.16.35.422.47 1.126.518.692.048 1.002.189 1.261.568.19.276.464.5.61.5.145 0 .487.187.76.413.555.46.772.507.966.206.258-.4.813-.198 1.639.594.73.699.819.886.709 1.493-.196 1.08-.782 2.039-1.451 2.373-.584.292-.595.323-.241.697.203.216.552.447.775.514.643.196.281.441-.866.587-1.175.15-1.54.575-.991 1.156.306.324.289.384-.203.692-.959.602-1.722.234-.821-.397.578-.406.174-.57-.676-.276-.677.234-.811.22-1.211-.127-.822-.711-1.715.341-.963 1.135.477.507.333 1.117-.286 1.201-.274.037-.842.292-1.264.566-.422.274-.882.5-1.02.5-.139 0-.53.278-.87.618-.69.688-1.073.776-1.268.29-.233-.583-.14-.884.49-1.57.501-.548 1.315-2.002 1.315-2.35 0-.215-.827-.033-1.29.284-.29.198-.76.454-1.044.57-.302.123-.615.507-.759.927-.223.66-.312.716-1.102.716h-.859l-.13 1.544c-.156 1.857-.305 2.233-.942 2.386-.47.113-.97.84-.97 1.408 0 .151.337.522.75.823.51.373.73.69.697 1.001-.043.389.045.45.595.409.355-.027.97.098 1.365.276.469.211.976.279 1.452.193.547-.098.733-.06.733.154 0 .158.191.452.425.655.578.501.34.766-.548.607-.551-.1-.766-.056-.86.182-.203.504.31 1.226.786 1.108.302-.076.446.027.54.383a.88.88 0 0 0 .164.325 19 19 0 0 1-3.007.889c.095-.182.203-.347.309-.421.49-.346.161-1.245-.512-1.406-.687-.165-.579-.611.168-.697.654-.074 1.35-.737 1.132-1.076-.147-.227-.773-.194-2.04.106-.571.135-.962-.136-2.287-1.586-.767-.84-1.357-1.19-2.003-1.19-.247 0-1.128-.226-1.958-.504-1.568-.525-2.18-.506-2.123.067.12 1.19-.647 1.151-1.896-.097-.52-.52-.996-.896-1.058-.837-.239.229.19 1.343.692 1.794.636.572.667.933.108 1.22-.306.157-.436.475-.485 1.19l-.064.977h-.795c-.278 0-.509.038-.695.11a19 19 0 0 1-9.206-15.681c.291-.622.27-.997 0-1.42a19 19 0 0 1 .086-1.065c.173-.008.35-.016.553-.007.957.04 1.777-.337 1.777-.818 0-.102.34-.52.756-.93.47-.464.712-.874.642-1.087-.065-.194.074-.506.319-.718.238-.207.434-.54.434-.74 0-.318.202-.357 1.666-.322l1.667.04-.029 1.643c-.05 2.877-.478 3.623-1.8 3.142-.604-.222-2.091-.054-2.514.28-.153.123-.374.563-.49.981-.119.417-.554 1.14-.97 1.605-.842.942-.907 1.31-.425 2.416.421.965.875.854.785-.193l-.066-.78.712.134c.394.075.888.366 1.11.653.315.41.462.47.699.283a.89.89 0 0 0 .3-.613c0-.205.203-.433.45-.508.247-.075.587-.449.753-.832.267-.611.26-.799-.05-1.541-.315-.754-.318-.878-.028-1.157.266-.254.404-.263.753-.053.352.21.518.195.936-.085.278-.187.766-.342 1.081-.342.641 0 .835-.312.835-1.344 0-.952.568-1.298 1.921-1.174.939.087 1.146.025 1.903-.558.468-.36 1.207-1.227 1.644-1.928a52.98 52.98 0 0 1 1.045-1.627c.198-.28.15-.55-.237-1.312l-.488-.96 1.031.14c1.836.248 2.207.485 1.418.91-.308.163-.321.248-.084.523.156.178.23.462.162.63-.068.168.018.563.189.877.172.316.315.757.32.984.019.708 1.231 1.271 2.582 1.196 2.046-.113 2.212-.08 2.94.594.907.844 1.024 1.236.602 2.019-.41.76-1.138 1.063-2.397 1-1.127-.056-1.254.044-.997.789.22.632.955.876 1.454.48.383-.304 1.707-.069 2.112.378.17.186.423.676.56 1.086.238.71.308.753 1.372.855 1.062.104 1.164.07 1.928-.634.852-.785.997-1.385.586-2.419-.182-.458-.317-.533-.803-.444-.964.176-1.344-.158-1.344-1.187 0-.499.097-.965.216-1.036.118-.07.215-.334.215-.588 0-.253.121-.58.269-.723.215-.21.184-.322-.16-.565-.236-.166-.623-.278-.86-.25-.237.029-.892-.074-1.455-.227-.814-.22-1.054-.385-1.164-.814-.209-.813-.719-1.466-1.147-1.466-.675 0-.69-1.588-.033-3.898.097-.342.364-.558.835-.675.382-.095.797-.355.923-.58.124-.223.353-.406.508-.406.155 0 .458-.185.672-.412.215-.228.66-.412 1-.412.803 0 .816-.552.02-.844-.84-.308-2.15.096-2.466.76-.429.903-.905.526-1.058-.836-.189-1.685-.77-2.169-2.603-2.169h-1.317l.577-.577c.18-.18.329-.4.433-.616zm-6.831.597c.037.034.073.061.11.099.44.45.647.514 1.328.41 1.19-.181 1.037.297-.28.876-.711.312-1.17.669-1.325 1.03-.75 1.74-1.267 2.676-1.527 2.771-.524.193-.837-.194-.954-1.183-.134-1.135-.517-1.376-1.207-.755-.268.24-.642.437-.831.437-.59 0-1.026.237-1.026.557 0 .169-.2.575-.444.903-.36.484-.604.6-1.277.6-.825 0-1.332.155-2.365.726-.016.008-.033.011-.049.02a19 19 0 0 1 9.847-6.49zm24.032 18.22A19 19 0 0 1 51 32a19 19 0 0 1-.371 3.65c-.689.28-.879.17-.95-.471-.037-.332-.21-.707-.386-.837-.272-.2-.223-.303.334-.683.36-.246.715-.675.788-.954.071-.27.31-.564.581-.786zm-5.98 6.28c.178-.018.392.077.629.305.502.48.427 1.447-.143 1.829-.652.438-.904.31-.987-.497-.101-.996.111-1.596.5-1.637zm-3.224 2.873c.193.007.407.145.62.438.228.31.29.71.203 1.316-.107.747-.06.907.33 1.107.502.257.61 1.02.198 1.414-.408.391-.798.289-.938-.247-.2-.764-1.318-.853-2.082-.167-.325.292-.591.44-.591.328 0-.112.339-.52.753-.903.634-.59.751-.84.751-1.598 0-1.07.328-1.701.756-1.688zm5.295 2.453a19 19 0 0 1-.44.555c.13-.2.277-.393.44-.555zm-6.403 2.916c.096.033.137.154.137.366 0 .215.136.44.304.5.222.082.273.34.188.954-.016.115-.021.208-.027.303a19 19 0 0 1-.79.406c.013-.329-.047-.715-.219-1.2-.291-.822-.302-1.029-.064-1.173.222-.135.374-.189.47-.156z" opacity=".2"/>
    <path d="M20.8 4C11.495 4 4 11.494 4 20.8v1C4 12.495 11.494 5 20.8 5h22.4C52.505 5 60 12.494 60 21.8v-1C60 11.495 52.506 4 43.2 4H20.8z" fill="#F9F5D7" opacity=".1"/>
    <path d="M32 13a19 19 0 0 0-19 19 19 19 0 0 0 .021.408A19 19 0 0 1 32 14a19 19 0 0 1 18.979 18.592A19 19 0 0 0 51 32a19 19 0 0 0-19-19z" fill="#F9F5D7" opacity=".2"/>
</svg>
