<svg xmlns="http://www.w3.org/2000/svg" width="64" height="64">
    <path fill="none" d="M-1-449h582v402H-1z"/>
    <path d="M16.756 17.045C8.606 17.045 2 23.915 2 32.025 2 40.132 8.606 47 16.756 47h23.301a2.003 2.003 0 1 0 0-4.006h-23.3c-5.884 0-10.751-5.045-10.751-10.97 0-5.925 4.867-10.973 10.75-10.973h30.405c5.883 0 10.833 5.064 10.833 10.973 0 2.531-1.256 5.376-3.184 7.48-1.93 2.105-4.435 3.385-6.678 3.322a2.003 2.003 0 1 0-.114 4.002c3.76.106 7.214-1.855 9.745-4.617C60.294 39.451 62 35.807 62 32.024c0-8.124-6.688-14.98-14.839-14.98z" opacity=".2"/>
    <rect width="52.078" height="22.033" x="6.01" y="19.96" rx="8.223" ry="8.262" fill="#F9F5D7"/>
    <path stroke-miterlimit="10" class="st0" d="M40.057 43.994H16.756c-7.017 0-12.753-5.957-12.753-12.974v0c0-7.017 5.736-12.974 12.753-12.974H47.16c7.017 0 12.835 5.957 12.835 12.974v0c0 6.314-5.918 12.974-11.921 12.804" fill="none" stroke="#FA4934" stroke-width="4.006" stroke-linecap="round" stroke-linejoin="round"/>
    <path stroke-miterlimit="10" class="st0" d="M13.523 25.578c2.978-.988 5.903.614 6.904 3.593 1.002 2.978-.614 6.183-3.592 7.185-2.979 1.002-6.184-.614-7.186-3.593-.32-.975-.374-2.243-.187-3.178" fill="none" stroke="#FA4934" stroke-width="2.671" stroke-linecap="round" stroke-linejoin="round"/>
    <path d="M29.055 26.969v8.012" fill="none" stroke="#48B9C7" stroke-width="2.003" stroke-linecap="round"/>
    <path d="M57.965 31.498c-.143 2.408-1.346 5.03-3.156 7.006-1.93 2.105-4.435 3.386-6.678 3.322a2.003 2.003 0 0 0-.938.168H16.756c-5.717 0-10.461-4.766-10.725-10.473-.009.168-.025.335-.025.504 0 5.926 4.867 10.97 10.75 10.97h30.437a2.003 2.003 0 0 1 .938-.169c2.243.064 4.749-1.217 6.678-3.322 1.929-2.105 3.185-4.947 3.185-7.479 0-.177-.02-.351-.03-.527z" opacity=".2"/>
    <path d="M16.756 16.041C8.606 16.041 2 22.913 2 31.021c0 .169.016.334.025.5.267-7.887 6.75-14.478 14.73-14.478h30.407c7.972 0 14.527 6.562 14.81 14.451.01-.157.028-.314.028-.473 0-8.123-6.687-14.98-14.838-14.98H16.756z" opacity=".2" fill="#F9F5D7"/>
    <path d="M33.06 30.975H25.05M31.887 33.807l-5.665-5.665M26.222 33.807l5.665-5.665M41.087 26.969v8.012M45.093 30.975H37.08M43.92 33.807l-5.666-5.665M38.254 33.807l5.666-5.665M53.105 26.969v8.012M57.11 30.975H49.1M55.938 33.807l-5.666-5.665M50.272 33.807l5.666-5.665" fill="none" stroke="#48B9C7" stroke-width="2.003" stroke-linecap="round"/>
</svg>
