<svg xmlns="http://www.w3.org/2000/svg" width="64" height="64" version="1">
    <path d="M17.388 60.98c-2.144-.023-3.31-.061-3.388-.158l.09-54.985c.277-.283 1.735-.42 7.315-.686 3.678-.176 11.302-.205 13.65-.052 4.017.26 6.007.55 8.606 1.251 2.588.698 4.646 1.732 4.925 2.474.097.26.585 2.911.93 5.063.248 1.54.441 3.162.441 3.702 0 .756-.31.997-1.638 1.279-1.632.345-2.748.154-9.558.132-7.312-.023-7.654.24-8.686.757-1.36.68-2.148 2.092-2.245 3.579-.031 2.507 1.805 4.43 3.504 4.793 2.28.47 4.954.7 12.452 1.143 1.008.06 2.008.146 2.054.193.15.15.114.63.174 2.04.07 1.625-.065 2.04-.572 3.129-1.083 2.329-3.874 3.52-8.479 4.108-1.484.19-3.114.3-4.485.302-.86.002-1.578.057-1.977.153-1.526.364-2.527 1.693-2.67 3.547-.07.923.087 2.201.515 3.094.723 1.505 1.919 2.33 3.865 2.669 2.73.474 5.085.46 11.884.534l5.884.062v.98c0 .83.07 5.364-.048 7.267l-.061.987c-.836.463-2.094.775-2.881 1.048-.729.336-3.509.932-5.498 1.179-3.19.396-4.254.414-12.851.432-4.643.01-9.706.002-11.251-.015z" opacity=".2"/>
    <path d="M17.388 59.98c-2.144-.023-3.31-.061-3.388-.158l.09-54.985c.277-.283 1.735-.42 7.315-.686 3.678-.176 11.302-.205 13.65-.052 4.017.26 6.007.55 8.606 1.251 2.588.698 4.646 1.732 4.925 2.474.097.26.585 2.911.93 5.063.248 1.54.441 3.162.441 3.702 0 .756-.31.997-1.638 1.279-1.632.345-2.748.154-9.558.132-7.312-.023-7.654.24-8.686.757-1.36.68-2.148 2.092-2.245 3.579-.031 2.507 1.805 4.43 3.504 4.793 2.28.47 4.954.7 12.452 1.143 1.008.06 2.008.146 2.054.193.15.15.114.63.174 2.04.07 1.625-.065 2.04-.572 3.129-1.083 2.329-3.874 3.52-8.479 4.108-1.484.19-3.114.3-4.485.302-.86.002-1.578.057-1.977.153-1.526.364-2.527 1.694-2.67 3.547-.07.923.087 2.201.515 3.094.723 1.505 1.919 2.33 3.865 2.669 2.73.474 5.085.46 11.884.534l5.884.062v.98c0 .83.07 5.364-.048 7.267l-.061.987c-.836.463-2.094.775-2.881 1.048-.729.336-3.509.932-5.498 1.179-3.19.396-4.254.414-12.851.432-4.643.01-9.706.002-11.251-.015z" fill="#B57514"/>
    <path d="M28.729 4.002c-2.66.01-5.486.06-7.325.148-5.58.267-7.037.405-7.314.688L14 59.822h.002l.088-53.984c.277-.283 1.734-.421 7.314-.688 3.678-.175 11.304-.203 13.65-.05 4.018.26 6.009.548 8.608 1.25 2.588.698 4.645 1.732 4.924 2.474.097.26.584 2.91.93 5.063.195 1.214.329 2.333.388 3.078.03-.113.053-.229.053-.377 0-.54-.194-2.161-.441-3.701-.346-2.152-.833-4.804-.93-5.063-.279-.742-2.336-1.776-4.924-2.474-2.6-.702-4.59-.99-8.607-1.25-1.174-.077-3.667-.108-6.326-.098zm-.85 18.943c-.02.13-.04.26-.049.39-.03 2.508 1.804 4.432 3.504 4.794 2.28.47 4.953.7 12.451 1.142 1.008.06 2.009.147 2.055.194.15.15.114.628.174 2.039.002.046 0 .071.002.115.016-.307.017-.658-.002-1.115-.06-1.41-.025-1.889-.174-2.04-.046-.046-1.047-.133-2.055-.193-7.498-.442-10.17-.672-12.451-1.142-1.557-.332-3.21-1.982-3.455-4.184zm-.037 19.735c-.002.022-.008.042-.01.064-.071.923.085 2.201.514 3.094.722 1.505 1.919 2.33 3.865 2.668 2.73.474 5.085.462 11.885.535l5.883.063v-1l-5.883-.063c-6.8-.073-9.156-.061-11.885-.535-1.946-.338-3.143-1.163-3.865-2.668-.297-.618-.453-1.417-.504-2.158zm22.137 6.424v.978c0 .358.012 1.56.017 2.79.002-1.676-.017-3.29-.017-3.768z" fill="#F9F5D7" opacity=".1"/>
    <path d="M14.257 4.771c-.045.023-.143.04-.168.066v.09C20.186 11.959 23.99 22.472 24 33.1c-.01 10.326-3.619 19.78-9.419 26.79.517.044 1.34.074 2.807.09 1.546.018 6.608.024 11.25.015 8.598-.018 9.664-.034 12.854-.43 1.99-.247 4.77-.842 5.498-1.178.787-.274 2.044-.587 2.88-1.05l.062-.987c.119-1.904.046-6.436.046-7.267v-.978l-5.882-.063c-6.8-.073-9.156-.062-11.885-.536-1.947-.338-3.142-1.164-3.865-2.669-.428-.893-.585-2.17-.514-3.094.143-1.853 1.144-3.181 2.67-3.546.399-.096 1.117-.152 1.976-.153 1.371-.003 3-.111 4.484-.301 4.604-.589 7.396-1.78 8.479-4.11.507-1.09.643-1.503.573-3.128-.06-1.41-.023-1.89-.173-2.04-.046-.046-1.047-.134-2.055-.194-7.498-.442-10.171-.672-12.451-1.143-1.7-.362-3.536-2.284-3.505-4.791.098-1.487.884-2.899 2.244-3.58 1.033-.516 1.374-.78 8.687-.757 6.809.022 7.927.215 9.56-.131 1.328-.282 1.635-.524 1.635-1.28 0-.181-.048-.61-.086-.992C40.583 9.485 27.917 5.634 14.257 4.77z" fill="#B57514"/>
    <path d="M45.898 28.594C33.03 30.13 24.016 36.26 24 43.1c.014 7.672 11.112 13.449 25.883 14.042l.05-.793c.118-1.904.045-6.436.045-7.267v-.979l-5.882-.062c-6.8-.073-9.156-.062-11.885-.536-1.947-.338-3.142-1.164-3.865-2.67-.428-.892-.585-2.17-.513-3.093.142-1.853 1.143-3.182 2.669-3.546.399-.096 1.117-.152 1.976-.153 1.371-.003 3-.111 4.484-.301 4.604-.589 7.396-1.78 8.479-4.11.507-1.09.643-1.503.573-3.128-.05-1.163-.04-1.677-.116-1.911z" fill="#FECE4F"/>
    <path d="M24.03 43.74c-.009.12-.03.24-.03.362.014 7.672 11.111 13.446 25.883 14.039l.05-.793c.056-.89.063-2.169.061-3.45-.006.919-.02 1.801-.06 2.45l-.051.793c-14.36-.577-25.244-6.048-25.854-13.4z" opacity=".2"/>
    <path d="M14.258 4.771c-.045.023-.144.04-.168.065v.092c.249.287.487.588.728.886 13.446.933 25.892 4.754 35.051 10.782.014.141.02.23.033.369.03-.113.055-.227.055-.375 0-.182-.05-.613-.088-.994C40.583 9.484 27.92 5.635 14.258 4.77zm13.62 18.174c-.018.13-.04.26-.048.39-.03 2.508 1.804 4.432 3.504 4.794 2.28.47 4.953.7 12.451 1.142 1.008.06 2.01.147 2.057.194.15.15.112.63.172 2.04.002.046 0 .07.002.114.016-.307.017-.656-.002-1.113-.06-1.41-.023-1.89-.172-2.041-.046-.047-1.049-.134-2.057-.194-7.498-.442-10.17-.672-12.451-1.142-1.558-.332-3.21-1.982-3.455-4.184zm-3.89 10.668c-.127 10.125-3.703 19.383-9.406 26.278.142.012.575.015.77.025C20.696 53.014 23.99 43.957 24 34.1c0-.163-.01-.324-.012-.487zm3.854 9.067c-.002.022-.008.042-.01.064-.071.923.085 2.201.514 3.094.722 1.505 1.919 2.33 3.865 2.668 2.73.474 5.085.462 11.885.535l5.883.064v-1l-5.883-.064c-6.8-.073-9.156-.061-11.885-.535-1.946-.338-3.143-1.163-3.865-2.668-.297-.617-.453-1.417-.504-2.158zm22.137 6.425v.979c0 .364.013 1.579.019 2.832.001-1.69-.02-3.328-.02-3.81z" opacity=".2" fill="#F9F5D7"/>
    <path d="M45.898 28.594C33.031 30.13 24.016 36.26 24 43.1c0 .16.011.32.021.48.459-6.628 9.337-12.488 21.877-13.986.077.234.066.749.116 1.912.002.045 0 .07.002.113.016-.307.017-.656-.002-1.113-.05-1.163-.039-1.678-.116-1.912zM27.842 42.68c-.002.022-.008.042-.01.064-.071.923.085 2.2.514 3.092.722 1.505 1.919 2.332 3.865 2.67 2.73.474 5.085.462 11.885.535l5.883.063v-1l-5.883-.063c-6.8-.073-9.156-.061-11.885-.535-1.946-.338-3.143-1.165-3.865-2.67-.297-.617-.453-1.415-.504-2.156zm22.137 6.424v.98c0 .364.013 1.579.019 2.832.001-1.691-.02-3.33-.02-3.812z" opacity=".2" fill="#F9F5D7"/>
</svg>
