<svg xmlns="http://www.w3.org/2000/svg" width="64" height="64" version="1">
    <rect width="3" height="11" x="57" y="27" rx=".75" ry=".688" opacity=".2"/>
    <rect width="3" height="11" x="45" y="27" rx=".75" ry=".688" opacity=".2"/>
    <path d="M27.497 5A27.439 27.439 0 0 0 0 32.5 27.439 27.439 0 0 0 27.497 60a27.321 27.321 0 0 0 17.91-6.636c1.513-1.304-3.987-1.389-2.787-2.989L32.995 32.5 45.37 13.25c-2.018-2.69-.395-2.244-3.247-4.043A27.317 27.317 0 0 0 27.497 5z" opacity=".2"/>
    <path d="M27.497 4A27.439 27.439 0 0 0 0 31.5 27.439 27.439 0 0 0 27.497 59a27.321 27.321 0 0 0 17.91-6.636c1.513-1.304-3.987-1.389-2.787-2.989L32.995 31.5 45.37 12.25c-2.018-2.69-.395-2.244-3.247-4.043A27.317 27.317 0 0 0 27.497 4z" fill="#FD8019"/>
    <path d="M27.498 4A27.44 27.44 0 0 0 0 31.5c0 .168.009.333.012.5.266-15.002 12.42-27 27.486-27 5.39 0 10.398 1.542 14.625 4.207 2.655 1.674 1.468 1.435 2.914 3.56l.332-.517c-2.017-2.69-.394-2.245-3.246-4.043A27.314 27.314 0 0 0 27.498 4zm5.79 28.045l-.294.455 9.625 17.875c-.854 1.139 1.656 1.515 2.647 2.104.046-.04.094-.076.14-.116 1.513-1.303-3.987-1.388-2.787-2.988l-9.332-17.33z" fill="#F9F5D7" opacity=".1"/>
    <path d="M33.497 5A27.439 27.439 0 0 0 6 32.5 27.439 27.439 0 0 0 33.497 60a27.41 27.41 0 0 0 19.46-8.038L33.495 32.5l19.462-19.462A27.41 27.41 0 0 0 33.497 5z" opacity=".2"/>
    <path d="M33.497 4A27.439 27.439 0 0 0 6 31.5 27.439 27.439 0 0 0 33.497 59a27.41 27.41 0 0 0 19.46-8.038L33.495 31.5l19.462-19.462A27.41 27.41 0 0 0 33.497 4z" fill="#8F3F71"/>
    <path d="M33.5 13a19.5 19.5 0 0 0-17.533 11H7.336a27.4 27.4 0 0 0-.988 4.125h8.173A19.5 19.5 0 0 0 14.064 31H6.041a28.077 28.077 0 0 0 .084 4.125h8.074A19.5 19.5 0 0 0 14.805 38H6.547a27.347 27.347 0 0 0 1.176 4.125h8.834A19.5 19.5 0 0 0 33.5 52a19.5 19.5 0 0 0 13.777-5.717l-3.533-3.533A14.5 14.5 0 0 1 33.5 47 14.5 14.5 0 0 1 19 32.5 14.5 14.5 0 0 1 33.5 18a14.5 14.5 0 0 1 10.244 4.25l3.533-3.533A19.5 19.5 0 0 0 33.5 13zm0 13a6.5 6.5 0 0 0-6.5 6.5 6.5 6.5 0 0 0 6.5 6.5 6.5 6.5 0 0 0 6.5-6.5 6.5 6.5 0 0 0-6.5-6.5z" opacity=".2"/>
    <path d="M33.5 12a19.5 19.5 0 0 0-17.533 11H7.336a27.4 27.4 0 0 0-.988 4.125h8.173A19.5 19.5 0 0 0 14.064 30H6.041a28.077 28.077 0 0 0 .084 4.125h8.074A19.5 19.5 0 0 0 14.805 37H6.547a27.347 27.347 0 0 0 1.176 4.125h8.834A19.5 19.5 0 0 0 33.5 51a19.5 19.5 0 0 0 13.777-5.717l-3.533-3.533A14.5 14.5 0 0 1 33.5 46 14.5 14.5 0 0 1 19 31.5 14.5 14.5 0 0 1 33.5 17a14.5 14.5 0 0 1 10.244 4.25l3.533-3.533A19.5 19.5 0 0 0 33.5 12zm0 13a6.5 6.5 0 0 0-6.5 6.5 6.5 6.5 0 0 0 6.5 6.5 6.5 6.5 0 0 0 6.5-6.5 6.5 6.5 0 0 0-6.5-6.5z" fill="#F9F5D7"/>
    <rect width="3" height="11" x="45" y="26" rx=".75" ry=".688" fill="#8F3F71"/>
    <rect width="3" height="11" x="57" y="26" rx=".75" ry=".688" fill="#8F3F71"/>
    <rect width="3" height="11" x="31" y="-52" rx=".75" ry=".688" transform="rotate(90)" opacity=".2"/>
    <rect width="3" height="11" x="30" y="-52" rx=".75" ry=".688" transform="rotate(90)" fill="#8F3F71"/>
    <rect width="3" height="11" x="31" y="-64" rx=".75" ry=".688" transform="rotate(90)" opacity=".2"/>
    <rect width="3" height="11" x="30" y="-64" rx=".75" ry=".688" transform="rotate(90)" fill="#8F3F71"/>
    <path d="M33.498 4A27.44 27.44 0 0 0 6 31.5c0 .168.009.333.012.5.266-15.002 12.42-27 27.486-27 7.36 0 14.022 2.87 18.947 7.549l.512-.512A27.409 27.409 0 0 0 33.498 4zm.496 28l-.5.5 18.951 18.951c.171-.162.345-.321.512-.488L33.994 32z" fill="#F9F5D7" opacity=".1"/>
</svg>
