<svg xmlns="http://www.w3.org/2000/svg" width="64" height="64" version="1.0">
    <rect width="58" height="46" x="3" y="10" rx="4" ry="4" opacity=".2"/>
    <rect width="58" height="46" x="3" y="9" rx="4" ry="4" fill="#066678"/>
    <path d="M32 17a11 11 0 0 0-11 11 11 11 0 0 0 11 11 11 11 0 0 0 11-11 11 11 0 0 0-11-11zm-4 5h1.115c.195-.002.387.047.557.15l7.807 4.801c.346.206.521.627.521 1.049 0 .422-.175.843-.521 1.049l-7.807 4.801c-.17.103-.362.151-.557.15H28z" opacity=".2"/>
    <path d="M32 16a11 11 0 0 0-11 11 11 11 0 0 0 11 11 11 11 0 0 0 11-11 11 11 0 0 0-11-11zm-4 5h1.115c.195-.002.387.047.557.15l7.807 4.801c.346.206.521.627.521 1.049 0 .422-.175.843-.521 1.049l-7.807 4.801c-.17.103-.362.151-.557.15H28V21z" fill="#F9F5D7"/>
    <rect width="34" height="3" x="15" y="45" rx="1.5" ry="1.5" opacity=".5" fill="#F9F5D7"/>
    <rect width="9" height="9" x="19" y="43" rx="4.5" ry="4.5" opacity=".2"/>
    <rect width="9" height="9" x="19" y="42" rx="4.5" ry="4.5" fill="#F9F5D7"/>
    <path d="M7 9v4h4V9H7zm46 0v4h4V9h-4zM7 17v4h4v-4H7zm46 0v4h4v-4h-4zM7 25v4h4v-4H7zm46 0v4h4v-4h-4zM7 33v4h4v-4H7zm46 0v4h4v-4h-4zM7 41v4h4v-4H7zm46 0v4h4v-4h-4zM7 49v4h4v-4H7zm46 0v4h4v-4h-4z" opacity=".3"/>
    <path d="M7 9c-2.216 0-4 1.784-4 4v1c0-2.216 1.784-4 4-4h50c2.216 0 4 1.784 4 4v-1c0-2.216-1.784-4-4-4H7z" fill="#F9F5D7" opacity=".1"/>
</svg>
