<svg xmlns="http://www.w3.org/2000/svg" width="64" height="64">
    <circle cx="31.5" cy="32.5" r="28.5" opacity=".2"/>
    <circle cx="31.5" cy="31.5" r="28.5" fill="#7CB668"/>
    <circle cx="31.5" cy="32.5" r="19.5" opacity=".2"/>
    <circle cx="31.5" cy="31.5" r="19.5" fill="#F9F5D7"/>
    <path d="M35.526 16.736A6288.592 6288.592 0 0 0 31.5 31.5s9.58-2.383 14.764-4.097a15.321 15.321 0 0 0-10.738-10.667z" fill="#7CB668"/>
    <path d="M35.525 16.736C34.145 21.756 31.5 31.5 31.5 31.5l.293-.076c.338-1.246 2.452-9.033 3.732-13.688a15.321 15.321 0 0 1 10.436 9.762c.095-.03.21-.065.303-.096a15.321 15.321 0 0 0-10.739-10.666z" opacity=".2"/>
    <path d="M29.45 32.941l-9.093-8.405 12.55 6.62 2.772 4.523-6.228-2.738" fill="#504945" fill-rule="evenodd"/>
    <path d="M30.637 30.873l19.527-4.944-17.536 7.487-6.7.87 4.71-3.413" fill="#504945" fill-rule="evenodd"/>
    <path d="M31.5 15a1.5 1.5 0 0 0-1.5 1.5 1.5 1.5 0 0 0 1.5 1.5 1.5 1.5 0 0 0 1.5-1.5 1.5 1.5 0 0 0-1.5-1.5zm-15 15a1.5 1.5 0 0 0-1.5 1.5 1.5 1.5 0 0 0 1.5 1.5 1.5 1.5 0 0 0 1.5-1.5 1.5 1.5 0 0 0-1.5-1.5zm30 0a1.5 1.5 0 0 0-1.5 1.5 1.5 1.5 0 0 0 1.5 1.5 1.5 1.5 0 0 0 1.5-1.5 1.5 1.5 0 0 0-1.5-1.5zm-15 15a1.5 1.5 0 0 0-1.5 1.5 1.5 1.5 0 0 0 1.5 1.5 1.5 1.5 0 0 0 1.5-1.5 1.5 1.5 0 0 0-1.5-1.5z" fill="#504945"/>
    <path d="M31.5 3A28.5 28.5 0 0 0 3 31.5a28.5 28.5 0 0 0 .021.582A28.5 28.5 0 0 1 31.5 4a28.5 28.5 0 0 1 28.479 27.918A28.5 28.5 0 0 0 60 31.5 28.5 28.5 0 0 0 31.5 3z" fill="#F9F5D7" opacity=".2"/>
</svg>
