<svg xmlns="http://www.w3.org/2000/svg" width="64" height="64" version="1">
    <path d="M24.788 60.19c-2.463-.534-5.998-1.677-7.856-2.54l-3.379-1.57-3.657 1.512C5.673 59.337 2 60.084 2 59.196c0-.318 1.158-2.87 2.574-5.67l2.574-5.092-1.034-1.74C4.185 43.45 3.015 39.485 3 33.593c-.023-9.025 2.24-14.41 8.172-20.278 7.319-7.24 16.797-9.728 28.368-7.556C53.826 8.439 61.888 18.936 61 33.845c-.496 8.328-3.12 14.438-8.238 19.517-5.077 5.04-10.455 7.258-18.401 7.588-3.779.156-6.254-.04-9.573-.76z" opacity=".2"/>
    <path d="M24.788 59.19c-2.463-.534-5.998-1.677-7.856-2.54l-3.379-1.57-3.657 1.512C5.673 58.337 2 59.084 2 58.196c0-.318 1.158-2.87 2.574-5.67l2.574-5.092-1.034-1.74C4.185 42.45 3.015 38.485 3 32.593c-.023-9.025 2.24-14.41 8.172-20.278 7.319-7.24 16.797-9.728 28.368-7.556C53.826 7.439 61.888 17.936 61 32.845c-.496 8.328-3.12 14.438-8.238 19.517-5.077 5.04-10.455 7.258-18.401 7.588-3.779.156-6.254-.04-9.573-.76z" fill="#48B9C7"/>
    <path d="M42.426 51.136c2.907-1.147 3.151-1.822 1.73-4.785-.656-1.366-1.79-3.213-2.522-4.104-1.285-1.907-1.491-1.533-3.36-.517l-.951.517c-2.36 1.282-3.15 1.517-3.786 1.124-.451-.278-1.38-2.294-2.117-4.595-1.18-3.685-1.604-4.4-4.19-7.07-1.583-1.633-2.878-3.329-2.878-3.768 0-.851 1.689-2.647 3.738-3.975 1.55-1.006 1.562-1.938.064-5C26.78 16.153 24.943 14 23.918 14c-1.16 0-4.044 2.712-5.07 4.767-1.96 3.93-.709 8.099 5.73 19.08 7.684 13.105 11.364 15.845 17.848 13.289z" opacity=".2"/>
    <path d="M42.426 50.136c2.907-1.147 3.151-1.822 1.73-4.785-.656-1.366-1.79-3.213-2.522-4.104-1.285-1.907-1.491-1.533-3.36-.517l-.951.517c-2.36 1.282-3.15 1.517-3.786 1.124-.451-.278-1.38-2.294-2.117-4.595-1.18-3.685-1.604-4.4-4.19-7.07-1.583-1.633-2.878-3.329-2.878-3.768 0-.851 1.689-2.647 3.738-3.975 1.55-1.006 1.562-1.938.064-5C26.78 15.153 24.943 13 23.918 13c-1.16 0-4.044 2.712-5.07 4.767-1.96 3.93-.709 8.099 5.73 19.08 7.684 13.105 11.364 15.845 17.848 13.289z" fill="#F9F5D7"/>
    <path d="M31.256 4.004c-7.89.123-14.595 2.881-20.084 8.31C5.239 18.183 2.977 23.567 3 32.592c0 .118.009.223.01.34.09-8.625 2.377-13.896 8.162-19.618 7.319-7.238 16.796-9.728 28.367-7.556 13.357 2.507 21.272 11.846 21.52 25.234.134-13.921-7.834-23.666-21.52-26.234-2.893-.543-5.653-.795-8.283-.754zM6.875 47.974l-2.3 4.551C3.158 55.325 2 57.878 2 58.197c0 .132.09.222.242.283.407-1.004 1.295-2.904 2.332-4.955l2.574-5.091-.273-.46z" fill="#F9F5D7" opacity=".2"/>
</svg>
