<svg xmlns="http://www.w3.org/2000/svg" width="64" height="64" version="1">
    <rect width="56" height="56" x="4" y="4" rx="28" ry="28" fill="#CB8819"/>
    <path d="M32 4C16.488 4 4 16.488 4 32c0 .113.011.224.018.336C4.369 17.134 16.71 5 32 5s27.63 12.134 27.982 27.336c.007-.112.018-.223.018-.336C60 16.488 47.512 4 32 4z" opacity=".1" fill="#F9F5D7"/>
    <path d="M32 16l-4.238 11.556L16 28.222l9.144 7.81L22.112 48 32 41.27 41.888 48l-3.032-11.968L48 28.222l-11.762-.666z" fill="#3A393A"/>
    <path d="M4.049 33l.002.018V33h-.002zm.002.018c-.013.328-.051.65-.051.982 0 .224.012.445.018.668.012-.217.024-.433.033-.65L4.049 34h.002v.018C4.588 49.05 16.83 61 32 61c15.174 0 27.421-11.958 27.95-27 .007.222.02.443.032.664.006-.221.018-.441.018-.664 0-.338-.039-.665-.05-1C59.42 48.042 47.173 60 32 60 16.832 60 4.588 48.051 4.05 33.018z" opacity=".2"/>
</svg>
