<svg xmlns="http://www.w3.org/2000/svg" width="64" height="64" version="1">
    <rect width="56" height="56" x="4" y="4" rx="28" ry="28" fill="#F9BD2E"/>
    <path d="M32 4C16.488 4 4 16.488 4 32c0 .114.011.224.018.336C4.369 17.134 16.71 5 32 5s27.63 12.134 27.982 27.336c.007-.112.018-.223.018-.336C60 16.488 47.512 4 32 4z" opacity=".1" fill="#F9F5D7"/>
    <g transform="matrix(1.4 0 0 1.4 -75.874 4.516)" fill="#3A393A">
        <circle cx="69.91" cy="12.489" r="2.857"/>
        <circle cx="84.196" cy="12.489" r="2.857"/>
        <path d="M69.444 24.355a8.795 10.554 0 0 0 7.61 5.277 8.795 10.554 0 0 0 7.602-5.277h-1.068a8.795 10.554 0 0 1-6.535 3.518 8.795 10.554 0 0 1-6.537-3.518h-1.072z"/>
    </g>
    <path d="M4.049 33l.002.018V33h-.002zm.002.018c-.013.328-.051.65-.051.982 0 .224.012.445.018.668.012-.217.024-.433.033-.65L4.049 34h.002v.018C4.588 49.05 16.83 61 32 61c15.174 0 27.421-11.958 27.95-27 .007.222.02.443.032.664.006-.221.018-.441.018-.664 0-.338-.039-.665-.05-1C59.42 48.042 47.173 60 32 60 16.832 60 4.588 48.051 4.05 33.018z" opacity=".2"/>
</svg>
