<svg xmlns="http://www.w3.org/2000/svg" width="64" height="64" version="1">
    <path d="M24.604 7C24.05 7 23.6 7.48 23.6 8.069c0 .482.3.887.713 1.02.622 2.254 2.086 4.377 4.107 5.92a4.2 5.412 0 0 0-.62 2.816 4.2 5.412 0 0 0 1.4 4.026v27.09c0 2.35 1.118 4.06 2.8 4.06 1.683 0 2.796-1.78 2.8-4.059V21.848a4.2 5.412 0 0 0 1.4-4.025 4.2 5.412 0 0 0-.618-2.817c2.02-1.542 3.482-3.665 4.104-5.919.414-.132.714-.538.714-1.02 0-.59-.45-1.067-1.004-1.067-.555 0-1.006.479-1.006 1.067 0 .325.137.614.353.809-.567 1.99-1.878 3.87-3.675 5.258A4.2 5.412 0 0 0 32 12.411a4.2 5.412 0 0 0-3.066 1.723c-1.798-1.39-3.11-3.267-3.676-5.258.214-.195.352-.484.352-.809C25.61 7.48 25.158 7 24.604 7z" opacity=".2"/>
    <path d="M24.604 6C24.05 6 23.6 6.48 23.6 7.069c0 .482.3.887.713 1.02.622 2.254 2.086 4.377 4.107 5.92a4.2 5.412 0 0 0-.62 2.816 4.2 5.412 0 0 0 1.4 4.026v27.09c0 2.35 1.118 4.06 2.8 4.06 1.683 0 2.796-1.78 2.8-4.059V20.848a4.2 5.412 0 0 0 1.4-4.025 4.2 5.412 0 0 0-.618-2.817c2.02-1.542 3.482-3.665 4.104-5.919.414-.132.714-.538.714-1.02 0-.59-.45-1.067-1.004-1.067-.555 0-1.006.479-1.006 1.067 0 .325.137.614.353.809-.567 1.99-1.878 3.87-3.675 5.259A4.2 5.412 0 0 0 32 11.412a4.2 5.412 0 0 0-3.066 1.722c-1.798-1.39-3.11-3.267-3.676-5.258.214-.195.352-.484.352-.809C25.61 6.48 25.158 6 24.604 6z" fill="#504945"/>
    <path d="M16.602 12C9.642 12 4 18.674 4 26.904c.005 6.388 3.45 12.062 8.566 14.106a13.85 13.85 0 0 0-.168 2.152c0 5.986 3.764 10.84 8.402 10.84 4.64 0 8.4-4.854 8.4-10.84V26.903C29.2 18.673 23.56 12 16.602 12zm30.796 0C40.44 12 34.8 18.674 34.8 26.904V43.16c0 5.986 3.76 10.84 8.4 10.84 4.638 0 8.402-4.854 8.402-10.84 0-.724-.058-1.444-.168-2.152 5.116-2.044 8.56-7.718 8.566-14.106C60 18.673 54.358 12 47.398 12z" fill="#C77089"/>
    <ellipse cx="8.832" cy="31.355" rx="6.642" ry="10.241" transform="matrix(.9686 -.24866 .26933 .96305 0 0)" fill="#C77089"/>
    <ellipse cx="-52.816" cy="15.438" rx="6.642" ry="10.241" transform="matrix(-.9686 -.24866 -.26933 .96305 0 0)" fill="#C77089"/>
    <path d="M23.766 44.015a5.084 3.893 73.663 0 1-2.42 5.887 5.084 3.893 73.663 0 1-5.113-3.917 5.084 3.893 73.663 0 1 2.421-5.887 5.084 3.893 73.663 0 1 5.112 3.917zM40.233 44.015a3.893 5.084 16.337 0 0 2.42 5.887 3.893 5.084 16.337 0 0 5.113-3.917 3.893 5.084 16.337 0 0-2.421-5.887 3.893 5.084 16.337 0 0-5.112 3.917z" fill="#C77089"/>
    <path d="M16.602 12C9.642 12 4 18.672 4 26.902c0 .128.014.253.025.377.279-7.938 5.796-14.277 12.577-14.277 6.958 0 12.597 6.67 12.597 14.9v-1C29.2 18.672 23.56 12 16.602 12zm30.796 0c-6.958 0-12.597 6.672-12.597 14.902v1c0-8.23 5.64-14.9 12.597-14.9 6.783 0 12.298 6.339 12.577 14.277.011-.124.025-.249.025-.377C60 18.672 54.358 12 47.398 12zm-34.98 30.936c-.001.076-.02.148-.02.224 0 .274.037.533.063.797l.03.016c.018-.323.025-.648.075-.965-.051-.02-.097-.052-.148-.072zm39.164 0c-.052.02-.096.052-.148.072.048.317.057.642.076.965l.03-.016c.025-.264.062-.523.062-.797 0-.076-.018-.148-.02-.224z" opacity=".2" fill="#F9F5D7"/>
    <path d="M4.055 26.684c-.028.402-.055.806-.055 1.218.005 6.322 3.387 11.935 8.418 14.03.01-.646.049-1.29.148-1.925-4.903-1.96-8.236-7.264-8.511-13.324zm55.89 0c-.276 6.06-3.608 11.364-8.512 13.324.1.634.138 1.28.149 1.926 5.03-2.096 8.412-7.71 8.418-14.031 0-.412-.027-.816-.055-1.22zM29.199 42.16c0 5.986-3.76 10.84-8.399 10.84-4.374 0-7.928-4.332-8.324-9.844-.024.335-.078.667-.078 1.004C12.398 50.146 16.16 55 20.8 55c4.64 0 8.399-4.854 8.399-10.84v-2zm5.601 0v2C34.8 50.146 38.56 55 43.2 55c4.64 0 8.402-4.854 8.402-10.84 0-.337-.053-.668-.078-1.004C51.127 48.668 47.573 53 43.2 53c-4.64 0-8.399-4.854-8.399-10.84z" opacity=".2"/>
    <path d="M15.574 19.005a10.243 6.64 73.487 0 0-1.332.133 10.243 6.64 73.487 0 0-3.676 11.515 10.243 6.64 73.487 0 0 9.191 8.211 10.243 6.64 73.487 0 0 3.676-11.515 10.243 6.64 73.487 0 0-7.86-8.344zm32.851 0a6.64 10.243 16.513 0 0-7.86 8.344 6.64 10.243 16.513 0 0 3.677 11.515 6.64 10.243 16.513 0 0 9.19-8.21 6.64 10.243 16.513 0 0-3.675-11.516 6.64 10.243 16.513 0 0-1.332-.133zM19.43 41a5.084 3.893 73.663 0 0-.773.097 5.084 3.893 73.663 0 0-2.422 5.887 5.084 3.893 73.663 0 0 5.11 3.918 5.084 3.893 73.663 0 0 2.421-5.887 5.084 3.893 73.663 0 0-4.336-4.015zm25.14 0a3.893 5.084 16.337 0 0-4.335 4.015 3.893 5.084 16.337 0 0 2.422 5.887 3.893 5.084 16.337 0 0 5.109-3.918 3.893 5.084 16.337 0 0-2.422-5.887 3.893 5.084 16.337 0 0-.773-.097z" opacity=".2"/>
    <path d="M15.574 18.004a10.243 6.64 73.487 0 0-1.332.133 10.243 6.64 73.487 0 0-3.676 11.516 10.243 6.64 73.487 0 0 9.191 8.21 10.243 6.64 73.487 0 0 3.676-11.515 10.243 6.64 73.487 0 0-7.86-8.344zm32.851 0a6.64 10.243 16.513 0 0-7.86 8.344 6.64 10.243 16.513 0 0 3.677 11.516 6.64 10.243 16.513 0 0 9.19-8.211 6.64 10.243 16.513 0 0-3.675-11.516 6.64 10.243 16.513 0 0-1.332-.133zM19.43 40a5.084 3.893 73.663 0 0-.773.098 5.084 3.893 73.663 0 0-2.422 5.887 5.084 3.893 73.663 0 0 5.11 3.917 5.084 3.893 73.663 0 0 2.421-5.886A5.084 3.893 73.663 0 0 19.43 40zm25.14 0a3.893 5.084 16.337 0 0-4.335 4.016 3.893 5.084 16.337 0 0 2.422 5.886 3.893 5.084 16.337 0 0 5.109-3.917 3.893 5.084 16.337 0 0-2.422-5.887A3.893 5.084 16.337 0 0 44.57 40z" fill="#C77089"/>
    <path d="M15.574 18.004a10.243 6.64 73.487 0 0-1.332.133 10.243 6.64 73.487 0 0-4.22 8.029 10.243 6.64 73.487 0 1 4.22-7.03 10.243 6.64 73.487 0 1 1.332-.132 10.243 6.64 73.487 0 1 7.86 8.344 10.243 6.64 73.487 0 1 .539 3.484 10.243 6.64 73.487 0 0-.54-4.484 10.243 6.64 73.487 0 0-7.859-8.344zm32.852 0a6.64 10.243 16.513 0 0-7.86 8.344 6.64 10.243 16.513 0 0-.546 4.492 6.64 10.243 16.513 0 1 .546-3.492 6.64 10.243 16.513 0 1 7.86-8.344 6.64 10.243 16.513 0 1 1.332.133 6.64 10.243 16.513 0 1 4.222 7 6.64 10.243 16.513 0 0-4.222-8 6.64 10.243 16.513 0 0-1.332-.133zM19.43 40a5.084 3.893 73.663 0 0-.774.098 5.084 3.893 73.663 0 0-2.629 4.691 5.084 3.893 73.663 0 1 2.63-3.691A5.084 3.893 73.663 0 1 19.43 41a5.084 3.893 73.663 0 1 4.336 4.016 5.084 3.893 73.663 0 1 .209 1.195 5.084 3.893 73.663 0 0-.21-2.195A5.084 3.893 73.663 0 0 19.43 40zm25.14 0a3.893 5.084 16.337 0 0-4.336 4.016 3.893 5.084 16.337 0 0-.205 2.181 3.893 5.084 16.337 0 1 .205-1.181A3.893 5.084 16.337 0 1 44.57 41a3.893 5.084 16.337 0 1 .774.098 3.893 5.084 16.337 0 1 2.627 3.683 3.893 5.084 16.337 0 0-2.627-4.683A3.893 5.084 16.337 0 0 44.57 40zM24.604 6c-.554 0-1.004.479-1.004 1.068 0 .184.053.35.13.5.17-.333.492-.568.874-.568.38 0 .704.235.875.568.077-.15.13-.315.13-.5C25.61 6.48 25.158 6 24.604 6zm14.792 0c-.555 0-1.005.48-1.005 1.068 0 .185.053.35.13.5.17-.333.493-.568.875-.568s.702.236.872.57c.077-.15.132-.317.132-.502 0-.59-.45-1.068-1.004-1.068zM25.484 8.56c-.06.119-.132.229-.226.315.566 1.99 1.878 3.87 3.676 5.26A4.2 5.412 0 0 1 32 12.412a4.2 5.412 0 0 1 3.068 1.723c1.798-1.39 3.107-3.27 3.674-5.26a1.06 1.06 0 0 1-.226-.314c-.65 1.733-1.858 3.345-3.448 4.574A4.2 5.412 0 0 0 32 11.412a4.2 5.412 0 0 0-3.066 1.723c-1.59-1.23-2.8-2.84-3.45-4.574zm10.393 6.202c-.1.08-.193.166-.295.244a4.2 5.412 0 0 1 .596 2.29 4.2 5.412 0 0 0 .021-.472 4.2 5.412 0 0 0-.322-2.062zm-7.752.002a4.2 5.412 0 0 0-.324 2.06 4.2 5.412 0 0 0 .021.528 4.2 5.412 0 0 1 .598-2.344c-.102-.078-.196-.164-.295-.244z" opacity=".1" fill="#F9F5D7"/>
</svg>
