<svg xmlns="http://www.w3.org/2000/svg" width="64" height="64" version="1">
    <path d="M2.05 32c-.01.336-.05.662-.05 1 0 16.62 13.38 30 30 30 16.62 0 30-13.38 30-30 0-.338-.04-.664-.05-1C61.42 48.148 48.282 61 32 61S2.58 48.148 2.05 32z" opacity=".2"/>
    <path d="M32 17a15 15 0 0 0-15 15 15 15 0 0 0 15 15 15 15 0 0 0 15-15 15 15 0 0 0-15-15zm0 9a6 6 0 1 1 0 12 6 6 0 0 1 0-12z" fill="#928274"/>
    <path d="M32 2C15.38 2 2 15.38 2 32c0 16.62 13.38 30 30 30 16.62 0 30-13.38 30-30C62 15.38 48.62 2 32 2zm0 18a12 12 0 0 1 12 12 12 12 0 0 1-12 12 12 12 0 0 1-12-12 12 12 0 0 1 12-12z" fill="#F9F5D7"/>
    <path d="M32 2C15.397 2.001 2.03 15.38 2.03 32c0 .184.006.365.011.547C2.282 16.139 15.549 3 32 3h.002c16.442.001 29.702 13.123 29.959 29.518.005-.173.012-.344.012-.518 0-16.62-13.367-29.999-29.971-30H32zm-5.92 30.75c-.031.248-.074.493-.074.75 0 .22.012.435.035.648.016-.132.022-.266.04-.398C26.451 36.706 28.945 39 32 39c3.054 0 5.546-2.294 5.918-5.25.016.13.026.264.041.395.023-.212.035-.427.035-.645 0-.257-.045-.502-.076-.75C37.546 35.706 35.054 38 32 38c-3.054 0-5.548-2.294-5.92-5.25z" opacity=".2" fill="#F9F5D7"/>
    <path d="M40.07 52.612c-.173 2.043.13 3.972 1.191 5.645 4.001 6.307 17.601 6.34 21.554 0 .997-1.598 1.297-3.414 1.13-5.336-.129 1.182-.487 2.305-1.13 3.336-3.954 6.34-17.554 6.307-21.554 0-.706-1.114-1.065-2.347-1.191-3.645z" opacity=".2"/>
    <path d="M51.804 30c-3.572 5.001-15.71 19.104-10.54 27.258 4 6.308 17.599 6.34 21.552 0C67.962 49.01 54.846 35 51.806 30z" fill="#D79921"/>
</svg>
