<svg xmlns="http://www.w3.org/2000/svg" width="64" height="64" version="1">
    <rect width="56" height="56" x="4" y="5" rx="2.8" ry="2.8" opacity=".2"/>
    <rect width="56" height="56" x="4" y="4" rx="2.8" ry="2.8" fill="#F9F5D7"/>
    <g transform="matrix(2 0 0 2 1 1)" fill="#CB8819">
        <rect width="3" height="3" x="14" y="14" ry=".721"/>
        <rect width="3" height="3" x="14" y="10" ry=".721"/>
        <rect width="3" height="3" x="14" y="22" ry=".721"/>
        <rect width="3" height="3" x="14" y="18" ry=".721"/>
        <rect width="3" height="3" x="14" y="6" ry=".721"/>
        <rect width="3" height="3" x="10" y="6" ry=".721"/>
        <rect width="3" height="3" x="6" y="6" ry=".721"/>
        <rect width="3" height="3" x="22" y="6" ry=".721"/>
        <rect width="3" height="3" x="18" y="6" ry=".721"/>
    </g>
    <path d="M6.8 4C5.25 4 4 5.25 4 6.8v1C4 6.25 5.25 5 6.8 5h50.4C58.75 5 60 6.25 60 7.8v-1C60 5.25 58.75 4 57.2 4H6.8z" fill="#F9F5D7" opacity=".2"/>
</svg>
