<svg xmlns="http://www.w3.org/2000/svg" width="64" height="64" version="1">
    <path d="M32.15 5.002a6.341 6.367 0 0 0-3.32.85L10.17 16.667A6.341 6.367 0 0 0 7 22.182v21.634a6.341 6.367 0 0 0 3.17 5.514l18.66 10.817a6.341 6.367 0 0 0 6.34 0L53.83 49.33A6.341 6.367 0 0 0 57 43.816V22.182a6.341 6.367 0 0 0-3.17-5.515L35.17 5.851A6.341 6.367 0 0 0 32.15 5z" opacity=".2"/>
    <path d="M32.15 4.002a6.341 6.367 0 0 0-3.32.85L10.17 15.667A6.341 6.367 0 0 0 7 21.182v21.634a6.341 6.367 0 0 0 3.17 5.514l18.66 10.817a6.341 6.367 0 0 0 6.34 0L53.83 48.33A6.341 6.367 0 0 0 57 42.816V21.182a6.341 6.367 0 0 0-3.17-5.515L35.17 4.851A6.341 6.367 0 0 0 32.15 4z" fill="#504945"/>
    <path d="M27.125 23l-1.605 1.605a9.603 9.603 0 0 0-4.756-1.503c-4.672-.232-9.748 3.401-9.764 9.865a10.44 10.44 0 0 0 2.389 6.635 9.098 9.098 0 0 0 7.074 3.298c3.371 0 6.007-1.24 8.016-2.996 2.008-1.756 3.458-3.97 4.87-6.066 1.413-2.096 2.785-4.072 4.44-5.467 1.655-1.395 3.537-2.271 6.363-2.271 2.385 0 5.948 1.958 5.948 7.671 0 3.17-2.545 6.22-6.485 6.13-1.379-.032-2.32-.308-3.01-.631L42 37.875l-3.5-.938L35 36l.938 3.5.937 3.5 1.531-1.531c1.158.74 2.827 1.377 5.14 1.43 5.55.126 9.554-4.316 9.554-9.128 0-7.03-4.838-10.671-8.948-10.671-3.49 0-6.215 1.223-8.297 2.978-2.081 1.755-3.573 3.98-4.992 6.084-1.418 2.105-2.766 4.091-4.36 5.484-1.592 1.394-3.363 2.254-6.04 2.254-2.142 0-3.666-.888-4.768-2.214-1.101-1.327-1.699-3.13-1.695-4.711.012-4.965 3.513-7.03 6.615-6.877 1.177.058 2.071.327 2.762.65L22 28.125l3.5.938L29 30l-.938-3.5z" opacity=".2"/>
    <path d="M37.6 37.6s1.258 2.692 5.981 2.8c4.744.108 8.019-3.637 8.019-7.628 0-6.372-4.2-9.172-7.447-9.172-12.633 0-11.593 16.8-23.69 16.8-5.163 0-7.972-4.54-7.963-8.429.014-5.714 4.303-8.563 8.19-8.371 4.085.202 5.81 2.8 5.81 2.8" fill="none" stroke="#F9F5D7" stroke-width="3"/>
    <path d="M29 29l-3.5-.938-3.5-.938 2.562-2.562L27.124 22l.938 3.5zM35 35l3.5.938 3.5.938-2.562 2.562L36.876 42l-.938-3.5z" fill="#F9F5D7"/>
    <path d="M32.148 4a6.341 6.367 0 0 0-3.32.852L10.172 15.668A6.341 6.367 0 0 0 7 21.184v1a6.341 6.367 0 0 1 3.172-5.516L28.828 5.852A6.341 6.367 0 0 1 32.148 5h.004a6.341 6.367 0 0 1 3.02.852l18.656 10.816A6.341 6.367 0 0 1 57 22.18v-1a6.341 6.367 0 0 0-3.172-5.512L35.172 4.852A6.341 6.367 0 0 0 32.152 4h-.004z" opacity=".1" fill="#F9F5D7"/>
</svg>
