<svg xmlns="http://www.w3.org/2000/svg" width="64" height="64" version="1">
    <path d="M42 4l-6 6h-8v2h8l6-6 6 6h8v-2h-8zM28 18l-6 6 1 1 5-5zm28 0v2l5 5 1-1z" opacity=".2" fill="#F9F5D7"/>
    <path d="M58 37.107a27.905 27.905 0 0 1-7.726 19.312c-5.1 5.352-13.578.009-21.554.009-8.1 0-14.115 5.24-19.227-.257A27.9 27.9 0 0 1 2 37.107c0-15.464 12.536-28 28-28s28 12.536 28 28z" opacity=".2" fill="#151819"/>
    <path d="M58 36.107a27.905 27.905 0 0 1-7.726 19.312c-5.1 5.352-13.578.009-21.554.009-8.1 0-14.115 5.24-19.227-.257A27.9 27.9 0 0 1 2 36.107c0-15.464 12.536-28 28-28s28 12.536 28 28z" fill="#066678"/>
    <path d="M30 8.105c-15.464 0-28 12.536-28 28 0 .115.011.227.018.34C2.369 21.287 14.758 9.105 30 9.105c15.243 0 27.63 12.182 27.982 27.34.007-.113.018-.225.018-.34 0-15.464-12.536-28-28-28z" opacity=".1" fill="#F9F5D7"/>
    <path d="M42 5l-6 6h-8v8l-6 6 6 6v8h8l6 6 6-6h8v-8l6-6-6-6v-8h-8z" opacity=".2" fill="#151819"/>
    <path d="M42 4l-6 6h-8v8l-6 6 6 6v8h8l6 6 6-6h8v-8l6-6-6-6v-8h-8z" fill="#FD8019"/>
    <circle cx="42" cy="25" r="12" opacity=".2" fill="#151819"/>
    <circle cx="42" cy="24" r="12" fill="#FECE4F"/>
    <circle cx="30.571" cy="44.286" r="11.429" opacity=".2"/>
    <path d="M30 31a12 12 0 0 0-12 12 12 12 0 0 0 .018.533A9 9 0 0 0 15 43a9 9 0 0 0-9 9 9 9 0 0 0 9 9h30a9 9 0 0 0 9-9 9 9 0 0 0-9-9 9 9 0 0 0-3.027.533A12 12 0 0 0 42 43a12 12 0 0 0-12-12z" opacity=".2"/>
    <circle cx="15" cy="51" r="9" fill="#F9F5D7"/>
    <circle cx="30" cy="42" r="12" fill="#F9F5D7"/>
    <circle cx="45" cy="51" r="9" fill="#F9F5D7"/>
    <path fill="#F9F5D7" d="M15 48h30v12H15z"/>
    <path d="M42 12a12 12 0 0 0-12 12 12 12 0 0 0 .021.404A12 12 0 0 1 42 13a12 12 0 0 1 11.975 11.5A12 12 0 0 0 54 24a12 12 0 0 0-12-12zM42 4l-6 6h-8v1h8l6-6 6 6h8v-1h-8l-6-6zM28 18l-6 6 .5.5L28 19v-1zm28 0v1l5.5 5.5.5-.5-6-6z" opacity=".2" fill="#F9F5D7"/>
</svg>
