<svg xmlns="http://www.w3.org/2000/svg" width="64" height="64">
    <path d="M4.043 27.828A28 26 0 0 0 4 29a28 26 0 0 0 10 19.914v-2a28 26 0 0 1-9.957-19.086zm55.916.344A28 26 0 0 1 32.001 53a28 26 0 0 1-10.558-1.934L14.001 57v2l7.442-5.934A28 26 0 0 0 32.001 55a28 26 0 0 0 28-26 28 26 0 0 0-.042-.828z" opacity=".2"/>
    <path d="M32 2A28 26 0 0 0 4 28a28 26 0 0 0 10 19.914V58l7.442-5.934A28 26 0 0 0 32 54a28 26 0 0 0 28-26A28 26 0 0 0 32 2z" fill="#48B9C7"/>
    <path d="M44.006 23a20 19 0 0 1 1.706.082c.412.032.816.085 1.22.14a20 19 0 0 1 .64.092c.576.097 1.14.22 1.698.362a20 19 0 0 1 .109.027C57.821 25.901 64 33.125 64 41.7c0 .062-.005.123-.006.185A20 19 0 0 1 64 42a20 19 0 0 1-7.803 15.028V63l-5.502-3.121A20 19 0 0 1 44 60.999a20 19 0 0 1-19.95-18.03 17.497 17.497 0 0 1-.035-.666 20 19 0 0 1-.014-.304 20 19 0 0 1 .004-.124c0-.058-.004-.118-.004-.176 0-9.685 7.876-17.667 18.004-18.604a20 19 0 0 1 1.664-.08c.112-.002.222-.016.334-.016h.004z" opacity=".2"/>
    <path d="M31.998 2A28 26 0 0 0 4 28a28 26 0 0 0 .021.424A28 26 0 0 1 31.998 3H32a28 26 0 0 1 27.977 25.604 28 26 0 0 0 .021-.604A28 26 0 0 0 32 2h-.002z" opacity=".2" fill="#F9F5D7"/>
    <circle cx="18" cy="23" r="4" opacity=".1"/>
    <circle cx="18" cy="22" r="4" fill="#3A393A"/>
    <circle cx="46" cy="24" r="4" opacity=".1"/>
    <circle cx="46" cy="22" r="4" fill="#3A393A"/>
    <path d="M44.006 22a20 19 0 0 1 1.706.082c.412.032.816.085 1.22.14a20 19 0 0 1 .64.092c.576.097 1.14.22 1.698.362a20 19 0 0 1 .109.027C57.821 24.901 64 32.125 64 40.7c0 .062-.005.123-.006.185A20 19 0 0 1 64 41a20 19 0 0 1-7.803 15.028V62l-5.502-3.121A20 19 0 0 1 44 59.999a20 19 0 0 1-19.95-18.03 17.497 17.497 0 0 1-.035-.666 20 19 0 0 1-.014-.304 20 19 0 0 1 .004-.124c0-.058-.004-.118-.004-.176 0-9.685 7.876-17.667 18.004-18.604a20 19 0 0 1 1.664-.08c.112-.002.222-.016.334-.016h.004z" fill="#F9F5D7"/>
    <path d="M44.004 22c-.112 0-.224.014-.336.016a20 19 0 0 0-1.664.078C31.876 23.03 24 31.014 24 40.699c0 .058.004.118.004.176A20 19 0 0 0 24 41a20 19 0 0 0 .016.305l.002.045c.188-9.526 7.981-17.33 17.986-18.256a20 19 0 0 1 1.664-.078c.112-.002.224-.016.336-.016h.004a20 19 0 0 1 1.703.082c.412.033.815.085 1.219.14a20 19 0 0 1 .64.09c.576.098 1.143.222 1.7.364a20 19 0 0 1 .109.027c8.315 2.165 14.42 9.207 14.603 17.611A20 19 0 0 0 64 41a20 19 0 0 0-.004-.113c0-.062.004-.126.004-.188 0-8.574-6.179-15.797-14.621-17.996a20 19 0 0 0-.11-.027 21.127 21.127 0 0 0-1.699-.363 20 19 0 0 0-.64-.09 21.252 21.252 0 0 0-1.22-.141A20 19 0 0 0 44.009 22h-.004z" opacity=".2" fill="#F9F5D7"/>
    <circle cx="34" cy="39" r="4" opacity=".1"/>
    <circle cx="34" cy="38" r="4" fill="#3A393A"/>
    <circle cx="54" cy="39" r="4" opacity=".1"/>
    <circle cx="54" cy="38" r="4" fill="#3A393A"/>
</svg>
