<svg xmlns="http://www.w3.org/2000/svg" width="64" height="64">
    <rect width="56" height="56" x="4" y="5" rx="6" ry="6" opacity=".2"/>
    <rect width="56" height="56" x="4" y="4" rx="6" ry="6" fill="#8F3F71"/>
    <path d="M15 19c9 0 9 13 17 13s8-13 17-13M15 45c9 0 9-13 17-13s8 13 17 13" stroke="#F9F5D7" stroke-width="2" stroke-linecap="round" fill="none"/>
    <path d="M10 4c-3.324 0-6 2.676-6 6v1c0-3.324 2.676-6 6-6h44c3.324 0 6 2.676 6 6v-1c0-3.324-2.676-6-6-6z" opacity=".2" fill="#F9F5D7"/>
</svg>
