<svg xmlns="http://www.w3.org/2000/svg" width="64" height="64">
    <path d="M32 5A28 28 0 0 0 4 33a28 28 0 0 0 28 28 28 28 0 0 0 28-28A28 28 0 0 0 32 5z" opacity=".2"/>
    <path d="M32 4A28 28 0 0 0 4 32a28 28 0 0 0 28 28 28 28 0 0 0 28-28A28 28 0 0 0 32 4z" fill="#066678"/>
    <path d="M20.89 22l-1.722 6h23.908l-4.154 10h-23.2L14 44h24.803c2.763-.05 5.603-1.714 6.688-4.348l4.338-12.95C50.853 22.51 47.072 22 44.147 22zm-4.813 8L14 36h13.846l2.077-6z" opacity=".2"/>
    <path d="M20.89 21l-1.722 6h23.908l-4.154 10h-23.2L14 43h24.803c2.763-.05 5.603-1.714 6.688-4.348l4.338-12.95C50.853 21.51 47.072 21 44.147 21zm-4.813 8L14 35h13.846l2.077-6z" fill="#F9F5D7"/>
    <path d="M32 4A28 28 0 0 0 4 32a28 28 0 0 0 .021.406A28 28 0 0 1 32 5a28 28 0 0 1 27.979 27.578A28 28 0 0 0 60 32 28 28 0 0 0 32 4z" opacity=".2" fill="#F9F5D7"/>
</svg>
