<svg xmlns="http://www.w3.org/2000/svg" width="64" height="64" version="1">
    <circle cx="32" cy="33" r="28" opacity=".2"/>
    <circle cx="32" cy="32" r="28" fill="#C77089"/>
    <path d="M16.078 26.484c.212-.66.25-1.057.33-1.44-.583.76-.269.923-.33 1.44m1.078-4.586c.106.99-.731 1.375.185.721.493-1.128-.19-.31-.185-.721m16.015-8.67c.456-.17 1.12-.093 1.606-.205-.631.054-1.26.086-1.88.166l.274.039m14.656 18.494l-.098.254a12.378 12.378 0 0 1-1.177 3.82 12.2 12.2 0 0 0 1.275-4.074M29.28 35.828c-.235-.265-.372-.582-.529-.9.15.557.454 1.035.737 1.522l-.208-.62m-1.048.04l-.095.481c.444.614.796 1.28 1.362 1.757-.407-.809-.71-1.143-1.266-2.238m5.524-22.109l-.254.054.236-.022.018-.032m-.718-.203c.36.065.778.116.718.204.395-.089.484-.169-.718-.204m7.514 16.908c.082-1.237-.24-.845-.347-.374.125.067.225.873.347.374m-1.336 3.542c.403-.565.695-1.183.799-1.822-.091.455-.333.848-.562 1.264-1.26.809-.12-.48 0-.97-1.356 1.739-.188 1.042-.237 1.528m-3.62.918c-.675.01.126.353 1.007.492.245-.194.464-.39.66-.58-.546.137-1.104.14-1.667.088M16.08 26.484c.212-.66.25-1.057.33-1.44-.583.76-.269.923-.33 1.44m1.078-4.585c.105.99-.731 1.375.185.721.492-1.128-.191-.311-.185-.721m16.014-8.672c.455-.17 1.12-.094 1.605-.205-.63.053-1.259.086-1.879.166l.274.039M47.83 31.723l-.099.254a12.377 12.377 0 0 1-1.176 3.82 12.198 12.198 0 0 0 1.275-4.074m-18.548 4.105c-.235-.264-.373-.583-.53-.899.15.557.455 1.036.738 1.523l-.208-.624m-1.048.042l-.095.481c.444.614.796 1.279 1.361 1.757-.407-.809-.709-1.143-1.266-2.238m5.523-22.11l-.253.055.236-.023.017-.031m10.06 17.22c.038 1.039-.291 1.543-.588 2.436l-.535.276c-.437.884.044.561-.27 1.263-.682.631-2.069 1.973-2.512 2.096-.325-.007.22-.398.29-.55-.913.651-.733.978-2.13 1.375l-.04-.095c-3.443 1.685-8.227-1.654-8.164-6.21-.036.289-.105.217-.18.333-.179-2.344 1.04-4.698 3.095-5.66 2.01-1.035 4.367-.611 5.806.786-.79-1.078-2.365-2.22-4.23-2.114-1.827.03-3.537 1.238-4.108 2.55-.935.613-1.045 2.363-1.452 2.684-.55 4.196 1.032 6.008 3.708 8.142.42.295.118.34.174.564-.888-.432-1.702-1.086-2.372-1.886.356.54.74 1.066 1.235 1.479-.839-.295-1.959-2.113-2.285-2.187 1.445 2.69 5.861 4.719 8.175 3.712-1.071.042-2.43.023-3.633-.44-.506-.27-1.192-.829-1.069-.933 3.157 1.225 6.416.927 9.147-1.35.695-.562 1.454-1.52 1.674-1.533-.33.517.056.249-.197.705.69-1.161-.302-.473.715-2.006l.375.538c-.14-.965 1.151-2.135 1.02-3.66.296-.466.33.502.016 1.575.436-1.19.115-1.381.227-2.364.12.33.28.681.361 1.03-.284-1.15.291-1.936.434-2.605-.141-.065-.439.508-.507-.85.01-.59.158-.309.215-.454-.111-.067-.403-.52-.58-1.386.127-.205.343.528.519.558-.113-.69-.307-1.215-.315-1.745-.513-1.113-.182.15-.597-.478-.546-1.769.452-.41.52-1.214.826 1.245 1.297 3.176 1.514 3.975a16.785 16.785 0 0 0-.758-2.833c.252.11-.405-2.005.327-.604-.784-2.986-3.342-5.776-5.696-7.085.288.274.652.618.522.672-1.172-.725-.966-.782-1.134-1.088-.954-.404-1.016.033-1.648.001-1.798-.992-2.144-.887-3.798-1.508l.075.366c-1.19-.412-1.388.156-2.675.001-.078-.063.413-.23.817-.29-1.151.157-1.098-.237-2.225.043.278-.203.572-.338.868-.51-.939.06-2.242.569-1.84.105-1.531.712-4.252 1.71-5.778 3.198l-.048-.333c-.7.873-3.05 2.608-3.238 3.74l-.187.045c-.364.641-.6 1.368-.888 2.027-.476.844-.698.325-.63.457-.936 1.975-1.402 3.633-1.804 4.995.286.445.007 2.68.115 4.467-.47 8.834 5.96 17.41 12.988 19.388 1.03.384 2.562.37 3.865.408-1.537-.457-1.735-.242-3.234-.785-1.08-.53-1.316-1.134-2.082-1.825l.303.557c-1.5-.552-.872-.683-2.093-1.085l.323-.44c-.484-.037-1.286-.851-1.506-1.303l-.532.022c-.64-.82-.98-1.412-.955-1.87l-.172.318c-.195-.347-2.352-3.077-1.233-2.442-.208-.197-.484-.32-.784-.888l.228-.27c-.538-.721-.992-1.645-.957-1.953.287.403.487.479.684.548-1.36-3.51-1.437-.193-2.466-3.573l.217-.018c-.167-.263-.269-.546-.403-.825l.095-.983c-.978-1.178-.273-5.008-.131-7.108.097-.854.817-1.764 1.363-3.19l-.333-.059c.637-1.156 3.638-4.643 5.029-4.464.673-.88-.134-.004-.266-.225 1.48-1.592 1.945-1.124 2.943-1.411 1.076-.664-.924.26-.414-.253 1.862-.494 1.319-1.124 3.747-1.375.256.151-.595.234-.808.43 1.55-.789 4.907-.609 7.088.438 2.528 1.23 5.371 4.865 5.483 8.284l.128.036c-.064 1.36.2 2.932-.26 4.376l.311-.684M33.04 13.56c.36.065.779.115.719.203.395-.089.484-.169-.719-.203m7.516 16.91c.082-1.238-.239-.846-.346-.375.125.067.225.873.346.375m-1.337 3.542c.403-.566.695-1.183.799-1.822-.091.455-.333.848-.562 1.263-1.26.81-.12-.48 0-.97-1.356 1.74-.188 1.043-.237 1.529m-3.62.919c-.674.009.127.353 1.008.491.244-.194.464-.389.66-.58-.547.137-1.105.14-1.668.089" opacity=".2"/>
    <path d="M16.078 25.484c.212-.66.25-1.057.33-1.44-.583.76-.268.923-.33 1.44m1.079-4.586c.105.99-.731 1.375.185.721.492-1.128-.191-.31-.185-.72m16.015-8.67c.455-.17 1.12-.094 1.605-.206-.63.054-1.259.086-1.879.166l.274.04m14.657 18.493l-.1.254a12.378 12.378 0 0 1-1.175 3.82 12.2 12.2 0 0 0 1.275-4.074M29.28 34.828c-.236-.264-.373-.582-.53-.9.15.557.455 1.035.738 1.523l-.208-.621m-1.048.04l-.095.482c.444.614.796 1.278 1.361 1.756-.407-.808-.709-1.142-1.266-2.238m5.524-22.109l-.253.054.236-.022.017-.032m-.718-.203c.36.066.778.116.718.204.396-.089.485-.169-.718-.204m7.514 16.908c.082-1.237-.239-.845-.347-.374.126.067.225.873.347.374m-1.336 3.542c.403-.565.696-1.182.799-1.822-.09.456-.332.849-.562 1.264-1.26.809-.119-.48 0-.97-1.356 1.739-.187 1.042-.237 1.528m-3.62.918c-.675.01.127.354 1.008.492.244-.194.463-.389.66-.58-.548.137-1.106.14-1.668.088M16.08 25.484c.212-.66.25-1.057.33-1.44-.583.76-.269.923-.33 1.44m1.078-4.585c.105.99-.731 1.375.185.721.492-1.128-.191-.311-.185-.721m16.014-8.672c.456-.17 1.12-.093 1.605-.205-.63.054-1.259.086-1.879.166l.274.039M47.83 30.723l-.099.254a12.377 12.377 0 0 1-1.176 3.82 12.198 12.198 0 0 0 1.275-4.074m-18.548 4.106c-.235-.265-.373-.583-.53-.9.15.557.455 1.036.738 1.523l-.208-.623m-1.048.04l-.095.482c.444.614.796 1.279 1.361 1.757-.407-.809-.709-1.143-1.266-2.238m5.524-22.11l-.254.055.236-.022.018-.032m10.06 17.22c.037 1.039-.292 1.543-.59 2.436l-.534.277c-.437.883.044.56-.27 1.262-.682.631-2.068 1.973-2.512 2.096-.325-.007.22-.398.29-.55-.913.651-.733.978-2.13 1.375l-.04-.095c-3.443 1.685-8.227-1.654-8.164-6.21-.036.29-.105.217-.18.333-.178-2.344 1.04-4.698 3.095-5.66 2.01-1.035 4.367-.611 5.806.786-.79-1.078-2.365-2.22-4.23-2.114-1.827.03-3.537 1.238-4.107 2.55-.936.613-1.045 2.363-1.453 2.684-.55 4.196 1.032 6.009 3.708 8.142.42.295.118.34.174.564-.888-.432-1.702-1.086-2.371-1.886.355.54.738 1.066 1.234 1.479-.839-.295-1.959-2.113-2.285-2.187 1.445 2.69 5.861 4.72 8.175 3.712-1.07.042-2.43.023-3.633-.439-.506-.27-1.192-.83-1.069-.934 3.157 1.226 6.416.928 9.147-1.35.695-.562 1.454-1.52 1.674-1.533-.33.517.056.249-.197.705.69-1.161-.302-.473.715-2.005l.375.537c-.14-.965 1.151-2.135 1.02-3.66.296-.466.33.502.016 1.575.436-1.19.115-1.381.227-2.363.12.33.28.68.362 1.029-.285-1.15.29-1.936.433-2.605-.141-.064-.438.508-.507-.85.01-.59.158-.309.215-.454-.11-.067-.403-.519-.58-1.386.127-.204.343.528.519.558-.113-.69-.307-1.215-.315-1.744-.513-1.114-.182.148-.597-.479-.545-1.768.452-.41.52-1.213.826 1.244 1.297 3.175 1.514 3.974a16.785 16.785 0 0 0-.758-2.833c.252.11-.405-2.005.327-.604-.784-2.986-3.342-5.776-5.696-7.085.288.274.652.618.522.672-1.172-.724-.966-.782-1.134-1.088-.954-.403-1.016.033-1.648.001-1.798-.992-2.144-.887-3.798-1.508l.075.366c-1.19-.412-1.388.156-2.674.001-.079-.063.412-.23.816-.29-1.151.157-1.098-.237-2.224.043.277-.203.571-.337.867-.51-.939.06-2.242.57-1.84.106-1.531.71-4.252 1.709-5.778 3.198l-.048-.334c-.7.873-3.05 2.608-3.238 3.74l-.187.045c-.363.641-.6 1.368-.888 2.027-.476.844-.698.325-.63.457-.936 1.975-1.402 3.634-1.804 4.995.287.445.008 2.68.115 4.468-.47 8.833 5.96 17.409 12.988 19.388 1.03.383 2.562.37 3.865.408-1.537-.458-1.735-.243-3.233-.786-1.08-.53-1.317-1.133-2.082-1.824l.303.556c-1.5-.552-.873-.683-2.094-1.085l.323-.44c-.484-.037-1.286-.851-1.506-1.303l-.532.022c-.639-.82-.98-1.412-.955-1.87l-.172.319c-.195-.348-2.352-3.078-1.233-2.442-.208-.197-.484-.322-.784-.889l.228-.27c-.538-.721-.992-1.645-.957-1.953.287.403.487.479.684.548-1.36-3.51-1.437-.193-2.466-3.573l.217-.018c-.166-.263-.269-.546-.402-.825l.095-.982c-.979-1.178-.274-5.008-.132-7.108.097-.854.817-1.764 1.363-3.19l-.333-.06c.637-1.155 3.638-4.643 5.029-4.464.673-.88-.134-.003-.266-.224 1.48-1.593 1.945-1.125 2.943-1.412 1.076-.664-.924.26-.414-.253 1.862-.494 1.319-1.124 3.747-1.375.256.151-.594.234-.808.43 1.55-.789 4.907-.609 7.088.438 2.528 1.23 5.371 4.865 5.483 8.284l.128.036c-.064 1.36.2 2.932-.259 4.376l.31-.684M33.04 12.56c.36.065.779.116.719.203.395-.088.484-.168-.719-.203m7.516 16.91c.083-1.238-.238-.846-.346-.375.125.068.225.873.346.375m-1.337 3.542c.403-.565.695-1.183.799-1.822-.091.455-.333.848-.562 1.264-1.26.808-.119-.48 0-.971-1.356 1.74-.188 1.043-.237 1.529m-3.62.919c-.674.009.127.353 1.008.491.244-.194.464-.389.66-.58-.547.137-1.105.14-1.668.089" fill="#F9F5D7"/>
    <path d="M31.998 4A28 28 0 0 0 4 32a28 28 0 0 0 .018.492A28 28 0 0 1 31.998 5H32a28 28 0 0 1 27.973 27.5 28 28 0 0 0 .025-.5A28 28 0 0 0 32 4h-.002z" opacity=".2" fill="#F9F5D7"/>
</svg>
