<svg xmlns="http://www.w3.org/2000/svg" width="64" height="64" version="1">
    <path d="M54.01 7.24l-29.95 6.905C19.84 14.677 20 19 20 19v18.43a11 11 0 0 0-3-.43c-6.075 0-11 4.925-11 11s4.925 11 11 11a11 11 0 0 0 10.95-10H28V21.316l22-5.232V31.43a11 11 0 0 0-3-.43c-6.075 0-11 4.925-11 11s4.925 11 11 11a11 11 0 0 0 10.95-10H58V11s.052-4.61-3.99-3.76z" opacity=".2"/>
    <path d="M54.01 6.24l-29.95 6.905C19.84 13.677 20 18 20 18v18.43a11 11 0 0 0-3-.43c-6.075 0-11 4.925-11 11s4.925 11 11 11a11 11 0 0 0 10.95-10H28V20.316l22-5.232V30.43a11 11 0 0 0-3-.43c-6.075 0-11 4.925-11 11s4.925 11 11 11a11 11 0 0 0 10.95-10H58V10s.052-4.61-3.99-3.76z" fill="#504945"/>
    <path d="M54.72 6.143a4.795 4.795 0 0 0-.708.097L24.06 13.145C19.839 13.677 20 18 20 18v1s-.161-4.323 4.06-4.855L54.013 7.24C58.053 6.39 58 11 58 11v-1s.045-4.052-3.28-3.857zM47 30c-6.075 0-11 4.925-11 11 0 .169.018.333.025.5C36.29 35.659 41.094 31 47 31c1.015.004 2.025.149 3 .43v-1a11 11 0 0 0-3-.43zm-30 6c-6.075 0-11 4.925-11 11 0 .169.018.333.025.5C6.29 41.659 11.094 37 17 37c1.015.004 2.025.149 3 .43v-1a11 11 0 0 0-3-.43z" opacity=".1" fill="#F9F5D7"/>
    <path d="M63.958 44.848A16 16 0 0 1 48 60a16 16 0 0 1-15.958-14.848A16 16 0 0 0 32 46a16 16 0 0 0 16 16 16 16 0 0 0 16-16 16 16 0 0 0-.043-1.152z" opacity=".2"/>
    <circle cx="48" cy="45" r="16" fill="#7CB668"/>
    <g fill="#F9F5D7">
        <path d="M48 41h2v12h-2zM52 37h2v16h-2zM44 45h2v8h-2zM40 49h2v4h-2z"/>
    </g>
</svg>
