<svg xmlns="http://www.w3.org/2000/svg" width="64" height="64" version="1">
    <rect width="56" height="56" x="4" y="5" rx="3" ry="3" opacity=".2"/>
    <rect width="56" height="56" x="4" y="4" rx="3" ry="3" fill="#066678"/>
    <path d="M7 4C5.338 4 4 5.338 4 7v1c0-1.662 1.338-3 3-3h50c1.662 0 3 1.338 3 3V7c0-1.662-1.338-3-3-3H7z" opacity=".2" fill="#F9F5D7"/>
    <path d="M54.001 13.3q0 2.74-4.693 7.433l-7.558 7.559 4.503 23.496.032.189q0 .44-.283.726l-2.018 2.014q-.283.283-.723.283-.663 0-.914-.566l-8.63-18.111L26 44.038q2.142 7.499 2.142 7.939 0 .44-.283.722l-2.016 2.018q-.284.283-.725.283-.567 0-.882-.506l-4.881-8.819-8.819-4.881Q10 40.511 10 39.911q0-.44.283-.723l2.016-2.047q.284-.283.725-.283T20.961 39l7.716-7.717-18.11-8.63Q10 22.402 10 21.74q0-.441.283-.725L12.299 19q.284-.283.725-.283.126 0 .189.031l23.496 4.504 7.558-7.559Q48.963 11 51.7 11q1.009 0 1.656.646.645.645.645 1.653z" fill="#066678"/>
    <path d="M54.001 12.3q0 2.74-4.693 7.433l-7.558 7.559 4.503 23.496.032.189q0 .44-.283.726l-2.018 2.014q-.283.283-.723.283-.663 0-.914-.566l-8.63-18.111L26 43.038q2.142 7.499 2.142 7.939 0 .44-.283.722l-2.016 2.018q-.284.283-.725.283-.567 0-.882-.506l-4.881-8.819-8.819-4.881Q10 39.511 10 38.911q0-.44.283-.723l2.016-2.047q.284-.283.725-.283T20.961 38l7.716-7.717-18.11-8.63Q10 21.402 10 20.74q0-.441.283-.725L12.299 18q.284-.283.725-.283.126 0 .189.031l23.496 4.504 7.558-7.559Q48.963 10 51.7 10q1.009 0 1.656.646.645.645.645 1.653z" fill="#F9F5D7"/>
</svg>
