<svg xmlns="http://www.w3.org/2000/svg" width="64" height="64" version="1">
    <circle cx="32" cy="33" r="29" opacity=".2"/>
    <circle cx="32" cy="32" r="29" fill="#504945"/>
    <path d="M32 10A23 23 0 0 0 9 33a23 23 0 0 0 23 23 23 23 0 0 0 22.773-20h6.067a29 29 0 0 0 .16-3 29 29 0 0 0-.188-3H43v6h5.719A17 17 0 0 1 32 50a17 17 0 0 1-17-17 17 17 0 0 1 17-17h15.465A23 23 0 0 0 32 10z" opacity=".2"/>
    <path d="M32 9A23 23 0 0 0 9 32a23 23 0 0 0 23 23 23 23 0 0 0 22.773-20h6.067a29 29 0 0 0 .16-3 29 29 0 0 0-.188-3H43v6h5.719A17 17 0 0 1 32 49a17 17 0 0 1-17-17 17 17 0 0 1 17-17h15.465A23 23 0 0 0 32 9z" fill="#CB8819"/>
    <path d="M32 22a11 11 0 0 0-11 11 11 11 0 0 0 11 11 11 11 0 0 0 5-1.215V44h6V22h-6v1.203A11 11 0 0 0 32 22zm0 6a5 5 0 0 1 5 5 5 5 0 0 1-5 5 5 5 0 0 1-5-5 5 5 0 0 1 5-5z" opacity=".2"/>
    <path d="M32 21a11 11 0 0 0-11 11 11 11 0 0 0 11 11 11 11 0 0 0 5-1.215V43h6V21h-6v1.203A11 11 0 0 0 32 21zm0 6a5 5 0 0 1 5 5 5 5 0 0 1-5 5 5 5 0 0 1-5-5 5 5 0 0 1 5-5z" fill="#F9F5D7"/>
    <path d="M32 3A29 29 0 0 0 3 32a29 29 0 0 0 .018.488A29 29 0 0 1 32 4a29 29 0 0 1 28.975 28.494A29 29 0 0 0 61 32 29 29 0 0 0 32 3z" opacity=".1" fill="#F9F5D7"/>
    <path d="M32 9A23 23 0 0 0 9 32a23 23 0 0 0 .021.406A23 23 0 0 1 32 10a23 23 0 0 1 14.25 5h1.215A23 23 0 0 0 32 9zm11 20v1H60.813a29 29 0 0 1 .16 2.549A29 29 0 0 0 61 32a29 29 0 0 0-.188-3H43zm-27.957 4.172A17 17 0 0 0 15 34a17 17 0 0 0 .025.512 17 17 0 0 1 .018-.34A17 17 0 0 0 32 50a17 17 0 0 0 16.219-12h.271a17 17 0 0 0 .229-1h-.5A17 17 0 0 1 32 49a17 17 0 0 1-16.957-15.828z" opacity=".2" fill="#F9F5D7"/>
</svg>
