<svg xmlns="http://www.w3.org/2000/svg" width="64" height="64" version="1">
    <rect width="56" height="44" x="-60" y="11" rx="2.8" ry="2.75" transform="scale(-1 1)" opacity=".2"/>
    <rect width="56" height="44" x="-60" y="10" rx="2.8" ry="2.75" transform="scale(-1 1)" fill="#F9BD2E"/>
    <circle cx="16" cy="39" r="8" opacity=".2"/>
    <circle cx="16" cy="38" r="8" fill="#F15C22"/>
    <path fill="#504945" d="M8 14h48v10H8z"/>
    <path fill="#F15C22" d="M26 16v8h-6v-8z"/>
    <path d="M37 28a3 3 0 0 0-3 3 3 3 0 0 0 3 3 3 3 0 0 0 3-3 3 3 0 0 0-3-3zm8 0a3 3 0 0 0-3 3 3 3 0 0 0 3 3 3 3 0 0 0 3-3 3 3 0 0 0-3-3zm8 0a3 3 0 0 0-3 3 3 3 0 0 0 3 3 3 3 0 0 0 3-3 3 3 0 0 0-3-3zm-16 8a3 3 0 0 0-3 3 3 3 0 0 0 3 3 3 3 0 0 0 3-3 3 3 0 0 0-3-3zm8 0a3 3 0 0 0-3 3 3 3 0 0 0 3 3 3 3 0 0 0 3-3 3 3 0 0 0-3-3zm8 0a3 3 0 0 0-3 3 3 3 0 0 0 3 3 3 3 0 0 0 3-3 3 3 0 0 0-3-3zm-16 8a3 3 0 0 0-3 3 3 3 0 0 0 3 3 3 3 0 0 0 3-3 3 3 0 0 0-3-3zm8 0a3 3 0 0 0-3 3 3 3 0 0 0 3 3 3 3 0 0 0 3-3 3 3 0 0 0-3-3zm8 0a3 3 0 0 0-3 3 3 3 0 0 0 3 3 3 3 0 0 0 3-3 3 3 0 0 0-3-3z" fill="#504945"/>
    <path d="M6.8 10C5.25 10 4 11.226 4 12.75v1C4 12.226 5.25 11 6.8 11h50.4c1.55 0 2.8 1.226 2.8 2.75v-1c0-1.524-1.25-2.75-2.8-2.75H6.8z" opacity=".2" fill="#F9F5D7"/>
</svg>
