<svg xmlns="http://www.w3.org/2000/svg" width="64" height="64" version="1">
    <circle cx="32" cy="33" r="28" opacity=".2"/>
    <circle cx="32" cy="32" r="28" fill="#066678"/>
    <path d="M53.837 20.998c-.112-.064-.23-.121-.341-.181a17.112 17.112 0 0 0-5.994-1.735 16.965 16.965 0 0 0-10.467 2.377 17.055 17.055 0 0 0-7.022-2.294 16.936 16.936 0 0 0-9.81 2.002c-.028.014-.057.033-.085.05a.317.317 0 0 0-.118.246c0 .174.134.316.301.316.018 0 .034-.004.05-.004.007-.004.014-.004.02-.004a16.877 16.877 0 0 1 4.87-.224c4.678.46 8.753 1.96 11.614 5.337.148.16.28.152.431-.008 3.6-4.34 9.114-6.053 15.042-5.472.33.033.658.076.98.13.113.015.287.044.389.055.196.025.303-.139.303-.313 0-.12-.05-.22-.163-.278z" opacity=".2" fill-rule="evenodd"/>
    <path d="M53.837 19.998c-.112-.064-.23-.121-.341-.181a17.112 17.112 0 0 0-5.994-1.735 16.965 16.965 0 0 0-10.467 2.377 17.055 17.055 0 0 0-7.022-2.294 16.936 16.936 0 0 0-9.81 2.002c-.028.014-.057.033-.085.05a.317.317 0 0 0-.118.246c0 .174.134.316.301.316.018 0 .034-.004.05-.004.007-.004.014-.004.02-.004a16.877 16.877 0 0 1 4.87-.224c4.678.46 8.753 1.96 11.614 5.337.148.16.28.152.431-.008 3.6-4.34 9.114-6.053 15.042-5.472.33.033.658.076.98.13.113.015.287.044.389.055.196.025.303-.139.303-.313 0-.12-.05-.22-.163-.278z" fill="#F9F5D7" fill-rule="evenodd"/>
    <path d="M44.62 35c-6.272 0-12.079 1.96-16.825 5.296a29.242 29.242 0 0 0-11.868-2.497c-2.638 0-5.194.35-7.623 1.001.018.084-.019-.083 0 0-2.987.928-5.668 2.538-8.1 4.26l-.047.032a.422.422 0 0 0-.146.426.428.428 0 0 0 .516.314c.009-.002.402-.124.59-.18.652-.2 1.32-.38 1.992-.536 2.072-.478 4.13-.876 6.166-.891 6.491-.049 14.584 2.656 19.03 6.637.01.012.025.023.038.032a.427.427 0 0 0 .61-.05c.002-.001.167-.232.25-.344C34.487 41.38 43.196 37.87 52.89 37.87c.69 0 1.382.024 2.061.072.197.013.61.045.618.045.239 0 .432-.19.432-.423a.425.425 0 0 0-.243-.38l-.051-.022A29.257 29.257 0 0 0 44.62 35z" opacity=".2" fill-rule="evenodd"/>
    <path d="M44.62 34c-6.272 0-12.079 1.96-16.825 5.296a29.242 29.242 0 0 0-11.868-2.497c-2.638 0-5.194.35-7.623 1.001.018.084-.019-.083 0 0-2.987.928-5.668 2.538-8.1 4.26l-.047.032a.422.422 0 0 0-.146.426.428.428 0 0 0 .516.314c.009-.002.402-.124.59-.18.652-.2 1.32-.38 1.992-.536 2.072-.478 4.13-.876 6.166-.891 6.491-.049 14.584 2.656 19.03 6.637.01.012.025.023.038.032a.427.427 0 0 0 .61-.05c.002-.001.167-.232.25-.344C34.487 40.38 43.196 36.87 52.89 36.87c.69 0 1.382.024 2.061.072.197.013.61.045.618.045.239 0 .432-.19.432-.423a.425.425 0 0 0-.243-.38l-.051-.022A29.257 29.257 0 0 0 44.62 34z" fill="#F9F5D7" fill-rule="evenodd"/>
    <path d="M32 4A28 28 0 0 0 4 32a28 28 0 0 0 .018.492A28 28 0 0 1 32 5a28 28 0 0 1 27.975 27.492A28 28 0 0 0 60 32 28 28 0 0 0 32 4z" opacity=".2" fill="#F9F5D7"/>
</svg>
