<svg xmlns="http://www.w3.org/2000/svg" width="64" height="64" version="1">
    <path d="M16 51.376v2C16 54.83 17.19 56 18.668 56h26.664C46.81 56 48 54.83 48 53.376v-2C48 52.83 46.81 54 45.332 54H18.668C17.191 54 16 52.83 16 51.376z" opacity=".2"/>
    <rect width="42" height="32" x="-55" y="-48" rx="2.626" ry="2.666" transform="matrix(0 -1 -1 0 0 0)" fill="#665C54"/>
    <path d="M6 45.5v2C6 48.884 7.162 50 8.602 50h46.796C56.838 50 58 48.884 58 47.5v-2c0 1.384-1.162 2.5-2.602 2.5H8.602C7.162 48 6 46.884 6 45.5z" opacity=".2"/>
    <rect width="40" height="52" x="-49" y="-58" rx="2.5" ry="2.6" transform="matrix(0 -1 -1 0 0 0)" fill="#928274"/>
    <rect width="32" height="44" x="-45" y="-54" rx="0" ry="0" transform="matrix(0 -1 -1 0 0 0)" fill="#F9F5D7"/>
    <path d="M8.602 9C7.162 9 6 10.115 6 11.5v1C6 11.115 7.161 10 8.602 10h46.796C56.838 10 58 11.115 58 12.5v-1c0-1.385-1.162-2.5-2.602-2.5H8.602z" opacity=".2" fill="#F9F5D7"/>
    <path opacity=".1" d="M10 45h44v1H10z"/>
    <path d="M32 16a13 13 0 0 0-4.398.78c7.44 4.838 11.366 12.16 14.529 20.348A13 13 0 0 0 45 29a13 13 0 0 0-13-13z" fill="#8F3F71"/>
    <path d="M23.641 19.06A13 13 0 0 0 19 29a13 13 0 0 0 3.226 8.557l.47-.92 2.918 1.49c.242.878.291 1.631.188 2.286A13 13 0 0 0 32 42a13 13 0 0 0 6.395-1.7c-1.123-7.669-6.606-16.796-14.754-21.24z" fill="#CB241D"/>
    <path d="M27.752 17.73a13 13 0 0 0-4.28 2.479c2.369 1.152 4.666 2.931 6.665 5.084-2.694 2.707-5.856 7.504-7.682 12.514a13 13 0 0 0 3.629 2.754c1.17-4.62 3.822-9.49 6.45-12.32 2.455 3.444 4.42 7.676 5.542 12.241a13 13 0 0 0 3.938-3.199c-2.606-8.13-9.182-16.798-14.262-19.553z" opacity=".2"/>
    <path d="M27.752 16.73a13 13 0 0 0-4.28 2.48c2.369 1.152 4.667 2.93 6.666 5.083-2.82 2.833-6.171 7.953-7.946 13.214a13 13 0 0 0 3.665 2.944c1.032-4.873 3.88-10.197 6.676-13.21 2.613 3.665 4.684 8.217 5.76 13.117a13 13 0 0 0 3.947-3.374c-2.44-8.326-9.262-17.42-14.488-20.254z" fill="#F9F5D7"/>
</svg>
