<svg xmlns="http://www.w3.org/2000/svg" width="64" height="64" version="1">
    <rect width="56" height="56" x="4" y="5" rx="2.8" ry="2.8" opacity=".2"/>
    <rect width="56" height="56" x="4" y="4" rx="2.8" ry="2.8" fill="#504945"/>
    <path d="M18 12v12.2c0-1.4 3.478-3.868 5.602-4.2H30v25l-3 4h12l-3-4V26.5c1.158-8.184 4.061-10.045 9.93-11.5H20.375zm-5 15l3 4v17.8L13 53h14l-3-4.2V31l3-4zm26 0l3 4v17.8L39 53h14l-3-4.2V31l3-4z" opacity=".2"/>
    <path d="M18 11v12.2c0-1.4 3.45-4.2 5.6-4.2H30v25l-3 4h12l-3-4V25.501c1.158-8.184 4.06-10.046 9.929-11.501H20.375z" fill="#FD8019"/>
    <path d="M13 26h14l-3 4v17.8l3 4.2H13l3-4.2V30zM39 26h14l-3 4v17.8l3 4.2H39l3-4.2V30z" fill="#066678"/>
    <path d="M6.8 4C5.25 4 4 5.25 4 6.8v1C4 6.25 5.25 5 6.8 5h50.4C58.75 5 60 6.25 60 7.8v-1C60 5.25 58.75 4 57.2 4H6.8zM18 11v1l2.375 3h22.318c.964-.383 2.035-.702 3.237-1H20.375L18 11zm-5 15l.75 1h12.5l.75-1H13zm26 0l.75 1h12.5l.75-1H39zm-9 18l-3 4h.75L30 45v-1zm6 0v1l2.25 3H39l-3-4zm-20 3.8L13 52h.715L16 48.8v-1zm8 0v1l2.285 3.2H27l-3-4.2zm18 0L39 52h.715L42 48.8v-1zm8 0v1l2.285 3.2H53l-3-4.2z" opacity=".1" fill="#F9F5D7"/>
</svg>
