<svg xmlns="http://www.w3.org/2000/svg" width="64" height="64">
    <path d="M7.007 22.341V33c0 2.366-.188 6.439 1.37 8.334 2.59 4.342 8.144 13.738 10.275 18.039.696 1.286 2.24 1.627 4.187 1.627H41.16c1.949 0 3.492-.34 4.188-1.627 2.131-4.301 7.684-13.697 10.275-18.039 1.558-1.895 1.37-5.968 1.37-8.334V22.341C56.993 13.4 45.885 5 32 5 18.115 5 7.007 13.4 7.007 22.341z" opacity=".2"/>
    <path d="M7.007 21.341V32c0 2.366-.188 6.439 1.37 8.334 2.59 4.342 8.144 13.738 10.275 18.039.696 1.286 2.24 1.627 4.187 1.627H41.16c1.949 0 3.492-.34 4.188-1.627 2.131-4.301 7.684-13.697 10.275-18.039 1.558-1.895 1.37-5.968 1.37-8.334V21.341C56.993 12.4 45.885 4 32 4 18.115 4 7.007 12.4 7.007 21.341z" fill="#7B6F64"/>
    <path d="M10.5 30.953c-1.62.01-3.24.035-3.492.073v1.375c0 2.366-.19 6.038 1.367 7.933 2.592 4.342 8.145 13.738 10.276 18.039.695 1.286 2.24 1.627 4.188 1.627H41.16c1.949 0 3.494-.34 4.19-1.627 2.13-4.301 7.683-13.697 10.275-18.039 1.558-1.895 1.367-5.567 1.367-7.933v-1.375c-.291 0-6.09-.04-6.345-.026-5.647-.047-5.411 1.97-7.735 5.601-2.18 3.765-2.19 9.462-3.279 12.199C38.1 43.517 38.944 32 32 32s-6.1 11.517-7.633 16.8c-1.09-2.737-.499-8.434-2.679-12.199-1.51-2.557-4.013-5.433-7.324-5.643-.223-.014-2.241-.017-3.865-.005z" opacity=".2"/>
    <path d="M22.84 60h18.32l-1.527-11.2C38.1 43.517 38.944 33.4 32 33.4s-6.1 10.117-7.633 15.4z" opacity=".15"/>
    <path d="M13 29v3c4.139-.648 6.049 4.689 7.756 7.662C22.353 42.443 24.367 50 24.367 50c1.533-5.283.689-15 7.633-15s6.1 9.717 7.633 15c0 0 2.014-7.557 3.611-10.338C44.951 36.69 46.861 31.352 51 32v-3H13z" opacity=".2"/>
    <path d="M13 28v3c4.139-.648 6.049 4.689 7.756 7.662C22.353 41.443 24.367 49 24.367 49c1.533-5.283.689-15 7.633-15s6.1 9.717 7.633 15c0 0 2.014-7.557 3.611-10.338C44.951 35.69 46.861 30.352 51 31v-3H13z" fill="#48B9C7"/>
    <path d="M32 4C18.115 4 7.008 12.398 7.008 21.34v1C7.008 13.398 18.115 5 32 5c13.885 0 24.992 8.398 24.992 17.34v-1C56.992 12.398 45.885 4 32 4zM13 28v1h38v-1H13z" opacity=".1" fill="#F9F5D7"/>
</svg>
