<svg height="48" width="48" xmlns="http://www.w3.org/2000/svg"><path d="m44.322082 27.405077a19.729762 19.729765 0 0 1 -19.729762 19.729765 19.729762 19.729765 0 0 1 -19.7297621-19.729765 19.729762 19.729765 0 0 1 19.7297621-19.7297632 19.729762 19.729765 0 0 1 19.729762 19.7297632z" fill="#6c5353" opacity=".99" transform="matrix(1.1503549 0 0 1.1503549 -4.486125 -7.525565)"/><g fill="#fff"><path d="m9 18v19.5l10.5-3 10.5 3 10.5-3v-19.5l-10.5 3-10.5-3z" fill-opacity=".425926"/><path d="m19.5 15-10.5 3v19.5l10.5-3m10.5 3 10.5-3v-19.5l-10.5 3"/><path d="m25.2 24s-.765828-2.82359-2.341274-5.929695c-1.121937-2.211979-3.270536-6.189026-3.058726-7.661295.509239-3.5396595 2.634137-4.70901 5.4-4.70901s4.890761 1.1693505 5.4 4.70901c.212144 1.474589-1.845874 5.394141-2.970281 7.60925-1.574662 3.102123-2.429719 5.98174-2.429719 5.98174z"/></g></svg>