<?xml version="1.0" encoding="UTF-8" standalone="no"?>
<svg
   xmlns:dc="http://purl.org/dc/elements/1.1/"
   xmlns:cc="http://creativecommons.org/ns#"
   xmlns:rdf="http://www.w3.org/1999/02/22-rdf-syntax-ns#"
   xmlns:svg="http://www.w3.org/2000/svg"
   xmlns="http://www.w3.org/2000/svg"
   xmlns:sodipodi="http://sodipodi.sourceforge.net/DTD/sodipodi-0.dtd"
   xmlns:inkscape="http://www.inkscape.org/namespaces/inkscape"
   width="100%"
   height="100%"
   viewBox="0 0 1024 1024"
   version="1.1"
   xml:space="preserve"
   style="fill-rule:evenodd;clip-rule:evenodd;stroke-linecap:round;stroke-linejoin:round;stroke-miterlimit:1.5;"
   id="svg28"
   sodipodi:docname="simplescreenrecorder.svg"
   inkscape:version="0.92.1 r15371"><metadata
     id="metadata34"><rdf:RDF><cc:Work
         rdf:about=""><dc:format>image/svg+xml</dc:format><dc:type
           rdf:resource="http://purl.org/dc/dcmitype/StillImage" /><dc:title></dc:title></cc:Work></rdf:RDF></metadata><defs
     id="defs32" /><sodipodi:namedview
     pagecolor="#ffffff"
     bordercolor="#666666"
     borderopacity="1"
     objecttolerance="10"
     gridtolerance="10"
     guidetolerance="10"
     inkscape:pageopacity="0"
     inkscape:pageshadow="2"
     inkscape:window-width="1920"
     inkscape:window-height="1040"
     id="namedview30"
     showgrid="false"
     inkscape:zoom="0.23046875"
     inkscape:cx="512"
     inkscape:cy="512"
     inkscape:window-x="0"
     inkscape:window-y="0"
     inkscape:window-maximized="1"
     inkscape:current-layer="svg28" /><clipPath
     id="_clip1"><rect
       x="507.91"
       y="595.281"
       width="77.683"
       height="139.869"
       id="rect8" /></clipPath><clipPath
     id="_clip2"><rect
       x="438.407"
       y="595.281"
       width="73.593"
       height="139.869"
       id="rect15" /></clipPath><g
     id="g4521"
     transform="matrix(1.0831082,0,0,1.0831082,-53.398873,-44.720908)"><circle
       id="circle2"
       style="fill:#e5e5e5"
       r="443.77499"
       cy="512"
       cx="512" /><path
       id="path4"
       style="fill:#ffffff"
       d="m 741.486,356.01 c 0,-4.795 -3.887,-8.682 -8.682,-8.682 -57.598,0 -384.01,0 -441.608,0 -4.795,0 -8.682,3.887 -8.682,8.682 0,46.037 0,261.224 0,307.261 0,4.796 3.887,8.683 8.682,8.683 57.598,0 384.01,0 441.608,0 4.795,0 8.682,-3.887 8.682,-8.683 0,-46.037 0,-261.224 0,-307.261 z"
       inkscape:connector-curvature="0" /><path
       id="path6"
       style="fill:#ffffff"
       d="m 601.586,730.14 c 0,-2.373 -0.943,-4.649 -2.621,-6.327 -1.678,-1.678 -3.953,-2.621 -6.327,-2.621 -30.575,0 -130.701,0 -161.276,0 -2.374,0 -4.649,0.943 -6.327,2.621 -1.678,1.678 -2.621,3.954 -2.621,6.327 0,3.365 0,7.189 0,10.554 0,2.373 0.943,4.649 2.621,6.327 1.678,1.678 3.953,2.621 6.327,2.621 30.575,0 130.701,0 161.276,0 2.374,0 4.649,-0.943 6.327,-2.621 1.678,-1.678 2.621,-3.954 2.621,-6.327 0,-3.365 0,-7.189 0,-10.554 z"
       inkscape:connector-curvature="0" /><g
       id="g13"
       clip-path="url(#_clip1)"><path
         id="path11"
         style="fill:#ffffff"
         d="m 570.525,595.281 h -117.05 l 40.991,134.944 82.699,5.192 8.428,-14.225 c 0,0 -9.727,-4.299 -12.585,-8.477 -2.601,-3.802 -2.386,-10.363 -2.386,-10.363 z"
         inkscape:connector-curvature="0" /></g><g
       id="g20"
       clip-path="url(#_clip2)"><path
         id="path18"
         style="fill:#ffffff"
         d="m 453.475,595.281 h 117.05 l -27.13,140.136 -99.661,2.165 -5.327,-16.39 c 0,0 9.727,-4.299 12.585,-8.477 2.601,-3.802 2.386,-10.363 2.386,-10.363 z"
         inkscape:connector-curvature="0" /></g><rect
       id="rect22"
       style="fill:#f39094"
       height="267.69501"
       width="404.487"
       y="371.91"
       x="309.75601" /><path
       id="path24"
       style="fill:none;stroke:#ffffff;stroke-width:10.26000023px;stroke-dasharray:36.54, 31.79, 0, 0"
       d="m 336.644,604.786 c 0,2.303 0.915,4.511 2.543,6.14 1.628,1.628 3.837,2.543 6.139,2.543 h 333.348 c 2.302,0 4.511,-0.915 6.139,-2.543 1.628,-1.629 2.543,-3.837 2.543,-6.14 V 406.73 c 0,-2.303 -0.915,-4.511 -2.543,-6.14 -1.628,-1.628 -3.837,-2.543 -6.139,-2.543 H 345.326 c -2.302,0 -4.511,0.915 -6.139,2.543 -1.628,1.629 -2.543,3.837 -2.543,6.14 z"
       inkscape:connector-curvature="0" /><circle
       id="circle26"
       style="fill:#ffffff"
       r="44.646"
       cy="508.30899"
       cx="512" /></g></svg>