<svg xmlns="http://www.w3.org/2000/svg" width="64" height="64" version="1">
    <rect width="56" height="44" x="-61" y="-54" rx="2.8" ry="2.75" transform="matrix(0 -1 -1 0 0 0)" opacity=".2"/>
    <rect width="56" height="44" x="-60" y="-54" rx="2.8" ry="2.75" transform="matrix(0 -1 -1 0 0 0)" fill="#928274"/>
    <path d="M12.75 4C11.226 4 10 5.25 10 6.8v1C10 6.25 11.226 5 12.75 5h38.5C52.773 5 54 6.25 54 7.8v-1C54 5.25 52.773 4 51.25 4h-38.5z" opacity=".2" fill="#F9F5D7"/>
    <path d="M16.412 16.998l2.562 9.562 9.562-2.562-3.464-2A8 8 0 1 1 28 32.926a8 8 0 0 1-2.932-2.95l-5.902 1.582A14 14 0 0 0 25 38.122c6.696 3.866 15.258 1.572 19.124-5.124C47.99 26.302 45.696 17.739 39 13.873c-6.696-3.866-15.258-1.571-19.124 5.125z" opacity=".5"/>
</svg>
