<svg xmlns="http://www.w3.org/2000/svg" width="64" height="64" version="1">
    <path d="M4.05 32c-.011.334-.05.662-.05 1 0 15.512 12.488 28 28 28 15.511 0 28-12.488 28-28 0-.337-.04-.665-.052-1-.528 15.042-12.775 27-27.95 27C16.826 59 4.579 47.042 4.05 32z" opacity=".2"/>
    <rect width="56" height="56" x="4" y="4" rx="28" ry="28" fill="#FD8019"/>
    <path d="M51.997 26.936C48.25 11.092 33.854 11.224 25.162 15.361 16.015 19.985 9.39 31.832 13.003 41.754c5.584 14.968 26.138 14.744 33.094.824 2.064-5.103 3.58-8.727-2.098-13.577v6l-2-4s-1.775 4.196-3.66 6.11c-2.625 2.661-6.34 1.89-6.34 1.89.7 2.65 6 4 6 4-13.755 6.51-14.158-4.37-14-7 .45-7.57 6.536-13.443 14.553-13.022 2.556.196 7.446 2.022 7.446 2.022-1.84-4.21-4.46-5.212-6-6 6.036-1.996 9.258 4.306 12 7.934z" opacity=".2" fill-rule="evenodd"/>
    <path d="M51.997 25.937C48.25 10.092 33.854 10.224 25.162 14.36 16.015 18.984 9.39 30.832 13.003 40.755c5.584 14.967 26.138 14.743 33.094.823 2.064-5.103 3.58-8.727-2.098-13.577v6l-2-4s-1.775 4.196-3.66 6.11c-2.625 2.661-6.34 1.89-6.34 1.89.7 2.65 6 4 6 4-13.755 6.51-14.158-4.37-14-7 .45-7.57 6.536-13.443 14.553-13.022 2.556.196 7.446 2.022 7.446 2.022-1.84-4.21-4.46-5.212-6-6 6.036-1.996 9.258 4.306 12 7.935z" fill="#F9F5D7" fill-rule="evenodd"/>
    <path d="M32 4C16.488 4 4 16.488 4 32c0 .114.011.224.018.336C4.369 17.134 16.71 5 32 5c15.29 0 27.63 12.134 27.982 27.336.007-.112.018-.222.018-.336C60 16.488 47.512 4 32 4z" opacity=".2" fill="#F9F5D7"/>
</svg>
