<svg xmlns="http://www.w3.org/2000/svg" xmlns:xlink="http://www.w3.org/1999/xlink" width="64" height="64" version="1">
    <defs>
        <linearGradient id="a">
            <stop offset="0" stop-color="#8F3F71"/>
            <stop offset="1" stop-color="#8F3F71"/>
        </linearGradient>
        <linearGradient id="b" x1="30.577" x2="45" y1="19.129" y2="27.456" gradientTransform="matrix(1.41176 0 0 1.33333 -1.53 0)" gradientUnits="userSpaceOnUse" xlink:href="#a"/>
    </defs>
    <path d="M23.6 31.892c-2.846 8.8-8.283 18.563-19.6 16.927.748-7.36 3.804-14.771 8.12-20.718.91-1.254 2.788-1.81 3.565-2.9z" opacity=".2"/>
    <path d="M28.038 5C21.314 5.1 7.85 16.076 6.18 29.276c-.48 3.8.013 7.848 1.258 11.629.688 11.866 16.269 19.446 26 20.09 11.905.28 23.025-9.85 25.21-12.568 3.996-5.91-1.66-18.65-6.707-26.07C46.405 14.217 36.082 8.288 28.038 5z" opacity=".2"/>
    <path d="M23.6 30.892c-2.846 8.8-8.283 18.563-19.6 16.927.748-7.36 3.804-14.771 8.12-20.718.91-1.254 2.788-1.81 3.565-2.9z" fill="#8F3F71"/>
    <path d="M28.038 4C21.314 4.1 7.85 15.076 6.18 28.276c-.48 3.8.013 7.848 1.258 11.629.688 11.866 16.269 19.446 26 20.09 11.905.28 23.025-9.85 25.21-12.568 3.996-5.91-1.66-18.65-6.707-26.07C46.405 13.217 36.082 7.288 28.038 4z" fill="#8F3F71"/>
    <path d="M28.037 4c-6.724.1-20.186 11.075-21.855 24.275a23.663 23.663 0 0 0-.168 3.436c.016-.82.066-1.633.168-2.436C7.85 16.075 21.313 5.1 28.037 5c8.044 3.287 18.367 9.215 23.904 17.357 3.724 5.475 7.77 13.842 8.034 20.229.16-6.49-4.111-15.461-8.034-21.229C46.404 13.215 36.081 7.287 28.037 4z" opacity=".1" fill="#F9F5D7"/>
    <ellipse cx="-18.045" cy="43.13" rx="9.587" ry="12.251" transform="matrix(.67816 -.73491 .72426 .68952 0 0)" fill="#F9F5D7"/>
    <path d="M44.748 21c8.874 2.904 18.72 8.452 17.07 20-7.423-.764-14.896-3.882-20.893-8.286-1.264-.929-1.824-2.845-2.925-3.637z" opacity=".2"/>
    <path d="M44.748 20c8.874 2.904 18.72 8.452 17.07 20-7.423-.764-14.896-3.882-20.893-8.286-1.264-.929-1.824-2.845-2.925-3.637z" fill="url(#b)"/>
    <path d="M24 31c1.39 6.034-10.594 12.256-16.607 9.84-2.894-1.163-3.387-5.591-3.265-9.056.123-3.068-.185-4.003 2.887-4.296C12.833 26.95 23.389 28.35 24 31z" opacity=".2"/>
    <path d="M23.889 29.626c1.39 6.034-10.595 12.256-16.607 9.84-2.894-1.163-3.387-5.591-3.265-9.056.123-3.068-.185-4.003 2.887-4.296 5.818-.539 16.374.861 16.985 3.512z" fill="#F9BD2E"/>
    <circle cx="-8" cy="23" r="6" transform="scale(-1 1)" opacity=".2"/>
    <circle cx="-21" cy="22" r="9" transform="scale(-1 1)" opacity=".2"/>
    <circle cx="-8" cy="22" r="6" transform="scale(-1 1)" fill="#F9F5D7"/>
    <circle cx="-21" cy="21" r="9" transform="scale(-1 1)" fill="#F9F5D7"/>
    <circle cx="-18" cy="22" r="4" transform="scale(-1 1)" fill="#3A393A"/>
    <circle cx="-7" cy="22" r="3" transform="scale(-1 1)" fill="#3A393A"/>
</svg>
