<svg xmlns="http://www.w3.org/2000/svg" width="64" height="64" version="1">
    <path d="M4 51.124v2C4 54.718 5.25 56 6.8 56h50.4c1.55 0 2.8-1.282 2.8-2.876v-2C60 52.718 58.75 54 57.2 54H6.8C5.25 54 4 52.718 4 51.124z" opacity=".2"/>
    <rect width="45.999" height="56" x="-55" y="-60" rx="2.876" ry="2.8" transform="matrix(0 -1 -1 0 0 0)" fill="#F9F5D7"/>
    <path d="M14.668 19C13.19 19 12 20.118 12 21.5v21c0 1.384 1.19 2.5 2.668 2.5H49.33C50.81 45 52 43.884 52 42.5v-21c0-1.383-1.19-2.5-2.668-2.5H14.668z" fill="#504945"/>
    <path d="M6.8 9C5.25 9 4 10.282 4 11.875v1.002c0-1.593 1.25-2.875 2.8-2.875h50.4c1.55 0 2.8 1.282 2.8 2.875v-1.002C60 10.282 58.75 9 57.2 9H6.8z" opacity=".2" fill="#F9F5D7"/>
</svg>
