<svg xmlns="http://www.w3.org/2000/svg" width="64" height="64" version="1">
    <path d="M46.103 16.452c3.827 3.827 5.227 10.032 1.4 13.86a9.668 9.668 0 0 1-3.502 2.252v25.043l-.23.195L40.001 61l-3.766-3.198-.272-.195v-2.85l-.061-1.012-2.919-3.614 2.98-3.397v-2.827l-2.945-3.641 2.945-2.612.076-5.09c-1.327-.487-2.793-1.255-3.795-2.252-3.827-3.828-3.827-10.033 0-13.86 1.813-1.812.534 7.25 3.097 7.223l2.312-.95c2.56.027 6.638-8.08 8.45-6.273zm-6.472 8.583c-1.64-1.64-1.298-5.33-2.938-3.69-1.64 1.64-2.13-.593-.49 1.047a4.2 4.2 0 0 0 5.94 0c1.64-1.64-.872 4.284-2.512 2.643z" opacity=".2"/>
    <path d="M44.871 20.786c0 5.412-3.397 10.79-8.81 10.79a9.668 9.668 0 0 1-4.069-.884L14.284 49l-.3-.024L8 49l.027-4.953-.054-.33 3.44-3.015.673-.76L12.001 35l4.288.028L18.001 33v-4h4l4.361-3.937c-.594-1.283-1.087-2.863-1.09-4.277 0-5.412 4.387-9.8 9.8-9.8 2.563 0-4.75 5.504-2.918 7.297l2.306.964c1.791 1.828 10.408-1.02 10.411 1.539zm-10.646 1.492c0-2.32 2.852-4.686.533-4.686-2.32 0-1.087-1.926-1.087.394a4.2 4.2 0 0 0 4.2 4.2c2.32 0-3.646 2.412-3.646.092z" opacity=".2"/>
    <path d="M46.103 15.452c3.827 3.827 5.227 10.032 1.4 13.86a9.668 9.668 0 0 1-3.502 2.252v25.043l-.23.195L40.001 60l-3.766-3.198-.272-.195v-2.85l-.061-1.012-2.919-3.614 2.98-3.397v-2.827l-2.945-3.641 2.945-2.612.076-5.09c-1.327-.487-2.793-1.255-3.795-2.252-3.827-3.828-3.827-10.033 0-13.86 1.813-1.812.534 7.25 3.097 7.223l2.312-.95c2.56.027 6.638-8.08 8.45-6.273zm-6.472 8.583c-1.64-1.64-1.298-5.33-2.938-3.69-1.64 1.64-2.13-.593-.49 1.047a4.2 4.2 0 0 0 5.94 0c1.64-1.64-.872 4.284-2.512 2.643z" fill="#F9F5D7"/>
    <path d="M32 29v.043c.083.089.158.183.244.27 1.003.997 2.468 1.765 3.795 2.251l-.076 5.09-2.945 2.612 2.945 3.64v2.828l-2.979 3.397 2.918 3.613.06 1.014v2.85l.272.195L40 60V29h-8z" opacity=".2"/>
    <path d="M40 11a11.96 11.96 0 0 0-8.484 3.516c-4.686 4.686-4.686 12.282 0 16.968 4.687 4.687 12.283 4.687 16.97 0 4.686-4.686 4.686-12.282 0-16.968A11.96 11.96 0 0 0 40 11zm0 3a3 3 0 1 1 .001 6 3 3 0 0 1 0-6z" opacity=".2"/>
    <path d="M40 10a11.96 11.96 0 0 0-8.484 3.516c-4.686 4.686-4.686 12.282 0 16.968 4.687 4.687 12.283 4.687 16.97 0 4.686-4.686 4.686-12.282 0-16.968A11.96 11.96 0 0 0 40 10zm0 3a3 3 0 1 1 .001 6 3 3 0 0 1 0-6z" fill="#48B9C7"/>
    <path d="M40 10a11.96 11.96 0 0 0-8.484 3.516c-2.471 2.47-3.625 5.749-3.49 8.984a11.942 11.942 0 0 1 3.49-7.984A11.96 11.96 0 0 1 40 11a11.96 11.96 0 0 1 8.484 3.516 11.944 11.944 0 0 1 3.493 7.984c.134-3.235-1.022-6.514-3.493-8.984A11.96 11.96 0 0 0 40 10zm-2.951 6.5a2.99 2.99 0 0 0 .83 2.621 3 3 0 0 0 4.242 0 2.99 2.99 0 0 0 .832-2.621 2.981 2.981 0 0 1-.832 1.621 3 3 0 0 1-4.242 0 2.978 2.978 0 0 1-.83-1.621z" opacity=".1" fill="#F9F5D7"/>
    <path d="M44.871 19.786c0 5.412-3.397 10.79-8.81 10.79a9.668 9.668 0 0 1-4.069-.884L14.284 48l-.3-.024L8 48l.027-4.953-.054-.33 3.44-3.015.673-.76L12.001 34l4.288.028L18.001 32v-4h4l4.361-3.937c-.594-1.283-1.087-2.863-1.09-4.277 0-5.412 4.387-9.8 9.8-9.8 2.563 0-4.75 5.504-2.918 7.297l2.306.964c1.791 1.828 10.408-1.02 10.411 1.539zm-10.646 1.492c0-2.32 2.852-4.686.533-4.686-2.32 0-1.087-1.926-1.087.394a4.2 4.2 0 0 0 4.2 4.2c2.32 0-3.646 2.412-3.646.092z" fill="#F9F5D7"/>
    <path d="M31.646 12.434l-6.32 6.32a9.904 9.904 0 0 0-.055 1.031c.004 1.414.498 2.995 1.092 4.277L22 28h-4v4l-1.71 2.03L12 34l.088 4.941-.674.762-3.44 3.014.053.33L8 48l29.107-29.107c-.79-.008-1.49-.08-2.011-.278-.164.323-.326.635-.477.998a4.162 4.162 0 0 1-.82-1.644l-1.645-.686c-.734-.72.009-2.033.989-3.351l-1.497-1.498zm2.153 5.535l.662.277c.157.16.383.274.635.37.586-1.158 1.034-2.024-.338-2.024-.57 0-.921-.12-1.133-.26.027.167.047.377.047.654 0 .34.05.666.127.983zm-.174-1.637c-.144-.884-.548-.364 0 0z" opacity=".2"/>
    <path d="M44.487 12.514A11.962 11.962 0 0 0 36.001 9c-6.629 0-12 5.371-12 12 0 6.628 5.371 12 12 12 6.628 0 12-5.372 12-12 0-3.314-1.342-6.314-3.514-8.486zm-2.122 2.121a3 3 0 1 1-4.242 4.244 3 3 0 0 1 4.242-4.244z" opacity=".2"/>
    <path d="M44.487 11.514A11.962 11.962 0 0 0 36.001 8c-6.629 0-12 5.371-12 12 0 6.628 5.371 12 12 12 6.628 0 12-5.372 12-12 0-3.314-1.342-6.314-3.514-8.486zm-2.122 2.121a3 3 0 1 1-4.242 4.244 3 3 0 0 1 4.242-4.244z" fill="#F9BD2E"/>
    <path d="M36 8c-6.628 0-12 5.371-12 12 0 .169.018.333.025.5C24.29 14.105 29.54 9 36 9c3.314 0 6.314 1.342 8.486 3.514a11.956 11.956 0 0 1 3.489 7.986c.007-.167.025-.331.025-.5 0-3.314-1.342-6.314-3.514-8.486A11.962 11.962 0 0 0 36 8zm1.295 8.258c-.028.163-.05.329-.05.5a3 3 0 1 0 6 0c0-.171-.024-.337-.052-.5a2.994 2.994 0 0 1-2.949 2.5 2.995 2.995 0 0 1-2.95-2.5z" opacity=".2" fill="#F9F5D7"/>
    <path d="M47 5a9 9 0 0 0-9 9 9 9 0 0 0 1.268 4.582c.307.106.632.176.976.176.763 0 1.451-.293 1.98-.762.055-.06.095-.128.143-.191A6 6 0 0 1 41 14a6 6 0 0 1 6-6 6 6 0 0 1 6 6 6 6 0 0 1-1.662 4.129c.373 1.09.583 2.222.633 3.361A9 9 0 0 0 56 14a9 9 0 0 0-9-9z" opacity=".2"/>
    <path d="M47 4a9 9 0 0 0-9 9 9 9 0 0 0 2.07 5.738c.059.004.113.02.172.02.765 0 1.455-.295 1.985-.766a2.75 2.75 0 0 0 .486-.797A6 6 0 0 1 41 13a6 6 0 0 1 6-6 6 6 0 0 1 6 6 6 6 0 0 1-1.92 4.393c.42 1.013.691 2.072.822 3.146A9 9 0 0 0 56 13a9 9 0 0 0-9-9z" fill="#F9F5D7"/>
    <path d="M47 4a9 9 0 0 0-9 9 9 9 0 0 0 .021.424A9 9 0 0 1 47 5a9 9 0 0 1 8.975 8.508A9 9 0 0 0 56 13a9 9 0 0 0-9-9zm5.975 9.492a6 6 0 0 1-1.895 3.9c.099.24.187.48.27.723A6 6 0 0 0 53 14a6 6 0 0 0-.025-.508zm-11.952.01A6 6 0 0 0 41 14a6 6 0 0 0 1.365 3.805c.141-.193.26-.396.348-.61a6 6 0 0 1-1.69-3.693z" opacity=".2" fill="#F9F5D7"/>
</svg>
