<svg xmlns="http://www.w3.org/2000/svg" width="64" height="64">
    <path d="M32.156 4.002a6.595 6.367 0 0 0-3.454.85L9.297 15.667A6.595 6.367 0 0 0 6 21.182v21.633a6.595 6.367 0 0 0 3.297 5.514l19.405 10.817a6.595 6.367 0 0 0 6.595 0L54.702 48.33A6.595 6.367 0 0 0 58 42.813V21.18a6.595 6.367 0 0 0-3.298-5.514L35.298 4.849A6.595 6.367 0 0 0 32.156 4z" fill="#066678"/>
    <path d="M6.523 18.715A6.595 6.367 0 0 0 6 21.182v21.632a6.595 6.367 0 0 0 3.297 5.516l19.406 10.816a6.595 6.367 0 0 0 3.297.848V32.25L6.523 18.715z" fill="#FA4934"/>
    <path d="M57.482 18.71L32 32.25v27.744a6.595 6.367 0 0 0 3.297-.848L54.7 48.33A6.595 6.367 0 0 0 58 42.813V21.18a6.595 6.367 0 0 0-.518-2.47z" fill="#7CB668"/>
    <path d="M32.156 4.002a6.595 6.372 0 0 0-3.453.852L9.297 15.678A6.595 6.372 0 0 0 6 21.198v1.001a6.595 6.372 0 0 1 3.297-5.521L28.703 5.854a6.595 6.372 0 0 1 3.453-.852 6.595 6.372 0 0 1 3.14.852l19.407 10.824A6.595 6.372 0 0 1 58 22.199v-1.002a6.595 6.372 0 0 0-3.297-5.52L35.297 4.855a6.595 6.372 0 0 0-3.14-.852z" opacity=".2" fill="#F9F5D7"/>
    <path d="M6 41.8a6.595 6.372 0 0 0 .002.075v-.074H6zm.002 1v1a6.595 6.372 0 0 0 3.297 5.518l19.406 10.829a6.595 6.372 0 0 0 6.594 0l19.404-10.829A6.595 6.372 0 0 0 58 43.801v-1a6.595 6.372 0 0 1-3.297 5.517L35.3 59.147a6.595 6.372 0 0 1-6.594 0L9.3 48.318a6.595 6.372 0 0 1-3.297-5.517z" opacity=".2"/>
    <path d="M6.523 18.715A6.595 6.367 0 0 0 6 21.182v1a6.595 6.367 0 0 1 .523-2.467L32 33.25v-1L6.523 18.715zM57.482 18.71L32 32.25v1l25.482-13.54A6.595 6.367 0 0 1 58 22.18v-1a6.595 6.367 0 0 0-.518-2.47z" fill="#F9F5D7" opacity=".2"/>
</svg>
