<svg xmlns="http://www.w3.org/2000/svg" width="64" height="64" version="1">
    <rect width="56" height="56" x="-61" y="-61" rx="28" ry="28" transform="matrix(0 -1 -1 0 0 0)" opacity=".2"/>
    <circle cx="33" cy="32" r="28" fill="#7CB668"/>
    <path d="M30.374 4.108A28.023 28.027 0 0 0 20.232 7.05c.141.448-.023.954-.539 1.401-.349.303-.635.774-.635 1.049 0 .84.76 2.13 1.366 2.318.806.25.535 1.109-.5 1.584-.48.22-1.069.853-1.31 1.407-.243.555-.6 1.102-.792 1.216-.192.113-.35.547-.35.963 0 .581.265.863 1.138 1.213.626.25 1.374.432 1.664.405 1.668-.157 1.785.814.326 2.715-.775 1.009-1.147 1.262-1.675 1.136-.492-.119-.761.02-.985.509-.236.516-.623.691-1.661.763-1.02.07-1.478.278-1.86.838-.28.408-.684.739-.899.739-.214 0-.72.273-1.122.607-.818.68-1.138.749-1.425.304-.38-.588-1.198-.29-2.417.875-1.077 1.033-1.208 1.31-1.045 2.204.289 1.593 1.153 3.007 2.14 3.5.86.43.878.477.356 1.03-.3.317-.816.658-1.144.758-.949.288-.415.65 1.278.864 1.732.22 2.27.85 1.461 1.706-.451.477-.426.566.298 1.02 1.416.89 2.54.345 1.213-.584-.854-.597-.257-.84.996-.407.998.345 1.196.326 1.787-.186 1.211-1.05 2.528.502 1.42 1.675-.705.746-.491 1.646.422 1.77.403.055 1.24.43 1.863.835.623.405 1.3.736 1.505.736.205 0 .782.41 1.284.912 1.017 1.017 1.582 1.146 1.869.43.345-.862.206-1.305-.723-2.319-.739-.806-1.94-2.951-1.94-3.465 0-.317 1.221-.048 1.905.42.428.292 1.12.668 1.538.84.446.182.908.748 1.12 1.368.33.971.46 1.056 1.625 1.056h1.267l.191 2.277c.23 2.74.45 3.294 1.39 3.52.693.167 1.432 1.239 1.432 2.077 0 .223-.499.77-1.106 1.213-.754.55-1.08 1.019-1.029 1.478.063.573-.067.662-.878.602-.524-.039-1.43.145-2.015.408-.69.311-1.438.41-2.14.285-.807-.146-1.08-.09-1.08.227 0 .232-.282.667-.627.966-.853.739-.5 1.13.807.895.813-.146 1.13-.081 1.27.268.298.745-.458 1.81-1.16 1.634-.445-.111-.659.04-.797.567a1.323 1.323 0 0 1-.24.479 28.023 28.027 0 0 0 4.433 1.31c-.14-.268-.3-.51-.455-.62-.722-.511-.239-1.836.756-2.075 1.012-.244.852-.9-.25-1.027-.964-.11-1.992-1.087-1.669-1.587.217-.336 1.14-.287 3.008.156.843.2 1.42-.201 3.374-2.34 1.131-1.239 2-1.755 2.955-1.755.364 0 1.663-.334 2.888-.744 2.312-.774 3.216-.746 3.13.099-.177 1.756.955 1.698 2.797-.143.768-.767 1.469-1.321 1.56-1.234.352.337-.282 1.981-1.02 2.646-.938.843-.984 1.376-.16 1.799.452.231.644.702.715 1.757l.095 1.44h1.172c.41 0 .75.056 1.026.16A28.023 28.027 0 0 0 61 32.864c-.429-.916-.398-1.47 0-2.093a28.023 28.027 0 0 0-.126-1.571 8.986 8.986 0 0 0-.815-.011c-1.412.058-2.622-.498-2.622-1.207 0-.15-.5-.767-1.114-1.372-.694-.684-1.051-1.289-.947-1.604.095-.285-.11-.746-.47-1.059-.352-.304-.64-.795-.64-1.09 0-.469-.3-.528-2.458-.475l-2.457.06.04 2.422c.074 4.243.705 5.345 2.655 4.634.892-.326 3.085-.08 3.708.416.225.179.552.829.725 1.445.173.616.816 1.681 1.429 2.367 1.242 1.39 1.338 1.932.626 3.564-.62 1.423-1.29 1.26-1.157-.285l.098-1.15-1.05.198c-.582.11-1.31.54-1.637.963-.465.604-.683.693-1.032.416-.243-.193-.44-.6-.44-.903 0-.303-.3-.64-.665-.75-.365-.111-.865-.662-1.111-1.226-.394-.903-.384-1.179.074-2.275.464-1.112.469-1.295.04-1.705-.392-.376-.594-.388-1.11-.08-.52.311-.763.288-1.38-.125-.412-.276-1.13-.504-1.595-.504-.946 0-1.232-.46-1.232-1.981 0-1.406-.838-1.916-2.832-1.733-1.385.128-1.69.036-2.808-.824-.69-.53-1.78-1.81-2.424-2.843-.645-1.035-1.339-2.115-1.541-2.4-.292-.414-.22-.81.35-1.936l.72-1.415-1.521.205c-2.708.367-3.256.718-2.091 1.342.453.243.473.367.123.771-.23.265-.337.683-.238.93.1.248-.026.831-.28 1.296-.252.464-.464 1.116-.473 1.45-.026 1.045-1.815 1.875-3.806 1.765-3.019-.166-3.263-.118-4.335.876-1.34 1.244-1.513 1.824-.89 2.978.606 1.12 1.678 1.567 3.536 1.475 1.662-.082 1.85.064 1.47 1.163-.323.933-1.409 1.293-2.143.71-.566-.45-2.518-.103-3.117.555-.25.276-.623.998-.826 1.604-.35 1.046-.453 1.11-2.023 1.262-1.566.152-1.716.101-2.843-.937-1.257-1.158-1.47-2.043-.865-3.569.269-.675.469-.785 1.185-.654 1.421.26 1.982-.234 1.982-1.751 0-.736-.143-1.424-.318-1.528-.174-.103-.317-.493-.317-.867 0-.375-.179-.856-.397-1.068-.318-.308-.272-.473.235-.832.348-.246.92-.411 1.27-.37.35.043 1.314-.108 2.145-.333 1.201-.325 1.554-.57 1.716-1.202.309-1.2 1.06-2.162 1.692-2.162.996 0 1.016-2.343.049-5.75-.145-.504-.537-.824-1.233-.997-.563-.14-1.175-.523-1.36-.854-.184-.33-.522-.6-.75-.6-.229 0-.675-.273-.991-.607-.318-.336-.976-.607-1.475-.607-1.184 0-1.204-.816-.03-1.246 1.24-.454 3.17.142 3.637 1.123.632 1.33 1.334.774 1.56-1.235.279-2.485 1.135-3.2 3.839-3.2h1.943l-.851-.85a3.388 3.388 0 0 1-.638-.91zm10.073.881c-.053.05-.107.09-.161.145-.65.664-.954.758-1.96.605-1.754-.268-1.528.439.414 1.292 1.05.461 1.724.987 1.954 1.519 1.107 2.566 1.869 3.948 2.252 4.089.774.284 1.235-.287 1.407-1.746.197-1.675.764-2.03 1.781-1.114.395.355.946.646 1.226.646.87 0 1.513.349 1.513.82 0 .25.294.849.654 1.334.53.713.891.884 1.883.884 1.217 0 1.965.228 3.49 1.07.023.013.047.018.07.03A28.023 28.027 0 0 0 40.45 4.99zM5.005 31.862a28.023 28.027 0 0 0-.005.12 28.023 28.027 0 0 0 .547 5.384c1.016.414 1.296.25 1.401-.695.055-.488.31-1.043.57-1.234.4-.296.328-.447-.493-1.007-.531-.362-1.056-.996-1.163-1.408-.104-.397-.457-.832-.857-1.16zm8.82 9.265c-.261-.028-.577.113-.927.449-.741.71-.63 2.135.21 2.699.962.645 1.335.457 1.456-.734.15-1.47-.164-2.354-.739-2.414zm4.756 4.237c-.286.01-.601.214-.916.646-.335.457-.427 1.047-.299 1.943.158 1.1.09 1.336-.487 1.631-.74.38-.898 1.506-.293 2.086.604.577 1.178.426 1.385-.364.295-1.126 1.943-1.26 3.07-.247.48.431.874.65.874.485 0-.166-.5-.767-1.111-1.333-.936-.868-1.109-1.239-1.109-2.357 0-1.579-.484-2.51-1.114-2.49zm-7.81 3.618a28.023 28.027 0 0 0 .649.818 5.087 5.087 0 0 0-.649-.817zm9.444 4.302c-.142.05-.202.227-.202.54 0 .316-.202.648-.449.739-.327.12-.403.5-.276 1.406.023.17.03.306.038.446a28.023 28.027 0 0 0 1.166.6c-.02-.485.07-1.056.323-1.771.43-1.213.445-1.517.095-1.73-.329-.2-.552-.279-.695-.23z" opacity=".3"/>
    <path d="M33 4C17.488 4 5 16.488 5 32c0 .168.01.333.014.5C5.28 17.221 17.656 5 33 5c15.344 0 27.72 12.221 27.986 27.5.003-.167.014-.332.014-.5C61 16.488 48.512 4 33 4z" fill="#F9F5D7" opacity=".2"/>
    <path d="M29.574 45.932c-2.634-9.836-14.253-3.73-19.003-11.218-4.75-7.487-2.013-14.762-4.462-12.027-2.448 2.735-1.44 7.475-1.44 7.475s-.864-5.183-1.872-2.304c-1.008 2.88 1.582 7.143 1.582 7.143s-2.878-4.895-2.303-1.872c.575 3.024 3.255 6.252 3.255 6.252s-2.447-2.736-2.16-.432c.288 2.304 4.95 4.376 4.95 4.376s-3.743.719-1.296 2.735c2.448 2.016 7.887.29 7.887.29s-3.888 3.466.144 4.475c4.03 1.008 7.519-1.295 7.519-1.295s-1.585 3.744 2.447 3.456c4.031-.287 5.724-3.425 4.752-7.054z" opacity=".2" fill-rule="evenodd"/>
    <path d="M29.574 44.932c-2.634-9.836-14.253-3.73-19.003-11.218-4.75-7.487-2.013-14.762-4.462-12.027-2.448 2.735-1.44 7.475-1.44 7.475s-.864-5.183-1.872-2.304c-1.008 2.88 1.582 7.143 1.582 7.143s-2.878-4.895-2.303-1.872c.575 3.024 3.255 6.252 3.255 6.252s-2.447-2.736-2.16-.432c.288 2.304 4.95 4.376 4.95 4.376s-3.743.719-1.296 2.735c2.448 2.016 7.887.29 7.887.29s-3.888 3.466.144 4.475c4.03 1.008 7.519-1.295 7.519-1.295s-1.585 3.744 2.447 3.456c4.031-.287 5.724-3.425 4.752-7.054z" fill="#F9F5D7" fill-rule="evenodd"/>
    <path d="M40.435 5.9c-1.997.025 3.957 6.505 3.556 16.071-.422 10.083-15.315 10.545-13.78 20.85-1.393-.677-2.54-3.111-2.191-6.798.473-5.01-2.816-7.043-5.65-7.028-.811.004-1.55.156-2.104.478-6.545 3.807-4.845 15.158.296 24.135 2.36 4.119 6.014 6.492 9.987 7.299.72.055 1.444.093 2.178.093 2.37 0 4.666-.302 6.86-.856 5.913-2.21 10.893-7.846 11.563-16.162 3.687.477 10.188-3.26 10.787-5.514.565-2.122-2.843-.843-3.806-.342.892-.5 4.609-2.618 3.27-5.25-.917-1.805-2.76-.287-4.106 1.238-.783 1.18-1.611 2.087-1.611 2.087s.69-1.044 1.611-2.087c1.165-1.756 2.71-4.075.661-5.002-1.307-.591-2.79.389-3.503 1.633-.292 2.189-1.506 4.302-1.506 4.302s.35-2.285 1.506-4.302c.189-1.417-.075-1.971-1.375-1.62-.507.137-1.09.257-1.693.388.59-.824 3.291-4.375 2.348-6.63-.015-.034-.03-.055-.044-.087-.051-.114-.102-.227-.152-.312-.695-1.264-1.28.205-1.582 1.226.243-1.577.677-5.081-.206-7.634a4.435 4.435 0 0 0-.253-.604c-.78-1.7-.978 1.297-1.032 2.832-.087-1.379-.115-4.832-1.187-6.799l-.008-.019c-.088-.169-.189-.529-.289-.687-.28-.444-.6-.85-.977-1.176-2.239-1.936-1.226 1.693-.77 3.047-.341-.818-1.54-1.894-2.603-3.257-.816-1.073-1.454-2.394-2.7-3.057-.493-.165-.991-.318-1.495-.456z" opacity=".2" fill-rule="evenodd"/>
    <path d="M40.435 4.9c-1.997.025 3.957 6.505 3.556 16.071-.422 10.083-15.315 10.545-13.78 20.85-1.393-.677-2.54-3.111-2.191-6.798.473-5.01-2.816-7.043-5.65-7.028-.811.004-1.55.156-2.104.478-6.545 3.807-4.845 15.158.296 24.135 2.36 4.119 6.014 6.492 9.987 7.299.72.055 1.444.093 2.178.093 2.37 0 4.666-.302 6.86-.856 5.913-2.21 10.893-7.846 11.563-16.162 3.687.477 10.188-3.26 10.787-5.514.565-2.122-2.843-.843-3.806-.342.892-.5 4.609-2.618 3.27-5.25-.917-1.805-2.76-.287-4.106 1.238-.783 1.18-1.611 2.087-1.611 2.087s.69-1.044 1.611-2.087c1.165-1.756 2.71-4.075.661-5.002-1.307-.591-2.79.389-3.503 1.633-.292 2.189-1.506 4.302-1.506 4.302s.35-2.285 1.506-4.302c.189-1.417-.075-1.971-1.375-1.62-.507.137-1.09.257-1.693.388.59-.824 3.291-4.375 2.348-6.63-.015-.034-.03-.055-.044-.087-.051-.114-.102-.227-.152-.312-.695-1.264-1.28.205-1.582 1.226.243-1.577.677-5.081-.206-7.634a4.435 4.435 0 0 0-.253-.604c-.78-1.7-.978 1.297-1.032 2.832-.087-1.379-.115-4.832-1.187-6.799l-.008-.019c-.088-.169-.189-.529-.289-.687-.28-.444-.6-.85-.977-1.176-2.239-1.936-1.226 1.693-.77 3.047-.341-.818-1.54-1.894-2.603-3.257-.816-1.073-1.454-2.394-2.7-3.057-.493-.165-.991-.318-1.495-.456z" fill="#F9F5D7" fill-rule="evenodd"/>
    <path d="M19.923 33.384a1 1 0 1 1-1.846-.769 1 1 0 1 1 1.846.769zM24.008 34.129a1 1 0 1 0 1.984-.258 1 1 0 1 0-1.984.258z" fill="#3A393A"/>
    <path d="M19.5 35h4.2l-1.05 1.05-1.05 1.05-1.05-1.05z" fill="#928274"/>
</svg>
