<svg xmlns="http://www.w3.org/2000/svg" width="64" height="64" version="1">
    <path d="M4.05 32c-.011.335-.05.663-.05 1 0 15.512 12.488 28 28 28 15.51 0 27.998-12.488 27.998-28 0-.337-.039-.664-.05-1-.528 15.042-12.776 27-27.95 27S4.578 47.042 4.05 32z" opacity=".2"/>
    <rect width="56" height="56" x="4" y="4" rx="27.999" ry="27.999" fill="#7CB668"/>
    <g opacity=".2">
        <path d="M30 13.001v2h2v14h2V13zM20 31v2h23.999v-2zM28 35v10h6v6h2V35h-2v8h-4v-8z"/>
    </g>
    <path d="M32 4.002C16.488 4.002 4 16.488 4 32c0 .114.011.224.018.336C4.369 17.135 16.71 5 32 5s27.63 12.135 27.982 27.336c.007-.112.018-.223.018-.336A27.938 27.938 0 0 0 32 4.002z" opacity=".1" fill="#F9F5D7"/>
    <g fill="#F9F5D7">
        <path d="M30 12.001v2h2v14h2v-16zM20 30v2h23.999v-2zM28 34v10h6v6h2V34h-2v8h-4v-8z"/>
    </g>
</svg>
