<svg xmlns="http://www.w3.org/2000/svg" width="64" height="64" version="1">
    <path d="M12 54.398v2C12 57.838 13.19 59 14.668 59h34.664C50.81 59 52 57.838 52 56.398v-2C52 55.838 50.81 57 49.332 57H14.668C13.191 57 12 55.838 12 54.398z" opacity=".2"/>
    <rect width="52" height="40" x="-58" y="-52" rx="2.6" ry="2.666" transform="matrix(0 -1 -1 0 0 0)" fill="#F9F5D7"/>
    <path d="M14.668 6C13.191 6 12 7.161 12 8.602v1C12 8.162 13.19 7 14.668 7h34.664C50.81 7 52 8.161 52 9.602v-1C52 7.162 50.81 6 49.332 6H14.668z" opacity=".2" fill="#F9F5D7"/>
    <path fill="#FA4934" d="M31.997 22.005l8 10-8 10-8-10zM18.004 18.007l4 5-4 5.001-4-5zM46.003 46.009l-4-5.001 4-5 4 5zM19.5 17h-3l-.5 1h-2l2.963-8H19l3.086 8H20zm-2.403-2h1.891L18 12l-.903 3z"/>
    <path d="M47.5 47h-3l-.5-1h-2l2.963 8H47l3.086-8H48zm-2.403 2h1.891L46 52l-.903-3z" fill="#FA4934"/>
</svg>
