<svg xmlns="http://www.w3.org/2000/svg" width="64" height="64" version="1">
    <rect width="56" height="56" x="4" y="5" rx="2.8" ry="2.8" opacity=".2"/>
    <rect width="56" height="56" x="4" y="4" rx="2.8" ry="2.8" fill="#3A393A"/>
    <path d="M32.322 20.05c-2.729-.04-5.461.508-7.933 1.673-3.47 1.599-6.348 4.35-8.243 7.656 1.697-2.137 3.75-4.03 6.225-5.223 4.425-2.245 9.832-2.303 14.361-.324a16.999 16.999 0 0 1 8.153 7.36c1.137-.565 2.275-1.123 3.41-1.696a18.252 18.252 0 0 0-8.066-7.588 18.844 18.844 0 0 0-7.907-1.857zm-.297 5.971c-4.429-.044-8.582 2.489-11.004 6.127l.036.018c2.327-2.329 5.5-3.928 8.845-3.793 3.893.03 7.56 2.246 9.645 5.494l3.398-1.697c-2.325-3.696-6.513-6.2-10.92-6.149zM11 30.537c.003.987.002 1.974.002 2.963A32932.609 32932.609 0 0 1 31.996 44a21371.41 21371.41 0 0 1 21-10.5A350.635 350.635 0 0 1 53 30.543c-7 3.504-14.001 6.998-21 10.496-7.002-3.499-14.004-6.993-21-10.502zm21.455.498a5.763 5.763 0 0 0-.992.016c-2.282.137-4.158 1.678-5.447 3.459 1.16-.741 2.488-1.367 3.904-1.203 1.963.113 3.633 1.415 4.685 3.011 1.127-.567 2.263-1.123 3.39-1.693-1.19-1.937-3.255-3.432-5.54-3.59z" opacity=".2"/>
    <path d="M24.389 20.723c4.944-2.329 10.935-2.191 15.84.185a18.254 18.254 0 0 1 8.067 7.587c-1.135.573-2.275 1.133-3.411 1.697-1.81-3.266-4.714-5.9-8.152-7.36-4.53-1.98-9.938-1.921-14.363.324-2.474 1.192-4.527 3.086-6.223 5.224 1.894-3.306 4.772-6.058 8.242-7.657z" fill="#D79921"/>
    <path d="M32.025 25.021c-4.429-.044-8.582 2.489-11.004 6.127l.036.018c2.327-2.329 5.5-3.928 8.845-3.793 3.893.03 7.56 2.246 9.645 5.494l3.398-1.697c-2.325-3.696-6.513-6.2-10.92-6.149z" fill="#FA4934"/>
    <path d="M11 29.537c6.996 3.509 13.998 7.004 21 10.503 6.999-3.498 14-6.994 21-10.498a350.635 350.635 0 0 0-.003 2.957 21371.41 21371.41 0 0 0-21 10.501 32932.609 32932.609 0 0 0-20.994-10.5c0-.99 0-1.976-.003-2.963z" fill="#B7BB25"/>
    <path d="M26.017 33.51c1.29-1.78 3.165-3.321 5.447-3.458 2.667-.277 5.171 1.358 6.53 3.572-1.127.57-2.262 1.127-3.388 1.694-1.052-1.596-2.722-2.897-4.686-3.01-1.415-.164-2.743.461-3.903 1.202z" fill="#8F3F71"/>
    <path d="M6.8 4C5.25 4 4 5.25 4 6.8v1C4 6.25 5.25 5 6.8 5h50.4C58.75 5 60 6.25 60 7.8v-1C60 5.25 58.75 4 57.2 4H6.8z" fill="#F9F5D7" opacity=".1"/>
</svg>
