<svg xmlns="http://www.w3.org/2000/svg" width="64" height="64" version="1">
    <path d="M12.2 12.22A27.968 27.968 0 0 1 32 4v28z" fill="#8F3F71"/>
    <path d="M51.8 12.22A27.969 27.969 0 0 0 32 4v28z" fill="#FA4934"/>
    <path d="M12.22 12.2A27.968 27.968 0 0 0 4 32h28z" fill="#8F3F71"/>
    <path d="M12.22 51.8A27.968 27.968 0 0 1 4 32h28z" fill="#48B9C7"/>
    <path d="M51.78 12.2A27.968 27.968 0 0 1 60 32H32z" fill="#FD8019"/>
    <path d="M51.782 51.8A27.97 27.97 0 0 0 60 32H32z" fill="#F9BD2E"/>
    <path d="M12.2 51.78A27.968 27.968 0 0 0 32 60V32z" fill="#73C48F"/>
    <path d="M51.8 51.782A27.97 27.97 0 0 1 32 60V32z" fill="#B7BB25"/>
    <circle cx="32" cy="33" r="14" opacity=".2"/>
    <circle cx="32" cy="32" r="14" fill="#F9F5D7"/>
    <path d="M32 4A28 28.022 0 0 0 4 32.022a28 28.022 0 0 0 .021.406A28 28.022 0 0 1 32 5a28 28.022 0 0 1 27.979 27.6 28 28.022 0 0 0 .021-.578A28 28.022 0 0 0 32 4z" opacity=".2" fill="#F9F5D7"/>
    <path d="M4.021 32.395a28 28.027 0 0 0-.021.578A28 28.027 0 0 0 32 61a28 28.027 0 0 0 28-28.027 28 28.027 0 0 0-.021-.407A28 28.027 0 0 1 32 60 28 28.027 0 0 1 4.021 32.395z" opacity=".2"/>
</svg>
