<svg xmlns="http://www.w3.org/2000/svg" width="64" height="64">
    <path d="M31.905 5c-6.517.086-13.428 3.318-17.111 10.047a5.203 5.203 0 0 0-.098.188c-1.402 2.79-1.712 5.558-1.712 8.196 0 3.034.81 5.914 2.11 8.278.073.134.151.264.234.39.484.741 1.075 1.165 1.58 1.806-2.344 1.195-2.635 2.302-2.91 2.691h-.004c-.608.861-1.547 2.105-2.406 3.328-.43.612-.842 1.216-1.24 1.891-.4.676-.948.935-1.237 3.333-.483 2.495.694 3.855 1.9 5.55.643.812 1.374 1.6 2.219 2.426 1.663 1.626 3.562 3.313 6.194 4.587C23.119 59.674 27.746 61 32.806 61c2.414 0 4.91-.284 7.407-.965h.008c2.448-.67 4.863-1.692 7.064-3.242a18.865 18.865 0 0 0 5.496-6.051C54.353 47.997 55 44.9 55 41.792c0-2.559-.516-5.026-1.435-7.36a6.008 6.008 0 0 0-.515-1.477h-.004c-.833-1.634-2.064-3.02-3.28-4.402.406-.47.829-.943 1.088-1.434.035-.066.069-.132.101-.2-.348.723 1.199-1.722 2.32-3.457.043-.064.678-.688 1.23-2.415.552-1.728-.071-5.598-1.955-7.309-1.902-1.728-4.788-4.247-9.049-6.066-2.797-1.26-6.664-2.668-11.514-2.668h-.082z" opacity=".2"/>
    <path d="M31.905 4c-6.517.086-13.428 3.318-17.111 10.047a5.203 5.203 0 0 0-.098.188c-1.402 2.79-1.712 5.558-1.712 8.196 0 3.034.81 5.914 2.11 8.278.073.134.151.264.234.39.484.741 1.075 1.165 1.58 1.806-2.344 1.195-2.635 2.302-2.91 2.691h-.004c-.608.861-1.547 2.105-2.406 3.328-.43.612-.842 1.216-1.24 1.891-.4.676-.948.935-1.237 3.333-.483 2.495.694 3.855 1.9 5.55.643.812 1.374 1.6 2.219 2.426 1.663 1.626 3.562 3.313 6.194 4.587C23.119 58.674 27.746 60 32.806 60c2.414 0 4.91-.284 7.407-.965h.008c2.448-.67 4.863-1.692 7.064-3.242a18.865 18.865 0 0 0 5.496-6.051C54.353 46.997 55 43.9 55 40.792c0-2.559-.516-5.026-1.435-7.36a6.008 6.008 0 0 0-.515-1.477h-.004c-.833-1.634-2.064-3.02-3.28-4.402.406-.47.829-.943 1.088-1.434.035-.066.069-.132.101-.2-.348.723 1.199-1.722 2.32-3.457.043-.064.678-.688 1.23-2.415.552-1.728-.071-5.598-1.955-7.309-1.902-1.728-4.788-4.247-9.049-6.066-2.797-1.26-6.664-2.668-11.514-2.668h-.082z" fill="#504945"/>
    <path d="M47.699 35.677C48.565 37.379 49 39.44 49 41.793c0 2.269-.476 4.301-1.428 5.96a12.814 12.814 0 0 1-3.748 4.132c-1.524 1.071-3.283 1.835-5.208 2.361-1.927.525-3.897.754-5.843.754-3.894 0-8.087-1.214-10.732-2.641-3.019-1.43-7.122-5.814-7.04-6.493.107-.883 2.426-3.819 3.831-5.804.685-.967.956-1.424 1.982-.52 1.282 1.56 3.062 2.563 4.703 3.402 1.438.682 4.477 1.662 6.07 1.86 1.333.197 3.324.197 3.469-1.887 0-.797-.673-1.523-1.54-2.239-.867-.713-1.448-1.324-2.738-2.102-5.12-3.985-7.886-5.783-10.486-9.76-.868-1.576-1.37-3.326-1.37-5.385 0-2.017.313-3.984 1.075-5.497 2.475-4.514 7.476-6.875 11.955-6.934 3.826 0 6.634 1.028 9.152 2.165 3.4 1.443 5.564 3.332 7.412 5.008.72.654.099 1.442-.277 2.022-.944 1.456-2.279 3.253-2.696 4.117-.331.628-.944.864-1.453.427 0 0-1.257-1.06-2.272-1.713-2.697-1.497-5.496-3.701-8.348-3.976-.762 0-1.527.223-1.886.6-.36.379-.49 1.14-.472 1.728.034 1.06.332 1.258 1.336 2.213.866.652 1.55 1.121 3.303 2.051 1.31.695 2.919 1.672 4.422 2.533a24.15 24.15 0 0 1 4.323 3.188c1.312 1.22 2.334 2.612 3.203 4.313z" opacity=".2"/>
    <path d="M47.699 34.677C48.565 36.379 49 38.44 49 40.793c0 2.269-.476 4.301-1.428 5.96a12.814 12.814 0 0 1-3.748 4.132c-1.524 1.071-3.283 1.835-5.208 2.361-1.927.525-3.897.754-5.843.754-3.894 0-8.087-1.214-10.732-2.641-3.019-1.43-7.122-5.814-7.04-6.493.107-.883 2.426-3.819 3.831-5.804.685-.967.956-1.424 1.982-.52 1.282 1.56 3.062 2.563 4.703 3.402 1.438.682 4.477 1.662 6.07 1.86 1.333.197 3.324.197 3.469-1.887 0-.797-.673-1.523-1.54-2.239-.867-.713-1.448-1.324-2.738-2.102-5.12-3.985-7.886-5.783-10.486-9.76-.868-1.576-1.37-3.326-1.37-5.385 0-2.017.313-3.984 1.075-5.497 2.475-4.514 7.476-6.875 11.955-6.934 3.826 0 6.634 1.028 9.152 2.165 3.4 1.443 5.564 3.332 7.412 5.008.72.654.099 1.442-.277 2.022-.944 1.456-2.279 3.253-2.696 4.117-.331.628-.944.864-1.453.427 0 0-1.257-1.06-2.272-1.713-2.697-1.497-5.496-3.701-8.348-3.976-.762 0-1.527.223-1.886.6-.36.379-.49 1.14-.472 1.728.034 1.06.332 1.258 1.336 2.213.866.652 1.55 1.121 3.303 2.051 1.31.695 2.919 1.672 4.422 2.533a24.15 24.15 0 0 1 4.323 3.188c1.312 1.22 2.334 2.612 3.203 4.313z" fill="#B7BB25"/>
    <path d="M31.906 4c-6.517.086-13.43 3.317-17.113 10.047-.034.062-.064.125-.096.19-1.402 2.789-1.713 5.557-1.713 8.195 0 .173.013.343.018.515.038-2.492.378-5.09 1.695-7.71.032-.065.062-.128.096-.19C18.476 8.317 25.389 5.086 31.906 5l-.002.004h.082c4.85 0 8.718 1.408 11.516 2.668 4.26 1.82 7.146 4.338 9.049 6.066 1.32 1.2 2.008 3.451 2.119 5.291.137-1.935-.545-4.86-2.12-6.29-1.902-1.729-4.788-4.248-9.048-6.067-2.798-1.26-6.665-2.668-11.516-2.668h-.082L31.906 4zm18.29 24.045c-.142.17-.285.34-.43.508 1.216 1.383 2.446 2.768 3.279 4.402h.004c.235.468.409.964.515 1.477a20.08 20.08 0 0 1 1.418 7.011c.007-.217.018-.435.018-.652 0-2.559-.517-5.025-1.436-7.36a6.011 6.011 0 0 0-.515-1.476h-.004c-.734-1.44-1.78-2.687-2.85-3.91zM16.3 33.246c-1.778 1.06-2.054 1.998-2.303 2.35h-.004c-.609.86-1.546 2.104-2.406 3.328-.43.612-.842 1.215-1.24 1.89-.4.676-.948.937-1.237 3.334a5.366 5.366 0 0 0-.078 1.641c.018-.208.035-.415.078-.64.29-2.398.838-2.659 1.237-3.335.398-.675.81-1.278 1.24-1.89.86-1.224 1.797-2.467 2.406-3.328h.004c.275-.39.566-1.496 2.91-2.692-.192-.243-.4-.448-.607-.658z" opacity=".1" fill="#F9F5D7"/>
    <path d="M31.951 10c-4.479.06-9.48 2.42-11.955 6.934-.762 1.513-1.074 3.48-1.074 5.498 0 .137.02.262.025.396.058-1.801.364-3.534 1.05-4.894C22.47 13.42 27.471 11.059 31.95 11c3.827 0 6.635 1.028 9.153 2.166 3.4 1.442 5.564 3.332 7.412 5.008.079.072.136.146.185.22.183-.408.239-.835-.185-1.22-1.848-1.676-4.012-3.566-7.412-5.008C38.586 11.028 35.778 10 31.95 10zm-.795 10.736c-.032.22-.051.441-.045.643.034 1.06.332 1.257 1.336 2.213.867.652 1.55 1.12 3.303 2.05 1.31.695 2.92 1.673 4.422 2.534a24.153 24.153 0 0 1 4.324 3.187c1.312 1.22 2.335 2.611 3.203 4.313.8 1.57 1.213 3.458 1.276 5.586.004-.158.025-.308.025-.469 0-2.353-.434-4.415-1.3-6.117-.87-1.702-1.892-3.093-3.204-4.313a24.153 24.153 0 0 0-4.324-3.187c-1.503-.861-3.111-1.839-4.422-2.533-1.754-.93-2.436-1.4-3.303-2.051-.867-.826-1.192-1.116-1.29-1.856zm-11.24 17.319c-.39-.002-.656.403-1.084 1.008-1.406 1.985-3.723 4.919-3.83 5.802-.011.092.064.262.193.473.59-1.214 2.44-3.584 3.637-5.276.685-.966.957-1.424 1.982-.521 1.282 1.56 3.063 2.564 4.704 3.402 1.438.682 4.476 1.663 6.068 1.862 1.333.196 3.324.196 3.469-1.887a1.54 1.54 0 0 0-.096-.514c-.412 1.577-2.158 1.58-3.373 1.4-1.592-.198-4.63-1.179-6.068-1.86-1.641-.84-3.422-1.842-4.704-3.403-.384-.339-.664-.485-.898-.486z" opacity=".2" fill="#F9F5D7"/>
</svg>
