<svg xmlns="http://www.w3.org/2000/svg" width="64" height="64">
    <path d="M32.001 33c-1.724 0-3.449.345-4.725 1.032L7.913 44.456c-2.552 1.374-2.55 3.715.002 5.089l19.36 10.424c2.553 1.375 6.9 1.375 9.452 0l19.36-10.424c2.552-1.374 2.55-3.715-.003-5.089L36.727 34.032C35.45 33.345 33.726 33 32 33z" opacity=".2"/>
    <path d="M32.001 32c-1.724 0-3.449.345-4.725 1.032L7.913 43.456c-2.552 1.374-2.55 3.715.002 5.089l19.36 10.424c2.553 1.375 6.9 1.375 9.452 0l19.36-10.424c2.552-1.374 2.55-3.715-.003-5.089L36.727 33.032C35.45 32.345 33.726 32 32 32z" fill="#BE4C1D"/>
    <path d="M32 32c-1.725 0-3.446.344-4.723 1.031L7.914 43.457c-1.502.809-2.093 1.948-1.82 3.031.182-.75.778-1.47 1.82-2.031l19.363-10.426C28.554 33.344 30.275 33 32 33c1.725 0 3.45.344 4.727 1.031l19.359 10.426c1.042.561 1.638 1.281 1.82 2.031.273-1.083-.317-2.222-1.82-3.031l-19.36-10.426C35.45 32.344 33.726 32.001 32 32z" opacity=".2" fill="#F9F5D7"/>
    <path d="M32.001 19c-1.724 0-3.449.345-4.725 1.032L7.913 30.456c-2.552 1.374-2.55 3.715.002 5.089l19.36 10.424c2.553 1.375 6.9 1.375 9.452 0l19.36-10.424c2.552-1.374 2.55-3.715-.003-5.089L36.727 20.032C35.45 19.345 33.726 19 32 19z" opacity=".2"/>
    <path d="M32.001 18c-1.724 0-3.449.345-4.725 1.032L7.913 29.456c-2.552 1.374-2.55 3.715.002 5.089l19.36 10.424c2.553 1.375 6.9 1.375 9.452 0l19.36-10.424c2.552-1.374 2.55-3.715-.003-5.089L36.727 19.032C35.45 18.345 33.726 18 32 18z" fill="#B7BB25"/>
    <path d="M32 18c-1.725 0-3.446.344-4.723 1.031L7.914 29.457c-1.502.809-2.093 1.948-1.82 3.031.182-.75.778-1.47 1.82-2.031l19.363-10.426C28.554 19.344 30.275 19 32 19c1.725 0 3.45.344 4.727 1.031l19.359 10.426c1.042.561 1.638 1.281 1.82 2.031.273-1.083-.317-2.222-1.82-3.031l-19.36-10.426C35.45 18.344 33.726 18.001 32 18z" opacity=".2" fill="#F9F5D7"/>
    <path d="M32.001 5c-1.724 0-3.449.345-4.725 1.032L7.913 16.456c-2.552 1.374-2.55 3.715.002 5.089l19.36 10.424c2.553 1.375 6.9 1.375 9.452 0l19.36-10.424c2.552-1.374 2.55-3.715-.003-5.089L36.727 6.032C35.45 5.345 33.726 5 32 5z" opacity=".2"/>
    <path d="M32.001 4c-1.724 0-3.449.345-4.725 1.032L7.913 15.456c-2.552 1.374-2.55 3.715.002 5.089l19.36 10.424c2.553 1.375 6.9 1.375 9.452 0l19.36-10.424c2.552-1.374 2.55-3.715-.003-5.089L36.727 5.032C35.45 4.345 33.726 4 32 4z" fill="#48B9C7"/>
    <path d="M32 4c-1.725 0-3.446.344-4.723 1.031L7.914 15.457c-1.502.809-2.093 1.948-1.82 3.031.182-.75.778-1.47 1.82-2.031L27.277 6.031C28.554 5.344 30.275 5 32 5c1.725 0 3.45.344 4.727 1.031l19.359 10.426c1.042.561 1.638 1.281 1.82 2.031.273-1.083-.317-2.222-1.82-3.031L36.726 5.031C35.45 4.344 33.726 4.001 32 4z" opacity=".2" fill="#F9F5D7"/>
</svg>
