<svg xmlns="http://www.w3.org/2000/svg" width="64" height="64" version="1">
    <path d="M4.001 44.5v2c0 1.724 1.387 3.434 3.11 3.5H33l7 8 7-8h9.89c1.723 0 3.11-1.776 3.11-3.5v-2c0 1.724-1.387 3.5-3.11 3.5H47l-7 8-7-8H7.11C5.388 47.934 4 46.224 4 44.5z" opacity=".2"/>
    <path d="M7.112 7.001c-1.723 0-3.11 1.776-3.11 3.5v35c0 1.723 1.388 3.433 3.11 3.5H33L40 57l7-8h9.888C58.612 49 60 47.224 60 45.5V10.501c0-1.724-1.388-3.5-3.112-3.5z" fill="#928274"/>
    <path d="M7.111 7.002c-1.723 0-3.109 1.776-3.109 3.5v1c0-1.724 1.386-3.5 3.11-3.5h49.777c1.724 0 3.111 1.776 3.111 3.5v-1c0-1.724-1.387-3.5-3.111-3.5H7.11z" opacity=".1" fill="#F9F5D7"/>
    <path d="M41.5 40.5l-4.675-2.817M31 17.5c6.701 0 6.525 5.614 6.525 11.199S37.752 40.483 31 40.483c-6.559 0-6.474-6.214-6.474-11.8C24.526 23.098 24.2 17.5 31 17.5" opacity=".2" fill="none" stroke="#151819" stroke-width="5" stroke-linecap="round"/>
    <path d="M41.5 39.5l-4.675-2.818M31 16.5c6.701 0 6.525 5.613 6.525 11.198 0 5.586.227 11.784-6.525 11.784-6.559 0-6.474-6.214-6.474-11.8C24.526 22.099 24.2 16.5 31 16.5" fill="none" stroke="#F9F5D7" stroke-width="5" stroke-linecap="round"/>
</svg>
