<svg xmlns="http://www.w3.org/2000/svg" width="64" height="64" version="1">
    <path d="M10.1 5C8.937 5 8 5.937 8 7.1v6.8c0 1.163.937 2.1 2.1 2.1H13v34h-2.9c-1.163 0-2.1.937-2.1 2.1v6.8c0 1.163.937 2.1 2.1 2.1H26c15.464 0 28-12.536 28-28S41.464 5 26 5h-9.1z" opacity=".2"/>
    <path d="M10.1 4C8.937 4 8 4.937 8 6.1v6.8c0 1.163.937 2.1 2.1 2.1H13v34h-2.9c-1.163 0-2.1.937-2.1 2.1v6.8c0 1.163.937 2.1 2.1 2.1H26c15.464 0 28-12.536 28-28S41.464 4 26 4h-9.1z" fill="#928274"/>
    <path d="M10.1 4C8.936 4 8 4.936 8 6.1v1C8 5.936 8.936 5 10.1 5H26c15.296 0 27.719 12.268 27.986 27.5.003-.167.014-.332.014-.5C54 16.536 41.464 4 26 4H10.1zm0 45c-1.164 0-2.1.936-2.1 2.1v1c0-1.164.936-2.1 2.1-2.1H13v-1h-2.9z" fill="#F9F5D7" opacity=".2"/>
    <path d="M24 15h2c9.52 0 17 7.48 17 17s-7.48 17-17 17h-2z" opacity=".4"/>
    <circle cx="46.5" cy="48.5" r="15.5" opacity=".2"/>
    <circle cx="46.5" cy="47.5" r="15.5" fill="#D79921"/>
    <circle cx="46.5" cy="51.5" r="5.5" fill="#F9F5D7"/>
    <path fill="#F9F5D7" d="M49 37h3v15h-3z"/>
</svg>
