<svg xmlns="http://www.w3.org/2000/svg" width="64" height="64">
    <path d="M56 31.5c0 5.816-3.344 10.5-7.5 10.5H44v2h4.5c4.156 0 7.5-4.684 7.5-10.5zm-36 15v2c0 4.155 4.683 7.5 10.5 7.5h3c5.816 0 10.5-3.344 10.5-7.5v-2c0 4.156-4.684 7.5-10.5 7.5h-3C24.684 54 20 50.656 20 46.5z" opacity=".2"/>
    <path d="M44 19v6c0 3.324-2.676 6-6 6H26s-6 0-6 6v10.5c0 4.156 4.684 7.5 10.5 7.5h3c5.816 0 10.5-3.344 10.5-7.5V43h4.5c4.156 0 7.5-4.684 7.5-10.5v-3c0-5.816-3.344-10.5-7.5-10.5H44zm-6 28a2 2 0 0 1 2 2 2 2 0 0 1-2 2 2 2 0 0 1-2-2 2 2 0 0 1 2-2z" fill="#FECE4F"/>
    <path d="M44 19v1h4.5c4.156 0 7.5 4.684 7.5 10.5v-1c0-5.816-3.344-10.5-7.5-10.5H44zm0 6c0 3.324-2.676 6-6 6H26s-6 0-6 6v1c0-6 6-6 6-6h12c3.324 0 6-2.676 6-6v-1z" opacity=".1" fill="#F9F5D7"/>
    <path d="M44 24c0 6-6 6-6 6H26c-3.324 0-6 2.676-6 6v2c0-3.324 2.676-6 6-6h12s6 0 6-6zM8 31.5v2C8 39.316 11.345 44 15.5 44H20v-2h-4.5C11.345 42 8 37.316 8 31.5z" opacity=".2"/>
    <path d="M30.5 7C24.684 7 20 10.345 20 14.5V19h-4.5C11.345 19 8 23.684 8 29.5v3C8 38.316 11.345 43 15.5 43H20v-6c0-3.324 2.676-6 6-6h12s6 0 6-6V14.5C44 10.345 39.316 7 33.5 7h-3z" fill="#066678"/>
    <path d="M26 12a2 2 0 0 1 2 2 2 2 0 0 1-2 2 2 2 0 0 1-2-2 2 2 0 0 1 2-2z" opacity=".2"/>
    <path d="M26 11a2 2 0 0 1 2 2 2 2 0 0 1-2 2 2 2 0 0 1-2-2 2 2 0 0 1 2-2z" fill="#F9F5D7"/>
    <path d="M30.5 7C24.684 7 20 10.345 20 14.5v1C20 11.345 24.684 8 30.5 8h3C39.316 8 44 11.345 44 15.5v-1C44 10.345 39.316 7 33.5 7h-3zm-15 12C11.345 19 8 23.684 8 29.5v1C8 24.684 11.345 20 15.5 20H20v-1h-4.5z" opacity=".1" fill="#F9F5D7"/>
    <path d="M63.958 44.848A16 16 0 0 1 48 60a16 16 0 0 1-15.958-14.848A16 16 0 0 0 32 46a16 16 0 0 0 16 16 16 16 0 0 0 16-16 16 16 0 0 0-.042-1.152z" opacity=".2" fill-rule="evenodd"/>
    <circle cx="48" cy="45" r="16" fill="#BE4C1D"/>
    <path d="M46 37l-.176 2.107a6.286 6.286 0 0 0-1.837 1.063l-1.916-.902-2 3.464 1.74 1.208a6.286 6.286 0 0 0-.097 1.06 6.286 6.286 0 0 0 .092 1.065l-1.735 1.203 2 3.464 1.91-.9a6.286 6.286 0 0 0 1.842 1.056L46 53h4l.176-2.107a6.286 6.286 0 0 0 1.837-1.063l1.915.902 2-3.464-1.738-1.208a6.286 6.286 0 0 0 .096-1.06 6.286 6.286 0 0 0-.092-1.065l1.735-1.203-2-3.464-1.911.9a6.286 6.286 0 0 0-1.842-1.057L50 37h-4zm2 5.714A2.286 2.286 0 0 1 50.286 45 2.286 2.286 0 0 1 48 47.286 2.286 2.286 0 0 1 45.714 45 2.286 2.286 0 0 1 48 42.714z" fill="#F9F5D7"/>
</svg>
