<svg xmlns="http://www.w3.org/2000/svg" width="64" height="64" version="1">
    <g fill="#928274">
        <path d="M24 58h-2V6h2zM18 58h-2V6h2zM42 58h-2V6h2zM36 58h-2V6h2zM30 58h-2V6h2zM48 58h-2V6h2z"/>
        <path d="M12 24v-2h40v2zM12 18v-2h40v2zM12 12v-2h40v2zM12 42v-2h40v2zM12 36v-2h40v2zM12 30v-2h40v2zM12 48v-2h40v2zM12 54v-2h40v2z"/>
    </g>
    <rect width="48" height="36" x="-57" y="-50" rx="2.5" ry="2.5" transform="matrix(0 -1 -1 0 0 0)" opacity=".2"/>
    <rect width="48" height="36" x="-56" y="-50" rx="2.5" ry="2.5" transform="matrix(0 -1 -1 0 0 0)" fill="#504945"/>
    <path d="M16.5 8a2.495 2.495 0 0 0-2.5 2.5v1c0-1.385 1.115-2.5 2.5-2.5h31c1.385 0 2.5 1.115 2.5 2.5v-1C50 9.115 48.885 8 47.5 8h-31z" fill="#F9F5D7" opacity=".1"/>
    <path opacity=".4" fill="#F9F5D7" d="M41 14v12h-2V14zM41 28v6h-2v-6zM41 36v14h-2V36zM33 14v16h-2V14zM33 32v16h-2V32zM25 14v6h-2v-6zM25 22v6h-2v-6zM25 30v12h-2V30z"/>
    <circle cx="48" cy="47" r="16" opacity=".2"/>
    <circle cx="48" cy="46" r="16" fill="#8F3F71"/>
    <path d="M40 46a8 8 0 0 0 8 8c4.373 0 7.92-3.211 7.992-7.568.005-.044.008-.088.008-.132 0-.737-.764-1.3-1.5-1.3s-1.5.563-1.5 1.3c0 2.945-2.054 4.7-5 4.7-2.945 0-5-2.054-5-5 0-2.945 2.055-5 5-5v3l6-4.5-6-4.5v2.999a8 8 0 0 0-8 8z" fill="#F9F5D7"/>
</svg>
