<svg xmlns="http://www.w3.org/2000/svg" width="64" height="64">
    <circle cx="32" cy="33" r="28" opacity=".2"/>
    <path d="M57.69 32.462c0 10.79-3.793 19.692-12.735 24.367A27.879 27.879 0 0 1 32 60C16.536 60 4 47.464 4 32c0-2.702.383-5.315 1.097-7.787C8.47 12.538 20.162 6.31 32.924 6.31c15.464 0 24.766 10.688 24.766 26.152z" fill="#066678"/>
    <path d="M39.287 7.18a25.58 25.58 0 0 0-1.843.002c-5.78.218-12.648 4.01-14.992 9.536C19.805 22.958 18 32 32.002 32c3.701-6.363 13.371-5.073 17.452.34 3.613 4.792 3.417 11.313.716 16.427-2.257 4.274-6.064 8.522-11.16 10.342C51.085 56 60 45.039 60 32a27.929 27.929 0 0 0-7.927-19.526c-.237-.205-.497-.389-.744-.585-3.517-2.696-7.933-4.568-12.042-4.71z" fill="#FECE4F" fill-rule="evenodd"/>
    <path d="M31.415 4.006a27.87 27.87 0 0 0-13.41 3.748A27.93 27.93 0 0 0 5.058 24.382c-.053.279-.081.57-.126.853-.694 5.088 1.005 10.203 3.462 14.11 3.08 4.896 8.63 8.329 14.588 7.596 6.728-.828 12.682-8.555 9.02-14.94-7.361-.024-11.077-9.044-8.43-15.283 2.345-5.526 8.092-8.617 13.872-8.835 4.83-.182 10.412.99 14.536 4.492-5.456-5.562-12.953-8.523-20.565-8.37z" fill="#FA4934" fill-rule="evenodd"/>
    <path d="M39.287 7.879a25.595 25.595 0 0 0-1.844.004c-5.78.218-11.526 3.308-13.87 8.834-.623 1.468-.88 3.09-.835 4.713.068-1.283.34-2.547.834-3.713 2.345-5.526 8.091-8.616 13.871-8.834 4.83-.183 10.413.99 14.537 4.492a27.772 27.772 0 0 0-4.654-3.809c-2.592-1.078-5.382-1.596-8.039-1.687zM4.8 27.789c-.2 4.563 1.39 9.046 3.596 12.555 3.079 4.896 8.63 8.328 14.587 7.595 5.507-.677 10.485-5.974 10.108-11.377-.252 5.04-4.942 9.742-10.108 10.377-5.958.733-11.508-2.7-14.587-7.595-2.045-3.252-3.544-7.342-3.596-11.555z" opacity=".2" fill-rule="evenodd"/>
    <path d="M22.738 21.428C22.442 27.012 26.016 32.98 32.002 33c3.7-6.364 13.37-5.072 17.451.34 1.774 2.352 2.624 5.121 2.717 7.935.096-3.153-.733-6.304-2.717-8.935-4.08-5.412-13.75-6.704-17.451-.34-5.63-.018-9.114-5.298-9.264-10.572zm37.25 11.115C59.78 43.434 53.348 52.79 44.1 57.23c-1.514 1.209-3.213 2.21-5.088 2.88C51.085 57 60 46.037 60 33c0-.153-.01-.304-.012-.457z" opacity=".2" fill-rule="evenodd"/>
    <path d="M31.414 4.006a27.865 27.865 0 0 0-13.408 3.748A27.932 27.932 0 0 0 5.059 24.383c-.054.278-.083.568-.127.851a17.241 17.241 0 0 0-.133 2.555c.023-.518.062-1.036.133-1.555.044-.283.073-.573.127-.851a27.932 27.932 0 0 1 12.947-16.63 27.865 27.865 0 0 1 13.408-3.747c7.612-.153 15.11 2.806 20.566 8.369a16.662 16.662 0 0 0-1.957-1.42c.447.299.884.61 1.307.934.247.196.505.38.742.586a27.923 27.923 0 0 1 7.916 19.068c.004-.181.012-.361.012-.543a27.928 27.928 0 0 0-7.928-19.525c-.237-.205-.495-.39-.742-.586-.423-.324-.86-.635-1.307-.934.68.425 1.337.893 1.957 1.42-5.455-5.563-12.954-8.522-20.566-8.37zm20.756 37.27c-.08 2.591-.782 5.184-2 7.492-2.257 4.273-6.063 8.521-11.158 10.341A27.738 27.738 0 0 0 44.1 57.23c2.597-2.073 4.644-4.762 6.07-7.462 1.375-2.605 2.096-5.573 2-8.493z" opacity=".2" fill="#F9F5D7" fill-rule="evenodd"/>
</svg>
