<svg xmlns="http://www.w3.org/2000/svg" width="64" height="64">
    <circle cx="32.001" cy="53" r="8" opacity=".2"/>
    <circle cx="32.001" cy="51.999" r="8" fill="#7F7061"/>
    <path d="M8.895 5.013c-.21-.018-.4-.012-.57.02a1.286 1.286 0 0 0-.582.25c-1.314 1.04-.903 5.175 1.371 13.776 1.275 4.824 2.326 7.39 4.137 10.11 1.189 1.786 1.763 2.466 3.726 4.406 1.759 1.937 3.978 4.646 4.024 6.926-.505 4.5-3.8 6.857-4 10.687 0 4.638 2.161 7.813 6.8 7.813 2.91.291 5.595-3.475 8.2-4 2.605.525 5.29 4.291 8.199 4 4.64 0 6.8-3.175 6.8-7.813-.2-3.83-3.494-6.187-4-10.687.046-2.28 2.266-4.989 4.024-6.926 1.964-1.94 2.538-2.62 3.727-4.406 1.81-2.72 2.861-5.286 4.137-10.11 2.273-8.6 2.684-12.736 1.37-13.777a1.286 1.286 0 0 0-.581-.25 2.18 2.18 0 0 0-.57-.02c-.632.054-1.445.325-2.462.82-2.015.984-3.986 2.433-6.207 4.571-3.332 3.208-4.522 5.047-8.445 13.031-1.172 2.38-2.61 4.692-4.367 7.22C33.115 31.003 32 31 32 31s-1.114.004-1.625-.348c-1.758-2.527-3.196-4.84-4.367-7.219-3.923-7.984-5.114-9.823-8.446-13.03-2.22-2.139-4.191-3.588-6.207-4.571-1.016-.496-1.83-.767-2.46-.82z" opacity=".2"/>
    <path d="M29.75 52h1.5c.416 0 .75.335.75.75v3.9c0 .415-.334 1.35-.75 1.35h-1.5a.748.748 0 0 1-.75-.75v-4.5c0-.415.335-.75.75-.75z" opacity=".2"/>
    <path d="M29.75 51h1.5c.416 0 .75.335.75.75v3.9c0 .415-.334 1.35-.75 1.35h-1.5a.748.748 0 0 1-.75-.75v-4.5c0-.415.335-.75.75-.75z" fill="#F9F5D7"/>
    <path d="M32.75 52h1.5c.416 0 .75.335.75.75v4.5c0 .415-.334.75-.75.75h-1.5c-.415 0-.75-.934-.75-1.35v-3.9c0-.415.335-.75.75-.75z" opacity=".2"/>
    <path d="M32.75 51h1.5c.416 0 .75.335.75.75v4.5c0 .415-.334.75-.75.75h-1.5c-.415 0-.75-.934-.75-1.35v-3.9c0-.415.335-.75.75-.75z" fill="#F9F5D7"/>
    <path d="M8.895 4.012a2.18 2.18 0 0 0-.57.02 1.286 1.286 0 0 0-.582.25c-1.314 1.04-.903 5.175 1.371 13.777 1.275 4.823 2.326 7.389 4.137 10.109 1.189 1.786 1.763 2.466 3.726 4.406 1.759 1.937 3.978 4.646 4.024 6.926-.505 4.5-3.8 6.857-4 10.688C17 54.825 19.162 58 23.8 58c2.91.291 5.595-3.475 8.2-4 2.605.525 5.29 4.291 8.199 4 4.64 0 6.8-3.175 6.8-7.813-.2-3.83-3.494-6.187-4-10.687.046-2.28 2.266-4.989 4.024-6.926 1.964-1.94 2.538-2.62 3.727-4.406 1.81-2.72 2.861-5.286 4.137-10.11 2.273-8.6 2.684-12.736 1.37-13.777a1.286 1.286 0 0 0-.581-.25 2.18 2.18 0 0 0-.57-.02c-.632.054-1.445.326-2.462.821-2.015.983-3.986 2.432-6.207 4.57-3.332 3.209-4.522 5.048-8.445 13.032-1.172 2.378-2.61 4.691-4.367 7.218C33.115 30.004 32 30 32 30s-1.114.004-1.625-.348c-1.758-2.527-3.196-4.84-4.367-7.218-3.923-7.984-5.114-9.823-8.446-13.032-2.22-2.138-4.191-3.587-6.207-4.57-1.016-.495-1.83-.767-2.46-.82z" fill="#A79984"/>
    <path d="M9.86 7.232c.005.302-.033.413.009.829.193 1.948.833 5.05 1.952 9.286 1.24 4.694 2.125 6.82 3.762 9.28h-.002c1.139 1.712 1.44 2.06 3.366 3.965l.054.052.05.057c.823.908 1.834 1.954 2.717 3.183a14 14 0 0 1 5.24-3.678c-1.414-2.283-2.569-4.618-3.512-6.532v-.003c-3.898-7.937-4.687-9.177-7.874-12.247-2.08-2.004-3.809-3.255-5.494-4.077-.232-.113-.081-.047-.267-.115zm44.68.014c-.126.055-.128.032-.269.101-1.685.822-3.412 2.073-5.493 4.077-3.188 3.07-3.976 4.31-7.875 12.247v.003c-.943 1.915-2.1 4.251-3.513 6.535a14 14 0 0 1 5.241 3.678c.884-1.23 1.894-2.278 2.718-3.186l.05-.057.054-.052c1.926-1.904 2.227-2.253 3.366-3.965h-.003c1.637-2.46 2.522-4.586 3.763-9.28 1.119-4.235 1.758-7.338 1.952-9.286.04-.41.003-.516.008-.815z" opacity=".3"/>
    <path d="M32 54c-2.575-.198-4.787-3.066-3.73-4.48A5.249 5.249 0 0 1 32 48a5.25 5.25 0 0 1 3.73 1.52c1.057 1.414-1.155 4.282-3.73 4.48z" fill="#A04A73"/>
    <path d="M25.653 47c-1.902 0-4.648-1.343-4.648-3s-.18-3 1.721-3c4.888.507 5.165 6 2.927 6z" opacity=".2"/>
    <path d="M25.653 46c-1.902 0-4.648-1.344-4.648-3 0-1.657-.18-3 1.721-3 4.888.506 5.165 6 2.927 6z" fill="#F9F5D7"/>
    <circle cx="25.5" cy="44.5" r="1.5" fill="#322F2E"/>
    <path d="M38.349 47c1.901 0 4.648-1.343 4.648-3s.18-3-1.722-3c-4.888.507-5.165 6-2.926 6z" opacity=".2"/>
    <path d="M38.349 46c1.901 0 4.648-1.344 4.648-3 0-1.657.18-3-1.722-3-4.888.506-5.165 6-2.926 6z" fill="#F9F5D7"/>
    <circle cx="-38.5" cy="44.5" r="1.5" transform="scale(-1 1)" fill="#322F2E"/>
    <path d="M8.895 4.012a2.18 2.18 0 0 0-.57.02 1.286 1.286 0 0 0-.583.25c-.554.438-.78 1.468-.71 3.11.054-1.056.28-1.77.71-2.11.16-.128.355-.21.582-.25.171-.032.36-.038.57-.02.632.053 1.445.325 2.461.82 2.016.983 3.987 2.432 6.207 4.57 3.332 3.209 4.523 5.048 8.446 13.032 1.172 2.378 2.61 4.691 4.367 7.218C30.885 31.004 32 31 32 31s1.114.004 1.625-.348c1.758-2.527 3.195-4.84 4.367-7.218 3.923-7.984 5.114-9.823 8.446-13.032 2.22-2.138 4.191-3.587 6.207-4.57 1.016-.495 1.83-.767 2.46-.82.21-.018.4-.012.57.02.228.04.422.122.583.25.43.34.658 1.054.713 2.11.07-1.642-.16-2.672-.713-3.11a1.286 1.286 0 0 0-.582-.25 2.18 2.18 0 0 0-.57-.02c-.632.053-1.445.325-2.461.82-2.016.983-3.987 2.432-6.208 4.57-3.331 3.209-4.522 5.048-8.445 13.032-1.172 2.378-2.61 4.691-4.367 7.218C33.115 30.004 32 30 32 30s-1.114.004-1.625-.348c-1.758-2.527-3.195-4.84-4.367-7.218-3.923-7.984-5.114-9.823-8.445-13.032-2.221-2.138-4.192-3.587-6.208-4.57-1.016-.495-1.83-.767-2.46-.82zM20.93 39.959c-.669 4.202-3.737 6.532-3.93 10.228 0 .264.01.522.023.776C17.34 47.265 20.505 44.91 21 40.5c-.004-.177-.042-.36-.07-.541zm22.14.002c-.028.18-.066.363-.07.539.495 4.41 3.661 6.765 3.977 10.463.014-.254.023-.512.023-.776-.193-3.696-3.26-6.025-3.93-10.226z" opacity=".2" fill="#F9F5D7"/>
</svg>
