<svg xmlns="http://www.w3.org/2000/svg" width="64" height="64" version="1">
    <path d="M31.942 37.252a1.087 1.391 0 0 0-.883.694l-9.913 21.966A1.087 1.391 0 0 0 22.088 62h19.824a1.087 1.391 0 0 0 .942-2.088L32.94 37.946a1.087 1.391 0 0 0-1-.694z" opacity=".2"/>
    <path d="M31.942 36.252a1.087 1.391 0 0 0-.883.694l-9.913 21.966A1.087 1.391 0 0 0 22.088 61h19.824a1.087 1.391 0 0 0 .942-2.088L32.94 36.946a1.087 1.391 0 0 0-1-.694z" fill="#CB241D"/>
    <path d="M32 4c-2.094.633-17.103 16.272-21.386 22.336-6.667 9.442-8.282 15.736-4.897 20.539 2.228 3.162 6.446 5 10.672 5.124 6.589.07 11.646-3.071 15.611-7.074 3.965 4.003 9.022 7.144 15.61 7.074 4.227-.124 8.445-1.962 10.673-5.124 3.385-4.803 1.77-11.097-4.897-20.539C49.103 20.272 34.094 4.633 32 4z" opacity=".2"/>
    <path d="M32 3c-2.094.633-17.103 16.272-21.386 22.336-6.667 9.442-8.282 15.736-4.897 20.539 2.228 3.162 6.446 5 10.672 5.124 6.589.07 11.646-3.071 15.611-7.074 3.965 4.003 9.022 7.144 15.61 7.074 4.227-.124 8.445-1.962 10.673-5.124 3.385-4.803 1.77-11.097-4.897-20.539C49.103 19.272 34.094 3.633 32 3z" fill="#FA4934"/>
    <path d="M32 3c-2.094.633-17.104 16.271-21.387 22.336C6.034 31.82 3.858 36.812 4.03 40.863c.193-3.867 2.376-8.568 6.584-14.527C14.896 20.27 29.906 4.633 32 4c2.094.633 17.104 16.271 21.387 22.336 4.208 5.96 6.39 10.66 6.584 14.527.17-4.051-2.005-9.043-6.584-15.527C49.104 19.27 34.094 3.633 32 3z" opacity=".2" fill="#F9F5D7"/>
    <path d="M18 20v26h6V28.318l4.04 4.44 3.96 3.96 3.96-3.96 4.04-4.44V46h6V20h-6l-8 8.4-8-8.4z" opacity=".2"/>
    <path d="M18 19v26h6V27.318l4.04 4.44 3.96 3.96 3.96-3.96 4.04-4.44V45h6V19h-6l-8 8.4-8-8.4z" fill="#F9F5D7"/>
</svg>
