<svg xmlns="http://www.w3.org/2000/svg" width="64" height="64" version="1">
    <path d="M52.008 34a9 9 0 0 0-8.746 6.924H30.684A14 14 0 0 1 17 52h35.008a9 9 0 0 0 9-9 9 9 0 0 0-9-9zM17 52a14 14 0 0 1-.3-.016V52h.3z" opacity=".2"/>
    <path d="M52.008 33a9 9 0 0 0-8.746 6.923H16.7V51h35.308a9 9 0 0 0 9-9 9 9 0 0 0-9-9z" fill="#448588"/>
    <path d="M52.008 33a9 9 0 0 0-8.746 6.924H16.699v1h26.563A9 9 0 0 1 52.008 34a9 9 0 0 1 8.978 8.576 9 9 0 0 0 .022-.576 9 9 0 0 0-9-9z" opacity=".1" fill="#F9F5D7"/>
    <circle cx="17" cy="38" r="14" opacity=".2"/>
    <circle cx="17" cy="37" r="14" fill="#48B9C7"/>
    <path d="M17 23A14 14 0 0 0 3 37a14 14 0 0 0 .021.586A14 14 0 0 1 17 24a14 14 0 0 1 13.979 13.414A14 14 0 0 0 31 37a14 14 0 0 0-14-14z" opacity=".1" fill="#F9F5D7"/>
    <circle cx="48.5" cy="32.5" r="8.5" opacity=".2"/>
    <circle cx="48.5" cy="31.5" r="8.5" fill="#48B9C7"/>
    <path d="M48.5 23a8.5 8.5 0 0 0-8.5 8.5 8.5 8.5 0 0 0 .021.586A8.5 8.5 0 0 1 48.5 24a8.5 8.5 0 0 1 8.479 7.914A8.5 8.5 0 0 0 57 31.5a8.5 8.5 0 0 0-8.5-8.5z" opacity=".1" fill="#F9F5D7"/>
    <circle cx="32" cy="33" r="18" opacity=".2"/>
    <circle cx="32" cy="32" r="18" fill="#48B9C7"/>
    <path d="M32 19a14 14 0 0 0-14 14 14 14 0 0 0 14 14 14 14 0 0 0 14-14 14 14 0 0 0-14-14zm0 3a11 11 0 0 1 11 11 11 11 0 0 1-11 11 11 11 0 0 1-11-11 11 11 0 0 1 11-11z" opacity=".2"/>
    <path d="M32 18a14 14 0 0 0-14 14 14 14 0 0 0 14 14 14 14 0 0 0 14-14 14 14 0 0 0-14-14zm0 3a11 11 0 0 1 11 11 11 11 0 0 1-11 11 11 11 0 0 1-11-11 11 11 0 0 1 11-11z" fill="#F9F5D7"/>
    <path d="M28.1 26c-1.164 0-2.1.912-2.1 2.045v10.908c0 1.133.936 2.047 2.1 2.047 1.163 0 1.845-.915 1.9-2.047v-1.846h4.4c3.093 0 5.6-2.44 5.6-5.453C40 28.642 37.493 26 34.4 26zm1.9 4.047h4.55c.852 0 1.45.78 1.45 1.601 0 .822-.598 1.418-1.45 1.399H30z" opacity=".2"/>
    <path d="M28.1 25c-1.164 0-2.1.912-2.1 2.045v10.908c0 1.133.936 2.047 2.1 2.047 1.163 0 1.845-.915 1.9-2.047v-1.846h4.4c3.093 0 5.6-2.44 5.6-5.453C40 27.642 37.493 25 34.4 25zm1.9 4.047h4.55c.852 0 1.45.78 1.45 1.601 0 .822-.598 1.418-1.45 1.399H30z" fill="#F9F5D7"/>
    <path d="M32 14a18 18 0 0 0-18 18 18 18 0 0 0 .021.586A18 18 0 0 1 32 15a18 18 0 0 1 17.979 17.414A18 18 0 0 0 50 32a18 18 0 0 0-18-18z" opacity=".2" fill="#F9F5D7"/>
</svg>
