<svg xmlns="http://www.w3.org/2000/svg" width="64" height="64">
    <rect width="12" height="26" x="8" y="25" rx="3" ry="2.889" opacity=".2"/>
    <rect width="12" height="26" x="44" y="25" rx="3" ry="2.889" opacity=".2"/>
    <path d="M16.77 25H50v33.2c0 1.551-1.235 2.8-2.77 2.8h-9.692l-4.153-6h-2.77l-4.153 6h-9.693C15.235 61 14 59.751 14 58.2V25z" opacity=".2"/>
    <rect width="12" height="26" x="44" y="24" rx="3" ry="2.889" fill="#578D57"/>
    <path d="M47 24c-1.662 0-3 1.29-3 2.89v1c0-1.6 1.338-2.89 3-2.89h6c1.662 0 3 1.29 3 2.89v-1c0-1.6-1.338-2.89-3-2.89h-6z" opacity=".1" fill="#F9F5D7"/>
    <rect width="12" height="26" x="8" y="24" rx="3" ry="2.889" fill="#578D57"/>
    <path d="M11 24c-1.662 0-3 1.29-3 2.89v1C8 26.29 9.338 25 11 25h6c1.662 0 3 1.29 3 2.89v-1c0-1.6-1.338-2.89-3-2.89h-6z" opacity=".1" fill="#F9F5D7"/>
    <path d="M16.77 24H50v33.2c0 1.551-1.235 2.8-2.77 2.8h-9.692l-4.153-6h-2.77l-4.153 6h-9.693C15.235 60 14 58.751 14 57.2V24z" fill="#7CB668"/>
    <ellipse cx="32" cy="22.2" rx="18" ry="18.2" fill="#7CB668"/>
    <path d="M32 11c-6.627 0-12 4.776-12 10.667.005.446.04 2.891.108 3.333h23.787c.066-.442.101-2.887.105-3.333C44 15.776 38.627 11 32 11z" opacity=".2"/>
    <path d="M32 10c-6.627 0-12 4.776-12 10.667.005.446.04 2.891.108 3.333h23.787c.066-.442.101-2.887.105-3.333C44 14.776 38.627 10 32 10z" fill="#F9F5D7"/>
    <circle cx="27" cy="18" r="3" fill="#3A393A"/>
    <path d="M32 30a5 5 0 0 0-5 5v2h-1.666c-.739 0-1.334.808-1.334 1.6v8.972c0 .792.595 1.428 1.334 1.428h13.332c.739 0 1.334-.636 1.334-1.428V38.6c0-.792-.601-1.694-1.334-1.6H37v-2a5 5 0 0 0-5-5zm0 2a3 3 0 0 1 3 3v1.96l-.088.04H29v-2a3 3 0 0 1 3-3z" opacity=".2"/>
    <path d="M32 29a5 5 0 0 0-5 5v2h-1.666c-.739 0-1.334.808-1.334 1.6v8.972c0 .792.595 1.428 1.334 1.428h13.332c.739 0 1.334-.636 1.334-1.428V37.6c0-.792-.601-1.694-1.334-1.6H37v-2a5 5 0 0 0-5-5zm0 2a3 3 0 0 1 3 3v1.96l-.088.04H29v-2a3 3 0 0 1 3-3z" fill="#F9F5D7"/>
    <circle cx="37" cy="18" r="3" fill="#3A393A"/>
    <path d="M32 4a18 18.2 0 0 0-18 18.2 18 18.2 0 0 0 .018.484A18 18.2 0 0 1 32 5a18 18.2 0 0 1 17.975 17.693A18 18.2 0 0 0 50 22.2 18 18.2 0 0 0 32 4z" opacity=".2" fill="#F9F5D7"/>
</svg>
