<svg xmlns="http://www.w3.org/2000/svg" width="64" height="64">
    <path d="M19 5a2.988 2.988 0 0 0-2.594 1.52 2.786 2.786 0 0 0-2.955-.175 2.8 2.8 0 0 0 2.697 4.905 2.76 2.76 0 0 0 .98-.924c.28.225.598.398.946.511a3.492 3.492 0 0 0 1.977 3.848c1.76.8 3.84.024 4.635-1.736a3.501 3.501 0 0 0-1.737-4.635 3.467 3.467 0 0 0-.955-.262c0-.018.006-.034.006-.052 0-1.656-1.345-3-3-3zM8.943 15.352l-.003.123c0 .697-2.946 1.96-2.94 5.457 1.634-.931 4.105-.932 4.34-.932.029.04.063.074.093.114-.942-1.2-1.465-3.236-1.49-4.762zM29.926 51.67c-.011.009.014.085.09.175-.04-.1-.08-.181-.09-.175zm.09.175c.012.027.013.01.025.047.828 2.26-.465 3.798-.8 4.176-2.702.283-5.266 1.36-5.47 1.564-.933.703-.933 1.968-.457 2.67.47.464 1.17.698 1.639.698.47 0 .933-.233 1.403-.468.464-.234 2.521-2.532 4.16-2.532 1.638 0 2.71 2.064 3.18 2.532.933.698 2.108.462 2.806-.235.7-.697.698-1.962-.235-2.665-.092-.091-.656-.37-1.406-.664-.003-.015 0-.024-.003-.039 0 0-1.541-.597-1.541-3.632 0-.468-.94-1.399-2.108-1.165-.695.116-1.044-.112-1.192-.287z" opacity=".2"/>
    <path d="M8.943 14.352l-.003.123c0 .697-2.946 1.96-2.94 5.457 1.634-.931 4.105-.932 4.34-.932.029.04.063.074.093.114-.942-1.2-1.465-3.236-1.49-4.762zM29.926 50.67c-.011.009.014.085.09.175-.04-.1-.08-.181-.09-.175zm.09.175c.012.027.013.01.025.047.828 2.26-.465 3.798-.8 4.176-2.702.283-5.266 1.36-5.47 1.564-.933.703-.933 1.968-.457 2.67.47.464 1.17.698 1.639.698.47 0 .933-.233 1.403-.468.464-.234 2.521-2.532 4.16-2.532 1.638 0 2.71 2.064 3.18 2.532.933.698 2.108.462 2.806-.235.7-.697.698-1.962-.235-2.665-.092-.091-.656-.37-1.406-.664-.003-.015 0-.024-.003-.039 0 0-1.541-.597-1.541-3.632 0-.468-.94-1.399-2.108-1.165-.695.116-1.044-.112-1.192-.287z" fill="#FD8019"/>
    <path d="M19 4c-1.655 0-3 1.345-3 3s1.345 3 3 3 3-1.345 3-3-1.345-3-3-3z" fill="#CB241D"/>
    <path d="M22.948 7.315a3.498 3.498 0 1 0-2.896 6.37c1.76.8 3.84.023 4.633-1.737a3.5 3.5 0 0 0-1.737-4.633zM13.45 5.347a2.798 2.798 0 0 0-1.102 3.8 2.792 2.792 0 0 0 3.801 1.104 2.798 2.798 0 0 0 1.103-3.801 2.798 2.798 0 0 0-3.801-1.103z" fill="#CB241D"/>
    <path d="M15.998 9c-3.712.004-6.775 2.893-6.981 6.583-.02.167-.017.333-.016.498v.009a6.95 6.95 0 0 0 1.49 4.176C11.649 21.83 13 22.99 13 25.033c0 3.949-3 6.736-3 12.311C10 48.962 25.52 55 32.052 55c3.276 0 5.891-.635 7.553-1.277C46.536 50.74 48.66 40.85 56 37c-.703-.927-.947-2.443-2.2-2.91.937-1.16 1.566-.857 3.2-1.09-1.166-1.394-2.545-3.083-4.18-3.083 2.801-.7 5.18-6.43 5.18-9.917-.931 2.321-7.518 9-21.05 9-9.442-.809-11.797-10.18-14.974-16.646A7.008 7.008 0 0 0 15.998 9z" opacity=".2"/>
    <path d="M15.998 8c-3.712.004-6.775 2.893-6.981 6.583-.02.167-.017.333-.016.498v.009a6.95 6.95 0 0 0 1.49 4.176C11.649 20.83 13 21.99 13 24.033c0 3.949-3 6.736-3 12.311C10 47.962 25.52 54 32.052 54c3.276 0 5.891-.635 7.553-1.277C46.536 49.74 48.66 39.85 56 36c-.703-.927-.947-2.443-2.2-2.91.937-1.16 1.566-.857 3.2-1.09-1.166-1.394-2.545-3.083-4.18-3.083 2.801-.7 5.18-6.43 5.18-9.917-.931 2.321-7.518 9-21.05 9-9.442-.809-11.797-10.18-14.974-16.646A7.008 7.008 0 0 0 15.998 8z" fill="#D5C3A0"/>
    <path d="M14.5 17c1.245 0 2.5-1.255 2.5-2.5S15.755 12 14.5 12 12 13.255 12 14.5s1.245 2.5 2.5 2.5z" opacity=".2"/>
    <path d="M14.5 16c1.245 0 2.5-1.255 2.5-2.5S15.755 11 14.5 11 12 12.255 12 13.5s1.245 2.5 2.5 2.5z" fill="#F9F5D7"/>
    <circle cx="14.5" cy="13.5" r="1.5" fill="#3A393A"/>
    <path d="M19 4a2.988 2.988 0 0 0-2.594 1.52 2.786 2.786 0 0 0-2.955-.174 2.792 2.792 0 0 0-1.392 2.957 2.781 2.781 0 0 1 1.392-1.957 2.786 2.786 0 0 1 2.955.174A2.988 2.988 0 0 1 19 5c1.655 0 3 1.345 3 3 0 .018-.006.035-.006.053.322.046.644.12.955.261a3.492 3.492 0 0 1 2.004 2.643c.196-1.485-.568-2.99-2.004-3.643a3.467 3.467 0 0 0-.955-.261c0-.018.006-.035.006-.053 0-1.655-1.345-3-3-3zm-.965 6.82c.007.072.007.144.018.215.009-.066.008-.131.021-.197-.014-.005-.025-.013-.039-.018z" fill="#F9F5D7" opacity=".1"/>
    <path d="M15.998 8c-3.712.004-6.775 2.894-6.98 6.584-.02.167-.019.333-.018.498v.008c.002.113.026.223.033.336.284-3.614 3.307-6.422 6.965-6.426a7.01 7.01 0 0 1 5.979 3.354C25.153 18.819 27.507 28.19 36.949 29c13.249 0 19.824-6.391 20.969-8.838.05-.405.082-.797.082-1.162-.931 2.321-7.519 9-21.05 9-9.442-.809-11.797-10.181-14.973-16.646A7.01 7.01 0 0 0 15.998 8zm-3.027 16.68C12.674 28.299 10 31.077 10 36.344c0 .148.013.293.018.44C10.21 31.581 13 28.844 13 25.033c0-.125-.02-.236-.03-.354zm41.107 4.568c-.405.321-.825.562-1.258.67 1.283 0 2.405 1.039 3.393 2.16.243-.019.483-.035.787-.078-.854-1.021-1.823-2.194-2.922-2.752zm.354 4.242a2.872 2.872 0 0 0-.631.602c.957.356 1.326 1.321 1.76 2.172.148-.086.286-.184.439-.264-.563-.743-.84-1.854-1.568-2.51z" fill="#F9F5D7" opacity=".2"/>
</svg>
