<svg xmlns="http://www.w3.org/2000/svg" width="64" height="64" version="1">
    <circle cx="32" cy="33" r="28" opacity=".2"/>
    <circle cx="32" cy="32" r="28" fill="#8F3F71"/>
    <circle cx="-32" cy="33" r="20" transform="scale(-1 1)" opacity=".2"/>
    <circle cx="-32" cy="32" r="20" transform="scale(-1 1)" fill="#FAEEBB"/>
    <path d="M33.889 12.107a20 20 0 0 1 7.238 2.1c-.101.32.017.681.385 1 .249.216.453.552.453.748 0 .6-.542 1.52-.975 1.654-.575.178-.382.792.358 1.131.342.157.763.609.935 1.004.173.396.427.786.565.867.137.082.25.391.25.688 0 .415-.19.616-.813.865-.446.179-.98.309-1.187.289-1.191-.112-1.274.582-.233 1.938.553.72.819.901 1.196.81.351-.084.543.015.703.363.168.369.444.494 1.185.545.729.051 1.055.199 1.328.598.2.291.488.527.641.527.153 0 .514.196.8.434.585.485.813.534 1.018.217.271-.42.855-.208 1.725.625.769.736.862.933.746 1.572-.206 1.137-.823 2.146-1.527 2.498-.615.307-.627.34-.254.734.214.227.582.47.816.541.677.206.296.464-.912.618-1.236.157-1.62.605-1.043 1.216.322.341.304.405-.213.729-1.01.634-1.813.246-.865-.418.61-.427.183-.601-.711-.291-.713.247-.854.233-1.275-.133-.865-.749-1.805.359-1.014 1.195.503.533.351 1.175-.301 1.264-.288.039-.886.307-1.33.596-.444.288-.928.525-1.074.525-.146 0-.558.293-.916.651-.726.725-1.129.817-1.334.306-.246-.614-.147-.931.516-1.654.527-.576 1.384-2.106 1.384-2.473 0-.226-.871-.034-1.359.299a7.112 7.112 0 0 1-1.098.6c-.318.13-.648.534-.799.976-.235.694-.328.754-1.16.754h-.904l-.137 1.625c-.164 1.955-.321 2.351-.992 2.512-.494.119-1.021.884-1.021 1.482 0 .159.355.549.789.866.538.393.77.727.734 1.054-.045.409.048.473.627.43.373-.028 1.021.103 1.437.291a2.61 2.61 0 0 0 1.528.203c.576-.103.771-.063.771.162 0 .166.202.476.448.69.608.527.357.806-.577.638-.58-.104-.806-.058-.906.192-.213.531.327 1.291.828 1.166.318-.08.47.029.569.404a.927.927 0 0 0 .172.342 20 20 0 0 1-3.165.935c.1-.191.214-.365.325-.443.515-.364.17-1.31-.539-1.48-.723-.174-.609-.643.177-.733.689-.078 1.422-.776 1.192-1.133-.155-.239-.814-.204-2.147.112-.602.142-1.013-.144-2.408-1.67-.807-.884-1.428-1.252-2.109-1.252-.26 0-1.187-.239-2.061-.531-1.65-.553-2.295-.533-2.234.07.126 1.254-.681 1.212-1.996-.102-.548-.547-1.049-.943-1.114-.881-.251.241.201 1.414.729 1.889.669.602.702.982.113 1.283-.322.166-.459.501-.51 1.254l-.068 1.028h-.836c-.293 0-.536.04-.732.115a20 20 0 0 1-9.69-16.506c.306-.654.284-1.049 0-1.494a20 20 0 0 1 .09-1.121c.182-.009.368-.017.582-.008 1.008.042 1.871-.355 1.871-.861 0-.107.358-.548.795-.979.496-.488.75-.92.676-1.144-.068-.204.078-.533.336-.756.251-.218.457-.568.457-.778 0-.335.213-.377 1.754-.34l1.754.043-.03 1.729c-.052 3.028-.503 3.814-1.894 3.307-.637-.233-2.202-.057-2.647.296-.161.128-.394.592-.517 1.032-.124.439-.582 1.2-1.02 1.689-.886.992-.955 1.379-.447 2.543.443 1.016.921.899.826-.203l-.07-.82.75.14c.415.079.935.385 1.168.688.332.431.487.494.736.297a.937.937 0 0 0 .315-.645c0-.216.214-.456.474-.535.261-.079.618-.472.793-.875.281-.644.274-.841-.053-1.623-.331-.793-.334-.924-.029-1.217.28-.268.425-.277.793-.056.37.221.545.205.985-.09.293-.197.806-.36 1.138-.36.675 0 .879-.328.879-1.414 0-1.003.598-1.367 2.022-1.236.988.091 1.206.026 2.003-.588.493-.379 1.271-1.291 1.731-2.029a55.77 55.77 0 0 1 1.1-1.713c.208-.295.157-.578-.25-1.381l-.514-1.01 1.086.147c1.932.261 2.323.511 1.492.957-.324.173-.338.262-.088.551.164.188.241.487.17.664-.071.176.019.592.199.923.181.332.332.797.338 1.036.019.745 1.295 1.338 2.717 1.259 2.154-.119 2.329-.085 3.094.625.956.888 1.079 1.301.634 2.125-.431.8-1.197 1.119-2.523 1.053-1.186-.059-1.32.046-1.049.83.231.666 1.005.922 1.53.506.404-.321 1.797-.073 2.224.397.179.196.445.712.59 1.144.25.746.323.792 1.443.9 1.118.109 1.226.073 2.03-.668.897-.826 1.049-1.458.617-2.546-.192-.482-.334-.561-.846-.467-1.014.185-1.414-.167-1.414-1.25 0-.525.102-1.016.227-1.09.124-.074.226-.352.226-.619s.128-.611.283-.762c.227-.22.194-.338-.168-.594-.248-.175-.656-.293-.906-.263-.249.03-.938-.078-1.531-.239-.857-.231-1.109-.406-1.225-.857-.22-.856-.757-1.543-1.207-1.543-.711 0-.726-1.672-.035-4.104.102-.359.383-.587.879-.71.402-.1.839-.374.971-.61.131-.236.372-.428.535-.428.163 0 .482-.195.707-.433.227-.24.696-.434 1.053-.434.845 0 .859-.582.021-.888-.885-.325-2.263.1-2.596.8-.451.95-.952.553-1.113-.88-.199-1.774-.811-2.284-2.74-2.284h-1.387l.608-.607c.189-.19.346-.421.455-.649zm-7.19.63c.039.035.077.063.115.103.464.473.682.54 1.399.432 1.252-.191 1.091.313-.295.921-.749.33-1.231.705-1.395 1.084-.79 1.832-1.334 2.818-1.607 2.918-.552.203-.881-.204-1.004-1.246-.141-1.195-.545-1.448-1.271-.795-.282.254-.676.461-.875.461-.621 0-1.08.25-1.08.586 0 .178-.21.605-.467.951-.379.509-.636.631-1.344.631-.869 0-1.402.163-2.49.764-.017.009-.034.012-.051.021a20 20 0 0 1 10.365-6.832zm25.297 19.177A20 20 0 0 1 52 32a20 20 0 0 1-.39 3.842c-.725.295-.926.178-1-.496-.04-.349-.222-.744-.407-.88-.286-.212-.235-.32.351-.72.38-.259.754-.71.83-1.004.075-.284.327-.594.612-.828zm-6.295 6.611c.187-.019.412.081.662.321.53.506.45 1.523-.15 1.925-.687.461-.952.327-1.04-.523-.106-1.048.118-1.68.528-1.723zm-3.394 3.024c.204.007.429.153.654.461.239.326.304.747.213 1.386-.113.786-.064.954.347 1.165.529.27.642 1.074.209 1.488-.43.412-.84.304-.988-.26-.21-.804-1.387-.898-2.191-.176-.343.308-.623.464-.623.346 0-.118.357-.547.793-.95.667-.62.79-.885.79-1.683 0-1.126.346-1.79.796-1.777zm5.574 2.582a20 20 0 0 1-.463.584c.136-.21.292-.413.463-.584zm-6.74 3.07c.1.035.144.162.144.385 0 .226.144.463.32.527.234.086.288.357.198 1.004-.017.121-.022.218-.028.32a20 20 0 0 1-.832.426c.014-.346-.05-.753-.23-1.263-.307-.866-.318-1.083-.068-1.235.234-.142.394-.199.496-.164z" opacity=".2"/>
    <path d="M32 4A28 28 0 0 0 4 32a28 28 0 0 0 .018.492A28 28 0 0 1 32 5a28 28 0 0 1 27.975 27.492A28 28 0 0 0 60 32 28 28 0 0 0 32 4z" opacity=".1" fill="#F9F5D7"/>
    <path d="M32 12a20 20 0 0 0-20 20 20 20 0 0 0 .021.408A20 20 0 0 1 32 13a20 20 0 0 1 19.979 19.576A20 20 0 0 0 52 32a20 20 0 0 0-20-20z" opacity=".2" fill="#F9F5D7"/>
</svg>
