<svg xmlns="http://www.w3.org/2000/svg" width="64" height="64" version="1">
    <path d="M32.188 5.004a6.332 6.367 0 0 0-3.315.849l-18.63 10.816a6.332 6.367 0 0 0-3.166 5.514v21.634a6.332 6.367 0 0 0 3.165 5.513l18.63 10.817a6.332 6.367 0 0 0 6.332 0l18.63-10.817A6.332 6.367 0 0 0 57 43.816V22.183a6.332 6.367 0 0 0-3.166-5.515L35.204 5.852a6.332 6.367 0 0 0-3.016-.849z" opacity=".2"/>
    <path d="M32.188 4.004a6.332 6.367 0 0 0-3.315.849l-18.63 10.816a6.332 6.367 0 0 0-3.166 5.514v21.634a6.332 6.367 0 0 0 3.165 5.514l18.63 10.816a6.332 6.367 0 0 0 6.332 0l18.63-10.816A6.332 6.367 0 0 0 57 42.816V21.183a6.332 6.367 0 0 0-3.166-5.515L35.204 4.852a6.332 6.367 0 0 0-3.016-.849z" fill="#504945"/>
    <path d="M7.077 21.779v21.038a6.373 6.373 0 0 0 3.165 5.515L28.873 59.15c.963.556 2.016.849 3.127.847v-22a6.168 6.168 0 0 1-3.21-.847L10.16 26.333a6.367 6.367 0 0 1-3.083-4.554z" opacity=".1" fill="#F9F5D7"/>
    <path d="M32.104 4.002a6.332 6.367 0 0 0-3.315.851L10.158 15.67A6.332 6.367 0 0 0 7 20.947a6.332 6.367 0 0 0 3.158 5.386L28.789 37.15a6.332 6.367 0 0 0 6.33 0l18.632-10.816a6.332 6.367 0 0 0 3.157-5.277 6.332 6.367 0 0 0-3.157-5.387L35.119 4.853a6.332 6.367 0 0 0-3.015-.851z" opacity=".2" fill="#F9F5D7"/>
    <path d="M40.503 8.928L7.077 28.41v15.407a6.332 6.367 0 0 0 .046.73L54.357 17.02a6.332 6.367 0 0 0-.522-.35l-13.332-7.74z" opacity=".2"/>
    <path d="M40.503 7.928L7.077 27.41v15.407a6.332 6.367 0 0 0 .046.73L54.357 16.02a6.332 6.367 0 0 0-.522-.35l-13.332-7.74z" fill="#48B9C7"/>
    <path d="M9.582 25.95l-2.505 1.461v15.406a6.332 6.367 0 0 0 .045.73l16.313-9.507-13.276-7.707a6.332 6.367 0 0 1-.577-.383z" fill="#48B9C7"/>
    <path d="M32.187 4.002a6.332 6.367 0 0 0-3.315.852L10.242 15.67a6.332 6.367 0 0 0-3.165 5.516 6.332 6.367 0 0 1 3.08-4.516L28.79 5.854a6.332 6.367 0 0 1 3.315-.852 6.332 6.367 0 0 1 3.015.852L53.75 16.67a6.332 6.367 0 0 1 3.158 5.387 6.332 6.367 0 0 1-.002.06 6.332 6.367 0 0 1 0 .002A6.332 6.367 0 0 1 57 23.182v-2a6.332 6.367 0 0 0-3.165-5.512L35.203 4.854a6.332 6.367 0 0 0-3.016-.852zM7.077 22.779v.407a6.332 6.367 0 0 1 .015-.313 6.332 6.367 0 0 1-.015-.094z" opacity=".1" fill="#F9F5D7"/>
</svg>
