<svg xmlns="http://www.w3.org/2000/svg" width="64" height="64" version="1">
    <rect width="57" height="57" x="-61" y="-61" rx="28.5" ry="28.5" transform="matrix(0 -1 -1 0 0 0)" opacity=".2"/>
    <rect width="57" height="57" x="-60" y="-61" rx="28.5" ry="28.5" transform="matrix(0 -1 -1 0 0 0)" fill="#8F3F71"/>
    <path d="M32.5 11a3.5 3.5 0 0 0-3.5 3.5 3.5 3.5 0 0 0 2 3.158v2.04l-3.668-2.446a1.5 1.5 0 1 0-1.664 2.496L31 23.303v6.6l-5.715-3.301-.412-6.395a1.5 1.5 0 1 0-2.994.193l.283 4.399-1.766-1.02a3.5 3.5 0 0 0-1.734-3.31 3.5 3.5 0 0 0-4.781 1.281 3.5 3.5 0 0 0 1.281 4.781 3.5 3.5 0 0 0 3.734-.152l1.766 1.02-3.951 1.953a1.5 1.5 0 1 0 1.33 2.689l5.744-2.84 5.713 3.299-5.703 3.293-5.744-2.84a1.5 1.5 0 1 0-1.33 2.69l3.953 1.953-1.778 1.025a3.5 3.5 0 0 0-3.734-.152 3.5 3.5 0 0 0-1.281 4.781 3.5 3.5 0 0 0 4.781 1.281 3.5 3.5 0 0 0 1.734-3.31l1.778-1.026-.285 4.399a1.5 1.5 0 1 0 2.994.193l.412-6.394L31 35.098v6.588l-5.332 3.554a1.5 1.5 0 1 0 1.664 2.496L31 45.291v2.05a3.5 3.5 0 0 0-2 3.159 3.5 3.5 0 0 0 3.5 3.5 3.5 3.5 0 0 0 3.5-3.5 3.5 3.5 0 0 0-2-3.158V45.29l3.668 2.445a1.5 1.5 0 1 0 1.664-2.496L34 41.686v-6.588l5.705 3.295.412 6.394a1.5 1.5 0 1 0 2.994-.193l-.283-4.399 1.776 1.026a3.5 3.5 0 0 0 1.736 3.31 3.5 3.5 0 0 0 4.78-1.281 3.5 3.5 0 0 0-1.28-4.781 3.5 3.5 0 0 0-3.736.152l-1.776-1.025 3.951-1.953a1.5 1.5 0 1 0-1.33-2.69l-5.744 2.84-5.703-3.293 5.713-3.299 5.746 2.84a1.5 1.5 0 1 0 1.328-2.69l-3.951-1.953 1.766-1.02a3.5 3.5 0 0 0 3.736.153 3.5 3.5 0 0 0 1.28-4.781 3.5 3.5 0 0 0-4.78-1.281 3.5 3.5 0 0 0-1.736 3.31l-1.766 1.02.283-4.399a1.5 1.5 0 1 0-2.992-.193l-.414 6.395-5.715 3.3v-6.6l5.332-3.554a1.5 1.5 0 1 0-1.664-2.496L34 19.697v-2.039a3.5 3.5 0 0 0 2-3.158 3.5 3.5 0 0 0-3.5-3.5z" opacity=".2" fill-rule="evenodd"/>
    <path d="M32.5 10a3.5 3.5 0 0 0-3.5 3.5 3.5 3.5 0 0 0 2 3.158v2.04l-3.668-2.446a1.5 1.5 0 1 0-1.664 2.496L31 22.303v6.6l-5.715-3.301-.412-6.395a1.5 1.5 0 1 0-2.994.193l.283 4.399-1.766-1.02a3.5 3.5 0 0 0-1.734-3.31 3.5 3.5 0 0 0-4.781 1.281 3.5 3.5 0 0 0 1.281 4.781 3.5 3.5 0 0 0 3.734-.152l1.766 1.02-3.951 1.953a1.5 1.5 0 1 0 1.33 2.689l5.744-2.84 5.713 3.299-5.703 3.293-5.744-2.84a1.5 1.5 0 1 0-1.33 2.69l3.953 1.953-1.778 1.025a3.5 3.5 0 0 0-3.734-.152 3.5 3.5 0 0 0-1.281 4.781 3.5 3.5 0 0 0 4.781 1.281 3.5 3.5 0 0 0 1.734-3.31l1.778-1.026-.285 4.399a1.5 1.5 0 1 0 2.994.193l.412-6.394L31 34.098v6.588l-5.332 3.554a1.5 1.5 0 1 0 1.664 2.496L31 44.291v2.05a3.5 3.5 0 0 0-2 3.159 3.5 3.5 0 0 0 3.5 3.5 3.5 3.5 0 0 0 3.5-3.5 3.5 3.5 0 0 0-2-3.158V44.29l3.668 2.445a1.5 1.5 0 1 0 1.664-2.496L34 40.686v-6.588l5.705 3.295.412 6.394a1.5 1.5 0 1 0 2.994-.193l-.283-4.399 1.776 1.026a3.5 3.5 0 0 0 1.736 3.31 3.5 3.5 0 0 0 4.78-1.281 3.5 3.5 0 0 0-1.28-4.781 3.5 3.5 0 0 0-3.736.152l-1.776-1.025 3.951-1.953a1.5 1.5 0 1 0-1.33-2.69l-5.744 2.84-5.703-3.293 5.713-3.299 5.746 2.84a1.5 1.5 0 1 0 1.328-2.69l-3.951-1.953 1.766-1.02a3.5 3.5 0 0 0 3.736.153 3.5 3.5 0 0 0 1.28-4.781 3.5 3.5 0 0 0-4.78-1.281 3.5 3.5 0 0 0-1.736 3.31l-1.766 1.02.283-4.399a1.5 1.5 0 1 0-2.992-.193l-.414 6.395-5.715 3.3v-6.6l5.332-3.554a1.5 1.5 0 1 0-1.664-2.496L34 18.697v-2.039a3.5 3.5 0 0 0 2-3.158 3.5 3.5 0 0 0-3.5-3.5z" fill="#F9F5D7" fill-rule="evenodd"/>
    <path d="M32.5 3A28.438 28.438 0 0 0 4 31.5c0 .168.009.333.012.5C4.278 16.445 16.879 4 32.5 4c15.621 0 28.222 12.445 28.488 28 .003-.167.012-.332.012-.5A28.438 28.438 0 0 0 32.5 3z" fill="#F9F5D7" opacity=".2"/>
</svg>
