<svg xmlns="http://www.w3.org/2000/svg" width="64" height="64" version="1">
    <path d="M34.759 30.965L20.685 42.653l1.644.638 12.43-10.326 1.964 15.88.258.102zM2.07 59L1 61h62l-1.123-2H2.07z" opacity=".2"/>
    <path d="M45.301 38.45a14.057 15.37 0 0 1-14.057 15.37 14.057 15.37 0 0 1-14.057-15.37 14.057 15.37 0 0 1 14.057-15.37 14.057 15.37 0 0 1 14.057 15.37z" fill="#F9F5D7"/>
    <path d="M1 60L31.244 3.486l3.78 28.257z" fill="#066678"/>
    <path d="M31.244 3.486L63.001 60l-26.01-9.964z" fill="#CB241D"/>
    <path d="M63 60H1L20.66 43.64z" fill="#7CB668"/>
    <path d="M31.244 3.486L1 60h.533L31.244 4.486 62.44 60H63zm-9.736 40.482l-.823.682 16.293 6.295-.128-1.049z" opacity=".2" fill="#F9F5D7"/>
</svg>
