<svg xmlns="http://www.w3.org/2000/svg" width="64" height="64" version="1">
    <rect width="56" height="56" x="4" y="5" rx="2.8" ry="2.8" opacity=".2"/>
    <rect width="56" height="56" x="4" y="4" rx="2.8" ry="2.8" fill="#48B9C7"/>
    <path d="M34.5 21c-.052 0-.101.01-.152.016H32c-.12 0-5.385-.022-6.643-.002.182.004.152.006-.748.002-7.732-.036-12.844 4.201-14.29 11.841-1.19 6.277.968 10.403 6.185 11.83 1.898.52 7.775.27 10.267-.437 4.38-1.241 4.116-1.65 4.96-5.912C32.403 34.934 32.374 33 31 33c-.406-.007-1.128.037-1.5 0h-4c-.831 0-1.5.669-1.5 1.5s.669 1.5 1.5 1.5h1.367c-.04.522-.18 1.274-.408 2.451-.61 3.145-.651 3.817-2.047 4.38-5.2 2.093-8.427-.473-8.174-6.499.36-8.57 3.811-13.787 9.125-13.787 4.68 0 6.401 2.166 7.985 10.041 2.615 13.003 2.209 12.305 4.173 12.377 2.094.077 1.127.912 8.579-12.04 3.064-5.325 4.461-7.75 5.263-8.923H52.5c.831 0 1.5-.669 1.5-1.5 0-.013-.004-.024-.004-.037 0-.013.004-.026.004-.04a1.39 1.39 0 0 0-1.182-1.388A1.51 1.51 0 0 0 52.5 21h-4c-.831 0-1.5.669-1.5 1.5s.669 1.5 1.5 1.5h.639c-1.58 3.037-7.466 13.353-8.03 13.992-.507.576-.659.064-2.13-7.152-.807-3.955-1.2-5.86-1.252-6.84h.773c.571 0 1.061-.32 1.314-.787a1.43 1.43 0 0 0 .235-.79c0-.78-.613-1.407-1.375-1.407h-.022c-.05-.006-.1-.016-.152-.016zm-9.89.016c.012-.004.606 0 .747-.002-.385-.009-2.056-.025-.748.002z" opacity=".1"/>
    <path d="M34.5 20c-.052 0-.101.01-.152.016H32c-.12 0-5.385-.023-6.643-.002.182.004.152.006-.748.002-7.732-.036-12.844 4.201-14.29 11.841-1.19 6.277.968 10.403 6.185 11.83 1.898.52 7.775.27 10.267-.437 4.38-1.241 4.116-1.65 4.96-5.912C32.403 33.934 32.374 32 31 32c-.406-.007-1.128.037-1.5 0h-4c-.831 0-1.5.669-1.5 1.5s.669 1.5 1.5 1.5h1.367c-.04.522-.18 1.274-.408 2.451-.61 3.145-.651 3.817-2.047 4.38-5.2 2.093-8.427-.473-8.174-6.499.36-8.57 3.811-13.787 9.125-13.787 4.68 0 6.401 2.166 7.985 10.04 2.615 13.004 2.209 12.305 4.173 12.378 2.094.077 1.127.912 8.579-12.04 3.064-5.325 4.461-7.75 5.263-8.923H52.5c.831 0 1.5-.669 1.5-1.5 0-.013-.004-.024-.004-.037 0-.013.004-.026.004-.04a1.39 1.39 0 0 0-1.182-1.388A1.51 1.51 0 0 0 52.5 20h-4c-.831 0-1.5.669-1.5 1.5s.669 1.5 1.5 1.5h.639c-1.58 3.037-7.466 13.353-8.03 13.992-.507.576-.659.064-2.13-7.152-.807-3.955-1.2-5.86-1.252-6.84h.773c.571 0 1.061-.32 1.314-.787a1.43 1.43 0 0 0 .235-.79c0-.78-.613-1.407-1.375-1.407h-.022c-.05-.006-.1-.016-.152-.016zm-9.89.016c.012-.004.606 0 .747-.002-.385-.009-2.056-.025-.748.002z" fill="#066678"/>
    <path d="M6.8 4C5.25 4 4 5.25 4 6.8v1C4 6.25 5.25 5 6.8 5h50.4C58.75 5 60 6.25 60 7.8v-1C60 5.25 58.75 4 57.2 4H6.8z" opacity=".2" fill="#F9F5D7"/>
</svg>
