<svg xmlns="http://www.w3.org/2000/svg" width="64" height="64">
    <path d="M32 5A28 28 0 0 0 4 33a28 28 0 0 0 2.285 11A28 28 0 0 0 32 61a28 28 0 0 0 25.742-17A28 28 0 0 0 60 33 28 28 0 0 0 32 5z" opacity=".2"/>
    <path d="M32 4A28 28 0 0 0 4 32a28 28 0 0 0 2.285 11h51.457A28 28 0 0 0 60 32 28 28 0 0 0 32 4z" fill="#B7BB25"/>
    <path d="M32 4A28 28 0 0 0 4 32a28 28 0 0 0 .021.4A28 28 0 0 1 32 5a28 28 0 0 1 27.977 27.535A28 28 0 0 0 60 32 28 28 0 0 0 32 4z" opacity=".2" fill="#F9F5D7"/>
    <path d="M6.285 43A28 28 0 0 0 32 60a28 28 0 0 0 25.742-17H6.285z" fill="#578D57"/>
    <path d="M12 44c.805.975 4.532 5.337 6.715 4.98 1.693-.278 1.28-3.938 1.13-4.98z" opacity=".2"/>
    <path d="M12 43c.805.975 4.532 5.337 6.715 4.98 1.693-.278 1.28-3.938 1.13-4.98z" fill="#F9F5D7"/>
    <ellipse cx="172.5" cy="115" rx="8.5" ry="17" transform="matrix(.47059 0 0 .2353 -65.176 6.941)" opacity=".1"/>
    <ellipse cx="172.5" cy="115" rx="8.5" ry="17" transform="matrix(.47059 0 0 .2353 -65.176 5.941)" fill="#3A393A"/>
    <path d="M15.632 12.417c3.772 1.593-1.068 8.59-4.714 6.023-4.08-2.872-4.535-9.318-3.343-12.852.261-.777 1.71-.774 1.894-.05.776 3.043 3.692 5.836 6.163 6.879z" opacity=".1"/>
    <path d="M15.632 11.417c3.772 1.593-1.068 8.59-4.714 6.023-4.08-2.872-4.535-9.318-3.343-12.852.261-.777 1.71-.774 1.894-.05.776 3.043 3.692 5.836 6.163 6.879z" fill="#504945"/>
    <path d="M48.368 12.417c-3.772 1.593 1.068 8.59 4.714 6.023 4.08-2.872 4.535-9.318 3.343-12.852-.261-.777-1.71-.774-1.894-.05-.776 3.043-3.692 5.836-6.163 6.879z" opacity=".1"/>
    <path d="M48.368 11.417c-3.772 1.593 1.068 8.59 4.714 6.023 4.08-2.872 4.535-9.318 3.343-12.852-.261-.777-1.71-.774-1.894-.05-.776 3.043-3.692 5.836-6.163 6.879z" fill="#504945"/>
    <path d="M52 44c-.805.975-4.531 5.337-6.715 4.98-1.692-.278-1.28-3.938-1.13-4.98z" opacity=".2"/>
    <path d="M52 43c-.805.975-4.531 5.337-6.715 4.98-1.692-.278-1.28-3.938-1.13-4.98z" fill="#F9F5D7"/>
    <ellipse cx="172.5" cy="115" rx="8.5" ry="17" transform="matrix(-.47059 0 0 .2353 129.176 6.941)" opacity=".1"/>
    <ellipse cx="172.5" cy="115" rx="8.5" ry="17" transform="matrix(-.47059 0 0 .2353 129.176 5.941)" fill="#3A393A"/>
    <path d="M6.285 43a28 28 0 0 0 .488 1h50.502a28 28 0 0 0 .467-1H6.285z" opacity=".2"/>
    <path d="M8.55 4c-.417.006-.845.2-.976.588-.405 1.203-.612 2.745-.558 4.367.043-1.248.237-2.415.558-3.367.262-.778 1.71-.774 1.895-.05.775 3.042 3.692 5.835 6.162 6.878.798.337 1.195.924 1.314 1.604.197-1.09-.142-2.109-1.314-2.604-2.47-1.043-5.387-3.836-6.162-6.879-.092-.361-.5-.543-.918-.537zM55.45 4c-.419-.006-.827.176-.919.537-.775 3.043-3.692 5.836-6.162 6.879-1.172.495-1.511 1.514-1.314 2.604.12-.68.516-1.267 1.314-1.604 2.47-1.043 5.387-3.836 6.162-6.879.185-.723 1.633-.727 1.895.05.32.953.515 2.12.558 3.368.054-1.622-.153-3.164-.558-4.367-.13-.389-.559-.582-.977-.588z" fill="#F9F5D7" opacity=".1"/>
</svg>
