<svg xmlns="http://www.w3.org/2000/svg" width="64" height="64" version="1">
    <path d="M5.98 5.015a3 3 0 0 0-.175 5.992c2.918.233 4.698.726 5.644 1.23.946.505 1.23.882 1.621 1.848.783 1.933.929 6.393 2.48 12.602a3.002 3.002 0 1 0 5.825-1.457c-1.383-5.533-1.182-9.542-2.742-13.395-.78-1.926-2.264-3.772-4.363-4.89-2.1-1.12-4.64-1.651-7.989-1.918a3 3 0 0 0-.3-.012z" opacity=".2"/>
    <circle cx="54" cy="27" r="7" opacity=".2"/>
    <circle cx="10" cy="27" r="7" opacity=".2"/>
    <path d="M11.3 15c-1.274 0-2.3.937-2.3 2.1V36a23 21 0 0 0 23 21 23 21 0 0 0 23-21V17.1c0-1.163-1.026-2.1-2.3-2.1H32z" opacity=".2"/>
    <circle cx="10" cy="26" r="7" fill="#3A393A"/>
    <circle cx="54" cy="26" r="7" fill="#3A393A"/>
    <path d="M6.043 7.018c12.534 1 9.485 6.2 12.42 17.94" fill="none" stroke="#F9BD2E" stroke-width="6" stroke-linecap="round"/>
    <path d="M5.98 4.016a3 3 0 0 0-2.912 3.496A3 3 0 0 1 5.98 5.016a3 3 0 0 1 .301.011c3.349.267 5.89.8 7.989 1.918 2.099 1.119 3.583 2.965 4.363 4.89 1.56 3.854 1.359 7.863 2.742 13.395a3.002 3.002 0 0 1 .045.213 3.002 3.002 0 0 0-.045-1.213c-1.383-5.532-1.182-9.541-2.742-13.394-.78-1.926-2.264-3.772-4.363-4.89-2.1-1.12-4.64-1.652-7.989-1.919a3 3 0 0 0-.3-.011z" opacity=".2" fill="#F9F5D7"/>
    <path d="M11.3 14c-1.274 0-2.3.937-2.3 2.1V35a23 21 0 0 0 23 21 23 21 0 0 0 23-21V16.1c0-1.163-1.026-2.1-2.3-2.1H32z" fill="#504945"/>
    <path d="M37.838 41.046c.818 5.338-1.486 12.078-4.186 12.818-4.777 1.204-.359-8.355-8.527-9.967 2.28 3.87-.717 5.23-4.898 5.734-1.49.168-2.647-.63-1.965-2.725-.13-.43-.62-1.137-1.38-1.397-.74-.31-1.437.013-2.138-.103-.007.06-.076.139-.01.18 1.432 1.472 1.095 2.633-.28 3.318-.469.14-.9.103-1.27-.087-.498-.258-.585-.558-.426-.867.113-.22.324-.431.447-.65.033-.06-.091-.134-.144-.202-.155.03-.378.042-.455.092-4.381 2.576 1.36 8.291 3.506 9.703A28.45 28.45 0 0 0 30.762 61c12.06-.529 23.593-6.744 19.187-13.462.122 2.179-1.799 4.821-6.065 3.339 1.5-4.233-6.475-10.475-6.046-9.83z" opacity=".2"/>
    <path d="M37.838 40.046c.818 5.338-1.486 12.078-4.186 12.818-4.777 1.204-.359-8.355-8.527-9.967 2.28 3.87-.717 5.23-4.898 5.734-1.49.168-2.647-.63-1.965-2.725-.13-.43-.62-1.137-1.38-1.397-.74-.31-1.437.013-2.138-.103-.007.06-.076.139-.01.18 1.432 1.472 1.095 2.633-.28 3.317-.469.142-.9.104-1.27-.086-.498-.258-.585-.558-.426-.867.113-.22.324-.431.447-.65.033-.06-.091-.134-.144-.202-.155.03-.378.042-.455.092-4.381 2.576 1.36 8.291 3.506 9.703A28.45 28.45 0 0 0 30.762 60c12.06-.529 23.593-6.744 19.187-13.462.122 2.179-1.799 4.821-6.065 3.339 1.5-4.233-6.475-10.475-6.046-9.83z" fill="#FD8019"/>
    <path d="M11.3 14c-1.273 0-2.3.938-2.3 2.102v1C9 15.938 10.027 15 11.3 15h41.4c1.273 0 2.3.938 2.3 2.102v-1C55 14.938 53.973 14 52.7 14H11.3z" opacity=".1" fill="#F9F5D7"/>
    <path d="M37.852 40.004c-.035-.011-.04.003-.014.043.051.333.09.673.117 1.016.807.475 5.623 4.574 6.082 8.148.51-3.913-5.696-9.046-6.185-9.207zm.14 2.834c-.132 4.654-2.096 9.41-4.34 10.025-4.777 1.204-.36-8.354-8.527-9.967.238.405.406.776.533 1.127 7.432 1.921 3.326 11.017 7.994 9.84 2.405-.659 4.49-6.076 4.34-11.025zm-21.658 1.54c-.541-.044-1.065.115-1.59.028-.007.06-.077.14-.012.18.285.292.483.568.633.834.496-.035.997-.13 1.518.088.58.199.997.658 1.222 1.054.033-.204.08-.418.157-.656-.13-.429-.619-1.138-1.38-1.398a1.782 1.782 0 0 0-.548-.13zm9.523 1.35c-.353 1.77-2.696 2.55-5.63 2.903-1.032.116-1.885-.245-2.098-1.162-.307 1.668.751 2.314 2.098 2.162 3.438-.414 6.07-1.41 5.63-3.902zm-12.796.37c-.155.03-.379.041-.456.091-1.378.81-1.752 1.932-1.554 3.131.118-.81.57-1.552 1.554-2.13.017-.011.058-.016.086-.024a.625.625 0 0 1 .067-.217c.113-.22.325-.43.447-.648.034-.06-.091-.136-.144-.203zm36.888.441c.12 2.148-1.751 4.738-5.894 3.389a3.309 3.309 0 0 1-.172.949c4.266 1.482 6.189-1.16 6.066-3.338.537.818.834 1.628.926 2.422.114-1.108-.161-2.257-.926-3.422zm-34.394.303c-.168.424-.544.784-1.102 1.062-.468.142-.899.103-1.267-.088a1.38 1.38 0 0 1-.23-.154c-.073.095-.148.19-.198.287-.159.31-.071.61.428.867.368.19.799.23 1.267.088.954-.475 1.391-1.184 1.102-2.062z" fill="#F9F5D7" opacity=".2"/>
</svg>
