<svg xmlns="http://www.w3.org/2000/svg" width="64" height="64">
    <path d="M40 49h12v12z" opacity=".2"/>
    <path d="M40 48h12v12z" fill="#BDAD93"/>
    <rect width="44" height="56" x="-49" y="-60" rx="2.8" ry="2.8" transform="matrix(0 -1 -1 0 0 0)" opacity=".2"/>
    <rect width="44" height="56" x="-48" y="-60" rx="2.8" ry="2.8" transform="matrix(0 -1 -1 0 0 0)" fill="#F9F5D7"/>
    <path d="M32 15c-6.627 0-12 5.373-12 12s5.373 12 12 12 12-5.373 12-12-5.373-12-12-12z" opacity=".1"/>
    <path d="M32 14c-6.627 0-12 5.373-12 12s5.373 12 12 12 12-5.373 12-12-5.373-12-12-12z" fill="#066678"/>
    <path d="M26 22v3h3v-3zm9 0v3h3v-3zm5 6.332C38.116 30.132 35.153 31 31.828 31c-3.176 0-5.938-.782-7.828-2.446.967 2.662 2.913 6.479 8.023 6.446 5.11-.033 7.121-3.883 7.977-6.668z" opacity=".2"/>
    <path d="M26 21v3h3v-3h-3zm9 0v3h3v-3h-3zm5 6.332C38.116 29.132 35.153 30 31.828 30c-3.176 0-5.938-.782-7.828-2.445.967 2.662 2.913 6.478 8.023 6.445 5.11-.033 7.121-3.883 7.977-6.668z" fill="#F9F5D7"/>
    <path fill="none" d="M24.39 18.13h22.4v22.4h-22.4z"/>
    <path d="M6.8 4C5.25 4 4 5.25 4 6.8v1C4 6.25 5.25 5 6.8 5h50.4C58.75 5 60 6.25 60 7.8v-1C60 5.25 58.75 4 57.2 4H6.8z" fill="#F9F5D7" opacity=".2"/>
</svg>
