<svg xmlns="http://www.w3.org/2000/svg" width="64" height="64" version="1">
    <path d="M45.377 8.376A27.966 27.966 0 0 0 32 5a27.916 27.916 0 0 0-21.106 9.562c-.67 21.812 23.881 45.795 34.463 38.11 6.002-4.36 2.066-30.257.02-44.297z" fill="#066678"/>
    <path d="M32 5a27.915 27.915 0 0 0-21.105 9.563c-.01.331.002.665.003.998A27.914 27.914 0 0 1 32 6.002a27.96 27.96 0 0 1 13.375 3.375c1.235 8.475 3.13 21.224 3.14 30.994.002.118.011.246.012.363.18-9.913-1.86-23.494-3.152-32.359A27.96 27.96 0 0 0 32 5z" opacity=".1" fill="#F9F5D7"/>
    <path d="M41.838 4l-.333.416c-.058.07-.114.143-.173.218-1.295 1.719-1.631 3.66-2.405 5.745-.296.8-.608 2.007-.782 3.01-.175 1.007-.19 2.445-.028 3.325.43 2.331 1.01 4.528 2.452 6.387 1.67 1.819 3.485 3.823 4.162 5.286.93 2.012 1.323 3.803 1.323 6.029 0 .671-.038 1.36-.095 1.772-1.41 6.594-6.08 11.777-12.632 11.812-4.149.016-9.727-1.8-10.479-6.085 1.998.304 3.496.195 4.923.185 1.32-.01 2.977-.292 4.514-1.108 2.29-1.222 3.423-1.047 4.05-.975.922.107 1.039.105 1.24-.021.429-.27.552-.377.304-.888-.312-.645-1.408-1.546-2.327-1.914-.77-.308-1.188-.385-2.11-.386-.94 0-1.736.244-3.43.757-1.69.513-3.026.59-4.069.298-4.335-1.037-7.337-5.086-5.227-7.9 1.27-.059 4.248 1.395 5.052 1.943.769-.755-.5-2.517-.768-3.58 0-1.325 2.702-1.697 3.812-2.197.73-.328 1.444-.665 1.583-.746.303-.178.886-.744 1.124-1.091.362-.53.6-1.511.454-1.865-.184-.444-1.422-.72-4.416-.987-1.13-.1-1.904-1.018-2.5-2.068-1.043-2.414 2.054-5.91 3.377-7.125-2.104-1.149-5.416 2.065-6.669 3.242-.401.397-.278.391-1.495.071-.081-.021-.166-.04-.252-.06l-.093-.022c-.056-.013-.115-.024-.172-.036a7.551 7.551 0 0 0-.123-.024l-.142-.028-.15-.024c-.037-.006-.074-.01-.11-.017a15.754 15.754 0 0 0-2.1-.191c-.108-.003-.215-.003-.32-.003a11.298 11.298 0 0 0-.697.02 7.195 7.195 0 0 0-.28.021l-.021.003c-.092.009-.178.021-.262.033h-.003l-.115.016a2.57 2.57 0 0 0-1.083.257c-1.053-1.778-1.309-5.723-2.127-7.504-1.915 1.003-3.226 6.734-3.552 8.415-.125.668-.267 1.966-.268 2.425 0 .066-.017.092-.02.14A27.856 27.856 0 0 0 4 34C4 49.463 16.536 62 32 62s28-12.536 28-28c0-9.8-4.389-14.834-8.734-21.713 0-.004 0-.007-.014-.01-.64-.959-1.194-2.81-1.643-3.853-.07-.23-.153-.418-.183-.418-.014 0-.027.009-.044.024-.564.683-.837 4.141-1.14 4.97-2.185-3.026-4.895-5.236-6.322-8.59z" opacity=".2"/>
    <path d="M41.838 3l-.333.416c-.058.07-.114.143-.173.218-1.295 1.719-1.631 3.66-2.405 5.745-.296.8-.608 2.007-.782 3.01-.175 1.007-.19 2.445-.028 3.325.43 2.331 1.01 4.528 2.452 6.387 1.67 1.819 3.485 3.823 4.162 5.286.93 2.012 1.323 3.803 1.323 6.03 0 .67-.038 1.36-.095 1.77-1.41 6.595-6.08 11.778-12.632 11.813-4.149.016-9.727-1.8-10.479-6.085 1.998.304 3.496.195 4.923.185 1.32-.01 2.977-.292 4.514-1.108 2.29-1.222 3.423-1.047 4.05-.975.922.107 1.039.105 1.24-.021.429-.27.552-.377.304-.888-.312-.645-1.408-1.546-2.327-1.914-.77-.308-1.188-.385-2.11-.386-.94 0-1.736.244-3.43.757-1.69.513-3.026.59-4.069.298-4.335-1.037-7.337-5.086-5.227-7.9 1.27-.059 4.248 1.395 5.052 1.943.769-.755-.5-2.517-.768-3.58 0-1.325 2.702-1.697 3.812-2.197.73-.328 1.444-.665 1.583-.746.303-.178.886-.744 1.124-1.091.362-.53.6-1.511.454-1.865-.184-.444-1.422-.72-4.416-.987-1.13-.1-1.904-1.018-2.5-2.068-1.043-2.414 2.054-5.91 3.377-7.125-2.104-1.149-5.416 2.065-6.669 3.242-.401.397-.278.391-1.495.071-.081-.021-.166-.04-.252-.06l-.093-.022c-.056-.013-.115-.024-.172-.036a7.551 7.551 0 0 0-.123-.024l-.142-.028-.15-.024c-.037-.006-.074-.01-.11-.017a15.76 15.76 0 0 0-2.1-.19c-.108-.004-.215-.004-.32-.004a11.298 11.298 0 0 0-.697.02 7.195 7.195 0 0 0-.28.021l-.021.003c-.092.009-.178.021-.262.033h-.003l-.115.016a2.57 2.57 0 0 0-1.083.258C13.294 12.726 13.038 8.782 12.22 7c-1.915 1.003-3.226 6.734-3.552 8.415-.125.668-.267 1.966-.268 2.425 0 .067-.017.092-.02.14A27.856 27.856 0 0 0 4 33C4 48.463 16.536 61 32 61s28-12.536 28-28c0-9.8-4.389-14.834-8.734-21.713 0-.004 0-.007-.014-.01-.64-.958-1.194-2.81-1.643-3.853-.07-.23-.153-.418-.183-.418-.014 0-.027.009-.044.024-.564.683-.837 4.141-1.14 4.97-2.185-3.026-4.895-5.236-6.322-8.59z" fill="#BE4C1D"/>
    <path d="M41.838 3l-.334.416-.172.219c-1.296 1.718-1.632 3.659-2.406 5.744-.295.8-.607 2.008-.781 3.012-.118.677-.156 1.541-.124 2.308.02-.462.056-.918.124-1.308.174-1.004.486-2.212.78-3.012.775-2.085 1.111-4.026 2.407-5.744l.172-.219.334-.416.082.41c1.427 3.354 4.137 5.563 6.322 8.59.303-.83.576-4.288 1.14-4.97.018-.016.03-.024.044-.024.03 0 .113.188.183.418.45 1.042 1.003 2.894 1.643 3.851.014.005.014.008.014.012 4.272 6.764 8.578 11.756 8.72 21.238.004-.175.014-.349.014-.525 0-9.8-4.39-14.834-8.734-21.713 0-.004 0-.007-.014-.012-.64-.957-1.194-2.809-1.643-3.851-.07-.23-.153-.418-.183-.418-.014 0-.026.01-.043.025-.565.683-.838 4.14-1.14 4.969-2.186-3.027-4.896-5.236-6.323-8.59L41.838 3zM12.22 7c-1.915 1.003-3.227 6.735-3.553 8.416-.125.668-.267 1.967-.268 2.426 0 .066-.017.09-.02.138A27.856 27.856 0 0 0 4 33c0 .196.012.39.016.584A27.854 27.854 0 0 1 8.38 18.98c.002-.047.02-.072.02-.138 0-.46.142-1.758.267-2.426.326-1.68 1.638-7.413 3.553-8.416.818 1.781 1.073 5.727 2.127 7.506.314-.145.68-.26 1.082-.258l.115-.016h.002c.084-.011.171-.024.264-.033l.021-.002c.09-.008.183-.018.28-.023.01-.002.02-.001.034-.002.088-.004.177-.009.268-.012l.063-.002a11.322 11.322 0 0 1 .652 0 16.409 16.409 0 0 1 2.1.192c.036.006.072.01.109.015l.15.026c.048.008.093.019.14.027l.124.023.174.038.092.021.252.06c1.217.32 1.094.325 1.496-.072 1.11-1.042 3.834-3.677 5.904-3.468.282-.303.55-.577.764-.774-2.104-1.148-5.415 2.066-6.668 3.242-.402.397-.28.393-1.496.073-.082-.022-.166-.041-.252-.061-.031-.007-.061-.015-.092-.021-.056-.013-.117-.024-.174-.036l-.123-.025c-.048-.008-.093-.019-.14-.027l-.151-.026-.11-.015a16.409 16.409 0 0 0-2.42-.195c-.113 0-.223 0-.331.003-.021 0-.042 0-.063.002-.09.003-.18.008-.268.012-.014 0-.023 0-.035.002-.096.005-.189.015-.279.023-.014.001-.014 0-.021.002-.093.009-.18.022-.264.033h-.002l-.115.016a2.568 2.568 0 0 0-1.082.258C13.294 12.727 13.039 8.78 12.22 7zm12.672 10.78c-.083.556-.05 1.097.164 1.591.595 1.05 1.37 1.968 2.5 2.068 2.821.251 4.07.514 4.361.915.099-.379.132-.74.055-.926-.184-.445-1.422-.722-4.416-.989-1.13-.1-1.905-1.017-2.5-2.068-.083-.19-.13-.389-.164-.592zm.287 10.02a.94.94 0 0 0-.18.526c.163.649.696 1.558.914 2.34.326-.72-.363-1.92-.734-2.865zm-5.108 3.7c-.387 2.579 2.28 5.504 5.871 6.363 1.043.292 2.38.214 4.07-.299 1.694-.513 2.49-.756 3.428-.755.923 0 1.342.076 2.112.384.823.33 1.757 1.08 2.174 1.698.29-.2.364-.346.152-.784-.312-.645-1.407-1.546-2.326-1.914-.77-.308-1.19-.384-2.112-.384-.939 0-1.734.242-3.427.755-1.69.513-3.028.59-4.07.3-3.133-.75-5.557-3.072-5.872-5.364zm25.965 2.549c-.015.442-.04.86-.078 1.139-1.41 6.593-6.08 11.777-12.633 11.812-3.795.014-8.776-1.51-10.174-5.05-.105-.015-.197-.02-.304-.036.752 4.285 6.33 6.102 10.478 6.086 6.553-.035 11.223-5.219 12.633-11.813.057-.41.096-1.1.096-1.771 0-.128-.015-.242-.018-.367z" opacity=".2" fill="#F9F5D7"/>
</svg>
