<svg xmlns="http://www.w3.org/2000/svg" width="64" height="64" version="1">
    <path d="M23.578 36.39L5.523 42.024a1.274 1.274 0 0 1-1.058-.176c-.31-.23-.465-.522-.465-.884v2c0 .362.156.654.465.884.327.214.68.274 1.058.176l18.055-5.634 2.414 11.348.386-.172-2.8-13.176zm16.844 0l-2.856 13.176.394.176 2.462-11.352 18.058 5.634c.378.098.732.038 1.06-.176.308-.23.46-.522.46-.884v-2c0 .362-.152.654-.46.884a1.277 1.277 0 0 1-1.06.176L40.422 36.39zM19.02 55.016a.994.994 0 0 0-.18.538L19.383 60 32 58l12.618 2 .542-4.446a.995.995 0 0 0-.18-.538L44.616 58l-12.618-2-12.617 2-.363-2.984z" opacity=".2"/>
    <circle cx="32" cy="7" r="2" fill="#504945"/>
    <path d="M31.972 7c-.155 0-.3.031-.45.044-.184.017-.37.022-.547.055-.049.01-.094.03-.142.041-4.713 1.018-7.109 7.95-6.822 14.56-.005.193-.03.4-.03.59L4.569 34.732c-.36.18-.551.494-.568.936v6.297c0 .36.155.655.464.884.327.213.68.271 1.057.173l18.058-5.633 2.798 13.179-7.176 3.2c-.24.23-.36.493-.36.788l.543 4.446 12.615-2 12.616 2 .544-4.444c0-.295-.12-.558-.361-.788l-7.233-3.2L40.42 37.39l18.061 5.633c.378.098.73.04 1.057-.173.31-.23.462-.523.462-.884V35.67c-.017-.442-.205-.755-.565-.936L40.02 22.29c0-.189-.015-.396-.02-.59.286-6.609-2.12-13.541-6.832-14.559-.049-.01-.094-.031-.142-.041-.178-.033-.364-.038-.547-.055-.15-.013-.295-.044-.45-.044l-.03.003c-.01 0-.019-.003-.028-.003z" fill="#F9BD2E"/>
    <path d="M18 26.123l-4 2.564v11.69l4-1.248V26.123zm28 0v13.008l4 1.248V28.688l-4-2.565zm-34 3.846l-4 2.564v9.715L12 41V29.969zm40 0v11.033l4 1.248v-9.717l-4-2.564z" fill="#F15C22"/>
    <path d="M31.973 7c-.155 0-.3.032-.452.045-.182.016-.369.021-.546.055-.05.01-.095.03-.143.04-4.571.988-6.954 7.54-6.832 13.964.13-6.09 2.498-12.03 6.832-12.965.048-.011.094-.032.143-.041.177-.034.364-.039.546-.055.151-.013.297-.045.452-.045V8l.027.002.03-.002c.154 0 .3.03.45.043.183.016.37.021.547.055.05.01.093.03.141.04 4.332.936 6.71 6.87 6.844 12.956.118-6.42-2.275-12.967-6.844-13.953-.048-.011-.092-.032-.14-.041-.178-.034-.365-.039-.548-.055-.15-.013-.296-.043-.45-.043l-.03.002-.027-.002V7zm-7.977 14.957a4.862 4.862 0 0 0-.016.332L4.568 34.732c-.36.18-.551.493-.568.936v.998c.017-.442.208-.755.568-.936L23.98 23.287c0-.19.025-.396.03-.59-.01-.246-.01-.493-.014-.74zm16.016.084c-.004.22-.003.44-.012.658.005.194.021.4.021.59l19.413 12.443c.36.18.549.493.566.936v-.998c-.017-.443-.206-.755-.566-.936L40.02 22.291c0-.08-.006-.166-.01-.25zM26.184 50.654L19.2 53.768c-.24.23-.36.493-.36.789l.079.634a1.15 1.15 0 0 1 .281-.425l7.176-3.2-.193-.912zm11.58.004l-.198.91 7.233 3.2c.136.13.224.274.283.425l.078-.634c0-.296-.12-.56-.361-.79l-7.035-3.11z" fill="#F9F5D7" opacity=".2"/>
    <rect width="20" height="2" x="22" y="7" rx="1.25" ry="2" fill="#282727"/>
    <path d="M40 29.666C40 34.822 36.418 39 32 39s-8-4.178-8-9.334C24 24.512 27.582 23 32 23s8 1.512 8 6.667z" fill="#282727"/>
</svg>
