<svg xmlns="http://www.w3.org/2000/svg" width="64" height="64" version="1">
    <rect width="58" height="58" x="-62" y="-61" rx="2.9" ry="2.9" transform="matrix(0 -1 -1 0 0 0)" opacity=".2"/>
    <rect width="58" height="58" x="-61" y="-61" rx="2.9" ry="2.9" transform="matrix(0 -1 -1 0 0 0)" fill="#F9F5D7"/>
    <path d="M5.9 3c-.998 0-1.874.5-2.396 1.263L8.8 17l5.8-14z" fill="#7CB668"/>
    <path d="M20.4 17l5.8-14H14.6z" fill="#CB241D"/>
    <path d="M32 17l5.8-14H26.2z" fill="#7CB668"/>
    <path d="M43.6 17l5.8-14H37.8z" fill="#CB241D"/>
    <path d="M49.4 3l5.8 14 5.296-12.737A2.894 2.894 0 0 0 58.1 3z" fill="#7CB668"/>
    <path d="M23 39.234a6.779 6.779 0 0 1-2.192 1.324 7.592 7.592 0 0 1-2.622.442c-2.268 0-4.032-.786-5.294-2.359C11.631 37.061 11 34.85 11 32.006c0-2.836.639-5.043 1.916-6.624C14.194 23.794 15.97 23 18.246 23c.75 0 1.469.105 2.155.314.687.201 1.35.511 1.988.93v2.405c-.646-.597-1.31-1.034-1.988-1.313a5.483 5.483 0 0 0-2.155-.43c-1.573 0-2.755.592-3.545 1.778-.783 1.177-1.174 2.951-1.174 5.322 0 2.41.38 4.195 1.138 5.357.766 1.154 1.94 1.731 3.52 1.731.536 0 1.003-.058 1.402-.174a3.365 3.365 0 0 0 1.102-.57v-4.36H18.5v-1.928H23zM26 23h3.217l6.333 14.817V23H38v18h-3.217L28.45 26.183V41H26zM41 33.88V23h2.597v11.968q0 1.29.077 1.845.077.544.268.84.41.698 1.177 1.053.78.354 1.881.354 1.113 0 1.88-.354.768-.355 1.19-1.053.192-.296.269-.84.077-.544.077-1.82V23H53v10.88q0 2.709-.371 3.856-.358 1.135-1.254 1.88-.844.698-1.932 1.041Q48.356 41 47 41q-1.343 0-2.43-.343-1.088-.343-1.945-1.04-.883-.734-1.254-1.893Q41 36.554 41 33.88z" fill="#3A393A"/>
    <path d="M8.8 47L3.504 59.737A2.894 2.894 0 0 0 5.9 61h8.7z" fill="#CB241D"/>
    <path d="M20.4 47l5.8 14H14.6z" fill="#7CB668"/>
    <path d="M32 47l5.8 14H26.2z" fill="#CB241D"/>
    <path d="M43.6 47l5.8 14H37.8z" fill="#7CB668"/>
    <path d="M55.2 47l-5.8 14h8.7c.998 0 1.874-.5 2.396-1.263z" fill="#CB241D"/>
    <path d="M5.898 3A2.891 2.891 0 0 0 3 5.898v1A2.891 2.891 0 0 1 5.898 4h52.204A2.891 2.891 0 0 1 61 6.898v-1A2.891 2.891 0 0 0 58.102 3H5.898z" opacity=".2" fill="#F9F5D7"/>
    <path d="M8.8 47L3.505 59.736c.08.118.184.218.281.323L8.801 48l5.385 13h.414L8.8 47zm5.8 14h.414L20.4 48l5.385 13h.414L20.4 47l-5.8 14zm11.6 0h.413L32 48l5.387 13h.414L32 47l-5.8 14zm11.6 0h.415L43.6 48l5.386 13h.414l-5.8-14-5.8 14zm11.6 0h.414L55.2 48l5.016 12.059c.097-.105.2-.205.281-.323L55.2 47 49.4 61z" opacity=".1"/>
</svg>
