<svg xmlns="http://www.w3.org/2000/svg" width="64" height="64">
    <circle cx="39" cy="29" r="14" opacity=".2"/>
    <circle cx="39" cy="28" r="14" fill="#BDAD93"/>
    <path d="M36.316 4A25.316 25.316 0 0 0 11 29.316a25.316 25.316 0 0 0 .023.684H7a32 32 0 0 0 32 32V30h-2v-1h19.947A20 19.6 0 0 0 57 27.6 20 19.6 0 0 0 37 8V4.023A25.316 25.316 0 0 0 36.316 4z" opacity=".2"/>
    <path d="M7 29a32 32 0 0 0 32 32V29z" fill="#F9BD2E"/>
    <path d="M7 29a32 32 0 0 0 .05 1H39v-1H7z" opacity=".2" fill="#F9F5D7"/>
    <path d="M36.316 3A25.316 25.316 0 0 0 11 28.316a25.316 25.316 0 0 0 .024.684H37V3.024A25.316 25.316 0 0 0 36.316 3z" fill="#8F3F71"/>
    <path d="M37 7v21h19.947A20 19.6 0 0 0 57 26.6 20 19.6 0 0 0 37 7z" fill="#CB241D"/>
    <path d="M38.277 19A12.278 12 0 0 0 26 31a12.278 12 0 0 0 12.277 12 12.278 12 0 0 0 .723-.025v-6.993a8.5 8.5 0 0 0 8-8.482 8.5 8.5 0 0 0-8.5-8.5 8.5 8.5 0 0 0-.129.004 12.278 12 0 0 0-.094-.004z" opacity=".2"/>
    <path d="M38.278 18A12.278 12 0 0 0 26 30a12.278 12 0 0 0 12.278 12 12.278 12 0 0 0 .722-.025v-23.94a12.278 12 0 0 0-.722-.035z" fill="#F9F5D7"/>
    <circle cx="38.5" cy="26.5" r="8.5" fill="#F9F5D7"/>
    <path d="M36.316 3A25.316 25.316 0 0 0 11 28.316a25.316 25.316 0 0 0 .018.504A25.316 25.316 0 0 1 36.316 4a25.316 25.316 0 0 1 .684.023v-1A25.316 25.316 0 0 0 36.316 3zM37 7v1a20 19.6 0 0 1 19.979 19.174A20 19.6 0 0 0 57 26.6 20 19.6 0 0 0 37 7z" opacity=".2" fill="#F9F5D7"/>
</svg>
