<svg xmlns="http://www.w3.org/2000/svg" width="64" height="64" version="1">
    <circle cx="-12.518" cy="30.32" r="14" transform="rotate(-60.001)" opacity=".2"/>
    <circle cx="-11.776" cy="57.605" r="14" transform="rotate(-60.001)" opacity=".2"/>
    <circle cx="-11.652" cy="29.82" r="14" transform="rotate(-60.001)" fill="#504945"/>
    <circle cx="43.775" cy="-2.179" r="14" transform="rotate(30)" opacity=".2"/>
    <path d="M19.34 11.016A14 14 0 0 0 7.875 18a14 14 0 0 0-1.857 7.688A14 14 0 0 1 7.875 19 14 14 0 0 1 27 13.875a14 14 0 0 1 6.982 11.438A14 14 0 0 0 27 12.874a14 14 0 0 0-7.66-1.86z" fill="#F9F5D7" opacity=".1"/>
    <circle cx="43.275" cy="-3.045" r="14" transform="rotate(30)" fill="#F9F5D7"/>
    <circle cx="-10.91" cy="57.105" r="14" transform="rotate(-60.001)" fill="#504945"/>
    <path d="M43.34 24.016A14 14 0 0 0 31.875 31a14 14 0 0 0-1.857 7.688A14 14 0 0 1 31.875 32 14 14 0 0 1 51 26.875a14 14 0 0 1 6.982 11.438A14 14 0 0 0 51 25.874a14 14 0 0 0-7.66-1.86z" fill="#F9F5D7" opacity=".1"/>
    <circle cx="43.651" cy="25.605" r="14" transform="rotate(30)" opacity=".2"/>
    <circle cx="43.151" cy="24.739" r="14" transform="rotate(30)" fill="#F9F5D7"/>
    <path d="M38.34 5.016A14 14 0 0 0 26.875 12a14 14 0 0 0-1.857 7.688A14 14 0 0 1 26.875 13 14 14 0 0 1 46 7.875a14 14 0 0 1 6.982 11.438A14 14 0 0 0 46 6.874a14 14 0 0 0-7.66-1.86zM24.34 29.016A14 14 0 0 0 12.877 36a14 14 0 0 0-1.86 7.688A14 14 0 0 1 12.878 37 14 14 0 0 1 32 31.875a14 14 0 0 1 6.982 11.438A14 14 0 0 0 32 30.874a14 14 0 0 0-7.66-1.86z" fill="#F9F5D7" opacity=".2"/>
</svg>
