<svg xmlns="http://www.w3.org/2000/svg" width="64" height="64" version="1">
    <rect width="56" height="56" x="4" y="5" rx="28" ry="28" opacity=".2"/>
    <rect width="56" height="56" x="4" y="4" rx="28" ry="28" fill="#8F3F71"/>
    <path d="M28.82 19.102a8 10 45 0 0-7.422 3.395 8 10 45 0 0-1.414 12.728 8 10 45 0 0 11.194-.121l10.904 10.904c1.077 1.078 2.574 1.313 3.357.53.784-.784.548-2.28-.529-3.358l-2.299-2.299 1.416-1.414.883.885c.294.294.845.214 1.236-.178.392-.391.472-.942.178-1.236l-3.181-3.184c-.294-.293-.847-.214-1.239.178-.391.392-.47.943-.175 1.236l.882.885-1.414 1.414-7.185-7.185a8 10 45 0 0 .115-11.2 8 10 45 0 0-5.307-1.98zm.414 2.932a4 4 0 0 1 2.772 1.17 4 4 0 0 1 0 5.656 4 4 0 0 1-3.084 1.16 4 4 0 0 1-1.16 3.084 4 4 0 0 1-5.657 0 4 4 0 0 1 0-5.658 4 4 0 0 1 3.084-1.158 4 4 0 0 1 1.159-3.084 4 4 0 0 1 2.886-1.17z" opacity=".2"/>
    <g transform="rotate(45 30.878 34.472)" fill="#F9F5D7">
        <path d="M23 22a8 10 0 0 0-8 10 8 10 0 0 0 8 10 8 10 0 0 0 8-10 8 10 0 0 0-8-10zm0 3a4 4 0 0 1 4 4 4 4 0 0 1-1.361 3A4 4 0 0 1 27 35a4 4 0 0 1-4 4 4 4 0 0 1-4-4 4 4 0 0 1 1.361-3A4 4 0 0 1 19 29a4 4 0 0 1 4-4z"/>
        <rect width="22" height="4" x="27" y="30" rx="2.75" ry="2"/>
        <rect width="6" height="2" x="39" y="26" rx=".75" ry="1"/>
        <rect width="7" height="2" x="27" y="-43" rx=".875" ry="1" transform="rotate(90)"/>
    </g>
    <path d="M32 4C16.488 4 4 16.488 4 32c0 .113.011.224.018.336C4.369 17.134 16.71 5 32 5s27.63 12.134 27.982 27.336c.007-.112.018-.223.018-.336C60 16.488 47.512 4 32 4z" opacity=".2" fill="#F9F5D7"/>
</svg>
