<svg xmlns="http://www.w3.org/2000/svg" width="64" height="64" version="1">
    <path d="M32 8a26 6.857 0 0 0-26 6.855v34.29A26 6.857 0 0 0 32 56a26 6.857 0 0 0 26-6.855v-34.29A26 6.857 0 0 0 32 8z" opacity=".2"/>
    <path fill="#8F3F71" d="M58 48.14V13.854H6V48.14z"/>
    <ellipse cx="32" cy="48.143" rx="26" ry="6.857" fill="#8F3F71"/>
    <ellipse cx="32" cy="13.857" rx="26" ry="6.857" fill="#8F3F71"/>
    <ellipse cx="32" cy="17.5" rx="22" ry="5.5" opacity=".2"/>
    <ellipse cx="32" cy="16.5" rx="22" ry="5.5" fill="#F9BD2E"/>
    <path d="M32 11a22 5.5 0 0 0-22 5.5 22 5.5 0 0 0 .107.502A22 5.5 0 0 1 32 12a22 5.5 0 0 1 21.898 4.994A22 5.5 0 0 0 54 16.5 22 5.5 0 0 0 32 11z" opacity=".2" fill="#F9F5D7"/>
    <path d="M32 7a26 6.857 0 0 0-26 6.855v1A26 6.857 0 0 1 32 8a26 6.857 0 0 1 26 6.855v-1A26 6.857 0 0 0 32 7z" opacity=".1" fill="#F9F5D7"/>
    <path d="M7.125 28C4.5 28 1 25 1 23.5c0-.831.39-1.5.875-1.5h5.25c.485 0 .875.669.875 1.5v3c0 .831-.39 1.5-.875 1.5z" opacity=".1"/>
    <path d="M7.125 27C4.5 27 1 24 1 22.5c0-.831.39-1.5.875-1.5h5.25c.485 0 .875.669.875 1.5v3c0 .831-.39 1.5-.875 1.5z" fill="#3A393A"/>
    <path d="M56.775 28c2.625 0 6.125-3 6.125-4.5 0-.831-.39-1.5-.875-1.5h-5.25c-.485 0-.875.669-.875 1.5v3c0 .831.39 1.5.875 1.5z" opacity=".1"/>
    <path d="M56.775 27c2.625 0 6.125-3 6.125-4.5 0-.831-.39-1.5-.875-1.5h-5.25c-.485 0-.875.669-.875 1.5v3c0 .831.39 1.5.875 1.5z" fill="#3A393A"/>
    <rect width="30" height="30" x="33" y="31" rx="2.727" ry="2.727" opacity=".2"/>
    <rect width="30" height="30" x="33" y="30" rx="2.727" ry="2.727" fill="#FA4934"/>
    <path fill="#F9F5D7" d="M39 36h18v4H39zM39 43h18v4H39zM39 50h18v4H39z"/>
</svg>
