<svg xmlns="http://www.w3.org/2000/svg" width="64" height="64" version="1">
    <rect width="55" height="55" x="4.5" y="4.5" rx="2.75" ry="2.75" fill="#F9F5D7"/>
    <rect width="56" height="56" x="4" y="5" rx="2.8" ry="2.8" opacity=".2"/>
    <path d="M6.8 4A2.794 2.794 0 0 0 4 6.8v33.564L18 37l3-17-8.43-16z" fill="#FA4934"/>
    <path d="M21 20l-3 17 11 9 20-7-4-19z" fill="#F9BD2E"/>
    <path d="M12.57 4L21 20h24L57.326 4.014C57.283 4.012 57.243 4 57.2 4z" fill="#F9F5D7"/>
    <path d="M49 39l-20 7-1 14h29.2c1.551 0 2.8-1.249 2.8-2.8v-4.528c-.029-.15-.07-.308-.074-.44.002-.151.048-.304.074-.457v-7.938z" fill="#066678"/>
    <path d="M57.326 4.014L45 20l4 19 11 4.837V6.8a2.786 2.786 0 0 0-2.674-2.786z" fill="#BDAD93"/>
    <path d="M6.8 4C5.25 4 4 5.25 4 6.8v1C4 6.25 5.25 5 6.8 5h50.4C58.75 5 60 6.25 60 7.8v-1C60 5.25 58.75 4 57.2 4H6.8z" opacity=".2" fill="#F9F5D7"/>
    <path d="M18.154 37.127L18 38l11 9 20-7-.195-.932L29 46l-10.846-8.873z" opacity=".2"/>
    <path d="M12.57 5L21 21h24L57.326 5.014C57.284 5.012 57.242 5 57.2 5h-.633L45 20H21L13.098 5h-.528z" opacity=".1"/>
    <path d="M45.166 20.785L45 21l4 19 11 4.838v-1L49 39l-3.834-18.215z" opacity=".2"/>
    <path d="M18 37L4 40.364V57.2C4 58.751 5.249 60 6.8 60H28l1-14z" fill="#F9F5D7"/>
</svg>
