<svg xmlns="http://www.w3.org/2000/svg" width="64" height="64" version="1">
    <rect width="56" height="56" x="4" y="5" rx="2.8" ry="2.8" opacity=".2"/>
    <path d="M21.9 6.9v13h-3.8v-4h-7v-4H6.9v4H4v41.3C4 58.75 5.25 60 6.8 60h50.4c1.55 0 2.8-1.25 2.8-2.8V11.9h-4.1v4h-5.8v-4h-4.2v4h-3v4h-3.8v-4h-4.2v4h-2.8v-8h-3.2v4h-3.8v-9z" fill="#665C54"/>
    <path d="M18.401 27c9.8 0 16.8 16 26.6 16 4.302 0 7.93-4 7.999-7.7.072-3.842-3.697-8.3-7.999-8.3-11.2 0-16.8 16-26.6 16" fill="none" stroke="#B7BB25" stroke-width="4" stroke-linecap="round"/>
    <path d="M44.861 27c-10.913 0-16.66 16-26.46 16-4.302 0-8.329-3.902-8.4-7.7-.074-3.936 4.098-8.3 8.4-8.3" fill="none" stroke="#B7BB25" stroke-width="4" stroke-linecap="round"/>
    <path d="M6.8 5C5.25 5 4 6.25 4 7.8V17h3v-4h4v4h7v4h4V8h3v9h4v-4h3v8h3v-4h4v4h4v-4h3v-4h4v4h6v-4h4V7.8C60 6.25 58.75 5 57.2 5z" opacity=".2"/>
    <path d="M6.8 4C5.25 4 4 5.25 4 6.8V16h3v-4h4v4h7v4h4V7h3v9h4v-4h3v8h3v-4h4v4h4v-4h3v-4h4v4h6v-4h4V6.8C60 5.25 58.75 4 57.2 4H6.8z" fill="#7CB668"/>
    <path d="M44.133 29.033a9.16 9.16 0 0 0-1.574.276l-.002-.004v.006c-3.504.923-6.631 3.825-9.934 7.107C28.613 40.402 24.389 45 18.4 45c-2.755 0-5.272-1.211-7.15-2.965-1.792-1.673-3.065-3.893-3.22-6.346-.014.216-.032.43-.028.649.049 2.592 1.37 4.944 3.248 6.697C13.128 44.79 15.645 46 18.4 46c5.989 0 10.214-4.598 14.223-8.582C36.633 33.434 40.383 30 44.861 30c.418.005.78.072 1.102.133 1.089.316 2.19.976 3.08 1.873 1.084 1.092 1.779 2.467 1.94 3.625a3.48 3.48 0 0 0 .038-.447c-.141-.945-.14-1.558-.668-2.406-.478-1.037-1.22-1.86-2.362-2.736-1.332-.918-2.133-1.08-3.858-1.009z" opacity=".2"/>
    <path d="M44.527 25c-.053.01-.115.013-.17.021-6.168.233-10.617 4.652-14.552 8.561C25.762 37.598 22.212 41 18.4 41c-1.546 0-3.193-.742-4.421-1.889-1.081-1.009-1.774-2.288-1.94-3.402-.026.19-.042.377-.039.553.023 1.205.75 2.702 1.979 3.85C15.207 41.257 16.854 42 18.4 42c3.812 0 7.362-3.402 11.405-7.418 4.001-3.976 8.533-8.484 14.865-8.574 2.77.046 5.268 1.395 7.117 3.258 1.728 1.74 2.96 3.986 3.111 6.423.008-.117.026-.233.028-.351.218-2.318-1.158-5.28-3.04-7.174-1.69-1.703-3.416-2.892-6.335-3.117-.251-.03-.49-.05-.69-.047-.057 0-.112.007-.17.008-.057 0-.106-.008-.164-.008z" opacity=".2" fill="#F9F5D7"/>
    <path d="M6.8 4C5.25 4 4 5.25 4 6.8v1C4 6.25 5.25 5 6.8 5h50.4C58.75 5 60 6.25 60 7.8v-1C60 5.25 58.75 4 57.2 4H6.8z" fill="#F9F5D7" opacity=".1"/>
</svg>
