<svg xmlns="http://www.w3.org/2000/svg" width="64" height="64" version="1">
    <path d="M8.602 57A4.582 4.582 0 0 1 4 52.42V45h56v7.42A4.583 4.583 0 0 1 55.398 57z" opacity=".2"/>
    <path d="M8.602 8A4.593 4.593 0 0 0 4 12.601V44h56V12.601A4.593 4.593 0 0 0 55.398 8H8.602z" fill="#8F3F71"/>
    <path d="M8.602 8A4.59 4.59 0 0 0 4 12.596v1A4.59 4.59 0 0 1 8.602 9h46.796A4.59 4.59 0 0 1 60 13.596v-1A4.59 4.59 0 0 0 55.398 8z" opacity=".2" fill="#F9F5D7"/>
    <path d="M8.602 56A4.582 4.582 0 0 1 4 51.42V44h56v7.42A4.583 4.583 0 0 1 55.398 56z" fill="#F9F5D7"/>
    <rect width="16" height="4" x="40" y="48" ry="2" fill="#928274"/>
    <rect width="32" height="4" x="8" y="48" ry="2" fill="#8F3F71"/>
    <ellipse cx="40" cy="50.949" rx="4" ry="3.995" opacity=".2"/>
    <circle cx="40" cy="50" r="4" fill="#F9F5D7"/>
    <path opacity=".2" fill="#F9F5D7" d="M4 44h56v2H4z"/>
    <path d="M24.867 17a.878.878 0 0 0-.867.89v18.22c0 .675.706 1.104 1.283.78l16.267-9.11c.6-.338.6-1.223 0-1.56L26.908 18.02l-1.626-.91a.847.847 0 0 0-.416-.11z" opacity=".2"/>
    <path d="M24.867 16a.878.878 0 0 0-.867.89v18.22c0 .675.706 1.104 1.283.78l16.267-9.11c.6-.338.6-1.223 0-1.56L26.908 17.02l-1.626-.91a.847.847 0 0 0-.416-.11z" fill="#F9F5D7"/>
</svg>
