<svg xmlns="http://www.w3.org/2000/svg" width="64" height="64" version="1">
    <path d="M4.643 34.548l25.809 25.809c.857.857 2.239.857 3.096 0l25.809-25.809a2.185 2.185 0 0 0 0-3.096L33.548 5.643a2.185 2.185 0 0 0-3.096 0L4.643 31.452a2.185 2.185 0 0 0 0 3.096zm-.137 5.669l20.277 20.277c.674.675 1.76.675 2.434 0l20.277-20.277a1.717 1.717 0 0 0 0-2.434L27.217 17.506a1.717 1.717 0 0 0-2.434 0L4.506 37.783a1.717 1.717 0 0 0 0 2.434zm12 0l20.277 20.277c.674.675 1.76.675 2.434 0l20.277-20.277a1.717 1.717 0 0 0 0-2.434L39.217 17.506a1.717 1.717 0 0 0-2.434 0L16.506 37.783a1.717 1.717 0 0 0 0 2.434z" opacity=".2"/>
    <rect width="32.118" height="32.118" x="29.2" y="-24.54" rx="1.721" ry="1.721" transform="scale(1 -1) rotate(-45)" fill="#7CB668"/>
    <rect width="32.118" height="32.118" x="37.68" y="-16.06" rx="1.721" ry="1.721" transform="scale(1 -1) rotate(-45)" fill="#7CB668"/>
    <rect width="40.878" height="40.878" x="24.82" y="-20.44" rx="2.19" ry="2.19" transform="scale(1 -1) rotate(-45)" fill="#FD8019"/>
    <path d="M32.001 4c-.56 0-1.12.214-1.549.643L4.644 30.45a2.175 2.175 0 0 0-.579 2.047c.09-.383.279-.747.579-1.047L30.452 5.643a2.184 2.184 0 0 1 3.096 0L59.356 31.45c.3.3.488.664.579 1.047a2.175 2.175 0 0 0-.579-2.047L33.548 4.643A2.178 2.178 0 0 0 32 4z" opacity=".2" fill="#F9F5D7"/>
    <path d="M33 44c1.414-.13 2.18-.7 2.918-1.41C36.668 41.879 37 41.228 37 40c0-1.111-.325-2.373-1.063-3.149-.739-.775-1.51-1.45-2.937-1.851zm-2-22c-1.289.09-2.477.635-3.19 1.32-.714.672-.81 1.543-.81 2.68 0 1.034.065 1.927.715 2.612.664.685 1.884.962 3.285 1.388zm-8 22v-5h2c.05 1.77.62 2.53 1.57 3.435.952.904 2.553 1.526 4.43 1.565v-9c-2.878-.827-5.086-2.33-6.25-3.402-1.164-1.086-1.75-2.52-1.75-4.304 0-2.068.693-3.729 2.069-4.982C26.445 21.058 28.547 20.155 31 20v-5h2v5c1.264.103 2.167.515 3.33.838 1.177.31 2.556.731 3.67 1.261V27h-2c-.15-1.5-.937-2.504-1.8-3.37-.864-.866-1.723-1.514-3.2-1.63v9c3.078.866 4.92 1.78 6.146 2.905C40.385 35.016 41 36.126 41 38c0 2.145-.721 4.247-2.173 5.54C37.376 44.832 35.64 45.806 33 46v5h-2v-5c-1.201-.026-2.634-.438-3.923-.774-1.289-.323-2.676-.58-4.077-1.226z" font-size="39.066" font-family="DejaVu Serif" letter-spacing="0" word-spacing="0" opacity=".2"/>
    <path d="M33 43c1.414-.13 2.18-.7 2.918-1.41C36.668 40.879 37 40.228 37 39c0-1.111-.325-2.373-1.063-3.149-.739-.775-1.51-1.45-2.937-1.851zm-2-22c-1.289.09-2.477.635-3.19 1.32-.714.672-.81 1.543-.81 2.68 0 1.034.065 1.927.715 2.612.664.685 1.884.962 3.285 1.388zm-8 22v-5h2c.05 1.77.62 2.53 1.57 3.435.952.904 2.553 1.526 4.43 1.565v-9c-2.878-.827-5.086-2.33-6.25-3.402-1.164-1.086-1.75-2.52-1.75-4.304 0-2.068.693-3.729 2.069-4.982C26.445 20.058 28.547 19.155 31 19v-5h2v5c1.264.103 2.167.515 3.33.838 1.177.31 2.556.731 3.67 1.261V26h-2c-.15-1.5-.937-2.504-1.8-3.37-.864-.866-1.723-1.514-3.2-1.63v9c3.078.866 4.92 1.78 6.146 2.905C40.385 34.016 41 35.126 41 37c0 2.145-.721 4.247-2.173 5.54C37.376 43.832 35.64 44.806 33 45v5h-2v-5c-1.201-.026-2.634-.438-3.923-.774-1.289-.323-2.676-.58-4.077-1.226z" font-size="39.066" font-family="DejaVu Serif" letter-spacing="0" word-spacing="0" fill="#F9F5D7"/>
</svg>
