<svg xmlns="http://www.w3.org/2000/svg" width="64" height="64" version="1">
    <circle cx="32" cy="33" r="28" opacity=".2"/>
    <circle cx="32" cy="32" r="28" fill="#928274"/>
    <path d="M31.951 21.994l-4.379 15.117-3.252-8.107H18v2.994h4.48l4.38 10.996h1.94l5.21-17.998H43v-3.002zM33.445 30l4.762 6.1L33 43h2.6l3.9-5.232L43.4 43H46l-5.102-6.777L45.748 30H43.15l-3.552 4.555L36.04 30z" opacity=".2"/>
    <path d="M31.951 20.994l-4.379 15.117-3.252-8.107H18v2.994h4.48l4.38 10.996h1.94l5.21-17.998H43v-3.002H31.951zM33.445 29l4.762 6.1L33 42h2.6l3.9-5.232L43.4 42H46l-5.102-6.777L45.748 29H43.15l-3.552 4.555L36.04 29h-2.596z" fill="#F9F5D7"/>
    <path d="M32 4A28 28 0 0 0 4 32a28 28 0 0 0 .021.586A28 28 0 0 1 32 5a28 28 0 0 1 27.979 27.414A28 28 0 0 0 60 32 28 28 0 0 0 32 4z" opacity=".2" fill="#F9F5D7"/>
</svg>
