<svg xmlns="http://www.w3.org/2000/svg" width="64" height="64" version="1">
    <rect width="56" height="28" x="4" y="18" rx="8.4" ry="8.4" fill="#504945"/>
    <path fill="#066678" d="M20 22h25v20H20z"/>
    <path d="M21.5 38.2v-5.7h6v-6H21M36 26.5h-3.5v11H29" fill="none" stroke="#F9F5D7"/>
    <g opacity=".2">
        <path d="M10.8 27c-.665 0-1.2.535-1.2 1.2v2.4H7.2c-.665 0-1.2.535-1.2 1.2v2.4c0 .665.535 1.2 1.2 1.2h2.4v2.4c0 .664.535 1.2 1.2 1.2h2.4c.665 0 1.2-.535 1.2-1.2v-2.4h2.4c.665 0 1.2-.535 1.2-1.2v-2.4c0-.664-.535-1.2-1.2-1.2h-2.4v-2.4c0-.664-.535-1.2-1.2-1.2h-2.4z"/>
        <g transform="matrix(1.99999 0 0 1.99999 0 1)">
            <circle cx="14" cy="-26" r="1" transform="rotate(90)"/>
            <circle cx="18" cy="-26" r="1" transform="rotate(90)"/>
            <circle cx="-28" cy="-16" r="1" transform="scale(-1)"/>
            <circle cx="-24" cy="-16" r="1" transform="scale(-1)"/>
        </g>
    </g>
    <g fill="#448588">
        <path d="M10.8 26c-.665 0-1.2.535-1.2 1.2v2.4H7.2c-.665 0-1.2.535-1.2 1.2v2.4c0 .665.535 1.2 1.2 1.2h2.4v2.4c0 .664.535 1.2 1.2 1.2h2.4c.665 0 1.2-.535 1.2-1.2v-2.4h2.4c.665 0 1.2-.535 1.2-1.2v-2.4c0-.664-.535-1.2-1.2-1.2h-2.4v-2.4c0-.664-.535-1.2-1.2-1.2h-2.4z"/>
        <g transform="matrix(1.99999 0 0 1.99999 0 0)">
            <circle cx="14" cy="-26" r="1" transform="rotate(90)"/>
            <circle cx="18" cy="-26" r="1" transform="rotate(90)"/>
            <circle cx="-28" cy="-16" r="1" transform="scale(-1)"/>
            <circle cx="-24" cy="-16" r="1" transform="scale(-1)"/>
        </g>
    </g>
    <path d="M4 37.602v1A8.379 8.379 0 0 0 12.398 47h39.204A8.378 8.378 0 0 0 60 38.602v-1A8.378 8.378 0 0 1 51.602 46H12.398A8.379 8.379 0 0 1 4 37.602z" opacity=".2"/>
    <path d="M12.398 18A8.379 8.379 0 0 0 4 26.398v1A8.379 8.379 0 0 1 12.398 19h39.204A8.378 8.378 0 0 1 60 27.398v-1A8.378 8.378 0 0 0 51.602 18H12.398z" opacity=".1" fill="#F9F5D7"/>
    <path d="M37.5 38.2v-5.7h6v-6H37" fill="none" stroke="#F9F5D7"/>
</svg>
