<svg xmlns="http://www.w3.org/2000/svg" width="64" height="64" version="1">
    <rect width="56" height="56" x="4" y="5" rx="2.8" ry="2.8" opacity=".2"/>
    <rect width="56" height="56" x="4" y="4" rx="2.8" ry="2.8" fill="#4F8660"/>
    <path d="M15.399 21C13.578 21 12 22.547 12 24.393v13.214c0 1.846 1.578 3.416 3.399 3.394H32V61h6V37.8a2.8 2.8 0 0 0-2.8-2.8H18v-8h28v34h6V24.393C52 22.547 50.422 21 48.601 21z" opacity=".2"/>
    <path d="M15.399 20C13.578 20 12 21.547 12 23.393v13.214c0 1.846 1.578 3.416 3.399 3.394H32V60h6V36.8a2.8 2.8 0 0 0-2.8-2.8H18v-8h28v34h6V23.393C52 21.547 50.422 20 48.601 20z" fill="#E6D3A3"/>
    <path d="M6.8 4C5.25 4 4 5.25 4 6.8v1C4 6.25 5.25 5 6.8 5h50.4C58.75 5 60 6.25 60 7.8v-1C60 5.25 58.75 4 57.2 4H6.8zM15.398 20C13.578 20 12 21.548 12 23.395v1C12 22.548 13.577 21 15.398 21h33.204C50.422 21 52 22.548 52 24.395v-1C52 21.548 50.423 20 48.602 20H15.398zM18 34v1h17.2c1.546 0 2.8 1.254 2.8 2.8v-1c0-1.546-1.254-2.8-2.8-2.8H18z" opacity=".2" fill="#F9F5D7"/>
</svg>
