<svg xmlns="http://www.w3.org/2000/svg" width="64" height="64" version="1">
    <path d="M26 24.001c-6.445 0-12.286 1.4-16.621 3.754-2.167 1.177-3.957 2.59-5.262 4.266C2.813 33.695 2 35.68 2 37.845v4.312c0 2.163.813 4.15 2.117 5.824 1.305 1.675 3.095 3.093 5.262 4.27 4.335 2.355 10.176 3.75 16.621 3.75 6.445 0 12.286-1.395 16.621-3.75 2.168-1.177 3.957-2.595 5.262-4.27C49.187 46.307 50 44.321 50 42.157v-4.312c0-2.163-.813-4.15-2.117-5.824-1.305-1.675-3.094-3.089-5.262-4.266C38.286 25.4 32.445 24 26 24zm6.035 8c3.661 0 7.006.935 9.55 2.375 2.262 1.28 3.696 2.972 4.415 4.625-.61 1.25-1.859 2.866-3.953 4.219C39.605 44.796 36.234 46 32.035 46c-4.204 0-7.624-1.19-10.082-2.738C19.768 41.886 18.512 40.21 18 39c.435-1.465 1.816-3.24 4.215-4.578 2.63-1.466 6.163-2.422 9.82-2.422z" opacity=".2"/>
    <path d="M26 23.001c-6.445 0-12.286 1.4-16.621 3.754-2.167 1.177-3.957 2.59-5.262 4.266C2.813 32.695 2 34.68 2 36.845v4.312c0 2.163.813 4.15 2.117 5.824 1.305 1.675 3.095 3.093 5.262 4.27 4.335 2.355 10.176 3.75 16.621 3.75 6.445 0 12.286-1.395 16.621-3.75 2.168-1.177 3.957-2.595 5.262-4.27C49.187 45.307 50 43.321 50 41.157v-4.312c0-2.163-.813-4.15-2.117-5.824-1.305-1.675-3.094-3.089-5.262-4.266C38.286 24.4 32.445 23 26 23zm6.035 8c3.661 0 7.006.935 9.55 2.375 2.262 1.28 3.696 2.972 4.415 4.625-.61 1.25-1.859 2.866-3.953 4.219C39.605 43.796 36.234 45 32.035 45c-4.204 0-7.624-1.19-10.082-2.738C19.768 40.886 18.512 39.21 18 38c.435-1.465 1.816-3.24 4.215-4.578 2.63-1.466 6.163-2.422 9.82-2.422z" fill="#8F3F71"/>
    <path d="M26 23.002c-6.445 0-12.286 1.4-16.621 3.754-2.167 1.177-3.957 2.59-5.262 4.265C2.813 32.696 2 34.683 2 36.846v1c0-2.163.813-4.15 2.117-5.825 1.305-1.674 3.095-3.088 5.262-4.265C13.714 25.4 19.555 24.002 26 24.002c6.445 0 12.286 1.4 16.621 3.754 2.168 1.177 3.957 2.59 5.262 4.265C49.187 33.696 50 35.683 50 37.846v-1c0-2.163-.813-4.15-2.117-5.825-1.305-1.674-3.094-3.088-5.262-4.265C38.286 24.4 32.445 23.002 26 23.002zm-7.78 15.412c-.088.2-.163.397-.22.588.512 1.21 1.768 2.885 3.953 4.262 2.458 1.548 5.878 2.738 10.082 2.738 4.199 0 7.57-1.205 10.012-2.781 2.094-1.353 3.342-2.969 3.953-4.219a7.937 7.937 0 0 0-.266-.545c-.672 1.174-1.832 2.566-3.687 3.764-2.442 1.576-5.813 2.781-10.012 2.781-4.204 0-7.624-1.19-10.082-2.738-1.956-1.232-3.133-2.687-3.732-3.85z" fill="#F9F5D7" opacity=".1"/>
    <path d="M31.016 10.001c-.58.062-1.02.55-1.016 1.129v32.762c.659.062 1.332.109 2.035.109 4.18 0 7.537-1.195 9.977-2.762v-5.125h2.695c1.384 0 2.332.301 3.04.793 1.37 1.624 1.813 4.261 2.062 6.93.253 2.722.082 4.957.082 4.957a1.125 1.125 0 0 0 1.132 1.207h9.711a1.133 1.133 0 0 0 1.137-1.047c.211-2.82-.164-6.292-.89-9.387-.713-3.032-1.639-5.643-3.325-7.05-.033-.034-.048-.088-.082-.121-.478-.472-1-.87-1.543-1.208 1.439-.756 2.72-1.628 3.614-2.816C61.04 26.542 62 23.765 62 21.091c0-3.843-1.317-6.928-3.973-8.82-1.684-1.21-3.905-1.807-6.41-2.215a1.135 1.135 0 0 0-1.215.644l-3.246 6.524a1.129 1.129 0 0 0 .45 1.453c.488.282.955.658 1.417 1.047v.039c.573.472 1.157 1.718 1.157 3.246-.178 2.99-3.303 2.92-5.137 2.933h-3.031V11.13c0-.623-.471-1.129-1.098-1.129h-9.777a1.112 1.112 0 0 0-.121 0z" opacity=".2"/>
    <path d="M31.016 9.001c-.58.062-1.02.55-1.016 1.129v34.762c.659.062 1.332.109 2.035.109 4.18 0 7.537-1.195 9.977-2.762v-7.125h2.695c1.384 0 2.332.301 3.04.793 1.37 1.624 1.813 4.261 2.062 6.93.253 2.722.082 4.957.082 4.957a1.125 1.125 0 0 0 1.132 1.207h9.711a1.133 1.133 0 0 0 1.137-1.047c.211-2.82-.164-6.292-.89-9.387-.713-3.032-1.639-5.643-3.325-7.05-.033-.034-.048-.088-.082-.121-.478-.472-1-.87-1.543-1.208 1.439-.756 2.72-1.628 3.614-2.816C61.04 25.542 62 22.765 62 20.091c0-3.843-1.317-6.928-3.973-8.82-1.684-1.21-3.905-1.807-6.41-2.215a1.135 1.135 0 0 0-1.215.644l-3.246 6.524a1.129 1.129 0 0 0 .45 1.453c.488.282.955.658 1.417 1.047v.039c.573.472 1.157 1.718 1.157 3.246-.178 2.99-3.303 2.92-5.137 2.933h-3.031V10.13c0-.623-.471-1.129-1.098-1.129h-9.777a1.132 1.132 0 0 0-.121 0z" fill="#504945"/>
    <path d="M31.016 9.002c-.58.062-1.02.55-1.016 1.129v1a1.133 1.133 0 0 1 1.016-1.129c.04-.002.08-.002.12 0h9.778c.627 0 1.098.506 1.098 1.129v-1c0-.623-.471-1.129-1.098-1.129h-9.777a1.132 1.132 0 0 0-.121 0zm20.228.055a1.134 1.134 0 0 0-.842.644l-3.246 6.524a1.1 1.1 0 0 0 .022.959l3.224-6.483c.213-.463.71-.727 1.215-.644 2.505.408 4.726 1.005 6.41 2.214 2.537 1.809 3.84 4.713 3.952 8.319.007-.167.021-.332.021-.498 0-3.843-1.317-6.928-3.973-8.82-1.684-1.21-3.905-1.807-6.41-2.215a1.14 1.14 0 0 0-.373 0zM50.14 22.336c-.385 2.65-3.334 2.594-5.096 2.607h-3.031v1h3.031c1.834-.013 4.959.057 5.137-2.933 0-.232-.016-.457-.041-.674zm6.685 8.402c-.26.154-.52.308-.793.451a8.745 8.745 0 0 1 1.543 1.207c.034.034.049.088.082.122 1.686 1.406 2.612 4.018 3.324 7.05.545 2.321.893 4.853.944 7.164.044-2.565-.319-5.502-.944-8.164-.712-3.032-1.638-5.644-3.324-7.05-.033-.034-.048-.088-.082-.122a8.395 8.395 0 0 0-.75-.658zm-6.886 15.826c-.017.664-.047 1.23-.047 1.23-.006.076.02.148.029.222.017-.38.024-.704.017-1.452z" opacity=".1" fill="#F9F5D7"/>
</svg>
