<svg xmlns="http://www.w3.org/2000/svg" width="64" height="64">
    <path d="M32 5L8 19v12l35.023 11.635L32 49l-14-8v-2.57L8 35v12l24 14 24-14V35L20.977 23.365 32 17l14 8v2.57L56 31V19z" opacity=".2"/>
    <path d="M32 4L8 18v12l35.023 11.635L32 48l-14-8v-2.57L8 34v12l24 14 24-14V34L20.977 22.365 32 16l14 8v2.57L56 30V18z" fill="#CB241D"/>
    <path d="M32 4L8 18v1L32 5l24 14v-1L32 4zm-9.924 18.73l-1.099.635L56 35v-1L22.076 22.73zM8 34v1l10 3.43v-1L8 34zm10 6v1l14 8 11.023-6.365-1.099-.365L32 48l-14-8z" fill="#F9F5D7" opacity=".2"/>
</svg>
