<svg xmlns="http://www.w3.org/2000/svg" width="64" height="64" version="1">
    <rect width="56" height="56" x="4" y="4" rx="3" ry="3" fill="#504945"/>
    <path d="M11.43 35h17.142c.79 0 1.428.638 1.428 1.428V53.57c0 .792-.638 1.43-1.428 1.43H11.429A1.426 1.426 0 0 1 10 53.572V36.43c0-.79.637-1.428 1.429-1.428z" opacity=".2"/>
    <g opacity=".2">
        <path d="M11.43 11H28.57c.79 0 1.428.638 1.428 1.43v17.142c0 .79-.638 1.428-1.428 1.428H11.43A1.426 1.426 0 0 1 10 29.572V12.429c0-.792.637-1.429 1.429-1.429zM35.428 11H52.57c.792 0 1.43.638 1.43 1.43v17.142c0 .79-.638 1.428-1.428 1.428H35.43c-.792 0-1.43-.638-1.43-1.428V12.429c0-.791.637-1.428 1.428-1.428z"/>
    </g>
    <path d="M7 4C5.338 4 4 5.338 4 7v1c0-1.662 1.338-3 3-3h50c1.662 0 3 1.338 3 3V7c0-1.662-1.338-3-3-3H7z" opacity=".1" fill="#F9F5D7"/>
    <path d="M11.43 10h17.142c.79 0 1.428.638 1.428 1.43v17.142c0 .79-.638 1.428-1.428 1.428H11.429A1.426 1.426 0 0 1 10 28.572V11.429c0-.792.637-1.429 1.429-1.429zM35.428 10H52.57c.792 0 1.43.637 1.43 1.429v17.143c0 .79-.638 1.428-1.428 1.428H35.43c-.792 0-1.43-.638-1.43-1.428V11.429c0-.792.637-1.429 1.429-1.429zM11.43 34h17.142c.79 0 1.428.638 1.428 1.428V52.57c0 .792-.638 1.43-1.428 1.43H11.429A1.426 1.426 0 0 1 10 52.572V35.43c0-.79.637-1.428 1.429-1.428z" fill="#48B9C7"/>
    <path d="M4 57v1c0 1.662 1.338 3 3 3h50c1.662 0 3-1.338 3-3v-1c0 1.662-1.338 3-3 3H7c-1.662 0-3-1.338-3-3z" opacity=".2"/>
    <circle cx="46" cy="46" r="16" fill="#FA4934"/>
    <path d="M46 52.584L39.82 56 41 48.764l-5-5.124 6.91-1.056L46 36l3.09 6.584L56 43.64l-5 5.124L52.18 56z" fill="#F9F5D7"/>
    <path d="M30.025 46.502A16 16 0 0 0 30 47a16 16 0 0 0 16 16 16 16 0 0 0 16-16 16 16 0 0 0-.018-.492A16 16 0 0 1 46 62a16 16 0 0 1-15.975-15.498z" opacity=".2"/>
</svg>
