<svg xmlns="http://www.w3.org/2000/svg" height="64" width="64">
    <g fill="none" stroke="#7B6F64" stroke-width=".768" stroke-linecap="round" stroke-linejoin="round">
        <path d="M10.454 2.638c-1.535 0-2.302.768-2.302 2.303v38.372c0 1.535.767 2.302 2.302 2.302H38.85c1.535 0 2.302-.767 2.302-2.302V14.918L29.64 2.638z" transform="matrix(1.30303 0 0 1.30302 .878 1.062)"/>
        <path d="M29.64 2.638l11.512 12.28h-9.21c-1.534 0-2.302-.768-2.302-2.303z" transform="matrix(1.30303 0 0 1.30302 .878 1.062)"/>
    </g>
    <g transform="scale(1.5 1.5) translate(11 12)" id="g2522">     <path d="M10.313 4.125a7.564 7.564 0 0 0 0 15.125 7.564 7.564 0 0 0 0-15.125m0 1.375a6.184 6.184 0 0 1 6.187 6.188 6.184 6.184 0 0 1-6.188 6.187 6.184 6.184 0 0 1-6.187-6.188A6.184 6.184 0 0 1 10.313 5.5m-.688 1.375V8.25H11V6.875zm0 2.75V16.5H11V9.625zm0 0" fill="#73C48F"/>
    </g>
</svg>
