<svg xmlns="http://www.w3.org/2000/svg" height="64" width="64">
    <g fill="none" stroke="#7B6F64" stroke-width=".768" stroke-linecap="round" stroke-linejoin="round">
        <path d="M10.454 2.638c-1.535 0-2.302.768-2.302 2.303v38.372c0 1.535.767 2.302 2.302 2.302H38.85c1.535 0 2.302-.767 2.302-2.302V14.918L29.64 2.638z" transform="matrix(1.30303 0 0 1.30302 .878 1.062)"/>
        <path d="M29.64 2.638l11.512 12.28h-9.21c-1.534 0-2.302-.768-2.302-2.303z" transform="matrix(1.30303 0 0 1.30302 .878 1.062)"/>
    </g>
    <g transform="scale(1.5 1.5) translate(11 12)" id="g2522">     <path d="M4.125 2.75c-.762 0-1.375.613-1.375 1.375v13.75c0 .762.613 1.375 1.375 1.375h13.75c.762 0 1.375-.613 1.375-1.375V4.125c0-.762-.613-1.375-1.375-1.375zm0 1.375h13.75v13.75H4.125zm8.25 1.375v4.125H16.5A4.126 4.126 0 0 0 12.375 5.5M11 6.875a4.126 4.126 0 0 0 0 8.25A4.126 4.126 0 0 0 15.125 11H11zm0 0" fill="#FD8019"/>
    </g>
</svg>
