<svg xmlns="http://www.w3.org/2000/svg" height="64" width="64">
    <g fill="none" stroke="#7B6F64" stroke-width=".768" stroke-linecap="round" stroke-linejoin="round">
        <path d="M10.454 2.638c-1.535 0-2.302.768-2.302 2.303v38.372c0 1.535.767 2.302 2.302 2.302H38.85c1.535 0 2.302-.767 2.302-2.302V14.918L29.64 2.638z" transform="matrix(1.30303 0 0 1.30302 .878 1.062)"/>
        <path d="M29.64 2.638l11.512 12.28h-9.21c-1.534 0-2.302-.768-2.302-2.303z" transform="matrix(1.30303 0 0 1.30302 .878 1.062)"/>
    </g>
    <g transform="scale(1.5 1.5) translate(11 12)" id="g2522">     <path d="M4.125 2.75c-.762 0-1.375.613-1.375 1.375v13.75c0 .762.613 1.375 1.375 1.375h11c.762 0 1.375-.613 1.375-1.375h1.375c.762 0 1.375-.613 1.375-1.375v-2.75c0-.254-.09-.484-.21-.688.12-.203.21-.433.21-.687v-2.75c0-.254-.09-.484-.21-.688.12-.203.21-.433.21-.687V5.5c0-.762-.613-1.375-1.375-1.375H16.5c0-.762-.613-1.375-1.375-1.375zm0 1.375h11v13.75h-11zM5.5 5.5v2.75h8.25V5.5zm11 0h1.375v2.75H16.5zm-11 4.125V11h8.25V9.625zm11 0h1.375v2.75H16.5zm-11 2.75v1.375h8.25v-1.375zm11 1.375h1.375v2.75H16.5zm-11 1.375V16.5h8.25v-1.375zm0 0" fill="#A04A73"/>
    </g>
</svg>
