<svg xmlns="http://www.w3.org/2000/svg" height="64" width="64">
    <g fill="none" stroke="#7B6F64" stroke-width=".768" stroke-linecap="round" stroke-linejoin="round">
        <path d="M10.454 2.638c-1.535 0-2.302.768-2.302 2.303v38.372c0 1.535.767 2.302 2.302 2.302H38.85c1.535 0 2.302-.767 2.302-2.302V14.918L29.64 2.638z" transform="matrix(1.30303 0 0 1.30302 .878 1.062)"/>
        <path d="M29.64 2.638l11.512 12.28h-9.21c-1.534 0-2.302-.768-2.302-2.303z" transform="matrix(1.30303 0 0 1.30302 .878 1.062)"/>
    </g>
    <g transform="scale(1.5 1.5) translate(11 12)" id="g2522">     <path d="M5.3 2.75c-.222.016-.46 0-.722.18-2.344 1.007-.773 3.77 2.215 5.875.016-.399.184-1.262.18-1.64-2.551-1.743-4.04-3.442-2.414-4.118 1.71-.707 2.242 1.23 2.27 4.043.16.164 1.265.894 1.433 1.012-.063-2.563-1.426-5.184-2.739-5.332-.07-.012-.148-.012-.222-.012m2.386 4.46l-.535-.206-.441.297-.086.937.555.426.234.312c1.719 1.137 3.184 2.016 5.11 2.739l1.203.18h.789c.73-.43.293-.594 2.941-.926l-2.98.234c-2.305-.895-4.653-2.172-6.79-3.57m5.254 3.734c.344 0 3.036-.234 4.106-.332 1.062-.168 2.363-.215 2.117 1.02.281-.66-.36-1.778-1.266-1.977-1.406-.313-3.636.547-4.437.812m1.293.34c-.418.164-1.375.285-1.824.434.636.332 3.847 1.515 5.172 1.265.214 0 1.109-.64 1.128-1.105-.066.844-3.992.215-4.476-.61m.871.016c-.344-.164-1.953-.156-2.309-.289-2.02.703-4.73 2.36-6.671 3.473l-.563.168c-.11.77-.582 1.035-1.016 1.535l.657.66.515-.844c2.274-1.367 6.766-3.582 9.387-4.644M6.238 15.94a23.71 23.71 0 0 0-.797.496C4.86 18.09 4.18 19.2 3.531 19.152c1.004.48 3.16-1.879 3.887-4.097m-3.887 4.097c-1.527-.906 1.707-2.558 2.434-3.043.164-.46-.285-1.226-.14-1.77-2.282 1.419-3.634 3.473-2.864 4.446.184.23.379.348.57.363m2.223-3.457c.105-.425 1.516-1.394 1.77-1.543.343-2.68.359-2.945.648-5.03C8 8.952 6.934 8.12 6.77 8.007c-.207 2.226-.59 5.246-1.137 7.262" fill="#FA4934"/>
    </g>
</svg>
