<svg xmlns="http://www.w3.org/2000/svg" height="64" width="64">
    <g fill="none" stroke="#7B6F64" stroke-width=".768" stroke-linecap="round" stroke-linejoin="round">
        <path d="M10.454 2.638c-1.535 0-2.302.768-2.302 2.303v38.372c0 1.535.767 2.302 2.302 2.302H38.85c1.535 0 2.302-.767 2.302-2.302V14.918L29.64 2.638z" transform="matrix(1.30303 0 0 1.30302 .878 1.062)"/>
        <path d="M29.64 2.638l11.512 12.28h-9.21c-1.534 0-2.302-.768-2.302-2.303z" transform="matrix(1.30303 0 0 1.30302 .878 1.062)"/>
    </g>
    <g transform="scale(1.5 1.5) translate(11 12)" id="g2522">     <path d="M12.5 2.75L8.172 18.89l1.332.36 4.324-16.14zM7.266 5.5l-4.07 4.324-.446.48.445.473 4.047 4.348.985-.953-3.606-3.867L8.25 6.457zm7.468 0l-.984.957 3.629 3.844-3.606 3.867.985.957 4.047-4.348.445-.476-.445-.477zm0 0" fill="#8F3F71"/>
    </g>
</svg>
