<svg xmlns="http://www.w3.org/2000/svg" height="64" width="64">
    <g fill="none" stroke="#7B6F64" stroke-width=".768" stroke-linecap="round" stroke-linejoin="round">
        <path d="M10.454 2.638c-1.535 0-2.302.768-2.302 2.303v38.372c0 1.535.767 2.302 2.302 2.302H38.85c1.535 0 2.302-.767 2.302-2.302V14.918L29.64 2.638z" transform="matrix(1.30303 0 0 1.30302 .878 1.062)"/>
        <path d="M29.64 2.638l11.512 12.28h-9.21c-1.534 0-2.302-.768-2.302-2.303z" transform="matrix(1.30303 0 0 1.30302 .878 1.062)"/>
    </g>
    <g transform="scale(1.5 1.5) translate(11 12)" id="g2522">     <path d="M2.75 4.125v13.75h16.5V4.125zM5.07 5.5h11.86L11 11.43zm-.945.945l4.426 4.426-4.426 3.781zm13.75 0v8.207l-4.426-3.78zm-8.379 5.371l1.031 1.032.473.515.473-.515 1.03-1.032 5.372 4.598v.086H4.125v-.086zm0 0" fill="#48B9C7"/>
    </g>
</svg>
