<svg xmlns="http://www.w3.org/2000/svg" height="64" width="64">
    <g fill="none" stroke="#7B6F64" stroke-width=".768" stroke-linecap="round" stroke-linejoin="round">
        <path d="M10.454 2.638c-1.535 0-2.302.768-2.302 2.303v38.372c0 1.535.767 2.302 2.302 2.302H38.85c1.535 0 2.302-.767 2.302-2.302V14.918L29.64 2.638z" transform="matrix(1.30303 0 0 1.30302 .878 1.062)"/>
        <path d="M29.64 2.638l11.512 12.28h-9.21c-1.534 0-2.302-.768-2.302-2.303z" transform="matrix(1.30303 0 0 1.30302 .878 1.062)"/>
    </g>
    <g transform="scale(1.5 1.5) translate(11 12)" id="g2522">     <path d="M8.25 2.75A4.098 4.098 0 0 0 5.5 6.621v.524a2.727 2.727 0 0 1-1.375 2.367v2.98A2.721 2.721 0 0 1 5.5 14.855v.524c0 1.8 1.148 3.305 2.75 3.871v-1.5a2.734 2.734 0 0 1-1.375-2.371v-.524A4.09 4.09 0 0 0 4.152 11c1.586-.574 2.723-2.07 2.723-3.86v-.523c0-1.015.555-1.894 1.375-2.367zm5.5 0v1.5a2.734 2.734 0 0 1 1.375 2.371v.524A4.094 4.094 0 0 0 17.848 11c-1.586.574-2.723 2.07-2.723 3.86v.523a2.727 2.727 0 0 1-1.375 2.367v1.504a4.102 4.102 0 0 0 2.75-3.871v-.524c0-1.015.555-1.89 1.375-2.367V9.516A2.734 2.734 0 0 1 16.5 7.145V6.62a4.093 4.093 0 0 0-2.75-3.867" fill="#8F3F71"/>
    </g>
</svg>
