<svg xmlns="http://www.w3.org/2000/svg" height="64" width="64">
    <g fill="none" stroke="#7B6F64" stroke-width=".768" stroke-linecap="round" stroke-linejoin="round">
        <path d="M10.454 2.638c-1.535 0-2.302.768-2.302 2.303v38.372c0 1.535.767 2.302 2.302 2.302H38.85c1.535 0 2.302-.767 2.302-2.302V14.918L29.64 2.638z" transform="matrix(1.30303 0 0 1.30302 .878 1.062)"/>
        <path d="M29.64 2.638l11.512 12.28h-9.21c-1.534 0-2.302-.768-2.302-2.303z" transform="matrix(1.30303 0 0 1.30302 .878 1.062)"/>
    </g>
    <g transform="scale(1.5 1.5) translate(11 12)" id="g2522">     <path d="M10.953 16.113L5.79 10.95l5.164-5.16 1.723 1.719-3.446 3.441 1.723 1.723 5.164-5.164-4.5-4.5a.95.95 0 0 0-1.332 0l-7.273 7.277a.936.936 0 0 0 0 1.332l7.273 7.274a.943.943 0 0 0 1.332 0l7.274-7.274a.936.936 0 0 0 0-1.332L17.836 9.23zm0 0" fill="#F9BD2E"/>
    </g>
</svg>
