<svg xmlns="http://www.w3.org/2000/svg" height="64" width="64">
    <g fill="none" stroke="#7B6F64" stroke-width=".768" stroke-linecap="round" stroke-linejoin="round">
        <path d="M10.454 2.638c-1.535 0-2.302.768-2.302 2.303v38.372c0 1.535.767 2.302 2.302 2.302H38.85c1.535 0 2.302-.767 2.302-2.302V14.918L29.64 2.638z" transform="matrix(1.30303 0 0 1.30302 .878 1.062)"/>
        <path d="M29.64 2.638l11.512 12.28h-9.21c-1.534 0-2.302-.768-2.302-2.303z" transform="matrix(1.30303 0 0 1.30302 .878 1.062)"/>
    </g>
    <g transform="scale(1.5 1.5) translate(11 12)" id="g2522">     <path d="M11 2.75a4.116 4.116 0 0 0-4.125 4.125V11h-2.75v8.25h13.75V11h-2.75V6.875A4.116 4.116 0 0 0 11 2.75m0 1.375c1.715 0 2.75.75 2.75 2.75V11h-5.5V6.875c0-2 1.035-2.75 2.75-2.75" fill="#7B6F64"/>
    </g>
</svg>
