<svg xmlns="http://www.w3.org/2000/svg" height="64" width="64">
    <g fill="none" stroke="#7B6F64" stroke-width=".768" stroke-linecap="round" stroke-linejoin="round">
        <path d="M10.454 2.638c-1.535 0-2.302.768-2.302 2.303v38.372c0 1.535.767 2.302 2.302 2.302H38.85c1.535 0 2.302-.767 2.302-2.302V14.918L29.64 2.638z" transform="matrix(1.30303 0 0 1.30302 .878 1.062)"/>
        <path d="M29.64 2.638l11.512 12.28h-9.21c-1.534 0-2.302-.768-2.302-2.303z" transform="matrix(1.30303 0 0 1.30302 .878 1.062)"/>
    </g>
    <g transform="scale(1.5 1.5) translate(11 12)" id="g2522">     <path d="M9.625 2.75V5.5h2.75V2.75zm-.18 3.242l-2.722.73 1.125 1.126 1.777-.48V5.991zm2.93 0v1.375l4.203 1.125-4.203 1.125v9.625h.18l6.683-1.789h.012v-9.68l-.012.004-6.683-1.793zM4.551 7.301l-1.801.484v10.09L11 19.25V9.625L4.96 8.617l.716-.191zm13.324 2.273v6.094l-4.125-1.11V10.68zm-4.125 6.41l2.828.758-2.828.762zm0 0" fill-rule="evenodd" fill="#066678"/>
    </g>
</svg>
