<svg xmlns="http://www.w3.org/2000/svg" height="64" width="64">
    <g fill="none" stroke="#7B6F64" stroke-width=".768" stroke-linecap="round" stroke-linejoin="round">
        <path d="M10.454 2.638c-1.535 0-2.302.768-2.302 2.303v38.372c0 1.535.767 2.302 2.302 2.302H38.85c1.535 0 2.302-.767 2.302-2.302V14.918L29.64 2.638z" transform="matrix(1.30303 0 0 1.30302 .878 1.062)"/>
        <path d="M29.64 2.638l11.512 12.28h-9.21c-1.534 0-2.302-.768-2.302-2.303z" transform="matrix(1.30303 0 0 1.30302 .878 1.062)"/>
    </g>
    <g transform="scale(1.5 1.5) translate(11 12)" id="g2522">     <path d="M2.75 2.75v16.5h9.625v-1.375H8.25V13.75h4.125v-1.375H8.25V8.25h5.5V11h1.375V8.25h2.75V11h1.375V2.75zm1.375 1.375h13.75v2.75H4.125zm0 4.125h2.75v4.125h-2.75zm11.688 4.125c-1.145 0-2.063.879-2.063 1.965 0 1.05.855 1.894 1.941 1.953.079.36.121.727.121 1.094a5.16 5.16 0 0 1-.355 1.863c1.512-1.008 2.414-2.656 2.418-4.418v-.492c0-1.086-.918-1.965-2.063-1.965M4.126 13.75h2.75v4.125h-2.75zm0 0" fill="#7B6F64"/>
    </g>
</svg>
