<svg xmlns="http://www.w3.org/2000/svg" height="64" width="64">
    <g fill="none" stroke="#7B6F64" stroke-width=".768" stroke-linecap="round" stroke-linejoin="round">
        <path d="M10.454 2.638c-1.535 0-2.302.768-2.302 2.303v38.372c0 1.535.767 2.302 2.302 2.302H38.85c1.535 0 2.302-.767 2.302-2.302V14.918L29.64 2.638z" transform="matrix(1.30303 0 0 1.30302 .878 1.062)"/>
        <path d="M29.64 2.638l11.512 12.28h-9.21c-1.534 0-2.302-.768-2.302-2.303z" transform="matrix(1.30303 0 0 1.30302 .878 1.062)"/>
    </g>
    <g transform="scale(1.5 1.5) translate(11 12)" id="g2522">     <path d="M17.188 2.75a2.06 2.06 0 0 0-2.063 2.063 2.06 2.06 0 0 0 2.063 2.062 2.06 2.06 0 0 0 2.062-2.063 2.06 2.06 0 0 0-2.063-2.062m-6.875 1.375a7.564 7.564 0 0 0 0 15.125 7.564 7.564 0 0 0 7.563-7.563 7.542 7.542 0 0 0-1.766-4.843A2.744 2.744 0 0 1 13.75 11a2.749 2.749 0 1 1 1.45-5.082 7.569 7.569 0 0 0-4.887-1.793" fill="#066678"/>
    </g>
</svg>
