<svg xmlns="http://www.w3.org/2000/svg" height="64" width="64">
    <g fill="none" stroke="#7B6F64" stroke-width=".768" stroke-linecap="round" stroke-linejoin="round">
        <path d="M10.454 2.638c-1.535 0-2.302.768-2.302 2.303v38.372c0 1.535.767 2.302 2.302 2.302H38.85c1.535 0 2.302-.767 2.302-2.302V14.918L29.64 2.638z" transform="matrix(1.30303 0 0 1.30302 .878 1.062)"/>
        <path d="M29.64 2.638l11.512 12.28h-9.21c-1.534 0-2.302-.768-2.302-2.303z" transform="matrix(1.30303 0 0 1.30302 .878 1.062)"/>
    </g>
    <g transform="scale(1.5 1.5) translate(11 12)" id="g2522">     <path d="M2.75 2.75v16.5h16.5V2.75zm4.125 1.375h8.25v5.5h-8.25zM4.125 5.5H5.5v1.375H4.125zm12.375 0h1.375v1.375H16.5zM4.125 10.313H5.5v1.374H4.125zm12.375 0h1.375v1.374H16.5zm-9.625 2.062h8.25v5.5h-8.25zm-2.75 2.75H5.5V16.5H4.125zm12.375 0h1.375V16.5H16.5zm0 0" fill="#066678"/>
    </g>
</svg>
