<svg xmlns="http://www.w3.org/2000/svg" width="64" height="64">
    <path d="M4 54.8v2A4.19 4.19 0 0 0 8.2 61h47.6a4.19 4.19 0 0 0 4.2-4.2v-2a4.19 4.19 0 0 1-4.2 4.2H8.2C5.872 59 4 57 4 54.8z" opacity=".2"/>
    <rect width="56" height="56" x="4" y="4" rx="4.2" ry="4.2" fill="#7CB668"/>
    <path d="M8.2 4.002a4.19 4.19 0 0 0-4.2 4.2v1a4.19 4.19 0 0 1 4.2-4.2h47.599c2.328 0 4.199 1.872 4.199 4.2v-1c0-2.328-1.871-4.2-4.2-4.2H8.2z" opacity=".2" fill="#F9F5D7"/>
    <path d="M17 26s-.959-.02-1.947.48C14.064 26.976 13 28.168 13 30h2c0-2 2-2 2-2s2 0 2 2c0 .75-.255 1.314-.725 1.915-.47.6-1.165 1.192-1.915 1.817s-1.555 1.284-2.21 2.12C13.495 36.69 13 37.75 13 39v1h8v-2h-5.817c.122-.315.304-.61.542-.915.47-.6 1.165-1.192 1.915-1.817s1.555-1.284 2.21-2.12C20.505 32.31 21 31.25 21 30c0-1.833-1.064-3.025-2.053-3.52C17.96 25.987 17 26 17 26z" opacity=".2" fill-rule="evenodd"/>
    <path d="M17 25s-.959-.02-1.947.48C14.064 25.976 13 27.168 13 29h2c0-2 2-2 2-2s2 0 2 2c0 .75-.255 1.314-.725 1.915-.47.6-1.165 1.192-1.915 1.817s-1.555 1.284-2.21 2.12C13.495 35.69 13 36.75 13 38v1h8v-2h-5.817c.122-.315.304-.61.542-.915.47-.6 1.165-1.192 1.915-1.817s1.555-1.284 2.21-2.12C20.505 31.31 21 30.25 21 29c0-1.833-1.064-3.025-2.053-3.52C17.96 24.987 17 25 17 25z" fill="#F9F5D7" fill-rule="evenodd"/>
    <path d="M27 26c-2.199 0-4 1.801-4 4v6c0 2.199 1.801 4 4 4s4-1.801 4-4v-6c0-2.199-1.801-4-4-4zm0 2c1.125 0 2 .875 2 2v6c0 1.125-.875 2-2 2s-2-.875-2-2v-6c0-1.125.875-2 2-2z" opacity=".2"/>
    <path d="M27 25c-2.199 0-4 1.801-4 4v6c0 2.199 1.801 4 4 4s4-1.801 4-4v-6c0-2.199-1.801-4-4-4zm0 2c1.125 0 2 .875 2 2v6c0 1.125-.875 2-2 2s-2-.875-2-2v-6c0-1.125.875-2 2-2z" fill="#F9F5D7"/>
    <path d="M35 26v6h4v-6h2v14h-2v-6h-6v-8h2" opacity=".2" fill-rule="evenodd"/>
    <path d="M35 25v6h4v-6h2v14h-2v-6h-6v-8h2" fill="#F9F5D7" fill-rule="evenodd"/>
    <path d="M47 26c-2.199 0-4 1.801-4 4 0 1.198.546 2.265 1.389 3-.843.735-1.389 1.802-1.389 3 0 2.199 1.801 4 4 4s4-1.801 4-4c0-1.198-.546-2.265-1.389-3 .843-.735 1.389-1.802 1.389-3 0-2.199-1.801-4-4-4zm0 2c1.125 0 2 .875 2 2s-.875 2-2 2-2-.875-2-2 .875-2 2-2zm0 6c1.125 0 2 .875 2 2s-.875 2-2 2-2-.875-2-2 .875-2 2-2z" opacity=".2"/>
    <path d="M47 25c-2.199 0-4 1.801-4 4 0 1.198.546 2.265 1.389 3-.843.735-1.389 1.802-1.389 3 0 2.199 1.801 4 4 4s4-1.801 4-4c0-1.198-.546-2.265-1.389-3 .843-.735 1.389-1.802 1.389-3 0-2.199-1.801-4-4-4zm0 2c1.125 0 2 .875 2 2s-.875 2-2 2-2-.875-2-2 .875-2 2-2zm0 6c1.125 0 2 .875 2 2s-.875 2-2 2-2-.875-2-2 .875-2 2-2z" fill="#F9F5D7"/>
</svg>
