<svg xmlns="http://www.w3.org/2000/svg" width="64" height="64">
    <path d="M11.717 6.969c-.49.013-.968.058-1.436.133-3.74.597-6.592 3.403-7.158 7.035-.394 2.526.644 5.42 3.02 7.763 1.718 1.696 4.296 2.876 7.437 2.836-.067.178-.658 1.848-1.336 3.772C11.184 31.514 11 32.215 11 33.436c0 1.379.062 1.557 1.664 4.734.915 1.816 1.947 3.694 2.293 4.172.839 1.16 2.309 1.662 4.12 1.662 2.366 0 3.82-1.381 2.345-4.107-.225-.374-.51-.84-.867-1.448-1.077-1.827-1.353-1.942-1.118-2.226.404-.488 1.592-.265 3.26.555.994.488 1.865 1.165 3.05 2.369 2.598 2.64 4.283 5.487 5.628 10.232.714 2.52 1.161 3.367 2.098 3.984 1.534 1.012 3.306.836 4.105-.386.352-.538.55-2.518.393-4.383-.119-1.407.193-1.694 3.328-1.582 2.82.1 3.905-.282 4.94.699.324.308 1.703 2.121 3.062 4.031 2.828 3.976 4.586 6.203 5.84 6.825 1.043.517 2.99.584 3.861.132.68-.352 1.155-1.343.951-1.986-.078-.247-.795-1.118-1.592-1.935-1.646-1.69-2.334-1.686-5.591-8.864-1.244-2.739-2.514-4.426-2.823-4.752-1.601-1.687-2.775-1.586-5.572.479-2.415 1.782-2.882 1.747-4.066 1.91-1.28.176-2.406-.205-4.194-1.414-3.825-2.632-5.146-14.412.139-10.373 1.02 1.39.801-.71 1.781-.416.682.204 1.067 1.946 1.965 1.652l.83-.119c3.353 5.314 6.86 1.129.73-.572l.112-1.319-3.281-3.449c-4.437-4.71-7.054-6.946-8.31-7.693-2.039-1.212-3.738-1.715-6.048-1.824-2.503-.119-2.963.186-5.58 1.357-.977.438-1.788.752-2.543.998-3.53.99-5.55.059-6.957-1.328-1.45-1.43-1.963-3.743-1.877-4.297.325-2.083 1.549-3.338 3.836-3.703 2.288-.366 5.777.432 9.826 3.537a2 2 0 0 0 .99.397 2 2 0 0 0 .192.016 2 2 0 0 0 .035 0 2 2 0 0 0 .879-3.81c-3.374-2.511-6.657-3.887-9.617-4.169-.51-.049-1.01-.066-1.5-.053zM41.672 30.99c1.038 1.796 3.894 3.101 6.25 3.992a14.235 14.235 0 0 0-.295-1.654c-.976-4.071-1.79-5.342-2.758-5.328-.496.01-1.035.018-1.656.85-.513.686-1.02 1.487-1.524 2.09l-.017.05z" opacity=".2" fill-rule="evenodd"/>
    <path d="M16.823 21.209C8.2 23.856 4.62 16.525 5.1 13.445 5.991 7.73 13.247 5.323 21.955 12h0" fill="none" stroke="#504945" stroke-width="4" stroke-linecap="round" stroke-linejoin="round"/>
    <path d="M55.14 57.567c-1.254-.621-3.011-2.848-5.84-6.824-1.359-1.91-2.736-3.725-3.06-4.032-1.035-.982-2.121-.598-4.941-.699-3.135-.112-3.447.175-3.329 1.582.157 1.865-.041 3.845-.393 4.383-.8 1.222-2.57 1.399-4.104.387-.936-.618-1.383-1.467-2.097-3.986-1.346-4.745-3.03-7.591-5.63-10.232-1.184-1.203-2.055-1.88-3.05-2.37-1.667-.819-2.855-1.042-3.259-.554-.235.284.041.4 1.118 2.227.358.607.642 1.074.867 1.448 1.475 2.726.02 4.11-2.346 4.107-1.81 0-3.28-.503-4.118-1.663-.346-.478-1.378-2.355-2.294-4.17C11.063 33.992 11 33.814 11 32.435c0-1.221.184-1.921 1.244-4.927.684-1.941 1.29-3.653 1.349-3.806.083-.218-.341-.281-2.021-.298-.525-1.247.318-3.312 1.665-3.43 1.616-.182 3.029-.614 5.216-1.593 2.617-1.172 3.077-1.477 5.58-1.358 2.31.109 4.01.611 6.048 1.823 1.256.747 3.874 2.983 8.31 7.693l3.28 3.45-.11 1.32c6.13 1.7 2.623 5.885-.73.57L40 32c-.898.294-1.283-1.448-1.964-1.653-.98-.294-.762 1.806-1.782.416-5.285-4.039-3.964 7.742-.139 10.374 1.787 1.209 2.914 1.589 4.194 1.413 1.185-.163 1.652-.127 4.067-1.91 2.796-2.064 3.97-2.165 5.572-.477.308.325 1.578 2.013 2.821 4.752 3.258 7.177 3.947 7.174 5.593 8.863.796.817 1.512 1.688 1.59 1.935.204.643-.27 1.634-.95 1.986-.872.452-2.819.385-3.862-.132z" fill="#504945"/>
    <path d="M35.131 28c-.968-.014-1.782 1.257-2.757 5.328-.255 1.064-.385 1.996-.373 2.836.035 2.45 1.689 4.507 4.593 6.436 1.414.94 2.416 1.35 3.406 1.4.99-.05 1.992-.46 3.406-1.4 2.904-1.93 4.558-3.986 4.593-6.436a9.36 9.36 0 0 0-.11-1.504c-.062-.42-.955-.616-1.068-1.084-.975-4.072-.984-3.95-1.952-3.935-.497.01-.633-.199-1.254.633-.461.618-1.322-.088-1.775.488-.19.241-.378.457-.567.631-1.017.904-1.363.792-2.363.162-.697-.583-1.405-1.745-2.123-2.705-.62-.832-1.16-.844-1.656-.85z" opacity=".2"/>
    <path d="M35.131 27c-.968-.014-1.782 1.257-2.757 5.328-.255 1.064-.385 1.996-.373 2.836.035 2.45 1.689 4.507 4.593 6.436 1.414.94 2.416 1.35 3.406 1.4.99-.05 1.992-.46 3.406-1.4 2.904-1.93 4.558-3.986 4.593-6.436a9.36 9.36 0 0 0-.11-1.504c-.062-.42-.955-.616-1.068-1.084-.975-4.072-.984-3.95-1.952-3.935-.497.01-.633-.199-1.254.633-.461.618-1.322-.088-1.775.488-.19.241-.378.457-.567.631-1.017.904-1.363.792-2.363.162-.697-.583-1.405-1.745-2.123-2.705-.62-.832-1.16-.844-1.656-.85z" fill="#F9F5D7"/>
    <path d="M44.87 27c-.497.01-1.036.018-1.657.85-.513.686-1.02 1.487-1.524 2.09l-.017.05c1.038 1.796 3.894 3.101 6.25 3.992a14.235 14.235 0 0 0-.295-1.654c-.976-4.071-1.79-5.342-2.758-5.328zM35.343 35.001c1.047-.03 1.657.573 1.657 1.712 0 1.283-.154 1.432-1.25 1.19-1.034-.228-1.667-.61-1.96-1.179-.467-.904-.388-1.213.369-1.478.439-.153.835-.235 1.184-.245zM40 39c1.103.018 2 .066 2 .14 0 .081-.533.922-1.184 1.67L40 42l-.816-1.19c-.65-.748-1.184-1.587-1.184-1.67 0-.075.897-.128 2-.14zM44.657 35.001c-1.047-.03-1.657.573-1.657 1.712 0 1.283.154 1.432 1.25 1.19 1.034-.228 1.667-.61 1.96-1.179.467-.904.388-1.213-.369-1.478-.439-.153-.835-.235-1.184-.245z" fill="#504945"/>
    <path d="M11.717 5.969c-.49.013-.968.058-1.436.133-3.74.597-6.592 3.403-7.158 7.035a7.073 7.073 0 0 0-.049 1.58c.014-.194.02-.39.049-.58.566-3.632 3.418-6.438 7.158-7.035.468-.075.946-.12 1.436-.133.49-.014.99.004 1.5.052 2.96.282 6.243 1.658 9.617 4.17a2 2 0 0 1 1.08 1.309 2 2 0 0 0-1.08-2.309c-3.374-2.512-6.657-3.888-9.617-4.17-.51-.048-1.01-.066-1.5-.052zm-4.582 8.517c-.019.09-.044.174-.059.268-.086.554.426 2.866 1.877 4.297 1.406 1.387 3.428 2.317 6.957 1.328.755-.246 1.566-.56 2.543-.998 2.617-1.172 3.077-1.476 5.58-1.358 2.31.11 4.01.613 6.047 1.825 1.257.747 3.874 2.983 8.31 7.693l3.204 3.367.078-.918-3.281-3.449c-4.437-4.71-7.054-6.946-8.31-7.693-2.039-1.212-3.738-1.715-6.048-1.825-2.503-.118-2.963.186-5.58 1.358-.977.437-1.788.752-2.543.998-3.53.99-5.55.059-6.957-1.328-1.078-1.063-1.637-2.611-1.818-3.565zM41.672 29.99c.098.17.228.333.357.494.392-.524.786-1.102 1.184-1.634.62-.832 1.16-.84 1.656-.85.969-.014 1.782 1.257 2.758 5.328.048.202.084.392.121.584.057.022.118.05.174.07a14.235 14.235 0 0 0-.295-1.654c-.976-4.071-1.79-5.342-2.758-5.328-.496.01-1.035.018-1.656.85-.513.686-1.02 1.487-1.524 2.09l-.017.05zM13.23 24.725c-.23.645-.485 1.363-.986 2.783C11.184 30.514 11 31.215 11 32.436c0 .222.014.386.023.564.05-.991.295-1.866 1.221-4.492a693.11 693.11 0 0 1 1.336-3.772c-.12.002-.232-.01-.35-.011zm6.457 11.328a.636.636 0 0 0-.25.17c-.235.284.04.4 1.118 2.226.358.607.642 1.073.867 1.447.287.531.459 1.01.539 1.438.141-.634-.003-1.446-.54-2.438-.224-.374-.508-.84-.866-1.447-.445-.754-.676-1.093-.867-1.396zm27.922 2.941a2.904 2.904 0 0 0-.529.113 8.837 8.837 0 0 1-1.316 1.608c1.844-1.093 2.88-.927 4.183.447.309.325 1.58 2.013 2.823 4.752 3.257 7.177 3.945 7.174 5.591 8.863.71.728 1.33 1.475 1.518 1.809.105-.305.156-.616.074-.873-.078-.247-.795-1.119-1.592-1.936-1.646-1.689-2.334-1.686-5.591-8.863-1.244-2.739-2.514-4.427-2.823-4.752-.8-.844-1.494-1.24-2.338-1.168zm-9.627 8.885a2.96 2.96 0 0 0-.011.715c.024.284.025.567.033.851.017-.506.013-1.029-.022-1.566z" opacity=".1" fill="#F9F5D7" fill-rule="evenodd"/>
</svg>
