<svg xmlns="http://www.w3.org/2000/svg" width="64" height="64" version="1">
    <path d="M60 58.2S60 5 32 5 4 58.2 4 58.2C4 59.751 5.249 61 6.8 61h50.4c1.551 0 2.8-1.249 2.8-2.8z" opacity=".2"/>
    <path d="M60 57.2S60 4 32 4 4 57.2 4 57.2C4 58.751 5.249 60 6.8 60h50.4c1.551 0 2.8-1.249 2.8-2.8z" fill="#8F3F71"/>
    <path d="M32 4C4 4 4 57.2 4 57.2c0 .063.012.124.02.187C4.072 53.069 5.244 5 32 5s27.928 48.069 27.98 52.387c.008-.063.02-.124.02-.188C60 57.2 60 4 32 4z" opacity=".2" fill="#F9F5D7"/>
    <path d="M48 33c0 8.837-7.163 16-16 16s-16-7.163-16-16c0-5.927 3.222-11.1 8.01-13.866 2.352-1.357 4.902 2.328 7.812 2.328 3.016 0 6.015-3.627 8.423-2.177C44.892 22.085 48 27.18 48 33z" opacity=".2"/>
    <path d="M48 32c0 8.837-7.163 16-16 16s-16-7.163-16-16c0-5.927 3.222-11.1 8.01-13.866 2.352-1.357 4.902 2.328 7.812 2.328 3.016 0 6.015-3.627 8.423-2.177C44.892 21.085 48 26.18 48 32z" fill="#7CB668"/>
    <circle cx="32" cy="32" r="10" fill="#7CB668"/>
    <path d="M10.5 20s5.346-3.524 8.9-3.5c4.596.03 8.004 6 12.6 6s8.004-5.97 12.6-6c3.554-.024 8.9 3.5 8.9 3.5h0" opacity=".2" fill="none" stroke="#151819" stroke-width="5" stroke-linecap="round" stroke-linejoin="round"/>
    <path d="M10.5 19s5.346-3.524 8.9-3.5c4.596.03 8.004 6 12.6 6s8.004-5.97 12.6-6c3.554-.024 8.9 3.5 8.9 3.5h0" fill="none" stroke="#3A393A" stroke-width="5" stroke-linecap="round" stroke-linejoin="round"/>
</svg>
