<svg xmlns="http://www.w3.org/2000/svg" width="64" height="64" version="1">
    <path d="M4 56v2c0 1.662 1.338 3 3 3h50c1.662 0 3-1.338 3-3v-2c0 1.662-1.338 3-3 3H7c-1.662 0-3-1.338-3-3z" opacity=".2"/>
    <rect width="56" height="56" x="4" y="4" rx="3" ry="3" fill="#504945"/>
    <path d="M14.041 19l.1.823c.182 1.542.373 2.04.892 2.307.267.138.534.434.592.66.112.44.396.557.396.16 0-.134-.297-.819-.66-1.521-.364-.704-.663-1.352-.665-1.442-.003-.09-.149-.35-.328-.576zm35.918 0l-.327.412c-.178.226-.325.485-.327.575-.003.09-.301.739-.664 1.442-.364.702-.662 1.387-.662 1.521 0 .397.285.28.397-.16.058-.226.324-.522.592-.66.52-.267.71-.765.892-2.307zm-37.604.908c-.099 0-.12.12-.05.286.281.664.288 1.03.017 1.03-.147 0-.267.055-.267.125 0 .26.542.888.885 1.026.41.165.767.203.767.08 0-.046-.073-.215-.162-.372-.088-.157-.238-.598-.333-.978-.174-.694-.536-1.197-.857-1.197zm39.288 0c-.32 0-.682.503-.856 1.197-.095.38-.245.82-.334.978-.088.157-.162.326-.162.373 0 .122.362.084.77-.08.344-.14.883-.768.883-1.027 0-.07-.12-.125-.268-.125-.27 0-.264-.366.017-1.03.07-.167.05-.286-.05-.286zm-19.697.409c.056.144.005.247-.125.247-.547 0-.76 1.978-.348 3.208.111.329.108.329-.092 0-.332-.546-.859-1.072-1.078-1.072-.113 0-.257.224-.317.496-.06.271-.179.495-.268.495-.089 0-.118-.074-.062-.164.055-.09.035-.286-.05-.437-.139-.247-.174-.239-.344.077-.147.274-.137.481.06.949.317.755.315.888-.01.888-.345 0-.205.398.165.47.326.062.922-.41.922-.73 0-.117.083-.262.182-.323.258-.158.545.183.377.448-.077.12-.141.268-.142.328-.002.06-.211.273-.466.473-.59.462-.573 1.198.03 1.283.226.032.346-.011.287-.106-.059-.094.064-.09.29.016.215.1.466.391.563.644.169-.008.327-.028.479-.061.152.033.31.053.48.06.096-.252.35-.542.565-.643.226-.106.346-.11.287-.016-.059.095.064.138.291.106.602-.085.617-.821.026-1.283-.255-.2-.464-.414-.466-.473 0-.06-.065-.207-.142-.328-.168-.265.119-.606.377-.448.099.061.182.206.182.322 0 .32.596.793.922.73.37-.071.51-.47.165-.47-.325 0-.327-.132-.01-.887.197-.468.21-.675.063-.95-.17-.315-.205-.323-.344-.076-.084.15-.108.347-.052.437.055.09.026.164-.063.164-.09 0-.208-.224-.268-.495-.06-.272-.204-.496-.317-.496-.22 0-.746.526-1.078 1.072-.2.329-.203.329-.092 0 .412-1.23.199-3.208-.348-3.208-.13 0-.18-.103-.125-.247l-.053.06-.053-.06zm-21.762.46c-.31.107-.204 2.171.139 2.692.256.389.256.423.017.332-.33-.127-.34.098-.033.682.352.672 1.06 1.258 2.204 1.827.568.282 1.032.537 1.032.57 0 .177-1.575-.273-1.934-.554-.657-.516-.956-.432-.526.148.197.265.316.594.265.727-.104.27.34.725 1.206 1.242.722.431.877.437.744.019-.138-.433-.058-.416.42.09.328.348.341.401.082.302-.233-.089-.275-.065-.175.097.133.214-.151.187-1.13-.103-.257-.076-.287-.029-.185.296.269.862.711 1.243 1.798 1.554.586.166 1.027.364.982.437-.102.163-1.217-.021-1.504-.248-.299-.235-.272.37.036.808.275.39 1.389.958 2.73 1.386l.91.29-.827-.078a30.024 30.024 0 0 1-1.263-.14c-.367-.056-.425-.017-.354.255.124.471.966 1.118 1.58 1.212.293.045.904.144 1.359.222l.826.145-.74.21c-.408.115-1.027.171-1.375.125-.619-.083-.628-.078-.397.27.334.504 1.134.937 2.053 1.106l.79.145-.952-.064c-.523-.036-.949-.007-.949.064 0 .072.197.328.436.566.464.462.649.497 2.456.454l1.157-.029-.991.431c-1.205.523-1.406.69-1.075.894.202.125.14.262-.353.776-.33.343-.88.992-1.22 1.444-1.545 2.052-2.358 2.715-3.339 2.715-.852 0-.935.271-.129.422.808.15 1.91-.04 2.8-.49 1.082-.544 1.014-.263-.155.65-.322.252-.32.257.082.155.228-.057.769-.319 1.2-.579.827-.498.957-.52.516-.08-.373.371-.155.513.39.25.25-.12.585-.203.74-.183.156.02.631-.282 1.058-.672.437-.399.698-.556.595-.364-.1.189-.301.437-.443.554-.141.116-.254.277-.254.357 0 .322.395.104 1.233-.685.52-.49.928-.762.991-.66.06.096.02.174-.086.174-.105 0-.148.112-.095.247.057.15-.001.245-.15.245-.133 0-.24.072-.24.158 0 .33 1.012-.21 1.249-.666.321-.618.42-.605.29.041-.074.372-.05.487.087.403a.472.472 0 0 0 .191-.364c0-.14.122-.224.285-.196.193.033.43-.214.74-.775.36-.65.457-.74.46-.432.003.307.071.373.33.306.268-.07.227.038-.231.595-.597.725-.927 1.59-.608 1.59.1 0 .181-.067.181-.149 0-.081.244-.23.54-.33l.535-.18-.542.427c-.74.585-1.521 1.98-1.511 2.699v.003c.007.513.03.54.205.26.547-.87 1.249-1.456 2.44-2.045l1.308-.65v.476c0 .262.075.476.165.476.091 0 .166-.15.166-.334 0-.185.148-.622.327-.972.4-.782 2.625-2.54 3.256-2.628.604.046 2.85 1.837 3.256 2.628.179.35.327.787.327.972 0 .184.074.337.165.337.091 0 .165-.217.165-.479v-.476l1.31.65c1.19.589 1.892 1.176 2.439 2.046.175.279.197.252.205-.26v-.004c.01-.72-.77-2.11-1.51-2.696l-.543-.43.535.18c.296.1.54.249.54.33 0 .082.08.149.181.149.319 0-.011-.865-.608-1.59-.459-.557-.499-.664-.232-.595.26.068.328.001.331-.305.003-.308.1-.216.46.434.31.561.546.805.74.772.163-.028.284.056.284.196 0 .135.087.3.192.364.136.084.16-.031.086-.402-.13-.647-.03-.66.29-.042.238.457 1.25.996 1.25.666 0-.086-.108-.158-.241-.158-.148 0-.207-.094-.149-.244.052-.136.01-.248-.096-.248s-.145-.078-.086-.174c.064-.102.472.17.992.66.838.789 1.233 1.01 1.233.688 0-.08-.113-.243-.255-.36a2.19 2.19 0 0 1-.443-.553c-.102-.193.159-.033.595.366.427.39.903.69 1.058.67.156-.02.49.062.74.183.545.262.764.12.39-.251-.44-.44-.31-.418.516.08.432.26.973.522 1.2.58.402.101.404.096.083-.155-1.169-.914-1.237-1.195-.156-.65.891.449 1.992.64 2.8.489.807-.15.723-.421-.129-.421-.98 0-1.794-.66-3.338-2.712-.34-.453-.89-1.105-1.22-1.448-.493-.514-.556-.651-.354-.775.331-.204.13-.372-1.074-.895l-.992-.43 1.157.028c1.808.043 1.992.008 2.456-.453.24-.239.437-.495.437-.567 0-.071-.426-.1-.949-.064l-.952.064.79-.144c.92-.17 1.718-.603 2.053-1.107.23-.347.221-.353-.397-.27-.349.046-.968-.01-1.375-.126l-.74-.209.826-.145a84.132 84.132 0 0 1 1.358-.222c.614-.093 1.456-.74 1.58-1.212.072-.272.014-.31-.353-.254-.24.036-.808.099-1.263.141l-.826.077.909-.29c1.341-.427 2.455-.995 2.73-1.386.308-.437.335-1.043.036-.807-.287.226-1.402.41-1.504.247-.045-.073.396-.27.982-.437 1.087-.31 1.53-.688 1.798-1.55.102-.325.072-.376-.185-.3-.979.29-1.263.317-1.13.103.1-.162.058-.186-.175-.096-.26.099-.247.046.082-.303.478-.506.558-.523.42-.09-.133.418.022.413.744-.019.866-.517 1.31-.972 1.206-1.242-.051-.133.068-.462.265-.727.43-.58.131-.663-.526-.148-.359.281-1.934.732-1.934.554 0-.033.464-.287 1.032-.57 1.144-.568 1.852-1.155 2.204-1.827.307-.584.298-.805-.033-.679-.239.091-.239.054.017-.334.343-.521.45-2.585.139-2.693-.106-.037-.237.081-.294.26-.058.18-.418.637-.8 1.017-.383.38-.574.65-.423.598.445-.15.502.083.115.493-.414.439-.768.491-.905.135-.123-.318-.217-.311-1.58.093l-1.14.335-.523 1.084c-.438.913-.698 1.216-1.682 1.943-.642.474-1.308 1.017-1.478 1.206-.401.447-.247 1.095.33 1.396.42.22.395.233-1.097.77-2.132.765-2.893.699-2.77-.242.042-.323.393-.548 1.408-.917.67-.243.696-.486.053-.486-.794 0-.732-.281.159-.727 1.785-.892 3.952-2.765 4.38-3.783.202-.482.158-1.423-.067-1.409-.057.004-.278.38-.492.833-.605 1.284-2.889 2.89-4.981 3.5-1.253.366-2.542 1.137-3.094 1.856-.879 1.145-1.453 1.672-1.947 1.783l-.496.112.565-.383c.753-.509.864-.844.235-.7l-.47.105.414-.29c.64-.449 1.318-1.107 1.318-1.276 0-.085-.146-.115-.327-.068-.267.07-.224-.041.235-.598.596-.725.927-1.586.608-1.586-.1 0-.185.066-.185.148 0 .081-.24.23-.536.331l-.538.18.545-.43c.74-.586 1.52-1.978 1.51-2.697-.006-.512-.03-.542-.204-.264-.547.87-1.25 1.458-2.44 2.046l-1.309.65v-.476c0-.262-.074-.476-.165-.476-.09 0-.165.15-.165.335 0 .679-.684 1.653-1.746 2.483-1.228.961-1.494 1.376-1.665 2.625l-.172.245-.172-.245c-.171-1.248-.434-1.663-1.663-2.625-1.061-.83-1.748-1.801-1.748-2.48 0-.185-.075-.338-.166-.338-.09 0-.165.217-.165.48v.476l-1.309-.65c-1.19-.589-1.893-1.18-2.44-2.05-.175-.278-.197-.248-.204.264-.01.72.77 2.114 1.51 2.7l.546.43-.54-.183c-.295-.1-.535-.25-.535-.331 0-.082-.084-.148-.185-.148-.319 0 .013.861.609 1.586.458.557.502.668.234.598-.18-.047-.327-.013-.327.071 0 .17.678.825 1.319 1.274l.413.29-.47-.107c-.63-.143-.517.192.235.702l.566.382-.496-.112c-.492-.114-1.066-.638-1.944-1.784-.552-.718-1.842-1.494-3.094-1.858-2.094-.612-4.377-2.218-4.982-3.502-.214-.452-.435-.826-.493-.828-.224-.015-.268.923-.066 1.406.427 1.018 2.594 2.89 4.38 3.783.89.445.952.727.158.727-.643 0-.616.243.053.486 1.015.368 1.366.597 1.408.92.123.94-.637 1.006-2.77.24-1.492-.535-1.517-.552-1.097-.771.578-.301.732-.95.33-1.396-.17-.19-.835-.733-1.477-1.207-.984-.728-1.244-1.03-1.682-1.944l-.523-1.08-1.14-.338c-1.364-.404-1.457-.412-1.58-.094-.137.356-.488.304-.902-.134-.387-.41-.334-.64.112-.49.15.051-.04-.22-.423-.601-.382-.38-.743-.837-.8-1.017-.057-.18-.188-.297-.294-.26zm3.24 3.673c.087-.02.284.028.578.152.303.127.667.462.826.762.157.295.52.781.807 1.078v.003c.286.296.472.534.413.53-.258-.015-1.138-.566-1.593-.993-.273-.256-.685-.535-.912-.625-.289-.113-.325-.17-.123-.176.336-.013.374-.19.096-.467-.155-.154-.18-.244-.092-.264zm37.156 0c.087.02.062.11-.093.264-.278.277-.24.455.096.467.202.006.163.063-.126.177-.227.09-.636.368-.909.624-.455.427-1.335.978-1.593.994-.059.003.127-.235.413-.531v-.003c.287-.297.647-.783.803-1.078.16-.3.524-.635.827-.762.294-.123.494-.171.582-.152zm-18.858.148c.094-.057.123.009.066.155-.11.285-.228.336-.228.1 0-.086.072-.2.162-.255zm.47 0c.011-.027.042-.029.089 0 .09.056.162.17.162.254 0 .237-.119.186-.228-.1-.029-.072-.035-.126-.024-.154z" opacity=".2"/>
    <path d="M14.041 18l.1.824c.182 1.542.373 2.039.892 2.306.267.139.534.435.592.66.112.44.396.557.396.16 0-.134-.297-.818-.66-1.521-.364-.702-.663-1.35-.665-1.44-.003-.091-.149-.35-.328-.576zm35.918 0l-.327.412c-.178.226-.325.485-.327.576-.003.09-.301.738-.664 1.44-.364.703-.662 1.388-.662 1.522 0 .397.285.28.397-.16.058-.225.324-.521.592-.66.52-.267.71-.764.892-2.306zm-37.604.907c-.099 0-.12.12-.05.287.281.664.288 1.029.017 1.029-.147 0-.267.055-.267.125 0 .26.542.888.885 1.027.41.164.767.202.767.08 0-.046-.073-.216-.162-.373-.088-.158-.238-.598-.333-.978-.174-.694-.536-1.197-.857-1.197zm39.288 0c-.32 0-.682.503-.856 1.197-.095.38-.245.82-.334.978-.088.157-.162.327-.162.373 0 .122.362.084.77-.08.344-.14.883-.768.883-1.027 0-.07-.12-.125-.268-.125-.27 0-.264-.365.017-1.03.07-.166.05-.286-.05-.286zm-19.697.409c.056.144.005.247-.125.247-.547 0-.76 1.978-.348 3.208.111.329.108.329-.092 0-.332-.546-.859-1.071-1.078-1.071-.113 0-.257.224-.317.495-.06.272-.179.495-.268.495-.089 0-.118-.074-.062-.164.055-.09.035-.286-.05-.437-.139-.247-.174-.239-.344.077-.147.274-.137.481.06.95.317.754.315.887-.01.887-.345 0-.205.398.165.47.326.063.922-.41.922-.73 0-.117.083-.262.182-.322.258-.16.545.182.377.447-.077.12-.141.268-.142.328-.002.06-.211.273-.466.473-.59.462-.573 1.199.03 1.283.226.032.346-.01.287-.106-.059-.094.064-.09.29.016.215.101.466.392.563.644.169-.008.327-.028.479-.061.152.033.31.054.48.06.096-.251.35-.542.565-.643.226-.106.346-.11.287-.016-.059.095.064.138.291.106.602-.084.617-.82.026-1.283-.255-.2-.464-.413-.466-.473 0-.06-.065-.207-.142-.328-.168-.265.119-.606.377-.447.099.06.182.205.182.321 0 .32.596.794.922.73.37-.07.51-.47.165-.47-.325 0-.327-.132-.01-.887.197-.468.21-.675.063-.949-.17-.316-.205-.324-.344-.077-.084.15-.108.348-.052.437.055.09.026.164-.063.164-.09 0-.208-.223-.268-.495-.06-.271-.204-.495-.317-.495-.22 0-.746.525-1.078 1.07-.2.33-.203.33-.092 0 .412-1.229.199-3.207-.348-3.207-.13 0-.18-.103-.125-.247l-.053.06-.053-.06zm-21.762.46c-.31.107-.204 2.171.139 2.692.256.39.256.423.017.332-.33-.126-.34.098-.033.682.352.672 1.06 1.258 2.204 1.827.568.282 1.032.537 1.032.57 0 .177-1.575-.273-1.934-.554-.657-.516-.956-.432-.526.148.197.265.316.594.265.727-.104.27.34.725 1.206 1.242.722.431.877.437.744.019-.138-.433-.058-.416.42.09.328.348.341.401.082.302-.233-.089-.275-.065-.175.097.133.214-.151.188-1.13-.103-.257-.076-.287-.029-.185.296.269.862.711 1.243 1.798 1.554.586.167 1.027.364.982.437-.102.164-1.217-.021-1.504-.247-.299-.236-.272.37.036.807.275.39 1.389.958 2.73 1.387l.91.29-.827-.078a28.672 28.672 0 0 1-1.263-.142c-.367-.056-.425-.017-.353.254.124.472.966 1.12 1.58 1.213.292.045.904.144 1.358.222l.827.145-.74.21c-.408.115-1.027.171-1.376.125-.618-.083-.627-.078-.397.27.335.504 1.134.937 2.053 1.106l.79.145-.952-.064c-.523-.036-.949-.007-.949.064 0 .072.197.328.437.566.464.462.648.497 2.456.454l1.157-.029-.992.431c-1.204.523-1.405.69-1.074.894.202.125.139.262-.354.776-.33.343-.88.992-1.22 1.444-1.544 2.052-2.357 2.715-3.338 2.715-.852 0-.936.271-.13.422.809.15 1.91-.04 2.8-.49 1.082-.544 1.014-.263-.155.65-.321.252-.32.257.083.155.227-.057.768-.319 1.2-.579.827-.498.957-.52.515-.08-.373.371-.154.513.39.25.25-.12.585-.203.74-.183.156.02.632-.282 1.059-.672.436-.399.697-.557.595-.364-.1.189-.302.437-.443.554-.142.116-.255.277-.255.357 0 .322.395.104 1.233-.685.52-.49.928-.762.992-.66.06.096.02.174-.086.174s-.148.112-.096.247c.058.15-.001.245-.149.245-.133 0-.241.072-.241.158 0 .33 1.012-.21 1.25-.666.32-.618.42-.605.29.041-.074.372-.05.487.086.403a.472.472 0 0 0 .192-.364c0-.14.121-.224.284-.196.194.033.43-.214.74-.776.36-.65.457-.738.46-.43.003.306.072.372.33.305.268-.07.228.038-.23.595-.598.725-.928 1.59-.61 1.59.102 0 .183-.067.183-.149 0-.081.243-.23.539-.33l.535-.18-.542.427c-.74.585-1.52 1.98-1.51 2.699v.003c.006.513.029.54.204.26.547-.87 1.25-1.456 2.44-2.045l1.309-.65v.476c0 .262.074.476.165.476.09 0 .165-.15.165-.334 0-.185.148-.622.327-.972.4-.782 2.625-2.54 3.256-2.628.605.046 2.85 1.837 3.256 2.628.18.35.327.787.327.972 0 .184.075.337.165.337.091 0 .166-.217.166-.479v-.476l1.309.65c1.19.589 1.893 1.176 2.44 2.046.174.279.197.252.204-.26v-.004c.01-.72-.77-2.11-1.51-2.696l-.543-.43.536.18c.295.1.539.249.539.33 0 .082.08.149.181.149.32 0-.011-.865-.608-1.59-.458-.557-.499-.664-.231-.595.259.068.327.001.33-.305.003-.308.1-.216.46.434.31.561.547.805.74.772.163-.028.285.056.285.196 0 .135.086.299.191.364.137.084.16-.031.086-.402-.13-.647-.03-.66.291-.042.238.457 1.25.996 1.25.666 0-.086-.108-.158-.242-.158-.148 0-.206-.094-.149-.244.053-.136.01-.248-.095-.248-.106 0-.146-.078-.086-.174.063-.102.471.17.991.66.838.789 1.233 1.01 1.233.688 0-.08-.113-.243-.254-.36a2.19 2.19 0 0 1-.443-.554c-.103-.192.158-.032.595.367.427.39.902.69 1.058.67.155-.02.49.062.74.183.545.262.763.12.39-.251-.441-.44-.311-.418.516.08.431.26.972.522 1.2.58.402.101.404.096.082-.155-1.169-.914-1.237-1.195-.155-.65.89.449 1.992.64 2.8.489.806-.15.723-.421-.13-.421-.98 0-1.793-.66-3.338-2.712-.34-.453-.89-1.105-1.22-1.448-.493-.514-.555-.651-.353-.775.33-.204.13-.372-1.075-.895l-.991-.43 1.157.028c1.807.043 1.991.008 2.456-.453.24-.239.436-.495.436-.567 0-.071-.426-.1-.949-.064l-.952.064.79-.144c.92-.17 1.719-.603 2.053-1.107.23-.347.222-.353-.397-.27-.348.046-.967-.01-1.375-.126l-.74-.21.828-.146a84.132 84.132 0 0 1 1.359-.222c.614-.094 1.456-.74 1.58-1.212.071-.272.013-.31-.354-.255-.24.037-.808.1-1.263.142l-.826.077.909-.29c1.341-.428 2.455-.995 2.73-1.386.308-.437.335-1.043.037-.807-.287.226-1.403.41-1.504.247-.046-.073.395-.27.982-.437 1.086-.31 1.529-.689 1.798-1.55.101-.325.071-.376-.185-.3-.98.29-1.264.317-1.13.103.1-.162.057-.186-.176-.096-.259.098-.246.045.083-.303.478-.506.557-.523.42-.09-.134.418.02.412.743-.02.866-.516 1.31-.971 1.207-1.24-.052-.134.067-.463.264-.728.43-.58.132-.664-.526-.148-.358.281-1.933.732-1.933.553 0-.032.463-.287 1.031-.569 1.144-.569 1.852-1.155 2.205-1.827.306-.584.297-.805-.033-.679-.24.091-.24.054.016-.335.343-.52.45-2.585.14-2.692-.107-.037-.238.08-.295.26-.057.18-.418.637-.8 1.017-.382.38-.573.65-.423.598.446-.15.502.083.116.493-.415.439-.769.491-.906.135-.123-.318-.216-.311-1.58.093l-1.14.334-.523 1.085c-.438.913-.698 1.215-1.682 1.943-.642.474-1.308 1.017-1.478 1.206-.4.446-.247 1.095.33 1.396.421.22.396.233-1.096.769-2.133.766-2.893.7-2.77-.241.042-.323.393-.548 1.408-.917.669-.243.696-.486.053-.486-.794 0-.733-.281.158-.727 1.785-.893 3.953-2.765 4.38-3.783.202-.483.158-1.424-.066-1.41-.058.004-.279.38-.493.834-.605 1.284-2.888 2.89-4.981 3.5-1.253.366-2.542 1.137-3.094 1.856-.878 1.145-1.453 1.672-1.947 1.782l-.496.113.565-.383c.753-.509.865-.844.235-.701l-.47.106.414-.29c.64-.449 1.319-1.107 1.319-1.277 0-.084-.147-.114-.327-.067-.268.07-.224-.042.234-.599.597-.724.927-1.585.608-1.585-.1 0-.185.066-.185.147 0 .082-.24.232-.535.332l-.539.18.546-.431c.74-.585 1.52-1.977 1.51-2.696-.007-.512-.03-.543-.205-.264-.546.87-1.249 1.458-2.44 2.046l-1.308.65v-.476c0-.262-.075-.476-.166-.476-.09 0-.165.15-.165.334 0 .68-.684 1.654-1.745 2.484-1.229.961-1.495 1.376-1.666 2.625l-.172.245-.172-.245c-.17-1.248-.434-1.663-1.662-2.625-1.062-.83-1.75-1.802-1.75-2.48 0-.185-.073-.338-.164-.338-.091 0-.166.217-.166.48v.476l-1.309-.65c-1.19-.59-1.892-1.18-2.439-2.05-.175-.278-.198-.248-.205.264-.01.72.77 2.114 1.51 2.7l.546.43-.539-.183c-.295-.1-.535-.25-.535-.331 0-.082-.085-.148-.185-.148-.32 0 .012.861.608 1.586.458.557.502.668.235.598-.181-.047-.328-.013-.328.07 0 .17.679.825 1.32 1.275l.412.29-.469-.107c-.63-.143-.518.192.235.701l.565.383-.496-.112c-.494-.11-1.068-.634-1.946-1.78-.552-.718-1.842-1.494-3.094-1.858-2.093-.612-4.377-2.218-4.982-3.5-.214-.454-.435-.828-.492-.83-.225-.015-.269.923-.067 1.405.428 1.018 2.595 2.89 4.38 3.784.891.445.953.727.159.727-.643 0-.616.242.053.485 1.015.37 1.366.598 1.408.92.123.942-.638 1.007-2.77.242-1.492-.536-1.518-.553-1.098-.772.578-.302.732-.95.331-1.396-.17-.19-.836-.733-1.478-1.207-.984-.728-1.244-1.03-1.682-1.944l-.522-1.08-1.14-.338c-1.364-.404-1.458-.412-1.58-.094-.138.358-.489.304-.903-.134-.386-.41-.333-.64.112-.49.15.052-.04-.22-.423-.602-.382-.38-.742-.836-.8-1.016-.057-.179-.188-.297-.294-.26zm3.24 3.674c.087-.02.284.028.578.15.303.128.667.463.826.763.157.295.52.782.807 1.078v.003c.286.297.472.534.413.53-.258-.017-1.138-.567-1.593-.995-.273-.256-.685-.534-.913-.624-.288-.114-.324-.17-.122-.176.336-.013.374-.19.096-.467-.155-.154-.18-.244-.093-.263zm37.156 0c.087.02.062.109-.093.263-.278.277-.24.455.096.467.202.007.163.063-.126.177-.227.09-.636.368-.909.624-.455.427-1.335.978-1.593.994-.059.003.127-.234.413-.53v-.004c.287-.296.647-.783.803-1.078.16-.3.524-.635.827-.762.294-.123.494-.171.582-.151zm-18.858.148c.094-.058.123.008.066.154-.11.285-.228.336-.228.1 0-.086.072-.2.162-.254zm.47 0c.011-.028.042-.03.089 0 .09.055.162.168.162.254 0 .236-.119.185-.228-.1-.029-.073-.035-.127-.024-.154z" fill="#BDAD93"/>
    <path d="M7 4C5.338 4 4 5.338 4 7v1c0-1.662 1.338-3 3-3h50c1.662 0 3 1.338 3 3V7c0-1.662-1.338-3-3-3H7z" opacity=".1" fill="#F9F5D7"/>
</svg>
