<svg xmlns="http://www.w3.org/2000/svg" width="64" height="64" version="1">
    <path d="M10 56.2v2c0 1.55 1.25 2.8 2.8 2.8h38.4c1.55 0 2.8-1.25 2.8-2.8v-2c0 1.55-1.25 2.8-2.8 2.8H12.8c-1.55 0-2.8-1.25-2.8-2.8z" opacity=".2"/>
    <path d="M54 57.2V6.801c0-1.551-1.249-2.8-2.8-2.8H12.8a2.794 2.794 0 0 0-2.8 2.8v50.4C10 58.751 11.249 60 12.8 60h38.4c1.55 0 2.8-1.249 2.8-2.8z" fill="#F9F5D7"/>
    <path d="M19.685 39L14 25.835l4.716-2.18 3.663 8.836 4.43-2.256 1.993 4.253z" fill="#066678" fill-rule="evenodd"/>
    <path d="M36.287 21.509l5 .96 1.075 3.241 2.195-2.505 5.477 1.155-4.919 5.479L47.892 38l-5.895-.572-1.05-4.425-2.663 3.641-4.584-1.431 4.61-6.521z" fill="#F15C22" fill-rule="evenodd"/>
    <path d="M23.635 26.247l5.721.777 1.698 3.55 2.141-3.07 5.76.74-5.28 7.545L32.383 43l-5.352-.85.923-6.472z" fill="#D79921" fill-rule="evenodd"/>
    <path d="M12.8 4.002c-1.55 0-2.8 1.25-2.8 2.8v1c0-1.55 1.25-2.8 2.8-2.8h38.4c1.55 0 2.8 1.25 2.8 2.8v-1c0-1.55-1.25-2.8-2.8-2.8H12.8z" opacity=".2" fill="#F9F5D7"/>
</svg>
