<svg xmlns="http://www.w3.org/2000/svg" width="64" height="64" version="1">
    <rect width="48" height="48" x="-56" y="-56" rx="24" ry="24" transform="matrix(0 -1 -1 0 0 0)" opacity=".2"/>
    <rect width="48" height="48" x="-55" y="-56" rx="24" ry="24" transform="matrix(0 -1 -1 0 0 0)" fill="#7CB668"/>
    <path d="M32 7C18.704 7 8 17.704 8 31c0 .112.012.221.018.332C8.37 18.348 18.928 8 32 8s23.63 10.348 23.982 23.332c.006-.11.018-.22.018-.332C56 17.704 45.296 7 32 7z" opacity=".2" fill="#F9F5D7"/>
    <path d="M32 4a28 28 0 0 0-13 3.219A28 28 0 0 1 34 32a28 28 0 0 1-15 24.781A28 28 0 0 0 32 60a28 28 0 0 0 28-28A28 28 0 0 0 32 4z" opacity=".2"/>
    <path d="M32 3a28 28 0 0 0-13 3.219A28 28 0 0 1 34 31a28 28 0 0 1-15 24.781A28 28 0 0 0 32 59a28 28 0 0 0 28-28A28 28 0 0 0 32 3z" fill="#F9F5D7"/>
    <path d="M32 3a28 28 0 0 0-13 3.219 28 28 0 0 1 .94.554A28 28 0 0 1 32 4a28 28 0 0 1 27.979 27.586A28 28 0 0 0 60 31 28 28 0 0 0 32 3zm1.977 28.463A28 28 0 0 1 19 55.78a28 28 0 0 0 .957.444A28 28 0 0 0 34 32a28 28 0 0 0-.023-.537z" opacity=".2" fill="#F9F5D7"/>
</svg>
