<svg xmlns="http://www.w3.org/2000/svg" width="64" height="64">
    <path d="M32 5A28 28 0 0 0 4 33a28 28 0 0 0 28 28 28 28 0 0 0 6-.684A28 28 0 0 1 16 33 28 28 0 0 1 37.95 5.684 28 28 0 0 0 32 5z" opacity=".2"/>
    <path d="M32 12c2.44 4.177 2.868 8.382 2.703 12.586a20.128 20.128 0 0 0-3.242-1.027c-10.185-2.262-9.943 3.04-14.148 5.003 4.837-.024 8.692 1.71 12.25 3.954-.859.668-1.7 1.408-2.512 2.293-7.05 7.69-2.336 10.13-2.738 14.754 2.397-4.203 5.827-6.674 9.55-8.633.15 1.078.37 2.174.73 3.32C37.729 54.2 42.198 51.34 46 54c-2.44-4.177-2.868-8.382-2.703-12.586 1.008.41 2.069.767 3.242 1.027 10.185 2.262 9.943-3.04 14.148-5.004-4.837.025-8.692-1.709-12.25-3.953.859-.668 1.7-1.408 2.512-2.293 7.05-7.69 2.336-10.13 2.739-14.753-2.398 4.202-5.828 6.673-9.551 8.632a20.108 20.108 0 0 0-.73-3.32C40.271 11.8 35.802 14.66 32 12z" opacity=".2"/>
    <path d="M53.687 15.438c-4 7.009-10.848 9.237-17.19 12.226-3.353 1.418-6.56 2.997-9.445 6.145-7.051 7.69-2.336 10.13-2.739 14.753 4-7.009 10.848-9.237 17.19-12.226 3.353-1.418 6.56-2.997 9.445-6.145 7.051-7.69 2.336-10.13 2.739-14.753z" fill="#B57514"/>
    <path d="M32 4A28 28 0 0 0 4 32a28 28 0 0 0 28 28 28 28 0 0 0 6-.684A28 28 0 0 1 16 32 28 28 0 0 1 37.95 4.684 28 28 0 0 0 32 4z" fill="#B57514"/>
    <path d="M60.687 36.438c-8.07.041-13.424-4.776-19.184-8.774-2.904-2.195-5.874-4.182-10.044-5.107-10.184-2.261-9.94 3.042-14.146 5.005 8.07-.041 13.424 4.776 19.184 8.774 2.904 2.195 5.874 4.182 10.044 5.107 10.184 2.261 9.94-3.042 14.146-5.005z" fill="#B57514"/>
    <path d="M32 11c4.07 6.968 2.575 14.013 1.993 21-.448 3.612-.684 7.178.6 11.252C37.725 53.202 42.196 50.339 46 53c-4.07-6.968-2.575-14.013-1.993-21 .448-3.612.684-7.178-.6-11.252C40.275 10.798 35.804 13.661 32 11z" fill="#B57514"/>
    <path d="M32 11c2.442 4.18 2.88 8.386 2.716 12.592L39.106 32c.309-3.627.685-7.178-.598-11.252-1.365-4.332-3.797-7.871-5.71-9.275A6.648 6.648 0 0 1 32 11zM39.107 32c-.442 5.202-1.49 15.926 6.152 20.552l.003.002c.248.13.494.275.738.446-2.436-4.17-2.879-8.367-2.717-12.563z" opacity=".25"/>
    <path d="M53.687 15.438c-2.399 4.204-5.823 6.688-9.548 8.648l-5.086 8.006c3.295-1.546 6.56-2.996 9.445-6.144 3.07-3.348 4.919-7.224 5.178-9.582a6.624 6.624 0 0 1 .01-.928zM39.053 32.092c-4.726 2.219-14.537 6.673-14.722 15.604v.004c.011.28.008.566-.017.862 2.392-4.194 5.806-6.676 9.521-8.634z" opacity=".25"/>
    <path d="M60.687 36.438c-4.84.025-8.704-1.698-12.263-3.944l-9.477-.402c2.987 2.08 5.874 4.182 10.044 5.108 4.433.984 8.715.648 10.887-.307.253-.164.517-.32.809-.455zM38.947 32.092c-4.285-2.983-13.048-9.253-20.875-4.947h-.003c-.237.151-.486.291-.756.417 4.83-.025 8.686 1.69 12.239 3.929z" opacity=".25"/>
    <path d="M35.482 4.256A28 28 0 0 0 11 32a28 28 0 0 0 24.496 27.736 28 28 0 0 0 2.504-.42A28 28 0 0 1 16 32 28 28 0 0 1 37.95 4.684a28 28 0 0 0-2.468-.428z" opacity=".25"/>
    <path d="M32 4C16.536 4 4 16.536 4 32c.004.11.012.221.018.332C4.373 17.178 16.76 5 32 5c1.248.01 2.49.11 3.725.285.732-.23 1.474-.432 2.224-.601A28 28 0 0 0 32 4zM32 11c.284.487.536.974.768 1.46 3.624 1.874 7.714-.001 10.64 9.288.26.824.435 1.62.578 2.406.055-.028.108-.06.162-.09a20.254 20.254 0 0 0-.74-3.316C40.274 10.798 35.803 13.661 32 11zm-5.268 11.01c-5.522.156-6.002 3.958-9.42 5.552.507-.002.996.025 1.481.06 2.844-2.306 3.842-6.025 12.666-4.065 1.17.26 2.237.61 3.242 1.017.026-.67.03-1.338.02-2.008-.005.336-.007.672-.02 1.008a20.253 20.253 0 0 0-3.242-1.017c-1.91-.424-3.452-.583-4.727-.547zm2.131 10.082a19.521 19.521 0 0 0-1.812 1.717c-3.35 3.652-4.032 6.116-3.881 8.197.13-1.876 1.05-4.11 3.88-7.197a20.245 20.245 0 0 1 2.505-2.3c-.228-.143-.461-.278-.692-.417zm-4.55 16.431c-.002.014 0 .026 0 .04 0-.012 0-.019.002-.03l-.003-.01z" opacity=".2" fill="#F9F5D7"/>
</svg>
