<svg xmlns="http://www.w3.org/2000/svg" width="64" height="64" version="1">
    <rect width="56" height="56" x="4" y="5" rx="28" ry="28" opacity=".2"/>
    <rect width="56" height="56" x="4" y="4" rx="28" ry="28" fill="#504945"/>
    <path d="M35.902 5.275C28.096 10.285 23.01 19.005 23 28.801c.857 15.092 11.682 19.971 15.48 30.443a27.822 27.822 0 0 0 4.81-1.603c-4.448-10.688-14.494-18.498-14.692-30.243.007-8.516 3.887-16.352 10.213-21.566-.951-.236-1.922-.42-2.909-.557zm-1.875.037C20.25 7.287 10.014 19.082 10 33c.695 12.24 7.921 18.127 12.664 25.41a27.954 27.954 0 0 0 6.773 1.469c-4.771-9.715-13.65-17.258-13.835-28.277a28 28 0 0 1 18.425-26.29zm8.295 1.647C38.374 11.8 36.007 17.949 36 24.602c.798 14.051 10.213 19.269 14.578 28.37a27.998 27.998 0 0 0 3.582-3.827c-4.918-8.628-12.388-15.83-12.558-25.946.004-5.286 1.524-10.297 4.168-14.6a27.814 27.814 0 0 0-3.448-1.64zm7.68 4.568c-1.27 3.195-1.998 6.656-2.002 10.274.565 9.955 5.462 15.46 9.828 21.062a27.869 27.869 0 0 0 1.846-6.566c-3.221-4.876-5.974-9.863-6.076-15.899.001-1.594.179-3.153.447-4.687a28.004 28.004 0 0 0-4.043-4.184z" opacity=".2"/>
    <path d="M32 4C16.488 4 4 16.488 4 32c0 .113.011.224.018.336C4.369 17.134 16.71 5 32 5c15.29 0 27.63 12.134 27.982 27.336.007-.112.018-.223.018-.336C60 16.488 47.512 4 32 4z" opacity=".1" fill="#F9F5D7"/>
    <path d="M35.902 4.275C28.096 9.285 23.01 18.005 23 27.801c.882 15.53 12.321 20.245 15.795 31.37a27.805 27.805 0 0 0 4.85-1.69C39.395 46.35 28.8 38.45 28.598 26.397c.007-8.516 3.887-16.352 10.213-21.566-.951-.236-1.922-.42-2.909-.557zm-1.875.037C20.25 6.287 10.014 18.082 10 32c.735 12.939 8.77 18.777 13.453 26.672 1.65.525 3.368.888 5.137 1.101.448.034.885.074 1.34.114C25.304 49.673 15.794 42 15.602 30.602a28 28 0 0 1 18.425-26.29zm8.295 1.647C38.374 10.8 36.007 16.949 36 23.602c.818 14.413 10.72 19.52 14.92 29.07a28.002 28.002 0 0 0 3.57-3.953c-4.906-8.887-12.714-16.179-12.888-26.52.004-5.286 1.524-10.297 4.168-14.6a27.814 27.814 0 0 0-3.448-1.64zm7.68 4.568c-1.27 3.195-1.998 6.656-2.002 10.274.576 10.153 5.66 15.678 10.09 21.396a27.896 27.896 0 0 0 1.691-6.734c-3.268-4.929-6.08-9.96-6.183-16.065.001-1.594.179-3.153.447-4.687a28.004 28.004 0 0 0-4.043-4.184z" fill="#48B9C7"/>
    <path d="M35.902 4.275C28.096 9.285 23.01 18.005 23 27.801c.006.1.017.195.023.295.248-9.506 5.262-17.933 12.88-22.82.672.092 1.333.218 1.99.357.301-.272.604-.542.918-.801-.951-.236-1.922-.42-2.909-.557zm-1.875.037C20.25 6.287 10.014 18.082 10 32c.004.07.015.133.02.203.353-12.126 8.457-22.502 19.822-25.955a28.005 28.005 0 0 1 4.185-1.936zm8.295 1.647C38.374 10.8 36.007 16.949 36 23.602c.004.079.013.154.018.232.18-6.356 2.51-12.221 6.304-16.875a27.84 27.84 0 0 1 3.008 1.412c.147-.257.285-.52.44-.771a27.814 27.814 0 0 0-3.448-1.641zm7.68 4.568c-1.27 3.195-1.998 6.656-2.002 10.274.005.08.014.153.02.232.098-3.34.803-6.538 1.982-9.506a27.983 27.983 0 0 1 3.924 4.04c.043-.285.07-.573.119-.856a28.004 28.004 0 0 0-4.043-4.184zm3.613 9.254c-.006.206-.017.41-.017.617.101 6.025 2.845 11.004 6.058 15.872.041-.27.092-.535.125-.807-3.199-4.825-5.954-9.75-6.166-15.682zm-11.99 2.787c-.005.211-.023.42-.023.631.17 10.116 7.638 17.319 12.556 25.946.11-.143.225-.282.332-.426-4.847-8.779-12.511-16.007-12.865-26.15zm-13.01 4.233c-.004.2-.017.397-.017.597.198 11.742 10.24 19.551 14.69 30.235.118-.052.239-.099.357-.153-4.202-11.003-14.6-18.853-15.03-30.68zm-12.992 4.287c-.003.172-.021.341-.021.514.185 11.005 9.042 18.543 13.818 28.242l.51.043c-4.56-10.067-13.856-17.667-14.307-28.8z" opacity=".2" fill="#F9F5D7"/>
</svg>
