<svg xmlns="http://www.w3.org/2000/svg" width="64" height="64" version="1">
    <path d="M40.23 5c-1.394.015-1.795.142-2.667.453-9.477 3.875-18.59 7.707-30.012 10.938-2.734.636-3.887 2.098-3.465 4.394 0 0 2.078 19.649 2.078 20.817 0 1.167 1.041 6.664.902 8.656-.138 1.992-1.733 8.105-1.941 8.93-.208.824-.001 1.372.207 1.785.133.263 3.064-1.425 5.914-3.246 3.233-2.29 6.554-4.45 9.926-6.543 9.089-5.071 18.28-9.992 27.066-15.426 1.053-.637 3.985-2.45 5.922-3.637.66-.39 1.324-.772 1.98-1.168.001-.015 0-.031 0-.047 1.495-.92 1.858-1.13 3.86-2.37-.08-3.524-1.264-7.681-2.57-10.528-.566-1.227-.848-1.192-2.118-.344-.69.505-1.477 1.336-2.234 1.938-.05.043-.388.351-.465.418-1.973-3.506-4.651-7.58-7.87-12.809-1.153-1.633-3.118-2.225-4.513-2.21z" opacity=".2"/>
    <path d="M4.085 19.786s2.08 19.647 2.08 20.814c0 1.168 1.039 6.664.9 8.656-.138 1.992-1.733 8.106-1.94 8.93-.208.825 0 1.375.207 1.787.133.263 3.062-1.426 5.913-3.248C25.422 46.682 41.22 38.943 56.142 29.953c.306-6.2-4.332-12.261-11.4-23.742-1.152-1.632-3.118-2.225-4.512-2.21-1.395.015-1.794.14-2.667.45C28.086 8.328 18.973 12.16 7.55 15.39c-2.735.636-3.888 2.1-3.466 4.397z" fill="#8F3F71"/>
    <path d="M40.23 4c-1.394.015-1.795.14-2.667.451-9.477 3.875-18.59 7.707-30.012 10.938-2.583.601-3.738 1.95-3.504 4.033.203-1.52 1.36-2.534 3.504-3.033 11.423-3.23 20.535-7.063 30.012-10.938.872-.311 1.273-.436 2.667-.451 1.395-.014 3.36.578 4.512 2.21 6.626 10.764 11.118 16.764 11.4 22.581.219-6.144-4.393-12.2-11.4-23.58C43.59 4.578 41.625 3.986 40.23 4zM7.06 49.285c-.149 2.017-1.728 8.08-1.935 8.9a2.377 2.377 0 0 0-.023 1.155c.01-.053.009-.099.023-.154.208-.825 1.8-6.938 1.94-8.93.018-.265.014-.6-.004-.97z" fill="#F9F5D7" opacity=".1"/>
    <path d="M52.784 19.321C32.643 30 19.124 35.872 6.252 41.467c.081.735.212 1.695.373 2.858 12.442-5.122 31.52-14.065 47.47-22.474-.18-.376-.368-.754-.57-1.143l-.52-1.001c-.067-.124-.15-.26-.22-.386zm2.187 4.482C34.813 34.489 19.865 41.466 6.964 47.079c.087.87.138 1.65.1 2.176-.014.216-.097.618-.143.919 12.453-5.127 31.965-14.317 47.926-22.733l.133-3.621c-.003-.006-.007-.011-.009-.017z" opacity=".4"/>
    <path d="M19.827 50.93s18.449-18.242 21.684-21.594c3.235-3.351 10.49-9.812 11.567-10.735.757-.602 1.546-1.433 2.236-1.937 1.27-.849 1.548-.885 2.114.342 1.306 2.847 2.492 7.007 2.572 10.53a1255.78 1255.78 0 0 1-11.763 7.222C39.02 40.46 29.351 45.592 19.827 50.93z" fill="#8F3F71"/>
    <path d="M56.635 16.057c-.3-.039-.686.183-1.32.607-.69.505-1.48 1.336-2.237 1.938-1.078.922-8.331 7.382-11.566 10.734-3.235 3.352-21.686 21.594-21.686 21.594.764-.428 1.53-.85 2.295-1.276 3.453-3.416 16.541-16.366 19.39-19.318C44.748 26.984 52 20.524 53.079 19.602c.757-.602 1.547-1.433 2.236-1.938 1.27-.848 1.548-.885 2.114.342 1.19 2.592 2.27 6.269 2.515 9.566l.057-.035c-.08-3.523-1.266-7.684-2.572-10.531-.283-.614-.494-.911-.793-.95z" fill="#F9F5D7" opacity=".2"/>
</svg>
