<svg xmlns="http://www.w3.org/2000/svg" width="64" height="64" version="1">
    <path d="M24.333 5c-1.52 0-2.978.59-4.053 1.64l-8.6 8.4a5.547 5.547 0 0 0-1.643 3.371L10 21.801V40.34c0 1.485.604 2.91 1.68 3.96l5.56 5.43 5.906 5.43 4.3 4.2c2.24 2.187 5.869 2.187 8.108 0l4.3-4.2 5.907-5.43 5.56-5.43A5.536 5.536 0 0 0 53 40.34V21.8l-.008-2.957a5.538 5.538 0 0 0-1.672-3.802l-8.6-8.4A5.803 5.803 0 0 0 38.667 5z" opacity=".2"/>
    <path d="M24.333 4c-1.52 0-2.978.59-4.053 1.64l-8.6 8.4a5.547 5.547 0 0 0-1.643 3.371L10 20.801V39.34c0 1.485.604 2.91 1.68 3.96l5.56 5.43 5.906 5.43 4.3 4.2c2.24 2.187 5.869 2.187 8.108 0l4.3-4.2 5.907-5.43 5.56-5.43A5.536 5.536 0 0 0 53 39.34V20.8l-.008-2.957a5.538 5.538 0 0 0-1.672-3.802l-8.6-8.4A5.803 5.803 0 0 0 38.667 4z" fill="#504945"/>
    <path d="M24.955 11L16.5 19H28v31.777L32 55l4-4.223V19h11.5l-8.455-8zM17 22v19.188l5.207 5.076 5.586-5.729L25 37.813V22zm22 0v15.813l-2.793 2.722 5.586 5.729L47 41.187V22z" opacity=".2"/>
    <path d="M28 16h8v33.778L32 54l-4-4.222z" fill="#BDAD93"/>
    <path d="M21 21v17.5l4 3.9M43 21v17.5l-4 3.9" fill="none" stroke="#BDAD93" stroke-width="8"/>
    <path d="M39.045 10l8.455 8h-31l8.455-8z" fill="#BDAD93"/>
    <path d="M24.955 10L16.5 18h1.057l7.398-7h14.09l7.398 7H47.5l-8.455-8h-14.09zM17 21v1h8v-1h-8zm22 0v1h8v-1h-8zM25 36.813v1l2.293 2.234.5-.512L25 36.813zm14 0l-2.793 2.722.5.512L39 37.813v-1z" opacity=".2" fill="#F9F5D7"/>
    <path d="M24.334 4c-1.52 0-2.98.59-4.055 1.64l-8.6 8.401a5.549 5.549 0 0 0-1.642 3.371L10 20.801v1l.037-3.389a5.549 5.549 0 0 1 1.643-3.371l8.6-8.4A5.806 5.806 0 0 1 24.333 5h14.332c1.52 0 2.98.59 4.055 1.64l8.6 8.401a5.54 5.54 0 0 1 1.671 3.803L53 21.8v-1l-.008-2.957a5.54 5.54 0 0 0-1.672-3.803l-8.6-8.4A5.806 5.806 0 0 0 38.667 4H24.334z" opacity=".1" fill="#F9F5D7"/>
</svg>
