<svg xmlns="http://www.w3.org/2000/svg" width="64" height="64" version="1">
    <path d="M4 56.2v2C4 59.75 5.25 61 6.8 61h50.4c1.55 0 2.8-1.25 2.8-2.8v-2c0 1.55-1.25 2.8-2.8 2.8H6.8C5.25 59 4 57.75 4 56.2z" opacity=".2"/>
    <path d="M42.379 37.642L31.954 49.124V60H57.2c1.551 0 2.8-1.249 2.8-2.8v-8.753l-.208-.095z" fill="#BDAD93"/>
    <path d="M60 11.18L39.88 29.031l1.615 10.696L60 49.442z" opacity=".2"/>
    <path d="M13.915 42.024l1.998-1.818L4 46.394V57.2C4 58.751 5.249 60 6.8 60H32V49.2z" fill="#BDAD93"/>
    <path d="M4 14.047v33.347l13.79-6.112-.17-.076 7.808-15.633z" opacity=".2"/>
    <path d="M60 10.18L39.88 28.031l1.615 10.696L60 48.442z" fill="#F9F5D7"/>
    <path d="M4 13.047v33.347l11.724-5.08-.17-.076 9.874-16.665z" fill="#D5C3A0"/>
    <path d="M28.645 4l-.279 18.465 12.64 6.577L60 10.46V6.8C60 5.249 58.751 4 57.2 4z" fill="#8F3F71"/>
    <path d="M22 25l8-2 12 6 2 12-12 10-18-8z" opacity=".2"/>
    <path d="M6.8 4A2.794 2.794 0 0 0 4 6.8v6.527l19.547 11.638L30 23.362V4z" fill="#BE4C1D"/>
    <path d="M22 24l8-2 12 6 2 12-12 10-18-8z" fill="#F9F5D7"/>
    <path d="M6.8 4C5.25 4 4 5.25 4 6.8v1C4 6.25 5.25 5 6.8 5h50.4C58.75 5 60 6.25 60 7.8v-1C60 5.25 58.75 4 57.2 4H6.8z" opacity=".2" fill="#F9F5D7"/>
</svg>
