<svg xmlns="http://www.w3.org/2000/svg" width="64" height="64" version="1">
    <rect width="56" height="56" x="4" y="4" rx="3" ry="3" fill="#CB8819"/>
    <path d="M7 4C5.338 4 4 5.338 4 7v1c0-1.662 1.338-3 3-3h50c1.662 0 3 1.338 3 3V7c0-1.662-1.338-3-3-3H7z" fill="#F9F5D7" opacity=".2"/>
    <path d="M15 16c-1.662 0-3 1.338-3 3v30c0 1.662 1.338 3 3 3s3-1.338 3-3V19c0-1.662-1.338-3-3-3zm16 0c-1.662 0-3 1.338-3 3v30c0 1.662 1.338 3 3 3s3-1.338 3-3V19c0-1.662-1.338-3-3-3zm16 0c-1.662 0-3 1.338-3 3v30c0 1.662 1.338 3 3 3s3-1.338 3-3V19c0-1.662-1.338-3-3-3z" opacity=".3"/>
    <path d="M4 57v1c0 1.662 1.338 3 3 3h50c1.662 0 3-1.338 3-3v-1c0 1.662-1.338 3-3 3H7c-1.662 0-3-1.338-3-3z" opacity=".2"/>
    <path d="M12 29v20c0 1.662 1.338 3 3 3s3-1.338 3-3V29h-6zm32 2v18c0 1.662 1.338 3 3 3s3-1.338 3-3V31h-6zM28 41v8c0 1.662 1.338 3 3 3s3-1.338 3-3v-8h-6z" fill="#504945"/>
    <path d="M15 24a6 6 0 1 0 0 12 6 6 0 0 0 0-12zm32 3a6 6 0 1 0 0 12 6 6 0 0 0 0-12zm-16 7a6 6 0 1 0 0 12 6 6 0 0 0 0-12z" opacity=".2"/>
    <path d="M15 23a6 6 0 1 0 0 12 6 6 0 0 0 0-12zm32 3a6 6 0 1 0 0 12 6 6 0 0 0 0-12zm-16 7a6 6 0 1 0 0 12 6 6 0 0 0 0-12z" fill="#F9F5D7"/>
</svg>
