<svg xmlns="http://www.w3.org/2000/svg" width="64" height="64" version="1">
    <rect width="56" height="56" x="4" y="5" rx="28" ry="28" opacity=".2"/>
    <rect width="56" height="56" x="4" y="4" rx="28" ry="28" fill="#B7BB25"/>
    <path d="M26.73 14.807l-1.73 1 2.394 4.148C23.018 22.07 23 27.002 23 27.002h18s-.02-4.933-4.394-7.047L39 15.807l-1.73-1-2.59 4.484a12.117 12.117 0 0 0-2.676-.289c-1.008 0-1.888.111-2.684.289l-2.59-4.484zm1.274 8.195c.554 0 .996.446.996.996s-.448 1.004-.996 1.004a1 1 0 0 1 0-2zm8 0c.554 0 .996.446.996.996s-.448 1.004-.996 1.004a1 1 0 0 1 0-2zm8.084 4.997C42.938 28 42 29.06 42 30.365v9.261c0 1.306.938 2.372 2.088 2.372 1.15 0 1.912-1.066 1.912-2.372v-9.26c0-1.309-.76-2.369-1.912-2.369M23 28v17c0 .472.528 1 1 1h3v3.75c0 1.245.792 2.25 2 2.25 1.2 0 2.04-1.007 2-2.25V46h2v3.751c0 1.244.792 2.25 2 2.25 1.2 0 2-1.023 2-2.25V46h3c.472 0 1-.528 1-1V28zm-2.912 0C18.938 28 18 29.06 18 30.365v9.261c0 1.306.937 2.372 2.088 2.372 1.15 0 1.912-1.066 1.912-2.372v-9.26c0-1.309-.76-2.369-1.912-2.369M19.168 27.077" opacity=".2"/>
    <path d="M26.73 13.807l-1.73 1 2.394 4.148C23.018 21.07 23 26.002 23 26.002h18s-.02-4.933-4.394-7.047L39 14.807l-1.73-1-2.59 4.484a12.117 12.117 0 0 0-2.676-.289c-1.008 0-1.888.111-2.684.289l-2.59-4.484zm1.274 8.195c.554 0 .996.446.996.996s-.448 1.004-.996 1.004a1 1 0 0 1 0-2zm8 0c.554 0 .996.446.996.996s-.448 1.004-.996 1.004a1 1 0 0 1 0-2zm8.084 4.997C42.938 27 42 28.06 42 29.365v9.261c0 1.306.938 2.372 2.088 2.372 1.15 0 1.912-1.066 1.912-2.372v-9.26c0-1.309-.76-2.369-1.912-2.369M23 27v17c0 .472.528 1 1 1h3v3.75c0 1.245.792 2.25 2 2.25 1.2 0 2.04-1.007 2-2.25V45h2v3.751c0 1.244.792 2.25 2 2.25 1.2 0 2-1.023 2-2.25V45h3c.472 0 1-.528 1-1V27zm-2.912 0C18.938 27 18 28.06 18 29.365v9.261c0 1.306.937 2.372 2.088 2.372 1.15 0 1.912-1.066 1.912-2.372v-9.26c0-1.309-.76-2.369-1.912-2.369M19.168 26.077" fill="#F9F5D7"/>
    <circle cx="47" cy="-48" r="16" transform="rotate(90)" opacity=".2"/>
    <circle cx="46" cy="-48" r="16" transform="rotate(90)" fill="#BE4C1D"/>
    <g fill="#F9F5D7">
        <path d="M46 50l6 8 6-8c0 .006-1.111 0-2 0v-4h-8v4zM38 42l6-8 6 8c0-.006-1.111 0-2 0v4h-8v-4z"/>
    </g>
    <path d="M32 4C16.488 4 4 16.488 4 32c0 .114.011.224.018.336C4.369 17.134 16.71 5 32 5c15.288 0 27.63 12.132 27.984 27.332.007-.11.016-.22.016-.332C60 16.488 47.512 4 32 4z" opacity=".2" fill="#F9F5D7"/>
</svg>
