<svg xmlns="http://www.w3.org/2000/svg" width="64" height="64" version="1">
    <path d="M16 51.376v2C16 54.83 17.19 56 18.668 56h26.664C46.81 56 48 54.83 48 53.376v-2C48 52.83 46.81 54 45.332 54H18.668C17.191 54 16 52.83 16 51.376z" opacity=".2"/>
    <rect width="42" height="32" x="-55" y="-48" rx="2.626" ry="2.666" transform="matrix(0 -1 -1 0 0 0)" fill="#928274"/>
    <path d="M6 45.5v2C6 48.884 7.162 50 8.602 50h46.796C56.838 50 58 48.884 58 47.5v-2c0 1.384-1.162 2.5-2.602 2.5H8.602C7.162 48 6 46.884 6 45.5z" opacity=".2"/>
    <rect width="40" height="52" x="-49" y="-58" rx="2.5" ry="2.6" transform="matrix(0 -1 -1 0 0 0)" fill="#504945"/>
    <rect width="32" height="44" x="-45" y="-54" rx="0" ry="0" transform="matrix(0 -1 -1 0 0 0)" fill="#CB241D"/>
    <path d="M8.602 9C7.162 9 6 10.115 6 11.5v1C6 11.115 7.161 10 8.602 10h46.796C56.838 10 58 11.115 58 12.5v-1c0-1.385-1.162-2.5-2.602-2.5H8.602z" opacity=".1" fill="#F9F5D7"/>
    <path d="M18 17c-2.77 0-5 2.23-5 5v2h3v-2c0-1.16.84-2 2-2h2v-3zm7 0v3h4v-3zm9 0v3h5v-3zm10 0v3h2c1.16 0 2 .84 2 2v2h3v-2c0-2.77-2.23-5-5-5zM13 29v3h3v-3zm35 0v3h3v-3zm-35 8v1c0 2.77 2.23 5 5 5h2v-3h-2c-1.16 0-2-.84-2-2v-1zm35 0v1c0 1.16-.84 2-2 2h-2v3h2c2.77 0 5-2.23 5-5v-1zm-23 3v3h4v-3zm9 0v3h5v-3z" opacity=".2"/>
    <path d="M18 16c-2.77 0-5 2.23-5 5v2h3v-2c0-1.16.84-2 2-2h2v-3zm7 0v3h4v-3zm9 0v3h5v-3zm10 0v3h2c1.16 0 2 .84 2 2v2h3v-2c0-2.77-2.23-5-5-5zM13 27v4h3v-4zm35 0v4h3v-4zm-35 9v1c0 2.77 2.23 5 5 5h2v-3h-2c-1.16 0-2-.84-2-2v-1zm35 0v1c0 1.16-.84 2-2 2h-2v3h2c2.77 0 5-2.23 5-5v-1zm-23 3v3h4v-3zm9 0v3h5v-3z" fill="#F9F5D7"/>
    <circle cx="32" cy="30" r="7" opacity=".2"/>
    <circle cx="32" cy="29" r="7" fill="#F9F5D7"/>
</svg>
