<svg xmlns="http://www.w3.org/2000/svg" width="64" height="64" version="1">
    <rect width="56" height="56" x="4" y="5" rx="2.8" ry="2.8" opacity=".2"/>
    <rect width="56" height="56" x="4" y="4" rx="2.8" ry="2.8" fill="#504945"/>
    <path d="M36.812 52.898c-.264 0-.488-.137-.674-.212-.35-.316-.144-.155.233-.298-.215.037.05.02.275-.125.079 0 .232-.038.341-.085.11-.047.235-.094.279-.105a6.93 6.93 0 0 0 .444-.156l.57-.215c.195-.072.55-.252.955-.487.176-.101.277-.175.484-.356.059-.051.131-.094.16-.094.029 0 .04-.013.024-.029-.015-.016.062-.126.173-.245.11-.119.2-.244.2-.278-.006-.188-.37-.434-1.659-1.122a12.591 12.591 0 0 1-.698-.392.398.398 0 0 0-.19-.073c-.049 0-.096-.02-.106-.042-1.935-.927-3.173-1.584-5.053-2.366-.02 0-.147-.07-.283-.156-.352-.201-.541-.246-.854-.498-.028-.023-.14-.113-.25-.199-.436-.346-.597-.685-.538-1.137.017-.13.32-.821.735-1.68.39-.804.704-1.478.7-1.497-.004-.02.014-.05.04-.068.092-.063.946-1.89.913-1.951-.019-.034-.015-.043.008-.022.042.039.504-.836.508-.962.001-.037.026-.067.054-.067.029 0 .039-.014.022-.03-.037-.039-.35.125-.35.183 0 .025-.033.044-.073.044-1.652.664-3.509 1.688-4.963 2.37-.388.182-.764.383-.836.447-.077.068-.19.286-.273.53-.078.227-.186.471-.239.54-.053.07-.086.14-.072.154.014.015-.23.541-.54 1.17-.76 1.537-.803 1.62-.863 1.666-.028.022-.03.04-.005.04.026 0 .013.043-.029.094a2.84 2.84 0 0 0-.221.415c-.08.176-.206.403-.28.504-.072.1-.099.162-.058.137.064-.04.064-.034.002.045-.786 1.585-1.775 3.06-2.451 4.674-.204.375-.326.728-.506 1.192h.244c.82.101-.132.202-.405.233-.99.11-4.79.035-4.918-.098-.13-.134.505-.194 2.182-.207.677-.008 1.232-.01 1.232-.014 0 0-.143-.12-.317-.262a7.116 7.116 0 0 1-.428-.37 1.948 1.948 0 0 0-.275-.22 6.546 6.546 0 0 1-.492-.388l-.397-.338-.389-.327c-.374-.315-.733-.702-.842-.908-.07-.135-.068-.146.04-.184.187-.065.408-.008 1.1.293.114.048.22.09.234.093.035.008.189.067.391.155.086.037.272.11.415.164.143.053.283.113.311.133.063.045.349.126.402.114.02-.008.126.027.233.068.356.14.942.192 1.454.127.454-.358.774-.924.972-1.381.051-.06.072-.107.047-.108-.026 0-.021-.02.01-.04.305-.607.638-1.282.9-1.858.323-.698.485-1.07.5-1.144a.212.212 0 0 1 .082-.12c.038-.025.05-.045.029-.045-.022 0 .004-.09.059-.201.054-.11.128-.303.165-.428.036-.125.081-.228.1-.228.02 0 .036-.03.036-.066 0-.037.112-.356.248-.709.28-.727.556-1.466.711-1.899.058-.162.125-.342.15-.4.024-.06.094-.24.155-.402.06-.162.157-.403.213-.535.056-.132.105-.265.109-.294a.267.267 0 0 1 .05-.107c.89-1.344 2.465-2.265 3.56-3.268.024.015.182-.098.35-.251.169-.153.33-.297.358-.32.15-.117.784-.64 1.116-.922.21-.176.499-.414.644-.53.145-.114.275-.223.29-.243.013-.019.177-.153.362-.299.186-.146.376-.304.422-.353.396-.446 1.013-.793 1.783-1.454.057-.055.156-.137.22-.181.064-.044.103-.103.087-.13-.016-.027-.007-.042.02-.034.078.023.38-.225.345-.284.17-.089.328-.234.517-.396.102-.102.186-.173.186-.156 0 .017.03 0 .066-.041.086-.09.278-.558.316-.766.016-.089.064-.305.107-.481.14-.575.23-1.581.261-2.916.018-.72.044-1.43.059-1.578l.026-.268-.344.375c-.323.352-.526.647-.503.733.006.021-.023.026-.063.01-.127.032-.163.132-.232.247a1.217 1.217 0 0 0-.108.13c-.062.082-.063.095-.005.059.049-.03.06-.026.035.017-.02.034-.06.061-.09.061-.071 0-.355.279-.329.323.011.019-.012.034-.052.034-.04 0-.059-.026-.041-.058.018-.032-.012-.02-.067.029a.76.76 0 0 1-.23.128 5.06 5.06 0 0 0-.44.188c-.171.081-.65.296-1.064.477l-1.037.456c-.157.07-.413.178-.568.24-.155.063-.61.266-1.012.45-.4.185-.827.38-.948.432-.12.053-.206.118-.19.144.015.027.009.044-.014.04-.121-.021-.18.023-.273.206-.145.285-.474.617-.835.843-.18.113-.296.22-.276.253.019.032.01.042-.021.022-.03-.02-.18 0-.332.038-.245.066-.283.064-.324-.008-.028-.052-.023-.12.014-.181.071-.118.054-.12-.17-.024-.2.086-.263.06-.339-.146-.034-.094-.036-.137-.003-.116.029.018.052.01.052-.02 0-.029-.053-.06-.117-.07-.152-.022-.197-.289-.055-.327.086-.023.087-.026.003-.031-.065-.008-.09-.052-.09-.17 0-.128.031-.176.146-.227.08-.035.223-.154.316-.265.094-.11.188-.189.21-.175.021.014.2-.024.396-.083.228-.07.48-.105.695-.098.685.02.75.012 1.141-.175.214-.102.541-.252.727-.333.983-.43 1.326-.593 1.359-.643a.144.144 0 0 1 .104-.057c.144 0 .814-.313.783-.365-.018-.03-.007-.037.024-.018.5-.172.83-.338 1.3-.55.667-.271.924-.425 1.055-.63a1.72 1.72 0 0 0 .145-.257.943.943 0 0 1 .105-.187c.416-.76.815-1.423 1.197-2.138.638-1.158.727-1.38.827-2.052.122-.816.174-1.067.347-1.659l.139-.473-.21-.195c-.69-.641-.859-.756-1.14-.777-.062-.008-.101-.026-.088-.048.042-.07-.363-.041-.63.045-.358.116-.536.143-.683.105-.137-.035-.468-.37-.514-.522-.016-.052-.051-.096-.078-.096-.027 0-.048-.043-.048-.095 0-.052-.072-.14-.16-.192-.196-.12-.27-.312-.229-.593.032-.213.2-1.187.26-1.5.13-.698.142-.828.078-.908-.036-.045-.087-.082-.114-.082a.223.223 0 0 1-.11-.053 6.815 6.815 0 0 0-.182-.147.64.64 0 0 1-.17-.307c-.105-.452-.136-.666-.093-.638.025.016.045 0 .045-.027 0-.101.335-.527.441-.561.25-.08 1.282-.192 1.762-.192.534 0 .67.042.845.265.056.072.06.068.035-.024-.03-.107-.03-.107.035 0 .035.06.111.142.169.184.135.1.23.203.422.46.086.114.2.255.255.312.094.099.096.142.038.884-.074.95-.073 1.558.001 1.878.03.132.06.373.063.535.006.27.024.312.227.521.121.125.233.227.248.227.704.707 1.855 1.518 2.203 2.342.237.443.5.97.647 1.416.062.2.123.352.135.34.012-.011.028.147.036.353.007.206.034.414.06.463.107.207.564.75.601.714.023-.02.026-.01.006.026-.02.035.04.154.134.267.535.518.406.525.827.894.038-.024.045-.014.02.027-.024.041.13.242.42.545.253.264.476.522.496.572.048.12.231 1.035.56 2.794a107.877 107.877 0 0 0 .66 3.248c.027.122.098.209.481.576.123.118.267.31.321.428.054.118.148.298.208.401.088.151.11.28.114.669.005.467.002.481-.111.475-.104-.008-.117.02-.117.224 0 .266-.182.606-.327.61-.136 0-.334-.242-.537-.666-.214-.445-.204-.434-.295-.356-.097.083-.224.027-.265-.117a5.504 5.504 0 0 1-.064-.64c-.026-.424-.013-.586.065-.851l.096-.328-.138-.701a74.97 74.97 0 0 0-.454-2.038l-.427-1.817c-.062-.265-.131-.49-.155-.5a.038.038 0 0 1-.019-.056c.046-.075-.173-.94-.252-1-.045-.033-.082-.082-.082-.108 0-.027-.13-.192-.289-.369l-.43-.481c-.323-.361-.743-.722-.801-.688-.034.02-.044.017-.024-.008.035-.04-.256-.346-.33-.348-.048 0-.084.395-.201 2.22-.139 2.164-.23 3.07-.436 4.332-.101.618-.4 1.729-.55 2.052a1.625 1.625 0 0 0-.117.32.445.445 0 0 1-.072.177c-.181.715-.513.852-.765 1.496.023.04.016.05-.02.027-.034-.021-.166.14-.332.406-.15.244-.35.551-.443.684a19.9 19.9 0 0 0-.356.535 24.91 24.91 0 0 1-.52.76c-.181.257-.33.493-.33.525 0 .032-.02.046-.044.03-.024-.015-.093.062-.153.171-.06.11-.192.292-.292.407-.1.115-.168.235-.15.267.018.033.014.042-.009.02-.023-.021-.16.125-.306.325a41.215 41.215 0 0 1-1.633 2.068c-.075.088-.322.383-.548.655-.227.272-.431.495-.454.495-.023 0-.042.026-.042.06 0 .033-.053.111-.117.173a3.642 3.642 0 0 0-.265.3c-.08.104-.13.154-.108.113.026-.05.019-.063-.02-.037a.138.138 0 0 0-.06.104c0 .036-.222.306-.492.599s-.492.56-.493.596c0 .035-.075.122-.164.194l-.164.132.177.038c.298.066.796.254.836.316.021.033.039.037.04.012 0-.026.033-.02.072.015a.44.44 0 0 0 .171.081c.054.011.221.095.372.186.15.092.26.144.243.116-.038-.064.452.211.496.278.018.027.048.044.067.04 1.957.863 3.157 1.919 4.881 2.808.114.059.22.121.234.14.014.018.147.098.295.177.148.08.297.179.33.22.034.043.091.077.127.077.036 0 .094.035.13.08.034.043.081.067.104.053.022-.015.054.012.071.058.018.045.053.069.08.052.057-.036.842.77.807.828-.014.022.005.052.04.068.036.014.11.12.166.233.056.113.135.248.177.3.041.051.058.093.037.093-.02 0 .006.067.06.147.265.403.286.655.068.815-.168.123-.59.285-.897.343-.107.02-.195.064-.195.097s.016.044.034.025c.019-.02.067-.008.107.027.04.034.069.04.064.013-.023-.123.01-.142.08-.046.062.084.085.09.123.031.027-.043.059-.051.078-.02.017.03.132.054.257.057.249.008.502.086.502.161 0 .18-.342.226-1.802.245-.627.009-1.165.03-1.195.05a.064.064 0 0 1-.09-.02c-.024-.04-.058-.036-.111.01-.046.039-.092.045-.113.016-.784.064-1.32-.039-2.125-.083z" opacity=".2"/>
    <path d="M36.812 51.898c-.264 0-.488-.137-.674-.212-.35-.316-.144-.155.233-.298-.215.037.05.02.275-.125.079 0 .232-.038.341-.085.11-.047.235-.094.279-.105a6.93 6.93 0 0 0 .444-.156l.57-.215c.195-.072.55-.252.955-.487.176-.101.277-.175.484-.356.059-.051.131-.094.16-.094.029 0 .04-.013.024-.029-.015-.016.062-.126.173-.245.11-.119.2-.244.2-.278-.006-.188-.37-.434-1.659-1.122a12.591 12.591 0 0 1-.698-.392.398.398 0 0 0-.19-.073c-.049 0-.096-.02-.106-.042-1.935-.927-3.173-1.584-5.053-2.366-.02 0-.147-.07-.283-.156-.352-.201-.541-.246-.854-.498-.028-.023-.14-.113-.25-.199-.436-.346-.597-.685-.538-1.137.017-.13.32-.821.735-1.68.39-.804.704-1.478.7-1.497-.004-.02.014-.05.04-.068.092-.063.946-1.89.913-1.951-.019-.034-.015-.043.008-.022.042.039.504-.836.508-.962.001-.037.026-.067.054-.067.029 0 .039-.014.022-.03-.037-.039-.35.125-.35.183 0 .025-.033.044-.073.044-1.652.664-3.509 1.688-4.963 2.37-.388.182-.764.383-.836.447-.077.068-.19.286-.273.53-.078.227-.186.471-.239.54-.053.07-.086.14-.072.154.014.015-.23.541-.54 1.17-.76 1.537-.803 1.62-.863 1.666-.028.022-.03.04-.005.04.026 0 .013.043-.029.094a2.84 2.84 0 0 0-.221.415c-.08.176-.206.403-.28.504-.072.1-.099.162-.058.137.064-.04.064-.034.002.045-.786 1.585-1.775 3.06-2.451 4.674-.204.375-.326.728-.506 1.192h.244c.82.101-.132.202-.405.233-.99.11-4.79.035-4.918-.098-.13-.134.505-.194 2.182-.207.677-.008 1.232-.01 1.232-.014 0 0-.143-.12-.317-.262a7.116 7.116 0 0 1-.428-.37 1.948 1.948 0 0 0-.275-.22 6.546 6.546 0 0 1-.492-.388l-.397-.338-.389-.327c-.374-.315-.733-.702-.842-.908-.07-.135-.068-.146.04-.184.187-.065.408-.008 1.1.293.114.048.22.09.234.093.035.008.189.067.391.155.086.037.272.11.415.164.143.053.283.113.311.133.063.045.349.126.402.114.02-.008.126.027.233.068.356.14.942.192 1.454.127.454-.358.774-.924.972-1.381.051-.06.072-.107.047-.108-.026 0-.021-.02.01-.04.305-.607.638-1.282.9-1.858.323-.698.485-1.07.5-1.144a.212.212 0 0 1 .082-.12c.038-.025.05-.045.029-.045-.022 0 .004-.09.059-.201.054-.11.128-.303.165-.428.036-.125.081-.228.1-.228.02 0 .036-.03.036-.066 0-.037.112-.356.248-.709.28-.727.556-1.466.711-1.899.058-.162.125-.342.15-.4.024-.06.094-.24.155-.402.06-.162.157-.403.213-.535.056-.132.105-.265.109-.294a.267.267 0 0 1 .05-.107c.89-1.344 2.465-2.265 3.56-3.268.024.015.182-.098.35-.251.169-.153.33-.297.358-.32.15-.117.784-.64 1.116-.922.21-.176.499-.414.644-.53.145-.114.275-.223.29-.243.013-.019.177-.153.362-.299.186-.146.376-.304.422-.353.396-.446 1.013-.793 1.783-1.454.057-.055.156-.137.22-.181.064-.044.103-.103.087-.13-.016-.027-.007-.042.02-.034.078.023.38-.225.345-.284.17-.089.328-.234.517-.396.102-.102.186-.173.186-.156 0 .017.03 0 .066-.041.086-.09.278-.558.316-.766.016-.089.064-.305.107-.481.14-.575.23-1.581.261-2.916.018-.72.044-1.43.059-1.578l.026-.268-.344.375c-.323.352-.526.647-.503.733.006.021-.023.026-.063.01-.127.032-.163.132-.232.247a1.217 1.217 0 0 0-.108.13c-.062.082-.063.095-.005.059.049-.03.06-.026.035.017-.02.034-.06.061-.09.061-.071 0-.355.279-.329.323.011.019-.012.034-.052.034-.04 0-.059-.026-.041-.058.018-.032-.012-.02-.067.029a.76.76 0 0 1-.23.128 5.06 5.06 0 0 0-.44.188c-.171.081-.65.296-1.064.477l-1.037.456c-.157.07-.413.178-.568.24-.155.063-.61.266-1.012.45-.4.185-.827.38-.948.432-.12.053-.206.118-.19.144.015.027.009.044-.014.04-.121-.021-.18.023-.273.206-.145.285-.474.617-.835.843-.18.113-.296.22-.276.253.019.032.01.042-.021.022-.03-.02-.18 0-.332.038-.245.066-.283.064-.324-.008-.028-.052-.023-.12.014-.181.071-.118.054-.12-.17-.024-.2.086-.263.06-.339-.146-.034-.094-.036-.137-.003-.116.029.018.052.01.052-.02 0-.029-.053-.06-.117-.07-.152-.022-.197-.289-.055-.327.086-.023.087-.026.003-.031-.065-.008-.09-.052-.09-.17 0-.128.031-.176.146-.227.08-.035.223-.154.316-.265.094-.11.188-.189.21-.175.021.014.2-.024.396-.083.228-.07.48-.105.695-.098.685.02.75.012 1.141-.175.214-.102.541-.252.727-.333.983-.43 1.326-.593 1.359-.643a.144.144 0 0 1 .104-.057c.144 0 .814-.313.783-.365-.018-.03-.007-.037.024-.018.5-.172.83-.338 1.3-.55.667-.271.924-.425 1.055-.63a1.72 1.72 0 0 0 .145-.257.943.943 0 0 1 .105-.187c.416-.76.815-1.423 1.197-2.138.638-1.158.727-1.38.827-2.052.122-.816.174-1.067.347-1.659l.139-.473-.21-.195c-.69-.641-.859-.756-1.14-.777-.062-.008-.101-.026-.088-.048.042-.07-.363-.041-.63.045-.358.116-.536.143-.683.105-.137-.035-.468-.37-.514-.522-.016-.052-.051-.096-.078-.096-.027 0-.048-.043-.048-.095 0-.052-.072-.14-.16-.192-.196-.12-.27-.312-.229-.593.032-.213.2-1.187.26-1.5.13-.698.142-.828.078-.908-.036-.045-.087-.082-.114-.082a.223.223 0 0 1-.11-.053 6.815 6.815 0 0 0-.182-.147.64.64 0 0 1-.17-.307c-.105-.452-.136-.666-.093-.638.025.016.045 0 .045-.027 0-.101.335-.527.441-.561.25-.08 1.282-.192 1.762-.192.534 0 .67.042.845.265.056.072.06.068.035-.024-.03-.107-.03-.107.035 0 .035.06.111.142.169.184.135.1.23.203.422.46.086.114.2.255.255.312.094.099.096.142.038.884-.074.95-.073 1.558.001 1.878.03.132.06.373.063.535.006.27.024.312.227.521.121.125.233.227.248.227.704.707 1.855 1.518 2.203 2.342.237.443.5.97.647 1.416.062.2.123.352.135.34.012-.011.028.147.036.353.007.206.034.414.06.463.107.207.564.75.601.714.023-.02.026-.01.006.026-.02.035.04.154.134.267.535.518.406.525.827.894.038-.024.045-.014.02.027-.024.041.13.242.42.545.253.264.476.522.496.572.048.12.231 1.035.56 2.794a107.877 107.877 0 0 0 .66 3.248c.027.122.098.209.481.576.123.118.267.31.321.428.054.118.148.298.208.401.088.151.11.28.114.669.005.467.002.481-.111.475-.104-.008-.117.02-.117.224 0 .266-.182.606-.327.61-.136 0-.334-.242-.537-.666-.214-.445-.204-.434-.295-.356-.097.083-.224.027-.265-.117a5.504 5.504 0 0 1-.064-.64c-.026-.424-.013-.586.065-.851l.096-.328-.138-.701a74.97 74.97 0 0 0-.454-2.038l-.427-1.817c-.062-.265-.131-.49-.155-.5a.038.038 0 0 1-.019-.056c.046-.075-.173-.94-.252-1-.045-.033-.082-.082-.082-.108 0-.027-.13-.192-.289-.369l-.43-.481c-.323-.361-.743-.722-.801-.688-.034.02-.044.017-.024-.008.035-.04-.256-.346-.33-.348-.048 0-.084.395-.201 2.22-.139 2.164-.23 3.07-.436 4.332-.101.618-.4 1.729-.55 2.052a1.625 1.625 0 0 0-.117.32.445.445 0 0 1-.072.177c-.181.715-.513.852-.765 1.496.023.04.016.05-.02.027-.034-.021-.166.14-.332.406-.15.244-.35.551-.443.684a19.9 19.9 0 0 0-.356.535 24.91 24.91 0 0 1-.52.76c-.181.257-.33.493-.33.525 0 .032-.02.046-.044.03-.024-.015-.093.062-.153.171-.06.11-.192.292-.292.407-.1.115-.168.235-.15.267.018.033.014.042-.009.02-.023-.021-.16.125-.306.325a41.215 41.215 0 0 1-1.633 2.068c-.075.088-.322.383-.548.655-.227.272-.431.495-.454.495-.023 0-.042.026-.042.06 0 .033-.053.111-.117.173a3.642 3.642 0 0 0-.265.3c-.08.104-.13.154-.108.113.026-.05.019-.063-.02-.037a.138.138 0 0 0-.06.104c0 .036-.222.306-.492.599s-.492.56-.493.596c0 .035-.075.122-.164.194l-.164.132.177.038c.298.066.796.254.836.316.021.033.039.037.04.012 0-.026.033-.02.072.015a.44.44 0 0 0 .171.081c.054.011.221.095.372.186.15.092.26.144.243.116-.038-.064.452.211.496.278.018.027.048.044.067.04 1.957.863 3.157 1.919 4.881 2.808.114.059.22.121.234.14.014.018.147.098.295.177.148.08.297.179.33.22.034.043.091.077.127.077.036 0 .094.035.13.08.034.043.081.067.104.053.022-.015.054.012.071.058.018.045.053.069.08.052.057-.036.842.77.807.828-.014.022.005.052.04.068.036.014.11.12.166.233.056.113.135.248.177.3.041.051.058.093.037.093-.02 0 .006.067.06.147.265.403.286.655.068.815-.168.123-.59.285-.897.343-.107.02-.195.064-.195.097s.016.044.034.025c.019-.02.067-.008.107.027.04.034.069.04.064.013-.023-.123.01-.142.08-.046.062.084.085.09.123.031.027-.043.059-.051.078-.02.017.03.132.054.257.057.249.008.502.086.502.161 0 .18-.342.226-1.802.245-.627.009-1.165.03-1.195.05a.064.064 0 0 1-.09-.02c-.024-.04-.058-.036-.111.01-.046.039-.092.045-.113.016-.784.064-1.32-.039-2.125-.083z" fill="#F9F5D7"/>
    <path d="M6.8 4C5.25 4 4 5.25 4 6.8v1C4 6.25 5.25 5 6.8 5h50.4C58.75 5 60 6.25 60 7.8v-1C60 5.25 58.75 4 57.2 4H6.8z" opacity=".1" fill="#F9F5D7"/>
</svg>
