<svg xmlns="http://www.w3.org/2000/svg" width="64" height="64" version="1">
    <path d="M32 5l-7.615 8H13.998l-.383 10.385L6 31l7.615 7.615L14 49h10.385l7.616 8.002L39.617 49H50l.385-10.383L58.003 31 50 23.385V13H39.617l-7.616-8z" fill="#FD8019"/>
    <path d="M22.05 6.978l-4.123 9.95-9.95 4.123 4.12 9.95-4.12 9.95 9.95 4.122 4.123 9.95 9.95-4.12 9.949 4.12 4.123-9.95 9.95-4.123-4.12-9.952 4.118-9.95-9.947-4.122-4.124-9.95-9.95 4.12-9.948-4.12z" fill="#FD8019"/>
    <rect width="40" height="40" x="-52" y="-52" rx="20" ry="20" transform="matrix(0 -1 -1 0 0 0)" opacity=".2"/>
    <rect width="40" height="40" x="-51" y="-52" rx="20" ry="20" transform="matrix(0 -1 -1 0 0 0)" fill="#FECE4F"/>
    <path d="M22 21a4 4 0 0 0-4 4 4 4 0 0 0 4 4 4 4 0 0 0 4-4 4 4 0 0 0-4-4zm20 0a4 4 0 0 0-4 4 4 4 0 0 0 4 4 4 4 0 0 0 4-4 4 4 0 0 0-4-4z" fill="#3A393A"/>
    <path d="M21.348 37c2.198 4.568 6.258 7.996 10.653 8 4.392-.008 8.448-3.436 10.644-8H21.348z" fill="#A04A73"/>
    <path d="M55.666 21.902l-2.043 4.934.297.283 2.1-5.07zm-47.336.002l-.354.146 2.043 4.932.292-.292zM6.5 31.5L6 32l4.02 4.021.291-.707zm50.99.014l-3.803 3.8.293.708L58.002 32zM8.33 41.098l-.353.85 5.814 2.41L14 50h5.553l2.496 6.023 5.787-2.396 4.166 4.375 4.162-4.375 5.785 2.396L44.445 50H50l.21-5.64 5.812-2.411-.354-.852-5.459 2.262L50 49h-5.555l-2.496 6.023-5.785-2.396-4.162 4.375-4.166-4.375-5.787 2.396L19.553 49H14l-.21-5.639z" opacity=".2"/>
    <path d="M32 5l-4.162 4.373-5.789-2.396v.002L19.553 13h-5.555l-.207 5.643-5.814 2.408.353.853 5.461-2.261.207-5.643h5.555l2.496-6.021v-.002l5.789 2.396L32 6l.002.002 4.16 4.369 5.785-2.394L44.445 14H50v-1h-5.555l-2.498-6.023-5.785 2.394L32.002 5H32zm18 13.555v1l5.666 2.347.354-.853L50 18.555zM10.02 26.98L6 31l.5.502 3.812-3.813-.292-.709zm43.902.135l-.299.721 3.865 3.678.514-.514-4.08-3.885zM10.018 36.02l-2.041 4.929.353.147 1.982-4.782-.294-.294zm43.962.001l-.292.293 1.98 4.782.353-.147-2.041-4.928z" opacity=".2" fill="#F9F5D7"/>
</svg>
