<svg xmlns="http://www.w3.org/2000/svg" width="64" height="64" version="1">
    <path d="M4 51.242v2C4 54.77 5.25 56 6.8 56h50.4c1.55 0 2.8-1.23 2.8-2.758v-2C60 52.77 58.75 54 57.2 54H6.8C5.25 54 4 52.77 4 51.242z" opacity=".2"/>
    <g fill="#F9BD2E">
        <path d="M36.858 9C35.274 9 34 10.19 34 11.668v2.667C34 15.81 35.274 17 36.858 17h14.285C52.725 17 54 15.81 54 14.334v-2.667c0-1.477-1.274-2.666-2.858-2.666H36.856zM12.857 9C11.274 9 10 10.19 10 11.668v2.667c0 1.477 1.274 2.667 2.857 2.667h14.285C28.726 17 30 15.81 30 14.334v-2.667c0-1.477-1.274-2.666-2.858-2.666H12.857z"/>
    </g>
    <path d="M60 52.242V17.76C60 16.23 58.75 15 57.2 15H6.8C5.249 15 4 16.23 4 17.759v34.482c0 1.528 1.249 2.758 2.8 2.758l50.4.002c1.55 0 2.8-1.23 2.8-2.758z" fill="#D79921"/>
    <path d="M12.855 9C11.273 9 10 10.19 10 11.668v1.002c0-1.477 1.273-2.668 2.855-2.668h14.29c1.584 0 2.855 1.19 2.855 2.668v-1.002C30 10.191 28.729 9 27.145 9h-14.29zm24 0c-1.584 0-2.857 1.19-2.857 2.668v1.002c0-1.477 1.273-2.668 2.857-2.668h14.288c1.584 0 2.855 1.19 2.855 2.668v-1.002c0-1.477-1.271-2.668-2.855-2.668H36.855z" opacity=".2" fill="#F9F5D7"/>
</svg>
