<svg xmlns="http://www.w3.org/2000/svg" width="64" height="64" version="1">
    <path d="M59 33a28 28 0 0 1-28 28A28 28 0 0 1 3 33 28 28 0 0 1 31 5a28 28 0 0 1 28 28z" opacity=".2"/>
    <path d="M59 32a28 28 0 0 1-28 28A28 28 0 0 1 3 32 28 28 0 0 1 31 4a28 28 0 0 1 28 28z" fill="#F9F5D7"/>
    <path d="M62.807 49.982c-.755.218-4.939 1.405-5.399 1.129-4.699-2.817-8.45-1.409-12.846.423-1.374.572-2.753 1.135-4.735 1.952 7.842-15.382 2.994-30.472-14.889-33.846 3.423-.8 8.206-.877 11.963.11 10.247 2.694 15.891 6.748 21.935 17.687 1.775 3.592 4.16 9.276 3.971 12.545" opacity=".1"/>
    <path d="M62.807 48.983c-.755.217-4.939 1.404-5.399 1.128-4.699-2.817-8.45-1.409-12.846.423-1.374.572-2.753 1.135-4.735 1.952 7.842-15.382 2.994-30.472-14.889-33.846 3.423-.8 8.206-.877 11.963.11 10.247 2.694 15.891 6.748 21.935 17.688 1.775 3.591 4.16 9.275 3.971 12.545" fill="#CB241D"/>
    <path d="M6.052 36.034c2.591-5.017 11.74-6.328 16.889-3.687 5.122 2.628 8.521 11.107 3.856 19.333.063-5.768-1.273-11.057-5.673-14.777-4.318-3.536-9.714-2.996-15.072-.87" opacity=".1"/>
    <path d="M6.052 35.034c2.591-5.017 11.74-6.328 16.889-3.687 5.122 2.628 8.521 11.107 3.856 19.333.063-5.768-1.273-11.056-5.673-14.776-4.318-3.536-9.714-2.997-15.072-.87" fill="#8F3F71"/>
    <path d="M10.138 28.896c3.617-4.714 8.175-6.086 13.217-5.687 6.635.526 11.68 3.784 14.38 10.056 2.52 6.015 1.22 13.737-4.136 19.715 2.022-7.806 1.612-14.39-3.54-19.825-5.32-5.382-12.09-6.425-19.921-4.26" opacity=".1"/>
    <path d="M10.138 27.896c3.617-4.714 8.175-6.086 13.217-5.686 6.635.526 11.68 3.783 14.38 10.056 2.52 6.014 1.22 13.736-4.136 19.714 2.022-7.806 1.612-14.39-3.54-19.825-5.32-5.382-12.09-6.424-19.921-4.26" fill="#7CB668"/>
    <circle cx="12" cy="50" r="11" opacity=".2"/>
    <circle cx="12" cy="49" r="11" fill="#504945"/>
    <path d="M10.195 54.524c0-.29.042-.536.125-.738.084-.2.2-.362.348-.486a1.38 1.38 0 0 1 .524-.269 2.417 2.417 0 0 1 1.26 0 1.287 1.287 0 0 1 .866.755c.088.202.13.447.13.738 0 .278-.042.516-.129.714a1.386 1.386 0 0 1-.352.492c-.148.13-.32.223-.514.282a2.286 2.286 0 0 1-1.26 0 1.377 1.377 0 0 1-.525-.282 1.329 1.329 0 0 1-.348-.492 1.847 1.847 0 0 1-.124-.714m.306-3.556v-.032c0-.316.032-.97.097-1.226.065-.257.164-.5.297-.733.132-.231.304-.457.514-.677.21-.219.464-.446.76-.681.26-.204.48-.386.658-.548.18-.16.325-.32.436-.477.111-.158.192-.323.241-.495.05-.174.075-.375.075-.603 0-.353-.12-.644-.357-.872-.238-.229-.602-.343-1.09-.343-.426 0-.885.09-1.377.268-.49.18-1 .4-1.525.659l-.945-2.049a9.686 9.686 0 0 1 1.84-.811 7.99 7.99 0 0 1 1.024-.255A5.795 5.795 0 0 1 12.17 42c.631 0 1.2.076 1.706.227.507.152.937.372 1.289.663.353.29.623.644.811 1.057.19.415.283.887.283 1.418 0 .39-.044.738-.13 1.044a3.14 3.14 0 0 1-.384.853c-.17.263-.384.516-.64.76s-.555.502-.895.774c-.26.204-.471.382-.635.533a2.607 2.607 0 0 0-.384.431 1.266 1.266 0 0 0-.19.422c-.035.145-.052 1.08-.052.883v-.097h-2.447z" fill="#F9F5D7"/>
    <path d="M31 4A28 28 0 0 0 3 32a28 28 0 0 0 .018.492A28 28 0 0 1 31 5a28 28 0 0 1 27.975 27.492A28 28 0 0 0 59 32 28 28 0 0 0 31 4z" opacity=".2" fill="#F9F5D7"/>
</svg>
