<svg xmlns="http://www.w3.org/2000/svg" width="64" height="64" version="1">
    <rect width="56" height="56" x="4" y="5" rx="2.8" ry="2.8" opacity=".2"/>
    <rect width="56" height="56" x="4" y="4" rx="2.8" ry="2.8" fill="#F15C22"/>
    <path d="M31.973 8c13.606 0 24 10.38 24 23.973 0 13.606-10.394 24-24 24C18.381 55.973 8 45.58 8 31.973 8 18.381 18.38 8 31.973 8zM8 8zm48 48z" fill="#504945"/>
    <path d="M31.987 17c9.072 0 16 6.928 16 15.987 0 9.072-6.928 16-16 16-9.06 0-15.987-6.928-15.987-16C16 23.927 22.928 17 31.987 17zM16 17zm32 32z" opacity=".2"/>
    <path d="M31.987 16c9.072 0 16 6.928 16 15.987 0 9.072-6.928 16-16 16-9.06 0-15.987-6.928-15.987-16C16 22.927 22.928 16 31.987 16zM16 16zm32 32z" fill="gray"/>
    <path d="M31.988 25c3.972 0 7 3.028 7 6.988 0 3.972-3.028 7-7 7-3.96 0-6.988-3.028-6.988-7C25 28.028 28.028 25 31.988 25zM25 25zm14 14z" fill="#322F2E"/>
    <path d="M6.8 4C5.25 4 4 5.25 4 6.8v1C4 6.25 5.25 5 6.8 5h50.4C58.75 5 60 6.25 60 7.8v-1C60 5.25 58.75 4 57.2 4H6.8z" fill="#F9F5D7" opacity=".2"/>
    <path d="M31.973 8C18.38 8 8 18.38 8 31.973c0 .167.009.333.012.5C8.264 19.128 18.548 9 31.972 9 45.41 9 55.709 19.128 55.962 32.473c.003-.167.012-.333.012-.5C55.973 18.38 45.578 8 31.973 8z" opacity=".2"/>
</svg>
