<svg xmlns="http://www.w3.org/2000/svg" width="64" height="64" version="1">
    <rect width="56" height="56" x="4" y="4" rx="3" ry="3" fill="#48B9C7"/>
    <path d="M7 4C5.338 4 4 5.338 4 7v1c0-1.662 1.338-3 3-3h50c1.662 0 3 1.338 3 3V7c0-1.662-1.338-3-3-3H7z" opacity=".1" fill="#F9F5D7"/>
    <path d="M4 57v1c0 1.662 1.338 3 3 3h50c1.662 0 3-1.338 3-3v-1c0 1.662-1.338 3-3 3H7c-1.662 0-3-1.338-3-3zM32 13a6 6 0 0 0-6 6 6 6 0 0 0 4 5.648V27h-6v4h6v11c0 1.5-1.567 1.13-2.555 1-4.428-.58-7.329.014-9.396-1.902l2.341-.138-2.585-2.414-2.59-2.41c-.976 2.21-1.09 4.406-1.215 6.766l1.602-1.578c.77 3.175 11.284 5.177 12.77 6.484L31.998 51l3.628-3.192c1.489-1.31 12-3.313 12.758-6.492l1.614 1.586c0-2.403-.522-4.507-1.215-6.766l-2.59 2.41-2.196 2.414 1.96.137c-2.065 1.912-4.953 1.322-9.363 1.904-1.002.132-2.598.5-2.598-1V31H40v-4h-6.003v-2.348a5.997 5.997 0 0 0-2-11.652zm0 4a2 2 0 1 1 0 4 2 2 0 0 1 0-4z" opacity=".2"/>
    <path d="M32 12a6 6 0 0 0-6 6 6 6 0 0 0 4 5.648V26h-6v4h6v11c0 1.5-1.567 1.13-2.555 1-4.428-.58-7.329.015-9.396-1.902l2.341-.138-2.585-2.414-2.59-2.41c-.976 2.21-1.09 4.406-1.215 6.766l1.602-1.578c.77 3.176 11.284 5.178 12.77 6.484L31.998 50l3.628-3.192c1.489-1.31 12-3.313 12.758-6.492l1.614 1.586c0-2.402-.522-4.507-1.215-6.766l-2.59 2.41-2.196 2.414 1.96.137c-2.065 1.912-4.953 1.322-9.363 1.904-1.002.132-2.598.5-2.598-1V30H40v-4h-6.003v-2.348a5.997 5.997 0 0 0-2-11.652zm0 4a2 2 0 1 1 0 4 2 2 0 0 1 0-4z" fill="#F9F5D7"/>
</svg>
