<svg xmlns="http://www.w3.org/2000/svg" width="64" height="64">
    <path d="M32 5A28 28 0 0 0 4 33a28 28 0 0 0 28 28 28 28 0 0 0 28-28A28 28 0 0 0 32 5z" opacity=".2"/>
    <path d="M32 4A28 28 0 0 0 4 32a28 28 0 0 0 28 28 28 28 0 0 0 28-28A28 28 0 0 0 32 4z" fill="#C77089"/>
    <rect width="28" height="28" x="18" y="19" rx="5" ry="5" opacity=".2"/>
    <rect width="28" height="28" x="18" y="18" rx="5" ry="5" fill="#F9F5D7"/>
    <rect width="20" height="20" x="22" y="22" rx="3" ry="3" fill="#A04A73"/>
    <path d="M32 4A28 28 0 0 0 4 32a28 28 0 0 0 .021.406A28 28 0 0 1 32 5a28 28 0 0 1 27.979 27.578A28 28 0 0 0 60 32 28 28 0 0 0 32 4z" opacity=".2" fill="#F9F5D7"/>
</svg>
