<svg xmlns="http://www.w3.org/2000/svg" width="64" height="64">
    <path d="M32 5A28 28 0 0 0 4 33a28 28 0 0 0 28 28 28 28 0 0 0 28-28A28 28 0 0 0 32 5z" opacity=".2"/>
    <path d="M32 4A28 28 0 0 0 4 32a28 28 0 0 0 28 28 28 28 0 0 0 28-28A28 28 0 0 0 32 4z" fill="#F9BD2E"/>
    <path d="M53.347 5c.986 0 1.537.777 1.653 2.33l-1.245 7.312h.304l.653-.541h.174v.162c-.9.686-1.77 2.564-2.61 5.634-.32 2.636-.855 5.074-1.61 7.313-.666 2.312-1 4.442-1 6.392l-1.261 3.847c0 .325.478.65 1.435.975-.174.758-.435 1.137-.783 1.137v.217h.305v.162c0 .398-.493.596-1.479.596l.174.217v.758h-.305c.203.759.638 1.138 1.305 1.138v.38h-1.305v.216c.435 0 .653.325.653.975l-1.827.758.174.217v.163c0 .252-.217.379-.652.379v.216c.55 0 .826.127.826.38-.783.325-1.812 1.932-3.088 4.82C42.533 53.719 41.402 55 40.445 55h-.348c-.725-.578-1.319-2.492-1.783-5.742-1.856-4.948-2.784-7.855-2.784-8.722 0-2.239-.594-4.223-1.783-6.75-.319-1.12-.536-3.078-.652-4.775h-.783c-1.972 3.72-3.001 6.56-3.088 8.654-.551 1.228-.986 2.709-1.305 4.442 1.189.398 1.783.777 1.783 1.138v.217c-.928-.145-1.58-.416-1.957-.813-.406.975-.943 3.084-1.61 7.526C25.614 52.233 24.961 53 24.178 53c-2.204-.903-4.045-2.121-5.524-4.18-.232 0-.609-1.029-1.13-3.087-.32 0-.537-1.03-.653-3.088-1.102-2.925-1.856-5.666-2.262-9.422V27.59h-.174l-.783.217v-.217c0-.252.261-.379.783-.379l-.174-3.25v-2.546L13 13.288v-3.067c.55-2.167 1.508-3.25 2.87-3.25l.523.542-.522-.163c2.116 2.89 3.363 4.927 3.74 6.913h1.48v.38h-1.132v.433c.435 1.661.754 2.492.957 2.492h.348l.783-.217.174.217.174-.217.174.217v.162c-.58.434-.971 1.03-1.174 1.788h-.13v.38h.304c.405 6.03 1.16 11.4 2.261 14.505l.653.597h.348c.435 0 1.348-2.368 2.74-6.594.899-1.914 1.551-3.315 1.957-4.76l-.174-.596c.899-1.408 1.827-2.05 2.784-2.05h.304c.61 0 1.044.335 1.305 1.13.812 1.191 1.464 2.701 1.957 5.085l2.436 5.033c.32.397.479.849.479 1.354.898 2.131 1.71 4.712 2.435 5.398h.522c.61 0 1.421-3.809 2.436-9.081.174 0 .652-1.409 1.435-4.226v-.216l-.827-.38-.653.217h-.826v-.433l1.653-.163H46.1c1.247-4.658 2.392-8.27 3.436-10.834.348-5.273.826-7.909 1.435-7.909L53.347 5" opacity=".2"/>
    <path d="M53.347 4c.986 0 1.537.777 1.653 2.33l-1.245 7.312h.304l.653-.541h.174v.162c-.9.686-1.77 2.564-2.61 5.634-.32 2.636-.855 5.074-1.61 7.313-.666 2.312-1 4.442-1 6.392l-1.261 3.847c0 .325.478.65 1.435.975-.174.758-.435 1.137-.783 1.137v.217h.305v.162c0 .398-.493.596-1.479.596l.174.217v.758h-.305c.203.759.638 1.138 1.305 1.138v.38h-1.305v.216c.435 0 .653.325.653.975l-1.827.758.174.217v.163c0 .252-.217.379-.652.379v.216c.55 0 .826.127.826.38-.783.325-1.812 1.932-3.088 4.82C42.533 52.719 41.402 54 40.445 54h-.348c-.725-.578-1.319-2.492-1.783-5.742-1.856-4.948-2.784-7.855-2.784-8.722 0-2.239-.594-4.223-1.783-6.75-.319-1.12-.536-3.078-.652-4.775h-.783c-1.972 3.72-3.001 6.56-3.088 8.654-.551 1.228-.986 2.709-1.305 4.442 1.189.398 1.783.777 1.783 1.138v.217c-.928-.145-1.58-.416-1.957-.813-.406.975-.943 3.084-1.61 7.526C25.614 51.233 24.961 52 24.178 52c-2.204-.903-4.045-2.121-5.524-4.18-.232 0-.609-1.029-1.13-3.087-.32 0-.537-1.03-.653-3.088-1.102-2.925-1.856-5.666-2.262-9.422V26.59h-.174l-.783.217v-.217c0-.252.261-.379.783-.379l-.174-3.25v-2.546L13 12.288V9.221c.55-2.167 1.508-3.25 2.87-3.25l.523.542-.522-.163c2.116 2.89 3.363 4.927 3.74 6.913h1.48v.38h-1.132v.433c.435 1.661.754 2.492.957 2.492h.348l.783-.217.174.217.174-.217.174.217v.162c-.58.434-.971 1.03-1.174 1.788h-.13v.38h.304c.405 6.03 1.16 11.4 2.261 14.505l.653.597h.348c.435 0 1.348-2.368 2.74-6.594.899-1.914 1.551-3.315 1.957-4.76l-.174-.596c.899-1.408 1.827-2.05 2.784-2.05h.304c.61 0 1.044.335 1.305 1.13.812 1.191 1.464 2.701 1.957 5.085l2.436 5.033c.32.397.479.849.479 1.354.898 2.131 1.71 4.712 2.435 5.398h.522c.61 0 1.421-3.809 2.436-9.081.174 0 .652-1.409 1.435-4.226v-.216l-.827-.38-.653.217h-.826v-.433l1.653-.163H46.1c1.247-4.658 2.392-8.27 3.436-10.834.348-5.273.826-7.909 1.435-7.909L53.347 4" fill="#F9F5D7"/>
    <path d="M32 4A28 28 0 0 0 4 32a28 28 0 0 0 .021.406A28 28 0 0 1 32 5a28 28 0 0 1 27.979 27.578A28 28 0 0 0 60 32 28 28 0 0 0 32 4z" opacity=".2" fill="#F9F5D7"/>
</svg>
