<svg xmlns="http://www.w3.org/2000/svg" width="64" height="64">
    <circle cx="32" cy="33" r="28" opacity=".2"/>
    <circle cx="32" cy="32" r="28" fill="#83A498"/>
    <path d="M19 18l3.553 7H35.31L19 41l3.553 7H46l-3.553-7H29.69L46 25l-3.553-7z" opacity=".1"/>
    <path d="M19 17h23.447L46 24H22.553z" fill="#417B58"/>
    <path d="M19 40l23.447-23L46 24 22.553 47z" fill="#417B58"/>
    <path d="M19 40h23.447L46 47H22.553z" fill="#578D57"/>
    <path d="M32 4A28 28 0 0 0 4 32a28 28 0 0 0 .021.586A28 28 0 0 1 32 5a28 28 0 0 1 27.979 27.414A28 28 0 0 0 60 32 28 28 0 0 0 32 4z" fill="#F9F5D7" opacity=".2"/>
</svg>
