<?xml version="1.0" encoding="UTF-8"?>
<svg version="1.1" viewBox="0 0 18 18" xmlns="http://www.w3.org/2000/svg">
    <path class="warning" d="M 16.5,9 A 7.5,7.5 0 0 1 9,16.5 7.5,7.5 0 0 1 1.5,9 7.5,7.5 0 0 1 9,1.5 7.5,7.5 0 0 1 16.5,9 Z" fill="#f57900"/>
    <path class="error" d="m9 1a8 8 0 0 0-8 8 8 8 0 0 0 8 8 8 8 0 0 0 8-8 8 8 0 0 0-8-8zm0 1a7 7 0 0 1 7 7 7 7 0 0 1-7 7 7 7 0 0 1-7-7 7 7 0 0 1 7-7z" fill="#ff0404"/>
    <path class="error" d="m9 4a5 5 0 0 0-5 5 5 5 0 0 0 5 5 5 5 0 0 0 5-5 5 5 0 0 0-5-5zm1.75 2.8066a0.66 0.66 0 0 1 0.47656 0.19336 0.66 0.66 0 0 1 0.080078 0.097656 3 3 0 0 1 0.69336 1.9023 3 3 0 0 1-3 3 3 3 0 0 1-1.9512-0.72852 3 3 0 0 1-0.048828-0.042968v-2e-3a0.66 0.66 0 0 1 0-0.93359l3.293-3.2929a0.66 0.66 0 0 1 0.45703-0.19336z" color="#000000" color-rendering="auto" dominant-baseline="auto" fill="#ff0404" image-rendering="auto" shape-rendering="auto" solid-color="#000000" stroke-width="3.9903" style="font-feature-settings:normal;font-variant-alternates:normal;font-variant-caps:normal;font-variant-ligatures:normal;font-variant-numeric:normal;font-variant-position:normal;isolation:auto;mix-blend-mode:normal;shape-padding:0;text-decoration-color:#000000;text-decoration-line:none;text-decoration-style:solid;text-indent:0;text-orientation:mixed;text-transform:none;white-space:normal"/>
</svg>
