<svg xmlns="http://www.w3.org/2000/svg" width="64" height="64">
    <path d="M13 4c-1.662 0-3 1.338-3 3v50c0 1.662 1.338 3 3 3h38c1.662 0 3-1.338 3-3V7c0-1.662-1.338-3-3-3z" opacity=".2"/>
    <path d="M13 3c-1.662 0-3 1.338-3 3v50c0 1.662 1.338 3 3 3h38c1.662 0 3-1.338 3-3V6c0-1.662-1.338-3-3-3z" fill="#8F3F71"/>
    <path d="M13 3c-1.662 0-3 1.338-3 3v50c0 1.662 1.338 3 3 3h5V3zM32 12v10H22v8h10v22h8V30h10v-8H40V12z" opacity=".2"/>
    <path fill="#FECE4F" d="M32 11h8v40h-8z"/>
    <path fill="#FECE4F" d="M50 21v8H22v-8z"/>
    <path d="M13 3c-1.662 0-3 1.338-3 3v1c0-1.662 1.338-3 3-3h38c1.662 0 3 1.338 3 3V6c0-1.662-1.338-3-3-3H13z" opacity=".1" fill="#F9F5D7"/>
    <path d="M63.958 45.848A16 16 0 0 1 48 61a16 16 0 0 1-15.958-14.848A16 16 0 0 0 32 47a16 16 0 0 0 16 16 16 16 0 0 0 16-16 16 16 0 0 0-.042-1.152z" opacity=".2" fill-rule="evenodd"/>
    <circle cx="48" cy="46" r="16" fill="#FD8019"/>
    <path d="M48 36c-5.523 0-10 4.477-10 10s4.477 10 10 10 10-4.477 10-10-4.477-10-10-10zm0 2a8 8 0 1 1 0 16 8 8 0 0 1 0-16zm-1 2v7h7v-2h-5v-5z" fill="#F9F5D7"/>
</svg>
