<svg xmlns="http://www.w3.org/2000/svg" width="64" height="64" version="1">
    <path d="M60 55.222V10.778A2.783 2.783 0 0 0 57.2 8H6.8A2.783 2.783 0 0 0 4 10.778v44.444A2.783 2.783 0 0 0 6.8 58h50.4c1.551 0 2.8-1.239 2.8-2.778z" opacity=".2"/>
    <path d="M60 54.222V9.778A2.783 2.783 0 0 0 57.2 7H6.8A2.783 2.783 0 0 0 4 9.778v44.444A2.783 2.783 0 0 0 6.8 57h50.4c1.551 0 2.8-1.239 2.8-2.778z" fill="#8F3F71"/>
    <rect width="34" height="28" x="15" y="19" rx="1.214" ry="1.273" opacity=".2"/>
    <rect width="34" height="28" x="15" y="18" rx="1.214" ry="1.273" fill="#8F3F71"/>
    <path d="M18.133 37c-1.068 0-2.113.099-3.133.281v7.446c0 .703.539 1.27 1.209 1.273H34c-3.435-5.516-9.263-9-15.867-9z" fill="#F9BD2E" fill-rule="evenodd"/>
    <path d="M33.101 18a.81.81 0 0 0 .028.268c.087.19.35.217.686.068.3-.133.587-.15.64-.035.052.114-.05.273-.23.353-.429.19-.38.264.644.976.794.55.947.568 1.788.197.727-.322.923-.33.938-.039.01.213.143.317.318.25.166-.066.12.062-.1.283-.259.261-.303.497-.124.668.233.222.021-.055-1.4.576-1.823.809-3.36 2.306-4.449 3.59-.677.8-1.949 3.49-1.8 3.812.04.09.421.01.843-.178.631-.28.765-.46.755-1.023l-.01-.683.318.46.32.461.263-.845c.245-.787.268-.807.374-.314.07.327.252.518.473.503.267-.018.345.102.315.47-.035.45.045.456.886.082.745-.33.702-.761.884-1.397l.225-.79.304.618c.287.587.307.59.434.07.117-.475.155-.5.296-.193.118.255.35.699.844.48.636-.283.604-.188-.462 1.421-.627.948-1.261 3.121-1.719 4.343-.796 2.125-1.643 5.71-1.314 5.564.454-.202 2.365-1.897 2.3-2.04-.043-.091-.09-.478-.106-.858-.029-.685-.026-.69.374-.31.564.538 1.021.25 1.001-.63-.017-.785.27-1.125.51-.605.116.252.218.12.575-.272.325-.358.463-.937.247-1.408-.267-.58-.255-.613.177-.38.49.264.573-.063.357-.533-.082-.178.082-.32.476-.416.33-.08.195-.07.187.02-.134 1.485-.158 5.061-.042 6.393.14 1.604 1.337 4.507 1.604 4.388.064-.028.408-.998.763-2.154.411-1.339.552-2.217.382-2.42-.196-.236-.138-.381.23-.544.579-.258.866-1.415.448-1.813-.204-.194-.168-.276.13-.296.515-.034.452-.175-.376-.81-.654-.5-.657-.504-.07-.333.328.096.662.145.742.11.23-.103-.193-.87-.5-.905-.153-.018-.327-.13-.383-.252-.064-.14.06-.178.34-.107.783.2 1.081-.368.557-1.058-.254-.335-.598-.675-.764-.754-.21-.102-.12-.188.293-.288.361-.086.545-.236.476-.385-.061-.135.011-.233.158-.216.147.017.338-.4.426-.924.088-.525.22-.982.29-1.015 2 2.044 2.787 11.102 3.129 16.799h1V30.865c-1.013-2.137-2.083-3.974-3.05-4.954-1.209-1.227-1.265-1.407-.345-1.13.515.155.55.125.52-.42-.03-.561-.01-.555.457.078.381.517.815.716 2.009.922.154.027.265.04.409.063v-5.056l-.075-.003-1.062.008.794-.358c.123-.055.238-.121.343-.189v-.555c0-.171-.033-.332-.091-.48l-.011-.028A1.212 1.212 0 0 0 47.785 18H45.99l-2.291 1.127-.133-.714c-.017-.09-.049-.305-.075-.413h-3.55v.008c-.003.002-.016-.005-.028-.008zm5.99 6.543c.238.031.275.619.006.955-.177.22-.383.43-.456.462-.19.084.144-1.3.337-1.395a.195.195 0 0 1 .114-.022z" opacity=".6"/>
    <path d="M6.8 7A2.783 2.783 0 0 0 4 9.777v1A2.783 2.783 0 0 1 6.8 8h50.4c1.55 0 2.8 1.238 2.8 2.777v-1A2.783 2.783 0 0 0 57.2 7H6.8zM16.215 18c-.673 0-1.215.568-1.215 1.273v1c0-.705.542-1.273 1.215-1.273h31.57c.673 0 1.215.568 1.215 1.273v-1c0-.705-.542-1.273-1.215-1.273h-31.57z" opacity=".1" fill="#F9F5D7"/>
</svg>
