<svg xmlns="http://www.w3.org/2000/svg" width="64" height="64" version="1">
    <rect width="56" height="56" x="4" y="5" rx="2.8" ry="2.8" opacity=".2"/>
    <rect width="56" height="56" x="4" y="4" rx="2.8" ry="2.8" fill="#CB241D"/>
    <path d="M20.484 10.736L12 19.223l2.828 2.828 8.486-8.487zm23.094 0l-7.777 7.78L44.285 27l7.778-7.777zm-18.142 4.95l-8.487 8.486L19.777 27l8.487-8.484zM32.002 23C27.607 23 24 26.607 24 31.002 24 35.397 27.607 39 32.002 39 36.397 39 40 35.397 40 31.002S36.397 23 32.002 23zM32 27c2.23 0 4 1.77 4 4.002A3.97 3.97 0 0 1 32 35c-2.23 0-4-1.766-4-3.998A3.974 3.974 0 0 1 32 27zm-6 15v4h12v-4zm0 7v4h12v-4z" opacity=".2"/>
    <path d="M20.484 9.736L12 18.223l2.828 2.828 8.486-8.487zm23.094 0l-7.777 7.78L44.285 26l7.778-7.777zm-18.142 4.95l-8.487 8.486L19.777 26l8.487-8.484zM32.002 22C27.607 22 24 25.607 24 30.002 24 34.397 27.607 38 32.002 38 36.397 38 40 34.397 40 30.002S36.397 22 32.002 22zM32 26c2.23 0 4 1.77 4 4.002A3.97 3.97 0 0 1 32 34c-2.23 0-4-1.766-4-3.998A3.974 3.974 0 0 1 32 26zm-6 15v4h12v-4zm0 7v4h12v-4z" fill="#FECE4F"/>
    <path d="M6.8 4C5.25 4 4 5.25 4 6.8v1C4 6.25 5.25 5 6.8 5h50.4C58.75 5 60 6.25 60 7.8v-1C60 5.25 58.75 4 57.2 4H6.8z" fill="#F9F5D7" opacity=".2"/>
</svg>
