<svg xmlns="http://www.w3.org/2000/svg" width="64" height="64" version="1">
    <path d="M54.01 7.24l-29.95 6.905C19.84 14.677 20 19 20 19v18.43a11 11 0 0 0-3-.43c-6.075 0-11 4.925-11 11s4.925 11 11 11a11 11 0 0 0 10.95-10H28V21.316l22-5.232V31.43a11 11 0 0 0-3-.43c-6.075 0-11 4.925-11 11s2.797 7.454 8.872 7.454a11 11 0 0 0 10.95-10h.05L58 14.4V11s.052-4.61-3.99-3.76z" opacity=".2"/>
    <path d="M54.01 6.24l-29.95 6.905C19.84 13.677 20 18 20 18v18.43a11 11 0 0 0-3-.43c-6.075 0-11 4.925-11 11s4.925 11 11 11a11 11 0 0 0 10.95-10H28V20.316l22-5.232V30.43a11 11 0 0 0-3-.43c-6.075 0-11 4.925-11 11s2.797 7.454 8.872 7.454a11 11 0 0 0 10.95-10h.05L58 29.13V10s.052-4.61-3.99-3.76z" fill="#D55C0D"/>
    <path d="M54.72 6.143a4.795 4.795 0 0 0-.708.097L24.06 13.145C19.839 13.677 20 18 20 18v1s-.161-4.323 4.06-4.855L54.013 7.24C58.053 6.39 58 11 58 11v-1s.045-4.052-3.28-3.857zM47 30c-6.075 0-11 4.925-11 11 0 .169.018.333.025.5C36.29 35.659 41.094 31 47 31c1.015.004 2.025.149 3 .43v-1a11 11 0 0 0-3-.43zm-30 6c-6.075 0-11 4.925-11 11 0 .169.018.333.025.5C6.29 41.659 11.094 37 17 37c1.015.004 2.025.149 3 .43v-1a11 11 0 0 0-3-.43z" opacity=".2" fill="#F9F5D7"/>
    <path d="M54.004 28.5a2.775 2.758 0 0 0-1.321.372 2.775 2.758 0 0 0-1.197 3.383 2.775 2.758 0 0 1 1.197-1.383 2.775 2.758 0 0 1 3.791 1.008 2.775 2.758 0 0 1 .18.382 2.775 2.758 0 0 0-.18-2.382 2.775 2.758 0 0 0-2.47-1.38zm7.942 2.739c-.737 6.144-7.268 13.97-8.841 14.906l-25.23 14.48a2.78 2.78 0 0 1-3.792-1.012l-9.715-16.715c-.072-.124-.121-.254-.172-.384a2.724 2.724 0 0 0 .172 2.384l9.713 16.722a2.778 2.778 0 0 0 3.792 1.008l25.23-14.48c1.75-1.043 9.633-10.614 8.841-16.906z" opacity=".2"/>
    <path d="M61.255 28.126c-3.466-5.972-17.552-4.19-20.65-2.474l-25.216 14.48a2.744 2.744 0 0 0-1.015 3.767l9.706 16.72a2.776 2.776 0 0 0 3.789 1.01l25.218-14.48c1.96-1.168 11.636-13.051 8.17-19.023zm-4.804 2.758a2.773 2.758 0 0 1-1.015 3.767 2.773 2.758 0 0 1-3.788-1.01 2.773 2.758 0 0 1 1.015-3.767 2.773 2.758 0 0 1 3.788 1.01z" fill="#8F3F71"/>
    <path d="M53.842 29.055a3 2.975 0 0 0-1.342.394 3 2.975 0 0 0-1.098 4.063 3 2.975 0 0 0 4.098 1.09 3 2.975 0 0 0 1.098-4.065 3 2.975 0 0 0-2.756-1.482zm.303.949a1.967 1.967 0 0 1 1.578 1.002 1.959 1.959 0 0 1-.729 2.717 1.959 1.959 0 0 1-2.717-.729 1.959 1.959 0 0 1 .729-2.717c.364-.21.758-.298 1.139-.273z" fill="#F9F5D7"/>
    <path d="M18.161 44.906l1.387 2.389 2.402-1.38 5.546 9.555 2.402-1.38-5.547-9.554 2.402-1.379-1.387-2.388-2.401 1.379-2.402 1.379-2.402 1.379zm9.607-5.516l1.387 2.388 1.387 2.389 1.386 2.389 2.773 4.777 2.402-1.38-2.773-4.777 2.401-1.379 2.774 4.778 2.401-1.38-6.933-11.942-4.803 2.758-2.402 1.379zm9.607-5.517l1.387 2.389 5.546 9.554 2.402-1.379 4.803-2.758-1.386-2.388-.694-1.195 1.201-.69-1.386-2.388-4.804 2.758 1.387 2.389 1.2-.69.694 1.195-2.402 1.379-4.16-7.166 4.804-2.758-1.387-2.389-7.205 4.137zM31.557 40.4l2.401-1.379 1.387 2.389-2.402 1.379-1.386-2.389z" opacity=".4" fill="#F9F5D7"/>
    <path d="M50.81 24.006c-4.345-.087-8.646.786-10.195 1.643L15.381 40.12A2.726 2.726 0 0 0 14.048 43c.14-.763.598-1.46 1.333-1.881l25.234-14.47c1.55-.857 5.85-1.73 10.195-1.644h.002c4.346.087 8.739 1.131 10.473 4.114.439.755.642 1.613.698 2.524.077-1.29-.102-2.498-.698-3.523-1.734-2.983-6.127-4.028-10.473-4.114h-.002z" opacity=".2" fill="#F9F5D7"/>
</svg>
