<svg xmlns="http://www.w3.org/2000/svg" width="64" height="64">
    <path d="M60 32a28 28 0 0 1-28 28A28 28 0 0 1 4 32 28 28 0 0 1 32 4a28 28 0 0 1 28 28z" fill="#F15C22"/>
    <path d="M59.982 32.508A28 28 0 0 1 32 60 28 28 0 0 1 4.025 32.52 28 28 0 0 0 4 33a28 28 0 0 0 28 28 28 28 0 0 0 28-28 28 28 0 0 0-.018-.492z" opacity=".2"/>
    <path d="M31.999 4A28.001 28 0 0 0 4 32a28.001 28 0 0 0 .018.492A28.001 28 0 0 1 31.999 5h.002a28.001 28 0 0 1 27.974 27.5A28.001 28 0 0 0 60 32 28.001 28 0 0 0 32.001 4h-.002z" opacity=".2" fill="#F9F5D7"/>
    <path d="M22 17v32h20v-8H30V17z" opacity=".2"/>
    <path d="M22 16v32h20v-8H30V16z" fill="#F9F5D7"/>
</svg>
