<svg xmlns="http://www.w3.org/2000/svg" width="64" height="64">
    <circle cx="32" cy="33" r="28" opacity=".2"/>
    <circle cx="32" cy="32" r="28" fill="#48B9C7"/>
    <path d="M32 4A28 28 0 0 0 4 32a28 28 0 0 0 .018.492A28 28 0 0 1 32 5a28 28 0 0 1 27.975 27.492A28 28 0 0 0 60 32 28 28 0 0 0 32 4z" opacity=".2" fill="#F9F5D7"/>
    <path d="M29.057 38.604c-1.716-.494-3.217-1.791-3.665-3.169-.556-1.706-.256-5.063.612-6.85.4-.822.586-1.537.586-1.59 0-.052-.752-.423-1.671-.823-3.066-1.336-6.545-6.355-6.887-9.96-.207-2.186.541-2.86 3.379-3.043 2.892-.187 6.909.467 10.895 2.5 1.773.905 3.306 1.962 3.406 1.86.082-.736.257-2.432.774-2.612.864-.302 1.43 1.381 2.194 1.866.104 0 1.117-1.401 2.25-3.114 2.181-3.293 5.369-6.779 7.278-7.957 2.36-1.458 4.562-.623 5.308 2.01.938 3.314.354 8.39-1.992 11.661l-.988 1.58 1.798 1.345C55.062 24.349 56 25.772 56 27.87c0 1.344-.227 2.107-1.005 3.382-2.88 4.718-7.398 4.92-11.607.517-.723-.756-1.8-2.074-1.956-2.074-.234 1.616.69 3.418.494 5.055-1.223-1.13-1.392-3.179-2.267-4.7-.144.038-.904 1.644-1.34 3.042-1.513 4.863-4.714 6.82-9.262 5.512z" opacity=".2"/>
    <path d="M29.057 37.604c-1.716-.494-3.217-1.791-3.665-3.169-.556-1.706-.256-5.063.612-6.85.4-.822.586-1.537.586-1.59 0-.052-.752-.423-1.671-.823-3.066-1.336-6.545-6.355-6.887-9.96-.207-2.186.541-2.86 3.379-3.043 2.892-.187 6.909.467 10.895 2.5 1.773.905 3.306 1.962 3.406 1.86.082-.736.257-2.432.774-2.612.864-.302 1.43 1.381 2.194 1.866.104 0 1.117-1.401 2.25-3.114 2.181-3.293 5.369-6.779 7.278-7.957 2.36-1.458 4.562-.623 5.308 2.01.938 3.314.354 8.39-1.992 11.661l-.988 1.58 1.798 1.345C55.062 23.349 56 24.772 56 26.87c0 1.344-.227 2.107-1.005 3.382-2.88 4.718-7.398 4.92-11.607.517-.723-.756-1.8-2.074-1.956-2.074-.234 1.616.69 3.418.494 5.055-1.223-1.13-1.392-3.179-2.267-4.7-.144.038-.904 1.644-1.34 3.042-1.513 4.863-4.714 6.82-9.262 5.512z" fill="#F9F5D7"/>
</svg>
