<svg xmlns="http://www.w3.org/2000/svg" width="64" height="64" version="1">
    <path d="M23.09 19.63c-.426-.009-.77 0-.77.04 0 .022.072.107.16.187.088.08.229.248.313.371a.82.82 0 0 1 .175.492c.012.152.002.301-.023.348-.095.18-.046.19 1.187.176.886-.01 1.189-.001 1.258.039.04.022.057.092.082.144.03-.53.065-1.116.078-1.324.01-.148-.001-.24-.008-.347a5.174 5.174 0 0 1-1.187-.04c-.334-.046-.84-.076-1.266-.085zm4.104.352c-.045.438-.1.961-.132 1.574-.017.291.001.753.047 1.27.006.079-.002.065.004.132.05-.706.111-1.57.132-1.59.016-.014.296-.044.625-.066.53-.035.753-.12.953-.285-.05-.014-.114-.062-.148-.062-.098 0-.149-.022-.149-.059 0-.052.487-.371.84-.574.058-.18-.026-.194-.766-.196-.862 0-1.324-.049-1.406-.144zm3.969 1.765c-.063-.004-.091.015-.121.051-.025.03-.075.286-.11.57-.138 1.137-.16 1.174-.753 1.371-.22.073-.456.158-.524.188-.1.044-.151.056-.234.09-.007.107.002.154-.012.297a7.66 7.66 0 0 1-.098.746c.014.004.078-.015.078-.004 0 .008-.062.079-.093.12a2.2 2.2 0 0 1-.238.587c-.112.21-.204.392-.204.406 0 .07.302-.02.801-.242.068-.03.304-.115.523-.188.594-.197.615-.235.754-1.37.035-.285.085-.541.11-.571.06-.073.117-.07.441.027.308.093.537.24.73.461 0-.06-.008-.052-.007-.125a9.97 9.97 0 0 1 .078-1.183l.023-.176c-.022-.014-.027-.012-.05-.027-.148-.097-.412-.266-.586-.375l-.32-.2.027-.195c.005-.04.02-.132.03-.199a1.606 1.606 0 0 0-.245-.059zm3.05.344c-.003.05-.009.103-.011.149-.058 1.033-.075 1.159-.196 1.515-.158.466-.224.732-.242.992-.026.377-.054.39-.367.172-.244-.17-.384-.183-.781-.059-.171.054-.263.068-.32.024l-.012.094a9.959 9.959 0 0 0-.078 1.183c-.004.82.003.826.41.7.397-.125.537-.113.78.058.314.218.342.205.368-.172.018-.26.084-.526.242-.992.121-.357.138-.483.195-1.516.025-.445.076-1.098.118-1.453.04-.354.07-.658.058-.675-.006-.01-.097-.014-.164-.02zm-4.804.203c-.357.2-.882.547-.882.602 0 .037.05.058.148.058.141 0 .464.146.613.266.049-.195.077-.445.121-.906v-.02zm8.163.047c.083.051.204.086.41.11.63.072.981.138.985.183.002.025.003.149 0 .277-.006.208.007.251.12.383.072.082.118.17.102.195-.02.034-.24.036-.792.012-.158-.007-.193-.004-.309-.008.082.014.084.003.2.024 1.214.217 2.747.269 2.917.098.058-.059.045-.111-.16-.528-.125-.253-.246-.47-.266-.484-.02-.012-.459-.039-.976-.063-.518-.023-1.06-.06-1.207-.082a31.89 31.89 0 0 0-.926-.105l-.098-.012zm-23.035.538a1.497 1.497 0 0 0-.762.168c-.444.228-1.43 1.331-1.898 2.12a8.386 8.386 0 0 0-1.14 3.504c-.024.237-.044 1.015-.044 1.73 0 .358.024.474.032.72.005-.124.005-.388.011-.45a8.387 8.387 0 0 1 1.14-3.503c.47-.79 1.455-1.894 1.9-2.121.49-.252 1.019-.225 1.558.074.17.094.329.192.351.219.023.026.264.226.535.445.584.472.73.628.953.992.193.315.555 1.028.672 1.328.014.035.018.181.031.238.143-.195.188-.311.18-.636-.014-.566-.12-1.368-.21-1.6a12.07 12.07 0 0 0-.673-1.33c-.222-.362-.369-.52-.952-.992a12.874 12.874 0 0 1-.536-.444c-.022-.028-.18-.124-.351-.22a1.832 1.832 0 0 0-.797-.242zm22.973.602c-.164.005-.225.022-.261.058-.078.079-.141.703-.078.766.1.1 1.074.274 1.796.332v-.004c-.003-.045-.354-.111-.984-.184-.548-.063-.6-.134-.492-.691.03-.154.052-.232.101-.277h-.082zm-10.432.55c-.064.187-.156.333-.293.39-.137.059-.896.113-1.031.075a.673.673 0 0 1-.164-.082c-.03-.02-.11-.025-.18-.035-.01.152-.026.43-.031.484a19.301 19.301 0 0 1-.242 1.402c-.02.087-.008.094.175.094.109 0 .233.023.278.055a.673.673 0 0 0 .164.082c.124.035.745-.018.953-.07.04-.075.105-.228.137-.282.079-.136.17-.2.289-.343.026-.182.027-.395-.024-.977-.028-.322-.026-.541-.031-.793zm8.347 1.414c-.335 1.287-.432 1.763-.36 1.852.143.174.807.329 1.867.433 1.021.1 2.425.257 2.441.274.03.027 1.468.017 1.496-.012.015-.015-.011-.091-.058-.168-.1-.163-.086-.266.066-.492a.682.682 0 0 0 .102-.2c0-.023.038-.081.086-.132.114-.124.069-.185-.141-.184-.095 0-.385-.025-.644-.058-.26-.034-.792-.082-1.184-.106-.728-.045-1.82-.242-1.926-.348-.045-.045-.016-.329.028-.542-.118-.012-.155-.02-.266-.032-.736-.072-1.195-.174-1.507-.285zm-13.046.203a3.299 3.299 0 0 1-.191.637c-.117.286-.183.377-.5.695-.384.386-.788.686-1.36 1.004-.482.268-1.941.984-2.003.984-.037 0-.076.021-.09.043-.011.018-.172.046-.262.078.027.243.077.4.082.617.01.414-.001.44-.289.797-.14.174-.149.178-.363.168-.248-.01-.28.014-.32.207-.025.118-.01.15.105.258.121.114.148.123.32.098.25-.037.696-.172.727-.223.014-.022.053-.043.09-.043.061 0 1.521-.716 2.004-.984.571-.318.975-.618 1.359-1.004.317-.318.383-.41.5-.695.178-.436.252-.833.281-1.512.021-.49.01-.62-.09-1.125zm24.458 1.375c-.033.082-.059.144-.106.285a3.757 3.757 0 0 1-.164.438c-.112.14-.865 2.418-1.11 3.355l-.273 1.047c-.059.228-.18.676-.27.996-.089.32-.178.649-.194.73-.017.081-.08.238-.141.352-.323.603-.922 1.98-1.601 3.675-.73 1.821-.868 2.138-1.184 2.699-.296.527-1.262 2.028-1.386 2.156a2.232 2.232 0 0 0-.188.254 9.072 9.072 0 0 1-.996 1.207 2.709 2.709 0 0 1-.972.648c-.32.136-.44.163-.493.11-.016-.017-.027-.167-.027-.34 0-.497-.08-.789-.422-1.582a29.498 29.498 0 0 1-.41-1.02c-.283-.747-.837-2.002-.972-2.203a2.804 2.804 0 0 1-.207-.394 7.318 7.318 0 0 0-.168-.371c-.256-.505-.995-2.394-1.356-3.469-.107-.32-.3-.832-.43-1.136a18.7 18.7 0 0 1-.44-1.184 25.392 25.392 0 0 0-.516-1.379c-.377-.917-.919-2.568-1.012-3.073a25.124 25.124 0 0 0-.012-.063c-.051.118-.136.745-.136 1.035 0 .167.017.385.039.48.021.096.071.342.109.547.093.506.635 2.156 1.012 3.074.169.412.4 1.032.515 1.379.114.347.313.88.442 1.183.128.305.322.817.43 1.137.36 1.075 1.099 2.964 1.355 3.469.04.08.115.245.167.37.053.126.146.304.207.395.136.2.69 1.455.973 2.203.112.297.297.757.41 1.02.342.793.421 1.085.422 1.581 0 .174.011.324.027.34.053.054.174.027.492-.11.431-.184.637-.322.973-.648.289-.28.78-.874.996-1.207a2.23 2.23 0 0 1 .187-.253c.125-.129 1.09-1.63 1.387-2.156.316-.561.454-.878 1.184-2.7.679-1.694 1.278-3.071 1.6-3.675.061-.113.125-.27.142-.351.016-.081.105-.41.195-.73.09-.32.21-.768.27-.997l.273-1.046c.244-.938.997-3.216 1.109-3.355a3.77 3.77 0 0 0 .164-.438c.072-.217.146-.414.164-.437.018-.023.074-.182.125-.352.051-.17.153-.44.227-.601.187-.412.282-.76.226-.828-.026-.032-.292-.05-.636-.067zm-17.448.031c0-.086-.489.046-.949.239l-.004.078.215.62c.008.024.02.049.027.071a3.91 3.91 0 0 1 .508-.742c.112-.127.203-.247.203-.266zm29.115 1.54c-.02.028-.021.026-.043.058-.434.63-.985 1.371-1.152 1.55-.129.139-.15.148-.312.122a7.34 7.34 0 0 1-.606-.157c-.577-.172-.913-.189-1.625-.078-.965.15-1.5.206-1.976.207-.617.002-.59-.03-.773.98-.079.434-.165.963-.192 1.176-.043.345-.044.393.016.453.009.01.253.013.265.02.107-.504.192-.627.684-.629.476-.001 1.01-.056 1.976-.207.712-.11 1.048-.094 1.625.078.237.07.51.14.605.157.164.026.184.017.313-.122.167-.18.718-.92 1.152-1.55.41-.597.453-.637.727-.664.204-.02.243-.008.503.152.155.095.288.162.301.149.028-.029-.193-.396-.418-.692-.255-.336-.785-.82-1.07-1.004zm-11.01 1.843c-.197.39-.365.671-.528.851-.225.25-.227.318-.015.48.268.208.43.413.507.606.087-.877.125-1.631.036-1.937zM4.046 31.815c-.062.51-.052 1.32.05 3.163.073 1.298.11 1.749.2 2.387.034.24.095.7.133 1.02.09.751.164 1.047.437 1.687.349.815.655 1.238 1.477 2.058.28.28.613.58.742.668.128.087.272.207.32.27.049.062.11.113.137.113.026 0 .077.052.113.117.082.145.92.528 1.777.812.756.25.978.301 1.899.438.718.107.863.116 1.808.105.632-.007 1.247-.04 1.601-.082 1.441-.174 2.716-.458 3.086-.687.234-.146 1.386-1.453 1.539-1.746a.397.397 0 0 1 .11-.133c.03-.018.054-.054.054-.078s.065-.118.144-.211c.168-.198.176-.261.055-.469-.113-.194-.126-.69-.023-.972.103-.286.724-1.501 1.03-2.016a1.83 1.83 0 0 0 .15-.277c0-.08-.188-.127-.407-.101-.126.015-.365.035-.531.046-.032.002-.04.009-.07.012-.043.092-.155.288-.172.336-.103.283-.09.778.023.973.121.207.113.27-.055.468-.079.094-.144.187-.144.211 0 .024-.024.06-.055.078a.397.397 0 0 0-.11.133c-.152.294-1.304 1.6-1.538 1.746-.37.23-1.645.513-3.086.688-.354.042-.969.075-1.601.082-.945.01-1.09 0-1.808-.106-.92-.137-1.143-.187-1.899-.437-.858-.285-1.695-.668-1.777-.813-.035-.068-.086-.12-.112-.12-.027 0-.089-.052-.137-.114a1.811 1.811 0 0 0-.32-.27c-.129-.086-.463-.388-.743-.668-.821-.82-1.127-1.242-1.476-2.057-.273-.64-.348-.936-.438-1.688-.038-.32-.098-.78-.132-1.02-.09-.638-.127-1.088-.2-2.386-.028-.52-.035-.788-.05-1.164zm23.658 2.68c-.1 0-.104.009-.266.589-.139.496-.172.698-.117.754.047.048 1.036.03 1.066-.02.032-.053-.132-.465-.363-.91-.197-.38-.225-.414-.32-.414zm28.059 1.315c-.19.03-.391.04-.813.055-.756.027-1.932.14-3.02.289a6.26 6.26 0 0 1-.358.043c-.04 0-.126.05-.196.113-.1.092-.147.194-.226.504-.135.525-.2 1.171-.125 1.246.039.04.3.063.933.09h.008c1.076-.146 2.237-.259 2.984-.285.932-.033.904-.024 1.668-.305.205-.075.22-.193.035-.242-.308-.08-.765-.722-.82-1.152-.026-.205-.045-.224-.07-.356zm-27.337 2.555c-.566-.008-1.147-.004-1.29.011-.388.04-.426.097-.624.813l-.227.808c-.12.426-.515 1.497-.62 1.68-.138.238-.49.587-.74.734a2.21 2.21 0 0 1-.987.266c-.14 0-.532-.057-.871-.125-.376-.076-.746-.125-.945-.125-.143 0-.211-.004-.278-.02-.137.707-.346 1.36-.484 1.477-.111.093-.08.152.183.351.25.19.253.192.579.192.199 0 .569.048.945.125.34.068.731.124.87.124.31 0 .733-.114.989-.265.249-.148.6-.496.738-.734.106-.184.501-1.254.621-1.68l.227-.808c.198-.717.236-.773.625-.813.142-.015.723-.019 1.289-.012l1.027.012.219.438c.199.396.552 1.199 1.042 2.367.101.24.242.527.313.64.07.113.129.223.129.242 0 .02.075.15.164.293.088.142.198.359.246.485.048.125.116.252.148.277.036.028.127.032.239.015.163-.025.236-.077.69-.527.995-.983 1.209-1.121 1.852-1.164.22-.014.402-.032.402-.043 0-.01-.51-1.03-.917-1.851-.34.12-.654.384-1.336 1.058-.455.45-.528.503-.691.528-.112.017-.203.012-.239-.016-.032-.025-.1-.152-.148-.277a3.417 3.417 0 0 0-.246-.485 1.956 1.956 0 0 1-.164-.292c0-.02-.058-.13-.13-.243a5.736 5.736 0 0 1-.312-.64c-.49-1.168-.843-1.97-1.042-2.367l-.22-.438-1.026-.011zm-6.672.297c-.052.08-.094.11-.14.187-.038.064-.143.238-.235.387l-.167.27.195.171c.17.15.195.188.195.332 0 .123-.037.211-.14.344-.094.119-.122.19-.094.218.023.024.176.058.34.079.034.004.04.013.074.02.028-.125.062-.226.086-.356.044-.242.118-.617.164-.832.098-.455.106-.68.027-.746-.028-.022-.166-.052-.306-.074zm35.649 1.734c-.027.108-.062.164-.086.289-.147.764-.3 1.16-.524 1.351-.328.28-1.057.516-1.593.516-.193 0-.593.02-.887.043-1.086.082-2.137.127-3.82.168-.95.022-1.857.049-2.015.058-.159.01-.334.008-.39-.004v-.004c-.18-.037-.755-.325-.954-.48-.282-.22-.428-.285-.691-.309-.315-.029-.412 0-.637.196-.038.033-.047.036-.074.058a4.687 4.687 0 0 0-.398 1.437c-.052.48-.035.574.109.63.149.056.156.056.363-.126.225-.196.322-.224.637-.195.263.024.409.089.691.309.2.154.773.443.953.48v.004c.057.012.232.014.39.004.159-.01 1.067-.036 2.016-.059 1.683-.04 2.734-.086 3.82-.168.294-.022.694-.042.887-.042.536 0 1.265-.235 1.593-.516.224-.191.377-.587.524-1.351.09-.47.194-.82.328-1.086.107-.214.555-.705.84-.922.14-.107.141-.107.066-.191-.073-.082-.122-.086-1.008-.086-.039 0-.098-.004-.14-.004z" opacity=".2"/>
    <path d="M37.76 45.974c-.016-.016-.028-.17-.028-.343 0-.496-.079-.788-.42-1.582-.114-.263-.298-.72-.41-1.018-.283-.747-.836-2-.971-2.201a2.805 2.805 0 0 1-.209-.395 7.367 7.367 0 0 0-.17-.374c-.255-.504-.992-2.393-1.352-3.468-.107-.32-.3-.83-.43-1.135a18.694 18.694 0 0 1-.442-1.184 25.353 25.353 0 0 0-.515-1.378c-.377-.918-.922-2.569-1.015-3.074a18.055 18.055 0 0 0-.108-.548 2.75 2.75 0 0 1-.04-.478c0-.3.092-.987.143-1.07.055-.09.138-.036.3.195.443.635.752.749 2.283.842.85.051 1.314.124 1.563.246.42.206.756.705 1.182 1.755.707 1.746.937 2.351 1.33 3.503.167.486.278.752.319.76.155.03.988-1.269 1.38-2.152.49-1.109 1.333-3.332 1.512-3.988.14-.51.61-1.217 1.386-2.084.23-.257.499-.53.596-.604.39-.3 1.384-.436 2.06-.28.148.034.596.074.997.088.523.019.743.042.774.08.057.07-.039.417-.226.829a5.69 5.69 0 0 0-.227.602c-.05.17-.107.329-.125.351a3.76 3.76 0 0 0-.164.437 3.602 3.602 0 0 1-.165.436c-.112.14-.866 2.42-1.11 3.358l-.272 1.045c-.06.229-.182.677-.271.997-.09.32-.177.648-.193.729-.017.081-.08.24-.14.353-.324.604-.923 1.98-1.603 3.674-.73 1.821-.868 2.138-1.184 2.699-.296.527-1.26 2.028-1.386 2.156a2.262 2.262 0 0 0-.187.255 9.065 9.065 0 0 1-.995 1.208 2.714 2.714 0 0 1-.974.648c-.319.136-.44.163-.493.11zm-6.045-1.858c-.034-.026-.098-.148-.148-.274a3.514 3.514 0 0 0-.248-.488 1.962 1.962 0 0 1-.162-.292c0-.019-.059-.127-.13-.24a5.768 5.768 0 0 1-.312-.641c-.49-1.168-.845-1.972-1.044-2.368l-.218-.436-1.028-.014a18.83 18.83 0 0 0-1.286.015c-.389.04-.43.092-.628.808-.091.332-.193.696-.225.81-.12.426-.516 1.496-.622 1.68-.138.238-.489.587-.738.735a2.201 2.201 0 0 1-.986.265c-.14 0-.532-.056-.871-.125a5.678 5.678 0 0 0-.945-.125c-.326 0-.33 0-.579-.19-.262-.2-.294-.261-.183-.354.145-.122.371-.824.507-1.57.044-.242.118-.616.164-.83.098-.456.106-.682.028-.748-.031-.026-.19-.064-.355-.085-.164-.02-.317-.057-.34-.08-.028-.028.003-.1.097-.218.104-.133.138-.217.138-.34 0-.144-.024-.186-.194-.336l-.195-.171.167-.27.237-.386c.251-.42.632-.937.75-1.02.122-.083.169-.092.347-.065.113.017.259.032.324.034.133.005.09.101.496-1.097.104-.308.261-.766.349-1.018.087-.25.226-.671.308-.934l.393-1.246c.134-.423.281-.91.327-1.08.046-.172.164-.499.262-.727.099-.229.297-.696.441-1.039.27-.64.95-2.03 1.23-2.512.172-.296.553-.749.63-.749.027 0 .073.04.102.088.075.12.217.092.747-.148.493-.224 1.069-.374 1.069-.28 0 .018-.092.137-.205.265-.295.334-.567.76-.64 1.005-.037.117-.075.4-.087.628l-.022.415.214.624c.235.684.516 1.305 1.116 2.471.47.911 1.296 2.585 1.435 2.908.189.436.69 1.435.887 1.767.11.184.245.424.301.534.12.234.546.651.792.778.31.16.399.25.463.468.106.36.086.447-.166.74-.124.143-.225.299-.225.344 0 .046.121.327.27.624a192.804 192.804 0 0 1 1.373 2.774c0 .01-.18.03-.4.044-.644.042-.86.177-1.854 1.16-.455.45-.526.505-.689.53-.111.017-.204.01-.24-.018zm-3.328-7.298c.032-.053-.133-.465-.364-.91-.196-.38-.224-.415-.32-.415-.1 0-.104.009-.266.589-.138.496-.17.698-.114.754.047.048 1.033.031 1.064-.018zm19.702 6.996c-.18-.037-.753-.327-.952-.482-.282-.22-.43-.286-.694-.31-.315-.029-.41 0-.635.197-.207.181-.214.184-.363.127-.144-.055-.16-.15-.109-.629.093-.854.342-1.571.71-2.044.102-.133.223-.339.268-.457.226-.596.554-2.258.75-3.81.069-.536.17-1.247.225-1.578.259-1.552.342-2.927.204-3.394-.062-.21-.246-.437-.542-.666-.212-.163-.21-.233.016-.482.286-.317.54-.797 1.057-2 .03-.07.113-.312.185-.54.191-.603.387-1.097.443-1.12.027-.01.218.065.424.166.655.322.838.351 2.229.351 1.223 0 2.513-.093 3.04-.218.348-.083 1.86-.067 2.293.025.442.093 1.472.418 1.76.555.243.116.895.72 1.177 1.092.225.295.448.663.42.691-.013.013-.148-.056-.303-.15-.26-.161-.297-.172-.501-.152-.274.027-.319.068-.73.665-.433.63-.983 1.371-1.15 1.55-.129.139-.15.147-.313.12a7.376 7.376 0 0 1-.607-.156c-.577-.172-.912-.188-1.623-.077-.966.15-1.5.207-1.976.208-.617.002-.59-.03-.774.98-.079.433-.165.961-.192 1.174-.044.345-.042.395.018.455.07.071.14.077 2.123.172.692.033.915.06 1.253.15.226.06.431.127.456.148.041.034.102.334.16.789.054.43.51 1.072.818 1.153.186.048.168.166-.037.241-.764.28-.732.275-1.664.308-.756.027-1.934.14-3.02.288-.159.022-.32.04-.36.04-.039.002-.127.054-.196.117-.101.09-.146.192-.226.502-.135.525-.2 1.17-.127 1.245.04.04.3.066.934.093 1.81.077 2.837.128 3.735.187.508.033 1.342.06 1.853.06.885 0 .932.004 1.005.086.076.084.075.087-.065.193-.285.217-.732.708-.839.921-.133.267-.24.616-.33 1.085-.146.764-.3 1.16-.523 1.351-.328.281-1.057.518-1.593.518-.193 0-.591.018-.885.04-1.086.082-2.139.129-3.822.17-.949.022-1.855.048-2.013.058-.158.01-.334.007-.39-.005zm-36.76-.268c-.92-.138-1.141-.187-1.897-.437-.858-.286-1.695-.668-1.776-.812-.037-.064-.088-.118-.115-.118-.026 0-.088-.05-.136-.114a1.75 1.75 0 0 0-.322-.27c-.128-.088-.462-.388-.741-.666-.822-.82-1.126-1.246-1.474-2.06-.274-.64-.35-.936-.44-1.688-.038-.322-.097-.78-.131-1.02-.09-.638-.129-1.092-.201-2.387-.11-1.97-.12-2.804-.043-3.304.037-.24.113-.764.17-1.162.056-.4.13-.906.165-1.122.035-.217.1-.638.144-.935.14-.952.304-1.639.502-2.102.1-.237.261-.618.356-.847.215-.514.78-1.876 1.353-2.707a7.185 7.185 0 0 1 1.231-1.337c.633-.547 1.579-1.168 2.073-1.412.474-.234 1.377-.602 2.104-.775.771-.183 1.72-.287 2.363-.269 1.352.038 1.499.031 2.228.183.51.106 1.025.25 1.481.503.738.41 1.406.966 1.961 1.602.381.436 1.246 1.726 1.493 2.225.1.202.223.498.275.658.051.16.137.397.19.528.054.13.155.523.225.872.119.588.126.678.104 1.196-.03.679-.103 1.077-.282 1.513-.117.286-.182.377-.5.695-.384.386-.788.683-1.36 1.001-.483.268-1.942.987-2.003.987-.037 0-.079.018-.093.04-.03.051-.473.19-.724.226-.172.025-.2.017-.322-.098-.115-.109-.129-.143-.104-.26.04-.194.073-.214.32-.204.215.01.225.004.365-.17.287-.358.296-.382.286-.796-.015-.566-.12-1.367-.21-1.601-.118-.3-.477-1.014-.67-1.33-.223-.364-.371-.518-.955-.99-.271-.218-.512-.42-.534-.446a2.51 2.51 0 0 0-.351-.22c-.539-.298-1.067-.322-1.557-.072-.445.227-1.434 1.33-1.902 2.12a8.387 8.387 0 0 0-1.14 3.504c-.024.237-.043 1.015-.043 1.73 0 1.671.043 1.914.474 2.681.1.18.184.344.184.364 0 .02.037.082.083.137.046.054.203.284.349.51.16.245.4.54.6.737.184.18.342.327.352.327.01 0 .144.111.3.246.324.282.707.479 1.295.664.692.219 1.023.257 2.277.266.98.008 1.178-.002 1.46-.07.18-.042.43-.094.555-.114.246-.04.415-.071.578-.104.056-.013.148-.022.204-.022a.44.44 0 0 0 .171-.038c.038-.02.205-.046.37-.057.167-.012.406-.033.532-.048.219-.026.407.02.407.101 0 .018-.066.144-.147.28-.307.514-.93 1.726-1.033 2.011-.103.283-.091.779.022.973.121.208.114.272-.054.47-.079.093-.144.19-.144.213 0 .024-.025.058-.055.077a.399.399 0 0 0-.108.133c-.153.294-1.305 1.6-1.54 1.746-.37.23-1.643.514-3.084.688-.355.042-.97.074-1.603.08-.945.012-1.09.003-1.808-.104zM39.372 27c-.016-.016-1.42-.174-2.441-.274-1.06-.105-1.725-.259-1.868-.433-.08-.098.006-.518.444-2.184.07-.263.165-.74.212-1.06.048-.32.124-.747.171-.951.06-.266.08-.456.065-.675-.016-.251-.009-.305.042-.305.034 0 .276.037.539.081.262.045.773.112 1.134.148.362.037.778.085.925.106.147.021.69.058 1.208.082.518.023.958.053.978.065.02.014.138.23.262.484.205.417.22.467.163.525-.17.171-1.705.121-2.92-.095-.76-.136-.72-.148-.795.241-.107.558-.058.626.49.69.63.072.984.138.987.183.002.025 0 .15-.003.279-.006.208.01.251.123.383.071.082.117.17.101.195-.02.034-.241.037-.794.014-.906-.04-1.073-.035-1.145.039-.078.078-.144.7-.08.762.105.106 1.196.304 1.924.349.392.024.926.07 1.186.104.26.033.55.06.644.06.21 0 .255.058.14.182-.047.051-.086.112-.086.136a.687.687 0 0 1-.102.196c-.152.226-.166.333-.067.496.047.077.074.152.059.167-.029.029-1.467.039-1.496.011zm-5.975-1.086c-.244-.17-.385-.181-.782-.057-.407.127-.411.12-.407-.7a9.94 9.94 0 0 1 .077-1.182l.074-.528-.134-.157a1.485 1.485 0 0 0-.74-.469c-.324-.097-.385-.101-.445-.028-.025.03-.073.286-.108.57-.139 1.137-.16 1.174-.752 1.371-.22.073-.455.157-.523.188-.5.222-.802.314-.802.244 0-.014.092-.196.204-.405.24-.453.263-.547.35-1.45.071-.737.053-.95-.091-1.082-.136-.124-.495-.28-.643-.28-.098 0-.149-.02-.149-.056 0-.06.624-.486.975-.665.25-.128.218-.038.442-1.252.177-.957.172-.935.22-.935.02 0 .185.138.367.307.181.169.46.385.62.481.16.096.31.198.333.227.03.038.025.155-.02.402-.034.192-.073.437-.087.544l-.025.196.318.199c.175.11.439.278.586.375.148.098.293.177.323.177.12 0 .26-.477.262-.898.002-.373.028-.38.56-.16.363.15.496.185.703.185.14 0 .263.016.273.032.01.017-.016.32-.056.675a29.865 29.865 0 0 0-.12 1.454c-.057 1.033-.073 1.156-.194 1.512-.159.466-.224.733-.242.993-.027.377-.054.39-.367.172zm-7.643-.422a.663.663 0 0 1-.163-.081.61.61 0 0 0-.278-.057c-.184 0-.196-.007-.176-.094.076-.338.222-1.176.244-1.402.015-.148.053-.737.085-1.308.033-.571.072-1.226.087-1.454.03-.48-.02-.74-.16-.82-.069-.04-.373-.05-1.258-.04-1.234.014-1.283.007-1.188-.173.026-.048.034-.199.022-.35a.794.794 0 0 0-.174-.491 2.54 2.54 0 0 0-.312-.37c-.088-.08-.16-.165-.16-.188 0-.08 1.367-.05 2.035.044.619.087.779.087 1.684.007.4-.036.818-.142.865-.22.014-.021.058-.038.099-.038.06 0 .08.045.102.223.017.123.05.254.077.291.071.098.542.147 1.417.149.832.001.846.007.746.262-.029.073-.15.256-.27.406-.317.398-.46.458-1.204.508-.33.023-.612.052-.628.067-.03.025-.139 1.334-.184 2.185-.016.291.002.752.047 1.268.055.627.06.866.027 1.052-.052.283-.173.473-.35.547-.137.058-.897.113-1.031.075z" fill="#F9F5D7"/>
</svg>
