<svg xmlns="http://www.w3.org/2000/svg" width="64" height="64" version="1">
    <path d="M40.382 7.086a1.331 1.331 0 0 0-1.822.488l-1.813 3.139A24 24 0 0 0 10.215 22 24 24 0 0 0 19 54.785 24 24 0 0 0 51.783 46a24 24 0 0 0-3.492-28.616l1.815-3.144a1.33 1.33 0 0 0-.488-1.821l-9.237-5.334z" opacity=".2"/>
    <rect width="4" height="12" x="41.35" y="-21.79" rx=".525" ry=".534" transform="rotate(30)" fill="#E6D3A3"/>
    <path d="M40.382 6.085a1.331 1.331 0 0 0-1.822.488l-1.813 3.14A24 24 0 0 0 10.215 21 24 24 0 0 0 19 53.784 24 24 0 0 0 51.783 45a24 24 0 0 0-3.492-28.616l1.815-3.144a1.33 1.33 0 0 0-.488-1.821l-9.237-5.333z" fill="#504945"/>
    <path d="M28.973 16c-.354-.003-.676.01-.957.035-2.65.235-6.106 2.596-9.035 6.175-2.832 3.461-3.65 6.226-2.442 8.262 1.36 2.293 2.936 3.597 5.133 4.254 1.88.562 2.44.903 4.05 2.461 2.599 2.515 3.494 2.797 8.957 2.813 2.308.007 5.087-.088 6.176-.207 1.61-.177 2.29-.383 3.621-1.11 3.529-1.929 4.098-3.24 3.058-7.02-.324-1.178-.853-3.669-1.175-5.535-.322-1.866-.727-3.682-.903-4.035-.78-1.571-3.294-3.083-7.624-4.59-2.374-.825-6.385-1.486-8.86-1.503zm-1.536 8c2.1.088 2.574 1.929 2.563 3.503 0 2.224-.32 3.084-1.469 3.934-.858.635-2.955.766-3.582.223-.655-.568-.949-1.63-.949-3.434C24 25.51 25.227 24 27.437 24zm10.652 0h.004c.518-.01 1.072.155 1.735.488.685.344 1.455.9 1.71 1.234.611.796.614 2.587.012 4.582-.91 3.01-2.72 4.225-5.21 3.485-.959-.285-2.09-1.635-2.293-2.743-.33-1.788 1.136-5.577 2.515-6.503.526-.354 1.01-.534 1.527-.543zM20.551 36c-.841-.005-1.735.274-2.594.843-1.052.698-3.107 3.123-3.652 4.317-1.032 2.258.681 5.748 3.254 6.62.905.308.919.306 1.738-.089.974-.47 1.452-1.1 3.14-4.156 1.141-2.064 1.445-2.837 1.528-3.887.093-1.189.032-1.398-.629-2.25-.714-.92-1.704-1.392-2.785-1.398zm8.32 6c-1.941 0-3.32 1.22-4.219 3.722-.778 2.17-.866 4.011-.222 4.656 1.122 1.124 5.279 2.032 6.546 1.43.53-.251.694-.625.946-2.148.24-1.459-.095-4.716-.614-5.973-.463-1.12-1.282-1.687-2.437-1.687zm9.11 0a7.774 7.774 0 0 0-.618.027c-1.438.11-2.216.599-2.91 1.832-.463.822-.506 1.123-.41 2.789.119 2.078.439 3.142 1 3.297.602.166 3.31-.078 4.5-.406 1.462-.404 2.456-1.2 2.456-1.957 0-.81-2.104-4.654-2.847-5.2-.373-.273-.65-.378-1.172-.382z" opacity=".2"/>
    <path d="M28.973 15c-.354-.003-.676.01-.957.035-2.65.235-6.106 2.596-9.035 6.175-2.832 3.461-3.65 6.226-2.442 8.262 1.36 2.293 2.936 3.597 5.133 4.254 1.88.562 2.44.903 4.05 2.461 2.599 2.515 3.494 2.797 8.957 2.813 2.308.007 5.087-.088 6.176-.207 1.61-.177 2.29-.383 3.621-1.11 3.529-1.929 4.098-3.24 3.058-7.02-.324-1.178-.853-3.669-1.175-5.535-.322-1.866-.727-3.682-.903-4.035-.78-1.571-3.294-3.083-7.624-4.59-2.374-.825-6.385-1.486-8.86-1.503zm-1.536 8c2.1.088 2.574 1.929 2.563 3.503 0 2.224-.32 3.084-1.469 3.934-.858.635-2.955.766-3.582.223-.655-.568-.949-1.63-.949-3.434C24 24.51 25.227 23 27.437 23zm10.652 0h.004c.518-.01 1.072.155 1.735.488.685.344 1.455.9 1.71 1.234.611.796.614 2.587.012 4.582-.91 3.01-2.72 4.225-5.21 3.485-.959-.285-2.09-1.635-2.293-2.743-.33-1.788 1.136-5.577 2.515-6.503.526-.354 1.01-.534 1.527-.543zM20.551 35c-.841-.005-1.735.274-2.594.843-1.052.698-3.107 3.123-3.652 4.317-1.032 2.258.681 5.748 3.254 6.62.905.308.919.306 1.738-.089.974-.47 1.452-1.1 3.14-4.156 1.141-2.064 1.445-2.837 1.528-3.887.093-1.189.032-1.398-.629-2.25-.714-.92-1.704-1.392-2.785-1.398zm8.32 6c-1.941 0-3.32 1.22-4.219 3.722-.778 2.17-.866 4.011-.222 4.656 1.122 1.124 5.279 2.032 6.546 1.43.53-.251.694-.625.946-2.148.24-1.459-.095-4.716-.614-5.973-.463-1.12-1.282-1.687-2.437-1.687zm9.11 0a7.774 7.774 0 0 0-.618.027c-1.438.11-2.216.599-2.91 1.832-.463.822-.506 1.123-.41 2.789.119 2.078.439 3.142 1 3.297.602.166 3.31-.078 4.5-.406 1.462-.404 2.456-1.2 2.456-1.957 0-.81-2.104-4.654-2.847-5.2-.373-.273-.65-.378-1.172-.382z" fill="#BDAD93"/>
    <path d="M28.973 15c-.354-.002-.676.01-.957.035-2.65.236-6.106 2.596-9.036 6.176-2.163 2.644-3.14 4.878-2.947 6.695.184-1.618 1.166-3.518 2.947-5.695 2.93-3.58 6.386-5.94 9.036-6.176.281-.025.603-.037.957-.035 2.474.018 6.486.678 8.859 1.504 4.33 1.506 6.844 3.018 7.625 4.59.176.353.58 2.169.902 4.035.322 1.866.852 4.356 1.176 5.535.232.844.37 1.55.426 2.182.088-.85-.062-1.86-.426-3.182-.324-1.179-.854-3.67-1.176-5.535-.322-1.866-.726-3.682-.902-4.035-.781-1.572-3.295-3.084-7.625-4.59-2.373-.826-6.385-1.486-8.86-1.504zm1.007 11.934c-.047 1.875-.386 2.717-1.449 3.503-.858.635-2.954.766-3.582.223-.58-.502-.863-1.426-.924-2.875-.008.148-.025.286-.025.442 0 1.803.294 2.866.95 3.433.627.543 2.723.412 3.581-.223 1.149-.85 1.469-1.71 1.469-3.933a7.015 7.015 0 0 0-.02-.57zm11.997.187a10.41 10.41 0 0 1-.426 2.184c-.91 3.01-2.72 4.224-5.211 3.484-.958-.285-2.09-1.635-2.293-2.742-.005-.024 0-.057-.004-.082-.04.399-.052.776.004 1.082.204 1.107 1.335 2.457 2.293 2.742 2.49.74 4.3-.474 5.21-3.484.36-1.192.5-2.306.427-3.184zM20.55 35c-.841-.005-1.735.275-2.594.844-1.052.697-3.107 3.123-3.652 4.316-.276.603-.35 1.293-.27 1.998.043-.349.127-.686.27-.998.545-1.193 2.6-3.619 3.652-4.316.859-.57 1.753-.849 2.594-.844 1.081.006 2.071.479 2.785 1.398.41.53.575.828.629 1.25.093-1.188.032-1.398-.63-2.25-.713-.92-1.703-1.392-2.784-1.398zm8.32 6c-1.941 0-3.32 1.22-4.219 3.723-.517 1.441-.721 2.727-.617 3.625.069-.761.27-1.656.617-2.625C25.551 43.22 26.93 42 28.872 42c1.154 0 1.974.567 2.437 1.688.37.897.637 2.801.677 4.355.092-1.617-.222-4.254-.677-5.355C30.846 41.566 30.026 41 28.87 41zm9.11 0a7.775 7.775 0 0 0-.618.027c-1.438.11-2.216.6-2.91 1.832-.412.732-.483 1.104-.428 2.34.038-.518.153-.85.428-1.34.694-1.233 1.472-1.722 2.91-1.832.241-.018.443-.028.617-.027.523.004.8.11 1.172.383.636.467 2.258 3.334 2.717 4.664.079-.154.131-.31.131-.465 0-.81-2.105-4.653-2.848-5.2-.372-.273-.65-.378-1.172-.382z" fill="#F9F5D7" opacity=".2"/>
    <path d="M39.879 5.916a1.33 1.33 0 0 0-1.318.656l-1.813 3.14A24 24 0 0 0 10.215 21a24 24 0 0 0-3.19 12.168A24 24 0 0 1 10.215 22a24 24 0 0 1 26.533-11.287l1.813-3.139a1.33 1.33 0 0 1 1.82-.488l9.236 5.334c.272.157.45.402.557.672.26-.612.035-1.33-.557-1.672l-9.236-5.334v-.002a1.33 1.33 0 0 0-.502-.168zm8.76 10.865l-.348.604a24 24 0 0 1 6.672 16.449 24 24 0 0 0-6.324-17.053z" fill="#F9F5D7" opacity=".1"/>
</svg>
