<svg xmlns="http://www.w3.org/2000/svg" width="64" height="64">
    <path d="M31.463 4A2.5 2.497 0 0 0 29 6.532v52.935a2.5 2.497 0 1 0 5 0V6.532A2.5 2.497 0 0 0 31.462 4z" opacity=".2" fill-rule="evenodd"/>
    <path d="M25.057 8.955l.29.008s-3.956-.295-8.302 1.147c-2.173.72-4.622 1.923-6.656 4.164C8.355 16.514 7 19.848 7 23.455c0 3.608 1.355 6.939 3.385 9.182 2.03 2.243 4.473 3.452 6.644 4.18 4.342 1.455 8.301 1.174 8.301 1.174l-.242.006 6.906-.042a5.5 5.5 0 0 0 .022 0 5.5 5.5 0 0 0 .056 0l6.905-.04a5.5 5.5 0 0 0 .406-.018s2.181-.076 3.976.57c.898.323 1.52.742 1.899 1.211.378.47.742 1.057.742 2.777 0 .975-.102.913-.344 1.153-.241.24-.928.654-1.91.928-1.963.546-4.361.437-4.361.437a5.5 5.5 0 0 0-.442-.018H18.15a5.5 5.5 0 1 0 0 11h20.793l-.44-.017s3.88.395 8.194-.807c2.158-.6 4.61-1.624 6.723-3.728 2.113-2.104 3.58-5.418 3.58-8.948 0-3.803-1.206-7.234-3.182-9.683-1.975-2.45-4.493-3.848-6.734-4.654-4.483-1.613-8.58-1.186-8.58-1.186l.408-.018-6.906.041a5.5 5.5 0 0 0-.022 0 5.5 5.5 0 0 0-.056 0l-6.905.042a5.5 5.5 0 0 0-.24.007s-2.322.03-4.258-.619c-.968-.324-1.662-.77-1.986-1.129-.324-.358-.539-.574-.539-1.8 0-1.227.215-1.435.535-1.788.32-.352 1.009-.796 1.975-1.117 1.932-.641 4.254-.603 4.254-.603a5.5 5.5 0 0 0 .293.007H45.5a5.5 5.5 0 1 0 0-11H25.057z" opacity=".2"/>
    <path d="M32.04 31.5l6.904-.041S51.5 30.452 51.5 41.5c0 9.008-12.556 8-12.556 8H18.151m13.81-18l-6.905.041S12.5 32.167 12.5 22.5s12.556-9 12.556-9H45.5" fill="none" stroke="#FD8019" stroke-width="11" stroke-linecap="round" stroke-linejoin="round"/>
    <path d="M24.662 7.984c-1.317-.015-4.358.089-7.617 1.17-2.173.721-4.622 1.923-6.656 4.164C8.355 15.56 7 18.893 7 22.5c0 .16.016.317.021.477.115-3.422 1.424-6.563 3.368-8.704 2.034-2.24 4.483-3.443 6.656-4.164 3.983-1.322 7.492-1.186 8.074-1.154H45.5a5.5 5.5 0 0 1 5.553 5.05A5.5 5.5 0 0 0 45.5 8H25.12c-.107-.006-.165-.012-.458-.016zM18.025 22.98c-.01.148-.025.28-.025.476 0 1.226.215 1.443.54 1.8.323.36 1.017.805 1.985 1.13 1.936.649 4.258.619 4.258.619a5.5 5.5 0 0 1 .24-.008l6.905-.04a5.5 5.5 0 0 1 .056 0 5.5 5.5 0 0 1 .022 0l6.79-.042c.723-.055 4.267-.243 8.288 1.203 2.241.807 4.759 2.205 6.734 4.654 1.883 2.334 3.053 5.563 3.16 9.153.005-.142.022-.282.022-.424 0-3.804-1.206-7.235-3.182-9.684-1.975-2.449-4.493-3.847-6.734-4.654-4.021-1.447-7.565-1.259-8.287-1.203L32.006 26a5.5 5.5 0 0 0-.022 0 5.5 5.5 0 0 0-.056 0l-6.905.041a5.5 5.5 0 0 0-.24.008s-2.322.03-4.258-.62c-.968-.324-1.662-.77-1.986-1.128-.272-.301-.458-.54-.514-1.322zm27.954 19.09c-.042.389-.144.405-.323.583-.241.24-.928.655-1.91.928-1.963.547-4.361.438-4.361.438a5.5 5.5 0 0 0-.442-.018H18.15a5.5 5.5 0 0 0-5.552 5.95 5.5 5.5 0 0 1 5.552-4.995h20.793a5.5 5.5 0 0 1 .442.018s2.398.109 4.361-.438c.982-.273 1.669-.687 1.91-.928.242-.24.344-.178.344-1.152 0-.152-.016-.252-.021-.387z" opacity=".1" fill="#F9F5D7"/>
    <path d="M31.463 3A2.5 2.497 0 0 0 29 5.533V26h5V5.533A2.5 2.497 0 0 0 31.463 3zM29 37v21.467a2.5 2.497 0 1 0 5 0V37h-5z" fill="#FECE4F" fill-rule="evenodd"/>
    <path d="M31.463 3A2.5 2.497 0 0 0 29 5.533v1A2.5 2.497 0 0 1 31.463 4 2.5 2.497 0 0 1 34 6.533v-1A2.5 2.497 0 0 0 31.463 3z" opacity=".2" fill="#F9F5D7" fill-rule="evenodd"/>
    <path opacity=".2" d="M29 37h5v1h-5z"/>
</svg>
