<svg xmlns="http://www.w3.org/2000/svg" width="64" height="64" version="1">
    <path d="M4.05 32c-.011.334-.05.662-.05 1 0 15.512 12.488 28 28 28 15.511 0 28-12.488 28-28 0-.337-.04-.665-.052-1-.528 15.042-12.775 27-27.95 27C16.826 59 4.579 47.042 4.05 32z" opacity=".2"/>
    <rect width="56" height="56" x="4" y="4" rx="28" ry="28" fill="#7CB668"/>
    <circle cx="32" cy="42" r="10" fill="#3A393A"/>
    <circle cx="32" cy="30" r="18" fill="#3A393A"/>
    <path d="M18.212 31.212a9.753 9.753 0 0 1 8.93 2.647 9.752 9.752 0 0 1 2.646 8.93 9.753 9.753 0 0 1-8.93-2.647 9.755 9.755 0 0 1-2.646-8.93z" opacity=".2"/>
    <path d="M18.212 30.212a9.753 9.753 0 0 1 8.93 2.647 9.752 9.752 0 0 1 2.646 8.93 9.753 9.753 0 0 1-8.93-2.647 9.755 9.755 0 0 1-2.646-8.93z" fill="#BE4C1D"/>
    <path d="M45.787 31.212a9.753 9.753 0 0 0-8.93 2.647 9.752 9.752 0 0 0-2.646 8.93 9.753 9.753 0 0 0 8.93-2.647 9.753 9.753 0 0 0 2.646-8.93z" opacity=".2"/>
    <path d="M45.787 30.212a9.753 9.753 0 0 0-8.93 2.647 9.752 9.752 0 0 0-2.646 8.93 9.753 9.753 0 0 0 8.93-2.647 9.753 9.753 0 0 0 2.646-8.93z" fill="#BE4C1D"/>
    <path d="M32 4C16.488 4 4 16.488 4 32c0 .114.011.224.018.336C4.369 17.134 16.71 5 32 5c15.29 0 27.63 12.134 27.982 27.336.007-.112.018-.222.018-.336C60 16.488 47.512 4 32 4z" opacity=".2" fill="#F9F5D7"/>
</svg>
