<svg xmlns="http://www.w3.org/2000/svg" width="64" height="64">
    <g transform="translate(0 -1058.52)">
        <circle cx="32" cy="1091.52" r="29" opacity=".2"/>
        <circle cx="32" cy="1090.52" r="29" fill="#7CB668"/>
        <path d="M34.558 1086.42l-5.023 2.9 15.95 27.627 5.411 3.573-.388-6.473z" opacity=".1"/>
        <path d="M34.558 1085.42l-5.023 2.9 15.95 27.627 5.411 3.573-.388-6.473z" fill="#F9F5D7"/>
        <path d="M29.488 1086.422l-15.949 27.625-.39 6.473 5.414-3.574 2.898-5.02A22.99 22.99 0 0 0 32 1114.52c12.703 0 23-10.298 23-23-.01-.334-.027-.667-.05-1h-5.985c.021.333.033.666.035 1 0 9.389-7.611 17-17 17-2.65 0-5.213-.656-7.531-1.809l10.043-17.39z" opacity=".2"/>
        <path d="M29.489 1085.42l5.022 2.9-15.95 27.627-5.411 3.573.389-6.473z" fill="#F9F5D7"/>
        <path d="M29 1072.52v6h-3c-3 0-3 2.883-3 2.883v11.936l6 5.895c1.993 1.582 4.151 1.841 6 0l6-5.895v-11.936c0-2.947-3-2.883-3-2.883h-3v-6z" opacity=".1"/>
        <path d="M29 1071.52v6h-3c-3 0-3 2.883-3 2.883v11.936l6 5.895c1.993 1.583 4.151 1.841 6 0l6-5.894v-11.937c0-2.947-3-2.883-3-2.883h-3v-6z" fill="#504945"/>
        <circle cx="32" cy="1087.52" r="3" opacity=".2"/>
        <circle cx="32" cy="1086.52" r="3" fill="#F9F5D7"/>
        <path d="M48.965 1089.52c.021.333.033.666.035 1 0 9.389-7.611 17-17 17-3.226 0-6.344-.925-9.017-2.604-1.484-.932-.831-.024-1.983-1.396l-2 5.945a23 23 0 0 0 13 4.055c12.703 0 23-10.298 23-23-.01-.334-.027-.667-.05-1z" fill="#F9F5D7"/>
        <path d="M32 1061.52a29 29 0 0 0-29 29 29 29 0 0 0 .018.488A29 29 0 0 1 32 1062.52a29 29 0 0 1 28.975 28.494 29 29 0 0 0 .025-.494 29 29 0 0 0-29-29z" opacity=".2" fill="#F9F5D7"/>
    </g>
</svg>
