<svg xmlns="http://www.w3.org/2000/svg" width="64" height="64">
    <path d="M33.07 5.02a28 28 0 0 0-8.316.934 28 28 0 0 0-19.8 34.292 28 28 0 0 0 34.292 19.8 28 28 0 0 0 19.8-34.292A28 28 0 0 0 33.07 5.02z" opacity=".2"/>
    <path d="M33.07 4.02a28 28 0 0 0-8.316.933 28 28 0 0 0-19.8 34.293 28 28 0 0 0 34.292 19.8 28 28 0 0 0 19.8-34.292A28 28 0 0 0 33.07 4.02z" fill="#F9BD2E"/>
    <circle cx="22.369" cy="40.157" r="24" transform="rotate(-15)" opacity=".1"/>
    <circle cx="22.627" cy="39.192" r="24" transform="rotate(-15)" fill="#3A393A"/>
    <path d="M40.14 16.002a6.786 6.786 0 0 0-3.794 1.276c-1.272.928-2.173 2.264-3.164 3.488-.496.612-1.023 1.204-1.631 1.703-.609.5-1.289 1.01-2.063 1.112-1.561.206-3.187-.59-4.6-1.083-1.468-.562-2.915-1.268-4.478-1.433-2.157-.228-4.402.67-5.81 2.326-1.41 1.656-1.943 4.522-1.381 6.625.561 2.103 2.201 3.885 4.246 4.611 2.044.727 4.435.377 6.19-.904 1.27-.928 2.172-2.264 3.163-3.488 1.06-1.32 2.174-2.619 3.694-3.215.726-.285 1.564-.202 2.34-.074.775.127 1.525.377 2.26.658 1.468.562 2.915 1.266 4.478 1.432 2.157.228 4.402-.669 5.81-2.325 1.41-1.655 1.943-3.623 1.381-5.726-.561-2.104-2.201-3.885-4.246-4.612a6.616 6.616 0 0 0-2.394-.37zm.815 15a4.978 4.978 0 0 0-2.789.94c-.935.684-1.599 1.668-2.328 2.57-.365.451-.752.888-1.2 1.256-.447.368-.957.668-1.515.818-.558.15-1.148.147-1.719.053-.57-.094-1.124-.275-1.664-.482-1.08-.415-2.141-.935-3.29-1.057a5.008 5.008 0 0 0-4.272 1.713 5.081 5.081 0 0 0-1.016 4.514c.413 1.55 1.618 2.863 3.121 3.398a5 5 0 0 0 4.551-.666c.935-.684 1.599-1.668 2.328-2.57.365-.451.752-.888 1.2-1.256.447-.368.957-.668 1.515-.819.558-.15 1.148-.146 1.719-.052.57.094 1.124.275 1.664.482 1.08.415 2.141.935 3.29 1.057a5.008 5.008 0 0 0 4.272-1.713 5.081 5.081 0 0 0 1.016-4.514c-.413-1.55-1.618-2.863-3.121-3.398a4.86 4.86 0 0 0-1.762-.274zM30.271 46.006a3.444 3.444 0 0 0-.677.112 3.543 3.543 0 0 0-2.127 1.63 3.546 3.546 0 0 0-.35 2.659 3.543 3.543 0 0 0 1.631 2.127 3.546 3.546 0 0 0 2.658.35 3.543 3.543 0 0 0 2.127-1.632 3.546 3.546 0 0 0 .35-2.658 3.543 3.543 0 0 0-1.631-2.127 3.548 3.548 0 0 0-1.98-.46z" opacity=".2"/>
    <path d="M40.14 15.002a6.786 6.786 0 0 0-3.794 1.275c-1.272.928-2.173 2.264-3.164 3.489-.496.612-1.023 1.203-1.631 1.703-.609.5-1.289 1.009-2.063 1.111-1.561.206-3.187-.589-4.6-1.082-1.468-.562-2.915-1.268-4.478-1.434-2.157-.228-4.402.671-5.81 2.327-1.41 1.655-1.943 4.521-1.381 6.625.561 2.103 2.201 3.884 4.246 4.611 2.044.727 4.435.376 6.19-.904 1.27-.928 2.172-2.264 3.163-3.489 1.06-1.32 2.174-2.618 3.694-3.214.726-.285 1.564-.202 2.34-.075.775.128 1.525.377 2.26.659 1.468.562 2.915 1.266 4.478 1.431 2.157.228 4.402-.668 5.81-2.324 1.41-1.656 1.943-3.623 1.381-5.727-.561-2.103-2.201-3.884-4.246-4.611a6.616 6.616 0 0 0-2.394-.371zm.815 15a4.978 4.978 0 0 0-2.789.94c-.935.683-1.599 1.668-2.328 2.57-.365.45-.752.887-1.2 1.256-.447.368-.957.667-1.515.818-.558.15-1.148.146-1.719.053-.57-.094-1.124-.276-1.664-.483-1.08-.414-2.141-.934-3.29-1.056a5.008 5.008 0 0 0-4.272 1.712 5.081 5.081 0 0 0-1.016 4.514c.413 1.55 1.618 2.863 3.121 3.399a5 5 0 0 0 4.551-.666c.935-.684 1.599-1.669 2.328-2.57.365-.452.752-.888 1.2-1.257.447-.368.957-.667 1.515-.818.558-.15 1.148-.146 1.719-.053.57.094 1.124.276 1.664.483 1.08.414 2.141.934 3.29 1.056a5.008 5.008 0 0 0 4.272-1.712 5.081 5.081 0 0 0 1.016-4.514c-.413-1.55-1.618-2.863-3.121-3.399a4.86 4.86 0 0 0-1.762-.273zM30.271 45.006a3.444 3.444 0 0 0-.677.111 3.543 3.543 0 0 0-2.127 1.631 3.546 3.546 0 0 0-.35 2.658 3.543 3.543 0 0 0 1.631 2.127 3.546 3.546 0 0 0 2.658.35 3.543 3.543 0 0 0 2.127-1.631 3.546 3.546 0 0 0 .35-2.658 3.543 3.543 0 0 0-1.631-2.127 3.548 3.548 0 0 0-1.98-.461z" fill="#F9BD2E"/>
    <path d="M32 4A28 28 0 0 0 4 32a28 28 0 0 0 .021.586A28 28 0 0 1 32 5a28 28 0 0 1 27.979 27.414A28 28 0 0 0 60 32 28 28 0 0 0 32 4z" opacity=".2" fill="#F9F5D7"/>
    <path d="M40.14 15.002a6.786 6.786 0 0 0-3.794 1.275c-1.272.928-2.173 2.264-3.164 3.489-.496.612-1.023 1.203-1.631 1.703-.609.5-1.289 1.009-2.063 1.111-1.561.206-3.187-.589-4.6-1.082-1.468-.562-2.915-1.268-4.478-1.434-2.157-.228-4.402.671-5.81 2.327-1.134 1.332-1.69 3.444-1.575 5.316.1-1.588.64-3.218 1.575-4.316 1.408-1.656 3.653-2.555 5.81-2.327 1.563.166 3.01.872 4.479 1.434 1.412.493 3.038 1.288 4.6 1.082.773-.102 1.453-.612 2.062-1.111.608-.5 1.135-1.091 1.63-1.703.992-1.225 1.893-2.56 3.165-3.489a6.786 6.786 0 0 1 3.795-1.275 6.616 6.616 0 0 1 2.394.371c2.045.727 3.685 2.508 4.246 4.611.105.391.16.776.19 1.157a6.146 6.146 0 0 0-.19-2.157c-.561-2.103-2.201-3.884-4.246-4.611a6.616 6.616 0 0 0-2.394-.371zm.815 15a4.978 4.978 0 0 0-2.789.94c-.935.683-1.599 1.668-2.328 2.57-.365.45-.752.887-1.2 1.256-.447.368-.957.667-1.515.818-.558.15-1.148.146-1.719.053-.57-.094-1.124-.276-1.664-.483-1.08-.414-2.141-.934-3.29-1.056a5.008 5.008 0 0 0-4.272 1.712c-.863 1.016-1.27 2.394-1.147 3.721a5.05 5.05 0 0 1 1.147-2.72 5.008 5.008 0 0 1 4.271-1.713c1.15.122 2.211.642 3.291 1.056.54.207 1.094.389 1.664.483.57.093 1.16.097 1.719-.053.558-.15 1.068-.45 1.516-.818.447-.369.834-.805 1.199-1.256.73-.902 1.393-1.887 2.328-2.57a4.978 4.978 0 0 1 2.79-.94 4.86 4.86 0 0 1 1.76.273c1.504.536 2.71 1.849 3.122 3.399.069.26.106.526.13.793.065-.6.025-1.21-.13-1.793-.413-1.55-1.618-2.863-3.121-3.399a4.86 4.86 0 0 0-1.762-.273zM30.271 45.006a3.444 3.444 0 0 0-.677.111 3.543 3.543 0 0 0-2.127 1.631 3.535 3.535 0 0 0-.42 2.225 3.5 3.5 0 0 1 .42-1.225 3.543 3.543 0 0 1 2.127-1.63c.221-.06.449-.098.677-.112a3.548 3.548 0 0 1 1.981.46 3.543 3.543 0 0 1 1.63 2.128c.039.141.052.288.071.433a3.511 3.511 0 0 0-.07-1.433 3.543 3.543 0 0 0-1.631-2.127 3.548 3.548 0 0 0-1.98-.461z" fill="#F9F5D7" opacity=".2"/>
</svg>
