<svg xmlns="http://www.w3.org/2000/svg" width="64" height="64">
    <path d="M31.232 6.951a3.987 3.987 0 0 0-3.41 1.573 3.99 3.99 0 0 0 .758 5.605L32.35 17H12c-2.216 0-4 1.784-4 4s1.784 4 4 4h9.097L5.58 36.814a3.991 3.991 0 0 0-.76 5.606 3.991 3.991 0 0 0 5.606.76l7.605-5.789a21 21 0 0 0-.031.61 21 21 0 0 0 19.463 20.921c.442.037.888.06 1.338.069a21 21 0 0 0 .199.01 21 21 0 0 0 .08-.002l.113.002C50.685 59 60.002 49.689 60 38.204c0-.046-.003-.091-.004-.137A21 21 0 0 0 60 38a21 21 0 0 0-.016-.467c-.005-.152-.009-.304-.017-.455a21 21 0 0 0-10.948-17.531c-5.074-3.996-10.44-7.858-15.59-11.781a3.99 3.99 0 0 0-2.196-.815z" opacity=".2"/>
    <path d="M31.232 5.951a3.988 3.988 0 0 0-3.41 1.572 3.99 3.99 0 0 0 .758 5.606L32.35 16H12c-2.216 0-4 1.784-4 4s1.784 4 4 4h9.098L5.58 35.814c-1.763 1.343-2.102 3.843-.76 5.606s3.843 2.102 5.606.76l7.605-5.789A21 21 0 0 0 18 37a21 21 0 0 0 19.463 20.922c.442.036.888.06 1.338.068A21 21 0 0 0 39 58a21 21 0 0 0 .08-.002l.113.002C50.686 58 60.002 48.688 60 37.203c0-.046-.004-.091-.004-.137A21 21 0 0 0 60 37a21 21 0 0 0-.016-.467c-.005-.152-.009-.304-.017-.455a21 21 0 0 0-10.949-17.531c-5.074-3.996-10.44-7.858-15.59-11.781a3.99 3.99 0 0 0-2.196-.815z" fill="#F9BD2E"/>
    <path d="M39.004 25.993a12.004 12.004 0 0 1 12.003 12.003A12.004 12.004 0 0 1 39.004 50 12.004 12.004 0 0 1 27 37.996a12.004 12.004 0 0 1 12.004-12.003z" opacity=".2"/>
    <path d="M39.01 25a12 12 0 0 1 12 12 12 12 0 0 1-12 12 12 12 0 0 1-12-12 12 12 0 0 1 12-12z" fill="#F9F5D7"/>
    <circle cx="39.004" cy="36.994" r="6.002" fill="#066678"/>
    <path d="M19.785 25L5.58 35.814a3.975 3.975 0 0 0-1.541 3.625 3.986 3.986 0 0 1 1.541-2.625L21.098 25zM12 16c-2.216 0-4 1.784-4 4 0 .171.028.335.049.5A3.978 3.978 0 0 1 12 17h20.35l-1.312-1zM31.232 5.951a3.987 3.987 0 0 0-3.41 1.572 3.987 3.987 0 0 0-.781 2.979 3.97 3.97 0 0 1 .78-1.979 3.992 3.992 0 0 1 5.606-.758c5.151 3.924 10.516 7.786 15.59 11.781a21 21 0 0 1 10.95 17.531c.008.152.012.304.017.456a21 21 0 0 1 .004.12c.003-.15.012-.3.012-.45 0-.046-.004-.092-.004-.137A21 21 0 0 0 60 37a21 21 0 0 0-.016-.467c-.005-.152-.01-.304-.018-.455a21 21 0 0 0-10.948-17.531c-5.074-3.996-10.44-7.858-15.59-11.781a3.99 3.99 0 0 0-2.196-.815z" opacity=".2" fill="#F9F5D7"/>
</svg>
