<svg xmlns="http://www.w3.org/2000/svg" width="64" height="64" version="1">
    <path d="M4.05 32c-.011.334-.05.662-.05 1 0 15.512 12.488 28 28 28 15.511 0 28-12.488 28-28 0-.337-.04-.665-.052-1-.528 15.042-12.775 27-27.95 27C16.826 59 4.579 47.042 4.05 32z" opacity=".2"/>
    <path d="M32 4C16.488 4 4 16.49 4 32h28z" fill="#D79921"/>
    <path d="M32 4C47.51 4 60 16.49 60 32H32z" fill="#FA4934"/>
    <path d="M32 60c15.511 0 28-12.488 28-28H32z" fill="#7CB668"/>
    <path d="M32 60C16.488 60 4 47.512 4 32h28z" fill="#066678"/>
    <path d="M32 4C16.488 4 4 16.488 4 32c0 .098.011.194.018.291C4.392 17.111 16.726 5 32 5s27.608 12.11 27.982 27.291c.007-.097.018-.193.018-.291C60 16.488 47.512 4 32 4z" opacity=".2" fill="#F9F5D7"/>
    <circle cx="32" cy="32" r="14" fill="#3A393A"/>
</svg>
