<svg xmlns="http://www.w3.org/2000/svg" width="64" height="64" version="1">
    <path d="M41 41v18h15.3c1.496 0 2.7-1.204 2.7-2.7V41H41z" fill="#7CB668"/>
    <path fill="#066678" d="M23 41h18v18H23z"/>
    <path d="M5 41v15.3C5 57.796 6.204 59 7.7 59H23V41H5z" fill="#7CB668"/>
    <path opacity=".2" d="M5 24h18v18H5z"/>
    <path fill="#7CB668" d="M5 23h18v18H5z"/>
    <path opacity=".2" d="M23 24h18v18H23z"/>
    <path fill="#066678" d="M23 23h18v18H23z"/>
    <path opacity=".2" d="M41 24h18v18H41z"/>
    <path fill="#7CB668" d="M41 23h18v18H41z"/>
    <path d="M41 6v18h18V8.7C59 7.204 57.796 6 56.3 6H41z" opacity=".2"/>
    <path d="M41 5v18h18V7.7C59 6.204 57.796 5 56.3 5H41z" fill="#7CB668"/>
    <path opacity=".2" d="M23 6h18v18H23z"/>
    <path fill="#066678" d="M23 5h18v18H23z"/>
    <path d="M7.7 6A2.694 2.694 0 0 0 5 8.7V24h18V6H7.7z" opacity=".2"/>
    <path d="M7.7 5A2.694 2.694 0 0 0 5 7.7V23h18V5H7.7z" fill="#48B9C7"/>
    <path d="M5 56.3v1C5 58.797 6.203 60 7.7 60h48.6c1.497 0 2.7-1.203 2.7-2.7v-1c0 1.496-1.203 2.7-2.7 2.7H7.7A2.693 2.693 0 0 1 5 56.3z" opacity=".2"/>
    <path d="M7.7 5A2.693 2.693 0 0 0 5 7.7v1C5 7.202 6.203 6 7.7 6h48.6C57.798 6 59 7.203 59 8.7v-1C59 6.202 57.797 5 56.3 5H7.7z" opacity=".2" fill="#F9F5D7"/>
</svg>
