<svg xmlns="http://www.w3.org/2000/svg" width="64" height="64" version="1">
    <rect width="56" height="56" x="4" y="5" rx="2.8" ry="2.8" opacity=".2"/>
    <rect width="56" height="56" x="4" y="4" rx="2.8" ry="2.8" fill="#A04A73"/>
    <path d="M32 15c-2.01.034-4.209.51-5.003 1.387-.848.935-1.03 2.248-.793 3.703.451 2.773 3.364 6.175 5.605 9.234-.016.02-.03.042-.047.062-1.129 1.423-2.996 3.06-4.096 4.164.177-.808.307-1.686.336-2.246.025-.48.01-.853-.137-1.156a.684.684 0 0 0-.386-.36c-.181-.058-.37-.018-.532.06-.324.153-.632.461-1.023.956-.392.495-.85 1.324-1.39 2.234-.542.91-.925 1.639-1.173 2.22a5.733 5.733 0 0 0-.28.784 1.903 1.903 0 0 0-.075.578c.309.422.812.36 1.219.387.176-.002.359-.031.562-.156.478-.293 1.062-.756 1.688-1.297-.446 1.494-.341 1.937-1.053 3.61-.01.022-.025.046-.035.07-3.753-.518-7.67-.19-10.32.734-1.39.484-2.458 1.562-2.876 2.754-.417 1.191-.161 3.305.887 5.183 1.049 1.878 2.202 2.74 3.434 3.008 1.232.267 2.462-.083 3.602-1.016 2.172-1.778 4.136-6.502 5.66-9.976.025.004.05.004.074.008 1.795.268 3.519 1.762 5.024 2.164-.788.25-1.49.507-1.989.761-.427.219-.74.42-.93.7a.677.677 0 0 0-.117.511c.04.187.166.328.313.43.295.204.716.322 1.34.414.624.092 1.446.146 2.504.16h.015c1.058-.014 1.88-.068 2.504-.16.624-.092 1.046-.21 1.34-.414a.714.714 0 0 0 .313-.43.677.677 0 0 0-.117-.511c-.19-.28-.502-.481-.93-.7-.5-.254-1.2-.51-1.988-.761 1.505-.402 3.228-1.896 5.023-2.164.025-.004.05-.004.074-.008 1.525 3.474 3.488 8.198 5.66 9.976 1.14.933 2.37 1.283 3.603 1.016 1.232-.268 2.385-1.13 3.433-3.008 1.049-1.878 1.304-3.992.887-5.183-.417-1.192-1.485-2.27-2.875-2.754-2.65-.923-6.568-1.252-10.32-.735-.01-.023-.026-.047-.036-.07-.711-1.672-.608-2.115-1.054-3.61.626.542 1.21 1.005 1.688 1.298.203.125.386.154.562.156.407-.026.91.035 1.22-.387a1.904 1.904 0 0 0-.075-.578 5.732 5.732 0 0 0-.281-.785c-.248-.58-.631-1.309-1.172-2.219-.541-.91-1-1.739-1.39-2.234-.392-.495-.7-.803-1.024-.957-.162-.077-.35-.117-.532-.058a.684.684 0 0 0-.386.359c-.147.303-.162.676-.137 1.156.03.56.159 1.438.336 2.246-1.1-1.104-2.966-2.741-4.095-4.164-.016-.02-.031-.043-.047-.062 2.242-3.06 5.154-6.461 5.606-9.234.237-1.455.054-2.768-.793-3.703C36.21 15.51 34.012 15.034 32 15z" opacity=".2"/>
    <path d="M32 14c-2.01.034-4.209.51-5.003 1.387-.848.935-1.03 2.248-.793 3.703.451 2.773 3.364 6.175 5.605 9.234-.016.02-.03.042-.047.062-1.129 1.423-2.996 3.06-4.096 4.164.177-.808.307-1.686.336-2.246.025-.48.01-.853-.137-1.156a.684.684 0 0 0-.386-.36c-.181-.058-.37-.018-.532.06-.324.153-.632.461-1.023.956-.392.495-.85 1.324-1.39 2.234-.542.91-.925 1.639-1.173 2.22a5.733 5.733 0 0 0-.28.784 1.903 1.903 0 0 0-.075.578c.309.422.812.36 1.219.387.176-.002.359-.031.562-.156.478-.293 1.062-.756 1.688-1.297-.446 1.494-.341 1.937-1.053 3.61-.01.022-.025.046-.035.07-3.753-.518-7.67-.19-10.32.734-1.39.484-2.458 1.562-2.876 2.754-.417 1.191-.161 3.305.887 5.183 1.049 1.878 2.202 2.74 3.434 3.008 1.232.267 2.462-.083 3.602-1.016 2.172-1.778 4.136-6.502 5.66-9.976.025.004.05.004.074.008 1.795.268 3.519 1.762 5.024 2.164-.788.25-1.49.507-1.989.761-.427.219-.74.42-.93.7a.677.677 0 0 0-.117.511c.04.187.166.328.313.43.295.204.716.322 1.34.414.624.092 1.446.146 2.504.16h.015c1.058-.014 1.88-.068 2.504-.16.624-.092 1.046-.21 1.34-.414a.714.714 0 0 0 .313-.43.677.677 0 0 0-.117-.511c-.19-.28-.502-.481-.93-.7-.5-.254-1.2-.51-1.988-.761 1.505-.402 3.228-1.896 5.023-2.164.025-.004.05-.004.074-.008 1.525 3.474 3.488 8.198 5.66 9.976 1.14.933 2.37 1.283 3.603 1.016 1.232-.268 2.385-1.13 3.433-3.008 1.049-1.878 1.304-3.992.887-5.183-.417-1.192-1.485-2.27-2.875-2.754-2.65-.923-6.568-1.252-10.32-.735-.01-.023-.026-.047-.036-.07-.711-1.672-.608-2.115-1.054-3.61.626.542 1.21 1.005 1.688 1.298.203.125.386.154.562.156.407-.026.91.035 1.22-.387a1.904 1.904 0 0 0-.075-.578 5.732 5.732 0 0 0-.281-.785c-.248-.58-.631-1.309-1.172-2.219-.541-.91-1-1.739-1.39-2.234-.392-.495-.7-.803-1.024-.957-.162-.077-.35-.117-.532-.058a.684.684 0 0 0-.386.359c-.147.303-.162.676-.137 1.156.03.56.159 1.438.336 2.246-1.1-1.104-2.966-2.741-4.095-4.164-.016-.02-.031-.043-.047-.062 2.242-3.06 5.154-6.461 5.606-9.234.237-1.455.054-2.768-.793-3.703C36.21 14.51 34.012 14.034 32 14z" fill="#8F3F71"/>
    <path d="M6.8 4C5.25 4 4 5.25 4 6.8v1C4 6.25 5.25 5 6.8 5h50.4C58.75 5 60 6.25 60 7.8v-1C60 5.25 58.75 4 57.2 4H6.8zM32 14c-2.011.034-4.21.51-5.004 1.387-.711.785-.934 1.844-.853 3.021.085-.774.35-1.465.853-2.021C27.791 15.51 29.99 15.034 32 15c2.011.034 4.21.51 5.004 1.387.503.555.77 1.246.855 2.02.08-1.178-.144-2.236-.855-3.02C36.209 14.51 34.01 14.034 32 14zm-4.795 14.768a.889.889 0 0 0-.258.08c-.324.153-.632.462-1.023.957-.392.495-.85 1.324-1.39 2.234-.542.91-.925 1.638-1.173 2.219a5.733 5.733 0 0 0-.28.785 1.903 1.903 0 0 0-.075.578c.05.069.112.107.172.152.054-.164.1-.319.183-.515.248-.58.631-1.309 1.172-2.219.541-.91 1-1.74 1.39-2.234.392-.495.7-.804 1.024-.957.162-.077.35-.118.532-.059.18.059.313.208.386.36.06.123.085.267.108.415.006-.08.025-.189.029-.26.025-.48.01-.852-.137-1.156a.684.684 0 0 0-.386-.359.61.61 0 0 0-.274-.021zm9.59 0a.61.61 0 0 0-.274.021.684.684 0 0 0-.386.36c-.147.303-.162.676-.137 1.156.004.07.023.18.03.26.022-.15.047-.293.107-.417a.684.684 0 0 1 .386-.359c.181-.059.37-.018.532.059.324.153.632.462 1.023.957.392.495.85 1.324 1.39 2.234.542.91.925 1.638 1.173 2.219.084.196.129.351.183.515.06-.045.122-.083.172-.152a1.904 1.904 0 0 0-.074-.578 5.732 5.732 0 0 0-.281-.785c-.248-.58-.631-1.309-1.172-2.219-.541-.91-1-1.74-1.39-2.234-.392-.495-.7-.804-1.024-.957a.889.889 0 0 0-.258-.08zm-4.203.021c-.132.177-.273.36-.4.535.015.02.03.043.046.063 1.13 1.422 2.996 3.06 4.096 4.164a18.549 18.549 0 0 1-.223-1.215c-1.006-.99-2.45-2.305-3.52-3.547zm-1.184.002c-1.068 1.242-2.513 2.555-3.52 3.545-.057.39-.134.811-.222 1.215 1.1-1.105 2.967-2.742 4.096-4.164.015-.02.03-.043.047-.063-.128-.174-.27-.357-.4-.533zm-4.933 6.764c-.112.096-.212.172-.32.263-.15.678-.27 1.256-.733 2.346-.01.023-.025.047-.035.07-3.754-.517-7.67-.189-10.32.735-1.39.484-2.458 1.56-2.876 2.752-.169.482-.221 1.121-.162 1.83.029-.305.078-.59.162-.83.418-1.192 1.485-2.268 2.875-2.752 2.65-.924 6.567-1.252 10.32-.735.01-.023.026-.047.036-.07.711-1.672.607-2.115 1.053-3.61zm11.05 0c.446 1.494.342 1.937 1.053 3.61.01.022.025.046.035.07 3.754-.518 7.673-.19 10.323.734 1.39.484 2.457 1.56 2.875 2.752.084.241.133.528.162.836.06-.711.007-1.352-.162-1.836-.418-1.192-1.485-2.268-2.875-2.752-2.65-.924-6.57-1.252-10.323-.735-.01-.023-.025-.047-.035-.07-.464-1.09-.583-1.668-.732-2.346-.109-.09-.21-.167-.32-.263zm-7.947 6c-.25.1-.5.199-.695.299-.428.218-.741.42-.93.699a.677.677 0 0 0-.117.511c.033.153.13.27.242.366.192-.214.448-.395.805-.576.5-.255 1.2-.512 1.988-.762-.415-.11-.848-.31-1.293-.537zm4.846 0c-.445.228-.88.426-1.295.537.788.25 1.489.507 1.988.762.357.181.613.362.805.576a.666.666 0 0 0 .242-.366.677.677 0 0 0-.117-.511c-.189-.28-.502-.481-.93-.7a8.726 8.726 0 0 0-.693-.298z" opacity=".1" fill="#F9F5D7"/>
</svg>
