<svg xmlns="http://www.w3.org/2000/svg" width="64" height="64" version="1">
    <circle cx="32" cy="33" r="28" opacity=".2"/>
    <circle cx="32" cy="32" r="28" fill="#066678"/>
    <path d="M29.355 4.15a28 28 0 0 0-10.133 2.94c.142.448-.024.953-.539 1.4-.348.302-.634.772-.634 1.047 0 .84.759 2.129 1.365 2.316.805.25.535 1.108-.501 1.583-.479.22-1.068.853-1.31 1.406-.241.554-.597 1.1-.79 1.213-.192.115-.35.548-.35.964 0 .58.266.862 1.138 1.21.624.251 1.372.433 1.662.405 1.667-.157 1.783.815.326 2.713-.774 1.008-1.147 1.262-1.674 1.134-.492-.117-.76.021-.985.509-.235.516-.621.691-1.659.763-1.02.071-1.477.278-1.859.837-.28.407-.683.738-.897.738-.215 0-.72.274-1.121.607-.818.68-1.138.748-1.425.304-.379-.588-1.197-.291-2.414.875-1.077 1.03-1.207 1.306-1.045 2.2.29 1.593 1.153 3.005 2.138 3.498.86.43.878.476.356 1.028-.3.317-.815.658-1.143.757-.948.288-.414.65 1.277.865 1.73.22 2.269.847 1.46 1.703-.45.477-.426.567.298 1.02 1.414.888 2.539.345 1.211-.585-.853-.598-.256-.841.996-.407.998.345 1.195.326 1.785-.187 1.21-1.048 2.527.503 1.42 1.673-.705.747-.492 1.645.42 1.77.404.055 1.241.43 1.863.834.621.404 1.299.735 1.503.735.205 0 .782.41 1.283.912 1.016 1.015 1.58 1.144 1.867.428.345-.86.206-1.303-.722-2.315-.738-.807-1.938-2.949-1.938-3.463 0-.316 1.22-.047 1.903.419.427.293 1.119.67 1.537.84.445.182.907.748 1.119 1.366.329.972.459 1.056 1.624 1.056h1.265l.192 2.275c.23 2.737.45 3.291 1.389 3.517.692.166 1.43 1.237 1.43 2.075 0 .222-.498.768-1.105 1.212-.753.55-1.078 1.018-1.028 1.476.063.572-.067.662-.878.602-.522-.04-1.429.144-2.011.407-.69.31-1.438.41-2.14.284-.806-.144-1.079-.088-1.079.227 0 .232-.283.666-.627.966-.851.738-.5 1.128.808.893.812-.145 1.128-.081 1.268.269.298.743-.458 1.807-1.16 1.632-.444-.112-.657.041-.796.566a1.297 1.297 0 0 1-.24.479 28 28 0 0 0 4.43 1.309c-.14-.268-.3-.511-.455-.62-.72-.51-.238-1.834.755-2.072 1.012-.244.853-.9-.248-1.027-.964-.109-1.99-1.086-1.669-1.586.217-.334 1.14-.285 3.006.157.843.199 1.418-.202 3.371-2.338 1.13-1.238 2-1.753 2.953-1.753.364 0 1.662-.334 2.885-.743 2.31-.774 3.213-.746 3.128.098-.176 1.755.953 1.697 2.794-.143.768-.766 1.469-1.32 1.56-1.233.351.337-.281 1.98-1.02 2.644-.937.843-.983 1.375-.159 1.796.451.233.643.702.714 1.756l.095 1.44h1.17c.411 0 .751.055 1.026.16a28 28 0 0 0 13.566-23.108c-.429-.916-.398-1.469 0-2.092a28 28 0 0 0-.126-1.57 8.565 8.565 0 0 0-.815-.01c-1.411.058-2.62-.497-2.62-1.206 0-.15-.5-.767-1.113-1.37-.694-.684-1.05-1.288-.946-1.602.095-.286-.11-.746-.47-1.058-.352-.306-.64-.796-.64-1.09 0-.469-.298-.527-2.456-.476l-2.455.06.042 2.421c.072 4.24.704 5.34 2.651 4.63.892-.326 3.083-.08 3.706.414.225.18.552.83.724 1.445.173.615.815 1.68 1.428 2.365 1.24 1.389 1.337 1.93.626 3.56-.62 1.422-1.29 1.259-1.157-.284l.098-1.148-1.05.196c-.58.11-1.309.539-1.635.963-.465.603-.682.692-1.03.416-.244-.193-.441-.6-.441-.903 0-.303-.3-.639-.664-.75-.365-.11-.865-.66-1.11-1.224-.394-.902-.384-1.178.074-2.272.463-1.11.468-1.294.04-1.704-.391-.375-.594-.388-1.11-.079-.518.31-.763.287-1.379-.126-.41-.275-1.128-.504-1.593-.504-.945 0-1.23-.459-1.23-1.98 0-1.403-.838-1.913-2.831-1.73-1.383.128-1.689.037-2.804-.823-.69-.53-1.78-1.807-2.424-2.84-.644-1.034-1.337-2.113-1.54-2.399-.291-.413-.22-.809.35-1.933l.72-1.414-1.52.206c-2.705.365-3.253.715-2.09 1.34.454.242.474.366.124.771-.23.263-.338.682-.238.93.1.246-.027.828-.279 1.292-.253.465-.465 1.116-.473 1.45-.027 1.043-1.813 1.873-3.804 1.763-3.015-.167-3.26-.12-4.331.875-1.339 1.243-1.511 1.821-.888 2.975.603 1.12 1.676 1.566 3.532 1.474 1.66-.083 1.848.064 1.469 1.162-.324.932-1.407 1.29-2.142.708-.566-.449-2.516-.102-3.114.556-.25.275-.623.997-.826 1.602-.35 1.044-.452 1.109-2.02 1.26-1.565.152-1.716.102-2.842-.935-1.256-1.157-1.469-2.042-.864-3.565.269-.675.468-.785 1.185-.654 1.42.26 1.98-.233 1.98-1.75 0-.735-.144-1.422-.319-1.526-.173-.103-.316-.492-.316-.866s-.18-.856-.396-1.067c-.318-.308-.272-.473.235-.832.347-.245.918-.41 1.268-.368.349.042 1.314-.109 2.144-.334 1.2-.324 1.552-.569 1.715-1.2.308-1.199 1.06-2.16 1.69-2.16.995 0 1.016-2.341.049-5.746-.143-.503-.537-.822-1.231-.994-.563-.14-1.175-.524-1.36-.854-.183-.33-.52-.599-.748-.599-.229 0-.675-.273-.99-.607-.318-.336-.975-.607-1.474-.607-1.183 0-1.203-.814-.03-1.244 1.24-.454 3.168.141 3.635 1.121.631 1.329 1.332.775 1.558-1.233.278-2.483 1.135-3.196 3.836-3.196h1.942l-.852-.85a3.385 3.385 0 0 1-.637-.909zm10.066.88c-.054.05-.107.09-.16.146-.65.663-.955.757-1.96.604-1.752-.267-1.527.439.414 1.29 1.048.461 1.723.987 1.953 1.518 1.106 2.564 1.867 3.945 2.25 4.085.772.284 1.233-.286 1.405-1.744.198-1.673.763-2.027 1.78-1.113.394.355.946.645 1.225.645.869 0 1.512.35 1.512.82 0 .249.294.848.653 1.332.531.712.89.883 1.882.883 1.217 0 1.963.228 3.486 1.07.024.012.048.017.071.03a28 28 0 0 0-14.51-9.565zM4.006 31.88A28 28 0 0 0 4 32a28 28 0 0 0 .547 5.38c1.014.412 1.295.248 1.4-.695.054-.489.31-1.042.569-1.234.4-.295.328-.446-.492-1.006-.532-.363-1.055-.996-1.163-1.406-.104-.397-.456-.831-.855-1.159zm8.813 9.255c-.262-.026-.577.114-.927.45-.74.708-.63 2.132.21 2.695.962.645 1.333.458 1.455-.732.15-1.468-.164-2.352-.738-2.413zm4.751 4.234c-.285.01-.6.214-.915.645-.335.457-.426 1.046-.298 1.94.158 1.101.09 1.336-.486 1.632-.74.378-.9 1.503-.293 2.083.602.577 1.176.426 1.383-.364.294-1.126 1.942-1.257 3.068-.246.48.43.872.65.872.484 0-.165-.5-.766-1.11-1.331-.934-.868-1.108-1.238-1.108-2.355 0-1.577-.483-2.508-1.113-2.488zm-7.803 3.615a28 28 0 0 0 .648.817 4.993 4.993 0 0 0-.648-.817zm9.436 4.298c-.142.049-.202.227-.202.539 0 .316-.201.648-.448.738-.327.12-.403.5-.277 1.405.024.17.03.305.04.447a28 28 0 0 0 1.164.598c-.02-.485.069-1.055.322-1.769.43-1.212.445-1.516.095-1.729-.327-.198-.551-.278-.694-.23z" fill="#578D57"/>
    <path d="M28 27.599s.178 1.4-4 1.4-3.999-3.821-3.999-8c0-4.178-.18-8 3.999-8 4.178 0 4 1.6 4 1.6" opacity=".2" fill="none" stroke="#151819" stroke-width="4" stroke-linecap="round" stroke-linejoin="bevel"/>
    <path d="M28 26.6s.178 1.4-4 1.4-3.999-3.822-3.999-8-.18-8 3.999-8c4.178 0 4 1.6 4 1.6" fill="none" stroke="#F9F5D7" stroke-width="4" stroke-linecap="round" stroke-linejoin="bevel"/>
    <path d="M36.03 53.006s8.061.959 7.97-8.13c-.091-9.088-7.97-7.87-7.97-7.87M36 52.993v-16" opacity=".2" fill="none" stroke="#151819" stroke-width="4" stroke-linecap="round" stroke-linejoin="bevel"/>
    <path d="M36.03 52.007s8.061.958 7.97-8.13c-.091-9.088-7.97-7.87-7.97-7.87M36 51.993v-16" fill="none" stroke="#F9F5D7" stroke-width="4" stroke-linecap="round" stroke-linejoin="bevel"/>
    <path d="M20.13 37.099h4.47s3.53-.294 3.53 3.5v4.299h-4.6 4.6V49.4c0 3.703-3.53 3.499-3.53 3.499h-4.47" opacity=".2" fill="none" stroke="#151819" stroke-width="4" stroke-linecap="round" stroke-linejoin="round"/>
    <path d="M20.13 36.1h4.47s3.53-.294 3.53 3.5V43.9h-4.6 4.6V48.4c0 3.703-3.53 3.5-3.53 3.5h-4.47" fill="none" stroke="#F9F5D7" stroke-width="4" stroke-linecap="round" stroke-linejoin="round"/>
    <path d="M44 27.599s.178 1.4-4 1.4C35.82 29 36 25.178 36 21c0-4.178-.18-8 3.999-8 4.178 0 4 1.6 4 1.6" opacity=".2" fill="none" stroke="#151819" stroke-width="4" stroke-linecap="round" stroke-linejoin="bevel"/>
    <path d="M44 26.6s.178 1.4-4 1.4C35.82 28 36 24.178 36 20s-.18-8 3.999-8c4.178 0 4 1.6 4 1.6" fill="none" stroke="#F9F5D7" stroke-width="4" stroke-linecap="round" stroke-linejoin="bevel"/>
    <path d="M32 4A28 28 0 0 0 4 32a28 28 0 0 0 .018.492A28 28 0 0 1 32 5a28 28 0 0 1 27.975 27.492A28 28 0 0 0 60 32 28 28 0 0 0 32 4z" opacity=".2" fill="#F9F5D7"/>
</svg>
