<svg xmlns="http://www.w3.org/2000/svg" width="64" height="64" version="1">
    <path d="M4 56.2v2C4 59.75 5.25 61 6.8 61h50.4c1.55 0 2.8-1.25 2.8-2.8v-2c0 1.55-1.25 2.8-2.8 2.8H6.8C5.25 59 4 57.75 4 56.2z" opacity=".2"/>
    <rect width="56" height="56" x="4" y="4" rx="2.8" ry="2.8" fill="#504945"/>
    <path d="M14 9v26l11-6.5L36 22l-11-6.5L14 9zm24 14v20l8-5 8-5-8-5-8-5zM20 35v24l10-6 10-6-10-6-10-6z" opacity=".2"/>
    <path d="M14 8v26l11-6.5L36 21l-11-6.5L14 8zm24 14v20l8-5 8-5-8-5-8-5zM20 34v24l10-6 10-6-10-6-10-6z" fill="#A79984"/>
    <path d="M6.8 4C5.25 4 4 5.25 4 6.8v1.003c0-1.551 1.25-2.801 2.8-2.801h50.4c1.55 0 2.8 1.25 2.8 2.8V6.802C60 5.25 58.75 4 57.2 4H6.8z" opacity=".1" fill="#F9F5D7"/>
</svg>
