<svg xmlns="http://www.w3.org/2000/svg" width="64" height="64" version="1">
    <path d="M21.139 5.006c-1.962.047-3.58.317-5.135.854-.971.335-2.02.828-2.484 1.168-.342.25-.624.82-.624 1.26 0 .231.109.614.233.82.051.085.36.455.685.82.327.365.714.804.86.975 2.7 3.148 3.299 6.111 3.444 9.783-.185 1.9-.922 3.785-2.41 5.54-3.126 4.086-3.955 5.782-4.937 8.446a12.358 12.358 0 0 0-.726 3.034c-.062.53-.06 2.36.002 3.244.195 2.758.717 5.263 1.623 7.777.1.28.25.696.33.924.822 2.312 2.665 5.462 4.496 7.687.44.535 1.683 1.82 2.326 2.407.772.702 1.591 1.147 2.276 1.232v-.002c.154.02 4.02.03 8.59.023l8.306-.007.309-.094c.669-.204 1.531-.747 2.215-1.397.175-.167.604-.622.953-1.011 2.266-2.53 5.206-6.248 6.43-9.34 1.142-2.888 1.674-4.853 1.972-7.305.35-2.886.192-4.832-.555-6.773-.58-1.357-2.194-2.79-2.22-4.358 0-.617.014-.84.08-1.084.174-.65 1.065-1.246 1.52-1.797.11-.133.646-.7 1.19-1.26 1.297-1.331 1.713-1.877 2.214-2.89a9.293 9.293 0 0 0 .834-2.762c.086-.612.086-1.776-.002-2.398-.508-3.565-3.076-6.44-6.455-7.305-.954-.244-1.797-.257-4.711-.293-4.01-.052-8.513-.86-12.32-3.306-2.407-1.296-3.243-1.689-4.386-2.063-1.382-.452-2.335-.586-3.923-.549zM41.79 16c1.03.001 1.525.018 1.758.057 1.22.206 2.25.89 2.877 1.916.573.938.724 2.037.422 3.068-.243.83-.51 1.199-1.715 2.36-1.232 1.187-1.665 1.676-2.098 2.37-.078.126-.167.23-.195.23-.029 0-.132-.104-.229-.23l-.392-.505c-1.035-1.336-1.813-2.55-2.057-3.213-.099-.268-.119-.416-.146-.935-.073-1.362.13-4.74.302-5.051.036-.064.149-.068 1.473-.067z" opacity=".2"/>
    <path d="M21.139 4.006c-1.962.047-3.58.317-5.135.853-.971.335-2.02.828-2.484 1.168-.342.25-.624.82-.624 1.26 0 .232.109.614.233.82.051.086.36.456.685.82.327.366.714.805.86.975 2.7 3.148 3.299 6.112 3.444 9.784-.185 1.899-.922 3.784-2.41 5.539-3.126 4.087-3.955 5.782-4.937 8.447a12.358 12.358 0 0 0-.726 3.033c-.062.53-.06 2.36.002 3.244.195 2.758.717 5.264 1.623 7.778.1.28.25.695.33.923.822 2.312 2.665 5.462 4.496 7.688.44.535 1.683 1.82 2.326 2.406.772.703 1.591 1.147 2.276 1.233v-.002c.154.019 4.02.029 8.59.023l8.306-.008.309-.094c.669-.203 1.531-.747 2.215-1.396.175-.167.604-.622.953-1.012 2.266-2.529 5.206-6.247 6.43-9.34 1.142-2.887 1.674-4.853 1.972-7.304.35-2.886.192-4.833-.555-6.774-.58-1.356-2.194-2.79-2.22-4.357 0-.618.014-.84.08-1.084.174-.651 1.065-1.247 1.52-1.797.11-.134.646-.7 1.19-1.26 1.297-1.332 1.713-1.877 2.214-2.89a9.293 9.293 0 0 0 .834-2.762c.086-.612.086-1.776-.002-2.399-.508-3.565-3.076-6.44-6.455-7.304-.954-.244-1.797-.257-4.711-.293-4.01-.053-8.513-.861-12.32-3.307-2.407-1.296-3.243-1.688-4.386-2.062-1.382-.453-2.335-.587-3.923-.55zM41.79 15c1.03.001 1.525.017 1.758.057 1.22.206 2.25.89 2.877 1.916.573.938.724 2.036.422 3.068-.243.829-.51 1.198-1.715 2.36-1.232 1.187-1.665 1.676-2.098 2.37-.078.126-.167.229-.195.229-.029 0-.132-.103-.229-.229l-.392-.505c-1.035-1.336-1.813-2.55-2.057-3.213-.099-.269-.119-.416-.146-.936-.073-1.361.13-4.74.302-5.05.036-.065.149-.068 1.473-.067z" fill="#F9F5D7"/>
    <path d="M37.204 50.864c-2.715-1.567-11.391-11.493-11.391-11.493s12.934 2.551 15.649 4.119c2.715 1.567 3.497 5.297 2.788 6.526-.71 1.229-4.33 2.416-7.046.848z" opacity=".2"/>
    <path d="M37.204 49.864c-2.715-1.567-11.391-11.493-11.391-11.493s12.934 2.551 15.649 4.119c2.715 1.567 3.497 5.297 2.788 6.526-.71 1.229-4.33 2.416-7.046.848z" fill="#066678"/>
    <path d="M41.57 42.674c-3.03.812-16.183-.072-16.183-.072s10.95-7.342 13.978-8.153c3.029-.812 6.219 1.272 6.586 2.643.367 1.37-1.353 4.77-4.382 5.582z" opacity=".2"/>
    <path d="M41.57 41.674c-3.03.812-16.183-.072-16.183-.072s10.95-7.342 13.978-8.153c3.029-.812 6.219 1.272 6.586 2.643.367 1.37-1.353 4.77-4.382 5.582z" fill="#48B9C7"/>
    <path d="M38.864 33.796c-1.567 2.715-11.493 11.391-11.493 11.391s2.551-12.934 4.119-15.649c1.567-2.715 5.297-3.497 6.526-2.788 1.229.71 2.416 4.33.848 7.046z" opacity=".2"/>
    <path d="M38.864 32.796c-1.567 2.715-11.493 11.391-11.493 11.391s2.551-12.934 4.119-15.649c1.567-2.715 5.297-3.497 6.526-2.788 1.229.71 2.416 4.33.848 7.046z" fill="#066678"/>
    <path d="M17.538 39.51c2.715 1.568 15.65 4.119 15.65 4.119s-8.677-9.926-11.392-11.493c-2.715-1.568-6.336-.38-7.046.848-.71 1.23.073 4.959 2.788 6.526z" opacity=".2"/>
    <path d="M17.538 38.51c2.715 1.568 15.65 4.119 15.65 4.119s-8.677-9.926-11.392-11.493c-2.715-1.568-6.336-.38-7.046.848-.71 1.23.073 4.959 2.788 6.526z" fill="#066678"/>
    <path d="M28.326 53.57c-.812-3.03.072-16.183.072-16.183s7.342 10.95 8.153 13.978c.812 3.029-1.272 6.219-2.643 6.586-1.37.367-4.77-1.353-5.582-4.382z" opacity=".2"/>
    <path d="M19.635 48.551c3.028-.811 13.978-8.153 13.978-8.153s-13.154-.884-16.182-.072c-3.029.811-4.75 4.211-4.382 5.582.367 1.37 3.557 3.455 6.586 2.643z" opacity=".2"/>
    <path d="M19.635 47.551c3.028-.811 13.978-8.153 13.978-8.153s-13.154-.884-16.182-.072c-3.029.811-4.75 4.211-4.382 5.582.367 1.37 3.557 3.455 6.586 2.643z" fill="#48B9C7"/>
    <path d="M28.326 52.57c-.812-3.03.072-16.183.072-16.183s7.342 10.95 8.153 13.978c.812 3.029-1.272 6.219-2.643 6.586-1.37.367-4.77-1.353-5.582-4.382z" fill="#48B9C7"/>
    <path d="M27.51 53.462c1.568-2.715 4.119-15.65 4.119-15.65s-9.926 8.677-11.493 11.392c-1.568 2.715-.38 6.336.848 7.046 1.23.71 4.959-.073 6.526-2.788z" opacity=".2"/>
    <path d="M27.51 52.462c1.568-2.715 4.119-15.65 4.119-15.65s-9.926 8.677-11.493 11.392c-1.568 2.715-.38 6.336.848 7.046 1.23.71 4.959-.073 6.526-2.788z" fill="#066678"/>
    <path d="M22.449 31.635c.811 3.028 8.153 13.978 8.153 13.978s.884-13.154.072-16.182c-.811-3.029-4.211-4.75-5.582-4.382-1.37.367-3.455 3.557-2.643 6.586z" opacity=".2"/>
    <path d="M22.449 30.635c.811 3.028 8.153 13.978 8.153 13.978s.884-13.154.072-16.182c-.811-3.029-4.211-4.75-5.582-4.382-1.37.367-3.455 3.557-2.643 6.586z" fill="#48B9C7"/>
    <circle cx="46.298" cy="21.19" r="5.5" transform="rotate(30)" opacity=".2"/>
    <circle cx="45.798" cy="20.324" r="5.5" transform="rotate(30)" fill="#F9BD2E"/>
    <path d="M29.24 35.006a5.5 5.5 0 0 0-4.504 2.744 5.5 5.5 0 0 0-.707 3.252 5.5 5.5 0 0 1 .707-2.252 5.5 5.5 0 0 1 7.514-2.014 5.5 5.5 0 0 1 2.72 4.262 5.5 5.5 0 0 0-2.72-5.262 5.5 5.5 0 0 0-3.01-.73zM21.139 4.006c-1.962.047-3.58.317-5.135.853-.971.335-2.02.828-2.484 1.168-.342.25-.624.82-.624 1.26 0 .14.047.327.106.506.11-.307.297-.604.518-.766.465-.34 1.513-.833 2.484-1.168 1.555-.536 3.173-.806 5.135-.853 1.588-.038 2.541.096 3.924.549 1.142.374 1.978.766 4.384 2.062 3.808 2.446 8.31 3.254 12.32 3.307 2.915.036 3.758.049 4.712.293 3.379.864 5.947 3.74 6.455 7.304.026.184.028.46.039.71.026-.598.024-1.267-.04-1.71-.507-3.565-3.075-6.44-6.454-7.304-.954-.244-1.797-.257-4.711-.293-4.01-.053-8.513-.861-12.32-3.307-2.407-1.296-3.243-1.688-4.386-2.062-1.382-.453-2.335-.587-3.923-.55zM46.957 19.44c-.025.201-.052.403-.11.6-.242.829-.509 1.198-1.714 2.36-1.232 1.187-1.665 1.676-2.098 2.37-.078.126-.167.229-.195.229-.029 0-.132-.103-.229-.229l-.392-.505c-1.035-1.336-1.813-2.55-2.057-3.213-.099-.269-.119-.416-.146-.936-.007-.115 0-.305-.002-.445-.015.56-.018 1.078.002 1.445.027.52.047.667.146.936.244.663 1.022 1.877 2.057 3.213l.392.505c.097.126.2.229.229.229.028 0 .117-.103.195-.229.433-.694.866-1.183 2.098-2.37 1.205-1.162 1.472-1.531 1.715-2.36a3.747 3.747 0 0 0 .109-1.6zm-28.88.545c-.232 1.798-.96 3.577-2.37 5.239-3.125 4.087-3.954 5.782-4.936 8.447a12.358 12.358 0 0 0-.726 3.033c-.04.345-.044 1.192-.031 2.02.006-.396.01-.839.03-1.02.126-1.087.34-1.981.727-3.033.982-2.665 1.81-4.36 4.936-8.447 1.488-1.755 2.225-3.64 2.41-5.54-.01-.238-.027-.466-.04-.699zm29.052 9.951c-.02.178-.031.395-.031.776.026 1.568 1.64 3.001 2.22 4.357.447 1.16.678 2.328.721 3.692.059-1.818-.169-3.257-.72-4.692-.553-1.29-2.025-2.653-2.19-4.133z" opacity=".2" fill="#F9F5D7"/>
</svg>
