<svg xmlns="http://www.w3.org/2000/svg" width="64" height="64" version="1">
    <rect width="56" height="44" x="-61" y="-54" rx="2.8" ry="2.75" transform="matrix(0 -1 -1 0 0 0)" opacity=".2"/>
    <rect width="56" height="44" x="-60" y="-54" rx="2.8" ry="2.75" transform="matrix(0 -1 -1 0 0 0)" fill="#F9F5D7"/>
    <rect width="48" height="36" x="-56" y="-50" rx="0" ry="0" transform="matrix(0 -1 -1 0 0 0)" fill="#8F3F71"/>
    <path d="M22 41s1.75 6 10 6 10-6 10-6" fill="none" stroke="#3A393A" stroke-width="6" stroke-linecap="round" stroke-linejoin="round"/>
    <circle cx="23" cy="23" r="6" opacity=".2"/>
    <circle cx="23" cy="22" r="6" fill="#F9F5D7"/>
    <circle cx="24" cy="22" r="3" fill="#3A393A"/>
    <path d="M12.75 4C11.226 4 10 5.25 10 6.8v1C10 6.25 11.226 5 12.75 5h38.5C52.773 5 54 6.25 54 7.8v-1C54 5.25 52.773 4 51.25 4h-38.5z" opacity=".2" fill="#F9F5D7"/>
    <circle cx="41" cy="23" r="6" opacity=".2"/>
    <circle cx="41" cy="22" r="6" fill="#F9F5D7"/>
    <circle cx="42" cy="22" r="3" fill="#3A393A"/>
</svg>
