<svg xmlns="http://www.w3.org/2000/svg" width="64" height="64" version="1">
    <path d="M22.182 24a2.182 2.4 0 0 0-2.107 3.024l7.636 31.2A2.182 2.4 0 0 0 29.818 60h4.364a2.182 2.4 0 0 0 2.107-1.777l7.636-31.199a2.182 2.4 0 0 0-2.107-3.023z" opacity=".2"/>
    <path d="M29.623 3.005c.155-.097 2.207 1.219 4.317 2.77 3.089 2.269 5.052 4.276 6.772 6.935.425.657.776 1.342 1.093 2.035.183.287.357.58.52.882 3.34 6.289 1.527 14.225-4.049 17.726-5.576 3.5-12.803 1.24-16.143-5.05a13.4 13.4 0 0 1-.43-.886c-.162-.283-.34-.557-.478-.85-1.893-4.01-1.508-8.305.578-11.96 1.104-1.934 3.317-3.907 4.91-4.912 1.989-1.254 2.66-3.79 2.785-5.996.02-.353.079-.665.125-.694z" fill="#BE4C1D"/>
    <path d="M22.182 23a2.182 2.4 0 0 0-2.107 3.023l7.636 31.2A2.182 2.4 0 0 0 29.818 59h4.364a2.182 2.4 0 0 0 2.107-1.777l7.636-31.2A2.182 2.4 0 0 0 41.818 23z" fill="#D79921"/>
    <rect width="32" height="3" x="16" y="23" rx="1.455" ry="1.5" opacity=".2"/>
    <rect width="32" height="3" x="16" y="22" rx="1.455" ry="1.5" fill="#E6D3A3"/>
    <path d="M29.623 3.006c-.046.029-.105.34-.125.693-.126 2.206-.797 4.742-2.785 5.996-1.594 1.006-3.806 2.978-4.91 4.912-1.21 2.12-1.826 4.455-1.78 6.825.124-2.025.74-4.004 1.78-5.825 1.104-1.934 3.316-3.906 4.91-4.912 1.988-1.254 2.659-3.79 2.785-5.996.02-.353.079-.664.125-.693.155-.098 2.206 1.217 4.316 2.767 3.09 2.27 5.054 4.279 6.774 6.938.425.657.776 1.341 1.092 2.035.184.287.358.58.521.881a14.358 14.358 0 0 1 1.658 6.123c.064-2.4-.46-4.867-1.658-7.123a13.891 13.891 0 0 0-.521-.88 15.714 15.714 0 0 0-1.092-2.036c-1.72-2.66-3.685-4.668-6.774-6.938-2.11-1.55-4.16-2.865-4.316-2.767z" fill="#F9F5D7" opacity=".1"/>
</svg>
