<svg xmlns="http://www.w3.org/2000/svg" width="64" height="64" version="1">
    <path d="M24 10v2h16v-2H24zM4 53v2c0 1.662 1.338 3 3 3h50c1.662 0 3-1.338 3-3v-2c0 1.662-1.338 3-3 3H7c-1.662 0-3-1.338-3-3z" opacity=".2"/>
    <path d="M24 7l-4 4v6H4v37c0 1.662 1.338 3 3 3h50c1.662 0 3-1.338 3-3V17H44v-6l-4-4zm0 4h16v6H24z" fill="#F9F5D7"/>
    <path d="M31.957 29v.004c-9.807 0-18.38 5.029-23.367 12.637L17.46 57h1.919v-.012c0-6.976 5.652-9.02 12.578-9.797l24.988-2.8C52.358 35.24 42.917 29 31.957 29z" fill="#CB241D"/>
    <path d="M8.602 41.703a27.956 27.956 0 0 0-4.489 13.074A2.985 2.985 0 0 0 7 57h10.422l-8.82-15.297z" fill="#578D57"/>
    <path d="M56.254 42.973L32 43.003c2.027.056 4.442 1.993 6.328 3.083 4.049 2.34 6.294 6.564 6.29 10.914H57c1.404 0 2.564-.96 2.895-2.258A28.122 28.122 0 0 0 57 44.406l-.746-1.433z" fill="#FECE4F"/>
    <path d="M32 43c-7.756 0-14 6.244-14 14h28c0-7.756-6.244-14-14-14z" fill="#F9F5D7"/>
    <path d="M32 45c-6.648 0-12 5.352-12 12h24c0-6.648-5.352-12-12-12z" fill="#066678"/>
</svg>
