<svg xmlns="http://www.w3.org/2000/svg" width="64" height="64" version="1">
    <rect width="56" height="56" x="4" y="4" rx="3" ry="3" fill="#8F3F71"/>
    <path d="M7 4C5.338 4 4 5.338 4 7v1c0-1.662 1.338-3 3-3h50c1.662 0 3 1.338 3 3V7c0-1.662-1.338-3-3-3H7z" fill="#F9F5D7" opacity=".1"/>
    <path d="M4 57v1c0 1.662 1.338 3 3 3h50c1.662 0 3-1.338 3-3v-1c0 1.662-1.338 3-3 3H7c-1.662 0-3-1.338-3-3z" opacity=".2"/>
    <path d="M30 29v6h17c1.662 0 3-1.338 3-3s-1.338-3-3-3zm6 16v6h11c1.662 0 3-1.338 3-3s-1.338-3-3-3z" opacity=".5" fill="#F9F5D7"/>
    <path d="M43 13H17c-1.662 0-3 1.338-3 3s1.338 3 3 3h26z" fill="#FA4934"/>
    <path d="M37 45H17c-1.662 0-3 1.338-3 3s1.338 3 3 3h20z" fill="#48B9C7"/>
    <path d="M28 29H17c-1.662 0-3 1.338-3 3s1.338 3 3 3h11z" fill="#7CB668"/>
    <path d="M50 17a6 6 0 1 0-12 0 6 6 0 0 0 12 0zM42 49a6 6 0 1 0-12 0 6 6 0 0 0 12 0zM36 33a6 6 0 1 0-12 0 6 6 0 0 0 12 0z" opacity=".2"/>
    <path d="M50 16a6 6 0 1 0-12 0 6 6 0 0 0 12 0zM42 48a6 6 0 1 0-12 0 6 6 0 0 0 12 0zM36 32a6 6 0 1 0-12 0 6 6 0 0 0 12 0z" fill="#F9F5D7"/>
</svg>
