<svg xmlns="http://www.w3.org/2000/svg" width="64" height="64" version="1">
    <rect width="56" height="56" x="4" y="5" rx="2.8" ry="2.8" opacity=".2"/>
    <rect width="56" height="56" x="4" y="4" rx="2.8" ry="2.8" fill="#A04A73"/>
    <path d="M16.025 13c-.194 2.283.796 8 .713 8.762.06 1.043 1.011 1.321 1.011 1.321l1.17.026c.343-1.616.838-2.551 1.766-3.109H26v29.035l-2.85-.07-.093-2.943-1.961-.044-.81 7.022h17.963l2.008-1.943c-1.35-.45-3.685-.851-4.257-3.502V17h9.414c.305.32-1.387 1.837-1.087 2.123 1.344 1.278 2.515 2.16 3.673 2.13V13z" opacity=".2"/>
    <path d="M16.025 12c-.194 2.283.796 8 .713 8.762.06 1.043 1.011 1.321 1.011 1.321l1.17.026c.343-1.616.838-2.551 1.766-3.109H26v29.035l-2.85-.07-.093-2.943-1.961-.044-.81 7.022h17.963l2.008-1.943c-1.35-.45-3.685-.851-4.257-3.502V16h9.414c.305.32-1.387 1.837-1.087 2.123 1.344 1.278 2.515 2.16 3.673 2.13V12z" fill="#F9F5D7"/>
    <path d="M6.8 4C5.25 4 4 5.25 4 6.8v1C4 6.25 5.25 5 6.8 5h50.4C58.75 5 60 6.25 60 7.8v-1C60 5.25 58.75 4 57.2 4H6.8z" opacity=".1" fill="#F9F5D7"/>
</svg>
