<svg xmlns="http://www.w3.org/2000/svg" width="64" height="64">
    <path d="M5 21.5L29 9l10.667 5.556 6.666 16.666L53 34.077v12.348L29 59 5 46.5z" opacity=".2"/>
    <path d="M5 20.5L29 8l10.667 5.556 6.666 16.666L53 33.077v12.348L29 58 5 45.5z" fill="#BDAD93"/>
    <path d="M53 32.962v12.463l-.054.027-.517.256L47 48.553l-6 3.16V39.25l.054-.03.517-.283 5.646-2.959z" fill="#F9F5D7"/>
    <path d="M41 26.826l-.466.257L29 33.077l5.479 2.854 6.055 3.167.466.228.466-.228 8.273-4.309.52-.286.523-.257L53 33.077l-5.013-2.599-.466-.255-.465-.23-5.59-2.91zM17 14.324l-.466.257L5 20.575l5.479 2.854 6.055 3.167.466.228.466-.228 8.273-4.309.52-.286.523-.257L29 20.575l-5.013-2.598-.466-.256-.465-.23-5.59-2.91z" fill="#BDAD93"/>
    <path d="M5 20.537v12.462l.054.027.517.257L11 36.127l6 3.16V26.824l-.054-.029-.517-.283-5.646-2.96zM41 26.788V39.25l-.054.027-.517.257L35 42.378l-6 3.16V33.075l.054-.029.517-.284 5.646-2.959z" fill="#F9F5D7"/>
    <path d="M41 14.325v12.463l-.054.027-.517.256L35 29.916l-6 3.16V20.612l.054-.03.517-.283 5.646-2.96z" fill="#F9F5D7"/>
    <path d="M29 8.037l-.466.257L17 14.288l5.479 2.853 6.055 3.168.466.228.466-.228 8.273-4.31.52-.285.523-.258L41 14.288l-5.013-2.599-.466-.255-.465-.23-5.59-2.91z" fill="#A79984"/>
    <path d="M29 8.035l-.465.258L17 14.289l.96.5 10.575-5.496.465-.258.465.258 5.59 2.91.465.23.468.255 4.055 2.105.957-.504-5.012-2.601-.468-.254-.465-.23-5.59-2.911L29 8.035zm-12 6.29l-.465.257L5.04 20.555 5 20.535v1l.04.02 11.495-5.973.465-.258.465.258.447.234.05-.027-.962-.5.912-.475-.447-.232-.465-.258zm.963 2.464l-.049.025 5.14 2.678.466.23.468.255 3.098 1.605.031-.016-4.637-2.425-4.517-2.352zM5.055 35.027l5.543 2.891-5.028-2.637-.515-.254z" opacity=".2" fill="#F9F5D7"/>
    <path d="M29 20.575l-.466.257L17 26.826l5.479 2.854 6.055 3.167.466.228.466-.228 8.273-4.309.52-.286.523-.257L41 26.826l-5.013-2.598-.466-.256-.465-.23-5.59-2.91z" fill="#A79984"/>
    <path d="M41 39.25v12.462l-.054.028-.517.256L35 54.841 29 58V45.538l.054-.03.517-.283 5.646-2.96zM17 26.788V39.25l.054.027.517.257L23 42.378l6 3.16V33.075l-.054-.029-.517-.283-5.646-2.96zM5 33v12.462l.054.027.517.256L11 48.59l6 3.16V39.286l-.054-.03-.517-.283-5.646-2.96z" fill="#BDAD93"/>
    <path d="M17 39.25v12.462l.054.028.517.256L23 54.841 29 58V45.538l-.054-.03-.517-.283-5.646-2.96z" fill="#F9F5D7"/>
    <path d="M47 6l-.466.248L35 12l5.479 2.74 6.055 3.04L47 18l.466-.22 8.273-4.135.52-.275.523-.247L59 12.001l-5.013-2.494-.466-.245-.465-.22-5.59-2.794z" fill="#F15C22"/>
    <path d="M47 6l-.466.247-11.495 5.737-.039-.021v11.965l.055.026.515.245L41 26.93l6 3.031V30l6-3.034 5.43-2.731.515-.245.055-.026V12.002l-5.013-2.495-.466-.244-.466-.222-5.589-2.794zm9.367 7.32l-.216.106.11-.057zm-6.495 3.257l-2.302 1.159-.515.273-.055.029v-.04l.466-.218z" fill="#F15C22"/>
    <path d="M47 6l-.465.246-11.496 5.738-.039-.02v1l.04.02 11.495-5.738L47 7l.465.246 5.59 2.797.465.219.468.246L59 13.004v-1l-5.012-2.496-.468-.246-.465-.219-5.59-2.797L47 6zm9.367 9.32l-.105.047-.11.059.215-.106zm-6.496 3.258l-2.406 1.203L47 20v.04l.055-.032.515-.274 2.301-1.156z" opacity=".1" fill="#F9F5D7"/>
    <path d="M59 13.002v11.963l-.054.026-.517.246L53 27.967 47 31V19.037l.054-.028.517-.272 5.646-2.84z" opacity=".2"/>
    <path d="M59 12.001v11.963l-.054.026-.517.246L53 26.966 47 30V18.036l.054-.027.517-.273 5.646-2.84z" fill="#BE4C1D"/>
    <path d="M35 12.965v11.963l.054.026.517.246L41 27.931l6 3.033V19l-.054-.028-.517-.272-5.646-2.84z" opacity=".2"/>
    <path d="M35 11.965v11.962l.054.026.517.246L41 26.93l6 3.033V18l-.054-.028-.517-.272-5.646-2.84z" fill="#BE4C1D"/>
    <path d="M59 12l-5.785 2.895-5.645 2.843-.515.27-.055.027v1l.055-.027.515-.27 5.645-2.843L59 13v-1z" opacity=".1" fill="#F9F5D7"/>
    <path d="M35 11.965v1l5.785 2.894 5.645 2.84.515.274L47 19v-1l-.055-.027-.515-.274-5.645-2.84L35 11.965z" opacity=".1"/>
</svg>
