<svg xmlns="http://www.w3.org/2000/svg" width="64" height="64" version="1">
    <path d="M4 52v2c0 1.662 1.338 3 3 3h50c1.662 0 3-1.338 3-3v-2c0 1.662-1.338 3-3 3H7c-1.662 0-3-1.338-3-3z" opacity=".2"/>
    <path d="M7 8c-1.662 0-3 1.338-3 3v33h56V11c0-1.662-1.338-3-3-3zm52.188 47a2.846 2.846 0 0 1-2 .813L7 56h50c.88 0 1.64-.4 2.188-1z" fill="#FA4934"/>
    <path d="M7 8c-1.662 0-3 1.338-3 3v1c0-1.662 1.338-3 3-3h50c1.662 0 3 1.338 3 3v-1c0-1.662-1.338-3-3-3z" opacity=".2" fill="#F9F5D7"/>
    <path d="M44 19a8 8 0 1 1 0 16 8 8 0 0 1 0-16z" opacity=".2" fill-rule="evenodd"/>
    <path d="M44 18a8 8 0 1 1 0 16 8 8 0 0 1 0-16z" fill="#F9F5D7" fill-rule="evenodd"/>
    <path d="M4 44v9s0 3.012 3 3l50.2-.2A2.797 2.797 0 0 0 60 53v-9z" fill="#A04A73"/>
    <path d="M4 44v-1.737s4.039-2.896 5.174-3.148c1.135-.253 2.476-.048 3.854.235 1.378.281 3.435 1.062 4.078 1.086.642.024 1.804-.061 3.154-.15 1.35-.086 3.585-.166 4.282-.158.697 0 2.438.105 4.293.228 1.856.123 4.404.329 4.982.387.579.057 1.258.163 2.03.278.77.115 2.106.288 2.579.336.472.047 1.567.21 2.838.337 1.27.127 3.304.17 3.891.124.587-.047 1.818-.52 3.19-.955 1.372-.435 2.884-.833 4.035-.734 1.148.1 7.62 2.134 7.62 2.134V44H10.798z" fill="#3A393A"/>
    <path d="M4 44v1h56v-1z" opacity=".1" fill="#F9F5D7"/>
    <path d="M63.958 45.848A16 16 0 0 1 48 61a16 16 0 0 1-15.958-14.848A16 16 0 0 0 32 47a16 16 0 0 0 16 16 16 16 0 0 0 16-16 16 16 0 0 0-.043-1.152z" opacity=".2" fill-rule="evenodd"/>
    <circle cx="48" cy="46" r="16" fill="#8F3F71"/>
    <path d="M45.928 38l-.176 2.107a6.286 6.286 0 0 0-1.838 1.063L42 40.268l-2 3.464 1.738 1.207A6.286 6.286 0 0 0 41.643 46a6.286 6.286 0 0 0 .091 1.064L40 48.27l2 3.462 1.91-.898a6.286 6.286 0 0 0 1.842 1.055L45.928 54h4l.177-2.105a6.286 6.286 0 0 0 1.836-1.065l1.916.902 2-3.462-1.74-1.21a6.286 6.286 0 0 0 .098-1.06 6.286 6.286 0 0 0-.092-1.064l1.734-1.204-2-3.462-1.912.898a6.286 6.286 0 0 0-1.84-1.055L49.93 38h-4.002zM48 43a3 3 0 0 1 3 3 3 3 0 0 1-3 3 3 3 0 0 1-3-3 3 3 0 0 1 3-3z" fill="#F9F5D7"/>
</svg>
