<svg xmlns="http://www.w3.org/2000/svg" width="64" height="64" version="1">
    <rect width="56" height="56" x="4" y="5" rx="2.8" ry="2.8" opacity=".2"/>
    <rect width="56" height="56" x="4" y="4" rx="2.8" ry="2.8" fill="#BDAD93"/>
    <path d="M37.2 22.054l-11.2 7v5.09l11.2 7 3.179-5.09-7.129-4.453 7.129-4.457zm14 0l-11.2 7v5.09l11.2 7 3.179-5.09-7.129-4.453 7.129-4.457zM10 24v6h14v-6zm0 9v6h14v-6z" opacity=".1"/>
    <path d="M52.79 23.6l-11.2 7 11.2 7" fill="none" stroke="#A04A73" stroke-width="6" stroke-linejoin="bevel"/>
    <path d="M38.79 23.6l-11.2 7 11.2 7" fill="none" stroke="#8F3F71" stroke-width="6" stroke-linejoin="bevel"/>
    <path fill="#066678" d="M10 23h14v6H10zM10 32h14v6H10z"/>
    <path d="M6.8 4C5.25 4 4 5.25 4 6.8v1C4 6.25 5.25 5 6.8 5h50.4C58.75 5 60 6.25 60 7.8v-1C60 5.25 58.75 4 57.2 4H6.8z" opacity=".2" fill="#F9F5D7"/>
</svg>
