<svg xmlns="http://www.w3.org/2000/svg" width="64" height="64" version="1">
    <rect width="56" height="56" x="4" y="5" rx="28" ry="28" opacity=".2"/>
    <rect width="56" height="56" x="4" y="4" rx="28" ry="28" fill="#3A393A"/>
    <path d="M23.447 18A6.467 6.467 0 0 0 17 24.447v17.106A6.467 6.467 0 0 0 23.447 48h17.106A6.467 6.467 0 0 0 47 41.553V24.447A6.467 6.467 0 0 0 40.553 18zm8.21 7.008A8.01 8 0 0 1 40 33.018 8.01 8 0 0 1 31.99 41a8.01 8 0 0 1-.334-15.992zM32.071 28a5 5 0 0 0-3.607 1.465 5 5 0 0 0 0 7.068v.002c.229.229.476.429.734.604.043.028.086.053.13.08a5 5 0 0 0 .732.387c.05.021.102.038.154.058a5 5 0 0 0 .783.23c.315.065.633.099.953.102a5 5 0 0 0 .03.002l.06-.002c.323-.002.645-.037.963-.101a5 5 0 0 0 .85-.252 5 5 0 0 0 .011-.004 4.98 4.98 0 0 0 .848-.442 5 5 0 0 0 .822-.662c.23-.229.428-.476.604-.734.028-.042.053-.086.08-.13a5 5 0 0 0 .383-.726 5 5 0 0 0 .002-.006c.021-.05.038-.102.058-.154l.008-.023a5 5 0 0 0 .225-.76c.064-.315.098-.633.101-.953l.002-.028a5 5 0 0 0 0-.002c0-.034-.005-.068-.006-.103a5 5 0 0 0-.08-.852c.029.152.03.306.043.46-.017-.177-.025-.354-.06-.528a5 5 0 0 0-.252-.85 5 5 0 0 0-.004-.011l-.016-.037c0-.002-.003-.004-.004-.006a5 5 0 0 0-.422-.805c.141.217.252.446.356.678a4.947 4.947 0 0 0-.508-.895c-.034-.047-.067-.094-.104-.14a5 5 0 0 0-.062-.086l-.008-.01a5 5 0 0 0-.336-.37A5 5 0 0 0 32.072 28zm4.924 5.049a5.06 5.06 0 0 1-.078.826 5 5 0 0 0 .078-.826zm-2.283 4.148c-.26.169-.53.313-.81.428a5 5 0 0 0 .81-.428zm-2.672.8a5 5 0 0 0 .895-.085 5.029 5.029 0 0 1-.895.084zm-.09 0a5.062 5.062 0 0 1-.826-.079 5 5 0 0 0 .826.078z" opacity=".2"/>
    <path d="M23.447 17A6.467 6.467 0 0 0 17 23.447v17.106A6.467 6.467 0 0 0 23.447 47h17.106A6.467 6.467 0 0 0 47 40.553V23.447A6.467 6.467 0 0 0 40.553 17H23.447zm8.21 7.008A8.01 8 0 0 1 40 32.018 8.01 8 0 0 1 31.99 40a8.01 8 0 0 1-.334-15.992z" fill="#F9F5D7"/>
    <path d="M32.073 27a5 5 0 0 0-3.609 1.465 5 5 0 0 0 0 7.07l7.071-7.07a5 5 0 0 0-3.462-1.464zm3.462 1.465c.24.24.451.5.632.772a5 5 0 0 0-.632-.772zm-7.07 7.07a5 5 0 0 0 .734.603 5.013 5.013 0 0 1-.735-.603zm7.732-6.247c.168.26.312.53.427.81a5 5 0 0 0-.427-.81zm.442.847a5 5 0 0 1 .256.862 5 5 0 0 0-.256-.862zm.273.93c.056.295.08.594.083.894a5 5 0 0 0-.083-.894zm.086.955c-.002.286-.031.571-.081.854a5 5 0 0 0 .08-.854zm-.103.981a5.006 5.006 0 0 1-.232.784 5 5 0 0 0 .232-.784zm-.29.938a4.954 4.954 0 0 1-.386.732 5 5 0 0 0 .385-.732zm-.467.861a5.013 5.013 0 0 1-.603.735 5 5 0 0 0 .603-.735zm-.603.735c-.24.24-.499.451-.771.633a5 5 0 0 0 .771-.633zm-.823.662c-.26.168-.53.312-.81.427a5 5 0 0 0 .81-.427zm-5.383.022a5 5 0 0 0 .732.386 4.954 4.954 0 0 1-.732-.386zm4.536.42a5 5 0 0 1-.862.256 5 5 0 0 0 .862-.256zm-3.65.024a5 5 0 0 0 .784.232 5.008 5.008 0 0 1-.784-.232zm2.72.25c-.295.055-.594.08-.894.082a5 5 0 0 0 .894-.083zm-1.81.004a5 5 0 0 0 .855.08 5.028 5.028 0 0 1-.854-.08z" fill="#B7BB25"/>
    <path d="M35.535 28.465a5 5 0 1 1-7.071 7.07z" fill="#066678"/>
    <path d="M32 4C16.488 4 4 16.488 4 32c0 .168.01.333.014.5C4.28 17.221 16.656 5 32 5c15.344 0 27.72 12.221 27.986 27.5.003-.167.014-.332.014-.5C60 16.488 47.512 4 32 4z" fill="#F9F5D7" opacity=".1"/>
    <path d="M23.447 17A6.467 6.467 0 0 0 17 23.447v1A6.467 6.467 0 0 1 23.447 18h17.106A6.467 6.467 0 0 1 47 24.447v-1A6.467 6.467 0 0 0 40.553 17H23.447zm16.528 15.506A8.01 8 0 0 1 31.99 40a8.01 8 0 0 1-7.953-7.453A8.01 8 0 0 0 31.99 41 8.01 8 0 0 0 40 33.018a8.01 8 0 0 0-.025-.512z" fill="#F9F5D7" opacity=".2"/>
</svg>
