<svg xmlns="http://www.w3.org/2000/svg" width="64" height="64" version="1">
    <path d="M4 51.124v2C4 54.718 5.25 56 6.8 56h50.4c1.55 0 2.8-1.282 2.8-2.876v-2C60 52.718 58.75 54 57.2 54H6.8C5.25 54 4 52.718 4 51.124z" opacity=".2"/>
    <rect width="45.999" height="56" x="-55" y="-60" rx="2.876" ry="2.8" transform="matrix(0 -1 -1 0 0 0)" fill="#504945"/>
    <g transform="scale(1.99997)" opacity=".2">
        <rect width="20" height="5" x="6" y="10" rx="1.333" ry="1.25"/>
        <rect width="20" height="5" x="6" y="18" rx="1.333" ry="1.25"/>
    </g>
    <rect width="39.999" height="10" x="12" y="19" rx="2.666" ry="2.5" fill="#F9F5D7"/>
    <rect width="39.999" height="10" x="12" y="35" rx="2.666" ry="2.5" fill="#F9F5D7"/>
    <path d="M6.8 9C5.25 9 4 10.282 4 11.875v1.002c0-1.593 1.25-2.875 2.8-2.875h50.4c1.55 0 2.8 1.282 2.8 2.875v-1.002C60 10.282 58.75 9 57.2 9H6.8z" opacity=".1" fill="#F9F5D7"/>
    <circle cx="17" cy="24" r="3" fill="#48B9C7"/>
    <circle cx="17" cy="40" r="3" fill="#FA4934"/>
    <circle cx="27" cy="24" r="3" fill="#48B9C7"/>
    <circle cx="27" cy="40" r="3" fill="#FA4934"/>
    <circle cx="37" cy="24" r="3" fill="#48B9C7"/>
    <circle cx="37" cy="40" r="3" fill="#FA4934"/>
</svg>
