<svg xmlns="http://www.w3.org/2000/svg" width="64" height="64">
    <path d="M5.977 27.704c-.209 5.406 1.288 9.452 4.343 12.386.047.49.117.982.168 1.472.01-.074.028-.148.035-.222.002-.032.01-.062.012-.094.088-1.052-.114-2.104-.215-3.156-2.666-2.56-4.142-5.97-4.343-10.386zm52.073.592c-.196 3.932-1.656 7.078-4.354 9.52-.092 1.272-.4 2.542-.188 3.812.064-.604.144-1.208.188-1.812 3.142-2.842 4.622-6.632 4.354-11.52zm-8.656 19.138c-.054.468-.024 1.064.204 1.972.046.186.114.354.18.52.408.53.868 1.096 1.472 1.742 3.5 3.734 8.75 0 8.75-1.868 0-.55-.172-.77-.476-.91-1.328 1.848-5.378 3.866-8.274.778a22.9 22.9 0 0 1-1.856-2.234zm-34.783.004a24.607 24.607 0 0 1-1.86 2.23 5.618 5.618 0 0 1-.675.614c-.462.354-.941.6-1.43.758-2.503.806-5.158-.724-6.183-2.154-.303.142-.461.366-.461.914 0 1.518 3.467 4.264 6.644 3.24a4.725 4.725 0 0 0 1.43-.758c.23-.178.457-.38.676-.614.4-.428.75-.828 1.058-1.204.16-.192.28-.36.418-.538.066-.166.13-.334.176-.52.228-.906.26-1.5.207-1.968zM32 49.668C32 55.268 26.75 59 21.5 59c-.728 0-1.18-.088-1.492-.226C19.275 60.186 19.074 61 21.5 61c5.25 0 10.5-3.732 10.5-9.332C32 57.268 37.25 61 42.5 61c2.426 0 2.228-.814 1.496-2.226-.312.138-.766.226-1.496.226-5.25 0-10.5-3.732-10.5-9.332zM21.033 54.75c-2.94 2.576-8.255 2.504-10.032.52-.036-.04-.038-.066-.07-.106-.622.534-.832 1.098.07 2.106 1.519 1.694 5.61 1.978 8.605.422.227-.722.883-1.712 1.427-2.942zm21.94 0c.544 1.23 1.196 2.22 1.422 2.942 2.996 1.556 7.088 1.272 8.606-.422.904-1.01.696-1.576.07-2.11-.034.04-.032.068-.07.11-1.778 1.984-7.088 2.056-10.028-.52z" opacity=".2"/>
    <path d="M31.88 4C21.152 4 9.004 12.926 6.364 22.806c-1.242 7.436.205 12.683 3.958 16.286.1 1.052.301 2.103.213 3.155-.002.031-.008.062-.01.093-.02.198-.05.396-.096.594-.02.08-.05.162-.074.243-.044.15-.087.3-.15.451-.053.125-.13.25-.197.375-.063.116-.114.233-.191.35a5.357 5.357 0 0 1-.566.716c-.875.933-1.64 1.516-2.297 1.895C4.985 48.1 4.001 47.4 4.001 48.8c0 1.517 3.464 4.265 6.641 3.24a4.716 4.716 0 0 0 1.433-.757c.231-.177.457-.382.676-.615.4-.428.749-.828 1.058-1.203.305-.368.565-.706.798-1.028.054.469.023 1.063-.205 1.969-.906 3.606-5.695 3.302-3.401 5.862 1.777 1.983 7.09 2.06 10.029-.517-1.172 2.656-2.953 4.25.47 4.25 5.25 0 10.5-3.733 10.5-9.333C32 56.268 37.25 60 42.5 60c3.423 0 1.642-1.593.47-4.249 2.94 2.577 8.252 2.5 10.03.517 2.293-2.56-2.496-2.257-3.402-5.862-.228-.908-.26-1.503-.205-1.972.474.653 1.065 1.39 1.856 2.234 3.502 3.734 8.752 0 8.752-1.867s-1.75 0-5.25-3.732c-1.953-2.084-1.206-4.167-1.055-6.251 4.05-3.662 5.371-8.87 3.7-16.012C53.67 12.217 42.608 4.002 31.881 4.002z" fill="#F9BD2E"/>
    <ellipse cx="22" cy="22" rx="4" ry="5" opacity=".2"/>
    <ellipse cx="22" cy="21.001" rx="4" ry="5" fill="#F9F5D7"/>
    <ellipse cx="42" cy="22" rx="4" ry="5" opacity=".2"/>
    <ellipse cx="24" cy="21.001" rx="2" ry="3" fill="#3A393A"/>
    <ellipse cx="43.9" cy="20.801" rx="2.1" ry="2.8" fill="#3A393A"/>
    <ellipse cx="42" cy="21.001" rx="4" ry="5" fill="#F9F5D7"/>
    <ellipse cx="44" cy="21.001" rx="2" ry="3" fill="#3A393A"/>
    <path d="M31.879 4C21.151 4 9.003 12.926 6.363 22.805c-.328 1.967-.464 3.778-.423 5.449.024-1.39.159-2.867.423-4.449C9.003 13.926 21.151 5.002 31.88 5.002V5c10.728 0 21.79 8.216 25.516 18.805.433 1.851.661 3.57.697 5.168.057-1.874-.173-3.925-.697-6.168C53.668 12.216 42.607 4 31.88 4zm21.572 38.113c-.091 1.319.063 2.637 1.299 3.955 3.043 3.246 4.761 2.261 5.158 3.174.055-.154.092-.303.092-.441 0-1.867-1.75.001-5.25-3.733-.923-.984-1.234-1.97-1.299-2.955zm-42.916.094v.039c-.002.031-.008.061-.01.092a4.89 4.89 0 0 1-.095.594c-.02.08-.051.163-.075.244-.044.15-.087.301-.15.451-.053.125-.13.25-.197.375-.063.117-.115.233-.192.35-.157.238-.34.477-.564.716-.875.934-1.64 1.516-2.297 1.895-1.969 1.137-2.953.438-2.953 1.838 0 .142.04.297.098.457.28-.656 1.226-.354 2.855-1.295.656-.379 1.422-.961 2.297-1.895.224-.239.407-.478.564-.716.077-.117.129-.233.192-.35.067-.125.144-.25.197-.375.063-.15.106-.301.15-.451.024-.081.055-.164.075-.244.045-.198.075-.394.095-.592.002-.031.008-.063.01-.094.029-.346.02-.693 0-1.039zm38.858 7.227c-.054.469-.023 1.065.205 1.972.642 2.557 3.226 3.15 3.865 4.19.91-1.861-3.048-1.94-3.865-5.192a7.163 7.163 0 0 1-.166-.92l-.039-.05zm-34.786.004l-.037.048a7.328 7.328 0 0 1-.168.918c-.817 3.254-4.778 3.331-3.865 5.194.636-1.041 3.223-1.633 3.865-4.192.228-.906.259-1.5.205-1.968zm6.424 7.312a6.85 6.85 0 0 1-.799.592c-.545 1.019-.943 1.783-.578 2.22.26-.71.866-1.652 1.377-2.812zm21.94 0c.511 1.16 1.117 2.102 1.377 2.812.364-.438-.032-1.202-.577-2.22a6.832 6.832 0 0 1-.8-.592z" opacity=".2" fill="#F9F5D7"/>
</svg>
