<svg xmlns="http://www.w3.org/2000/svg" width="64" height="64" version="1">
    <path d="M10 56v2c0 1.662 1.338 3 3 3h38c1.662 0 3-1.338 3-3v-2c0 1.662-1.338 3-3 3H13c-1.662 0-3-1.338-3-3z" opacity=".2"/>
    <path d="M54 57V7c0-1.662-1.338-3-3-3H13c-1.662 0-3 1.338-3 3v50c0 1.662 1.338 3 3 3h38c1.662 0 3-1.338 3-3z" fill="#F9F5D7"/>
    <path d="M47.643 4a177.95 177.95 0 0 1-3.957 10.586c-1.183 2.872-2.493 5.775-3.725 7.967-.616 1.096-1.218 2.015-1.729 2.636-.51.622-.97.878-.935.868-.47.132-1.12 0-2.086-.584-.967-.584-2.112-1.562-3.322-2.625-2.421-2.127-5.072-4.783-8.514-4.848-3.12-.06-5.599 1.756-7.064 4.273-1.466 2.518-2.145 5.742-2.282 9.14-.135 3.373.18 7.014 1.43 10.026 1.25 3.012 3.75 5.492 7.37 5.561 3.855.073 6.686-2.9 9.107-5.457 1.21-1.278 2.334-2.511 3.33-3.354.995-.842 1.796-1.198 2.28-1.189-.173-.003.128.03.589.568.46.538 1.028 1.435 1.6 2.543 1.142 2.217 2.332 5.282 3.386 8.352A170.117 170.117 0 0 1 46.604 60h3.107c-.008-.031-1.602-6.24-3.754-12.51-1.079-3.143-2.29-6.296-3.557-8.754-.633-1.229-1.271-2.284-1.986-3.119-.715-.834-1.556-1.593-2.81-1.617-1.675-.032-3.044.856-4.276 1.898-1.232 1.043-2.393 2.336-3.572 3.582-2.359 2.492-4.727 4.56-6.871 4.52-2.382-.045-3.675-1.351-4.655-3.71-.979-2.36-1.326-5.677-1.203-8.759.123-3.058.781-5.869 1.875-7.748 1.094-1.879 2.395-2.821 4.414-2.783 1.697.032 4.154 1.96 6.592 4.102 1.22 1.07 2.441 2.145 3.752 2.937 1.31.792 2.849 1.355 4.45.904 1.07-.301 1.75-1.007 2.44-1.847.692-.84 1.357-1.884 2.026-3.075 1.338-2.381 2.677-5.358 3.885-8.292a196.648 196.648 0 0 0 4.3-11.567L50.272 4h-2.628z" fill="#665C54" fill-rule="evenodd"/>
    <path d="M13 4c-1.662 0-3 1.338-3 3v1c0-1.662 1.338-3 3-3h38c1.662 0 3 1.338 3 3V7c0-1.662-1.338-3-3-3H13z" opacity=".1" fill="#F9F5D7"/>
    <path d="M63.958 45.848A16 16 0 0 1 48 61a16 16 0 0 1-15.958-14.848A16 16 0 0 0 32 47a16 16 0 0 0 16 16 16 16 0 0 0 16-16 16 16 0 0 0-.043-1.152z" opacity=".2" fill-rule="evenodd"/>
    <circle cx="48" cy="46" r="16" fill="#504945"/>
    <path d="M40 50.436V54h3.564l9-9-3.563-3.565zm15.717-8.578a.945.945 0 0 0 0-1.348l-2.227-2.227a.945.945 0 0 0-1.348 0l-1.862 1.874 3.564 3.564z" fill="#F9F5D7"/>
</svg>
