<svg xmlns="http://www.w3.org/2000/svg" width="64" height="64">
    <rect width="56" height="50" x="4" y="8" rx="3.409" ry="3.303" opacity=".2"/>
    <rect width="56" height="50" x="4" y="7" rx="3.409" ry="3.303" fill="#73C48F"/>
    <rect width="44" height="8" x="10" y="46" rx="1.375" opacity=".3"/>
    <rect width="8" height="8" x="10" y="16" rx="1.333" opacity=".2"/>
    <rect width="8" height="8" x="10" y="15" rx="1.333" fill="#F9F5D7"/>
    <rect width="8" height="8" x="10" y="30" rx="1.333" opacity=".2"/>
    <rect width="8" height="8" x="10" y="29" rx="1.333" fill="#F9F5D7"/>
    <path d="M7.41 7C5.522 7 4 8.475 4 10.305v1C4 9.475 5.522 8 7.41 8h49.18C58.478 8 60 9.475 60 11.305v-1C60 8.475 58.478 7 56.59 7H7.41z" opacity=".2" fill="#F9F5D7"/>
</svg>
