<svg xmlns="http://www.w3.org/2000/svg" width="64" height="64" version="1">
    <path d="M12.75 5C11.226 5 10 6.249 10 7.8v50.4c0 1.551 1.226 2.8 2.75 2.8h38.5c1.523 0 2.75-1.249 2.75-2.8V7.8C54 6.249 52.773 5 51.25 5z" opacity=".2"/>
    <path d="M12.75 4C11.226 4 10 5.249 10 6.8v50.4c0 1.551 1.226 2.8 2.75 2.8h38.5c1.523 0 2.75-1.249 2.75-2.8V6.8C54 5.249 52.773 4 51.25 4z" fill="#066678"/>
    <path d="M27.4 33a8.4 8.4 0 0 0-8.4 8.4 8.4 8.4 0 0 0 .12 1.395A6.3 6.3 0 0 0 15 48.699 6.3 6.3 0 0 0 21.3 55a6.3 6.3 0 0 0 .2-.008V55H41.801v-.002a6.3 6.3 0 0 0 6.217-6.299 6.3 6.3 0 0 0-3.432-5.601 8.4 8.4 0 0 0-8.387-7.998 8.4 8.4 0 0 0-2.75.472A8.4 8.4 0 0 0 27.4 33z" opacity=".2"/>
    <circle cx="21.3" cy="47.7" r="6.3" fill="#F9F5D7"/>
    <circle cx="27.4" cy="40.4" r="8.4" fill="#F9F5D7"/>
    <circle cx="36.2" cy="42.5" r="8.4" fill="#F9F5D7"/>
    <circle cx="41.718" cy="47.7" r="6.3" fill="#F9F5D7"/>
    <path fill="#F9F5D7" d="M21.5 44.84h20.3v9.164H21.5z"/>
    <rect width="56" height="5" x="4" y="22" rx="1.4" ry="1.25" opacity=".2"/>
    <rect width="56" height="5" x="4" y="21" rx="1.4" ry="1.25" fill="#FA4934"/>
    <path opacity=".5" fill="#F9F5D7" d="M15 18h24v3H15zM15 10h34v3H15z"/>
    <path d="M12.75 4C11.226 4 10 5.25 10 6.8v1C10 6.25 11.226 5 12.75 5h38.5C52.773 5 54 6.25 54 7.8v-1C54 5.25 52.773 4 51.25 4h-38.5z" fill="#F9F5D7" opacity=".2"/>
</svg>
