<svg xmlns="http://www.w3.org/2000/svg" width="64" height="64" version="1">
    <circle cx="32" cy="33" r="28" opacity=".2"/>
    <circle cx="32" cy="32" r="28" fill="#8F3F71"/>
    <path d="M20 35.8S20 47 29 47h15V19h-6v21h-7.5C26 40 26 34.4 26 34.4V19h-6z" opacity=".2"/>
    <path d="M20 34.8S20 46 29 46h15V18h-6v21h-7.5C26 39 26 33.4 26 33.4V18h-6z" fill="#F9F5D7"/>
    <path d="M32 4A28 28 0 0 0 4 32a28 28 0 0 0 .021.586A28 28 0 0 1 32 5a28 28 0 0 1 27.979 27.414A28 28 0 0 0 60 32 28 28 0 0 0 32 4z" opacity=".1" fill="#F9F5D7"/>
</svg>
