<svg xmlns="http://www.w3.org/2000/svg" width="64" height="64">
    <path d="M31.995 5.001c-2.493 6.111-3.997 10.109-6.772 16.037C26.925 22.842 28.608 24.628 32 27c-3.647-1.5-5.729-2.693-7.588-4.256C20.86 30.155 15.294 40.711 4 61c8.877-5.124 15.058-8.282 21.471-9.488a16.244 16.244 0 0 1-.421-3.801l.01-.284C25.2 41.74 28.92 37.007 32.363 37c3.442-.008 6.789 5.815 6.648 11.5-.026 1.07-.147 2.1-.358 3.054C44.996 52.795 51.243 55.946 60 61c-1.727-3.178-3.268-6.043-4.74-8.772C52.942 50.432 50.932 48.531 46 46c3.39.88 5.41 1.46 7.301 2.595C38.338 20.741 37.127 17.04 31.995 5z" opacity=".2" fill-rule="evenodd"/>
    <path d="M31.995 4.001c-2.493 6.111-3.997 10.109-6.772 16.037C26.925 21.842 28.608 23.628 32 26c-3.647-1.5-5.729-2.693-7.588-4.256C20.86 29.155 15.294 39.711 4 60c8.877-5.124 15.058-8.282 21.471-9.488a16.244 16.244 0 0 1-.421-3.801l.01-.284C25.2 40.74 28.92 36.007 32.363 36c3.442-.008 6.789 5.815 6.648 11.5-.026 1.07-.147 2.1-.358 3.054C44.996 51.795 51.243 54.946 60 60c-1.727-3.178-3.268-6.043-4.74-8.772C52.942 49.432 50.932 47.531 46 45c3.39.88 5.41 1.46 7.301 2.595C38.338 19.741 37.127 16.04 31.995 4z" fill="#066678" fill-rule="evenodd"/>
    <path d="M31.996 4.004c-2.493 6.11-3.998 10.107-6.773 16.035l.306.32c2.566-5.54 4.077-9.495 6.467-15.355 5.033 11.808 6.374 15.734 20.547 42.17.257.132.508.272.758.422C38.339 19.746 37.127 16.04 31.996 4.004zm-7.584 17.74C20.86 29.155 15.294 39.711 4 60c.28-.161.533-.304.807-.46 10.69-19.233 16.149-29.585 19.605-36.796C26.272 24.307 28.352 25.5 32 27a39.168 39.168 0 0 1-3.102-2.404c-1.85-.92-3.24-1.804-4.486-2.852zM46 46c4.932 2.531 6.941 4.432 9.26 6.229 1.229 2.278 2.565 4.753 3.959 7.326.265.152.511.29.781.445-1.727-3.178-3.269-6.043-4.74-8.771-1.67-1.294-3.195-2.645-5.75-4.243A73.416 73.416 0 0 0 46 46zm-20.936 1.346c0 .027-.005.053-.005.08l-.01.285c-.008.983.076 1.937.23 2.844.064-.013.128-.031.192-.043a16.278 16.278 0 0 1-.407-3.166zM39 47.652a16.01 16.01 0 0 1-.348 2.903c.054.01.107.026.16.037.103-.676.182-1.369.2-2.092.007-.282-.002-.565-.012-.848z" fill="#F9F5D7" fill-rule="evenodd" opacity=".2"/>
</svg>
