<svg xmlns="http://www.w3.org/2000/svg" width="64" height="64" version="1">
    <path d="M4 56.2v2C4 59.75 5.25 61 6.8 61h50.4c1.55 0 2.8-1.25 2.8-2.8v-2c0 1.55-1.25 2.8-2.8 2.8H6.8C5.25 59 4 57.75 4 56.2z" opacity=".2"/>
    <path d="M4 32v25.2C4 58.75 5.25 60 6.8 60h50.4c1.55 0 2.8-1.25 2.8-2.8V32H4z" fill="#CB241D"/>
    <path d="M60 32V6.8C60 5.25 58.75 4 57.2 4H6.8A2.794 2.794 0 0 0 4 6.8V32z" fill="#7CB668"/>
    <path d="M32 6l4 7 8 1.095L38 20l1.416 8L32 24l-7.417 4L26 20l-6-5.906L28 13z" fill="#F9F5D7"/>
    <path d="M28 34h8l-3 12 3 12h-8l3-12z" fill="#1D2021"/>
    <path d="M44 42v8l-12-3-12 3v-8l12 3z" fill="#1D2021"/>
    <path d="M6.8 4C5.25 4 4 5.25 4 6.8v1.003c0-1.551 1.25-2.801 2.8-2.801h50.4c1.55 0 2.8 1.25 2.8 2.8V6.802C60 5.25 58.75 4 57.2 4H6.8z" opacity=".2" fill="#F9F5D7"/>
</svg>
