<svg xmlns="http://www.w3.org/2000/svg" width="64" height="64" version="1">
    <path d="M59.958 31.828A28 28 0 0 1 32 59 28 28 0 0 1 4.044 32.172 28 28 0 0 0 4 33a28 28 0 0 0 28 28 28 28 0 0 0 28-28 28 28 0 0 0-.042-1.172z" opacity=".2"/>
    <path d="M60 32a28 28 0 0 1-28 28A28 28 0 0 1 4 32 28 28 0 0 1 32 4a28 28 0 0 1 28 28z" fill="#504945"/>
    <path d="M31.998 4A28 28 0 0 0 4 32a28 28 0 0 0 .018.492A28 28 0 0 1 31.998 5H32a28 28 0 0 1 27.973 27.5 28 28 0 0 0 .025-.5A28 28 0 0 0 32 4h-.002z" opacity=".1" fill="#F9F5D7"/>
    <g opacity=".2">
        <path d="M32 13a20 20 0 0 0-20 20 20 20 0 0 0 20 20v-6a14 14 0 0 1-14-14 14 14 0 0 1 14-14 14 14 0 0 1 14 14h6a20 20 0 0 0-20-20z"/>
        <path d="M32 23a10 10 0 0 0-10 10h6a4 4 0 0 1 4-4 4 4 0 0 1 4 4h6a10 10 0 0 0-10-10z"/>
    </g>
    <path d="M32 12a20 20 0 0 0-20 20 20 20 0 0 0 20 20v-6a14 14 0 0 1-14-14 14 14 0 0 1 14-14 14 14 0 0 1 14 14h6a20 20 0 0 0-20-20z" fill="#F9F5D7"/>
    <path d="M32 22a10 10 0 0 0-10 10h6a4 4 0 0 1 4-4 4 4 0 0 1 4 4h6a10 10 0 0 0-10-10z" fill="#48B9C7"/>
</svg>
