<svg xmlns="http://www.w3.org/2000/svg" width="64" height="64" version="1">
    <rect width="57" height="57" x="3" y="4" rx="2" ry="2" opacity=".2"/>
    <rect width="57" height="57" x="3" y="3" rx="2" ry="2" fill="#F9F5D7"/>
    <path fill="#504945" d="M9 14.4h5v34.2H9z"/>
    <path fill="#504945" d="M54.3 44v5H8.7v-5z"/>
    <path d="M20.14 35.765s5.033-1.296 7.553-1.936c2.524-.642 5.179-1.463 7.578-2.479 2.735-1.157 5.44-2.054 7.577-4.117 2.464-2.377 5.71-8.536 5.71-8.536" fill="none" stroke="#504945" stroke-width="5" stroke-linecap="round"/>
    <circle cx="11.5" cy="15.5" r="5.5" opacity=".1"/>
    <circle cx="11.5" cy="14.5" r="5.5" fill="#FA4934"/>
    <circle cx="11.5" cy="47.5" r="5.5" opacity=".1"/>
    <circle cx="11.5" cy="46.5" r="5.5" fill="#FA4934"/>
    <circle cx="51.5" cy="47.5" r="5.5" opacity=".1"/>
    <circle cx="51.5" cy="46.5" r="5.5" fill="#FA4934"/>
    <circle cx="48.5" cy="20.5" r="5.5" opacity=".1"/>
    <circle cx="48.5" cy="19.5" r="5.5" fill="#7CB668"/>
    <circle cx="21.5" cy="35.5" r="5.5" opacity=".1"/>
    <circle cx="21.5" cy="34.5" r="5.5" fill="#7CB668"/>
    <circle cx="36.5" cy="31.5" r="5.5" opacity=".1"/>
    <circle cx="36.5" cy="30.5" r="5.5" fill="#7CB668"/>
    <path d="M5 3c-1.108 0-2 .892-2 2v1c0-1.108.892-2 2-2h53c1.108 0 2 .892 2 2V5c0-1.108-.892-2-2-2H5z" fill="#F9F5D7" opacity=".2"/>
</svg>
