<svg xmlns="http://www.w3.org/2000/svg" width="64" height="64" version="1">
    <path d="M25 33l-8 5.6V47h5v-4.2l3-2.056V33zm15 0v7.744l3 2.057V47h5v-8.4L40 33z" opacity=".2"/>
    <path d="M26 51c0-1.662-1.338-3-3-3s-3 1.338-3 3v6c0 1.662 1.338 3 3 3s3-1.338 3-3v-6zM25 32l-8 5.6V46h5v-4.2l3-2.056V32zm15 0v7.744l3 2.057V46h5v-8.4L40 32zM39 51c0-1.662 1.338-3 3-3s3 1.338 3 3v6c0 1.662-1.338 3-3 3s-3-1.338-3-3v-6z" fill="#9D0006"/>
    <rect width="17" height="20" x="24" y="33" rx="1.32" ry="1.029" opacity=".2"/>
    <rect width="17" height="20" x="24" y="32" rx="1.32" ry="1.029" fill="#7CB668"/>
    <ellipse cx="32.5" cy="23.3" rx="19.5" ry="12.5" opacity=".2"/>
    <ellipse cx="32.5" cy="22.3" rx="19.5" ry="12.5" fill="#A79984"/>
    <path fill="#3A393A" d="M22 19h3v3h-3zM39 19h3v3h-3zM23 26h18v3H23z"/>
    <path d="M8.792 5c-2.664.002-3.809 3.396-1.694 5.023l6.097 11.356s3.37-5.346 5.94-6.139C23.418 13.918 27.958 18 32.5 18s9.082-4.082 13.365-2.76c2.57.793 5.94 6.139 5.94 6.139l6.097-11.356c2.115-1.627.97-5.02-1.694-5.023H32.5z" opacity=".2"/>
    <path d="M8.792 4c-2.664.002-3.809 3.396-1.694 5.023l6.097 11.356s3.37-5.346 5.94-6.139C23.418 12.918 27.958 17 32.5 17s9.082-4.082 13.365-2.76c2.57.793 5.94 6.139 5.94 6.139l6.097-11.356c2.115-1.627.97-5.02-1.694-5.023H32.5z" fill="#F9BD2E"/>
    <path fill="#3A393A" d="M31 36h3v3h-3zM31 41h3v3h-3zM31 46h3v3h-3z"/>
    <path d="M17.75 55C16.227 55 15 56.338 15 58s1.226 3 2.75 3h5.5c1.523 0 2.75-1.338 2.75-3s-1.227-3-2.75-3h-5.5zm24 0C40.227 55 39 56.338 39 58s1.226 3 2.75 3h5.5c1.523 0 2.75-1.338 2.75-3s-1.227-3-2.75-3h-5.5z" opacity=".2"/>
    <path d="M17.75 54C16.227 54 15 55.338 15 57s1.227 3 2.75 3h5.5c1.523 0 2.75-1.338 2.75-3s-1.227-3-2.75-3h-5.5zm24 0C40.227 54 39 55.338 39 57s1.227 3 2.75 3h5.5c1.523 0 2.75-1.338 2.75-3s-1.227-3-2.75-3h-5.5z" fill="#48B9C7"/>
    <path d="M8.793 4c-1.9.002-3.02 1.725-2.744 3.305C6.276 6.075 7.294 5 8.793 5h47.414c1.499.001 2.517 1.075 2.744 2.305.275-1.58-.845-3.303-2.744-3.305H8.793zM17.75 54C16.227 54 15 55.338 15 57c0 .172.022.336.047.5.218-1.42 1.337-2.5 2.703-2.5h5.5c1.366 0 2.485 1.08 2.703 2.5.025-.164.047-.328.047-.5 0-1.662-1.227-3-2.75-3h-5.5zm24 0C40.227 54 39 55.338 39 57c0 .172.022.336.047.5.218-1.42 1.337-2.5 2.703-2.5h5.5c1.366 0 2.485 1.08 2.703 2.5.025-.164.047-.328.047-.5 0-1.662-1.227-3-2.75-3h-5.5z" opacity=".2" fill="#F9F5D7"/>
</svg>
