<svg xmlns="http://www.w3.org/2000/svg" width="64" height="64" version="1">
    <rect width="56" height="40" x="4" y="12" rx="2.8" ry="2.8" fill="#504945"/>
    <circle cx="11" cy="22" r="3" opacity=".2"/>
    <circle cx="21" cy="22" r="3" opacity=".2"/>
    <circle cx="31" cy="22" r="3" opacity=".2"/>
    <circle cx="41" cy="22" r="3" opacity=".2"/>
    <circle cx="51" cy="22" r="3" opacity=".2"/>
    <circle cx="17" cy="34" r="3" opacity=".2"/>
    <circle cx="27" cy="34" r="3" opacity=".2"/>
    <circle cx="37" cy="34" r="3" opacity=".2"/>
    <circle cx="47" cy="34" r="3" opacity=".2"/>
    <rect width="40" height="6" x="12" y="43" rx="1.5" ry="1.5" opacity=".2"/>
    <circle cx="11" cy="21" r="3" fill="#F9F5D7"/>
    <circle cx="21" cy="21" r="3" fill="#F9F5D7"/>
    <circle cx="31" cy="21" r="3" fill="#F9F5D7"/>
    <circle cx="41" cy="21" r="3" fill="#F9F5D7"/>
    <circle cx="51" cy="21" r="3" fill="#F9F5D7"/>
    <circle cx="17" cy="33" r="3" fill="#F9F5D7"/>
    <circle cx="27" cy="33" r="3" fill="#F9F5D7"/>
    <circle cx="37" cy="33" r="3" fill="#F9F5D7"/>
    <circle cx="47" cy="33" r="3" fill="#F9F5D7"/>
    <rect width="40" height="6" x="12" y="42" rx="1.5" ry="1.5" fill="#F9F5D7"/>
    <path d="M6.8 12C5.25 12 4 13.25 4 14.801v1A2.796 2.796 0 0 1 6.8 13H57.2a2.796 2.796 0 0 1 2.8 2.801v-1A2.796 2.796 0 0 0 57.2 12H6.8z" opacity=".1" fill="#F9F5D7"/>
    <path d="M4 49.199v1A2.796 2.796 0 0 0 6.8 53H57.2a2.796 2.796 0 0 0 2.8-2.801v-1A2.796 2.796 0 0 1 57.2 52H6.8A2.796 2.796 0 0 1 4 49.199z" opacity=".2"/>
    <circle cx="48" cy="46" r="16" fill="#F15C22"/>
    <path d="M63.979 46.42A16 16 0 0 1 48 62a16 16 0 0 1-15.979-15.42A16 16 0 0 0 32 47a16 16 0 0 0 16 16 16 16 0 0 0 16-16 16 16 0 0 0-.021-.58z" opacity=".2"/>
    <path d="M47.496 38.003c-.595.01-1.185.033-1.573.091-1.738.266-3.13.877-4.026 1.765-.492.482-.783 1-.975 1.673-.105.407-.141 1.34-.031 1.696.365 1.255 1.23 2.219 2.862 3.185.692.41 1.226.68 2.767 1.375 1.847.83 2.41 1.166 2.673 1.581.103.169.142.256.126.458-.027.322-.188.482-.566.619-.251.089-.341.117-.817.115-.873-.006-1.64-.17-2.705-.55a9.837 9.837 0 0 1-2.106-1.032c-.617-.404-.667-.418-.85-.32-.138.074-1.144.97-1.886 1.696-.484.472-.492.567-.158.894.33.326 1.254 1.01 1.762 1.306.55.323.92.504 1.54.733 1.042.387 1.916.547 3.554.687a23.77 23.77 0 0 0 2.17 0c2.563-.206 4.654-1.042 5.754-2.268.394-.436.633-.808.818-1.33.18-.506.228-1.503.094-2.108-.22-.98-.81-1.864-1.761-2.612-.955-.748-1.922-1.246-4.245-2.176-1.624-.648-2.234-.992-2.39-1.352-.087-.192-.036-.536.094-.665.256-.258.747-.352 1.384-.275 1.188.146 2.712.69 4.057 1.444.26.142.51.263.566.274.217.058.35-.028 1.227-1.031 1.076-1.235 1.065-1.183.472-1.604-1.766-1.267-3.813-2-6.164-2.223a16.466 16.466 0 0 0-1.667-.046z" fill="#F9F5D7"/>
</svg>
