<svg xmlns="http://www.w3.org/2000/svg" width="64" height="64" version="1">
    <path d="M4 56v2c0 1.662 1.338 3 3 3h50c1.662 0 3-1.338 3-3v-2c0 1.662-1.338 3-3 3H7c-1.662 0-3-1.338-3-3z" opacity=".2"/>
    <rect width="56" height="56" x="4" y="4" rx="3" ry="3" fill="#CB241D"/>
    <path d="M7 4C5.338 4 4 5.338 4 7v1c0-1.662 1.338-3 3-3h50c1.662 0 3 1.338 3 3V7c0-1.662-1.338-3-3-3H7z" opacity=".1" fill="#F9F5D7"/>
    <path d="M48 13.013v8.046c-8.034.142-10.008 7.977-10.008 7.977h6.06v8.046h-9.397C29.003 54.518 16 52.964 16 52.964v-8.046s8.252 1.53 12.46-13.835c5.262-19.222 19.54-18.071 19.54-18.071z" opacity=".2"/>
    <path d="M48 12.013v8.047c-8.034.141-10.008 7.976-10.008 7.976h6.06v8.047h-9.397C29.003 53.519 16 51.965 16 51.965v-8.047s8.252 1.531 12.46-13.835c5.262-19.221 19.54-18.07 19.54-18.07z" fill="#F9F5D7"/>
</svg>
