<svg xmlns="http://www.w3.org/2000/svg" width="64" height="64" version="1">
    <rect width="56" height="56" x="4" y="5" rx="2.8" ry="2.8" opacity=".2"/>
    <rect width="56" height="56" x="4" y="4" rx="2.8" ry="2.8" fill="#448588"/>
    <path d="M29.2 13C22.993 13 18 17.994 18 24.2V52.198C18 53.75 19.449 55 21 55s3-1.25 3-2.8V41h8v-6h-2.668C26.285 35 24 32.715 24 29.668v-5.336C24 21.285 26.285 19 29.332 19H32v-6h-2.8z" opacity=".2"/>
    <path d="M29.2 12C22.993 12 18 16.994 18 23.2V51.198C18 52.75 19.449 54 21 54s3-1.25 3-2.8V40h8v-6h-2.668C26.285 34 24 31.715 24 28.668v-5.336C24 20.285 26.285 18 29.332 18H32v-6h-2.8z" fill="#3A393A"/>
    <path d="M32 13v6h2.668C37.715 19 40 21.285 40 24.332v5.336C40 32.715 37.715 35 34.668 35H32v6h2.8C41.007 41 46 36.006 46 29.8v-5.6C46 17.993 41.006 13 34.8 13z" opacity=".2"/>
    <path d="M32 12v6h2.668C37.715 18 40 20.285 40 23.332v5.336C40 31.715 37.715 34 34.668 34H32v6h2.8C41.007 40 46 35.006 46 28.8v-5.6C46 16.993 41.006 12 34.8 12z" fill="#F9F5D7"/>
    <path d="M6.8 4C5.25 4 4 5.25 4 6.8v1C4 6.25 5.25 5 6.8 5h50.4C58.75 5 60 6.25 60 7.8v-1C60 5.25 58.75 4 57.2 4H6.8z" opacity=".2" fill="#F9F5D7"/>
</svg>
