<svg xmlns="http://www.w3.org/2000/svg" width="64" height="64" version="1">
    <path d="M4.05 31c-.011.335-.05.663-.05 1 0 15.512 12.488 28 28 28 15.51 0 27.998-12.488 27.998-28 0-.337-.039-.664-.05-1-.528 15.042-12.776 27-27.95 27S4.578 46.042 4.05 31z" opacity=".2"/>
    <rect width="56" height="56" x="-59" y="-60" rx="27.999" ry="27.999" transform="matrix(0 -1 -1 0 0 0)" fill="#066678"/>
    <path d="M32 3A27.94 27.94 0 0 0 4 31c0 .114.011.224.018.336C4.369 16.135 16.71 4 32 4s27.63 12.135 27.982 27.336c.007-.112.018-.223.018-.336A27.94 27.94 0 0 0 32 3z" opacity=".1" fill="#F9F5D7"/>
    <path d="M14.225 17.002c-.174-.02-.363.096-.586.313-.365.355-.446 1.284-.563 6.375-.075 3.277-.099 6.043-.05 6.146.27.583 3.343-.495 4.431-1.555l.543-.53-.67-1.11c-.435-.722-.93-2.333-1.414-4.596-.785-3.667-1.17-4.98-1.691-5.043zm35.55 0c-.52.062-.906 1.376-1.691 5.043-.484 2.263-.98 3.874-1.414 4.596L46 27.75l.543.53c1.088 1.06 4.162 2.138 4.432 1.555.048-.103.024-2.869-.051-6.146-.117-5.091-.198-6.02-.563-6.375-.223-.217-.412-.334-.586-.313zM26.185 24a2.372 2.372 0 0 0-1.205.328c-.448.253-2.112 1.836-3.699 3.516-2.412 2.554-3.117 3.147-4.308 3.633-1.876.765-3.456 1.052-4.754.656-1.762-.538-2.715.364-1.957 1.961.722 1.522 3.611 2.903 7.437 3.555 5.312.905 8.83.37 12.563-2.692.715-.587 1.507-1.07 1.761-1.07.255 0 1.125.543 1.93 1.203 1.913 1.567 2.846 1.766 5.113 2.445 1.614.484 2.243.54 4.512.395 4.772-.304 7.964-1.33 9.645-3.102.566-.596.777-1.053.777-1.673 0-1.242-.659-1.358-2.34-.918-1.02.266-1.59.078-2.617-.157-2.516-.576-3.654-1.366-6.586-4.572-2.278-2.49-3.217-3.452-4.457-3.5-.744-.028-1.596.275-2.91.777C33.696 25.318 32.26 26 31.902 26s-1.466-.598-2.457-1.027c-1.544-.669-2.508-.976-3.26-.973zM14.253 40c-.132-.004-.214.003-.232.024-.073.082.063.854.3 1.71.52 1.877 1.632 3.33 2.957 3.864 1.319.53 4.83.537 5.723.012.714-.42 1-1.298 1-3.086 0-1.762-.055-1.8-2.78-1.8-1.363-.001-3.512-.19-4.775-.421-.947-.176-1.797-.291-2.193-.303zm35.432.004a2.28 2.28 0 0 0-.352.074c-1.777.48-3.623.742-6.305.895l-2.933.168-.07 1.777c-.066 1.6-.012 1.84.539 2.432.566.61.776.66 2.882.648 2.368-.012 3.778-.381 4.649-1.215C48.736 44.17 50 41.342 50 40.52c0-.409-.047-.542-.316-.516z" opacity=".2"/>
    <path d="M14.225 16.002c-.174-.02-.363.095-.586.312-.365.355-.446 1.284-.563 6.375-.075 3.278-.099 6.043-.05 6.147.27.582 3.343-.495 4.431-1.555L18 26.75l-.67-1.11c-.435-.72-.93-2.332-1.414-4.595-.785-3.668-1.17-4.981-1.691-5.043zm35.55 0c-.52.062-.906 1.375-1.691 5.043-.484 2.263-.98 3.874-1.414 4.596L46 26.75l.543.531c1.088 1.06 4.162 2.137 4.432 1.555.048-.104.024-2.869-.051-6.147-.117-5.09-.198-6.02-.563-6.375-.223-.217-.412-.333-.586-.312zM26.185 23a2.372 2.372 0 0 0-1.205.328c-.448.253-2.112 1.835-3.699 3.516-2.412 2.554-3.117 3.147-4.308 3.633-1.876.764-3.456 1.052-4.754.656-1.762-.538-2.715.364-1.957 1.96.722 1.523 3.611 2.904 7.437 3.555 5.312.905 8.83.37 12.563-2.691.715-.587 1.507-1.07 1.761-1.07.255 0 1.125.543 1.93 1.203 1.913 1.567 2.846 1.765 5.113 2.445 1.614.484 2.243.54 4.512.395 4.772-.304 7.964-1.33 9.645-3.102.566-.596.777-1.054.777-1.674 0-1.242-.659-1.357-2.34-.918-1.02.267-1.59.079-2.617-.156-2.516-.576-3.654-1.366-6.586-4.572-2.278-2.49-3.217-3.452-4.457-3.5-.744-.028-1.596.275-2.91.777C33.696 24.318 32.26 25 31.902 25s-1.466-.598-2.457-1.027c-1.544-.67-2.508-.976-3.26-.973zM14.253 39c-.132-.004-.214.003-.232.023-.073.083.063.855.3 1.711.52 1.877 1.632 3.33 2.957 3.864 1.319.53 4.83.537 5.723.011.714-.42 1-1.298 1-3.086 0-1.762-.055-1.798-2.78-1.798-1.363-.002-3.512-.19-4.775-.422-.947-.176-1.797-.291-2.193-.303zm35.432.004a2.28 2.28 0 0 0-.352.074c-1.777.48-3.623.742-6.305.895l-2.933.168-.07 1.777c-.066 1.599-.012 1.84.538 2.432.567.61.777.659 2.883.648 2.368-.012 3.778-.381 4.649-1.215C48.736 43.17 50 40.341 50 39.52c0-.409-.047-.542-.316-.516z" fill="#F9F5D7"/>
</svg>
