<svg xmlns="http://www.w3.org/2000/svg" width="64" height="64" version="1">
    <circle cx="32" cy="33" r="28" opacity=".2"/>
    <circle cx="32" cy="32" r="28" fill="#F9BD2E"/>
    <circle cx="32" cy="33" r="24" opacity=".2"/>
    <circle cx="32" cy="32" r="24" fill="#E6D3A3"/>
    <path d="M29.733 8.129a24 24 0 0 0-8.685 2.52c.12.384-.02.817-.462 1.2-.3.258-.544.662-.544.897 0 .72.65 1.825 1.17 1.985.69.214.458.95-.43 1.357-.41.188-.915.73-1.122 1.205-.207.475-.512.943-.678 1.04-.164.099-.3.47-.3.826 0 .498.228.739.976 1.038.535.215 1.176.37 1.424.347 1.43-.135 1.53.698.28 2.325-.664.864-.983 1.081-1.435.972-.421-.1-.652.018-.844.436-.201.443-.533.593-1.422.654-.875.061-1.266.239-1.593.717-.24.35-.586.633-.77.633-.184 0-.616.235-.96.52-.702.583-.976.641-1.222.261-.325-.504-1.026-.25-2.07.75-.922.883-1.034 1.12-.894 1.886.247 1.365.987 2.576 1.832 2.998.738.368.752.408.305.88-.257.273-.698.565-.98.65-.812.247-.355.557 1.095.742 1.484.188 1.945.726 1.251 1.459-.386.409-.364.486.256.875 1.212.76 2.176.295 1.038-.502-.731-.512-.22-.721.853-.35.856.297 1.025.28 1.53-.159 1.038-.899 2.166.431 1.217 1.434-.603.64-.421 1.41.361 1.517.346.047 1.064.368 1.596.715.533.346 1.114.63 1.29.63.174 0 .669.352 1.098.781.872.87 1.355.98 1.601.368.295-.737.177-1.118-.619-1.985-.632-.691-1.66-2.527-1.66-2.968 0-.271 1.044-.04 1.63.359.366.25.959.574 1.318.72.381.156.777.64.958 1.171.282.833.394.905 1.392.905H28.6l.165 1.95c.196 2.346.385 2.821 1.19 3.014.593.143 1.225 1.061 1.225 1.779 0 .19-.426.659-.947 1.039-.645.472-.924.872-.88 1.265.054.49-.058.567-.753.516-.447-.034-1.225.123-1.724.349a3.132 3.132 0 0 1-1.834.244c-.691-.124-.925-.076-.925.194 0 .2-.242.571-.538.828-.73.632-.428.967.693.766.696-.125.967-.07 1.087.23.256.637-.392 1.55-.994 1.4-.381-.097-.564.034-.682.484-.041.16-.117.295-.207.41a24 24 0 0 0 3.798 1.122c-.12-.229-.257-.438-.39-.531-.618-.437-.204-1.572.647-1.776.868-.209.73-.772-.212-.88-.827-.093-1.707-.931-1.43-1.36.185-.286.976-.244 2.576.135.722.17 1.215-.173 2.89-2.004.968-1.06 1.713-1.502 2.53-1.502.312 0 1.424-.287 2.473-.638 1.98-.663 2.754-.64 2.681.084-.151 1.505.817 1.455 2.395-.122.658-.656 1.259-1.132 1.337-1.057.301.289-.241 1.697-.875 2.267-.803.722-.842 1.178-.135 1.54.386.198.55.6.612 1.504l.081 1.234h1.003c.352 0 .644.048.879.138a24 24 0 0 0 11.628-19.808c-.367-.784-.341-1.258 0-1.792a24 24 0 0 0-.108-1.346 7.402 7.402 0 0 0-.699-.01c-1.21.051-2.245-.425-2.245-1.032 0-.129-.43-.658-.954-1.175-.595-.586-.9-1.104-.811-1.373.082-.245-.094-.64-.403-.907-.301-.262-.549-.682-.549-.934 0-.402-.255-.452-2.104-.408l-2.105.052.036 2.075c.062 3.633.603 4.576 2.273 3.968.764-.28 2.642-.068 3.176.355.193.154.473.71.62 1.239.15.526.699 1.44 1.224 2.026 1.064 1.19 1.146 1.655.537 3.052-.532 1.22-1.105 1.079-.991-.244l.084-.984-.9.168c-.498.095-1.122.462-1.402.826-.398.517-.584.593-.883.356a1.124 1.124 0 0 1-.378-.774c0-.259-.257-.547-.569-.642-.313-.094-.742-.566-.952-1.05-.337-.772-.328-1.009.064-1.947.397-.952.4-1.109.035-1.46-.336-.322-.51-.333-.952-.068-.444.265-.654.246-1.182-.108-.351-.236-.967-.432-1.365-.432-.81 0-1.055-.393-1.055-1.697 0-1.203-.718-1.64-2.427-1.483-1.185.11-1.447.031-2.403-.705-.592-.455-1.525-1.55-2.077-2.435a66.923 66.923 0 0 0-1.32-2.056c-.25-.354-.189-.693.3-1.657l.616-1.212-1.303.176c-2.318.314-2.787.614-1.79 1.149.389.207.405.314.105.661-.196.226-.289.584-.204.797.086.211-.022.71-.238 1.107-.218.399-.399.957-.406 1.244-.023.894-1.554 1.605-3.26 1.51-2.585-.142-2.795-.102-3.713.75-1.147 1.066-1.295 1.562-.761 2.55.517.96 1.436 1.343 3.028 1.264 1.423-.07 1.584.055 1.258.996-.277.8-1.206 1.106-1.836.607-.484-.385-2.156-.087-2.668.477-.215.235-.534.854-.708 1.372-.3.896-.388.95-1.732 1.08-1.342.131-1.471.088-2.436-.801-1.076-.991-1.259-1.75-.74-3.055.23-.579.4-.674 1.015-.56 1.217.221 1.697-.201 1.697-1.5 0-.63-.123-1.22-.273-1.309-.149-.089-.271-.422-.271-.743 0-.32-.154-.733-.34-.914-.272-.264-.232-.406.202-.713.298-.21.787-.351 1.087-.315.299.036 1.126-.094 1.837-.287 1.029-.277 1.331-.487 1.47-1.029.264-1.027.909-1.851 1.449-1.851.853 0 .871-2.007.042-4.925-.123-.43-.46-.704-1.055-.852-.482-.12-1.007-.449-1.165-.732-.157-.283-.447-.513-.642-.513-.196 0-.579-.234-.849-.52-.272-.288-.835-.52-1.263-.52-1.014 0-1.031-.699-.025-1.067 1.062-.39 2.715.12 3.115.96.541 1.14 1.142.664 1.335-1.056.24-2.128.974-2.74 3.288-2.74h1.665l-.73-.729a2.902 2.902 0 0 1-.546-.778zm8.628.755c-.047.042-.092.076-.138.124-.557.568-.818.65-1.679.518-1.502-.23-1.309.376.354 1.106.9.395 1.478.845 1.674 1.3.948 2.199 1.601 3.382 1.929 3.502.662.244 1.057-.245 1.205-1.495.169-1.434.654-1.738 1.525-.954.338.304.811.553 1.05.553.745 0 1.296.3 1.296.703 0 .213.252.726.56 1.141.455.611.763.758 1.613.758 1.043 0 1.682.195 2.988.916.02.011.04.015.061.026a24 24 0 0 0-12.438-8.198zM8.005 31.897A24 24 0 0 0 8 32a24 24 0 0 0 .469 4.61c.87.355 1.11.214 1.2-.594.047-.42.265-.893.487-1.058.344-.253.282-.382-.422-.862-.455-.311-.903-.854-.996-1.205-.089-.341-.39-.713-.733-.994zm7.554 7.933c-.224-.022-.495.098-.795.386-.635.607-.539 1.827.18 2.31.825.553 1.143.392 1.247-.628.129-1.258-.14-2.016-.632-2.068zm4.073 3.63c-.245.007-.515.183-.785.552-.287.392-.365.897-.256 1.664.136.943.077 1.144-.416 1.398-.635.324-.77 1.288-.25 1.785.515.495 1.007.365 1.185-.312.252-.965 1.664-1.077 2.629-.211.412.37.748.557.748.415 0-.141-.429-.656-.952-1.141-.8-.744-.95-1.06-.95-2.018 0-1.352-.413-2.15-.953-2.133zm-6.689 3.098a24 24 0 0 0 .556.7 4.28 4.28 0 0 0-.556-.7zm8.088 3.684c-.121.042-.173.194-.173.462 0 .27-.173.555-.384.632-.28.103-.345.428-.237 1.205.02.145.026.261.033.383a24 24 0 0 0 .999.512c-.017-.415.058-.904.276-1.516.368-1.039.381-1.3.081-1.482-.28-.17-.473-.238-.595-.196z" opacity=".4"/>
    <path d="M59.953 31.676C58.481 32.476 46.107 39 32 39c-14.075 0-26.413-6.487-27.934-7.313A28 28 0 0 0 4 33a28 28 0 0 0 .602 5.629C10.047 41.11 20.373 45 32 45c11.65 0 21.993-3.905 27.43-6.387A28 28 0 0 0 60 33a28 28 0 0 0-.047-1.324z" opacity=".2"/>
    <path d="M59.953 30.676C58.481 31.476 46.107 38 32 38c-14.075 0-26.413-6.487-27.934-7.313A28 28 0 0 0 4 32a28 28 0 0 0 .602 5.629C10.047 40.11 20.373 44 32 44c11.65 0 21.993-3.905 27.43-6.387A28 28 0 0 0 60 32a28 28 0 0 0-.047-1.324z" fill="#F9BD2E"/>
    <path d="M32 4A28 28 0 0 0 4 32a28 28 0 0 0 .018.492A28 28 0 0 1 32 5a28 28 0 0 1 27.975 27.492A28 28 0 0 0 60 32 28 28 0 0 0 32 4z" opacity=".2" fill="#F9F5D7"/>
    <path d="M63.958 45.848A16 16 0 0 1 48 61a16 16 0 0 1-15.958-14.848A16 16 0 0 0 32 47a16 16 0 0 0 16 16 16 16 0 0 0 16-16 16 16 0 0 0-.042-1.152z" opacity=".2" fill-rule="evenodd"/>
    <circle cx="48" cy="46" r="16" fill="#504945"/>
    <path d="M46 38l-.176 2.107a6.286 6.286 0 0 0-1.837 1.063l-1.916-.902-2 3.464 1.74 1.208a6.286 6.286 0 0 0-.097 1.06 6.286 6.286 0 0 0 .092 1.065l-1.735 1.203 2 3.464 1.91-.9a6.286 6.286 0 0 0 1.842 1.056L46 54h4l.176-2.107a6.286 6.286 0 0 0 1.837-1.063l1.915.902 2-3.464-1.738-1.208a6.286 6.286 0 0 0 .096-1.06 6.286 6.286 0 0 0-.092-1.065l1.735-1.203-2-3.464-1.911.9a6.286 6.286 0 0 0-1.842-1.057L50 38h-4zm2 5.714A2.286 2.286 0 0 1 50.286 46 2.286 2.286 0 0 1 48 48.286 2.286 2.286 0 0 1 45.714 46 2.286 2.286 0 0 1 48 43.714z" fill="#F9F5D7"/>
</svg>
