<svg xmlns="http://www.w3.org/2000/svg" width="64" height="64">
    <path d="M2.183 12.85a3.003 3.003 0 0 0 2.862 4.004h3.002v-2.045H5.045a3.003 3.003 0 0 1-2.862-1.982zm59.766 0a3.003 3.003 0 0 1-2.86 2.002h-3.003v2.044h3.002a3.003 3.003 0 0 0 2.862-4.022zm-53.9 7.006V21.9a3.003 3.003 0 0 0 3.001 3.003h7.006v-2.045H11.05a3.003 3.003 0 0 1-3.002-3.002zm48.037 0a3.003 3.003 0 0 1-3.002 3.002h-7.006v2.045h7.006a3.003 3.003 0 0 0 3.002-3.003v-2.044zm-42.033 25.02v2.044h4.003v1.052c0 6.07 4.998 10.958 11.208 10.958h5.606c6.21 0 11.208-4.888 11.208-10.958V46.92h4.003v-2.044h-4.003v1.051c0 6.07-4.998 10.958-11.208 10.958h-5.606c-6.21 0-11.209-4.804-11.209-11.009v-1.05h-4.003zM2.184 50.9a3.003 3.003 0 0 0 2.862 4.003h3.002v-2.044H5.046a3.003 3.003 0 0 1-2.862-1.983zm59.765 0a3.003 3.003 0 0 1-2.86 2.001h-3.002v2.045h3.002a3.003 3.003 0 0 0 2.862-4.023zm-53.9 5.004v2.044a3.003 3.003 0 1 0 6.004 0v-2.044a3.003 3.003 0 1 1-6.004 0zm42.033 0v2.044a3.003 3.003 0 1 0 6.005 0v-2.044a3.003 3.003 0 1 1-6.005 0z" opacity=".2" fill-rule="evenodd"/>
    <path d="M29.264 6.044h5.605c6.21 0 11.208 4.887 11.208 10.956v30.13c0 6.07-4.999 10.956-11.208 10.956h-5.605c-6.21 0-11.209-4.886-11.209-10.956V17c0-6.07 5-10.956 11.21-10.956z" fill="#B7BB25"/>
    <g fill="none" stroke="#B7BB25" stroke-width="3" stroke-linecap="round" stroke-linejoin="round">
        <path d="M11.05 7.045v14.011h14.01M5.045 13.05h4.003" stroke-width="6.00474"/>
    </g>
    <path d="M11.05 7.045v14.011h14.01M5.045 13.05h4.003M11.05 57.084v-14.01h14.01M5.045 51.08h4.003M53.083 7.045v14.011H39.072M59.088 13.05h-4.003M53.083 57.084v-14.01H39.072M59.088 51.08h-4.003" fill="none" stroke="#B7BB25" stroke-width="6.005" stroke-linecap="round" stroke-linejoin="round"/>
    <path d="M11.004 4.004a3.003 3.003 0 0 0-2.957 3.04v1a3.003 3.003 0 0 1 2.957-3.04 3.003 3.003 0 0 1 3.049 3.04v-1a3.003 3.003 0 0 0-3.05-3.04zm42.031 0a3.003 3.003 0 0 0-2.955 3.04v1a3.003 3.003 0 0 1 2.955-3.04 3.003 3.003 0 0 1 3.049 3.04v-1a3.003 3.003 0 0 0-3.049-3.04zm-23.771 2.04c-6.211 0-11.21 4.888-11.21 10.958v1c0-6.07 4.999-10.957 11.21-10.957h5.603c6.211 0 11.21 4.887 11.21 10.957v-1c0-6.07-4.999-10.957-11.21-10.957h-5.603zm-24.22 4.003a3.003 3.003 0 0 0-2.997 3.496 3.003 3.003 0 0 1 2.998-2.494h3.002v-1.002H5.045zm51.04 0v1.002h3.002a3.003 3.003 0 0 1 3 2.494 3.003 3.003 0 0 0-3-3.496h-3.002zm-42.033 8.008v1h4.004v-1H14.05zm32.025 0v1h4.004v-1h-4.004zM11.05 40.07a3.003 3.003 0 0 0-3.002 3.004v1a3.003 3.003 0 0 1 3.002-3.002h7.006V40.07h-7.006zm35.027 0v1.002h7.006a3.003 3.003 0 0 1 3.002 3.002v-1a3.003 3.003 0 0 0-3.002-3.004h-7.006zM5.045 48.078a3.003 3.003 0 0 0-2.998 3.494 3.003 3.003 0 0 1 2.998-2.494h3.002v-1H5.045zm51.039 0v1h3.002a3.003 3.003 0 0 1 3 2.494 3.003 3.003 0 0 0-3-3.494h-3.002z" opacity=".2" fill="#F9F5D7" fill-rule="evenodd"/>
    <circle cx="22" cy="10" r="6" fill="#8F3F71"/>
    <circle cx="22.059" cy="10.997" r="4.003" opacity=".2"/>
    <circle cx="22" cy="10" r="4" fill="#F9F5D7"/>
    <circle cx="42" cy="10" r="6" fill="#8F3F71"/>
    <circle cx="42.074" cy="10.997" r="4.003" opacity=".2"/>
    <circle cx="42" cy="10" r="4" fill="#F9F5D7"/>
</svg>
