<svg xmlns="http://www.w3.org/2000/svg" width="64" height="64" version="1">
    <path d="M4 56v2c0 1.662 1.338 3 3 3h50c1.662 0 3-1.338 3-3v-2c0 1.662-1.338 3-3 3H7c-1.662 0-3-1.338-3-3z" opacity=".2"/>
    <rect width="56" height="56" x="4" y="4" rx="3" ry="3" fill="#928274"/>
    <path d="M7 4C5.338 4 4 5.338 4 7v1c0-1.662 1.338-3 3-3h50c1.662 0 3 1.338 3 3V7c0-1.662-1.338-3-3-3H7z" opacity=".1" fill="#F9F5D7"/>
    <path d="M32.004 21l-.004.004c-4.195 0-7.779 1.553-9.264 3.75a4.625 4.625 0 0 0-.328.564c-.09.184-.166.369-.226.559a10 5.998 0 0 0-.043.176c-.035.129-.072.259-.092.39a10 5.998 0 0 0-.047.559c0 .195.019.389.05.582a10 5.998 0 0 0 .137.562 10 5.998 0 0 0 .231.561 10 5.998 0 0 0 .318.545A10 5.998 0 0 0 32 33a10 5.998 0 0 0 9.264-3.748 10 5.998 0 0 0 .002-.006 10 5.998 0 0 0 .271-.463c.016-.03.036-.061.05-.092a10 5.998 0 0 0 .165-.398c.023-.063.052-.124.072-.188a10 5.998 0 0 0 .082-.334c.02-.087.04-.173.053-.261a10 5.998 0 0 0 .041-.508 10 5.998 0 0 0-.053-.598c-.092-.584-.33-1.137-.68-1.654-1.485-2.197-5.07-3.75-9.263-3.75zm-9.268 11A10 5.09 0 0 0 22 33.91 10 5.09 0 0 0 32 39a10 5.09 0 0 0 10-5.092A10 5.09 0 0 0 41.264 32 10 5.09 0 0 1 32 35.182 10 5.09 0 0 1 22.736 32zm0 6A10 5.09 0 0 0 22 39.908 10 5.09 0 0 0 32 45a10 5.09 0 0 0 10-5.09 10 5.09 0 0 0-.736-1.91A10 5.09 0 0 1 32 41.184 10 5.09 0 0 1 22.736 38z" opacity=".1"/>
    <path d="M32.004 20l-.004.004c-4.195 0-7.779 1.553-9.264 3.75a4.625 4.625 0 0 0-.328.564c-.09.184-.166.369-.226.559a10 5.998 0 0 0-.043.176c-.035.129-.072.259-.092.39a10 5.998 0 0 0-.047.559c0 .195.019.389.05.582a10 5.998 0 0 0 .137.562 10 5.998 0 0 0 .231.561 10 5.998 0 0 0 .318.545A10 5.998 0 0 0 32 32a10 5.998 0 0 0 9.264-3.748 10 5.998 0 0 0 .002-.006 10 5.998 0 0 0 .271-.463c.016-.03.036-.061.05-.092a10 5.998 0 0 0 .165-.398c.023-.063.052-.124.072-.188a10 5.998 0 0 0 .082-.334c.02-.087.04-.173.053-.261a10 5.998 0 0 0 .041-.508 10 5.998 0 0 0-.053-.598c-.092-.584-.33-1.137-.68-1.654-1.485-2.197-5.07-3.75-9.263-3.75zm-9.268 11A10 5.09 0 0 0 22 32.91 10 5.09 0 0 0 32 38a10 5.09 0 0 0 10-5.092A10 5.09 0 0 0 41.264 31 10 5.09 0 0 1 32 34.182 10 5.09 0 0 1 22.736 31zm0 6A10 5.09 0 0 0 22 38.908 10 5.09 0 0 0 32 44a10 5.09 0 0 0 10-5.09 10 5.09 0 0 0-.736-1.91A10 5.09 0 0 1 32 40.184 10 5.09 0 0 1 22.736 37z" fill="#504945"/>
</svg>
