<svg xmlns="http://www.w3.org/2000/svg" width="64" height="64">
    <path d="M32 5a26 28 0 0 0-21.629 12.492A6 6 0 0 0 8 17a6 6 0 0 0-6 6 6 6 0 0 0 4.332 5.758A26 28 0 0 0 6 33a26 28 0 0 0 26 28 26 28 0 0 0 2.355-.137l-.039.032C46.703 60.242 56.29 58.148 60 57c-5.17-1.67-5.863-7.556-4.598-11.883A26 28 0 0 0 58 33a26 28 0 0 0-.32-4.242A6 6 0 0 0 62 23a6 6 0 0 0-6-6 6 6 0 0 0-2.371.496A26 28 0 0 0 32 5z" opacity=".2" fill-rule="evenodd"/>
    <ellipse cx="32" cy="32" rx="26" ry="28" fill="#F9F5D7"/>
    <circle cx="56" cy="22" r="6" fill="#F9F5D7"/>
    <circle cx="8" cy="22" r="6" fill="#F9F5D7"/>
    <path d="M34.318 59.893C46.704 59.24 56.29 57.148 60 56c-6.163-1.99-6-10-3.692-14.18z" fill="#F9F5D7"/>
    <ellipse cx="25.938" cy="20.712" rx="5.934" ry="8.048" transform="matrix(.9842 .17701 -.17034 .98538 0 0)" opacity=".1"/>
    <ellipse cx="25.768" cy="19.728" rx="5.934" ry="8.048" transform="matrix(.9842 .17701 -.17034 .98538 0 0)" fill="#3A393A"/>
    <ellipse cx="37.105" cy="32.014" rx="5.932" ry="8.05" transform="matrix(.98434 -.1763 .17103 .98527 0 0)" opacity=".1"/>
    <ellipse cx="37.276" cy="31.03" rx="5.932" ry="8.05" transform="matrix(.98434 -.1763 .17103 .98527 0 0)" fill="#3A393A"/>
    <path d="M32 4a26 28 0 0 0-21.629 12.492A6 6 0 0 0 8 16a6 6 0 0 0-6 6 6 6 0 0 0 .027.484A6 6 0 0 1 8 17a6 6 0 0 1 2.371.492A26 28 0 0 1 32 5a26 28 0 0 1 21.629 12.496A6 6 0 0 1 56 17a6 6 0 0 1 5.975 5.488A6 6 0 0 0 62 22a6 6 0 0 0-6-6 6 6 0 0 0-2.371.496A26 28 0 0 0 32 4zm25.879 25.688a6 6 0 0 1-.2.07 26 28 0 0 1 .09.969 6 6 0 0 0 .11-.04 26 28 0 0 1 .103 1.977A26 28 0 0 0 58 32a26 28 0 0 0-.121-2.313zm-51.746.003A26 28 0 0 0 6 32a26 28 0 0 0 .025.547 26 28 0 0 1 .108-1.856 6 6 0 0 0 .097.034 26 28 0 0 1 .102-.967 6 6 0 0 1-.2-.067zm48.785 19.23c-.038.503-.04 1.009-.02 1.513.007-.171.007-.342.02-.512.215 2.61 1.287 5.084 3.66 6.447.508-.127 1.078-.263 1.422-.369-3.383-1.093-4.827-3.993-5.082-7.078z" opacity=".2" fill="#F9F5D7" fill-rule="evenodd"/>
</svg>
