<svg xmlns="http://www.w3.org/2000/svg" width="64" height="64" version="1">
    <path fill="#504945" d="M10 22h44v20H10z"/>
    <path d="M5.89 23c-.25.656-.479 1.322-.68 2h53.58a30.542 30.542 0 0 0-.682-2H5.888zm-.68 18c3.432 11.58 14.067 20 26.788 20 12.722 0 23.358-8.42 26.79-20h-.68c-4.01 10.536-14.134 18-26.11 18-11.976 0-22.1-7.464-26.11-18H5.21z" opacity=".2"/>
    <path d="M32 4C19.276 4 8.64 12.42 5.21 24H58.79C55.357 12.42 44.721 4 32 4zM5.21 40C8.643 51.58 19.278 60 32 60c12.722 0 23.358-8.42 26.79-20H5.21z" fill="#F9F5D7"/>
    <circle cx="31.999" cy="33" r="6" opacity=".2"/>
    <circle cx="31.999" cy="32" r="6" fill="#FA4934"/>
    <circle cx="45.999" cy="33" r="6" opacity=".2"/>
    <circle cx="45.999" cy="32" r="6" fill="#FA4934"/>
    <circle cx="17.997" cy="33" r="6" opacity=".2"/>
    <circle cx="17.997" cy="32" r="6" fill="#FA4934"/>
    <path d="M32 4C19.278 4 8.64 12.42 5.21 24h.34C9.287 12.944 19.65 5 32 5s22.712 7.944 26.45 19h.34C55.356 12.42 44.721 4 32 4zM5.21 40c.101.339.227.667.34 1h52.901c.114-.333.239-.661.34-1H5.211z" opacity=".2" fill="#F9F5D7"/>
</svg>
