<svg xmlns="http://www.w3.org/2000/svg" width="64" height="64" version="1">
    <circle cx="32" cy="33" r="28" opacity=".2"/>
    <path d="M31.988 59.97A27.924 27.924 0 0 1 4.003 31.984c0-.235-.006-.466 0-.7.37 15.177 12.716 27.286 27.985 27.286 15.27 0 27.616-12.108 27.986-27.285.006.233 0 .464 0 .7A27.924 27.924 0 0 1 31.988 59.97z" opacity=".1"/>
    <path d="M8.7 16.504c-.482.732-.928 1.517-1.38 2.293a28 28 0 0 0-3.06 17.036c1.87 13.65 14.147 8.183 28.31 8.183L33 44l12.688-6.062c-1.062 1.73-5.487 3.945-7.375 5.035-6.042 3.488-13.715 1.233-17.203-4.809z" fill="#578D57"/>
    <path d="M32.032 18c-.031 0 4.444 1.996 6.332 3.086 4.824 2.786 5.328 12.735 5.34 16.762l.808.469-.824 1.425v.067l-.313.472-11.234 5.133c.074.002.148.008.222.008.387-.006.774-.02 1.16-.043.225-.01.449-.012.672-.027.883-.066 1.761-.172 2.633-.32L37 45c11.832-2.085 20.69 3.155 22.616-8.37.253-1.51.384-3.056.384-4.63a28 28 0 0 0-3.793-14z" fill="#FECE4F"/>
    <path d="M31.989 4a28 28 0 0 0-.485.016 28 28 0 0 0-1.484.055 28 28 0 0 0-.082.012 28 28 0 0 0-2.531.304c-.086.014-.173.025-.258.04l-.016.003a28 28 0 0 0-2.62.59A28 28 0 0 0 19.3 7.047a28 28 0 0 0-.62.356A28 28 0 0 0 7.765 18.02l11.379 19.71.238.477.059.035.535.93 4.91 3.945 1.363-.582 1.563.985c-.185-.341-.37-.85-.55-1.418l9.183-3.926-9.504-16.465c.87-2.005 2.39-3.412 5.058-3.71h24.207a28 28 0 0 0-1.52-2.352 28 28 0 0 0-1.71-2.14 28 28 0 0 0-.075-.087 28 28 0 0 0-1.816-1.863 28 28 0 0 0-.191-.176 28 28 0 0 0-1.918-1.605 28 28 0 0 0-.27-.203 28 28 0 0 0-1.98-1.348 28 28 0 0 0-.383-.234 28 28 0 0 0-1.992-1.086 28 28 0 0 0-.567-.27 28 28 0 0 0-1.914-.8 28 28 0 0 0-.738-.274A28 28 0 0 0 39.289 5a28 28 0 0 0-.925-.238 28 28 0 0 0-1.723-.344 28 28 0 0 0-1.098-.164 28 28 0 0 0-1.57-.156A28 28 0 0 0 32 4.001a28 28 0 0 0-.011 0z" fill="#CB241D"/>
    <path d="M32 4A28 28 0 0 0 4 32a28 28 0 0 0 .018.492A28 28 0 0 1 32 5a28 28 0 0 1 27.973 27.5 28 28 0 0 0 .025-.5A28 28 0 0 0 32 4z" opacity=".2" fill="#F9F5D7"/>
    <rect width="28" height="28" x="-47" y="-46" rx="14" ry="14" transform="matrix(0 -1 -1 0 0 0)" opacity=".2"/>
    <rect width="28" height="28" x="-46" y="-46" rx="14" ry="14" transform="matrix(0 -1 -1 0 0 0)" fill="#F9F5D7"/>
    <rect width="22" height="22" x="-43" y="-43" rx="11" ry="11" transform="matrix(0 -1 -1 0 0 0)" fill="#066678"/>
    <path d="M4.316 36a28 28 0 0 0 22.122 23.441 28 28 0 0 0 2.458.371c.124.018.247.04.372.051a28 28 0 0 0 .005 0 28.324 28 0 0 0 2.631.133c.033 0 .067.004.1.004a28 28 0 0 0 .008 0 28 28 0 0 0 1.506-.055c.238-.014.475-.028.712-.047a28 28 0 0 0 2.116-.255c.164-.02.327-.044.49-.069A28 28 0 0 0 59.678 36H4.316z" fill="#504945"/>
    <path d="M18 41v11.999h5.338C24.816 53 26 51.044 26 49.567c0-.922-.464-2.197-1.172-2.87.708-.674 1.172-1.744 1.172-2.666C26 42.554 24.816 41 23.338 41h-4.006zm1.332 1.035h4.006c.762 0 1.33 1.235 1.33 1.996 0 .762-.57 1.963-1.33 2.002h-4.006zM35.93 43c0 .864.011 1.29.011 2h-1.343v1.032h1.351c.015 2.31.065 4.353.34 5.316.199.696.634 1.239 1.195 1.457.562.218 1.115.195 1.782.195v-1.336c-.667 0-1.113-.024-1.301-.097-.189-.074-.256-.116-.39-.586-.186-.65-.248-2.649-.278-4.949h1.3V45h-1.312c-.004-.713-.02-1.134-.02-2zm-5.307 2c-.724 0-1.362.158-1.912.485a3.35 3.35 0 0 0-1.268 1.394c-.295.605-.443 1.734-.443 2.578 0 .864.162 1.188.488 1.774.337.585.8 1.027 1.39 1.324.592.297 1.28.445 2.065.445.56 0 1.046-.042 1.453-.129.408-.076.82-.202 1.239-.375v-1.009c-.428.173-.848.31-1.256.406a6.52 6.52 0 0 1-1.375.13c-.815 0-1.454-.226-1.912-.677-.449-.46-.681-1.484-.701-2.357h.007v.023H34v-.133c0-.7-.135-1.712-.41-2.23a2.824 2.824 0 0 0-1.162-1.219c-.51-.288-1.112-.43-1.805-.43zm12.438 0c-.561 0-1.05.043-1.457.13-.408.076-.82.198-1.239.37v1.11c.428-.173.848-.31 1.256-.407A6.56 6.56 0 0 1 43 46.074c.815 0 1.45.224 1.908.675.214.22.377.85.492 1.227l-.875.027c-1.537.043-2.674.299-3.414.77-.74.46-1.111.818-1.111 1.674 0 .877.286 1.526.85 1.943.563.406 1.272.61 2.129.61.786 0 1.405-.116 1.863-.34.261-.129.513-.307.76-.516v.855H47v-3.703h-.004c0-.02.004-.038.004-.058 0-.864-.162-1.888-.488-2.473a3.271 3.271 0 0 0-1.39-1.324c-.592-.298-1.277-.442-2.061-.442zm-12.454 1.032c.683 0 1.186.204 1.502.617.215.273.327 1.024.4 1.412h-3.954c.112-.411.272-1.175.525-1.44.377-.393.885-.59 1.527-.59zm-11.275 1.034h4.006c.762 0 1.33 1.74 1.33 2.502 0 .762-.568 2.496-1.33 2.496h-4.006zm26.248 1.887c.01.116.022.229.025.344h-.003v1.774c-.09.106-.187.209-.301.295-.528.396-1.186.598-1.973.598-.505 0-.923-.116-1.252-.34-.317-.225-.472-.675-.472-1.157 0-.546.22-.67.666-.969.457-.3 1.275-.474 2.449-.517z" opacity=".2"/>
    <path d="M18 40v12h5.338C24.816 52 26 50.045 26 48.568c0-.922-.464-2.197-1.172-2.87.708-.674 1.172-1.744 1.172-2.666C26 41.555 24.816 40 23.338 40h-4.006zm1.332 1.036h4.006c.762 0 1.33 1.234 1.33 1.996s-.57 1.963-1.33 2.001h-4.006zM35.93 42c0 .864.011 1.29.011 2h-1.343v1.032h1.351c.015 2.31.065 4.353.34 5.316.199.696.634 1.238 1.195 1.457.562.218 1.115.195 1.782.195v-1.336c-.667 0-1.113-.024-1.301-.098-.189-.073-.256-.115-.39-.586-.186-.65-.248-2.648-.278-4.948h1.3V44h-1.312c-.004-.714-.02-1.134-.02-2zm-5.307 2c-.724 0-1.362.158-1.912.484a3.35 3.35 0 0 0-1.268 1.395c-.295.604-.443 1.734-.443 2.578 0 .864.162 1.188.488 1.773.337.586.8 1.027 1.39 1.325.592.297 1.28.445 2.065.445.56 0 1.046-.043 1.453-.129.408-.077.82-.202 1.239-.375v-1.01c-.428.173-.848.311-1.256.407a6.52 6.52 0 0 1-1.375.129c-.815 0-1.454-.225-1.912-.676-.449-.46-.681-1.485-.701-2.358h.007v.024H34v-.133c0-.7-.135-1.712-.41-2.23a2.824 2.824 0 0 0-1.162-1.22c-.51-.287-1.112-.429-1.805-.429zm12.438 0c-.561 0-1.05.043-1.457.129-.408.077-.82.198-1.239.371v1.11c.428-.173.848-.31 1.256-.407A6.56 6.56 0 0 1 43 45.074c.815 0 1.45.225 1.908.676.214.22.377.85.492 1.227l-.875.027c-1.537.043-2.674.299-3.414.77-.74.46-1.111.817-1.111 1.673 0 .878.286 1.526.85 1.944.563.406 1.272.609 2.129.609.786 0 1.405-.115 1.863-.34.261-.128.513-.306.76-.515V52H47v-3.703h-.004c0-.02.004-.038.004-.059 0-.863-.162-1.887-.488-2.472a3.271 3.271 0 0 0-1.39-1.325C44.53 44.144 43.844 44 43.06 44zm-12.454 1.031c.683 0 1.186.205 1.502.617.215.274.327 1.025.4 1.413h-3.954c.112-.411.272-1.175.525-1.44.377-.393.885-.59 1.527-.59zm-11.275 1.035h4.006c.762 0 1.33 1.74 1.33 2.502 0 .762-.568 2.496-1.33 2.496h-4.006zm26.248 1.887c.01.116.022.229.025.344h-.003v1.773c-.09.106-.187.21-.301.296-.528.395-1.186.597-1.973.597-.505 0-.923-.115-1.252-.34-.317-.224-.472-.675-.472-1.156 0-.546.22-.67.666-.969.457-.3 1.275-.475 2.449-.518z" fill="#F9F5D7"/>
</svg>
