<svg xmlns="http://www.w3.org/2000/svg" width="64" height="64">
    <path d="M27.52 28.9c-3.35-.832-5.599-1.935-6.184-5.749-.149-.97-.374-1.762-.5-1.762-.127 0-1.046.41-2.041.913-1.027.518-2.358.74-3.337.685-1.803-.102-3.429-1.445-4.527-3.321-.443-.757-.806-1.616-.807-2.276-.001-.952-.014-1.497-1.057-1.532-1.653.246-2.696-.034-3.381-.758-.585-.61-.798-2.826-.798-3.24 0-.414-1.26-.585-1.987-1.366-.904-.972-1.362-1.378-.237-1.382 4.658.339 9 .924 13.696.949 6.17-.05 10.44-.42 16.516-1.051.577.2 2.037 2.24 2.271 6.644.19 3.573-.832 6.054-1.783 10.74-.663 2.835-3.427 2.97-5.844 2.506z" opacity=".2"/>
    <path d="M32.592 9s.597 1.647.804 5.525c.192 3.582-.236 8.209-1.194 12.907 0 0-.377 1.46-1.83 10.174-.585 3.494-1.162 8.705-1.283 11.08-.19 3.733-.11 4.522.586 5.829 1.03 1.933 3.614 3.438 5.828 3.447l1.706.007-.198-3.198c-.348-5.626 2.147-12.07 6.047-14.796 3.505-2.45 4.261-.768 2.961 6.585-1.162 6.571-1.006 8.572.799 10.245 1.539 1.426 3.773 1.57 7.088.46 3.422-1.146 8.714-5.977 8.064-7.735-.343-.927-.75-.605-2.796 1.043-2.4 1.932-4.035 1.875-4.973.8-.68-.78-.66-1.26.416-5.73.779-3.238 1.483-5.575 1.496-8.149.018-4.08-.519-5.76-4.395-6.348-2.962-.417-7.354.423-10.882 2.94-1.082.773-2.059 1.31-2.17 1.194-.113-.116.462-4.02 1.277-8.308s1.482-8.322 1.482-8.964c0-1.188-1.643-3.074-6.472-7.432C33.985 9.703 33.46 9.2 32.592 9z" opacity=".2"/>
    <path d="M27.52 27.9c-3.35-.832-5.599-1.935-6.184-5.749-.149-.97-.374-1.762-.5-1.762-.127 0-1.046.41-2.041.913-1.027.518-2.358.74-3.337.685-1.803-.102-3.429-1.445-4.527-3.321-.443-.757-.806-1.616-.807-2.276-.001-.952-.014-1.497-1.057-1.532-1.653.246-2.696-.034-3.381-.758-.585-.61-.798-2.826-.798-3.24 0-.414-1.26-.585-1.987-1.366-.904-.972-1.362-1.378-.237-1.382 4.658.339 9 .924 13.696.949 6.17-.05 10.44-.42 16.516-1.051.577.2 2.037 2.24 2.271 6.644.19 3.573-.832 6.054-1.783 10.74-.663 2.835-3.427 2.97-5.844 2.506z" fill="#FD8019"/>
    <path d="M32.877 8.01c-6.076.632-10.348 1-16.518 1.05-4.696-.024-9.036-.609-13.695-.947-.956.003-.742.321-.11 1.006.04-.001.066-.006.11-.006 4.659.338 8.999.923 13.695.948 6.17-.05 10.442-.42 16.518-1.051.577.2 2.035 2.241 2.27 6.644.008.16.002.309.005.465.019-.473.022-.956-.006-1.465-.234-4.403-1.692-6.444-2.269-6.644z" fill="#F9F5D7" opacity=".2"/>
    <path d="M32.592 8s.597 1.647.804 5.525c.192 3.582-.236 8.209-1.194 12.907 0 0-.377 1.46-1.83 10.174-.585 3.494-1.162 8.705-1.283 11.08-.19 3.733-.11 4.522.586 5.829 1.03 1.933 3.614 3.438 5.828 3.447l1.706.007-.198-3.198c-.348-5.626 2.147-12.07 6.047-14.796 3.505-2.45 4.261-.768 2.961 6.585-1.162 6.571-1.006 8.572.799 10.245 1.539 1.426 3.773 1.57 7.088.46 3.422-1.146 8.714-5.977 8.064-7.736-.343-.926-.75-.604-2.796 1.044-2.4 1.932-4.035 1.875-4.973.8-.68-.78-.66-1.26.416-5.73.779-3.238 1.483-5.575 1.496-8.149.018-4.08-.519-5.76-4.395-6.348-2.962-.417-7.354.423-10.882 2.94-1.082.773-2.059 1.31-2.17 1.194-.113-.116.462-4.02 1.277-8.308s1.482-8.322 1.482-8.964c0-1.188-1.643-3.075-6.472-7.432C33.985 8.703 33.46 8.2 32.592 8z" fill="#A79984"/>
    <path d="M32.592 8s.125.388.275 1.096c.708.239 1.23.707 2.086 1.48 4.33 3.908 6.087 5.822 6.406 7.033.025-.216.067-.51.067-.601 0-1.187-1.644-3.075-6.473-7.432C33.985 8.703 33.46 8.2 32.592 8zm.84 7.686c-.033 3.194-.455 6.941-1.23 10.746 0 0-.377 1.46-1.83 10.173-.585 3.495-1.161 8.706-1.282 11.08a42.326 42.326 0 0 0-.07 2.856c.013-.541.032-1.103.07-1.855.12-2.375.697-7.586 1.281-11.08 1.454-8.714 1.83-10.174 1.83-10.174.858-4.208 1.287-8.353 1.23-11.746zm17.113 14.363c-2.874-.084-6.622.834-9.71 3.037-.995.71-1.87 1.197-2.095 1.184-.07.573-.106.976-.074 1.01.112.115 1.088-.422 2.17-1.194 3.528-2.517 7.92-3.357 10.883-2.94 3.642.553 4.327 2.097 4.383 5.665.002-.106.01-.21.011-.317.018-4.08-.519-5.76-4.394-6.348-.37-.052-.764-.085-1.174-.097zM46.6 40.994c-.051 1.167-.246 2.677-.58 4.567-.53 2.99-.77 5.004-.721 6.502.061-1.38.302-3.137.72-5.502.441-2.492.64-4.318.58-5.567zm14.875 7.024c-.383.013-1.023.525-2.301 1.554-2.4 1.933-4.035 1.876-4.973.801-.213-.245-.347-.471-.412-.789-.117.99.033 1.354.412 1.789.938 1.075 2.572 1.132 4.973-.8 1.942-1.564 2.405-1.92 2.74-1.16.114-.34.144-.643.055-.884-.129-.347-.265-.52-.494-.511zm-24.48 5.187c-.016.526-.015 1.05.017 1.566l.134 2.198h.063l-.197-3.198c-.012-.187-.013-.377-.018-.566z" fill="#F9F5D7" opacity=".2"/>
</svg>
