<svg xmlns="http://www.w3.org/2000/svg" width="64" height="64">
    <path d="M4.363 42.65C4.163 42.445 4 38.7 4 34.329V26.38l2.56-1.136c4.374-1.94 6.293-5.076 5.658-9.717-.153-1.122-.12-2.298.075-2.613C12.747 12.176 25.185 5 26.023 5c.349 0 .844.273 1.101.608 1.649 2.144 3.332 10.239 2.763 13.283-.256 1.37-.653 1.737-2.844 2.63-3.087 1.257-5.678 3.818-7.075 6.993-.837 1.904-1.007 3.085-.872 6.057l.169 3.691-1.62 1.097c-3.493 2.366-12.11 4.501-13.281 3.292zM59.637 42.65c.2-.206.363-3.951.363-8.322V26.38l-2.56-1.136c-4.374-1.94-6.155-5.076-5.52-9.717.153-1.122.12-2.298-.075-2.613C51.391 12.176 38.815 5 37.977 5c-.349 0-.844.273-1.101.608-1.649 2.144-3.332 10.239-2.763 13.283.256 1.37.653 1.737 2.844 2.63 3.087 1.257 5.678 3.818 7.075 6.993.837 1.904 1.007 3.085.872 6.057l-.169 3.691 1.62 1.097c3.493 2.366 12.11 4.501 13.281 3.292zM17.274 57.51c-7.253-4.318-7.56-4.585-7.163-6.23.393-1.633 6.321-7.439 9.224-9.035L21.6 41l2.062 1.702c2.597 2.144 4.984 3.04 8.175 3.068 3.204.03 5.252-.707 8.239-2.96l2.396-1.807 2.269 1.234c1.248.68 3.89 2.879 5.871 4.887 4.975 5.044 4.965 5.077-3.354 10.056-2.315 1.386-4.466 2.612-5.807 3.322-1.479.964-1.656.284-2.496-.73C37.717 58.508 35.429 57 32 57c-3.739 0-5.994 1.824-7.055 3.102-.759 1.374-1.218.882-2.256.415-1.32-.656-3.322-1.761-5.415-3.008z" opacity=".2"/>
    <path d="M17.274 56.51c-7.253-4.318-7.56-4.585-7.163-6.23.393-1.632 6.321-7.439 9.224-9.035L21.6 40l2.062 1.702c2.597 2.144 4.984 3.04 8.175 3.068 3.204.03 5.252-.707 8.239-2.96l2.396-1.807 2.269 1.234c1.248.68 3.89 2.879 5.871 4.888 4.975 5.043 4.965 5.076-3.354 10.055-2.315 1.386-4.466 2.612-5.807 3.322-1.479.964-1.656.284-2.496-.73C37.717 57.508 35.429 56 32 56c-3.739 0-5.994 1.824-7.055 3.102-.759 1.374-1.218.882-2.256.415-1.32-.656-3.322-1.761-5.415-3.008z" fill="#8F3F71"/>
    <path d="M4.363 41.65C4.163 41.445 4 37.7 4 33.329V25.38l2.56-1.136c4.374-1.94 6.293-5.076 5.658-9.717-.153-1.122-.12-2.298.075-2.613C12.747 11.176 25.185 4 26.023 4c.349 0 .844.273 1.101.608 1.649 2.144 3.332 10.239 2.763 13.283-.256 1.37-.653 1.737-2.844 2.63-3.087 1.257-5.678 3.818-7.075 6.993-.837 1.904-1.007 3.085-.872 6.057l.169 3.691-1.62 1.097c-3.493 2.366-12.11 4.501-13.281 3.292z" fill="#066678"/>
    <path d="M59.637 41.65c.2-.206.363-3.951.363-8.322V25.38l-2.56-1.136c-4.374-1.94-6.155-5.076-5.52-9.717.153-1.122.12-2.298-.075-2.613C51.391 11.176 38.815 4 37.977 4c-.349 0-.844.273-1.101.608-1.649 2.144-3.332 10.239-2.763 13.283.256 1.37.653 1.737 2.844 2.63 3.087 1.257 5.678 3.818 7.075 6.993.837 1.904 1.007 3.085.872 6.057l-.169 3.691 1.62 1.097c3.493 2.366 12.11 4.501 13.281 3.292z" fill="#48B9C7"/>
    <circle cx="32" cy="33" r="14" opacity=".2"/>
    <circle cx="32" cy="32" r="14" fill="#F9F5D7"/>
    <path d="M26.023 4c-.838 0-13.276 7.177-13.73 7.914-.148.24-.2.975-.15 1.807.022-.37.068-.674.15-.807C12.747 12.177 25.185 5 26.023 5c.35 0 .845.273 1.102.607 1.382 1.798 2.77 7.746 2.854 11.426.196-3.488-1.341-10.458-2.854-12.426-.257-.334-.753-.607-1.102-.607zM12.318 16.686c-.167 3.474-2.101 5.936-5.757 7.558L4 25.381v1l2.56-1.137c3.998-1.774 5.938-4.55 5.758-8.558zm6.756 15.744c-.02.614-.017 1.294.022 2.14l.123 2.721.045-.03-.168-3.69c-.02-.44-.016-.773-.022-1.141zM37.977 4c-.35 0-.845.273-1.102.607-1.513 1.968-3.05 8.938-2.854 12.426.084-3.68 1.472-9.628 2.854-11.426.257-.334.753-.607 1.102-.607.838 0 13.414 7.177 13.869 7.914.082.134.128.441.15.815.05-.835-.002-1.575-.15-1.815C51.39 11.177 38.815 4 37.976 4zm13.836 12.773c-.169 3.961 1.658 6.71 5.626 8.471L60 26.381v-1l-2.56-1.137c-3.626-1.608-5.464-4.042-5.627-7.47zM44.925 32.43c-.006.368-.002.702-.022 1.14l-.168 3.692.045.029.123-2.72c.039-.847.041-1.527.022-2.141z" fill="#F9F5D7" opacity=".2"/>
</svg>
