<svg xmlns="http://www.w3.org/2000/svg" width="64" height="64" version="1">
    <path d="M4 56v2c0 1.662 1.338 3 3 3h50c1.662 0 3-1.338 3-3v-2c0 1.662-1.338 3-3 3H7c-1.662 0-3-1.338-3-3z" opacity=".2"/>
    <rect width="56" height="56" x="4" y="4" rx="3" ry="3" fill="#066678"/>
    <path d="M7 4C5.338 4 4 5.338 4 7v1c0-1.662 1.338-3 3-3h50c1.662 0 3 1.338 3 3V7c0-1.662-1.338-3-3-3H7z" opacity=".1" fill="#F9F5D7"/>
    <path d="M42.404 15.908c-.911 2.43-1.976 5.01-3.191 7.137H28V26h4.074v5.25c0 .911-.05 1.971-.152 2.781H27V37h4.62c-.608 5.367-2.685 9.086-6.23 11.719l2.128 2.277C31.67 47.958 34.1 43.481 34.808 37h6.184v14h3.037V37h5.969v-2.969h-5.969V26H49v-2.955h-6.596c1.114-1.722 2.228-3.997 3.342-6.225l-3.342-.912zM19.027 16v6h-5.025v3h5.025v7.922c-1.924.81-3.8 1.62-6.027 2.43l1.064 3.191c1.823-.709 3.343-1.418 4.963-2.127v9.57c0 1.216-.253 1.823-.76 1.823-1.417 0-2.583-.203-3.9-.608l.608 3.19c1.215.303 2.332.457 3.75.457 1.215 0 2.075-.305 2.582-.912.506-.608.695-1.67.695-3.19V34.898l4.67-2.431-.457-2.735v-.002c-1.317.608-2.899 1.266-4.215 1.975V25h5.002v-3H22v-6h-2.973zm14.262.365l-3.037.91c1.114 1.418 1.974 3.039 2.582 4.862l3.19-1.063a14.704 14.704 0 0 0-2.735-4.709zM35.113 26h5.88v8.031H34.96c.101-.709.152-1.615.152-2.324V26z" opacity=".2"/>
    <path d="M42.404 14.908c-.911 2.43-1.976 5.01-3.191 7.137H28V25h4.074v5.25c0 .911-.05 1.971-.152 2.781H27V36h4.62c-.608 5.367-2.685 9.086-6.23 11.719l2.128 2.277C31.67 46.958 34.1 42.481 34.808 36h6.184v14h3.037V36h5.969v-2.969h-5.969V25H49v-2.955h-6.596c1.114-1.722 2.228-3.997 3.342-6.225l-3.342-.912zM19.027 15v6h-5.025v3h5.025v7.922c-1.924.81-3.8 1.62-6.027 2.43l1.064 3.191c1.823-.709 3.343-1.418 4.963-2.127v9.57c0 1.216-.253 1.823-.76 1.823-1.417 0-2.583-.203-3.9-.608l.608 3.19c1.215.303 2.332.457 3.75.457 1.215 0 2.075-.305 2.582-.912.506-.608.695-1.67.695-3.19V33.898l4.67-2.431-.457-2.735v-.002c-1.317.608-2.899 1.266-4.215 1.975V24h5.002v-3H22v-6h-2.973zm14.262.365l-3.037.91c1.114 1.418 1.974 3.039 2.582 4.862l3.19-1.063a14.704 14.704 0 0 0-2.735-4.709zM35.113 25h5.88v8.031H34.96c.101-.709.152-1.615.152-2.324V25z" fill="#F9F5D7"/>
</svg>
