<svg xmlns="http://www.w3.org/2000/svg" width="64" height="64">
    <rect width="56" height="56" x="4" y="5" rx="2.8" ry="2.8" opacity=".2"/>
    <rect width="56" height="56" x="4" y="4" rx="2.8" ry="2.8" fill="#FA4934"/>
    <path d="M32.09 19L14 47s11.244-11.067 18-17.5C38.828 35.383 50 47 50 47zm-.2 14l-2.367 3h4.823zm-4.734 6L24 43l8-.045 8-.045L36.8 39z" opacity=".2"/>
    <path d="M32.09 18L14 46s11.244-11.067 18-17.5C38.828 34.383 50 46 50 46L32.09 18zm-.2 14l-2.367 3h4.823l-2.455-3zm-4.734 6L24 42l8-.045 8-.045L36.8 38h-9.644z" fill="#F9F5D7"/>
    <path d="M6.8 4C5.25 4 4 5.25 4 6.8v1C4 6.25 5.25 5 6.8 5h50.4C58.75 5 60 6.25 60 7.8v-1C60 5.25 58.75 4 57.2 4H6.8z" fill="#F9F5D7" opacity=".2"/>
</svg>
