<svg xmlns="http://www.w3.org/2000/svg" width="64" height="64" version="1">
    <path d="M60 58.2V7.8C60 6.249 58.751 5 57.2 5H6.8A2.794 2.794 0 0 0 4 7.8v50.4C4 59.751 5.249 61 6.8 61h50.4c1.551 0 2.8-1.249 2.8-2.8z" opacity=".2"/>
    <path d="M60 57.2V6.8C60 5.249 58.751 4 57.2 4H6.8A2.794 2.794 0 0 0 4 6.8v50.4C4 58.751 5.249 60 6.8 60h50.4c1.551 0 2.8-1.249 2.8-2.8z" fill="#3A393A"/>
    <path d="M27.827 12.714l-4.504 3.425-10.2 24.059-.409 8.279 8.793 2.809 25.178-3.382 3.403-4.77 1.198-7.225-3.91-7.337L36.283 15.06z" fill="#CB241D"/>
    <path d="M23.002 15.551L33.58 30.097 12.423 40.5z" fill="#CB241D"/>
    <path d="M12.423 40.5L12 49.087 21.118 52l21.509-9.675 1.475-9.249-10.521-2.98z" fill="#FA4934"/>
    <path d="M21.118 53l26.112-3.507-4.603-6.168z" opacity=".1"/>
    <path d="M21.118 52l26.112-3.507-4.603-6.168z" fill="#9D0006"/>
    <path d="M42.627 43.326l1.475-9.25 3.843-4.63L52 37.054l-1.242 7.492-3.528 4.948z" opacity=".1"/>
    <path d="M42.627 42.325l1.475-9.249 3.843-4.63L52 36.053l-1.242 7.492-3.528 4.948z" fill="#9D0006"/>
    <path d="M44.102 33.076l-10.521-2.98L23 15.552 27.674 12l8.768 2.432 11.504 14.014z" fill="#CB241D"/>
    <path d="M6.8 4C5.25 4 4 5.25 4 6.8v1C4 6.25 5.25 5 6.8 5h50.4C58.75 5 60 6.25 60 7.8v-1C60 5.25 58.75 4 57.2 4H6.8zM23.002 15.55L12.424 40.5l.535-.264 10.043-23.685 10.043 13.808.535-.263L23.002 15.55zM33.58 30.096L12.424 40.5 12 49.086l.049.016.375-7.602L33.58 31.096l10.37 2.937.152-.957-10.522-2.98z" opacity=".1" fill="#F9F5D7"/>
    <path d="M27.674 12l-4.672 3.55.469.645L27.674 13l8.767 2.432 11.092 13.511.412-.498-11.504-14.013L27.674 12z" opacity=".1" fill="#F9F5D7"/>
    <path d="M43.95 34.033l-1.323 8.293L21.119 52l-9.07-2.898-.049.984L21.12 53l21.507-9.674 1.475-9.25-.153-.043z" opacity=".1"/>
    <path d="M47.533 28.943l-3.431 4.133-.153.957.153.043 3.843-4.63-.412-.503z" opacity=".1"/>
</svg>
