<svg xmlns="http://www.w3.org/2000/svg" width="64" height="64">
    <circle cx="32" cy="33" r="28" opacity=".2"/>
    <circle cx="32" cy="32" r="28" fill="#066678"/>
    <path d="M44 19c0 14-8.2 26-18 26m-4-26v30" opacity=".2" fill="none" stroke="#151819" stroke-width="8"/>
    <path d="M44 18c0 14-8.2 26-18 26m-4-26v30" fill="none" stroke="#F9F5D7" stroke-width="8"/>
    <path d="M32 4A28 28 0 0 0 4 32a28 28 0 0 0 .018.492A28 28 0 0 1 32 5a28 28 0 0 1 27.975 27.492A28 28 0 0 0 60 32 28 28 0 0 0 32 4z" opacity=".1" fill="#F9F5D7"/>
</svg>
