<svg xmlns="http://www.w3.org/2000/svg" width="64" height="64">
    <path d="M43.43 8c-2.536.193-4.11 1.085-5.8 2.376-1.555-.423-3.12-.63-4.091-.435-2.224.445-3.806 1.339-5.243 2.791-.083 0-.172-.076-.254-.078-2.289-.036-3.351.616-3.88.809-1.024.363-1.868 1.202-2.625 1.843-.795-.904-1.895-2.195-2.496-2.846-1.762-1.982-3.342-3.255-4.712-3.744-1.96-.685-4.298-.51-6.016.214-1.72.722-2.933 1.799-3.934 2.943-.335.382-1.521 1.204-2.165 3.709-.643 2.505.293 4.838 1.094 6.217 1.602 2.757 3.878 5.277 8.712 11.139l.676.82c-.672.385-1.375.708-1.945 1.279-1.778 1.78-2.566 4.234-2.626 6.279-.075 2.587 1.084 4.577 2.223 5.883 1.139 1.305 2.383 2.153 3.692 2.818 1.36.691 1.55.67 2.786 1.14 1.235.468 2.853 1.065 4.688 1.722 3.669 1.313 8.183 2.855 12.197 4.059 1.86.558 3.355.979 5.22 1.057 1.142.048 2.473-.27 3.738-.738a6.016 6.016 0 0 0 2.2-1.066h.011c1.313-1.01 4.183-3.424 7.27-6.026 3.09-2.603 5.498-4.584 6.893-5.917.451-.432 1.043-.959 1.707-1.987.663-1.028 1.198-2.646 1.242-3.962.089-2.631-.59-3.81-1.246-5.711-1.492-4.322-3.48-8.988-5.446-12.955-.983-1.983-1.951-3.783-2.91-5.33-.96-1.547-1.556-2.735-3.458-4.234C47.054 8.588 45.216 7.98 43.43 8z" opacity=".2"/>
    <path d="M43.43 7c-2.536.193-4.11 1.085-5.8 2.376-1.555-.423-3.12-.63-4.091-.435-2.224.445-3.806 1.339-5.243 2.791-.083 0-.172-.076-.254-.078-2.289-.036-3.351.616-3.88.809-1.024.363-1.868 1.202-2.625 1.843-.795-.904-1.895-2.195-2.496-2.846-1.762-1.982-3.342-3.255-4.712-3.744-1.96-.685-4.298-.51-6.016.214-1.72.722-2.933 1.799-3.934 2.943-.335.382-1.521 1.204-2.165 3.709-.643 2.505.293 4.838 1.094 6.217 1.602 2.757 3.878 5.277 8.712 11.139l.676.82c-.672.385-1.375.708-1.945 1.279-1.778 1.78-2.566 4.234-2.626 6.279-.075 2.587 1.084 4.577 2.223 5.883 1.139 1.305 2.383 2.153 3.692 2.818 1.36.691 1.55.67 2.786 1.14 1.235.468 2.853 1.065 4.688 1.722 3.669 1.313 8.183 2.855 12.197 4.059 1.86.558 3.355.979 5.22 1.057 1.142.048 2.473-.27 3.738-.738a6.016 6.016 0 0 0 2.2-1.066h.011c1.313-1.01 4.183-3.424 7.27-6.026 3.09-2.603 5.498-4.584 6.893-5.917.451-.432 1.043-.959 1.707-1.987.663-1.028 1.198-2.646 1.242-3.962.089-2.631-.59-3.81-1.246-5.711-1.492-4.322-3.48-8.988-5.446-12.955-.983-1.983-1.951-3.783-2.91-5.33-.96-1.547-1.556-2.735-3.458-4.234C47.054 7.588 45.216 6.98 43.43 7z" fill="#504945"/>
    <path d="M41.213 51.43c1.698-1.314 12.585-10.533 13.679-11.583 1.44-1.382 1.451-1.745.182-5.438-2.778-8.083-7.665-18.129-9.864-19.872-.916-.725-2.605-.714-3.792.022-1.656 1.031-1.582 2.417.302 5.709.68 1.185 1.235 2.635 1.235 2.734 0 .098-.236.18-.524.18-.37 0-1.212-1.045-2.85-3.533-2.493-3.786-3.212-4.388-4.85-4.058-1.235.249-2.641 1.203-3.105 2.106-.536 1.044-.315 1.572 2.182 5.2 1.533 2.229 1.951 3.026 1.713 3.266-.173.176-.402.317-.509.317-.107 0-1.503-1.793-3.102-3.985-1.023-1.401-1.821-2.431-2.416-3.116-1.024-1.393-1.994-.96-3.25-.499-.897.442-1.806 1.078-2.254 1.67-1.053 1.39-.898 2.269.832 4.697a91.99 91.99 0 0 0 2.742 3.643c1.184 1.465 1.47 2.497.757 2.734-.415.136-.2.374-8.152-8.974-4.925-5.79-7.238-8.308-7.816-8.511-1.09-.383-2.276.118-3.44 1.454-1.72 1.974-1.922 1.624 7.756 13.417a3506.915 3506.915 0 0 1 8.906 10.874c.547.715-.934-.134-3.53-1.002-2.185-.73-2.977-.87-4.408-.778-2.372.198-3.45 1.501-3.502 3.304-.037 1.258 1.17 2.471 2.645 3.224.845.431 10.99 4.238 18.672 6.553 3.357 1.012 4.696 1.069 5.76.244z" opacity=".2"/>
    <path d="M41.213 50.43c1.698-1.314 12.585-10.533 13.679-11.583 1.44-1.382 1.451-1.745.182-5.438-2.778-8.083-7.665-18.129-9.864-19.872-.916-.725-2.605-.714-3.792.022-1.656 1.031-1.582 2.417.302 5.709.68 1.185 1.235 2.635 1.235 2.734 0 .098-.236.18-.524.18-.37 0-1.212-1.045-2.85-3.533-2.493-3.786-3.212-4.388-4.85-4.058-1.235.249-2.641 1.203-3.105 2.106-.536 1.044-.315 1.572 2.182 5.2 1.533 2.229 1.951 3.026 1.713 3.266-.173.176-.402.317-.509.317-.107 0-1.503-1.793-3.102-3.985-1.023-1.401-1.821-2.431-2.416-3.116-1.024-1.393-1.994-.96-3.25-.499-.897.442-1.806 1.078-2.254 1.67-1.053 1.39-.898 2.269.832 4.697a91.99 91.99 0 0 0 2.742 3.643c1.184 1.465 1.47 2.497.757 2.734-.415.136-.2.374-8.152-8.974-4.925-5.79-7.238-8.308-7.816-8.511-1.09-.383-2.276.118-3.44 1.454-1.72 1.974-1.922 1.624 7.756 13.417a3506.915 3506.915 0 0 1 8.906 10.874c.547.715-.934-.134-3.53-1.002-2.185-.73-2.977-.87-4.408-.778-2.372.198-3.45 1.501-3.502 3.304-.037 1.258 1.17 2.471 2.645 3.224.845.431 10.99 4.238 18.672 6.553 3.357 1.012 4.696 1.069 5.76.244z" fill="#F9F5D7"/>
    <path d="M43.432 7c-2.537.192-4.113 1.086-5.803 2.377-1.554-.423-3.12-.63-4.09-.436-2.223.446-3.805 1.339-5.242 2.791-.083 0-.172-.076-.254-.078-2.289-.036-3.353.616-3.88.809-1.025.363-1.869 1.203-2.626 1.844-.795-.905-1.895-2.196-2.496-2.848-1.762-1.982-3.341-3.255-4.71-3.744-1.96-.685-4.3-.508-6.018.215-1.72.722-2.933 1.799-3.934 2.943-.334.382-1.52 1.204-2.164 3.709a6.918 6.918 0 0 0-.186 2.215c.028-.4.08-.803.186-1.215.643-2.505 1.83-3.327 2.164-3.709 1.001-1.144 2.215-2.22 3.934-2.943 1.718-.723 4.058-.9 6.017-.215 1.37.49 2.95 1.762 4.711 3.744.601.652 1.7 1.943 2.496 2.848.757-.641 1.6-1.481 2.625-1.844.528-.193 1.592-.845 3.881-.809.082.002.17.078.254.078 1.437-1.452 3.019-2.345 5.242-2.79.97-.195 2.536.012 4.09.435 1.69-1.291 3.266-2.185 5.803-2.377 1.785-.02 3.622.588 5.5 2.068 1.902 1.5 2.497 2.688 3.457 4.235.96 1.547 1.93 3.346 2.912 5.33 1.965 3.967 3.953 8.633 5.445 12.955.57 1.652 1.157 2.762 1.242 4.752 0-.013.004-.028.004-.041.089-2.631-.59-3.81-1.246-5.711-1.492-4.322-3.48-8.988-5.445-12.955-.983-1.984-1.953-3.783-2.912-5.33-.96-1.547-1.555-2.735-3.457-4.235-1.878-1.48-3.715-2.088-5.5-2.068zm-31.3 26.076c-.487.27-.97.55-1.382.961-1.778 1.78-2.565 4.235-2.625 6.28-.007.244.008.478.021.712.121-1.985.907-4.294 2.604-5.992.57-.57 1.274-.894 1.945-1.28l-.562-.68z" opacity=".1" fill="#F9F5D7"/>
</svg>
