<svg xmlns="http://www.w3.org/2000/svg" width="64" height="64">
    <rect width="56" height="56" x="4" y="5" rx="16.8" ry="16.8" opacity=".2"/>
    <rect width="56" height="56" x="4" y="4" rx="16.8" ry="16.8" fill="#A04A73"/>
    <path d="M20.8 4C11.495 4 4 11.494 4 20.8v1C4 12.495 11.494 5 20.8 5h22.4C52.505 5 60 12.494 60 21.8v-1C60 11.495 52.506 4 43.2 4H20.8z" opacity=".1" fill="#F9F5D7"/>
    <path d="M44.535 14c-.805 0-1.817.13-2.248.291-1.84.686-3.268 2.816-4.086 6.092-1.315 5.27-3.573 7.619-7.324 7.619-1.146 0-1.157.23-.06 1.254 2.128 1.989 3.422 4.97 3.773 8.691.138 1.463.343 2.11.86 2.715.372.437.832.793 1.025.793.192 0 .568-.649.834-1.441.357-1.066.54-2.945.703-7.207.189-4.942.309-5.993.834-7.348 1.343-3.468 4.346-5.321 7.404-3.951 1.469.658 2.736 2.569 4.598 5.826 1.38 2.416 2.932 4.238 3.61 4.238.341 0 .35-.47.01-.676-.687-.419-1.2-3.082-1.288-6.689-.088-3.61-.12-3.803-1.01-5.523-1.5-2.9-4.411-4.684-7.635-4.684zM24.67 27.477c-.266.002-.571.025-.95.06-1.787.165-2.677.4-2.677.707 0 .1 1.11 1.29 2.461 2.647 2.688 2.696 3.975 4.843 4.56 7.611.204.695.285 1.922.344 2.916A5.5 5.5 0 0 0 25 46.5a5.5 5.5 0 0 0 5.5 5.5 5.5 5.5 0 0 0 5.5-5.5 5.5 5.5 0 0 0-2.816-4.797 27.205 27.205 0 0 1-.17-2.703c0-4.6-2.404-8.837-6.157-10.852-.95-.51-1.389-.679-2.187-.671zm-5.889 1.834l-1.517 1.027c-2.228 1.513-4.399 3.972-5.567 6.303-.925 1.846-1.039 2.32-1.148 4.736-.076 1.68-.287 3.007-.56 3.539-.595 1.156-.3 2.24.675 2.482.41.102 1.379.823 2.152 1.6 2.59 2.6 7.517 3.667 11.916 2.58 1.14-.281 1.279-.53.606-1.08-.242-.198-.757-.977-1.147-1.736-1.333-2.596-.837-5.825 1.221-7.908.934-.946.988-1.098.826-2.264-.095-.688-.49-1.872-.88-2.633-.797-1.55-4.15-5.172-5.618-6.066zM16.001 41a2 2 0 1 1 0 4 2 2 0 0 1 0-4zm14.5 3a2.5 2.5 0 1 1 0 5 2.5 2.5 0 0 1 0-5z" opacity=".2"/>
    <path d="M44.535 13c-.805 0-1.817.13-2.248.291-1.84.686-3.268 2.816-4.086 6.092-1.315 5.27-3.573 7.619-7.324 7.619-1.146 0-1.157.23-.06 1.254 2.128 1.989 3.422 4.97 3.773 8.691.138 1.463.343 2.11.86 2.715.372.437.832.793 1.025.793.192 0 .568-.649.834-1.441.357-1.066.54-2.945.703-7.207.189-4.942.309-5.993.834-7.348 1.343-3.468 4.346-5.321 7.404-3.951 1.469.658 2.736 2.569 4.598 5.826 1.38 2.416 2.932 4.238 3.61 4.238.341 0 .35-.47.01-.676-.687-.419-1.2-3.082-1.288-6.689-.088-3.61-.12-3.803-1.01-5.523-1.5-2.9-4.411-4.684-7.635-4.684zM24.67 26.477c-.266.002-.571.025-.95.06-1.787.165-2.677.4-2.677.707 0 .1 1.11 1.29 2.461 2.647 2.688 2.696 3.975 4.843 4.56 7.611.204.695.285 1.922.344 2.916A5.5 5.5 0 0 0 25 45.5a5.5 5.5 0 0 0 5.5 5.5 5.5 5.5 0 0 0 5.5-5.5 5.5 5.5 0 0 0-2.816-4.797 27.205 27.205 0 0 1-.17-2.703c0-4.6-2.404-8.837-6.157-10.852-.95-.51-1.389-.679-2.187-.671zm-5.889 1.834l-1.517 1.027c-2.228 1.513-4.399 3.972-5.567 6.303-.925 1.846-1.039 2.32-1.148 4.736-.076 1.68-.287 3.007-.56 3.539-.595 1.156-.3 2.24.675 2.482.41.102 1.379.823 2.152 1.6 2.59 2.6 7.517 3.667 11.916 2.58 1.14-.281 1.279-.53.606-1.08-.242-.198-.757-.977-1.147-1.736-1.333-2.596-.837-5.825 1.221-7.908.934-.946.988-1.098.826-2.264-.095-.688-.49-1.872-.88-2.633-.797-1.55-4.15-5.172-5.618-6.066zM16.001 40a2 2 0 1 1 0 4 2 2 0 0 1 0-4zm14.5 3a2.5 2.5 0 1 1 0 5 2.5 2.5 0 0 1 0-5z" fill="#F9F5D7"/>
</svg>
