<svg xmlns="http://www.w3.org/2000/svg" width="64" height="64" version="1">
    <path d="M56 60V6c0-1.662-1.338-3-3-3H11C9.338 3 8 4.338 8 6v54c0 1.662 1.338 3 3 3h42c1.662 0 3-1.338 3-3z" opacity=".2"/>
    <path d="M56 59V5c0-1.662-1.338-3-3-3H11C9.338 2 8 3.338 8 5v54c0 1.662 1.338 3 3 3h42c1.662 0 3-1.338 3-3z" fill="#FD8019"/>
    <path fill="#F9BD2E" d="M20 2h12v12H20zM44 2v12h12V5c0-1.662-1.338-3-3-3zM8 14h12v12H8zM32 14h12v12H32zM20 26h12v12H20zM44 26h12v12H44zM8 38h12v12H8zM32 38h12v12H32zM20 50h12v12H20zM44 50v12h9c1.662 0 3-1.338 3-3v-9z"/>
    <path d="M11 2C9.338 2 8 3.338 8 5v1c0-1.662 1.338-3 3-3h42c1.662 0 3 1.338 3 3V5c0-1.662-1.338-3-3-3H11z" opacity=".2" fill="#F9F5D7"/>
    <path opacity=".2" d="M20 14h12v1H20zM44 14h12v1H44zM8 26h12v1H8zM32 26h12v1H32zM20 38h12v1H20zM44 38h12v1H44zM8 50h12v1H8zM32 50h12v1H32z"/>
    <path d="M29 18v3.39a12 12 0 0 0-3.086 1.282l-2.398-2.399-4.243 4.243 2.399 2.398A12 12 0 0 0 20.398 30H17v6h3.39a12 12 0 0 0 1.282 3.086l-2.399 2.398 4.243 4.243 2.398-2.399A12 12 0 0 0 29 44.602V48h6v-3.39a12 12 0 0 0 3.086-1.282l2.398 2.399 4.243-4.243-2.399-2.398A12 12 0 0 0 43.602 36H47v-6h-3.39a12 12 0 0 0-1.282-3.086l2.399-2.398-4.243-4.243-2.398 2.399A12 12 0 0 0 35 21.398V18zm3 9a6 6 0 0 1 6 6 6 6 0 0 1-6 6 6 6 0 0 1-6-6 6 6 0 0 1 6-6z" opacity=".1"/>
    <path d="M29 17v3.39a12 12 0 0 0-3.086 1.282l-2.398-2.399-4.243 4.243 2.399 2.398A12 12 0 0 0 20.398 29H17v6h3.39a12 12 0 0 0 1.282 3.086l-2.399 2.398 4.243 4.243 2.398-2.399A12 12 0 0 0 29 43.602V47h6v-3.39a12 12 0 0 0 3.086-1.282l2.398 2.399 4.243-4.243-2.399-2.398A12 12 0 0 0 43.602 35H47v-6h-3.39a12 12 0 0 0-1.282-3.086l2.399-2.398-4.243-4.243-2.398 2.399A12 12 0 0 0 35 20.398V17h-6zm3 9a6 6 0 0 1 6 6 6 6 0 0 1-6 6 6 6 0 0 1-6-6 6 6 0 0 1 6-6z" fill="#3A393A"/>
</svg>
