<svg xmlns="http://www.w3.org/2000/svg" width="64" height="64">
    <path d="M32 5A28 28 0 0 0 4 33a28 28 0 0 0 28 28 28 28 0 0 0 28-28A28 28 0 0 0 32 5z" opacity=".2"/>
    <path d="M32 4A28 28 0 0 0 4 32a28 28 0 0 0 28 28 28 28 0 0 0 28-28A28 28 0 0 0 32 4z" fill="#7CB668"/>
    <g opacity=".2">
        <path d="M32 11a12 12 0 0 0-12 12 12 12 0 0 0 12 12 12 12 0 0 0 12-12 12 12 0 0 0-12-12zm0 2a6 6 0 0 1 6 6 6 6 0 0 1-6 6 6 6 0 0 1-6-6 6 6 0 0 1 6-6z"/>
        <path d="M26 31v19.867L32 55l6-4.133v-1.734l2-2-2-2V43l4-3-4-3v-6zm2 6h2v12h-2z"/>
    </g>
    <g fill="#F9F5D7">
        <path d="M32 10a12 12 0 0 0-12 12 12 12 0 0 0 12 12 12 12 0 0 0 12-12 12 12 0 0 0-12-12zm0 2a6 6 0 0 1 6 6 6 6 0 0 1-6 6 6 6 0 0 1-6-6 6 6 0 0 1 6-6z"/>
        <path d="M26 30v19.867L32 54l6-4.133v-1.734l2-2-2-2V42l4-3-4-3v-6zm2 6h2v12h-2z"/>
    </g>
    <path d="M32 4A28 28 0 0 0 4 32a28 28 0 0 0 .021.406A28 28 0 0 1 32 5a28 28 0 0 1 27.979 27.578A28 28 0 0 0 60 32 28 28 0 0 0 32 4z" opacity=".2" fill="#F9F5D7"/>
</svg>
