<svg xmlns="http://www.w3.org/2000/svg" width="64" height="64" version="1">
    <path d="M8 43.687v2a2.56 2.624 0 0 0 1.281 2.273L30.72 60.648a2.56 2.624 0 0 0 2.562 0L54.72 47.96A2.56 2.624 0 0 0 56 45.686v-2a2.56 2.624 0 0 1-1.28 2.274L33.28 58.647a2.56 2.624 0 0 1-2.562 0L9.282 45.96A2.56 2.624 0 0 1 8 43.685z" opacity=".2"/>
    <path d="M32.06 4.002a2.56 2.624 0 0 0-1.34.352L9.28 17.042A2.56 2.624 0 0 0 8 19.314v25.378a2.56 2.624 0 0 0 1.28 2.271L30.72 59.651a2.56 2.624 0 0 0 2.56 0l21.437-12.69A2.56 2.624 0 0 0 56 44.691V19.313a2.56 2.624 0 0 0-1.282-2.27L33.28 4.355a2.56 2.624 0 0 0-1.219-.353z" fill="#F9BD2E"/>
    <path d="M23.782 47.855c-.08-.08-.146-.374-.146-.653 0-.623-.339-.66-.654-.073-.373.696-.68.505-.61-.381.05-.637-.008-.798-.263-.732-1.459.375-1.467.362-.491-.7 1.043-1.134 1.234-1.818.436-1.567-.27.084-1.055.205-1.744.269-2.124.195-4.31-1.184-4.31-2.716 0-.647 1.128-1.553 2.752-2.209.826-.334 1.527-.744 1.558-.912.031-.168-.292-.53-.716-.803-.973-.626-1.518-1.504-2.094-3.374-.663-2.152-.517-5.872.328-8.322 2.93-8.496 11.448-12.02 19.484-8.061 5.144 2.533 8.86 6.545 9.67 10.438.22 1.054.198 1.28-.193 2.046-.515 1.007-1.666 2.218-2.109 2.218-.17 0-.578-.318-.906-.708-.86-1.019-4.74-4.853-6.357-6.282l-1.38-1.22.152-1.223c.147-1.17.13-1.235-.412-1.48-.822-.375-1.97-.007-2.066.66-.054.379.227.815 1.084 1.68l1.157 1.17-1.302.003c-2.363.005-2.82.379-1.657 1.356.862.723 1.161 1.359 1.086 2.303l-.065.802 1.031-.053c.792-.04 1.03.022 1.03.272 0 .179-.097.325-.217.325-.363 0-.245.616.163.856.297.174.32.266.102.41-.154.1-.217.348-.14.548.211.55-.223.45-1.913-.436-1.394-.731-1.57-.901-2.06-2.007-.867-1.957-1.608-2.48-1.608-1.135 0 .333-.206 1.38-.46 2.328-.804 3.016-.899 2.702.817 2.703 1.719.001 2.962.29 3.372.784.3.362.337 1.353.096 2.634-.14.744-.124.768.41.634.522-.131.548-.1.425.517-.127.633-.104.656.66.656.434 0 .79.098.79.217 0 .12-.08.218-.176.218-.097 0-.366.138-.597.307-.413.301-.413.316-.008.762.471.52.416.54-1.292.461-1.29-.059-1.56-.238-1.753-1.164-.225-1.078-.724-1.752-1.08-1.458-.674.559.632 2.861 2.255 3.976 2.295 1.575 4.912 1.944 7.32 1.032 1.639-.62 4.016-2.921 5.328-5.157 1.462-2.491 1.782-2.448 1.25.171-.884 4.354-3.883 7.629-8.284 9.046-1.412.454-2.197.568-3.945.57-3.643.007-5.728-1.015-9.102-4.461-2.122-2.164-2.754-2.332-1.668-.438l.696 1.214-.704 2.144c-.387 1.179-.73 2.144-.763 2.144-.032 0-.124-.066-.204-.146zm.968-11.746c-1.893-3.776-2.314-5.298-2.314-8.36 0-2.295.049-2.595.586-3.61 1.625-3.074 5.099-4.87 9.434-4.878 2.033-.004 4.334.354 5.255.817 1.134.57 2.751 2.05 4.404 4.032 1.934 2.319 2.09 2.76.675 1.899-.393-.24-.928-.435-1.188-.436-.838-.001-1.148-.244-1.293-1.011-.103-.551-.407-.954-1.138-1.511-1.653-1.26-2.282-.693-1.14 1.026.962 1.45 6.267 6.548 6.725 6.463.667-.124 1.176-1.457 1.068-2.793-.184-2.26-1.779-4.61-4.273-6.294-2.276-1.537-6.592-3.499-8.537-3.881-6.198-1.219-12.247 2.636-13.136 8.37-.533 3.434 1.37 7.975 4.933 11.772.592.63 1.112 1.11 1.156 1.065.045-.044-.503-1.246-1.217-2.67z" fill="#3A393A"/>
    <path d="M32.057 4.002a2.56 2.624 0 0 0-1.338.352L9.28 17.044A2.56 2.624 0 0 0 8 19.313v1a2.56 2.624 0 0 1 1.281-2.267L30.72 5.354a2.56 2.624 0 0 1 1.338-.352h.002a2.56 2.624 0 0 1 1.222.352l21.436 12.69a2.56 2.624 0 0 1 1.281 2.268v-1a2.56 2.624 0 0 0-1.281-2.267L33.28 4.354a2.56 2.624 0 0 0-1.222-.352h-.002z" opacity=".2" fill="#F9F5D7"/>
</svg>
