<svg xmlns="http://www.w3.org/2000/svg" width="64" height="64">
    <path d="M10 56v2c0 1.662 1.338 3 3 3h38c1.662 0 3-1.338 3-3v-2c0 1.662-1.338 3-3 3H13c-1.662 0-3-1.338-3-3z" opacity=".2"/>
    <path d="M54 57V7c0-1.662-1.338-3-3-3H13c-1.662 0-3 1.338-3 3v50c0 1.662 1.338 3 3 3h38c1.662 0 3-1.338 3-3z" fill="#7CB668"/>
    <path d="M13 4c-1.662 0-3 1.338-3 3v1c0-1.662 1.338-3 3-3h38c1.662 0 3 1.338 3 3V7c0-1.662-1.338-3-3-3H13z" opacity=".1" fill="#F9F5D7"/>
    <path d="M51.25 60c1.524 0 2.75-1.314 2.75-2.948V32H10v25.052C10 58.686 11.226 60 12.75 60z" fill="#48B9C7"/>
    <path d="M18 12h28v2H18zM18 18h28v2H18zM18 24h28v2H18z" fill="#504945"/>
    <path d="M18 38h28v2H18zM18 44h28v2H18zM18 50h28v2H18z" fill="#F9F5D7"/>
</svg>
