<svg xmlns="http://www.w3.org/2000/svg" width="64" height="64" version="1">
    <rect width="52" height="40" x="6" y="13" rx="2.5" ry="2.5" opacity=".2"/>
    <rect width="8" height="8" x="10" y="10" rx="2" ry="2" fill="#504945"/>
    <rect width="52" height="40" x="6" y="12" rx="2.5" ry="2.5" fill="#504945"/>
    <circle cx="52" cy="18" r="2" opacity=".4"/>
    <circle cx="32" cy="32" r="16" opacity=".4"/>
    <circle cx="32" cy="-33" r="12" transform="scale(1 -1)" opacity=".2"/>
    <circle cx="32" cy="-32" r="12" transform="scale(1 -1)" fill="#448588"/>
    <circle cx="32" cy="33" r="8" opacity=".2"/>
    <circle cx="32" cy="32" r="8" fill="#48B9C7"/>
    <path d="M8.5 12A2.495 2.495 0 0 0 6 14.5v1C6 14.115 7.115 13 8.5 13h47c1.38 0 2.5 1.115 2.5 2.5v-1c0-1.385-1.12-2.5-2.5-2.5z" opacity=".1" fill="#F9F5D7"/>
</svg>
