<svg xmlns="http://www.w3.org/2000/svg" width="64" height="64" version="1">
    <path d="M4.05 31.926a27.924 27.924 0 0 0 2.114 11.808 27.92 27.92 0 0 0 36.575 15.103c11.099-4.612 17.603-15.453 17.213-26.763-.396 10.568-6.772 20.425-17.213 24.763-14.314 5.948-30.627-.784-36.575-15.099a28.005 28.005 0 0 1-2.114-9.812z" opacity=".2"/>
    <path d="M57.838 21.262A27.918 27.918 0 0 0 21.264 6.16 27.918 27.918 0 0 0 6.163 42.734a27.917 27.917 0 0 0 36.573 15.1 27.917 27.917 0 0 0 15.1-36.573z" fill="#F9F5D7"/>
    <path d="M32.18 3.997A27.977 27.977 0 0 0 22.047 5.86l7.11 18.666a8 8 0 0 1 2.845-.528 8 8 0 0 1 2.844.532l7.114-18.678c-3.102-1.18-6.406-1.838-9.778-1.855zM5.869 22.04a27.973 27.973 0 0 0-1.864 10.134c.018 3.372.679 6.68 1.86 9.782l18.665-7.11a8 8 0 0 1-.528-2.848 8 8 0 0 1 .536-2.848l-18.67-7.11zm52.27 0l-18.665 7.11a8 8 0 0 1 .528 2.848 8 8 0 0 1-.532 2.84l18.673 7.118c1.182-3.102 1.838-6.41 1.856-9.782a27.94 27.94 0 0 0-1.86-10.134zM29.157 39.466l-7.11 18.669a27.945 27.945 0 0 0 10.134 1.864c3.372-.018 6.676-.674 9.778-1.856L34.85 39.47a8 8 0 0 1-2.848.528 8 8 0 0 1-2.844-.532z" fill="#FA4934"/>
    <path d="M32.182 3.996a28.03 28.03 0 0 0-10.92 2.164C10.164 10.772 3.659 21.613 4.05 32.924l.002-.04C4.082 21.956 10.505 11.63 21.262 7.16a28.03 28.03 0 0 1 10.92-2.164 27.923 27.923 0 0 1 25.656 17.268 27.838 27.838 0 0 1 2.121 10.101 27.878 27.878 0 0 0-2.121-11.101A27.923 27.923 0 0 0 32.182 3.996z" opacity=".2" fill="#F9F5D7"/>
</svg>
