<svg xmlns="http://www.w3.org/2000/svg" width="64" height="64" version="1">
    <defs>
        <linearGradient id="a" x2="0" y1="24" y2="19" gradientTransform="matrix(1.83584 0 0 2 -10.03 -16)" gradientUnits="userSpaceOnUse">
            <stop offset="0" stop-color="#504945"/>
            <stop offset=".494" stop-color="#504945"/>
            <stop offset="1" stop-color="#504945"/>
        </linearGradient>
    </defs>
    <path d="M4 56v2c0 1.662 1.338 3 3 3h50c1.662 0 3-1.338 3-3v-2c0 1.662-1.338 3-3 3H7c-1.662 0-3-1.338-3-3z" opacity=".2"/>
    <rect width="56" height="56" x="4" y="4" rx="3" ry="3" fill="#F9F5D7"/>
    <path d="M7 4C5.338 4 4 5.338 4 7v1c0-1.662 1.338-3 3-3h50c1.662 0 3 1.338 3 3V7c0-1.662-1.338-3-3-3H7z" opacity=".1" fill="#F9F5D7"/>
    <path d="M12.979 22A.988.988 0 0 0 12 23v8c0 .554.437 1 .979 1h32.066c1.951 0 3.52-1.544 3.646-3.504A1.377 1.5 0 0 0 50 27a1.377 1.5 0 0 0-1.308-1.496C48.567 23.544 46.997 22 45.047 22H12.979z" fill="url(#a)" fill-rule="evenodd"/>
    <path d="M24 32v4h20l8 8v-2l-8-10z" fill="#7F7061"/>
    <path d="M28 31a7 7 0 0 0-7 7 7 7 0 0 0 7 7 7 7 0 0 0 7-7 7 7 0 0 0-7-7zm1 2.102a5 5 0 0 1 1.775.744L29 35.62v-2.52zm-2 .003v2.516l-1.775-1.775a5 5 0 0 1 1.775-.74zm5.184 2.16a5 5 0 0 1 .718 1.77h-2.488l1.77-1.77zm-8.366.003l1.768 1.767h-2.49a5 5 0 0 1 .722-1.767zm-.705 3.767h2.473l-1.74 1.74a5 5 0 0 1-.733-1.74zm7.301 0h2.477a5 5 0 0 1-.737 1.74l-1.74-1.74zM27 40.45v2.45a5 5 0 0 1-1.732-.717L27 40.449zm2 0l1.734 1.735a5 5 0 0 1-1.734.71V40.45z" fill="#A79984"/>
</svg>
