<svg xmlns="http://www.w3.org/2000/svg" width="64" height="64" version="1">
    <path d="M12.754 6C11.228 6 10 7.16 10 8.6v46.8c0 1.44 1.228 2.6 2.754 2.6H51.25c1.524 0 2.75-1.16 2.75-2.6V8.6C54 7.16 52.774 6 51.25 6H12.754z" opacity=".2"/>
    <path d="M12.754 5C11.228 5 10 6.16 10 7.6v46.8c0 1.44 1.228 2.6 2.754 2.6H51.25c1.524 0 2.75-1.16 2.75-2.6V7.6C54 6.162 52.774 5 51.25 5H12.754z" fill="#F9F5D7"/>
    <path d="M12.754 5C11.228 5 10 6.161 10 7.602v1C10 7.162 11.228 6 12.754 6H51.25C52.774 6 54 7.161 54 8.602v-1C54 6.162 52.774 5 51.25 5H12.754z" opacity=".2" fill="#F9F5D7"/>
    <path d="M12 13v2h16v-2H12zm0 4v2h8v-2h-8zm0 4v2h10v-2H12zm0 4v2h4v-2h-4zm0 4v2h10v-2H12z" opacity=".5"/>
</svg>
