<svg xmlns="http://www.w3.org/2000/svg" width="64" height="64" version="1">
    <path d="M32 5a28.5 28.5 0 0 0-2.316.102c-6.923.492-12.484 3.055-17.489 8.05a27.747 27.747 0 0 0-7.687 14.512c-.093.486-.167.978-.235 1.473-.04.303-.086.605-.117.91a28.514 28.514 0 0 0-.129 1.98c-.005.168-.013.336-.015.504-.004.154-.012.313-.012.469 0 15.253 12.077 27.57 27.227 27.977.117.003.237.01.355.011.142.003.278.012.418.012.674 0 1.342-.036 2.004-.082.083-.006.163-.009.246-.016 10.003-.789 18.473-6.796 22.754-15.308l.004-.004c.277-.551.56-1.1.8-1.672 1.311-2.96 2.024-6.102 2.153-9.39.006-.107.007-.214.012-.321.008-.314.025-.625.023-.941 0-.09.004-.176.004-.266V9.2A4.19 4.19 0 0 0 55.8 5H32.21z" opacity=".2"/>
    <path d="M32 4a28.5 28.5 0 0 0-2.316.102c-6.923.492-12.484 3.055-17.489 8.05a27.747 27.747 0 0 0-7.687 14.512c-.093.486-.167.978-.235 1.473-.04.303-.086.605-.117.91a28.514 28.514 0 0 0-.129 1.98c-.005.168-.013.336-.015.504-.004.154-.012.313-.012.469 0 15.253 12.077 27.57 27.227 27.977.117.003.237.01.355.011.142.003.278.012.418.012.674 0 1.342-.036 2.004-.082.083-.006.163-.009.246-.016 10.003-.789 18.473-6.796 22.754-15.308l.004-.004c.277-.551.56-1.1.8-1.672 1.311-2.96 2.024-6.102 2.153-9.39.006-.107.007-.214.012-.321.008-.314.025-.625.023-.941 0-.09.004-.176.004-.266V8.2A4.19 4.19 0 0 0 55.8 4H32.21z" fill="#D55C0D"/>
    <path d="M34.747 17.003c-.703 0-1.286.561-1.293 1.241-.004.683.58 1.258 1.287 1.261 3.055.023 5.566.989 7.591 2.892 2.001 1.886 3.045 4.499 3.071 7.909v.003c.007.678.591 1.238 1.296 1.238l.014-.003c.706-.006 1.292-.576 1.287-1.258v-.003c-.016-1.99-.34-3.818-.972-5.426a11.725 11.725 0 0 0-2.88-4.258c-2.506-2.356-5.706-3.573-9.39-3.599h-.012zm-13.12 2.94c-.492-.084-1.026.008-1.559.264h-.042l-.06.034c-.988.562-1.914 1.314-2.781 2.259l-.068.073v.069c-.6.748-.997 1.5-1.088 2.255-.03.128-.029.243-.029.367 0 .343.05.692.157 1.034l.028.096.06.034c.342 1.176 1.12 3.005 2.82 6.102 1.134 2.053 2.291 3.768 3.441 5.213a27.908 27.908 0 0 0 2.168 2.423c.012.012.03.039.073.082l.08.08h.006a.884.884 0 0 1 .05.054l.015.017.014.014a27.28 27.28 0 0 0 2.35 2.08 37.225 37.225 0 0 0 5.21 3.45c3.101 1.712 4.947 2.485 6.116 2.822l.043.05.07.026c.332.11.677.162 1.018.157.138.007.26-.002.378-.029.8-.093 1.593-.473 2.378-1.13l.008-.012.009-.005c.012-.012.005-.007.011-.015.007-.006.01-.013.017-.02.929-.847 1.678-1.768 2.242-2.755l.037-.063v-.06c.518-1.077.312-2.178-.529-2.88-.02-.017-.424-.355-.926-.764a45.054 45.054 0 0 0-1.531-1.21c-.777-.575-1.978-1.318-2.662-1.699h-.003c-1.315-.736-2.688-.308-3.293.475l-1.06 1.326c-.427.539-1.28.487-1.303.486-7.188-1.849-9.12-9.075-9.134-9.127-.001-.022-.053-.878.486-1.312l1.32-1.057c.786-.6 1.227-1.974.487-3.292-.386-.682-1.133-1.891-1.7-2.662h-.002a50.637 50.637 0 0 0-1.214-1.537c-.208-.257-.398-.491-.536-.659l-.166-.199c-.02-.023-.037-.04-.048-.054l-.014-.017a2.232 2.232 0 0 0-1.346-.787zm13.197 2.88c-.693-.048-1.316.47-1.367 1.14-.05.669.49 1.266 1.182 1.315 1.712.12 2.868.624 3.736 1.542v.003c.886.935 1.29 2.003 1.256 3.463v.005c-.015.672.548 1.241 1.244 1.256h.031c.686 0 1.258-.541 1.273-1.204.047-2.007-.607-3.797-1.923-5.185-1.326-1.394-3.2-2.175-5.434-2.334z" opacity=".2"/>
    <path d="M34.747 16.003c-.703 0-1.286.561-1.293 1.241-.004.683.58 1.258 1.287 1.261 3.055.023 5.566.989 7.591 2.892 2.001 1.886 3.045 4.499 3.071 7.909v.003c.007.678.591 1.238 1.296 1.238l.014-.003c.706-.006 1.292-.576 1.287-1.258v-.003c-.016-1.99-.34-3.818-.972-5.426a11.725 11.725 0 0 0-2.88-4.258c-2.506-2.356-5.706-3.573-9.39-3.599h-.012zm-13.12 2.94c-.492-.084-1.026.008-1.559.264h-.042l-.06.034c-.988.562-1.914 1.314-2.781 2.259l-.068.073v.069c-.6.748-.997 1.5-1.088 2.255-.03.128-.029.243-.029.367 0 .343.05.692.157 1.034l.028.096.06.034c.342 1.176 1.12 3.005 2.82 6.102 1.134 2.053 2.291 3.768 3.441 5.213a27.908 27.908 0 0 0 2.168 2.423c.012.012.03.039.073.082l.08.08h.006a.884.884 0 0 1 .05.054l.015.017.014.014a27.28 27.28 0 0 0 2.35 2.08 37.225 37.225 0 0 0 5.21 3.45c3.101 1.712 4.947 2.485 6.116 2.822l.043.05.07.026c.332.11.677.162 1.018.157.138.007.26-.002.378-.029.8-.093 1.593-.473 2.378-1.13l.008-.012.009-.005c.012-.012.005-.007.011-.015.007-.006.01-.013.017-.02.929-.847 1.678-1.768 2.242-2.755l.037-.063v-.06c.518-1.077.312-2.178-.529-2.88-.02-.017-.424-.355-.926-.764a45.054 45.054 0 0 0-1.531-1.21c-.777-.575-1.978-1.318-2.662-1.699h-.003c-1.315-.736-2.688-.308-3.293.475l-1.06 1.326c-.427.539-1.28.487-1.303.486-7.188-1.849-9.12-9.075-9.134-9.127-.001-.022-.053-.878.486-1.312l1.32-1.057c.786-.6 1.227-1.974.487-3.292-.386-.682-1.133-1.891-1.7-2.662h-.002a50.637 50.637 0 0 0-1.214-1.537c-.208-.257-.398-.491-.536-.659l-.166-.199c-.02-.023-.037-.04-.048-.054l-.014-.017a2.232 2.232 0 0 0-1.346-.787zm13.197 2.88c-.693-.048-1.316.47-1.367 1.14-.05.669.49 1.266 1.182 1.315 1.712.12 2.868.624 3.736 1.542v.003c.886.935 1.29 2.003 1.256 3.463v.005c-.015.672.548 1.241 1.244 1.256h.031c.686 0 1.258-.541 1.273-1.204.047-2.007-.607-3.797-1.923-5.185-1.326-1.394-3.2-2.175-5.434-2.334z" fill="#F9F5D7"/>
    <path d="M32 4a28.5 28.5 0 0 0-2.316.102c-6.923.492-12.484 3.055-17.489 8.05a27.747 27.747 0 0 0-7.687 14.512c-.093.486-.167.978-.235 1.473-.04.303-.086.605-.117.91a28.514 28.514 0 0 0-.129 1.98c-.005.168-.013.336-.015.504-.004.154-.012.313-.012.469 0 .121.01.24.018.36l.01-.333c.022-.666.06-1.327.128-1.98.031-.305.076-.607.117-.91.068-.495.142-.987.235-1.473a27.747 27.747 0 0 1 7.687-14.512c5.005-4.995 10.566-7.558 17.489-8.05A28.5 28.5 0 0 1 32 5h23.8A4.19 4.19 0 0 1 60 9.2v-1A4.19 4.19 0 0 0 55.8 4H32z" opacity=".2" fill="#F9F5D7"/>
</svg>
