<svg xmlns="http://www.w3.org/2000/svg" width="64" height="64" version="1">
    <rect width="56" height="56" x="4" y="5" rx="28" ry="28" opacity=".2"/>
    <rect width="56" height="56" x="4" y="4" rx="28" ry="28" fill="#3A393A"/>
    <path d="M14 25.564h4v9.056l2 1.132v8.212l-6-3.603z" opacity=".2"/>
    <path d="M14 24.564h4v9.056l2 1.132v8.212l-6-3.603z" fill="#066678"/>
    <path d="M42 36.661l-15.692 9.06L32 49.008l10-5.776zM14 18.993l24.093 13.91-6.112 3.527L14 26.048z" opacity=".2"/>
    <path d="M22 36.661v6.571l10 5.773 5.692-3.284z" opacity=".2"/>
    <path d="M14 17.993l24.093 13.911-6.112 3.526L14 25.05z" fill="#48B9C7"/>
    <path d="M50 25.564h-4v9.056l-2 1.132v8.212l6-3.603z" opacity=".2"/>
    <path d="M42 35.661l-15.692 9.06L32 48.008l10-5.776z" fill="#48B9C7"/>
    <path d="M22 35.661v6.571l10 5.773 5.692-3.284z" fill="#48B9C7"/>
    <path d="M50 24.564h-4v9.056l-2 1.132v8.212l6-3.603z" fill="#48B9C7"/>
    <path d="M50 18.993l-24.093 13.91 6.112 3.527L50 26.048z" opacity=".2"/>
    <path d="M50 17.993L25.907 31.904l6.112 3.526L50 25.05z" fill="#48B9C7"/>
    <path d="M32 4C16.488 4 4 16.488 4 32c0 .113.011.224.018.336C4.369 17.134 16.71 5 32 5c15.29 0 27.63 12.134 27.982 27.336.007-.112.018-.223.018-.336C60 16.488 47.512 4 32 4z" opacity=".1" fill="#F9F5D7"/>
</svg>
