<svg xmlns="http://www.w3.org/2000/svg" width="64" height="64">
    <rect width="33" height="44" x="27" y="11" rx="4.125" ry="4.125" opacity=".2"/>
    <path d="M34.25 5.002a3.643 3.819 0 0 0-.7.092L6.836 11.457A3.643 3.819 0 0 0 4 15.181v35.637a3.643 3.819 0 0 0 2.836 3.724l26.714 6.363A3.643 3.819 0 0 0 38 57.183V8.817a3.643 3.819 0 0 0-3.75-3.815z" opacity=".2"/>
    <rect width="33" height="44" x="27" y="10" rx="4.125" ry="4.125" fill="#F9F5D7"/>
    <path d="M31.125 10A4.116 4.116 0 0 0 27 14.125v1A4.116 4.116 0 0 1 31.125 11h24.75A4.116 4.116 0 0 1 60 15.125v-1A4.116 4.116 0 0 0 55.875 10h-24.75z" fill="#F9F5D7" opacity=".2"/>
    <path d="M24.5 19a2.495 2.495 0 0 0-2.5 2.5v23c0 1.385 1.115 2.5 2.5 2.5h28c1.385 0 2.5-1.115 2.5-2.5v-23c0-1.385-1.115-2.5-2.5-2.5zm3.426 3h21.867l-9.426 9.049zM25 23.582l15.633 11.37L52 24.038V44H25z" opacity=".2"/>
    <path d="M24.5 18a2.495 2.495 0 0 0-2.5 2.5v23c0 1.385 1.115 2.5 2.5 2.5h28c1.385 0 2.5-1.115 2.5-2.5v-23c0-1.385-1.115-2.5-2.5-2.5h-28zm3.426 3h21.867l-9.426 9.049L27.926 21zM25 22.582l15.633 11.37L52 23.038V43H25V22.582z" fill="#504945"/>
    <path d="M34.25 4.002a3.643 3.819 0 0 0-.7.092L6.836 10.457A3.643 3.819 0 0 0 4 14.181v35.637a3.643 3.819 0 0 0 2.836 3.724l26.714 6.363A3.643 3.819 0 0 0 38 56.183V7.817a3.643 3.819 0 0 0-3.75-3.815z" fill="#F9BD2E"/>
    <path d="M21 22a11 11 0 0 0-11 11 11 11 0 0 0 11 11 11 11 0 0 0 11-11 11 11 0 0 0-11-11zm0 5a6 6 0 0 1 6 6 6 6 0 0 1-6 6 6 6 0 0 1-6-6 6 6 0 0 1 6-6z" opacity=".2"/>
    <path d="M21 21a11 11 0 0 0-11 11 11 11 0 0 0 11 11 11 11 0 0 0 11-11 11 11 0 0 0-11-11zm0 5a6 6 0 0 1 6 6 6 6 0 0 1-6 6 6 6 0 0 1-6-6 6 6 0 0 1 6-6z" fill="#F9F5D7"/>
    <path d="M34.25 4.002a3.643 3.819 0 0 0-.7.092L6.837 10.457A3.643 3.819 0 0 0 4 14.182v1a3.643 3.819 0 0 1 2.836-3.725L33.55 5.094a3.643 3.819 0 0 1 .699-.092A3.643 3.819 0 0 1 38 8.816v-1a3.643 3.819 0 0 0-3.75-3.814z" fill="#F9F5D7" opacity=".2"/>
</svg>
