<svg xmlns="http://www.w3.org/2000/svg" width="64" height="64">
    <rect width="56" height="56" x="4" y="5" rx="2.8" ry="2.8" opacity=".2"/>
    <rect width="56" height="56" x="4" y="4" rx="2.8" ry="2.8" fill="#8F3F71"/>
    <path d="M26.223 49.25c-5.86-2.062-10.673-3.767-10.696-3.79-.023-.022-.029-.054-.013-.07.016-.015 4.843.538 10.726 1.23 8.11.954 9.723 1.24 9.76 1.182.066-.1.065-28.05 0-28.15-.072-.11-13.801 3.1-13.92 3.252-.063.082-.08 2.1-.08 9.596 0 7.518-.017 9.504-.08 9.552-.123.093-6.758 3.18-6.85 3.179-.065-.001-.078-2.45-.065-12.143l.016-12.142 8.373-3.025 11.003-3.973L37.026 13l5.906 1.849c3.249 1.017 5.943 1.871 5.987 1.899.064.04.081 3.385.081 16.381 0 15.49-.006 16.334-.113 16.39-.198.103-11.73 3.484-11.873 3.481-.076-.001-4.932-1.69-10.792-3.75z" opacity=".2"/>
    <path d="M26.223 48.25c-5.86-2.062-10.673-3.767-10.696-3.79-.023-.022-.029-.054-.013-.07.016-.015 4.843.538 10.726 1.23 8.11.954 9.723 1.24 9.76 1.182.066-.1.065-28.05 0-28.15-.072-.11-13.801 3.1-13.92 3.252-.063.082-.08 2.1-.08 9.596 0 7.518-.017 9.504-.08 9.552-.123.093-6.758 3.18-6.85 3.179-.065-.001-.078-2.45-.065-12.143l.016-12.142 8.373-3.025 11.003-3.973L37.026 12l5.906 1.849c3.249 1.017 5.943 1.871 5.987 1.899.064.04.081 3.385.081 16.381 0 15.49-.006 16.334-.113 16.39-.198.103-11.73 3.484-11.873 3.481-.076-.001-4.932-1.69-10.792-3.75z" fill="#F9F5D7"/>
    <path d="M6.8 4C5.25 4 4 5.25 4 6.8v1C4 6.25 5.25 5 6.8 5h50.4C58.75 5 60 6.25 60 7.8v-1C60 5.25 58.75 4 57.2 4H6.8z" fill="#F9F5D7" opacity=".1"/>
</svg>
