<svg xmlns="http://www.w3.org/2000/svg" width="64" height="64" version="1">
    <path d="M4.05 32c-.011.334-.05.662-.05 1 0 15.512 12.488 28 28 28 15.511 0 28-12.488 28-28 0-.337-.04-.665-.052-1-.528 15.042-12.775 27-27.95 27C16.826 59 4.579 47.042 4.05 32z" opacity=".2"/>
    <rect width="56" height="56" x="4" y="4" rx="28" ry="28" fill="#066678"/>
    <path d="M32 4C16.488 4 4 16.488 4 32c0 .114.011.224.018.336C4.369 17.134 16.71 5 32 5c15.29 0 27.63 12.134 27.982 27.336.007-.112.018-.222.018-.336C60 16.488 47.512 4 32 4z" opacity=".2" fill="#F9F5D7"/>
    <g opacity=".2">
        <path d="M20 16.996h6v34h-6zM38 16.996h6v25.999h-6z"/>
        <path d="M20 27v4c0 6.596 5.404 12 12 12s12-5.404 12-12v-4.004h-6v4c0 3.375-2.625 6-6 6-3.376 0-6-2.625-6-6V26.99z"/>
    </g>
    <g fill="#F9F5D7">
        <path d="M20 15.996h6v34h-6zM38 15.996h6v25.999h-6z"/>
        <path d="M20 26v4c0 6.597 5.404 12 12 12s12-5.403 12-12v-4.004h-6v4c0 3.375-2.625 6-6 6-3.376 0-6-2.625-6-6V25.99z"/>
    </g>
</svg>
