<svg xmlns="http://www.w3.org/2000/svg" width="64" height="64" version="1">
    <path d="M4 56v2c0 1.662 1.338 3 3 3h50c1.662 0 3-1.338 3-3v-2c0 1.662-1.338 3-3 3H7c-1.662 0-3-1.338-3-3z" opacity=".2"/>
    <rect width="56" height="56" x="4" y="4" rx="3" ry="3" fill="#8F3F71"/>
    <path d="M7 4C5.338 4 4 5.338 4 7v1c0-1.662 1.338-3 3-3h50c1.662 0 3 1.338 3 3V7c0-1.662-1.338-3-3-3H7z" opacity=".1" fill="#F9F5D7"/>
    <g transform="matrix(2 0 0 2 0 1)" opacity=".2">
        <circle cx="20.5" cy="9.5" r="3.5"/>
        <path d="M20.5 15a3.5 3.438 0 0 0-3.5 3.438 3.5 3.438 0 0 0 .003.076l-.003.003V26h7v-7.522l-.001-.003a3.5 3.438 0 0 0 0-.037A3.5 3.438 0 0 0 20.5 15z"/>
        <circle cx="14" cy="9.5" r="3"/>
        <path d="M14 14a3 3.125 0 0 0-3 3.125 3 3.125 0 0 0 .002.07l-.002.002V24h6v-6.841a3 3.125 0 0 0 0-.034A3 3.125 0 0 0 14 14z"/>
        <circle cx="9" cy="9.5" r="2"/>
        <path d="M9 13a2 2.188 0 0 0-2 2.188 2 2.188 0 0 0 .002.048L7 15.238V20h4v-4.788a2 2.188 0 0 0 0-.023A2 2.188 0 0 0 9 13z"/>
    </g>
    <g transform="scale(2)" fill="#48B9C7">
        <circle cx="20.5" cy="9.5" r="3.5"/>
        <path d="M20.5 15a3.5 3.438 0 0 0-3.5 3.438 3.5 3.438 0 0 0 .003.076l-.003.003V26h7v-7.522l-.001-.003a3.5 3.438 0 0 0 0-.037A3.5 3.438 0 0 0 20.5 15z"/>
        <circle cx="14" cy="9.5" r="3"/>
        <path d="M14 14a3 3.125 0 0 0-3 3.125 3 3.125 0 0 0 .002.07l-.002.002V24h6v-6.841a3 3.125 0 0 0 0-.034A3 3.125 0 0 0 14 14z"/>
        <circle cx="9" cy="9.5" r="2"/>
        <path d="M9 13a2 2.188 0 0 0-2 2.188 2 2.188 0 0 0 .002.048L7 15.238V20h4v-4.788a2 2.188 0 0 0 0-.023A2 2.188 0 0 0 9 13z"/>
    </g>
</svg>
