<svg xmlns="http://www.w3.org/2000/svg" width="64" height="64" version="1">
    <rect width="29" height="16" x="-47" y="38" rx="2.762" ry="2.667" transform="scale(-1 1)" opacity=".2"/>
    <rect width="29" height="16" x="17" y="13" rx="2.762" ry="2.667" opacity=".2"/>
    <path d="M41.593 32.001a2.52 2.865 0 0 1 1.186.383l8.48 5.567 8.48 5.567a2.52 2.865 0 0 1 0 4.962l-8.48 5.567-8.48 5.57A2.52 2.865 0 0 1 39 57.134v-22.27a2.52 2.865 0 0 1 2.593-2.864zM22.407 7.001a2.52 2.865 0 0 0-1.186.383l-8.48 5.567-8.48 5.567a2.52 2.865 0 0 0 0 4.962l8.48 5.567 8.48 5.57A2.52 2.865 0 0 0 25 32.134V9.865a2.52 2.865 0 0 0-2.593-2.864z" opacity=".2"/>
    <rect width="29" height="16" x="-47" y="37" rx="2.762" ry="2.667" transform="scale(-1 1)" fill="#8F3F71"/>
    <path d="M20.762 37C19.232 37 18 38.189 18 39.666v1C18 39.189 19.232 38 20.762 38h23.476C45.768 38 47 39.189 47 40.666v-1C47 38.189 45.768 37 44.238 37H20.762z" fill="#F9F5D7" opacity=".1"/>
    <rect width="29" height="16" x="17" y="12" rx="2.762" ry="2.667" fill="#7CB668"/>
    <path d="M19.762 12C18.232 12 17 13.189 17 14.666v1C17 14.189 18.232 13 19.762 13h23.476C44.768 13 46 14.189 46 15.666v-1C46 13.189 44.768 12 43.238 12H19.762z" fill="#F9F5D7" opacity=".1"/>
    <path d="M41.593 31.001a2.52 2.865 0 0 1 1.186.383l8.48 5.567 8.48 5.567a2.52 2.865 0 0 1 0 4.962l-8.48 5.567-8.48 5.57A2.52 2.865 0 0 1 39 56.134v-22.27a2.52 2.865 0 0 1 2.593-2.864z" fill="#48B9C7"/>
    <path d="M22.407 6.001a2.52 2.865 0 0 0-1.186.383l-8.48 5.567-8.48 5.567a2.52 2.865 0 0 0 0 4.962l8.48 5.567 8.48 5.57A2.52 2.865 0 0 0 25 31.134V8.865a2.52 2.865 0 0 0-2.593-2.864z" fill="#B7BB25"/>
    <path d="M41.592 31.002A2.52 2.865 0 0 0 39 33.865v1a2.52 2.865 0 0 1 2.594-2.863 2.52 2.865 0 0 1 1.185.383l8.48 5.566 8.481 5.567a2.52 2.865 0 0 1 1.219 1.98 2.52 2.865 0 0 0-1.219-2.98l-8.48-5.567-8.48-5.566a2.52 2.865 0 0 0-1.186-.383 2.52 2.865 0 0 1-.002 0zM22.406 6.002a2.52 2.865 0 0 0-1.185.383L4.26 17.518a2.52 2.865 0 0 0-1.219 2.98 2.52 2.865 0 0 1 1.219-1.98L21.22 7.385a2.52 2.865 0 0 1 1.186-.383A2.52 2.865 0 0 1 25 9.865v-1a2.52 2.865 0 0 0-2.594-2.863z" fill="#F9F5D7" opacity=".2"/>
</svg>
