<svg xmlns="http://www.w3.org/2000/svg" width="64" height="64" version="1">
    <path d="M60 33a28 28 0 0 1-28 28A28 28 0 0 1 4 33 28 28 0 0 1 32 5a28 28 0 0 1 28 28z" opacity=".2"/>
    <rect width="52.267" height="53.2" x="5.87" y="5.87" rx="26.133" ry="26.133" fill="#F9F5D7"/>
    <path d="M60 32a28 28 0 0 1-28 28A28 28 0 0 1 4 32 28 28 0 0 1 32 4a28 28 0 0 1 28 28z" fill="#F9F5D7"/>
    <path d="M55 32c0 12.703-10.297 23-23 23-9.852 0-18.257-6.194-21.533-14.9-.948-2.52 1.988-5.583 1.988-8.434 0-12.703 5.728-15.868 18.43-15.868 5.904 0 12.402-4.574 16.475-.918C52.05 19.09 55 25.2 55 32z" fill="#3A393A"/>
    <path d="M18.368 13.508A23 23 0 0 0 9 32a23 23 0 0 0 .015.42L32 32z" fill="#FECE4F"/>
    <path d="M9.197 29.157A23 23 0 0 0 9 32a23 23 0 0 0 1.689 8.614L32 32z" fill="#066678"/>
    <path d="M32 9a23 23 0 0 0-15.363 5.92L32 32l15.566-16.893A23 23 0 0 0 32 9z" fill="#7CB668"/>
    <path d="M32 32l-7.667-8.519" fill="none" stroke="#7B6F64" stroke-width="2.706" stroke-linecap="round"/>
    <path d="M32 33l11.074-11.926" opacity=".2" fill="none" stroke="#151819" stroke-width="1.353" stroke-linecap="round"/>
    <path d="M32 32l11.074-11.926" fill="none" stroke="#F9F5D7" stroke-width="1.353" stroke-linecap="round"/>
    <path d="M32 33l-5.963 15.334" opacity=".2" fill="none" stroke="#151819" stroke-width="1.353" stroke-linecap="round"/>
    <path d="M32 32l-5.963 15.333" fill="none" stroke="#FA4934" stroke-width="1.353" stroke-linecap="round"/>
    <circle cx="32.012" cy="32" r=".853" fill="#151819"/>
    <circle cx="15.782" cy="43.173" r="3" transform="rotate(-24.04)" opacity=".2"/>
    <circle cx="16.189" cy="42.26" r="3" transform="rotate(-24.04)" fill="#F9F5D7"/>
    <circle cx="32" cy="32" r="2" fill="#3A393A"/>
    <path d="M32 4A28 28 0 0 0 4 32a28 28 0 0 0 .021.586A28 28 0 0 1 32 5a28 28 0 0 1 27.979 27.414A28 28 0 0 0 60 32 28 28 0 0 0 32 4z" opacity=".2" fill="#F9F5D7"/>
    <path d="M32 9A23 23 0 0 0 9 32a23 23 0 0 0 .021.59A23 23 0 0 1 32 10a23 23 0 0 1 22.979 22.41A23 23 0 0 0 55 32 23 23 0 0 0 32 9z" opacity=".2"/>
    <path d="M54.979 32.41A23 23 0 0 1 32 55 23 23 0 0 1 9.021 32.59 23 23 0 0 0 9 33a23 23 0 0 0 23 23 23 23 0 0 0 23-23 23 23 0 0 0-.021-.59z" opacity=".2" fill="#F9F5D7"/>
</svg>
