<svg xmlns="http://www.w3.org/2000/svg" width="64" height="64" version="1">
    <rect width="56" height="56" x="4" y="5" rx="16.8" ry="16.8" opacity=".2"/>
    <rect width="56" height="56" x="4" y="4" rx="16.8" ry="16.8" fill="#504945"/>
    <path d="M24 13c0 .868.84 1.59 2 1.867V21h-.898v.012c-1.135.008-2.025.028-3.075.27-1.067.245-2.027.451-2.027 1.784l1.398.664s.733-.55 1.403-.664c.389-.066.799.019 1.199.168V32l-3 3 3 3v11.59L27 53l3-3.41V23.254c.414-.152.83-.25 1.2-.188.67.114 1.402.664 1.402.664L34 23.066c0-1.333-.96-1.54-2.027-1.785-1.33-.305-2.255-.262-3.973-.281v-6.133c1.16-.276 2-.999 2-1.867zm11.32 8c.401.607.68 1.349.68 2.066a2 2 0 0 1-.613 1.442C37.03 25.653 38 27.724 38 29.766c0 3.784-2.11 4.117-6 5.234 2.335 5.707 6.988 10.757 11.59 13.371C47.516 50.745 51.114 52.415 56 53c-5.396-6.586-13.799-9.486-18-16 2.808-1.472 6-2.744 6-7.61 0-3.946-3.6-8.39-6.277-8.39z" opacity=".2"/>
    <path d="M24 12c0 .588.391 1.104 1 1.465V20h.102v.012c-1.135.008-2.025.028-3.075.27-1.067.245-2.027.451-2.027 1.784l1.398.664s.733-.55 1.403-.664c.389-.066.799.019 1.199.168v8.782l-3 2.996 3 3V48.59L27 52l3-3.41V22.254c.414-.152.83-.25 1.2-.188.67.114 1.402.664 1.402.664L34 22.066c0-1.333-.96-1.54-2.027-1.785-1.33-.305-2.255-.262-3.973-.281h1v-6.535c.609-.361 1-.877 1-1.465h-6zm11.32 8c.401.607.68 1.349.68 2.066a2 2 0 0 1-.613 1.442C37.03 24.653 38 26.724 38 28.766c0 3.784-2.11 4.117-6 5.234 2.335 5.707 6.988 10.757 11.59 13.371C47.516 49.745 51.114 51.415 56 52c-5.396-6.586-13.799-9.486-18-16 2.808-1.472 6-2.744 6-7.61 0-3.946-3.6-8.39-6.277-8.39H35.32z" fill="#A79984"/>
    <path d="M20.8 4C11.495 4 4 11.494 4 20.8v1C4 12.495 11.494 5 20.8 5h22.4C52.505 5 60 12.494 60 21.8v-1C60 11.495 52.506 4 43.2 4H20.8z" opacity=".1" fill="#F9F5D7"/>
</svg>
