<svg xmlns="http://www.w3.org/2000/svg" width="64" height="64" version="1">
    <rect width="56" height="56" x="4" y="5" rx="2.8" ry="2.8" opacity=".2"/>
    <rect width="56" height="56" x="4" y="4" rx="2.8" ry="2.8" fill="#504945"/>
    <path d="M10.93 12.742l.043.278c.996 6.6 1.564 11.284 2.304 14.593.741 3.31 1.664 5.28 3.395 6.372 1.73 1.092 4.194 1.18 7.984 1.06 3.79-.12 8.922-.456 16-.674l.227-.004-.031-.222c-.667-5.073-.889-8.587-1.34-11.117-.452-2.53-1.156-4.11-2.774-5.18-1.618-1.07-4.096-1.637-8.12-2.293-4.026-.656-9.604-1.393-17.411-2.762zM45 14c-2.753 0-5 2.233-5 5 0 2.768 2.247 5 5 5s5-2.232 5-5c0-2.767-2.247-5-5-5zm8.148 8.723l-.418.25c-3.334 1.993-5.793 2.352-7.699 3.398a5.985 5.985 0 0 0-2.422 2.38c-.658 1.15-1.174 2.739-1.59 5.054l-.062.351.336-.12c5.175-1.938 7.47-2.109 8.863-3.118.697-.504 1.129-1.22 1.524-2.402.395-1.182.765-2.842 1.355-5.317zm-.425 8.664l-.551.184c-5.53 1.845-7.796 2.372-8.957 3.218-.58.423-.863.94-1.074 1.668-.212.728-.377 1.686-.758 3.082l-.09.324.332-.07c3.35-.739 4.897-.919 6.203-1.84 1.306-.92 2.293-2.528 4.578-6.078zm-11.684 4.586l-.281.02c-8.412.438-12.794-.217-15.711 1.648-1.459.932-2.513 2.44-3.477 4.867-.963 2.428-1.845 5.786-2.972 10.477l-.082.343.336-.097c5.02-1.475 8.579-2.115 11.18-2.532 2.6-.416 4.25-.605 5.472-1.226 1.222-.621 1.96-1.679 2.695-3.707.735-2.029 1.488-4.855 2.766-9.515zm10.098.851c-2.47 2.592-4.58 3.064-6.215 3.637-.817.287-1.528.604-2.063 1.238-.535.635-.877 1.563-1.011 3.036l-.02.253.25-.027c3.004-.389 4.692-.693 5.969-1.765 1.277-1.073 2.088-2.856 3.426-6.153zm-30.29 4.332l-.363.098c-3.814.956-5.576 2.128-6.668 4.067-1.09 1.938-1.529 4.582-2.84 8.554l-.124.383.386-.133c1.732-.572 2.959-.984 3.899-1.453.94-.47 1.592-1.002 2.12-1.793 1.06-1.58 1.655-4.132 3.466-9.371zm29.481 2.832l-.367.141c-3.061 1.166-4.75 1.686-5.668 2.484-.46.4-.711.885-.8 1.5-.09.616-.032.66.089 1.66l.027.231.227-.059a7.792 7.792 0 0 1 2.414-.23c.61.026 1.084.088 1.531-.121.447-.21.788-.67 1.149-1.57.36-.9.757-1.563 1.3-3.653z" opacity=".2"/>
    <path d="M10.93 11.742l.043.278c.996 6.6 1.564 11.283 2.304 14.593.741 3.31 1.664 5.28 3.395 6.371 1.73 1.093 4.194 1.18 7.984 1.06 3.79-.119 8.922-.455 16-.673l.227-.004-.031-.222c-.667-5.073-.889-8.587-1.34-11.118-.452-2.53-1.156-4.11-2.774-5.18-1.618-1.07-4.096-1.636-8.12-2.292-4.026-.656-9.604-1.393-17.411-2.762zM45 13c-2.753 0-5 2.233-5 5s2.247 5 5 5 5-2.233 5-5-2.247-5-5-5zm8.148 8.723l-.418.25c-3.334 1.993-5.793 2.351-7.699 3.398a5.985 5.985 0 0 0-2.422 2.379c-.658 1.15-1.174 2.74-1.59 5.055l-.062.351.336-.12c5.175-1.938 7.47-2.11 8.863-3.118.697-.504 1.129-1.22 1.524-2.402.395-1.182.765-2.842 1.355-5.317zm-.425 8.664l-.551.183c-5.53 1.846-7.796 2.373-8.957 3.22-.58.422-.863.94-1.074 1.667-.212.728-.377 1.686-.758 3.082l-.09.324.332-.07c3.35-.74 4.897-.919 6.203-1.84 1.306-.92 2.293-2.528 4.578-6.078zm-11.684 4.586l-.281.02c-8.412.438-12.794-.217-15.711 1.648-1.459.932-2.513 2.439-3.477 4.867-.963 2.428-1.845 5.786-2.972 10.476l-.082.344.336-.097c5.02-1.475 8.579-2.115 11.18-2.532 2.6-.417 4.25-.605 5.472-1.226 1.222-.622 1.96-1.679 2.695-3.707.735-2.029 1.488-4.856 2.766-9.515zm10.098.851c-2.47 2.592-4.58 3.064-6.215 3.637-.817.287-1.528.604-2.063 1.238-.535.635-.877 1.563-1.011 3.035l-.02.254.25-.027c3.004-.389 4.692-.693 5.969-1.766 1.277-1.072 2.088-2.855 3.426-6.152zm-30.29 4.332l-.363.098c-3.814.956-5.576 2.128-6.668 4.066-1.09 1.939-1.529 4.583-2.84 8.555l-.124.383.386-.133c1.732-.573 2.959-.984 3.899-1.453.94-.47 1.592-1.003 2.12-1.793 1.06-1.58 1.655-4.132 3.466-9.371zm29.481 2.832l-.367.14c-3.061 1.167-4.75 1.687-5.668 2.485-.46.4-.711.885-.8 1.5-.09.616-.032.66.089 1.66l.027.23.227-.058a7.792 7.792 0 0 1 2.414-.23c.61.026 1.084.088 1.531-.121.447-.21.788-.67 1.149-1.57.36-.9.757-1.563 1.3-3.653z" fill="#F9F5D7"/>
    <path d="M6.8 4C5.25 4 4 5.25 4 6.8v1C4 6.25 5.25 5 6.8 5h50.4C58.75 5 60 6.25 60 7.8v-1C60 5.25 58.75 4 57.2 4H6.8z" opacity=".1" fill="#F9F5D7"/>
</svg>
