<svg xmlns="http://www.w3.org/2000/svg" width="64" height="64" version="1">
    <path d="M32 7c-6.217 0-11.887 1.891-16.069 5.066C11.748 15.24 10 19.783 10 24.836V27c-4.153 2.05-8 7.088-8 13.389C2 48.454 7.93 55 14 55V24.836c0-3.784.792-6.867 4.245-9.488C21.698 12.726 26.575 11 32 11c5.426 0 10.302 1.726 13.755 4.347C49.208 17.968 50 21.051 50 24.836V55c6.07 0 12-6.546 12-14.611 0-6.302-3.848-11.34-8-13.389v-2.164c0-5.054-1.748-9.596-5.93-12.77C43.887 8.89 38.217 7 32 7z" opacity=".2"/>
    <circle cx="32" cy="37" r="22" opacity=".2"/>
    <circle cx="32" cy="36" r="22" fill="#F9BD2E"/>
    <path d="M40 45a8 8 0 0 1-8 8c-4.418 0-8-3.543-8-7.962z" opacity=".1"/>
    <path d="M32 14a22 22 0 0 0-22 22 22 22 0 0 0 .018.49A22 22 0 0 1 32 15a22 22 0 0 1 21.975 21.49A22 22 0 0 0 54 36a22 22 0 0 0-22-22z" opacity=".1" fill="#F9F5D7"/>
    <path d="M32 6c-6.217 0-11.887 1.891-16.069 5.066C11.748 14.24 10 18.783 10 23.836V26c-4.153 2.05-8 7.088-8 13.389C2 47.454 7.93 54 14 54V23.836c0-3.784.792-6.867 4.245-9.488C21.698 11.726 26.575 10 32 10c5.426 0 10.302 1.726 13.755 4.347C49.208 16.968 50 20.051 50 23.836V54c6.07 0 12-6.546 12-14.611 0-6.302-3.848-11.34-8-13.389v-2.164c0-5.054-1.748-9.596-5.93-12.77C43.887 7.89 38.217 6 32 6z" fill="#504945"/>
    <circle cx="42" cy="31" r="4" opacity=".1"/>
    <circle cx="42" cy="30" r="4" fill="#3A393A"/>
    <circle cx="22" cy="31" r="4" opacity=".1"/>
    <circle cx="22" cy="30" r="4" fill="#3A393A"/>
    <path d="M40 44a8 8 0 0 1-8 8c-4.418 0-8-3.543-8-7.962z" fill="#3A393A"/>
    <path d="M32 6c-6.217 0-11.888 1.892-16.07 5.066-4.183 3.175-5.93 7.717-5.93 12.77v1c0-5.053 1.747-9.595 5.93-12.77C20.112 8.892 25.783 7 32 7c6.217 0 11.888 1.892 16.07 5.066 4.183 3.175 5.93 7.717 5.93 12.77v-1c0-5.053-1.747-9.595-5.93-12.77C43.888 7.892 38.217 6 32 6zM10 26c-4.153 2.05-8 7.09-8 13.39 0 .159.014.313.02.47C2.23 33.808 5.966 28.99 10 27v-1zm44 0v1c4.034 1.991 7.77 6.805 7.98 12.855.006-.156.02-.31.02-.468C62 33.085 58.152 28.05 54 26z" opacity=".1" fill="#F9F5D7"/>
</svg>
