<svg xmlns="http://www.w3.org/2000/svg" width="64" height="64" version="1">
    <path d="M32 5c-2.614.037-4.479.813-5.354 3.42l.033-.118L22.57 21H8.629c-1.654.054-3.146.827-4.197 2.106-2.273 2.609-1.791 7.514 1.095 9.46l10.891 7.96-4.226 13.13a2.39 2.39 0 0 0-.014.043c-.645 2.122-.038 4.308 1.586 5.803l.038.033c1.952 1.735 4.695 1.956 6.9.52.041-.028.083-.056.124-.086L32 51.9l11.174 8.07c.04.029.083.057.125.084 2.204 1.437 4.947 1.216 6.899-.52l.038-.032c1.624-1.495 2.231-3.681 1.586-5.803l-.014-.043-4.226-13.13 10.89-7.96c2.887-1.946 3.369-6.851 1.096-9.46-1.051-1.28-2.543-2.052-4.197-2.106H41.429L37.322 8.302l.032.118C36.479 5.813 34.614 5.037 32 5z" opacity=".2"/>
    <path d="M32 4c-2.614.037-4.479.813-5.354 3.42l.033-.118-4.108 12.699H8.629c-1.654.053-3.146.826-4.197 2.105-2.273 2.609-1.791 7.514 1.095 9.46l10.891 7.96-4.226 13.13a2.39 2.39 0 0 0-.014.043c-.645 2.122-.038 4.308 1.586 5.803l.038.033c1.952 1.735 4.695 1.956 6.9.52.041-.028.083-.056.124-.086L32 50.9l11.174 8.07c.04.029.083.057.125.084 2.204 1.437 4.947 1.216 6.899-.52l.038-.032c1.624-1.495 2.231-3.681 1.586-5.803l-.014-.043-4.226-13.13 10.89-7.96c2.887-1.946 3.369-6.851 1.096-9.46-1.051-1.28-2.543-2.052-4.197-2.105H41.429L37.322 7.302l.032.118C36.479 4.813 34.614 4.037 32 4z" fill="#FA4934"/>
    <path d="M31.157 23c1.107-.012 2.248.103 3.16.355 3.56.98 6.693 3.848 7.961 7.542 1.147 3.338.799 7.207-.424 9.992l-.5 1.114 2.323 2.077L46 46.15l-.84 1.492c-.455.81-2.407 2.277-2.407 2.277s-.78-.656-1.524-1.468a183.643 183.643 0 0 0-2.104-2.26l-.75-.794-.536.433c-.92.73-1.715 1.093-3.26 1.494-2.763.717-5.051.515-7.68-.688l-1.312-.603-.6.727a81.37 81.37 0 0 0-1.898 2.47c-.711.96-1.43 1.757-1.605 1.77-.174.013-.801-.38-1.392-.865-.591-.485-1.307-1.256-1.586-1.717L18 47.579l3.628-3.95 3.622-3.952.48.61c.778 1.003 2.086 2.113 3.042 2.574 1.325.64 3.874.544 5.326-.196a4.96 4.96 0 0 0 1.05-.747s-2.395-2.904-4.066-4.626c-.38-.392-.948-.988-1.261-1.324l-.568-.616-1.55 1.79c-.852.98-1.791 1.781-1.791 1.781l-4.09-4.05s1.817-2.342 4.027-4.868c.314-.358 1.005-1.166 1.53-1.802l.956-1.16.868.361c.987.409 1.998.369 2.479-.098.18-.175.58-.328.58-.328l2.186 1.868s-.703 1.033-1.574 2.05c-.87 1.018-1.524 1.949-1.46 2.071.208.409 6.38 5.471 6.38 5.471s.862-2.52.813-4.114c-.12-3.914-2.404-7.281-6.051-8.938-2.82-1.1-4.111-.776-7.294-.333 0 0 1.127-.967 2.873-1.607.671-.246 1.577-.388 2.547-.432.156-.007.317-.012.475-.013z" opacity=".2"/>
    <path d="M31.157 22c1.107-.012 2.248.103 3.16.355 3.56.98 6.693 3.848 7.961 7.542 1.147 3.338.799 7.207-.424 9.992l-.5 1.114 2.323 2.077L46 45.15l-.84 1.492c-.455.81-2.407 2.277-2.407 2.277s-.78-.656-1.524-1.468a183.643 183.643 0 0 0-2.104-2.26l-.75-.794-.536.433c-.92.73-1.715 1.093-3.26 1.494-2.763.717-5.051.515-7.68-.688l-1.312-.603-.6.727a81.37 81.37 0 0 0-1.898 2.47c-.711.96-1.43 1.757-1.605 1.77-.174.013-.801-.38-1.392-.865-.591-.485-1.307-1.256-1.586-1.717L18 46.579l3.628-3.95 3.622-3.952.48.61c.778 1.003 2.086 2.113 3.042 2.574 1.325.64 3.874.544 5.326-.196a4.96 4.96 0 0 0 1.05-.747s-2.395-2.904-4.066-4.626c-.38-.392-.948-.988-1.261-1.324l-.568-.616-1.55 1.79c-.852.98-1.791 1.781-1.791 1.781l-4.09-4.05s1.817-2.342 4.027-4.868c.314-.358 1.005-1.166 1.53-1.802l.956-1.16.868.361c.987.409 1.998.369 2.479-.098.18-.175.58-.328.58-.328l2.186 1.868s-.703 1.033-1.574 2.05c-.87 1.018-1.524 1.949-1.46 2.071.208.409 6.38 5.472 6.38 5.472s.862-2.521.813-4.115c-.12-3.914-2.404-7.281-6.051-8.938-2.82-1.1-4.111-.776-7.294-.333 0 0 1.127-.967 2.873-1.607.671-.246 1.577-.388 2.547-.432.156-.007.317-.012.475-.013z" fill="#F9BD2E"/>
    <path d="M32 4c-2.614.037-4.479.813-5.354 3.42l.032-.117L22.57 20H8.63c-1.654.054-3.146.826-4.197 2.105-1.06 1.216-1.512 2.93-1.41 4.61.098-1.34.561-2.635 1.41-3.61 1.05-1.279 2.543-2.051 4.197-2.105H22.57l4.108-12.697-.032.117C27.521 5.813 29.386 5.037 32 5c2.614.037 4.479.813 5.354 3.42l-.032-.117L41.43 21H55.37c1.654.054 3.146.826 4.197 2.105.849.975 1.312 2.27 1.41 3.61.102-1.68-.35-3.394-1.41-4.61-1.05-1.279-2.543-2.051-4.197-2.105H41.43L37.322 7.303l.032.117C36.479 4.813 34.614 4.037 32 4zM16.158 40.334l-3.967 12.322-.013.043a5.69 5.69 0 0 0-.219 2.203c.034-.4.097-.802.219-1.203l.013-.043 4.227-13.13-.26-.192zm31.684 0l-.26.191 4.227 13.131.013.043c.122.4.185.803.219 1.203a5.69 5.69 0 0 0-.232-2.246l-3.967-12.322z" fill="#F9F5D7" opacity=".2"/>
    <path d="M31.156 22a13.76 13.76 0 0 0-.474.014c-.97.044-1.876.187-2.547.433-1.746.64-2.873 1.606-2.873 1.606.833-.116 1.534-.22 2.17-.297.23-.105.444-.214.703-.309.671-.246 1.577-.39 2.547-.433.156-.007.316-.012.474-.014 1.107-.012 2.248.104 3.16.355 3.561.982 6.695 3.848 7.963 7.541.416 1.21.63 2.491.682 3.764.042-1.596-.157-3.234-.682-4.764-1.268-3.693-4.402-6.56-7.963-7.54-.912-.252-2.053-.368-3.16-.356zm1.106 3.979s-.4.153-.58.328c-.48.466-1.491.506-2.479.097l-.869-.361-.955 1.16c-.526.635-1.215 1.444-1.53 1.803a120.589 120.589 0 0 0-4.027 4.867l.446.441a107.06 107.06 0 0 1 3.582-4.308c.314-.359 1.003-1.168 1.529-1.803l.955-1.16.87.361c.987.409 1.997.37 2.478-.097.18-.175.58-.328.58-.328l1.742 1.488c.267-.363.443-.621.443-.621l-2.185-1.867zm-.506 6.347c-.234.339-.373.583-.344.64.21.41 6.383 5.473 6.383 5.473s.861-2.52.812-4.115c-.003-.117-.016-.233-.023-.35-.135 1.548-.79 3.465-.79 3.465s-4.709-3.865-6.038-5.113zm-6.506 6.352l-3.621 3.95L18 46.58l.365.604 3.264-3.555 3.621-3.951.48.61c.778 1.003 2.086 2.112 3.041 2.573 1.326.64 3.874.544 5.327-.197a4.968 4.968 0 0 0 1.048-.746s-.367-.434-.501-.596a4.167 4.167 0 0 1-.547.342c-1.453.74-4 .837-5.327.197-.955-.46-2.263-1.57-3.04-2.574l-.481-.61zm16.424 2.611l-.32.715 2.324 2.076 1.947 1.736.375-.666-2.322-2.07-2.004-1.79z" fill="#F9F5D7" opacity=".2"/>
</svg>
