<svg xmlns="http://www.w3.org/2000/svg" width="64" height="64" version="1">
    <rect width="56" height="56" x="4" y="5" rx="28" ry="28" opacity=".2"/>
    <rect width="56" height="56" x="4" y="4" rx="28" ry="28" fill="#7CB668"/>
    <path d="M30.326 54.277c-.765-.657-.813-.813-.813-2.673v-1.976l-1.312.664c-.722.365-2.24.9-3.374 1.19-2.291.585-4.261.418-5.819-.493-1.498-.876-1.942-1.773-1.947-3.935-.003-1.07.09-2.433.208-3.028.119-.601.111-.93-.017-.742-.526.777-2.11 1.689-2.933 1.689-1.418 0-2.273-1.247-2.273-3.315 0-.977.227-2.289.556-3.214l.556-1.564-.624-.843c-.487-.66-.622-1.189-.614-2.426.007-1.33.2-1.952 1.208-3.91 1.205-2.34 1.9-3.27 1.894-2.536-.003.204-.29.87-.638 1.478-1.157 2.019-1.9 4.475-1.691 5.587.164.872.29 1.01.922 1.01 1.09-.003 2.092-.72 5.41-3.883l3.004-2.865-2.012-1.466c-1.106-.807-2.553-1.809-3.214-2.226-1.668-1.054-2.148-2.241-1.488-3.686.324-.71.773-1.028 3.027-2.147.857-.425 1.557-.821 1.557-.88 0-.06-.2-.309-.443-.552-.712-.71-.088-2.4 1.054-2.855a87.39 87.39 0 0 0 2.586-1.117c1.851-.832 7.4-2.708 7.554-2.554.33.328-.41.952-1.62 1.368-4.077 1.398-9.13 3.514-9.13 3.821 0 .08.184.502.41.938l.41.792 1.418-.567c4.522-1.81 11.205-3.747 12.928-3.747.311 0 .87.304 1.242.676.573.57.65.832.497 1.69-.263 1.476-.957 2.47-2.967 4.254-.983.873-2.173 2.121-2.643 2.775-1.04 1.445-1.28 1.08-.42-.637.568-1.135 2.265-2.97 4.423-4.783.8-.672.804-.686.297-1.246-.375-.413-.84-.567-1.717-.567-1.24 0-5.188.95-8.056 1.936-3.217 1.107-9.614 3.96-9.614 4.286 0 .092.396.37.88.62.923.474 3.124 1.794 5.823 3.49l1.6 1.005 1.252-.474c.69-.261 1.317-.54 1.396-.618.079-.078-.115-1.612-.43-3.408-.548-3.116-.532-4.674.046-4.674a.26.26 0 0 1 .266.253c0 .138.384.87.854 1.624.847 1.36.896 2.032.1 1.373-.514-.427-.538-.073-.122 1.862.35 1.627 1.11 2.662 2.328 3.17.808.337.902.488.902 1.454 0 1.193-.127 1.261-1.255.674-.905-.471-2.345-.529-3.102-.124-.47.251-.206.514 2.388 2.367a241.23 241.23 0 0 1 3.932 2.858l1.016.773v-.73c0-.403-.131-3.083-.291-5.958-.251-4.504-.236-5.331.113-5.991l.405-.766.586 1.351c1.366 3.154 1.614 4.784.508 3.349l-.497-.645.019 1.487c.01.817.16 3.178.332 5.245l.315 3.759 1.053.545c.968.5 1.144.514 2.167.161l1.113-.384.05-1.622c.027-.892-.063-2.595-.2-3.785-.138-1.19-.368-3.805-.512-5.812-.143-2.007-.395-5.325-.56-7.374-.28-3.481-.218-4.798.224-4.786.257.007 1.946 3.886 1.946 4.47 0 .449-.03.448-.542-.014-.662-.599-.654-.849-.153 4.325 1.096 11.338 1.163 12.994.6 14.862-.55 1.817-2.51 2.741-4.34 2.047l-.678-.258.051 4.515c.05 4.36-.303 7.084-.917 7.084-.122 0-.197-1.186-.168-2.636.03-1.45-.05-4.293-.176-6.32l-.229-3.683L32.4 35.29c-.991-.752-2.046-1.588-2.344-1.858-.298-.269-1.256-1.02-2.128-1.67l-1.587-1.18.686 1.18c.899 1.544 1.134 2.917.72 4.204-.512 1.6-1.235 2.18-3.626 2.917-2.55.786-4.842 2.033-5.457 2.97-.237.362-.557 1.425-.71 2.362-.359 2.19.06 3.494 1.488 4.643.882.71 1.303.845 2.913.936 2.712.153 6.309-1.156 9.012-3.278 1.236-.97 1.232-1.231-.088-4.887-.659-1.826-.821-2.628-.682-3.37l.183-.973 1.185 1.343c1.315 1.49 1.47 1.88.664 1.67-.668-.175-.668-.121 0 1.635.602 1.58.705 3.572.233 4.476-.17.324-.82 1.142-1.447 1.817-.932 1.005-1.173 1.487-1.33 2.664-.145 1.096-.09 1.589.235 2.084.87 1.325 1.722.757 5.775-3.85 1.43-1.627 2.021-2.018 5.03-3.326l1.59-.691.057-1.893c.075-2.524.848-3.92 2.17-3.92.48 0 .73.256 1.063 1.087.24.598.436 1.313.436 1.588 0 .844-.799 2.818-1.398 3.454-.821.873-.483 1.44.86 1.44.811 0 1.28-.175 1.769-.663.806-.805.818-1.178.266-8.663-1.252-17-1.358-19.882-.731-19.864.208.006 1.942 3.839 1.942 4.292 0 .46-.483.353-.791-.175-.39-.67-.374.378.101 6.27 1.264 15.68 1.191 17.975-.623 19.71-1.555 1.488-3.46 1.452-4.139-.077-.202-.456-.505-.83-.674-.83-.677 0-4.573 1.968-5.552 2.805-.575.49-1.642 1.68-2.373 2.644-2.11 2.781-3.265 3.257-4.77 1.964zM44.754 44.01c.7-.489.8-1.643.212-2.434-.819-1.1-1.818.494-1.386 2.212.19.755.365.788 1.174.222zM15.33 42.876c.39-.26 1.37-1.152 2.174-1.983 2.046-2.112 3.301-2.866 6.654-3.994 2.417-.814 2.933-1.084 3.002-1.57.124-.872-.847-2.571-2.429-4.248-1.672-1.774-1.223-1.958-5.567 2.278-1.858 1.811-3.546 3.21-4.25 3.52-.941.416-1.25.738-1.602 1.669-1.049 2.775-.814 4.804.555 4.8.413 0 1.072-.213 1.463-.472zm.959-2.95c-.339-.337-.182-2.303.256-3.225.441-.928 1.14-1.327.783-.447-.58 1.427-.717 2.01-.567 2.4.134.35.243.368.569.098.473-.391.496-.278.139.661-.252.663-.795.898-1.18.513zm4.1-4.492c-.71-.584-.718-.618-.276-1.342.51-.837.916-.934 1.411-.338.469.563.982.506 1.45-.161l.398-.567.836.617c.975.72 1.011.962.278 1.84l-.54.648-.692-.648-.692-.648-.495.608c-.606.746-.758.745-1.678-.01zm15.768 19.338c.005-.111.188-.439.406-.727.517-.683.513-1.26-.008-1.06-.587.225-.5-.276.152-.864.477-.431.594-.447.808-.109.358.565.327.74-.333 1.912-.534.95-1.047 1.373-1.025.848zm4.477-1.826c-.23-.55-.687-1.058-1.087-1.21-.79-.3-1.012-1.627-.272-1.627.437 0 1.413.897 1.891 1.738.26.457.282.451.321-.078.058-.77.68-2.002 1.076-2.13.415-.135 1.273 1.164 1.03 1.557-.128.206-.346.155-.695-.16-.568-.513-.508-.601-1.071 1.573-.183.707-.437 1.285-.565 1.285-.127 0-.41-.427-.628-.948zm-25.87-4.392c.005-.111.183-.506.396-.878.499-.87.499-1.081 0-1.081-.49 0-.523-.316-.081-.757.446-.445.94-.407 1.13.086.169.44-.876 2.833-1.238 2.833-.12 0-.213-.091-.207-.203zm6.492-.868c-.444-.283-.558-2.316-.202-3.585l.206-.736-.962.567c-1.01.594-1.516.517-.964-.147.35-.42 3.621-2.445 4.462-2.761.832-.314.387.483-.668 1.195-1.332.9-1.728 1.817-1.634 3.785.024.5.14.592.572.455.668-.211.695.161.068.915-.343.412-.586.498-.878.312zm3.97-2.455c-.845-.664-.9-1.07-.249-1.84l.474-.56.802.653c.7.57.768.745.541 1.387-.342.965-.693 1.046-1.568.36zm3.5-.23c-.543-.6-.543-1.226 0-2.819.499-1.46 1.011-1.472.608-.014-.311 1.125-.072 2.618.319 1.987.325-.524.55-.233.365.473-.206.786-.77.948-1.292.373zm8.777-.795c0-.155.117-.356.261-.445.145-.088.195-.5.112-.912-.113-.565.033-.97.586-1.626.836-.99 1.884-1.086 1.884-.17 0 .416-.18.54-.788.54-.433 0-.836.142-.895.315-.153.45.89.713 2 .505.796-.148.933-.104.857.276-.056.28-.66.635-1.58.929-.82.261-1.703.564-1.964.673-.276.116-.473.08-.473-.085zm13.405-3.761c0-2.194-.215-7.047-.478-10.785-.36-5.105-.404-6.989-.18-7.57.296-.761.312-.742 1.214 1.391.503 1.19.919 2.315.924 2.5.014.495-.462.413-.781-.135-.391-.67-.364.73.115 6.015.518 5.702.514 9.403-.012 11.17-.23.77-.504 1.4-.61 1.401-.105 0-.192-1.794-.192-3.987zm-26.127.87c.189-.227 1.292-1.212 2.451-2.189 1.16-.976 2.175-1.948 2.255-2.158.081-.21.011-.68-.155-1.044-.242-.53-.21-.8.161-1.366.373-.569.538-.643.851-.384.213.177.388.647.388 1.046 0 .398.136.859.302 1.024.353.353.074.937-.397.829-.18-.041-.805.454-1.39 1.101-1.222 1.35-4.004 3.555-4.485 3.555-.244 0-.24-.103.019-.414zm15.43-1.72c0-.165.243-.3.541-.3.298 0 .542-.13.542-.291 0-.187-.318-.226-.88-.109l-.88.183.584-.602c.478-.493.76-.569 1.557-.42 1.089.204 1.191.419.5 1.041-.62.558-1.964.899-1.964.498zm-30.156-.504c-.083-.135.148-.686.514-1.223.618-.91.632-.997.19-1.247-.44-.25-.442-.3-.026-.721.624-.63 1.133-.234.94.731-.192.955-1.406 2.802-1.618 2.46zm32.735-1.68c-.453-.5-.456-.578-.036-1.217.515-.786.649-.812 1.367-.27.472.357.589.337 1.158-.197l.634-.595.73.73.732.73-.728.727c-.712.71-.741.716-1.28.229-.515-.465-.586-.469-1.048-.052-.643.581-.94.565-1.53-.086zm.941-3.023c0-.528-.078-1.71-.174-2.626l-.174-1.665-.943.555c-1.032.608-1.61.464-.74-.184 1.852-1.377 1.73-1.031 1.47-4.149-.798-9.621-.851-12.165-.255-12.165.255 0 1.9 3.894 1.9 4.497 0 .412-.05.41-.542-.036-.536-.484-.54-.475-.425.837.064.729.209 2.603.322 4.164.113 1.561.228 2.93.255 3.041.028.112.066.522.085.912.029.607.094.66.451.363.29-.24.332-.432.136-.628-.397-.396-.351-1.328.094-1.936.31-.424.45-.455.788-.175.517.429.543 2.748.031 2.748-.682 0-1.485 1.383-1.318 2.273.181.97-.329 4.5-.705 4.878-.16.161-.256-.1-.256-.704zm8.777-.366c-.207-.825.07-2.417.597-3.435.645-1.246.867-.85.36.644-.5 1.477-.43 2.242.186 2.006.442-.17.448-.126.107.77-.337.885-1.029.894-1.25.015zm-15.438-1.09c-.27-1.072.485-3.91 1.04-3.91.296 0 .258.25-.234 1.536-.509 1.329-.344 2.245.307 1.706.49-.406.554.027.122.832-.393.734-1.03.65-1.235-.163zm-20.44-1.784c-.359-.668-.215-1.852.404-3.33.542-1.296.838-1.097.45.3-.16.572-.29 1.322-.291 1.666-.001.511.102.594.56.45.545-.174.548-.155.128.657-.51.983-.827 1.048-1.251.257zm14.956.222c-.329-.395-.012-1.898.685-3.25.608-1.179.738-.649.221.903-.49 1.477-.406 1.913.265 1.357.498-.413.566.014.132.823-.325.606-.88.677-1.303.167zm-21.534-1.942c.086-.223.244-.405.35-.405.28 0 3.386-2.43 3.497-2.736.052-.14-.054-.434-.236-.652-.462-.557.155-2.019.853-2.019.415 0 .509.204.509 1.11 0 1.374-1.073 2.83-3.08 4.18-1.48.994-2.145 1.178-1.893.522zm1.462-3.36c-.24-.448-.194-.812.219-1.744.287-.648.658-1.262.824-1.365.391-.241.381-.14-.105 1.021-.223.534-.406 1.11-.406 1.283 0 .225.113.218.406-.025.636-.526.529.347-.114.927-.496.448-.534.444-.824-.097zm11.124-1.85c-.368-.721-.776-1.134-1.177-1.19-.774-.11-1.01-1.222-.315-1.487.333-.128.687.076 1.202.691l.73.873.3-1.194c.384-1.518.966-2.07 1.377-1.304.542 1.01.147 1.98-.427 1.052-.255-.412-.57.588-.614 1.957-.054 1.634-.438 1.849-1.076.601zm14.053-1.277c-.373-.448-.259-1.915.25-3.215.462-1.178.684-.62.299.752-.334 1.191-.206 1.94.281 1.64.4-.246.293.587-.118.928-.282.233-.452.208-.712-.105zm4.053-.422c-.333-.62-.133-1.919.455-2.958.356-.629.37-.577.213.745-.146 1.23-.111 1.398.263 1.255.497-.19.56.228.151.992-.361.673-.709.662-1.082-.034zm-10.486-1.917c-.186-.186-.338-.564-.338-.841 0-.67 1.325-3.444 1.644-3.444.391 0 .3.45-.29 1.413-.668 1.094-.753 2.072-.136 1.56.596-.493.545.311-.067 1.066-.38.467-.542.516-.813.246zm-14.8-.699c-.315-.314-.157-2.002.264-2.813.538-1.039.818-.813.417.335-.393 1.125-.38 1.325.08 1.325.242 0 .33.19.243.522-.142.544-.725.91-1.005.631zm18.524-7.048c0-.12.335-.361.745-.536.725-.309.718-.314-.271-.204-1.053.117-1.247-.054-.69-.61.336-.336 2.433-.454 2.734-.153.327.326-.346 1.126-1.199 1.422-1.021.356-1.32.374-1.32.081z" opacity=".2"/>
    <path d="M30.326 53.277c-.765-.657-.813-.813-.813-2.673v-1.976l-1.312.664c-.722.365-2.24.9-3.374 1.19-2.291.585-4.261.418-5.819-.493-1.498-.876-1.942-1.773-1.947-3.935-.003-1.07.09-2.433.208-3.028.119-.601.111-.93-.017-.742-.526.777-2.11 1.689-2.933 1.689-1.418 0-2.273-1.247-2.273-3.315 0-.977.227-2.289.556-3.214l.556-1.564-.624-.843c-.487-.66-.622-1.189-.614-2.426.007-1.33.2-1.952 1.208-3.91 1.205-2.34 1.9-3.27 1.894-2.536-.003.204-.29.87-.638 1.478-1.157 2.019-1.9 4.475-1.691 5.587.164.872.29 1.01.922 1.01 1.09-.003 2.092-.72 5.41-3.883l3.004-2.865-2.012-1.466c-1.106-.807-2.553-1.809-3.214-2.226-1.668-1.054-2.148-2.241-1.488-3.686.324-.71.773-1.028 3.027-2.147.857-.425 1.557-.821 1.557-.88 0-.06-.2-.309-.443-.552-.712-.71-.088-2.4 1.054-2.855a87.39 87.39 0 0 0 2.586-1.117c1.851-.832 7.4-2.708 7.554-2.554.33.328-.41.952-1.62 1.368-4.077 1.398-9.13 3.514-9.13 3.821 0 .08.184.502.41.938l.41.792 1.418-.567c4.522-1.81 11.205-3.747 12.928-3.747.311 0 .87.304 1.242.676.573.57.65.832.497 1.69-.263 1.476-.957 2.47-2.967 4.254-.983.873-2.173 2.121-2.643 2.775-1.04 1.445-1.28 1.08-.42-.637.568-1.135 2.265-2.97 4.423-4.783.8-.672.804-.686.297-1.246-.375-.413-.84-.567-1.717-.567-1.24 0-5.188.95-8.056 1.936-3.217 1.107-9.614 3.96-9.614 4.286 0 .092.396.37.88.62.923.474 3.124 1.794 5.823 3.49l1.6 1.005 1.252-.474c.69-.261 1.317-.54 1.396-.618.079-.078-.115-1.612-.43-3.408-.548-3.116-.532-4.674.046-4.674a.26.26 0 0 1 .266.253c0 .138.384.87.854 1.624.847 1.36.896 2.032.1 1.373-.514-.427-.538-.073-.122 1.862.35 1.627 1.11 2.662 2.328 3.17.808.337.902.488.902 1.454 0 1.193-.127 1.261-1.255.674-.905-.471-2.345-.529-3.102-.124-.47.251-.206.514 2.388 2.367a241.23 241.23 0 0 1 3.932 2.858l1.016.773v-.73c0-.403-.131-3.083-.291-5.958-.251-4.504-.236-5.331.113-5.991l.405-.766.586 1.351c1.366 3.154 1.614 4.784.508 3.349l-.497-.645.019 1.487c.01.817.16 3.178.332 5.245l.315 3.759 1.053.545c.968.5 1.144.514 2.167.161l1.113-.384.05-1.622c.027-.892-.063-2.595-.2-3.785-.138-1.19-.368-3.805-.512-5.812-.143-2.007-.395-5.325-.56-7.374-.28-3.481-.218-4.798.224-4.786.257.007 1.946 3.886 1.946 4.47 0 .449-.03.448-.542-.014-.662-.599-.654-.849-.153 4.325 1.096 11.338 1.163 12.994.6 14.862-.55 1.817-2.51 2.741-4.34 2.047l-.678-.258.051 4.515c.05 4.36-.303 7.084-.917 7.084-.122 0-.197-1.186-.168-2.636.03-1.45-.05-4.293-.176-6.32l-.229-3.683L32.4 34.29c-.991-.752-2.046-1.588-2.344-1.858-.298-.269-1.256-1.02-2.128-1.67l-1.587-1.18.686 1.18c.899 1.544 1.134 2.917.72 4.204-.512 1.6-1.235 2.18-3.626 2.917-2.55.786-4.842 2.033-5.457 2.97-.237.362-.557 1.425-.71 2.362-.359 2.19.06 3.494 1.488 4.643.882.71 1.303.845 2.913.936 2.712.153 6.309-1.156 9.012-3.278 1.236-.97 1.232-1.231-.088-4.887-.659-1.826-.821-2.628-.682-3.37l.183-.973 1.185 1.343c1.315 1.49 1.47 1.88.664 1.67-.668-.175-.668-.121 0 1.635.602 1.58.705 3.572.233 4.476-.17.324-.82 1.142-1.447 1.817-.932 1.005-1.173 1.487-1.33 2.664-.145 1.096-.09 1.589.235 2.084.87 1.325 1.722.757 5.775-3.85 1.43-1.627 2.021-2.018 5.03-3.326l1.59-.691.057-1.893c.075-2.524.848-3.92 2.17-3.92.48 0 .73.256 1.063 1.087.24.598.436 1.313.436 1.588 0 .844-.799 2.818-1.398 3.454-.821.873-.483 1.44.86 1.44.811 0 1.28-.175 1.769-.663.806-.805.818-1.178.266-8.663-1.252-17-1.358-19.882-.731-19.864.208.006 1.942 3.839 1.942 4.292 0 .46-.483.353-.791-.175-.39-.67-.374.378.101 6.27 1.264 15.68 1.191 17.975-.623 19.71-1.555 1.488-3.46 1.452-4.139-.077-.202-.456-.505-.83-.674-.83-.677 0-4.573 1.968-5.552 2.805-.575.49-1.642 1.68-2.373 2.644-2.11 2.781-3.265 3.257-4.77 1.964zM44.754 43.01c.7-.489.8-1.643.212-2.434-.819-1.1-1.818.494-1.386 2.212.19.755.365.788 1.174.222zM15.33 41.876c.39-.26 1.37-1.152 2.174-1.983 2.046-2.112 3.301-2.866 6.654-3.994 2.417-.814 2.933-1.084 3.002-1.57.124-.872-.847-2.571-2.429-4.248-1.672-1.774-1.223-1.958-5.567 2.278-1.858 1.811-3.546 3.21-4.25 3.52-.941.416-1.25.738-1.602 1.669-1.049 2.775-.814 4.804.555 4.8.413 0 1.072-.213 1.463-.472zm.959-2.95c-.339-.337-.182-2.303.256-3.225.441-.928 1.14-1.327.783-.447-.58 1.427-.717 2.01-.567 2.4.134.35.243.368.569.098.473-.391.496-.278.139.661-.252.663-.795.898-1.18.513zm4.1-4.492c-.71-.584-.718-.618-.276-1.342.51-.837.916-.934 1.411-.338.469.563.982.506 1.45-.161l.398-.567.836.617c.975.72 1.011.962.278 1.84l-.54.648-.692-.648-.692-.648-.495.608c-.606.746-.758.745-1.678-.01zm15.768 19.338c.005-.111.188-.439.406-.727.517-.683.513-1.26-.008-1.06-.587.225-.5-.276.152-.864.477-.431.594-.447.808-.109.358.565.327.74-.333 1.912-.534.95-1.047 1.373-1.025.848zm4.477-1.826c-.23-.55-.687-1.058-1.087-1.21-.79-.3-1.012-1.627-.272-1.627.437 0 1.413.897 1.891 1.738.26.457.282.451.321-.078.058-.77.68-2.002 1.076-2.13.415-.135 1.273 1.164 1.03 1.557-.128.206-.346.155-.695-.16-.568-.513-.508-.601-1.071 1.573-.183.707-.437 1.285-.565 1.285-.127 0-.41-.427-.628-.948zm-25.87-4.392c.005-.111.183-.506.396-.878.499-.87.499-1.081 0-1.081-.49 0-.523-.316-.081-.757.446-.445.94-.407 1.13.086.169.44-.876 2.833-1.238 2.833-.12 0-.213-.091-.207-.203zm6.492-.868c-.444-.283-.558-2.316-.202-3.585l.206-.736-.962.567c-1.01.594-1.516.517-.964-.147.35-.42 3.621-2.445 4.462-2.761.832-.314.387.483-.668 1.195-1.332.9-1.728 1.817-1.634 3.785.024.5.14.592.572.455.668-.211.695.161.068.915-.343.412-.586.498-.878.312zm3.97-2.455c-.845-.664-.9-1.07-.249-1.84l.474-.56.802.653c.7.57.768.745.541 1.387-.342.965-.693 1.046-1.568.36zm3.5-.23c-.543-.6-.543-1.226 0-2.819.499-1.46 1.011-1.472.608-.014-.311 1.125-.072 2.618.319 1.987.325-.524.55-.233.365.473-.206.786-.77.948-1.292.373zm8.777-.795c0-.155.117-.356.261-.445.145-.088.195-.5.112-.912-.113-.565.033-.97.586-1.626.836-.99 1.884-1.086 1.884-.17 0 .416-.18.54-.788.54-.433 0-.836.142-.895.315-.153.45.89.713 2 .505.796-.148.933-.104.857.276-.056.28-.66.635-1.58.929-.82.261-1.703.564-1.964.673-.276.116-.473.08-.473-.085zm13.405-3.761c0-2.194-.215-7.047-.478-10.785-.36-5.105-.404-6.989-.18-7.57.296-.761.312-.742 1.214 1.391.503 1.19.919 2.315.924 2.5.014.495-.462.413-.781-.135-.391-.67-.364.73.115 6.015.518 5.702.514 9.403-.012 11.17-.23.77-.504 1.4-.61 1.401-.105 0-.192-1.794-.192-3.987zm-26.127.87c.189-.227 1.292-1.212 2.451-2.189 1.16-.976 2.175-1.948 2.255-2.158.081-.21.011-.68-.155-1.044-.242-.53-.21-.8.161-1.366.373-.569.538-.643.851-.384.213.177.388.647.388 1.046 0 .398.136.859.302 1.024.353.353.074.937-.397.829-.18-.041-.805.454-1.39 1.101-1.222 1.35-4.004 3.555-4.485 3.555-.244 0-.24-.103.019-.414zm15.43-1.72c0-.165.243-.3.541-.3.298 0 .542-.13.542-.291 0-.187-.318-.226-.88-.109l-.88.183.584-.602c.478-.493.76-.569 1.557-.42 1.089.204 1.191.419.5 1.041-.62.558-1.964.899-1.964.498zm-30.156-.504c-.083-.135.148-.686.514-1.223.618-.91.632-.997.19-1.247-.44-.25-.442-.3-.026-.721.624-.63 1.133-.234.94.731-.192.955-1.406 2.802-1.618 2.46zm32.735-1.68c-.453-.5-.456-.578-.036-1.217.515-.786.649-.812 1.367-.27.472.357.589.337 1.158-.197l.634-.595.73.73.732.73-.728.727c-.712.71-.741.716-1.28.229-.515-.465-.586-.469-1.048-.052-.643.581-.94.565-1.53-.086zm.941-3.023c0-.528-.078-1.71-.174-2.626l-.174-1.665-.943.555c-1.032.608-1.61.464-.74-.184 1.852-1.377 1.73-1.031 1.47-4.149-.798-9.621-.851-12.165-.255-12.165.255 0 1.9 3.894 1.9 4.497 0 .412-.05.41-.542-.036-.536-.484-.54-.475-.425.837.064.729.209 2.603.322 4.164.113 1.561.228 2.93.255 3.041.028.112.066.522.085.912.029.607.094.66.451.363.29-.24.332-.432.136-.628-.397-.396-.351-1.328.094-1.936.31-.424.45-.455.788-.175.517.429.543 2.748.031 2.748-.682 0-1.485 1.383-1.318 2.273.181.97-.329 4.5-.705 4.878-.16.161-.256-.1-.256-.704zm8.777-.366c-.207-.825.07-2.417.597-3.435.645-1.246.867-.85.36.644-.5 1.477-.43 2.242.186 2.006.442-.17.448-.126.107.77-.337.885-1.029.894-1.25.015zm-15.438-1.09c-.27-1.072.485-3.91 1.04-3.91.296 0 .258.25-.234 1.536-.509 1.329-.344 2.245.307 1.706.49-.406.554.027.122.832-.393.734-1.03.65-1.235-.163zm-20.44-1.784c-.359-.668-.215-1.852.404-3.33.542-1.296.838-1.097.45.3-.16.572-.29 1.322-.291 1.666-.001.511.102.594.56.45.545-.174.548-.155.128.657-.51.983-.827 1.048-1.251.257zm14.956.222c-.329-.395-.012-1.898.685-3.25.608-1.179.738-.649.221.903-.49 1.477-.406 1.913.265 1.357.498-.413.566.014.132.823-.325.606-.88.677-1.303.167zm-21.534-1.942c.086-.223.244-.405.35-.405.28 0 3.386-2.43 3.497-2.736.052-.14-.054-.434-.236-.652-.462-.557.155-2.019.853-2.019.415 0 .509.204.509 1.11 0 1.374-1.073 2.83-3.08 4.18-1.48.994-2.145 1.178-1.893.522zm1.462-3.36c-.24-.448-.194-.812.219-1.744.287-.648.658-1.262.824-1.365.391-.241.381-.14-.105 1.021-.223.534-.406 1.11-.406 1.283 0 .225.113.218.406-.025.636-.526.529.347-.114.927-.496.448-.534.444-.824-.097zm11.124-1.85c-.368-.721-.776-1.134-1.177-1.19-.774-.11-1.01-1.222-.315-1.487.333-.128.687.076 1.202.691l.73.873.3-1.194c.384-1.518.966-2.07 1.377-1.304.542 1.01.147 1.98-.427 1.052-.255-.412-.57.588-.614 1.957-.054 1.634-.438 1.849-1.076.601zm14.053-1.277c-.373-.448-.259-1.915.25-3.215.462-1.178.684-.62.299.752-.334 1.191-.206 1.94.281 1.64.4-.246.293.587-.118.928-.282.233-.452.208-.712-.105zm4.053-.422c-.333-.62-.133-1.919.455-2.958.356-.629.37-.577.213.745-.146 1.23-.111 1.398.263 1.255.497-.19.56.228.151.992-.361.673-.709.662-1.082-.034zm-10.486-1.917c-.186-.186-.338-.564-.338-.841 0-.67 1.325-3.444 1.644-3.444.391 0 .3.45-.29 1.413-.668 1.094-.753 2.072-.136 1.56.596-.493.545.311-.067 1.066-.38.467-.542.516-.813.246zm-14.8-.699c-.315-.314-.157-2.002.264-2.813.538-1.039.818-.813.417.335-.393 1.125-.38 1.325.08 1.325.242 0 .33.19.243.522-.142.544-.725.91-1.005.631zm18.524-7.048c0-.12.335-.361.745-.536.725-.309.718-.314-.271-.204-1.053.117-1.247-.054-.69-.61.336-.336 2.433-.454 2.734-.153.327.326-.346 1.126-1.199 1.422-1.021.356-1.32.374-1.32.081z" fill="#B7BB25"/>
    <path d="M32 4C16.488 4 4 16.488 4 32c0 .113.011.224.018.336C4.369 17.134 16.71 5 32 5c15.29 0 27.63 12.134 27.982 27.336.007-.112.018-.223.018-.336C60 16.488 47.512 4 32 4z" opacity=".2" fill="#F9F5D7"/>
</svg>
