<svg xmlns="http://www.w3.org/2000/svg" width="64" height="64">
    <path d="M32 5C17.83 5 7 17.98 7 33s10.83 28 25 28 25-12.98 25-28S46.17 5 32 5z" opacity=".2"/>
    <path d="M32 4C17.83 4 7 16.98 7 32s10.83 28 25 28 25-12.98 25-28S46.17 4 32 4z" fill="#504945"/>
    <path d="M32 11a19 22 0 0 0-19 22 19 22 0 0 0 19 22 19 22 0 0 0 19-22 19 22 0 0 0-19-22zm0 8a9 14 0 0 1 9 14 9 14 0 0 1-9 14 9 14 0 0 1-9-14 9 14 0 0 1 9-14z" opacity=".2"/>
    <path d="M32 10a19 22 0 0 0-19 22 19 22 0 0 0 19 22 19 22 0 0 0 19-22 19 22 0 0 0-19-22zm0 8a9 14 0 0 1 9 14 9 14 0 0 1-9 14 9 14 0 0 1-9-14 9 14 0 0 1 9-14z" fill="#8DC07B"/>
    <path d="M32 4C17.83 4 7 16.98 7 32c0 .167.009.333.012.5C7.25 17.694 17.988 5 32 5c14.012 0 24.75 12.694 24.988 27.5.003-.167.012-.333.012-.5C57 16.98 46.17 4 32 4z" opacity=".1" fill="#F9F5D7"/>
    <path d="M32 10a19 22 0 0 0-19 22 19 22 0 0 0 .018.408A19 22 0 0 1 32 11a19 22 0 0 1 18.982 21.592A19 22 0 0 0 51 32a19 22 0 0 0-19-22zm8.986 22.424A9 14 0 0 1 32 46a9 14 0 0 1-8.986-13.424A9 14 0 0 0 23 33a9 14 0 0 0 9 14 9 14 0 0 0 9-14 9 14 0 0 0-.014-.576z" opacity=".1" fill="#F9F5D7"/>
</svg>
