<svg xmlns="http://www.w3.org/2000/svg" width="64" height="64" version="1">
    <rect width="45" height="57" x="-56" y="-60" rx="2.813" ry="2.85" transform="matrix(0 -1 -1 0 0 0)" opacity=".2"/>
    <rect width="45" height="57" x="-55" y="-60" rx="2.813" ry="2.85" transform="matrix(0 -1 -1 0 0 0)" fill="#504945"/>
    <path d="M17 15v6H7v25h10v6h29v-6h10V21H46v-6z" opacity=".2"/>
    <path fill="#F9F5D7" d="M17 14h29v37H17z"/>
    <path fill="#F9F5D7" d="M56 20v25H7V20z"/>
    <path d="M38 17v3h3v5.025A6.5 6.5 0 0 0 37.5 24a6.5 6.5 0 0 0-6.5 6.5 6.5 6.5 0 0 0 6.5 6.5 6.5 6.5 0 0 0 3.5-1.031V37h6v-3h-3V17zm-24 7v3h3v14h-3v3h9v-3h-3v-5.025A6.5 6.5 0 0 0 23.5 37a6.5 6.5 0 0 0 6.5-6.5 6.5 6.5 0 0 0-6.5-6.5 6.5 6.5 0 0 0-3.5 1.031V24zm9.5 3a3.5 3.5 0 0 1 3.5 3.5 3.5 3.5 0 0 1-3.5 3.5 3.5 3.5 0 0 1-3.5-3.5 3.5 3.5 0 0 1 3.5-3.5zm14 0a3.5 3.5 0 0 1 3.5 3.5 3.5 3.5 0 0 1-3.5 3.5 3.5 3.5 0 0 1-3.5-3.5 3.5 3.5 0 0 1 3.5-3.5z" opacity=".1"/>
    <path fill="#3A393A" d="M20 23v3h-6v-3z"/>
    <path fill="#3A393A" d="M17 23h3v19h-3z"/>
    <path fill="#3A393A" d="M23 40v3h-9v-3zM23.5 23a6.5 6.5 0 0 0-6.5 6.5 6.5 6.5 0 0 0 6.5 6.5 6.5 6.5 0 0 0 6.5-6.5 6.5 6.5 0 0 0-6.5-6.5zm0 3a3.5 3.5 0 0 1 3.5 3.5 3.5 3.5 0 0 1-3.5 3.5 3.5 3.5 0 0 1-3.5-3.5 3.5 3.5 0 0 1 3.5-3.5zM41 36v-3h6v3z"/>
    <path fill="#3A393A" d="M44 36h-3V17h3z"/>
    <path fill="#3A393A" d="M38 19v-3h6v3zM37.5 36a6.5 6.5 0 0 0 6.5-6.5 6.5 6.5 0 0 0-6.5-6.5 6.5 6.5 0 0 0-6.5 6.5 6.5 6.5 0 0 0 6.5 6.5zm0-3a3.5 3.5 0 0 1-3.5-3.5 3.5 3.5 0 0 1 3.5-3.5 3.5 3.5 0 0 1 3.5 3.5 3.5 3.5 0 0 1-3.5 3.5z"/>
    <path d="M5.85 10C4.27 10 3 11.254 3 12.813v1C3 12.254 4.27 11 5.85 11h51.3c1.58 0 2.85 1.254 2.85 2.813v-1C60 11.254 58.73 10 57.15 10H5.85z" fill="#F9F5D7" opacity=".1"/>
</svg>
