<svg xmlns="http://www.w3.org/2000/svg" width="64" height="64">
    <circle cx="33" cy="33" r="23" opacity=".2"/>
    <circle cx="33" cy="32" r="23" fill="#8F3F71"/>
    <path d="M33 9a23 23 0 0 0-23 23 23 23 0 0 0 .018.484A23 23 0 0 1 33 10a23 23 0 0 1 22.975 22.496A23 23 0 0 0 56 32 23 23 0 0 0 33 9z" opacity=".1" fill="#F9F5D7"/>
    <circle cx="33" cy="33" r="19" opacity=".2"/>
    <circle cx="33" cy="32" r="19" fill="#8F3F71"/>
    <path d="M33 13a19 19 0 0 0-19 19 19 19 0 0 0 .018.512A19 19 0 0 1 33 14a19 19 0 0 1 18.977 18.518A19 19 0 0 0 52 32a19 19 0 0 0-19-19z" opacity=".2" fill="#F9F5D7"/>
    <circle cx="33" cy="32" r="15" fill="#066678"/>
    <path d="M33 17a15 15 0 0 0-15 15 15 15 0 0 0 .018.475A15 15 0 0 1 33 18a15 15 0 0 1 14.977 14.508A15 15 0 0 0 48 32a15 15 0 0 0-15-15z" opacity=".2" fill="#F9F5D7"/>
    <path d="M49.086 12.004c-2.325-.06-3.895.648-3.895.648l-29.64 17.332L7.93 41.312c.05.014.087.034.136.047-2.41 3.806-4.708 7.626-5.668 9.797-.736 1.88-.509 2.514 1.176 2.703 10.485.408 11.653-.2 11.653-.199l13.46-.668 29.067-16.996s7.765-5.736 2.293-16.824c-3.736-5.746-7.972-7.092-10.961-7.168zM8.652 41.559c.63.195 1.257.394 1.797.632.356.158.694.325 1.012.5.956.529 1.742 1.136 2.367 1.82a7.112 7.112 0 0 1 1.043 1.469 7.08 7.08 0 0 0-1.043-1.468c-.626-.685-1.411-1.293-2.367-1.82a12.732 12.732 0 0 0-1.012-.5c-.54-.239-1.167-.438-1.797-.633zm6.664 5.457a7.617 7.617 0 0 0 0 0zm.422 3.113c-.01.447-.008.888-.07 1.36.062-.473.061-.913.07-1.36z" opacity=".1"/>
    <path d="M39.354 15.064l-23.805 13.92L28.686 51.99l25.517-14.918v-.002c1.129-10.61-2.708-20.262-14.85-22.006z" fill="#B57514"/>
    <path d="M15.226 52.662c1.614-5.998-.172-10.383-7.157-12.305-2.411 3.807-4.71 7.628-5.67 9.8-.738 1.88-.51 2.513 1.175 2.702 10.484.408 11.652-.198 11.652-.197z" fill="#504945"/>
    <path d="M7.928 40.313l7.621-11.33c13.423.689 18.276 13.538 13.137 23.008l-13.46.67c1.625-6.04-.19-10.448-7.298-12.348z" fill="#D79921"/>
    <path d="M49.087 11.004c-2.325-.06-3.897.649-3.897.649l-5.837 3.411c12.142 1.744 15.979 11.398 14.85 22.009l3.55-2.078s7.767-5.737 2.294-16.825c-3.735-5.746-7.97-7.09-10.96-7.166z" fill="#C77089"/>
    <path d="M39.353 15.064l-8.944 5.23c14.166-.11 18 14.437 12.91 23.14l10.883-6.361v-.003c1.129-10.61-2.708-20.263-14.85-22.006z" fill="#BDAD93"/>
    <path d="M38.043 15.829l-1.92 1.124A16.364 16.8 0 0 1 50.39 33.597a16.364 16.8 0 0 1-1.267 6.445l1.864-1.091a17.727 18.2 0 0 0 .818-5.406 17.727 18.2 0 0 0-13.762-17.716zm-2.988 1.75l-1.904 1.113a16.364 16.8 0 0 1 14.134 16.622 16.364 16.8 0 0 1-1.313 6.568l1.864-1.091a17.727 18.2 0 0 0 .863-5.529A17.727 18.2 0 0 0 35.055 17.58z" opacity=".3"/>
    <path d="M49.086 11.004c-2.325-.06-3.895.648-3.895.648l-5.84 3.41c.452.065.888.145 1.313.235l4.527-2.645s1.57-.707 3.895-.648c2.99.076 7.225 1.422 10.96 7.168 1.314 2.66 1.856 5.004 1.933 7.04.084-2.257-.398-4.932-1.932-8.04-3.736-5.746-7.972-7.092-10.961-7.168zm5.277 23.656a33.283 33.283 0 0 1-.16 2.414l.068-.04c.031-.441.073-.885.088-1.321 0-.35.016-.706.004-1.053z" opacity=".1" fill="#F9F5D7"/>
</svg>
