<svg xmlns="http://www.w3.org/2000/svg" width="64" height="64">
    <rect width="56" height="56" x="4" y="4" rx="4.2" ry="4.2" fill="#CB241D"/>
    <path d="M17.926 17C15.75 17 14 18.804 14 21.043 14 37.641 16.947 49.062 32 49c15.053-.06 18-11.374 18-27.957C50 18.804 48.249 17 46.074 17H17.926zm5.656 9.102c.628 0 1.256.246 1.738.734l6.68 6.77 6.68-6.77a2.445 2.445 0 0 1 3.477 0 2.528 2.528 0 0 1-.001 3.54l-8.23 8.336a2.418 2.418 0 0 1-1.926.703 2.417 2.417 0 0 1-1.926-.703l-8.23-8.337a2.528 2.528 0 0 1 0-3.539 2.438 2.438 0 0 1 1.738-.734z" opacity=".2"/>
    <path d="M17.926 16C15.75 16 14 17.806 14 20.045 14 36.642 16.947 48.062 32 48c15.053-.06 18-11.373 18-27.956C50 17.804 48.249 16 46.074 16H17.926zm5.656 8.919c.628 0 1.256.43 1.738.918l6.68 6.6 6.68-6.8a2.445 2.445 0 0 1 3.477 0 2.528 2.528 0 0 1 0 3.539l-8.23 8.336a2.418 2.418 0 0 1-1.926.703 2.417 2.417 0 0 1-1.926-.703l-8.23-8.336a2.528 2.528 0 0 1 0-3.54 2.42 2.42 0 0 1 1.738-.717z" fill="#F9F5D7"/>
    <path d="M8.2 4C5.871 4 4 5.742 4 8.064v1C4 6.742 5.872 5 8.2 5h47.6C58.129 5 60 6.813 60 9.064v-1C60 5.813 58.128 4 55.8 4H8.2z" opacity=".2" fill="#F9F5D7"/>
    <path d="M4 55.936v1C4 59.065 5.872 61 8.2 61h47.6c2.328 0 4.2-1.813 4.2-4.064v-1C60 58.187 58.128 60 55.8 60H8.2C5.871 60 4 58.065 4 55.936z" opacity=".2"/>
</svg>
