<svg xmlns="http://www.w3.org/2000/svg" width="64" height="64" version="1">
    <rect width="56" height="56" x="4" y="5" rx="2.8" ry="2.8" opacity=".2"/>
    <rect width="56" height="56" x="4" y="4" rx="2.8" ry="2.8" fill="#066678"/>
    <path d="M40.015 15c-.2-.012-.52.116-1.106.371-.694.303-2.272.551-3.507.551-4.373.09-7.872 1.588-10.707 4.41-3.849 3.858-5.06 8.71-3.305 13.215.405 1.04.652 2.099.547 2.352-.105.253-.845.953-1.64 1.558-1.73 1.314-2.925 3.434-3.224 5.711-.18 1.368-.055 2.021.707 3.649 1.638 3.495 5.354 4.992 9.313 3.754 2.293-.717 4.585-3.265 6.422-7.13 1.586-3.337 1.653-3.418 3.355-4.019 2.87-1.013 4.68-2.131 6.477-4.008 3.186-3.326 4.368-7.636 3.226-11.754-.513-1.85-.945-2.488-3.27-4.843-1.471-1.492-2.776-3.003-2.901-3.356-.106-.297-.187-.449-.387-.46zm-7.735 4c1.363.006 2.416.417 2.704 1.235.094.268-.303 1.533-.887 2.808-1.501 3.28-1.98 5.082-2.887 10.867-1.125 7.175-2.354 10.274-4.816 12.137-1.553 1.174-3.458 1.274-4.477.238-.88-.896-1.136-2.018-.726-3.195.324-.932.637-1.081 3.004-1.43 1.646-.242 2.804-1.382 2.804-2.875 0-.939-.377-1.48-1.656-2.832-1.978-2.092-2.842-4.101-2.852-6.636-.014-3.966 1.927-7.337 5.243-9.11 1.515-.81 3.184-1.212 4.546-1.207zm5.067 2.004c.408-.06.927.417 1.66 1.414 2.897 3.94 2.6 9.903-.664 13.328-1.392 1.46-1.719 1.549-2.684.762-.558-.455-.664-.867-.66-2.531.007-2.55.765-8.792 1.356-11.164.286-1.15.584-1.748.992-1.809z" opacity=".2"/>
    <path d="M40.015 14c-.2-.012-.52.116-1.106.372-.694.303-2.272.55-3.507.55-4.373.09-7.872 1.588-10.707 4.41-3.849 3.858-5.06 8.71-3.305 13.215.405 1.04.652 2.099.547 2.352-.105.253-.845.954-1.64 1.559-1.73 1.314-2.925 3.433-3.224 5.71-.18 1.369-.055 2.021.707 3.649 1.638 3.495 5.354 4.992 9.313 3.754 2.293-.717 4.585-3.265 6.422-7.13 1.586-3.337 1.653-3.418 3.355-4.019 2.87-1.013 4.68-2.131 6.477-4.007 3.186-3.327 4.368-7.636 3.226-11.754-.513-1.85-.945-2.489-3.27-4.844-1.471-1.492-2.776-3.003-2.901-3.356-.106-.297-.187-.448-.387-.46zm-7.735 4c1.363.006 2.416.417 2.704 1.235.094.268-.303 1.533-.887 2.808-1.501 3.28-1.98 5.082-2.887 10.868-1.125 7.175-2.354 10.273-4.816 12.136-1.553 1.175-3.458 1.274-4.477.239-.88-.896-1.136-2.02-.726-3.196.324-.932.637-1.08 3.004-1.43 1.646-.242 2.804-1.382 2.804-2.874 0-.94-.377-1.48-1.656-2.832-1.978-2.093-2.842-4.102-2.852-6.637-.014-3.965 1.927-7.337 5.243-9.11 1.515-.81 3.184-1.212 4.546-1.206zm5.067 2.004c.408-.06.927.417 1.66 1.414 2.897 3.94 2.6 9.903-.664 13.329-1.392 1.46-1.719 1.548-2.684.761-.558-.455-.664-.867-.66-2.53.007-2.55.765-8.793 1.356-11.165.286-1.15.584-1.748.992-1.809z" fill="#F9F5D7"/>
    <path d="M6.8 4C5.25 4 4 5.25 4 6.8v1C4 6.25 5.25 5 6.8 5h50.4C58.75 5 60 6.25 60 7.8v-1C60 5.25 58.75 4 57.2 4H6.8z" opacity=".1" fill="#F9F5D7"/>
</svg>
