<svg xmlns="http://www.w3.org/2000/svg" width="64" height="64" version="1">
    <path d="M32 10c-5.54 0-10 4.46-10 10v1c0-5.54 4.46-10 10-10s10 4.46 10 10v-1c0-5.54-4.46-10-10-10zM10 57.2v1c0 1.55 1.25 2.8 2.8 2.8h38.4c1.55 0 2.8-1.25 2.8-2.8v-1c0 1.55-1.25 2.8-2.8 2.8H12.8c-1.55 0-2.8-1.25-2.8-2.8z" opacity=".2"/>
    <path d="M32 4c-8.864 0-16 7.136-16 16v6h6v-6c0-5.54 4.46-10 10-10s10 4.46 10 10v6h6v-6c0-8.864-7.136-16-16-16z" fill="#F9F5D7"/>
    <rect width="33.999" height="44" x="-60" y="-54" rx="2.8" ry="2.8" transform="matrix(0 -1 -1 0 0 0)" fill="#F9BD2E"/>
    <path d="M32 4c-8.864 0-16 7.136-16 16v1c0-8.864 7.136-16 16-16s16 7.136 16 16v-1c0-8.864-7.136-16-16-16zM12.8 26c-1.55 0-2.8 1.25-2.8 2.8v1c0-1.55 1.25-2.8 2.8-2.8h38.4c1.55 0 2.8 1.25 2.8 2.8v-1c0-1.55-1.25-2.8-2.8-2.8H12.8z" opacity=".2" fill="#F9F5D7"/>
    <rect width="44" height="20" x="10" y="32" rx="0" ry="0" fill="#FECE4F"/>
</svg>
