<svg xmlns="http://www.w3.org/2000/svg" width="64" height="64" version="1">
    <path d="M41.986 22L42 60H7.014C4.014 60 4 57.488 4 57.488V25s0-3 3-3z" fill="#F9F5D7"/>
    <path d="M6.987 22C4 22 4 25 4 25l.006.941c.003-.176.087-2.941 2.98-2.941H42v-1z" opacity=".1" fill="#F9F5D7"/>
    <path d="M19.143 30.763c.826.572 1.587 1.27 2.286 2.095l-1.238 1.522c-.763-.952-1.557-1.746-2.382-2.38l1.333-1.237m0 5.999a20.62 20.62 0 0 1 2.191 1.905l-1.238 1.619A12.943 12.943 0 0 0 17.809 38l1.333-1.238m.381 6.571l1.524 1.048a31.682 31.682 0 0 1-3.333 7.522l-1.619-1.238a33.43 33.43 0 0 0 3.428-7.333M23.999 30l1.809.381a8.57 8.57 0 0 1-.571 1.809h7.429v1.715h-8.191l-.857 1.428c-.254.508-.667 1.048-1.238 1.619l-1.143-1.333c1.206-1.46 2.127-3.333 2.762-5.619m-.476 5.905h8.762c0 1.968-.032 3.809-.095 5.523h1.238v1.714h-1.334a86.357 86.357 0 0 0-.285 3.905h1.428v1.619h-1.619C31.364 50.888 30.474 52 28.95 52c-.381 0-.921-.064-1.619-.19l-.286-1.619c.826.126 1.461.19 1.905.19.445 0 .73-.571.857-1.714h-7.428c.254-1.714.476-3.556.666-5.524h-1.333v-1.714h1.524c.127-1.778.222-3.619.286-5.524m1.428 5.524h5.429c.063-1.333.095-2.635.095-3.905h-5.238a66.485 66.485 0 0 1-.286 3.905m2.384-3.428c.699.445 1.334.952 1.905 1.524l-1.143 1.428a12.23 12.23 0 0 0-1.904-1.714l1.141-1.238M30 47.048c.127-1.333.222-2.634.286-3.904h-5.429a60.139 60.139 0 0 1-.476 3.904H30m-2.952-3.428c.762.444 1.46.952 2.095 1.524l-1.238 1.428a13.262 13.262 0 0 0-2-1.809l1.143-1.143m-10-11.333v14.952h-1.715V45.62h-1.619v2.476H12V32.287h5.048m-3.334 11.714h1.619V33.906h-1.619v10.095M4 57.488v1S4.015 61 7.016 61H42v-1H7.016C4.016 60 4 57.488 4 57.488z" opacity=".2"/>
    <path d="M41.992 22l-20-18v38l20 18z" fill="#A79984"/>
    <path d="M22 4.001V42h34.987C59.986 42 60 39.487 60 39.487L59.986 7s0-3-2.999-3z" fill="#066678"/>
    <path d="M38.421 26c.851-3.063 1.623-6.246 2.261-9h.135c.793 3.28 1.51 5.863 2.295 9h-4.691m7.054 9h5.264l-6.883-22h-5.973L31 35h5.061l1.35-5h6.715l1.35 5" opacity=".2"/>
    <path d="M38.421 25c.851-3.063 1.623-6.246 2.261-9h.135c.793 3.28 1.51 5.863 2.295 9h-4.691m7.054 9h5.264l-6.883-22h-5.973L31 34h5.061l1.35-5h6.715l1.35 5" fill="#F9F5D7"/>
    <path d="M22 4v1h35c3 0 3 3 3 3V7s0-3-3-3z" opacity=".1" fill="#F9F5D7"/>
    <path d="M60 39.496C60 39.52 59.969 42 56.984 42H22v1h34.984C59.969 43 60 40.52 60 40.496z" opacity=".2"/>
</svg>
