<svg xmlns="http://www.w3.org/2000/svg" width="64" height="64">
    <rect width="34" height="26" x="-43" y="-52" rx="2" ry="2" transform="matrix(0 -1 -1 0 0 0)" opacity=".2"/>
    <rect width="34" height="26" x="-42" y="-52" rx="2" ry="2" transform="matrix(0 -1 -1 0 0 0)" fill="#928274"/>
    <rect width="34" height="42" x="-39" y="-60" rx="2" ry="2" transform="matrix(0 -1 -1 0 0 0)" opacity=".2"/>
    <rect width="34" height="42" x="-38" y="-60" rx="2" ry="2" transform="matrix(0 -1 -1 0 0 0)" fill="#504945"/>
    <rect width="26" height="34" x="-34" y="-56" rx="0" ry="0" transform="matrix(0 -1 -1 0 0 0)" fill="#8F3F71"/>
    <rect width="34" height="26" x="-61" y="-38" rx="2" ry="2" transform="matrix(0 -1 -1 0 0 0)" opacity=".2"/>
    <rect width="34" height="26" x="-60" y="-38" rx="2" ry="2" transform="matrix(0 -1 -1 0 0 0)" fill="#928274"/>
    <rect width="34" height="42" x="-57" y="-46" rx="2" ry="2" transform="matrix(0 -1 -1 0 0 0)" opacity=".2"/>
    <rect width="34" height="42" x="-56" y="-46" rx="2" ry="2" transform="matrix(0 -1 -1 0 0 0)" fill="#504945"/>
    <rect width="26" height="34" x="-52" y="-42" rx="0" ry="0" transform="matrix(0 -1 -1 0 0 0)" fill="#F9BD2E"/>
    <path d="M6 22c-1.108 0-2 .892-2 2v1c0-1.108.892-2 2-2h38c1.108 0 2 .892 2 2v-1c0-1.108-.892-2-2-2H6zM20 4c-1.108 0-2 .892-2 2v1c0-1.108.892-2 2-2h38c1.108 0 2 .892 2 2V6c0-1.108-.892-2-2-2H20z" fill="#F9F5D7" opacity=".1"/>
</svg>
