<svg xmlns="http://www.w3.org/2000/svg" width="64" height="64" version="1">
    <rect width="56" height="56" x="4" y="4" rx="3" ry="3" fill="#066678"/>
    <path d="M30 19a10 10 0 0 1-10 10 10 10 0 0 1-10-10A10 10 0 0 1 20 9a10 10 0 0 1 10 10z" opacity=".2"/>
    <path d="M30 18a10 10 0 0 1-10 10 10 10 0 0 1-10-10A10 10 0 0 1 20 8a10 10 0 0 1 10 10z" fill="#F9F5D7"/>
    <path d="M30 46a10 10 0 0 1-10 10 10 10 0 0 1-10-10 10 10 0 0 1 10-10 10 10 0 0 1 10 10z" fill="#504945"/>
    <path d="M7 4C5.338 4 4 5.338 4 7v1c0-1.662 1.338-3 3-3h50c1.662 0 3 1.338 3 3V7c0-1.662-1.338-3-3-3H7z" opacity=".1" fill="#F9F5D7"/>
    <path d="M4 57v1c0 1.662 1.338 3 3 3h50c1.662 0 3-1.338 3-3v-1c0 1.662-1.338 3-3 3H7c-1.662 0-3-1.338-3-3zM54 47a10 10 0 0 0-10-10 10 10 0 0 0-10 10 10 10 0 0 0 10 10 10 10 0 0 0 10-10z" opacity=".2"/>
    <path d="M54 46a10 10 0 0 0-10-10 10 10 0 0 0-10 10 10 10 0 0 0 10 10 10 10 0 0 0 10-10z" fill="#F9F5D7"/>
    <path d="M54 18A10 10 0 0 0 44 8a10 10 0 0 0-10 10 10 10 0 0 0 10 10 10 10 0 0 0 10-10z" fill="#504945"/>
</svg>
