<svg xmlns="http://www.w3.org/2000/svg" width="64" height="64">
    <rect width="43.903" height="43.903" x="-64.32" y="-37.85" rx="3.293" ry="3.293" transform="scale(-1 1) rotate(-65.574)" opacity=".2"/>
    <rect width="43.903" height="43.903" x="-63.41" y="-38.27" rx="3.293" ry="3.293" transform="scale(-1 1) rotate(-65.574)" fill="#504945"/>
    <path d="M41.188 3.002c-.428.012-.86.106-1.276.295L5.934 18.729a3.274 3.274 0 0 0-1.887 3.443 3.284 3.284 0 0 1 1.887-2.443L39.912 4.297a3.285 3.285 0 0 1 4.36 1.637l15.431 33.978c.136.3.207.607.25.916a3.282 3.282 0 0 0-.25-1.916L44.271 4.934a3.285 3.285 0 0 0-3.084-1.932z" opacity=".1" fill="#F9F5D7"/>
    <path d="M32.307 18.655c.049 1.208-.593 1.39-1.165 1.345-.551-.043-1.437-.264-1.178-1.609.601-3.145-1.54-4.972-3.584-6.11 4.158 5.34.317 5.354-1.606 12.215-.395 1.404-.747 2.835-.758 4.202-.007.897.532 1.766.902 2.582.27.589.965 1.296.897 2.003-.067.741-.587 1.308-.91 1.956-.5.992-2.431 1.883-2.85 2.763-.236.49.337.86.757 1.091.634.357 1.498.469 1.87 1.13.256.457.188.94-.035 1.381-.202.416-.35 1.037.068 1.315.31.204.715.311.931.668.202.337.109.741.432 1.005.54.437 1.43.396 1.842 1.315.188.423.318.898.567 1.314.385.641 1.458.833 2.2.767.796-.08 1.384-.323 2.146-.548 1.978-.601 3.848-1.395 5.616-2.486a94.895 94.895 0 0 1 3.725-2.226c.978-.542 2.37-.364 3.45-.635 1.335-.337 2.942-.866 3.887-1.785.999-.964 1.41-1.73 1.714-3.509-.432.582-1.546 2.518-2.652 2.875-1.215.389-1.788.184-2.16-.305-.31-.416-.392-.97-.378-1.487.722-2.326 3.976-1.956 6.061-2.761 3.807-1.46 4.678-4.235 4.934-6.839.114-1.42.304-2.378 2.754-5.241-3.064 1.29-4.334 1.915-5.042 3.43-.662 1.42-3.095 2.221-4.35.827-1.593-1.778 2.312-3.293 4.917-3.927 2.078-.51 4.048-2.545 4.48-4.508.687-4.484-1.016-7.329-1.196-10.178C58.499 7.202 59.148 5.717 60 4c-7.411 5.671-1.12 8.757-5.853 13.424-2.706 2.649-4.94 1.241-3.888-1.024.695-1.46 1.354-1.175 1.909-4.552-1.547 2.188-5.707 2.107-7.11 5.663-1.136 2.822-2.044 2.844-2.62 2.05-.686-.945-.722-4.365 2.344-5.979 2.375-1.255 6.996-.446 8.378-9.367-2.78 5.28-8.914 4.441-14.402 6.722-2.848 1.176-6.594 4.33-6.452 7.721" opacity=".2"/>
    <path d="M32.307 17.655c.049 1.208-.593 1.39-1.165 1.345-.551-.043-1.437-.264-1.178-1.609.601-3.145-1.54-4.972-3.584-6.11 4.158 5.34.317 5.354-1.606 12.215-.395 1.404-.747 2.835-.758 4.202-.007.897.532 1.766.902 2.582.27.589.965 1.296.897 2.003-.067.741-.587 1.308-.91 1.956-.5.992-2.431 1.883-2.85 2.763-.236.49.337.86.757 1.091.634.357 1.498.469 1.87 1.13.256.457.188.94-.035 1.381-.202.416-.35 1.037.068 1.315.31.204.715.311.931.668.202.337.109.741.432 1.005.54.437 1.43.396 1.842 1.315.188.423.318.898.567 1.314.385.641 1.458.833 2.2.767.796-.08 1.384-.323 2.146-.548 1.978-.601 3.848-1.395 5.616-2.486a94.895 94.895 0 0 1 3.725-2.226c.978-.542 2.37-.364 3.45-.635 1.335-.337 2.942-.866 3.887-1.785.999-.964 1.41-1.73 1.714-3.509-.432.582-1.546 2.518-2.652 2.875-1.215.389-1.788.184-2.16-.305-.31-.416-.392-.97-.378-1.487.722-2.326 3.976-1.956 6.061-2.761 3.807-1.46 4.678-4.235 4.934-6.839.114-1.42.304-2.378 2.754-5.241-3.064 1.29-4.334 1.915-5.042 3.43-.662 1.42-3.095 2.221-4.35.827-1.593-1.778 2.312-3.293 4.917-3.927 2.078-.51 4.048-2.545 4.48-4.508.687-4.484-1.016-7.329-1.196-10.178C58.499 6.202 59.148 4.717 60 3c-7.411 5.671-1.12 8.757-5.853 13.424-2.706 2.649-4.94 1.241-3.888-1.024.695-1.46 1.354-1.175 1.909-4.552-1.547 2.188-5.707 2.107-7.11 5.663-1.136 2.822-2.044 2.844-2.62 2.05-.686-.945-.722-4.365 2.344-5.979 2.375-1.255 6.996-.446 8.378-9.367-2.78 5.28-8.914 4.441-14.402 6.722-2.848 1.176-6.594 4.33-6.452 7.721" fill="#066678"/>
    <path d="M60 3c-3.808 2.914-3.999 5.144-3.926 7.258.07-1.67.644-3.468 3.188-5.64.217-.522.458-1.054.738-1.618zm-6.84.215c-2.78 5.28-8.914 4.442-14.402 6.723-2.848 1.175-6.593 4.33-6.451 7.72.046 1.205-.593 1.387-1.164 1.342-.4-.031-.972-.163-1.159-.744-.007.045-.01.088-.02.135-.258 1.345.628 1.566 1.179 1.609.57.045 1.21-.137 1.164-1.342-.142-3.39 3.603-6.545 6.45-7.72 5.32-2.211 11.237-1.509 14.128-6.27a22.6 22.6 0 0 0 .275-1.453zm5.457 4.678c-.027.265-.042.529-.025.793.145 2.286 1.252 4.584 1.336 7.714.167-3.562-1.094-6.05-1.31-8.507zm-6.449 2.955c-1.547 2.187-5.706 2.107-7.11 5.664-1.135 2.821-2.045 2.844-2.62 2.05-.164-.225-.286-.599-.342-1.048-.09.894.068 1.671.342 2.049.575.793 1.485.77 2.62-2.051 1.328-3.366 5.122-3.478 6.837-5.334.093-.374.185-.793.273-1.33zm-25.787.433c.518.666.912 1.25 1.201 1.774 1.236.9 2.288 2.113 2.457 3.808.279-2.824-1.731-4.51-3.658-5.582zm29.73.985c-.063 1.315-.44 2.654-1.965 4.158-1.989 1.948-3.716 1.7-4.078.533-.467 1.917 1.604 2.89 4.078.467 1.913-1.885 2.021-3.514 1.965-5.158zm-27.92 3.488c-.316 1.88-2.23 3.507-3.418 7.742-.395 1.404-.746 2.835-.757 4.201-.001.114.027.227.043.34.094-1.164.382-2.36.714-3.54 1.39-4.956 3.765-6.345 3.418-8.743zm31.592 6.287c-3.064 1.29-4.332 1.915-5.04 3.43-.663 1.42-3.096 2.222-4.35.828a1.695 1.695 0 0 1-.237-.332c-.215.418-.18.866.237 1.332 1.254 1.394 3.687.593 4.35-.828.598-1.28 1.668-1.944 3.81-2.89.333-.451.723-.947 1.23-1.54zM25.715 32.699c-.177.548-.551 1.02-.81 1.54-.5.99-2.432 1.883-2.85 2.763-.132.273-.004.506.2.701.642-.784 2.206-1.585 2.65-2.465.322-.648.842-1.214.91-1.955a1.307 1.307 0 0 0-.1-.584zm25.51 3.1c-.432.582-1.547 2.518-2.653 2.875-1.215.389-1.786.184-2.158-.305-.15-.2-.244-.432-.303-.676-.025.064-.055.122-.076.19-.014.516.068 1.07.38 1.486.37.49.943.694 2.157.305.835-.27 1.672-1.435 2.219-2.242.173-.45.318-.956.434-1.633zM24.74 40.373c-.028.077-.055.155-.094.23-.174.36-.305.87-.07 1.182.024-.061.044-.126.07-.181.2-.394.262-.82.094-1.231z" fill="#F9F5D7" opacity=".2"/>
</svg>
