<svg xmlns="http://www.w3.org/2000/svg" width="64" height="64" version="1">
    <rect width="56" height="56" x="4" y="5" rx="2.8" ry="2.8" opacity=".2"/>
    <rect width="56" height="56" x="4" y="4" rx="2.8" ry="2.8" fill="#066678"/>
    <path d="M16.785 50.939c-4.825-10.416-6.15-22.088-3.293-29.004.525-1.27.313-1.17 5.617-2.641.299-.083 1.452-.985 2.563-2.006 6.291-5.776 14.712-5.712 21.316.163 1.86 1.654 2.402 1.952 4.543 2.499 2.208.564 2.48.72 2.972 1.707.298.597.785 2.264 1.082 3.704.71 3.43.48 10.714-.461 14.658-1.322 5.536-4.414 13.16-5.24 12.918-.224-.066-.912-1.068-1.528-2.228-1.071-2.287-2.96-4.334-4.883-5.035-3.275-1.195-11.19-.758-14.506-.044-3.8.818-3.889 2.45-5.106 5.037-.7 1.488-1.283 2.333-1.61 2.333-.321 0-.866-.765-1.466-2.061z" opacity=".1"/>
    <path d="M16.785 49.939c-4.825-10.416-6.15-22.088-3.293-29.004.525-1.27.313-1.17 5.617-2.641.299-.083 1.452-.985 2.563-2.006 6.291-5.776 14.712-5.712 21.316.163 1.86 1.654 2.402 1.952 4.543 2.499 2.208.564 2.48.72 2.972 1.707.298.597.785 2.264 1.082 3.704.71 3.43.48 10.714-.461 14.658-1.322 5.536-4.414 13.16-5.24 12.918-.224-.066-.912-1.068-1.528-2.228-1.071-2.287-2.96-4.334-4.883-5.035-3.275-1.195-11.19-.758-14.506-.044-3.8.818-3.889 2.45-5.106 5.037-.7 1.488-1.283 2.333-1.61 2.333-.321 0-.866-.765-1.466-2.061z" fill="#3A393A"/>
    <path d="M6.8 4C5.25 4 4 5.25 4 6.8v1C4 6.25 5.25 5 6.8 5h50.4C58.75 5 60 6.25 60 7.8v-1C60 5.25 58.75 4 57.2 4H6.8z" opacity=".2" fill="#F9F5D7"/>
</svg>
