<svg xmlns="http://www.w3.org/2000/svg" width="64" height="64" version="1">
    <path d="M4 50v2c0 1.662 1.338 3 3 3h50c1.662 0 3-1.338 3-3v-2c0 1.662-1.338 3-3 3H7c-1.662 0-3-1.338-3-3z" opacity=".2"/>
    <rect width="44" height="56" x="-54" y="-60" rx="3" ry="3" transform="matrix(0 -1 -1 0 0 0)" fill="#D79921"/>
    <path d="M7 10c-1.662 0-3 1.338-3 3v1c0-1.662 1.338-3 3-3h50c1.662 0 3 1.338 3 3v-1c0-1.662-1.338-3-3-3H7z" opacity=".2" fill="#F9F5D7"/>
    <path d="M48 32c0-16.615-6.666-18-20-18-13.333 0-20 1.385-20 18 0 16.616 6.667 18 20 18 13.334 0 20-1.384 20-18zM50 40v2h8v-2zM50 43v2h8v-2zM50 46v2h8v-2z" fill="#322F2E"/>
    <g transform="matrix(2 0 0 2 0 -2)" opacity=".2">
        <circle cx="27" cy="11" r="2"/>
        <circle cx="27" cy="16" r="2"/>
    </g>
    <circle cx="54" cy="19" r="4" fill="#F9F5D7"/>
    <circle cx="54" cy="29" r="4" fill="#F9F5D7"/>
    <path d="M19 37.99V42h4.01l10.125-10.126-4.009-4.01zm17.682-9.65a1.063 1.063 0 0 0 0-1.516l-2.506-2.506a1.063 1.063 0 0 0-1.516 0l-2.095 2.107 4.01 4.01z" opacity=".2"/>
    <path d="M19 36.99V41h4.01l10.125-10.126-4.009-4.01zm17.682-9.65a1.063 1.063 0 0 0 0-1.516l-2.506-2.506a1.063 1.063 0 0 0-1.516 0l-2.095 2.107 4.01 4.01z" fill="#928274"/>
</svg>
