<svg xmlns="http://www.w3.org/2000/svg" width="64" height="64" version="1">
    <path d="M10 55v2c0 2.216 1.784 4 4 4h36c2.216 0 4-1.784 4-4v-2c0 2.216-1.784 4-4 4H14c-2.216 0-4-1.784-4-4z" opacity=".2"/>
    <rect width="56" height="44" x="-60" y="-54" rx="4" ry="4" transform="matrix(0 -1 -1 0 0 0)" fill="#F9F5D7"/>
    <path d="M32 12c-7.732 0-14 6.268-14 14v14h14c7.732 0 14-6.268 14-14s-6.268-14-14-14zm0 6a8 8 0 0 1 8 8 8 8 0 0 1-8 8 8 8 0 0 1-8-8 8 8 0 0 1 8-8z" opacity=".5"/>
    <path d="M14 4c-2.216 0-4 1.784-4 4v1c0-2.216 1.784-4 4-4h36c2.216 0 4 1.784 4 4V8c0-2.216-1.784-4-4-4H14z" opacity=".1" fill="#F9F5D7"/>
    <path d="M63.958 45.848A16 16 0 0 1 48 61a16 16 0 0 1-15.958-14.848A16 16 0 0 0 32 47a16 16 0 0 0 16 16 16 16 0 0 0 16-16 16 16 0 0 0-.043-1.152z" opacity=".2"/>
    <circle cx="48" cy="46" r="16" fill="#7CB668"/>
    <path d="M40 46.001a8 8 0 0 0 8 8c4.372 0 7.92-3.51 7.991-7.867a1.333 1.333 0 0 0 .008-.133 1.333 1.333 0 0 0-1.333-1.333 1.333 1.333 0 0 0-1.333 1.333 5.333 5.333 0 1 1-5.334-5.333v2.667l5.334-4L48 35.333V38a8 8 0 0 0-8 8z" fill="#F9F5D7"/>
</svg>
