<svg xmlns="http://www.w3.org/2000/svg" width="64" height="64" version="1">
    <path d="M37.906 18.718C36.75 18.874 36 20 36 22.668v2C36 14 48 28 50 30c0-.544-.008-1.272-.024-2.024-1.524-1.53-8.61-9.725-12.07-9.257zM36 45.394c-.212 5.914-5.084 10.6-11 10.606-5.738 0-10.443-4.394-10.95-10-.029.33-.05.662-.05 1 0 6.076 4.925 11 11 11 5.916-.006 10.788-4.692 11-10.606.004-.662-.002-1.336 0-2z" opacity=".2"/>
    <path d="M36 7c-4 0-8 0-8 4v24.43a10.953 10.953 0 0 0-3-.43c-6.075 0-11 4.924-11 11s4.925 11 11 11c5.916-.006 10.788-4.692 11-10.606.048-7.532 0-15.162 0-22.726C36 13 48 27 50 29c0-5.334 0-22-14-22z" fill="#8F3F71"/>
    <path d="M36 7c-4 0-8 0-8 4v1c0-4 4-4 8-4 13.285 0 13.954 14.898 13.988 20.988L50 29c0-5.334 0-22-14-22zM25 35c-6.075 0-11 4.924-11 11 0 .168.016.332.025.498C14.29 40.657 19.095 36 25 36c1.016.004 2.024.148 3 .43v-1a10.953 10.953 0 0 0-3-.43z" opacity=".1" fill="#F9F5D7"/>
</svg>
