<svg xmlns="http://www.w3.org/2000/svg" width="64" height="64" version="1">
    <rect width="50" height="32" x="7" y="23" rx="2.5" ry="2.5" opacity=".2"/>
    <path d="M7 43.5C7 44.884 8.115 46 9.5 46h45c1.384 0 2.5-1.116 2.5-2.5v-27c0-1.385-1.116-2.5-2.5-2.5H29v-1.5c0-1.385-1.114-2.5-2.5-2.5h-17A2.495 2.495 0 0 0 7 12.5" fill="#D55C0D"/>
    <rect width="50" height="32" x="7" y="21" rx="2.5" ry="2.5" opacity=".2"/>
    <rect width="42" height="20" x="11" y="17" rx="2.5" ry="2.5" fill="#F9F5D7"/>
    <rect width="50" height="32" x="7" y="22" rx="2.5" ry="2.5" fill="#CB8819"/>
    <path d="M9.5 10A2.495 2.495 0 0 0 7 12.5v1C7 12.115 8.115 11 9.5 11h17c1.386 0 2.5 1.115 2.5 2.5v-1c0-1.385-1.114-2.5-2.5-2.5h-17zM29 14v1h25.5c1.384 0 2.5 1.115 2.5 2.5v-1c0-1.385-1.116-2.5-2.5-2.5H29z" opacity=".1" fill="#F9F5D7"/>
    <path d="M32.094 27a2.615 2.512 0 0 0-2.563 1.688l-1.968 5.445-6 .113a2.615 2.512 0 0 0-1.528 4.516l4.781 3.48-1.738 5.516a2.615 2.512 0 0 0 4 2.79L32 47.253l4.922 3.293a2.615 2.512 0 0 0 4-2.789l-1.738-5.515 4.78-3.48a2.615 2.512 0 0 0-1.526-4.517l-6-.113-1.97-5.445A2.615 2.512 0 0 0 32.095 27zM32 30.684l1.617 4.469a3 3 0 0 0 2.766 1.98l4.601.086-3.566 2.598a3 3 0 0 0-1.098 3.328l1.36 4.3-4.012-2.683a3 3 0 0 0-3.336 0l-4.012 2.684 1.36-4.301a3 3 0 0 0-1.098-3.328l-3.566-2.598 4.601-.086a3 3 0 0 0 2.766-1.98L32 30.684z" opacity=".2"/>
    <path d="M32.094 26a2.615 2.512 0 0 0-2.563 1.688l-1.968 5.445-6 .113a2.615 2.512 0 0 0-1.528 4.516l4.781 3.48-1.738 5.516a2.615 2.512 0 0 0 4 2.789L32 46.254l4.922 3.293a2.615 2.512 0 0 0 4-2.79l-1.738-5.515 4.78-3.48a2.615 2.512 0 0 0-1.526-4.516l-6-.113-1.97-5.445A2.615 2.512 0 0 0 32.095 26zM32 29.684l1.617 4.468a3 3 0 0 0 2.766 1.98l4.601.087-3.566 2.597a3 3 0 0 0-1.098 3.329l1.36 4.3-4.012-2.683a3 3 0 0 0-3.336 0l-4.012 2.683 1.36-4.3a3 3 0 0 0-1.098-3.329l-3.566-2.597 4.601-.086a3 3 0 0 0 2.766-1.98L32 29.682z" fill="#F9F5D7"/>
</svg>
