<svg xmlns="http://www.w3.org/2000/svg" width="64" height="64" version="1">
    <path d="M4 56v2c0 1.662 1.338 3 3 3h50c1.662 0 3-1.338 3-3v-2c0 1.662-1.338 3-3 3H7c-1.662 0-3-1.338-3-3z" opacity=".2"/>
    <rect width="56" height="56" x="4" y="4" rx="3" ry="3" fill="#504945"/>
    <path d="M7 4C5.338 4 4 5.338 4 7v1c0-1.662 1.338-3 3-3h50c1.662 0 3 1.338 3 3V7c0-1.662-1.338-3-3-3H7z" opacity=".1" fill="#F9F5D7"/>
    <path d="M48 11L16 21v12l14.545 5.455L16 43v12l32-10V33l-14.545-5.455L48 23z" opacity=".2"/>
    <path d="M48 10L16 20v12l32-10zM48 32L16 42v12l32-10z" fill="#D79921"/>
    <path d="M46.545 32.455l-17.453 5.453 17.453 6.547L48 44V33l-1.455-.545z" opacity=".2"/>
    <path d="M16 20l32 12v12L16 32z" fill="#D79921"/>
</svg>
