<svg xmlns="http://www.w3.org/2000/svg" width="64" height="64" version="1">
    <rect width="56" height="56" x="4" y="5" rx="2.8" ry="2.8" opacity=".2"/>
    <rect width="56" height="56" x="4" y="4" rx="2.8" ry="2.8" fill="#504945"/>
    <path d="M18.355 15.016a.876.876 0 0 0-.566.363l-5.629 8.037a.88.88 0 0 0 .215 1.225l11.922 8.265 8.047-5.672a.87.87 0 0 1 .568-.156l.004-.006h2.996L19.014 15.16a.877.877 0 0 0-.659-.144zM51.665 32.3l.075.078c.253.261.32.637.194.953.13-.32.068-.7-.192-.955l-.078-.076zm.269 1.031a.877.877 0 0 1-.194.291h.002a.886.886 0 0 0 .192-.291z" opacity=".2" fill-rule="evenodd"/>
    <path d="M18.356 14.015a.875.875 0 0 0-.566.363l-5.63 8.038a.88.88 0 0 0 .214 1.225l13.038 9.037 6.93-4.816a.872.872 0 0 1 .57-.156l.005-.005h13.3c.239 0 .456.096.614.25.02.019.2.19.466.478v-.009l4.35 4.294.095-.092a.878.878 0 0 0 0-1.244l-4.236-4.157c-.368-.399-.635-.64-.658-.664a.881.881 0 0 0-.63-.263h-9.989L19.015 14.161a.878.878 0 0 0-.659-.146z" fill="#48B9C7" fill-rule="evenodd"/>
    <path d="M32.912 27.078l.004-.006h13.302c.238 0 .455.096.613.25.02.019.2.19.466.478v-.009l4.444 4.588c.338.348.343.9 0 1.244l-4.202 4.353c-.385.42-.669.675-.692.699a.877.877 0 0 1-.63.265h-9.994L19.013 50.84a.879.879 0 0 1-1.224-.215l-5.63-8.04c-.278-.399-.181-.995.216-1.274l19.969-14.076a.87.87 0 0 1 .568-.156z" opacity=".2" fill-rule="evenodd"/>
    <path d="M32.912 26.078l.004-.006h13.302c.238 0 .455.096.613.25.02.019.2.19.466.478v-.009l4.444 4.588c.338.348.343.9 0 1.244l-4.202 4.353c-.385.42-.669.675-.692.699a.877.877 0 0 1-.63.265h-9.994L19.013 49.84a.879.879 0 0 1-1.224-.215l-5.63-8.04c-.278-.399-.181-.995.216-1.274l19.969-14.076a.87.87 0 0 1 .568-.156z" fill="#48B9C7" fill-rule="evenodd"/>
    <path d="M6.8 4C5.25 4 4 5.25 4 6.8v1C4 6.25 5.25 5 6.8 5h50.4C58.75 5 60 6.25 60 7.8v-1C60 5.25 58.75 4 57.2 4H6.8z" fill="#F9F5D7" opacity=".1"/>
</svg>
