<svg xmlns="http://www.w3.org/2000/svg" width="64" height="64" version="1">
    <path d="M60 45.5v2c0 1.724-1.387 3.434-3.11 3.5H31.002l-7 8-7-8h-9.89c-1.724 0-3.11-1.776-3.11-3.5v-2c0 1.724 1.386 3.5 3.11 3.5h9.89l7 8 7-8h25.89c1.722-.066 3.11-1.776 3.11-3.5z" opacity=".2"/>
    <path d="M56.888 8C58.612 8 60 9.778 60 11.5v35c0 1.724-1.389 3.434-3.11 3.5H31l-7 8-7-8H7.113C5.388 50 4 48.224 4 46.5v-35C4 9.778 5.387 8 7.111 8z" fill="#417B58"/>
    <g opacity=".2">
        <path d="M20 21v-2h24v2zM20 27v-2h24v2zM20 33v-2h24v2zM20 39v-2h16v2z"/>
    </g>
    <g fill="#83A498">
        <path d="M20 20v-2h24v2zM20 26v-2h24v2zM20 32v-2h24v2zM20 38v-2h16v2z"/>
    </g>
    <path d="M63.958 45.848A16 16 0 0 1 48 61a16 16 0 0 1-15.958-14.848A16 16 0 0 0 32 47a16 16 0 0 0 16 16 16 16 0 0 0 16-16 16 16 0 0 0-.043-1.152z" opacity=".2" fill-rule="evenodd"/>
    <path d="M7.11 8C5.384 8 4 9.776 4 11.5v1.002c0-1.724 1.385-3.5 3.11-3.5H56.89c1.723 0 3.109 1.776 3.109 3.5V11.5C60 9.776 58.614 8 56.89 8H7.11z" opacity=".1" fill="#F9F5D7"/>
    <circle cx="48" cy="46" r="16" fill="#8F3F71"/>
    <path d="M40 50.436V54h3.564l9-9-3.563-3.564zm15.717-8.578a.945.945 0 0 0 0-1.348l-2.227-2.227a.945.945 0 0 0-1.348 0l-1.862 1.874 3.564 3.564z" fill="#F9F5D7"/>
</svg>
