<svg xmlns="http://www.w3.org/2000/svg" width="64" height="64" version="1">
    <rect width="56" height="56" x="4" y="4" rx="2.8" ry="2.8" opacity=".2"/>
    <rect width="56" height="56" x="-59" y="-60" rx="2.8" ry="2.8" transform="matrix(0 -1 -1 0 0 0)" fill="#066678"/>
    <path d="M6.8 3A2.794 2.794 0 0 0 4 5.8v8.89l11.469 20.03 2.454 1.038 6.85-5.592 4.7-2.48L48.371 17.23l.332-1.635L41.48 3z" opacity=".2" fill="#F9F5D7"/>
    <path d="M52.31 61.165L32.035 26.181" opacity=".2" fill="none" stroke="#151819" stroke-width="5.6" stroke-linecap="round"/>
    <path d="M31.902 22.383a2.8 2.8 0 0 0-2.545 3.67l4.743-2.737a2.8 2.8 0 0 0-2.198-.933zm4.553 4.875l-4.85 2.8 18.282 31.546a2.8 2.8 0 1 0 4.845-2.807l-18.277-31.54z" fill="#A79984"/>
    <rect width="21.946" height="2.743" x="3.73" y="41.27" rx="1.568" ry="1.372" transform="rotate(-30)" opacity=".1"/>
    <rect width="21.946" height="2.743" x="4.23" y="40.41" rx="1.568" ry="1.372" transform="rotate(-30)" fill="#3A393A"/>
    <g style="line-height:1.25" font-size="10.899" letter-spacing="0" word-spacing="0" opacity=".2">
        <path d="M14.733 52.988q0 1.423-1.03 2.218-1.03.794-2.777.794-.896 0-1.657-.135T8 55.49v-1.288q.537.24 1.329.434.806.195 1.657.195 1.179 0 1.791-.465.612-.464.612-1.258 0-.525-.224-.885t-.776-.659q-.552-.3-1.508-.66-1.373-.494-2.06-1.213-.687-.72-.687-1.963 0-.84.433-1.454.433-.615 1.195-.944.76-.33 1.776-.33.866 0 1.597.165.732.165 1.344.434l-.418 1.154q-.553-.24-1.21-.404-.656-.165-1.343-.165-1 0-1.508.435-.507.42-.507 1.124 0 .539.224.899t.731.66q.508.284 1.374.599.94.344 1.582.749.657.39.985.944.344.555.344 1.394zM24.389 45.15l-3.807 10.7h-1.344l-3.806-10.7h1.403l2.403 6.864q.24.659.388 1.243.165.57.284 1.094.105-.524.269-1.108.164-.585.403-1.26l2.388-6.833zM30.313 50.2H34v5.246q-.866.284-1.747.42-.88.134-2 .134-1.657 0-2.792-.66-1.134-.674-1.731-1.903-.582-1.244-.582-2.937 0-1.663.641-2.892.657-1.244 1.896-1.919Q28.925 45 30.671 45q.896 0 1.687.165.806.165 1.493.464l-.508 1.17q-.567-.24-1.284-.42-.701-.195-1.463-.195-1.91 0-2.985 1.169-1.06 1.154-1.06 3.147 0 1.274.403 2.263.418.974 1.299 1.529.88.54 2.314.54.701 0 1.194-.076.492-.075.895-.18V51.4h-2.343z"/>
    </g>
    <g style="line-height:1.25" font-size="10.899" letter-spacing="0" word-spacing="0" fill="#F9F5D7">
        <path d="M14.733 51.988q0 1.423-1.03 2.218-1.03.794-2.777.794-.896 0-1.657-.135T8 54.49v-1.288q.537.24 1.329.434.806.195 1.657.195 1.179 0 1.791-.465.612-.464.612-1.258 0-.525-.224-.885t-.776-.659q-.552-.3-1.508-.66-1.373-.494-2.06-1.213-.687-.72-.687-1.963 0-.84.433-1.454.433-.615 1.195-.944.76-.33 1.776-.33.866 0 1.597.165.732.165 1.344.434l-.418 1.154q-.553-.24-1.21-.404-.656-.165-1.343-.165-1 0-1.508.435-.507.42-.507 1.124 0 .539.224.899t.731.66q.508.284 1.374.599.94.344 1.582.749.657.39.985.944.344.555.344 1.394zM24.389 44.15l-3.807 10.7h-1.344l-3.806-10.7h1.403l2.403 6.864q.24.659.388 1.243.165.57.284 1.094.105-.524.269-1.108.164-.585.403-1.26l2.388-6.833zM30.313 49.2H34v5.246q-.866.284-1.747.42-.88.134-2 .134-1.657 0-2.792-.66-1.134-.674-1.731-1.903-.582-1.244-.582-2.937 0-1.663.641-2.892.657-1.244 1.896-1.919Q28.925 44 30.671 44q.896 0 1.687.165.806.165 1.493.464l-.508 1.17q-.567-.24-1.284-.42-.701-.195-1.463-.195-1.91 0-2.985 1.169-1.06 1.154-1.06 3.147 0 1.274.403 2.263.418.974 1.299 1.529.88.54 2.314.54.701 0 1.194-.076.492-.075.895-.18V50.4h-2.343z"/>
    </g>
    <path d="M6.8 3C5.25 3 4 4.25 4 5.8v1C4 5.25 5.25 4 6.8 4h50.4C58.75 4 60 5.25 60 6.8v-1C60 4.25 58.75 3 57.2 3H6.8z" fill="#F9F5D7" opacity=".1"/>
    <rect width="38.406" height="5.487" x="-4.5" y="35.79" rx="2.743" ry="2.743" transform="rotate(-30)" opacity=".1"/>
    <rect width="38.406" height="5.487" x="-4" y="34.92" rx="2.743" ry="2.743" transform="rotate(-30)" fill="#3A393A"/>
</svg>
