<svg xmlns="http://www.w3.org/2000/svg" width="64" height="64" version="1">
    <path d="M59.958 31.828A28 28 0 0 1 32 59 28 28 0 0 1 4.044 32.172 28 28 0 0 0 4 33a28 28 0 0 0 28 28 28 28 0 0 0 28-28 28 28 0 0 0-.042-1.172z" opacity=".2"/>
    <circle cx="32" cy="32" r="28" fill="#FECE4F"/>
    <path d="M28 9v6.469A18 18 0 0 0 14 33c0 9.941 8.059 18 18 18 9.159-.01 16.85-6.898 17.867-16 0 0 .133-2-1.867-2s-2.16 2-2.16 2A14 14 0 0 1 32 47c-7.732 0-14-6.268-14-14a14 14 0 0 1 10-13.402V25l8-8z" opacity=".2"/>
    <path d="M28 8v6.469A18 18 0 0 0 14 32c0 9.941 8.059 18 18 18 9.159-.01 16.85-6.898 17.867-16 0 0 .133-2-1.867-2s-2.16 2-2.16 2A14 14 0 0 1 32 46c-7.732 0-14-6.268-14-14a14 14 0 0 1 10-13.402V24l8-8z" fill="#F9F5D7"/>
    <path d="M31.998 4A28 28 0 0 0 4 32a28 28 0 0 0 .018.492A28 28 0 0 1 31.998 5H32a28 28 0 0 1 27.973 27.5 28 28 0 0 0 .025-.5A28 28 0 0 0 32 4h-.002z" opacity=".2" fill="#F9F5D7"/>
</svg>
