<svg xmlns="http://www.w3.org/2000/svg" width="64" height="64" version="1">
    <path d="M59.96 32.886A28 28 0 0 1 32 60.102 28 28 0 0 1 4.04 33.214 28 28 0 0 0 4 34a28 28 0 0 0 28 28 28 28 0 0 0 28-28 28 28 0 0 0-.04-1.114z" opacity=".2"/>
    <circle cx="32" cy="33" r="28" fill="#FA4934"/>
    <path d="M26.512 2.002c-.188.008-.38.04-.568.098-1.01.314-1.57 1.265-1.256 2.132l.788 2.176C14.059 7.475 8 19.154 8 19.154s3.82.697 13.032-4.238c2.56-1.371 4.036-2.845 4.878-4.178-.174 1.375-.148 3.139.258 5.388C27.19 21.776 31.454 26 31.454 26s5.161-8.311-.373-16.457C39.245 14.92 52 12.583 52 12.583s-5.715-5.257-11.782-6.567c-4.527-.978-8.695-.34-10.862.157a1.446 1.446 0 0 0-.086-.483l-.938-2.59c-.256-.705-1.006-1.131-1.82-1.098z" opacity=".2" fill-rule="evenodd"/>
    <path d="M26.512 1.002c-.188.008-.38.04-.568.098-1.01.314-1.57 1.265-1.256 2.132l.788 2.176C14.059 6.475 8 18.155 8 18.155s3.82.696 13.032-4.238c2.56-1.371 4.036-2.845 4.878-4.179-.174 1.376-.148 3.14.258 5.389C27.19 20.776 31.454 25 31.454 25s5.161-8.311-.373-16.457C39.245 13.92 52 11.583 52 11.583S46.286 5.66 40.219 4.35c-4.527-.978-8.695.327-10.862.823a1.446 1.446 0 0 0-.086-.483l-.938-2.59c-.256-.705-1.006-1.131-1.82-1.098z" fill="#B7BB25" fill-rule="evenodd"/>
    <path d="M26.512 1.002a2.22 2.22 0 0 0-.569.098c-1.01.313-1.57 1.265-1.256 2.132l.004.008c.181-.509.63-.947 1.252-1.14.19-.06.38-.09.569-.098.814-.033 1.564.393 1.82 1.098l.94 2.59c.057.159.084.321.085.482 2.167-.496 6.335-1.8 10.862-.822 4.676 1.01 9.074 4.698 10.877 6.365.531-.073.904-.131.904-.131S46.286 5.66 40.219 4.35c-4.527-.978-8.695.326-10.862.822a1.445 1.445 0 0 0-.086-.483l-.939-2.59c-.256-.704-1.006-1.13-1.82-1.097zm-1.383 4.45C13.939 6.721 8 18.153 8 18.153s.275.02.578.026c1.685-2.751 7.41-10.885 16.899-11.772l-.348-.957zm5.951 4.091c1.847 2.718 2.489 5.447 2.543 7.887.096-2.225-.273-4.752-1.607-7.319-.317-.18-.63-.367-.936-.568zm-5.17 1.195c-.025.04-.064.082-.09.121a16.2 16.2 0 0 0 .002.965c.016-.386.045-.748.088-1.086z" fill="#F9F5D7" fill-rule="evenodd" opacity=".1"/>
</svg>
