<svg xmlns="http://www.w3.org/2000/svg" width="64" height="64">
    <path d="M32 5C16.488 5 4 17.488 4 33s12.488 28 28 28 28-12.488 28-28S47.512 5 32 5zm0 16a12 12 0 0 1 12 12 12 12 0 0 1-12 12 12 12 0 0 1-12-12 12 12 0 0 1 12-12z" opacity=".2"/>
    <path d="M32 17a15 15 0 0 0-15 15 15 15 0 0 0 15 15 15 15 0 0 0 15-15 15 15 0 0 0-15-15zm0 9a6 6 0 1 1 0 12 6 6 0 0 1 0-12z" fill="#928274"/>
    <path d="M32 4C16.488 4 4 16.488 4 32s12.488 28 28 28 28-12.488 28-28S47.512 4 32 4zm0 16a12 12 0 0 1 12 12 12 12 0 0 1-12 12 12 12 0 0 1-12-12 12 12 0 0 1 12-12z" fill="#F9F5D7"/>
    <path d="M20.025 32.5A12 12 0 0 0 20 33a12 12 0 0 0 12 12 12 12 0 0 0 12-12 12 12 0 0 0-.021-.404A12 12 0 0 1 32 44a12 12 0 0 1-11.975-11.5zM32 4C16.488 4 4 16.488 4 32c0 .113.011.224.018.336C4.369 17.134 16.71 5 32 5c15.29 0 27.63 12.134 27.982 27.336.007-.112.018-.223.018-.336C60 16.488 47.512 4 32 4z" opacity=".2" fill="#F9F5D7"/>
    <circle cx="48" cy="46" r="16" fill="#48B9C7"/>
    <path d="M47.966 54L42 46h4v-8h4v8h4z" fill="#F9F5D7"/>
    <path d="M32.025 46.5a16 16.002 0 0 0-.025.498A16 16.002 0 0 0 48 63a16 16.002 0 0 0 16-16.002 16 16.002 0 0 0-.018-.492A16 16.002 0 0 1 48 62a16 16.002 0 0 1-15.975-15.5z" opacity=".2"/>
</svg>
