<svg xmlns="http://www.w3.org/2000/svg" width="64" height="64">
    <path d="M32 5A28 28 0 0 0 4 33a28 28 0 0 0 28 28 28 28 0 0 0 28-28A28 28 0 0 0 32 5z" opacity=".2"/>
    <path d="M32 4A28 28 0 0 0 4 32a28 28 0 0 0 28 28 28 28 0 0 0 28-28A28 28 0 0 0 32 4z" fill="#8F3F71"/>
    <path d="M31.89 51.154c-4.641-.605-9.08-1.97-11.751-4.274-.757-.653-2.271-2.236-2.139-2.28.432.083 1.337.484 2.22.508.883.023 2.347-.908 2.78-1.62v-7.462c0-8.23.188-8.09-.394-8.6-.707-.616-3.795-.424-5.203.52-2.148 1.438-4.708 4.629-6.525 7.945-.323.59-.614 1.097-.648 1.128-.033.032-.04-.608-.014-1.421.071-2.242.488-3.81 1.628-6.125 1.04-2.111 1.564-2.676 3.783-5.093 3.681-4.01 7.315-6.781 10.91-8.32.85-.363 3.482-1.061 3.664-1.061.029 0-1.24.741-1.538.958-1.78 1.301-2.396 2.206-2.655 3.79-.191 1.173.473 2.598.99 3.177.267.3.366.351.738.387.51-.054 1.738-.267 2.264-.311v18.6c0 1.4.597 1.488 1.989 1.488 1.414 0 2.613-1.065 4.011-1.971V25.45l-.497-1.794c-.205-.74-.758-1.627-1.503-2.656 1.432.027 2.347 1.74 3.6 2.2 3.65-2.89 6.233-5.236 10.4-6.2-1.816 2.875-3.06 4.103-5 6.9v16.74c.198.237 2.239.537 2.724.58C49.02 40.754 49.812 38.9 52 37c.064.064-1.699 3.39-2.443 4.505-2.267 3.398-5.532 5.52-8.55 7.44-.566.36-.573.361-.77.206-1.425-.649-2.237-1.001-3.897-2.259-1.62 1.542-2.408 2.67-4.099 4.308l-.352-.046z" opacity=".2"/>
    <path d="M31.89 50.154c-4.641-.605-9.08-1.97-11.751-4.274-.757-.653-2.271-2.236-2.139-2.28.432.083 1.337.484 2.22.507.883.024 2.347-.907 2.78-1.618v-7.463c0-8.23.188-8.09-.394-8.6-.707-.616-3.795-.424-5.203.52-2.148 1.438-4.708 4.629-6.525 7.945-.323.59-.614 1.097-.648 1.128-.033.032-.04-.608-.014-1.421.071-2.242.488-3.81 1.628-6.125 1.04-2.111 1.564-2.676 3.783-5.093 3.681-4.01 7.315-6.781 10.91-8.32.85-.363 3.482-1.061 3.664-1.061.029 0-1.24.741-1.538.958-1.78 1.301-2.396 2.206-2.655 3.79-.191 1.173.473 2.598.99 3.177.267.3.366.351.738.387.51-.054 1.738-.267 2.264-.311v18.6c0 1.4.597 1.488 1.989 1.488 1.414 0 2.613-1.065 4.011-1.971V24.45l-.497-1.794c-.205-.74-.758-1.627-1.503-2.656 1.432.027 2.347 1.74 3.6 2.2 3.65-2.89 6.233-5.236 10.4-6.2-1.816 2.875-3.06 4.103-5 6.9v16.74c.198.237 2.239.537 2.724.58C49.02 39.753 49.812 37.9 52 36c.064.064-1.699 3.39-2.443 4.505-2.267 3.398-5.532 5.52-8.55 7.44-.566.36-.573.361-.77.206-1.425-.649-2.237-1.001-3.897-2.259-1.62 1.542-2.408 2.67-4.099 4.308l-.352-.046z" fill="#F9F5D7"/>
    <path d="M32 4A28 28 0 0 0 4 32a28 28 0 0 0 .021.406A28 28 0 0 1 32 5a28 28 0 0 1 27.979 27.578A28 28 0 0 0 60 32 28 28 0 0 0 32 4z" opacity=".1" fill="#F9F5D7"/>
</svg>
