<svg xmlns="http://www.w3.org/2000/svg" width="64" height="64" version="1">
    <rect width="56" height="56" x="4" y="4" rx="3" ry="3" fill="#066678"/>
    <g opacity=".2">
        <path d="M51.762 21.287l10.238 6-11.822 20.785-10.237-6zM38.955 43.804l10.238 6L46.238 55 36 49z"/>
        <path d="M52.483 24.02l6.826 4-9.852 17.32-6.825-4zM39.677 46.536l6.825 4-.985 1.732-6.826-4z"/>
    </g>
    <g opacity=".2">
        <path d="M32.283 8.985l11.591 3.105-6.212 23.183-11.59-3.106zM25.554 34.099l11.59 3.106L35.593 43 24 39.894z"/>
        <path d="M33.697 11.434l7.728 2.07-5.177 19.32-7.727-2.071zM26.968 36.548l7.727 2.07-.517 1.933-7.728-2.07z"/>
    </g>
    <path d="M7 4C5.34 4 4 5.338 4 7v1C4 6.338 5.34 5 7 5h50c1.663 0 3 1.338 3 3V7c0-1.662-1.337-3-3-3H7z" opacity=".1" fill="#F9F5D7"/>
    <g opacity=".2">
        <path d="M2 22.09l11.591-3.105 6.212 23.182-11.591 3.106zM8.73 47.205l11.59-3.106 1.553 5.795L10.283 53z"/>
        <path d="M4.45 23.505l7.727-2.071 5.176 19.319-7.727 2.07zM11.179 48.619l7.727-2.07.518 1.931-7.728 2.07z"/>
    </g>
    <path d="M2 21.09l11.591-3.105 6.212 23.182-11.591 3.106zM8.73 46.205l11.59-3.106 1.553 5.795L10.283 52z" fill="#F9F5D7"/>
    <path d="M4.45 22.505l7.727-2.07 5.176 19.318-7.727 2.07zM11.179 47.619l7.727-2.07.518 1.931-7.728 2.07z" fill="#A79984"/>
    <g>
        <path d="M32.283 7.985l11.591 3.105-6.212 23.183-11.59-3.106zM25.554 33.099l11.59 3.106L35.593 42 24 38.894z" fill="#F9F5D7"/>
        <path d="M33.697 10.434l7.728 2.07-5.177 19.32-7.727-2.071zM26.968 35.548l7.727 2.07-.517 1.933-7.728-2.07z" fill="#A79984"/>
    </g>
    <g>
        <path d="M52 20.287l10.392 6-12 20.785-10.392-6zM39 42.804l10.392 6-3 5.196L36 48z" fill="#F9F5D7"/>
        <path d="M52.732 23.02l6.928 4-10 17.32-6.928-4zM39.732 45.536l6.928 4-1 1.732-6.928-4z" fill="#A79984"/>
    </g>
    <path d="M4 57v1c0 1.662 1.339 3 3 3h50c1.663 0 3-1.338 3-3v-1c0 1.662-1.337 3-3 3H7c-1.661 0-3-1.338-3-3z" opacity=".2"/>
</svg>
