<svg xmlns="http://www.w3.org/2000/svg" width="64" height="64" version="1">
    <path d="M12 15v2H9v2h3v6H9v2h3v2h2v-2h4v2h2v-2h3v-2h-3v-6h3v-2h-3v-2h-2v2h-4v-2h-2zm2 4h4v6h-4v-6zm12 8v2h12v-2H26z" opacity=".2"/>
    <rect width="48" height="56" x="-56" y="-60" rx="3" ry="3" transform="matrix(0 -1 -1 0 0 0)" fill="#FA4934"/>
    <path d="M12 14v2H9v2h3v6H9v2h3v2h2v-2h4v2h2v-2h3v-2h-3v-6h3v-2h-3v-2h-2v2h-4v-2h-2zm2 4h4v6h-4v-6zm12 8v2h12v-2H26z" fill="#F9F5D7"/>
    <path d="M7 8c-1.662 0-3 1.338-3 3v1c0-1.662 1.338-3 3-3h50c1.662 0 3 1.338 3 3v-1c0-1.662-1.338-3-3-3H7z" opacity=".1" fill="#F9F5D7"/>
    <path d="M4 53v1c0 1.662 1.338 3 3 3h50c1.662 0 3-1.338 3-3v-1c0 1.662-1.338 3-3 3H7c-1.662 0-3-1.338-3-3z" opacity=".2"/>
</svg>
