<svg xmlns="http://www.w3.org/2000/svg" width="64" height="64" version="1">
    <rect width="56" height="56" x="4" y="4" rx="2.8" ry="2.8" opacity=".2"/>
    <rect width="56" height="56" x="-59" y="-60" rx="2.8" ry="2.8" transform="matrix(0 -1 -1 0 0 0)" fill="#8F3F71"/>
    <path d="M8 8v6h6V8H8zm42 0v6h6V8h-6zM8 22v6h6v-6H8zm42 0v6h6v-6h-6zM8 36v6h6v-6H8zm42 0v6h6v-6h-6zM8 50v6h6v-6H8zm42 0v6h6v-6h-6z" opacity=".2"/>
    <path d="M8 7v6h6V7H8zm42 0v6h6V7h-6zM8 21v6h6v-6H8zm42 0v6h6v-6h-6zM8 35v6h6v-6H8zm42 0v6h6v-6h-6zM8 49v6h6v-6H8zm42 0v6h6v-6h-6z" fill="#F9F5D7"/>
    <path d="M6.8 3C5.25 3 4 4.25 4 5.8v1C4 5.25 5.25 4 6.8 4h50.4C58.75 4 60 5.25 60 6.8v-1C60 4.25 58.75 3 57.2 3H6.8z" opacity=".1" fill="#F9F5D7"/>
    <path opacity=".2" d="M19 10h26v18H19z"/>
    <path fill="#F9F5D7" d="M19 9h26v18H19z"/>
    <path opacity=".2" d="M19 36h26v18H19z"/>
    <path fill="#F9F5D7" d="M19 35h26v18H19z"/>
    <path d="M63.958 44.848A16 16 0 0 1 48 60a16 16 0 0 1-15.958-14.848A16 16 0 0 0 32 46a16 16 0 0 0 16 16 16 16 0 0 0 16-16 16 16 0 0 0-.043-1.152z" opacity=".2"/>
    <circle cx="48" cy="45" r="16" fill="#7CB668"/>
    <path d="M43.076 37a3.077 3.077 0 0 0 .001 6.153c.549 0 1.054-.171 1.5-.423L47.001 45l-2.423 2.27c-.446-.253-.951-.424-1.5-.424a3.077 3.077 0 1 0 3.077 3.077c0-.282-.044-.548-.115-.808l2.615-2.538 5.5 5.192h1.846v-1.23l-9.961-9.654c.07-.26.115-.526.115-.808 0-1.7-1.378-3.078-3.078-3.078zm0 1.846a1.23 1.23 0 1 1 0 2.462 1.23 1.23 0 0 1 0-2.462zm11.077-.615l-4.846 4.577 1.615 1.577L56 39.462V38.23zM43.076 48.692a1.23 1.23 0 1 1 0 2.462 1.23 1.23 0 0 1 0-2.462z" fill="#F9F5D7"/>
</svg>
