<svg xmlns="http://www.w3.org/2000/svg" width="64" height="64" version="1">
    <rect width="56" height="56" x="4" y="5" rx="16.8" ry="16.8" opacity=".2"/>
    <rect width="56" height="56" x="4" y="4" rx="16.8" ry="16.8" fill="#F9F5D7"/>
    <circle cx="32" cy="33" r="19" opacity=".1"/>
    <circle cx="32" cy="32" r="19" fill="#FA4934"/>
    <path d="M41.06 22c-.482 0-.97.101-1.36.296-.57.285-1.143.888-1.397 1.47-.27.62-.31 1.711-.082 2.291l.37.936c.241.61.328 2.35.175 3.102-.172.848-.707 1.827-1.335 2.443-1.882 1.846-4.728 1.879-6.597.075-.645-.623-.737-1.171-3.649-6.332-.988-1.752-1.874-3.219-2.058-3.409-.579-.608-1.384-.825-2.12-.829-1.584-.025-2.682 1.206-2.943 2.527-.192 1.057-.28.875 4.836 9.93 3.23 5.715 4.765 8.35 5.016 8.608.892.917 2.162 1.145 3.351.6.313-.143.666-.401.892-.65.443-.487 9.597-16.625 9.746-17.18.156-.582.117-1.409-.093-1.98-.26-.712-.98-1.442-1.688-1.716A2.993 2.993 0 0 0 41.06 22z" opacity=".2"/>
    <path d="M41.06 21c-.482 0-.97.101-1.36.296-.57.285-1.143.888-1.397 1.47-.27.62-.31 1.711-.082 2.291l.37.936c.241.61.328 2.35.175 3.102-.172.848-.707 1.827-1.335 2.443-1.882 1.846-4.728 1.879-6.597.075-.645-.623-.737-1.171-3.649-6.332-.988-1.752-1.874-3.219-2.058-3.409-.579-.608-1.384-.825-2.12-.829-1.584-.025-2.682 1.206-2.943 2.527-.192 1.057-.28.875 4.836 9.93 3.23 5.715 4.765 8.35 5.016 8.608.892.917 2.162 1.145 3.351.6.313-.143.666-.401.892-.65.443-.487 9.597-16.625 9.746-17.18.156-.582.117-1.409-.093-1.98-.26-.712-.98-1.442-1.688-1.716A2.993 2.993 0 0 0 41.06 21z" fill="#F9F5D7"/>
    <path d="M20.8 4C11.495 4 4 11.494 4 20.8v1C4 12.495 11.494 5 20.8 5h22.4C52.505 5 60 12.494 60 21.8v-1C60 11.495 52.506 4 43.2 4H20.8z" fill="#F9F5D7" opacity=".2"/>
</svg>
