<svg xmlns="http://www.w3.org/2000/svg" width="64" height="64" version="1">
    <rect width="56" height="56" x="4" y="4" rx="3" ry="3" fill="#066678"/>
    <path d="M7 4C5.338 4 4 5.338 4 7v1c0-1.662 1.338-3 3-3h50c1.662 0 3 1.338 3 3V7c0-1.662-1.338-3-3-3H7z" opacity=".1" fill="#F9F5D7"/>
    <path d="M4 57v1c0 1.662 1.338 3 3 3h50c1.662 0 3-1.338 3-3v-1c0 1.662-1.338 3-3 3H7c-1.662 0-3-1.338-3-3z" opacity=".2"/>
    <path d="M31.528 46.89h2.63s.794-.09 1.2-.542c.374-.416.362-1.197.362-1.197s-.052-3.655 1.586-4.194c1.615-.53 3.688 3.533 5.885 5.096 1.662 1.182 2.925.923 2.925.923l5.876-.085s3.073-.196 1.616-2.7c-.12-.204-.85-1.852-4.37-5.236-3.685-3.54-3.191-2.968 1.247-9.095 2.704-3.732 3.784-6.01 3.446-6.986-.322-.93-2.31-.684-2.31-.684l-6.616.043s-.49-.07-.854.156c-.356.22-.584.735-.584.735s-1.048 2.887-2.444 5.344C38.177 33.649 37 33.923 36.517 33.6c-1.12-.75-.84-3.012-.84-4.62 0-5.021.735-7.115-1.432-7.657-.719-.18-1.249-.299-3.088-.318-2.36-.025-4.358.007-5.49.581-.752.382-1.333 1.233-.98 1.282.438.06 1.428.277 1.953 1.016.678.956.655 3.102.655 3.102s.39 5.91-.91 6.645c-.892.504-2.115-.524-4.742-5.226-1.345-2.407-2.362-5.07-2.362-5.07s-.195-.497-.545-.763c-.422-.323-1.015-.425-1.015-.425l-6.287.042s-.943.028-1.29.453c-.309.378-.025 1.16-.025 1.16s4.922 11.928 10.495 17.94c5.111 5.511 10.914 5.15 10.914 5.15" opacity=".2" fill-rule="evenodd"/>
    <path d="M31.528 45.89h2.63s.794-.09 1.2-.542c.374-.416.362-1.197.362-1.197s-.052-3.655 1.586-4.194c1.615-.53 3.688 3.533 5.885 5.096 1.662 1.182 2.925.923 2.925.923l5.876-.085s3.073-.196 1.616-2.7c-.12-.204-.85-1.852-4.37-5.236-3.685-3.54-3.191-2.968 1.247-9.095 2.704-3.732 3.784-6.01 3.446-6.986-.322-.93-2.31-.684-2.31-.684l-6.616.043s-.49-.07-.854.156c-.356.22-.584.735-.584.735s-1.048 2.887-2.444 5.344C38.177 32.649 37 32.923 36.517 32.6c-1.12-.75-.84-3.012-.84-4.62 0-5.021.735-7.115-1.432-7.657-.719-.18-1.249-.299-3.088-.318-2.36-.025-4.358.007-5.49.581-.752.382-1.333 1.233-.98 1.282.438.06 1.428.277 1.953 1.016.678.956.655 3.102.655 3.102s.39 5.91-.91 6.645c-.892.504-2.115-.524-4.742-5.226-1.345-2.407-2.362-5.07-2.362-5.07s-.195-.497-.545-.763c-.422-.323-1.015-.425-1.015-.425l-6.287.042s-.943.028-1.29.453c-.309.378-.025 1.16-.025 1.16s4.922 11.928 10.495 17.94c5.111 5.511 10.914 5.15 10.914 5.15" fill="#F9F5D7" fill-rule="evenodd"/>
</svg>
