<svg xmlns="http://www.w3.org/2000/svg" width="64" height="64" version="1">
    <rect width="56" height="56" x="4" y="5" rx="2.8" ry="2.8" opacity=".2"/>
    <rect width="56" height="56" x="4" y="4" rx="2.8" ry="2.8" fill="#3A393A"/>
    <path d="M9.332 23l2.836 12.105L14.008 43h4.11l1.839-7.895.168-.707L22.793 23h-4.117l-2.613 11.195L13.448 23h-.008zM24 23l-3.922 19.605L20 43h4.078l2.113-10.55L28.652 43h4.11l2.46-10.55L37.333 43h4.078l-.078-.395L37.41 23h-4.094l-2.609 11.195L28.094 23zm18 0v20h2s2.418.028 4.895-1.211C51.372 40.551 54 37.667 54 32.999c0-4.666-2.628-7.55-5.105-8.788C46.418 22.972 44 23 44 23zm4 4.508c.483.117.563.01 1.105.281 1.523.761 2.895 1.878 2.895 5.21 0 3.334-1.372 4.45-2.895 5.212-.542.271-.622.164-1.105.281z" opacity=".2"/>
    <path d="M9.333 22l2.834 12.107L14.007 42h4.11l1.841-7.893.167-.709L22.792 22h-4.118l-2.611 11.195L13.45 22h-.008z" fill="#CB241D"/>
    <path d="M24 22l-3.922 19.607L20 42h4.078l2.112-10.552L28.651 42h4.11l2.46-10.552L37.333 42h4.078l-.078-.393L37.411 22h-4.093l-2.612 11.195L28.094 22z" fill="#7CB668"/>
    <path d="M42 22v20h2s2.416.028 4.893-1.211C51.37 39.551 54 36.667 54 32s-2.63-7.55-5.107-8.789C46.416 21.972 44 22.001 44 22.001zm4 4.508c.483.117.564.01 1.107.281C48.63 27.551 50 28.667 50 32s-1.37 4.45-2.893 5.21c-.543.272-.624.165-1.107.282z" fill="#8F3F71"/>
    <path d="M6.8 4C5.25 4 4 5.25 4 6.8v1C4 6.25 5.25 5 6.8 5h50.4C58.75 5 60 6.25 60 7.8v-1C60 5.25 58.75 4 57.2 4H6.8zM9.334 22l.234 1h3.883l2.611 11.195L18.675 23h3.883l.234-1h-4.117l-2.611 11.195L13.45 22H9.334zM24 22l-3.922 19.607L20 42h.2L24 23h4.094l2.611 11.195L33.318 23h4.094l3.8 19h.2l-.078-.393L37.412 22h-4.094l-2.613 11.195L28.094 22H24zm18 0v1h2s2.416-.028 4.893 1.21c2.386 1.194 4.907 3.92 5.09 8.29.006-.166.017-.33.017-.5 0-4.667-2.63-7.55-5.107-8.79C46.416 21.973 44 22 44 22h-2zm7.973 10.5c-.138 2.93-1.425 3.99-2.866 4.71-.542.272-.624.165-1.107.282v1c.483-.117.565-.01 1.107-.281C48.63 37.449 50 36.333 50 33c0-.181-.02-.332-.027-.5z" opacity=".1" fill="#F9F5D7"/>
</svg>
