<svg xmlns="http://www.w3.org/2000/svg" width="64" height="64" version="1">
    <rect width="56" height="56" x="4" y="4" rx="3" ry="3" fill="#066678"/>
    <path d="M7 4C5.338 4 4 5.338 4 7v1c0-1.662 1.338-3 3-3h50c1.662 0 3 1.338 3 3V7c0-1.662-1.338-3-3-3H7z" opacity=".1" fill="#F9F5D7"/>
    <path d="M4 57v1c0 1.662 1.338 3 3 3h50c1.662 0 3-1.338 3-3v-1c0 1.662-1.338 3-3 3H7c-1.662 0-3-1.338-3-3zM20 20v2h24v-2H28z" opacity=".2"/>
    <path d="M41 52c1.662 0 3-1.338 3-3V23c0-1.662-1.338-3-3-3H15c-1.662 0-3 1.338-3 3v26c0 1.662 1.338 3 3 3zm-5-8H20V28h16z" fill="#FD8019"/>
    <path d="M49 44c1.662 0 3-1.338 3-3V15c0-1.662-1.338-3-3-3H23c-1.662 0-3 1.338-3 3v5h24v16H28v-8h-8v13c0 1.662 1.338 3 3 3z" fill="#FECE4F"/>
    <path d="M20 28v1h16v-1H20zm-8 21v1c0 1.662 1.338 3 3 3h26c1.662 0 3-1.338 3-3v-1c0 1.662-1.338 3-3 3H15c-1.662 0-3-1.338-3-3zM20 41v1c0 1.662 1.338 3 3 3h26c1.662 0 3-1.338 3-3v-1c0 1.662-1.338 3-3 3H23c-1.662 0-3-1.338-3-3z" opacity=".2"/>
</svg>
