<svg xmlns="http://www.w3.org/2000/svg" width="64" height="64">
    <path d="M32.13 4.003a5.607 5.577 0 0 0-2.934.745L8.803 16.46A5.607 5.577 0 0 0 6 21.29v23.423a5.607 5.577 0 0 0 2.803 4.83l20.393 11.71a5.607 5.577 0 0 0 5.606 0l20.395-11.71A5.607 5.577 0 0 0 58 44.712V21.289a5.607 5.577 0 0 0-2.803-4.83L34.802 4.75a5.607 5.577 0 0 0-2.672-.746z" opacity=".2"/>
    <path d="M32.13 3.003a5.607 5.577 0 0 0-2.934.745L8.803 15.46A5.607 5.577 0 0 0 6 20.29v23.422a5.607 5.577 0 0 0 2.803 4.83l20.393 11.711a5.607 5.577 0 0 0 5.606 0l20.395-11.711A5.607 5.577 0 0 0 58 43.712V20.289a5.607 5.577 0 0 0-2.803-4.83L34.802 3.75a5.607 5.577 0 0 0-2.672-.746z" fill="#3A393A"/>
    <path d="M32 16a17 17 0 0 0-9.839 3.155l4.092 4.092A11.333 11.333 0 0 1 32 21.667 11.333 11.333 0 0 1 43.333 33a11.333 11.333 0 0 1-1.58 5.747l4.087 4.087A17 17 0 0 0 49 33a17 17 0 0 0-17-17z" opacity=".2"/>
    <path d="M32 15.001a17 17 0 0 0-9.839 3.154l4.092 4.093A11.333 11.333 0 0 1 32 20.668 11.333 11.333 0 0 1 43.333 32a11.333 11.333 0 0 1-1.58 5.747l4.087 4.086A17 17 0 0 0 49 32.001a17 17 0 0 0-17-17z" fill="#B16286"/>
    <path d="M18.16 23.167A17 17 0 0 0 15 33a17 17 0 0 0 17 17 17 17 0 0 0 9.839-3.154l-4.092-4.092A11.333 11.333 0 0 1 32 44.334 11.333 11.333 0 0 1 20.667 33a11.333 11.333 0 0 1 1.58-5.746z" opacity=".2"/>
    <path d="M18.16 22.167A17 17 0 0 0 15 32.001a17 17 0 0 0 17 17 17 17 0 0 0 9.839-3.155l-4.092-4.092A11.333 11.333 0 0 1 32 43.334 11.333 11.333 0 0 1 20.667 32a11.333 11.333 0 0 1 1.58-5.747z" fill="#8F3F71"/>
    <circle cx="32" cy="33" r="6" opacity=".2"/>
    <circle cx="32" cy="32" r="6" fill="#B16286"/>
    <path d="M32.13 3.002a5.607 5.577 0 0 0-2.937.746L8.803 15.459A5.607 5.577 0 0 0 6 20.291v1a5.607 5.577 0 0 1 2.803-4.832l20.39-11.711a5.607 5.577 0 0 1 2.938-.746 5.607 5.577 0 0 1 2.672.746l20.394 11.711A5.607 5.577 0 0 1 58 21.291v-1a5.607 5.577 0 0 0-2.803-4.832L34.803 3.748a5.607 5.577 0 0 0-2.672-.746z" opacity=".1" fill="#F9F5D7"/>
    <path d="M32 15.002a17 17 0 0 0-9.84 3.152l.606.606A17 17 0 0 1 32 16.002a17 17 0 0 1 16.975 16.494A17 17 0 0 0 49 32a17 17 0 0 0-17-16.998zM43.281 33a11.333 11.333 0 0 1-1.527 4.746l.348.348a11.333 11.333 0 0 0 1.18-4.092 11.333 11.333 0 0 1 .025.49 11.333 11.333 0 0 0 .025-.492 11.333 11.333 0 0 0-.05-1z" opacity=".2" fill="#F9F5D7"/>
    <path d="M18.16 22.17A17 17 0 0 0 15 32a17 17 0 0 0 .021.443 17 17 0 0 1 3.14-9.273l3.74 3.74a11.333 11.333 0 0 1 .345-.656L18.16 22.17zM20.72 33a11.333 11.333 0 0 0-.051 1 11.333 11.333 0 0 0 .025.504 11.333 11.333 0 0 1 .026-.502A11.333 11.333 0 0 0 32 44.334a11.333 11.333 0 0 0 5.746-1.578l3.48 3.478a17 17 0 0 0 .614-.386l-4.094-4.094A11.333 11.333 0 0 1 32 43.332 11.333 11.333 0 0 1 20.719 33z" opacity=".1" fill="#F9F5D7"/>
    <path d="M32 26a6 6 0 0 0-6 6 6 6 0 0 0 .025.498A6 6 0 0 1 32 27a6 6 0 0 1 5.975 5.502A6 6 0 0 0 38 32a6 6 0 0 0-6-6z" opacity=".2" fill="#F9F5D7"/>
</svg>
