<svg xmlns="http://www.w3.org/2000/svg" width="64" height="64" version="1">
    <rect width="40" height="56" x="-53" y="-60" rx="3.333" ry="3.5" transform="matrix(0 -1 -1 0 0 0)" opacity=".2"/>
    <rect width="40" height="56" x="-52" y="-60" rx="3.333" ry="3.5" transform="matrix(0 -1 -1 0 0 0)" fill="#F9BD2E"/>
    <path d="M7.5 12C5.561 12 4 13.487 4 15.334v1C4 14.487 5.561 13 7.5 13h49c1.939 0 3.5 1.487 3.5 3.334v-1C60 13.487 58.439 12 56.5 12h-49z" fill="#F9F5D7" opacity=".2"/>
    <path d="M17.022 7l8.4 14" fill="none" stroke="#3A393A" stroke-width="6" stroke-linecap="round" stroke-linejoin="round"/>
    <path d="M17.895 21.012a1.788 1.718 0 0 0-.001 2.977l5.212 2.89 5.212 2.891a1.788 1.718 0 0 0 2.68-1.487L31 22.5 31 16.718a1.788 1.718 0 0 0-2.683-1.487l-5.21 2.89z" opacity=".1"/>
    <path d="M17.135 3.967a3 3 0 0 0-3.09 3.504 3 3 0 0 1 3.09-2.504 3 3 0 0 1 2.459 1.49l8.4 14a3 3 0 0 1 .418 1.094 3 3 0 0 0-.418-2.094l-8.4-14a3 3 0 0 0-2.46-1.49z" opacity=".1" fill="#F9F5D7"/>
    <path d="M17.895 20.012a1.788 1.718 0 0 0-.001 2.977l5.212 2.89 5.212 2.891a1.788 1.718 0 0 0 2.68-1.487L31 21.5 31 15.718a1.788 1.718 0 0 0-2.683-1.487l-5.21 2.89z" fill="#504945"/>
    <path d="M35.022 38l8.4 14" fill="none" stroke="#3A393A" stroke-width="6" stroke-linecap="round" stroke-linejoin="round"/>
    <path d="M35.895 52.013a1.788 1.718 0 0 0-.001 2.976l5.212 2.89 5.212 2.891a1.788 1.718 0 0 0 2.68-1.487L49 53.5 49 47.718a1.788 1.718 0 0 0-2.683-1.487l-5.21 2.89z" opacity=".1"/>
    <path d="M35.895 51.013a1.788 1.718 0 0 0-.001 2.976l5.212 2.89 5.212 2.891a1.788 1.718 0 0 0 2.68-1.487L49 52.5 49 46.718a1.788 1.718 0 0 0-2.683-1.487l-5.21 2.89z" fill="#504945"/>
</svg>
