<svg xmlns="http://www.w3.org/2000/svg" width="64" height="64">
    <path d="M9.926 5A5 4.992 0 0 0 5 10.064v33.944a5 4.992 0 0 0 7.41 4.375L30 38.722l17.59 9.66A5 4.992 0 0 0 55 44.007V10.063a5 4.992 0 1 0-10 0v25.5L32.41 28.65a5 4.992 0 0 0-4.82 0L15 35.564V10.063A5 4.992 0 0 0 9.926 5z" opacity=".2"/>
    <path d="M29.909 15A4.985 4.993 0 0 0 25 20.064v35.944A4.985 4.993 0 0 0 29.985 61h23.927a4.985 4.993 0 1 0 0-9.983H34.969V20.063a4.985 4.993 0 0 0-5.06-5.062z" opacity=".2" fill-rule="evenodd"/>
    <path d="M9.996 9.067v33.937L30 32.024l20.003 10.98V9.067" fill="none" stroke="#578D57" stroke-width="9.992" stroke-linecap="round" stroke-linejoin="round"/>
    <path d="M9.926 4A5 4.998 0 0 0 5 9.067v1a5 4.998 0 0 1 4.926-5.069A5 4.998 0 0 1 15 10.067v-1A5 4.998 0 0 0 9.926 4zm39.999 0a5 4.998 0 0 0-4.926 5.067v1a5 4.998 0 0 1 4.926-5.069 5 4.998 0 0 1 5.074 5.069v-1A5 4.998 0 0 0 49.925 4zm-19.91 23.06a5 4.998 0 0 0-2.426.616L15 34.6v1l12.59-6.924a5 4.998 0 0 1 2.426-.617 5 4.998 0 0 1 2.395.617L45 35.6v-1l-12.59-6.924a5 4.998 0 0 0-2.395-.615z" opacity=".2" fill="#F9F5D7"/>
    <path d="M29.991 19.062V55.01h23.947" fill="none" stroke="#FA4934" stroke-width="9.981" stroke-linecap="round" stroke-linejoin="round"/>
    <path d="M29.91 14A4.985 4.992 0 0 0 25 19.064v1a4.985 4.992 0 0 1 4.91-5.062 4.985 4.992 0 0 1 5.06 5.062v-1a4.985 4.992 0 0 0-5.06-5.062zm5.06 36.008v.998h18.94a4.985 4.992 0 0 1 5.065 4.494 4.985 4.992 0 0 0-5.064-5.492H34.969z" opacity=".2" fill="#F9F5D7" fill-rule="evenodd"/>
</svg>
