<svg xmlns="http://www.w3.org/2000/svg" width="64" height="64" version="1">
    <circle cx="32" cy="29" r="22" opacity=".2"/>
    <path d="M32 25A28 28.333 0 0 0 4 53.333a28 28.333 0 0 0 .325 4.14A2.782 2.782 0 0 0 6.8 59h50.4c1.073 0 1.99-.613 2.46-1.505a28 28.333 0 0 0 .34-4.162A28 28.333 0 0 0 32 25z" opacity=".2"/>
    <circle cx="32" cy="28" r="22" fill="#8F3F71"/>
    <path d="M29.94 6.118a22 22 0 0 0-7.963 2.31c.111.352-.018.749-.423 1.1-.274.237-.499.607-.499.823 0 .66.597 1.672 1.073 1.82.632.195.42.87-.394 1.243-.376.173-.84.67-1.028 1.104-.19.436-.47.865-.622.954-.15.09-.275.43-.275.757 0 .456.21.678.894.951.491.197 1.078.34 1.306.318 1.31-.123 1.402.64.256 2.132-.608.792-.9.991-1.315.891-.386-.092-.597.017-.773.4-.185.405-.489.543-1.304.599-.802.056-1.16.219-1.46.658-.22.32-.538.58-.706.58-.169 0-.565.215-.88.477-.644.533-.895.587-1.12.239-.298-.462-.94-.23-1.897.687-.846.81-.948 1.026-.82 1.73.226 1.25.905 2.36 1.68 2.747.675.338.688.374.279.807-.236.25-.64.517-.898.596-.745.226-.326.51 1.003.68 1.36.172 1.783.665 1.147 1.337-.354.375-.334.445.234.802 1.111.697 1.995.27.952-.46-.67-.47-.201-.661.782-.32.784.272.94.256 1.403-.146.951-.824 1.985.395 1.115 1.314-.553.586-.386 1.293.331 1.39.317.043.975.338 1.463.656.489.317 1.021.578 1.182.578.16 0 .613.322 1.007.716.799.797 1.242.898 1.468.336.27-.675.161-1.024-.568-1.82-.58-.633-1.522-2.316-1.522-2.72 0-.248.958-.037 1.494.33.336.23.88.525 1.208.66.35.143.713.587.88 1.073.258.764.36.83 1.275.83h.995l.15 1.787c.18 2.15.353 2.586 1.091 2.763.544.131 1.124.973 1.124 1.63 0 .175-.39.604-.868.953-.592.432-.847.8-.808 1.16.05.45-.053.52-.69.472-.41-.03-1.123.114-1.58.32a2.87 2.87 0 0 1-1.68.224c-.635-.113-.849-.07-.849.178 0 .183-.222.524-.493.759-.669.58-.393.887.635.702.638-.115.886-.064.996.211.235.584-.36 1.42-.91 1.283-.35-.088-.517.032-.626.444a1.02 1.02 0 0 1-.19.376 22 22 0 0 0 3.482 1.029c-.11-.21-.235-.402-.357-.488-.567-.4-.187-1.44.592-1.628.796-.191.67-.707-.194-.806-.758-.086-1.564-.853-1.311-1.246.17-.263.895-.225 2.361.123.662.156 1.115-.158 2.65-1.837.887-.972 1.57-1.377 2.319-1.377.286 0 1.306-.263 2.267-.584 1.815-.609 2.525-.587 2.457.077-.138 1.38.75 1.333 2.196-.112.603-.602 1.154-1.038 1.225-.97.277.266-.22 1.556-.801 2.078-.736.663-.773 1.08-.125 1.412.354.182.505.55.561 1.379l.075 1.13h.92c.322 0 .59.045.805.127A22 22 0 0 0 53.983 28.69c-.337-.72-.313-1.154 0-1.644a22 22 0 0 0-.1-1.233 6.73 6.73 0 0 0-.64-.009c-1.108.047-2.057-.39-2.057-.947 0-.117-.394-.602-.875-1.077-.546-.536-.825-1.012-.744-1.258.075-.224-.085-.586-.37-.832-.275-.24-.502-.624-.502-.855 0-.369-.234-.415-1.93-.374l-1.929.047.033 1.902c.058 3.33.554 4.195 2.084 3.638.7-.257 2.422-.063 2.911.325.178.14.434.651.57 1.135.136.483.64 1.32 1.121 1.858.975 1.091 1.05 1.517.492 2.797-.487 1.118-1.013.99-.909-.223l.077-.902-.825.154c-.456.087-1.028.424-1.285.757-.365.474-.535.543-.81.327a1.03 1.03 0 0 1-.346-.71c0-.237-.235-.501-.521-.588-.287-.087-.68-.52-.872-.963-.31-.708-.302-.925.058-1.785.364-.872.367-1.016.032-1.339-.308-.295-.468-.304-.872-.061-.407.243-.6.225-1.084-.1-.322-.216-.887-.395-1.252-.395-.742 0-.967-.361-.967-1.556 0-1.103-.657-1.503-2.224-1.36-1.087.1-1.326.03-2.203-.646-.542-.417-1.398-1.42-1.904-2.232a61.346 61.346 0 0 0-1.21-1.884c-.229-.325-.173-.636.275-1.52l.565-1.11-1.194.161c-2.126.287-2.556.562-1.642 1.053.357.19.372.288.097.606-.18.207-.265.536-.187.73.078.194-.02.652-.219 1.016-.199.365-.365.876-.372 1.14-.02.819-1.424 1.471-2.988 1.384-2.37-.13-2.562-.093-3.404.688-1.051.977-1.187 1.43-.697 2.337.474.88 1.317 1.231 2.775 1.159 1.305-.065 1.452.05 1.154.913-.254.732-1.105 1.014-1.683.556-.444-.353-1.977-.08-2.446.437-.197.215-.49.783-.65 1.258-.274.82-.355.871-1.587.99-1.23.12-1.348.08-2.233-.735-.986-.908-1.153-1.603-.678-2.8.211-.53.367-.617.93-.514 1.116.204 1.556-.184 1.556-1.375 0-.577-.112-1.117-.25-1.199-.136-.081-.249-.387-.249-.68 0-.294-.14-.673-.31-.839-.25-.242-.214-.372.184-.653.273-.193.722-.323.997-.29.273.033 1.031-.085 1.684-.263.942-.254 1.22-.446 1.347-.942.242-.942.833-1.698 1.328-1.698.782 0 .798-1.839.038-4.514-.112-.395-.42-.646-.967-.781-.442-.11-.922-.411-1.068-.67-.144-.26-.409-.471-.588-.471-.18 0-.53-.215-.778-.477-.25-.264-.765-.477-1.158-.477-.93 0-.945-.64-.023-.978.973-.357 2.49.111 2.855.881.496 1.044 1.048.608 1.225-.969.219-1.95.892-2.511 3.014-2.511h1.525l-.668-.669a2.66 2.66 0 0 1-.5-.713zm7.908.692c-.043.039-.085.07-.126.114-.51.52-.75.595-1.54.475-1.377-.21-1.2.344.325 1.014.824.362 1.354.774 1.535 1.192.869 2.015 1.467 3.1 1.767 3.21.608.223.97-.225 1.105-1.37.155-1.315.6-1.594 1.398-.875.31.279.743.507.962.507.683 0 1.188.274 1.188.644 0 .195.231.666.514 1.046.417.56.7.694 1.478.694.956 0 1.543.18 2.74.84.018.01.037.014.056.024A22 22 0 0 0 37.848 6.81zM10.021 27.906a22 22 0 0 0-.004.094 22 22 0 0 0 .43 4.227c.797.324 1.017.195 1.1-.546.043-.384.243-.818.447-.97.314-.231.258-.35-.387-.79-.417-.285-.829-.782-.913-1.104-.082-.313-.359-.654-.673-.911zm6.925 7.272c-.206-.021-.454.089-.729.353-.581.557-.493 1.675.166 2.117.755.508 1.047.36 1.143-.575.117-1.153-.129-1.848-.58-1.895zm3.733 3.326c-.224.008-.472.169-.719.507-.263.359-.334.822-.234 1.525.124.865.07 1.05-.382 1.281-.582.297-.706 1.182-.23 1.637.473.453.924.335 1.087-.286.23-.884 1.526-.988 2.41-.193.377.338.685.51.685.38s-.392-.601-.872-1.046c-.734-.682-.87-.972-.87-1.85 0-1.239-.38-1.97-.875-1.955zm-6.13 2.84a22 22 0 0 0 .508.643 3.923 3.923 0 0 0-.509-.643zm7.413 3.377c-.111.039-.158.179-.158.424 0 .249-.159.51-.352.58-.258.094-.317.392-.218 1.104.018.133.024.24.03.35a22 22 0 0 0 .916.47c-.016-.38.054-.828.253-1.389.337-.952.35-1.191.075-1.358-.258-.156-.434-.22-.546-.18z" opacity=".2"/>
    <path d="M32 24A28 28.333 0 0 0 4 52.333a28 28.333 0 0 0 .325 4.14A2.782 2.782 0 0 0 6.8 58h50.4c1.073 0 1.99-.613 2.46-1.505a28 28.333 0 0 0 .34-4.162A28 28.333 0 0 0 32 24z" fill="#48B9C7"/>
    <path d="M32 24a28 28.333 0 0 0-4 .324V46h8V24.318A28 28.333 0 0 0 32 24z" fill="#F9F5D7"/>
    <path d="M25.826 40A1.825 1.654 0 0 0 24 41.703a1.825 1.654 0 0 0 .243.78l3.088 4.842 3.086 4.846a1.825 1.654 0 0 0 3.163 0l3.086-4.846 3.088-4.843A1.825 1.654 0 0 0 38.173 40h-6.174z" opacity=".2"/>
    <path d="M25.826 39A1.825 1.654 0 0 0 24 40.703a1.825 1.654 0 0 0 .243.78l3.088 4.842 3.086 4.846a1.825 1.654 0 0 0 3.163 0l3.086-4.846 3.088-4.843A1.825 1.654 0 0 0 38.173 39h-6.174z" fill="#F9F5D7"/>
    <path d="M32 6a22 22 0 0 0-22 22 22 22 0 0 0 .021.586A22 22 0 0 1 32 7a22 22 0 0 1 21.979 21.414A22 22 0 0 0 54 28 22 22 0 0 0 32 6z" fill="#F9F5D7" opacity=".1"/>
    <path d="M32 24A28 28.333 0 0 0 4 52.334a28 28.333 0 0 0 .021.389A28 28.333 0 0 1 32 25a28 28.333 0 0 1 27.98 27.943 28 28.333 0 0 0 .02-.609A28 28.333 0 0 0 32 24z" fill="#F9F5D7" opacity=".2"/>
</svg>
