<svg xmlns="http://www.w3.org/2000/svg" width="64" height="64">
    <path d="M24.11 59.73c-.094-.153.724-1.472 1.82-2.932 2.806-3.738 4.33-6.08 3.082-7.525C28.499 48.679 27.8 48 23.625 48c-9.038 0-12.742-1.752-15.546-4.787C4.223 39.04 2.94 30.543 4.923 23.46c2.324-8.31 11.212-14.457 24.435-16.9 8.618-1.129 18.92-1.057 25.353 5.15 5.702 5.688 6.965 16.204 2.95 24.562-2.627 5.468-7.409 10.195-13.372 11.78-2.092.556-2.355.75-5.551 4.104-3.414 3.582-8.001 5.784-11.193 7.149-1.71.731-3.136.908-3.434.426z" opacity=".2"/>
    <path d="M24.11 58.73c-.094-.153.724-1.472 1.82-2.932 2.806-3.738 4.33-6.08 3.082-7.525C28.499 47.679 27.8 47 23.625 47c-9.038 0-12.742-1.752-15.546-4.787C4.223 38.04 2.94 29.543 4.923 22.46c2.324-8.31 11.212-14.457 24.435-16.9 8.618-1.129 18.92-1.057 25.353 5.15 5.702 5.688 6.965 16.204 2.95 24.562-2.627 5.468-7.409 10.195-13.372 11.78-2.092.556-2.355.75-5.551 4.104-3.414 3.582-8.001 5.784-11.193 7.149-1.71.731-3.136.908-3.434.426z" fill="#F9BD2E"/>
    <path d="M37.762 5.004c-2.853-.033-5.712.202-8.405.555-13.223 2.444-22.111 8.59-24.435 16.9-.667 2.382-.956 4.922-.91 7.406.04-2.161.333-4.343.91-6.406 2.324-8.31 11.212-14.456 24.435-16.9 8.618-1.128 18.921-1.056 25.354 5.15 3.397 3.39 5.205 8.494 5.273 13.834.161-5.698-1.664-11.233-5.273-14.834-4.422-4.267-10.674-5.634-16.95-5.705zm-8.371 45.01c-.28 1.401-1.58 3.278-3.461 5.785-1.096 1.46-1.914 2.778-1.819 2.931.065.105.191.174.354.217.326-.551.837-1.311 1.465-2.148 2.37-3.16 3.82-5.319 3.46-6.785z" opacity=".2" fill="#F9F5D7"/>
</svg>
