<svg xmlns="http://www.w3.org/2000/svg" width="64" height="64" version="1">
    <rect width="56" height="56" x="4" y="5" rx="2.8" ry="2.8" opacity=".2"/>
    <rect width="56" height="56" x="4" y="4" rx="2.8" ry="2.8" fill="#8F3F71"/>
    <rect width="34" height="23" x="15" y="16" rx="1.417" ry="1.438" opacity=".2"/>
    <rect width="34" height="23" x="15" y="15" rx="1.417" ry="1.438" fill="#F9F5D7"/>
    <path d="M18 18h28v4.125L32 29l-14-6.875z" fill="#8F3F71"/>
    <path d="M17.411 43.473h-.001v.002c-.365.68-1.707 2.873-2.562 4.279-.867-1.437-1.894-3.095-2.563-4.28h-.005.003c-.53.112-.752.12-1.282 0l.003.002-.004-.003c1.05 1.584 2.735 4.6 3.307 5.59l-.077 4.127.005-.002-.003.002s.37-.062.616-.062c.274 0 .615.062.615.062l-.002-.001.003.001-.077-4.128h-.003c1.068-1.874 2.829-4.928 3.316-5.587l.003-.002h-.001c-.46.104-.876.108-1.288 0zm34.918.101c-.308 0-.613.18-.613.642-.183 2.315-.373 4.636-.685 6.845l-.002.002h.006c.188-.032.333.017.475.074v-.001c.354-2.244 1.197-5.605 1.413-6.556.03-.134.077-.292.077-.405 0-.339-.215-.536-.537-.59 0 0-.08-.01-.134-.01zm-6.966.358c-2.708 0-4.778 1.537-4.778 4.397 0 2.355 1.377 4.428 4.801 4.428 2.899 0 4.791-1.593 4.791-4.387 0-2.634-1.765-4.438-4.813-4.438zm-9.388.463c-2.72 0-4.146 1.724-4.146 3.96 0 2.446 1.557 3.938 4.142 3.938 2.794 0 4.159-1.682 4.159-3.913 0-2.488-1.63-3.985-4.155-3.985zm9.392.015c2.033 0 3.531 1.235 3.531 3.96 0 2.962-1.812 3.923-3.528 3.923-1.834 0-3.505-1.076-3.505-3.981 0-3.011 1.852-3.902 3.502-3.902zm-25.23.085c-1.031 2.591-2.22 5.515-3.29 7.695v.001l.004-.002-.003.001.007-.003-.004.002c.49-.121.956-.084 1.265 0l-.005-.002.005.001.893-2.255h.001c1.051-.029 2.101-.033 3.152 0 .299.753.598 1.505.89 2.258h.002c.468-.122.934-.09 1.279-.002h-.002.002c-.771-1.44-2.318-5.205-3.301-7.693l-.008.003.006-.003a1.27 1.27 0 0 1-.893 0zm4.658.004a92.394 92.394 0 0 1 0 7.691c.416-.1.842-.104 1.28 0l-.003-.001.004.001a72.29 72.29 0 0 1-.099-3.577c1.433-.02 2.866-.02 4.298-.001a72.975 72.975 0 0 1-.099 3.578l.005-.001-.003.001c.437-.104.864-.1 1.28 0a92.389 92.389 0 0 1 0-7.691 2.704 2.704 0 0 1-1.282 0h.001-.001c.062 1.195.095 2.392.099 3.59a88.707 88.707 0 0 1-4.298 0 74.63 74.63 0 0 1 .1-3.59h-.002c-.419.1-.846.104-1.281 0zm11.113.362h.072c1.663 0 2.884 1.133 2.884 3.5 0 2.364-1.22 3.496-2.881 3.496-1.813 0-2.878-1.299-2.878-3.49 0-2.478 1.312-3.476 2.803-3.506zm-15.324.964c.424 1.184.892 2.376 1.366 3.572a39.08 39.08 0 0 1-2.728 0h-.001c.556-1.408 1.085-2.77 1.363-3.572zm30.407 6.167c-.403 0-.605.307-.605.638 0 .39.312.59.697.59.279 0 .583-.17.583-.629 0-.369-.29-.6-.675-.6z" opacity=".2"/>
    <path d="M17.411 42.473h-.001v.002c-.365.68-1.707 2.873-2.562 4.279-.867-1.437-1.894-3.095-2.563-4.28h-.005.003c-.53.112-.752.12-1.282 0l.003.002-.004-.003c1.05 1.584 2.735 4.6 3.307 5.59l-.077 4.127.005-.002-.003.002s.37-.062.616-.062c.274 0 .615.062.615.062l-.002-.001.003.001-.077-4.128h-.003c1.068-1.874 2.829-4.928 3.316-5.587l.003-.002h-.001c-.46.104-.876.108-1.288 0zm34.918.101c-.308 0-.613.18-.613.642-.183 2.315-.373 4.636-.685 6.845l-.002.002h.006c.188-.032.333.017.475.074v-.001c.354-2.244 1.197-5.605 1.413-6.556.03-.134.077-.292.077-.405 0-.339-.215-.536-.537-.59 0 0-.08-.01-.134-.01zm-6.966.358c-2.708 0-4.778 1.537-4.778 4.397 0 2.355 1.377 4.428 4.801 4.428 2.899 0 4.791-1.593 4.791-4.387 0-2.634-1.765-4.438-4.813-4.438zm-9.388.463c-2.72 0-4.146 1.724-4.146 3.96 0 2.446 1.557 3.938 4.142 3.938 2.794 0 4.159-1.682 4.159-3.913 0-2.488-1.63-3.985-4.155-3.985zm9.392.015c2.033 0 3.531 1.235 3.531 3.96 0 2.962-1.812 3.923-3.528 3.923-1.834 0-3.505-1.076-3.505-3.981 0-3.011 1.852-3.902 3.502-3.902zm-25.23.085c-1.031 2.591-2.22 5.515-3.29 7.695v.001l.004-.002-.003.001.007-.003-.004.002c.49-.121.956-.084 1.265 0l-.005-.002.005.001.893-2.255h.001c1.051-.029 2.101-.033 3.152 0 .299.753.598 1.505.89 2.258h.002c.468-.122.934-.09 1.279-.002h-.002.002c-.771-1.44-2.318-5.205-3.301-7.693l-.008.003.006-.003a1.27 1.27 0 0 1-.893 0zm4.658.004a92.394 92.394 0 0 1 0 7.691c.416-.1.842-.104 1.28 0l-.003-.001.004.001a72.29 72.29 0 0 1-.099-3.577c1.433-.02 2.866-.02 4.298-.001a72.975 72.975 0 0 1-.099 3.578l.005-.001-.003.001c.437-.104.864-.1 1.28 0a92.389 92.389 0 0 1 0-7.691 2.704 2.704 0 0 1-1.282 0h.001-.001c.062 1.195.095 2.392.099 3.59a88.707 88.707 0 0 1-4.298 0 74.63 74.63 0 0 1 .1-3.59h-.002c-.419.1-.846.104-1.281 0zm11.113.362h.072c1.663 0 2.884 1.133 2.884 3.5 0 2.364-1.22 3.496-2.881 3.496-1.813 0-2.878-1.299-2.878-3.49 0-2.478 1.312-3.476 2.803-3.506zm-15.324.964c.424 1.184.892 2.376 1.366 3.572a39.08 39.08 0 0 1-2.728 0h-.001c.556-1.408 1.085-2.77 1.363-3.572zm30.407 6.167c-.403 0-.605.307-.605.638 0 .39.312.59.697.59.279 0 .583-.17.583-.629 0-.369-.29-.6-.675-.6z" fill="#F9F5D7"/>
    <path d="M6.8 4C5.25 4 4 5.25 4 6.8v1C4 6.25 5.25 5 6.8 5h50.4C58.75 5 60 6.25 60 7.8v-1C60 5.25 58.75 4 57.2 4H6.8z" fill="#F9F5D7" opacity=".1"/>
</svg>
