<svg xmlns="http://www.w3.org/2000/svg" width="64" height="64">
    <circle cx="32" cy="33" r="28" opacity=".2"/>
    <circle cx="32" cy="32" r="28" fill="#F9F5D7"/>
    <path d="M38 21a16 16 0 0 1 16 16 16 16 0 0 1-16 16h-4V21zm0 4v24a12 12 0 0 0 12-12 12 12 0 0 0-12-12z" opacity=".1"/>
    <path d="M38 20a16 16 0 0 1 16 16 16 16 0 0 1-16 16h-4V20zm0 4v24a12 12 0 0 0 12-12 12 12 0 0 0-12-12z" fill="#FA4934"/>
    <path d="M26 13a16 16 0 0 0-16 16 16 16 0 0 0 16 16h4V13zm0 4v24a12 12 0 0 1-12-12 12 12 0 0 1 12-12z" opacity=".1"/>
    <path d="M26 12a16 16 0 0 0-16 16 16 16 0 0 0 16 16h4V12zm0 4v24a12 12 0 0 1-12-12 12 12 0 0 1 12-12z" fill="#48B9C7"/>
    <path d="M32 4A28 28 0 0 0 4 32a28 28 0 0 0 .018.492A28 28 0 0 1 32 5a28 28 0 0 1 27.975 27.492A28 28 0 0 0 60 32 28 28 0 0 0 32 4z" opacity=".2" fill="#F9F5D7"/>
</svg>
