<svg xmlns="http://www.w3.org/2000/svg" width="64" height="64" version="1">
    <path d="M61.96 31.828A30 30 0 0 1 32 61 30 30 0 0 1 2.04 32.172 30 30 0 0 0 2 33a30 30 0 0 0 30 30 30 30 0 0 0 30-30 30 30 0 0 0-.04-1.172z" opacity=".2"/>
    <path d="M62 32a30 30 0 0 1-30 30A30 30 0 0 1 2 32 30 30 0 0 1 32 2a30 30 0 0 1 30 30z" fill="#504945"/>
    <path d="M31.8 13c-1.434.005-2.87.16-4.276.471-5.06 1.123-9.437 4.22-12.568 8.893-1.33 1.985-2.534 4.742-2.534 5.8 0 .904 1.047 1.37 1.749.78.162-.136.325-.39.363-.564.356-1.635 1.611-4.092 3.067-6.001 1.214-1.593 3.44-3.605 5.159-4.66 5.367-3.296 12.696-3.363 18.098-.165 3.383 2.003 6.15 5.328 7.772 9.34.352.871.93 2.78.93 3.073 0 .084-.518-.358-1.15-.984-1.38-1.36-1.516-1.458-2.055-1.458-.595 0-1.01.383-1.078.997-.028.247-.012.52.035.604.1.18 4.476 4.606 4.823 4.88.35.275 1.002.248 1.365-.058.48-.405.546-.696.479-2.14-.25-5.388-3.622-11.496-8.27-14.982-3.332-2.5-7.608-3.84-11.908-3.826zM12.001 32.73l.06 1.392c.1 2.374.769 4.816 2.019 7.372 2.52 5.156 6.656 8.884 11.674 10.526 1.454.476 2.52.698 4.453.928.832.1 3.492.049 4.527-.085 5.878-.763 11.071-4.157 14.515-9.485 1.115-1.725 2.203-4.225 2.339-5.37.053-.448.035-.498-.29-.824-.292-.292-.414-.346-.773-.344-.669.003-.831.197-1.271 1.517-1.506 4.518-5.151 8.66-9.454 10.742-3.487 1.688-7.467 2.158-11.455 1.355-4.527-.912-8.448-3.667-11.147-7.833-1.016-1.568-2.076-3.924-2.47-5.49-.09-.35-.186-.725-.216-.833-.03-.108.544.394 1.275 1.116l1.33 1.311.503-.048c.684-.066.984-.368 1.05-1.056l.049-.508-2.539-2.54-2.538-2.54s-.483-.322-1.078-.057c-.595.266-.564.752-.564.752z" opacity=".2"/>
    <path d="M31.998 2A30 30 0 0 0 2 32a30 30 0 0 0 .018.512A30 30 0 0 1 31.998 3H32a30 30 0 0 1 29.975 29.512 30 30 0 0 0 .023-.512A30 30 0 0 0 32 2h-.002z" opacity=".1" fill="#F9F5D7"/>
    <path d="M31.8 12c-1.434.005-2.87.16-4.276.471-5.06 1.123-9.437 4.22-12.568 8.893-1.33 1.985-2.534 4.742-2.534 5.8 0 .904 1.047 1.371 1.749.78.162-.136.325-.39.363-.564.356-1.635 1.611-4.092 3.067-6.001 1.214-1.593 3.44-3.605 5.159-4.66 5.367-3.296 12.696-3.363 18.098-.165 3.383 2.003 6.15 5.328 7.772 9.34.352.871.93 2.78.93 3.073 0 .084-.518-.358-1.15-.984-1.38-1.36-1.516-1.458-2.055-1.458-.595 0-1.01.383-1.078.997-.028.248-.012.52.035.604.1.18 4.476 4.606 4.823 4.88.35.275 1.002.248 1.365-.058.48-.405.546-.696.479-2.14-.25-5.388-3.622-11.496-8.27-14.982-3.332-2.5-7.608-3.84-11.908-3.826zM12.001 31.73l.06 1.392c.1 2.374.769 4.816 2.019 7.372 2.52 5.156 6.656 8.884 11.674 10.526 1.454.476 2.52.698 4.453.928.832.1 3.492.049 4.527-.085 5.878-.763 11.071-4.157 14.515-9.485 1.115-1.725 2.203-4.225 2.339-5.37.053-.448.035-.498-.29-.824-.292-.292-.414-.346-.773-.344-.669.003-.831.198-1.271 1.518-1.506 4.517-5.151 8.659-9.454 10.741-3.487 1.688-7.467 2.159-11.455 1.355-4.527-.912-8.448-3.667-11.147-7.833-1.016-1.568-2.076-3.924-2.47-5.49-.09-.35-.186-.725-.216-.833-.03-.108.544.394 1.275 1.116l1.33 1.311.503-.048c.684-.066.984-.368 1.05-1.056l.049-.508-2.539-2.54-2.538-2.54s-.483-.322-1.078-.057c-.595.266-.564.752-.564.752z" fill="#48B9C7"/>
</svg>
