<svg xmlns="http://www.w3.org/2000/svg" width="64" height="64" version="1">
    <defs>
        <linearGradient id="a" x1="168" x2="160" y1="266" y2="270" gradientTransform="matrix(.79874 0 0 .79956 -95.82 -175.89)" gradientUnits="userSpaceOnUse">
            <stop offset="0"/>
            <stop offset="1" stop-opacity="0"/>
        </linearGradient>
    </defs>
    <path d="M4 50v2c0 1.662 1.338 3 3 3h50c1.662 0 3-1.338 3-3v-2c0 1.662-1.338 3-3 3H7c-1.662 0-3-1.338-3-3z" opacity=".2"/>
    <rect width="44" height="56" x="-54" y="-60" rx="3" ry="3" transform="matrix(0 -1 -1 0 0 0)" fill="#066678"/>
    <rect width="36" height="48" x="-50" y="-56" rx="0" ry="0" transform="matrix(0 -1 -1 0 0 0)" opacity=".2"/>
    <path d="M31.976 17c-5.604 0-10.506 2.875-13.355 7.222l7.039 12.192a7.137 7.137 0 0 1-.872-3.422c0-3.987 3.23-5.154 7.188-5.598l3.91-.437c3.224 2.066 4.294 6.283 2.36 9.637l-7.137 12.379a15.918 15.918 0 0 0 14.746-7.98v-.005c2.802-4.858 2.766-10.54.43-15.183l-.426-.82h-.086C43.015 20.214 37.899 17 31.975 17zm-13.348 7.258a15.959 15.959 0 0 0-.468 16.777h-.004c2.802 4.858 7.74 7.668 12.926 7.964l7.031-12.2a7.15 7.15 0 0 1-2.527 2.47 7.17 7.17 0 0 1-9.82-2.633l-7.137-12.378z" opacity=".2"/>
    <path d="M7 9.998c-1.662 0-3 1.338-3 3V14c0-1.662 1.338-3 3-3h50c1.662 0 3 1.338 3 3v-1.002c0-1.662-1.338-3-3-3H7z" opacity=".1" fill="#F9F5D7"/>
    <path d="M31.976 47.982c-8.85 0-15.975-7.132-15.975-15.991 0-.134-.003-.267 0-.4a15.952 15.952 0 0 0 15.975 15.591 15.952 15.952 0 0 0 15.975-15.591c.003.133 0 .265 0 .4 0 8.859-7.125 15.991-15.975 15.991z" opacity=".1"/>
    <path d="M31.976 16.001c-5.604 0-10.504 2.874-13.354 7.221l7.04 12.193a7.143 7.143 0 0 1-.875-3.423c0-3.987 3.231-5.154 7.189-5.597l14.277-1.6a15.925 15.925 0 0 0-14.278-8.794z" fill="#CB241D"/>
    <path d="M18.158 40.034c2.802 4.858 7.738 7.67 12.924 7.966l7.03-12.198a7.142 7.142 0 0 1-2.525 2.469 7.169 7.169 0 0 1-9.82-2.634l-7.14-12.378a15.955 15.955 0 0 0-.47 16.775z" fill="#578D57"/>
    <path d="M45.856 39.99c2.802-4.858 2.766-10.543.43-15.187l-.425-.82-13.86.018c1.159.031 2.538 1.14 3.616 1.762a7.184 7.184 0 0 1 2.63 9.83L31.11 47.971a15.92 15.92 0 0 0 14.748-7.98z" fill="#FECE4F"/>
    <path d="M38.202 35.59l-6.226-3.598-.934 15.998z" opacity=".2" fill="url(#a)"/>
    <rect width="16" height="16" x="-41" y="-40" rx="8" ry="8" transform="matrix(0 -1 -1 0 0 0)" opacity=".2"/>
    <rect width="16" height="16" x="-40" y="-40" rx="8" ry="8" transform="matrix(0 -1 -1 0 0 0)" fill="#F9F5D7"/>
    <rect width="12" height="12" x="-38" y="-38" rx="6" ry="6" transform="matrix(0 -1 -1 0 0 0)" fill="#066678"/>
</svg>
