<svg xmlns="http://www.w3.org/2000/svg" width="64" height="64">
    <rect width="56" height="56" x="4" y="5" rx="2.8" ry="2.8" opacity=".2"/>
    <rect width="56" height="56" x="4" y="4" rx="2.8" ry="2.8" fill="#928274"/>
    <path d="M26 15l-1.777 8h-7.778l-1.336 6h7.78l-1.778 8h-7.779L12 43h7.777L18 51h6l1.777-8h8L32 51h6l1.777-8h7.825l1.332-6H41.11l1.778-8h7.822L52 23.207V23h-7.777L46 15h-6l-1.777 8h-8L32 15h-6zm2.889 14h8l-1.778 8h-8l1.778-8z" opacity=".2"/>
    <path d="M26 14h6l-8 36h-6zM40 14h6l-8 36h-6z" fill="#3A393A"/>
    <path d="M16.446 22l-1.336 6H50.71l1.29-5.793V22zm-3.114 14L12 42h35.602l1.332-6z" fill="#3A393A"/>
    <path d="M6.8 4C5.25 4 4 5.25 4 6.8v1C4 6.25 5.25 5 6.8 5h50.4C58.75 5 60 6.25 60 7.8v-1C60 5.25 58.75 4 57.2 4H6.8z" opacity=".2" fill="#F9F5D7"/>
</svg>
