<svg xmlns="http://www.w3.org/2000/svg" width="64" height="64">
    <circle cx="32" cy="33" r="28" opacity=".2"/>
    <circle cx="32" cy="32" r="28" fill="#504945"/>
    <circle cx="32" cy="32" r="20" fill="#3A393A"/>
    <path d="M32 13a20 20 0 0 0-20 20 20 20 0 0 0 20 20 20 20 0 0 0 20-20 20 20 0 0 0-20-20zm0 3a17 17 0 0 1 5.246.838l-2.412 4.83L32 27.332l-2.834-5.664-2.406-4.82A17 17 0 0 1 32 16zm-7.72 1.854l1.71 5.13 2.002 6.008-6.008-2.002-5.113-1.705a17 17 0 0 1 3.283-4.48 17 17 0 0 1 4.125-2.951zm15.435.017a17 17 0 0 1 4.48 3.283 17 17 0 0 1 2.951 4.125l-5.13 1.711-6.008 2.002 2.002-6.008 1.705-5.113zm-23.877 9.883l4.83 2.412L26.332 33l-5.664 2.834-4.82 2.406A17 17 0 0 1 15 33a17 17 0 0 1 .838-5.246zm32.314.006A17 17 0 0 1 49 33a17 17 0 0 1-.838 5.246l-4.83-2.412L37.668 33l5.664-2.834 4.82-2.406zM32 29a1 1 0 0 1 .998 1A1 1 0 0 1 32 31a1 1 0 0 1-1-1 1 1 0 0 1 1-1zm-3 3a1 1 0 0 1 1 1 1 1 0 0 1-1 .998A1 1 0 0 1 28 33a1 1 0 0 1 1-1zm6 0a1 1 0 0 1 1 1 1 1 0 0 1-1 .998A1 1 0 0 1 34 33a1 1 0 0 1 1-1zm-3 3a1 1 0 0 1 .998 1A1 1 0 0 1 32 37a1 1 0 0 1-1-1 1 1 0 0 1 1-1zm-4.008 2.008l-2.002 6.008-1.705 5.113a17 17 0 0 1-4.48-3.283 17 17 0 0 1-2.951-4.125l5.13-1.711 6.008-2.002zm8.016 0l6.008 2.002 5.113 1.705a17 17 0 0 1-3.283 4.48 17 17 0 0 1-4.125 2.951l-1.711-5.13-2.002-6.008zM32 38.668l2.834 5.664 2.406 4.82A17 17 0 0 1 32 50a17 17 0 0 1-5.246-.838l2.412-4.83L32 38.668z" opacity=".2"/>
    <path d="M32 12a20 20 0 0 0-20 20 20 20 0 0 0 20 20 20 20 0 0 0 20-20 20 20 0 0 0-20-20zm0 3a17 17 0 0 1 5.246.838l-2.412 4.83L32 26.332l-2.834-5.664-2.406-4.82A17 17 0 0 1 32 15zm-7.72 1.854l1.71 5.13 2.002 6.008-6.008-2.002-5.113-1.705a17 17 0 0 1 3.283-4.48 17 17 0 0 1 4.125-2.951zm15.435.017a17 17 0 0 1 4.48 3.283 17 17 0 0 1 2.951 4.125l-5.13 1.711-6.008 2.002 2.002-6.008 1.705-5.113zm-23.877 9.883l4.83 2.412L26.332 32l-5.664 2.834-4.82 2.406A17 17 0 0 1 15 32a17 17 0 0 1 .838-5.246zm32.314.006A17 17 0 0 1 49 32a17 17 0 0 1-.838 5.246l-4.83-2.412L37.668 32l5.664-2.834 4.82-2.406zM32 28a1 1 0 0 1 .998 1A1 1 0 0 1 32 30a1 1 0 0 1-1-1 1 1 0 0 1 1-1zm-3 3a1 1 0 0 1 1 1 1 1 0 0 1-1 .998A1 1 0 0 1 28 32a1 1 0 0 1 1-1zm6 0a1 1 0 0 1 1 1 1 1 0 0 1-1 .998A1 1 0 0 1 34 32a1 1 0 0 1 1-1zm-3 3a1 1 0 0 1 .998 1A1 1 0 0 1 32 36a1 1 0 0 1-1-1 1 1 0 0 1 1-1zm-4.008 2.008l-2.002 6.008-1.705 5.113a17 17 0 0 1-4.48-3.283 17 17 0 0 1-2.951-4.125l5.13-1.711 6.008-2.002zm8.016 0l6.008 2.002 5.113 1.705a17 17 0 0 1-3.283 4.48 17 17 0 0 1-4.125 2.951l-1.711-5.13-2.002-6.008zM32 37.668l2.834 5.664 2.406 4.82A17 17 0 0 1 32 49a17 17 0 0 1-5.246-.838l2.412-4.83L32 37.668z" fill="#A79984"/>
    <path d="M32 12a20 20 0 0 0-20 20 20 20 0 0 0 .021.418A20 20 0 0 1 32 13a20 20 0 0 1 19.979 19.582A20 20 0 0 0 52 32a20 20 0 0 0-20-20zm4.809 4.713l-1.975 3.955L32 26.332l-2.834-5.664-1.967-3.941a17 17 0 0 0-.44.12l2.407 4.821L32 27.332l2.834-5.664 2.412-4.83a17 17 0 0 0-.437-.125zm9.855 7.726l-4.648 1.551-5.633 1.877-.375 1.125 6.008-2.002 5.13-1.71a17 17 0 0 0-.482-.84zm-29.314.006a17 17 0 0 0-.479.84l5.113 1.705 6.008 2.002-.375-1.125-5.633-1.877-4.634-1.545zM31.135 29.5A1 1 0 0 0 31 30a1 1 0 0 0 1 1 1 1 0 0 0 .998-1 1 1 0 0 0-.135-.5A1 1 0 0 1 32 30a1 1 0 0 1-.865-.5zm17.842 2.953a17 17 0 0 1-.815 4.793l-4.83-2.412-4.664-2.334-1 .5 5.664 2.834 4.83 2.412A17 17 0 0 0 49 33a17 17 0 0 0-.023-.547zm-23.645.047l-4.664 2.334-4.82 2.406a17 17 0 0 1-.825-4.693A17 17 0 0 0 15 33a17 17 0 0 0 .848 5.24l4.82-2.406L26.332 33l-1-.5zm2.805 0A1 1 0 0 0 28 33a1 1 0 0 0 1 .998A1 1 0 0 0 30 33a1 1 0 0 0-.137-.5 1 1 0 0 1-.863.498 1 1 0 0 1-.863-.498zm6 0A1 1 0 0 0 34 33a1 1 0 0 0 1 .998A1 1 0 0 0 36 33a1 1 0 0 0-.137-.5 1 1 0 0 1-.863.498 1 1 0 0 1-.863-.498zm-3.002 3A1 1 0 0 0 31 36a1 1 0 0 0 1 1 1 1 0 0 0 .998-1 1 1 0 0 0-.135-.5A1 1 0 0 1 32 36a1 1 0 0 1-.865-.5zm-3.143 1.508l-.375.125-1.627 4.883-1.705 5.113a17 17 0 0 1-4.48-3.283 17 17 0 0 1-2.47-3.285l-.481.16a17 17 0 0 0 2.95 4.125 17 17 0 0 0 4.481 3.283l1.705-5.113 2.002-6.008zm8.016 0l2.002 6.008 1.71 5.13a17 17 0 0 0 4.126-2.95 17 17 0 0 0 3.283-4.481l-.479-.16a17 17 0 0 1-2.804 3.64 17 17 0 0 1-4.125 2.951l-1.711-5.13-1.627-4.883-.375-.125zm.793 11.265A17 17 0 0 1 32 49a17 17 0 0 1-4.809-.713l-.437.875A17 17 0 0 0 32 50a17 17 0 0 0 5.24-.848l-.44-.879z" fill="#F9F5D7" opacity=".2"/>
    <path d="M32 4A28 28 0 0 0 4 32a28 28 0 0 0 .021.586A28 28 0 0 1 32 5a28 28 0 0 1 27.979 27.414A28 28 0 0 0 60 32 28 28 0 0 0 32 4z" fill="#F9F5D7" opacity=".1"/>
    <circle cx="47" cy="48" r="15" opacity=".2"/>
    <circle cx="47" cy="47" r="15" fill="#CB8819"/>
    <path d="M47 40s-.945-.02-1.93.498c-.948.498-1.98 1.744-2.056 3.502h2.677c.13-1.185 1.309-1.2 1.309-1.2s1.334 0 1.334 1.4c0 .738-.187 1.152-.543 1.618-.356.467-.923.936-1.59 1.461-.666.525-1.432 1.106-2.076 1.951A5.557 5.557 0 0 0 43 52.6V54h8v-3h-4.865c.041-.062.026.043.074-.02.356-.466.923-.934 1.59-1.459.666-.525 1.432-1.107 2.076-1.953A5.557 5.557 0 0 0 51 44.2c0-1.866-1.086-3.184-2.07-3.701C47.945 39.981 47 40 47 40z" fill="#F9F5D7" fill-rule="evenodd"/>
</svg>
