<svg xmlns="http://www.w3.org/2000/svg" width="64" height="64" version="1">
    <path d="M4 56.2v2C4 59.75 5.25 61 6.8 61h50.4c1.55 0 2.8-1.25 2.8-2.8v-2c0 1.55-1.25 2.8-2.8 2.8H6.8C5.25 59 4 57.75 4 56.2z" opacity=".2"/>
    <rect width="56" height="56" x="4" y="4" rx="2.8" ry="2.8" fill="#F9F5D7"/>
    <path d="M6.8 4C5.25 4 4 5.25 4 6.8v1C4 6.25 5.25 5 6.8 5h50.401C58.751 5 60 6.25 60 7.8v-1C60 5.25 58.751 4 57.201 4h-50.4z" opacity=".2" fill="#F9F5D7"/>
    <path d="M18.02 14c-1.35-.024-1.363 1.943-.012 1.934l6.8.037 3.212 3.13V31.02c-.02 1.307 2.019 1.307 2 0v-2.398-9.92a.95.95 0 0 0-.294-.68l-3.788-3.694a1.017 1.017 0 0 0-.704-.287L18.02 14zm22.964.027c-.553.008-.993.448-.984.981V31.02c-.02 1.307 2.019 1.307 2 0v-2.398V15.008c.008-.546-.452-.99-1.016-.982zm-11.98.003c-.899-.003-1.346 1.051-.704 1.658l3.7 3.414v9.452a.935.935 0 0 0 0 .098v2.368c-.02 1.307 2.02 1.307 2 0V18.702a.95.95 0 0 0-.288-.682l-3.99-3.693a1.017 1.017 0 0 0-.718-.298zm4 0c-.899-.003-1.346 1.051-.704 1.658l3.696 3.414V31.02c-.02 1.307 2.02 1.307 2 0v-2.398-9.92a.95.95 0 0 0-.288-.68l-3.99-3.694a1.017 1.017 0 0 0-.714-.298zM27.106 38a1 1.097 0 0 0-.984 1.11v2.72a1 1.097 0 0 0 0 .077v3.74l-1.946 2.145h-7.16a1 1.097 0 1 0 0 2.193h7.578a1 1.097 0 0 0 .711-.321l2.524-2.797a1 1.097 0 0 0 .294-.774v-6.986a1 1.097 0 0 0-1.016-1.11zm5.879 0a1 1.097 0 0 0-.984 1.11v9.78a1 1.097 0 1 0 2 0v-6.905a1 1.097 0 0 0 0-.077V39.11A1 1.097 0 0 0 32.985 38zm4.004 0a1 1.097 0 0 0-.988 1.11v2.797a1 1.097 0 0 0 0 .112v4.077a1 1.097 0 0 0 .293.771l2.523 2.797a1 1.097 0 0 0 .711.322h7.579a1 1.097 0 1 0 0-2.193h-7.16l-1.945-2.145v-6.535a1 1.097 0 0 0-1.011-1.11zm4.008 0a1 1.097 0 0 0-.985 1.11v2.621a1 1.097 0 0 0 .059.566 1 1.097 0 0 0 .02.051 1 1.097 0 0 0 .316.446l2.422 2.677a1 1.097 0 0 0 .71.325h2.524a1 1.097 0 1 0 0-2.193h-2.11l-1.94-2.15V39.11A1 1.097 0 0 0 40.996 38z" display="block" fill="#504945"/>
    <path d="M15.044 18a1.044.974 0 0 0-1.044.974v26.052a1.044.974 0 0 0 1.044.974h6.595a1.044.974 0 0 0 .742-.29l1.318-1.24a1.044.974 0 0 0 .302-.683V21.455a1.044.974 0 0 0-.302-.684L21.06 18.29a1.044.974 0 0 0-.738-.29h-5.278z" display="block" fill="#504945"/>
    <rect width="20.21" height="16.562" x="25" y="26.44" ry="2.584" display="block" fill="none" stroke="#504945" stroke-width="2" stroke-linecap="round" stroke-linejoin="round"/>
    <path d="M63.958 45.848A16 16 0 0 1 48 61a16 16 0 0 1-15.958-14.848A16 16 0 0 0 32 47a16 16 0 0 0 16 16 16 16 0 0 0 16-16 16 16 0 0 0-.042-1.152z" opacity=".2" fill-rule="evenodd"/>
    <circle cx="48" cy="46" r="16" fill="#CB241D"/>
    <path d="M48 40v.002c-1.939.018-3.89.443-5.578 1.361-.673.421-1.481.964-2.09 1.512-.958.9-1.778 1.95-2.332 3.127 1.519 3.216 4.856 5.574 8.53 5.922 2.408.262 4.93-.139 7.048-1.283.673-.421 1.481-.964 2.09-1.512.958-.902 1.778-1.952 2.332-3.127-1.518-3.216-4.857-5.572-8.53-5.92-.487-.056-.98-.082-1.47-.082zm.004 2c2.14-.047 4.034 1.868 3.994 3.996.069 2.353-2.275 4.383-4.592 3.943-2.34-.274-3.984-2.9-3.215-5.125.493-1.636 2.1-2.831 3.815-2.812L48.004 42zM48 44a2 1.999 0 0 0-2 2.002A2 1.999 0 0 0 48 48a2 1.999 0 0 0 2-1.998 2 1.999 0 0 0-2-1.996V44z" fill="#F9F5D7" fill-rule="evenodd"/>
</svg>
