<svg xmlns="http://www.w3.org/2000/svg" width="64" height="64" version="1">
    <path d="M63.958 45.848A16 16 0 0 1 48 61a16 16 0 0 1-15.958-14.848A16 16 0 0 0 32 47a16 16 0 0 0 16 16 16 16 0 0 0 16-16 16 16 0 0 0-.043-1.152z" opacity=".2"/>
    <path d="M2.05 32c-.01.336-.05.662-.05 1 0 16.62 13.38 30 30 30 16.62 0 30-13.38 30-30 0-.338-.04-.664-.05-1C61.42 48.148 48.282 61 32 61S2.58 48.148 2.05 32z" opacity=".2"/>
    <path d="M32 17a15 15 0 0 0-15 15 15 15 0 0 0 15 15 15 15 0 0 0 15-15 15 15 0 0 0-15-15zm0 9a6 6 0 1 1 0 12 6 6 0 0 1 0-12z" fill="#928274"/>
    <path d="M32 2C15.38 2 2 15.38 2 32c0 16.62 13.38 30 30 30 16.62 0 30-13.38 30-30C62 15.38 48.62 2 32 2zm0 18a12 12 0 0 1 12 12 12 12 0 0 1-12 12 12 12 0 0 1-12-12 12 12 0 0 1 12-12z" fill="#F9F5D7"/>
    <path d="M32 2C15.397 2.001 2.03 15.38 2.03 32c0 .184.006.365.011.547C2.282 16.139 15.549 3 32 3h.002c16.442.001 29.702 13.123 29.959 29.518.005-.173.012-.344.012-.518 0-16.62-13.367-29.999-29.971-30H32zm-5.92 30.75c-.031.248-.074.493-.074.75 0 .22.012.435.035.648.016-.132.022-.266.04-.398C26.451 36.706 28.945 39 32 39c3.054 0 5.546-2.294 5.918-5.25.016.13.026.264.041.395.023-.212.035-.427.035-.645 0-.257-.045-.502-.076-.75C37.546 35.706 35.054 38 32 38c-3.054 0-5.548-2.294-5.92-5.25z" opacity=".4" fill="#F9F5D7"/>
    <circle cx="48" cy="46" r="16" fill="#7CB668"/>
    <circle cx="47" cy="53" r="5" fill="#F9F5D7"/>
    <rect width="4" height="16" x="48" y="38" rx="2" ry="2" fill="#F9F5D7"/>
</svg>
