<svg xmlns="http://www.w3.org/2000/svg" width="64" height="64">
    <path d="M32.032 6.005c-1.87-.08-3.634.798-4.57 2.276L4.176 45.032c-.906 3.556 1.786 6.201 5.813 8.14 7.553 3.639 19.801 4.795 21.807 4.826 3.307.07 13.328-1.446 20.484-4.289 5.442-2.162 9.226-5.093 7.136-8.677L36.13 8.281c-.852-1.345-2.396-2.202-4.098-2.276z" opacity=".2"/>
    <path d="M32.032 5.005c-1.87-.08-3.634.798-4.57 2.276L4.176 44.032c-.906 3.556 1.786 6.201 5.813 8.14 7.553 3.639 19.801 4.795 21.807 4.826 3.307.07 13.328-1.446 20.484-4.289 5.442-2.162 9.226-5.093 7.136-8.677L36.13 7.281c-.852-1.345-2.396-2.202-4.098-2.276z" fill="#928274"/>
    <path d="M32.094 6.008c-1.86-.064-3.611.808-4.543 2.273l-3.477 5.469c-.024.258-.074.508-.074.773v39.793C24 58.58 28.585 60 32 60s8-1.42 8-5.684V14.523c0-.132-.017-.26-.023-.39L36.254 8.28c-.763-1.2-2.09-1.978-3.578-2.191-.195-.026-.382-.073-.582-.082z" opacity=".2"/>
    <path d="M32.031 5.004c-1.87-.08-3.634.8-4.57 2.277L24 12.742v40.574C24 57.58 28.585 59 32 59s8-1.42 8-5.684V13.391l-3.871-6.11c-.852-1.344-2.396-2.204-4.098-2.277z" fill="#665C54"/>
    <rect width="6" height="34" x="12" y="24" rx="4.5" ry="4.25" opacity=".2"/>
    <path d="M32.033 5.006c-1.87-.08-3.636.797-4.572 2.275L4.176 44.031a5.28 5.28 0 0 0-.147 1.885c.027-.289.07-.583.147-.885L27.46 8.281c.936-1.478 2.701-2.356 4.572-2.275 1.702.073 3.246.93 4.098 2.275l23.285 36.75c.3.516.467 1.018.537 1.506.128-.795-.027-1.631-.537-2.506L36.131 7.281c-.852-1.344-2.396-2.202-4.098-2.275z" opacity=".1" fill="#F9F5D7"/>
    <rect width="6" height="34" x="12" y="23" rx="4.5" ry="4.25" fill="#A79984"/>
    <ellipse cx="32" cy="41.833" rx="7" ry="8.167" opacity=".2"/>
    <ellipse cx="32" cy="40.833" rx="7" ry="8.167" fill="#48B9C7"/>
    <rect width="6" height="34" x="46" y="24" rx="4.5" ry="4.25" opacity=".2"/>
    <rect width="6" height="34" x="46" y="23" rx="4.5" ry="4.25" fill="#A79984"/>
    <path d="M32 32.666a7 8.167 0 0 0-7 8.168 7 8.167 0 0 0 .018.576A7 8.167 0 0 1 32 33.666a7 8.167 0 0 1 6.982 7.586 7 8.167 0 0 0 .018-.418 7 8.167 0 0 0-7-8.168zM15 23c-1.662 0-3 1.895-3 4.25v1c0-2.355 1.338-4.25 3-4.25s3 1.895 3 4.25v-1c0-2.355-1.338-4.25-3-4.25zM49 23c-1.662 0-3 1.895-3 4.25v1c0-2.355 1.338-4.25 3-4.25s3 1.895 3 4.25v-1c0-2.355-1.338-4.25-3-4.25z" opacity=".2" fill="#F9F5D7"/>
</svg>
