<svg xmlns="http://www.w3.org/2000/svg" width="64" height="64" version="1">
    <path d="M50.912 28.016c.513-1.736.796-3.567.796-5.467 0-10.796-8.82-19.548-19.706-19.548-10.88 0-19.704 8.75-19.704 19.548 0 1.9.285 3.731.796 5.467-2.481 1.978-12.112 10.546-8.15 21.656 0 0 3.352-.284 6.105-5.334a21.303 21.303 0 0 0 4.517 8.621c-3.111.909-5.221 2.672-5.221 4.695 0 2.953 4.492 5.346 10.03 5.346 3.759 0 7.032-1.104 8.748-2.733.945.124 1.898.209 2.876.209.979 0 1.934-.085 2.875-.209C36.594 61.895 39.865 63 43.625 63c5.54 0 10.034-2.395 10.034-5.346 0-2.021-2.112-3.786-5.223-4.695a21.331 21.331 0 0 0 4.519-8.621c2.751 5.048 6.098 5.334 6.098 5.334 3.968-11.113-5.662-19.681-8.142-21.656z" opacity=".2"/>
    <path d="M50.912 27.016c.513-1.736.796-3.568.796-5.467C51.708 10.753 42.888 2 32.002 2c-10.88 0-19.704 8.75-19.704 19.548 0 1.9.285 3.73.796 5.467-2.481 1.978-12.112 10.546-8.15 21.656 0 0 3.352-.285 6.105-5.334a21.31 21.31 0 0 0 4.517 8.621c-3.11.909-5.221 2.672-5.221 4.695 0 2.953 4.492 5.346 10.03 5.346 3.76 0 7.032-1.105 8.748-2.733.945.123 1.898.209 2.876.209.98 0 1.934-.086 2.875-.209 1.72 1.628 4.991 2.733 8.75 2.733 5.54 0 10.035-2.395 10.035-5.346 0-2.021-2.112-3.786-5.223-4.695a21.337 21.337 0 0 0 4.519-8.621c2.75 5.048 6.098 5.334 6.098 5.334 3.968-11.113-5.662-19.681-8.142-21.656z" fill="#504945"/>
    <circle cx="22" cy="16" r="4" fill="#F9F5D7"/>
    <circle cx="42" cy="16" r="4" fill="#F9F5D7"/>
    <ellipse cx="32" cy="38" rx="14" ry="16" fill="#F9F5D7"/>
    <circle cx="24" cy="17" r="2" fill="#322F2E"/>
    <circle cx="44" cy="17" r="2" fill="#322F2E"/>
    <path d="M28 19h8c-.641 6.163-4 12-4 12s-4-6.927-4-12z" opacity=".2"/>
    <path d="M28 18h8c-.641 6.163-4 12-4 12s-4-6.927-4-12z" fill="#BE4C1D"/>
    <path d="M32.002 2c-10.88 0-19.703 8.751-19.703 19.549 0 .138.012.274.015.412.315-10.525 9.007-18.959 19.688-18.959 10.687 0 19.375 8.436 19.69 18.959.002-.138.015-.274.015-.412C51.707 10.753 42.887 2 32.002 2zm-19.12 25.195c-2.297 1.868-9.128 8.138-8.87 16.606.287-8.18 7.059-14.173 9.082-15.785-.08-.27-.143-.546-.211-.82zm38.241 0c-.068.275-.131.55-.21.82 2.02 1.61 8.788 7.602 9.075 15.78.259-8.467-6.57-14.735-8.865-16.6zm-36.197 24.98c-2.75.955-4.58 2.601-4.58 4.48 0 .19.02.378.056.564.28-1.837 2.28-3.417 5.164-4.26-.22-.255-.432-.518-.64-.783zm34.148.003c-.208.264-.418.526-.638.781 2.883.842 4.885 2.424 5.166 4.26.036-.186.056-.374.056-.565 0-1.876-1.833-3.521-4.584-4.476z" fill="#F9F5D7" opacity=".1"/>
</svg>
