<svg xmlns="http://www.w3.org/2000/svg" width="64" height="64" version="1">
    <rect width="40" height="28" x="-54" y="-46" rx="2.5" ry="2.5" transform="matrix(0 -1 -1 0 0 0)" opacity=".2"/>
    <rect width="40" height="28" x="-53" y="-46" rx="2.5" ry="2.5" transform="matrix(0 -1 -1 0 0 0)" fill="#928274"/>
    <rect width="38" height="52" x="-50" y="-58" rx="2.5" ry="2.5" transform="matrix(0 -1 -1 0 0 0)" opacity=".2"/>
    <rect width="38" height="52" x="-49" y="-58" rx="2.5" ry="2.5" transform="matrix(0 -1 -1 0 0 0)" fill="#504945"/>
    <rect width="32" height="46" x="-46" y="-55" rx="0" ry="0" transform="matrix(0 -1 -1 0 0 0)" fill="#322F2E"/>
    <path d="M8.5 11A2.495 2.495 0 0 0 6 13.5v1C6 13.115 7.115 12 8.5 12h47c1.385 0 2.5 1.115 2.5 2.5v-1c0-1.385-1.115-2.5-2.5-2.5zM9 46h46v1H9z" opacity=".1" fill="#F9F5D7"/>
</svg>
