<svg xmlns="http://www.w3.org/2000/svg" width="64" height="64" version="1">
    <path d="M4 56.2v2C4 59.75 5.25 61 6.8 61h50.4c1.55 0 2.8-1.25 2.8-2.8v-2c0 1.55-1.25 2.8-2.8 2.8H6.8C5.25 59 4 57.75 4 56.2z" opacity=".2"/>
    <rect width="56" height="56" x="4" y="4" rx="2.8" ry="2.8" fill="#FD8019"/>
    <path d="M38 15l6-4v40l-6 4z" opacity=".2"/>
    <path d="M38 14l6-4v40l-6 4z" fill="#F9F5D7"/>
    <path d="M18.464 41L12 37.804l34.641-20L53.105 21z" opacity=".2"/>
    <path d="M18.464 40L12 36.804l34.641-20 6.464 3.197z" fill="#F9F5D7"/>
    <path d="M52.641 43.804L53.105 51 18.464 31 18 23.804z" opacity=".2"/>
    <path d="M52.641 42.804L53.105 50 18.464 30 18 22.805z" fill="#F9F5D7"/>
    <path d="M6.8 4C5.25 4 4 5.25 4 6.8v1.003c0-1.551 1.25-2.801 2.8-2.801h50.4c1.55 0 2.8 1.25 2.8 2.8V6.802C60 5.25 58.75 4 57.2 4H6.8z" opacity=".2" fill="#F9F5D7"/>
</svg>
