<svg xmlns="http://www.w3.org/2000/svg" width="64" height="64" version="1">
    <rect width="56" height="56" x="4" y="5" rx="28" ry="28" opacity=".2"/>
    <rect width="56" height="56" x="4" y="4" rx="28" ry="28" fill="#F9F5D7"/>
    <path d="M23.93 14.999a1.5 1.5 0 0 0-1.364.836l-8.402 16.98a1.5 1.5 0 1 0 2.691 1.329l2.051-4.145h9.953l1.793 3.66a1.5 1.5 0 0 0 .465.555 1.5 1.5 0 0 0 .106.879l5.601 13a1.5 1.5 0 0 0 2.781-.063l3.497-9.277 3.496 9.277a1.5 1.5 0 0 0 2.78.063l5.599-13a1.5 1.5 0 1 0-2.754-1.188l-4.133 9.586-3.586-9.52a1.5 1.5 0 0 0-2.809 0l-3.586 9.52-4.132-9.586a1.5 1.5 0 0 0-.5-.633 1.5 1.5 0 0 0-.13-.933l-8.093-16.5a1.5 1.5 0 0 0-1.324-.84zm-.028 4.895l3.485 7.105h-7z" opacity=".1"/>
    <path d="M15.509 32.48l8.4-16.98L32 32" fill="none" stroke="#7B6F64" stroke-width="3" stroke-linecap="round" stroke-linejoin="round"/>
    <path fill="#7B6F64" d="M18 26h11.2v3H18z"/>
    <path d="M32.6 33.5l5.6 13 4.9-13 4.9 13 5.6-13" fill="none" stroke="#7B6F64" stroke-width="3" stroke-linecap="round" stroke-linejoin="round"/>
    <path d="M16.7 45.3L32 32" fill="none" stroke="#3A393A" stroke-width="1.4" stroke-linecap="round"/>
    <path d="M32 32l8.6-10.4" fill="none" stroke="#3A393A" stroke-width="3" stroke-linecap="round"/>
    <circle cx="32" cy="33" r="4" opacity=".1"/>
    <circle cx="32" cy="32" r="4" fill="#665C54"/>
    <path d="M32 4C16.488 4 4 16.488 4 32c0 .113.011.224.018.336C4.369 17.134 16.71 5 32 5c15.29 0 27.63 12.134 27.982 27.336.007-.112.018-.223.018-.336C60 16.488 47.512 4 32 4z" opacity=".2" fill="#F9F5D7"/>
</svg>
