<svg xmlns="http://www.w3.org/2000/svg" width="64" height="64" viewBox="0 0 16.93 16.93">
    <g transform="translate(0 -280.067)">
        <g opacity=".2">
            <path d="M6.35 287.74h4.233v6.301l-2.116 2.165-2.117-2.165z"/>
            <path d="M6.35 287.74h2.117v8.466l-2.117-2.165z"/>
        </g>
        <path d="M6.35 287.475h4.233v6.302l-2.116 2.165-2.117-2.165z" fill="#A79984"/>
        <path d="M6.35 287.475h2.117v8.467l-2.117-2.165z" fill="#F9F5D7"/>
        <rect width="2.646" height="10.054" x="285.62" y="-13.49" rx="1.323" ry="1.436" transform="rotate(90)" opacity=".2"/>
        <rect width="2.646" height="10.054" x="285.36" y="-13.49" rx="1.323" ry="1.436" transform="rotate(90)" fill="#CB8819"/>
        <path fill="#CB241D" d="M6.88 281.65h3.175v3.704H6.88z"/>
        <rect width="5.292" height="1.587" x="5.82" y="281.39" rx=".882" ry=".794" opacity=".2"/>
        <rect width="5.292" height="1.587" x="5.82" y="281.13" rx=".882" ry=".794" fill="#CB8819"/>
        <path d="M6.702 281.125c-.488 0-.881.354-.881.794 0 .046.005.092.014.136.069-.378.428-.665.867-.665h3.529c.44 0 .799.287.867.665a.652.652 0 0 0 .014-.136c0-.44-.393-.794-.881-.794H6.702zM4.876 285.358c-.796 0-1.436.59-1.436 1.323 0 .045.002.089.007.133.072-.67.682-1.191 1.429-1.191h7.182c.747 0 1.357.52 1.429 1.19a1.24 1.24 0 0 0 .007-.132c0-.733-.64-1.323-1.436-1.323H4.876z" opacity=".2" fill="#F9F5D7"/>
    </g>
</svg>
