<svg xmlns="http://www.w3.org/2000/svg" width="64" height="64">
    <circle cx="32" cy="33" r="28" opacity=".2"/>
    <circle cx="32" cy="32" r="28" fill="#F9F5D7"/>
    <path d="M44.29 30c.572 0 .912.672.579 1.152L29.285 53.693c-.408.576-1.285.288-1.285-.425V30.727c0-.398.32-.727.707-.727z" opacity=".1" fill-rule="evenodd"/>
    <path d="M44.29 29c.572 0 .912.672.579 1.152L29.285 52.693c-.408.576-1.285.288-1.285-.425V29.727c0-.398.32-.727.707-.727z" fill="#CB241D" fill-rule="evenodd"/>
    <path d="M34.285 13a.68.686 0 0 0-.564.309L18.135 35.848c-.34.48-.001 1.152.57 1.152h15.586c.388 0 .709-.33.709-.729V13.734a.716.716 0 0 0-.715-.734zM32 21.074V34h-8.94z" opacity=".1" fill-rule="evenodd"/>
    <path d="M34.285 12a.68.686 0 0 0-.564.309L18.135 34.848c-.34.48-.001 1.152.57 1.152h15.586c.388 0 .709-.33.709-.729V12.734a.716.716 0 0 0-.715-.734zM32 20.074V33h-8.94L32 20.074z" fill="#8F3F71" fill-rule="evenodd"/>
    <path d="M32 4A28 28 0 0 0 4 32a28 28 0 0 0 .021.586A28 28 0 0 1 32 5a28 28 0 0 1 27.979 27.414A28 28 0 0 0 60 32 28 28 0 0 0 32 4z" fill="#F9F5D7" opacity=".2"/>
    <path d="M32 29v4h-4v3h6.291c.388 0 .709-.33.709-.729V29h-3z" fill="#8F3F71" fill-rule="evenodd"/>
</svg>
