<svg xmlns="http://www.w3.org/2000/svg" width="64" height="64" version="1">
    <rect width="56" height="56" x="4" y="5" rx="2.8" ry="2.8" opacity=".2"/>
    <rect width="56" height="56" x="4" y="4" rx="2.8" ry="2.8" fill="#066678"/>
    <path d="M29.802 54.847a.985.985 0 0 0-.447-.154c-.287 0-.33-.155-.147-.516.37-.727.614-1.678.702-2.727.107-1.296.112-4.029.007-4.584-.123-.654-.42-1.195-.716-1.305a4.154 4.154 0 0 1-.384-.163c-.235-.124-.704-.076-1.11.113-.528.246-.984.652-.936.834.054.208-.258.623-.602.802-.319.166-.411.278-.826.995a5.41 5.41 0 0 1-.553.774l-.291.32.16-.426c.09-.234.198-.523.243-.643.044-.119.062-.235.039-.258-.023-.023-.512.076-1.087.22-.575.143-1.028.233-1.007.199.084-.136.693-.387 1.19-.491.288-.06.59-.132.668-.16.48-.17.957-.811.717-.963-.06-.038-.22-.07-.356-.07-.646-.003-.282-.366.812-.808 1.564-.633 2.725-1.29 2.725-1.54 0-.182-1.366-2.173-1.746-2.546-.204-.2-.47-.386-.59-.412-.26-.058-.795.176-.807.35-.004.065-.012.161-.02.215-.016.134-.475.405-.686.405-.223 0-.426.312-.447.682-.018.31-1.032 2.158-1.167 2.127-.04-.01-.09-.148-.11-.308l-.04-.29-.124.191a1.887 1.887 0 0 0-.184.385 9.76 9.76 0 0 1-.328.765c-.147.315-.305.78-.352 1.032-.084.448-.101.473-.632.88-.3.23-.686.529-.856.665l-.31.248.238-.267c.744-.831 1.187-1.626 1.392-2.497.077-.326.117-.615.09-.643-.029-.027-.248.103-.489.29-.795.617-.761.6-.7.357.076-.304-.126-.28-.9.108-.503.252-.605.284-.483.148.356-.397.865-.686 1.51-.856.79-.208 1.059-.36 1.41-.793.262-.321.835-1.29.835-1.41 0-.127-1.008.022-1.371.203-.307.152-.378.228-.422.454-.059.302-.43.662-.757.734-.111.025-.358.148-.549.274-.396.262-.471.196-.227-.2.094-.15.152-.293.13-.315-.022-.022-.174.03-.338.114-.308.16-.446.262-1.456 1.08-.331.268-.619.47-.639.45-.02-.02.054-.156.164-.301.111-.145.202-.29.202-.324 0-.033-.192-.035-.426-.007-.252.032-.426.024-.426-.02 0-.04.29-.181.644-.315.667-.252 1.45-.682 1.714-.942.15-.148.15-.15 0-.26-.141-.104-.123-.116.253-.166.252-.034.549-.147.787-.3.307-.199.62-.296 1.607-.498a29.2 29.2 0 0 0 1.472-.33c.263-.082.799-.616.799-.795 0-.144-.552-.394-1.122-.508-.256-.051-.721-.149-1.035-.217-.492-.106-.619-.109-.929-.019-.197.058-.507.11-.688.117-.246.009-.402.073-.62.256-.158.134-.602.436-.985.67-.384.235-.92.567-1.194.737-.543.338-.735.342-.335.006.405-.34.339-.416-.31-.359-.713.064-.574-.03.445-.3.724-.19 1.355-.497 1.355-.657 0-.039-.235-.095-.523-.126-.838-.089-.913-.179-.151-.184.534-.004.75-.04 1.003-.17.4-.204.832-.543.832-.652 0-.147-1.411-.715-2.09-.841l-1.341-.25c-.6-.112-.777-.116-1.45-.026-.616.081-.853.082-1.195.006-.445-.1-.549-.212-.252-.272.096-.02.314-.062.484-.095.17-.034.701-.051 1.18-.04.48.012.871-.01.871-.048 0-.09-.53-.467-1.16-.826-.699-.398-.288-.29.918.242 1.887.832 3.075 1.17 2.882.819-.04-.075-.306-.388-.59-.697-.282-.308-.482-.56-.442-.56.04 0 .416.318.838.707 1.62 1.496 1.864 1.608 3.185 1.47 1.069-.11 2.987-.383 3.153-.446.18-.07.149-.137-.28-.606-.47-.514-.869-.755-3.257-1.966-2.249-1.14-2.222-1.13-2.694-.963-.32.114-.41.117-.68.028-.37-.122-.829-.08-1.64.15-.377.107-.907.179-1.51.205-.524.023-1.067.091-1.246.156-.354.129-.738.114-.785-.03-.017-.051.05-.109.149-.128.76-.145 1.04-.222 1.143-.313.085-.074.45-.116 1.242-.142.847-.027 1.216-.072 1.503-.183.21-.08.393-.184.409-.23.015-.046-.121-.147-.303-.225a79.195 79.195 0 0 1-.99-.434c-.666-.297-1.228-.416-2.894-.612-.982-.116-1.045-.14-.822-.308l.173-.13-.26-.173-.26-.173.232.034c.128.02.842.195 1.587.392 1.512.4 1.858.44 1.858.214 0-.243-.567-.878-.878-.983-.106-.036-.13-.096-.094-.24.103-.41-.472-.973-1.878-1.84-.397-.245-.705-.462-.684-.482.02-.02.291.07.603.2.573.241.765.287.762.18-.001-.031-.193-.314-.426-.629-.233-.314-.424-.602-.424-.639 0-.092.212-.084.27.011.027.043.11.078.185.078.09 0 .294.254.588.73.248.4.67.984.939 1.296.268.312.798.967 1.179 1.457.516.665.796.953 1.107 1.14.5.3 2.027.888 2.341.901.535.023.215-.416-.76-1.043a28.756 28.756 0 0 1-.857-.567c-.153-.113-.152-.115.02-.118.095-.003.174-.03.174-.06 0-.032-.374-.432-.831-.89-.828-.831-.937-1.011-.385-.636.171.116.35.18.43.154.167-.053.696.48 1.808 1.822 1.11 1.337 1.549 1.705 2.449 2.05.874.334 1.089.454 1.873 1.046.772.583 1.082.767 1.293.767.22 0 .222-.142.01-.564-.247-.494-.736-1.1-1.058-1.31a5.45 5.45 0 0 0-.835-.398 4.008 4.008 0 0 1-1.045-.616c-.675-.555-1.094-.834-1.74-1.158-.654-.33-.96-.613-.387-.36.284.126.386.14.472.07.089-.074.215-.015.644.303.293.218.555.396.582.396.026 0 .048-.076.048-.168 0-.139.09-.081.523.334.816.783 1.726 1.329 1.967 1.18.113-.07-1.01-1.193-1.735-1.738-.33-.247-.818-.642-1.084-.877a13.418 13.418 0 0 0-1.05-.818c-.546-.375-.589-.39-1.096-.39-.679 0-1.203-.165-3.08-.97-1.525-.654-1.818-.81-1.514-.81.219 0 .613.144 1.664.61 1.057.47 1.922.705 2.586.705.545 0 .73-.048.73-.192 0-.055-.33-.414-.733-.8-.701-.67-.76-.708-1.394-.901-.425-.13-.757-.287-.931-.44-.324-.284-.353-.422-.058-.272.353.178 1.246.451 1.387.424.202-.039-.276-.543-.937-.99-.767-.517-1.698-1.27-1.609-1.3.041-.014.387.145.77.353.783.426.95.5.95.42 0-.03-.33-.456-.734-.946-.74-.896-.942-1.228-.494-.808.299.281 1.829 1.994 2.655 2.974.338.4.627.688.644.64.016-.048-.152-.534-.373-1.08-.491-1.214-.57-1.463-.427-1.344.132.11.53.922 1.13 2.307.584 1.346.98 1.918 2.02 2.927.94.911 1.64 1.423 1.682 1.228.014-.068-.241-.66-.568-1.315-.521-1.047-.678-1.285-1.289-1.964-.632-.703-1.928-2.605-1.921-2.82.005-.15.962.908 1.115 1.23.244.518.524.893.753 1.012.2.104.219.102.219-.024 0-.234-.453-1.11-.853-1.649-.209-.282-.956-1.062-1.66-1.734-.704-.671-1.28-1.252-1.28-1.29 0-.039.105-.07.234-.07.163 0 .304.076.47.251l.237.252-.045-.232c-.13-.668-.14-.772-.065-.697.043.043.171.327.285.632.267.711.717 1.337 1.185 1.647.305.202.374.224.395.121.015-.068-.029-.208-.096-.311-.068-.103-.123-.226-.123-.273 0-.105.25.2.65.796.163.245.328.445.366.445.134 0 .057-.287-.351-1.315-.229-.575-.401-1.06-.384-1.078.111-.12.88 1.397.88 1.738 0 .14.076.452.168.694.146.382.297.56 1.14 1.342.533.497 1.529 1.444 2.211 2.106 1.165 1.13 1.771 1.62 1.874 1.518.065-.065-.313-.76-.837-1.537a9.055 9.055 0 0 0-2.01-2.158c-.65-.494-1.307-1.122-1.307-1.247 0-.083.26.1.988.688.37.3.795.565.904.565.088 0 .038-.248-.106-.525-.22-.423-3.687-3.908-4.092-4.112-.93-.47-2.493-1.6-2.493-1.803 0-.12.124-.058.64.318.413.302.99.61.984.526 0-.009-.299-.325-.663-.704-.854-.89-1.449-1.75-1.21-1.75.034 0 .373.348.755.773.381.425.753.773.825.774.073 0 .468.408.884.911.413.5 1.021 1.172 1.35 1.493.623.607 1.871 1.545 2.056 1.545.326 0-.077-1.013-.769-1.93-.864-1.147-2.468-2.734-3.33-3.294-.155-.1-.206-.187-.178-.296.027-.102-.053-.267-.237-.492-.316-.385-.297-.507.042-.266.458.326.435.23-.182-.76-.277-.444-.503-.838-.503-.876 0-.119.487.257.867.669.415.449.455.395.177-.234-.107-.242-.18-.455-.161-.473.048-.049 1.003 1.4 1.713 2.598.608 1.026 1.356 1.964 1.475 1.849.073-.07-.015-.425-.444-1.797L21 19.745l-.695-.703c-.75-.758-.834-.862-.836-1.036 0-.063.168.053.38.262.248.245.423.36.502.33.08-.032.19.048.33.24.116.158.306.392.424.52.213.232.847 1.963 1.899 5.186.236.723.603 1.699.815 2.167.212.468.422.938.465 1.045l.08.193.069-.232c.146-.493-.117-2.441-.44-3.25-.15-.381-.174-.535-.127-.852l.058-.387.298.834c.285.795.33.869.966 1.553.366.395.905 1.002 1.198 1.35.808.957 1.218 1.156.789.38-.243-.437-1.47-2.255-2.66-3.942-1.044-1.478-1.742-2.732-2.219-3.985-.633-1.663-.64-1.674-1.272-1.915-.296-.113-.58-.256-.63-.317-.151-.182.438-.143.748.05.236.145.266.148.31.033.027-.07.01-.214-.039-.32-.126-.276-.11-.377.038-.254.069.057.363.592.654 1.19.503 1.03.53 1.07.533.764.003-.177-.12-.747-.271-1.267-.15-.52-.261-.984-.245-1.032.036-.108.3.688.52 1.568.528 2.106 1.936 5.192 2.703 5.924l.238.227v-.192c0-.541-.833-2.459-1.154-2.658a.642.642 0 0 1-.166-.204c-.074-.138-.062-.148.116-.103.129.032.198.017.198-.043 0-.126-.689-1.953-1.126-2.985-.646-1.527-.679-1.712-.174-.98.32.463.377.285.11-.345-.104-.249-.18-.463-.166-.477.014-.014.099.021.19.077.138.086.175.085.235-.011.09-.146.094-.142.374.5.442 1.015 1.222 2.419 1.3 2.34.037-.037-.213-.774-.733-2.16-.473-1.26-.5-1.464-.137-1.053.187.212.33.53.54 1.205.163.519.44 1.184.637 1.532.193.337.442.919.554 1.292.19.63.247.725.816 1.354a16.8 16.8 0 0 1 1.162 1.482c.303.442.565.763.582.711.12-.362-1.443-4.023-2.273-5.322-.14-.22-.57-.742-.956-1.16-.674-.733-.977-1.18-.918-1.355.015-.046.181.117.37.36.4.52.998 1.006 1.105.9.123-.123-.154-.798-.496-1.211-.29-.35-.305-.387-.16-.41a.229.229 0 0 0 .187-.193c.023-.145.05-.125.19.142.09.17.242.57.338.89.095.318.275.806.4 1.082.193.432.237.483.305.361.057-.099.053-.29-.012-.634-.051-.27-.077-.537-.058-.593.02-.056.079.108.131.363.31 1.515.753 2.938.853 2.74.09-.182-.053-1.776-.216-2.391-.226-.855-.475-1.471-.592-1.471-.266 0-.702-.819-.895-1.68-.107-.474-.035-.512.15-.078.118.273.185.344.296.315.111-.029.163-.16.23-.582.127-.807.256-.857.257-.1.003.674.145 1.47.34 1.893.07.15.111.194.094.1-.035-.19.138-.482.231-.389.076.076.152.686.301 2.417.146 1.691.207 2.052.5 2.944l.229.694-.04-.62c-.023-.34-.074-.896-.113-1.236a9.16 9.16 0 0 1-.067-.812c.004-.19.009-.188.127.05.067.135.183.26.256.28.097.025.158.173.221.535a6.5 6.5 0 0 1 .088.648c.001.082.034.2.074.264.1.157.398-.519.403-.915.003-.16-.173-.811-.39-1.448-.218-.637-.463-1.512-.546-1.944-.179-.938-.3-1.197-.761-1.632-.287-.27-.332-.348-.255-.442.118-.141.042-.275-.156-.275-.192 0-.19-.093.003-.268.148-.134.16-.126.445.335.212.342.328.461.42.432.141-.044.226.17.534 1.34.093.351.195.638.227.638s.081-.235.108-.522c.039-.405.006-.73-.144-1.446-.106-.508-.179-.937-.16-.955.054-.055.253.387.394.873.073.255.24.673.372.928.325.633.354.389.095-.816-.22-1.021-.234-1.158-.125-1.158.04 0 .147.253.237.561.436 1.509.954 3.124 1.023 3.193.159.16-.036-1.246-.3-2.164-.366-1.273-.369-1.292-.143-.87.155.29.231.362.342.327.126-.04.157.038.27.673.254 1.448.503 3.534.554 4.666.064 1.388.111 1.322.38-.53.253-1.735.247-2.102-.052-3.313-.181-.731-.224-1.02-.16-1.083.062-.063.11.04.179.39.146.742.241.701.347-.147.029-.234.074-.46.099-.502.074-.124.152.27.162.812.013.695.107.811.275.337.074-.207.172-.463.22-.57.086-.191.087-.19.115.076.037.351-.26 1.469-.539 2.032-.205.414-.297.989-.157.989.09 0 .957-.646 1.137-.849.14-.157.159-.314.194-1.669.021-.822.065-1.52.097-1.553.13-.129.175.104.2 1.02.02.8.045.96.144.96.136 0 .127.075-.12 1.084-.253 1.038-.336 1.717-.392 3.218-.05 1.317-.065 1.422-.262 1.798-.293.56-.28.73.034.436l.242-.227-.054.348c-.03.192-.08.592-.11.89a3.084 3.084 0 0 1-.308 1.054c-.401.819-.506 2.203-.447 5.913.076 4.702.129 5.893.255 5.72.285-.39.714-2.235.88-3.785.05-.469.259-1.705.465-2.748.638-3.225.709-4.23.614-8.675-.105-4.878-.11-6.65-.017-6.741.113-.114.146.046.255 1.273.124 1.39.187 1.446.384.34.052-.29.123-.5.157-.464.16.164.078 1.585-.196 3.392-.13.858-.157 2.49-.043 2.67.055.087.136-.022.34-.465.53-1.147.9-2.859.9-4.17 0-.59.018-.665.19-.825.132-.122.206-.296.243-.57.055-.415.187-.544.186-.181-.002.5-.178 1.71-.46 3.154-.167.851-.342 1.763-.388 2.026a5.014 5.014 0 0 1-.304.968c-.253.567-.33.837-.239.837.117 0 .388-.448.833-1.374.365-.759.442-.873.465-.692.035.28-.21 1.036-.687 2.112-.21.472-.378.96-.374 1.083l.007.226.107-.246c.123-.279.234-.374.305-.259.027.044.077.08.113.08.035 0 .32-.41.632-.91 1.022-1.636 1.32-2.798 1.034-4.045-.193-.848-.22-1.083-.125-1.083.046 0 .132-.093.192-.207.1-.193.112-.149.162.638.029.465.073.965.098 1.11.041.241.054.252.148.125.056-.077.16-.405.23-.729.177-.806.208-.844.379-.457l.145.329-.265.773c-.146.425-.679 1.627-1.185 2.672a123.128 123.128 0 0 0-1.225 2.592l-.306.692-.016 1.146c-.012.856.008 1.146.079 1.146.051 0 .262-.214.467-.475.5-.637.528-.43.073.539-.193.411-.372.86-.399.995-.033.172-.247.448-.704.909-.517.52-.716.786-.926 1.241-.283.614-.422 1.107-.289 1.024.043-.026.3-.384.57-.795.271-.411.504-.716.517-.677.013.04-.047.275-.132.525-.214.62-.2.76.043.468.95-1.135 2.931-5.327 3.317-7.016.062-.27.222-1.206.356-2.079.3-1.954.47-2.799.727-3.6.354-1.103.475-1.059.208.078-.208.885-.267 1.355-.169 1.355.045 0 .22-.27.388-.6.169-.33.308-.567.31-.527.003.04-.069.331-.158.649-.126.45-.14.59-.064.636.074.046.056.155-.079.473-.097.228-.24.483-.317.569-.078.085-.18.257-.228.383-.105.278-.388 1.902-.388 2.23 0 .235 0 .235.163.088.09-.08.516-.575.947-1.097.432-.523.796-.917.81-.876.032.096-.14.367-.692 1.09-.523.687-.983 1.433-1.05 1.703-.026.107-.234.397-.462.645-.486.527-.56.664-1.144 2.103a28.319 28.319 0 0 1-.991 2.129c-.981 1.858-1.142 2.2-1.218 2.593a9.21 9.21 0 0 1-.124.56c-.028.097-.018.175.02.175.164 0 .92-.525 1.125-.78.225-.28.838-1.707 1.129-2.626l.553-1.757c.217-.69.434-1.278.481-1.307.147-.091 0 .627-.331 1.622-.169.505-.296.948-.284.985.013.037.281-.394.597-.957 2.003-3.569 2.358-4.307 2.837-5.9.192-.636.21-.8.201-1.897-.009-1.177.079-1.723.188-1.178.077.38.15.364.332-.074.09-.218.18-.382.2-.363.03.031-.035.874-.153 1.964l-.042.387.27-.465c.149-.255.415-.795.592-1.2.177-.404.35-.765.384-.802.034-.037.104.072.155.243.086.287.078.333-.096.571-.194.264-.76 1.465-.76 1.611 0 .139.2.088.364-.094.086-.095.332-.436.546-.757.412-.619.72-.949.61-.655-.159.425-.798 1.486-1.1 1.826-.188.212-.342.446-.342.52 0 .202-.21.463-.54.672-.243.153-.387.366-.811 1.2-.284.557-.85 1.525-1.26 2.151a15.083 15.083 0 0 0-1.237 2.261c-.27.617-.757 1.654-1.082 2.303-.324.65-.569 1.202-.543 1.228.081.081.576-.273.922-.66.183-.204.748-.977 1.256-1.718.508-.74 1.057-1.5 1.219-1.686.594-.682 1.388-1.943 1.58-2.504.215-.633.341-.818.341-.5 0 .115.033.209.072.209.08 0 1.065-1.285 1.306-1.705.085-.148.212-.47.28-.714.124-.436.277-.597.277-.29 0 .172.152.204.295.062.072-.073.092-.065.092.035 0 .07.058.16.129.199.116.065.113.093-.04.308a2.92 2.92 0 0 1-.537.506c-.506.372-1.261 1.289-2.057 2.497-.82 1.247-.845 1.372-.198 1.028.54-.288 1.366-1.026 1.848-1.65.183-.237.357-.431.387-.431.03 0 .039.11.02.243l-.036.243.339-.185c.187-.102.63-.474.986-.826.576-.571.658-.628.743-.512.156.213.478.07 1.034-.457.277-.264.478-.41.445-.325-.033.085-.094.25-.136.365-.042.116-.243.33-.446.477-.339.243-.37.292-.363.57.01.398-.19.692-.594.868-.42.183-.724.513-1.203 1.305-.382.633-.769 1.604-.676 1.697.026.026.187-.03.357-.126.17-.095.308-.141.308-.102 0 .039-.122.23-.27.426-.298.39-.426.67-.426.932 0 .093-.087.298-.194.455-.243.358-.242.4.012.335.306-.076.806-.446 1.099-.812.221-.276.272-.306.348-.204.078.104.175.076.77-.219.374-.185.745-.396.824-.467.103-.093.219-.117.404-.084.574.102.994-.428 1.471-1.855.185-.555.327-.86.407-.877.185-.038.154.2-.149 1.137-.326 1.008-.328 1.034-.077.971.273-.069.24.03-.157.457-.19.205-.346.414-.346.464 0 .05-.103.284-.23.518-.125.234-.23.473-.231.53-.003.059.412-.324.92-.85.894-.926 1.24-1.153.84-.552-.106.16-.355.47-.553.69-.56.62-.449.661.417.15l.578-.342.184.193c.1.107.153.222.116.256-.037.034-.294.1-.57.147-.656.111-1.283.531-1.52 1.018-.194.397-.524.708-.686.645-.074-.028-.285.143-.6.486-.266.29-.824.856-1.239 1.256-.415.4-.754.752-.754.784 0 .031.293.08.652.11.727.059.945 0 1.558-.422.295-.203.35-.22.33-.1-.022.126.026.14.428.126.56-.02 1.057-.18 1.636-.529.245-.147.459-.268.475-.268.016 0 .03.074.03.165 0 .154.026.161.4.112.35-.047.388-.04.303.063-.2.24-.754.426-1.517.51-.425.046-.904.119-1.064.162-.61.164-.216.345.735.339.496-.003.6.018.6.118 0 .067.056.202.124.3.069.097.102.198.075.225-.027.027-.335-.045-.685-.16-.693-.227-1.589-.392-2.16-.397-.275-.003-.402.037-.518.16-.137.148-.193.158-.526.092-.517-.1-.956-.029-1.436.236-.485.267-.814.355-.94.25-.14-.116-.718.172-.785.392-.067.224-.573.762-.716.762-.075 0-.098.091-.08.325.03.412.09.431 1.416.44.641.004 1.205.053 1.554.135.71.166 1.12.102 1.877-.29l.591-.305-.308.316-.308.316.31.006c.17.003 1.076.01 2.012.015 1.14.006 1.753.039 1.855.1.14.082.13.093-.116.137-.147.026-.738.037-1.313.026l-1.045-.022-.465.328c-.342.24-.744.417-1.528.668-.586.187-1.064.329-1.064.315 0-.114.807-.599 1.224-.736.532-.175.71-.273.71-.39 0-.038-.584-.069-1.299-.069s-1.716-.052-2.225-.115a15.22 15.22 0 0 0-1.33-.116c-.374 0-.414.018-.528.237-.067.13-.242.308-.389.395-.363.214-.374.546-.024.727.27.14 1.713.46 2.434.54.416.046.517.028.89-.16l.42-.21-.184.199c-.237.256-.174.404.197.465.704.116 1.059.064 1.54-.229.253-.154.605-.342.782-.42.334-.145 1.032-.281 1.032-.2 0 .025-.182.138-.406.252-.44.223-.91.555-.91.645 0 .07 1.25.29 2.013.353.761.064.819.083.694.234-.08.095-.078.155.004.309.056.104.086.206.067.225-.02.02-.347-.093-.729-.25-.625-.255-.773-.285-1.481-.3a9.83 9.83 0 0 1-1.234-.099 7.175 7.175 0 0 0-1.059-.082c-.4 0-1.188-.111-2.264-.32-.97-.187-1.735-.298-1.852-.268-.36.09-1.305 1.074-1.695 1.764-.197.348-.359.66-.359.693 0 .11.572.212 2.129.38 1.565.167 2.175.163 3.061-.019.374-.076.48-.069.813.06l.383.148-1.045.042c-.575.024-1.115.082-1.2.13-.148.084-.146.091.057.168.448.17 2.697.627 3.088.627.037 0 .067.033.067.072 0 .04-.191.096-.425.125-.234.03-.426.085-.426.123 0 .039.253.235.563.436.415.27.751.415 1.277.55.507.13.714.217.714.301 0 .095-.071.11-.376.073-.391-.046-1.17-.366-2.778-1.14-.839-.404-.948-.44-.948-.305 0 .191-.039.19-.316-.008-1.243-.885-3.753-1.277-5.168-.808-.616.204-.786.307-.786.478 0 .06.222.42.493.797.271.377.617.907.768 1.178.32.571.453.707.863.879.374.156.982.158 2.178.006.906-.114 1.271-.103 1.271.038 0 .038-.085.069-.189.069-.272 0-.305.117-.074.268.162.107.19.17.148.338a1.044 1.044 0 0 1-.076.23c-.014.014-.211-.073-.44-.193-.353-.186-.504-.218-1.033-.218-.65 0-1.045.072-1.045.19 0 .038.114.218.252.399.185.242.465.443 1.057.76.765.41 1.649 1.096 1.546 1.2-.026.028-.334-.162-.683-.422-.35-.259-.723-.504-.828-.544-.23-.087-.593-.097-.556-.015l.31.656c.372.784.41.91.275.91-.121 0-.183-.073-1.522-1.818-.994-1.294-1.38-1.742-1.502-1.742-.042 0-.056.23-.033.543.043.61.393 1.402 1.178 2.663.236.38.429.728.428.774 0 .046-.404-.323-.897-.82-.493-.497-.94-.92-.994-.941-.07-.027-.111-.37-.144-1.186-.052-1.274-.185-1.949-.501-2.529-.45-.827-1.081-.892-1.848-.19-.54.495-1.498 1.671-1.498 1.84 0 .082.186.307.42.51.252.217.403.404.379.469-.055.141.93 1.114 1.698 1.679.33.242.6.458.6.479 0 .122-.42 0-.798-.233l-.881-.542c-.243-.149-.509-.27-.591-.27-.252 0-.121.498.442 1.68.282.589.512 1.114.512 1.166 0 .194-.146.083-.39-.296-.228-.356-.39-.704-1.269-2.713-.372-.854-.575-1.115-.805-1.042-.55.175-1.625 2.965-1.838 5.224-.138 1.46.064 2.489.639 3.267.193.261.146.393-.2.557-.231.11-.58.128-2.464.128-2.06 0-2.008-.01-2.226-.154zm4.296-9.452c.305-.472.443-.895.36-1.108-.023-.062-.129-.169-.235-.238-.152-.1-.226-.108-.356-.039-.231.124-.31.39-.31 1.045 0 .967.096 1.028.54.34zm-4.508-2.682c-.058-.834-.2-1.145-.575-1.258a1.655 1.655 0 0 0-.536-.063l-.24.026.085.33c.058.226.255.529.616.949.293.34.568.617.611.617.051 0 .065-.214.039-.601zm5.36.292c0-.261-.111-.305-.226-.09-.053.099-.05.171.012.233.147.147.213.102.213-.143zm2.296-1.057c1.001-.76 2.75-2.322 3.18-2.84.42-.508.431-.638.042-.475-.157.066-.329.103-.38.083-.13-.05-1.26.504-1.905.933-.358.238-.525.398-.525.504 0 .086-.152.353-.338.594-.426.553-.752 1.484-.519 1.484.04 0 .24-.128.445-.283zm-2.953-.31c.17-.114.595-.433.945-.709.539-.424.66-.563.785-.896.198-.53.32-1.363.32-2.183v-.674l-.164.147c-.252.227-1.257 1.585-1.577 2.13-.284.485-.675 1.55-.77 2.1-.062.357.029.374.46.084zm-8.732-.726c.204-.044.423-.112.487-.152.103-.064.103-.084 0-.184-.064-.061-.336-.204-.606-.316l-.49-.204-.899.125c-.494.068-.932.144-.972.17-.09.055.507.292 1.226.486.64.173.764.18 1.254.075zm3.341-.2c.462-.093.29-.5-.735-1.739a7.473 7.473 0 0 0-1.802-1.608c-.52-.336-.778-.394-.932-.209-.125.151.032.491.882 1.901.895 1.484.994 1.609 1.3 1.647.437.054 1.037.058 1.287.008zm1.507-.943c-.032-1.36-1.298-3.875-2.687-5.337-.296-.311-.966-.876-1.488-1.254-.532-.384-1.62-1.314-2.468-2.105-1.773-1.658-2.285-2.046-2.285-1.73 0 .344 1.405 3.428 2.077 4.561.716 1.206 1.226 1.798 1.61 1.87.147.028.287.032.31.008.051-.05-.255-.508-1.063-1.584-.633-.844-1.15-1.75-1.053-1.846.143-.144 1.344 1.34 2.262 2.796.16.256.784.97 1.384 1.587 1.273 1.31 1.896 2.01 2.676 3.005.65.832.744.835.725.029zm7.192-.528c.138-.07.721-.426 1.296-.788 1.19-.751 2.09-1.202 2.709-1.356.372-.093.443-.142.564-.394.076-.158.146-.416.155-.573l.016-.285-.627-.068c-.606-.065-.643-.06-1.124.17-.274.131-.65.272-.834.314-.377.084-.798.446-1.194 1.027-.135.198-.55.68-.923 1.072-.529.557-.677.762-.677.935 0 .206.015.217.194.149.107-.04.307-.132.445-.203zm-2.598-2.603c.511-.537 1.358-1.735 1.665-2.355.267-.54.33-.752.367-1.259.038-.529.029-.6-.072-.54-.218.128-.466.367-.466.448 0 .044-.211.317-.47.607-.72.805-.948 1.34-1.352 3.177-.053.241.048.218.328-.078zm-4.452-.695a60.3 60.3 0 0 1-.13-1.323c-.06-.717-.357-1.616-.702-2.116-.483-.702-1.643-1.338-2.796-1.532l-.324-.054.144.394c.192.525 3.748 5.572 3.853 5.468.023-.023.003-.4-.045-.837zm11.973-.706c.19-.238 1.094-3.35 1.094-3.77 0-.3-.08-.325-.401-.127-.38.235-.935.918-1.272 1.563-.156.298-.507.87-.78 1.27-.569.833-.568.836.17 1.038.748.205 1.04.211 1.189.026zm-3.072-.513c.611-.001.693-.02.913-.205.149-.125.413-.551.682-1.1.376-.768.444-.974.47-1.423.029-.518.027-.524-.169-.524-.377 0-2.02 1.645-2.308 2.313-.08.186-.25.47-.377.63-.276.349-.287.418-.056.356.095-.025.476-.047.845-.047zM38.2 33.319c.507-.308 2.248-1.79 2.83-2.409.42-.446.67-.8.908-1.285.18-.368.478-.867.662-1.11.198-.26.485-.815.704-1.359.204-.505.411-.994.461-1.087.152-.283-.076-.21-.617.198-.268.202-.67.472-.891.6-.37.212-.51.392-1.697 2.165-.791 1.183-1.38 1.986-1.517 2.07-.123.074-.224.186-.224.248s-.145.28-.322.485c-.338.39-.635.973-.712 1.398-.054.302.031.32.415.086zm6.872-.928c.31-.356.597-.66.638-.674.123-.042.087.203-.076.522-.083.164-.13.318-.105.344.116.116.868-.43 1.493-1.083.682-.713 1.582-1.965 1.83-2.547.154-.36.348-1.136.298-1.186-.098-.098-1.384.345-1.971.679-.362.205-.902.501-1.2.658-.696.364-.866.51-1.015.872-.067.163-.296.581-.51.93-.346.568-.4.72-.533 1.497-.081.475-.127.897-.102.938.091.148.702-.316 1.252-.95zm-14.154-1.099c.215-1.112.205-1.342-.089-2.088-.298-.757-1.885-3.969-2.21-4.472-.244-.378-1.31-1.235-1.835-1.475a1.79 1.79 0 0 0-.61-.143c-.297-.002-.3.001-.254.25.066.36.803 1.791 1.815 3.526.48.824 1.294 2.34 1.808 3.37.514 1.028.971 1.915 1.017 1.971.123.152.173.02.358-.939zm-2.316-.815c0-.287-3.451-4.191-3.705-4.191-.108 0-.157.8-.084 1.38.08.64.42 1.71.648 2.046.248.364.63.512 1.718.67 1.17.168 1.423.185 1.423.095zm3.667-.33c.076-.38.057-2.138-.033-3.02-.18-1.77-.465-2.685-1.543-4.943-.416-.873-.782-1.704-.812-1.846-.033-.154-.084-.231-.125-.19-.156.156-.377 1.5-.393 2.393l-.017.92.598 1.586c.616 1.638.709 1.846.784 1.77.025-.024.067-.329.093-.677.027-.348.077-.65.112-.672.133-.083.548.966.684 1.732.043.242.115.839.16 1.326.084.908.282 1.862.386 1.862.032 0 .08-.109.106-.242zm11.497-2.274c.48-.79.704-1.237.704-1.404 0-.114-.027-.108-.186.042-.189.177-1.07 1.822-1.165 2.174l-.052.194.16-.194c.09-.106.331-.472.539-.812zm3.06-4.05c.214-.282.083-.288-.341-.016-.379.243-1.086.955-1.086 1.093 0 .095 1.257-.855 1.426-1.077zm-14.228-.333c.216-1.215.181-4.97-.044-4.83-.114.07-.227.985-.269 2.17-.022.638-.095 1.415-.161 1.727a3.012 3.012 0 0 0 .127 1.705c.066.174.088.186.148.08.039-.07.128-.453.199-.852zm-5.157-.583c0-.028-.344-.507-.764-1.064a42.444 42.444 0 0 1-1.347-1.904c-.32-.49-.69-1.012-.82-1.161l-.238-.271-.002.26c-.003.276.662 1.946.774 1.946.036 0 .087-.035.114-.077.026-.043.076-.078.111-.078.074 0 .84 1.137 1.07 1.587.174.343.33.5.676.684.246.13.426.162.426.078zm3.575-2.755c.034-1.219-.048-2.003-.29-2.767-.314-1-.929-2.072-1.092-1.909-.076.076-.048 1.63.035 1.986.05.215.097.266.225.248.149-.02.168.037.257.774.125 1.033.586 2.539.778 2.539.035 0 .074-.392.087-.871zm2.423-1.785c.105-.515.117-.704.05-.771-.068-.068-.138-.04-.289.11-.183.182-.192.223-.115.5.046.165.083.456.084.645 0 .499.11.303.27-.484zM21.172 48.59c0-.103.305-.353.361-.296.028.028-.013.12-.09.206-.146.161-.271.203-.271.09zm19.364-1.147c.032-.17.257-.193.257-.027 0 .063-.064.127-.142.142-.104.02-.135-.012-.115-.115zm5.961-4.261c-.182-.035-.393-.366-.296-.464.03-.03.183.075.34.232.158.158.253.282.21.276a7.734 7.734 0 0 1-.254-.044zm4.204-.681c-1.248-.36-1.205-.481.057-.161.673.17 1.495.507 1.22.5-.064-.003-.639-.154-1.277-.34zm1.546-3.833c-.03-.049-.018-.125.026-.17.104-.104.347-.013.305.114-.043.13-.262.166-.33.056zm-39.303-.59a.093.093 0 0 1-.013-.108c.047-.077.346 0 .346.09 0 .078-.26.093-.333.02zm38.086-.747c-.245-.044-.445-.104-.445-.134 0-.072.757-.218 1.393-.27l.503-.04-.31.118c-.17.065-.367.188-.438.273-.07.085-.158.149-.193.143l-.51-.09zm-38.218-1.85c-.45-.098-.533-.183-.237-.243.27-.054.79.095.838.24.036.11-.104.112-.6.003zm37.431-.05c-.063-.103.316-.244.657-.244.292 0 .846.175.846.267 0 .07-1.459.048-1.503-.023zm1.773-1.714c-.026-.043.007-.078.073-.078.067 0 .121.035.121.078 0 .042-.033.077-.073.077-.04 0-.094-.035-.12-.077zm-35.488-.775c-.293-.246-.21-.304.158-.114.126.065.229.17.229.233 0 .164-.081.14-.387-.119zm-2.847-.307c-.544-.196-1.028-.495-.856-.528.133-.025 1.438.481 1.57.61.126.12-.278.075-.714-.082zm-1.607-.936c-.084-.137.005-.156.164-.035.13.099.133.113.018.115-.072 0-.154-.035-.182-.08zm2.925-3.717c-.178-.067-.227-.184-.107-.258.069-.042.37.242.313.295-.018.016-.11 0-.206-.037zm32.099-1.058c.163-.457.35-.953.415-1.102l.118-.271.006.251c.007.267.076.303.326.17a.49.49 0 0 1 .271-.059c.17.035-.408.76-.605.76-.096 0-.145.048-.136.135.008.075.01.18.005.232-.011.116-.541.717-.633.717-.035 0 .07-.375.233-.832zm-3.324-4.334c.003-.098.304-1.031.375-1.158.115-.204.165.015.077.333-.129.468-.456 1.065-.452.825zM20.95 18.686c-.127-.338-.185-.704-.102-.653.122.075.325.736.242.787-.04.025-.103-.036-.14-.134zm23.832-.895c.002-.106.144-.286.19-.241.06.061-.037.3-.122.3-.038 0-.07-.027-.068-.059zM25.048 14.86c-.17-.215-.215-.38-.083-.3.086.054.334.504.278.504-.02 0-.107-.092-.195-.204z" opacity=".2"/>
    <path d="M29.802 53.847a.985.985 0 0 0-.447-.154c-.287 0-.33-.155-.147-.515.37-.728.614-1.68.702-2.728.107-1.296.112-4.029.007-4.584-.123-.654-.42-1.195-.716-1.305a4.154 4.154 0 0 1-.384-.163c-.235-.124-.704-.076-1.11.113-.528.246-.984.652-.936.835.054.207-.258.622-.602.801-.319.166-.411.278-.826.995a5.41 5.41 0 0 1-.553.774l-.291.32.16-.426c.09-.234.198-.523.243-.643.044-.119.062-.235.039-.258-.023-.023-.512.076-1.087.22-.575.143-1.028.233-1.007.199.084-.136.693-.387 1.19-.49.288-.061.59-.133.668-.161.48-.17.957-.811.717-.963-.06-.038-.22-.07-.356-.07-.646-.003-.282-.366.812-.808 1.564-.633 2.725-1.29 2.725-1.54 0-.182-1.366-2.173-1.746-2.546-.204-.2-.47-.386-.59-.412-.26-.057-.795.176-.807.351-.004.064-.012.16-.02.214-.016.134-.475.405-.686.405-.223 0-.426.312-.447.682-.018.31-1.032 2.158-1.167 2.127-.04-.01-.09-.148-.11-.308l-.04-.29-.124.191a1.887 1.887 0 0 0-.184.385 9.76 9.76 0 0 1-.328.765c-.147.315-.305.78-.352 1.033-.084.447-.101.472-.632.878-.3.23-.686.53-.856.666l-.31.248.238-.267c.744-.83 1.187-1.626 1.392-2.497.077-.326.117-.615.09-.643-.029-.027-.248.103-.489.29-.795.617-.761.6-.7.357.076-.304-.126-.28-.9.108-.503.252-.605.284-.483.148.356-.397.865-.686 1.51-.856.79-.208 1.059-.36 1.41-.793.262-.321.835-1.29.835-1.41 0-.127-1.008.022-1.371.203-.307.152-.378.228-.422.454-.059.302-.43.662-.757.734-.111.025-.358.148-.549.274-.396.262-.471.196-.227-.2.094-.15.152-.292.13-.314-.022-.023-.174.029-.338.113-.308.16-.446.262-1.456 1.08-.331.268-.619.47-.639.45-.02-.02.054-.156.164-.301.111-.145.202-.29.202-.324 0-.032-.192-.035-.426-.006-.252.031-.426.023-.426-.02 0-.04.29-.182.644-.316.667-.252 1.45-.682 1.714-.942.15-.148.15-.15 0-.26-.141-.104-.123-.116.253-.166.252-.034.549-.147.787-.3.307-.199.62-.296 1.607-.498a29.2 29.2 0 0 0 1.472-.329c.263-.082.799-.617.799-.796 0-.144-.552-.394-1.122-.508-.256-.051-.721-.149-1.035-.217-.492-.106-.619-.109-.929-.019-.197.058-.507.11-.688.117-.246.009-.402.073-.62.256-.158.134-.602.436-.985.67-.384.235-.92.567-1.194.737-.543.338-.735.342-.335.007.405-.34.339-.417-.31-.36-.713.064-.574-.03.445-.3.724-.19 1.355-.497 1.355-.657 0-.039-.235-.095-.523-.126-.838-.088-.913-.179-.151-.184.534-.004.75-.04 1.003-.17.4-.204.832-.543.832-.652 0-.147-1.411-.715-2.09-.841l-1.341-.25c-.6-.112-.777-.116-1.45-.026-.616.081-.853.082-1.195.006-.445-.1-.549-.212-.252-.272.096-.02.314-.062.484-.095.17-.033.701-.051 1.18-.04.48.012.871-.01.871-.047 0-.09-.53-.468-1.16-.827-.699-.398-.288-.29.918.242 1.887.832 3.075 1.17 2.882.819-.04-.075-.306-.388-.59-.697-.282-.308-.482-.56-.442-.56.04 0 .416.318.838.707 1.62 1.496 1.864 1.608 3.185 1.47 1.069-.11 2.987-.383 3.153-.446.18-.07.149-.137-.28-.606-.47-.513-.869-.755-3.257-1.966-2.249-1.14-2.222-1.13-2.694-.963-.32.114-.41.117-.68.028-.37-.122-.829-.08-1.64.15-.377.107-.907.179-1.51.205-.524.023-1.067.091-1.246.156-.354.129-.738.114-.785-.03-.017-.051.05-.109.149-.128.76-.145 1.04-.222 1.143-.313.085-.074.45-.116 1.242-.142.847-.027 1.216-.072 1.503-.182.21-.081.393-.185.409-.23.015-.047-.121-.148-.303-.225a79.195 79.195 0 0 1-.99-.435c-.666-.297-1.228-.416-2.894-.612-.982-.116-1.045-.14-.822-.308l.173-.13-.26-.173-.26-.173.232.034c.128.02.842.195 1.587.392 1.512.4 1.858.44 1.858.215 0-.244-.567-.879-.878-.984-.106-.036-.13-.095-.094-.24.103-.41-.472-.973-1.878-1.84-.397-.245-.705-.462-.684-.482.02-.02.291.07.603.201.573.24.765.286.762.18-.001-.032-.193-.315-.426-.63-.233-.314-.424-.602-.424-.638 0-.093.212-.085.27.01.027.043.11.078.185.078.09 0 .294.254.588.73.248.4.67.984.939 1.296.268.312.798.967 1.179 1.457.516.665.796.953 1.107 1.14.5.3 2.027.888 2.341.901.535.023.215-.416-.76-1.043a28.756 28.756 0 0 1-.857-.567c-.153-.113-.152-.115.02-.118.095-.003.174-.03.174-.06 0-.032-.374-.432-.831-.89-.828-.831-.937-1.011-.385-.636.171.116.35.18.43.154.167-.053.696.48 1.808 1.822 1.11 1.337 1.549 1.705 2.449 2.05.874.334 1.089.454 1.873 1.046.772.583 1.082.767 1.293.767.22 0 .222-.142.01-.564-.247-.493-.736-1.1-1.058-1.31a5.45 5.45 0 0 0-.835-.398 4.008 4.008 0 0 1-1.045-.616c-.675-.555-1.094-.834-1.74-1.158-.654-.33-.96-.613-.387-.36.284.126.386.141.472.07.089-.074.215-.015.644.303.293.218.555.396.582.396.026 0 .048-.076.048-.168 0-.139.09-.081.523.334.816.783 1.726 1.33 1.967 1.18.113-.07-1.01-1.193-1.735-1.738-.33-.247-.818-.642-1.084-.877a13.418 13.418 0 0 0-1.05-.818c-.546-.375-.589-.39-1.096-.39-.679 0-1.203-.165-3.08-.97-1.525-.654-1.818-.81-1.514-.81.219 0 .613.144 1.664.61 1.057.47 1.922.705 2.586.705.545 0 .73-.048.73-.192 0-.055-.33-.414-.733-.8-.701-.67-.76-.708-1.394-.901-.425-.13-.757-.286-.931-.44-.324-.284-.353-.421-.058-.272.353.178 1.246.452 1.387.424.202-.038-.276-.543-.937-.99-.767-.517-1.698-1.27-1.609-1.3.041-.013.387.145.77.353.783.426.95.5.95.42 0-.03-.33-.456-.734-.946-.74-.896-.942-1.228-.494-.808.299.281 1.829 1.994 2.655 2.974.338.4.627.688.644.64.016-.048-.152-.534-.373-1.08-.491-1.214-.57-1.463-.427-1.344.132.11.53.922 1.13 2.307.584 1.346.98 1.918 2.02 2.927.94.911 1.64 1.423 1.682 1.228.014-.068-.241-.66-.568-1.315-.521-1.047-.678-1.285-1.289-1.964-.632-.703-1.928-2.605-1.921-2.82.005-.15.962.909 1.115 1.231.244.517.524.893.753 1.011.2.104.219.102.219-.024 0-.234-.453-1.11-.853-1.648-.209-.283-.956-1.063-1.66-1.734-.704-.672-1.28-1.253-1.28-1.291 0-.039.105-.07.234-.07.163 0 .304.076.47.251l.237.252-.045-.232c-.13-.668-.14-.772-.065-.697.043.043.171.327.285.632.267.711.717 1.337 1.185 1.648.305.202.374.223.395.12.015-.068-.029-.208-.096-.311-.068-.103-.123-.226-.123-.273 0-.105.25.2.65.796.163.245.328.446.366.446.134 0 .057-.288-.351-1.316-.229-.575-.401-1.06-.384-1.078.111-.12.88 1.397.88 1.738 0 .14.076.453.168.694.146.382.297.56 1.14 1.342.533.497 1.529 1.444 2.211 2.106 1.165 1.13 1.771 1.621 1.874 1.518.065-.064-.313-.759-.837-1.537a9.055 9.055 0 0 0-2.01-2.158c-.65-.494-1.307-1.122-1.307-1.247 0-.082.26.1.988.688.37.3.795.565.904.565.088 0 .038-.248-.106-.525-.22-.423-3.687-3.908-4.092-4.112-.93-.47-2.493-1.6-2.493-1.803 0-.12.124-.057.64.318.413.302.99.61.984.526 0-.009-.299-.325-.663-.704-.854-.89-1.449-1.75-1.21-1.75.034 0 .373.348.755.773.381.425.753.773.825.774.073 0 .468.408.884.911.413.5 1.021 1.172 1.35 1.493.623.607 1.871 1.545 2.056 1.545.326 0-.077-1.013-.769-1.93-.864-1.146-2.468-2.733-3.33-3.294-.155-.1-.206-.186-.178-.296.027-.102-.053-.267-.237-.492-.316-.385-.297-.507.042-.266.458.326.435.23-.182-.76-.277-.443-.503-.838-.503-.876 0-.119.487.257.867.67.415.448.455.394.177-.235-.107-.242-.18-.455-.161-.473.048-.049 1.003 1.4 1.713 2.598.608 1.026 1.356 1.964 1.475 1.85.073-.072-.015-.425-.444-1.798L21 18.745l-.695-.703c-.75-.757-.834-.862-.836-1.036 0-.063.168.053.38.262.248.245.423.36.502.33.08-.032.19.048.33.24.116.158.306.392.424.52.213.232.847 1.963 1.899 5.186.236.723.603 1.699.815 2.167.212.468.422.938.465 1.045l.08.193.069-.232c.146-.493-.117-2.441-.44-3.25-.15-.381-.174-.535-.127-.852l.058-.387.298.834c.285.795.33.869.966 1.553.366.395.905 1.002 1.198 1.35.808.958 1.218 1.156.789.38-.243-.437-1.47-2.255-2.66-3.942-1.044-1.478-1.742-2.732-2.219-3.985-.633-1.663-.64-1.673-1.272-1.915-.296-.113-.58-.256-.63-.317-.151-.181.438-.142.748.05.236.145.266.148.31.033.027-.07.01-.214-.039-.32-.126-.276-.11-.377.038-.254.069.057.363.592.654 1.19.503 1.03.53 1.07.533.764.003-.177-.12-.747-.271-1.267-.15-.52-.261-.984-.245-1.032.036-.108.3.688.52 1.568.528 2.106 1.936 5.192 2.703 5.924l.238.227v-.192c0-.541-.833-2.459-1.154-2.657a.642.642 0 0 1-.166-.205c-.074-.138-.062-.148.116-.103.129.032.198.017.198-.043 0-.126-.689-1.953-1.126-2.985-.646-1.527-.679-1.712-.174-.98.32.463.377.285.11-.345-.104-.249-.18-.463-.166-.477.014-.014.099.021.19.078.138.086.175.084.235-.012.09-.146.094-.142.374.5.442 1.015 1.222 2.419 1.3 2.34.037-.037-.213-.774-.733-2.159-.473-1.26-.5-1.465-.137-1.054.187.212.33.53.54 1.205.163.52.44 1.184.637 1.532.193.337.442.919.554 1.292.19.63.247.725.816 1.354a16.8 16.8 0 0 1 1.162 1.482c.303.442.565.763.582.712.12-.363-1.443-4.023-2.273-5.322-.14-.22-.57-.743-.956-1.161-.674-.733-.977-1.18-.918-1.355.015-.046.181.117.37.36.4.52.998 1.006 1.105.9.123-.123-.154-.798-.496-1.21-.29-.351-.305-.388-.16-.41a.229.229 0 0 0 .187-.194c.023-.145.05-.125.19.142.09.17.242.571.338.89.095.319.275.806.4 1.082.193.432.237.483.305.362.057-.1.053-.29-.012-.635-.051-.27-.077-.537-.058-.593.02-.056.079.108.131.363.31 1.516.753 2.939.853 2.74.09-.182-.053-1.776-.216-2.391-.226-.855-.475-1.471-.592-1.471-.266 0-.702-.819-.895-1.68-.107-.474-.035-.512.15-.078.118.273.185.345.296.315.111-.029.163-.16.23-.582.127-.807.256-.857.257-.1.003.674.145 1.47.34 1.893.07.15.111.195.094.1-.035-.19.138-.482.231-.389.076.076.152.686.301 2.417.146 1.691.207 2.052.5 2.944l.229.694-.04-.619c-.023-.34-.074-.897-.113-1.236a9.16 9.16 0 0 1-.067-.813c.004-.19.009-.188.127.05.067.135.183.26.256.28.097.025.158.174.221.535a6.5 6.5 0 0 1 .088.648c.001.082.034.2.074.264.1.157.398-.519.403-.914.003-.16-.173-.812-.39-1.449-.218-.637-.463-1.512-.546-1.944-.179-.938-.3-1.197-.761-1.632-.287-.27-.332-.348-.255-.441.118-.142.042-.275-.156-.275-.192 0-.19-.094.003-.269.148-.134.16-.126.445.335.212.342.328.461.42.432.141-.044.226.17.534 1.34.093.351.195.638.227.638s.081-.235.108-.522c.039-.405.006-.73-.144-1.446-.106-.507-.179-.937-.16-.955.054-.055.253.387.394.873.073.255.24.673.372.928.325.633.354.389.095-.815-.22-1.022-.234-1.159-.125-1.159.04 0 .147.253.237.562.436 1.508.954 3.123 1.023 3.192.159.16-.036-1.246-.3-2.164-.366-1.273-.369-1.291-.143-.87.155.29.231.362.342.327.126-.04.157.038.27.673.254 1.448.503 3.534.554 4.666.064 1.388.111 1.322.38-.53.253-1.735.247-2.102-.052-3.313-.181-.731-.224-1.02-.16-1.083.062-.063.11.04.179.39.146.742.241.701.347-.147.029-.234.074-.46.099-.502.074-.124.152.27.162.812.013.695.107.812.275.337.074-.207.172-.463.22-.57.086-.191.087-.19.115.076.037.351-.26 1.469-.539 2.032-.205.414-.297.989-.157.989.09 0 .957-.646 1.137-.848.14-.158.159-.315.194-1.67.021-.822.065-1.52.097-1.553.13-.129.175.104.2 1.02.02.8.045.96.144.96.136 0 .127.075-.12 1.084-.253 1.038-.336 1.717-.392 3.218-.05 1.317-.065 1.422-.262 1.798-.293.56-.28.73.034.436l.242-.227-.054.348c-.03.192-.08.593-.11.89a3.084 3.084 0 0 1-.308 1.054c-.401.819-.506 2.203-.447 5.913.076 4.702.129 5.893.255 5.72.285-.389.714-2.235.88-3.785.05-.469.259-1.705.465-2.748.638-3.225.709-4.23.614-8.675-.105-4.878-.11-6.65-.017-6.741.113-.114.146.047.255 1.274.124 1.39.187 1.445.384.34.052-.291.123-.5.157-.465.16.164.078 1.585-.196 3.392-.13.858-.157 2.49-.043 2.67.055.087.136-.022.34-.465.53-1.147.9-2.859.9-4.17 0-.59.018-.665.19-.825.132-.122.206-.296.243-.57.055-.415.187-.544.186-.181-.002.5-.178 1.71-.46 3.154-.167.851-.342 1.763-.388 2.026a5.014 5.014 0 0 1-.304.968c-.253.567-.33.837-.239.837.117 0 .388-.448.833-1.374.365-.758.442-.873.465-.692.035.28-.21 1.037-.687 2.112-.21.472-.378.96-.374 1.083l.007.226.107-.246c.123-.279.234-.373.305-.258.027.043.077.078.113.078.035 0 .32-.41.632-.91 1.022-1.635 1.32-2.797 1.034-4.044-.193-.848-.22-1.083-.125-1.083.046 0 .132-.093.192-.207.1-.193.112-.149.162.638.029.465.073.965.098 1.11.041.242.054.252.148.125.056-.077.16-.405.23-.729.177-.806.208-.844.379-.457l.145.329-.265.773c-.146.425-.679 1.627-1.185 2.672a123.128 123.128 0 0 0-1.225 2.592l-.306.692-.016 1.146c-.012.856.008 1.146.079 1.146.051 0 .262-.214.467-.475.5-.637.528-.43.073.539-.193.412-.372.86-.399.995-.033.172-.247.448-.704.909-.517.52-.716.786-.926 1.242-.283.613-.422 1.106-.289 1.023.043-.026.3-.384.57-.795.271-.411.504-.716.517-.677.013.04-.047.275-.132.525-.214.62-.2.76.043.468.95-1.135 2.931-5.327 3.317-7.016.062-.27.222-1.206.356-2.079.3-1.954.47-2.799.727-3.6.354-1.103.475-1.058.208.078-.208.885-.267 1.355-.169 1.355.045 0 .22-.27.388-.6.169-.33.308-.567.31-.527.003.04-.069.332-.158.649-.126.45-.14.59-.064.636.074.046.056.155-.079.473-.097.228-.24.483-.317.569-.078.085-.18.257-.228.383-.105.278-.388 1.902-.388 2.23 0 .235 0 .235.163.088.09-.08.516-.575.947-1.097.432-.523.796-.917.81-.876.032.096-.14.367-.692 1.09-.523.687-.983 1.433-1.05 1.703-.026.107-.234.397-.462.645-.486.527-.56.664-1.144 2.103a28.319 28.319 0 0 1-.991 2.129c-.981 1.858-1.142 2.2-1.218 2.593a9.21 9.21 0 0 1-.124.56c-.028.097-.018.175.02.175.164 0 .92-.524 1.125-.78.225-.28.838-1.707 1.129-2.626l.553-1.757c.217-.69.434-1.278.481-1.307.147-.091 0 .627-.331 1.622-.169.505-.296.948-.284.985.013.037.281-.394.597-.957 2.003-3.569 2.358-4.307 2.837-5.9.192-.636.21-.8.201-1.896-.009-1.178.079-1.724.188-1.18.077.382.15.366.332-.072.09-.22.18-.383.2-.364.03.031-.035.874-.153 1.964l-.042.387.27-.465c.149-.255.415-.795.592-1.2.177-.404.35-.765.384-.802.034-.037.104.072.155.244.086.286.078.332-.096.57-.194.264-.76 1.465-.76 1.611 0 .14.2.088.364-.094.086-.095.332-.436.546-.757.412-.619.72-.949.61-.655-.159.425-.798 1.486-1.1 1.826-.188.212-.342.446-.342.52 0 .202-.21.463-.54.672-.243.153-.387.366-.811 1.2-.284.557-.85 1.525-1.26 2.151a15.083 15.083 0 0 0-1.237 2.261c-.27.617-.757 1.654-1.082 2.303-.324.65-.569 1.202-.543 1.228.081.081.576-.273.922-.66.183-.204.748-.977 1.256-1.717.508-.741 1.057-1.5 1.219-1.687.594-.682 1.388-1.942 1.58-2.504.215-.633.341-.818.341-.5 0 .115.033.209.072.209.08 0 1.065-1.285 1.306-1.705.085-.148.212-.47.28-.714.124-.436.277-.597.277-.29 0 .172.152.204.295.062.072-.073.092-.065.092.035 0 .07.058.16.129.2.116.064.113.092-.04.307a2.92 2.92 0 0 1-.537.506c-.506.372-1.261 1.289-2.057 2.498-.82 1.247-.845 1.372-.198 1.027.54-.288 1.366-1.025 1.848-1.65.183-.237.357-.43.387-.43.03 0 .039.108.02.242l-.036.243.339-.185c.187-.102.63-.474.986-.826.576-.571.658-.628.743-.511.156.212.478.07 1.034-.458.277-.264.478-.41.445-.325-.033.085-.094.25-.136.365-.042.116-.243.33-.446.477-.339.243-.37.293-.363.57.01.398-.19.692-.594.868-.42.183-.724.513-1.203 1.305-.382.634-.769 1.604-.676 1.697.026.026.187-.03.357-.126.17-.095.308-.141.308-.102 0 .04-.122.231-.27.426-.298.39-.426.67-.426.932 0 .093-.087.298-.194.455-.243.358-.242.4.012.335.306-.076.806-.446 1.099-.812.221-.276.272-.306.348-.204.078.104.175.076.77-.219.374-.185.745-.395.824-.467.103-.093.219-.117.404-.084.574.102.994-.428 1.471-1.855.185-.555.327-.86.407-.877.185-.038.154.2-.149 1.137-.326 1.008-.328 1.034-.077.971.273-.069.24.03-.157.457-.19.205-.346.414-.346.464 0 .05-.103.284-.23.518-.125.234-.23.473-.231.53-.003.059.412-.324.92-.85.894-.926 1.24-1.153.84-.552-.106.16-.355.47-.553.69-.56.621-.449.661.417.15l.578-.342.184.193c.1.107.153.222.116.256-.037.034-.294.1-.57.147-.656.111-1.283.532-1.52 1.018-.194.397-.524.708-.686.646-.074-.029-.285.142-.6.485-.266.29-.824.856-1.239 1.256-.415.4-.754.752-.754.784 0 .031.293.08.652.11.727.059.945 0 1.558-.422.295-.203.35-.22.33-.1-.022.126.026.14.428.126.56-.02 1.057-.18 1.636-.529.245-.147.459-.268.475-.268.016 0 .03.074.03.165 0 .154.026.161.4.112.35-.047.388-.04.303.063-.2.24-.754.426-1.517.51-.425.046-.904.119-1.064.162-.61.164-.216.345.735.34.496-.004.6.017.6.117 0 .067.056.202.124.3.069.097.102.198.075.225-.027.027-.335-.045-.685-.16-.693-.227-1.589-.392-2.16-.397-.275-.003-.402.037-.518.16-.137.148-.193.158-.526.093-.517-.102-.956-.03-1.436.235-.485.267-.814.355-.94.25-.14-.116-.718.172-.785.392-.067.224-.573.762-.716.762-.075 0-.098.091-.08.325.03.413.09.431 1.416.44.641.004 1.205.053 1.554.135.71.166 1.12.103 1.877-.29l.591-.305-.308.316-.308.316.31.006c.17.003 1.076.01 2.012.015 1.14.006 1.753.039 1.855.1.14.082.13.093-.116.137-.147.026-.738.037-1.313.026l-1.045-.022-.465.328c-.342.241-.744.417-1.528.668-.586.187-1.064.329-1.064.315 0-.114.807-.599 1.224-.736.532-.174.71-.272.71-.39 0-.038-.584-.068-1.299-.068s-1.716-.052-2.225-.116a15.22 15.22 0 0 0-1.33-.116c-.374 0-.414.018-.528.237-.067.13-.242.308-.389.395-.363.214-.374.546-.024.727.27.14 1.713.46 2.434.54.416.046.517.028.89-.159l.42-.211-.184.199c-.237.256-.174.404.197.465.704.117 1.059.064 1.54-.229.253-.153.605-.342.782-.42.334-.145 1.032-.281 1.032-.2 0 .025-.182.139-.406.252-.44.223-.91.555-.91.645 0 .07 1.25.29 2.013.353.761.064.819.083.694.234-.08.095-.078.155.004.309.056.105.086.206.067.225-.02.02-.347-.093-.729-.25-.625-.255-.773-.285-1.481-.3a9.83 9.83 0 0 1-1.234-.099 7.175 7.175 0 0 0-1.059-.082c-.4 0-1.188-.111-2.264-.32-.97-.186-1.735-.298-1.852-.268-.36.09-1.305 1.075-1.695 1.764-.197.349-.359.66-.359.693 0 .11.572.212 2.129.38 1.565.167 2.175.163 3.061-.019.374-.076.48-.069.813.06l.383.148-1.045.042c-.575.024-1.115.082-1.2.13-.148.084-.146.091.057.168.448.17 2.697.627 3.088.627.037 0 .067.033.067.072 0 .04-.191.096-.425.125-.234.03-.426.085-.426.123 0 .039.253.235.563.437.415.27.751.414 1.277.55.507.13.714.217.714.3 0 .095-.071.11-.376.073-.391-.046-1.17-.366-2.778-1.14-.839-.404-.948-.44-.948-.305 0 .191-.039.19-.316-.007-1.243-.885-3.753-1.278-5.168-.81-.616.205-.786.308-.786.48 0 .06.222.418.493.796.271.377.617.908.768 1.178.32.571.453.707.863.879.374.156.982.158 2.178.006.906-.114 1.271-.103 1.271.038 0 .038-.085.069-.189.069-.272 0-.305.117-.074.269.162.106.19.17.148.337a1.044 1.044 0 0 1-.076.23c-.014.014-.211-.073-.44-.193-.353-.186-.504-.217-1.033-.217-.65 0-1.045.071-1.045.189 0 .038.114.218.252.399.185.242.465.444 1.057.76.765.41 1.649 1.096 1.546 1.201-.026.027-.334-.163-.683-.423-.35-.259-.723-.504-.828-.544-.23-.087-.593-.097-.556-.015l.31.656c.372.784.41.911.275.911-.121 0-.183-.074-1.522-1.819-.994-1.294-1.38-1.741-1.502-1.741-.042 0-.056.228-.033.542.043.61.393 1.402 1.178 2.663.236.38.429.728.428.774 0 .046-.404-.323-.897-.82-.493-.497-.94-.92-.994-.941-.07-.027-.111-.37-.144-1.186-.052-1.274-.185-1.948-.501-2.529-.45-.827-1.081-.891-1.848-.19-.54.495-1.498 1.671-1.498 1.84 0 .082.186.307.42.51.252.217.403.404.379.469-.055.141.93 1.114 1.698 1.679.33.242.6.458.6.479 0 .122-.42 0-.798-.233l-.881-.542c-.243-.149-.509-.27-.591-.27-.252 0-.121.498.442 1.68.282.589.512 1.114.512 1.166 0 .194-.146.083-.39-.295-.228-.357-.39-.705-1.269-2.714-.372-.854-.575-1.115-.805-1.042-.55.175-1.625 2.965-1.838 5.224-.138 1.46.064 2.489.639 3.267.193.262.146.393-.2.557-.231.11-.58.129-2.464.128-2.06 0-2.008-.01-2.226-.154zm4.296-9.452c.305-.472.443-.895.36-1.108-.023-.062-.129-.169-.235-.238-.152-.1-.226-.108-.356-.039-.231.124-.31.39-.31 1.045 0 .967.096 1.028.54.34zm-4.508-2.682c-.058-.834-.2-1.145-.575-1.258a1.655 1.655 0 0 0-.536-.063l-.24.026.085.33c.058.226.255.529.616.95.293.339.568.616.611.616.051 0 .065-.214.039-.6zm5.36.292c0-.261-.111-.305-.226-.09-.053.099-.05.171.012.233.147.147.213.102.213-.143zm2.296-1.057c1.001-.759 2.75-2.322 3.18-2.84.42-.508.431-.637.042-.475-.157.066-.329.103-.38.083-.13-.05-1.26.505-1.905.933-.358.238-.525.398-.525.504 0 .086-.152.353-.338.594-.426.553-.752 1.484-.519 1.484.04 0 .24-.128.445-.283zm-2.953-.31c.17-.114.595-.433.945-.709.539-.424.66-.563.785-.896.198-.53.32-1.363.32-2.183v-.674l-.164.147c-.252.227-1.257 1.585-1.577 2.13-.284.485-.675 1.55-.77 2.1-.062.357.029.374.46.084zm-8.732-.726c.204-.044.423-.112.487-.152.103-.064.103-.084 0-.184-.064-.061-.336-.204-.606-.316l-.49-.203-.899.124c-.494.068-.932.145-.972.17-.09.055.507.292 1.226.487.64.172.764.18 1.254.074zm3.341-.2c.462-.093.29-.5-.735-1.739a7.473 7.473 0 0 0-1.802-1.608c-.52-.336-.778-.394-.932-.209-.125.151.032.491.882 1.901.895 1.484.994 1.609 1.3 1.647.437.054 1.037.058 1.287.008zm1.507-.943c-.032-1.36-1.298-3.875-2.687-5.337-.296-.311-.966-.876-1.488-1.254-.532-.384-1.62-1.313-2.468-2.105-1.773-1.658-2.285-2.046-2.285-1.73 0 .344 1.405 3.429 2.077 4.561.716 1.206 1.226 1.799 1.61 1.87.147.028.287.032.31.008.051-.05-.255-.507-1.063-1.584-.633-.844-1.15-1.75-1.053-1.846.143-.143 1.344 1.34 2.262 2.796.16.256.784.97 1.384 1.587 1.273 1.31 1.896 2.01 2.676 3.005.65.832.744.836.725.029zm7.192-.528c.138-.07.721-.425 1.296-.788 1.19-.751 2.09-1.202 2.709-1.356.372-.093.443-.142.564-.394.076-.158.146-.415.155-.572l.016-.286-.627-.067c-.606-.066-.643-.06-1.124.17-.274.13-.65.271-.834.313-.377.084-.798.447-1.194 1.027-.135.198-.55.68-.923 1.072-.529.557-.677.762-.677.935 0 .206.015.217.194.15.107-.041.307-.133.445-.204zm-2.598-2.603c.511-.537 1.358-1.735 1.665-2.355.267-.54.33-.752.367-1.258.038-.53.029-.6-.072-.54-.218.127-.466.366-.466.447 0 .044-.211.317-.47.607-.72.805-.948 1.34-1.352 3.177-.053.241.048.218.328-.078zm-4.452-.695a60.3 60.3 0 0 1-.13-1.323c-.06-.717-.357-1.616-.702-2.116-.483-.702-1.643-1.338-2.796-1.531l-.324-.055.144.394c.192.525 3.748 5.572 3.853 5.468.023-.023.003-.4-.045-.837zm11.973-.706c.19-.238 1.094-3.35 1.094-3.769 0-.3-.08-.326-.401-.127-.38.235-.935.917-1.272 1.562-.156.298-.507.87-.78 1.27-.569.833-.568.837.17 1.038.748.205 1.04.211 1.189.026zm-3.072-.513c.611-.001.693-.02.913-.205.149-.125.413-.551.682-1.1.376-.768.444-.974.47-1.423.029-.518.027-.524-.169-.524-.377 0-2.02 1.646-2.308 2.313-.08.187-.25.47-.377.63-.276.349-.287.418-.056.357.095-.026.476-.048.845-.048zM38.2 32.319c.507-.308 2.248-1.79 2.83-2.408.42-.446.67-.802.908-1.286.18-.368.478-.867.662-1.11.198-.26.485-.815.704-1.358.204-.505.411-.995.461-1.088.152-.283-.076-.21-.617.198-.268.202-.67.472-.891.6-.37.213-.51.392-1.697 2.165-.791 1.183-1.38 1.986-1.517 2.07-.123.074-.224.186-.224.248s-.145.28-.322.485c-.338.39-.635.973-.712 1.398-.054.302.031.32.415.086zm6.872-.928c.31-.356.597-.66.638-.674.123-.042.087.203-.076.522-.083.164-.13.318-.105.344.116.116.868-.43 1.493-1.083.682-.713 1.582-1.965 1.83-2.547.154-.36.348-1.136.298-1.186-.098-.098-1.384.345-1.971.679-.362.206-.902.502-1.2.658-.696.364-.866.51-1.015.872-.067.163-.296.581-.51.93-.346.568-.4.721-.533 1.497-.081.475-.127.897-.102.938.091.148.702-.315 1.252-.95zm-14.154-1.098c.215-1.113.205-1.343-.089-2.089-.298-.757-1.885-3.969-2.21-4.472-.244-.378-1.31-1.235-1.835-1.475a1.79 1.79 0 0 0-.61-.143c-.297-.002-.3.001-.254.25.066.36.803 1.791 1.815 3.526.48.824 1.294 2.34 1.808 3.37.514 1.028.971 1.916 1.017 1.971.123.152.173.02.358-.938zm-2.316-.816c0-.287-3.451-4.191-3.705-4.191-.108 0-.157.8-.084 1.38.08.64.42 1.71.648 2.046.248.364.63.513 1.718.67 1.17.168 1.423.185 1.423.095zm3.667-.33c.076-.38.057-2.138-.033-3.02-.18-1.77-.465-2.685-1.543-4.943-.416-.873-.782-1.704-.812-1.846-.033-.154-.084-.231-.125-.19-.156.156-.377 1.5-.393 2.393l-.017.92.598 1.587c.616 1.637.709 1.845.784 1.77.025-.025.067-.33.093-.678.027-.348.077-.65.112-.672.133-.083.548.967.684 1.732.043.242.115.839.16 1.326.084.908.282 1.862.386 1.862.032 0 .08-.109.106-.242zm11.497-2.274c.48-.79.704-1.236.704-1.404 0-.114-.027-.108-.186.042-.189.177-1.07 1.822-1.165 2.174l-.052.194.16-.194c.09-.106.331-.472.539-.812zm3.06-4.05c.214-.282.083-.288-.341-.016-.379.243-1.086.955-1.086 1.093 0 .095 1.257-.855 1.426-1.077zm-14.228-.333c.216-1.215.181-4.97-.044-4.83-.114.07-.227.985-.269 2.17-.022.638-.095 1.415-.161 1.727a3.012 3.012 0 0 0 .127 1.705c.066.174.088.186.148.08.039-.07.128-.453.199-.852zm-5.157-.583c0-.028-.344-.507-.764-1.064a42.444 42.444 0 0 1-1.347-1.904c-.32-.49-.69-1.012-.82-1.161l-.238-.27-.002.26c-.003.275.662 1.945.774 1.945.036 0 .087-.035.114-.077.026-.043.076-.078.111-.078.074 0 .84 1.137 1.07 1.587.174.343.33.5.676.684.246.13.426.163.426.078zm3.575-2.755c.034-1.219-.048-2.003-.29-2.767-.314-1-.929-2.072-1.092-1.909-.076.076-.048 1.63.035 1.986.05.215.097.266.225.248.149-.02.168.037.257.774.125 1.034.586 2.539.778 2.539.035 0 .074-.392.087-.871zm2.423-1.785c.105-.515.117-.704.05-.771-.068-.068-.138-.04-.289.11-.183.183-.192.223-.115.5.046.166.083.456.084.646 0 .498.11.302.27-.485zM21.172 47.59c0-.103.305-.353.361-.296.028.028-.013.12-.09.206-.146.161-.271.203-.271.09zm19.364-1.147c.032-.17.257-.193.257-.027 0 .063-.064.127-.142.142-.104.02-.135-.012-.115-.115zm5.961-4.261c-.182-.035-.393-.366-.296-.464.03-.03.183.075.34.233.158.157.253.281.21.275a7.734 7.734 0 0 1-.254-.044zm4.204-.681c-1.248-.36-1.205-.481.057-.161.673.17 1.495.507 1.22.5-.064-.002-.639-.154-1.277-.339zm1.546-3.833c-.03-.049-.018-.125.026-.17.104-.104.347-.013.305.114-.043.13-.262.166-.33.056zm-39.303-.589a.093.093 0 0 1-.013-.109c.047-.077.346 0 .346.09 0 .079-.26.093-.333.02zm38.086-.748c-.245-.044-.445-.104-.445-.134 0-.072.757-.218 1.393-.27l.503-.04-.31.118c-.17.065-.367.188-.438.273-.07.085-.158.149-.193.143l-.51-.09zm-38.218-1.85c-.45-.098-.533-.183-.237-.243.27-.053.79.095.838.24.036.11-.104.112-.6.003zm37.431-.05c-.063-.103.316-.244.657-.244.292 0 .846.175.846.267 0 .07-1.459.048-1.503-.023zm1.773-1.714c-.026-.043.007-.078.073-.078.067 0 .121.035.121.078 0 .042-.033.077-.073.077-.04 0-.094-.035-.12-.077zm-35.488-.774c-.293-.246-.21-.305.158-.115.126.065.229.17.229.233 0 .164-.081.14-.387-.118zm-2.847-.308c-.544-.196-1.028-.495-.856-.528.133-.025 1.438.481 1.57.61.126.121-.278.075-.714-.082zm-1.607-.936c-.084-.136.005-.156.164-.035.13.099.133.113.018.115-.072.001-.154-.035-.182-.08zm2.925-3.717c-.178-.067-.227-.184-.107-.258.069-.042.37.242.313.295-.018.016-.11 0-.206-.037zm32.099-1.057c.163-.458.35-.954.415-1.103l.118-.271.006.251c.007.267.076.303.326.17a.49.49 0 0 1 .271-.059c.17.035-.408.76-.605.76-.096 0-.145.049-.136.136.008.074.01.178.005.232-.011.115-.541.716-.633.716-.035 0 .07-.375.233-.832zm-3.324-4.335c.003-.097.304-1.031.375-1.158.115-.204.165.015.077.333-.129.468-.456 1.066-.452.825zM20.95 17.686c-.127-.338-.185-.704-.102-.653.122.076.325.736.242.787-.04.025-.103-.036-.14-.134zm23.832-.895c.002-.106.144-.286.19-.24.06.06-.037.298-.122.298-.038 0-.07-.026-.068-.058zM25.048 13.86c-.17-.215-.215-.38-.083-.299.086.053.334.503.278.503-.02 0-.107-.092-.195-.204z" fill="#F9F5D7"/>
    <path d="M6.8 4C5.25 4 4 5.25 4 6.8v1C4 6.25 5.25 5 6.8 5h50.4C58.75 5 60 6.25 60 7.8v-1C60 5.25 58.75 4 57.2 4H6.8z" opacity=".1" fill="#F9F5D7"/>
</svg>
