<svg xmlns="http://www.w3.org/2000/svg" width="64" height="64" version="1">
    <path d="M4 50v2c0 1.662 1.338 3 3 3h50c1.662 0 3-1.338 3-3v-2c0 1.662-1.338 3-3 3H7c-1.662 0-3-1.338-3-3z" opacity=".2"/>
    <rect width="44" height="56" x="-54" y="-60" rx="3" ry="3" transform="matrix(0 -1 -1 0 0 0)" fill="#066678"/>
    <rect width="36" height="48" x="-50" y="-56" rx="0" ry="0" transform="matrix(0 -1 -1 0 0 0)" opacity=".2"/>
    <path d="M7 10c-1.662 0-3 1.338-3 3v1c0-1.662 1.338-3 3-3h50c1.662 0 3 1.338 3 3v-1c0-1.662-1.338-3-3-3H7z" opacity=".1" fill="#F9F5D7"/>
    <path d="M63.958 45.852A16 16 0 0 1 48 61.004a16 16 0 0 1-15.958-14.848A16 16 0 0 0 32 47a16 16 0 0 0 16 16 16 16 0 0 0 16-16 16 16 0 0 0-.043-1.148z" opacity=".2" fill-rule="evenodd"/>
    <circle cx="48" cy="46" r="16" fill="#48B9C7"/>
    <path d="M45 38l-1 1h-3.469C39.001 39 39 40.5 39 40.5v11c0 1.506 1.531 1.5 1.531 1.5H55.5c1.5 0 1.5-1.5 1.5-1.5v-11c0-1.5-1.5-1.5-1.5-1.5H52l-1-1h-6zm3 3a5 5 0 1 1 0 10 5 5 0 0 1 0-10zm0 2a3 3 0 1 0 0 6 3 3 0 0 0 0-6z" fill="#F9F5D7"/>
</svg>
