<svg xmlns="http://www.w3.org/2000/svg" width="64" height="64">
    <path d="M33.07 5.02a28 28 0 0 0-8.316.934 28 28 0 0 0-19.8 34.292 28 28 0 0 0 34.292 19.8 28 28 0 0 0 19.8-34.292A28 28 0 0 0 33.07 5.02z" opacity=".2"/>
    <path d="M33.07 4.02a28 28 0 0 0-8.316.933 28 28 0 0 0-19.8 34.293 28 28 0 0 0 34.292 19.8 28 28 0 0 0 19.8-34.292A28 28 0 0 0 33.07 4.02z" fill="#8F3F71"/>
    <path d="M40.14 16.002a6.786 6.786 0 0 0-3.794 1.276c-1.272.928-2.173 2.264-3.164 3.488-.496.612-1.023 1.204-1.631 1.703-.609.5-1.289 1.01-2.063 1.112-1.561.206-3.187-.59-4.6-1.083-1.468-.562-2.915-1.268-4.478-1.433-2.157-.228-4.402.67-5.81 2.326-1.41 1.656-1.943 4.522-1.381 6.625.561 2.103 2.201 3.885 4.246 4.611 2.044.727 4.435.377 6.19-.904 1.27-.928 2.172-2.264 3.163-3.488 1.06-1.32 2.174-2.619 3.694-3.215.726-.285 1.564-.202 2.34-.074.775.127 1.525.377 2.26.658 1.468.562 2.915 1.266 4.478 1.432 2.157.228 4.402-.669 5.81-2.325 1.41-1.655 1.943-3.623 1.381-5.726-.561-2.104-2.201-3.885-4.246-4.612a6.616 6.616 0 0 0-2.394-.37zm.815 15a4.978 4.978 0 0 0-2.789.94c-.935.684-1.599 1.668-2.328 2.57-.365.451-.752.888-1.2 1.256-.447.368-.957.668-1.515.818-.558.15-1.148.147-1.719.053-.57-.094-1.124-.275-1.664-.482-1.08-.415-2.141-.935-3.29-1.057a5.008 5.008 0 0 0-4.272 1.713 5.081 5.081 0 0 0-1.016 4.514c.413 1.55 1.618 2.863 3.121 3.398a5 5 0 0 0 4.551-.666c.935-.684 1.599-1.668 2.328-2.57.365-.451.752-.888 1.2-1.256.447-.368.957-.668 1.515-.819.558-.15 1.148-.146 1.719-.052.57.094 1.124.275 1.664.482 1.08.415 2.141.935 3.29 1.057a5.008 5.008 0 0 0 4.272-1.713 5.081 5.081 0 0 0 1.016-4.514c-.413-1.55-1.618-2.863-3.121-3.398a4.86 4.86 0 0 0-1.762-.274zM30.271 46.006a3.444 3.444 0 0 0-.677.112 3.543 3.543 0 0 0-2.127 1.63 3.546 3.546 0 0 0-.35 2.659 3.543 3.543 0 0 0 1.631 2.127 3.546 3.546 0 0 0 2.658.35 3.543 3.543 0 0 0 2.127-1.632 3.546 3.546 0 0 0 .35-2.658 3.543 3.543 0 0 0-1.631-2.127 3.548 3.548 0 0 0-1.98-.46z" opacity=".2"/>
    <path d="M40.14 15.002a6.786 6.786 0 0 0-3.794 1.275c-1.272.928-2.173 2.264-3.164 3.489-.496.612-1.023 1.203-1.631 1.703-.609.5-1.289 1.009-2.063 1.111-1.561.206-3.187-.589-4.6-1.082-1.468-.562-2.915-1.268-4.478-1.434-2.157-.228-4.402.671-5.81 2.327-1.41 1.655-1.943 4.521-1.381 6.625.561 2.103 2.201 3.884 4.246 4.611 2.044.727 4.435.376 6.19-.904 1.27-.928 2.172-2.264 3.163-3.489 1.06-1.32 2.174-2.618 3.694-3.214.726-.285 1.564-.202 2.34-.075.775.128 1.525.377 2.26.659 1.468.562 2.915 1.266 4.478 1.431 2.157.228 4.402-.668 5.81-2.324 1.41-1.656 1.943-3.623 1.381-5.727-.561-2.103-2.201-3.884-4.246-4.611a6.616 6.616 0 0 0-2.394-.371zm.815 15a4.978 4.978 0 0 0-2.789.94c-.935.683-1.599 1.668-2.328 2.57-.365.45-.752.887-1.2 1.256-.447.368-.957.667-1.515.818-.558.15-1.148.146-1.719.053-.57-.094-1.124-.276-1.664-.483-1.08-.414-2.141-.934-3.29-1.056a5.008 5.008 0 0 0-4.272 1.712 5.081 5.081 0 0 0-1.016 4.514c.413 1.55 1.618 2.863 3.121 3.399a5 5 0 0 0 4.551-.666c.935-.684 1.599-1.669 2.328-2.57.365-.452.752-.888 1.2-1.257.447-.368.957-.667 1.515-.818.558-.15 1.148-.146 1.719-.053.57.094 1.124.276 1.664.483 1.08.414 2.141.934 3.29 1.056a5.008 5.008 0 0 0 4.272-1.712 5.081 5.081 0 0 0 1.016-4.514c-.413-1.55-1.618-2.863-3.121-3.399a4.86 4.86 0 0 0-1.762-.273zM30.271 45.006a3.444 3.444 0 0 0-.677.111 3.543 3.543 0 0 0-2.127 1.631 3.546 3.546 0 0 0-.35 2.658 3.543 3.543 0 0 0 1.631 2.127 3.546 3.546 0 0 0 2.658.35 3.543 3.543 0 0 0 2.127-1.631 3.546 3.546 0 0 0 .35-2.658 3.543 3.543 0 0 0-1.631-2.127 3.548 3.548 0 0 0-1.98-.461z" fill="#F9F5D7"/>
    <path d="M32 4A28 28 0 0 0 4 32a28 28 0 0 0 .021.586A28 28 0 0 1 32 5a28 28 0 0 1 27.979 27.414A28 28 0 0 0 60 32 28 28 0 0 0 32 4z" opacity=".1" fill="#F9F5D7"/>
</svg>
