<svg xmlns="http://www.w3.org/2000/svg" width="64" height="64" version="1">
    <path d="M32 5C16.488 5 4 17.488 4 33s12.488 28 28 28 28-12.488 28-28S47.512 5 32 5z" opacity=".2"/>
    <path d="M32 4C16.488 4 4 16.488 4 32s12.488 28 28 28 28-12.488 28-28S47.512 4 32 4z" fill="#066678"/>
    <circle cx="32" cy="33" r="8" opacity=".2"/>
    <circle cx="32" cy="32" r="8" fill="#FECE4F"/>
    <path d="M48.516 10.394l-4.032 6.981-3.058 5.297A14 14 0 0 1 46 33a14 14 0 0 1-.66 4.238l5.281 3.051A20 20 0 0 0 52 33a20 20 0 0 0-3.285-10.953l4.336-7.508a27.959 27.959 0 0 0-4.535-4.145zM13.539 11.95a27.959 27.959 0 0 0-4.144 4.535l6.98 4.032 5.297 3.058A14 14 0 0 1 32 19a14 14 0 0 1 4.238.66l3.051-5.281A20 20 0 0 0 32 13a20 20 0 0 0-10.953 3.285l-7.508-4.336zm-.16 13.762A20 20 0 0 0 12 33a20 20 0 0 0 3.285 10.953l-3.629 6.285a27.97 27.97 0 0 0 4.637 3.969l3.223-5.582 3.058-5.297A14 14 0 0 1 18 33a14 14 0 0 1 .66-4.238L13.38 25.71zm28.95 16.715A14 14 0 0 1 32 47a14 14 0 0 1-4.238-.66L24.71 51.62A20 20 0 0 0 32 53a20 20 0 0 0 10.953-3.285l6.074 3.508a27.969 27.969 0 0 0 4.524-4.317l-5.926-3.422-5.297-3.058z" opacity=".2"/>
    <path d="M48.516 9.395l-4.032 6.98-3.058 5.297A14 14 0 0 1 46 32a14 14 0 0 1-.66 4.238l5.281 3.051A20 20 0 0 0 52 32a20 20 0 0 0-3.285-10.953l4.336-7.508a27.959 27.959 0 0 0-4.535-4.144zm-34.977 1.554a27.959 27.959 0 0 0-4.144 4.535l6.98 4.032 5.297 3.058A14 14 0 0 1 32 18a14 14 0 0 1 4.238.66l3.051-5.281A20 20 0 0 0 32 12a20 20 0 0 0-10.953 3.285l-7.508-4.336zm-.16 13.762A20 20 0 0 0 12 32a20 20 0 0 0 3.285 10.953l-4.336 7.508a27.959 27.959 0 0 0 4.535 4.144l4.032-6.98 3.058-5.297A14 14 0 0 1 18 32a14 14 0 0 1 .66-4.238L13.38 24.71zm28.95 16.715A14 14 0 0 1 32 46a14 14 0 0 1-4.238-.66L24.71 50.62A20 20 0 0 0 32 52a20 20 0 0 0 10.953-3.285l7.508 4.336a27.959 27.959 0 0 0 4.144-4.535l-6.98-4.032-5.297-3.058z" fill="#8F3F71"/>
    <path d="M32 4C16.488 4 4 16.488 4 32c0 .113.011.224.018.336C4.369 17.134 16.71 5 32 5c15.29 0 27.63 12.134 27.982 27.336.007-.112.018-.223.018-.336C60 16.488 47.512 4 32 4z" opacity=".1" fill="#F9F5D7"/>
</svg>
