<svg xmlns="http://www.w3.org/2000/svg" width="64" height="64" version="1">
    <path d="M38.664 21c.282.78.423 1.314.48 2H60v-1H39.145a6.154 6.154 0 0 0-.168-1h-.313zm.506 4.064a8.836 8.836 0 0 1-.111.936H14.145a8.753 8.753 0 0 1-.116-.922c-.008.141-.029.28-.029.422a8.78 8.78 0 0 0 .145 1.5h24.914c.09-.496.136-.998.142-1.5a3.8 3.8 0 0 0-.031-.436z" opacity=".2"/>
    <path d="M26.6 14C19.64 14 14 18.701 14 24.5a8.78 8.78 0 0 0 .145 1.5h24.911a8.79 8.79 0 0 0 .143-1.5c-.004-1.016-.184-1.527-.536-2.5H60v-4H36.923c-2.352-2.815-6.206-3.995-10.322-4z" fill="#A79984"/>
    <rect width="52" height="16" x="4" y="26" rx="2.736" ry="2.666" fill="#928274"/>
    <path d="M4 39.332v1C4 41.81 5.222 43 6.738 43h46.524C54.778 43 56 41.81 56 40.332v-1C56 40.81 54.778 42 53.262 42H6.738C5.222 42 4 40.81 4 39.332z" opacity=".2"/>
    <rect width="42" height="12" x="8" y="38" rx="6.176" ry="6" fill="#504945"/>
    <g transform="matrix(2 0 0 2 0 1)" opacity=".2">
        <circle cx="7" cy="22" r="2"/>
        <circle cx="12" cy="22" r="2"/>
        <circle cx="17" cy="22" r="2"/>
        <circle cx="22" cy="22" r="2"/>
    </g>
    <g transform="scale(2)" fill="#BDAD93">
        <circle cx="7" cy="22" r="2"/>
        <circle cx="12" cy="22" r="2"/>
        <circle cx="17" cy="22" r="2"/>
        <circle cx="22" cy="22" r="2"/>
    </g>
    <path d="M8.027 44.533A4.506 4.506 0 0 0 8 45c0 3.324 2.754 6 6.176 6h29.648C47.246 51 50 48.324 50 45c0-.159-.011-.313-.027-.467C49.696 47.605 47.06 50 43.824 50H14.176c-3.237 0-5.872-2.395-6.149-5.467z" opacity=".2"/>
    <path d="M14.176 38C10.754 38 8 40.669 8 43.984c0 .159.011.313.027.466.277-3.064 2.912-5.453 6.149-5.453h29.648c3.237 0 5.872 2.39 6.149 5.453.016-.153.027-.307.027-.466C50 40.67 47.246 38 43.824 38H14.176zM6.738 26C5.222 26 4 27.19 4 28.668v1C4 28.19 5.222 27 6.738 27h46.524C54.778 27 56 28.19 56 29.668v-1C56 27.19 54.778 26 53.262 26H6.738zM26.602 14C19.642 14 14 18.701 14 24.5c.001.127.023.254.037.38.387-5.508 5.856-9.88 12.565-9.88 4.116.005 7.968 1.185 10.32 4H60v-1H36.922c-2.352-2.815-6.204-3.995-10.32-4zm12.062 10c.136.378.23.695.307 1h.174c0 .012.002.024.003.035.02-.178.05-.356.051-.535-.002-.2-.04-.332-.054-.5h-.48z" opacity=".1" fill="#F9F5D7"/>
</svg>
