<svg xmlns="http://www.w3.org/2000/svg" width="64" height="64" version="1">
    <path d="M4 56.2v2C4 59.75 5.25 61 6.8 61h50.4c1.55 0 2.8-1.25 2.8-2.8v-2c0 1.55-1.25 2.8-2.8 2.8H6.8C5.25 59 4 57.75 4 56.2z" opacity=".2"/>
    <rect width="56" height="56" x="4" y="4" rx="2.8" ry="2.8" fill="#48B9C7"/>
    <g opacity=".2">
        <path d="M32 23a10 10 0 0 0-10 10 10 10 0 0 0 10 10 10 10 0 0 0 10-10 10 10 0 0 0-10-10zm0 4a6 6 0 0 1 6 6 6 6 0 0 1-6 6 6 6 0 0 1-6-6 6 6 0 0 1 6-6zM8 31c-1.108 0-2 .892-2 2-.142 5.274.187 10.843 0 16 0 5.523 4.477 10 10 10s10-4.477 10-10-4.477-10-10-10a10 10 0 0 0-6 2.016V33c0-1.108-.892-2-2-2zm8 12a6 6 0 1 1 0 12 6 6 0 0 1 0-12zM42 8.27c-.511 0-1.022.195-1.414.587a1.995 1.995 0 0 0 0 2.828l4.95 4.949-4.95 4.95a2 2 0 0 0 0 2.831 2 2 0 0 0 2.832 0l4.95-4.95 4.948 4.95a1.995 1.995 0 0 0 2.829 0 2 2 0 0 0 0-2.832l-4.95-4.95 4.95-4.948a1.995 1.995 0 0 0 0-2.828 1.995 1.995 0 0 0-2.829 0l-4.948 4.949-4.95-4.95A2 2 0 0 0 42 8.272z"/>
    </g>
    <g fill="#F9F5D7">
        <path d="M32 22a10 10 0 0 0-10 10 10 10 0 0 0 10 10 10 10 0 0 0 10-10 10 10 0 0 0-10-10zm0 4a6 6 0 0 1 6 6 6 6 0 0 1-6 6 6 6 0 0 1-6-6 6 6 0 0 1 6-6zM8 30c-1.108 0-2 .892-2 2-.142 5.274.187 10.843 0 16 0 5.523 4.477 10 10 10s10-4.477 10-10-4.477-10-10-10a10 10 0 0 0-6 2.016V32c0-1.108-.892-2-2-2zm8 12a6 6 0 1 1 0 12 6 6 0 0 1 0-12zM42 7.27c-.511 0-1.022.195-1.414.587a1.995 1.995 0 0 0 0 2.828l4.95 4.949-4.95 4.95a2 2 0 0 0 0 2.831 2 2 0 0 0 2.832 0l4.95-4.95 4.948 4.95a1.995 1.995 0 0 0 2.829 0 2 2 0 0 0 0-2.832l-4.95-4.949 4.95-4.95a1.995 1.995 0 0 0 0-2.827 1.995 1.995 0 0 0-2.829 0l-4.948 4.949-4.95-4.95A2 2 0 0 0 42 7.272z"/>
    </g>
    <path d="M6.8 4C5.25 4 4 5.25 4 6.8v1.003c0-1.551 1.25-2.801 2.8-2.801h50.4c1.55 0 2.8 1.25 2.8 2.8V6.802C60 5.25 58.75 4 57.2 4H6.8z" opacity=".2" fill="#F9F5D7"/>
</svg>
