<svg xmlns="http://www.w3.org/2000/svg" width="64" height="64" version="1">
    <rect width="58" height="58" x="-62" y="-61" rx="2.9" ry="2.9" transform="matrix(0 -1 -1 0 0 0)" opacity=".2"/>
    <rect width="58" height="58" x="-61" y="-61" rx="2.9" ry="2.9" transform="matrix(0 -1 -1 0 0 0)" fill="#F9F5D7"/>
    <path d="M10 45.96v-26.1s11.6-1.45 11.6 13.05S10 45.96 10 45.96z" opacity=".1" fill="none" stroke="#151819" stroke-width="6" stroke-linecap="round" stroke-linejoin="round"/>
    <path d="M10 44.96v-26.1s11.6-1.45 11.6 13.05S10 44.96 10 44.96z" fill="none" stroke="#CB241D" stroke-width="6" stroke-linecap="round" stroke-linejoin="round"/>
    <path d="M32 45.957v-26.1s11.6-1.45 11.6 6.525c0 7.975-11.6 7.975-11.6 7.975l11.6 11.6v0" opacity=".1" fill="none" stroke="#151819" stroke-width="6" stroke-linecap="round" stroke-linejoin="round"/>
    <path d="M32 44.957v-26.1s11.6-1.45 11.6 6.525c0 7.975-11.6 7.975-11.6 7.975l11.6 11.6v0" fill="none" stroke="#7CB668" stroke-width="6" stroke-linecap="round" stroke-linejoin="round"/>
    <path d="M54 19.857v26.1" opacity=".1" fill="none" stroke="#151819" stroke-width="6" stroke-linecap="round" stroke-linejoin="round"/>
    <path d="M54 18.857v26.1" fill="none" stroke="#066678" stroke-width="6" stroke-linecap="round" stroke-linejoin="round"/>
    <path d="M5.898 3A2.891 2.891 0 0 0 3 5.898v1A2.891 2.891 0 0 1 5.898 4h52.204A2.891 2.891 0 0 1 61 6.898v-1A2.891 2.891 0 0 0 58.102 3H5.898z" opacity=".2" fill="#F9F5D7"/>
</svg>
