<svg xmlns="http://www.w3.org/2000/svg" width="64" height="64" version="1">
    <rect width="56" height="56" x="4" y="5" rx="3" ry="3" opacity=".2"/>
    <rect width="56" height="56" x="4" y="4" rx="3" ry="3" fill="#48B9C7"/>
    <rect width="44" height="44" x="10" y="11" rx="3" ry="3" opacity=".2"/>
    <rect width="44" height="44" x="10" y="10" rx="3" ry="3" fill="#F9F5D7"/>
    <path d="M14 14v36h16v-8h-8V22h8v-8H14zm20 0v8h8v20h-8v8h16V14H34z" fill="#3A393A"/>
    <path d="M7 4C5.338 4 4 5.338 4 7v1c0-1.662 1.338-3 3-3h50c1.662 0 3 1.338 3 3V7c0-1.662-1.338-3-3-3H7z" fill="#F9F5D7" opacity=".2"/>
</svg>
