<svg xmlns="http://www.w3.org/2000/svg" width="64" height="64">
    <path d="M32 5A28 28 0 0 0 4 33a28 28 0 0 0 28 28 28 28 0 0 0 28-28A28 28 0 0 0 32 5z" opacity=".2"/>
    <path d="M32 4A28 28 0 0 0 4 32a28 28 0 0 0 28 28 28 28 0 0 0 28-28A28 28 0 0 0 32 4z" fill="#FD8019"/>
    <circle cx="32" cy="33" r="24" opacity=".2"/>
    <circle cx="32" cy="32" r="24" fill="#F9F5D7"/>
    <path d="M31.944 12c-2.495-.012-4.821.491-5.944 1.04.002.007-.002-.048 0-.04.19.394 6 15 6 15l6-15c-1.19-.548-3.564-.988-6.056-1z" fill="#B7BB25"/>
    <path d="M31.944 52c-2.495.012-4.821-.491-5.944-1.04.002-.007-.002.048 0 .04.19-.394 6-15 6-15l6 15c-1.19.548-3.564.988-6.056 1z" fill="#BE4C1D"/>
    <path d="M52 31.944c.012-2.495-.491-4.82-1.04-5.944-.008.002.048-.001.04 0-.394.19-15 6-15 6l15 6c.547-1.19.988-3.564 1-6.056z" fill="#C77089"/>
    <path d="M12 31.944c-.012-2.495.491-4.82 1.04-5.944.007.002-.048-.001-.04 0 .394.19 15 6 15 6l-15 6c-.548-1.19-.988-3.564-1-6.056z" fill="#D79921"/>
    <path d="M46.102 17.818c-1.755-1.772-3.756-3.061-4.937-3.468-.005.007.032-.034.027-.028-.143.414-6.364 14.85-6.364 14.85l14.85-6.364c-.455-1.23-1.822-3.219-3.576-4.99z" fill="#B7BB25"/>
    <path d="M17.818 46.102c-1.772-1.755-3.061-3.756-3.468-4.937.007-.005-.035.032-.028.028.413-.144 14.85-6.364 14.85-6.364l-6.364 14.849c-1.23-.455-3.219-1.822-4.99-3.576z" fill="#D55C0D"/>
    <path d="M46.181 46.102c1.773-1.755 3.062-3.756 3.468-4.937-.006-.005.035.032.028.028-.413-.144-14.849-6.364-14.849-6.364l6.364 14.849c1.23-.455 3.219-1.822 4.99-3.576z" fill="#CB241D"/>
    <path d="M17.897 17.818c1.756-1.772 3.756-3.061 4.938-3.468.005.007-.032-.034-.028-.028.144.414 6.364 14.85 6.364 14.85l-14.849-6.364c.455-1.23 1.821-3.219 3.575-4.99z" fill="#FECE4F"/>
    <path d="M32 4A28 28 0 0 0 4 32a28 28 0 0 0 .021.406A28 28 0 0 1 32 5a28 28 0 0 1 27.979 27.578A28 28 0 0 0 60 32 28 28 0 0 0 32 4z" opacity=".2" fill="#F9F5D7"/>
</svg>
