<svg xmlns="http://www.w3.org/2000/svg" width="64" height="64">
    <circle cx="32" cy="33" r="28" opacity=".2"/>
    <circle cx="32" cy="32" r="28" fill="#F9F5D7"/>
    <path d="M45.285 16.887l-9.799 9.799 2.828 2.828 9.8-9.8zM32 29a4 4 0 0 0-4 4 4 4 0 0 0 4 4 4 4 0 0 0 4-4 4 4 0 0 0-4-4zm6.262 8.135l-2.723 2.931 9.8 9.1 2.722-2.932z" opacity=".1"/>
    <path d="M32 11c-11.598 0-21 9.402-21 21s9.402 21 21 21a21.002 21.002 0 0 0 10.32-2.723l-4.591-4.38c-.38.16-.767.275-1.157.37A15 15 0 0 1 32 47a15 15 0 0 1-15-15 15 15 0 0 1 15-15 15 15 0 0 1 5.88 1.201l4.454-4.453A21.003 21.003 0 0 0 32 11z" fill="#48B9C7"/>
    <circle cx="32" cy="32" r="4" fill="#3A393A"/>
    <path d="M36.9 27.1l9.8-9.8v0M36.9 37.6l9.8 9.1" fill="none" stroke="#3A393A" stroke-width="4"/>
    <path d="M32 4A28 28 0 0 0 4 32a28 28 0 0 0 .021.586A28 28 0 0 1 32 5a28 28 0 0 1 27.979 27.414A28 28 0 0 0 60 32 28 28 0 0 0 32 4z" fill="#F9F5D7" opacity=".2"/>
    <path d="M32 11c-11.598 0-21 9.402-21 21 0 .168.008.333.012.5C11.278 21.134 20.57 12 32 12c3.377.008 6.694.84 9.68 2.402l.654-.654A21.003 21.003 0 0 0 32 11zM17.02 32.586A15 15 0 0 0 17 33a15 15 0 0 0 15 15 15 15 0 0 0 4.572-.732c.39-.096.777-.212 1.157-.372l3.916 3.737c.225-.117.453-.23.675-.356l-4.591-4.38c-.38.16-.767.275-1.157.37A15 15 0 0 1 32 47a15 15 0 0 1-14.98-14.414z" opacity=".2"/>
</svg>
