<svg xmlns="http://www.w3.org/2000/svg" width="64" height="64" version="1">
    <path d="M4 56v2c0 1.662 1.338 3 3 3h50c1.662 0 3-1.338 3-3v-2c0 1.662-1.338 3-3 3H7c-1.662 0-3-1.338-3-3z" opacity=".2"/>
    <path d="M32 4H7C5.338 4 4 5.338 4 7v25h28z" fill="#CB241D"/>
    <path d="M32 4h25c1.662 0 3 1.338 3 3v25H32z" fill="#7CB668"/>
    <path d="M32 60H7c-1.662 0-3-1.338-3-3V32h28z" fill="#D79921"/>
    <path d="M32 60h25c1.662 0 3-1.338 3-3V32H32z" fill="#8F3F71"/>
    <path d="M7 4C5.338 4 4 5.338 4 7v1c0-1.662 1.338-3 3-3h50c1.662 0 3 1.338 3 3V7c0-1.662-1.338-3-3-3z" opacity=".1" fill="#F9F5D7"/>
</svg>
