<svg xmlns="http://www.w3.org/2000/svg" width="64" height="64">
    <ellipse cx="36.521" cy="32.038" rx="15.378" ry="19.572" fill="#3A393A"/>
    <path d="M37 5a24 28 0 0 0-24 28 24 28 0 0 0 24 28 24 28 0 0 0 24-28A24 28 0 0 0 37 5zm0 12c5.688 0 12 6.095 12 16 0 9.905-6.312 16-12 16-5.689 0-12-6.095-12-16 0-9.905 6.311-16 12-16z" opacity=".2"/>
    <path d="M37 4a24 28 0 0 0-24 28 24 28 0 0 0 24 28 24 28 0 0 0 24-28A24 28 0 0 0 37 4zm0 12c5.688 0 12 6.095 12 16 0 9.905-6.312 16-12 16-5.689 0-12-6.095-12-16 0-9.905 6.311-16 12-16z" fill="#504945"/>
    <path d="M37 4a24 28 0 0 0-24 28 24 28 0 0 0 .018.414A24 28 0 0 1 37 5a24 28 0 0 1 23.982 27.594A24 28 0 0 0 61 32 24 28 0 0 0 37 4zM25.04 33c-.016.332-.04.658-.04 1 0 .169.016.328.02.494.007-.164.012-.33.02-.494.411 9.307 6.468 15 11.96 15 5.492 0 11.549-5.693 11.96-15 .008.164.013.33.02.494.004-.166.02-.325.02-.494 0-.342-.024-.668-.04-1-.411 9.307-6.468 15-11.96 15-5.492 0-11.549-5.693-11.96-15z" opacity=".1" fill="#F9F5D7"/>
    <path d="M18.885 4.919a6 6 0 0 0-4.067 1.754l-10 10a6 6 0 0 0 8.242 8.718v29.524a6 6 0 1 0 12 0v-44a6 6 0 0 0-6.175-5.996z" opacity=".2"/>
    <path d="M9.06 19.914l10-10v44" fill="none" stroke="#F9F5D7" stroke-width="12" stroke-linecap="round" stroke-linejoin="round"/>
    <path d="M18.885 3.918a6 6 0 0 0-4.067 1.754l-10 10a6 6 0 0 0-1.746 4.719 6 6 0 0 1 1.746-3.72l10-10a6 6 0 0 1 4.067-1.753 6 6 0 0 1 6.176 5.996v-1a6 6 0 0 0-6.176-5.996z" opacity=".2" fill="#F9F5D7"/>
</svg>
