<svg xmlns="http://www.w3.org/2000/svg" width="64" height="64" version="1">
    <rect width="54" height="54" x="-60" y="-59" rx="2.7" ry="2.7" transform="matrix(0 -1 -1 0 0 0)" opacity=".2"/>
    <rect width="54" height="54" x="-59" y="-59" rx="2.7" ry="2.7" transform="matrix(0 -1 -1 0 0 0)" fill="#7CB668"/>
    <path d="M41 5v54h15.3c1.496 0 2.7-1.204 2.7-2.7V7.7C59 6.203 57.796 5 56.3 5z" opacity=".2"/>
    <path opacity=".1" d="M23 5h18v54H23z"/>
    <path d="M59 41H5v15.3C5 57.797 6.204 59 7.7 59h48.6c1.496 0 2.7-1.204 2.7-2.7z" opacity=".2"/>
    <path opacity=".1" d="M59 23v18H5V23z"/>
    <path d="M32 10a5 5 0 0 0-5 5 5 5 0 0 0 5 5 5 5 0 0 0 5-5 5 5 0 0 0-5-5zm18 0a5 5 0 0 0-5 5 5 5 0 0 0 5 5 5 5 0 0 0 5-5 5 5 0 0 0-5-5zm-36.14.277A4.861 4.861 0 0 0 9 15.141 4.861 4.861 0 0 0 13.86 20a4.861 4.861 0 0 0 4.863-4.86 4.861 4.861 0 0 0-4.864-4.863zM14 28a5 5 0 0 0-5 5 5 5 0 0 0 5 5 5 5 0 0 0 5-5 5 5 0 0 0-5-5zm18 0a5 5 0 0 0-5 5 5 5 0 0 0 5 5 5 5 0 0 0 5-5 5 5 0 0 0-5-5zm18 0a5 5 0 0 0-5 5 5 5 0 0 0 5 5 5 5 0 0 0 5-5 5 5 0 0 0-5-5zM14 46a5 5 0 0 0-5 5 5 5 0 0 0 5 5 5 5 0 0 0 5-5 5 5 0 0 0-5-5zm18 0a5 5 0 0 0-5 5 5 5 0 0 0 5 5 5 5 0 0 0 5-5 5 5 0 0 0-5-5zm18 0a5 5 0 0 0-5 5 5 5 0 0 0 5 5 5 5 0 0 0 5-5 5 5 0 0 0-5-5z" opacity=".1"/>
    <circle cx="32" cy="32" r="5" fill="#F9F5D7"/>
    <circle cx="14" cy="32" r="5" fill="#F9F5D7"/>
    <circle cx="50" cy="32" r="5" fill="#3A393A"/>
    <circle cx="32" cy="14" r="5" fill="#F9F5D7"/>
    <circle cx="13.861" cy="14.139" r="4.861" fill="#F9F5D7"/>
    <circle cx="50" cy="14" r="5" fill="#F9F5D7"/>
    <circle cx="32" cy="50" r="5" fill="#3A393A"/>
    <circle cx="14" cy="50" r="5" fill="#3A393A"/>
    <circle cx="50" cy="50" r="5" fill="#F9F5D7"/>
    <path d="M7.7 5A2.693 2.693 0 0 0 5 7.7v1C5 7.202 6.203 6 7.7 6h48.6C57.798 6 59 7.203 59 8.7v-1C59 6.202 57.797 5 56.3 5H7.7z" opacity=".2" fill="#F9F5D7"/>
    <path opacity=".1" d="M5 23h54v1H5zM5 41h54v1H5z"/>
</svg>
