<svg xmlns="http://www.w3.org/2000/svg" width="64" height="64">
    <circle cx="32" cy="33" r="28" opacity=".2"/>
    <circle cx="32" cy="32" r="28" fill="#377375"/>
    <circle cx="32" cy="33" r="17" opacity=".2"/>
    <circle cx="32" cy="32" r="17" fill="#F9F5D7"/>
    <path d="M32.016 20q3.274 0 5.27 1.535 2.012 1.519 2.012 4.11 0 1.79-.967 3.197-.966 1.391-3.119 2.494 2.558 1.408 3.665 2.942Q40 35.798 40 37.62q0 2.878-2.199 4.637Q35.602 44 32.016 44q-3.743 0-5.88-1.63Q24 40.737 24 37.747q0-1.998 1.03-3.55 1.044-1.55 3.336-2.734-1.949-1.263-2.807-2.702-.857-1.439-.857-3.15 0-2.51 2.027-4.061Q28.756 20 32.016 20zM28.46 37.46q0 1.375.936 2.143.935.767 2.557.767 1.794 0 2.682-.783.89-.8.89-2.095 0-1.07-.89-1.998-.873-.944-2.853-1.999-3.322 1.567-3.322 3.965zm3.524-13.846q-1.232 0-1.996.655-.748.64-.748 1.727 0 .96.592 1.727.609.751 2.184 1.55 1.528-.735 2.136-1.502.608-.768.608-1.775 0-1.103-.78-1.743-.78-.64-1.996-.64z" font-size="40" letter-spacing="0" word-spacing="0" fill="#3A393A"/>
    <path d="M32 4A28 28 0 0 0 4 32a28 28 0 0 0 .018.492A28 28 0 0 1 32 5a28 28 0 0 1 27.975 27.492A28 28 0 0 0 60 32 28 28 0 0 0 32 4z" opacity=".1" fill="#F9F5D7"/>
</svg>
