<svg xmlns="http://www.w3.org/2000/svg" width="64" height="64">
    <g opacity=".2">
        <path d="M53.998 11l-.872 1.34L48 32l-5.984-2.562L40.999 31l5.25 2.25 1.848.372L53.998 11zM17 27l-9.906 1.524L4 31l13-2 8 26 5-3 29.998 3-1.11-2.11L30 50l-5 3-8-26z"/>
        <path d="M41.54 33.832L29 41l-2.325-5.422L26 36l3 7 14-8-1.457-1.168z"/>
    </g>
    <path d="M25 54.002L17 28 4 30l10-8 6 2 7.999 20L44.998 34l5 1 10 19-30-3zM40.998 30L54 10l-6 23z" fill="#48B9C7"/>
    <path d="M29 42.001l-3-7 8-5h4l5 4z" fill="#F15C22"/>
    <path d="M53.998 10l-13 20 .509.219 12.055-18.55.436-1.67zM14 22L4 30l1.547-.238L14 23l6 2 8 20 16.997-10 5.001 1 9.443 17.945.555.055-9.998-19-5.001-1-16.998 10-8-20-6-2zm19.999 8l-8 5 .338.789L34 30.999h4l4.27 3.417L43 34l-5-4h-4z" opacity=".2" fill="#F9F5D7"/>
</svg>
