<svg xmlns="http://www.w3.org/2000/svg" width="64" height="64" version="1">
    <path d="M4 56v2c0 1.662 1.338 3 3 3h50c1.662 0 3-1.338 3-3v-2c0 1.662-1.338 3-3 3H7c-1.662 0-3-1.338-3-3z" opacity=".2"/>
    <rect width="56" height="56" x="4" y="4" rx="3" ry="3" fill="#CB241D"/>
    <path d="M7 4C5.338 4 4 5.338 4 7v1c0-1.662 1.338-3 3-3h50c1.662 0 3 1.338 3 3V7c0-1.662-1.338-3-3-3H7z" opacity=".1" fill="#F9F5D7"/>
    <path d="M33.394 46.771c-.724-.438-1.186-1.2-3.198-5.266-1.112-2.252-2.172-4.252-2.354-4.444-.204-.216-1.882-1.108-4.388-2.332C18.503 32.313 18 31.93 18 30.56c0-.638.312-1.25.8-1.568.169-.11 5.346-1.962 11.505-4.116 10.822-3.785 11.224-3.915 11.964-3.87.64.04.825.104 1.132.397.46.44.668 1.049.578 1.7-.096.7-7.866 22.648-8.155 23.036-.616.829-1.662 1.102-2.43.635z" opacity=".2"/>
    <path d="M33.394 45.772c-.724-.438-1.186-1.2-3.198-5.266-1.112-2.252-2.172-4.252-2.354-4.444-.204-.216-1.882-1.108-4.388-2.332C18.503 31.314 18 30.93 18 29.56c0-.638.312-1.25.8-1.568.169-.11 5.346-1.962 11.505-4.116 10.822-3.785 11.224-3.915 11.964-3.87.64.039.825.104 1.132.397.46.44.668 1.049.578 1.7-.096.7-7.866 22.648-8.155 23.036-.616.828-1.662 1.101-2.43.635z" fill="#F9F5D7"/>
</svg>
