<svg xmlns="http://www.w3.org/2000/svg" width="64" height="64" version="1.0">
    <circle cx="32" cy="-33" r="28" transform="scale(1 -1)" opacity=".2"/>
    <circle cx="32" cy="-32" r="28" transform="scale(1 -1)" fill="#F9F5D7"/>
    <circle cx="32" cy="32" r="22" fill="#377375"/>
    <path d="M32 17a16 16 0 0 0-16 16 16 16 0 0 0 16 16 16 16 0 0 0 16-16 16 16 0 0 0-16-16zm0 7a9 9 0 0 1 9 9 9 9 0 0 1-9 9 9 9 0 0 1-9-9 9 9 0 0 1 9-9z" opacity=".1"/>
    <path d="M32 16a16 16 0 0 0-16 16 16 16 0 0 0 16 16 16 16 0 0 0 16-16 16 16 0 0 0-16-16zm0 7a9 9 0 0 1 9 9 9 9 0 0 1-9 9 9 9 0 0 1-9-9 9 9 0 0 1 9-9z" fill="#448588"/>
    <path d="M32 16a16 16 0 0 0-16 16 16 16 0 0 0 .021.42A16 16 0 0 1 32 17a16 16 0 0 1 15.979 15.58A16 16 0 0 0 48 32a16 16 0 0 0-16-16zm8.979 16.424A9 9 0 0 1 32 41a9 9 0 0 1-8.979-8.424A9 9 0 0 0 23 33a9 9 0 0 0 9 9 9 9 0 0 0 9-9 9 9 0 0 0-.021-.576z" opacity=".1" fill="#F9F5D7"/>
    <path d="M46 33l-10.5 6.562L25 46.125v-26.25l10.5 6.562z" opacity=".2"/>
    <path d="M46 32l-10.5 6.562L25 45.125v-26.25l10.5 6.562z" fill="#F9F5D7"/>
    <path d="M32 4A28 28 0 0 0 4 32a28 28 0 0 0 .021.414A28 28 0 0 1 32 5a28 28 0 0 1 27.979 27.586A28 28 0 0 0 60 32 28 28 0 0 0 32 4z" fill="#F9F5D7" opacity=".2"/>
    <path d="M53.979 31.414A22 22 0 0 1 32 53a22 22 0 0 1-21.979-21.414A22 22 0 0 0 10 32a22 22 0 0 0 22 22 22 22 0 0 0 22-22 22 22 0 0 0-.021-.586z" opacity=".1"/>
</svg>
