<svg xmlns="http://www.w3.org/2000/svg" width="64" height="64" version="1">
    <path d="M32 4c-1.52 0-3.04.566-4.176 1.702L4.702 28.827c-2.271 2.271-2.268 6.072.003 8.343l23.123 23.125c2.27 2.271 6.075 2.274 8.346.003l23.123-23.125c2.27-2.27 2.27-6.075 0-8.346L36.174 5.702C35.038 4.566 33.518 4 31.999 4z" opacity=".2"/>
    <path d="M32 3c-1.52 0-3.04.566-4.176 1.702L4.702 27.827c-2.271 2.271-2.268 6.072.003 8.343l23.123 23.125c2.27 2.271 6.075 2.274 8.346.003l23.123-23.125c2.27-2.27 2.27-6.075 0-8.346L36.174 4.702C35.038 3.566 33.518 3 31.999 3z" fill="#D79921"/>
    <path d="M34 17v9.647l-6 5.524.02.02H28V46h3V33.615l3-2.762V46h3V17z" opacity=".1"/>
    <path d="M34 16v9.647l-6 5.524.02.02H28V45h3V32.615l3-2.762V45h3V16z" fill="#3A393A"/>
    <path d="M32 3c-1.52 0-3.04.566-4.176 1.701L4.701 27.826c-1.256 1.256-1.812 2.98-1.678 4.654a5.847 5.847 0 0 1 1.678-3.654L27.824 5.701C28.96 4.566 30.481 4 32 4c1.52 0 3.038.566 4.174 1.701l23.123 23.125a5.855 5.855 0 0 1 1.68 3.674c.138-1.68-.42-3.413-1.68-4.674L36.174 4.701C35.038 3.566 33.519 3 32 3z" fill="#F9F5D7" opacity=".2"/>
</svg>
