<svg xmlns="http://www.w3.org/2000/svg" width="64" height="64" version="1">
    <path d="M28.504 44.531C18.35 47.662 11.107 53.595 4 59h24v-2h8v-5.75l1.746-1.066-.09-2.579-3.629-1.738s-2.11.19-3.148.14c-.96-.78-1.233-1.058-2.375-1.476z" opacity=".2"/>
    <path d="M23.14 41.2h16.81l6.05 7H18z" fill="#F9F5D7"/>
    <path d="M37.656 46.605l-3.628-1.737s-2.111.187-3.15.138c-.96-.78-1.234-1.055-2.375-1.473C18.348 46.663 11.107 52.595 4 58h32.232l.011-7.75 1.504-1.065z" fill="#B57514"/>
    <path d="M26 48.724l4.755-2.856s2.112.187 3.15.138c.96-.78 1.234-1.055 2.376-1.473C46.435 47.663 52.893 53.595 60 59H28v-5.231l-2-1.066z" opacity=".2"/>
    <path d="M26 47.724l4.755-2.856s2.112.187 3.15.138c.96-.78 1.234-1.055 2.376-1.473C46.435 46.663 52.893 52.595 60 58H28v-5.231l-2-1.066z" fill="#FECE4F"/>
    <path d="M22.2 17.6l9.45-3.08 8.75 3.08 5.6 7 1.399 8.964c.123 7.495-9.403 12.986-15.691 13.156-5.192.013-10.393-4.212-12.675-7.083-2.486-2.726-2.246-3.948-2.298-7.449L18 23.2z" opacity=".1"/>
    <path d="M22.2 16.6l9.45-3.08 8.75 3.08 5.6 7 1.399 8.964c.123 7.495-9.403 12.986-15.691 13.156-5.192.013-10.393-4.212-12.675-7.083-2.486-2.726-2.246-3.948-2.298-7.449L18 22.2z" fill="#3A393A"/>
    <path d="M20 28.63L24.26 25h2.153L28 27.988v4.047L22.691 35 20 33.571z" opacity=".1"/>
    <path d="M20 27.63L24.26 24h2.153L28 26.988v4.047L22.691 34 20 32.571z" fill="#48B9C7"/>
    <path d="M21.153 46.48a57.4 57.4 0 0 0-3.4 1.83L16.076 58h3.082zM42.459 45.963L46.719 58h3.221l-3.508-9.901a49.508 49.508 0 0 0-3.973-2.136z" fill="#3A393A"/>
    <path d="M28.504 43.531C18.35 46.662 11.107 52.595 4 58h1.316c6.7-5.125 13.653-10.529 23.188-13.469 1.062.39 1.407.692 2.219 1.356l.03-.02s.782.059 1.638.102c.857-.043 1.636-.102 1.636-.102l.035.016c.81-.663 1.158-.963 2.22-1.352 9.534 2.94 15.817 8.344 22.43 13.469H60c-7.107-5.405-13.564-11.338-23.719-14.469-1.061.389-1.409.69-2.218 1.352l-.036-.016s-.78.059-1.636.102c-.856-.043-1.637-.102-1.637-.102l-.031.02c-.812-.664-1.157-.967-2.22-1.356z" opacity=".2" fill="#F9F5D7"/>
    <circle cx="30" cy="50" r="2" fill="#FA4934"/>
    <path d="M18.168 20.722c1.722-4.376 7.334-7.695 11.49-10.08L31 7h2.775l1.55 3.375c4.167 2.46 9.114 6.288 10.86 10.316 1.513 3.488 3.27 6.145 2.37 9.823l-.757 3.086c-.8-.963-1.29-2.877-1.746-5.524-1.15-7.708-7.249-9.16-13.453-9.076-7.04.543-11.367 2.373-14.043 8.52-.589 1.378-.98 2.87-1.579 5.064l-.954-1.308c-2.366-2.89 1.006-7.405 2.145-10.554z" opacity=".2"/>
    <path d="M18.168 19.722c1.722-4.376 7.334-7.695 11.49-10.08L31 6h2.775l1.55 3.375c4.167 2.46 9.114 6.288 10.86 10.316 1.513 3.488 3.27 6.145 2.37 9.823l-.757 3.086c-.8-.963-1.29-2.877-1.746-5.524-1.15-7.708-7.249-9.16-13.453-9.076-7.04.543-11.367 2.373-14.043 8.52-.589 1.378-.98 2.87-1.579 5.064l-.954-1.308c-2.366-2.89 1.006-7.405 2.145-10.554z" fill="#FA4934"/>
    <path d="M29 35l-3 2.79v6.037L29 47h6l3-3.173V37.79L35 35h-3zm1.178 3h3.644L35 39.096v3.539L33.708 44h-3.416L29 42.635v-3.54z" opacity=".1"/>
    <path d="M29 34l-3 2.79v6.037L29 46h6l3-3.173V36.79L35 34h-3zm1.178 3h3.644L35 38.096v3.539L33.708 43h-3.416L29 41.635v-3.54z" fill="#48B9C7"/>
    <path d="M44 28.63L39.74 25h-2.153L36 27.988v4.047L41.309 35 44 33.571z" opacity=".1"/>
    <path d="M44 27.63L39.74 24h-2.153L36 26.988v4.047L41.309 34 44 32.571z" fill="#48B9C7"/>
    <path d="M31 6l-1.344 3.643c-4.155 2.385-9.766 5.704-11.488 10.08-.907 2.508-3.223 5.88-2.936 8.609.245-2.52 2.137-5.4 2.936-7.61 1.722-4.375 7.333-7.694 11.488-10.08L31 7h2.775l1.55 3.375c4.166 2.459 9.114 6.289 10.859 10.316 1.148 2.648 2.437 4.817 2.597 7.317.177-2.94-1.299-5.323-2.597-8.317-1.745-4.027-6.693-7.857-10.86-10.316L33.775 6H31z" opacity=".1" fill="#F9F5D7"/>
</svg>
