<svg xmlns="http://www.w3.org/2000/svg" width="64" height="64" version="1">
    <path d="M6.05 32c-.012.334-.05.662-.05 1 0 14.404 11.596 26 26 26 14.403 0 26-11.596 26-26 0-.338-.039-.666-.05-1C57.42 45.932 46.064 57 32 57 17.934 57 6.578 45.932 6.05 32z" opacity=".2"/>
    <rect width="51.999" height="51.999" x="-58" y="-58" rx="26" ry="26" transform="matrix(0 -1 -1 0 0 0)" fill="#7CB668"/>
    <path d="M21 19l4 5 2-1-3-3 3-1h-6zm16 0l3 1-3 3 2 1 4-5h-6zm-5 2c-2.604.009-6.013 1.43-6 6.399L32 24l6 3.399c.012-4.968-3.396-6.39-6-6.398zm-15 2l2 6v-2h4l1-2-7-2zm30 0l-7 2 1 2h4v2l2-6zm-15 3l-3 1.801.398 2.8 1-2.6h3.203l1 2.6.398-2.8-3-1.8zm-10 3l-8 3 4 2v-1l3-1 1-3zm5 0l-4 1.602c.025 3.267 1.857 6.353 3.699 7.855 1.29 1.026 2.906 2.202 3.698 2.542.91.34.406-1.684.602-2h2c.197.317-.309 2.34.601 2 .794-.34 2.41-1.515 3.7-2.543 1.844-1.502 3.674-4.586 3.7-7.854L37 29l-1 4h-2.602L32 29l-1.398 4H28l-1-4zm15 0l1 3 3 1v1l4-2-8-3zm-20 6l-5 2 8 10-3-12zm20 0l-3 12 8-10-5-2z" opacity=".2"/>
    <path d="M21 18l4 5 2-1-3-3 3-1h-6zm16 0l3 1-3 3 2 1 4-5h-6zm-5 2c-2.604.009-6.013 1.43-6 6.399L32 23l6 3.398c.012-4.968-3.396-6.39-6-6.398zm-15 2l2 6v-2h4l1-2-7-2zm30 0l-7 2 1 2h4v2l2-6zm-15 3l-3 1.801.398 2.801 1-2.602h3.203l1 2.602.398-2.8-3-1.8zm-10 3l-8 3 4 2v-1l3-1 1-3zm5 0l-4 1.602c.025 3.268 1.857 6.353 3.699 7.855 1.29 1.026 2.906 2.202 3.698 2.542.91.34.406-1.684.602-2h2c.197.317-.309 2.341.601 2 .794-.34 2.41-1.515 3.7-2.543 1.844-1.502 3.674-4.586 3.7-7.854L37 28l-1 4h-2.602L32 28l-1.398 4H28l-1-4zm15 0l1 3 3 1v1l4-2-8-3zm-20 6l-5 2 8 10-3-12zm20 0l-3 12 8-10-5-2z" fill="#F9F5D7"/>
    <path d="M32 6C17.596 6 6 17.596 6 32c0 .11.012.219.018.328C6.373 18.238 17.822 7 32 7c14.178 0 25.627 11.238 25.982 25.328.006-.11.018-.217.018-.328C58 17.596 46.404 6 32 6z" opacity=".2" fill="#F9F5D7"/>
</svg>
