<svg xmlns="http://www.w3.org/2000/svg" width="64" height="64" version="1">
    <path d="M61 33a29 29 0 0 1-29 29A29 29 0 0 1 3 33 29 29 0 0 1 32 4a29 29 0 0 1 29 29z" opacity=".2"/>
    <path d="M61 32a29 29 0 0 1-29 29A29 29 0 0 1 3 32 29 29 0 0 1 32 3a29 29 0 0 1 29 29z" fill="#504945"/>
    <path d="M32 16a7 7 0 0 0-7 7 7 7 0 0 0 7 7 7 7 0 0 0 7-7 7 7 0 0 0-7-7zm0 18a9 9 0 0 0-9 9v17.548a29 29 0 0 0 4 .988V50.481a9 9 0 0 0 5 1.52 9 9 0 0 0 9-9 9 9 0 0 0-9-9z" opacity=".2"/>
    <path d="M23 42v17.547a29 29 0 0 0 4 .988V42z" fill="#CB8819"/>
    <circle cx="32" cy="22" r="7" fill="#D55C0D"/>
    <circle cx="32" cy="42" r="9" fill="#CB8819"/>
    <path d="M32 3A29 29 0 0 0 3 32a29 29 0 0 0 .018.488A29 29 0 0 1 32 4a29 29 0 0 1 28.975 28.494A29 29 0 0 0 61 32 29 29 0 0 0 32 3z" opacity=".1" fill="#F9F5D7"/>
    <path d="M32 15a7 7 0 0 0-7 7 7 7 0 0 0 .025.438A7 7 0 0 1 32 16a7 7 0 0 1 6.975 6.492A7 7 0 0 0 39 22a7 7 0 0 0-7-7zm0 18a9 9 0 0 0-9 9v1a9 9 0 0 1 9-9 9 9 0 0 1 8.973 8.441A9 9 0 0 0 41 42a9 9 0 0 0-9-9z" opacity=".2" fill="#F9F5D7"/>
</svg>
