<svg xmlns="http://www.w3.org/2000/svg" width="64" height="64">
    <circle cx="32" cy="33" r="28" opacity=".2"/>
    <circle cx="32" cy="32" r="28" fill="#8F3F71"/>
    <path d="M28.477 15c-3.46-.012-7.433.456-11.946 2.324 6.19.482 8.846 1.347 8.996 2.004C14.823 17.488 12.347 28.213 12 35c0 0 2.74-1.56 4-2 .388-.136.485.126.953 0-1.243 1.634-2.207 3.295-3.023 5.004-1.945 4.504-.811 10.81-.93 13.996 5.305 6.011 10.983 6.987 19 7a28 28 0 0 0 16.926-5.723c-2.426-2.5-7.267-8.048-7.125-12.93.085-2.924 1.745-5.554 7.156-7.05A48.698 48.698 0 0 1 57 33c-.486-3.769-3.936-7.714-9.71-8.93-.991-.471-6.845-9.028-18.813-9.07z" opacity=".2" fill-rule="evenodd"/>
    <path d="M28.475 14c-3.46-.012-7.43.456-11.943 2.324 6.19.482 8.845 1.347 8.996 2.004-10.705-1.84-15.16 13.395-15.506 20.183 0 0 4.719-6.071 5.978-6.511.388-.136.486.126.953 0-1.243 1.634-2.205 3.295-3.022 5.004-2.116 4.901-1.94 12.848-1.931 16.183 0 .418.977.43 1 .813 1.302 1.47.817-.66 2.397.507.34-.396.69-.798.801-1.018-.254.41-.45.757-.662 1.124A28 28 0 0 0 32 60a28 28 0 0 0 18.009-6.598c-1.653-1.596-8.373-8.409-8.209-14.055.085-2.925 1.744-5.556 7.156-7.052A48.719 48.719 0 0 1 57 32c-.486-3.769-3.937-7.715-9.712-8.93-.99-.472-6.845-9.028-18.813-9.07z" fill="#F9F5D7" fill-rule="evenodd"/>
    <path d="M38 21.3s5.309-1.855 6 3.661c-5.235.482-6-3.661-6-3.661z" fill="#3A393A" fill-rule="evenodd"/>
    <path d="M14.26 60.356s8.692-26.251 35.36-27.258c0 0-22.356-3.716-37.64 20.494-.084 3.425 2.28 6.764 2.28 6.764z" opacity=".1" fill-rule="evenodd"/>
    <path d="M14.26 59.356s8.692-26.25 35.36-27.258c0 0-22.356-3.716-37.64 20.494-.084 3.425 2.28 6.764 2.28 6.764zM16.553 16.325s6.652.387 9.026 2.02c.992-.204 1.834-.883 1.977-1.807-.85-.352-8.639-.987-11.003-.213z" fill="#F9BD2E" fill-rule="evenodd"/>
    <path d="M10.082 39.544s9.609-10.002 26.42-11.197c0 0-24.166 1.034-26.088 7.497-.534 1.554-.332 3.7-.332 3.7z" opacity=".1" fill-rule="evenodd"/>
    <path d="M10.082 38.544s9.609-10.002 26.42-11.197c0 0-24.166 1.034-26.088 7.497-.534 1.554-.332 3.7-.332 3.7z" fill="#F9BD2E" fill-rule="evenodd"/>
    <path d="M32 4A28 28 0 0 0 4 32a28 28 0 0 0 .018.492A28 28 0 0 1 32 5a28 28 0 0 1 27.975 27.492A28 28 0 0 0 60 32 28 28 0 0 0 32 4z" opacity=".1" fill="#F9F5D7"/>
</svg>
