<svg xmlns="http://www.w3.org/2000/svg" width="64" height="64" version="1">
    <path d="M21.967 5c-.762.935-1.223 1.712-2.096 2.642-2.92 3.11-2.448 5.103-.135 7.276.4.376-.898 1.717-1.341 3.468.865.701 1.09 1.77 1.88 2.584.862-1.06 2.838-3.452 3.438-4.09 0 0 1.27-2-.312-3.88-1.147-1.137-1.434-3.795-1.368-6.426.074-.172-.088-1.129-.066-1.574zm7.3 2.149c-1.097 0-1.213.393-.83 2.793.557 3.478-.65 6.656-3.361 8.66-1.131.837-3.428 3.656-3.428 4.028 0 .324-5.221 1.676-3.708 3.618.224.288-2.612 2.22.611.808 2.69-1.178 4.193 5.793 5.222 7.79l1.87 3.63-1.662 3.243c-2.422 4.726-1.72 6.276-6.28 10.897-.711.721-.594 1.613-1.156 1.244-4-2.633-.35 1.182-.6 1.527-1.817-3.802-1.286 2.141-1.288 2.144 1.735 1.905 4.967 2.215 7.509 2.144 4.238.019 6.098-2.831 7.346-4.954 3.644-6.23 8.345-11.199 9.83-10.629.647.249 2.988 2.972 5.205 6.051 2.216 3.08 4.346 5.506 4.731 5.394 1.25-.363 2.722-3.524 2.722-6.541 0-3.996-.7-4.93-1.911-6.115-.903-.882-.347-1.344-1.2-2.59-1.488-2.174-2.214-1.505-1.105-3.842.635-1.338.664-1.978 2.325-3.339 4.1-3.359 6.444-10.345 5.535-13.64-.375-1.355-1.005-3.08-1.574-3.833-.972-1.286-1.036-1.211-1.057 1.257-.018 2.16-5.476 4.643-6.64 4.643-.117 0-.241.023-.373.063-1.02 1.609-1.858 2.62-2.508 3.818-3.16 4.441-2.124 4.384-3.304 4.384-1.185 0-3.758-3.075-6.98-7.914-.25-.376-1.379-.725-1.557-1.052-.088-.161-.147-.305-.21-.452-.026-.054-.054-.11-.077-.164-.044-.1-.105-.21-.14-.304a3.638 3.638 0 0 1-.186-.693l-.006-.022c-.002-.018-.01-.039-.013-.057-.004-.027.002-.048 0-.074a2.005 2.005 0 0 1 .01-.548c.003-.014 0-.032.003-.046.036-.185.112-.353.208-.512l.009-.014c.008-.014.012-.03.022-.044.11-.164.26-.314.438-.454l.013-.014.006-.003c.381-.29.912-.533 1.599-.742.162.055.313.101.487.167h2.338c.085-.272.096-.598.047-1.021-.244-2.085-5.224-8.69-6.931-8.69zm17.61 0c-.947 0-5.245 6.568-5.048 8.912.18 2.151-.227 2.187.71 2.073.832-.1 3.003-.09 3.418-.873.28-.526 1.128-5.692 1.404-6.786.781-3.091.746-3.327-.484-3.327z" opacity=".2"/>
    <path d="M21.967 4c-.762.935-1.223 1.712-2.096 2.642-2.92 3.11-2.448 5.104-.135 7.277.4.376-.898 1.716-1.341 3.468.865.7 1.09 1.77 1.88 2.583.862-1.06 2.838-3.451 3.438-4.09 0 0 1.27-2-.312-3.88-1.147-1.136-1.434-3.794-1.368-6.426.074-.172-.088-1.128-.066-1.574zm7.3 2.15c-1.097 0-1.213.392-.83 2.792.557 3.479-.65 6.657-3.361 8.661-1.131.836-3.428 3.656-3.428 4.027 0 .324-5.221 1.676-3.708 3.619.224.287-2.612 2.219.611.807 2.69-1.178 4.193 5.794 5.222 7.79l1.87 3.631-1.662 3.242c-2.422 4.727-1.72 6.277-6.28 10.897-.711.721-.594 1.614-1.156 1.244-4-2.632-.35 1.182-.6 1.528-1.817-3.803-1.286 2.14-1.288 2.143 1.735 1.906 4.967 2.216 7.509 2.144 4.238.019 6.098-2.83 7.346-4.953 3.644-6.23 8.345-11.2 9.83-10.63.647.249 2.988 2.973 5.205 6.052 2.216 3.079 4.346 5.506 4.731 5.394 1.25-.363 2.722-3.524 2.722-6.542 0-3.996-.7-4.93-1.911-6.114-.903-.883-.347-1.345-1.2-2.59-1.488-2.175-2.214-1.505-1.105-3.843.635-1.337.664-1.977 2.325-3.338 4.1-3.36 6.444-10.346 5.535-13.64-.375-1.356-1.005-3.08-1.574-3.833-.972-1.287-1.036-1.212-1.057 1.256-.018 2.161-5.476 4.643-6.64 4.643-.117 0-.241.023-.373.063-1.02 1.609-1.858 2.62-2.508 3.819-3.16 4.44-2.124 4.384-3.304 4.384-1.185 0-3.758-3.076-6.98-7.915-.25-.376-1.379-.725-1.557-1.051-.088-.162-.147-.306-.21-.452-.026-.055-.054-.111-.077-.164-.044-.1-.105-.21-.14-.304a3.638 3.638 0 0 1-.186-.693l-.006-.022c-.002-.018-.01-.04-.013-.058-.004-.026.002-.047 0-.074a2.005 2.005 0 0 1 .01-.547c.003-.015 0-.032.003-.047.036-.184.112-.353.208-.512l.009-.013c.008-.014.012-.03.022-.044.11-.165.26-.315.438-.455l.013-.014.006-.002c.381-.291.912-.534 1.599-.742.162.055.313.1.487.167h2.338c.085-.272.096-.599.047-1.022-.244-2.085-5.224-8.69-6.931-8.69zm17.61-.001c-.947 0-5.245 6.569-5.048 8.913.18 2.15-.227 2.187.71 2.073.832-.101 3.003-.091 3.418-.873.28-.527 1.128-5.693 1.404-6.786.781-3.092.746-3.327-.484-3.327z" fill="#D55C0D"/>
    <path d="M21.967 4c-.762.935-1.223 1.712-2.096 2.643-1.63 1.736-2.202 3.123-1.988 4.388.153-1 .775-2.096 1.988-3.388.873-.93 1.334-1.708 2.096-2.643-.015.3.05.818.074 1.186 0-.206-.013-.406-.008-.612.074-.172-.089-1.128-.066-1.574zm24.91 2.148c-.947 0-5.244 6.569-5.047 8.913.017.205.013.308.022.476.342-2.668 4.141-8.389 5.025-8.389.519 0 .813.058.935.338.204-1.197-.055-1.338-.935-1.338zm-17.61.002c-.869 0-1.107.292-.984 1.586.101-.465.4-.588.985-.588 1.68 0 6.521 6.39 6.906 8.58.054-.246.067-.527.025-.888-.243-2.085-5.224-8.69-6.931-8.69zm-7.222.266c-.002.06 0 .132-.012.158-.066 2.632.22 5.29 1.367 6.426a3.19 3.19 0 0 1 .748 1.654c.123-.736.047-1.71-.748-2.654-1.023-1.014-1.341-3.247-1.355-5.584zm6.498 4.592c-.118 2.647-1.305 4.997-3.467 6.596-1.131.836-3.428 3.655-3.428 4.027 0 .312-4.822 1.577-3.832 3.404.705-1.283 3.832-2.153 3.832-2.404 0-.372 2.297-3.191 3.428-4.027 2.431-1.798 3.641-4.542 3.467-7.596zm24.771 2.81c-.257-.075-.287.534-.3 2.077-.019 2.16-5.477 4.642-6.641 4.642-.117 0-.242.022-.373.063-1.02 1.608-1.858 2.62-2.508 3.818-3.16 4.44-2.124 4.385-3.304 4.385-1.186 0-3.757-3.075-6.979-7.914-.25-.376-1.38-.727-1.559-1.053-.088-.162-.147-.305-.21-.451l-.077-.164c-.043-.1-.103-.21-.138-.305a3.434 3.434 0 0 1-.155-.566c-.012.042-.028.083-.037.127-.003.014-.001.03-.004.044-.03.17-.031.356-.011.55.002.025-.004.047 0 .074.002.018.012.038.015.056l.004.022c.037.217.093.444.188.693.035.094.095.205.138.305l.076.164c.064.146.123.29.211.45.179.327 1.309.676 1.559 1.052 3.222 4.839 5.793 7.916 6.978 7.916 1.181 0 .145.056 3.305-4.385.65-1.198 1.488-2.21 2.508-3.818.131-.04.256-.063.373-.063 1.164 0 6.622-2.482 6.64-4.642.022-2.469.085-2.544 1.057-1.258.57.752 1.2 2.478 1.575 3.834.1.36.152.771.175 1.21.05-.834-.004-1.589-.175-2.21-.375-1.356-1.006-3.082-1.575-3.834-.364-.483-.6-.774-.756-.819zm-33.742.93c-.32.639-.9 1.54-1.177 2.639.092.075.174.155.253.238.546-1.37 1.428-2.388 1.088-2.707-.06-.057-.105-.113-.164-.17zm-1.88 10.93c-.49.536-1.31 1.24.255.625.002-.02.003-.041-.008-.055a1.18 1.18 0 0 1-.248-.57zm29.681 11.765c-.387 1.171.3 1.071 1.516 2.848.852 1.245.297 1.708 1.199 2.59 1.132 1.107 1.811 2.029 1.896 5.402.003-.096.016-.191.016-.287 0-3.996-.7-4.93-1.912-6.115-.902-.882-.347-1.343-1.2-2.588-.736-1.077-1.282-1.457-1.515-1.85zm-21.988.536l-1.405 2.74c-2.421 4.726-1.72 6.278-6.279 10.898-.711.721-.595 1.612-1.156 1.242-2.51-1.652-1.989-.752-1.328.223.295.136.713.372 1.328.777.561.37.445-.523 1.156-1.244 4.56-4.62 3.858-6.17 6.28-10.896l1.662-3.242-.258-.498zM14.768 53.342c-.187.43-.196 1.405-.168 2.172.04-1.272.303-2.309 1.345-.127.138-.19-.877-1.406-1.177-2.045z" fill="#F9F5D7" opacity=".1"/>
    <path d="M11.535 13.001c-2.28.007-3.39 2.903-3.39 2.903-.03-.18-.31 12.82 0 21.797.31 8.975 0 19.742 0 19.742 2.063 5.853 6.425 3.485 10.773.008.5-.709 1.333-1.656 2.754-3.125 4.552-4.709 8.25-9.762 10.668-14.579L34 36.443l-1.867-3.7c-1.027-2.034-3.37-5.61-5.21-7.94-.238-.301-.387-.528-.61-.821-3.882-4.802-8.36-10.576-14.778-10.98zm20.72 2c-3.232.516-2.28 3.771-1.454 5.13C33.878 25.065 38.946 31 40.078 31c1.128 0 3.368-2.51 6.387-7.039a72.049 72.049 0 0 1 2.977-5.312c.787-1.279.918-3.701-.762-3.649H32.255zm19.898 16c-.342.301-.681.604-1.059.891-1.64 1.247-3.494 3.27-4.121 4.496-1.095 2.142-1.079 2.312.39 4.305.842 1.14 2.258 2.734 3.149 3.543.879.798 1.333 1.605 1.512 2.765V31.603c.07-.173.117-.324.176-.484-.015-.044-.033-.075-.047-.118zm-12.797 12c-1.682.096-5.736 4.663-9.055 10.297-.953 1.618-1.604 2.62-2.219 3.29-.251 1.195.039 2.452 1.36 2.413h18.054c2.4-.304 2.726-1.988 2.399-3.43-1.165-2.702-3.742-4.716-5.18-6.687-2.153-2.97-4.429-5.6-5.058-5.84a.715.715 0 0 0-.301-.043z" opacity=".2"/>
    <path d="M39.355 42.001c-1.682.096-5.735 4.663-9.053 10.298-.953 1.617-1.605 2.619-2.22 3.288-.251 1.196.04 2.45 1.36 2.412h18.054c2.399-.304 2.725-1.988 2.398-3.429-1.165-2.702-3.74-4.718-5.178-6.688-2.154-2.97-4.428-5.598-5.058-5.838a.727.727 0 0 0-.303-.043zM52.154 30c-.342.3-.684.603-1.062.89-1.64 1.248-3.492 3.271-4.119 4.497-1.094 2.141-1.08 2.31.39 4.303.84 1.14 2.258 2.737 3.148 3.545.88.798 1.332 1.605 1.51 2.765V30.602c.071-.172.12-.323.18-.484-.015-.044-.032-.075-.047-.118zM30.802 19.128C33.879 24.064 38.944 30 40.077 30c1.127 0 3.37-2.511 6.39-7.04a71.886 71.886 0 0 1 2.973-5.312c.788-1.278.92-3.7-.761-3.647H32.254c-3.231.515-2.279 3.77-1.452 5.127zM11.534 12c-2.28.007-3.389 2.902-3.389 2.902-.03-.18-.31 12.821 0 21.797s0 19.744 0 19.744c2.063 5.853 6.423 3.485 10.772.008.5-.708 1.334-1.656 2.755-3.125 4.552-4.709 8.252-9.765 10.669-14.582l1.66-3.303-1.868-3.7c-1.027-2.035-3.372-5.607-5.213-7.938-.237-.3-.386-.53-.61-.824C22.43 18.178 17.952 12.405 11.535 12z" fill="#F9F5D7"/>
    <path d="M11.533 12c-2.28.007-3.388 2.902-3.388 2.902-.022-.135-.186 7.2-.133 14.662-.032-7.089.112-13.79.133-13.662 0 0 1.108-2.895 3.388-2.902 6.418.405 10.896 6.177 14.778 10.979.223.292.372.523.609.824 1.84 2.33 4.186 5.903 5.213 7.937l1.615 3.203.252-.502-1.867-3.7c-1.027-2.035-3.373-5.607-5.213-7.938-.237-.3-.386-.532-.61-.824C22.43 18.177 17.952 12.405 11.534 12zm20.72 2c-1.975.315-2.378 1.655-2.21 2.959.147-.928.746-1.725 2.21-1.959H48.68c.776-.024 1.153.489 1.27 1.164.161-1.107-.136-2.2-1.27-2.164H32.254zm19.901 16c-.342.3-.684.603-1.062.89-1.64 1.248-3.493 3.27-4.12 4.497-.662 1.296-.91 1.871-.683 2.564.112-.405.334-.88.684-1.564.626-1.226 2.48-3.25 4.119-4.496.33-.252.63-.516.93-.78v-.51c.07-.172.12-.323.18-.484-.015-.044-.033-.074-.048-.117zM39.355 42.002c-1.681.096-5.735 4.662-9.054 10.297-.953 1.618-1.605 2.62-2.219 3.289-.09.427-.108.86-.037 1.24.012-.08.02-.16.037-.24.614-.67 1.266-1.671 2.219-3.29 3.319-5.634 7.373-10.2 9.054-10.296a.725.725 0 0 1 .303.041c.63.24 2.905 2.867 5.059 5.838 1.437 1.97 4.013 3.987 5.178 6.69.027.118.04.241.058.363a3.709 3.709 0 0 0-.058-1.364c-1.165-2.702-3.74-4.719-5.178-6.69-2.154-2.97-4.43-5.597-5.059-5.837a.725.725 0 0 0-.303-.041zM8.273 44.42a434.983 434.983 0 0 1-.128 12.023c.005.015.012.026.017.041.028-1.035.154-5.858.111-12.064z" opacity=".2" fill="#F9F5D7"/>
</svg>
