<svg xmlns="http://www.w3.org/2000/svg" width="64" height="64" version="1">
    <path d="M32 5C16.488 5 4 17.488 4 33s12.488 28 28 28 28-12.488 28-28S47.512 5 32 5z" opacity=".2"/>
    <path d="M32 4C16.488 4 4 16.488 4 32s12.488 28 28 28 28-12.488 28-28S47.512 4 32 4z" fill="#F9F5D7"/>
    <path d="M33.738 18c-3.7 0-5.947 4.138-7.363 7.816l-1.777 5.403-2.262 7.242C21.634 40.499 21.139 43.738 19 44c-.936.114-.895-2-2-2a2 2 0 1 0 0 4h1.262c4.278 0 6.717-5.382 8.55-11.305l1.028-3.343 1.64-5.278c.847-2.181 1.2-5.77 3.52-6.074.935-.122.895 2 2 2a2 2 0 1 0 0-4z" fill="#3A393A"/>
    <path fill="#3A393A" d="M19 28h16v2H19z"/>
    <path d="M45.738 18c-3.7 0-5.947 4.138-7.363 7.816l-1.777 5.403-2.262 7.242C33.634 40.499 33.139 43.738 31 44c-.936.114-.895-2-2-2a2 2 0 1 0 0 4h1.262c4.278 0 6.717-5.382 8.55-11.305l1.028-3.343 1.64-5.278c.847-2.181 1.2-5.77 3.52-6.074.935-.122.895 2 2 2a2 2 0 1 0 0-4z" fill="#3A393A"/>
    <path fill="#3A393A" d="M31 28h16v2H31z"/>
    <path d="M32 4C16.488 4 4 16.488 4 32c0 .113.011.224.018.336C4.369 17.134 16.71 5 32 5c15.29 0 27.63 12.134 27.982 27.336.007-.112.018-.223.018-.336C60 16.488 47.512 4 32 4z" opacity=".2" fill="#F9F5D7"/>
</svg>
