<svg xmlns="http://www.w3.org/2000/svg" width="64" height="64">
    <g transform="matrix(.07871 0 0 .07871 -13.604 26.114)">
        <path d="M642.869-280.938c-153.462 0-279.503 126.13-279.503 279.703V-1.085c.036 20.228 7.36 39.29 11.712 58.95L267.684 217.73c-12.773 15.693-24.36 35.357-28.982 58.255-5.256 26.04-.825 49.905 4.516 67.94l.05.149.05.198c16.154 53.734 69.435 99.417 120.892 108.415 22.716 4.419 50.755 5.325 75.533-4.023 25.364-9.568 39.99-23.313 52.308-34.069l157.468-137.468C799.779 273.344 922.37 149.984 922.37-1.235c0-153.572-126.04-279.703-279.502-279.703z" opacity=".2"/>
        <path d="M642.869-293.642c-153.462 0-279.503 126.13-279.503 279.703V-13.79c.036 20.23 7.36 39.29 11.712 58.95L267.684 205.026c-12.773 15.693-24.36 35.357-28.982 58.255-5.256 26.04-.825 49.905 4.516 67.94l.05.148.05.199c16.154 53.734 69.435 99.417 120.892 108.415 22.716 4.418 50.755 5.325 75.533-4.023 25.364-9.569 39.99-23.314 52.308-34.069l157.468-137.468C799.779 260.64 922.37 137.28 922.37-13.939c0-153.572-126.04-279.703-279.502-279.703z" fill="#FD8019"/>
        <path d="M471.48 38.144L329.753 249.056c-18.54 20.68-20.442 36.308-13.411 60.034 10.278 34.164 30.591 50.742 61.405 55.74 30.517 6.25 41.774-1.284 64.216-20.867l197.119-172 4.366 3.121z" fill="#066678"/>
        <circle cx="642.879" cy="-1.446" r="203.267" opacity=".2"/>
        <circle cx="642.879" cy="-14.15" r="203.267" fill="#BDAD93"/>
        <path d="M468.324-119.06l-9.954 20.116c10.034 75.237 34.752 128.2 86.085 174.42 48.788 43.928 116.724 72.547 204.878 83.778l23.251-16.651C680.398 132.99 604.72 104.587 556.977 61.6c-47.742-42.987-79.07-108.808-88.653-180.66z" opacity=".4"/>
        <path d="M642.879-293.642c-153.462 0-279.517 126.143-279.517 279.715V-13.777c.001 1.014.21 1.992.248 3.001 5.104-149.207 129.007-270.162 279.269-270.162 151.389 0 276.002 122.764 279.343 273.512.051-2.171.15-4.317.15-6.5 0-153.573-126.031-279.716-279.493-279.716zM372.716 48.65L267.683 205.022c-12.773 15.693-24.36 35.363-28.981 58.26-2.129 10.547-2.6 20.707-2.134 30.297.29-5.726.922-11.59 2.134-17.592 4.621-22.898 16.208-42.567 28.981-58.26l107.39-159.87c-.685-3.094-1.565-6.135-2.357-9.206z" opacity=".2" fill="#F9F5D7"/>
        <path d="M642.879-217.417A203.267 203.267 0 0 0 439.612-14.15a203.267 203.267 0 0 0 .273 7.37 203.267 203.267 0 0 1 202.994-197.933A203.267 203.267 0 0 1 845.873-8.815a203.267 203.267 0 0 0 .273-5.335A203.267 203.267 0 0 0 642.88-217.417z" opacity=".2" fill="#F9F5D7"/>
    </g>
</svg>
