<svg xmlns="http://www.w3.org/2000/svg" width="64" height="64" version="1">
    <rect width="56" height="56" x="4" y="5" rx="2.8" ry="2.8" opacity=".2"/>
    <rect width="56" height="56" x="4" y="4" rx="2.8" ry="2.8" fill="#8F3F71"/>
    <path d="M48.198 15L28.75 46.218 24.071 39H17.4l8.997 14 4.77-.025L54.824 15z" opacity=".2"/>
    <path d="M48.198 14L28.75 45.218 24.071 38H17.4l8.997 14 4.77-.025L54.824 14z" fill="#FD8019"/>
    <path d="M39.798 15L20.35 46.218 15.671 39H9l8.997 14 4.77-.025L46.424 15z" opacity=".2"/>
    <path d="M39.798 14L20.35 45.218 15.671 38H9l8.997 14 4.77-.025L46.424 14z" fill="#B7BB25"/>
    <path d="M6.8 4C5.25 4 4 5.25 4 6.8v1C4 6.25 5.25 5 6.8 5h50.4C58.75 5 60 6.25 60 7.8v-1C60 5.25 58.75 4 57.2 4H6.8z" opacity=".1" fill="#F9F5D7"/>
    <path d="M54.5 40.6s-3.979-1.022-3.979 2.528 3.979 1.951 3.979 5.5c0 3.55-3.979 2.8-3.979 2.8" opacity=".2" fill="none" stroke="#151819" stroke-width="3" stroke-linecap="round" stroke-linejoin="round"/>
    <path d="M54.5 39.6s-3.979-1.021-3.979 2.528c0 3.55 3.979 1.951 3.979 5.501 0 3.55-3.979 2.8-3.979 2.8" fill="none" stroke="#F9F5D7" stroke-width="3" stroke-linecap="round" stroke-linejoin="round"/>
    <path d="M45.5 45.5h-2.957m3.957-5c-4.742 0-3.957 1.129-3.957 10.929" opacity=".2" fill="none" stroke="#151819" stroke-width="3" stroke-linecap="round" stroke-linejoin="round"/>
    <path d="M45.5 44.5h-2.957m3.957-5c-4.742 0-3.957 1.129-3.957 10.929" fill="none" stroke="#F9F5D7" stroke-width="3" stroke-linecap="round" stroke-linejoin="round"/>
</svg>
