<svg xmlns="http://www.w3.org/2000/svg" width="64" height="64" version="1">
    <path d="M49.872 12.643l-1.58 2.738a24 24 0 0 1 .696.793l1.118-1.938c.31-.537.186-1.177-.234-1.593zM7.046 32.908a24 24 0 0 0 11.953 21.876 24 24 0 0 0 32.786-8.786 24 24 0 0 0 3.16-12.89 24 24 0 0 1-3.16 10.89 24 24 0 0 1-32.786 8.786A24 24 0 0 1 7.046 32.908z" opacity=".2"/>
    <path d="M40.382 6.085a1.331 1.331 0 0 0-1.822.488l-1.813 3.14A24 24 0 0 0 10.215 21 24 24 0 0 0 19 53.784 24 24 0 0 0 51.783 45a24 24 0 0 0-3.492-28.616l1.815-3.144a1.33 1.33 0 0 0-.488-1.821l-9.237-5.333z" fill="#504945"/>
    <path d="M39.877 5.914a1.334 1.334 0 0 0-1.318.66l-1.813 3.137A24 24 0 0 0 10.213 21 24 24 0 0 0 7.04 33.326 24 24 0 0 1 10.213 22a24 24 0 0 1 26.533-11.29l1.813-3.136c.278-.48.804-.725 1.318-.66h.002c.172.022.344.08.504.172l9.236 5.332c.272.157.448.402.555.672.259-.612.035-1.33-.555-1.672l-9.236-5.332a1.346 1.346 0 0 0-.504-.172h-.002zm9.111 11.262l-.697 1.207a24 24 0 0 1 .348.4l.35-.607a24 24 0 0 1 5.95 15.826 24 24 0 0 1 .006.107 24 24 0 0 0-5.957-16.933z" opacity=".1" fill="#F9F5D7"/>
    <path d="M54.054 8.873c-.504-.345-1.098-.582-1.702-.748-1.206-.331-2.568-.418-3.874-.414-2.61.008-5.038.14-5.038.14l3.304 1.908c.554-.037 1.14-.047 1.743-.05 1.2-.003 2.424.098 3.336.348.912.25 1.397.613 1.545.973.412 1.008.179 1.702-.605 2.664-.784.962-2.16 1.993-3.68 3.045-1.518 1.052-3.174 2.138-4.558 3.38-1.384 1.243-2.546 2.678-2.82 4.47-.299 1.952.763 3.954 1.748 5.629a28.582 28.582 0 0 0 2.021 2.975c.822 1.106 2.457-.192 1.566-1.243 0 0-.962-1.209-1.865-2.745-.904-1.537-1.622-3.45-1.49-4.311.168-1.097.954-2.192 2.173-3.287 1.22-1.095 2.82-2.155 4.366-3.226 1.546-1.071 3.044-2.143 4.09-3.426 1.045-1.284 1.598-2.98.905-4.678-.244-.604-.66-1.06-1.164-1.404z" fill="#E6D3A3" fill-rule="evenodd"/>
    <path d="M54.927 29.98l-2.358 5.59L58 38.445l-5.875 1.576 1.202 5.999-4.969-3.625L44.426 47l-.32-6.096L38 40.648l4.569-3.976-3.681-4.925 6.018 1.138L46.42 27l2.935 5.395z" opacity=".2"/>
    <path d="M54.927 28.98l-2.358 5.59L58 37.445l-5.875 1.576 1.202 5.999-4.969-3.625L44.426 46l-.32-6.096L38 39.648l4.569-3.976-3.681-4.925 6.018 1.138L46.42 26l2.935 5.395z" fill="#FA4934"/>
    <path d="M46.422 26l-1.516 5.885-6.017-1.137.87 1.164 5.147.973L46.422 27l2.933 5.395 5.055-2.19.516-1.225-5.57 2.415L46.421 26zm6.492 8.752l-.346.818 4.178 2.211L58 37.445l-5.086-2.693zm-10.799 1.314L38 39.648l1.096.047 3.472-3.023-.453-.606zm10.2 3.905l-.19.05.967 4.827.234.172-1.012-5.05z" fill="#F9F5D7" opacity=".1"/>
</svg>
