<svg xmlns="http://www.w3.org/2000/svg" width="64" height="64" version="1">
    <path d="M48.18 58.2l2.815-44.8c.097-1.548-1.124-2.396-2.375-2.8L32 5l-16.62 5.6c-1.246.42-2.472 1.252-2.375 2.8l2.815 44.8c.097 1.548 1.059 2.8 2.374 2.8h27.612c1.315 0 2.277-1.252 2.374-2.8z" opacity=".2"/>
    <path d="M48.18 57.2l2.815-44.8c.097-1.548-1.124-2.396-2.375-2.8L32 4 15.38 9.6c-1.246.42-2.472 1.252-2.375 2.8l2.815 44.8c.097 1.548 1.059 2.8 2.374 2.8h27.612c1.315 0 2.277-1.252 2.374-2.8z" fill="#E6D3A3"/>
    <path d="M30 13l1 5 1 5 1-5 1-5h-4zm-3.834 2l-1.082.88-1.084.88 2 3.12L28 23l-.916-4-.918-4zm11.668 0l-.918 4L36 23l2-3.12 2-3.12-1.084-.88-1.082-.88zM25 24c-2.761 0-5 3.358-5 7.5 0 4.142 2.239 7.5 5 7.5s5-3.358 5-7.5c0-4.142-2.239-7.5-5-7.5zm14 0c-2.761 0-5 3.358-5 7.5 0 4.142 2.239 7.5 5 7.5s5-3.358 5-7.5c0-4.142-2.239-7.5-5-7.5zm-7.068 11.002c-.548.023-1.024.324-1.198.764l-1.332 3.377-1.33 3.37c-.39.991.89 1.86 1.95 1.323 1.817-1.161 2.131-.924 3.957 0 1.06.536 2.34-.332 1.949-1.322l-1.33-3.371-1.332-3.377c-.19-.48-.737-.79-1.334-.764zM25 46c-2.216 0-4 1.784-4 4v4c0 2.216 1.784 4 4 4h14c2.216 0 4-1.784 4-4v-4c0-2.216-1.784-4-4-4H25zm0 2h1v3h-3v-1c0-1.143.857-2 2-2zm3 0h3v3h-3v-3zm5 0h3v3h-3v-3zm5 0h1c1.143 0 2 .857 2 2v1h-3v-3zm-15 5h3v3h-1c-1.143 0-2-.857-2-2v-1zm5 0h3v3h-3v-3zm5 0h3v3h-3v-3zm5 0h3v1c0 1.143-.857 2-2 2h-1v-3z" opacity=".2"/>
    <path d="M30 12l1 5 1 5 1-5 1-5h-4zm-3.834 2l-1.082.88-1.084.88 2 3.12L28 22l-.916-4-.918-4zm11.668 0l-.918 4L36 22l2-3.12 2-3.12-1.084-.88-1.082-.88zM25 23c-2.761 0-5 3.358-5 7.5 0 4.142 2.239 7.5 5 7.5s5-3.358 5-7.5c0-4.142-2.239-7.5-5-7.5zm14 0c-2.761 0-5 3.358-5 7.5 0 4.142 2.239 7.5 5 7.5s5-3.358 5-7.5c0-4.142-2.239-7.5-5-7.5zm-7.068 11.002c-.548.023-1.024.324-1.198.764l-1.332 3.377-1.33 3.37c-.39.991.89 1.86 1.95 1.323 1.817-1.161 2.131-.924 3.957 0 1.06.536 2.34-.332 1.949-1.322l-1.33-3.371-1.332-3.377c-.19-.48-.737-.79-1.334-.764zM25 45c-2.216 0-4 1.784-4 4v4c0 2.216 1.784 4 4 4h14c2.216 0 4-1.784 4-4v-4c0-2.216-1.784-4-4-4H25zm0 2h1v3h-3v-1c0-1.143.857-2 2-2zm3 0h3v3h-3v-3zm5 0h3v3h-3v-3zm5 0h1c1.143 0 2 .857 2 2v1h-3v-3zm-15 5h3v3h-1c-1.143 0-2-.857-2-2v-1zm5 0h3v3h-3v-3zm5 0h3v3h-3v-3zm5 0h3v1c0 1.143-.857 2-2 2h-1v-3z" fill="#504945"/>
    <path d="M32 4L15.379 9.6c-1.246.42-2.47 1.252-2.373 2.8l.027.436c.194-1.192 1.26-1.87 2.346-2.236L32 5l16.621 5.6c1.088.351 2.151 1.04 2.346 2.232l.027-.432c.097-1.548-1.122-2.396-2.373-2.8L32 4z" fill="#F9F5D7" opacity=".2"/>
</svg>
