<svg xmlns="http://www.w3.org/2000/svg" width="64" height="64" version="1">
    <path d="M10.059 15.175c-.018.062-.059.116-.059.183 0 7.709 2.009 16.62 5.511 24.447 2.842 6.351 7.952 14.82 16.156 19.113a.715.715 0 0 0 .664 0c8.204-4.292 13.314-12.762 16.155-19.113 3.503-7.828 5.511-16.74 5.511-24.447 0-.067-.041-.12-.058-.183-.284 7.272-2.22 15.407-5.453 22.632-2.842 6.35-7.952 14.82-16.155 19.112a.715.715 0 0 1-.664 0c-8.203-4.292-13.314-12.762-16.155-19.112-3.232-7.224-5.17-15.36-5.453-22.631z" opacity=".2"/>
    <path d="M53.514 13.662L32.24 6.045a.715.715 0 0 0-.483 0l-21.272 7.617a.737.737 0 0 0-.485.695c0 7.708 2.01 16.62 5.512 24.447 2.841 6.35 7.95 14.822 16.155 19.113a.717.717 0 0 0 .665 0c8.204-4.292 13.314-12.763 16.155-19.113C51.991 30.976 54 22.064 54 14.357a.737.737 0 0 0-.485-.695z" fill="#066678"/>
    <path d="M43.734 23.126l-11.603-4.101a.395.395 0 0 0-.263 0l-11.604 4.101A.397.397 0 0 0 20 23.5c0 4.151 1.096 8.95 3.006 13.164 1.55 3.42 4.337 7.981 8.812 10.292a.395.395 0 0 0 .363 0c4.475-2.311 7.262-6.873 8.812-10.292 1.91-4.215 3.006-9.013 3.006-13.164a.397.397 0 0 0-.264-.374z" opacity=".2"/>
    <path d="M43.734 22.126l-11.603-4.101a.395.395 0 0 0-.263 0l-11.604 4.101a.397.397 0 0 0-.264.375c0 4.15 1.096 8.948 3.006 13.163 1.55 3.42 4.337 7.981 8.812 10.292a.395.395 0 0 0 .363 0c4.475-2.311 7.262-6.872 8.812-10.292 1.91-4.215 3.006-9.013 3.006-13.163a.397.397 0 0 0-.264-.375z" fill="#F9F5D7"/>
    <path d="M32 6.004a.717.717 0 0 0-.242.04l-21.274 7.618a.737.737 0 0 0-.484.695c0 .272.017.553.027.83a.729.729 0 0 1 .457-.525l21.274-7.617a.72.72 0 0 1 .484 0l21.272 7.617c.235.084.4.287.457.525.01-.277.027-.558.027-.83a.737.737 0 0 0-.484-.695L32.242 6.045A.717.717 0 0 0 32 6.004z" opacity=".2" fill="#F9F5D7"/>
</svg>
