<svg xmlns="http://www.w3.org/2000/svg" width="64" height="64" version="1">
    <path d="M4 56.2v2C4 59.75 5.25 61 6.8 61h50.4c1.55 0 2.8-1.25 2.8-2.8v-2c0 1.55-1.25 2.8-2.8 2.8H6.8C5.25 59 4 57.75 4 56.2z" opacity=".2"/>
    <path d="M60 57.2V6.8C60 5.25 58.75 4 57.2 4H6.8A2.794 2.794 0 0 0 4 6.8v50.4C4 58.752 5.249 60 6.8 60h50.4c1.55 0 2.8-1.249 2.8-2.8z" fill="#7CB668"/>
    <path d="M46 25c-1.529-4.844-6.755-5.963-10.966-6-3.71 0-6.436 1.389-8.179 3.837C25.127 25.269 24 27.76 24 33.012c0 5.206 1.097 7.841 2.76 10.305 1.662 2.448 5.05 3.658 7.77 3.672C36.93 47 39.611 45.965 42 45v-7.846h-4V35h12v12c-5.253 2.801-10.77 3.977-16.261 4-6.14 0-10.968-1.604-14.486-4.811-3.502-3.208-5.253-7.6-5.253-13.178 0-5.593 1.751-9.993 5.253-13.2 3.518-3.207 8.346-4.81 14.486-4.81 5.24.17 9.785 1.236 14.261 3v7z" opacity=".2" fill="#F9F5D7"/>
    <path d="M46 24c-1.529-4.844-6.755-5.963-10.966-6-3.71 0-6.436 1.389-8.178 3.837C25.128 24.269 24 26.76 24 32.012c0 5.206 1.096 7.841 2.76 10.305 1.662 2.448 5.05 3.658 7.77 3.672C36.93 46 39.612 44.965 42 44v-7.846h-4V34h12v12c-5.254 2.801-10.77 3.977-16.261 4-6.14 0-10.969-1.604-14.487-4.811C15.751 41.982 14 37.59 14 32.012c0-5.593 1.75-9.993 5.252-13.2 3.518-3.207 8.346-4.81 14.486-4.81 5.24.17 9.786 1.236 14.262 3v7z" fill="#322F2E"/>
    <path d="M6.8 4C5.25 4 4 5.25 4 6.8v1.003c0-1.551 1.25-2.801 2.8-2.801h50.4c1.55 0 2.8 1.25 2.8 2.8V6.802C60 5.25 58.75 4 57.2 4H6.8z" opacity=".2" fill="#F9F5D7"/>
</svg>
