<svg xmlns="http://www.w3.org/2000/svg" width="64" height="64" version="1">
    <path d="M4.05 32c-.011.334-.05.662-.05 1 0 15.432 12.568 28 28 28 15.431 0 28-12.568 28-28 0-.338-.039-.666-.05-1C59.414 46.968 47.092 59 32 59 16.906 59 4.584 46.968 4.05 32z" opacity=".2"/>
    <path d="M32 4C16.568 4 4 16.57 4 32c0 15.432 12.568 28 28 28 15.431 0 28-12.568 28-28C60 16.57 47.43 4 32 4z" fill="#FD8019"/>
    <path d="M32 13a20 20 0 0 0-20 20 20 20 0 0 0 20 20 20 20 0 0 0 20-20 20 20 0 0 0-20-20zm-8 6H30.645l8.935 21.81 4.672-1.876 1.49 3.712L37.391 46v-.002l-.006.002-5.838-14.232L21.336 47 18 44.992l11.713-17.699L27.95 23H24v-4z" opacity=".2"/>
    <path d="M32 12a20 20 0 0 0-20 20 20 20 0 0 0 20 20 20 20 0 0 0 20-20 20 20 0 0 0-20-20zm-8 6H30.645l8.935 21.81 4.672-1.876 1.49 3.712L37.391 45v-.002l-.006.002-5.838-14.232L21.336 46 18 43.992l11.713-17.699L27.95 22H24v-4z" fill="#F9F5D7"/>
    <path d="M32 4C16.568 4 4 16.57 4 32c0 .338.039.666.05 1C4.585 18.034 16.906 6 32 6c15.094 0 27.416 12.033 27.95 27 .012-.334.05-.662.05-1C60 16.57 47.432 4 32 4z" opacity=".2" fill="#F9F5D7"/>
</svg>
