<svg xmlns="http://www.w3.org/2000/svg" width="64" height="64">
    <path d="M20.899 60.061c-.369-.557-1.038-1.771-1.488-2.7-.965-1.99-1.345-2.053-3.428-.562-2.61 1.87-3.611 1.357-2.814-1.442.262-.924.318-1.835.123-2.025-.196-.189-1.404.043-2.686.515-2.934 1.082-3.816.702-2.8-1.205.397-.744.607-1.464.466-1.6-.14-.137-1.097.04-2.126.392-3.551 1.216-4.031.587-1.767-2.316.757-.972 1.383-2.145 1.39-2.608.008-.462.64-1.532 1.405-2.378 1.75-1.934 3.713-5.651 3.697-7.002-4.474-6.657-2.46-9.773.469-15.482.766-1.64 1.79-4.89 2.729-5.751 3.98-5.26 11.717-5.109 15.894-.072 1.263.803 3.443 5.365 3.861 7.009 5.16 6.318-1.137 11.176-.433 14.555.374 1.744 2.143 4.778 3.952 6.777.748.827 1.36 1.964 1.36 2.527 0 .562.522 1.686 1.16 2.498 1.93 2.455 1.393 3.242-1.532 2.24-2.255-.772-2.586-.543-1.68 1.16.628 1.176.62 1.327-.073 1.586-.422.157-1.774-.027-3.004-.409-1.23-.382-2.34-.593-2.467-.47-.127.122-.11 1.214.038 2.425.234 1.914.16 2.201-.563 2.201-.458 0-1.517-.506-2.352-1.125-.836-.618-1.74-1.125-2.008-1.125-.269 0-1.12 1.215-1.892 2.7-1.501 2.885-2.36 3.307-3.431 1.687z" opacity=".2"/>
    <path d="M20.899 59.061c-.369-.557-1.038-1.771-1.488-2.7-.965-1.99-1.345-2.053-3.428-.562-2.61 1.87-3.611 1.357-2.814-1.442.262-.924.318-1.835.123-2.025-.196-.189-1.404.043-2.686.515-2.934 1.082-3.816.702-2.8-1.205.397-.744.607-1.464.466-1.6-.14-.137-1.097.04-2.126.392-3.551 1.216-4.031.587-1.767-2.316.757-.972 1.383-2.145 1.39-2.608.008-.462.64-1.532 1.405-2.378 1.75-1.934 3.713-5.651 3.697-7.002-4.474-6.657-2.46-9.773.469-15.482.766-1.64 1.79-4.89 2.729-5.751 3.98-5.26 11.717-5.109 15.894-.072 1.263.803 3.443 5.365 3.861 7.009 5.16 6.318-1.137 11.176-.433 14.555.374 1.744 2.143 4.778 3.952 6.777.748.827 1.36 1.964 1.36 2.527 0 .562.522 1.686 1.16 2.498 1.93 2.455 1.393 3.242-1.532 2.24-2.255-.772-2.586-.543-1.68 1.16.628 1.176.62 1.327-.073 1.586-.422.157-1.774-.027-3.004-.409-1.23-.382-2.34-.593-2.467-.47-.127.122-.11 1.214.038 2.425.234 1.914.16 2.201-.563 2.201-.458 0-1.517-.506-2.352-1.125-.836-.618-1.74-1.125-2.008-1.125-.269 0-1.12 1.215-1.892 2.7-1.501 2.885-2.36 3.307-3.431 1.687z" fill="#066678"/>
    <path d="M12.726 33.29s3.316-3.317 9.09-3.317c5.773 0 9.458 4.054 9.458 4.054s-.122 2.334-1.474 3.07c-1.35.738-5.036-3.439-8.476-3.439-3.44 0-7.002 2.949-7.002 2.949z" fill="#F9BD2E"/>
    <path d="M21.943 11c-2.954-.01-5.883 1.269-7.873 3.898-.94.86-1.964 4.11-2.73 5.75-1.802 3.514-3.252 6.047-3.063 9.026.149-2.566 1.465-4.912 3.062-8.026.767-1.64 1.791-4.89 2.73-5.75 3.98-5.259 11.717-5.109 15.893-.072 1.263.803 3.444 5.364 3.862 7.008 1.376 1.685 1.925 3.263 2.021 4.74.12-1.756-.33-3.669-2.021-5.74-.418-1.644-2.599-6.205-3.862-7.008-2.088-2.518-5.065-3.816-8.02-3.826zm11.443 25.326c-.051.368-.064.727.006 1.065.374 1.744 2.143 4.776 3.951 6.775.749.827 1.362 1.965 1.362 2.527 0 .563.52 1.687 1.158 2.498.472.601.793 1.1.97 1.499.39-.332.076-1.168-.97-2.499-.638-.81-1.158-1.935-1.158-2.498 0-.562-.613-1.7-1.362-2.527-1.808-1.999-3.577-5.03-3.95-6.775-.005-.021-.003-.044-.007-.065zm-22.652.59c-.456 1.675-2.077 4.579-3.559 6.217-.765.846-1.399 1.917-1.406 2.379-.007.462-.633 1.635-1.39 2.607-1.241 1.591-1.651 2.496-1.19 2.791.214-.453.607-1.044 1.19-1.79.757-.973 1.383-2.146 1.39-2.608.007-.462.64-1.533 1.406-2.38 1.75-1.933 3.711-5.65 3.696-7.001-.05-.074-.089-.142-.137-.215z" opacity=".2" fill="#F9F5D7"/>
    <path d="M13 7.745s1.357 7.538 9.071 9.255c0 0 .645-5.254-1.515-7.068C18.395 8.118 13 7.745 13 7.745z" fill="#D79921"/>
    <path d="M31 7.59s-1.214 7.441-8.929 9.41c0 0-.715-5.242 1.413-7.093S31 7.59 31 7.59z" fill="#D79921"/>
    <path d="M22.097 4s-7.717 6.672-.026 13c7.332-6.584.026-13 .026-13z" fill="#F9BD2E"/>
    <g transform="translate(-10)">
        <circle cx="21.5" cy="28.5" r="6.5" fill="#F9BD2E"/>
        <path d="M21.5 24.5a4 4 0 0 0-4 4 4 4 0 0 0 4 4 4 4 0 0 0 4-4 4 4 0 0 0-4-4zm0 2.666a1.333 1.333 0 0 1 1.333 1.334 1.333 1.333 0 0 1-1.333 1.333 1.333 1.333 0 0 1-1.333-1.333 1.333 1.333 0 0 1 1.333-1.334z" fill="#504945"/>
    </g>
    <g transform="translate(-10)">
        <circle cx="41.5" cy="28.5" r="6.5" fill="#F9BD2E"/>
        <path d="M41.5 24.5a4 4 0 0 0-4 4 4 4 0 0 0 4 4 4 4 0 0 0 4-4 4 4 0 0 0-4-4zm0 2.666a1.333 1.333 0 0 1 1.333 1.334 1.333 1.333 0 0 1-1.333 1.333 1.333 1.333 0 0 1-1.333-1.333 1.333 1.333 0 0 1 1.333-1.334z" fill="#504945"/>
    </g>
    <path d="M21.882 32c-2.545-.01-4.984.573-6.84 1.73L13 35l1.83 3.616c1.173 2.319 2.7 4.472 4.256 6 1.335 1.31 2.77 2.383 3.192 2.383 1.26 0 5.735-5.022 7.48-8.395.895-1.73 1.427-3.026 1.183-2.877-.245.148-.63-.212-.858-.801-.257-.663-1.132-1.352-2.298-1.81A16.479 16.479 0 0 0 21.882 32z" fill="#504945"/>
    <g style="line-height:1.25" font-weight="700" font-size="22.165" font-family="DejaVu Serif" letter-spacing="0" word-spacing="0" fill="#928274">
        <path d="M53.023 19.763h-4.808l-1.275 4.474h4.808zM50.965 10l-1.748 6.286h4.808L55.79 10h4.025l-1.767 6.286H61v3.477h-3.916l-1.256 4.474H61v3.51h-6.12L53.133 34h-4.024l1.748-6.253h-4.808L44.3 34h-4.061l1.748-6.253H39v-3.51h3.88l1.274-4.474H39v-3.477h6.156L46.904 10z"/>
    </g>
</svg>
