<svg xmlns="http://www.w3.org/2000/svg" width="64" height="64" version="1">
    <path d="M33.068 4c-.383.405-.699.786-1.039 1.176A28.124 28.124 0 0 1 33.07 4zm0 0c-6.174 5.029-7.83 10.91-8.101 16.472-.253 5.205 1.06 10.086 2.539 13.77h-.004a13 13 0 0 0-8.027 5.152l.05-.305.02-.03-.016-.005v-.004c0-1.607-.773-2.549-1.738-3.738.174 2.717-1 4.204-.691 6.797.053.446.232.818.445 1.172a13.002 13.002 0 0 0-.535 4.097c-.751-1.014-1.388-2.098-1.207-3.289-1.758 9.569 8.183 20.34 19.214 17.426 7.475-1.839 11.93-7.249 13.403-13.355.85-3.527.585-7.163-.188-10.215-.63-2.486-1.913-5.107-3.847-7.516-2.86-3.56-6.25-5.74-8.989-8.046-.296-3.428-.491-6.61-.437-10.188.01-.71.42-1.98.547-2.683-.761 1.446-1.68 2.21-2.29 3.68-.581 1.402-1.124 3.683-1.456 5.152a9.757 9.757 0 0 1-.758-1.582C29.896 11.787 32.602 5.226 33.068 4z" opacity=".2"/>
    <path d="M31.935 4.864c-4.723 4.584-6.227 9.68-6.468 14.633-.249 5.113 1.049 9.935 2.511 13.574a.5.5 0 0 1-.367.68 12.484 12.484 0 0 0-7.73 4.937.5.5 0 0 1-.899-.375l.043-.266c0-.836-.563-1.38-.937-1.98-.084.591-.09 1.282-.207 1.8-.232 1.032-.43 1.973-.285 3.184.041.347.182.645.379.973a.5.5 0 0 1 .05.402 12.483 12.483 0 0 0-.515 3.937.5.5 0 0 1-.856.368c.918 8.078 8.942 15.755 18.235 13.3a.5.5 0 0 1 .007 0c7.298-1.795 11.604-7.04 13.04-12.988.826-3.427.568-6.99-.188-9.976-.61-2.41-1.863-4.97-3.754-7.324-2.801-3.489-6.142-5.64-8.918-7.977a.5.5 0 0 1-.18-.34c-.297-3.435-.492-6.637-.437-10.238 0-.024.01-.054.012-.078-.262.386-.596.797-.793 1.273-.55 1.328-1.1 3.608-1.43 5.07a.5.5 0 0 1-.922.141 10.215 10.215 0 0 1-.793-1.66.5.5 0 0 1-.02-.062c-.581-2.618-.16-5.561.446-8.016.36-1.46.638-2.058.976-2.992zM20.03 37.699l-.066.083a.5.5 0 0 1 .066.156z" fill="#FD8019"/>
    <path d="M35.507 8.512c-.76 1.446-1.682 2.208-2.292 3.678-.812 1.959-1.791 6.613-1.791 6.613l1.953 2.973 2.159 1.43c-.402-4.198-.641-7.791-.577-12.01.01-.711.422-1.98.548-2.684z" fill="#FD8019"/>
    <path d="M33.069 3s-6.066 6.242-5.553 11.066c.418 3.929 8.288 16.654 10.787 24.626l-7.53.687c-1.436-1.674-6.272-10.314-5.805-19.905.27-5.563 1.927-11.445 8.101-16.474z" fill="#FD8019"/>
    <path d="M17.792 34.313c.174 2.717-1.002 4.205-.693 6.797.132 1.113.967 1.801 1.477 2.752l.342-2.086c.028-.163.053-.322.08-.489l.526-3.199.022-.027-.016-.006v-.002c0-1.608-.773-2.55-1.738-3.74z" fill="#CB241D"/>
    <circle cx="24.158" cy="49.318" r="13" transform="rotate(-7.012)" fill="#F9BD2E"/>
    <path d="M33.068 3c-10.64 11.234-4.297 16.574.11 24.543 1.068 2.016 2.296 5.151 2.664 6.847a12.987 12.987 0 0 1 6.64 8.035l.008.02c.026.075.05.15.074.227.06.198.113.399.164.601.066.25.131.495.18.758l.008.035c.052.277.098.557.133.84.015.125.01.224.02.344.002.042 0 .086.003.129.026.399.025.77-.012 1.109a11.534 11.534 0 0 1-.27 2.043c-.1.374-.247.718-.378 1.07-.005.012-.007.027-.012.04v.003c-1.619 4.294-5.333 6.991-9 7.816-5.607.962-10.334-2.023-11.472-6.21-.223-1.381.125-3.235.925-3.703-.462.158-1.024.338-1.699.964-1.136 1.056-.726 1.434-2.21 1.844.753-2.093-3.579-4.378-3.141-7.265-.736 4.005.578 8.22 3.164 11.556C22.559 59.277 28.587 61.694 35 60c7.474-1.839 11.946-6.734 13.42-12.84.85-3.526.585-7.163-.188-10.215-.63-2.486-1.914-5.107-3.848-7.515-4.881-6.079-11.364-8.12-13.382-13.668-1.106-4.975 1.6-11.536 2.066-12.762z" fill="#CB241D"/>
    <path d="M43.047 32.554l1.558 3.438.085.247.716 2.61c.78 3.693.67 7.546-.467 10.558-1.642 4.347-4.355 7.746-8.108 9.298-6.57 2.715-15.108.572-18.634-6.296.14.644.32 1.273.538 1.89 3.556 4.822 9.715 7.95 16.28 6.215 7.475-1.839 11.931-7.249 13.404-13.355.092-.379.166-.758.233-1.139v-.003a19.568 19.568 0 0 0-.14-2.16 19.47 19.47 0 0 0-1.752-5.95l.017-.012-.153-.263c-.411-.83-.878-1.631-1.402-2.399l-.076-.133z" fill="#FD8019"/>
    <path d="M29.71 33.004a13 13 0 0 0-1.298.094 13 13 0 0 0-11.378 13.26 13 13 0 0 1 11.378-12.26 13 13 0 0 1 1.297-.094 13 13 0 0 1 13.192 11.41 13 13 0 0 1 .068 1.025 13 13 0 0 0-.068-2.025 13 13 0 0 0-13.192-11.41z" opacity=".2" fill="#F9F5D7"/>
</svg>
