<svg xmlns="http://www.w3.org/2000/svg" width="64" height="64" version="1">
    <path d="M32 5c-.09 0-.18.016-.265.046-6.65 4.889-14.13 8.125-23.206 8.204a.795.795 0 0 0-.529.749c0 8.302 2.192 17.898 6.014 26.33 3.1 6.839 8.671 15.962 17.622 20.584a.795.795 0 0 0 .728 0c8.95-4.622 14.523-13.745 17.622-20.585C53.808 31.898 56 22.301 56 13.998a.795.795 0 0 0-.53-.748c-9.074-.079-16.556-3.315-23.205-8.204A.798.798 0 0 0 32 5z" opacity=".2"/>
    <path d="M32 4c-.09 0-.18.016-.265.046-6.65 4.889-14.13 8.125-23.206 8.204a.795.795 0 0 0-.529.749c0 8.302 2.192 17.898 6.014 26.33 3.1 6.839 8.671 15.962 17.622 20.584a.795.795 0 0 0 .728 0c8.95-4.622 14.523-13.745 17.622-20.585C53.808 30.898 56 21.301 56 12.998a.795.795 0 0 0-.53-.748c-9.074-.079-16.556-3.315-23.205-8.204A.798.798 0 0 0 32 4z" fill="#F9BD2E"/>
    <path d="M32 11.538c5.244 3.346 11.165 5.805 17.829 6.762-.585 6.414-2.131 13.416-4.994 19.731C42.325 43.573 37.9 50.323 32 54.375c-5.9-4.052-10.324-10.802-12.835-16.344-2.863-6.315-4.409-13.317-4.994-19.731 6.664-.957 12.585-3.416 17.829-6.762z" opacity=".1"/>
    <path d="M32 10.538c5.244 3.346 11.165 5.805 17.829 6.762-.585 6.414-2.131 13.416-4.994 19.731C42.325 42.573 37.9 49.323 32 53.375c-5.9-4.052-10.324-10.802-12.835-16.344-2.863-6.315-4.409-13.317-4.994-19.731 6.664-.957 12.585-3.416 17.829-6.762z" fill="#E6D3A3"/>
    <path d="M32 10.538v42.837c5.9-4.052 10.324-10.802 12.835-16.344 2.863-6.315 4.409-13.317 4.994-19.731-6.664-.957-12.585-3.416-17.829-6.762z" fill="#FD8019"/>
    <path d="M32 4c-.09 0-.18.017-.266.047-6.65 4.888-14.128 8.124-23.203 8.203A.798.798 0 0 0 8 13c0 .273.017.554.027.832a.79.79 0 0 1 .504-.582c9.075-.079 16.554-3.315 23.203-8.203A.804.804 0 0 1 32 5c.09 0 .18.017.266.047 6.65 4.888 14.128 8.124 23.203 8.203a.79.79 0 0 1 .504.582c.01-.278.027-.56.027-.832a.798.798 0 0 0-.531-.75c-9.075-.079-16.554-3.315-23.203-8.203A.804.804 0 0 0 32 4z" opacity=".2" fill="#F9F5D7"/>
</svg>
