<svg xmlns="http://www.w3.org/2000/svg" width="64" height="64" version="1">
    <rect width="56" height="56" x="4" y="5" rx="28" ry="28" opacity=".2"/>
    <rect width="56" height="56" x="4" y="4" rx="28" ry="28" fill="#504945"/>
    <path d="M32 4C16.488 4 4 16.488 4 32c0 .168.01.333.014.5C4.28 17.221 16.656 5 32 5s27.72 12.221 27.986 27.5c.003-.167.014-.332.014-.5C60 16.488 47.512 4 32 4z" fill="#F9F5D7" opacity=".1"/>
    <path d="M31.3 13v.01a6 6 0 0 0-.2 0c-9.21.418-16.997 7.154-18.74 16.207s2.986 18.197 11.382 22.006a19.913 19.913 0 0 0 9.807 1.715c5.476-.432 10.708-3.1 14.248-7.647a6 6 0 1 0-9.469-7.37 7.956 7.956 0 0 1-9.629 2.374 7.958 7.958 0 0 1-4.556-8.81A7.954 7.954 0 0 1 31.623 25H50V13z" opacity=".2"/>
    <path d="M31.373 18.004a14.01 14.01 0 0 0-13.09 11.187 14.01 14.01 0 0 0 7.642 15.43 14.01 14.01 0 0 0 16.831-3.635" fill="none" stroke-linecap="round" stroke-linejoin="round" stroke-width="12" stroke="#F9F5D7"/>
    <path d="M31.3 12H50v12H31.3z" fill="#F9F5D7"/>
    <path d="M46.055 9A2.985 3.006 0 0 0 43 12.005v13.991a2.985 3.006 0 0 0 4.477 2.603l6.016-3.497 6.016-3.499a2.985 3.006 0 0 0 0-5.205L53.493 12.9l-6.016-3.497a2.985 3.006 0 0 0-1.422-.401z" opacity=".2"/>
    <path d="M46.055 8A2.985 3.006 0 0 0 43 11.005v13.991a2.985 3.006 0 0 0 4.477 2.603l6.016-3.497 6.016-3.499a2.985 3.006 0 0 0 0-5.205L53.493 11.9l-6.016-3.497a2.985 3.006 0 0 0-1.422-.401z" fill="#7CB668"/>
    <path d="M46.055 8A2.985 3.006 0 0 0 43 11.004v1A2.985 3.006 0 0 1 46.055 9a2.985 3.006 0 0 1 1.422.402l6.015 3.496 6.016 3.498a2.985 3.006 0 0 1 1.449 2.104 2.985 3.006 0 0 0-1.45-3.104l-6.015-3.498-6.015-3.496A2.985 3.006 0 0 0 46.055 8z" fill="#F9F5D7" opacity=".2"/>
</svg>
