<svg xmlns="http://www.w3.org/2000/svg" width="64" height="64" version="1">
    <rect width="38" height="38" x="5" y="-60" rx="3" ry="3" transform="rotate(90)" opacity=".2"/>
    <rect width="38" height="38" x="4" y="-60" rx="3" ry="3" transform="rotate(90)" fill="#48B9C7"/>
    <path d="M28 16v-2h24v2zM28 22v-2h24v2zM28 28v-2h24v2zM28 34v-2h16v2z" opacity=".2"/>
    <rect width="38" height="38" x="23" y="-42" rx="3" ry="3" transform="rotate(90)" opacity=".2"/>
    <rect width="38" height="38" x="22" y="-42" rx="3" ry="3" transform="rotate(90)" fill="#48B9C7"/>
    <path d="M25 4c-1.662 0-3 1.338-3 3v1c0-1.662 1.338-3 3-3h32c1.662 0 3 1.338 3 3V7c0-1.662-1.338-3-3-3H25zM7 22c-1.662 0-3 1.338-3 3v1c0-1.662 1.338-3 3-3h32c1.662 0 3 1.338 3 3v-1c0-1.662-1.338-3-3-3H7z" opacity=".1" fill="#F9F5D7"/>
    <path d="M10 34v-2h24v2zM10 40v-2h24v2zM10 46v-2h24v2zM10 52v-2h16v2z" opacity=".5"/>
</svg>
