<svg xmlns="http://www.w3.org/2000/svg" width="64" height="64" version="1">
    <path d="M58 7l-4 4v2l6-6h-2zM20 36v2c0 1.662 1.338 3 3 3h28c1.662 0 3-1.338 3-3v-2c0 1.662-1.338 3-3 3H23c-1.662 0-3-1.338-3-3z" opacity=".2"/>
    <path d="M23 6c-1.662 0-3 1.338-3 3v28c0 1.662 1.338 3 3 3h28c1.662 0 3-1.338 3-3V12l6-6H23z" fill="#7CB668"/>
    <path d="M23 6c-1.662 0-3 1.338-3 3v1c0-1.662 1.338-3 3-3h36l1-1H23z" opacity=".1" fill="#F9F5D7"/>
    <path d="M4 25l6 6v-2l-4-4H4zm6 29v2c0 1.662 1.338 3 3 3h28c1.662 0 3-1.338 3-3v-2c0 1.662-1.338 3-3 3H13c-1.662 0-3-1.338-3-3z" opacity=".2"/>
    <path d="M4 24l6 6v25c0 1.662 1.338 3 3 3h28c1.662 0 3-1.338 3-3V27c0-1.662-1.338-3-3-3H4z" fill="#7CB668"/>
    <path d="M4 24l1 1h36c1.662 0 3 1.338 3 3v-1c0-1.662-1.338-3-3-3H4z" opacity=".1" fill="#F9F5D7"/>
    <path d="M23.066 31l-1.059 6h-5.882v2h5.53l-1.062 6h-4.469v2h4.118l-1.059 6h2l1.059-6h5l-1.059 6h2l1.059-6h6.882v-2h-6.53l1.062-6h5.469v-2h-5.118l1.059-6h-2l-1.059 6h-5l1.059-6zm.59 8h5l-1.063 6h-5z" opacity=".2" fill-rule="evenodd"/>
    <path d="M22.942 30l-1.06 6H16v2h5.531l-1.062 6H16v2h4.117l-1.058 6h2l1.058-6h5l-1.058 6h2l1.058-6H36v-2h-6.531l1.062-6h5.47v-2h-5.118l1.058-6h-2l-1.058 6h-5l1.058-6zm.59 8h5l-1.063 6h-5z" fill="#F9F5D7" fill-rule="evenodd"/>
</svg>
