<svg xmlns="http://www.w3.org/2000/svg" width="64" height="64" version="1">
    <rect width="56" height="56" x="4" y="5" rx="2.8" ry="2.8" opacity=".2"/>
    <rect width="56" height="56" x="4" y="4" rx="2.8" ry="2.8" fill="#066678"/>
    <path d="M31 15a12 12 0 0 0-11.96 11.229A9 9 0 0 0 12 35a9 9 0 0 0 9 9h-.043l.818.045c.195.683.373 1.377.325 2.053.023 1.698-.91 2.732-2.053 3.722-.29.155-.513.334-.492.399.069.213 1.402.667 2.187.746 1.013.101 2.422-.022 3.229-.324 1.282-.481 2.313-1.283 3.039-2.37.62-.929.945-1.848 1.043-2.921l.082-1.305L34.156 44H44.5a7.5 7.5 0 0 0 7.5-7.5 7.5 7.5 0 0 0-7.5-7.5 7.5 7.5 0 0 0-1.71.207A12 12 0 0 0 43 27a12 12 0 0 0-12-12z" opacity=".2"/>
    <path d="M31 14a12 12 0 0 0-11.96 11.229A9 9 0 0 0 12 34a9 9 0 0 0 9 9h-.043l.818.045c.195.683.373 1.377.325 2.053.023 1.698-.91 2.732-2.053 3.722-.29.155-.513.334-.492.399.069.213 1.402.667 2.187.746 1.013.101 2.422-.022 3.229-.324 1.282-.481 2.313-1.283 3.039-2.37.62-.929.945-1.848 1.043-2.921l.082-1.305L34.156 43H44.5a7.5 7.5 0 0 0 7.5-7.5 7.5 7.5 0 0 0-7.5-7.5 7.5 7.5 0 0 0-1.71.207A12 12 0 0 0 43 26a12 12 0 0 0-12-12z" fill="#F9F5D7"/>
    <path d="M6.8 4C5.25 4 4 5.25 4 6.8v1C4 6.25 5.25 5 6.8 5h50.4C58.75 5 60 6.25 60 7.8v-1C60 5.25 58.75 4 57.2 4H6.8z" fill="#F9F5D7" opacity=".2"/>
</svg>
