<svg xmlns="http://www.w3.org/2000/svg" width="64" height="64">
    <path d="M32.004 5C24.593 5 .737 48.25 4.374 55.554c3.638 7.304 51.66 7.22 55.258 0C63.23 48.334 39.413 5 32.004 5z" opacity=".2"/>
    <path d="M32.004 4C24.593 4 .737 47.25 4.374 54.554c3.638 7.304 51.66 7.22 55.258 0C63.23 47.334 39.413 4 32.004 4z" fill="#8F3F71"/>
    <path d="M49.764 48.498c-2.313 4.643-33.183 4.695-35.523 0C11.901 43.803 27.24 16 32.002 16c4.764 0 20.074 27.854 17.762 32.498z" opacity=".2"/>
    <path d="M49.764 47.498c-2.313 4.643-33.183 4.695-35.523 0C11.901 42.803 27.24 15 32.002 15c4.764 0 20.074 27.854 17.762 32.498z" fill="#F9F5D7"/>
    <path d="M32.001 24c-2.646 0-11.167 15.447-9.867 18.055 1.3 2.608 18.45 2.58 19.735 0C43.153 39.475 34.649 24 32 24z" fill="#066678"/>
    <path d="M32.004 4c-7 0-28.66 38.57-27.975 49.004C4.617 41.32 25.211 5 32.004 5c6.794 0 27.369 36.418 27.967 48.035C60.652 42.692 39.007 4 32.004 4z" fill="#F9F5D7" opacity=".2"/>
</svg>
