<svg xmlns="http://www.w3.org/2000/svg" width="64" height="64">
    <circle cx="32" cy="33" r="28" opacity=".2"/>
    <circle cx="32" cy="32" r="28" fill="#9D0006"/>
    <path d="M42.297 6.988c-4.615 4.894-7.463 10.12-8.84 16.067-1.782 7.693-1.5 16.146-1.332 27.945h10c-.09-6.394-.104-11.59.063-16H50V25h-6.672c1.171-4.829 3.123-8.386 7.617-12.57a28 28 0 0 0-8.648-5.442zM30 12.945l-10 .11c.175 15.817-.312 23.665-1.715 27.96-1.242 3.805-3.309 5.878-7.695 9.985a28 28 0 0 0 7.742 6.426c4.303-4.091 7.628-7.692 9.461-13.305 2.193-6.714 2.384-15.179 2.207-31.176z" opacity=".2"/>
    <path d="M42.297 5.988c-4.615 4.894-7.463 10.12-8.84 16.067-1.782 7.693-1.5 16.146-1.332 27.945h10c-.09-6.394-.104-11.59.063-16H50V24h-6.672c1.171-4.829 3.123-8.386 7.617-12.57a28 28 0 0 0-8.648-5.442zM30 11.945l-10 .11c.175 15.817-.312 23.665-1.715 27.96-1.242 3.805-3.309 5.878-7.695 9.985a28 28 0 0 0 7.742 6.426c4.303-4.091 7.628-7.692 9.461-13.305 2.193-6.714 2.384-15.179 2.207-31.176z" fill="#F9F5D7"/>
    <path d="M32 4A28 28 0 0 0 4 32a28 28 0 0 0 .018.492A28 28 0 0 1 32 5a28 28 0 0 1 27.975 27.492A28 28 0 0 0 60 32 28 28 0 0 0 32 4z" opacity=".1" fill="#F9F5D7"/>
</svg>
