<svg xmlns="http://www.w3.org/2000/svg" width="64" height="64" version="1">
    <path d="M4 56v2c0 1.662 1.338 3 3 3h50c1.662 0 3-1.338 3-3v-2c0 1.662-1.338 3-3 3H7c-1.662 0-3-1.338-3-3z" opacity=".2"/>
    <rect width="4" height="4" x="36" y="-52" ry="0" transform="scale(1 -1)" fill="#7B6F64"/>
    <rect width="4" height="4" x="20" y="-52" ry="0" transform="scale(1 -1)" fill="#7B6F64"/>
    <rect width="4" height="4" x="8" y="-52" ry="0" transform="scale(1 -1)" fill="#7B6F64"/>
    <rect width="4" height="4" x="12" y="-52" ry="0" transform="scale(1 -1)" fill="#7B6F64"/>
    <rect width="4" height="4" x="-48" y="20" ry="0" transform="scale(-1 1)" fill="#7B6F64"/>
    <rect width="4" height="4" x="16" y="20" ry="0" fill="#7B6F64"/>
    <rect width="4" height="4" x="-32" y="20" ry="0" transform="scale(-1 1)" fill="#7B6F64"/>
    <rect width="4" height="4" x="-28" y="20" ry="0" transform="scale(-1 1)" fill="#7B6F64"/>
    <rect width="4" height="4" x="-8" y="20" ry="0" transform="scale(-1 1)" fill="#7B6F64"/>
    <rect width="4" height="4" x="-32" y="16" ry="0" transform="scale(-1 1)" fill="#7B6F64"/>
    <rect width="4" height="4" x="-8" y="16" ry="0" transform="scale(-1 1)" fill="#7B6F64"/>
    <rect width="4" height="4" x="-28" y="12" ry="0" transform="scale(-1 1)" fill="#7B6F64"/>
    <rect width="4" height="4" x="4" y="8" ry="0" fill="#7B6F64"/>
    <rect width="4" height="4" x="8" y="8" ry="0" fill="#7B6F64"/>
    <rect width="4" height="4" x="12" y="8" ry="0" fill="#7B6F64"/>
    <rect width="4" height="4" x="16" y="8" ry="0" fill="#7B6F64"/>
    <rect width="4" height="4" x="-44" y="12" ry="0" transform="scale(-1 1)" fill="#7B6F64"/>
    <rect width="4" height="4" x="8" y="12" ry="0" fill="#7B6F64"/>
    <rect width="4" height="4" x="12" y="4" ry="0" fill="#7B6F64"/>
    <rect width="4" height="4" x="-20" y="4" ry="0" transform="scale(-1 1)" fill="#7B6F64"/>
    <rect width="4" height="4" x="-12" y="4" ry="0" transform="scale(-1 1)" fill="#7B6F64"/>
    <path d="M8 4H7S4 4 4 7v1h4z" fill="#928274"/>
    <rect width="4" height="4" x="-36" y="24" ry="0" transform="scale(-1 1)" fill="#7B6F64"/>
    <rect width="4" height="4" x="20" y="24" ry="0" fill="#7B6F64"/>
    <rect width="4" height="4" x="8" y="24" ry="0" fill="#7B6F64"/>
    <rect width="4" height="4" x="12" y="24" ry="0" fill="#7B6F64"/>
    <rect width="4" height="4" x="-36" y="20" ry="0" transform="scale(-1 1)" fill="#7B6F64"/>
    <rect width="4" height="4" x="20" y="20" ry="0" fill="#7B6F64"/>
    <rect width="4" height="4" x="8" y="20" ry="0" fill="#7B6F64"/>
    <rect width="4" height="4" x="12" y="20" ry="0" fill="#7B6F64"/>
    <rect width="4" height="4" x="20" y="16" ry="0" fill="#7B6F64"/>
    <rect width="4" height="4" x="32" y="12" ry="0" fill="#7B6F64"/>
    <rect width="4" height="4" x="-24" y="8" ry="0" transform="scale(-1 1)" fill="#7B6F64"/>
    <rect width="4" height="4" x="-16" y="16" ry="0" transform="scale(-1 1)" fill="#7B6F64"/>
    <path d="M24 4h-4v4h4z" fill="#7B6F64"/>
    <rect width="4" height="4" x="4" y="48" ry="0" fill="#7B6F64"/>
    <rect width="4" height="4" x="24" y="48" ry="0" fill="#7B6F64"/>
    <rect width="4" height="4" x="-20" y="48" ry="0" transform="scale(-1 1)" fill="#7B6F64"/>
    <rect width="4" height="4" x="44" y="48" ry="0" fill="#7B6F64"/>
    <rect width="4" height="4" x="4" y="-28" ry="0" transform="scale(1 -1)" fill="#7B6F64"/>
    <rect width="4" height="4" x="24" y="-28" ry="0" transform="scale(1 -1)" fill="#7B6F64"/>
    <rect width="4" height="4" x="28" y="-28" ry="0" transform="scale(1 -1)" fill="#7B6F64"/>
    <rect width="4" height="4" x="-20" y="-28" ry="0" transform="scale(-1)" fill="#7B6F64"/>
    <rect width="4" height="4" x="44" y="-28" ry="0" transform="scale(1 -1)" fill="#7B6F64"/>
    <path d="M4 57v-1h4v4H7s-3 0-3-3z" fill="#7B6F64"/>
    <rect width="4" height="4" x="24" y="56" ry="0" fill="#7B6F64"/>
    <rect width="4" height="4" x="-48" y="56" ry="0" transform="scale(-1 1)" fill="#7B6F64"/>
    <rect width="4" height="4" x="-20" y="56" ry="0" transform="scale(-1 1)" fill="#7B6F64"/>
    <rect width="4" height="4" x="-16" y="52" ry="0" transform="scale(-1 1)" fill="#7B6F64"/>
    <rect width="4" height="4" x="-12" y="52" ry="0" transform="scale(-1 1)" fill="#7B6F64"/>
    <rect width="4" height="4" x="-24" y="52" ry="0" transform="scale(-1 1)" fill="#7B6F64"/>
    <rect width="4" height="4" x="-40" y="52" ry="0" transform="scale(-1 1)" fill="#7B6F64"/>
    <rect width="4" height="4" x="20" y="56" ry="0" fill="#7B6F64"/>
    <rect width="4" height="4" x="8" y="56" ry="0" fill="#7B6F64"/>
    <rect width="4" height="4" x="12" y="56" ry="0" fill="#7B6F64"/>
    <rect width="4" height="4" x="-28" y="52" ry="0" transform="scale(-1 1)" fill="#7B6F64"/>
    <rect width="4" height="4" x="-8" y="52" ry="0" transform="scale(-1 1)" fill="#7B6F64"/>
    <rect width="4" height="4" x="-20" y="52" ry="0" transform="scale(-1 1)" fill="#7B6F64"/>
    <rect width="4" height="4" x="44" y="52" ry="0" fill="#7B6F64"/>
    <rect width="4" height="4" x="-52" y="-52" ry="0" transform="scale(-1)" fill="#7B6F64"/>
    <rect width="4" height="4" x="-44" y="-52" ry="0" transform="scale(-1)" fill="#7B6F64"/>
    <rect width="4" height="4" x="28" y="-52" ry="0" transform="scale(1 -1)" fill="#7B6F64"/>
    <rect width="4" height="4" x="-40" y="20" ry="0" transform="scale(-1 1)" fill="#7B6F64"/>
    <rect width="4" height="4" x="52" y="20" ry="0" fill="#7B6F64"/>
    <rect width="4" height="4" x="56" y="20" ry="0" fill="#7B6F64"/>
    <rect width="4" height="4" x="36" y="16" ry="0" fill="#7B6F64"/>
    <rect width="4" height="4" x="-56" y="16" ry="0" transform="scale(-1 1)" fill="#7B6F64"/>
    <rect width="4" height="4" x="28" y="8" ry="0" fill="#7B6F64"/>
    <rect width="4" height="4" x="32" y="8" ry="0" fill="#7B6F64"/>
    <rect width="4" height="4" x="36" y="8" ry="0" fill="#7B6F64"/>
    <rect width="4" height="4" x="-60" y="8" ry="0" transform="scale(-1 1)" fill="#7B6F64"/>
    <rect width="4" height="4" x="-56" y="8" ry="0" transform="scale(-1 1)" fill="#7B6F64"/>
    <rect width="4" height="4" x="-60" y="12" ry="0" transform="scale(-1 1)" fill="#7B6F64"/>
    <rect width="4" height="4" x="36" y="4" ry="0" fill="#7B6F64"/>
    <rect width="4" height="4" x="-52" y="4" ry="0" transform="scale(-1 1)" fill="#7B6F64"/>
    <rect width="4" height="4" x="-56" y="4" ry="0" transform="scale(-1 1)" fill="#7B6F64"/>
    <rect width="4" height="4" x="-36" y="4" ry="0" transform="scale(-1 1)" fill="#7B6F64"/>
    <path d="M32 4h-4v4h4z" fill="#7B6F64"/>
    <rect width="4" height="4" x="-52" y="24" ry="0" transform="scale(-1 1)" fill="#7B6F64"/>
    <rect width="4" height="4" x="-44" y="24" ry="0" transform="scale(-1 1)" fill="#7B6F64"/>
    <rect width="4" height="4" x="-52" y="20" ry="0" transform="scale(-1 1)" fill="#7B6F64"/>
    <rect width="4" height="4" x="-44" y="20" ry="0" transform="scale(-1 1)" fill="#7B6F64"/>
    <rect width="4" height="4" x="-48" y="16" ry="0" transform="scale(-1 1)" fill="#7B6F64"/>
    <rect width="4" height="4" x="-52" y="8" ry="0" transform="scale(-1 1)" fill="#7B6F64"/>
    <rect width="4" height="4" x="-48" y="8" ry="0" transform="scale(-1 1)" fill="#7B6F64"/>
    <rect width="4" height="4" x="-44" y="8" ry="0" transform="scale(-1 1)" fill="#7B6F64"/>
    <rect width="4" height="4" x="-28" y="8" ry="0" transform="scale(-1 1)" fill="#7B6F64"/>
    <rect width="4" height="4" x="48" y="12" ry="0" fill="#7B6F64"/>
    <rect width="4" height="4" x="-20" y="12" ry="0" transform="scale(-1 1)" fill="#7B6F64"/>
    <rect width="4" height="4" x="24" y="4" ry="0" fill="#7B6F64"/>
    <path d="M60 7c0-3-3-3-3-3h-1v4h4z" fill="#7B6F64"/>
    <rect width="4" height="4" x="44" y="4" ry="0" fill="#7B6F64"/>
    <rect width="4" height="4" x="-44" y="4" ry="0" transform="scale(-1 1)" fill="#7B6F64"/>
    <rect width="4" height="4" x="-60" y="48" ry="0" transform="scale(-1 1)" fill="#7B6F64"/>
    <rect width="4" height="4" x="-56" y="48" ry="0" transform="scale(-1 1)" fill="#7B6F64"/>
    <rect width="4" height="4" x="-36" y="48" ry="0" transform="scale(-1 1)" fill="#7B6F64"/>
    <rect width="4" height="4" x="-60" y="-28" ry="0" transform="scale(-1)" fill="#7B6F64"/>
    <rect width="4" height="4" x="-56" y="-28" ry="0" transform="scale(-1)" fill="#7B6F64"/>
    <rect width="4" height="4" x="36" y="-28" ry="0" transform="scale(1 -1)" fill="#7B6F64"/>
    <rect width="4" height="4" x="32" y="56" ry="0" fill="#7B6F64"/>
    <rect width="4" height="4" x="-56" y="56" ry="0" transform="scale(-1 1)" fill="#7B6F64"/>
    <rect width="4" height="4" x="-52" y="56" ry="0" transform="scale(-1 1)" fill="#7B6F64"/>
    <rect width="4" height="4" x="-32" y="52" ry="0" transform="scale(-1 1)" fill="#7B6F64"/>
    <rect width="4" height="4" x="40" y="52" ry="0" fill="#7B6F64"/>
    <rect width="4" height="4" x="48" y="52" ry="0" fill="#7B6F64"/>
    <path d="M60 57v-1h-4v4h1s3 0 3-3z" fill="#928274"/>
    <rect width="4" height="4" x="-44" y="56" ry="0" transform="scale(-1 1)" fill="#7B6F64"/>
    <rect width="4" height="4" x="28" y="56" ry="0" fill="#7B6F64"/>
    <rect width="4" height="4" x="-60" y="52" ry="0" transform="scale(-1 1)" fill="#7B6F64"/>
    <rect width="4" height="4" x="-56" y="52" ry="0" transform="scale(-1 1)" fill="#7B6F64"/>
    <rect width="4" height="4" x="-36" y="52" ry="0" transform="scale(-1 1)" fill="#7B6F64"/>
    <rect width="4" height="4" x="-40" y="56" ry="0" transform="scale(-1 1)" fill="#7B6F64"/>
    <rect width="4" height="4" x="-36" y="40" ry="0" transform="scale(-1 1)" fill="#7B6F64"/>
    <rect width="4" height="4" x="20" y="40" ry="0" fill="#7B6F64"/>
    <rect width="4" height="4" x="8" y="40" ry="0" fill="#7B6F64"/>
    <rect width="4" height="4" x="12" y="40" ry="0" fill="#7B6F64"/>
    <rect width="4" height="4" x="16" y="44" ry="0" fill="#7B6F64"/>
    <rect width="4" height="4" x="-8" y="44" ry="0" transform="scale(-1 1)" fill="#7B6F64"/>
    <rect width="4" height="4" x="4" y="-44" ry="0" transform="scale(1 -1)" fill="#7B6F64"/>
    <rect width="4" height="4" x="24" y="-44" ry="0" transform="scale(1 -1)" fill="#7B6F64"/>
    <rect width="4" height="4" x="28" y="-44" ry="0" transform="scale(1 -1)" fill="#7B6F64"/>
    <rect width="4" height="4" x="-20" y="-44" ry="0" transform="scale(-1)" fill="#7B6F64"/>
    <rect width="4" height="4" x="24" y="44" ry="0" fill="#7B6F64"/>
    <rect width="4" height="4" x="-16" y="44" ry="0" transform="scale(-1 1)" fill="#7B6F64"/>
    <rect width="4" height="4" x="20" y="44" ry="0" fill="#7B6F64"/>
    <rect width="4" height="4" x="8" y="44" ry="0" fill="#7B6F64"/>
    <rect width="4" height="4" x="-40" y="44" ry="0" transform="scale(-1 1)" fill="#7B6F64"/>
    <rect width="4" height="4" x="32" y="44" ry="0" fill="#7B6F64"/>
    <rect width="4" height="4" x="36" y="-44" ry="0" transform="scale(1 -1)" fill="#7B6F64"/>
    <rect width="4" height="4" x="-32" y="44" ry="0" transform="scale(-1 1)" fill="#7B6F64"/>
    <rect width="4" height="4" x="52" y="36" ry="0" fill="#7B6F64"/>
    <rect width="4" height="4" x="-36" y="36" ry="0" transform="scale(-1 1)" fill="#7B6F64"/>
    <rect width="4" height="4" x="36" y="36" ry="0" fill="#7B6F64"/>
    <rect width="4" height="4" x="-52" y="36" ry="0" transform="scale(-1 1)" fill="#7B6F64"/>
    <rect width="4" height="4" x="44" y="36" ry="0" fill="#7B6F64"/>
    <rect width="4" height="4" x="-60" y="36" ry="0" transform="scale(-1 1)" fill="#7B6F64"/>
    <rect width="4" height="4" x="-44" y="36" ry="0" transform="scale(-1 1)" fill="#7B6F64"/>
    <rect width="4" height="4" x="4" y="36" ry="0" fill="#7B6F64"/>
    <rect width="4" height="4" x="8" y="36" ry="0" fill="#7B6F64"/>
    <rect width="4" height="4" x="28" y="36" ry="0" fill="#7B6F64"/>
    <rect width="4" height="4" x="16" y="36" ry="0" fill="#7B6F64"/>
    <rect width="4" height="4" x="12" y="36" ry="0" fill="#7B6F64"/>
    <rect width="4" height="4" x="-24" y="36" ry="0" transform="scale(-1 1)" fill="#7B6F64"/>
    <rect width="4" height="4" x="-28" y="36" ry="0" transform="scale(-1 1)" fill="#7B6F64"/>
    <rect width="4" height="4" x="-52" y="40" ry="0" transform="scale(-1 1)" fill="#7B6F64"/>
    <rect width="4" height="4" x="56" y="44" ry="0" fill="#7B6F64"/>
    <rect width="4" height="4" x="40" y="-44" ry="0" transform="scale(1 -1)" fill="#7B6F64"/>
    <rect width="4" height="4" x="44" y="-44" ry="0" transform="scale(1 -1)" fill="#7B6F64"/>
    <rect width="4" height="4" x="40" y="44" ry="0" fill="#7B6F64"/>
    <rect width="4" height="4" x="-56" y="44" ry="0" transform="scale(-1 1)" fill="#7B6F64"/>
    <rect width="4" height="4" x="-60" y="40" ry="0" transform="scale(-1 1)" fill="#7B6F64"/>
    <rect width="4" height="4" x="48" y="44" ry="0" fill="#7B6F64"/>
    <rect width="4" height="4" x="52" y="-44" ry="0" transform="scale(1 -1)" fill="#7B6F64"/>
    <rect width="4" height="4" x="-48" y="44" ry="0" transform="scale(-1 1)" fill="#7B6F64"/>
    <rect width="4" height="4" x="36" y="32" ry="0" fill="#7B6F64"/>
    <rect width="4" height="4" x="24" y="32" ry="0" fill="#7B6F64"/>
    <rect width="4" height="4" x="28" y="32" ry="0" fill="#7B6F64"/>
    <rect width="4" height="4" x="20" y="-36" ry="0" transform="scale(1 -1)" fill="#7B6F64"/>
    <rect width="4" height="4" x="40" y="-36" ry="0" transform="scale(1 -1)" fill="#7B6F64"/>
    <rect width="4" height="4" x="44" y="-36" ry="0" transform="scale(1 -1)" fill="#7B6F64"/>
    <rect width="4" height="4" x="-36" y="-36" ry="0" transform="scale(-1)" fill="#7B6F64"/>
    <rect width="4" height="4" x="20" y="28" ry="0" fill="#7B6F64"/>
    <rect width="4" height="4" x="24" y="28" ry="0" fill="#7B6F64"/>
    <rect width="4" height="4" x="44" y="28" ry="0" fill="#7B6F64"/>
    <rect width="4" height="4" x="32" y="28" ry="0" fill="#7B6F64"/>
    <rect width="4" height="4" x="28" y="28" ry="0" fill="#7B6F64"/>
    <rect width="4" height="4" x="-40" y="28" ry="0" transform="scale(-1 1)" fill="#7B6F64"/>
    <rect width="4" height="4" x="-44" y="28" ry="0" transform="scale(-1 1)" fill="#7B6F64"/>
    <rect width="4" height="4" x="-52" y="-36" ry="0" transform="scale(-1)" fill="#7B6F64"/>
    <rect width="4" height="4" x="-60" y="32" ry="0" transform="scale(-1 1)" fill="#7B6F64"/>
    <rect width="4" height="4" x="-56" y="32" ry="0" transform="scale(-1 1)" fill="#7B6F64"/>
    <rect width="4" height="4" x="56" y="28" ry="0" fill="#7B6F64"/>
    <rect width="4" height="4" x="-56" y="28" ry="0" transform="scale(-1 1)" fill="#7B6F64"/>
    <rect width="4" height="4" x="48" y="28" ry="0" fill="#7B6F64"/>
    <rect width="4" height="4" x="-12" y="28" ry="0" transform="scale(-1 1)" fill="#7B6F64"/>
    <rect width="4" height="4" x="-20" y="-32" ry="0" transform="scale(-1)" fill="#7B6F64"/>
    <rect width="4" height="4" x="-16" y="-32" ry="0" transform="scale(-1)" fill="#7B6F64"/>
    <rect width="4" height="4" x="16" y="-36" ry="0" transform="scale(1 -1)" fill="#7B6F64"/>
    <rect width="4" height="4" x="-16" y="-36" ry="0" transform="scale(-1)" fill="#7B6F64"/>
    <rect width="4" height="4" x="8" y="-36" ry="0" transform="scale(1 -1)" fill="#7B6F64"/>
    <rect width="4" height="4" x="4" y="28" ry="0" fill="#7B6F64"/>
    <rect width="4" height="4" x="-8" y="32" ry="0" transform="scale(-1 1)" fill="#7B6F64"/>
    <g fill="#928274">
        <g transform="scale(2)">
            <rect width="2" height="2" x="4" y="8" ry="0"/>
            <rect width="2" height="2" x="12" y="8" ry="0"/>
            <rect width="2" height="2" x="2" y="6" ry="0"/>
            <rect width="2" height="2" x="14" y="6" ry="0"/>
            <rect width="2" height="2" x="6" y="6" ry="0"/>
            <rect width="2" height="2" x="20" y="8" ry="0"/>
            <rect width="2" height="2" x="-18" y="8" ry="0" transform="scale(-1 1)"/>
            <rect width="2" height="2" x="10" y="6" ry="0"/>
            <rect width="2" height="2" x="26" y="6" ry="0"/>
            <rect width="2" height="2" x="-20" y="6" ry="0" transform="scale(-1 1)"/>
            <rect width="2" height="2" x="-30" y="8" ry="0" transform="scale(-1 1)"/>
            <rect width="2" height="2" x="-10" y="8" ry="0" transform="scale(-1 1)"/>
            <rect width="2" height="2" x="22" y="6" ry="0"/>
            <rect width="2" height="2" x="24" y="8" ry="0"/>
        </g>
        <g transform="matrix(2 0 0 2 0 8)">
            <rect width="2" height="2" x="4" y="8" ry="0"/>
            <rect width="2" height="2" x="12" y="8" ry="0"/>
            <rect width="2" height="2" x="2" y="6" ry="0"/>
            <rect width="2" height="2" x="14" y="6" ry="0"/>
            <rect width="2" height="2" x="6" y="6" ry="0"/>
            <rect width="2" height="2" x="20" y="8" ry="0"/>
            <rect width="2" height="2" x="-18" y="8" ry="0" transform="scale(-1 1)"/>
            <rect width="2" height="2" x="10" y="6" ry="0"/>
            <rect width="2" height="2" x="26" y="6" ry="0"/>
            <rect width="2" height="2" x="-20" y="6" ry="0" transform="scale(-1 1)"/>
            <rect width="2" height="2" x="-30" y="8" ry="0" transform="scale(-1 1)"/>
            <rect width="2" height="2" x="-10" y="8" ry="0" transform="scale(-1 1)"/>
            <rect width="2" height="2" x="22" y="6" ry="0"/>
            <rect width="2" height="2" x="24" y="8" ry="0"/>
        </g>
    </g>
    <g fill="#928274">
        <g transform="matrix(2 0 0 2 0 16)">
            <rect width="2" height="2" x="4" y="8" ry="0"/>
            <rect width="2" height="2" x="12" y="8" ry="0"/>
            <rect width="2" height="2" x="2" y="6" ry="0"/>
            <rect width="2" height="2" x="14" y="6" ry="0"/>
            <rect width="2" height="2" x="6" y="6" ry="0"/>
            <rect width="2" height="2" x="20" y="8" ry="0"/>
            <rect width="2" height="2" x="-18" y="8" ry="0" transform="scale(-1 1)"/>
            <rect width="2" height="2" x="10" y="6" ry="0"/>
            <rect width="2" height="2" x="26" y="6" ry="0"/>
            <rect width="2" height="2" x="-20" y="6" ry="0" transform="scale(-1 1)"/>
            <rect width="2" height="2" x="-30" y="8" ry="0" transform="scale(-1 1)"/>
            <rect width="2" height="2" x="-10" y="8" ry="0" transform="scale(-1 1)"/>
            <rect width="2" height="2" x="22" y="6" ry="0"/>
            <rect width="2" height="2" x="24" y="8" ry="0"/>
        </g>
        <g transform="matrix(2 0 0 2 0 24)">
            <rect width="2" height="2" x="4" y="8" ry="0"/>
            <rect width="2" height="2" x="12" y="8" ry="0"/>
            <rect width="2" height="2" x="2" y="6" ry="0"/>
            <rect width="2" height="2" x="14" y="6" ry="0"/>
            <rect width="2" height="2" x="6" y="6" ry="0"/>
            <rect width="2" height="2" x="20" y="8" ry="0"/>
            <rect width="2" height="2" x="-18" y="8" ry="0" transform="scale(-1 1)"/>
            <rect width="2" height="2" x="10" y="6" ry="0"/>
            <rect width="2" height="2" x="26" y="6" ry="0"/>
            <rect width="2" height="2" x="-20" y="6" ry="0" transform="scale(-1 1)"/>
            <rect width="2" height="2" x="-30" y="8" ry="0" transform="scale(-1 1)"/>
            <rect width="2" height="2" x="-10" y="8" ry="0" transform="scale(-1 1)"/>
            <rect width="2" height="2" x="22" y="6" ry="0"/>
            <rect width="2" height="2" x="24" y="8" ry="0"/>
        </g>
    </g>
    <rect width="4" height="4" x="8" y="48" ry="0" fill="#928274"/>
    <rect width="4" height="4" x="24" y="48" ry="0" fill="#928274"/>
    <rect width="4" height="4" x="4" y="44" ry="0" fill="#928274"/>
    <rect width="4" height="4" x="28" y="44" ry="0" fill="#928274"/>
    <rect width="4" height="4" x="12" y="44" ry="0" fill="#928274"/>
    <rect width="4" height="4" x="40" y="48" ry="0" fill="#928274"/>
    <rect width="4" height="4" x="-36" y="48" ry="0" transform="scale(-1 1)" fill="#928274"/>
    <rect width="4" height="4" x="20" y="44" ry="0" fill="#928274"/>
    <rect width="4" height="4" x="52" y="44" ry="0" fill="#928274"/>
    <rect width="4" height="4" x="-40" y="44" ry="0" transform="scale(-1 1)" fill="#928274"/>
    <rect width="4" height="4" x="-60" y="48" ry="0" transform="scale(-1 1)" fill="#928274"/>
    <rect width="4" height="4" x="-20" y="48" ry="0" transform="scale(-1 1)" fill="#928274"/>
    <rect width="4" height="4" x="44" y="44" ry="0" fill="#928274"/>
    <rect width="4" height="4" x="48" y="48" ry="0" fill="#928274"/>
    <rect width="4" height="4" x="8" y="56" ry="0" fill="#928274"/>
    <rect width="4" height="4" x="24" y="56" ry="0" fill="#928274"/>
    <rect width="4" height="4" x="4" y="52" ry="0" fill="#928274"/>
    <rect width="4" height="4" x="28" y="52" ry="0" fill="#928274"/>
    <rect width="4" height="4" x="12" y="52" ry="0" fill="#928274"/>
    <rect width="4" height="4" x="40" y="56" ry="0" fill="#928274"/>
    <rect width="4" height="4" x="-36" y="56" ry="0" transform="scale(-1 1)" fill="#928274"/>
    <rect width="4" height="4" x="20" y="52" ry="0" fill="#928274"/>
    <rect width="4" height="4" x="52" y="52" ry="0" fill="#928274"/>
    <rect width="4" height="4" x="-40" y="52" ry="0" transform="scale(-1 1)" fill="#928274"/>
    <rect width="4" height="4" x="-20" y="56" ry="0" transform="scale(-1 1)" fill="#928274"/>
    <rect width="4" height="4" x="44" y="52" ry="0" fill="#928274"/>
    <rect width="4" height="4" x="48" y="56" ry="0" fill="#928274"/>
    <rect width="4" height="4" x="8" y="8" ry="0" fill="#928274"/>
    <rect width="4" height="4" x="24" y="8" ry="0" fill="#928274"/>
    <rect width="4" height="4" x="28" y="4" ry="0" fill="#928274"/>
    <rect width="4" height="4" x="12" y="4" ry="0" fill="#928274"/>
    <rect width="4" height="4" x="40" y="8" ry="0" fill="#928274"/>
    <rect width="4" height="4" x="-36" y="8" ry="0" transform="scale(-1 1)" fill="#928274"/>
    <rect width="4" height="4" x="20" y="4" ry="0" fill="#928274"/>
    <rect width="4" height="4" x="52" y="4" ry="0" fill="#928274"/>
    <rect width="4" height="4" x="-40" y="4" ry="0" transform="scale(-1 1)" fill="#928274"/>
    <rect width="4" height="4" x="-60" y="8" ry="0" transform="scale(-1 1)" fill="#928274"/>
    <rect width="4" height="4" x="-20" y="8" ry="0" transform="scale(-1 1)" fill="#928274"/>
    <rect width="4" height="4" x="44" y="4" ry="0" fill="#928274"/>
    <rect width="4" height="4" x="48" y="8" ry="0" fill="#928274"/>
    <path d="M7 4C5.338 4 4 5.338 4 7v1c0-1.662 1.338-3 3-3h50c1.662 0 3 1.338 3 3V7c0-1.662-1.338-3-3-3H7z" opacity=".2" fill="#F9F5D7"/>
    <path d="M10 18s15.659 1.206 20 6c3.333 3.683-3.213 10.212 0 14 4.272 5.037 20 8 20 8" fill="none" stroke="#B16286" stroke-width="2" stroke-linecap="round" stroke-linejoin="round"/>
    <g transform="matrix(2 0 0 2 0 1)" opacity=".2">
        <circle cx="5" cy="9" r="1"/>
        <circle cx="24" cy="23" r="4"/>
        <circle cx="15" cy="19" r="3"/>
        <circle cx="15" cy="12" r="2"/>
    </g>
    <circle cx="10" cy="18" r="2" fill="#F9F5D7"/>
    <circle cx="48" cy="46" r="8" fill="#F9F5D7"/>
    <circle cx="30" cy="38" r="6" fill="#F9F5D7"/>
    <circle cx="30" cy="24" r="4" fill="#F9F5D7"/>
</svg>
