<svg xmlns="http://www.w3.org/2000/svg" width="64" height="64">
    <path d="M4.05 32c-.011.334-.05.662-.05 1 0 15.512 12.488 28 28 28 15.511 0 28-12.488 28-28 0-.338-.04-.666-.05-1C59.42 47.042 47.172 59 32 59 16.825 59 4.578 47.042 4.05 32z" opacity=".2"/>
    <rect width="56" height="56" x="4" y="4" ry="28" fill="#066678"/>
    <path d="M32 4c-3.532 0-6.894.675-10 1.857-.226.208-.52.367-.752.348-.031-.002-.063-.024-.095-.036a27.837 27.837 0 0 0-4.362 2.316c.18.29.232.614-.137.771-.061.027-.84.105-1.112.099a27.937 27.937 0 0 0-9.067 11.142c.032-.004.06-.02.093-.022.304-.004.743.084 1.036.145.27.056.488.237.722.254.663.05.823-.465 1.364-.754.56.079.93-.095 1.436-.038.344.038.593.406.861.426.226.023.424-.211.643-.178.212.033.578.496.612.755.044.323-.237.613-.145.968.338.344.952.414 1.436.612.314-.259.041-.74 0-1.115-.004-.165.023-.313 0-.465-.031-.258-.142-.494-.144-.716-.004-1.022.824-1.5 1.51-1.903.296-.176.53-.484.787-.613.364-.182.634-.224.935-.393.544-.306 1.01-.55 1.436-.897.196-.463.02-1.084.035-1.542.197-.12.366.052.574.035.329-.068.356-.531.542-.716.108-.106.404-.182.539-.287.327-.257.433-.644.719-.755.102-.041.339-.03.5-.074.213-.056.515-.308.861-.426.226-.08.743-.094.829-.18.106-.109-.002-.413.035-.575.174-.81 1.395-.982 2.117-1.255.506-.192 1.025-.542 1.58-.435-.108.386-.626.25-.538.717.12.649.99-.186 1.22-.282.437-.184 1.188-.297 1.763-.506.504-.184 1.407-.465.932-1.042-.396-.023-.587.465-.932.613-.239.038-.193-.2-.397-.219-.193-.023-.301.179-.5.145-.197-.032-.475-.343-.506-.574-.079-.6.507-.846.755-1.293-.164-.542-.914-.11-1.367-.323.043-.323.377-.545.754-.607.31-.052 1.003-.026 1.187.14.106.09.006.316.18.467.183.165.408.148.646.11.085-.41-.532-.307-.465-.578.485-.317 1.274-.056 1.867-.145.342-.05.701-.291 1.004-.462.288-.164.662-.449.968-.18.083.293-.266.39-.43.536-.549.489-1.115 1.048-1.542 1.616.262.255.738.127 1.182.18.173.023.39.074.574.107.214.038.442.027.61.071.301.074.382.397.68.397.492-.001.497-.533.22-.865.087-.338.225-.514.106-.751-.22-.443-1.032-.023-1.074-.575-.026-.357.3-.341.43-.61-.06-.691.566-.741.5-1.361-.03-.26-.248-.263-.43-.506-.09-.12-.138-.348-.244-.451a28.509 28.509 0 0 0-2.542-.12zM17.55 9.65h.002c.168.024.37.203.572.219.192.004.35-.106.467-.074.3.079.427.532.145.755-.234.029-.326-.102-.503-.071-.487.082-.674 1.037-1.039 1.006-.343-.03-.53-.867-.18-1.116.023-.217-.159-.252-.148-.467.103-.133.398-.275.684-.252zm-1.616.112c.1.002.176.028.214.071-.048.383-.347.358-.643.536-.51.308-.805.778-.968 1.436-.047.191-.55.699-.793.648-.57-.12.157-1.17.287-1.33.144-.176.337-.331.506-.535.165-.198.271-.465.43-.574.173-.12.668-.263.968-.252zm4.25 1.29c.182.003.346.034.42.107-.117.474-1.138.35-1.511.178.024-.179.303-.228.538-.251.165-.004.37-.039.553-.033zm-2.325.876c.121-.002.245.023.372.057-.33.277-.687.433-1.254.613-.273.086-.744.193-.79-.112-.056-.374.399-.287.648-.32.313-.044.658-.226 1.025-.238zm35.656 2.127a.707.707 0 0 0-.069.3c.023.174.212.34.255.575.023.124-.059.393 0 .506.173.335.625.094.949.112a27.147 27.147 0 0 0-1.134-1.493zm1.835 2.47c-.052.247-.22.57-.356.776-.313.476-.738.498-1.187.752-.374.212-.535.566-.754.935-.238.398-.385.64-.287 1.217-.321.636-.807 1.026-1.471 1.329-.197.088-.465.12-.646.251-.143.103-.225.38-.429.61-.252.28-.516.398-.648.612-.102.166-.139.495-.252.717-.153.301-.48.449-.68.754-.092.142-.153.428-.255.613-.227.413-.616.711-.574 1.075.041.35.44.412.468.719.004.173-.115.279-.107.467.004.276.192.47.213.681.054.533-.181.746-.281 1.11-.048.174-.028.37-.074.506-.088.267-.46.508-.468.823-.002.224.23.405.25.72.003.216-.107.448-.07.647.077.39.774.845 1.078 1.149.406.406.938.72 1.113 1.148.147.364.146.836.43 1.11.209.203.557.329.825.539.25.196.523.366.79.574.437.342 1.098 1.023 1.794.97.363-.026.736-.322 1.148-.396a5.491 5.491 0 0 1 1.403-.07c.328.032.666.228 1.006.213.36-.023.773-.29 1.182-.468a8.17 8.17 0 0 1 1.175-.418C59.89 34.824 60 33.425 60 32a27.916 27.916 0 0 0-4.648-15.476zM9.04 25.932c-.596.033-.987.06-1.326.213-.777.354-.627 1.404-1.403 1.652-.268.086-.637.09-.932.145-.255.047-.566.186-.828.18-.074 0-.177-.055-.268-.084-.07.492-.127.99-.17 1.49.738.141 1.12 1.12 1.772 1.444.179.088.412.093.642.145.186.04.327.12.506.18.38.129.845.113 1.149.249.457.203.793 1.063 1.186 1.293.023.232-.045.544.036.716.186.253.448.197.755.361.366.198.478.708.825.864.12.054.42.047.61.104.476.144.631.695 1.04.574.267-.079.246-.354.29-.61.176-.191.369-.494.644-.5.446-.023.486.461.648.894.092.245.332.459.394.717.112.446.056 1.781-.038 2.048-.112.327-.556.466-.829.828-.129.17-.19.42-.287.539-.175.214-.437.27-.568.468-.074.11-.147.35-.22.5-.215.457-.503.78-.322 1.329.076.226.429.377.43.642 0 .313-.665.593-.717.936-.038.255.206.71.287 1.041.06.251.533.408.681.575.252.282.453.683.684 1.039.455.699.811 1.55 1.255 2.228.234.355.563.674.719 1.042.08.186.069.407.142.574.257.58 1.39 1.184 1.974 1.471.274.133.578.181.829.32.38.212 1.134.782 1.326 1.116.17.3.278 1.03.36 1.506.112.63.002 1.114.036 1.797.023.369.141.74.145 1.11.002.13-.068.226-.073.358 0 .022.006.046.006.069A27.97 27.97 0 0 0 32 60c.747 0 1.485-.039 2.217-.096.032-.055.062-.112.101-.164.169-.22.319-.415.43-.61.106-.655-.262-1.113-.107-1.687.171-.644 1.063-1.038 1.687-1.328.215-.1.435-.262.61-.323.432-.15.972-.07 1.367-.213.673-.246.743-.968 1.075-1.58.156-.291.363-.582.393-.788.027-.186-.068-.36-.038-.58.033-.217.227-.404.287-.643.08-.31.113-.766.113-1.112 0-.285-.133-.534-.145-.79-.047-.932.336-1.036.68-1.543.173-.252.238-.539.359-.719.578-.863 1.581-1.28 1.509-2.584-.024-.432-.295-1.407-.613-1.545-.181-.079-.598-.004-.86-.106-.85-.317-1.347-1.369-2.227-1.436-.187-.023-.36.077-.571.074-.348-.023-.873-.244-1.258-.287-.245-.027-.572.073-.72 0-.223-.11-.246-.522-.428-.646-.145-.1-.426-.133-.646-.218-.353-.136-.634-.294-1.041-.323-.126-.004-.283.06-.43.038-.225-.038-.404-.305-.612-.432-.261-.159-.502-.235-.61-.462.236-.773-.416-.989-.574-1.435-.076-.21-.041-.462-.107-.648-.093-.268-.358-.423-.648-.646-.52-.4-.98-.775-1.722-.866-.327-.042-.65.097-1.045.073-.418-.026-.942-.392-1.255-.749-.304-.349-.452-.662-.716-.828-.251-.162-.584-.157-.755-.32-.077-.071-.063-.194-.145-.361-.126-.261-.338-.407-.18-.72-.287-.146-.294.274-.608.22-.279-.397-.514-.584-1.148-.468-.29.053-.452.42-.79.43-.277.022-.495-.31-.861-.362-.277-.038-.591.075-.788.038-.306-.061-.4-.316-.68-.5-.206-.135-.605-.365-.72-.361-.36.023-.618.767-1.116.503-.241-.306.394-.468.107-.755-.218-.217-.4.099-.574.22-.2.137-.387.273-.607.355-.493.184-.801.088-1.187.287-.357.185-.372.494-.574.861-.165.301-.542.74-.79.758-.3.026-.588-.418-.86-.536-.823-.356-1.221.316-1.904.324-.634.024-1.538-1.022-1.507-1.618.004-.364.21-.915.252-1.365.038-.358.283-.573.287-.9.004-.436-.578-.77-.861-.823-.671-.123-1.602.27-2.371-.038-.147-.243.172-.411.254-.648.047-.134.02-.314.069-.462.085-.228.324-.406.432-.648.08-.185.1-.451.18-.68.094-.262.267-.43.287-.613.027-.242-.065-.522-.254-.681zm9.598 7.599c.243.023.274.525.024.566-.268.041-.405-.421-.145-.542a.215.215 0 0 1 .12-.021v-.002z" opacity=".5" fill="#F9F5D7"/>
    <path d="M32 4C16.488 4 4 16.488 4 32c0 .114.011.224.018.336C4.369 17.134 16.71 5 32 5c15.29 0 27.63 12.134 27.982 27.336.007-.112.018-.222.018-.336C60 16.488 47.512 4 32 4z" opacity=".2" fill="#F9F5D7"/>
</svg>
