<svg xmlns="http://www.w3.org/2000/svg" width="64" height="64" version="1">
    <path d="M4 52v2s0 3.012 3 3l50.2-.2A2.798 2.798 0 0 0 60 54v-2a2.799 2.799 0 0 1-2.8 2.802l-50.2.2 50.187-.188a2.846 2.846 0 0 0 2-.813c-.547.6-1.307 1-2.187 1H7c-3 .012-3-3-3-3zm3 5h50c.88 0 1.64-.4 2.188-1a2.846 2.846 0 0 1-2 .813L7 57z" opacity=".2"/>
    <path d="M7 8c-1.662 0-3 1.338-3 3v33h56V11c0-1.662-1.338-3-3-3H7zm52.75 46.062c-.141.335-.31.685-.562.938.254-.279.427-.578.562-.938zm-.562.938a2.846 2.846 0 0 1-2 .812L7 56h50c.88 0 1.64-.4 2.187-1z" fill="#FA4934"/>
    <path d="M7 8c-1.662 0-3 1.338-3 3v1c0-1.662 1.338-3 3-3h50c1.662 0 3 1.338 3 3v-1c0-1.662-1.338-3-3-3H7z" opacity=".2" fill="#F9F5D7"/>
    <path d="M44 19a8 8 0 1 1 0 16 8 8 0 0 1 0-16z" opacity=".2" fill-rule="evenodd"/>
    <path d="M44 18a8 8 0 1 1 0 16 8 8 0 0 1 0-16z" fill="#F9F5D7" fill-rule="evenodd"/>
    <path d="M4 44v9s0 3.012 3 3l50.2-.2A2.798 2.798 0 0 0 60 53v-9z" fill="#A04A73"/>
    <path d="M4 44v-1.6s4.039-2.667 5.174-2.9c1.135-.232 2.476-.043 3.854.218 1.378.259 3.435.61 4.077.631.642.023 1.804-.056 3.154-.137 1.35-.08 3.586-.154 4.283-.146.697 0 2.438.096 4.293.21 1.855.113 4.403.303 4.981.356.579.053 1.258.15 2.03.257.771.105 2.106.265 2.578.309.473.043 1.568.193 2.838.31 1.271.117 3.304.157 3.892.114.587-.043 1.818-.478 3.19-.879 1.371-.4 2.884-.767 4.034-.677C53.528 40.157 60 42.4 60 42.4V44H10.8z"/>
    <path d="M63.958 46.894A15 15 0 0 1 49 61a15 15 0 0 1-14.958-13.894A15 15 0 0 0 34 48a15 15 0 0 0 15 15 15 15 0 0 0 15-15 15 15 0 0 0-.042-1.106z" opacity=".2"/>
    <circle cx="49" cy="47" r="15" fill="#8F3F71"/>
    <path d="M48.966 56L43 48h4v-8h4v8h4z" fill="#F9F5D7"/>
</svg>
