<svg xmlns="http://www.w3.org/2000/svg" width="64" height="64" version="1">
    <path d="M4 56v2c0 1.662 1.338 3 3 3h50c1.662 0 3-1.338 3-3v-2c0 1.662-1.338 3-3 3H7c-1.662 0-3-1.338-3-3z" opacity=".2"/>
    <rect width="56" height="56" x="4" y="4" rx="3" ry="3" fill="#F9F5D7"/>
    <path d="M7 4C5.338 4 4 5.338 4 7v1c0-1.662 1.338-3 3-3h50c1.662 0 3 1.338 3 3V7c0-1.662-1.338-3-3-3H7z" opacity=".1" fill="#F9F5D7"/>
    <circle cx="32" cy="32" r="6" fill="#504945"/>
    <circle cx="46" cy="48" r="6" fill="#504945"/>
    <circle cx="16" cy="16" r="6" fill="#504945"/>
    <circle cx="46" cy="-16" r="6" transform="scale(1 -1)" fill="#504945"/>
    <circle cx="16" cy="-48" r="6" transform="scale(1 -1)" fill="#504945"/>
</svg>
