<svg xmlns="http://www.w3.org/2000/svg" width="64" height="64">
    <path d="M45 37.35h14.065L45 62z" opacity=".2"/>
    <path d="M45 36.35h14.065L45 61z" fill="#066678"/>
    <path d="M61 29a29 25 0 0 1-29 25A29 25 0 0 1 3 29 29 25 0 0 1 32 4a29 25 0 0 1 29 25z" opacity=".2"/>
    <path d="M61 28a29 25 0 0 1-29 25A29 25 0 0 1 3 28 29 25 0 0 1 32 3a29 25 0 0 1 29 25z" fill="#48B9C7"/>
    <path d="M34.023 14a14.976 15 0 0 0-2.964.309A14.976 15 0 0 1 43.008 29 14.976 15 0 0 1 31 43.691a14.976 15 0 0 0 3.023.309A14.976 15 0 0 0 49 29a14.976 15 0 0 0-14.977-15zM18 18a3 3 0 0 0-3 3 3 3 0 0 0 3 3 3 3 0 0 0 3-3 3 3 0 0 0-3-3zm7.8 8c-1.55 0-2.8 1.338-2.8 3s1.25 3 2.8 3h8.4c1.55 0 2.8-1.338 2.8-3s-1.25-3-2.8-3zM18 34a3 3 0 1 0 0 6c1.06 0 1.5 3 1.5 3s1.5-5.404 1.5-6a3 3 0 0 0-3-3z" opacity=".1"/>
    <path d="M34.023 13a14.976 15 0 0 0-2.964.309A14.976 15 0 0 1 43.008 28 14.976 15 0 0 1 31 42.691a14.976 15 0 0 0 3.023.309A14.976 15 0 0 0 49 28a14.976 15 0 0 0-14.977-15zM18 17a3 3 0 0 0-3 3 3 3 0 0 0 3 3 3 3 0 0 0 3-3 3 3 0 0 0-3-3zm7.8 8c-1.55 0-2.8 1.338-2.8 3s1.25 3 2.8 3h8.4c1.55 0 2.8-1.338 2.8-3s-1.25-3-2.8-3zM18 33a3 3 0 1 0 0 6c1.06 0 1.5 3 1.5 3s1.5-5.404 1.5-6a3 3 0 0 0-3-3z" fill="#066678"/>
    <path d="M32 3A29 25 0 0 0 3 28a29 25 0 0 0 .02.502A29 25 0 0 1 32 4a29 25 0 0 1 28.97 24.51A29 25 0 0 0 61 28 29 25 0 0 0 32 3z" fill="#F9F5D7" opacity=".2"/>
</svg>
