<svg xmlns="http://www.w3.org/2000/svg" width="64" height="64" version="1">
    <circle cx="32" cy="33" r="28" opacity=".2"/>
    <ellipse cx="31.988" cy="32.017" rx="27.307" ry="27.312" fill="#F9F5D7"/>
    <path d="M56.243 18.01A28.007 28.012 0 0 0 17.985 7.759 28.007 28.012 0 0 0 7.7 18.134l24.288 13.883z" fill="#8F3F71"/>
    <path d="M56.243 18.01L31.988 32.018l-.124 27.982a28.007 28.012 0 0 0 14.128-3.723 28.007 28.012 0 0 0 10.251-38.265z" fill="#B7BB25"/>
    <path d="M31.988 32.017L7.7 18.134a28.007 28.012 0 0 0 .033 27.889 28.007 28.012 0 0 0 24.13 13.976z" fill="#48B9C7"/>
    <path d="M32 4A28 28 0 0 0 4 32a28 28 0 0 0 .018.492A28 28 0 0 1 32 5a28 28 0 0 1 27.975 27.492A28 28 0 0 0 60 32 28 28 0 0 0 32 4z" opacity=".2" fill="#F9F5D7"/>
    <path d="M37.516 35.732c-4.324 3.983-12.644-2.335-16.156-6.302-3.612-4.081-17.099-17.844-18.084-18.737-.986-.892-1.771-1.995-.9-3.092.908-1.068 2.163-.537 3.251.23C6.715 8.6 23.143 18.785 27.934 21.43c4.658 2.573 12.638 9.304 9.582 14.302z" opacity=".1"/>
    <path d="M37.516 34.732c-4.324 3.983-12.644-2.335-16.156-6.302C17.748 24.349 4.261 10.586 3.276 9.693c-.986-.892-1.771-1.995-.9-3.092.908-1.068 2.163-.537 3.251.23C6.715 7.6 23.143 17.785 27.934 20.43c4.658 2.573 12.638 9.304 9.582 14.302z" fill="#504945"/>
    <path d="M43.8 38.68C28 52.445 13.54 40.15 11.444 35.332c1.24 8.363 6.972 15.847 15.631 18.727 6.54 2.175 20.002.733 21.014-5.936z" opacity=".1"/>
    <path d="M43.8 37.68C28 51.445 13.54 39.15 11.444 34.332c1.24 8.363 6.972 15.847 15.631 18.727 6.54 2.175 20.002.733 21.014-5.936z" fill="#8F3F71"/>
    <path d="M43.554 40.642c-1.351.61-1.205 1.049-2.405.86-.828-.132-8-5.476-8-5.476-.363-.857.073-2.036.892-2.97.76-.98 1.843-1.642 2.772-1.47 0 0 6.799 5.796 7.1 6.565.436 1.115-.032 1.066-.359 2.491z" opacity=".1"/>
    <path d="M43.554 39.642c-1.351.61-1.205 1.049-2.405.86-.828-.132-8-5.476-8-5.476-.363-.857.073-2.036.892-2.97.76-.98 1.843-1.642 2.772-1.47 0 0 6.799 5.796 7.1 6.565.436 1.115-.032 1.066-.359 2.491z" fill="#A79984"/>
    <path d="M44.887 52.368c5.083-2.86 6.278-8.012 4.27-11.656-1.559-2.832-4.12-3.367-5.889-1.998-1.755 1.358-1.91 2.977-1.386 4.585 1.067 3.278 5.645 5.687 3.005 9.069z" opacity=".1"/>
    <path d="M44.887 51.368c5.083-2.86 6.278-8.012 4.27-11.656-1.559-2.832-4.12-3.367-5.889-1.998-1.755 1.358-1.91 2.977-1.386 4.585 1.067 3.278 5.645 5.687 3.005 9.069z" fill="#3A393A"/>
</svg>
