<svg xmlns="http://www.w3.org/2000/svg" width="64" height="64" version="1">
    <rect width="44" height="56" x="-55" y="-60" rx="2.75" ry="2.8" transform="matrix(0 -1 -1 0 0 0)" opacity=".2"/>
    <path d="M6.8 10C5.249 10 4 11.226 4 12.75v36.889a39.2 38.5 0 0 0 4.2.236 39.2 38.5 0 0 0 39.2-38.5A39.2 38.5 0 0 0 47.35 10H6.8z" opacity=".2" fill-rule="evenodd"/>
    <path d="M60 51.25v-38.5c0-1.524-1.249-2.75-2.8-2.75h-3.597l-40.09 8.983c-1.514.34-5.244 3.217-5.466 4.725L4 51.25C3.778 52.757 5.249 54 6.8 54h50.4c1.551 0 2.8-1.226 2.8-2.75z" fill="#8F3F71"/>
    <path d="M6.8 11C5.249 11 4 12.227 4 13.75v38.5C4 53.774 5.249 55 6.8 55h24.093C47.054 46.706 55.99 30.284 56 12.375A47.17 47.17 0 0 0 55.95 11z" opacity=".1" fill-rule="evenodd"/>
    <path d="M9.762 15.528c-1.527.276-1.325 5.006-1.616 6.501L4 43.37v7.881C4 52.774 5.249 54 6.8 54h24.093C47.054 45.706 55.99 29.284 56 11.375A47.17 47.17 0 0 0 55.95 10H40.375z" fill="#066678" fill-rule="evenodd"/>
    <path d="M6.8 11C5.249 11 4 12.226 4 13.75v32.903c1.85.32 3.722.485 5.6.497 18.557 0 34.6-15.175 34.6-33.4a32.417 32.417 0 0 0-.136-2.75z" opacity=".1" fill-rule="evenodd"/>
    <path d="M10.453 15.726c-1.48.463-1.489-1.774-1.912-.31L4 31.126V45.654c1.85.319 3.722.485 5.6.496 18.557 0 34.6-15.175 34.6-33.4a32.417 32.417 0 0 0-.136-2.75H28.727z" fill="#7CB668" fill-rule="evenodd"/>
    <path d="M6.8 11C5.249 11 4 12.226 4 13.75v21.01a24.22 24.22 0 0 0 4.2.39c13.144 0 23.8-9.866 23.8-22.775A22.838 22.838 0 0 0 31.95 11z" opacity=".1" fill-rule="evenodd"/>
    <path d="M7.985 13.06c-1.508.365-.656.51-1.122 1.96L4 23.921v9.84a24.22 24.22 0 0 0 4.2.39c13.144 0 23.8-9.866 23.8-22.776A22.838 22.838 0 0 0 31.95 10H20.633z" fill="#F9BD2E" fill-rule="evenodd"/>
    <path d="M6.8 11C5.249 11 4 12.226 4 13.75v13.266c.465.045.932.073 1.4.083 9.506-.003 17.809-6.79 18.54-16.1z" opacity=".1" fill-rule="evenodd"/>
    <path d="M6.8 10C5.249 10 4 11.227 4 12.75v13.266c.465.046.932.074 1.4.084 9.506-.004 17.809-6.791 18.54-16.1z" fill="#FA4934" fill-rule="evenodd"/>
    <path d="M18 21v2.896l2.224.168.371.505-3.691 16.875-.568.526-2.336.17V45h10v-2.86l-2.05-.148-.393-.547L23.065 35h2.315l3.32 6.079c1.357 2.685 2.309 3.837 5.242 3.872.843.01 1.183.07 3.458 0 7.848-6.313 11.854-11.658 12.487-13.833.383-1.318-.226-2.126-1.53-2.126-.636 0-1.364.258-2.183.779l-.59 5.057c-1.606 2.022-3.748 4.226-6.356 6.524l2.279-9.225c.358-1.778.476-2.727-.721-3.094l-5.351 1.136-.284.968 2.468.38c.172.612-.572 2.478-.947 4.532l-1.201 6.376c-.02.066-.031.138-.044.21-.779-.402-1.27-1.12-1.835-2.209l-4.696-8.45 8.584-7.743 2.52-.274V21H30v2.96l3.505.168.218.568L24.666 32h-1.092l1.675-7.43.48-.505L28 23.896V21z" opacity=".2"/>
    <path d="M18 20v2.896l2.224.168.371.505-3.691 16.875-.568.526-2.336.17V44h10v-2.86l-2.05-.148-.393-.547L23.065 34h2.315l3.32 6.079c1.357 2.685 2.309 3.837 5.242 3.872.843.01 1.183.07 3.458 0 7.848-6.313 11.854-11.658 12.487-13.833.383-1.318-.226-2.126-1.53-2.126-.636 0-1.364.258-2.183.779l-.59 5.057c-1.606 2.022-3.748 4.226-6.356 6.524l2.279-9.225c.358-1.778.476-2.727-.721-3.094l-5.351 1.136-.284.968 2.468.38c.172.612-.572 2.478-.947 4.532l-1.201 6.376c-.02.066-.031.138-.044.21-.779-.402-1.27-1.12-1.835-2.209l-4.696-8.45 8.584-7.743 2.52-.274V20H30v2.96l3.505.168.218.568L24.666 31h-1.092l1.675-7.43.48-.505L28 22.896V20z" fill="#F9F5D7"/>
    <path d="M6.8 10C5.25 10 4 11.226 4 12.75v1C4 12.226 5.25 11 6.8 11h50.4c1.55 0 2.8 1.226 2.8 2.75v-1c0-1.524-1.25-2.75-2.8-2.75H40.77z" opacity=".1" fill="#F9F5D7"/>
</svg>
