<svg xmlns="http://www.w3.org/2000/svg" width="64" height="64">
    <path d="M4.052 32.005c-.011.333-.05.66-.05.996A27.938 27.938 0 0 0 32 61c14.952 0 27.091-11.605 27.95-26.335l.05-.046v-2l-.05.046C59.091 47.395 46.952 59 32 59 16.828 59 4.582 47.044 4.052 32.005z" opacity=".2"/>
    <path d="M31.785 4.006h-.002C16.373 4.124 4.002 16.561 4.002 32a27.938 27.938 0 0 0 27.999 28c14.951 0 27.09-11.605 27.947-26.336l.051-.048V9.6C60 6.498 57.502 4 54.4 4H31.786z" fill="#97971A"/>
    <circle cx="32.001" cy="33.005" r="19.999" opacity=".2"/>
    <circle cx="32.001" cy="32.005" r="19.999" fill="#F9F5D7"/>
    <path d="M52.34 17.096H57V19h-6.996v-1.846l1.171-1.245c1.392-1.48 2.537-2.39 2.835-2.732.366-.42.63-.79.79-1.113.162-.327.242-.65.242-.967 0-.488-.149-.664-.446-.927-.293-.269-1.21-.403-1.753-.403-1.006.055-1.979.437-2.805.7V8.655c.523-.19 1.033-.335 1.53-.432a7.225 7.225 0 0 1 1.444-.154c1.157 0 2.265.27 2.924.813.664.537.996 1.071.996 2.004 0 .43-.073.833-.22 1.208-.141.376-.388.794-.74 1.253-.258.332-.969 1.079-2.13 2.241-.63.63-1.131 1.133-1.502 1.509z" opacity=".2"/>
    <path d="M52.34 16.102H57v1.904h-6.996v-1.845l1.171-1.246c1.392-1.479 2.537-2.39 2.835-2.731.366-.42.63-.791.79-1.114.162-.327.242-.649.242-.966 0-.489-.149-.664-.446-.928-.293-.269-1.21-.403-1.753-.403-1.006.055-1.979.437-2.805.7V7.66c.523-.19 1.033-.335 1.53-.432a7.225 7.225 0 0 1 1.444-.154c1.157 0 2.265.271 2.924.813.664.537.996 1.072.996 2.004 0 .43-.073.833-.22 1.209-.141.376-.388.793-.74 1.252-.258.332-.969 1.08-2.13 2.241-.63.63-1.131 1.133-1.502 1.509z" fill="#F9F5D7"/>
    <path d="M31.781 4.006C16.372 4.124 4 16.564 4 32.002c0 .11.01.218.016.326A27.93 27.93 0 0 1 31.78 5.006h22.614a5.59 5.59 0 0 1 5.601 5.601v-1a5.59 5.59 0 0 0-5.601-5.601H31.78z" opacity=".2" fill="#F9F5D7"/>
    <path d="M32.056 17.996c-.164.016-.292.126-.332.322a1.15 1.15 0 0 0 .027.47c.04.14.072.308.072.376s.062.212.135.322c.125.186.125.208.03.342-.14.196-.382.333-.66.375-.227.034-.233.042-.233.293 0 .233-.026.275-.268.445a1.5 1.5 0 0 1-.521.229c-.197.03-.305.093-.461.275-.24.28-.762.527-1.002.475a.842.842 0 0 1-.332-.202c-.204-.2-.46-.222-.56-.048-.112.19-.015.423.29.699.156.14.281.3.281.353 0 .154-.244.4-.494.496-.476.183-.568.411-.336.83.067.12.153.331.194.47.1.344-.05.767-.352.99-.251.184-.286.404-.09.568.25.208.169.357-.304.558-.683.292-.863.661-.621 1.276.141.361.128.44-.108.605-.226.16-.35.366-.52.862-.145.426-.241.554-.546.732-.318.185-.758.792-.758 1.045 0 .18.5.94.892 1.357.216.23.295.6.182.856-.135.307-.454.634-.724.742-.25.1-.258.101-.545-.041-.16-.079-.441-.3-.623-.49-.418-.436-.568-.453-.797-.092a.949.949 0 0 0-.162.586c0 .386-.027.403-.698.473-.42.043-.62.128-1.047.439-.292.214-.35.215-.593.027-.105-.08-.472-.234-.815-.34-.555-.17-.641-.216-.795-.421a1.447 1.447 0 0 1-.209-.375c-.069-.27-1.009-1.536-1.234-1.664a9.928 9.928 0 0 0-.576-.252c-.446-.184-.507-.194-.975-.164-.6.038-.914.185-1.283.6-.292.327-.387.544-.475 1.099-.203 1.285-.155 1.458.418 1.502.405.03.529.118.785.549.091.15.208.296.26.322.1.049.707.277 1.233.463.36.127.531.264.85.67.125.16.337.403.47.539.133.135.24.293.24.351 0 .058-.142.24-.316.406-.357.34-.39.478-.225.985.076.232.147.32.365.45.15.088.395.264.545.39.272.228.274.23.176.404a.702.702 0 0 1-.17.215c-.039.022-.11.13-.16.238-.082.18-.077.22.041.434.103.185.12.293.088.52-.033.23-.016.318.084.45.068.091.173.286.234.43.172.405.198.423 1.248.834.192.075.248.142.36.43.073.188.164.45.2.58.108.378.46.61.927.61.265 0 .539.09.539.179 0 .112.43.613.67.781.126.09.326.176.455.176.193.014.301.087.68.453.247.24.543.555.658.701.114.147.3.31.412.364v.01c.213.097.33.096 1.728-.02.707-.059.833-.117.924-.43.111-.38.021-.576-.34-.74-.298-.136-.308-.137-.588-.04-.262.085-.31.085-.586 0a4.665 4.665 0 0 0-.537-.122c-.31-.044-.301-.126.032-.264.342-.142.437-.142.636.002.335.243.528.092.451-.351-.033-.19-.007-.23.35-.555.212-.193.507-.412.656-.486.237-.12.327-.13.715-.1.378.03.475.018.65-.082.229-.13.246-.216.13-.617-.069-.235-.062-.29.048-.479.165-.282.454-.543.602-.543.158 0 .568.226.738.408.122.13.192.14.635.16.274.02.528.019.562.02.035 0 .281-.015.547-.035.429-.034.53-.02.897.113.227.083.591.192.808.238.456.098.594.195.795.56.172.311.247.378.819.724.644.39 1.111.422 1.761.119.167-.078.36-.143.428-.143.2 0 .446-.24.535-.525.078-.243.093-.264.309-.264.128 0 .282-.043.351-.101a.563.563 0 0 1 .31-.102c.251 0 .343-.096.343-.357 0-.174.044-.25.224-.397.458-.37.492-.38.827-.244.46.187.666.156 1.496-.234.266-.126.556-.229.646-.229.098 0 .333.12.584.293.602.42.831.381 1.025-.172.128-.362.106-.41-.328-.715-.412-.288-.445-.355-.304-.617.143-.268.394-.405 1.021-.55.522-.123.674-.192 1.563-.712.437-.256.621-.33.812-.33.923 0 1.377-.881 1.479-2.873.015-.295.076-.508.254-.877.447-.926.54-1.231.634-2.105.06-.545.07-.915.034-1.065-.038-.152-.022-.608.046-1.343.178-1.9.14-2.271-.295-2.858a1.18 1.18 0 0 1-.222-.595c-.05-.422-.197-.794-.553-1.409-.291-.503-.442-.702-.92-1.216-.458-.492-.475-.539-.463-1.153.008-.388-.019-.605-.093-.767a1.224 1.224 0 0 1-.104-.422c0-.137-.038-.214-.129-.258-.181-.09-.987-.105-1.08-.021-.041.037-.09.191-.107.341-.026.213-.067.286-.18.334-.212.09-.684-.177-.852-.48-.07-.126-.232-.3-.359-.39-.394-.279-.453-.348-.498-.595-.037-.2-.014-.288.144-.546.224-.366.31-.957.168-1.143-.142-.187-.471-.3-.757-.256-.233.035-.267.066-.424.37a1.416 1.416 0 0 1-.414.493c-.133.09-.335.237-.45.327-.234.184-.494.21-.771.078-.16-.076-.184-.126-.223-.457-.034-.293-.089-.433-.261-.657-.121-.156-.238-.385-.26-.51-.029-.163-.098-.264-.256-.376a1.244 1.244 0 0 1-.312-.32c-.124-.221-.445-.397-.723-.397-.192 0-.278.053-.635.398-.227.22-.466.418-.531.44-.07.022-.284-.022-.52-.108-.449-.166-.624-.178-.85-.064-.13.072-.194.07-.411 0-.339-.111-.505-.066-.672.184-.27.402-.533.387-.627-.038-.052-.232-.245-.342-.61-.343-.142 0-.39-.063-.566-.145-.364-.17-.623-.183-1.06-.05-.302.085-.32.084-.403-.02-.076-.096-.072-.135.033-.293.168-.25.154-.387-.058-.596-.177-.174-.375-.25-.54-.234zm5.554 4.01c.42-.027.936.023 1.664.158.276.05.7.124.942.16.241.036.565.085.72.11.4.06.653.2.813.452.124.196.126.223.037.285-.132.09-.124.159.027.247a.273.273 0 0 1 .125.222c0 .224.113.375.278.375.225 0 .318.14.228.342a.539.539 0 0 0-.056.248c.012.06-.023.08-.106.06-.501-.09-.78.017-.646.249.055.096.035.14-.13.265-.226.175-.25.297-.062.297.079 0 .145.045.164.115.043.152.071.15.268-.027.146-.132.176-.138.289-.064.11.071.123.138.107.511-.022.579.097 1.442.229 1.657.204.334.261.774.19 1.464-.037.351-.084.849-.106 1.106-.031.37-.07.5-.188.633-.162.182-.175.307-.148 1.412.015.609.028.656.205.887.103.133.243.253.313.273.126.03.126.031-.006.187-.073.088-.133.208-.133.266 0 .092.034.1.187.072.16-.03.195-.014.248.118.078.198.236.205.327.021.058-.12.112-.14.373-.143.27-.002.31.015.343.137.046.172.183.225.352.14.173-.086.267.01.426.43.154.411.157.648.008.95-.187.377-.69.71-1.58 1.05-.405.155-.572.255-.76.461-.397.433-.506.599-.492 1.963.02 2.205.022 2.173-.118 2.428-.07.129-.113.282-.185.344l.002-.01c-.105.088-.257.115-.742.137-.337.012-.633.004-.659-.02-.066-.072-.945-.114-1.271-.072-.106.014-.125-.017-.125-.201 0-.217-.204-.5-.26-.36-.113.282-.396.314-.396.045 0-.206-.207-.18-.295.037-.095.24-.303.251-.246.02.115-.475.119-.541.023-.541-.167 0-.245-.144-.172-.324.095-.233.023-.482-.146-.504-.125-.017-.139-.056-.153-.457-.01-.241-.015-.548-.015-.682 0-.292-.164-.271-.469-.496-.137-.101-.22-.215-.22-.297a.466.466 0 0 0-.09-.244c-.088-.112-.093-.11-.249.025-.142.124-.193.134-.49.098-.424-.054-1.016-.09-1.96-.12-.69-.021-1.114-.077-1.266-.165-.033-.018-.382-.066-.776-.102-.393-.036-.811-.1-.928-.146a1.864 1.864 0 0 0-.53-.084c-.178 0-.585-.036-.907-.078-.647-.086-.85-.504-.979-.873a.694.694 0 0 0-.257-.309c-.185-.112-.193-.132-.172-.467.013-.216.061-.387.125-.453.087-.09.092-.147.033-.383-.066-.262-.063-.282.082-.384.084-.06.152-.144.152-.188 0-.044.062-.11.135-.146.102-.051.124-.103.098-.227-.025-.113.01-.223.115-.367.146-.201.147-.209.033-.305-.113-.096-.111-.112.1-.476.199-.344.21-.393.142-.569-.124-.321.156-.764.881-1.392.523-.453.616-.56.742-.881.08-.201.201-.498.272-.658.07-.161.152-.371.18-.467.027-.097.15-.367.275-.602.182-.342.404-.6 1.137-1.314.501-.488 1.017-1.03 1.144-1.203.49-.666.577-.805.643-1.026.037-.125.186-.372.33-.552.263-.33.465-.64.637-.983.225-.45.943-.836 1.953-1.045.123-.025.252-.042.392-.05zm-1.025 7.082a.811.811 0 0 0-.197.1l-.387.251c-.62.398-1.127.963-1.129 1.26 0 .12-.253.602-.488.933-.088.124-.18.337-.207.471a5.28 5.28 0 0 1-.127.49c-.071.222-.07.859.04.975.156.163.588.346.962.404v.002c.16.024.883.051 1.61.051 1.554.008 1.81-.041 2.044-.393.234-.351.3-1.17.236-1.376-.067-.22-.23-.405-.359-.405-.19 0-.582-.256-.62-.404a4.035 4.035 0 0 0-.16-.441c-.194-.461-.28-.683-.368-.96-.083-.256-.54-.864-.721-.958-.032-.017-.075-.017-.129 0z" fill="#FA4934"/>
</svg>
