<svg xmlns="http://www.w3.org/2000/svg" width="64" height="64">
    <path d="M32 11C18.193 11 7 22.193 7 36c0 8.831 4.58 16.593 11.493 21.04 3.895 2.506 8.747.941 13.723.941 5.617 0 10.587 1.166 14.761-1.962C53.062 51.459 57 44.189 57 36c0-13.807-11.193-25-25-25z" opacity=".2"/>
    <path d="M32 10A25 25 0 0 0 7 35a25 25 0 0 0 25 25 25 25 0 0 0 25-25 25 25 0 0 0-25-25z" fill="#79740D"/>
    <path d="M32 17a19 19 0 0 0-19 19 19 19 0 0 0 19 19 19 19 0 0 0 19-19 19 19 0 0 0-19-19z" opacity=".2"/>
    <path d="M32 16a19 19 0 0 0-19 19 19 19 0 0 0 19 19 19 19 0 0 0 19-19 19 19 0 0 0-19-19z" fill="#48B9C7"/>
    <path d="M32 16a19 19 0 0 0-19 19 19 19 0 0 0 .02.426A19 19 0 0 1 32 17a19 19 0 0 1 18.98 18.602A19 19 0 0 0 51 35a19 19 0 0 0-19-19z" opacity=".1" fill="#F9F5D7"/>
    <path d="M16.638 5c-3.235.001-4.854 3.934-2.568 6.234l2.93 3.8v35.932l-2.93 3.8c-2.286 2.3-.667 6.233 2.568 6.234H48.899c1.144 0 2.22-.542 2.906-1.462l4.464-6.939c1.793-2.407.085-5.598-2.906-5.599H34V8.652C34 6.635 32.47 5 30.463 5z" opacity=".2"/>
    <path d="M32 10A25 25 0 0 0 7 35a25 25 0 0 0 .021.406A25 25 0 0 1 32 11a25 25 0 0 1 24.979 24.578A25 25 0 0 0 57 35a25 25 0 0 0-25-25z" opacity=".1" fill="#F9F5D7"/>
    <path d="M16.638 4c-3.235.001-4.854 3.934-2.568 6.234l2.93 3.8v35.932l-2.93 3.8c-2.286 2.3-.667 6.233 2.568 6.234H48.899c1.144 0 2.22-.542 2.906-1.462l4.464-6.939c1.793-2.407.085-5.598-2.906-5.599H34V7.652C34 5.635 32.47 4 30.463 4z" fill="#F9BD2E"/>
    <path d="M16.637 4c-2.38 0-3.877 2.129-3.596 4.17C13.276 6.49 14.648 5 16.637 5h13.826C32.468 5 34 6.635 34 8.652v-1C34 5.635 32.468 4 30.463 4H16.637zM34 46v1h19.363c1.95 0 3.347 1.358 3.592 2.969.3-2.007-1.247-3.968-3.592-3.969H34zm-17 3.967l-2.93 3.799a3.58 3.58 0 0 0-1.029 3.064c.1-.733.425-1.456 1.03-2.064l2.929-3.8v-1z" opacity=".2" fill="#F9F5D7"/>
</svg>
