<svg xmlns="http://www.w3.org/2000/svg" width="64" height="64" version="1">
    <rect width="56" height="56" x="4" y="5" rx="28" ry="28" opacity=".2"/>
    <rect width="56" height="56" x="4" y="4" rx="28" ry="28" fill="#066678"/>
    <path d="M32.265 5.05l-.353.024.299.019-.18-.003-.067.011.525.03.334.003.027-.01.4-.006-.145.024.303-.01-.035.032.333.011.145.022-.927.044-1.176.202-.855.06-.11-.019-.106.036-.657.038-.095.057-.802.05.312-.052-.087-.011-.98.177.094.014.213-.038.022.035-.408.252-.812.23.033-.099-.052-.025-.14.047-.016-.05-.333.217-.216.057.172.071-.268.099-.194.027.219-.093-.192-.14.367-.147.536-.377.366-.09.096-.105-.058-.087-.84-.011-.401.12h.131l-.473.11.172.013-.525.167.235.033-.328.096.38-.003-.1.063.412-.085-.085.238-.183.063-.145.005-.205.148-.134-.041-.049.093-.468.189-.393.049.063.046-.32.334-.504.37-.464.182.04.069.758-.036-.082-.016.3-.028.176-.145.052.025.194-.082-.76.388.024.156.266.047-.137.084-.284-.057-.29.189-.424.063-.432.166.046.047-.153.005-.085.104.271-.093-.063.126.15.02.214-.086-.37.195.19-.028-.206.082.069.112.566-.17.336-.18.118-.098-.413.014.71-.03 1.119-.29h.003l.84-.192.39-.202.503-.118-.07-.093-.304-.01.046-.077.465-.071.208.046.085-.093.798-.191.118-.131.661.191.52-.063.53-.142.695.087-.18.069.3.049.197-.022.246-.167.009.137-.099-.071-.128.101.426-.04-.41.048.952.06-.066-.057.344-.068-.172.005.145-.065-.134-.099.334.027.052-.087.292.112.375-.022.14.118.377-.208.328.309h-.21l.144.082-.167.005.044.12.37.066.196.154.364-.143.42.115.16.101-.124.039.402.15h.402l-.087.167.137-.028.008.096.208.06.125-.038-.175-.063.73.156.233-.022-.44.055-1.198-.02-.003.167-.07-.106-.11.046.095.287.545.134-.22.033.282.175-.29-.04.102.155.451.014.221-.09.206.117.054-.12.025.087.44.11-.142.016.257.164.123-.003-.126-.07.91.368.214-.049-.014.099.304-.184.667.512.462-.082.088-.287.798-.077-.068.131-.37-.01.247.062-.605-.065.162.161-.047.295.153.085.132-.057.123.191.237-.262.074.235-.661.147.278-.027.495.189.277-.132.686.074-.213-.238.013-.183.233-.057.279.079-.003-.145.033.189-.482.049.247.213.462.006.883.372.035.358-.322-.342-.823-.27-.159.109-.891-.06-.208.095-.635-.104-.024.118.101.205.697.128.31.184.732.057-.06-.145.205-.106.438.155-.323.266-.003-.074-.148.563.17.101.328-.054.088.155.188.058-.292.03.27.254.036.235.205.113v.2l-.304-.13-.1-.136.018.085.337.276-.131-.022.328.55.153-.011.005.164.328.15.02.216-.312.033-.159-.293-.156-.035-.322.306.216-.041 1.107.448-.314.145.21.31.205.256.476.104-.221.222.087.115-.107-.115-.216.14.186.15.274-.112.202.213-.478.194-.43-.145-.188-.202-.287.153-.033-.137-.449.052.862-.695-.402-.514-.547-.008-.711.301-.11.189.167.158-.218-.175-.077.15-.159-.073.069-.107-.162.063.132.183-.208.028.052.144-.298-.03.15-.147-.104-.173-.347.099.14.232-.206-.21-.13.052.267.227.006.09-.266-.175.301.394-.309-.296-.145.099.358.394-.306.098.304.112-.197.011.2.353-.269-.25.184.233-.164-.125.008.136.23.06-.238.066.284.295-.063.18.191-.122-.155.183.251.156-.238-.093.003.142.129-.01-.104.117.238-.011-.058.273.203-.07-.178.262h.12l.118.32.09-.178-.093.251.161.028-.104.024.186.32.085-.136-.066.341.093-.128-.008.189.156.03-.038.123-.148-.077.137.52.164-.077-.058-.312.184.296-.12.18-.13-.09-.098.216.227.194-.191.027.216.05-.35.065.279-.033-.27.257.32.085-.168-.035.058.106-.145.025.12.022-.254.085.112.109.295-.18-.287.183.063.145.191-.05-.142.115.14-.06.008.159.197-.189-.033-.115.186.036-.068-.164.109.087.025.216-.19-.065-.24.246h.156l-.096.098.145.071.033-.14.003.22.128.065-.024-.142.123.23.087-.438-.03.624.164.057.08-.238.024.282.15-.085.003.134-.196.01.172.187.448.054.175-.205-.112-.582.183-.093-.24-.372.623.544.055-.1.156.215-.088-.208.189.276.607.26.008.183.386.312.246-.216-.194-.38.227-.142-.359-.654-.432-.336.08-.08-.178.053.145-.246-.131-.167.183.098-.069-.287-.145.038.014-.262-.484-.142-.142.085-.837-.881.148.022-.107-.675-.164-.331-.413-.235.112-.02-.235-.175.159-.01-.134-.145.213-.222.44.126.482 1.277.612.339.315.353.29-.03.005-.137.205.216.227-1.179.161.126.331-.15-.142.404.145.15-.347.263-.069.487.383.26.112-.126.413.396.014.22-.446-.11-.044.216.307.484.634.525-.11.123-.207-.378.17.32-.034.167.096.112.066-.104.008.348-.077-.244-.06.296-.311-.044-.26.837.123.191-.574-.082-.244.525-.095-.213-.167.18-.31-.101-.262-.38.017-.5-.244.01-.254-.484-.17.534.709 1.02.027-.104.208.104-.03.142.5.131-.35.025.131.246-.224-.066-.14.183.184.104-.386.153-.024.22.26.136-.05.205-.311-.21.125.543.222.017-.235.257.246-.041-.511.599.207.298-.205.629-.612.082.426.426-.33.25-.203-.13-.388.4.235.04-.142.047.183.197.632-.134.402.397.243-.022.11.312.07.04.342 1.083-1.698.755-.265-.068-.386.568.364.26.334 1.121-.017.755.159-.18v.328l.21-.08-.073.044.175.695.71-.438.665.443.287-.536.768-.377.074-.479.216-.177-.082-.383.148-.32-.233-.104-.109-.3.066-.808.45-.776-.3-.394-.003-.276.14-.252.694-.12.29-1.09.481-.058.657.514 1.736.095.451.391.09.49.126-.055-.12-.503.076-.224-.363-.156-.101-.375.251-.147.243.101-.062-.183-.933-.011-.087-.233-.342.225-.697-.413-.47-.044-.405-.46.188-.44.389.37-.017-.353.84.481.227-.148.35.06-.206.083.515-.154.371.102.353.645.72.29.051-.126-.013.183.21.115.462-.424.003.167-.377.243.052.214.41.292.024-.188.246.18-.084-.21.21.016-.407-.35.186-.137-.224-.06.049-.191.208.038-.14-.222-.49.082.053-.188-.126-.112.128-.025-.525-.347.011-.145.397.046-.164-.117.177-.077-.3-.085.161-.426.386-.246.087.388-.085-.684.208-.355-.64-.246-.052.107-.18-.714-.465-.613.112.071.022-.2-.34-.36.094.057-.058-.197.063.208-.079-.344-.153-.039.15.036-.134-.232.017-.389.197.039-.137.175.11-.063.035.112.235-.364.126.093.033.43.057-.184.325.263.132-.069-.102-.96-.079.299-.369-.143.375.148-.074.085-.249-.074-.156-.372.148.197-.129-.405.03-.951.18.344-.081.189.314.016h-.106l.268.46-.011.279 1.227-.331.334.21.14.25.076.464-.129.454-.284.37-.424.037-.153.43.052.855-.314.443.15.14.12-.131-.109.26.093.106-.353.514.055.334.123.197.115-.25.24.42.134-.03-.038.174-.153-.082.093.21.254-.136.052.189.227.005.02.208.144-.304-.033.389.104-.35.402-.014.085-.213-.161-.315.074-.134.456-.101.085-.38-.096-.394.159-.09-.011-.323.33.583.337.322.686 1.712-.202.706-.15-.143-.145.214-.104.847-.506.307-.345.434-.153-.128-.366.35-.164-.15-.364.224-.158.724.306.585-.112.517-.419-.003-.626.304-.36-.31-.589.19-.276.273-.787.025-.145-.134.076-.714-.404-.265-.08-.55-.07.295-.34-.145-.388.605-.479.18-.213.416-.498.142-.779.716-.219.504-.287.218-.216.49-.303.131-.112-.137-.55.391-.4-.224-.141.134-.02 1-.697 1.103-.052.648.25.632-.118.456-.402.69-.53.363-.168.74-.298.337-.04.807-.362.563.077-.11-.388 1.229.016.483.063-.183.39.367-.095.454.34.716-.124 1.042-.393.571.522.274.027.238.43-.195-.353.227-.18-.049.021.416.252-.09-.252.166.361-.07-.148.158.238-.02-.035.132.465-.254-.257.17h.226l-.205.21.14.112.101-.118-.025.132.173-.126.147.358.446.052-.077.156.203.016.087.337.156-.063-.205.128.41.162-.02.177.613.055 1.19.432.558-.03.58-.522.896-.517.867-.197 1.29-1.312.936-.76-.148.194.388-.22.257.1.104-.16-.095.176.172-.069-.131.11.074.03.112-.14-.104.235.254.208.26-.186-.003-.12.06.071-.04-.107.09.069.013-.172.104.06.325-.274-.027-.156.126.11.087-.18.156.237.17-.197.043.093-.098.074.164.192-.186.943.12-.05-.005.263-.123.066.232-.038-.164.175-.052-.085-.076.486-.15.09.262.403a27.924 27.924 0 0 0 4.648-17.437l-.17-.323.053-.003-.235-.273-.315.016-.221-.339.04-.085-.202-.046-.943-.886-.4-.18-.256-.345.443.342.328.043-.345-.93.301.69.088-.17.877.539.197.268.224-.077.345.337.082.161a27.952 27.952 0 0 0-1.16-5.455l-.032-.03-.011.11-.038-.206-.14-.117.028-.25-.099-.144.052-.025c-3.451-9.939-12.3-17.302-23.092-18.572l-.84-.082-1.528-.068zm-.596.013l-.306.014.221.073.137-.008-.175-.019.312-.016.033-.03zm-.306.014l-.697.024h-.028l-.388.025zm-1.113.049h-.003l-.03.003zm2.767.035l.104.02.129-.017zm.301.011l-.066.008zm-5.852.285l-.076.013zm-.13.027l-.214.041.027.003zm-.236.05l-.08.018zm-.962.677l-.206.123.244-.076zm-1.165.055l-.37.071.134-.019zm-.523.134l-.237.055zm-1.832.536l-.227.082zm-.303.082l-.088.044zm10.429.131l.164.006zm-.788.342l-.07.055.226.087.331-.11-.484-.032zm-4.64.142V7.7l.232-.058zm4.95.014l.103.055zm.696.014l.099.054zm-12.211.024l-.131.055v.003zm11.935.15l-.765.02.03.033L31.7 8l.537.136.098-.134.227.14.24-.137-.117-.167zm-1.517.039l-.227.115.623.04-.123-.122zm1.772.096l.005.103-.003-.103zm-12.907.13l-.1.04-.055.046zm4.127.03l-.123.067-.011.008-.099.074zm-4.302.05l-.1.082zm16.32.071l-.154.03.197.058zm-16.525.038l.017.039zm6.533.14l-.326.306.397-.126zm-4.621.15l-.197.096zm-2.453.118l-.235.158zm3.23.066l-.471.246-.017.104.635-.342zm.316.456l-.434.222.084-.104-.322.079-.465.364.098.002-.172.044.082.123-.161.12-.036-.09-.317.112-.098-.043.16-.15-.087-.118.23-.145-.413-.194-.235.082-.093.104-.035-.041-.318.237.088-.142-.323.077-.156.26-.5.15-.09-.066-.085.244-.462.265.249.003-.255.09v.178l-.166-.06-.38.095-.052-.374-.211.057.284-.262-.145-.165.014.044-.093.074.14-.041-.18.126.128.019-.15.08-.028.19-.142.06.333.455-.027.197.189.087.164-.161.147-.028.487.375-.06.205-.071-.11-.246.206.221-.24-.043-.13-.361.017-.08.145-.188-.066.013.271.134-.03-.123.057.17-.027-.159.178.172.027.214-.161.134.104-.186.024.117.022-.134.05.036.139-.068-.041-.085.117-.02-.079.006.085-.158.055-.072.17-.232.158-.115.448-.254.249.126.08-.137.141-.093-.03.202-.1-.188.01-.714.768.057.083.337-.296-.167.197.14-.05-.315.17-.085.173.563-.271-.503.298-.098.148.142.01-.205.033-.104.203-.035-.063-.132.18.11-.183-.17.18-.068-.057-.44.583-.277.008.214.106-.153.14-.424.191.238.014.27-.101-.38.153-.04.12-.14-.076-.15.17.147-.17-.12.057-.06.216-.118-.044-.243.298.268-.027-.192.093-.016.145.016-.189-.33.438-.192-.008.101.022-.134.114.208.058-.367.033-.142.139.096.033-.156-.017.025.143-.09-.102.032.23-.09-.137-.003.301-.046-.057-.055.12.137.063-.164-.063-.074.186.128-.033-.112.047.003.11.213-.078-.254.115.099.107-.216.038-.09.194.182-.03-.17.203-.092-.041.101.12-.268.2-.074.227-.47.44-.208-.02.197-.049.161-.153-.251.052.323-.147.016-.512-.541.555.03.071-.28.148.017.161-.027-.134-1.264.922-.47.574-.358.238-.479.68-.268.501.063.18-.175.271.082-.243-.188.23-.523 1.208-.17.208.012.771-.123.594-.752 1.829-.12.979-.165.158-.019.192-.112-.342-.06.812.126.022-.077.637-.262.536.03 1.056-.08.369.151.032.11-.464-.077-.372.344-1.105.099-.861.142-.317.167-1.11.44-.84.05.774-.436 1.154-.09.716.077.2-.137.23.008.817-.18.164.104.64-.077.191.036 1.321-.099.826-.191.194.03.164-.12-.055-.028.21.162 1.316.306.596.112.55.968 1.952.703.383.686 1.753.859 1.06-.074-.109.462.255-.008.243-.137-.088.566 1.302-.112.005.096.123-.063.378.183.287.106-.063-.125-.29.18.257.358.667-.013.274.11.09-.02-.18.148.42.079-.087.364.263.07.273.19.014.032.342.18.084.19-.024-.157-.413.594-.058.235.443.15.041-.161.148.4.818-.17.954.207.224-.051.096-.282.276-.331-.074.003.285-.205-.052.038.254-.473-.131.055.276-.222.104.093.161-.251.014.016.506.265.303.142-.126.072.186-.104.238-.476.071.2.616-.107.054.492.542.465.746.708 1.356.15.203A27.895 27.895 0 0 0 32 61c.177 0 .351-.01.528-.014l.035-.208.282-.19.159-1.456.079-.079.112.134.208-.115 1.635-1.504.085-.429-.235-.593-.184-.126-.8-.02-.693-.461-.812-.323-1.173-.005-.61-.225-.73.361.036-.281.202-.099-.328.025.265-.14-.186-.26-.21.16-.047-.211-.1.068.054-.082-.148.046-.153-.164-.082.099-.027-.167-.077.082-.492-.243-.041.09-.358-.099-.227.296.221.057-.197.041-.106-.131-.43.342.104-.246-.601.024.798-.09.265-.454-1.011-.189-.238.34-.02-.19-.21.151-.022-.194-.213.164.2-.339.732-.43-.125-.018.11-.194-.433-.214-.262-.935-.126-.093-.058.15-.317-.423-.946-.55-1.498-.249-.577-.582-.18.186.122-.394-.265-.336-.56-.438-.318-.052.036-.377-.364-.304-.339-.049-.243-.32.5-.04-1.14-.274.287.161h-.684l-.525-.435-.877-.213-.088-.358-.539-.326-.139-.396-.126.221.197.044-.008.123-.148-.12-.683.101.196.58-.038.172-.295.006-.15-.413.287-.301-.123-.451.402-.077-.22-.284-.765.246-.369-.18-.077.125-.235-.156-.194.058-.221.208-.003.325-.593.134.038.314-.397-.749-.424-.424-.26-.161-.617.038-.296-.344.028.131-.172-.126-.474-1.38.495-1.201.017-.46-.522-.705-1.116-.599-.243-.284.36-.306.206-.602-.099-.082.175-.137-.01.356.316-.539-.098-.112.544-.544-.405-.443-.768-.249-.374.656-.383.208-.21-.306-.698-.257-.134-.492-.189-.178-.002-1.988.06-.262.347-.845.153-.307.134.03-.11.15.28-.319.188-.645-.087-.102.104.074.227-.317.257.077-.009-.189.162.2-.096.013.405.011.17-.257.106.197-.123.014.314.082.06-.145-.054.14.383.426.2-.022.125.56.172-.024.055.17.063-.214.106.137-.002.336.175-.027-.137-.334.202-.043-.276-.41.692.456.131-.183-.01.232-.107.017.382.038-.1.087.336.14-.118-.02.276.233-.049.35.46.014.133.208.167.708-.246.427.164.054-.175.164.025.334.134.044-.074.557.2.304-.09.2.202.082-.036.098.468-.771.186-2.4.497-.302-.003-.164.028.153.9-.39 1.044-.124-.202-.164.221-.04-.142-.195.262.213.2-.076.022-.189-.123.129.054-.173-.243-.082.246-.09.101.175.063-.339-.027.525.052-.632-.274-.311.164.164-.049-.276.047.188.131-.12-.014-.033.096-.117-.276-.397.096-.137.18.449.137-.64.3-.02-.298.255.077.542-.265.366.544-.49.093-.713.071.484.413-.29.076-.388.334-.162.76.134.112-.216.003.208.454.063.036-.208-.154.129-.123-.419.509-.563.161.047.06-.173.165.148.257-.32-.063.178.238-.071.019.147.45-.117-.01-.23.213.161.837-.194-.287.216.53.137-.298.112-.082-.208-.675.255-.134.341.186.252.569-.443.205.134.038-.15.875-.02.14-.038-.25-.364-.489-.035-.383-.443.093-.386-.202-.06.317-.306-.309.02v-.17l-.29-.134.495.139.361-.115.022-.369-.47-.197-.72.077-1.276.552.585-.317.068-.246.995-.238.452-.375 2.02.558.514-.416.561.03.473-.26-.131-.212.191.038-.262-.131.238.049-.104-.145.177-.23-.153-.265-.309.128.137-.24-.268-.21-.902.316.84-.325-.378.016.73-.128-.227-.134.096-.074-.31-.014.03-.164-.133.069.098-.12-.281.194.207-.17-.17-.01.094-.1-.312.11.224-.36-.131.087.063-.123-.295-.154.158-.095-.191-.052.131.005-.142-.136.164.008-.202-.167.21.126.159-.21-.244-.269.192-.024-.153-.197.1-.101-.267.035.292-.189-.3.017.265-.142-.011-.186-.232-.047.205-.035-.175-.482.12-.082-.088-.093-.287.244.058.208h-.2l.06.136-.232.047-.08.265.017-.303-.49.287.039-.293-.287.213.246-.333-.454-.162.161-.093.014.143.186-.21-.123-.045.156-.29-.244-.133.29.093.252-.44-.15.087-.293-.304.126-.2-.162-.04-.065-.523-.268.09-.44-.47-.241.063-.069.378-.358.246.162.046-.16.377-.674.446.17.46-.329.784-.547.367-.675.03.046.298-.355.954-.282.131-.107.296.014-.285-.254.18-.18-.18.128-.186-.082-.795.634-.968-.599-.419-.415-1.638-.495-.128.219-.115.366-.643-.145-.164-.15.137.128-.347.572-.509.678-.251.024-.132.495-.002.017-.167.128.145.252-.05.033-.322-.17-.027.118-.055-.175-.268.134-.088.161.651.358-.188.274.213.533-.249-.293-.71.175.092.115.506.511-.167v-.232l.304.437.055-.424.188.115-.106.274.691-.238.107-.5.265.038-.035-.159.205-.063-.153-.282.15-.002-.336-.304-.285.487-.12-.085-.612.438-.22-.011.559-.722-.014-.216-.509.284.301-.517.164.066-.197-.312.274-.134.07.096.414-.845-.681.175.035.112-.39.227.103.43-.123-.072-.265.153.191-.008-.128.18-.435-.032-.339.314-.008-.224.4-.21-.206.013.159-.07-.022-.157-.186-.112-.137.216.104.082-.186.129.11-.323-.208.096-.34-.364.113-.279-.14-.18.257-.353-.497-.118.043.173.334.09-.544-.038-.21.29-.143.087.008-.126-.23.24.217-.36.142.008.18-.44-.276-.134-.12-.43.175-.106.17.115.166-.238-.093-.249.293-.752-.29-.205.421-.164-.451.038.596-.495-.21.132-.422-.282.468.011-.43-.273-.04-.126.232-.09-.222-.118-.29.148.955-1.067.528-.877.18-.15.112.032.099-.197.227-.087-.104-.093.153.043.17-.084-.13-.14.124-.18-.192-.03.15-.02.03-.183-.335-.24.202-.233-.142-.082-.588.254-.263.041-.26.225-.224.019-.164.147.14-.158-.189.057.284-.309.285-.068zm-4.736.954l.159-.093.016-.144-.13.147-.13.137zm2.62-.883l-.37.183.01.069.24-.082zm15.271.082l-.068.192.224-.014-.191.112.629-.167zm-17.527.041l-.016.145zm18.717.137l.123.005zm-16.65.005l-.12.06-.014.105.137-.072zm-2.143.009l-.107.123v.002l.01.022zm-.096.147l.027.055.129-.118zm18.02-.04l-.307.155.003.101.156.003-.115.055.539.1v-.231zm-12.365.254l.032.046zm12.107.084l-.205.044-.07.205.625-.003-.038-.136zm.476.09l-.137.003.118.145.131-.068-.112-.077zm3.84.197l-.083.058v.003zm.193.099l.148.118zm-22.676.142l-.123.074zm22.668.178l.066.07h.003zm.033.33l.082.113.186.008-.101-.096zm3.013.113l.123.074.003-.003zm.167.076l.025.085zm-4.741.058l.44.284.123.287.653.476.244-.05.251.2.09-.1-.054.114.2.156.046-.191.172.196.014-.246-.24-.008.032-.106-.106.076.032-.112-.205.005.082-.054v-.003l-.273-.03.044-.077-.498-.23-.678-.582zm-21.205.07l-.195.138.011.054h-.134l.08.164.12-.073-.107.114.164-.04.175-.181-.128.005.14-.082-.269.096.227-.178zm.155.151l-.079.077zm.085.052l-.172.044.052.11zm18.988.028l.287.098v-.003zm-19.524.052l.025.049zm19.74.095l.07.126.198-.01v-.004zm.32.153l-.036.126.17-.038zm-.208.074l-.069.145.003.003zm-.315.03l.11.077zm.536.022l.15.069zm.006.208l.128.033v-.003zm-19.433.003l.054.06.145.003zm24.573.057l-.188.148.207.046.102-.126zm-5.42.044l.397.27-.188-.254zm.537.057l-.03.069zm3.396.055l-.027.159.07.166.126-.016.099.142.024-.123.422.32.185-.008-.057-.18.394.035v-.003l-.05-.396-.54.15-.337-.055zm-3.785.022l.02.213zm.022.886l.028.115zm-12.16.038l.17.099-.145.139.522-.003-.237.148.55-.044.016-.14-.118-.139zm-.833.036l-.285.175-.924.04.008.118-.402.331.263.194.254-.06h.003l.919.202.27-.344-.17-.09.225-.301zm18.823.145l-.2.068.203.183.18-.035v-.003zm-16.723.095l-.167.088zm-1.368.033l.093.096.21-.041zm1.507.02v.002l.23.205.082-.148zm10.686.046l-.27.032.043.143-.194-.074.221.145-.355.01.164.09-.082.094.23.05.098-.176.082.167.287-.134zm-10.864.008l-.2.071.025.183.282-.04zm11.457.041l-.032.12.002-.003zm-12.086.05l.093.037zm-.48.002l.057.159-.233-.143.129.159-.304-.137-.063.222.29.038-.202.09.227.192-.419-.167-.049.232.473.162.137.23.402-.146.04-.136-.21.076.006-.12.446-.306h-.282l-.35.303-.088-.194.353-.478-.145-.036-.019.12zm2.07.112l-.236.142.046.115-.268.036.14.07-.025.35.342-.311zm1.629.09l.104.099-.15.038.213.085-.32.04.385.113-.407-.074-.006.161.509.028-.325-.003-.134.06.287.014.082.063-.184.035.178.044.522-.123-.32.12.165.082-.627-.06-.087.345.022-.345-.15-.126-.244.517-.11-.049.247.128-.205-.008-.028.131-.076-.237-.194-.028-.277.159h.22l-.077.11.243-.116-.402.331.397-.057-.452.147-.087-.371-.131.292-.473.017.019.117.156-.106-.099.183.118-.088-.039.14.118-.09-.016.194.218-.072.011.143.107-.129-.027.183.106-.17-.085.323.364.025.205-.17-.281-.246.16-.177.157.279.26-.203.196.104-.01-.131.196.035-.079-.133.191.057-.202-.33.345.18-.189-.244.43.118.024-.164.172.147.175-.1-.112-.102.167.077.044-.15.049.103.607-.254-.462-.011.344-.071-.134-.131.214.109.314-.068.153-.113-.057-.21-.35-.022.208-.063-.525-.295h-.006l-.413-.003-.117.252-.09-.28-.19.028.004.17-.085-.186zm-.192.009l-.333.06-.038.153-.214-.088-.046.2-.047-.15-.112.068.074.142-.254.09.273.249-.333-.126-.022.252-.123-.044-.05.129.153.153.148-.162-.106.195.377-.22-.099.132.424-.063.074-.145-.148-.049.323-.265-.17.063zm-.823.019l-.15.142zm-1.375.188l-.246.23.123-.085zm10.147.009l.512.281-.476-.136.183.175-.23-.003-.04-.15-.047.24.692.257-.126-.303.17.1-.044-.13.172.027-.074.314.164.077.101-.238-.024.208.17-.028-.17.112.322.055.274.011-.67-.604-.017-.224-.55-.033.083.095zm-13.188.024l-.38.074-.005.161-.15.003.19.306-.366-.248-.175.153.205.399-.051.342-.427-.585-.268.232-.052.432-.232.17.382.42.52.07-.156.322.331.333.175-.202-.254.022.235-.205.005.145.271.005-.074.126.222-.156.09-.582.757-.544.126-.252-.145-.104-.7.427.517-.534-.05-.073-.199.216.02-.123-.157.035-.054-.101.257-.016.049-.211-.276-.08.388-.158zm14.099.039l-.02.123.167.016zm.221.016l-.038.156.303.164.009-.148.18.08-.11-.178zm-5.386.044l-.05.303-.279-.21-.12.125.304.093.016.14-.37-.178.2.224-.166-.019-.003.197-.397-.336.009.36-.208-.177-.126.131.068-.281-.382.046.095.304-.1-.236-.157-.008-.15.293-.085-.112-.068.18.005-.161-.432.202-.033.118.28.043-.41.331-.288-.06-.585.175.167.397.347.054-.077.137-.298-.112.244.161-.525-.167.26.274-.247.038.039.167.188.148.006-.156.14.15.305-.074.247.162.339.79-.222.161.194-.044-.115.53.14.283-.213-.02.134.06-.145.178-.129.085.284.161.162-.39-.03.287.257.024-.246.112.273.008-.224.115.183-.038-.137.068.205.072-.172-.025.172.339-.36-.249-.299.006.32.328.372.046-.243.364.216.035-.098.123-.115-.125.024.295-.284-.104-.265.12.525-.019-.153.129.188.15-.55-.202.22.142-.211-.066-.156.238.457-.17-.145.066.396.025-.74.11.456.098-.5.014.295.194-.276.052.207.09.34-.167.112.074-.725.287.364.033-.337.106.112.197.31-.17.15.088-.487.11.131.016-.104.235.225-.063-.227.118-.011.24.35-.22-.033-.236.224.448-.254-.161.137.101-.372.085.369.066-.347.002.147.071-.17.104.239.036-.19.085.244.057-.221-.005.235.084-.11.206.178-.118-.191.254.23.134-.129.137.221-.03-.18.112.175-.071-.107.131.14.044-.172.033.248.027-.213.05.287.06.033.256.64-.147-.282.208.227-.115-.172.205.208-.088-.014.184.161-.148-.164.279.2-.192-.08.266.165-.17.246.15-.268-.248.347.016-.161-.137.216-.112-.233-.04.252.027-.15-.123.216-.074-.167-.055.213-.046-.159-.036.195-.11-.206-.256.203.07-.235-.183.33-.027-.07-.208.185.096-.14-.2.184.085-.107-.093.203-.044-.175-.136.23.087-.017-.205-.221-.071.279-.041-.173-.38.203.074.062-.276.378-.028.055-.38.153.047-.129.213.134.055-.022-.167.063.112.293-.137-.077-.15.235.046.25-.656.215-.137-.148-.317.222.244.295-.058-.008-.14.129.088.525-.284.571-.777-.585-.038-.312.265-.227-.04.32-.214-.467.07.155-.338.21.068.187-.183-.522-.046.164-.096-.197-.107.675.194.331.353.088-.21.07.175.148-.058-.221-.202.024-.21-.125.037.063-.139-.178.088.054-.148-.393-.153-.099.156.006-.129-.164.03.254-.085-.142-.12-.178.153-.159-.117.326-.153-.397.035.192-.076-.172-.093.224.082.156-.145-.21-.164.234.144.011-.125.3.03-.273.024.304.137.246-.158-.046-.165-.233-.04.055.18-.156-.156-.036-.24.391.079.044-.123-.303-.006-.011-.178h-.252l.238-.057-.3-.096.431.09-.073-.248-.348-.03.216-.137-.251.035-.18-.177.483-.162-.11-.2-.325-.013.17-.126-.227-.07-.06.16-.058-.188.06-.812-.196.15-.077-.131.293-.246-.427.085.449-.255-.06-.35-.304.014-.016.213-.222-.014-.128.46-.082-.613-.268.317.054-.243-.577.131.085-.153.495-.052.192-.221-.345.005-.003-.156-.642.238.112-.18.476-.118zm-2.645 7.112l-.24-.036.085.104-.15.085zm-13.177-7.11l-.385.247.17-.072-.12.195.223-.247-.123.192.115-.03zm15.655.063l.098.093zm-5.518.006l.044.115.002-.003zm.659.022l-.32.221.038.145.003.003.284-.071zm4.804.04l.071.077h.006zm-15.553.083l-.626.328.161.035.334-.177zm9.47.033l-.138.123.137-.12zm-9.924.024l-.153.063zm.088.017l-.364.232-.27.183zm15.509.024l-.003.003.159.235.01-.178zm-5.95.08v.002l.18.041zm5.542.008l.093.145h.006zm-5.594.027l.055.068zm.344.025l-.224.23-.202-.096.23.221-.225.003-.114.153.005.003.159.142.21-.052.473-.435-.164.041-.068-.161-.214.238zm10.695.022l.183.082v.002l.208.028zm-9.85.04l.112.208.096-.109zm-1.435.014l-.17.11.003.002zm-9.565.093l-.41.214.281-.107zm10.705.03l-.224.298.221.115-.478.465-.003.003.008.295.274-.024-.093.202.435.238.133-.118.03.255.394-.009-.065-.104.227-.109-.085-.232-.624-.143-.073-.24-.115.07.14-.246-.178-.022.177-.01-.03-.15.18.158-.095-.205.118-.03-.301-.082.208-.162zm-10.683.011l-.254.173.005.09.2-.074zm8.61.096l-.136.02-.101.289.002.003.307-.104zm2.691.063l-.082.161.164-.082-.003-.003zm-11.588.038l-.328.194v.088l-.143.013-.139.22-.134.147.246-.12.05-.167.04.093zm.022.099l-.074.098zm.016.103l-.134.137zm-.066.003l-.153.134zm10.738.014l-.098.071.003.003zm.684.033l-.148.104.003.005zm-.837.074l-.42.03.111.32zm-11.069.019l-.158.095-.074.099zm9.836.003l-.159.155-.046-.125.01.232-.212.085-.02-.263-.21.069-.315.692.123.073.195-.142-.102.077.145.074h.003l.462-.26-.054-.238.437-.088zm-9.579.147l-.166.036-.022.082.106-.038-.16.062.043.069zm-.194.041l-.109.082zm-.497.03l-.473.348-.4.533.304-.367h.003l.09.02.06-.167.394-.082-.252-.028.189-.04zm.45.052l-.122.058zm26.103.022l-.106.038zm-15.788.107l-.804.631.334-.013.054-.173.192.186.642-.23zm15.684.188l-.027.211zm-26.127.017l-.098.003zm13.875.01l.106.064zm5.775.113l.024.104zm-20.079.014l-.02.095.023-.095zm26.75.046l-.084.047zm-26.786.063l-.117.107-.18.202zm9.065.05l-.068.103zm-1.332.166l.036.08zm3.921.008l-.51.041-.747.506.248.326.255.13.123-.327.24-.266.528-.254zm14.963.126l-.055.12zm-26.868.03l-.257.159.063.01-.17.16zm20.448.003l.207.273zm-20.653.066l-.145.144zm12.089.054l.021.208-.191-.137.074.21-.137-.177-.145.427-.033-.17-.177.025.043.251-.281.23.068-.115-.563-.325-.14.265.014.17.282.021-.115.23.481.375-.022-.263.085.386.03-.222.32.318.041-.247.189-.082-.107.465.164-.049-.131.123.153.057-.033.216-.32.14.276-.05.052.293.132-.019-.12.681-.277.145.14.115-.164-.096-.391.129-.017.377-.478-.096-.21-.232-.42.374.643.326.112-.23.036.334.145-.126-.085.402.222.224-.222-.008.02.175.932.949-.246-1.023.18.265.041-.194.402.717.145-.558.057.306.123-.342-.153-.213.156-.017-.046-.226-.178.065.019-.216-.08.14.091-.454-.23.043.12-.29.222.102-.014-.317.216.09.036.26.156-.093-.17.172.378-.096-.348.208.222.5.202-.473.104.208.052-.273.17.12-.126-.2.262.077-.074-.167.184.022-.071-.208-.208.14.038-.142-.216.019.232-.197-.213.156.123-.132-.27.036.19-.074-.133-.09.15.057-.01-.235-.162.036.159-.12-.192.136v-.191l-.123.15.11-.183-.134.09.087-.153-.117.06.04-.186-.16-.024.245-.006-.377-.314.265.106.014-.177-.175.024.21-.049-.123-.112.342.21-.022-.153-.44-.194.5.088.05-.11-.063-.191-.46.183.353-.167-.276-.01.413-.1-.115-.174-.26.074.22-.134-.469.254.19-.189-.154.003.37-.178-.406.063.378-.18-.096-.235-.35.164.238-.27-.37.147.198-.162-.096-.054.263-.08-.348-.054.348-.167-.227-.246-.22.06.102.21-.208-.155-.003.257-.021-.416-.345.15.366-.265.173-.44zm-2.666.044l-.517.197.06.402.317.005zm-.635.005l-.101.118.104-.118zm3.897.082l-.17.315.011.148.44.153.044-.34zm-12.712.003l-.093.09zm27.176.047l-.114.005.155.24zm-17.732.106l-.041.112zm11.6.082l-.009.2.172-.058zm5.996.035l.06.173zm-27.347.025l-.09.022zm27.593.085l.019.175-.167-.112.192.273zm-.224.084l.049.19.11-.028zm-6.246.003l.104.112zm-21.626.041l-.134.172.074.09-.205.025.024.17-.426.629.126.112-.222.093-.04.487.675-1.018zm28.115.186l-.011.145zm-6.475.038l-.093.104.268-.027zm-10.153.082l.071.115zm16.557.017l.022.117zm-28.402.257l-.096.131zm21.662.17l-.137.128.418-.027zm.366.12l-.21.087.347.017zm-.068.095l-.208.036.131.145.331.082zm-9.404.017l.074.112.15-.05zm11.988.022l-.074.194h.003zm-13.254.01l-.134.094v.002l-.06.123zm-11.274.085l-.084.186zm14.268 0l-.142.044zm14.736.066l.04.104h.004zm-16.065.022l-.197.035.197-.032zm4.07.022l-.135.07zm-4.212.087l-.262.071v.003zm-13.056.25l-.044.1zm17.464.152l.033.104zm-.112.014l-.085.076zm4.678.08l-.279.325.405-.145zm10.88.062l.022.172.003.003zm-19.944.008l-.345.38.296.082.218-.237.003-.003zm-2.116.143l-.714.64-.334.09.285.109-.123.287.719-.194-.08.26.19.238h.002l.257-.052-.033-.22-.227-.046.208-.21-.131-.629-.153.063zm.251.024l-.063.189v.003l.115.098zm2.092.074l.156.197.003-.123-.003-.003zm3.825.057l-.074.277.258.052-.129.128.366-.082-.16-.325zm15.441.123l.216.099zm1.056.05l-.137.035-.03.093.148.011zm-15.9.052l.002.175h.003zm16.075.035l-.194.222.238.166h.002zm-1.444.036v.003l.107.035zm-2.598.01l-.063.11h.003zm.066.039l-.066.145zm-12.387.41l-.175.027zm-.038.284l.15.009zm-2.11.006l-.105.071zm18.15.076l.014.28.216.185zm-8.515.12l-.123.148-.227-.125.014.224-.35.046.136.227-.243-.208-.04.247-.266-.12.01.453-.18-.377-.426-.118.227.246-.263-.126.115.23-.191-.027.104.115-.156.043.601-.095-.153.164.191.038-.456.159.648.117-.208.334.342-.142.596.136.303-.284.345-.325.12-.383-.136-.02.139-.062-.544-.356zm-14.555.066l-.29.055-.066.159.577-.12-.218-.094zm.976.208l.008.183.156-.095zm.293.006l-.011.145zm21.732.098l.085.183v.003l.233.364zm-22.52.216l-.279.246v.003l.219-.055zm19.376.222l.082.095zm-18.334.123l.115.07zm8.441.112l-.156.054v.003zm-7.68.14l.109.177zm14.694.048l.134.096zm-.039.033l.17.096zm-13.122.03l.033.178zm14.818.077l.035.106-.033-.106zm-.044.057l.178.28zm-9.417.017l.15.232zm20.185.016l-.066.08.069-.08zm-5.994.055l.145.082zm-6.21.027l.129.074zm5.486.025l.125.224-.166-.085-.09.23.606.312-.158-.17v-.003l-.063-.35zm-19.141.216l.14.03zm18.87.098l.085.082zm1.055.093l-.01.161.122-.049zm-.355.008l-.044.104zm-.566.039l-.09.123v.003l.13.166.17-.087zm-19.283.104l.055.144.117-.098zm5.701.013l.18.126zm13.842.093l.054.145zm-4.077.088l.098.104zm3.954.027l.106.003zm-.137.041l.134.038zm-20.13.02l-.012.15zm16.414.065l-.432.21.191.37-.18.06.287.292-.107.263.296-.123.155.727-.016-.303.046-.222.156.101-.12.033.205.525.129.071-.06-.11.412-.256-.022.281.236.148.038-.123.101.353.156.033-.347.248-.044.26.15-.142.123.156-.197.487.624-.011.172-.326-.03.375-.314.145-.143.708.534-.331-.069-.24.88-.506.255-.359-.057-.112-.312.129.137-.15-.041-.512-.238-.14-.296.186-.005.011-.178-.298-.082-.019-.145.052.17-.131-.118-.148-.394-.065-.574-.487-.454.104.255-.208-.21.038.144-.177-.12-.545-.558.342zm-.687.385l-.035.326h-.003l.066.101.065-.145zm-19.211.247l-.372.232.216.022-.066.087.227-.2-.153.124zm-.09.008l-.203.095zm.144.191l-.128.071.128-.068zm19.291.003l.293.205-.06-.118zm-10.445.003l-.137.065zm10.336.024l-.107.066zm4.044.329l-.07.095.002.003zm-3.533.046v.178l.129-.126zm-10.346.014l.15.087v-.003zm-9.997.126l.186.035zm20.521.027l-.033.104zm-34.005.134l.006.117zm33.953.005l-.04.153.002.003zm.255.066l.002.005.118.039zm-.085.262l-.244.227.044-.147-.15-.02.035.22-.15-.085-.093.33.191-.049-.005.246-.43.148.247.153-.088.249.394-.038-.15.418.32-.175-.372.372.186-.025-.115.216.23-.106-.115.194.175-.132-.03.17.404-.388h.003l.37-.372-.436-.815.134-.325zm-21.698.011l.233.32.038-.284zm22.338.164l-.022.214zm-34.82.071l-.022.145zm18.484.233l.129.06zm29.698.019l-.112.837.246.019.025-.44-.112-.066zm-13.007.148l-.134.076v.003zm10.456.279l-.043.09.046-.09zm-.046.191l-.017.159.02-.156zm.344.027l-.046.173.148-.003h.002l.047-.085zm-4.008.293l.14.15zm-5.324.038l-.129.08zm5.485.025l.227.074-.115-.052zm4.022.04l.132.184zm-.784.004l-.093.054zm-3.323.035v.003l.11.052zm.963.069l-.104.1zm3.574.01l-.077.096.08-.096zm.56.192l.003.257.082.005zm-1.323.115l-.265.04-.039.181.536-.01.003-.004zm.295.15l.112.006v-.003zm.544.12l-.016.102zm.506.118l.036.137h.002zm-2.053.33l.046.162zm2.045.11l-.033.21-.547.34.107.164.279-.192h.003l.248-.35zm-1.969.085l.036.167v.005l.12-.076zm.304.224l-.123.02zm-46.438.058l-.082.068zm.476.022l-.063.325zm46.714.002l.076.088zm-4.862.063l-.052.457.355.314-.03-.393zm-21.84.003l-.585.377-.246.61-.18-.003.06.244-.148-.123-.366.273.333.05-.456.229.04.186.312-.052.463.235.41-.156-.17.233.509-.02-.517.29.279.028.47-.389.058.244-.197.292.26-.166-.077.292.161.033.266-.435-.036-.156-.191.11.18-.304-.279.304-.098-.194.131-.082-.104-.113.356-.109-.422.02.32-.425-.333-.038.038-.158-.358.216.131-.241h-.336l.276-.235-.243-.022.04-.112-.3.265.544-.716-.082-.156.189.03zm-2.93.24l.664.619.087-.107-.219-.243zm-16.979.176l-.079.022-.022.164zm38.08.03l.09.068zm13.439.128l-.06.036zm-6.978.244l-.7.793.158.164.801-.129zm-2.374.002l-.191.348.56.823.244-.367-.266-.593zm-22.028.255l-.131.022v.002zm-2.51.56l-.252.129v.003zm-.94.058l-.198.183.402.448v.003l.378-.148-.66-.188zm1.186.32l-.522.41.022.27.555-.106-.107-.21-.251.27-.132-.025.334-.232zm26.945.106l.098.014zm-24.76.039l-.085.084zm21.112.21l-.107.036zm-42.186.027l-.005.18zm41.841.131l-.172.325.257.017v-.003l.052-.27zm-41.551.533l-.028.137h.003zm41.28.208l-.081.12zm-28.29.388l.477.143.2-.123zm.6.082l.186.033zm-.479.033v.003l.12.014zm32.072.03l-.044.112zm-33.007.848l-.126.128zm-7.85.325l-.104.009zm-.63.009l-.183.035zm-.281.082l-.21.194zm1.717.429l.074.087zm.126.273l.041.104zm25.624 1.056l.003.008h.136zm-.378.049l.137.033-.003-.003zm-.073.148l.213.013zm1.424.17l-.295.002zm3.782 1.81l.142.008zm-26.81.606l.07.126zm.464.113l.101.073zm-.407.013l.317.047zm.497.028l.118.268-.18.207v.003l.065.11.156-.31zm-4.243.505l.11.02zm32.347.107l-.123.243.148-.12zm-31.03.088l-.185.276-.252-.088.323.183.56-.095.318.2.052.133-.197-.063.098.178 1.066.87.132.533.339.219.014.17-.299.12 1.097.48.383-.002-.59-.49.054-.205-.451-.306-.908-1.323-.457-.413zm2.448.005l-.175.243.137.22.142-.13zm.607.104l.15.377-.049.189.08-.246zm27.86.098l-.183.427.194-.137zm-32.134.164l-.112.009zm3.754.17l-.117.03.057.21.074-.07-.107-.06zm27.459.036l-.309.202.129.156zm-29.736.005l-.066.219h.003l.183.052-.019-.18zm28.924.112l.101.145zm-25.87.016l.115.342zm26.914.02l-.035.147.183-.1zm-28.311.448l.15.137zm1.17 0l.115.142zm-4.993.025l-.08.098zm3.943.115l.088.106zm.112.1l.022.184.003-.003zm-4.11.1l-.087.087zm5.606.327l.126.115zm.183.134l-.232.194.15-.079zm-3.314.129l-.003.003.12.09zm3.631.17l.101.084zm-5.86.079l.099.005zm5.737.434l-.314.036.227.104zm-2.447.419l.189.355.292.148.334.123-.238-.37zm2.338.197l.137.093v-.003zm.05.079l-.288.014.293.243-.09.178.15.317-.763-.394-.134.071.21.298.785.219.213.405.15-.142h.004l.24-.126.859.426.172-.14-.528-.428.225-.03-.257-.085-.058-.225zm-.299.402l.183.194-.057-.123-.003-.003zm2.546 1.241v.216l.538.15.203-.144zm.738.364v.003l.142.024zm.276.295l.159.008zm.91.413l.105.099zm.61.577l-.169.055.074.175h.003l.216-.066zm18.983.336l.062.096zm-.966.03l-.167.085zm15.182.107l-.165.287.093-.003zm-14.698.074l-.205.005v.003zm-27.803.027l.038.129zm28.449.022l-.093.12zm-19.116.216l.082.172h.002zm-3.796.033l.058.104.11.123zm.323.178l.071.134zm22.121.084l.025.16.14-.026zm-31.634.2l-.077.008.173.38h-.142l.147.159.09-.025zm13.666.402l.082.126h.003zm-13.398.129l.128.079zm.314.352l.132.02zm10.716.011l.301.074-.12-.036-.003.003zm34.142.227l-.11.096.022.074zm-32.85.246l.087.214-.238.054.45.074.056-.312zm-8.494 2.475l.044.128h.003v-.002l.082-.055zm.088.227l-.077.01zm13.997 2.723l-.044.096.047-.096zm-.123.041l.008.118zm.407.085l-.385.008.205.137zm-.67.063v.003l.118.005zm-.027.04l.202.028zm-.06.012l-.153.096v.005zm.905.044l-.24.013zm-.763.06l-.082.074zm2.712.55l-.04.092zm.837.59l-.186.014zm-.246.074l-.022.104h.003z" opacity=".2"/>
    <path d="M32.266 4.049l-.354.025.299.02-.182-.004-.064.012.525.029.332.004.028-.012.4-.006-.145.026.303-.012-.035.033.334.012.145.021-.928.043-1.176.203-.855.06-.11-.019-.107.036-.656.039-.096.056-.801.05.313-.052-.088-.011-.979.177.092.014.215-.04.021.038-.408.25-.812.23.033-.097-.051-.026-.14.047-.016-.049-.334.215-.217.059.174.07-.27.098-.193.027.219-.092-.192-.14.367-.147.536-.377.367-.091.095-.104-.058-.088-.84-.01-.4.12h.13l-.472.109.172.014-.526.168.235.033-.328.095.38-.003-.101.062.414-.084-.086.238-.184.063-.144.006-.205.146-.133-.04-.05.093-.468.19-.394.048.064.047-.32.332-.504.37-.465.183.041.068.758-.035-.082-.016.3-.027.177-.146.05.025.196-.082-.762.389.025.156.266.045-.137.086-.285-.059-.289.19-.424.062-.431.168.045.045-.153.006-.084.103.27-.091-.063.125.15.02.214-.085-.37.193.19-.027-.205.082.068.111.567-.167.335-.182.118-.098-.412.014.71-.031 1.118-.29h.004l.837-.19.393-.204.502-.117-.07-.092-.305-.012.047-.076.465-.072.209.047.084-.092.798-.191.118-.133.662.191.52-.062.529-.143.695.088-.18.068.301.05.195-.022.246-.166.01.136-.1-.072-.128.102.427-.041-.41.049.951.06-.066-.057.346-.068-.172.006.144-.066-.134-.098.334.027.052-.088.291.112.375-.022.141.117.377-.207.328.309h-.21l.144.082-.166.006.043.119.369.066.197.153.363-.14.422.112.158.102-.123.039.403.15h.402l-.088.166.137-.027.008.096.207.06.127-.039-.176-.062.73.156.233-.022-.44.055-1.199-.02-.002.167-.07-.106-.11.047.096.287.543.133-.219.033.282.176-.29-.041.102.154.451.014.221-.09.205.117.055-.119.025.088.44.11-.143.015.258.164.123-.002-.125-.072.91.369.213-.049-.014.098.303-.182.668.51.463-.082.086-.287.799-.076-.069.13-.369-.01.246.063-.603-.066.16.162-.045.295.152.086.131-.059.123.192.238-.262.075.234-.662.149.279-.028.494.188.277-.131.686.074L42 9.586l.014-.184.232-.056.28.08-.005-.147.034.19-.48.049.245.212.461.006.883.373.037.358-.324-.342-.822-.271-.159.109-.892-.059-.207.096-.635-.105-.023.119.1.205.697.127.31.183.733.059-.061-.147.205-.105.438.156-.323.264-.004-.072-.146.562.17.102.328-.055.086.156.19.057-.294.03.272.255.035.234.205.112v.2l-.303-.128-.101-.137.02.084.335.278-.13-.024.328.55.152-.01.006.163.328.15.02.217-.313.034-.158-.293-.157-.035-.322.304.215-.04 1.107.448-.314.145.21.309.206.257.477.104-.223.223.088.113-.106-.113-.216.138.185.15.273-.11.204.212-.479.194-.43-.145-.189-.203-.287.154-.031-.137-.45.051.862-.693-.403-.514-.547-.01-.71.301-.11.19.168.158-.219-.174-.078.15-.158-.074.068-.107-.16.062.131.184-.209.027.053.145-.299-.03.15-.148-.103-.172-.348.1.14.232-.204-.21-.131.05.268.229.005.09-.265-.176.3.394-.308-.295-.147.098.36.394-.307.098.303.111-.195.012.199.354-.268-.25.182.232-.164-.125.01.137.228.06-.238.065.285.295-.062.181.19-.123-.155.184.252.154-.239-.092.002.143.13-.012-.104.117.238-.01-.059.274.203-.072-.177.263h.12l.118.319.09-.178-.094.252.162.027-.103.026.185.32.084-.137-.064.342.092-.129-.008.188.156.031-.039.123-.147-.076.137.52.164-.079-.058-.31.183.295-.119.18-.129-.09-.1.216.23.194-.192.027.215.049-.35.066.28-.033-.272.258.32.084-.166-.035.057.107-.145.024.12.021-.255.086.114.11.295-.182-.287.183.062.145.191-.049-.142.115.14-.06.008.158.198-.188-.034-.115.186.035-.068-.164.109.088.025.217-.19-.066-.24.246h.157l-.096.097.145.073.033-.141.002.219.129.066-.026-.142.123.23.088-.438-.029.624.164.056.078-.236.026.281.15-.086.002.135-.197.012.173.185.448.055.176-.205-.114-.582.184-.094-.24-.371.623.543.054-.102.157.217-.088-.207.19.275.607.26.007.184.385.31.246-.214-.193-.381.226-.143-.357-.652-.434-.336.08-.08-.177.052.144-.246-.13-.168.183.1-.068-.287-.145.037.014-.262-.485-.142-.142.084-.836-.88.146.022-.105-.675-.164-.33-.414-.237.113-.02-.236-.173.158-.012-.133-.144.213-.221.44.125.482 1.277.611.338.315.354.29-.03.007-.136.205.214.226-1.177.16.125.332-.15-.142.404.144.15-.347.264-.069.486.383.26.113-.125.413.396.013.219-.445-.11-.043.215.305.485.634.525-.109.123-.207-.377.17.319-.033.168.095.11.065-.103.01.348-.078-.244-.06.295-.312-.043-.26.836.124.191-.575-.082-.244.526-.095-.213-.166.18-.309-.1-.264-.381.018-.5-.244.01-.254-.483-.17.533.709 1.02.027-.104.207.104-.029.143.5.13-.35.024.131.246-.224-.064-.139.183.184.104-.387.152-.024.219.26.136-.05.206-.311-.211.125.544.223.016-.237.258.246-.041-.511.6.209.296-.206.63-.613.081.428.428-.332.248-.201-.129-.389.4.234.042-.142.045.183.197.633-.133.4.396.245-.023.11.313.07.04.341 1.083-1.697.755-.266-.068-.384.568.363.26.334 1.121-.018.754.16-.18v.329l.21-.08-.073.044.174.694.711-.438.664.444.287-.535.77-.377.074-.479.215-.178-.082-.382.148-.32-.232-.104-.11-.301.065-.807.451-.777-.3-.395-.003-.275.139-.252.695-.12.29-1.09.482-.058.656.514 1.736.096.451.39.09.49.125-.054-.119-.504.076-.224-.363-.157-.102-.373.252-.148.243.101-.063-.183-.932-.012-.087-.232-.342.224-.697-.412-.471-.045-.404-.459.189-.44.387.37-.016-.354.84.483.226-.149.35.06-.205.083.514-.154.373.101.351.647.721.289.05-.125-.013.181.211.116.463-.424.002.168-.377.242.05.213.41.293.026-.188.246.18-.084-.21.21.017-.407-.352.186-.137-.225-.058.049-.192.209.037-.14-.22-.49.082.052-.19-.125-.111.129-.025-.526-.348.012-.145.396.047-.164-.117.178-.076-.3-.086.16-.426.386-.246.086.389-.084-.684.207-.355-.638-.246-.053.105-.18-.713-.465-.613.112.072.021-.2-.338-.36.092.056-.057-.197.063.209-.078-.346-.004-.002-.133-.232.016-.389.197.04-.137.173.11-.062.035.111.234-.363.127.093.033.43.057-.183.326.261.13-.068-.1-.959-.08.297-.37-.14.375.146-.074.086-.248-.075-.156-.373.148.198-.129-.405.03-.95.181.343-.082.19.314.015h-.107l.268.459-.01.28 1.226-.33.334.21.141.248.076.465-.129.453-.285.37-.424.038-.152.43.053.855-.315.444.15.139.12-.131-.11.26.094.107-.353.514.054.334.123.195.116-.248.24.418.135-.03-.04.174-.152-.082.092.211.256-.137.05.19.227.006.02.207.144-.303-.031.387.104-.35.402-.013.084-.213-.162-.315.074-.135.457-.1.084-.38-.096-.395.16-.09-.011-.322.33.582.338.323.685 1.712-.203.706-.15-.143-.145.213-.103.848-.506.306-.344.436-.154-.13-.365.35-.165-.15-.365.225-.158.724.307.586-.112.516-.42-.002-.625.303-.36-.309-.589.19-.275.273-.79.023-.144-.132.076-.715-.404-.266-.078-.549-.072.295-.338-.144-.389.603-.478.182-.213.416-.498.14-.78.717-.218.504-.287.219-.217.488-.303.133-.113-.137-.55.39-.398-.224-.142.135-.02 1-.697 1.102-.053.648.25.63-.117.458-.402.69-.531.363-.166.742-.3.336-.04.806-.362.563.079-.11-.39 1.229.016.484.063-.183.393.365-.096.455.338.717-.123 1.041-.393.572.522.274.027.236.43-.193-.354.226-.18-.049.022.416.252-.09-.252.167.361-.07-.148.157.238-.02-.035.132.465-.254-.258.17h.227l-.206.21.141.112.102-.117-.026.13.172-.124.149.357.445.053-.076.154.2.018.089.336.156-.063-.205.13.41.16-.02.177.614.055 1.19.431.556-.029.58-.521.896-.518.868-.197 1.29-1.313.936-.76-.148.194.388-.219.258.1.104-.159-.096.174.172-.068-.13.11.073.03.112-.14-.104.236.254.207.26-.185-.002-.121.058.072-.04-.108.091.069.014-.172.103.06.325-.273-.028-.156.127.11.088-.182.154.238.17-.197.045.093-.1.075.165.19-.186.944.121-.049-.006.262-.123.067.233-.04-.164.176-.053-.086-.076.487-.15.091.261.4a27.922 27.922 0 0 0 4.649-17.435l-.168-.324.05-.002-.234-.273-.314.015-.223-.338.04-.085-.2-.045-.944-.887-.4-.18-.256-.346.444.342.328.045-.346-.93.3.688.089-.168.877.537.197.27.224-.078.344.337.082.16a27.95 27.95 0 0 0-1.158-5.454l-.033-.03-.012.11-.037-.205-.14-.118.027-.25-.098-.144.053-.026c-3.451-9.938-12.301-17.3-23.092-18.57l-.84-.082-1.53-.068-.698-.004zm-.596.013l-.307.014.221.074.137-.007-.174-.02.31-.016.034-.03-.221-.015zm-.307.014l-.697.026h-.027l-.389.023 1.113-.049zm1.655.086l.103.018.129-.016-.232-.002zm.3.01l-.066.008.066-.008zm-5.851.285l-.076.014.076-.014zm-.131.027l-.215.041.027.002.188-.043zm-.236.05l-.079.019.079-.02zm-.963.677l-.205.123.244-.076-.04-.047zm-1.164.055l-.37.072.135-.02.235-.052zm-.522.134l-.238.055.238-.055zm-1.832.536l-.228.082.228-.082zm-.305.082l-.087.044.087-.044zm10.43.13l.164.006-.164-.006zm-.787.342l-.072.055.226.088.332-.11-.484-.033h-.002zm-4.64.143v.066l.232-.058-.233-.008zm4.949.013l.103.055-.103-.055zm-11.516.04l-.13.054v.002l.13-.056zm11.936.15l-.766.02.031.03-.25.114.537.137.098-.135.226.14.243-.136-.12-.168v-.002zm-1.518.037l-.227.115.623.041-.123-.123-.273-.033zm1.773.096l.004.105-.002-.105h-.002zm-12.906.133l-.101.037-.055.047.156-.084zm4.125.029l-.123.066-.01.008-.1.074.233-.148zm-4.3.049l-.102.082.101-.082zm16.318.072l-.153.03.198.056-.045-.086zm-16.524.037l.016.04-.016-.04zm6.533.14l-.326.305.397-.125-.07-.18zm-4.62.151l-.198.096.197-.096zm-2.454.117l-.236.158.236-.158zm3.547.522l-.435.222.084-.105-.323.08-.465.363.1.004-.174.043.082.123-.16.121-.035-.091-.318.113-.098-.045.16-.15-.086-.118.229-.144-.412-.194-.237.082-.092.104-.035-.041-.318.238.088-.142-.322.076-.157.26-.5.15-.09-.066-.085.244-.461.265.248.002-.254.09v.178l-.168-.059-.38.096-.052-.375-.21.057.284-.262-.144-.164.013.043-.093.074.14-.041-.181.125.129.02-.15.08-.028.191-.143.06.334.454-.027.197.19.088.163-.162.147-.028.486.375-.058.205-.073-.109-.246.205.223-.24-.045-.129-.361.016-.078.144-.19-.064.014.27.135-.03-.123.057.17-.028-.16.178.173.027.213-.16.133.104-.186.025.117.022-.132.048.035.14-.069-.042-.084.12-.019-.08.006.083-.16.055-.07.17-.233.158-.115.45-.254.247.125.08-.137.143-.092-.031.201-.1-.187.01-.715.77.059.081.336-.297-.166.198.138-.05-.314.17-.084.173.562-.272-.504.299-.097.148.142.01-.205.033-.103.204-.037-.065-.131.182.11-.184-.17.18-.07-.057-.439.582-.275.008.213.107-.154.14-.424.19.238.014.272-.1-.381.153-.041.121-.139-.078-.15.17.146-.17-.119.058-.06.215-.118-.043-.244.3.268-.028-.192.092-.015.144.015-.187-.33.437-.191-.008.101.022-.134.115.209.057-.368.033-.142.139.096.033-.157-.016.026.14-.09-.099.033.229-.092-.137-.002.3-.047-.056-.054.12.136.064-.164-.065-.074.188.13-.033-.112.046.002.11.213-.078-.254.115.1.107-.218.037-.09.196.184-.031-.17.203-.093-.041.101.12-.267.2-.075.227-.47.439-.207-.018.197-.05.16-.153-.252.053.324-.148.016-.512-.541.555.03.072-.28.146.017.162-.027-.134-1.264.921-.47.575-.358.238-.478.682-.268.5.063.18-.176.27.082-.243-.188.23-.523 1.21-.17.206.012.772-.123.593-.752 1.829-.121.978-.164.16-.018.192-.113-.342-.06.81.126.024-.076.636-.264.536.032 1.056-.08.37.15.03.11-.464-.077-.371.344-1.106.1-.861.14-.316.168-1.11.44-.84.048.774-.433 1.154-.09.717.076.2-.137.228.008.818-.18.164.104.64-.076.192.035 1.32-.1.827-.191.193.031.164-.12-.055-.028.211.162 1.315.307.595.11.551.97 1.951.7.383.688 1.754.858 1.06-.073-.109.461.254-.007.244-.137-.088.566 1.301-.113.006.096.123-.063.377.184.287.107-.062-.127-.29.182.256.357.668-.013.274.109.09-.02-.18.149.42.078-.086.365.262.07.273.19.014.031.342.182.084.187-.024-.154-.414.592-.057.236.444.15.04-.161.147.4.819-.17.955.207.222-.05.096-.284.277-.33-.074.002.285-.205-.052.039.254-.473-.131.055.275-.223.106.094.16-.252.013.018.506.263.305.143-.127.072.185-.105.239-.475.072.2.615-.108.055.492.541.465.746.709 1.356.15.203A27.895 27.895 0 0 0 32 60c.177 0 .351-.01.527-.014l.035-.207.284-.191.158-1.455.078-.08.113.134.207-.115 1.635-1.504.086-.43-.236-.593-.182-.125-.803-.02-.691-.46-.813-.325-1.171-.004-.61-.224-.73.361.035-.283.203-.098-.328.026.264-.141-.186-.26-.21.158-.046-.209-.101.069.054-.082-.148.045-.153-.164-.082.1-.027-.169-.076.082-.492-.242-.041.09-.36-.098-.226.295.22.057-.195.04-.107-.13-.43.342.104-.246-.602.025.799-.092.265-.453-1.011-.19-.239.34-.019-.189-.209.15-.023-.193-.213.164.199-.34.734-.427-.127-.02.11-.195-.432-.213-.262-.936-.127-.091-.056.15-.319-.424-.945-.55-1.498-.249-.578-.582-.18.186.123-.395-.265-.336-.561-.437-.316-.051.035-.379-.363-.303-.34-.048-.243-.32.5-.042-1.14-.273.287.162h-.684l-.525-.436-.877-.213-.088-.359-.539-.324-.139-.397-.127.221.198.045-.008.123-.149-.121-.683.102.197.58-.037.171-.297.006-.15-.414.287-.3-.123-.452.402-.076-.219-.285-.765.246-.37-.18-.076.125-.234-.154-.195.057-.22.207-.005.326-.592.135.037.314-.396-.75-.424-.424-.26-.162-.617.04-.295-.344.028.13-.174-.127-.473-1.38.496-1.2.016-.459-.522-.707-1.117-.597-.242-.285.361-.307.205-.602-.1-.082.177-.136-.012.355.318-.537-.1-.113.546-.543-.405-.444-.77-.25-.374.657-.383.209-.21-.307-.696-.258-.135-.492-.19-.178-.002-1.986.061-.264.348-.844.152-.306.135.03-.11.15.278-.32.19-.645-.089-.102.104.074.228-.316.256.076-.008-.19.163.2-.096.014.404.011.17-.258.106.198-.124.013.315.082.06-.144-.054.139.383.427.199-.021.127.56.172-.025.054.17.063-.213.107.137-.004.336.176-.028-.137-.334.202-.043-.276-.41.692.455.13-.181-.01.232-.107.016.383.039-.101.086.337.14-.119-.02.278.233-.05.35.46.013.133.21.168.706-.247.428.165.055-.176.164.025.332.133.045-.072.557.199.304-.09.2.201.081-.035.098.467-.77.187-2.402.496-.3-.002-.165.028.155.9-.39 1.043-.124-.201-.164.22-.041-.142-.195.264.213.199-.077.022-.187-.124.127.055-.172-.242-.082.246-.09.1.176.064-.34-.027.525.05-.632-.273-.311.164.164-.049-.277.047.19.131-.122-.014-.031.096-.12-.275-.396.095-.136.18.449.137-.64.3-.018-.298.253.078.541-.266.368.543-.49.094-.713.07.482.414-.29.077-.388.334-.16.76.133.11-.215.005.207.453.063.035-.207-.153.128-.123-.42.508-.562.162.047.06-.172.165.146.256-.32-.063.178.239-.07.02.148.45-.12-.011-.228.212.16.838-.193-.287.217.53.137-.297.111-.082-.207-.676.254-.135.342.188.252.568-.444.205.133.037-.15.875-.018.14-.039-.25-.363-.487-.035-.383-.444.091-.386-.2-.059.316-.307-.309.02v-.17l-.289-.135.494.14.362-.114.021-.37-.47-.197-.72.076-1.277.553.586-.316.069-.246.994-.239.45-.375 2.022.559.514-.416.56.03.473-.26-.13-.214.19.04-.261-.133.238.05-.105-.146.178-.228-.153-.266-.308.129.136-.24-.267-.211-.903.316.838-.324-.377.015.73-.128-.226-.133.096-.074-.309-.014.03-.164-.135.068.1-.121-.282.195.207-.17-.17-.011.094-.098-.312.11.224-.362-.13.088.062-.123-.295-.154.158-.096-.191-.05.13.005-.142-.137.164.008-.201-.168.21.127.16-.21-.245-.268.191-.026-.152-.197.102-.1-.27.035.293-.189-.3.018.265-.143-.012-.186-.232-.046.205-.036-.174-.482.12-.082-.087-.092-.287.242.057.21h-.2l.061.136-.232.045-.08.266.015-.303-.488.287.037-.293-.287.213.246-.334-.453-.16.162-.094.014.143.185-.211-.123-.043.156-.291-.244-.133.29.092.251-.44-.15.088-.293-.305.127-.199-.162-.04-.065-.522-.27.09-.439-.471-.24.062-.068.38-.36.245.162.045-.158.38-.676.444.17.46-.328.785-.547.365-.675.031.046.297-.355.955-.281.13-.108.296.014-.283-.254.18-.182-.18.13-.186-.083-.797.635-.967-.6-.42-.414-1.636-.496-.13.22-.114.366-.643-.144-.164-.15.137.126-.348.573-.508.677-.252.026-.13.494-.003.017-.167.127.144.252-.049.033-.322-.17-.027.118-.055-.174-.268.133-.088.162.65.357-.187.274.213.533-.25-.291-.71.174.093.115.506.512-.166v-.233l.302.438.055-.424.19.113-.108.274.692-.236.107-.502.266.039-.036-.159.206-.062-.155-.283.15-.002-.335-.303-.285.486-.12-.086-.613.438-.219-.01.559-.722-.014-.215-.51.283.301-.516.164.065-.195-.31.273-.136.07.096.413-.846-.68.176.035.112-.39.228.103.428-.123-.07-.265.152.191-.008-.129.182-.434-.034-.34.315-.007-.225.398-.21-.205.013.16-.07-.023-.157-.186-.11-.136.214.103.082-.185.129.109-.322-.207.095-.34-.363.113-.28-.14-.18.258-.352-.498-.118.042.172.334.09-.542-.039-.211.291-.143.088.008-.127-.229.24.215-.36.143.009.18-.442-.276-.133-.121-.43.176-.107.17.116.166-.239-.092-.248.29-.752-.288-.205.422-.164-.452.04.596-.497-.21.131-.423-.281.47.011-.43-.273-.042-.127.233-.09-.22-.117-.292.148.955-1.066.528-.879.18-.15.113.033.097-.197.227-.088-.104-.092.155.043.167-.084-.126-.14.123-.18-.192-.03.15-.02.03-.183-.336-.24.201-.232-.14-.082-.588.253-.264.041-.26.225-.224.02-.165.146.141-.158-.19.057.286-.31.283-.067.12-.424zm-4.736.955l.158-.094.016-.144-.131.148-.13.137.087-.047zm2.619-.883l-.37.182.009.068.24-.082.121-.168zm15.271.082l-.068.191.225-.013-.192.111.63-.166-.595-.123zm-17.527.041l-.016.145.016-.145zm18.717.137l.123.004-.123-.004zm-18.793.013l-.107.123v.002l.011.022.096-.147zm-.096.147l.028.055.128-.118-.156.063zm18.02-.041l-.307.156.002.102.156.002-.115.054.54.102v-.232l-.276-.184zm-12.365.254l.033.047-.033-.047zm12.107.086l-.205.043-.07.205.625-.002-.038-.137-.312-.11zm.477.09l-.137.002.117.146.13-.068-.11-.078V9.1zm3.837.197l-.082.057v.003l.082-.06zm.196.098l.146.117-.146-.117zm-22.676.142l-.123.074.123-.074zm22.668.178l.064.07h.004l-.068-.07zm.031.33l.082.113.188.008-.102-.096-.168-.025zm3.014.113l.123.074.004-.003-.127-.07zm.168.076l.023.084-.023-.084zm-4.742.057l.44.285.122.287.654.477.245-.05.25.2.091-.101-.054.115.199.154.047-.191.172.197.013-.246-.24-.008.031-.107-.105.078.033-.113-.205.005.082-.054v-.002l-.273-.031.043-.077-.499-.23-.677-.582-.37-.006zm-21.205.072l-.194.137.01.055h-.133l.078.164.121-.074-.107.115.164-.041.176-.182-.13.006.14-.082-.268.096.227-.178-.084-.016zm.156.15l-.08.077.08-.076zm19.072.079l.287.1v-.005l-.287-.095zm-19.523.053l.023.048-.023-.048zm19.738.095l.072.125.197-.01v-.003l-.27-.112zm.32.153l-.035.127.17-.04-.135-.087zm-.207.074l-.068.144.002.004.066-.148zm-.314.031l.11.076-.11-.076zm.535.022l.15.068-.15-.068zm.006.207l.129.033v-.002l-.13-.031zm-19.434.003l.055.06.144.003-.199-.063zm24.574.057l-.19.149.21.044.101-.125-.12-.068zm-5.42.043l.397.272-.188-.254-.209-.018zm.538.059l-.032.068.032-.068zm3.394.054l-.027.159.072.166.125-.016.1.143.023-.124.422.32.185-.009-.056-.18.392.035v-.001l-.048-.397-.541.15-.336-.054-.31-.192zm-3.783.022l.02.213-.02-.213zm.021.887l.028.113-.028-.113zm-12.16.037l.17.1-.144.138.521-.002-.238.146.55-.042.016-.141-.117-.139-.758-.06zm-.834.035l-.283.176-.926.04.01.118-.402.332.261.193.254-.06h.004l.918.203.272-.346-.17-.09.224-.3-.162-.266zm18.824.146l-.199.069.201.181.182-.035v-.002l-.184-.213zm-16.724.096l-.166.086.166-.086zm-1.367.031l.093.096.211-.041-.304-.055zm1.33.074l-.2.073.024.181.281-.04-.105-.214zm-.63.09l.093.04-.092-.04zm-.482.004l.059.158-.232-.142.128.158-.304-.137-.063.223.29.037-.202.092.227.191-.418-.168-.05.233.474.162.136.228.403-.144.04-.137-.21.076.006-.119.445-.306h-.281l-.352.302-.086-.193.352-.479-.145-.035-.02.12-.197-.12zm2.07.112l-.234.142.047.115-.27.036.141.07-.025.351.342-.312v-.402zm1.632.09l.103.099-.15.037.213.086-.32.041.386.111-.408-.074-.006.162.51.028-.326-.002-.135.058.287.014.082.064-.182.036.178.043.521-.124-.32.122.164.082-.625-.06-.088.343.022-.344-.15-.125-.245.516-.11-.05.247.13-.205-.008-.027.13-.077-.237-.193-.028-.277.158h.218l-.076.11.244-.115-.402.332.397-.059-.452.148-.088-.37-.13.29-.473.018.02.117.154-.107-.098.183.117-.088-.037.141.117-.09-.017.194.219-.07.011.14.108-.127-.028.182.106-.168-.084.322.363.023.205-.168-.281-.246.16-.178.156.278.26-.201.197.103-.011-.13.197.034-.078-.134.191.058-.203-.332.344.182-.188-.244.43.117.023-.164.172.148.176-.101-.111-.102.166.078.043-.15.05.103.606-.253-.46-.012.343-.07-.133-.133.213.109.314-.068.153-.112-.057-.21-.35-.022.208-.063-.526-.294h-.006l-.412-.004-.117.252-.09-.28-.19.028.003.17-.084-.186-.371-.018zm-.192.01l-.334.06-.039.152-.213-.088-.047.2-.047-.151-.11.068.073.143-.254.09.274.25-.334-.127-.022.252-.123-.043-.05.127.154.154.146-.162-.105.195.377-.218-.098.13.424-.062.072-.147-.146-.048.322-.266-.17.064.25-.574zm-.824.017l-.15.142.15-.142zm-1.375.19l-.246.23.123-.086.123-.145zm10.146.007l.512.283-.474-.137.181.174-.228-.002-.041-.15-.047.24.691.256-.125-.303.17.102-.045-.131.172.027-.072.315.164.076.1-.238-.024.207.17-.028-.17.114.322.054.274.01-.67-.603-.016-.225-.55-.033.081.096-.375-.104zm-13.187.025l-.379.075-.006.16-.15.004.191.306-.367-.25-.174.155.205.398-.053.342-.425-.586-.27.232-.05.434-.233.168.383.422.52.068-.157.322.33.334.176-.203-.254.024.234-.205.006.144.272.006-.074.125.22-.156.09-.582.758-.545.127-.25-.147-.106-.699.428.518-.533-.051-.074-.2.216.02-.123-.156.036-.055-.102.258-.016.049-.21-.275-.08.386-.159-.568-.219zm14.1.04l-.02.123.166.015-.146-.139zm.22.015l-.039.156.305.164.008-.148.18.08-.11-.178-.344-.074zm-5.386.043l-.05.305-.279-.211-.12.125.304.094.016.138-.37-.178.2.225-.166-.02-.002.198-.397-.336.008.361-.209-.178-.125.131.068-.28-.382.046.095.303-.101-.235-.157-.01-.15.294-.084-.112-.068.18.006-.162-.432.203-.033.117.28.045-.411.33-.287-.06-.586.175.166.397.348.055-.077.136-.298-.113.244.162-.526-.166.26.273-.246.038.039.168.188.146.005-.156.141.15.305-.072.246.16.34.791-.221.16.193-.043-.115.532.14.28-.214-.019.135.06-.145.179-.129.084.285.162.16-.391-.029.287.256.024-.246.113.273.008-.222.115.181-.04-.136.07.205.071-.172-.025.172.34-.36-.25-.298.006.32.328.37.047-.241.363.215.035-.098.123-.115-.125.025.295-.285-.103-.266.119.526-.018-.153.127.188.15-.549-.2.219.142-.211-.066-.156.238.457-.17-.145.066.397.024-.743.11.457.099-.5.013.295.194-.275.052.207.09.34-.168.111.075-.724.287.363.033-.336.107.113.196.309-.168.15.086-.486.109.13.018-.103.234.223-.063-.227.118-.01.24.35-.22-.033-.235.225.447-.254-.16.136.1-.373.085.37.065-.348.004.148.07-.17.104.239.037-.19.084.244.056-.22-.004.234.084-.11.206.178-.118-.191.254.23.135-.129.137.221-.032-.18.114.174-.073-.105.131.138.045-.171.033.248.028-.213.049.287.06.033.256.64-.146-.283.207.229-.116-.174.205.21-.087-.015.183.16-.146-.163.277.2-.191-.08.265.165-.17.246.15-.268-.247.348.015-.162-.136.217-.112-.233-.04.25.027-.15-.124.217-.074-.166-.054.212-.047-.158-.035.194-.11-.205-.256.203.07-.237-.183.332-.027-.072-.207.186.095-.139-.199.184.084-.108-.094.203-.043-.176-.136.231.088-.018-.205-.22-.073.279-.04-.172-.38.201.075.063-.278.379-.027.054-.379.153.045-.13.215.136.054-.022-.168.063.114.293-.137-.079-.15.237.045.248-.657.217-.136-.149-.317.223.244.295-.058-.008-.139.127.088.525-.285.573-.778-.586-.037-.31.266-.23-.041.32-.215-.466.072.156-.34.21.069.187-.184-.524-.045.164-.095-.197-.108.676.194.332.353.086-.21.072.175.147-.059-.221-.2.025-.212-.127.04.063-.141-.178.088.055-.149-.393-.152-.1.156.007-.129-.165.03.254-.085-.14-.12-.178.154-.16-.118.326-.154-.396.035.19-.076-.17-.092.224.082.154-.146-.209-.164.234.146.012-.127.3.032-.273.023.303.137.246-.158-.047-.165-.232-.04.055.18-.157-.155-.035-.242.39.08.046-.123-.305-.006-.01-.178h-.252l.239-.057-.301-.095.432.09-.075-.248-.347-.032.216-.136-.252.035-.18-.178.485-.16-.11-.2-.325-.013.17-.127-.227-.07-.06.16-.06-.188.061-.812-.197.15-.076-.13.293-.247-.426.084.447-.254-.06-.35-.303.014-.016.213-.222-.013-.13.459-.081-.614-.268.319.055-.244-.576.13.084-.152.496-.053.191-.22-.345.006-.002-.157-.643.239.111-.182.477-.117-.73-.014zm-2.645 7.113l-.24-.035.084.104-.15.084.306-.153zm-13.176-7.109l-.387.246.17-.072-.12.195.224-.246-.123.191.115-.03.121-.284zm15.654.062l.098.094-.098-.094zm-5.519.006l.045.116.002-.004-.047-.112zm.66.022l-.32.22.039.147.002.002.285-.07-.006-.3zm4.805.04l.07.077h.006l-.076-.076zm-15.555.083l-.625.328.16.035.334-.178.131-.185zm9.47.033l-.136.123.137-.121v-.002zm-9.923.023l-.152.065.152-.065zm15.598.042l-.004.003.158.235.012-.178-.166-.06zm-5.952.08v.002l.182.04-.182-.042zm5.543.007l.094.145h.004l-.098-.145zm-5.593.028l.054.068-.054-.068zm11.037.047l.183.082v.002l.21.027-.393-.111zm-11.283.054l-.17.11.002.002.168-.112zm-.934.23l-.137.018-.101.291.004.002.306-.103-.072-.207zm-8.896.1l-.329.196v.088l-.142.013-.14.219-.134.146.246-.119.05-.168.04.094.409-.469zm.021.1l-.074.098.074-.098zm.016.104l-.133.136.133-.136zm-.065.001l-.154.135.154-.135zm10.584.122l-.422.029.114.32.308-.35zm-11.068.02l-.158.095-.075.097.233-.193zm9.836.001l-.16.156-.045-.125.01.233-.213.084-.02-.262-.21.068-.315.692.123.074.195-.143-.102.077.145.074h.004l.46-.26-.054-.238.438-.088-.256-.342zm-9.58.148l-.166.036-.022.082.106-.04-.16.065.042.068.2-.21zm-.194.041l-.11.083.11-.083zm-.498.03l-.472.347-.399.534.303-.368h.002l.092.02.058-.166.395-.082-.252-.027.19-.041.083-.217zm.451.053l-.123.056.123-.056zm26.104.021l-.107.04.107-.04zm-15.79.107l-.804.631.334-.013.055-.172.191.185.643-.23-.418-.4zm15.684.188l-.027.21.027-.21zm-26.126.018l-.098.001.098-.001zm13.875.01l.107.062-.107-.063zm5.775.113l.023.103-.023-.103zm-20.078.013l-.02.096.022-.096h-.002zm-.037.11l-.118.105-.18.203.298-.308zm9.064.048l-.068.104.068-.104zm-1.33.166l.035.08-.035-.08zm3.92.01l-.512.041-.746.506.25.324.254.131.123-.328.24-.264.528-.255-.137-.155zm14.963.125l-.055.121.055-.12zm-26.867.03l-.258.16.062.01-.17.158.366-.328zm20.447.003l.207.274-.207-.274zm-20.652.065l-.147.146.147-.146zm12.087.055l.022.209-.191-.137.074.21-.137-.177-.144.426-.034-.17-.177.025.043.252-.282.229.069-.115-.563-.325-.14.266.013.168.283.023-.115.229.48.375-.02-.262.083.385.031-.22.32.316.042-.247.187-.082-.105.465.164-.049-.133.124.154.056-.033.217-.32.139.277-.05.05.294.132-.02-.12.682-.277.144.14.116-.163-.096-.39.127-.018.379-.479-.096-.21-.232-.419.373.643.326.113-.23.035.333.145-.125-.084.403.22.222-.22-.007.017.175.934.95-.246-1.024.18.266.04-.196.403.717.144-.556.06.304.122-.341-.154-.213.156-.016-.047-.227-.178.065.02-.215-.08.139.092-.453-.23.043.12-.29.221.1-.014-.316.217.09.035.26.157-.092-.17.171.377-.095-.348.207.223.5.2-.473.104.21.053-.274.17.119-.127-.2.264.077-.075-.166.184.021-.072-.207-.207.139.039-.143-.217.02.232-.197-.212.156.123-.131-.272.035.191-.074-.132-.09.15.057-.012-.235-.162.035.16-.119-.191.137v-.191l-.123.15.11-.184-.135.09.087-.152-.117.058.041-.185-.162-.024.246-.005-.377-.315.266.106.014-.178-.176.025.21-.049-.122-.113.342.211-.022-.152-.441-.196.5.088.05-.109-.064-.191-.459.183.353-.166-.277-.012.414-.097-.115-.176-.26.074.219-.135-.467.254.188-.187-.153.002.37-.178-.405.063.377-.18-.096-.234-.35.164.237-.272-.369.149.197-.163-.095-.054.263-.08-.347-.055.347-.166-.228-.246-.219.06.102.211-.208-.156-.003.256-.022-.414-.344.15.366-.265.173-.442-.504-.095zm-2.666.044l-.517.198.06.4.319.006.138-.604zm-.634.006l-.102.118.106-.118h-.004zm3.896.082l-.17.315.012.146.44.155.044-.34-.326-.276zm-12.71.002l-.094.09.093-.09zm27.175.047l-.115.006.156.24-.041-.246zm-17.732.106l-.041.111.04-.111zm11.6.082l-.009.199.172-.057-.164-.142zm5.995.035l.06.172-.06-.172zm-27.345.025l-.09.022.09-.022zm27.367.17l.05.188.11-.028-.16-.16zm-6.244.002l.103.111-.103-.11zm-21.627.041l-.133.172.072.09-.205.025.025.17-.425.63.125.11-.221.094-.041.486.674-1.017.129-.76zm28.115.186l-.012.144.012-.144zm-6.475.039l-.093.103.267-.027-.174-.076zm-10.152.082l.07.115-.07-.115zm16.557.015l.021.118-.021-.118zm-28.403.258l-.095.131.095-.13zm21.662.17l-.136.127.418-.027-.282-.1zm.366.12l-.211.087.347.016-.136-.104zm-.069.095l-.207.035.131.147.33.082-.254-.264zm-9.402.018l.072.11.15-.048-.222-.062zm11.986.021l-.074.193h.004l.07-.193zm-13.254.01l-.132.094v.002l-.061.123.193-.22zm-11.273.086l-.084.185.084-.185zm14.267 0l-.14.043.14-.043zm14.737.064l.04.106h.003l-.043-.106zm-16.065.024l-.197.035.197-.033v-.002zm4.069.021l-.133.07.133-.07zm-4.211.088l-.262.07v.002l.262-.072zm-13.057.248l-.043.102.043-.102zm17.465.152l.033.106-.033-.106zm-.111.014l-.086.078.086-.078zm4.677.08l-.279.326.404-.146-.125-.18zm10.881.063l.022.172.002.003-.024-.175zm-19.945.007l-.344.381.295.082.219-.238.002-.002-.172-.223zm-2.117.143l-.713.64-.334.09.285.11-.123.287.719-.193-.08.26.19.236h.001l.258-.051-.033-.219-.227-.047.207-.21-.13-.63-.153.063.133-.336zm.252.025l-.063.188v.004l.115.097-.052-.289zm2.092.075l.156.195.002-.123-.002-.002-.156-.07zm3.826.056l-.075.276.258.052-.129.13.366-.083-.16-.326-.26-.049zm15.441.123l.215.098-.215-.098zm-14.846.102l.002.174h.004l-.006-.174zm14.631.07v.004l.108.035-.108-.039zm-2.597.012l-.063.11h.004l.059-.11zm.066.037l-.066.147.066-.147zm-12.387.41l-.176.028.176-.028zm-.039.285l.15.008-.15-.008zm-2.11.006l-.105.07.106-.07zm18.151.076l.014.28.215.185-.229-.465zm-8.515.121l-.123.147-.227-.125.014.225-.35.044.137.229-.244-.209-.041.246-.266-.119.012.453-.18-.377-.428-.117.227.246-.262-.127.115.23-.191-.027.103.115-.156.043.602-.095-.153.164.192.039-.457.158.648.117-.209.334.342-.142.598.136.302-.285.344-.324.121-.383-.136-.02.138-.062-.543-.355.07-.159zm-14.555.065l-.29.055-.066.158.577-.12-.22-.093h-.001zm.976.209l.008.182.157-.096-.165-.086zm.293.004l-.011.146.011-.146zm21.733.1l.084.183v.002l.232.363-.316-.549zm-22.522.214l-.277.246v.004l.219-.054.058-.196zm19.377.223l.082.096-.082-.096zm-18.334.123l.116.07-.116-.07zm8.442.111l-.156.055v.004l.156-.059zm-7.682.14l.11.179-.11-.178zm14.695.05l.133.095-.133-.095zm-.039.033l.17.096-.17-.096zm-13.123.03l.034.177-.034-.178zm14.819.075l.035.108-.033-.108h-.002zm-.043.059l.177.277-.177-.277zm-9.418.016l.15.232-.15-.232zm20.185.015l-.066.08.068-.08h-.002zm-5.994.055l.145.082-.145-.082zm-6.209.027l.127.075-.127-.075zm5.485.026l.125.224-.166-.086-.09.23.607.313-.16-.17v-.003l-.063-.35-.253-.158zm-19.141.216l.139.03-.14-.03zm18.87.098l.085.082-.086-.082zm1.056.094l-.012.16.123-.049-.111-.111zm-.356.008l-.045.103.045-.103zm-.566.037l-.09.123v.004l.13.166.17-.088-.21-.205zm-19.283.105l.054.145.117-.1-.171-.045zm5.7.014l.182.125-.181-.125zm13.843.092l.054.144-.054-.144zm-4.077.088l.098.103-.098-.103zm3.954.027l.107.002-.107-.002zm-.137.041l.135.04-.135-.04zm-20.131.02l-.01.15.01-.15zm16.414.064l-.432.21.192.37-.18.06.287.294-.107.261.295-.123.156.729-.016-.305.047-.22.155.101-.12.031.205.526.13.072-.061-.11.412-.257-.022.28.235.15.039-.124.101.352.157.033-.348.25-.045.26.15-.143.124.157-.196.486.623-.012.172-.324-.03.373-.314.146-.142.707.533-.33-.068-.24.88-.506.254-.36-.058-.11-.31.128.136-.15-.041-.512-.238-.14-.295.187-.006.01-.178-.297-.082-.02-.144.051.17-.13-.12-.147-.392-.066-.574-.487-.455.104.255-.207-.21.037.144-.178-.121-.543-.557.342.01-.666zm-.686.387l-.035.324h-.004l.067.101.066-.144-.094-.281zm-19.21.246l-.374.232.217.022-.066.088.226-.2-.152.123.149-.265zm-.092.008l-.201.095.2-.095zm.146.191l-.129.07.13-.068v-.002zm19.291.004l.291.205-.058-.12-.233-.085zm-10.445.002l-.137.066.137-.066zm10.336.025l-.108.065.108-.065zm4.043.328l-.07.096.001.002.069-.098zm-3.533.045v.178l.129-.125-.13-.053zm-10.346.014l.15.088v-.002l-.15-.086zm-9.998.127l.187.035-.187-.035zm20.521.027l-.03.104.03-.104zm-34.004.133l.006.12-.006-.12zm33.954.006l-.041.154.002.002.039-.156zm.253.066l.002.006.12.037-.122-.043zm-.083.262l-.245.227.043-.147-.15-.02.037.22-.15-.085-.094.33.191-.048-.006.246-.43.146.247.155-.086.248.393-.038-.15.418.32-.175-.372.373.186-.026-.115.217.23-.107-.115.193.174-.13-.03.17.405-.39h.004l.369-.37-.436-.815.135-.326-.355-.266zm-21.698.012l.233.32.037-.285-.27-.035zm22.336.164l-.021.213.021-.213zm-34.818.07l-.024.145.024-.145zm18.484.233l.127.06-.127-.06zm29.697.02l-.11.835.245.02.024-.44-.112-.066-.047-.35zm-13.007.148l-.133.076v.002l.133-.078zm10.457.277l-.045.092.047-.092h-.002zm-.047.191l-.016.16.018-.156-.002-.004zm.344.028l-.045.173.146-.003h.004l.045-.084-.15-.086zm-4.008.293l.138.15-.138-.15zm-5.324.039l-.13.078.13-.078zm9.507.064l.131.184-.13-.184zm-.785.004l-.092.055.092-.055zm-3.322.035v.002l.11.053-.11-.055zm.963.069l-.104.101.104-.101zm4.135.203l.002.256.082.005-.084-.261zm-1.325.113l-.265.041-.037.182.535-.012.004-.002-.237-.209zm.295.15l.114.006v-.002l-.114-.004zm.545.121l-.015.102.015-.102zm.506.118l.035.136h.004l-.039-.136zm-2.053.332l.045.16-.045-.16zm2.045.11l-.033.208-.547.34.108.164.277-.191h.004l.248-.35-.057-.172zm-1.969.083l.036.166v.006l.12-.076-.156-.096zm.303.225l-.123.02.123-.02zm-46.437.056l-.082.069.082-.069zm.476.022l-.064.326.064-.326zm46.713.004l.076.088-.076-.088zm-4.861.062l-.053.457.356.315-.03-.395-.273-.377zm-21.84.002l-.584.379-.246.61-.182-.004.06.244-.148-.123-.365.273.334.049-.457.23.041.186.31-.053.464.236.41-.156-.17.233.51-.02-.518.291.28.027.47-.388.057.242-.198.293.26-.166-.076.293.162.031.264-.433-.035-.157-.192.11.182-.303-.28.303-.1-.194.134-.082-.106-.113.356-.11-.42.02.32-.424-.334-.039.037-.158-.357.217.13-.24h-.335l.275-.237-.242-.021.041-.111-.3.263.542-.715-.082-.156.19.03-.102-.157zm-2.932.242l.666.618.086-.108-.218-.242-.534-.268zm-16.976.174l-.08.022-.022.164.102-.186zm38.078.031l.09.069-.09-.069zm13.44.127l-.061.037.06-.037zm-6.98.244l-.698.793.158.165.8-.13-.26-.828zm-2.372.002l-.192.348.561.824.244-.367-.266-.594-.347-.21zm-22.028.256l-.13.022v.002l.13-.024zm-2.51.56l-.251.128v.004l.252-.131zm-.94.057l-.198.184.402.447v.004l.377-.148-.658-.188.076-.299zm1.187.32l-.524.411.022.27.556-.106-.107-.21-.252.27-.13-.025.333-.232.102-.377zm26.943.106l.1.016-.1-.016zm-24.76.04l-.084.083.084-.084zm21.114.21l-.108.035.108-.035zm-42.188.028l-.004.18.004-.18zm41.842.13l-.172.325.258.017v-.004l.05-.27-.136-.068zm-41.55.534l-.028.136h.002l.025-.136zm41.28.207l-.082.12.082-.12zm-28.29.388l.476.143.2-.123-.677-.02zm.599.082l.186.034-.186-.034zm-.478.034v.002l.119.013-.12-.015zm32.07.029l-.043.113.043-.113zm-33.006.848l-.125.128.125-.128zm-7.85.326l-.105.008.105-.008zm-.629.008l-.183.035.183-.035zm-.283.082l-.209.193.21-.193zm1.719.43l.072.087-.072-.088zm.125.273l.041.103-.041-.103zm25.623 1.054l.004.008h.137l-.14-.008zm-.377.05l.137.032-.002-.002-.135-.03zm-.074.148l.215.013-.215-.013zm1.426.17l-.295.002.295-.002zm3.78 1.81l.143.008-.142-.008zm-26.81.606l.07.127-.07-.127zm.057.127l.318.046-.318-.046zm-3.746.533l.11.02-.11-.02zm32.348.105l-.123.244.148-.12-.025-.124zm-31.03.088l-.185.277-.252-.087.322.183.56-.096.319.2.05.132-.195-.062.098.178 1.066.869.131.533.34.219.014.17-.299.12 1.098.481.382-.002-.591-.49.054-.205-.45-.307-.909-1.322-.455-.414-1.098-.377zm2.448.006l-.174.244.136.219.141-.129-.103-.334zm.607.103l.15.377-.048.19.078-.246-.18-.32zm27.861.1l-.183.426.193-.137-.01-.289zm-32.134.164l-.114.008.114-.008zm3.753.168l-.117.031.057.211.074-.072-.107-.06.093-.11zm27.46.037l-.31.201.128.157.181-.358zm-29.737.004l-.066.219h.004l.181.053-.017-.18-.102-.092zm28.924.113l.101.145-.101-.145zm-25.87.016l.114.342-.113-.342zm26.915.02l-.035.148.181-.102-.146-.046zm-28.313.449l.15.137-.15-.137zm-3.822.023l-.08.1.08-.1zm3.943.115l.088.108-.088-.108zm-3.998.2l-.088.088.088-.088zm5.606.328l.125.115-.125-.115zm.183.135l-.232.193.15-.078.082-.115zm-3.314.128l-.002.002.12.09-.118-.092zm3.63.168l.102.086-.101-.086zm-5.859.08l.098.006-.098-.005zm5.737.436l-.315.035.227.104.088-.139zm-2.447.418l.189.356.293.146.332.123-.236-.37-.578-.255zm2.337.197l.137.092v-.002l-.137-.09zm.05.078l-.288.014.293.244-.09.178.15.316-.763-.392-.133.07.211.299.783.219.215.404.15-.143h.003l.24-.125.86.426.171-.138-.527-.43.224-.031-.258-.084-.056-.225-1.186-.602zm-.298.403l.184.193-.059-.123-.002-.002-.123-.068zm2.545 1.242v.215l.54.15.202-.144-.742-.221zm.739.363v.002l.142.026-.142-.028zm.277.295l.158.008-.158-.008zm.91.412l.104.1-.104-.1zm.61.578l-.17.055.074.174h.002l.217-.065-.124-.164zm18.982.336l.062.096-.062-.096zm-.965.03l-.168.086.168-.086zm15.18.107l-.164.287.093-.002.07-.285zm-14.698.074l-.205.006v.002l.205-.008zm-27.802.028l.039.129-.04-.13zm28.449.021l-.094.121.094-.12zm-19.117.217l.082.172h.004l-.086-.172zm-3.795.031l.058.106.11.123-.168-.229zm.322.178l.072.135-.072-.135zm-9.512.285l-.076.008.172.38h-.142l.148.159.09-.025-.192-.522zm13.666.402l.082.125h.002l-.084-.125zm-13.398.13l.129.077-.129-.078zm.314.35l.131.02-.13-.02zm10.717.013l.301.074-.121-.037-.002.004-.178-.041zm34.14.226l-.109.096.022.074.088-.17zm-32.85.246l.087.213-.238.055.451.074.055-.312-.356-.03zm-8.493 2.475l.043.129h.004v-.004l.082-.055-.129-.07zm.088.226l-.076.012.076-.012zm13.996 2.725l-.043.096.047-.096h-.004zm-.123.041l.01.117-.01-.117zm-.262.147v.003l.117.004-.117-.007zm-.027.04l.203.028-.203-.027zm-.06.012l-.153.096v.006l.152-.102zm.906.043l-.243.014.243-.014zm-.764.06l-.082.075.082-.074zm2.713.55l-.041.093.04-.093zm.836.591l-.186.014.186-.014zm-.246.075l-.022.103h.002l.02-.103z" fill="#578D57"/>
    <path d="M26.45 12.863A21 21 0 0 0 14 32a21 21 0 0 0 21 21 21 21 0 0 0 14.078-5.453 21 21 0 0 1-3.23.86A21 21 0 0 1 41 49a21 21 0 0 1-21-21 21 21 0 0 1 6.45-15.137z" opacity=".2"/>
    <path d="M26.45 11.863A21 21 0 0 0 14 31a21 21 0 0 0 21 21 21 21 0 0 0 14.078-5.453 21 21 0 0 1-3.23.86A21 21 0 0 1 41 48a21 21 0 0 1-21-21 21 21 0 0 1 6.45-15.137z" fill="#F9F5D7"/>
    <path d="M32 4C16.488 4 4 16.488 4 32c0 .168.01.333.014.5C4.28 17.221 16.656 5 32 5c15.344 0 27.72 12.221 27.986 27.5.003-.167.014-.332.014-.5C60 16.488 47.512 4 32 4z" fill="#F9F5D7" opacity=".1"/>
</svg>
