<svg xmlns="http://www.w3.org/2000/svg" width="64" height="64" version="1">
    <rect width="12" height="41.999" x="26" y="19" rx="4.5" ry="4.2" opacity=".2"/>
    <rect width="12" height="41.999" x="26" y="18" rx="4.5" ry="4.2" fill="#9D0006"/>
    <path d="M28.712 32.976c-6.611-.126-9.295-.237-10.936-.452-1.203-.158-1.794-.313-2.46-.642-1.101-.544-1.786-1.303-2.28-2.527-.452-1.119-.635-2.007-.804-3.887-.19-2.12-.206-2.504-.225-5.808-.024-3.886.023-5.16.284-7.738.137-1.352.336-2.25.711-3.204.341-.867.653-1.346 1.22-1.874.712-.663 1.494-1.067 2.481-1.28 1.474-.317 8.135-.562 15.301-.562s13.827.245 15.3.563c1.067.23 1.849.654 2.612 1.416.598.597.905 1.14 1.271 2.241.378 1.135.522 2.14.737 5.112.101 1.412.101 7.91 0 9.321-.12 1.65-.266 3.12-.363 3.646-.25 1.353-.742 2.619-1.296 3.338-.38.494-1.13 1.083-1.758 1.38-.635.3-1.24.448-2.216.544-3.024.297-12.26.514-17.58.413z" opacity=".2"/>
    <path d="M28.712 31.976c-6.611-.126-9.295-.237-10.936-.452-1.203-.158-1.794-.312-2.46-.642-1.101-.544-1.786-1.303-2.28-2.527-.452-1.119-.635-2.007-.804-3.886-.19-2.121-.206-2.505-.225-5.81-.024-3.885.023-5.158.284-7.737.137-1.352.336-2.25.711-3.204.341-.867.653-1.346 1.22-1.874.712-.663 1.494-1.067 2.481-1.28 1.474-.317 8.135-.562 15.301-.562s13.827.245 15.3.563c1.067.23 1.849.654 2.612 1.416.598.597.905 1.14 1.271 2.241.378 1.135.522 2.14.737 5.112.101 1.412.101 7.91 0 9.321-.12 1.65-.266 3.12-.363 3.647-.25 1.352-.742 2.618-1.296 3.338-.38.493-1.13 1.082-1.758 1.378-.635.3-1.24.449-2.216.545-3.024.297-12.26.514-17.58.413z" fill="#CB241D"/>
    <path d="M16.441 11.952a1.5 1.5 0 0 0-1.441 1.5v10a1.5 1.5 0 1 0 3 0v-6.5l1.666 1.586a1.5 1.5 0 0 0 2.121-.053L23 17.208v6.244a1.5 1.5 0 1 0 3 0v-10a1.5 1.5 0 0 0-1.545-1.5 1.5 1.5 0 0 0-1.043.467l-2.766 2.912-3.11-2.965a1.5 1.5 0 0 0-1.095-.414zm23.059 0a1.5 1.5 0 1 0 0 3H42v8.5a1.5 1.5 0 1 0 3 0v-8.5h2.6a1.5 1.5 0 1 0 0-3zm-6.578.002a1.5 1.5 0 0 0-1.29.883l-4.5 10a1.5 1.5 0 1 0 2.735 1.23l.54-1.197v.082h5.224l.502 1.115a1.5 1.5 0 1 0 2.734-1.23l-4.5-10a1.5 1.5 0 0 0-1.445-.883zM33 17.106l1.281 2.846H31.72z" opacity=".2"/>
    <path d="M16.5 22.5v-10l4.2 4 3.8-4v10M28.5 22.5l4.5-10 4.5 10M43.5 22.5v-9.498 0M39.5 12.5h8.1" fill="none" stroke="#F9F5D7" stroke-width="3" stroke-linecap="round" stroke-linejoin="round"/>
    <path d="M30.406 20.5h5.6" fill="none" stroke="#F9F5D7" stroke-width="3"/>
    <path d="M32.004 4.002c-7.166 0-13.825.245-15.299.562-.987.213-1.772.618-2.484 1.282-.567.527-.878 1.003-1.219 1.87-.375.954-.574 1.856-.711 3.208-.26 2.579-.308 3.852-.285 7.738 0 .16.003.234.006.324-.01-3.232.038-4.683.279-7.062.137-1.352.336-2.254.711-3.207.341-.868.652-1.344 1.219-1.871.712-.664 1.497-1.069 2.484-1.282 1.474-.317 8.133-.562 15.299-.562s13.827.245 15.3.562c1.067.23 1.85.656 2.614 1.418.597.597.903 1.137 1.27 2.239.377 1.135.52 2.14.734 5.113.052.721.064 2.626.06 4.588l.002.072c.014-2.33 0-4.803-.062-5.66-.214-2.973-.357-3.978-.734-5.113-.367-1.102-.673-1.642-1.27-2.239-.763-.762-1.547-1.188-2.613-1.418-1.474-.317-8.135-.562-15.301-.562z" opacity=".2" fill="#F9F5D7"/>
</svg>
