<svg xmlns="http://www.w3.org/2000/svg" width="64" height="64">
    <path d="M32.064 5.001a1.618 1.6 0 0 0-1.464.792l-4.844 8.204-8.795-3.819a1.618 1.6 0 0 0-2.26 1.624l.957 9.455-9.385 2.024a1.618 1.6 0 0 0-.863 2.628l6.392 7.094-6.39 7.094a1.618 1.6 0 0 0 .863 2.628l9.385 2.021-.954 9.455a1.618 1.6 0 0 0 2.26 1.624l8.794-3.82 4.846 8.203a1.618 1.6 0 0 0 2.793-.001l4.845-8.204 8.795 3.819a1.618 1.6 0 0 0 2.26-1.625l-.957-9.454 9.385-2.024a1.618 1.6 0 0 0 .863-2.628l-6.392-7.093 6.39-7.095a1.618 1.6 0 0 0-.863-2.628l-9.385-2.021.954-9.455a1.618 1.6 0 0 0-2.26-1.624l-8.794 3.821-4.847-8.203A1.618 1.6 0 0 0 32.064 5z" opacity=".2" fill-rule="evenodd"/>
    <path d="M32.064 4.001a1.618 1.6 0 0 0-1.464.792l-4.844 8.204-8.795-3.819a1.618 1.6 0 0 0-2.26 1.624l.957 9.455-9.385 2.024a1.618 1.6 0 0 0-.863 2.628l6.392 7.094-6.39 7.094a1.618 1.6 0 0 0 .863 2.628l9.385 2.021-.954 9.455a1.618 1.6 0 0 0 2.26 1.624l8.794-3.82 4.846 8.203a1.618 1.6 0 0 0 2.793-.001l4.845-8.204 8.795 3.819a1.618 1.6 0 0 0 2.26-1.625l-.957-9.454 9.385-2.024a1.618 1.6 0 0 0 .863-2.628l-6.392-7.093 6.39-7.095a1.618 1.6 0 0 0-.863-2.628l-9.385-2.021.954-9.455a1.618 1.6 0 0 0-2.26-1.624l-8.794 3.821-4.847-8.203A1.618 1.6 0 0 0 32.064 4z" fill="#CB241D" fill-rule="evenodd"/>
    <path d="M19.637 17s2.298 7.41.894 12.16C19.128 33.91 12 39.258 12 39.258s9.318.508 12.855 2.77C28.393 44.287 31.992 53 31.992 53s4.779-9.599 6.778-10.973c1.998-1.374 13.23-2.78 13.23-2.78s-8.212-7.731-8.91-9.888c-.698-2.156 1.277-12.355 1.277-12.355S36.977 22 31.785 22c-5.191 0-12.148-5-12.148-5zm20.789 5.588c-.173 1.254-.342 2.544-.424 3.724-.096 1.385-.281 2.378.234 3.971.544 1.68 1.303 2.348 2.248 3.467.935 1.107 2.05 2.296 3.137 3.416-1.567.268-3.206.58-4.652.932-1.449.353-2.515.506-3.899 1.457-1.383.95-1.899 1.901-2.699 3.101-.775 1.162-1.556 2.495-2.281 3.782-1.368-2.496-2.94-5.226-5.62-6.938-2.317-1.481-5.073-2.026-7.67-2.438 1.848-1.914 3.752-4.156 4.608-7.052.737-2.492.619-4.966.358-7.233C26.112 23.915 28.797 25 31.786 25c3.183 0 6.12-1.203 8.64-2.412z" opacity=".2" fill-rule="evenodd"/>
    <path d="M19.637 16s2.298 7.41.894 12.16C19.128 32.91 12 38.258 12 38.258s9.318.508 12.855 2.77C28.393 43.287 31.992 52 31.992 52s4.779-9.599 6.778-10.973c1.998-1.374 13.23-2.78 13.23-2.78s-8.212-7.731-8.91-9.888c-.698-2.156 1.277-12.355 1.277-12.355S36.977 21 31.785 21c-5.191 0-12.148-5-12.148-5zm20.789 5.588c-.173 1.254-.342 2.544-.424 3.724-.096 1.385-.281 2.378.234 3.971.544 1.68 1.303 2.348 2.248 3.467.935 1.107 2.05 2.296 3.137 3.416-1.567.268-3.206.58-4.652.932-1.449.353-2.515.506-3.899 1.457-1.383.95-1.899 1.901-2.699 3.101-.775 1.162-1.556 2.495-2.281 3.782-1.368-2.496-2.94-5.226-5.62-6.938-2.317-1.481-5.073-2.026-7.67-2.438 1.848-1.914 3.752-4.156 4.608-7.052.737-2.492.619-4.966.358-7.233C26.112 22.915 28.797 24 31.786 24c3.183 0 6.12-1.203 8.64-2.412z" fill="#F9F5D7" fill-rule="evenodd"/>
    <path d="M31.902 4.002a1.618 1.6 0 0 0-1.302.791l-4.844 8.205-8.795-3.82a1.618 1.6 0 0 0-2.26 1.625l.045.441a1.618 1.6 0 0 1 2.215-1.066l8.795 3.82L30.6 5.793a1.618 1.6 0 0 1 1.464-.791 1.618 1.6 0 0 1 1.329.791l4.847 8.203 8.793-3.82a1.618 1.6 0 0 1 2.215 1.064l.045-.441a1.618 1.6 0 0 0-2.26-1.623l-8.793 3.82-4.847-8.203a1.618 1.6 0 0 0-1.329-.791 1.618 1.6 0 0 0-.162 0zM48.44 20.275l-.1.979 9.386 2.021a1.618 1.6 0 0 1 1.191 1.065 1.618 1.6 0 0 0-1.191-2.065l-9.286-2zm-32.88.004l-9.286 2.002a1.618 1.6 0 0 0-1.191 2.065 1.618 1.6 0 0 1 1.191-1.065l9.385-2.023-.1-.979zM52.65 32.498l-.45.5 6.39 7.092a1.618 1.6 0 0 1 .328.564 1.618 1.6 0 0 0-.328-1.564l-5.94-6.592zm-41.3.004l-5.94 6.596a1.618 1.6 0 0 0-.326 1.562 1.618 1.6 0 0 1 .326-.562l6.39-7.096-.45-.5zm37.091 12.22l-.1.022.913 9.012a1.618 1.6 0 0 0 .045-.559l-.858-8.474zm-32.88.003l-.856 8.476a1.618 1.6 0 0 0 .045.555l.91-9.01-.1-.021z" opacity=".2" fill="#F9F5D7" fill-rule="evenodd"/>
</svg>
