<svg xmlns="http://www.w3.org/2000/svg" width="64" height="64" version="1">
    <path d="M4 56.2v2C4 59.75 5.25 61 6.8 61h50.4c1.55 0 2.8-1.25 2.8-2.8v-2c0 1.55-1.25 2.8-2.8 2.8H6.8C5.25 59 4 57.75 4 56.2z" opacity=".2"/>
    <rect width="56" height="56" x="4" y="4" rx="2.8" ry="2.8" fill="#48B9C7"/>
    <path d="M30.184 46.934c-1.223-.113-3.659-.557-4.71-.859-2.247-.645-4.237-1.294-5.869-2.693-.324-.278-.718-.5-.884-.5-.165 0-1.73.482-3.477 1.072-1.748.59-3.263 1.073-3.368 1.073-.334 0-.575-.812-.98-2.075-.444-1.382-.474-1.638-.216-1.85.098-.081 1.342-.532 2.763-1.002 1.42-.47 2.603-.913 2.627-.984.05-.15-1.95-.295-4.067-.295-1.322 0-1.402-.015-1.717-.327-.305-.302-.323-.383-.249-1.09.045-.421.08-1.065.08-1.432 0-1.085.01-1.088 2.845-1.04l1.827.04.158-1.077a9.027 9.027 0 0 1 1.236-3.444c.338-.552.437-.834.394-1.136-.602-4.284-.688-5.934-.377-9.1.251-2.56.647-3.216 1.943-3.216 1.356 0 4.35 1.569 8.041 5.164l1.862 1.214 1.223-.135c1.537-.17 3.535-.17 5.48-.001l1.508.13 2.123-1.402c3.23-2.134 4.378-3.49 5.641-4.241.898-.534 1.169-.634 1.842-.676.74-.047.814-.026 1.174.33.738.732 1.054 2.283 1.057 5.504.002 1.938-.044 2.113-.391 5.162l-.16 1.406.55.837c.694 1.055.892 2.291 1.33 3.607l.157 1.073 1.695-.043c1.684-.035 2.143-.008 2.339.14.204.153.26.424.345 1.67.06.875.052 1.577-.017 1.704-.136.253-.75.374-1.91.377-.455.001-1.076.039-1.867.084-3.272.098-3.186.098.652 1.264 1.339.407 2.502.885 2.609.99.174.173.171.278-.022 1.01-.312 1.176-.762 2.625-1.024 2.785-.18.11-.855-.074-3.313-.905-1.697-.573-3.196-1.042-3.33-1.04-.136 0-.766-.006-1.402.473-2.45 1.849-5.546 3.015-9.06 3.413-1.075.122-3.967.146-5.091.043z" opacity=".2"/>
    <path d="M30.184 45.934c-1.223-.113-3.659-.557-4.71-.859-2.247-.645-4.237-1.294-5.869-2.693-.324-.278-.718-.5-.884-.5-.165 0-1.73.482-3.477 1.072-1.748.59-3.263 1.073-3.368 1.073-.334 0-.575-.812-.98-2.075-.444-1.382-.474-1.638-.216-1.85.098-.081 1.342-.532 2.763-1.002 1.42-.47 2.603-.913 2.627-.984.05-.15-1.95-.295-4.067-.295-1.322 0-1.402-.015-1.717-.327-.305-.302-.323-.383-.249-1.09.045-.421.08-1.065.08-1.432 0-1.085.01-1.088 2.845-1.04l1.827.04.158-1.077a9.027 9.027 0 0 1 1.236-3.444c.338-.552.437-.834.394-1.136-.602-4.284-.688-5.934-.377-9.1.251-2.56.647-3.216 1.943-3.216 1.356 0 4.35 1.569 8.041 5.164l1.862 1.214 1.223-.135c1.537-.17 3.535-.17 5.48-.001l1.508.13 2.123-1.402c3.23-2.134 4.378-3.49 5.641-4.241.898-.534 1.169-.634 1.842-.676.74-.047.814-.026 1.174.33.738.732 1.054 2.283 1.057 5.504.002 1.938-.044 2.113-.391 5.162l-.16 1.406.55.837c.694 1.055.892 2.291 1.33 3.607l.157 1.073 1.695-.043c1.684-.035 2.143-.008 2.339.14.204.153.26.424.345 1.67.06.875.052 1.577-.017 1.704-.136.253-.75.374-1.91.377-.455.001-1.076.039-1.867.084-3.272.098-3.186.098.652 1.264 1.339.407 2.502.885 2.609.99.174.173.171.278-.022 1.01-.312 1.176-.762 2.626-1.024 2.785-.18.11-.855-.074-3.313-.905-1.697-.573-3.196-1.042-3.33-1.04-.136 0-.766-.006-1.402.473-2.45 1.849-5.546 3.015-9.06 3.413-1.075.122-3.967.146-5.091.043z" fill="#F9F5D7"/>
    <circle cx="23" cy="34" r="3" opacity=".2"/>
    <circle cx="23" cy="33" r="3" fill="#322F2E"/>
    <circle cx="40.999" cy="34" r="3" opacity=".2"/>
    <circle cx="40.999" cy="33" r="3" fill="#322F2E"/>
    <path d="M6.8 4C5.25 4 4 5.25 4 6.8v1.003c0-1.551 1.25-2.801 2.8-2.801h50.4c1.55 0 2.8 1.25 2.8 2.8V6.802C60 5.25 58.75 4 57.2 4H6.8z" opacity=".2" fill="#F9F5D7"/>
</svg>
