<svg xmlns="http://www.w3.org/2000/svg" width="64" height="64" version="1">
    <circle cx="32" cy="33" r="28" opacity=".2"/>
    <path d="M53.215 19.236C45.671 6.169 33.175 1.966 19.931 8.878c-.36.188-1.564-1.31-1.919-1.106a27.914 27.914 0 0 0-10.24 38.216 27.914 27.914 0 0 0 38.216 10.24c.4-.231-.432-1.882-.049-2.129 12.508-8.044 14.795-21.84 7.276-34.863z" fill="#F9BD2E"/>
    <path d="M56.228 18.012a27.914 27.914 0 0 0-38.216-10.24l27.976 48.456a27.914 27.914 0 0 0 10.24-38.216z" fill="#FD8019"/>
    <circle cx="32" cy="33" r="19" opacity=".2"/>
    <path d="M48.452 41.498c-5.246 9.086-16.864 12.2-25.95 6.954-.331-.191.076-1.304-.238-1.511-8.334-5.49-8.575-14.132-3.52-22.887 5.037-8.724 11.839-11.85 20.743-7.45.37.183 1.649-1.265 2.011-1.056 9.086 5.246 12.2 16.864 6.954 25.95z" fill="#8F3F71" fill-rule="evenodd"/>
    <path d="M31.744 14.625c-5.24.08-9.537 3.432-13 9.43-5.055 8.755-4.813 17.396 3.52 22.886.315.208-.093 1.32.238 1.51.146.085.298.149.445.229l18.551-32.131c-.32-.185-.65-.336-.977-.5-.42.32-.846.648-1.035.555-2.782-1.375-5.36-2.015-7.742-1.979z" opacity=".2" fill-rule="evenodd"/>
    <path d="M22.502 48.452c-9.086-5.246-12.2-16.864-6.954-25.95 5.246-9.086 16.864-12.2 25.95-6.954z" fill="#066678" fill-rule="evenodd"/>
    <path d="M32 4A28 28 0 0 0 4 32a28 28 0 0 0 .021.586A28 28 0 0 1 32 5a28 28 0 0 1 27.979 27.414A28 28 0 0 0 60 32 28 28 0 0 0 32 4z" opacity=".2" fill="#F9F5D7" fill-rule="evenodd"/>
    <path d="M32.51 13.006c-6.737-.175-13.355 3.25-16.961 9.496a18.88 18.88 0 0 0-2.526 9.76 18.901 18.901 0 0 1 2.526-8.76c5.161-8.94 16.486-12.08 25.504-7.182l.445-.771a18.914 18.914 0 0 0-8.988-2.543z" opacity=".2" fill="#F9F5D7" fill-rule="evenodd"/>
</svg>
