<svg xmlns="http://www.w3.org/2000/svg" width="64" height="64" version="1">
    <path d="M4 56v2c0 1.662 1.338 3 3 3h50c1.662 0 3-1.338 3-3v-2c0 1.662-1.338 3-3 3H7c-1.662 0-3-1.338-3-3z" opacity=".2"/>
    <rect width="4" height="4" x="36" y="-52" ry="0" transform="scale(1 -1)" fill="#A79984"/>
    <rect width="4" height="4" x="20" y="-52" ry="0" transform="scale(1 -1)" fill="#7F7061"/>
    <rect width="4" height="4" x="8" y="-52" ry="0" transform="scale(1 -1)" fill="#7F7061"/>
    <rect width="4" height="4" x="12" y="-52" ry="0" transform="scale(1 -1)" fill="#7F7061"/>
    <rect width="4" height="4" x="-48" y="20" ry="0" transform="scale(-1 1)" fill="#7F7061"/>
    <rect width="4" height="4" x="16" y="20" ry="0" fill="#504945"/>
    <rect width="4" height="4" x="-32" y="20" ry="0" transform="scale(-1 1)" fill="#A79984"/>
    <rect width="4" height="4" x="-28" y="20" ry="0" transform="scale(-1 1)" fill="#7F7061"/>
    <rect width="4" height="4" x="-8" y="20" ry="0" transform="scale(-1 1)" fill="#504945"/>
    <rect width="4" height="4" x="-32" y="16" ry="0" transform="scale(-1 1)" fill="#7F7061"/>
    <rect width="4" height="4" x="8" y="16" ry="0" fill="#504945"/>
    <rect width="4" height="4" x="24" y="16" ry="0" fill="#7F7061"/>
    <rect width="4" height="4" x="-8" y="16" ry="0" transform="scale(-1 1)" fill="#7CB668"/>
    <rect width="4" height="4" x="4" y="12" ry="0" fill="#7CB668"/>
    <rect width="4" height="4" x="-28" y="12" ry="0" transform="scale(-1 1)" fill="#504945"/>
    <rect width="4" height="4" x="28" y="12" ry="0" fill="#7CB668"/>
    <rect width="4" height="4" x="4" y="8" ry="0" fill="#7CB668"/>
    <rect width="4" height="4" x="8" y="8" ry="0" fill="#7CB668"/>
    <rect width="4" height="4" x="12" y="8" ry="0" fill="#7CB668"/>
    <rect width="4" height="4" x="16" y="8" ry="0" fill="#7CB668"/>
    <rect width="4" height="4" x="-44" y="12" ry="0" transform="scale(-1 1)" fill="#7CB668"/>
    <rect width="4" height="4" x="12" y="12" ry="0" fill="#7CB668"/>
    <rect width="4" height="4" x="40" y="16" ry="0" fill="#7CB668"/>
    <rect width="4" height="4" x="8" y="12" ry="0" fill="#7CB668"/>
    <rect width="4" height="4" x="12" y="4" ry="0" fill="#7CB668"/>
    <rect width="4" height="4" x="-20" y="4" ry="0" transform="scale(-1 1)" fill="#7CB668"/>
    <rect width="4" height="4" x="-12" y="4" ry="0" transform="scale(-1 1)" fill="#7CB668"/>
    <path d="M8 4H7S4 4 4 7v1h4z" fill="#7CB668"/>
    <rect width="4" height="4" x="-36" y="24" ry="0" transform="scale(-1 1)" fill="#A79984"/>
    <rect width="4" height="4" x="20" y="24" ry="0" fill="#7F7061"/>
    <rect width="4" height="4" x="8" y="24" ry="0" fill="#7F7061"/>
    <rect width="4" height="4" x="12" y="24" ry="0" fill="#7F7061"/>
    <rect width="4" height="4" x="-36" y="20" ry="0" transform="scale(-1 1)" fill="#A79984"/>
    <rect width="4" height="4" x="20" y="20" ry="0" fill="#7F7061"/>
    <rect width="4" height="4" x="8" y="20" ry="0" fill="#7F7061"/>
    <rect width="4" height="4" x="12" y="20" ry="0" fill="#504945"/>
    <rect width="4" height="4" x="20" y="16" ry="0" fill="#504945"/>
    <rect width="4" height="4" x="-36" y="16" ry="0" transform="scale(-1 1)" fill="#665C54"/>
    <rect width="4" height="4" x="32" y="12" ry="0" fill="#7F7061"/>
    <rect width="4" height="4" x="-24" y="8" ry="0" transform="scale(-1 1)" fill="#7CB668"/>
    <rect width="4" height="4" x="-16" y="16" ry="0" transform="scale(-1 1)" fill="#7CB668"/>
    <rect width="4" height="4" x="20" y="12" ry="0" fill="#7CB668"/>
    <path d="M24 4h-4v4h4z" fill="#7CB668"/>
    <rect width="4" height="4" x="4" y="48" ry="0" fill="#7F7061"/>
    <rect width="4" height="4" x="24" y="48" ry="0" fill="#A79984"/>
    <rect width="4" height="4" x="-20" y="48" ry="0" transform="scale(-1 1)" fill="#7F7061"/>
    <rect width="4" height="4" x="44" y="48" ry="0" fill="#504945"/>
    <rect width="4" height="4" x="4" y="-28" ry="0" transform="scale(1 -1)" fill="#7F7061"/>
    <rect width="4" height="4" x="24" y="-28" ry="0" transform="scale(1 -1)" fill="#A79984"/>
    <rect width="4" height="4" x="28" y="-28" ry="0" transform="scale(1 -1)" fill="#7F7061"/>
    <rect width="4" height="4" x="-20" y="-28" ry="0" transform="scale(-1)" fill="#7F7061"/>
    <rect width="4" height="4" x="44" y="-28" ry="0" transform="scale(1 -1)" fill="#504945"/>
    <path d="M4 57v-1h4v4H7s-3 0-3-3z" fill="#7F7061"/>
    <rect width="4" height="4" x="24" y="56" ry="0" fill="#665C54"/>
    <rect width="4" height="4" x="-48" y="56" ry="0" transform="scale(-1 1)" fill="#7F7061"/>
    <rect width="4" height="4" x="-20" y="56" ry="0" transform="scale(-1 1)" fill="#7F7061"/>
    <rect width="4" height="4" x="-16" y="52" ry="0" transform="scale(-1 1)" fill="#7F7061"/>
    <rect width="4" height="4" x="-12" y="52" ry="0" transform="scale(-1 1)" fill="#504945"/>
    <rect width="4" height="4" x="-24" y="52" ry="0" transform="scale(-1 1)" fill="#A79984"/>
    <rect width="4" height="4" x="-40" y="52" ry="0" transform="scale(-1 1)" fill="#7F7061"/>
    <rect width="4" height="4" x="20" y="56" ry="0" fill="#A79984"/>
    <rect width="4" height="4" x="8" y="56" ry="0" fill="#7F7061"/>
    <rect width="4" height="4" x="12" y="56" ry="0" fill="#504945"/>
    <rect width="4" height="4" x="-28" y="52" ry="0" transform="scale(-1 1)" fill="#7F7061"/>
    <rect width="4" height="4" x="-8" y="52" ry="0" transform="scale(-1 1)" fill="#A79984"/>
    <rect width="4" height="4" x="-20" y="52" ry="0" transform="scale(-1 1)" fill="#7F7061"/>
    <rect width="4" height="4" x="44" y="52" ry="0" fill="#504945"/>
    <rect width="4" height="4" x="-52" y="-52" ry="0" transform="scale(-1)" fill="#A79984"/>
    <rect width="4" height="4" x="-44" y="-52" ry="0" transform="scale(-1)" fill="#7F7061"/>
    <rect width="4" height="4" x="28" y="-52" ry="0" transform="scale(1 -1)" fill="#7F7061"/>
    <rect width="4" height="4" x="-40" y="20" ry="0" transform="scale(-1 1)" fill="#7F7061"/>
    <rect width="4" height="4" x="52" y="20" ry="0" fill="#504945"/>
    <rect width="4" height="4" x="56" y="20" ry="0" fill="#A79984"/>
    <rect width="4" height="4" x="36" y="16" ry="0" fill="#7CB668"/>
    <rect width="4" height="4" x="-56" y="16" ry="0" transform="scale(-1 1)" fill="#7F7061"/>
    <rect width="4" height="4" x="52" y="12" ry="0" fill="#504945"/>
    <rect width="4" height="4" x="28" y="8" ry="0" fill="#7CB668"/>
    <rect width="4" height="4" x="32" y="8" ry="0" fill="#7CB668"/>
    <rect width="4" height="4" x="36" y="8" ry="0" fill="#7CB668"/>
    <rect width="4" height="4" x="-60" y="8" ry="0" transform="scale(-1 1)" fill="#7CB668"/>
    <rect width="4" height="4" x="-56" y="8" ry="0" transform="scale(-1 1)" fill="#7CB668"/>
    <rect width="4" height="4" x="-60" y="12" ry="0" transform="scale(-1 1)" fill="#7CB668"/>
    <rect width="4" height="4" x="-40" y="12" ry="0" transform="scale(-1 1)" fill="#7CB668"/>
    <rect width="4" height="4" x="-60" y="16" ry="0" transform="scale(-1 1)" fill="#7CB668"/>
    <rect width="4" height="4" x="36" y="4" ry="0" fill="#7CB668"/>
    <rect width="4" height="4" x="-52" y="4" ry="0" transform="scale(-1 1)" fill="#7CB668"/>
    <rect width="4" height="4" x="-56" y="4" ry="0" transform="scale(-1 1)" fill="#7CB668"/>
    <rect width="4" height="4" x="-36" y="4" ry="0" transform="scale(-1 1)" fill="#7CB668"/>
    <path d="M32 4h-4v4h4z" fill="#7CB668"/>
    <rect width="4" height="4" x="-52" y="24" ry="0" transform="scale(-1 1)" fill="#A79984"/>
    <rect width="4" height="4" x="-44" y="24" ry="0" transform="scale(-1 1)" fill="#7F7061"/>
    <rect width="4" height="4" x="-52" y="20" ry="0" transform="scale(-1 1)" fill="#A79984"/>
    <rect width="4" height="4" x="-44" y="20" ry="0" transform="scale(-1 1)" fill="#7F7061"/>
    <rect width="4" height="4" x="-20" y="16" ry="0" transform="scale(-1 1)" fill="#504945"/>
    <rect width="4" height="4" x="-48" y="16" ry="0" transform="scale(-1 1)" fill="#A79984"/>
    <rect width="4" height="4" x="-52" y="8" ry="0" transform="scale(-1 1)" fill="#7CB668"/>
    <rect width="4" height="4" x="-48" y="8" ry="0" transform="scale(-1 1)" fill="#7CB668"/>
    <rect width="4" height="4" x="-44" y="8" ry="0" transform="scale(-1 1)" fill="#7CB668"/>
    <rect width="4" height="4" x="-28" y="8" ry="0" transform="scale(-1 1)" fill="#7CB668"/>
    <rect width="4" height="4" x="48" y="12" ry="0" fill="#7CB668"/>
    <rect width="4" height="4" x="44" y="12" ry="0" fill="#7CB668"/>
    <rect width="4" height="4" x="48" y="16" ry="0" fill="#7CB668"/>
    <rect width="4" height="4" x="-20" y="12" ry="0" transform="scale(-1 1)" fill="#7CB668"/>
    <rect width="4" height="4" x="24" y="4" ry="0" fill="#7CB668"/>
    <path d="M60 7c0-3-3-3-3-3h-1v4h4z" fill="#7CB668"/>
    <rect width="4" height="4" x="44" y="4" ry="0" fill="#7CB668"/>
    <rect width="4" height="4" x="-44" y="4" ry="0" transform="scale(-1 1)" fill="#7CB668"/>
    <rect width="4" height="4" x="-60" y="48" ry="0" transform="scale(-1 1)" fill="#665C54"/>
    <rect width="4" height="4" x="-56" y="48" ry="0" transform="scale(-1 1)" fill="#7F7061"/>
    <rect width="4" height="4" x="-36" y="48" ry="0" transform="scale(-1 1)" fill="#504945"/>
    <rect width="4" height="4" x="-60" y="-28" ry="0" transform="scale(-1)" fill="#7F7061"/>
    <rect width="4" height="4" x="-56" y="-28" ry="0" transform="scale(-1)" fill="#7F7061"/>
    <rect width="4" height="4" x="36" y="-28" ry="0" transform="scale(1 -1)" fill="#504945"/>
    <rect width="4" height="4" x="32" y="56" ry="0" fill="#7F7061"/>
    <rect width="4" height="4" x="-56" y="56" ry="0" transform="scale(-1 1)" fill="#7F7061"/>
    <rect width="4" height="4" x="-52" y="56" ry="0" transform="scale(-1 1)" fill="#504945"/>
    <rect width="4" height="4" x="-32" y="52" ry="0" transform="scale(-1 1)" fill="#7F7061"/>
    <rect width="4" height="4" x="40" y="52" ry="0" fill="#A79984"/>
    <rect width="4" height="4" x="48" y="52" ry="0" fill="#7F7061"/>
    <path d="M60 57v-1h-4v4h1s3 0 3-3z" fill="#A79984"/>
    <rect width="4" height="4" x="-44" y="56" ry="0" transform="scale(-1 1)" fill="#A79984"/>
    <rect width="4" height="4" x="28" y="56" ry="0" fill="#504945"/>
    <rect width="4" height="4" x="-60" y="52" ry="0" transform="scale(-1 1)" fill="#7F7061"/>
    <rect width="4" height="4" x="-56" y="52" ry="0" transform="scale(-1 1)" fill="#7F7061"/>
    <rect width="4" height="4" x="-36" y="52" ry="0" transform="scale(-1 1)" fill="#504945"/>
    <rect width="4" height="4" x="-40" y="56" ry="0" transform="scale(-1 1)" fill="#504945"/>
    <rect width="4" height="4" x="-36" y="40" ry="0" transform="scale(-1 1)" fill="#A79984"/>
    <rect width="4" height="4" x="20" y="40" ry="0" fill="#7F7061"/>
    <rect width="4" height="4" x="8" y="40" ry="0" fill="#7F7061"/>
    <rect width="4" height="4" x="12" y="40" ry="0" fill="#7F7061"/>
    <rect width="4" height="4" x="16" y="44" ry="0" fill="#504945"/>
    <rect width="4" height="4" x="-8" y="44" ry="0" transform="scale(-1 1)" fill="#504945"/>
    <rect width="4" height="4" x="4" y="-44" ry="0" transform="scale(1 -1)" fill="#7F7061"/>
    <rect width="4" height="4" x="24" y="-44" ry="0" transform="scale(1 -1)" fill="#A79984"/>
    <rect width="4" height="4" x="28" y="-44" ry="0" transform="scale(1 -1)" fill="#7F7061"/>
    <rect width="4" height="4" x="-20" y="-44" ry="0" transform="scale(-1)" fill="#7F7061"/>
    <rect width="4" height="4" x="24" y="44" ry="0" fill="#504945"/>
    <rect width="4" height="4" x="-16" y="44" ry="0" transform="scale(-1 1)" fill="#A79984"/>
    <rect width="4" height="4" x="20" y="44" ry="0" fill="#665C54"/>
    <rect width="4" height="4" x="8" y="44" ry="0" fill="#7F7061"/>
    <rect width="4" height="4" x="-40" y="44" ry="0" transform="scale(-1 1)" fill="#504945"/>
    <rect width="4" height="4" x="32" y="44" ry="0" fill="#7F7061"/>
    <rect width="4" height="4" x="36" y="-44" ry="0" transform="scale(1 -1)" fill="#504945"/>
    <rect width="4" height="4" x="-32" y="44" ry="0" transform="scale(-1 1)" fill="#A79984"/>
    <rect width="4" height="4" x="52" y="36" ry="0" fill="#A79984"/>
    <rect width="4" height="4" x="-36" y="36" ry="0" transform="scale(-1 1)" fill="#504945"/>
    <rect width="4" height="4" x="36" y="36" ry="0" fill="#7F7061"/>
    <rect width="4" height="4" x="-52" y="36" ry="0" transform="scale(-1 1)" fill="#504945"/>
    <rect width="4" height="4" x="44" y="36" ry="0" fill="#7F7061"/>
    <rect width="4" height="4" x="-60" y="36" ry="0" transform="scale(-1 1)" fill="#504945"/>
    <rect width="4" height="4" x="-44" y="36" ry="0" transform="scale(-1 1)" fill="#A79984"/>
    <rect width="4" height="4" x="4" y="36" ry="0" fill="#504945"/>
    <rect width="4" height="4" x="8" y="36" ry="0" fill="#665C54"/>
    <rect width="4" height="4" x="28" y="36" ry="0" fill="#504945"/>
    <rect width="4" height="4" x="16" y="36" ry="0" fill="#7F7061"/>
    <rect width="4" height="4" x="12" y="36" ry="0" fill="#504945"/>
    <rect width="4" height="4" x="-24" y="36" ry="0" transform="scale(-1 1)" fill="#504945"/>
    <rect width="4" height="4" x="-28" y="36" ry="0" transform="scale(-1 1)" fill="#7F7061"/>
    <rect width="4" height="4" x="-52" y="40" ry="0" transform="scale(-1 1)" fill="#A79984"/>
    <rect width="4" height="4" x="56" y="44" ry="0" fill="#A79984"/>
    <rect width="4" height="4" x="40" y="-44" ry="0" transform="scale(1 -1)" fill="#A79984"/>
    <rect width="4" height="4" x="44" y="-44" ry="0" transform="scale(1 -1)" fill="#7F7061"/>
    <rect width="4" height="4" x="40" y="44" ry="0" fill="#504945"/>
    <rect width="4" height="4" x="-56" y="44" ry="0" transform="scale(-1 1)" fill="#504945"/>
    <rect width="4" height="4" x="-60" y="40" ry="0" transform="scale(-1 1)" fill="#7F7061"/>
    <rect width="4" height="4" x="48" y="44" ry="0" fill="#7F7061"/>
    <rect width="4" height="4" x="52" y="-44" ry="0" transform="scale(1 -1)" fill="#504945"/>
    <rect width="4" height="4" x="-48" y="44" ry="0" transform="scale(-1 1)" fill="#A79984"/>
    <rect width="4" height="4" x="36" y="32" ry="0" fill="#7F7061"/>
    <rect width="4" height="4" x="24" y="32" ry="0" fill="#7F7061"/>
    <rect width="4" height="4" x="28" y="32" ry="0" fill="#7F7061"/>
    <rect width="4" height="4" x="20" y="-36" ry="0" transform="scale(1 -1)" fill="#7F7061"/>
    <rect width="4" height="4" x="40" y="-36" ry="0" transform="scale(1 -1)" fill="#A79984"/>
    <rect width="4" height="4" x="44" y="-36" ry="0" transform="scale(1 -1)" fill="#7F7061"/>
    <rect width="4" height="4" x="-36" y="-36" ry="0" transform="scale(-1)" fill="#7F7061"/>
    <rect width="4" height="4" x="20" y="28" ry="0" fill="#504945"/>
    <rect width="4" height="4" x="24" y="28" ry="0" fill="#665C54"/>
    <rect width="4" height="4" x="44" y="28" ry="0" fill="#504945"/>
    <rect width="4" height="4" x="32" y="28" ry="0" fill="#7F7061"/>
    <rect width="4" height="4" x="28" y="28" ry="0" fill="#504945"/>
    <rect width="4" height="4" x="-40" y="28" ry="0" transform="scale(-1 1)" fill="#504945"/>
    <rect width="4" height="4" x="-44" y="28" ry="0" transform="scale(-1 1)" fill="#7F7061"/>
    <rect width="4" height="4" x="-52" y="-36" ry="0" transform="scale(-1)" fill="#A79984"/>
    <rect width="4" height="4" x="-60" y="32" ry="0" transform="scale(-1 1)" fill="#665C54"/>
    <rect width="4" height="4" x="-56" y="32" ry="0" transform="scale(-1 1)" fill="#7F7061"/>
    <rect width="4" height="4" x="56" y="28" ry="0" fill="#A79984"/>
    <rect width="4" height="4" x="-56" y="28" ry="0" transform="scale(-1 1)" fill="#504945"/>
    <rect width="4" height="4" x="48" y="28" ry="0" fill="#7F7061"/>
    <rect width="4" height="4" x="-12" y="28" ry="0" transform="scale(-1 1)" fill="#A79984"/>
    <rect width="4" height="4" x="-20" y="-32" ry="0" transform="scale(-1)" fill="#665C54"/>
    <rect width="4" height="4" x="-16" y="-32" ry="0" transform="scale(-1)" fill="#7F7061"/>
    <rect width="4" height="4" x="16" y="-36" ry="0" transform="scale(1 -1)" fill="#A79984"/>
    <rect width="4" height="4" x="-16" y="-36" ry="0" transform="scale(-1)" fill="#504945"/>
    <rect width="4" height="4" x="8" y="-36" ry="0" transform="scale(1 -1)" fill="#7F7061"/>
    <rect width="4" height="4" x="4" y="28" ry="0" fill="#7F7061"/>
    <rect width="4" height="4" x="-8" y="32" ry="0" transform="scale(-1 1)" fill="#A79984"/>
    <path d="M7 4C5.338 4 4 5.338 4 7v1c0-1.662 1.338-3 3-3h50c1.662 0 3 1.338 3 3V7c0-1.662-1.338-3-3-3H7z" opacity=".1" fill="#F9F5D7"/>
</svg>
