<svg xmlns="http://www.w3.org/2000/svg" width="64" height="64">
    <path d="M48.753 10.011c-2.555.29-4.83 1.597-7.269 2.629-1.543.655-2.92 1.788-3.484 3.366-.658-.63-.972-1.34-1.684-1.863-3.907-2.863-8.543-4.425-13.355-4.1C10.87 9.976 4.169 22.672 4 31.198c.072 9.826 3.282 16.028 5.398 21.108a6.001 6.001 0 0 0 7.914 3.203c3.223-1.278 7.806-2.237 8.688-5.51.414.405.167.326.613.71 3.564 3.072 8.3 5.288 13.695 5.288 5.012 0 9.592-2.253 13.285-5.87 3.694-3.617 6.451-8.952 6.406-15.184-.07-9.657-3-16.165-5.425-20.948a5.999 5.999 0 0 0-.305-.711 6 6 0 0 0-5.516-3.273z" opacity=".2"/>
    <path d="M48.753 9.011c-2.555.29-4.83 1.597-7.269 2.629-1.543.655-2.92 1.788-3.484 3.366-.658-.63-.972-1.34-1.684-1.863-3.907-2.863-8.543-4.425-13.355-4.1C10.87 8.976 4.169 21.672 4 30.198c.072 9.826 3.282 16.028 5.398 21.108a6.001 6.001 0 0 0 7.914 3.203c3.223-1.278 7.806-2.237 8.688-5.51.414.405.167.326.613.71 3.564 3.072 8.3 5.288 13.695 5.288 5.012 0 9.592-2.253 13.285-5.87 3.694-3.617 6.451-8.952 6.406-15.184-.07-9.657-3-16.165-5.425-20.948a5.999 5.999 0 0 0-.305-.711 6 6 0 0 0-5.516-3.273z" fill="#066678"/>
    <path d="M23.358 16.027c-6.06.408-13.424 6.025-13.358 15.125.064 8.636 2.672 13.408 4.938 18.848l4.731-2.04c-2.7-4.116-6.726-12.455-6.494-17.963.154-3.629 1.42-6.171 3.617-8.22 5.296-4.937 12.596-3.777 16.885 1.49 2.437 3.103 2.855 7.663.62 10.993-3.79 5.65-12.399 2.903-12.991-3.643-.28-3.11 2.706-5.503 5.45-5.53-2.814-1.634-7.169 1.38-6.933 5.074.695 10.89 12.548 11.102 16.204 4.894 6.526-11.086-4.555-19.576-12.663-19.03z" opacity=".2"/>
    <path d="M48.93 16l-5.106 2.162c3.075 5.978 6.644 10.56 6.65 17.944a10.869 10.869 0 0 1-3.616 8.067c-2.313 2.075-5.328 3.3-8.923 2.795-3.761-.528-6.347-2.27-7.961-4.255-2.535-3.383-2.955-7.704-.908-10.868 1.168-1.804 3.761-3.338 6.33-3.113 4.531.394 7.068 2.934 7.028 6.774-.04 3.908-2.777 5.409-5.849 5.142 2.874 1.283 7.215-.396 7.198-4.702-.023-5.802-3.89-8.595-8.062-8.618-4.311-.025-6.696 1.598-8.078 3.798-1.382 2.2-1.755 5.1-1.6 7.472.158 2.407 1.883 5.318 4.495 7.567 2.608 2.25 6.111 3.835 9.78 3.835 5.908 0 13.755-6.08 13.691-15.016-.066-8.938-2.64-14.244-5.072-18.98z" opacity=".2"/>
    <path d="M23.358 15.027c-6.06.408-13.424 6.025-13.358 15.125.064 8.636 2.672 13.408 4.938 18.848l4.731-2.04c-2.7-4.116-6.726-12.455-6.494-17.963.154-3.629 1.42-6.171 3.617-8.22 5.296-4.937 12.596-3.777 16.885 1.49 2.437 3.103 2.855 7.663.62 10.993-3.79 5.65-12.399 2.903-12.991-3.643-.28-3.11 2.706-5.503 5.45-5.53-2.814-1.634-7.169 1.38-6.933 5.075.695 10.889 12.548 11.101 16.204 4.893 6.526-11.086-4.555-19.576-12.663-19.03z" fill="#F9F5D7"/>
    <path d="M48.93 15l-5.106 2.162c3.075 5.979 6.644 10.56 6.65 17.944a10.869 10.869 0 0 1-3.616 8.067c-2.313 2.075-5.328 3.3-8.923 2.795-3.761-.528-6.347-2.27-7.961-4.255-2.535-3.383-2.955-7.704-.908-10.868 1.168-1.804 3.761-3.338 6.33-3.113 4.531.394 7.068 2.934 7.028 6.774-.04 3.908-2.777 5.409-5.849 5.142 2.874 1.283 7.215-.396 7.198-4.702-.023-5.802-3.89-8.595-8.062-8.618-4.311-.025-6.696 1.598-8.078 3.798-1.382 2.2-1.755 5.1-1.6 7.472.158 2.407 1.883 5.318 4.495 7.567 2.608 2.25 6.111 3.835 9.78 3.835 5.908 0 13.755-6.08 13.691-15.016-.066-8.938-2.64-14.244-5.072-18.98z" fill="#066678"/>
    <path d="M35.374 25.599a9.812 9.812 0 0 1 .372 3.25l2.063.617c.255-1.372.246-2.68.022-3.91z" fill="#F9F5D7"/>
    <path d="M24.756 9.008a18.646 18.646 0 0 0-1.795.035C10.87 8.976 4.169 21.671 4 30.197c.002.241.014.47.02.707.31-8.52 6.987-20.927 18.94-20.861 4.813-.324 9.45 1.237 13.356 4.1.713.521 1.027 1.233 1.684 1.863.564-1.578 1.942-2.71 3.484-3.365 2.44-1.032 4.714-2.34 7.27-2.63a6 6 0 0 1 5.82 3.983c2.387 4.707 5.255 11.092 5.414 20.496.004-.182.013-.363.012-.547-.071-9.657-3-16.166-5.426-20.949a6.001 6.001 0 0 0-.304-.71 6 6 0 0 0-5.516-3.272c-2.556.289-4.83 1.597-7.27 2.629-1.542.655-2.92 1.787-3.484 3.365-.657-.63-.971-1.342-1.684-1.863-3.418-2.506-7.396-4.014-11.56-4.135z" opacity=".1" fill="#F9F5D7"/>
</svg>
