<svg xmlns="http://www.w3.org/2000/svg" width="64" height="64" version="1">
    <path d="M2 56.2v2C2 59.75 3.25 61 4.803 61h50.4c1.55 0 2.8-1.25 2.8-2.8v-2c0 1.55-1.25 2.8-2.8 2.8h-50.4c-1.55 0-2.8-1.25-2.8-2.8z" opacity=".2"/>
    <rect width="56" height="56" x="-60" y="-58" rx="2.8" ry="2.8" transform="matrix(0 -1 -1 0 0 0)" fill="#CB241D"/>
    <path d="M12.669 13A2.663 2.663 0 0 0 10 15.668v34.664A2.663 2.663 0 0 0 12.669 53h34.664A2.662 2.662 0 0 0 50 50.332V15.668A2.663 2.663 0 0 0 47.333 13H12.669zM14 19h10l6 10 6-10h10v28h-8V29l-6 12h-4l-6-12v18h-8V19z" opacity=".2"/>
    <path d="M12.669 12A2.663 2.663 0 0 0 10 14.668v34.664A2.663 2.663 0 0 0 12.669 52h34.664A2.662 2.662 0 0 0 50 49.332V14.668A2.663 2.663 0 0 0 47.333 12H12.669zM14 18h10l6 10 6-10h10v28h-8V28l-6 12h-4l-6-12v18h-8V18z" fill="#F9F5D7"/>
    <path d="M4.8 4C3.25 4 2 5.25 2 6.8v1C2 6.25 3.25 5 4.8 5h50.401c1.55 0 2.801 1.25 2.801 2.8v-1c0-1.55-1.25-2.8-2.8-2.8H4.8z" opacity=".2" fill="#F9F5D7"/>
    <path d="M61.957 45.848A16 16 0 0 1 46 61a16 16 0 0 1-15.958-14.848A16 16 0 0 0 30 47a16 16 0 0 0 16 16 16 16 0 0 0 16-16 16 16 0 0 0-.043-1.152z" opacity=".2"/>
    <circle cx="-24.232" cy="33.744" r="12" fill="#F9BD2E" transform="translate(78.308 1.008) scale(1.33333)"/>
    <path d="M34 40v4h4v8h4v-8h4v-4zM46 40l4 12h4l4-12h-4l-2 7-2-7z" fill="#F9F5D7"/>
</svg>
