<svg xmlns="http://www.w3.org/2000/svg" width="64" height="64" version="1">
    <path d="M59.958 31.828A28 28 0 0 1 32 59 28 28 0 0 1 4.044 32.172 28 28 0 0 0 4 33a28 28 0 0 0 28 28 28 28 0 0 0 28-28 28 28 0 0 0-.042-1.172z" opacity=".2"/>
    <circle cx="32" cy="32" r="28" fill="#8F3F71"/>
    <path d="M60 32c0 15.464-12.536 28-28 28V4c15.464 0 28 12.536 28 28z" fill="#FECE4F"/>
    <circle cx="32" cy="33" r="20" opacity=".2"/>
    <circle cx="32" cy="32" r="20" fill="#F9F5D7"/>
    <path d="M26 20v14.102A5 5 0 0 0 25 34a5 5 0 0 0-5 5 5 5 0 0 0 5 5 5 5 0 0 0 5-5V24h8v6.102A5 5 0 0 0 37 30a5 5 0 0 0-5 5 5 5 0 0 0 5 5 5 5 0 0 0 5-5V20H26z" opacity=".8"/>
    <path d="M31.998 4A28 28 0 0 0 4 32a28 28 0 0 0 .018.492A28 28 0 0 1 31.998 5H32a28 28 0 0 1 27.973 27.5 28 28 0 0 0 .025-.5A28 28 0 0 0 32 4h-.002z" opacity=".2" fill="#F9F5D7"/>
</svg>
