<svg xmlns="http://www.w3.org/2000/svg" width="64" height="64" version="1">
    <path d="M4 56.2v2C4 59.75 5.25 61 6.8 61h50.4c1.55 0 2.8-1.25 2.8-2.8v-2c0 1.55-1.25 2.8-2.8 2.8H6.8C5.25 59 4 57.75 4 56.2z" opacity=".2"/>
    <rect width="56" height="56" x="4" y="4" rx="2.8" ry="2.8" fill="#066678"/>
    <path d="M16.05 15c-1.564-.032-2.298 1.05-1.976 2.915.104.601.63 1.46 1.766 2.884 1.262 1.581 1.77 2.445 2.32 3.94.867 2.36 1.268 3.15 1.973 3.888.547.572.547.574.18 1.742-.57 1.81-.689 5.441-.231 7.148.685 2.555 1.528 3.715 2.703 3.715.84 0 1.527-.702 1.773-1.809.086-.383.245-.932.356-1.218.19-.495.242-.457.988.761.433.706 1.257 1.757 1.832 2.336 1.328 1.337 3.15 2.844 3.281 2.715.056-.054-.476-.844-1.18-1.758-.703-.914-2.03-3.038-2.949-4.719-1.071-1.96-1.799-3.057-2.027-3.058-.74-.005-1.432 1.16-1.832 3.094-.461 2.227-1.273 1.854-1.933-.891-.38-1.582-.183-3.712.527-5.707.323-.907.586-1.747.586-1.863 0-.116-.515-1.087-1.145-2.16-.63-1.074-1.37-2.594-1.644-3.38-.665-1.908-.98-2.464-2.316-4.086-1.376-1.67-1.506-2.44-.41-2.433.85.005 2.224.579 3.605 1.507.874.589 1.17.668 2.574.668 1.763 0 2.142.145 4.586 1.754 2.49 1.64 4.345 3.163 5.63 4.625 1.14 1.299 1.763 2.428 5.12 9.312 1.289 2.643 2.432 3.919 4.008 4.465 2.434.844 3.263 1.226 4.336 1.996l1.133.813-.762.148c-.42.08-1.337.213-2.035.293-1.455.168-2.407.772-2.407 1.527 0 .852 2.903 3.291 5.813 4.883 1.398.765 2.743 1.519 2.988 1.676.652.418.828.368.66-.184-.352-1.154-1.545-2.28-4.86-4.59-1.943-1.355-1.963-1.304.634-1.562 1.85-.182 2.784-.498 2.784-.944 0-.204-.94-1.288-2.09-2.406-1.8-1.752-2.408-2.188-4.39-3.154-2.7-1.312-3.684-2.354-4.306-4.566-.928-3.298-3.424-7.174-6.742-10.46-3.424-3.391-6.694-5.268-9.69-5.562-1.218-.12-1.848-.305-2.478-.73-1.066-.723-3.543-1.538-4.753-1.563zm5.926 6.005c-.245-.016-.459.017-.605.117-.547.374-.482.83.16 1.113.302.133.73.603.953 1.043.75 1.48 1.9.49 1.387-1.195-.162-.531-1.159-1.031-1.895-1.078z" opacity=".2"/>
    <path d="M16.05 14c-1.564-.033-2.298 1.05-1.976 2.915.104.6.63 1.46 1.766 2.882 1.262 1.582 1.77 2.446 2.32 3.942.867 2.358 1.268 3.15 1.972 3.885.548.574.548.576.18 1.744-.57 1.81-.688 5.44-.23 7.148.684 2.554 1.528 3.714 2.704 3.714.838 0 1.526-.702 1.772-1.808.086-.384.246-.932.356-1.218.19-.496.242-.458.988.76a15.438 15.438 0 0 0 1.832 2.336c1.328 1.338 3.15 2.844 3.282 2.716.056-.054-.476-.844-1.18-1.758s-2.03-3.038-2.95-4.718c-1.072-1.962-1.798-3.058-2.026-3.06-.742-.004-1.432 1.16-1.832 3.094-.462 2.228-1.274 1.854-1.934-.89-.38-1.582-.182-3.712.528-5.708.322-.906.586-1.746.586-1.862 0-.116-.516-1.088-1.146-2.16-.63-1.073-1.37-2.593-1.644-3.38-.665-1.907-.981-2.463-2.317-4.085-1.375-1.67-1.506-2.44-.41-2.434.851.006 2.225.58 3.605 1.508.876.588 1.172.668 2.576.668 1.762 0 2.14.144 4.586 1.754 2.488 1.64 4.344 3.164 5.628 4.626 1.14 1.298 1.764 2.427 5.122 9.311 1.287 2.642 2.43 3.918 4.005 4.464 2.436.844 3.264 1.226 4.336 1.996l1.134.814-.762.148c-.42.08-1.338.212-2.036.292-1.454.168-2.406.772-2.406 1.528 0 .852 2.902 3.29 5.812 4.882 1.4.766 2.744 1.52 2.99 1.676.652.42.828.368.66-.182-.354-1.156-1.546-2.28-4.86-4.59-1.944-1.356-1.964-1.306.632-1.564 1.852-.184 2.786-.5 2.786-.944 0-.204-.94-1.288-2.09-2.406-1.8-1.754-2.408-2.188-4.39-3.154-2.7-1.312-3.684-2.354-4.306-4.566-.927-3.3-3.423-7.173-6.741-10.46-3.424-3.392-6.694-5.268-9.69-5.562-1.218-.12-1.848-.305-2.478-.73-1.067-.723-3.544-1.538-4.753-1.563zm5.926 6.005c-.244-.016-.458.016-.604.118-.548.374-.482.83.16 1.112.302.134.73.604.952 1.044.75 1.478 1.9.488 1.388-1.196-.162-.53-1.16-1.03-1.896-1.078z" fill="#F9F5D7"/>
    <path d="M6.8 4C5.25 4 4 5.25 4 6.8v1.003c0-1.551 1.25-2.801 2.8-2.801h50.4c1.55 0 2.8 1.25 2.8 2.8V6.802C60 5.25 58.75 4 57.2 4H6.8z" opacity=".1" fill="#F9F5D7"/>
</svg>
