<svg xmlns="http://www.w3.org/2000/svg" width="64" height="64" version="1">
    <path d="M17 6.002a8 8 0 0 0-8 8v24a8 8 0 0 0 8 8h6a8 8 0 0 0 .484-.024l8.118 10.825a8 8 0 0 0 12.796 0l9-12A8 8 0 0 0 49 32.267v-2.246a8 8 0 0 0 0-.004c.017-8.215-3.689-15.93-10.523-19.39-3.635-1.84-6.977-2.319-10.04-2.485A8 8 0 0 0 23 6.002z" opacity=".2"/>
    <path d="M17 5.002a8 8 0 0 0-8 8v24a8 8 0 0 0 8 8h6a8 8 0 0 0 .484-.024l8.118 10.825a8 8 0 0 0 12.796 0l9-12A8 8 0 0 0 49 31.267v-2.246a8 8 0 0 0 0-.004c.017-8.215-3.689-15.93-10.523-19.39-3.635-1.84-6.977-2.319-10.04-2.485A8 8 0 0 0 23 5.002z" fill="#CB241D"/>
    <path d="M17 14.002v24h6v-16c3.977.002 7.358.204 9.152 1.113 1.795.909 2.86 2.11 2.848 6.879l3 .008h-3v10h-6l9 12 9-12h-6V30.01v-.008c.013-6.064-2.424-10.359-6.137-12.238-3.714-1.881-7.848-1.76-11.863-1.762v-2z" opacity=".2"/>
    <path d="M17 13.002v24h6v-16c3.977.002 7.358.204 9.152 1.113 1.795.909 2.86 2.11 2.848 6.879l3 .008h-3v10h-6l9 12 9-12h-6V29.01v-.008c.013-6.064-2.424-10.359-6.137-12.238-3.714-1.881-7.848-1.76-11.863-1.762v-2z" fill="#F9F5D7"/>
    <path d="M17 5.002a8 8 0 0 0-8 8v1a8 8 0 0 1 8-8h6a8 8 0 0 1 5.438 2.14c3.062.167 6.404.644 10.039 2.485 6.834 3.46 10.54 11.176 10.523 19.39v-.996a8 8 0 0 0 0-.003c.017-8.215-3.689-15.93-10.523-19.391-3.635-1.84-6.977-2.318-10.04-2.484A8 8 0 0 0 23 5.002h-6zm32 26.266v1a8 8 0 0 1 5.97 7.216A8 8 0 0 0 49 31.268z" opacity=".2" fill="#F9F5D7"/>
</svg>
