<svg xmlns="http://www.w3.org/2000/svg" width="64" height="64" version="1">
    <path d="M60 32c0 15.463-12.536 27.999-28 27.999-11.577 0-12.86-7.188-17.122-17.21C13.447 39.425 4 35.886 4 32 4.001 16.537 16.537 4 32.001 4c7.322 0 13.898 5.372 18.887 9.973C56.436 19.09 60 23.858 60 32z" fill="#CB241D" fill-rule="evenodd"/>
    <path d="M32 5v20c10.063 0 19.505 1.122 27.668 3.844A28 28 0 0 0 32.001 5.001z" opacity=".1" fill-rule="evenodd"/>
    <path d="M32 4v20c10.063 0 19.505 1.122 27.668 3.844A28 28 0 0 0 32.001 4z" fill="#504945" fill-rule="evenodd"/>
    <path d="M32 4A28 28 0 0 0 4.002 32a28 28 0 0 0 .018.492A28 28 0 0 1 32 5a28 28 0 0 1 27.975 27.492A28 28 0 0 0 60 32 28 28 0 0 0 32 4z" opacity=".1" fill="#F9F5D7" fill-rule="evenodd"/>
    <path d="M32 24c-9.973 0-19.524 1.108-27.643 3.777A28 28 0 0 0 4 32a28 28 0 0 0 22.437 27.44 28 28 0 0 0 2.762.418c.923.092 1.855.141 2.8.141v-36z" fill="#504945" fill-rule="evenodd"/>
    <path d="M14.583 5.015a2.792 2.792 0 0 0-2.469 3.57l8.91 30.69v.016c.97 5.716-.544 7.818-2.933 7.711-2.331-.105-4.895-3.102-7.477-3.8-2.576-.699-5.79 2.451-6.511 5.405-.262 1.074.012 2.072.426 3.051 1.503 3.562 10.26 9.473 28.788 9.34 21.778-.157 24.906-7.843 26.156-10.652 1.323-2.975.092-7.92-3.051-9.063-1.91-.694-6.784.478-9.62 1.582-2.871 1.117-7.988 2.214-12.02 2.137-3.971-.077-6.457-3.464-7.668-5.887-.586-1.172-1.328-3.513-1.937-5.601l-.094-.332c-.573-1.992-1.035-3.758-1.035-3.758l-.051.012-6.504-22.41a2.793 2.793 0 0 0-2.91-2.011z" opacity=".2" fill-rule="evenodd"/>
    <path d="M33.317 59.997c21.778-.157 24.907-7.846 26.157-10.656 1.324-2.974.09-7.919-3.053-9.061-1.91-.695-6.783.477-9.62 1.581-2.87 1.117-7.986 2.215-12.019 2.138-3.971-.076-6.455-3.463-7.666-5.886-1.2-2.398-3.067-9.69-3.067-9.69L18.8 29.72s1.82 6.176 2.225 8.551c.975 5.728-.545 7.836-2.937 7.728-2.33-.104-4.892-3.1-7.473-3.8-2.577-.697-5.79 2.453-6.511 5.407-.263 1.074.01 2.07.423 3.05 1.504 3.56 10.26 9.474 28.789 9.341z" fill="#F9F5D7" fill-rule="evenodd"/>
    <rect width="5.6" height="47.599" x="9.52" y="7.86" rx="2.8" ry="2.8" transform="rotate(-16.184)" fill="#F9F5D7"/>
    <path d="M14.582 4.012a2.784 2.784 0 0 0-2.523 3.281 2.783 2.783 0 0 1 2.523-2.281 2.793 2.793 0 0 1 2.91 2.011l6.504 22.413.053-.014s.453 1.73.996 3.627l.166.572c.603 2.06 1.328 4.34 1.904 5.492 1.212 2.423 3.695 5.81 7.666 5.887 4.033.077 9.15-1.022 12.02-2.139 2.836-1.104 7.71-2.276 9.62-1.582 2.145.78 3.398 3.328 3.56 5.813.157-2.765-1.125-5.928-3.56-6.813-1.91-.694-6.784.478-9.62 1.582-2.87 1.117-7.987 2.216-12.02 2.139-3.971-.077-6.454-3.464-7.666-5.887-.576-1.152-1.3-3.432-1.904-5.492l-.166-.572c-.543-1.897-.996-3.627-.996-3.627l-.053.014-6.504-22.413a2.793 2.793 0 0 0-2.91-2.011zm6.729 37.935c-.138 2.975-1.435 4.133-3.221 4.053-2.33-.105-4.894-3.102-7.475-3.8-2.576-.699-5.788 2.451-6.51 5.405a3.724 3.724 0 0 0-.054 1.416c.017-.138.02-.274.054-.416.722-2.954 3.934-6.104 6.51-5.406 2.581.7 5.144 3.696 7.475 3.801 1.973.089 3.345-1.339 3.22-5.053z" opacity=".2" fill="#F9F5D7" fill-rule="evenodd"/>
</svg>
