<svg xmlns="http://www.w3.org/2000/svg" width="64" height="64" version="1">
    <path d="M57.447 12.543L33.274 4.047a.827.827 0 0 0-.55 0L8.552 12.543A.823.823 0 0 0 8 13.32c0 8.598 2.283 18.538 6.264 27.27 3.228 7.084 9.035 16.533 18.358 21.32a.827.827 0 0 0 .756 0c9.323-4.788 15.13-14.237 18.359-21.32C55.717 31.856 58 21.916 58 13.319c0-.349-.22-.66-.55-.776z" opacity=".2"/>
    <path d="M57.447 11.543L33.274 3.047a.827.827 0 0 0-.55 0L8.552 11.543A.823.823 0 0 0 8 12.32c0 8.598 2.283 18.538 6.264 27.27 3.228 7.084 9.035 16.533 18.358 21.32a.827.827 0 0 0 .756 0c9.323-4.788 15.13-14.237 18.359-21.32C55.717 30.856 58 20.916 58 12.32c0-.349-.22-.66-.55-.776z" fill="#BE4C1D"/>
    <path d="M33 3a.823.823 0 0 0-.273.047L8.55 11.543A.825.825 0 0 0 8 12.32c0 .272.017.552.027.828.06-.275.25-.509.524-.605l24.176-8.496a.821.821 0 0 1 .546 0l24.176 8.496c.274.096.464.33.524.605.01-.276.027-.556.027-.828a.825.825 0 0 0-.55-.777L33.272 3.047A.823.823 0 0 0 33 3z" opacity=".1" fill="#F9F5D7"/>
    <path d="M47.578 15.03a2 2 0 0 0-1.55.664l-39.5 42.949a2.002 2.002 0 1 0 2.945 2.71l39.5-42.952a2 2 0 0 0-1.395-3.371z" opacity=".1"/>
    <path d="M8 59l39.5-42.95" fill="none" stroke="#7F7061" stroke-width="4" stroke-linecap="round"/>
    <path d="M33.233 32.556c-1.164 2.448-1.186 4.538 1.477 6.568 2.664 2.03 4.625 1.454 6.63.69" fill="none" stroke="#A79984" stroke-width=".965"/>
    <path d="M7.406 6.14a2.03 3.146 33.145 0 0-2.687 1.747 2.03 3.146 33.145 0 0-.021 3.744 2.03 3.146 33.145 0 0 1.254.165l35.12 26.734 3.129-4.11L8.8 7.47a2.03 3.146 33.145 0 0-.663-1.109 2.03 3.146 33.145 0 0-.732-.223z" opacity=".2"/>
    <path d="M7.406 5.14a2.03 3.146 33.145 0 0-2.687 1.747 2.03 3.146 33.145 0 0-.021 3.744 2.03 3.146 33.145 0 0 1.254.165l35.12 26.734 3.129-4.11L8.8 6.47a2.03 3.146 33.145 0 0-.663-1.109 2.03 3.146 33.145 0 0-.732-.223z" fill="#A79984"/>
    <path d="M7.406 5.139A2.03 3.146 33.145 0 0 4.72 6.887a2.03 3.146 33.145 0 0-.674 2.68 2.03 3.146 33.145 0 1 .674-1.68 2.03 3.146 33.145 0 1 2.687-1.748 2.03 3.146 33.145 0 1 .733.224A2.03 3.146 33.145 0 1 8.8 7.471l34.918 26.582.482-.633-35.4-26.95a2.03 3.146 33.145 0 0-.662-1.107 2.03 3.146 33.145 0 0-.733-.224z" opacity=".2" fill="#F9F5D7"/>
    <path d="M15.855 11.335l1.977 1.468c.116.086.185.32.049.366-1.485.51-3.393 1.171-2.97 3.86.022.143-.25.135-.367.048l-1.977-1.468c-.116-.086-.077-.224-.049-.366.396-1.946 1.541-2.947 2.97-3.86.122-.077.25-.135.367-.048zM27.391 20.16l1.977 1.468c.116.086.186.32.049.366-1.485.51-3.393 1.171-2.97 3.86.023.142-.25.135-.366.048l-1.977-1.468c-.116-.086-.078-.224-.05-.366.397-1.946 1.542-2.947 2.97-3.86.123-.077.25-.135.367-.048zM38.964 28.92l1.977 1.47c.116.085.186.318.049.365-1.485.51-3.393 1.371-2.97 4.06.022.142-.25.135-.366.048l-1.977-1.468c-.117-.086-.078-.224-.05-.366.396-1.946 1.541-3.147 2.97-4.06.123-.077.25-.135.367-.048z" fill="#928274"/>
    <path d="M40.85 36.95v1.45h-5.8z" fill="#A79984"/>
    <path d="M59.792 57.021c.31 1.389.211 1.354-.924 2.216-1.396 1.154-2.848 2.304-4.507 2.617-.534.102-1.11.185-1.717.127-.99-.071-1.239-.397-1.73-1.218l-7.877-13.186-.77-3.41-3.483-3.556-7.125-5.753-10.214-8.246c-.4-.83-1.078-1.77-1.912-2.774-.471-.566-1.995-1.646-2.642-2.139-3.118-2.38-4.842-4-5.389-4.922-.29-1.178.494-1.044 1.202-.48l20.86 16.583c1.504 1.094 2.887 2.156 5.05 3.415 1.343.246 2.787-.287 3.755-1.204.526-.602.638-.997.838-1.436 2.355 1.249 3.072 1.587 2.627 5.149l.529 2.22 1.98 6.37 9.903 7.223c1.062.545 1.357 1.41 1.546 2.404z" opacity=".1"/>
    <path d="M59.792 56.022c.31 1.388.211 1.354-.924 2.215-1.396 1.154-2.848 2.304-4.507 2.618-.534.101-1.11.184-1.717.126-.99-.07-1.239-.397-1.73-1.218l-7.877-13.186-.77-3.41-3.483-3.556-7.125-5.752-10.214-8.247c-.4-.83-1.078-1.77-1.912-2.774-.471-.566-1.995-1.645-2.642-2.138-3.118-2.38-4.842-4-5.389-4.922-.29-1.178.494-1.044 1.202-.482l20.86 16.584c1.504 1.094 2.887 2.157 5.05 3.415 1.343.247 2.787-.287 3.755-1.203.526-.603.638-.998.838-1.437 2.355 1.249 3.072 1.588 2.627 5.149l.529 2.221 1.98 6.37 9.903 7.222c1.062.545 1.357 1.41 1.546 2.405z" fill="#665C54"/>
    <path d="M52.625 4c1.805.01 3.879.244 4.94 1.144 1.181 1.002 1.79 3.311 2.102 5.262.602 2.054.172 3.54-.6 5.219-2.43 5.096-5.596 9.823-8.911 14.475-7.145-4.035-12.697-9.292-16.306-16.039 3.847-3.204 8.147-6.18 13.219-8.77 1.812-1.16 3.749-1.293 5.556-1.29z" opacity=".2"/>
    <path d="M52.625 3c1.805.01 3.879.245 4.94 1.145 1.181 1.001 1.79 3.31 2.102 5.262.602 2.054.172 3.538-.6 5.218-2.43 5.096-5.596 9.823-8.911 14.476-7.145-4.036-12.697-9.293-16.306-16.04 3.847-3.203 8.147-6.18 13.219-8.77 1.812-1.16 3.749-1.293 5.556-1.29z" fill="#A79984"/>
    <path d="M48.707 14.895c-.652.046-3.48 1.644-8.766 6.433.92.947 1.877 1.865 2.903 2.73 6.794-8.077 6.195-9.144 6.195-9.144-.022.022-.102-.036-.332-.02z" fill="#928274"/>
    <path d="M52.625 3c-1.807-.002-3.745.13-5.557 1.291-5.072 2.59-9.372 5.566-13.218 8.77.125.234.258.462.388.693 3.75-3.085 7.924-5.958 12.83-8.463C48.88 4.13 50.818 3.998 52.625 4c1.805.01 3.878.244 4.94 1.145 1.18 1.001 1.79 3.31 2.101 5.261.14.476.219.92.256 1.344.06-.72-.003-1.48-.256-2.344-.312-1.95-.92-4.26-2.102-5.261-1.06-.9-3.134-1.135-4.939-1.145z" opacity=".2" fill="#F9F5D7"/>
</svg>
