<svg xmlns="http://www.w3.org/2000/svg" width="64" height="64">
    <path d="M44.423 5c-.014 0-1.183.521-2.595 1.15-2.656 1.198-3.521 1.705-5.434 3.178-2.231 1.72-3.203 3.347-6.527 10.899-.956 2.165-1.745 3.914-1.776 3.884-.106-.108.319-2.533.729-4.145.228-.936.744-2.563 1.123-3.653.38-1.075.637-1.95.561-1.95-.318 0-2.367.983-3.521 1.673-2.535 1.55-5.692 4.406-7.301 6.616-3.78 5.22-5.48 9.64-6.497 16.886l-.425 2.994-.015-1.412c-.03-2.748.273-5.19 1.047-8.658.425-1.827.76-3.377.76-3.439 0-.062-.471.4-1.063 1.028-1.821 1.935-3.766 4.913-4.465 7.508-.319 1.212-.531 3.976-.364 5.004.076.476.122.89.091.937-.03.03-.134-.123-.56-.338-.424-.23-.773-.353-.773-.292 0 .077.212.845.455 1.735.243.89.455 1.612.455 1.627 0 0-.346-.077-1.12-.2-.76-.107-1.412-.169-1.442-.138-.045.046.304.538.759 1.12 4.76 4.186 2.444 3.21 6.403 4.005.03.046.667.23 1.411.445.744.2 1.837.537 2.413.752l1.063.384-.835-.752-.834-.753 3.794-.015 3.795-.015-2.125-.86c-1.62-.518-2.828-.666-4.107-1.653-.537-.485-.008-.46 2.042-.46 4.509 0 9.047-1.492 13.965-3.733 2.307-1.044 4.523-2.302 4.356-2.471-.045-.046-.637-.138-1.336-.215-1.381-.138-3.764-.614-3.764-.752 0-.046 1.051-.467 2.322-.983 6.32-3.236 10.343-5.86 14.807-9.892 1.168-1.105 2.167-2.188 2.103-2.252-.015-.03-.622.093-1.32.246-3.203.706-8.667 1.135-11.4.905-1.396-.122-3.354-.583-4.371-1.013-.623-.276-.547-.876 4.19-.876 4.37 0 5.008-.046 6.724-.353 2.504-.46 4.174-.997 5.843-1.842 2.717-1.366 4.296-1.925 6.466-4.473 1.336-1.566 1.685-2.072 2.08-3.085.82-2.119 1.001-3.249.546-5.46-.455-2.194-2.034-3.26-4.873-4.335-5.405-2.15-10.097-.823-12.963 2.763-.85 1.06-1.654 1.207-1.776 1.33-.212.215 1.078-2.364 2.657-5.342.38-.69.652-1.259.622-1.259z" opacity=".2"/>
    <path d="M44.423 4c-.014 0-1.183.521-2.595 1.15-2.656 1.198-3.521 1.705-5.434 3.178-2.231 1.72-3.203 3.347-6.527 10.899-.956 2.165-1.745 3.914-1.776 3.884-.106-.108.319-2.533.729-4.145.228-.936.744-2.563 1.123-3.653.38-1.075.637-1.95.561-1.95-.318 0-2.367.983-3.521 1.673-2.535 1.55-5.692 4.406-7.301 6.616-3.78 5.22-5.48 9.64-6.497 16.886l-.425 2.994-.015-1.412c-.03-2.748.273-5.19 1.047-8.658.425-1.827.76-3.377.76-3.439 0-.062-.471.4-1.063 1.028-1.821 1.935-3.766 4.913-4.465 7.508-.319 1.212-.531 3.976-.364 5.004.076.476.122.89.091.937-.03.03-.134-.123-.56-.338-.424-.23-.773-.353-.773-.292 0 .077.212.845.455 1.735.243.89.455 1.612.455 1.627 0 0-.346-.077-1.12-.2-.76-.107-1.412-.169-1.442-.138-.045.046.304.538.759 1.12 4.76 4.186 2.444 3.21 6.403 4.005.03.046.667.23 1.411.445.744.2 1.837.537 2.413.752l1.063.384-.835-.752-.834-.753 3.794-.015 3.795-.015-2.125-.86c-1.62-.518-2.828-.666-4.107-1.653-.537-.485-.008-.46 2.042-.46 4.509 0 9.047-1.492 13.965-3.733 2.307-1.044 4.523-2.302 4.356-2.471-.045-.046-.637-.138-1.336-.215-1.381-.138-3.764-.614-3.764-.752 0-.046 1.051-.467 2.322-.983 6.32-3.236 10.343-5.86 14.807-9.892 1.168-1.105 2.167-2.188 2.103-2.252-.015-.03-.622.093-1.32.246-3.203.706-8.667 1.135-11.4.905-1.396-.122-3.354-.583-4.371-1.013-.623-.276-.547-.876 4.19-.876 4.37 0 5.008-.046 6.724-.353 2.504-.46 4.174-.997 5.843-1.842 2.717-1.366 4.296-1.925 6.466-4.473 1.336-1.566 1.685-2.072 2.08-3.085.82-2.119 1.001-3.249.546-5.46-.455-2.194-2.034-3.26-4.873-4.335-5.405-2.15-10.097-.823-12.963 2.763-.85 1.06-1.654 1.207-1.776 1.33-.212.215 1.078-2.364 2.657-5.342.38-.69.652-1.259.622-1.259z" fill="#7F7061"/>
    <path d="M54.961 10.294c-9.122 1.57-17.934 8.199-26.578 17.19C19.74 36.478 11.26 47.903 3 59.347V61h2.228C19.712 40.169 35.459 16.737 54.96 10.294z" opacity=".2"/>
    <path d="M54.961 9.294c-9.122 1.57-17.934 8.199-26.578 17.19C19.74 35.478 11.26 46.903 3 58.347V60h2.228C19.712 39.169 35.459 15.737 54.96 9.294z" fill="#F9F5D7"/>
    <path d="M44.424 4c-.015 0-1.184.52-2.596 1.15-2.656 1.198-3.52 1.705-5.433 3.178-2.232 1.72-3.204 3.346-6.528 10.899-.836 1.892-1.456 3.258-1.64 3.603-.116.691-.183 1.233-.135 1.281.03.03.819-1.72 1.775-3.884 3.324-7.553 4.296-9.18 6.528-10.899 1.912-1.473 2.777-1.98 5.433-3.178 1.067-.475 1.565-.695 1.961-.869l.012-.021c.38-.69.653-1.26.623-1.26zm6.635 1.475c-3.335-.066-6.169 1.331-8.14 3.796-.457.571-.874.861-1.206 1.041-.42.85-.666 1.388-.568 1.29.12-.123.925-.271 1.775-1.33 2.865-3.586 7.557-4.914 12.963-2.764 2.839 1.074 4.418 2.14 4.873 4.336.114.552.188 1.037.223 1.486.049-.737-.02-1.504-.223-2.486-.455-2.195-2.034-3.262-4.873-4.336-1.69-.672-3.309-1.004-4.824-1.033zm-20.555 7.888c-.319 0-2.368.982-3.522 1.672-2.535 1.55-5.691 4.407-7.3 6.617-3.78 5.22-5.48 9.641-6.496 16.887l-.426 2.992-.008-.754c0 .115-.01.226-.008.342l.016 1.412.426-2.992c1.017-7.246 2.716-11.667 6.496-16.887 1.609-2.21 4.765-5.067 7.3-6.617 1-.599 2.61-1.377 3.245-1.584.194-.607.33-1.088.277-1.088zm21.494 13.432c-.015-.03-.622.09-1.32.244-3.203.706-8.667 1.136-11.399.906-1.072-.094-2.469-.389-3.523-.715-1.335.2-1.26.52-.85.702 1.018.43 2.977.89 4.373 1.013 2.732.23 8.196-.2 11.399-.906.143-.031.14-.023.271-.05.614-.632 1.09-1.152 1.049-1.194zm-37.447 1.228c0-.061-.47.399-1.063 1.028-1.82 1.935-3.766 4.913-4.465 7.508-.271 1.034-.45 3.136-.398 4.388.043-1.193.192-2.604.398-3.388.699-2.595 2.644-5.573 4.465-7.508.334-.355.6-.623.793-.807.074-.343.27-1.199.27-1.22zm19.633 12.284c-.786.32-1.418.58-1.418.613 0 .138 2.384.614 3.765.752.09.01.15.02.235.031.711-.413 1.178-.736 1.101-.814-.046-.046-.637-.14-1.336-.217a27.28 27.28 0 0 1-2.347-.365zM7.418 41.869c0 .047.16.628.277 1.06a4.4 4.4 0 0 1 .496.233c.425.215.53.369.561.338.03-.046-.016-.462-.092-.938-.005-.03-.001-.088-.006-.12a2.835 2.835 0 0 0-.463-.28c-.425-.23-.773-.354-.773-.293zm-1.652 3.026c-.044.043.282.501.707 1.048.225.025.454.05.734.09.774.123 1.121.2 1.121.2 0-.01-.166-.598-.295-1.053-.138-.029-.256-.056-.826-.147-.759-.107-1.411-.17-1.441-.138zm12.52 3.2c-.99.016-1.187.094-.784.458 1.151.888 2.284 1.11 3.672 1.521l2.56-.01-2.125-.859c-1.258-.403-2.267-.586-3.255-1.11h-.069zm-1.036 2.997l-.863.002c.115.04.273.088.365.123l1.062.383-.564-.508z" fill="#F9F5D7" opacity=".1"/>
</svg>
