<svg xmlns="http://www.w3.org/2000/svg" width="64" height="64" version="1">
    <path d="M20 57l-4-4H8c-2.216 0-4-1.784-4-4V13c0-2.216 1.784-4 4-4h48c2.216 0 4 1.784 4 4v36c0 2.216-1.784 4-4 4h-8l-4 4z" opacity=".2"/>
    <path d="M20 56l-4-4H8c-2.216 0-4-1.784-4-4V12c0-2.216 1.784-4 4-4h48c2.216 0 4 1.784 4 4v36c0 2.216-1.784 4-4 4h-8l-4 4z" fill="#A79984"/>
    <path d="M24 48l-4-4h-8V16h40v28h-8l-4 4z" opacity=".6"/>
    <g fill="#FECE4F">
        <path d="M18 20h4v-4h-4zM24 20h4v-4h-4zM30 20h4v-4h-4zM36 20h4v-4h-4zM42 20h4v-4h-4z"/>
    </g>
    <path d="M8 8c-2.216 0-4 1.784-4 4v1c0-2.216 1.784-4 4-4h48c2.216 0 4 1.784 4 4v-1c0-2.216-1.784-4-4-4H8zM12 44v1h8l4 4h16l4-4h8v-1h-8l-4 4H24l-4-4z" fill="#F9F5D7" opacity=".2"/>
</svg>
