<svg xmlns="http://www.w3.org/2000/svg" width="64" height="64">
    <path d="M6.8 57A2.783 2.783 0 0 1 4 54.222V51h56v3.222A2.783 2.783 0 0 1 57.2 57z" fill="#504945"/>
    <path d="M6.801 7a2.783 2.783 0 0 0-2.8 2.777V51h56V9.78a2.783 2.783 0 0 0-2.8-2.778H6.8z" fill="#48B9C7"/>
    <path d="M6.8 7A2.783 2.783 0 0 0 4 9.777v1A2.783 2.783 0 0 1 6.8 8h50.4c1.55 0 2.8 1.238 2.8 2.777v-1A2.784 2.784 0 0 0 57.2 7H6.8z" opacity=".1" fill="#F9F5D7"/>
    <rect width="24" height="16" x="20" y="24" rx="1.5" ry="1.334" opacity=".2"/>
    <path d="M20 27v10.668c0 .738.668 1.332 1.5 1.332h21c.832 0 1.5-.594 1.5-1.332V27H20z" fill="#F9F5D7"/>
    <path d="M21.5 23h21c.832 0 1.5.594 1.5 1.334V27H20v-2.667c0-.738.67-1.333 1.5-1.333z" fill="#504945"/>
    <rect width="6" height="6" x="6" y="34" rx=".75" ry=".75" opacity=".2"/>
    <rect width="6" height="6" x="6" y="10" rx=".75" ry=".75" opacity=".2"/>
    <rect width="6" height="6" x="6" y="9" rx=".75" ry=".75" fill="#F9F5D7"/>
    <rect width="6" height="6" x="6" y="18" rx=".75" ry=".75" opacity=".2"/>
    <rect width="6" height="6" x="6" y="17" rx=".75" ry=".75" fill="#F9F5D7"/>
    <rect width="6" height="6" x="6" y="26" rx=".75" ry=".75" opacity=".2"/>
    <rect width="6" height="6" x="6" y="25" rx=".75" ry=".75" fill="#F9F5D7"/>
    <rect width="6" height="6" x="6" y="33" rx=".75" ry=".75" fill="#F9F5D7"/>
    <path d="M4 54.223v1C4 56.763 5.25 58 6.8 58h50.401A2.782 2.782 0 0 0 60 55.223v-1A2.782 2.782 0 0 1 57.201 57h-50.4A2.782 2.782 0 0 1 4 54.223z" opacity=".2"/>
</svg>
