<svg xmlns="http://www.w3.org/2000/svg" width="64" height="64">
    <path d="M44 20v6c0 3.324-2.676 6-6 6H26s-6 0-6 6v10.5c0 4.156 4.684 7.5 10.5 7.5h3c5.816 0 10.5-3.344 10.5-7.5V44h4.5c4.156 0 7.5-4.684 7.5-10.5v-3c0-5.816-3.344-10.5-7.5-10.5H44z" fill="#FECE4F"/>
    <path d="M38 49a2 2 0 0 1 2 2 2 2 0 0 1-2 2 2 2 0 0 1-2-2 2 2 0 0 1 2-2z" opacity=".2"/>
    <path d="M38 48a2 2 0 0 1 2 2 2 2 0 0 1-2 2 2 2 0 0 1-2-2 2 2 0 0 1 2-2z" fill="#F9F5D7"/>
    <path d="M30.5 8C24.684 8 20 11.345 20 15.5V20h-4.5C11.345 20 8 24.684 8 30.5v3C8 39.316 11.345 44 15.5 44H20v-6c0-3.324 2.676-6 6-6h12s6 0 6-6V15.5C44 11.345 39.316 8 33.5 8h-3z" fill="#066678"/>
    <path d="M26 13a2 2 0 0 1 2 2 2 2 0 0 1-2 2 2 2 0 0 1-2-2 2 2 0 0 1 2-2z" opacity=".2"/>
    <path d="M26 12a2 2 0 0 1 2 2 2 2 0 0 1-2 2 2 2 0 0 1-2-2 2 2 0 0 1 2-2z" fill="#F9F5D7"/>
    <path d="M30.5 8C24.684 8 20 11.345 20 15.5v1C20 12.345 24.684 9 30.5 9h3C39.316 9 44 12.345 44 16.5v-1C44 11.345 39.316 8 33.5 8h-3zm-15 12C11.345 20 8 24.684 8 30.5v1C8 25.684 11.345 21 15.5 21H20v-1h-4.5zM44 20v1h4.5c4.156 0 7.5 4.684 7.5 10.5v-1c0-5.816-3.344-10.5-7.5-10.5H44zm0 6c0 3.324-2.676 6-6 6H26s-6 0-6 6v1c0-6 6-6 6-6h12c3.324 0 6-2.676 6-6v-1z" opacity=".1" fill="#F9F5D7"/>
    <path d="M44 26c0 6-6 6-6 6H26c-3.324 0-6 2.676-6 6v1c0-3.324 2.676-6 6-6h12s6 0 6-6v-1zM8 33.5v1C8 40.316 11.345 45 15.5 45H20v-1h-4.5C11.345 44 8 39.316 8 33.5zM56 33.5c0 5.816-3.344 10.5-7.5 10.5H44v1h4.5c4.156 0 7.5-4.684 7.5-10.5v-1zm-36 15v1c0 4.155 4.683 7.5 10.5 7.5h3c5.816 0 10.5-3.344 10.5-7.5v-1c0 4.156-4.684 7.5-10.5 7.5h-3C24.683 56 20 52.655 20 48.5z" opacity=".2"/>
</svg>
