<svg xmlns="http://www.w3.org/2000/svg" width="64" height="64">
    <rect width="60" height="38" x="2" y="14" rx="2.727" ry="2.714" opacity=".2"/>
    <rect width="60" height="38" x="2" y="13" rx="2.727" ry="2.714" fill="#928274"/>
    <rect width="54" height="29" x="5" y="20" rx="2.455" ry="2.071" opacity=".1"/>
    <rect width="54" height="29" x="5" y="19" rx="2.455" ry="2.071" fill="#F9F5D7"/>
    <path d="M44 25c-5.523 0-10 4.477-10 10s4.477 10 10 10a10 10 0 0 0 8.8-5.273l-1.3-.977-1.96-1.45a6 6 0 0 1-4.349 3.575 4.413 4.413 0 0 1-1.191.176c-1.42 0-2.613-.457-3.543-1.215A6 6 0 0 1 38 35a6 6 0 0 1 6-6 6 6 0 0 1 5.531 3.684L51.5 31.25l1.309-.98A10 10 0 0 0 44 25zM21.076 34.394l-1.451 3.825s-.158 1.186 2.784 2.807c1.47.81 2.887 1.741 3.752 2.549 1.633 1.344.289 2.136-.753 2.807-1.099.464-2.832.76-4.778.961-3.893.403-4.949.26-8.394 2.842-2.729 2.046-4.68 4.241-5.153 7.964-.044.34-.07.504-.083.851h2.198c.007-.175.014-.167.035-.335.356-2.797 2.926-5.626 5.456-7.522 1.673-1.254 2.234-1.621 6.361-2.048 3.315-.584 9.486-1.416 10.017-3.539.459-2.107-.812-3.756-2.114-4.972-1.303-1.216-2.937-2.24-4.57-3.14-3.269-1.8-3.307-3.05-3.307-3.05z" fill="#3A393A"/>
    <circle cx="-.046" cy="38.079" r="10" transform="rotate(-30)" fill="#3A393A"/>
    <circle cx="-.546" cy="38.945" r="6" transform="rotate(-30)" opacity=".2"/>
    <circle cx="-.046" cy="38.079" r="6" transform="rotate(-30)" fill="#928274"/>
    <circle cx="-.046" cy="38.079" r="2" transform="rotate(-30)" fill="#8F3F71"/>
    <circle cx="-.278" cy="34.481" r="1" transform="rotate(-30)" fill="#3A393A"/>
    <circle cx="-4.144" cy="39.177" r="1" transform="rotate(-30)" fill="#3A393A"/>
    <circle cx="3.669" cy="39.646" r="1" transform="rotate(-30)" fill="#3A393A"/>
    <path d="M4.727 13A2.715 2.715 0 0 0 2 15.715v1A2.715 2.715 0 0 1 4.727 14h54.546A2.715 2.715 0 0 1 62 16.715v-1A2.715 2.715 0 0 0 59.273 13H4.727z" opacity=".1" fill="#F9F5D7"/>
    <path d="M7.455 19C6.095 19 5 19.925 5 21.072v1C5 20.925 6.095 20 7.455 20h49.09c1.36 0 2.455.925 2.455 2.072v-1C59 19.925 57.905 19 56.545 19H7.455z" opacity=".2" fill="#F9F5D7"/>
</svg>
