<svg xmlns="http://www.w3.org/2000/svg" width="64" height="64">
    <path d="M32 5A28 28 0 0 0 4 33a28 28 0 0 0 28 28 28 28 0 0 0 12.885-3.152l.758 1.847A2.1 2.1 0 0 0 47.586 61H58.9a2.1 2.1 0 0 0 1.95-2.879L56.336 46.81A28 28 0 0 0 60 33 28 28 0 0 0 32 5z" opacity=".2"/>
    <circle cx="32" cy="32" r="28" fill="#504945"/>
    <path d="M23.848 9.05c-.03 1.102-1.948.148-2.032 1.407-2.128-.948.163 1.442-.05 1.664h-.012l-.16-.016a2.432 2.432 0 0 1-.473-.234c-.449.357-.766.83-1.031 1.355-1.775 2.76-2.64 5.065-3.223 7.973-.745 3.714-.926 8.053-.851 11.715.08 1.032.338 2.008 1.183 2.66 2.382 1.957 4.363 4.43 6.363 6.785 3.938 5.339 7.388 9.893 9.637 14.68a93.562 93.562 0 0 1-.722-6.145C31.11 43.926 28.32 40.241 28 32.457c-.075-1.926 2.001-5.817 4.324-7.86 3.506-3.081 6.04-2.305 10.512-1.644l.082.016c.148.025.31.053.457.082 1.195.106 3.596.57 4.027-.254-1.649-1.404-4.02-1.585-6.027-2.137a13.089 13.089 0 0 0-1.105-.16l-1.965-.438-.493-.128v.015l-7.035-1.37a3.41 3.41 0 0 0-.347-.282l6.863.851v-.035c.242.054.484.1.727.13v.015l4.851.894c.837.312 1.73.55 2.566.602 1.383.2 3.137 2.264 3.59 2.363-.222-2.17-2.388-3.144-4.187-3.781-2.102-1.022-5.246-.986-5.578-3.813-.089-.197-.174-.393-.282-.582l-.82-1.086.031-.015c-1.117-1.319-2.688-2.282-4.359-2.649-1.659-.572-3.523-1.14-5.277-1.367-.596 1.753-1.26-1.389-2.692-.457-1.255.149-1.081.479-2.015-.316zm8.67 3.952c.443-.015.95.086 1.459.305 1.356.584 2.238 1.816 1.978 2.755-.26.94-1.575 1.217-2.932.633-1.356-.584-2.238-1.799-1.978-2.738.163-.587.734-.93 1.473-.955z" opacity=".2"/>
    <path d="M23.848 8.05c-.03 1.102-1.948.148-2.032 1.407-2.128-.948.163 1.442-.05 1.664h-.012l-.16-.016a2.432 2.432 0 0 1-.473-.234c-.449.358-.766.83-1.031 1.356-1.775 2.76-2.64 5.064-3.223 7.972-.745 3.714-.926 8.053-.851 11.715.08 1.032.338 2.008 1.183 2.66 2.382 1.957 4.363 4.43 6.363 6.785 3.938 5.339 7.388 9.893 9.637 14.68a93.562 93.562 0 0 1-.722-6.144C31.11 42.925 28.32 39.24 28 31.457c-.075-1.926 2.001-5.817 4.324-7.86 3.506-3.081 6.04-2.305 10.512-1.644l.082.016c.148.025.31.053.457.082 1.195.106 3.596.57 4.027-.254-1.649-1.404-4.02-1.585-6.027-2.137a13.089 13.089 0 0 0-1.105-.16l-1.965-.438-.492-.128v.015l-7.036-1.37a3.41 3.41 0 0 0-.347-.282l6.863.851v-.035c.242.054.484.1.727.13v.015l4.851.894c.837.313 1.73.55 2.566.602 1.383.201 3.137 2.264 3.59 2.363-.222-2.17-2.388-3.144-4.187-3.781-2.102-1.022-5.246-.986-5.578-3.813-.089-.196-.174-.393-.282-.582l-.82-1.086.031-.015c-1.117-1.319-2.688-2.282-4.359-2.649-1.659-.572-3.523-1.14-5.277-1.367-.596 1.753-1.26-1.389-2.692-.457-1.255.149-1.081.479-2.015-.316zm8.67 3.952c.443-.015.95.086 1.459.305 1.356.584 2.238 1.816 1.978 2.755-.26.94-1.575 1.217-2.932.633-1.356-.584-2.238-1.799-1.978-2.738.163-.587.734-.93 1.473-.955z" fill="#FD8019"/>
    <path d="M40.7 39a2.1 2.1 0 0 0-1.944 2.896l6.886 16.8A2.1 2.1 0 0 0 47.586 60H58.9a2.1 2.1 0 0 0 1.95-2.88l-6.705-16.8a2.1 2.1 0 0 0-1.95-1.32z" fill="#504945"/>
    <path d="M32 4A28 28 0 0 0 4 32a28 28 0 0 0 .021.414A28 28 0 0 1 32 5a28 28 0 0 1 27.982 27.648A28 28 0 0 0 60 32 28 28 0 0 0 32 4zm24.559 42.367a28 28 0 0 1-.223.442L60.85 58.12a2.1 2.1 0 0 1 .087.28 2.1 2.1 0 0 0-.087-1.28l-4.291-10.754z" fill="#F9F5D7" opacity=".1"/>
    <path d="M23.848 8.05c-.03 1.102-1.948.148-2.032 1.407-1.367-.609-.907.153-.462.84.128.034.259.07.462.16.084-1.259 2.003-.305 2.032-1.406.934.795.76.465 2.015.316 1.432-.932 2.096 2.21 2.692.457 1.754.228 3.618.795 5.277 1.367 1.671.367 3.242 1.33 4.36 2.649l-.032.015.82 1.086c.108.19.193.386.282.582.332 2.827 3.476 2.79 5.578 3.813 1.397.495 3.004 1.2 3.762 2.504.18.146.335.257.425.277-.222-2.17-2.388-3.144-4.187-3.781-2.102-1.022-5.246-.986-5.578-3.813-.089-.196-.174-.393-.282-.582l-.82-1.086.031-.015c-1.117-1.319-2.688-2.282-4.359-2.649-1.659-.572-3.523-1.14-5.277-1.367-.596 1.753-1.26-1.389-2.692-.457-1.255.149-1.081.479-2.015-.316zM21.1 10.894c-.436.355-.75.818-1.01 1.334-1.775 2.76-2.64 5.064-3.223 7.972-.622 3.1-.838 6.616-.853 9.83.055-2.93.296-6.054.853-8.83.584-2.908 1.448-5.212 3.223-7.972.265-.525.582-.998 1.031-1.356.22.136.37.198.473.234l.16.016h.012c.103-.108-.382-.728-.666-1.228zm10.005 2.943c-.017.042-.048.076-.06.121-.26.94.622 2.154 1.978 2.738 1.357.584 2.672.307 2.932-.633.076-.273.045-.572-.057-.873-.344.83-1.585 1.062-2.875.506-.957-.412-1.667-1.138-1.918-1.86zm-.675 4.46c.112.078.235.18.347.282l7.035 1.371v-.015l.493.128 1.965.438c.39.036.787.102 1.105.16 1.69.465 3.634.674 5.191 1.565.38-.059.683-.175.819-.405a8.659 8.659 0 0 0-.826-.6 6.63 6.63 0 0 0-.512-.27c-.054-.026-.112-.044-.166-.067a2.17 2.17 0 0 0-.444-.13c-.837-.051-1.729-.288-2.566-.6l-4.851-.895v-.016a7.195 7.195 0 0 1-.727-.129v.035l-6.863-.851zm-2.395 13.737c-.013.143-.04.298-.035.424.32 7.784 3.11 11.469 4.477 18.438.118 1.516.33 3.267.537 4.777.06.123.127.244.185.367a93.562 93.562 0 0 1-.722-6.144c-1.331-6.792-4.01-10.475-4.442-17.862z" fill="#F9F5D7" opacity=".2"/>
</svg>
