<svg xmlns="http://www.w3.org/2000/svg" width="64" height="64">
    <path d="M32 5A28 28 0 0 0 4 33a28 28 0 0 0 28 28 28 28 0 0 0 12.352-2.906l-6.473-6.473-.668-.668-.512-.512-.894-.894A17 17 0 0 1 32 50a17 17 0 0 1-17-17 17 17 0 0 1 17-17 17 17 0 0 1 17 17 17 17 0 0 1-.45 3.809l.84.84.563.562.668.668 6.484 6.484A28 28 0 0 0 60 33 28 28 0 0 0 32 5z" opacity=".2"/>
    <path d="M28 29v8.473l1.387 1.414 5.695 5.695.258.258.66.66 2.82 2.82.512.512.668.668L53.5 63H62v-8.5L48.5 41l-.668-.668-.562-.562L44.5 37l-.883-.883-.035-.036L36.5 29z" opacity=".2"/>
    <path d="M32 4A28 28 0 0 0 4 32a28 28 0 0 0 28 28 28 28 0 0 0 12.352-2.906l-6.473-6.473-.668-.668-.512-.512-.894-.894A17 17 0 0 1 32 49a17 17 0 0 1-17-17 17 17 0 0 1 17-17 17 17 0 0 1 17 17 17 17 0 0 1-.45 3.809l.84.84.563.562.668.668 6.484 6.484A28 28 0 0 0 60 32 28 28 0 0 0 32 4z" fill="#B7BB25"/>
    <path d="M28 28v8.473l1.387 1.414 5.695 5.695.258.258.66.66V36h8.5l-.883-.883-.035-.035L36.5 28z" fill="#FD8019"/>
    <path d="M38.819 38.675v8.643L53.5 62H62v-8.5L47.269 38.769l-.1-.092z" fill="#7CB668"/>
    <path d="M36 36v8.5l2.82 2.82.512.512.668.668V40h8.5l-.668-.668-.562-.563L44.5 36z" fill="#B7BB25"/>
    <path d="M28 28l34 34v-8.5L47.833 39.333l-.564-.564-3.652-3.652-.034-.034-7.083-7.084z" opacity=".2" fill="#F9F5D7"/>
    <path d="M32 4A28 28 0 0 0 4 32a28 28 0 0 0 .021.414A28 28 0 0 1 32 5a28 28 0 0 1 27.98 27.623A28 28 0 0 0 60 32 28 28 0 0 0 32 4zm16.979 28.398a17 17 0 0 1-.428 3.41l.16.16A17 17 0 0 0 49 33a17 17 0 0 0-.021-.602zm-33.958.182A17 17 0 0 0 15 33a17 17 0 0 0 17 17 17 17 0 0 0 3.805-.453l.894.894.512.512.668.668 5.787 5.787a28 28 0 0 0 .686-.314l-6.473-6.473-.668-.668-.512-.512-.894-.894A17 17 0 0 1 32 49a17 17 0 0 1-16.979-16.42z" opacity=".2" fill="#F9F5D7"/>
</svg>
