<svg xmlns="http://www.w3.org/2000/svg" width="64" height="64" version="1">
    <path d="M9.068 4.001A4.954 4.394 0 0 0 4 8.394v47.215a4.954 4.394 0 0 0 7.43 3.803l23.046-11.8 23.048-11.804a4.954 4.394 0 0 0 0-7.611L34.476 16.394 11.43 4.59a4.954 4.394 0 0 0-2.361-.587z" fill="#504945"/>
    <path d="M12 15v36l18.92-9.46L48 33l-17.08-8.54L12 15z" opacity=".2"/>
    <path d="M12 14v36l18.92-9.46L48 32l-17.08-8.54L12 14z" fill="#73C48F"/>
    <path d="M9.07 4.001A4.954 4.392 0 0 0 4 8.394v1A4.954 4.392 0 0 1 9.07 5a4.954 4.392 0 0 1 2.36.59l23.048 11.793 23.05 11.8a4.954 4.392 0 0 1 2.438 3.316 4.954 4.392 0 0 0-2.438-4.316l-23.05-11.8L11.43 4.591A4.954 4.392 0 0 0 9.07 4z" opacity=".1" fill="#F9F5D7"/>
    <path d="M59.968 32.5a4.954 4.395 0 0 1-2.438 3.303L34.481 47.608l-23.05 11.804A4.954 4.395 0 0 1 4 55.61v1a4.954 4.395 0 0 0 7.43 3.802l23.051-11.803L57.53 36.804a4.954 4.395 0 0 0 2.438-4.304z" opacity=".2"/>
</svg>
