<svg xmlns="http://www.w3.org/2000/svg" width="64" height="64" viewBox="0 0 18.06 18.06">
    <path d="M3.114 12.294c-.047.932.126 1.808.614 2.577 1.976 3.115 8.691 3.131 10.644 0 .46-.74.621-1.574.572-2.458-.037.674-.21 1.314-.572 1.894-1.953 3.13-8.669 3.115-10.645 0-.387-.612-.575-1.292-.613-2.013z" opacity=".2"/>
    <path d="M8.933 1.129c-1.764 2.47-7.758 9.435-5.205 13.46 1.976 3.115 8.691 3.131 10.644 0 2.54-4.072-3.937-10.99-5.439-13.46z" fill="#CB8819"/>
    <path d="M8.933 1.129C7.457 3.195 3.026 8.406 3.111 12.41c.12-3.964 4.38-8.982 5.822-11 1.242 2.042 5.877 7.121 6.014 11.122.083-4.04-4.743-9.314-6.014-11.404z" opacity=".2" fill="#F9F5D7"/>
</svg>
