<svg xmlns="http://www.w3.org/2000/svg" width="64" height="64" version="1">
    <rect width="16" height="16" x="15" y="6" rx="2" ry="2" fill="#FA4934"/>
    <rect width="16" height="16" x="15" y="24" rx="2" ry="2" fill="#FA4934"/>
    <rect width="16" height="16" x="15" y="42" rx="2" ry="2" fill="#FA4934"/>
    <rect width="16" height="16" x="33" y="42" rx="2" ry="2" fill="#FA4934"/>
    <path d="M17 6c-1.108 0-2 .892-2 2v1c0-1.108.892-2 2-2h12c1.108 0 2 .892 2 2V8c0-1.108-.892-2-2-2H17zm0 18c-1.108 0-2 .892-2 2v1c0-1.108.892-2 2-2h12c1.108 0 2 .892 2 2v-1c0-1.108-.892-2-2-2H17zm0 18c-1.108 0-2 .892-2 2v1c0-1.108.892-2 2-2h12c1.108 0 2 .892 2 2v-1c0-1.108-.892-2-2-2H17zm18 0c-1.108 0-2 .892-2 2v1c0-1.108.892-2 2-2h12c1.108 0 2 .892 2 2v-1c0-1.108-.892-2-2-2H35z" opacity=".2" fill="#F9F5D7"/>
    <path d="M15 20v1c0 1.108.892 2 2 2h12c1.108 0 2-.892 2-2v-1c0 1.108-.892 2-2 2H17c-1.108 0-2-.892-2-2zm0 18v1c0 1.108.892 2 2 2h12c1.108 0 2-.892 2-2v-1c0 1.108-.892 2-2 2H17c-1.108 0-2-.892-2-2zm0 18v1c0 1.108.892 2 2 2h12c1.108 0 2-.892 2-2v-1c0 1.108-.892 2-2 2H17c-1.108 0-2-.892-2-2zm18 0v1c0 1.108.892 2 2 2h12c1.108 0 2-.892 2-2v-1c0 1.108-.892 2-2 2H35c-1.108 0-2-.892-2-2z" opacity=".2"/>
</svg>
