<svg xmlns="http://www.w3.org/2000/svg" width="64" height="64">
    <path d="M32.001 27c-1.857 0-3.714.418-5.089 1.253L6.06 40.91c-2.748 1.669-2.746 4.51.003 6.18l20.85 12.657c2.748 1.67 7.428 1.67 10.177 0L57.94 47.09c2.748-1.669 2.746-4.51-.003-6.18L37.09 28.254C35.716 27.418 33.86 27 32.001 27z" opacity=".2"/>
    <path d="M32.001 26c-1.857 0-3.714.418-5.089 1.253L6.06 39.91c-2.748 1.669-2.746 4.51.003 6.18l20.85 12.657c2.748 1.67 7.428 1.67 10.177 0L57.94 46.09c2.748-1.669 2.746-4.51-.003-6.18L37.09 27.254C35.716 26.418 33.86 26 32.001 26z" fill="#9D0006"/>
    <path d="M32.001 16c-1.857 0-3.714.418-5.089 1.253L6.06 29.91c-2.748 1.669-2.746 4.51.003 6.18l20.85 12.657c2.748 1.67 7.428 1.67 10.177 0L57.94 36.09c2.748-1.669 2.746-4.51-.003-6.18L37.09 17.254C35.716 16.418 33.86 16 32.001 16z" opacity=".2"/>
    <path d="M32.001 15c-1.857 0-3.714.418-5.089 1.253L6.06 28.91c-2.748 1.669-2.746 4.51.003 6.18l20.85 12.657c2.748 1.67 7.428 1.67 10.177 0L57.94 35.09c2.748-1.669 2.746-4.51-.003-6.18L37.09 16.254C35.716 15.418 33.86 15 32.001 15z" fill="#CB241D"/>
    <path d="M32.001 5c-1.857 0-3.714.418-5.089 1.253L6.06 18.91c-2.748 1.669-2.746 4.51.003 6.18l20.85 12.657c2.748 1.67 7.428 1.67 10.177 0L57.94 25.09c2.748-1.669 2.746-4.51-.003-6.18L37.09 6.254C35.716 5.418 33.86 5 32.001 5z" opacity=".2"/>
    <path d="M32.001 4c-1.857 0-3.714.418-5.089 1.253L6.06 17.91c-2.748 1.669-2.746 4.51.003 6.18l20.85 12.657c2.748 1.67 7.428 1.67 10.177 0L57.94 24.09c2.748-1.669 2.746-4.51-.003-6.18L37.09 5.254C35.716 4.418 33.86 4 32.001 4z" fill="#CB241D"/>
    <path opacity=".2" d="M40 14.696l-5.11.695-1.143 3.61-1.848-4.028-5.9-.696 4.403-2.081L29.082 9l4.12 2.114 3.886-1.668-1.05 3.304z"/>
    <path fill="#F9F5D7" d="M37.088 8.446l-1.05 3.304L40 13.696l-5.11.695-1.143 3.61-1.848-4.028-5.9-.696 4.403-2.081L29.082 8l4.12 2.114z"/>
    <path opacity=".2" d="M36 27l-3.626 8L24 29.772z"/>
    <path fill="#F9F5D7" d="M32.374 34L24 28.772 36 26z"/>
    <ellipse cx="19" cy="21" rx="7" ry="4" opacity=".2"/>
    <ellipse cx="19" cy="20" rx="7" ry="4" fill="#F9F5D7"/>
    <path d="M44 26l-8-4.743L44 16z" opacity=".25"/>
    <path d="M52 20.748L44 26V16z" opacity=".4"/>
    <path d="M32.002 4c-1.857 0-3.716.418-5.09 1.252L6.061 17.91c-1.577.957-2.243 2.302-2.01 3.588.174-.954.84-1.878 2.01-2.588L26.912 6.252C28.286 5.418 30.145 5 32.002 5c1.857 0 3.713.418 5.088 1.252L57.937 18.91c1.173.712 1.84 1.638 2.012 2.594.235-1.288-.432-2.635-2.011-3.594L37.09 5.252C35.715 4.418 33.86 4 32.002 4z" opacity=".2" fill="#F9F5D7"/>
</svg>
