<svg xmlns="http://www.w3.org/2000/svg" width="64" height="64" version="1">
    <rect width="56" height="56" x="4" y="5" rx="2.8" ry="2.8" opacity=".2"/>
    <rect width="56" height="56" x="4" y="4" rx="2.8" ry="2.8" fill="#8F3F71"/>
    <path fill="#578D57" d="M14 32h6v6h-6z"/>
    <path fill="#BE4C1D" d="M20 32h6v6h-6z"/>
    <path fill="#8F3F71" d="M26 32h6v6h-6z"/>
    <path fill="#BDAD93" d="M32 32h6v6h-6z"/>
    <path fill="#F9BD2E" d="M38 32h6v6h-6z"/>
    <path fill="#F9F5D7" d="M44 32h6v6h-6z"/>
    <path fill="#8F3F71" d="M14 26h6v6h-6z"/>
    <path fill="#F9F5D7" d="M20 26h6v6h-6z"/>
    <path fill="#578D57" d="M26 26h6v6h-6z"/>
    <path fill="#F9F5D7" d="M32 26h6v6h-6z"/>
    <path fill="#BDAD93" d="M38 26h6v6h-6z"/>
    <path fill="#8F3F71" d="M44 26h6v6h-6z"/>
    <path fill="#F9F5D7" d="M14 20h6v6h-6z"/>
    <path fill="#B7BB25" d="M20 20h6v6h-6z"/>
    <path fill="#F9BD2E" d="M26 20h6v6h-6z"/>
    <path fill="#8F3F71" d="M32 20h6v6h-6z"/>
    <path fill="#B7BB25" d="M38 20h6v6h-6z"/>
    <path fill="#F9BD2E" d="M20 38h6v6h-6z"/>
    <path fill="#8F3F71" d="M26 38h6v6h-6z"/>
    <path fill="#BE4C1D" d="M32 38h6v6h-6z"/>
    <path fill="#B7BB25" d="M38 38h6v6h-6z"/>
    <path fill="#BE4C1D" d="M44 38h6v6h-6z"/>
    <path fill="#8F3F71" d="M26 44h6v6h-6z"/>
    <path fill="#F9F5D7" d="M32 44h6v6h-6z"/>
    <path fill="#578D57" d="M38 44h6v6h-6z"/>
    <path fill="#8F3F71" d="M44 44h6v6h-6z"/>
    <path fill="#F9BD2E" d="M14 14h6v6h-6z"/>
    <path fill="#BE4C1D" d="M20 14h6v6h-6z"/>
    <path fill="#B7BB25" d="M26 14h6v6h-6z"/>
    <path fill="#8F3F71" d="M32 14h6v6h-6z"/>
    <path opacity=".2" d="M14 20h24v1H14zM14 26h30v1H14zM14 32h36v1H14zM14 38h36v1H14zM20 44h30v1H20zM26 50h24v1H26z"/>
    <path d="M6.8 4C5.25 4 4 5.25 4 6.8v1C4 6.25 5.25 5 6.8 5h50.4C58.75 5 60 6.25 60 7.8v-1C60 5.25 58.75 4 57.2 4H6.8z" opacity=".1" fill="#F9F5D7"/>
</svg>
