<svg xmlns="http://www.w3.org/2000/svg" width="64" height="64" version="1">
    <rect width="52" height="52" x="-59" y="-58" rx="16.8" ry="16.8" transform="matrix(0 -1 -1 0 0 0)" opacity=".2"/>
    <rect width="52" height="52" x="-58" y="-58" rx="16.8" ry="16.8" transform="matrix(0 -1 -1 0 0 0)" fill="#7CB668"/>
    <path d="M32.002 15c-1.682-.018-3.353.23-4.975.675C19.474 17.7 13.946 25.177 14.061 33H10C12.07 36.045 16 42 16 42s6-9 6-9.002h-3.918c-.014-3.276 1.215-6.571 3.397-9.017C25.578 19.05 33 16.999 38.71 21.187c1.81 2.369 5.758-.32 3.72-2.662-3-2.337-6.641-3.518-10.429-3.526zM48 24s-6 8.998-6 9h3.918c.014 3.276-1.215 6.573-3.397 9.019-4.099 4.928-11.522 6.98-17.232 2.793-1.81-2.37-5.758.319-3.72 2.662 3 2.336 6.641 3.517 10.429 3.525 1.682.018 3.353-.231 4.975-.676 7.553-2.026 13.081-9.502 12.966-17.326H54C51.93 29.954 48 24 48 24z" opacity=".2"/>
    <path d="M63.958 45.848A16 16 0 0 1 48 61a16 16 0 0 1-15.958-14.848A16 16 0 0 0 32 47a16 16 0 0 0 16 16 16 16 0 0 0 16-16 16 16 0 0 0-.043-1.152z" opacity=".2"/>
    <path d="M32.002 14c-1.682-.017-3.353.232-4.975.676-7.553 2.026-13.081 9.502-12.966 17.326H10C12.07 35.046 16 41 16 41l6-9.002h-3.918c-.014-3.277 1.215-6.572 3.397-9.018C25.578 18.052 33 16 38.71 20.187c1.81 2.37 5.758-.319 3.72-2.662-3-2.336-6.641-3.517-10.429-3.525zM48 23l-6 9h3.918c.014 3.277-1.215 6.574-3.397 9.02C38.422 45.948 31 48 25.29 43.812c-1.81-2.369-5.758.32-3.72 2.663 3 2.336 6.641 3.517 10.429 3.525 1.682.017 3.353-.232 4.975-.676 7.553-2.026 13.081-9.502 12.966-17.326H54C51.93 28.954 48 23 48 23z" fill="#F9F5D7"/>
    <circle cx="48" cy="46" r="16" fill="#8F3F71"/>
    <path d="M56 38.002L44 38v10.54a4 4 0 0 0-2-.54 4 4 0 1 0 4 4V42h8v6.538a4 4 0 0 0-2-.54 4 4 0 1 0 4 4V38z" fill="#F9F5D7"/>
    <path d="M22.8 6C13.495 6 6 13.494 6 22.8v1C6 14.495 13.494 7 22.8 7h18.4C50.505 7 58 14.494 58 23.8v-1C58 13.495 50.506 6 41.2 6H22.8z" fill="#F9F5D7" opacity=".2"/>
</svg>
