<svg xmlns="http://www.w3.org/2000/svg" width="64" height="64" version="1">
    <rect width="58" height="58" x="-62" y="-61" rx="29" ry="29" transform="matrix(0 -1 -1 0 0 0)" opacity=".2"/>
    <rect width="58" height="58" x="-61" y="-61" rx="29" ry="29" transform="matrix(0 -1 -1 0 0 0)" fill="#066678"/>
    <path d="M49.387 37.659l-16.232-1.244 1.553-5.795zM32 7.999a3 3 0 0 0-3 3 3 3 0 0 0 3 3 3 3 0 0 0 3-3 3 3 0 0 0-3-3zm-12.07 4a3 3 0 0 0-1.43.398 3 3 0 0 0-1.098 4.102 3 3 0 0 0 4.098 1.097 3 3 0 0 0 1.098-4.097 3 3 0 0 0-2.668-1.5zm24.14 0a3 3 0 0 0-2.668 1.5 3 3 0 0 0 1.098 4.097 3 3 0 0 0 4.098-1.097 3 3 0 0 0-1.098-4.102A3 3 0 0 0 44.07 12zm-31.996 8a3 3 0 0 0-.215.004 3 3 0 0 0-2.457 1.496 3 3 0 0 0 1.102 4.097 3 3 0 0 0 4.098-1.097 3 3 0 0 0-1.098-4.098 3 3 0 0 0-1.43-.402zm39.852 0a3 3 0 0 0-1.43.402 3 3 0 0 0-1.098 4.098 3 3 0 0 0 4.098 1.097 3 3 0 0 0 1.102-4.097 3 3 0 0 0-2.457-1.496 3 3 0 0 0-.215-.004zM10 31.999a3 3 0 0 0-3 3 3 3 0 0 0 3 3 3 3 0 0 0 3-3 3 3 0 0 0-3-3zm44 0a3 3 0 0 0-3 3 3 3 0 0 0 3 3 3 3 0 0 0 3-3 3 3 0 0 0-3-3zm-40.07 10a3 3 0 0 0-1.426.402 3 3 0 0 0-1.102 4.098 3 3 0 0 0 4.102 1.097 3 3 0 0 0 1.098-4.097 3 3 0 0 0-2.672-1.5zm35.925 0a3 3 0 0 0-2.457 1.5 3 3 0 0 0 1.098 4.097 3 3 0 0 0 4.102-1.097 3 3 0 0 0-1.102-4.098A3 3 0 0 0 50.07 42a3 3 0 0 0-.215 0z" opacity=".2"/>
    <path d="M32 7a3 3 0 0 0-3 3 3 3 0 0 0 3 3 3 3 0 0 0 3-3 3 3 0 0 0-3-3zm-12.07 4a3 3 0 0 0-1.43.398 3 3 0 0 0-1.098 4.102 3 3 0 0 0 4.098 1.098 3 3 0 0 0 1.098-4.098A3 3 0 0 0 19.93 11zm24.14 0a3 3 0 0 0-2.668 1.5 3 3 0 0 0 1.098 4.098 3 3 0 0 0 4.098-1.098 3 3 0 0 0-1.098-4.102A3 3 0 0 0 44.07 11zm-31.996 8a3 3 0 0 0-.215.004A3 3 0 0 0 9.402 20.5a3 3 0 0 0 1.102 4.098 3 3 0 0 0 4.098-1.098 3 3 0 0 0-1.098-4.098 3 3 0 0 0-1.43-.402zm39.852 0a3 3 0 0 0-1.43.402 3 3 0 0 0-1.098 4.098 3 3 0 0 0 4.098 1.098 3 3 0 0 0 1.102-4.098 3 3 0 0 0-2.457-1.496 3 3 0 0 0-.215-.004zM10 31a3 3 0 0 0-3 3 3 3 0 0 0 3 3 3 3 0 0 0 3-3 3 3 0 0 0-3-3zm44 0a3 3 0 0 0-3 3 3 3 0 0 0 3 3 3 3 0 0 0 3-3 3 3 0 0 0-3-3zM13.93 41a3 3 0 0 0-1.426.402 3 3 0 0 0-1.102 4.098 3 3 0 0 0 4.102 1.098 3 3 0 0 0 1.098-4.098A3 3 0 0 0 13.93 41zm35.925 0a3 3 0 0 0-2.457 1.5 3 3 0 0 0 1.098 4.098 3 3 0 0 0 4.102-1.098 3 3 0 0 0-1.102-4.098A3 3 0 0 0 50.07 41a3 3 0 0 0-.215 0z" fill="#48B9C7"/>
    <path d="M49.387 36.659l-16.232-1.244 1.553-5.795z" fill="#F9F5D7"/>
    <circle cx="23.593" cy="-39.451" r="5" transform="rotate(105)" opacity=".2"/>
    <circle cx="22.627" cy="-39.192" r="5" transform="rotate(105)" fill="#282727"/>
    <path d="M32 3C15.934 3 3 15.934 3 32c0 .11.011.219.018.328C3.374 16.576 16.159 4 32 4c15.84 0 28.626 12.576 28.982 28.328.007-.11.018-.217.018-.328C61 15.934 48.066 3 32 3z" opacity=".1" fill="#F9F5D7"/>
</svg>
