<svg xmlns="http://www.w3.org/2000/svg" width="64" height="64" version="1">
    <path d="M32 5c-2.614.037-4.48 1.611-5.355 4.218l.035-.117-4.11 11.898H8.63c-1.654.054-3.144 1.026-4.195 2.305-2.273 2.61-1.793 7.316 1.093 9.262l10.891 7.957-4.227 13.133-.011.043c-.646 2.121-.039 4.305 1.586 5.8l.035.036c1.952 1.735 4.698 1.956 6.902.52.042-.028.08-.057.121-.087L32 52l11.176 7.97c.04.029.079.058.12.085 2.205 1.437 4.951 1.216 6.903-.52.012-.01.024-.023.035-.035 1.625-1.495 2.232-3.679 1.586-5.8l-.011-.043-4.227-13.133 10.89-7.957c2.887-1.946 3.367-6.653 1.094-9.262-1.05-1.28-2.54-2.25-4.195-2.305H41.43L37.32 9.101l.035.117C36.48 6.611 34.615 5.037 32 5z" opacity=".2"/>
    <path d="M32 4c2.614.037 4.479 1.612 5.354 4.22l-.032-.118L41.429 20h13.943c1.653.054 3.145 1.025 4.196 2.304L32 32z" fill="#FA4934"/>
    <path d="M50.198 58.535l.038-.033c1.624-1.495 2.231-3.681 1.586-5.803l-.014-.043-4.226-13.13 10.89-7.96c2.887-1.946 3.369-6.653 1.096-9.262L32 32s18.236 26.502 18.198 26.535z" fill="#7B6F64"/>
    <path d="M13.764 58.502l.038.033c1.952 1.735 4.695 1.956 6.9.52a2.85 2.85 0 0 0 .124-.086L32 51l11.174 7.97c.04.029.083.057.125.084 2.204 1.437 4.947 1.216 6.899-.52l.038-.032L32 32z" fill="#8F3F71"/>
    <path d="M32 4c-2.614.037-4.479 1.612-5.354 4.22l.032-.118L22.571 20H8.629c-1.654.054-3.146 1.025-4.197 2.304L32 32z" fill="#CB8819"/>
    <path d="M13.802 58.535l-.038-.033c-1.624-1.495-2.231-3.681-1.586-5.803l.014-.043 4.226-13.13-10.89-7.96c-2.887-1.946-3.369-6.653-1.096-9.262L32 32S13.764 58.502 13.802 58.535z" fill="#FECE4F"/>
    <path d="M32 4c-2.614.037-4.48 1.612-5.355 4.219l.035-.117L22.57 20H8.63c-1.654.054-3.144 1.025-4.195 2.305-1.063 1.22-1.516 2.896-1.41 4.537.1-1.303.563-2.565 1.41-3.537 1.05-1.28 2.54-2.251 4.195-2.305H22.57l4.11-11.898-.035.117C27.52 6.612 29.385 5.037 32 5c2.614.037 4.48 1.612 5.355 4.219l-.035-.117L41.43 21H55.37c1.654.054 3.144 1.025 4.195 2.305.847.972 1.31 2.234 1.41 3.537.106-1.64-.347-3.317-1.41-4.537-1.05-1.28-2.54-2.251-4.195-2.305H41.43L37.32 8.102l.035.117C36.481 5.612 34.615 4.037 32 4zM16.158 40.334l-3.967 12.322-.011.043a5.683 5.683 0 0 0-.221 2.207c.034-.402.098-.804.22-1.207.005-.014.008-.028.012-.043l4.227-13.133-.26-.189zm31.684 0l-.26.19 4.227 13.132.011.043c.123.403.187.805.221 1.207a5.683 5.683 0 0 0-.22-2.207c-.005-.014-.008-.028-.012-.043l-3.967-12.322z" opacity=".2" fill="#F9F5D7"/>
</svg>
