<svg xmlns="http://www.w3.org/2000/svg" width="64" height="64">
    <rect width="56" height="56" x="4" y="5" rx="2.8" ry="2.8" opacity=".2"/>
    <rect width="56" height="56" x="4" y="4" rx="2.8" ry="2.8" fill="#F9F5D7"/>
    <path d="M29 13c-5.788 7.618-18 6-18 13.7 0 9.336 13.014 7.632 10.8 18.7-1.4 7-7.6 5.6-11.8 5.6" opacity=".2" fill="none" stroke="#151819" stroke-width="6" stroke-linecap="round" stroke-linejoin="round"/>
    <path d="M29 12c-5.788 7.618-18 6-18 13.7 0 9.336 13.014 7.632 10.8 18.7-1.4 7-7.6 5.6-11.8 5.6" fill="none" stroke="#504945" stroke-width="6" stroke-linecap="round" stroke-linejoin="round"/>
    <path d="M33.1 52V21.8c1.53-5.017 3.803-8.8 8.7-8.8 5.6 0 8.2 3.2 8.2 8.8 0 5.6-11 9.7-11 13.2s11.2 14.2 14 17" opacity=".2" fill="none" stroke="#151819" stroke-width="6" stroke-linecap="round" stroke-linejoin="round"/>
    <path d="M33.1 51V20.8c1.53-5.017 3.803-8.8 8.7-8.8 5.6 0 8.2 3.2 8.2 8.8 0 5.6-11 9.7-11 13.2s11.2 14.2 14 17" fill="none" stroke="#79740D" stroke-width="6" stroke-linecap="round" stroke-linejoin="round"/>
    <path d="M6.8 4C5.25 4 4 5.25 4 6.8v1C4 6.25 5.25 5 6.8 5h50.4C58.75 5 60 6.25 60 7.8v-1C60 5.25 58.75 4 57.2 4H6.8z" fill="#F9F5D7" opacity=".2"/>
</svg>
