<svg xmlns="http://www.w3.org/2000/svg" width="64" height="64" version="1">
    <path d="M60 8.95c-3.577 1.85-7.868 3.677-12.55 3.71-11.835.083-25.9-3.583-35.621-3.8C8.688 8.79 6.012 10.077 4 11.444V58.2C4 59.751 5.249 61 6.8 61h50.4c1.551 0 2.8-1.249 2.8-2.8z" opacity=".2"/>
    <path d="M60 7.95c-3.577 1.85-7.868 3.677-12.55 3.71-11.835.083-25.9-3.583-35.621-3.8C8.688 7.79 6.012 9.077 4 10.444V57.2C4 58.751 5.249 60 6.8 60h50.4c1.551 0 2.8-1.249 2.8-2.8z" fill="#066678"/>
    <path d="M6.8 4.999a2.794 2.794 0 0 0-2.8 2.8v3.784c2.012-1.367 4.688-2.654 7.829-2.584 9.72.216 23.786 4.083 35.62 4 4.683-.033 8.974-2.061 12.551-3.91V7.8c0-1.552-1.249-2.8-2.8-2.8z" opacity=".2"/>
    <path d="M6.8 4A2.794 2.794 0 0 0 4 6.8v3.784C6.012 9.217 8.688 7.93 11.829 8c9.72.217 23.786 4.083 35.62 4 4.683-.033 8.974-2.061 12.551-3.91V6.8C60 5.249 58.751 4 57.2 4z" fill="#48B9C7"/>
    <path d="M28.568 15l-.622.016s1.254 1.643 2.141 2.342l-.128.55c-.071.61-.153 1.267-.178 1.458l-.044.344-.339-.24-.618-.241.244.402.243.4h-1.241v-.785l-.594.232-.596.232.205.334.203.333-.802.771-.798.572.295.33.296.332-.523-.307-.525-.306.687-.768.683-.769-.36-.035a73.674 73.674 0 0 1-1.176-.129l-.818-.095-.055.732-.052.733-.968.914-.965.91-.9 3.64c-.494 2-1.074 4.21-1.175 4.667l-.183.831c.9.378 1.7.555 2.555.605.225-.141.533-.756.684-1.365.15-.61.482-1.301.623-1.301h.257l.035 1.312c.02.723.334 2.37.698 3.659.363 1.29.551 2.79.659 3.311l.2.968-.405.254-.405.255.647.372.227.371-.572-.224-.569-.221-.902 1.89-.9 1.886-1.952 1.271-1.255 1.275.314 1.41.312 1.414-.065 2.253-.063 2.256.287.473.29.476h2.149l.891-.468.555-.735-.746-.711c-.156-.392-.371-1.854-.479-3.246l-.194-2.53 1.088-1.889 1.091-1.889 1.666-1.643 1.665-1.646.249-2.136.249-2.136-.482.277-.478.273.454-.5.454-.5.94.492c.516.27 1.52.931 2.232 1.47l1.293.982v2.032l.987 2.187c.542 1.203 1.102 1.692 1.247 2.31.145.617.429 1.335.629 1.594l.363.47 1.119-.325c.615-.18 1.513-.537 1.993-.799.48-.26 2.505.035 4.5-.562l3.63-1.085.166-.506.164-.705h-1.378c-.757 0-1.933.113-2.614.251l-1.236.252.213.35.214.35-.62-.24-.619-.241-1.6.65c-.88.358-1.95.542-2.346.648h-.743l-.637-1.416-.638-1.616-.254-2.204-.257-2.207-1.572-2.14c-.865-1.179-2.14-2.652-2.833-3.274l-1.28-1.238c.468.004.516.053.984-.014l-.29-.143-.099-.505.498.1.498.102-.107-.662-.107-.062.605-.235c.215-.084.396-.413.503-.583H31.19v-1.014c0-.334.114-.607.254-.607.603.41 1.131.491 1.71.738.563-.424 1.814-.642 2.462-.897l.263-1.857c.144-1.02-.052-2.032.08-2.248l.24-.39-.596-.605c-.327-.331-1.419-.682-1.697-.776l-.506-.173.515-.629.106-.552.05-1.247c-.107-.598-.257-.922-.531-1.258-.72-.418-.967-.51-1.75-.435l-1.233-.016zM32 22.253h.375c.206 0 .975.191.975.427v.429l.369-.232.372-.233.287.473.29.473-.46-.287-.137.008-.054.845v.869l-.667.025v.002l-1.369-.032c-.025-.167.085-.99.014-1.602z" opacity=".2"/>
    <path d="M28.568 14l-.622.016s1.254 1.643 2.141 2.342l-.128.55c-.071.61-.153 1.267-.178 1.458l-.044.344-.339-.24-.618-.241.244.402.243.4h-1.241v-.785l-.594.232-.596.232.205.334.203.333-.802.771-.798.572.295.33.296.332-.523-.307-.525-.306.687-.768.683-.769-.36-.035a73.085 73.085 0 0 1-1.176-.129l-.818-.095-.055.732-.052.733-.968.914-.965.91-.9 3.64c-.494 2-1.074 4.21-1.175 4.667l-.183.831c.9.378 1.7.555 2.555.605.225-.141.533-.756.684-1.365.15-.61.482-1.301.623-1.301h.257l.035 1.312c.02.723.334 2.37.698 3.659.363 1.29.551 2.79.659 3.311l.2.968-.405.254-.405.255.647.372.227.371-.572-.224-.569-.221-.902 1.89-.9 1.886-1.952 1.271-1.255 1.275.314 1.41.312 1.414-.065 2.253-.063 2.256.287.473.29.476h2.149l.891-.468.555-.735-.746-.711c-.156-.392-.371-1.854-.479-3.246l-.194-2.53 1.088-1.889 1.091-1.889 1.666-1.643 1.665-1.646.249-2.136.249-2.136-.482.277-.478.273.454-.5.454-.5.94.492c.516.27 1.52.931 2.232 1.47l1.293.982v2.032l.987 2.187c.542 1.203 1.102 1.692 1.247 2.31.145.617.429 1.335.629 1.594l.363.47 1.119-.325c.615-.18 1.513-.537 1.993-.799.48-.26 2.505.035 4.5-.562l3.63-1.085.166-.506.164-.705h-1.378c-.757 0-1.933.113-2.614.251l-1.236.252.213.35.214.35-.62-.24-.619-.241-1.6.65c-.88.358-1.95.542-2.346.648h-.743l-.637-1.416-.638-1.616-.254-2.204-.257-2.207-1.572-2.14c-.865-1.179-2.14-2.652-2.833-3.274l-1.28-1.238c.468.004.516.053.984-.014l-.29-.143-.099-.505.498.1.498.102-.107-.662-.107-.062.605-.235c.215-.084.396-.413.503-.583H31.19v-1.014c0-.334.114-.607.254-.607.603.41 1.131.491 1.71.738.563-.424 1.814-.642 2.462-.897l.263-1.857c.144-1.02-.052-2.032.08-2.248l.24-.39-.596-.605c-.327-.331-1.419-.682-1.697-.776l-.506-.173.515-.629.106-.552.05-1.247c-.107-.598-.257-.922-.531-1.258-.72-.418-.967-.51-1.75-.435l-1.233-.016zM32 21.253h.375c.206 0 .975.191.975.427v.429l.369-.232.372-.233.287.473.29.473-.46-.287-.137.008-.054.845v.869l-.667.025v.002l-1.369-.032c-.025-.167.085-.99.014-1.602z" fill="#F9F5D7"/>
    <path d="M6.8 4C5.25 4 4 5.25 4 6.8v1C4 6.25 5.25 5 6.8 5h50.4C58.75 5 60 6.25 60 7.8v-1C60 5.25 58.75 4 57.2 4H6.8z" opacity=".2" fill="#F9F5D7"/>
</svg>
