<svg xmlns="http://www.w3.org/2000/svg" width="64" height="64" version="1">
    <path d="M4 52v2c0 1.662 1.338 3 3 3h50c1.662 0 3-1.338 3-3v-2c0 1.662-1.338 3-3 3H7c-1.662 0-3-1.338-3-3z" opacity=".2"/>
    <rect width="48" height="56" x="-56" y="-60" rx="3" ry="3" transform="matrix(0 -1 -1 0 0 0)" fill="#CB241D"/>
    <path d="M7 8c-1.662 0-3 1.338-3 3v1c0-1.662 1.338-3 3-3h50c1.662 0 3 1.338 3 3v-1c0-1.662-1.338-3-3-3H7z" opacity=".2" fill="#F9F5D7"/>
    <path d="M6 13v2h22v-2H6zm0 4v2h16v-2H6zm0 4v2h12v-2H6zm0 4v2h10v-2H6z" opacity=".2"/>
    <path d="M6 24h10v2H6zM6 12h22v2H6zM6 16h16v2H6zM6 20h12v2H6z" fill="#F9F5D7"/>
    <path d="M36 37h16v2H36z" opacity=".2"/>
    <path d="M36 36h16v2H36z" fill="#F9F5D7"/>
    <path d="M36 41h22v2H36z" opacity=".2"/>
    <path d="M36 40h22v2H36z" fill="#F9F5D7"/>
    <path d="M36 45h14v2H36z" opacity=".2"/>
    <path d="M36 44h14v2H36z" fill="#F9F5D7"/>
    <path d="M36 49h18v2H36z" opacity=".2"/>
    <path d="M36 48h18v2H36z" fill="#F9F5D7"/>
    <path d="M60 53V32H4v21c0 1.662 1.338 3 3 3h50c1.662 0 3-1.338 3-3z" opacity=".1" fill="#F9F5D7"/>
    <path d="M60 53V11c0-1.662-1.338-3-3-3H32v48h25c1.662 0 3-1.338 3-3z" opacity=".1" fill="#F9F5D7"/>
</svg>
