<svg xmlns="http://www.w3.org/2000/svg" width="64" height="64">
    <path d="M4.234 43.752c-.213.662-.29 1.22-.18 1.63.398 1.483 3.66 3.392 8.39 5.359l.028-.028c-.008.02-.016.024-.024.034 4.494 1.867 10.32 3.776 16.348 5.445 13.536 3.75 28.004 6.228 30.308 3.91.682-.682.906-2.51.844-4.969-.095 1.433-.359 2.48-.844 2.965-2.305 2.318-16.773-.16-30.308-3.91-6.028-1.669-11.854-3.578-16.348-5.445.008-.02.016-.02.024-.034l-.028.028c-4.351-1.809-7.43-3.563-8.21-4.988z" opacity=".2"/>
    <path d="M50.065 13.285C32.882 22.01 22.103 35.431 12.447 49.673c4.494 1.868 10.32 3.778 16.347 5.447 11.072-5.843 21.958-11.914 26.569-25.706-1.614-5.877-3.467-11.593-5.298-16.13z" fill="#48B9C7"/>
    <path d="M43.677 4.085c-7.607.64-41.192 34.502-39.624 40.368.399 1.484 3.663 3.392 8.394 5.359l37.618-36.388c-2.103-5.212-4.16-8.871-5.735-9.291a1.847 1.847 0 0 0-.653-.044z" fill="#066678"/>
    <path d="M55.363 29.485L28.795 55.191c13.536 3.75 28.006 6.229 30.312 3.911 2.275-2.276-.097-16.292-3.752-29.618z" fill="#48B9C7"/>
    <path d="M44.023 4.09a2.11 2.11 0 0 0-.347.008l.004-.004c-7.608.64-41.193 34.499-39.627 40.367.003.012.013.025.017.037C5.447 36.628 36.405 5.71 43.678 5.094l-.002.002c.246-.024.462-.007.652.043 1.574.42 3.632 4.077 5.734 9.289l-.03.031.034-.02c1.832 4.538 3.683 10.253 5.297 16.13l-.004.015c2.584 9.425 4.512 19.16 4.62 24.87.127-5.518-1.878-15.869-4.62-25.868l.004-.018c-1.614-5.876-3.465-11.59-5.297-16.127l-.035.02.032-.031c-2.103-5.212-4.16-8.871-5.735-9.291a1.633 1.633 0 0 0-.305-.05z" opacity=".2" fill="#F9F5D7"/>
</svg>
