<svg xmlns="http://www.w3.org/2000/svg" width="64" height="64">
    <path d="M25.328 4.007a8.92 8.92 0 0 0-2.675.297c-4.773 1.277-7.627 6.212-6.348 10.977a8.93 8.93 0 0 0 2.914 4.55l.887.739.902-.715c1.53-1.214 3.262-2.134 5.2-2.652 1.89-.506 3.805-.581 5.695-.317l1.144.157.387-1.086a8.92 8.92 0 0 0 .21-5.313c-.958-3.573-3.977-6.072-7.44-6.559a8.928 8.928 0 0 0-.876-.078zm16.278 6.035a6.506 6.506 0 0 0-1.957.22c-3.091.827-5.084 3.751-4.848 6.843l.067.914.859.328c2.287.873 4.438 2.263 6.289 4.102l.64.637.856-.301c3.2-1.121 5.08-4.55 4.188-7.88-.76-2.835-3.298-4.747-6.094-4.863zM12.05 18.05c-.392.031-.787.098-1.18.203-3.49.936-5.583 4.559-4.648 8.047.912 3.403 4.383 5.461 7.789 4.696l.851-.192.227-.843c.665-2.459 1.788-4.69 3.274-6.563l.546-.691-.359-.805a6.592 6.592 0 0 0-6.5-3.852zm39.707 22.836c-.396-.018-.796 0-1.199.055l-.977.133-.234.953c-.653 2.672-1.822 5.095-3.422 7.094l-.625.781.508.863c1.461 2.47 4.437 3.79 7.34 3.012 3.489-.935 5.584-4.556 4.648-8.047-.755-2.82-3.264-4.711-6.039-4.844zM19.2 48.953l-.89.332c-3.141 1.157-4.97 4.546-4.086 7.844.935 3.488 4.56 5.583 8.05 4.648 2.951-.79 4.887-3.497 4.852-6.426l-.012-.96-.894-.36c-2.326-.937-4.5-2.435-6.363-4.387zm20.204 7.426l-1.055.379c-.41.146-.798.286-1.188.39-.595.16-1.193.282-1.792.367l-1.165.164L38 61.4z" opacity=".2"/>
    <path d="M25.328 3.008a8.919 8.919 0 0 0-2.675.296c-4.773 1.277-7.627 6.213-6.348 10.977a8.93 8.93 0 0 0 2.914 4.55l.887.74.902-.716c1.53-1.214 3.262-2.134 5.2-2.652 1.89-.506 3.805-.581 5.695-.317l1.144.157.387-1.086a8.92 8.92 0 0 0 .21-5.313c-.958-3.573-3.977-6.072-7.44-6.558a8.928 8.928 0 0 0-.876-.078zm16.278 6.035a6.506 6.506 0 0 0-1.957.218c-3.091.829-5.084 3.753-4.848 6.844l.067.914.859.328c2.287.873 4.438 2.263 6.289 4.102l.64.637.856-.301c3.2-1.12 5.08-4.55 4.188-7.879-.76-2.836-3.298-4.748-6.094-4.863zM12.05 17.05c-.392.03-.787.097-1.18.203-3.49.935-5.583 4.558-4.648 8.047.912 3.403 4.383 5.46 7.789 4.695l.852-.191.226-.844c.665-2.459 1.788-4.69 3.274-6.563l.546-.691-.359-.805a6.592 6.592 0 0 0-6.5-3.851zm39.707 22.836c-.396-.02-.796-.001-1.199.054l-.977.133-.234.953c-.653 2.672-1.822 5.095-3.422 7.094l-.625.781.508.864c1.461 2.47 4.437 3.79 7.34 3.011 3.489-.934 5.584-4.556 4.648-8.047-.755-2.82-3.264-4.711-6.039-4.843zM19.2 47.953l-.89.332c-3.141 1.157-4.97 4.546-4.086 7.844.935 3.489 4.56 5.583 8.05 4.648 2.951-.79 4.887-3.497 4.852-6.425l-.012-.961-.894-.36c-2.326-.937-4.5-2.435-6.363-4.387zm20.204 7.426l-1.055.379c-.41.146-.798.286-1.188.39-.595.16-1.193.282-1.792.368l-1.165.164L38 60.398z" fill="#417B58"/>
    <path d="M24.664 3.006c-.667.022-1.34.12-2.012.299-4.152 1.11-6.814 4.991-6.601 9.119.227-3.74 2.787-7.099 6.601-8.12a8.919 8.919 0 0 1 3.551-.218c3.464.486 6.483 2.985 7.442 6.559.151.565.237 1.132.271 1.695a8.695 8.695 0 0 0-.271-2.695c-.96-3.574-3.978-6.073-7.442-6.56a8.927 8.927 0 0 0-1.539-.08zm16.941 6.037a6.506 6.506 0 0 0-1.957.219c-3.09.828-5.084 3.752-4.847 6.843l.004.045c.192-2.72 2.074-5.146 4.843-5.888a6.506 6.506 0 0 1 1.957-.219c2.797.116 5.334 2.027 6.094 4.863.103.383.156.765.184 1.145a6.282 6.282 0 0 0-.184-2.145c-.76-2.836-3.297-4.747-6.094-4.863zm-29.554 8.008c-.392.03-.787.098-1.18.203-3.091.828-5.05 3.766-4.812 6.851.204-2.7 2.058-5.113 4.812-5.851a6.548 6.548 0 0 1 1.18-.203 6.591 6.591 0 0 1 6.5 3.851l.074.166.285-.361-.36-.805a6.591 6.591 0 0 0-6.5-3.851zm39.11 22.836c-.2.009-.4.027-.602.054l-.977.133-.234.953c-.654 2.672-1.823 5.095-3.422 7.094l-.625.781.34.577.285-.358c1.6-2 2.768-4.422 3.422-7.094l.234-.953.977-.133a6.533 6.533 0 0 1 1.199-.054c2.775.132 5.283 2.024 6.039 4.843.105.391.161.783.19 1.172a6.372 6.372 0 0 0-.19-2.172c-.756-2.82-3.264-4.711-6.04-4.843a6.435 6.435 0 0 0-.597 0zm-31.962 8.066l-.89.332c-2.786 1.027-4.509 3.812-4.25 6.729.166-2.534 1.786-4.821 4.25-5.729l.89-.332.656.692c1.863 1.951 4.038 3.45 6.364 4.386l.894.36.002.103c.001-.048.01-.094.01-.142l-.012-.961-.894-.36c-2.326-.937-4.501-2.435-6.364-4.386l-.656-.692zm20.203 7.426l-1.054.379c-.41.146-.799.286-1.188.39-.595.16-1.193.282-1.793.368l-1.164.164.893.875.271-.04c.6-.085 1.198-.207 1.793-.367.39-.104.778-.244 1.188-.39l.744-.268.31-1.111z" opacity=".1" fill="#F9F5D7"/>
    <path d="M30.168 14.008c-1.327.04-2.664.232-3.99.582-10.613 2.806-16.486 14.824-13.323 26.472 1.529 5.63 4.971 10.519 9.633 13.604 4.661 3.085 10.191 4.101 15.32 2.746 5.128-1.356 9.404-4.964 11.878-9.935 2.473-4.972 2.977-10.906 1.449-16.535-2.768-10.193-11.674-17.217-20.967-16.934z" opacity=".2"/>
    <path d="M30.168 13.008c-1.327.04-2.664.232-3.99.582-10.613 2.806-16.486 14.824-13.323 26.472 1.529 5.63 4.971 10.519 9.633 13.604 4.661 3.085 10.191 4.101 15.32 2.746 5.128-1.356 9.404-4.964 11.878-9.935 2.473-4.972 2.977-10.906 1.449-16.535-2.768-10.193-11.674-17.217-20.967-16.934z" fill="#7CB668"/>
    <g fill="none" stroke="#578D57" stroke-width="1.5">
        <path d="M25.875 33.75l-1.542-4.625 3.164-2.587 3.615 2.626-1.487 4.669zM27.501 41.551c-3.968-.16-5.543-2.009-5.543-2.009l3.57-4.163 4.465.168 3.132 4.12s-2.89 1.994-5.624 1.884zM18.453 33.843c-.849-2.968.172-6.884.172-6.884l4 2.167 1.493 4.629-3.582 4.233c0-.001-1.465-1.99-2.083-4.145zM19.458 25.125s.5-1.958 3.039-3.822c2.237-1.643 4.465-1.72 4.465-1.72l-.037 4.981-3.521 2.75zM32.084 27.834l-3.459-2.875L29 19.75s1.834-.042 3.959 1.667c2.228 1.791 3.362 4.983 3.362 4.983zM31.292 34.042l1.313-4.464 4.187-1.536s.677 2.663-.042 5.667c-.54 2.256-2.084 4.361-2.084 4.361z" transform="matrix(1.21082 -.31 .32444 1.1569 -11.35 8.21)"/>
    </g>
    <path d="M30.168 13.008a17.72 17.72 0 0 0-3.992.582C17.468 15.892 11.99 24.404 12.04 33.818c.329-9.012 5.735-17.007 14.135-19.228a17.72 17.72 0 0 1 3.992-.582c9.293-.283 18.197 6.741 20.965 16.933.495 1.824.763 3.679.828 5.522a24.39 24.39 0 0 0-.828-6.522C48.365 19.75 39.46 12.725 30.168 13.008z" opacity=".2" fill="#F9F5D7"/>
</svg>
