<svg xmlns="http://www.w3.org/2000/svg" width="64" height="64" version="1">
    <rect width="56" height="56" x="4" y="5" rx="28" ry="28" opacity=".2"/>
    <rect width="56" height="56" x="4" y="4" rx="28" ry="28" fill="#066678"/>
    <path d="M24.855 48.02C14.102 34.894 38.298 16.343 37.92 17.458l1.297 1.466c-5.126.085-17.284 20.315-11.283 26.133 3.759 3.838 12.36-3.454 13.087-2.13-4.44 5.21-12.278 9.843-16.167 5.095z" opacity=".2"/>
    <path d="M24.855 47.02C14.102 33.894 38.298 15.343 37.92 16.458l1.297 1.466c-5.126.085-17.284 20.315-11.283 26.133 3.759 3.838 12.36-3.454 13.087-2.13-4.44 5.21-12.278 9.843-16.167 5.095z" fill="#48B9C7"/>
    <path d="M49.77 32.813c-5.992 15.876-34.156 4.197-33.002 3.966l.622-1.856c2.637 4.396 26.235 4.81 28.273-3.295 1.444-5.174-9.172-8.978-8.388-10.27 6.733 1.241 14.663 5.712 12.496 11.455z" opacity=".2"/>
    <path d="M49.77 31.813c-5.992 15.876-34.156 4.197-33.002 3.966l.622-1.856c2.637 4.396 26.235 4.81 28.273-3.295 1.444-5.174-9.172-8.978-8.388-10.27 6.733 1.241 14.663 5.712 12.496 11.455z" fill="#48B9C7"/>
    <path d="M23.914 17.852c16.745-2.748 20.713 27.481 19.935 26.597l-1.917.39c2.488-4.482-8.952-25.126-16.99-22.838-5.204 1.337-3.19 12.432-4.7 12.399-2.292-6.45-2.385-15.555 3.672-16.548z" opacity=".2"/>
    <path d="M23.914 16.852c16.745-2.748 20.713 27.482 19.935 26.597l-1.917.39c2.488-4.481-8.952-25.126-16.99-22.837-5.204 1.336-3.19 12.432-4.7 12.398-2.292-6.45-2.385-15.554 3.672-16.548z" fill="#48B9C7"/>
    <path d="M38.93 15a3 3 0 0 0-1.43.402 3 3 0 0 0-1.098 4.098 3 3 0 0 0 4.098 1.098 3 3 0 0 0 1.098-4.098A3 3 0 0 0 38.93 15zM17.07 33a3 3 0 0 0-.21.004 3 3 0 0 0-2.458 1.496 3 3 0 0 0 1.098 4.098 3 3 0 0 0 4.098-1.098 3 3 0 0 0-1.098-4.098A3 3 0 0 0 17.07 33zM43 43a3 3 0 0 0-3 3 3 3 0 0 0 3 3 3 3 0 0 0 3-3 3 3 0 0 0-3-3z" opacity=".2"/>
    <path d="M38.93 14a3 3 0 0 0-1.43.402 3 3 0 0 0-1.098 4.098 3 3 0 0 0 4.098 1.098 3 3 0 0 0 1.098-4.098A3 3 0 0 0 38.93 14zM17.07 32a3 3 0 0 0-.21.004 3 3 0 0 0-2.458 1.496 3 3 0 0 0 1.098 4.098 3 3 0 0 0 4.098-1.098 3 3 0 0 0-1.098-4.098A3 3 0 0 0 17.07 32zM43 42a3 3 0 0 0-3 3 3 3 0 0 0 3 3 3 3 0 0 0 3-3 3 3 0 0 0-3-3z" fill="#F9F5D7"/>
    <path d="M32 4C16.488 4 4 16.488 4 32c0 .113.011.224.018.336C4.369 17.134 16.71 5 32 5c15.29 0 27.63 12.134 27.982 27.336.007-.112.018-.223.018-.336C60 16.488 47.512 4 32 4z" opacity=".2" fill="#F9F5D7"/>
</svg>
