<svg xmlns="http://www.w3.org/2000/svg" width="64" height="64">
    <rect width="56" height="56" x="4" y="5" rx="2.8" ry="2.8" opacity=".2"/>
    <rect width="56" height="56" x="4" y="4" rx="2.8" ry="2.8" fill="#F9F5D7"/>
    <path d="M6.8 4A2.794 2.794 0 0 0 4 6.8v1C4 6.249 5.249 5 6.8 5h50.4C58.751 5 60 6.249 60 7.8v-1C60 5.249 58.751 4 57.2 4z" opacity=".2" fill="#F9F5D7"/>
    <path d="M44 14l-15 4-2.309 4H22L11 33l11 11h4.691L29 48l15 4 4-15-2.309-4L48 29zm-5.625 5.744L31.877 31H18.789l8.227-8.229zm3.463 2l3 11.256-3 11.256L35.34 33zM18.789 35h13.088l6.498 11.256-11.359-3.027z" opacity=".2"/>
    <path d="M44 13l-15 4-2.309 4H22L11 32l11 11h4.691L29 47l15 4 4-15-2.309-4L48 28zm-5.625 5.744L31.877 30H18.789l8.227-8.229zm3.463 2l3 11.256-3 11.256L35.34 32zM18.789 34h13.088l6.498 11.256-11.359-3.027z" fill="#322F2E"/>
</svg>
