<svg xmlns="http://www.w3.org/2000/svg" width="64" height="64" version="1">
    <rect width="42" height="32" x="-56" y="-48" rx="2.5" ry="2.5" transform="matrix(0 -1 -1 0 0 0)" opacity=".2"/>
    <rect width="42" height="32" x="-55" y="-48" rx="2.5" ry="2.5" transform="matrix(0 -1 -1 0 0 0)" fill="#928274"/>
    <rect width="40" height="52" x="-50" y="-58" rx="2.5" ry="2.5" transform="matrix(0 -1 -1 0 0 0)" opacity=".2"/>
    <rect width="40" height="52" x="-49" y="-58" rx="2.5" ry="2.5" transform="matrix(0 -1 -1 0 0 0)" fill="#504945"/>
    <rect width="32" height="44" x="-45" y="-54" rx="0" ry="0" transform="matrix(0 -1 -1 0 0 0)" fill="#322F2E"/>
    <path d="M8.5 9A2.495 2.495 0 0 0 6 11.5v1C6 11.115 7.115 10 8.5 10h47c1.385 0 2.5 1.115 2.5 2.5v-1c0-1.385-1.115-2.5-2.5-2.5zM10 45h44v1H10z" opacity=".1" fill="#F9F5D7"/>
    <path d="M42 18a4 4 0 1 0 0 8 4 4 0 0 0 0-8z" opacity=".2"/>
    <path d="M42 17a4 4 0 1 0 0 8 4 4 0 0 0 0-8zM21 29c-5.5 0-11 4-11 14.124V45h44s-3.667-12-9.166-12c-5.5 0-5.5 6-9.167 6-3.666 0-9.166-10-14.666-10z" fill="#B7BB25"/>
</svg>
