<svg xmlns="http://www.w3.org/2000/svg" width="64" height="64" version="1">
    <path d="M18 5l3 20.357L4 40.408V61l17-15.05 20.258 9.45L60 46.953 39.607 37l-2.771-19.672z" opacity=".2"/>
    <path d="M36.835 16.329L18 4l3 20.357L22.2 41.8 39.608 36z" fill="#B7BB25"/>
    <path d="M4 39.408l17-15.051L32 33.4 21 44.949 4 60z" fill="#79740D"/>
    <path d="M39.608 36L60 45.953 41.258 54.4 21 44.949 22.2 27.8z" fill="#B7BB25"/>
    <path d="M22.2 27.8L21 44.95l.068.03L22.2 28.8 39.607 37l19.329 9.434 1.064-.48L39.607 36 22.2 27.8z" opacity=".2" fill="#F9F5D7"/>
    <path d="M39.607 37L21 25.357V45.95zM21 45.95c0-.001 0 0 0 0z" opacity=".2"/>
    <path d="M39.607 36L21 24.357V44.95zM21 44.95c0-.001 0 0 0 0z" fill="#F9F5D7"/>
    <path d="M18 4l.164 1.107 18.672 12.221 2.637 18.717.134-.045-2.771-19.672L18 4z" opacity=".2" fill="#F9F5D7"/>
    <path d="M21 24.357L4 39.408v1l17-15.05 10.465 8.603.535-.56-11-9.044z" opacity=".1" fill="#F9F5D7"/>
</svg>
