<svg xmlns="http://www.w3.org/2000/svg" width="64" height="64" version="1">
    <path d="M32 4c-.675 0-1.34.033-2.002.08l-.249.019c-10.002.79-18.473 6.794-22.753 15.307l-.003.005c-.277.552-.56 1.1-.801 1.671-1.31 2.96-2.023 6.101-2.152 9.39-.006.106-.006.213-.011.32-.009.314-.027.627-.025.943 0 .09-.004.176-.004.266 0 3.256.579 6.365 1.591 9.267.408 1.301.877 2.615 1.444 3.946 1.411 3.316 1.587 4.22 1.364 6.99-.154 1.929-.677 3.9-1.331 5.009C6.475 58.217 6 59.255 6 59.519c0 .817 4.719.53 8.896-.539 4.894-1.253 5.322-1.251 9.335.008 1.836.576 3.93.888 6.294.974.1.005.2.004.298.008.324.009.634.03.968.03.028 0 .053-.003.08-.003.043 0 .085.003.128.003.782 0 1.554-.039 2.319-.101 6.922-.492 12.482-3.054 17.486-8.05a27.752 27.752 0 0 0 7.924-15.986c.04-.303.084-.606.115-.91.068-.654.108-1.316.13-1.983.006-.167.013-.335.015-.503.004-.154.012-.31.012-.466 0-15.253-12.078-27.574-27.227-27.98a25.928 25.928 0 0 0-.353-.008C32.278 4.01 32.14 4 32 4z" fill="#7CB668"/>
    <g transform="matrix(1.99999 0 0 1.99999 0 1)" opacity=".2">
        <circle cx="16" cy="16" r="2"/>
        <circle cx="8" cy="16" r="2"/>
        <circle cx="24" cy="16" r="2"/>
    </g>
    <g transform="matrix(1.99999 0 0 1.99999 0 0)" fill="#F9F5D7">
        <circle cx="16" cy="16" r="2"/>
        <circle cx="8" cy="16" r="2"/>
        <circle cx="24" cy="16" r="2"/>
    </g>
    <path d="M32 4c-.674 0-1.338.032-2 .078l-.25.02c-10.002.79-18.474 6.808-22.754 15.336l-.004.003c-.277.552-.56 1.103-.8 1.676-1.311 2.965-2.024 6.113-2.153 9.407-.006.106-.003.214-.008.32-.008.316-.03.627-.027.943-.001.09-.004.176-.004.266 0 .12.01.237.016.355.006-.187.01-.375.015-.564.005-.106.002-.214.008-.32.13-3.294.842-6.442 2.152-9.407.241-.573.524-1.124.801-1.675l.004-.004c4.28-8.528 12.752-14.546 22.754-15.336l.25-.02A28.473 28.473 0 0 1 32 5c.14 0 .278.01.418.012.118.002.234.004.352.008 14.983.402 26.956 12.48 27.218 27.527v-.03c.002-.156.012-.312.012-.468 0-15.28-12.08-27.623-27.23-28.03a20.615 20.615 0 0 0-.352-.007C32.278 4.009 32.14 4 32 4zM8.418 51.873c-.01.148-.007.256-.02.416-.154 1.931-.678 3.904-1.332 5.014C6.474 58.31 6 59.353 6 59.617c0 .187.27.309.703.383.124-.234.22-.449.363-.693.025-.043.046-.106.07-.15.088-.226.239-.525.395-.839.43-1.113.752-2.58.867-4.025.079-.98.078-1.719.02-2.42z" opacity=".2" fill="#F9F5D7"/>
    <path d="M4.012 32.5c-.002.081-.009.162-.008.244 0 .09-.004.178-.004.268 0 3.254.577 6.36 1.59 9.261.407 1.3.879 2.613 1.445 3.944.913 2.144 1.277 3.292 1.383 4.576.048-.708.057-1.295.021-1.852-.006.28 0 .532-.021.853-.106-1.284-.47-2.433-1.383-4.577a42.358 42.358 0 0 1-1.445-3.943A28.07 28.07 0 0 1 4.012 32.5zm55.97.168l-.007.312c-.023.666-.065 1.33-.133 1.984-.031.304-.073.606-.113.91a27.732 27.732 0 0 1-7.926 15.978c-5.004 4.993-10.562 7.555-17.485 8.047a28.61 28.61 0 0 1-2.32.101c-.044 0-.085-.003-.129-.003-.027 0-.05.003-.078.003-.334 0-.645-.022-.969-.03-.099-.005-.198-.004-.297-.009-2.363-.085-4.46-.396-6.296-.972-4.014-1.259-4.442-1.26-9.336-.008-3.608.924-7.602 1.259-8.63.809-.155.339-.265.618-.265.73 0 .816 4.717.53 8.895-.54 4.894-1.252 5.322-1.25 9.336.009 1.835.576 3.933.886 6.296.972.1.005.198.004.297.008.324.009.635.031.969.031.027 0 .051-.004.078-.004.044 0 .085.004.129.004.782 0 1.555-.04 2.32-.102 6.923-.492 12.48-3.053 17.485-8.047a27.732 27.732 0 0 0 7.926-15.978c.04-.303.082-.605.113-.91.068-.653.11-1.317.133-1.983.005-.168.011-.332.013-.5.002-.158.012-.315.012-.47 0-.116-.01-.229-.018-.342z" opacity=".2"/>
</svg>
