<svg xmlns="http://www.w3.org/2000/svg" width="64" height="64" version="1">
    <path d="M32 4a12 12 0 0 0-9.598 4.82A12 12 0 0 0 12.199 12.2a12 12 0 0 0-3.476 8.998 12 12 0 0 0 .101 1.201 12 12 0 0 0-.084.069A12 12 0 0 0 4 32a12 12 0 0 0 .023.455 12 12 0 0 0 4.797 9.147 12 12 0 0 0-.088.931 12 12 0 0 0-.02 1.2A12 12 0 0 0 12.2 51.8a12 12 0 0 0 10.2 3.375A12 12 0 0 0 32 60a12 12 0 0 0 9.598-4.82A12 12 0 0 0 51.8 51.8a12 12 0 0 0 .803-.89 12 12 0 0 0 2.673-7.11 12 12 0 0 0-.017-1.267 12 12 0 0 0-.04-.596 12 12 0 0 0-.044-.336 12 12 0 0 0 4.8-9.045 12 12 0 0 0 0-.005 12 12 0 0 0 .024-.55 12 12 0 0 0-4.732-9.533 12 12 0 0 0-.088-.07 12 12 0 0 0 .107-1.13 12 12 0 0 0-3.486-9.068 12 12 0 0 0-10.2-3.375A12 12 0 0 0 32 4.002z" fill="#F9F5D7"/>
    <rect width="9.368" height="18.735" x="-42.87" y=".53" rx="4.684" ry="4.684" transform="scale(-1 1) rotate(-45)" fill="#BDAD93"/>
    <circle cx="32" cy="32" r="12" fill="#BDAD93"/>
    <rect width="9.368" height="18.735" x="2.39" y="45.79" rx="4.684" ry="4.684" transform="rotate(-45)" fill="#BDAD93"/>
    <circle cx="27" cy="30" r="3" opacity=".2"/>
    <circle cx="27.001" cy="29" r="3" fill="#504945"/>
    <circle cx="37" cy="30" r="3" opacity=".2"/>
    <circle cx="37" cy="29" r="3" fill="#504945"/>
    <path d="M32 4a12 12 0 0 0-9.598 4.82A12 12 0 0 0 12.199 12.2a12 12 0 0 0-3.476 8.998 12 12 0 0 1 3.476-7.998A12 12 0 0 1 22.402 9.82 12 12 0 0 1 32 5a12 12 0 0 1 9.602 4.824A12 12 0 0 1 51.801 13.2a12 12 0 0 1 3.486 8.069 12 12 0 0 0-3.486-9.069 12 12 0 0 0-10.199-3.375A12 12 0 0 0 32 4zM8.74 22.467A12 12 0 0 0 4 32a12 12 0 0 0 .023.449 12 12 0 0 1 4.801-9.051 12 12 0 0 1-.084-.931zm46.528 0a12 12 0 0 1-.088.931 12 12 0 0 1 4.797 9.153A12 12 0 0 0 60 32a12 12 0 0 0-4.732-9.533zM8.732 42.533a12 12 0 0 0-.02 1.199 12 12 0 0 1 .108-1.13 12 12 0 0 1-.088-.069zm46.528 0a12 12 0 0 1-.084.069 12 12 0 0 1 .101 1.199 12 12 0 0 0-.017-1.268z" opacity=".2" fill="#F9F5D7"/>
    <path d="M55.287 21.268a12 12 0 0 1-.107 1.13 12 12 0 0 1 .087.07 12 12 0 0 0 .02-.2 12 12 0 0 0 0-1zm-46.555.033a12 12 0 0 0-.01.897 12 12 0 0 0 .024.265 12 12 0 0 1 .078-.064 12 12 0 0 1-.092-1.098zm-4.709 11.16a12 12 0 0 0-.023.54 12 12 0 0 0 .023.454 12 12 0 0 0 4.71 9.074 12 12 0 0 1 .087-.927 12 12 0 0 1-4.797-9.14zm55.953.096a12 12 0 0 1-4.8 9.045 12 12 0 0 1 .045.336 12 12 0 0 1 .039.593 12 12 0 0 0 4.716-8.974 12 12 0 0 0 0-.006A12 12 0 0 0 60 33a12 12 0 0 0-.023-.443zM8.727 43.896a12 12 0 0 0-.013.836A12 12 0 0 0 12.2 52.8a12 12 0 0 0 10.199 3.375A12 12 0 0 0 32 61a12 12 0 0 0 9.598-4.82A12 12 0 0 0 51.8 52.8a12 12 0 0 0 .802-.89 12 12 0 0 0 2.674-7.11 12 12 0 0 0-.01-.838 12 12 0 0 1-2.664 6.947 12 12 0 0 1-.802.891 12 12 0 0 1-10.203 3.379A12 12 0 0 1 32 60a12 12 0 0 1-9.602-4.824 12 12 0 0 1-10.2-3.375 12 12 0 0 1-3.472-7.905z" opacity=".2"/>
</svg>
