<svg xmlns="http://www.w3.org/2000/svg" width="64" height="64">
    <rect width="56" height="56" x="4" y="4" rx="2.8" ry="2.8" fill="#B57514"/>
    <path d="M10.68 11a.678.678 0 0 0-.68.68v42.64c0 .378.303.68.68.68h42.64c.378 0 .68-.302.68-.68V11.68a.677.677 0 0 0-.68-.68z" opacity=".2"/>
    <path d="M10.68 10.001a.678.678 0 0 0-.68.68v42.64c0 .376.303.679.68.679h42.642a.676.676 0 0 0 .678-.68V10.68a.677.677 0 0 0-.68-.68z" fill="#F9F5D7"/>
    <path d="M18 10v46l14-8 14 8V10z" fill="#FA4934"/>
    <path d="M6.8 4C5.25 4 4 5.25 4 6.8v1C4 6.25 5.25 5 6.8 5h50.4C58.75 5 60 6.25 60 7.8v-1C60 5.25 58.75 4 57.2 4H6.8z" opacity=".2" fill="#F9F5D7"/>
    <path d="M4 57.2v1C4 59.75 5.25 61 6.8 61h50.4c1.55 0 2.8-1.25 2.8-2.8v-1c0 1.55-1.25 2.8-2.8 2.8H6.8C5.25 60 4 58.75 4 57.2zM32 21l3 7 7 1-5 5 1 7-6-3-6 3 1-7-5-5 7-1z" opacity=".2"/>
    <path d="M32 20l3 7 7 1-4.999 5 1 7-6-3-6 3 1-7-5-5 7-1z" fill="#F9F5D7"/>
    <path d="M32 20l3 7 7 1-4.999 5 1 7-6-3-6 3 1-7-5-5 7-1z" fill="#F9F5D7"/>
</svg>
