<svg xmlns="http://www.w3.org/2000/svg" width="64" height="64" version="1">
    <rect width="56" height="56" x="4" y="5" rx="28" ry="28" opacity=".2"/>
    <rect width="56" height="56" x="4" y="4" rx="28" ry="28" fill="#066678"/>
    <path d="M16.959 16.959a4 4 0 0 0-2.787 6.869L28 37.656V52a4 4 0 0 0 .014.4 4 4 0 0 0 .279 1.162 4 4 0 0 0 .611 1.028 4 4 0 0 0 .887.802 4 4 0 0 0 .344.203 4 4 0 0 0 .74.301 4 4 0 0 0 .785.147 4 4 0 0 0 1.194-.078 4 4 0 0 0 1.117-.428 4 4 0 0 0 .338-.213 4 4 0 0 0 .314-.248 4 4 0 0 0 .775-.908 4 4 0 0 0 .194-.352 4 4 0 0 0 .158-.367 4 4 0 0 0 .121-.38 4 4 0 0 0 .129-1.07V37.657l13.828-13.828a4 4 0 1 0-5.656-5.656L32 30.343 19.828 18.172a4 4 0 0 0-2.869-1.213z" opacity=".2"/>
    <path d="M47 20L32 35v16M17 20l15 15v16" fill="none" stroke="#73C48F" stroke-width="8" stroke-linecap="round" stroke-linejoin="round"/>
    <path d="M32 4C16.488 4 4 16.488 4 32c0 .113.011.224.018.336C4.369 17.134 16.71 5 32 5c15.29 0 27.63 12.134 27.982 27.336.007-.112.018-.223.018-.336C60 16.488 47.512 4 32 4z" opacity=".2" fill="#F9F5D7"/>
    <path d="M46.963 15.943a4 4 0 0 0-2.791 1.229L32 29.344 19.828 17.172a4 4 0 0 0-2.869-1.213 4 4 0 0 0-3.967 4.521 4 4 0 0 1 3.967-3.521 4 4 0 0 1 2.87 1.213L32 30.344l12.172-12.172a4 4 0 0 1 6.851 2.271 4 4 0 0 0-4.06-4.5z" opacity=".2" fill="#F9F5D7"/>
</svg>
