<?xml version="1.0" encoding="UTF-8" standalone="no"?>
<svg
   xmlns:dc="http://purl.org/dc/elements/1.1/"
   xmlns:cc="http://creativecommons.org/ns#"
   xmlns:rdf="http://www.w3.org/1999/02/22-rdf-syntax-ns#"
   xmlns:svg="http://www.w3.org/2000/svg"
   xmlns="http://www.w3.org/2000/svg"
   xmlns:sodipodi="http://sodipodi.sourceforge.net/DTD/sodipodi-0.dtd"
   xmlns:inkscape="http://www.inkscape.org/namespaces/inkscape"
   width="32"
   height="32"
   viewBox="0 0 32 32"
   version="1.1"
   id="svg156"
   sodipodi:docname="stick-toggled-active.svg"
   inkscape:version="0.92.5 (2060ec1f9f, 2020-04-08)">
  <metadata
     id="metadata162">
    <rdf:RDF>
      <cc:Work
         rdf:about="">
        <dc:format>image/svg+xml</dc:format>
        <dc:type
           rdf:resource="http://purl.org/dc/dcmitype/StillImage" />
      </cc:Work>
    </rdf:RDF>
  </metadata>
  <defs
     id="defs160" />
  <sodipodi:namedview
     pagecolor="#ffffff"
     bordercolor="#666666"
     borderopacity="1"
     objecttolerance="10"
     gridtolerance="10"
     guidetolerance="10"
     inkscape:pageopacity="0"
     inkscape:pageshadow="2"
     inkscape:window-width="1920"
     inkscape:window-height="1007"
     id="namedview158"
     showgrid="false"
     inkscape:zoom="7.375"
     inkscape:cx="2.2372881"
     inkscape:cy="13.423728"
     inkscape:window-x="0"
     inkscape:window-y="0"
     inkscape:window-maximized="1"
     inkscape:current-layer="svg156" />
  <rect
     width="32"
     height="32"
     fill="#E0E0E0"
     id="rect146"
     style="fill:#232323;fill-opacity:1" />
  <rect
     width="32"
     height="1"
     fill="#FFFFFF"
     fill-opacity="0.4"
     id="rect148"
     style="fill:#000000;fill-opacity:1" />
  <g
     fill="#000000"
     opacity="0.6"
     id="g154"
     style="fill:#ffffff;fill-opacity:1;opacity:1">
    <circle
       cx="16"
       cy="16"
       r="12"
       opacity="0"
       id="circle150"
       style="fill:#ffffff;fill-opacity:1" />
    <path
       d="m16 10a6 6 0 0 0 -6 6 6 6 0 0 0 6 6 6 6 0 0 0 6 -6 6 6 0 0 0 -6 -6zm0 2a4 4 0 0 1 4 4 4 4 0 0 1 -4 4 4 4 0 0 1 -4 -4 4 4 0 0 1 4 -4zm0 2a2 2 0 0 0 -2 2 2 2 0 0 0 2 2 2 2 0 0 0 2 -2 2 2 0 0 0 -2 -2z"
       id="path152"
       style="fill:#ffffff;fill-opacity:1" />
  </g>
</svg>
