<svg xmlns="http://www.w3.org/2000/svg" width="64" height="64" version="1">
    <rect width="44" height="56" x="-54" y="5" rx="2.75" ry="2.8" transform="scale(-1 1)" opacity=".2"/>
    <rect width="44" height="56" x="-54" y="4" rx="2.75" ry="2.8" transform="scale(-1 1)" fill="#CB8819"/>
    <path d="M16.75 11A2.744 2.744 0 0 0 14 13.75v5.5A2.744 2.744 0 0 0 16.75 22h11.5A2.744 2.744 0 0 0 31 19.25v-5.5A2.744 2.744 0 0 0 28.25 11h-11.5zm19 0A2.744 2.744 0 0 0 33 13.75v5.5A2.744 2.744 0 0 0 35.75 22h11.5A2.744 2.744 0 0 0 50 19.25v-5.5A2.744 2.744 0 0 0 47.25 11h-11.5zm-19 13A2.744 2.744 0 0 0 14 26.75v5.5A2.744 2.744 0 0 0 16.75 35h11.5A2.744 2.744 0 0 0 31 32.25v-5.5A2.744 2.744 0 0 0 28.25 24h-11.5zm19 0A2.744 2.744 0 0 0 33 26.75v5.5A2.744 2.744 0 0 0 35.75 35h11.5A2.744 2.744 0 0 0 50 32.25v-5.5A2.744 2.744 0 0 0 47.25 24h-11.5zm-19 13A2.744 2.744 0 0 0 14 39.75v5.5A2.744 2.744 0 0 0 16.75 48h11.5A2.744 2.744 0 0 0 31 45.25v-5.5A2.744 2.744 0 0 0 28.25 37h-11.5zm19 0A2.744 2.744 0 0 0 33 39.75v5.5A2.744 2.744 0 0 0 35.75 48h11.5A2.744 2.744 0 0 0 50 45.25v-5.5A2.744 2.744 0 0 0 47.25 37h-11.5z" opacity=".2"/>
    <rect width="17" height="11" x="14" y="10" ry="2.75" fill="#FAEEBB"/>
    <path d="M18 12v1h8v-1zm-1 3v1h7v-1zm0 3v1h11v-1z" opacity=".2"/>
    <rect width="17" height="11" x="33" y="10" ry="2.75" fill="#FAEEBB"/>
    <path d="M37 12v1h8v-1zm-1 3v1h7v-1zm0 3v1h11v-1z" opacity=".2"/>
    <rect width="17" height="11" x="14" y="23" ry="2.75" fill="#FECE4F"/>
    <path d="M18 25v1h8v-1zm-1 3v1h7v-1zm0 3v1h11v-1z" opacity=".2"/>
    <rect width="17" height="11" x="33" y="23" ry="2.75" fill="#FECE4F"/>
    <path d="M37 25v1h8v-1zm-1 3v1h7v-1zm0 3v1h11v-1z" opacity=".2"/>
    <rect width="17" height="11" x="14" y="36" ry="2.75" fill="#F9BD2E"/>
    <path d="M18 38v1h8v-1zm-1 3v1h7v-1zm0 3v1h11v-1z" opacity=".2"/>
    <rect width="17" height="11" x="33" y="36" ry="2.75" fill="#F9BD2E"/>
    <path d="M37 38v1h8v-1zm-1 3v1h7v-1zm0 3v1h11v-1z" opacity=".2"/>
    <path d="M12.75 4C11.226 4 10 5.25 10 6.8v1C10 6.25 11.226 5 12.75 5h38.5C52.773 5 54 6.25 54 7.8v-1C54 5.25 52.773 4 51.25 4h-38.5z" fill="#F9F5D7" opacity=".1"/>
</svg>
