<svg xmlns="http://www.w3.org/2000/svg" width="64" height="64">
    <rect width="56" height="56" x="4" y="5" rx="2.8" ry="2.8" opacity=".2"/>
    <rect width="56" height="56" x="4" y="4" rx="2.8" ry="2.8" fill="#066678"/>
    <path d="M6.8 4C5.25 4 4 5.25 4 6.8v1C4 6.25 5.25 5 6.8 5H57.2A2.796 2.796 0 0 1 60 7.8v-1C60 5.25 58.75 4 57.199 4H6.801z" fill="#F9F5D7" opacity=".2"/>
    <path d="M44.928 18.717c-5.077 1.109-10.795 1.749-15.616 2.005l.256-1.28c.299-1.408.512-2.816.981-4.309l-5.973-.256c.043 1.408 0 2.432-.213 4.267-.043.512-.171 1.066-.256 1.706-2.56-.042-5.76-.384-8.278-.81v5.248c2.134.213 4.608.384 7.296.426-1.109 4.651-2.816 10.283-4.821 14.166l4.992 1.792c.427-.726.725-1.28 1.195-1.835 2.517-3.243 6.826-4.992 11.69-4.992 4.096 0 6.315 2.133 6.315 4.651 0 6.229-9.344 7.338-18.603 5.845l1.494 5.461c13.653 1.451 22.784-1.962 22.784-11.477 0-5.376-4.523-9.045-11.35-9.045-3.882 0-7.082.768-10.496 2.645.683-2.048 1.366-4.736 1.92-7.296 5.675-.299 12.374-1.109 16.768-1.792z" opacity=".2"/>
    <path d="M44.928 17.717c-5.077 1.109-10.795 1.749-15.616 2.005l.256-1.28c.299-1.408.512-2.816.981-4.309l-5.973-.256c.043 1.408 0 2.432-.213 4.267-.043.512-.171 1.066-.256 1.706-2.56-.042-5.76-.384-8.278-.81v5.248c2.134.213 4.608.384 7.296.426-1.109 4.651-2.816 10.283-4.821 14.166l4.992 1.792c.427-.726.725-1.28 1.195-1.835 2.517-3.243 6.826-4.992 11.69-4.992 4.096 0 6.315 2.133 6.315 4.651 0 6.229-9.344 7.338-18.603 5.845l1.494 5.461c13.653 1.451 22.784-1.962 22.784-11.477 0-5.376-4.523-9.045-11.35-9.045-3.882 0-7.082.768-10.496 2.645.683-2.048 1.366-4.736 1.92-7.296 5.675-.299 12.374-1.109 16.768-1.792z" fill="#F9F5D7"/>
</svg>
