<svg xmlns="http://www.w3.org/2000/svg" width="64" height="64" version="1">
    <rect width="50" height="56" x="-57" y="5" rx="2.778" ry="2.8" transform="scale(-1 1)" opacity=".2"/>
    <rect width="50" height="56" x="-57" y="4" rx="2.778" ry="2.8" transform="scale(-1 1)" fill="#F9F5D7"/>
    <rect width="40" height="40" x="-52" y="9" rx="0" ry="0" transform="scale(-1 1)" fill="#504945"/>
    <path d="M35.637 14.967c-.31 0-.6.02-.854.037-2.813.193-5.779 2.77-5.783 7.103v.051l.004.049a9.502 9.502 0 0 0 2.176 5.517c1.14 1.386 2.483 2.394 3.681 3.416 2.365 2.018 4.236 3.835 4.125 8.743-.317 1.332-1.088 1.73-2.095 1.984-1.037.261-2.051.146-2.051.146L34.742 42h-.097c-.905 0-1.4-.323-1.866-1.002C32.313 40.318 32 39.224 32 38h-3c0 1.702.387 3.358 1.307 4.697a5.275 5.275 0 0 0 4.256 2.281c.099.014 1.439.206 3.06-.203 1.68-.423 3.8-1.742 4.346-4.363l.025-.127.006-.129c.196-5.95-2.63-9.11-5.191-11.297-1.281-1.093-2.471-2.015-3.313-3.039-.832-1.011-1.366-2.084-1.488-3.758.025-3.007 1.765-3.983 2.98-4.066.93-.064 1.365-.024 1.625.213.261.237.787 1.175.787 3.79h3c0-2.984-.508-4.863-1.767-6.009-.945-.86-2.066-1.024-2.996-1.023zM22 15v30h3V15h-3z" opacity=".2" fill-rule="evenodd"/>
    <path d="M38.9 21c0-5.6-2.066-5.633-4.014-5.5-2.017.138-4.382 1.916-4.386 5.61.532 8.058 10.364 6.985 10 17.996-.844 4.05-5.855 3.394-5.855 3.394-2.747 0-4.145-2.574-4.145-5.5" fill="none" stroke="#F9F5D7" stroke-width="3"/>
    <path fill="#F9F5D7" d="M22 14h3v30h-3z"/>
    <path d="M9.777 4A2.783 2.783 0 0 0 7 6.8v1C7 6.25 8.238 5 9.777 5h44.446A2.783 2.783 0 0 1 57 7.8v-1C57 5.25 55.762 4 54.223 4H9.777z" fill="#F9F5D7" opacity=".2"/>
</svg>
