<svg xmlns="http://www.w3.org/2000/svg" width="64" height="64" version="1">
    <path d="M6.8 5C5.25 5 4 6.25 4 7.8v50.4C4 59.75 5.25 61 6.8 61h24.778c.04 0 .085-.011.125-.012A28 28 0 0 0 32 61a28 28 0 0 0 28-28A28 28 0 0 0 32 5a28 28 0 0 0-.246.016c-.056-.001-.12-.016-.176-.016H8z" opacity=".2"/>
    <path d="M15.8 4v56h15.78c8.82 0 26.6-12.536 26.6-28S40.4 4 31.58 4z" fill="#F9F5D7"/>
    <path d="M6.8 4A2.794 2.794 0 0 0 4 6.8v50.4C4 58.751 5.249 60 6.8 60H8V4z" fill="#CB241D"/>
    <path fill="#7CB668" d="M8 4h4v56H8z"/>
    <path fill="#066678" d="M12 4h4v56h-4z"/>
    <path d="M32 5a28 28 0 0 0-2.691.156A28 28 0 0 1 54.399 33a28 28 0 0 1-25.31 27.844A28 28 0 0 0 32 61a28 28 0 0 0 28-28A28 28 0 0 0 32 5zm.066 12a16 16 0 0 0-2.718.23A16 16 0 0 1 42.73 33a16 16 0 0 1-13.277 15.77 16 16 0 0 0 2.613.23 16 16 0 0 0 16-16 16 16 0 0 0-16-16zM28 25a8 8 0 0 0-8 8 8 8 0 0 0 8 8 8 8 0 0 0 8-8 8 8 0 0 0-8-8z" opacity=".1"/>
    <path d="M32 4a28 28 0 0 0-2.69.156A28 28 0 0 1 54.4 32a28 28 0 0 1-25.31 27.844A28 28 0 0 0 32 60a28 28 0 0 0 28-28A28 28 0 0 0 32 4z" fill="#504945"/>
    <path d="M32.065 16a16 16 0 0 0-2.719.232A16 16 0 0 1 42.731 32a16 16 0 0 1-13.278 15.768 16 16 0 0 0 2.612.232 16 16 0 0 0 16-16 16 16 0 0 0-16-16z" fill="#504945"/>
    <circle cx="28" cy="32" r="8" fill="#504945"/>
    <path d="M25.818 36.649c0-.25.036-.46.108-.632.071-.172.17-.311.298-.417.127-.106.277-.183.449-.23a2.072 2.072 0 0 1 1.08 0 1.103 1.103 0 0 1 .743.648c.074.171.111.381.111.63 0 .24-.037.443-.11.613-.075.169-.176.31-.302.421-.128.111-.275.192-.442.243a1.961 1.961 0 0 1-1.08 0 1.18 1.18 0 0 1-.45-.243 1.139 1.139 0 0 1-.297-.421 1.583 1.583 0 0 1-.107-.612M26.08 34v-.657c0-.27.028-.515.084-.735.055-.22.14-.429.254-.628.114-.198.26-.392.44-.58a6.48 6.48 0 0 1 .653-.584c.222-.175.41-.33.564-.47.153-.136.277-.273.373-.409.095-.134.165-.276.207-.424.042-.149.064-.321.064-.517a.993.993 0 0 0-.307-.747c-.204-.196-.515-.294-.934-.294-.365 0-.758.077-1.18.23-.42.154-.857.342-1.307.565l-.81-1.757a8.301 8.301 0 0 1 1.577-.695 6.85 6.85 0 0 1 .878-.218c.297-.053.588-.08.875-.08.54 0 1.027.065 1.461.195.435.13.804.319 1.105.568a2.5 2.5 0 0 1 .696.906c.162.355.242.76.242 1.216 0 .333-.037.632-.111.894a2.691 2.691 0 0 1-.33.731c-.146.225-.328.443-.548.652-.22.209-.476.43-.767.663a9.197 9.197 0 0 0-.545.457c-.14.13-.25.254-.33.37-.079.116-.133.237-.162.362a1.958 1.958 0 0 0-.044.44V34H26.08z" fill="#F9F5D7"/>
    <path d="M6.8 4C5.25 4 4 5.25 4 6.8v1C4 6.25 5.25 5 6.8 5h24.778c.055 0 .12.015.176.016A28 28 0 0 1 32 5a28 28 0 0 1 27.979 27.578A28 28 0 0 0 60 32 28 28 0 0 0 32 4a28 28 0 0 0-.246.016c-.056-.001-.12-.016-.176-.016H6.8z" opacity=".1" fill="#F9F5D7"/>
</svg>
