<svg xmlns="http://www.w3.org/2000/svg" width="64" height="64">
    <rect width="56" height="56" x="4" y="5" rx="28" ry="28" opacity=".2"/>
    <rect width="56" height="56" x="4" y="4" rx="28" ry="28" fill="#066678"/>
    <path d="M36.642 52.543c1.01-.262 2.932-.8 3.755-1.198C42.07 50.54 44 49.545 44 49c-1.063-1.84-2.415-4.019-4-4.999 1.177-.759 2.24-1.44 2-2.8 0 0-.394-.313.458-.97 3.5-3.513 8.674-7.797 10.542-11.966 0-1.075-.611-1.309-2.223-1.265-.783.022-3.393-.028-5.8 0-4.348.051-5.966 0-5.966 0s-4.546-.084-5.931 1.011c-3.505 2.771-5.081 2.6-8.015 3.578-2.734.911-2.865-.389-2.865 6.112-.593 3.68.474 7.35-2.034 10.62-.305.401-.232.588.572 1.455 1.59 1.717 4.34 2.384 7.397 2.98 2.07.403 6.564.29 8.507-.213z" opacity=".2"/>
    <path d="M36.642 51.543c1.01-.262 2.932-.801 3.755-1.198C42.07 49.54 44 48.545 44 48c-1.063-1.84-2.415-4.02-4-5 1.177-.758 2.24-1.44 2-2.8 0 0-.394-.312.458-.97 3.5-3.512 8.674-7.796 10.542-11.965 0-1.076-.611-1.31-2.223-1.265-.783.021-3.393-.028-5.8 0-4.348.05-5.966 0-5.966 0s-4.546-.085-5.931 1.01c-3.505 2.772-5.081 2.601-8.015 3.579-2.734.91-2.865-.389-2.865 6.112-.593 3.68.474 7.349-2.034 10.619-.305.402-.232.588.572 1.456 1.59 1.717 4.34 2.383 7.397 2.979 2.07.403 6.564.291 8.507-.212z" fill="#CB8819"/>
    <path d="M34.305 41.661c-1.138-.382-2.603-1.418-3.737-2.643-.634-.686-.697-.85-.386-.998.232-.11.936.238 1.867.924 1.68 1.237 3.27 1.978 4.33 2.019.392.015.962.119 1.267.231.525.193.507.221-.332.522-1.093.393-1.707.381-3.01-.055z" fill="#F9F5D7"/>
    <path d="M27 18.978c-5 0-9 4.573-9 9.6 0 2.162.758 4.945 2.018 6.506.278.711-.01 1.3-.018 1.457-.027.536 1.143.768 4.275-.243 3.622-1.17 5.16-2.205 8.928-5.23 1.41-1.133 2.733-2.603 4.309-3.324 1.366-.626 2.488-.733 2.488-.867 0-1.4-1.802-1.67-2.8-1.8h-1.124C34.7 21.795 32 18.978 27 18.978z" opacity=".2"/>
    <path d="M27 18c-5 0-9 4.573-9 9.599 0 2.162.758 4.945 2.018 6.507.278.711-.01 1.3-.018 1.457-.027.536 1.143.768 4.275-.243 3.622-1.17 5.16-2.205 8.928-5.231 1.41-1.132 2.733-2.602 4.309-3.324C38.878 26.14 40 26.033 40 25.9c0-1.4-1.802-1.67-2.8-1.8h-1.124C34.7 20.817 32 18 27 18z" fill="#FECE4F"/>
    <circle cx="53" cy="28" r="3" opacity=".2"/>
    <circle cx="53" cy="27" r="3" fill="#E6D3A3"/>
    <path d="M34.305 42.661c-1.138-.381-2.603-1.417-3.737-2.643-.634-.686-.697-.849-.386-.997.232-.111.936.237 1.867.923 1.68 1.237 3.27 1.978 4.33 2.02.392.014.962.118 1.267.23.525.193.507.221-.332.523-1.093.392-1.707.38-3.01-.056z" opacity=".2"/>
    <path d="M32 4C16.488 4 4 16.488 4 32c0 .113.011.224.018.336C4.369 17.134 16.71 5 32 5c15.29 0 27.63 12.134 27.982 27.336.007-.112.018-.223.018-.336C60 16.488 47.512 4 32 4z" opacity=".1" fill="#F9F5D7"/>
</svg>
