<svg xmlns="http://www.w3.org/2000/svg" width="64" height="64" version="1">
    <rect width="57" height="57" x="-61" y="-60" rx="2.85" ry="2.85" transform="matrix(0 -1 -1 0 0 0)" opacity=".2"/>
    <rect width="57" height="57" x="-60" y="-60" rx="2.85" ry="2.85" transform="matrix(0 -1 -1 0 0 0)" fill="#8F3F71"/>
    <path d="M13.97 26.763L49 34.2v5.23l-1.4 1.77s-9.793-1.4-10-1.4L35.957 44H15.66l-1.86-2.8z" fill="#48B9C7"/>
    <path d="M13.97 26.764l-.17 14.435.012.018.159-13.453L49 35.199v-1l-35.03-7.435z" opacity=".2" fill="#F9F5D7"/>
    <path d="M14.785 17L12 19.8v22.4l2.785 2.8H33v-3H15V20h33.115v2.6h.576L51 24.82V19.8L48.215 17zm22.049 7L34 26.889V47.11L36.834 50h11.332L51 47.111V26.89L48.166 24zM37 27h11v13H37zm0 16h11v4H37zm4 1v2h3v-2zM8 47l2.766 3h24.308l-2.191-2.379V47zm44.234 0v.621L50.043 50h2.191L55 47z" opacity=".2"/>
    <path d="M14.785 16L12 18.8v22.4l2.785 2.8H33v-3H15V19h33.115v2.6h.576L51 23.82V18.8L48.215 16h-33.43zm22.049 7L34 25.889V46.11L36.834 49h11.332L51 46.111V25.89L48.166 23H36.834zM37 26h11v13H37V26zm0 16h11v4H37v-4zm4 1v2h3v-2h-3zM8 46l2.766 3h24.308l-2.191-2.379V46H8zm44.234 0v.621L50.043 49h2.191L55 46h-2.766z" fill="#FECE4F"/>
    <path d="M5.85 3A2.843 2.843 0 0 0 3 5.85v1C3 5.27 4.27 4 5.85 4h51.3C58.73 4 60 5.27 60 6.85v-1C60 4.27 58.73 3 57.15 3H5.85z" fill="#F9F5D7" opacity=".1"/>
</svg>
