<svg xmlns="http://www.w3.org/2000/svg" width="64" height="64" version="1">
    <rect width="56" height="56" x="4" y="5" rx="2.8" ry="2.8" opacity=".2"/>
    <rect width="56" height="56" x="4" y="4" rx="2.8" ry="2.8" fill="#FA4934"/>
    <path d="M24 8a31.993 31.993 0 0 0-20 7.063v1.16A28.984 28.984 0 0 1 19 12a28.96 28.96 0 0 1 20.41 8.41l6.55-3.61C40.2 11.34 32.453 8.01 24 8zm26.367 13.926l-5.625 5.785c1.301 2.52 2.27 5.254 2.793 8.168l8.098-.453a31.894 31.894 0 0 0-5.266-13.5zm5.504 15.492l-8.074.45A29 29 0 0 1 48 41c-.011.334-.028.667-.05 1h7.976c.045-.666.07-1.333.074-2a32.02 32.02 0 0 0-.129-2.582zM47.84 44a29 29 0 0 1-.754 4.078l7.758.434A32 32 0 0 0 55.707 44zm-1.313 6.05a29 29 0 0 1-1.57 3.805l6.84 1.918a32 32 0 0 0 2.398-5.296z" opacity=".4"/>
    <path d="M50 19L21.819 47.984l-4.09-11.192z" opacity=".2"/>
    <path d="M50 18L21.819 46.984l-4.09-11.192z" fill="#F9F5D7"/>
    <circle cx="22" cy="41" r="10" opacity=".2"/>
    <circle cx="22" cy="40" r="10" fill="#F9F5D7"/>
    <path d="M6.8 4C5.25 4 4 5.25 4 6.8v1C4 6.25 5.25 5 6.8 5h50.4C58.75 5 60 6.25 60 7.8v-1C60 5.25 58.75 4 57.2 4H6.8z" opacity=".2" fill="#F9F5D7"/>
</svg>
