<svg xmlns="http://www.w3.org/2000/svg" width="64" height="64" version="1">
    <path d="M25.393 42.607c-5.857-5.858-5.857-15.356 0-21.214 5.858-5.858 26.67-17.171 32.527-11.313 5.858 5.858-5.455 26.669-11.313 32.527-5.858 5.857-15.356 5.857-21.214 0z" opacity=".2"/>
    <path d="M25.393 41.607c-5.857-5.858-5.857-15.356 0-21.214C31.251 14.535 52.063 3.222 57.92 9.08c5.858 5.858-5.455 26.669-11.313 32.527-5.858 5.857-15.356 5.857-21.214 0z" fill="#066678"/>
    <path d="M53.246 7.445c-8.461-.174-23.092 8.19-27.851 12.95-3.003 3.002-4.431 6.96-4.354 10.894.166-3.598 1.605-7.146 4.354-9.894 4.76-4.76 19.39-13.124 27.851-12.95 1.953.04 3.578.535 4.676 1.633 1.043 1.044 1.517 2.579 1.59 4.408.077-2.27-.362-4.18-1.59-5.408-1.098-1.098-2.723-1.593-4.676-1.633z" opacity=".1" fill="#F9F5D7"/>
    <path d="M42.364 38.364c-3.565 3.565-9.163 3.565-12.728 0-3.565-3.565-3.565-9.163 0-12.728 1.782-1.782 8.384-6.232 14.366-8.77 2.99-1.268 5.917-2.129 7.872-2.353.838-.096 1.325-.054 1.63-.016.037.304.079.792-.017 1.63-.224 1.954-1.085 4.88-2.353 7.871-2.538 5.982-6.988 12.584-8.77 14.366z" opacity=".2"/>
    <path d="M42.364 36.364c-3.565 3.565-9.163 3.565-12.728 0-3.565-3.565-3.565-9.163 0-12.728 1.782-1.782 8.384-6.232 14.366-8.77 2.99-1.268 5.917-2.129 7.872-2.353.838-.096 1.325-.054 1.63-.016.037.304.079.791-.017 1.63-.224 1.954-1.085 4.88-2.353 7.871-2.538 5.982-6.988 12.584-8.77 14.366z" fill="#F9F5D7"/>
    <path d="M25.393 21.437c-5.857 5.858-5.857 15.356 0 21.214 5.858 5.858 26.67 17.171 32.527 11.313 5.858-5.858-5.455-26.669-11.313-32.527-5.858-5.857-15.356-5.857-21.214 0z" opacity=".2"/>
    <path d="M25.393 20.437c-5.857 5.858-5.857 15.356 0 21.214 5.858 5.858 26.67 17.171 32.527 11.313 5.858-5.858-5.455-26.669-11.313-32.527-5.858-5.857-15.356-5.857-21.214 0z" fill="#8F3F71"/>
    <path d="M42.364 25.68c-3.565-3.565-9.163-3.565-12.728 0-3.565 3.565-3.565 9.163 0 12.728 1.782 1.782 8.384 6.232 14.366 8.77 2.99 1.269 5.917 2.13 7.872 2.353.838.096 1.325.055 1.63.017.037-.304.079-.792-.017-1.63-.224-1.955-1.085-4.881-2.353-7.872-2.538-5.982-6.988-12.583-8.77-14.366z" opacity=".2"/>
    <path d="M42.364 24.68c-3.565-3.565-9.163-3.565-12.728 0-3.565 3.565-3.565 9.163 0 12.728 1.782 1.782 8.384 6.232 14.366 8.77 2.99 1.268 5.917 2.129 7.872 2.353.838.096 1.325.054 1.63.017.037-.305.079-.792-.017-1.63-.224-1.955-1.085-4.881-2.353-7.872-2.538-5.982-6.988-12.584-8.77-14.366z" fill="#F9F5D7"/>
    <path d="M51 32c0 8.284-6.716 15-15 15-8.285 0-31-6.716-31-15 0-8.284 22.715-15 31-15 8.284 0 15 6.716 15 15z" opacity=".2"/>
    <path d="M51 31c0 8.284-6.716 15-15 15-8.285 0-31-6.716-31-15 0-8.284 22.715-15 31-15 8.284 0 15 6.716 15 15z" fill="#B57514"/>
    <path d="M36 23c5.042 0 9 3.958 9 9s-3.958 9-9 9c-2.52 0-10.335-1.522-16.36-3.957-3.011-1.218-5.69-2.678-7.23-3.902-.66-.525-.976-.9-1.164-1.14.188-.243.504-.617 1.164-1.142 1.54-1.223 4.219-2.684 7.23-3.902C25.666 24.522 33.48 23 36 23z" opacity=".2"/>
    <path d="M36 22c5.042 0 9 3.958 9 9s-3.958 9-9 9c-2.52 0-10.335-1.522-16.36-3.957-3.011-1.218-5.69-2.679-7.23-3.902-.66-.525-.976-.9-1.164-1.141.188-.242.504-.616 1.164-1.14 1.54-1.225 4.219-2.685 7.23-3.903C25.666 23.522 33.48 22 36 22z" fill="#F9F5D7"/>
    <path d="M36 16c-8.284 0-31 6.716-31 15 0 .177.015.352.04.527C5.878 23.462 27.873 17 36 17c8.115 0 14.709 6.45 14.975 14.5.01-.166.025-.331.025-.5 0-8.284-6.716-15-15-15z" opacity=".1" fill="#F9F5D7"/>
</svg>
