<svg xmlns="http://www.w3.org/2000/svg" width="64" height="64" version="1">
    <path d="M49.366 17.575c1.028-.91 2.418-1.128 3.456-.606l.2-.193c.625-1.494 1.755-3.147 3.322-4.67 1.568-1.525 3.265-2.626 4.8-3.235l.676-.658c.373-.364.147-1.172-.505-1.807l-3.84-3.736c-.651-.635-1.479-.858-1.848-.499l-.669.65c-.624 1.499-1.758 3.16-3.333 4.693-1.574 1.532-3.282 2.636-4.823 3.244l-.138.134c.661 1.022.456 2.481-.532 3.538l-10.31 9.973c-.447-.028-1.165-.378-2.124-1.825-1.716-2.587-5.72-4.06-9.018 1.506s-.562 6.487-9.954 7.548l.002.003c-3.316.178-6.458 1.411-8.855 3.743C.188 40.91.836 50.51 7.32 56.822c6.485 6.31 16.352 6.94 22.037 1.407.102-.099.2-.204.297-.306l.002.004.099-.107c.456-.485.865-.997 1.23-1.533 1.462-2.02 3.55-5.654 3.083-9.45-.707-5.728 4.811-5.467 7.1-6.908 2.287-1.44 3.094-2.683 3.16-4.125 0 0-2.724 1.866-5.214-.556-2-1.947-1.112-5.264-.249-7.02l10.498-10.653z" fill="#B57514"/>
    <path d="M55.98 2.01a.618.618 0 0 0-.353.162l-.668.65c-.624 1.498-1.759 3.159-3.334 4.692-1.574 1.531-3.281 2.636-4.822 3.244l-.139.135c.155.239.26.504.32.781 1.494-.621 3.128-1.688 4.641-3.16 1.575-1.533 2.71-3.194 3.334-4.692l.668-.65c.369-.36 1.197-.137 1.848.498l3.839 3.736c.251.244.417.512.532.772.33-.378.103-1.155-.532-1.772L57.475 2.67c-.489-.476-1.075-.72-1.495-.66zM47 12.727a3.362 3.362 0 0 1-.867 1.703l-10.311 9.974c-.446-.028-1.163-.38-2.123-1.826-1.715-2.587-5.72-4.06-9.017 1.506-3.298 5.566-.563 6.487-9.955 7.549l.002.002c-3.317.177-6.458 1.412-8.856 3.744-2.689 2.616-3.943 6.144-3.851 9.803.143-3.296 1.408-6.426 3.851-8.803 2.398-2.332 5.539-3.567 8.856-3.744l-.002-.002c9.392-1.062 6.657-1.983 9.955-7.55 3.297-5.565 7.302-4.092 9.017-1.505.96 1.447 1.677 1.798 2.123 1.826l10.311-9.974c.741-.793 1.042-1.812.867-2.703zm-9.072 19.839c-.101 1.325.161 2.683 1.187 3.682 2.173 2.115 4.416 1.013 4.979.686.14-.368.218-.741.236-1.13 0 0-2.725 1.866-5.215-.556-.768-.747-1.106-1.696-1.187-2.682zm-3.887 13.829c-.035.437-.039.906.027 1.443.024.189.036.378.047.566a9.145 9.145 0 0 0-.047-1.566c-.019-.158-.017-.295-.027-.443z" opacity=".2" fill="#F9F5D7"/>
    <path d="M61.846 8.177c-.01.011-.015.025-.025.036l-.676.658c-1.535.61-3.233 1.71-4.801 3.234-1.567 1.524-2.696 3.176-3.322 4.67l-.2.193c-1.038-.52-2.43-.302-3.457.608l-10.5 10.652c-.532 1.082-1.068 2.756-.938 4.338.096-1.257.517-2.482.938-3.338l10.5-10.652c1.027-.91 2.418-1.128 3.457-.607l.199-.193c.626-1.494 1.755-3.146 3.322-4.67 1.568-1.525 3.266-2.625 4.8-3.235l.677-.658c.23-.224.21-.618.025-1.035zm-14.862 3.496c-.06.025-.122.06-.182.084l-.138.135c.165.255.277.537.336.834a2.723 2.723 0 0 0-.016-1.053zM44.33 36.804s-.155.081-.237.129c-.379.996-1.254 1.943-2.925 2.996-2.225 1.401-7.488 1.209-7.127 6.465.34-4.236 5.053-4.16 7.127-5.465 2.287-1.44 3.095-2.683 3.162-4.125zM2.022 45.181c-.19 4.374 1.6 9.041 5.298 12.641 6.485 6.31 16.352 6.94 22.037 1.406.102-.099.2-.203.297-.304l.002.003s.038-.039.1-.107c.456-.485.864-.997 1.228-1.533 1.39-1.92 3.34-5.296 3.131-8.883-.155 3.206-1.87 6.143-3.13 7.883a12.476 12.476 0 0 1-1.329 1.64l-.002-.003c-.098.101-.195.205-.297.304-5.685 5.533-15.552 4.904-22.037-1.406-3.417-3.327-5.196-7.564-5.298-11.64z" opacity=".2"/>
</svg>
