<svg xmlns="http://www.w3.org/2000/svg" width="64" height="64" version="1">
    <path d="M4 56v2c0 1.662 1.338 3 3 3h50c1.662 0 3-1.338 3-3v-2c0 1.662-1.338 3-3 3H7c-1.662 0-3-1.338-3-3z" opacity=".2"/>
    <rect width="56" height="56" x="4" y="4" rx="3" ry="3" fill="#FD8019"/>
    <path d="M7 4C5.338 4 4 5.338 4 7v1c0-1.662 1.338-3 3-3h50c1.662 0 3 1.338 3 3V7c0-1.662-1.338-3-3-3H7z" opacity=".1" fill="#F9F5D7"/>
    <path d="M10.498 34.962c-.092 0-.164.074-.176.18L10 37.7l.322 2.514c.012.106.084.18.176.18.09 0 .162-.073.176-.179l.381-2.515-.381-2.558c-.014-.106-.087-.18-.176-.18zm1.81-1.398c-.016-.11-.09-.185-.184-.185-.093 0-.17.078-.183.185L11.51 37.7l.432 4.045c.012.108.09.186.183.186s.168-.076.183-.185L12.8 37.7zm6.816-3.815c-.178 0-.324.152-.333.346l-.344 7.609.344 4.917c.008.192.155.344.333.344.176 0 .322-.152.333-.345v.003l.39-4.918-.39-7.61c-.01-.194-.157-.346-.333-.346zm-3.528 2.646c-.136 0-.247.114-.258.266l-.388 5.042.388 4.878c.01.151.122.265.258.265.135 0 .246-.114.258-.265l.441-4.878-.441-5.043c-.012-.152-.123-.266-.258-.266zm7.113 10.57c.22 0 .399-.185.408-.423l.337-4.834-.337-10.131c-.008-.238-.188-.424-.408-.424-.222 0-.401.187-.408.424l-.3 10.13.3 4.837c.008.235.186.422.408.422zm7.339.023c.303 0 .553-.26.558-.582v.004-.004l.236-4.696-.236-11.7c-.006-.32-.255-.582-.558-.582-.303 0-.554.261-.558.583l-.211 11.695.21 4.703c.005.318.256.58.559.58zm-3.698-.018c.264 0 .476-.222.483-.504v.003l.287-4.761-.287-10.204c-.008-.282-.22-.503-.483-.503-.266 0-.478.22-.484.503l-.255 10.205.256 4.76c.006.28.218.5.483.5zm-8.997-.045c.157 0 .284-.13.295-.304l.416-4.918-.415-4.68c-.012-.173-.139-.303-.296-.303-.159 0-.286.131-.295.305l-.366 4.677.366 4.918c.01.173.136.305.295.305zm-3.5-.27c.115 0 .208-.094.221-.225l.467-4.728-.467-4.906c-.014-.132-.106-.226-.22-.226-.117 0-.21.095-.221.226l-.41 4.907.41 4.728c.012.131.104.226.22.226zm14.34-15.321c-.287 0-.517.238-.522.543l-.233 9.832.233 4.73c.006.302.235.54.521.54.286 0 .514-.238.52-.543v.004l.262-4.73-.261-9.833c-.006-.304-.235-.542-.52-.542zm-7.283 15.64c.198 0 .36-.168.37-.384l.364-4.884-.364-9.35c-.01-.216-.172-.384-.37-.384-.2 0-.363.169-.371.384l-.322 9.35.322 4.886c.008.214.171.383.37.383zm4.058-.46v-.004l.312-4.803-.312-10.472c-.008-.26-.203-.464-.445-.464-.243 0-.44.203-.446.464l-.277 10.47.278 4.808a.458.458 0 0 0 .445.46c.242 0 .437-.203.445-.462v.003zm23.62-10.843c-.741 0-1.449.157-2.093.44-.43-5.106-4.521-9.11-9.51-9.11-1.221 0-2.412.251-3.462.677-.409.165-.518.336-.521.666v17.978a.674.674 0 0 0 .584.67c.014.004 14.906.01 15.002.01 2.988 0 5.412-2.536 5.412-5.664 0-3.129-2.423-5.666-5.411-5.666zm-16.693-7.342c-.325 0-.592.279-.596.622l-.245 12.76.245 4.632c.004.338.271.617.596.617.324 0 .591-.28.596-.622v.005l.265-4.631-.265-12.762c-.004-.342-.272-.621-.596-.621z" opacity=".2"/>
    <path d="M10.498 33.962c-.092 0-.164.074-.176.18L10 36.7l.322 2.514c.012.106.084.18.176.18.09 0 .162-.073.176-.179l.381-2.515-.381-2.558c-.014-.106-.087-.18-.176-.18zm1.81-1.398c-.016-.11-.09-.185-.184-.185-.093 0-.17.078-.183.185L11.51 36.7l.432 4.045c.012.108.09.186.183.186s.168-.076.183-.185L12.8 36.7zm6.816-3.815c-.178 0-.324.152-.333.346l-.344 7.609.344 4.917c.008.192.155.344.333.344.176 0 .322-.152.333-.345v.003l.39-4.918-.39-7.61c-.01-.194-.157-.346-.333-.346zm-3.528 2.646c-.136 0-.247.114-.258.266l-.388 5.042.388 4.878c.01.151.122.265.258.265.135 0 .246-.114.258-.265l.441-4.878-.441-5.043c-.012-.152-.123-.266-.258-.266zm7.113 10.57c.22 0 .399-.185.408-.423l.337-4.834-.337-10.131c-.008-.238-.188-.424-.408-.424-.222 0-.401.187-.408.424l-.3 10.13.3 4.837c.008.235.186.422.408.422zm7.339.023c.303 0 .553-.26.558-.582v.004-.004l.236-4.696-.236-11.7c-.006-.32-.255-.582-.558-.582-.303 0-.554.261-.558.583l-.211 11.695.21 4.703c.005.318.256.58.559.58zm-3.698-.018c.264 0 .476-.222.483-.504v.003l.287-4.761-.287-10.204c-.008-.282-.22-.503-.483-.503-.266 0-.478.22-.484.503l-.255 10.205.256 4.76c.006.28.218.5.483.5zm-8.997-.045c.157 0 .284-.13.295-.304l.416-4.918-.415-4.68c-.012-.173-.139-.303-.296-.303-.159 0-.286.131-.295.305l-.366 4.677.366 4.918c.01.173.136.305.295.305zm-3.5-.27c.115 0 .208-.094.221-.225l.467-4.728-.467-4.906c-.014-.132-.106-.226-.22-.226-.117 0-.21.095-.221.226l-.41 4.907.41 4.728c.012.131.104.226.22.226zm14.34-15.321c-.287 0-.517.238-.522.543l-.233 9.832.233 4.73c.006.302.235.54.521.54.286 0 .514-.238.52-.543v.004l.262-4.73-.261-9.833c-.006-.304-.235-.542-.52-.542zM20.91 41.976c.198 0 .361-.169.37-.384l.364-4.885-.363-9.35c-.01-.216-.173-.384-.37-.384-.2 0-.363.169-.372.384l-.321 9.35.322 4.887c.008.213.17.382.37.382zm4.058-.461v-.003l.313-4.804-.313-10.472c-.008-.26-.203-.464-.445-.464-.243 0-.439.203-.446.464L23.8 36.707l.278 4.807a.458.458 0 0 0 .445.46c.242 0 .437-.203.445-.462v.003zm23.62-10.843c-.741 0-1.448.157-2.093.44-.43-5.105-4.52-9.11-9.51-9.11-1.221 0-2.411.252-3.462.677-.408.166-.517.336-.52.666v17.978a.674.674 0 0 0 .583.67c.014.003 14.906.01 15.002.01 2.989 0 5.412-2.537 5.412-5.666 0-3.128-2.423-5.665-5.411-5.665zM31.896 23.33c-.325 0-.592.279-.597.622l-.244 12.76.244 4.632c.004.338.272.617.597.617.324 0 .59-.279.595-.622v.005l.266-4.631-.266-12.762c-.004-.342-.271-.621-.595-.621z" fill="#F9F5D7"/>
</svg>
