<svg xmlns="http://www.w3.org/2000/svg" width="64" height="64" version="1">
    <rect width="56" height="56" x="4" y="4" rx="3" ry="3" fill="#066678"/>
    <path d="M7 4C5.338 4 4 5.338 4 7v1c0-1.662 1.338-3 3-3h50c1.662 0 3 1.338 3 3V7c0-1.662-1.338-3-3-3H7z" opacity=".1" fill="#F9F5D7"/>
    <path d="M31 15l-7 23-4-13h-8v4h6l6 22 7-24 4 12 5-14 4 14h8v-4h-5c-2.182-6.726-7-19-7-19l-5 13z" opacity=".2"/>
    <path d="M31 14l-7 23-4-13h-8v4h6l6 22 7-24 4 12 5-14 4 14h8v-4h-5c-2.182-6.726-7-19-7-19l-5 13z" fill="#F9F5D7"/>
    <path d="M4 57v1c0 1.662 1.338 3 3 3h50c1.662 0 3-1.338 3-3v-1c0 1.662-1.338 3-3 3H7c-1.662 0-3-1.338-3-3z" opacity=".2"/>
</svg>
