<svg xmlns="http://www.w3.org/2000/svg" width="64" height="64" version="1">
    <path d="M23 6c-1.662 0-3 1.338-3 3v28c0 1.662 1.338 3 3 3h28c1.662 0 3-1.338 3-3V12l6-6H23z" fill="#FECE4F"/>
    <path d="M23 6c-1.662 0-3 1.338-3 3v1c0-1.662 1.338-3 3-3h36l1-1H23z" opacity=".1" fill="#F9F5D7"/>
    <path d="M59 7l-5 5v1l6-6h-1zM20 37v1c0 1.662 1.338 3 3 3h28c1.662 0 3-1.338 3-3v-1c0 1.662-1.338 3-3 3H23c-1.662 0-3-1.338-3-3z" opacity=".2"/>
    <path d="M4 24l6 6v25c0 1.662 1.338 3 3 3h28c1.662 0 3-1.338 3-3V27c0-1.662-1.338-3-3-3H4z" fill="#FD8019"/>
    <path d="M22.942 31l-1.06 6H16v2h5.531l-1.062 6H16v2h4.117l-1.058 6h2l1.058-6h5l-1.058 6h2l1.058-6H36v-2h-6.531l1.062-6h5.47v-2h-5.118l1.058-6h-2l-1.058 6h-5l1.058-6zm.59 8h5l-1.063 6h-5z" opacity=".2" fill-rule="evenodd"/>
    <path d="M4 24l1 1h36c1.662 0 3 1.338 3 3v-1c0-1.662-1.338-3-3-3H4z" opacity=".1" fill="#F9F5D7"/>
    <path d="M22.942 30l-1.06 6H16v2h5.531l-1.062 6H16v2h4.117l-1.058 6h2l1.058-6h5l-1.058 6h2l1.058-6H36v-2h-6.531l1.062-6h5.47v-2h-5.118l1.058-6h-2l-1.058 6h-5l1.058-6zm.59 8h5l-1.063 6h-5z" fill="#F9F5D7" fill-rule="evenodd"/>
    <path d="M4 25l6 6v-1l-5-5H4zm6 30v1c0 1.662 1.338 3 3 3h28c1.662 0 3-1.338 3-3v-1c0 1.662-1.338 3-3 3H13c-1.662 0-3-1.338-3-3z" opacity=".2"/>
</svg>
