<svg xmlns="http://www.w3.org/2000/svg" width="64" height="64" version="1">
    <path d="M4 56v2c0 1.662 1.338 3 3 3h50c1.662 0 3-1.338 3-3v-2c0 1.662-1.338 3-3 3H7c-1.662 0-3-1.338-3-3z" opacity=".2"/>
    <rect width="56" height="56" x="4" y="4" rx="3" ry="3" fill="#CB241D"/>
    <path d="M7 4C5.338 4 4 5.338 4 7v1c0-1.662 1.338-3 3-3h50c1.662 0 3 1.338 3 3V7c0-1.662-1.338-3-3-3H7z" opacity=".1" fill="#F9F5D7"/>
    <path d="M23.329 21.001c-.095.001-.201.009-.323.016-.463.027-9.197 1.554-9.752 1.704-.588.16-1.09.495-1.212.814-.21.542.396 2.303 1.195 3.485 1.374 2.034 3.375 3.333 7.583 4.914 2.311.868 2.793 1.087 3.096 1.419.398.435.068.645-2.985 1.907-4.77 1.971-5.715 3.649-6.629 6.13-.27.733-.395 2.671-.205 3.159.247.632.396.627 5.006-.19 4.63-.82 3.647-.867 4.034-1.209.477-1.015.61-1.76.832-2.744.278-.906.977-1.852 1.739-2.352 2.888-1.897 8.324-.951 11.266 1.96 1.109 1.097 1.805 1.662 2.36 3.363.32.982.646 1.408 1.152 1.502.465.086.476.284 6.368-.76 3.278-.58 4.642-1.263 4.834-1.403.415-.3.416-1.038.002-2.256-.708-2.092-1.937-3.817-4.213-5.426-1.126-.796-2.547-1.549-4.955-2.625-2.29-1.023-2.522-1.3-2.522-1.618 0-.263.041-.38 1.858-.887 3.98-1.111 6.131-2.966 6.131-5.853 0-1.268-.256-2.29-.654-2.622-.53-.441-1.095-.455-3.32-.08-7.132 1.204-7.526 1.453-7.858 1.954-.175.265-.167.327.155 1.531.185.69.334 1.421.333 1.622-.002.426-.311 1.138-.601 1.392-.71.62-2.32 1.152-3.968 1.152-1.994 0-3.497-.749-4.989-2.232-1.078-1.072-1.629-1.976-2.363-3.884-.645-1.676-.734-1.894-1.397-1.884z" opacity=".2"/>
    <path d="M23.329 20.001c-.095.001-.201.009-.323.016-.463.027-9.197 1.554-9.752 1.704-.588.16-1.09.495-1.212.814-.21.542.396 2.303 1.195 3.485 1.374 2.034 3.375 3.333 7.583 4.914 2.311.868 2.793 1.087 3.096 1.419.398.435.068.645-2.985 1.907-4.77 1.971-5.715 3.649-6.629 6.13-.27.733-.395 2.671-.205 3.159.247.632.396.627 5.006-.19 4.63-.82 3.647-.867 4.034-1.209.477-1.015.61-1.76.832-2.744.278-.906.977-1.852 1.739-2.352 2.888-1.897 8.324-.951 11.266 1.96 1.109 1.097 1.805 1.662 2.36 3.363.32.982.646 1.408 1.152 1.502.465.086.476.284 6.368-.76 3.278-.58 4.642-1.263 4.834-1.403.415-.3.416-1.038.002-2.256-.708-2.092-1.937-3.817-4.213-5.426-1.126-.796-2.547-1.549-4.955-2.625-2.29-1.023-2.522-1.3-2.522-1.618 0-.263.041-.38 1.858-.887 3.98-1.111 6.131-2.966 6.131-5.853 0-1.268-.256-2.29-.654-2.622-.53-.441-1.095-.455-3.32-.08-7.132 1.204-7.526 1.453-7.858 1.954-.175.265-.167.327.155 1.531.185.69.334 1.421.333 1.622-.002.426-.311 1.138-.601 1.392-.71.62-2.32 1.152-3.968 1.152-1.994 0-3.497-.749-4.989-2.232-1.078-1.072-1.629-1.976-2.363-3.884-.645-1.676-.734-1.894-1.397-1.884z" fill="#F9F5D7"/>
</svg>
