<svg xmlns="http://www.w3.org/2000/svg" width="64" height="64" version="1">
    <rect width="40" height="52" x="-52" y="6" rx="2.5" ry="2.6" transform="scale(-1 1)" fill="#504945"/>
    <circle cx="-36" cy="32" r="18" transform="rotate(-90)" opacity=".4"/>
    <circle cx="-37" cy="-32" r="14" transform="matrix(0 -1 -1 0 0 0)" opacity=".2"/>
    <circle cx="-36" cy="-32" r="14" transform="matrix(0 -1 -1 0 0 0)" fill="#F9BD2E"/>
    <circle cx="-36" cy="-32" r="6" transform="matrix(0 -1 -1 0 0 0)" fill="#3A393A"/>
    <circle cx="14" cy="-20" r="2" transform="rotate(90)" opacity=".4"/>
    <circle cx="14" cy="-44" r="2" transform="rotate(90)" opacity=".4"/>
    <path d="M12 55.398v1C12 57.838 13.115 59 14.5 59h35c1.384 0 2.5-1.162 2.5-2.602v-1C52 56.838 50.884 58 49.5 58h-35c-1.385 0-2.5-1.162-2.5-2.602z" opacity=".2"/>
    <path d="M14.5 6C13.115 6 12 7.16 12 8.6v1C12 8.16 13.115 7 14.5 7h35C50.884 7 52 8.16 52 9.6v-1C52 7.16 50.884 6 49.5 6h-35z" opacity=".1" fill="#F9F5D7"/>
</svg>
