<svg xmlns="http://www.w3.org/2000/svg" width="64" height="64" version="1">
    <path d="M4 56v2c0 1.662 1.338 3 3 3h50c1.662 0 3-1.338 3-3v-2c0 1.662-1.338 3-3 3H7c-1.662 0-3-1.338-3-3z" opacity=".2"/>
    <rect width="56" height="56" x="4" y="4" rx="3" ry="3" fill="#CB241D"/>
    <path d="M7 4C5.338 4 4 5.338 4 7v1c0-1.662 1.338-3 3-3h50c1.662 0 3 1.338 3 3V7c0-1.662-1.338-3-3-3H7z" opacity=".1" fill="#F9F5D7"/>
    <path d="M14.188 15.125L24 25h16v15.938l10 9.937v-35.75zM24 27.312l-10 9.75V51h14.75l9.874-10H24z" opacity=".2"/>
    <path d="M14.188 14.125L24 24h16v15.938l10 9.937v-35.75zM24 26.312l-10 9.75V50h14.75l9.874-10H24z" fill="#F9F5D7"/>
</svg>
