<svg xmlns="http://www.w3.org/2000/svg" width="64" height="64" version="1">
    <path d="M60 55.222V10.778A2.783 2.783 0 0 0 57.2 8H6.8A2.783 2.783 0 0 0 4 10.778v44.444A2.783 2.783 0 0 0 6.8 58h50.4c1.551 0 2.8-1.239 2.8-2.778z" opacity=".2"/>
    <path d="M60 54.222V9.778A2.783 2.783 0 0 0 57.2 7H6.8A2.783 2.783 0 0 0 4 9.778v44.444A2.783 2.783 0 0 0 6.8 57h50.4c1.551 0 2.8-1.239 2.8-2.778z" fill="#8F3F71"/>
    <path d="M52.957 17.956A3 3 0 0 0 50 20.999v23.98a3 3 0 1 0 6 0V21a3 3 0 0 0-3.043-3.043zm-24.066.004a3 3 0 0 0-2.723 3.984l7.984 24a3 3 0 0 0 5.696.004l8-24a3.002 3.002 0 1 0-5.696-1.898L37 35.503l-5.14-15.45a3 3 0 0 0-2.97-2.093zm-10.047.043a3 3 0 0 0-2.692 2.047L8.168 44.034a3 3 0 1 0 5.691 1.895l5.145-15.438 5.148 15.438a3.002 3.002 0 0 0 5.696-1.899l-8-23.98a3 3 0 0 0-3.004-2.047z" opacity=".2"/>
    <path d="M11.014 43.981L19 20l8 23.981M29.014 20L37 44l8-24M53 20v23.981" fill="none" stroke="#F9F5D7" stroke-width="6" stroke-linecap="round" stroke-linejoin="round"/>
    <path d="M6.8 7A2.783 2.783 0 0 0 4 9.777v1A2.783 2.783 0 0 1 6.8 8h50.4c1.55 0 2.8 1.238 2.8 2.777v-1A2.783 2.783 0 0 0 57.2 7H6.8z" opacity=".2" fill="#F9F5D7"/>
</svg>
