<svg xmlns="http://www.w3.org/2000/svg" width="64" height="64" version="1">
    <path d="M60 58.2V7.8C60 6.249 58.751 5 57.2 5H6.8A2.794 2.794 0 0 0 4 7.8v50.4C4 59.751 5.249 61 6.8 61h50.4c1.551 0 2.8-1.249 2.8-2.8z" opacity=".2"/>
    <path d="M60 57.2V6.8C60 5.249 58.751 4 57.2 4H6.8A2.794 2.794 0 0 0 4 6.8v50.4C4 58.751 5.249 60 6.8 60h50.4c1.551 0 2.8-1.249 2.8-2.8z" fill="#504945"/>
    <path d="M60 57.2V6.8C60 5.249 58.751 4 57.2 4H32v56h25.2c1.551 0 2.8-1.249 2.8-2.8z" fill="#928274"/>
    <path d="M11 19a3 3 0 0 0-3 3v22a3 3 0 0 0 3 3h3.324c4.626 0 8.322-.776 10.764-3.433C27.53 40.909 28 37.307 28 33c0-4.285-.474-7.882-2.91-10.543C22.653 19.797 18.956 19 14.324 19zm30 0a3 3 0 0 0-3 3v16a3 3 0 0 0-3 3v5c-.057 4.057 6.057 4.057 6 0v-2h10v2a3 3 0 0 0 3 3 3 3 0 0 0 3-3.482V41a3 3 0 0 0-3-3V22a3 3 0 0 0-3-3zm-27 6h.324c3.943 0 5.585.681 6.342 1.508C21.423 27.335 22 29.237 22 33c0 3.788-.578 5.688-1.33 6.506-.752.818-2.397 1.494-6.346 1.494H14zm30 0h4v13h-4z" opacity=".2" fill-rule="evenodd"/>
    <path d="M11 21v22h3.325C22.9 43 25 40.095 25 32c0-8.048-2.1-11-10.675-11H11z" fill="none" stroke="#F9F5D7" stroke-width="6" stroke-linecap="round" stroke-linejoin="round"/>
    <path d="M41 40V21h10v19zM38 45v-5h16v5h0" fill="none" stroke="#3A393A" stroke-width="6" stroke-linecap="round" stroke-linejoin="round"/>
    <path d="M6.8 4C5.25 4 4 5.25 4 6.8v1C4 6.25 5.25 5 6.8 5h50.4C58.75 5 60 6.25 60 7.8v-1C60 5.25 58.75 4 57.2 4H6.8z" fill="#F9F5D7" opacity=".1"/>
</svg>
