<svg xmlns="http://www.w3.org/2000/svg" width="64" height="64" version="1">
    <circle cx="32" cy="33" r="28" opacity=".2"/>
    <circle cx="32" cy="32" r="28" fill="#CB241D"/>
    <path d="M32 18a3 3 0 0 0-3 3 3 3 0 0 0 1.174 2.377c-1.538 2.603-3.077 5.204-4.615 7.677-.794 1.21-1.985 1.977-3.176 1.977-4.161-.03-4.103-2.272-5.848-4.75A2 2 0 0 0 17 27a2 2 0 0 0-2-2 2 2 0 0 0-2 2 2 2 0 0 0 1.86 1.992l.11.314c.795 3.092 1.457 6.451 2.25 9.946.133.537.53.941 1.06.941 4.5.538 9.133.807 13.765.807 4.632 0 9.264-.27 13.764-.807.397 0 .793-.404.925-.941.794-3.495 1.456-6.854 2.25-9.946l.108-.31A2 2 0 0 0 51 27a2 2 0 0 0-2-2 2 2 0 0 0-2 2 2 2 0 0 0 .605 1.431c-1.987 2.214-2.82 4.455-6.164 4.6-1.323 0-2.383-.767-3.177-1.977-1.521-2.445-3.04-5.016-4.56-7.59A3 3 0 0 0 35 21a3 3 0 0 0-3-3zM18.828 43.004c-.438.017-.828.43-.828.84v2.46c0 .586.381 1.172 1.018 1.29a60.62 60.62 0 0 0 25.964 0c.51-.118 1.018-.704 1.018-1.29v-2.46c0-.587-.381-.94-1.018-.823-4.244.584-8.583 1.175-12.921 1.178-4.38.003-8.76-.589-13.043-1.178a.713.713 0 0 0-.19-.017z" opacity=".2"/>
    <path d="M49.445 26.965l-.46 1.342c-.794 3.091-1.456 6.451-2.25 9.946-.133.537-.53.94-.927.94-4.5.538-9.132.807-13.764.807s-9.264-.269-13.764-.806c-.53 0-.927-.404-1.059-.941-.794-3.495-1.456-6.855-2.25-9.946l-.46-1.29c-.926-.135-.31-.584-.31-1.525 0-1.21-.6-.326.591-.595 1.191-.269 1.246-.144 1.246 1.2 0 .806.753.253.224.79 2.06 2.631 1.738 5.113 6.12 5.144 1.192 0 2.383-.767 3.177-1.977 1.588-2.553 3.176-5.241 4.765-7.93-.398-.537-.662-1.21-.662-1.881 0-1.479.977-1.8 2.3-1.8 1.192 0 2.2.321 2.2 1.8 0 .672-.265 1.344-.662 1.882 1.588 2.688 3.176 5.376 4.764 7.93.795 1.209 1.853 1.976 3.177 1.976 3.715-.161 4.316-2.909 6.862-5.332-.53-.537-.075-.088-.075-.895 0-1.344-.555-1.212.636-.943s1.096.406 1.096 1.615c-.132.672.411.22-.515.49zM46 42.843c0-.586-.382-.938-1.018-.82-4.244.583-8.583 1.174-12.922 1.177-4.379.003-8.758-.589-13.042-1.178-.509-.117-1.018.352-1.018.82v2.462c0 .586.382 1.172 1.018 1.29a60.614 60.614 0 0 0 25.964 0c.509-.118 1.018-.704 1.018-1.29z" fill="#FECE4F"/>
    <circle cx="15" cy="26" r="2" fill="#FECE4F"/>
    <circle cx="49" cy="26" r="2" fill="#FECE4F"/>
    <circle cx="32" cy="20" r="3" fill="#FECE4F"/>
    <path d="M32 4A28 28 0 0 0 4 32a28 28 0 0 0 .018.492A28 28 0 0 1 32 5a28 28 0 0 1 27.975 27.492A28 28 0 0 0 60 32 28 28 0 0 0 32 4z" opacity=".2" fill="#F9F5D7"/>
</svg>
