<svg xmlns="http://www.w3.org/2000/svg" width="64" height="64">
    <path d="M32 5c-.16 0-.848.456-1.582 1.012-6.484 4.801-15.605 9.803-24.291 11.037L5 17.224l.078 1.135c.13 1.92 1.244 7.014 2.314 10.593 1.371 4.581 2.89 8.43 4.885 12.387 4.52 8.962 10.232 14.51 17.25 18.772.914.556 1.763.855 2.473.889.71-.034 1.559-.333 2.473-.889 7.018-4.261 12.73-9.81 17.25-18.772 1.995-3.958 3.514-7.806 4.885-12.387 1.07-3.58 2.183-8.674 2.314-10.593L59 17.224l-1.127-.175c-8.686-1.234-17.807-6.236-24.291-11.037C32.848 5.456 32.16 5 32 5z" opacity=".2"/>
    <path d="M32 4c-.16 0-.848.456-1.582 1.012-6.484 4.801-15.605 9.803-24.291 11.037L5 16.224l.078 1.135c.13 1.92 1.244 7.014 2.314 10.593 1.371 4.581 2.89 8.43 4.885 12.387 4.52 8.962 10.232 14.51 17.25 18.772.914.556 1.763.855 2.473.889.71-.034 1.559-.333 2.473-.889 7.018-4.261 12.73-9.81 17.25-18.772 1.995-3.958 3.514-7.806 4.885-12.387 1.07-3.58 2.183-8.674 2.314-10.593L59 16.224l-1.127-.175c-8.686-1.234-17.807-6.236-24.291-11.037C32.848 4.456 32.16 4 32 4z" fill="#F15C22"/>
    <path d="M32 12.043c-5.632 3.953-12.467 7.77-20.07 9.781.413 2.024.657 3.557 1.21 5.406 1.287 4.3 2.65 7.753 4.493 11.407 3.896 7.727 8.448 12.12 14.367 15.84 5.92-3.72 10.47-8.113 14.367-15.84 1.843-3.654 3.206-7.107 4.492-11.407.554-1.849.798-3.382 1.211-5.406-7.603-2.012-14.438-5.828-20.07-9.781z" opacity=".2"/>
    <path d="M32 11.043c-5.632 3.953-12.467 7.77-20.07 9.781.413 2.024.657 3.557 1.21 5.406 1.287 4.3 2.65 7.753 4.493 11.407 3.896 7.727 8.448 12.12 14.367 15.84 5.92-3.72 10.47-8.113 14.367-15.84 1.843-3.654 3.206-7.107 4.492-11.407.554-1.849.798-3.382 1.211-5.406-7.603-2.012-14.438-5.828-20.07-9.781z" fill="#F9F5D7"/>
    <path fill="#F15C22" d="M29 34.8h6V46h-6z"/>
    <path d="M32 19l5.5 10L43 39H21l5.5-10z" opacity=".2"/>
    <path d="M32 18l5.5 10L43 38H21l5.5-10z" fill="#F15C22"/>
    <path d="M32 17l4.5 7 4.5 7H23l4.5-7z" opacity=".2"/>
    <path d="M32 16l4.5 7 4.5 7H23l4.5-7z" fill="#F15C22"/>
    <path d="M32 4c-.16 0-.848.456-1.582 1.012-6.484 4.801-15.607 9.804-24.293 11.039L5 16.223l.068.99 1.057-.162c8.686-1.235 17.809-6.238 24.293-11.04C31.152 5.457 31.84 5 32 5c.16 0 .848.456 1.582 1.012 6.484 4.801 15.607 9.804 24.293 11.039l1.057.162.068-.99-1.125-.172c-8.686-1.235-17.809-6.238-24.293-11.04C32.848 4.457 32.16 4 32 4z" opacity=".2" fill="#F9F5D7"/>
</svg>
