<svg xmlns="http://www.w3.org/2000/svg" width="64" height="64" version="1">
    <path d="M5 15.285v2c0 .397.271.715.609.715H16.39c.338 0 .61-.318.61-.715v-2c0 .397-.272.715-.61.715H5.61c-.338 0-.61-.318-.61-.715zm14 0v2c0 .397.271.715.61.715h10.78c.339 0 .61-.318.61-.715v-2c0 .397-.271.715-.61.715H19.61c-.338 0-.61-.318-.61-.715zm14 0v2c0 .397.272.715.61.715h10.781c.336 0 .608-.318.608-.715v-2c0 .397-.272.715-.61.715H33.61c-.338 0-.61-.318-.61-.715zm14 0v2c0 .397.272.715.61.715h10.782c.336 0 .608-.318.608-.715v-2c0 .397-.272.715-.61.715H47.61c-.339 0-.61-.318-.61-.715zm-42 14v2c0 .397.271.715.609.715H16.39c.338 0 .61-.318.61-.714v-2c0 .396-.272.714-.61.714H5.61c-.338 0-.61-.318-.61-.714zm14 0v2c0 .397.271.715.61.715h10.78c.339 0 .61-.318.61-.714v-2c0 .396-.271.714-.61.714H19.61c-.338 0-.61-.318-.61-.714zm14 0v2c0 .397.272.715.61.715h10.781c.336 0 .608-.318.608-.714v-2c0 .396-.272.714-.61.714H33.608c-.336 0-.608-.318-.608-.714zm14 0v2c0 .397.272.715.61.715h10.782c.336 0 .608-.318.608-.714v-2c0 .396-.272.714-.61.714H47.608c-.336 0-.608-.318-.608-.714zm-42 14v2c0 .397.271.715.609.715H16.39c.338 0 .61-.318.61-.714v-2c0 .396-.272.714-.61.714H5.61c-.338 0-.61-.318-.61-.714zm14 0v2c0 .397.271.715.61.715h10.78c.339 0 .61-.318.61-.714v-2c0 .396-.271.714-.61.714H19.61c-.338 0-.61-.318-.61-.714zm14 0v2c0 .397.272.715.61.715h10.781c.336 0 .608-.318.608-.714v-2c0 .396-.272.714-.61.714H33.608c-.336 0-.608-.318-.608-.714zm14 0v2c0 .397.272.715.61.715h10.782c.336 0 .608-.318.608-.714v-2c0 .396-.272.714-.61.714H47.608c-.336 0-.608-.318-.608-.714zM5 57.287v2c0 .396.271.714.609.714H16.39c.338 0 .61-.318.61-.714v-2c0 .396-.272.714-.61.714H5.61c-.338 0-.61-.318-.61-.714zm14 0v2c0 .396.271.714.61.714h10.78c.339 0 .61-.318.61-.714v-2c0 .396-.271.714-.61.714H19.61c-.338 0-.61-.318-.61-.714zm14 0v2c0 .396.272.714.61.714h10.781c.336 0 .608-.318.608-.714v-2c0 .396-.272.714-.61.714H33.608c-.336 0-.608-.318-.608-.714zm14 0v2c0 .396.272.714.61.714h10.782c.336 0 .608-.318.608-.714v-2c0 .396-.272.714-.61.714H47.608c-.336 0-.608-.318-.608-.714z" opacity=".2"/>
    <rect width="12" height="12" x="5" y="5" rx=".61" ry=".716" fill="#504945"/>
    <rect width="12" height="12" x="19" y="5" rx=".61" ry=".716" fill="#F9F5D7"/>
    <rect width="12" height="12" x="33" y="5" rx=".61" ry=".716" fill="#FA4934"/>
    <rect width="12" height="12" x="47" y="5" rx=".61" ry=".716" fill="#F9F5D7"/>
    <rect width="12" height="12" x="5" y="19" rx=".61" ry=".716" fill="#F9F5D7"/>
    <rect width="12" height="12" x="19" y="19" rx=".61" ry=".716" fill="#F9F5D7"/>
    <rect width="12" height="12" x="33" y="19" rx=".61" ry=".716" fill="#FA4934"/>
    <rect width="12" height="12" x="47" y="19" rx=".61" ry=".716" fill="#F9F5D7"/>
    <rect width="12" height="12" x="5" y="33" rx=".61" ry=".716" fill="#F9F5D7"/>
    <rect width="12" height="12" x="19" y="33" rx=".61" ry=".716" fill="#504945"/>
    <rect width="12" height="12" x="33" y="33" rx=".61" ry=".716" fill="#F9F5D7"/>
    <rect width="12" height="12" x="47" y="33" rx=".61" ry=".716" fill="#7CB668"/>
    <rect width="12" height="12" x="5" y="47" rx=".61" ry=".716" fill="#F9F5D7"/>
    <rect width="12" height="12" x="19" y="47" rx=".61" ry=".716" fill="#F9F5D7"/>
    <rect width="12" height="12" x="33" y="47" rx=".61" ry=".716" fill="#F9F5D7"/>
    <rect width="12" height="12" x="47" y="47" rx=".61" ry=".716" fill="#F9F5D7"/>
    <path d="M5.61 5C5.27 5 5 5.318 5 5.715v1C5 6.318 5.271 6 5.61 6h10.78c.339 0 .61.318.61.715v-1c0-.397-.271-.715-.61-.715H5.61z" opacity=".1" fill="#F9F5D7"/>
    <path d="M19.61 5c-.339 0-.61.318-.61.715v1c0-.397.271-.715.61-.715h10.78c.339 0 .61.318.61.715v-1c0-.397-.271-.715-.61-.715H19.61zM33.607 5c-.337.001-.607.32-.607.715v1c0-.396.27-.714.607-.715H44.39c.338 0 .611.318.611.715v-1c0-.397-.273-.715-.611-.715H33.607zM47.607 5c-.337.001-.607.32-.607.715v1c0-.396.27-.714.607-.715H58.39c.338 0 .611.318.611.715v-1c0-.397-.273-.715-.611-.715H47.607zM5.61 19c-.339 0-.61.319-.61.715v1c0-.396.271-.715.61-.715h10.78c.339 0 .61.319.61.715v-1c0-.396-.271-.715-.61-.715H5.61zM19.61 19c-.339 0-.61.319-.61.715v1c0-.396.271-.715.61-.715h10.78c.339 0 .61.319.61.715v-1c0-.396-.271-.715-.61-.715H19.61zM33.607 19c-.337.001-.607.32-.607.715v1c0-.395.27-.714.607-.715H44.39c.338 0 .611.319.611.715v-1c0-.396-.273-.715-.611-.715H33.607zM47.607 19c-.337.001-.607.32-.607.715v1c0-.395.27-.714.607-.715H58.39c.338 0 .611.319.611.715v-1c0-.396-.273-.715-.611-.715H47.607zM5.61 33c-.339 0-.61.319-.61.715v1c0-.396.271-.715.61-.715h10.78c.339 0 .61.319.61.715v-1c0-.396-.271-.715-.61-.715H5.61z" opacity=".2" fill="#F9F5D7"/>
    <path d="M19.61 33c-.339 0-.61.319-.61.715v1c0-.396.271-.715.61-.715h10.78c.339 0 .61.319.61.715v-1c0-.396-.271-.715-.61-.715H19.61z" opacity=".1" fill="#F9F5D7"/>
    <path d="M33.607 33c-.337.001-.607.32-.607.715v1c0-.395.27-.714.607-.715H44.39c.338 0 .611.319.611.715v-1c0-.396-.273-.715-.611-.715H33.607zM47.607 33c-.337.001-.607.32-.607.715v1c0-.395.27-.714.607-.715H58.39c.338 0 .611.319.611.715v-1c0-.396-.273-.715-.611-.715H47.607zM5.61 47c-.339 0-.61.319-.61.715v1c0-.396.271-.715.61-.715h10.78c.339 0 .61.319.61.715v-1c0-.396-.271-.715-.61-.715H5.61zM19.61 47c-.339 0-.61.319-.61.715v1c0-.396.271-.715.61-.715h10.78c.339 0 .61.319.61.715v-1c0-.396-.271-.715-.61-.715H19.61zM33.607 47c-.337.001-.607.32-.607.715v1c0-.395.27-.714.607-.715H44.39c.338 0 .611.319.611.715v-1c0-.396-.273-.715-.611-.715H33.607zM47.607 47c-.337.001-.607.32-.607.715v1c0-.395.27-.714.607-.715H58.39c.338 0 .611.319.611.715v-1c0-.396-.273-.715-.611-.715H47.607z" opacity=".2" fill="#F9F5D7"/>
</svg>
