<svg xmlns="http://www.w3.org/2000/svg" width="64" height="64" version="1">
    <path d="M32 4a11 11 0 0 0-11 11 11 11 0 0 0 8 10.57V32h-8v6h8v11.367c-1.104 1.245-3.218 1.92-4.336 1.774-7.134-.935-12.927-2.475-16.258-5.563l4.887.246-4.164-3.883-4.168-3.886C3.388 41.615 3.2 45.153 3 48.957l2.582-2.547c1.242 5.116 18.178 8.34 20.57 10.445L32 62l5.844-5.14c2.397-2.11 19.332-5.345 20.554-10.465L61 48.957c0-3.871-.844-7.265-1.96-10.902l-4.165 3.886-3.54 3.887 4.27-.25c-3.322 3.077-9.087 4.625-16.195 5.563-1.136.15-3.293-.534-4.41-1.79V38h8v-6h-8v-6.422A11 11 0 0 0 43 15 11 11 0 0 0 32 4z" opacity=".2"/>
    <path d="M32 3a11 11 0 0 0-11 11 11 11 0 0 0 8 10.57V31h-8v6h8v11.367c-1.104 1.245-3.218 1.92-4.336 1.774-7.134-.935-12.927-2.475-16.258-5.563l4.887.246-4.164-3.883-4.168-3.886C3.388 40.615 3.2 44.153 3 47.957l2.582-2.547c1.242 5.116 18.178 8.34 20.57 10.445L32 61l5.844-5.14c2.397-2.11 19.332-5.345 20.554-10.465L61 47.957c0-3.871-.844-7.265-1.96-10.902l-4.165 3.886-3.54 3.887 4.27-.25c-3.322 3.077-9.087 4.625-16.195 5.563-1.136.15-3.293-.534-4.41-1.79V37h8v-6h-8v-6.422A11 11 0 0 0 43 14 11 11 0 0 0 32 3z" fill="#504945"/>
    <path d="M32 9c3.315 0 6 2.685 6 6s-2.685 6-6 6-6-2.685-6-6 2.685-6 6-6z" opacity=".2"/>
    <path d="M32 8c3.315 0 6 2.685 6 6s-2.685 6-6 6-6-2.685-6-6 2.685-6 6-6z" fill="#F9F5D7"/>
    <path d="M32 3a11 11 0 0 0-11 11 11 11 0 0 0 .021.406A11 11 0 0 1 32 4a11 11 0 0 1 10.977 10.514A11 11 0 0 0 43 14 11 11 0 0 0 32 3zM21 31v1h8v-1h-8zm14 0v1h8v-1h-8zM4.96 37.055C3.389 40.615 3.2 44.153 3 47.957l.064-.062c.191-3.401.472-6.617 1.897-9.84l4.168 3.886 3.031 2.827 1.133.056-4.164-3.883-4.168-3.886zm54.08 0l-4.165 3.886-3.54 3.887.962-.057 2.578-2.83 4.164-3.886c1.016 3.31 1.8 6.423 1.934 9.875l.027.027c0-3.871-.844-7.265-1.96-10.902zM8.405 45.578c3.331 3.088 9.124 4.628 16.258 5.563 1.118.146 3.232-.529 4.336-1.774v-1c-1.104 1.245-3.218 1.92-4.336 1.774-6.26-.82-11.484-2.107-14.922-4.496l-1.336-.067zm47.2 0l-1.354.08c-3.427 2.373-8.62 3.662-14.842 4.483-1.136.15-3.293-.534-4.41-1.79v1c1.117 1.256 3.274 1.94 4.41 1.79 7.108-.938 12.873-2.486 16.195-5.563z" fill="#F9F5D7" opacity=".1"/>
</svg>
