<svg xmlns="http://www.w3.org/2000/svg" width="64" height="64" version="1">
    <path d="M60 31L38 53H7c-1.662 0-3-1.338-3-3v2c0 1.662 1.338 3 3 3h31l22-22v-2z" opacity=".2"/>
    <path d="M60 32V13c0-1.662-1.338-3-3-3H7c-1.662 0-3 1.338-3 3v38c0 1.662 1.338 3 3 3h31z" fill="#8F3F71"/>
    <path d="M56 34.322V14H8v36h32z" fill="#8F3F71"/>
    <path d="M26.038 23A1.993 2.232 0 0 0 24 25.232V40.77a1.993 2.232 0 0 0 2.989 1.931l6.006-3.884 6.009-3.885a1.993 2.232 0 0 0 0-3.865l-6.009-3.885-6.006-3.884a1.993 2.232 0 0 0-.951-.297z" opacity=".2"/>
    <path d="M7 10c-1.662 0-3 1.338-3 3v1c0-1.662 1.338-3 3-3h50c1.662 0 3 1.338 3 3v-1c0-1.662-1.338-3-3-3H7z" opacity=".1" fill="#F9F5D7"/>
    <path d="M26.038 22A1.993 2.232 0 0 0 24 24.232V39.77a1.993 2.232 0 0 0 2.989 1.931l6.006-3.884 6.009-3.885a1.993 2.232 0 0 0 0-3.865l-6.009-3.885-6.006-3.884a1.993 2.232 0 0 0-.951-.297z" fill="#F9F5D7"/>
    <path d="M60 32H40.75A2.751 2.751 0 0 0 38 34.75V54z" fill="#D3869B"/>
    <path d="M40.75 32A2.751 2.751 0 0 0 38 34.75v1A2.751 2.751 0 0 1 40.75 33H59l1-1H40.75z" opacity=".2" fill="#F9F5D7"/>
</svg>
