<svg xmlns="http://www.w3.org/2000/svg" width="64" height="64" version="1">
    <path d="M4.05 32c-.011.334-.05.662-.05 1 0 15.512 12.488 28 28 28s28-12.488 28-28c0-.338-.039-.665-.05-1C59.42 47.042 47.172 59 32 59 16.824 59 4.576 47.042 4.05 32z" opacity=".2"/>
    <rect width="56" height="56" x="4" y="4" rx="28" ry="28" fill="#CB241D"/>
    <path d="M32 4C16.488 4 4 16.488 4 32c0 .114.011.224.018.336C4.369 17.134 16.71 5 32 5h.002c15.29 0 27.63 12.134 27.982 27.336.007-.112.018-.223.018-.336 0-15.512-12.488-28-28-28H32z" opacity=".1" fill="#F9F5D7"/>
    <path d="M24.107 42.905c-.64-.088-1.779-.464-2.538-.835-4.95-2.409-6.974-8.476-4.536-13.586 2.785-5.843 10.384-7.332 14.957-2.931 1.322 1.27 1.91 2.355 3.9 7.162 2.079 5.028 2.463 5.818 3.136 6.488.722.713 1.39.953 2.67.953 2.101 0 3.602-1.319 3.602-3.16 0-1.558-.539-2.057-3.29-3.049-4.188-1.535-5.545-2.921-5.55-5.707 0-1.485.37-2.476 1.312-3.503 1.352-1.465 3.684-1.95 5.748-1.222.88.318 2.722 1.974 2.722 2.448 0 .23-1.067.933-1.66 1.1-.312.081-.582-.025-.943-.377-.731-.713-1.226-.933-2.101-.933-1.511 0-2.448.923-2.448 2.414 0 1.485.596 1.988 3.573 3.009 4.102 1.407 5.314 2.677 5.339 5.617.024 2.54-1.102 4.373-3.343 5.457-1.02.489-1.366.552-3.03.552-2.377 0-3.444-.45-4.776-1.974-.895-1.025-1.804-2.95-4.713-9.976-1.207-2.912-2.756-4.339-5.34-4.9-1.308-.284-3.13-.02-4.318.615-1.159.615-2.453 2.004-3.064 3.273-.504 1.03-.552 1.32-.552 3.112 0 1.71.067 2.114.49 3.052.64 1.432 1.9 2.755 3.285 3.468 1 .513 1.312.577 2.909.577 1.534 0 1.928-.074 2.843-.518 1.044-.518 2.448-1.788 3.02-2.74l.298-.494.587 1.363c.328.753.591 1.461.591 1.588 0 .377-1.327 1.608-2.543 2.374-1.847 1.158-3.969 1.592-6.234 1.28m-.005 0" opacity=".2"/>
    <path d="M24.107 41.905c-.64-.088-1.779-.464-2.538-.835-4.95-2.409-6.974-8.476-4.536-13.586 2.785-5.843 10.384-7.332 14.957-2.931 1.322 1.27 1.91 2.355 3.9 7.162 2.079 5.028 2.463 5.818 3.136 6.488.722.713 1.39.953 2.67.953 2.101 0 3.602-1.319 3.602-3.16 0-1.558-.539-2.057-3.29-3.049-4.188-1.535-5.545-2.921-5.55-5.707 0-1.485.37-2.476 1.312-3.503 1.352-1.465 3.684-1.95 5.748-1.222.88.318 2.722 1.974 2.722 2.448 0 .23-1.067.933-1.66 1.1-.312.081-.582-.025-.943-.377-.731-.713-1.226-.933-2.101-.933-1.511 0-2.448.923-2.448 2.414 0 1.485.596 1.988 3.573 3.009 4.102 1.407 5.314 2.677 5.339 5.617.024 2.54-1.102 4.373-3.343 5.457-1.02.489-1.366.552-3.03.552-2.377 0-3.444-.45-4.776-1.974-.895-1.025-1.804-2.95-4.713-9.976-1.207-2.912-2.756-4.339-5.34-4.9-1.308-.284-3.13-.02-4.318.615-1.159.615-2.453 2.004-3.064 3.273-.504 1.03-.552 1.32-.552 3.112 0 1.71.067 2.114.49 3.052.64 1.432 1.9 2.755 3.285 3.468 1 .513 1.312.577 2.909.577 1.534 0 1.928-.074 2.843-.518 1.044-.518 2.448-1.788 3.02-2.74l.298-.494.587 1.363c.328.753.591 1.461.591 1.588 0 .377-1.327 1.608-2.543 2.374-1.847 1.158-3.969 1.592-6.234 1.28m-.005 0" fill="#F9F5D7"/>
</svg>
