<svg xmlns="http://www.w3.org/2000/svg" width="64" height="64" version="1">
    <path d="M6.8 5A2.794 2.794 0 0 0 4 7.8V33a28 28 0 0 0 28 28h25.2c1.551 0 2.8-1.249 2.8-2.8V7.8C60 6.249 58.751 5 57.2 5H32z" opacity=".2"/>
    <path d="M6.8 4A2.794 2.794 0 0 0 4 6.8V32a28 28 0 0 0 28 28h25.2c1.551 0 2.8-1.249 2.8-2.8V6.8C60 5.249 58.751 4 57.2 4H32z" fill="#504945"/>
    <path d="M10 11v22.055c.002.657.042 1.304.102 1.945a22.245 22.245 0 0 0 .632 3.594c.043.165.079.333.125.496l.004-.004c.083.29.164.579.258.863l.008.02c.258.78.562 1.538.902 2.277.019.04.04.078.059.117.342.732.723 1.44 1.14 2.125.151.248.293.502.454.742h-.008c.01.014.022.026.031.04.456.682.952 1.332 1.48 1.957.11.128.229.245.34.37.425.48.867.943 1.332 1.383a21.84 21.84 0 0 0 1.95 1.637c.16.12.317.24.48.356.643.453 1.305.878 1.996 1.261.017.01.03.022.047.032a21.86 21.86 0 0 0 5.184 2.027c.788.2 1.593.36 2.414.473l.047.007a22.337 22.337 0 0 0 2.043.18c.002 0 .001-.004.004-.004.326.014.646.051.976.051h22V11H32z" opacity=".2"/>
    <path d="M10 10v22.054A21.916 21.916 0 0 0 31.999 54H54V10H31.998z" fill="#B57514"/>
    <path d="M40.057 11l.052.367c.03.203.19.435.356.516.165.08.436.215.601.297.195.096.283.301.248.584-.038.317.157.672.715 1.3.511.576.86 1.183 1.043 1.815.29 1 .754 1.48 1.424 1.48.275 0 .484.188.717.645.18.354.489.788.683.965.374.337.398.338 2.54-.084.934-.184 1.156-.172 1.976.12.796.286.984.443 1.352 1.14.234.444.582.878.773.964.519.235.753.066.953-.675.1-.369.253-.668.344-.668.101 0 .166-1.693.166-4.383v-1c0 2.69-.065 4.383-.166 4.383-.09 0-.245.3-.344.668-.2.741-.434.91-.953.675-.19-.086-.539-.52-.773-.964-.368-.697-.556-.854-1.352-1.14-.82-.292-1.042-.304-1.976-.12-2.142.422-2.166.421-2.54.084-.194-.177-.502-.61-.683-.965-.233-.457-.442-.645-.717-.645-.67 0-1.133-.48-1.424-1.48-.183-.632-.532-1.24-1.043-1.815-.558-.628-.753-.983-.715-1.3.035-.283-.053-.488-.248-.584l-.363-.18h-.646zm-6.139.025c-.407.02-.713.045-.713.08 0 .059.403.571.895 1.14.874 1.009.897 1.023 1.068.624.265-.618.467-.676 1.059-.31.595.367 1.103.433 1.103.146 0-.093-.179-.465-.396-.848a2.193 2.193 0 0 1-.707-.298c-.592-.366-.794-.308-1.059.31-.17.399-.194.385-1.068-.625-.071-.081-.116-.14-.182-.219zm-4.537 2.06c-.196-.021-.15.389.191 1.114.115.088.248.218.422.44.197.252.538.497.832.638.077.003.144.015.23.008.388-.031.516-.129.516-.387 0-.238-.178-.4-.576-.529-.316-.102-.767-.43-1.002-.73-.284-.363-.492-.54-.613-.553zm8.838.82c-.088.046-.109.152-.1.36.025.596.512 2.337.91 3.266.183.426.423 1.018.533 1.317.111.298.604.975 1.096 1.504.766.822.984.96 1.512.96.753 0 1.04-.314 1.062-1.16a1.595 1.595 0 0 0-.068-.46c-.126.445-.43.62-.994.62-.528 0-.746-.138-1.512-.96-.492-.53-.985-1.206-1.096-1.504-.11-.299-.35-.891-.533-1.317-.298-.695-.644-1.842-.81-2.627zm-6.268 3.894c-.05-.005-.105.02-.162.078a.318.318 0 0 0-.045.373c.083.135.18.144.295.03a.319.319 0 0 0 .049-.374c-.042-.067-.087-.102-.137-.107zm6.477 1.369c-.029.044-.04.07-.073.12-.483.729-.633 1.181-.392 1.716.085-.214.212-.445.392-.717.44-.663.473-.868.073-1.119zm-.71 1.38c-.017.019-.026.08-.03.18-.008.182.03.284.087.227.058-.057.064-.206.014-.33-.027-.069-.052-.094-.07-.076zm.259 1.491c-.104.446-.385.989-.803 1.434-.219.232-.353.493-.301.578.052.084-.029.381-.18.658-.35.643-.627 2.28-.601 3.572.02.978.007 1.004-.399.926-.388-.074-.37-.021.28.754.031.038.061.067.091.098.032-.136.036-.358.028-.778-.026-1.292.25-2.93.601-3.572.151-.277.232-.574.18-.658-.052-.085.082-.346.3-.578.644-.685 1.016-1.629.804-2.037-.025-.048-.019-.064.013-.051.096.039.428.332.864.775.411.42.673.717.834.96-.158-.241-.412-.535-.811-.944-.451-.463-.746-.815-.9-1.137zm-2.057 1.195c-.209 0-.167.42.066.653.27.27.485.264.485-.016 0-.248-.337-.637-.551-.637zm-4.203 3.526c-.542-.034-1.457.115-1.92.355-.312.162-.523.171-.834.03-.365-.167-.473-.124-.912.357-.275.3-.584.545-.686.545-.102 0-.489-.2-.86-.445-.37-.246-.753-.396-.853-.334-.1.061-.181.46-.181.886 0 .933-.204 1.373-.92 1.992-.29.251-.388.4-.336.456-.062-.026-.079-.083-.016-.192.068-.118-.068-.04-.303.172-.06.055-.153.095-.232.143-.009-.056-.051-.1-.15-.1-.142 0-.307.077-.366.172-.032.053-.017.095.02.127-.068.014-.143.05-.201.05-.541.007-1.28.51-1.28.874 0 .058-.079.174-.189.312.109.223.19.46.19.615 0 .2-.524.787-1.17 1.393.64-.589 1.17-1.152 1.17-1.32 0-.363.738-.867 1.279-.873.058-.001.133-.037.201-.051-.037-.032-.052-.074-.02-.127.059-.095.224-.172.366-.172.099 0 .141.044.15.1.08-.048.172-.088.232-.143.235-.213.371-.29.303-.172-.063.109-.046.166.016.192-.052-.055.046-.205.336-.456.368-.318.597-.592.736-.908.131-.297.184-.63.184-1.084 0-.426.081-.825.181-.886.1-.062.483.088.854.334.37.245.757.445.86.445.101 0 .41-.245.685-.545.439-.48.547-.524.912-.357.31.141.522.132.834-.03.617-.32 2.04-.479 2.307-.258.123.103.68.432 1.238.73.687.37 1.39.974 2.185 1.878.234.33.453.551.664.728-.074-.081-.143-.142-.218-.232-.65-.775-.668-.828-.28-.754.227.043.326.035.37-.135a3.674 3.674 0 0 1-.536-.607c-.795-.904-1.498-1.508-2.185-1.877-.557-.3-1.115-.628-1.238-.73-.067-.056-.207-.087-.387-.098zm-10.715 3.81c-.108.008-.262.097-.39.235-.172.184-.442.336-.602.336-.16 0-.702.17-1.205.379-.913.378-.916.38-.809 1.015.023.138.025.268.024.395.102-.127.33-.222.785-.41.503-.209 1.045-.38 1.205-.38.16 0 .43-.151.601-.335.172-.184.389-.281.48-.215.13.093.28.31.397.543.116-.154.2-.286.2-.358 0-.327-.338-1-.596-1.185a.135.135 0 0 0-.09-.02zm4.713.453zm-1.037.493zM10 32.055v1a22.2 22.2 0 0 0 .86 6.037c.063-.09.133-.17.183-.268.44-.863 1.026-1.248 1.684-1.103.478.105.53.06.937-.83.561-1.226 1.067-1.562 2.113-1.405 1.49.224 2.445-.616 2.22-1.95-.015-.086-.018-.135-.026-.2-.206.848-1.033 1.324-2.194 1.15-1.046-.157-1.552.179-2.113 1.405-.408.89-.459.935-.937.83-.658-.145-1.244.24-1.684 1.103-.05.098-.12.179-.184.268A22.2 22.2 0 0 1 10 32.055z" opacity=".1" fill="#F9F5D7"/>
    <path d="M10 10V32.054a22.2 22.2 0 0 0 .86 6.037c.063-.09.132-.168.182-.266.44-.863 1.026-1.248 1.684-1.104.478.105.53.06.937-.83.561-1.225 1.068-1.561 2.114-1.404 1.49.223 2.444-.618 2.218-1.953-.107-.635-.104-.636.809-1.015.503-.208 1.046-.378 1.206-.378.16 0 .43-.152.601-.336.172-.184.389-.28.481-.215.259.185.596.858.596 1.184 0 .2-.524.788-1.17 1.394.64-.588 1.17-1.153 1.17-1.321 0-.363.738-.867 1.279-.873.058 0 .133-.036.201-.05-.037-.033-.052-.074-.019-.127.059-.095.224-.172.365-.172.1 0 .142.044.15.1.08-.048.171-.088.232-.143.234-.213.371-.29.303-.172-.062.109-.045.165.017.19-.052-.054.045-.202.335-.453.716-.62.919-1.06.919-1.993 0-.426.082-.824.182-.886.1-.062.484.088.854.333.371.245.758.446.86.446.102 0 .41-.245.685-.545.439-.48.548-.524.913-.357.31.141.52.132.832-.03.617-.32 2.04-.48 2.307-.258.124.103.682.431 1.239.73.686.37 1.39.974 2.186 1.878.233.33.451.55.663.728-.075-.082-.142-.141-.217-.231-.65-.775-.668-.83-.28-.755.406.078.417.052.398-.927-.026-1.292.25-2.928.601-3.571.151-.277.233-.574.18-.658-.052-.085.083-.345.301-.578.643-.684 1.016-1.63.803-2.038-.025-.048-.018-.064.014-.051.096.039.427.333.862.776.412.42.675.716.835.959-.157-.24-.412-.533-.811-.943-1.221-1.252-1.305-1.708-.521-2.89.528-.795.509-.925-.196-1.275-.309-.153-.414-.366-.454-.921-.041-.564-.16-.797-.543-1.069-.269-.192-.675-.35-.902-.35-.625 0-.886-.31-1.431-1.702-.45-1.148-.569-1.303-1.204-1.584-.444-.197-1.008-.693-1.533-1.348L31.26 10zm24.821 0c-.889 0-1.616.047-1.616.105 0 .058.402.57.894 1.138.874 1.01.898 1.025 1.069.626.265-.618.466-.677 1.058-.311.595.367 1.104.434 1.104.147 0-.101-.203-.526-.449-.945l-.446-.76zm5.235 0l.053.368c.03.203.19.435.355.516l.602.295c.194.096.284.303.25.585-.04.317.156.672.714 1.3.51.576.858 1.184 1.042 1.816.29.999.754 1.48 1.423 1.48.275 0 .484.187.717.644.181.354.49.788.685.964.374.338.397.339 2.538-.083.935-.184 1.157-.173 1.977.12.796.285.983.443 1.35 1.14.235.444.584.877.774.963.519.235.754.068.954-.674.099-.368.253-.668.343-.668.102 0 .167-1.693.167-4.383V10zm-1.743 2.876c-.17.018-.205.12-.194.39.026.595.512 2.336.91 3.265.183.426.422 1.018.533 1.316.11.299.603.975 1.095 1.504.766.823.985.962 1.512.962.753 0 1.042-.315 1.064-1.16.013-.507-.276-1.158-1.359-3.051-1.246-2.179-1.45-2.442-2.146-2.788-.422-.21-.959-.404-1.195-.43a1.11 1.11 0 0 0-.22-.008zm-8.933.21c.121.013.331.19.615.553.235.3.686.628 1.002.73.398.129.575.291.575.53 0 .257-.13.355-.516.386-.704.058-1.056-.19-1.461-1.028-.37-.765-.417-1.194-.215-1.171zm2.57 4.713c.05.005.096.04.137.107a.319.319 0 0 1-.048.374c-.115.114-.212.105-.296-.03a.318.318 0 0 1 .046-.373c.057-.058.112-.083.161-.078zm5.77 2.75c.017-.018.042.006.069.075.05.124.044.273-.014.33-.057.057-.096-.044-.088-.225.004-.1.014-.162.032-.18zm-1.8 2.685c.214 0 .55.39.55.637 0 .28-.213.286-.483.016-.233-.233-.276-.653-.067-.653zm-10.206 6.79zm12.515.25c-.166.062-.275.08-.47.18-.076.038-.106.034-.182.069.207-.057.425-.138.652-.25zm-13.552.24z" fill="#066678"/>
    <path d="M48.723 21.196a.494.494 0 0 0-.269.126c-.175.176-.32 2.045-.177 2.3.102.182.158.17.918-.218.764-.39.853-.6.314-.742-.36-.094-.375-.209-.131-1.141.06-.23-.339-.378-.655-.325zm-10.733.188c-.032-.013-.038.003-.013.051.212.409-.16 1.354-.803 2.038-.219.233-.353.493-.301.578.052.084-.029.38-.18.658-.35.643-.627 2.279-.602 3.572.02.978.009 1.004-.397.926-.388-.074-.37-.02.28.755.384.459.791.835.904.835.113 0 .51-.155.881-.344.371-.189.773-.344.895-.344.121 0 .384-.161.582-.36.235-.234.505-.333.774-.281.348.066.41.01.41-.358 0-.239-.13-.578-.29-.754-.252-.28-.258-.401-.066-.932.125-.347.172-.862.11-1.193-.087-.46-.036-.646.241-.883.47-.402.441-.712-.08-.91-.328-.125-.43-.288-.43-.685 0-.407-.229-.755-1.053-1.593-.435-.443-.766-.737-.862-.776zm-8.532 7.178c-.493 0-2.604.824-3.744 1.461-1.1.616-1.741.78-1.515.387.068-.118-.07-.04-.303.172-.234.213-.652.389-.93.392-.54.006-1.278.51-1.278.873 0 .355-2.296 2.434-3.207 2.903-.458.236-1.307.772-1.888 1.19-1.223.88-4.207 2.496-5.473 3.01a21.815 21.815 0 0 0 2.11 4.539c.293.069.582.144.769.217.455.18.983.325 1.174.325.19 0 .3.078.241.172-.13.21-1.31.223-1.737.027a21.9 21.9 0 0 0 7.654 7.036c1.574-.617 3.539-.958 4.055-.529.135.112.296.485.358.83.061.345.268.8.462 1.012.155.17.265.458.311.715.802.203 1.62.364 2.455.478.292-.136.432-.327.373-.567-.049-.2.03-.607.177-.902.223-.446.37-.537.857-.537.562 0 .591-.028.591-.62 0-.61.011-.622.559-.514.307.06.984.157 1.504.212.52.056 1.076.219 1.238.36.187.165.452.218.73.148.318-.08.438-.04.438.142 0 .498.34.444 1.007-.158.757-.684.967-1.322 1.152-3.532.135-1.597.03-1.72-1.3-1.536-.52.072-1.01.071-1.09-.002-.08-.074-.164-.55-.185-1.056a38.273 38.273 0 0 0-.18-2.17c-.144-1.265-.07-1.614.658-3.134.252-.526.99-.654 1.574-.271.607.398 1.09.34 1.318-.161.167-.367.138-.514-.177-.94-.474-.642-.466-.831.056-1.746.236-.411.429-.807.43-.878.001-.07-.39-.129-.87-.129-.854 0-1.718.366-3.94 1.668-1.857 1.088-2.182 1.25-2.514 1.251-.2.002-1.128.23-2.062.508-.934.277-2.562.697-3.615.935-1.271.286-2.204.61-2.77.958-.468.289-.923.524-1.012.524-.164 0-1.856 1.096-2.637 1.71-.527.415-2.322.697-2.205.347.076-.228 1.455-1.046 2.892-1.716 1.272-.593 1.419-.669 2.493-1.305 1.235-.732 3.467-1.457 8.967-2.914.49-.13 1.534-.6 2.32-1.045 2.819-1.591 2.863-1.608 4.129-1.608 1.357 0 1.638-.262 1.004-.938-.209-.222-.365-.586-.346-.808.077-.927-.242-1.158-1.037-.746-.273.14-.926.257-1.45.257-.943 0-1.046-.068-.964-.66.017-.128-.1-.379-.264-.559-.24-.266-.506-.324-1.428-.298-1.364.038-2.827-.353-2.91-.779-.03-.164.063-.486.213-.714.15-.229.274-.481.274-.561 0-.187-1.123-.726-1.512-.726zm17.15 1.553c-.432.005-.773.13-.773.405 0 .331.062.377 1.118.846 1.118.497 1.68.322 1.482-.464-.12-.478-1.104-.796-1.826-.787zm1.105 4.807c-.33 0-.503.805-.242 1.12.236.284.616.335.76.102.153-.248-.26-1.222-.518-1.222zm6.115 7.734a.172.172 0 0 0-.172.172c0 .095.078.172.172.172a.172.172 0 0 0 .172-.172.172.172 0 0 0-.172-.172zm0 3.008c-.192.119-.234.996-.056 1.174.2.2.228.13.228-.583 0-.421-.068-.655-.172-.59zm-14.237.089c-1.251.005-1.467.776-.252.902.36.037.679.08.709.097.153.082.717-.357.717-.559 0-.3-.382-.444-1.174-.44zm-5.573 1.923c.23.045.304.23.304.781 0 .775.023.797.714.623.643-.161 1.046.369.631.827-.155.172-.366.31-.47.306-.197-.005-1.211-.839-1.232-1.012-.007-.055-.113-.307-.237-.561-.271-.557-.124-1.047.29-.964zm14.586.794c-.196-.08-.294.01-.357.245-.057.212-.186.663-.287 1.002-.15.502-.117.865.185 1.965.204.742.359 1.51.344 1.706a3.218 3.218 0 0 0-.008.483c.01.071.57.129 1.243.129 1.19 0 1.22-.01 1.102-.387a7.349 7.349 0 0 1-.202-.902c-.447-2.93-.417-2.83-1.066-3.462-.46-.447-.757-.698-.954-.779zm5.396.538l-.688.351c-.873.446-.89.882-.072 1.655.338.318.647.58.687.58.041 0 .073-.581.073-1.292zm-17.522.18c.09 0 .164.116.164.257 0 .266-.204.342-.397.148-.138-.137.017-.406.233-.406zm-4.254.408c.031-.014.074-.008.121.021.095.059.172.141.172.183 0 .041-.077.075-.172.075-.094 0-.172-.083-.172-.183 0-.05.02-.083.051-.096zm1.357 2.513c-.513 0-.721.328-.508.795.226.496.403.516.64.075.268-.503.213-.87-.132-.87zm1.442.344c-.323 0-.502.289-.379.61.11.285.263.307.604.091.292-.185.126-.7-.225-.7zm-3.892.172c-.068 0-.173.266-.234.59-.065.35-.23.621-.405.667-.05.013-.068.028-.067.04.197.014.397.021.596.03.187-.03.349-.079.395-.153.084-.136.033-.166-.161-.092-.263.101-.269.069-.038-.378.236-.457.206-.704-.086-.704zm22.702.516c-.153 0-.52.539-.52.762 0 .054.154.097.343.097.252 0 .344-.115.344-.43 0-.236-.075-.43-.167-.43z" fill="#7CB668"/>
    <path d="M6.8 4C5.25 4 4 5.25 4 6.8v1C4 6.25 5.25 5 6.8 5h50.4C58.75 5 60 6.25 60 7.8v-1C60 5.25 58.75 4 57.2 4H6.8zM10 10v1h44v-1H32z" opacity=".1" fill="#F9F5D7"/>
    <path d="M49.227 22.28c-.01.167.033.266.132.32.008-.03.01-.046.018-.079.027-.1-.044-.182-.15-.242zm-.008 1.11c-.01.006-.014.01-.024.014-.76.388-.815.4-.918.217-.017-.03-.018-.141-.027-.213-.043.533-.045 1.083.027 1.213.103.183.158.171.918-.217.765-.39.853-.601.315-.742-.185-.048-.276-.105-.291-.271zm-8.887 2.046c-.194.2-.234.394-.158.796.022.118.016.27.012.418a.767.767 0 0 1 .23-.302c.47-.402.441-.712-.08-.91l-.004-.002zm-.184 1.585c-.023.14-.042.287-.084.403-.178.493-.177.637.026.879.098-.34.14-.773.084-1.07-.015-.081-.02-.146-.026-.212zm-.34 2.436c-.2.017-.395.117-.572.293-.198.198-.46.36-.582.36-.122 0-.523.154-.894.343-.371.19-.768.344-.881.344-.104 0-.46-.332-.815-.738-.042.18-.14.192-.37.148-.389-.074-.37-.021.279.754.384.459.793.836.906.836.113 0 .51-.155.88-.344.372-.189.773-.344.895-.344s.384-.16.582-.359c.235-.235.505-.335.774-.283.348.066.41.011.41-.356 0-.193-.094-.436-.211-.62-.053 0-.117-.008-.2-.024a.735.735 0 0 0-.2-.01zm-9.183.547c-.1.204-.166.428-.14.558.016.09.104.176.228.258.14-.22.258-.456.258-.533 0-.064-.155-.171-.346-.283zm15.813 1.127c-.346.034-.602.151-.602.389 0 .33.061.378 1.117.847 1.118.497 1.68.321 1.483-.465a.62.62 0 0 0-.215-.306c-.251.102-.68.033-1.268-.229-.219-.097-.374-.169-.516-.236zm-7.645 3.887c-.217.05-.515.076-.916.076-1.266 0-1.31.017-4.127 1.61-.786.443-1.83.912-2.32 1.042-5.501 1.457-7.734 2.182-8.97 2.914-1.073.636-1.22.714-2.491 1.307-1.437.67-2.817 1.486-2.893 1.715-.087.26.887.17 1.608-.065.236-.128.48-.252.74-.38.82-.626 2.34-1.612 2.496-1.612.089 0 .543-.235 1.012-.523.565-.348 1.499-.673 2.77-.96a68.012 68.012 0 0 0 3.614-.935c.934-.277 1.863-.505 2.063-.506.332-.002.657-.164 2.514-1.252 2.222-1.302 3.085-1.668 3.939-1.668.48 0 .872.058.871.13 0 .01-.057.11-.066.136.666-.1.733-.372.246-.89-.036-.039-.058-.094-.09-.14zm8.703 1.044c-.171.245-.22.745-.025.979.236.285.616.336.76.104.094-.153-.03-.567-.198-.874-.166.04-.377-.032-.537-.209zm-9.234.745c-.422.74-.48 1.014-.229 1.441.064-.135.133-.274.238-.459.236-.411.43-.808.432-.879 0-.046-.193-.08-.441-.103zm-2.098 2.623a.88.88 0 0 0-.664.476c-.672 1.402-.775 1.836-.676 2.883.066-.504.251-.996.676-1.883.252-.526.99-.654 1.574-.271.607.397 1.09.34 1.319-.16.152-.336.13-.498-.114-.848-.254.335-.677.353-1.205.008a1.278 1.278 0 0 0-.91-.205zm-24.734.377c-.094.04-.23.111-.31.144a21.805 21.805 0 0 0 2.11 4.537c.293.07.581.145.768.219l.022.008c-.115-.162-.234-.32-.344-.485.427.196 1.608.184 1.738-.027.058-.094-.051-.172-.242-.172s-.72-.145-1.174-.324a6.346 6.346 0 0 0-.768-.219 22.038 22.038 0 0 1-1.8-3.681zm42.398 3.85a.172.172 0 0 0-.172.171c0 .095.078.172.172.172a.172.172 0 0 0 .172-.172.172.172 0 0 0-.172-.172zM13.676 45.23a21.897 21.897 0 0 0 7.654 7.036c1.574-.618 3.54-.958 4.057-.53.135.112.296.485.357.83.062.345.268.802.461 1.014.155.17.266.456.313.713.802.204 1.62.365 2.455.478.292-.136.431-.326.373-.566-.05-.2.028-.607.175-.902.223-.446.37-.537.858-.537.562 0 .592-.029.592-.621 0-.61.01-.62.558-.512.308.06.984.155 1.504.21.52.057 1.077.22 1.238.362.188.165.452.216.731.147.318-.08.437-.04.437.142 0 .497.34.444 1.006-.158.757-.684.967-1.322 1.153-3.531.046-.556.06-.924.007-1.172-.005.067-.001.099-.007.172-.186 2.209-.396 2.847-1.153 3.53-.666.603-1.006.656-1.006.16 0-.184-.119-.223-.437-.143-.279.07-.543.018-.73-.147-.162-.142-.719-.305-1.239-.361-.189-.02-.341-.05-.547-.076.005.01.032.025.032.033 0 .041-.078.074-.172.074-.083 0-.145-.067-.16-.15-.232-.034-.523-.066-.657-.092-.547-.108-.558-.097-.558.512 0 .592-.03.62-.592.62-.488 0-.635.092-.858.538-.147.295-.224.701-.175.902.058.24-.081.43-.373.566a22.031 22.031 0 0 1-2.455-.478c-.047-.257-.158-.543-.313-.713-.193-.212-.4-.669-.46-1.014-.062-.345-.223-.718-.358-.83-.517-.428-2.483-.088-4.057.53a21.9 21.9 0 0 1-6.846-5.907c-.312-.009-.628-.046-.808-.129zm25.916 1.522c-1.252.005-1.469.776-.254.902.36.038.679.082.709.098.154.082.719-.357.719-.559 0-.3-.382-.444-1.174-.441zm14.164.045c-.12.271-.134.891.015 1.04.201.202.229.131.229-.581 0-.17-.017-.285-.037-.387-.031.092-.088.073-.192-.031-.007-.008-.008-.031-.015-.041zm-19.881.873c-.302.046-.384.482-.146.969.016.033.015.04.03.074a.343.343 0 0 1 .259-.037c.23.045.304.23.304.781 0 .062.004.09.004.143.21.188.444.375.635.496.03-.008.044-.008.076-.016a.828.828 0 0 1 .43-.002c.068-.05.14-.104.201-.172.415-.458.012-.987-.63-.826-.692.174-.716.152-.716-.623 0-.55-.075-.736-.304-.781a.413.413 0 0 0-.143-.006zm2.604 1.517c-.217 0-.372.27-.235.407.194.193.399.117.399-.149 0-.141-.076-.258-.164-.258zm-4.254.409c-.032.013-.051.047-.051.097 0 .1.077.182.172.182.094 0 .172-.033.172-.074 0-.042-.078-.125-.172-.184-.048-.029-.09-.035-.121-.021zM54 50.303c0 .71-.032 1.29-.072 1.29-.04 0-.35-.26-.688-.58-.148-.14-.238-.258-.332-.378-.417.363-.32.764.332 1.379.338.318.647.58.688.58.04 0 .072-.58.072-1.291v-1zm-6.06.51c-.118.456-.078.84.205 1.869.203.742.358 1.51.343 1.705a3.224 3.224 0 0 0-.008.484c.011.071.572.129 1.245.129 1.19 0 1.22-.01 1.101-.387-.049-.154-.1-.417-.146-.654-.161.034-.434.041-.955.041-.673 0-1.234-.058-1.245-.129-.01-.07-.007-.289.008-.484.015-.196-.14-.963-.343-1.705-.101-.367-.161-.634-.206-.87zM33.614 53.12c-.134.185-.254.222-.38.065-.243.12-.317.38-.163.718.226.496.405.515.64.075.259-.482.21-.828-.097-.858zm1.408.332c-.323 0-.502.289-.378.61.11.285.261.308.603.091.292-.185.127-.7-.225-.7zm-3.892.172c-.02 0-.046.062-.07.104.015.035.073.024.193-.022.032-.012.036-.005.06-.012a.237.237 0 0 0-.183-.07zm.238.203c-.068.056-.19.1-.348.123l-.05-.002c-.026.085-.053.162-.073.266-.065.348-.232.62-.406.666-.05.013-.069.028-.068.04.197.015.398.022.597.03.187-.029.349-.078.395-.152.084-.136.032-.166-.162-.092-.263.101-.268.068-.037-.379.112-.216.16-.382.152-.5zm22.465.313c-.153 0-.522.538-.522.761 0 .054.155.098.344.098.252 0 .344-.115.344-.43 0-.236-.075-.43-.166-.43z" opacity=".1"/>
</svg>
