<svg xmlns="http://www.w3.org/2000/svg" width="64" height="64" version="1">
    <rect width="56" height="56" x="4" y="4" rx="28" ry="28" fill="#504945"/>
    <path d="M38 15a16 16 0 0 0-16 16 16 16 0 0 0 .012.312c-.004.098-.024.192-.024.29.004.252.008.506.024.758 0 .05-.004.098-.004.148v2.984l-.02 1.11-3.652 5.762c-.84 1.602-.046 2.596 1.758 2.62l1.914.028v4.5c0 1.882 1.758 3.46 3.648 3.46l4.344.056v5.87c.664.046 1.324.102 2 .102a27.9 27.9 0 0 0 16.028-5.032V44.2c0-.26-.014-.476-.02-.72A16 16 0 0 0 54 31a16 16 0 0 0-16-16z" opacity=".2"/>
    <path d="M38 14a16 16 0 0 0-16 16 16 16 0 0 0 .012.312c-.004.098-.024.192-.024.29.004.252.008.506.024.758 0 .05-.004.098-.004.148v2.984l-.02 1.11-3.652 5.762c-.84 1.602-.046 2.596 1.758 2.62l1.914.028v4.5c0 1.882 1.758 3.46 3.648 3.46l4.344.056v7.87c.664.046 1.324.102 2 .102a27.9 27.9 0 0 0 16.028-5.032V43.2c0-.26-.016-.476-.02-.72A16 16 0 0 0 54 30a16 16 0 0 0-16-16z" fill="#8F3F71"/>
    <g transform="translate(0 1) scale(1.99997)" opacity=".2">
        <path d="M19.5 10a4.5 4.5 0 0 0-4.5 4.5 4.5 4.5 0 0 0 4.5 4.5 4.5 4.5 0 0 0 4.5-4.5 4.5 4.5 0 0 0-4.5-4.5zm0 2a2.5 2.5 0 0 1 2.5 2.5 2.5 2.5 0 0 1-2.5 2.5 2.5 2.5 0 0 1-2.5-2.5 2.5 2.5 0 0 1 2.5-2.5z"/>
        <circle cx="19.5" cy="14.5" r="1.5"/>
    </g>
    <g transform="scale(1.99997)" fill="#F9F5D7">
        <path d="M19.5 10a4.5 4.5 0 0 0-4.5 4.5 4.5 4.5 0 0 0 4.5 4.5 4.5 4.5 0 0 0 4.5-4.5 4.5 4.5 0 0 0-4.5-4.5zm0 2a2.5 2.5 0 0 1 2.5 2.5 2.5 2.5 0 0 1-2.5 2.5 2.5 2.5 0 0 1-2.5-2.5 2.5 2.5 0 0 1 2.5-2.5z"/>
        <circle cx="19.5" cy="14.5" r="1.5"/>
    </g>
    <path d="M32 4C16.488 4 4 16.488 4 32c0 .114.011.224.018.336C4.369 17.134 16.71 5 32 5c15.29 0 27.63 12.134 27.982 27.336.007-.112.018-.222.018-.336C60 16.488 47.512 4 32 4z" opacity=".1" fill="#F9F5D7"/>
    <path d="M59.982 32.664C59.631 47.866 47.29 60 32 60 16.712 60 4.371 47.868 4.018 32.668c-.007.11-.018.22-.018.332 0 15.512 12.488 28 28 28s28-12.488 28-28c0-.113-.011-.224-.018-.336z" opacity=".2"/>
</svg>
