<svg height="16">
    <g fill="#fbf1c7" fill-opacity=".557">
        <path d="M0 0h4.232v4.233H0z" fill="none"/>
        <path d="M.53 0A.528.528 0 0 0 0 .53v3.174a.528.528 0 1 0 1.059 0V2.646h2.116v1.058a.528.528 0 1 0 1.058 0V.53A.528.528 0 0 0 3.704 0zm.397.53h.264c.074 0 .133.058.133.131v.397h.396c.074 0 .133.06.133.133v.264a.132.132 0 0 1-.133.132h-.396v.397a.132.132 0 0 1-.133.133H.927a.132.132 0 0 1-.132-.133v-.397H.398a.132.132 0 0 1-.133-.132v-.264c0-.074.06-.133.133-.133h.397V.661A.13.13 0 0 1 .927.53zm2.116 0h.264c.074 0 .133.058.133.131v.265a.132.132 0 0 1-.133.132h-.264a.132.132 0 0 1-.132-.132V.661c0-.073.059-.132.132-.132zm-.53.528h.265c.074 0 .133.06.133.133v.264a.132.132 0 0 1-.133.132h-.264a.132.132 0 0 1-.132-.132v-.264c0-.074.059-.133.132-.133zm1.059 0h.265c.073 0 .132.06.132.133v.264a.132.132 0 0 1-.132.132h-.265a.132.132 0 0 1-.132-.132v-.264c0-.074.059-.133.132-.133zm-.529.53h.264c.074 0 .133.059.133.132v.264a.132.132 0 0 1-.133.133h-.264a.132.132 0 0 1-.132-.133V1.72c0-.073.059-.133.132-.133z" fill-opacity="1"/>
    </g>
</svg>
