<svg xmlns="http://www.w3.org/2000/svg" height="16">
    <path d="M3.742 0c-.28-.01-.543.26-.715.381a2.877 2.877 0 0 0-.729-.098 2.767 2.767 0 0 0-.755.098C1.315.274 1.089-.006.833.006.688.386.78.666.807.736c-.17.192-.197.439-.197.74 0 1.056.546 1.292 1.14 1.362-.076.068-.122.19-.146.368-.153.071-.447.262-.686-.158 0 0-.038-.307-.307-.327 0 0-.583.019-.34.19 0 0 .335.034.457.353 0 0 .126.536.87.37 0 .061.016.591.016.591l1.407.008s.085-.468.085-.597c0-.257-.187-.715-.283-.8.596-.068 1.18-.302 1.18-1.36 0-.302-.02-.547-.19-.74.027-.07.119-.35-.027-.73 0 0-.015-.004-.044-.006z" fill="#fbf1c7"/>
</svg>
