<svg height="16">
    <path d="M4.233 0H0v4.233h4.233z" fill="none"/>
    <path d="M3.704.265c.147 0 .265.118.265.265v.53a.264.264 0 0 1-.265.264H.53a.264.264 0 0 1-.264-.265V.53C.266.383.384.265.53.265zM3.44.53a.264.264 0 1 0 0 .53.264.264 0 1 0 0-.53zm.264 1.025c.147 0 .265.118.265.265v.562a.264.264 0 0 1-.265.265H.53a.264.264 0 0 1-.264-.265V1.82c0-.147.118-.265.264-.265zm-.264.298a.264.264 0 1 0 0 .53.264.264 0 1 0 0-.53zm.264 1.058c.147 0 .265.118.265.265v.529a.264.264 0 0 1-.265.265H.53a.264.264 0 0 1-.264-.265v-.53c0-.146.118-.264.264-.264zm-.264.265a.265.265 0 0 0-.265.264.265.265 0 0 0 .265.265.265.265 0 0 0 .264-.265.265.265 0 0 0-.264-.264z" fill="#fbf1c7"/>
</svg>
