<svg xmlns="http://www.w3.org/2000/svg" width="64" height="64" version="1">
    <path d="M26.748 59.976c-6.277-.642-10.648-2.438-13.878-5.7-1.306-1.318-2.192-2.53-2.929-4.004-1.56-3.118-2.048-6.625-1.285-9.219.76-2.58 2.486-5.424 4.916-8.1 1.35-1.484 2.033-2.448 2.657-3.66.753-1.46.834-2.438.77-3.794-.06-1.316-.343-1.881-1.065-2.481-.684-.566-.966-.88-3.082-.778-2.066.098-3.08-.028-4.066-.504-.765-.37-1.036-.788-.8-1.234 1.23-.96 1.662-2.01 3.014-2.498-1.979-1.687-3.932-3.453-4-5.974.14-1.35 1.389-1.025 1.389-1.025 1.959.396 3.983.796 5.828.858.53-.072 1.09-.214 1.243-.315s.57-.699.927-1.33c1.391-2.456 2.864-4.042 4.514-4.86 1.901-.942 4.59-1.446 7.144-1.339 3.07.13 5.677 1.191 7.806 3.178 1.463 1.366 2.431 1.707 3.823 1.348.98-.252 1.002-.25 1.002.056 0 .404-.322.927-.817 1.326l-.455.368.459.273c.633.375.558.677-.195.786-.627.09-1.097.298-1.097.485 0 .066.09.639.2 1.273.27 1.555.174 4.569-.193 6.056-.568 2.306-1.43 3.93-2.9 5.472-1.144 1.04-4.376 3.174-4.678 3.364.142 0 1.38-.073 2.209 0 3.033.27 5.146.781 8.193 2.2 2.877 1.342 4.1 1.486 5.692.674 1.017-.518 2.471-1.624 3.558-3.09.93-1.251 1.484-1.783 2.348-1.783.846 0 1.454.557 2.094 1.535.907 1.384 1.402 2.372 1.754 4.783.251 1.723.18 5.767-.131 7.485-1.863 10.266-8.414 17.177-18.416 19.428-2.7.608-3.787.717-7.528.756-1.94.02-3.752.014-4.024-.014z" fill="#48B9C7"/>
    <path d="M27.082 4.006c-2.251.037-4.518.527-6.182 1.351-1.65.818-3.123 2.405-4.513 4.862-.357.63-.773 1.227-.926 1.328s-.714.242-1.244.314c-1.845-.062-3.869-.46-5.828-.857 0 0-1.25-.325-1.389 1.025.006.228.043.443.078.659.302-.936 1.31-.684 1.31-.684 1.96.397 3.984.795 5.829.857.53-.072 1.091-.213 1.244-.314s.569-.7.926-1.33c1.39-2.457 2.863-4.042 4.513-4.86 1.902-.942 4.592-1.447 7.145-1.34 3.069.13 5.676 1.191 7.805 3.178 1.463 1.366 2.432 1.709 3.824 1.35.38-.098.529-.124.676-.143.199-.275.326-.56.326-.802 0-.307-.023-.307-1.002-.055-1.392.359-2.361.016-3.824-1.35-2.129-1.987-4.736-3.048-7.805-3.177a16.331 16.331 0 0 0-.963-.012zm12.988 6.721c-.068.067-.133.136-.211.199l-.455.367.143.084c.042-.007.077-.017.121-.023.639-.092.758-.33.402-.627zm-1.369 1.941c-.076.056-.131.114-.131.17 0 .066.091.639.201 1.273.097.559.132 1.321.139 2.118.04-1.156-.001-2.325-.139-3.118-.038-.22-.039-.256-.07-.443zm-28.416 5.699c-.838.55-1.317 1.369-2.299 2.135-.152.288-.071.561.196.82 1.069-.909 1.549-1.861 2.818-2.32-.244-.208-.475-.423-.715-.635zM53 26.004c-.864 0-1.418.531-2.348 1.783-1.087 1.465-2.542 2.572-3.558 3.09-1.593.812-2.814.667-5.692-.674-3.046-1.42-5.159-1.93-8.193-2.199-.215-.019-.463-.011-.707-.014-.663.451-1.39.941-1.502 1.012.141 0 1.38-.072 2.209.002 3.034.269 5.147.779 8.193 2.199 2.878 1.341 4.099 1.486 5.692.674 1.016-.518 2.471-1.625 3.558-3.09.93-1.252 1.484-1.783 2.348-1.783.846 0 1.453.558 2.094 1.535.907 1.384 1.402 2.372 1.754 4.783.1.689.136 1.774.138 2.908.032-1.496-.008-3.012-.138-3.908-.352-2.411-.847-3.399-1.754-4.783-.641-.977-1.248-1.535-2.094-1.535zm-36 .562c-.042.873-.229 1.676-.771 2.727-.625 1.212-1.307 2.176-2.657 3.66-2.43 2.676-4.157 5.52-4.916 8.1-.274.933-.38 1.986-.34 3.095a9.035 9.035 0 0 1 .34-2.095c.76-2.58 2.486-5.424 4.916-8.1 1.35-1.484 2.032-2.448 2.657-3.66.739-1.434.828-2.408.771-3.727z" opacity=".2" fill="#F9F5D7"/>
    <path d="M40.543 9.363c-.029-.002-.153.036-.195.041a2.71 2.71 0 0 1-.489.522l-.455.367.46.273c.095.057.143.107.206.16.369-.364.606-.786.606-1.127 0-.153-.005-.229-.133-.236zm-.998 2.014c-.56.099-.975.287-.975.46 0 .044.074.48.131.83.178-.13.528-.25.967-.314.753-.108.828-.411.195-.787zm-32.467 1.31a1.603 1.603 0 0 0-.078.342c.059 2.21 1.58 3.832 3.285 5.338.212-.14.442-.267.715-.365-1.8-1.535-3.564-3.141-3.922-5.315zm31.832 3.54c-.039 1.112-.152 2.21-.332 2.938-.568 2.307-1.43 3.931-2.9 5.473-1.144 1.04-4.376 3.174-4.678 3.364.105 0 .808-.023 1.505-.014 1.123-.763 2.454-1.696 3.172-2.35 1.47-1.541 2.333-3.166 2.9-5.472.236-.953.345-2.516.333-3.937zM8.182 21.325c-.07.059-.12.119-.195.178-.237.446.035.862.8 1.232.987.476 1.999.604 4.065.506 2.116-.102 2.398.211 3.082.777.722.6 1.005 1.167 1.066 2.483v.066c.017-.34.018-.689 0-1.068-.061-1.316-.345-1.881-1.066-2.481-.684-.566-.966-.881-3.082-.78-2.066.099-3.078-.027-4.065-.503a2.256 2.256 0 0 1-.605-.41zM56.986 36.23c-.03 1.384-.12 2.75-.27 3.576-1.862 10.266-8.413 17.177-18.416 19.428-2.7.607-3.786.717-7.527.756-1.94.02-3.753.014-4.025-.014v-.002c-6.276-.642-10.65-2.437-13.88-5.699-1.304-1.318-2.19-2.53-2.927-4.004-.974-1.948-1.531-4.049-1.625-5.984-.082 2.195.48 4.694 1.625 6.985.737 1.474 1.623 2.686 2.928 4.003 3.23 3.262 7.603 5.06 13.879 5.702.272.027 2.085.034 4.025.013 3.741-.039 4.828-.148 7.528-.756 10.002-2.25 16.554-9.161 18.416-19.428.186-1.03.273-2.874.27-4.576z" opacity=".2"/>
</svg>
