<svg xmlns="http://www.w3.org/2000/svg" width="64" height="64" version="1">
    <path d="M22 15A18 18 0 0 0 4 33a18 18 0 0 0 18 18 18 18 0 0 0 9.996-3.047A18 18 0 0 0 42 51a18 18 0 0 0 18-18 18 18 0 0 0-18-18 18 18 0 0 0-9.996 3.047A18 18 0 0 0 22 14.999z" opacity=".2"/>
    <path d="M22 14A18 18 0 0 0 4 32a18 18 0 0 0 18 18 18 18 0 0 0 9.996-3.046A18 18 0 0 0 42 50a18 18 0 0 0 18-18 18 18 0 0 0-18-18 18 18 0 0 0-9.996 3.047A18 18 0 0 0 22 14z" fill="#448588"/>
    <path d="M21.738 23a9.546 9.546 0 0 0-3.707.75 9.72 9.72 0 0 0-3.156 2.152 10.048 10.048 0 0 0-2.129 3.246A10.24 10.24 0 0 0 12 32.996c0 1.32.252 2.632.746 3.848a10.027 10.027 0 0 0 2.13 3.242 9.73 9.73 0 0 0 3.155 2.152 9.537 9.537 0 0 0 3.621.746l.086.004c3.015.143 5.441-1.052 7.219-2.789 1.215-1.187 2.172-2.59 3.043-4.02.871 1.43 1.828 2.833 3.043 4.02 1.778 1.737 4.204 2.932 7.219 2.79l.086-.005a9.521 9.521 0 0 0 3.62-.746 9.729 9.729 0 0 0 3.157-2.152l.008-.012a9.98 9.98 0 0 0 2.122-3.23A10.24 10.24 0 0 0 52 32.996c0-1.32-.252-2.632-.746-3.848l-.012-.02a10.04 10.04 0 0 0-2.118-3.226 9.712 9.712 0 0 0-3.156-2.152 9.535 9.535 0 0 0-3.706-.75c-3.176 0-5.684 1.304-7.536 3.122-1.07 1.048-1.938 2.248-2.726 3.476-.788-1.228-1.656-2.428-2.726-3.476C27.423 24.304 24.915 23 21.739 23zm.363 4c2.257 0 3.697.761 5.02 2.023 1.048 1.001 1.968 2.364 2.879 3.848-1.04 1.734-2.047 3.32-3.176 4.395-1.245 1.184-2.532 1.837-4.64 1.722H22.1a6.24 6.24 0 0 1-2.355-.465 6.152 6.152 0 0 1-1.957-1.293l-.023-.02a6.033 6.033 0 0 1-1.313-1.943 5.934 5.934 0 0 1 0-4.548c.3-.718.752-1.385 1.312-1.94l.023-.024A6.14 6.14 0 0 1 22.101 27zm19.797 0c.804 0 1.616.16 2.355.465.73.3 1.402.743 1.958 1.289l.023.023a6.029 6.029 0 0 1 1.312 1.942 5.914 5.914 0 0 1 .001 4.545c-.3.718-.752 1.39-1.312 1.945l-.024.02a6.152 6.152 0 0 1-1.957 1.293 6.24 6.24 0 0 1-2.355.465h-.082c-2.108.114-3.396-.538-4.64-1.723-1.13-1.074-2.137-2.66-3.177-4.394.912-1.486 1.83-2.848 2.878-3.848 1.324-1.264 2.764-2.024 5.02-2.024zM40 29v2h-2v4h2v2h4v-2h2v-4h-2v-2h-4zm-22 2v4h8v-4h-8z" opacity=".2"/>
    <path d="M21.738 22a9.546 9.546 0 0 0-3.707.75 9.72 9.72 0 0 0-3.156 2.152 10.048 10.048 0 0 0-2.129 3.246A10.24 10.24 0 0 0 12 31.996c0 1.32.252 2.632.746 3.848a10.027 10.027 0 0 0 2.13 3.242 9.73 9.73 0 0 0 3.155 2.152 9.537 9.537 0 0 0 3.621.746l.086.004c3.015.143 5.441-1.052 7.219-2.789 1.215-1.187 2.172-2.59 3.043-4.02.871 1.43 1.828 2.833 3.043 4.02 1.778 1.737 4.204 2.932 7.219 2.79l.086-.005a9.521 9.521 0 0 0 3.62-.746 9.729 9.729 0 0 0 3.157-2.152l.008-.012a9.98 9.98 0 0 0 2.122-3.23A10.24 10.24 0 0 0 52 31.996c0-1.32-.252-2.632-.746-3.848l-.012-.02a10.04 10.04 0 0 0-2.118-3.226 9.712 9.712 0 0 0-3.156-2.152 9.535 9.535 0 0 0-3.706-.75c-3.176 0-5.684 1.304-7.536 3.122-1.07 1.048-1.938 2.248-2.726 3.476-.788-1.228-1.656-2.428-2.726-3.476C27.423 23.304 24.915 22 21.739 22zm.363 4c2.257 0 3.697.761 5.02 2.023 1.048 1.001 1.968 2.364 2.879 3.848-1.04 1.734-2.047 3.32-3.176 4.395-1.245 1.184-2.532 1.837-4.64 1.722H22.1a6.24 6.24 0 0 1-2.355-.465 6.152 6.152 0 0 1-1.957-1.293l-.023-.02a6.033 6.033 0 0 1-1.313-1.943 5.934 5.934 0 0 1 0-4.548c.3-.718.752-1.385 1.312-1.94l.023-.024A6.14 6.14 0 0 1 22.101 26zm19.797 0c.804 0 1.616.16 2.355.465.73.3 1.402.743 1.958 1.289l.023.023a6.029 6.029 0 0 1 1.312 1.942 5.914 5.914 0 0 1 .001 4.545c-.3.718-.752 1.39-1.312 1.945l-.024.02a6.152 6.152 0 0 1-1.957 1.293 6.24 6.24 0 0 1-2.355.465h-.082c-2.108.114-3.396-.539-4.64-1.723-1.13-1.074-2.137-2.66-3.177-4.394.912-1.486 1.83-2.848 2.878-3.848 1.324-1.264 2.764-2.024 5.02-2.024zM40 28v2h-2v4h2v2h4v-2h2v-4h-2v-2h-4zm-22 2v4h8v-4h-8z" fill="#7CB668"/>
    <path d="M22 14A18 18 0 0 0 4 32a18 18 0 0 0 .021.41A18 18 0 0 1 22 15a18 18 0 0 1 10.004 3.047A18 18 0 0 1 42 15a18 18 0 0 1 17.979 17.572A18 18 0 0 0 60 32a18 18 0 0 0-18-18 18 18 0 0 0-9.996 3.047A18 18 0 0 0 22 14z" opacity=".2" fill="#F9F5D7"/>
</svg>
