<svg xmlns="http://www.w3.org/2000/svg" width="64" height="64" version="1">
    <path d="M60 40c0 12-8 20-20 20h-8c-12 0-19.04-6.263-19.836-16H10c-6 0-6-6-6-6v-4c0-6 6-6 6-6h50zm-50-8c-2-.13-2.062 2.125-2.062 2.125v4C7.938 40 10 40 10 40h2l-.04-7.938z" opacity=".2"/>
    <path d="M60 39c0 12-8 20-20 20h-8c-12 0-19.04-6.263-19.836-16H10c-6 0-6-6-6-6v-4c0-6 6-6 6-6h50zm-50-8c-2-.13-2.062 2.125-2.062 2.125v4C7.938 39 10 39 10 39h2l-.04-7.938z" fill="#F9F5D7"/>
    <path d="M60 27v1H10s-6 0-6 6v-1c0-6 6-6 6-6h50zM7.937 37.125C7.938 39 10 39 10 39h1.994L12 40h-2s-2.062 0-2.062-1.875v-1z" opacity=".2" fill="#F9F5D7"/>
    <path d="M24.775 6c-4.393 4.614-5.714 6.887-4.13 9.824 1.437 2.662 5.152 4.02 3.286 10.176 3.065-3 5.5-6.81 3.094-9.883-2.45-3.125-3.79-5.024-2.25-10.117zm12 0c-4.393 4.614-5.714 6.887-4.13 9.824 1.437 2.662 5.152 4.02 3.286 10.176 3.065-3 5.5-6.81 3.094-9.883-2.45-3.125-3.79-5.024-2.25-10.117zm12 0c-4.393 4.614-5.714 6.887-4.13 9.824 1.437 2.662 5.152 4.02 3.286 10.176 3.065-3 5.5-6.81 3.094-9.883-2.45-3.125-3.79-5.024-2.25-10.117z" opacity=".2"/>
    <path d="M24.775 5c-4.393 4.614-5.714 6.887-4.13 9.824 1.437 2.662 5.152 4.02 3.286 10.176 3.065-3 5.5-6.81 3.094-9.883-2.45-3.125-3.79-5.024-2.25-10.117zm12 0c-4.393 4.614-5.714 6.887-4.13 9.824 1.437 2.662 5.152 4.02 3.286 10.176 3.065-3 5.5-6.81 3.094-9.883-2.45-3.125-3.79-5.024-2.25-10.117zm12 0c-4.393 4.614-5.714 6.887-4.13 9.824 1.437 2.662 5.152 4.02 3.286 10.176 3.065-3 5.5-6.81 3.094-9.883-2.45-3.125-3.79-5.024-2.25-10.117z" fill="#7F7061"/>
    <path d="M24.775 5c-3.464 3.638-5.01 5.821-4.735 8.021.227-1.81 1.687-3.774 4.389-6.646.097-.438.196-.88.346-1.375zm12 0c-3.464 3.638-5.01 5.821-4.735 8.021.227-1.81 1.687-3.774 4.389-6.646.097-.438.196-.88.346-1.375zm12 0c-3.464 3.638-5.01 5.821-4.735 8.021.227-1.81 1.687-3.774 4.389-6.646.097-.438.196-.88.346-1.375zM24.138 9.23c-.177 2.864 1.038 4.527 2.887 6.887.564.72.853 1.482.939 2.264.118-1.132-.137-2.239-.94-3.264-1.622-2.07-2.752-3.607-2.886-5.887zm12 0c-.177 2.864 1.038 4.527 2.887 6.887.564.72.853 1.482.939 2.264.118-1.132-.137-2.239-.94-3.264-1.622-2.07-2.752-3.607-2.886-5.887zm12 0c-.177 2.864 1.038 4.527 2.887 6.887.564.72.853 1.482.939 2.264.118-1.132-.137-2.239-.94-3.264-1.622-2.07-2.752-3.607-2.886-5.887zm-23.72 13.176A11.174 11.174 0 0 1 23.93 25c.113-.11.217-.23.328-.342.163-.847.206-1.59.158-2.252zm12 0A11.174 11.174 0 0 1 35.93 25c.113-.11.217-.23.328-.342.163-.847.206-1.59.158-2.252zm12 0A11.174 11.174 0 0 1 47.93 25c.113-.11.217-.23.328-.342.163-.847.206-1.59.158-2.252z" opacity=".1" fill="#F9F5D7"/>
</svg>
