<svg xmlns="http://www.w3.org/2000/svg" width="64" height="64" version="1">
    <rect width="56" height="56" x="4" y="5" rx="16.8" ry="16.8" opacity=".2"/>
    <rect width="56" height="56" x="4" y="4" rx="16.8" ry="16.8" fill="#066678"/>
    <path d="M22.713 16L20.4 29h10.481l.894-5.208L38.15 33l-9.208 8.5.68-4.5H19.08L16.9 50h11.264c11.316-.52 18.28-7.1 19.665-16.167C49.049 25.84 45.763 16.922 33.128 16z" opacity=".2"/>
    <path d="M22.713 15L20.4 28h10.481l.894-5.208L38.15 32l-9.208 8.5.68-4.5H19.08L16.9 49h11.264c11.316-.52 18.28-7.1 19.665-16.167C49.049 24.84 45.763 15.922 33.128 15z" fill="#F9BD2E"/>
    <path d="M20.8 4C11.495 4 4 11.494 4 20.8v1C4 12.495 11.494 5 20.8 5h22.4C52.505 5 60 12.494 60 21.8v-1C60 11.495 52.506 4 43.2 4H20.8z" fill="#F9F5D7" opacity=".1"/>
    <path d="M22.713 15L20.4 28h.178l2.135-12h10.416c10.786.787 14.745 7.402 14.918 14.293.197-7.24-3.61-14.468-14.918-15.293H22.713zm15.016 17.39l-8.612 7.948-.176 1.162 9.21-8.5-.422-.61zM19.08 36L16.9 49h.168l2.012-12h10.39l.153-1H19.08z" opacity=".2" fill="#F9F5D7"/>
</svg>
