<svg xmlns="http://www.w3.org/2000/svg" width="64" height="64" version="1">
    <path d="M57.877 31.999a4.6 4.394 0 0 1-2.176 2.809l-21.398 11.8L12.9 58.41a4.6 4.394 0 0 1-6.898-3.801v2a4.6 4.394 0 0 0 6.897 3.804l21.402-11.8 21.4-11.807a4.6 4.394 0 0 0 2.177-4.808z" opacity=".2"/>
    <path d="M10.706 4.001A4.6 4.394 0 0 0 6 8.394V55.61a4.6 4.394 0 0 0 6.9 3.802l21.4-11.802 21.4-11.804a4.6 4.394 0 0 0 0-7.612L34.3 16.391 12.9 4.587A4.6 4.394 0 0 0 10.706 4z" fill="#504945"/>
    <path d="M16 17v16l9-6 9 6-18 12v4l24-16-12-8-12-8z" opacity=".2" fill-rule="evenodd"/>
    <path d="M16 16v16l9-6 9 6-18 12v4l24-16-12-8-12-8z" fill="#B7BB25" fill-rule="evenodd"/>
    <path d="M10.707 4.002A4.6 4.394 0 0 0 6 8.392v1.003a4.6 4.394 0 0 1 4.707-4.391 4.6 4.394 0 0 1 2.191.586l21.403 11.805 21.4 11.8a4.6 4.394 0 0 1 2.262 3.315 4.6 4.394 0 0 0-2.262-4.315l-21.4-11.8L12.898 4.588a4.6 4.394 0 0 0-2.191-.586z" opacity=".1" fill="#F9F5D7"/>
</svg>
