<svg xmlns="http://www.w3.org/2000/svg" width="64" height="64" version="1">
    <path d="M4 14.197V46.53L26 60V27.669L4 14.197M60 8.809l-34 18.86v32.33L60 41.14z" opacity=".1" fill-rule="evenodd"/>
    <path d="M4 13.197V45.53L27.333 59 60 40.14V7.809M4 13.197V45.53" fill="none"/>
    <path d="M4 13.197V45.53L26 59V26.669L17 18 4 13.197" fill="#928274" fill-rule="evenodd"/>
    <path d="M8 22.28v21.554l14 8.083V46.53L12 40.8V30.023l10 5.728v-5.388l-4.666-2.694z" opacity=".1" fill-rule="evenodd"/>
    <path d="M8 21.28v21.554l14 8.083V45.53L12 39.8V29.023l10 5.728v-5.388l-4.666-2.694zM60 7.809L42 16 26 26.669v32.33L60 40.14z" fill="#3A393A" fill-rule="evenodd"/>
    <path d="M38 28.274l-4 2.218v6.036l-4 2.308v4.617l4-2.308v5.945l4-2.219v-6.035l4-2.308V31.91l-4 2.309z" opacity=".1"/>
    <path d="M53.777 5.217L26 20.285l-9.555-6.088 6.221-3.592-6.22-3.804-11.618 6.904L26 26.668v1.002L60 8.809l-6.223-3.592z" opacity=".2" fill-rule="evenodd"/>
    <path d="M54 19.457l-4 2.219v6.035l-4 2.309v4.617l4-2.309v5.946l4-2.22V30.02l4-2.309v-4.617l-4 2.308z" opacity=".1"/>
    <path d="M16.444 5.8L4 13.197 26 26.67l34-18.86-6.222-3.593L26 19.284l-9.556-6.087 6.223-3.592z" fill="#8F3F71" fill-rule="evenodd"/>
    <path d="M38 27.273l-4 2.22v6.034l-4 2.309v4.617l4-2.308v5.945l4-2.219v-6.035l4-2.309V30.91l-4 2.309zM54 18.457l-4 2.219v6.035l-4 2.309v4.617l4-2.309v5.945l4-2.218V29.02l4-2.31v-4.616l-4 2.308z" fill="#F9F5D7"/>
    <path d="M53.777 4.217L26 19.283l-8.73-5.56-.825.474L26 20.285 53.777 5.217l5.34 3.082.883-.49-6.223-3.592zM16.445 5.8L4 13.197l.828.508 11.617-6.904 5.38 3.29.841-.486-6.22-3.804z" fill="#F9F5D7" fill-rule="evenodd" opacity=".1"/>
    <path d="M4 13.197v1L26 27.67v-1.002z" opacity=".2" fill="#F9F5D7" fill-rule="evenodd"/>
</svg>
