<svg xmlns="http://www.w3.org/2000/svg" width="64" height="64" version="1">
    <path d="M4 52v2c0 1.662 1.338 3 3 3h50c1.662 0 3-1.338 3-3v-2c0 1.662-1.338 3-3 3H7c-1.662 0-3-1.338-3-3z" opacity=".2"/>
    <rect width="48" height="56" x="-56" y="-60" rx="3" ry="3" transform="matrix(0 -1 -1 0 0 0)" fill="#7CB668"/>
    <path d="M7 8c-1.662 0-3 1.338-3 3v1c0-1.662 1.338-3 3-3h50c1.662 0 3 1.338 3 3v-1c0-1.662-1.338-3-3-3H7z" opacity=".2" fill="#F9F5D7"/>
    <circle cx="32" cy="45" r="6" opacity=".2"/>
    <circle cx="32" cy="44" r="6" fill="#F9F5D7"/>
    <circle cx="50" cy="45" r="6" opacity=".2"/>
    <circle cx="50" cy="44" r="6" fill="#F9F5D7"/>
    <circle cx="14" cy="44" r="6" fill="#504945"/>
    <circle cx="32" cy="20" r="6" fill="#504945"/>
</svg>
