<svg xmlns="http://www.w3.org/2000/svg" width="64" height="64" version="1">
    <path d="M54 56V6c0-1.662-1.338-3-3-3H13c-1.662 0-3 1.338-3 3v50c0 1.662 1.338 3 3 3h38c1.662 0 3-1.338 3-3z" fill="#F9F5D7"/>
    <path d="M10 56v1c0 1.662 1.338 3 3 3h38c1.662 0 3-1.338 3-3v-1c0 1.662-1.338 3-3 3H13c-1.662 0-3-1.338-3-3z" opacity=".2"/>
    <path d="M13 3c-1.662 0-3 1.338-3 3v1c0-1.662 1.338-3 3-3h38c1.662 0 3 1.338 3 3V6c0-1.662-1.338-3-3-3H13z" opacity=".1" fill="#F9F5D7"/>
    <circle cx="48" cy="45" r="16" fill="#48B9C7"/>
    <path d="M48 39c-1.939.018-3.89.445-5.578 1.363-.673.421-1.481.964-2.09 1.512-.958.9-1.778 1.95-2.332 3.127 1.519 3.216 4.856 5.574 8.53 5.922 2.408.262 4.93-.139 7.048-1.283.673-.421 1.481-.964 2.09-1.512.958-.902 1.778-1.952 2.332-3.127-1.518-3.216-4.857-5.574-8.53-5.922-.487-.056-.98-.08-1.47-.08zm.004 2c2.14-.047 4.034 1.868 3.994 3.996.069 2.353-2.275 4.383-4.592 3.943-2.34-.274-3.984-2.9-3.215-5.125.493-1.636 2.1-2.831 3.815-2.812L48.004 41zM48 43a2 1.999 0 0 0-2 2.002A2 1.999 0 0 0 48 47a2 1.999 0 0 0 2-1.998 2 1.999 0 0 0-2-1.992V43z" fill="#F9F5D7" fill-rule="evenodd"/>
    <path d="M32.025 45.5a16 16.002 0 0 0-.025.498A16 16.002 0 0 0 48 62a16 16.002 0 0 0 16-16.002 16 16.002 0 0 0-.018-.492A16 16.002 0 0 1 48 61a16 16.002 0 0 1-15.975-15.5z" opacity=".2" fill-rule="evenodd"/>
</svg>
