<svg xmlns="http://www.w3.org/2000/svg" width="64" height="64">
    <rect width="16" height="60" x="3.22" y="14.58" rx="5.334" ry="6" transform="rotate(-30)" opacity=".2"/>
    <rect width="16" height="60" x="3.72" y="13.71" rx="5.334" ry="6" transform="rotate(-30)" fill="#066678"/>
    <path d="M21.885 4.035a4.87 4.87 0 0 0-2.567.649L14.701 7.35c-1.776 1.025-2.664 3.027-2.488 5.119.137-1.711.999-3.26 2.488-4.12l4.617-2.665c2.559-1.478 5.958-.35 7.62 2.529l24 41.568c.508.88.791 1.82.869 2.742a6.47 6.47 0 0 0-.869-3.742l-24-41.57c-1.143-1.98-3.106-3.13-5.053-3.176z" opacity=".1" fill="#F9F5D7"/>
    <rect width="16" height="60" x="-52.22" y="-17.42" rx="5.334" ry="6" transform="scale(-1 1) rotate(-30)" opacity=".2"/>
    <rect width="16" height="60" x="-51.72" y="-18.29" rx="5.334" ry="6" transform="scale(-1 1) rotate(-30)" fill="#066678"/>
    <path d="M42.127 4.041c-1.947.046-3.91 1.199-5.053 3.178l-24 41.57a6.467 6.467 0 0 0-.869 3.734c.079-.92.362-1.855.869-2.734l24-41.57c1.662-2.88 5.06-4.007 7.619-2.53l4.618 2.666c1.488.86 2.352 2.408 2.49 4.118.175-2.091-.716-4.093-2.49-5.118L44.693 4.69a4.864 4.864 0 0 0-2.566-.648z" opacity=".1" fill="#F9F5D7"/>
    <rect width="16" height="60" x="-40.99" y="-62" rx="5.334" ry="6" transform="matrix(0 -1 -1 0 0 0)" opacity=".2"/>
    <rect width="16" height="60" x="-39.99" y="-62" rx="5.334" ry="6" transform="matrix(0 -1 -1 0 0 0)" fill="#48B9C7"/>
    <path d="M8 23.994c-3.324 0-6 2.379-6 5.334v1c0-2.955 2.676-5.334 6-5.334h48c3.324 0 6 2.379 6 5.334v-1c0-2.955-2.676-5.334-6-5.334H8z" opacity=".2" fill="#F9F5D7"/>
</svg>
