<svg xmlns="http://www.w3.org/2000/svg" width="64" height="64" version="1">
    <rect width="56" height="56" x="4" y="5" rx="2.8" ry="2.8" opacity=".2"/>
    <rect width="56" height="56" x="4" y="4" rx="2.8" ry="2.8" fill="#504945"/>
    <path d="M33.238 5c.402.095 4.686 1.116 9.121 2.895 2.323.93 4.602 2.068 6.11 3.187 1.25.927 1.465 1.512 1.601 1.922l-.015.008c-4.714 3.72-11.597 3.77-16.16 3.949-11.061.407-22.79-.008-22.79-.008-1.56-.06-2.869-.195-2.906 1.367-.036 1.518.93 2.55 1.621 3.063.693.513 1.363.797 2.114 1.07 1.5.546 3.326.958 5.492 1.356 4.331.794 10.543 1.462 16.144 2.113 4.271.496 4.856.987 8.457 1.484-3.67.514-4.342 1.022-8.703 1.586-5.702.738-11.996 1.544-16.386 2.598-2.196.527-4.05 1.085-5.602 1.898-.776.407-1.505.872-2.152 1.649-.602.72-1.027 1.91-.922 3.066.082 1.349.77 2.155 1.328 2.672.598.554 1.228.954 1.953 1.355 1.45.804 3.28 1.564 5.45 2.34 1.549.555 3.768 1.019 5.593 1.563-1.84.66-4.077 1.196-5.645 1.879-2.197.957-4.058 1.9-5.527 2.883-.735.49-1.377.981-1.95 1.605-.572.624-1.218 1.443-1.26 2.813-.045 1.388.275 2.606.76 3.687h7.255c-.244-.156-.456-.26-.715-.469-.875-.707-1.412-1.522-1.566-2.515.165-.143.271-.251.585-.461 1.001-.67 2.649-1.532 4.657-2.407 3.493-1.522 8.884-3.037 13.61-4.328.169.039.298.095.468.133 5.68 1.263 8.156 1.818 12.637 2.086 2.24.134 4.154.126 5.855-.226.85-.177 1.676-.42 2.512-1.012.836-.592 1.667-1.394 1.734-2.653.002-.05.004-.1.004-.152-.004-2.304-1.621-3.825-3.476-4.75-1.856-.925-3.93-1.19-6.254-1.234-4.65-.09-7.168.293-12.903 1.734-.255.064-.447.168-.703.234-4.807-1.134-10.261-2.421-13.785-3.683-1.42-.509-2.324-.952-3.273-1.395.814-.292 1.432-.573 2.64-.863 3.942-.946 10.147-1.761 15.797-2.492 5.65-.731 8.156-1.388 12.54-2.098 2.19-.354 4.034-.709 5.519-1.16.742-.226 1.387-.45 2.082-.879.347-.214.728-.48 1.11-.969.38-.488.749-1.31.702-2.187-.09-1.707-1.21-2.475-1.89-2.883-.68-.408-1.33-.637-2.07-.863-1.481-.453-3.313-.816-5.481-1.168-3.283-.533-6.384-1.008-10.567-1.496 4.222-.242 7.356-.468 10.723-1.094 2.232-.415 4.154-.906 5.785-1.695.816-.395 1.577-.863 2.254-1.594.677-.731 1.25-1.863 1.25-3.063.001-3.04-2.024-5.208-4.191-6.816-.777-.576-1.626-1.092-2.496-1.582z" opacity=".2"/>
    <path d="M33.24 4c.401.095 4.684 1.115 9.119 2.893 2.323.931 4.603 2.07 6.111 3.188 1.25.927 1.464 1.512 1.6 1.923-.01.004-.005.003-.014.008-4.714 3.72-11.596 3.772-16.16 3.95-11.06.407-22.79-.01-22.79-.01-1.561-.06-2.87-.192-2.906 1.37-.037 1.518.926 2.55 1.618 3.062.693.513 1.364.797 2.114 1.07 1.5.545 3.328.958 5.493 1.356 4.332.794 10.544 1.463 16.146 2.113 4.271.497 4.856.988 8.457 1.485-3.671.514-4.342 1.02-8.703 1.583-5.702.738-11.996 1.547-16.386 2.6-2.196.528-4.051 1.085-5.603 1.898-.776.407-1.504.87-2.152 1.647-.601.72-1.026 1.91-.921 3.068.082 1.348.768 2.154 1.326 2.671.597.554 1.227.955 1.952 1.356 1.45.803 3.28 1.561 5.45 2.338 1.55.555 3.77 1.02 5.594 1.564-1.84.661-4.076 1.196-5.643 1.879-2.198.957-4.06 1.902-5.53 2.884-.734.491-1.374.982-1.946 1.606-.573.623-1.22 1.441-1.264 2.81-.073 2.33.813 4.236 1.94 5.688h8.88a2.801 2.801 0 0 0-1.43-1.22s-1.052-.41-2.089-1.25c-.875-.707-1.412-1.521-1.567-2.515.166-.142.274-.252.588-.462 1.001-.669 2.649-1.531 4.657-2.406 3.494-1.523 8.884-3.035 13.608-4.326.17.038.298.094.468.131 5.68 1.263 8.157 1.82 12.637 2.089 2.24.134 4.156.123 5.857-.23.85-.176 1.675-.42 2.51-1.012.836-.591 1.67-1.393 1.737-2.651l.003-.153c-.005-2.305-1.62-3.824-3.476-4.749-1.855-.925-3.932-1.191-6.256-1.236-4.65-.09-7.165.295-12.9 1.735-.256.065-.45.17-.706.235-4.807-1.134-10.259-2.421-13.783-3.683-1.42-.508-2.326-.952-3.276-1.394.815-.292 1.434-.574 2.642-.864 3.942-.946 10.148-1.76 15.798-2.491 5.65-.731 8.153-1.388 12.537-2.098 2.191-.354 4.036-.71 5.52-1.162.743-.225 1.389-.45 2.084-.877.347-.215.726-.48 1.107-.968.382-.489.752-1.313.706-2.19-.091-1.708-1.212-2.475-1.892-2.883-.68-.407-1.33-.637-2.07-.864-1.48-.452-3.312-.813-5.48-1.165-3.283-.532-6.384-1.01-10.566-1.498 4.221-.241 7.355-.465 10.722-1.091 2.232-.415 4.152-.908 5.783-1.698.816-.395 1.579-.863 2.256-1.594.677-.732 1.249-1.86 1.25-3.06 0-3.04-2.025-5.209-4.192-6.817-.777-.576-1.626-1.093-2.497-1.583z" fill="#CB8819"/>
    <path d="M6.8 4C5.25 4 4 5.25 4 6.8v1C4 6.25 5.25 5 6.8 5h50.4C58.75 5 60 6.25 60 7.8v-1C60 5.25 58.75 4 57.2 4H6.8z" opacity=".1" fill="#F9F5D7"/>
</svg>
