<svg xmlns="http://www.w3.org/2000/svg" width="64" height="64">
    <path d="M60 33c0 15.464-12.536 28-28 28S4 48.464 4 33 16.536 5 32 5s28 12.536 28 28" opacity=".2"/>
    <path d="M60 32c0 15.464-12.536 28-28 28S4 47.464 4 32 16.536 4 32 4s28 12.536 28 28" fill="#E6D3A3"/>
    <path d="M22.633 10.745c-.014.203-.06.392-.125.574a4.311 4.311 0 0 1-.238.528l-.004.004c-.18.345-.379.682-.493 1.062a6.665 6.665 0 0 0-.187 2.77c.066.437.197.87.39 1.27.194.398.452.765.774 1.073.425.406.958.597 1.422.934v.004a7.5 7.5 0 0 0-.652 1.047l-.024.043a8.35 8.35 0 0 0-.5 1.207c-.116.36-.213.726-.285 1.101-.008.043-.024.083-.031.125-.075.421-.126.845-.145 1.274-.02.434-.009.836.031 1.219v.004c.122 1.147.508 2.114 1.13 3.203.193.34.43.66.702.957.272.296.577.573.91.828h.005c2.008 1.535 5.021 2.337 7.488 2.554 1.73.153 2.82.206 3.7.204.876-.003 1.549-.061 2.448-.125.823-.059 6.598-.818 7.512-1.57.922-.762 1.383-2.134.926-3.278-.629-1.573-2.762-2.376-4.2-2.996-1.862-.805-4.638-2.467-6.253-3.766-.997-.8-2.062-1.825-3.192-2.629l.004-.004a5.938 5.938 0 0 0 1.082-1.953c.482-1.603.14-3.52.785-5.047-.046.1-.118.195-.207.29-.266.282-.696.541-1.152.777-.609.313-1.263.586-1.629.828-1.07.705-2.515 1.46-3.148 2.625-.094.17-.16.447-.235.703h-.004c-.676-.105-1.347-.134-1.945.066-.212.071-.4.172-.598.262.004-.01.004-.021.008-.031.205-.559.37-1.122.262-1.73a4.747 4.747 0 0 0-.957-2.106 4.752 4.752 0 0 0-1.817-1.406c-.568-.249-1.026-.638-1.558-.895zm-2.25 8.98c-3.859 2.033-8.094 6.165-9.672 10.954-.548 1.66-.75 3.404-.703 5.129.031 1.15.174 2.293.402 3.394a21.375 21.375 0 0 0 1.512 4.582c.054.117.112.233.168.348.294.6.617 1.17.969 1.715 1.055 1.637 2.358 3.037 3.836 4.238.984.8 2.042 1.51 3.16 2.144h.004a29.906 29.906 0 0 0 3.496 1.684c.476.194 1.124.374 1.883.531h.004c.757.158 1.625.294 2.542.39h.004c.05.006.106.004.157.009 1.797.18 3.764.225 5.465.031 5.506-.627 8.488-2.008 9.898-3.008a33.728 33.728 0 0 1-2.629-3.305v-.003a30.698 30.698 0 0 1-1.898-3.098c-1.049-1.967-1.69-3.706-2.078-5.043a19.23 19.23 0 0 1-1.598-.293c-1.186-.264-2.539-.646-3.63-1.055a9.925 9.925 0 0 1-1.382-.62 12.564 12.564 0 0 1-1.578-1.06 10.97 10.97 0 0 1-1.21-1.117c-.35-.374-.65-.75-.903-1.113a9.007 9.007 0 0 1-1.043-1.969 7.648 7.648 0 0 1-.239-.73c-.11-.413-.132-.66-.132-.66s-1.41-.967-2.512-1.977c-.367-.336-.702-.675-.938-.988a14.01 14.01 0 0 1-.64-.926c-.2-.314-.383-.635-.551-.965v-.004a9.295 9.295 0 0 1-.785-2.09c-.16-.654-.14-4.723.621-5.125zm24.21.653c1.496 2.027 2.815 4.693 3.614 6.25.957 1.863 1.02 3.93 1.078 5.453.06 1.559-.47 3.09-1.387 4.398-1.527 2.18-4.125 3.743-6.847 3.797.158.451.347.943.574 1.47a25.616 25.616 0 0 0 1.86 3.515c.4.635.85 1.291 1.355 1.96a65.968 65.968 0 0 0 1.504 1.837s.912-.764 2.086-2.036a27.419 27.419 0 0 0 1.875-2.253v-.004a20.733 20.733 0 0 0 1.785-2.832 16.916 16.916 0 0 0 1.457-4.086 19.345 19.345 0 0 0 .418-5.324c-.345-5.362-3.995-9.715-9.371-12.145z" opacity=".1"/>
    <path d="M53.964 31.52c-.345-5.362-3.993-9.714-9.369-12.144 1.496 2.027 2.814 4.693 3.613 6.25.957 1.863 1.017 3.93 1.075 5.452.16 4.157-3.877 8.11-8.232 8.197.631 1.803 1.767 4.266 3.788 6.943a66.28 66.28 0 0 0 1.504 1.835s3.648-3.045 5.747-7.124c1.894-3.683 1.999-7.466 1.874-9.409" fill="#B57514"/>
    <path d="M22.633 9.742c-.057.814-.632 1.408-.86 2.168a6.665 6.665 0 0 0-.187 2.77c.132.875.52 1.726 1.164 2.343.425.406.958.598 1.422.934-1.003 1.349-1.558 3.054-1.637 4.8-.078 1.74.33 2.974 1.16 4.427 1.554 2.72 5.817 4.05 9.106 4.34 3.462.305 4.346.206 6.148.078.823-.059 6.598-.818 7.512-1.57.922-.762 1.383-2.134.926-3.278-.629-1.573-2.762-2.376-4.2-2.996-1.862-.805-4.638-2.467-6.253-3.766-.997-.8-2.062-1.825-3.192-2.629a5.932 5.932 0 0 0 1.086-1.957c.481-1.603.14-3.52.785-5.047-.373.798-2.255 1.412-2.988 1.895-1.07.706-2.515 1.46-3.148 2.625-.094.17-.16.447-.235.703-.677-.105-1.35-.134-1.949.066-.212.071-.4.172-.598.262.21-.568.38-1.142.27-1.762a4.793 4.793 0 0 0-2.774-3.511c-.568-.249-1.026-.638-1.558-.895zm-2.25 8.98c-3.859 2.033-8.094 6.165-9.672 10.954-1.46 4.429-.482 9.454 1.21 13.105.055.117.113.233.169.348 2.351 4.797 6.634 7.818 11.465 9.781 1.907.775 6.557 1.36 10.054.961 5.507-.627 8.489-2.008 9.899-3.008-4.046-4.49-5.83-8.774-6.606-11.449-1.819-.241-5.172-1.15-6.609-1.969-4.723-2.694-5.105-6.648-5.105-6.648s-2.51-1.714-3.45-2.965c-.904-1.202-1.617-2.514-1.976-3.984-.16-.655-.14-4.724.62-5.125zm24.21.653c1.496 2.027 2.815 4.693 3.614 6.25.957 1.863 1.02 3.93 1.078 5.453.16 4.157-3.879 8.108-8.234 8.195.63 1.804 1.768 4.269 3.789 6.946a65.973 65.973 0 0 0 1.504 1.836s3.647-3.046 5.746-7.125c1.895-3.683 2-7.468 1.875-9.41-.345-5.362-3.995-9.715-9.371-12.145z" fill="#B57514"/>
    <path d="M45.677 37.901s.005.03.02.083a4.291 4.291 0 0 0 .216.564c.026.065.067.13.102.2.037.07.073.143.12.216.046.074.09.152.14.23l.163.236c.052.084.12.16.183.242.067.08.124.167.197.247.145.16.286.33.45.486l.24.242c.083.08.173.152.259.228l.256.23.27.212c.09.07.178.14.264.211.088.068.18.13.268.193.18.122.342.258.512.363.169.107.326.213.471.312.144.1.283.182.405.257l.314.198c.174.112.272.18.272.18s-.112-.038-.306-.11l-.35-.133c-.135-.052-.288-.11-.446-.192-.16-.078-.333-.163-.515-.258-.183-.09-.363-.21-.554-.326-.094-.06-.193-.118-.288-.183a10.286 10.286 0 0 1-.282-.207l-.284-.214-.272-.236c-.088-.082-.18-.159-.265-.243l-.247-.259c-.17-.165-.303-.36-.447-.534a5.668 5.668 0 0 1-.499-.812c-.041-.089-.077-.177-.113-.26-.074-.164-.12-.325-.16-.465a2.807 2.807 0 0 1-.076-.37 1.796 1.796 0 0 1-.02-.243c0-.056.002-.085.002-.085M48.555 34.56s.074.043.205.112c.131.067.319.16.545.265l.368.16c.131.055.27.11.415.164.142.06.296.104.448.161.152.056.31.1.467.15l.473.136c.158.034.312.08.462.117.152.03.298.065.437.097.14.032.273.053.396.08.123.023.235.053.337.068.1.016.188.035.261.049.146.03.23.05.23.05s-.084.013-.233.029c-.148.014-.362.04-.618.032-.128-.003-.268.002-.414-.013-.146-.013-.302-.026-.46-.047-.159-.029-.324-.053-.49-.088l-.496-.129c-.163-.057-.327-.107-.484-.17a5.328 5.328 0 0 1-.456-.201c-.146-.067-.281-.146-.409-.221-.128-.073-.243-.154-.348-.227-.21-.15-.37-.294-.478-.399a2.15 2.15 0 0 1-.158-.174M48.918 28.407l.678-.05.323-.026.358-.033c.248-.028.51-.054.771-.094.131-.015.26-.038.389-.059a14.013 14.013 0 0 0 1.042-.207l.269-.061c.078-.023.149-.04.207-.054.116-.028.186-.04.186-.04s-.054.042-.153.112a2.805 2.805 0 0 1-.43.258l-.146.074c-.052.02-.105.043-.16.065-.111.044-.228.094-.353.127-.125.036-.254.08-.388.105a4.23 4.23 0 0 1-.408.074c-.137.021-.275.033-.412.041-.136.013-.27.006-.4.009a4.69 4.69 0 0 1-.705-.064c-.41-.065-.668-.178-.668-.178" fill="#7F7061"/>
    <path d="M32.607 18.078c1.055-.022 1.954-1.782 2.22-2.67.482-1.604.141-3.522.787-5.05-.374.798-2.255 1.413-2.988 1.896-1.07.706-2.515 1.46-3.149 2.625-.274.504-.527 1.578-.394 2.024" fill="#B57514"/>
    <path d="M22.535 22.76c.138-3.09 1.717-6.095 4.758-7.112 1.475-.494 3.377.221 4.761.75 1.775.68 3.4 2.404 4.881 3.593 1.615 1.299 4.39 2.964 6.253 3.768 1.438.621 3.57 1.421 4.198 2.994.457 1.145-.004 2.517-.926 3.278-.914.752-6.686 1.513-7.509 1.572-1.802.128-2.687.227-6.15-.078-3.289-.29-7.554-1.62-9.107-4.34-.83-1.453-1.237-2.687-1.16-4.425" fill="#B57514"/>
    <path d="M46.17 29.994c1.066-.886 1.566-3.262.096-3.922-1.07-.48-2.683-.409-3.724.132-.77.4-1.844 1.74-1.485 2.697.426 1.136 1.941.215 2.761.475.88.278 1.35 1.45 2.351.618" fill="#D5C3A0"/>
    <path d="M27.955 19.334c-1.15-.274-2.602 1.02-1.643 2.118 1.612 1.847 3.47-1.519 1.753-2.088a1.147 1.147 0 0 0-.11-.03" fill="#3A393A"/>
    <path d="M26.078 18.21c-.04-1.404 1.146-2.62.888-4.063a4.795 4.795 0 0 0-2.775-3.512c-.569-.248-1.026-.635-1.558-.892-.057.814-.63 1.405-.859 2.165a6.68 6.68 0 0 0-.187 2.773c.132.875.517 1.725 1.162 2.343.438.419.997.604 1.47.961.34.258.648.641.894.978" fill="#B57514"/>
    <path d="M32.97 19.859c-1.24.08-2.474.79-3.231 1.748-1.33 1.682-.253 3.4 1.463 4.152 1.64.718 3.863.757 5.256-.478 1.965-1.743-.114-4.59-2.022-5.216-.027-.008-.064.01-.094.006a3.136 3.136 0 0 0-.843-.207 3.492 3.492 0 0 0-.53-.005zm.002.805c.342.006.679.093.983.28a.47.47 0 0 0 .231.053c1.356.699 2.527 2.491 1.434 3.862-.786.986-2.577.588-3.569.231-1.186-.426-2.14-1.5-1.582-2.796.403-.933 1.478-1.646 2.503-1.63z" fill="#3A393A"/>
    <path d="M38.531 21.006c-.527-.095-1.057-.164-1.579-.003-.606.187-1.063.632-1.521 1.05-.176.16-.136.349.106.395.265.051.614-.035.816-.218.259-.236.514-.498.814-.683.11-.067.505.046.654.073a1.04 1.04 0 0 0 .816-.219c.18-.156.133-.353-.106-.395" fill="#3A393A"/>
    <path d="M41.953 17.842c-.398-.03-.813.022-1.155.072-1.915.28-3.497 1.886-3.379 3.86.32 1.87 1.776 2.929 3.612 2.454 1.713-.443 2.877-2.024 2.815-3.746-.029-.808-.285-1.629-.849-2.219-.268-.28-.647-.392-1.044-.421zm-1.005.446c.21.008.43.055.658.153.822.351 1.025 1.577 1.088 2.35.1 1.238-.468 2.142-1.45 2.868-1.356 1.002-2.497-1.183-2.67-2.194-.077-1.287.902-3.235 2.374-3.177z" fill="#3A393A"/>
    <path d="M31.547 28.577c.5.7.91.986 1.817 1.048.63.044 1.106-.274 1.767.052.48.238.833.524 1.358.681 2.094.629 4.47.083 6.523-.435.682-.173.567-.586-.111-.415-2.005.506-4.587 1.128-6.45-.091-.522-.342-1.002-.456-1.62-.418-1.115.068-1.567.057-2.201-.83-.173-.242-1.284.127-1.083.408" fill="#A04A73"/>
    <path d="M43.007 27.922c.185-.137.412-.457.43-.694.015-.19-.168-.3-.332-.225-.135.063-.247.336-.31.462-.132.264-.236.788.212.457M45.868 28.603c.156-.115.348-.385.363-.584.012-.16-.142-.254-.28-.19-.114.053-.208.282-.262.389-.111.222-.198.664.179.385" fill="#7F7061"/>
    <path d="M36.904 39.413c-1.819-.24-5.176-1.148-6.612-1.968-4.723-2.694-5.105-6.65-5.105-6.65s-2.507-1.714-3.447-2.965c-.905-1.202-1.62-2.513-1.98-3.983-.16-.655-.138-4.722.624-5.123-3.859 2.033-8.095 6.162-9.673 10.95-1.46 4.43-.48 9.456 1.213 13.107.054.117.11.233.165.348 2.352 4.796 6.637 7.817 11.467 9.78 1.907.775 6.556 1.36 10.054.962 5.506-.627 8.488-2.007 9.898-3.007-4.046-4.49-5.828-8.776-6.604-11.45" fill="#B57514"/>
    <path d="M10.71 29.674s.044.046.132.123c.084.081.22.186.388.324.174.13.384.29.64.45l.195.128.216.122c.148.082.297.178.462.263.333.164.688.35 1.084.505.385.178.815.306 1.25.46.216.08.448.126.677.191l.346.092c.116.032.232.065.353.085l.719.14.362.07.368.043c.49.057.977.14 1.465.149.486.015.963.077 1.428.053.464-.011.914 0 1.34-.017l1.199-.083.534-.037.48-.058.78-.095c.434-.052.684-.076.684-.076s-.243.059-.67.152a1719.887 1719.887 0 0 1-1.248.267c-.17.029-.348.048-.534.074l-1.206.153c-.43.036-.885.05-1.356.07-.118.006-.237.01-.356.015-.12.006-.24-.005-.362-.007l-.736-.027c-.497-.004-.996-.084-1.497-.139l-.376-.047-.37-.075-.735-.15c-.244-.045-.478-.131-.712-.195-.232-.074-.468-.127-.688-.215-.443-.168-.874-.323-1.26-.522-.398-.175-.75-.39-1.076-.579-.162-.097-.31-.203-.452-.3l-.207-.142-.186-.148c-.245-.185-.443-.365-.605-.512a5.27 5.27 0 0 1-.354-.367c-.078-.087-.115-.137-.115-.137M13.542 45.553s.286-.012.778-.081a15.182 15.182 0 0 0 2.01-.43c.408-.112.846-.255 1.303-.418a20.72 20.72 0 0 0 1.412-.578c.48-.223.968-.468 1.45-.743.487-.266.963-.572 1.43-.886.234-.158.461-.325.69-.487l.663-.514.634-.53.6-.539.561-.542c.18-.18.352-.363.521-.537.173-.172.324-.355.479-.524.152-.17.305-.332.437-.498.27-.328.528-.623.736-.9.213-.273.403-.509.545-.714.292-.403.464-.632.464-.632s-.143.247-.4.676c-.126.216-.297.467-.489.758-.187.294-.42.61-.677.955-.125.175-.269.347-.414.528-.147.179-.293.369-.46.55-.165.184-.33.376-.506.566l-.554.568c-.196.184-.396.372-.597.563-.206.186-.421.366-.637.55-.22.178-.446.352-.67.53-.234.166-.464.34-.702.502-.48.317-.968.625-1.467.893a16.076 16.076 0 0 1-4.298 1.624c-.841.188-1.558.254-2.056.286-.25.016-.447.012-.58.011l-.206-.007M31.633 53.857l.16-.665c.104-.422.23-1.03.381-1.759.07-.366.154-.76.227-1.18l.116-.644.11-.675c.082-.456.132-.934.206-1.415.067-.482.112-.975.168-1.466.037-.492.09-.984.113-1.47.01-.485.06-.963.051-1.426v-.682l.003-.33c-.002-.11-.01-.216-.015-.322l-.03-.618c-.011-.2-.008-.394-.035-.577a52.91 52.91 0 0 1-.103-1.008c-.01-.151-.04-.29-.062-.418l-.063-.354a35.335 35.335 0 0 1-.113-.675 32.27 32.27 0 0 0 .284 1.007c.034.128.077.264.1.415.057.298.121.636.185 1.007.061.37.089.776.134 1.203.01.108.023.216.03.326l.013.335.022.69c.012.235.007.474 0 .715l-.017.732c-.02.492-.068.99-.101 1.489-.062.496-.112.993-.185 1.48-.075.486-.148.964-.242 1.423-.045.23-.09.455-.132.676l-.148.643c-.09.42-.2.81-.294 1.172a30.948 30.948 0 0 1-.53 1.727c-.067.207-.13.367-.17.477l-.063.167" fill="#7F7061"/>
    <path d="M32 4C16.536 4 4 16.536 4 32c0 .113.011.224.018.336C4.37 17.18 16.758 5 32 5c15.242 0 27.629 12.18 27.982 27.336.007-.112.018-.223.018-.336C60 16.536 47.464 4 32 4z" opacity=".2" fill="#F9F5D7"/>
</svg>
