<svg xmlns="http://www.w3.org/2000/svg" width="64" height="64" version="1">
    <rect width="56" height="56" x="4" y="5" rx="2.8" ry="2.8" opacity=".2"/>
    <rect width="56" height="56" x="4" y="4" rx="2.8" ry="2.8" fill="#8F3F71"/>
    <path d="M6.8 4C5.25 4 4 5.25 4 6.8v1C4 6.25 5.25 5 6.8 5H57.2A2.796 2.796 0 0 1 60 7.8v-1C60 5.25 58.75 4 57.199 4H6.801z" opacity=".1" fill="#F9F5D7"/>
    <rect width="10" height="10" x="15" y="16" rx="1.4" ry="1.4" opacity=".1" fill="#F9F5D7"/>
    <rect width="10" height="10" x="27" y="16" rx="1.4" ry="1.4" opacity=".1" fill="#F9F5D7"/>
    <rect width="10" height="10" x="39" y="16" rx="1.4" ry="1.4" opacity=".1" fill="#F9F5D7"/>
    <rect width="10" height="10" x="27" y="28" rx="1.4" ry="1.4" opacity=".1" fill="#F9F5D7"/>
    <rect width="10" height="10" x="27" y="40" rx="1.4" ry="1.4" opacity=".1" fill="#F9F5D7"/>
    <rect width="10" height="10" x="15" y="15" rx="1.4" ry="1.4" fill="#8F3F71"/>
    <rect width="10" height="10" x="27" y="15" rx="1.4" ry="1.4" fill="#8F3F71"/>
    <rect width="10" height="10" x="39" y="15" rx="1.4" ry="1.4" fill="#8F3F71"/>
    <rect width="10" height="10" x="27" y="27" rx="1.4" ry="1.4" fill="#8F3F71"/>
    <rect width="10" height="10" x="27" y="39" rx="1.4" ry="1.4" fill="#8F3F71"/>
</svg>
