<svg xmlns="http://www.w3.org/2000/svg" width="64" height="64" version="1">
    <path d="M54 57V7c0-1.662-1.338-3-3-3H13c-1.662 0-3 1.338-3 3v50c0 1.662 1.338 3 3 3h38c1.662 0 3-1.338 3-3z" fill="#7CB668"/>
    <path d="M13 4c-1.662 0-3 1.338-3 3v1c0-1.662 1.338-3 3-3h38c1.662 0 3 1.338 3 3V7c0-1.662-1.338-3-3-3H13z" opacity=".1" fill="#F9F5D7"/>
    <g fill="#504945">
        <path d="M18 16h28v2H18zM18 22h28v2H18zM18 28h28v2H18zM18 34h28v2H18zM18 40h28v2H18zM18 46h28v2H18z"/>
    </g>
    <path d="M10 57v1c0 1.662 1.338 3 3 3h38c1.662 0 3-1.338 3-3v-1c0 1.662-1.338 3-3 3H13c-1.662 0-3-1.338-3-3z" opacity=".2"/>
</svg>
