<svg xmlns="http://www.w3.org/2000/svg" width="64" height="64">
    <rect width="56" height="56" x="4" y="5" rx="4.2" ry="4.2" opacity=".2"/>
    <rect width="56" height="56" x="4" y="4" rx="4.2" ry="4.2" fill="#417B58"/>
    <path d="M27.465 11.017c-.729.06-1.002.174-1.275.522-.295.375-.547.462-1.622.562-.818.076-1.393.226-1.612.421-.423.376-.82 1.29-.82 1.884 0 .422.04.44.686.337.38-.061.969-.017 1.325.101.522.173.603.259.435.46-.119.144-.527.104-.973.104-.896 0-.99.251-.366.977l.402.47.692-.371c.788-.423 1.343-.325 1.897-.012.211.12 1.162.262 2.115.315 1.62.09 1.19.128 1.582.584.254.296.604.71.603 1.05-.003 1.148-.806 3.182-3.186 6.014-1.205 1.434-1.443 4.06-1.446 4.752 0 .212-.077.43-.167.486-.174.107-.282-.552-.447-2.718-.163-2.144-.564-3.342-1.487-4.295-.541-.56-1.044-.894-1.548-1.028-.883-.235-.936-.415-.218-.713.29-.12.527-.288.527-.37 0-.214-.803-.39-1.322-.29-.533.102-.546.007-.067-.503.941-1.003-.661-.77-2.325.337-1.492.995-2.403 2.018-2.541 2.757-.088.467-.367.874-.994 1.452-1.161 1.071-1.424 1.614-1.275 2.611.218 1.455.385 1.574 1.063.767.425-.506 1.412-1.032 1.593-.851.177.177-.28.808-.812 1.123-.673.398-.665.678.023.918.653.228.775.167 1.144-.564.426-.844.927-1.32 1.63-1.547.347-.113 1.004-.55 1.459-.972.454-.422.913-.766 1.018-.766.361 0 1.028.84 1.208 1.519.1.374.268 1.86.374 3.304.328 4.451.775 5.081 2.394 8.61.52 1.13.943 2.17.943 2.308 0 .187-1.357.28-2.388.37-2.44.214-3.464 1.043-3.642 2.952-.064.688-.003 1.088.232 1.536.486.923.777.906.647-.04-.11-.81.183-1.326.402-.707.162.457.784 1.109 1.058 1.109.278 0 .28-.026.061-.604-.192-.506-.075-.557.416-.185.47.356.628.182.508-.559-.19-1.173 1.681-2.193 3.906-1.533 1.082.321 1.38.35 1.858.177.911-.33 2.205-.252 2.799.249.598.504.113 1.821-.304 2.417-.425.608-1.09.864-2.754 1.067-.843.103-1.719.31-1.948.46-.456.3-.823.97-.823 1.508 0 .463.21.433.67-.095.21-.242.54-.438.734-.438.44 0 .442.094.002.654-.316.403-.498 1.454-.25 1.454.054 0 .358-.276.677-.614.32-.339.748-.615.954-.615.438 0 .462.133.106.603-.264.35-.361 1.512-.125 1.5.072-.004.29-.26.485-.57.331-.528.745-.796 2.138-1.384.307-.13 1.48-1.213 2.606-2.404 2.01-2.127 1.986-2.176 1.93-2.9l-.06-.739 2.039-.213c1.804-.644 2.764-.696 3.814-.152 1.394.723 2.711 1.976 2.52 3.153-.14.867-.617 2.51-1.82 2.627-2.862-.054-6.854 1.782-6.403 4.452.372 1.792 2.695 2.98 5.025 3.512.733.168 1.712.223 2.944.171 3.085-.13 5.058-.29 6.71-1.989.605-.621 1.384-2.103 1.67-2.828l1.53.836v-4.024L50 50.732l2.097 1.208c-.246.205-.57.705-.938 1.084-1.623 1.678-2.735 1.673-4.765 1.947-1.666.224-3.493-.011-4.628-.514-.931-.412-1.652-1.302-1.652-1.965 0-.624.743-1.194 1.64-1.224 2.428-.082 2.88-.304 2.88-.304 1.748-.531 3.403-3.569 3.403-5.48 0-.488.077-1.087.17-1.334.14-.366.06-.68-.435-1.712-.411-.86-.569-1.002-.497-1.291.088-.35-.075-.611-.923-1.469-.918-.928-1.008-1.367-.815-1.676.12-.19.218-.387.218-.435 0-.048-.457-.317-1.013-.598-.556-.281-1.205-.669-1.443-.862-.374-.304-.402-.39-.195-.64.131-.159.193-.334.137-.39-.057-.057-.718-.218-1.468-.36-1.693-.32-1.956-.459-2.026-1.067-.03-.266-.117-.477-.192-.469-.076.009-.916.16-1.87.334-1.873.345-2.299.298-2.299-.255 0-.456.004-.458-1.169.168-1.915 1.023-3.47.395-2.988-1.213.12-.405.448-1.07.728-1.477 1.118-1.627 3.25-2.145 7.17-2.326 2.183-.1 3.167-.198 3.808-.489 1.011-.457 3.334-2.065 3.768-2.871.186-.345.397-.626.472-.626.366 0 .84-.75.84-1.334 0-.789.36-.731.574.093.212.818.572.415.55-.615-.019-.873.112-.973.505-.387.425.633.564.21.32-.972-.233-1.138-1.757-3.923-2.388-4.722-.2-.254-1.784-.506-2.053-.562-.37-.076-.86-.385-1.391-1.269-.4-.665-.918-1.285-1.205-1.435-.454-.236-.585-.233-1.276.031-.839.321-.915.453-.48.815.35.29.94 1.63.94 2.13 0 .359-.005.36-.365.034-.201-.182-.766-.611-.91-.952-.248-.591-.272-.604-.513-.278a1.315 1.315 0 0 0 .28 1.862c.586.418 1.114 1.336 1.31 2.283.071.338.278.863.461 1.165.686 1.13.554 3.773-.502 4.275-.368.175-1.553.331-3.374.446-4.187.265-6.09.808-8.098 2.781-.96.944-1.023.98-.91.5.183-.768.262-1.797 1.998-4.068 2.228-2.915 2.515-3.615 2.512-5.705-.006-1.787-.822-3.82-2.715-5.357-.39-.27-.667-.561-.614-.646.052-.085.414-.154.803-.154.824 0 .84-.271.045-.736-.663-.387-2.862-.73-4.054-.632z" opacity=".2"/>
    <path d="M27.465 10.017c-.729.06-1.002.174-1.275.522-.295.375-.547.462-1.622.562-.818.076-1.393.226-1.612.421-.423.376-.82 1.29-.82 1.884 0 .422.04.44.686.337.38-.061.969-.017 1.325.101.522.173.603.259.435.46-.119.144-.527.104-.973.104-.896 0-.99.251-.366.977l.402.47.692-.371c.788-.423 1.343-.325 1.897-.012.211.12 1.162.262 2.115.315 1.62.09 1.19.128 1.582.584.254.296.604.71.603 1.05-.003 1.148-.806 3.182-3.186 6.014-1.205 1.434-1.443 4.06-1.446 4.752 0 .212-.077.43-.167.486-.174.107-.282-.552-.447-2.718-.163-2.144-.564-3.342-1.487-4.295-.541-.56-1.044-.894-1.548-1.028-.883-.235-.936-.415-.218-.713.29-.12.527-.288.527-.37 0-.214-.803-.39-1.322-.29-.533.102-.546.008-.067-.503.941-1.003-.661-.77-2.325.337-1.492.995-2.403 2.018-2.541 2.757-.088.467-.367.874-.994 1.452-1.161 1.071-1.424 1.614-1.275 2.611.218 1.455.385 1.574 1.063.767.425-.506 1.412-1.032 1.593-.851.177.177-.28.808-.812 1.123-.673.398-.665.678.023.918.653.228.775.167 1.144-.564.426-.844.927-1.32 1.63-1.547.347-.113 1.004-.55 1.459-.972.454-.422.913-.766 1.018-.766.361 0 1.028.84 1.208 1.519.1.374.268 1.86.374 3.304.328 4.451.775 5.081 2.394 8.61.52 1.13.943 2.17.943 2.308 0 .187-1.357.28-2.388.37-2.44.214-3.464 1.043-3.642 2.952-.064.688-.003 1.088.232 1.536.486.923.777.906.647-.04-.11-.81.183-1.326.402-.707.162.457.784 1.109 1.058 1.109.278 0 .28-.026.061-.604-.192-.506-.075-.557.416-.185.47.356.628.182.508-.559-.19-1.173 1.681-2.193 3.906-1.533 1.082.321 1.38.35 1.858.177.911-.33 2.205-.252 2.799.249.598.504.113 1.821-.304 2.417-.425.608-1.09.864-2.754 1.067-.843.103-1.719.31-1.948.46-.456.3-.823.97-.823 1.508 0 .463.21.433.67-.095.21-.242.54-.438.734-.438.44 0 .442.094.002.654-.316.403-.498 1.454-.25 1.454.054 0 .358-.276.677-.614.32-.339.748-.615.954-.615.438 0 .462.133.106.603-.264.35-.361 1.512-.125 1.5.072-.004.29-.26.485-.57.331-.528.745-.796 2.138-1.384.307-.13 1.48-1.213 2.606-2.404 2.01-2.127 1.986-2.176 1.93-2.9l-.06-.739 2.039-.213c1.804-.644 2.764-.696 3.814-.152 1.394.723 2.711 1.976 2.52 3.153-.14.867-.617 2.51-1.82 2.627-2.862-.054-6.854 1.782-6.403 4.452.372 1.792 2.695 2.98 5.025 3.512.733.168 1.712.223 2.944.171 3.085-.13 5.058-.29 6.71-1.989.605-.621 1.384-2.103 1.67-2.828l1.53.836v-4.024L50 49.732l2.097 1.208c-.246.205-.57.705-.938 1.084-1.623 1.678-2.735 1.673-4.765 1.947-1.666.224-3.493-.011-4.628-.514-.931-.412-1.652-1.302-1.652-1.965 0-.624.743-1.194 1.64-1.224 2.428-.082 2.88-.304 2.88-.304 1.748-.531 3.403-3.569 3.403-5.48 0-.488.077-1.087.17-1.334.14-.366.06-.68-.435-1.712-.411-.86-.569-1.002-.497-1.291.088-.35-.075-.611-.923-1.469-.918-.928-1.008-1.367-.815-1.676.12-.19.218-.387.218-.435 0-.048-.457-.317-1.013-.598-.556-.281-1.205-.669-1.443-.862-.374-.304-.402-.39-.195-.64.131-.159.193-.334.137-.39-.057-.057-.718-.218-1.468-.36-1.693-.32-1.956-.459-2.026-1.067-.03-.266-.117-.477-.192-.469-.076.009-.916.16-1.87.334-1.873.345-2.299.298-2.299-.255 0-.456.004-.458-1.169.168-1.915 1.023-3.47.395-2.988-1.213.12-.405.448-1.07.728-1.477 1.118-1.627 3.25-2.145 7.17-2.326 2.183-.1 3.167-.198 3.808-.489 1.011-.457 3.334-2.065 3.768-2.871.186-.345.397-.626.472-.626.366 0 .84-.75.84-1.334 0-.789.36-.731.574.093.212.818.572.415.55-.615-.019-.873.112-.973.505-.387.425.633.564.21.32-.972-.233-1.138-1.757-3.923-2.388-4.722-.2-.254-1.784-.506-2.053-.562-.37-.076-.86-.385-1.391-1.269-.4-.665-.918-1.285-1.205-1.435-.454-.236-.585-.233-1.276.031-.839.321-.915.453-.48.815.35.29.94 1.63.94 2.13 0 .359-.005.36-.365.034-.201-.182-.766-.611-.91-.952-.248-.591-.272-.604-.513-.278a1.315 1.315 0 0 0 .28 1.862c.586.418 1.114 1.336 1.31 2.283.071.338.278.863.461 1.165.686 1.13.554 3.773-.502 4.275-.368.175-1.553.331-3.374.446-4.187.265-6.09.808-8.098 2.781-.96.944-1.023.98-.91.5.183-.768.262-1.797 1.998-4.068 2.228-2.915 2.515-3.615 2.512-5.705-.006-1.787-.822-3.82-2.715-5.357-.39-.27-.667-.561-.614-.646.052-.085.414-.154.803-.154.824 0 .84-.271.045-.736-.663-.387-2.862-.73-4.054-.632z" fill="#8DC07B"/>
    <path d="M8.2 4A4.19 4.19 0 0 0 4 8.2v1A4.19 4.19 0 0 1 8.2 5h47.6A4.19 4.19 0 0 1 60 9.2v-1A4.19 4.19 0 0 0 55.8 4H8.2z" opacity=".2" fill="#F9F5D7"/>
</svg>
