<svg xmlns="http://www.w3.org/2000/svg" width="64" height="64">
    <path d="M10 56v2c0 1.662 1.338 3 3 3h38c1.662 0 3-1.338 3-3v-2c0 1.662-1.338 3-3 3H13c-1.662 0-3-1.338-3-3z" opacity=".2"/>
    <path d="M13 4c-1.662 0-3 1.338-3 3v50c0 1.662 1.338 3 3 3h38c1.662 0 3-1.338 3-3V7c0-1.662-1.338-3-3-3H13z" fill="#8F3F71"/>
    <path d="M13 4c-1.662 0-3 1.338-3 3v50c0 1.662 1.338 3 3 3h5V4z" opacity=".2"/>
    <path d="M13 4c-1.662 0-3 1.338-3 3v1c0-1.662 1.338-3 3-3h38c1.662 0 3 1.338 3 3V7c0-1.662-1.338-3-3-3H13z" opacity=".2" fill="#F9F5D7"/>
    <path d="M32.985 19c6.05 0 11.048 4.948 11.048 10.997 0 2.3-.778 4.415-1.998 6.186l7.365 7.374a2.008 2.01 0 0 1-2.808 2.874l-7.365-7.373a11.003 11.003 0 0 1-6.242 1.937C26.935 40.995 22 36.047 22 29.997 22 23.948 26.935 19 32.985 19zm0 4a6.96 6.96 0 0 0-6.99 6.997 6.96 6.96 0 0 0 6.99 6.999 6.96 6.96 0 0 0 6.99-6.999A6.96 6.96 0 0 0 32.986 23z" opacity=".2"/>
    <path d="M32.985 18c6.05 0 11.048 4.948 11.048 10.997 0 2.3-.778 4.415-1.998 6.186l7.365 7.373a2.008 2.01 0 0 1-2.808 2.875l-7.365-7.373a11.003 11.003 0 0 1-6.242 1.937C26.935 39.995 22 35.047 22 28.997 22 22.948 26.935 18 32.985 18zm0 3.999a6.96 6.96 0 0 0-6.99 6.998 6.96 6.96 0 0 0 6.99 6.999 6.96 6.96 0 0 0 6.99-6.999A6.96 6.96 0 0 0 32.986 22z" fill="#F9F5D7"/>
</svg>
