<svg xmlns="http://www.w3.org/2000/svg" width="64" height="64" version="1">
    <rect width="56" height="56" x="4" y="5" rx="2.8" ry="2.8" opacity=".2"/>
    <rect width="56" height="56" x="4" y="4" rx="2.8" ry="2.8" fill="#066678"/>
    <path d="M26.232 51.918c-4.246-.39-7.537-1.76-10.008-4.163-2.098-2.043-3.219-5.386-3.224-7.854-.004-1.73.494-3.111 1.497-4.157 1.14-1.19 2.443-1.733 4.178-1.744 2.175-.013 4.035.746 4.839 2.43.34.71.359.832.43 2.635.08 2.046.182 3.563.676 4.534.71 1.394 2.647 2.276 4.628 2.47 2.996.293 5.822-1.408 6.553-4.255.186-.727.203-1.652.203-11.088 0-10.093-.004-9.39-.233-9.784-.402-.695-.9-.87-2.815-.915H31V14h20v6.027h-1.978c-1.817.072-2.14.155-2.541.588-.554.598-.405-.526-.483 10.455-.077 10.892-.082 11-.6 12.44-1.297 3.604-4.847 6.616-9.297 7.772-2.275.59-7.343.868-9.87.636z" opacity=".2"/>
    <path d="M26.232 50.918c-4.246-.39-7.537-1.759-10.008-4.163-2.098-2.042-3.219-5.386-3.224-7.854-.004-1.73.494-3.111 1.497-4.157 1.14-1.189 2.443-1.733 4.178-1.743 2.175-.014 4.035.745 4.839 2.429.34.71.359.832.43 2.635.08 2.046.182 3.563.676 4.535.71 1.393 2.647 2.276 4.628 2.47 2.996.292 5.822-1.409 6.553-4.255.186-.727.203-1.652.203-11.088 0-10.094-.004-9.39-.233-9.785-.402-.695-.9-.87-2.815-.914H31V13h20v6.028h-1.978c-1.817.072-2.14.154-2.541.587-.554.598-.405-.526-.483 10.455-.077 10.893-.082 11-.6 12.44-1.297 3.604-4.847 6.616-9.297 7.772-2.275.591-7.343.869-9.87.636z" fill="#F9F5D7"/>
    <path d="M6.8 4C5.25 4 4 5.25 4 6.8v1C4 6.25 5.25 5 6.8 5h50.4C58.75 5 60 6.25 60 7.8v-1C60 5.25 58.75 4 57.2 4H6.8z" fill="#F9F5D7" opacity=".1"/>
</svg>
