<svg xmlns="http://www.w3.org/2000/svg" width="64" height="64" version="1">
    <path d="M27.945 5C14.815 5 4 15.83 4 28.977s10.815 23.976 23.945 23.976c2.503 0 4.958-.427 7.315-1.186l5.795 5.8c2.097 2.185 5.433 3.574 8.426 3.422 2.994-.153 5.45-1.462 7.25-3.263 1.798-1.801 3.105-4.26 3.258-7.258.152-2.998-1.235-6.338-3.418-8.438l.117.114-5.944-5.956c.735-2.32 1.143-4.739 1.146-7.2v-.011C51.89 15.83 41.075 5 27.945 5z" opacity=".2"/>
    <path d="M27.945 4C14.815 4 4 14.83 4 27.977s10.815 23.976 23.945 23.976c2.503 0 4.958-.427 7.315-1.186l5.795 5.8c2.097 2.185 5.433 3.574 8.426 3.422 2.994-.153 5.45-1.462 7.25-3.263 1.798-1.801 3.105-4.26 3.258-7.258.152-2.998-1.235-6.338-3.418-8.438l.117.114-5.944-5.956c.735-2.32 1.143-4.739 1.146-7.2v-.011C51.89 14.83 41.075 4 27.945 4z" fill="#504945"/>
    <path d="M34.684 39.852L46.91 52.078c2.827 2.945 7.187-1.415 4.242-4.243L38.74 35.424C34 37 36 37 34.684 39.852z" opacity=".2"/>
    <path d="M34.684 38.852L46.91 51.078c2.827 2.945 7.187-1.415 4.242-4.243L38.74 34.424C34 36 36 36 34.684 38.852z" fill="#79740D"/>
    <path d="M38.74 34.424C34 36 36 36 34.684 38.852l.273.273c.698-2.12-.502-2.276 3.783-3.701l12.412 12.412c.53.508.813 1.065.922 1.621.157-.86-.07-1.803-.922-2.621L38.74 34.424z" fill="#F9F5D7" opacity=".1"/>
    <path d="M28 13a16 16 0 0 0-16 16 16 16 0 0 0 16 16 16 16 0 0 0 16-16 16 16 0 0 0-16-16z" opacity=".2"/>
    <path d="M28 12a16 16 0 0 0-16 16 16 16 0 0 0 16 16 16 16 0 0 0 16-16 16 16 0 0 0-16-16z" fill="#48B9C7"/>
    <path d="M28 12a16 16 0 0 0-16 16 16 16 0 0 0 .021.418A16 16 0 0 1 28 13a16 16 0 0 1 15.979 15.574A16 16 0 0 0 44 28a16 16 0 0 0-16-16z" opacity=".1" fill="#F9F5D7"/>
    <path d="M27.945 4C14.815 4 4 14.83 4 27.977c0 .167.01.333.014.5C4.284 15.557 14.983 5 27.945 5c12.923 0 23.597 10.493 23.93 23.36.002-.125.015-.247.016-.372v-.011C51.89 14.829 41.075 4 27.945 4zm23.016 31.406c-.074.26-.135.524-.217.782l5.944 5.957-.118-.114c1.97 1.893 3.28 4.793 3.409 7.543.002-.036.007-.07.01-.107.152-2.998-1.235-6.337-3.419-8.436l.117.114-5.726-5.739z" fill="#F9F5D7" opacity=".1"/>
    <path d="M20 21.857v14.286C20 39 22 39 22 39s1.999 0 1.999-2.857V33H32v3.143C32 39 34 39 34 39s2 0 2-2.857V21.857S36 19 33.333 19H22.667C20 19 20 21.857 20 21.857zM23.999 23H32v6h-8.001z" opacity=".2"/>
    <path d="M20 20.857v14.286C20 38 22 38 22 38s1.999 0 1.999-2.857V32H32v3.143C32 38 34 38 34 38s2 0 2-2.857V20.857S36 18 33.333 18H22.667C20 18 20 20.857 20 20.857zM23.999 22H32v6h-8.001z" fill="#F9F5D7"/>
</svg>
