<svg xmlns="http://www.w3.org/2000/svg" width="64" height="64" version="1">
    <circle cx="32" cy="33" r="28" opacity=".2"/>
    <circle cx="32" cy="32" r="28" fill="#3A393A"/>
    <path d="M18 40h14v14z" opacity=".2"/>
    <path d="M18 39h14v14z" fill="#48B9C7"/>
    <path d="M18 39l1 1h13v-1z" opacity=".2" fill="#F9F5D7"/>
    <path d="M18 26h14v14z" opacity=".2"/>
    <path d="M18 25h14v14z" fill="#8F3F71"/>
    <path d="M18 26h14V12z" opacity=".2"/>
    <path d="M18 25h14V11z" fill="#48B9C7"/>
    <path d="M46 26H32V12z" opacity=".2"/>
    <path d="M46 25H32V11z" fill="#8F3F71"/>
    <path d="M32 11L18 25h1l13-13z" opacity=".2" fill="#F9F5D7"/>
    <path d="M32 11v1l13 13h1z" opacity=".1" fill="#F9F5D7"/>
    <path d="M32 4A28 28 0 0 0 4 32a28 28 0 0 0 .018.492A28 28 0 0 1 32 5a28 28 0 0 1 27.975 27.492A28 28 0 0 0 60 32 28 28 0 0 0 32 4z" opacity=".1" fill="#F9F5D7"/>
</svg>
