<svg xmlns="http://www.w3.org/2000/svg" width="64" height="64">
    <rect width="60" height="60" x="-63" y="-62" rx="4.5" ry="4.5" transform="matrix(0 -1 -1 0 0 0)" opacity=".2"/>
    <rect width="60" height="60" x="-62" y="-62" rx="4.5" ry="4.5" transform="matrix(0 -1 -1 0 0 0)" fill="#F9F5D7"/>
    <path d="M6.5 2A4.491 4.491 0 0 0 2 6.5V22h20V2z" opacity=".3"/>
    <path d="M42 2v20h20V6.5C62 4.009 59.992 2 57.5 2zM22 62h20V42H22z" opacity=".1"/>
    <path d="M42 62V42h20v15.5c0 2.492-2.008 4.5-4.5 4.5zM2 22h20v20H2z" opacity=".5"/>
    <path opacity=".3" d="M22 22h20v20H22z"/>
    <path d="M12.652 12.058q-.766 0-1.152.512-.379.504-.379 1.52 0 1.017.379 1.529.386.504 1.152.504.772 0 1.151-.504.386-.512.386-1.529 0-1.016-.386-1.52-.379-.512-1.151-.512zm3.606-5.562v2.141q-.72-.349-1.356-.512-.637-.17-1.243-.17-1.303 0-2.03.744-.727.737-.849 2.196.5-.38 1.084-.567.583-.194 1.272-.194 1.735 0 2.796 1.04Q17 12.214 17 13.897q0 1.861-1.19 2.986Q14.622 18 12.622 18q-2.204 0-3.416-1.52Q8 14.952 8 12.15q0-2.87 1.41-4.507Q10.825 6 13.287 6q.78 0 1.515.124.735.124 1.455.372z" font-weight="700" font-size="38.06" font-family="Bitstream Vera Sans" fill="#3A393A"/>
    <path d="M8 26h9v1.744L12.344 38h-3l4.408-9.725H8zM34.536 31.54q1.208.301 1.832 1.053.632.743.632 1.898 0 1.72-1.36 2.618-1.36.891-3.968.891-.92 0-1.848-.147-.92-.14-1.824-.426v-2.301q.864.418 1.712.635.856.21 1.68.21 1.224 0 1.872-.411.656-.41.656-1.178 0-.79-.672-1.193-.664-.41-1.968-.41h-1.232v-1.922h1.296q1.16 0 1.728-.348.568-.357.568-1.077 0-.666-.552-1.03-.552-.365-1.56-.365-.744 0-1.504.163t-1.512.48v-2.184q.912-.248 1.808-.372T32.08 26q2.328 0 3.48.744 1.16.736 1.16 2.223 0 1.015-.552 1.666-.552.643-1.632.906zM51.55 55.766H57V58h-9v-2.234l4.52-3.798q.606-.52.897-1.018.29-.497.29-1.034 0-.83-.589-1.334-.58-.506-1.551-.506-.747 0-1.634.308-.888.3-1.9.9v-2.59q1.079-.339 2.132-.512Q51.218 46 52.23 46q2.223 0 3.451.932 1.236.931 1.236 2.597 0 .963-.523 1.8-.522.829-2.198 2.226z" font-weight="700" font-size="11" font-family="DejaVu Sans" fill="#3A393A"/>
    <path d="M6.5 2A4.49 4.49 0 0 0 2 6.5v1A4.49 4.49 0 0 1 6.5 3h51A4.49 4.49 0 0 1 62 7.5v-1A4.49 4.49 0 0 0 57.5 2h-51z" opacity=".2" fill="#F9F5D7"/>
    <path opacity=".2" d="M2 22h40v1H2z"/>
    <path opacity=".2" fill="#F9F5D7" d="M2 42h40v1H2zM42 22h20v1H42z"/>
    <path opacity=".2" d="M42 42h20v1H42z"/>
</svg>
