<svg xmlns="http://www.w3.org/2000/svg" width="64" height="64" version="1">
    <path d="M6.8 4A2.8 2.8 0 0 0 4 6.81V56h56V6.81A2.8 2.8 0 0 0 57.2 4z" fill="#B57514"/>
    <path d="M4 11v20h3v-7h8v7h3v-7h13v7h3v-7h26V11H7zm3 3h8v7H7zm11 0h13v7H18zm16 0h12v7H34zm15 0h8v7h-8z" opacity=".2"/>
    <path fill="#CB8819" d="M4 34.64h17v25.364H4z"/>
    <path opacity=".4" fill="#F9F5D7" d="M4 36h17v8H4z"/>
    <path opacity=".2" fill="#F9F5D7" d="M4 44h17v8H4z"/>
    <circle cx="12.5" cy="39.5" r="1.5" fill="#F9F5D7"/>
    <path d="M4 10v20h3v-7h8v7h3v-7h13v7h3v-7h26V10H7zm3 3h8v7H7zm11 0h13v7H18zm16 0h12v7H34zm15 0h8v7h-8z" fill="#E6D3A3"/>
    <circle cx="12.5" cy="47.5" r="1.5" fill="#F9F5D7"/>
    <circle cx="12.5" cy="55.5" r="1.5" fill="#F9F5D7"/>
    <path fill="#CB8819" d="M43 34.64h17v25.364H43z"/>
    <path opacity=".4" fill="#F9F5D7" d="M43 36h17v8H43z"/>
    <path opacity=".2" fill="#F9F5D7" d="M43 44h17v8H43z"/>
    <circle cx="51.5" cy="39.5" r="1.5" fill="#F9F5D7"/>
    <circle cx="51.5" cy="47.5" r="1.5" fill="#F9F5D7"/>
    <circle cx="51.5" cy="55.5" r="1.5" fill="#F9F5D7"/>
    <path opacity=".2" d="M4 44h17v1H4zM4 52h17v1H4zM4 60h17v1H4zM21 56h22v1H21zM43 44h17v1H43zM43 52h17v1H43zM43 60h17v1H43z"/>
    <rect width="62" height="6" x="1" y="31" rx="1.409" ry="1.5" opacity=".1"/>
    <rect width="62" height="6" x="1" y="30" rx="1.409" ry="1.5" fill="#CB8819"/>
    <path d="M2.408 30C1.628 30 1 30.669 1 31.5v1c0-.831.628-1.5 1.408-1.5h59.184c.78 0 1.408.669 1.408 1.5v-1c0-.831-.628-1.5-1.408-1.5H2.408z" opacity=".2" fill="#F9F5D7"/>
    <path d="M6.8 4A2.8 2.8 0 0 0 4 6.81v1A2.8 2.8 0 0 1 6.8 5h50.4A2.8 2.8 0 0 1 60 7.81v-1A2.8 2.8 0 0 0 57.2 4H6.8z" fill="#F9F5D7" opacity=".1"/>
</svg>
