<svg xmlns="http://www.w3.org/2000/svg" width="64" height="64" viewBox="0 0 16.93 16.93">
    <path d="M12.555 5.204c-.3.825-1.063 1.528-1.063 1.528.436.122.545 0 .545 0-.218.54-1.036 1.163-1.036 1.163.41.081.9-.08.9-.08-.11.54-1.363.92-1.363.92.436.216 1.281 0 1.281 0-.3.487-1.963.919-1.963.919.49.243 1.772.135 1.772.135-.627.758-1.316 1.012-1.316 1.012s-.417.437-1.044-.32c0 0 .715-.128 1.206-.372 0 0-1.239-.303-1.538-.79 0 0 .844.217 1.28 0 0 0-1.253-.379-1.362-.92 0 0 .49.162.9.081 0 0-.82-.622-1.037-1.163 0 0 .11.122.545 0 0 0-.762-.703-1.062-1.528-.3.825-1.064 1.528-1.064 1.528.437.122.546 0 .546 0-.218.541-1.036 1.163-1.036 1.163.409.082.9-.08.9-.08-.11.54-1.363.92-1.363.92.436.216 1.28 0 1.28 0-.299.486-1.962.919-1.962.919.49.244 1.772.135 1.772.135a2.8 2.8 0 0 1-1.512.915s-.548.209-1.175-.549c0 0 .715-.127 1.206-.37 0 0-1.24-.304-1.54-.79 0 0 .846.216 1.282 0 0 0-1.254-.38-1.363-.92 0 0 .491.161.9.08 0 0-.819-.622-1.037-1.163 0 0 .11.122.546 0 0 0-.764-.703-1.063-1.528-.3.825-1.063 1.528-1.063 1.528.436.122.545 0 .545 0-.218.541-1.036 1.163-1.036 1.163.409.082.9-.08.9-.08-.109.54-1.363.92-1.363.92.436.216 1.28 0 1.28 0-.231.376-1.142.714-1.604.85v.149c.576.135 1.414.056 1.414.056-.312.376-.996.637-1.532.81v3.312c0 .62.503 1.118 1.127 1.118h12.564a1.12 1.12 0 0 0 1.126-1.118V11.52c-.796.4-1.928.549-1.928.549s.303-1.416-.324-2.173c0 0 .715-.128 1.206-.372 0 0-1.238-.302-1.538-.79 0 0 .845.217 1.281 0 0 0-1.254-.379-1.363-.92 0 0 .49.162.9.081 0 0-.818-.622-1.036-1.163 0 0 .108.122.544 0 0 0-.762-.703-1.062-1.529zm3.32 4.62c-.259.108-.524.178-.524.178.128.064.344.084.524.09v-.268zm0 .713a9.205 9.205 0 0 1-1.205.385c.264.13.8.156 1.205.155v-.54z" opacity=".2" fill-rule="evenodd"/>
    <path d="M15.875 11.084V2.442a1.12 1.12 0 0 0-1.126-1.119H2.185a1.12 1.12 0 0 0-1.127 1.119v8.642c0 .62.503 1.119 1.127 1.119h12.564a1.12 1.12 0 0 0 1.126-1.119z" fill="#066678"/>
    <path d="M12.555 4.939c-.3.825-1.063 1.528-1.063 1.528.436.122.545 0 .545 0-.218.541-1.036 1.163-1.036 1.163.41.082.9-.08.9-.08-.11.54-1.363.92-1.363.92.436.216 1.281 0 1.281 0-.3.487-1.963.92-1.963.92.49.243 1.772.135 1.772.135-.627.757-1.316 1.011-1.316 1.011s-.417.437-1.044-.32c0 0 .715-.128 1.206-.371 0 0-1.239-.304-1.538-.79 0 0 .844.216 1.28 0 0 0-1.253-.38-1.362-.92 0 0 .49.162.9.08 0 0-.82-.621-1.037-1.162 0 0 .11.121.545 0 0 0-.762-.704-1.062-1.529-.3.825-1.064 1.529-1.064 1.529.437.121.546 0 .546 0-.218.54-1.036 1.163-1.036 1.163.409.081.9-.081.9-.081-.11.54-1.363.92-1.363.92.436.216 1.28 0 1.28 0-.299.486-1.962.92-1.962.92.49.243 1.772.135 1.772.135a2.8 2.8 0 0 1-1.512.915s-.548.208-1.175-.55c0 0 .715-.127 1.206-.37 0 0-1.24-.304-1.54-.79 0 0 .846.216 1.282 0 0 0-1.254-.38-1.363-.92 0 0 .491.162.9.08 0 0-.819-.621-1.037-1.162 0 0 .11.121.546 0 0 0-.764-.704-1.063-1.529-.3.825-1.063 1.529-1.063 1.529.436.121.545 0 .545 0-.218.54-1.036 1.163-1.036 1.163.409.081.9-.081.9-.081-.109.54-1.363.92-1.363.92.436.216 1.28 0 1.28 0-.231.376-1.142.715-1.604.851v.148c.576.135 1.414.056 1.414.056-.312.377-.996.638-1.532.811v3.311c0 .62.503 1.118 1.127 1.118h12.564a1.12 1.12 0 0 0 1.126-1.118v-3.236c-.796.399-1.928.548-1.928.548s.303-1.415-.324-2.173c0 0 .715-.128 1.206-.371 0 0-1.238-.303-1.538-.79 0 0 .845.216 1.281 0 0 0-1.254-.38-1.363-.92 0 0 .49.162.9.08 0 0-.818-.622-1.036-1.163 0 0 .108.122.544 0 0 0-.762-.703-1.062-1.528zm3.32 4.62c-.259.108-.524.179-.524.179.128.063.344.084.524.089v-.268zm0 .713a9.205 9.205 0 0 1-1.205.385c.264.131.8.157 1.205.155v-.54z" fill="#066678" fill-rule="evenodd"/>
    <path fill="#7F7061" d="M10.58 12.963h1.058v2.646H10.58z"/>
    <path d="M15.875 12.365V7.197c0-.234-.015-.847-.015-.847l-.795.001H9.806c-.449 0-.81.377-.81.845v5.168c0 .468.361.845.81.845h5.259c.224 0 .795.02.795.02s.015-.63.015-.864z" opacity=".2"/>
    <path d="M15.875 12.1V6.932c0-.234-.015-.847-.015-.847l-.795.001H9.806c-.449 0-.81.377-.81.845v5.168c0 .468.361.845.81.845h5.259c.224 0 .795.02.795.02s.015-.63.015-.864z" fill="#73C48F"/>
    <path d="M15.875 7.144h-5.18c-.486 0-.905.323-.905.758v3.775c0 .435.419.758.904.758h5.181m0-.265h-5.18c-.371 0-.64-.234-.64-.493V7.902c0-.259.269-.493.64-.493h5.18" opacity=".2"/>
    <path d="M2.185 1.323A1.12 1.12 0 0 0 1.058 2.44v.265c0-.62.503-1.119 1.127-1.119h12.563a1.12 1.12 0 0 1 1.127 1.119V2.44a1.12 1.12 0 0 0-1.127-1.118H2.185z" opacity=".2" fill="#F9F5D7"/>
    <path d="M15.875 6.88h-5.18c-.486 0-.905.323-.905.757v3.776c0 .434.419.758.904.758h5.181m0-.265h-5.18c-.371 0-.64-.235-.64-.493V7.637c0-.258.269-.493.64-.493h5.18" fill="#F9F5D7"/>
</svg>
