<svg xmlns="http://www.w3.org/2000/svg" width="64" height="64">
    <path d="M56.898 12a4.986 5 0 0 1-4.955 4.007H24.021s-2.165.068-4.067.863c-1.902.795-2.914 1.137-2.914 4.136 0 .37.016.696.047.992.22-2.085 1.203-2.433 2.867-3.128 1.902-.794 4.067-.862 4.067-.862h27.922A4.986 5 0 0 0 56.898 12zM7.115 22.006c-.023.33-.047.66-.047 1 0 6.999 4.972 11.656 9.053 13.362 4.081 1.703 7.9 1.635 7.9 1.635h15.956s2.164.068 4.067.864c1.663.694 2.646 1.042 2.866 3.128.031-.296.047-.622.047-.992 0-3-1.013-3.342-2.913-4.135-1.903-.796-4.067-.864-4.067-.864H24.02s-3.819.068-7.9-1.636c-3.883-1.622-8.56-5.92-9.006-12.362zm49.767 19.997c-.447 6.44-5.124 10.74-9.005 12.361-4.083 1.704-7.9 1.636-7.9 1.636H12.055a4.986 5 0 0 1-4.956-3.991 4.986 5 0 0 0 4.955 5.99h27.922s3.817.069 7.9-1.635c4.08-1.706 9.053-6.363 9.053-13.362 0-.34-.024-.67-.048-1z" opacity=".2" fill-rule="evenodd"/>
    <path d="M12.064 52.007h27.91s11.962 0 11.962-10.004C51.936 32 39.974 32 39.974 32H24.026s-11.962 0-11.962-10.003c0-10.004 11.962-10.004 11.962-10.004h27.91" fill="none" stroke="#7CB668" stroke-width="9.986" stroke-linecap="round" stroke-linejoin="round"/>
    <path d="M24.022 6.5s-3.82-.073-7.9 1.651c-4.082 1.724-9.054 6.437-9.054 13.514 0 .167.015.328.023.492.24-6.784 5.051-11.314 9.03-12.994 4.081-1.724 7.901-1.651 7.901-1.651h27.925a4.987 5.055 0 0 1 5.028 4.548 4.987 5.055 0 0 0-5.028-5.56H24.022zm-6.934 16.184a9.9 9.9 0 0 0-.047 1.003c0 .19.016.34.024.51.007-.167.008-.351.023-.5.22 2.11 1.203 2.456 2.867 3.158 1.902.805 4.067.877 4.067.877H39.98s3.818-.072 7.9 1.65c3.979 1.682 8.79 6.21 9.03 12.993.01-.163.024-.323.024-.49 0-7.077-4.972-11.789-9.053-13.513-4.083-1.723-7.901-1.651-7.901-1.651H24.022s-2.165-.072-4.067-.877c-1.664-.702-2.647-1.05-2.867-3.16zm29.824 20.22c-.22 2.11-1.202 2.458-2.865 3.16-1.903.805-4.067.877-4.067.877H12.054a4.987 5.055 0 0 0-5.03 5.559 4.987 5.055 0 0 1 5.03-4.548H39.98s2.164-.072 4.067-.877c1.663-.701 2.646-1.049 2.865-3.158.015.149.015.334.023.5.008-.17.024-.32.024-.51 0-.374-.017-.705-.047-1.003z" opacity=".2" fill="#F9F5D7" fill-rule="evenodd"/>
</svg>
