<svg xmlns="http://www.w3.org/2000/svg" width="64" height="64">
    <circle cx="32" cy="33" r="28" opacity=".2"/>
    <path d="M32 4a28 28 0 0 0-4.238.345C25.139 6.767 6.37 25.404 4.388 27.557c-.025.157-.048.315-.07.473a65.54 65.54 0 0 0 2.392-2.076c.48-.435 1.073-.95 1.318-1.145.244-.195.695-.586 1-.867a153.9 153.9 0 0 1 3.44-3.049c.289-.24 1.408-1.225 2.489-2.188 1.08-.962 2.477-2.192 3.103-2.734.627-.542 1.926-1.724 2.888-2.625 1.854-1.738 7.583-6.819 8.22-7.29.207-.154.4-.258.428-.23.063.063-.298.668-1.572 2.634-.534.824-2.62 4.059-4.637 7.186l-5.562 8.621-5.119 7.935c-1.773 2.75-4.087 6.333-5.14 7.966a73.575 73.575 0 0 0-1.482 2.381 28 28 0 0 0 23.9 17.35c.8.009-.449-.054.8.009 3.5-13.14 6.417-35.807 14.118-51.907.324-.678-.866-.827-.712-1.168A28 28 0 0 0 32 4z" fill="#A04A73"/>
    <path d="M30.266 4.101a28 28 0 0 0-1.796.15 28 28 0 0 1 1.796-.15z" fill="#B7BB25"/>
    <path d="M27.746 5.361A28 28 0 0 0 4.633 27.303c.568-.604 1.887-1.943 3.73-3.795-1.849 1.857-3.163 3.196-3.73 3.8a28 28 0 0 0-.237 1.237C6.395 26.376 25.097 7.81 27.746 5.36zm1.85 1.465c-.028-.028-.22.077-.428.23-.636.472-6.366 5.551-8.22 7.29-.962.901-2.26 2.083-2.887 2.625-.627.542-2.024 1.772-3.104 2.734s-2.2 1.947-2.488 2.188c-.588.49-2.592 2.266-3.44 3.048-.305.282-.757.673-1.002.868-.244.195-.837.71-1.318 1.146a65.29 65.29 0 0 1-2.393 2.074 28 28 0 0 0-.296 3.332A28 28 0 0 0 6.09 42.54l-.006.01c.016.04.036.077.053.117a28 28 0 0 0 .207.463c.327-.543.69-1.135 1.222-1.961 1.054-1.633 3.368-5.216 5.141-7.965l5.117-7.935c1.042-1.615 3.546-5.494 5.563-8.622 2.016-3.127 4.102-6.362 4.636-7.187 1.274-1.965 1.635-2.57 1.573-2.633z" opacity=".2"/>
    <path d="M27.745 4.36A28 28 0 0 0 4.396 27.547c1.999-2.169 20.7-20.736 23.35-23.185z" fill="#7CB668"/>
    <path d="M4.396 27.546l-.008.01a28 28 0 0 0-.063.41 28 28 0 0 1 .071-.42zM41.084 5.567v.005a28 28 0 0 1 .705.233 28 28 0 0 0-.705-.238zM41.79 5.805a28 28 0 0 1 2.137.916 28 28 0 0 0-2.138-.916zM43.927 6.72a28 28 0 0 1 .26.116l.003-.003a28 28 0 0 0-.263-.112z" fill="#B7BB25"/>
    <path d="M29.596 5.827c-.028-.029-.22.075-.429.23-.636.47-6.365 5.55-8.22 7.29-.96.9-2.26 2.082-2.887 2.624-.626.542-2.023 1.772-3.103 2.734-1.08.963-2.2 1.947-2.489 2.188-.587.49-2.592 2.267-3.44 3.049-.305.281-.756.672-1 .867-.245.195-.837.71-1.318 1.145a65.536 65.536 0 0 1-2.393 2.076A28 28 0 0 0 4 32a28 28 0 0 0 3.593 13.691v-.066a28 28 0 0 1-.252-.423 28 28 0 0 1-.533-1.108 28 28 0 0 1-.724-1.545c.347-.587.834-1.379 1.482-2.381l5.14-7.966 5.119-7.935 5.562-8.621a7829.64 7829.64 0 0 1 4.637-7.186c1.274-1.966 1.635-2.571 1.572-2.633z" fill="#7CB668"/>
    <path d="M59.817 34.912L34.882 59.847a28 28 0 0 0 24.935-24.935z" fill="#79740D"/>
    <path d="M44.187 6.836c-.154.34-.264.595-.588 1.271-7.701 16.1-12.556 33.444-13.357 47.71-.074 1.305-.172 2.91-.219 3.562l-.038.509A28 28 0 0 0 32 60a27.985 27.985 0 0 0 2.882-.153l24.935-24.935A28 28 0 0 0 60 32 28 28 0 0 0 44.187 6.836zm-9.305 53.01C48.02 58.472 58.41 48.1 59.809 34.965 58.409 48.1 48.02 58.471 34.882 59.847zm-4.897.042v.01z" fill="#B7BB25"/>
    <path d="M32 4A28 28 0 0 0 4 32a28 28 0 0 0 .018.492A28 28 0 0 1 32 5a28 28 0 0 1 27.975 27.492A28 28 0 0 0 60 32 28 28 0 0 0 32 4z" opacity=".2" fill="#F9F5D7"/>
    <path d="M59.816 34.912L34.883 59.848a28 28 0 0 0 1.185-.186L59.66 36.068a28 28 0 0 0 .156-1.156z" opacity=".2"/>
</svg>
