<svg xmlns="http://www.w3.org/2000/svg" width="64" height="64" version="1">
    <path d="M6.8 5A2.794 2.794 0 0 0 4 7.8v50.4C4 59.751 5.249 61 6.8 61H21V22h19V5zM43 5v56h14.2c1.551 0 2.8-1.249 2.8-2.8V7.8C60 6.249 58.751 5 57.2 5zM24 25v36h16V25z" opacity=".2"/>
    <path d="M6.8 4A2.794 2.794 0 0 0 4 6.8v50.4C4 58.751 5.249 60 6.8 60H21V21h19V4zM43 4v56h14.2c1.551 0 2.8-1.249 2.8-2.8V6.8C60 5.249 58.751 4 57.2 4zM24 24v36h16V24z" fill="#4F8660"/>
    <path d="M6.8 4C5.25 4 4 5.25 4 6.8v1C4 6.25 5.25 5 6.8 5H40V4H6.8zM43 4v1h14.2C58.75 5 60 6.25 60 7.8v-1C60 5.25 58.75 4 57.2 4H43zM24 24v1h16v-1H24z" opacity=".2" fill="#F9F5D7"/>
</svg>
