<svg xmlns="http://www.w3.org/2000/svg" width="64" height="64">
    <path d="M22.2 33h19.6c4.654 0 10.034 4.043 8.4 8.4L46 52.6c-1.634 4.357-3.746 8.4-8.4 8.4H26.4c-4.654 0-6.766-4.043-8.4-8.4l-4.2-11.2c-1.634-4.357 3.746-8.4 8.4-8.4z" opacity=".2"/>
    <path d="M22.2 32h19.6c4.654 0 10.034 4.043 8.4 8.4L46 51.6c-1.634 4.357-3.746 8.4-8.4 8.4H26.4c-4.654 0-6.766-4.043-8.4-8.4l-4.2-11.2c-1.634-4.357 3.746-8.4 8.4-8.4z" fill="#9D0006"/>
    <path d="M32 30a4.444 2.222 0 0 0-2.533.396 4.444 2.222 0 0 0-2.646-.056 4.444 2.222 0 0 0-2.237.71 4.444 2.222 0 0 0-2.584.29 4.444 2.222 0 0 0-1.797.976 4.444 2.222 0 0 0-2.344.614 4.444 2.222 0 0 0-1.233 1.177A4.444 2.222 0 0 0 14.68 35a4.444 2.222 0 0 0-.578 1.295 4.444 2.222 0 0 0-1.42 1.116 4.444 2.222 0 0 0 .114 1.325A4.444 2.222 0 0 0 12 40a4.444 2.222 0 0 0 .795 1.267 4.444 2.222 0 0 0-.114 1.322 4.444 2.222 0 0 0 1.42 1.12A4.444 2.222 0 0 0 14.679 45a4.444 2.222 0 0 0 1.953.898 4.444 2.222 0 0 0 1.227 1.172 4.444 2.222 0 0 0 2.352.617A4.444 2.222 0 0 0 22 48.66a4.444 2.222 0 0 0 2.592.29 4.444 2.222 0 0 0 2.23.709 4.444 2.222 0 0 0 2.653-.056A4.444 2.222 0 0 0 32 50a4.444 2.222 0 0 0 2.533-.396 4.444 2.222 0 0 0 2.646.056 4.444 2.222 0 0 0 2.237-.71A4.444 2.222 0 0 0 42 48.66a4.444 2.222 0 0 0 1.797-.976 4.444 2.222 0 0 0 2.344-.614 4.444 2.222 0 0 0 1.233-1.177A4.444 2.222 0 0 0 49.32 45a4.444 2.222 0 0 0 .578-1.295 4.444 2.222 0 0 0 1.42-1.116 4.444 2.222 0 0 0-.114-1.325A4.444 2.222 0 0 0 52 40a4.444 2.222 0 0 0-.795-1.267 4.444 2.222 0 0 0 .114-1.322 4.444 2.222 0 0 0-1.42-1.12A4.444 2.222 0 0 0 49.321 35a4.444 2.222 0 0 0-1.953-.898 4.444 2.222 0 0 0-1.227-1.172 4.444 2.222 0 0 0-2.352-.617A4.444 2.222 0 0 0 42 31.34a4.444 2.222 0 0 0-2.592-.29 4.444 2.222 0 0 0-2.23-.709 4.444 2.222 0 0 0-2.653.056A4.444 2.222 0 0 0 32 30z" opacity=".2"/>
    <path d="M32 29a4.444 2.222 0 0 0-2.533.396 4.444 2.222 0 0 0-2.646-.056 4.444 2.222 0 0 0-2.237.71 4.444 2.222 0 0 0-2.584.29 4.444 2.222 0 0 0-1.797.976 4.444 2.222 0 0 0-2.344.614 4.444 2.222 0 0 0-1.233 1.177A4.444 2.222 0 0 0 14.68 34a4.444 2.222 0 0 0-.578 1.295 4.444 2.222 0 0 0-1.42 1.116 4.444 2.222 0 0 0 .114 1.325A4.444 2.222 0 0 0 12 39a4.444 2.222 0 0 0 .795 1.267 4.444 2.222 0 0 0-.114 1.322 4.444 2.222 0 0 0 1.42 1.12A4.444 2.222 0 0 0 14.679 44a4.444 2.222 0 0 0 1.953.898 4.444 2.222 0 0 0 1.227 1.172 4.444 2.222 0 0 0 2.352.617A4.444 2.222 0 0 0 22 47.66a4.444 2.222 0 0 0 2.592.29 4.444 2.222 0 0 0 2.23.709 4.444 2.222 0 0 0 2.653-.056A4.444 2.222 0 0 0 32 49a4.444 2.222 0 0 0 2.533-.396 4.444 2.222 0 0 0 2.646.056 4.444 2.222 0 0 0 2.237-.71A4.444 2.222 0 0 0 42 47.66a4.444 2.222 0 0 0 1.797-.976 4.444 2.222 0 0 0 2.344-.614 4.444 2.222 0 0 0 1.233-1.177A4.444 2.222 0 0 0 49.32 44a4.444 2.222 0 0 0 .578-1.295 4.444 2.222 0 0 0 1.42-1.116 4.444 2.222 0 0 0-.114-1.325A4.444 2.222 0 0 0 52 39a4.444 2.222 0 0 0-.795-1.267 4.444 2.222 0 0 0 .114-1.322 4.444 2.222 0 0 0-1.42-1.12A4.444 2.222 0 0 0 49.321 34a4.444 2.222 0 0 0-1.953-.898 4.444 2.222 0 0 0-1.227-1.172 4.444 2.222 0 0 0-2.352-.617A4.444 2.222 0 0 0 42 30.34a4.444 2.222 0 0 0-2.592-.29 4.444 2.222 0 0 0-2.23-.709 4.444 2.222 0 0 0-2.653.056A4.444 2.222 0 0 0 32 29z" fill="#CB241D"/>
    <path d="M32 29a4.444 2.222 0 0 0-2.533.396 4.444 2.222 0 0 0-2.645-.056 4.444 2.222 0 0 0-2.238.709 4.444 2.222 0 0 0-2.584.29 4.444 2.222 0 0 0-1.797.977 4.444 2.222 0 0 0-2.344.614 4.444 2.222 0 0 0-1.232 1.177 4.444 2.222 0 0 0-1.95.893 4.444 2.222 0 0 0-.575 1.295 4.444 2.222 0 0 0-1.42 1.115 4.444 2.222 0 0 0-.034 1.076 4.444 2.222 0 0 1 .034-.076 4.444 2.222 0 0 1 1.42-1.115A4.444 2.222 0 0 1 14.678 35a4.444 2.222 0 0 1 1.949-.893 4.444 2.222 0 0 1 1.232-1.177 4.444 2.222 0 0 1 2.344-.614A4.444 2.222 0 0 1 22 31.34a4.444 2.222 0 0 1 2.584-.291 4.444 2.222 0 0 1 2.238-.71 4.444 2.222 0 0 1 2.645.057A4.444 2.222 0 0 1 32 30a4.444 2.222 0 0 1 2.525.396 4.444 2.222 0 0 1 2.653-.056 4.444 2.222 0 0 1 2.23.709 4.444 2.222 0 0 1 2.592.29 4.444 2.222 0 0 1 1.79.974 4.444 2.222 0 0 1 2.35.617 4.444 2.222 0 0 1 1.23 1.172 4.444 2.222 0 0 1 1.952.898 4.444 2.222 0 0 1 .576 1.291 4.444 2.222 0 0 1 1.42 1.12 4.444 2.222 0 0 1 .032.071 4.444 2.222 0 0 0-.032-1.072 4.444 2.222 0 0 0-1.42-1.119A4.444 2.222 0 0 0 49.322 34a4.444 2.222 0 0 0-1.953-.898 4.444 2.222 0 0 0-1.228-1.172 4.444 2.222 0 0 0-2.352-.617A4.444 2.222 0 0 0 42 30.34a4.444 2.222 0 0 0-2.592-.291 4.444 2.222 0 0 0-2.23-.71 4.444 2.222 0 0 0-2.653.057A4.444 2.222 0 0 0 32 29zm19.46 8.941a4.444 2.222 0 0 1-.255.791 4.444 2.222 0 0 1 .676.768A4.444 2.222 0 0 0 52 39a4.444 2.222 0 0 0-.54-1.059zm-38.923.006A4.444 2.222 0 0 0 12 39a4.444 2.222 0 0 0 .12.5 4.444 2.222 0 0 1 .675-.764 4.444 2.222 0 0 1-.258-.789zm38.926 3.106a4.444 2.222 0 0 1-.258.21 4.444 2.222 0 0 1 .147.25 4.444 2.222 0 0 0 .11-.46zm-38.924.006a4.444 2.222 0 0 0 .111.459 4.444 2.222 0 0 1 .145-.25 4.444 2.222 0 0 1-.256-.21z" opacity=".2" fill="#F9F5D7"/>
    <ellipse cx="38" cy="42" rx="3" ry="2" opacity=".2"/>
    <ellipse cx="38" cy="41" rx="3" ry="2" fill="#F9BD2E"/>
    <ellipse cx="45" cy="39" rx="3" ry="2" opacity=".2"/>
    <ellipse cx="45" cy="38" rx="3" ry="2" fill="#7CB668"/>
    <ellipse cx="32" cy="35" rx="6" ry="3" fill="#3A393A"/>
    <path d="M32 33V15.2" fill="none" stroke="#F9F5D7" stroke-width="6" stroke-linecap="round"/>
    <circle cx="32" cy="13" r="9" opacity=".2"/>
    <circle cx="32" cy="12" r="9" fill="#CB241D"/>
    <path d="M32 3a9 9 0 0 0-9 9 9 9 0 0 0 .021.576A9 9 0 0 1 32 4a9 9 0 0 1 8.979 8.424A9 9 0 0 0 41 12a9 9 0 0 0-9-9z" opacity=".2" fill="#F9F5D7"/>
</svg>
