<svg xmlns="http://www.w3.org/2000/svg" width="64" height="64" version="1">
    <path d="M59.869 31.998a4.953 4.394 0 0 1-2.344 2.809l-23.048 11.8L11.43 58.413A4.953 4.394 0 0 1 4 54.607v2a4.953 4.394 0 0 0 7.43 3.805l23.046-11.805 23.046-11.801a4.953 4.394 0 0 0 2.344-4.809z" opacity=".2"/>
    <path d="M9.1 4.002A4.953 4.394 0 0 0 4 8.393v47.213a4.953 4.394 0 0 0 7.432 3.806l23.044-11.806 23.046-11.802a4.953 4.394 0 0 0 0-7.612l-23.046-11.8L11.432 4.587A4.953 4.394 0 0 0 9.099 4z" fill="#8F3F71"/>
    <path d="M29.814 21A2.123 1.883 0 0 1 32 22.882v20.234a2.123 1.883 0 0 1-3.185 1.631l-9.877-5.06-9.877-5.058a2.123 1.883 0 0 1 0-3.262l9.877-5.057 9.876-5.06a2.123 1.883 0 0 1 1-.25z" opacity=".2"/>
    <path d="M29.814 20A2.123 1.883 0 0 1 32 21.882v20.234a2.123 1.883 0 0 1-3.185 1.631l-9.877-5.06-9.877-5.058a2.123 1.883 0 0 1 0-3.262l9.877-5.057 9.876-5.06a2.123 1.883 0 0 1 1-.25z" fill="#F9F5D7"/>
    <path d="M9.102 4A4.953 4.394 0 0 0 4 8.395v.998a4.953 4.394 0 0 1 5.102-4.39 4.953 4.394 0 0 1 2.328.587l23.047 11.808 23.046 11.797a4.953 4.394 0 0 1 2.438 3.319 4.953 4.394 0 0 0-2.438-4.323L34.477 16.395 11.43 4.585A4.953 4.394 0 0 0 9.102 4z" opacity=".1" fill="#F9F5D7"/>
</svg>
