<svg xmlns="http://www.w3.org/2000/svg" width="64" height="64" version="1">
    <rect width="56" height="56" x="4" y="4" rx="28" ry="28" opacity=".2"/>
    <rect width="56" height="56" x="-59" y="-60" rx="28" ry="28" transform="matrix(0 -1 -1 0 0 0)" fill="#BE4C1D"/>
    <path d="M32.2 3c-15.513 0-28 12.488-28 28 0 .114.01.224.017.336C4.568 16.134 16.91 4 32.199 4h.002c15.286 0 27.627 12.128 27.985 27.324.005-.108.015-.215.015-.324 0-15.512-12.488-28-28-28H32.2z" opacity=".1" fill="#F9F5D7"/>
    <path d="M33.932 10.094a22 22 0 0 0-21.578 12.46l12.033 3.225a10 10 0 0 1 6.317-3.641l3.228-12.044zm7.726 2.074l-3.224 12.033a10 10 0 0 1 3.641 6.318l12.044 3.227a22 22 0 0 0-12.462-21.578zM10.28 30.281a22 22 0 0 0 12.462 21.578l3.224-12.032a10 10 0 0 1-3.642-6.318L10.28 30.28zm29.732 7.967a10 10 0 0 1-6.317 3.64l-3.228 12.045a22 22 0 0 0 21.578-12.461l-12.032-3.225z" opacity=".2"/>
    <path d="M33.932 9.08a22 22 0 0 0-21.578 12.462l12.033 3.224a10 10 0 0 1 6.317-3.641l3.228-12.044zm7.726 2.075l-3.224 12.032a10 10 0 0 1 3.641 6.318l12.044 3.227a22 22 0 0 0-12.462-21.58zM10.28 29.268a22 22 0 0 0 12.461 21.578l3.225-12.033a10 10 0 0 1-3.642-6.32L10.28 29.267zm29.732 7.967a10 10 0 0 1-6.317 3.641L30.467 52.92a22 22 0 0 0 21.578-12.461l-12.032-3.224z" fill="#F9F5D7"/>
</svg>
