<svg xmlns="http://www.w3.org/2000/svg" width="64" height="64" version="1">
    <rect width="56" height="22" x="4" y="40" rx="5.6" ry="5.5" opacity=".2"/>
    <rect width="56" height="22" x="4" y="39" rx="5.6" ry="5.5" fill="#504945"/>
    <path d="M9.6 39C6.497 39 4 41.453 4 44.5v1C4 42.453 6.497 40 9.6 40h44.8c3.103 0 5.6 2.453 5.6 5.5v-1c0-3.047-2.497-5.5-5.6-5.5H9.6z" fill="#F9F5D7" opacity=".1"/>
    <path d="M24.67 5l-1.649 4.823-3.873-3.362-1.356 3.957-2.93-2.545-1.442 4.214-2.846-1.39-.312 4.765-3.973-1.941-.33 5.04L2 17.778l1.01 4.991L10 39h44l6.99-16.23L62 17.777l-3.96.783-.329-5.04-3.973 1.941-.312-4.765-2.846 1.39-1.443-4.214-2.93 2.545-1.355-3.957-3.873 3.362L39.329 5l-3.872 3.361-.589 2.17V9.286L32.011 5.05 32 5.066l-.011-.016-2.857 4.235v1.247l-.589-2.17z" fill="#3A393A"/>
    <path d="M24.67 5L23.02 9.822l-3.873-3.361-1.355 3.957-2.93-2.545-1.443 4.213-2.846-1.389-.312 4.766-3.973-1.942-.33 5.04L2 17.777l.21 1.041 3.749.743.33-5.04 3.973 1.942.312-4.766 2.846 1.389 1.443-4.213 2.93 2.545 1.355-3.957 3.873 3.361L24.67 6l3.873 3.361.588 2.17v-1l-.588-2.17L24.67 5zm14.66 0l-3.873 3.361-.588 2.17v1l.588-2.17L39.33 6l1.649 4.822 3.873-3.361 1.355 3.957 2.93-2.545 1.443 4.213 2.846-1.389.312 4.766 3.973-1.942.33 5.04 3.748-.743.211-1.04-3.959.783-.33-5.04-3.973 1.942-.312-4.766-2.846 1.389-1.443-4.213-2.93 2.545-1.355-3.957-3.873 3.361L39.33 5zm-7.342.049l-2.857 4.236v1l2.857-4.236.012.017.012-.017 2.857 4.236v-1L32.012 5.05 32 5.066l-.012-.017z" opacity=".1" fill="#F9F5D7"/>
    <path d="M38.957 25.958A3 3 0 0 0 36 29v8.27a3 3 0 0 0 0 .816v2.023a3 3 0 0 0 0 1.059V49a3 3 0 1 0 6 0v-3.38l4.754 5.368a3 3 0 1 0 4.492-3.976l-7.012-7.91 7.036-8.141a3 3 0 0 0-2.25-4.992 3 3 0 0 0-2.29 1.07L42 32.513V29a3 3 0 0 0-3.043-3.043zM15 26a3 3 0 1 0 0 6h5.652C17.166 37.085 16 42.07 16 49a3 3 0 1 0 6 0c0-8.524.924-11.397 7.168-17.926A3 3 0 0 0 27 26.001z" opacity=".2"/>
    <path d="M15 28h12c-6.526 6.823-8 11.143-8 20M39 28v20" fill="none" stroke="#F9BD2E" stroke-width="6" stroke-linecap="round" stroke-linejoin="round"/>
    <path d="M32 24L20 4h24z" opacity=".2"/>
    <path d="M49 28L39 39.571M49 48L39 36.714" fill="none" stroke="#F9BD2E" stroke-width="6" stroke-linecap="round" stroke-linejoin="round"/>
    <path d="M32 23L20 3h24z" fill="#FA4934"/>
    <path d="M20 3l.6 1h22.8l.6-1H20z" opacity=".1" fill="#F9F5D7"/>
</svg>
