<svg xmlns="http://www.w3.org/2000/svg" width="64" height="64" version="1">
    <rect width="56" height="56" x="4" y="5" rx="2.8" ry="2.8" opacity=".2"/>
    <rect width="56" height="56" x="4" y="4" rx="2.8" ry="2.8" fill="#448588"/>
    <path d="M26.73 14.807l-1.73 1 2.394 4.148C23.018 22.07 23 27.002 23 27.002h18s-.02-4.933-4.394-7.047L39 15.807l-1.73-1-2.59 4.484a12.117 12.117 0 0 0-2.676-.289c-1.008 0-1.888.111-2.684.289l-2.59-4.484zm1.274 8.195c.554 0 .996.446.996.996s-.448 1.004-.996 1.004a1 1 0 0 1 0-2zm8 0c.554 0 .996.446.996.996s-.448 1.004-.996 1.004a1 1 0 0 1 0-2zm8.084 4.997C42.938 28 42 29.06 42 30.365v9.261c0 1.306.938 2.372 2.088 2.372 1.15 0 1.912-1.066 1.912-2.372v-9.26c0-1.309-.76-2.369-1.912-2.369M23 28v17c0 .472.528 1 1 1h3v3.75c0 1.245.792 2.25 2 2.25 1.2 0 2.04-1.007 2-2.25V46h2v3.751c0 1.244.792 2.25 2 2.25 1.2 0 2-1.023 2-2.25V46h3c.472 0 1-.528 1-1V28zm-2.912 0C18.938 28 18 29.06 18 30.365v9.261c0 1.306.937 2.372 2.088 2.372 1.15 0 1.912-1.066 1.912-2.372v-9.26c0-1.309-.76-2.369-1.912-2.369M19.168 27.077" opacity=".2"/>
    <path d="M26.73 13.805l-1.73 1 2.394 4.148C23.018 21.067 23 26 23 26h18s-.02-4.933-4.394-7.047L39 14.805l-1.73-1-2.59 4.484A12.117 12.117 0 0 0 32.004 18c-1.008 0-1.888.111-2.684.289l-2.59-4.484zM28.004 22c.554 0 .996.446.996.996S28.552 24 28.004 24a1 1 0 0 1 0-2zm8 0c.554 0 .996.446.996.996S36.552 24 36.004 24a1 1 0 0 1 0-2zm8.084 4.997c-1.15 0-2.088 1.06-2.088 2.366v9.261c0 1.306.938 2.372 2.088 2.372 1.15 0 1.912-1.066 1.912-2.372v-9.26c0-1.309-.76-2.369-1.912-2.369M23 26.997v17c0 .472.528 1 1 1h3v3.75c0 1.245.792 2.25 2 2.25 1.2 0 2.04-1.007 2-2.25v-3.75h2v3.751c0 1.244.792 2.25 2 2.25 1.2 0 2-1.023 2-2.25v-3.75h3c.472 0 1-.528 1-1v-17zm-2.912 0c-1.15 0-2.088 1.06-2.088 2.366v9.261c0 1.306.937 2.372 2.088 2.372 1.15 0 1.912-1.066 1.912-2.372v-9.26c0-1.309-.76-2.369-1.912-2.369M19.168 26.075" fill="#F9F5D7"/>
    <path d="M6.8 4C5.25 4 4 5.25 4 6.8v1C4 6.25 5.25 5 6.8 5h50.4C58.75 5 60 6.25 60 7.8v-1C60 5.25 58.75 4 57.2 4H6.8z" opacity=".2" fill="#F9F5D7"/>
</svg>
