<svg xmlns="http://www.w3.org/2000/svg" width="64" height="64" version="1">
    <rect width="56" height="56" x="4" y="5" rx="16.8" ry="16.8" opacity=".2"/>
    <rect width="56" height="56" x="4" y="4" rx="16.8" ry="16.8" fill="#C77089"/>
    <path d="M32 15a18 18 0 0 0-6 1.05V39c0 1.108-.892 2-2 2s-2-.892-2-2V18.05A18 18 0 0 0 14 33a18 18 0 0 0 18 18 18 18 0 0 0 18-18 18 18 0 0 0-18-18zm-1.114 10a.875.901 0 0 1 .418.117l6.126 3.546 6.124 3.55a.875.901 0 0 1 0 1.572l-6.124 3.55-6.126 3.546A.875.901 0 0 1 30 40.097V25.901a.875.901 0 0 1 .886-.902z" opacity=".2"/>
    <path d="M32 14a18 18 0 0 0-6 1.05V38c0 1.109-.892 2-2 2s-2-.891-2-2V17.05A18 18 0 0 0 14 32a18 18 0 0 0 18 18 18 18 0 0 0 18-18 18 18 0 0 0-18-18zm-1.114 10a.875.901 0 0 1 .418.118l6.126 3.546 6.124 3.55a.875.901 0 0 1 0 1.572l-6.124 3.55-6.126 3.546A.875.901 0 0 1 30 39.098V24.902a.875.901 0 0 1 .886-.902z" fill="#F9F5D7"/>
    <path d="M20.8 4C11.495 4 4 11.494 4 20.8v1C4 12.495 11.494 5 20.8 5h22.4C52.505 5 60 12.494 60 21.8v-1C60 11.495 52.506 4 43.2 4H20.8z" fill="#F9F5D7" opacity=".2"/>
</svg>
