<svg xmlns="http://www.w3.org/2000/svg" width="64" height="64" version="1">
    <rect width="56" height="56" x="4" y="5" rx="2.8" ry="2.8" opacity=".2"/>
    <rect width="56" height="56" x="4" y="4" rx="2.8" ry="2.8" fill="#504945"/>
    <path d="M19.977 46.021A17 17 0 0 1 16.3 27.474 17 17 0 0 1 32.042 17 17 17 0 0 1 47.73 27.556a17 17 0 0 1-3.774 18.528" opacity=".3" fill="none" stroke="#151819" stroke-width="6" stroke-linecap="round" stroke-linejoin="round"/>
    <path d="M19.977 47.022a17 17 0 0 1-4.215-17.062A17 17 0 0 1 28.9 18.286" opacity=".2" fill="none" stroke="#151819" stroke-width="6" stroke-linecap="round" stroke-linejoin="round"/>
    <path d="M19.977 46.021a17 17 0 0 1-4.215-17.062A17 17 0 0 1 28.9 17.285" fill="none" stroke="#73C48F" stroke-width="6" stroke-linecap="round" stroke-linejoin="round"/>
    <path d="M6.8 4C5.25 4 4 5.25 4 6.8v1C4 6.25 5.25 5 6.8 5h50.4C58.75 5 60 6.25 60 7.8v-1C60 5.25 58.75 4 57.2 4H6.8z" opacity=".1" fill="#F9F5D7"/>
    <path d="M28.86 14.277a3 3 0 0 0-.506.059A20.015 20.015 0 0 0 12.896 28.07a19.942 19.942 0 0 0-.884 6.301c.055-1.775.343-3.558.884-5.3a20.015 20.015 0 0 1 15.458-13.735 3 3 0 0 1 .505-.059 3 3 0 0 1 3.041 2.5 3 3 0 0 0-3.04-3.5zM18.005 34.533A13.983 13.983 0 0 0 22.098 44.9a3 3 0 0 1 .877 1.67 3 3 0 0 0-.877-2.67 13.984 13.984 0 0 1-4.092-9.367z" opacity=".2" fill="#F9F5D7" fill-rule="evenodd"/>
</svg>
