<svg xmlns="http://www.w3.org/2000/svg" width="64" height="64" version="1">
    <path d="M59.766 29.026c-.21.514-.55.98-1.07 1.28L18.266 53.65a2.589 2.589 0 0 1-3.543-.948L4.348 34.732c-.048-.084-.078-.174-.117-.262-.293.716-.301 1.538.117 2.262l10.375 17.97a2.588 2.588 0 0 0 3.543.948l40.43-23.344a2.58 2.58 0 0 0 1.07-3.28z" opacity=".2"/>
    <rect width="51.876" height="25.938" x="-14.1" y="30.53" rx="2.594" ry="2.594" transform="rotate(-30)" fill="#504945"/>
    <path d="M14.794 35.75c-.672.388-.9 1.241-.513 1.913l1.4 2.425-2.424 1.4a1.4 1.4 0 0 0-.513 1.914l1.4 2.425c.388.671 1.24.9 1.912.512l2.425-1.4 1.4 2.425c.388.671 1.24.9 1.913.512l2.424-1.4c.672-.388.9-1.24.513-1.912l-1.4-2.425 2.425-1.4c.671-.388.9-1.24.512-1.912l-1.4-2.425a1.397 1.397 0 0 0-1.912-.513l-2.425 1.4-1.4-2.424a1.397 1.397 0 0 0-1.913-.513l-2.424 1.4z" opacity=".2"/>
    <path d="M14.794 34.75c-.672.388-.9 1.241-.513 1.913l1.4 2.425-2.424 1.4c-.672.387-.9 1.24-.513 1.912l1.4 2.425c.388.671 1.24.9 1.913.512l2.424-1.4 1.4 2.425c.388.672 1.241.9 1.913.512l2.425-1.4c.671-.387.9-1.24.512-1.912l-1.4-2.425 2.425-1.4c.671-.388.9-1.24.512-1.912l-1.4-2.425a1.397 1.397 0 0 0-1.912-.512l-2.424 1.402-1.4-2.424a1.397 1.397 0 0 0-1.912-.514l-2.425 1.4z" fill="#BDAD93"/>
    <g transform="rotate(-30 36.13 27.649) scale(1.99999)" opacity=".2">
        <circle cx="24.5" cy="13.5" r="1.5"/>
        <circle cx="20.5" cy="13.5" r="1.5"/>
        <circle cx="24.5" cy="17.5" r="1.5"/>
        <circle cx="20.5" cy="17.5" r="1.5"/>
    </g>
    <g transform="rotate(-30 34.26 27.148) scale(1.99999)">
        <circle cx="24.5" cy="13.5" r="1.5" fill="#FA4934"/>
        <circle cx="20.5" cy="13.5" r="1.5" fill="#FA4934"/>
        <circle cx="24.5" cy="17.5" r="1.5" fill="#D79921"/>
        <circle cx="20.5" cy="17.5" r="1.5" fill="#D79921"/>
    </g>
    <path d="M47.084 8.496a2.6 2.6 0 0 0-1.357.348L5.297 32.187a2.567 2.567 0 0 0-1.23 2.739 2.554 2.554 0 0 1 1.23-1.739l40.43-23.343c.312-.18.646-.286.98-.328a2.585 2.585 0 0 1 2.564 1.277l10.374 17.969c.141.245.22.503.27.763a2.48 2.48 0 0 0-.27-1.763L49.27 9.793a2.583 2.583 0 0 0-2.187-1.297z" opacity=".1" fill="#F9F5D7"/>
</svg>
