<svg xmlns="http://www.w3.org/2000/svg" width="64" height="64" version="1">
    <path d="M4.05 32c-.011.334-.05.662-.05 1 0 15.512 12.488 28 28 28 15.511 0 28-12.488 28-28 0-.337-.04-.665-.052-1-.528 15.042-12.775 27-27.95 27C16.826 59 4.579 47.042 4.05 32z" opacity=".2"/>
    <path d="M32 4C16.488 4 4 16.49 4 32c0 15.512 12.488 28 28 28 15.511 0 28-12.488 28-28C60 16.49 47.51 4 32 4z" fill="#F9F5D7"/>
    <path d="M32 12c-11.08 0-20 8.92-20 20s8.92 20 20 20 20-8.92 20-20-8.92-20-20-20z" fill="#97971A"/>
    <path d="M32 19c-7.756 0-14 6.245-14 14 0 7.756 6.244 14 14 14 7.755 0 14-6.244 14-14 0-7.755-6.245-14-14-14z" opacity=".2"/>
    <path d="M32 18c-7.756 0-14 6.245-14 14 0 7.756 6.244 14 14 14 7.755 0 14-6.244 14-14 0-7.755-6.245-14-14-14z" fill="#F9BD2E"/>
    <path d="M32 24c-4.432 0-8 3.568-8 8s3.568 8 8 8 8-3.568 8-8-3.568-8-8-8z" fill="#CB241D"/>
    <path d="M32 4C16.488 4 4 16.488 4 32c0 .114.011.224.018.336C4.369 17.134 16.71 5 32 5c15.29 0 27.63 12.134 27.982 27.336.007-.112.018-.222.018-.336C60 16.488 47.512 4 32 4z" opacity=".2" fill="#F9F5D7"/>
</svg>
