<svg xmlns="http://www.w3.org/2000/svg" width="64" height="64" version="1">
    <rect width="56" height="56" x="4" y="4" rx="28" ry="28" fill="#377375"/>
    <g opacity=".2">
        <path d="M32.714 39.006c-4.302-.04-8.278.136-11.73.527-6.183.7-8.72 1.01-8.886 1.094-.297.15.05.308 1.447.65.848.206 1.407.439 1.566.648.194.258.301.288.51.146.408-.276 1.38.061 2.24.776.774.643.954.715 1.146.46.064-.085.428-.157.81-.158.383-.001.82-.066.975-.146.194-.1.473-.053.905.156.343.166.906.301 1.247.301.342 0 1.12.21 1.73.465.61.255 1.863.75 2.787 1.102.923.35 2.32.936 3.106 1.302.786.367 1.514.669 1.618.671.104.002.483-.145.846-.328 1.516-.767 6.585-2.75 7.03-2.75.264 0 .535-.075.604-.167.07-.092.333-.122.59-.07.351.073.624-.02 1.116-.373.8-.575 1.915-.653 2.29-.16.325.426.535.389 1.23-.216.816-.709 1.717-1.062 2.4-.939.408.074.7.006 1.162-.27.34-.204.997-.466 1.463-.58 1.091-.268 1.197-.316 1.007-.47-.209-.168-3.512-.712-5.523-.91-4.756-.467-9.385-.721-13.686-.761zM29.66 40.06c.408-.012.737.078.737.275 0 .44-2.245 2.018-3.35 2.357-1.23.376-1.27.377-1.733-.003-.736-.603-.353-1.02 1.474-1.607.637-.204 1.383-.516 1.656-.692.32-.206.808-.319 1.216-.33zm4.965.012c.685.003 2.695.686 3.456 1.221.382.268.42.394.308 1.006-.07.384-.225.696-.343.692-.298-.01-1.778-.748-2.62-1.303-.65-.43-1.253-1.371-1.006-1.573.036-.03.107-.044.205-.043zm-9.252.11c.259.121-.443.636-1.007.737-.293.053-.638.199-.767.326s-.453.322-.719.431c-.754.31-1.372.372-2.038.201-.538-.138-.88-.574-.449-.574.09 0 .49-.186.893-.412.538-.303 1.158-.462 2.334-.597.88-.1 1.669-.152 1.753-.112zm14.188.064c.203-.008.494.003.852.034.857.073 1.295.198 1.647.467a6.03 6.03 0 0 0 1.127.635c.612.253.628.278.294.479-.418.25-.324.258-1.495-.12-1.106-.358-2.742-1.199-2.742-1.41 0-.047.115-.076.317-.085zm-7.25.056l.458.462c.252.254.6.721.773 1.04.173.317.371.576.44.576.297 0 2.25 1.165 2.25 1.341 0 .218-.949.664-1.41.664-.165 0-.74.242-1.277.539-1.162.64-1.495.655-2.49.107a20.138 20.138 0 0 0-1.695-.8c-.517-.212-.94-.488-.94-.613 0-.124.487-.49 1.081-.811.668-.362 1.217-.807 1.44-1.162.197-.316.587-.746.865-.958l.505-.385zm-13.013.274c.4.044.348.276-.235.567-.342.17-.707.306-.81.3-.401-.025-1.222-.328-1.222-.45 0-.126.295-.194 1.718-.394.231-.032.415-.038.549-.024zm26.625.126c.376-.006.846.035 1.228.125l.47.11-.602.259c-.332.142-.711.256-.846.254-.337-.007-.904-.376-.904-.59 0-.096.28-.15.654-.158zm-6.292 1.39c.305.005.573.138.46.287-.15.2-.79.2-.942 0-.064-.086.015-.196.177-.247a.97.97 0 0 1 .305-.04zm-15.448.057c.138 0 .286.086.329.192.047.114-.086.194-.329.194-.243 0-.375-.08-.329-.194.043-.106.191-.192.33-.192zM50.807 38.51c-3.013-.641-3.051-.679-2.594-2.544.358-1.464 1.073-2.967 1.41-2.967.549 0 1.245.48 1.563 1.079.2.376.539.818.753.982.278.214.389.546.389 1.167 0 1.008.385 1.74 1.138 2.158.294.163.533.374.533.47 0 .26-.71.183-3.192-.345zM19.727 25l-.957.449c-1.241.58-1.815 1.32-2.146 2.77-.147.645-.428 1.34-.626 1.545-.197.206-.607 1.16-.908 2.12-.302.958-.655 1.88-.787 2.046-.217.272-.276.244-.565-.27-.177-.314-.405-.57-.508-.57-.353 0-1.237 1.52-1.598 2.75-.41 1.396-.8 2.17-1.38 2.754-.295.296-.326.403-.121.406.236.002 6.052-.808 8.727-1.216.83-.126.862-.156 1.185-1.12.182-.545.624-1.496.984-2.117l.654-1.129-.025-3.134c-.028-3.394.016-3.24-1.273-4.594l-.655-.69zm1.777 10.323c-.083.014-.167.083-.243.217-.353.628-.65 1.66-.528 1.841.156.232.414.232.89-.002.286-.14.378-.378.378-.964 0-.674-.244-1.132-.496-1.092zM43.377 36.72c-5.244-.865-11.225-1.108-15.988-.651-1.62.155-2.657.183-2.757.073-.087-.096-.285-.945-.438-1.887-.263-1.615-.262-1.814.028-3.537.437-2.595.647-3.275 1.28-4.143.57-.781 1.153-.993 1.468-.533.374.547 1.068 3.401 1.068 4.394 0 1.633.327.95.525-1.096.195-2.008.248-2.274 1.051-5.241.324-1.197.644-2.773.71-3.502.072-.782.24-1.498.412-1.747.16-.232.39-.692.51-1.023.377-1.036.514-1.056 2.027-.297l1.382.693.405 1.41c.223.776.563 1.852.757 2.39.193.54.65 2.259 1.016 3.82.407 1.74.772 2.927.944 3.065.315.255 1.01 2.237 1.186 3.389.064.42.23.918.368 1.108.227.31.241.234.146-.777-.058-.617-.18-1.439-.271-1.827-.205-.87.03-2.427.501-3.327.184-.35.501-1.31.705-2.133.474-1.917.623-2.098 1.377-1.672 1.452.819 1.748 1.245 2.338 3.364.306 1.097.701 2.266.88 2.599.376.703.99 3.59.993 4.677.005 1.306-.533 2.778-.982 2.686-.063-.013-.801-.137-1.64-.275z"/>
    </g>
    <g fill="#FECE4F">
        <path d="M32.714 38.006c-4.302-.04-8.278.136-11.73.527-6.183.7-8.72 1.01-8.886 1.094-.297.15.05.308 1.447.65.848.206 1.407.439 1.566.648.194.258.301.288.51.146.408-.276 1.38.061 2.24.776.774.643.954.715 1.146.46.064-.085.428-.157.81-.158.383-.001.82-.066.975-.146.194-.1.473-.053.905.156.343.166.906.301 1.247.301.342 0 1.12.21 1.73.465.61.255 1.863.75 2.787 1.102.923.35 2.32.936 3.106 1.302.786.367 1.514.669 1.618.671.104.002.483-.145.846-.328 1.516-.767 6.585-2.75 7.03-2.75.264 0 .535-.075.604-.167.07-.092.333-.122.59-.07.351.073.624-.02 1.116-.373.8-.575 1.915-.653 2.29-.16.325.426.535.389 1.23-.216.816-.709 1.717-1.062 2.4-.939.408.074.7.006 1.162-.27.34-.204.997-.466 1.463-.58 1.091-.268 1.197-.316 1.007-.47-.209-.168-3.512-.712-5.523-.91-4.756-.467-9.385-.721-13.686-.761zM29.66 39.06c.408-.012.737.078.737.275 0 .44-2.245 2.018-3.35 2.357-1.23.376-1.27.377-1.733-.003-.736-.603-.353-1.02 1.474-1.607.637-.204 1.383-.516 1.656-.692.32-.206.808-.319 1.216-.33zm4.965.012c.685.003 2.695.686 3.456 1.221.382.268.42.394.308 1.006-.07.384-.225.696-.343.692-.298-.01-1.778-.748-2.62-1.303-.65-.43-1.253-1.371-1.006-1.573.036-.03.107-.044.205-.043zm-9.252.11c.259.121-.443.636-1.007.737-.293.053-.638.199-.767.326s-.453.322-.719.431c-.754.31-1.372.372-2.038.201-.538-.138-.88-.574-.449-.574.09 0 .49-.186.893-.412.538-.303 1.158-.462 2.334-.597.88-.1 1.669-.152 1.753-.112zm14.188.064c.203-.008.494.003.852.034.857.073 1.295.198 1.647.467a6.03 6.03 0 0 0 1.127.635c.612.253.628.278.294.479-.418.25-.324.258-1.495-.12-1.106-.358-2.742-1.199-2.742-1.41 0-.047.115-.076.317-.085zm-7.25.056l.458.462c.252.254.6.721.773 1.04.173.317.371.576.44.576.297 0 2.25 1.165 2.25 1.341 0 .218-.949.664-1.41.664-.165 0-.74.242-1.277.539-1.162.64-1.495.655-2.49.107a20.138 20.138 0 0 0-1.695-.8c-.517-.212-.94-.488-.94-.613 0-.124.487-.49 1.081-.811.668-.362 1.217-.807 1.44-1.162.197-.316.587-.746.865-.958l.505-.385zm-13.013.274c.4.044.348.276-.235.567-.342.17-.707.306-.81.3-.401-.025-1.222-.328-1.222-.45 0-.126.295-.194 1.718-.394.231-.032.415-.038.549-.024zm26.625.126c.376-.006.846.035 1.228.125l.47.11-.602.259c-.332.142-.711.256-.846.254-.337-.007-.904-.376-.904-.59 0-.096.28-.15.654-.158zm-6.292 1.39c.305.005.573.138.46.287-.15.2-.79.2-.942 0-.064-.086.015-.196.177-.247a.97.97 0 0 1 .305-.04zm-15.448.057c.138 0 .286.086.329.192.047.114-.086.194-.329.194-.243 0-.375-.08-.329-.194.043-.106.191-.192.33-.192zM50.807 37.51c-3.013-.641-3.051-.679-2.594-2.544.358-1.464 1.073-2.967 1.41-2.967.549 0 1.245.48 1.563 1.079.2.376.539.818.753.982.278.214.389.546.389 1.167 0 1.008.385 1.74 1.138 2.158.294.163.533.374.533.47 0 .26-.71.183-3.192-.345zM19.727 24l-.957.449c-1.241.58-1.815 1.32-2.146 2.77-.147.645-.428 1.34-.626 1.545-.197.206-.607 1.16-.908 2.12-.302.958-.655 1.88-.787 2.046-.217.272-.276.244-.565-.27-.177-.314-.405-.57-.508-.57-.353 0-1.237 1.52-1.598 2.75-.41 1.396-.8 2.17-1.38 2.754-.295.296-.326.403-.121.406.236.002 6.052-.808 8.727-1.216.83-.126.862-.156 1.185-1.12.182-.545.624-1.496.984-2.117l.654-1.129-.025-3.134c-.028-3.394.016-3.24-1.273-4.594l-.655-.69zm1.777 10.323c-.083.014-.167.083-.243.217-.353.628-.65 1.66-.528 1.841.156.232.414.232.89-.002.286-.14.378-.378.378-.964 0-.674-.244-1.132-.496-1.092zM43.377 35.72c-5.244-.865-11.225-1.108-15.988-.651-1.62.155-2.657.183-2.757.073-.087-.096-.285-.945-.438-1.887-.263-1.615-.262-1.814.028-3.537.437-2.595.647-3.275 1.28-4.143.57-.781 1.153-.993 1.468-.533.374.547 1.068 3.401 1.068 4.394 0 1.633.327.95.525-1.096.195-2.008.248-2.274 1.051-5.241.324-1.197.644-2.773.71-3.502.072-.782.24-1.498.412-1.747.16-.232.39-.692.51-1.023.377-1.036.514-1.056 2.027-.297l1.382.693.405 1.41c.223.776.563 1.852.757 2.39.193.54.65 2.259 1.016 3.82.407 1.74.772 2.927.944 3.065.315.255 1.01 2.237 1.186 3.389.064.42.23.918.368 1.108.227.31.241.234.146-.777-.058-.617-.18-1.439-.271-1.827-.205-.87.03-2.427.501-3.327.184-.35.501-1.31.705-2.133.474-1.917.623-2.098 1.377-1.672 1.452.819 1.748 1.245 2.338 3.364.306 1.097.701 2.266.88 2.599.376.703.99 3.59.993 4.677.005 1.306-.533 2.778-.982 2.686-.063-.013-.801-.137-1.64-.275z"/>
    </g>
    <path d="M32 4C16.488 4 4 16.488 4 32c0 .114.011.224.018.336C4.369 17.134 16.71 5 32 5c15.29 0 27.63 12.134 27.982 27.336.007-.112.018-.222.018-.336C60 16.488 47.512 4 32 4z" opacity=".2" fill="#F9F5D7"/>
    <path d="M4.049 33l.002.018V33h-.002zm.002.018c-.013.328-.051.65-.051.982 0 .224.012.445.018.668.012-.217.024-.433.033-.65L4.049 34h.002v.018C4.588 49.05 16.83 61 32 61c15.174 0 27.421-11.958 27.95-27 .007.222.02.443.032.664.006-.221.018-.441.018-.664 0-.338-.039-.665-.05-1-.529 15.042-12.778 27-27.952 27C16.83 60 4.588 48.051 4.051 33.018z" opacity=".2"/>
</svg>
