<svg xmlns="http://www.w3.org/2000/svg" width="64" height="64" version="1">
    <circle cx="32" cy="33" r="28" opacity=".2"/>
    <circle cx="32" cy="32" r="28" fill="#066678"/>
    <path d="M19 23c-6.075 0-11 4.925-11 11s4.925 11 11 11a11 11 0 0 0 5-1.215V52a3 3 0 0 0 3 3 3 3 0 0 0 3-3V23h-6v1.203A11 11 0 0 0 19 23zm0 6a5 5 0 1 1 0 10 5 5 0 0 1 0-10z" opacity=".2"/>
    <path d="M19 22c-6.075 0-11 4.925-11 11s4.925 11 11 11a11 11 0 0 0 5-1.215V51a3 3 0 0 0 3 3 3 3 0 0 0 3-3V22h-6v1.203A11 11 0 0 0 19 22zm0 6a5 5 0 1 1 0 10 5 5 0 0 1 0-10z" fill="#48B9C7"/>
    <path d="M37 13a3 3 0 0 0-3 3v29h6v-1.203A11 11 0 0 0 56 34c0-6.075-4.925-11-11-11a11 11 0 0 0-5 1.213V16a3 3 0 0 0-3-3zm8 16a5 5 0 1 1 0 10 5 5 0 0 1 0-10z" opacity=".2"/>
    <path d="M37 12a3 3 0 0 0-3 3v29h6v-1.203A11 11 0 0 0 56 33c0-6.075-4.925-11-11-11a11 11 0 0 0-5 1.213V15a3 3 0 0 0-3-3zm8 16a5 5 0 1 1 0 10 5 5 0 0 1 0-10z" fill="#F9F5D7"/>
    <path d="M32 4A28 28.008 0 0 0 4 32.008a28 28.008 0 0 0 .018.492A28 28.008 0 0 1 32 5a28 28.008 0 0 1 27.975 27.5 28 28.008 0 0 0 .025-.492A28 28.008 0 0 0 32 4z" opacity=".1" fill="#F9F5D7"/>
</svg>
