<svg xmlns="http://www.w3.org/2000/svg" width="64" height="64" version="1">
    <rect width="56" height="56" x="-60" y="-59" rx="28" ry="28" transform="matrix(0 -1 -1 0 0 0)" fill="#066678"/>
    <path d="M3.018 32.664C3.01 32.776 3 32.886 3 33c0 15.512 12.488 28 28 28s28-12.488 28-28c0-.114-.011-.224-.018-.336C58.631 47.866 46.29 60 31 60 15.71 60 3.37 47.866 3.018 32.664z" opacity=".2"/>
    <path d="M21.063 17c-3.494 0-6.678.23-9.984 1.996-4.985 8.324-4.554 20.767 0 27.937C23.15 33.228 35.712 27.975 49.02 27.975c1.828 0 4.136.82 5.99.998C49.08 26.367 33.567 17 21.063 17zm11.981 17.96c-6.095.422-11.266 4.521-15.974 8.98 5.642-2.235 10.617-2.797 15.038-1.396.764.242 3.044 1.262 5.07 2.268 5.14 2.553 7.682 3.434 11.256 3.89 4.27.433 8.367-.644 12.566-1.77l-4.824-1.71c-2.25-.962-4.98-2.42-8.872-4.67-5.27-2.841-9.166-5.946-14.26-5.593z" opacity=".2"/>
    <path d="M10.985 46c-4.562-7.186-4.993-19.656 0-28 3.31-1.77 6.5-2 10-2 12.525 0 28.06 9.387 34 12-1.858-.178-4.17-1-6-1-13.329 0-25.91 5.264-38 19z" fill="#F9F5D7"/>
    <path d="M56.168 44.286c-2.254-.962-4.986-2.424-8.884-4.678C42.006 36.76 38.102 33.646 33 34c-6.105.423-11.284 4.532-16 9 5.652-2.24 10.632-2.804 15.061-1.4.765.243 3.05 1.267 5.08 2.275 5.148 2.559 7.692 3.44 11.271 3.897 4.276.435 8.381-.643 12.588-1.772z" fill="#48B9C7"/>
    <path d="M31 4C15.488 4 3 16.488 3 32c0 .114.011.224.018.336C3.369 17.134 15.71 5 31 5c15.29 0 27.63 12.134 27.982 27.336.007-.112.018-.222.018-.336C59 16.488 46.512 4 31 4z" opacity=".2" fill="#F9F5D7"/>
</svg>
