<svg xmlns="http://www.w3.org/2000/svg" width="64" height="64" version="1">
    <rect width="56" height="44" x="-61" y="-54" rx="2.8" ry="2.75" transform="matrix(0 -1 -1 0 0 0)" opacity=".2"/>
    <rect width="56" height="44" x="-60" y="-54" rx="2.8" ry="2.75" transform="matrix(0 -1 -1 0 0 0)" fill="#FA4934"/>
    <path d="M19.461 5c.116.416.301 1.13.301 1.13l.344 1.034-.012.004.024.07a8.32 8.32 0 0 1 .34 1.691 8.156 8.156 0 0 1-.172 2.532 7.229 7.229 0 0 1-.551 1.555c-.122.241-.26.468-.41.688l.027-.008a7.358 7.358 0 0 0-.793 1.437 7.29 7.29 0 0 0-.277.774 7.256 7.256 0 0 0-.18.808 7.01 7.01 0 0 0 .027 2.531 7.091 7.091 0 0 0 .469 1.528 7.185 7.185 0 0 0 1.11 1.776c.298.35.632.666.988.946.354.28.728.524 1.128.73.4.206.826.37 1.258.496.432.126.876.212 1.328.25.454.04.906.038 1.368-.014a7.62 7.62 0 0 0 .694-.118c.232-.052.466-.12.696-.196.23-.076.456-.152.672-.25a6.38 6.38 0 0 0 .624-.328 7.078 7.078 0 0 0 2.052-1.804 7.178 7.178 0 0 0 1.206-2.422 7.034 7.034 0 0 0 .122-3.457 7.19 7.19 0 0 0-.512-1.52 7.249 7.249 0 0 0-.882-1.441 7.266 7.266 0 0 0-1.172-1.156 7.285 7.285 0 0 0-1.396-.848 7.079 7.079 0 0 0-.76-.297l.042-.015a5.861 5.861 0 0 1-1.43-.727 7.758 7.758 0 0 1-1.804-1.734 7.692 7.692 0 0 1-.472-.715 7.783 7.783 0 0 1-.404-.762c-.09-.199-.164-.402-.238-.609l.012-.004-.442-1.328s-.05-.188-.062-.227h-2.863zm19.917 14.004a7.023 7.023 0 0 0-.842.02 7.197 7.197 0 0 0-3.008.922 6.912 6.912 0 0 0-1.13.804 7.138 7.138 0 0 0-1.66 2.128 7.104 7.104 0 0 0-.484 1.258 6.846 6.846 0 0 0-.2 2.708 6.272 6.272 0 0 0 .318 1.382c.078.23.162.454.26.668.1.216.214.424.332.626.238.402.512.772.818 1.112.306.342.644.65 1.008.922a7.068 7.068 0 0 0 2.424 1.188c.44.12.896.2 1.356.234.46.036.93.03 1.398-.026a7.143 7.143 0 0 0 1.404-.322c.28-.092.552-.2.812-.324a6.884 6.884 0 0 0 1.426-.894c.214-.176.422-.36.612-.558a6.967 6.967 0 0 0 .988-1.306 6.89 6.89 0 0 0 .38-.722c.112-.248.206-.502.288-.762l.016.04c.086-.25.186-.49.306-.73a6.813 6.813 0 0 1 .91-1.368c.178-.212.37-.416.574-.61.204-.194.414-.382.64-.554.226-.172.466-.328.712-.476.244-.148.496-.282.756-.404.198-.09.398-.172.602-.246l.008.012c1.198-.242 2.312-.25 3.598-.25v-2.784c-1.3 0-2.642.016-4.23.316l-.008-.012-.066.024c-.274.09-.556.166-.836.226a8.195 8.195 0 0 1-1.704.172 8.66 8.66 0 0 1-1.68-.188 7.274 7.274 0 0 1-.804-.234 6.68 6.68 0 0 1-.75-.304 6.658 6.658 0 0 1-.696-.406l.012.03a7.92 7.92 0 0 0-.702-.438 7.28 7.28 0 0 0-.74-.342 7.211 7.211 0 0 0-.78-.274 7.307 7.307 0 0 0-.806-.172 7.148 7.148 0 0 0-.832-.086zm-20.648 8a7.59 7.59 0 0 0-.703.046 7.847 7.847 0 0 0-1.402.318c-.281.092-.548.2-.809.324-.26.122-.511.262-.75.414a6.705 6.705 0 0 0-1.293 1.05 6.937 6.937 0 0 0-.992 1.294c-.139.232-.26.474-.37.722a7.07 7.07 0 0 0-.298.762l-.011-.036c-.086.25-.19.49-.309.73-.12.242-.251.48-.402.708-.357.444-.845.68-1.391.812v4.442h.844a7.593 7.593 0 0 1 2.48.41 6.803 6.803 0 0 1 1.446.71l-.012-.026a7.124 7.124 0 0 0 1.441.78c.254.104.516.196.781.27.266.074.532.124.805.168.274.044.557.082.836.094.28.012.558.002.84-.02.282-.022.565-.056.847-.112a7.565 7.565 0 0 0 1.528-.488c.218-.098.428-.204.632-.322a6.86 6.86 0 0 0 2.068-1.8c.276-.358.52-.736.722-1.136a7.09 7.09 0 0 0 .48-1.258 6.892 6.892 0 0 0 .09-3.4 6.3 6.3 0 0 0-.204-.69 6.935 6.935 0 0 0-.26-.664c-.1-.216-.218-.42-.336-.622a6.97 6.97 0 0 0-2.978-2.746 7.173 7.173 0 0 0-3.32-.734zm14.184 6.054c-.23.004-.46.016-.692.044-.23.026-.464.062-.694.112a7.3 7.3 0 0 0-.692.196c-.23.076-.456.16-.672.258a7.627 7.627 0 0 0-.622.324 7.056 7.056 0 0 0-2.776 2.958 7.198 7.198 0 0 0-.488 1.272c-.124.44-.216.892-.254 1.352-.04.46-.034.928.018 1.398a7.832 7.832 0 0 0 .306 1.41c.09.284.2.552.32.814a6.948 6.948 0 0 0 1.438 2.058 7.276 7.276 0 0 0 2.772 1.688l-.042.008c.248.086.492.194.73.316.24.122.474.256.7.41a7.243 7.243 0 0 1 1.262 1.09c.192.206.38.424.55.652.17.228.324.464.468.71.146.248.282.498.4.758.09.2.164.404.238.61l-.016.008.454 1.332s.832 2.672 1.182 6.164h2.818c-.366-4.032-1.384-7.074-1.384-7.074l-.348-1.028.016-.004-.024-.074a7.983 7.983 0 0 1-.21-.836 8.113 8.113 0 0 1-.13-.848 8.8 8.8 0 0 1 .032-1.71 7.248 7.248 0 0 1 .696-2.384c.12-.24.26-.47.41-.69l-.032.016a7.512 7.512 0 0 0 .794-1.442 6.778 6.778 0 0 0 .456-1.582c.046-.274.076-.552.09-.832a6.99 6.99 0 0 0 0-.844 6.968 6.968 0 0 0-.116-.852 7.199 7.199 0 0 0-.466-1.526 7.677 7.677 0 0 0-.32-.642 6.944 6.944 0 0 0-.794-1.14 7.092 7.092 0 0 0-2.112-1.676 7.067 7.067 0 0 0-1.254-.5 6.917 6.917 0 0 0-1.328-.25 7.06 7.06 0 0 0-.684-.024z" opacity=".2"/>
    <path d="M19.461 4c.116.416.301 1.129.301 1.129l.344 1.035-.012.004.024.07a8.32 8.32 0 0 1 .34 1.691 8.156 8.156 0 0 1-.172 2.532 7.229 7.229 0 0 1-.551 1.555c-.122.241-.26.467-.41.687l.027-.008a7.358 7.358 0 0 0-.793 1.438 7.29 7.29 0 0 0-.277.773 7.257 7.257 0 0 0-.18.809 7.01 7.01 0 0 0 .027 2.531 7.098 7.098 0 0 0 .469 1.527 7.223 7.223 0 0 0 1.11 1.777c.298.35.632.666.988.946.354.28.728.524 1.128.73.4.206.826.37 1.258.496.432.126.876.212 1.328.25.454.04.906.038 1.368-.014a7.62 7.62 0 0 0 .694-.118c.232-.052.466-.12.696-.196.23-.076.456-.152.672-.25a6.38 6.38 0 0 0 .624-.328 7.078 7.078 0 0 0 2.052-1.804 7.156 7.156 0 0 0 1.206-2.422 7.034 7.034 0 0 0 .122-3.457 7.19 7.19 0 0 0-.512-1.52 7.249 7.249 0 0 0-.882-1.441 7.266 7.266 0 0 0-1.172-1.156 7.285 7.285 0 0 0-1.396-.848 7.079 7.079 0 0 0-.76-.297l.042-.016a5.861 5.861 0 0 1-1.43-.726 7.758 7.758 0 0 1-1.804-1.734 7.692 7.692 0 0 1-.472-.715 7.783 7.783 0 0 1-.404-.762c-.09-.2-.164-.403-.238-.61l.012-.003-.442-1.328s-.05-.188-.062-.227h-2.863zm19.917 14.004a7.023 7.023 0 0 0-.842.02c-.284.021-.566.06-.848.117a6.999 6.999 0 0 0-.844.218 7.265 7.265 0 0 0-.68.266 7.05 7.05 0 0 0-2.7 2.113c-.276.358-.524.74-.726 1.14a7.104 7.104 0 0 0-.484 1.258 6.847 6.847 0 0 0-.2 2.708 6.272 6.272 0 0 0 .318 1.382c.078.23.162.454.26.668.1.216.214.424.332.626.238.402.512.772.818 1.112.306.342.644.65 1.008.922a7.068 7.068 0 0 0 2.424 1.188c.44.12.896.2 1.356.234.46.036.93.03 1.398-.026a7.143 7.143 0 0 0 1.404-.322c.28-.092.552-.2.812-.324a6.884 6.884 0 0 0 1.426-.894c.214-.176.422-.36.612-.558a6.967 6.967 0 0 0 .988-1.306 6.89 6.89 0 0 0 .38-.722c.112-.248.206-.502.288-.762l.016.04c.086-.25.186-.49.306-.73a6.813 6.813 0 0 1 .91-1.368c.178-.212.37-.416.574-.61.204-.194.414-.382.64-.554.226-.172.466-.328.712-.476.244-.148.496-.282.756-.404.198-.09.398-.17.602-.246l.008.012c1.198-.242 2.312-.25 3.598-.25v-2.785c-1.3.002-2.642.016-4.23.317l-.008-.012-.066.024c-.274.09-.556.166-.836.226a8.195 8.195 0 0 1-1.704.172 8.66 8.66 0 0 1-1.68-.188 7.274 7.274 0 0 1-.804-.234 6.499 6.499 0 0 1-.75-.305 6.26 6.26 0 0 1-.696-.406l.012.031a7.434 7.434 0 0 0-.702-.437 7.337 7.337 0 0 0-.74-.344 7.384 7.384 0 0 0-.78-.273 7.172 7.172 0 0 0-.806-.172 7.105 7.105 0 0 0-.832-.086zm-20.648 8a7.59 7.59 0 0 0-.703.046 7.847 7.847 0 0 0-1.402.318c-.281.092-.548.2-.809.324-.26.122-.511.262-.75.414a6.705 6.705 0 0 0-1.293 1.05 6.937 6.937 0 0 0-.992 1.294c-.139.232-.26.474-.37.722a7.07 7.07 0 0 0-.298.762l-.011-.036c-.086.25-.19.49-.309.73-.12.242-.251.48-.402.708-.357.444-.845.68-1.391.812v4.442h.844a7.592 7.592 0 0 1 2.48.41 6.803 6.803 0 0 1 1.446.71l-.012-.026a7.124 7.124 0 0 0 1.441.78c.254.104.516.196.781.27.266.074.532.124.805.168.274.044.557.082.836.094.28.012.558.002.84-.02.282-.022.565-.056.847-.112a7.565 7.565 0 0 0 1.528-.488c.218-.098.428-.204.632-.322a6.86 6.86 0 0 0 2.068-1.8c.276-.358.52-.736.722-1.136a7.09 7.09 0 0 0 .48-1.258 6.892 6.892 0 0 0 .09-3.4 6.3 6.3 0 0 0-.204-.69 6.935 6.935 0 0 0-.26-.664c-.1-.216-.218-.42-.336-.622a6.97 6.97 0 0 0-2.978-2.746 7.173 7.173 0 0 0-3.32-.734zm14.184 6.054c-.23.004-.46.016-.692.044-.23.026-.464.062-.694.112-.232.052-.462.12-.692.196-.23.076-.456.16-.672.258a7.627 7.627 0 0 0-.622.324 7.056 7.056 0 0 0-2.776 2.958 7.198 7.198 0 0 0-.488 1.272c-.124.44-.216.892-.254 1.352-.04.46-.034.928.018 1.398a7.832 7.832 0 0 0 .306 1.41c.09.284.2.552.32.814a6.949 6.949 0 0 0 1.438 2.058 7.276 7.276 0 0 0 2.772 1.688l-.042.008c.248.086.492.194.73.316.24.122.474.256.7.41a7.243 7.243 0 0 1 1.262 1.09c.192.206.38.424.55.652.17.228.324.464.468.71.146.248.282.498.4.758.09.2.164.404.238.61l-.016.008.454 1.332s1.22 3.7 1.35 8.164h2.77c-.13-4.988-1.504-9.074-1.504-9.074l-.348-1.028.016-.004-.024-.074a7.983 7.983 0 0 1-.21-.836 8.113 8.113 0 0 1-.13-.848 8.8 8.8 0 0 1 .032-1.71 7.248 7.248 0 0 1 .696-2.384c.12-.24.26-.47.41-.69l-.032.016a7.512 7.512 0 0 0 .794-1.442 6.778 6.778 0 0 0 .456-1.582c.046-.274.076-.552.09-.832a6.99 6.99 0 0 0 0-.844 6.968 6.968 0 0 0-.116-.852 7.199 7.199 0 0 0-.466-1.526 7.677 7.677 0 0 0-.32-.642 6.944 6.944 0 0 0-.794-1.14 7.092 7.092 0 0 0-2.112-1.676 7.067 7.067 0 0 0-1.254-.5 6.917 6.917 0 0 0-1.328-.25 7.06 7.06 0 0 0-.684-.024z" fill="#F9F5D7"/>
    <path d="M12.75 4C11.226 4 10 5.25 10 6.8v1C10 6.25 11.226 5 12.75 5h38.5C52.774 5 54 6.25 54 7.8v-1C54 5.25 52.774 4 51.25 4h-38.5z" opacity=".2" fill="#F9F5D7"/>
</svg>
