<svg xmlns="http://www.w3.org/2000/svg" width="64" height="64">
    <path d="M32 5A28 28 0 0 0 4 33a28 28 0 0 0 28 28 28 28 0 0 0 28-28A28 28 0 0 0 32 5z" opacity=".2"/>
    <path d="M32 4A28 28 0 0 0 4 32a28 28 0 0 0 28 28 28 28 0 0 0 28-28A28 28 0 0 0 32 4z" fill="#B7BB25"/>
    <path d="M22 20l10.4 13M24 46l20-26" opacity=".2" stroke-linejoin="round" stroke="#151819" stroke-linecap="round" stroke-width="6" fill="none"/>
    <g stroke-linejoin="round" stroke="#F9F5D7" stroke-linecap="round" fill="none" stroke-width="6">
        <path d="M24 45l20-26M22 19l10.4 13"/>
    </g>
    <path d="M32 4A28 28 0 0 0 4 32a28 28 0 0 0 .021.406A28 28 0 0 1 32 5a28 28 0 0 1 27.979 27.578A28 28 0 0 0 60 32 28 28 0 0 0 32 4z" opacity=".2" fill="#F9F5D7"/>
    <circle cx="48" cy="48" r="16" opacity=".2"/>
    <circle cx="48" cy="47" r="16" fill="#8F3F71"/>
    <path d="M42 54V40l12 14V40" stroke-linejoin="round" stroke="#F9F5D7" stroke-linecap="round" stroke-width="4" fill="none"/>
</svg>
