<svg xmlns="http://www.w3.org/2000/svg" height="48" width="48">
    <g fill="none" stroke="#7B6F64" stroke-linecap="round" stroke-linejoin="round">
        <path d="M9.5 2.5c-1 0-2 1-2 2v39c0 .912 1.108 2 2 2h29c.892 0 2-1.089 2-2v-29l-11-12z"/>
        <path d="M29.5 2.5l11 12h-9c-1 0-2-1-2-2z"/>
    </g>
    <g transform="matrix(1.3 0 0 1.3 9.8 11.7)" id="g2522">     <path d="M10.95 2.75C6.394 2.75 2.7 3.98 2.7 5.5v11c0 1.52 3.695 2.75 8.25 2.75 4.558 0 8.25-1.23 8.25-2.75v-11c0-1.52-3.692-2.75-8.25-2.75m0 1.375c3.796 0 6.874.617 6.874 1.375s-3.078 1.375-6.875 1.375S4.074 6.258 4.074 5.5s3.078-1.375 6.875-1.375m-6.875 2.89c1.528.77 4.11 1.235 6.875 1.235 2.77 0 5.348-.465 6.875-1.234V11c0 .758-3.078 1.375-6.875 1.375S4.074 11.758 4.074 11zm0 5.5c1.528.77 4.11 1.235 6.875 1.235 2.77 0 5.348-.465 6.875-1.234V16.5c0 .758-3.078 1.375-6.875 1.375s-6.875-.617-6.875-1.375zm0 0" fill="#FA4934"/>
    </g>
</svg>
