<svg xmlns="http://www.w3.org/2000/svg" height="48" width="48">
    <g fill="none" stroke="#7B6F64" stroke-linecap="round" stroke-linejoin="round">
        <path d="M9.5 2.5c-1 0-2 1-2 2v39c0 .912 1.108 2 2 2h29c.892 0 2-1.089 2-2v-29l-11-12z"/>
        <path d="M29.5 2.5l11 12h-9c-1 0-2-1-2-2z"/>
    </g>
    <g transform="matrix(1.3 0 0 1.3 9.8 11.7)" id="g2522">     <path d="M11 2.75a4.116 4.116 0 0 0-4.125 4.125V8.25H8.25V6.875c0-2 1.035-2.75 2.75-2.75s2.75.75 2.75 2.75V11H4.125v8.25h13.75V11h-2.75V6.875A4.116 4.116 0 0 0 11 2.75m-5.5 9.625h11v5.5h-11zm0 0" fill="#FD8019"/>
    </g>
</svg>
