<svg xmlns="http://www.w3.org/2000/svg" height="48" width="48">
    <g fill="none" stroke="#7B6F64" stroke-linecap="round" stroke-linejoin="round">
        <path d="M9.5 2.5c-1 0-2 1-2 2v39c0 .912 1.108 2 2 2h29c.892 0 2-1.089 2-2v-29l-11-12z"/>
        <path d="M29.5 2.5l11 12h-9c-1 0-2-1-2-2z"/>
    </g>
    <g transform="matrix(1.3 0 0 1.3 9.8 11.7)" id="g2522">     <path d="M4.125 2.75c-.762 0-1.375.613-1.375 1.375v13.75c0 .762.613 1.375 1.375 1.375h11c.762 0 1.375-.613 1.375-1.375h1.375c.762 0 1.375-.613 1.375-1.375v-2.75c0-.254-.09-.484-.21-.688.12-.203.21-.433.21-.687v-2.75c0-.254-.09-.484-.21-.688.12-.203.21-.433.21-.687V5.5c0-.762-.613-1.375-1.375-1.375H16.5c0-.762-.613-1.375-1.375-1.375zm0 1.375h11v13.75h-11zM5.5 5.5v2.75h8.25V5.5zm11 0h1.375v2.75H16.5zm-11 4.125V11h8.25V9.625zm11 0h1.375v2.75H16.5zm-11 2.75v1.375h8.25v-1.375zm11 1.375h1.375v2.75H16.5zm-11 1.375V16.5h8.25v-1.375zm0 0" fill="#A04A73"/>
    </g>
</svg>
