<svg xmlns="http://www.w3.org/2000/svg" height="48" width="48">
    <g fill="none" stroke="#7B6F64" stroke-linecap="round" stroke-linejoin="round">
        <path d="M9.5 2.5c-1 0-2 1-2 2v39c0 .912 1.108 2 2 2h29c.892 0 2-1.089 2-2v-29l-11-12z"/>
        <path d="M29.5 2.5l11 12h-9c-1 0-2-1-2-2z"/>
    </g>
    <g transform="matrix(1.3 0 0 1.3 9.8 11.7)" id="g2522">     <path d="M2.75 4.125c-.762 0-1.375.613-1.375 1.375v11c0 .762.613 1.375 1.375 1.375h16.5c.762 0 1.375-.613 1.375-1.375v-11c0-.762-.613-1.375-1.375-1.375zm0 1.375h.402l5.008 5.008L3.023 16.5H2.75zm2.348 0h11.804L11 11.402zm13.75 0h.402v11h-.27l-5.136-5.992zM9.14 11.48l1.863 1.868 1.867-1.868 4.3 5.02H4.837zm0 0" fill="#066678"/>
    </g>
</svg>
