<svg xmlns="http://www.w3.org/2000/svg" height="48" width="48">
    <g fill="none" stroke="#7B6F64" stroke-linecap="round" stroke-linejoin="round">
        <path d="M9.5 2.5c-1 0-2 1-2 2v39c0 .912 1.108 2 2 2h29c.892 0 2-1.089 2-2v-29l-11-12z"/>
        <path d="M29.5 2.5l11 12h-9c-1 0-2-1-2-2z"/>
    </g>
    <g transform="matrix(1.3 0 0 1.3 9.8 11.7)" id="g2522">     <path d="M18.563 19.246l-5.063.004-3.445-4.957s-.555-.93-.899-1.2c-.285-.222-.406-.304-.687-.304h-.64l.003 6.453-4.394.004V2.75H13s3.879.695 3.957 4.43c.086 4.164-3.746 5.386-3.746 5.386.523.211 4.754 5.715 5.351 6.676M10.98 6.328l-3.105-.004-.004 2.805h3.11s1.437-.004 1.437-1.426c0-1.45-1.438-1.375-1.438-1.375" fill-rule="evenodd" fill="#7B6F64"/>
    </g>
</svg>
