<svg xmlns="http://www.w3.org/2000/svg" height="48" width="48">
    <g fill="none" stroke="#7B6F64" stroke-linecap="round" stroke-linejoin="round">
        <path d="M9.5 2.5c-1 0-2 1-2 2v39c0 .912 1.108 2 2 2h29c.892 0 2-1.089 2-2v-29l-11-12z"/>
        <path d="M29.5 2.5l11 12h-9c-1 0-2-1-2-2z"/>
    </g>
    <g transform="matrix(1.3 0 0 1.3 9.8 11.7)" id="g2522">     <g fill="#7B6F64">
        <path d="M2.75 2.75v16.5h16.5V2.75zm1.375 4.125h13.75v11c-4.883-.05-8.867-.105-13.75 0zm0 0"/>
        <path d="M11.465 14.012l-1.418-1.403.015-.015a9.785 9.785 0 0 0 2.07-3.649h1.638V7.828H9.863V6.711H8.746v1.117h-3.91v1.11h6.238a8.796 8.796 0 0 1-1.77 2.996 8.705 8.705 0 0 1-1.292-1.871H6.898a9.68 9.68 0 0 0 1.665 2.542L5.719 15.41l.793.793 2.793-2.793 1.738 1.738zm3.144-2.832h-1.117l-2.512 6.703h1.118l.625-1.676h2.652l.633 1.676h1.113zm-1.464 3.91l.906-2.422.906 2.422zm0 0"/>
    </g>
    </g>
</svg>
