<svg xmlns="http://www.w3.org/2000/svg" height="48" width="48">
    <g fill="none" stroke="#7B6F64" stroke-linecap="round" stroke-linejoin="round">
        <path d="M9.5 2.5c-1 0-2 1-2 2v39c0 .912 1.108 2 2 2h29c.892 0 2-1.089 2-2v-29l-11-12z"/>
        <path d="M29.5 2.5l11 12h-9c-1 0-2-1-2-2z"/>
    </g>
    <g transform="matrix(1.3 0 0 1.3 9.8 11.7)" id="g2522">     <path d="M5.11 4.125l-.985.957 3.629 3.844-3.606 3.867.985.957L9.18 9.402l.445-.476-.445-.477zM9.624 16.5v1.375h8.25V16.5zm0 0" fill="#7B6F64"/>
    </g>
</svg>
