<svg xmlns="http://www.w3.org/2000/svg" height="48" width="48">
    <g fill="none" stroke="#7B6F64" stroke-linecap="round" stroke-linejoin="round">
        <path d="M9.5 2.5c-1 0-2 1-2 2v39c0 .912 1.108 2 2 2h29c.892 0 2-1.089 2-2v-29l-11-12z"/>
        <path d="M29.5 2.5l11 12h-9c-1 0-2-1-2-2z"/>
    </g>
    <g transform="matrix(1.3 0 0 1.3 9.8 11.7)" id="g2522">     <path d="M11.969 2.75L9.816 15.395 7.645 10.8l-6.27 3.594c.055.168.11.335.172.5l5.46-2.528 3.329 6.883 2.539-15.766 7.75-.148a10.919 10.919 0 0 0-.395-.453zm0 0" fill="#48B9C7"/>
    </g>
</svg>
