<svg xmlns="http://www.w3.org/2000/svg" height="48" width="48">
    <g fill="none" stroke="#7B6F64" stroke-linecap="round" stroke-linejoin="round">
        <path d="M9.5 2.5c-1 0-2 1-2 2v39c0 .912 1.108 2 2 2h29c.892 0 2-1.089 2-2v-29l-11-12z"/>
        <path d="M29.5 2.5l11 12h-9c-1 0-2-1-2-2z"/>
    </g>
    <g transform="matrix(1.3 0 0 1.3 9.8 11.7)" id="g2522">     <path d="M6.875 2.75v11.387A2.756 2.756 0 0 0 5.5 13.75a2.749 2.749 0 1 0 0 5.5c1.52 0 2.75-1.23 2.75-2.75V6.875h9.625v5.887a2.756 2.756 0 0 0-1.375-.387 2.749 2.749 0 1 0 0 5.5c1.52 0 2.75-1.23 2.75-2.75V2.75zM8.25 4.125h9.625V5.5H8.25zm0 0" fill="#7B6F64"/>
    </g>
</svg>
