<svg xmlns="http://www.w3.org/2000/svg" height="48" width="48">
    <g fill="none" stroke="#7B6F64" stroke-linecap="round" stroke-linejoin="round">
        <path d="M9.5 2.5c-1 0-2 1-2 2v39c0 .912 1.108 2 2 2h29c.892 0 2-1.089 2-2v-29l-11-12z"/>
        <path d="M29.5 2.5l11 12h-9c-1 0-2-1-2-2z"/>
    </g>
    <g transform="matrix(1.3 0 0 1.3 9.8 11.7)" id="g2522">     <path d="M9.625 2.75V5.5h2.75V2.75zm-.18 3.242l-2.722.73 1.125 1.126 1.777-.48V5.991zm2.93 0v1.375l4.203 1.125-4.203 1.125v9.625h.18l6.683-1.789h.012v-9.68l-.012.004-6.683-1.793zM4.551 7.301l-1.801.484v10.09L11 19.25V9.625L4.96 8.617l.716-.191zm13.324 2.273v6.094l-4.125-1.11V10.68zm-4.125 6.41l2.828.758-2.828.762zm0 0" fill-rule="evenodd" fill="#066678"/>
    </g>
</svg>
