<svg xmlns="http://www.w3.org/2000/svg" height="48" width="48">
    <g fill="none" stroke="#7B6F64" stroke-linecap="round" stroke-linejoin="round">
        <path d="M9.5 2.5c-1 0-2 1-2 2v39c0 .912 1.108 2 2 2h29c.892 0 2-1.089 2-2v-29l-11-12z"/>
        <path d="M29.5 2.5l11 12h-9c-1 0-2-1-2-2z"/>
    </g>
    <g transform="matrix(1.3 0 0 1.3 9.8 11.7)" id="g2522">     <path d="M17.188 2.75a2.06 2.06 0 0 0-2.063 2.063 2.06 2.06 0 0 0 2.063 2.062 2.06 2.06 0 0 0 2.062-2.063 2.06 2.06 0 0 0-2.063-2.062m-6.875 1.375a7.564 7.564 0 0 0 0 15.125 7.564 7.564 0 0 0 7.563-7.563 7.542 7.542 0 0 0-1.766-4.843A2.744 2.744 0 0 1 13.75 11a2.749 2.749 0 1 1 1.45-5.082 7.569 7.569 0 0 0-4.887-1.793" fill="#066678"/>
    </g>
</svg>
