<svg xmlns="http://www.w3.org/2000/svg" height="48" width="48">
    <g fill="none" stroke="#7B6F64" stroke-linecap="round" stroke-linejoin="round">
        <path d="M9.5 2.5c-1 0-2 1-2 2v39c0 .912 1.108 2 2 2h29c.892 0 2-1.089 2-2v-29l-11-12z"/>
        <path d="M29.5 2.5l11 12h-9c-1 0-2-1-2-2z"/>
    </g>
    <g transform="matrix(1.3 0 0 1.3 9.8 11.7)" id="g2522">     <path d="M2.527 2.844v16.5h16.5v-16.5zm1.375 1.375h13.75v13.75H3.902zm1.375 2.75v2.75h2.75v-2.75zm8.25 0v2.75h2.75v-2.75zm-5.5 5.5v1.375h5.5v-1.375zm5.5 1.375v1.375h1.375v-1.375zm1.375 1.375v1.375h1.375v-1.375zm-6.875-1.375H6.652v1.375h1.375zm-1.375 1.375H5.277v1.375h1.375zm0 0" fill="#FA4934"/>
    </g>
</svg>
