<svg xmlns="http://www.w3.org/2000/svg" height="48" width="48">
    <g fill="none" stroke="#7B6F64" stroke-linecap="round" stroke-linejoin="round">
        <path d="M9.5 2.5c-1 0-2 1-2 2v39c0 .912 1.108 2 2 2h29c.892 0 2-1.089 2-2v-29l-11-12z"/>
        <path d="M29.5 2.5l11 12h-9c-1 0-2-1-2-2z"/>
    </g>
    <g transform="matrix(1.3 0 0 1.3 9.8 11.7)" id="g2522">     <path d="M4.125 4.125c-.762 0-1.375.613-1.375 1.375v11c0 .762.613 1.375 1.375 1.375h13.75c.762 0 1.375-.613 1.375-1.375v-11c0-.762-.613-1.375-1.375-1.375zM11.688 5.5c.382 0 .687.305.687.688a.684.684 0 0 1-.688.687.684.684 0 0 1-.687-.688c0-.382.305-.687.688-.687m2.75 0c.382 0 .687.305.687.688a.684.684 0 0 1-.688.687.684.684 0 0 1-.687-.688c0-.382.305-.687.688-.687m2.75 0c.382 0 .687.305.687.688a.684.684 0 0 1-.688.687.684.684 0 0 1-.687-.688c0-.382.305-.687.688-.687M4.124 8.25h13.75v8.25H4.125zm0 0" fill="#7CB668"/>
    </g>
</svg>
