<svg xmlns="http://www.w3.org/2000/svg" height="48" width="48">
    <g fill="none" stroke="#7B6F64" stroke-linecap="round" stroke-linejoin="round">
        <path d="M9.5 2.5c-1 0-2 1-2 2v39c0 .912 1.108 2 2 2h29c.892 0 2-1.089 2-2v-29l-11-12z"/>
        <path d="M29.5 2.5l11 12h-9c-1 0-2-1-2-2z"/>
    </g>
    <g transform="matrix(1.3 0 0 1.3 9.8 11.7)" id="g2522">     <path d="M4.125 2.75v5.5H2.75v8.25h4.125v2.75h8.25V16.5h4.125V8.25h-1.375v-5.5zM5.5 4.125h11V8.25h-1.375V6.875h-8.25V8.25H5.5zm1.375 0V5.5h8.25V4.125zm-2.75 5.5h13.75v5.5H16.5V13.75h-11v1.375H4.125zM13.75 11v1.375h2.75V11zm-5.5 5.5h5.5v1.375h-5.5zm0 0" fill="#FA4934"/>
    </g>
</svg>
