<svg xmlns="http://www.w3.org/2000/svg" height="48" width="48">
    <g fill="none" stroke="#7B6F64" stroke-linecap="round" stroke-linejoin="round">
        <path d="M9.5 2.5c-1 0-2 1-2 2v39c0 .912 1.108 2 2 2h29c.892 0 2-1.089 2-2v-29l-11-12z"/>
        <path d="M29.5 2.5l11 12h-9c-1 0-2-1-2-2z"/>
    </g>
    <g transform="matrix(1.3 0 0 1.3 9.8 11.7)" id="g2522">     <path d="M11 2.75a4.116 4.116 0 0 0-4.125 4.125h2.75V8.25h-2.75V11h2.75v1.375h-2.5A4.103 4.103 0 0 0 11 15.125c1.8 0 3.309-1.148 3.875-2.75h-2.5V11h2.75V8.25h-2.75V6.875h2.75A4.116 4.116 0 0 0 11 2.75m-6.738 9.625a6.852 6.852 0 0 0 5.363 5.352v.148L8.25 19.25h5.5l-1.375-1.375v-.148a6.847 6.847 0 0 0 5.363-5.352h-1.43A5.47 5.47 0 0 1 11 16.5a5.47 5.47 0 0 1-5.309-4.125zm0 0" fill="#8F3F71"/>
    </g>
</svg>
