<svg xmlns="http://www.w3.org/2000/svg" width="64" height="64" version="1">
    <rect width="56" height="56" x="4" y="5" rx="28" ry="28" opacity=".2"/>
    <rect width="56" height="56" x="4" y="4" rx="28" ry="28" fill="#066678"/>
    <path d="M32.145 5.4l-3.243.37-4.003 1.098-.758.736 2.486 1.714v.98L25 11.275l1.955 2.573.864-.49 1.083-1.714a37.233 37.233 0 0 0 4.758-1.837l1.14-3.306zm-7.678.246l-1.397.2-.662.656-1.086.159-.968.453-.47.227-.287.386 1.405.243.542-.49 1.083-.242c.74-.36 1.485-.605 2.272-.86zm-6.385 2.937l-.216.49.107 1.224-.864.736-.542 1.345h1.083l.541-1.222c.467-.33.93-.664 1.406-.982l1.083.37 2.163 1.468 1.082-.98-1.192-.489-.541-1.102-2.056-.246-.107-.612-.974.246-.432.856zm27.71.979l-2.05.492-1.305.856v.735l-2.05 1.346.429 1.96 1.195-.858.754.858.864.49.542-1.469-.323-.858.323-.613L45.36 11h.54l-.54 1.624v1.102c.496-.135 1.008-.18 1.517-.243l-1.408.979-.107.612-1.622 1.346-1.627-.367v-.979l-.757.49.328 1.135h-1.192l-.648.822-.815.917-1.457.308.864.854.218.855h-1.082l-1.373.736v2.207h.615l.594.672 1.353-.672.539-1.348.976-.613.216-.49 1.621-.363.867.976.974.49-.542 1.102.867-.247.432-1.096-1.083-1.225h.435l1.083.853.216 1.225.97 1.102.217-1.594.544-.243c.535.555.955 1.212 1.405 1.837l1.622.123.976.61-.435.612-.973.859h-1.406l-1.84-.613-.973.12-.7.8-2.005-2.021-1.408-.367-2.056.243-1.84.49c-1.032 1.17-1.91 2.334-2.888 3.55l-1.19 2.818.542.61-.973 1.468 1.083 2.573c.92 1.04 1.698 2.08 2.616 3.12l1.356-1.162.594.676 1.457-.92.49.55h1.463l.836.95-.517 1.684 1.031 1.162-.054 2.02.757 1.472-.81 1.222a45 45 0 0 0-.054 2.696c.443 1.22.673 2.437 1.092 3.667l.322 1.96v.982h1.178l1.192-.736h1.026c.382-.266.75-.552 1.118-.836l1.37-1.55-.268-.796 1.408-1.228-1.03-1.16 1.246-1.039 1.05-.738.542-.607-.326-1.353V42.25l1.113-2.083 1.19-1.346 1.298-3.183v-.858c-.64.08-1.263.146-1.889.191l1.293-1.293 1.786-1.225.976-1.1V30.13l-.65-1.225-.867.979-.649-.733-.973-.736v-1.591l1.138 1.285 1.244-.183c.566.514 1.124 1.006 1.621 1.591l.123-.14c-.598-6.496-3.409-12.323-7.662-16.758-.234-.24-.482-.5-.675-.69-.323-.314-.662-.611-1-.91l-.307.503-1.083 1.225L47.742 11h1.405l.651-.457-2.598-.49zm-30.584.04c-.158.12-.32.234-.476.356l.214.952s-.99.108-1.562.183C7.64 16.209 4.007 23.643 4 31.975c.225.371.448.725.448.725l2.273 1.345 2.275.616.97 1.225 1.515 1.099.867-.12.648.292v.197l-.864 2.324-.65.982.215.49L11 42.983l2.103 3.552 1.39 1.712.863 1.222-.106 2.573 1.208 1.468-.358 1.553c1.248.86 2.58 1.605 3.964 2.256l.506-.503.323-.856 1.408-.492 1.299-2.693-.541-.733.754-1.523 1.625-.369.962-1.537-.312-2.444 1.576-1.838.219-1.837c-1.776-.881-3.819-1.787-5.582-2.694l-.867-1.714-1.621-.367-.864-1.623-2.163.243-1.84-1.54-1.95 1.206v.27c-.59-.17-1.313-.19-1.837-.513l-.435-1.225v-1.349l-1.299.124c.108-.858.219-1.714.328-2.57h-.757l-.758.978-.757.367-1.083-.61-.11-1.348.217-1.469 1.624-1.225h1.296l.216-.735 1.624.366 1.05 1.471.218-2.45 2.197-1.711.757-1.838L17 22.486l.867-1.22 1.947-.371.973-1.466h-2.92l1.84-.858h1.296l1.84-1.173.217-.732-.651-.613-.758-.246.22-.733-.542-1.102-1.3.487.217-.979-1.515-.856-1.187 2.081.107.736-1.192.49-.758 1.59-.322-1.468-2.057-.858-.325-1.102L15.7 12.5l1.193-1.102.106-1.345-.648-.37zm20.56 1.274l-1.567.49-.709-.123h-.002l-.11.735 1.04.49 1.996-.859-.648-.733zm-14.982.523l-.864.613 1.08.735h.867v-.858zm17.093 2.817v.735l.435.49v1.102l-.22 1.468 1.193-.243.864-.859-.757-.733a21.959 21.959 0 0 0-.864-1.96zm-.43 1.468l-.76.246.22 1.345.97-.486zm-14.93 2.207l.324 1.709.648-.977zm28.25 9.545l1.247 1.409 1.46 3.12.864.981-.435 1.1.823.932c-.378.025-.754.052-1.143.052-.689-1.448-1.206-2.897-1.73-4.41l-1.202-1.04-.486-1.777z" opacity=".3"/>
    <path d="M23.814 33a1.173 1.173 0 0 0-.742.286L5.388 47.275c-.734.637-.368 1.82.605 1.956l6.858.963-3.214 5.537a2.569 2.569 0 0 0 .951 3.525l.69.397a2.597 2.597 0 0 0 3.542-.947l3.337-5.75 4.89 3.944c.753.609 1.893.088 1.894-.866L25 34.13c.002-.635-.535-1.146-1.186-1.13z" opacity=".2"/>
    <path d="M23.814 32a1.173 1.173 0 0 0-.742.286L5.388 46.275c-.734.637-.368 1.82.605 1.956l6.858.963-3.214 5.537a2.569 2.569 0 0 0 .951 3.525l.69.397a2.597 2.597 0 0 0 3.542-.947l3.337-5.75 4.89 3.944c.753.609 1.893.088 1.894-.866L25 33.13c.002-.635-.535-1.146-1.186-1.13z" fill="#F9F5D7"/>
    <path d="M32 4C16.488 4 4 16.488 4 32c0 .168.01.333.014.5C4.28 17.221 16.656 5 32 5c15.344 0 27.72 12.221 27.986 27.5.003-.167.014-.332.014-.5C60 16.488 47.512 4 32 4z" fill="#F9F5D7" opacity=".1"/>
</svg>
