<svg xmlns="http://www.w3.org/2000/svg" width="64" height="64" version="1">
    <path d="M4 56.2v2C4 59.75 5.25 61 6.8 61h50.4c1.55 0 2.8-1.25 2.8-2.8v-2c0 1.55-1.25 2.8-2.8 2.8H6.8C5.25 59 4 57.75 4 56.2z" opacity=".2"/>
    <rect width="56" height="56" x="4" y="4" rx="2.8" ry="2.8" fill="#CB241D"/>
    <g opacity=".2">
        <path d="M8 27v14h14V27H8zm2 2h8v4h2v6H10V29zm2 2v2h4v-2h-4zm0 4v2h6v-2h-6zM40 27v14h14V27H40zm2 2h10v2h-8v6h8v2H42V29zM24 27v14h14V27H24zm2 2h8v4h2v6H26V29zm2 2v2h4v-2h-4zm0 4v2h6v-2h-6z"/>
    </g>
    <g fill="#F9F5D7">
        <path d="M8 26v14h14V26H8zm2 2h8v4h2v6H10V28zm2 2v2h4v-2h-4zm0 4v2h6v-2h-6zM40 26v14h14V26H40zm2 2h10v2h-8v6h8v2H42V28zM24 26v14h14V26H24zm2 2h8v4h2v6H26V28zm2 2v2h4v-2h-4zm0 4v2h6v-2h-6z"/>
    </g>
    <path d="M6.8 4C5.25 4 4 5.25 4 6.8v1.003c0-1.551 1.25-2.801 2.8-2.801h50.4c1.55 0 2.8 1.25 2.8 2.8V6.802C60 5.25 58.75 4 57.2 4H6.8z" opacity=".2" fill="#F9F5D7"/>
</svg>
