<svg xmlns="http://www.w3.org/2000/svg" width="64" height="64" version="1">
    <path d="M4 56v2c0 1.662 1.338 3 3 3h50c1.662 0 3-1.338 3-3v-2c0 1.662-1.338 3-3 3H7c-1.662 0-3-1.338-3-3z" opacity=".2"/>
    <rect width="56" height="56" x="4" y="4" rx="3" ry="3" fill="#7CB668"/>
    <path d="M7 4C5.338 4 4 5.338 4 7v1c0-1.662 1.338-3 3-3h50c1.662 0 3 1.338 3 3V7c0-1.662-1.338-3-3-3H7z" opacity=".1" fill="#F9F5D7"/>
    <path d="M50.426 17.062L27.8 39.688 13.656 25.546 8 31.204l14.144 14.14L27.8 51l5.656-5.656L56.08 22.72l-5.656-5.656z" opacity=".2"/>
    <path d="M50.426 16.062L27.8 38.688 13.656 24.546 8 30.204l14.144 14.14L27.8 50l5.656-5.656L56.08 21.72l-5.656-5.656z" fill="#F9F5D7"/>
</svg>
