<svg xmlns="http://www.w3.org/2000/svg" width="64" height="64" version="1">
    <path d="M9.888 5.001A4.777 4.394 0 0 0 5 9.394v47.215a4.777 4.394 0 0 0 7.165 3.802L34.389 48.61l22.223-11.804a4.777 4.394 0 0 0 0-7.61L34.389 17.39 12.165 5.588a4.777 4.394 0 0 0-2.278-.587z" opacity=".2"/>
    <path d="M9.888 4.001A4.777 4.394 0 0 0 5 8.394v47.215a4.777 4.394 0 0 0 7.165 3.802L34.389 47.61l22.223-11.804a4.777 4.394 0 0 0 0-7.61L34.389 16.39 12.165 4.588a4.777 4.394 0 0 0-2.278-.587z" fill="#CB241D"/>
    <rect width="6" height="14" x="20" y="20" rx="1.5" ry="1.4" fill="#F9F5D7"/>
    <path d="M14.596 33a1.08 1.597 90 0 0-.473.048 1.08 1.597 90 0 0-.908 1.571l8.404 9.842a1.08 1.597 90 0 0 2.766-.002l8.4-9.84A1.08 1.597 90 0 0 31.406 33z" opacity=".2"/>
    <path d="M14.596 32a1.08 1.597 90 0 0-.473.048 1.08 1.597 90 0 0-.908 1.571l8.404 9.842a1.08 1.597 90 0 0 2.766-.002l8.4-9.84A1.08 1.597 90 0 0 31.406 32z" fill="#F9F5D7"/>
    <path d="M9.887 4A4.777 4.394 0 0 0 5 8.395v1A4.777 4.394 0 0 1 9.887 5a4.777 4.394 0 0 1 2.277.59l22.227 11.8 22.222 11.805a4.777 4.394 0 0 1 2.35 3.317 4.777 4.394 0 0 0-2.35-4.317L34.391 16.391 12.164 4.59A4.777 4.394 0 0 0 9.887 4z" opacity=".2" fill="#F9F5D7"/>
</svg>
