<svg xmlns="http://www.w3.org/2000/svg" width="64" height="64" version="1">
    <path d="M4 52v2c0 1.662 1.338 3 3 3h50c1.662 0 3-1.338 3-3v-2c0 1.662-1.338 3-3 3H7c-1.662 0-3-1.338-3-3z" opacity=".2"/>
    <rect width="48" height="56" x="-56" y="-60" rx="3" ry="3" transform="matrix(0 -1 -1 0 0 0)" fill="#504945"/>
    <path d="M4 20v-9c0-1.662 1.338-3 3-3h50c1.662 0 3 1.338 3 3v9z" opacity=".2"/>
    <path d="M4 14v-3c0-1.662 1.338-3 3-3h50c1.662 0 3 1.338 3 3v3z" opacity=".2"/>
    <path d="M7 8c-1.662 0-3 1.338-3 3v1c0-1.662 1.338-3 3-3h50c1.662 0 3 1.338 3 3v-1c0-1.662-1.338-3-3-3H7z" opacity=".2" fill="#F9F5D7"/>
    <path d="M7 8c-1.662 0-3 1.338-3 3v9h12v-6l-6-6z" opacity=".2" fill="#F9F5D7"/>
    <path d="M24 14l-6-6h8l6 6zM24 14l-6 6h8l6-6zM38 14l-6-6h8l6 6zM38 14l-6 6h8l6-6zM52 14l-6-6h8l6 6zM52 14l-6 6h8l6-6z" opacity=".2" fill="#F9F5D7" fill-rule="evenodd"/>
    <path d="M43 37l-9 5-9 5V27l9 5z" opacity=".2"/>
    <path d="M43 36l-9 5-9 5V26l9 5z" fill="#BDAD93"/>
</svg>
