<svg xmlns="http://www.w3.org/2000/svg" width="64" height="64" version="1">
    <rect width="56" height="36" x="4" y="26" rx="2.8" ry="2.769" opacity=".2"/>
    <rect width="56" height="36" x="4" y="25" rx="2.8" ry="2.769" fill="#504945"/>
    <circle cx="20" cy="44" r="12" opacity=".2"/>
    <circle cx="44" cy="44" r="12" opacity=".2"/>
    <circle cx="20" cy="43" r="12" fill="#F9F5D7"/>
    <circle cx="20" cy="43" r="5" fill="#504945"/>
    <rect width="56" height="22" x="4" y="4" rx="2.8" ry="3.143" opacity=".2"/>
    <rect width="56" height="22" x="4" y="3" rx="2.8" ry="3.143" fill="#504945"/>
    <rect width="48" height="14" x="8" y="8" rx="2.987" ry="3.148" opacity=".2"/>
    <rect width="48" height="14" x="8" y="7" rx="2.987" ry="3.148" fill="#7CB668"/>
    <circle cx="15" cy="14" r="3" fill="#504945"/>
    <path fill="#AF3A03" d="M46 11h6v6h-6z"/>
    <path fill="#F9BD2E" d="M48 13h2v2h-2z"/>
    <circle cx="23" cy="14" r="3" fill="#504945"/>
    <circle cx="31" cy="14" r="3" fill="#504945"/>
    <circle cx="44" cy="43" r="12" fill="#F9F5D7"/>
    <circle cx="44" cy="43" r="5" fill="#504945"/>
    <path d="M6.8 3C5.25 3 4 4.403 4 6.145v1C4 5.403 5.25 4 6.8 4h50.4C58.75 4 60 5.403 60 7.145v-1C60 4.403 58.75 3 57.2 3H6.8z" opacity=".1" fill="#F9F5D7"/>
    <path d="M10.988 7C9.333 7 8 8.405 8 10.148v1C8 9.405 9.333 8 10.988 8h42.024C54.667 8 56 9.405 56 11.148v-1C56 8.405 54.667 7 53.012 7H10.988z" opacity=".1" fill="#F9F5D7"/>
</svg>
