<svg xmlns="http://www.w3.org/2000/svg" width="64" height="64" version="1">
    <path d="M25.635 61.424c.463-1.51 2.744-5.284 3.971-6.568.754-.79 1.371-1.509 1.371-1.599 0-.624-1.869-1.997-10.183-7.48-4.449-2.934-6.864-5.032-9.088-7.896l-1.88-2.422-.78-3.68c-.59-2.778-.724-3.884-.546-4.516.177-.628.144-.912-.132-1.136-.505-.41-.484-2.257.028-2.45.282-.106.386-.49.363-1.336-.045-1.594.207-2.136 2.532-5.434 1.36-1.93 2.337-3.038 3.073-3.487.593-.363 1.759-1.29 2.59-2.06 1.366-1.268 1.592-1.386 2.374-1.242.623.115 1.04.028 1.492-.309 1.003-.746 2.585-1.59 2.982-1.59.43 0 2.9-1.382 3.652-2.044.865-.76 4.216-2.364 4.736-2.267.268.05.524.35.57.665.046.315.162.574.258.574.097 0 1-.392 2.006-.87 1.006-.48 3.14-1.23 4.74-1.669 3.132-.86 3.957-.819 4.525.221.256.47.535.525 2.64.525 2.423 0 3.679.359 3.984 1.139.083.214.92.745 1.859 1.18 1.392.645 1.707.903 1.707 1.395 0 .382.294.81.798 1.162 1.16.81.946 1.475-.798 2.478-.79.454-1.612.932-1.828 1.06-.32.191-.259.295.327.561.395.18.718.496.718.702 0 .56-2.24 3.528-3.135 4.153-.942.659-.957.94-.168 3.22.337.976.879 2.926 1.203 4.335.325 1.408.812 3.31 1.084 4.225.271.916.682 2.76.913 4.098.733 4.24.116 6.952-2.237 9.842-1.581 1.94-5.351 5.511-7.55 7.15l-1.666 1.242.154 1.278c.12.986.37 1.512 1.098 2.302 1.14 1.237 3.254 5.398 3.254 6.403v.723H25.46l.176-.576z" fill="#504945"/>
    <path d="M39.346 34.352c.36-.364.654-.977.654-1.361s-.294-.997-.654-1.361c-1.844-1.869-4.547.833-2.76 2.76.767.828 1.922.812 2.76-.038z" opacity=".2"/>
    <path d="M39.346 33.352c.36-.364.654-.977.654-1.361s-.294-.997-.654-1.361c-1.844-1.869-4.547.833-2.76 2.76.767.828 1.922.812 2.76-.038z" fill="#F9F5D7"/>
    <path d="M50.973 29.439c.19-.945-.658-2.206-1.604-2.409-.901-.192-2.144.57-2.338 1.467-.21.968.67 2.284 1.645 2.478.904.18 2.117-.635 2.297-1.536z" opacity=".2"/>
    <path d="M50.973 28.439c.19-.945-.658-2.206-1.604-2.409-.901-.192-2.144.57-2.338 1.467-.21.968.67 2.284 1.645 2.478.904.18 2.117-.635 2.297-1.536z" fill="#F9F5D7"/>
    <path d="M42.988 2.006c-.668-.033-1.658.172-3.224.601-1.601.44-3.734 1.192-4.741 1.67-1.006.479-1.909.87-2.005.87-.097 0-.212-.26-.258-.575s-.303-.614-.571-.664c-.52-.097-3.871 1.506-4.736 2.266-.753.662-3.223 2.047-3.652 2.047-.397 0-1.978.841-2.981 1.588-.453.337-.869.423-1.492.308-.782-.144-1.008-.025-2.375 1.242-.831.771-1.996 1.699-2.59 2.061-.736.449-1.712 1.557-3.072 3.486-2.325 3.298-2.578 3.84-2.533 5.434.023.846-.08 1.232-.362 1.338-.343.129-.46.995-.351 1.679.057-.339.173-.612.351-.679.282-.106.385-.492.362-1.338-.045-1.594.208-2.136 2.533-5.434 1.36-1.929 2.336-3.037 3.072-3.486.594-.362 1.759-1.29 2.59-2.061 1.367-1.267 1.593-1.386 2.375-1.242.623.115 1.039.029 1.492-.308 1.003-.747 2.584-1.59 2.981-1.59.429 0 2.899-1.383 3.652-2.045.865-.76 4.216-2.363 4.736-2.266.268.05.525.349.571.664s.161.575.258.575c.096 0 .999-.393 2.005-.872 1.007-.478 3.14-1.228 4.741-1.668 3.132-.859 3.957-.82 4.525.221.256.47.534.526 2.639.526 2.423 0 3.679.358 3.984 1.138.084.214.921.745 1.859 1.18 1.392.645 1.708.904 1.708 1.396 0 .382.295.81.798 1.163.235.163.397.32.518.476.395-.514.211-.967-.518-1.476-.503-.352-.798-.781-.798-1.163 0-.492-.316-.75-1.708-1.394-.938-.435-1.775-.968-1.859-1.182-.305-.78-1.561-1.138-3.984-1.138-2.105 0-2.383-.055-2.639-.524-.284-.52-.632-.791-1.301-.824zM53.195 12.45c-.155.09-.48.278-.545.317-.319.19-.259.294.327.56.177.08.337.19.462.305.15-.266.256-.49.256-.602 0-.166-.212-.4-.5-.58zm-3.283 6.393c-.199.445-.031 1.08.481 2.56.337.976.878 2.926 1.203 4.334.324 1.409.812 3.31 1.084 4.227.271.915.683 2.759.914 4.097.155.898.235 1.714.265 2.49.039-1.057-.042-2.196-.265-3.49-.231-1.338-.643-3.182-.914-4.097-.272-.916-.76-2.818-1.084-4.227-.325-1.408-.866-3.358-1.203-4.334-.237-.682-.392-1.172-.481-1.56zm-41.414 8.43c-.076.277-.08.674-.027 1.226.011-.075.01-.172.029-.236.141-.501.14-.781-.002-.99zm33.754 24.939l-.111.082.154 1.279c.119.987.368 1.51 1.096 2.3 1.062 1.155 2.952 4.819 3.205 6.128h.049v-.723c0-1.005-2.115-5.165-3.254-6.402-.728-.79-.977-1.316-1.096-2.303l-.043-.361zM30.645 53.7a23.06 23.06 0 0 1-1.038 1.154c-1.227 1.285-3.51 5.058-3.972 6.569l.002.002-.178.576h.338c.675-1.694 2.68-4.964 3.81-6.147.754-.788 1.37-1.507 1.37-1.597 0-.135-.113-.32-.332-.557z" opacity=".1" fill="#F9F5D7"/>
    <path d="M55.793 9.705c-.234.304-.668.63-1.315 1.002-.79.455-1.612.932-1.828 1.06-.319.192-.259.295.327.561.077.035.148.08.218.123.366-.213.73-.425 1.284-.744 1.392-.801 1.794-1.386 1.314-2.002zm-2.353 3.928c-.602 1.066-2.163 3.05-2.88 3.55-.66.462-.856.753-.648 1.66.108-.24.318-.428.649-.66.895-.625 3.134-3.59 3.134-4.152 0-.113-.102-.26-.255-.398zM8.044 25.359c-.108.632-.007 1.5.322 1.767a.675.675 0 0 1 .13.149c.002-.003.002-.009.003-.012.177-.627.142-.912-.133-1.136-.167-.135-.269-.43-.323-.768zm.425 3.14c-.102.666.044 1.784.574 4.28l.782 3.68 1.88 2.421c2.225 2.864 4.64 4.963 9.089 7.897 6.52 4.3 9.05 6.058 9.85 6.924.176-.213.331-.407.331-.444 0-.624-1.867-1.997-10.182-7.48-4.449-2.934-6.864-5.033-9.088-7.897l-1.88-2.422-.782-3.68c-.331-1.56-.505-2.56-.574-3.279zm45.39 8.053c-.089 2.41-.869 4.343-2.505 6.352-1.58 1.94-5.35 5.51-7.55 7.15l-1.665 1.24.112.92 1.553-1.16c2.2-1.64 5.97-5.21 7.55-7.15 1.856-2.279 2.618-4.459 2.504-7.352zm-28.064 25.45c-.058.145-.125.3-.162.421l.002.002-.178.576h21.186v-.723c0-.067-.03-.182-.048-.277z" opacity=".2"/>
</svg>
