<svg xmlns="http://www.w3.org/2000/svg" width="64" height="64" version="1">
    <path d="M62 32a30 30 0 0 1-30 30A30 30 0 0 1 2 32 30 30 0 0 1 32 2a30 30 0 0 1 30 30z" fill="#504945"/>
    <path d="M32 2A30 30 0 0 0 2 32a30 30 0 0 0 .018.512A30 30 0 0 1 32 3a30 30 0 0 1 29.977 29.516A30 30 0 0 0 62 32 30 30 0 0 0 32 2z" opacity=".1" fill="#F9F5D7"/>
    <path d="M61.96 32.828A30 30 0 0 1 32 62 30 30 0 0 1 2.04 33.172 30 30 0 0 0 2 34a30 30 0 0 0 .023.484 30 30 0 0 1 .016-.312A30 30 0 0 0 32 63a30 30 0 0 0 29.96-29.172 30 30 0 0 1 .022.66A30 30 0 0 0 62 34a30 30 0 0 0-.04-1.172z" opacity=".2"/>
    <path d="M22 17h9l15 14.666L31 49h-9l15-17.334M22 17" opacity=".2"/>
    <path d="M22 16h9l15 14.666L31 48h-9l15-17.334M22 16" fill="#FD8019"/>
</svg>
