<svg xmlns="http://www.w3.org/2000/svg" width="64" height="64">
    <path d="M12.055 7a8 8 0 0 0-4.8 14.441l8.671 6.39L5.344 43.708a8 8 0 0 0 6.086 12.417l40 2.856a8 8 0 0 0 5.157-14.535l-9.43-6.602 11.036-13.492a8 8 0 0 0-5.34-13.019l-40-4.285A8 8 0 0 0 12.054 7z" opacity=".2"/>
    <path d="M12.055 6a8 8 0 0 0-4.8 14.441l8.671 6.39L5.344 42.708a8 8 0 0 0 6.086 12.417l40 2.856a8 8 0 0 0 5.157-14.535l-9.43-6.602 11.036-13.492a8 8 0 0 0-5.34-13.019l-40-4.285A8 8 0 0 0 12.054 6z" fill="#504945"/>
    <path d="M12 48.143L23.429 31 52 51z" opacity=".2"/>
    <path d="M12 47.143L23.429 30 52 50z" fill="#73C48F"/>
    <path d="M12 15l40 4.285L39.143 35z" opacity=".2"/>
    <path d="M12 14l40 4.285L39.143 34z" fill="#48B9C7"/>
    <path d="M12.055 6a8 8 0 0 0-8.034 8.447A8 8 0 0 1 12.055 7a8 8 0 0 1 .797.047l40.002 4.285a8 8 0 0 1 7.123 7.488 8 8 0 0 0-7.123-8.488L12.852 6.047A8 8 0 0 0 12.055 6zm3.424 21.502L5.344 42.707a8 8 0 0 0-1.319 4.908 8 8 0 0 1 1.319-3.908l10.582-15.875-.447-.33zm32.199 9.705l-.52.637 9.43 6.601a8 8 0 0 1 3.392 6.028 8 8 0 0 0-3.392-7.028l-8.91-6.238zM23.428 30L12 47.143l.637.044L23.427 31l26.981 18.887L52 50 23.428 30z" opacity=".1" fill="#F9F5D7"/>
    <path d="M12 14l1.588 1.17 37.66 4.035.752-.92L12 14z" fill="#F9F5D7" opacity=".1"/>
</svg>
