<?xml version="1.0" encoding="UTF-8" standalone="no"?>
<!DOCTYPE svg PUBLIC "-//W3C//DTD SVG 1.1//EN" "http://www.w3.org/Graphics/SVG/1.1/DTD/svg11.dtd">
<svg version="1.1" xmlns="http://www.w3.org/2000/svg" xmlns:xlink="http://www.w3.org/1999/xlink" preserveAspectRatio="xMidYMid meet" viewBox="0 0 640 640" width="64" height="64"><defs><path d="M32.07 142.65L497.21 40.17L599.76 505.69L134.63 608.16L32.07 142.65Z" id="cDrLaeqBa"></path><path d="M42.78 126.9L512.97 50.87L589.05 521.44L118.87 597.46L42.78 126.9Z" id="ec7uG9TOK"></path><path d="M61.95 102.76L537.12 70.02L569.88 545.57L94.72 578.31L61.95 102.76Z" id="b4cYqiuN4T"></path><path d="M420.25 266.59C419.9 267.25 418.76 267.81 416.85 268.26C412.7 269.41 409.78 268.33 408.09 265.05C402.09 252.93 395.52 245.11 388.41 241.53C378.55 236.61 361.94 235.18 338.51 237.24C329.04 238.08 323.91 239.39 323.15 241.17C322.88 241.75 322.76 242.58 322.85 243.62C324.1 257.73 334.05 370.6 335.3 384.71C335.83 390.74 337.89 394.83 341.55 396.95C345.19 399.02 351.63 401.53 361.98 402.62C366.39 403 370.83 403.34 371.43 403.58C375.56 403.21 376.65 411.03 368.74 411.73C368.53 411.86 275.51 419.89 275.51 419.89C275.51 419.89 268.72 417.2 274.17 412.35C276.53 411.24 280.84 409.2 280.84 409.2C280.84 409.2 296.88 403.19 300.05 399.95C303.65 396.3 305.11 390.79 304.46 383.44C303.25 369.73 293.57 260.01 292.36 246.3C292.12 243.56 289.92 242.14 285.76 242.04C285.31 241.97 281.93 242.23 275.67 242.78C253.96 244.69 238.28 249.21 228.52 256.36C221.17 261.67 215.04 270.75 210.08 283.67C208.47 287.71 205.88 289.2 202.35 288.19C198.4 287.79 196.84 286.14 197.6 283.34C200.7 272.78 201.44 258.23 199.8 239.63C199.61 237.46 202.89 234.97 209.9 234.75C229.1 233.1 382.73 219.89 401.94 218.24C408.24 216.91 411.79 217.46 412.59 219.87C416.89 232.13 419.59 246.53 420.72 263.06C420.75 264.77 420.57 265.98 420.25 266.59Z" id="a5wCb8Vd0F"></path></defs><g><g><g><use xlink:href="#cDrLaeqBa" opacity="1" fill="#dddada" fill-opacity="1"></use><g><use xlink:href="#cDrLaeqBa" opacity="1" fill-opacity="0" stroke="#747575" stroke-width="0" stroke-opacity="1"></use></g></g><g><use xlink:href="#ec7uG9TOK" opacity="1" fill="#dddddd" fill-opacity="1"></use><g><use xlink:href="#ec7uG9TOK" opacity="1" fill-opacity="0" stroke="#747575" stroke-width="0" stroke-opacity="1"></use></g></g><g><use xlink:href="#b4cYqiuN4T" opacity="1" fill="#f0ecec" fill-opacity="1"></use><g><use xlink:href="#b4cYqiuN4T" opacity="1" fill-opacity="0" stroke="#747575" stroke-width="0" stroke-opacity="1"></use></g></g><g><use xlink:href="#a5wCb8Vd0F" opacity="1" fill="#a59d9d" fill-opacity="1"></use><g><use xlink:href="#a5wCb8Vd0F" opacity="1" fill-opacity="0" stroke="#000000" stroke-width="0" stroke-opacity="0"></use></g></g></g></g></svg>