<svg xmlns="http://www.w3.org/2000/svg" height="48" width="48">
    <g fill="none" stroke="#7B6F64" stroke-linecap="round" stroke-linejoin="round">
        <path d="M9.5 2.5c-1 0-2 1-2 2v39c0 .912 1.108 2 2 2h29c.892 0 2-1.089 2-2v-29l-11-12z"/>
        <path d="M29.5 2.5l11 12h-9c-1 0-2-1-2-2z"/>
    </g>
    <g transform="matrix(1.3 0 0 1.3 9.8 11.7)" id="g2522">     <g fill="#48B9C7">
        <path d="M11.5 4.57c0 .29-.238.524-.527.524a.528.528 0 0 1-.532-.524V3.273c0-.293.239-.527.532-.527.293 0 .527.234.527.527zm-.082 9.16c0 .239-.195.43-.434.43h-.023a.433.433 0 0 1-.438-.43v-1.402c0-.238.196-.433.438-.433h.023c.239 0 .434.195.434.433zm0 0"/>
        <path d="M16.473 17.852a.623.623 0 0 0 .12-.7l-4.378-9.285c-.004-.027-.004-.05-.004-.078 0-.094.035-.176.086-.242.523-.39.86-1.016.86-1.715a2.156 2.156 0 0 0-2.165-2.152c-1.215 0-2.164.96-2.164 2.152 0 .7.336 1.324.856 1.715.058.066.09.148.09.242 0 .027 0 .05-.004.078l-4.38 9.285a.618.618 0 0 0 .122.7l-.692 1.402 1.09-1.184a.633.633 0 0 0 .735-.34l4.171-8.847a.207.207 0 0 1 .168-.082h.02c.066 0 .125.031.164.082l4.176 8.847a.62.62 0 0 0 .726.34l1.094 1.184zM10.993 7.07a1.24 1.24 0 1 1 0-2.476c.687 0 1.245.554 1.245 1.238 0 .684-.558 1.238-1.246 1.238"/>
        <path d="M15.738 13.07a.283.283 0 0 1-.285.282H6.488a.283.283 0 1 1 0-.567h8.965a.29.29 0 0 1 .285.285"/>
    </g>
    </g>
</svg>
