<svg xmlns="http://www.w3.org/2000/svg" height="48" width="48">
    <g fill="none" stroke="#7B6F64" stroke-linecap="round" stroke-linejoin="round">
        <path d="M9.5 2.5c-1 0-2 1-2 2v39c0 .912 1.108 2 2 2h29c.892 0 2-1.089 2-2v-29l-11-12z"/>
        <path d="M29.5 2.5l11 12h-9c-1 0-2-1-2-2z"/>
    </g>
    <g transform="matrix(1.3 0 0 1.3 9.8 11.7)" id="g2522">     <path d="M2.75 2.75v16.5h16.5V2.75zm1.375 1.375h13.75v2.75H4.125zm0 4.125h2.75v4.125h-2.75zm4.125 0h5.5v4.125h-5.5zm6.875 0h2.75v4.125h-2.75zm-11 5.5h2.75v4.125h-2.75zm4.125 0h5.5v4.125h-5.5zm6.875 0h2.75v4.125h-2.75zm0 0" fill="#7CB668"/>
    </g>
</svg>
