<svg xmlns="http://www.w3.org/2000/svg" height="48" width="48">
    <g fill="none" stroke="#7B6F64" stroke-linecap="round" stroke-linejoin="round">
        <path d="M9.5 2.5c-1 0-2 1-2 2v39c0 .912 1.108 2 2 2h29c.892 0 2-1.089 2-2v-29l-11-12z"/>
        <path d="M29.5 2.5l11 12h-9c-1 0-2-1-2-2z"/>
    </g>
    <g transform="matrix(1.3 0 0 1.3 9.8 11.7)" id="g2522">     <g fill="#FD8019">
        <path d="M9.625 2.75a2.744 2.744 0 0 0-2.75 2.75H11v1.375H5.5a2.744 2.744 0 0 0-2.75 2.75v2.75a2.744 2.744 0 0 0 2.75 2.75V13.75a4.09 4.09 0 0 1 1.375-3.059l.004-.004c.18-.164.375-.308.586-.44h.004c.203-.13.422-.24.648-.329.04-.016.082-.027.125-.04a3.768 3.768 0 0 1 1.387-.253h5.5V5.5a2.744 2.744 0 0 0-2.75-2.75zm0 .688c.383 0 .688.304.688.687a.684.684 0 0 1-.688.688.684.684 0 0 1-.688-.688c0-.383.305-.688.688-.688zM16.5 11l-2.063 2.063.973.972 1.09-1.09v4.93h-1.375v1.375h4.125v-1.375h-1.375V11zm0 0"/>
        <path d="M11 11c-.766 0-1.543.383-2.027 1.102-.485.718-.723 1.71-.723 3.023 0 1.313.238 2.305.723 3.023A2.459 2.459 0 0 0 11 19.25c.766 0 1.543-.383 2.027-1.102.485-.718.723-1.71.723-3.023 0-1.313-.238-2.305-.723-3.023A2.459 2.459 0 0 0 11 11zm0 1.375c.371 0 .629.105.89.492.047.074.09.168.133.262l-2.378 2.379c-.008-.13-.02-.242-.02-.383 0-1.14.223-1.867.484-2.258.262-.387.52-.492.891-.492zm1.355 2.367c.008.13.02.242.02.383 0 1.14-.223 1.867-.484 2.254-.262.39-.52.496-.891.496s-.629-.105-.89-.496c-.047-.07-.09-.164-.133-.258zm0 0"/>
    </g>
    </g>
</svg>
