<svg xmlns="http://www.w3.org/2000/svg" height="48" width="48">
    <g fill="none" stroke="#7B6F64" stroke-linecap="round" stroke-linejoin="round">
        <path d="M9.5 2.5c-1 0-2 1-2 2v39c0 .912 1.108 2 2 2h29c.892 0 2-1.089 2-2v-29l-11-12z"/>
        <path d="M29.5 2.5l11 12h-9c-1 0-2-1-2-2z"/>
    </g>
    <g transform="matrix(1.3 0 0 1.3 9.8 11.7)" id="g2522">     <path d="M2.75 2.75v16.5h16.5V2.75zm1.375 1.375h13.75v13.75H4.125zM5.5 5.5v2.75h11V5.5zm0 4.125V11h4.125V9.625zm6.875 0V11H16.5V9.625zM5.5 12.375v1.375h4.125v-1.375zm6.875 0v1.375H16.5v-1.375zM5.5 15.125V16.5h4.125v-1.375zm6.875 0V16.5H16.5v-1.375zm0 0" fill="#7B6F64"/>
    </g>
</svg>
