<svg xmlns="http://www.w3.org/2000/svg" height="48" width="48">
    <g fill="none" stroke="#7B6F64" stroke-linecap="round" stroke-linejoin="round">
        <path d="M9.5 2.5c-1 0-2 1-2 2v39c0 .912 1.108 2 2 2h29c.892 0 2-1.089 2-2v-29l-11-12z"/>
        <path d="M29.5 2.5l11 12h-9c-1 0-2-1-2-2z"/>
    </g>
    <g transform="matrix(1.3 0 0 1.3 9.8 11.7)" id="g2522">     <path d="M5.5 19.25a1.372 1.372 0 0 1-1.375-1.375V4.125c0-.762.613-1.375 1.375-1.375h11c.762 0 1.375.613 1.375 1.375v13.75c0 .762-.613 1.375-1.375 1.375zm0-1.375h11V4.125h-11zm1.375-2.75V13.75h8.25v1.375zm0-2.75V11h8.25v1.375zm0-2.75V8.25h8.25v1.375zm0-2.75V5.5h8.25v1.375zm0 0" fill="#8F3F71"/>
    </g>
</svg>
