<svg xmlns="http://www.w3.org/2000/svg" height="48" width="48">
    <g fill="none" stroke="#7B6F64" stroke-linecap="round" stroke-linejoin="round">
        <path d="M9.5 2.5c-1 0-2 1-2 2v39c0 .912 1.108 2 2 2h29c.892 0 2-1.089 2-2v-29l-11-12z"/>
        <path d="M29.5 2.5l11 12h-9c-1 0-2-1-2-2z"/>
    </g>
    <g transform="matrix(1.3 0 0 1.3 9.8 11.7)" id="g2522">     <path d="M2.75 3.438v15.124h16.5V3.438zm1.375 2.75h13.75v11H4.125zm3.848 1.375l2.355 3.742-2.879 4.508h1.63l2.066-3.32 2.062 3.32h1.555c.015-.016.035-.028.05-.04l-2.828-4.468 2.336-3.742h-1.668l-1.511 2.554-1.512-2.555zm0 0" fill="#7B6F64"/>
    </g>
</svg>
