<svg xmlns="http://www.w3.org/2000/svg" height="48" width="48">
    <g fill="none" stroke="#7B6F64" stroke-linecap="round" stroke-linejoin="round">
        <path d="M9.5 2.5c-1 0-2 1-2 2v39c0 .912 1.108 2 2 2h29c.892 0 2-1.089 2-2v-29l-11-12z"/>
        <path d="M29.5 2.5l11 12h-9c-1 0-2-1-2-2z"/>
    </g>
    <g transform="matrix(1.3 0 0 1.3 9.8 11.7)" id="g2522">     <path d="M11 2.75c-4.555 0-8.25 1.23-8.25 2.75v11c0 1.52 3.695 2.75 8.25 2.75s8.25-1.23 8.25-2.75v-11c0-1.52-3.695-2.75-8.25-2.75m0 1.375c3.797 0 6.875.617 6.875 1.375S14.797 6.875 11 6.875 4.125 6.258 4.125 5.5 7.203 4.125 11 4.125m-6.875 2.89C5.648 7.786 8.23 8.25 11 8.25c2.766 0 5.348-.465 6.875-1.234V11c0 .758-3.078 1.375-6.875 1.375S4.125 11.758 4.125 11zm0 5.5c1.523.77 4.105 1.235 6.875 1.235 2.766 0 5.348-.465 6.875-1.234V16.5c0 .758-3.078 1.375-6.875 1.375s-6.875-.617-6.875-1.375zm0 0" fill="#8F3F71"/>
    </g>
</svg>
