<svg xmlns="http://www.w3.org/2000/svg" height="48" width="48">
    <g fill="none" stroke="#7B6F64" stroke-linecap="round" stroke-linejoin="round">
        <path d="M9.5 2.5c-1 0-2 1-2 2v39c0 .912 1.108 2 2 2h29c.892 0 2-1.089 2-2v-29l-11-12z"/>
        <path d="M29.5 2.5l11 12h-9c-1 0-2-1-2-2z"/>
    </g>
    <g transform="matrix(1.3 0 0 1.3 9.8 11.7)" id="g2522">     <path d="M9.281 17.297c-1.344 0-2.261-.672-2.015-2.387.304-2.14 1.59-2.844 5.656-3.422.031 0 1.285-.215 1.285-.215l-.52 3.793c-1.101 1.375-3.09 2.23-4.406 2.23m4.192-.183l.058 1.774h1.746l1.59-11.469c.488-3.484-1.5-4.496-4.281-4.496-1.988 0-3.945.582-5.106 1.254l.336 1.894c1.254-.61 2.965-1.039 4.528-1.039 1.926 0 2.629.95 2.383 2.785l-.274 1.743-1.437.183c-3.7.582-7.309 1.16-7.891 5.258-.426 2.938 1.316 4.254 3.64 4.254 1.47 0 3.274-.55 4.712-2.14" fill="#FD8019"/>
    </g>
</svg>
