<svg xmlns="http://www.w3.org/2000/svg" height="48" width="48">
    <g fill="none" stroke="#7B6F64" stroke-linecap="round" stroke-linejoin="round">
        <path d="M9.5 2.5c-1 0-2 1-2 2v39c0 .912 1.108 2 2 2h29c.892 0 2-1.089 2-2v-29l-11-12z"/>
        <path d="M29.5 2.5l11 12h-9c-1 0-2-1-2-2z"/>
    </g>
    <g transform="matrix(1.3 0 0 1.3 9.8 11.7)" id="g2522">     <g fill="#F9BD2E">
        <path d="M2.75 4.125V19.25h16.5V4.125zM4.125 5.5h13.75v12.375H4.125zM16.5 2.75h1.375v1.375H16.5zm-12.375 0H5.5v1.375H4.125zm2.75 0H8.25v1.375H6.875zm6.875 0h1.375v1.375H13.75zm0 0"/>
        <path d="M5.5 6.875h11V8.25h-11zm0 2.75H11V11H5.5zm8.25 5.5h2.75V16.5h-2.75zm-8.25-2.75h8.25v1.375H5.5zm0 0"/>
    </g>
    </g>
</svg>
