<svg xmlns="http://www.w3.org/2000/svg" height="48" width="48">
    <g fill="none" stroke="#7B6F64" stroke-linecap="round" stroke-linejoin="round">
        <path d="M9.5 2.5c-1 0-2 1-2 2v39c0 .912 1.108 2 2 2h29c.892 0 2-1.089 2-2v-29l-11-12z"/>
        <path d="M29.5 2.5l11 12h-9c-1 0-2-1-2-2z"/>
    </g>
    <g transform="matrix(1.3 0 0 1.3 9.8 11.7)" id="g2522">     <path d="M2.75 2.063v2.75H1.375v15.125h19.25V4.813H19.25v-2.75zm1.375 1.374h13.75v1.376H4.125zM2.75 6.188h16.5v12.375H2.75zm5.5 2.75v6.876l6.34-3.403zm0 0" fill="#7B6F64"/>
    </g>
</svg>
