<svg xmlns="http://www.w3.org/2000/svg" height="48" width="48">
    <g fill="none" stroke="#7B6F64" stroke-linecap="round" stroke-linejoin="round">
        <path d="M9.5 2.5c-1 0-2 1-2 2v39c0 .912 1.108 2 2 2h29c.892 0 2-1.089 2-2v-29l-11-12z"/>
        <path d="M29.5 2.5l11 12h-9c-1 0-2-1-2-2z"/>
    </g>
    <g transform="matrix(1.3 0 0 1.3 9.8 11.7)" id="g2522">     <path d="M0 5.5v11h2.75V9.387l2.75 2.75 2.75-2.75V16.5H11v-11H8.25L5.504 8.246 2.754 5.5zm16.5 0V11h-2.75l4.125 5.5L22 11h-2.75V5.5zm0 0" fill="#7B6F64"/>
    </g>
</svg>
