<svg xmlns="http://www.w3.org/2000/svg" height="48" width="48">
    <g fill="none" stroke="#7B6F64" stroke-linecap="round" stroke-linejoin="round">
        <path d="M9.5 2.5c-1 0-2 1-2 2v39c0 .912 1.108 2 2 2h29c.892 0 2-1.089 2-2v-29l-11-12z"/>
        <path d="M29.5 2.5l11 12h-9c-1 0-2-1-2-2z"/>
    </g>
    <g transform="matrix(1.3 0 0 1.3 9.8 11.7)" id="g2522">     <path d="M2.75 2.75v1.375h16.5V2.75zM8.617 5.5l.028.668 4.714 6.207-5.109 6.113v.762h11v-3.82h-.785c0 .765.207 1.238-.465 1.695-.734.504-1.703.598-2.555.598h-4.05l3.93-5.348-3.93-6.113h2.308c1.64 0 3.969-.145 4.617 1.77.114.323.117.945.145 1.288h.785V5.5zM2.75 6.875V8.25h5.5V6.875zm0 2.75V11h6.875V9.625zm0 4.125v1.375h6.875V13.75zm0 2.75v1.375h5.5V16.5zm0 0" fill="#8F3F71"/>
    </g>
</svg>
