<svg xmlns="http://www.w3.org/2000/svg" height="48" width="48">
    <g fill="none" stroke="#7B6F64" stroke-linecap="round" stroke-linejoin="round">
        <path d="M9.5 2.5c-1 0-2 1-2 2v39c0 .912 1.108 2 2 2h29c.892 0 2-1.089 2-2v-29l-11-12z"/>
        <path d="M29.5 2.5l11 12h-9c-1 0-2-1-2-2z"/>
    </g>
    <g transform="matrix(1.3 0 0 1.3 9.8 11.7)" id="g2522">     <path d="M2.75 13.75c5.5.09 11-.395 16.5-2.75v5.5c-6.547 2.457-11.379 2.387-16.5 2.75zm0-8.25c5.5.09 11-.395 16.5-2.75v5.5C12.703 10.707 7.871 10.637 2.75 11zm0 0" fill="#FA4934"/>
    </g>
</svg>
