<svg xmlns="http://www.w3.org/2000/svg" height="48" width="48">
    <g fill="none" stroke="#7B6F64" stroke-linecap="round" stroke-linejoin="round">
        <path d="M9.5 2.5c-1 0-2 1-2 2v39c0 .912 1.108 2 2 2h29c.892 0 2-1.089 2-2v-29l-11-12z"/>
        <path d="M29.5 2.5l11 12h-9c-1 0-2-1-2-2z"/>
    </g>
    <g transform="matrix(1.3 0 0 1.3 9.8 11.7)" id="g2522">     <path d="M2.75 2.75v16.5h16.5V2.75zm1.375 4.125h13.75v11H4.125zM8.25 8.25v4.125H6.875v.023l4.102 4.102h.043l4.105-4.102v-.023H13.75V8.25zm1.375 1.375h2.75v2.75h.824L11 14.578l-2.2-2.203h.825zm0 0" fill="#7B6F64"/>
    </g>
</svg>
