<svg xmlns="http://www.w3.org/2000/svg" height="48" width="48">
    <g fill="none" stroke="#7B6F64" stroke-linecap="round" stroke-linejoin="round">
        <path d="M9.5 2.5c-1 0-2 1-2 2v39c0 .912 1.108 2 2 2h29c.892 0 2-1.089 2-2v-29l-11-12z"/>
        <path d="M29.5 2.5l11 12h-9c-1 0-2-1-2-2z"/>
    </g>
    <g transform="matrix(1.3 0 0 1.3 9.8 11.7)" id="g2522">     <path d="M11 2.75A8.247 8.247 0 0 0 2.75 11 8.247 8.247 0 0 0 11 19.25 8.247 8.247 0 0 0 19.25 11 8.247 8.247 0 0 0 11 2.75m0 1.375a6.875 6.875 0 1 1 0 13.75 6.875 6.875 0 0 1 0-13.75m0 2.75a4.126 4.126 0 0 0 0 8.25 4.126 4.126 0 0 0 3.297-1.652l-1.102-.825A2.744 2.744 0 0 1 11 13.75a2.749 2.749 0 1 1 0-5.5c.867 0 1.68.406 2.2 1.102l1.097-.825A4.126 4.126 0 0 0 11 6.875" fill="#7B6F64"/>
    </g>
</svg>
