<svg xmlns="http://www.w3.org/2000/svg" height="48" width="48">
    <g fill="none" stroke="#7B6F64" stroke-linecap="round" stroke-linejoin="round">
        <path d="M9.5 2.5c-1 0-2 1-2 2v39c0 .912 1.108 2 2 2h29c.892 0 2-1.089 2-2v-29l-11-12z"/>
        <path d="M29.5 2.5l11 12h-9c-1 0-2-1-2-2z"/>
    </g>
    <g transform="matrix(1.3 0 0 1.3 9.8 11.7)" id="g2522">     <path d="M17.875 2.766v3.316c-3.453.059-4.3 3.293-4.3 3.293H16.5v3.316h-4.36c-2.425 7.192-8.015 6.551-8.015 6.551v-3.316s3.547.629 5.355-5.707c2.262-7.93 8.395-7.453 8.395-7.453" fill="#FA4934"/>
    </g>
</svg>
