<svg xmlns="http://www.w3.org/2000/svg" width="64" height="64">
    <path d="M37.406 7.008c-.556.06-.981.466-1.418 1.315l-1.459 2.834A22.5 22.5 0 0 0 32 11a22.5 22.5 0 0 0-2.523.17L28.01 8.325c-.747-1.314-1.416-1.389-2.592-1.075a6277.124 6277.124 0 0 1-7.326 3.035c-1.225.508-1.54 1.138-1.074 2.592l.966 3.024a22.5 22.5 0 0 0-3.564 3.592l-3.043-.973c-1.454-.465-2.084-.153-2.592 1.072A7788.89 7788.89 0 0 1 5.75 26.92c-.508 1.225-.285 1.893 1.072 2.592l2.834 1.459A22.5 22.5 0 0 0 9.5 33.5a22.5 22.5 0 0 0 .17 2.522l-2.848 1.469c-1.357.699-1.58 1.366-1.072 2.591 1.014 2.442 2.024 4.884 3.035 7.327.508 1.225 1.138 1.539 2.592 1.074l3.023-.969a22.5 22.5 0 0 0 3.592 3.566l-.974 3.043c-.466 1.455-.151 2.085 1.074 2.592 2.443 1.01 4.886 2.023 7.328 3.035 1.225.508 1.892.285 2.592-1.072l1.459-2.834A22.5 22.5 0 0 0 32 56a22.5 22.5 0 0 0 2.521-.17l1.467 2.848c.7 1.357 1.367 1.58 2.592 1.072 2.442-1.013 4.885-2.024 7.328-3.035 1.225-.507 1.54-1.137 1.074-2.592l-.968-3.023a22.5 22.5 0 0 0 3.566-3.592l3.043.973c1.454.465 2.084.153 2.592-1.072 1.01-2.444 2.022-4.886 3.035-7.329.507-1.225.285-1.892-1.072-2.591l-2.834-1.459a22.5 22.5 0 0 0 .156-2.53 22.5 22.5 0 0 0-.17-2.521l2.848-1.469c1.357-.699 1.579-1.367 1.072-2.592-1.014-2.441-2.024-4.883-3.035-7.326-.508-1.225-1.138-1.539-2.592-1.074l-3.023.969a22.5 22.5 0 0 0-3.592-3.567l.974-3.043c.466-1.454.151-2.084-1.074-2.592-2.443-1.01-4.886-2.022-7.328-3.035-.459-.19-.84-.278-1.174-.242z" opacity=".2"/>
    <path d="M37.406 6.008c-.556.06-.981.466-1.418 1.314l-1.459 2.835A22.5 22.5 0 0 0 32 10a22.5 22.5 0 0 0-2.523.17L28.01 7.324c-.747-1.314-1.416-1.388-2.592-1.074-2.441 1.014-4.884 2.025-7.326 3.035-1.225.508-1.54 1.138-1.074 2.592l.966 3.024a22.5 22.5 0 0 0-3.564 3.592l-3.043-.973c-1.454-.465-2.084-.153-2.592 1.072A7788.89 7788.89 0 0 1 5.75 25.92c-.508 1.225-.285 1.893 1.072 2.592l2.834 1.459A22.5 22.5 0 0 0 9.5 32.5a22.5 22.5 0 0 0 .17 2.522l-2.848 1.469c-1.357.699-1.58 1.366-1.072 2.591 1.014 2.442 2.024 4.884 3.035 7.327.508 1.225 1.138 1.539 2.592 1.074l3.023-.969a22.5 22.5 0 0 0 3.592 3.566l-.974 3.043c-.466 1.455-.151 2.085 1.074 2.592 2.443 1.01 4.886 2.023 7.328 3.035 1.225.508 1.892.285 2.592-1.072l1.459-2.834A22.5 22.5 0 0 0 32 55a22.5 22.5 0 0 0 2.521-.17l1.467 2.848c.7 1.357 1.367 1.58 2.592 1.072 2.442-1.013 4.885-2.024 7.328-3.035 1.225-.507 1.54-1.137 1.074-2.592l-.968-3.023a22.5 22.5 0 0 0 3.566-3.592l3.043.973c1.454.465 2.084.153 2.592-1.072 1.01-2.444 2.022-4.886 3.035-7.329.507-1.225.285-1.892-1.072-2.591l-2.834-1.459a22.5 22.5 0 0 0 .156-2.53 22.5 22.5 0 0 0-.17-2.521l2.848-1.469c1.357-.699 1.579-1.367 1.072-2.592-1.014-2.441-2.024-4.883-3.035-7.326-.508-1.225-1.138-1.539-2.592-1.074l-3.023.969a22.5 22.5 0 0 0-3.592-3.567l.974-3.043c.466-1.454.151-2.084-1.074-2.592-2.443-1.01-4.886-2.022-7.328-3.035-.459-.19-.84-.278-1.174-.242z" fill="#48B9C7"/>
    <path d="M32 15l-16 9v8l23 8-7 4-9-5v-2l-7-2.5V43l16 9 16-9v-8l-23-8 7-4 9 5v2l7 2.5V24z" opacity=".2"/>
    <path d="M32 14l-16 9v8l23 8-7 4-9-5v-2l-7-2.5V42l16 9 16-9v-8l-23-8 7-4 9 5v2l7 2.5V23z" fill="#F9F5D7"/>
    <path d="M37.406 6.008c-.556.06-.981.466-1.418 1.314l-1.459 2.834A22.5 22.5 0 0 0 32 10a22.5 22.5 0 0 0-2.523.17L28.01 7.324c-.747-1.314-1.416-1.388-2.592-1.074-2.441 1.013-4.884 2.024-7.326 3.035-1.072.444-1.446.983-1.211 2.084.141-.476.531-.802 1.211-1.084 2.442-1.01 4.885-2.021 7.326-3.035 1.176-.314 1.845-.24 2.592 1.074l1.467 2.846A22.5 22.5 0 0 1 32 11a22.5 22.5 0 0 1 2.529.156l1.459-2.834c.437-.848.862-1.253 1.418-1.314.334-.037.715.052 1.174.242 2.442 1.013 4.885 2.026 7.328 3.035.68.282 1.07.608 1.211 1.084.235-1.101-.139-1.64-1.211-2.084-2.443-1.01-4.886-2.022-7.328-3.035-.459-.19-.84-.279-1.174-.242zm-19.67 9.113a22.5 22.5 0 0 0-3.316 3.371l-3.043-.972c-1.454-.465-2.084-.153-2.592 1.072A7788.89 7788.89 0 0 1 5.75 25.92c-.252.607-.322 1.077-.166 1.482.041-.151.095-.31.166-.482a7788.89 7788.89 0 0 0 3.035-7.328c.508-1.225 1.138-1.537 2.592-1.072l3.043.972a22.5 22.5 0 0 1 3.564-3.592l-.248-.779zm28.526.006l-.254.793a22.5 22.5 0 0 1 3.592 3.566l3.023-.968c1.454-.465 2.084-.151 2.592 1.074 1.011 2.443 2.021 4.885 3.035 7.326.072.173.123.332.164.484.157-.405.088-.876-.164-1.484-1.014-2.441-2.024-4.883-3.035-7.326-.508-1.225-1.138-1.539-2.592-1.074l-3.023.968a22.5 22.5 0 0 0-3.338-3.359zM9.59 30.938A22.5 22.5 0 0 0 9.5 32.5a22.5 22.5 0 0 0 .025.406 22.5 22.5 0 0 1 .131-1.935l-.066-.033zm44.814.001l-.074.04a22.5 22.5 0 0 1 .145 2.115 22.5 22.5 0 0 0 .025-.594 22.5 22.5 0 0 0-.096-1.561zM9.596 35.061L6.822 36.49c-1.166.601-1.49 1.182-1.238 2.11.16-.412.554-.758 1.238-1.11l2.848-1.469a22.5 22.5 0 0 1-.074-.96zm44.814.001a22.5 22.5 0 0 1-.066.967l2.834 1.459c.683.352 1.077.698 1.236 1.11.253-.928-.07-1.509-1.236-2.11l-2.768-1.426zM17.738 50.873l-.72 2.25c-.208.647-.25 1.125-.137 1.508.033-.158.078-.326.137-.508l.974-3.043a22.5 22.5 0 0 1-.254-.207zm28.526.006a22.5 22.5 0 0 1-.25.221l.968 3.023c.059.182.104.35.137.508.113-.383.071-.861-.137-1.508l-.718-2.244z" fill="#F9F5D7" opacity=".2"/>
</svg>
