<svg xmlns="http://www.w3.org/2000/svg" width="64" height="64" version="1">
    <path d="M30.106 61.661c-.19-.185-.347-.46-.347-.608 0-.196-.084-.235-.303-.14-.167.073-.98.165-1.808.204l-1.505.07-.275-.516c-.245-.46-.324-.5-.718-.354-1.08.4-2.155.088-2.155-.624 0-.438 0-.439-1.108-.328-.633.063-1.307.037-1.572-.061-.39-.144-.455-.256-.409-.718l.055-.548-1.058-.084c-1.24-.1-1.672-.368-1.523-.948.094-.362.048-.402-.479-.406-.722-.008-1.17-.324-1.343-.948-.108-.394-.214-.47-.585-.428-.705.082-1.085-.62-1.047-1.938.03-1.058-.053-1.234-.414-.882-.103.1-.372.158-.598.126-.522-.072-.64-.898-.258-1.824.305-.742.24-.862-.399-.738-.839.162-1.041-.43-.609-1.78.115-.354.09-.39-.2-.276-.693.274-.85.198-.904-.442-.033-.384.084-.882.307-1.306.372-.71.357-.746-.298-.694-.632.05-.655-.436-.064-1.36.298-.466.541-.906.541-.978s-.195-.216-.433-.322c-.552-.245-.548-.61.016-1.403.478-.67.44-.988-.119-.988-.726 0-.64-.924.178-1.925.411-.503.497-.742.419-1.166-.054-.294-.246-.66-.426-.814s-.328-.424-.328-.6c0-.342.697-1.058 1.344-1.382.461-.23.493-.548.11-1.116-.259-.384-.258-.449.008-.844.159-.235.547-.548.862-.694.315-.146.709-.49.875-.763.288-.475.288-.513-.012-.835-.496-.533-.045-1.133 1.145-1.525 1.238-.408 1.548-.697 1.249-1.163-.435-.678.005-1.111 1.441-1.42.758-.163.954-.382.84-.937-.084-.41-.027-.518.371-.694.42-.185.46-.275.368-.806-.256-1.478-.309-2.33-.15-2.425.092-.056.411-.012.708.097.296.108.582.155.635.104s.008-.672-.1-1.378c-.11-.707-.147-1.553-.083-1.88.104-.545.164-.596.714-.596.694 0 .674.088.342-1.433-.332-1.527-.327-1.708.063-2.086.633-.616.733-2.155.288-4.415-.365-1.85-.277-2.856.249-2.856.18 0 .48.19.667.421.393.486.643.535.793.155.197-.497.108-.921-.394-1.889-.556-1.07-1.06-2.587-1.06-3.187 0-.599.397-.476 1.43.443.98.87 1.788 2.167 2.291 3.676.475 1.425.772 1.181.88-.724.072-1.298.153-1.594.434-1.594.324 0 .689 1.034 1.048 2.976.322 1.739.354 2.34.249 4.64-.067 1.452-.065 2.814.004 3.026l.126.386.4-.487.399-.487.123.477c.067.262.083 1.66.034 3.108-.049 1.447-.054 2.726-.01 2.842.196.53 1.152.013 1.288-.698.123-.642.583-.708 1.373-.2.404.26.976.54 1.271.622.456.127.582.093.83-.228.273-.352.335-.363.869-.15 1.082.428 1.273.363 1.224-.42-.03-.457.045-.768.216-.906.15-.122.266-.506.273-.907.007-.383.072-.842.144-1.022.085-.211-.072-.894-.446-1.937-.95-2.65-.7-4.336.464-3.132.573.593.867.54.867-.153 0-.37-.37-1.273-1.04-2.545-1.41-2.67-1.4-3.344.035-2.459.987.609 1.94 1.703 2.826 3.247.966 1.684 1.207 1.709 1.083.113-.161-2.075.411-2.447 1.257-.818.827 1.594 1.044 2.693 1.23 6.238.095 1.808.243 3.355.33 3.44.093.09.279-.097.46-.466.583-1.19.875-.502 1.03 2.423.128 2.452.115 2.411.694 2.155.408-.18.496-.16.786.188.18.216.326.602.326.859 0 .717.427.972 1.038.62.446-.256.522-.258.763-.024.147.143.314.542.371.886.16.963.39 1.386.752 1.386.453 0 .683.317.816 1.123.167 1.02.328 1.205.734.847.755-.664 1.26.18.823 1.381-.147.406-.268.771-.268.811 0 .04.352.023.78-.04.732-.107.781-.09.781.272 0 .211-.117.511-.261.666-.407.436-.16 1.347.363 1.347.232 0 .488.148.596.345.153.278.104.494-.254 1.117-.55.958-.55.998.02 1.269.636.3.665.514.15 1.108-.531.614-.551.814-.094.93.39.1.478.769.143 1.094-.156.153-.13.279.115.54.264.284.284.415.12.766-.11.233-.395.51-.635.616-.497.22-.557.507-.17.82.205.164.24.396.152.99-.132.89-.33 1.196-.776 1.196-.483 0-.54.254-.16.723.594.735.294 1.379-.466.999-.398-.2-.75-.086-.75.243 0 .138.2.584.446.991.546.906.51 1.489-.1 1.568-.677.088-.768.296-.368.842.474.647.484 1.32.022 1.462-.444.137-.44.495.012 1.113.437.597.378 1.06-.144 1.133-.484.067-.49.226-.026.634.68.598.763.934.316 1.262-.357.262-.379.345-.194.74.456.972.137 1.933-.526 1.588-.397-.207-.364-.241-.623.638-.158.536-.325.74-.711.872-.318.107-.526.31-.562.546-.087.574-.572.796-.97.445-.462-.405-.516-.373-.648.39-.113.648-.463 1.177-.78 1.177-.082 0-.309-.198-.505-.44-.404-.5-.826-.446-.912.117a.897.897 0 0 1-.363.558c-.251.154-.379.097-.722-.32l-.418-.505-.5.463c-.554.513-1.046.6-1.2.211-.14-.356-.368-.316-.961.169-.282.23-.626.42-.766.42-.138 0-.325-.19-.416-.422-.09-.232-.196-.421-.234-.421s-.52.193-1.07.43c-1.174.504-1.832.488-2.076-.053-.114-.252-.262-.344-.434-.272-1.317.556-1.744.645-2.085.437-.287-.173-.54-.165-1.37.044-1.338.337-1.68.324-2.095-.08z" fill="#504945"/>
    <path d="M36.922 45.032a3.375 3.375 0 0 0-.687.064c-1.923.38-4.207 1.772-5.429 3.311-.902 1.137-1.397 2.462-1.518 4.06l-.089 1.19.911.967c1.537 1.634 3.146 2.154 6.414 2.07 1.457-.036 1.964-.117 2.54-.406.967-.485 1.388-1.047 1.63-2.183.257-1.2.124-5.042-.214-6.208-.495-1.708-1.966-2.85-3.558-2.865zm1.759 3.973c.38 0 .444.074.444.521 0 .372-.097.546-.333.606-.306.078-.312.127-.085.654.298.694.32 2.426.037 3.029-.384.82-1.8 1.228-3 .867-.834-.25-1.122-.73-1.125-1.872-.007-2.041 1.875-3.806 4.062-3.806z" opacity=".2"/>
    <path d="M36.922 44.032a3.375 3.375 0 0 0-.687.064c-1.923.38-4.207 1.772-5.429 3.311-.902 1.137-1.397 2.462-1.518 4.06l-.089 1.19.911.967c1.537 1.634 3.146 2.154 6.414 2.07 1.457-.036 1.964-.117 2.54-.406.967-.485 1.388-1.047 1.63-2.183.257-1.2.124-5.042-.214-6.208-.495-1.708-1.966-2.85-3.558-2.865zm1.759 3.973c.38 0 .444.074.444.521 0 .372-.097.546-.333.606-.306.078-.312.127-.085.654.298.694.32 2.426.037 3.029-.384.82-1.8 1.228-3 .867-.834-.25-1.122-.73-1.125-1.872-.007-2.041 1.875-3.806 4.062-3.806z" fill="#928274"/>
    <path d="M37.45 52.708c1.202-.533.999-2.848-.25-2.848-.599 0-1.544 1.05-1.54 1.712.002.644.114.852.603 1.122.442.243.664.246 1.187.014z" fill="#F9F5D7"/>
    <path d="M48.879 55.346c.493-.364.696-1.962.601-4.738-.09-2.638-.32-3.705-.874-4.03-.26-.153-.386-.1-.72.301-.606.731-1.629 3.48-1.649 4.433-.002.109.224-.024.503-.295.357-.348.677-.493 1.085-.493.527 0 .614.076.986.866.47.995.45 2.332-.043 2.81-.589.574-2.392.158-2.587-.595-.043-.164-.053-.046-.021.264.071.712.33 1.014 1.2 1.399.824.364 1.111.379 1.519.078z" opacity=".2"/>
    <path d="M48.879 54.346c.493-.364.696-1.962.601-4.738-.09-2.638-.32-3.705-.874-4.03-.26-.153-.386-.1-.72.301-.606.731-1.629 3.48-1.649 4.433-.002.109.224-.024.503-.295.357-.348.677-.493 1.085-.493.527 0 .614.076.986.866.47.995.45 2.332-.043 2.81-.589.574-2.392.158-2.587-.595-.043-.164-.053-.046-.021.264.071.712.33 1.014 1.2 1.399.824.364 1.111.379 1.519.078z" fill="#928274"/>
    <path d="M48.215 52.462c.389-.378.337-.992-.128-1.518-.52-.587-1.094-.446-1.303.318-.226.826.065 1.465.668 1.465.27 0 .613-.12.763-.265z" fill="#F9F5D7"/>
    <path d="M21.789 2.004c-.124.017-.18.14-.18.365 0 .164.042.4.108.672.176-.128.584.116 1.322.771.978.87 1.788 2.167 2.291 3.676.476 1.426.772 1.18.879-.724.073-1.299.153-1.594.434-1.594.324 0 .689 1.033 1.048 2.975.189 1.019.271 1.674.291 2.482.036-1.389-.033-2.09-.291-3.482-.359-1.942-.724-2.975-1.048-2.975-.281 0-.361.295-.434 1.594-.107 1.905-.403 2.15-.879.724-.503-1.509-1.313-2.806-2.291-3.676-.646-.574-1.043-.838-1.25-.808zm13.787 4.148c-.334-.036-.35.301-.078 1.018.175-.024.459.082.887.346.987.608 1.94 1.704 2.826 3.248.966 1.683 1.206 1.707 1.082.111v-.023c-.088.44-.404.094-1.082-1.088-.886-1.544-1.839-2.64-2.826-3.248-.359-.222-.628-.344-.809-.364zm-13.972.715c-.392 0-.538.56-.438 1.608.058-.393.201-.608.438-.608.179 0 .48.19.667.422.393.486.644.534.793.154.121-.304.117-.596-.007-.988-.151.362-.398.313-.786-.166-.187-.232-.488-.422-.667-.422zm19.134 1.188c-.354-.105-.538.51-.447 1.767.099-1.07.59-1.053 1.26.237.827 1.593 1.044 2.692 1.23 6.238.095 1.807.242 3.353.328 3.437.094.091.28-.096.461-.464.584-1.191.876-.502 1.03 2.423.129 2.452.116 2.411.695 2.155.408-.181.496-.16.785.187.18.216.326.603.326.86 0 .717.427.97 1.039.619.446-.256.521-.258.762-.024.147.143.314.542.371.887.161.962.391 1.385.752 1.385.453 0 .684.317.816 1.123.168 1.019.329 1.205.735.847.42-.369.754-.261.9.104.266-1.045-.205-1.715-.9-1.104-.406.358-.567.174-.735-.845-.132-.806-.363-1.125-.816-1.125-.361 0-.591-.423-.752-1.385-.057-.345-.224-.744-.371-.887-.241-.234-.316-.23-.762.026-.612.351-1.039.096-1.039-.621 0-.257-.146-.644-.326-.86-.289-.347-.377-.368-.785-.187-.579.256-.566.297-.695-2.155-.154-2.925-.446-3.614-1.03-2.423-.181.368-.367.555-.461.464-.086-.084-.233-1.63-.328-3.437-.186-3.546-.403-4.645-1.23-6.238-.317-.611-.597-.94-.813-1.004zm-4.912 3.226c-.304.053-.403.595-.299 1.422.115-.506.449-.595.994-.031.573.593.868.541.868-.152 0-.115-.045-.295-.114-.506-.133.151-.385.039-.754-.342-.29-.301-.523-.421-.695-.391zm-14.23 1.428c-.064.656-.238 1.146-.53 1.43-.304.296-.367.492-.224 1.285.05-.1.123-.186.224-.285.421-.41.584-1.263.53-2.43zm6.312 1.385c-.014.854-.009 1.577.037 1.718l.125.385.401-.486.398-.488.123.476c.028.109.042.5.051.922.008-.929-.003-1.736-.051-1.92l-.123-.478-.398.488-.401.486-.125-.385c-.023-.072-.029-.418-.037-.718zm8.531 2.945a4.6 4.6 0 0 0-.078.725c-.007.401-.123.785-.273.906-.171.138-.246.45-.217.906.05.784-.142.849-1.225.42-.533-.211-.594-.201-.867.15-.249.321-.374.356-.83.229-.295-.082-.867-.363-1.271-.623-.79-.508-1.25-.44-1.373.201-.137.711-1.093 1.228-1.289.697-.013-.032-.011-.324-.016-.519-.012.795-.013 1.443.016 1.519.196.531 1.152.012 1.289-.699.123-.641.583-.707 1.373-.199.404.26.976.541 1.271.623.456.127.581.092.83-.229.273-.351.334-.361.867-.15 1.083.429 1.275.364 1.225-.42-.029-.456.046-.768.217-.906.15-.121.266-.505.273-.906.007-.383.071-.842.143-1.022.044-.109.018-.356-.065-.703zm-15.347.596c-.091.027-.227.023-.43.023-.55 0-.61.051-.715.596-.038.198-.029.593 0 1.025v-.027c.105-.545.165-.594.715-.594.612 0 .652.002.43-1.023zm-2.026 3.662c-.128-.018-.232-.014-.279.014-.097.058-.088.484-.029 1.078.011-.022.014-.07.029-.078.093-.056.413-.014.709.095.297.109.582.157.635.106.042-.041.01-.48-.055-.998-.093.024-.319-.012-.58-.108a2.104 2.104 0 0 0-.43-.109zm-.181 3.039c-.064.073-.155.134-.315.205-.397.176-.455.285-.371.695.114.555-.081.773-.84.936-1.435.308-1.876.743-1.441 1.42.027.042.044.082.061.121.245-.217.696-.394 1.38-.541.759-.163.954-.381.84-.936-.084-.41-.026-.519.371-.695.419-.186.46-.275.368-.807-.03-.17-.029-.245-.053-.398zm-3.106 3.914c-.21.162-.553.323-1.109.506-1.191.392-1.642.993-1.147 1.525.025.026.035.042.055.065.223-.22.587-.424 1.092-.59 1.237-.408 1.547-.698 1.248-1.164a.956.956 0 0 1-.139-.342zm36.867 2.582a6.413 6.413 0 0 0-.429.053 6.677 6.677 0 0 1-.463.049c-.018.06-.028.117-.051.179-.147.406-.267.77-.267.811 0 .04.352.023.781-.039a3.59 3.59 0 0 1 .51-.049c.003-.004.005-.01.009-.014.144-.154.26-.454.26-.666 0-.271-.027-.347-.35-.324zm-39.181.363c-.187.258-.519.551-.805.684-.315.146-.702.458-.861.693-.266.395-.266.461-.008.844.027.039.036.068.059.105.175-.228.516-.506.81-.642.315-.146.709-.49.875-.764.289-.475.288-.513-.012-.836-.025-.027-.037-.056-.058-.084zm39.217 1.709c-.317.458-.077 1.266.418 1.266.173 0 .34.096.468.221.228-.434.257-.641.127-.877a.722.722 0 0 0-.595-.344c-.178 0-.319-.111-.418-.266zm-40.875 1.539c-.043.03-.071.063-.125.09-.647.324-1.344 1.04-1.344 1.381 0 .15.114.357.258.514a3.485 3.485 0 0 1 1.086-.895c.453-.226.486-.541.125-1.09zm41.525 1.385c-.414.736-.391.826.129 1.072.07.034.105.064.16.096.502-.583.47-.797-.16-1.096-.058-.027-.083-.048-.129-.072zm.293 2.162l-.014.018c-.531.614-.551.815-.093.931a.392.392 0 0 1 .15.082c.289-.295.247-.848-.043-1.031zm-42.639.045a2.8 2.8 0 0 1-.314.459c-.653.799-.83 1.54-.51 1.811a3.63 3.63 0 0 1 .51-.811c.411-.503.498-.741.42-1.166-.017-.093-.065-.194-.106-.293zm42.854 1.621a.684.684 0 0 1-.18.377c-.146.143-.116.271.086.5.052-.066.119-.131.149-.195.146-.313.134-.455-.055-.682zm-43.244 1.782c-.469.666-.508 1.02-.162 1.261.057-.095.1-.179.179-.291.441-.618.422-.924-.017-.97zm42.636.535c-.465.218-.52.495-.142.8.05.041.09.086.121.139.009-.054.022-.089.031-.148.06-.4.057-.63-.01-.791zM10.65 43.84c-.056.093-.099.171-.162.269-.498.779-.554 1.242-.183 1.34.058-.111.101-.211.183-.34.298-.466.543-.905.543-.976 0-.066-.171-.191-.381-.293zm41.84 1.115c-.009 0-.015.006-.025.006-.484 0-.54.253-.16.723.024.029.037.058.058.087.271-.075.348-.406.127-.816zm-41.562 1.502c-.044-.004-.125.005-.188.008-.134.347-.221.708-.195 1.006.013.147.032.257.06.347a2.87 2.87 0 0 1 .247-.654c.279-.532.339-.686.076-.707zm40.441.145c-.166.032-.279.141-.279.324 0 .138.2.583.445.99.098.162.155.301.215.441.278-.227.211-.735-.215-1.441-.065-.107-.11-.208-.166-.314zm-39.752 2.255c-.033.006-.083.025-.137.045-.059.362-.053.644.041.823.037-.173.061-.329.127-.537.086-.266.093-.352-.031-.331zm39.571.684c-.42.11-.457.324-.12.785.088.12.142.238.198.356.231-.216.193-.667-.078-1.141zm-38.555 1.385c-.011-.001-.032.004-.043.004-.166.505-.198.967-.074 1.261.037-.158.071-.317.14-.486.229-.556.25-.763-.023-.779zm38.414.888c-.388.15-.378.497.055 1.088.015.022.018.04.033.061.33-.155.34-.551-.033-1.061-.024-.032-.034-.056-.055-.088zm.148 2.124a.561.561 0 0 1-.238.095c-.484.067-.49.226-.025.635.121.107.201.197.285.289.013-.01.017-.017.031-.027.373-.274.351-.561-.053-.992zm-.021 2.052c-.272.213-.288.32-.119.68.054.116.096.23.129.344.104-.25.112-.621-.01-1.024zm-31.235 3.045c.006.013.011.028.018.039l.004-.037-.022-.002z" opacity=".1" fill="#F9F5D7"/>
    <path d="M21.717 3.041c-.07.051-.107.157-.107.328 0 .6.502 2.117 1.058 3.188.194.374.31.65.389.898.002-.005.006-.006.008-.012.195-.496.105-.918-.397-1.886-.405-.78-.776-1.79-.951-2.516zm13.781 4.13c-.413.058-.139.929.852 2.804.464.879.772 1.566.925 2.039.075-.084.114-.247.114-.494 0-.371-.368-1.274-1.04-2.545-.406-.77-.681-1.355-.851-1.803zM21.166 8.476c-.07.48-.011 1.232.19 2.25.149.756.212 1.397.24 1.984.075-.768 0-1.768-.24-2.986a12.79 12.79 0 0 1-.19-1.248zm19.125 1.347c-.025.276-.03.609.002 1.03.038-.187.037-.501 0-.977-.002-.02 0-.033-.002-.053zm-12.309.805c-.009.346-.02.7-.041 1.158a32.748 32.748 0 0 0-.033 2.309c.007-.422.01-.828.033-1.309.044-.952.055-1.587.041-2.158zm7.545 2.076c-.13.575.027 1.693.531 3.102.18.503.304.911.381 1.234.02-.112.04-.235.064-.297.086-.21-.071-.894-.445-1.937-.293-.817-.458-1.524-.531-2.102zm-14.686 2.72c-.142.282-.084.674.162 1.802.04.179.058.27.088.408.22-.067.146-.332-.088-1.408a22.57 22.57 0 0 1-.162-.801zm8.201 1.198c-.003.393-.001.758-.016 1.188A43.087 43.087 0 0 0 29 20.13c.006-.418.01-.824.027-1.322.029-.848.03-1.592.016-2.188zm-9.096 2.658c-.059.339-.023 1.159.084 1.854.022.144.029.248.045.38.013-.003.049.005.055-.001.053-.052.009-.673-.1-1.38a10.058 10.058 0 0 1-.084-.853zm-1.19 3.11c-.094.185-.038.892.128 1.947.103-.118.11-.273.053-.601a17.2 17.2 0 0 1-.18-1.346zm-2.778 5.324c-.176.156-.239.334-.2.537.216-.166.286-.336.2-.537zm35.803 2.123c-.024.091-.044.18-.079.277-.147.406-.267.77-.267.81 0 .024.135.024.318.01.134-.454.13-.84.028-1.097zm-38.201.51c-.276.272-.324.567-.116.85.02-.027.055-.055.07-.08.265-.436.275-.513.046-.77zm39.146 1.49c-.257.29-.236.77-.045 1.068.018-.027.032-.057.054-.082a1.13 1.13 0 0 0 .26-.666c0-.24-.04-.32-.27-.32zm-40.877 1.685c-.013.017-.04.035-.051.051-.266.395-.266.46-.008.844l.016.027c.293-.206.307-.487.043-.922zm41.719.87c-.04.077-.073.146-.127.24-.495.861-.52.985-.11 1.197.04-.07.061-.113.11-.197.358-.623.407-.839.254-1.117-.028-.05-.084-.082-.127-.123zm-42.973 2.037c-.148.185-.258.362-.258.486 0 .176.146.446.326.6.123.104.236.31.322.521a.985.985 0 0 0 .106-.707c-.054-.293-.248-.66-.428-.814-.027-.023-.044-.06-.068-.086zm43.025.568l-.01.012c-.532.614-.552.815-.094.931.04.01.074.03.107.051.44-.514.438-.742-.003-.994zm.046 2.025c-.003.004-.004.009-.007.012-.157.152-.131.277.113.54.029.03.043.055.066.083.046-.244-.01-.5-.172-.635zM10.16 40.305c-.284.637-.188 1.115.332 1.115.044 0 .065.013.102.017.008-.01.01-.018.018-.029.478-.67.44-.99-.12-.99a.49.49 0 0 1-.332-.113zm43.584.228c-.137.175-.312.345-.486.422-.497.22-.557.506-.17.818.067.054.11.121.143.2.011-.006.015-.013.027-.018a1.47 1.47 0 0 0 .635-.617c.165-.351.143-.482-.121-.766-.016-.016-.014-.023-.028-.039zM10.432 42.7c-.35.583-.31.901.165 1.111.02.01.032.02.052.03.21-.347.381-.65.381-.707 0-.072-.195-.217-.433-.323-.073-.032-.111-.074-.165-.11zm42.777.213c-.132.761-.33 1.049-.746 1.049-.483 0-.54.253-.16.723.075.092.138.183.186.271.425-.013.622-.32.752-1.191.066-.447.062-.69-.032-.852zM10.303 45.45c-.36.688-.295 1.065.249 1.022.081-.007.125-.004.187-.006.039-.1.061-.206.111-.301.373-.71.357-.745-.298-.693a.72.72 0 0 1-.249-.022zm41.25.14c-.267-.036-.464.09-.464.337 0 .101.124.378.279.676a.734.734 0 0 1 .47.08c.73.365 1.026-.214.524-.91-.132.036-.306.018-.523-.09a.92.92 0 0 0-.286-.092zm-40.949 2.23c-.055.23-.077.456-.06.652.055.64.211.715.904.441.014-.005.02-.005.031-.01.036-.213.08-.438.168-.715.115-.354.09-.389-.199-.275-.533.21-.747.207-.844-.094zm41.146.54a.605.605 0 0 1-.314.127c-.678.088-.767.296-.367.842.053.072.078.143.119.215.077-.02.143-.043.248-.057.5-.065.592-.482.314-1.127zm-40.229 1.367c-.2.945.027 1.382.737 1.245.141-.028.244-.04.332-.04.025-.076.034-.146.066-.224.306-.742.24-.86-.398-.736-.375.072-.616-.016-.737-.245zm39.744.958a.451.451 0 0 1-.175.107c-.42.13-.427.466-.043 1.025.017-.006.024-.02.043-.025.377-.116.422-.587.175-1.107zm-38.75 1.507c-.166.71-.028 1.281.399 1.34.226.032.496-.025.6-.125.36-.352.442-.177.412.881-.038 1.318.341 2.021 1.047 1.94.37-.043.477.033.585.427.173.624.622.94 1.344.947.526.004.573.045.479.407-.15.58.283.847 1.523.947l1.035.082c-.047-.102-.054-.236-.033-.45l.055-.548-1.057-.084c-1.24-.1-1.673-.367-1.523-.947.094-.362.048-.403-.479-.407-.722-.008-1.17-.323-1.343-.947-.109-.394-.215-.47-.586-.428-.706.082-1.085-.621-1.047-1.939.03-1.058-.051-1.233-.412-.88-.104.1-.374.156-.6.124-.187-.026-.32-.15-.398-.34zm38.62.772c-.057.026-.102.061-.178.072-.484.067-.49.226-.026.635.114.1.186.183.266.27.26-.167.247-.526-.063-.977zm.08 1.996c-.318.238-.338.334-.16.713.05.108.086.214.119.32.026-.02.042-.037.074-.06.367-.27.352-.552-.033-.973zm-.032 2.056c-.115.277-.346.406-.656.245-.397-.207-.364-.241-.623.638-.158.537-.325.74-.71.871-.319.108-.525.31-.561.547-.088.575-.574.797-.973.446-.461-.406-.514-.375-.647.388-.112.648-.462 1.178-.779 1.178-.082 0-.31-.2-.506-.441-.404-.5-.826-.445-.912.119a.9.9 0 0 1-.363.558c-.252.153-.379.097-.723-.32l-.416-.506-.502.463c-.553.512-1.046.6-1.199.21-.14-.355-.368-.316-.96.169-.283.23-.627.42-.767.42-.138 0-.325-.188-.416-.42-.09-.232-.196-.422-.234-.422s-.52.193-1.07.43c-1.174.504-1.832.488-2.076-.053-.114-.251-.262-.344-.434-.271-1.317.555-1.744.645-2.086.437-.286-.174-.539-.166-1.37.043-1.337.337-1.679.324-2.095-.08-.19-.186-.345-.46-.345-.61 0-.195-.086-.234-.305-.138-.167.072-.98.164-1.807.203l-1.506.07-.273-.517c-.245-.46-.325-.5-.719-.354-1.08.4-2.154.09-2.154-.623 0-.438-.002-.438-1.11-.328-.633.063-1.305.035-1.57-.062-.188-.07-.298-.132-.36-.229l-.05.512c-.046.462.02.574.41.718.265.098.937.124 1.57.061 1.108-.11 1.11-.11 1.11.328 0 .712 1.074 1.024 2.154.625.394-.146.474-.107.719.354l.273.515 1.506-.07c.828-.04 1.64-.13 1.807-.203.22-.096.305-.057.305.139 0 .149.154.423.345.609.416.404.758.417 2.096.08.83-.21 1.083-.217 1.369-.043.342.208.769.118 2.086-.437.172-.073.32.02.434.271.244.54.902.557 2.076.053.55-.237 1.032-.43 1.07-.43.038 0 .144.19.234.422.092.232.28.422.418.422.14 0 .484-.19.766-.42.593-.485.82-.526.961-.17.153.388.646.302 1.2-.21l.501-.464.416.506c.344.417.471.474.723.32a.9.9 0 0 0 .363-.558c.086-.563.508-.62.912-.12.196.243.424.442.506.442.317 0 .667-.528.78-1.176.132-.763.185-.796.646-.39.399.35.885.129.972-.446.037-.236.243-.439.561-.547.386-.13.553-.334.711-.87.26-.88.226-.846.623-.64.585.305.9-.405.656-1.243z" opacity=".2"/>
</svg>
