<svg xmlns="http://www.w3.org/2000/svg" width="64" height="64">
    <path d="M10 56v2c0 1.662 1.338 3 3 3h38c1.662 0 3-1.338 3-3v-2c0 1.662-1.338 3-3 3H13c-1.662 0-3-1.338-3-3z" opacity=".2"/>
    <path d="M13 4c-1.662 0-3 1.338-3 3v50c0 1.662 1.338 3 3 3h38c1.662 0 3-1.338 3-3V7c0-1.662-1.338-3-3-3H13z" fill="#448588"/>
    <path d="M13 4c-1.662 0-3 1.338-3 3v50c0 1.662 1.338 3 3 3h5V4z" opacity=".2"/>
    <path d="M13 4c-1.662 0-3 1.338-3 3v1c0-1.662 1.338-3 3-3h38c1.662 0 3 1.338 3 3V7c0-1.662-1.338-3-3-3H13z" opacity=".2" fill="#F9F5D7"/>
    <path d="M46.004 32.994a10.002 10.002 0 0 0-6.001-9.161v9.161H32V23.84A10.002 10.002 0 0 0 26 32.994a10.002 10.002 0 0 0 6.001 9.155V61h8.002V42.156a10.002 10.002 0 0 0 6.001-9.162z" opacity=".2"/>
    <path d="M46.004 31.994a10.002 10.002 0 0 0-6.001-9.161v9.161H32V22.84A10.002 10.002 0 0 0 26 31.994a10.002 10.002 0 0 0 6.001 9.155V60h8.002V41.156a10.002 10.002 0 0 0 6.001-9.162z" fill="#F9F5D7"/>
</svg>
