<svg xmlns="http://www.w3.org/2000/svg" width="64" height="64" version="1">
    <path d="M4 56v2c0 1.662 1.338 3 3 3h50c1.662 0 3-1.338 3-3v-2c0 1.662-1.338 3-3 3H7c-1.662 0-3-1.338-3-3z" opacity=".2"/>
    <rect width="56" height="56" x="4" y="4" rx="3" ry="3" fill="#BE4C1D"/>
    <path d="M7 4C5.338 4 4 5.338 4 7v1c0-1.662 1.338-3 3-3h50c1.662 0 3 1.338 3 3V7c0-1.662-1.338-3-3-3H7z" opacity=".1" fill="#F9F5D7"/>
    <path d="M21.296 15L14 47h5.929l3.444-14h16.184L24.4 45.65l3.952 4.55 2.024-1.042c3.827-1.968 5.432-.817 8.335-.012 2.825.784 5.48 1.623 10.99-1.552l-1.094-5.606c-6.013 4.276-7.915.461-12.197.31l12.26-9.574L50.001 28H24.32l1.654-8h16.833l1.154-4.999H21.298z" opacity=".2"/>
    <path d="M21.296 14L14 46h5.929l3.444-14h16.184L24.4 44.65l3.952 4.55 2.024-1.042c3.827-1.968 5.432-.817 8.335-.012 2.825.784 5.48 1.623 10.99-1.553l-1.094-5.605c-6.013 4.275-7.915.461-12.197.31l12.26-9.574L50.001 27H24.32l1.654-8h16.833l1.154-4.999H21.298z" fill="#F9F5D7"/>
</svg>
