<svg xmlns="http://www.w3.org/2000/svg" width="64" height="64">
    <rect width="56" height="56" x="4" y="5" rx="2.8" ry="2.8" opacity=".2"/>
    <rect width="56" height="56" x="4" y="4" rx="2.8" ry="2.8" fill="#F9F5D7"/>
    <path d="M21 29l18.9 21H21z" opacity=".1"/>
    <path d="M21 28l18.9 21H21z" fill="#9D0006"/>
    <path d="M21 29L39.2 8 21 50z" opacity=".1"/>
    <path d="M21 28L39.2 7 21 49z" fill="#CB241D"/>
    <circle cx="37.5" cy="34.5" r="5.5" opacity=".1"/>
    <circle cx="37.5" cy="33.5" r="5.5" fill="#CB241D"/>
    <path d="M6.8 4C5.25 4 4 5.25 4 6.8v1C4 6.25 5.25 5 6.8 5h50.4C58.75 5 60 6.25 60 7.8v-1C60 5.25 58.75 4 57.2 4H6.8z" opacity=".2" fill="#F9F5D7"/>
</svg>
