<svg xmlns="http://www.w3.org/2000/svg" width="64" height="64" version="1">
    <path d="M40.637 6.015c-9.123.144-28.839 1.542-32.442 7.309-.63 1.662-1.756 7.505-2.306 11.971-.128 1.03-.249 2.344-.373 3.555a12.272 12.315 0 0 0-3.515 8.624 12.272 12.315 0 0 0 2.216 7.05l-.13 1.84c-.167 5.717-.033 5.92 5.395 8.182 4.339 1.808 9.034 2.748 16.169 3.236 6.103.417 12.278.225 16.983-.53 8.275-1.325 15.455-4.033 16.251-6.13.219-.576.548-2.927.732-5.225.038-.464.06-.857.091-1.285A12.272 12.315 0 0 0 62 37.475a12.272 12.315 0 0 0-3.18-8.25c-.36-2.33-.794-4.981-1.374-8.437-1.022-5.366-2.24-10.505-2.706-11.421-1.364-2.674-3.036-3.188-10.919-3.346a77.319 77.319 0 0 0-3.182-.006z" fill="#7F7061"/>
    <path d="M36.959 53.249c1.842-.826 2.629-1.96 1.548-2.233-.363-.092-1.313.195-2.111.638-1.784.99-4.256 1.061-6.435.185-2.736-1.1-4.05-.496-1.866.857 2.417 1.497 6.227 1.735 8.864.553z" fill="#322F2E"/>
    <circle cx="15" cy="38" r="11" opacity=".2"/>
    <circle cx="15" cy="37" r="11" fill="#7CB668"/>
    <circle cx="14" cy="36" r="2" fill="#322F2E"/>
    <circle cx="48.999" cy="38" r="11" opacity=".2"/>
    <circle cx="48.999" cy="37" r="11" fill="#7CB668"/>
    <circle cx="49.999" cy="36" r="2" fill="#322F2E"/>
    <path d="M51.887 12.132c.091.206-5.885 2.64-10.956 4.897-5.07 2.257-7.316 3.481-7.407 3.275-.052-.12 3.072-2.104 5.185-3.126 4.083-1.763 8.196-3.656 13.178-5.046z" fill="#322F2E"/>
    <path d="M47.591 22.617c-.218.058-2.71-2.33-5.088-5.514-2.378-3.183-3.74-5.956-3.524-6.014.218-.057 1.74 2.477 4.117 5.66 2.378 3.184 4.711 5.81 4.494 5.868z" fill="#322F2E"/>
    <path d="M40.637 6.016c-9.124.144-28.838 1.54-32.442 7.308-.63 1.662-1.756 7.505-2.306 11.971-.129 1.03-.25 2.343-.373 3.555A12.272 12.315 0 0 0 2 37.475a12.272 12.315 0 0 0 .021.439 12.272 12.315 0 0 1 3.495-8.062c.124-1.212.244-2.527.373-3.557.55-4.466 1.676-10.309 2.306-11.971C11.8 8.557 31.513 7.16 40.637 7.016h.002a77.643 77.643 0 0 1 3.181.004c7.884.158 9.556.673 10.92 3.347.466.916 1.683 6.054 2.705 11.42.58 3.456 1.015 6.108 1.375 8.438a12.272 12.315 0 0 1 3.157 7.785 12.272 12.315 0 0 0 .023-.535 12.272 12.315 0 0 0-3.18-8.25c-.36-2.33-.795-4.982-1.375-8.438-1.022-5.366-2.239-10.504-2.705-11.42-1.364-2.674-3.036-3.19-10.92-3.347a77.643 77.643 0 0 0-3.18-.004h-.003zM4.152 45.432l-.066.933a54.865 54.865 0 0 0-.028 2.283c.007-.408.014-.8.028-1.283 0 0 .107-1.49.13-1.842a12.272 12.315 0 0 1-.064-.091z" opacity=".1" fill="#F9F5D7"/>
    <path d="M2.022 37.914a12.272 12.315 0 0 0-.022.56 12.272 12.315 0 0 0 2.152 6.957l.065-.908a12.272 12.315 0 0 1-2.196-6.61zm59.954.094a12.272 12.315 0 0 1-2.267 6.603c-.03.429-.055.824-.092 1.287-.184 2.298-.514 4.65-.732 5.225-.797 2.097-7.975 4.805-16.25 6.13-4.705.754-10.881.946-16.984.529-7.134-.488-11.83-1.428-16.168-3.236-4.573-1.906-5.38-2.388-5.424-5.9-.073 4.432.454 4.828 5.424 6.9 4.339 1.808 9.034 2.748 16.168 3.236 6.103.417 12.28.224 16.984-.53 8.275-1.326 15.454-4.034 16.25-6.13.219-.576.548-2.928.733-5.225.037-.464.06-.859.091-1.287A12.272 12.315 0 0 0 62 38.473a12.272 12.315 0 0 0-.023-.467z" opacity=".2"/>
</svg>
