<svg xmlns="http://www.w3.org/2000/svg" width="64" height="64" version="1">
    <path d="M26.269 4a1.442 1.442 0 0 0-1.226 1.138l-1.18 5.996A22.544 22.544 0 0 0 18 14.5l-5.82-1.969c-.605-.208-1.336.063-1.66.614l-5.602 9.711c-.316.558-.178 1.332.309 1.75l4.636 4.07a22.313 22.313 0 0 0-.261 3.324c0 1.136.098 2.234.261 3.325l-4.636 4.07c-.487.418-.625 1.192-.31 1.75l5.602 9.712c.325.55 1.056.822 1.66.612L18 49.502a22.58 22.58 0 0 0 5.863 3.372l1.18 5.992c.12.626.716 1.128 1.356 1.136h11.198c.64-.008 1.24-.51 1.36-1.136l1.18-5.992a22.603 22.603 0 0 0 5.864-3.372l5.816 1.968c.604.21 1.338-.062 1.664-.612l5.602-9.712c.314-.558.178-1.332-.31-1.75l-4.636-4.07c.164-1.09.262-2.188.262-3.325 0-1.136-.1-2.234-.262-3.324l4.636-4.07c.486-.418.624-1.192.31-1.75l-5.602-9.711c-.326-.551-1.06-.822-1.664-.614l-5.816 1.969a22.575 22.575 0 0 0-5.864-3.367l-1.18-5.997c-.12-.627-.72-1.128-1.36-1.136H26.399a2.762 2.762 0 0 0-.13 0z" fill="#7CB668"/>
    <path d="M29 20v9l8-9 8 1-12 13 12 12-8 1-8-8v7l-6 1V21l6-1z" opacity=".2"/>
    <path d="M29 19v9l8-9 8 1-12 13 12 12-8 1-8-8v7l-6 1V20l6-1z" fill="#F9F5D7"/>
    <path d="M26.27 4a1.443 1.443 0 0 0-1.227 1.137l-1.18 5.996A22.537 22.537 0 0 0 18 14.5l-5.82-1.969c-.605-.208-1.336.064-1.66.615l-5.602 9.711c-.201.356-.2.793-.06 1.176.022-.058.03-.121.06-.176l5.602-9.711a1.441 1.441 0 0 1 1.66-.613L18 15.502a22.537 22.537 0 0 1 5.863-3.367l1.18-5.996a1.443 1.443 0 0 1 1.227-1.137h11.328c.64.009 1.239.51 1.359 1.137l1.18 5.996a22.565 22.565 0 0 1 5.865 3.367l5.814-1.969c.604-.208 1.338.063 1.664.613l5.604 9.711c.03.054.037.115.059.172.138-.382.14-.817-.059-1.172l-5.604-9.711c-.326-.55-1.06-.823-1.664-.615L46.002 14.5a22.565 22.565 0 0 0-5.865-3.367l-1.18-5.996c-.12-.628-.719-1.128-1.359-1.137h-11.2a2.731 2.731 0 0 0-.128 0zM9.756 29.584c-.09.794-.154 1.595-.154 2.418 0 .169.015.332.02.5a22.96 22.96 0 0 1 .241-2.824l-.107-.094zm44.486.002l-.105.092c.138.929.216 1.87.24 2.83.004-.17.021-.335.021-.506 0-.822-.065-1.622-.156-2.416zM9.756 35.42l-4.53 3.975c-.438.377-.574 1.037-.368 1.574.08-.217.193-.421.369-.573l4.636-4.07c-.045-.3-.073-.604-.107-.906zm44.488 0c-.034.302-.062.606-.107.906l4.636 4.07c.177.152.29.357.37.575.205-.537.071-1.199-.37-1.576l-4.529-3.975z" opacity=".2" fill="#F9F5D7"/>
    <path d="M59.143 24.029c-.08.22-.192.426-.37.578l-4.636 4.07c.045.301.071.606.106.909l4.53-3.979c.44-.378.577-1.04.37-1.578zm-54.285.004c-.206.537-.07 1.197.37 1.574l4.528 3.977c.035-.303.063-.606.108-.907l-4.637-4.07a1.342 1.342 0 0 1-.37-.575zm4.763 8.469c-.004.167-.02.33-.02.5 0 .823.064 1.623.155 2.418l.107-.094a22.96 22.96 0 0 1-.242-2.824zm44.756.008a22.822 22.822 0 0 1-.24 2.816l.107.094c.091-.795.155-1.595.155-2.418 0-.167-.018-.327-.022-.492zm-49.52 8.46c-.14.384-.14.819.06 1.175l5.602 9.712c.325.55 1.056.822 1.66.612L18 50.502a22.576 22.576 0 0 0 5.864 3.37l1.18 5.993c.12.626.715 1.129 1.355 1.137h11.199c.64-.008 1.24-.511 1.36-1.137l1.179-5.992a22.609 22.609 0 0 0 5.865-3.371l5.815 1.967c.604.21 1.338-.062 1.664-.612l5.603-9.713c.2-.355.198-.789.059-1.172-.022.058-.028.12-.059.174l-5.603 9.711c-.326.55-1.06.823-1.664.613l-5.814-1.969a22.608 22.608 0 0 1-5.865 3.372l-1.18 5.992c-.12.626-.72 1.129-1.36 1.137h-11.2c-.64-.008-1.234-.511-1.354-1.137l-1.18-5.992A22.578 22.578 0 0 1 18 49.502l-5.82 1.969c-.605.21-1.336-.064-1.66-.614l-5.603-9.71c-.03-.055-.038-.119-.06-.177z" opacity=".2"/>
</svg>
