<svg xmlns="http://www.w3.org/2000/svg" width="64" height="64" version="1">
    <rect width="54" height="54" x="-61" y="-57" rx="2.7" ry="2.7" transform="matrix(0 -1 -1 0 0 0)" opacity=".2"/>
    <rect width="54" height="54" x="-60" y="-57" rx="2.7" ry="2.7" transform="matrix(0 -1 -1 0 0 0)" fill="#F9F5D7"/>
    <path d="M19 6v16H3v2h16v18H3v2h16v16h2V44h18v16h2V44h16v-2H41V24h16v-2H41V6h-2v16H21V6h-2zm2 18h18v18H21V24z" opacity=".3"/>
    <path d="M5.7 6A2.693 2.693 0 0 0 3 8.7v1C3 8.202 4.203 7 5.7 7h48.6C55.798 7 57 8.203 57 9.7v-1C57 7.202 55.797 6 54.3 6H5.7z" opacity=".2" fill="#F9F5D7"/>
    <path d="M20.103 23.564L39.436 6.806h16.758v16.758L39.436 42.897z" fill="none" stroke="#8F3F71" stroke-width="1.487"/>
    <path d="M40 3a5 5 0 0 0-5 5 5 5 0 0 0 5 5 5 5 0 0 0 5-5 5 5 0 0 0-5-5zm16 0a5 5 0 0 0-5 5 5 5 0 0 0 5 5 5 5 0 0 0 5-5 5 5 0 0 0-5-5zM20 19a5 5 0 0 0-5 5 5 5 0 0 0 5 5 5 5 0 0 0 5-5 5 5 0 0 0-5-5zm20 0a5 5 0 0 0-5 5 5 5 0 0 0 5 5 5 5 0 0 0 5-5 5 5 0 0 0-5-5zm16 0a5 5 0 0 0-5 5 5 5 0 0 0 5 5 5 5 0 0 0 5-5 5 5 0 0 0-5-5zM20 39a5 5 0 0 0-5 5 5 5 0 0 0 5 5 5 5 0 0 0 5-5 5 5 0 0 0-5-5zm20 0a5 5 0 0 0-5 5 5 5 0 0 0 5 5 5 5 0 0 0 5-5 5 5 0 0 0-5-5z" opacity=".1"/>
    <g transform="matrix(2 0 0 2 -1 0)">
        <circle cx="20.5" cy="11.5" r="2.5" fill="#FA4934"/>
        <circle cx="10.5" cy="21.5" r="2.5" fill="#FA4934"/>
        <circle cx="10.5" cy="11.5" r="2.5" fill="#8F3F71"/>
        <circle cx="20.5" cy="3.5" r="2.5" fill="#8F3F71"/>
        <circle cx="28.5" cy="3.5" r="2.5" fill="#8F3F71"/>
        <circle cx="28.5" cy="11.5" r="2.5" fill="#8F3F71"/>
        <circle cx="20.5" cy="21.5" r="2.5" fill="#8F3F71"/>
    </g>
    <path d="M40 2a5 5 0 0 0-5 5 5 5 0 0 0 5 5 5 5 0 0 0 5-5 5 5 0 0 0-5-5zm16 0a5 5 0 0 0-5 5 5 5 0 0 0 5 5 5 5 0 0 0 5-5 5 5 0 0 0-5-5zM20 18a5 5 0 0 0-5 5 5 5 0 0 0 5 5 5 5 0 0 0 5-5 5 5 0 0 0-5-5zm20 0a5 5 0 0 0-5 5 5 5 0 0 0 5 5 5 5 0 0 0 5-5 5 5 0 0 0-5-5zm16 0a5 5 0 0 0-5 5 5 5 0 0 0 5 5 5 5 0 0 0 5-5 5 5 0 0 0-5-5zM20 38a5 5 0 0 0-5 5 5 5 0 0 0 5 5 5 5 0 0 0 5-5 5 5 0 0 0-5-5zm20 0a5 5 0 0 0-5 5 5 5 0 0 0 5 5 5 5 0 0 0 5-5 5 5 0 0 0-5-5z" fill="none"/>
</svg>
