<svg xmlns="http://www.w3.org/2000/svg" width="64" height="64">
    <circle cx="32" cy="33" r="28" opacity=".2"/>
    <circle cx="32" cy="32" r="28" fill="#F9F5D7"/>
    <path d="M20.719 39c-.155 0-.394.007-.67.027-.093.007-.186.018-.28.028a5.59 5.59 0 0 0-.232.035c-1.012.144-2.072.541-3.303 1.531-.997.766-2.098 1.89-3.246 3.55l3.7 1.99c.67-.448 1.337-1.36 2.2-1.99.575-.416 1.362-.689 1.83-.689.48 0 .81.087 1.116.26.273.155.51.351 1.06.867l.022.022h.002c.413.39.727.675 1.023.91.297.236.578.423.924.62.977.553 2.064.839 3.317.839.313 0 .615-.017.908-.053a6.457 6.457 0 0 0 2.406-.787c.694-.391 1.12-.748 1.95-1.53.285-.268.487-.452.652-.587.164-.136.292-.222.431-.3.305-.173.634-.26 1.114-.26.48 0 .808.087 1.115.26.278.157.51.35 1.082.888.827.781 1.256 1.138 1.95 1.53.243.138.492.26.751.364.776.315 1.624.475 2.563.475.316 0 .621-.018.917-.055.007 0 .013-.003.02-.004a6.503 6.503 0 0 0 2.43-.78c.492-.248.98-.616 1.447-1.022a9.433 9.433 0 0 0 .098-.08c.078-.07.155-.139.232-.211a9.433 9.433 0 0 0 .238-.217l.082-.1c1.31-1.313 2.287-2.758 2.391-2.904l.055-.066-3.698-1.909c.14-.141-.065.062-.13.123-.473.626-1.76 2.099-2.434 2.426a3.015 3.015 0 0 1-1.297.276 3.864 3.864 0 0 1-1.13-.22 3.925 3.925 0 0 1-1.419-.888c-.828-.781-1.254-1.137-1.947-1.53-.977-.552-2.064-.839-3.316-.839-.314 0-.617.017-.91.053a6.384 6.384 0 0 0-2.407.787c-.693.394-1.119.748-1.947 1.53-.571.537-.806.732-1.084.888a1.862 1.862 0 0 1-.492.195 2.63 2.63 0 0 1-.621.065c-.48 0-.81-.085-1.116-.26-.278-.156-.51-.351-1.082-.889-.828-.781-1.256-1.137-1.949-1.53-.977-.552-2.064-.839-3.316-.839zM19 20v4h1.996l.008 8.955v.002l-.008.002.008.008c.004 1.947 1.306 2.956 3.232 3.027a.163.163 0 0 0 .041.006H32v-3.998h-7v-8.676c0-.871-.348-3.326-3.549-3.326zm12.238 0c-1.404 0-2.864.903-3.172 2.402a1.822 1.822 0 0 0-.056.452v.044c-.001.03-.01.056-.01.086v2.147c.027-.047.058-.087.086-.131H32v-1h3v12h4V24h3v1h3.889c.035.048.073.082.107.133.009-.833.014-1.457.014-1.873 0-1.749-1.303-3.26-3.572-3.26z" opacity=".1"/>
    <path d="M20.719 38c-.155 0-.394.007-.67.027-.093.007-.186.018-.28.028-.076.01-.15.021-.232.035-1.012.144-2.072.541-3.303 1.531-.997.766-2.098 1.89-3.246 3.55l3.7 1.99c.67-.448 1.337-1.36 2.2-1.99.575-.416 1.362-.689 1.83-.689.48 0 .81.087 1.116.26.273.155.51.351 1.06.867l.022.022h.002c.413.39.727.675 1.023.91.297.236.578.423.924.62.977.553 2.064.839 3.317.839.313 0 .615-.017.908-.053a6.457 6.457 0 0 0 2.406-.787c.694-.391 1.12-.748 1.95-1.53.285-.268.487-.452.652-.587.164-.136.292-.222.431-.3.305-.173.634-.26 1.114-.26.48 0 .808.087 1.115.26.278.157.51.35 1.082.888.827.781 1.256 1.138 1.95 1.53.243.138.492.26.751.364.776.315 1.624.475 2.563.475.316 0 .621-.018.917-.055.007 0 .013-.003.02-.004a6.503 6.503 0 0 0 2.43-.78c.492-.248.98-.616 1.447-1.022a9.433 9.433 0 0 0 .098-.08c.078-.07.155-.139.232-.211a9.433 9.433 0 0 0 .238-.217l.082-.1c1.31-1.313 2.287-2.758 2.391-2.904l.055-.066-3.698-1.909c.14-.141-.065.062-.13.123-.473.626-1.76 2.099-2.434 2.426a3.015 3.015 0 0 1-1.297.276 3.864 3.864 0 0 1-1.13-.22 3.925 3.925 0 0 1-1.419-.888c-.828-.781-1.254-1.137-1.947-1.53-.977-.552-2.064-.839-3.316-.839-.314 0-.617.017-.91.053a6.384 6.384 0 0 0-2.407.787c-.693.394-1.119.748-1.947 1.53-.571.537-.806.732-1.084.888a1.862 1.862 0 0 1-.492.195 2.63 2.63 0 0 1-.621.065c-.48 0-.81-.085-1.116-.26-.278-.156-.51-.351-1.082-.889-.828-.781-1.256-1.137-1.949-1.53-.977-.552-2.064-.839-3.316-.839z" fill="#8F3F71"/>
    <path d="M31.238 19c-1.404 0-2.864.903-3.172 2.402a1.822 1.822 0 0 0-.056.452v.044c-.001.03-.01.056-.01.086v2.147c.027-.047.058-.087.086-.131H32v-1h3v12h4V23h3v1h3.889c.035.048.073.082.107.133.009-.833.014-1.457.014-1.873 0-1.749-1.303-3.26-3.572-3.26h-11.2z" fill="#3A393A"/>
    <path d="M21.004 31.958v-.004L20.996 23H19v-4h2.45c3.201 0 3.55 2.455 3.55 3.326v8.676h7V35h-7.723a.165.165 0 0 1-.041-.005c-1.927-.072-3.228-1.081-3.232-3.028l-.007-.008z" fill="#3A393A" fill-rule="evenodd"/>
    <path d="M32 4A28 28 0 0 0 4 32a28 28 0 0 0 .021.586A28 28 0 0 1 32 5a28 28 0 0 1 27.979 27.414A28 28 0 0 0 60 32 28 28 0 0 0 32 4z" fill="#F9F5D7" opacity=".2"/>
</svg>
