<svg xmlns="http://www.w3.org/2000/svg" width="64" height="64" version="1">
    <path d="M10 56v2c0 1.662 1.338 3 3 3h38c1.662 0 3-1.338 3-3v-2c0 1.662-1.338 3-3 3H13c-1.662 0-3-1.338-3-3z" opacity=".2"/>
    <path d="M54 57V7c0-1.662-1.338-3-3-3H13c-1.662 0-3 1.338-3 3v50c0 1.662 1.338 3 3 3h38c1.662 0 3-1.338 3-3z" fill="#CB241D"/>
    <path d="M14 9v48h36V25.828L33.172 9H14zm24.828 0L50 20.172V9H38.828z" opacity=".1"/>
    <path d="M14 8v48h36V24.828L33.172 8H14zm24.828 0L50 19.172V8H38.828z" fill="#F9F5D7"/>
    <path d="M13 4c-1.662 0-3 1.338-3 3v1c0-1.662 1.338-3 3-3h38c1.662 0 3 1.338 3 3V7c0-1.662-1.338-3-3-3H13z" opacity=".1" fill="#F9F5D7"/>
    <path d="M32.004 26l-.004.004c-4.195 0-7.779 1.422-9.264 3.435-.124.17-.234.341-.328.518-.09.168-.166.34-.226.514a10 5.498 0 0 0-.041.16c-.035.118-.072.237-.092.357a10 5.498 0 0 0-.049.514c0 .179.019.358.05.535a10 5.498 0 0 0 .137.514 10 5.498 0 0 0 .231.513 10 5.498 0 0 0 .318.5A10 5.498 0 0 0 32 37a10 5.498 0 0 0 9.264-3.436 10 5.498 0 0 0 .002-.005 10 5.498 0 0 0 .271-.424c.016-.028.036-.056.05-.084a10 5.498 0 0 0 .165-.365c.023-.058.052-.114.072-.172a10 5.498 0 0 0 .082-.305c.02-.08.04-.161.053-.242a10 5.498 0 0 0 .041-.465 10 5.498 0 0 0-.053-.547c-.092-.536-.33-1.043-.68-1.517C39.783 27.422 36.198 26 32.005 26zm-9.268 10A10 5.09 0 0 0 22 37.91 10 5.09 0 0 0 32 43a10 5.09 0 0 0 10-5.092A10 5.09 0 0 0 41.264 36 10 5.09 0 0 1 32 39.182 10 5.09 0 0 1 22.736 36zm0 6A10 5.09 0 0 0 22 43.908 10 5.09 0 0 0 32 49a10 5.09 0 0 0 10-5.09 10 5.09 0 0 0-.736-1.91A10 5.09 0 0 1 32 45.184 10 5.09 0 0 1 22.736 42z" opacity=".5"/>
</svg>
