<svg xmlns="http://www.w3.org/2000/svg" width="64" height="64" version="1.0">
    <path d="M50.031 5A9.938 9.938 0 0 1 60 14.952v45.977L13.969 61A9.938 9.938 0 0 1 4 51.048V5.005z" opacity=".2" fill-rule="evenodd"/>
    <path d="M50.031 4A9.938 9.938 0 0 1 60 13.952v45.977L13.969 60A9.938 9.938 0 0 1 4 50.048V4.005z" fill="#066678" fill-rule="evenodd"/>
    <path d="M50.031 4L4 4.004v1L50.031 5A9.94 9.94 0 0 1 60 14.953v-1A9.94 9.94 0 0 0 50.031 4z" opacity=".1" fill="#F9F5D7" fill-rule="evenodd"/>
    <path d="M4 5.004V42.71c1.734 1.988 3.726 3.811 6.025 5.357 4.474 3.009 9.818 5.009 15.106 4.93 5.288-.078 10.544-2.26 14.765-7.588 4.32-5.45 1.243-13.805-2.539-16-3.057-1.431-5.74.938-6.136 2.455 4.705-.366 6.233.382 5.103 4.957-.85 3.34-3.583 5.804-7.078 6.19-7.846.865-13.468-6.695-14.096-14.104C14.266 18.46 21.8 8.025 31.283 5.035l-24.44-.031zm34.87 7.998c-5.289.078-10.545 2.26-14.766 7.588-4.32 5.45-1.243 13.806 2.539 16 3.057 1.431 5.74-.938 6.136-2.455-4.309.271-6.211-.653-5.117-4.885.818-3.056 3.562-5.872 7.092-6.262 7.846-.865 13.67 6.695 14.297 14.104.885 10.449-6.85 20.883-16.334 23.873L60 61V23.29c-1.734-1.989-3.726-3.812-6.025-5.358-4.474-3.009-9.818-5.009-15.106-4.93z" opacity=".2" fill-rule="evenodd"/>
    <path d="M4 4.004V41.71c1.734 1.988 3.726 3.811 6.025 5.357 4.474 3.009 9.818 5.009 15.106 4.93 5.288-.078 10.544-2.26 14.765-7.588 4.32-5.45 1.243-13.805-2.539-16-3.057-1.431-5.74.938-6.136 2.455 4.705-.366 6.233.382 5.103 4.957-.85 3.34-3.583 5.804-7.078 6.19-7.846.865-13.468-6.695-14.096-14.104C14.266 17.46 21.8 7.025 31.283 4.035l-24.44-.031zm34.87 7.998c-5.289.078-10.545 2.26-14.766 7.588-4.32 5.45-1.243 13.806 2.539 16 3.057 1.431 5.74-.938 6.136-2.455-4.309.271-6.211-.653-5.117-4.885.818-3.056 3.562-5.872 7.092-6.262 7.846-.865 13.67 6.695 14.297 14.104.885 10.449-6.85 20.883-16.334 23.873L60 60V22.29c-1.734-1.989-3.726-3.812-6.025-5.358-4.474-3.009-9.818-5.009-15.106-4.93z" fill="#FD8019" fill-rule="evenodd"/>
    <path d="M4 4.004v1h2.844l21.949.027a20.12 20.12 0 0 1 2.49-.996l-24.44-.031H4zm34.87 7.998c-5.289.078-10.545 2.26-14.766 7.588-1.632 2.058-2.207 4.53-2.088 6.93.07-2.077.682-4.157 2.088-5.93 4.221-5.327 9.477-7.51 14.765-7.588 5.288-.079 10.632 1.921 15.106 4.93 2.3 1.546 4.29 3.37 6.025 5.357v-1c-1.734-1.988-3.726-3.811-6.025-5.357-4.474-3.009-9.818-5.009-15.106-4.93zM15.103 26.588c-.025.772-.02 1.545.046 2.32.628 7.41 6.25 14.97 14.096 14.104 3.495-.386 6.227-2.85 7.078-6.19.297-1.201.404-2.132.324-2.855a11.98 11.98 0 0 1-.324 1.855c-.85 3.34-3.583 5.804-7.078 6.19-7.846.865-13.468-6.695-14.096-14.104-.037-.44-.039-.88-.046-1.32zm20.585 1.387c-2.315-.138-4.146 1.657-4.468 2.89.202-.016.366-.016.556-.027 1.007-1.318 3.167-2.558 5.58-1.428 2.354 1.366 4.433 5.118 4.627 9.07.145-4.304-2.076-8.59-4.627-10.07a4.556 4.556 0 0 0-1.668-.435zm-8.3 2.761c-.267 2.808 1.472 3.545 4.841 3.414.264-.347.467-.7.55-1.015-3.282.207-5.162-.286-5.391-2.399zm21.707 7.659c-.322 9.64-7.593 18.8-16.38 21.57l2.495.004c7.92-3.705 14.04-12.508 13.885-21.574z" fill="#F9F5D7" fill-rule="evenodd" opacity=".2"/>
</svg>
