<svg xmlns="http://www.w3.org/2000/svg" width="64" height="64" version="1">
    <rect width="58" height="58" x="-62" y="-61" rx="2.9" ry="2.9" transform="matrix(0 -1 -1 0 0 0)" opacity=".2"/>
    <rect width="58" height="58" x="-61" y="-61" rx="2.9" ry="2.9" transform="matrix(0 -1 -1 0 0 0)" fill="#665C54"/>
    <path d="M15 4v29a17 17 0 0 0 17 17 17 17 0 0 0 17-17 17 17 0 0 0-17-17 17 17 0 0 0-11 4.04V4zm17 18a11 11 0 0 1 11 11 11 11 0 0 1-11 11 11 11 0 0 1-11-11 11 11 0 0 1 11-11zm6 8a3 3 0 0 0-3 3 3 3 0 0 0 3 3 3 3 0 0 0 3-3 3 3 0 0 0-3-3z" opacity=".2"/>
    <path d="M32 15a17 17 0 0 0-17 17 17 17 0 0 0 17 17 17 17 0 0 0 17-17 17 17 0 0 0-17-17zm0 6a11 11 0 0 1 11 11 11 11 0 0 1-11 11 11 11 0 0 1-11-11 11 11 0 0 1 11-11z" fill="#F9F5D7"/>
    <path fill="#F9F5D7" d="M15 3h6v29h-6z"/>
    <circle cx="38" cy="32" r="3" fill="#FD8019"/>
    <path d="M5.898 3A2.891 2.891 0 0 0 3 5.898v1A2.891 2.891 0 0 1 5.898 4h52.204A2.891 2.891 0 0 1 61 6.898v-1A2.891 2.891 0 0 0 58.102 3H5.898z" fill="#F9F5D7" opacity=".1"/>
    <path d="M15 3v1h6V3h-6zm17 12a17 17 0 0 0-11 4.043v1A17 17 0 0 1 32 16a17 17 0 0 1 16.979 16.58A17 17 0 0 0 49 32a17 17 0 0 0-17-17zm6 14a3 3 0 0 0-3 3 3 3 0 0 0 .043.486A3 3 0 0 1 38 30a3 3 0 0 1 2.957 2.514A3 3 0 0 0 41 32a3 3 0 0 0-3-3zm4.979 3.414A11 11 0 0 1 32 43a11 11 0 0 1-10.979-10.414A11 11 0 0 0 21 33a11 11 0 0 0 11 11 11 11 0 0 0 11-11 11 11 0 0 0-.021-.586z" fill="#F9F5D7" opacity=".2"/>
</svg>
