<svg xmlns="http://www.w3.org/2000/svg" width="64" height="64" version="1">
    <path d="M26.574 2.5l-5.568 9.748a.5.5 0 0 1-.434.252H9.434L4.004 22l5.572 9.752a.5.5 0 0 1 0 .496L4.004 42l5.43 9.5h11.138a.5.5 0 0 1 .434.252l5.57 9.748h10.848l5.57-9.748a.5.5 0 0 1 .434-.252h11.138l5.43-9.5-5.572-9.752a.5.5 0 0 1 0-.496L59.996 22l-5.43-9.5H43.428a.5.5 0 0 1-.434-.252L37.424 2.5h-10.85zm-.289 19h11.43a.5.5 0 0 1 .433.252l5.713 10a.5.5 0 0 1 0 .496l-5.713 10a.5.5 0 0 1-.433.252h-11.43a.5.5 0 0 1-.433-.252l-5.713-10a.5.5 0 0 1 0-.496l5.713-10a.5.5 0 0 1 .433-.252z" fill="#F9F5D7"/>
    <path d="M54.857 13l5.714 10-5.714 10H43.43l-5.715-10 5.715-10zM37.714 43l5.715 10-5.715 10H26.286L20.57 53l5.715-10z" opacity=".2"/>
    <path d="M54.857 12l5.714 10-5.714 10H43.43l-5.715-10 5.715-10z" fill="#FD8019"/>
    <path d="M37.714 42l5.715 10-5.715 10H26.286L20.57 52l5.715-10z" fill="#F9F5D7"/>
    <path d="M54.857 33l5.714 10-5.714 10H43.43l-5.715-10 5.715-10z" opacity=".2"/>
    <path d="M54.857 32l5.714 10-5.714 10H43.43l-5.715-10 5.715-10z" fill="#F9F5D7"/>
    <path d="M20.571 33l5.715 10-5.715 10H9.143L3.429 43l5.714-10z" opacity=".2"/>
    <path d="M20.571 32l5.715 10-5.715 10H9.143L3.429 42l5.714-10z" fill="#F9F5D7"/>
    <path d="M20.571 13l5.715 10-5.715 10H9.143L3.429 23l5.714-10z" opacity=".2"/>
    <path d="M20.571 12l5.715 10-5.715 10H9.143L3.429 22l5.714-10z" fill="#F9F5D7"/>
    <path d="M37.714 3l5.715 10-5.715 10H26.286L20.57 13l5.715-10z" opacity=".2"/>
    <path d="M37.714 2l5.715 10-5.715 10H26.286L20.57 12l5.715-10z" fill="#F9F5D7"/>
    <path d="M26.285 2L20.57 12l.285.5 5.43-9.5h11.43l5.43 9.5.285-.5-5.715-10h-11.43z" opacity=".2" fill="#F9F5D7"/>
    <path d="M43.43 12l-.57 1 .285.5.285-.5h11.425l5.43 9.5.285-.5-5.715-10H43.43zM9.145 12L3.43 22l.285.5 5.43-9.5H20.57l.285.5.286-.5-.57-1H9.144zM43.43 32l-5.715 10 .285.5 5.43-9.5h11.425l5.43 9.5.285-.5-5.715-10H43.43zM26.285 42l-.57 1 .285.5.285-.5h11.43l.285.5.285-.5-.57-1h-11.43z" opacity=".2" fill="#F9F5D7"/>
</svg>
