<svg xmlns="http://www.w3.org/2000/svg" width="64" height="64" version="1">
    <path d="M26.269 4.002a1.44 1.44 0 0 0-1.225 1.137l-1.181 5.994a22.532 22.532 0 0 0-5.862 3.369l-5.818-1.97c-.605-.208-1.338.062-1.663.613l-5.6 9.713c-.315.559-.18 1.332.307 1.75l4.637 4.069c-.163 1.09-.262 2.188-.262 3.325s.099 2.234.262 3.325l-4.637 4.068c-.487.419-.622 1.192-.307 1.75l5.6 9.713c.325.55 1.058.82 1.663.612L18 49.502a22.54 22.54 0 0 0 5.863 3.368l1.18 5.994c.12.627.718 1.129 1.357 1.137h11.2c.639-.008 1.237-.51 1.356-1.137l1.182-5.994A22.535 22.535 0 0 0 46 49.502l5.818 1.968c.605.209 1.338-.061 1.663-.612l5.6-9.713c.315-.558.18-1.331-.307-1.75l-4.637-4.068a22.33 22.33 0 0 0 .263-3.325c0-1.137-.1-2.234-.263-3.325l4.637-4.069c.487-.418.622-1.191.307-1.75l-5.597-9.71c-.324-.552-1.058-.822-1.662-.613l-5.819 1.969a22.54 22.54 0 0 0-5.864-3.37L38.96 5.14a1.445 1.445 0 0 0-1.357-1.137h-11.2a2.813 2.813 0 0 0-.131 0z" fill="#066678"/>
    <path d="M20 23v8h8v16h8V31h8v-8H20z" opacity=".2"/>
    <path d="M20 22v8h8v16h8V30h8v-8H20z" fill="#F9F5D7"/>
    <path d="M26.268 4l.002.002a1.44 1.44 0 0 0-1.227 1.137l-1.18 5.994A22.544 22.544 0 0 0 18 14.502l-5.816-1.969c-.605-.208-1.34.061-1.664.612l-5.6 9.712c-.201.357-.2.795-.06 1.178.022-.059.029-.122.06-.178l5.6-9.712c.324-.551 1.059-.82 1.664-.612L18 15.502a22.544 22.544 0 0 1 5.863-3.369l1.18-5.994a1.44 1.44 0 0 1 1.227-1.137L26.268 5H37.6c.638.009 1.235.511 1.355 1.139l1.182 5.992c2.12.829 4.113 1.97 5.863 3.371l5.818-1.969c.605-.208 1.338.061 1.662.612l5.602 9.712c.031.056.038.119.061.178.14-.383.14-.821-.061-1.178l-5.602-9.712c-.324-.551-1.057-.82-1.662-.612L46 14.502a22.538 22.538 0 0 0-5.863-3.371l-1.182-5.992c-.12-.628-.717-1.13-1.355-1.139H26.398a2.817 2.817 0 0 0-.13 0zm27.976 25.582l-.107.094c.139.928.217 1.866.242 2.824.004-.167.021-.329.021-.498 0-.824-.065-1.625-.156-2.42zm-44.486.002a21.2 21.2 0 0 0-.156 2.418c0 .169.017.331.021.498.025-.958.102-1.896.24-2.824l-.105-.092zm0 5.834l-4.531 3.977c-.438.376-.572 1.035-.367 1.572.079-.217.19-.421.367-.572l4.637-4.069c-.046-.301-.071-.605-.106-.908zm44.486.002c-.034.302-.062.606-.107.906l4.638 4.069c.176.151.288.355.368.572.204-.537.071-1.196-.368-1.572l-4.531-3.975z" opacity=".1" fill="#F9F5D7"/>
    <path d="M4.86 24.035c-.206.537-.072 1.195.367 1.572l4.53 3.977c.035-.303.061-.607.106-.908l-4.636-4.07a1.339 1.339 0 0 1-.368-.571zm54.282 0c-.079.217-.19.421-.367.572l-4.638 4.069c.044.3.072.604.107.906l4.531-3.975c.439-.377.572-1.035.367-1.572zM9.623 32.5c-.004.168-.021.332-.021.502 0 .823.065 1.621.156 2.416l.106-.092a23.011 23.011 0 0 1-.24-2.826zm44.756 0a23.039 23.039 0 0 1-.242 2.826l.108.094c.09-.795.156-1.594.156-2.418 0-.17-.017-.334-.022-.502zM4.86 40.967c-.14.383-.14.821.06 1.178l5.6 9.713c.325.55 1.06.82 1.665.61l5.818-1.968c1.748 1.4 3.74 2.54 5.86 3.369l1.183 5.994c.12.628.717 1.128 1.355 1.137h11.2c.64-.008 1.236-.51 1.356-1.137l1.182-5.994A22.522 22.522 0 0 0 46 50.5l5.818 1.97c.605.208 1.337-.061 1.662-.612l5.602-9.713c.201-.357.2-.795.06-1.178-.022.059-.03.123-.06.178l-5.602 9.713c-.325.55-1.057.82-1.662.611L46 49.5a22.531 22.531 0 0 1-5.861 3.37l-1.182 5.993c-.12.628-.717 1.13-1.355 1.137H26.4a1.443 1.443 0 0 1-1.355-1.136l-1.182-5.994a22.543 22.543 0 0 1-5.86-3.37l-5.818 1.97c-.605.208-1.34-.061-1.664-.612l-5.6-9.713c-.032-.056-.039-.12-.061-.178z" opacity=".2"/>
</svg>
