<svg xmlns="http://www.w3.org/2000/svg" width="64" height="64" version="1">
    <rect width="56" height="56" x="4" y="4" rx="3" ry="3" fill="#504945"/>
    <path d="M11.43 35h17.142c.79 0 1.428.638 1.428 1.428V53.57c0 .792-.638 1.43-1.428 1.43H11.429A1.426 1.426 0 0 1 10 53.572V36.43c0-.79.637-1.428 1.429-1.428z" opacity=".2"/>
    <g opacity=".2">
        <path d="M11.43 11H28.57c.79 0 1.428.638 1.428 1.43v17.142c0 .79-.638 1.428-1.428 1.428H11.43A1.426 1.426 0 0 1 10 29.572V12.429c0-.792.637-1.429 1.429-1.429zM35.428 11H52.57c.792 0 1.43.638 1.43 1.43v17.142c0 .79-.638 1.428-1.428 1.428H35.43c-.792 0-1.43-.638-1.43-1.428V12.429c0-.791.637-1.428 1.428-1.428z"/>
    </g>
    <path d="M7 4C5.338 4 4 5.338 4 7v1c0-1.662 1.338-3 3-3h50c1.662 0 3 1.338 3 3V7c0-1.662-1.338-3-3-3H7z" opacity=".1" fill="#F9F5D7"/>
    <g fill="#48B9C7">
        <path d="M11.429 10H28.57c.79 0 1.428.637 1.428 1.429V28.57c0 .79-.638 1.428-1.428 1.428H11.428a1.426 1.426 0 0 1-1.429-1.428V11.428c0-.791.638-1.429 1.429-1.429zM35.428 10h17.143c.792 0 1.43.637 1.43 1.429V28.57c0 .79-.638 1.428-1.428 1.428H35.43c-.792 0-1.43-.638-1.43-1.428V11.43c0-.792.637-1.429 1.429-1.429z"/>
    </g>
    <path d="M11.429 34H28.57c.79 0 1.428.638 1.428 1.428v17.143c0 .792-.638 1.43-1.428 1.43H11.428a1.426 1.426 0 0 1-1.429-1.428V35.429c0-.79.638-1.428 1.429-1.428z" fill="#48B9C7"/>
    <path d="M4 57v1c0 1.662 1.338 3 3 3h50c1.662 0 3-1.338 3-3v-1c0 1.662-1.338 3-3 3H7c-1.662 0-3-1.338-3-3z" opacity=".2"/>
    <circle cx="46" cy="46" r="16" fill="#FA4934"/>
    <path d="M43.926 38l-.176 2.107a6.283 6.285 0 0 0-1.837 1.062L40 40.268 38 43.732l1.738 1.207a6.283 6.285 0 0 0-.096 1.06 6.283 6.285 0 0 0 .092 1.065L38 48.268l2 3.464 1.91-.9a6.283 6.285 0 0 0 1.84 1.056L43.926 54h3.998l.176-2.107a6.283 6.285 0 0 0 1.837-1.062l1.914.901 1.999-3.464-1.738-1.207a6.283 6.285 0 0 0 .096-1.06 6.283 6.285 0 0 0-.092-1.064l1.734-1.203-2-3.464-1.91.9a6.283 6.285 0 0 0-1.84-1.056l-.176-2.112h-3.998zm1.999 5.714A2.285 2.286 0 0 1 48.21 46a2.285 2.286 0 0 1-2.285 2.285A2.285 2.286 0 0 1 43.64 46a2.285 2.286 0 0 1 2.285-2.286z" fill="#F9F5D7"/>
    <path d="M30.025 46.5a16 16.002 0 0 0-.025.498A16 16.002 0 0 0 46 63a16 16.002 0 0 0 16-16.002 16 16.002 0 0 0-.018-.492A16 16.002 0 0 1 46 62a16 16.002 0 0 1-15.975-15.5z" opacity=".2"/>
</svg>
