<svg height="48" width="48" xmlns="http://www.w3.org/2000/svg"><g fill="#fff"><path d="m13 36v-2l2-1 1-1h5l1 1 2 1v2z" fill-opacity=".96831" fill-rule="evenodd"/><path d="m23 26.000001a4.5002861 4.5002861 0 0 1 -4.701972 4.280497 4.5002861 4.5002861 0 0 1 -4.289075-4.694149 4.5002861 4.5002861 0 0 1 4.686312-4.297638 4.5002861 4.5002861 0 0 1 4.306185 4.678458"/><path d="m28.000001 18a3 3 0 0 1 -3.134449 2.853483 3 3 0 0 1 -2.859201-3.129234 3 3 0 0 1 3.124009-2.864909 3 3 0 0 1 2.870608 3.118773" fill-opacity=".947183"/><path d="m34.000001 21a2 2 0 0 1 -2.089633 1.902323 2 2 0 0 1 -1.906134-2.086156 2 2 0 0 1 2.082673-1.90994 2 2 0 0 1 1.913738 2.079182" fill-opacity=".950704"/></g><path d="m18 26 7-8 7 3" fill="none" stroke="#fafafa" stroke-width="3"/><path d="m30 24v2l-3 2 1 4h1v-4h2l1 3h1l1-3h2v4h1l1-4-3-2v-2z" fill="#fff" fill-rule="evenodd"/><rect fill="#68b0dd" height="33" ry="1" width="46" x="1" y="5"/><path d="m2 5c-.554 0-1 .446-1 1v40c0 .284065.1196391.537041.3085938.71875l45.3828122-41.4375c-.179555-.1726705-.421471-.28125-.691406-.28125z" fill="#94c7e8"/><path d="m28.656452 30.580443c1.54728-.485761 2.88247-1.239013 3.92005-2.580443-5.67947 3.282147-11.29776 3.181662-16.966524.02274.462507.659911 1.019444 1.161266 1.669534 1.53758.64812.375236 1.33605.681802 2.02975 1.030271-.29913.373537-.65412.764086-.94651 1.196825-.27832.412323-.5939.556759-1.10257.497613-1.916678-.22275-3.63975-.860602-5.06851-2.194771-.04141-.03879-.08035-.08019-.122372-.118067-.583299-.525343-.826807-1.111704-.77662-1.959886.237324-4.014985 1.23907-7.813798 2.992882-11.422016.08597-.176872.232787-.347109.39344-.461093 1.400973-.994433 2.93742-1.681336 4.63679-1.97826.32442-.05671.65356-.09918.98207-.113756.13354-.0059.27123.08002.40404.176135-2.01954.675108-3.93871 1.488473-5.626569 2.847537 5.799919-2.762815 11.565999-2.899538 17.348289-.07003-1.54569-1.24911-3.33256-2.023174-5.20194-2.634883.13956-.287113.33435-.342346.63286-.31456 2.023.187987 3.82955.9316 5.47856 2.088329.15476.10854.29925.26806.38256.436482 1.2795 2.590368 2.14192 5.315924 2.6308 8.162837.22706 1.323225.34398 2.655637.36718 3.99576.003.188384-.0768.412891-.19281.563451-1.07745 1.397966-2.51364 2.261402-4.20467 2.693291-.65322.166779-1.3344.226152-2.00514.318416-.10389.01429-.26108-.02279-.32335-.09601-.44674-.523587-.87512-1.06254-1.33122-1.623495zm-8.95856-3.580091c.7414-.0018 1.181-.158839 1.56678-.479297.6306-.524209.86588-1.214799.91442-2.016479.0542-.896498-.29386-1.563326-1.03867-2.018239-.76845-.469258-1.57143-.508047-2.34918-.01996-1.24837.783421-1.48286 2.646903-.48956 3.769893.43466.491319.97458.758866 1.39621.764082zm8.18307.03459c.25486-.05847.52166-.08626.76268-.180445 1.48745-.58035 1.96107-2.57755.93256-3.893972-.80146-1.025732-2.29481-1.118168-3.20797-.18912-.604.61443-.79239 1.366152-.68946 2.207359.13638 1.114938 1.11227 2.016708 2.20219 2.056178z" fill="#fff" stroke-width=".056708"/></svg>