<svg xmlns="http://www.w3.org/2000/svg" width="64" height="64" version="1">
    <rect width="56" height="56" x="4" y="5" rx="2.8" ry="2.8" opacity=".2"/>
    <rect width="56" height="56" x="4" y="4" rx="2.8" ry="2.8" fill="#7CB668"/>
    <path d="M28.68 5.093c.323.5.516 1.23.518 1.842.006 1.279-.565 1.686-1.172.834-.34-.478-.993-.88-1.43-.88-.318 0-1.652.814-1.652 1.008 0 .073.304.097.676.055.711-.08.933.062.938.602.004.49-.909 1.549-2.415 2.799-1.94 1.61-2.576 2.316-2.576 2.867 0 .315-.14.545-.534.87l-.534.44.24.51c.33.695.308.854-.194 1.486-.589.741-.654 1.026-.346 1.496.307.468.322 1.61.041 3.099-.242 1.284-.1 3.183.355 4.736.2.686.826 2.469 1.39 3.963 1.2 3.18 1.435 3.956 1.637 5.407.29 2.076-.22 3.754-1.51 4.973-.893.846-1.459 1.038-2.18.736-1.458-.61-2.406-2.56-4.104-8.44-1.725-5.973-3.196-8.436-6.519-10.907-1.3-.966-3.402-2.445-5.216-3.927v18.699c2.15 2.062 4.794 3.804 7.325 5.112.731.378 1.364.744 1.407.812.042.069-.268.169-.69.224-3.268.426-6.104 1.507-8.042 3.238v11.37c0 1.076.61 1.997 1.499 2.463.406.187.846.306 1.291.327h43.412c.815-1.228 1.286-2.713 1.071-3.513-.565-2.1-4.179-2.902-8.277-1.837-.736.192-2.456.756-3.823 1.251-1.815.658-2.687.9-3.23.9-.87 0-1.523-.214-1.649-.543-.144-.375.23-2.275.61-3.11.962-2.103 2.342-2.817 4.187-2.166.744.263.733.263.733.063 0-.087-.195-.353-.43-.589-.595-.595-1.518-.588-3.107.025-.65.25-1.21.426-1.246.39-.036-.037-.108-.594-.158-1.238-.152-1.967.302-2.773 1.537-2.728l.687.027-.439-.362c-.6-.492-.998-.452-1.676.16-.69.624-1.041 1.54-1.041 2.726 0 1.33-.431 1.303-1.128-.074-.62-1.222-.456-2.725.275-2.534.331.087.331.063-.011-.608-.512-1.003-.464-1.926.13-2.567.242-.26.868-1.194 1.393-2.077 1.266-2.125 2.35-3.528 4.04-5.23 3.123-3.145 6.326-5.227 13.356-8.68 4.253-2.088 6.462-3.062 7.808-3.777v-2.287c-1.51.72-3.444 1.492-5.385 2.347-5.12 2.254-9.165 4.276-11.318 5.66-3.537 2.275-6.805 5.226-8.931 8.065-.635.847-1.216 1.542-1.292 1.542-.076 0-.348-.287-.602-.638-.438-.603-.465-.721-.513-2.18l-.051-1.54-.584-.586c-.512-.512-.567-.63-.452-.975.224-.668-.028-1.33-.815-2.137-.645-.663-.726-.81-.66-1.23.093-.585-.19-1.061-.901-1.5-.37-.23-.524-.428-.524-.685 0-.2-.126-.606-.28-.905-1.416-2.737-1.398-3.52.07-2.962.603.229.85.067 1.137-.739.15-.42.416-.837.624-.973.524-.343 1.361-.174 1.826.368.536.627 1.103.942 1.477.823.288-.091.312-.17.232-.855-.261-2.223-.284-2.886-.093-2.886.105 0 .728.546 1.385 1.212 1.01 1.025 1.324 1.47 2.033 2.89.46.922.836 1.831.836 2.019 0 .187.061.34.134.34.176 0 .278-1.275.15-1.87-.082-.377-.051-.487.155-.553.23-.073.2-.202-.302-1.201-.546-1.086-1.21-2.838-1.112-2.936.026-.026.592-.124 1.256-.218 1.475-.208 2.552-.043 3.938.605.524.246.976.447 1.006.447.029 0-.015-.18-.098-.403-.208-.554-1.24-1.594-3.07-3.088-1.566-1.279-2.48-2.183-2.49-2.466-.02-.548-.526-1.731-1.03-2.407-.975-1.307-.81-1.61 1.063-1.943.618-.11.923-.25 1.136-.52.36-.459.376-.69.036-.548-.414.173-1.674.39-1.761.302-.044-.043.189-.373.518-.73.65-.706 1.21-1.685 1.199-2.101-.004-.145-.165.044-.362.422-.442.849-.852 1.148-1.57 1.148-.305 0-.556-.025-.556-.058s.199-.503.441-1.043c.62-1.384.68-2.072.27-2.707l-.027-.043h-.352l-.057.657c-.18 1.715-.783 3.05-1.382 3.05-.118 0-.33-.136-.471-.3-.206-.241-.257-.59-.26-1.8 0-.648-.03-1.234-.105-1.607h-.753c.08 1.073-.181 2.074-.779 2.638-.28.264-.553.48-.608.48-.055-.001-.108-.427-.117-.943-.016-.87-.21-1.675-.572-2.175zM31.35 49.7l.504.294c.782.457 1.164 1.136 1.164 2.069 0 1.243-.244 1.558-1.8 2.31-.744.361-1.949.83-2.675 1.039-1.375.397-3.46.603-3.96.39-.254-.108-.175-.209.66-.823a28.17 28.17 0 0 1 1.907-1.268c.527-.313 1.35-.887 1.829-1.272.788-.636 1.116-1.003 2.068-2.32zm-.265 6.072c.451-.003.704.29 1.186.943.327.442.661.845.744.896.27.167.158.368-.205.368-.195 0-1.05.34-1.9.752-1.659.808-2.62 1.016-3.103.676-.162-.113-.673-.36-1.137-.55-.464-.19-.845-.385-.845-.436 0-.192.834-.861 1.47-1.18a44.462 44.462 0 0 1 2.18-.962c.789-.327 1.26-.506 1.61-.507z" opacity=".2" stroke="#504945" stroke-width=".185" stroke-opacity="0"/>
    <path d="M28.68 4.093c.323.5.516 1.23.518 1.842.006 1.279-.565 1.686-1.172.834-.34-.478-.993-.88-1.43-.88-.318 0-1.652.814-1.652 1.008 0 .073.304.097.676.055.711-.08.933.062.938.602.004.49-.909 1.549-2.415 2.799-1.94 1.61-2.576 2.316-2.576 2.867 0 .315-.14.545-.534.87l-.534.44.24.51c.33.695.308.854-.194 1.486-.589.741-.654 1.026-.346 1.496.307.468.322 1.61.041 3.099-.242 1.284-.1 3.183.355 4.736.2.686.826 2.469 1.39 3.963 1.2 3.18 1.435 3.956 1.637 5.407.29 2.076-.22 3.754-1.51 4.973-.893.846-1.459 1.038-2.18.736-1.458-.61-2.406-2.56-4.104-8.44-1.725-5.973-3.196-8.436-6.519-10.907-1.3-.966-3.402-2.445-5.216-3.927v18.699c2.15 2.062 4.794 3.804 7.325 5.112.731.378 1.364.744 1.407.812.042.069-.268.169-.69.224-3.268.426-6.104 1.507-8.042 3.238v11.37c0 1.076.61 1.997 1.499 2.463.406.187.846.306 1.291.327h43.412c.815-1.228 1.286-2.713 1.071-3.513-.565-2.1-4.179-2.902-8.277-1.837-.736.192-2.456.756-3.823 1.251-1.815.658-2.687.9-3.23.9-.87 0-1.523-.214-1.649-.543-.144-.375.23-2.275.61-3.11.962-2.103 2.342-2.817 4.187-2.166.744.263.733.263.733.063 0-.087-.195-.353-.43-.589-.595-.595-1.518-.588-3.107.025-.65.25-1.21.426-1.246.39-.036-.037-.108-.594-.158-1.238-.152-1.967.302-2.773 1.537-2.728l.687.027-.439-.362c-.6-.492-.998-.452-1.676.16-.69.624-1.041 1.54-1.041 2.726 0 1.33-.431 1.303-1.128-.074-.62-1.222-.456-2.725.275-2.534.331.087.331.063-.011-.608-.512-1.003-.464-1.926.13-2.567.242-.26.868-1.194 1.393-2.077 1.266-2.125 2.35-3.528 4.04-5.23 3.123-3.145 6.326-5.227 13.356-8.68 4.253-2.088 6.462-3.062 7.808-3.777v-2.287c-1.51.72-3.444 1.492-5.385 2.347-5.12 2.254-9.165 4.276-11.318 5.66-3.537 2.275-6.805 5.226-8.931 8.065-.635.847-1.216 1.542-1.292 1.542-.076 0-.348-.287-.602-.638-.438-.603-.465-.721-.513-2.18l-.051-1.54-.584-.586c-.512-.512-.567-.63-.452-.975.224-.668-.028-1.33-.815-2.137-.645-.663-.726-.81-.66-1.23.093-.585-.19-1.061-.901-1.5-.37-.23-.524-.428-.524-.685 0-.2-.126-.606-.28-.905-1.416-2.737-1.398-3.52.07-2.962.603.229.85.067 1.137-.739.15-.42.416-.837.624-.973.524-.343 1.361-.174 1.826.368.536.627 1.103.942 1.477.823.288-.091.312-.17.232-.855-.261-2.223-.284-2.886-.093-2.886.105 0 .728.546 1.385 1.212 1.01 1.025 1.324 1.47 2.033 2.89.46.922.836 1.831.836 2.019 0 .187.061.34.134.34.176 0 .278-1.275.15-1.87-.082-.377-.051-.487.155-.553.23-.073.2-.202-.302-1.201-.546-1.086-1.21-2.838-1.112-2.936.026-.026.592-.124 1.256-.218 1.475-.208 2.552-.043 3.938.605.524.246.976.447 1.006.447.029 0-.015-.18-.098-.403-.208-.554-1.24-1.594-3.07-3.088-1.566-1.279-2.48-2.183-2.49-2.466-.02-.548-.526-1.731-1.03-2.407-.975-1.307-.81-1.61 1.063-1.943.618-.11.923-.25 1.136-.52.36-.459.376-.69.036-.548-.414.173-1.674.39-1.761.302-.044-.043.189-.373.518-.73.65-.706 1.21-1.685 1.199-2.101-.004-.145-.165.044-.362.422-.442.849-.852 1.148-1.57 1.148-.305 0-.556-.025-.556-.058s.199-.503.441-1.043c.62-1.384.68-2.072.27-2.707l-.027-.043h-.352l-.057.657c-.18 1.715-.783 3.05-1.382 3.05-.118 0-.33-.136-.471-.3-.206-.241-.257-.59-.26-1.8 0-.648-.03-1.234-.105-1.607h-.753c.08 1.073-.181 2.074-.779 2.638-.28.264-.553.48-.608.48-.055-.001-.108-.427-.117-.943-.016-.87-.21-1.675-.572-2.175zM31.35 48.7l.504.294c.782.457 1.164 1.136 1.164 2.069 0 1.243-.244 1.558-1.8 2.31-.744.361-1.949.83-2.675 1.039-1.375.397-3.46.603-3.96.39-.254-.108-.175-.209.66-.823a28.17 28.17 0 0 1 1.907-1.268c.527-.313 1.35-.887 1.829-1.272.788-.636 1.116-1.003 2.068-2.32zm-.265 6.072c.451-.003.704.29 1.186.943.327.442.661.845.744.896.27.167.158.368-.205.368-.195 0-1.05.34-1.9.752-1.659.808-2.62 1.016-3.103.676-.162-.113-.673-.36-1.137-.55-.464-.19-.845-.385-.845-.436 0-.192.834-.861 1.47-1.18a44.462 44.462 0 0 1 2.18-.962c.789-.327 1.26-.506 1.61-.507z" fill="#F9F5D7" stroke="#504945" stroke-width=".185" stroke-opacity="0"/>
    <path d="M6.8 4C5.25 4 4 5.25 4 6.8v1C4 6.25 5.25 5 6.8 5h50.4C58.75 5 60 6.25 60 7.8v-1C60 5.25 58.75 4 57.2 4H6.8z" opacity=".2" fill="#F9F5D7"/>
</svg>
