<svg xmlns="http://www.w3.org/2000/svg" width="64" height="64" version="1">
    <path d="M4.05 32c-.011.335-.05.663-.05 1 0 15.512 12.488 28 28 28 15.51 0 27.998-12.488 27.998-28 0-.337-.039-.664-.05-1-.528 15.042-12.776 27-27.95 27S4.578 47.042 4.05 32z" opacity=".2"/>
    <rect width="56" height="56" x="4" y="4" rx="27.999" ry="27.999" fill="#8F3F71"/>
    <path d="M32 4.002C16.488 4.002 4 16.488 4 32c0 .114.011.224.018.336C4.369 17.135 16.71 5 32 5s27.63 12.135 27.982 27.336c.007-.112.018-.223.018-.336A27.938 27.938 0 0 0 32 4.002z" opacity=".1" fill="#F9F5D7"/>
    <path d="M21.074 48.999s2.145 1.01 5.002 1.365c1.157.145 5.558.649 8.933.636 0 0 4.11.004 6.379-.318 2.374-.337 3.718-.767 4.467-1.626.02-.205.361-.873-.561-1.516-2.36-1.646-5.41-2.096-11.333-3.503-6.55-1.647-8.609-3.224-9.587-4.366-.927-1.144.275-3.52 5.553-4.685C32.599 34.336 42 34 42 34c-2.856-2.267-7.664-6.109-8.76-6.972-.96-.757-2.51-1.919-2.676-2.957-.224-1.01 1.366-1.497 2.209-1.553 2.713-.187 6.42.53 9.713 1.185 1.656.33 1.947.281 1.947.281 2.358.112 4.66-1.522 4.567-4.124-.019-2.639-3.126-4.755-6.046-4.847C40 14.999 33 14.999 33 14.999c7.898 1.628 9.617 2.45 10.03 3.4.243.562-.407 1.12-2.583 1.011-2.37-.119-7.226-.693-7.226-.693-4.622-.71-7.441-1.384-8.845.45-.917 1.198.13 2.657.542 3.518 1.835 3.2 4.606 5.396 6.619 6.944.757.582 3.07 1.871 3.07 1.871-7.188-1.965-13.315-.86-16.945 1.048-4.174 2.471-3.46 6.64 3.162 10.538 3.912 2.302 6.26 3.407 12.664 4.194 3.743.597 4.501.841 4.473 1.153-.04.438-4.631.605-5.838.688-3.07.211-11.01-.122-11.05-.122z" opacity=".2"/>
    <path d="M21.074 48s2.145 1.01 5.002 1.366c1.157.144 5.558.648 8.933.635 0 0 4.11.004 6.379-.318 2.374-.337 3.718-.767 4.467-1.626.02-.205.361-.872-.561-1.516-2.36-1.646-5.41-2.096-11.333-3.503-6.55-1.647-8.609-3.224-9.587-4.365-.927-1.144.275-3.52 5.553-4.685C32.599 33.338 42 33 42 33c-2.856-2.267-7.664-6.108-8.76-6.972-.96-.757-2.51-1.918-2.676-2.957-.224-1.01 1.366-1.497 2.209-1.553 2.713-.187 6.42.53 9.713 1.186 1.656.329 1.947.28 1.947.28 2.358.113 4.66-1.522 4.567-4.124-.019-2.639-3.126-4.755-6.046-4.847C40 14 33 14 33 14c7.898 1.628 9.617 2.45 10.03 3.4.243.562-.407 1.12-2.583 1.011-2.37-.119-7.226-.692-7.226-.692-4.622-.711-7.441-1.385-8.845.449-.917 1.198.13 2.658.542 3.518 1.835 3.2 4.606 5.397 6.619 6.944.757.582 3.07 1.872 3.07 1.872-7.188-1.966-13.315-.861-16.945 1.048-4.174 2.47-3.46 6.64 3.162 10.537 3.912 2.302 6.26 3.408 12.664 4.194 3.743.597 4.501.841 4.473 1.153-.04.438-4.631.605-5.838.688-3.07.212-11.01-.122-11.05-.122z" fill="#F9F5D7"/>
</svg>
