<svg xmlns="http://www.w3.org/2000/svg" width="64" height="64" version="1">
    <ellipse cx="13.685" cy="44.822" rx="26.556" ry="19.995" transform="matrix(.8425 -.5387 .4344 .90072 0 0)" opacity=".2"/>
    <ellipse cx="14.123" cy="43.973" rx="26.556" ry="19.995" transform="matrix(.8425 -.5387 .4344 .90072 0 0)" fill="#7B6F64"/>
    <path d="M38.77 9.008a19.677 26.792 49.086 0 0-16.458 4.98 19.677 26.792 49.086 0 0-15.271 25.51 19.677 26.792 49.086 0 1 15.271-24.51 19.677 26.792 49.086 0 1 16.458-4.98 19.677 26.792 49.086 0 1 14.605 8.687 19.677 26.792 49.086 0 1 1.576 6.348 19.677 26.792 49.086 0 0-1.576-7.348A19.677 26.792 49.086 0 0 38.77 9.008z" opacity=".1" fill="#F9F5D7"/>
    <rect width="16" height="16" x="-21" y="-38" rx="8" ry="8" transform="matrix(0 -1 -1 0 0 0)" opacity=".2"/>
    <rect width="16" height="16" x="-20" y="-38" rx="8" ry="8" transform="matrix(0 -1 -1 0 0 0)" fill="#3A393A"/>
    <rect width="10" height="10" x="-18" y="-35" rx="5" ry="5" transform="matrix(0 -1 -1 0 0 0)" opacity=".2"/>
    <rect width="10" height="10" x="-17" y="-35" rx="5" ry="5" transform="matrix(0 -1 -1 0 0 0)" fill="#8F3F71"/>
    <rect width="16" height="16" x="-35" y="-62" rx="8" ry="8" transform="matrix(0 -1 -1 0 0 0)" opacity=".2"/>
    <rect width="16" height="16" x="-34" y="-62" rx="8" ry="8" transform="matrix(0 -1 -1 0 0 0)" fill="#3A393A"/>
    <rect width="10" height="10" x="-32" y="-59" rx="5" ry="5" transform="matrix(0 -1 -1 0 0 0)" opacity=".2"/>
    <rect width="10" height="10" x="-31" y="-59" rx="5" ry="5" transform="matrix(0 -1 -1 0 0 0)" fill="#8F3F71"/>
    <rect width="16" height="16" x="-39" y="-18" rx="8" ry="8" transform="matrix(0 -1 -1 0 0 0)" opacity=".2"/>
    <rect width="16" height="16" x="-38" y="-18" rx="8" ry="8" transform="matrix(0 -1 -1 0 0 0)" fill="#3A393A"/>
    <rect width="10" height="10" x="-36" y="-15" rx="5" ry="5" transform="matrix(0 -1 -1 0 0 0)" opacity=".2"/>
    <rect width="10" height="10" x="-35" y="-15" rx="5" ry="5" transform="matrix(0 -1 -1 0 0 0)" fill="#8F3F71"/>
    <rect width="16" height="16" x="-61" y="-24" rx="8" ry="8" transform="matrix(0 -1 -1 0 0 0)" opacity=".2"/>
    <rect width="16" height="16" x="-60" y="-24" rx="8" ry="8" transform="matrix(0 -1 -1 0 0 0)" fill="#3A393A"/>
    <rect width="10" height="10" x="-58" y="-21" rx="5" ry="5" transform="matrix(0 -1 -1 0 0 0)" opacity=".2"/>
    <rect width="10" height="10" x="-57" y="-21" rx="5" ry="5" transform="matrix(0 -1 -1 0 0 0)" fill="#8F3F71"/>
    <rect width="16" height="16" x="-57" y="-50" rx="8" ry="8" transform="matrix(0 -1 -1 0 0 0)" opacity=".2"/>
    <rect width="16" height="16" x="-56" y="-50" rx="8" ry="8" transform="matrix(0 -1 -1 0 0 0)" fill="#3A393A"/>
    <rect width="10" height="10" x="-54" y="-47" rx="5" ry="5" transform="matrix(0 -1 -1 0 0 0)" opacity=".2"/>
    <rect width="10" height="10" x="-53" y="-47" rx="5" ry="5" transform="matrix(0 -1 -1 0 0 0)" fill="#8F3F71"/>
</svg>
