<svg xmlns="http://www.w3.org/2000/svg" width="64" height="64" version="1">
    <path d="M5.134 23.486l-.215.371c-.315.559-.177 1.332.309 1.75l4.437 3.894c.045-.613.109-1.22.2-1.824l-4.637-4.07c-.04-.036-.06-.084-.094-.122zm53.732 0c-.035.038-.055.087-.094.121l-4.637 4.07c.09.604.154 1.211.2 1.825l4.437-3.895c.486-.418.624-1.191.308-1.75l-.214-.372zm-49.22 8.516c-.017.332-.043.662-.043 1 0 .507.026 1.005.063 1.5l.199-.176c-.115-.766-.18-1.54-.219-2.324zm44.708 0c-.04.784-.104 1.558-.219 2.324l.2.176c.036-.495.062-.993.062-1.5 0-.338-.027-.668-.043-1zm-49.22 8.516c-.394.434-.505 1.114-.215 1.628l5.602 9.71c.325.552 1.055.823 1.66.614L18 50.5a22.548 22.548 0 0 0 5.863 3.371l1.18 5.992c.12.628.716 1.128 1.355 1.137H37.6c.639-.008 1.236-.51 1.356-1.137l1.18-5.992a22.58 22.58 0 0 0 5.859-3.372l5.82 1.969c.605.208 1.335-.063 1.66-.613l5.602-9.711c.29-.514.18-1.195-.215-1.63l-5.387 9.34c-.325.551-1.055.822-1.66.614l-5.822-1.97a22.541 22.541 0 0 1-5.862 3.367l-1.18 5.996c-.118.626-.716 1.128-1.354 1.136H26.395a1.443 1.443 0 0 1-1.355-1.137l-1.178-5.996a22.537 22.537 0 0 1-5.864-3.368l-5.82 1.968c-.604.21-1.335-.062-1.66-.612l-5.386-9.34z" opacity=".2"/>
    <path d="M26.269 4.002a1.44 1.44 0 0 0-1.225 1.138l-1.182 5.993A22.533 22.533 0 0 0 18 14.503l-5.817-1.97c-.605-.208-1.338.062-1.663.613l-5.6 9.712c-.315.559-.18 1.332.307 1.75l4.637 4.068a22.332 22.332 0 0 0-.263 3.325c0 1.137.1 2.234.263 3.325l-4.637 4.069c-.487.418-.622 1.191-.307 1.75l5.6 9.712c.325.55 1.058.82 1.663.612L18 49.501a22.539 22.539 0 0 0 5.862 3.368l1.181 5.994c.12.627.718 1.129 1.356 1.137h11.2c.638-.008 1.236-.51 1.356-1.137l1.181-5.994A22.534 22.534 0 0 0 46 49.501l5.819 1.968c.604.209 1.337-.061 1.662-.612l5.6-9.712c.315-.559.18-1.332-.306-1.75l-4.638-4.069c.164-1.09.263-2.188.263-3.325 0-1.136-.1-2.234-.263-3.325l4.638-4.068c.486-.418.621-1.191.306-1.75l-5.6-9.712c-.325-.551-1.058-.821-1.662-.613l-5.819 1.969a22.539 22.539 0 0 0-5.861-3.37L38.956 5.14A1.445 1.445 0 0 0 37.6 4H26.4a2.813 2.813 0 0 0-.13 0z" fill="#7B6F64"/>
    <path d="M26.252 4c-.594.065-1.079.538-1.188 1.125l-1.187 6a22.63 22.63 0 0 0-5.875 3.375l-5.813-1.938c-.604-.208-1.362.013-1.687.563L5.127 22.5c.038.043.081.087.125.125l.248.223 5.002-8.723c.325-.55 1.083-.77 1.687-.563l5.813 1.938a22.63 22.63 0 0 1 5.875-3.375l1.187-6c.109-.587.594-1.06 1.188-1.125h11.375c.639.009 1.193.498 1.312 1.125l1.188 6c2.12.83 4.126 1.975 5.875 3.375l5.812-1.938c.605-.208 1.363.012 1.688.563l5.002 8.723.248-.223a1.34 1.34 0 0 0 .125-.125l-5.375-9.375c-.325-.55-1.083-.77-1.688-.563L46.002 14.5a22.633 22.633 0 0 0-5.875-3.375l-1.188-6c-.12-.627-.673-1.116-1.312-1.125h-11.25a2.553 2.553 0 0 0-.125 0zM4.812 23.313a1.16 1.16 0 0 0 0 .5 1.617 1.617 0 0 1 0-.5zm54.377 0c.024.157.029.342 0 .5a1.158 1.158 0 0 0 0-.5zM9.69 35.5l-4.437 3.875a1.353 1.353 0 0 0-.125.125l.375.656L9.689 36.5c.023.304.063.598.092.895l.096-.083a23.9 23.9 0 0 1-.188-1.812zm44.623 0a23.993 23.993 0 0 1-.187 1.813l.096.082c.03-.297.07-.591.092-.895l4.187 3.656.375-.656a1.365 1.365 0 0 0-.125-.125L54.312 35.5z" opacity=".1" fill="#F9F5D7"/>
    <path d="M39.4 3C38 3 38 4.467 38 4.467v18.152A11.925 11.925 0 0 0 32.002 21c-6.627 0-12 5.373-12 12s5.373 12 12 12 12-5.373 12-12L44 32.96V9s2.819 2.432 3.77 4.955c.485 1.29.483 2.603-.633 3.627-.907.52-1.204 1.323-1.045 2.023.242 1.063 1.534 1.888 3.33 1.123 2.698-1.407 3.576-3.93 3.576-6.029 0-6.3-7.998-11.7-13.598-11.7z" opacity=".2"/>
    <path d="M39.4 2C38 2 38 3.467 38 3.467v18.152A11.925 11.925 0 0 0 32.002 20c-6.627 0-12 5.373-12 12s5.373 12 12 12 12-5.373 12-12L44 31.96V8s2.819 2.432 3.77 4.955c.485 1.29.483 2.603-.633 3.627-.907.52-1.204 1.323-1.045 2.023.242 1.063 1.534 1.888 3.33 1.123 2.698-1.407 3.576-3.93 3.576-6.029 0-6.3-7.998-11.7-13.598-11.7z" fill="#B7BB25"/>
    <path d="M39.4 2C38 2 38 3.467 38 3.467v1S38 3 39.4 3c5.48 0 13.234 5.171 13.567 11.295.016-.2.031-.401.031-.596C52.998 7.4 45 2 39.4 2zm8.635 12.953c-.094.586-.366 1.141-.898 1.629-.907.52-1.204 1.324-1.045 2.023.012.054.04.103.056.155.136-.44.437-.862.989-1.178.828-.76 1.04-1.679.898-2.629zM32.002 20c-6.627 0-12 5.373-12 12 0 .169.018.333.025.5.265-6.394 5.516-11.5 11.975-11.5 2.188 0 4.232.596 5.998 1.62v-1A11.925 11.925 0 0 0 32.002 20zM44 31.96v.08l.002-.04-.002-.04z" fill="#F9F5D7" opacity=".2"/>
</svg>
