<svg xmlns="http://www.w3.org/2000/svg" width="64" height="64" version="1">
    <rect width="36" height="36" x="-61" y="-60" rx="1.8" ry="1.8" transform="matrix(0 -1 -1 0 0 0)" opacity=".2"/>
    <path d="M5.75 5C4.78 5 4 5.78 4 6.75v31.5c0 .969.78 1.75 1.75 1.75h24.5c.969 0 1.75-.781 1.75-1.75V16l-9.625-1.375L21 5z" opacity=".2"/>
    <path d="M5.75 4C4.78 4 4 4.78 4 5.75v31.5C4 38.22 4.78 39 5.75 39h24.5c.969 0 1.75-.781 1.75-1.75V15l-9.625-1.375L21 4z" fill="#F9F5D7"/>
    <path d="M21 5v9.167c0 1.012.82 1.833 1.833 1.833H32v-1L21 5z" opacity=".1"/>
    <path d="M21 4v9.167C21 14.18 21.82 15 22.833 15H32L21 4z" fill="#F9F5D7"/>
    <path d="M10 19v3h16v-3zM10 25v3h16v-3zM10 31v3h16v-3z" opacity=".5"/>
    <rect width="36" height="36" x="-60" y="-60" rx="1.8" ry="1.8" transform="matrix(0 -1 -1 0 0 0)" fill="#504945"/>
    <path d="M25.8 24c-.996 0-1.8.804-1.8 1.8v1c0-.996.804-1.8 1.8-1.8h32.4c.996 0 1.8.804 1.8 1.8v-1c0-.996-.804-1.8-1.8-1.8H25.8z" fill="#F9F5D7" opacity=".1"/>
    <path d="M34.254 25c-.157.275-.254.59-.254.932v11.2c0 1.035.818 1.868 1.834 1.868h18.332C55.182 39 56 38.167 56 37.133V25.932c0-.343-.097-.657-.254-.932zM47 28h5c.554 0 1 .396 1 .889v6.222c0 .492-.446.889-1 .889h-5c-.554 0-1-.397-1-.889V28.89c0-.493.446-.89 1-.89z" opacity=".2"/>
    <path d="M34.254 24c-.157.275-.254.59-.254.932v11.2c0 1.035.818 1.868 1.834 1.868h18.332C55.182 38 56 37.167 56 36.133V24.932c0-.343-.097-.657-.254-.932H34.254zM47 27h5c.554 0 1 .396 1 .889v6.222c0 .492-.446.889-1 .889h-5c-.554 0-1-.397-1-.889V27.89c0-.493.446-.889 1-.889z" fill="#BDAD93"/>
    <path d="M29.75 40c-.97 0-1.75.843-1.75 1.89V53h28V41.89c0-1.047-.781-1.89-1.75-1.89zm-1.239 16.446zm26.978 0z" fill="#F9F5D7"/>
    <path d="M56 54v2.111C56 57.157 55.219 58 54.25 58h-24.5c-.97 0-1.75-.843-1.75-1.889V54z" opacity=".2"/>
    <path d="M56 53v2.112C56 56.157 55.219 57 54.25 57h-24.5c-.97 0-1.75-.843-1.75-1.888V53z" fill="#8F3F71"/>
    <path d="M5.75 4C4.78 4 4 4.78 4 5.75v1C4 5.78 4.78 5 5.75 5H21V4z" fill="#F9F5D7" opacity=".2"/>
</svg>
