<svg xmlns="http://www.w3.org/2000/svg" width="64" height="64">
    <circle cx="32" cy="33" r="28" opacity=".2"/>
    <circle cx="32" cy="32" r="28" fill="#066678"/>
    <path d="M31.977 13.002A20 20 0 0 0 12 33a20 20 0 0 0 20 20 20 20 0 0 0 20-20 20 20 0 0 0-10.096-17.346 5 5 0 0 1 .057.721v3.803A14 14 0 0 1 46 30a14 14 0 0 1-14 14 14 14 0 0 1-14-14 14 14 0 0 1 11.318-13.729c.64-.794 1.357-1.686 1.676-2.091.293-.374.576-.72.852-1.035.04-.047.09-.098.13-.143zm4.271 3a.515.515 0 0 0-.238.027c-.102.047-.587.608-1.084 1.24-.497.633-1.581 1.983-2.41 3.006a914.604 914.604 0 0 0-3.496 4.354c-2.145 2.689-2.487 3.23-2.84 4.508-.221.797-.24 2.085-.043 2.834.54 2.051 2.346 3.589 4.675 3.984.106.018.472.04.811.045 1.412.021 2.613-.475 3.63-1.502.537-.541.685-.754 1.015-1.445.212-.446.443-1.039.515-1.317.186-.712.275-2.183.178-5.55v-9.811c-.038-.199-.425-.353-.713-.373z" opacity=".2"/>
    <path d="M31.977 12.002A20 20 0 0 0 12 32a20 20 0 0 0 20 20 20 20 0 0 0 20-20 20 20 0 0 0-10.096-17.346 5 5 0 0 1 .057.721v3.803A14 14 0 0 1 46 29a14 14 0 0 1-14 14 14 14 0 0 1-14-14 14 14 0 0 1 11.318-13.729c.64-.794 1.357-1.686 1.676-2.091.293-.374.576-.72.852-1.035.04-.047.09-.098.13-.143zm4.271 3a.515.515 0 0 0-.238.027c-.102.047-.587.608-1.084 1.24-.497.633-1.581 1.983-2.41 3.006a914.604 914.604 0 0 0-3.496 4.354c-2.145 2.689-2.487 3.23-2.84 4.508-.221.797-.24 2.085-.043 2.834.54 2.051 2.346 3.589 4.675 3.984.106.018.472.04.811.045 1.412.021 2.613-.475 3.63-1.502.537-.541.685-.754 1.015-1.445.212-.446.443-1.039.515-1.317.186-.712.275-2.183.178-5.55v-9.811c-.038-.199-.425-.353-.713-.373z" fill="#F9F5D7"/>
    <path d="M32 4A28 28 0 0 0 4 32a28 28 0 0 0 .021.586A28 28 0 0 1 32 5a28 28 0 0 1 27.979 27.414A28 28 0 0 0 60 32 28 28 0 0 0 32 4z" fill="#F9F5D7" opacity=".2"/>
</svg>
