<svg xmlns="http://www.w3.org/2000/svg" width="64" height="64">
    <g opacity=".2">
        <path d="M32.297 33.095c5.816 10.586 3.137 30.72-7.017 24.855-2.969-1.718-4.127-3.523-4.323-5.21-1.559.675-3.7.577-6.676-1.136-11.277-6.51 5.94-18.253 18.009-18.505"/>
        <path d="M32.297 33.095c.409-.008.822-.03 1.239-.066 11.897-1.022 26.592-12.777 16.777-18.439-2.971-1.712-5.114-1.813-6.673-1.14-.195-1.687-1.35-3.492-4.323-5.212-10.775-6.222-12.679 12.481-7.75 23.384.228.506.13 1.051.387 1.52"/>
        <path d="M31.905 33.199c.256 12.075 12.644 28.173 18.504 18.016 1.713-2.972 1.813-5.115 1.14-6.674 1.687-.194 3.492-1.35 5.213-4.322 6.51-11.276-14.27-12.837-24.849-7.02M31.905 33.199c-10.584 5.817-30.72 3.137-24.855-7.016 1.719-2.97 3.524-4.128 5.21-4.323-.674-1.56-.576-3.7 1.138-6.676 6.51-11.277 18.252 5.94 18.505 18.009"/>
    </g>
    <path d="M32.088 32.11a9.942 9.942 0 0 1-.19.01c.001.024.004.049.004.073l.002.006h.01c.057-.03.117-.059.174-.09zm-.184.09c-3.234 1.777-7.358 2.75-11.361 2.97-8.276 3.984-14.03 10.95-6.262 15.434 2.976 1.713 5.117 1.811 6.676 1.136.196 1.687 1.353 3.492 4.322 5.21 6.895 3.982 10.332-4.026 10.014-12.89-1.965-3.703-3.307-7.985-3.389-11.86z" fill="#48B9C7"/>
    <path d="M32.297 32.095c.409-.008.822-.03 1.239-.066 11.897-1.022 26.592-12.777 16.777-18.439-2.971-1.712-5.114-1.813-6.673-1.14-.195-1.687-1.35-3.492-4.323-5.212-10.775-6.222-12.679 12.481-7.75 23.384.228.506.13 1.051.387 1.52" fill="#FA4934"/>
    <path d="M31.905 32.199c.256 12.075 12.644 28.173 18.504 18.016 1.713-2.972 1.813-5.115 1.14-6.674 1.687-.194 3.492-1.35 5.213-4.322 6.51-11.276-14.27-12.837-24.849-7.02" fill="#F9BD2E"/>
    <path d="M31.905 32.199c-10.584 5.817-30.72 3.137-24.855-7.016 1.719-2.97 3.524-4.128 5.21-4.323-.674-1.56-.576-3.7 1.138-6.676 6.51-11.277 18.252 5.94 18.505 18.009" fill="#B7BB25"/>
    <path d="M35.688 6.01c-4.526-.265-6.637 5.264-6.676 11.781.301-7.594 3.57-13.441 10.304-9.553 2.972 1.72 4.13 3.526 4.325 5.213 1.558-.673 3.7-.572 6.672 1.14 2.053 1.185 3.023 2.636 3.181 4.2.215-1.942-.696-3.768-3.181-5.201-2.972-1.713-5.114-1.812-6.672-1.139-.195-1.687-1.353-3.492-4.325-5.213-1.347-.777-2.555-1.166-3.629-1.228zM18.246 10.521c-1.75.092-3.423 1.196-4.848 3.663-1.242 2.157-1.629 3.871-1.494 5.248.095-1.187.536-2.583 1.494-4.248 6.339-10.979 17.63 5.048 18.456 17.04l.05-.025-.002-.006c-.198-9.429-7.407-22-13.656-21.672zM11.98 20.912c-1.605.288-3.305 1.466-4.928 4.272-.839 1.45-1.13 2.743-1.01 3.886.092-.884.407-1.843 1.01-2.886 1.718-2.97 3.524-4.13 5.21-4.325a4.683 4.683 0 0 1-.282-.947z" fill="#F9F5D7" opacity=".2"/>
    <path d="M32.088 32.11a9.942 9.942 0 0 1-.19.01c.001.024.004.049.004.073l.002.006h.01c.057-.03.117-.059.174-.09zm-.184.09c-3.234 1.777-7.358 2.75-11.361 2.97-5.775 2.78-10.314 7.01-9.897 10.838.377-3.548 4.622-7.299 9.897-9.838 4.003-.22 8.127-1.193 11.361-2.97l-.002-.007c0-.024-.003-.05-.004-.074.02 0 .04-.003.061-.004-.021-.306-.048-.614-.055-.916zm0 1c.082 3.875 1.424 8.157 3.389 11.86.01.277.005.55.008.825a30.89 30.89 0 0 0-.008-1.824c-1.802-3.397-3.067-7.277-3.33-10.887l-.049.025h-.01z" fill="#F9F5D7" opacity=".2"/>
    <path d="M46.14 28.89c-4.859-.016-10.26 1.128-14.226 3.31h-.01c.007.322.03.65.053.978 8.98-4.91 25.234-4.524 26.008 2.572.4-4.65-5.2-6.836-11.824-6.86zm5.69 15.598c-.093.017-.188.042-.281.053.184.426.304.9.355 1.418a5.37 5.37 0 0 0-.074-1.47z" fill="#F9F5D7" opacity=".2"/>
</svg>
