<svg xmlns="http://www.w3.org/2000/svg" width="64" height="64" version="1">
    <path d="M10 56v2c0 1.662 1.338 3 3 3h38c1.662 0 3-1.338 3-3v-2c0 1.662-1.338 3-3 3H13c-1.662 0-3-1.338-3-3z" opacity=".2"/>
    <path d="M54 57V7c0-1.662-1.338-3-3-3H13c-1.662 0-3 1.338-3 3v50c0 1.662 1.338 3 3 3h38c1.662 0 3-1.338 3-3z" fill="#FA4934"/>
    <path d="M13 4c-1.662 0-3 1.338-3 3v1c0-1.662 1.338-3 3-3h38c1.662 0 3 1.338 3 3V7c0-1.662-1.338-3-3-3H13z" opacity=".2" fill="#F9F5D7"/>
    <path d="M17 14v3h28v-3H17zm0 7v3h31v-3H17zm0 7v3h28v-3H17zm0 7v3h22v-3H17zm0 7v3h28v-3H17zm0 7v3h22v-3H17z" opacity=".2"/>
    <path d="M17 13v3h28v-3H17zm0 7v3h31v-3H17zm0 7v3h28v-3H17zm0 7v3h22v-3H17zm0 7v3h28v-3H17zm0 7v3h22v-3H17z" fill="#F9F5D7"/>
</svg>
