<svg xmlns="http://www.w3.org/2000/svg" width="64" height="64">
    <g transform="translate(0 -988.362)">
        <rect width="56" height="56" x="-1049.36" y="-60" rx="2.8" ry="2.8" transform="matrix(0 -1 -1 0 0 0)" opacity=".2"/>
        <rect width="56" height="56" x="-1048.36" y="-60" rx="2.8" ry="2.8" transform="matrix(0 -1 -1 0 0 0)" fill="#B57514"/>
        <path d="M18.076 1039.854c-.172-.28.378-1.084 1.052-1.788.674-.703 1.886-1.645 1.886-2.091 0-.447-2.41-6.039-4.257-12.426-2.742-9.486-3.323-11.777-4.417-12.947-.737-.787-1.34-1.629-1.34-1.81 0-.182 2.378-.446 5.284-.436l3.324.012c1.848-.074 1.528.186.247 1.234-.71.582-.87 1.355-.87 1.718 0 .722 1.89 7.713 3.347 12.753.57 1.936 1.103 3.618 2.038 5.323.326.078.762-1.283 2.835-9.004 3.305-12.31 3.36-12.03 4.915-12.03h1.319l2.743 10.624c1.594 6.168 2.955 10.52 3.223 10.434.527-.169 3.875-13.387 4.649-18.093.409-2.487.081-3.22-.577-4.609-.457-.962-.609-1.821-.365-2.059.657-.638 8.2-3.297 9.216-3.297 1.146 0 .848.961-1.062 3.416-2.095 2.693-1.924 5.588-4.035 12.795-1.06 3.618-2.667 8.468-3.45 10.778-.725 2.14-.645 3.77-.68 5.068-.055 2.048.328 3.268 1.466 4.359.966.926 1.477 1.525 1.381 1.911-.141.57-3.704.673-6.975.673-3.77 0-5.89-.209-5.933-.907-.019-.313.72-.725 1.344-1.262 1.517-1.125 1.93-1.663 1.57-3.088-1.11-4.116-3.445-14.95-3.823-15.636-.186-.338-.785-.14-1.097 1.656-.932 4.839-2.812 10.165-3.234 14.533.12.888.553 1.442 1.484 2.152 1.04.794 1.627 1.348 1.666 1.733.068.663-3.572.82-7.241.82-3.177 0-5.439-.195-5.633-.509z" opacity=".2"/>
        <path d="M18.076 1038.854c-.172-.28.378-1.084 1.052-1.788.674-.703 1.886-1.645 1.886-2.091 0-.447-2.41-6.039-4.257-12.426-2.742-9.486-3.323-11.777-4.417-12.947-.737-.787-1.34-1.629-1.34-1.81 0-.182 2.378-.446 5.284-.436l3.324.012c1.848-.074 1.528.186.247 1.234-.71.582-.87 1.355-.87 1.718 0 .722 1.89 7.713 3.347 12.753.57 1.936 1.103 3.618 2.038 5.323.326.078.762-1.283 2.835-9.004 3.305-12.31 3.36-12.03 4.915-12.03h1.319l2.743 10.624c1.594 6.168 2.955 10.52 3.223 10.434.527-.169 3.875-13.387 4.649-18.093.409-2.487.081-3.22-.577-4.609-.457-.962-.609-1.821-.365-2.059.657-.638 8.2-3.297 9.216-3.297 1.146 0 .848.961-1.062 3.416-2.095 2.693-1.924 5.588-4.035 12.795-1.06 3.618-2.667 8.468-3.45 10.778-.725 2.14-.645 3.77-.68 5.068-.055 2.048.328 3.268 1.466 4.359.966.926 1.477 1.525 1.381 1.911-.141.57-3.704.673-6.975.673-3.77 0-5.89-.209-5.933-.907-.019-.313.72-.725 1.344-1.262 1.517-1.125 1.93-1.663 1.57-3.088-1.11-4.116-3.445-14.95-3.823-15.636-.186-.338-.785-.14-1.097 1.656-.932 4.838-2.812 10.165-3.234 14.533.12.888.553 1.442 1.484 2.152 1.04.793 1.627 1.348 1.666 1.733.068.663-3.572.82-7.241.82-3.177 0-5.439-.195-5.633-.509z" fill="#F9BD2E"/>
        <path d="M6.8 992.362c-1.55 0-2.8 1.25-2.8 2.801v1c0-1.551 1.25-2.8 2.8-2.8h50.4c1.55 0 2.8 1.249 2.8 2.8v-1c0-1.551-1.25-2.8-2.8-2.8H6.8zM52.328 1000.362c-1.016 0-8.56 2.658-9.217 3.297-.148.144-.135.532-.011 1.018l.011-.018c.657-.639 8.201-3.297 9.217-3.297.216 0 .362.048.475.12.36-.775.2-1.12-.475-1.12zm-36.045 6.994c-2.906-.01-5.283.254-5.283.436 0 .104.223.438.53.84.846-.145 2.646-.283 4.753-.276l3.324.012c.24-.01.347.005.516.008 1.006-.834 1.17-1.076-.516-1.008l-3.324-.012zm15.836.006c-1.554 0-1.61-.28-4.914 12.03-2.073 7.72-2.508 9.081-2.834 9.003-.935-1.705-1.469-3.385-2.039-5.322-1.284-4.44-2.9-10.386-3.268-12.232-.048.187-.08.359-.08.478 0 .723 1.89 7.715 3.348 12.754.57 1.937 1.104 3.617 2.04 5.322.325.078.76-1.282 2.833-9.004 3.305-12.31 3.36-12.029 4.914-12.029h1.32l2.743 10.623c1.593 6.168 2.956 10.522 3.224 10.436.527-.17 3.875-13.388 4.649-18.094.17-1.035.206-1.76.15-2.361-.024.398-.062.823-.15 1.361-.774 4.706-4.122 17.925-4.649 18.094-.268.086-1.631-4.268-3.224-10.436l-2.743-10.623h-1.32zm10.994 25.4c-.003.223-.006.452-.011.657-.056 2.048.326 3.268 1.464 4.36.473.452.834.826 1.07 1.136.168-.066.292-.14.313-.227.096-.385-.417-.984-1.383-1.91-1.068-1.024-1.453-2.187-1.453-4.015zm-15.226 2.245c-.027.216-.066.44-.086.652.119.887.552 1.44 1.482 2.15.554.423.97.773 1.252 1.07.258-.095.428-.201.414-.335-.04-.385-.626-.94-1.666-1.735-.798-.608-1.214-1.114-1.396-1.802zm-7.055.36c-.362.488-1.19 1.162-1.705 1.7-.674.704-1.223 1.508-1.05 1.787.032.054.145.1.292.147.198-.297.46-.622.758-.934.674-.704 1.887-1.645 1.887-2.092 0-.07-.075-.304-.182-.609zm15.182.048c-.168.602-.685 1.078-1.631 1.78-.623.536-1.361.947-1.342 1.26.011.18.162.325.44.444.259-.207.594-.44.902-.705 1.398-1.037 1.85-1.585 1.63-2.78z" fill="#F9F5D7" opacity=".2"/>
    </g>
</svg>
