<svg xmlns="http://www.w3.org/2000/svg" width="64" height="64" version="1">
    <path d="M25.718 47.738c-.238 1.152-.854 2.34-1.854 3.34l-5.942 5.938c-2.194 2.194-5.28 2.634-6.926.988-.44-.44-.72-.986-.867-1.59-.286 1.372-.028 2.696.867 3.59 1.645 1.646 4.732 1.206 6.926-.988l5.942-5.942c1.606-1.606 2.258-3.688 1.854-5.336zm12.41 0c-.402 1.648.25 3.73 1.856 5.336l5.938 5.942c2.194 2.194 5.284 2.634 6.93.988.894-.894 1.152-2.218.866-3.59-.146.604-.426 1.15-.866 1.59-1.646 1.646-4.736 1.206-6.93-.988l-5.938-5.938c-1-1-1.616-2.188-1.856-3.34z" opacity=".2"/>
    <path d="M22.514 44.158c-1.5-.08-3.22.609-4.591 1.98l-5.939 5.939c-2.194 2.193-2.635 5.283-.99 6.929 1.645 1.645 4.735 1.204 6.93-.99l5.938-5.94c2.194-2.193 2.635-5.283.99-6.928-.617-.617-1.438-.942-2.338-.99zm18.815 0c-.9.048-1.718.373-2.335.99-1.645 1.645-1.204 4.735.99 6.929l5.939 5.939c2.194 2.194 5.283 2.635 6.929.99 1.645-1.646 1.204-4.736-.99-6.93l-5.939-5.938c-1.371-1.371-3.094-2.06-4.594-1.98z" fill="#504945"/>
    <path d="M10 4A10 10 0 0 0 0 14a10 10 0 0 0 10 10 10 10 0 0 0 10-10A10 10 0 0 0 10 4zm44 0a10 10 0 0 0-10 10 10 10 0 0 0 10 10 10 10 0 0 0 10-10A10 10 0 0 0 54 4z" fill="#7CB668"/>
    <path d="M10 4A10 10 0 0 0 0 14a10 10 0 0 0 .021.414A10 10 0 0 1 10 5a10 10 0 0 1 9.973 9.475A10 10 0 0 0 20 14 10 10 0 0 0 10 4zm44 0a10 10 0 0 0-10 10 10 10 0 0 0 .021.414A10 10 0 0 1 54 5a10 10 0 0 1 9.973 9.475A10 10 0 0 0 64 14 10 10 0 0 0 54 4z" opacity=".2" fill="#F9F5D7"/>
    <path d="M4.05 32c-.011.334-.05.662-.05 1 0 15.512 12.488 28 28 28s28-12.488 28-28c0-.338-.04-.666-.05-1C59.422 47.042 47.174 59 32 59S4.578 47.042 4.05 32z" opacity=".2"/>
    <rect width="56" height="56" x="4" y="4" rx="28" ry="28" fill="#7CB668"/>
    <path d="M32 4C16.488 4 4 16.488 4 32c0 .114.011.224.018.336C4.369 17.134 16.71 5 32 5c15.288 0 27.63 12.132 27.984 27.332.007-.11.016-.22.016-.332C60 16.488 47.512 4 32 4z" opacity=".2" fill="#F9F5D7"/>
    <rect width="46" height="46" x="-55" y="-55" rx="23" ry="23" transform="matrix(0 -1 -1 0 0 0)" opacity=".7" fill="#F9F5D7"/>
    <path d="M32 11a3 3 0 0 0-3 3 3 3 0 0 0 3 3 3 3 0 0 0 3-3 3 3 0 0 0-3-3zm11.658 11.004a1.457 1.457 0 0 0-.822.19l-11.982 6.824c-1.635.803-2.255 2.903-1.592 4.119l4.357 7.441c.798 1.364 2.554 1.827 3.938 1.04a2.815 2.815 0 0 0 1.056-3.884l-4.326-7.39 9.99-5.69c.692-.394.929-1.259.53-1.941a1.442 1.442 0 0 0-1.149-.71zM14 29a3 3 0 0 0-3 3 3 3 0 0 0 3 3 3 3 0 0 0 3-3 3 3 0 0 0-3-3zm36 0a3 3 0 0 0-3 3 3 3 0 0 0 3 3 3 3 0 0 0 3-3 3 3 0 0 0-3-3zM32 47a3 3 0 0 0-3 3 3 3 0 0 0 3 3 3 3 0 0 0 3-3 3 3 0 0 0-3-3z" opacity=".7"/>
</svg>
