<svg xmlns="http://www.w3.org/2000/svg" width="64" height="64" version="1">
    <path d="M57.79 59.868s2.742-4.982 2.117-6.047c-.549-.937-5.592-.707-5.592-.707s4.27-5.178 3.593-6.33C57.242 45.649 50 45.01 50 45.01s7.905-2.642 8.132-3.942c.238-1.361-7.08-6.282-7.08-6.282s5.434-9.059 4.924-10.267c-.64-1.517-8.375-1.509-8.375-1.509s3.425-10.972 2.014-11.866c-1.185-.75-14.313 3.322-14.313 3.322s-3.934-9.456-6.124-9.456c-2.204 0-6.861 9.47-6.861 9.47s-7.93-6.273-9.362-5.46c-1.265.72-.694 10.993-.694 10.993z" opacity=".2" fill-rule="evenodd"/>
    <path d="M28.191 19.399c-4.234 0-8.084.254-11.37 1.02C9.643 20.832 4.03 34.394 4 36.39c.005 3.243.84 6.407 2.395 9.074C10.276 53.474 18.475 59 27.973 59a23.84 23.84 0 0 0 12.132-3.32c6.846 2.43 18.074 6.224 18.93 5.125.988-1.268-5.851-11.81-8.96-16.469a23.892 23.892 0 0 0 1.874-9.308c0-13.24-10.517-15.63-23.758-15.63z" opacity=".2"/>
    <path d="M57.79 58.869s2.742-4.982 2.117-6.047c-.549-.937-5.592-.708-5.592-.708s4.27-5.177 3.593-6.33C57.242 44.65 50 44.012 50 44.012s7.905-2.643 8.132-3.942c.238-1.362-7.08-6.282-7.08-6.282s5.434-9.059 4.924-10.268c-.64-1.517-8.375-1.508-8.375-1.508s3.425-10.973 2.014-11.866c-1.185-.75-14.313 3.322-14.313 3.322s-3.934-9.456-6.124-9.456c-2.204 0-6.861 9.47-6.861 9.47s-7.93-6.274-9.362-5.46c-1.265.72-.694 10.993-.694 10.993z" fill="#504945" fill-rule="evenodd"/>
    <path d="M29.178 4.012c-2.204 0-6.862 9.47-6.862 9.47s-7.93-6.274-9.36-5.46c-.686.389-.823 3.516-.813 6.359.03-2.524.212-5.018.812-5.36 1.431-.813 9.361 5.46 9.361 5.46s4.658-9.47 6.862-9.47c2.19 0 6.125 9.456 6.125 9.456s13.127-4.07 14.312-3.32c.174.11.272.374.315.75.058-.9-.015-1.56-.315-1.75-1.185-.75-14.312 3.322-14.312 3.322s-3.935-9.457-6.125-9.457zm18.718 18.006c-.117.39-.294.994-.294.994s7.257-.005 8.279 1.379c.115-.398.163-.711.096-.871-.601-1.425-7.251-1.498-8.08-1.502zm3.573 12.058l-.418.711s5.64 3.792 6.855 5.639c.118-.126.208-.247.227-.356.216-1.237-5.56-5.24-6.664-5.994zm.613 10.18c-1.145.425-2.082.756-2.082.756s6.964.614 7.85 1.71c.137-.402.177-.734.058-.937-.438-.747-3.63-1.253-5.826-1.53zm3.03 7.838c-.456.593-.798 1.02-.798 1.02s5.045-.23 5.594.706l.004.012c.085-.43.116-.805-.004-1.01-.412-.702-3.353-.749-4.797-.728z" fill="#F9F5D7" fill-rule="evenodd" opacity=".1"/>
    <g fill="#48B9C7">
        <path d="M28.191 18.399c-4.234 0-8.084.254-11.37 1.02C9.643 19.832 4 34.011 4 35.39c.005 3.243.84 6.407 2.395 9.074C10.276 52.474 18.475 58 27.973 58c13.24 0 23.976-10.732 23.976-23.972 0-13.24-10.517-15.63-23.758-15.63z"/>
        <path d="M48.475 40.961S60.3 58.184 59.035 59.806c-1.227 1.575-24.223-7.026-24.223-7.026z" fill-rule="evenodd"/>
    </g>
    <path d="M27.974 10.054C14.734 10.054 4 20.788 4 34.028c0 .09.013.177.014.267-.001.095-.014.186-.014.281 0 1.264.102 2.505.295 3.716.062.294.162.544.245.815 1.169 3.815 4.214 5.349 4.214 5.349.739.597 1.658 1.205 2.719 1.807h-.089s2.225 11.85 6.302 11.749c3.084-.076 5.505-6.123 9.426-6 3.917.123 5.507 5.96 9.406 6 2.251.024 4.246-2.858 5.482-6h1.128c3.707 3.45 12.133 6.693 15.785 7.883a.355.355 0 0 0 .118-.09c.894-1.147-5.41-11.565-8.901-16.635a23.879 23.879 0 0 0 1.818-9.142c0-13.24-10.734-23.974-23.974-23.974z" fill="#448588" fill-rule="evenodd"/>
    <circle cx="17" cy="28.012" r="3" opacity=".2"/>
    <circle cx="17" cy="27.012" r="3" fill="#F9F5D7"/>
    <path d="M27.975 10.055C14.735 10.055 4 20.787 4 34.027c0 .09.013.178.014.268-.001.094-.014.186-.014.281 0 .06.007.117.008.176.148-13.113 10.819-23.7 23.967-23.7 13.076 0 23.699 10.472 23.96 23.485.004-.17.012-.339.012-.51 0-13.24-10.732-23.972-23.972-23.972zm22.4 33.48c-.08.212-.16.426-.246.635 3.01 4.37 8.099 12.7 8.877 15.654.007-.007.02-.012.025-.02.875-1.121-5.126-11.089-8.656-16.269z" fill="#F9F5D7" fill-rule="evenodd" opacity=".1"/>
</svg>
