<svg xmlns="http://www.w3.org/2000/svg" width="64" height="64" version="1">
    <path d="M18.077 11c-6.968 0-12.213 5.506-12.58 12.323l-1.396 26.02c-.881 5.087 4.156 8.3 8.386 2.737L20 41h23l8.566 11.424c4.197 5.534 8.927.98 8.392-2.766l-1.375-25.917c.004-.14.02-.276.02-.418C58.603 16.496 52.99 11 46.023 11H18.075z" opacity=".2"/>
    <path d="M18.077 10c-6.968 0-12.213 5.506-12.58 12.324L4.102 48.343c-.881 5.088 4.156 8.3 8.386 2.738L20 40h23l8.566 11.425c4.197 5.533 8.927.98 8.392-2.766l-1.375-25.917c.004-.14.02-.276.02-.418C58.603 15.496 52.99 10 46.023 10H18.075z" fill="#8F3F71"/>
    <path d="M16 17v4h-4v4h4v4h4v-4h4v-4h-4v-4h-4zm30 0a2 2 0 0 0-2 2 2 2 0 0 0 2 2 2 2 0 0 0 2-2 2 2 0 0 0-2-2zm-4 4a2 2 0 0 0-2 2 2 2 0 0 0 2 2 2 2 0 0 0 2-2 2 2 0 0 0-2-2zm8 0a2 2 0 0 0-2 2 2 2 0 0 0 2 2 2 2 0 0 0 2-2 2 2 0 0 0-2-2zm-4 4a2 2 0 0 0-2 2 2 2 0 0 0 2 2 2 2 0 0 0 2-2 2 2 0 0 0-2-2z" opacity=".2"/>
    <path d="M16 16v4h-4v4h4v4h4v-4h4v-4h-4v-4h-4zM46 16a2 2 0 0 0-2 2 2 2 0 0 0 2 2 2 2 0 0 0 2-2 2 2 0 0 0-2-2zM42 20a2 2 0 0 0-2 2 2 2 0 0 0 2 2 2 2 0 0 0 2-2 2 2 0 0 0-2-2zM50 20a2 2 0 0 0-2 2 2 2 0 0 0 2 2 2 2 0 0 0 2-2 2 2 0 0 0-2-2zM46 24a2 2 0 0 0-2 2 2 2 0 0 0 2 2 2 2 0 0 0 2-2 2 2 0 0 0-2-2z" fill="#F9F5D7"/>
    <path d="M18.088 10C11.129 10 5.89 15.506 5.525 22.324l-1.394 26.02a6.204 6.204 0 0 0-.053 1.605c.015-.2.017-.396.053-.605l1.394-26.02C5.891 16.506 11.13 11 18.088 11h27.91c6.79 0 12.274 5.235 12.54 11.83.008-.169.025-.335.025-.506C58.563 15.497 52.957 10 45.998 10h-27.91z" opacity=".1" fill="#F9F5D7"/>
</svg>
