<svg xmlns="http://www.w3.org/2000/svg" width="64" height="64" version="1">
    <path d="M9.667 5a5.668 6.346 0 0 0-5.261 8.704l15.472 43.307a5.668 6.346 0 0 0 5.02 3.983 5.668 6.346 0 0 0 4.135-1.73l19.972-21.146a5.668 6.346 0 0 0 1.246-1.93l9.218-22.16A5.668 6.346 0 0 0 54.331 5H9.667z" opacity=".2" fill-rule="evenodd"/>
    <path d="M9.667 4a5.668 6.346 0 0 0-5.261 8.704l15.472 43.307a5.668 6.346 0 0 0 5.02 3.983 5.668 6.346 0 0 0 4.135-1.73l19.972-21.146a5.668 6.346 0 0 0 1.246-1.93l9.218-22.16A5.668 6.346 0 0 0 54.331 4H9.667z" fill="#504945" fill-rule="evenodd"/>
    <path d="M10 11c.649 2.21 13.474 39.212 15.242 44L31 48.801V11zm26.7 0c-.092.912-.545 7.77-1.06 16.031-.547 8.795-1.042 16.532-1.1 17.192-.026.283-.04.5-.044.672l3.629-3.961C39.236 36.223 44.067 13.506 44.48 11zm9.933 0c-.566 2.143-6.086 24.839-6.836 28.105l2.027-2.21C43.367 32.39 49.433 13.365 50.07 11zm5.191 0c-.716 1.775-7.475 21.464-8.23 23.965l1.324-1.45C46.995 28.7 53.463 12.715 54 11z" opacity=".2"/>
    <path d="M10 10c.649 2.21 13.474 39.212 15.242 44L31 47.801V10zm26.7 0c-.092.912-.545 7.77-1.06 16.031-.547 8.795-1.042 16.532-1.1 17.192-.026.283-.04.5-.044.672l3.629-3.961C39.236 35.223 44.067 12.506 44.48 10zm9.933 0c-.566 2.143-6.086 24.839-6.836 28.105l2.027-2.21C43.367 31.39 49.433 12.365 50.07 10zm5.191 0c-.716 1.775-7.475 21.464-8.23 23.965l1.324-1.45C46.995 27.7 53.463 11.715 54 10z" fill="#F9BD2E"/>
    <path d="M9.668 4a5.668 6.346 0 0 0-5.64 6.822A5.668 6.346 0 0 1 9.667 5h44.664a5.668 6.346 0 0 1 5.643 5.86A5.668 6.346 0 0 0 54.332 4H9.668z" opacity=".1" fill="#F9F5D7" fill-rule="evenodd"/>
    <path d="M10 10c.015.053.185.545.342 1H30v-1H10zm26.7 0c-.092.912-.545 7.77-1.06 16.031-.547 8.795-1.042 16.532-1.1 17.192-.026.283-.04.5-.044.672l.068-.075c.078-.964.542-8.2 1.077-16.789.514-8.262.967-15.12 1.058-16.031h7.574c.091-.432.193-.911.207-1H36.7zm9.933 0c-.566 2.143-6.086 24.839-6.836 28.105l.326-.357c1.12-4.766 5.97-24.706 6.51-26.748h3.125c.134-.425.286-.903.312-1h-3.437zm5.191 0c-.716 1.775-7.475 21.464-8.23 23.965l.517-.569C45.665 28.642 51.17 12.622 51.824 11h1.783c.17-.426.366-.915.393-1h-2.176z" opacity=".2" fill="#F9F5D7"/>
</svg>
