<svg xmlns="http://www.w3.org/2000/svg" width="64" height="64" version="1">
    <path d="M4 56v2c0 1.662 1.338 3 3 3h50c1.662 0 3-1.338 3-3v-2c0 1.662-1.338 3-3 3H7c-1.662 0-3-1.338-3-3z" opacity=".2"/>
    <path d="M6.8 4c-.775 0-1.476.312-1.982.818L32 32 59.18 4.818A2.789 2.789 0 0 0 57.2 4H6.8z" fill="#066678"/>
    <path d="M6.8 60a2.793 2.793 0 0 1-1.982-.818L32 32 59.18 59.182A2.791 2.791 0 0 1 57.2 60H6.8z" fill="#8F3F71"/>
    <path d="M60 6.8c0-.775-.312-1.475-.818-1.982L32 32l27.182 27.182A2.791 2.791 0 0 0 60 57.2V6.8z" fill="#7CB668"/>
    <path d="M4 6.8c0-.775.312-1.475.818-1.982L32 32 4.818 59.182A2.789 2.789 0 0 1 4 57.2V6.8z" fill="#CB241D"/>
    <path d="M34.545 9.002c-1.18 0-2.213.143-3.1.428-.879.276-1.636.663-2.271 1.16a6.6 6.6 0 0 0-1.563 1.732c-.407.668-.732 1.092-.976 1.873a13.676 13.676 0 0 0-.5 2.43 24.23 24.23 0 0 0-.135 2.55h.002c0 1.344.16 2.507.477 3.491.325.977.766 1.787 1.328 2.43a5.446 5.446 0 0 0 2.002 1.44c.765.308 1.588.464 2.466.464.896 0 1.702-.138 2.416-.414a5.1 5.1 0 0 0 1.832-1.22c.505-.538.89-1.189 1.159-1.954.276-.765.416-1.631.416-2.6 0-.903-.114-1.704-.342-2.404-.228-.7-.557-1.39-.988-1.87a4.124 4.124 0 0 0-1.563-1.099c-.618-.252-1.315-.378-2.088-.378a5 5 0 0 0-1.306.158 4.103 4.103 0 0 0-1.038.44c-.309.178-.582.499-.818.759a4.421 4.421 0 0 0-.586.818h-.146c.04-.83.147-1.588.318-2.271.18-.684.476-.969.89-1.457.416-.488.976-.868 1.684-1.137.708-.277 1.613-.414 2.711-.414.35 0 .695.023 1.037.072.35.041.68.099.989.172V9.186a7.154 7.154 0 0 0-1.135-.135 15.267 15.267 0 0 0-.61-.035 14.358 14.358 0 0 0-.562-.014zm-2.295 9.05c.74 0 1.29.254 1.648.759.367.496.55 1.18.55 2.05 0 .537-.059 1-.173 1.391-.105.39-.259.716-.462.977a1.92 1.92 0 0 1-.708.574c-.268.122-.57.183-.904.183a1.91 1.91 0 0 1-1.074-.306 2.754 2.754 0 0 1-.77-.793 4.105 4.105 0 0 1-.462-1.112 5.412 5.412 0 0 1-.147-1.244c0-.3.056-.597.17-.89.122-.293.294-.56.514-.795.22-.236.483-.426.793-.573.309-.146.65-.22 1.025-.22zM45 25v9.004l.855.807c.155-.05.34-.095.551-.135a10.533 10.533 0 0 1 1.365-.232c.245-.025.472-.036.684-.036 1.164 0 2.023.232 2.576.696.562.455.842 1.123.842 2.001 0 .985-.284 1.705-.853 2.16-.57.448-1.4.672-2.49.672-.367 0-.754-.028-1.16-.085a16.191 16.191 0 0 1-1.222-.245 12.849 12.849 0 0 1-1.16-.365 7.516 7.516 0 0 1-.988-.465v3.26c.293.163.62.305.977.426.366.123.75.22 1.148.293.407.081.83.143 1.27.183.438.042.882.061 1.33.061 1.122 0 2.115-.142 2.978-.428.87-.285 1.598-.691 2.184-1.22a5.19 5.19 0 0 0 1.332-1.954c.3-.773.45-1.642.45-2.61 0-.88-.138-1.657-.415-2.333-.277-.683-.658-1.253-1.147-1.709a4.919 4.919 0 0 0-1.72-1.037 6.296 6.296 0 0 0-2.137-.355v.002c-.545 0-.992.028-1.342.085-.342.057-.644.113-.904.17L48.297 28H54v-3h-9zm-31.006.094a7.91 7.91 0 0 0-1.941.22 7.587 7.587 0 0 0-1.586.561c-.48.236-.92.51-1.319.818-.398.301-.782.419-1.148.752l2.05 2.432c.652-.586 1.274-1.036 1.868-1.354a3.887 3.887 0 0 1 1.855-.476c.61 0 1.096.166 1.454.5.366.334.548.802.548 1.404 0 .545-.085 1.054-.255 1.526a6.31 6.31 0 0 1-.721 1.392c-.31.456-.678.922-1.11 1.402-.43.48-.912 1.007-1.441 1.577l-4.2 4.728V43h11.975v-2.977H12.75v-.17l2.146-2.36a52.805 52.805 0 0 0 1.784-1.845c.561-.61 1.053-1.22 1.476-1.83a9.164 9.164 0 0 0 1.002-1.88 5.623 5.623 0 0 0 .365-2.014c0-.773-.13-1.47-.39-2.088-.252-.619-.618-.944-1.098-1.375a4.931 4.931 0 0 0-1.746-1.012c-.675-.236-1.44-.355-2.295-.355zM26 41.178V44h8.203l-6.348 15H31.8L38 43.547v-2.37H26z" opacity=".2"/>
    <path d="M34.545 8.002c-1.18 0-2.213.143-3.1.428-.879.276-1.636.663-2.271 1.16a6.6 6.6 0 0 0-1.563 1.732c-.407.668-.732 1.092-.976 1.873a13.676 13.676 0 0 0-.5 2.43 24.23 24.23 0 0 0-.135 2.55h.002c0 1.344.16 2.507.477 3.491.325.977.766 1.787 1.328 2.43a5.446 5.446 0 0 0 2.002 1.44c.765.308 1.588.464 2.466.464.896 0 1.702-.138 2.416-.414a5.1 5.1 0 0 0 1.832-1.22c.505-.538.89-1.189 1.159-1.954.276-.765.416-1.631.416-2.6 0-.903-.114-1.704-.342-2.404-.228-.7-.557-1.39-.988-1.87a4.124 4.124 0 0 0-1.563-1.099c-.618-.252-1.315-.378-2.088-.378a5 5 0 0 0-1.306.158 4.103 4.103 0 0 0-1.038.44c-.309.178-.582.499-.818.759a4.421 4.421 0 0 0-.586.818h-.146c.04-.83.147-1.588.318-2.271.18-.684.476-.969.89-1.457.416-.488.976-.868 1.684-1.137.708-.277 1.613-.414 2.711-.414.35 0 .695.023 1.037.072.35.041.68.099.989.172V8.186a7.154 7.154 0 0 0-1.135-.135 15.267 15.267 0 0 0-.61-.035 14.358 14.358 0 0 0-.562-.014zm-2.295 9.05c.74 0 1.29.254 1.648.759.367.496.55 1.18.55 2.05 0 .537-.059 1-.173 1.391-.105.39-.26.716-.462.977a1.92 1.92 0 0 1-.708.574c-.268.122-.57.183-.904.183a1.91 1.91 0 0 1-1.074-.306 2.754 2.754 0 0 1-.77-.793 4.105 4.105 0 0 1-.462-1.112 5.412 5.412 0 0 1-.147-1.244c0-.3.056-.597.17-.89.122-.293.294-.56.514-.795.22-.236.483-.426.793-.573.309-.146.65-.22 1.025-.22zM45 24v9.004l.855.807c.155-.05.34-.095.551-.135a10.533 10.533 0 0 1 1.365-.232c.245-.025.472-.036.684-.036 1.164 0 2.023.232 2.576.696.562.455.842 1.123.842 2.001 0 .985-.284 1.705-.853 2.16-.57.448-1.4.672-2.49.672-.367 0-.754-.028-1.16-.085a16.193 16.193 0 0 1-1.222-.245 12.852 12.852 0 0 1-1.16-.365 7.516 7.516 0 0 1-.988-.465v3.26c.293.163.62.305.977.426.366.123.75.22 1.148.293.407.081.83.143 1.27.183.438.042.882.061 1.33.061 1.122 0 2.115-.142 2.978-.428.87-.285 1.598-.691 2.184-1.22a5.19 5.19 0 0 0 1.332-1.954c.3-.773.45-1.642.45-2.61 0-.88-.138-1.657-.415-2.333-.277-.683-.658-1.253-1.147-1.709a4.919 4.919 0 0 0-1.72-1.037 6.296 6.296 0 0 0-2.137-.355v.001c-.545 0-.992.03-1.342.086-.342.057-.644.113-.904.17L48.297 27H54v-3h-9zm-31.006.094a7.91 7.91 0 0 0-1.941.22 7.587 7.587 0 0 0-1.586.561c-.48.236-.92.51-1.319.818-.398.301-.782.419-1.148.752l2.05 2.432c.652-.586 1.274-1.036 1.868-1.354a3.887 3.887 0 0 1 1.855-.476c.61 0 1.096.166 1.454.5.366.334.548.802.548 1.404 0 .545-.085 1.054-.255 1.526a6.31 6.31 0 0 1-.721 1.392c-.31.456-.678.922-1.11 1.402-.43.48-.912 1.007-1.441 1.577l-4.2 4.728V42h11.975v-2.977H12.75v-.17l2.146-2.36a52.805 52.805 0 0 0 1.784-1.845c.561-.61 1.053-1.22 1.476-1.83a9.164 9.164 0 0 0 1.002-1.88 5.623 5.623 0 0 0 .365-2.014c0-.773-.13-1.47-.39-2.088-.252-.619-.618-.944-1.098-1.375a4.93 4.93 0 0 0-1.746-1.012c-.675-.236-1.44-.355-2.295-.355zM26 40.178V43h8.203l-6.348 15H31.8L38 42.547v-2.37H26z" fill="#F9F5D7"/>
    <path d="M7 4C5.338 4 4 5.338 4 7v1c0-1.662 1.338-3 3-3h50c1.662 0 3 1.338 3 3V7c0-1.662-1.338-3-3-3H7z" opacity=".1" fill="#F9F5D7"/>
</svg>
