<svg xmlns="http://www.w3.org/2000/svg" width="64" height="64" version="1">
    <path d="M4.051 12.777c-.531 11.947 7.74 36.357 16.585 44.067 7.15 6.23 17.563 6.615 29.509-6.965 7.304-8.304 10.167-15.451 9.804-21.386-.325 5.521-3.303 11.996-9.804 19.387-11.946 13.578-22.359 13.194-29.509 6.964C12.257 47.54 4.407 25.266 4.051 12.777z" opacity=".2"/>
    <path d="M50.145 48.878c-11.946 13.58-22.359 13.196-29.507 6.966C9.91 46.494-.016 12.526 5.644 6.094 11.302-.34 46.92 9.449 54.556 16.568c7.637 7.12 8.162 18.015-4.412 32.31z" fill="#504945"/>
    <path d="M13.05 4.002c-3.497.052-6.168.685-7.405 2.092-1.184 1.346-1.646 3.948-1.598 7.23.055-2.81.536-5.024 1.598-6.23 1.414-1.608 4.699-2.203 8.953-2.078h.002c12.762.372 34.227 7.215 39.955 12.554 3.318 3.092 5.272 6.905 5.412 11.393.14-4.924-1.85-9.074-5.412-12.393C48.827 11.23 27.362 4.388 14.6 4.016h-.002a35.068 35.068 0 0 0-1.547-.014z" opacity=".1" fill="#F9F5D7"/>
    <path d="M25.037 25c-2.83 0-5.045.793-6.646 2.38C16.798 28.962 16 31.17 16 34.007c0 2.827.798 5.035 2.39 6.623C19.993 42.209 22.208 43 25.038 43c1.294 0 2.512-.163 3.652-.488 1.14-.333 2.365-.822 3.311-1.465V33h-7v2h4.992v5.188a6.616 6.616 0 0 1-1.832.673c-.68.14-2.05.21-2.916.21-2.216 0-4.382-.593-5.498-1.778C18.638 38.108 18 36.345 18 34.006c0-2.348.638-4.114 1.746-5.299 1.116-1.185 3.282-1.78 5.498-1.78 1.124 0 1.895.188 2.914.56 1.019.371 1.935.926 2.842 1.661v-2.5a10.782 10.782 0 0 0-2.902-1.23c-1.06-.279-1.88-.418-3.06-.418zM36 25v18h2v-7h3.531c2.03-.018 3.864-.41 4.899-1.285 1.043-.876 1.564-2.169 1.564-3.881 0-1.697-.521-3.584-1.564-4.459C45.395 25.492 43.56 25 41.53 25H36zm2 2.002h3.701c1.37-.036 2.43.278 3.178.834.748.556 1.121 1.935 1.121 2.955 0 1.028-.373 1.82-1.121 2.375-.748.556-1.808.834-3.178.834H38v-6.998z" opacity=".2"/>
    <path d="M25.037 24c-2.83 0-5.045.793-6.646 2.38C16.798 27.962 16 30.17 16 33.007c0 2.827.798 5.035 2.39 6.623C19.993 41.209 22.208 42 25.038 42c1.294 0 2.512-.163 3.652-.488 1.14-.333 2.365-.822 3.311-1.465V32h-7v2h4.992v5.188a6.616 6.616 0 0 1-1.832.673c-.68.14-2.05.21-2.916.21-2.216 0-4.382-.593-5.498-1.778C18.638 37.108 18 35.345 18 33.006c0-2.348.638-4.114 1.746-5.299 1.116-1.185 3.282-1.78 5.498-1.78 1.124 0 1.895.188 2.914.56 1.019.371 1.935.926 2.842 1.661v-2.5a10.782 10.782 0 0 0-2.902-1.23c-1.06-.279-1.88-.418-3.06-.418z" fill="#F9F5D7"/>
    <path d="M36 24v18h2v-7h3.531c2.03-.018 3.864-.41 4.899-1.285 1.043-.876 1.564-2.169 1.564-3.881 0-1.697-.521-3.584-1.564-4.459C45.395 24.492 43.56 24 41.53 24H36zm2 2.002h3.701c1.37-.036 2.43.278 3.178.834.748.556 1.121 1.935 1.121 2.955 0 1.028-.373 1.82-1.121 2.375-.748.556-1.808.834-3.178.834H38v-6.998z" fill="#FA4934"/>
</svg>
