<svg xmlns="http://www.w3.org/2000/svg" width="64" height="64">
    <circle cx="31.5" cy="32.5" r="28.5" opacity=".2"/>
    <circle cx="31.5" cy="31.5" r="28.5" fill="#504945"/>
    <path d="M8 24v7H3.074A28.5 28.5 0 0 0 3 32.5a28.5 28.5 0 0 0 .055 1.5H8v7h3V24zm13.5 0a8.5 8.5 0 1 0 0 17 8.5 8.5 0 0 0 0-17zm19 0a8.5 8.5 0 1 0 0 17 8.5 8.5 0 0 0 0-17zM51 24v17h3v-5.893l5.092 4.387a28.5 28.5 0 0 0 .644-3.344l-4.433-3.619 4.36-4.25a28.5 28.5 0 0 0-.675-3.279L54 29.972V24zm-10.334 2.666A5.667 5.667 0 1 1 40.667 38a5.667 5.667 0 0 1-.001-11.334zM21.5 27a5.5 5.5 0 1 1 0 11 5.5 5.5 0 0 1 0-11z" opacity=".2"/>
    <path d="M8 23v7H3.074A28.5 28.5 0 0 0 3 31.5a28.5 28.5 0 0 0 .055 1.5H8v7h3V23H8zm13.5 0a8.5 8.5 0 1 0 0 17 8.5 8.5 0 0 0 0-17zm19 0a8.5 8.5 0 1 0 0 17 8.5 8.5 0 0 0 0-17zM51 23v17h3v-5.893l5.092 4.387a28.5 28.5 0 0 0 .644-3.344l-4.433-3.619 4.36-4.25a28.5 28.5 0 0 0-.675-3.279L54 28.972V23h-3zm-10.334 2.666A5.667 5.667 0 1 1 40.667 37a5.667 5.667 0 0 1-.001-11.334zM21.5 26a5.5 5.5 0 1 1 0 11 5.5 5.5 0 0 1 0-11z" fill="#F9F5D7"/>
    <path d="M31.5 3A28.5 28.5 0 0 0 3 31.5a28.5 28.5 0 0 0 .021.582A28.5 28.5 0 0 1 31.5 4a28.5 28.5 0 0 1 28.479 27.918A28.5 28.5 0 0 0 60 31.5 28.5 28.5 0 0 0 31.5 3z" fill="#F9F5D7" opacity=".1"/>
</svg>
