<svg xmlns="http://www.w3.org/2000/svg" width="64" height="64" version="1">
    <rect width="56" height="56" x="4" y="5" rx="28" ry="28" opacity=".2"/>
    <rect width="56" height="56" x="4" y="4" rx="28" ry="28" fill="#F9F5D7"/>
    <path d="M16 31.15q0 1.259-.238 2.485-.222 1.21-.834 2.207-.596.98-1.702 1.57-1.09.588-2.809.588-.34 0-.8-.049-.46-.033-.732-.114V36.61q.664.213 1.498.213 1.191 0 1.957-.376.783-.376 1.243-1.014.46-.654.664-1.504.204-.866.238-1.815h-.102q-.392.556-1.09.965-.697.392-1.804.392-1.566 0-2.536-.915Q8 31.624 8 29.94q0-1.226.477-2.109.476-.883 1.344-1.357.885-.474 2.06-.474 1.157 0 2.093.572.937.556 1.481 1.7Q16 29.401 16 31.15zm-4.12-3.94q-1.054 0-1.735.67-.664.67-.664 2.044 0 1.128.562 1.782.578.637 1.77.637.817 0 1.413-.31.595-.327.919-.818.34-.49.34-1.013 0-.703-.29-1.39-.289-.687-.867-1.144-.58-.458-1.447-.458z" font-size="12" font-family="Clear Sans" letter-spacing="0" word-spacing="0" fill="#3A393A"/>
    <rect width="20" height="20" x="22" y="22" ry="0" fill="#7F7061"/>
    <path d="M31.863 27c-.817 0-1.548.12-2.195.36-.635.24-1.168.522-1.6.849l.748.982a8.644 8.644 0 0 1 1.38-.703c.465-.185 1.027-.279 1.685-.279.68 0 1.22.159 1.617.475.397.305.596.741.596 1.308 0 .665-.261.999-.783 1.402-.511.403-1.266.605-2.264.605H30v1.227h1.03c1.077 0 1.911.163 2.501.49.602.316.903 1.038.903 1.768 0 .72-.245 1.287-.733 1.702-.476.403-1.258.605-2.347.605a7.876 7.876 0 0 1-1.704-.197A7.326 7.326 0 0 1 28 37.02v1.342c.5.24 1.022.403 1.566.49a9.993 9.993 0 0 0 1.77.147c1.078 0 1.958-.147 2.639-.441.692-.295 1.202-.704 1.53-1.227.33-.523.495-1.128.495-1.814 0-.774-.244-1.602-.732-2.081-.477-.48-1.198-.774-2.163-.883v-.064c.76-.153 1.369-.459 1.823-.916.465-.47.697-.895.697-1.68 0-.839-.311-1.53-.936-2.076-.612-.545-1.555-.818-2.826-.818z" font-size="12" font-family="Clear Sans" letter-spacing="0" word-spacing="0" opacity=".2"/>
    <path d="M31.863 26c-.817 0-1.548.12-2.195.36-.635.24-1.168.522-1.6.849l.748.982a8.644 8.644 0 0 1 1.38-.703c.465-.185 1.027-.279 1.685-.279.68 0 1.22.159 1.617.475.397.305.596.741.596 1.308 0 .665-.261.999-.783 1.402-.511.403-1.266.605-2.264.605H30v1.227h1.03c1.077 0 1.911.163 2.501.49.602.316.903 1.038.903 1.768 0 .72-.245 1.287-.733 1.702-.476.403-1.258.605-2.347.605a7.876 7.876 0 0 1-1.704-.197A7.326 7.326 0 0 1 28 36.02v1.342c.5.24 1.022.403 1.566.49a9.993 9.993 0 0 0 1.77.147c1.078 0 1.958-.147 2.639-.441.692-.295 1.202-.704 1.53-1.227.33-.523.495-1.128.495-1.814 0-.774-.244-1.602-.732-2.081-.477-.48-1.198-.774-2.163-.883v-.064c.76-.153 1.369-.459 1.823-.916.465-.47.697-.895.697-1.68 0-.839-.311-1.53-.936-2.076-.612-.545-1.555-.818-2.826-.818z" font-size="12" font-family="Clear Sans" letter-spacing="0" word-spacing="0" fill="#F9F5D7"/>
    <path d="M22 5.86A27.916 27.916 0 0 0 5.86 22H22zm20 0V22h16.14A27.916 27.916 0 0 0 42 5.86zM5.86 42A27.916 27.916 0 0 0 22 58.14V42zM42 42v16.14A27.916 27.916 0 0 0 58.14 42z" fill="#A79984"/>
    <path d="M32 4C16.488 4 4 16.488 4 32c0 .113.011.224.018.336C4.369 17.134 16.71 5 32 5c15.29 0 27.63 12.134 27.982 27.336.007-.112.018-.223.018-.336C60 16.488 47.512 4 32 4z" opacity=".2" fill="#F9F5D7"/>
    <path d="M22 22v1h20v-1H22zM5.832 42c.128.336.257.67.397 1H22v-1H5.832zM42 42v1h15.771c.14-.33.27-.664.397-1H42z" opacity=".2"/>
</svg>
