<svg xmlns="http://www.w3.org/2000/svg" width="64" height="64">
    <g transform="translate(0 -280.067)">
        <rect width="53" height="53" x="5" y="285.07" rx="1.71" ry="1.606" fill="#3A393A"/>
        <path d="M4.416 284.067c-.785 0-1.416.63-1.416 1.416v14.168c0 .784.631 1.416 1.416 1.416h14.168c.785 0 1.416-.632 1.416-1.416v-14.168c0-.785-.631-1.416-1.416-1.416zm20 0c-.785 0-1.416.63-1.416 1.416v14.168c0 .784.631 1.416 1.416 1.416h14.168c.785 0 1.416-.632 1.416-1.416v-14.168c0-.785-.631-1.416-1.416-1.416zm20 0c-.785 0-1.416.63-1.416 1.416v14.168c0 .784.631 1.416 1.416 1.416h14.168c.785 0 1.416-.632 1.416-1.416v-14.168c0-.785-.631-1.416-1.416-1.416zm-40 20c-.785 0-1.416.63-1.416 1.416v14.168c0 .784.631 1.416 1.416 1.416h14.168c.785 0 1.416-.632 1.416-1.416v-14.168c0-.785-.631-1.416-1.416-1.416zm20 0c-.785 0-1.416.63-1.416 1.416v14.168c0 .784.631 1.416 1.416 1.416h14.168c.785 0 1.416-.632 1.416-1.416v-14.168c0-.785-.631-1.416-1.416-1.416zm20 0c-.785 0-1.416.63-1.416 1.416v14.168c0 .784.631 1.416 1.416 1.416h14.168c.785 0 1.416-.632 1.416-1.416v-14.168c0-.785-.631-1.416-1.416-1.416zm-40 20c-.785 0-1.416.63-1.416 1.416v14.168c0 .784.631 1.416 1.416 1.416h14.168c.785 0 1.416-.632 1.416-1.416v-14.168c0-.785-.631-1.416-1.416-1.416zm20 0c-.785 0-1.416.63-1.416 1.416v14.168c0 .784.631 1.416 1.416 1.416h14.168c.785 0 1.416-.632 1.416-1.416v-14.168c0-.785-.631-1.416-1.416-1.416zm20 0c-.785 0-1.416.63-1.416 1.416v14.168c0 .784.631 1.416 1.416 1.416h14.168c.785 0 1.416-.632 1.416-1.416v-14.168c0-.785-.631-1.416-1.416-1.416z" opacity=".2"/>
        <path d="M4.417 283.067c-.785 0-1.417.632-1.417 1.416v14.167c0 .785.632 1.417 1.417 1.417h14.166c.785 0 1.417-.632 1.417-1.417v-14.167c0-.784-.632-1.416-1.417-1.416z" fill="#B7BB25"/>
        <path d="M24.417 283.067c-.785 0-1.417.632-1.417 1.416v14.167c0 .785.632 1.417 1.417 1.417h14.166c.785 0 1.417-.632 1.417-1.417v-14.167c0-.784-.632-1.416-1.417-1.416zM44.417 283.067c-.785 0-1.417.632-1.417 1.416v14.167c0 .785.632 1.417 1.417 1.417h14.166c.785 0 1.417-.632 1.417-1.417v-14.167c0-.784-.632-1.416-1.417-1.416z" fill="#48B9C7"/>
        <path d="M4.417 303.067c-.785 0-1.417.631-1.417 1.416v14.167c0 .785.632 1.417 1.417 1.417h14.166c.785 0 1.417-.632 1.417-1.417v-14.167c0-.785-.632-1.416-1.417-1.416z" fill="#B7BB25"/>
        <path d="M24.417 303.067c-.785 0-1.417.631-1.417 1.416v14.167c0 .785.632 1.417 1.417 1.417h14.166c.785 0 1.417-.632 1.417-1.417v-14.167c0-.785-.632-1.416-1.417-1.416z" fill="#7CB668"/>
        <path d="M44.417 303.067c-.785 0-1.417.631-1.417 1.416v14.167c0 .785.632 1.417 1.417 1.417h14.166c.785 0 1.417-.632 1.417-1.417v-14.167c0-.785-.632-1.416-1.417-1.416z" fill="#48B9C7"/>
        <path d="M4.417 323.067c-.785 0-1.417.631-1.417 1.416v14.167c0 .785.632 1.417 1.417 1.417h14.166c.785 0 1.417-.632 1.417-1.417v-14.167c0-.785-.632-1.416-1.417-1.416z" fill="#7CB668"/>
        <path d="M24.417 323.067c-.785 0-1.417.631-1.417 1.416v14.167c0 .785.632 1.417 1.417 1.417h14.166c.785 0 1.417-.632 1.417-1.417v-14.167c0-.785-.632-1.416-1.417-1.416zM44.417 323.067c-.785 0-1.417.631-1.417 1.416v14.167c0 .785.632 1.417 1.417 1.417h14.166c.785 0 1.417-.632 1.417-1.417v-14.167c0-.785-.632-1.416-1.417-1.416z" fill="#066678"/>
        <path d="M4.416 283.067c-.785 0-1.416.63-1.416 1.416v1c0-.785.631-1.416 1.416-1.416h14.168c.785 0 1.416.63 1.416 1.416v-1c0-.785-.631-1.416-1.416-1.416H4.416zm20 0c-.785 0-1.416.63-1.416 1.416v1c0-.785.631-1.416 1.416-1.416h14.168c.785 0 1.416.63 1.416 1.416v-1c0-.785-.631-1.416-1.416-1.416H24.416zm20 0c-.785 0-1.416.63-1.416 1.416v1c0-.785.631-1.416 1.416-1.416h14.168c.785 0 1.416.63 1.416 1.416v-1c0-.785-.631-1.416-1.416-1.416H44.416zm-40 20c-.785 0-1.416.63-1.416 1.416v1c0-.785.631-1.416 1.416-1.416h14.168c.785 0 1.416.63 1.416 1.416v-1c0-.785-.631-1.416-1.416-1.416H4.416zm20 0c-.785 0-1.416.63-1.416 1.416v1c0-.785.631-1.416 1.416-1.416h14.168c.785 0 1.416.63 1.416 1.416v-1c0-.785-.631-1.416-1.416-1.416H24.416zm20 0c-.785 0-1.416.63-1.416 1.416v1c0-.785.631-1.416 1.416-1.416h14.168c.785 0 1.416.63 1.416 1.416v-1c0-.785-.631-1.416-1.416-1.416H44.416zm-40 20c-.785 0-1.416.63-1.416 1.416v1c0-.785.631-1.416 1.416-1.416h14.168c.785 0 1.416.63 1.416 1.416v-1c0-.785-.631-1.416-1.416-1.416H4.416zm20 0c-.785 0-1.416.63-1.416 1.416v1c0-.785.631-1.416 1.416-1.416h14.168c.785 0 1.416.63 1.416 1.416v-1c0-.785-.631-1.416-1.416-1.416H24.416zm20 0c-.785 0-1.416.63-1.416 1.416v1c0-.785.631-1.416 1.416-1.416h14.168c.785 0 1.416.63 1.416 1.416v-1c0-.785-.631-1.416-1.416-1.416H44.416z" fill="#F9F5D7" opacity=".2"/>
    </g>
</svg>
