<svg xmlns="http://www.w3.org/2000/svg" width="64" height="64">
    <rect width="56" height="56" x="4" y="5" rx="4.2" ry="4.2" opacity=".2"/>
    <rect width="56" height="56" x="4" y="4" rx="4.2" ry="4.2" fill="#8F3F71"/>
    <g opacity=".2">
        <path d="M46.508 16c-2.026 0-4.075.522-5.465 1.475l1.319 2.472c.919-.703 2.309-1.134 3.651-1.134 1.98 0 3.086 1.449 3.086 2.969l-3.657-.017C41.578 21.747 40 23.207 40 25.362 40 27.472 41.612 29 44.58 29c1.862 0 3.836-.53 4.52-1.642v1.503H53v-7.326C53 17.837 50.372 16 46.508 16zm-.854 10.678c-1.296 0-2.073-.59-2.073-1.475 0-.817.541-1.195 2.261-1.184l3.257.016v.704c0 1.185-2.22 1.939-3.445 1.939z" font-weight="700" font-size="322.102" font-family="Montserrat" letter-spacing="0" word-spacing="0"/>
        <path d="M32.296 26.698c-.466.387-.794.525-1.205.525-.629 0-.82-.387-.82-1.604v-5.393c0-1.439-.137-2.24-.548-2.905-.602-.995-2.251-1.521-3.866-1.521-2.572 0-4.597 1.355-4.597 3.098 0 .636.52 1.19 1.177 1.19.656 0 1.231-.554 1.231-1.162 0-.111-.027-.25-.055-.443a3.132 3.132 0 0 1-.082-.664c0-.747.876-1.355 1.97-1.355 1.341 0 2.3.802 2.3 2.296v2.199c-3.768 1.124-4.9 1.424-6.076 2.475-.602.553-.985 1.494-.985 2.406 0 1.743 1.204 2.96 2.873 2.96 1.204 0 2.547-.58 4.216-2.02.137 1.467.882 2.02 2.004 2.02.93 0 1.505-.332 2.463-1.383zm-4.494-1.577c0 .83-.137 1.134-.712 1.466-.684.387-1.643.609-2.218.609-.958 0-1.724-.94-1.724-2.13v-.11c.028-1.66 1.452-2.2 4.654-3.333z" font-size="40" letter-spacing="0" word-spacing="0"/>
        <path d="M47.263 37.006c-.448-.04-1.012.12-1.694.477-.682.357-1.373.894-2.074 1.61-.701.695-1.354 1.539-1.957 2.532a11.425 11.425 0 0 0-1.286 3.309c-.214.894-.292 1.668-.233 2.324.058.636.195 1.162.409 1.58.214.397.477.685.788.864.312.199.604.298.877.298a6.183 6.183 0 0 0 1.752-.387c.507-.2 1.042-.507 1.607-.924.565-.437 1.08-1.053 1.548-1.848-.02.536.01.983.088 1.341.097.358.195.646.292.864.117.259.263.457.438.596.175.12.38.2.614.239.233.06.477.08.73.06.273-.02.535-.07.789-.15.253-.08.477-.178.672-.298.292-.198.652-.536 1.08-1.013a28.76 28.76 0 0 0 1.344-1.61c.467-.595.915-1.181 1.344-1.758.428-.596.779-1.092 1.051-1.49.234-.318.37-.596.41-.834.058-.239.048-.418-.03-.537-.078-.119-.195-.159-.35-.119-.156.02-.312.12-.468.298-.117.159-.311.407-.584.745-.253.338-.545.725-.876 1.162-.331.438-.692.895-1.081 1.371-.37.457-.73.885-1.081 1.282-.35.377-.682.695-.993.954-.312.238-.565.357-.76.357-.233 0-.418-.05-.555-.149a1.127 1.127 0 0 1-.263-.447 2.65 2.65 0 0 1-.116-.566c0-.219.01-.417.029-.596l.146-.745c.039-.199.068-.368.087-.507.04-.159.069-.308.088-.447.039-.159.078-.328.117-.507.195-.914.35-1.659.467-2.235a51.18 51.18 0 0 0 .263-1.37c.059-.338.088-.567.088-.686 0-.14-.01-.229-.03-.268a.596.596 0 0 0-.233-.03c-.097 0-.243.01-.438.03-.175.02-.4.06-.672.119.409-.636.565-1.143.467-1.52-.078-.397-.253-.696-.525-.894-.332-.219-.76-.378-1.286-.477zm-.688 1.864a.317.317 0 0 1 .192.073c.058.08.097.189.116.328.02.12.01.288-.029.507-.02.198-.107.457-.263.775.156-.04.312-.07.468-.09.155-.02.282-.05.38-.09.116-.039.223-.069.32-.089.079-.02.088.14.03.477-.039.318-.107.725-.204 1.222a28.785 28.785 0 0 1-.351 1.55c-.136.536-.253 1.003-.35 1.4-.02.1-.108.259-.263.477a5.178 5.178 0 0 1-.555.716 5.497 5.497 0 0 1-.76.745 4.705 4.705 0 0 1-.847.596c-.273.139-.545.218-.818.238-.273 0-.516-.11-.73-.328-.117-.119-.195-.367-.234-.745a6.6 6.6 0 0 1 .03-1.37c.077-.517.204-1.064.379-1.64a7.911 7.911 0 0 1 .701-1.669c.701-1.251 1.315-2.106 1.84-2.563.41-.357.726-.531.948-.52z"/>
        <path d="M23.75 37c-1.487-.02-1.487 2.183 0 2.162h5.436c.006 0 .157.018.323.107.168.09.267.101.295.507v-.01l.135 3.34c-.253-.095-.423-.136-.423-.136l-.13-.032h-5.085c-2.384 0-3.244 2.36-3.244 2.36l-.057.168v.722c0 1.64.787 2.772 1.617 3.281.83.51 1.684.503 1.684.503h4.176l1.866-1.191.011.173c.05 1.479 2.324 1.347 2.196-.127L32 39.634v-.005a2.838 2.838 0 0 0-1.434-2.256c-.63-.34-1.242-.37-1.242-.37L29.287 37zm.55 8.1h4.756c.06.017.29.077.57.261.308.201.484.272.493.632l.076.304-2.369 1.513h-3.525s-.247-.007-.517-.173c-.27-.166-.584-.386-.584-1.449v-.412c.057-.165.295-.676 1.1-.676z" fill-rule="evenodd"/>
    </g>
    <g fill="#F9F5D7">
        <path d="M46.508 15c-2.026 0-4.075.522-5.465 1.475l1.319 2.472c.919-.703 2.309-1.134 3.651-1.134 1.98 0 3.086 1.449 3.086 2.969l-3.657-.017C41.578 20.747 40 22.207 40 24.362 40 26.472 41.612 28 44.58 28c1.862 0 3.836-.53 4.52-1.642v1.503H53v-7.326C53 16.837 50.372 15 46.508 15zm-.854 10.678c-1.296 0-2.073-.59-2.073-1.475 0-.817.541-1.195 2.261-1.184l3.257.016v.704c0 1.185-2.22 1.939-3.445 1.939z" font-weight="700" font-size="322.102" font-family="Montserrat" letter-spacing="0" word-spacing="0"/>
        <path d="M32.296 25.698c-.466.387-.794.525-1.205.525-.629 0-.82-.387-.82-1.604v-5.393c0-1.439-.137-2.24-.548-2.905-.602-.995-2.251-1.521-3.866-1.521-2.572 0-4.597 1.355-4.597 3.098 0 .636.52 1.19 1.177 1.19.656 0 1.231-.554 1.231-1.162 0-.111-.027-.25-.055-.443a3.132 3.132 0 0 1-.082-.664c0-.747.876-1.355 1.97-1.355 1.341 0 2.3.802 2.3 2.296v2.199c-3.768 1.124-4.9 1.424-6.076 2.475-.602.553-.985 1.494-.985 2.406 0 1.743 1.204 2.96 2.873 2.96 1.204 0 2.547-.58 4.216-2.02.137 1.467.882 2.02 2.004 2.02.93 0 1.505-.332 2.463-1.383zm-4.494-1.577c0 .83-.137 1.134-.712 1.466-.684.387-1.643.609-2.218.609-.958 0-1.724-.94-1.724-2.13v-.11c.028-1.66 1.452-2.2 4.654-3.333z" font-size="40" letter-spacing="0" word-spacing="0"/>
        <path d="M47.263 36.006c-.448-.04-1.012.12-1.694.477-.682.357-1.373.894-2.074 1.61-.701.695-1.354 1.539-1.957 2.532a11.425 11.425 0 0 0-1.286 3.309c-.214.894-.292 1.668-.233 2.324.058.636.195 1.162.409 1.58.214.397.477.685.788.864.312.199.604.298.877.298a6.183 6.183 0 0 0 1.752-.387c.507-.2 1.042-.507 1.607-.924.565-.437 1.08-1.053 1.548-1.848-.02.536.01.983.088 1.341.097.358.195.646.292.864.117.259.263.457.438.596.175.12.38.2.614.239.233.06.477.08.73.06.273-.02.535-.07.789-.15.253-.08.477-.178.672-.298.292-.198.652-.536 1.08-1.013a28.76 28.76 0 0 0 1.344-1.61c.467-.595.915-1.181 1.344-1.758.428-.596.779-1.092 1.051-1.49.234-.318.37-.596.41-.834.058-.239.048-.418-.03-.537-.078-.119-.195-.159-.35-.119-.156.02-.312.12-.468.298-.117.159-.311.407-.584.745-.253.338-.545.725-.876 1.162-.331.438-.692.895-1.081 1.371-.37.457-.73.885-1.081 1.282-.35.377-.682.695-.993.954-.312.238-.565.357-.76.357-.233 0-.418-.05-.555-.149a1.127 1.127 0 0 1-.263-.447 2.65 2.65 0 0 1-.116-.566c0-.219.01-.417.029-.596l.146-.745c.039-.199.068-.368.087-.507.04-.159.069-.308.088-.447.039-.159.078-.328.117-.507.195-.914.35-1.659.467-2.235a51.18 51.18 0 0 0 .263-1.37c.059-.338.088-.567.088-.686 0-.14-.01-.229-.03-.268a.596.596 0 0 0-.233-.03c-.097 0-.243.01-.438.03-.175.02-.4.06-.672.119.409-.636.565-1.143.467-1.52-.078-.397-.253-.696-.525-.894-.332-.219-.76-.378-1.286-.477zm-.688 1.864a.317.317 0 0 1 .192.073c.058.08.097.189.116.328.02.12.01.288-.029.507-.02.198-.107.457-.263.775.156-.04.312-.07.468-.09.155-.02.282-.05.38-.09.116-.039.223-.069.32-.089.079-.02.088.14.03.477-.039.318-.107.725-.204 1.222a28.785 28.785 0 0 1-.351 1.55c-.136.536-.253 1.003-.35 1.4-.02.1-.108.259-.263.477a5.178 5.178 0 0 1-.555.716 5.497 5.497 0 0 1-.76.745 4.705 4.705 0 0 1-.847.596c-.273.139-.545.218-.818.238-.273 0-.516-.11-.73-.328-.117-.119-.195-.367-.234-.745a6.6 6.6 0 0 1 .03-1.37c.077-.517.204-1.064.379-1.64a7.911 7.911 0 0 1 .701-1.669c.701-1.251 1.315-2.106 1.84-2.563.41-.357.726-.531.948-.52z"/>
        <path d="M23.75 36c-1.487-.02-1.487 2.183 0 2.162h5.436c.006 0 .157.018.323.107.168.09.267.101.295.507v-.01l.135 3.34c-.253-.095-.423-.136-.423-.136l-.13-.032h-5.085c-2.384 0-3.244 2.36-3.244 2.36l-.057.168v.722c0 1.64.787 2.772 1.617 3.281.83.51 1.684.503 1.684.503h4.176l1.866-1.191.011.173c.05 1.479 2.324 1.347 2.196-.127L32 38.634v-.005a2.838 2.838 0 0 0-1.434-2.256c-.63-.34-1.242-.37-1.242-.37L29.287 36zm.55 8.1h4.756c.06.017.29.077.57.261.308.201.484.272.493.632l.076.304-2.369 1.513h-3.525s-.247-.007-.517-.173c-.27-.166-.584-.386-.584-1.449v-.412c.057-.165.295-.676 1.1-.676z" fill-rule="evenodd"/>
    </g>
    <path d="M8.2 4A4.19 4.19 0 0 0 4 8.2v47.6A4.19 4.19 0 0 0 8.2 60H15V4z" opacity=".3"/>
    <path d="M8.2 4A4.19 4.19 0 0 0 4 8.2v1A4.19 4.19 0 0 1 8.2 5h47.6A4.19 4.19 0 0 1 60 9.2v-1A4.19 4.19 0 0 0 55.8 4H8.2z" fill="#F9F5D7" opacity=".1"/>
</svg>
