<svg xmlns="http://www.w3.org/2000/svg" width="64" height="64" version="1">
    <rect width="56" height="56" x="4" y="4" rx="28" ry="28" fill="#48B9C7"/>
    <path d="M32.04 15.003c-2.968 1.55-4.665 5.357-6.008 8-.853-1.152-.67-3.568-1.001-5-2.623 3.449-3.778 9.38-4.834 12.828-1.496 4.902-3.401 7.91-6.121 9.663-1.616 1.041-3.065 1.577-6.196 2.285-.421.126-.75.192-1.13.282C11.248 52.492 20.842 59 32.038 59c.796 0 1.58-.053 2.358-.117.566-2.147.56-4.517.184-6.117-.334-1.314-1.2-3.674-1.143-3.766.057-.092 1.468.05 2.667.05 1.416 0 2.454.052 3.203-.175.635-.192 1.392-.503 1.842-.48 2.001.1 4.533-.809 5.202-2.586.208-.552 1.08-1.265 1.31-1.582.377-.52.575-.946.333-1.762-.34-1.152-1.734-1.83-3.21-3.174-1.117-1.02-1.676-1.126-1.732-2.216-.041-.801.173-1.36-.262-1.77-.493-.463-1.742-.166-1.823-.175-.518-.602-1.012-1.23-.059-2.098.721-.658 1.142-.952 1.142-1.672 0-.707-.42-.913-1.044-1.46-.413-.362-.855-.657-.986-.657s-.797-.527-1.474-1.171C37.232 26.822 36.306 27 35.283 27c-.827 0-1.243-.804-1.243-2 1.101-3.982 4.355-7.08 6.007-8-4.185-.592-7.235 1.483-10.012 4-.13-1.462 1.846-5.055 2.002-6z" opacity=".2"/>
    <path d="M31.993 14.002c-2.958 1.551-4.649 5.357-5.987 8-.85-1.152-.668-3.568-.998-5-2.614 3.449-3.766 9.38-4.818 12.828-1.49 4.902-3.39 7.911-6.1 9.664-1.611 1.04-3.055 1.576-6.175 2.285-.715.212-1.502.386-1.915.48C10.07 52.66 20.135 60 31.992 60c.537 0 1.06-.052 1.59-.082 1.289-2.52 1.443-6.018.943-8.152-.333-1.314-1.195-3.674-1.14-3.766.058-.092 1.465.05 2.66.05 1.41 0 2.445.052 3.192-.175.632-.192 1.387-.503 1.836-.48 1.994.1 4.518-.809 5.184-2.586.207-.552 1.077-1.265 1.306-1.582.375-.52.572-.946.331-1.762-.339-1.152-1.728-1.83-3.199-3.174-1.114-1.02-1.67-1.126-1.726-2.216-.041-.801.172-1.36-.261-1.77-.492-.463-1.736-.166-1.817-.175-.516-.602-1.008-1.23-.058-2.098.718-.658 1.137-.952 1.137-1.672 0-.707-.418-.913-1.04-1.46-.412-.362-.852-.657-.983-.657-.13 0-.794-.527-1.47-1.171-1.309-1.25-2.23-1.072-3.25-1.072-.825 0-1.24-.804-1.24-2 1.098-3.982 4.34-7.08 5.987-8-4.17-.592-7.21 1.483-9.979 4-.13-1.463 1.84-5.055 1.996-6z" fill="#F9F5D7"/>
    <path d="M32 4C16.488 4 4 16.488 4 32c0 .114.011.224.018.336C4.369 17.134 16.71 5 32 5c15.29 0 27.63 12.134 27.982 27.336.007-.112.018-.222.018-.336C60 16.488 47.512 4 32 4z" opacity=".2" fill="#F9F5D7"/>
    <path d="M4.018 32.664C4.01 32.776 4 32.886 4 33c0 15.512 12.488 28 28 28s28-12.488 28-28c0-.114-.011-.224-.018-.336C59.631 47.866 47.29 60 32 60 16.71 60 4.37 47.866 4.018 32.664z" opacity=".2"/>
</svg>
