<svg xmlns="http://www.w3.org/2000/svg" width="64" height="64" version="1">
    <g fill="#928274">
        <path d="M58 40v2H6v-2zM58 46v2H6v-2zM58 52v2H6v-2zM58 22v2H6v-2zM58 28v2H6v-2zM58 34v2H6v-2zM58 16v2H6v-2zM58 10v2H6v-2z"/>
    </g>
    <g fill="#928274">
        <path d="M24 58h-2V6h2zM18 58h-2V6h2zM12 58h-2V6h2zM42 58h-2V6h2zM36 58h-2V6h2zM30 58h-2V6h2zM48 58h-2V6h2zM54 58h-2V6h2z"/>
    </g>
    <path d="M8 52.602v2C8 55.932 9.338 57 11 57h42c1.662 0 3-1.068 3-2.398v-2C56 53.932 54.662 55 53 55H11c-1.662 0-3-1.068-3-2.398z" opacity=".2"/>
    <rect width="48" height="48" x="-56" y="-56" rx="2.4" ry="3" transform="matrix(0 -1 -1 0 0 0)" fill="#BDAD93"/>
    <path d="M11 8c-1.662 0-3 1.069-3 2.398v1C8 10.068 9.338 9 11 9h42c1.662 0 3 1.069 3 2.398v-1C56 9.068 54.662 8 53 8H11z" opacity=".2" fill="#F9F5D7"/>
    <path d="M32 13c-2.77 0-5 2.23-5 5v14.355A10 10 0 0 0 22 41a10 10 0 0 0 10 10 10 10 0 0 0 10-10 10 10 0 0 0-5-8.65V18c0-2.77-2.23-5-5-5zm0 3c1.16 0 2 .84 2 2v16.082l1.5.865a6.99 6.99 0 0 1 3.5 6.055A6.955 6.955 0 0 1 32 48a6.955 6.955 0 0 1-7-6.996v-.002a6.988 6.988 0 0 1 3.5-6.049l1.5-.865V18c0-1.16.84-2 2-2z" opacity=".5"/>
    <path d="M30 26v9.088l-1.5.865a6.988 6.988 0 0 0-3.5 6.049v.002A6.955 6.955 0 0 0 32 49c3.9 0 6.999-3.097 7-6.998a6.99 6.99 0 0 0-3.5-6.055l-1.5-.865V26z" opacity=".2"/>
    <path d="M30 25v9.088l-1.5.865a6.988 6.988 0 0 0-3.5 6.049v.002A6.955 6.955 0 0 0 32 48c3.9 0 6.999-3.097 7-6.998a6.99 6.99 0 0 0-3.5-6.055l-1.5-.865V25z" fill="#FA4934"/>
</svg>
