<svg xmlns="http://www.w3.org/2000/svg" width="64" height="64" version="1">
    <path d="M58.27 14.8c-2.169 1.25-4.936 1.957-7.484 2.467l.01.01c.22.253.428.367.625.639.2.275.79 1.16.966 1.45.156.259.297 1.645.433 1.915.018.035.04.068.058.104l.003.006c.15.305.138-.65.262-.33 2.35-1.387 4.273-3.668 5.127-6.26zM60 19c-2.046.882-4.54 1.812-6.846 2.086.511 1.27.453 3.675.536 4.376C55.94 23.884 58.456 21.244 60 19z" opacity=".2"/>
    <path d="M58.27 13.8c-2.169 1.25-4.936 1.957-7.484 2.467l.01.01c.22.253.428.367.625.639.2.275.79 1.16.966 1.45.156.259.297 1.645.433 1.915.018.035.04.068.058.104l.003.006c.15.305.138-.65.262-.33 2.35-1.387 4.273-3.668 5.127-6.26zM60 18c-2.046.882-4.54 1.812-6.846 2.086.511 1.27.453 3.675.536 4.376C55.94 22.884 58.456 20.244 60 18z" opacity=".1" fill="#F9F5D7"/>
    <path d="M42 10c-6.627 0-12 5.373-12 12 0 12-2.821 19.083-9.09 24.258-3.908 3.011-8.837 5.922-14.187 5.922-.922 0-1.83-.056-2.723-.16C9.054 55.206 15.058 56 21.508 56 42.514 56 54 38.562 54 23.727c0-.15-.01-.3-.012-.45.005-.073.009-.145.012-.218 0-.126-.031-.243-.035-.368.018-.23.03-.46.035-.691 0-6.627-5.373-12-12-12z" opacity=".2"/>
    <path d="M58.27 12.8c-2.169 1.25-4.936 1.957-7.484 2.467l.01.01c.22.253.428.367.625.639.2.275.79 1.16.966 1.45.156.259.297 1.645.433 1.915.018.035.04.068.058.104l.003.006c.15.304.138-.65.262-.33 2.35-1.387 4.273-3.668 5.127-6.26zM60 17c-2.046.882-4.54 1.812-6.846 2.086.511 1.27.453 3.675.536 4.376C55.94 21.884 58.456 19.244 60 17z" fill="#066678"/>
    <path d="M58.27 12.8c-2.169 1.25-4.935 1.957-7.483 2.468l.008.007c.22.254.43.37.627.641.025.035.086.133.123.186 2.126-.455 4.335-1.06 6.193-2.02.203-.418.387-.843.532-1.281zM60 17c-1.531.66-3.314 1.345-5.08 1.764-.483.424-1 .805-1.54 1.142.01.047.02.093.028.14 1.836-.253 3.758-.898 5.485-1.593.397-.491.783-.983 1.107-1.453z" fill="#F9F5D7" opacity=".1"/>
    <path d="M42 9c-6.627 0-12 5.373-12 12 0 12-2.821 19.083-9.09 24.258-3.908 3.011-8.837 5.922-14.187 5.922-.922 0-1.83-.056-2.723-.16C9.054 54.206 15.058 55 21.508 55 42.514 55 54 37.562 54 22.727c0-.15-.01-.3-.012-.45.005-.073.009-.145.012-.218 0-.126-.031-.243-.035-.368.018-.23.03-.46.035-.691 0-6.627-5.373-12-12-12z" fill="#066678"/>
    <path d="M42 9c-6.627 0-12 5.373-12 12 0 12-2.821 19.083-9.09 24.258-3.908 3.011-8.837 5.922-14.187 5.922-.922 0-1.83-.057-2.723-.16.669.421 1.356.799 2.057 1.14.222.007.442.02.666.02 5.35 0 10.279-2.91 14.187-5.922C27.18 41.083 30 34 30 22c0-6.627 5.373-12 12-12 6.459 0 11.71 5.106 11.975 11.5.01-.167.021-.333.025-.5 0-6.627-5.373-12-12-12zm11.998 13.04c-.005.217-.016.434-.033.651.003.102.021.2.03.301 0-.088.005-.177.005-.265 0-.15-.01-.3-.012-.45.005-.073.009-.145.012-.218l-.002-.02z" fill="#F9F5D7" opacity=".1"/>
    <circle cx="45" cy="18" r="3" fill="#066678"/>
    <path d="M5.542 14C4.551 15.653 4 18.69 4 20.74c0 3.883 4.219 7.165 7.31 9.171-1.889-.058-5.716-.905-7.269-1.743-.001.047-.003.093-.003.14 0 5.421 7.273 12.214 11.379 13.692-4.106 0-7.94-1.844-9.417-1.844C7.466 44.6 14.534 47.91 19.575 48h9.543c.09 0 .16-.018.243-.025.166.013.33.02.495.025.123 0 .242-.015.364-.02.127.01.253.016.38.02C36.786 48 42 42.986 42 36.8c0-6.186-5.214-10.808-11.4-10.808-.15.002-.3.008-.451.016-.098-.003-.194-.016-.293-.016-12.559 0-18.697-5.598-24.314-11.992z" opacity=".2"/>
    <path d="M5.542 13C4.551 14.653 4 17.69 4 19.74c0 3.883 4.219 7.165 7.31 9.171-1.889-.058-5.716-.905-7.269-1.743-.001.047-.003.093-.003.14 0 5.421 7.273 12.214 11.379 13.692-4.106 0-7.94-1.844-9.417-1.844C7.466 43.6 14.534 46.91 19.575 47h9.543c.09 0 .16-.018.243-.025.166.013.33.02.495.025.123 0 .242-.015.364-.02.127.01.253.016.38.02C36.786 47 42 41.986 42 35.8c0-6.186-5.214-10.808-11.4-10.808-.15.002-.3.008-.451.016-.098-.003-.194-.016-.293-.016-12.559 0-18.697-5.598-24.314-11.992z" fill="#48B9C7"/>
    <path d="M5.543 13C4.551 14.653 4 17.69 4 19.74c0 .159.018.315.031.47.08-2.018.598-4.687 1.512-6.21 5.617 6.394 11.753 11.992 24.312 11.992.1 0 .195.013.293.016.15-.009.301-.013.452-.016 6.016 0 11.098 4.378 11.373 10.309.007-.167.027-.331.027-.5 0-6.186-5.215-10.809-11.4-10.809-.15.003-.301.007-.452.016-.098-.003-.193-.016-.293-.016-12.559 0-18.695-5.598-24.312-11.992zM4.041 27.168a6.624 6.624 0 0 0 .068 1.031c1.59.828 5.337 1.656 7.202 1.713-.54-.35-1.116-.753-1.696-1.178-1.949-.3-4.405-.935-5.574-1.566zM6 39.156c.12.362.287.711.477 1.057C8.192 40.488 11.68 42 15.416 42c-.699-.252-1.493-.667-2.324-1.193-3.166-.464-5.9-1.65-7.092-1.65z" fill="#F9F5D7" opacity=".2"/>
</svg>
