<svg xmlns="http://www.w3.org/2000/svg" width="64" height="64">
    <path d="M31.994 9.38A24.626 24.626 0 0 0 7.368 34.007a24.626 24.626 0 0 0 24.626 24.626A24.626 24.626 0 0 0 56.62 34.006 24.626 24.626 0 0 0 31.994 9.381z" fill="#3A393A"/>
    <path d="M34.88 3.156c-.642.004-1.866.112-2.492.285-2.092.58-4.043 3.303-4.766 5.284-.109.298-.248.57-.313.602-.064.032-.314.094-.554.144-2.476.518-5.499 1.654-7.57 2.84-4.66 2.667-8.234 6.453-10.56 11.184-1.313 2.672-2.058 5.122-2.488 8.192-.183 1.303-.183 5.247 0 6.55.826 5.873 3.287 10.907 7.332 15.005 4.61 4.669 10.527 7.329 17.22 7.742.831.052 3.349-.03 4.328-.14a26.447 26.447 0 0 0 8.14-2.332 26.082 26.082 0 0 0 14.735-20.603c.05-.441.094-1.647.094-2.691.159-2.981-1.066-5.94-2.293-8.117-1.268-2.628-1.513-4.906-1.7-7.707.026-.17.023-.348-.004-.39-3.36 1.033-6.236 3.748-8.005 6.26-1.196 1.908-1.98 3.858-1.983 5.575.167 4.381 3.918 7.536 4 11.492 0 4.2-2.53 8.261-5.535 11.165-.605.584-.75.691-.816.625-.022-.022.072-.28.207-.574 2.091-4.59 1.651-10.092-1.563-13.946-.449-.539-2.217-2.287-2.469-2.442.116.607.174 1.223.176 1.84 0 5.523-4.477 10-10 10s-10-4.477-10-10 4.477-10 10-10c.63.002 1.26.063 1.879.184.032.001.065.001.098.004.093-.08.152-.152.152-.176 0-.155-2.462-2.62-3.145-3.149-1.388-1.075-2.969-2.371-4.793-2.843-.488-.127-.746-.228-.746-.293 0-.186 1.735-.703 3.66-1.09 2.34-.471 3.857-.587 8.391-.633 1.902-.02 3.777-.069 4.168-.11 4.887-.787 8.819-3.988 10.57-7.566.049-.163.043-.164-.715-.164-1.606 0-3.222-.334-4.76-1.012-1.993-1.13-3.746-2.44-5.88-2.899-.55-.118-2.044-.139-2.879-.253-.196-1.678.549-4.11 1.266-5.19.178-.255.31-.502.297-.543-.027-.08-.299-.112-.684-.11z" opacity=".2"/>
    <path d="M34.88 2.156c-.642.004-1.866.112-2.492.285-2.092.58-4.043 3.303-4.766 5.284-.109.298-.248.57-.313.602-.064.032-.314.094-.554.144-2.476.519-5.499 1.654-7.57 2.84-4.66 2.667-8.234 6.453-10.56 11.184-1.313 2.672-2.058 5.122-2.488 8.192-.183 1.303-.183 5.247 0 6.55.826 5.873 3.287 10.907 7.332 15.005 4.61 4.669 10.527 7.329 17.22 7.742.831.052 3.349-.03 4.328-.14a26.447 26.447 0 0 0 8.14-2.332A26.082 26.082 0 0 0 57.893 36.91c.05-.442.094-1.648.094-2.692.159-2.98-1.066-5.94-2.293-8.117-1.268-2.628-1.513-4.906-1.7-7.707.026-.17.023-.348-.004-.39-3.36 1.033-6.236 3.748-8.005 6.26-1.196 1.908-1.98 3.858-1.983 5.575.167 4.381 3.918 7.536 4 11.493 0 4.2-2.53 8.26-5.535 11.164-.605.584-.75.691-.816.625-.022-.022.072-.28.207-.574 2.091-4.59 1.651-10.092-1.563-13.946-.449-.539-2.217-2.287-2.469-2.441.116.606.174 1.222.176 1.84 0 5.522-4.477 10-10 10s-10-4.478-10-10c0-5.524 4.477-10 10-10 .63 0 1.26.062 1.879.183l.098.004c.093-.08.152-.152.152-.176 0-.155-2.462-2.62-3.145-3.149-1.388-1.075-2.969-2.371-4.793-2.843-.488-.127-.746-.228-.746-.293 0-.186 1.735-.703 3.66-1.09 2.34-.471 3.857-.586 8.391-.633 1.902-.02 3.777-.069 4.168-.11 4.887-.787 8.819-3.988 10.57-7.566.049-.163.043-.164-.715-.164-1.606 0-3.222-.334-4.76-1.012-1.993-1.13-3.746-2.44-5.88-2.898-.55-.119-2.044-.14-2.879-.254-.196-1.678.549-4.11 1.266-5.19.178-.255.31-.502.297-.543-.027-.08-.299-.112-.684-.11z" fill="#48B9C7"/>
    <path d="M34.88 2.156c-.64.004-1.865.112-2.491.285-2.092.58-4.045 3.303-4.768 5.284-.109.298-.248.57-.312.601-.064.032-.315.094-.555.145-2.476.518-5.498 1.653-7.57 2.84-4.66 2.667-8.233 6.452-10.559 11.183-1.313 2.672-2.058 5.124-2.488 8.193-.104.738-.14 2.301-.127 3.774.01-1.128.047-2.208.127-2.773.43-3.07 1.175-5.522 2.488-8.194 2.326-4.73 5.9-8.516 10.559-11.183 2.072-1.187 5.094-2.322 7.57-2.84.24-.05.49-.113.555-.145.064-.032.203-.303.312-.601.723-1.981 2.676-4.704 4.768-5.284.626-.173 1.85-.28 2.492-.285.073 0 .116.008.18.01a4.78 4.78 0 0 1 .207-.357c.178-.255.31-.502.296-.543-.026-.08-.298-.112-.683-.11zm-.882 5.754c-.029.38-.035.752.004 1.088.835.115 2.328.136 2.879.254 2.134.459 3.887 1.768 5.879 2.898a11.779 11.779 0 0 0 4.76 1.012c.133 0 .141.007.232.008.167-.28.343-.558.482-.844.05-.162.044-.164-.714-.164-1.606 0-3.222-.333-4.76-1.012-1.992-1.13-3.745-2.44-5.88-2.898-.55-.118-2.043-.14-2.878-.254-.003-.028-.001-.06-.004-.088zm19.99 10.094c-3.36 1.033-6.235 3.748-8.004 6.26-1.196 1.908-1.979 3.859-1.982 5.576.005.134.024.263.035.394.158-1.562.89-3.283 1.947-4.97 1.77-2.512 4.644-5.227 8.004-6.26.027.042.032.22.006.39.187 2.801.431 5.078 1.7 7.706 1.11 1.972 2.207 4.587 2.288 7.277 0-.053.004-.106.004-.158.159-2.981-1.065-5.94-2.293-8.117-1.268-2.628-1.512-4.907-1.699-7.707.026-.172.02-.349-.006-.391zm-31.224 4.195c-.78.223-1.319.424-1.319.526 0 .065.258.166.746.293 1.825.472 3.405 1.77 4.793 2.845.436.338 1.556 1.428 2.338 2.239.186.025.372.046.557.082.032.001.065.001.098.004.093-.08.152-.152.152-.176 0-.155-2.462-2.62-3.145-3.149-1.24-.96-2.635-2.096-4.22-2.664zM37.826 36.16c.071.373.113.75.14 1.13.399.315 1.907 1.805 2.329 2.312 1.8 2.157 2.729 4.83 2.832 7.572.109-3.085-.814-6.153-2.832-8.572-.45-.54-2.218-2.287-2.469-2.442zm.15 2.336C37.717 43.786 33.357 48 28 48c-5.354 0-9.712-4.211-9.975-9.5-.008.167-.025.331-.025.5 0 5.523 4.477 10 10 10s10.002-4.477 10.002-10c0-.168-.016-.336-.025-.504zm10 3.51c-.25 3.958-2.665 7.742-5.51 10.49-.137.133-.184.167-.279.254-.102.268-.21.534-.33.797-.134.295-.229.552-.207.574.067.066.212-.04.817-.625 3.005-2.903 5.535-6.964 5.535-11.164-.002-.11-.018-.217-.025-.326z" opacity=".2" fill="#F9F5D7"/>
</svg>
