<svg xmlns="http://www.w3.org/2000/svg" width="64" height="64">
    <path d="M32 39.2L15.425 54.65A5.008 5.002 0 0 1 7 50.994v2.004a5.008 5.002 0 0 0 8.426 3.656L32 41.204l16.58 15.45A5.008 5.002 0 0 0 57 52.998V51.1a5.008 5.002 0 0 1-8.422 3.55L32 39.2z" opacity=".2" fill-rule="evenodd"/>
    <path d="M12.004 12.075v39.922L32 33.367l19.996 18.63V12.075" fill="none" stroke="#066678" stroke-width="10.007" stroke-linecap="round" stroke-linejoin="round"/>
    <path d="M51.94 7a5.008 5.002 0 0 0-4.955 5.099v1A5.008 5.002 0 0 1 51.94 8a5.008 5.002 0 0 1 5.059 5.099v-1A5.008 5.002 0 0 0 51.939 7zm-40.006.028A5.008 5.002 0 0 0 7 12.098V13.1a5.008 5.002 0 0 1 4.934-5.071 5.008 5.002 0 0 1 5.08 5.071v-1a5.008 5.002 0 0 0-5.08-5.071zm19.822 21.377a5.008 5.002 0 0 0-3.172 1.338L17.014 40.53v1l11.57-10.787a5.008 5.002 0 0 1 3.172-1.338 5.008 5.002 0 0 1 3.662 1.338l11.569 10.783v-1L35.418 29.743a5.008 5.002 0 0 0-3.662-1.338z" opacity=".2" fill="#F9F5D7" fill-rule="evenodd"/>
</svg>
