<svg xmlns="http://www.w3.org/2000/svg" width="64" height="64" version="1">
    <path d="M31.652 5.002a6.554 6.554 0 0 0-3.386.85L9.234 16.668A6.348 6.348 0 0 0 6 22.182v21.635a6.3 6.3 0 0 0 1.646 4.224 6.468 6.367 0 0 0 .11.121c.105.11.213.216.326.319a6.468 6.367 0 0 0 .25.217c.098.08.194.16.297.234a6.468 6.367 0 0 0 .605.398l19.032 10.817a6.468 6.367 0 0 0 6.468 0L53.766 49.33A6.468 6.367 0 0 0 57 43.817V22.184a6.468 6.367 0 0 0 0-.002v-.006a6.468 6.367 0 0 0-.049-.736c-.011-.095-.03-.188-.045-.282a6.468 6.367 0 0 0-.093-.46 6.26 6.26 0 0 0-.077-.29 6.468 6.367 0 0 0-.162-.47c-.03-.078-.055-.158-.088-.235a6.468 6.367 0 0 0-.006-.015 6.468 6.367 0 0 0-.033-.072l-.004.002a6.388 6.388 0 0 0-2.677-2.95L34.734 5.852a6.549 6.549 0 0 0-3.08-.85z" opacity=".2"/>
    <path d="M31.653 4.002a6.549 6.549 0 0 0-3.387.85L9.234 15.667A6.35 6.35 0 0 0 6 21.182v21.634a6.35 6.35 0 0 0 3.234 5.514l19.572 5.909a6.557 6.557 0 0 0 6.468 0l12.445-7.296a6.35 6.35 0 0 0 3.234-5.514L57 21.182a6.35 6.35 0 0 0-3.234-5.515L34.734 4.851A6.546 6.546 0 0 0 31.653 4z" fill="#48B9C7"/>
    <path d="M56.447 18.615L7.314 46.648a6.468 6.367 0 0 0 1.92 1.682l19.031 10.817a6.468 6.367 0 0 0 6.47 0l19.03-10.817A6.468 6.367 0 0 0 57 42.817V21.183a6.468 6.367 0 0 0-.553-2.568z" fill="#8F3F71"/>
    <path d="M56.447 18.615L7.314 46.648a6.468 6.367 0 0 0 .594.663l48.54-27.696A6.468 6.367 0 0 1 57 22.184v-1a6.468 6.367 0 0 0-.553-2.569z" opacity=".1"/>
    <path d="M31.652 4.002a6.554 6.554 0 0 0-3.386.85L9.234 15.668A6.348 6.348 0 0 0 6 21.182v1a6.348 6.348 0 0 1 3.234-5.514L28.266 5.852a6.554 6.554 0 0 1 3.386-.85h.002a6.549 6.549 0 0 1 3.08.85l19.032 10.816a6.388 6.388 0 0 1 2.677 2.95l.004-.003a6.468 6.367 0 0 1 .033.073 6.468 6.367 0 0 1 .006.015c.033.077.058.156.088.235a6.468 6.367 0 0 1 .162.47c.029.096.053.192.077.29a6.468 6.367 0 0 1 .093.46c.016.094.034.187.045.281a6.468 6.367 0 0 1 .049.737v-.992a6.468 6.367 0 0 0 0-.002v-.006a6.468 6.367 0 0 0-.049-.737c-.011-.094-.03-.187-.045-.28a6.468 6.367 0 0 0-.093-.462 6.268 6.268 0 0 0-.077-.289 6.468 6.367 0 0 0-.162-.47c-.03-.079-.055-.158-.088-.235a6.468 6.367 0 0 0-.006-.015 6.468 6.367 0 0 0-.033-.073l-.004.002a6.389 6.389 0 0 0-2.677-2.949L34.734 4.852a6.549 6.549 0 0 0-3.08-.85h-.002z" fill="#F9F5D7" opacity=".2"/>
</svg>
