<svg xmlns="http://www.w3.org/2000/svg" width="64" height="64" version="1">
    <rect width="40" height="40" x="-60" y="-52" rx="20" ry="20" transform="matrix(0 -1 -1 0 0 0)" opacity=".2"/>
    <path d="M32 6C19.4 6 18 17.294 18 30h6c-.148-12.706 2.73-18 8-18s8.147 5.294 8 18h6c0-12.706-1.4-24-14-24z" opacity=".2"/>
    <path d="M32 5C19.4 5 18 16.294 18 29h6c-.148-12.706 2.73-18 8-18s8.147 5.294 8 18h6c0-12.706-1.4-24-14-24z" fill="#F9F5D7"/>
    <path d="M32 5C19.4 5 18 16.294 18 29h.008C18.086 16.71 19.733 6 32 6c12.266 0 13.913 10.71 13.992 23H46c0-12.706-1.4-24-14-24z" opacity=".2" fill="#F9F5D7"/>
    <rect width="40" height="40" x="-59" y="-52" rx="20" ry="20" transform="matrix(0 -1 -1 0 0 0)" fill="#A79984"/>
    <rect width="28" height="28" x="-53" y="-46" rx="14" ry="14" transform="matrix(0 -1 -1 0 0 0)" fill="#504945"/>
    <path d="M39.778 32.222l-3.182 1.06-2.903.97a6 6 0 0 0-5.936 1.505 6 6 0 0 0 0 8.486 6 6 0 0 0 8.486 0 6 6 0 0 0 1.508-5.944l.967-2.895z" opacity=".2"/>
    <path d="M39.778 31.222l-3.182 1.06-2.903.97a6 6 0 0 0-5.936 1.505 6 6 0 0 0 0 8.486 6 6 0 0 0 8.486 0 6 6 0 0 0 1.508-5.944l.967-2.895z" fill="#FA4934"/>
</svg>
