<svg xmlns="http://www.w3.org/2000/svg" width="64" height="64" version="1">
    <path d="M36.055 5C49.185 5 60 15.83 60 28.977S49.185 52.953 36.055 52.953c-2.503 0-4.958-.427-7.315-1.186l-5.795 5.8c-2.097 2.185-5.433 3.574-8.426 3.422-2.994-.153-5.45-1.462-7.25-3.263-1.798-1.801-3.105-4.26-3.258-7.258C3.86 47.47 5.246 44.13 7.43 42.03l-.117.114 5.944-5.956c-.735-2.32-1.143-4.739-1.146-7.2v-.011C12.11 15.83 22.925 5 36.055 5z" opacity=".2"/>
    <path d="M36.055 4C49.185 4 60 14.83 60 27.977S49.185 51.953 36.055 51.953c-2.503 0-4.958-.427-7.315-1.186l-5.795 5.8c-2.097 2.185-5.433 3.574-8.426 3.422-2.994-.153-5.45-1.462-7.25-3.263-1.798-1.801-3.105-4.26-3.258-7.258C3.86 46.47 5.246 43.13 7.43 41.03l-.117.114 5.944-5.956c-.735-2.32-1.143-4.739-1.146-7.2v-.011C12.11 14.83 22.925 4 36.055 4z" fill="#8F3F71"/>
    <path d="M29.316 39.852L17.09 52.078c-2.827 2.945-7.187-1.415-4.242-4.243L25.26 35.424C30 37 28 37 29.316 39.852z" opacity=".2"/>
    <path d="M29.316 38.852L17.09 51.078c-2.827 2.945-7.187-1.415-4.242-4.243L25.26 34.424C30 36 28 36 29.316 38.852z" fill="#D55C0D"/>
    <path d="M36 13a16 16 0 0 1 16 16 16 16 0 0 1-16 16 16 16 0 0 1-16-16 16 16 0 0 1 16-16zm0 6a10 10 0 0 0-10 10 10 10 0 0 0 10 10 10 10 0 0 0 10-10 10 10 0 0 0-10-10z" opacity=".2"/>
    <path d="M36 12a16 16 0 0 1 16 16 16 16 0 0 1-16 16 16 16 0 0 1-16-16 16 16 0 0 1 16-16zm0 6a10 10 0 0 0-10 10 10 10 0 0 0 10 10 10 10 0 0 0 10-10 10 10 0 0 0-10-10z" fill="#F9F5D7"/>
    <path d="M36.055 4C49.185 4 60 14.83 60 27.977c0 .112-.012.222-.018.334C59.623 15.467 48.962 5 36.055 5 23.133 5 12.46 15.491 12.125 28.355c-.005-.122-.015-.244-.016-.367v-.011C12.11 14.829 22.925 4 36.055 4zM12.82 35.625c.13.525.27 1.047.434 1.563l-.217.216c-.071-.26-.152-.517-.217-.779l-5.508 5.52.118-.114c-1.97 1.893-3.278 4.795-3.407 7.545-.003-.036-.01-.07-.011-.107-.153-2.998 1.234-6.339 3.418-8.438l-.118.114z" opacity=".1" fill="#F9F5D7"/>
</svg>
