<svg xmlns="http://www.w3.org/2000/svg" width="64" height="64" version="1">
    <rect width="56" height="56" x="4" y="5" rx="2.8" ry="2.8" opacity=".2"/>
    <rect width="56" height="56" x="4" y="4" rx="2.8" ry="2.8" fill="#665C54"/>
    <rect width="44" height="44" x="10" y="11" rx="2.75" ry="2.75" opacity=".2"/>
    <rect width="44" height="44" x="10" y="10" rx="2.75" ry="2.75" fill="#F9F5D7"/>
    <circle cx="32" cy="33" r="12" opacity=".1"/>
    <circle cx="32" cy="32" r="12" fill="#928274"/>
    <circle cx="32" cy="33" r="5" opacity=".2"/>
    <circle cx="32" cy="32" r="5" fill="#F9F5D7"/>
    <path d="M34.462 20.236l-1.38 5.152 1.287.345 1.38-5.152zm-4.923 0l-1.29.344 1.38 5.153 1.29-.345zm10.474 2.806l-3.771 3.772.944.944 3.772-3.773zm-16.028 0l-.943.945 3.772 3.771.944-.944zM43.42 28.25l-5.153 1.38.345 1.29 5.152-1.38zm-22.839 0l-.345 1.288 5.152 1.38.345-1.287zm18.031 4.832l-.345 1.287 5.152 1.38.345-1.287zm-13.224-.001l-5.152 1.38.344 1.29 5.153-1.38zm11.798 3.16l-.944.945 3.773 3.772.943-.945zm-10.372.001l-3.772 3.773.945.943 3.771-3.772zm7.556 2.025l-1.29.345 1.38 5.152 1.29-.344zm-4.74 0l-1.38 5.152 1.288.345 1.38-5.152z" opacity=".2"/>
    <rect width="6" height="11" x="7" y="19" rx="1.5" ry="1.375" opacity=".1"/>
    <rect width="6" height="11" x="7" y="18" rx="1.5" ry="1.375" fill="#928274"/>
    <rect width="6" height="11" x="7" y="36" rx="1.5" ry="1.375" opacity=".1"/>
    <rect width="6" height="11" x="7" y="35" rx="1.5" ry="1.375" fill="#928274"/>
    <path d="M6.8 4C5.25 4 4 5.25 4 6.8v1C4 6.25 5.25 5 6.8 5h50.4C58.75 5 60 6.25 60 7.8v-1C60 5.25 58.75 4 57.2 4H6.8z" fill="#F9F5D7" opacity=".1"/>
    <path d="M12.75 10A2.744 2.744 0 0 0 10 12.75v1A2.744 2.744 0 0 1 12.75 11h38.5A2.744 2.744 0 0 1 54 13.75v-1A2.744 2.744 0 0 0 51.25 10h-38.5zM32 27a5 5 0 0 0-5 5 5 5 0 0 0 .027.484A5 5 0 0 1 32 28a5 5 0 0 1 4.973 4.516A5 5 0 0 0 37 32a5 5 0 0 0-5-5z" opacity=".2" fill="#F9F5D7"/>
</svg>
