<svg xmlns="http://www.w3.org/2000/svg" width="64" height="64" version="1">
    <rect width="56" height="56" x="4" y="5" rx="2.8" ry="2.8" opacity=".2"/>
    <rect width="56" height="56" x="4" y="4" rx="2.8" ry="2.8" fill="#F9F5D7"/>
    <path d="M14 16l21.435 17.199L14 50v-6.442L27.484 33 14 22.375zm36 5.379l-14.565 11.82L50 44.754v-6.441L43.449 33 50 27.687z" opacity=".1"/>
    <path d="M14 15l21.435 17.199L14 49v-6.442L27.484 32 14 21.375zm36 5.379l-14.565 11.82L50 43.754v-6.441L43.449 32 50 26.687z" fill="#CB8819"/>
    <path d="M6.8 4C5.25 4 4 5.25 4 6.8v1C4 6.25 5.25 5 6.8 5h50.4C58.75 5 60 6.25 60 7.8v-1C60 5.25 58.75 4 57.2 4H6.8z" opacity=".2" fill="#F9F5D7"/>
</svg>
