<svg xmlns="http://www.w3.org/2000/svg" width="64" height="64">
    <circle cx="32" cy="33" r="28" opacity=".2"/>
    <circle cx="32" cy="31.999" r="28" fill="#8F3F71"/>
    <path d="M32 3.998A28 28 0 0 0 4 32a28 28 0 0 0 .018.492A28 28 0 0 1 32 4.998a28 28 0 0 1 27.975 27.49A28 28 0 0 0 60 32 28 28 0 0 0 32 3.998z" opacity=".2" fill="#F9F5D7"/>
    <circle cx="32" cy="33" r="20" opacity=".2"/>
    <circle cx="32" cy="31.999" r="20" fill="#48B9C7"/>
    <path d="M24 27l8 12 22-28" opacity=".2" fill="none" stroke="#151819" stroke-width="12" stroke-linecap="round" stroke-linejoin="round"/>
    <path d="M24 26l8 12 22-28" fill="none" stroke="#3A393A" stroke-width="12" stroke-linecap="round" stroke-linejoin="round"/>
</svg>
