<svg xmlns="http://www.w3.org/2000/svg" width="64" height="64">
    <path d="M55.2 55.491c-.005 4.109-1.021 5.48-13.94 5.48-3.674 0-8.145.322-10.498-1.154-2.223-1.394-1.421-3.44-1.421-5.521 0-4.287 4.2-7.296 11.34-7.296 7.141 0 14.524 4.2 14.519 8.491z" opacity=".2"/>
    <path d="M55.2 54.491c-.005 4.109-1.021 5.48-13.94 5.48-3.674 0-8.145.322-10.498-1.154-2.223-1.394-1.421-3.44-1.421-5.521 0-4.287 4.2-7.296 11.34-7.296 7.141 0 14.524 4.2 14.519 8.491z" fill="#CB8819"/>
    <path d="M32 5A26 26 0 0 0 6 31a26 26 0 0 0 26 26 26 26 0 0 0 26-26A26 26 0 0 0 32 5z" opacity=".2"/>
    <path d="M32 4A26 26 0 0 0 6 30a26 26 0 0 0 26 26 26 26 0 0 0 26-26A26 26 0 0 0 32 4z" fill="#F9BD2E"/>
    <ellipse cx="28" cy="27" rx="4" ry="6" opacity=".1"/>
    <path d="M34 55.491c-.005 4.109-1.021 5.48-13.94 5.48-3.674 0-8.145.322-10.498-1.154-2.223-1.394-1.421-3.44-1.421-5.521 0-4.287 4.2-7.296 11.34-7.296 7.141 0 14.524 4.2 14.519 8.491z" opacity=".2"/>
    <path d="M34 54.491c-.005 4.109-1.021 5.48-13.94 5.48-3.674 0-8.145.322-10.498-1.154-2.223-1.394-1.421-3.44-1.421-5.521 0-4.287 4.2-7.296 11.34-7.296 7.141 0 14.524 4.2 14.519 8.491z" fill="#CB8819"/>
    <ellipse cx="28" cy="26" rx="4" ry="6" fill="#3A393A"/>
    <ellipse cx="40" cy="27" rx="4" ry="6" opacity=".1"/>
    <ellipse cx="40" cy="26" rx="4" ry="6" fill="#3A393A"/>
    <path d="M32 4A26 26 0 0 0 6 30a26 26 0 0 0 .021.406A26 26 0 0 1 32 5a26 26 0 0 1 25.979 25.576A26 26 0 0 0 58 30 26 26 0 0 0 32 4z" opacity=".2" fill="#F9F5D7"/>
</svg>
