<svg xmlns="http://www.w3.org/2000/svg" width="64" height="64" version="1">
    <rect width="56" height="56" x="4" y="4" rx="28" ry="28" fill="#504945"/>
    <path d="M26.41 50.424c-3.518-.872-6.53-2.67-9.609-5.738-2.431-2.422-2.807-2.96-3.756-5.38-.94-2.4-1.054-3.016-1.045-5.698.015-4.276.848-6.854 3.245-10.036 2.256-2.994 3.272-3.822 6.859-5.581 2.514-1.232 4.138-1.712 7.684-2.268 1.444-.226 1.492-.725.154-1.658-1.712-1.194-3.54-2.86-3.352-3.052.201-.206 6.939 2.126 10.029 3.471 3.925 1.71 8.754 5.052 10.963 7.587.867.995 1.274 2.042.794 2.042-.222 0-3.062-1.287-5.934-2.688-1.201-.586-2.324-.98-2.493-.874-.17.106.036.341.458.523.42.182.836.426.923.542.086.117.757.392 1.491.613.735.221 1.335.522 1.335.668 0 .147.177.275.393.285.216.01 1.092.351 1.947.759l1.554.74-1.24.348c-1.917.536-2.75.435-6.3-.762-4.15-1.399-8.371-1.739-12.172-.98-3.748.748-4.09 1.327-2.234 3.777 1.432 1.89 2.877 2.355 5.03 1.619.881-.302 1.808-.417 2.302-.286.757.201.774.24.204.451-.573.213-.547.273.314.742.637.348.761.516.388.524-.599.014-.738.491-.236.804.594.37.321.836-.361.618-.546-.175-.637-.114-.473.316.16.42.07.49-.424.331-.467-.149-.628-.054-.635.375-.006.443-.21.331-.883-.487-.836-1.017-1.005-1.076-3.839-1.352-3.5-.342-4.436-.67-5.486-1.928l-.783-.938-.837 1.843c-1.091 2.4-1.349 5.975-.596 8.259 1.703 5.167 5.287 7.363 8.946 5.482 2.484-1.277 3.188-3.636 1.723-5.767-.85-1.235-.856-2.592-.01-1.884.509.425.825.155.851-.727.018-.59.054-.577.343.132l.322.791.481-.712c.597-.882 1.03-.925.81-.079-.186.715.208.829.824.238.336-.324.37-.26.188.347-.2.665-.145.722.515.535.632-.179.587-.078-.321.704l-1.059.913.226 3.483.226 3.483-.96.815c-.953.807-.955.816-.243.996 1.024.259 5.413-.295 7.266-.917 3.114-1.045 6.81-3.86 8.338-6.35 1.92-3.13 2.988-9.21 2.067-11.764-.393-1.088-.405-1.345-.066-1.345.847 0 1.732 3.459 1.744 6.817.014 4.15-1.491 8.013-4.406 11.309-4.572 5.17-13.857 7.786-21.183 5.969z" opacity=".2"/>
    <path d="M26.41 49.424c-3.518-.872-6.53-2.67-9.609-5.738-2.431-2.422-2.807-2.96-3.756-5.38-.94-2.4-1.054-3.016-1.045-5.698.015-4.276.848-6.853 3.245-10.035 2.256-2.995 3.272-3.822 6.859-5.582 2.514-1.232 4.138-1.712 7.684-2.267 1.444-.227 1.492-.726.154-1.658-1.712-1.195-3.54-2.86-3.352-3.052.201-.207 6.939 2.125 10.029 3.47 3.925 1.71 8.754 5.052 10.963 7.587.867.995 1.274 2.042.794 2.042-.222 0-3.062-1.286-5.934-2.688-1.201-.586-2.324-.98-2.493-.874-.17.106.036.341.458.523.42.183.836.427.923.543.086.116.757.392 1.491.613.735.22 1.335.521 1.335.668 0 .146.177.274.393.284.216.01 1.092.352 1.947.76l1.554.74-1.24.347c-1.917.536-2.75.436-6.3-.761-4.15-1.4-8.371-1.74-12.172-.98-3.748.748-4.09 1.326-2.234 3.776 1.432 1.89 2.877 2.355 5.03 1.619.881-.302 1.808-.417 2.302-.285.757.2.774.239.204.45-.573.213-.547.273.314.743.637.347.761.515.388.523-.599.014-.738.491-.236.804.594.37.321.837-.361.618-.546-.174-.637-.114-.473.316.16.42.07.49-.424.332-.467-.15-.628-.055-.635.375-.006.443-.21.33-.883-.488-.836-1.016-1.005-1.076-3.839-1.352-3.5-.341-4.436-.67-5.486-1.928l-.783-.938-.837 1.843c-1.091 2.4-1.349 5.975-.596 8.259 1.703 5.167 5.287 7.363 8.946 5.482 2.484-1.277 3.188-3.636 1.723-5.767-.85-1.235-.856-2.592-.01-1.884.509.425.825.156.851-.726.018-.591.054-.578.343.131l.322.792.481-.712c.597-.883 1.03-.925.81-.08-.186.716.208.83.824.238.336-.323.37-.26.188.348-.2.664-.145.72.515.535.632-.18.587-.08-.321.703l-1.059.913.226 3.483.226 3.484-.96.814c-.953.808-.955.816-.243.996 1.024.259 5.413-.295 7.266-.917 3.114-1.045 6.81-3.86 8.338-6.35 1.92-3.13 2.988-9.21 2.067-11.764-.393-1.088-.405-1.345-.066-1.345.847 0 1.732 3.459 1.744 6.818.014 4.149-1.491 8.013-4.406 11.308-4.572 5.17-13.857 7.787-21.183 5.97z" fill="#F9BD2E"/>
    <path d="M32 4C16.488 4 4 16.494 4 32.014c0 .114.011.224.018.336C4.369 17.14 16.71 5 32 5c15.29 0 27.63 12.14 27.982 27.35.007-.112.018-.222.018-.336C60 16.494 47.512 4 32 4z" opacity=".1" fill="#F9F5D7"/>
    <path d="M4.018 32.664C4.01 32.776 4 32.886 4 33c0 15.512 12.488 28 28 28s28-12.488 28-28c0-.114-.011-.224-.018-.336C59.631 47.866 47.29 60 32 60 16.71 60 4.37 47.866 4.018 32.664z" opacity=".2"/>
</svg>
