<svg xmlns="http://www.w3.org/2000/svg" width="64" height="64">
    <path d="M10 56v2c0 1.662 1.338 3 3 3h38c1.662 0 3-1.338 3-3v-2c0 1.662-1.338 3-3 3H13c-1.662 0-3-1.338-3-3z" opacity=".2"/>
    <path d="M13 4c-1.662 0-3 1.338-3 3v50c0 1.662 1.338 3 3 3h38c1.662 0 3-1.338 3-3V7c0-1.662-1.338-3-3-3H13z" fill="#9D0006"/>
    <path d="M13 4c-1.662 0-3 1.338-3 3v50c0 1.662 1.338 3 3 3h5V4z" opacity=".2"/>
    <path d="M13 4c-1.662 0-3 1.338-3 3v1c0-1.662 1.338-3 3-3h38c1.662 0 3 1.338 3 3V7c0-1.662-1.338-3-3-3H13z" opacity=".1" fill="#F9F5D7"/>
    <path d="M32 13v10H22v8h10v22h8V31h10v-8H40V13z" opacity=".2"/>
    <path fill="#F9F5D7" d="M32 12h8v40h-8z"/>
    <path fill="#F9F5D7" d="M50 22v8H22v-8z"/>
</svg>
