<svg xmlns="http://www.w3.org/2000/svg" width="64" height="64">
    <rect width="56" height="56" x="4" y="5" rx="2.8" ry="2.8" opacity=".2"/>
    <rect width="56" height="56" x="4" y="4" rx="2.8" ry="2.8" fill="#F9F5D7"/>
    <rect width="42" height="42" x="-53" y="-53" rx="2.1" ry="2.1" transform="matrix(0 -1 -1 0 0 0)" fill="#1D2021"/>
    <circle cx="32" cy="33" r="15" opacity=".2"/>
    <circle cx="32" cy="32" r="15" fill="#3A393A"/>
    <circle cx="32" cy="33" r="10" opacity=".2"/>
    <circle cx="32" cy="32" r="10" fill="#066678"/>
    <circle cx="32" cy="33" r="4" opacity=".2"/>
    <circle cx="32" cy="32" r="4" fill="#48B9C7"/>
    <path d="M32 17a15 15 0 0 0-15 15 15 15 0 0 0 .02.586A15 15 0 0 1 32 18a15 15 0 0 1 14.98 14.414A15 15 0 0 0 47 32a15 15 0 0 0-15-15z" opacity=".1" fill="#F9F5D7" fill-rule="evenodd"/>
    <path d="M32 22a10 10 0 0 0-10 10 10 10 0 0 0 .021.586A10 10 0 0 1 32 23a10 10 0 0 1 9.979 9.414A10 10 0 0 0 42 32a10 10 0 0 0-10-10z" opacity=".1" fill="#F9F5D7" fill-rule="evenodd"/>
    <path d="M32 28a4 4 0 0 0-4 4 4 4 0 0 0 .035.494A4 4 0 0 1 32 29a4 4 0 0 1 3.965 3.506A4 4 0 0 0 36 32a4 4 0 0 0-4-4z" opacity=".2" fill="#F9F5D7" fill-rule="evenodd"/>
    <path d="M6.8 4C5.25 4 4 5.25 4 6.8v1C4 6.25 5.25 5 6.8 5h50.4C58.75 5 60 6.25 60 7.8v-1C60 5.25 58.75 4 57.2 4H6.8z" fill="#F9F5D7" opacity=".2"/>
</svg>
