<?xml version="1.0" encoding="utf-8"?>
<!-- Generator: Adobe Illustrator 17.0.2, SVG Export Plug-In . SVG Version: 6.00 Build 0)  -->
<!DOCTYPE svg PUBLIC "-//W3C//DTD SVG 1.1//EN" "http://www.w3.org/Graphics/SVG/1.1/DTD/svg11.dtd">
<svg version="1.1" id="Layer_1" xmlns:sketch="http://www.bohemiancoding.com/sketch/ns"
	 xmlns="http://www.w3.org/2000/svg" xmlns:xlink="http://www.w3.org/1999/xlink" x="0px" y="0px" width="20px" height="20px"
	 viewBox="40 40 20 20" enable-background="new 40 40 20 20" xml:space="preserve">
<title>Slice 1</title>
<description>Created with Sketch (http://www.bohemiancoding.com/sketch)</description>
<g id="Page_1">
	<path id="Close" fill="#99aab5" d="M40.445,42.853l2.408-2.408c0.593-0.593,1.555-0.593,2.147,0l5,5l5-5
		c0.593-0.593,1.554-0.593,2.147,0l2.408,2.408c0.593,0.593,0.593,1.554,0,2.147l-5,5l5,5c0.593,0.593,0.592,1.554,0,2.147
		l-2.408,2.408c-0.593,0.593-1.555,0.593-2.147,0l-5-5l-5,5c-0.593,0.593-1.554,0.593-2.147,0l-2.408-2.408
		c-0.593-0.593-0.593-1.554,0-2.147l5-5l-5-5C39.852,44.407,39.852,43.445,40.445,42.853z"/>
</g>
</svg>
