<?xml version="1.0" encoding="utf-8"?>
<!-- Generator: Adobe Illustrator 17.1.0, SVG Export Plug-In . SVG Version: 6.00 Build 0)  -->
<!DOCTYPE svg PUBLIC "-//W3C//DTD SVG 1.1//EN" "http://www.w3.org/Graphics/SVG/1.1/DTD/svg11.dtd">
<svg version="1.1" id="Layer_1" xmlns="http://www.w3.org/2000/svg" xmlns:xlink="http://www.w3.org/1999/xlink" x="0px" y="0px"
	 viewBox="0 0 168 190" enable-background="new 0 0 168 190" xml:space="preserve">
<g>
	<rect x="14.4" y="46.1" fill="#FFFFFF" width="139.2" height="97.7"/>
	<g>
		<linearGradient id="SVGID_1_" gradientUnits="userSpaceOnUse" x1="66.6616" y1="79.7119" x2="66.6616" y2="100.7434">
			<stop  offset="0" style="stop-color:#7491D5"/>
			<stop  offset="1" style="stop-color:#4E68A0"/>
		</linearGradient>
		<path fill="url(#SVGID_1_)" d="M66.7,79.7c-5.4,0-9.8,4.7-9.8,10.5c0,5.8,4.4,10.5,9.8,10.5c5.4,0,9.8-4.7,9.8-10.5
			C76.5,84.4,72.1,79.7,66.7,79.7z"/>
		<linearGradient id="SVGID_2_" gradientUnits="userSpaceOnUse" x1="101.661" y1="79.7119" x2="101.661" y2="100.7434">
			<stop  offset="0" style="stop-color:#7491D5"/>
			<stop  offset="1" style="stop-color:#4E68A0"/>
		</linearGradient>
		<path fill="url(#SVGID_2_)" d="M101.7,79.7c-5.4,0-9.8,4.7-9.8,10.5c0,5.8,4.4,10.5,9.8,10.5c5.4,0,9.8-4.7,9.8-10.5
			C111.5,84.4,107.1,79.7,101.7,79.7z"/>
		<linearGradient id="SVGID_3_" gradientUnits="userSpaceOnUse" x1="84" y1="-4.545736e-07" x2="84" y2="190">
			<stop  offset="0" style="stop-color:#7491D5"/>
			<stop  offset="1" style="stop-color:#4E68A0"/>
		</linearGradient>
		<path fill="url(#SVGID_3_)" d="M148.4,0H19.6C8.8,0,0,8.8,0,19.6v128.4c0,10.8,8.8,19.6,19.6,19.6h108.9l-5.1-17.5l12.3,11.3
			l11.6,10.7L168,190v-41.9v-9.5V19.6C168,8.8,159.2,0,148.4,0z M111.3,124.1c0,0-3.4-4.1-6.3-7.7c12.6-3.5,17.4-11.3,17.4-11.3
			c-4,2.6-7.7,4.4-11.1,5.6c-4.8,2-9.5,3.3-14,4.1c-9.2,1.7-17.6,1.3-24.9-0.1c-5.5-1-10.2-2.5-14.1-4.1c-2.2-0.8-4.6-1.9-7.1-3.3
			c-0.3-0.2-0.6-0.3-0.9-0.5c-0.1-0.1-0.3-0.2-0.4-0.2c-1.7-1-2.6-1.6-2.6-1.6s4.6,7.6,16.8,11.2c-2.9,3.6-6.4,7.9-6.4,7.9
			c-21.2-0.6-29.3-14.5-29.3-14.5c0-30.6,13.8-55.4,13.8-55.4c13.8-10.3,26.9-10,26.9-10l1,1.1C52.8,50.3,45,57.9,45,57.9
			s2.1-1.2,5.7-2.7c10.3-4.5,18.4-5.7,21.8-6c0.5-0.1,1.1-0.2,1.6-0.2c5.9-0.7,12.5-0.9,19.4-0.2c9.1,1,18.9,3.7,28.9,9.1
			c0,0-7.5-7.2-23.9-12.1l1.3-1.5c0,0,13.1-0.3,26.9,10c0,0,13.8,24.8,13.8,55.4C140.6,109.6,132.5,123.5,111.3,124.1z"/>
	</g>
</g>
</svg>
