<svg xmlns="http://www.w3.org/2000/svg" width="64" height="64" version="1">
    <path d="M2 33v2c0 2.216 1.784 4 4 4h52c2.216 0 4-1.784 4-4v-2c0 2.216-1.784 4-4 4H6c-2.216 0-4-1.784-4-4zM4 48v2c0 1.662 1.338 3 3 3s3-1.338 3-3v-2c0 1.662-1.338 3-3 3s-3-1.338-3-3zm50 0v2c0 1.662 1.338 3 3 3s3-1.338 3-3v-2c0 1.662-1.338 3-3 3s-3-1.338-3-3zm-44 5v2c0 3.324 2.676 6 6 6h2c3.324 0 6-2.676 6-6v-2c0 3.324-2.676 6-6 6h-2c-3.324 0-6-2.676-6-6zm30 0v2c0 3.324 2.676 6 6 6h2c3.324 0 6-2.676 6-6v-2c0 3.324-2.676 6-6 6h-2c-3.324 0-6-2.676-6-6z" opacity=".2"/>
    <rect width="60" height="12" x="2" y="26" rx="4" ry="4" fill="#066678"/>
    <path d="M6 26c-2.216 0-4 1.784-4 4v1c0-2.216 1.784-4 4-4h52c2.216 0 4 1.784 4 4v-1c0-2.216-1.784-4-4-4H6z" opacity=".2" fill="#F9F5D7"/>
    <rect width="56" height="14" x="-60" y="-24" rx="6" ry="6" transform="matrix(0 -1 -1 0 0 0)" fill="#CB241D"/>
    <rect width="56" height="14" x="-60" y="-54" rx="6" ry="6" transform="matrix(0 -1 -1 0 0 0)" fill="#CB241D"/>
    <rect width="40" height="6" x="-52" y="-10" rx="3" ry="3" transform="matrix(0 -1 -1 0 0 0)" fill="#BE4C1D"/>
    <rect width="40" height="6" x="-52" y="-60" rx="3" ry="3" transform="matrix(0 -1 -1 0 0 0)" fill="#BE4C1D"/>
    <path d="M16 4c-3.324 0-6 2.676-6 6v1c0-3.324 2.676-6 6-6h2c3.324 0 6 2.676 6 6v-1c0-3.324-2.676-6-6-6h-2zm30 0c-3.324 0-6 2.676-6 6v1c0-3.324 2.676-6 6-6h2c3.324 0 6 2.676 6 6v-1c0-3.324-2.676-6-6-6h-2zM7 12c-1.662 0-3 1.338-3 3v1c0-1.662 1.338-3 3-3s3 1.338 3 3v-1c0-1.662-1.338-3-3-3zm50 0c-1.662 0-3 1.338-3 3v1c0-1.662 1.338-3 3-3s3 1.338 3 3v-1c0-1.662-1.338-3-3-3z" opacity=".2" fill="#F9F5D7"/>
</svg>
