<svg xmlns="http://www.w3.org/2000/svg" width="64" height="64" version="1">
    <rect width="52" height="52" x="6" y="7" rx="2.8" ry="2.8" opacity=".2"/>
    <rect width="52" height="52" x="6" y="6" rx="2.8" ry="2.8" fill="#F9F5D7"/>
    <path d="M13 15l10 18-10 18h6l10-18-10-18zm10 0l10 18-10 18h6l7-12.602L43 51h6L29 15zm16.668 12l2.222 4H51v-4zm4.442 8l2.222 4H51v-4z" opacity=".1"/>
    <path d="M13 14l10 18-10 18h6l10-18-10-18zm26.668 12l2.222 4H51v-4zm4.442 8l2.222 4H51v-4z" fill="#7B6F64"/>
    <path d="M23 14l10 18-10 18h6l7-12.602L43 50h6L29 14z" fill="#8F3F71"/>
    <path d="M8.8 6C7.25 6 6 7.25 6 8.8v1C6 8.25 7.25 7 8.8 7H55.2A2.796 2.796 0 0 1 58 9.8v-1C58 7.25 56.75 6 55.199 6H8.801z" fill="#F9F5D7" opacity=".2"/>
</svg>
