<svg xmlns="http://www.w3.org/2000/svg" width="64" height="64" version="1">
    <path d="M10 56v2c0 1.662 1.338 3 3 3h38c1.662 0 3-1.338 3-3v-2c0 1.662-1.338 3-3 3H13c-1.662 0-3-1.338-3-3z" opacity=".2"/>
    <path d="M54 57V7c0-1.662-1.338-3-3-3H13c-1.662 0-3 1.338-3 3v50c0 1.662 1.338 3 3 3h38c1.662 0 3-1.338 3-3z" fill="#48B9C7"/>
    <path d="M32 19c-7.732 0-14 6.268-14 14s6.268 14 14 14 14-6.268 14-14-6.268-14-14-14zm.771 4l.045.002c3.12.085 5.162 2.23 5.184 5.215.081.896 0 2.783 0 2.783 1.048.03 2.4-.098 3.238.973.74.945.746 2.018.752 3.506l.01 1.08c-.02 1.925-.621 3.543-1.738 4.677-1.118 1.138-2.696 1.749-4.565 1.764H28.256c-2.095 0-3.711-.584-4.805-1.734-1.094-1.152-1.445-2.708-1.445-4.871.002-.15-.011-.297-.002-.44l.004-7.605c.09-1.886.942-3.051 1.584-3.72 1.037-1.079 2.504-1.626 4.36-1.626h.05l4.77-.004zm-.583 4l-4.317.006c-1.019-.01-1.855.862-1.871 1.965-.016 1.102.795 2.011 1.813 2.029l4.345-.002c1.004 0 1.825-.798 1.842-1.89.016-1.104-.795-2.09-1.813-2.108zm-4.393 8c-.991 0-1.795.895-1.795 2s.804 2 1.795 2h8.41c.991 0 1.795-.895 1.795-2s-.804-2-1.795-2h-8.41z" opacity=".2"/>
    <path d="M32 18c-7.732 0-14 6.268-14 14s6.268 14 14 14 14-6.268 14-14-6.268-14-14-14zm.771 4l.045.002c3.12.085 5.162 2.23 5.184 5.215.081.896 0 2.783 0 2.783 1.048.03 2.4-.098 3.238.973.74.945.746 2.018.752 3.506l.01 1.08c-.02 1.925-.621 3.543-1.738 4.677-1.118 1.138-2.696 1.749-4.565 1.764H28.256c-2.095 0-3.711-.584-4.805-1.734-1.094-1.152-1.445-2.708-1.445-4.871.002-.15-.011-.297-.002-.44l.004-7.605c.09-1.886.942-3.051 1.584-3.72 1.037-1.079 2.504-1.626 4.36-1.626h.05l4.77-.004zm-.584 4l-4.316.006c-1.019-.01-1.855.862-1.871 1.965-.016 1.102.795 2.011 1.813 2.029l4.345-.002c1.004 0 1.825-.798 1.842-1.89.016-1.104-.795-2.09-1.813-2.108zm-4.392 8c-.991 0-1.795.895-1.795 2s.804 2 1.795 2h8.41c.991 0 1.795-.895 1.795-2s-.804-2-1.795-2h-8.41z" fill="#F9F5D7"/>
    <path d="M13 4c-1.662 0-3 1.338-3 3v1c0-1.662 1.338-3 3-3h38c1.662 0 3 1.338 3 3V7c0-1.662-1.338-3-3-3H13z" opacity=".1" fill="#F9F5D7"/>
</svg>
