<svg xmlns="http://www.w3.org/2000/svg" width="64" height="64" version="1">
    <path d="M46.102 9.871c-.378.028-.713.215-1.01.573-.335.403-.505.948-.455 1.431.072.714.283 1.303 1.144 3.014.473.94.628 1.317.791 2.07.23 1.065.322 1.997.32 3.233a17.028 17.028 0 0 1-.251 3.047c-.16.948-.431 2.089-.489 2.07-.087-.03-.19-.914-.27-2.205-.092-1.52-.17-2.13-.302-2.729-.353-1.594-1.14-2.267-2.441-2.07-.366.055-.955.234-1.01.303-.024.029.107.493.47 1.533.286.817.522 1.499.522 1.514 0 .051-.207.123-.252.086-.023-.02-.23-.314-.455-.641-.476-.691-.717-1.027-1.043-1.414-.876-1.04-1.825-1.538-2.81-1.48-.36.02-.902.139-.995.218-.064.055-.049.148 1.178 4.611l1.264 4.563-.287 2.795c-.155 1.541-.304 2.837-.319 2.879-.026.074-.032.084-.539.084-.285 0-.863-.021-1.279-.051-.92-.066-2.068-.074-2.459-.018a9.158 9.158 0 0 0-1.514.387c-1.685.578-3.162 1.6-4.394 3.065-1.136 1.349-2.1 3.067-3.047 5.437a67.391 67.391 0 0 0-1.043 2.879 13.245 13.245 0 0 0-.59 3.67c-.029 1.17.06 2.132.303 3.113.285 1.151.71 2.043 1.297 2.795.14.18.292.34.455.506l.015.016.018.017c.003.003-.003.012 0 .016a4.914 4.914 0 0 0 2.625 1.414c.749.153 2.055.179 2.055.035 0-.024-.228-.7-.506-1.498a51.35 51.35 0 0 1-.504-1.482c0-.036.139-.118.201-.118.017 0 .192.244.387.54.783 1.19 1.387 1.872 2.072 2.34.407.277.94.489 1.363.554.262.04.887.037 1.145-.018.318-.066.635-.171.674-.218l-2.022-3.317c1.325 1.032 3.064 2.03 4.293 2.375 1.54.432 2.991.221 4.092-.607.348-.262.708-.617.69-.672-.009-.026-1.289-.57-2.846-1.213-1.558-.644-2.837-1.189-2.844-1.21-.02-.064 1.207.007 2.541.15.427.045 1.122.122 1.549.167 1.373.147 1.682.169 2.627.168 1.003 0 1.443-.04 2.205-.2 1.187-.25 2.459-.85 3.5-1.634.424-.319.632-.514.607-.554-.013-.022-1.683-.016-4.916 0-3.328.017-4.842.005-4.898-.018-.01-.001-.028.003-.033 0-.022-.035.333-1.005.386-1.06.016-.016.14.024.27.101 2.242 1.332 7.069.989 10.57-.758 1.005-.5 1.668-.973 2.324-1.632.786-.789 1.249-1.65 1.313-2.475.019-.243.01-.252-.05-.252-.076 0-1.298.334-1.952.537-.241.075-.861.273-1.38.438-3.397 1.074-4.807 1.364-6.651 1.398-1.055.02-2-.044-1.969-.135.034-.103 1.469-.595 2.441-.841.83-.21 1.266-.3 3.198-.69 2.854-.576 3.89-.845 5.152-1.348 2.661-1.06 4.17-2.788 4.645-5.302.123-.655.198-1.801.119-1.801-.017 0-1.383.77-3.047 1.7-1.665.928-3.045 1.68-3.065 1.667-.046-.028-.241-.466-.218-.488.009-.01.222-.127.488-.27 1.276-.687 2.246-1.41 3.299-2.459 1.968-1.96 3.12-4.224 3.4-6.648.076-.653.051-1.844-.05-2.442-.122-.708-.402-1.754-.487-1.783-.02-.006-1.21 1.709-2.627 3.803-2.984 4.41-3.14 4.637-3.164 4.613-.054-.053.657-1.31 1.852-3.299.517-.86 1.072-1.791 1.228-2.07.383-.685.921-1.822 1.127-2.357.723-1.88.825-3.477.32-5a8.248 8.248 0 0 0-.773-1.582c-.273-.416-.682-.94-.725-.926-.019.006-.837 1.939-1.818 4.293l-1.783 4.275-2.475 4.225c-2.475 4.23-2.584 4.436-2.61 4.41-.02-.02.206-.654.438-1.229.58-1.436 1.176-2.58 2.81-5.386 1.045-1.792 1.514-2.63 1.936-3.467 1.315-2.605 1.95-4.708 2.106-7.004.031-.466.031-.688 0-.992-.165-1.585-.725-3.56-1.315-4.664-.342-.642-.785-1.153-1.177-1.346-.178-.087-.236-.101-.522-.101-.294 0-.347.011-.572.117-.55.257-.708.662-.707 1.7 0 .558.043.993.219 2.24l.117.874-.016.994c-.019.986-.033 1.304-.135 2.223-.223 2.022-.773 4.347-1.584 6.816-.305.932-.756 2.229-.806 2.307-.118.183.172-1.154.758-3.553.96-3.934 1.188-5.337 1.228-7.322.028-1.373-.065-2.321-.32-3.434-.153-.666-.213-.84-.438-1.296-.63-1.277-1.729-2.629-2.627-3.215-.463-.303-.883-.432-1.261-.405zm-12.137 10.74a6.46 6.46 0 0 0-.875.067c-1.263.214-2.27.68-2.795 1.315a1.741 1.741 0 0 0-.32 1.716c.027.08.046.155.033.168-.013.014-1.25.146-2.742.303-1.218.128-1.887.22-2.24.27-.048.006-.282.029-.303.033l-.202.017c-.003.004.016.055.016.069.001.02-.003.03 0 .033.014.111.068.35.203.824.24.84.29 1.01.252 1.01-.008 0-.133-.088-.27-.186-.56-.402-1.068-.595-1.615-.62-.603-.029-.984.134-1.414.554-.009.009-.025.008-.035.018a1.812 1.812 0 0 0-.437.605 3.17 3.17 0 0 0-.336 1.297c-.033.582.095 1.318.302 1.8l.069.169h.285c.745 0 1.331-.954 1.953-1.246.433-.107 1.23-.107 1.768 0 1.937.384 3.39 1.7 3.316 3.013-.02.35-.144.58-.455.893-.259.26-.597.49-1.178.806-.204.112-.544.305-.758.422-.213.117-.518.302-.673.405-.308.203-.69.542-.69.623 0 .07.19.066 1.01-.018.351-.036.64-.092.943-.135 1.47-.21 2.449-.493 3.215-.992.728-.474 1.275-1.229 1.48-2.021.034-.129.065-.22.085-.22s.154.07.287.153c.865.538 1.576.732 2.172.606.532-.113 1.044-.434 1.986-1.246.25-.216.467-.405.488-.405.022 0 .218.43.438.944s.426.96.455.994c.05.06.09.065.89-.069.455-.076.841-.168.86-.185.047-.044-.128-.633-.287-1.01-.256-.607-.698-1.155-1.229-1.498-.318-.206-.795-.429-1.564-.723-.838-.32-1.272-.527-1.668-.793-.393-.263-.771-.61-.723-.656.019-.017.154-.065.303-.117 1.183-.41 1.994-1.19 2.525-2.441.219-.516.396-1.174.69-2.475.133-.59.306-1.256.37-1.48.065-.225.11-.43.1-.456 0-.002-.038.016-.048.018-.118.026-.792.335-2.442 1.16-1.358.68-2.49 1.237-2.508 1.23-.018-.005.415-.4.96-.876.544-.477 1.036-.902 1.077-.942.027-.025.022-.05.034-.084a.78.78 0 0 0 .033-.27c0-.28-.01-.3-.102-.337-.073-.03-.363-.037-.69-.033zm-5.858 10.387c-1.394.173-2.77.504-4.095.97-1.374.502-2.745 1.165-3.76 2.245-.075.128-.46.413-.31.483 1.492-.404 3.589-.988 5.005-1.389l1.01-.287a90.747 90.747 0 0 0 1.834-.524l.434-.134c.136-.16.058-.641.078-.92-.042-.148.084-.535-.196-.444zm-17.289.303c-.031-.031-.68.051-.943.117-.75.188-1.2.637-1.465 1.45a1.896 1.896 0 0 0-.084.318c0 .079.027.081.32 0 .611-.17 1.092-.454 1.481-.858.318-.33.752-.966.691-1.027zm2.657.266a1.557 1.557 0 0 0-.284.004c-.402.025-.92.148-1.246.302-.93.442-1.476 1.243-1.734 2.508-.151.74-.175 1.147-.184 3.115-.005 1.027-.021 1.872-.035 1.885-.013.013-.061-.019-.117-.084-.21-.243-.48-.676-.86-1.43-.139-.277-.25-.462-.369-.673-.063-.114-.152-.321-.185-.371-.206-.312-.585-.703-.842-.875-.22-.148-.55-.27-.773-.27-.643 0-1.21.59-1.381 1.432-.164.809.154 1.478.824 1.732.11.042.28.062.606.068.248.005.475.019.488.034.013.015.068.154.119.302.149.435.51 1.148 1.06 2.07.582.976.953 1.686 1.112 2.122.17.467.967 3.551 1.076 4.158.094.528.12 1.01.068 1.264a5.248 5.248 0 0 1-.236.69c-.301.723-.323.994-.117 1.566.41 1.136 1.132 1.907 2.172 2.34.263.109.306.115.369-.034.141-.334.324-1.062.387-1.566.102-.825.028-1.412-.403-3.317-.2-.881-.357-1.953-.287-1.953.016 0 .148.09.287.203.14.114.598.481 1.026.807 1.114.85 1.253.966 2.525 2.223.48.475.83.795 1.129 1.06.596.528.951.755 1.447.926.267.092.377.117.606.117.558 0 .812-.231.841-.773.021-.383-.096-.822-.404-1.447-.301-.612-.542-.933-1.01-1.381-.543-.522-1.047-.891-2.675-1.936-1.387-.89-2.006-1.347-2.543-1.887-.71-.711-1.01-1.301-1.043-2.07-.028-.633.13-1.036.539-1.447.42-.422.882-.655 2.238-1.127 1.433-.499 1.967-.813 2.205-1.297.083-.169.084-.223.084-.506 0-.271.001-.342-.066-.47-.313-.596-1.252-.954-2.778-1.044l-.388-.017-1.295 1.297c-.713.711-1.304 1.272-1.315 1.261-.01-.01.301-1.671.692-3.703.39-2.031.722-3.72.722-3.754 0-.029-.006-.047-.052-.054zm2.46 2.377l.018.119c.021.227.139.763.235 1.025.301.828.825 1.336 1.683 1.617.204.067.298.072.32.034.032-.056-.05-.844-.117-1.127-.197-.84-.703-1.348-1.566-1.567a3.637 3.637 0 0 0-.438-.084zM4.22 37.446c-.036.014-.044.047-.067.101-.06.148-.152.709-.152.926 0 .572.261 1.045.758 1.38.192.13.22.132.219.05-.002-.147-.269-2.393-.288-2.424-.011-.02-.122-.033-.251-.033-.118 0-.184-.014-.22 0zm18.011 7.423c-.058 0-.36.31-.503.522-.397.585-.707 1.456-.893 2.525-.066.38-.065.558-.066 1.381-.002 1.041.021 1.278.218 1.87.217.651.577 1.084 1.01 1.243a.99.99 0 0 0 .285.051c.544.006 1.047-.596 1.28-1.513.197-.78.051-1.436-.672-2.963-.463-.978-.586-1.364-.659-1.953a3.816 3.816 0 0 1 .018-.995c.015-.119.007-.168-.018-.168zM8.63 51.284c-.045 0-.043.095.033.47.125.612.346.98.758 1.196.253.132.412.171.79.236.14.024.274.049.288.05.099.014.019-.384-.152-.742-.159-.33-.536-.69-.926-.89-.284-.145-.724-.32-.791-.32z" opacity=".2"/>
    <path d="M33.965 19.611a6.446 6.446 0 0 0-.876.068c-1.263.214-2.27.679-2.794 1.313a1.742 1.742 0 0 0-.32 1.717c.027.08.047.155.034.168-.014.013-1.252.146-2.744.303-1.218.128-1.886.22-2.24.27l-.302.033c-.014.003-.2.016-.202.017-.003.003.016.054.017.067 0 .02-.004.03 0 .034.013.111.066.35.202.825.24.84.29 1.01.252 1.01-.008 0-.133-.088-.27-.185-.56-.403-1.07-.598-1.615-.623-.603-.028-.985.136-1.414.555-.01.01-.025.008-.034.017a1.815 1.815 0 0 0-.438.606 3.167 3.167 0 0 0-.336 1.297c-.033.582.095 1.318.303 1.8l.067.17h.286c.745 0 1.331-.954 1.953-1.247.433-.106 1.23-.106 1.767 0 1.938.385 3.39 1.7 3.317 3.014-.02.35-.144.58-.455.892-.259.26-.597.49-1.178.808-.204.111-.544.304-.758.42-.213.118-.518.302-.673.405-.308.204-.69.542-.69.623 0 .07.19.067 1.01-.017.351-.036.64-.092.942-.135 1.47-.21 2.45-.494 3.216-.993.728-.474 1.276-1.228 1.481-2.02.034-.129.064-.219.084-.219s.153.069.287.152c.864.538 1.575.732 2.171.606.533-.113 1.045-.434 1.987-1.246.25-.216.466-.404.488-.404.021 0 .218.43.437.943s.426.958.455.993c.05.06.092.066.892-.068.455-.076.84-.167.859-.185.046-.044-.128-.633-.286-1.01-.257-.607-.698-1.155-1.23-1.498-.318-.206-.796-.43-1.565-.724-.837-.32-1.27-.526-1.667-.791-.392-.263-.772-.611-.723-.657a2.09 2.09 0 0 1 .303-.117c1.183-.411 1.993-1.19 2.525-2.441.219-.515.396-1.174.69-2.475.133-.59.306-1.257.37-1.481.065-.225.111-.43.101-.455 0-.003-.04.015-.05.017-.118.026-.791.337-2.441 1.162-1.358.678-2.49 1.234-2.508 1.228-.018-.006.415-.399.96-.875.543-.476 1.035-.903 1.077-.943.026-.025.022-.05.033-.084a.775.775 0 0 0 .034-.27c0-.28-.01-.298-.101-.336-.074-.03-.364-.037-.69-.034z" fill="#504945"/>
    <path d="M46.102 8.87c-.378.028-.713.216-1.01.573-.335.404-.504.949-.455 1.432.073.714.284 1.303 1.145 3.013.473.94.628 1.317.79 2.07.231 1.065.323 1.998.321 3.233a17.028 17.028 0 0 1-.252 3.047c-.159.949-.43 2.09-.488 2.07-.087-.029-.191-.914-.27-2.205-.092-1.52-.17-2.13-.302-2.728-.354-1.594-1.14-2.267-2.442-2.07-.365.055-.955.234-1.01.302-.023.03.108.494.471 1.533.286.817.522 1.5.522 1.514 0 .052-.208.123-.252.086-.023-.019-.23-.313-.455-.64-.476-.692-.718-1.028-1.043-1.415-.877-1.04-1.825-1.537-2.811-1.48-.36.02-.902.14-.994.219-.064.055-.05.147 1.178 4.611l1.263 4.563-.287 2.795c-.155 1.54-.303 2.837-.318 2.878-.027.075-.032.084-.54.084-.284 0-.862-.02-1.279-.05-.92-.066-2.068-.074-2.459-.018a9.159 9.159 0 0 0-1.513.387c-1.686.578-3.162 1.6-4.395 3.064-1.136 1.35-2.1 3.068-3.047 5.438a67.394 67.394 0 0 0-1.043 2.879 13.245 13.245 0 0 0-.59 3.67c-.028 1.17.06 2.132.303 3.113.285 1.151.71 2.043 1.297 2.795.14.18.293.34.455.506l.016.016.017.017c.004.003-.003.012 0 .016a4.914 4.914 0 0 0 2.625 1.414c.75.153 2.055.179 2.055.035 0-.024-.227-.7-.506-1.498a51.354 51.354 0 0 1-.504-1.482c0-.036.14-.118.201-.118.017 0 .193.244.387.54.784 1.19 1.388 1.872 2.072 2.34.407.277.94.489 1.364.554.261.04.886.037 1.144-.018.319-.066.635-.171.674-.218l-2.021-3.317c1.325 1.032 3.064 2.03 4.293 2.375 1.539.432 2.99.221 4.092-.607.348-.262.707-.617.689-.672-.008-.026-1.288-.57-2.846-1.213-1.557-.644-2.836-1.189-2.844-1.21-.02-.064 1.208.007 2.542.15.427.045 1.121.122 1.548.167 1.374.147 1.682.169 2.627.168 1.004 0 1.443-.04 2.205-.2 1.188-.25 2.46-.85 3.5-1.634.424-.319.633-.514.608-.554-.014-.022-1.684-.017-4.916 0-3.328.016-4.842.005-4.899-.018-.009-.001-.028.003-.033 0-.021-.035.333-1.005.387-1.06.015-.016.14.024.27.101 2.241 1.332 7.068.988 10.57-.758 1.005-.5 1.667-.973 2.324-1.633.786-.788 1.248-1.65 1.313-2.474.019-.244.01-.252-.051-.252-.075 0-1.297.334-1.951.537-.242.075-.861.273-1.381.437-3.396 1.075-4.806 1.364-6.65 1.399-1.055.02-2-.044-1.97-.135.035-.103 1.47-.595 2.442-.842.83-.21 1.266-.3 3.197-.69 2.855-.576 3.89-.844 5.153-1.347 2.661-1.06 4.169-2.788 4.644-5.303.124-.654.199-1.8.12-1.8-.017 0-1.383.77-3.048 1.699-1.664.929-3.044 1.68-3.064 1.668-.046-.029-.241-.466-.219-.488.01-.01.223-.127.489-.27 1.276-.687 2.245-1.41 3.298-2.459 1.968-1.96 3.12-4.224 3.4-6.649.076-.652.052-1.843-.05-2.44-.12-.71-.401-1.756-.486-1.784-.02-.006-1.21 1.708-2.627 3.803-2.984 4.41-3.14 4.636-3.164 4.613-.054-.054.657-1.311 1.851-3.299.517-.86 1.073-1.792 1.229-2.07.382-.685.92-1.823 1.127-2.358.723-1.88.825-3.476.32-5a8.248 8.248 0 0 0-.773-1.582c-.273-.415-.683-.94-.725-.926-.02.007-.837 1.94-1.818 4.293l-1.784 4.276-2.474 4.225c-2.475 4.23-2.584 4.435-2.61 4.41-.02-.02.206-.655.438-1.229.58-1.436 1.176-2.58 2.81-5.387 1.044-1.792 1.514-2.63 1.936-3.466 1.315-2.605 1.95-4.709 2.105-7.004.032-.467.032-.689 0-.993-.165-1.585-.724-3.56-1.314-4.664-.343-.641-.786-1.153-1.178-1.345-.177-.088-.236-.102-.521-.102-.295 0-.347.012-.573.117-.549.258-.707.662-.707 1.701 0 .558.043.992.22 2.239l.116.875-.015.994c-.02.985-.033 1.303-.135 2.223-.224 2.022-.774 4.347-1.584 6.816-.306.931-.756 2.228-.807 2.307-.117.182.173-1.154.758-3.553.96-3.934 1.189-5.338 1.229-7.322.027-1.374-.066-2.322-.32-3.434-.154-.667-.214-.842-.438-1.297-.63-1.277-1.73-2.628-2.627-3.215-.463-.302-.884-.432-1.262-.404z" fill="#8F3F71"/>
    <path d="M28.107 29.998c-1.394.173-2.77.504-4.096.969-1.374.502-2.745 1.165-3.76 2.246-.075.127-.46.413-.31.482 1.492-.403 3.59-.987 5.006-1.388l1.01-.288a90.75 90.75 0 0 0 1.834-.523l.433-.135c.137-.16.058-.64.078-.92-.041-.147.084-.534-.195-.443z" fill="#CB241D"/>
    <path d="M10.818 30.301c-.032-.031-.68.052-.943.118-.749.187-1.2.635-1.464 1.448a1.907 1.907 0 0 0-.085.32c0 .078.027.08.32 0 .611-.17 1.092-.455 1.482-.86.318-.33.75-.965.69-1.026z" fill="#8F3F71"/>
    <path d="M13.191 30.57c-.402.025-.92.149-1.245.303-.93.442-1.476 1.243-1.734 2.509-.151.74-.177 1.146-.185 3.114-.005 1.027-.02 1.872-.034 1.885-.013.014-.062-.019-.118-.084-.21-.243-.48-.677-.858-1.43-.14-.278-.253-.462-.37-.674-.064-.114-.153-.32-.186-.37-.206-.312-.584-.704-.842-.876-.22-.147-.551-.27-.774-.27-.643 0-1.21.59-1.38 1.432-.164.809.155 1.48.824 1.734.11.041.28.06.606.067.25.005.476.019.489.034.013.015.067.154.117.303.15.434.511 1.148 1.061 2.07.581.975.952 1.685 1.111 2.121.17.468.969 3.552 1.077 4.158.095.528.12 1.01.068 1.263-.023.111-.127.43-.236.69-.301.724-.324.995-.118 1.566.41 1.136 1.132 1.908 2.172 2.34.263.109.307.115.37-.034.142-.334.325-1.062.387-1.566.103-.824.028-1.41-.404-3.316-.2-.881-.356-1.953-.286-1.953.017 0 .147.089.286.202.14.114.6.483 1.027.808 1.115.85 1.253.965 2.525 2.222.481.476.829.796 1.128 1.061.596.527.952.755 1.448.926.267.092.377.117.606.118.558 0 .812-.233.842-.775.02-.382-.096-.822-.404-1.447-.302-.612-.543-.932-1.01-1.38-.544-.523-1.049-.892-2.677-1.937-1.386-.889-2.004-1.345-2.542-1.885-.709-.712-1.01-1.302-1.044-2.07-.028-.634.13-1.037.54-1.448.419-.422.882-.656 2.238-1.128 1.433-.499 1.968-.812 2.205-1.296.083-.169.084-.223.084-.506 0-.271 0-.342-.067-.47-.312-.596-1.252-.955-2.778-1.045l-.387-.016-1.296 1.296c-.712.711-1.302 1.273-1.313 1.262-.01-.01.3-1.671.69-3.703.39-2.032.724-3.72.724-3.754 0-.058-.031-.07-.337-.05z" fill="#504945"/>
    <path d="M15.935 32.944l.017.118c.021.227.14.764.236 1.027.302.828.825 1.335 1.683 1.616.204.067.298.072.32.033.032-.055-.051-.844-.118-1.127-.197-.84-.702-1.348-1.565-1.566a3.647 3.647 0 0 0-.438-.084l-.135-.017zM4.219 36.445c-.036.014-.045.047-.067.101-.061.148-.152.709-.152.926 0 .572.261 1.045.758 1.38.192.13.22.133.218.051-.001-.146-.267-2.393-.286-2.424-.012-.019-.123-.034-.252-.034-.118 0-.184-.013-.22 0zM22.231 43.87c-.058 0-.36.309-.505.521-.397.585-.706 1.456-.892 2.525-.066.38-.066.557-.067 1.38-.001 1.042.022 1.277.219 1.87.217.651.577 1.086 1.01 1.245.069.025.193.05.286.05.543.006 1.047-.598 1.28-1.515.197-.78.05-1.435-.674-2.962-.463-.978-.584-1.363-.657-1.953a3.804 3.804 0 0 1 .017-.993c.015-.12.008-.169-.017-.169zM8.63 50.283c-.046 0-.043.096.033.471.125.612.346.98.758 1.196.252.132.412.17.79.235.14.024.272.049.287.05.099.014.02-.382-.152-.74-.158-.33-.535-.692-.925-.892-.284-.145-.724-.32-.792-.32z" fill="#8F3F71"/>
    <path d="M26.69 25.307s.75-.522 1.428-.495c.79.032 1.31.728 1.31.728-1.747 1.077-2.737-.233-2.737-.233z" fill="#CB241D"/>
    <path d="M46.102 8.871c-.378.028-.713.215-1.01.572-.335.404-.505.949-.455 1.432.012.123.037.244.06.365.073-.286.202-.565.395-.797.297-.357.632-.544 1.01-.572.378-.027.798.102 1.261.404.898.587 1.998 1.938 2.627 3.215.225.456.285.63.438 1.297.19.834.292 1.576.318 2.473l.002-.04c.027-1.373-.065-2.32-.32-3.433-.153-.667-.213-.841-.438-1.297a10.133 10.133 0 0 0-1.213-1.867c-.465-.57-.965-1.054-1.414-1.348-.463-.302-.883-.431-1.261-.404zm6.144 1.953c-.294 0-.347.012-.572.117-.55.258-.708.663-.707 1.702 0 .161.016.336.025.5.055-.666.235-.992.682-1.202.225-.105.278-.117.572-.117.286 0 .344.015.522.102.392.192.835.704 1.177 1.345.59 1.103 1.149 3.073 1.315 4.657.031-.467.031-.689 0-.992-.165-1.585-.725-3.56-1.315-4.665-.342-.641-.785-1.153-1.177-1.345-.178-.087-.236-.102-.522-.102zm-.957 5.826l-.002.1c-.019.985-.033 1.303-.135 2.223-.223 2.022-.773 4.347-1.584 6.816-.122.372-.188.534-.322.922-.358 1.516-.577 2.529-.484 2.385.05-.079.5-1.375.806-2.307.81-2.469 1.36-4.794 1.584-6.816.102-.92.116-1.238.135-2.223l.016-.994-.014-.106zm-12.728.555c-.36.021-.902.14-.995.219-.034.03-.002.22.184.94.205-.07.534-.143.81-.159.986-.057 1.935.44 2.811 1.48.326.387.567.724 1.043 1.415.226.327.432.621.455.64.045.037.252-.034.252-.086 0-.01-.2-.585-.375-1.086-.08-.109-.167-.229-.332-.468-.476-.691-.717-1.028-1.043-1.414-.876-1.041-1.825-1.538-2.81-1.48zm5.043.066a2.777 2.777 0 0 0-.465.034c-.366.055-.955.234-1.01.302-.017.021.082.351.244.848.003.01 0 .008.004.018l.012.03c.217-.076.506-.161.75-.198 1.302-.197 2.088.476 2.441 2.07.133.6.21 1.208.303 2.729.078 1.29.182 2.176.27 2.205.057.019.329-1.122.488-2.07.18-1.081.25-1.91.252-3.048 0-.172-.016-.307-.02-.468l-.002.037c-.01.407-.03.821-.066 1.199v.012c-.04.408-.088.811-.164 1.267-.16.95-.431 2.09-.489 2.07-.087-.028-.19-.914-.27-2.204-.092-1.52-.17-2.13-.302-2.729a5.297 5.297 0 0 0-.144-.523c-.018-.053-.038-.099-.057-.149a3.592 3.592 0 0 0-.125-.299c-.025-.052-.053-.1-.08-.148a2.11 2.11 0 0 0-.51-.621 1.601 1.601 0 0 0-.195-.13c-.04-.022-.078-.046-.12-.066a1.658 1.658 0 0 0-.23-.084l-.01-.003c-.02-.007-.041-.012-.062-.018-.017-.005-.033-.012-.05-.016l-.005-.002a2.014 2.014 0 0 0-.388-.045zm13.052.54c-.019.006-.837 1.938-1.818 4.293l-1.783 4.275-2.475 4.225c-.532.908-.62 1.057-.955 1.632l-.002.004c-.51.956-.892 1.745-1.215 2.545-.232.574-.458 1.208-.437 1.229.025.025.134-.18 2.61-4.41l2.474-4.225 1.783-4.275c.98-2.355 1.8-4.287 1.818-4.293.043-.015.452.51.725.925.275.42.627 1.14.773 1.582.16.481.251.971.29 1.473.014-.19.02-.376.019-.56v-.09a6.232 6.232 0 0 0-.031-.479c-.004-.037-.005-.074-.008-.111l-.002-.01c-.001-.01 0-.02-.002-.03a6.034 6.034 0 0 0-.076-.45c-.01-.047-.013-.095-.024-.141 0-.003 0-.007-.002-.01a6.157 6.157 0 0 0-.164-.592 8.248 8.248 0 0 0-.773-1.582c-.273-.415-.682-.94-.725-.925zm-22.691 1.8a6.46 6.46 0 0 0-.875.067c-1.263.214-2.27.68-2.795 1.314-.1.122-.181.25-.246.385-.048.098-.074.201-.102.305-.008.032-.026.062-.033.095-.01.046-.004.093-.01.139-.007.074-.018.147-.017.22 0 .022-.003.043-.002.065.006.132.03.263.066.395l.004.023.004.018c.068-.227.173-.448.336-.645.524-.634 1.532-1.1 2.795-1.314.2-.034.549-.063.875-.067.183-.002.26.013.387.02h.002l.335-.295c.027-.025.022-.05.034-.084a.78.78 0 0 0 .033-.27c0-.28-.01-.3-.102-.337-.073-.031-.363-.038-.69-.034zm3.685.135c0-.003-.038.015-.048.018-.118.025-.792.335-2.442 1.16-.228.114-.21.102-.422.207-.006.036-.008.099-.015.121-.012.033-.007.059-.034.084-.041.04-.533.465-1.078.941-.544.477-.977.871-.959.877.018.006 1.15-.551 2.508-1.23 1.376-.688 1.965-.961 2.227-1.067.058-.227.135-.556.164-.656.064-.224.11-.43.1-.455zm-7.752 3.143c-.105.021-1.2.14-2.632.29-1.218.129-1.887.22-2.24.27-.048.007-.282.03-.303.033-.014.003-.2.017-.202.018-.003.003.016.055.016.068.001.02-.003.03 0 .034.014.11.068.35.203.824l.016.053c.056-.007.227-.024.27-.03.353-.05 1.022-.141 2.24-.27 1.492-.156 2.729-.289 2.742-.302.013-.013-.006-.088-.033-.168a1.748 1.748 0 0 1-.077-.82zm-6.79 1.74c-.604-.028-.985.135-1.415.555-.009.009-.025.008-.035.017a1.812 1.812 0 0 0-.437.606 3.17 3.17 0 0 0-.336 1.297c-.013.228.005.48.037.732v.012c.046-.372.132-.699.299-1.041.14-.29.222-.39.437-.606.01-.01.026-.008.035-.017.43-.42.811-.583 1.414-.555.547.025 1.054.218 1.616.621.136.097.261.186.27.186.036 0-.013-.17-.253-1.01-.032-.113-.025-.108-.049-.196a4.233 4.233 0 0 0-.404-.253 3.119 3.119 0 0 0-.385-.18l-.007-.004c-.044-.017-.088-.025-.131-.04-.043-.013-.086-.023-.13-.036-.043-.013-.086-.028-.13-.037a2.506 2.506 0 0 0-.397-.051zm36.31 0c-.018-.006-1.167 1.655-2.473 3.58-.08.155-.166.337-.238.467-.156.278-.711 1.21-1.228 2.07-1.195 1.988-1.906 3.245-1.852 3.299.023.023.18-.204 3.164-4.613 1.417-2.094 2.608-3.81 2.627-3.803.085.028.365 1.075.486 1.783.038.224.053.568.069.899.011-.3.013-.624.006-.934a8.738 8.738 0 0 0-.075-.965c-.12-.708-.4-1.755-.486-1.783zm-19.484 2.697l-.213 2.067c-.155 1.54-.304 2.837-.319 2.878-.018.053-.093.07-.275.077h-.002c-.075.003-.114.007-.262.007-.285 0-.863-.02-1.279-.05-.118-.009-.242-.007-.365-.014-.358-.019-.727-.039-1.063-.041-.06 0-.08.006-.136.006-.374 0-.725.007-.895.031a9.158 9.158 0 0 0-2.71.902 9.579 9.579 0 0 0-1.027.602c-.085.054-.168.108-.25.166-.328.235-.648.486-.952.766a11 11 0 0 0-.97 1.015c-1.135 1.35-2.099 3.068-3.046 5.438a67.39 67.39 0 0 0-1.043 2.879 13.245 13.245 0 0 0-.59 3.67c-.008.315-.004.613.006.902.04-1.276.234-2.458.584-3.572.145-.462.759-2.168 1.043-2.88.947-2.37 1.91-4.088 3.047-5.437 1.232-1.464 2.709-2.486 4.394-3.064a9.158 9.158 0 0 1 1.514-.387c.391-.056 1.54-.048 2.459.018.416.03.994.05 1.28.05.506 0 .512-.01.538-.084.015-.041.164-1.337.319-2.878l.287-2.795-.074-.272zm-5.518.063c-.15.07-.288.152-.451.209-.149.051-.284.1-.303.117-.048.045.33.393.723.656.396.266.83.473 1.668.793.769.294 1.246.517 1.564.723.531.343.973.89 1.229 1.498l.023.066c.066-.017.258-.051.264-.056.047-.045-.128-.634-.287-1.01-.256-.607-.698-1.155-1.229-1.498-.318-.206-.795-.429-1.564-.723-.41-.157-.72-.285-.979-.408a5.179 5.179 0 0 1-.658-.367zm-6.309 2.609c-.122.015-.244.039-.367.057-.63.09-1.255.212-1.873.363l-.049.012c-.61.15-1.213.329-1.806.537-1.374.503-2.745 1.165-3.76 2.246-.075.127-.46.413-.31.482.413-.111.907-.253 1.386-.384.822-.573 1.748-1.002 2.684-1.344a19.763 19.763 0 0 1 4.095-.969c.14-.046.18.029.188.133v-.004c.011-.11.013-.224.01-.35-.004-.118-.009-.243-.002-.336-.042-.147.084-.534-.196-.443zm-17.289.303c-.031-.032-.68.051-.943.117-.75.188-1.2.637-1.465 1.45a1.896 1.896 0 0 0-.084.318c0 .079.027.08.32 0 .05-.014.093-.034.141-.05.264-.358.61-.598 1.088-.718.044-.011.126-.022.188-.033.02-.02.044-.036.064-.057.318-.33.752-.966.691-1.027zm2.657.265a1.558 1.558 0 0 0-.284.004c-.402.025-.92.148-1.246.303-.93.442-1.476 1.242-1.734 2.508-.151.74-.175 1.147-.184 3.115-.005 1.027-.021 1.872-.035 1.885-.013.013-.061-.02-.117-.084-.21-.244-.48-.676-.86-1.43-.139-.277-.25-.462-.369-.674-.063-.114-.152-.32-.185-.37-.206-.312-.585-.704-.842-.876-.22-.147-.55-.27-.773-.27-.643 0-1.21.59-1.381 1.432-.034.166-.035.32-.03.471.01.14.037.273.075.399.202-.767.73-1.301 1.336-1.301.222 0 .553.122.773.27.257.171.636.563.842.874.033.05.122.257.185.371.119.212.23.397.37.674.379.754.65 1.186.859 1.43.056.065.104.097.117.084.014-.013.03-.858.035-1.885.01-1.968.033-2.375.184-3.115.258-1.266.805-2.066 1.734-2.508.326-.155.844-.278 1.246-.303.084-.005.107-.001.155-.002.038-.198.181-.938.181-.947 0-.029-.006-.047-.052-.055zm15.015.657l-.002.004c-.038.09-.117.183-.185.273v.002c-.058.075-.097.147-.18.23-.259.26-.597.49-1.178.807-.196.107-.514.289-.728.406l-.03.016c-.213.117-.518.301-.673.404-.308.204-.69.542-.69.623 0 .07.19.067 1.01-.017.168-.018.303-.042.451-.065.21-.116.482-.27.66-.367.581-.317.92-.546 1.178-.807.31-.312.436-.542.455-.892a1.817 1.817 0 0 0-.088-.617zm-12.554 1.72l.017.12c.019.198.113.613.2.894.001.007.001.015.003.022h.002c.093.013.215.032.35.066.863.218 1.369.726 1.566 1.566.008.033.014.104.022.149l.004.002c.05.004.08-.005.091-.024.032-.055-.05-.843-.117-1.127-.197-.84-.703-1.348-1.566-1.566a3.637 3.637 0 0 0-.438-.084l-.134-.018zm43.162 2.409c-.017 0-1.383.77-3.047 1.699-.106.059-.092.048-.196.105l-.003.002c-.802.71-1.607 1.27-2.596 1.803-.266.143-.48.26-.488.27-.023.022.172.46.218.488.02.012 1.4-.74 3.065-1.668 1.65-.921 2.98-1.672 3.02-1.686 0-.01.002-.018.003-.027.05-.513.075-.986.024-.986zm-44.375.168l-.723.724-.572.572c-.59.589-.925.9-1.088 1.043v.002c-.058.317-.23 1.214-.227 1.217.011.01.602-.55 1.315-1.262l1.295-1.296.388.017c1.503.089 2.434.438 2.76 1.018a.68.68 0 0 0 .072-.21c.011-.07.012-.153.012-.294 0-.167-.006-.255-.021-.33-.024-.007-.035-.007-.063-.016.016-.05.008-.088.012-.133v-.002l-.008-.011a1.051 1.051 0 0 0-.184-.239l-.02-.017a1.603 1.603 0 0 0-.251-.188c-.047-.03-.107-.055-.16-.084-.2-.103-.43-.194-.703-.267l-.012-.004-.006-.002h-.006a6.818 6.818 0 0 0-.597-.127 8.73 8.73 0 0 0-.825-.094l-.388-.017zm-10.504.925c-.036.014-.044.047-.067.102-.06.147-.152.708-.152.926 0 .16.026.31.066.453.028-.158.06-.315.086-.38.023-.054.031-.087.067-.1.035-.015.101 0 .218 0 .13 0 .24.014.252.033.012.018.092.758.17 1.433l.004.002a.2.2 0 0 0 .084.031c.02 0 .03-.013.03-.043-.002-.146-.269-2.393-.288-2.423-.011-.02-.122-.034-.251-.034-.118 0-.184-.014-.22 0zm8.726 5.38a2.17 2.17 0 0 0-.056.603c.034.769.334 1.359 1.043 2.07.537.54 1.156.997 2.543 1.887 1.628 1.044 2.132 1.413 2.675 1.935.468.449.709.77 1.01 1.381.154.313.261.579.326.815.042-.103.07-.222.078-.368.021-.382-.096-.822-.404-1.447-.301-.611-.542-.932-1.01-1.38-.543-.523-1.047-.892-2.675-1.936-1.387-.89-2.006-1.347-2.543-1.887a5.152 5.152 0 0 1-.403-.455c-.066-.083-.119-.165-.174-.246-.04-.062-.082-.124-.117-.186a2.64 2.64 0 0 1-.293-.787zm42.55 1.27c-.037 0-.563.156-.938.259h-.002l-.004.001c-.405.111-.67.173-1.008.278-.241.075-.861.273-1.38.437-.346.11-.593.178-.9.272l-.015.004-.025.008c-1.675.51-2.87.806-3.889.955-.33.048-.67.086-.99.109l-.02.002c-.081.02-.251.05-.34.072-.972.246-2.407.74-2.441.842-.03.09.914.154 1.969.135 1.844-.035 3.254-.324 6.65-1.399.52-.164 1.14-.362 1.381-.437a31.01 31.01 0 0 1 1.81-.498h.002l.002-.008c.037-.101.068-.202.096-.303.041-.16.08-.319.092-.476.019-.244.01-.252-.05-.252zm-33.265.774c-.058 0-.36.31-.503.522-.397.585-.707 1.455-.893 2.525-.066.38-.065.557-.066 1.38 0 .123.007.159.007.26.007-.24.022-.425.059-.64.186-1.07.496-1.94.893-2.525.141-.209.43-.506.496-.516a3.95 3.95 0 0 1 .025-.838c.015-.119.007-.168-.018-.168zm.014 1.225c-.045.39-.047.667-.014.937.073.59.196.976.659 1.953.382.808.595 1.367.69 1.834.037-.181.054-.36.05-.547s-.031-.382-.084-.601-.132-.46-.24-.736a15.177 15.177 0 0 0-.416-.95 10.347 10.347 0 0 1-.461-1.091 4.02 4.02 0 0 1-.184-.8zm-9.54 1.492c-.07 0 .087 1.072.286 1.953.24 1.055.36 1.694.41 2.205v-.015a4.71 4.71 0 0 0 .03-.542c0-.045-.008-.1-.01-.148a5.5 5.5 0 0 0-.037-.49l-.002-.014c-.001-.008-.007-.026-.008-.035-.062-.475-.18-1.068-.383-1.96-.066-.292-.112-.577-.162-.864-.042-.029-.118-.09-.125-.09zm-1.913 1.353a5.131 5.131 0 0 1-.209.61 4.85 4.85 0 0 0-.164.441c-.027.087-.04.162-.053.239-.007.036-.017.076-.021.11-.01.097-.007.19.004.284a1.919 1.919 0 0 0 .072.338l.004.014c.04-.127.09-.262.158-.426.109-.26.214-.578.236-.69.04-.193.02-.54-.027-.92zm30.254 1.235c-.082.148-.384.965-.363.998.005.002.024-.002.033 0 .056.023 1.57.034 4.898.017a207.71 207.71 0 0 1 3.647 0c.227-.142.451-.286.662-.445.424-.319.632-.514.607-.555-.013-.022-1.683-.016-4.916 0-2.368.012-2.827 0-3.486-.011-.169-.003-.825 0-.893-.004h-.19zm-32.416 1.11c-.045 0-.043.095.033.47.026.127.057.241.094.346.036.103.078.197.123.285.17.061.347.12.54.219.262.133.512.341.7.562.035.006.053.013.092.02.14.023.273.048.287.05.099.013.019-.384-.152-.742-.159-.33-.536-.69-.926-.89-.284-.146-.724-.32-.791-.32zm29.633 1.806c-.471-.028-.772-.03-.762.002.007.022 1.286.567 2.844 1.21 1.163.481 1.685.712 2.125.907l.031-.022c.348-.262.708-.616.69-.671-.009-.026-1.289-.57-2.846-1.213-.048-.02-.04-.018-.088-.037l-.215-.024a39.82 39.82 0 0 0-1.78-.152zm-4.147 1.33l1.518 2.49h.002c.004 0 .004-.003.008-.004.242-.062.463-.132.494-.17l-.942-1.545a17.135 17.135 0 0 1-1.08-.771zm-3.619.12c-.062 0-.201.08-.201.116 0 .02.225.685.504 1.483.107.307.113.337.195.578l.008-.002c.175-.014.303-.037.303-.078 0-.024-.228-.701-.506-1.498-.064-.182-.06-.176-.115-.338-.067-.093-.18-.262-.188-.262z" opacity=".1" fill="#F9F5D7"/>
    <path d="M28.305 30.777zM27.74 30.055zM25.814 30.432zM20.252 33.213c-.056.095-.287.279-.336.394.05-.115.28-.299.336-.394z" fill="green"/>
</svg>
