<svg xmlns="http://www.w3.org/2000/svg" width="64" height="64">
    <circle cx="32" cy="33" r="28" opacity=".2"/>
    <circle cx="32" cy="32" r="28" fill="#8F3F71"/>
    <path d="M22.158 19c-2.455 0-5.028 1.359-6.467 5.004C12.654 31.696 11 37.645 11 41.254c0 2.775.982 4.533 3.063 5.562a1.766 1.766 0 0 0 1.96-.264l5.442-4.802c.975-.865 1.827-1.758 4.207-1.758H38.33c2.38 0 3.228.893 4.205 1.758l5.442 4.803c.54.478 1.316.583 1.962.263C52.02 45.788 53 44.03 53 41.252c0-3.608-1.653-9.557-4.69-17.248C46.873 20.359 44.298 19 41.843 19c-1.149 0-2.27.298-3.238.799-4.155 2.14-8.96 2.186-13.202 0A7.144 7.144 0 0 0 22.158 19zM32 23a3 3 0 1 1 0 6 3 3 0 0 1 0-6zm-9.8 3a4.2 4.2 0 1 1 0 8.4 4.2 4.2 0 0 1-4.2-4.2c0-2.32 1.88-4.2 4.2-4.2zm19.3 0a1.5 1.5 0 0 1 1.5 1.5 1.5 1.5 0 0 1-1.5 1.5 1.5 1.5 0 0 1-1.5-1.5 1.5 1.5 0 0 1 1.5-1.5zm-19.3 1.4A2.8 2.8 0 1 0 22.2 33a2.8 2.8 0 0 0-.002-5.6zM38.5 29a1.5 1.5 0 0 1 1.5 1.5 1.5 1.5 0 0 1-1.5 1.5 1.5 1.5 0 0 1-1.5-1.5 1.5 1.5 0 0 1 1.5-1.5zm6 0a1.5 1.5 0 0 1 1.5 1.5 1.5 1.5 0 0 1-1.5 1.5 1.5 1.5 0 0 1-1.5-1.5 1.5 1.5 0 0 1 1.5-1.5zm-3 3a1.5 1.5 0 0 1 1.5 1.5 1.5 1.5 0 0 1-1.5 1.5 1.5 1.5 0 0 1-1.5-1.5 1.5 1.5 0 0 1 1.5-1.5z" opacity=".2"/>
    <path d="M22.158 18c-2.455 0-5.028 1.359-6.467 5.004C12.654 30.696 11 36.645 11 40.254c0 2.775.982 4.533 3.063 5.562a1.766 1.766 0 0 0 1.96-.264l5.442-4.802c.975-.865 1.827-1.758 4.207-1.758H38.33c2.38 0 3.228.893 4.205 1.758l5.442 4.803c.54.478 1.316.583 1.962.263C52.02 44.788 53 43.03 53 40.252c0-3.608-1.653-9.557-4.69-17.248C46.873 19.359 44.298 18 41.843 18c-1.149 0-2.27.298-3.238.799-4.155 2.14-8.96 2.186-13.202 0A7.144 7.144 0 0 0 22.158 18zM32 22a3 3 0 1 1 0 6 3 3 0 0 1 0-6zm-9.8 3a4.2 4.2 0 1 1 0 8.4 4.2 4.2 0 0 1-4.2-4.2c0-2.32 1.88-4.2 4.2-4.2zm19.3 0a1.5 1.5 0 0 1 1.5 1.5 1.5 1.5 0 0 1-1.5 1.5 1.5 1.5 0 0 1-1.5-1.5 1.5 1.5 0 0 1 1.5-1.5zm-19.3 1.4A2.8 2.8 0 1 0 22.2 32a2.8 2.8 0 0 0-.002-5.6zM38.5 28a1.5 1.5 0 0 1 1.5 1.5 1.5 1.5 0 0 1-1.5 1.5 1.5 1.5 0 0 1-1.5-1.5 1.5 1.5 0 0 1 1.5-1.5zm6 0a1.5 1.5 0 0 1 1.5 1.5 1.5 1.5 0 0 1-1.5 1.5 1.5 1.5 0 0 1-1.5-1.5 1.5 1.5 0 0 1 1.5-1.5zm-3 3a1.5 1.5 0 0 1 1.5 1.5 1.5 1.5 0 0 1-1.5 1.5 1.5 1.5 0 0 1-1.5-1.5 1.5 1.5 0 0 1 1.5-1.5z" fill="#F9F5D7"/>
    <path d="M32 4A28 28 0 0 0 4 32a28 28 0 0 0 .021.586A28 28 0 0 1 32 5a28 28 0 0 1 27.979 27.414A28 28 0 0 0 60 32 28 28 0 0 0 32 4z" fill="#F9F5D7" opacity=".2"/>
</svg>
