<svg xmlns="http://www.w3.org/2000/svg" width="64" height="64">
    <path d="M4.043 31.828A28 28 0 0 0 4 33a28 28 0 0 0 28 28 28 28 0 0 0 28-28 28 28 0 0 0-.042-.828A28 28 0 0 1 32 59 28 28 0 0 1 4.044 31.828z" opacity=".2"/>
    <path d="M32 4A28 28 0 0 0 4 32a28 28 0 0 0 28 28 28 28 0 0 0 28-28A28 28 0 0 0 32 4z" fill="#48B9C7"/>
    <path d="M31.998 4A28 28 0 0 0 4 32a28 28 0 0 0 .021.406A28 28 0 0 1 31.998 5H32a28 28 0 0 1 27.977 27.586 28 28 0 0 0 .021-.586A28 28 0 0 0 32 4h-.002z" opacity=".2" fill="#F9F5D7"/>
    <path d="M35.064 19a8.827 8.827 0 0 0-7.827 4.73 6.148 6.148 0 0 0-3.28-.946c-3.384 0-6.127 2.71-6.127 6.054 0 .531.085 1.046.215 1.537A9.046 9.046 0 0 0 14 37.919C14 42.949 18.1 47 23.191 47H40.81C45.9 47 50 42.95 50 37.919c0-4.018-2.625-7.405-6.271-8.608a8.618 8.618 0 0 0 .143-1.608c0-4.807-3.943-8.703-8.808-8.703z" opacity=".2"/>
    <path d="M35.064 18a8.827 8.827 0 0 0-7.827 4.73 6.148 6.148 0 0 0-3.28-.946c-3.384 0-6.127 2.71-6.127 6.054 0 .531.085 1.046.215 1.537A9.046 9.046 0 0 0 14 36.919C14 41.949 18.1 46 23.191 46H40.81C45.9 46 50 41.95 50 36.919c0-4.018-2.625-7.405-6.271-8.608a8.618 8.618 0 0 0 .143-1.608c0-4.807-3.943-8.703-8.808-8.703z" fill="#F9F5D7"/>
</svg>
