<svg xmlns="http://www.w3.org/2000/svg" width="64" height="64" version="1">
    <path d="M59.957 31.828A28 28 0 0 1 32 59 28 28 0 0 1 4.044 32.172 28 28 0 0 0 4 33a28 28 0 0 0 28 28 28 28 0 0 0 27.999-28 28 28 0 0 0-.044-1.172z" opacity=".2"/>
    <circle cx="32" cy="32.001" r="28" fill="#F9F5D7"/>
    <circle cx="19" cy="27.001" r="9" fill="#665C54"/>
    <circle cx="44.999" cy="27.001" r="9" fill="#665C54"/>
    <path d="M32 16c-13.255 0-22 10.746-22 24v9.313A28 28 0 0 0 32 60a28 28 0 0 0 22-10.73V40c0-13.254-8.746-24-22-24z" fill="#928274"/>
    <path fill="#F9F5D7" d="M26 46h6v8h-6z"/>
    <path fill="#F9F5D7" d="M32 45h6v9h-6z"/>
    <path d="M26.204 40.001C23.444 39.92 22 44.427 22 47.121c0 2.695 2.238 4.88 5 4.88 2.545 0 4.966-2.169 4.966-2.169h.07S34.457 51.997 37 52c2.761 0 5-2.184 5-4.878s-1.356-6.694-4.117-6.776z" fill="#665C54"/>
    <path d="M37.938 39.781c.602 2.454-3.336 5.22-5.875 5.22-2.54 0-6.606-2.737-6.003-5.22.462-1.903 3.464-1.78 6.003-1.78 2.54 0 5.418-.085 5.875 1.78z" fill="#322F2E"/>
    <g transform="matrix(.21876 0 0 .21876 -89.004 1532.158)">
        <circle cx="502.86" cy="-6853.1" r="22.857" fill="#F9F5D7"/>
        <circle cx="-498.29" cy="-6857.7" r="9.143" transform="scale(-1 1)" fill="#322F2E"/>
    </g>
    <g transform="matrix(.21876 0 0 .21876 -66.999 1532.158)">
        <circle cx="502.86" cy="-6853.1" r="22.857" fill="#F9F5D7"/>
        <circle cx="-498.29" cy="-6857.7" r="9.143" transform="scale(-1 1)" fill="#322F2E"/>
    </g>
    <path d="M32 4v.002A28 28 0 0 0 4 32a28 28 0 0 0 .018.492A28 28 0 0 1 32 5a28 28 0 0 1 27.975 27.492A28 28 0 0 0 60 32 28 28 0 0 0 32 4z" opacity=".2" fill="#F9F5D7"/>
</svg>
