<svg xmlns="http://www.w3.org/2000/svg" width="64" height="64" version="1">
    <path d="M32 5C16.488 5 4 17.488 4 33s12.488 28 28 28 28-12.488 28-28S47.512 5 32 5zm0 16a12 12 0 0 1 12 12 12 12 0 0 1-12 12 12 12 0 0 1-12-12 12 12 0 0 1 12-12z" opacity=".2"/>
    <path d="M32 17a15 15 0 0 0-15 15 15 15 0 0 0 15 15 15 15 0 0 0 15-15 15 15 0 0 0-15-15zm0 9a6 6 0 1 1 0 12 6 6 0 0 1 0-12z" fill="#928274"/>
    <path d="M32 4C16.488 4 4 16.488 4 32s12.488 28 28 28 28-12.488 28-28S47.512 4 32 4zm0 16a12 12 0 0 1 12 12 12 12 0 0 1-12 12 12 12 0 0 1-12-12 12 12 0 0 1 12-12z" fill="#F9F5D7"/>
    <path d="M32 4C16.488 4 4 16.488 4 32c0 .114.011.224.018.336C4.369 17.134 16.71 5 32 5c15.288 0 27.63 12.132 27.984 27.332.007-.11.016-.22.016-.332C60 16.488 47.512 4 32 4zM20.05 32.996A12 12 0 0 0 20 34a12 12 0 0 0 .025.5 12 12 0 0 1 .026-.504A12 12 0 0 0 32 45a12 12 0 0 0 11.95-10.996 12 12 0 0 1 .029.592A12 12 0 0 0 44 34a12 12 0 0 0-.05-.996A12 12 0 0 1 32 44a12 12 0 0 1-11.95-11.004z" opacity=".2" fill="#F9F5D7"/>
    <path d="M63.958 45.848A16 16 0 0 1 48 61a16 16 0 0 1-15.958-14.848A16 16 0 0 0 32 47a16 16 0 0 0 16 16 16 16 0 0 0 16-16 16 16 0 0 0-.043-1.152z" opacity=".2"/>
    <circle cx="48" cy="46" r="16" fill="#F15C22"/>
    <path d="M49.854 38C44.946 40 42 44.688 42 48c0 3.275 2.577 5.932 5.777 5.994-1.599-.032-2.887-1.357-2.887-2.994 0-1.657 1.472-4 3.927-5 0 3.5 2.635 4.006 1.963 6-.38 1.13-1.31 1.989-2.92 1.998l.03.001c3.253 0 5.125-1.726 5.89-4 1.344-3.988-3.926-5-3.926-12z" fill="#F9F5D7"/>
</svg>
