<svg xmlns="http://www.w3.org/2000/svg" width="64" height="64" version="1">
    <path d="M4 56.2v2C4 59.75 5.25 61 6.8 61h50.4c1.55 0 2.8-1.25 2.8-2.8v-2c0 1.55-1.25 2.8-2.8 2.8H6.8C5.25 59 4 57.75 4 56.2z" opacity=".2"/>
    <rect width="56" height="56" x="4" y="4" rx="2.8" ry="2.8" fill="#FD8019"/>
    <path d="M6.8 4C5.25 4 4 5.25 4 6.8v1.003c0-1.551 1.25-2.801 2.8-2.801h50.4c1.55 0 2.8 1.25 2.8 2.8V6.802C60 5.25 58.75 4 57.2 4H6.8z" opacity=".2" fill="#F9F5D7"/>
    <path d="M32 17a6 6 0 0 0-6 6c0 .463.088.88.187 1.313l-6.437 4A5.979 5.979 0 0 0 16 27a6 6 0 0 0 0 12c1.418 0 2.723-.49 3.75-1.313l6.437 4c-.1.432-.188.85-.188 1.312a6 6 0 1 0 6-6c-1.418 0-2.723.49-3.75 1.313l-6.437-4c.1-.432.188-.85.188-1.312 0-.462-.088-.88-.188-1.312l6.437-4A5.98 5.98 0 0 0 32 29a6 6 0 0 0 0-12zm14 0a6 6 0 0 0-6 6 6 6 0 0 0 6 6 6 6 0 0 0 6-6 6 6 0 0 0-6-6zm0 20a6 6 0 0 0-6 6 6 6 0 0 0 6 6 6 6 0 0 0 6-6 6 6 0 0 0-6-6z" opacity=".2"/>
    <path d="M32 16a6 6 0 0 0-6 6c0 .463.088.88.187 1.313l-6.437 4A5.979 5.979 0 0 0 16 26.001a6 6 0 0 0 0 12c1.418 0 2.723-.49 3.75-1.313l6.437 4c-.1.432-.188.85-.188 1.312a6 6 0 1 0 6-6c-1.418 0-2.723.49-3.75 1.313l-6.437-4c.1-.432.188-.85.188-1.312 0-.462-.088-.88-.188-1.312l6.437-4A5.98 5.98 0 0 0 32 28.001a6 6 0 0 0 0-12zm14 0a6 6 0 0 0-6 6 6 6 0 0 0 6 6 6 6 0 0 0 6-6 6 6 0 0 0-6-6zm0 20a6 6 0 0 0-6 6 6 6 0 0 0 6 6 6 6 0 0 0 6-6 6 6 0 0 0-6-6z" fill="#F9F5D7"/>
</svg>
