<svg xmlns="http://www.w3.org/2000/svg" width="64" height="64" version="1">
    <path d="M57 54.333V11.666C57 10.189 55.885 9 54.5 9h-45C8.115 9 7 10.19 7 11.667v42.667C7 55.811 8.115 57 9.5 57h45c1.385 0 2.5-1.189 2.5-2.666z" opacity=".2"/>
    <path d="M57 53.333V10.666C57 9.189 55.885 8 54.5 8h-45C8.115 8 7 9.19 7 10.667v42.667C7 54.811 8.115 56 9.5 56h45c1.385 0 2.5-1.189 2.5-2.666z" fill="#504945"/>
    <rect width="6" height="41" x="11" y="13" ry="1.952" opacity=".2"/>
    <rect width="6" height="41" x="11" y="12" ry="1.952" fill="#BE4C1D"/>
    <rect width="6" height="41" x="17" y="13" ry="1.952" opacity=".2"/>
    <rect width="6" height="41" x="17" y="12" ry="1.952" fill="#D55C0D"/>
    <rect width="6" height="41" x="23" y="13" ry="1.952" opacity=".2"/>
    <rect width="6" height="41" x="23" y="12" ry="1.952" fill="#D79921"/>
    <rect width="6" height="41" x="29" y="13" ry="1.952" opacity=".2"/>
    <rect width="6" height="41" x="29" y="12" ry="1.952" fill="#7CB668"/>
    <rect width="6" height="41" x="35" y="13" ry="1.952" opacity=".2"/>
    <rect width="6" height="41" x="35" y="12" ry="1.952" fill="#73C48F"/>
    <rect width="6" height="41" x="41" y="13" ry="1.952" opacity=".2"/>
    <rect width="6" height="41" x="41" y="12" ry="1.952" fill="#066678"/>
    <rect width="6" height="41" x="47" y="13" ry="1.952" opacity=".2"/>
    <rect width="6" height="41" x="47" y="12" ry="1.952" fill="#8F3F71"/>
    <path d="M15 33.57v1c0 .792.444 1.43.992 1.43h2.02c.548 0 .988-.638.988-1.43v-1c0 .792-.44 1.43-.988 1.43h-2.02c-.548 0-.992-.638-.992-1.43zm6 0v1c0 .792.44 1.43.988 1.43h2.024c.548 0 .988-.638.988-1.43v-1c0 .792-.44 1.43-.988 1.43h-2.024c-.548 0-.988-.638-.988-1.43zm12 0v1c0 .792.44 1.43.988 1.43h2.024c.548 0 .988-.638.988-1.43v-1c0 .792-.44 1.43-.988 1.43h-2.024c-.548 0-.988-.638-.988-1.43zm6 0v1c0 .792.44 1.43.988 1.43h2.024c.548 0 .988-.638.988-1.43v-1c0 .792-.44 1.43-.988 1.43h-2.024c-.548 0-.988-.638-.988-1.43zm6 0v1c0 .792.44 1.43.988 1.43h2.024c.548 0 .988-.638.988-1.43v-1c0 .792-.44 1.43-.988 1.43h-2.024c-.548 0-.988-.638-.988-1.43z" opacity=".2"/>
    <path d="M15.993 10c-.549 0-.992.638-.992 1.43v22.14c0 .792.443 1.43.992 1.43h2.02c.548 0 .988-.638.988-1.43V11.43c0-.792-.44-1.43-.989-1.43h-2.02zm5.996 0c-.548 0-.988.638-.988 1.43v22.14c0 .792.44 1.43.988 1.43h2.023c.548 0 .988-.638.988-1.43V11.43c0-.792-.44-1.43-.988-1.43h-2.023zm12 0c-.549 0-.989.638-.989 1.43v22.14c0 .792.44 1.43.988 1.43h2.024c.548 0 .988-.638.988-1.43V11.43c0-.792-.44-1.43-.988-1.43h-2.024zm6 0c-.549 0-.989.638-.989 1.43v22.14c0 .792.44 1.43.988 1.43h2.024c.548 0 .988-.638.988-1.43V11.43c0-.792-.44-1.43-.988-1.43h-2.024zm6 0c-.549 0-.989.638-.989 1.43v22.14c0 .792.44 1.43.988 1.43h2.024c.548 0 .988-.638.988-1.43V11.43c0-.792-.44-1.43-.988-1.43h-2.024z" fill="#504945"/>
    <path d="M15.992 10c-.548 0-.992.637-.992 1.43v1c0-.793.444-1.43.992-1.43h2.02c.548 0 .988.637.988 1.43v-1c0-.793-.44-1.43-.988-1.43h-2.02zm5.996 0c-.548 0-.988.637-.988 1.43v1c0-.793.44-1.43.988-1.43h2.024c.548 0 .988.637.988 1.43v-1c0-.793-.44-1.43-.988-1.43h-2.024zm12 0c-.548 0-.988.637-.988 1.43v1c0-.793.44-1.43.988-1.43h2.024c.548 0 .988.637.988 1.43v-1c0-.793-.44-1.43-.988-1.43h-2.024zm6 0c-.548 0-.988.637-.988 1.43v1c0-.793.44-1.43.988-1.43h2.024c.548 0 .988.637.988 1.43v-1c0-.793-.44-1.43-.988-1.43h-2.024zm6 0c-.548 0-.988.637-.988 1.43v1c0-.793.44-1.43.988-1.43h2.024c.548 0 .988.637.988 1.43v-1c0-.793-.44-1.43-.988-1.43h-2.024z" opacity=".1" fill="#F9F5D7"/>
    <path d="M9.5 8C8.115 8 7 9.189 7 10.666v1C7 10.189 8.115 9 9.5 9h45c1.385 0 2.5 1.19 2.5 2.666v-1C57 9.189 55.885 8 54.5 8h-45z" fill="#F9F5D7" opacity=".1"/>
</svg>
