<svg xmlns="http://www.w3.org/2000/svg" width="64" height="64">
    <path d="M22.765 11.21c2.79-1.164 6.264-.888 9.662-2.03 3.333-1.119 7.935 3.239 10.16 5.49 1.717 1.738 3.003 5.213 3.003 5.213 2.687 7.466 9.498 14.246 9.403 22.176.1 2.375-.813 3.864-2.698 4.889-3.112 1.668-8.1 2.556-11.628 4.052l-6.338-.182L12 28.759c2.822-6.54 5.388-13.33 10.765-17.55z" opacity=".2"/>
    <path d="M14.69 26.002c-.56.016-1.123.21-1.924.586-2.993 1.148-6.639 1.584-7.934 4.053-1.993 3.798.107 7.335.986 10.29.374 1.25.697 2.299 2.09 3.038l5.791 4.51c.213 1.658.31 2.251 2.04 2.883l10.786 5.23c6.029 2.513 10.536 1.253 13.375-.601h.002c8.665-3.471 8.582-5.888 9.098-8.235 0 0-9.165 4.312-10.352-.357l-1.39-7.15c-.62-2.255-3.547-3.392-5.678-4.913l-.158 6.82.156-6.818-6.922-4.76-4.347-2.447-3.713-1.633c-.79-.347-1.347-.511-1.906-.496z" opacity=".2"/>
    <path d="M22.765 10.21c2.79-1.164 6.264-.888 9.662-2.03 3.333-1.119 7.935 3.239 10.16 5.49 1.717 1.738 3.003 5.213 3.003 5.213 2.687 7.466 9.498 14.246 9.403 22.176.1 2.375-.813 3.864-2.698 4.889-3.112 1.668-8.1 2.556-11.628 4.052l-6.338-.182L12 27.759c2.822-6.54 5.388-13.33 10.765-17.55z" fill="#8F3F71"/>
    <path d="M33.729 8.002c-.45-.016-.885.04-1.301.18-3.398 1.14-6.872.863-9.662 2.027-5.378 4.22-7.944 11.01-10.766 17.55l.303.3c2.707-6.32 5.277-12.78 10.463-16.85 2.79-1.164 6.264-.886 9.662-2.027 3.333-1.12 7.934 3.236 10.16 5.488 1.717 1.737 3.002 5.213 3.002 5.213 2.661 7.397 9.36 14.122 9.392 21.957.016-.25.022-.508.01-.781.095-7.93-6.716-14.71-9.402-22.176 0 0-1.285-3.476-3.002-5.213-1.948-1.97-5.715-5.553-8.86-5.668z" opacity=".1" fill="#F9F5D7"/>
    <path d="M34.002 29.596c-.105-3.31 3.46-5.785 6.408-7.29 1.556-.795 3.523-.006 5.227-.39 1.295-.291 2.185-2.506 3.714-1.734 3.716 1.876 14.313 12.734 7.31 20.93-5.293 3.235-11.976 5.014-18.639-1.646-.958-.957-1.013-3.103-1.806-4.997-.667-1.595-2.148-2.825-2.214-4.873z" opacity=".2"/>
    <path d="M34.002 28.596c-.105-3.31 3.46-5.785 6.408-7.29 1.556-.795 3.523-.006 5.227-.39 1.295-.291 2.185-2.506 3.714-1.734 3.716 1.876 14.313 12.734 7.31 20.93-5.293 3.235-11.976 5.014-18.639-1.646-.958-.957-1.013-3.103-1.806-4.997-.667-1.595-2.148-2.825-2.214-4.873z" fill="#8F3F71"/>
    <path d="M48.807 19.023c-1.213-.089-2.037 1.638-3.17 1.893-1.705.384-3.67-.404-5.227.39-2.948 1.506-6.513 3.98-6.408 7.29.003.109.026.207.037.312.364-2.966 3.63-5.202 6.371-6.601 1.556-.795 3.522-.007 5.227-.391 1.294-.292 2.186-2.506 3.715-1.734 2.764 1.395 9.331 7.763 9.632 14.306.383-6.882-6.727-13.84-9.632-15.306a1.433 1.433 0 0 0-.545-.159z" opacity=".1" fill="#F9F5D7"/>
    <path d="M43.018 33.107c.48-3.59 5.249-5.859 8.882-8.268 1.477-1.38 2.386-.846 3.879.092 4.337 2.743 5.754 6.355 5.049 10.598-.193 2.055-.807 2.032-2.824 2.362L51.238 39c-5.041-.284-8.518-3.66-8.22-5.893z" opacity=".2"/>
    <path d="M43.018 32.107c.48-3.59 5.249-5.859 8.882-8.268 1.477-1.38 2.386-.846 3.879.092 4.337 2.743 5.754 6.355 5.049 10.598-.193 2.055-.807 2.032-2.824 2.362L51.238 38c-5.041-.284-8.518-3.66-8.22-5.893z" fill="#48B9C7"/>
    <path d="M53.383 23.014c-.455.058-.929.306-1.483.824-3.633 2.41-8.403 4.68-8.882 8.27a2.32 2.32 0 0 0 .044.785c.64-3.464 5.28-5.695 8.838-8.055 1.477-1.38 2.386-.845 3.88.094 3.457 2.187 5.055 4.928 5.204 8.1.163-3.598-1.388-6.687-5.205-9.1-.933-.587-1.638-1.016-2.396-.918z" opacity=".2" fill="#F9F5D7"/>
    <path d="M53.82 28.887c1.507-.932 5.602-4.16 6.983-2.34 1.127 1.485-2.944 5.472-2.944 5.472-3.298 2.994-6.378-1.684-4.04-3.132z" opacity=".2"/>
    <path d="M53.82 27.887c1.507-.932 5.602-4.16 6.983-2.34 1.127 1.485-2.944 5.472-2.944 5.472-3.298 2.994-6.378-1.684-4.04-3.132z" fill="#83A498"/>
    <path d="M11.98 20.062l-3.101 1.344L14.609 30l1.485-.83z" fill="#3A393A"/>
    <path d="M6.881 11.66c1.041-.802 2.14-1.047 3.395.266.821.859-.343 4.483.362 6.517.504 1.456 2.742 2.099 2.306 3.765-.63 2.408-2.969 3.896-4.446 1.773-2.573-3.699-5.499-7.486-1.617-12.32z" opacity=".2"/>
    <path d="M6.881 10.66c1.041-.802 2.14-1.047 3.395.266.821.859-.343 4.483.362 6.517.504 1.456 2.742 2.099 2.306 3.765-.63 2.408-2.969 3.896-4.446 1.773-2.573-3.699-5.499-7.486-1.617-12.32z" fill="#504945"/>
    <path d="M24.427 19.155l-4.558.953s2.091 3.908 2.425 5.665c.555 2.92-.216 6.728-.216 6.728l1.61.342s.876-3.947.224-7.378c-.33-1.731.515-6.31.515-6.31z" fill="#3A393A"/>
    <path d="M20.085 8.042a4.513 4.513 0 0 1 2.532.38c1.118.415.812.93.7 1.85-.117.992-.192 2.393.064 3.694.198 1.01.763 3.083 1.191 4.607.447 1.518.87 1.715-.532 2.226l-2.414.879c-1.322.708-1.52.185-2.053-.953-1.748-3.739-1.632-7.196-1.514-10.653-.185-1.611.751-1.854 2.026-2.03z" opacity=".2"/>
    <path d="M20.085 7.042a4.513 4.513 0 0 1 2.532.38c1.118.415.812.93.7 1.85-.117.992-.192 2.393.064 3.694.198 1.01.763 3.083 1.191 4.607.447 1.518.87 1.715-.532 2.226l-2.414.879c-1.322.708-1.52.185-2.053-.953-1.748-3.739-1.632-7.196-1.514-10.653-.185-1.611.751-1.854 2.026-2.03z" fill="#504945"/>
    <path d="M14.709 25.696c-.405.01-.87.16-1.643.521a.703.696 0 0 1-.046.022c-1.558.598-3.22.992-4.6 1.527-1.382.536-2.433 1.183-2.964 2.196-.909 1.732-.887 3.356-.522 4.99.364 1.632 1.099 3.233 1.56 4.782.372 1.247.557 1.988 1.747 2.62a.703.696 0 0 1 .101.067l5.79 4.511a.703.696 0 0 1 .264.46c.106.825.195 1.293.354 1.551.159.258.432.473 1.233.766a.703.696 0 0 1 .066.027l10.759 5.218c5.83 2.426 10.032 1.201 12.705-.546a.703.696 0 0 1 .124-.063c4.279-1.714 6.321-3.15 7.33-4.342.657-.776.895-1.477 1.069-2.199-.792.341-1.734.823-3.626 1.207-1.275.259-2.615.384-3.815.09-1.199-.295-2.273-1.136-2.628-2.533a.703.696 0 0 1-.008-.038l-1.38-7.1v-.003c-.244-.888-.98-1.625-2.001-2.343-1.02-.716-2.28-1.379-3.4-2.176l-6.897-4.74-4.29-2.415-3.68-1.62c-.755-.331-1.195-.448-1.602-.437z" fill="#4F8660"/>
    <path d="M4.832 29.64c1.296-2.469 4.94-2.904 7.934-4.052 1.601-.751 2.249-.784 3.83-.09l3.713 1.632s-6.888 6.045-8.018 10.171C11.386 40.61 13.7 47.48 13.7 47.48l-5.791-4.51c-1.393-.74-1.717-1.788-2.09-3.04-.88-2.953-2.979-6.49-.986-10.289z" fill="#7CB668"/>
    <path d="M12.291 37.301c1.13-4.126 8.018-10.17 8.018-10.17l4.348 2.448s-2.357 11.08-1.64 16.591c.43 3.314 3.508 9.423 3.508 9.423l-10.787-5.23c-1.73-.632-1.826-1.226-2.039-2.884 0 0-2.313-6.87-1.408-10.178z" fill="#7CB668"/>
    <path d="M23.017 46.17c-.717-5.512 1.64-16.591 1.64-16.591l6.922 4.759-.318 13.796c-.093 4.02 5.25 5.56 8.64 6.854-2.838 1.856-7.346 3.118-13.376.605 0 0-3.077-6.11-3.508-9.423z" fill="#578D57"/>
    <path d="M31.58 34.337l-.32 13.798c-.092 4.02 5.252 5.56 8.642 6.855 8.665-3.47 8.582-5.888 9.098-8.234 0 0-9.165 4.311-10.352-.358l-1.39-7.15c-.621-2.255-3.547-3.39-5.678-4.911z" fill="#578D57"/>
    <path d="M14.69 25.002c-.56.015-1.123.21-1.924.586-2.993 1.148-6.639 1.583-7.934 4.053-.69 1.315-.883 2.598-.812 3.838a7.098 7.098 0 0 1 .812-2.838c1.295-2.47 4.94-2.905 7.934-4.053.8-.376 1.364-.57 1.923-.586.56-.015 1.116.149 1.907.496l3.713 1.633 4.347 2.447 6.899 4.744.023-.984-6.922-4.76-4.347-2.447-3.713-1.633c-.79-.347-1.347-.511-1.907-.496zm16.89 9.334l-.023.988.021.014-.156 6.818.158-6.82c2.131 1.52 5.058 2.657 5.678 4.912l1.39 7.15c1.138 4.476 9.413.778 10.112.457.086-.37.16-.736.24-1.1 0 0-9.165 4.312-10.352-.357l-1.39-7.15c-.62-2.255-3.547-3.391-5.678-4.912z" opacity=".1" fill="#F9F5D7"/>
    <path d="M59.775 25.008c-1.797-.15-4.73 2.121-5.955 2.879-.742.46-.935 1.244-.752 2.006.105-.395.342-.752.752-1.006 1.507-.933 5.602-4.16 6.983-2.34.046.061.072.133.101.203.134-.47.134-.893-.101-1.203-.26-.341-.613-.504-1.028-.54z" opacity=".2" fill="#F9F5D7"/>
    <path d="M20.309 27.13S13.42 33.175 12.29 37.3c-.906 3.309 1.408 10.179 1.408 10.179.05.386.094.703.153.988a1 1 0 0 0 .794-1.307s-.561-1.67-1.013-3.742c-.452-2.072-.726-4.579-.377-5.854.461-1.684 2.382-4.235 4.205-6.218 1.823-1.984 3.508-3.465 3.508-3.465a1 1 0 0 0 .209-.26l-.87-.49zM24.656 29.578s-2.355 11.08-1.638 16.592c.43 3.313 3.507 9.422 3.507 9.422.316.132.624.248.932.36a1 1 0 0 0-.039-.81s-.755-1.499-1.564-3.408c-.81-1.908-1.66-4.26-1.846-5.693-.33-2.532.056-6.666.55-10.09.439-3.035.887-5.228.997-5.756l-.899-.617zM31.58 34.336l-.32 13.799c-.093 4.02 5.253 5.56 8.642 6.855.328-.131.619-.258.922-.386a1 1 0 0 0-.566-.55c-1.735-.662-3.866-1.365-5.469-2.327-1.603-.963-2.565-2.004-2.53-3.569l.305-13.19c-.332-.208-.675-.412-.984-.632z" opacity=".1"/>
</svg>
