<svg xmlns="http://www.w3.org/2000/svg" width="64" height="64">
    <path d="M20.271 9c-1.218 0-2.207.966-2.207 2.158 0 9.794-1.848 16.925-3.746 19.786-1.075 1.62-1.896 2.478-3.19 3.086-1.293.607-3.58.984-6.921.984-1.219 0-2.207.966-2.207 2.158v17.67C2 56.034 2.988 57 4.207 57c12.035 0 22.957-5.212 28.944-14.239 5.879-8.864 7.42-19.617 7.42-31.603 0-1.192-.988-2.158-2.207-2.158z" opacity=".2" fill-rule="evenodd"/>
    <path d="M20.271 8c-1.218 0-2.207.966-2.207 2.158 0 9.794-1.848 16.925-3.746 19.786-1.075 1.62-1.896 2.478-3.19 3.086-1.293.607-3.58.984-6.921.984-1.219 0-2.207.966-2.207 2.158v17.67C2 55.034 2.988 56 4.207 56c12.035 0 22.957-5.212 28.944-14.239 5.879-8.864 7.42-19.617 7.42-31.603 0-1.192-.988-2.158-2.207-2.158z" fill="#8F3F71" fill-rule="evenodd"/>
    <path d="M20.215 9a2.216 2.218 0 0 0-1.993 3.186L39.325 55.75A2.216 2.218 0 0 0 41.321 57h18.465a2.216 2.218 0 0 0 1.993-3.184L40.676 10.25A2.216 2.218 0 0 0 38.683 9H20.215z" opacity=".2"/>
    <path d="M20.215 8a2.216 2.218 0 0 0-1.993 3.186L39.325 54.75A2.216 2.218 0 0 0 41.321 56h18.465a2.216 2.218 0 0 0 1.993-3.184L40.676 9.25A2.216 2.218 0 0 0 38.683 8H20.215z" fill="#066678"/>
    <path d="M20.215 8a2.216 2.218 0 0 0-2.156 2.72A2.216 2.218 0 0 1 20.215 9h18.469a2.216 2.218 0 0 1 1.992 1.25l21.103 43.566a2.216 2.218 0 0 1 .162.46 2.216 2.218 0 0 0-.162-1.46L40.676 9.25A2.216 2.218 0 0 0 38.684 8h-18.47z" opacity=".2" fill="#F9F5D7"/>
    <path d="M20.271 8c-1.218 0-2.206.966-2.207 2.158 0 9.794-1.848 16.925-3.746 19.785-1.075 1.621-1.896 2.479-3.19 3.086-1.292.608-3.58.985-6.921.985-1.219 0-2.207.966-2.207 2.158v1c0-1.192.988-2.158 2.207-2.158 3.341 0 5.629-.377 6.922-.985 1.293-.607 2.114-1.465 3.19-3.086 1.897-2.86 3.745-9.991 3.745-19.785 0-1.192.989-2.158 2.207-2.158h18.094c1.168 0 2.113.89 2.192 2.012.001-.287.015-.566.015-.854 0-1.192-.988-2.158-2.207-2.158H20.271z" opacity=".1" fill="#F9F5D7" fill-rule="evenodd"/>
</svg>
