<svg xmlns="http://www.w3.org/2000/svg" height="48" width="48">
    <g fill="none" stroke="#7B6F64" stroke-linecap="round" stroke-linejoin="round">
        <path d="M9.5 2.5c-1 0-2 1-2 2v39c0 .912 1.108 2 2 2h29c.892 0 2-1.089 2-2v-29l-11-12z"/>
        <path d="M29.5 2.5l11 12h-9c-1 0-2-1-2-2z"/>
    </g>
    <g transform="matrix(1.3 0 0 1.3 9.8 11.7)" id="g2522">     <path d="M16.5 2.75V16.5h1.375V2.75zM8.25 6.875V16.5h1.375V6.875zM12.375 11v5.5h1.375V11zm-8.25 2.75v2.75H5.5v-2.75zM2.75 17.875v1.375h16.5v-1.375zm0 0" fill="#48B9C7"/>
    </g>
</svg>
