<svg xmlns="http://www.w3.org/2000/svg" height="48" width="48">
    <g fill="none" stroke="#7B6F64" stroke-linecap="round" stroke-linejoin="round">
        <path d="M9.5 2.5c-1 0-2 1-2 2v39c0 .912 1.108 2 2 2h29c.892 0 2-1.089 2-2v-29l-11-12z"/>
        <path d="M29.5 2.5l11 12h-9c-1 0-2-1-2-2z"/>
    </g>
    <g transform="matrix(1.3 0 0 1.3 9.8 11.7)" id="g2522">     <path d="M4.125 2.75c-.762 0-1.375.613-1.375 1.375v13.75c0 .762.613 1.375 1.375 1.375h13.75c.762 0 1.375-.613 1.375-1.375V4.125c0-.762-.613-1.375-1.375-1.375zm0 1.375h13.75v13.75H4.125zM5.5 5.5v1.375h2.75V5.5zm4.125 0v1.375h2.75V5.5zm4.125 0v1.375h2.75V5.5zM5.5 8.246v1.375h2.75V8.246zm4.125 0v1.375h2.75V8.246zm4.125 0v1.375h2.75V8.246zm-8.25 2.75v1.375h2.75v-1.375zm4.125 0v1.375h2.75v-1.375zm4.125 0v1.375h2.75v-1.375zM5.5 13.742v1.375h2.75v-1.375zm4.125 0v1.375h2.75v-1.375zm4.125 0v1.375h2.75v-1.375zm0 0" fill="#7B6F64"/>
    </g>
</svg>
