<svg xmlns="http://www.w3.org/2000/svg" height="48" width="48">
    <g fill="none" stroke="#7B6F64" stroke-linecap="round" stroke-linejoin="round">
        <path d="M9.5 2.5c-1 0-2 1-2 2v39c0 .912 1.108 2 2 2h29c.892 0 2-1.089 2-2v-29l-11-12z"/>
        <path d="M29.5 2.5l11 12h-9c-1 0-2-1-2-2z"/>
    </g>
    <g transform="matrix(1.3 0 0 1.3 9.8 11.7)" id="g2522">     <path d="M12.5 2.75L8.172 18.89l1.332.36 4.324-16.14zM7.266 5.5l-4.07 4.324-.446.48.445.473 4.047 4.348.985-.953-3.606-3.867L8.25 6.457zm9.234 0a2.744 2.744 0 0 0-2.75 2.75v1.375h1.375V8.25c0-.762.613-1.375 1.375-1.375s1.375.613 1.375 1.375v1.375a2.744 2.744 0 0 0-2.75 2.75H16.5c0-.762.613-1.375 1.375-1.375h1.375V8.25A2.744 2.744 0 0 0 16.5 5.5m-.688 8.25a.689.689 0 0 0 0 1.375.689.689 0 0 0 0-1.375" fill="#066678"/>
    </g>
</svg>
