<svg xmlns="http://www.w3.org/2000/svg" height="48" width="48">
    <g fill="none" stroke="#7B6F64" stroke-linecap="round" stroke-linejoin="round">
        <path d="M9.5 2.5c-1 0-2 1-2 2v39c0 .912 1.108 2 2 2h29c.892 0 2-1.089 2-2v-29l-11-12z"/>
        <path d="M29.5 2.5l11 12h-9c-1 0-2-1-2-2z"/>
    </g>
    <g transform="matrix(1.3 0 0 1.3 9.8 11.7)" id="g2522">     <path d="M16.074 3.012l-2.23 2.226H7.016a2.064 2.064 0 0 0-4.008.688 2.066 2.066 0 0 0 1.375 1.941v9.746h4.125v1.375h4.125v-1.375h4.125V8.156l2.23-2.23zm0 1.941l.969.973-.969.972-.972-.972zm-11 .285a.689.689 0 1 1-.002 1.377.689.689 0 0 1 .002-1.377m1.942 1.375h6.828l1.543 1.543v8.082h-2.75v-1.375H8.512v1.375h-2.75v-8.37a2.076 2.076 0 0 0 1.254-1.255m2.87 9.625h1.376v1.375H9.887zm0 0" fill="#066678"/>
    </g>
</svg>
