<svg xmlns="http://www.w3.org/2000/svg" height="48" width="48">
    <g fill="none" stroke="#7B6F64" stroke-linecap="round" stroke-linejoin="round">
        <path d="M9.5 2.5c-1 0-2 1-2 2v39c0 .912 1.108 2 2 2h29c.892 0 2-1.089 2-2v-29l-11-12z"/>
        <path d="M29.5 2.5l11 12h-9c-1 0-2-1-2-2z"/>
    </g>
    <g transform="matrix(1.3 0 0 1.3 9.8 11.7)" id="g2522">     <path d="M8.25 2.75V5.5h1.375V2.75zm4.125 0V5.5h1.375V2.75zm5.332 1.367l-1.23 2.07 1.203.688 1.23-2.113zm-13.426.094l-1.16.687 1.274 2.07 1.16-.687zM5.5 6.875l-2.75 2.75L11 19.25l8.25-9.625-2.75-2.75zm.602 1.375h4.21v1.375H4.728zm5.585 0h4.215l1.375 1.375h-5.59zM5.715 11h4.598v5.344zm5.973 0h4.597l-4.598 5.344zm0 0" fill="#7B6F64"/>
    </g>
</svg>
