<svg xmlns="http://www.w3.org/2000/svg" height="48" width="48">
    <g fill="none" stroke="#7B6F64" stroke-linecap="round" stroke-linejoin="round">
        <path d="M9.5 2.5c-1 0-2 1-2 2v39c0 .912 1.108 2 2 2h29c.892 0 2-1.089 2-2v-29l-11-12z"/>
        <path d="M29.5 2.5l11 12h-9c-1 0-2-1-2-2z"/>
    </g>
    <g transform="matrix(1.3 0 0 1.3 9.8 11.7)" id="g2522">     <path d="M5.36 14.66c-.176.317-.317.793-.317 1.094 0 .066 0 .156.016.277l-2.2-3.781a.97.97 0 0 1-.12-.457c0-.16.05-.352.12-.473l1.059-1.847-1.18-.668 3.836-.075 1.864 3.364-1.196-.688L5.36 14.66M7.047 4a1.724 1.724 0 0 1 1.55-.898c.72 0 1.286.332 1.688 1.02l.598 1.003-2.074 3.59-3.364-1.953L7.047 4m.246 13.703a1.836 1.836 0 0 1-1.828-1.828c0-.281.12-.758.297-1.055l.562-1.004h4.172v3.887H7.293m3.344-13.808c-.262-.458-.617-.778-1.04-.954h4.329c.39 0 .687.16.863.461l1.074 1.828 1.16-.687-1.863 3.344-3.82-.055 1.18-.668-1.883-3.273m6.668 9.96c.527 0 .968-.144 1.336-.421l-2.18 3.797a.973.973 0 0 1-.863.476h-2.059v1.356l-1.969-3.29 1.97-3.292v1.375h3.765m1.687-3.168c.16.28.246.578.246.894 0 .637-.402 1.305-.965 1.621a2.24 2.24 0 0 1-1.003.23h-1.16L14.03 9.84l3.364-1.917 1.597 2.762" fill="#7B6F64"/>
    </g>
</svg>
