<svg xmlns="http://www.w3.org/2000/svg" height="48" width="48">
    <g fill="none" stroke="#7B6F64" stroke-linecap="round" stroke-linejoin="round">
        <path d="M9.5 2.5c-1 0-2 1-2 2v39c0 .912 1.108 2 2 2h29c.892 0 2-1.089 2-2v-29l-11-12z"/>
        <path d="M29.5 2.5l11 12h-9c-1 0-2-1-2-2z"/>
    </g>
    <g transform="matrix(1.3 0 0 1.3 9.8 11.7)" id="g2522">     <path d="M14.438.688L11 4.813h1.375v1.375H5.5v11H4.125l3.438 4.125L11 17.188H9.625v-1.375H16.5v-11h1.375zm0 2.062l.687.688v11h-5.5v-1.376h4.125V3.438zM6.875 7.563h5.5v1.375H8.25v9.624l-.688.688-.687-.688zm2.75 2.75h2.75v1.374h-2.75zm0 0" fill="#8F3F71"/>
    </g>
</svg>
