<svg xmlns="http://www.w3.org/2000/svg" height="48" width="48">
    <g fill="none" stroke="#7B6F64" stroke-linecap="round" stroke-linejoin="round">
        <path d="M9.5 2.5c-1 0-2 1-2 2v39c0 .912 1.108 2 2 2h29c.892 0 2-1.089 2-2v-29l-11-12z"/>
        <path d="M29.5 2.5l11 12h-9c-1 0-2-1-2-2z"/>
    </g>
    <g transform="matrix(1.3 0 0 1.3 9.8 11.7)" id="g2522">     <path d="M2.75 2.75v12.363l-1.375 1.375v.012H2.75v2.75h16.5v-4.121h1.375v-.016l-1.375-1.375V2.75zm1.375 1.375h13.75v8.238l-5.492-5.488h-.008v.004h-.008l-3.433 3.426-.68-.68h-.008l-4.121 4.117zM6.875 5.5c-.762 0-1.375.613-1.375 1.375S6.113 8.25 6.875 8.25 8.25 7.637 8.25 6.875 7.637 5.5 6.875 5.5m5.5 3.313l5.5 5.5v.812h-4.113L9.91 11.277zm-4.125 2.75l3.563 3.562H4.686zM4.125 16.5h9.063v.004h1.937V16.5h2.75v1.375H4.125zm0 0" fill="#48B9C7"/>
    </g>
</svg>
