<svg xmlns="http://www.w3.org/2000/svg" height="48" width="48">
    <g fill="none" stroke="#7B6F64" stroke-linecap="round" stroke-linejoin="round">
        <path d="M9.5 2.5c-1 0-2 1-2 2v39c0 .912 1.108 2 2 2h29c.892 0 2-1.089 2-2v-29l-11-12z"/>
        <path d="M29.5 2.5l11 12h-9c-1 0-2-1-2-2z"/>
    </g>
    <g transform="matrix(1.3 0 0 1.3 9.8 11.7)" id="g2522">     <path d="M9.625 2.75v16.5H11v-8.32a4.8 4.8 0 0 0 3.438 1.449 4.8 4.8 0 0 0 4.812-4.813 4.802 4.802 0 0 0-4.813-4.812A4.783 4.783 0 0 0 11 4.204v-1.45zm4.813 1.375a3.428 3.428 0 0 1 3.437 3.438A3.428 3.428 0 0 1 14.437 11 3.428 3.428 0 0 1 11 7.562a3.428 3.428 0 0 1 3.438-3.437m-10.313 5.5c-.758 0-1.375.617-1.375 1.375s.617 1.375 1.375 1.375S5.5 11.758 5.5 11s-.617-1.375-1.375-1.375" fill="#FA4934"/>
    </g>
</svg>
