<svg xmlns="http://www.w3.org/2000/svg" height="48" width="48">
    <g fill="none" stroke="#7B6F64" stroke-linecap="round" stroke-linejoin="round">
        <path d="M9.5 2.5c-1 0-2 1-2 2v39c0 .912 1.108 2 2 2h29c.892 0 2-1.089 2-2v-29l-11-12z"/>
        <path d="M29.5 2.5l11 12h-9c-1 0-2-1-2-2z"/>
    </g>
    <g transform="matrix(1.3 0 0 1.3 9.8 11.7)" id="g2522">     <path d="M7.563 2.75a2.06 2.06 0 0 0-.688 4.004v8.496A2.065 2.065 0 0 0 5.5 17.188a2.06 2.06 0 0 0 2.063 2.062 2.06 2.06 0 0 0 .687-4.004V6.754a2.06 2.06 0 0 0-.688-4.004m4.813 0l-2.75 1.926 2.75 2.199V5.5h1.375c.762 0 1.375.613 1.375 1.375v8.375a2.065 2.065 0 0 0-1.375 1.938 2.06 2.06 0 0 0 2.063 2.062 2.06 2.06 0 0 0 .687-4.004V6.875c0-1.523-1.223-2.676-2.75-2.75h-1.375zM7.562 4.125a.689.689 0 0 1 0 1.375.689.689 0 0 1 0-1.375m0 12.375a.689.689 0 0 1 0 1.375.689.689 0 0 1 0-1.375m8.25 0a.689.689 0 0 1 0 1.375.689.689 0 0 1 0-1.375" fill="#7B6F64"/>
    </g>
</svg>
