<svg xmlns="http://www.w3.org/2000/svg" height="48" width="48">
    <g fill="none" stroke="#7B6F64" stroke-linecap="round" stroke-linejoin="round">
        <path d="M9.5 2.5c-1 0-2 1-2 2v39c0 .912 1.108 2 2 2h29c.892 0 2-1.089 2-2v-29l-11-12z"/>
        <path d="M29.5 2.5l11 12h-9c-1 0-2-1-2-2z"/>
    </g>
    <g transform="matrix(1.3 0 0 1.3 9.8 11.7)" id="g2522">     <path d="M2.75 2.75V11h5.5v4.125l4.125 4.125v-4.125h6.875v-8.25h-5.5V2.75zm1.375 1.375h8.25v5.5h-8.25zM13.75 8.25h4.125v5.5h-8.25V11H11v2.75L13.75 11zm0 0" fill="#48B9C7"/>
    </g>
</svg>
