<svg xmlns="http://www.w3.org/2000/svg" height="48" width="48">
    <g fill="none" stroke="#7B6F64" stroke-linecap="round" stroke-linejoin="round">
        <path d="M9.5 2.5c-1 0-2 1-2 2v39c0 .912 1.108 2 2 2h29c.892 0 2-1.089 2-2v-29l-11-12z"/>
        <path d="M29.5 2.5l11 12h-9c-1 0-2-1-2-2z"/>
    </g>
    <g transform="matrix(1.3 0 0 1.3 9.8 11.7)" id="g2522">     <path d="M4.125 2.75V5.5H2.75v2.75h1.375v5.5H2.75v2.75h1.375v2.75H19.25V2.75zM5.5 4.125h1.375v13.75H5.5zm2.75 0h9.625v13.75H8.25zm0 0" fill="#FD8019"/>
    </g>
</svg>
