<svg xmlns="http://www.w3.org/2000/svg" width="64" height="64">
    <path d="M21.573 5.009c-2.343.096-4.704.988-6.416 3.289v.004L7.334 18.825v.004l-.004.004c-1.858 2.5-1.686 6.603-.004 8.866 1.178 1.585 2.824 2.373 4.558 2.82v11.149c0 5.065 4.29 9.331 9.386 9.331h1.344c2.27 0 4.31-.937 5.952-2.324l6.707 9.023v.004c1.714 2.303 4.079 3.194 6.424 3.29 2.601.106 5.247-.74 7.147-3.294l7.823-10.523v-.004c1.86-2.499 1.69-6.606.007-8.87-1.177-1.585-2.824-2.373-4.557-2.82V24.331c0-5.065-4.291-9.331-9.387-9.331h-1.343c-2.27 0-4.31.937-5.953 2.324l-6.707-9.023c-1.9-2.555-4.545-3.4-7.146-3.293z" opacity=".2"/>
    <path d="M21.573 4.009c-2.343.096-4.704.988-6.416 3.289v.004L7.334 17.825v.004l-.004.004c-1.858 2.5-1.686 6.603-.004 8.866 1.178 1.585 2.824 2.373 4.558 2.82v11.149c0 5.065 4.29 9.331 9.386 9.331h1.344c2.27 0 4.31-.937 5.952-2.324l6.707 9.023v.004c1.714 2.303 4.079 3.194 6.424 3.29 2.601.106 5.247-.74 7.147-3.294l7.823-10.523v-.004c1.86-2.499 1.69-6.606.007-8.87-1.177-1.585-2.824-2.373-4.557-2.82V23.331c0-5.065-4.291-9.331-9.387-9.331h-1.343c-2.27 0-4.31.937-5.953 2.324l-6.707-9.023c-1.9-2.555-4.545-3.4-7.146-3.293z" fill="#504945"/>
    <path d="M21.883 11.005a2.218 1.733 0 0 0-1.805.864l-7.781 10.53a2.218 1.733 0 0 0 1.922 2.602H18V41.67a3.325 3.325 0 0 0 3.332 3.332h1.336A3.325 3.325 0 0 0 26 41.67V25.001h3.781a2.218 1.733 0 0 0 1.922-2.601l-7.781-10.531a2.218 1.733 0 0 0-2.04-.864z" opacity=".2"/>
    <path d="M21.883 10.004a2.218 1.733 0 0 0-1.805.863l-7.781 10.531A2.218 1.733 0 0 0 14.219 24H18v16.668A3.325 3.325 0 0 0 21.332 44h1.336A3.325 3.325 0 0 0 26 40.668V24h3.781a2.218 1.733 0 0 0 1.922-2.602l-7.781-10.53a2.218 1.733 0 0 0-2.04-.864z" fill="#F9BD2E"/>
    <path d="M41.332 21.001A3.325 3.325 0 0 0 38 24.333v16.668h-3.781a2.218 1.733 0 0 0-1.922 2.602l7.781 10.531a2.218 1.733 0 0 0 1.805.864 2.218 1.733 0 0 0 2.039-.864l7.781-10.531a2.218 1.733 0 0 0-1.922-2.602H46V24.333a3.325 3.325 0 0 0-3.332-3.332h-1.336z" opacity=".2"/>
    <path d="M41.332 20A3.325 3.325 0 0 0 38 23.332V40h-3.781a2.218 1.733 0 0 0-1.922 2.602l7.781 10.53a2.218 1.733 0 0 0 1.805.864 2.218 1.733 0 0 0 2.039-.863l7.781-10.531A2.218 1.733 0 0 0 49.781 40H46V23.332A3.325 3.325 0 0 0 42.668 20h-1.336z" fill="#B7BB25"/>
    <path d="M21.572 4.01c-2.342.096-4.704.986-6.416 3.287V7.3L7.334 17.824v.004l-.004.004c-1.008 1.356-1.4 3.183-1.297 4.934.077-1.426.481-2.836 1.297-3.934l.004-.004v-.004l7.822-10.523v-.004c1.712-2.3 4.074-3.19 6.416-3.287h.008c2.601-.107 5.246.736 7.147 3.29l6.707 9.024C37.076 15.938 39.117 15 41.387 15h1.343c5.096 0 9.387 4.267 9.387 9.332v-1c0-5.065-4.291-9.332-9.387-9.332h-1.343c-2.27 0-4.311.938-5.953 2.324l-6.707-9.023c-1.9-2.555-4.546-3.398-7.147-3.291h-.008zm30.545 30.47v1c1.734.448 3.38 1.236 4.557 2.82.769 1.035 1.205 2.458 1.293 3.932.097-1.818-.35-3.663-1.293-4.931-1.178-1.585-2.823-2.373-4.557-2.82z" opacity=".1" fill="#F9F5D7"/>
</svg>
