<svg xmlns="http://www.w3.org/2000/svg" width="64" height="64" viewBox="0 0 16.93 16.93">
    <path d="M8.467 8.731c-4.816 0-7.409 7.409-7.409 7.409h2.593c1.853 0 2.223-2.594 4.816-5.187 2.593 2.593 2.963 5.187 4.815 5.187h2.593s-1.666-4.755-4.806-6.645h.006c-.013-.008-.036-.018-.05-.028a5.916 5.916 0 0 0-.326-.178c-.077-.039-.147-.075-.233-.112a5.183 5.183 0 0 0-.513-.199c-.046-.016-.088-.031-.134-.045L9.7 8.9c-.421-.12-.859-.195-1.234-.169z" opacity=".2"/>
    <path d="M15.875 15.875s-2.593-7.408-7.408-7.408v2.222c2.593 2.593 2.963 5.186 4.815 5.186z" fill="#D79921"/>
    <path d="M8.467 8.467v.264c4.315 0 6.829 5.908 7.308 7.144h.1s-2.593-7.408-7.408-7.408z" opacity=".1" fill="#F9F5D7"/>
    <path d="M1.058 15.875s2.593-7.408 7.409-7.408c.864-.061 2.06.398 2.609.763-1.355-.142-2.61 1.46-2.61 1.46-2.592 2.592-2.963 5.185-4.815 5.185z" fill="#504945"/>
    <path d="M8.467 8.467c-4.816 0-7.409 7.408-7.409 7.408h.1c.48-1.236 2.993-7.144 7.309-7.144.673-.047 1.544.221 2.157.515.148-.024.299-.032.451-.016-.548-.365-1.744-.824-2.608-.763z" opacity=".1" fill="#F9F5D7"/>
    <path d="M1.058 1.323s1.667 4.755 4.807 6.644h-.007l.062.034c.098.058.197.111.298.163a5.183 5.183 0 0 0 .763.32c.045.016.088.031.134.045.038.012.076.022.115.032.421.12.86.196 1.237.17 4.815 0 7.408-7.408 7.408-7.408h-2.593c-1.852 0-2.222 2.593-4.815 5.186C5.874 3.916 5.504 1.323 3.65 1.323z" opacity=".2"/>
    <path d="M1.058 1.058s2.593 7.409 7.409 7.409V6.244C5.874 3.651 5.503 1.058 3.65 1.058z" fill="#066678"/>
    <path d="M1.058 1.058l.106.265H3.65c1.853 0 2.223 2.593 4.816 5.186v-.264C5.874 3.652 5.504 1.058 3.65 1.058H1.058z" opacity=".1" fill="#F9F5D7"/>
    <path d="M15.875 1.058s-2.593 7.409-7.408 7.409c-.864.06-2.061-.398-2.61-.764 1.356.143 2.61-1.459 2.61-1.459 2.593-2.593 2.963-5.186 4.815-5.186z" fill="#504945"/>
    <path d="M13.282 1.058c-1.852 0-2.222 2.594-4.815 5.187 0 0-1.254 1.6-2.609 1.458.122.081.287.165.467.247 1.163-.192 2.142-1.44 2.142-1.44 2.593-2.594 2.963-5.187 4.815-5.187h2.488l.105-.265h-2.593z" opacity=".1" fill="#F9F5D7"/>
</svg>
