<svg xmlns="http://www.w3.org/2000/svg" width="64" height="64" version="1">
    <path d="M10 56v2c0 1.662 1.338 3 3 3h38c1.662 0 3-1.338 3-3v-2c0 1.662-1.338 3-3 3H13c-1.662 0-3-1.338-3-3z" opacity=".2"/>
    <path d="M54 57V7c0-1.662-1.338-3-3-3H13c-1.662 0-3 1.338-3 3v50c0 1.662 1.338 3 3 3h38c1.662 0 3-1.338 3-3z" fill="#F9F5D7"/>
    <path d="M13 4c-1.662 0-3 1.338-3 3v1c0-1.662 1.338-3 3-3h38c1.662 0 3 1.338 3 3V7c0-1.662-1.338-3-3-3H13z" opacity=".1" fill="#F9F5D7"/>
    <path d="M63.958 45.848A16 16 0 0 1 48 61a16 16 0 0 1-15.958-14.848A16 16 0 0 0 32 47a16 16 0 0 0 16 16 16 16 0 0 0 16-16 16 16 0 0 0-.043-1.152z" opacity=".2" fill-rule="evenodd"/>
    <path d="M19.5 22c-1.375 0-2.5 1.25-2.5 2.5v15c0 1.25 1.125 2.5 2.5 2.5h25c1.375 0 2.5-1.25 2.5-2.5v-15c0-1.25-1.125-2.5-2.5-2.5zm.5 3h24v14H20zm2 2v10h3v-5.6l2.5 2.5 2.5-2.5V37h3V27h-3l-2.5 2.5L25 27zm15 0v6h-2l2.5 4h2l2.5-4h-2v-6z" opacity=".5"/>
    <circle cx="21" cy="23" r="8" fill="#D55C0D" transform="matrix(2 0 0 2 6 0)"/>
    <path d="M40 50.436V54h3.564l9-9-3.563-3.565zm15.717-8.578a.945.945 0 0 0 0-1.348l-2.227-2.227a.945.945 0 0 0-1.348 0l-1.862 1.874 3.564 3.564z" fill="#F9F5D7"/>
</svg>
