<svg xmlns="http://www.w3.org/2000/svg" width="64" height="64">
    <path d="M4.043 29.829A28 26 0 0 0 4 31a28 26 0 0 0 10 19.913v-2A28 26 0 0 1 4.043 29.83zm55.915.344A28 26 0 0 1 32.001 55a28 26 0 0 1-10.558-1.934L14 59v2l7.442-5.934A28 26 0 0 0 32 57 28 26 0 0 0 60 31a28 26 0 0 0-.042-.827z" opacity=".2"/>
    <path d="M32 4.001a28 26 0 0 0-28 26 28 26 0 0 0 10 19.913V60l7.442-5.934A28 26 0 0 0 32 56a28 26 0 0 0 27.999-26 28 26 0 0 0-28-25.999z" fill="#48B9C7"/>
    <path d="M34 39l-8-9-14 9 16-18 8 10 16-10z" opacity=".2"/>
    <path d="M34 38l-8-9-14 9 16-18 8 10 16-10z" fill="#F9F5D7"/>
    <path d="M31.998 4.002A28 26 0 0 0 4 30a28 26 0 0 0 .021.426A28 26 0 0 1 31.998 5.002H32a28 26 0 0 1 27.977 25.596 28 26 0 0 0 .021-.598A28 26 0 0 0 32 4.002h-.002z" opacity=".2" fill="#F9F5D7"/>
</svg>
