<svg xmlns="http://www.w3.org/2000/svg" width="64" height="64" version="1">
    <path d="M10.75 4C7.04 4 4 7.141 4 10.801v8.398c0 1.878.817 3.601 2.098 4.852C4.81 25.327 4 27.084 4 29.001v8c0 1.916.81 3.673 2.098 4.949C4.817 43.2 4 44.924 4 46.802V55.2c0 3.66 3.04 6.801 6.75 6.801h16.5c1.848 0 3.527-.781 4.75-2.016 1.223 1.235 2.902 2.016 4.75 2.016h16.5c3.711 0 6.75-3.141 6.75-6.801v-8.398c0-1.878-.817-3.601-2.098-4.852C59.19 40.674 60 38.917 60 37v-8c0-1.915-.81-3.672-2.098-4.948C59.183 22.8 60 21.078 60 19.2V10.8c0-3.66-3.039-6.8-6.75-6.8h-16.5c-1.848 0-3.527.78-4.75 2.015C30.777 4.78 29.098 4 27.25 4z" opacity=".2"/>
    <path d="M10.75 3C7.04 3 4 6.141 4 9.8V18.2c0 1.878.817 3.601 2.098 4.852C4.81 24.327 4 26.084 4 28v8c0 1.916.81 3.673 2.098 4.95C4.817 42.2 4 43.922 4 45.8V54.2c0 3.66 3.04 6.8 6.75 6.8h16.5c1.848 0 3.527-.78 4.75-2.015C33.223 60.22 34.902 61 36.75 61h16.5C56.961 61 60 57.86 60 54.2V45.8c0-1.878-.817-3.6-2.098-4.852C59.19 39.673 60 37.916 60 36v-8c0-1.916-.81-3.673-2.098-4.949C59.183 21.801 60 20.077 60 18.2V9.801c0-3.66-3.039-6.8-6.75-6.8h-16.5c-1.848 0-3.527.78-4.75 2.015C30.777 3.78 29.098 3 27.25 3z" fill="#504945"/>
    <path d="M10.75 8C9.226 8 8 9.25 8 10.801v8.398C8 20.75 9.226 22 10.75 22h16.5c1.524 0 2.75-1.25 2.75-2.8V10.8C30 9.25 28.774 8 27.25 8h-16.5zm26 0C35.226 8 34 9.25 34 10.801v8.398C34 20.75 35.226 22 36.75 22h16.5c1.524 0 2.75-1.25 2.75-2.8V10.8C56 9.25 54.774 8 53.25 8h-16.5zM11 26c-1.662 0-3 1.338-3 3v8c0 1.662 1.338 3 3 3h4c1.662 0 3-1.338 3-3v-8c0-1.662-1.338-3-3-3h-4zm13.5 0c-1.385 0-2.5 1.25-2.5 2.801v8.398C22 38.75 23.115 40 24.5 40h15c1.385 0 2.5-1.25 2.5-2.8V28.8c0-1.55-1.115-2.8-2.5-2.8h-15zM49 26c-1.662 0-3 1.338-3 3v8c0 1.662 1.338 3 3 3h4c1.662 0 3-1.338 3-3v-8c0-1.662-1.338-3-3-3h-4zM10.75 44C9.226 44 8 45.25 8 46.801v8.398C8 56.75 9.226 58 10.75 58h16.5c1.524 0 2.75-1.25 2.75-2.8V46.8C30 45.25 28.774 44 27.25 44h-16.5zm26 0C35.226 44 34 45.25 34 46.801v8.398C34 56.75 35.226 58 36.75 58h16.5c1.524 0 2.75-1.25 2.75-2.8V46.8C56 45.25 54.774 44 53.25 44h-16.5z" opacity=".2"/>
    <path d="M10.75 7C9.226 7 8 8.25 8 9.8V18.2C8 19.75 9.226 21 10.75 21h16.5c1.524 0 2.75-1.25 2.75-2.801V9.801C30 8.25 28.774 7 27.25 7h-16.5zm26 0C35.226 7 34 8.25 34 9.8v8.4c0 1.55 1.226 2.8 2.75 2.8h16.5c1.524 0 2.75-1.25 2.75-2.8V9.8c0-1.551-1.226-2.8-2.75-2.8h-16.5zM11 25c-1.662 0-3 1.338-3 3v8c0 1.662 1.338 3 3 3h4c1.662 0 3-1.338 3-3v-8c0-1.662-1.338-3-3-3h-4zm13.5 0c-1.385 0-2.5 1.25-2.5 2.801v8.398C22 37.75 23.115 39 24.5 39h15c1.385 0 2.5-1.25 2.5-2.8V27.8c0-1.55-1.115-2.8-2.5-2.8h-15zM49 25c-1.662 0-3 1.338-3 3v8c0 1.662 1.338 3 3 3h4c1.662 0 3-1.338 3-3v-8c0-1.662-1.338-3-3-3h-4zM10.75 43C9.226 43 8 44.25 8 45.801v8.398C8 55.75 9.226 57 10.75 57h16.5c1.524 0 2.75-1.25 2.75-2.8V45.8C30 44.25 28.774 43 27.25 43h-16.5zm26 0C35.226 43 34 44.25 34 45.801v8.398C34 55.75 35.226 57 36.75 57h16.5c1.524 0 2.75-1.25 2.75-2.8V45.8C56 44.25 54.774 43 53.25 43h-16.5z" fill="#FA4934"/>
    <path d="M10.75 3C7.04 3 4 6.141 4 9.8v1.001C4 7.141 7.04 4 10.75 4h16.5c1.848 0 3.527.781 4.75 2.016C33.223 4.78 34.902 4 36.75 4h16.5C56.961 4 60 7.141 60 10.801v-1C60 6.14 56.961 3 53.25 3h-16.5c-1.848 0-3.527.781-4.75 2.016C30.777 3.78 29.098 3 27.25 3h-16.5zM5.637 23.555C4.62 24.771 4 26.325 4 28v1c0-1.916.81-3.673 2.098-4.949a7.323 7.323 0 0 1-.461-.496zm52.726 0a7.196 7.196 0 0 1-.461.496C59.19 25.327 60 27.084 60 29v-1c0-1.675-.621-3.229-1.637-4.445zM5.637 41.445C4.625 42.638 4 44.16 4 45.801v1c0-1.878.817-3.601 2.098-4.852a7.143 7.143 0 0 1-.461-.504zm52.726 0a7.095 7.095 0 0 1-.461.504C59.182 43.2 60 44.923 60 46.801v-1c0-1.641-.625-3.163-1.637-4.356z" opacity=".1" fill="#F9F5D7"/>
</svg>
