<svg xmlns="http://www.w3.org/2000/svg" width="64" height="64">
    <path d="M35 5a22 22 0 0 0-22 22 22 22 0 0 0 .03.807H13v2.982l-.914 1.582-3.711 6.43A2.8 2.8 0 0 0 10.801 43H13v6.021A3.97 3.97 0 0 0 16.979 53H23v3.895A4.097 4.097 0 0 0 27.105 61h17.79A4.097 4.097 0 0 0 49 56.895V43.947A22 22 0 0 0 57 27 22 22 0 0 0 35 5z" opacity=".2"/>
    <circle cx="35" cy="26" r="22" fill="#48B9C7"/>
    <path d="M16.979 26.8H34.22a3.97 3.97 0 0 1 3.979 3.979V48.02A3.97 3.97 0 0 1 34.221 52H16.98A3.97 3.97 0 0 1 13 48.021V27z" fill="#48B9C7"/>
    <rect width="26" height="26" x="23" y="34" rx="4.105" ry="4.105" fill="#48B9C7"/>
    <path d="M18.074 23.546a2.8 2.8 0 0 0-2.275 1.397l-3.714 6.428-3.71 6.429A2.8 2.8 0 0 0 10.8 42h14.845a2.8 2.8 0 0 0 2.426-4.2l-3.71-6.429-3.714-6.428a2.8 2.8 0 0 0-2.294-1.397 2.8 2.8 0 0 0-.28 0z" fill="#48B9C7"/>
    <path d="M35.31 11.056c-.445-.014-.893-.011-1.34.005-2.54.091-5.108.667-7.362 1.677a16.696 16.696 0 0 0-5.867 5.095c-1.628 2.578-2.266 5.616-1.256 7.55 1.192 2.282 3.673 3.668 6.207 3.668 1.313 0 1.416.071 1.416 1.014 0 2.066 2.69 3.043 6.462 3.043 2.014 0 2.353.088 2.171.56-.277.722.874 3.176 2.114 4.33.531.495 1.185 1.227 1.454 1.87.526 1.253 1.042 1.408 2.487.75 1.104-.504 1.142-.794.198-2.342-.395-.647-.72-.991-.72-1.107 0-.117-.275-.2 1.258-.185 4.447.044 6.462-1.535 6.464-5.163 0-.589.302-1.017.708-1.368 1.373-.666 1.229-1.384 1.296-2.766-.007-7.16-4.578-13.657-11.362-15.944-.158-.046-.31-.1-.47-.144a17.412 17.412 0 0 0-3.859-.543z" opacity=".2"/>
    <path d="M35.31 10.055c-.445-.014-.893-.01-1.34.006-2.54.091-5.108.667-7.362 1.676a16.696 16.696 0 0 0-5.867 5.096c-1.628 2.577-2.266 5.616-1.256 7.55 1.192 2.282 3.673 3.668 6.207 3.668 1.313 0 1.416.07 1.416 1.014 0 2.066 2.69 3.043 6.462 3.043 2.014 0 2.353.087 2.171.56-.277.721.874 3.176 2.114 4.33.531.495 1.185 1.226 1.454 1.869.526 1.254 1.042 1.408 2.487.75 1.104-.503 1.142-.793.198-2.341-.395-.648-.72-.992-.72-1.108 0-.116-.275-.2 1.258-.185 4.447.044 6.462-1.534 6.464-5.163 0-.588.302-1.016.708-1.367 1.373-.667 1.229-1.385 1.296-2.766-.007-7.16-4.578-13.657-11.362-15.944-.158-.047-.31-.101-.47-.144a17.412 17.412 0 0 0-3.859-.544z" fill="#F9F5D7"/>
    <path d="M35 4a22 22 0 0 0-22 22 22 22 0 0 0 .018.492A22 22 0 0 1 35 5a22 22 0 0 1 21.977 21.547A22 22 0 0 0 57 26 22 22 0 0 0 35 4zM13 26.807V27a22 22 0 0 1 .006-.193H13zM13 27v.807h.03A22 22 0 0 1 13 27zm0 2.79l-.914 1.581-3.711 6.43a2.8 2.8 0 0 0-.326 1.906 2.8 2.8 0 0 1 .326-.906l3.71-6.43L13 30.79v-1z" opacity=".2" fill="#F9F5D7"/>
</svg>
