<svg xmlns="http://www.w3.org/2000/svg" width="64" height="64">
    <path d="M4 56.2v2C4 59.75 5.25 61 6.8 61h50.4c1.55 0 2.8-1.25 2.8-2.8v-2c0 1.55-1.25 2.8-2.8 2.8H6.8C5.25 59 4 57.75 4 56.2z" opacity=".2"/>
    <rect width="56" height="56" x="4" y="4" rx="2.8" ry="2.8" fill="#A79984"/>
    <path d="M21 30V19h24v11M27 44V31h24v13" fill="none" stroke="#504945" stroke-width="2"/>
    <path d="M15 44V31h24v13" fill="none" stroke="#504945" stroke-width="2"/>
    <g opacity=".2">
        <path d="M12 41h6v8h-6zM24 41h6v8h-6zM36 41h6v8h-6zM30 15h6v8h-6zM18 27h6v8h-6zM42 27h6v8h-6zM48 41h6v8h-6z"/>
    </g>
    <g fill="#F9F5D7">
        <path d="M12 40h6v8h-6zM24 40h6v8h-6zM36 40h6v8h-6zM30 14h6v8h-6zM18 26h6v8h-6zM42 26h6v8h-6zM48 40h6v8h-6z"/>
    </g>
    <path d="M6.8 4C5.25 4 4 5.25 4 6.8v1.003c0-1.551 1.25-2.801 2.8-2.801h50.4c1.55 0 2.8 1.25 2.8 2.8V6.802C60 5.25 58.75 4 57.2 4H6.8z" opacity=".2" fill="#F9F5D7"/>
</svg>
