<svg xmlns="http://www.w3.org/2000/svg" width="64" height="64">
    <rect width="56" height="56" x="4" y="5" rx="2.8" ry="2.8" opacity=".2"/>
    <rect width="56" height="56" x="4" y="4" rx="2.8" ry="2.8" fill="#504945"/>
    <path d="M42 22s-6.332 2.71-9.674 2.896c-4 .223-7.475-2.45-11.476-2.244C16.3 22.886 14 26.74 14 26.74s3.423-1.051 5.746-.715c3.525.51 8.367 3.446 12.658 2.91 7.945-.993 9.036-3.348 9.596-6.936zm14 8s-6.332 2.71-9.674 2.896c-4 .223-7.475-2.45-11.476-2.244C30.3 30.886 28 34.74 28 34.74s3.423-1.051 5.746-.715c3.525.51 8.367 3.446 12.658 2.91 7.945-.993 9.036-3.348 9.596-6.936zm-20 9s-6.332 2.71-9.674 2.896c-4 .223-7.475-2.45-11.476-2.244C10.3 39.886 8 43.74 8 43.74s3.423-1.051 5.746-.715c3.525.51 8.367 3.446 12.658 2.91 7.945-.993 9.036-3.348 9.596-6.936z" opacity=".2"/>
    <path d="M20.85 21.653c4.002-.206 7.474 2.467 11.475 2.244C35.667 23.711 42 21 42 21c-.56 3.588-1.651 5.942-9.596 6.935-4.29.536-9.134-2.4-12.659-2.91-2.323-.335-5.745.716-5.745.716s2.3-3.854 6.85-4.088z" fill="#FA4934"/>
    <path d="M34.85 29.653c4.002-.206 7.474 2.467 11.475 2.244C49.667 31.711 56 29 56 29c-.56 3.588-1.651 5.942-9.596 6.935-4.29.536-9.134-2.4-12.659-2.91-2.323-.335-5.745.716-5.745.716s2.3-3.854 6.85-4.088z" fill="#7CB668"/>
    <path d="M14.85 38.653c4.002-.206 7.474 2.467 11.475 2.244C29.667 40.711 36 38 36 38c-.56 3.588-1.651 5.942-9.596 6.935-4.29.536-9.134-2.4-12.659-2.91-2.323-.335-5.745.716-5.745.716s2.3-3.854 6.85-4.088z" fill="#8F3F71"/>
    <path d="M6.8 4C5.25 4 4 5.25 4 6.8v1C4 6.25 5.25 5 6.8 5h50.4C58.75 5 60 6.25 60 7.8v-1C60 5.25 58.75 4 57.2 4H6.8z" fill="#F9F5D7" opacity=".1"/>
</svg>
