<svg xmlns="http://www.w3.org/2000/svg" width="64" height="64" version="1">
    <path d="M4 56.2v2C4 59.75 5.25 61 6.8 61h50.4c1.55 0 2.8-1.25 2.8-2.8v-2c0 1.55-1.25 2.8-2.8 2.8H6.8C5.25 59 4 57.75 4 56.2z" opacity=".2"/>
    <rect width="56" height="56" x="4" y="4" rx="2.8" ry="2.8" fill="#066678"/>
    <path d="M6.8 4C5.25 4 4 5.25 4 6.8v1.003c0-1.551 1.25-2.801 2.8-2.801h50.4c1.55 0 2.8 1.25 2.8 2.8V6.802C60 5.25 58.75 4 57.2 4H6.8z" opacity=".2" fill="#F9F5D7"/>
    <g transform="matrix(1.99997 0 0 -1.99997 0 1)" opacity=".2">
        <circle cx="16" cy="-16" r="3"/>
        <circle cx="9" cy="-16" r="3"/>
        <circle cx="23" cy="-16" r="3"/>
        <circle cx="16" cy="-9" r="3"/>
        <circle cx="9" cy="-9" r="3"/>
        <circle cx="23" cy="-9" r="3"/>
        <circle cx="16" cy="-23" r="3"/>
        <circle cx="9" cy="-23" r="3"/>
        <circle cx="23" cy="-23" r="3"/>
    </g>
    <circle cx="32" cy="-32" r="6" transform="scale(1 -1)" fill="#FECE4F"/>
    <circle cx="45.999" cy="-18.001" r="6" transform="scale(1 -1)" fill="#FECE4F"/>
    <circle cx="18" cy="-46" r="6" transform="scale(1 -1)" fill="#FECE4F"/>
    <g transform="matrix(1.99997 0 0 -1.99997 0 0)" fill="#48B9C7">
        <circle cx="9" cy="-16" r="3"/>
        <circle cx="23" cy="-16" r="3"/>
        <circle cx="16" cy="-9" r="3"/>
        <circle cx="9" cy="-9" r="3"/>
        <circle cx="16" cy="-23" r="3"/>
        <circle cx="23" cy="-23" r="3"/>
    </g>
</svg>
