<svg xmlns="http://www.w3.org/2000/svg" width="64" height="64" version="1">
    <path d="M4 56v2c0 1.662 1.338 3 3 3h50c1.662 0 3-1.338 3-3v-2c0 1.662-1.338 3-3 3H7c-1.662 0-3-1.338-3-3z" opacity=".2"/>
    <rect width="56" height="56" x="4" y="4" rx="3" ry="3" fill="#48B9C7"/>
    <path d="M12 19v2.8l.012 1.2L18 33l-6 10v4h22v-6h-4v2H16l6-10-6-10h12v2h4v-6H12z" opacity=".2"/>
    <path d="M12 18v2.8l.012 1.2L18 32l-6 10v4h22v-6h-4v2H16l6-10-6-10h12v2h4v-6H12z" fill="#D55C0D"/>
    <path d="M7 4C5.338 4 4 5.338 4 7v1c0-1.662 1.338-3 3-3h50c1.662 0 3 1.338 3 3V7c0-1.662-1.338-3-3-3H7z" opacity=".1" fill="#F9F5D7"/>
    <path fill="#F9F5D7" d="M41 4h4v56h-4z"/>
</svg>
