<svg xmlns="http://www.w3.org/2000/svg" width="64" height="64" version="1">
    <path d="M32 12c-7.766 0-14.38 4.61-17.227 11.136C7.544 24.178 2 30.154 2 37.454 2 45.488 8.716 52 17 52h31.876C56.124 52 62 46.302 62 39.272c0-6.532-5.066-11.886-11.602-12.612C48.694 18.32 41.1 12 32 12z" fill="#C77089"/>
    <path d="M40 23.002l-12 2V35.54a4 4 0 0 0-2-.54 4 4 0 0 0-4 4 4 4 0 0 0 4 4 4 4 0 0 0 4-4V28.67l8-1.336v6.207a4 4 0 0 0-2-.54 4 4 0 0 0-4 4 4 4 0 0 0 4 4 4 4 0 0 0 4-4V23z" opacity=".2"/>
    <path d="M40 22.002l-12 2V34.54a4 4 0 0 0-2-.54 4 4 0 0 0-4 4 4 4 0 0 0 4 4 4 4 0 0 0 4-4V27.67l8-1.336v6.207a4 4 0 0 0-2-.54 4 4 0 0 0-4 4 4 4 0 0 0 4 4 4 4 0 0 0 4-4V22z" fill="#F9F5D7"/>
    <path d="M2.025 37.93c-.009.174-.025.346-.025.523C2 46.485 8.716 53 17 53h31.877C56.125 53 62 47.301 62 40.273c0-.173-.016-.343-.025-.515C61.71 46.559 55.956 52 48.877 52H17C8.882 52 2.287 45.74 2.025 37.93z" opacity=".2"/>
    <path d="M32 12c-7.766 0-14.38 4.612-17.227 11.137C7.544 24.179 2 30.153 2 37.453c0 .158.015.313.025.469.264-7.055 5.697-12.769 12.748-13.785C17.62 17.612 24.234 13 32 13c9.1 0 16.692 6.32 18.396 14.66 6.36.707 11.316 5.801 11.579 12.094.009-.16.025-.319.025-.48 0-6.533-5.068-11.888-11.604-12.614C48.692 18.32 41.1 12 32 12z" opacity=".2" fill="#F9F5D7"/>
</svg>
