<svg xmlns="http://www.w3.org/2000/svg" width="64" height="64" version="1">
    <path d="M60 57.158V8.842C60 7.268 58.751 6 57.2 6H6.8C5.249 6 4 7.268 4 8.842v48.316C4 58.732 5.249 60 6.8 60h50.4c1.551 0 2.8-1.268 2.8-2.842z" opacity=".2"/>
    <path d="M60 56.158V7.842C60 6.268 58.751 5 57.2 5H6.8C5.249 5 4 6.268 4 7.842v48.316C4 57.732 5.249 59 6.8 59h50.4c1.551 0 2.8-1.268 2.8-2.842z" fill="#D5C3A0"/>
    <path d="M10 43h7.4c4.178-.002 5.6-1.4 5.6-4.2 0-11.62-10-.016-10-11.6-.034-2.82.166-4.2 4.4-4.2H26" opacity=".2" fill="none" stroke="#151819" stroke-width="6"/>
    <path d="M10 42h7.4c4.178-.001 5.6-1.4 5.6-4.2 0-11.62-10-.016-10-11.6-.034-2.819.166-4.2 4.4-4.2H26" fill="none" stroke="#FA4934" stroke-width="6"/>
    <path d="M40 31h14m-7 15V31" opacity=".2" fill="none" stroke="#151819" stroke-width="6"/>
    <path d="M40 30h14m-7 15V30" fill="none" stroke="#F9F5D7" stroke-width="6"/>
    <path d="M6.8 5C5.25 5 4 6.27 4 7.844v1C4 7.269 5.25 6 6.8 6h50.4C58.75 6 60 7.27 60 8.844v-1C60 6.269 58.75 5 57.2 5H6.8z" opacity=".2" fill="#F9F5D7"/>
    <path fill="#3A393A" d="M31 29h2v6h-2zM31 21h2v6h-2zM31 13h2v6h-2zM31 45h2v6h-2zM31 37h2v6h-2z"/>
</svg>
