<svg xmlns="http://www.w3.org/2000/svg" width="64" height="64" version="1">
    <path d="M51 24.6C51 44.2 39.857 61 31.5 61S12 44.2 12 24.6C12 13.775 20.73 5 31.5 5S51 13.775 51 24.6z" opacity=".2"/>
    <path d="M51 23.6C51 43.2 39.857 60 31.5 60S12 43.2 12 23.6C12 12.775 20.73 4 31.5 4S51 12.775 51 23.6z" fill="#066678"/>
    <path d="M34.016 45.819c-.21-.541 1.661-5.253 2.782-7 2.092-3.264 4.95-5.174 8.529-5.698 1.707-.25 1.751-.219 1.634 1.14-.252 2.938-1.145 5.032-3.104 7.278-2.108 2.417-5.434 4.09-8.784 4.417-.82.08-.98.06-1.057-.137z" opacity=".2"/>
    <path d="M34.016 44.819c-.21-.541 1.661-5.253 2.782-7 2.092-3.264 4.95-5.174 8.529-5.698 1.707-.25 1.751-.219 1.634 1.14-.252 2.938-1.145 5.032-3.104 7.278-2.108 2.417-5.434 4.09-8.784 4.417-.82.08-.98.06-1.057-.137z" fill="#F9F5D7"/>
    <path d="M28.984 45.819c.21-.541-1.661-5.253-2.782-7-2.092-3.264-4.95-5.174-8.529-5.698-1.707-.25-1.751-.219-1.634 1.14.252 2.938 1.145 5.032 3.104 7.278 2.108 2.417 5.434 4.09 8.784 4.417.82.08.98.06 1.057-.137z" opacity=".2"/>
    <path d="M28.984 44.819c.21-.541-1.661-5.253-2.782-7-2.092-3.264-4.95-5.174-8.529-5.698-1.707-.25-1.751-.219-1.634 1.14.252 2.938 1.145 5.032 3.104 7.278 2.108 2.417 5.434 4.09 8.784 4.417.82.08.98.06 1.057-.137z" fill="#F9F5D7"/>
    <path d="M31.5 4C20.73 4 12 12.775 12 23.6c0 .199.007.397.01.595C12.225 13.558 20.865 5 31.5 5c10.635 0 19.275 8.558 19.49 19.195.003-.198.01-.396.01-.595C51 12.775 42.27 4 31.5 4z" opacity=".1" fill="#F9F5D7"/>
</svg>
