<svg xmlns="http://www.w3.org/2000/svg" width="64" height="64" version="1">
    <path d="M49.426 8.004c-.014 0-.026.012-.043.027-.565.683-1.44 4.14-1.742 4.969-.03-.041-.057-.073-.086-.113A27.842 27.842 0 0 1 52 28c0 12.871-8.694 23.687-20.523 26.96A20.903 20.903 0 0 1 25 56c-.187 0-.37-.019-.555-.023-.15.002-.295.023-.445.023-3.342 0-13.232-13.315-19.761-20.96.033.726.083 1.447.168 2.16.008.067.011.135.02.202.056.45.125.894.202 1.336l.008.043c.15.842.132 1.673.351 2.489.005.019.007.039.012.058.022.082.04.165.063.246l.011.031C8.391 53.37 19.175 62 32 62c15.464 0 28-12.536 28-28 0-9.8-4.39-14.836-8.734-21.715 0-.004.002-.007-.012-.012-.64-.957-1.196-2.809-1.645-3.851-.07-.23-.153-.418-.183-.418z" opacity=".2"/>
    <path d="M44.838 9.776c-.913-.495-1.318-2.342-2.29-2.735A28.054 28.054 0 0 0 32 5a27.916 27.916 0 0 0-21.106 9.562c-.67 21.813 23.881 45.796 34.463 38.11 6.002-4.36 1.528-28.855-.52-42.896z" fill="#066678"/>
    <path d="M32 5a27.914 27.914 0 0 0-21.105 9.563c-.01.33.002.663.003.996A27.914 27.914 0 0 1 32 6c3.873 0 7.556.778 10.904 2.188.846.356 1.131 2.153 1.932 2.587 1.21 8.302 3.546 19.51 3.691 29.041.015-9.74-2.438-21.443-3.691-30.039-.801-.434-1.086-2.233-1.932-2.59A28.033 28.033 0 0 0 32 5z" opacity=".1" fill="#F9F5D7"/>
    <path d="M49.426 7.004c-.014 0-.026.012-.043.027-.565.683-1.54 4.14-1.842 4.969-.03-.041-.057-.073-.086-.113C50.26 16.249 51.8 21.429 51.8 27c0 12.871-8.494 23.286-20.323 26.56A20.903 20.903 0 0 1 25 54.6c-.187 0-.37-.02-.555-.024-.15.002-.295.024-.445.024-3.342 0-13.232-12.915-19.761-20.56.033.726.083 1.447.168 2.16.008.067.011.135.02.202.056.45.125.894.202 1.336l.008.043c.15.842.132 1.673.351 2.489.005.019.007.039.012.058.022.082.04.165.063.246l.011.031C8.391 52.37 19.175 61 32 61c15.464 0 28-12.536 28-28 0-9.8-4.39-14.836-8.734-21.715 0-.004.002-.007-.012-.012-.64-.957-1.196-2.809-1.645-3.851-.07-.23-.153-.418-.183-.418z" fill="#066678"/>
    <path d="M41.84 4l-.336.414-.172.219c-1.296 1.718-1.632 3.66-2.406 5.746-.295.8-.607 2.008-.781 3.012-.175 1.006-.19 2.444-.028 3.324.43 2.331 1.012 4.528 2.453 6.387.406.441.788.894 1.192 1.347.35.393.708.782 1.031 1.168.842 1.005 1.567 1.97 1.937 2.77.93 2.012 1.325 3.801 1.325 6.027 0 .671-.037 1.362-.094 1.773-.007.033-.02.062-.027.094v.004C44.498 42.831 39.848 47.965 33.328 48c-4.148.016-9.728-1.801-10.48-6.086 1.998.304 3.494.198 4.922.188 1.318-.01 2.978-.294 4.515-1.11 2.29-1.222 3.424-1.049 4.05-.976.924.107 1.037.107 1.24-.02.427-.269.551-.376.304-.887-.312-.645-1.41-1.546-2.328-1.914-.77-.308-1.187-.386-2.11-.386-.939 0-1.736.244-3.43.757-1.69.513-3.023.589-4.066.297-4.335-1.037-7.34-5.088-5.23-7.902 1.27-.059 4.25 1.396 5.055 1.945.768-.755-.502-2.52-.77-3.582 0-1.326 2.703-1.695 3.813-2.195.73-.328 1.442-.665 1.582-.746.302-.178.887-.743 1.125-1.09.362-.53.6-1.514.453-1.867-.184-.445-1.42-.722-4.414-.988-1.13-.101-1.905-1.016-2.5-2.067-1.044-2.414 2.052-5.909 3.375-7.125-2.104-1.148-5.415 2.066-6.668 3.242-.402.397-.28.39-1.496.07l-.25-.058c-.031-.007-.063-.017-.094-.023-.056-.013-.115-.024-.172-.036l-.125-.023c-.048-.008-.093-.019-.14-.027-.051-.009-.102-.02-.153-.028l-.11-.015a16.409 16.409 0 0 0-2.098-.191c-.107-.004-.215 0-.32 0-.113-.001-.223-.004-.331 0l-.063.003-.27.012c-.013 0-.023.002-.035.004-.096.005-.187.01-.277.02-.014 0-.016.002-.023.003-.093.009-.178.02-.262.031h-.004l-.113.016a2.568 2.568 0 0 0-1.082.258c-1.054-1.779-1.31-5.723-2.13-7.504-1.914 1.003-3.224 6.733-3.55 8.414-.125.668-.269 1.967-.27 2.426 0 .066-.017.093-.02.14A27.854 27.854 0 0 0 4 34c0 2.628.386 5.163 1.062 7.574C7.7 49.577 15.012 55.441 23.77 55.95h.003c.074.012.16.051.227.051.146 0 .287-.02.432-.023h.006c.188.005.373.023.562.023.922 0 1.824-.08 2.715-.195.285-.037.57-.077.851-.125.468-.08.928-.18 1.385-.291.535-.13 1.062-.276 1.58-.446C43.332 51.651 52 40.851 52 28c0-5.571-1.64-10.751-4.445-15.113C45.4 9.922 43.33 7.718 41.922 4.41L41.84 4zm3.789 34.705zm-.424 1.893zm-.566 1.763zm-.907 2.055zm-1.025 1.807zm-1.016 1.468c-.162.214-.331.42-.502.627.17-.207.34-.413.502-.627zm-1.154 1.399c-.066.072-.136.14-.203.21.066-.07.138-.138.203-.21zm-31.658.664zm29.588 1.32c-.076.064-.148.133-.225.196.077-.063.149-.132.225-.196zm-1.223.951c-.11.08-.221.16-.334.239.113-.078.223-.159.334-.239zm-1.447.96l-.162.095.162-.096z" opacity=".2"/>
    <path d="M12.219 7c-1.915 1.003-3.225 6.733-3.551 8.414-.125.668-.269 1.967-.27 2.426 0 .066-.017.093-.02.14A27.854 27.854 0 0 0 4 33c0 2.628.386 5.163 1.063 7.574C7.823 48.95 15.7 55 25 55c11.166 0 20.268-8.72 20.934-19.719C44.499 41.83 39.849 46.965 33.328 47c-4.148.016-9.728-1.801-10.48-6.086 1.998.304 3.494.198 4.922.188 1.318-.01 2.978-.294 4.515-1.11 2.29-1.222 3.424-1.049 4.05-.976.924.107 1.037.107 1.24-.02.427-.269.551-.376.304-.887-.312-.645-1.41-1.546-2.328-1.914-.77-.308-1.187-.386-2.11-.386-.939-.001-1.736.244-3.43.757-1.69.513-3.023.589-4.066.297-4.335-1.037-7.34-5.088-5.23-7.902 1.27-.059 4.25 1.396 5.055 1.945.768-.755-.502-2.52-.77-3.582 0-1.326 2.703-1.695 3.812-2.195.732-.328 1.443-.665 1.583-.746.302-.178.887-.743 1.125-1.09.362-.53.6-1.514.453-1.867-.184-.445-1.42-.722-4.414-.989-1.13-.1-1.905-1.015-2.5-2.066-1.044-2.414 2.052-5.91 3.375-7.125-2.104-1.148-5.415 2.066-6.668 3.242-.402.397-.28.39-1.496.07l-.25-.058-.094-.024-.172-.035-.125-.023c-.048-.009-.093-.019-.14-.027-.051-.009-.102-.02-.153-.028l-.11-.015a16.409 16.409 0 0 0-2.098-.191c-.107-.004-.215 0-.32 0-.113-.001-.223-.004-.331 0l-.063.003-.27.012c-.013 0-.023.002-.035.004-.096.005-.187.01-.277.02-.014 0-.016.002-.023.003-.093.009-.178.02-.262.031h-.004l-.113.016a2.568 2.568 0 0 0-1.082.258c-1.054-1.779-1.31-5.723-2.13-7.504zm29.543 16.45c.35.392.708.78 1.031 1.167-.325-.398-.665-.79-1.031-1.168z" fill="#8F3F71"/>
    <path d="M41.84 3l-.336.414-.172.219c-1.296 1.718-1.632 3.66-2.406 5.746-.295.8-.607 2.008-.781 3.012-.175 1.006-.19 2.444-.028 3.324.43 2.331 1.012 4.528 2.453 6.387.406.441.788.894 1.192 1.347.35.393.708.782 1.031 1.168.842 1.005 1.567 1.97 1.937 2.77.93 2.012 1.325 3.801 1.325 6.027 0 .671-.037 1.362-.094 1.773-.007.033-.02.062-.027.094v.004c-.532 8.767-6.433 16.068-14.457 18.676C43.306 50.687 52 39.871 52 27c0-5.571-1.64-10.751-4.445-15.113C45.4 8.922 43.33 6.718 41.922 3.41z" fill="#73C48F"/>
    <path d="M49.426 7.004c-.014 0-.026.012-.043.027-.565.683-1.44 4.14-1.742 4.969-.03-.041-.057-.073-.086-.113.099.154.185.316.28.472.38-1.229 1.055-3.731 1.548-4.328.017-.015.029-.027.043-.027.03 0 .113.188.183.418.45 1.042 1.005 2.894 1.645 3.851.014.005.012.008.012.012 4.272 6.764 8.578 11.757 8.72 21.24.004-.175.014-.349.014-.525 0-9.8-4.39-14.836-8.734-21.715 0-.004.002-.007-.012-.012-.64-.957-1.196-2.809-1.645-3.851-.07-.23-.153-.418-.183-.418zM12.219 7c-1.915 1.003-3.225 6.733-3.551 8.414-.125.668-.269 1.967-.27 2.426 0 .066-.017.093-.02.14A27.854 27.854 0 0 0 4 33c0 .168.014.333.018.5a27.851 27.851 0 0 1 4.36-14.52c.003-.047.02-.074.02-.14.001-.46.145-1.758.27-2.426.326-1.68 1.636-7.41 3.55-8.414.82 1.781 1.076 5.725 2.13 7.504.314-.145.68-.26 1.082-.258l.113-.016h.004c.084-.011.17-.022.262-.03.007-.002.009-.004.023-.005.09-.008.18-.014.277-.02l.036-.003c.087-.004.178-.009.27-.012l.062-.004c.108-.003.218 0 .332 0 .104 0 .212-.003.32 0a16.409 16.409 0 0 1 2.098.192c.036.006.073.01.109.015.05.009.102.02.152.028.048.008.093.019.14.027l.126.023c.057.012.116.023.172.036.03.006.063.016.094.023.086.02.168.037.25.059 1.217.32 1.094.326 1.496-.07 1.11-1.043 3.832-3.678 5.902-3.47.282-.302.551-.576.766-.773-2.104-1.148-5.415 2.066-6.668 3.242-.402.397-.28.39-1.496.07l-.25-.058c-.031-.007-.063-.017-.094-.023-.056-.013-.115-.024-.172-.036l-.125-.023c-.048-.008-.093-.019-.14-.027-.051-.009-.102-.02-.153-.028l-.11-.015a16.409 16.409 0 0 0-2.098-.191c-.107-.004-.215 0-.32 0-.113-.001-.223-.004-.331 0l-.063.003-.27.012c-.013 0-.023.002-.035.004-.096.005-.187.01-.277.02-.014 0-.016.002-.023.003-.093.009-.178.02-.262.031h-.004l-.113.016a2.568 2.568 0 0 0-1.082.258c-1.054-1.779-1.31-5.723-2.13-7.504zm12.676 10.78c-.083.556-.05 1.096.164 1.591.595 1.05 1.37 1.966 2.5 2.067 2.821.25 4.069.512 4.359.914.098-.378.132-.74.055-.926-.184-.445-1.42-.722-4.414-.988-1.13-.101-1.905-1.016-2.5-2.067-.083-.19-.13-.39-.164-.592zm16.867 5.67c.35.392.708.78 1.031 1.167-.325-.398-.665-.79-1.031-1.168zm0 1c.366.377.706.77 1.031 1.167-.323-.386-.681-.775-1.031-1.168zM25.18 27.798a.94.94 0 0 0-.18.525c.164.65.698 1.559.916 2.342.327-.72-.364-1.921-.736-2.867zm-5.11 3.705c-.382 2.578 2.286 5.5 5.875 6.36 1.043.29 2.376.215 4.067-.298 1.693-.513 2.49-.758 3.43-.757.922 0 1.34.078 2.109.386.823.33 1.759 1.08 2.176 1.698.29-.2.364-.346.152-.784-.312-.645-1.41-1.546-2.328-1.914-.77-.308-1.187-.386-2.11-.386-.939 0-1.736.244-3.43.757-1.69.513-3.023.589-4.066.297-3.13-.749-5.556-3.068-5.875-5.36zm25.864 3.777C44.499 41.83 39.849 46.965 33.328 47c-3.795.014-8.778-1.512-10.176-5.053-.105-.014-.197-.017-.304-.033C23.6 46.2 29.18 48.016 33.328 48c6.265-.034 10.793-4.779 12.412-10.957a21.05 21.05 0 0 0 .194-1.762z" opacity=".2" fill="#F9F5D7"/>
    <path d="M41.84 3l-.336.414-.172.219c-1.296 1.718-1.632 3.66-2.406 5.746-.295.8-.607 2.008-.781 3.012-.118.677-.156 1.541-.124 2.308a10.4 10.4 0 0 1 .124-1.308c.174-1.004.486-2.212.78-3.012.775-2.085 1.111-4.028 2.407-5.746l.172-.219L41.84 4l.082.41c1.408 3.308 3.48 5.512 5.633 8.477a27.84 27.84 0 0 1 4.431 14.748c.005-.212.014-.422.014-.635 0-5.571-1.64-10.751-4.445-15.113C45.4 8.922 43.33 6.718 41.922 3.41z" opacity=".2" fill="#F9F5D7"/>
</svg>
