<svg xmlns="http://www.w3.org/2000/svg" width="64" height="64">
    <path d="M32 5A28 28 0 0 0 4 33a28 28 0 0 0 28 28 28 28 0 0 0 28-28A28 28 0 0 0 32 5z" opacity=".2"/>
    <path d="M32 4A28 28 0 0 0 4 32a28 28 0 0 0 28 28 28 28 0 0 0 28-28A28 28 0 0 0 32 4z" fill="#8F3F71"/>
    <path d="M28.62 52.82c-2.397-.455-4.948-1.561-7.086-3.071-2.4-1.696-4.88-4.679-6.073-7.304-1.199-2.639-1.684-5.829-1.366-8.974.241-2.38.515-3.484 1.335-5.38 2.274-5.257 6.722-8.88 12.614-10.278.964-.228 1.633-.498 2.046-.824.613-.485.615-.49.984-2.878.46-2.981.453-2.959.925-3.077.635-.159 3.599.264 5.049.72 2.333.734 4 1.689 5.987 3.431.613.538 2.197.977 2.296.977.6 0 2.268.784 2.941 1.437 2.01 1.95 2.28 4.406.749 6.789-.411.639-.958.353-.958 1.177 0 .55-.094 1.125-.21 1.276-.17.22-1.672.341-4.922.622-2.96.255-4.749 1.014-4.931 1.195-.541.54.707.654 6.46 1.107 5.378.424 5.863.572 5.454.98-.088.087-2.445.5-5.725 1.161l-5.965 1.203-3.748-1.446c-2.062-.795-3.813-1.246-3.892-1.246-.246 0-2.05 2.997-1.991 3.306.074.383.829.174 1.81.308.678.093.867.042 1.568-.421 1.561-1.033 2.96-1.034 3.829-.003.53.63.549 1.057.059 1.4-.49.342-.845.33-1.567-.057-1.014-.542-1.657.166-1.29 1.138.238.628.103.97-.381.97-.27 0-.462-.168-.65-.563-.267-.56-.27-.842-1.742-.941-1.591-.108-2.344.443-3.339-.184-.786-.495-1.52-1.356-1.52-1.783 0-.409.779-1.96 1.578-3.144.743-1.1.766-1.367.117-1.367-.345 0-.626.161-.952.545-.574.676-1.92 3.468-1.92 3.983 0 .71.544 1.496 1.99 2.446 1.145.753 1.494.802 1.74 1.358.369.835 1.014 2.266 1.154 3.569.117 1.081.352.802.783.046.438-.769 1.65-.92 1.65-.206 0 .172-.188.412-.418.535-.758.405-.705 1.09.119 1.53.244.131.486.071 1.052-.26.404-.236.85-.43.99-.43.33 0 .777.643.777 1.12 0 1.063-.837 1.731-2.17 1.731-1.59 0-2.81-.854-3.47-2.432-.352-.842-1.728-2.361-2.297-2.971-.561-.603-.86-.708-1.33-.64-.525.076-.784.573-.786 1.851-.005 2.471.774 4.998 3.582 6.382 4.61 2.273 9.037 2.3 13.803.082 3.517-1.637 6.23-4.341 6.426-7.182.072-1.044.029-1.32-.307-1.969-.7-1.348-2.872-2.13-4.351-1.46-.481.218-.849.841-1.085 1.522-.688 2.127.324 3.002 1.49 3.509.478.208 1.32.06 1.47-.535.167-.663-.158-.93-1.064-.874-.684.042-.779.006-.825-.319-.07-.489.663-.962 1.454-.94.467.014.738.002 1.163.465.66.72.546 1.56.201 2.216-.417.795-1.194 1.328-2.345 1.324-1.641-.005-2.967-.917-3.354-2.307-.231-.833-.22-2.165.073-3.15.85-2.855 5.652-3.44 7.936-1.224 1.102 1.069 1.66 2.282 1.557 4.205-.224 4.17-4.426 8.188-9.225 10.541-2.842 1.394-4.439 1.767-7.897 1.847-1.97.046-3.23-.005-4.06-.163z" opacity=".2"/>
    <path d="M28.62 51.82c-2.397-.455-4.948-1.561-7.086-3.071-2.4-1.696-4.88-4.679-6.073-7.304-1.199-2.639-1.684-5.829-1.366-8.974.241-2.38.515-3.484 1.335-5.38 2.274-5.257 6.722-8.88 12.614-10.278.964-.228 1.633-.498 2.046-.824.613-.485.615-.49.984-2.878.46-2.981.453-2.959.925-3.077.635-.159 3.599.264 5.049.72 2.333.734 4 1.689 5.987 3.431.613.538 2.197.977 2.296.977.6 0 2.268.784 2.941 1.437 2.01 1.95 2.28 4.406.749 6.789-.411.639-.958.353-.958 1.177 0 .55-.094 1.125-.21 1.276-.17.22-1.672.341-4.922.622-2.96.255-4.749 1.014-4.931 1.195-.541.54.707.654 6.46 1.107 5.378.424 5.863.572 5.454.98-.088.087-2.445.5-5.725 1.161l-5.965 1.203-3.748-1.446c-2.062-.795-3.813-1.246-3.892-1.246-.246 0-2.05 2.997-1.991 3.306.074.383.829.174 1.81.308.678.093.867.042 1.568-.421 1.561-1.033 2.96-1.034 3.829-.003.53.63.549 1.057.059 1.4-.49.342-.845.33-1.567-.057-1.014-.542-1.657.166-1.29 1.138.238.628.103.97-.381.97-.27 0-.462-.168-.65-.563-.267-.56-.27-.842-1.742-.941-1.591-.108-2.344.443-3.339-.184-.786-.495-1.52-1.356-1.52-1.783 0-.409.779-1.96 1.578-3.144.743-1.1.766-1.367.117-1.367-.345 0-.626.161-.952.545-.574.676-1.92 3.468-1.92 3.983 0 .71.544 1.496 1.99 2.446 1.145.753 1.494.802 1.74 1.358.369.835 1.014 2.266 1.154 3.569.117 1.081.352.802.783.046.438-.769 1.65-.92 1.65-.206 0 .172-.188.412-.418.535-.758.405-.705 1.09.119 1.53.244.131.486.071 1.052-.26.404-.236.85-.43.99-.43.33 0 .777.643.777 1.12 0 1.063-.837 1.731-2.17 1.731-1.59 0-2.81-.854-3.47-2.432-.352-.842-1.728-2.361-2.297-2.971-.561-.603-.86-.708-1.33-.64-.525.076-.784.573-.786 1.851-.005 2.471.774 4.998 3.582 6.382 4.61 2.273 9.037 2.3 13.803.082 3.517-1.637 6.23-4.341 6.426-7.182.072-1.044.029-1.32-.307-1.969-.7-1.348-2.872-2.13-4.351-1.46-.481.218-.849.841-1.085 1.522-.688 2.127.324 3.002 1.49 3.509.478.208 1.32.06 1.47-.535.167-.663-.158-.93-1.064-.874-.684.042-.779.006-.825-.319-.07-.489.663-.962 1.454-.94.467.014.738.002 1.163.465.66.72.546 1.56.201 2.216-.417.795-1.194 1.328-2.345 1.324-1.641-.005-2.967-.917-3.354-2.307-.231-.833-.22-2.165.073-3.15.85-2.855 5.652-3.44 7.936-1.224 1.102 1.069 1.66 2.282 1.557 4.205-.224 4.17-4.426 8.188-9.225 10.541-2.842 1.394-4.439 1.767-7.897 1.847-1.97.046-3.23-.005-4.06-.163z" fill="#48B9C7"/>
    <circle cx="35" cy="21" r="5" opacity=".2"/>
    <circle cx="35" cy="20" r="5" fill="#F9F5D7"/>
    <circle cx="34" cy="19" r="2" fill="#665C54"/>
    <path d="M47.945 20.439c.228 1.085-.275 2.2-1.123 2.491L46 19c.847-.29 1.718.353 1.945 1.439z" opacity=".2"/>
    <path d="M47.945 19.439c.228 1.085-.275 2.2-1.123 2.491L46 18c.847-.29 1.718.353 1.945 1.439z" fill="#F9F5D7"/>
    <path d="M32 4A28 28 0 0 0 4 32a28 28 0 0 0 .021.406A28 28 0 0 1 32 5a28 28 0 0 1 27.979 27.578A28 28 0 0 0 60 32 28 28 0 0 0 32 4z" opacity=".1" fill="#F9F5D7"/>
    <path d="M32.34 10c-.145.003-.26.013-.34.033-.472.118-.465.097-.926 3.078-.369 2.388-.372 2.393-.984 2.877-.413.327-1.08.596-2.045.825-5.893 1.396-10.342 5.022-12.615 10.279-.82 1.895-1.093 3-1.334 5.379a18.776 18.776 0 0 0-.084 2.46c.01-.486.034-.973.084-1.46.24-2.38.514-3.484 1.334-5.38 2.273-5.256 6.722-8.882 12.615-10.279.964-.228 1.632-.497 2.045-.824.613-.484.615-.489.984-2.877.46-2.98.454-2.96.926-3.078.634-.159 3.597.265 5.047.72 2.333.735 4 1.69 5.988 3.433.613.537 2.197.976 2.297.976.6 0 2.266.784 2.94 1.438.997.967 1.564 2.058 1.697 3.205.152-1.508-.414-2.96-1.698-4.205-.673-.654-2.339-1.438-2.939-1.438-.1 0-1.684-.44-2.297-.976-1.988-1.743-3.655-2.698-5.988-3.432-1.269-.4-3.695-.773-4.707-.754zm6.607 18.252c-.509.176-.878.337-.947.406-.541.54.707.654 6.459 1.108 1.8.142 2.908.25 3.762.35 1.022-.2 1.649-.328 1.693-.372.409-.407-.077-.554-5.455-.978-2.822-.223-4.537-.365-5.512-.514zm-11.781.84c-.072.116-.123.209-.219.351-.8 1.184-1.578 2.734-1.578 3.143 0 .118.066.274.164.441.267-.668.83-1.72 1.414-2.584.69-1.022.734-1.314.219-1.351zm6.979 2.742c-.654 0-1.393.26-2.174.775-.701.464-.89.515-1.569.422-.64-.087-1.159-.04-1.48-.095-.202.385-.345.7-.328.787.074.383.827.174 1.808.308.678.093.868.042 1.569-.422 1.561-1.032 2.96-1.032 3.828-.002.082.098.13.183.187.272.328-.322.282-.716-.187-1.272a2.09 2.09 0 0 0-1.654-.773zm-9.84 1.328c-.065.192-.112.356-.112.442 0 .71.543 1.497 1.989 2.447 1.145.753 1.494.801 1.74 1.357.369.836 1.015 2.266 1.156 3.569.117 1.081.35.802.781.046.268-.468.821-.704 1.213-.658.008-.004.012-.01.02-.013.23-.123.418-.364.418-.536 0-.714-1.212-.562-1.65.207-.431.756-.665 1.035-.782-.046-.14-1.303-.787-2.733-1.156-3.569-.246-.556-.595-.604-1.74-1.357-1.079-.709-1.654-1.326-1.877-1.889zm20.037.885c-1.828.075-3.556.962-4.033 2.568-.206.692-.266 1.55-.207 2.291.03-.449.09-.898.207-1.29.85-2.856 5.65-3.442 7.935-1.225.916.888 1.45 1.883 1.547 3.297.002-.031.008-.062.01-.092.103-1.924-.455-3.137-1.557-4.205-1-.97-2.48-1.402-3.902-1.344zM33.01 35.119c-.117.21-.138.496-.047.822.17-.14.195-.414.047-.822zm11.56 2.95c-.791-.023-1.524.45-1.455.939.035.245.098.325.418.332a1.885 1.885 0 0 1 1.037-.272c.467.014.737.002 1.162.465.208.226.333.465.405.705.15-.55.094-1.162-.405-1.705-.425-.463-.695-.451-1.162-.465zm-2.697.855c-.273 1.627.634 2.363 1.662 2.81.478.208 1.32.061 1.469-.533.086-.343.035-.578-.154-.719-.302.35-.926.422-1.315.252-.786-.342-1.49-.862-1.662-1.81zm5.918.133l-.004.076c-.196 2.84-2.908 5.545-6.426 7.181-4.766 2.218-9.191 2.191-13.802-.082-2.578-1.27-3.438-3.504-3.559-5.773-.008.131-.023.24-.023.393-.005 2.47.774 4.997 3.582 6.38 4.611 2.273 9.036 2.3 13.802.082 3.518-1.636 6.23-4.34 6.426-7.181.034-.491.04-.806.004-1.076zM33.252 41.19c-.14 0-.586.196-.99.432-.566.331-.807.39-1.051.26-.177-.095-.31-.201-.416-.313-.416.404-.274.944.416 1.313.244.13.485.071 1.05-.26.405-.236.85-.432.991-.432.236 0 .526.331.676.692.061-.176.101-.363.101-.57 0-.477-.446-1.122-.777-1.122z" fill="#F9F5D7" opacity=".1"/>
</svg>
