<svg xmlns="http://www.w3.org/2000/svg" width="64" height="64" version="1">
    <path d="M51.96 31.828A20 20 0 0 1 32.002 51a20 20 0 0 1-19.957-18.828 20 20 0 0 0-.043.828 20 20 0 0 0 20 20 20 20 0 0 0 20-20 20 20 0 0 0-.042-1.172z" opacity=".2"/>
    <circle cx="32.002" cy="32" r="20" fill="#A79984"/>
    <path d="M15.467 17.173a23.456 8.812 29.496 0 0-3.117 1.957 23.456 8.812 29.496 0 0-.348 2.956 23.456 8.812 29.496 0 1 .348-.958 23.456 8.812 29.496 0 1 5.52-2.238c.382-.383.774-.758 1.187-1.11a29.318 10.281 29.547 0 0-3.59-.608zM6.112 20.63a29.318 10.281 29.547 0 0 20.702 22.244 29.318 10.281 29.547 0 0 30.672 5.628 29.318 10.281 29.547 0 0 .402-3.098 29.318 10.281 29.547 0 1-.402 1.098 29.318 10.281 29.547 0 1-30.672-5.628A29.318 10.281 29.547 0 1 6.112 20.63zM51.76 35.935c-.064.428-.12.86-.212 1.28a23.456 8.812 29.496 0 1 1.918 4.168 23.456 8.812 29.496 0 0-1.05-4.758 29.318 10.281 29.547 0 0-.656-.69z" opacity=".2"/>
    <path d="M13.256 16.004a29.318 10.281 29.547 0 0-6.73 2.492 29.318 10.281 29.547 0 0 20.288 23.38 29.318 10.281 29.547 0 0 30.672 5.628 29.318 10.281 29.547 0 0-5.726-12.566c-.064.428-.12.86-.212 1.28a23.456 8.812 29.496 0 1 1.582 7.098 23.456 8.812 29.496 0 1-24.838-3.98 23.456 8.812 29.496 0 1-15.943-19.204 23.456 8.812 29.496 0 1 5.52-2.237c.383-.384.775-.758 1.187-1.11a29.318 10.281 29.547 0 0-5.8-.781z" fill="#FECE4F"/>
    <path d="M32.002 12a20 20 0 0 0-20 20 20 20 0 0 0 .018.494A20 20 0 0 1 32.002 13a20 20 0 0 1 19.975 19.502 20 20 0 0 0 .025-.502 20 20 0 0 0-20-20z" opacity=".1" fill="#F9F5D7"/>
    <path d="M13.256 16.004a29.318 10.281 29.547 0 0-6.73 2.492 29.318 10.281 29.547 0 0-.414 3.136 29.318 10.281 29.547 0 1 .414-1.136 29.318 10.281 29.547 0 1 6.73-2.492 29.318 10.281 29.547 0 1 2.219.176 23.456 8.812 29.496 0 1 2.394-.285c.383-.384.775-.758 1.188-1.11a29.318 10.281 29.547 0 0-5.8-.781zm-1.258 7.086a23.456 8.812 29.496 0 0 16.294 18.246 23.456 8.812 29.496 0 0 24.838 3.98 23.456 8.812 29.496 0 0 .336-2.93 23.456 8.812 29.496 0 1-.336.93 23.456 8.812 29.496 0 1-24.838-3.98A23.456 8.812 29.496 0 1 11.998 23.09zM51.76 34.938c-.064.428-.12.86-.212 1.28a23.456 8.812 29.496 0 1 .864 1.406 29.318 10.281 29.547 0 1 5.476 8.782 29.318 10.281 29.547 0 0-6.128-11.468z" opacity=".1" fill="#F9F5D7"/>
</svg>
