<svg xmlns="http://www.w3.org/2000/svg" width="64" height="64" version="1">
    <rect width="58" height="58" x="3" y="4" rx="2.9" ry="2.9" opacity=".2"/>
    <rect width="58" height="58" x="3" y="3" rx="2.9" ry="2.9" fill="#F9F5D7"/>
    <path d="M13.969 11.97a3 3 0 0 0-2.09 5.152l6.184 6.183A17 17 0 0 0 15 33.001a17 17 0 0 0 3.05 9.707l-6.171 6.171a3 3 0 1 0 4.242 4.243l6.184-6.184A17 17 0 0 0 32 50.001a17 17 0 0 0 9.707-3.051l6.172 6.172a3 3 0 1 0 4.242-4.243l-6.184-6.183A17 17 0 0 0 49 33a17 17 0 0 0-3.05-9.707l6.171-6.172a3 3 0 0 0-2.18-5.149 3 3 0 0 0-2.062.906l-6.184 6.184A17 17 0 0 0 32 16.001a17 17 0 0 0-9.707 3.05l-6.172-6.172a3 3 0 0 0-2.152-.91zM32 22a11 11 0 0 1 5.36 1.399L32 28.759l-5.352-5.352A11 11 0 0 1 32 22zm-9.602 5.641l5.36 5.36-5.352 5.351A11 11 0 0 1 21 33.001a11 11 0 0 1 1.398-5.36zm19.196.008A11 11 0 0 1 43 33.001a11 11 0 0 1-1.398 5.359L36.242 33zM32 37.243l5.352 5.351A11 11 0 0 1 32 44.001a11 11 0 0 1-5.36-1.399z" opacity=".1"/>
    <path d="M32 15a17 17 0 0 0-17 17 17 17 0 0 0 17 17 17 17 0 0 0 17-17 17 17 0 0 0-17-17zm0 6a11 11 0 0 1 11 11 11 11 0 0 1-11 11 11 11 0 0 1-11-11 11 11 0 0 1 11-11z" fill="#504945"/>
    <path d="M14 14l36 36v0M50 14L14 50" fill="none" stroke="#504945" stroke-width="6" stroke-linecap="round"/>
    <path d="M5.898 3A2.891 2.891 0 0 0 3 5.898v1A2.891 2.891 0 0 1 5.898 4h52.204A2.891 2.891 0 0 1 61 6.898v-1A2.891 2.891 0 0 0 58.102 3H5.898z" opacity=".2" fill="#F9F5D7"/>
</svg>
