<svg xmlns="http://www.w3.org/2000/svg" width="64" height="64" version="1">
    <path d="M10 56v2c0 1.662 1.338 3 3 3h38c1.662 0 3-1.338 3-3v-2c0 1.662-1.338 3-3 3H13c-1.662 0-3-1.338-3-3z" opacity=".2"/>
    <path d="M54 57V7c0-1.662-1.338-3-3-3H13c-1.662 0-3 1.338-3 3v50c0 1.662 1.338 3 3 3h38c1.662 0 3-1.338 3-3z" fill="#7CB668"/>
    <path d="M14 9v48h36V25.828L33.172 9H14zm24.828 0L50 20.172V9H38.828z" opacity=".1"/>
    <path d="M14 8v48h36V24.828L33.172 8H14zm24.828 0L50 19.172V8H38.828z" fill="#F9F5D7"/>
    <path d="M13 4c-1.662 0-3 1.338-3 3v1c0-1.662 1.338-3 3-3h38c1.662 0 3 1.338 3 3V7c0-1.662-1.338-3-3-3H13z" opacity=".1" fill="#F9F5D7"/>
    <path d="M20 50h24V30H20zm2-18h9v4h-9zm11 0h9v4h-9zm-11 6h9v4h-9zm11 0h9v4h-9zm-11 6h9v4h-9zm11 0h9v4h-9z" opacity=".5"/>
</svg>
