<svg xmlns="http://www.w3.org/2000/svg" width="64" height="64" version="1">
    <path d="M11.3 17A2.288 2.288 0 0 0 9 19.285V24H5.875C4.836 24 4 24.86 4 25.928v14.144C4 41.141 4.836 42 5.875 42H9v4.715A2.288 2.288 0 0 0 11.3 49h41.4c1.273 0 2.3-1.019 2.3-2.285V42h3.125C59.164 42 60 41.14 60 40.072V25.928C60 24.859 59.164 24 58.125 24H55v-4.715A2.288 2.288 0 0 0 52.7 17z" opacity=".2"/>
    <rect width="46" height="32" x="9" y="16" rx="2.3" ry="2.286" fill="#A79984"/>
    <path d="M5.875 23C4.836 23 4 23.86 4 24.929V39.07C4 40.14 4.836 41 5.875 41H9V23H6.5zM58.125 41C59.164 41 60 40.14 60 39.071V24.93C60 23.86 59.164 23 58.125 23H55V41h2.5z" fill="#A79984"/>
    <path d="M32 25a8 8 0 0 0-7.41 5h-4.434l-.12-.2-1.268-2.1a1.465 1.4 0 0 0-1.346-.698 1.465 1.4 0 0 0-1.19.697l-1.267 2.102-.121.199H11v-1c0-1.108-.892-2-2-2H8c-1.108 0-2 .892-2 2v8c0 1.108.892 2 2 2h1c1.108 0 2-.892 2-2v-1h3.844l.12.2 1.268 2.1a1.465 1.4 0 0 0 1.19.698 1.465 1.4 0 0 0 1.346-.697l1.267-2.102.121-.199h4.432A8 8 0 0 0 32 41a8 8 0 0 0 7.41-5h4.434l.12.2 1.268 2.1a1.465 1.4 0 0 0 1.19.698 1.465 1.4 0 0 0 1.346-.697l1.267-2.102.121-.199H53v1c0 1.108.892 2 2 2h1c1.108 0 2-.892 2-2v-8c0-1.108-.892-2-2-2h-1c-1.108 0-2 .892-2 2v1h-3.844l-.12-.2-1.268-2.1a1.465 1.4 0 0 0-1.346-.698 1.465 1.4 0 0 0-1.19.697l-1.267 2.102-.121.199h-4.432A8 8 0 0 0 32 25z" opacity=".1"/>
    <path d="M32 24a8 8 0 0 0-7.41 5h-4.434l-.12-.2-1.268-2.1a1.465 1.4 0 0 0-1.346-.698 1.465 1.4 0 0 0-1.19.697l-1.267 2.102-.121.199H11v-1c0-1.108-.892-2-2-2H8c-1.108 0-2 .892-2 2v8c0 1.108.892 2 2 2h1c1.108 0 2-.892 2-2v-1h3.844l.12.2 1.268 2.1a1.465 1.4 0 0 0 1.19.698 1.465 1.4 0 0 0 1.346-.697l1.267-2.102.121-.199h4.432A8 8 0 0 0 32 40a8 8 0 0 0 7.41-5h4.434l.12.2 1.268 2.1a1.465 1.4 0 0 0 1.19.698 1.465 1.4 0 0 0 1.346-.697l1.267-2.102.121-.199H53v1c0 1.108.892 2 2 2h1c1.108 0 2-.892 2-2v-8c0-1.108-.892-2-2-2h-1c-1.108 0-2 .892-2 2v1h-3.844l-.12-.2-1.268-2.1a1.465 1.4 0 0 0-1.346-.698 1.465 1.4 0 0 0-1.19.697l-1.267 2.102-.121.199h-4.432A8 8 0 0 0 32 24z" fill="#3A393A"/>
    <path d="M11.3 16A2.288 2.288 0 0 0 9 18.285V19h46v-.715A2.288 2.288 0 0 0 52.7 16H11.3zM9 45v.715A2.288 2.288 0 0 0 11.3 48h41.4c1.273 0 2.3-1.019 2.3-2.285V45H9z" opacity=".2"/>
    <path d="M5.875 23C4.836 23 4 23.86 4 24.928v1C4 24.859 4.836 24 5.875 24H9v-1H5.875zM55 23v1h3.125c1.039 0 1.875.86 1.875 1.928v-1C60 23.859 59.164 23 58.125 23H55z" opacity=".2" fill="#F9F5D7"/>
</svg>
