<svg xmlns="http://www.w3.org/2000/svg" width="64" height="64">
    <path d="M32 5A28 28 0 0 0 4 33a28 28 0 0 0 28 28 28 28 0 0 0 28-28A28 28 0 0 0 32 5z" opacity=".2"/>
    <path d="M32 4A28 28 0 0 0 4 32a28 28 0 0 0 28 28 28 28 0 0 0 28-28A28 28 0 0 0 32 4z" fill="#8F3F71"/>
    <path d="M33.223 14c-.718 0-1.457.03-2.216.094-6.719.564-11.537 3.96-15.43 7.985-2.746 2.84-4.786 6.825-5.36 10.817-.833 5.793.732 10.963 4.685 14.69 3.351 3.16 8.653 4.276 14.217 4.4 3.902.087 7.566-.234 10.847-.99 1.64-.377 3.246-.86 4.28-1.48 1.034-.62 1.734-1.418 1.756-2.396v-.008c0-1.593-.92-2.9-2.257-3.965-3.87-2.731-7.04-4.305-11.333-6.474-1.183-.56-2.252-1.295-2.41-2.466-.202-1.498 2.082-1.952 3.196-2.075 1.551-.14 2.859-.079 4.438.08 1.58.158 3.346 1.571 3.887 1.783l.042.016.044.007a.452.452 0 0 0 .338-.124c.07-.078.084-.14.093-.182.02-.085.013-.123.01-.166a1.843 1.843 0 0 0-.046-.27c-.046-.204-.122-.479-.224-.81-.358-2.052-1.573-5-2.421-6.762a6.198 6.198 0 0 0-.61-.923c-.206-.25-.409-.451-.709-.529-.394-.106-.962-.134-1.724-.124-.764.01-1.843.066-2.895.17-2.103.206-4.37.598-6.78 1.175-2.409.578-4.68 1.334-6.27 2.309-.793.487-1.622 1.029-1.998 1.666-.375.638-.467 2.188-.178 2.931.615 1.614 2.371 2.826 4.291 3.866 4.014 2.183 7.558 3.576 11.349 5.915 1.395.76 2.33 1.886 2.12 3.027-.22 1.201-1.663 1.802-2.91 2.215-2.243.742-4.504.664-6.493.596-4.608-.198-8.92-1.167-12.084-4.749-1.967-2.226-2.234-4.514-2.448-7.791-.21-3.211 1.043-6.793 2.842-9.458 3.999-5.925 9.205-9.355 16.106-10.27 8.143-1.04 13.707 1.88 17.267 5.026 1.78 1.573 3.054 3.476 3.877 4.694.411.61.71 1.115.905 1.459.097.172.167.303.215.39.024.044.04.074.059.106.009.015-.006.013.063.085.018.017.128.087.128.087l.466-.156s.053-.176.052-.207a.348.348 0 0 0-.006-.06c-.02-.103-.03-.099-.048-.141a3.52 3.52 0 0 0-.07-.155 10.505 10.505 0 0 0-.254-.492c-.222-.407-.55-.965-.994-1.62-.886-1.31-2.228-3.283-4.077-4.933-3.236-2.888-8.04-5.619-14.617-5.802-.235-.006-.472-.01-.711-.01z" opacity=".2"/>
    <path d="M33.223 13c-.718 0-1.457.03-2.216.094-6.719.564-11.537 3.96-15.43 7.985-2.746 2.84-4.786 6.825-5.36 10.817-.833 5.793.732 10.963 4.685 14.69 3.351 3.16 8.653 4.276 14.217 4.4 3.902.087 7.566-.234 10.847-.99 1.64-.377 3.246-.86 4.28-1.48 1.034-.62 1.734-1.418 1.756-2.396v-.008c0-1.593-.92-2.9-2.257-3.965-3.87-2.731-7.04-4.305-11.333-6.474-1.183-.56-2.252-1.295-2.41-2.466-.202-1.498 2.082-1.952 3.196-2.075 1.551-.14 2.859-.079 4.438.08 1.58.158 3.346 1.571 3.887 1.783l.042.016.044.007a.452.452 0 0 0 .338-.124c.07-.078.084-.14.093-.182.02-.085.013-.123.01-.166a1.843 1.843 0 0 0-.046-.27c-.046-.204-.122-.479-.224-.81-.358-2.052-1.573-5-2.421-6.762a6.198 6.198 0 0 0-.61-.923c-.206-.25-.409-.451-.709-.529-.394-.106-.962-.134-1.724-.124-.764.01-1.843.066-2.895.17-2.103.206-4.37.598-6.78 1.175-2.409.578-4.68 1.334-6.27 2.309-.793.487-1.622 1.029-1.998 1.666-.375.638-.467 2.188-.178 2.931.615 1.614 2.371 2.826 4.291 3.866 4.014 2.183 7.558 3.576 11.349 5.915 1.395.76 2.33 1.886 2.12 3.027-.22 1.201-1.663 1.802-2.91 2.215-2.243.742-4.504.664-6.493.596-4.608-.198-8.92-1.167-12.084-4.749-1.967-2.226-2.234-4.514-2.448-7.791-.21-3.211 1.043-6.793 2.842-9.458 3.999-5.925 9.205-9.355 16.106-10.27 8.143-1.04 13.707 1.88 17.267 5.026 1.78 1.573 3.054 3.476 3.877 4.694.411.61.71 1.115.905 1.459.097.172.167.303.215.39.024.044.04.074.059.106.009.015-.006.013.063.085.018.017.128.087.128.087l.466-.156s.053-.176.052-.207a.348.348 0 0 0-.006-.06c-.02-.103-.03-.099-.048-.141a3.52 3.52 0 0 0-.07-.155 10.505 10.505 0 0 0-.254-.492c-.222-.407-.55-.965-.994-1.62-.886-1.31-2.228-3.283-4.077-4.933-3.236-2.888-8.04-5.619-14.617-5.802-.235-.006-.472-.01-.711-.01z" fill="#8F3F71"/>
    <path d="M32 4A28 28 0 0 0 4 32a28 28 0 0 0 .021.406A28 28 0 0 1 32 5a28 28 0 0 1 27.979 27.578A28 28 0 0 0 60 32 28 28 0 0 0 32 4z" opacity=".1" fill="#F9F5D7"/>
</svg>
