<svg xmlns="http://www.w3.org/2000/svg" width="64" height="64" version="1">
    <path d="M4 36.602v2A22.348 22.348 0 0 0 26.398 61h11.203A22.347 22.347 0 0 0 60 38.602v-2A22.347 22.347 0 0 1 37.601 59H26.398A22.348 22.348 0 0 1 4 36.602z" opacity=".2"/>
    <rect width="56" height="56" x="4" y="4" rx="22.4" ry="22.4" fill="#CB241D"/>
    <path d="M26.398 4A22.349 22.349 0 0 0 4 26.398v1C4 14.99 13.99 5 26.398 5h11.204C50.012 5 60 14.99 60 27.398v-1A22.348 22.348 0 0 0 37.602 4H26.398z" opacity=".2" fill="#F9F5D7"/>
    <path d="M32.008 5l.016 19.973.027 21.972h5.902l.016-5.778c.01-4.574.025-5.773.078-5.754.037.015 1.177 1.766 2.348 3.89 1.17 2.126 2.28 4.104 2.46 4.4.373.61 1.103 1.452 1.579 1.816.995.76 2.031 1.15 3.633 1.367.857.116 3.754.157 3.843.055.04-.045.053-1.09.043-3.313l-.015-3.608-1.07-.04c-1.868.02-2.745-.469-3.79-1.836-.164-.266-.992-1.758-1.84-3.317-1.493-2.747-1.537-2.839-1.457-2.98.046-.08 1.907-3.077 4.137-6.66 2.23-3.583 4.07-6.097 4.086-6.144.024-.071-.546-.043-3.59-.043H44.79l-3.261 4.746c-1.796 2.883-3.45 5.252-3.485 5.265-.059.023-.059-16.69-.027-23.984-.194 0-.224-.023-.416-.023h-5.594zM18.52 19c-.748.007-1.478.043-1.829.11-2.882.547-4.823 2.096-5.927 4.578a9.066 9.066 0 0 0-.7 2.473c-.09.616-.097.881-.074 1.883.02.817.054 1.334.125 1.734.484 2.73 1.769 4.46 4.178 5.363.777.291 1.263.403 3.344.75 1.156.193 2.037.366 2.222.442.796.325 1.167.913 1.235 1.945.083 1.27-.535 2.139-1.781 2.5-.5.145-1.415.226-2.06.183-2.114-.14-3.495-.66-4.69-1.774l-.141-.134-1.809 2.118c-.996 1.164-1.812 2.166-1.812 2.223 0 .143.836.981 1.476 1.484 1.617 1.27 3.333 1.869 6.055 2.106.571.05 2.68-.024 3.168-.11 3.661-.64 6.388-2.831 7.216-6.09.385-1.514.376-3.803-.02-5.5-.29-1.245-.668-2.025-1.402-2.891-.768-.902-1.628-1.37-2.786-1.824-.782-.306-1.938-.452-4.023-.792-2.225-.366-2.49-.458-2.997-1.012-.575-.628-.674-1.464-.289-2.38.273-.646.829-1.014 1.63-1.27.418-.134 2.59-.147 3.257-.024.896.166 1.737.475 2.336 1.04.174.165.346.302.383.302.099 0 3.566-4.075 3.566-4.192 0-.135-.67-.799-1.32-1.308-1.254-.984-2.746-1.586-4.604-1.856-.416-.06-1.18-.085-1.927-.078z" opacity=".2"/>
    <path d="M32.008 4l.016 19.973.027 21.972h5.902l.016-5.778c.01-4.575.025-5.773.078-5.754.037.014 1.177 1.766 2.348 3.89 1.17 2.126 2.28 4.104 2.46 4.4.373.61 1.103 1.452 1.579 1.816.995.76 2.031 1.15 3.633 1.367.857.116 3.754.157 3.843.054.04-.044.053-1.089.043-3.312l-.015-3.608-1.07-.04c-1.868.02-2.745-.469-3.79-1.836-.164-.266-.992-1.758-1.84-3.317-1.493-2.747-1.537-2.839-1.457-2.98.046-.08 1.907-3.077 4.137-6.66 2.23-3.583 4.07-6.097 4.086-6.144.024-.071-.546-.043-3.59-.043H44.79l-3.261 4.745c-1.796 2.884-3.45 5.253-3.485 5.266-.059.023-.059-16.691-.027-23.984-.194-.001-.224-.024-.416-.024h-5.594zM18.52 18c-.748.006-1.478.043-1.829.11-2.882.547-4.823 2.096-5.927 4.578a9.066 9.066 0 0 0-.7 2.473c-.09.616-.097.881-.074 1.882.02.818.054 1.335.125 1.735.484 2.73 1.769 4.46 4.178 5.363.777.291 1.263.403 3.344.75 1.156.193 2.037.366 2.222.441.796.326 1.167.914 1.235 1.946.083 1.27-.535 2.139-1.781 2.5-.5.144-1.415.225-2.06.183-2.114-.14-3.495-.66-4.69-1.774l-.141-.134-1.809 2.118c-.996 1.164-1.812 2.166-1.812 2.223 0 .142.836.981 1.476 1.484 1.617 1.27 3.333 1.868 6.055 2.106.571.05 2.68-.024 3.168-.11 3.661-.64 6.388-2.831 7.216-6.09.385-1.514.376-3.803-.02-5.5-.29-1.245-.668-2.025-1.402-2.891-.768-.902-1.628-1.37-2.786-1.824-.782-.306-1.938-.452-4.023-.792-2.225-.366-2.49-.458-2.997-1.012-.575-.628-.674-1.464-.289-2.38.273-.646.829-1.014 1.63-1.27.418-.134 2.59-.147 3.257-.024.896.166 1.737.475 2.336 1.04.174.165.346.301.383.301.099 0 3.566-4.074 3.566-4.19 0-.136-.67-.8-1.32-1.31-1.254-.983-2.746-1.585-4.604-1.855-.416-.06-1.18-.085-1.927-.079z" fill="#F9F5D7"/>
</svg>
