<svg xmlns="http://www.w3.org/2000/svg" width="64" height="64" version="1">
    <rect width="52" height="52" x="6" y="-61" rx="2.6" ry="2.6" transform="scale(1 -1)" opacity=".2"/>
    <rect width="52" height="52" x="6" y="-60" rx="2.6" ry="2.6" transform="scale(1 -1)" fill="#F9F5D7"/>
    <rect width="58" height="11" x="3" y="6" rx="2.466" ry="2.059" opacity=".2"/>
    <rect width="58" height="11" x="3" y="5" rx="2.466" ry="2.059" fill="#504945"/>
    <rect width="40" height="32" x="12" y="-54" rx="2" ry="1.6" transform="scale(1 -1)" fill="#066678"/>
    <path d="M26.149 29A2.1 2.085 0 0 0 24 31.087v15.829a2.1 2.085 0 0 0 3.15 1.806l6.9-3.957 6.902-3.959a2.1 2.085 0 0 0 0-3.61l-6.902-3.959-6.9-3.956a2.1 2.085 0 0 0-1.001-.28z" opacity=".2"/>
    <path d="M26.149 28A2.1 2.085 0 0 0 24 30.087v15.829a2.1 2.085 0 0 0 3.15 1.806l6.9-3.957 6.902-3.959a2.1 2.085 0 0 0 0-3.61l-6.902-3.959-6.9-3.956a2.1 2.085 0 0 0-1.001-.28z" fill="#F9F5D7"/>
    <path d="M5.467 5C4.1 5 3 5.918 3 7.059v1C3 6.918 4.1 6 5.467 6h53.066C59.9 6 61 6.918 61 8.059v-1C61 5.918 59.9 5 58.533 5H5.467z" opacity=".1" fill="#F9F5D7"/>
</svg>
