<svg xmlns="http://www.w3.org/2000/svg" width="64" height="64" version="1">
    <rect width="56" height="56" x="4" y="5" rx="2.8" ry="2.8" opacity=".2"/>
    <rect width="56" height="56" x="4" y="4" rx="2.8" ry="2.8" fill="#928274"/>
    <path d="M41.843 18.007c-2.781.15-4.92 2.57-4.775 5.411l.011.13c-.01.294.004.588.041.88.1.779-.144 1.564-.659 2.147l-2.704 3.072-11.523 13.079a4.567 4.567 0 0 0-.323 0c-1.694.09-2.996 1.564-2.907 3.297.09 1.734 1.533 3.063 3.23 2.973 1.697-.091 2.995-1.564 2.906-3.298a4.536 4.536 0 0 0-.032-.33l11.49-13.04 2.737-3.108a2.619 2.619 0 0 1 2.024-.894c.229.005.459 0 .686-.025.108.001.216-.002.326-.008 2.27-.122 4.108-1.758 4.629-3.9l-2.847.558a2.547 2.547 0 0 1-2.983-2.03l-.005-.026a2.57 2.57 0 0 1 2.015-3.01l2.398-.471a4.961 4.961 0 0 0-3.735-1.407zM21.616 44.322l1.643.372.481 1.624-1.159 1.252-1.64-.372-.485-1.624z" opacity=".6" fill="#F9F5D7"/>
    <path d="M33.219 32.303L46.314 45.4c.891.892.914 2.377.067 3.304-.26.242-.901.784-.901.784-.981.792-2.446.648-3.261-.312L30.237 35.081a1.095 1.095 0 0 1-.248-.558c-.36-.452-1.752-2.141-4.625-4.972-3.395-3.343-3.975-1.655-4.602-1.1-.627.556-.563 1.07-.563 1.07-.055.318-.275.742-.521.948l-1.001.837c-.093.045-1.835-1.814-2.387-2.43-.475-.528-1.232-1.586-1.232-1.586a.336.336 0 0 1 .024-.408s.927-1.053 1.27-1.073c1.006-.06 1.471-.155 1.965-.907s.494-1.344.769-1.779c.182-.29 1.706-2.167 3.934-3.483 4.275-2.525 7.592-2.681 8.28-2.634l3.218.222-1.667 1.645c-.138.05-.364.118-.504.153 0 0-2.034.452-3.648 1.626-1.614 1.173-2.053 3.19-.82 5.561.723 1.392 1.196 1.872 2.186 2.995a64.37 64.37 0 0 0 2.63 2.808c.193.043.376.139.524.287z" opacity=".2"/>
    <path d="M33.219 31.303L46.314 44.4c.891.892.914 2.377.067 3.304-.26.242-.901.784-.901.784-.981.792-2.446.648-3.261-.312L30.237 34.081a1.095 1.095 0 0 1-.248-.558c-.36-.452-1.752-2.141-4.625-4.972-3.395-3.343-3.975-1.655-4.602-1.1-.627.556-.563 1.07-.563 1.07-.055.318-.275.742-.521.948l-1.001.837c-.093.045-1.835-1.814-2.387-2.43-.475-.528-1.232-1.586-1.232-1.586a.336.336 0 0 1 .024-.408s.927-1.053 1.27-1.073c1.006-.06 1.471-.155 1.965-.907s.494-1.344.769-1.779c.182-.29 1.706-2.167 3.934-3.483 4.275-2.525 7.592-2.681 8.28-2.634l3.218.222-1.667 1.645c-.138.05-.364.118-.504.153 0 0-2.034.452-3.648 1.626-1.614 1.173-2.053 3.19-.82 5.561.723 1.392 1.196 1.872 2.186 2.995a64.37 64.37 0 0 0 2.63 2.808c.193.043.376.139.524.287z" fill="#F9F5D7"/>
    <path d="M6.8 4C5.25 4 4 5.25 4 6.8v1C4 6.25 5.25 5 6.8 5h50.4C58.75 5 60 6.25 60 7.8v-1C60 5.25 58.75 4 57.2 4H6.8z" fill="#F9F5D7" opacity=".1"/>
</svg>
