<svg xmlns="http://www.w3.org/2000/svg" width="64" height="64" version="1">
    <path d="M10 56.2v2c0 1.55 1.226 2.8 2.75 2.8h38.5c1.524 0 2.75-1.25 2.75-2.8v-2c0 1.55-1.226 2.8-2.75 2.8h-38.5C11.226 59 10 57.75 10 56.2z" opacity=".2"/>
    <path d="M54 57.2V6.8C54 5.249 52.774 4 51.25 4h-38.5C11.226 4 10 5.249 10 6.8v50.4c0 1.552 1.226 2.8 2.75 2.8h38.5c1.524 0 2.75-1.248 2.75-2.8z" fill="#FD8019"/>
    <path d="M22 24a6 6 0 1 0 6 6h-6v-6zm10 0v4h14v-4H32zm0 8v4h14v-4H32zm-16 8v4h24v-4H16z" fill="#CB241D"/>
    <path d="M12.75 4C11.226 4 10 5.25 10 6.8v1C10 6.25 11.226 5 12.75 5h38.5C52.774 5 54 6.25 54 7.8v-1C54 5.25 52.774 4 51.25 4h-38.5z" opacity=".2" fill="#F9F5D7"/>
</svg>
