<svg xmlns="http://www.w3.org/2000/svg" width="64" height="64" version="1">
    <path d="M12 16.001c0 1.985.547 6 .547 6H8.199A4.19 4.19 0 0 0 4 26.201v17.7C4 46.225 5.872 48 8.2 48H17c1.97 0 3-2 3-2 4.776 3.999 11.733 4 16.898 4C47.398 50 60 49.6 60 16zm-1.414 10h2.097c.824 8.293 2.662 13.9 5.094 17.672a2.29 2.29 0 0 1-1.16.328h-6.031C9.154 44 8 42.663 8 41V29c0-1.662 1.154-3 2.586-3z" opacity=".2"/>
    <path d="M12 15c0 1.985.547 6 .547 6H8.199A4.19 4.19 0 0 0 4 25.2v17.7C4 45.224 5.872 47 8.2 47H17c1.97 0 3-2 3-2 4.776 3.998 11.733 4 16.898 4C47.398 49 60 48.6 60 15zm-1.414 10h2.097c.824 8.293 2.662 13.9 5.094 17.672a2.29 2.29 0 0 1-1.16.328h-6.031C9.154 43 8 41.662 8 40V28c0-1.662 1.154-3 2.586-3z" fill="#E6D3A3"/>
    <path d="M12 15c0 .28.03.658.049 1.002L59.989 16c.002-.337.011-.656.011-1H12zm-3.8 6A4.19 4.19 0 0 0 4 25.201v1c0-2.328 1.872-4.199 4.2-4.199h4.347s-.08-.672-.121-1.002H8.199zM8 40v1c0 1.662 1.154 3 2.586 3h6.031c.42 0 .81-.124 1.16-.328-.161-.25-.312-.53-.468-.797-.221.074-.45.125-.692.125h-6.031C9.154 43 8 41.662 8 40z" opacity=".2" fill="#F9F5D7"/>
    <path d="M43.399 21s-1.81 1.756-3.768 2.464c-14.496 5.244-8.383 15.462-8.183 15.495 0 0 .813-1.415 1.91-2.223 6.969-5.122 8.385-11.019 8.385-11.019s-1.563 7.096-7.763 11.51c-1.369.975-2.296 3.375-2.688 5.773 0 0 .97-.392 1.388-.498.162-1.062.503-2.08 1.078-2.988 8.664 1.032 11.502-5.95 11.872-8.384.876-5.75-2.232-10.13-2.232-10.13z" fill="#417B58"/>
</svg>
