<svg xmlns="http://www.w3.org/2000/svg" width="64" height="64" version="1">
    <path d="M32 5C16.488 5 4 17.488 4 33s12.488 28 28 28 28-12.488 28-28S47.512 5 32 5z" opacity=".2"/>
    <path d="M32 4C16.488 4 4 16.488 4 32s12.488 28 28 28 28-12.488 28-28S47.512 4 32 4z" fill="#066678"/>
    <path d="M32 17a12 16 0 0 1 12 16 12 16 0 0 1-12 16 12 16 0 0 1-12-16 12 16 0 0 1 12-16z" opacity=".2"/>
    <path d="M32 16a12 16 0 0 1 12 16 12 16 0 0 1-12 16 12 16 0 0 1-12-16 12 16 0 0 1 12-16z" fill="#F9F5D7"/>
    <path d="M32 4C16.488 4 4 16.488 4 32c0 .168.01.333.014.5C4.28 17.221 16.656 5 32 5c15.344 0 27.72 12.221 27.986 27.5.003-.167.014-.332.014-.5C60 16.488 47.512 4 32 4z" fill="#F9F5D7" opacity=".2"/>
</svg>
