<svg xmlns="http://www.w3.org/2000/svg" width="64" height="64" version="1">
    <rect width="56" height="56" x="4" y="5" rx="2.6" ry="2.6" opacity=".2"/>
    <path d="M32 4H6.8A2.794 2.794 0 0 0 4 6.8V32h28z" fill="#A04A73"/>
    <path d="M32 4h25.2C58.751 4 60 5.249 60 6.8V32H32z" fill="#8F3F71"/>
    <path d="M32 60H6.8A2.794 2.794 0 0 1 4 57.2V32h28z" fill="#FD8019"/>
    <path d="M32 60h25.2c1.551 0 2.8-1.249 2.8-2.8V32H32z" fill="#A04A73"/>
    <path fill="#3A393A" d="M12 12h40v40H12z"/>
    <path d="M18 47h16" opacity=".2" fill="none" stroke="#151819" stroke-width="4" stroke-linecap="round"/>
    <path d="M18 46h16" fill="none" stroke="#F9F5D7" stroke-width="4" stroke-linecap="round"/>
    <path d="M34 35s8.088.7 8-8c-.087-8.701-8-8-8-8m0 16V19" fill="none" stroke="#151819" stroke-width="4" stroke-linecap="round" stroke-linejoin="bevel" opacity=".2"/>
    <path d="M34 34s8.088.7 8-8c-.087-8.701-8-8-8-8m0 16V18" fill="none" stroke="#F9F5D7" stroke-width="4" stroke-linecap="round" stroke-linejoin="bevel"/>
    <path d="M26 35l-4-6m-4-2s8 .929 8-4-8-4-8-4m0 16V19" opacity=".2" fill="none" stroke="#151819" stroke-width="4" stroke-linecap="round"/>
    <path d="M26 34l-4-6m-4-2s8 .929 8-4-8-4-8-4m0 16V18" fill="none" stroke="#F9F5D7" stroke-width="4" stroke-linecap="round"/>
    <path d="M6.6 4C5.16 4 4 5.16 4 6.6v1C4 6.16 5.16 5 6.6 5h50.8C58.841 5 60 6.16 60 7.6v-1C60 5.16 58.841 4 57.4 4H6.6z" opacity=".2" fill="#F9F5D7"/>
</svg>
