<svg xmlns="http://www.w3.org/2000/svg" width="64" height="64" version="1">
    <rect width="56" height="56" x="4" y="4" rx="3" ry="3" fill="#504945"/>
    <path d="M10 15l12 40h30l-4-10h-9l-3-9 3-11h9l4-10H32l-5.984 20.942L20 15H10z" opacity=".2"/>
    <path d="M7 4C5.338 4 4 5.338 4 7v1c0-1.662 1.338-3 3-3h50c1.662 0 3 1.338 3 3V7c0-1.662-1.338-3-3-3H7z" opacity=".1" fill="#F9F5D7"/>
    <path d="M4 57v1c0 1.662 1.338 3 3 3h50c1.662 0 3-1.338 3-3v-1c0 1.662-1.338 3-3 3H7c-1.662 0-3-1.338-3-3z" opacity=".2"/>
    <path d="M10 14h10l10.538 36.67.712 3.33H22z" fill="#48B9C7"/>
    <path d="M34.688 35.01L26.45 35 22 54h9c4.114-17.837 3.689-18.99 3.689-18.99z" fill="#48B9C7"/>
    <path d="M32 14l-6 21 5.25 19H52l-4-10h-9l-3-9 3-11h9l4-10z" fill="#73C48F"/>
</svg>
