<svg xmlns="http://www.w3.org/2000/svg" width="64" height="64">
    <path d="M28.7 13c-7.492-.008-12.161 4.875-14.333 9.402C8.37 24.676 4 30.422 4 37.141 4 45.779 11.147 53 19.813 53h24.375C52.852 53 60 45.78 60 37.14c0-8.639-7.147-15.863-15.813-15.863-.082 0-.164.002-.246.004-.07.003-.13.04-.199.043-.506-.278-1.037-.417-1.578-.633-3.94-4.8-5.974-7.683-13.465-7.691z" opacity=".2"/>
    <path d="M28.7 12c-7.492-.008-12.161 4.875-14.333 9.402C8.37 23.676 4 29.422 4 36.141 4 44.779 11.147 52 19.813 52h24.375C52.852 52 60 44.78 60 36.14c0-8.639-7.147-15.863-15.813-15.863-.082 0-.164.002-.246.004-.07.003-.13.04-.199.043-.506-.278-1.037-.417-1.578-.633-3.94-4.8-5.974-7.683-13.465-7.691z" fill="#066678"/>
    <path d="M28.7 21c-4.315 0-7.813 3.52-7.813 7.861.006.198.02.394.042.586a11.64 11.64 0 0 0-1.116-.17c-4.315 0-7.813 3.52-7.813 7.862C12 41.48 15.498 45 19.813 45h24.374C48.5 45 52 41.48 52 37.139c0-4.342-3.499-7.861-7.813-7.861a6.8 6.8 0 0 0-2.398.51 5.949 5.949 0 0 0-4.69-2.289c-.242.014-.474.022-.698.042-.624-3.713-3.835-6.54-7.702-6.54z" opacity=".2"/>
    <path d="M28.7 20c-4.315 0-7.813 3.52-7.813 7.861.006.198.02.394.042.586a11.64 11.64 0 0 0-1.116-.17c-4.315 0-7.813 3.52-7.813 7.862C12 40.48 15.498 44 19.813 44h24.374C48.5 44 52 40.48 52 36.139c0-4.342-3.499-7.861-7.813-7.861a6.8 6.8 0 0 0-2.398.51 5.949 5.949 0 0 0-4.69-2.289c-.242.014-.474.022-.698.042-.624-3.713-3.835-6.54-7.702-6.54z" fill="#48B9C7"/>
    <path d="M28.7 12c-7.492-.008-12.161 4.875-14.333 9.402C8.37 23.676 4 29.422 4 36.141c0 .15.02.294.023.443.235-6.476 4.513-11.971 10.344-14.182C16.54 17.875 21.208 12.992 28.7 13c7.491.008 9.524 2.89 13.465 7.691.54.216 1.072.355 1.578.633.07-.003.13-.04.2-.043.081-.002.163-.004.245-.004 8.497 0 15.516 6.949 15.788 15.364.005-.168.025-.332.025-.5 0-8.64-7.147-15.864-15.813-15.864-.082 0-.164.002-.246.004-.07.002-.13.04-.199.043-.506-.278-1.037-.417-1.578-.633-3.94-4.8-5.974-7.683-13.465-7.691z" opacity=".1" fill="#F9F5D7"/>
</svg>
