<svg xmlns="http://www.w3.org/2000/svg" width="64" height="64" version="1">
    <rect width="56" height="56" x="4" y="5" rx="2.8" ry="2.8" opacity=".2"/>
    <rect width="56" height="56" x="4" y="4" rx="2.8" ry="2.8" fill="#8F3F71"/>
    <path d="M33.736 11a1.737 1.737 0 0 0-1.228 2.965l18.527 18.527A1.737 1.737 0 0 0 54 31.264V12.737A1.737 1.737 0 0 0 52.263 11z" opacity=".2"/>
    <path d="M33.736 10a1.737 1.737 0 0 0-1.228 2.965l18.527 18.527A1.737 1.737 0 0 0 54 30.264V11.737A1.737 1.737 0 0 0 52.263 10z" fill="#F9F5D7"/>
    <path d="M6.8 4C5.25 4 4 5.25 4 6.8v1C4 6.25 5.25 5 6.8 5h50.4C58.75 5 60 6.25 60 7.8v-1C60 5.25 58.75 4 57.2 4H6.8z" opacity=".1" fill="#F9F5D7"/>
</svg>
