<svg xmlns="http://www.w3.org/2000/svg" width="64" height="64" version="1">
    <path d="M4 56.2v2C4 59.75 5.25 61 6.8 61h50.4c1.55 0 2.8-1.25 2.8-2.8v-2c0 1.55-1.25 2.8-2.8 2.8H6.8C5.25 59 4 57.75 4 56.2z" opacity=".2"/>
    <rect width="56" height="56" x="4" y="4" rx="2.8" ry="2.8" fill="#504945"/>
    <path d="M12.78 25C11.24 25 10 26.165 10 27.611v6.78C10 35.837 11.24 37 12.78 37h6.44c1.54 0 2.78-1.163 2.78-2.61v-6.779C22 26.165 20.76 25 19.22 25h-6.44zm18 0C29.24 25 28 26.165 28 27.611v6.78C28 35.837 29.24 37 30.78 37h6.439C38.759 37 40 35.837 40 34.39v-6.779C40 26.165 38.759 25 37.219 25h-6.44zm-18 18C11.24 43 10 44.163 10 45.61v6.78c0 1.447 1.24 2.61 2.78 2.61h6.44c1.54 0 2.78-1.163 2.78-2.61v-6.78c0-1.447-1.24-2.61-2.78-2.61h-6.44zm18 0C29.24 43 28 44.163 28 45.61v6.78c0 1.447 1.24 2.61 2.78 2.61h6.439C38.759 55 40 53.837 40 52.39v-6.78c0-1.447-1.241-2.61-2.781-2.61h-6.44z" opacity=".2"/>
    <path d="M6.8 4C5.25 4 4 5.25 4 6.8v1.003c0-1.551 1.25-2.801 2.8-2.801h50.4c1.55 0 2.8 1.25 2.8 2.8V6.802C60 5.25 58.75 4 57.2 4H6.8z" opacity=".1" fill="#F9F5D7"/>
    <g transform="scale(1.99997)" fill="#FA4934">
        <rect width="6" height="6" x="5" y="21" rx="1.39" ry="1.305"/>
        <rect width="6" height="6" x="5" y="12" rx="1.39" ry="1.305"/>
        <rect width="6" height="6" x="14" y="21" rx="1.39" ry="1.305"/>
        <rect width="6" height="6" x="14" y="12" rx="1.39" ry="1.305"/>
    </g>
</svg>
