<svg xmlns="http://www.w3.org/2000/svg" width="64" height="64" version="1">
    <path d="M25 11c-1.153 0-2.306.43-3.168 1.291L4.291 29.834c-1.723 1.723-1.72 4.606.002 6.33l17.542 17.543c1.723 1.722 4.609 1.725 6.332.002l17.54-17.543c1.724-1.723 1.724-4.609 0-6.332l-17.54-17.543A4.466 4.466 0 0 0 24.998 11z" opacity=".2"/>
    <path d="M25 10c-1.153 0-2.306.43-3.168 1.291L4.291 28.834c-1.723 1.723-1.72 4.606.002 6.33l17.542 17.543c1.723 1.722 4.609 1.725 6.332.002l17.54-17.543c1.724-1.723 1.724-4.609 0-6.332l-17.54-17.543A4.466 4.466 0 0 0 24.998 10z" fill="#928274"/>
    <path d="M25 10c-1.152 0-2.306.43-3.168 1.291L4.291 28.834c-.985.985-1.386 2.348-1.244 3.658.108-.976.51-1.924 1.244-2.658l17.541-17.543A4.468 4.468 0 0 1 25 11c1.152 0 2.305.43 3.166 1.291l17.541 17.543c.736.736 1.139 1.687 1.246 2.666.144-1.313-.26-2.68-1.246-3.666L28.166 11.291A4.463 4.463 0 0 0 25 10z" opacity=".2" fill="#F9F5D7"/>
    <rect width="26.292" height="26.292" x="27.87" y="-7.49" rx="1.43" ry="1.43" transform="rotate(45)" opacity=".2"/>
    <rect width="26.292" height="26.292" x="27.16" y="-8.2" rx="1.43" ry="1.43" transform="rotate(45)" fill="#F9F5D7"/>
    <path d="M39 11c-1.153 0-2.306.43-3.168 1.291L18.291 29.834c-1.723 1.723-1.72 4.606.002 6.33l17.542 17.543c1.723 1.722 4.609 1.725 6.332.002l17.54-17.543c1.724-1.723 1.724-4.609 0-6.332l-17.54-17.543A4.466 4.466 0 0 0 38.998 11z" opacity=".2"/>
    <path d="M39 10c-1.153 0-2.306.43-3.168 1.291L18.291 28.834c-1.723 1.723-1.72 4.606.002 6.33l17.542 17.543c1.723 1.722 4.609 1.725 6.332.002l17.54-17.543c1.724-1.723 1.724-4.609 0-6.332l-17.54-17.543A4.466 4.466 0 0 0 38.998 10z" fill="#CB241D"/>
    <path d="M39 10c-1.152 0-2.306.43-3.168 1.291L18.291 28.834c-.985.985-1.386 2.348-1.244 3.658.108-.976.51-1.924 1.244-2.658l17.541-17.543A4.468 4.468 0 0 1 39 11c1.152 0 2.305.43 3.166 1.291l17.541 17.543c.736.736 1.139 1.687 1.246 2.666.144-1.313-.26-2.68-1.246-3.666L42.166 11.291A4.463 4.463 0 0 0 39 10z" opacity=".2" fill="#F9F5D7"/>
</svg>
