<svg xmlns="http://www.w3.org/2000/svg" width="64" height="64" version="1">
    <rect width="56" height="56" x="4" y="5" rx="16.8" ry="16.8" opacity=".2"/>
    <rect width="56" height="56" x="4" y="4" rx="16.8" ry="16.8" fill="#F9F5D7"/>
    <circle cx="32" cy="32" r="22" fill="#066678"/>
    <path d="M23.883 15.828a18.934 18.934 0 0 0-9.668 10.512c2.31 2.015 7.896 6.89 8.394 7.328l.977.855.57.5.399-.023c.22-.012.95-.06 1.62-.11.672-.048 1.515-.107 1.876-.128.36-.022.726-.047.812-.059.086-.012.452-.041.813-.062.36-.021 1.011-.066 1.441-.098.43-.032 1.245-.088 1.813-.125 1.448-.095 1.291.004 1.238-.793-.112-1.676-.238-3.521-.457-6.645-.05-.705-.106-1.594-.129-1.972l-.043-.688-.293-.285a20.165 20.165 0 0 0-.723-.664c-.24-.21-.918-.797-1.503-1.309a319.584 319.584 0 0 0-2-1.742c-.241-.213-1.257-1.102-2.254-1.972-.893-.78-2.075-1.812-2.883-2.52z" opacity=".2"/>
    <path d="M23.883 14.828a18.934 18.934 0 0 0-9.668 10.512c2.31 2.015 7.896 6.89 8.394 7.328l.977.855.57.5.399-.023c.22-.012.95-.06 1.62-.11.672-.048 1.515-.107 1.876-.128.36-.022.726-.047.812-.059.086-.012.452-.041.813-.062.36-.021 1.011-.066 1.441-.098.43-.032 1.245-.088 1.813-.125 1.448-.095 1.291.004 1.238-.793-.112-1.676-.238-3.521-.457-6.645-.05-.705-.106-1.594-.129-1.972l-.043-.688-.293-.285c-.159-.156-.482-.454-.723-.664-.24-.21-.918-.797-1.503-1.308a319.475 319.475 0 0 0-2-1.743c-.241-.213-1.257-1.102-2.254-1.972-.893-.78-2.075-1.812-2.883-2.52z" fill="#A79984"/>
    <path d="M36.346 38.895c-.489-.162-1.019-.696-1.222-1.23-.367-.968.106-2.064 1.081-2.508.33-.15.464-.172.89-.15.803.045 1.369.417 1.723 1.133.25.503.241 1.246-.018 1.74-.48.914-1.494 1.332-2.453 1.015z" opacity=".2"/>
    <path d="M36.346 37.895c-.489-.162-1.019-.696-1.222-1.23-.367-.968.106-2.064 1.081-2.508.33-.15.464-.172.89-.15.803.045 1.369.417 1.723 1.133.25.503.241 1.246-.018 1.74-.48.914-1.494 1.332-2.453 1.015z" fill="#A79984"/>
    <path d="M20.8 4C11.495 4 4 11.494 4 20.8v1C4 12.495 11.494 5 20.8 5h22.4C52.505 5 60 12.494 60 21.8v-1C60 11.495 52.506 4 43.2 4H20.8z" opacity=".2" fill="#F9F5D7"/>
    <path d="M32 10a22 22 0 0 0-22 22 22 22 0 0 0 .018.49A22 22 0 0 1 32 11a22 22 0 0 1 21.975 21.49A22 22 0 0 0 54 32a22 22 0 0 0-22-22z" opacity=".2"/>
    <path d="M53.957 32.828A22 22 0 0 1 32 54a22 22 0 0 1-21.957-20.828A22 22 0 0 0 10 34a22 22 0 0 0 .025.51 22 22 0 0 1 .018-.338A22 22 0 0 0 32 55a22 22 0 0 0 21.957-21.172 22 22 0 0 1 .025.682A22 22 0 0 0 54 34a22 22 0 0 0-.043-1.172z" opacity=".2" fill="#F9F5D7"/>
    <path d="M23.883 14.828a18.934 18.934 0 0 0-9.668 10.512l.312.273a18.921 18.921 0 0 1 9.356-9.785c.808.708 1.99 1.74 2.883 2.52.997.87 2.013 1.76 2.254 1.972.24.213.55.48.687.598.137.117.727.633 1.313 1.145.585.511 1.263 1.099 1.503 1.308.241.21.564.508.723.664l.293.285.043.688c.023.378.08 1.267.129 1.972.206 2.94.323 4.655.43 6.254.076-.097.05-.268.027-.609-.112-1.676-.238-3.521-.457-6.645a247.77 247.77 0 0 1-.129-1.972l-.043-.688-.293-.285a20.156 20.156 0 0 0-.723-.664c-.24-.21-.918-.797-1.503-1.308a319.475 319.475 0 0 0-2-1.743c-.241-.213-1.257-1.102-2.254-1.972-.893-.78-2.075-1.812-2.883-2.52zM37.094 34.008c-.425-.024-.557-.002-.887.148-.915.417-1.378 1.406-1.13 2.324.153-.562.549-1.06 1.13-1.324.33-.15.462-.172.887-.148.804.044 1.372.417 1.726 1.133.054.108.09.231.12.357.108-.448.071-.972-.12-1.357-.354-.716-.922-1.089-1.726-1.133z" opacity=".2" fill="#F9F5D7"/>
</svg>
