<svg xmlns="http://www.w3.org/2000/svg" width="64" height="64">
    <path d="M60 58.25v-38.5c0-1.523-1.249-2.75-2.8-2.75H6.8C5.249 17 4 18.227 4 19.75v38.5C4 59.774 5.249 61 6.8 61h50.4c1.551 0 2.8-1.226 2.8-2.75z" opacity=".2"/>
    <path d="M60 45.25V6.75C60 5.226 58.751 4 57.2 4H6.8C5.249 4 4 5.227 4 6.75v38.5C4 46.774 5.249 48 6.8 48h50.4c1.551 0 2.8-1.226 2.8-2.75z" fill="#7F7061"/>
    <path d="M60 51.25v-38.5c0-1.523-1.249-2.75-2.8-2.75H6.8C5.249 10 4 11.227 4 12.75v38.5C4 52.773 5.249 54 6.8 54h50.4c1.551 0 2.8-1.226 2.8-2.75z" fill="#B57514"/>
    <path d="M60 57.25v-38.5c0-1.523-1.249-2.75-2.8-2.75H6.8C5.249 16 4 17.227 4 18.75v38.5C4 58.774 5.249 60 6.8 60h50.4c1.551 0 2.8-1.226 2.8-2.75z" fill="#E6D3A3"/>
    <path d="M6.8 4C5.25 4 4 5.227 4 6.75v1C4 6.227 5.25 5 6.8 5h50.4C58.75 5 60 6.226 60 7.75v-1C60 5.226 58.75 4 57.2 4H6.8z" opacity=".1" fill="#F9F5D7"/>
    <path d="M6.8 10C5.25 10 4 11.227 4 12.75v1C4 12.227 5.25 11 6.8 11h50.4c1.55 0 2.8 1.227 2.8 2.75v-1c0-1.523-1.25-2.75-2.8-2.75H6.8zM6.8 16C5.25 16 4 17.227 4 18.75v1C4 18.227 5.25 17 6.8 17h50.4c1.55 0 2.8 1.227 2.8 2.75v-1c0-1.523-1.25-2.75-2.8-2.75H6.8z" opacity=".2" fill="#F9F5D7"/>
</svg>
