<svg xmlns="http://www.w3.org/2000/svg" width="64" height="64" version="1">
    <rect width="57" height="57" x="-61" y="-60" rx="28.5" ry="28.5" transform="matrix(0 -1 -1 0 0 0)" opacity=".2"/>
    <rect width="57" height="57" x="-60" y="-60" rx="28.5" ry="28.5" transform="matrix(0 -1 -1 0 0 0)" fill="#8F3F71"/>
    <path d="M20.537 19c-3.036 0-5.991 2.477-5.478 5.455l3.287 19.09C18.859 46.523 20.79 49 23.826 49h15.348c3.036 0 4.967-2.477 5.48-5.455l3.287-19.09C48.454 21.477 45.5 19 42.463 19zM31.5 26a5.5 5.5 0 0 1 5.5 5.5 5.5 5.5 0 0 1-3 4.898V41.5c0 .831-.669 1.5-1.5 1.5h-2c-.831 0-1.5-.669-1.5-1.5v-5.107a5.5 5.5 0 0 1-3-4.893 5.5 5.5 0 0 1 5.5-5.5z" opacity=".2"/>
    <path d="M20.537 18c-3.036 0-5.991 2.477-5.478 5.455l3.287 19.09C18.859 45.523 20.79 48 23.826 48h15.348c3.036 0 4.967-2.477 5.48-5.455l3.287-19.09C48.454 20.477 45.5 18 42.463 18H20.537zM31.5 25a5.5 5.5 0 0 1 5.5 5.5 5.5 5.5 0 0 1-3 4.898V40.5c0 .831-.669 1.5-1.5 1.5h-2c-.831 0-1.5-.669-1.5-1.5v-5.107a5.5 5.5 0 0 1-3-4.893 5.5 5.5 0 0 1 5.5-5.5z" fill="#F9F5D7"/>
    <path d="M31.5 3A28.438 28.438 0 0 0 3 31.5c0 .168.009.333.012.5C3.278 16.445 15.879 4 31.5 4c15.621 0 28.222 12.445 28.488 28 .003-.167.012-.332.012-.5A28.438 28.438 0 0 0 31.5 3z" fill="#F9F5D7" opacity=".1"/>
</svg>
