<svg xmlns="http://www.w3.org/2000/svg" width="64" height="64">
    <path d="M19.947 38.876c-1.116 1.368.21 3.948.21 3.948s10.741 15.41 12.327 17.197c1.592 1.792 3.418.881 2.084-1.592-.177-.325-.528-1-.897-1.714l-6.683-11.162-2.864-4.784c-.9-1.383-1.384-2.099-2.736-2.506 0 0-1.11.303-1.441.613zm.834-.56a1.66 1.66 0 0 0-.503.25c.504-.252.503-.25.503-.25z" opacity=".2"/>
    <path d="M34.248 5.01c-7.395.597-11.91 27.057-11.26 33.825-.058-.035-.12-.056-.178-.088.291.45 1.468 7.835 1.784 8.343 3.325 5.336 6.979 6.608 9.205 9.91 3.55-.012 9.423 4.176 14.34 3.994 3.277-.12 7.718-4.113 6.853-16.203-.858-12.085-15.916-8.146-15.939-8.146 3.069-2.187 5.54-4.692 8.03-5.94 2.812-1.746-.944-6.984-4.402-13.201-2.885-5.187-5.186-11.586-6.915-12.256a3.365 3.365 0 0 0-1.518-.238z" opacity=".2"/>
    <path d="M11.698 29.7c5.188.38 6.835 2.5 9.101 9.3" fill="none" stroke="#3A393A" stroke-width="2"/>
    <path d="M34.248 4.01c-7.395.598-11.91 27.057-11.26 33.825-.058-.034-.12-.055-.178-.088.291.45 1.468 7.836 1.784 8.343C27.92 51.426 31.573 52.7 33.8 56c3.55-.011 9.423 4.176 14.34 3.995 3.277-.121 7.718-4.114 6.853-16.204-.858-12.085-15.916-8.146-15.939-8.146 3.069-2.187 5.54-4.691 8.03-5.94 2.812-1.745-.944-6.984-4.402-13.201-2.885-5.187-5.186-11.586-6.915-12.256a3.365 3.365 0 0 0-1.518-.238z" fill="#F9F5D7"/>
    <path d="M34.248 4.01c-7.063.57-11.486 24.688-11.305 32.754.166-8.893 4.514-31.206 11.305-31.754.493-.04 1 .034 1.518.238 1.728.67 4.03 7.07 6.916 12.256 2.44 4.387 5.017 8.28 5.341 10.809.423-2.423-2.553-6.796-5.341-11.81-2.886-5.186-5.188-11.585-6.916-12.255a3.366 3.366 0 0 0-1.518-.238zm9.633 31.025a22.205 22.205 0 0 0-3.094.29c-.563.443-1.13.888-1.734 1.32.023 0 15.08-3.939 15.94 8.146.05.71.08 1.387.095 2.043a40.17 40.17 0 0 0-.096-3.043c-.536-7.553-6.619-8.848-11.111-8.756zm-21.07 2.713c.037.058.089.238.152.496a16.26 16.26 0 0 1-.018-.431c-.044-.023-.09-.04-.134-.065z" fill="#F9F5D7" opacity=".2"/>
    <path d="M19.947 37.876c-1.116 1.368.21 3.948.21 3.948s10.741 15.411 12.327 17.197c1.592 1.792 3.418.882 2.084-1.591-.177-.326-.528-1-.897-1.715l-6.683-11.162-2.864-4.784c-.9-1.383-1.384-2.099-2.736-2.506 0 0-1.11.303-1.441.613zm.834-.56a1.66 1.66 0 0 0-.503.25c.504-.252.503-.25.503-.25z" fill="#3A393A"/>
    <circle cx="21" cy="40" r="4" opacity=".2"/>
    <circle cx="21" cy="39" r="4" fill="#504945"/>
    <circle cx="11.5" cy="30.499" r="2.5" opacity=".2"/>
    <circle cx="11.5" cy="29.5" r="2.5" fill="#504945"/>
    <path d="M27.178 15.142c-.134 0-.354.014-.569.022-.312.978-.608 1.98-.883 3.005 2.67-.58 5.637.656 7.074 2.907-.05-.78-.25-1.54-.59-2.24-1.026-2.095-2.626-3.693-5.032-3.694zM24.457 23.632a94.88 94.88 0 0 0-.511 2.784c2.189.156 4.871 1.097 5.895 2.702-.05-.78-.25-1.54-.59-2.24-.843-1.714-2.855-2.883-4.794-3.246z" fill="#504945"/>
</svg>
