<svg xmlns="http://www.w3.org/2000/svg" width="64" height="64">
    <path d="M32 5A28 28 0 0 0 4 33a28 28 0 0 0 28 28 28 28 0 0 0 28-28A28 28 0 0 0 32 5z" opacity=".2"/>
    <path d="M32 4A28 28 0 0 0 4 32a28 28 0 0 0 28 28 28 28 0 0 0 28-28A28 28 0 0 0 32 4z" fill="#FD8019"/>
    <path d="M32 5a28 28 0 0 0-2.578.128l-.363.036a28 28 0 0 0-10.922 3.53L10.32 48.688a28 28 0 0 0 10.075 7.754l2.863-15.566c2.995.17 7.071.185 10.898-.336 4.428-.604 8.885-1.871 12.95-5.012 4.064-3.14 6.988-7.36 6.988-13.727 0-2.333-.33-5.025-.903-7.078a28 28 0 0 0 0-.004c-.03-.034-.064-.063-.093-.097a27.976 27.976 0 0 0-1.914-1.992 28 28 0 0 0-.461-.407 28.058 28.058 0 0 0-1.766-1.476 28 28 0 0 0-.652-.47 27.974 27.974 0 0 0-1.723-1.151 28 28 0 0 0-.855-.489 27.955 27.955 0 0 0-1.688-.886 28 28 0 0 0-.934-.418 27.986 27.986 0 0 0-1.75-.692 28 28 0 0 0-1.02-.34 27.996 27.996 0 0 0-1.718-.476 28 28 0 0 0-1.152-.258 27.983 27.983 0 0 0-1.735-.285 28 28 0 0 0-1.148-.137A27.97 27.97 0 0 0 32 5zm1.148 8c1.171-.005 2.326.06 3.47.164 2.314.32 4.152 1.04 5.288 2.078C43.043 16.279 44 17.739 44 21.414c0 3.349-.96 5.136-2.734 6.425-1.775 1.29-4.824 2.413-8.22 2.848-2.397.308-4.854.35-7.046.29l3.574-17.731A26.574 26.574 0 0 1 33.148 13z" opacity=".2"/>
    <path d="M32 4a28 28 0 0 0-2.578.129c-.121.01-.242.023-.363.035a28 28 0 0 0-10.922 3.531l-8.13 41.586a28 28 0 0 0 6.403 5.953c.41.258.823.524 1.223.762a28 28 0 0 0 .031.02 28 28 0 0 0 2.39 1.273l3.204-17.414c2.995.17 7.071.186 10.898-.336 4.428-.604 8.885-1.87 12.95-5.012 4.064-3.14 6.988-7.36 6.988-13.726 0-2.334-.33-5.025-.903-7.078a28 28 0 0 0 0-.004c-.03-.035-.064-.064-.093-.098a27.992 27.992 0 0 0-1.914-1.992 28 28 0 0 0-.461-.406 28.06 28.06 0 0 0-1.766-1.477 28 28 0 0 0-.652-.469 27.975 27.975 0 0 0-1.723-1.152 28 28 0 0 0-.855-.488 27.955 27.955 0 0 0-1.688-.887 28 28 0 0 0-.934-.418 27.986 27.986 0 0 0-1.75-.691 28 28 0 0 0-1.02-.34 27.996 27.996 0 0 0-1.718-.477 28 28 0 0 0-1.152-.258 27.983 27.983 0 0 0-1.735-.285 28 28 0 0 0-1.148-.136A27.97 27.97 0 0 0 32 4zm1.148 8c1.171-.004 2.326.06 3.47.164 2.314.32 4.152 1.041 5.288 2.078C43.043 15.28 44 16.74 44 20.414c0 3.35-.96 5.137-2.734 6.426-1.775 1.29-4.824 2.412-8.22 2.847-2.397.308-4.854.35-7.046.29l3.574-17.73A26.574 26.574 0 0 1 33.148 12z" fill="#F9F5D7"/>
    <path d="M32 4A28 28 0 0 0 4 32a28 28 0 0 0 .021.406A28 28 0 0 1 32 5a28 28 0 0 1 27.979 27.578A28 28 0 0 0 60 32 28 28 0 0 0 32 4z" opacity=".2" fill="#F9F5D7"/>
</svg>
