<svg xmlns="http://www.w3.org/2000/svg" width="64" height="64" version="1">
    <rect width="56" height="56" x="4" y="5" rx="28" ry="28" opacity=".2"/>
    <rect width="56" height="56" x="4" y="4" rx="28" ry="28" fill="#CB241D"/>
    <g opacity=".2">
        <path d="M30 39c-4.2 5.6-3.957 10.046-5 16-1.401-6.313-.8-10.4-5-16l5 1zM44 39c-4.2 5.6-3.957 10.046-5 16-1.401-6.313-.8-10.4-5-16l5 1zM20 27c5.6 4.2 18.046 3.957 24 5-6.313 1.401-18.4.8-24 5l1-5zM20 13c5.6 4.2 18.046 3.957 24 5-6.313 1.401-18.4.8-24 5l1-5z"/>
        <path d="M24 20c5.6 4.2 10.046 3.957 16 5-6.313 1.401-10.4.8-16 5l1-5z"/>
    </g>
    <g fill="#F9F5D7">
        <path d="M30 38c-4.2 5.6-3.957 10.046-5 16-1.401-6.313-.8-10.4-5-16l5 1zM44 38c-4.2 5.6-3.957 10.046-5 16-1.401-6.313-.8-10.4-5-16l5 1zM20 26c5.6 4.2 18.046 3.957 24 5-6.313 1.401-18.4.8-24 5l1-5zM20 12c5.6 4.2 18.046 3.957 24 5-6.313 1.401-18.4.8-24 5l1-5z"/>
        <path d="M24 19c5.6 4.2 10.046 3.957 16 5-6.313 1.401-10.4.8-16 5l1-5z"/>
    </g>
    <path d="M32 4C16.488 4 4 16.488 4 32c0 .113.011.224.018.336C4.369 17.134 16.71 5 32 5c15.29 0 27.63 12.134 27.982 27.336.007-.112.018-.223.018-.336C60 16.488 47.512 4 32 4z" opacity=".2" fill="#F9F5D7"/>
</svg>
