<svg xmlns="http://www.w3.org/2000/svg" width="64" height="64" version="1">
    <rect width="56" height="56" x="4" y="4" rx="2.8" ry="2.8" fill="#F9BD2E"/>
    <path d="M27.024 14a4.995 4.995 0 0 0-4.99 5c0 2.762 2.235 5 4.99 5a4.995 4.995 0 0 0 4.99-5c0-2.761-2.234-5-4.99-5zm-3.991 12c-.806 0-1.534.485-1.844 1.23l-4.99 10c-1.102 2.494 2.693 4.08 3.684 1.54l2.214-5.32-.07.55v14c0 1.108.89 2 1.996 2h.008a1.993 1.993 0 0 0 1.995-2l-.008-8h1.996l.008 8c.001 1.108.89 2 1.996 2a1.993 1.993 0 0 0 1.995-2l-.008-14-.074-.598 2.23 5.368a1.994 1.994 0 0 0 2.853 1.004l3.052-.164c-.026.13-.078.252-.078.39v9a.997.997 0 1 0 1.996 0l-.008-5h2.003l.008 5a.997.997 0 1 0 1.996 0v-7.582l2.28 2.29c.941.98 2.39-.472 1.412-1.415l-3.984-4a.997.997 0 0 0-.706-.293h-3.722l-3.247.043c0-.28-.058-.557-.171-.812l-4.99-10a1.996 1.996 0 0 0-1.84-1.23zm19.949 3.5a3.504 3.504 0 0 0-3.493 3.5c0 1.927 1.57 3.5 3.493 3.5a3.504 3.504 0 0 0 3.492-3.5c0-1.927-1.57-3.5-3.492-3.5z" fill="#322F2E"/>
    <path d="M6.8 4C5.25 4 4 5.25 4 6.8v1C4 6.25 5.25 5 6.8 5h50.4C58.75 5 60 6.25 60 7.8v-1C60 5.25 58.75 4 57.2 4H6.8z" opacity=".2" fill="#F9F5D7"/>
    <path d="M4 57.2v1C4 59.75 5.25 61 6.8 61h50.4c1.55 0 2.8-1.25 2.8-2.8v-1c0 1.55-1.25 2.8-2.8 2.8H6.8C5.25 60 4 58.75 4 57.2z" opacity=".2"/>
</svg>
