<svg xmlns="http://www.w3.org/2000/svg" width="64" height="64" version="1">
    <path d="M49.999 32.001a18 18 0 0 1-18 18A18 18 0 0 1 14 32a18 18 0 0 1 18-17.999 18 18 0 0 1 17.999 18z" fill="#504945"/>
    <path d="M32 9.002a8 8 0 0 0-8 8 8 8 0 0 0 .07.988A8 8 0 0 1 32 11.002a8 8 0 0 1 7.93 7.012 8 8 0 0 0 .07-1.012 8 8 0 0 0-8-8zm-14 14a8 8 0 0 0-8 8 8 8 0 0 0 .07.987A8 8 0 0 1 18 25.002a8 8 0 0 1 7.93 7.011 8 8 0 0 0 .07-1.012 8 8 0 0 0-8-8zm27.999 0a8 8 0 0 0-8 8 8 8 0 0 0 .07.988A8 8 0 0 1 46 25.002a8 8 0 0 1 7.93 7.012 8 8 0 0 0 .07-1.012 8 8 0 0 0-8-8zm-41.948 9c-.012.333-.051.661-.051 1A27.938 27.938 0 0 0 31.999 61a27.938 27.938 0 0 0 27.999-27.999c0-.337-.04-.665-.051-1-.528 15.042-12.776 27-27.949 27-15.174 0-27.42-11.958-27.949-27zM32 37a8 8 0 0 0-8 8 8 8 0 0 0 .07.988A8 8 0 0 1 32 39a8 8 0 0 1 7.93 7.012A8 8 0 0 0 40 45a8 8 0 0 0-8-8z" opacity=".2"/>
    <path d="M32 4.002a27.938 27.938 0 0 0-28 28A27.938 27.938 0 0 0 32 60a27.938 27.938 0 0 0 27.998-27.999A27.938 27.938 0 0 0 32 4.002zm0 6a8 8 0 0 1 8 8 8 8 0 0 1-8 8 8 8 0 0 1-8-8 8 8 0 0 1 8-8zm-14 14a8 8 0 0 1 8 8A8 8 0 0 1 18 40a8 8 0 0 1-8-8 8 8 0 0 1 8-8zm27.999 0a8 8 0 0 1 8 8 8 8 0 0 1-8 7.999 8 8 0 0 1-8-8 8 8 0 0 1 8-8zM31.999 38a8 8 0 0 1 8 8 8 8 0 0 1-8 8 8 8 0 0 1-8-8 8 8 0 0 1 8-8z" fill="#F9F5D7"/>
    <path d="M32 4.002a27.94 27.94 0 0 0-28 28c0 .114.011.224.018.336C4.368 17.136 16.71 5.002 32 5.002h.002c15.29 0 27.63 12.134 27.98 27.336.007-.112.018-.223.018-.336 0-15.511-12.487-28-27.998-28H32z" opacity=".2" fill="#F9F5D7"/>
    <path d="M35.463 30.001a1 1 0 0 0-1.365-.366 1 1 0 0 0-.366 1.366 1 1 0 0 0 1.365.366 1 1 0 0 0 .366-1.366zm-4.097-1.098A1 1 0 0 0 30 28.537a1 1 0 0 0-.366 1.366A1 1 0 0 0 31 30.27a1 1 0 0 0 .366-1.366zm3 5.196A1 1 0 0 0 33 33.733a1 1 0 0 0-.366 1.366 1 1 0 0 0 1.366.366 1 1 0 0 0 .365-1.366zm-4.098-1.098a1 1 0 0 0-1.366-.366 1 1 0 0 0-.366 1.366 1 1 0 0 0 1.366.366 1 1 0 0 0 .366-1.366z" fill="#504945"/>
</svg>
