<svg xmlns="http://www.w3.org/2000/svg" width="64" height="64" version="1">
    <path d="M4 56.2v2C4 59.75 5.25 61 6.8 61h50.4c1.55 0 2.8-1.25 2.8-2.8v-2c0 1.55-1.25 2.8-2.8 2.8H6.8C5.25 59 4 57.75 4 56.2z" opacity=".2"/>
    <rect width="56" height="56" x="4" y="4" rx="2.8" ry="2.8" fill="#504945"/>
    <path d="M10.988 5.005l-.246.574c-.347.812-1.295 3.891-1.836 5.96-.34 1.304-.791 2.53-1.758 4.778-1.28 2.98-2.358 5.682-2.359 5.926 0 .06-.38 1.492-.789 3.003V56.2c0 .962.48 1.808 1.215 2.312.717-2.278 1.286-4.292 1.39-5.04.072-.51.352-1.542.622-2.292.27-.75.535-1.748.59-2.216.054-.468.318-1.614.59-2.55.27-.936.491-1.822.491-1.968 0-.146-.111-.422-.253-.614-.197-.266-.245-.458-.192-.786.06-.366.022-.46-.238-.64-.93-.642-.956-.866-.281-2.206.265-.53.697-1.494.957-2.146.26-.65 1.149-2.758 1.98-4.686 1.437-3.338 1.53-3.602 1.887-5.4.206-1.038.375-1.986.375-2.1 0-.24 2.225-5.815 3.496-8.762.855-1.983.859-1.994.859-3.09 0-.892.08-1.396.43-2.648.421-1.51.429-1.566.3-2.59-.178-1.43-.178-1.329.032-2.14.103-.4.22-.927.262-1.176l.074-.457h-7.598zm12.942 0l-.188.699a23.27 23.27 0 0 0-.274 1.117c-.134.671-.518 1.344-1.124 1.969-.7.722-.732.695 1.23 1.187.322.081.61.21.64.29.032.078-.054.547-.19 1.038-.136.492-.25 1.057-.25 1.258 0 .201-.112.938-.25 1.637a26.67 26.67 0 0 0-.352 2.66c-.112 1.549-.55 3.24-1.566 6.047-.326.898-.952 2.851-1.392 4.34-.471 1.597-1.136 3.505-1.624 4.655-.456 1.072-.867 2.11-.914 2.308-.047.2-.52 1.452-1.051 2.782-.726 1.82-.992 2.646-1.074 3.328-.06.5-.222 1.288-.36 1.754-.137.466-.359 1.608-.488 2.54-.265 1.906-.366 2.318-.707 2.874-.411.67-.717 1.914-.797 3.216-.055.9-.2 1.662-.508 2.718-.962 3.302-1.006 3.506-1.008 4.536 0 .35-.058.696-.109 1.042h6.633c-.77-.784-.761-.89.363-4.464 1.277-4.062 2.306-7.686 2.306-8.138 0-.494.412-1.654.828-2.32.868-1.392 1.19-2.172 2.538-6.128.79-2.322 1.574-4.602 1.742-5.068.176-.484.366-1.378.442-2.09.12-1.122.234-1.508 1.21-3.992.594-1.51 1.12-2.91 1.164-3.107.046-.2.404-1.182.794-2.18.842-2.154 1.198-3.468 1.198-4.43 0-.632-.042-.742-.366-1.032-.464-.414-.476-.998-.058-2.52.41-1.493 1.058-2.705 2.03-3.796.862-.965 1.83-2.625 2.316-3.965l.278-.765H23.93zm17.93 0l-.349 1a67.39 67.39 0 0 0-.808 2.57c-.254.865-.674 2.061-.938 2.66-.676 1.533-1.621 4.214-2.137 6.055-.484 1.729-2.322 7.63-3.514 11.3-.422 1.296-1.092 3.036-1.49 3.868-.476 1-.908 2.172-1.276 3.472a170.418 170.418 0 0 1-1.454 4.718 319.81 319.81 0 0 0-1.582 5.028 95.383 95.383 0 0 1-1.148 3.57c-.45 1.262-1.252 4.148-2.574 9.242l-.132.512h11.264c.208-.572.406-1.106.61-1.692.582-1.668 2.378-5.896 3.265-7.68.422-.844.536-.968 1.702-1.838l1.254-.934.88.058.882.058.888-.596c1.02-.688 1.032-.706 1.66-2.278a21.62 21.62 0 0 1 1.03-2.168c.308-.546 1.19-2.422 1.958-4.172.768-1.75 1.808-3.97 2.316-4.934 1.848-3.514 2.788-5.45 3.036-6.254l.686-2.25c.242-.783.674-1.937.962-2.557.782-1.688 2.262-5.484 3.148-8.008v-5.95a2.787 2.787 0 0 0-2.41-2.761l-2.91.023-.156.906c-.088.5-.318 1.59-.508 2.422-.198.86-.318 1.693-.286 1.934.044.317-.1.817-.562 1.996-.574 1.463-1.288 3.933-1.828 6.332-.146.644-.496 1.56-.958 2.5-.4.816-.726 1.548-.726 1.622 0 .322-1.148 3.281-1.55 3.995-.244.432-.54 1.014-.652 1.292-.114.278-.482.988-.818 1.578a31.543 31.543 0 0 0-1.19 2.398c-.32.728-.892 1.85-1.27 2.494-.38.642-.858 1.508-1.062 1.922-.23.46-.754 1.152-1.36 1.792-1.196 1.262-1.654 1.842-2.012 2.554-.4.798-.708 1.086-1.155 1.086-.212 0-.534-.116-.718-.262-.322-.252-.33-.29-.25-1.058.044-.438.124-1.502.174-2.366.112-1.898.204-2.16 1.605-4.536 1.314-2.226 1.388-2.378 1.73-3.46.158-.496.532-1.348.83-1.896 1.604-2.962 1.892-3.822 1.894-5.623 0-.314.06-.786.132-1.052.24-.874 3.248-8.285 4.72-11.628.326-.742.592-1.427.592-1.524 0-.097-.302-.456-.668-.797-.364-.34-.664-.69-.664-.777 0-.087.188-.551.418-1.031l.418-.875h-6.94zM60 30.796c-.05.162-.783 1.922-1.739 4.164-4.558 10.684-5.436 13.47-5.458 17.376-.004.736.048 1.042.228 1.332.23.374.23.388-.06 1.77a22.26 22.26 0 0 0-.37 2.612l-.06.95H57.2c1.55 0 2.8-1.25 2.8-2.8V30.796zM48.54 51.93c-.368 0-1.658.628-2.268 1.11-.572.448-1.854 2.094-2.152 2.76a40.107 40.107 0 0 0-.692 1.692c-.164.428-.432 1.002-.668 1.508h6.948c.016-.048.058-.138.068-.176.074-.3.16-.628.19-.734.062-.214-.148-.492-1.062-1.406l-.628-.63.44-1.844c.488-2.046.47-2.28-.176-2.28z" opacity=".2"/>
    <path d="M10.986 4.004l-.246.574c-.347.812-1.294 3.889-1.835 5.958-.34 1.304-.791 2.529-1.758 4.777-1.28 2.979-2.356 5.686-2.357 5.928 0 .06-.381 1.492-.79 3.002V57.2c0 .724.28 1.374.727 1.87l.132-.404c.916-2.804 1.624-5.315 1.747-6.196.07-.512.35-1.544.62-2.294s.537-1.747.591-2.215c.055-.468.32-1.616.59-2.551.272-.936.493-1.82.493-1.966 0-.146-.115-.423-.257-.616-.197-.265-.242-.455-.189-.782.06-.366.023-.462-.238-.642-.93-.642-.959-.865-.284-2.207.266-.528.697-1.493.957-2.143.26-.651 1.151-2.761 1.982-4.69 1.438-3.337 1.53-3.6 1.887-5.397.207-1.04.375-1.986.375-2.1 0-.24 2.226-5.817 3.497-8.764.855-1.982.858-1.993.858-3.09 0-.891.08-1.394.43-2.646.42-1.512.429-1.57.3-2.595-.179-1.43-.179-1.326.03-2.138.103-.4.221-.93.263-1.179l.077-.453h-7.602zm12.942 0l-.186.697c-.103.382-.227.885-.273 1.118-.135.671-.52 1.344-1.127 1.969-.7.722-.73.694 1.233 1.187.322.08.61.21.64.29.03.079-.055.545-.191 1.036-.137.491-.249 1.06-.25 1.26 0 .201-.113.937-.25 1.635a26.587 26.587 0 0 0-.35 2.661c-.113 1.549-.552 3.239-1.568 6.046-.324.898-.951 2.85-1.391 4.34-.472 1.597-1.139 3.505-1.627 4.656-.455 1.072-.867 2.111-.914 2.31-.046.199-.519 1.45-1.05 2.78-.725 1.823-.992 2.647-1.074 3.33-.06.5-.22 1.288-.358 1.754-.137.465-.357 1.609-.487 2.54-.265 1.906-.367 2.32-.708 2.876-.411.67-.719 1.912-.798 3.213-.056.9-.198 1.665-.506 2.72-.962 3.302-1.008 3.505-1.01 4.534 0 .987-.218 2.033-.563 2.71l-.169.334h7.596l.074-.378c.165-.826.093-1.105-.413-1.621-.77-.785-.76-.89.363-4.465 1.277-4.06 2.303-7.685 2.303-8.138 0-.494.416-1.653.831-2.318.869-1.393 1.19-2.173 2.538-6.13a587.73 587.73 0 0 1 1.741-5.067c.175-.485.365-1.379.44-2.09.12-1.123.236-1.508 1.212-3.992.594-1.51 1.12-2.909 1.165-3.109.045-.2.403-1.181.793-2.179.842-2.153 1.197-3.47 1.197-4.432 0-.631-.039-.739-.363-1.028-.465-.414-.478-1-.06-2.521.41-1.494 1.058-2.704 2.031-3.795.86-.966 1.83-2.625 2.316-3.965l.279-.766H23.928zm17.929 0l-.347.998c-.19.548-.554 1.705-.807 2.57-.253.865-.674 2.062-.938 2.66-.676 1.534-1.623 4.213-2.138 6.054-.484 1.73-2.32 7.633-3.514 11.302-.422 1.297-1.09 3.037-1.487 3.869-.477 1-.91 2.173-1.28 3.472-.307 1.08-.96 3.202-1.452 4.717a307.605 307.605 0 0 0-1.58 5.028 98.015 98.015 0 0 1-1.149 3.569c-.45 1.262-1.253 4.15-2.575 9.245l-.651 2.51h11.044L35.36 59c.208-.549.646-1.76.971-2.694.581-1.667 2.38-5.895 3.268-7.678.42-.845.535-.968 1.703-1.84l1.252-.935.88.057.881.06.886-.595c1.021-.687 1.034-.707 1.663-2.278a21.88 21.88 0 0 1 1.03-2.171c.308-.545 1.188-2.42 1.956-4.17.767-1.75 1.809-3.971 2.316-4.936 1.847-3.514 2.787-5.449 3.035-6.253l.689-2.25c.24-.786.674-1.936.962-2.557.782-1.684 2.26-5.481 3.146-8.006v-5.95a2.783 2.783 0 0 0-2.408-2.759l-2.91.022-.158.908a60.652 60.652 0 0 1-.506 2.42c-.197.86-.32 1.692-.287 1.933.044.317-.097.818-.56 1.996-.575 1.463-1.289 3.937-1.83 6.336-.144.642-.496 1.558-.957 2.499-.4.816-.727 1.545-.727 1.618 0 .322-1.148 3.285-1.55 3.998a14.74 14.74 0 0 0-.651 1.293c-.113.278-.482.987-.818 1.578-.335.59-.872 1.67-1.192 2.398-.32.728-.89 1.848-1.268 2.49-.38.644-.86 1.51-1.064 1.923-.229.46-.754 1.155-1.36 1.794-1.194 1.262-1.65 1.843-2.009 2.556-.4.798-.708 1.086-1.156 1.086-.213 0-.536-.118-.72-.262-.322-.254-.33-.29-.251-1.059a71.01 71.01 0 0 0 .175-2.368c.111-1.896.206-2.16 1.608-4.536 1.314-2.227 1.387-2.377 1.73-3.459.157-.494.53-1.348.826-1.895 1.605-2.963 1.896-3.822 1.898-5.624 0-.314.058-.787.131-1.053.24-.874 3.246-8.286 4.717-11.63.326-.74.593-1.425.593-1.522 0-.097-.301-.455-.667-.796-.366-.34-.664-.69-.664-.776 0-.087.188-.55.418-1.031l.418-.875h-6.942zm18.142 25.793c-.05.16-.783 1.92-1.74 4.162-4.557 10.683-5.433 13.471-5.454 17.377-.004.735.048 1.04.227 1.331.23.375.23.386-.06 1.767-.161.765-.326 1.942-.37 2.617l-.079 1.227.53.26c1.545.753 1.682.846 1.682 1.157v.303h2.491a2.79 2.79 0 0 0 2.772-2.796V29.8zM48.542 50.93c-.37 0-1.659.63-2.27 1.11-.571.449-1.853 2.092-2.152 2.76a42.28 42.28 0 0 0-.692 1.692 26.486 26.486 0 0 1-.883 1.996c-.268.532-.522 1.089-.566 1.238L41.9 60h6.995l.372-.818c.205-.449.433-1.06.509-1.359.075-.3.16-.63.191-.735.062-.214-.146-.49-1.06-1.406l-.63-.629.44-1.843c.488-2.047.47-2.28-.174-2.28z" fill="#FD8019"/>
    <path d="M6.8 4C5.25 4 4 5.25 4 6.8v1.003c0-1.551 1.25-2.801 2.8-2.801h50.4c1.55 0 2.8 1.25 2.8 2.8V6.802C60 5.25 58.75 4 57.2 4H6.8z" opacity=".1" fill="#F9F5D7"/>
</svg>
