<svg xmlns="http://www.w3.org/2000/svg" width="64" height="64">
    <path d="M53.599 34.965c-2.025.106-2.43 1.484-3.796 3.054-.915 1.053-2.427 5.22-7.722 6.65-5.236 1.413-11.398 1.089-14.467 2.982a32.814 32.814 0 0 1-4.391 2.256c-2.053 1.083-4.324 2.194-6.163 2.545-.545.104-1.287.135-2.11.12-.41.153-.758.302-.945.46-1.171.988-3.388 7.312-.582 7.932 2.806.62 14.893-6.933 26.004-6.56 11.11.374 18.382-5.916 19.707-10.667 1.325-4.751 1.65-7.264-2.873-8.413-1.13-.287-1.987-.394-2.662-.359z" opacity=".2" fill-rule="evenodd"/>
    <path d="M53.599 33.965c-2.025.106-2.43 1.484-3.796 3.054-.915 1.053-2.427 5.22-7.722 6.65-5.236 1.413-11.398 1.089-14.467 2.982a32.814 32.814 0 0 1-4.391 2.256c-2.053 1.083-4.324 2.194-6.163 2.545-.545.104-1.287.135-2.11.12-.41.153-.758.302-.945.46-1.171.988-3.388 7.312-.582 7.932 2.806.62 14.893-6.933 26.004-6.56 11.11.374 18.382-5.916 19.707-10.667 1.325-4.751 1.65-7.264-2.873-8.413-1.13-.287-1.987-.394-2.662-.359z" fill="#3A393A" fill-rule="evenodd"/>
    <path d="M35.82 6.282c-2.298.007-4.694.257-7.16.656-4.017.65-8.191 1.473-11.812 4.016-2.537 1.78-5.601 3.72-7.352 5.386-1.555 1.492-3.476 3.454-3.438 6.27-.012 1.329.012 2.568 2.012 4.61 0 0 .567 6.43.176 7.647 4.886-1.481 9.55-1.643 14.957-2.257 0 0 3.91 3.073 4.797 5.75.619 1.868-1.16 6.364-3.496 9.828-.434.746-1.073 1.4-1.813 1.976.176-.088.36-.167.532-.258a32.778 32.778 0 0 0 4.39-2.254c.768-.473 1.73-.808 2.82-1.066 1.092-.258 2.313-.44 3.602-.605 2.579-.333 5.43-.606 8.047-1.313 5.296-1.43 6.808-5.595 7.723-6.648 1.347-1.55 1.764-2.907 3.723-3.043l.004-.012c1.164-2.705 5.642-10.652-.317-19.738-4.47-6.815-10.498-8.968-17.395-8.945z" opacity=".2" fill-rule="evenodd"/>
    <path d="M35.82 5.282c-2.298.007-4.694.257-7.16.656-4.017.65-8.191 1.473-11.812 4.016-2.537 1.78-5.601 3.72-7.352 5.386-1.555 1.492-3.476 3.454-3.438 6.27-.012 1.329.012 2.568 2.012 4.61 0 0 .654 7.323.106 7.878-.548.555-1.75 1.815-2.778 2.3-1.027.486-.462.605-.804 2.548-.343 1.942.697 6.146 3.71 8.019 3.014 1.873 7.693 2.49 10.364 2.004.896-.163 1.51 1.129 2.394.996.727-.345 1.459-.689 2.16-1.059a32.778 32.778 0 0 0 4.391-2.254c.768-.473 1.73-.808 2.82-1.066 1.092-.258 2.313-.44 3.602-.605 2.579-.333 5.43-.606 8.047-1.313 5.296-1.43 6.808-5.595 7.723-6.648 1.347-1.55 1.764-2.907 3.723-3.043l.004-.012c1.164-2.705 5.642-10.652-.317-19.738-4.47-6.815-10.498-8.968-17.395-8.945z" fill="#066678" fill-rule="evenodd"/>
    <path d="M35.82 5.281c-2.298.008-4.694.258-7.16.657-4.017.65-8.191 1.472-11.812 4.015-2.537 1.781-5.601 3.72-7.352 5.387-1.555 1.492-3.476 3.454-3.437 6.27-.002.188.021.379.03.568.156-2.581 1.935-4.426 3.407-5.838 1.75-1.667 4.815-3.606 7.352-5.387 3.62-2.543 7.795-3.366 11.812-4.015 2.466-.4 4.862-.65 7.16-.657 6.897-.023 12.925 2.13 17.395 8.946 2.14 3.263 2.919 6.373 3.002 9.152.09-3.023-.6-6.491-3.002-10.152-4.47-6.815-10.498-8.969-17.395-8.946z" opacity=".1" fill="#F9F5D7" fill-rule="evenodd"/>
    <path d="M34.168 5.008c-.79.02-1.585.078-2.383.149h-.012c-.236.02-.47.045-.707.07h-.015a44.47 44.47 0 0 0-2.39.313c-.506.093-.959.196-1.423.297-.108.026-.216.06-.324.09-.31.08-.618.165-.93.261-3.243 1.027-6.671 3.087-9.55 5.133 6.05 1.93 18.706-2.298 25.875 1.18 6.248 3.03 14.221 9.11 8.953 23.679.57-.663 1.207-1.156 2.336-1.215.381-.02.841.02 1.355.098.114-.264.23-.533.371-.871.053-.126.114-.29.168-.426.155-.386.31-.806.473-1.27.074-.211.146-.448.219-.675.14-.434.275-.895.402-1.38.143-.544.284-1.097.395-1.698v-.004l.011-.063c.073-.402.136-.817.188-1.242.01-.085.018-.176.027-.262a20.716 20.716 0 0 0 .121-2.43 18.943 18.943 0 0 0-.082-1.484c-.017-.196-.034-.395-.058-.594-.038-.311-.09-.624-.145-.941-.033-.19-.062-.38-.101-.57-.074-.357-.171-.717-.27-1.078-.043-.16-.076-.32-.125-.48a18.28 18.28 0 0 0-1.328-3.247 20.432 20.432 0 0 0-1.012-1.722 23.543 23.543 0 0 0-1.16-1.614v-.004c-.367-.467-.75-.907-1.14-1.328h-.005a20.759 20.759 0 0 0-.293-.308h-.004c-.302-.314-.61-.615-.925-.903-.102-.092-.202-.19-.305-.28l-.012-.013a19.686 19.686 0 0 0-1.277-1.027 19.434 19.434 0 0 0-1.324-.887c-.121-.074-.245-.147-.367-.218h-.004c-.354-.208-.71-.406-1.074-.59h-.004c-.114-.058-.226-.117-.34-.172a20.64 20.64 0 0 0-1.446-.64c-.485-.191-.98-.357-1.48-.512-.14-.044-.28-.08-.422-.122-.086-.025-.175-.046-.262-.07-.194-.054-.39-.107-.586-.156l-.02-.004a24.847 24.847 0 0 0-2.253-.461 28.134 28.134 0 0 0-2.36-.242h-.007a30.534 30.534 0 0 0-.563-.031h-.031a32.84 32.84 0 0 0-2.375-.036z" opacity=".1" fill-rule="evenodd"/>
    <path d="M34.168 4.008c-.79.02-1.585.078-2.383.149h-.012c-.236.02-.47.045-.707.07h-.015a44.47 44.47 0 0 0-2.39.313c-.506.093-.959.196-1.423.297-.108.026-.216.06-.324.09-.31.08-.618.164-.93.261-3.243 1.026-6.671 3.087-9.55 5.133 6.05 1.93 18.706-2.298 25.875 1.18 6.248 3.03 14.221 9.11 8.953 23.679.57-.663 1.207-1.156 2.336-1.215.381-.02.841.02 1.355.098.114-.264.23-.533.371-.871.053-.126.114-.29.168-.426.155-.386.31-.806.473-1.27.074-.211.146-.449.219-.675.14-.434.275-.895.402-1.38.143-.544.284-1.097.395-1.698v-.004l.011-.063c.073-.402.136-.818.188-1.242.01-.085.018-.176.027-.262a20.716 20.716 0 0 0 .121-2.43 18.943 18.943 0 0 0-.082-1.484c-.017-.196-.034-.395-.058-.594-.038-.311-.09-.624-.145-.941-.033-.19-.062-.38-.101-.57a18.397 18.397 0 0 0-.27-1.078c-.043-.16-.076-.32-.125-.48a18.281 18.281 0 0 0-1.328-3.247 20.4 20.4 0 0 0-1.012-1.723 23.543 23.543 0 0 0-1.16-1.613v-.004c-.367-.467-.75-.907-1.14-1.328h-.005a20.759 20.759 0 0 0-.293-.308h-.004c-.302-.314-.61-.615-.925-.903-.102-.092-.202-.19-.305-.281l-.012-.012a19.686 19.686 0 0 0-1.277-1.027 19.435 19.435 0 0 0-1.324-.887c-.121-.074-.245-.147-.367-.218h-.004c-.354-.209-.71-.406-1.074-.59h-.004c-.114-.058-.226-.117-.34-.172a20.64 20.64 0 0 0-1.446-.64c-.485-.191-.98-.358-1.48-.513-.14-.043-.28-.08-.422-.12-.086-.026-.175-.047-.262-.07a23.42 23.42 0 0 0-.586-.157l-.02-.004a24.847 24.847 0 0 0-2.253-.461 28.134 28.134 0 0 0-2.36-.242h-.007a30.534 30.534 0 0 0-.563-.031h-.031a32.84 32.84 0 0 0-2.375-.036z" fill="#83A498" fill-rule="evenodd"/>
    <path d="M4 35.267l5 .277 16.919-1.456 8.288 1.595L39 24.1l-7.192-2.705-24.864 2.982" fill="none"/>
    <path d="M8.07 26.22s5.82-2.056 11.377-2.135c2.512-.035 3.835.164 5.929.396 3.737.531 3.221 2.346.56 4.153-3.693 2.463-2.958 3.375-8.645 4.082L8 33.917z" fill="#48B9C7" fill-rule="evenodd"/>
    <path d="M17.462 52.451c-2.526.482-7.41-.344-10.258-2.204-2.85-1.86-3.368-8.405-3.044-10.334.324-1.93.324-3.587 1.295-4.069 5.948-2.435 11.323-2.502 17.748-3.233 0 0 3.91 3.074 4.797 5.75.62 1.869-1.158 6.362-3.494 9.825-1.324 2.276-4.452 3.82-7.044 4.265z" opacity=".2" fill-rule="evenodd"/>
    <path d="M17.462 51.45c-2.526.483-7.41-.344-10.258-2.204-2.85-1.86-3.368-8.404-3.044-10.333.324-1.93.324-3.587 1.295-4.069 5.948-2.436 11.323-2.502 17.748-3.233 0 0 3.91 3.074 4.797 5.75.62 1.868-1.158 6.362-3.494 9.825-1.324 2.276-4.452 3.82-7.044 4.265z" fill="#665C54" fill-rule="evenodd"/>
    <ellipse cx="24" cy="38" rx="2" ry="2" opacity=".3"/>
    <path d="M34.168 4.008c-.79.02-1.585.077-2.383.148h-.012c-.236.021-.47.045-.707.07h-.015c-.795.085-1.592.184-2.39.313-.506.093-.959.197-1.423.297-.108.027-.216.061-.324.09-.31.081-.618.165-.93.261-3.243 1.027-6.67 3.088-9.55 5.133.34.109.705.196 1.087.266 2.64-1.788 5.612-3.496 8.463-4.399.312-.096.62-.18.93-.261.108-.029.216-.063.324-.09.464-.1.917-.204 1.422-.297.799-.13 1.596-.228 2.39-.312h.016c.237-.026.471-.05.707-.07h.012c.798-.072 1.594-.129 2.383-.15.8-.02 1.589 0 2.375.036h.031c.188.009.376.019.563.031h.008c.794.053 1.583.125 2.359.242.762.116 1.514.278 2.254.461l.02.004c.195.049.391.103.585.157.087.023.175.045.262.07.141.04.282.077.422.12.499.156.995.322 1.48.513.49.192.97.41 1.446.64.114.056.226.114.34.172h.003c.364.185.72.382 1.075.59h.004c.122.072.246.144.367.219.45.278.892.568 1.324.886.435.32.862.665 1.277 1.028l.012.011c.103.09.203.19.305.282.315.287.623.588.925.902h.004c.099.102.196.204.293.309h.004c.39.42.774.86 1.14 1.328v.004c.402.511.789 1.046 1.161 1.613.37.565.707 1.142 1.012 1.723l.004.007a18.282 18.282 0 0 1 1.324 3.238c.048.162.081.321.125.481.098.362.195.722.27 1.078.04.191.068.381.101.57.055.317.107.63.145.942.024.199.042.397.06.594.027.297.05.588.063.879l.007.27c.006-.22.014-.44.012-.665a18.944 18.944 0 0 0-.082-1.484 18.864 18.864 0 0 0-.06-.594c-.038-.311-.09-.625-.145-.941-.033-.19-.062-.38-.102-.57-.074-.357-.17-.717-.27-1.079-.043-.16-.076-.32-.124-.48a18.282 18.282 0 0 0-1.324-3.239l-.004-.007a20.403 20.403 0 0 0-1.012-1.723 23.543 23.543 0 0 0-1.16-1.613v-.004c-.367-.467-.751-.907-1.14-1.328h-.005a20.754 20.754 0 0 0-.293-.309h-.004c-.302-.314-.61-.615-.925-.902-.102-.093-.202-.191-.305-.281l-.012-.012a19.686 19.686 0 0 0-1.277-1.028 19.434 19.434 0 0 0-1.324-.886c-.121-.075-.245-.147-.367-.219h-.004c-.354-.208-.71-.405-1.075-.59h-.004c-.113-.058-.225-.116-.34-.172a20.64 20.64 0 0 0-1.445-.64c-.485-.19-.981-.357-1.48-.512-.14-.044-.28-.08-.422-.121-.087-.025-.175-.047-.262-.07-.194-.054-.39-.108-.586-.157l-.02-.004a24.847 24.847 0 0 0-2.253-.46 28.134 28.134 0 0 0-2.36-.243h-.007a30.532 30.532 0 0 0-.563-.031h-.031a32.84 32.84 0 0 0-2.375-.035zM52.934 27.44c-.116 2.275-.62 4.831-1.672 7.739.15-.175.311-.33.48-.473.715-2.302 1.096-4.387 1.192-6.266.014.245.007.506.011.758.023-.605.022-1.194-.011-1.758z" opacity=".2" fill="#F9F5D7" fill-rule="evenodd"/>
    <path d="M19.45 24.086c-5.559.079-11.38 2.133-11.38 2.133L8 33.918l.01-.002.06-6.697s5.821-2.054 11.38-2.133c2.511-.036 3.832.162 5.925.394 1.459.208 2.25.615 2.535 1.137.427-.995-.24-1.81-2.535-2.137-2.093-.232-3.414-.43-5.926-.394z" opacity=".1" fill-rule="evenodd"/>
</svg>
