<svg xmlns="http://www.w3.org/2000/svg" width="64" height="64">
    <rect width="57" height="57" x="-61" y="-61" rx="2.85" ry="2.85" transform="matrix(0 -1 -1 0 0 0)" opacity=".2"/>
    <rect width="57" height="57" x="-60" y="-61" rx="2.85" ry="2.85" transform="matrix(0 -1 -1 0 0 0)" fill="#504945"/>
    <path d="M30 10.17V23h4v-8.217l1.5-.996zm-6.912 5.64l-.24 4.192-5.27-.004 2.95-.998H1.362l10.696 1-3.72 3H27v-5.473zm17.824 0L37 17.528V23h18.66l-3.719-3 10.696-1H43.473l2.949.998-5.27.004zM18.762 25L23 28.37v26.452l7-4.27v4.303l11-8.126v-18.27L45.3 25H37v19.895l-2.959 2.072L33.959 25H30v19.938l-2.953 2.027L26.953 25z" opacity=".2"/>
    <path d="M30 9.17V22h4v-8.217l1.5-.996L30 9.17zm-6.912 5.64l-.24 4.192-5.27-.004 2.95-.998H1.362l10.696 1-3.72 3H27v-5.473l-3.912-1.716zm17.824 0L37 16.528V22h18.66l-3.719-3 10.696-1H43.473l2.949.998-5.27.004-.24-4.191zM18.762 24L23 27.37v26.452l7-4.27v4.303l11-8.126v-18.27L45.3 24H37v19.895l-2.959 2.072L33.959 24H30v19.938l-2.953 2.027L26.953 24h-8.191z" fill="#CB241D"/>
    <path d="M6.85 3A2.843 2.843 0 0 0 4 5.85v1C4 5.27 5.27 4 6.85 4h51.3C59.73 4 61 5.27 61 6.85v-1C61 4.27 59.73 3 58.15 3H6.85z" fill="#F9F5D7" opacity=".1"/>
</svg>
