<svg xmlns="http://www.w3.org/2000/svg" width="64" height="64" version="1">
    <rect width="56" height="56" x="4" y="4" rx="3" ry="3" fill="#F9F5D7"/>
    <path d="M7 4C5.338 4 4 5.338 4 7v1c0-1.662 1.338-3 3-3h50c1.662 0 3 1.338 3 3V7c0-1.662-1.338-3-3-3H7z" opacity=".2" fill="#F9F5D7"/>
    <path d="M4 57v1c0 1.662 1.338 3 3 3h50c1.662 0 3-1.338 3-3v-1c0 1.662-1.338 3-3 3H7c-1.662 0-3-1.338-3-3z" opacity=".2"/>
    <g opacity=".1">
        <path d="M24 37.5v-9l8-4.5 8 4.5v9L32 42zM33.085 13.713v7.912l8.266 4.487 6.888-4.133zM30.33 13.713v7.912l-8.266 4.487-6.888-4.133zM49.581 24.01l-6.852 3.955.248 9.402L50 41.266zM14.418 24.01l6.853 3.956-.248 9.401-7.023 3.9zM33.085 52.287v-7.912l8.266-4.487 6.888 4.133zM30.33 52.287v-7.912l-8.266-4.487-6.888 4.133z"/>
    </g>
    <path d="M24 36.5v-9l8-4.5 8 4.5v9L32 41z" fill="#F9BD2E"/>
    <path d="M33.085 12.713v7.912l8.266 4.487 6.888-4.133z" fill="#B7BB25"/>
    <path d="M30.33 12.713v7.912l-8.266 4.487-6.888-4.133z" fill="#48B9C7"/>
    <path d="M49.581 23.01l-6.852 3.955.248 9.402L50 40.266z" fill="#B57514"/>
    <path d="M14.418 23.01l6.853 3.956-.248 9.401L14 40.266z" fill="#8F3F71"/>
    <path d="M33.085 51.287v-7.912l8.266-4.487 6.888 4.133z" fill="#9D0006"/>
    <path d="M30.33 51.287v-7.912l-8.266-4.487-6.888 4.133z" fill="#8F3F71"/>
</svg>
